<?xml version="1.0" encoding="UTF-8"?><svg id="a" xmlns="http://www.w3.org/2000/svg" viewBox="0 0 152 133"><defs><style>.b{fill:#efd914;}.c{fill:#e5bf03;}.d{fill:#f7c910;}.e{fill:#fde334;}.f{fill:#fd0;}.g{fill:#fbed2b;}.h{fill:#fcd20e;}.i{fill:#edcc0a;}.j{fill:#f3bb19;}.k{fill:#fbf393;}</style></defs><g><path class="e" d="M16.3,63c3.27-3.47,21.16-17.67,23.5-18.87,4.42-.64,9.96-.52,11.14-.22,1.72,2.29-2.04,17.96-1.45,20.52-.98,1.19-14.58,12.76-16.1,13.57-1.79-.34-8.83-1.45-10.65-2.17-.89-1.68-5.69-11.27-6.43-12.84Z"/><path class="f" d="M16.3,63c3.74-.63,9.57,1.41,11.57,1.82,1.11,1.95,7.04,12.38,5.52,13.19-1.79-.34-8.83-1.45-10.65-2.17-.89-1.68-5.69-11.27-6.43-12.84Z"/><path class="h" d="M26.38,64.4c3.82-3.7,23.38-20.79,24.56-20.49,1.72,2.29,5.78,11.15,6.37,13.71-.98,1.19-22.4,19.57-23.92,20.38-1.56-3.29-5.83-11.69-7.01-13.6Z"/><path class="d" d="M38.57,71.89c-1.13,.48-2.42,1.2-3.72,.9-1.1-.25-2.1-.94-2.98-1.76-1.03-.95-1.89-2.07-2.8-3.16-.94-1.12-1.89-2.25-2.67-3.5l-.04,.03c1.18,1.91,5.44,10.32,7.01,13.6,1.16-.62,9.34-7.49,13.59-11.24-2.62,2.01-5.4,3.85-8.4,5.12Z"/></g><g><path class="g" d="M15.61,91.72c2.52-1.58,11.35-4.83,12.83-4.83,3.45,.99,8.65,2.95,11.32,4.83,.69,2.69,1.2,18.82,1.3,22.09-4.29,2.45-13.81,3.97-17.91,4.73-2.22-1.4-7.75-4.85-8.73-5.96-.3-3.86,.6-18.23,1.19-20.86Z"/><path class="k" d="M28.44,88.51c.52,.08,8.78,2.49,11.32,3.22-2.66-1.87-7.87-3.83-11.32-4.83-1.48,0-10.31,3.25-12.83,4.83,.79-.13,12.24-3.3,12.83-3.22Z"/><path class="f" d="M15.61,91.72c2.71,.94,6.6,6.78,7.69,7.83,.69,2.45,.89,12.98-.15,19-2.22-1.4-7.75-4.85-8.73-5.96-.3-3.86,.6-18.23,1.19-20.86Z"/><path class="h" d="M22.4,98.96c4.34-1.4,13.31-7.59,17.36-7.24,.69,2.69,1.2,18.82,1.3,22.09-4.29,2.45-13.81,3.97-17.91,4.73-.35-3.68-.75-15.26-.75-19.59Z"/><path class="d" d="M28.48,115.7c-1.21,.04-2.52-.18-3.03-1.32-1.01-2.23-1.11-11.49-2.74-15,0,4.53,.11,15.56,.44,19.17,4.09-.76,13.62-2.28,17.91-4.73,0-.08-11.63,1.85-12.58,1.88Z"/></g><g><path class="e" d="M20.93,76.19c4.44-1.32,26.57-4.35,29.16-4.17,4.14,1.75,8.92,4.75,9.81,5.63,.44,2.89-10.04,14.59-10.7,17.13-1.41,.53-18.57,3.51-20.28,3.42-1.41-1.23-7.03-5.87-8.29-7.45,0-1.93,.22-12.8,.3-14.55Z"/><path class="f" d="M20.93,76.19c3.55,1.4,7.7,6.22,9.25,7.63,.07,2.28,.44,14.47-1.26,14.38-1.41-1.23-7.03-5.87-8.29-7.45,0-1.93,.22-12.8,.3-14.55Z"/><path class="h" d="M29.07,82.68c5.03-1.23,29.94-5.91,30.83-5.03,.44,2.89-.09,12.74-.75,15.28-1.41,.53-28.52,5.36-30.22,5.27,.15-3.68,.3-13.24,.15-15.52Z"/><path class="d" d="M36.26,95.58c-1.21-.17-2.66-.22-3.65-1.16-.84-.79-1.4-1.92-1.79-3.09-.46-1.37-.69-2.79-.99-4.21-.3-1.47-.61-2.94-.72-4.45h-.05c.15,2.29,0,11.85-.15,15.53,1.3,.07,11.58-1.65,17.02-2.7-3.21,.38-6.47,.53-9.68,.08Z"/></g><g><path class="g" d="M40.97,43.63c4.44-1.32,15.76-3.51,18.35-3.33,4.14,1.75,10.29,4.47,11.17,5.35,.44,2.89,.74,12.45,.07,14.99-1.41,.53-16.87,4.38-18.57,4.3-1.41-1.23-10.06-5.17-11.32-6.75,0-1.93,.22-12.8,.3-14.55Z"/><path class="k" d="M70.49,45.65c-.89-.88-7.03-3.59-11.17-5.35,2.59,1.9,7.23,4.03,7.03,4.65-.09,.3-9.64,2.54-12.93,4.71,.06,.09-.68,1.08-.63,1.17,.59,.91,1.11,1.9,1.56,2.91,.85,1.93,1.5,3.97,1.97,6.08,.31,1.39,.55,2.8,.75,4.21,5.2-1.15,12.54-3.02,13.49-3.38,.67-2.54,.37-12.1-.07-14.99Z"/><path class="j" d="M40.97,43.63c3.55,1.4,10.06,4.73,11.62,6.14,.07,2.28,1.11,15.26-.59,15.17-2.52-.7-10.06-5.17-11.32-6.75,0-1.93,.22-12.8,.3-14.55Z"/><path class="h" d="M52.14,49.42c5.03-1.23,17.46-4.65,18.35-3.77,.44,2.89,.74,12.45,.07,14.99-1.41,.53-16.87,4.38-18.57,4.3,.15-3.68,.3-13.24,.15-15.52Z"/></g><g><path class="g" d="M49,59.89c4.44-1.32,15.76-3.51,18.35-3.33,4.14,1.75,10.29,4.47,11.17,5.35,.44,2.89,.74,12.45,.07,14.99-1.41,.53-16.87,4.38-18.57,4.3-1.41-1.23-10.06-5.17-11.32-6.75,0-1.93,.22-12.8,.3-14.55Z"/><path class="k" d="M78.53,61.91c-.89-.88-7.03-3.59-11.17-5.35,2.59,1.9,7.23,4.03,7.03,4.65-.09,.3-9.64,2.54-12.93,4.71,.06,.09-.68,1.08-.63,1.17,.59,.91,1.11,1.9,1.56,2.91,.85,1.93,1.5,3.97,1.97,6.08,.31,1.39,.55,2.8,.75,4.21,5.2-1.15,12.54-3.02,13.49-3.38,.67-2.54,.37-12.1-.07-14.99Z"/><path class="j" d="M49,59.89c3.55,1.4,10.06,4.73,11.62,6.14,.07,2.28,1.11,15.26-.59,15.17-2.52-.7-10.06-5.17-11.32-6.75,0-1.93,.22-12.8,.3-14.55Z"/><path class="h" d="M60.17,65.68c5.03-1.23,17.46-4.65,18.35-3.77,.44,2.89,.74,12.45,.07,14.99-1.41,.53-16.87,4.38-18.57,4.3,.15-3.68,.3-13.24,.15-15.52Z"/></g><g><path class="g" d="M52.63,90.04c4.44-1.32,15.76-3.51,18.35-3.33,4.14,1.75,10.29,4.47,11.17,5.35,.44,2.89,.74,12.45,.07,14.99-1.41,.53-16.87,4.38-18.57,4.3-1.41-1.23-10.06-5.17-11.32-6.75,0-1.93,.22-12.8,.3-14.55Z"/><path class="k" d="M82.16,92.05c-.89-.88-7.03-3.59-11.17-5.35,2.59,1.9,7.23,4.03,7.03,4.65-.09,.3-9.64,2.54-12.93,4.71,.06,.09-.68,1.08-.63,1.17,.59,.91,1.11,1.9,1.56,2.91,.85,1.93,1.5,3.97,1.97,6.08,.31,1.39,.55,2.8,.75,4.21,5.2-1.15,12.54-3.02,13.49-3.38,.67-2.54,.37-12.1-.07-14.99Z"/><path class="j" d="M52.63,90.04c3.55,1.4,10.06,4.73,11.62,6.14,.07,2.28,1.11,15.26-.59,15.17-2.52-.7-10.06-5.17-11.32-6.75,0-1.93,.22-12.8,.3-14.55Z"/><path class="h" d="M63.8,95.82c5.03-1.23,17.46-4.65,18.35-3.77,.44,2.89,.74,12.45,.07,14.99-1.41,.53-16.87,4.38-18.57,4.3,.15-3.68,.3-13.24,.15-15.52Z"/></g><g><path class="g" d="M34.89,62.68c4.44-1.32,15.76-3.51,18.35-3.33,4.14,1.75,10.29,4.47,11.17,5.35,.44,2.89,.74,12.45,.07,14.99-1.41,.53-16.87,4.38-18.57,4.3-1.41-1.23-10.06-5.17-11.32-6.75,0-1.93,.22-12.8,.3-14.55Z"/><path class="k" d="M64.41,64.69c-.89-.88-7.03-3.59-11.17-5.35,2.59,1.9,7.23,4.03,7.03,4.65-.09,.3-9.64,2.54-12.93,4.71,.06,.09-.68,1.08-.63,1.17,.59,.91,1.11,1.9,1.56,2.91,.85,1.93,1.5,3.97,1.97,6.08,.31,1.39,.55,2.8,.75,4.21,5.2-1.15,12.54-3.02,13.49-3.38,.67-2.54,.37-12.1-.07-14.99Z"/><path class="j" d="M34.89,62.68c3.55,1.4,10.06,4.73,11.62,6.14,.07,2.28,1.11,15.26-.59,15.17-2.52-.7-10.06-5.17-11.32-6.75,0-1.93,.22-12.8,.3-14.55Z"/><path class="h" d="M46.06,68.46c5.03-1.23,17.46-4.65,18.35-3.77,.44,2.89,.74,12.45,.07,14.99-1.41,.53-16.87,4.38-18.57,4.3,.15-3.68,.3-13.24,.15-15.52Z"/></g><g><path class="g" d="M68.42,48.16c4.44-1.32,15.76-3.51,18.35-3.33,4.14,1.75,10.29,4.47,11.17,5.35,.44,2.89,.74,12.45,.07,14.99-1.41,.53-16.87,4.38-18.57,4.3-1.41-1.23-10.06-5.17-11.32-6.75,0-1.93,.22-12.8,.3-14.55Z"/><path class="k" d="M97.94,50.17c-.89-.88-7.03-3.59-11.17-5.35,2.59,1.9,7.23,4.03,7.03,4.65-.09,.3-9.64,2.54-12.93,4.71,.06,.09-.68,1.08-.63,1.17,.59,.91,1.11,1.9,1.56,2.91,.85,1.93,1.5,3.97,1.97,6.08,.31,1.39,.55,2.8,.75,4.21,5.2-1.15,12.54-3.02,13.49-3.38,.67-2.54,.37-12.1-.07-14.99Z"/><path class="j" d="M68.42,48.16c3.55,1.4,10.06,4.73,11.62,6.14,.07,2.28,1.11,15.26-.59,15.17-2.52-.7-10.06-5.17-11.32-6.75,0-1.93,.22-12.8,.3-14.55Z"/><path class="h" d="M79.59,53.94c5.03-1.23,17.46-4.65,18.35-3.77,.44,2.89,.74,12.45,.07,14.99-1.41,.53-16.87,4.38-18.57,4.3,.15-3.68,.3-13.24,.15-15.52Z"/></g><g><path class="b" d="M104.18,35.5c4.6-1.38,16.33-3.68,19.01-3.5,4.29,1.84,10.66,4.69,11.58,5.61,.46,3.04,.77,13.07,.08,15.74-1.46,.55-17.48,4.6-19.24,4.51-1.46-1.29-10.43-5.43-11.73-7.09,0-2.02,.23-13.44,.31-15.28Z"/><path class="j" d="M104.18,35.5c3.68,1.47,10.43,4.97,12.04,6.44,.08,2.39,1.15,16.01-.61,15.92-2.61-.74-10.43-5.43-11.73-7.09,0-2.02,.23-13.44,.31-15.28Z"/><path class="c" d="M115.76,41.57c5.21-1.29,18.09-4.88,19.01-3.96,.46,3.04,.77,13.07,.08,15.74-1.46,.55-17.48,4.6-19.24,4.51,.15-3.87,.31-13.9,.15-16.29Z"/></g><g><path class="e" d="M24.06,37.77c4.44-1.32,26.57-4.35,29.16-4.17,4.14,1.75,8.92,4.75,9.81,5.63,.44,2.89-10.04,14.59-10.7,17.13-1.41,.53-18.57,3.51-20.28,3.42-1.41-1.23-7.03-5.87-8.29-7.45,0-1.93,.22-12.8,.3-14.55Z"/><path class="f" d="M24.06,37.77c3.55,1.4,7.7,6.22,9.25,7.63,.07,2.28,.44,14.47-1.26,14.38-1.41-1.23-7.03-5.87-8.29-7.45,0-1.93,.22-12.8,.3-14.55Z"/><path class="h" d="M32.2,44.26c5.03-1.23,29.94-5.91,30.83-5.03,.44,2.89-.09,12.74-.75,15.28-1.41,.53-28.52,5.36-30.22,5.27,.15-3.68,.3-13.24,.15-15.52Z"/><path class="d" d="M39.39,57.15c-1.21-.17-2.66-.22-3.65-1.16-.84-.79-1.4-1.92-1.79-3.09-.46-1.37-.69-2.79-.99-4.21-.3-1.47-.61-2.94-.72-4.45h-.05c.15,2.29,0,11.85-.15,15.53,1.3,.07,11.58-1.65,17.02-2.7-3.21,.38-6.47,.53-9.68,.08Z"/></g><g><path class="e" d="M66.05,80.72c3.27-3.47,21.16-17.67,23.5-18.87,4.42-.64,9.96-.52,11.14-.22,1.72,2.29-2.04,17.96-1.45,20.52-.98,1.19-14.58,12.76-16.1,13.57-1.79-.34-8.83-1.45-10.65-2.17-.89-1.68-5.69-11.27-6.43-12.84Z"/><path class="f" d="M66.05,80.72c3.74-.63,9.57,1.41,11.57,1.82,1.11,1.95,7.04,12.38,5.52,13.19-1.79-.34-8.83-1.45-10.65-2.17-.89-1.68-5.69-11.27-6.43-12.84Z"/><path class="h" d="M76.13,82.12c3.82-3.7,23.38-20.79,24.56-20.49,1.72,2.29,5.78,11.15,6.37,13.71-.98,1.19-22.4,19.57-23.92,20.38-1.56-3.29-5.83-11.69-7.01-13.6Z"/><path class="d" d="M88.33,89.6c-1.13,.48-2.42,1.2-3.72,.9-1.1-.25-2.1-.94-2.98-1.76-1.03-.95-1.89-2.07-2.8-3.16-.94-1.12-1.89-2.25-2.67-3.5l-.04,.03c1.18,1.91,5.44,10.32,7.01,13.6,1.16-.62,9.34-7.49,13.59-11.24-2.62,2.01-5.4,3.85-8.4,5.12Z"/></g><g><path class="e" d="M100.75,44.35c4.68,.67,26.87,7.03,29.3,8.24,3.41,3.2,7.02,7.72,7.59,8.84-.51,2.68-14.32,8.52-15.77,10.44-1.52-.12-18.93-4.51-20.54-5.28-.95-1.63-4.85-7.92-5.55-9.8,.62-1.66,4.33-10.96,4.97-12.44Z"/><path class="f" d="M100.75,44.35c2.95,2.65,5.37,8.5,6.41,10.34-.66,2-4.23,12.67-5.83,11.9-.95-1.63-4.85-7.92-5.55-9.8,.62-1.66,4.33-10.96,4.97-12.44Z"/><path class="h" d="M106.46,53.26c5.22,.98,30.61,7.06,31.18,8.17-.51,2.68-4.18,10.96-5.64,12.88-1.52-.12-29.07-6.96-30.67-7.72,1.33-3.12,4.54-11.31,5.14-13.33Z"/><path class="d" d="M109.21,67.31c-1.1-.64-2.48-1.27-3.13-2.48-.55-1.02-.72-2.22-.72-3.39,0-1.36,.23-2.69,.41-4.04,.18-1.39,.36-2.79,.74-4.13h-.05c-.59,2.02-3.81,10.21-5.14,13.32,1.22,.58,11.63,3.28,17.19,4.58-3.2-.98-6.38-2.17-9.3-3.86Z"/></g><g><path class="g" d="M70.97,14.45c5.33,1.05,17.67,6.46,18.7,7.25,.15,5.09-.3,15.96-.37,16.92-2.22,1.93-9.92,6.14-11.99,7.01-4.29-.88-12.51-2.89-15.98-4.03-.59-4.12-1.83-22.88-1.68-23.93,2.59-2.19,10.36-3.13,11.32-3.22Z"/><path class="k" d="M70.97,15.26c.96,0,15.04,5.96,18.39,6.25-1.9-1.04-13.42-6.07-18.39-7.05-.96,.09-12.07,2.41-12.83,3.22,.6,1.41,1.28,1.97,.75,.8,2.89-.7,11-3.22,12.07-3.22Z"/><path class="f" d="M77.44,27.66c.15,5.09,.69,13.79-.12,17.97-4.29-.88-14.94-2.7-18.42-3.84-.59-4.12-.9-23.07-.75-24.13,4.09,.44,18.26,9.2,19.3,9.99Z"/><path class="i" d="M89.68,21.7c.15,5.09-.3,15.96-.37,16.92-2.22,1.93-9.92,6.14-11.99,7.01-.67-3.24-.76-16.92-.76-18.44,3.75-2.57,10.26-5.14,13.12-5.49Z"/><path class="d" d="M88.08,38.71c-1.93,1.18-4.31,2.46-6.54,2.05-1.96-.36-2.63-2.48-3.24-4.46-.91-2.96-1.53-6.02-1.66-9.16-.03,.02-.06,.04-.08,.06,0,1.52,.1,15.2,.76,18.44,2.07-.88,9.77-5.09,11.99-7.01,0-.11,.02-.37,.04-.73-.42,.28-.84,.56-1.27,.82Z"/></g><g><path class="f" d="M112.67,65.01c5.33,1.05,17.67,6.46,18.7,7.25,.15,5.09-.3,15.96-.37,16.92-2.22,1.93-9.92,6.14-11.99,7.01-4.29-.88-12.51-2.89-15.98-4.03-.59-4.12-1.83-22.88-1.68-23.93,2.59-2.19,10.36-3.13,11.32-3.22Z"/><path class="g" d="M119.14,78.21c.15,5.09,.69,13.79-.12,17.97-4.29-.88-14.94-2.7-18.42-3.84-.59-4.12-.9-23.07-.75-24.13,4.09,.44,18.26,9.2,19.3,9.99Z"/><path class="h" d="M131.37,72.25c.15,5.09-.3,15.96-.37,16.92-2.22,1.93-9.92,6.14-11.99,7.01-.67-3.24-.76-16.92-.76-18.44,3.75-2.57,10.26-5.14,13.12-5.49Z"/><path class="d" d="M129.77,89.26c-1.93,1.18-4.31,2.46-6.54,2.05-1.96-.36-2.63-2.48-3.24-4.46-.91-2.96-1.53-6.02-1.66-9.16-.03,.02-.06,.04-.08,.06,0,1.52,.1,15.2,.76,18.44,2.07-.88,9.77-5.09,11.99-7.01,0-.11,.02-.37,.04-.73-.42,.28-.84,.56-1.27,.82Z"/></g><g><path class="g" d="M49.21,17.55c4.52,3.19,13.89,13.31,14.55,14.47-1.73,4.74-6.13,14.56-6.56,15.42-2.75,.85-11.38,1.51-13.61,1.45-3.63-2.6-10.44-7.88-13.23-10.38,.97-4.04,6.72-21.82,7.24-22.72,3.19-.94,10.68,1.44,11.6,1.76Z"/><path class="k" d="M48.92,18.29c.89,.4,11.65,11.76,14.63,13.42-1.36-1.75-10.12-11.19-14.33-14.16-.92-.32-12-2.82-12.99-2.39,.04,1.55,.46,2.34,.4,1.05,2.91,.56,11.3,1.63,12.29,2.08Z"/><path class="f" d="M50.32,32.4c-1.73,4.74-4.43,12.98-6.72,16.49-3.63-2.6-12.76-8.72-15.54-11.22,.97-4.04,7.65-21.61,8.17-22.52,3.61,2.11,13.42,16.09,14.09,17.24Z"/><path class="i" d="M63.76,32.02c-1.73,4.74-6.13,14.56-6.56,15.42-2.75,.85-11.38,1.51-13.61,1.45,.58-3.26,5.51-15.89,6.07-17.29,4.39-.8,11.33-.45,14.09,.42Z"/><path class="d" d="M56.04,47.01c-2.21,.29-4.86,.47-6.77-.84-1.67-1.15-1.51-3.38-1.34-5.45,.25-3.1,.81-6.18,1.84-9.12-.03,0-.07,.01-.1,.02-.56,1.4-5.49,14.02-6.07,17.29,2.23,.06,10.86-.6,13.61-1.45,.05-.1,.16-.33,.31-.66-.49,.08-.98,.16-1.47,.23Z"/></g><g><path class="g" d="M104.42,24.83c4.52,3.19,13.89,13.31,14.55,14.47-1.73,4.74-6.13,14.56-6.56,15.42-2.75,.85-11.38,1.51-13.61,1.45-3.63-2.6-10.44-7.88-13.23-10.38,.97-4.04,6.72-21.82,7.24-22.72,3.19-.94,10.68,1.44,11.6,1.76Z"/><path class="k" d="M104.12,25.57c.89,.4,11.65,11.76,14.63,13.42-1.36-1.75-10.12-11.19-14.33-14.16-.92-.32-12-2.82-12.99-2.39,.04,1.55,.46,2.34,.4,1.05,2.91,.56,11.3,1.63,12.29,2.08Z"/><path class="f" d="M105.52,39.68c-1.73,4.74-4.43,12.98-6.72,16.49-3.63-2.6-12.76-8.72-15.54-11.22,.97-4.04,7.65-21.61,8.17-22.52,3.61,2.11,13.42,16.09,14.09,17.24Z"/><path class="h" d="M118.97,39.3c-1.73,4.74-6.13,14.56-6.56,15.42-2.75,.85-11.38,1.51-13.61,1.45,.58-3.26,5.51-15.89,6.07-17.29,4.39-.8,11.33-.45,14.09,.42Z"/><path class="d" d="M111.25,54.29c-10.89,2.44-8.57-8.15-6.28-15.42-.03,0-.07,.01-.1,.02-.56,1.4-5.49,14.02-6.07,17.29,2.23,.06,10.86-.6,13.61-1.45,.05-.1,.16-.33,.31-.66-.49,.08-.98,.16-1.47,.23Z"/></g><g><path class="g" d="M49,74.36c4.44-1.32,15.76-3.51,18.35-3.33,4.14,1.75,10.29,4.47,11.17,5.35,.44,2.89,.74,12.45,.07,14.99-1.41,.53-16.87,4.38-18.57,4.3-1.41-1.23-10.06-5.17-11.32-6.75,0-1.93,.22-12.8,.3-14.55Z"/><path class="k" d="M78.53,76.38c-.89-.88-7.03-3.59-11.17-5.35,2.59,1.9,7.23,4.03,7.03,4.65-.09,.3-9.64,2.54-12.93,4.71,.06,.09-.68,1.08-.63,1.17,.59,.91,1.11,1.9,1.56,2.91,.85,1.93,1.5,3.97,1.97,6.08,.31,1.39,.55,2.8,.75,4.21,5.2-1.15,12.54-3.02,13.49-3.38,.67-2.54,.37-12.1-.07-14.99Z"/><path class="j" d="M49,74.36c3.55,1.4,10.06,4.73,11.62,6.14,.07,2.28,1.11,15.26-.59,15.17-2.52-.7-10.06-5.17-11.32-6.75,0-1.93,.22-12.8,.3-14.55Z"/><path class="h" d="M60.17,80.15c5.03-1.23,17.46-4.65,18.35-3.77,.44,2.89,.74,12.45,.07,14.99-1.41,.53-16.87,4.38-18.57,4.3,.15-3.68,.3-13.24,.15-15.52Z"/></g><g><path class="g" d="M32.04,88.85c4.44-1.32,15.76-3.51,18.35-3.33,4.14,1.75,10.29,4.47,11.17,5.35,.44,2.89,.74,12.45,.07,14.99-1.41,.53-16.87,4.38-18.57,4.3-1.41-1.23-10.06-5.17-11.32-6.75,0-1.93,.22-12.8,.3-14.55Z"/><path class="k" d="M61.56,90.86c-.89-.88-7.03-3.59-11.17-5.35,2.59,1.9,7.23,4.03,7.03,4.65-.09,.3-9.64,2.54-12.93,4.71,.06,.09-.68,1.08-.63,1.17,.59,.91,1.11,1.9,1.56,2.91,.85,1.93,1.5,3.97,1.97,6.08,.31,1.39,.55,2.8,.75,4.21,5.2-1.15,12.54-3.02,13.49-3.38,.67-2.54,.37-12.1-.07-14.99Z"/><path class="j" d="M32.04,88.85c3.55,1.4,10.06,4.73,11.62,6.14,.07,2.28,1.11,15.26-.59,15.17-2.52-.7-10.06-5.17-11.32-6.75,0-1.93,.22-12.8,.3-14.55Z"/><path class="h" d="M43.21,94.63c5.03-1.23,17.46-4.65,18.35-3.77,.44,2.89,.74,12.45,.07,14.99-1.41,.53-16.87,4.38-18.57,4.3,.15-3.68,.3-13.24,.15-15.52Z"/></g><g><path class="e" d="M47.5,46.02c4.14-2.15,25.39-9.42,27.96-9.75,4.37,.92,9.58,2.95,10.61,3.64,.93,2.76-7.38,16.29-7.6,18.92-1.29,.79-17.67,7.05-19.35,7.29-1.59-.93-7.91-4.41-9.42-5.72-.33-1.9-1.96-12.63-2.19-14.37Z"/><path class="f" d="M47.5,46.02c3.73,.69,8.63,4.63,10.4,5.71,.46,2.23,2.9,14.14,1.22,14.38-1.59-.93-7.91-4.41-9.42-5.72-.33-1.9-1.96-12.63-2.19-14.37Z"/><path class="i" d="M56.62,50.83c4.74-2.18,28.44-11.61,29.46-10.92,.93,2.76,2.09,12.54,1.86,15.17-1.29,.79-27.13,10.79-28.82,11.04-.48-3.65-1.97-13.08-2.5-15.29Z"/><path class="d" d="M65.89,62.11c-1.21,.06-2.66,.3-3.79-.43-.96-.62-1.7-1.61-2.28-2.69-.68-1.26-1.16-2.61-1.69-3.95-.55-1.38-1.1-2.78-1.47-4.24l-.04,.02c.53,2.21,2.02,11.64,2.5,15.29,1.29-.19,11.11-3.87,16.28-5.95-3.09,.99-6.27,1.78-9.5,1.95Z"/></g><g><path class="g" d="M77.07,83.6c4.44-1.32,15.76-3.51,18.35-3.33,4.14,1.75,10.29,4.47,11.17,5.35,.44,2.89,.74,12.45,.07,14.99-1.41,.53-16.87,4.38-18.57,4.3-1.41-1.23-10.06-5.17-11.32-6.75,0-1.93,.22-12.8,.3-14.55Z"/><path class="k" d="M106.6,85.62c-.89-.88-7.03-3.59-11.17-5.35,2.59,1.9,7.23,4.03,7.03,4.65-.09,.3-9.64,2.54-12.93,4.71,.06,.09-.68,1.08-.63,1.17,.59,.91,1.11,1.9,1.56,2.91,.85,1.93,1.5,3.97,1.97,6.08,.31,1.39,.55,2.8,.75,4.21,5.2-1.15,12.54-3.02,13.49-3.38,.67-2.54,.37-12.1-.07-14.99Z"/><path class="j" d="M77.07,83.6c3.55,1.4,10.06,4.73,11.62,6.14,.07,2.28,1.11,15.26-.59,15.17-2.52-.7-10.06-5.17-11.32-6.75,0-1.93,.22-12.8,.3-14.55Z"/><path class="j" d="M88.24,89.39c5.03-1.23,17.46-4.65,18.35-3.77,.44,2.89,.74,12.45,.07,14.99-1.41,.53-16.87,4.38-18.57,4.3,.15-3.68,.3-13.24,.15-15.52Z"/></g></svg>