<?xml version="1.0" encoding="utf-8"?>
<!-- Generator: Adobe Illustrator 26.2.1, SVG Export Plug-In . SVG Version: 6.00 Build 0)  -->
<svg version="1.1" id="a" xmlns="http://www.w3.org/2000/svg" xmlns:xlink="http://www.w3.org/1999/xlink" x="0px" y="0px"
	 viewBox="0 0 152 133" style="enable-background:new 0 0 152 133;" xml:space="preserve">
<style type="text/css">
	.st0{fill-rule:evenodd;clip-rule:evenodd;fill:#962269;stroke:#74184F;stroke-width:0.25;stroke-miterlimit:10;}
	.st1{fill-rule:evenodd;clip-rule:evenodd;fill:#E0BE4F;}
	.st2{fill:#DBB042;}
	.st3{fill-rule:evenodd;clip-rule:evenodd;fill:#E8BE60;}
	.st4{fill-rule:evenodd;clip-rule:evenodd;fill:#7F165C;stroke:#74184F;stroke-width:0.25;stroke-miterlimit:10;}
	.st5{fill-rule:evenodd;clip-rule:evenodd;fill:#FFE1A4;}
	.st6{fill-rule:evenodd;clip-rule:evenodd;fill:#F6D275;}
	.st7{fill-rule:evenodd;clip-rule:evenodd;fill:#771356;stroke:#74184F;stroke-width:0.25;stroke-miterlimit:10;}
	.st8{fill-rule:evenodd;clip-rule:evenodd;fill:#CE9F29;}
	.st9{fill:#BF8F2E;}
	.st10{fill-rule:evenodd;clip-rule:evenodd;fill:#7C1459;stroke:#74184F;stroke-width:0.25;stroke-miterlimit:10;}
	.st11{fill-rule:evenodd;clip-rule:evenodd;fill:#CE9B41;}
	.st12{fill-rule:evenodd;clip-rule:evenodd;fill:#680D52;stroke:#74184F;stroke-width:0.25;stroke-miterlimit:10;}
	.st13{fill-rule:evenodd;clip-rule:evenodd;fill:#82195F;stroke:#74184F;stroke-width:0.25;stroke-miterlimit:10;}
	.st14{fill-rule:evenodd;clip-rule:evenodd;fill:#C99B2B;}
	.st15{fill:#C19130;}
	.st16{fill-rule:evenodd;clip-rule:evenodd;fill:#D6AE54;}
	.st17{fill-rule:evenodd;clip-rule:evenodd;fill:#F2CF81;}
	.st18{fill-rule:evenodd;clip-rule:evenodd;fill:#FFDA88;}
	.st19{fill-rule:evenodd;clip-rule:evenodd;fill:#D3AA37;}
	.st20{fill-rule:evenodd;clip-rule:evenodd;fill:#FFD576;}
	.st21{fill-rule:evenodd;clip-rule:evenodd;fill:#82175E;stroke:#74184F;stroke-width:0.25;stroke-miterlimit:10;}
	.st22{fill-rule:evenodd;clip-rule:evenodd;fill:#E0AF61;}
	.st23{fill-rule:evenodd;clip-rule:evenodd;fill:#841860;stroke:#74184F;stroke-width:0.25;stroke-miterlimit:10;}
	.st24{fill-rule:evenodd;clip-rule:evenodd;fill:#A0307B;stroke:#74184F;stroke-width:0.25;stroke-miterlimit:10;}
</style>
<g>
	<g>
		<g>
			<g>
				<path class="st0" d="M60.5,74.9c-2,1.8-2.4,4.2-2.4,4.5c0,0.1,0,0.1-0.1,0.2c-0.1,0.1-0.9,0.2-1.1,0.2c-0.3,0.1-0.6,0.1-0.8,0.1
					c-0.2,0-0.4,0.2-0.6,0.1c-1.9-0.7-4-1-6-0.8c-2.2,0-4.5,0.5-6.4,1.2c-3.1,1.1-6,2.8-8.5,5c-1.1,1-2.1,2.2-2.9,3.5
					c-1.2,0.5-2.4,1.6-4,2.3c-0.1-0.1-0.6-0.5-0.7-0.6c-4.6-3.6-11.6-16.9-1.2-24.7c10.6-8,18.3-6.8,25.2-5.2
					c6.9,1.6,11.6,8.6,12,10.1C63.5,72.2,62.5,73.1,60.5,74.9z"/>
			</g>
		</g>
		<g>
			<path class="st1" d="M55.5,80c0,0-2.7-0.6-3-0.7c-1.1-0.1-2.1-0.1-3.2-0.1c-2.1,0.1-4.1,0.5-6.1,1.2c-3.1,1.1-6,2.8-8.5,5
				c-1.1,1-1.5,2-2.3,3.3c-1.2,0.5-2.7,1.4-4.1,2.3c-3.2-2.2-5.2-5.7-6.3-9.4c-1.8-5.7-0.9-10.8,5.1-15.7c1.3-1,3.1-1.9,4.3-2.6
				c3.3-1.9,7.1-2.3,10.8-1.4c1.6,0.4,3,1.1,4.5,1.7c1.3,0.6,2.6,1.3,3.8,2c1.1,0.7,2.1,1.6,3,2.4c0.9,0.9,1.5,1.8,2,3
				c0.5,1,0.6,2.1,0.7,3.2c0.1,1.2,0,2.4-0.2,3.6C56,78.6,55.9,79.3,55.5,80z"/>
		</g>
		<g>
			<path class="st2" d="M51.7,73.5c-0.2,0.7-0.5,1.6-0.1,2.2c0.4,0.7,2.4,0.4,3.9,0.5c-1,0.2-1.6,0.7-2.4,1.1
				c-0.6,0.3-0.4,1.1-0.2,2c-4.2-1.2-10.5,0.9-13.7,3.2c0,0,0,0-0.1,0.1c-2.8,1.5-5.2,3.5-6.8,6.2c-0.2,0.2-0.6,0.2-0.8,0.4
				c-0.2-0.4-0.3-0.5-0.6-0.6c-0.6-0.3-1.1-0.1-1.5,0.2c-0.3,0.2-1,0.5-1.1,0.9c0.2-0.5,1.3-2,1.1-2.8c-0.4-1.3-1.5-1-2.1-0.8
				c-0.3,0.1-0.7,0.3-1,0.4c-0.3,0.1-0.8,0.2-1.1,0.4c0.3-0.3,1.9-1.4,2.2-1.7c1.6-2.1-0.5-3.7-2.8-4.2c0.6,0.1,1.8-0.1,2.4-0.1
				c0.7,0,1.4-0.4,1.4-1.2c0-1.2-1.7-2.4-1.5-2.4c-0.1-0.1-0.9-0.5-1-0.6c1.1,0.2,3.9,1.2,2.7-1c-0.6-1-1.9-2.3-2.9-2.9
				c1.7,0.9,4.9,2.5,5.2,1.3c0-0.2,0-0.5,0-0.7c-0.4-1.2-1.1-3-1.7-4.4c0.9,1.3,2.5,2.8,3.5,2.9c0.7,0.1,1.1-0.7,1.1-1.5
				c0-0.8-0.8-2.8-1-3.7c1,1.5,3.3,3.7,4.2,3c0.9-0.8,0.4-2.6,0.1-4.5c0.3,0.8,0.6,1.6,1.1,2.3c0.5,0.7,1.2,1.2,1.7,1.1
				c0.7-0.2,1.3-0.4,1.4-1.4c0.1-1.4,0.2-1.2,0.4-2.5c0.2,1.9,0.3,1.9,0.6,3.8c0.1,0.4,0.2,0.8,0.5,1.1c0.7,0.7,1.5,0.1,1.7-0.8
				c0.3-0.9,0.6-1.8,1-3.2c0,1.9-0.3,4.9,0.1,5.4c0.6,0.6,1.6,0.4,2.1-0.4c0.5-0.8,0.8-1.5,1.5-2.6c-0.3,1.5-0.9,2.7-0.4,4.2
				c0.9,2.5,3,0.5,3.6-0.5c0,0.2-0.3,0.7-0.4,0.9C51.8,72.8,51.7,73.2,51.7,73.5z"/>
		</g>
		<g>
			<path class="st3" d="M49.7,79.5c-2.3,0.4-4,1.3-5.9,2.2c-3.1,1.5-5.1,2.6-8,4.6c-1,0.7-2.3,1.7-3.5,2.5
				c-0.9-3.3-0.3-8.1,1.3-10.8c1.1-1.8,2.9-3.4,4.7-4.3c1.9-0.9,4.4-0.6,6.5-0.1c3.1,0.7,6.1,2.7,7.8,5.7
				C51.6,79.1,50.7,79.4,49.7,79.5z"/>
		</g>
	</g>
	<g>
		<g>
			<g>
				<path class="st4" d="M60.7,15.4c-2.5,1-4.8,0.4-5.1,0.3c-0.1,0-0.1,0-0.2,0c-0.2,0-0.5,0.7-0.7,0.9c-0.2,0.2-0.3,0.5-0.5,0.7
					c-0.1,0.1-0.3,0.3-0.4,0.5c-0.2,2-0.7,4-1.8,5.7c-1,2-2.3,3.9-3.7,5.3c-2.3,2.4-5,4.3-8.1,5.6c-1.3,0.6-2.8,1-4.4,1.2
					c-1,0.9-2.4,1.6-3.8,2.6c0,0.1,0.2,0.8,0.2,0.9c1.4,5.7,10.6,17.5,22.1,11.4c11.7-6.3,13.8-13.8,15.2-20.8
					c1.4-6.9-3.1-14.2-4.2-15.1C64.4,13.8,63.1,14.4,60.7,15.4z"/>
			</g>
		</g>
		<g>
			<path class="st1" d="M54,17.8c0,0-0.5,2.7-0.6,3c-0.3,1-0.8,2-1.2,3c-1,1.9-2.1,3.6-3.6,5.1c-2.3,2.4-5,4.3-8.1,5.6
				c-1.3,0.6-2.5,0.6-4,0.7c-1,0.9-2.4,1.8-3.8,2.8c0.7,3.8,3.1,7.1,5.9,9.6c4.5,4,9.5,5.3,16.5,1.8c1.5-0.7,3-2,4.2-2.8
				c3.1-2.2,5-5.5,5.7-9.3c0.3-1.6,0.3-3.2,0.3-4.8c0-1.4-0.1-2.9-0.3-4.3c-0.2-1.3-0.6-2.5-1-3.7c-0.4-1.2-1-2.1-1.8-3.1
				c-0.7-0.8-1.7-1.4-2.7-1.9c-1.1-0.6-2.2-1-3.3-1.3C55.4,18,54.7,17.8,54,17.8z"/>
		</g>
		<g>
			<path class="st2" d="M58.2,24c-0.7-0.1-1.7-0.2-2.1-0.8c-0.5-0.7,0.6-2.4,1.1-3.7c-0.6,0.8-1.3,1.2-2,1.8
				c-0.5,0.4-1.2-0.1-1.9-0.6c-0.7,4.4-5.2,9.2-8.6,11.1c0,0-0.1,0-0.1,0c-2.5,1.9-5.3,3.2-8.5,3.7c-0.2,0.1-0.4,0.4-0.7,0.6
				c0.2,0.3,0.3,0.5,0.3,0.8c0,0.6-0.4,1-0.8,1.2c-0.3,0.2-0.9,0.7-1.3,0.6c0.6,0,2.4-0.4,3,0.2c1,0.9,0.3,1.8-0.1,2.2
				c-0.2,0.3-0.5,0.5-0.8,0.7c-0.2,0.2-0.5,0.7-0.8,0.8c0.4-0.2,2-1.2,2.4-1.3c2.6-0.5,3.2,2,2.7,4.3c0.1-0.6,0.8-1.6,1-2.1
				c0.3-0.6,0.9-1.1,1.7-0.7c1.1,0.5,1.5,2.5,1.5,2.3c0,0.2,0.1,1,0.1,1.2c0.2-1.1,0.6-4.1,2-2c0.7,1,1.3,2.7,1.4,3.9
				c-0.2-1.9-0.3-5.5,1-5.3c0.2,0.1,0.5,0.2,0.6,0.3c0.9,0.8,2.3,2.3,3.3,3.4C52.2,45,51.4,43,51.8,42c0.2-0.6,1-0.7,1.8-0.4
				c0.8,0.3,2.2,1.8,2.9,2.4c-1-1.6-2.1-4.5-1-5.1c1.1-0.5,2.5,0.7,4.2,1.8c-0.6-0.6-1.2-1.2-1.6-1.9c-0.4-0.7-0.6-1.6-0.3-2
				c0.5-0.6,0.9-1,1.8-0.7c1.3,0.4,1.2,0.3,2.5,0.7c-1.7-1-1.6-1-3.2-2.1c-0.4-0.2-0.6-0.5-0.8-0.9c-0.3-1,0.5-1.4,1.4-1.2
				c1,0.1,1.9,0.1,3.3,0.4c-1.7-0.7-4.6-1.7-4.9-2.4c-0.3-0.8,0.3-1.6,1.3-1.7c1-0.1,1.7-0.1,3-0.3c-1.5-0.4-2.9-0.3-4-1.4
				c-1.9-1.8,0.8-2.9,1.9-3.1c-0.2-0.1-0.8,0-1,0C58.9,24.2,58.6,24.1,58.2,24z"/>
		</g>
		<g>
			<path class="st5" d="M52,23.3c-1.3,1.9-2.9,3.1-4.5,4.4c-2.7,2.2-4.5,3.6-7.5,5.4c-1,0.6-2.5,1.4-3.7,2.2
				c2.6,2.2,7.2,3.7,10.3,3.3c2.1-0.2,4.3-1.2,5.8-2.5c1.6-1.4,2.4-3.8,2.8-5.8c0.7-3.1,0.1-6.7-1.9-9.4
				C53.1,21.7,52.5,22.5,52,23.3z"/>
		</g>
	</g>
	<g>
		<g>
			<g>
				<path class="st0" d="M102.7,63.8c-2.7-0.8-4.2-2.8-4.3-3c0-0.1-0.1-0.1-0.1-0.1c-0.2-0.1-0.9,0.2-1.1,0.2
					c-0.3,0.1-0.6,0.2-0.9,0.2c-0.2,0-0.5,0-0.6,0.2c-1.5,1.4-3.3,2.6-5.3,3.3c-2.1,0.9-4.5,1.5-6.6,1.7c-3.5,0.3-7,0.1-10.4-0.9
					c-1.5-0.4-3-1-4.4-1.9c-1.4,0.1-3-0.4-4.8-0.4c-0.1,0.1-0.3,0.7-0.4,0.8c-2.7,5.3-3.1,20.3,10.4,22.9
					c13.8,2.6,20.5-1.8,26.3-6.2c5.8-4.4,6.9-12.8,6.6-14.3C106.8,65,105.4,64.6,102.7,63.8z"/>
			</g>
		</g>
		<g>
			<path class="st1" d="M95.6,61.4c0,0-2.2,1.7-2.5,1.9c-1,0.6-2,1.1-3,1.5c-2,0.8-4.1,1.4-6.3,1.6c-3.5,0.3-7,0.1-10.4-0.9
				c-1.5-0.4-2.4-1.1-3.8-2c-1.4,0.1-3.2-0.1-4.9-0.3c-2,3.4-2.2,7.4-1.6,11.2c1,5.9,4.2,10.2,12.2,12c1.7,0.4,3.8,0.4,5.3,0.5
				c4,0.3,7.7-1,10.9-3.5c1.3-1,2.3-2.3,3.4-3.5c1-1.1,1.9-2.3,2.7-3.5c0.7-1.1,1.2-2.3,1.7-3.5c0.5-1.2,0.6-2.3,0.5-3.5
				c-0.1-1.1-0.4-2.2-0.9-3.2C98.5,65,97.9,64,97.1,63C96.7,62.4,96.2,61.8,95.6,61.4z"/>
		</g>
		<g>
			<path class="st2" d="M95,68.9c-0.5-0.6-1.2-1.2-1.2-1.9c0.1-0.8,2-1.4,3.4-2.1c-1,0.2-1.9,0.1-2.8,0.1c-0.7,0-0.9-0.8-1.1-1.7
				c-3.5,2.9-10.4,3.8-14.4,3c0,0-0.1,0-0.1,0c-3.3-0.1-6.5-0.9-9.4-2.6c-0.3-0.1-0.6,0.1-0.9,0c0,0.4-0.1,0.6-0.3,0.8
				c-0.4,0.5-1,0.5-1.5,0.4c-0.4-0.1-1.1-0.1-1.5-0.3c0.4,0.4,2.2,1.2,2.3,2.1c0.2,1.3-1,1.5-1.6,1.6c-0.4,0-0.8,0-1.1,0
				c-0.4,0-0.9,0.2-1.2,0.1c0.4,0.1,2.5,0.4,2.8,0.6c2.5,1.2,1.3,3.6-0.7,5c0.5-0.4,1.8-0.7,2.3-0.9c0.6-0.3,1.4-0.3,1.9,0.5
				c0.6,1.1-0.4,2.9-0.3,2.8c-0.1,0.1-0.6,0.9-0.7,1c0.9-0.7,3.2-2.8,3-0.3c-0.1,1.2-0.7,2.9-1.4,3.9c1.2-1.6,3.5-4.4,4.3-3.5
				c0.1,0.2,0.3,0.4,0.3,0.6c0.2,1.2,0.4,3.2,0.4,4.7c0.3-1.6,1-3.7,2-4.2c0.6-0.3,1.3,0.1,1.7,0.9c0.4,0.7,0.6,2.8,0.7,3.7
				c0.3-1.8,1.3-4.8,2.6-4.5c1.2,0.3,1.6,2.2,2.2,4c-0.1-0.8-0.2-1.7,0-2.5c0.1-0.8,0.6-1.6,1.1-1.7c0.8-0.2,1.4-0.2,1.9,0.6
				c0.8,1.2,0.8,1,1.6,2.1c-0.8-1.8-0.6-1.8-1.2-3.6c-0.1-0.4-0.2-0.8,0-1.2c0.4-1,1.3-0.7,2,0c0.7,0.7,1.4,1.3,2.5,2.4
				c-0.9-1.7-2.6-4.3-2.4-4.9c0.3-0.8,1.3-1,2.2-0.5c0.8,0.5,1.5,1,2.6,1.6c-1-1.2-2.1-2-2.4-3.7c-0.4-2.6,2.6-1.8,3.6-1.1
				c-0.1-0.2-0.6-0.5-0.8-0.6C95.4,69.4,95.2,69.2,95,68.9z"/>
		</g>
		<g>
			<path class="st6" d="M90.3,64.3c-2.4,0.6-4.4,0.6-6.6,0.5c-3.6-0.1-6.1-0.1-9.7-0.7c-1.3-0.2-2.9-0.5-4.5-0.7
				c0.7,3.4,3.5,7.4,6.3,9.2c1.8,1.1,4.3,1.8,6.5,1.8c2.2,0,4.4-1.4,6.2-2.7c2.6-1.9,4.5-5.1,4.7-8.5C92.3,63.8,91.3,64,90.3,64.3z"
				/>
		</g>
	</g>
	<g>
		<g>
			<g>
				<path class="st7" d="M122.8,69c-2.8-0.1-4.7-1.7-4.9-1.9c0,0-0.1-0.1-0.2-0.1c-0.2,0-0.8,0.4-1,0.5c-0.3,0.1-0.5,0.3-0.8,0.4
					c-0.2,0.1-0.5,0.1-0.6,0.3c-1.1,1.8-2.6,3.3-4.4,4.4c-1.8,1.4-4,2.5-6,3.2c-3.3,1.1-6.7,1.7-10.3,1.6c-1.5,0-3.2-0.3-4.7-0.8
					c-1.4,0.4-3,0.4-4.8,0.8c0,0.1-0.2,0.8-0.2,0.9c-1.4,5.7,1.8,20.4,15.5,19.8c14.1-0.7,19.5-6.6,24.1-12.2
					c4.6-5.7,3.7-14.1,3.1-15.4C127,69.1,125.6,69.1,122.8,69z"/>
			</g>
		</g>
		<g>
			<path class="st8" d="M115.3,68.3c0,0-1.8,2.2-2,2.4c-0.8,0.8-1.7,1.5-2.6,2.1c-1.8,1.3-3.7,2.3-5.8,3c-3.3,1.1-6.7,1.7-10.3,1.6
				c-1.5,0-2.6-0.6-4.1-1.1c-1.4,0.4-3.1,0.6-4.9,0.9c-1.1,3.7-0.4,7.8,1.1,11.3c2.4,5.5,6.5,8.9,14.7,8.7c1.7,0,3.8-0.5,5.2-0.7
				c3.9-0.6,7.3-2.8,9.7-5.9c1-1.3,1.7-2.8,2.5-4.2c0.7-1.3,1.3-2.7,1.8-4c0.4-1.2,0.7-2.5,0.8-3.8c0.2-1.3,0.1-2.3-0.3-3.6
				c-0.3-1.1-0.9-2-1.6-2.9c-0.7-1-1.6-1.9-2.5-2.6C116.7,69,116,68.6,115.3,68.3z"/>
		</g>
		<g>
			<path class="st9" d="M116.5,75.7c-0.6-0.4-1.5-0.9-1.6-1.6c-0.1-0.8,1.7-1.9,2.8-2.9c-0.9,0.5-1.8,0.5-2.7,0.7
				c-0.7,0.2-1.1-0.6-1.5-1.4c-2.7,3.6-9.2,6.1-13.3,6.3c0,0-0.1,0-0.1,0c-3.2,0.6-6.5,0.6-9.7-0.3c-0.3,0-0.6,0.2-0.9,0.2
				c0.1,0.4,0,0.6-0.1,0.9c-0.3,0.6-0.8,0.7-1.3,0.8c-0.4,0-1.1,0.2-1.5,0c0.5,0.3,2.4,0.7,2.8,1.4c0.5,1.2-0.6,1.7-1.1,1.9
				c-0.4,0.1-0.7,0.2-1.1,0.3c-0.3,0.1-0.8,0.4-1.2,0.4c0.4,0,2.5-0.2,2.9-0.1c2.7,0.6,2.1,3.2,0.5,5c0.4-0.5,1.5-1.1,2-1.5
				c0.6-0.4,1.3-0.6,1.9,0.1c0.8,0.9,0.3,2.9,0.4,2.7c-0.1,0.2-0.4,1-0.4,1.1c0.7-0.9,2.4-3.4,2.9-1c0.2,1.2,0,3-0.5,4.1
				c0.8-1.8,2.3-5.1,3.4-4.4c0.1,0.2,0.4,0.4,0.4,0.5c0.5,1.2,1.1,3,1.5,4.5c-0.1-1.6,0.2-3.8,0.9-4.5c0.5-0.5,1.3-0.2,1.9,0.4
				c0.6,0.6,1.2,2.6,1.6,3.5c-0.2-1.8,0.2-5,1.5-5c1.3,0,2,1.7,3.1,3.4c-0.3-0.8-0.6-1.6-0.6-2.4c-0.1-0.8,0.2-1.7,0.7-1.9
				c0.7-0.3,1.3-0.5,2,0.2c1,0.9,1,0.8,2.1,1.7c-1.2-1.6-1-1.6-2.1-3.3c-0.2-0.4-0.3-0.7-0.3-1.2c0.1-1,1.1-1,1.9-0.5
				c0.9,0.5,1.7,0.9,3,1.8c-1.3-1.4-3.5-3.6-3.5-4.2c0.1-0.8,1-1.3,2-1c1,0.3,1.7,0.6,2.9,1c-1.2-1-2.6-1.5-3.2-3
				c-1-2.5,2.1-2.3,3.3-1.9c-0.1-0.2-0.7-0.3-0.9-0.4C117,76.1,116.7,76,116.5,75.7z"/>
		</g>
		<g>
			<path class="st6" d="M110.9,72.4c-2.2,1.1-4.2,1.6-6.3,2.1c-3.5,0.8-5.9,1.3-9.6,1.6c-1.3,0.1-3,0.2-4.5,0.3
				c1.4,3.1,5.1,6.4,8.2,7.4c2.1,0.7,4.6,0.7,6.7,0.2c2.2-0.5,4-2.4,5.4-4.1c2.1-2.5,3.2-6,2.6-9.3
				C112.7,71.4,111.8,71.9,110.9,72.4z"/>
		</g>
	</g>
	<g>
		<g>
			<g>
				<path class="st10" d="M50.2,84.6c2.6,0.6,4.9-0.4,5.1-0.5c0.1,0,0.1,0,0.2,0c0.2,0,0.6,0.6,0.8,0.7c0.2,0.2,0.4,0.4,0.6,0.6
					c0.1,0.1,0.4,0.3,0.4,0.4c0.5,2,1.4,3.8,2.6,5.3c1.3,1.8,2.9,3.4,4.5,4.6c2.7,1.9,5.7,3.4,9,4.2c1.4,0.4,3,0.6,4.6,0.5
					c1.1,0.7,2.7,1.1,4.2,2c0,0.1-0.1,0.8-0.1,0.9c-0.5,5.8-8,18.8-20.4,14.5c-12.7-4.3-15.9-11.3-18.4-17.8
					c-2.5-6.5,0.9-14.3,1.9-15.3C46.2,83.7,47.6,84,50.2,84.6z"/>
			</g>
		</g>
		<g>
			<path class="st8" d="M57.3,85.9c0,0,0.9,2.6,1.1,2.8c0.5,0.9,1.1,1.8,1.7,2.7c1.2,1.7,2.7,3.1,4.4,4.4c2.7,1.9,5.7,3.4,9,4.2
				c1.4,0.4,2.6,0.2,4.1,0.1c1.1,0.7,2.7,1.4,4.2,2.1c-0.1,3.8-2,7.4-4.5,10.3c-3.9,4.6-8.7,6.7-16.2,4.4c-1.6-0.5-3.3-1.5-4.6-2.1
				c-3.4-1.6-5.8-4.5-7.1-8.1c-0.5-1.5-0.7-3.1-1-4.7c-0.2-1.4-0.4-2.8-0.4-4.3c0-1.2,0.2-2.5,0.4-3.8c0.2-1.2,0.7-2.2,1.4-3.3
				c0.6-0.9,1.5-1.6,2.4-2.3c1-0.7,2-1.3,3.1-1.8C55.8,86.3,56.6,86,57.3,85.9z"/>
		</g>
		<g>
			<path class="st9" d="M53.9,92.7c0.7-0.2,1.6-0.5,1.9-1.1c0.4-0.8-0.9-2.2-1.7-3.5c0.7,0.7,1.5,0.9,2.3,1.4
				c0.6,0.3,1.2-0.2,1.8-0.9c1.3,4.1,6.6,8.1,10.3,9.4c0,0,0.1,0,0.1,0c2.8,1.5,5.8,2.3,9,2.2c0.3,0.1,0.5,0.4,0.8,0.4
				c-0.2,0.4-0.2,0.5-0.2,0.8c0.1,0.6,0.5,0.9,1,1.1c0.3,0.1,1,0.5,1.4,0.4c-0.6,0.1-2.4,0-3,0.6c-0.9,1,0,1.8,0.4,2.1
				c0.3,0.2,0.6,0.4,0.9,0.6c0.3,0.2,0.6,0.6,0.9,0.7c-0.4-0.1-2.2-0.8-2.6-0.9c-2.7-0.1-2.9,2.4-2.1,4.6c-0.2-0.6-1.1-1.4-1.4-1.9
				c-0.4-0.6-1-0.9-1.8-0.5c-1.1,0.7-1.1,2.7-1.2,2.5c0,0.2,0,1,0.1,1.2c-0.4-1-1.2-3.9-2.3-1.7c-0.6,1.1-0.9,2.8-0.9,4
				c-0.1-1.9-0.6-5.4-1.8-5c-0.1,0.1-0.4,0.2-0.6,0.4c-0.8,1-2,2.6-2.8,3.8c0.6-1.5,1-3.6,0.5-4.5c-0.3-0.6-1.1-0.5-1.9-0.1
				c-0.7,0.4-1.9,2.1-2.5,2.8c0.7-1.7,1.4-4.7,0.2-5.1c-1.2-0.3-2.4,1.1-3.9,2.4c0.5-0.7,1-1.4,1.3-2.1c0.3-0.8,0.4-1.6,0-2
				c-0.6-0.5-1.1-0.8-1.9-0.4c-1.2,0.6-1.1,0.5-2.4,1c1.6-1.2,1.4-1.3,2.9-2.5c0.3-0.3,0.5-0.6,0.6-1c0.2-1-0.7-1.2-1.6-1
				c-0.9,0.3-1.9,0.4-3.3,0.9c1.6-1,4.3-2.4,4.5-3.1c0.2-0.8-0.5-1.5-1.5-1.5c-1,0.1-1.7,0.1-3,0.2c1.4-0.6,2.8-0.7,3.8-2
				c1.7-2.1-1.2-2.7-2.4-2.7c0.2-0.1,0.8-0.1,1-0.1C53.3,92.9,53.6,92.8,53.9,92.7z"/>
		</g>
		<g>
			<path class="st11" d="M60.1,91c1.6,1.6,3.4,2.6,5.1,3.6c3,1.7,5,2.8,8.4,4.1c1.1,0.4,2.7,1,4.1,1.5c-2.3,2.6-6.7,4.7-9.9,4.8
				c-2.1,0.1-4.5-0.5-6.2-1.5c-1.8-1.1-2.9-3.3-3.7-5.2c-1.1-2.9-1.1-6.5,0.5-9.5C58.7,89.6,59.4,90.2,60.1,91z"/>
		</g>
	</g>
	<g>
		<g>
			<path class="st12" d="M57.9,81.6c-0.2,2.7,1.1,4.8,1.3,5c0,0,0.1,0.1,0.1,0.2c0,0.2-0.5,0.7-0.6,0.9c-0.2,0.2-0.4,0.4-0.5,0.7
				c-0.1,0.1-0.2,0.4-0.4,0.5c-1.9,0.8-3.6,1.9-4.8,3.4c-1.6,1.5-2.9,3.4-3.8,5.2c-1.5,3-2.5,6.1-2.8,9.5c-0.1,1.5-0.1,3.1,0.2,4.6
				c-0.5,1.2-0.7,2.8-1.3,4.4c-0.1,0-0.8,0-0.9,0c-5.8,0.4-19.8-5-17.5-18c2.3-13.2,8.7-17.4,14.8-20.9c6.1-3.4,14.2-1.2,15.5-0.4
				C58.3,77.6,58.2,78.9,57.9,81.6z"/>
		</g>
		<g>
			<path class="st8" d="M57.7,88.8c0,0-2.4,1.3-2.6,1.5c-0.9,0.6-1.6,1.3-2.4,2.1c-1.5,1.5-2.7,3.1-3.7,5c-1.5,3-2.5,6.1-2.8,9.5
				c-0.1,1.5,0.2,2.5,0.6,4.1c-0.5,1.2-1,2.9-1.4,4.5c-3.8,0.5-7.6-0.9-10.9-2.8c-5.1-3.1-7.9-7.6-6.8-15.4c0.2-1.6,0.9-3.5,1.3-4.9
				c1.1-3.6,3.6-6.5,6.9-8.3c1.4-0.8,2.9-1.2,4.4-1.7c1.3-0.4,2.8-0.8,4.1-1c1.2-0.2,2.5-0.2,3.8-0.2c1.2,0,2.3,0.3,3.5,0.9
				c1,0.5,1.8,1.2,2.6,2c0.9,0.9,1.6,1.8,2.3,2.8C57.2,87.4,57.5,88.1,57.7,88.8z"/>
		</g>
		<g>
			<path class="st9" d="M50.6,86.5c0.3,0.6,0.7,1.5,1.4,1.8c0.8,0.2,2-1.3,3.2-2.2c-0.6,0.8-0.7,1.6-1,2.4c-0.2,0.6,0.4,1.1,1.2,1.6
				c-3.9,1.9-7,7.7-7.7,11.6c0,0,0,0.1,0,0.1c-1,3-1.4,6.1-0.8,9.3c-0.1,0.3-0.3,0.5-0.3,0.8c-0.4-0.1-0.6-0.1-0.9-0.1
				c-0.6,0.2-0.8,0.7-0.9,1.1c-0.1,0.3-0.3,1-0.2,1.4c-0.2-0.5-0.4-2.4-1.1-2.9c-1.1-0.7-1.7,0.3-2,0.8c-0.2,0.3-0.3,0.7-0.4,1
				c-0.2,0.3-0.5,0.7-0.5,1c0-0.4,0.5-2.3,0.4-2.7c-0.3-2.6-2.8-2.5-4.9-1.3c0.5-0.3,1.3-1.3,1.7-1.6c0.5-0.5,0.7-1.2,0.2-1.8
				c-0.8-1-2.8-0.7-2.6-0.8c-0.2,0-1,0.2-1.2,0.2c0.9-0.5,3.6-1.8,1.3-2.6c-1.1-0.4-2.9-0.5-4.1-0.2c1.9-0.4,5.3-1.4,4.7-2.5
				c-0.1-0.1-0.3-0.4-0.5-0.5c-1.1-0.7-2.8-1.5-4.2-2.2c1.6,0.4,3.7,0.5,4.5-0.1c0.5-0.4,0.3-1.2-0.2-1.9c-0.5-0.6-2.4-1.6-3.2-2.1
				c1.8,0.5,4.9,0.6,5-0.6c0.2-1.2-1.5-2.2-2.9-3.5c0.7,0.4,1.5,0.8,2.3,1c0.8,0.2,1.7,0.1,2-0.3c0.4-0.6,0.7-1.2,0.1-2
				c-0.8-1.1-0.6-1.1-1.4-2.2c1.4,1.4,1.5,1.2,2.9,2.5c0.3,0.3,0.7,0.4,1.1,0.5c1,0,1.1-0.9,0.7-1.8c-0.4-0.9-0.7-1.8-1.4-3.1
				c1.2,1.4,3.1,3.9,3.7,4c0.8,0.1,1.4-0.8,1.2-1.7c-0.2-1-0.4-1.7-0.6-3c0.8,1.3,1.1,2.7,2.6,3.5c2.3,1.3,2.5-1.6,2.3-2.8
				c0.1,0.2,0.2,0.8,0.3,0.9C50.3,85.9,50.4,86.2,50.6,86.5z"/>
		</g>
		<g>
			<path class="st11" d="M53.2,92.3c-1.4,1.9-2.1,3.7-2.8,5.6c-1.2,3.2-2,5.4-2.7,8.9c-0.3,1.2-0.5,2.8-0.9,4.2
				c-2.9-1.9-5.7-5.9-6.3-9c-0.4-2.1-0.2-4.5,0.6-6.4c0.8-2,2.8-3.4,4.6-4.5c2.7-1.6,6.3-2.1,9.4-0.9C54.3,90.8,53.8,91.6,53.2,92.3
				z"/>
		</g>
	</g>
	<g>
		<g>
			<g>
				<path class="st13" d="M73.5,64.2c-2.6,0.4-4.7-0.8-4.9-0.9c0,0-0.1,0-0.2,0c-0.2,0-0.7,0.6-0.9,0.7c-0.2,0.2-0.4,0.4-0.6,0.6
					c-0.1,0.1-0.4,0.2-0.5,0.4c-0.8,1.9-1.8,3.8-3.2,5.2c-1.5,1.7-3.2,3.2-5,4.3c-2.9,1.8-6,3-9.3,3.5c-1.4,0.2-3,0.3-4.5,0.1
					c-1.2,0.6-2.8,0.9-4.3,1.7c0,0.1,0,0.8,0,0.9c-0.2,5.9,5.4,19.7,18,16.4C71,93.7,75,86.9,78.2,80.5c3.2-6.4,0.9-14.6,0.1-15.7
					C77.5,63.5,76.1,63.8,73.5,64.2z"/>
			</g>
		</g>
		<g>
			<path class="st1" d="M66.4,64.9c0,0-1.3,2.5-1.4,2.8c-0.6,0.9-1.3,1.8-2,2.6c-1.4,1.6-3,3-4.8,4.1c-2.9,1.8-6,3-9.3,3.5
				c-1.4,0.2-2.5,0-4-0.3c-1.2,0.6-2.8,1.2-4.4,1.8c-0.4,3.9,1,7.7,3,10.8c3.2,5,7.7,7.5,15.2,5.8c1.6-0.4,3.4-1.2,4.7-1.7
				c3.6-1.4,6.3-4.1,8-7.7c0.7-1.5,1.1-3.1,1.6-4.6c0.4-1.4,0.7-2.9,0.9-4.3c0.2-1.3,0.2-2.6,0.1-3.9c-0.1-1.3-0.4-2.3-0.9-3.4
				c-0.5-1-1.2-1.8-2-2.5c-0.9-0.8-1.8-1.5-2.8-2.1C67.8,65.4,67.1,65.1,66.4,64.9z"/>
		</g>
		<g>
			<path class="st2" d="M68.8,72c-0.6-0.3-1.5-0.6-1.8-1.3c-0.3-0.8,1.2-2.2,2.1-3.4c-0.8,0.6-1.6,0.8-2.4,1.2
				c-0.6,0.3-1.1-0.3-1.6-1.1c-1.8,4.1-7.4,7.7-11.2,8.7c0,0-0.1,0-0.1,0c-2.9,1.3-6,1.9-9.1,1.5c-0.3,0.1-0.5,0.3-0.8,0.4
				c0.1,0.4,0.1,0.6,0.1,0.9c-0.2,0.6-0.6,0.9-1.1,1c-0.3,0.1-1,0.4-1.4,0.3c0.5,0.2,2.4,0.2,2.8,0.9c0.7,1.1-0.2,1.8-0.7,2.1
				c-0.3,0.2-0.6,0.3-1,0.5c-0.3,0.2-0.7,0.6-1,0.6c0.4-0.1,2.3-0.7,2.7-0.7c2.6,0.1,2.5,2.7,1.4,4.8c0.3-0.5,1.2-1.4,1.6-1.8
				c0.4-0.5,1.1-0.8,1.8-0.3c1,0.8,0.8,2.8,0.9,2.6c0,0.2-0.2,1.1-0.2,1.2c0.5-1,1.6-3.8,2.5-1.5c0.4,1.1,0.5,2.9,0.3,4.1
				c0.4-1.9,1.2-5.5,2.4-5c0.1,0.1,0.4,0.3,0.5,0.4c0.7,1,1.6,2.8,2.2,4.1c-0.4-1.6-0.5-3.8,0-4.6c0.4-0.6,1.2-0.4,1.8,0.1
				c0.6,0.5,1.6,2.3,2.1,3.1c-0.5-1.8-0.7-4.9,0.5-5.2c1.2-0.3,2.2,1.3,3.5,2.7c-0.4-0.7-0.8-1.5-1-2.3c-0.2-0.8-0.1-1.7,0.3-2
				c0.6-0.5,1.1-0.8,1.9-0.2c1.1,0.7,1.1,0.6,2.2,1.2c-1.4-1.3-1.2-1.4-2.5-2.8c-0.3-0.3-0.4-0.7-0.5-1.1c-0.1-1,0.9-1.2,1.7-0.9
				c0.9,0.4,1.8,0.6,3.1,1.2c-1.4-1.1-3.9-2.8-4-3.5c-0.1-0.8,0.7-1.5,1.7-1.4c0.9,0.1,1.7,0.3,2.9,0.4c-1.3-0.7-2.7-1-3.5-2.3
				c-1.3-2.2,1.5-2.7,2.7-2.5c-0.2-0.1-0.7-0.2-0.9-0.2C69.4,72.3,69.1,72.2,68.8,72z"/>
		</g>
		<g>
			<path class="st3" d="M63,69.8c-1.8,1.5-3.6,2.4-5.5,3.2c-3.1,1.5-5.3,2.4-8.7,3.4c-1.2,0.4-2.7,0.8-4.1,1.2
				c1.9,2.8,5.9,5.3,9,5.7c2,0.3,4.4-0.2,6.3-1.1c1.9-0.9,3.3-3.1,4.3-5c1.5-2.8,1.9-6.5,0.7-9.7C64.5,68.5,63.8,69.1,63,69.8z"/>
		</g>
	</g>
	<g>
		<g>
			<g>
				<path class="st7" d="M96.7,71.9c-2.6,0.4-4.7-0.8-4.9-0.9c0,0-0.1,0-0.2,0c-0.2,0-0.7,0.6-0.9,0.7c-0.2,0.2-0.4,0.4-0.6,0.6
					c-0.1,0.1-0.4,0.2-0.5,0.4c-0.8,1.9-1.8,3.8-3.2,5.2c-1.5,1.7-3.2,3.2-5,4.3c-2.9,1.8-6,3-9.3,3.5c-1.4,0.2-3,0.3-4.5,0.1
					c-1.2,0.6-2.8,0.9-4.3,1.7c0,0.1,0,0.8,0,0.9c-0.2,5.9,5.4,19.7,18,16.4c12.9-3.4,16.9-10.2,20.2-16.6
					c3.2-6.4,0.9-14.6,0.1-15.7C100.7,71.2,99.4,71.5,96.7,71.9z"/>
			</g>
		</g>
		<g>
			<path class="st1" d="M89.7,72.6c0,0-1.3,2.5-1.4,2.8c-0.6,0.9-1.3,1.8-2,2.6c-1.4,1.6-3,3-4.8,4.1c-2.9,1.8-6,3-9.3,3.5
				c-1.4,0.2-2.5,0-4-0.3c-1.2,0.6-2.8,1.2-4.4,1.8c-0.4,3.9,1,7.7,3,10.8c3.2,5,7.7,7.5,15.2,5.8c1.6-0.4,3.4-1.2,4.7-1.7
				c3.6-1.4,6.3-4.1,8-7.7c0.7-1.5,1.1-3.1,1.6-4.6c0.4-1.4,0.7-2.9,0.9-4.3c0.2-1.3,0.2-2.6,0.1-3.9c-0.1-1.3-0.4-2.3-0.9-3.4
				c-0.5-1-1.2-1.8-2-2.5c-0.9-0.8-1.8-1.5-2.8-2.1C91,73.1,90.4,72.8,89.7,72.6z"/>
		</g>
		<g>
			<path class="st2" d="M92.1,79.7c-0.6-0.3-1.5-0.6-1.8-1.3c-0.3-0.8,1.2-2.2,2.1-3.4c-0.8,0.6-1.6,0.8-2.4,1.2
				c-0.6,0.3-1.1-0.3-1.6-1.1C86.6,79.3,81,83,77.2,84c0,0-0.1,0-0.1,0c-2.9,1.3-6,1.9-9.1,1.5c-0.3,0.1-0.5,0.3-0.8,0.4
				c0.1,0.4,0.1,0.6,0.1,0.9c-0.2,0.6-0.6,0.9-1.1,1c-0.3,0.1-1,0.4-1.4,0.3c0.5,0.2,2.4,0.2,2.8,0.9c0.7,1.1-0.2,1.8-0.7,2.1
				c-0.3,0.2-0.6,0.3-1,0.5c-0.3,0.2-0.7,0.6-1,0.6c0.4-0.1,2.3-0.7,2.7-0.7c2.6,0.1,2.5,2.7,1.4,4.8c0.3-0.5,1.2-1.4,1.6-1.8
				c0.4-0.5,1.1-0.8,1.8-0.3c1,0.8,0.8,2.8,0.9,2.6c0,0.2-0.2,1.1-0.2,1.2c0.5-1,1.6-3.8,2.5-1.5c0.4,1.1,0.5,2.9,0.3,4.1
				c0.4-1.9,1.2-5.5,2.4-5c0.1,0.1,0.4,0.3,0.5,0.4c0.7,1,1.6,2.8,2.2,4.1c-0.4-1.6-0.5-3.8,0-4.6c0.4-0.6,1.2-0.4,1.8,0.1
				c0.6,0.5,1.6,2.3,2.1,3.1c-0.5-1.8-0.7-4.9,0.5-5.2c1.2-0.3,2.2,1.3,3.5,2.7c-0.4-0.7-0.8-1.5-1-2.3c-0.2-0.8-0.1-1.7,0.3-2
				c0.6-0.5,1.1-0.8,1.9-0.2c1.1,0.7,1.1,0.6,2.2,1.2c-1.4-1.3-1.2-1.4-2.5-2.8c-0.3-0.3-0.4-0.7-0.5-1.1c-0.1-1,0.9-1.2,1.7-0.9
				c0.9,0.4,1.8,0.6,3.1,1.2c-1.4-1.1-3.9-2.8-4-3.5c-0.1-0.8,0.7-1.5,1.7-1.4c0.9,0.1,1.7,0.3,2.9,0.4c-1.3-0.7-2.7-1-3.5-2.3
				c-1.3-2.2,1.5-2.7,2.7-2.5c-0.2-0.1-0.7-0.2-0.9-0.2C92.7,80,92.4,79.9,92.1,79.7z"/>
		</g>
		<g>
			<path class="st6" d="M86.3,77.5c-1.8,1.5-3.6,2.4-5.5,3.2c-3.1,1.5-5.3,2.4-8.7,3.4c-1.2,0.4-2.7,0.8-4.1,1.2
				c1.9,2.8,5.9,5.3,9,5.7c2,0.3,4.4-0.2,6.3-1.1c1.9-0.9,3.3-3.1,4.3-5c1.5-2.8,1.9-6.5,0.7-9.7C87.8,76.2,87,76.8,86.3,77.5z"/>
		</g>
	</g>
	<g>
		<g>
			<g>
				<path class="st0" d="M55.1,55.1c-1.9-1.9-2.2-4.3-2.3-4.5c0-0.1,0-0.1-0.1-0.2c-0.1-0.1-0.9-0.2-1.1-0.3
					C51.5,50,51.2,50,50.9,50c-0.2,0-0.4-0.2-0.6-0.1c-2,0.6-4,0.9-6,0.6c-2.2-0.1-4.4-0.6-6.3-1.3c-3.1-1.2-5.9-2.9-8.3-5.3
					c-1.1-1-2.1-2.2-2.8-3.6c-1.2-0.6-2.4-1.6-3.9-2.4c-0.1,0.1-0.6,0.5-0.7,0.6c-4.7,3.5-12,16.6-1.8,24.8
					c10.4,8.3,18.1,7.3,25,5.9c6.9-1.4,11.8-8.4,12.2-9.8C58,57.9,57,56.9,55.1,55.1z"/>
			</g>
		</g>
		<g>
			<path class="st14" d="M50.3,49.8c0,0-2.7,0.6-3,0.6c-1.1,0.1-2.1,0.1-3.2,0C42,50.3,40,49.9,38,49.1c-3.1-1.2-5.9-2.9-8.3-5.3
				c-1.1-1-1.5-2.1-2.2-3.4c-1.2-0.6-2.6-1.5-4-2.4c-3.2,2.1-5.3,5.6-6.5,9.2c-1.9,5.7-1.1,10.8,4.8,15.9c1.2,1.1,3,2,4.2,2.8
				c3.2,2,7,2.5,10.7,1.7c1.6-0.3,3-1,4.5-1.6c1.3-0.5,2.6-1.2,3.9-1.9c1.1-0.6,2.1-1.5,3.1-2.3c0.9-0.8,1.6-1.7,2.1-2.9
				c0.5-1,0.6-2.1,0.7-3.2c0.1-1.2,0.1-2.4-0.1-3.6C50.7,51.3,50.6,50.5,50.3,49.8z"/>
		</g>
		<g>
			<path class="st15" d="M46.3,56.2c-0.1-0.7-0.5-1.6-0.1-2.2c0.5-0.7,2.4-0.4,3.9-0.4c-1-0.2-1.6-0.7-2.4-1.1
				c-0.6-0.3-0.4-1.1-0.2-2c-4.3,1.1-10.5-1.2-13.5-3.6c0,0,0,0-0.1-0.1c-2.7-1.5-5-3.6-6.7-6.4c-0.2-0.2-0.6-0.2-0.8-0.4
				c-0.2,0.4-0.3,0.5-0.6,0.6c-0.6,0.3-1.1,0-1.5-0.3c-0.3-0.2-0.9-0.5-1.1-0.9c0.2,0.5,1.3,2,1,2.8c-0.4,1.2-1.5,0.9-2.1,0.8
				c-0.3-0.1-0.6-0.3-1-0.5c-0.3-0.1-0.8-0.2-1.1-0.4c0.3,0.3,1.9,1.4,2.1,1.8c1.5,2.2-0.6,3.7-2.9,4.2c0.6-0.1,1.8,0.1,2.3,0.1
				c0.7,0,1.3,0.4,1.3,1.3c0,1.2-1.7,2.4-1.5,2.3c-0.1,0.1-0.9,0.5-1.1,0.6c1.1-0.2,4-1.1,2.7,1.1c-0.6,1-1.9,2.3-3,2.8
				c1.7-0.9,5-2.4,5.3-1.2c0,0.2,0,0.5,0,0.7c-0.4,1.2-1.2,3-1.8,4.4c1-1.3,2.6-2.8,3.6-2.8c0.7,0,1,0.7,1,1.5
				c0,0.8-0.8,2.7-1.1,3.6c1.1-1.5,3.3-3.7,4.3-2.9c0.9,0.8,0.3,2.6,0,4.5c0.3-0.8,0.6-1.6,1.1-2.2c0.5-0.7,1.2-1.2,1.7-1
				c0.7,0.2,1.3,0.4,1.3,1.4c0.1,1.4,0.2,1.2,0.4,2.6c0.2-1.9,0.3-1.9,0.7-3.8c0.1-0.4,0.2-0.8,0.6-1.1c0.7-0.7,1.5,0,1.7,0.8
				c0.3,0.9,0.6,1.8,0.9,3.2c0-1.9-0.2-4.9,0.3-5.4c0.6-0.6,1.6-0.3,2.1,0.5c0.5,0.9,0.8,1.5,1.5,2.6c-0.2-1.5-0.9-2.7-0.3-4.3
				c0.9-2.5,3-0.4,3.6,0.6c0-0.2-0.3-0.7-0.4-0.9C46.4,56.9,46.3,56.6,46.3,56.2z"/>
		</g>
		<g>
			<path class="st16" d="M44.5,50.2c-2.3-0.5-4-1.4-5.8-2.4c-3-1.6-5-2.7-7.9-4.8c-1-0.7-2.2-1.7-3.4-2.6c-1,3.3-0.5,8.1,1,10.8
				c1,1.8,2.8,3.5,4.6,4.4c1.9,1,4.4,0.7,6.5,0.3c3.1-0.6,6.2-2.5,7.9-5.5C46.4,50.6,45.5,50.3,44.5,50.2z"/>
		</g>
	</g>
	<g>
		<g>
			<g>
				<path class="st0" d="M63.5,44.4c-1.9-2-2.1-4.5-2.1-4.8c0-0.1,0-0.1-0.1-0.2c-0.1-0.2-0.8-0.3-1-0.3C60,39,59.8,39,59.5,38.9
					c-0.2-0.1-0.4-0.2-0.6-0.2c-1.9,0.5-4,0.6-5.9,0.2c-2.2-0.3-4.4-0.9-6.2-1.8c-3-1.5-5.7-3.4-8.1-6c-1-1.1-2-2.4-2.7-3.8
					c-1.2-0.7-2.3-1.8-3.8-2.8c-0.1,0.1-0.6,0.4-0.7,0.5c-4.7,3.2-12.2,16-2.3,25c10.1,9.2,17.6,8.7,24.5,7.8
					c6.8-0.9,11.8-7.6,12.2-9C66.3,47.5,65.4,46.4,63.5,44.4z"/>
			</g>
		</g>
		<g>
			<path class="st1" d="M58.9,38.7c0,0-2.7,0.4-2.9,0.4c-1.1,0-2.1-0.1-3.2-0.2c-2-0.3-4-0.9-5.9-1.8c-3-1.5-5.7-3.4-8.1-6
				c-1-1.1-1.4-2.2-2.1-3.6c-1.2-0.7-2.6-1.7-3.9-2.7c-3.2,1.9-5.4,5.3-6.7,8.9c-2,5.6-1.4,10.9,4.3,16.5c1.2,1.2,2.9,2.2,4.1,3.1
				c3.1,2.3,6.8,3,10.5,2.5c1.6-0.2,3-0.8,4.5-1.3c1.3-0.4,2.6-1,3.9-1.7c1.1-0.6,2.1-1.4,3.1-2.2c0.9-0.8,1.6-1.7,2.1-2.8
				c0.5-1,0.7-2.1,0.8-3.2c0.1-1.2,0.1-2.4,0-3.7C59.3,40.2,59.2,39.4,58.9,38.7z"/>
		</g>
		<g>
			<path class="st2" d="M54.8,44.9c-0.1-0.7-0.4-1.7,0-2.2c0.5-0.7,2.4-0.2,3.8-0.1c-0.9-0.3-1.6-0.9-2.3-1.3
				c-0.6-0.4-0.4-1.2-0.1-2c-4.2,0.8-10.3-2-13.2-4.7c0,0,0,0-0.1-0.1c-2.6-1.8-4.9-4.1-6.4-7c-0.2-0.2-0.6-0.3-0.8-0.5
				c-0.2,0.3-0.4,0.4-0.6,0.6c-0.6,0.2-1,0-1.4-0.4c-0.3-0.2-0.9-0.6-1-1c0.2,0.6,1.2,2.2,0.9,3c-0.4,1.2-1.5,0.9-2,0.6
				c-0.3-0.2-0.6-0.4-1-0.5c-0.3-0.2-0.8-0.3-1.1-0.5c0.3,0.3,1.8,1.6,2.1,1.9c1.4,2.3-0.6,3.7-2.9,4c0.6-0.1,1.8,0.3,2.3,0.3
				c0.7,0.1,1.3,0.5,1.3,1.4c0,1.3-1.7,2.3-1.5,2.3c-0.1,0.1-0.9,0.5-1.1,0.5c1.1-0.1,3.9-0.8,2.6,1.3c-0.6,1-1.9,2.2-3,2.6
				c1.7-0.8,5-2.1,5.2-0.8c0,0.2,0,0.5-0.1,0.7c-0.4,1.2-1.2,3-1.9,4.3c1-1.2,2.6-2.6,3.6-2.6c0.7,0,1,0.8,1,1.6
				c0,0.8-0.9,2.7-1.2,3.6c1.1-1.4,3.4-3.5,4.3-2.6c0.9,0.9,0.3,2.7-0.1,4.6c0.3-0.8,0.7-1.5,1.2-2.2c0.5-0.6,1.2-1.1,1.7-0.9
				c0.7,0.2,1.2,0.5,1.3,1.5c0.1,1.4,0.2,1.2,0.3,2.6c0.3-2,0.4-1.9,0.7-3.8c0.1-0.4,0.3-0.8,0.6-1c0.8-0.6,1.4,0.1,1.7,1
				c0.2,1,0.6,1.9,0.8,3.4c0-1.9-0.1-5,0.4-5.5c0.6-0.6,1.6-0.2,2,0.7c0.4,0.9,0.7,1.6,1.4,2.7c-0.2-1.6-0.8-2.8-0.2-4.4
				c1-2.5,3-0.2,3.5,0.9c0-0.2-0.3-0.7-0.4-0.9C54.9,45.6,54.8,45.3,54.8,44.9z"/>
		</g>
		<g>
			<path class="st17" d="M53.2,38.7c-2.2-0.7-3.9-1.7-5.6-2.8c-2.9-1.9-4.9-3.1-7.7-5.5c-0.9-0.8-2.2-1.9-3.3-2.9
				c-1.1,3.3-0.7,8.2,0.8,11.1c1,1.9,2.7,3.7,4.4,4.8c1.8,1.1,4.3,1,6.4,0.8c3.1-0.4,6.1-2.1,7.9-5C55,39.2,54.1,38.9,53.2,38.7z"/>
		</g>
	</g>
	<g>
		<g>
			<g>
				<path class="st0" d="M101.6,48.8c-1.3-2.4-0.9-4.8-0.9-5.1c0-0.1,0-0.1,0-0.2c-0.1-0.2-0.8-0.5-0.9-0.6
					c-0.2-0.1-0.5-0.3-0.7-0.4c-0.2-0.1-0.3-0.3-0.5-0.3c-2,0-4-0.3-5.8-1.1c-2.1-0.7-4-1.9-5.6-3.1c-2.6-2.1-4.8-4.6-6.4-7.5
					c-0.7-1.3-1.3-2.7-1.7-4.3c-1-0.9-1.8-2.3-3-3.5c-0.1,0-0.7,0.3-0.9,0.3c-5.4,2-16,12.6-8.7,23.5c7.5,11.1,15.1,12.3,22,13
					c7,0.7,13.5-4.7,14.3-5.9C103.6,52.4,102.9,51.2,101.6,48.8z"/>
			</g>
		</g>
		<g>
			<path class="st1" d="M98.5,42.3c0,0-2.7-0.2-3-0.3c-1-0.2-2-0.5-3-0.9c-1.9-0.8-3.7-1.8-5.4-3.1c-2.6-2.1-4.8-4.6-6.4-7.5
				c-0.7-1.3-0.8-2.4-1.2-4c-1-0.9-2.1-2.2-3.1-3.5c-3.6,1.1-6.6,3.9-8.8,7c-3.4,5-4.1,10.2,0,16.8c0.9,1.4,2.3,2.8,3.2,3.9
				c2.5,2.9,5.9,4.4,9.7,4.7c1.6,0.1,3.2-0.1,4.8-0.3c1.4-0.1,2.8-0.4,4.2-0.7c1.2-0.3,2.4-0.8,3.6-1.4c1.1-0.5,2-1.2,2.8-2.2
				c0.7-0.8,1.2-1.8,1.6-2.9c0.4-1.1,0.8-2.3,0.9-3.5C98.5,43.8,98.6,43.1,98.5,42.3z"/>
		</g>
		<g>
			<path class="st2" d="M92.9,47.3c0.1-0.7,0-1.7,0.6-2.2c0.6-0.6,2.4,0.3,3.8,0.7c-0.8-0.5-1.3-1.2-1.9-1.8c-0.5-0.5-0.1-1.2,0.4-2
				c-4.3-0.2-9.6-4.2-11.8-7.4c0,0,0-0.1,0-0.1c-2.1-2.3-3.8-5-4.5-8.1c-0.2-0.2-0.5-0.4-0.6-0.6c-0.3,0.3-0.5,0.4-0.8,0.4
				c-0.6,0.1-1-0.3-1.3-0.7c-0.2-0.3-0.7-0.8-0.8-1.2c0,0.6,0.6,2.4,0.2,3c-0.7,1.1-1.7,0.5-2.2,0.1c-0.3-0.2-0.5-0.5-0.8-0.7
				c-0.3-0.2-0.7-0.4-0.9-0.7c0.2,0.3,1.4,1.9,1.5,2.3c0.8,2.5-1.6,3.4-3.9,3.2c0.6,0.1,1.7,0.7,2.2,0.8c0.6,0.2,1.2,0.8,0.9,1.6
				c-0.4,1.2-2.3,1.8-2.1,1.8c-0.2,0-1,0.2-1.2,0.3c1.1,0.1,4,0.1,2.2,1.8c-0.9,0.8-2.5,1.6-3.6,1.9c1.9-0.4,5.4-0.9,5.3,0.4
				c-0.1,0.2-0.1,0.5-0.2,0.7c-0.7,1-2,2.6-3,3.7c1.3-1,3.2-1.9,4.2-1.7c0.6,0.2,0.8,1,0.6,1.8c-0.2,0.8-1.6,2.4-2.1,3.2
				c1.4-1.1,4.2-2.6,4.9-1.5c0.6,1-0.4,2.6-1.3,4.4c0.5-0.7,1-1.3,1.7-1.8c0.7-0.5,1.5-0.8,1.9-0.5c0.6,0.4,1.1,0.8,0.9,1.8
				c-0.3,1.4-0.1,1.2-0.4,2.6c0.8-1.8,0.8-1.7,1.7-3.5c0.2-0.4,0.4-0.7,0.8-0.9c0.9-0.5,1.4,0.4,1.4,1.3c0,1,0.1,1.9,0,3.4
				c0.5-1.8,1.2-4.8,1.8-5.2c0.7-0.4,1.6,0.1,1.8,1.1c0.2,1,0.3,1.7,0.6,2.9c0.2-1.5,0-2.9,0.9-4.2c1.6-2.1,3,0.5,3.2,1.6
				c0.1-0.2-0.1-0.8-0.1-1C92.8,48,92.9,47.7,92.9,47.3z"/>
		</g>
		<g>
			<path class="st18" d="M92.9,41c-2-1.1-3.4-2.6-4.8-4c-2.4-2.4-4-4.1-6.1-7c-0.7-1-1.6-2.3-2.5-3.5c-1.9,2.9-2.8,7.7-2.1,10.8
				c0.5,2,1.7,4.2,3.1,5.6c1.5,1.5,4,2,6,2.2c3.1,0.3,6.6-0.7,9-3C94.6,41.9,93.8,41.4,92.9,41z"/>
		</g>
	</g>
	<g>
		<g>
			<g>
				<path class="st0" d="M114,30.4c-2.6,0.5-4.8-0.7-5-0.8c-0.1,0-0.1,0-0.2,0c-0.2,0-0.7,0.6-0.8,0.7c-0.2,0.2-0.4,0.4-0.6,0.6
					c-0.1,0.1-0.4,0.2-0.5,0.4c-0.6,2-1.6,3.8-3,5.2c-1.4,1.8-3.1,3.3-4.8,4.4c-2.8,1.8-5.8,3.1-9.1,3.8c-1.4,0.3-3,0.4-4.5,0.2
					c-1.2,0.7-2.7,1-4.2,1.8c0,0.1,0,0.8,0,0.9c0.1,5.9,6.5,19.4,19,15.8c12.8-3.7,16.4-10.6,19.3-17.1c2.9-6.5,0.1-14.5-0.8-15.7
					C118,29.6,116.6,29.9,114,30.4z"/>
			</g>
		</g>
		<g>
			<path class="st19" d="M107,31.3c0,0-1.1,2.5-1.3,2.8c-0.5,0.9-1.2,1.8-1.9,2.6c-1.3,1.6-2.9,3.1-4.6,4.2
				c-2.8,1.8-5.8,3.1-9.1,3.8c-1.4,0.3-2.5,0-4.1-0.1c-1.2,0.7-2.7,1.3-4.3,1.9c-0.1,3.9,1.4,7.6,3.7,10.7c3.5,4.9,8.1,7.2,15.6,5.3
				c1.6-0.4,3.4-1.3,4.7-1.8c3.5-1.5,6.1-4.3,7.6-7.9c0.6-1.5,0.9-3.1,1.3-4.7c0.3-1.4,0.6-2.9,0.7-4.3c0.1-1.3,0-2.6-0.1-3.9
				c-0.1-1.3-0.5-2.3-1.1-3.4c-0.5-1-1.3-1.7-2.2-2.5c-0.9-0.8-1.9-1.5-3-2C108.4,31.7,107.7,31.4,107,31.3z"/>
		</g>
		<g>
			<path class="st2" d="M109.8,38.3c-0.6-0.3-1.6-0.5-1.8-1.2c-0.3-0.8,1.1-2.2,1.9-3.4c-0.7,0.7-1.5,0.9-2.3,1.3
				c-0.6,0.3-1.1-0.3-1.7-1c-1.6,4.1-7,7.9-10.8,9c0,0-0.1,0-0.1,0c-2.8,1.3-5.9,2-9,1.8c-0.3,0.1-0.5,0.3-0.8,0.4
				c0.2,0.4,0.2,0.6,0.1,0.9c-0.1,0.6-0.6,0.9-1.1,1c-0.3,0.1-1,0.5-1.4,0.3c0.6,0.2,2.4,0.1,2.9,0.8c0.8,1.1-0.1,1.8-0.6,2.1
				c-0.3,0.2-0.6,0.3-0.9,0.5c-0.3,0.2-0.6,0.6-1,0.6c0.4-0.1,2.3-0.7,2.7-0.7c2.6,0,2.7,2.6,1.7,4.8c0.2-0.5,1.2-1.4,1.5-1.8
				c0.4-0.5,1.1-0.9,1.8-0.4c1,0.7,0.9,2.8,1,2.6c0,0.2-0.1,1.1-0.1,1.2c0.5-1,1.4-3.9,2.4-1.6c0.5,1.1,0.7,2.9,0.6,4.1
				c0.3-1.9,0.9-5.5,2.1-5c0.1,0.1,0.4,0.3,0.5,0.4c0.7,1,1.7,2.7,2.5,4c-0.5-1.5-0.8-3.7-0.2-4.6c0.4-0.6,1.2-0.5,1.8,0
				c0.7,0.5,1.7,2.3,2.3,3c-0.6-1.7-1-4.9,0.2-5.2c1.2-0.3,2.3,1.2,3.7,2.6c-0.4-0.7-0.9-1.4-1.2-2.2c-0.2-0.8-0.2-1.7,0.2-2
				c0.6-0.5,1.1-0.8,1.9-0.3c1.2,0.7,1.1,0.5,2.3,1.2c-1.5-1.3-1.3-1.4-2.7-2.7c-0.3-0.3-0.5-0.6-0.5-1.1c-0.1-1,0.8-1.2,1.7-0.9
				c0.9,0.3,1.8,0.5,3.2,1.1c-1.5-1.1-4.1-2.7-4.2-3.3c-0.1-0.8,0.6-1.5,1.6-1.4c1,0.1,1.7,0.2,3,0.3c-1.4-0.7-2.7-0.9-3.6-2.2
				c-1.5-2.2,1.4-2.7,2.6-2.6c-0.2-0.1-0.8-0.1-0.9-0.2C110.4,38.5,110.1,38.4,109.8,38.3z"/>
		</g>
		<g>
			<path class="st20" d="M103.9,36.2c-1.7,1.6-3.5,2.5-5.3,3.4c-3.1,1.5-5.1,2.6-8.5,3.7c-1.2,0.4-2.7,0.8-4.1,1.3
				c2.1,2.7,6.2,5.1,9.4,5.4c2.1,0.2,4.4-0.3,6.2-1.2c1.9-1,3.1-3.2,4-5.1c1.3-2.9,1.5-6.5,0.2-9.6
				C105.3,34.9,104.6,35.5,103.9,36.2z"/>
		</g>
	</g>
	<g>
		<g>
			<g>
				<path class="st21" d="M100.4,42.9c2.7,0,4.6-1.6,4.7-1.7c0,0,0.1-0.1,0.2-0.1c0.2,0,0.8,0.4,0.9,0.5c0.2,0.1,0.5,0.3,0.7,0.5
					c0.2,0.1,0.4,0.2,0.5,0.3c1,1.8,2.3,3.4,3.9,4.6c1.7,1.5,3.7,2.6,5.5,3.4c3.1,1.2,6.3,1.9,9.7,1.9c1.4,0,3-0.2,4.5-0.6
					c1.3,0.4,2.9,0.5,4.5,0.9c0,0.1,0.1,0.8,0.2,0.9c1,5.8-2.6,20.3-15.5,19.2c-13.3-1.1-18.2-7.2-22.3-13
					C93.8,54,95,45.5,95.6,44.2C96.3,42.9,97.7,43,100.4,42.9z"/>
			</g>
		</g>
		<g>
			<path class="st1" d="M107.5,42.5c0,0,1.6,2.3,1.8,2.5c0.7,0.8,1.5,1.5,2.3,2.2c1.6,1.3,3.4,2.4,5.3,3.2c3.1,1.2,6.3,1.9,9.7,1.9
				c1.4,0,2.5-0.5,4-0.9c1.3,0.4,2.9,0.7,4.6,1c0.9,3.8,0.1,7.8-1.5,11.2c-2.5,5.5-6.5,8.7-14.3,8.3c-1.6-0.1-3.5-0.6-4.9-0.9
				c-3.7-0.7-6.8-3-9-6.2c-0.9-1.3-1.5-2.8-2.2-4.3c-0.6-1.3-1.1-2.7-1.5-4.1c-0.4-1.2-0.5-2.5-0.6-3.8c-0.1-1.3,0-2.3,0.4-3.6
				c0.3-1.1,1-2,1.6-2.8c0.7-0.9,1.6-1.8,2.5-2.6C106.2,43.2,106.8,42.7,107.5,42.5z"/>
		</g>
		<g>
			<path class="st2" d="M106.1,49.9c0.6-0.4,1.4-0.8,1.6-1.6c0.1-0.8-1.5-1.9-2.6-3c0.9,0.5,1.7,0.6,2.5,0.8
				c0.6,0.2,1.1-0.5,1.5-1.3c2.4,3.7,8.4,6.4,12.3,6.7c0,0,0.1,0,0.1,0c3,0.8,6.2,0.8,9.2,0c0.3,0,0.6,0.2,0.8,0.2
				c-0.1,0.4-0.1,0.6,0.1,0.9c0.2,0.6,0.8,0.8,1.2,0.8c0.3,0,1.1,0.3,1.4,0.1c-0.5,0.3-2.3,0.6-2.7,1.4c-0.5,1.2,0.5,1.7,1,2
				c0.3,0.1,0.7,0.2,1,0.4c0.3,0.1,0.7,0.4,1.1,0.4c-0.4,0-2.4-0.3-2.8-0.2c-2.6,0.5-2.1,3.1-0.7,5c-0.3-0.5-1.4-1.2-1.8-1.5
				c-0.5-0.5-1.2-0.6-1.8,0c-0.8,0.9-0.4,2.9-0.5,2.7c0.1,0.2,0.3,1,0.4,1.2c-0.6-0.9-2.2-3.5-2.7-1.1c-0.3,1.2-0.1,3,0.3,4.1
				c-0.6-1.8-2-5.2-3-4.5c-0.1,0.2-0.4,0.3-0.4,0.5c-0.5,1.1-1.2,3-1.6,4.4c0.2-1.6,0-3.8-0.7-4.5c-0.5-0.5-1.2-0.2-1.8,0.4
				c-0.6,0.6-1.3,2.6-1.7,3.4c0.2-1.8,0-5-1.2-5c-1.2-0.1-2,1.7-3.1,3.3c0.3-0.8,0.6-1.6,0.7-2.4c0.1-0.8-0.1-1.7-0.6-2
				c-0.7-0.4-1.2-0.6-1.9,0.1c-1,0.9-1,0.7-2,1.6c1.2-1.6,1-1.6,2.1-3.2c0.2-0.4,0.3-0.7,0.3-1.2c-0.1-1-1-1-1.8-0.6
				c-0.8,0.5-1.7,0.9-2.9,1.7c1.3-1.4,3.5-3.4,3.5-4.1c0-0.8-0.9-1.4-1.8-1.1c-0.9,0.3-1.6,0.5-2.8,0.9c1.2-0.9,2.5-1.4,3.1-2.9
				c1-2.4-1.9-2.4-3-2c0.1-0.2,0.7-0.3,0.9-0.4C105.5,50.2,105.8,50.1,106.1,49.9z"/>
		</g>
		<g>
			<path class="st6" d="M111.5,46.7c2,1.2,3.9,1.7,5.8,2.3c3.3,0.9,5.5,1.5,9,1.9c1.2,0.1,2.8,0.3,4.3,0.5c-1.5,3.1-5.1,6.2-8.1,7.2
				c-2,0.6-4.4,0.6-6.4,0c-2-0.6-3.7-2.5-4.9-4.2c-1.9-2.5-2.8-6.1-2.1-9.4C109.8,45.7,110.6,46.1,111.5,46.7z"/>
		</g>
	</g>
	<g>
		<g>
			<g>
				<path class="st7" d="M130.4,55.6c-2.7,0.3-4.7-1-4.9-1.2c0,0-0.1-0.1-0.2-0.1c-0.2,0-0.7,0.5-0.9,0.6c-0.2,0.2-0.4,0.4-0.7,0.5
					c-0.1,0.1-0.4,0.2-0.5,0.4c-0.8,1.9-1.9,3.7-3.4,5c-1.5,1.7-3.3,3.1-5.1,4c-2.9,1.6-6,2.7-9.4,3.1c-1.4,0.2-3,0.2-4.5-0.1
					c-1.2,0.6-2.8,0.8-4.4,1.5c0,0.1,0,0.8,0,0.9c-0.3,5.9,5,19.9,17.8,17.2c13.1-2.7,17.2-9.3,20.5-15.6c3.4-6.3,1.2-14.5,0.4-15.7
					C134.4,55.1,133.1,55.3,130.4,55.6z"/>
			</g>
		</g>
		<g>
			<path class="st1" d="M123.3,56c0,0-1.3,2.4-1.5,2.7c-0.6,0.9-1.3,1.7-2.1,2.5c-1.5,1.5-3.1,2.8-4.9,3.8c-2.9,1.6-6,2.7-9.4,3.1
				c-1.4,0.2-2.5-0.2-4-0.4c-1.2,0.6-2.8,1.1-4.4,1.6c-0.4,3.8,0.9,7.7,2.8,10.9c3.1,5.1,7.5,7.8,15.2,6.5c1.6-0.3,3.4-1,4.8-1.5
				c3.6-1.2,6.4-3.8,8.2-7.3c0.7-1.4,1.2-3,1.7-4.6c0.4-1.4,0.8-2.8,1-4.2c0.2-1.2,0.2-2.6,0.2-3.9c0-1.3-0.3-2.3-0.9-3.5
				c-0.5-1-1.2-1.8-2-2.6c-0.8-0.9-1.8-1.6-2.8-2.2C124.7,56.5,124,56.2,123.3,56z"/>
		</g>
		<g>
			<path class="st2" d="M125.6,63.2c-0.6-0.3-1.5-0.7-1.7-1.4c-0.2-0.8,1.2-2.1,2.2-3.3c-0.8,0.6-1.6,0.8-2.4,1.1
				c-0.6,0.3-1.1-0.4-1.6-1.1c-1.9,4-7.6,7.3-11.4,8.2c0,0-0.1,0-0.1,0c-2.9,1.1-6,1.6-9.1,1.1c-0.3,0.1-0.5,0.3-0.8,0.3
				c0.1,0.4,0.1,0.6,0.1,0.9c-0.2,0.6-0.7,0.8-1.1,1c-0.3,0.1-1,0.4-1.4,0.2c0.5,0.2,2.4,0.3,2.8,1c0.7,1.1-0.2,1.8-0.8,2.1
				c-0.3,0.2-0.7,0.3-1,0.5c-0.3,0.2-0.7,0.5-1,0.6c0.4,0,2.3-0.6,2.7-0.5c2.6,0.2,2.5,2.8,1.3,4.9c0.3-0.5,1.3-1.3,1.6-1.7
				c0.4-0.5,1.2-0.8,1.8-0.2c0.9,0.8,0.7,2.8,0.8,2.7c0,0.2-0.2,1-0.2,1.2c0.5-1,1.7-3.7,2.5-1.4c0.4,1.1,0.5,2.9,0.2,4.1
				c0.4-1.9,1.3-5.4,2.5-4.8c0.1,0.1,0.4,0.3,0.5,0.5c0.7,1.1,1.5,2.8,2.1,4.2c-0.4-1.6-0.5-3.8,0.1-4.6c0.4-0.5,1.2-0.4,1.8,0.2
				c0.6,0.5,1.6,2.4,2.1,3.2c-0.5-1.8-0.6-4.9,0.6-5.1c1.2-0.2,2.2,1.4,3.5,2.9c-0.4-0.7-0.8-1.5-1-2.3c-0.2-0.8-0.1-1.7,0.3-2
				c0.6-0.4,1.2-0.7,1.9-0.1c1.1,0.8,1,0.6,2.2,1.3c-1.4-1.4-1.2-1.4-2.5-2.9c-0.3-0.3-0.4-0.7-0.5-1.1c0-1,0.9-1.1,1.7-0.8
				c0.9,0.4,1.8,0.7,3.1,1.3c-1.4-1.2-3.9-3-4-3.7c-0.1-0.8,0.8-1.5,1.7-1.3c0.9,0.2,1.7,0.3,2.9,0.5c-1.3-0.8-2.6-1.1-3.4-2.5
				c-1.3-2.3,1.6-2.6,2.8-2.4c-0.2-0.1-0.7-0.2-0.9-0.3C126.2,63.5,125.9,63.3,125.6,63.2z"/>
		</g>
		<g>
			<path class="st6" d="M119.8,60.7c-1.8,1.4-3.7,2.2-5.5,3c-3.2,1.3-5.3,2.2-8.7,3c-1.2,0.3-2.8,0.6-4.2,1c1.9,2.9,5.8,5.6,8.9,6.1
				c2,0.4,4.4,0,6.3-0.8c2-0.8,3.3-2.9,4.4-4.8c1.5-2.8,2-6.4,0.9-9.6C121.4,59.5,120.6,60,119.8,60.7z"/>
		</g>
	</g>
	<g>
		<g>
			<g>
				<path class="st0" d="M94.1,51.9c-2.4-1.3-3.4-3.6-3.4-3.8c0-0.1-0.1-0.1-0.1-0.1c-0.1-0.1-0.9,0-1.1,0c-0.3,0-0.6,0.1-0.8,0.1
					c-0.2,0-0.5-0.1-0.6,0c-1.7,1.1-3.6,1.9-5.5,2.1c-2.2,0.5-4.4,0.6-6.4,0.3c-3.3-0.4-6.5-1.3-9.4-3c-1.3-0.7-2.6-1.6-3.7-2.7
					c-1.3-0.2-2.7-1-4.4-1.4c-0.1,0.1-0.5,0.6-0.5,0.7c-3.5,4.6-6.8,19.2,5.2,24.5C75.5,74,82.5,71,88.7,67.9
					c6.2-3.1,8.9-11.1,8.9-12.6C97.6,53.8,96.4,53.2,94.1,51.9z"/>
			</g>
		</g>
		<g>
			<path class="st8" d="M88,48c0,0-2.4,1.2-2.7,1.3c-1,0.4-2,0.6-3.1,0.8c-2,0.4-4.1,0.5-6.2,0.3c-3.3-0.4-6.5-1.3-9.4-3
				c-1.3-0.7-2-1.6-3.1-2.7c-1.3-0.2-2.9-0.8-4.5-1.3c-2.5,2.9-3.5,6.8-3.7,10.6c-0.2,6,1.9,10.8,9,14.2c1.5,0.7,3.4,1.2,4.8,1.6
				c3.6,1.1,7.4,0.6,10.7-1.2c1.4-0.7,2.6-1.8,3.9-2.7c1.1-0.9,2.2-1.8,3.2-2.9c0.9-0.9,1.6-2,2.3-3.1c0.7-1.1,1-2.1,1.2-3.4
				c0.2-1.1,0-2.2-0.2-3.3c-0.2-1.2-0.6-2.4-1.1-3.5C88.8,49.3,88.4,48.6,88,48z"/>
		</g>
		<g>
			<path class="st9" d="M85.9,55.2c-0.3-0.6-0.9-1.4-0.7-2.1c0.2-0.8,2.2-1,3.6-1.4c-1,0-1.7-0.3-2.6-0.5c-0.7-0.1-0.7-1-0.7-1.9
				c-3.8,2.1-10.3,1.5-14,0c0,0-0.1,0-0.1,0c-3-0.8-5.9-2.2-8.2-4.5c-0.3-0.1-0.6-0.1-0.9-0.2c-0.1,0.4-0.2,0.5-0.4,0.7
				c-0.5,0.4-1,0.3-1.5,0.1c-0.3-0.1-1-0.3-1.3-0.6c0.3,0.5,1.8,1.7,1.8,2.5c0,1.3-1.2,1.3-1.8,1.3c-0.4,0-0.7-0.1-1.1-0.2
				c-0.3,0-0.9,0-1.2-0.1c0.3,0.2,2.2,0.9,2.5,1.2c2,1.7,0.5,3.7-1.6,4.8c0.5-0.3,1.8-0.3,2.3-0.5c0.7-0.2,1.4,0,1.6,0.9
				c0.3,1.2-1,2.8-0.8,2.6c-0.1,0.1-0.7,0.7-0.8,0.8c1-0.5,3.5-2.1,2.9,0.4c-0.3,1.2-1.2,2.7-2.1,3.5c1.4-1.3,4.1-3.6,4.7-2.5
				c0,0.2,0.2,0.5,0.2,0.7c0,1.3-0.3,3.2-0.5,4.7c0.6-1.5,1.7-3.4,2.6-3.7c0.6-0.2,1.2,0.4,1.4,1.2c0.2,0.8,0,2.9,0,3.8
				c0.6-1.7,2.2-4.4,3.3-3.9c1.1,0.5,1,2.4,1.3,4.4c0.1-0.8,0.2-1.7,0.5-2.5c0.3-0.8,0.8-1.4,1.4-1.4c0.8,0,1.3,0.1,1.7,1
				c0.5,1.3,0.5,1.1,1.1,2.4c-0.3-1.9-0.2-1.9-0.4-3.8c-0.1-0.5,0-0.8,0.2-1.2c0.5-0.9,1.4-0.4,1.9,0.4c0.5,0.8,1.1,1.6,1.8,2.9
				c-0.5-1.8-1.6-4.7-1.3-5.3c0.4-0.7,1.4-0.7,2.1,0c0.7,0.7,1.2,1.3,2.1,2.2c-0.7-1.4-1.6-2.4-1.5-4.1c0.2-2.6,2.8-1.2,3.6-0.3
				c0-0.2-0.5-0.6-0.6-0.8C86.2,55.8,86.1,55.5,85.9,55.2z"/>
		</g>
		<g>
			<path class="st22" d="M82.5,49.8c-2.3,0.1-4.2-0.4-6.2-0.8c-3.3-0.8-5.6-1.4-8.9-2.7c-1.1-0.5-2.6-1.1-4-1.6
				c-0.1,3.5,1.8,8,4,10.3c1.5,1.5,3.7,2.7,5.6,3.1c2.1,0.5,4.4-0.4,6.3-1.4c2.8-1.3,5.2-4,6-7.3C84.4,49.7,83.5,49.7,82.5,49.8z"/>
		</g>
	</g>
	<g>
		<g>
			<g>
				<path class="st23" d="M58.3,46.7c-2.6,0.8-4.8,0-5-0.1c-0.1,0-0.1,0-0.2,0c-0.2,0-0.6,0.7-0.7,0.8c-0.2,0.2-0.4,0.5-0.5,0.7
					c-0.1,0.1-0.4,0.3-0.4,0.5c-0.5,2-1.2,4-2.5,5.6c-1.2,2-2.7,3.7-4.3,5c-2.6,2.2-5.5,3.9-8.6,5c-1.4,0.5-2.9,0.8-4.5,0.8
					c-1.1,0.8-2.6,1.4-4,2.3c0,0.1,0.1,0.8,0.1,0.9c0.6,5.9,8.2,18.6,20.2,13.3C60.1,76.3,63.1,68.9,65.3,62
					c2.3-6.9-1.2-14.5-2.2-15.6C62.1,45.4,60.8,45.9,58.3,46.7z"/>
			</g>
		</g>
		<g>
			<path class="st1" d="M51.4,48.6c0,0-0.9,2.7-1,3c-0.4,1-1,2-1.6,2.9c-1.2,1.8-2.5,3.4-4.2,4.8c-2.6,2.2-5.5,3.9-8.6,5
				c-1.4,0.5-2.5,0.4-4,0.4c-1.1,0.8-2.6,1.7-4.1,2.5c0.2,3.9,2.1,7.4,4.6,10.2c3.9,4.4,8.7,6.1,15.9,3.2c1.5-0.6,3.2-1.7,4.4-2.5
				c3.3-1.9,5.6-5.1,6.8-8.9c0.5-1.6,0.6-3.2,0.9-4.8c0.2-1.4,0.3-2.9,0.3-4.4c0-1.3-0.2-2.6-0.5-3.9c-0.2-1.2-0.7-2.2-1.4-3.3
				c-0.6-0.9-1.5-1.6-2.4-2.2c-1-0.7-2-1.2-3.1-1.6C52.8,48.8,52.1,48.6,51.4,48.6z"/>
		</g>
		<g>
			<path class="st2" d="M54.8,55.2c-0.7-0.2-1.6-0.3-1.9-1c-0.4-0.8,0.9-2.3,1.6-3.7c-0.7,0.8-1.4,1.1-2.2,1.6
				c-0.6,0.4-1.1-0.2-1.8-0.8c-1.2,4.3-6.2,8.8-9.8,10.4c0,0-0.1,0-0.1,0c-2.7,1.7-5.6,2.8-8.8,3c-0.3,0.1-0.5,0.4-0.7,0.5
				c0.2,0.4,0.2,0.5,0.2,0.8c-0.1,0.7-0.5,1-0.9,1.2c-0.3,0.2-0.9,0.6-1.3,0.5c0.6,0.1,2.4-0.2,2.9,0.4c0.9,1,0.1,1.8-0.4,2.2
				c-0.3,0.2-0.6,0.4-0.9,0.7c-0.3,0.2-0.6,0.7-0.9,0.8c0.4-0.1,2.2-1,2.6-1.1c2.6-0.3,2.9,2.3,2.1,4.6c0.2-0.6,1-1.6,1.3-2
				c0.3-0.6,1-1,1.7-0.6c1.1,0.6,1.2,2.7,1.2,2.5c0,0.2,0,1.1,0,1.2c0.4-1.1,1.1-4.1,2.3-1.9c0.6,1,1,2.8,0.9,4
				c0.1-2,0.4-5.6,1.6-5.3c0.1,0.1,0.4,0.2,0.6,0.4c0.8,0.9,2,2.5,2.8,3.7c-0.6-1.5-1.1-3.6-0.6-4.5c0.3-0.6,1.1-0.6,1.8-0.2
				c0.7,0.4,1.9,2,2.5,2.7c-0.7-1.7-1.4-4.7-0.3-5.2c1.1-0.4,2.4,0.9,3.9,2.1c-0.5-0.6-1-1.3-1.3-2.1c-0.3-0.8-0.4-1.6,0-2.1
				c0.5-0.6,1-0.9,1.9-0.5c1.2,0.5,1.1,0.4,2.4,0.9c-1.6-1.1-1.4-1.2-2.9-2.4c-0.3-0.3-0.5-0.6-0.6-1c-0.2-1,0.7-1.3,1.6-1.1
				c0.9,0.2,1.8,0.3,3.2,0.7c-1.6-0.9-4.3-2.1-4.5-2.8c-0.2-0.8,0.5-1.6,1.5-1.6c1,0,1.7,0,2.9-0.1c-1.4-0.5-2.8-0.5-3.8-1.7
				c-1.7-2,1.1-2.9,2.3-2.9c-0.2-0.1-0.8,0-0.9-0.1C55.5,55.4,55.1,55.3,54.8,55.2z"/>
		</g>
		<g>
			<path class="st6" d="M48.8,53.9c-1.6,1.8-3.2,2.9-4.9,4.1c-2.9,2-4.8,3.2-8.1,4.8c-1.1,0.5-2.6,1.2-3.9,1.9
				c2.3,2.5,6.6,4.3,9.7,4.2c2-0.1,4.4-0.9,6.1-2.1c1.8-1.2,2.8-3.6,3.5-5.7c1.1-3,0.9-6.7-0.7-9.7C50.1,52.4,49.4,53.1,48.8,53.9z"
				/>
		</g>
	</g>
	<g>
		<g>
			<g>
				<path class="st24" d="M104.5,66.4c-1.5,2.2-1.4,4.6-1.4,4.9c0,0.1,0,0.1,0,0.2c-0.1,0.2-0.8,0.4-1,0.5c-0.3,0.1-0.5,0.2-0.8,0.3
					c-0.2,0.1-0.4,0.3-0.6,0.2c-2-0.2-4.1-0.1-6,0.5c-2.2,0.5-4.3,1.4-6,2.5c-2.8,1.8-5.3,4-7.2,6.7c-0.8,1.2-1.6,2.6-2.1,4
					c-1.1,0.8-2,2.1-3.4,3.1c-0.1-0.1-0.7-0.4-0.8-0.4c-5.3-2.6-14.9-14.1-6.4-23.9c8.7-10.1,16.5-10.5,23.5-10.4
					c7.1,0.1,13.2,6,13.9,7.3C106.9,63.1,106.1,64.2,104.5,66.4z"/>
			</g>
		</g>
		<g>
			<path class="st1" d="M100.7,72.4c0,0-2.8-0.1-3,0c-1.1,0.1-2.1,0.3-3.2,0.6c-2,0.5-4,1.3-5.7,2.4c-2.8,1.8-5.3,4-7.2,6.7
				c-0.8,1.2-1.1,2.3-1.6,3.8c-1.1,0.8-2.3,2-3.5,3.1c-3.6-1.5-6.3-4.5-8.2-7.8c-3-5.2-3.2-10.4,1.7-16.4c1-1.3,2.6-2.5,3.6-3.5
				c2.8-2.6,6.4-3.7,10.3-3.6c1.6,0,3.2,0.4,4.8,0.8c1.4,0.3,2.8,0.7,4.2,1.2c1.2,0.4,2.4,1.1,3.5,1.7c1.1,0.6,1.9,1.4,2.6,2.5
				c0.7,0.9,1,1.9,1.3,3c0.3,1.2,0.5,2.4,0.6,3.5C100.9,71,100.9,71.7,100.7,72.4z"/>
		</g>
		<g>
			<path class="st2" d="M95.6,66.9c0,0.7-0.2,1.7,0.3,2.2c0.6,0.6,2.4-0.1,3.9-0.3c-0.9,0.4-1.4,1-2.1,1.6c-0.5,0.4-0.2,1.2,0.2,2
				c-4.4-0.3-10.1,3.1-12.7,6.1c0,0,0,0-0.1,0.1c-2.4,2-4.3,4.5-5.4,7.5c-0.2,0.2-0.5,0.3-0.7,0.5c-0.3-0.3-0.4-0.4-0.7-0.5
				c-0.6-0.2-1.1,0.2-1.4,0.5c-0.2,0.3-0.8,0.7-0.9,1.1c0.1-0.6,0.9-2.2,0.5-3c-0.6-1.1-1.7-0.6-2.2-0.4c-0.3,0.2-0.6,0.4-0.9,0.6
				c-0.3,0.2-0.8,0.3-1,0.6c0.2-0.3,1.6-1.7,1.8-2.1c1.1-2.4-1.3-3.5-3.6-3.5c0.6,0,1.8-0.5,2.3-0.6c0.7-0.1,1.2-0.6,1.1-1.5
				c-0.3-1.2-2.1-2-1.9-2c-0.2,0-1-0.3-1.2-0.4c1.1,0,4.1,0.3,2.4-1.5c-0.8-0.9-2.3-1.9-3.5-2.2c1.9,0.6,5.4,1.4,5.4,0.2
				c-0.1-0.2-0.1-0.5-0.2-0.7c-0.6-1.1-1.7-2.7-2.6-3.9c1.2,1.1,3.1,2.2,4.1,2.1c0.7-0.1,0.9-0.9,0.7-1.7c-0.2-0.8-1.3-2.5-1.8-3.4
				c1.3,1.3,4,3,4.7,2c0.7-0.9-0.2-2.6-0.8-4.4c0.5,0.7,0.9,1.4,1.5,2c0.6,0.6,1.4,0.9,1.9,0.7c0.7-0.3,1.2-0.7,1.1-1.6
				c-0.1-1.4,0-1.2-0.1-2.6c0.6,1.9,0.7,1.8,1.4,3.6c0.2,0.4,0.4,0.7,0.7,0.9c0.9,0.5,1.4-0.2,1.5-1.1c0.1-1,0.3-1.9,0.3-3.3
				c0.4,1.8,0.7,4.9,1.3,5.3c0.7,0.5,1.6,0,1.9-0.9c0.3-0.9,0.5-1.6,0.9-2.8c0,1.5-0.3,2.8,0.5,4.2c1.4,2.3,3-0.1,3.4-1.3
				c0.1,0.2-0.2,0.7-0.2,0.9C95.6,66.3,95.6,66.6,95.6,66.9z"/>
		</g>
		<g>
			<path class="st3" d="M95,73.2c-2.2,0.9-3.7,2.1-5.3,3.4c-2.7,2.1-4.5,3.6-6.9,6.2C82,83.7,81,84.9,79.9,86c-1.6-3-2-7.8-1-10.8
				c0.7-2,2.1-3.9,3.7-5.2c1.7-1.3,4.2-1.5,6.3-1.5c3.2,0,6.6,1.3,8.8,3.9C96.7,72.4,95.9,72.9,95,73.2z"/>
		</g>
	</g>
</g>
</svg>
