<?xml version="1.0" encoding="utf-8"?>
<!-- Generator: Adobe Illustrator 25.2.0, SVG Export Plug-In . SVG Version: 6.00 Build 0)  -->
<svg version="1.1" id="Layer_1" xmlns="http://www.w3.org/2000/svg" xmlns:xlink="http://www.w3.org/1999/xlink" x="0px" y="0px"
	 viewBox="0 0 481.4 45.2" style="enable-background:new 0 0 481.4 45.2;" xml:space="preserve">
<style type="text/css">
	.st0{opacity:0.5;}
	.st1{fill:#B96E2C;}
	.st2{clip-path:url(#SVGID_2_);}
	.st3{opacity:0.38;}
	.st4{fill:#9B561E;}
	.st5{fill:none;stroke:#7A4218;stroke-miterlimit:10;}
	.st6{fill:#7F4B25;}
	.st7{opacity:0.22;}
</style>
<g>
	<g id="Layer_1_1_">
		<path class="st0" d="M467.4,42.1H17.9c-0.7,0-1.3-0.4-1.6-0.9L6.8,25.1c-0.3-0.6-0.3-1.3,0-1.9L16.2,7c0.3-0.6,1-0.9,1.6-0.9
			h449.5c0.7,0,1.4,0.4,1.7,1l8.5,16.2c0.3,0.6,0.3,1.2,0,1.8l-8.5,16.1C468.8,41.8,468.1,42.1,467.4,42.1z"/>
		<polygon class="st1" points="465.6,39.1 13.8,39.1 3.3,21.1 13.8,3 465.6,3 475.1,21.1 		"/>
		<g>
			<defs>
				<polygon id="SVGID_1_" points="465.6,39.1 13.8,39.1 3.3,21.1 13.8,3 465.6,3 475.1,21.1 				"/>
			</defs>
			<clipPath id="SVGID_2_">
				<use xlink:href="#SVGID_1_"  style="overflow:visible;"/>
			</clipPath>
			<g class="st2">
				<g class="st3">
					<path class="st4" d="M-52.9,0c-2.7,5.1,331.6,1.4,388,7.7c27.3,3,298.1,1.6,219.6,0C554.7,7.7-50.3-5.1-52.9,0z"/>
					<path class="st4" d="M-52.9,17.3c-2.7,5.1,331.6,1.4,388,7.7c27.3,3.1,298.1,1.6,219.6,0C554.7,25-50.3,12.2-52.9,17.3z"/>
					<path class="st5" d="M-52.9,17.3c-2.7,5.1,331.6,1.4,388,7.7c27.3,3.1,298.1,1.6,219.6,0C554.7,25-50.3,12.2-52.9,17.3z"/>
					<path class="st6" d="M434.1,31.9c-13,0.4-84.8,8.4-111.3,11.4C259.2,50.6-0.9,50.3-3.3,50.4c-43.3,3,75.5,1.3,109.6,0.6
						c33.3-0.8,155.9,0.9,209.1-5.4C371.9,38.9,449.3,31.5,434.1,31.9z"/>
					<path class="st6" d="M433.3,30.1c-12.9,0.4-84.5,5.7-110.8,7.9c-61,5.2-321.3,8.5-324.3,8.6c-43.4,0.9,75-0.3,108.9-1.3
						c33.1-0.9,155-1.7,208-6C365.8,35.3,446.2,29.7,433.3,30.1z"/>
					<path class="st6" d="M433.4,32.1c-12.9,0.4-84.5,5.7-110.8,7.9c-61,5.1-321.3,8.5-324.3,8.5c-43.4,1,75-0.3,108.9-1.2
						c33.1-0.9,155-1.7,208-6C365.8,37.3,446.3,31.7,433.4,32.1z"/>
					<path class="st6" d="M279.5,32.3c-19.3,2.7-172,1.3-196.1,1.7c-12.6,0.2-32.3-0.8-48.4-1.6c-14.8-0.9,9.9-1.7,9.9-1.7
						c-82.5-7-4.5,5.3,27.2,5.3s18.3,0,81.2,0s124.1-2,124.1-2l3.8-0.5l37.4-4.3c0,0-12.9,0.2-28.1,1.7
						C287,31.3,283.2,31.7,279.5,32.3z"/>
					<path class="st6" d="M319.5,33.7c-8,2.5-52.4,1.1-70.1,0.7c-10.9-0.2-113.1,2.7-127.3,2.6c-0.8,0-91.7-7-130.9-6.5
						c-13.6,0.2,79.1,6.9,75.2,6.5c33.7,3.7,82.3,1.8,117.8,1s81.3-3.2,104-1S327.5,31.3,319.5,33.7z"/>
					<path class="st6" d="M60.2,36c15.9,1.8,15.8-0.2-69-5.1c-63.3,2.5,132.1,9.1,110,9.5c-0.2,0-0.4,0-0.6,0
						c6.9-0.1,210.8-3.7,234.7-5.2c17.4-1.1,55.3-10.5,80.8-14.8c-14.4,1.5-34.4,3.9-57.3,8C302.2,38.6,80.7,38.3,60.2,36z"/>
					<path class="st6" d="M434.8,18.2c-4.5,0-11,0.9-18.6,2.1C437.2,18.2,446.3,18.2,434.8,18.2z"/>
					<path class="st6" d="M105,60.9c-0.1,0-0.1,0-0.2,0C103.9,60.9,104,60.9,105,60.9z"/>
					<path class="st6" d="M-4.9,61.9c0,0,49.2,0.8,68.8-0.4c3.2-0.2,11.5-0.4,23.3-0.5C44.1,60.9-52.2,60.6-4.9,61.9z"/>
					<path class="st6" d="M87.2,61c14.5,0,22.9,0,17.8-0.1c-1,0-1.1,0-0.2,0c0.1,0,0.2,0,0.2,0c14.5,0.3,214.5,4.6,234.1,5.4
						c0.9,0.1,1.9,0.1,2.9,0.1C277.1,61,142.7,60.4,87.2,61z"/>
					<path class="st6" d="M342.1,66.4c8.1,0.7,15.1,1.4,20.7,2.3c47.3,7,95.7,4.6,76.3,4.3C420.5,72.6,366.3,67.5,342.1,66.4z"/>
					<path class="st6" d="M333,62.1c-55.3-3.5-149.8-4.6-211.2-4.8C169.6,58.3,300.1,61.2,333,62.1z"/>
					<path class="st6" d="M-5.1,57.9c0,0,49.1,0.3,68.8-0.4c5.8-0.2,27.9-0.4,58-0.3L105,56.9C124.9,57.4-68.2,56.1-5.1,57.9z"/>
					<path class="st6" d="M339,62.3c-1.3,0-3.3-0.1-6-0.2c12,0.8,22.1,1.6,29.7,2.6c47.6,6.1,95.7,4.6,76.3,4.3S361.6,63.1,339,62.3
						z"/>
					<path class="st6" d="M104.9,56.9h-0.3C103.8,56.9,103.9,56.9,104.9,56.9z"/>
					<path class="st6" d="M-12.8,55.6l-19.6,1.6c-63,2.4,165.3-5.6,350.9,5.3c98.7,5.8,225.3,18,110.5,4.9S-1,55-12.8,55.6z"/>
					<path class="st6" d="M256.6,82.1C267,85.7,265.9,84.9,256.6,82.1z"/>
					<path class="st6" d="M33.2,63.2c-152.5,7.2,93.2-6.8,173.9,7.6c16.7,2.9,33.2,6.7,49.5,11.3c-3.9-1.3-9.4-3.2-16.6-5.9
						C194.9,59.8,33.2,63.2,33.2,63.2z"/>
					<path class="st6" d="M521.6,29.7c-37.8-9-127.1,11.4-258.6,23c-94.2,8.4,31-0.5,59.1-3.9c16.5-2,88.6-13.1,146.2-16.7
						c41.1-2.5,43.4,1.6,55.4,4.3C552.4,42.8,571.7,41.6,521.6,29.7z"/>
					<path class="st6" d="M456.2,35.9C385.6,43.9,282.8,51.1,286,55s102.4,1,132.8,4.2s86.1,5.6,106.5,13s7.5-3.8-62.5-10.7
						c-43.5-4.3-132.2-5-149.2-5.2c-16.3-0.2-53.1-1,43.4-10c56.3-5.3,89.3-8.2,96.5-9.1c3.1-0.4,9.3-1.6,17.6-2.6
						c-1.9,0.2-3.6,0.3-5.6,0.5C462.5,35.3,459.4,35.6,456.2,35.9z"/>
					<path class="st6" d="M471.1,34.5c11.4-0.9-6.9-0.7,1.8-0.6C461.2,33.4,479.2,33.6,471.1,34.5z"/>
					<path class="st6" d="M472.9,33.9c16.8,0.9,64.6,3.8,84.6,13.2c2.6,1.2,4.9,2.3,7,3.3c-4.8-2.6-9.3-5.5-13.6-8.8
						C550.9,41.6,509.1,34.4,472.9,33.9z"/>
					<path class="st6" d="M418.7,45.6c49.4-4.3,83.1-11,110.3-3s31.2,12.1,22,5.7c0,0-6.8-5-23.7-8.2c-12.2-2.3-29.8-3.5-53.9-1.1
						c-57.4,5.7-165.9,14-167.5,15.2s66.3,2.3,109.4,2.5s98.3,7.3,111.9,12.3s13.4-1.7-15.3-7s-153.7-6.7-157.4-7.8
						S369.4,49.9,418.7,45.6z"/>
					<path class="st6" d="M418.7,45.9c49.4-4.3,83.1-11,110.3-3s31.2,12.1,22,5.7c0,0-6.8-5.1-23.7-8.2c-12.2-2.2-29.8-3.5-53.9-1.1
						c-57.4,5.7-165.9,14-167.5,15.2s66.3,2.3,109.4,2.5s98.2,7.3,111.9,12.3s13.4-1.7-15.3-7s-153.7-6.7-157.4-7.8
						S369.4,50.3,418.7,45.9z"/>
					<path class="st6" d="M453.6,46.8c11.6-0.3,22.8-1.5,34.5-1.4c1.9,0,6.1-0.1,7.2,0.9c-1.3,0.7-3.2,0.7-4.8,0.7
						c-5.8,0-11.6,0.1-17.4,0.1c-2.3,0-4.8,0.1-6.7,0.9c2.9,0.5,5.9,1.1,8.8,1.6c2.4,0.5,4.8,0.8,7.2,0.8c2.5,0,3.7-0.8,5.8-1.4
						c4.8-1.3,11.3-1.3,16.5-1.2c11.2,0.3,22.3,1.7,33.2,4.2c2.5,0.7,5.1,1,7.7,1.1c0.5,0,0.9-0.1,1.3-0.3c0.4-0.3,0.2-0.8-0.3-1.1
						c-1.8-1.1-6.7-1.6-9.1-2.2c-3.4-0.8-6.9-1.5-10.5-2.1c-8.7-1.5-17.6-2.6-26.4-3.2c-6.5-0.4-13.3-0.6-20.6-0.5
						c-30.7,0.6-98.3,7.1-83.7,8.2S551.4,59,551.4,59c-22.7-11.3-106.1-4.5-111.5-8.9C436.5,46.9,451.5,46.9,453.6,46.8z"/>
					<path class="st6" d="M453.6,47.5c11.6-0.4,22.8-1.5,34.5-1.4c1.9,0,6.2-0.1,7.2,1c-1.3,0.7-3.2,0.7-4.8,0.7
						c-5.8,0-11.6,0.1-17.4,0.1c-2.3,0-4.8,0.1-6.7,0.9c2.9,0.6,5.9,1.1,8.8,1.6c2.4,0.5,4.8,0.8,7.2,0.8c2.5,0,3.7-0.8,5.8-1.4
						c4.8-1.3,11.3-1.3,16.5-1.2c11.2,0.3,22.3,1.7,33.2,4.2c2.5,0.6,5.1,1,7.7,1.1c0.4,0,0.9-0.1,1.3-0.3c0.4-0.3,0.2-0.8-0.2-1.1
						c-1.8-1.1-6.7-1.6-9.1-2.2c-3.4-0.8-6.9-1.5-10.5-2.1c-8.7-1.5-17.6-2.6-26.4-3.2c-6.5-0.4-13.4-0.6-20.6-0.4
						c-30.7,0.6-98.3,7.1-83.7,8.2s155.1,6.8,155.1,6.8c-22.7-11.4-106.1-4.5-111.5-8.9C436.5,47.6,451.5,47.6,453.6,47.5z"/>
					<path class="st6" d="M-4.3,57.5c-8.8,0.1-7.5,1.1-7.5,1.1c-5.8,16,15,11.9,14.4,11S-8.6,70-8.6,64.5c0-3.9,0.9-4.8,2.6-5.6
						c2-1.1,31.7-1.3,48.4-1.6c15.8-0.3,88.9,0.2,76.4-0.2C87.3,56.2,12.2,57.3-4.3,57.5z"/>
					<path class="st6" d="M25,44.7c-33.5,0.5-36,0.9-36,0.9c-1.3,0.4,0,1.7,0,1.7c1.8-0.7,24.4-0.5,34.5-1.2s44.4-0.8,40.7-1.2
						S31.1,44.6,25,44.7z"/>
					<g class="st7">
						<path class="st6" d="M434.2,32.4c-13,0.4-84.8,8.5-111.3,11.4C259.3,51.1-0.8,50.7-3.3,50.9c-43.3,3.1,75.5,1.3,109.6,0.6
							c33.3-0.8,155.9,0.9,209.1-5.4C371.9,39.4,449.3,32,434.2,32.4z"/>
						<path class="st6" d="M433.3,30.6c-12.9,0.4-84.5,5.7-110.8,7.9C261.5,43.7,1.2,47-1.8,47.1c-43.4,0.9,75-0.3,108.9-1.3
							c33.1-0.9,155-1.7,208-6C365.8,35.8,446.2,30.3,433.3,30.6z"/>
						<path class="st6" d="M433.4,32.6c-12.9,0.4-84.5,5.7-110.8,7.9c-61,5.2-321.3,8.5-324.3,8.6c-43.5,0.9,75-0.3,108.9-1.2
							c33.1-0.9,155-1.7,208-6C365.9,37.8,446.3,32.3,433.4,32.6z"/>
						<path class="st4" d="M279.5,32.8c-19.2,2.7-171.9,1.3-196.1,1.7c-12.6,0.2-32.3-0.7-48.4-1.6C20.2,32,45,31.2,45,31.2
							c-82.5-7-4.5,5.3,27.2,5.3h81.2c62.9,0,124.1-2,124.1-2l3.8-0.5l37.4-4.3c0,0-12.9,0.2-28.1,1.7
							C287,31.9,283.3,32.3,279.5,32.8z"/>
						<path class="st6" d="M319.5,34.2c-8,2.5-52.4,1.1-70.1,0.7c-10.9-0.2-113.1,2.7-127.3,2.6c-0.8,0-91.7-6.8-130.8-6.5
							c-50,0.7,41.5,2.8,75.2,6.5s82.3,1.8,117.8,1s81.3-3.2,104-1S327.5,31.7,319.5,34.2z"/>
						<path class="st6" d="M100.6,40.8"/>
						<path class="st6" d="M434.8,18.7c-4.4,0-11,0.9-18.6,2.1C437.3,18.7,446.3,18.7,434.8,18.7z"/>
						<path class="st4" d="M60.2,36.5c15.9,1.8,15.8-0.2-69-5.1c-63.3,2.5,132.1,9.1,110,9.5h-0.6c6.9-0.1,210.8-3.7,234.8-5.2
							c17.4-1.1,55.3-10.5,80.8-14.8c-14.4,1.5-34.4,3.9-57.4,8C302.2,39.1,80.7,38.8,60.2,36.5z"/>
						<path class="st6" d="M105,61.4h-0.2C103.9,61.4,104,61.4,105,61.4z"/>
						<path class="st6" d="M-4.9,62.4c0,0,49.2,0.8,68.8-0.4c3.2-0.2,11.5-0.4,23.2-0.5C44.1,61.4-52.2,61.1-4.9,62.4z"/>
						<path class="st6" d="M87.2,61.5c14.5,0,23,0,17.9-0.1c-1,0-1.1,0-0.2,0h0.2c14.5,0.3,214.5,4.6,234.1,5.4
							c0.9,0,1.9,0.1,2.9,0.1C277.1,61.5,142.7,60.9,87.2,61.5z"/>
						<path class="st6" d="M342.1,66.9c8.1,0.7,15.1,1.4,20.7,2.3c47.3,7,95.7,4.6,76.3,4.3C420.5,73.2,366.3,68.1,342.1,66.9z"/>
						<path class="st6" d="M333,62.6c-55.3-3.5-149.8-4.6-211.2-4.8C169.6,58.8,300.1,61.7,333,62.6z"/>
						<path class="st6" d="M-5,58.4c0,0,49.1,0.3,68.8-0.4c5.8-0.2,28-0.4,58-0.2c-8.8-0.2-14.8-0.3-16.8-0.4
							C125.1,57.8-68.2,56.6-5,58.4z"/>
						<path class="st6" d="M104.9,57.4c-0.1,0-0.2,0-0.3,0C103.8,57.4,103.9,57.4,104.9,57.4z"/>
						<path class="st6" d="M339,62.7c-1.3,0-3.3-0.1-6.1-0.2c12,0.8,22.1,1.6,29.7,2.6c47.6,6.1,95.7,4.6,76.3,4.3
							S361.6,63.6,339,62.7z"/>
						<path class="st6" d="M-12.8,56.1l-19.6,1.6c-63,2.4,165.3-5.6,351,5.3c98.7,5.8,225.3,18,110.5,4.9S-1,55.5-12.8,56.1z"/>
						<path class="st6" d="M256.6,82.6C267.1,86.2,265.9,85.4,256.6,82.6z"/>
						<path class="st6" d="M33.2,63.7c-152.5,7.2,93.2-6.8,173.9,7.6c16.7,2.9,33.2,6.7,49.5,11.3c-3.9-1.3-9.4-3.2-16.6-5.9
							C194.9,60.3,33.2,63.7,33.2,63.7z"/>
						<path class="st6" d="M521.6,30.2c-37.8-9-127.1,11.4-258.6,23.1c-94.2,8.4,31-0.5,59.1-3.9c16.5-2,88.6-13.1,146.2-16.7
							c41.1-2.6,43.4,1.6,55.4,4.2C552.4,43.3,571.7,42.1,521.6,30.2z"/>
						<path class="st6" d="M456.3,36.4c-70.7,8-173.5,15.1-170.3,19.1s102.5,0.9,132.8,4.1s86.1,5.6,106.5,13s7.5-3.8-62.5-10.7
							c-43.5-4.3-132.2-5-149.2-5.2c-16.3-0.2-53.1-1,43.4-10c56.3-5.2,89.3-8.2,96.5-9.1c3.1-0.4,9.3-1.6,17.6-2.6
							c-1.9,0.1-3.6,0.2-5.5,0.5C462.5,35.7,459.5,36.1,456.3,36.4z"/>
						<path class="st6" d="M472.9,34.4c16.8,0.8,64.6,3.8,84.6,13.2c2.6,1.2,4.9,2.3,7,3.3c-4.8-2.6-9.3-5.5-13.6-8.9
							C550.9,42.1,509.1,34.9,472.9,34.4z"/>
						<path class="st6" d="M471.1,35c11.4-0.9-6.9-0.7,1.8-0.6C461.2,33.9,479.2,34.1,471.1,35z"/>
						<path class="st6" d="M418.7,46c49.4-4.3,83.1-11,110.3-3s31.2,12.1,22,5.7c0,0-6.8-5-23.7-8.2c-12.2-2.2-29.8-3.5-53.9-1.1
							c-57.4,5.7-165.9,14-167.5,15.2s66.3,2.3,109.4,2.5s98.2,7.3,111.9,12.3s13.4-1.7-15.3-7s-153.6-6.7-157.4-7.8
							S369.4,50.4,418.7,46z"/>
						<path class="st6" d="M418.8,46.4c49.4-4.3,83.1-11,110.3-3s31.2,12.1,22,5.7c0,0-6.8-5-23.7-8.2c-12.2-2.3-29.8-3.5-53.9-1.1
							C416,45.5,307.5,53.8,306,55s66.3,2.3,109.4,2.6s98.2,7.2,111.9,12.2s13.4-1.7-15.3-7S358.2,56.1,354.4,55
							S369.4,50.7,418.8,46.4z"/>
						<path class="st6" d="M453.6,47.3c11.6-0.3,22.8-1.5,34.5-1.4c1.9,0,6.1-0.1,7.2,1c-1.3,0.7-3.2,0.7-4.8,0.7
							c-5.8,0-11.6,0.1-17.4,0.1c-2.3,0-4.8,0-6.7,0.9l8.8,1.6c2.4,0.5,4.8,0.8,7.2,0.8c2.5,0,3.7-0.8,5.8-1.4
							c4.8-1.2,11.3-1.3,16.5-1.2c11.2,0.3,22.3,1.7,33.2,4.2c2.5,0.7,5.1,1,7.7,1c0.4,0,0.9-0.1,1.3-0.3c0.4-0.3,0.2-0.8-0.2-1.1
							c-1.8-1.1-6.7-1.6-9.1-2.1c-3.5-0.8-6.9-1.5-10.5-2.1c-8.7-1.6-17.6-2.6-26.4-3.2c-6.5-0.4-13.4-0.6-20.6-0.4
							c-30.6,0.6-98.3,7.1-83.7,8.2s155.1,6.8,155.1,6.8c-22.7-11.3-106.1-4.5-111.5-8.9C436.5,47.4,451.5,47.4,453.6,47.3z"/>
						<path class="st6" d="M453.7,48c11.6-0.3,22.8-1.5,34.5-1.4c1.9,0,6.1-0.1,7.2,1c-1.3,0.7-3.2,0.7-4.8,0.7l-17.4,0.1
							c-2.3,0-4.8,0.1-6.7,0.9l8.8,1.6c2.4,0.5,4.8,0.8,7.2,0.8c2.5,0,3.7-0.8,5.8-1.4c4.8-1.2,11.3-1.3,16.5-1.2
							c11.2,0.3,22.3,1.7,33.2,4.2c2.5,0.7,5.1,1,7.7,1.1c0.4,0,0.9-0.1,1.3-0.3c0.5-0.3,0.3-0.8-0.2-1.1c-1.8-1.1-6.7-1.6-9.1-2.2
							c-3.5-0.8-6.9-1.5-10.4-2.1c-8.7-1.5-17.6-2.6-26.4-3.2c-6.5-0.4-13.3-0.6-20.6-0.4c-30.7,0.6-98.3,7-83.7,8.2
							s155.1,6.8,155.1,6.8c-22.7-11.3-106.1-4.5-111.5-8.8C436.5,48.1,451.5,48.1,453.7,48z"/>
						<path class="st6" d="M118.6,59.2c-31.5-1-107.8-2.8-122.3-0.6c-2.7,0.4-5.4,0.6-8.1,0.5c-5.8,16,15,11.8,14.4,11.1
							s-8.5-3.1-9.3-4.4c-1.1-1.8-0.3-4,1.3-5.4s31.8-0.9,48.5-1.2C59,59,131,59.6,118.6,59.2z"/>
						<path class="st6" d="M25,45.2c-33.5,0.5-36,0.9-36,0.9c-1.3,0.4,0.1,1.8,0.1,1.8c1.8-0.8,24.4-0.5,34.5-1.2s44.4-0.9,40.7-1.2
							S31.1,45.1,25,45.2z"/>
					</g>
					<path class="st6" d="M203-10.4c-34.8-3.9-129.1-14.4-146.2-15C37-26,138.7-16.3,212.9-7.5C282.7,0.7,415.5-1,459.2,0
						c44.7,1,229,2.8,172.1-1.2C599.8-3.4,258.6-4.2,203-10.4z"/>
					<path class="st6" d="M203.5-17.3c-34.5-2.9-128.6-9.9-145.5-10.4s88.7,6.8,155.3,12.1c69.6,5.6,201.4,7.1,244.9,8.3
						c44.4,1.2,228.3,2.4,171.3,1.1C597.1-7,255.6-13,203.5-17.3z"/>
					<path class="st6" d="M203.4-14.7c-34.5-2.9-128.6-9.9-145.5-10.4s88.7,6.8,155.4,12.1C282.8-7.4,414.6-5.9,458-4.7
						c44.5,1.2,228.3,2.4,171.3,1.1C597-4.2,255.5-10.3,203.4-14.7z"/>
					<path class="st6" d="M615.7-27c0,0-15.3,1.1-34.7,2.2c-21.1,1.2-47,2.4-63.5,2.1c-31.7-0.4-232.2,1.3-257.5-2.2
						c-4.9-0.7-9.8-1.2-14.5-1.7c-19.9-2-36.8-2.2-36.8-2.2l49.1,5.6l5,0.6c0,0,80.4,2.6,163,2.6h106.6
						C573.8-20.1,724-36.2,615.7-27z"/>
					<path class="st6" d="M638.5-27.3c-3.6,0-123.1,8.1-171.8,8.5c-18.7,0.1-152.8-3.7-167.1-3.4c-23.3,0.5-81.6,2.3-92.1-0.9
						s11.3,7.1,41.2,4.2c29.8-2.9,90,0.2,136.5,1.3c18.4,0.4,82.3,6.6,154.6-1.2C584-23.5,704-26.3,638.5-27.3z"/>
					<path class="st6" d="M466-13.9"/>
					<path class="st6" d="M80.5-40.5c-10-1.7-18.6-2.8-24.4-2.8C40.9-43.3,52.8-43.3,80.5-40.5z"/>
					<path class="st6" d="M638.5-26.8c0,0-63.7,3.6-90.6,6.7S230.2-16.7,155.8-30c-30.1-5.4-56.4-8.6-75.3-10.5
						c33.4,5.6,83.2,17.9,106.1,19.3c30.9,1.9,261.1,6.9,279.2,7.2C436.7-14.4,721.6-23.4,638.5-26.8z"/>
					<path class="st6" d="M461.1,13h-0.3C462.1,12.9,462.3,12.9,461.1,13z"/>
					<path class="st4" d="M150.6,22.7c7.4-1.1,16.6-2.1,27.2-3c-31.9,1.5-103,8.1-127.4,8.5C24.9,28.7,88.5,31.8,150.6,22.7z"/>
					<path class="st6" d="M177.8,19.7c1.3,0,2.7-0.1,3.8-0.2c25.8-1,260.1-6.1,279.2-6.5h0.3c1.2,0,1,0-0.3,0
						c-6.7,0.1,4.4,0.2,23.5,0.1C411.4,12.3,263,12.6,177.8,19.7z"/>
					<path class="st6" d="M484.3,13.1c15.5,0.2,26.3,0.4,30.5,0.7c25.8,1.6,118.6,0,118.6,0C695.4,12.1,540.8,13,484.3,13.1z"/>
					<path class="st6" d="M467.1,7.7C386.4,8,262.3,9.5,189.7,14.1C232.8,12.9,404.4,9.1,467.1,7.7z"/>
					<path class="st6" d="M50.5,23c-25.4,0.4,37.8,2.5,100.2-5.6c9.9-1.3,23.2-2.4,38.9-3.4c-3.5,0.1-6.2,0.2-7.9,0.2
						C152.1,15.4,75.9,22.6,50.5,23z"/>
					<path class="st6" d="M461.3,7.7c-0.1,0-0.2,0-0.3,0C462.3,7.7,462.5,7.7,461.3,7.7z"/>
					<path class="st6" d="M461,7.7c-2.8,0.1,17.6-0.3,6.2,0c39.4-0.1,40.2,0.5,47.8,0.8c25.9,0.9,118.6,0,118.6,0
						C716.5,6.3,434.5,8.3,461,7.7z"/>
					<path class="st4" d="M643.8,5.6C600,3.3,186.2,7.1,63.6,21.1c-114.6,13,51.9-0.9,145.1-6.4C424.2,2.1,724,9.8,669.6,7.7
						L643.8,5.6z"/>
					<path class="st6" d="M-95-28.9c-65.8,15.5-40.5,17.1-2.8,8.8c15.7-3.5,55.8-8.3,109.8-5C87.7-20.4,182.5-5.8,204-3.2
						c37,4.5,201.3,16,77.6,5.1C109-13.4-45.4-40.6-95-28.9z"/>
					<path class="st6" d="M27.8-20.1c-4.2-0.5-8.2-0.9-12.1-1.2c-2.9-0.3-5.7-0.5-8.4-0.7c11.4,1.3,20,3,24.2,3.6
						c9.4,1.2,52.7,5,126.7,11.9c126.7,11.8,78.4,12.7,57,13.1C192.9,6.8,76.4,7.7,19.2,13.3c-55.8,5.5-70.2,9.7-82,14
						c61.2-22,135-16.5,139.9-17c39.9-4.2,170.2-0.2,174.4-5.4S120.7-9.6,27.8-20.1z"/>
					<path class="st6" d="M-30.2-23.4c10.9-0.1,23.4,0.2,37.5,1.3C-5.2-23.5-17.7-23.9-30.2-23.4z"/>
					<path class="st6" d="M-65.5-14.8C-87.7-10.7-96.6-4.1-96.6-4.1c-12,8.4-6.8,3,28.9-7.4s79.9-1.7,144.8,3.9s89.5,9.6,84.4,11.1
						C192-5.7,28.2,0.2-45.3,13.8c-37.7,7-38,15.7-20.1,9.2C-13,3.9,61.3,7.1,81.5,7c56.6-0.4,145.7-1.8,143.6-3.3
						S80.7-8.8,5.3-16.3C-26.4-19.4-49.5-17.7-65.5-14.8z"/>
					<path class="st6" d="M-65.5-14.3C-87.7-10.1-96.7-3.6-96.7-3.6c-12,8.4-6.8,3.1,28.9-7.4s79.9-1.7,144.8,3.9
						s89.4,9.6,84.4,11.2C192.1-5,28.2,0.7-45.3,14.3c-37.7,7-38,15.7-20.1,9.2C-13,4.4,61.3,7.6,81.5,7.5
						c56.6-0.4,145.7-1.8,143.6-3.3S80.7-8.3,5.3-15.8C-26.4-18.9-49.5-17.3-65.5-14.3z"/>
					<path class="st6" d="M-3.4-9.7C-13-9.9-22-9.7-30.5-9.1C-42.2-8.4-53.7-7-65.2-5c-4.6,0.8-9.2,1.7-13.7,2.7
						c-3.1,0.7-9.6,1.4-11.9,2.8c-0.6,0.4-0.9,1.1-0.3,1.4c0.5,0.3,1.1,0.4,1.7,0.4c3.4-0.1,6.8-0.5,10.1-1.4
						c14-3,28.7-5.3,43.6-5.4c6.8-0.1,15.4,0,21.6,1.6c2.7,0.7,40.7,1.7,43.9,1.8c3.2,0,6.4-0.4,9.5-1.1l11.5-2.1
						C48.3-5.4,8.7-5.4,5.6-5.5C-2-5.5-9.6-5.6-17.2-5.6c-2.1,0-4.7,0-6.3-0.9c1.4-1.4,7-1.2,9.5-1.2C1.4-7.9,16.1-6.3,31.3-5.9
						c2.8,0.1,22.5,0.1,18,4.2c24.9-20.1-84-19.5-146.5,11.6C123.6,1,123.7-0.4,106.4,1C125.6-0.5,36.8-8.9-3.4-9.7z"/>
					<path class="st6" d="M-3.5-8.8C-13-9-22.1-8.8-30.5-8.2c-11.6,0.7-23.2,2.1-34.7,4.1c-4.6,0.8-9.2,1.7-13.7,2.7
						c-3.1,0.7-9.6,1.4-11.9,2.8c-0.6,0.4-0.9,1.1-0.3,1.4c0.5,0.3,1.1,0.4,1.7,0.3c3.4,0,6.8-0.5,10.1-1.4
						c14.1-3,28.7-5.3,43.6-5.4c6.8,0,15.3,0,21.6,1.6c2.7,0.7,40.7,1.7,44,1.8c3.2,0,6.4-0.4,9.5-1.1l11.5-2.1
						C48.3-4.5,45-4.6,42-4.6C34.4-4.6-9.6-4.7-17.2-4.8c-2.1,0-4.6,0-6.3-0.9c1.4-1.4,7-1.2,9.5-1.2C1.3-7,16-5.5,31.2-5
						c2.8,0.1,22.5,0.1,18,4.2c25-20-83.9-19.5-146.4,11.6C123.7,1.9,123.7,0.5,106.5,1.9C125.6,0.4,36.8-8-3.5-8.8z"/>
					<path class="st6" d="M632.6,8.1c-49.9-0.7-148.6-1-161.7-0.5c-44.6,1.3,51.4-0.7,100.4,0.2c21.9,0.4,61,0.7,63.6,2.1
						c2.2,1.2,3.4,2.4,3.4,7.4c0,7.2-14.1,5.6-14.8,6.7s26.5,6.5,18.9-14.4C642.4,9.5,644.1,8.2,632.6,8.1z"/>
					<g class="st7">
						<path class="st6" d="M203-9.8C168.2-13.7,73.9-24.2,56.8-24.7c-19.9-0.6,81.8,9.1,156,17.8c69.9,8.2,202.7,6.5,246.4,7.5
							c44.7,1,229,2.8,172.1-1.2C599.8-2.9,258.6-3.5,203-9.8z"/>
						<path class="st6" d="M203.4-16.7C168.9-19.6,74.9-26.6,57.9-27s88.7,6.8,155.3,12.1c69.6,5.6,201.4,7.1,244.8,8.3
							c44.5,1.2,228.3,2.4,171.3,1.1C597.1-6.1,255.5-12.3,203.4-16.7z"/>
						<path class="st6" d="M203.3-14.1C168.8-17,74.8-24,57.8-24.4s88.7,6.8,155.4,12.1C282.7-6.7,414.5-5.2,458-4
							c44.5,1.2,228.3,2.4,171.2,1.1C597-3.7,255.5-9.7,203.3-14.1z"/>
						<path class="st6" d="M615.7-26.4c0,0-15.3,1.1-34.7,2.2c-21.1,1.2-47,2.4-63.5,2.2c-31.7-0.4-232.2,1.3-257.5-2.2
							c-4.9-0.7-9.8-1.2-14.5-1.7c-19.9-1.9-36.9-2.2-36.9-2.2l49.1,5.6l5,0.6c0,0,80.4,2.6,163,2.6h106.6
							C573.8-19.4,724-35.5,615.7-26.4z"/>
						<path class="st6" d="M638.4-26.6c-3.6-0.1-123.1,8.1-171.8,8.5c-18.7,0.1-152.8-3.7-167.1-3.4c-23.3,0.5-81.6,2.3-92.1-0.9
							s11.3,7.1,41.2,4.2c29.8-2.9,90,0.2,136.5,1.3c18.3,0.4,82.2,6.6,154.6-1.2C583.9-22.9,704-25.7,638.4-26.6z"/>
						<path class="st6" d="M465.9-13.3"/>
						<path class="st6" d="M80.5-39.8c-10-1.7-18.6-2.8-24.5-2.8C40.9-42.6,52.8-42.6,80.5-39.8z"/>
						<path class="st6" d="M638.4-26.1c0,0-63.6,3.7-90.5,6.7s-317.7,3.4-392.1-9.9c-30.1-5.4-56.4-8.6-75.3-10.5
							c33.4,5.6,83.2,17.9,106.1,19.3c30.9,1.9,261.1,6.9,279.2,7.2C436.7-13.8,721.6-22.8,638.4-26.1z"/>
						<path class="st4" d="M150.5,23.3c7.4-1.1,16.6-2.1,27.2-3c-31.9,1.5-103,8.2-127.4,8.5C24.9,29.3,88.4,32.5,150.5,23.3z"/>
						<path class="st6" d="M461.1,13.6h-0.3C462.1,13.6,462.3,13.6,461.1,13.6z"/>
						<path class="st4" d="M177.7,20.4c1.3-0.1,2.7-0.1,3.9-0.2c25.8-1,260.1-6.1,279.2-6.6h0.3c1.2,0,1,0-0.3,0
							c-6.7,0.1,4.4,0.1,23.5,0.1C411.4,13,263,13.2,177.7,20.4z"/>
						<path class="st6" d="M484.2,13.7c15.5,0.2,26.2,0.4,30.5,0.6c25.8,1.6,118.6,0.1,118.6,0.1C695.4,12.7,540.8,13.7,484.2,13.7z
							"/>
						<path class="st6" d="M467.1,8.4c-80.7,0.2-204.9,1.8-277.5,6.3C232.7,13.5,404.4,9.7,467.1,8.4z"/>
						<path class="st6" d="M50.5,23.7c-25.4,0.4,37.8,2.5,100.2-5.6c9.9-1.3,23.2-2.4,39-3.4c-3.5,0.1-6.2,0.2-7.9,0.2
							C152.1,16.1,75.9,23.2,50.5,23.7z"/>
						<path class="st6" d="M461.3,8.4h-0.3C462.3,8.4,462.4,8.4,461.3,8.4z"/>
						<path class="st6" d="M460.9,8.4c-2.8,0.1,17.7-0.2,6.2,0c39.4-0.1,40.2,0.5,47.8,0.8c25.9,0.9,118.6,0,118.6,0
							C716.5,6.9,434.5,9,460.9,8.4z"/>
						<path class="st6" d="M643.7,6.3C600,4,186.2,7.7,63.6,21.7c-114.6,13,51.8-0.9,145.1-6.4C424.2,2.8,724,10.5,669.5,8.4
							L643.7,6.3z"/>
						<path class="st6" d="M-95.1-28.2c-65.8,15.5-40.5,17.1-2.8,8.8c15.8-3.5,55.8-8.3,109.8-5C87.7-19.7,182.5-5.2,204-2.6
							c37,4.4,201.3,16,77.6,5.1C109-12.7-45.4-39.9-95.1-28.2z"/>
						<path class="st6" d="M-30.3-22.8c10.9-0.1,23.4,0.2,37.5,1.3C-5.2-22.9-17.7-23.3-30.3-22.8z"/>
						<path class="st4" d="M27.8-19.5c-4.2-0.5-8.2-0.9-12.1-1.2c-2.9-0.3-5.6-0.5-8.4-0.7c11.4,1.3,19.9,3,24.2,3.6
							c9.4,1.2,52.7,5,126.7,11.9c126.7,11.7,78.4,12.7,57,13.1C192.9,7.4,76.3,8.3,19.2,13.9c-55.7,5.5-70.2,9.7-82,14
							c61.2-22,135-16.5,139.9-17c39.9-4.2,170.2-0.2,174.4-5.4S120.6-9,27.8-19.5z"/>
						<path class="st6" d="M-65.5-14.1C-87.7-10-96.7-3.4-96.7-3.4c-12,8.4-6.8,3,29-7.4s79.9-1.7,144.8,3.9s89.4,9.6,84.4,11.1
							C192-5.1,28.2,0.9-45.3,14.5c-37.7,7-38,15.7-20.1,9.1C-13,4.5,61.3,7.7,81.5,7.6c56.6-0.3,145.7-1.8,143.6-3.3
							S80.6-8.2,5.3-15.6C-26.4-18.7-49.5-17.1-65.5-14.1z"/>
						<path class="st4" d="M-65.6-13.6C-87.8-9.5-96.7-2.9-96.7-2.9c-12,8.4-6.8,3,28.9-7.4S12.2-12.1,77-6.4s89.5,9.6,84.4,11.1
							C192-4.6,28.2,1.4-45.3,15c-37.7,7-38,15.7-20.1,9.1C-13.1,5,61.3,8.2,81.5,8.1c56.6-0.4,145.7-1.8,143.6-3.4
							S80.6-7.7,5.2-15.1C-26.4-18.3-49.5-16.6-65.6-13.6z"/>
						<path class="st6" d="M-3.5-9.1C-13-9.3-22.1-9-30.5-8.5c-11.6,0.7-23.2,2.1-34.7,4.1c-4.6,0.8-9.2,1.7-13.7,2.7
							c-3.1,0.7-9.6,1.4-11.9,2.8c-0.6,0.4-0.9,1.1-0.3,1.4c0.5,0.3,1.1,0.4,1.7,0.3c3.4,0,6.8-0.5,10.1-1.4c14-3,28.7-5.3,43.6-5.4
							c6.8-0.1,15.3,0,21.6,1.6c2.7,0.7,40.7,1.7,43.9,1.8c3.2,0,6.4-0.4,9.5-1.1c3.8-0.7,7.7-1.4,11.5-2.1
							C48.3-4.7,8.7-4.8,5.6-4.8C-2-4.9-9.6-4.9-17.2-4.9c-2.1,0-4.7,0-6.3-0.9c1.4-1.4,7-1.2,9.5-1.2C1.3-7.2,16.1-5.7,31.3-5.2
							c2.8,0.1,22.5,0.1,18,4.2c24.9-20-84-19.5-146.5,11.6C123.6,1.7,123.7,0.3,106.4,1.6C125.6,0.2,36.8-8.3-3.5-9.1z"/>
						<path class="st6" d="M-3.5-8.2c-9.6-0.2-18.6,0.1-27.1,0.6c-11.6,0.8-23.2,2.1-34.7,4.1c-4.6,0.8-9.2,1.7-13.7,2.7
							c-3.1,0.7-9.6,1.4-11.9,2.8c-0.6,0.4-0.9,1-0.3,1.4c0.5,0.2,1.1,0.4,1.7,0.3c3.4-0.1,6.8-0.5,10.1-1.4c14-3,28.7-5.3,43.6-5.4
							c6.8-0.1,15.3,0,21.6,1.6c2.7,0.8,40.7,1.8,44,1.8c3.2,0,6.4-0.3,9.5-1c3.8-0.7,7.7-1.4,11.5-2.1c-2.4-1.1-5.7-1.2-8.8-1.2
							C34.4-3.9-9.6-4-17.2-4c-2.1,0-4.6,0-6.3-0.9c1.4-1.4,7-1.2,9.5-1.2C1.4-6.3,16.1-4.7,31.3-4.3c2.8,0.1,22.5,0.1,18,4.2
							c24.9-20.1-84-19.5-146.5,11.6C123.6,2.6,123.7,1.2,106.5,2.6C125.6,1,36.8-7.4-3.5-8.2z"/>
						<path class="st6" d="M631.8,9.5c-47-7-147.4,0.4-160.5,0.8c-44.6,1.3,50-0.8,99,0c21.9,0.4,61.7-0.2,63.7,1.5s3.2,4.7,1.7,7
							c-1.1,1.7-11.5,4.7-12.2,5.8s26.5,6.5,18.9-14.5C638.8,10.2,635.3,10,631.8,9.5z"/>
					</g>
				</g>
			</g>
		</g>
	</g>
</g>
</svg>
