<svg xmlns="http://www.w3.org/2000/svg" viewBox="0 0 512 512"><defs><style>.cls-1{fill:#ffd800;}.cls-2{fill:#fc0;}.cls-3{fill:#fff;}</style></defs><g id="Layer_13" data-name="Layer 13"><path class="cls-1" d="M278.11,303.43c-2.19,1.56-13.25-8.15-15.94-8.18s-13.94,9.45-16.09,7.85,3.65-15.12,2.85-17.68-13.3-10.34-12.44-12.89,15.51-1.19,17.7-2.75,5.72-15.84,8.41-15.81,5.93,14.38,8.08,16,16.84.55,17.64,3.12-11.84,10.08-12.7,12.62S280.3,301.87,278.11,303.43Z"/><path class="cls-2" d="M275.55,270.87c-1.25,13.5-13.57,24.22-28.92,25.06-.91,3.41-1.51,6.46-.56,7.17,2.16,1.6,13.42-7.87,16.1-7.85s13.75,9.74,15.94,8.18-3.35-15.19-2.49-17.74,13.5-10.06,12.7-12.62C287.77,271.3,280.64,271.25,275.55,270.87Z"/><path class="cls-3" d="M262.3,255a.27.27,0,0,0-.23.16c-.46,1-.9,2-1.32,3-1.27,3-2.38,6.14-3.55,9.21a7.28,7.28,0,0,1-1.51,2.72,5,5,0,0,1-2.33,1.2,14.55,14.55,0,0,1-2.74.3c-2.66.14-5.31.27-8,.33a14.05,14.05,0,0,0-3.52.37,7.16,7.16,0,0,0-1.68.72.27.27,0,0,0-.14.24.29.29,0,0,0,.14.25.31.31,0,0,0,.28,0,6.86,6.86,0,0,1,1.55-.67,13.43,13.43,0,0,1,3.38-.34c2.67-.07,5.32-.2,8-.33a16.15,16.15,0,0,0,2.84-.32,5.33,5.33,0,0,0,2.6-1.34,7.76,7.76,0,0,0,1.64-2.93c1.17-3.07,2.28-6.16,3.54-9.19.42-1,.86-2,1.31-3a.27.27,0,0,0-.27-.39Z"/></g></svg>