<svg id="bdb44cfc-c14d-413b-b01b-df4bf8bb9516" data-name="Layer 1" xmlns="http://www.w3.org/2000/svg" width="63" height="71" viewBox="0 0 63 71">
  <defs>
    <style>
      .b1c8acda-b447-4073-af0c-3e7e71cff6b4 {
        fill: #875f29;
        stroke: #63410f;
        stroke-width: 0.75px;
      }

      .b1c8acda-b447-4073-af0c-3e7e71cff6b4, .f2b8bd03-0e48-4f81-adb7-ce327ba3d720 {
        stroke-miterlimit: 10;
      }

      .f2b8bd03-0e48-4f81-adb7-ce327ba3d720 {
        fill: #ffb600;
        stroke: #9b6312;
      }

      .bc861796-6993-4f86-ac2f-272ccc1572cf {
        fill: #f1ac1d;
      }

      .b885330f-3633-4c2c-92d5-f048eaa937cb {
        opacity: 0.15;
      }

      .b8501bac-c111-4382-a515-688ec10d9a77 {
        fill: #fcd766;
        opacity: 0.7;
      }
    </style>
  </defs>
  <g>
    <path class="b1c8acda-b447-4073-af0c-3e7e71cff6b4" d="M45.34,13.56s2.07-2.47,3.31-8l2.8-.08a36.87,36.87,0,0,1-4.62,9Z"/>
    <path class="f2b8bd03-0e48-4f81-adb7-ce327ba3d720" d="M39.3,11.43c-15.79.33-24.36,9.86-26.65,21.85C9.43,50.18.94,53.45,7.21,60.66c7.66,8.8,38.93,7.73,49.57-21.72C60.84,27.69,55.09,11.11,39.3,11.43Z"/>
    <g>
      <path class="bc861796-6993-4f86-ac2f-272ccc1572cf" d="M39.17,15.76v.13a.74.74,0,0,0,1.48.1v-.12A.74.74,0,0,0,39.17,15.76Z"/>
      <path class="bc861796-6993-4f86-ac2f-272ccc1572cf" d="M46.91,14.91V15a.74.74,0,0,0,1.48.1V15A.74.74,0,0,0,46.91,14.91Z"/>
      <path class="bc861796-6993-4f86-ac2f-272ccc1572cf" d="M43.63,14.75H43.5a.37.37,0,0,0,0,.74h.12A.37.37,0,0,0,43.63,14.75Z"/>
      <path class="bc861796-6993-4f86-ac2f-272ccc1572cf" d="M40.19,12.61h-.12a.37.37,0,0,0,0,.74h.12A.37.37,0,0,0,40.19,12.61Z"/>
      <path class="bc861796-6993-4f86-ac2f-272ccc1572cf" d="M47.08,17.83V18a.37.37,0,0,0,.74.05v-.12A.37.37,0,0,0,47.08,17.83Z"/>
      <path class="bc861796-6993-4f86-ac2f-272ccc1572cf" d="M44.46,16.55v.12a.37.37,0,0,0,.74,0V16.6A.37.37,0,0,0,44.46,16.55Z"/>
      <path class="bc861796-6993-4f86-ac2f-272ccc1572cf" d="M50.21,16.91a.37.37,0,0,0-.05.73A.37.37,0,0,0,50.21,16.91Z"/>
      <path class="bc861796-6993-4f86-ac2f-272ccc1572cf" d="M36.76,13.12a.37.37,0,0,0,0,.74A.37.37,0,0,0,36.76,13.12Z"/>
      <path class="bc861796-6993-4f86-ac2f-272ccc1572cf" d="M33.5,16.58a.37.37,0,0,0,0,.73A.37.37,0,0,0,33.5,16.58Z"/>
    </g>
    <g>
      <path class="bc861796-6993-4f86-ac2f-272ccc1572cf" d="M26.82,59.53l-.12,0A.74.74,0,0,0,27.23,61l.11,0A.74.74,0,0,0,26.82,59.53Z"/>
      <path class="bc861796-6993-4f86-ac2f-272ccc1572cf" d="M24.13,57.65l-.11,0a.37.37,0,0,0,.26.69l.11,0A.37.37,0,0,0,24.13,57.65Z"/>
      <path class="bc861796-6993-4f86-ac2f-272ccc1572cf" d="M24.7,60.33l-.12,0a.37.37,0,0,0,.27.69L25,61A.37.37,0,0,0,24.7,60.33Z"/>
      <path class="bc861796-6993-4f86-ac2f-272ccc1572cf" d="M29.55,60.53l-.11,0a.37.37,0,0,0,.26.69l.12-.05A.37.37,0,0,0,29.55,60.53Z"/>
      <path class="bc861796-6993-4f86-ac2f-272ccc1572cf" d="M26.53,56.74a.37.37,0,0,0,.26.69A.37.37,0,0,0,26.53,56.74Z"/>
      <path class="bc861796-6993-4f86-ac2f-272ccc1572cf" d="M25.9,62.31l-.12,0a.37.37,0,0,0,.26.69l.12,0A.37.37,0,0,0,25.9,62.31Z"/>
      <path class="bc861796-6993-4f86-ac2f-272ccc1572cf" d="M38.11,53.67a.37.37,0,0,0,.27.69A.37.37,0,0,0,38.11,53.67Z"/>
      <path class="bc861796-6993-4f86-ac2f-272ccc1572cf" d="M41.07,52.55,41,52.6a.37.37,0,0,0,.26.69l.12,0A.37.37,0,0,0,41.07,52.55Z"/>
      <path class="bc861796-6993-4f86-ac2f-272ccc1572cf" d="M42,48.25l-.11,0a.37.37,0,0,0,.26.69l.11,0A.37.37,0,0,0,42,48.25Z"/>
    </g>
    <path class="b885330f-3633-4c2c-92d5-f048eaa937cb" d="M53.45,35.32C42.81,64.77,13.84,64.5,6.19,55.7l-.82-.82c-.29,2,.5,3.47,2.44,5.71,7.66,8.8,38.31,7.33,48.9-22.82,2-5.58.81-13.86-3.26-19.56C54.24,22.26,54.78,31.63,53.45,35.32Z"/>
    <ellipse class="b8501bac-c111-4382-a515-688ec10d9a77" cx="25.12" cy="23.44" rx="8.4" ry="3.58" transform="translate(-9.1 26.45) rotate(-48.05)"/>
    <ellipse class="b8501bac-c111-4382-a515-688ec10d9a77" cx="17.31" cy="34.23" rx="2.68" ry="1.78" transform="translate(-20.72 29.25) rotate(-55.72)"/>
  </g>
</svg>
