<svg id="b45e2835-b8d5-4ad9-b129-64134fffeb62" data-name="Layer 1" xmlns="http://www.w3.org/2000/svg" width="66" height="72" viewBox="0 0 66 72">
  <defs>
    <style>
      .a319c2bc-8939-4471-ba28-bb83db128cd3 {
        fill: #ff002c;
        stroke: #bc0029;
      }

      .a319c2bc-8939-4471-ba28-bb83db128cd3, .baff6f93-9a9a-4dde-a704-231ca8c934c2 {
        stroke-miterlimit: 10;
      }

      .ba26d754-5e26-4b96-a6d9-ad7fcd3e3801 {
        fill: #db0331;
      }

      .baff6f93-9a9a-4dde-a704-231ca8c934c2 {
        fill: #f86e20;
        stroke: #930;
      }

      .a22e412b-cbcd-4aeb-857d-a7216b7044d8 {
        fill: #b50041;
      }

      .b109bb82-4e13-4ba2-bd11-037cc74ce056 {
        fill: #ff4160;
      }
    </style>
  </defs>
  <g>
    <path class="a319c2bc-8939-4471-ba28-bb83db128cd3" d="M33.38,17.2c.9.11,1.81.18,2.72.22,3.54.11,7.1-.92,10.62-1.1,9-.46,15.78,11.09,14.93,19.15-1.08,10.33-5,20.91-12.87,28,0,0-6.12,5.47-11.29,3a5.66,5.66,0,0,0-5.32.27s-4.81,3.06-10.58-1.4C12.36,58.11,3.47,44,4.33,31.83,5,22.43,14.94,16.62,23.62,16.28,26.92,16.15,30.13,16.83,33.38,17.2Z"/>
    <path class="ba26d754-5e26-4b96-a6d9-ad7fcd3e3801" d="M46.16,19.24c-2.34-.17-9.13,1.54-9.26,1.56-.29,0-2.66.47-2.83.24-.5-.69,1.75-2.05,2.53-2.39a39.82,39.82,0,0,1,5.95-1.76A19.66,19.66,0,0,1,49,17c5.69,1.1,10.13,6.62,11.48,12.25s.4,10.68-1.29,16.22c-1.78,5.82-4.33,11.54-8.5,16-3.2,3.4-7.91,6-12.47,5-1.32-.3-2.68-.9-4-.76s-2.22,1-3.39,1.46c-.93.41-3.69.79-3.78-.41-.17-2.2,5.21-3.09,7.8-3.22,1.32-.06,2.65.23,4,.13,3.14-.24,5.67-2.64,7.55-5.15,4.44-6,6.74-13.29,7.63-20.66.62-5.13.48-10.7-2.43-15a7.69,7.69,0,0,0-4.86-3.52A4.43,4.43,0,0,0,46.16,19.24Z"/>
    <path class="baff6f93-9a9a-4dde-a704-231ca8c934c2" d="M32,25.07s3.25-9.44-7.7-18.2a6.35,6.35,0,0,1,3.83-2.56S34.35,10,34.46,25.07Z"/>
    <path class="a22e412b-cbcd-4aeb-857d-a7216b7044d8" d="M22.84,23.66s5.78,3.43,10.05,2.76,6.29-1.14,10.2-3.48C39,25.4,34.78,25.1,30.21,25.13,27.92,25.14,24.81,24.83,22.84,23.66Z"/>
    <path class="b109bb82-4e13-4ba2-bd11-037cc74ce056" d="M7.76,26.82c-.42,1.58-1.23,4.5-.86,6.41.1.35.56,3.83,1.75,2.35,2.12-2.67.84-4.71,2.33-7.23.82-1.37,2.31-2.68,3.19-4.27,1-1.8-.06-3-1.85-2C12.32,22.05,8.59,23.77,7.76,26.82Z"/>
    <ellipse class="b109bb82-4e13-4ba2-bd11-037cc74ce056" cx="8.9" cy="42.25" rx="1.72" ry="2.42" transform="translate(-10.21 3.53) rotate(-14.38)"/>
    <path class="b109bb82-4e13-4ba2-bd11-037cc74ce056" d="M24.05,30.14s4.84,2.62,15.18,0c0,0,6.53-3.22.08-2.49s-5.35,1.08-8.39,1-5.81-.62-6.75-.37S22.67,29.69,24.05,30.14Z"/>
  </g>
</svg>
