<svg id="a63e0cae-f629-4f9d-ac06-d528af563535" data-name="Layer 1" xmlns="http://www.w3.org/2000/svg" width="98" height="54" viewBox="0 0 98 54">
  <defs>
    <style>
      .e5dad3fb-777e-4839-adb2-c6b47011c4f6 {
        fill: #fff800;
        stroke: #ad9d25;
      }

      .ba10dc32-7686-4329-8163-b5e8c253315a, .e5dad3fb-777e-4839-adb2-c6b47011c4f6 {
        stroke-miterlimit: 10;
      }

      .b3f760ef-3031-449b-9c47-acb5526d31ea {
        fill: #f2e10f;
      }

      .ba10dc32-7686-4329-8163-b5e8c253315a {
        fill: #3db200;
        stroke: #0d6800;
      }

      .feb9f5c6-d859-45b7-898c-d203017b538c {
        fill: #fff;
        opacity: 0.5;
      }
    </style>
  </defs>
  <g>
    <g>
      <path class="e5dad3fb-777e-4839-adb2-c6b47011c4f6" d="M85.68,6S85.41,14.3,73,21.83,26.09,25.07,9.36,16.25A4.36,4.36,0,0,0,5,20.59C4.59,25.06,16.47,41.42,34.59,47s44,2.62,51.54-16.3.42-13,5.06-24Z"/>
      <path class="b3f760ef-3031-449b-9c47-acb5526d31ea" d="M89.42,6.53a1.61,1.61,0,0,0-1,.39,4.07,4.07,0,0,0-.91,2.6A79.2,79.2,0,0,1,85.09,22a25.42,25.42,0,0,1-4.42,9.54c-2.42,2.92-5.85,4.81-9.3,6.39-6.66,3-13.86,5.17-21.18,5.14-7.79,0-15.35-2.5-22.6-5.32C23.81,36.28,20,34.66,17,32,13,28.52,10.7,23.64,7.8,19.28a1.78,1.78,0,0,0-.67-.69,1.08,1.08,0,0,0-1.51.46c-.91,1.52.46,5,1.44,6.49,6.49,9.73,15.68,16.14,26,20.54,7.57,3.24,20.86,4.09,31.72,1.44,7.46-1.81,14.62-6,18.38-11.89A49.41,49.41,0,0,0,89.6,17.25c-1.08-5.77-.18-6.51.77-8.68a2.18,2.18,0,0,0,.31-1.2A1.13,1.13,0,0,0,89.42,6.53Z"/>
      <path class="ba10dc32-7686-4329-8163-b5e8c253315a" d="M84.59,6c-.33,1.73-.72,4.15-.48,4.87l5.41,1.19,2.89-3a2.18,2.18,0,0,0-1.17-3.68L86.9,4.47A1.93,1.93,0,0,0,84.59,6Z"/>
    </g>
    <path class="feb9f5c6-d859-45b7-898c-d203017b538c" d="M29.89,24.65s9.18,3.68,18.37,3.68a85.77,85.77,0,0,0,19.3-2.76s-7.35,5.52-19.3,5.52S29.89,24.65,29.89,24.65Z"/>
  </g>
</svg>
