<svg id="b108f11c-4f94-4e06-b9f1-7aa3c866b90e" data-name="Layer 1" xmlns="http://www.w3.org/2000/svg" width="43" height="38" viewBox="0 0 43 38">
  <defs>
    <style>
      .b8ee82e7-c278-4144-9567-126878241cf4 {
        fill: #5f2e15;
        stroke: #470000;
      }

      .b8ee82e7-c278-4144-9567-126878241cf4, .f0cd60de-1b11-4098-a70c-f46311067c6d {
        stroke-miterlimit: 10;
      }

      .ad5f4962-d0bf-4312-a47e-492cb5da099c, .b11768aa-ca32-40e8-9ab5-3bdca103fdc3, .b8ee82e7-c278-4144-9567-126878241cf4, .e226452e-ae06-4d11-9a95-0cf5d946487d, .ee2874dd-1e14-474d-b94a-113fa46edc39, .f0cd60de-1b11-4098-a70c-f46311067c6d, .f5221c06-357f-4bd2-a40f-2a5f24a17700 {
        fill-rule: evenodd;
      }

      .ee2874dd-1e14-474d-b94a-113fa46edc39 {
        fill: #9b4f2b;
      }

      .f0cd60de-1b11-4098-a70c-f46311067c6d {
        fill: #df0622;
        stroke: #9e0031;
      }

      .e226452e-ae06-4d11-9a95-0cf5d946487d {
        fill: #c02;
      }

      .b11768aa-ca32-40e8-9ab5-3bdca103fdc3 {
        fill: #8f000a;
      }

      .ad5f4962-d0bf-4312-a47e-492cb5da099c {
        fill: #e51034;
      }

      .f5221c06-357f-4bd2-a40f-2a5f24a17700 {
        fill: #ffe9e9;
        opacity: 0.4;
      }
    </style>
  </defs>
  <g>
    <g>
      <path class="b8ee82e7-c278-4144-9567-126878241cf4" d="M28.2,21.22A25.77,25.77,0,0,1,23.69,6.11L25,5.53c-1.75,4.37,1.29,12.53,4.56,15.26Z"/>
      <path class="ee2874dd-1e14-474d-b94a-113fa46edc39" d="M24,9A21.1,21.1,0,0,0,28,19.45c.28.38.41.61.15.7s-.36,0-.66-.5C25.31,15.81,24.25,13,24,9Z"/>
    </g>
    <g>
      <path class="f0cd60de-1b11-4098-a70c-f46311067c6d" d="M11,18.76c-1.59-.65-3.47.2-4.72,1.18-2,1.55-2.81,5-2.3,7.36C5,31.81,8.47,36,14.49,33.69a8.87,8.87,0,0,0,5.57-7.35c.36-3.15-1.29-6-4.69-5.94C13.73,20.4,12.2,19.24,11,18.76Z"/>
      <path class="e226452e-ae06-4d11-9a95-0cf5d946487d" d="M4.47,28.38C5.72,32.47,9,35.58,14.6,33.44a9.07,9.07,0,0,0,5.45-7,6,6,0,0,0-1.94-5.06,7.85,7.85,0,0,1-.58,6.71,9.91,9.91,0,0,1-6.82,4.05C8.21,32.23,6.24,30.77,4.47,28.38Z"/>
      <path class="b11768aa-ca32-40e8-9ab5-3bdca103fdc3" d="M12.7,21.16a1,1,0,0,0,1.63.36c.18-.23.18-.57-.39-.68S12.45,20.5,12.7,21.16Z"/>
      <path class="ad5f4962-d0bf-4312-a47e-492cb5da099c" d="M11.69,20c-.55,1.24.53,1.94,1.63,2.1A2.77,2.77,0,0,0,15,21.88c.42-.29.33.1.13.53-.84,1.74-5.48.91-5.79-1.36S12.15,19,11.69,20Z"/>
      <path class="ad5f4962-d0bf-4312-a47e-492cb5da099c" d="M12.5,24.46c3.91.33,1.52,4.11-1,5.18a4.46,4.46,0,0,1-6-5.53C6.15,22,8,21.63,9.23,23S11,24.33,12.5,24.46Z"/>
      <path class="f5221c06-357f-4bd2-a40f-2a5f24a17700" d="M8.43,24.43a1.17,1.17,0,0,1-.17.94,1.24,1.24,0,0,1-2.07-.27,1.2,1.2,0,0,1,.62-1.46A1.17,1.17,0,0,1,8.43,24.43Z"/>
      <path class="f5221c06-357f-4bd2-a40f-2a5f24a17700" d="M9,25c.24-.36.93-.18.71.34S8.72,25.39,9,25Z"/>
    </g>
    <g>
      <path class="b8ee82e7-c278-4144-9567-126878241cf4" d="M13,20.59C14.79,13.41,17.6,9.71,23.11,5.17c.2-.17.32-.51.57-.76A2.74,2.74,0,0,1,25,3.67a.9.9,0,0,1,.91,1.46,5.16,5.16,0,0,1-1.25.8c-.24.12-.6.12-.75.21-4.95,3.09-9.53,8.62-9.8,14.7,0,.41,0,.8-.58.72S12.83,21.21,13,20.59Z"/>
      <path class="ee2874dd-1e14-474d-b94a-113fa46edc39" d="M13.42,19.76A33.76,33.76,0,0,1,14.63,16c1.23-2.8,3.28-6.12,5.76-7.87a25.56,25.56,0,0,0-5.59,8,23.49,23.49,0,0,0-1,3.77c-.08.33-.14.67-.22,1s-.11.31-.3.27-.17-.17-.14-.38A7,7,0,0,1,13.42,19.76Z"/>
      <path class="ee2874dd-1e14-474d-b94a-113fa46edc39" d="M24.17,4.31A2,2,0,0,1,25,3.93c.57,0,.94.37.29,1-.36.34-1.08,1-1.43.29A.67.67,0,0,1,24.17,4.31Z"/>
    </g>
    <g>
      <path class="f0cd60de-1b11-4098-a70c-f46311067c6d" d="M25.89,21.05c-1.64.53-2.52,2.4-2.84,3.95-.51,2.45,1.05,5.6,3,7.1,3.65,2.82,9,3.76,12.12-1.89a8.53,8.53,0,0,0,.73-6c-.53-2.3-2.1-5.11-4.56-5.68a4.33,4.33,0,0,0-4.08.95C29,20.57,27.08,20.66,25.89,21.05Z"/>
      <path class="e226452e-ae06-4d11-9a95-0cf5d946487d" d="M23.17,26.82a9.82,9.82,0,0,0,2.34,4.68C29.4,34.61,34.88,36,38,30.33A9.9,9.9,0,0,0,38.75,28a8.66,8.66,0,0,0-1.31-6.85A8.16,8.16,0,0,0,36,19.42a6.69,6.69,0,0,0-2-.78c3.59,2.71,3.32,8.45.12,11.12C30.6,32.75,25.46,30.4,23.17,26.82Z"/>
      <path class="ad5f4962-d0bf-4312-a47e-492cb5da099c" d="M30.81,20.57c3.75-3.84,5.27,1.4,3.9,4.67-1.1,2.45-5.24,3.89-8.18,2.22-3.34-1.9-2.17-4.73,1-5.49C28.76,21.69,29.49,21.92,30.81,20.57Z"/>
      <path class="f5221c06-357f-4bd2-a40f-2a5f24a17700" d="M28.61,24.56a1.18,1.18,0,0,1-.33.89,1.24,1.24,0,0,1-2-.63,1.17,1.17,0,1,1,2.32-.26Z"/>
    </g>
  </g>
</svg>
