<svg xmlns="http://www.w3.org/2000/svg" width="64" height="76" viewBox="0 0 64 76">
  <defs>
    <style>
      .bd5e9885-f987-4c5b-9d64-8e9f51864916 {
        isolation: isolate;
      }

      .bc352e44-9a90-4a19-9f25-8ec4fc8c8bf8 {
        fill: #ff8c03;
        stroke: #914f00;
      }

      .a6b740cb-4bfd-4d56-af24-4e5acf605a00, .bc352e44-9a90-4a19-9f25-8ec4fc8c8bf8 {
        stroke-miterlimit: 10;
      }

      .fb83eb35-8a96-4c21-bf1a-1401a40cb430 {
        fill: #ff7b03;
        opacity: 0.3;
      }

      .a1da3595-827f-4230-9e7e-42924cf3413d, .b2e98f5d-1ab0-4c41-b426-1b27334c872e, .f6cade8f-1597-4509-8166-ae1c952ab5c0, .fb83eb35-8a96-4c21-bf1a-1401a40cb430 {
        mix-blend-mode: multiply;
      }

      .ef9d5bce-a626-4450-9097-a8584fa3a1b9 {
        fill: #ff9f01;
        opacity: 0.2;
        mix-blend-mode: screen;
      }

      .a1da3595-827f-4230-9e7e-42924cf3413d {
        opacity: 0.4;
      }

      .b2e98f5d-1ab0-4c41-b426-1b27334c872e {
        fill: #fff;
        opacity: 0.5;
      }

      .b9a88d86-6186-4c4c-87c4-006ecd8f7a45 {
        fill: #609e07;
      }

      .a6b740cb-4bfd-4d56-af24-4e5acf605a00, .f6cade8f-1597-4509-8166-ae1c952ab5c0 {
        fill: #a0cb19;
      }

      .a6b740cb-4bfd-4d56-af24-4e5acf605a00 {
        stroke: #4c8e00;
      }

      .f6cade8f-1597-4509-8166-ae1c952ab5c0 {
        opacity: 0.8;
      }
    </style>
  </defs>
  <g class="bd5e9885-f987-4c5b-9d64-8e9f51864916">
    <g id="e3a0bedf-92a7-4c0b-b49f-f4081505ed1a" data-name="Layer 1">
      <g>
        <g>
          <path class="bc352e44-9a90-4a19-9f25-8ec4fc8c8bf8" d="M49.32,22a.4.4,0,0,1-.13-.16c-.84-1.73-3.32-2.69-6.12-3.88s-5.2-2.34-7-1.75a.41.41,0,0,1-.19,0A27.83,27.83,0,1,0,49.32,22Z"/>
          <path class="fb83eb35-8a96-4c21-bf1a-1401a40cb430" d="M53.75,29.68a25,25,0,0,1-48,8.15A26.68,26.68,0,0,0,21.06,68.64h0l.4.16A26.57,26.57,0,0,0,55.94,54.68,26.65,26.65,0,0,0,53.75,29.68Z"/>
          <path class="ef9d5bce-a626-4450-9097-a8584fa3a1b9" d="M27.36,23.23c1.86,2.7-2.9,2.9-8,6.38S10.86,38.53,9,35.83s.76-7.72,5.82-11.2S25.51,20.53,27.36,23.23Z"/>
          <path class="ef9d5bce-a626-4450-9097-a8584fa3a1b9" d="M36.14,22c.07,1.39-1.48,2.59-3.45,2.68s-3.62-1-3.69-2.35,1.49-2.58,3.46-2.67S36.08,20.61,36.14,22Z"/>
          <g class="a1da3595-827f-4230-9e7e-42924cf3413d">
            <path class="b2e98f5d-1ab0-4c41-b426-1b27334c872e" d="M34.69,59.72a1,1,0,1,1,1-.95A1,1,0,0,1,34.69,59.72Z"/>
            <path class="b2e98f5d-1ab0-4c41-b426-1b27334c872e" d="M42.78,61.89a1,1,0,1,1,0-2,1,1,0,0,1,1,1A1,1,0,0,1,42.78,61.89Z"/>
            <path class="b2e98f5d-1ab0-4c41-b426-1b27334c872e" d="M25.92,64.19a1.11,1.11,0,1,1,1-1.07A1,1,0,0,1,25.92,64.19Z"/>
            <path class="b2e98f5d-1ab0-4c41-b426-1b27334c872e" d="M36,62.91a.76.76,0,0,1-.69-.81.72.72,0,1,1,1.43,0A.76.76,0,0,1,36,62.91Z"/>
            <ellipse class="b2e98f5d-1ab0-4c41-b426-1b27334c872e" cx="35.91" cy="67.46" rx="0.79" ry="0.71" transform="translate(-32.49 101.53) rotate(-88.45)"/>
            <path class="b2e98f5d-1ab0-4c41-b426-1b27334c872e" d="M27.71,60.57a.79.79,0,1,1,.74-.77A.76.76,0,0,1,27.71,60.57Z"/>
            <path class="b2e98f5d-1ab0-4c41-b426-1b27334c872e" d="M23.76,62.33a.74.74,0,0,1-.69-.81.71.71,0,1,1,.69.81Z"/>
            <path class="b2e98f5d-1ab0-4c41-b426-1b27334c872e" d="M29.09,67.12a.8.8,0,1,1,.92-.77A.85.85,0,0,1,29.09,67.12Z"/>
            <path class="b2e98f5d-1ab0-4c41-b426-1b27334c872e" d="M34.4,66.55A.48.48,0,0,1,34,66a.5.5,0,0,1,.48-.51.49.49,0,0,1,.44.53A.48.48,0,0,1,34.4,66.55Z"/>
            <path class="b2e98f5d-1ab0-4c41-b426-1b27334c872e" d="M38.91,63.11a.49.49,0,0,1-.45-.53.46.46,0,1,1,.92,0A.49.49,0,0,1,38.91,63.11Z"/>
            <path class="b2e98f5d-1ab0-4c41-b426-1b27334c872e" d="M39.57,59.9a.52.52,0,1,1,.48-.5A.5.5,0,0,1,39.57,59.9Z"/>
            <path class="b2e98f5d-1ab0-4c41-b426-1b27334c872e" d="M38.24,67.47a.52.52,0,1,1,.47-.5A.49.49,0,0,1,38.24,67.47Z"/>
            <path class="b2e98f5d-1ab0-4c41-b426-1b27334c872e" d="M46.38,59.57a.48.48,0,0,1-.45-.52.48.48,0,0,1,.48-.5.51.51,0,0,1,0,1Z"/>
            <path class="b2e98f5d-1ab0-4c41-b426-1b27334c872e" d="M26.25,66.33a.48.48,0,0,1-.45-.52.46.46,0,1,1,.92,0A.49.49,0,0,1,26.25,66.33Z"/>
            <path class="b2e98f5d-1ab0-4c41-b426-1b27334c872e" d="M19.34,65a.51.51,0,1,1,.48-.5A.48.48,0,0,1,19.34,65Z"/>
            <path class="b2e98f5d-1ab0-4c41-b426-1b27334c872e" d="M23.6,68a.48.48,0,0,1-.44-.52.49.49,0,0,1,.47-.51.51.51,0,0,1,.45.53A.48.48,0,0,1,23.6,68Z"/>
            <path class="b2e98f5d-1ab0-4c41-b426-1b27334c872e" d="M32.22,65.67a.52.52,0,0,1,0-1,.5.5,0,0,1,.45.53A.49.49,0,0,1,32.22,65.67Z"/>
            <path class="b2e98f5d-1ab0-4c41-b426-1b27334c872e" d="M20.45,60.82a.51.51,0,1,1,.48-.5A.48.48,0,0,1,20.45,60.82Z"/>
            <path class="b2e98f5d-1ab0-4c41-b426-1b27334c872e" d="M28.55,63.76a.29.29,0,0,1-.27-.32.28.28,0,0,1,.28-.3.28.28,0,0,1,.27.31A.3.3,0,0,1,28.55,63.76Z"/>
            <path class="b2e98f5d-1ab0-4c41-b426-1b27334c872e" d="M19.43,61.73a.29.29,0,0,1-.27-.31.28.28,0,1,1,.56,0A.3.3,0,0,1,19.43,61.73Z"/>
            <path class="b2e98f5d-1ab0-4c41-b426-1b27334c872e" d="M23.14,64.86a.29.29,0,0,1-.27-.31.3.3,0,0,1,.29-.31.29.29,0,0,1,.26.32A.28.28,0,0,1,23.14,64.86Z"/>
            <path class="b2e98f5d-1ab0-4c41-b426-1b27334c872e" d="M24.36,65.25a.29.29,0,0,1-.27-.31.3.3,0,0,1,.29-.31.29.29,0,0,1,.26.32A.28.28,0,0,1,24.36,65.25Z"/>
            <path class="b2e98f5d-1ab0-4c41-b426-1b27334c872e" d="M27.64,68.68a.29.29,0,0,1-.26-.32.29.29,0,0,1,.28-.3.31.31,0,0,1,.27.32A.3.3,0,0,1,27.64,68.68Z"/>
            <path class="b2e98f5d-1ab0-4c41-b426-1b27334c872e" d="M21.29,63.28A.31.31,0,0,1,21,63a.3.3,0,0,1,.29-.3.29.29,0,0,1,.27.31A.31.31,0,0,1,21.29,63.28Z"/>
            <path class="b2e98f5d-1ab0-4c41-b426-1b27334c872e" d="M21.33,66.81a.31.31,0,0,1-.27-.32.29.29,0,0,1,.29-.3.3.3,0,0,1,.27.32A.31.31,0,0,1,21.33,66.81Z"/>
            <path class="b2e98f5d-1ab0-4c41-b426-1b27334c872e" d="M31,58.43a.31.31,0,0,1,0-.62.31.31,0,0,1,0,.62Z"/>
            <path class="b2e98f5d-1ab0-4c41-b426-1b27334c872e" d="M22.06,59.7a.31.31,0,0,1-.27-.32.3.3,0,0,1,.29-.3.29.29,0,0,1,.27.31A.3.3,0,0,1,22.06,59.7Z"/>
            <path class="b2e98f5d-1ab0-4c41-b426-1b27334c872e" d="M16.9,62.31a.29.29,0,0,1-.27-.31.28.28,0,1,1,.56,0A.29.29,0,0,1,16.9,62.31Z"/>
            <path class="b2e98f5d-1ab0-4c41-b426-1b27334c872e" d="M24.68,58.78a.28.28,0,0,1-.27-.31.28.28,0,0,1,.28-.3.28.28,0,0,1,.27.31A.28.28,0,0,1,24.68,58.78Z"/>
            <path class="b2e98f5d-1ab0-4c41-b426-1b27334c872e" d="M31.71,68a.29.29,0,0,1-.27-.32.28.28,0,0,1,.28-.3.28.28,0,0,1,.27.31A.29.29,0,0,1,31.71,68Z"/>
            <path class="b2e98f5d-1ab0-4c41-b426-1b27334c872e" d="M25.53,68.56a.31.31,0,0,1-.27-.32.3.3,0,0,1,.29-.3.31.31,0,0,1,0,.62Z"/>
            <path class="b2e98f5d-1ab0-4c41-b426-1b27334c872e" d="M29.83,68.67a.28.28,0,0,1-.27-.31.28.28,0,0,1,.28-.3.28.28,0,0,1,.27.31A.28.28,0,0,1,29.83,68.67Z"/>
            <path class="b2e98f5d-1ab0-4c41-b426-1b27334c872e" d="M37.35,65.25a.31.31,0,0,1-.27-.32.3.3,0,0,1,.29-.3.29.29,0,0,1,.27.31A.31.31,0,0,1,37.35,65.25Z"/>
            <path class="b2e98f5d-1ab0-4c41-b426-1b27334c872e" d="M34.24,63.91a.3.3,0,0,1-.27-.32.29.29,0,0,1,.28-.3.29.29,0,0,1,.27.32A.29.29,0,0,1,34.24,63.91Z"/>
            <path class="b2e98f5d-1ab0-4c41-b426-1b27334c872e" d="M33.17,69.54a.29.29,0,0,1-.27-.32.28.28,0,1,1,.27.32Z"/>
            <path class="b2e98f5d-1ab0-4c41-b426-1b27334c872e" d="M37.66,60.36a.29.29,0,0,1-.27-.32.28.28,0,1,1,.27.32Z"/>
            <path class="b2e98f5d-1ab0-4c41-b426-1b27334c872e" d="M42.21,67a.31.31,0,0,1,0-.62.29.29,0,0,1,.27.32A.29.29,0,0,1,42.21,67Z"/>
            <path class="b2e98f5d-1ab0-4c41-b426-1b27334c872e" d="M40.71,62.31a.31.31,0,0,1-.27-.32.3.3,0,0,1,.29-.3A.3.3,0,0,1,41,62,.3.3,0,0,1,40.71,62.31Z"/>
            <path class="b2e98f5d-1ab0-4c41-b426-1b27334c872e" d="M39.82,65.31a.29.29,0,0,1-.27-.31.32.32,0,0,1,.29-.31.31.31,0,0,1,.27.32A.3.3,0,0,1,39.82,65.31Z"/>
            <path class="b2e98f5d-1ab0-4c41-b426-1b27334c872e" d="M41.59,64.11a.31.31,0,0,1-.27-.32.28.28,0,1,1,.56,0A.31.31,0,0,1,41.59,64.11Z"/>
            <path class="b2e98f5d-1ab0-4c41-b426-1b27334c872e" d="M45.38,61.29a.28.28,0,0,1-.26-.31.3.3,0,0,1,.28-.31.31.31,0,0,1,.27.32A.29.29,0,0,1,45.38,61.29Z"/>
            <path class="b2e98f5d-1ab0-4c41-b426-1b27334c872e" d="M43.68,64.16a.31.31,0,1,1,.29-.3A.3.3,0,0,1,43.68,64.16Z"/>
            <path class="b2e98f5d-1ab0-4c41-b426-1b27334c872e" d="M45.81,63.59a.31.31,0,0,1,0-.61.28.28,0,0,1,.26.31A.28.28,0,0,1,45.81,63.59Z"/>
            <path class="b2e98f5d-1ab0-4c41-b426-1b27334c872e" d="M31.47,63.24a1.5,1.5,0,1,1,1.69-1.45A1.58,1.58,0,0,1,31.47,63.24Z"/>
          </g>
        </g>
        <path class="b9a88d86-6186-4c4c-87c4-006ecd8f7a45" d="M46.16,21.38c-.34.8-2.12.06-4.3-.87S37.92,18.8,38.26,18s2.34-.58,4.52.36S46.5,20.59,46.16,21.38Z"/>
        <path class="a6b740cb-4bfd-4d56-af24-4e5acf605a00" d="M43.43,19.67c-.22-.3-.2-.52.12-1.39a31.39,31.39,0,0,0,2.74-7.12c.33-1.23.61-2.48.88-3.72A7,7,0,0,0,47.51,6c0-.67-.47-.94-1-1.24a2.54,2.54,0,0,0-1.29-.34,2.07,2.07,0,0,0-1.83.82c-.3.64.12,1.43.13,2.09a16.16,16.16,0,0,1-.18,2.6,39.18,39.18,0,0,1-1.17,5.45c-.24.9-.51,1.78-.79,2.67-.06.17-.22.54-.47.54s-.12.53,1.07,1.11S43.65,20,43.43,19.67Z"/>
        <path class="f6cade8f-1597-4509-8166-ae1c952ab5c0" d="M43.43,19.67c-.22-.3-.2-.52.12-1.39a31.39,31.39,0,0,0,2.74-7.12c.33-1.23.61-2.48.88-3.72A7,7,0,0,0,47.51,6c0-.67-.47-.94-1-1.24a2.54,2.54,0,0,0-1.29-.34,2.07,2.07,0,0,0-1.83.82c-.3.64.12,1.43.13,2.09a14.22,14.22,0,0,1-.12,2.16,8.26,8.26,0,0,1-.21,1.44,44.81,44.81,0,0,1-1,4.45c-.24.9-.51,1.78-.79,2.67-.06.17-.22.54-.47.54s-.12.53,1.07,1.11S43.65,20,43.43,19.67Z"/>
      </g>
    </g>
  </g>
</svg>
