<svg id="bfd11ed2-5e64-4d31-88e5-b1c7a2e4f831" data-name="Layer 1" xmlns="http://www.w3.org/2000/svg" xmlns:xlink="http://www.w3.org/1999/xlink" width="68" height="106" viewBox="0 0 68 106">
  <defs>
    <style>
      .b0418e2f-272d-4dba-940c-1c15b2ca4e73 {
        stroke: #895b00;
        fill: url(#b93d8727-6061-49c2-ac64-1efd891074f9);
      }

      .a26a90d9-f033-4f94-8833-89a720aff869, .b0418e2f-272d-4dba-940c-1c15b2ca4e73 {
        stroke-miterlimit: 10;
      }

      .efd4f670-532d-4e17-a760-0af15df14401 {
        opacity: 0.1;
      }

      .bedaaec5-1f17-453c-a693-e60eb4d13025 {
        fill: #fff;
        opacity: 0.6;
      }

      .a26a90d9-f033-4f94-8833-89a720aff869 {
        fill: #682413;
        stroke: #490202;
      }
    </style>
    <linearGradient id="b93d8727-6061-49c2-ac64-1efd891074f9" x1="14.98" y1="-0.62" x2="57.18" y2="127.93" gradientUnits="userSpaceOnUse">
      <stop offset="0.19" stop-color="#a7aa11"/>
      <stop offset="0.28" stop-color="#ca1"/>
      <stop offset="0.37" stop-color="#e8a910"/>
      <stop offset="0.44" stop-color="#f9a910"/>
      <stop offset="0.5" stop-color="#ffa910"/>
      <stop offset="1" stop-color="#ffa910"/>
    </linearGradient>
  </defs>
  <g>
    <g>
      <g>
        <path class="b0418e2f-272d-4dba-940c-1c15b2ca4e73" d="M25,31.05c3.19-2.6,4-4.15,5.55-7.23l.56-1.08c4.08-7.91,8-11.76,17-9.44,9,2.51,10.49,7.8,10.07,16.69l-.06,1.2c-.17,3.47-.26,5.2,1.2,9,6.23,16.39,5.58,32.58-1.81,44.41-6,9.7-16,15.65-28,16.76a13.5,13.5,0,0,1-4.81-.42,13.66,13.66,0,0,1-4.37-2C10.47,92,4.82,81.85,4.42,70.42,3.93,56.48,11.45,42.13,25,31.05Z"/>
        <path class="efd4f670-532d-4e17-a760-0af15df14401" d="M18.53,87.16a13.48,13.48,0,0,0,4.34,2c1.57.42,5.6,1.77,7.2,1.66C43.88,89.93,49.44,82.6,55.45,73c5-8,5.93-18.46,4.7-29.12,5.17,14.84,3.61,30.41-3,41-6,9.71-15.72,14.84-27.74,16a14,14,0,0,1-4.81-.42,13.66,13.66,0,0,1-4.37-2A35.31,35.31,0,0,1,5.15,66.86C7.51,74.28,11.58,82.25,18.53,87.16Z"/>
      </g>
      <path class="bedaaec5-1f17-453c-a693-e60eb4d13025" d="M24,36.57C33.8,28.88,34.6,21.32,36.56,23.1c1.09,1-1.91,6.56-5.51,13.18-2.39,4.39-3.93,10.47-7.9,10C21.09,46.07,17.09,42,24,36.57Z"/>
      <path class="bedaaec5-1f17-453c-a693-e60eb4d13025" d="M41.43,15.09c.87.58.85,2.14,0,3.48s-2.33,1.95-3.2,1.36-.84-2.13.05-3.47S40.57,14.51,41.43,15.09Z"/>
    </g>
    <path class="a26a90d9-f033-4f94-8833-89a720aff869" d="M50,4.59c1.22.15.37,1.33,0,1.82-1.12,1.35-1,2.85-1.1,4.38a7.66,7.66,0,0,1-.65,2.59,1.26,1.26,0,0,1-.84.92c-.81.23-.65-.39-.65-.39.29-.29-.1-3.65-.26-4.41a4.87,4.87,0,0,1,.79-4.24A3.09,3.09,0,0,1,50,4.59Z"/>
  </g>
</svg>
