<svg id="b80b2d67-bed5-4250-9931-bef0e1e2cf7b" data-name="Layer 1" xmlns="http://www.w3.org/2000/svg" width="60" height="92" viewBox="0 0 60 92">
  <defs>
    <style>
      .b4f5db1c-508b-4718-bd32-2c1fad65629c, .b6f4f823-0ce8-4dd5-8a9b-4b8b6d0fae12 {
        fill: #893d30;
      }

      .b6f4f823-0ce8-4dd5-8a9b-4b8b6d0fae12 {
        stroke: #5e2a00;
      }

      .b4f5db1c-508b-4718-bd32-2c1fad65629c, .b6f4f823-0ce8-4dd5-8a9b-4b8b6d0fae12, .f4b8daff-4223-4319-ae19-12a14cbc2ed0 {
        stroke-miterlimit: 10;
      }

      .b4f5db1c-508b-4718-bd32-2c1fad65629c {
        stroke: #4f2f00;
      }

      .bbc25017-1882-463e-9060-432c0486cc4f, .f4b8daff-4223-4319-ae19-12a14cbc2ed0 {
        fill: #afc806;
      }

      .f4b8daff-4223-4319-ae19-12a14cbc2ed0 {
        stroke: #245b00;
      }

      .bdaaa787-7898-419b-bc08-295ae72d74be {
        fill: #c7d92e;
      }

      .a45ef09c-f3e6-40b4-af08-244cc0311081 {
        fill: #d7e635;
      }
    </style>
  </defs>
  <g>
    <path class="b6f4f823-0ce8-4dd5-8a9b-4b8b6d0fae12" d="M28.48,86.5A2,2,0,0,0,29.69,86a3.37,3.37,0,0,0,.64.89,1.17,1.17,0,0,0,1,.33,1.32,1.32,0,0,0,.62-.37,3.17,3.17,0,0,0,.78-1.16,1.64,1.64,0,0,0,2.4.36,1.51,1.51,0,0,0-.33-2.34,2.66,2.66,0,0,0-1.08-.2c-1.46,0-3.8-.47-5.11.31a2,2,0,0,0-1,1.24C27.48,85.77,28,86.52,28.48,86.5Z"/>
    <path class="b4f5db1c-508b-4718-bd32-2c1fad65629c" d="M28.19,17.74c.39-4.89,3.7-15.13,7.14-12.53,1,.77.4,1.51-.41,2.31s-4,2.27-4.66,10C29.38,27.12,28.19,17.74,28.19,17.74Z"/>
    <path class="f4b8daff-4223-4319-ae19-12a14cbc2ed0" d="M55.54,59.51c-1-11.6-9.48-20.38-13.19-31-3.18-9.08-8.64-10.89-11.17-11.23a4.12,4.12,0,0,0-1.35-.07c-7.09,0-12.55,3.8-16.32,19-2.15,8.61-6.36,14.1-8.26,20.49-1.25,4.19-2.35,14.22,4.9,22a19.71,19.71,0,0,0,8.77,5.11h0l.24.07,1,.29.11,0a36.64,36.64,0,0,0,11.3,1c5.51-.38,10.89-1.69,15.17-4.54C49.36,78.87,56.72,73.06,55.54,59.51Z"/>
    <path class="bdaaa787-7898-419b-bc08-295ae72d74be" d="M29.83,17.22c-7.09,0-12.55,3.8-16.32,19-2.15,8.61-6.36,14.1-8.26,20.49-1.25,4.19-2.35,14.22,4.9,22a20.52,20.52,0,0,0,10,5.47c3.73,1,7.62.24,11.26,0,5.51-.38,9.86-2.82,14.13-5.68,2.59-1.72,7.92-5.21,6.74-18.76-1-11.61-8.16-20.84-11.87-31.45C36.22,16.13,29.83,17.22,29.83,17.22Z"/>
    <path class="bbc25017-1882-463e-9060-432c0486cc4f" d="M55.54,59.51c-1-11.6-9.48-20.38-13.19-31-3.18-9.08-8.64-10.89-11.17-11.23,3.15,1.32,6.07,4.87,7,10.14,1.08,5.88,1.33,8.23,2.26,11.08,2.58,7.89,4.23,8.93,5.84,17.69,2.11,11.54-.82,20.28-10.25,25-3.87,1.92-12.2,3.68-17.15,2.62A36,36,0,0,0,31.6,85.14c5.51-.38,10.89-1.69,15.17-4.54C49.36,78.87,56.72,73.06,55.54,59.51Z"/>
    <path class="a45ef09c-f3e6-40b4-af08-244cc0311081" d="M25.43,21.25c-.57-.38-1.4.27-2.1.86C21.1,24,18.94,28.55,18.09,33.9,17,41,15.65,42.63,13.34,46.74,10.86,51.14,7.2,59.53,9,65.52c.92,3.1,4.65,8.67,5.54,5.1.45-1.77-.81-5.87-.44-10.2.78-9.11,6.12-12.79,6.92-20s.95-12.88,2.7-15.7C25.08,22.45,26.08,21.7,25.43,21.25Z"/>
    <path class="bbc25017-1882-463e-9060-432c0486cc4f" d="M42.36,57.69a1,1,0,0,0-1,.6.89.89,0,0,0,.19,1,.52.52,0,0,0,.11.1h0a.9.9,0,0,0,1.07,0,.89.89,0,0,0,.38-.7A.87.87,0,0,0,42.36,57.69Z"/>
    <path class="bbc25017-1882-463e-9060-432c0486cc4f" d="M37.26,62.18h0a.89.89,0,0,0-.34-.07.88.88,0,0,0-.8.55v0a.89.89,0,0,0,.31,1,1,1,0,0,0,.89.11.88.88,0,0,0,.5-.5A.9.9,0,0,0,37.26,62.18Z"/>
    <path class="bbc25017-1882-463e-9060-432c0486cc4f" d="M42.76,67.13c-.14-1.45-2.36-1-2.21.4S42.9,68.57,42.76,67.13Z"/>
    <path class="bbc25017-1882-463e-9060-432c0486cc4f" d="M33.79,69.32a1,1,0,0,0-.68-.38,1.1,1.1,0,0,0-1,.42A1.08,1.08,0,0,0,32.63,71,1,1,0,0,0,34,70.14,1,1,0,0,0,33.79,69.32Z"/>
    <path class="bbc25017-1882-463e-9060-432c0486cc4f" d="M38.52,74.54a1,1,0,0,0-.94-.35.8.8,0,0,0-.49.23,1.12,1.12,0,0,0,.16,2,1.09,1.09,0,0,0,1.07-.16,1.6,1.6,0,0,0,.4-.56,1.26,1.26,0,0,0,.06-.64A1.16,1.16,0,0,0,38.52,74.54Z"/>
    <path class="bbc25017-1882-463e-9060-432c0486cc4f" d="M28.66,76.48a1,1,0,0,0-1.36-.1.73.73,0,0,0-.22.21,1,1,0,0,0-.14.83,1,1,0,0,0,1.53.5A1,1,0,0,0,28.66,76.48Z"/>
    <path class="bbc25017-1882-463e-9060-432c0486cc4f" d="M21.77,75.14a.88.88,0,0,0-.95,0,.81.81,0,0,0-.33.26.86.86,0,0,0-.13.77.89.89,0,0,0,1.41.46,1,1,0,0,0,.35-.84A.87.87,0,0,0,21.77,75.14Z"/>
  </g>
</svg>
