<svg xmlns="http://www.w3.org/2000/svg" width="54" height="68" viewBox="0 0 54 68">
  <defs>
    <style>
      .bac22ef9-7df1-4adb-8a73-77f30798be99 {
        isolation: isolate;
      }

      .b2a94399-a14c-49b0-99cc-479e351a9492 {
        fill: #9970a4;
      }

      .b2b1217a-5903-42d7-82e8-6106c89364a2, .e4048e6d-7412-4d32-bfa7-d94876d97e58 {
        fill: #63300f;
      }

      .b2b1217a-5903-42d7-82e8-6106c89364a2 {
        mix-blend-mode: screen;
      }

      .bb8dd0af-e735-46e0-8c62-ffc130fbb12b {
        fill: #4d1f03;
      }

      .a545465a-f3b2-4824-8ecb-e50666935e0f {
        fill: #972269;
        stroke: #75074e;
        stroke-miterlimit: 10;
      }

      .aa0d6a4c-d8dc-4a20-8298-af3a3fb782b5 {
        fill: #770e57;
      }

      .bada9b4b-bae2-4b55-9bc5-afccad17114a {
        fill: #aa1f65;
      }

      .b3e6df24-99ca-411a-9046-67aec2fc0f0f {
        fill: #b52266;
      }

      .ab60b27b-389f-4864-a8a8-3b589d0730e4 {
        fill: #e25099;
      }
    </style>
  </defs>
  <g class="bac22ef9-7df1-4adb-8a73-77f30798be99">
    <g id="ecc71335-5aab-4cdd-9beb-0ba7c795d5a7" data-name="Layer 1">
      <g>
        <path class="b2a94399-a14c-49b0-99cc-479e351a9492" d="M30.17,14.5H29l-.64,0a11.7,11.7,0,0,1,4.91-7.7l0,0a1.19,1.19,0,0,0-.17-1.27c-.33-.54-.82-.82-1.13-.69l0,0a13.4,13.4,0,0,0-5,9.74l-.9,0C14.22,14.5,4.61,25.4,4.61,38.86s9.61,24.36,21.45,24.36c.53,0,1,0,1.56-.07s.92.07,1.39.07l.58,0,.58,0c10.61,0,19.22-10.91,19.22-24.36S40.78,14.5,30.17,14.5Z"/>
        <g>
          <path class="e4048e6d-7412-4d32-bfa7-d94876d97e58" d="M33.28,6.82a11.67,11.67,0,0,0-5.09,9.77l-1.1.23a13.19,13.19,0,0,1,4.84-12Z"/>
          <path class="b2b1217a-5903-42d7-82e8-6106c89364a2" d="M32.41,5.5l-.48-.72a13.19,13.19,0,0,0-4.84,12l.23-.05A13.09,13.09,0,0,1,32.41,5.5Z"/>
          <ellipse class="bb8dd0af-e735-46e0-8c62-ffc130fbb12b" cx="32.54" cy="5.85" rx="0.65" ry="1.21" transform="translate(1.83 18.11) rotate(-31.95)"/>
          <ellipse class="a545465a-f3b2-4824-8ecb-e50666935e0f" cx="26.06" cy="38.86" rx="21.45" ry="24.36"/>
          <ellipse class="aa0d6a4c-d8dc-4a20-8298-af3a3fb782b5" cx="29.01" cy="38.86" rx="19.22" ry="24.36"/>
          <ellipse class="a545465a-f3b2-4824-8ecb-e50666935e0f" cx="30.17" cy="38.86" rx="19.22" ry="24.36"/>
          <ellipse class="bada9b4b-bae2-4b55-9bc5-afccad17114a" cx="29.38" cy="36.9" rx="21.49" ry="17.74" transform="translate(-12.38 58.81) rotate(-79.16)"/>
          <ellipse class="b3e6df24-99ca-411a-9046-67aec2fc0f0f" cx="27.36" cy="35.18" rx="17.39" ry="14.78" transform="translate(-12.03 56.02) rotate(-80.01)"/>
          <path class="b3e6df24-99ca-411a-9046-67aec2fc0f0f" d="M9.05,32.56c-2.22,8-.32,15.07-1,15.19C7.53,48,4.43,40.63,6.8,32s8.63-13.56,9-13.06C16.28,19.32,11.1,24.53,9.05,32.56Z"/>
          <path class="ab60b27b-389f-4864-a8a8-3b589d0730e4" d="M20.89,25.19c-.76,2.12-.2,4.25,1.25,4.77s3.23-.78,4-2.9.2-4.25-1.25-4.77S21.65,23.07,20.89,25.19Z"/>
          <path class="ab60b27b-389f-4864-a8a8-3b589d0730e4" d="M20.17,35.9a1.89,1.89,0,0,1-2.32,1.31,2,2,0,1,1,2.32-1.31Z"/>
        </g>
      </g>
    </g>
  </g>
</svg>
