<svg id="b8f260e4-08b3-4148-911d-638cd2b06d45" data-name="Layer 1" xmlns="http://www.w3.org/2000/svg" width="43" height="57" viewBox="0 0 43 57">
  <defs>
    <style>
      .f5b4cdd2-7baa-4275-9c2a-811b9e5ba65b, .fc2e6389-3abc-4839-a69d-d29815489e9b {
        fill: #e23834;
      }

      .fc2e6389-3abc-4839-a69d-d29815489e9b {
        stroke: #c60a0a;
        stroke-miterlimit: 10;
      }

      .a248f6da-413a-46fb-833c-4f5179c096e7 {
        fill: #ff8f87;
      }

      .b9e1412b-413b-489b-88cb-3585595d34fc {
        fill: #ed5d58;
      }

      .e93a4f16-9e6e-4bb5-829f-e10130f69a21 {
        fill: #b60706;
      }

      .b636adf4-fca2-41e9-b4b0-c6a8ae259abb {
        fill: #950000;
      }

      .bd7ad795-3272-4b5d-a3d6-6d64ce19c437 {
        fill: #fcc246;
      }

      .abb9693e-c068-4bae-ac9c-57d50a1daa4e {
        fill: #e49319;
      }

      .ac6bb97e-4822-491c-a55c-9d1706041a37 {
        fill: #fef19f;
      }

      .bc7fd570-a85a-4ecf-b253-4897b71c9796 {
        fill: #444f00;
      }

      .ac68f426-d6c4-4308-badd-8945bb2be6a1 {
        fill: #7c9517;
      }

      .f4af9b4f-9444-4640-8476-2ba96e21f043 {
        fill: #5e7610;
      }

      .ea20403d-6fc9-4495-827b-63741e16e410 {
        fill: #6d8613;
      }

      .bccc17fe-affa-43f4-a88e-fc79bb4cd45f {
        fill: #43580a;
      }

      .e5b87b35-1288-4250-8093-20e5deec5543 {
        fill: #556c0e;
      }

      .f84eb1f8-2ab4-41ee-9072-14bbf0f2a1fa {
        fill: #688112;
      }

      .a009a7a1-7ef4-4e3d-8a39-f236e233ad22 {
        opacity: 0.35;
      }

      .a5128cae-efaa-41ba-845c-e043564ba1c8 {
        fill: #c40908;
      }

      .bd68a7fb-992a-43a6-9047-61a0d59be75e {
        fill: #f66760;
      }
    </style>
  </defs>
  <g>
    <path class="f5b4cdd2-7baa-4275-9c2a-811b9e5ba65b" d="M21.55,14.5h-.26c-9.59,0-17.11,4.39-17.11,15.11,0,4.79,2.7,9.89,5.68,14.08,3.71,5.2,7.05,9,11.43,9h.26c4.38,0,7.72-3.78,11.43-9,3-4.19,5.68-9.29,5.68-14.08C38.66,18.89,31.14,14.5,21.55,14.5Z"/>
    <path class="fc2e6389-3abc-4839-a69d-d29815489e9b" d="M21.55,14.5h-.26c-9.59,0-17.11,4.39-17.11,15.11,0,4.79,2.7,9.89,5.68,14.08,3.71,5.2,7.05,9,11.43,9h.26c4.38,0,7.72-3.78,11.43-9,3-4.19,5.68-9.29,5.68-14.08C38.66,18.89,31.14,14.5,21.55,14.5Z"/>
    <path class="a248f6da-413a-46fb-833c-4f5179c096e7" d="M11.59,23.7a3.48,3.48,0,0,0,0,.73A1.21,1.21,0,0,0,11.59,23.7Z"/>
    <path class="a248f6da-413a-46fb-833c-4f5179c096e7" d="M9.22,22.12a1.14,1.14,0,0,0,.67.4c.33,0,.49-.23.76-.36a2.7,2.7,0,0,1,1.2-.12,6.89,6.89,0,0,0,1.63-.23,4.19,4.19,0,0,0,1.06-.37,1.75,1.75,0,0,1-.47-.13A3.14,3.14,0,0,0,12.69,21a6,6,0,0,0-3.5,1.09Z"/>
    <g>
      <g>
        <path class="b9e1412b-413b-489b-88cb-3585595d34fc" d="M19.1,17.38a1.86,1.86,0,0,1,.48-1,.64.64,0,0,1,1,.06A1.78,1.78,0,0,1,21,17.49c-.05.88-.51,1.57-1,1.54S19.05,18.26,19.1,17.38Z"/>
        <path class="e93a4f16-9e6e-4bb5-829f-e10130f69a21" d="M19.09,17.09a1.86,1.86,0,0,1,.48-1,.64.64,0,0,1,1,.07,1.82,1.82,0,0,1,.35,1.09c-.06.88-.52,1.57-1,1.53S19,18,19.09,17.09Z"/>
        <path class="b636adf4-fca2-41e9-b4b0-c6a8ae259abb" d="M19.14,17.77a1.87,1.87,0,0,1,.46-.92.64.64,0,0,1,1,.07,1.84,1.84,0,0,1,.28.58,2.89,2.89,0,0,0,0-.29,1.82,1.82,0,0,0-.35-1.09.64.64,0,0,0-1-.07,1.86,1.86,0,0,0-.48,1A2.14,2.14,0,0,0,19.14,17.77Z"/>
        <path class="bd7ad795-3272-4b5d-a3d6-6d64ce19c437" d="M19.41,17.08a1,1,0,0,1,.17-.48.53.53,0,0,1,.93,0,1.09,1.09,0,0,1,.11.51c0,.57-.33,1-.67,1S19.38,17.66,19.41,17.08Z"/>
        <path class="abb9693e-c068-4bae-ac9c-57d50a1daa4e" d="M19.94,17.93a.69.69,0,0,1-.51-.49c.05.4.26.71.52.72s.64-.43.67-1C20.56,17.36,20.28,18,19.94,17.93Z"/>
        <path class="ac6bb97e-4822-491c-a55c-9d1706041a37" d="M19.41,17.06l.08-.13c.22-.35.74-.56,1.13.23a1.09,1.09,0,0,0-.11-.51.53.53,0,0,0-.93,0A1.16,1.16,0,0,0,19.41,17.06Z"/>
      </g>
      <g>
        <path class="b9e1412b-413b-489b-88cb-3585595d34fc" d="M22,21.94a1.82,1.82,0,0,1,.39-1.08.64.64,0,0,1,1,0,1.82,1.82,0,0,1,.44,1.05c0,.89-.37,1.61-.88,1.62S22,22.82,22,21.94Z"/>
        <path class="e93a4f16-9e6e-4bb5-829f-e10130f69a21" d="M21.91,21.66a1.82,1.82,0,0,1,.39-1.08.64.64,0,0,1,1,0,1.74,1.74,0,0,1,.45,1.05c0,.88-.38,1.61-.89,1.62S21.94,22.54,21.91,21.66Z"/>
        <path class="b636adf4-fca2-41e9-b4b0-c6a8ae259abb" d="M22,22.34a1.91,1.91,0,0,1,.38-1,.65.65,0,0,1,1,0,3,3,0,0,1,.33.55c0-.09,0-.19,0-.29a1.74,1.74,0,0,0-.45-1.05.64.64,0,0,0-1,0,1.82,1.82,0,0,0-.39,1.08A2.93,2.93,0,0,0,22,22.34Z"/>
        <path class="bd7ad795-3272-4b5d-a3d6-6d64ce19c437" d="M22.23,21.62a1.06,1.06,0,0,1,.13-.5.53.53,0,0,1,.93,0,1.09,1.09,0,0,1,.16.5c0,.58-.25,1.05-.58,1.06S22.25,22.2,22.23,21.62Z"/>
        <path class="abb9693e-c068-4bae-ac9c-57d50a1daa4e" d="M22.84,22.42a.7.7,0,0,1-.56-.45c.09.4.32.69.59.68s.59-.48.58-1.06C23.4,21.8,23.17,22.41,22.84,22.42Z"/>
        <path class="ac6bb97e-4822-491c-a55c-9d1706041a37" d="M22.23,21.6l.06-.13c.19-.37.69-.63,1.16.12a1.09,1.09,0,0,0-.16-.5.53.53,0,0,0-.93,0A1.15,1.15,0,0,0,22.23,21.6Z"/>
      </g>
      <g>
        <path class="b9e1412b-413b-489b-88cb-3585595d34fc" d="M19.15,28.12A1.82,1.82,0,0,1,19.54,27a.64.64,0,0,1,1,0A1.85,1.85,0,0,1,21,28.07c0,.88-.37,1.61-.89,1.62S19.17,29,19.15,28.12Z"/>
        <path class="e93a4f16-9e6e-4bb5-829f-e10130f69a21" d="M19.11,27.83a1.77,1.77,0,0,1,.39-1.07.64.64,0,0,1,1,0A1.85,1.85,0,0,1,21,27.79c0,.88-.37,1.6-.88,1.62S19.13,28.72,19.11,27.83Z"/>
        <path class="b636adf4-fca2-41e9-b4b0-c6a8ae259abb" d="M19.22,28.51a1.86,1.86,0,0,1,.38-1,.64.64,0,0,1,1,0,1.87,1.87,0,0,1,.33.55,1.41,1.41,0,0,0,0-.29,1.85,1.85,0,0,0-.44-1.06.64.64,0,0,0-1,0,1.77,1.77,0,0,0-.39,1.07A2.76,2.76,0,0,0,19.22,28.51Z"/>
        <path class="bd7ad795-3272-4b5d-a3d6-6d64ce19c437" d="M19.43,27.8a1.06,1.06,0,0,1,.13-.5.53.53,0,0,1,.93,0,1,1,0,0,1,.15.49c0,.58-.24,1.06-.58,1.06S19.45,28.37,19.43,27.8Z"/>
        <path class="abb9693e-c068-4bae-ac9c-57d50a1daa4e" d="M20,28.6a.71.71,0,0,1-.55-.45c.09.4.32.68.58.67s.6-.48.58-1.06C20.6,28,20.37,28.59,20,28.6Z"/>
        <path class="ac6bb97e-4822-491c-a55c-9d1706041a37" d="M19.43,27.78l.06-.14c.19-.37.69-.63,1.15.12a1,1,0,0,0-.15-.49.53.53,0,0,0-.93,0A1,1,0,0,0,19.43,27.78Z"/>
      </g>
      <g>
        <path class="b9e1412b-413b-489b-88cb-3585595d34fc" d="M17.05,34.92a1.88,1.88,0,0,1,.38-1.08.65.65,0,0,1,1,0,1.82,1.82,0,0,1,.44,1c0,.89-.37,1.61-.89,1.62S17.07,35.8,17.05,34.92Z"/>
        <path class="e93a4f16-9e6e-4bb5-829f-e10130f69a21" d="M17,34.64a1.82,1.82,0,0,1,.39-1.08.64.64,0,0,1,1,0,1.79,1.79,0,0,1,.44,1.05c0,.88-.37,1.61-.88,1.62S17,35.52,17,34.64Z"/>
        <path class="b636adf4-fca2-41e9-b4b0-c6a8ae259abb" d="M17.12,35.32a1.83,1.83,0,0,1,.38-1,.64.64,0,0,1,1,0,2.17,2.17,0,0,1,.33.55,2.71,2.71,0,0,0,0-.29,1.79,1.79,0,0,0-.44-1.05.64.64,0,0,0-1,0A1.82,1.82,0,0,0,17,34.64,2.48,2.48,0,0,0,17.12,35.32Z"/>
        <path class="bd7ad795-3272-4b5d-a3d6-6d64ce19c437" d="M17.33,34.6a1.06,1.06,0,0,1,.13-.5.53.53,0,0,1,.93,0,1.08,1.08,0,0,1,.15.5c0,.58-.24,1-.58,1.06S17.34,35.18,17.33,34.6Z"/>
        <path class="abb9693e-c068-4bae-ac9c-57d50a1daa4e" d="M17.93,35.4a.68.68,0,0,1-.55-.45c.09.4.32.69.58.68s.6-.48.58-1.06C18.5,34.78,18.27,35.39,17.93,35.4Z"/>
        <path class="ac6bb97e-4822-491c-a55c-9d1706041a37" d="M17.33,34.58l.06-.13c.19-.37.69-.63,1.15.12a1.08,1.08,0,0,0-.15-.5.53.53,0,0,0-.93,0A1,1,0,0,0,17.33,34.58Z"/>
      </g>
      <g>
        <path class="b9e1412b-413b-489b-88cb-3585595d34fc" d="M14.72,44.82a1.82,1.82,0,0,1,.38-1.07.65.65,0,0,1,1,0,1.85,1.85,0,0,1,.44,1.06c0,.88-.38,1.6-.89,1.62S14.74,45.7,14.72,44.82Z"/>
        <path class="e93a4f16-9e6e-4bb5-829f-e10130f69a21" d="M14.68,44.54a1.82,1.82,0,0,1,.39-1.08.64.64,0,0,1,1,0,1.79,1.79,0,0,1,.44,1.05c0,.89-.37,1.61-.88,1.62S14.7,45.42,14.68,44.54Z"/>
        <path class="b636adf4-fca2-41e9-b4b0-c6a8ae259abb" d="M14.79,45.22a1.83,1.83,0,0,1,.38-1,.64.64,0,0,1,1,0,2.17,2.17,0,0,1,.33.55,2.71,2.71,0,0,0,0-.29,1.79,1.79,0,0,0-.44-1.05.64.64,0,0,0-1,0,1.82,1.82,0,0,0-.39,1.08A2.48,2.48,0,0,0,14.79,45.22Z"/>
        <path class="bd7ad795-3272-4b5d-a3d6-6d64ce19c437" d="M15,44.5a1.06,1.06,0,0,1,.13-.5.53.53,0,0,1,.93,0,1.08,1.08,0,0,1,.15.5c0,.58-.24,1.05-.58,1.06S15,45.08,15,44.5Z"/>
        <path class="abb9693e-c068-4bae-ac9c-57d50a1daa4e" d="M15.6,45.3a.7.7,0,0,1-.56-.45c.1.4.33.69.59.68s.6-.48.58-1.06C16.17,44.68,15.94,45.3,15.6,45.3Z"/>
        <path class="ac6bb97e-4822-491c-a55c-9d1706041a37" d="M15,44.48l.06-.13c.19-.37.69-.63,1.15.12a1.08,1.08,0,0,0-.15-.5.53.53,0,0,0-.93,0A1,1,0,0,0,15,44.48Z"/>
      </g>
      <g>
        <path class="b9e1412b-413b-489b-88cb-3585595d34fc" d="M18.84,40.49a1.88,1.88,0,0,1,.38-1.08.65.65,0,0,1,1,0,1.79,1.79,0,0,1,.44,1c0,.88-.38,1.61-.89,1.62S18.86,41.37,18.84,40.49Z"/>
        <path class="e93a4f16-9e6e-4bb5-829f-e10130f69a21" d="M18.8,40.21a1.82,1.82,0,0,1,.39-1.08.64.64,0,0,1,1,0,1.85,1.85,0,0,1,.44,1.06c0,.88-.37,1.61-.88,1.62S18.82,41.09,18.8,40.21Z"/>
        <path class="b636adf4-fca2-41e9-b4b0-c6a8ae259abb" d="M18.91,40.88a1.83,1.83,0,0,1,.38-1,.64.64,0,0,1,1,0,2,2,0,0,1,.33.55,2.71,2.71,0,0,0,0-.29,1.85,1.85,0,0,0-.44-1.06.64.64,0,0,0-1,0,1.82,1.82,0,0,0-.39,1.08A2.35,2.35,0,0,0,18.91,40.88Z"/>
        <path class="bd7ad795-3272-4b5d-a3d6-6d64ce19c437" d="M19.12,40.17a1.06,1.06,0,0,1,.13-.5.53.53,0,0,1,.93,0,1.08,1.08,0,0,1,.15.5c0,.57-.24,1-.58,1.06S19.13,40.75,19.12,40.17Z"/>
        <path class="abb9693e-c068-4bae-ac9c-57d50a1daa4e" d="M19.72,41a.69.69,0,0,1-.55-.45c.09.4.32.68.58.68s.6-.49.58-1.06C20.29,40.35,20.06,41,19.72,41Z"/>
        <path class="ac6bb97e-4822-491c-a55c-9d1706041a37" d="M19.12,40.15l.06-.14c.19-.37.69-.62,1.15.13a1.08,1.08,0,0,0-.15-.5.53.53,0,0,0-.93,0A1,1,0,0,0,19.12,40.15Z"/>
      </g>
      <g>
        <path class="b9e1412b-413b-489b-88cb-3585595d34fc" d="M22.94,44.71a1.82,1.82,0,0,1,.39-1.08.64.64,0,0,1,1,0,1.85,1.85,0,0,1,.44,1.06c0,.88-.37,1.61-.88,1.62S23,45.59,22.94,44.71Z"/>
        <path class="e93a4f16-9e6e-4bb5-829f-e10130f69a21" d="M22.91,44.42a1.85,1.85,0,0,1,.38-1.07.65.65,0,0,1,1,0,1.85,1.85,0,0,1,.44,1.06c0,.88-.38,1.6-.89,1.62S22.93,45.31,22.91,44.42Z"/>
        <path class="b636adf4-fca2-41e9-b4b0-c6a8ae259abb" d="M23,45.1a2,2,0,0,1,.39-1,.64.64,0,0,1,1,0,2.11,2.11,0,0,1,.33.55,2.81,2.81,0,0,0,0-.29,1.85,1.85,0,0,0-.44-1.06.65.65,0,0,0-1,0,1.85,1.85,0,0,0-.38,1.07A2.37,2.37,0,0,0,23,45.1Z"/>
        <path class="bd7ad795-3272-4b5d-a3d6-6d64ce19c437" d="M23.23,44.39a1.06,1.06,0,0,1,.12-.5.53.53,0,0,1,.93,0,1,1,0,0,1,.16.5c0,.57-.25,1-.58,1S23.24,45,23.23,44.39Z"/>
        <path class="abb9693e-c068-4bae-ac9c-57d50a1daa4e" d="M23.83,45.19a.74.74,0,0,1-.56-.45c.1.4.33.68.59.67s.59-.48.58-1C24.39,44.56,24.16,45.18,23.83,45.19Z"/>
        <path class="ac6bb97e-4822-491c-a55c-9d1706041a37" d="M23.23,44.37a.35.35,0,0,1,.06-.14c.19-.37.69-.63,1.15.13a1,1,0,0,0-.16-.5.53.53,0,0,0-.93,0A1.06,1.06,0,0,0,23.23,44.37Z"/>
      </g>
      <g>
        <path class="b9e1412b-413b-489b-88cb-3585595d34fc" d="M16.54,23.06A1.86,1.86,0,0,1,17,22a.64.64,0,0,1,1,.06,1.78,1.78,0,0,1,.35,1.09c-.06.88-.52,1.57-1,1.54S16.48,23.94,16.54,23.06Z"/>
        <path class="e93a4f16-9e6e-4bb5-829f-e10130f69a21" d="M16.53,22.77a1.8,1.8,0,0,1,.48-1,.64.64,0,0,1,1,.07,1.82,1.82,0,0,1,.35,1.09c-.06.88-.52,1.57-1,1.53S16.47,23.65,16.53,22.77Z"/>
        <path class="b636adf4-fca2-41e9-b4b0-c6a8ae259abb" d="M16.57,23.46a2,2,0,0,1,.47-.93.64.64,0,0,1,1,.07,2.08,2.08,0,0,1,.28.58,2.54,2.54,0,0,0,0-.29A1.82,1.82,0,0,0,18,21.8a.64.64,0,0,0-1-.07,1.8,1.8,0,0,0-.48,1A2.59,2.59,0,0,0,16.57,23.46Z"/>
        <path class="bd7ad795-3272-4b5d-a3d6-6d64ce19c437" d="M16.85,22.76a1,1,0,0,1,.17-.48.53.53,0,0,1,.93,0,1.09,1.09,0,0,1,.11.51c0,.57-.34,1-.67,1S16.81,23.34,16.85,22.76Z"/>
        <path class="abb9693e-c068-4bae-ac9c-57d50a1daa4e" d="M17.38,23.61a.72.72,0,0,1-.52-.49c.06.4.27.71.53.72s.63-.43.67-1C18,23,17.71,23.64,17.38,23.61Z"/>
        <path class="ac6bb97e-4822-491c-a55c-9d1706041a37" d="M16.85,22.74l.07-.13c.23-.35.75-.56,1.14.23a1.09,1.09,0,0,0-.11-.51.53.53,0,0,0-.93,0A1,1,0,0,0,16.85,22.74Z"/>
      </g>
      <g>
        <path class="b9e1412b-413b-489b-88cb-3585595d34fc" d="M12.64,29.12a1.86,1.86,0,0,1,.48-1,.64.64,0,0,1,1,.07,1.76,1.76,0,0,1,.35,1.09c-.06.88-.51,1.57-1,1.53S12.59,30,12.64,29.12Z"/>
        <path class="e93a4f16-9e6e-4bb5-829f-e10130f69a21" d="M12.63,28.84a1.86,1.86,0,0,1,.48-1,.64.64,0,0,1,1,.06A1.84,1.84,0,0,1,14.48,29c-.06.88-.52,1.57-1,1.54S12.57,29.72,12.63,28.84Z"/>
        <path class="b636adf4-fca2-41e9-b4b0-c6a8ae259abb" d="M12.68,29.52a1.83,1.83,0,0,1,.46-.92.64.64,0,0,1,1,.06,2,2,0,0,1,.28.58,2.54,2.54,0,0,0,0-.29,1.84,1.84,0,0,0-.35-1.09.64.64,0,0,0-1-.06,1.86,1.86,0,0,0-.48,1A2.16,2.16,0,0,0,12.68,29.52Z"/>
        <path class="bd7ad795-3272-4b5d-a3d6-6d64ce19c437" d="M13,28.83a1,1,0,0,1,.17-.49.54.54,0,0,1,.93.05,1.12,1.12,0,0,1,.11.51c0,.58-.34,1-.67,1S12.92,29.4,13,28.83Z"/>
        <path class="abb9693e-c068-4bae-ac9c-57d50a1daa4e" d="M13.48,29.68c-.2,0-.42-.24-.51-.5,0,.41.26.71.52.73s.64-.43.67-1C14.1,29.11,13.81,29.7,13.48,29.68Z"/>
        <path class="ac6bb97e-4822-491c-a55c-9d1706041a37" d="M13,28.81l.08-.13c.22-.35.74-.56,1.13.22a1.12,1.12,0,0,0-.11-.51.54.54,0,0,0-.93-.05A1.26,1.26,0,0,0,13,28.81Z"/>
      </g>
      <g>
        <path class="b9e1412b-413b-489b-88cb-3585595d34fc" d="M11.88,35.44a1.86,1.86,0,0,1,.48-1,.64.64,0,0,1,1,.06,1.78,1.78,0,0,1,.35,1.09c-.06.88-.52,1.57-1,1.54S11.82,36.32,11.88,35.44Z"/>
        <path class="e93a4f16-9e6e-4bb5-829f-e10130f69a21" d="M11.87,35.15a1.8,1.8,0,0,1,.48-1,.64.64,0,0,1,1,.07,1.82,1.82,0,0,1,.35,1.09c-.06.88-.52,1.57-1,1.53S11.81,36,11.87,35.15Z"/>
        <path class="b636adf4-fca2-41e9-b4b0-c6a8ae259abb" d="M11.91,35.83a2,2,0,0,1,.47-.92.64.64,0,0,1,1,.07,2.08,2.08,0,0,1,.28.58,2.89,2.89,0,0,0,0-.29,1.82,1.82,0,0,0-.35-1.09.64.64,0,0,0-1-.07,1.8,1.8,0,0,0-.48,1A2.49,2.49,0,0,0,11.91,35.83Z"/>
        <path class="bd7ad795-3272-4b5d-a3d6-6d64ce19c437" d="M12.19,35.14a1,1,0,0,1,.17-.48.53.53,0,0,1,.93.05,1.09,1.09,0,0,1,.11.51c0,.57-.34,1-.67,1S12.15,35.72,12.19,35.14Z"/>
        <path class="abb9693e-c068-4bae-ac9c-57d50a1daa4e" d="M12.72,36a.69.69,0,0,1-.51-.49c0,.4.26.71.52.72s.63-.43.67-1C13.34,35.42,13.05,36,12.72,36Z"/>
        <path class="ac6bb97e-4822-491c-a55c-9d1706041a37" d="M12.19,35.12a.83.83,0,0,0,.07-.13c.23-.35.75-.56,1.14.23a1.09,1.09,0,0,0-.11-.51.53.53,0,0,0-.93-.05A1.16,1.16,0,0,0,12.19,35.12Z"/>
      </g>
      <g>
        <path class="b9e1412b-413b-489b-88cb-3585595d34fc" d="M18.64,48.73a1.86,1.86,0,0,1,.48-1,.64.64,0,0,1,1,.07,1.76,1.76,0,0,1,.35,1.09c-.06.88-.52,1.57-1,1.53S18.58,49.61,18.64,48.73Z"/>
        <path class="e93a4f16-9e6e-4bb5-829f-e10130f69a21" d="M18.63,48.45a1.8,1.8,0,0,1,.48-1,.64.64,0,0,1,1,.06,1.86,1.86,0,0,1,.35,1.09c-.06.88-.52,1.57-1,1.54S18.57,49.33,18.63,48.45Z"/>
        <path class="b636adf4-fca2-41e9-b4b0-c6a8ae259abb" d="M18.67,49.13a1.92,1.92,0,0,1,.47-.92.64.64,0,0,1,1,.06,2.23,2.23,0,0,1,.28.58,2.54,2.54,0,0,0,0-.29,1.86,1.86,0,0,0-.35-1.09.64.64,0,0,0-1-.06,1.8,1.8,0,0,0-.48,1A2.52,2.52,0,0,0,18.67,49.13Z"/>
        <path class="bd7ad795-3272-4b5d-a3d6-6d64ce19c437" d="M19,48.44a1,1,0,0,1,.17-.49.54.54,0,0,1,.93,0,1.12,1.12,0,0,1,.11.51c0,.58-.34,1-.67,1S18.91,49,19,48.44Z"/>
        <path class="abb9693e-c068-4bae-ac9c-57d50a1daa4e" d="M19.48,49.29c-.2,0-.42-.24-.52-.5.06.41.27.71.53.73s.63-.43.67-1C20.1,48.72,19.81,49.31,19.48,49.29Z"/>
        <path class="ac6bb97e-4822-491c-a55c-9d1706041a37" d="M19,48.42c0-.05.05-.09.07-.13.23-.35.75-.56,1.14.22a1.12,1.12,0,0,0-.11-.51.54.54,0,0,0-.93,0A1.11,1.11,0,0,0,19,48.42Z"/>
      </g>
      <g>
        <path class="b9e1412b-413b-489b-88cb-3585595d34fc" d="M25.46,48.92a1.8,1.8,0,0,1,.48-1A.64.64,0,0,1,27,48,1.82,1.82,0,0,1,27.31,49c-.06.88-.52,1.57-1,1.53S25.4,49.8,25.46,48.92Z"/>
        <path class="e93a4f16-9e6e-4bb5-829f-e10130f69a21" d="M25.45,48.64a1.8,1.8,0,0,1,.48-1,.64.64,0,0,1,1,.06,1.86,1.86,0,0,1,.34,1.09c-.05.88-.51,1.57-1,1.54S25.39,49.52,25.45,48.64Z"/>
        <path class="b636adf4-fca2-41e9-b4b0-c6a8ae259abb" d="M25.49,49.32A1.92,1.92,0,0,1,26,48.4a.64.64,0,0,1,1,.06,2.6,2.6,0,0,1,.28.58,1.36,1.36,0,0,0,0-.29A1.86,1.86,0,0,0,27,47.66a.64.64,0,0,0-1-.06,1.8,1.8,0,0,0-.48,1A2.52,2.52,0,0,0,25.49,49.32Z"/>
        <path class="bd7ad795-3272-4b5d-a3d6-6d64ce19c437" d="M25.77,48.63a1,1,0,0,1,.17-.49.54.54,0,0,1,.93,0,1.12,1.12,0,0,1,.11.51c0,.58-.34,1-.67,1S25.73,49.2,25.77,48.63Z"/>
        <path class="abb9693e-c068-4bae-ac9c-57d50a1daa4e" d="M26.3,49.48c-.2,0-.42-.24-.52-.5.06.41.26.71.53.73s.63-.43.67-1C26.91,48.91,26.63,49.5,26.3,49.48Z"/>
        <path class="ac6bb97e-4822-491c-a55c-9d1706041a37" d="M25.77,48.61s.05-.09.07-.13c.22-.35.75-.56,1.14.22a1.12,1.12,0,0,0-.11-.51.54.54,0,0,0-.93,0A1.11,1.11,0,0,0,25.77,48.61Z"/>
      </g>
      <g>
        <path class="b9e1412b-413b-489b-88cb-3585595d34fc" d="M10.92,41.1a1.8,1.8,0,0,1,.48-1,.64.64,0,0,1,1,.07,1.82,1.82,0,0,1,.35,1.09c-.06.88-.52,1.56-1,1.53S10.86,42,10.92,41.1Z"/>
        <path class="e93a4f16-9e6e-4bb5-829f-e10130f69a21" d="M10.91,40.82a1.8,1.8,0,0,1,.48-1,.64.64,0,0,1,1,.06,1.83,1.83,0,0,1,.34,1.09c-.05.88-.51,1.57-1,1.54S10.85,41.7,10.91,40.82Z"/>
        <path class="b636adf4-fca2-41e9-b4b0-c6a8ae259abb" d="M11,41.5a1.92,1.92,0,0,1,.47-.92.64.64,0,0,1,1,.06,2.6,2.6,0,0,1,.28.58,1.36,1.36,0,0,0,0-.29,1.83,1.83,0,0,0-.34-1.09.64.64,0,0,0-1-.06,1.8,1.8,0,0,0-.48,1A2.52,2.52,0,0,0,11,41.5Z"/>
        <path class="bd7ad795-3272-4b5d-a3d6-6d64ce19c437" d="M11.23,40.81a1,1,0,0,1,.17-.49.54.54,0,0,1,.93,0,1.12,1.12,0,0,1,.11.51c0,.58-.34,1-.67,1S11.19,41.38,11.23,40.81Z"/>
        <path class="abb9693e-c068-4bae-ac9c-57d50a1daa4e" d="M11.76,41.66a.76.76,0,0,1-.52-.5c.06.41.26.71.53.73s.63-.43.67-1C12.37,41.09,12.09,41.68,11.76,41.66Z"/>
        <path class="ac6bb97e-4822-491c-a55c-9d1706041a37" d="M11.23,40.79s0-.09.07-.13c.22-.35.75-.57,1.14.22a1.12,1.12,0,0,0-.11-.51.54.54,0,0,0-.93,0A1.06,1.06,0,0,0,11.23,40.79Z"/>
      </g>
      <g>
        <path class="b9e1412b-413b-489b-88cb-3585595d34fc" d="M14.71,17.52a1.86,1.86,0,0,1,.48-1,.64.64,0,0,1,1,.07,1.76,1.76,0,0,1,.35,1.09c0,.88-.51,1.56-1,1.53S14.66,18.4,14.71,17.52Z"/>
        <path class="e93a4f16-9e6e-4bb5-829f-e10130f69a21" d="M14.7,17.24a1.86,1.86,0,0,1,.48-1,.64.64,0,0,1,1,.06,1.78,1.78,0,0,1,.35,1.09c-.06.88-.52,1.57-1,1.54S14.64,18.12,14.7,17.24Z"/>
        <path class="b636adf4-fca2-41e9-b4b0-c6a8ae259abb" d="M14.75,17.92a1.83,1.83,0,0,1,.46-.92.64.64,0,0,1,1,.06,2,2,0,0,1,.28.58,2.54,2.54,0,0,0,0-.29,1.78,1.78,0,0,0-.35-1.09.64.64,0,0,0-1-.06,1.86,1.86,0,0,0-.48,1A2.16,2.16,0,0,0,14.75,17.92Z"/>
        <path class="bd7ad795-3272-4b5d-a3d6-6d64ce19c437" d="M15,17.23a1,1,0,0,1,.17-.49.54.54,0,0,1,.93.05,1.12,1.12,0,0,1,.11.51c0,.58-.33,1-.67,1S15,17.8,15,17.23Z"/>
        <path class="abb9693e-c068-4bae-ac9c-57d50a1daa4e" d="M15.55,18.08c-.2,0-.42-.24-.51-.5.05.41.26.71.52.73s.64-.43.67-1C16.17,17.51,15.89,18.1,15.55,18.08Z"/>
        <path class="ac6bb97e-4822-491c-a55c-9d1706041a37" d="M15,17.21l.08-.13c.22-.35.74-.57,1.13.22a1.12,1.12,0,0,0-.11-.51.54.54,0,0,0-.93-.05A1.2,1.2,0,0,0,15,17.21Z"/>
      </g>
      <g>
        <path class="b9e1412b-413b-489b-88cb-3585595d34fc" d="M5.9,23.22a1.81,1.81,0,0,1,.49-1,.64.64,0,0,1,1,.07,1.81,1.81,0,0,1,.34,1.09c0,.88-.51,1.56-1,1.53S5.85,24.1,5.9,23.22Z"/>
        <path class="e93a4f16-9e6e-4bb5-829f-e10130f69a21" d="M5.89,22.94a1.86,1.86,0,0,1,.48-1,.64.64,0,0,1,1,.06,1.78,1.78,0,0,1,.35,1.09c0,.88-.51,1.57-1,1.54S5.84,23.82,5.89,22.94Z"/>
        <path class="b636adf4-fca2-41e9-b4b0-c6a8ae259abb" d="M5.94,23.62a1.84,1.84,0,0,1,.47-.92.64.64,0,0,1,1,.06,2.6,2.6,0,0,1,.28.58l0-.29A1.78,1.78,0,0,0,7.39,22a.64.64,0,0,0-1-.06,1.86,1.86,0,0,0-.48,1A2.51,2.51,0,0,0,5.94,23.62Z"/>
        <path class="bd7ad795-3272-4b5d-a3d6-6d64ce19c437" d="M6.21,22.93a1.15,1.15,0,0,1,.17-.49.54.54,0,0,1,.93,0,.91.91,0,0,1,.11.51c0,.58-.33,1-.67,1S6.18,23.5,6.21,22.93Z"/>
        <path class="abb9693e-c068-4bae-ac9c-57d50a1daa4e" d="M6.74,23.78a.73.73,0,0,1-.51-.5c.06.41.26.71.52.73s.64-.43.67-1C7.36,23.21,7.08,23.8,6.74,23.78Z"/>
        <path class="ac6bb97e-4822-491c-a55c-9d1706041a37" d="M6.22,22.91a.54.54,0,0,1,.07-.13c.22-.35.74-.57,1.13.22a.91.91,0,0,0-.11-.51.54.54,0,0,0-.93,0A1.05,1.05,0,0,0,6.22,22.91Z"/>
      </g>
      <g>
        <path class="b9e1412b-413b-489b-88cb-3585595d34fc" d="M9.82,19a1.81,1.81,0,0,1,.49-1,.65.65,0,0,1,1,.07,1.81,1.81,0,0,1,.34,1.09c-.05.88-.51,1.57-1,1.53S9.77,19.9,9.82,19Z"/>
        <path class="e93a4f16-9e6e-4bb5-829f-e10130f69a21" d="M9.81,18.74a1.86,1.86,0,0,1,.48-1,.64.64,0,0,1,1,.06,1.81,1.81,0,0,1,.35,1.1c-.05.88-.51,1.56-1,1.53S9.76,19.62,9.81,18.74Z"/>
        <path class="b636adf4-fca2-41e9-b4b0-c6a8ae259abb" d="M9.86,19.42a1.84,1.84,0,0,1,.47-.92.64.64,0,0,1,1,.07,2.23,2.23,0,0,1,.28.58,2.85,2.85,0,0,0,0-.29,1.81,1.81,0,0,0-.35-1.1.64.64,0,0,0-1-.06,1.86,1.86,0,0,0-.48,1A2.51,2.51,0,0,0,9.86,19.42Z"/>
        <path class="bd7ad795-3272-4b5d-a3d6-6d64ce19c437" d="M10.13,18.73a1.16,1.16,0,0,1,.18-.49.53.53,0,0,1,.92.05.92.92,0,0,1,.11.52c0,.57-.33,1-.67,1S10.1,19.3,10.13,18.73Z"/>
        <path class="abb9693e-c068-4bae-ac9c-57d50a1daa4e" d="M10.66,19.58c-.2,0-.42-.24-.51-.5.06.41.26.71.52.73s.64-.43.67-1C11.28,19,11,19.6,10.66,19.58Z"/>
        <path class="ac6bb97e-4822-491c-a55c-9d1706041a37" d="M10.14,18.71a.54.54,0,0,1,.07-.13c.22-.35.74-.56,1.13.23a.92.92,0,0,0-.11-.52.53.53,0,0,0-.92-.05A1,1,0,0,0,10.14,18.71Z"/>
      </g>
      <g>
        <path class="b9e1412b-413b-489b-88cb-3585595d34fc" d="M10.59,23.62a1.81,1.81,0,0,1,.49-1,.64.64,0,0,1,1,.07,1.81,1.81,0,0,1,.34,1.09c0,.88-.51,1.56-1,1.53S10.54,24.5,10.59,23.62Z"/>
        <path class="e93a4f16-9e6e-4bb5-829f-e10130f69a21" d="M10.58,23.34a1.86,1.86,0,0,1,.48-1,.64.64,0,0,1,1,.06,1.78,1.78,0,0,1,.35,1.09c0,.88-.51,1.57-1,1.54S10.53,24.22,10.58,23.34Z"/>
        <path class="b636adf4-fca2-41e9-b4b0-c6a8ae259abb" d="M10.63,24a1.92,1.92,0,0,1,.47-.92.64.64,0,0,1,1,.06,2.6,2.6,0,0,1,.28.58,2.58,2.58,0,0,0,0-.29,1.78,1.78,0,0,0-.35-1.09.64.64,0,0,0-1-.06,1.86,1.86,0,0,0-.48,1A3,3,0,0,0,10.63,24Z"/>
        <path class="bd7ad795-3272-4b5d-a3d6-6d64ce19c437" d="M10.91,23.33a1,1,0,0,1,.17-.49.53.53,0,0,1,.92.05.91.91,0,0,1,.11.51c0,.58-.33,1-.67,1S10.87,23.9,10.91,23.33Z"/>
        <path class="abb9693e-c068-4bae-ac9c-57d50a1daa4e" d="M11.43,24.18c-.19,0-.42-.24-.51-.5.06.41.26.71.52.73s.64-.43.67-1C12.05,23.61,11.77,24.2,11.43,24.18Z"/>
        <path class="ac6bb97e-4822-491c-a55c-9d1706041a37" d="M10.91,23.31a.54.54,0,0,1,.07-.13c.22-.35.74-.57,1.13.22a.91.91,0,0,0-.11-.51.53.53,0,0,0-.92-.05A1,1,0,0,0,10.91,23.31Z"/>
      </g>
      <g>
        <path class="b9e1412b-413b-489b-88cb-3585595d34fc" d="M6.65,34.08a1.8,1.8,0,0,1,.48-1,.64.64,0,0,1,1,.07,1.81,1.81,0,0,1,.34,1.09c-.05.88-.51,1.57-1,1.53S6.59,35,6.65,34.08Z"/>
        <path class="e93a4f16-9e6e-4bb5-829f-e10130f69a21" d="M6.63,33.8a1.81,1.81,0,0,1,.49-1,.64.64,0,0,1,1,.06,1.83,1.83,0,0,1,.34,1.09c-.05.88-.51,1.57-1,1.54S6.58,34.68,6.63,33.8Z"/>
        <path class="b636adf4-fca2-41e9-b4b0-c6a8ae259abb" d="M6.68,34.48a1.92,1.92,0,0,1,.47-.92.64.64,0,0,1,1,.06,2.6,2.6,0,0,1,.28.58,2.58,2.58,0,0,0,0-.29,1.83,1.83,0,0,0-.34-1.09.64.64,0,0,0-1-.06,1.81,1.81,0,0,0-.49,1A3,3,0,0,0,6.68,34.48Z"/>
        <path class="bd7ad795-3272-4b5d-a3d6-6d64ce19c437" d="M7,33.79a1,1,0,0,1,.17-.49.53.53,0,0,1,.92.05,1,1,0,0,1,.12.51c0,.58-.34,1-.67,1S6.92,34.36,7,33.79Z"/>
        <path class="abb9693e-c068-4bae-ac9c-57d50a1daa4e" d="M7.49,34.64a.72.72,0,0,1-.52-.5c.06.41.26.71.53.73s.63-.43.67-1C8.1,34.07,7.82,34.66,7.49,34.64Z"/>
        <path class="ac6bb97e-4822-491c-a55c-9d1706041a37" d="M7,33.77A.54.54,0,0,1,7,33.64c.22-.35.74-.57,1.14.22a1,1,0,0,0-.12-.51.53.53,0,0,0-.92-.05A1,1,0,0,0,7,33.77Z"/>
      </g>
      <g>
        <path class="b9e1412b-413b-489b-88cb-3585595d34fc" d="M6.16,29a1.8,1.8,0,0,1,.48-1,.64.64,0,0,1,1,.06A1.84,1.84,0,0,1,8,29.15C8,30,7.49,30.72,7,30.69S6.1,29.92,6.16,29Z"/>
        <path class="e93a4f16-9e6e-4bb5-829f-e10130f69a21" d="M6.15,28.75a1.74,1.74,0,0,1,.48-1,.65.65,0,0,1,1,.07A1.81,1.81,0,0,1,8,28.87c0,.88-.51,1.57-1,1.53S6.09,29.63,6.15,28.75Z"/>
        <path class="b636adf4-fca2-41e9-b4b0-c6a8ae259abb" d="M6.19,29.44a2,2,0,0,1,.47-.93.65.65,0,0,1,1,.07,2.6,2.6,0,0,1,.28.58,1.36,1.36,0,0,0,0-.29,1.81,1.81,0,0,0-.34-1.09.65.65,0,0,0-1-.07,1.74,1.74,0,0,0-.48,1A2.59,2.59,0,0,0,6.19,29.44Z"/>
        <path class="bd7ad795-3272-4b5d-a3d6-6d64ce19c437" d="M6.47,28.74a1,1,0,0,1,.17-.48.53.53,0,0,1,.93,0,1.09,1.09,0,0,1,.11.51c0,.57-.34,1-.67,1S6.43,29.32,6.47,28.74Z"/>
        <path class="abb9693e-c068-4bae-ac9c-57d50a1daa4e" d="M7,29.59a.72.72,0,0,1-.52-.49c.06.4.26.71.53.72s.63-.43.67-1C7.61,29,7.33,29.62,7,29.59Z"/>
        <path class="ac6bb97e-4822-491c-a55c-9d1706041a37" d="M6.47,28.72l.07-.13c.22-.35.74-.56,1.14.23a1.09,1.09,0,0,0-.11-.51.53.53,0,0,0-.93,0A1,1,0,0,0,6.47,28.72Z"/>
      </g>
      <g>
        <path class="b9e1412b-413b-489b-88cb-3585595d34fc" d="M24.43,17.37a1.77,1.77,0,0,1,.4-1.07.64.64,0,0,1,1,0,1.77,1.77,0,0,1,.43,1.06c0,.88-.39,1.61-.9,1.61S24.44,18.25,24.43,17.37Z"/>
        <path class="e93a4f16-9e6e-4bb5-829f-e10130f69a21" d="M24.4,17.09A1.77,1.77,0,0,1,24.8,16a.64.64,0,0,1,1,0,1.84,1.84,0,0,1,.43,1.06c0,.88-.39,1.6-.9,1.61S24.41,18,24.4,17.09Z"/>
        <path class="b636adf4-fca2-41e9-b4b0-c6a8ae259abb" d="M24.5,17.77a1.84,1.84,0,0,1,.39-1,.64.64,0,0,1,1,0,1.87,1.87,0,0,1,.33.55,2.71,2.71,0,0,0,0-.29A1.84,1.84,0,0,0,25.82,16a.64.64,0,0,0-1,0,1.77,1.77,0,0,0-.4,1.07A2.48,2.48,0,0,0,24.5,17.77Z"/>
        <path class="bd7ad795-3272-4b5d-a3d6-6d64ce19c437" d="M24.72,17.05a.9.9,0,0,1,.13-.49.53.53,0,0,1,.93,0,1.09,1.09,0,0,1,.15.51c0,.57-.26,1-.59,1.05S24.73,17.63,24.72,17.05Z"/>
        <path class="abb9693e-c068-4bae-ac9c-57d50a1daa4e" d="M25.31,17.86a.71.71,0,0,1-.55-.45c.09.4.32.68.58.68s.6-.48.59-1.05C25.88,17.24,25.65,17.86,25.31,17.86Z"/>
        <path class="ac6bb97e-4822-491c-a55c-9d1706041a37" d="M24.72,17l.06-.13c.19-.37.7-.62,1.15.14a1.09,1.09,0,0,0-.15-.51.53.53,0,0,0-.93,0A1,1,0,0,0,24.72,17Z"/>
      </g>
      <g>
        <path class="b9e1412b-413b-489b-88cb-3585595d34fc" d="M27.19,21.91a1.87,1.87,0,0,1,.4-1.07.64.64,0,0,1,1,0A1.77,1.77,0,0,1,29,21.89c0,.88-.39,1.6-.9,1.61S27.21,22.8,27.19,21.91Z"/>
        <path class="e93a4f16-9e6e-4bb5-829f-e10130f69a21" d="M27.16,21.63a1.77,1.77,0,0,1,.4-1.07.64.64,0,0,1,1,0A1.84,1.84,0,0,1,29,21.6c0,.89-.39,1.61-.9,1.61S27.17,22.51,27.16,21.63Z"/>
        <path class="b636adf4-fca2-41e9-b4b0-c6a8ae259abb" d="M27.26,22.31a1.89,1.89,0,0,1,.39-.95.64.64,0,0,1,1,0,2.07,2.07,0,0,1,.33.56c0-.1,0-.2,0-.3a1.84,1.84,0,0,0-.43-1.06.64.64,0,0,0-1,0,1.77,1.77,0,0,0-.4,1.07A2.43,2.43,0,0,0,27.26,22.31Z"/>
        <path class="bd7ad795-3272-4b5d-a3d6-6d64ce19c437" d="M27.48,21.6a1.06,1.06,0,0,1,.13-.5.53.53,0,0,1,.93,0,1.08,1.08,0,0,1,.15.5c0,.58-.25,1.05-.59,1.05S27.49,22.17,27.48,21.6Z"/>
        <path class="abb9693e-c068-4bae-ac9c-57d50a1daa4e" d="M28.07,22.41a.73.73,0,0,1-.55-.46c.09.4.32.69.58.68s.6-.47.59-1.05C28.64,21.79,28.41,22.4,28.07,22.41Z"/>
        <path class="ac6bb97e-4822-491c-a55c-9d1706041a37" d="M27.48,21.58l.06-.14c.19-.36.7-.62,1.15.14a1.08,1.08,0,0,0-.15-.5.53.53,0,0,0-.93,0A1.07,1.07,0,0,0,27.48,21.58Z"/>
      </g>
      <g>
        <path class="b9e1412b-413b-489b-88cb-3585595d34fc" d="M30.15,27.08a1.83,1.83,0,0,1,.4-1.08.64.64,0,0,1,1,0A1.77,1.77,0,0,1,32,27.05c0,.88-.39,1.6-.9,1.61S30.16,28,30.15,27.08Z"/>
        <path class="e93a4f16-9e6e-4bb5-829f-e10130f69a21" d="M30.12,26.8a1.8,1.8,0,0,1,.4-1.08.64.64,0,0,1,1,0A1.84,1.84,0,0,1,32,26.77c0,.88-.39,1.6-.9,1.61S30.13,27.68,30.12,26.8Z"/>
        <path class="b636adf4-fca2-41e9-b4b0-c6a8ae259abb" d="M30.22,27.47a1.84,1.84,0,0,1,.39-.95.64.64,0,0,1,1,0,2.07,2.07,0,0,1,.33.56,2.81,2.81,0,0,0,0-.29,1.84,1.84,0,0,0-.43-1.06.64.64,0,0,0-1,0,1.8,1.8,0,0,0-.4,1.08A2.35,2.35,0,0,0,30.22,27.47Z"/>
        <path class="bd7ad795-3272-4b5d-a3d6-6d64ce19c437" d="M30.44,26.76a1.06,1.06,0,0,1,.13-.5.53.53,0,0,1,.93,0,1.08,1.08,0,0,1,.15.5c0,.58-.26,1.05-.59,1.05S30.45,27.34,30.44,26.76Z"/>
        <path class="abb9693e-c068-4bae-ac9c-57d50a1daa4e" d="M31,27.57a.71.71,0,0,1-.55-.46c.09.4.32.69.58.68s.6-.47.59-1.05C31.6,27,31.37,27.56,31,27.57Z"/>
        <path class="ac6bb97e-4822-491c-a55c-9d1706041a37" d="M30.44,26.74l.06-.13c.19-.37.7-.62,1.15.13a1.08,1.08,0,0,0-.15-.5.53.53,0,0,0-.93,0A1,1,0,0,0,30.44,26.74Z"/>
      </g>
      <g>
        <path class="b9e1412b-413b-489b-88cb-3585595d34fc" d="M28.84,33.29a1.83,1.83,0,0,1,.4-1.08.64.64,0,0,1,1,0,1.77,1.77,0,0,1,.43,1.06c0,.88-.39,1.6-.9,1.61S28.85,34.17,28.84,33.29Z"/>
        <path class="e93a4f16-9e6e-4bb5-829f-e10130f69a21" d="M28.81,33a1.74,1.74,0,0,1,.4-1.07.64.64,0,0,1,1,0A1.87,1.87,0,0,1,30.66,33c0,.88-.39,1.6-.9,1.61S28.82,33.89,28.81,33Z"/>
        <path class="b636adf4-fca2-41e9-b4b0-c6a8ae259abb" d="M28.91,33.68a1.8,1.8,0,0,1,.39-1,.64.64,0,0,1,1,0,2.07,2.07,0,0,1,.33.56,2.81,2.81,0,0,0,0-.29,1.87,1.87,0,0,0-.43-1.07.64.64,0,0,0-1,0,1.74,1.74,0,0,0-.4,1.07A2.37,2.37,0,0,0,28.91,33.68Z"/>
        <path class="bd7ad795-3272-4b5d-a3d6-6d64ce19c437" d="M29.13,33a1,1,0,0,1,.13-.5.53.53,0,0,1,.93,0,1.08,1.08,0,0,1,.15.5c0,.58-.26,1-.59,1S29.14,33.55,29.13,33Z"/>
        <path class="abb9693e-c068-4bae-ac9c-57d50a1daa4e" d="M29.72,33.78a.73.73,0,0,1-.55-.46c.09.4.32.69.58.68s.6-.47.59-1C30.29,33.16,30.06,33.77,29.72,33.78Z"/>
        <path class="ac6bb97e-4822-491c-a55c-9d1706041a37" d="M29.13,33l.06-.14c.19-.36.7-.62,1.15.14a1.08,1.08,0,0,0-.15-.5.53.53,0,0,0-.93,0A1,1,0,0,0,29.13,33Z"/>
      </g>
      <g>
        <path class="b9e1412b-413b-489b-88cb-3585595d34fc" d="M31.92,39.39a1.8,1.8,0,0,1,.4-1.07.64.64,0,0,1,1,0,1.87,1.87,0,0,1,.43,1.07c0,.88-.39,1.6-.9,1.61S31.93,40.28,31.92,39.39Z"/>
        <path class="e93a4f16-9e6e-4bb5-829f-e10130f69a21" d="M31.88,39.11a1.84,1.84,0,0,1,.4-1.07.64.64,0,0,1,1,0,1.85,1.85,0,0,1,.44,1.06c0,.89-.39,1.61-.91,1.61S31.9,40,31.88,39.11Z"/>
        <path class="b636adf4-fca2-41e9-b4b0-c6a8ae259abb" d="M32,39.79a1.93,1.93,0,0,1,.4-1,.64.64,0,0,1,1,0,2.48,2.48,0,0,1,.32.55,2.64,2.64,0,0,0,0-.29A1.85,1.85,0,0,0,33.3,38a.64.64,0,0,0-1,0,1.84,1.84,0,0,0-.4,1.07A2.93,2.93,0,0,0,32,39.79Z"/>
        <path class="bd7ad795-3272-4b5d-a3d6-6d64ce19c437" d="M32.2,39.08a1.07,1.07,0,0,1,.14-.5.53.53,0,0,1,.93,0,1.21,1.21,0,0,1,.15.5c0,.57-.26,1-.59,1S32.21,39.65,32.2,39.08Z"/>
        <path class="abb9693e-c068-4bae-ac9c-57d50a1daa4e" d="M32.8,39.88a.69.69,0,0,1-.55-.45c.09.4.31.69.58.68s.6-.48.59-1C33.37,39.27,33.13,39.88,32.8,39.88Z"/>
        <path class="ac6bb97e-4822-491c-a55c-9d1706041a37" d="M32.21,39.06a.42.42,0,0,1,.06-.14c.19-.37.69-.62,1.15.14a1.21,1.21,0,0,0-.15-.5.53.53,0,0,0-.93,0A1,1,0,0,0,32.21,39.06Z"/>
      </g>
      <g>
        <path class="b9e1412b-413b-489b-88cb-3585595d34fc" d="M24.69,27.78a1.8,1.8,0,0,1,.4-1.07.64.64,0,0,1,1,0,1.87,1.87,0,0,1,.43,1.07c0,.88-.39,1.6-.9,1.61S24.7,28.67,24.69,27.78Z"/>
        <path class="e93a4f16-9e6e-4bb5-829f-e10130f69a21" d="M24.65,27.5a1.84,1.84,0,0,1,.4-1.07.64.64,0,0,1,1,0,1.85,1.85,0,0,1,.44,1.06c0,.88-.39,1.61-.91,1.61S24.67,28.38,24.65,27.5Z"/>
        <path class="b636adf4-fca2-41e9-b4b0-c6a8ae259abb" d="M24.75,28.18a1.93,1.93,0,0,1,.4-1,.64.64,0,0,1,1,0,2.48,2.48,0,0,1,.32.55,2.64,2.64,0,0,0,0-.29,1.85,1.85,0,0,0-.44-1.06.64.64,0,0,0-1,0,1.84,1.84,0,0,0-.4,1.07A2.93,2.93,0,0,0,24.75,28.18Z"/>
        <path class="bd7ad795-3272-4b5d-a3d6-6d64ce19c437" d="M25,27.47a1.07,1.07,0,0,1,.14-.5A.52.52,0,0,1,26,27a1.09,1.09,0,0,1,.16.5c0,.57-.26,1.05-.59,1.05S25,28,25,27.47Z"/>
        <path class="abb9693e-c068-4bae-ac9c-57d50a1daa4e" d="M25.57,28.27a.69.69,0,0,1-.55-.45c.09.4.31.69.58.68s.59-.48.59-1.05C26.14,27.66,25.9,28.27,25.57,28.27Z"/>
        <path class="ac6bb97e-4822-491c-a55c-9d1706041a37" d="M25,27.45a.61.61,0,0,1,.07-.14c.19-.37.69-.62,1.15.14A1.09,1.09,0,0,0,26,27a.52.52,0,0,0-.92,0A1.08,1.08,0,0,0,25,27.45Z"/>
      </g>
      <g>
        <path class="b9e1412b-413b-489b-88cb-3585595d34fc" d="M23,33.83a1.9,1.9,0,0,1,.4-1.08.65.65,0,0,1,1,0,1.9,1.9,0,0,1,.43,1.06c0,.88-.39,1.6-.9,1.61S23,34.71,23,33.83Z"/>
        <path class="e93a4f16-9e6e-4bb5-829f-e10130f69a21" d="M22.92,33.54a1.8,1.8,0,0,1,.4-1.07.64.64,0,0,1,1,0,1.75,1.75,0,0,1,.43,1.06c0,.88-.39,1.6-.9,1.61S22.93,34.43,22.92,33.54Z"/>
        <path class="b636adf4-fca2-41e9-b4b0-c6a8ae259abb" d="M23,34.22a1.92,1.92,0,0,1,.39-.95.65.65,0,0,1,1,0,2.34,2.34,0,0,1,.32.56,2.81,2.81,0,0,0,0-.29,1.75,1.75,0,0,0-.43-1.06.64.64,0,0,0-1,0,1.8,1.8,0,0,0-.4,1.07A2.37,2.37,0,0,0,23,34.22Z"/>
        <path class="bd7ad795-3272-4b5d-a3d6-6d64ce19c437" d="M23.24,33.51a1.2,1.2,0,0,1,.13-.5.53.53,0,0,1,.93,0,1,1,0,0,1,.15.5c0,.58-.25,1-.59,1S23.25,34.09,23.24,33.51Z"/>
        <path class="abb9693e-c068-4bae-ac9c-57d50a1daa4e" d="M23.84,34.32a.76.76,0,0,1-.56-.46c.09.4.32.69.58.68s.6-.47.59-1C24.41,33.7,24.17,34.31,23.84,34.32Z"/>
        <path class="ac6bb97e-4822-491c-a55c-9d1706041a37" d="M23.24,33.49l.06-.13c.2-.37.7-.62,1.15.13a1,1,0,0,0-.15-.5.53.53,0,0,0-.93,0A1.11,1.11,0,0,0,23.24,33.49Z"/>
      </g>
      <g>
        <path class="b9e1412b-413b-489b-88cb-3585595d34fc" d="M25.86,40.08a1.84,1.84,0,0,1,.4-1.07.64.64,0,0,1,1,0,1.85,1.85,0,0,1,.44,1.06c0,.88-.39,1.61-.91,1.61S25.88,41,25.86,40.08Z"/>
        <path class="e93a4f16-9e6e-4bb5-829f-e10130f69a21" d="M25.83,39.8a1.77,1.77,0,0,1,.4-1.07.64.64,0,0,1,1,0,1.77,1.77,0,0,1,.43,1.06c0,.88-.39,1.6-.9,1.61S25.84,40.68,25.83,39.8Z"/>
        <path class="b636adf4-fca2-41e9-b4b0-c6a8ae259abb" d="M25.93,40.48a1.92,1.92,0,0,1,.39-1,.65.65,0,0,1,1,0,2.09,2.09,0,0,1,.32.55,2.71,2.71,0,0,0,0-.29,1.77,1.77,0,0,0-.43-1.06.64.64,0,0,0-1,0,1.77,1.77,0,0,0-.4,1.07A2.48,2.48,0,0,0,25.93,40.48Z"/>
        <path class="bd7ad795-3272-4b5d-a3d6-6d64ce19c437" d="M26.15,39.76a1,1,0,0,1,.13-.49.53.53,0,0,1,.93,0,.92.92,0,0,1,.15.5c0,.57-.25,1-.59,1S26.16,40.34,26.15,39.76Z"/>
        <path class="abb9693e-c068-4bae-ac9c-57d50a1daa4e" d="M26.74,40.57a.74.74,0,0,1-.55-.45c.09.4.32.68.58.68s.6-.48.59-1C27.31,40,27.08,40.57,26.74,40.57Z"/>
        <path class="ac6bb97e-4822-491c-a55c-9d1706041a37" d="M26.15,39.74l.06-.13c.2-.37.7-.62,1.15.14a.92.92,0,0,0-.15-.5.53.53,0,0,0-.93,0A1.06,1.06,0,0,0,26.15,39.74Z"/>
      </g>
      <g>
        <path class="b9e1412b-413b-489b-88cb-3585595d34fc" d="M28.84,44.68a1.9,1.9,0,0,1,.4-1.08.65.65,0,0,1,1,0,1.9,1.9,0,0,1,.43,1.06c0,.88-.39,1.6-.9,1.61S28.86,45.56,28.84,44.68Z"/>
        <path class="e93a4f16-9e6e-4bb5-829f-e10130f69a21" d="M28.81,44.4a1.83,1.83,0,0,1,.4-1.08.64.64,0,0,1,1,0,1.77,1.77,0,0,1,.43,1.06c0,.88-.39,1.6-.9,1.61S28.82,45.28,28.81,44.4Z"/>
        <path class="b636adf4-fca2-41e9-b4b0-c6a8ae259abb" d="M28.91,45.07a1.92,1.92,0,0,1,.39-1,.65.65,0,0,1,1,0,2.34,2.34,0,0,1,.32.56,2.81,2.81,0,0,0,0-.29,1.77,1.77,0,0,0-.43-1.06.64.64,0,0,0-1,0,1.83,1.83,0,0,0-.4,1.08A2.35,2.35,0,0,0,28.91,45.07Z"/>
        <path class="bd7ad795-3272-4b5d-a3d6-6d64ce19c437" d="M29.13,44.36a1.2,1.2,0,0,1,.13-.5.53.53,0,0,1,.93,0,1,1,0,0,1,.15.5c0,.58-.25,1-.59,1.06S29.14,44.94,29.13,44.36Z"/>
        <path class="abb9693e-c068-4bae-ac9c-57d50a1daa4e" d="M29.73,45.17a.74.74,0,0,1-.56-.46c.09.4.32.69.58.69s.6-.48.59-1.06C30.3,44.55,30.06,45.16,29.73,45.17Z"/>
        <path class="ac6bb97e-4822-491c-a55c-9d1706041a37" d="M29.13,44.34l.06-.13c.2-.37.7-.62,1.15.13a1,1,0,0,0-.15-.5.53.53,0,0,0-.93,0A1.15,1.15,0,0,0,29.13,44.34Z"/>
      </g>
      <g>
        <path class="b9e1412b-413b-489b-88cb-3585595d34fc" d="M29.85,17.84a1.83,1.83,0,0,1,.26-1.12.64.64,0,0,1,1-.14,1.79,1.79,0,0,1,.56,1c.13.88-.18,1.64-.69,1.72S30,18.71,29.85,17.84Z"/>
        <path class="e93a4f16-9e6e-4bb5-829f-e10130f69a21" d="M29.78,17.56A1.85,1.85,0,0,1,30,16.44a.65.65,0,0,1,1-.14,1.72,1.72,0,0,1,.56,1c.13.87-.18,1.64-.69,1.71S29.91,18.43,29.78,17.56Z"/>
        <path class="b636adf4-fca2-41e9-b4b0-c6a8ae259abb" d="M30,18.22a2,2,0,0,1,.28-1,.64.64,0,0,1,1-.14,2.29,2.29,0,0,1,.39.51,1.43,1.43,0,0,0,0-.29,1.72,1.72,0,0,0-.56-1,.65.65,0,0,0-1,.14,1.85,1.85,0,0,0-.26,1.12A2.66,2.66,0,0,0,30,18.22Z"/>
        <path class="bd7ad795-3272-4b5d-a3d6-6d64ce19c437" d="M30.09,17.48a1.11,1.11,0,0,1,.07-.51.53.53,0,0,1,.92-.13,1,1,0,0,1,.21.47c.09.57-.12,1.08-.45,1.12S30.18,18.06,30.09,17.48Z"/>
        <path class="abb9693e-c068-4bae-ac9c-57d50a1daa4e" d="M30.79,18.21a.72.72,0,0,1-.61-.38c.14.39.4.64.66.6s.54-.55.45-1.12C31.27,17.53,31.12,18.16,30.79,18.21Z"/>
        <path class="ac6bb97e-4822-491c-a55c-9d1706041a37" d="M30.09,17.46a1.21,1.21,0,0,1,.05-.14c.14-.39.61-.7,1.15,0a1,1,0,0,0-.21-.47.53.53,0,0,0-.92.13A1.17,1.17,0,0,0,30.09,17.46Z"/>
      </g>
      <g>
        <path class="b9e1412b-413b-489b-88cb-3585595d34fc" d="M33,22.16A1.77,1.77,0,0,1,33.26,21a.64.64,0,0,1,1-.14,1.84,1.84,0,0,1,.56,1c.13.87-.18,1.64-.69,1.71S33.12,23,33,22.16Z"/>
        <path class="e93a4f16-9e6e-4bb5-829f-e10130f69a21" d="M32.93,21.88a1.82,1.82,0,0,1,.26-1.11.65.65,0,0,1,1-.15,1.84,1.84,0,0,1,.56,1c.13.87-.18,1.64-.69,1.71S33.05,22.76,32.93,21.88Z"/>
        <path class="b636adf4-fca2-41e9-b4b0-c6a8ae259abb" d="M33.11,22.54a1.93,1.93,0,0,1,.27-1,.64.64,0,0,1,1-.15,2.26,2.26,0,0,1,.4.51c0-.09,0-.19,0-.29a1.84,1.84,0,0,0-.56-1,.65.65,0,0,0-1,.15,1.82,1.82,0,0,0-.26,1.11A2.55,2.55,0,0,0,33.11,22.54Z"/>
        <path class="bd7ad795-3272-4b5d-a3d6-6d64ce19c437" d="M33.24,21.81a1.07,1.07,0,0,1,.07-.51.53.53,0,0,1,.92-.14,1,1,0,0,1,.21.48c.08.57-.12,1.07-.45,1.12S33.32,22.38,33.24,21.81Z"/>
        <path class="abb9693e-c068-4bae-ac9c-57d50a1daa4e" d="M33.93,22.53a.7.7,0,0,1-.6-.38c.14.39.4.64.66.61s.53-.55.45-1.12C34.42,21.85,34.26,22.49,33.93,22.53Z"/>
        <path class="ac6bb97e-4822-491c-a55c-9d1706041a37" d="M33.24,21.79c0-.05,0-.1,0-.14.15-.39.62-.71,1.16,0a1,1,0,0,0-.21-.48.53.53,0,0,0-.92.14A1,1,0,0,0,33.24,21.79Z"/>
      </g>
      <g>
        <path class="b9e1412b-413b-489b-88cb-3585595d34fc" d="M34.83,27.61a1.9,1.9,0,0,1,.26-1.12.65.65,0,0,1,1-.14,1.84,1.84,0,0,1,.56,1c.12.87-.19,1.64-.69,1.71S35,28.48,34.83,27.61Z"/>
        <path class="e93a4f16-9e6e-4bb5-829f-e10130f69a21" d="M34.76,27.33A1.89,1.89,0,0,1,35,26.22a.66.66,0,0,1,1-.15,1.88,1.88,0,0,1,.56,1c.12.87-.19,1.64-.69,1.71S34.89,28.21,34.76,27.33Z"/>
        <path class="b636adf4-fca2-41e9-b4b0-c6a8ae259abb" d="M35,28a1.84,1.84,0,0,1,.27-1,.64.64,0,0,1,1-.15,2.22,2.22,0,0,1,.39.51c0-.09,0-.19,0-.29a1.88,1.88,0,0,0-.56-1,.66.66,0,0,0-1,.15,1.89,1.89,0,0,0-.26,1.11A2.55,2.55,0,0,0,35,28Z"/>
        <path class="bd7ad795-3272-4b5d-a3d6-6d64ce19c437" d="M35.08,27.26a1,1,0,0,1,.07-.51.53.53,0,0,1,.92-.14,1.16,1.16,0,0,1,.21.48c.08.57-.12,1.07-.45,1.12S35.16,27.83,35.08,27.26Z"/>
        <path class="abb9693e-c068-4bae-ac9c-57d50a1daa4e" d="M35.77,28a.72.72,0,0,1-.61-.38c.14.39.41.64.67.61s.53-.55.45-1.12C36.26,27.3,36.1,27.94,35.77,28Z"/>
        <path class="ac6bb97e-4822-491c-a55c-9d1706041a37" d="M35.08,27.24a.57.57,0,0,1,0-.14c.15-.39.61-.71,1.16,0a1.16,1.16,0,0,0-.21-.48.53.53,0,0,0-.92.14A1,1,0,0,0,35.08,27.24Z"/>
      </g>
      <g>
        <path class="b9e1412b-413b-489b-88cb-3585595d34fc" d="M34.31,33.64a1.9,1.9,0,0,1,.26-1.12.65.65,0,0,1,1-.14,1.85,1.85,0,0,1,.56,1c.12.88-.19,1.64-.69,1.72S34.44,34.51,34.31,33.64Z"/>
        <path class="e93a4f16-9e6e-4bb5-829f-e10130f69a21" d="M34.24,33.36a1.9,1.9,0,0,1,.26-1.12.66.66,0,0,1,1-.14,1.84,1.84,0,0,1,.56,1c.12.87-.19,1.64-.69,1.71S34.37,34.23,34.24,33.36Z"/>
        <path class="b636adf4-fca2-41e9-b4b0-c6a8ae259abb" d="M34.43,34a1.85,1.85,0,0,1,.27-1,.64.64,0,0,1,1-.14,2,2,0,0,1,.39.51,2.83,2.83,0,0,0,0-.29,1.84,1.84,0,0,0-.56-1,.66.66,0,0,0-1,.14,1.9,1.9,0,0,0-.26,1.12A2.67,2.67,0,0,0,34.43,34Z"/>
        <path class="bd7ad795-3272-4b5d-a3d6-6d64ce19c437" d="M34.56,33.28a1,1,0,0,1,.07-.51.52.52,0,0,1,.91-.13,1,1,0,0,1,.22.47c.08.57-.12,1.08-.45,1.12S34.64,33.86,34.56,33.28Z"/>
        <path class="abb9693e-c068-4bae-ac9c-57d50a1daa4e" d="M35.25,34a.72.72,0,0,1-.61-.38c.14.39.41.64.67.6s.53-.55.45-1.12C35.74,33.33,35.58,34,35.25,34Z"/>
        <path class="ac6bb97e-4822-491c-a55c-9d1706041a37" d="M34.56,33.26a1,1,0,0,1,0-.14c.15-.39.61-.7,1.16,0a1,1,0,0,0-.22-.47.52.52,0,0,0-.91.13A1,1,0,0,0,34.56,33.26Z"/>
      </g>
    </g>
    <path class="bc7fd570-a85a-4ecf-b253-4897b71c9796" d="M24.82,21.93a4.2,4.2,0,0,1-2.53-1.78,12.59,12.59,0,0,1-.69-1.09l-.05,0c-.18.15-.36.28-.55.41l-.08,0a9.21,9.21,0,0,1-1.26.67l-.91.41a1.6,1.6,0,0,1-.62.13v0h-.2l-.08,0-.12,0h-.06l-1-.33-.08-.07-.07,0,0,0a.81.81,0,0,1-.23-.54c-.37.19-.72.35-1.07.5a9.67,9.67,0,0,1-2.28.69,7,7,0,0,1-1.1.09h-.09a5.88,5.88,0,0,1-1.2-.14A6,6,0,0,1,9,20.25a3.29,3.29,0,0,1-.82-.57.39.39,0,0,1-.08-.1h0A.68.68,0,0,1,8,18.94a.53.53,0,0,1,.44-.3c2.05-.18,2.59-.23,3.33-.89h0l-.9,0h-.77a13.94,13.94,0,0,1-1.72-.1,11.6,11.6,0,0,1-2.16-.47,9.06,9.06,0,0,1-1.41-.6.46.46,0,0,1-.23-.29l0-.15,0-.16.1-.1.25-.15A12.46,12.46,0,0,1,7,15.45c.78-.09,1.59-.18,2.13-.28l1.22-.23a23.07,23.07,0,0,0,3-.67c.59-.22,2.32-.78,3-.92s1.1-.21,1.59-.27a1.7,1.7,0,0,1,1.17-.8c.44-3.17,1.17-6.26,3.3-7.73l.33-.22,1.3,1.9-.22.23a2.75,2.75,0,0,0-.22.26c-.06.09-.11.18-.16.27l0,0c-.72,1.36-.7,3.6-.66,5.33l.11,0,.1,0,.36.18.05,0a2.53,2.53,0,0,1,.26.23l.08.09a.71.71,0,0,1,.1.14c.85.09,1.75.22,2.73.38l.38.06.74.12.22.05a16.58,16.58,0,0,1,2.18.77l.68.27.72.28,2.14.83a16.16,16.16,0,0,0,1.86.58c.37.09.76.17,1.15.23.22,0,.44.07.66.09l.15,0,.33.06.06,0,.11,0,.89.06-.62.62a4.73,4.73,0,0,1-3.49,1.33h0c-.19,0-.4,0-.6,0-.65,0-1.35-.14-2.09-.26H32a7.3,7.3,0,0,1-.95-.22l.24.12a3.7,3.7,0,0,1,1,.62l.05.68v0l0,0,0,.05-.11.1h0l0,0-.16.08-.06,0a.64.64,0,0,1-.18.06h-.06l-.21,0-.27,0h-.58l-.3,0-.31,0-.29,0-.28,0-.27-.05-.25,0L28.46,20l-.24-.06a26.63,26.63,0,0,1-3-.95l0,.19c0,.3.07.58.1.86v.06c0,.08,0,.17,0,.25v.44c0,.08,0,.16,0,.24v.14l0,.26,0,.21-.06.37Z"/>
    <path class="ac68f426-d6c4-4308-badd-8945bb2be6a1" d="M37.91,17.25l0,0a4.86,4.86,0,0,1-.65-.09l-.67-.1c-.39-.06-.79-.14-1.18-.23a16.25,16.25,0,0,1-1.91-.6c-.86-.32-1.72-.66-2.57-1l-.29-.11a24.3,24.3,0,0,0-2.81-1l-.2,0-1.11-.18c-.92-.14-1.84-.28-2.76-.38l-.14,0a1.56,1.56,0,0,0-.17-.25l-.06-.07L23.14,13l0,0a1.59,1.59,0,0,0-.29-.15l-.09,0a1.07,1.07,0,0,0-.27-.09h-.09c0-1.82-.1-4.3.71-5.82l0,0,.18-.3a2.66,2.66,0,0,1,.26-.31l-.18-.26h0l-.72-1.06c-2.2,1.52-2.81,5-3.18,7.74a1.38,1.38,0,0,0-1.25.83,16.79,16.79,0,0,0-1.78.29c-.63.14-2.33.67-2.94.91s-2.55.57-4.29.91c-1.31.25-4,.41-4.28.63h0v0s0,0,0,0a.12.12,0,0,0,0,.05,8.3,8.3,0,0,0,1.34.57,11.16,11.16,0,0,0,2.09.45,13,13,0,0,0,1.92.1h.52l.89,0c.34,0,.66,0,1-.05C11.38,18.76,11.1,18.79,8.46,19c-.2,0-.14.23-.06.34h0l0,0h0a3.37,3.37,0,0,0,.73.51,5.73,5.73,0,0,0,1.46.53,6.11,6.11,0,0,0,1.12.13,7.08,7.08,0,0,0,1.13-.09A9.13,9.13,0,0,0,15,19.83,20,20,0,0,0,17,18.88a1.66,1.66,0,0,0-.27.55v.06a.48.48,0,0,0,.12.47h0l.05,0,0,0,.91.3h.34a1.17,1.17,0,0,0,.47-.1l.9-.4a8.92,8.92,0,0,0,1.2-.64,4.84,4.84,0,0,0,.6-.44,2.33,2.33,0,0,0,.41-.42,8.29,8.29,0,0,0,.9,1.54,3.75,3.75,0,0,0,2.26,1.62s0-.07,0-.11h0a.34.34,0,0,0,0-.1l0-.25s0-.07,0-.11,0-.16,0-.24v-.41a1.93,1.93,0,0,1,0-.24V20c0-.4-.1-.8-.15-1.26,0-.16-.05-.32-.08-.48l.43.21a25.18,25.18,0,0,0,3.29,1.05l.14,0,.13,0h.05l.19,0h0l.21,0h0l.23,0h0l.25,0h0l.28,0h0l.26,0h0l.25,0h.58l.2,0h0a.57.57,0,0,0,.18,0h0l.15,0,0,0,.11,0,0,0,.08-.07s0,0,0,0h0s0,0,0,0c.22-.21-1-.71-1.43-.94a9.14,9.14,0,0,1-2-1.6,2.73,2.73,0,0,0-.23-.25A11,11,0,0,0,32,18.2c.76.11,1.46.22,2.11.26a4.54,4.54,0,0,0,3.8-1.21ZM18.38,18h0a4,4,0,0,1-.94.95.62.62,0,0,0,0-.16.17.17,0,0,0-.08-.13C17.7,18.46,18,18.24,18.38,18Z"/>
    <g>
      <path class="f4af9b4f-9444-4640-8476-2ba96e21f043" d="M22.08,13.88c0-.32-1.37-.53-1.72-.53a16.45,16.45,0,0,0-3.92.38c-.63.14-2.33.67-2.94.91s-2.55.57-4.29.91c-1.47.29-4.75.44-4.25.72a11.22,11.22,0,0,0,5.35,1.12c1.47,0,2.15,0,3.63-.17a25.15,25.15,0,0,0,6.44-2C20.72,15,22.25,14.18,22.08,13.88Z"/>
      <path class="ea20403d-6fc9-4495-827b-63741e16e410" d="M13.22,15l-.09,0-.25.09c-.22.08-.53.18-.92.28l-.62.14-.69.15-.75.14L9.13,16a10.47,10.47,0,0,1-1.55.11H6.23l-1,0a1.3,1.3,0,0,0-.26,0H5l.07,0a1.28,1.28,0,0,1,.26-.07c.22,0,.55-.07,1-.1l1.34-.1.75-.06a6.59,6.59,0,0,0,.76-.1l.39-.08.38-.08.74-.14c.49-.09.94-.16,1.33-.21Z"/>
      <path class="ea20403d-6fc9-4495-827b-63741e16e410" d="M17.7,13.78a1.16,1.16,0,0,1-.19.08A4.4,4.4,0,0,1,17,14l-.34.1-.19.06-.18.05-.39.13-.42.12c-.55.17-1.11.31-1.54.4l-.3,0-.12,0h-.11l-.2,0,.17-.1.21-.12.26-.14a9.77,9.77,0,0,1,1.51-.58l.42-.11.42-.1.21,0,.19,0,.35,0a3.38,3.38,0,0,1,.54,0Z"/>
      <path class="bccc17fe-affa-43f4-a88e-fc79bb4cd45f" d="M22.08,13.88c0-.09-.1-.18-.27-.25a7.14,7.14,0,0,1-1.6,1,24.53,24.53,0,0,1-6.44,2c-1.47.14-2.15.15-3.63.18a13.47,13.47,0,0,1-5.21-.7s0,.06,0,.09a11.22,11.22,0,0,0,5.35,1.12c1.47,0,2.15,0,3.63-.17a25.15,25.15,0,0,0,6.44-2C20.72,15,22.25,14.18,22.08,13.88Z"/>
      <path class="e5b87b35-1288-4250-8093-20e5deec5543" d="M19.93,14.51h-.15l-.44,0H17.82a9.14,9.14,0,0,0-1,.08,7.8,7.8,0,0,0-1.09.26c-.76.21-1.54.52-2.35.76-.41.11-.82.21-1.23.29s-.81.14-1.2.2c-.79.1-1.52.15-2.15.2l-1.52.12-.58.06.58-.07,1.51-.16c.63-.06,1.36-.13,2.14-.25.39-.06.79-.13,1.19-.22s.81-.2,1.21-.32c.8-.25,1.58-.57,2.34-.81a8.2,8.2,0,0,1,1.11-.28,7.87,7.87,0,0,1,1-.11c.32,0,.61,0,.87,0l.65,0,.42,0h.16Z"/>
      <path class="f4af9b4f-9444-4640-8476-2ba96e21f043" d="M30.9,15.26l-.29-.11a24.3,24.3,0,0,0-2.81-1l-.2,0-1.11-.18c-.92-.14-1.84-.28-2.76-.38a15.91,15.91,0,0,0-3.16-.16c-.76.06,2.9,2,3.67,1.92l.51,0h0c2.62.47,4.59,2.57,7.25,3,2.44.37,4.23.65,5.91-.95-.07.07-.6-.06-.7-.07l-.67-.1c-.39-.06-.79-.14-1.18-.23a16.25,16.25,0,0,1-1.91-.6C32.61,15.93,31.75,15.59,30.9,15.26Z"/>
      <path class="ea20403d-6fc9-4495-827b-63741e16e410" d="M31.25,15.75l-.3-.08-.78-.23a3.33,3.33,0,0,1-.52-.19L29.09,15a4.27,4.27,0,0,0-.6-.21l-.65-.17-.65-.17-.63-.15L25.44,14l-.8-.2-.3-.08h.08l.23,0c.2,0,.48.06.81.12s.73.13,1.14.21l.64.14.66.16.65.18a5,5,0,0,1,.62.23c.2.09.38.19.55.28s.33.16.49.22c.32.12.57.24.76.31Z"/>
      <path class="ea20403d-6fc9-4495-827b-63741e16e410" d="M37.22,17.49s-.39,0-1-.06l-.48-.05-.52-.08-.56-.11c-.19-.05-.38-.09-.57-.15a5.22,5.22,0,0,1-.56-.18c-.19-.06-.37-.13-.54-.2l-.48-.22-.43-.21c-.26-.13-.47-.26-.62-.34l-.24-.14.25.1.66.26.44.18.5.18.53.19.55.17.56.14L35,17l.27.06.52.11.46.09.7.14Z"/>
      <path class="bccc17fe-affa-43f4-a88e-fc79bb4cd45f" d="M32.25,17.9c-2.65-.4-4.63-2.5-7.24-3h0l-.51,0a10.08,10.08,0,0,1-3.59-1.63l-.32,0c-.76.06,2.9,2,3.67,1.92l.51,0h0c2.62.47,4.59,2.57,7.25,3,2.44.37,4.23.65,5.91-.95h0C36.33,18.35,34.43,18.23,32.25,17.9Z"/>
      <path class="e5b87b35-1288-4250-8093-20e5deec5543" d="M35.55,17.6l-.17,0-.49,0-.34-.05-.4-.07-.46-.1c-.16,0-.33-.08-.5-.14-.35-.09-.71-.22-1.1-.36s-.79-.3-1.21-.47-.85-.34-1.29-.5l-.67-.24c-.22-.08-.45-.14-.68-.2-.93-.24-1.86-.46-2.74-.66s-1.69-.38-2.39-.52-1.29-.25-1.71-.31l-.47-.06h-.16v-.3H21l.49.07c.42.07,1,.19,1.71.35s1.52.35,2.39.56,1.8.46,2.73.72l.69.21.67.26c.44.17.86.35,1.28.53l1.19.49c.39.15.75.28,1.1.39l.49.14.45.11.4.08.35.05c.2,0,.37,0,.48.07Z"/>
      <path class="f4af9b4f-9444-4640-8476-2ba96e21f043" d="M17.83,14.22a7,7,0,0,0-.82.26,10,10,0,0,0-3.76,2.28c-1.84,2-1.84,2-4.79,2.27-.22,0-.13.28,0,.37a4.9,4.9,0,0,0,2.19,1A7.3,7.3,0,0,0,15,19.83a19.22,19.22,0,0,0,4.34-2.56,6.66,6.66,0,0,0,1.49-1.65,1.79,1.79,0,0,0,.3-.9c0-.15-.1-.21-.14-.35C20.75,13.57,19.05,13.91,17.83,14.22Z"/>
      <path class="ea20403d-6fc9-4495-827b-63741e16e410" d="M13.21,17.74l-.12.16a1,1,0,0,1-.14.18l-.19.23-.12.13-.13.12-.16.13a.61.61,0,0,1-.16.12l-.19.12-.2.1a3,3,0,0,1-.42.14,3.43,3.43,0,0,1-.44.09l-.42,0-.39,0H9.78a6.43,6.43,0,0,1-.73,0l.2,0,.51-.11.35-.06.38-.06.4-.08a2.71,2.71,0,0,0,.41-.09,2.52,2.52,0,0,0,.39-.12l.18-.08.18-.09.16-.1.16-.1.27-.21.41-.32Z"/>
      <path class="ea20403d-6fc9-4495-827b-63741e16e410" d="M18.43,14.52l-.24.11-.28.13-.36.18-.42.21-.46.23-.49.26-.5.28-.48.3-.46.3-.42.3-.35.29a6.64,6.64,0,0,1-.55.46l-.21.17a2.69,2.69,0,0,1,.15-.23c.1-.14.24-.34.42-.57l.15-.19.17-.18c.12-.12.25-.25.39-.37s.3-.24.46-.35.33-.22.51-.32a5.12,5.12,0,0,1,.52-.27c.17-.09.35-.17.52-.24l.5-.18a3.37,3.37,0,0,1,.46-.14,2.49,2.49,0,0,1,.39-.1l.31-.06Z"/>
      <path class="bccc17fe-affa-43f4-a88e-fc79bb4cd45f" d="M21,14.37a.65.65,0,0,0-.45-.4l0,.06c.05.13.14.19.15.35a1.82,1.82,0,0,1-.3.89A6.56,6.56,0,0,1,19,16.93a18.76,18.76,0,0,1-4.33,2.55,7.27,7.27,0,0,1-4.44.62,5.62,5.62,0,0,1-1.8-.74l0,0a4.9,4.9,0,0,0,2.19,1A7.3,7.3,0,0,0,15,19.83a19.22,19.22,0,0,0,4.34-2.56,6.66,6.66,0,0,0,1.49-1.65,1.79,1.79,0,0,0,.3-.9C21.16,14.57,21.07,14.51,21,14.37Z"/>
      <path class="e5b87b35-1288-4250-8093-20e5deec5543" d="M20.25,14.25l-.49.21-.54.27-.69.37c-.25.14-.52.31-.79.49s-.57.37-.85.59a20.92,20.92,0,0,0-1.73,1.46c-.28.27-.57.53-.86.78a7,7,0,0,1-.92.65,4,4,0,0,1-1,.4,9.26,9.26,0,0,1-.93.17c-.57.07-1.06.1-1.39.13l-.53,0,.52,0c.34,0,.82-.08,1.4-.17a9.1,9.1,0,0,0,.91-.18,3.74,3.74,0,0,0,.95-.41,6.2,6.2,0,0,0,.88-.67c.29-.25.57-.52.84-.79.56-.54,1.13-1.07,1.7-1.52l.85-.62c.28-.19.54-.36.79-.51s.49-.28.7-.4l.54-.29.48-.23Z"/>
      <path class="f4af9b4f-9444-4640-8476-2ba96e21f043" d="M30.62,18.6a9.14,9.14,0,0,1-2-1.6,10.2,10.2,0,0,0-2.75-2.24c-.88-.47-2.59-1.16-3.54-.74a1.19,1.19,0,0,0-.67,1.22,2.55,2.55,0,0,0,.68,1.36,7.53,7.53,0,0,0,2.77,1.9,25.18,25.18,0,0,0,3.29,1.05c.65.17,3.24.64,3.64,0C32.27,19.33,31,18.83,30.62,18.6Z"/>
      <path class="ea20403d-6fc9-4495-827b-63741e16e410" d="M31.25,19.24l-.19-.07-.5-.2-.33-.15-.35-.2a8,8,0,0,1-.72-.51,6.12,6.12,0,0,1-.64-.6,3.65,3.65,0,0,1-.27-.3L28,17c-.29-.34-.47-.58-.47-.58s.23.19.56.49c.09.07.17.15.27.24l.29.27.31.28.34.28a2.88,2.88,0,0,0,.34.27l.34.25.33.23.3.18c.19.1.35.2.46.27Z"/>
      <path class="ea20403d-6fc9-4495-827b-63741e16e410" d="M27.39,16.37l-.17-.09L26.8,16l-1.25-.77-.35-.19-.33-.19-.61-.33-.43-.24-.17-.09h.2a3,3,0,0,1,.49.08,5,5,0,0,1,1.06.37c.12.05.24.12.37.19a4.71,4.71,0,0,1,.67.47,6.12,6.12,0,0,1,.51.49c.14.16.25.29.32.39Z"/>
      <path class="bccc17fe-affa-43f4-a88e-fc79bb4cd45f" d="M28.84,19.31a25.18,25.18,0,0,1-3.29-1,7.61,7.61,0,0,1-2.77-1.9A2.55,2.55,0,0,1,22.1,15a1.23,1.23,0,0,1,.38-1l-.14,0a1.19,1.19,0,0,0-.67,1.22,2.55,2.55,0,0,0,.68,1.36,7.53,7.53,0,0,0,2.77,1.9,25.18,25.18,0,0,0,3.29,1.05c.64.17,3.18.63,3.62,0A8.84,8.84,0,0,1,28.84,19.31Z"/>
      <path class="f84eb1f8-2ab4-41ee-9072-14bbf0f2a1fa" d="M30.83,19.39l-.12,0-.34-.15c-.14-.07-.31-.17-.5-.29l-.62-.41c-.23-.15-.48-.32-.73-.51l-.8-.58c-.54-.41-1.12-.85-1.73-1.25-.3-.2-.61-.39-.93-.56a10,10,0,0,0-.94-.45,17.77,17.77,0,0,0-1.74-.65,5.69,5.69,0,0,0-.71-.18,4.35,4.35,0,0,0-.55-.06h-.35l-.11,0L20.6,14l.15,0h.39c.16,0,.36,0,.59.09a5.07,5.07,0,0,1,.73.2c.53.17,1.12.43,1.74.7a7.78,7.78,0,0,1,.95.49c.31.18.62.38.92.59.6.41,1.17.87,1.71,1.29l.78.61.71.52.61.43.49.3.34.16Z"/>
      <path class="f84eb1f8-2ab4-41ee-9072-14bbf0f2a1fa" d="M29.3,19.18s-.55-.27-1.35-.72l-.65-.37-.69-.45-1.51-1c-1-.68-2.06-1.32-2.87-1.75l-.55-.28-.44-.21-.38-.16L21,14l.39.18.43.22.55.31c.81.46,1.83,1.14,2.83,1.85l1.47,1c.24.16.46.33.68.47l.64.39C28.76,18.9,29.3,19.18,29.3,19.18Z"/>
      <path class="f4af9b4f-9444-4640-8476-2ba96e21f043" d="M24.87,21.54a8.8,8.8,0,0,0-.1-2.77,6.54,6.54,0,0,0-1.67-3.51c-.49-.62-.9-2-1.91-1.33a1,1,0,0,0-.34,1.14c.13.72.28,1.46.46,2.16a7.62,7.62,0,0,0,1.3,2.69A3.75,3.75,0,0,0,24.87,21.54Z"/>
      <path class="f84eb1f8-2ab4-41ee-9072-14bbf0f2a1fa" d="M22,13.37l-.07.05a.69.69,0,0,0-.13.15.67.67,0,0,0-.11.32,1.3,1.3,0,0,0,0,.48c.06.37.14.81.23,1.27,0,.23.09.47.15.71s.12.49.19.73a7.16,7.16,0,0,0,.59,1.35c.12.21.24.4.36.58s.23.35.35.5a5.13,5.13,0,0,0,.64.66l.2.16.07.05-.08-.05-.2-.15a4.71,4.71,0,0,1-.66-.64,5.23,5.23,0,0,1-.38-.49c-.13-.18-.25-.37-.38-.57a7.32,7.32,0,0,1-.65-1.35c-.08-.25-.16-.49-.22-.73s-.13-.48-.18-.71c-.11-.47-.2-.9-.28-1.28a1.75,1.75,0,0,1,0-.55,1.09,1.09,0,0,1,.14-.44,1.33,1.33,0,0,1,.2-.24l.07,0Z"/>
      <path class="e5b87b35-1288-4250-8093-20e5deec5543" d="M22.91,15.35a6.52,6.52,0,0,1,1.66,3.51,18.19,18.19,0,0,1,.31,2.58,8.81,8.81,0,0,0-.11-2.67,6.54,6.54,0,0,0-1.67-3.51c-.47-.59-.86-1.86-1.76-1.41C22,13.84,22.5,14.85,22.91,15.35Z"/>
      <path class="e5b87b35-1288-4250-8093-20e5deec5543" d="M24.77,21.33s0-.14,0-.37-.06-.58-.14-1a5.21,5.21,0,0,0-.15-.63c-.05-.11-.09-.23-.13-.34l-.15-.34c-.11-.23-.22-.47-.34-.71s-.25-.48-.38-.71c-.52-1-1.08-1.89-1.5-2.59l-.53-.83a1.33,1.33,0,0,0-.15-.22l-.05-.08.24-.18.06.09c0,.05.08.13.15.24l.5.85c.4.71.92,1.67,1.41,2.65.12.24.24.49.35.73s.23.48.33.72l.13.35c.05.12.08.23.12.34a4.49,4.49,0,0,1,.14.65c.06.41.09.75.1,1S24.77,21.33,24.77,21.33Z"/>
      <path class="f4af9b4f-9444-4640-8476-2ba96e21f043" d="M21.66,14c-.8-.33-.21.45-1,.17-1.49-.51-1.93,3.21-2.13,3.68-.34.78-1.24,1.11-1.69,1.79a.28.28,0,0,0,.07.42l.91.3a1.09,1.09,0,0,0,.81,0,15.16,15.16,0,0,0,2.1-1A2.74,2.74,0,0,0,22,17.71C22.21,17,22.17,14.17,21.66,14Z"/>
      <path class="ea20403d-6fc9-4495-827b-63741e16e410" d="M18.82,17.86a.67.67,0,0,0,0,.1v.12s0,.09,0,.15a1.77,1.77,0,0,1-.06.17.76.76,0,0,1-.09.18,1.68,1.68,0,0,1-.27.34,2.65,2.65,0,0,1-.63.45l-.22.12-.09,0a2.07,2.07,0,0,1,.2-.29L17.9,19l.14-.14a1.85,1.85,0,0,0,.14-.14,1.85,1.85,0,0,0,.14-.14l.12-.13.11-.14a1.13,1.13,0,0,0,.1-.13l.07-.12.05-.09Z"/>
      <path class="ea20403d-6fc9-4495-827b-63741e16e410" d="M20,14.41a.93.93,0,0,1,0,.13c0,.05,0,.1-.05.16s0,.12-.06.19-.09.3-.15.48-.1.36-.16.55a10.12,10.12,0,0,1-.36,1c-.07.14-.12.26-.17.34a.86.86,0,0,1-.07.12s0-.05,0-.14,0-.22,0-.38a4.46,4.46,0,0,1,.19-1.1,2.47,2.47,0,0,1,.1-.29l.12-.28a2.69,2.69,0,0,1,.29-.45,1.27,1.27,0,0,1,.14-.17l.13-.11Z"/>
      <path class="e5b87b35-1288-4250-8093-20e5deec5543" d="M21.66,14l-.05,0a8.34,8.34,0,0,1,.21,3.57,2.78,2.78,0,0,1-1.33,1.53,15.27,15.27,0,0,1-2.1,1,1.14,1.14,0,0,1-.81.06l-.83-.28a.21.21,0,0,0,.13.17l.91.3a1.09,1.09,0,0,0,.81,0,15.16,15.16,0,0,0,2.1-1A2.74,2.74,0,0,0,22,17.71C22.21,17,22.17,14.17,21.66,14Z"/>
      <path class="f84eb1f8-2ab4-41ee-9072-14bbf0f2a1fa" d="M20.91,13.44l0,.08-.09.23c-.07.2-.16.49-.25.84s-.18.77-.28,1.22-.2.93-.31,1.41c-.06.24-.12.48-.19.71a3.08,3.08,0,0,1-.29.67,2.19,2.19,0,0,1-.44.51,3.72,3.72,0,0,1-.49.35l-.76.45a3,3,0,0,0-.28.19,2.7,2.7,0,0,1,.27-.2l.75-.48a5,5,0,0,0,.46-.37,2,2,0,0,0,.41-.5,2.8,2.8,0,0,0,.24-.65c.07-.23.12-.47.17-.71.09-.48.17-1,.25-1.42s.16-.88.24-1.24.16-.66.23-.87.06-.19.08-.25l0-.08Z"/>
      <path class="bccc17fe-affa-43f4-a88e-fc79bb4cd45f" d="M16.68,19.43c.12-.49.62-1.09.74-.64s.11,1.31.71,1.59h-.08a.76.76,0,0,1-.21,0L16.89,20a.45.45,0,0,1-.22-.54Z"/>
      <path class="f4af9b4f-9444-4640-8476-2ba96e21f043" d="M23.63,14h0a.78.78,0,0,1-.3.37h0a11.83,11.83,0,0,1-4.7,0,.66.66,0,0,1-.44-.71c.16-1.15,1.87-1.06,2.71-1s2.27,0,2.71,1A.57.57,0,0,1,23.63,14Z"/>
      <path class="e5b87b35-1288-4250-8093-20e5deec5543" d="M23.63,14h0a.78.78,0,0,1-.3.37h0a0,0,0,0,0,0,0,2,2,0,0,0-1.74-.93V13c.8,0,1.69.2,2,.95Z"/>
      <path class="bccc17fe-affa-43f4-a88e-fc79bb4cd45f" d="M23.6,13.52a2,2,0,0,0-1.75-.93v.84a1.74,1.74,0,0,1,1.46.89,0,0,0,0,1,0,0h0a.78.78,0,0,0,.3-.37h0A.57.57,0,0,0,23.6,13.52Z"/>
      <path class="ea20403d-6fc9-4495-827b-63741e16e410" d="M19.31,13l0,0-.11.11a3.57,3.57,0,0,0-.27.28l-.14.15-.06.08-.05.07a.74.74,0,0,0-.09.12l0,.06a.17.17,0,0,1-.05-.05.39.39,0,0,1-.05-.18.24.24,0,0,1,0-.12.35.35,0,0,1,0-.14.83.83,0,0,1,.15-.25.76.76,0,0,1,.23-.17.65.65,0,0,1,.25-.06A.53.53,0,0,1,19.31,13Z"/>
      <path class="f84eb1f8-2ab4-41ee-9072-14bbf0f2a1fa" d="M19.38,13.24c.37-2.84.9-6.73,3.27-8.37l.9,1.32c-1.48,1.54-1.19,5.23-1.16,7.23A3.52,3.52,0,0,1,19.38,13.24Z"/>
      <path class="e5b87b35-1288-4250-8093-20e5deec5543" d="M22,8c-.66,2.05-.33,3.85-.31,5.63a2.77,2.77,0,0,0,.74-.21c0-2.08-.3-5.71,1.16-7.23l-.18-.26A3.53,3.53,0,0,0,22,8Z"/>
      <path class="ac68f426-d6c4-4308-badd-8945bb2be6a1" d="M19.78,13.1c.14-2.5.57-5.95,2.74-7.57C20.73,7.5,20.26,11.37,19.78,13.1Z"/>
    </g>
    <g class="a009a7a1-7ef4-4e3d-8a39-f236e233ad22">
      <path class="a5128cae-efaa-41ba-845c-e043564ba1c8" d="M34.26,18.62a10.28,10.28,0,0,0,.61,1.85c.23.66.46,1.33.68,2a40,40,0,0,1,1.18,4.15,4.8,4.8,0,0,1,.17,1.55,2,2,0,0,1-.68,1.33,11.47,11.47,0,0,0-2.3,2.42c-.36.75-.67,3-1,3.31A7.86,7.86,0,0,0,31,38.47c-.11.87.74,2.18-.13,2.09a2.44,2.44,0,0,0-1.9.79,7.46,7.46,0,0,0-1.16,1.76,9.39,9.39,0,0,1-3.3,4,12,12,0,0,0-1.77,1c-.93.75-1.35,2.11-2.46,2.53s-2.21-.22-3.16-.83a4,4,0,0,1-1.17-1,6.14,6.14,0,0,0-.5-.72,2.49,2.49,0,0,0-.72-.47L11.59,46a28.88,28.88,0,0,0,3.91,4.28,9.52,9.52,0,0,0,5.22,2.35,9.3,9.3,0,0,0,6.15-2,23.63,23.63,0,0,0,4.53-4.78,42.93,42.93,0,0,0,5.34-8.59,20.15,20.15,0,0,0,1.84-9.86,14.21,14.21,0,0,0-1.3-4.82A13.12,13.12,0,0,0,36,20.45,5.73,5.73,0,0,0,34.26,18.62Z"/>
    </g>
    <path class="bd68a7fb-992a-43a6-9047-61a0d59be75e" d="M17.32,24.7a.91.91,0,0,1-.37-.28,3,3,0,0,1-.62-2.68.44.44,0,0,0,0-.34c-.08-.13-.26-.13-.4-.1-.79.16-1.38.89-2.18,1-.35.05-.79,0-1,.32a.92.92,0,0,0,0,.44,2.44,2.44,0,0,1-.51,1.7.91.91,0,0,1-1.38.12c-.54-.47-.65-1.32-1.16-1.84A1,1,0,0,0,8,24a3.69,3.69,0,0,0,.46.85A4.38,4.38,0,0,1,8.91,27c0,1.3-.61,2.49-.6,3.78A5.75,5.75,0,0,0,9,33.27c.26.55-.67,2.84,1.57,5.27a1.61,1.61,0,0,0,.8.43c.15,0,.73.18.52-.16-2-3.25.14-9.36.19-9.74.09-.64,0-1.37.46-1.78a1.22,1.22,0,0,1,1.19-.2c.81.3,1.89-.11,3.66-1.11.61-.35,2.06,0,2.77,0C21.14,26,17.73,24.84,17.32,24.7Z"/>
  </g>
</svg>
