<svg id="f8ac4d18-3e55-4407-b0d5-64bfc6f58214" data-name="Layer 1" xmlns="http://www.w3.org/2000/svg" width="70" height="72" viewBox="0 0 70 72">
  <defs>
    <style>
      .b412e75f-8756-40a8-95b5-5a2718c8519e, .e4c9e723-71a1-4298-bd68-e702c9072803 {
        fill: #ffd827;
      }

      .e4c9e723-71a1-4298-bd68-e702c9072803 {
        stroke: #997c00;
        stroke-width: 2px;
      }

      .a9e6879b-63b2-414c-8001-afb01f286558, .e4c9e723-71a1-4298-bd68-e702c9072803 {
        stroke-miterlimit: 10;
      }

      .bf635b58-dba4-4c54-af45-467861990649 {
        fill: #ecbc0b;
      }

      .b9dd23a3-0f06-4788-bb41-cdaaf1b6a171 {
        fill: #f4c309;
      }

      .e7711e1d-2ce4-4a6d-87d5-e9c54760aa25 {
        fill: #e7b80b;
      }

      .bdf1b187-9a42-4c8f-b57b-cace131f115b {
        fill: #e5b60c;
      }

      .a06d192f-8c36-441d-9fcc-7aafbd2df26b {
        fill: #eaba09;
      }

      .a9e6879b-63b2-414c-8001-afb01f286558 {
        fill: #6bc62a;
        stroke: #148c03;
      }

      .ac5f0b99-5d29-4fa0-8d9b-2ba15154f994 {
        fill: #62b826;
      }
    </style>
  </defs>
  <g>
    <g>
      <path class="e4c9e723-71a1-4298-bd68-e702c9072803" d="M53.37,12.51l-.13-.1c-.46-.35-.94-.68-1.42-1l-.14-.1q-.8-.51-1.62-1l-.06,0c-.49-.28-1-.54-1.52-.8l-.43-.2h0c-.41-.2-.83-.38-1.25-.55l-.43-.19-.07,0c-.56-.23-1.13-.44-1.72-.63l-1.08-.33a30.25,30.25,0,0,0-16.62,0c-.46.14-.93.28-1.39.44A28.52,28.52,0,0,0,22.76,9a30.72,30.72,0,0,0-3.84,2.05c-.82.52-1.62,1.08-2.39,1.68a29.81,29.81,0,0,0-5.2,5.15,28.6,28.6,0,0,0-1.72,2.43,30.33,30.33,0,0,0-3.27,6.89c-.2.62-.38,1.23-.54,1.85l-.09.33C2.39,42.2,6.66,55,17.29,61.74l.07,0c.58.36,1.18.71,1.8,1l.32.16c.62.32,1.25.63,1.9.91a2.22,2.22,0,0,1,.57.41c.59.53,1.38,1.42,2.06,2.09a5,5,0,0,0,.9.74.51.51,0,0,0,.17.08,3.51,3.51,0,0,0,1.19.07c1.24-.08,2.94-.42,3.95-.44h0a2.17,2.17,0,0,1,.47,0h0c.44.09.87.17,1.31.24l.43.06c.29,0,.57.09.86.12l.51,0,.78.07.54,0,.73,0h1.83l.69,0c.4,0,.8-.06,1.2-.11l.48,0,.76-.12.42-.07.78-.15.37-.08.82-.2.29-.08.88-.25.13,0c8.89-2.8,16.06-10.19,19.34-20.18A30.27,30.27,0,0,0,53.37,12.51Z"/>
      <g>
        <g>
          <path class="bf635b58-dba4-4c54-af45-467861990649" d="M63.88,46.1C59,60.9,45.64,70,30.73,66.89c-1.09-.23-4.56.69-5.65.33-.85-.28-2.89-3-3.7-3.32-14.28-6.11-20-21.65-15-36.68A30.28,30.28,0,1,1,63.88,46.1Z"/>
          <path class="b9dd23a3-0f06-4788-bb41-cdaaf1b6a171" d="M64.54,29.69a30.25,30.25,0,0,0-58.2-2.47,34.9,34.9,0,0,0-1.62,8A41.49,41.49,0,0,0,19,43.32,41.63,41.63,0,0,0,64.54,29.69Z"/>
          <path class="e7711e1d-2ce4-4a6d-87d5-e9c54760aa25" d="M44.55,7.89A30.05,30.05,0,0,0,40.9,7a3.77,3.77,0,0,0,7.15,2.33A30.76,30.76,0,0,0,44.55,7.89Z"/>
          <path class="bdf1b187-9a42-4c8f-b57b-cace131f115b" d="M18.45,57.08a51,51,0,0,1-10-4.51A27,27,0,0,0,21.38,63.9c.81.34,2.85,3,3.7,3.32,1.09.36,4.56-.56,5.65-.33,12.83,2.69,24.52-3.7,30.63-15A51,51,0,0,1,18.45,57.08Z"/>
        </g>
        <ellipse class="b412e75f-8756-40a8-95b5-5a2718c8519e" cx="29.06" cy="10.61" rx="5.87" ry="2.55" transform="translate(-1.69 7.2) rotate(-13.73)"/>
      </g>
      <path class="a06d192f-8c36-441d-9fcc-7aafbd2df26b" d="M16.3,18.52a.51.51,0,0,1-1,0,.51.51,0,0,1,1,0Z"/>
      <circle class="a06d192f-8c36-441d-9fcc-7aafbd2df26b" cx="10.43" cy="29.74" r="0.51"/>
      <path class="a06d192f-8c36-441d-9fcc-7aafbd2df26b" d="M18.09,25.91a.51.51,0,1,1-1,0,.51.51,0,0,1,1,0Z"/>
      <circle class="a06d192f-8c36-441d-9fcc-7aafbd2df26b" cx="24.47" cy="30.76" r="0.51"/>
      <circle class="a06d192f-8c36-441d-9fcc-7aafbd2df26b" cx="34.67" cy="34.59" r="0.51"/>
      <circle class="a06d192f-8c36-441d-9fcc-7aafbd2df26b" cx="41.3" cy="28.72" r="0.51"/>
      <circle class="a06d192f-8c36-441d-9fcc-7aafbd2df26b" cx="48.96" cy="32.55" r="0.51"/>
      <path class="a06d192f-8c36-441d-9fcc-7aafbd2df26b" d="M47.94,20.3a.51.51,0,1,1-.51-.51A.51.51,0,0,1,47.94,20.3Z"/>
      <path class="a06d192f-8c36-441d-9fcc-7aafbd2df26b" d="M52.27,25.91a.5.5,0,0,1-.51.51.51.51,0,0,1-.51-.51.51.51,0,0,1,.51-.51A.51.51,0,0,1,52.27,25.91Z"/>
      <circle class="a06d192f-8c36-441d-9fcc-7aafbd2df26b" cx="55.08" cy="34.59" r="0.51"/>
      <circle class="a06d192f-8c36-441d-9fcc-7aafbd2df26b" cx="61.46" cy="29.74" r="0.51"/>
      <circle class="a06d192f-8c36-441d-9fcc-7aafbd2df26b" cx="56.87" cy="20.3" r="0.51"/>
      <circle class="a06d192f-8c36-441d-9fcc-7aafbd2df26b" cx="27.27" cy="42.5" r="0.51"/>
      <circle class="a06d192f-8c36-441d-9fcc-7aafbd2df26b" cx="19.11" cy="37.4" r="0.51"/>
      <path class="a06d192f-8c36-441d-9fcc-7aafbd2df26b" d="M24,21.32a.51.51,0,0,1-.51.51.51.51,0,0,1,0-1A.51.51,0,0,1,24,21.32Z"/>
      <circle class="a06d192f-8c36-441d-9fcc-7aafbd2df26b" cx="32.63" cy="23.62" r="0.51"/>
      <circle class="a06d192f-8c36-441d-9fcc-7aafbd2df26b" cx="39.52" cy="17.75" r="0.51"/>
      <path class="a06d192f-8c36-441d-9fcc-7aafbd2df26b" d="M52.27,13.92a.5.5,0,0,1-.51.51.51.51,0,0,1-.51-.51.51.51,0,0,1,.51-.51A.51.51,0,0,1,52.27,13.92Z"/>
      <path class="a06d192f-8c36-441d-9fcc-7aafbd2df26b" d="M44.37,40a.51.51,0,0,1-.51.51.51.51,0,0,1-.51-.51.5.5,0,0,1,.51-.51A.51.51,0,0,1,44.37,40Z"/>
      <path class="a06d192f-8c36-441d-9fcc-7aafbd2df26b" d="M29.57,16.73a.51.51,0,1,1-.51-.51A.51.51,0,0,1,29.57,16.73Z"/>
    </g>
    <path class="a9e6879b-63b2-414c-8001-afb01f286558" d="M42.58,8.82,44.44,5.1a1.1,1.1,0,0,1,1.35-.53h0a1.09,1.09,0,0,1,.59,1.5L44.62,9.59S42.83,10.35,42.58,8.82Z"/>
    <path class="ac5f0b99-5d29-4fa0-8d9b-2ba15154f994" d="M42.86,8.27l-.28.55a.78.78,0,0,0,.51,1,1.94,1.94,0,0,0,1.53-.25L44.89,9Z"/>
  </g>
</svg>
