<svg id="ed84a956-8806-494e-b170-18fce901586a" data-name="Layer 1" xmlns="http://www.w3.org/2000/svg" width="157" height="159" viewBox="0 0 157 159">
  <defs>
    <style>
      .a3cc6402-4a9b-4cb3-b1c0-0010f5edbb08, .bef4c77a-e5f0-4cc2-b2d4-ae6b5b6ba366 {
        fill: #052d05;
      }

      .bef4c77a-e5f0-4cc2-b2d4-ae6b5b6ba366 {
        stroke: #001e00;
      }

      .a510241d-0eb1-442f-9ea4-671a91ce9dcf, .bef4c77a-e5f0-4cc2-b2d4-ae6b5b6ba366 {
        stroke-miterlimit: 10;
      }

      .b143dcf2-e3a5-49e6-8f96-31b7962d1aeb {
        fill: #0b4712;
      }

      .a7e2fe3a-4d8e-4003-a274-d4c0eeaa8a1d {
        fill: #6da541;
      }

      .e6c516d5-ac1f-46d2-80a8-e65bed1af457 {
        fill: #5c8c31;
      }

      .b374cc95-7460-48c6-a459-4cf3da831f41 {
        fill: #547c29;
      }

      .a312888c-16f9-47fa-a52e-1e93e6767664 {
        fill: #063508;
      }

      .e8f6e96e-07b4-47ec-8190-f78802fd05a0 {
        fill: #593113;
      }

      .acb752ce-2f09-4b69-949e-dd1878413b31 {
        fill: #683919;
      }

      .a510241d-0eb1-442f-9ea4-671a91ce9dcf {
        fill: #7c451f;
        stroke: #5e2a00;
      }

      .e9211db1-7303-4686-ab44-13d16cfc886f {
        fill: #9b5e34;
      }

      .e8589365-7d36-4bf6-87d1-250f2b340fa1 {
        fill: #155918;
      }

      .b186e73a-44d6-47e8-8ef2-e3a797c9da25 {
        fill: #80b54e;
      }
    </style>
  </defs>
  <g>
    <path class="bef4c77a-e5f0-4cc2-b2d4-ae6b5b6ba366" d="M140.17,115.12A81.25,81.25,0,0,1,131.69,127a77.72,77.72,0,0,1-31.27,22.07,73.34,73.34,0,0,1-16.7,4.22,70.48,70.48,0,0,1-14.59.39A68.41,68.41,0,0,1,54.63,151l-.62-.2c-1.36-.43-2.72-.9-4.07-1.42s-2.79-1.14-4.17-1.78c-1.88-.88-3.75-1.85-5.58-2.92A68.66,68.66,0,0,1,33,139.86q-1.82-1.4-3.51-2.9c-1.29-1.13-2.52-2.31-3.7-3.52l-.22-.22a68.78,68.78,0,0,1-11.69-16.4q-.87-1.69-1.65-3.45c-.52-1.15-1-2.33-1.46-3.51h0A74.56,74.56,0,0,1,5.93,85.72h0A79.1,79.1,0,0,1,16.82,43.06l0-.07h0A78.3,78.3,0,0,1,60.29,7.76c1.26-.4,2.52-.76,3.78-1.07A56.49,56.49,0,0,1,74.7,5.13a60.12,60.12,0,0,1,12.84.78,71.61,71.61,0,0,1,12.87,3.48q3.06,1.13,6.07,2.51c2.47,1.13,4.91,2.39,7.33,3.76l1.31.75q2.23,1.31,4.37,2.7c1.67,1.09,3.3,2.22,4.86,3.39q1.91,1.42,3.7,2.93a68.72,68.72,0,0,1,13,14.2h0a56.49,56.49,0,0,1,8.39,19.54c.07.31.14.62.2.93A78.3,78.3,0,0,1,140.17,115.12Z"/>
    <path class="b143dcf2-e3a5-49e6-8f96-31b7962d1aeb" d="M131.62,109.94a76.26,76.26,0,0,1-8.09,11.36c-1.14,1.33-2.32,2.62-3.54,3.85a73.8,73.8,0,0,1-26.26,17.19c-2.11.8-4.26,1.51-6.43,2.1a70.14,70.14,0,0,1-9.48,1.92l-1.25.15a66.83,66.83,0,0,1-12.65.21c-1.4-.11-2.79-.26-4.18-.46a63.32,63.32,0,0,1-9.63-2.14l-.6-.18-.77-.25c-1-.34-2.08-.71-3.11-1.11-1.33-.52-2.66-1.08-4-1.69q-2.7-1.26-5.32-2.79c-.56-.32-1.11-.66-1.65-1a61.35,61.35,0,0,1-5.16-3.58c-1-.73-1.87-1.47-2.76-2.24l-.59-.52c-1.23-1.08-2.4-2.2-3.53-3.36l-.2-.21a65,65,0,0,1-10.18-13.82c-.52-1.15-1-2.33-1.46-3.51h0A74.56,74.56,0,0,1,5.93,85.72h0A79.1,79.1,0,0,1,16.82,43.06l0-.07h0A78.3,78.3,0,0,1,60.29,7.76c1.26-.4,2.52-.76,3.78-1.07A56.49,56.49,0,0,1,74.7,5.13a57.25,57.25,0,0,1,6.76.74A68.46,68.46,0,0,1,93.73,9.18q2.91,1.08,5.79,2.4,2.24,1,4.45,2.2c.85.45,1.69.91,2.53,1.38l1.25.72.1.06c1.38.81,2.74,1.65,4.06,2.51.4.26.8.52,1.19.79,1.18.79,2.33,1.61,3.45,2.44a.1.1,0,0,0,0,0c1,.77,2,1.55,3,2.35l.47.4c.48.39,1,.8,1.41,1.2q2.39,2.1,4.53,4.36a60.15,60.15,0,0,1,6.42,8h0a53.67,53.67,0,0,1,8,18.62c.07.29.13.59.19.89.35,1.71.63,3.44.86,5.19h0A74.94,74.94,0,0,1,131.62,109.94Z"/>
    <path class="a7e2fe3a-4d8e-4003-a274-d4c0eeaa8a1d" d="M124.33,77.11c-2.68,7.51-.68,15-6.93,21,.15-.14-.35.58-.31.5-5.45,9-4.2,21.39-12.41,30-2.67,2.78-6,6.27-9.18,8.45-2.56,1.68-5.38,3.32-7.27,5.74a6.82,6.82,0,0,0-.93,1.61,70.14,70.14,0,0,1-9.48,1.92l-1.25.15a5.72,5.72,0,0,0,1-1.62c2.7-6.95,8.65-9.23,12.39-15.65,3-5.86,4.16-10.21,7.41-16.1,2.89-5.32.44-12.46,6.42-15.87,2.25-1.35,3.11-3.43,2-5.85-.77-5.65,1.89-5.41,5.29-9.76,2.59-2.28-1-6.75-.78-9.42.15-2.29,2.21-4.25,3.44-6.06,1.62-2.37,2.27-4.11.71-7.08-2.25-5.21,2.82-7,1.85-10.81a119.52,119.52,0,0,1-.92-14.39c.06-1.62.27-2.53.72-2a18.29,18.29,0,0,1,1.89,2.76c3.88,6.79,7.31,19.58,5.22,26.42C122.43,66.44,125.71,71.43,124.33,77.11Z"/>
    <path class="e6c516d5-ac1f-46d2-80a8-e65bed1af457" d="M50.11,144.12a63.32,63.32,0,0,0,9.63,2.14c-1.5,1.43-3.42,3.27-5.11,4.73l-.62-.2c-1.36-.43-2.72-.9-4.07-1.42s-2.79-1.14-4.17-1.78c.89-1.18,2-2.53,3-3.9l.77.25Z"/>
    <path class="e6c516d5-ac1f-46d2-80a8-e65bed1af457" d="M87.3,144.44c-1.14,2.83-.14,5.8-3,8.36-.16.15-.36.32-.61.53a70.48,70.48,0,0,1-14.59.39c1.21-2.94,5.31-4.73,7.44-7.21l1.25-.15A70.14,70.14,0,0,0,87.3,144.44Z"/>
    <path class="a7e2fe3a-4d8e-4003-a274-d4c0eeaa8a1d" d="M106.81,54a55,55,0,0,0,.27,13.88c.63,3.29-5.39,9.46-6.87,12.33-3,5,0,6.2-2.83,11.83-1.79,2.77-7,2.34-9.16,12.58-2.76,12.42-6.32,15.32-11,20.74-7.87,9-12.12,15.95-15.74,19.19-.45.4-1.07,1-1.79,1.67a63.32,63.32,0,0,1-9.63-2.14l-.6-.18-.77-.25a29.41,29.41,0,0,0,2.5-3.95c1.37-2.49,4.28-4.25,5.52-6.81,1.4-2.29,4.34-2.75,6.09-4.9,3-3.72.75-12.34,4.63-14.41,4.43-2.39,8.85-.83,7-7.87-1-3.39,1.71-5.51,3.6-7.71,3-3.54-.68-7.63,2.26-10.77C83.37,83.94,83.79,86,85,81.18A28.48,28.48,0,0,1,88.59,72c3-4.48,5.33-5.22,6.47-10.39,1.27-6,3.66-11.86,8.83-16.64,4.28-3.95,5.29-9.9,6.47-13.45a2.25,2.25,0,0,1,.08-.24c.78-2.25,1.18-1.21,1.35,1h0c.28,3.7-.08,10.67-.43,11.48C110.24,47.2,107.32,50.46,106.81,54Z"/>
    <path class="a7e2fe3a-4d8e-4003-a274-d4c0eeaa8a1d" d="M116.6,21.72a17.53,17.53,0,0,0-1.8,1.88l-.07.09c-1.56,1.88-2,.92-2-1.17a26.52,26.52,0,0,1,.36-3.28c1.18.79,2.33,1.61,3.45,2.44A.1.1,0,0,0,116.6,21.72Z"/>
    <path class="e6c516d5-ac1f-46d2-80a8-e65bed1af457" d="M34.69,137.1A11.28,11.28,0,0,1,33,139.86q-1.82-1.4-3.51-2.9c-1.29-1.13-2.52-2.31-3.7-3.52.28-.69.6-1.43.94-2.16.89.77,1.81,1.51,2.76,2.24A61.35,61.35,0,0,0,34.69,137.1Z"/>
    <path class="a7e2fe3a-4d8e-4003-a274-d4c0eeaa8a1d" d="M105.69,28.16c-1.82,1.48-6.12,3.82-7.57,6.91-.21.43-.42.85-.64,1.26h0C94,42.86,88.9,47,84.27,52.34c-4.16,4.8-3.7,12.57-9.69,15.84-2.42,1.33-5.06,2.83-6.5,5.26a8.24,8.24,0,0,0-.68,4.5c0,1.77,0,3.45-1.64,4.63h0l0,0-.07,0c-6.54,3.5-7.13,7.15-9.48,14.08-2.51,7.68-6,8.84-12.19,13.22-4.39,3.52-2.06,11.25-4.53,15.79s-3.48,8.5-4.75,11.36a61.35,61.35,0,0,1-5.16-3.58c-1-.73-1.87-1.47-2.76-2.24A30.08,30.08,0,0,1,30,125.45c4.61-4.92-2.14-9.92,1.12-15.5,2.6-4.36,4.21-9.45,6.89-13.39,1.67-2.47,5.11-3,6.55-5.53,1.14-2,.6-4.17.25-6.36a8.62,8.62,0,0,1,.12-4.37c1-2.73,6-3.09,8-5.08,2.3-2.34,3.6-5.45,4.81-8.45,2.43-6,5.15-10.75,10.19-15,2.21-1.88,4.66-4.82,7-6.41,2.91-2,7-1.54,9.1-4.53,1.51-2.69,7.34-7.36,12.66-10.63a29.49,29.49,0,0,1,7.45-3.55,3.88,3.88,0,0,1,1.39-.1C107,26.78,106.71,27.33,105.69,28.16Z"/>
    <path class="a7e2fe3a-4d8e-4003-a274-d4c0eeaa8a1d" d="M102.32,24.17c-1.58.54-4.56,1.13-7.25,1.95a20.78,20.78,0,0,0-3.26,1.23c-5.58,2.87-7.85,5.9-13.56,8.51a10.61,10.61,0,0,0-2,3.16c-1.72,3.35-5.12,4-8,5.86-3.92,2.38-7.71,11-11.55,13.53l0,0a19.51,19.51,0,0,0-4.41,2.12c-.45.29-.89.59-1.32.92a17.38,17.38,0,0,0-3.85,3.15c-.36.49-.71,1-1.05,1.48s-.68,1-1.07,1.51l-1.4,1.29-1.36,1.32a82.47,82.47,0,0,0-9.8,11.33,6.22,6.22,0,0,1-1.23,1.35C29.76,84.08,28,85.09,27.36,87c-.21.58-.39,1.18-.55,1.79-1,3.71-1.4,7.69-5.84,10.89-4,3-4.86,4-4.95,10.27a13.25,13.25,0,0,1-2.1,6.84,72.31,72.31,0,0,1-3.11-7h0c.33-1.45.74-3,1.21-4.52,2.06-7.22,5.48-14.46,5.67-16,.58-5.36.68-8.73,4.18-12.62l.21-.22a24.79,24.79,0,0,0,1.68-2c2.46-4.45,5.92-8.11,9-12.07a20.36,20.36,0,0,0,3.38-6.72c.22-.71.43-1.44.61-2.19a3.51,3.51,0,0,1,2.66-2.84c.9-.28,1.72-.47,2.46-.63,5.27-1,6.47,1.23,8.67-6a11.09,11.09,0,0,1,10.34-8.19c7.76-.44,9.67-3.73,14.86-8.57,2.88-2.86,9.8-5,16.28-5.55a25.09,25.09,0,0,1,9.83.83,10.54,10.54,0,0,1,1.35.59C103.77,23.49,103.33,23.82,102.32,24.17Z"/>
    <path class="a7e2fe3a-4d8e-4003-a274-d4c0eeaa8a1d" d="M102.29,21.2l-.06,0a59.13,59.13,0,0,0-14.16-2.76,16.06,16.06,0,0,0-3.95.22c-3.33.74-6.13,1-7.72.6-6.75-1.16-11.14,3-16.89,4.51-5,1.39-5.83,3.47-9.92,6.6a47.53,47.53,0,0,1-8.21,4.88c-4.21,2.22-2.34,2-4.88,5.48-2.25,3.3-6.45,1.66-8.91,5.5C26.09,48.6,25,51.55,22,52.32c-6.3,1.77-3.84,4.68-4.25,9.25a4.63,4.63,0,0,1-.9,2.26c-2,3-7,5.77-8.11,9.59-.8,2.7.19,5.16-.68,7.71-.65,1.53-1.41,3-2.09,4.59A79.1,79.1,0,0,1,16.82,43.06l0-.07h0c.89-.77,1.86-1.55,2.93-2.37,8.77-6.09,7.92-10,10.41-12.57,5.24-4.22,6.56-1.95,11.35-5.72,2.69-2,9.25-8.12,12.66-7.92a103.3,103.3,0,0,0,14.17-.58C88.05,11,95.46,17.9,99.19,18.65a10,10,0,0,1,4.08,1.88C104.55,21.52,104.7,22.3,102.29,21.2Z"/>
    <path class="a7e2fe3a-4d8e-4003-a274-d4c0eeaa8a1d" d="M109.33,21.14c0,1-.4,1.19-1-.29q-.11-.29-.21-.63A37.52,37.52,0,0,0,104,13.78c.85.45,1.69.91,2.53,1.38l1.25.72.1.06a2.15,2.15,0,0,0,.14.26A9.89,9.89,0,0,1,109.33,21.14Z"/>
    <path class="e6c516d5-ac1f-46d2-80a8-e65bed1af457" d="M140.09,103.9c-.31,2.84,1.71,6.88.24,9.57-1.92,3.42-5.78,3.83-7.47,7.38-1,1.94-.79,4.08-1.17,6.19a77.72,77.72,0,0,1-31.27,22.07l.11-.12c2.4-2.71,5-5.44,6-6.51,3.57-3.54,10.42-5.27,12-10.58.64-2.7,1-4.82,1.39-6.75,1.22-1.23,2.4-2.52,3.54-3.85a76.26,76.26,0,0,0,8.09-11.36,74.94,74.94,0,0,0,9.85-47.23,12.17,12.17,0,0,1,1.44,2.78c1,2.75,1.29,6.78,1.8,9.77,1.16,6.82.25,12.6-1.92,18.93A46.65,46.65,0,0,0,140.09,103.9Z"/>
    <path class="a7e2fe3a-4d8e-4003-a274-d4c0eeaa8a1d" d="M131.62,109.94a76.26,76.26,0,0,1-8.09,11.36c-1.14,1.33-2.32,2.62-3.54,3.85a23.22,23.22,0,0,1,4.35-9.67c3.84-5.71,6-8.63,5-15.42v0c-.2-3.47,3.41-4.55,4.17-7.84.6-2.68-.08-5.47-.8-7.92-1.83-6,.52-10.51-.28-16.71-1.09-7.3-3.08-11.51-4.63-19.22-1-5.12-4.45-10.21-6.67-13.37-1.51-2.14-2.46-3.4-1.73-3.18A13.9,13.9,0,0,1,123,34.34c4,3.46,9.41,9.48,10.76,12.55,1.93,4.26,4.17,6.83,4.4,9.53.38,2.64,1.95,4.32,3.28,6.29h0A74.94,74.94,0,0,1,131.62,109.94Z"/>
    <path class="e6c516d5-ac1f-46d2-80a8-e65bed1af457" d="M115.12,16.41q2.23,1.31,4.37,2.7c-1,.93-2,1.81-2.89,2.61a.1.1,0,0,1,0,0c-1.12-.83-2.27-1.65-3.45-2.44.19-1.17.44-2.4.71-3.58Z"/>
    <path class="e6c516d5-ac1f-46d2-80a8-e65bed1af457" d="M128.05,25.43a52.39,52.39,0,0,0-6.58.24c-.46-.4-.93-.81-1.41-1.2l-.47-.4c1.37-.53,3-1.07,4.76-1.57Q126.26,23.92,128.05,25.43Z"/>
    <path class="e6c516d5-ac1f-46d2-80a8-e65bed1af457" d="M106.48,11.9a30.73,30.73,0,0,0,1.37,4l-.1-.06-1.25-.72c-.84-.47-1.68-.93-2.53-1.38-1.11-1.48-2.34-3-3.56-4.39Q103.47,10.52,106.48,11.9Z"/>
    <path class="a7e2fe3a-4d8e-4003-a274-d4c0eeaa8a1d" d="M121.47,25.67c-1.17.11-2.2.23-3,.32-1.74.18-2.66.24-2.22-.18a5,5,0,0,1,1-.69,21.77,21.77,0,0,1,2.37-1.05l.47.4C120.54,24.86,121,25.27,121.47,25.67Z"/>
    <path class="e6c516d5-ac1f-46d2-80a8-e65bed1af457" d="M149.41,59.17l-.57-.28c-3.5-1.82-3.53-9.78-7.36-13-1.93-1.6-4.26-1.81-6.16-3.13a53.19,53.19,0,0,0-2.9-4.8h0A60.15,60.15,0,0,0,126,30c2.23,1,4.4,2.11,5.73,2.89A53,53,0,0,1,141,39.63h0A56.49,56.49,0,0,1,149.41,59.17Z"/>
    <path class="a7e2fe3a-4d8e-4003-a274-d4c0eeaa8a1d" d="M135.32,42.81a6.55,6.55,0,0,1-.66-.52,70.8,70.8,0,0,0-6.1-6.29c-1.93-1.58-3.59-2.87-5-3.92-5.22-3.95-6.72-4.55-4.4-4.37a9.69,9.69,0,0,1,1.62.33,40,40,0,0,1,5.2,2,60.15,60.15,0,0,1,6.42,8h0A53.19,53.19,0,0,1,135.32,42.81Z"/>
    <path class="a7e2fe3a-4d8e-4003-a274-d4c0eeaa8a1d" d="M106.18,21.09c-.16.1-.58-.25-1.28-.79a17.14,17.14,0,0,0-4.07-2.43c-3.33-1.42-6.74-3-8.08-3.66-4.5-2.27-11.36-7-16.92-6.84-6.31.58-7,.75-11.76-.68a57.41,57.41,0,0,1,23.47-.78c4.06,2.72,7.36,5.82,11.29,7.14,3.55,1.2,7.18,5.59,7.51,7.36C106.4,20.73,106.35,21,106.18,21.09Z"/>
    <path class="a3cc6402-4a9b-4cb3-b1c0-0010f5edbb08" d="M123.46,33.85a1.67,1.67,0,0,1-.43.49,13.9,13.9,0,0,0-3.66-2.56c-.73-.22.22,1,1.73,3.18a10.67,10.67,0,0,1-3-.29,18.29,18.29,0,0,0-1.89-2.76c-.45-.54-.66.37-.72,2a30,30,0,0,1-3.66-1.62h0c-.17-2.24-.57-3.28-1.35-1a2.25,2.25,0,0,0-.08.24,31.16,31.16,0,0,1-4.67-3.33c1-.83,1.26-1.38-.2-1.65a3.88,3.88,0,0,0-1.39.1,11.24,11.24,0,0,1-1.78-2.44c1-.35,1.45-.68.84-1a10.54,10.54,0,0,0-1.35-.59,1.93,1.93,0,0,1,.24-1.12,1.44,1.44,0,0,1,.18-.25l.06,0c2.41,1.1,2.26.32,1-.67a5.3,5.3,0,0,1,1.63-.23c.7.54,1.12.89,1.28.79s.22-.36.16-.68a16.25,16.25,0,0,1,2,.44c.56,1.48.92,1.26,1,.29a27.1,27.1,0,0,1,3.41,1.38c-.06,2.09.43,3.05,2,1.17l.07-.09.22.13c.78.44,1.51.91,2.2,1.39a5,5,0,0,0-1,.69c-.44.42.48.36,2.22.18A25.19,25.19,0,0,1,120.8,28a9.69,9.69,0,0,0-1.62-.33c-2.32-.18-.82.42,4.4,4.37A2.26,2.26,0,0,1,123.46,33.85Z"/>
    <path class="b374cc95-7460-48c6-a459-4cf3da831f41" d="M118.42,26c-1.74.18-2.66.24-2.22-.18a5,5,0,0,1,1-.69Q117.85,25.54,118.42,26Z"/>
    <path class="b374cc95-7460-48c6-a459-4cf3da831f41" d="M102.32,24.17a4.37,4.37,0,0,1-.51-1.62,10.54,10.54,0,0,1,1.35.59C103.77,23.49,103.33,23.82,102.32,24.17Z"/>
    <path class="b374cc95-7460-48c6-a459-4cf3da831f41" d="M102.29,21.2l-.06,0a2.24,2.24,0,0,1,1-.65C104.55,21.52,104.7,22.3,102.29,21.2Z"/>
    <path class="b374cc95-7460-48c6-a459-4cf3da831f41" d="M105.69,28.16a21.45,21.45,0,0,1-1.59-1.55,3.88,3.88,0,0,1,1.39-.1C107,26.78,106.71,27.33,105.69,28.16Z"/>
    <path class="b374cc95-7460-48c6-a459-4cf3da831f41" d="M104.9,20.3a10.66,10.66,0,0,1,1.44.11c.06.32,0,.56-.16.68S105.6,20.84,104.9,20.3Z"/>
    <path class="b374cc95-7460-48c6-a459-4cf3da831f41" d="M108.37,20.85c.31.08.63.18,1,.29C109.29,22.11,108.93,22.33,108.37,20.85Z"/>
    <path class="b374cc95-7460-48c6-a459-4cf3da831f41" d="M111.79,32.28c-.44-.23-.87-.47-1.31-.72l-.12-.07a2.25,2.25,0,0,1,.08-.24C111.22,29,111.62,30,111.79,32.28Z"/>
    <path class="a312888c-16f9-47fa-a52e-1e93e6767664" d="M112.74,22.52c.68.32,1.37.68,2.06,1.08l-.07.09C113.17,25.57,112.68,24.61,112.74,22.52Z"/>
    <path class="b374cc95-7460-48c6-a459-4cf3da831f41" d="M116.17,31.91a18.29,18.29,0,0,1,1.89,2.76,20.84,20.84,0,0,1-2.61-.77C115.51,32.28,115.72,31.37,116.17,31.91Z"/>
    <path class="b374cc95-7460-48c6-a459-4cf3da831f41" d="M123.58,32.08c-5.22-3.95-6.72-4.55-4.4-4.37a9.69,9.69,0,0,1,1.62.33A10.17,10.17,0,0,1,123.58,32.08Z"/>
    <path class="b374cc95-7460-48c6-a459-4cf3da831f41" d="M119.37,31.78A13.9,13.9,0,0,1,123,34.34a3.4,3.4,0,0,1-1.93.62C119.59,32.82,118.64,31.56,119.37,31.78Z"/>
    <g>
      <path class="e8f6e96e-07b4-47ec-8190-f78802fd05a0" d="M120.31,31.75c-1,1.75-5.72.92-10.51-1.86S102,23.45,103,21.7s5.72-.92,10.51,1.85S121.32,30,120.31,31.75Z"/>
      <path class="acb752ce-2f09-4b69-949e-dd1878413b31" d="M118.77,30.09c-.65,1.13-4.16.31-7.84-1.82s-6.12-4.77-5.47-5.89,4.16-.32,7.84,1.81S119.42,29,118.77,30.09Z"/>
      <g>
        <path class="e8f6e96e-07b4-47ec-8190-f78802fd05a0" d="M114.87,27.18c-.15.36-1.18.28-2.29-.19s-1.9-1.14-1.75-1.51,1.18-.27,2.3.2S115,26.82,114.87,27.18Z"/>
        <path class="a510241d-0eb1-442f-9ea4-671a91ce9dcf" d="M127.66,13.26c-.35-.36-7.19,0-11.58,1.18-.1-3.29-1.22-6.07-4.36-7.13-7.7-2.6-12.17,6.21-6.11,9.94a10,10,0,0,0,6.66,1A16.65,16.65,0,0,1,111,25.31c-.17.78,2,1.83,2.75,1.48a27.33,27.33,0,0,0,2.14-9.23c3.78-.84,7.9-1.59,10.21.22C127.56,17.15,128.09,13.71,127.66,13.26Zm-21.14.28c-.23-1,1.83-3.11,3.56-2.15.75.42,1.47,2.21,1.88,4.41C108.91,16.39,106.71,14.45,106.52,13.54Z"/>
        <path class="e9211db1-7303-4686-ab44-13d16cfc886f" d="M115.7,14.69l0-.5c-.11-3.66-1.45-5.88-4.09-6.77A8.13,8.13,0,0,0,109,7a5.68,5.68,0,0,0-5.62,4,5,5,0,0,0,2.45,5.67,8,8,0,0,0,4.31,1.08,17.72,17.72,0,0,0,2.09-.14L112,15.93h0a6.31,6.31,0,0,1-1.22.12c-2.7,0-4.49-1.75-4.69-2.69a2,2,0,0,1,.54-1.59,3.31,3.31,0,0,1,2.45-1.28,2.3,2.3,0,0,1,1.15.3c1.25.7,1.91,3.76,2.08,4.68l.08.39.21,1.68,0,.42a17.38,17.38,0,0,1-1.25,7.24.76.76,0,0,0,.11.68,1.72,1.72,0,0,0,1.31.52,1.87,1.87,0,0,0,.42,0,25.85,25.85,0,0,0,2.27-9.07V17Zm11.67-1.38a6.09,6.09,0,0,0-1-.05,48.53,48.53,0,0,0-10.22,1.3l-.07,0L116,16.89A29.93,29.93,0,0,1,122.1,16a7,7,0,0,1,4.07,1,3,3,0,0,0,.89-1.47A5,5,0,0,0,127.37,13.31Z"/>
      </g>
    </g>
    <path class="e8589365-7d36-4bf6-87d1-250f2b340fa1" d="M92,21.72c-6.48.54-13.4,2.69-16.28,5.55-5.19,4.84-7.1,8.13-14.86,8.57A11.09,11.09,0,0,0,50.5,44c-2.2,7.2-3.4,4.95-8.67,6-.74.16-1.56.35-2.46.63a3.51,3.51,0,0,0-2.66,2.84c-.18.75-.39,1.48-.61,2.19a20.36,20.36,0,0,1-3.38,6.72c-3,4-6.5,7.62-9,12.07a24.79,24.79,0,0,1-1.68,2l-.21.22A18.08,18.08,0,0,1,20.55,75a21.45,21.45,0,0,1-3.74-11.17,4.63,4.63,0,0,0,.9-2.26c.41-4.57-2.05-7.48,4.25-9.25,3-.77,4.13-3.72,5.63-6.11,2.46-3.84,6.66-2.2,8.91-5.5,2.54-3.44.67-3.26,4.88-5.48a47.53,47.53,0,0,0,8.21-4.88c4.09-3.13,4.91-5.21,9.92-6.6,5.75-1.47,10.14-5.67,16.89-4.51,1.59.39,4.39.14,7.72-.6a16.06,16.06,0,0,1,3.95-.22A21,21,0,0,1,92,21.72Z"/>
    <path class="b186e73a-44d6-47e8-8ef2-e3a797c9da25" d="M17.71,61.57a4.63,4.63,0,0,1-.9,2.26c-.72-12.69,8-28.08,23.29-38.76,16.93-11.84,36.53-14.14,48-6.65a16.06,16.06,0,0,0-3.95.22c-3.33.74-6.13,1-7.72.6-6.75-1.16-11.14,3-16.89,4.51-5,1.39-5.83,3.47-9.92,6.6a47.53,47.53,0,0,1-8.21,4.88c-4.21,2.22-2.34,2-4.88,5.48-2.25,3.3-6.45,1.66-8.91,5.5C26.09,48.6,25,51.55,22,52.32,15.66,54.09,18.12,57,17.71,61.57Z"/>
    <path class="e8589365-7d36-4bf6-87d1-250f2b340fa1" d="M96.65,30.16C91.33,33.43,85.5,38.1,84,40.79c-2.12,3-6.19,2.52-9.1,4.53-2.31,1.59-4.76,4.53-7,6.41-5,4.29-7.76,9-10.19,15-1.21,3-2.51,6.11-4.81,8.45-2,2-7,2.35-8,5.08a8.62,8.62,0,0,0-.12,4.37A34.11,34.11,0,0,1,31.15,82.9a6.22,6.22,0,0,0,1.23-1.35,82.47,82.47,0,0,1,9.8-11.33l1.36-1.32,1.4-1.29c.39-.49.73-1,1.07-1.51s.69-1,1.05-1.48a17.38,17.38,0,0,1,3.85-3.15c.43-.33.87-.63,1.32-.92a19.51,19.51,0,0,1,4.41-2.12l0,0c3.84-2.51,7.63-11.15,11.55-13.53,2.91-1.83,6.31-2.51,8-5.86a10.61,10.61,0,0,1,2-3.16c5.71-2.61,8-5.64,13.56-8.51a20.78,20.78,0,0,1,3.26-1.23A20,20,0,0,1,96.65,30.16Z"/>
    <path class="b186e73a-44d6-47e8-8ef2-e3a797c9da25" d="M44.94,67.61l-1.4,1.29-1.36,1.32a82.47,82.47,0,0,0-9.8,11.33,6.22,6.22,0,0,1-1.23,1.35,22.18,22.18,0,0,1-9.28-6.22l.21-.22a24.79,24.79,0,0,0,1.68-2c2.46-4.45,5.92-8.11,9-12.07a20.36,20.36,0,0,0,3.38-6.72c.22-.71.43-1.44.61-2.19a3.51,3.51,0,0,1,2.66-2.84c.9-.28,1.72-.47,2.46-.63,5.27-1,6.47,1.23,8.67-6a11.09,11.09,0,0,1,10.34-8.19c7.76-.44,9.67-3.73,14.86-8.57,2.88-2.86,9.8-5,16.28-5.55a19.79,19.79,0,0,1,3.09,4.4,20.78,20.78,0,0,0-3.26,1.23c-5.58,2.87-7.85,5.9-13.56,8.51a10.61,10.61,0,0,0-2,3.16c-1.72,3.35-5.12,4-8,5.86-3.92,2.38-7.71,11-11.55,13.53l0,0a19.51,19.51,0,0,0-4.41,2.12c-.45.29-.89.59-1.32.92a17.38,17.38,0,0,0-3.85,3.15c-.36.49-.71,1-1.05,1.48S45.33,67.12,44.94,67.61Z"/>
    <path class="e8589365-7d36-4bf6-87d1-250f2b340fa1" d="M97.48,36.34c.08,12.42-8.56,27.13-23.32,37.45a69,69,0,0,1-6.76,4.15,8.24,8.24,0,0,1,.68-4.5c1.44-2.43,4.08-3.93,6.5-5.26,6-3.27,5.53-11,9.69-15.84C88.9,47,94,42.86,97.48,36.34Z"/>
    <path class="b186e73a-44d6-47e8-8ef2-e3a797c9da25" d="M97.48,36.33h0C94,42.86,88.9,47,84.27,52.34c-4.16,4.8-3.7,12.57-9.69,15.84-2.42,1.33-5.06,2.83-6.5,5.26a8.24,8.24,0,0,0-.68,4.5,55.27,55.27,0,0,1-22.61,6.73,8.62,8.62,0,0,1,.12-4.37c1-2.73,6-3.09,8-5.08,2.3-2.34,3.6-5.45,4.81-8.45,2.43-6,5.15-10.75,10.19-15,2.21-1.88,4.66-4.82,7-6.41,2.91-2,7-1.54,9.1-4.53,1.51-2.69,7.34-7.36,12.66-10.63A23.32,23.32,0,0,1,97.48,36.33Z"/>
  </g>
</svg>
