<svg id="Layer_1" data-name="Layer 1" xmlns="http://www.w3.org/2000/svg" viewBox="0 0 1150 390"><defs><style>.cls-1,.cls-2{fill:none;stroke-linejoin:round;}.cls-1{stroke:#091b4f;stroke-width:25px;}.cls-2{stroke:#212189;stroke-width:20px;}.cls-3{fill:aqua;}</style></defs><path class="cls-1" d="M18.31,143.35C48.12,117.19,72.19,80.43,89.81,43c0,0,14.89,12.56,30.28,17.82-16.87,19.76-42.81,55.89-54.07,80,11.72,4.76,25.71,11.28,37.92,20a183.3,183.3,0,0,0-15.8,26.58C64.25,171,41.89,157.15,18.31,143.35Z"/><path class="cls-1" d="M128.87,226.24c-16.05-9.59-29.51-30.13-23.26-54.53,6.85-26.7,31.71-42.55,55.6-26.48,22.86,15.37,24.27,37.94,14.92,60.18,0,0-24.19-14.66-46.26-25.65-4.77,10.8-5,21.9,1.29,25.56,5.94,3.44,10.69-2.73,12.72-9.8,0,0,17.55,9.17,33.89,17.84C166,237.56,144.34,235.48,128.87,226.24Zm23-64.68c-4.44-2.29-10.35.83-15.62,7.21A166.12,166.12,0,0,0,155.73,180C158.37,172.23,157.58,164.5,151.88,161.56Z"/><path class="cls-1" d="M192,265.79c-21-16.12-11.68-46.53,5.41-73.83-4.2-2.29-6.79-3.65-6.79-3.65,4-7.33,8.37-13.74,8.37-13.74,3,1.65,4.53,2.47,7.56,4.08a246,246,0,0,1,17.08-20.91c11.6,6.92,23.4,13.81,23.4,13.81a155.26,155.26,0,0,0-17,18.9c7.21,3.51,10.83,5.21,18.09,8.5A119.82,119.82,0,0,0,238.43,217c-6.2-4.45-12.73-8.57-19-12.42-13.07,19.29-19.26,36.6-15.78,40.28s9.39-3.36,13.41-13.44c10.89,10.71,20.67,21.35,20.67,21.35C225.63,275.27,206.92,277.19,192,265.79Z"/><path class="cls-1" d="M255.57,197.5c4,.75,9.61-1.08,12.21-4.59-10.34-3.34-11.57-12.63-8.65-18.86,2.77-5.9,9.47-9.13,17.37-5.74,7.2,3.1,10.93,11.4,8.58,19.54C281.63,199.79,268.43,206.85,255.57,197.5Z"/><path class="cls-1" d="M275.16,306.29c-14.27-6.1-25.53-16.15-31.24-33.53A138.52,138.52,0,0,1,268,262.45c2.29,15.15,13.45,23.32,17.38,21.28,3.22-1.66,3.05-7-7.85-17.32-9.87-9.36-17.32-20.55-13.72-32.38,2.89-9.51,13.39-18.86,32.95-11.56,21.06,7.85,27.16,25.52,27.79,41.16A92,92,0,0,0,297.72,261c-1.33-16.32-10.65-19.65-11.74-13.8-2.74,15.94,36.25,27.84,29,51C310.59,312,293.26,314,275.16,306.29Z"/><path class="cls-1" d="M429.25,353.6c6.31-17.34,13-43.52,17.28-70.34-7.72,11.9-17.12,27.45-24.44,41.23a324.7,324.7,0,0,0-12.46-51.32c-5.34,26.38-9.63,59.05-8.67,77.94-19.29-5.8-37.65-10.62-37.65-10.62,15.9-39.26,23.34-83.21,26.84-126a304.35,304.35,0,0,0,31.24,9.07s.47,28,7.07,52.25c13.31-18.71,21.32-54,21.32-54a165.51,165.51,0,0,0,32.92,4.52c-12.49,41.33-18.42,87.53-13.09,131A207.59,207.59,0,0,0,429.25,353.6Z"/><path class="cls-1" d="M522.29,365a46,46,0,0,0,1.36-5.44,40.39,40.39,0,0,1-17.47,4.14c-12.9.28-33.76-11-32.32-28,1.61-18.94,20.62-25.81,36.31-24.57a36.7,36.7,0,0,1,17.43,5.77c-1.9-29.14-16.09-24.76-15.27-10.74-13.74-1.6-29.23.27-29.23.27-2.53-22.95,17-42.1,46.15-28.16,32.13,15.37,15.61,64.18,18.54,87.17C535.49,364.62,522.29,365,522.29,365Zm-10.54-35.78c-5.37,1.3-11.17,5.64-9.29,11s9.2,6.44,13.82,5.25c6.55-1.69,11.28-7.85,9.61-11.7C523.94,329.3,516.73,328.06,511.75,329.26Z"/><path class="cls-1" d="M605.86,370.64c-2.42-17.44-10.7-33.15-21-38.18.51,11.8,1.43,22.65,2.59,31.78-14.83.2-32.91,3-32.91,3,7.22-45.22,7.27-92.32,2.79-137.89l30.12-4.93c-2.06,25.18-3.38,58.34-3,88.63,9.81-4.29,16.88-16.75,17.92-34.71,0,0,18.77,3.2,30.92,1.28-1.78,18.29-11,35-28.22,44.37,15,5.16,29.11,17.83,34.27,35.75A151.89,151.89,0,0,0,605.86,370.64Z"/><path class="cls-1" d="M685,358.14c-17.32,3.49-38.33-3.42-46.44-27-8.87-25.83,1.49-55.59,28.16-59.37,25.52-3.63,38.69,13.28,43.35,37.33,0,0-26.35,5-48.9,11.61,2.07,11.83,7.74,20.79,14.49,19.32,6.34-1.38,6.7-9.54,4.49-16.53,0,0,18.24-4.85,35.42-9.24C719.44,341.54,701.73,354.77,685,358.14Zm-16.74-67c-4.58,1.26-7.42,7.8-8.06,16.49A145.38,145.38,0,0,0,681,303C678.89,295.07,674.2,289.5,668.3,291.11Z"/><path class="cls-1" d="M825.58,326.3c-20.55,6.85-40.85,4.68-56.84-8.77C774.32,303,783,285.59,783,285.59c12.75,13.83,36.82,14.32,42.09,4.27,4.21-8-4.4-15.33-25-17.53-19.52-2.09-39.26-6.57-44.1-27-2.8-11.75.34-31.78,22.67-40.47S821,203.6,835,218.07a308.31,308.31,0,0,0-21.54,25.38c-5-6.85-13.53-10.29-20-8.21-5.19,1.67-6.8,6.18-5.32,10.19,2.76,7.43,11.39,8.19,26.28,8.26,22,.11,37.89,7.1,42.83,21.81C865.13,298.89,846.34,319.38,825.58,326.3Z"/><path class="cls-1" d="M920,288.28a47.93,47.93,0,0,0-.93-5.57,47,47,0,0,1-14.24,12.66c-11.61,6.85-35,7.43-40.44-8.55-6.08-17.76,8.39-33.57,23.15-40.49a37.43,37.43,0,0,1,18.14-3.78c-13.32-25.06-24.48-13.87-18.15-1.76-13.12,5.6-26.42,15.16-26.42,15.16-11.41-19.23-1.36-46.26,30.71-48.77,35.36-2.76,39.76,49.33,51.58,68.36C931.81,281.13,920,288.28,920,288.28ZM896.13,261.7c-4.35,3.91-7.9,10.76-4.07,14.58s10.92,1.05,14.65-2.39c5.28-4.86,7.13-12.79,4.09-15.38C907.24,255.49,900.18,258.08,896.13,261.7Z"/><path class="cls-1" d="M950.22,273.61c-11.12-47.18-32-92-56.74-131.79,0,0,14.35-9.35,24.12-19.34,17.1,45.57,38.75,90.24,64.86,130.08C966.93,263,950.22,273.61,950.22,273.61Z"/><path class="cls-1" d="M1031.36,223.8a50,50,0,0,0-1.61-5.37,51.11,51.11,0,0,1-12.74,15c-10.81,8.77-34.13,13.27-41.56-1.67-8.25-16.6,4.32-34.71,18.27-44.09a39.65,39.65,0,0,1,17.74-6.84c-16.4-22.62-26.24-9.62-18.42,1.33-12.48,7.79-24.63,19.51-24.63,19.51-13.78-17.17-7-45.65,24.85-53.61,35.14-8.79,45.87,42.2,60,59.08C1042.37,214.67,1031.36,223.8,1031.36,223.8Zm-27.11-22.34c-3.9,4.62-6.62,12-2.32,15.16s11.07-.81,14.39-4.85c4.71-5.73,5.61-13.93,2.24-16C1014.62,193.4,1007.86,197.17,1004.25,201.46Z"/><path class="cls-1" d="M1131.69,141c-7.07,5.07-22.39,22.71-22.39,22.71a82.84,82.84,0,0,0-5.2-10.15,47.22,47.22,0,0,1-14.7,21.66c-17.15,14.59-37.47,13.74-48.62-4.37-9.32-15.15-13.22-43.66,5.52-60.36,7.61-6.79,16.23-9.28,24.64-8.42-14.7-20.4-30.47-39.87-43.25-53.56,11.42-10.74,21.9-25.91,21.9-25.91C1073.55,64.41,1099.91,106.27,1131.69,141Zm-62.18-15.71c-8.19,5-12.25,17.94-7.61,27.64,3.67,7.68,12.82,7.62,19,2,6.48-6,9.06-14.1,5.41-23.13C1083.15,123.93,1076.94,120.71,1069.51,125.27Z"/><path class="cls-2" d="M44.31,134.49c28.42-24.94,51.36-60,68.16-95.68,0,0,14.19,12,28.86,17C125.26,74.63,100.52,109.07,89.79,132c11.18,4.53,24.51,10.75,36.15,19.07a174.27,174.27,0,0,0-15.06,25.34C88.11,160.85,66.79,147.64,44.31,134.49Z"/><path class="cls-2" d="M149.71,213.5c-15.3-9.14-28.14-28.72-22.18-52,6.53-25.45,30.24-40.56,53-25.24,21.79,14.65,23.13,36.17,14.22,57.37,0,0-23.06-14-44.1-24.45-4.55,10.29-4.8,20.87,1.23,24.36,5.66,3.28,10.19-2.6,12.12-9.34,0,0,16.73,8.74,32.32,17C185.07,224.3,164.46,222.31,149.71,213.5Zm21.93-61.65c-4.23-2.19-9.86.79-14.89,6.87a155.56,155.56,0,0,0,18.56,10.69C177.83,162,177.08,154.65,171.64,151.85Z"/><path class="cls-2" d="M209.92,251.21c-20.06-15.37-11.13-44.36,5.17-70.38-4-2.19-6.48-3.49-6.48-3.49,3.78-7,8-13.09,8-13.09,2.88,1.57,4.32,2.35,7.2,3.89a236.26,236.26,0,0,1,16.29-19.93c11.06,6.59,22.3,13.16,22.3,13.16a147.94,147.94,0,0,0-16.25,18c6.87,3.34,10.32,5,17.25,8.1a113.77,113.77,0,0,0-9.23,17.22c-5.91-4.24-12.14-8.17-18.06-11.84-12.46,18.39-18.37,34.89-15,38.39s8.94-3.19,12.78-12.8c10.37,10.21,19.7,20.35,19.7,20.35C242,260.25,224.11,262.07,209.92,251.21Z"/><path class="cls-2" d="M270.49,186.11c3.81.72,9.16-1,11.63-4.38-9.85-3.18-11-12-8.23-18,2.63-5.62,9-8.7,16.55-5.46,6.86,3,10.42,10.86,8.18,18.62C295.33,188.3,282.75,195,270.49,186.11Z"/><path class="cls-2" d="M289.17,289.81c-13.61-5.81-24.34-15.38-29.79-32a132.84,132.84,0,0,1,23-9.83c2.18,14.44,12.82,22.24,16.57,20.29,3.06-1.58,2.9-6.66-7.49-16.51-9.41-8.92-16.51-19.59-13.08-30.87,2.76-9.06,12.76-18,31.42-11,20.07,7.49,25.88,24.33,26.49,39.24a87.84,87.84,0,0,0-25.6-2.51c-1.27-15.55-10.15-18.73-11.19-13.16-2.62,15.2,34.56,26.55,27.61,48.59C322.94,295.23,306.42,297.18,289.17,289.81Z"/><path class="cls-2" d="M436.05,334.92c6-16.53,12.41-41.49,16.48-67.06-7.36,11.35-16.32,26.17-23.3,39.31a310.1,310.1,0,0,0-11.87-48.93c-5.09,25.15-9.18,56.3-8.27,74.3C390.7,327,373.2,322.42,373.2,322.42c15.15-37.43,22.25-79.32,25.59-120.09A288.73,288.73,0,0,0,428.57,211s.44,26.68,6.74,49.81C448,243,455.63,209.35,455.63,209.35A158,158,0,0,0,487,213.66c-11.91,39.4-17.56,83.44-12.48,124.89A197.26,197.26,0,0,0,436.05,334.92Z"/><path class="cls-2" d="M524.75,345.83a46.33,46.33,0,0,0,1.3-5.19,38.25,38.25,0,0,1-16.66,3.94c-12.29.27-32.18-10.44-30.81-26.69,1.53-18.06,19.66-24.62,34.62-23.43a35,35,0,0,1,16.61,5.5c-1.81-27.78-15.34-23.6-14.55-10.24-13.1-1.52-27.87.26-27.87.26-2.41-21.88,16.23-40.13,44-26.85,30.63,14.65,14.88,61.19,17.67,83.1C537.34,345.43,524.75,345.83,524.75,345.83Zm-10-34.11c-5.11,1.23-10.65,5.37-8.86,10.47s8.78,6.14,13.18,5c6.24-1.6,10.75-7.48,9.16-11.15C526.33,311.76,519.45,310.57,514.7,311.72Z"/><path class="cls-2" d="M604.42,351.16c-2.31-16.63-10.21-31.6-20-36.4.48,11.26,1.36,21.6,2.47,30.3-14.14.19-31.38,2.84-31.38,2.84,6.89-43.1,6.94-88,2.66-131.45l28.72-4.7c-2,24-3.22,55.62-2.81,84.49,9.35-4.09,16.08-16,17.08-33.08,0,0,17.9,3,29.48,1.22-1.7,17.43-10.49,33.32-26.9,42.29a51.73,51.73,0,0,1,32.67,34.08A145,145,0,0,0,604.42,351.16Z"/><path class="cls-2" d="M679.9,339.24c-16.51,3.33-36.54-3.25-44.27-25.74-8.46-24.62,1.42-53,26.85-56.6,24.33-3.46,36.87,12.67,41.32,35.59,0,0-25.12,4.8-46.62,11.07,2,11.27,7.38,19.81,13.81,18.41,6-1.32,6.39-9.09,4.29-15.75,0,0,17.39-4.63,33.76-8.81C712.7,323.42,695.81,336,679.9,339.24ZM664,275.35c-4.37,1.19-7.08,7.44-7.69,15.72a140.23,140.23,0,0,0,19.79-4.36C674,279.12,669.56,273.82,664,275.35Z"/><path class="cls-2" d="M813.88,308.89c-19.59,6.53-38.94,4.46-54.19-8.36,5.32-13.86,13.6-30.44,13.6-30.44,12.15,13.18,35.1,13.65,40.12,4.07,4-7.67-4.2-14.62-23.81-16.72-18.61-2-37.43-6.26-42.05-25.69-2.66-11.21.33-30.3,21.62-38.59s40.33-1.24,53.72,12.55a294.14,294.14,0,0,0-20.53,24.21c-4.72-6.54-12.9-9.82-19.09-7.83-4.95,1.59-6.49,5.89-5.07,9.71,2.62,7.09,10.85,7.8,25,7.88,21,.1,36.13,6.76,40.84,20.79C851.58,282.76,833.66,302.3,813.88,308.89Z"/><path class="cls-2" d="M903.85,272.65a47.8,47.8,0,0,0-.88-5.31,45,45,0,0,1-13.58,12.07c-11.07,6.53-33.34,7.08-38.55-8.16-5.8-16.92,8-32,22.06-38.59a35.66,35.66,0,0,1,17.3-3.6c-12.7-23.89-23.34-13.23-17.31-1.69-12.5,5.34-25.18,14.46-25.18,14.46-10.88-18.34-1.3-44.1,29.27-46.49,33.72-2.64,37.91,47,49.18,65.16C915.14,265.83,903.85,272.65,903.85,272.65Zm-22.71-25.34c-4.16,3.73-7.54,10.26-3.88,13.9s10.4,1,14-2.28c5-4.63,6.8-12.2,3.89-14.66C891.72,241.39,885,243.86,881.14,247.31Z"/><path class="cls-2" d="M932.69,258.67C922.1,213.69,902.23,171,878.61,133c0,0,13.67-8.91,23-18.43,16.3,43.43,36.94,86,61.83,124C948.62,248.58,932.69,258.67,932.69,258.67Z"/><path class="cls-2" d="M1010,211.18a46.06,46.06,0,0,0-1.53-5.12,48.49,48.49,0,0,1-12.15,14.29c-10.3,8.37-32.53,12.65-39.61-1.59-7.86-15.83,4.11-33.09,17.42-42a37.72,37.72,0,0,1,16.9-6.52c-15.63-21.57-25-9.17-17.56,1.27-11.89,7.43-23.47,18.6-23.47,18.6-13.14-16.37-6.68-43.52,23.68-51.11,33.5-8.38,43.73,40.23,57.23,56.32C1020.55,202.48,1010,211.18,1010,211.18Zm-25.84-21.3c-3.71,4.41-6.31,11.46-2.21,14.46s10.56-.77,13.72-4.63c4.49-5.46,5.35-13.27,2.13-15.23C994.09,182.2,987.65,185.79,984.2,189.88Z"/><path class="cls-2" d="M1105.69,132.22c-6.74,4.84-21.35,21.65-21.35,21.65a77.79,77.79,0,0,0-4.95-9.67,45,45,0,0,1-14,20.65c-16.35,13.91-35.71,13.1-46.34-4.17-8.89-14.44-12.6-41.62,5.26-57.54,7.26-6.47,15.47-8.84,23.49-8-14-19.45-29-38-41.23-51.06,10.88-10.24,20.88-24.7,20.88-24.7C1050.27,59.23,1075.39,99.14,1105.69,132.22Zm-59.28-15c-7.8,4.78-11.68,17.11-7.25,26.36,3.5,7.31,12.22,7.25,18.1,1.85,6.18-5.69,8.64-13.44,5.16-22.05C1059.42,116,1053.5,112.9,1046.41,117.25Z"/><path class="cls-3" d="M44.31,134.49c28.42-24.94,51.36-60,68.16-95.68,0,0,14.19,12,28.86,17C125.26,74.63,100.52,109.07,89.79,132c11.18,4.53,24.51,10.75,36.15,19.07a174.27,174.27,0,0,0-15.06,25.34C88.11,160.85,66.79,147.64,44.31,134.49Z"/><path class="cls-3" d="M149.71,213.5c-15.3-9.14-28.14-28.72-22.18-52,6.53-25.45,30.24-40.56,53-25.24,21.79,14.65,23.13,36.17,14.22,57.37,0,0-23.06-14-44.1-24.45-4.55,10.29-4.8,20.87,1.23,24.36,5.66,3.28,10.19-2.6,12.12-9.34,0,0,16.73,8.74,32.32,17C185.07,224.3,164.46,222.31,149.71,213.5Zm21.93-61.65c-4.23-2.19-9.86.79-14.89,6.87a155.56,155.56,0,0,0,18.56,10.69C177.83,162,177.08,154.65,171.64,151.85Z"/><path class="cls-3" d="M209.92,251.21c-20.06-15.37-11.13-44.36,5.17-70.38-4-2.19-6.48-3.49-6.48-3.49,3.78-7,8-13.09,8-13.09,2.88,1.57,4.32,2.35,7.2,3.89a236.26,236.26,0,0,1,16.29-19.93c11.06,6.59,22.3,13.16,22.3,13.16a147.94,147.94,0,0,0-16.25,18c6.87,3.34,10.32,5,17.25,8.1a113.77,113.77,0,0,0-9.23,17.22c-5.91-4.24-12.14-8.17-18.06-11.84-12.46,18.39-18.37,34.89-15,38.39s8.94-3.19,12.78-12.8c10.37,10.21,19.7,20.35,19.7,20.35C242,260.25,224.11,262.07,209.92,251.21Z"/><path class="cls-3" d="M270.49,186.11c3.81.72,9.16-1,11.63-4.38-9.85-3.18-11-12-8.23-18,2.63-5.62,9-8.7,16.55-5.46,6.86,3,10.42,10.86,8.18,18.62C295.33,188.3,282.75,195,270.49,186.11Z"/><path class="cls-3" d="M289.17,289.81c-13.61-5.81-24.34-15.38-29.79-32a132.84,132.84,0,0,1,23-9.83c2.18,14.44,12.82,22.24,16.57,20.29,3.06-1.58,2.9-6.66-7.49-16.51-9.41-8.92-16.51-19.59-13.08-30.87,2.76-9.06,12.76-18,31.42-11,20.07,7.49,25.88,24.33,26.49,39.24a87.84,87.84,0,0,0-25.6-2.51c-1.27-15.55-10.15-18.73-11.19-13.16-2.62,15.2,34.56,26.55,27.61,48.59C322.94,295.23,306.42,297.18,289.17,289.81Z"/><path class="cls-3" d="M436.05,334.92c6-16.53,12.41-41.49,16.48-67.06-7.36,11.35-16.32,26.17-23.3,39.31a310.1,310.1,0,0,0-11.87-48.93c-5.09,25.15-9.18,56.3-8.27,74.3C390.7,327,373.2,322.42,373.2,322.42c15.15-37.43,22.25-79.32,25.59-120.09A288.73,288.73,0,0,0,428.57,211s.44,26.68,6.74,49.81C448,243,455.63,209.35,455.63,209.35A158,158,0,0,0,487,213.66c-11.91,39.4-17.56,83.44-12.48,124.89A197.26,197.26,0,0,0,436.05,334.92Z"/><path class="cls-3" d="M524.75,345.83a46.33,46.33,0,0,0,1.3-5.19,38.25,38.25,0,0,1-16.66,3.94c-12.29.27-32.18-10.44-30.81-26.69,1.53-18.06,19.66-24.62,34.62-23.43a35,35,0,0,1,16.61,5.5c-1.81-27.78-15.34-23.6-14.55-10.24-13.1-1.52-27.87.26-27.87.26-2.41-21.88,16.23-40.13,44-26.85,30.63,14.65,14.88,61.19,17.67,83.1C537.34,345.43,524.75,345.83,524.75,345.83Zm-10-34.11c-5.11,1.23-10.65,5.37-8.86,10.47s8.78,6.14,13.18,5c6.24-1.6,10.75-7.48,9.16-11.15C526.33,311.76,519.45,310.57,514.7,311.72Z"/><path class="cls-3" d="M604.42,351.16c-2.31-16.63-10.21-31.6-20-36.4.48,11.26,1.36,21.6,2.47,30.3-14.14.19-31.38,2.84-31.38,2.84,6.89-43.1,6.94-88,2.66-131.45l28.72-4.7c-2,24-3.22,55.62-2.81,84.49,9.35-4.09,16.08-16,17.08-33.08,0,0,17.9,3,29.48,1.22-1.7,17.43-10.49,33.32-26.9,42.29a51.73,51.73,0,0,1,32.67,34.08A145,145,0,0,0,604.42,351.16Z"/><path class="cls-3" d="M679.9,339.24c-16.51,3.33-36.54-3.25-44.27-25.74-8.46-24.62,1.42-53,26.85-56.6,24.33-3.46,36.87,12.67,41.32,35.59,0,0-25.12,4.8-46.62,11.07,2,11.27,7.38,19.81,13.81,18.41,6-1.32,6.39-9.09,4.29-15.75,0,0,17.39-4.63,33.76-8.81C712.7,323.42,695.81,336,679.9,339.24ZM664,275.35c-4.37,1.19-7.08,7.44-7.69,15.72a140.23,140.23,0,0,0,19.79-4.36C674,279.12,669.56,273.82,664,275.35Z"/><path class="cls-3" d="M813.88,308.89c-19.59,6.53-38.94,4.46-54.19-8.36,5.32-13.86,13.6-30.44,13.6-30.44,12.15,13.18,35.1,13.65,40.12,4.07,4-7.67-4.2-14.62-23.81-16.72-18.61-2-37.43-6.26-42.05-25.69-2.66-11.21.33-30.3,21.62-38.59s40.33-1.24,53.72,12.55a294.14,294.14,0,0,0-20.53,24.21c-4.72-6.54-12.9-9.82-19.09-7.83-4.95,1.59-6.49,5.89-5.07,9.71,2.62,7.09,10.85,7.8,25,7.88,21,.1,36.13,6.76,40.84,20.79C851.58,282.76,833.66,302.3,813.88,308.89Z"/><path class="cls-3" d="M903.85,272.65a47.8,47.8,0,0,0-.88-5.31,45,45,0,0,1-13.58,12.07c-11.07,6.53-33.34,7.08-38.55-8.16-5.8-16.92,8-32,22.06-38.59a35.66,35.66,0,0,1,17.3-3.6c-12.7-23.89-23.34-13.23-17.31-1.69-12.5,5.34-25.18,14.46-25.18,14.46-10.88-18.34-1.3-44.1,29.27-46.49,33.72-2.64,37.91,47,49.18,65.16C915.14,265.83,903.85,272.65,903.85,272.65Zm-22.71-25.34c-4.16,3.73-7.54,10.26-3.88,13.9s10.4,1,14-2.28c5-4.63,6.8-12.2,3.89-14.66C891.72,241.39,885,243.86,881.14,247.31Z"/><path class="cls-3" d="M932.69,258.67C922.1,213.69,902.23,171,878.61,133c0,0,13.67-8.91,23-18.43,16.3,43.43,36.94,86,61.83,124C948.62,248.58,932.69,258.67,932.69,258.67Z"/><path class="cls-3" d="M1010,211.18a46.06,46.06,0,0,0-1.53-5.12,48.49,48.49,0,0,1-12.15,14.29c-10.3,8.37-32.53,12.65-39.61-1.59-7.86-15.83,4.11-33.09,17.42-42a37.72,37.72,0,0,1,16.9-6.52c-15.63-21.57-25-9.17-17.56,1.27-11.89,7.43-23.47,18.6-23.47,18.6-13.14-16.37-6.68-43.52,23.68-51.11,33.5-8.38,43.73,40.23,57.23,56.32C1020.55,202.48,1010,211.18,1010,211.18Zm-25.84-21.3c-3.71,4.41-6.31,11.46-2.21,14.46s10.56-.77,13.72-4.63c4.49-5.46,5.35-13.27,2.13-15.23C994.09,182.2,987.65,185.79,984.2,189.88Z"/><path class="cls-3" d="M1105.69,132.22c-6.74,4.84-21.35,21.65-21.35,21.65a77.79,77.79,0,0,0-4.95-9.67,45,45,0,0,1-14,20.65c-16.35,13.91-35.71,13.1-46.34-4.17-8.89-14.44-12.6-41.62,5.26-57.54,7.26-6.47,15.47-8.84,23.49-8-14-19.45-29-38-41.23-51.06,10.88-10.24,20.88-24.7,20.88-24.7C1050.27,59.23,1075.39,99.14,1105.69,132.22Zm-59.28-15c-7.8,4.78-11.68,17.11-7.25,26.36,3.5,7.31,12.22,7.25,18.1,1.85,6.18-5.69,8.64-13.44,5.16-22.05C1059.42,116,1053.5,112.9,1046.41,117.25Z"/></svg>