<svg id="Layer_1" data-name="Layer 1" xmlns="http://www.w3.org/2000/svg" viewBox="0 0 138 28"><defs><style>.cls-1{opacity:0.3;}.cls-2{fill:#e51034;}.cls-3{fill:#ed1d49;}.cls-4{fill:#ea2650;}.cls-5{fill:#dc263e;}.cls-6{fill:#fdc272;}.cls-7{fill:#fdda91;}.cls-8{fill:#edb463;}.cls-9{fill:#fda1aa;opacity:0.5;}.cls-10{fill:#fff;fill-rule:evenodd;opacity:0.2;}.cls-11{fill:#af002e;}.cls-12{fill:#ffe1ad;}.cls-13{fill:#ce1332;}</style></defs><g class="cls-1"><path d="M24.28,8.91a7.94,7.94,0,0,0-2.12-.83A14,14,0,0,1,20,7.73a1.37,1.37,0,0,1-.93-1,4.47,4.47,0,0,0-2.53-2.6,17.29,17.29,0,0,0-1.62-.66,8.5,8.5,0,0,0-3.45-.22,10.39,10.39,0,0,0-3.1.86A14.58,14.58,0,0,0,4,7.09,9.65,9.65,0,0,0,1.13,11.9a11.28,11.28,0,0,0-.47,4,8.33,8.33,0,0,0,.59,2.95,6.34,6.34,0,0,0,.26.73c2.22,6,10.1,8.69,15.77,6.16C20.84,24.11,23.2,22.48,25,19a8.49,8.49,0,0,0,1.07-3.36,4.83,4.83,0,0,0,0-2.71C25.74,11,25.65,10.4,24.28,8.91Z"/><path d="M52.79,11.76a9.54,9.54,0,0,0-3.25-4.53,14.42,14.42,0,0,0-4.68-2.55,10.51,10.51,0,0,0-3.16-.56,8.53,8.53,0,0,0-3.42.53,15.59,15.59,0,0,0-1.56.81,4.47,4.47,0,0,0-2.28,2.82,1.34,1.34,0,0,1-.83,1.06,12.58,12.58,0,0,1-2.11.55,7.73,7.73,0,0,0-2,1c-1.23,1.61-1.27,2.23-1.44,4.21a4.76,4.76,0,0,0,.27,2.69,8.56,8.56,0,0,0,1.37,3.25C31.79,24.32,34.29,25.73,38,27c5.87,2,13.48-1.39,15.13-7.58a6.87,6.87,0,0,0,.19-.75,8.55,8.55,0,0,0,.32-3A11.31,11.31,0,0,0,52.79,11.76Z"/><path d="M81.92,7.94a7.68,7.68,0,0,0-2.11-.83,13.91,13.91,0,0,1-2.16-.36,1.39,1.39,0,0,1-.93-1A4.44,4.44,0,0,0,74.2,3.18a17.61,17.61,0,0,0-1.63-.67,8.33,8.33,0,0,0-3.45-.21,10.45,10.45,0,0,0-3.1.85,14.53,14.53,0,0,0-4.42,3,9.53,9.53,0,0,0-2.82,4.82,11.26,11.26,0,0,0-.48,4,8.32,8.32,0,0,0,.6,2.94,4.84,4.84,0,0,0,.25.73c2.22,6,10.11,8.69,15.77,6.16,3.56-1.59,5.93-3.22,7.74-6.66a8.63,8.63,0,0,0,1.06-3.36,4.72,4.72,0,0,0,0-2.7C83.39,10,83.29,9.43,81.92,7.94Z"/><path d="M136.5,10.87a9.55,9.55,0,0,0-3.25-4.54,14.58,14.58,0,0,0-4.68-2.54,10.21,10.21,0,0,0-3.16-.56,8.38,8.38,0,0,0-3.42.53,16.76,16.76,0,0,0-1.56.81,4.46,4.46,0,0,0-2.27,2.82,1.38,1.38,0,0,1-.83,1.06,12.69,12.69,0,0,1-2.12.55,7.89,7.89,0,0,0-2,1c-1.23,1.61-1.26,2.23-1.43,4.21a4.72,4.72,0,0,0,.26,2.69,8.58,8.58,0,0,0,1.38,3.25c2.11,3.26,4.62,4.67,8.31,5.92,5.88,2,13.48-1.39,15.14-7.58a6.8,6.8,0,0,0,.18-.75,8.32,8.32,0,0,0,.32-3A11.08,11.08,0,0,0,136.5,10.87Z"/></g><path class="cls-2" d="M1.25,17c-.41-1.48,1,3,.88,1.29a11.25,11.25,0,0,1,.47-4C5,4.55,17.44,5.54,22,6.74c2.93.78,3.4,2,3.93,4.89.62,3.5-2.4,8.53-5.47,10.14-4.21,2.2-5.27,3-10,2.41-3.67-.46-8.19-3.53-9.2-7.15Z"/><path class="cls-3" d="M2.41,17.63l1,1.66L4,20a7.64,7.64,0,0,0,2.54,1.83,12.85,12.85,0,0,0,14.78-2.37,26.37,26.37,0,0,0,3.21-3.72c.28-.39.31-1.35-.75-.26a19.27,19.27,0,0,1-4.63,3.86c-2.68,1.39-5.32,2.59-8.42,2.39s-5.7-1-7.83-3.49l-.52-.64Z"/><path class="cls-2" d="M18.5,5a4.74,4.74,0,0,0-1.27-1.81A10.12,10.12,0,0,0,14.3,1.79c-3.55-.48-5.86.31-8.81,2.68A11.86,11.86,0,0,0,1,14.1c.29,4.84,5.28,7.58,9.54,8.2,2.6.39,6.27-1,8.59-2.08s6.4-5.3,6.53-7.73A5.44,5.44,0,0,0,23.6,7.38c-2.06-1.4-2.66-.33-3.7-1-.09-.06-1.37-1.14-1.4-1.44Z"/><path class="cls-4" d="M22.9,8.43c-1.61-1.11-2.56.17-1.28.9.26.15-.5,1.43,0,1.82s-1.26,2.34-1.21,2.76c0,.18-1.76,1-2.27,2.17-.73,1.68-1.75.82-2.87,1.44a2.88,2.88,0,0,0-2.27.79c-.53.63-2.82-1.08-3.87-.83a6.93,6.93,0,0,0-3.7.17c-.84.27-1.4-4.95-2.23-1.76-.42,1.57-.14.36.72,2.18s4.08,2.09,5.21,3c.5.41,6.06.09,6.21-.21,1.1-2.29,0-.57,2.58-1.83,0,0,.95-1,1.18-1.21,1.42-1.1,3.45-1.2,4.76-2.63a3.57,3.57,0,0,1,.79-1.73c.17-.22.4-3.66-1-4.24-.43-.18-.15-.39-.76-.81Zm-5.68-4.6c-.25.09-1.85-1.07-2.89-1.09a3.59,3.59,0,0,0-1.18,0C12,3,10.33,2.43,8.78,3.32A14.38,14.38,0,0,0,5.7,5.08c-.46.44-1.57,2.16.33.72.75-.57,5.23-2.71,6.1-2.41,1.31.46.55.9,2.63,1.2,1.08.15-.25,1.67,3,1.48.28,0,.3.24.26-.52s-.8-.92-.78-1.72Z"/><path class="cls-5" d="M7.86,10.9c-1.05,2.51,0,4.46,2.14,5.23a8.78,8.78,0,0,0,6.11-.45,9.34,9.34,0,0,0,3.24-2.42c1.14-1.36,1.65-3.67.13-5a1.5,1.5,0,0,0-.84-.32c-.19-.48.32-1,.76-1.34.13-.1.76-.08.86-.12A11.11,11.11,0,0,0,16.58,5.4,9,9,0,0,0,12.43,6,9.1,9.1,0,0,0,7.86,10.9Z"/><path class="cls-6" d="M8.55,10.89A3.88,3.88,0,0,0,8.41,14c.51,1.44,2.3,1.75,3.63,1.87l2.22-.14,2.13-.8a7.4,7.4,0,0,0,2.66-3c.7-1.9.08-3-1.17-4.45l-.45-.36a6.39,6.39,0,0,0-3.5-.73,6.48,6.48,0,0,0-4.57,3l-.81,1.48Z"/><path class="cls-7" d="M9.28,11.93c.28.79,1.27,1,2,1,2.32-.15,5.84-2.07,4.6-4.32-.13-.23-1.17,0-1.39-.29l-.24-.2c-.13-.07,1.42-.53,1.7-.85s-.81-.38-.91-.42c-2.49-.75-6.51,3-5.76,5.05Z"/><path class="cls-8" d="M17.67,11.29c.54-.93,0-2.16,0-3.23.35.56.93,1,1.05,1.68a3.33,3.33,0,0,1-.33,2.53,9,9,0,0,1-3.88,2.86,6.88,6.88,0,0,1-4.3.12A2.55,2.55,0,0,1,8.6,13.32,5,5,0,0,0,11,14.48c1.9.31,5.68-1.4,6.72-3.19Z"/><path class="cls-9" d="M7.73,7.06A4.46,4.46,0,0,0,6.5,6.28c-.43-.17-.6-.12-.15.22l.46.38c.22.17,1,.83.11.65L6,7.22c-.88-.36-1,.11-.08.37.61.16,1.48.52,1.08.67l-.4.12c-.69.23.22.45.5.5.11,0,1,.27,1,.15s.28-.22.08-.3a6,6,0,0,1-.59-.19c-.08-.06.25-.24.19-.26s.48.13.44-.06S7.92,8,7.77,7.81s-.18-.37.13-.18,1.66.9,1,0c-.08-.12-.22-.19.5,0s-.27-.32-.56-.6c-.1-.1-1.24-1.06-1.14-.42A.6.6,0,0,0,8,6.94c.35.22.44.46.31.49s-.3-.08-.61-.37ZM3,7.35c-2.14,2.93-2.83,8.29-1.61,7,.11-.11.33-1.53.47-1.73s-.09-.83.09-1.51A26.45,26.45,0,0,1,3.21,7.49c.1-.19,4.87-4.32,4.91-4.38.23-.34-1.49.79-1.74.83A32.79,32.79,0,0,0,3,7.35Zm5.89,8.48a2.66,2.66,0,0,0-.44-.25c-.29.45.92.76.42,1.3-.28.3.86-.11,1.07,0a1.21,1.21,0,0,0,.95.11c.14,0,0,.26.72.14.42-.06.29.48.8,0,.3-.26.6.23,1.33,0a7,7,0,0,0,.94-.27c.38-.16.51.25,1.35-.33,0,0,1.1-.35.76-.52-.19-.08-2.27.74-2.86.79-.31,0-.73,0-1.18.07a5.62,5.62,0,0,1-3.86-1ZM10.2,5.24c-.21-.18-.43-.41-.49,0,0,.17.72,1,.87,1.11.5.5.59-.06.28-.38-.09-.09-.08-.27,0-.19s.41.44.54.51.05-.26,0-.34a1.7,1.7,0,0,0-.31-.5c-.25-.23-.5-.88-.82-1.05s-.39-.39-.09.29c0,.05.43.83.32.72,0,.12-.31-.09-.35-.12Z"/><path class="cls-10" d="M4.81,11.16c-.55.05-.44.27,0,.32a7.54,7.54,0,0,0,.81,0c.57,0,.32-.32,0-.32a7.42,7.42,0,0,0-.76-.05Z"/><path class="cls-10" d="M6.87,17.09c-.22.33,0,.36.17.16a5.48,5.48,0,0,0,.4-.44c.25-.31,0-.32-.2-.13s-.3.29-.37.41Z"/><path class="cls-10" d="M5.22,15.16c-.42.19-.27.34.07.27A6.43,6.43,0,0,0,6,15.24c.45-.16.16-.35-.12-.25a6,6,0,0,0-.62.17Z"/><path class="cls-10" d="M4.26,8.53c-.34,0-.31.11-.06.2.54.2.58-.13.06-.2Z"/><path class="cls-10" d="M3.73,9.78c-.35,0-.31.1-.06.2.54.2.58-.13.06-.2Z"/><path class="cls-11" d="M1.25,17a8.33,8.33,0,0,1-.59-3,11.25,11.25,0,0,1,.47-4A9.6,9.6,0,0,1,4,5.31a14.58,14.58,0,0,1,4.43-3,10.1,10.1,0,0,1,3.1-.86,8.68,8.68,0,0,1,3.45.21c.6.28,1,.32,1.62.67A4.44,4.44,0,0,1,19.08,5,1.37,1.37,0,0,0,20,6a14,14,0,0,0,2.15.35,7.62,7.62,0,0,1,2.12.83c1.37,1.49,1.46,2.11,1.81,4.06a4.73,4.73,0,0,1,0,2.71A8.39,8.39,0,0,1,25,17.25c-1.81,3.44-4.17,5.08-7.73,6.67-5.9,2.63-14.21-.36-16-6.89ZM18.38,5.28a4.77,4.77,0,0,0-1.27-1.82,8.81,8.81,0,0,0-2.76-1.2A11.37,11.37,0,0,0,5.76,4.65,10.26,10.26,0,0,0,2.23,9a13,13,0,0,0-.88,4.88,7.82,7.82,0,0,0,3.41,5.94,11.84,11.84,0,0,0,9.85,1.84A16.81,16.81,0,0,0,23.79,16a5.34,5.34,0,0,0,1.42-5.32c-.34-1.81-1.08-2.43-2.46-3.37-1-.57-1.83-.2-2.79-.58-.49-.2-1.51-.64-1.58-1.42Zm1.27,5.14A5.13,5.13,0,0,1,18,14.05a6.76,6.76,0,0,1-5.79,2.16C9.78,16,7.29,15,7.84,12a7.2,7.2,0,0,1,2.43-4,7,7,0,0,1,4.2-1.8,5.46,5.46,0,0,1,2.15.25,4.22,4.22,0,0,1,3,4ZM8.37,11.65a3,3,0,0,0,.68,2.88,3.23,3.23,0,0,0,1.16.77,7.29,7.29,0,0,0,7.25-1.25C19,12.5,19.58,10.57,18.81,9a4.09,4.09,0,0,0-2.15-2.08,5.17,5.17,0,0,0-3.83,0,8.08,8.08,0,0,0-4.46,4.76ZM6.83,22.59a13.13,13.13,0,0,0,7.22,1.32c4-.4,8.05-3.72,10.28-6.87.17-.24,1-2,.78-2s-.93,1.06-1,1.17a16.81,16.81,0,0,1-4.54,3.9A18.13,18.13,0,0,1,14,22.26c-3.72.66-8,0-10.86-3.26-1.36-1.73-.87-.66-.51-.08a10.9,10.9,0,0,0,4.16,3.67Z"/><path class="cls-12" d="M9.75,11c0,.07.28-.46.73-.93A7.4,7.4,0,0,1,11.82,9c.24-.16.44-.08.63-.17.42-.2.72-.49.63-.58l-.14-.12c-.53-.31-1.06,0-1.59.24a3.47,3.47,0,0,0-1.3,1.25A1.72,1.72,0,0,0,9.75,11Z"/><path class="cls-12" d="M12.49,12.09a10.51,10.51,0,0,0,1.76-.94,1,1,0,0,0-.66-1.76,3.5,3.5,0,0,0-2.21,1.67c-1.12,1.78,0,1.5,1.11,1Z"/><path class="cls-2" d="M53.31,16.87c.27-1.52-.68,3.05-.75,1.36a11.31,11.31,0,0,0-.84-3.9c-3.29-9.54-15.59-7.41-20-5.8-2.84,1.05-3.21,2.28-3.46,5.23C28,17.3,31.47,22,34.67,23.35c4.39,1.81,5.53,2.49,10.14,1.48,3.61-.79,7.83-4.27,8.5-8Z"/><path class="cls-3" d="M52.21,17.57l-.8,1.74-.59.8a7.59,7.59,0,0,1-2.36,2.05,12.85,12.85,0,0,1-14.94-1A27.85,27.85,0,0,1,30,17.76c-.31-.36-.43-1.32.72-.33a19.65,19.65,0,0,0,5,3.42c2.8,1.13,5.54,2.09,8.6,1.6s5.59-1.54,7.49-4.2l.45-.68Z"/><path class="cls-2" d="M35,6.45a4.73,4.73,0,0,1,1.1-1.93A10.29,10.29,0,0,1,38.91,2.9c3.49-.81,5.86-.24,9,1.85a11.88,11.88,0,0,1,5.36,9.18c.16,4.84-4.56,8-8.74,9-2.56.63-6.33-.39-8.75-1.28s-6.86-4.68-7.21-7.1a5.41,5.41,0,0,1,1.58-5.27c1.92-1.59,2.61-.57,3.59-1.31C33.85,7.94,35,6.75,35,6.45Z"/><path class="cls-4" d="M31,10.3c-.57.47-.27.66-.68.88-1.32.7-.77,4.1-.58,4.3a3.61,3.61,0,0,1,.94,1.66c1.43,1.3,3.47,1.21,5,2.18.25.16,1.25,1.08,1.29,1.09,2.66,1,1.43-.59,2.74,1.59.17.28,5.74.08,6.2-.37,1-1,4.16-1.44,4.91-3.49.68-1.89,1.07-.71.52-2.23-1.13-3.1-1.2,2.14-2.06,2a7,7,0,0,0-3.71.17c-1.06-.16-3.19,1.76-3.77,1.19a2.9,2.9,0,0,0-2.34-.58c-1.17-.51-2.1.43-3-1.17-.61-1.11-2.46-1.78-2.45-2,0-.42-2-2.1-1.47-2.63s-.42-1.64-.17-1.81c1.21-.84.14-2-1.36-.78Zm5.23-5.1c.1.79-.65.91-.62,1.78s0,.5.31.49c3.24-.1,1.77-1.5,2.83-1.75,2-.49,1.25-.85,2.51-1.43.83-.38,5.5,1.34,6.29,1.83,2,1.26.76-.35.27-.74A14.79,14.79,0,0,0,44.55,3.9c-1.62-.73-3.19,0-4.41-.16A3.66,3.66,0,0,0,39,3.85c-1,.11-2.52,1.41-2.78,1.35Z"/><path class="cls-13" d="M45.69,11.13a3.6,3.6,0,0,1-1.78,5.35c-1.7.79-3.26.66-5.34,0a6,6,0,0,1-2.67-1.79A3.51,3.51,0,0,1,35,10.24a1.51,1.51,0,0,0,.15-.82,2.39,2.39,0,0,1,.74-1c.33-.37,0,0,1.78-.89a4.58,4.58,0,0,1,3.56,0A10.6,10.6,0,0,1,45.69,11.13Z"/><path class="cls-9" d="M45.94,7.53c-.28.33-.48.44-.57.43s-.07-.27.26-.52a.57.57,0,0,0,.3-.41c0-.64-1,.42-1.09.52-.27.31-1.07.86-.51.66s.58-.17.5,0c-.57,1,.65.2,1-.05s.21.09.14.16-.4.33-.42.46.43,0,.44,0,.29.17.21.24a5.17,5.17,0,0,1-.57.24c-.18.1.1.2.11.29s.88-.22,1-.24c.27-.08,1.17-.38.46-.55l-.41-.07c-.42-.11.42-.55,1-.78.91-.34.73-.79-.12-.36-.33.17-.81.38-.86.4-.84.26-.15-.47.05-.66s.29-.3.43-.42c.41-.38.23-.42-.17-.2a4.43,4.43,0,0,0-1.16.88Zm4.72-.14A31.51,31.51,0,0,0,47,4.31c-.25,0-2.06-1-1.81-.67,0,.06,5.19,3.73,5.3,3.9A28,28,0,0,1,52,11c.25.66.12,1.35.24,1.5s.5,1.57.62,1.67c1.34,1.18.16-4.09-2.24-6.81Zm-5.09,9a5.64,5.64,0,0,1-3.75,1.37c-.45,0-.87,0-1.17,0-.6,0-2.75-.62-2.92-.52-.33.19.79.44.8.44.88.5,1,.08,1.37.21a7.62,7.62,0,0,0,1,.18c.76.19,1-.33,1.32-.1.56.4.38-.12.81-.09.75,0,.56-.17.7-.21a1.25,1.25,0,0,0,.93-.2c.2-.11,1.38.2,1.06-.08-.54-.49.63-.91.31-1.33a2.41,2.41,0,0,0-.42.29ZM43.31,6s-.35.28-.34.16c-.1.11.24-.7.26-.76.24-.7.11-.42-.12-.27s-.49.87-.72,1.12a1.56,1.56,0,0,0-.26.52c0,.09-.14.46,0,.34s.37-.46.5-.56.13.09.05.19c-.28.35-.13.9.33.35.13-.16.8-1,.76-1.18-.1-.36-.29-.1-.49.09Z"/><path class="cls-10" d="M49.23,11.34c.54,0,.46.24.05.33a6.59,6.59,0,0,1-.81.12c-.56.05-.35-.29,0-.32s.57-.13.76-.13Z"/><path class="cls-10" d="M47.72,17.44c.25.31.08.36-.16.18a4.73,4.73,0,0,1-.43-.4c-.28-.29,0-.32.18-.15a5.43,5.43,0,0,1,.41.37Z"/><path class="cls-10" d="M49.19,15.37c.43.15.3.31,0,.27a5.55,5.55,0,0,1-.68-.12c-.47-.12-.2-.33.09-.27s.48.06.64.12Z"/><path class="cls-10" d="M49.53,8.68c.34-.08.32.08.07.19-.51.26-.59-.07-.07-.19Z"/><path class="cls-10" d="M50.17,9.87c.34-.07.32.08.08.2-.51.25-.59-.08-.08-.2Z"/><path class="cls-11" d="M53.31,16.87C52.1,23.54,44.1,27.28,38,25.2c-3.7-1.25-6.2-2.66-8.32-5.92A8.56,8.56,0,0,1,28.3,16,4.76,4.76,0,0,1,28,13.34c.17-2,.21-2.6,1.44-4.21a7.73,7.73,0,0,1,2-1,13.62,13.62,0,0,0,2.11-.55,1.36,1.36,0,0,0,.83-1.06,4.47,4.47,0,0,1,2.28-2.82,15.59,15.59,0,0,1,1.56-.81,8.36,8.36,0,0,1,3.42-.53,10.21,10.21,0,0,1,3.16.56,14.58,14.58,0,0,1,4.68,2.54A9.62,9.62,0,0,1,52.79,10a11.31,11.31,0,0,1,.84,3.9,8.55,8.55,0,0,1-.32,3ZM35.17,6.74c0,.79-1,1.32-1.44,1.56-.92.47-1.78.18-2.73.84a4.58,4.58,0,0,0-2.14,3.58,5.35,5.35,0,0,0,1.91,5.17,16.91,16.91,0,0,0,9.67,4.81A11.84,11.84,0,0,0,50.07,20a7.77,7.77,0,0,0,2.85-6.22A13,13,0,0,0,51.59,9a10.29,10.29,0,0,0-3.91-4,11.32,11.32,0,0,0-8.77-1.58,8.58,8.58,0,0,0-2.64,1.45,4.76,4.76,0,0,0-1.1,1.92ZM34.38,12A4.21,4.21,0,0,1,37,7.72a5.56,5.56,0,0,1,2.13-.45,7.06,7.06,0,0,1,4.34,1.4,7.19,7.19,0,0,1,2.79,3.82c.83,2.89-1.55,4.17-3.92,4.57a6.77,6.77,0,0,1-6-1.62,5.13,5.13,0,0,1-2-3.46Zm11.35.19a8,8,0,0,0-4.89-4.33A5.11,5.11,0,0,0,37,8.18a4.11,4.11,0,0,0-2,2.27c-.62,1.68.1,3.55,1.82,4.94a7.29,7.29,0,0,0,7.33.58,3.16,3.16,0,0,0,1.09-.88,3,3,0,0,0,.41-2.92Zm2.54,10.75a10.92,10.92,0,0,0,3.8-4c.31-.62.7-1.72-.5.13-2.5,3.5-6.75,4.56-10.51,4.25a18.43,18.43,0,0,1-5.66-1.61,16.68,16.68,0,0,1-4.89-3.47c-.11-.09-.9-1.05-1.14-1.07s.77,1.67,1,1.89c2.52,2.94,6.88,5.86,10.87,5.9a13.2,13.2,0,0,0,7.07-2Z"/><path class="cls-2" d="M58.9,16.05c-.42-1.48,1,3,.87,1.3a11.26,11.26,0,0,1,.48-4c2.39-9.81,14.84-8.83,19.34-7.63,2.93.78,3.41,2,3.93,4.89.63,3.5-2.4,8.53-5.46,10.14-4.21,2.21-5.28,3-10,2.41-3.66-.45-8.19-3.53-9.19-7.15Z"/><path class="cls-3" d="M60.06,16.65,61,18.31l.66.74a7.44,7.44,0,0,0,2.55,1.83A12.84,12.84,0,0,0,79,18.51a26.44,26.44,0,0,0,3.22-3.72c.27-.39.31-1.35-.75-.26a19.46,19.46,0,0,1-4.63,3.86c-2.68,1.39-5.33,2.59-8.42,2.39s-5.71-1-7.84-3.49l-.51-.64Z"/><path class="cls-2" d="M76.14,4a4.7,4.7,0,0,0-1.27-1.81A10.15,10.15,0,0,0,72,.82c-3.55-.49-5.86.3-8.82,2.67a11.92,11.92,0,0,0-4.49,9.64c.29,4.83,5.28,7.57,9.54,8.2,2.61.38,6.27-1,8.59-2.09S83.18,14,83.3,11.51c.11-2-.31-3.8-2.06-5.1-2.06-1.41-2.65-.33-3.69-1-.1-.06-1.38-1.13-1.41-1.44Z"/><path class="cls-4" d="M80.54,7.45c-1.6-1.11-2.56.18-1.28.9.27.15-.49,1.44,0,1.82S78,12.52,78,12.93c0,.18-1.75,1-2.26,2.18-.74,1.67-1.75.82-2.87,1.43a3,3,0,0,0-2.28.8c-.53.62-2.82-1.09-3.86-.84a7,7,0,0,0-3.71.17c-.84.27-1.39-5-2.23-1.76-.41,1.57-.13.36.72,2.18s4.08,2.09,5.21,3c.5.41,6.07.09,6.21-.21,1.1-2.29,0-.57,2.58-1.83,0,0,1-1,1.19-1.21,1.41-1.1,3.45-1.2,4.76-2.63a3.52,3.52,0,0,1,.78-1.73c.17-.22.41-3.66-1-4.24-.43-.17-.15-.39-.76-.81ZM74.86,2.86C74.62,2.94,73,1.78,72,1.77a3.53,3.53,0,0,0-1.17,0c-1.2.29-2.83-.31-4.38.57a14.67,14.67,0,0,0-3.08,1.77c-.45.43-1.56,2.15.34.71.74-.56,5.23-2.71,6.1-2.4,1.3.45.54.89,2.62,1.19,1.08.15-.25,1.68,3,1.48.27,0,.3.24.25-.52s-.8-.92-.78-1.71Z"/><path class="cls-5" d="M65.5,9.92c-1,2.51,0,4.46,2.15,5.23a8.78,8.78,0,0,0,6.11-.45A9.28,9.28,0,0,0,77,12.28c1.14-1.36,1.65-3.66.13-5A1.67,1.67,0,0,0,76.28,7c-.19-.47.32-1,.76-1.34.14-.1.76-.08.86-.12a11.27,11.27,0,0,0-3.68-1.08A9,9,0,0,0,70.08,5,9.16,9.16,0,0,0,65.5,9.92Z"/><path class="cls-6" d="M66.19,9.91A3.92,3.92,0,0,0,66.05,13c.52,1.44,2.3,1.75,3.64,1.87l2.21-.14L74,14a7.43,7.43,0,0,0,2.66-3c.71-1.9.09-3-1.17-4.45l-.45-.35a6.35,6.35,0,0,0-3.49-.74,6.53,6.53,0,0,0-4.58,3l-.81,1.48Z"/><path class="cls-7" d="M66.92,11c.29.79,1.27,1,2,1,2.31-.15,5.84-2.07,4.59-4.31-.13-.23-1.16,0-1.38-.3l-.25-.19c-.12-.08,1.43-.54,1.7-.85s-.8-.39-.91-.42c-2.49-.75-6.51,3-5.76,5Z"/><path class="cls-8" d="M75.31,10.31c.55-.93,0-2.15,0-3.23.35.56.94,1,1,1.69A3.27,3.27,0,0,1,76,11.29a8.89,8.89,0,0,1-3.88,2.86,6.87,6.87,0,0,1-4.3.13,2.54,2.54,0,0,1-1.57-1.94A4.8,4.8,0,0,0,68.6,13.5c1.9.31,5.67-1.4,6.71-3.19Z"/><path class="cls-9" d="M65.37,6.08a4.22,4.22,0,0,0-1.23-.77c-.43-.18-.59-.13-.15.21l.46.38c.22.17,1,.83.11.65,0,0-.55-.17-.89-.31-.88-.36-1,.11-.09.37.61.16,1.49.53,1.08.67,0,0-.29.08-.4.12-.69.23.23.45.51.5.1,0,1,.27,1,.15s.28-.21.09-.3a4.89,4.89,0,0,1-.59-.18c-.09-.07.25-.25.19-.27s.47.13.43-.06-.32-.27-.46-.41-.19-.36.12-.18,1.66.9,1,0c-.08-.12-.21-.19.51,0,.57.14-.28-.33-.57-.61-.1-.1-1.24-1-1.13-.42a.56.56,0,0,0,.33.38c.35.22.45.46.31.49s-.3-.07-.61-.37Zm-4.71.29c-2.14,2.93-2.82,8.29-1.6,7,.1-.11.33-1.53.46-1.72s-.09-.83.1-1.51a29.08,29.08,0,0,1,1.23-3.62c.1-.19,4.87-4.31,4.92-4.38.22-.34-1.5.79-1.74.83a32.88,32.88,0,0,0-3.37,3.41Zm5.9,8.49a3,3,0,0,0-.45-.26c-.28.45.92.77.43,1.3-.29.31.85-.1,1.06,0a1.2,1.2,0,0,0,1,.11c.14,0,0,.26.72.15.43-.07.29.47.81,0,.3-.26.59.23,1.32,0a7.86,7.86,0,0,0,.94-.26c.38-.17.52.24,1.35-.34,0,0,1.11-.35.76-.51-.18-.09-2.27.73-2.86.78-.31,0-.73,0-1.18.08a5.7,5.7,0,0,1-3.85-1Zm1.28-10.6c-.21-.17-.42-.41-.49,0,0,.17.72,1,.87,1.11.5.5.6-.06.29-.37-.09-.09-.09-.28,0-.2s.4.44.54.52,0-.27,0-.35a1.64,1.64,0,0,0-.3-.5c-.26-.22-.5-.88-.82-1s-.4-.4-.1.28c0,0,.43.83.33.73,0,.12-.32-.1-.36-.13Z"/><path class="cls-10" d="M62.45,10.18c-.54.05-.44.27,0,.33a7.56,7.56,0,0,0,.82.05c.56,0,.31-.33,0-.33s-.58-.07-.77-.05Z"/><path class="cls-10" d="M64.51,16.11c-.22.33,0,.37.18.16a5.38,5.38,0,0,0,.39-.43c.26-.32,0-.33-.19-.13s-.3.29-.38.4Z"/><path class="cls-10" d="M62.86,14.18c-.42.19-.27.34.08.27a6.09,6.09,0,0,0,.66-.19c.45-.15.17-.34-.11-.25s-.48.1-.63.17Z"/><path class="cls-10" d="M61.91,7.55c-.35,0-.31.11-.06.2.53.21.58-.13.06-.2Z"/><path class="cls-10" d="M61.37,8.8c-.34-.05-.31.11-.06.2.54.21.58-.13.06-.2Z"/><path class="cls-11" d="M58.9,16.05a8.32,8.32,0,0,1-.6-2.94,11.26,11.26,0,0,1,.48-4A9.53,9.53,0,0,1,61.6,4.33a14.53,14.53,0,0,1,4.42-3,10.16,10.16,0,0,1,3.1-.85,8.33,8.33,0,0,1,3.45.21,15.22,15.22,0,0,1,1.63.67A4.41,4.41,0,0,1,76.72,4a1.39,1.39,0,0,0,.93,1,13.91,13.91,0,0,0,2.16.36,7.37,7.37,0,0,1,2.11.83c1.37,1.48,1.47,2.1,1.82,4.05a4.74,4.74,0,0,1,0,2.71,8.63,8.63,0,0,1-1.06,3.36c-1.81,3.44-4.18,5.07-7.74,6.66-5.89,2.63-14.21-.36-16-6.89ZM76,4.3a4.76,4.76,0,0,0-1.28-1.81A8.5,8.5,0,0,0,72,1.29,11.33,11.33,0,0,0,63.4,3.67,10.33,10.33,0,0,0,59.87,8,13.24,13.24,0,0,0,59,12.89a7.84,7.84,0,0,0,3.41,5.94,11.81,11.81,0,0,0,9.85,1.84A16.91,16.91,0,0,0,81.44,15a5.38,5.38,0,0,0,1.42-5.33A4.6,4.6,0,0,0,80.39,6.3c-1-.57-1.83-.2-2.79-.58-.49-.2-1.51-.64-1.57-1.42Zm1.26,5.15a5.07,5.07,0,0,1-1.69,3.62,6.75,6.75,0,0,1-5.78,2.17c-2.4-.18-4.88-1.23-4.33-4.2a7.15,7.15,0,0,1,2.43-4,7,7,0,0,1,4.19-1.8,5.73,5.73,0,0,1,2.16.25,4.23,4.23,0,0,1,3,4ZM66,10.68a2.92,2.92,0,0,0,.68,2.87,3.11,3.11,0,0,0,1.16.77,7.29,7.29,0,0,0,7.25-1.25C76.68,11.53,77.22,9.6,76.46,8a4.12,4.12,0,0,0-2.15-2.08,5.19,5.19,0,0,0-3.84,0A8.07,8.07,0,0,0,66,10.68ZM64.48,21.61a13.1,13.1,0,0,0,7.22,1.33c4-.41,8-3.72,10.27-6.88.17-.24,1-2,.79-2s-.94,1.06-1,1.17a16.54,16.54,0,0,1-4.55,3.9,18.05,18.05,0,0,1-5.49,2.13c-3.72.65-8,0-10.85-3.26-1.37-1.74-.88-.67-.51-.09a10.68,10.68,0,0,0,4.16,3.67Z"/><path class="cls-12" d="M67.39,10.05c0,.07.28-.46.73-.93a7.88,7.88,0,0,1,1.34-1.06c.24-.15.44-.07.64-.17.41-.2.71-.48.63-.58l-.15-.12c-.52-.31-1,0-1.59.24A3.52,3.52,0,0,0,67.7,8.68a1.69,1.69,0,0,0-.31,1.37Z"/><path class="cls-12" d="M70.13,11.12a12.33,12.33,0,0,0,1.77-.94,1,1,0,0,0-.67-1.77A3.46,3.46,0,0,0,69,10.08c-1.13,1.78,0,1.5,1.1,1Z"/><path class="cls-2" d="M137,16c.28-1.51-.68,3.06-.75,1.37a11.31,11.31,0,0,0-.84-3.9c-3.29-9.54-15.59-7.41-20-5.8-2.85,1-3.21,2.27-3.47,5.23-.3,3.54,3.18,8.27,6.38,9.59,4.4,1.81,5.53,2.49,10.15,1.48,3.6-.79,7.82-4.27,8.49-8Z"/><path class="cls-3" d="M135.92,16.68l-.8,1.74-.58.8a7.63,7.63,0,0,1-2.37,2.05,12.84,12.84,0,0,1-14.93-1,26.58,26.58,0,0,1-3.54-3.41c-.31-.36-.44-1.32.72-.33a19.6,19.6,0,0,0,5,3.42c2.8,1.13,5.55,2.09,8.61,1.6s5.59-1.54,7.48-4.2l.45-.68Z"/><path class="cls-2" d="M118.74,5.56a4.62,4.62,0,0,1,1.1-1.93A10.09,10.09,0,0,1,122.62,2c3.49-.81,5.87-.24,9,1.85A11.87,11.87,0,0,1,137,13c.16,4.84-4.55,8-8.74,9-2.55.62-6.33-.39-8.74-1.28s-6.87-4.68-7.22-7.1c-.3-2,0-3.81,1.59-5.27,1.91-1.59,2.61-.57,3.58-1.31.09-.07,1.27-1.26,1.27-1.56Z"/><path class="cls-4" d="M114.67,9.4c-.56.48-.27.67-.67.89-1.33.7-.78,4.1-.59,4.3a3.56,3.56,0,0,1,.94,1.66c1.44,1.3,3.47,1.21,5,2.17.25.16,1.26,1.09,1.3,1.1,2.66,1,1.43-.59,2.73,1.59.17.28,5.75.08,6.21-.37,1-1,4.16-1.44,4.9-3.49.69-1.89,1.08-.71.52-2.23-1.13-3.1-1.2,2.14-2.06,2a6.94,6.94,0,0,0-3.7.17c-1.07-.16-3.19,1.76-3.78,1.18a2.9,2.9,0,0,0-2.33-.57c-1.18-.52-2.1.43-3-1.17-.62-1.11-2.46-1.78-2.46-2,0-.42-2-2.1-1.46-2.63s-.43-1.64-.18-1.82c1.21-.83.14-2-1.36-.78Zm5.24-5.09c.09.79-.65.91-.62,1.78s0,.5.3.49c3.24-.1,1.77-1.5,2.84-1.75,2-.49,1.24-.86,2.5-1.43.84-.38,5.5,1.34,6.3,1.83,2,1.26.76-.35.27-.74A14.86,14.86,0,0,0,128.26,3c-1.62-.73-3.19,0-4.41-.16a3.57,3.57,0,0,0-1.16.11c-1,.11-2.53,1.41-2.78,1.35Z"/><path class="cls-13" d="M129.41,10.24a3.59,3.59,0,0,1-1.78,5.34c-1.7.8-3.27.67-5.35,0a5.91,5.91,0,0,1-2.67-1.78,3.52,3.52,0,0,1-.89-4.45,1.41,1.41,0,0,0,.15-.82,2.48,2.48,0,0,1,.74-1c.33-.37,0,0,1.78-.89a4.58,4.58,0,0,1,3.56,0A10.66,10.66,0,0,1,129.41,10.24Z"/><path class="cls-9" d="M129.65,6.64c-.28.33-.48.44-.57.43s-.06-.27.27-.52a.62.62,0,0,0,.3-.41c0-.64-1,.42-1.1.52-.26.31-1.07.86-.51.66.71-.25.58-.17.51,0-.58,1,.64.2,1,0s.2.09.14.16-.41.33-.42.46.43,0,.43,0,.29.18.22.25a6.17,6.17,0,0,1-.57.24c-.19.1.09.2.11.29s.87-.22,1-.24c.27-.08,1.16-.38.45-.55l-.41-.08c-.41-.1.42-.55,1-.77.92-.34.73-.79-.11-.36-.33.17-.81.38-.87.4-.84.26-.15-.47.05-.66L131,6c.41-.38.24-.42-.17-.2a4.38,4.38,0,0,0-1.16.88Zm4.72-.14a31.41,31.41,0,0,0-3.66-3.08c-.25,0-2.07-1-1.81-.67,0,.06,5.18,3.73,5.3,3.9a29.6,29.6,0,0,1,1.56,3.49c.24.66.11,1.35.23,1.5s.51,1.57.62,1.67c1.34,1.18.16-4.09-2.24-6.81Zm-5.09,9a5.68,5.68,0,0,1-3.74,1.37c-.45,0-.87,0-1.18,0-.59,0-2.75-.62-2.92-.52-.33.19.79.44.8.44.89.5,1,.08,1.38.21a7.86,7.86,0,0,0,.95.18c.76.19,1-.33,1.33-.1.55.4.37-.12.8-.09.76,0,.57-.17.7-.21a1.34,1.34,0,0,0,.94-.2c.2-.11,1.37.2,1.06-.08-.54-.49.63-.91.3-1.34a3.85,3.85,0,0,0-.42.3ZM127,5.06s-.35.28-.34.16c-.1.11.24-.7.26-.76.23-.7.11-.42-.13-.27s-.48.87-.72,1.12a1.5,1.5,0,0,0-.25.52c0,.09-.15.46,0,.34s.36-.46.49-.56.14.09.06.19c-.28.35-.14.9.32.35.13-.16.8-1,.76-1.18-.1-.36-.29-.1-.48.09Z"/><path class="cls-10" d="M132.94,10.45c.55,0,.46.23.05.33s-.7.11-.81.12c-.56,0-.34-.29,0-.33s.57-.12.76-.12Z"/><path class="cls-10" d="M131.44,16.55c.24.31.07.36-.16.18a5.17,5.17,0,0,1-.44-.4c-.28-.29,0-.33.19-.15s.32.26.41.37Z"/><path class="cls-10" d="M132.9,14.48c.44.15.3.31-.05.27s-.59-.1-.68-.12c-.46-.12-.19-.33.09-.27s.49.06.64.12Z"/><path class="cls-10" d="M133.24,7.79c.34-.08.32.08.08.19-.52.26-.59-.07-.08-.19Z"/><path class="cls-10" d="M133.89,9c.34-.08.32.08.08.2-.52.25-.6-.08-.08-.2Z"/><path class="cls-11" d="M137,16c-1.2,6.68-9.21,10.42-15.32,8.34-3.69-1.26-6.2-2.66-8.31-5.92A8.58,8.58,0,0,1,112,15.14a4.74,4.74,0,0,1-.26-2.69c.17-2,.2-2.6,1.43-4.21a7.89,7.89,0,0,1,2-1,13.74,13.74,0,0,0,2.12-.55,1.38,1.38,0,0,0,.83-1.06,4.46,4.46,0,0,1,2.27-2.82A16.76,16.76,0,0,1,122,2a8.38,8.38,0,0,1,3.42-.53,10.21,10.21,0,0,1,3.16.56,14.58,14.58,0,0,1,4.68,2.54,9.55,9.55,0,0,1,3.25,4.54,11.08,11.08,0,0,1,.84,3.9,8.24,8.24,0,0,1-.32,3ZM118.88,5.85c0,.79-1,1.32-1.44,1.56-.92.47-1.78.18-2.72.84-1.29,1.06-2,1.75-2.14,3.58a5.36,5.36,0,0,0,1.9,5.17,16.94,16.94,0,0,0,9.67,4.81,11.85,11.85,0,0,0,9.64-2.75,7.8,7.8,0,0,0,2.84-6.23,13,13,0,0,0-1.32-4.77,10.31,10.31,0,0,0-3.92-4,11.31,11.31,0,0,0-8.77-1.58A8.7,8.7,0,0,0,120,3.93a4.76,4.76,0,0,0-1.1,1.92Zm-.78,5.24a4.2,4.2,0,0,1,2.64-4.26,5.51,5.51,0,0,1,2.12-.45,7.06,7.06,0,0,1,4.34,1.4A7.2,7.2,0,0,1,130,11.6c.82,2.89-1.56,4.17-3.93,4.57a6.76,6.76,0,0,1-6-1.63,5.07,5.07,0,0,1-2-3.45Zm11.34.19a8,8,0,0,0-4.88-4.34,5.19,5.19,0,0,0-3.82.35,4.12,4.12,0,0,0-1.95,2.27c-.61,1.68.11,3.55,1.82,4.94a7.3,7.3,0,0,0,7.33.58A3.16,3.16,0,0,0,129,14.2a2.93,2.93,0,0,0,.41-2.92ZM132,22a10.91,10.91,0,0,0,3.8-4c.31-.62.7-1.73-.5.13-2.5,3.49-6.74,4.56-10.51,4.25a18.58,18.58,0,0,1-5.66-1.61,16.64,16.64,0,0,1-4.88-3.47c-.12-.1-.91-1.05-1.15-1.07s.78,1.67,1,1.89c2.52,2.94,6.88,5.86,10.87,5.9A13.2,13.2,0,0,0,132,22Z"/></svg>