<svg xmlns="http://www.w3.org/2000/svg" viewBox="0 0 256 64"><defs><style>.cls-1{isolation:isolate;}.cls-2{opacity:0.3;}.cls-20,.cls-3{fill:#6da541;}.cls-4{fill:#447725;}.cls-5{fill:#325c19;}.cls-6{fill:#ff5674;}.cls-7{fill:#fe465c;}.cls-8{fill:#fd3746;}.cls-9{fill:#fdece2;}.cls-10{fill:#fdf2eb;}.cls-11{fill:#ffe2cf;}.cls-12{fill:#fff0e6;}.cls-13{fill:#ff2b50;}.cls-14{fill:#f41a34;}.cls-15{fill:#eb0b1d;}.cls-16{fill:#d10023;}.cls-17{fill:#3c2415;}.cls-18{fill:#68361d;}.cls-19{fill:#893d1b;}.cls-20,.cls-22{stroke:#347000;stroke-miterlimit:10;}.cls-21{fill:#2f4c2d;}.cls-22{fill:#f1fdbd;}.cls-23{fill:#3d0e0a;}.cls-24{fill:#4d1b17;}.cls-25{opacity:0.4;mix-blend-mode:screen;}.cls-26{fill:#fff;}</style></defs><g class="cls-1"><g id="Layer_1" data-name="Layer 1"><path class="cls-2" d="M121,53.37a150.63,150.63,0,0,0-16,.79,150.83,150.83,0,0,0-16-.79,149.92,149.92,0,0,0-16.64.86,149.92,149.92,0,0,0-16.64-.86c-4.74,0-9.2.18-13.15.52-4-.34-8.42-.52-13.15-.52C13.38,53.37.34,55.53.34,58.19S13.38,63,29.46,63c4.73,0,9.2-.19,13.15-.52,4,.33,8.41.52,13.15.52a147.34,147.34,0,0,0,16.64-.87A147.34,147.34,0,0,0,89,63a150.83,150.83,0,0,0,16-.79A150.63,150.63,0,0,0,121,63c16.09,0,29.13-2.16,29.13-4.83S137.08,53.37,121,53.37Z"/><path class="cls-3" d="M4.57,49.89c3.58.82,54.11-3.44,54.85-3.17a7.32,7.32,0,0,1,.73.74c-5.57,6.44-14.26,10.92-24.1,12.08C24.27,60.92,9.79,56.16,4.57,49.89Z"/><path class="cls-4" d="M15.6,49.82a31,31,0,0,0-3.29,1.58,30.21,30.21,0,0,1-2.86,1.54c-.31.13-.63.25-.95.35a36.93,36.93,0,0,0,8.7,4.09,3,3,0,0,1-.13-1.49c.41-1.86,2-3,3.24-4.38a4.71,4.71,0,0,0,1.17-1.82,1.36,1.36,0,0,0,0-.4c-1.89.12-3.71.23-5.41.32Z"/><path class="cls-4" d="M54.48,51.74a13.51,13.51,0,0,0-4.84-.83,6.56,6.56,0,0,1-3.4-.82,17.21,17.21,0,0,0,.34,2c.13.6.21,1.21.29,1.82a10.21,10.21,0,0,0,.54,2.47.23.23,0,0,1,.11.11,37.24,37.24,0,0,0,7.67-4.42A5.79,5.79,0,0,0,54.48,51.74Z"/><path class="cls-4" d="M37.7,58.86a5.63,5.63,0,0,0-1.76-2.56,23.34,23.34,0,0,0-2.82-2.12c-.46-.29-.91-.63-1.39-.9a.93.93,0,0,0-.68-.2,3.4,3.4,0,0,0-.81.45c-.39.25-.79.48-1.2.7-1.22.68-2.45,1.3-3,2.69a8.81,8.81,0,0,0-.45,1.82c0,.18-.05.38-.08.58a41.26,41.26,0,0,0,10.51.22c.59-.07,1.18-.15,1.76-.25A3.39,3.39,0,0,0,37.7,58.86Z"/><path class="cls-5" d="M12.35,54a7.93,7.93,0,0,0-1.45.68A38,38,0,0,0,15,56.57,8.23,8.23,0,0,0,15.25,53C14.31,53.43,13.31,53.68,12.35,54Z"/><path class="cls-5" d="M48.64,54c.33.54.76,1,1,1.52.81-.41,1.61-.85,2.38-1.31a4,4,0,0,0-1.67-.91A1.75,1.75,0,0,0,48.64,54Z"/><path class="cls-5" d="M34.29,58.86A2.77,2.77,0,0,0,33,57.05a8.56,8.56,0,0,0-1.94-.9c-.1.89-.84,1.31-1.6,1.79-.51.32-1.09.83-1,1.49a1.55,1.55,0,0,0,0,.21,41.51,41.51,0,0,0,6,0A5.93,5.93,0,0,0,34.29,58.86Z"/><path class="cls-6" d="M30.52,19.42C22.27,29.79,13.09,40.52,7.29,46.93c1,.12,5.62.7,5.87.75.13-.15,11.88-13.92,22.21-27.19l-.32-.36C33.53,19.93,32,19.72,30.52,19.42Z"/><path class="cls-7" d="M30.53,19.42c-7,8.88-14.9,18.13-20.71,24.67,1.67.16,3.34,0,5.4.29,4.77-4.82,12.85-14.57,20-24l-.21-.24C33.54,19.93,32,19.72,30.53,19.42Z"/><path class="cls-8" d="M30.5,19.42c-5,6.29-10.75,13.21-15.64,18.92,1.74.24,4,.13,5.71.34C25.05,33.56,30.39,27,35.33,20.44c-.1-.1-.19-.21-.28-.31C33.54,19.93,32,19.73,30.5,19.42Z"/><path class="cls-9" d="M12.67,47.1a23.76,23.76,0,0,0-4.91-.67L4.54,49.89a.27.27,0,0,1,.07.08c1.61.08,2.68.17,4.55.32C9.52,50,12.5,47.26,12.67,47.1Z"/><path class="cls-10" d="M12.59,47a23.73,23.73,0,0,0-4.83-.59L6.48,47.81c1.18.26,3.76.47,4.71.73A13.87,13.87,0,0,0,12.59,47Z"/><path class="cls-11" d="M50.62,37.67c-5.36-5.83-10.44-11.73-15.55-17.52-.47.63-.86,1.29-1.34,1.92C26.22,31.68,18.59,41.69,9,50.23a37.1,37.1,0,0,0,13.43,6.62A39.44,39.44,0,0,0,41,57.23,33.78,33.78,0,0,0,54.53,51a47.27,47.27,0,0,0,4.89-4.31C56.51,43.66,53.47,40.71,50.62,37.67Z"/><path class="cls-12" d="M50.68,37.65c-5.36-5.83-10.5-11.71-15.61-17.5-.47.64-.94,1.27-1.42,1.9-7,8.94-14,18.26-22.67,26.4a33.82,33.82,0,0,0,4.15,2.44A39.22,39.22,0,0,0,38.19,54.8a35.09,35.09,0,0,0,12.4-4.54,34.7,34.7,0,0,0,6.64-5.84C55.06,42.14,52.81,39.93,50.68,37.65Z"/><path class="cls-13" d="M50.78,37.58q-8-8.74-15.71-17.43c-.47.64-.94,1.27-1.42,1.9C27.1,30.46,20.44,39.18,12.48,47a32.69,32.69,0,0,0,10.28,4.95A33.27,33.27,0,0,0,39.81,53.1c4.23-.92,8-3.24,11.56-6A40.22,40.22,0,0,0,55.91,43Q53.33,40.31,50.78,37.58Z"/><path class="cls-14" d="M50.78,37.58q-8-8.74-15.71-17.43c-.47.64-.94,1.27-1.42,1.9-5,6.41-10.48,13.45-16.22,19.78-.77.83-1.57,1.57-2.35,2.49A39.35,39.35,0,0,0,25,48.22a43,43,0,0,0,8.44.87c.45,0,.89,0,1.34-.08a3.5,3.5,0,0,1,.5-1.61.12.12,0,0,1,.19,0c.34.46.68.92,1,1.4.43-.07.86-.15,1.28-.24a.89.89,0,0,1,0-.78.12.12,0,0,1,.14,0c.44.17.89.27,1.34.43.58-.17,1.16-.35,1.73-.55a28.17,28.17,0,0,0,11.75-8Z"/><path class="cls-15" d="M35.07,20.15c-.47.64-.94,1.27-1.42,1.9-4.27,5.54-8.74,11.13-13.3,16.67A12.65,12.65,0,0,0,24.43,41a5.79,5.79,0,0,1,1.11-.86.11.11,0,0,1,.17.06,2.15,2.15,0,0,1,.08,1.17,20.22,20.22,0,0,0,4.41.46A3,3,0,0,1,31,40.57a.11.11,0,0,1,.17.06c.18.34.49.59.69.92a1.84,1.84,0,0,0,1-.78.09.09,0,0,1,.13,0,6.28,6.28,0,0,0,1.49.74l.34,0,.22,0a2.07,2.07,0,0,0,.76-.34c.59-.39,1.08-.93,1.67-1.31a2.17,2.17,0,0,1,1.78-.51,1.47,1.47,0,0,1,.89,1.16,13.86,13.86,0,0,0,8.09-5.6Q41.54,27.5,35.07,20.15Z"/><path class="cls-16" d="M46.32,37.52a2,2,0,0,0-.65-1,2.94,2.94,0,0,0-1.06-.69c-.32-.1-.47.28-.3.5.34.44.9.63,1.22,1.1a.67.67,0,0,1,.13.65.46.46,0,0,1-.63.27.09.09,0,0,0-.1.13.64.64,0,0,0,.93.17A1.08,1.08,0,0,0,46.32,37.52Z"/><path class="cls-16" d="M27.63,34.81c-.08-.17-.34-.24-.42,0-.17.51.14,1.25-.36,1.61s-.39-.48-.32-.76c0-.1-.06-.18-.14-.13-.62.38-.46,1.69.37,1.59a1.15,1.15,0,0,0,.92-.93A2.21,2.21,0,0,0,27.63,34.81Z"/><path class="cls-16" d="M29.92,41.6a.23.23,0,0,0-.44.06c0,.5.12,1.16-.17,1.59a.71.71,0,0,1-.69.24c-.12-.06-.2-.54-.25-.66s-.26-.12-.26,0c0,.34-.12.87.2,1.12a1.1,1.1,0,0,0,1.25-.07C30.25,43.48,30.19,42.31,29.92,41.6Z"/><path class="cls-16" d="M40.31,42.74a1.77,1.77,0,0,0-.74-.81.19.19,0,0,0-.23.27,6,6,0,0,1,.78,1.37c.05.18.08.39-.09.47s-.57-.31-.74-.5a.1.1,0,0,0-.18.08,1.14,1.14,0,0,0,.83,1,.68.68,0,0,0,.75-.68A2.16,2.16,0,0,0,40.31,42.74Z"/><path class="cls-16" d="M37.67,31.47a1.74,1.74,0,0,0-.51-.93c-.15-.13-.32.08-.24.24s.15.43.22.63a2.26,2.26,0,0,1,.11.43.61.61,0,0,1,0,.14.35.35,0,0,0,0,.06s0,.06,0,0a0,0,0,0,0,0,0s0,0,0,0,0,0-.08,0a.37.37,0,0,1-.31-.32c-.07-.33.09-.78-.09-1.08-.05-.08-.18-.09-.2,0s-.08.45-.13.68a1.39,1.39,0,0,0,.05.78.78.78,0,0,0,1.12.36C37.85,32.29,37.76,31.78,37.67,31.47Z"/><path class="cls-17" d="M44.09,35.63c1,.23,2.7,2.36,1.46,2.94C44.15,39.21,43.74,36.45,44.09,35.63Z"/><path class="cls-17" d="M29.65,40.87c.66,1.15-.12,3.49-1.17,2.8S29,41.11,29.65,40.87Z"/><path class="cls-17" d="M27.68,34.3c.31,1.08-.37,2.87-1.25,2.35C25.37,36,27.07,34.5,27.68,34.3Z"/><path class="cls-17" d="M37,30c.6.75,1,2.51.07,2.41S36.37,30.77,37,30Z"/><path class="cls-17" d="M39.32,41.75c.88.66,1.43,2.46.51,2.55S38.79,42.76,39.32,41.75Z"/><path class="cls-18" d="M44.3,35.7a4.14,4.14,0,0,0,.16,1.3,3.86,3.86,0,0,0,.39,1,.77.77,0,0,0,.43.37,1.18,1.18,0,0,0,.56,0C46.4,37.63,45.21,36.09,44.3,35.7Z"/><path class="cls-18" d="M29.05,43.09a1.82,1.82,0,0,0,.36-1,6.09,6.09,0,0,0,0-1.13c-.7.43-1.81,1.73-1.17,2.49A1.17,1.17,0,0,0,29.05,43.09Z"/><path class="cls-18" d="M26.55,36.44a.58.58,0,0,0,.31-.16A1.43,1.43,0,0,0,27.1,36a2.55,2.55,0,0,0,.22-.54,6,6,0,0,0,.22-1.07c-.62.31-1.8,1.43-1.35,2.08A.73.73,0,0,0,26.55,36.44Z"/><path class="cls-18" d="M37.07,30.05a3.38,3.38,0,0,0-.32,1.45,1,1,0,0,0,.2.58c.1.12.21.22.32.33C38,32.29,37.61,30.78,37.07,30.05Z"/><path class="cls-18" d="M39.88,43.74a1.23,1.23,0,0,0,0-.71,5.09,5.09,0,0,0-.4-1.11,1.51,1.51,0,0,0-.2-.17c-.42.81-.49,2,0,2.43A1,1,0,0,0,39.88,43.74Z"/><path class="cls-19" d="M45.07,36.59a1.75,1.75,0,0,0-.29-.18,2.35,2.35,0,0,1,.44.64,3.37,3.37,0,0,1,.4,1.22,1.07,1.07,0,0,0,.08-.83A1.74,1.74,0,0,0,45.07,36.59Z"/><path class="cls-19" d="M28.34,43.33a2.83,2.83,0,0,1,.69-1.8A1.59,1.59,0,0,0,28.34,43.33Z"/><path class="cls-19" d="M26.6,35.56a3.58,3.58,0,0,1,.3-.65c-.34.34-.77.91-.58,1.42A1.86,1.86,0,0,1,26.6,35.56Z"/><path class="cls-19" d="M37.32,31l0-.06a2.2,2.2,0,0,1,.06.37,2.73,2.73,0,0,1-.05.89A1.05,1.05,0,0,0,37.32,31Z"/><path class="cls-19" d="M39.3,43.22a3.47,3.47,0,0,1,0-.79,1.53,1.53,0,0,1,.08-.37,2.24,2.24,0,0,0-.19.55,1.6,1.6,0,0,0,.16,1.32C39.36,43.7,39.32,43.46,39.3,43.22Z"/><path class="cls-3" d="M34.11,49.89c3.57.82,54.11-3.44,54.85-3.17a8.55,8.55,0,0,1,.73.74c-5.57,6.44-14.27,10.92-24.1,12.08C53.8,60.92,39.33,56.16,34.11,49.89Z"/><path class="cls-4" d="M45.14,49.82a31,31,0,0,0-3.29,1.58A31.49,31.49,0,0,1,39,52.94a9.94,9.94,0,0,1-1,.35,37,37,0,0,0,8.71,4.09,3.15,3.15,0,0,1-.14-1.49c.41-1.86,2-3,3.25-4.38A4.71,4.71,0,0,0,51,49.69a1.81,1.81,0,0,0,0-.4c-1.9.12-3.71.23-5.41.32Z"/><path class="cls-4" d="M84,51.74a13.54,13.54,0,0,0-4.84-.83,6.6,6.6,0,0,1-3.41-.82,15.37,15.37,0,0,0,.35,2c.13.6.21,1.21.29,1.82A9.76,9.76,0,0,0,77,56.39a.38.38,0,0,1,.11.11,37.77,37.77,0,0,0,7.67-4.42A6.59,6.59,0,0,0,84,51.74Z"/><path class="cls-4" d="M67.24,58.86a5.63,5.63,0,0,0-1.76-2.56,24.15,24.15,0,0,0-2.82-2.12c-.47-.29-.91-.63-1.39-.9a.94.94,0,0,0-.68-.2,3.22,3.22,0,0,0-.81.45c-.39.25-.79.48-1.2.7-1.23.68-2.45,1.3-3,2.69a9.47,9.47,0,0,0-.44,1.82c0,.18-.06.38-.08.58a41.25,41.25,0,0,0,10.51.22c.59-.07,1.18-.15,1.76-.25C67.32,59.15,67.28,59,67.24,58.86Z"/><path class="cls-5" d="M41.89,54a7.93,7.93,0,0,0-1.45.68,38,38,0,0,0,4.06,1.85A8.08,8.08,0,0,0,44.78,53C43.85,53.43,42.85,53.68,41.89,54Z"/><path class="cls-5" d="M78.17,54c.34.54.77,1,1.06,1.52.81-.41,1.6-.85,2.37-1.31a3.94,3.94,0,0,0-1.66-.91A1.77,1.77,0,0,0,78.17,54Z"/><path class="cls-5" d="M63.83,58.86a2.8,2.8,0,0,0-1.34-1.81,8.56,8.56,0,0,0-1.94-.9c-.1.89-.84,1.31-1.6,1.79-.51.32-1.09.83-1,1.49a1.52,1.52,0,0,0,0,.21,41.66,41.66,0,0,0,6,0A5.93,5.93,0,0,0,63.83,58.86Z"/><path class="cls-6" d="M60.06,19.42c-8.25,10.37-17.43,21.1-23.23,27.51,1,.12,5.61.7,5.87.75.13-.15,11.88-13.92,22.21-27.19l-.32-.36C63.07,19.93,61.56,19.72,60.06,19.42Z"/><path class="cls-7" d="M60.07,19.42c-7,8.88-14.9,18.13-20.71,24.67,1.66.16,3.34,0,5.39.29,4.78-4.82,12.86-14.57,20-24l-.21-.24C63.08,19.93,61.56,19.72,60.07,19.42Z"/><path class="cls-8" d="M60,19.42c-5,6.29-10.75,13.21-15.65,18.92,1.75.24,4,.13,5.72.34C54.59,33.56,59.93,27,64.86,20.44l-.27-.31C63.08,19.93,61.53,19.73,60,19.42Z"/><path class="cls-9" d="M42.21,47.1a23.76,23.76,0,0,0-4.91-.67l-3.22,3.46.07.08c1.61.08,2.68.17,4.54.32C39.06,50,42,47.26,42.21,47.1Z"/><path class="cls-10" d="M42.13,47a23.73,23.73,0,0,0-4.83-.59L36,47.81c1.18.26,3.76.47,4.71.73A15.13,15.13,0,0,0,42.13,47Z"/><path class="cls-11" d="M80.16,37.67C74.8,31.84,69.72,25.94,64.61,20.15c-.47.63-.86,1.29-1.34,1.92-7.52,9.61-15.14,19.62-24.72,28.16A37.22,37.22,0,0,0,52,56.85a39.44,39.44,0,0,0,18.51.38A33.8,33.8,0,0,0,84.06,51,48.48,48.48,0,0,0,89,46.72C86.05,43.66,83,40.71,80.16,37.67Z"/><path class="cls-12" d="M80.22,37.65c-5.36-5.83-10.5-11.71-15.61-17.5-.47.64-1,1.27-1.42,1.9-7,8.94-14,18.26-22.67,26.4a33.09,33.09,0,0,0,4.15,2.44,39.19,39.19,0,0,0,23,3.91,35.06,35.06,0,0,0,12.41-4.54,34.35,34.35,0,0,0,6.63-5.84C84.6,42.14,82.35,39.93,80.22,37.65Z"/><path class="cls-13" d="M80.32,37.58q-8-8.74-15.71-17.43c-.47.64-1,1.27-1.42,1.9C56.64,30.46,50,39.18,42,47A32.75,32.75,0,0,0,52.3,51.91a33.27,33.27,0,0,0,17,1.19c4.23-.92,8-3.24,11.55-6A39.49,39.49,0,0,0,85.45,43Q82.87,40.31,80.32,37.58Z"/><path class="cls-14" d="M80.32,37.58q-8-8.74-15.71-17.43c-.47.64-1,1.27-1.42,1.9C58.23,28.46,52.7,35.5,47,41.83c-.77.83-1.56,1.57-2.34,2.49a39.26,39.26,0,0,0,9.87,3.9,43,43,0,0,0,8.44.87c.45,0,.9,0,1.35-.08a3.5,3.5,0,0,1,.5-1.61.11.11,0,0,1,.18,0c.35.46.69.92,1,1.4.43-.07.86-.15,1.28-.24a.89.89,0,0,1,0-.78.12.12,0,0,1,.14,0c.44.17.89.27,1.34.43.58-.17,1.16-.35,1.73-.55a28.17,28.17,0,0,0,11.75-8Z"/><path class="cls-15" d="M64.61,20.15c-.47.64-1,1.27-1.42,1.9-4.27,5.54-8.74,11.13-13.3,16.67A12.65,12.65,0,0,0,54,41a5.79,5.79,0,0,1,1.11-.86.12.12,0,0,1,.17.06,2.25,2.25,0,0,1,.08,1.17,20.22,20.22,0,0,0,4.41.46,3,3,0,0,1,.84-1.24.11.11,0,0,1,.17.06c.18.34.48.59.69.92a1.82,1.82,0,0,0,1-.78.11.11,0,0,1,.14,0,6.09,6.09,0,0,0,1.49.74l.33,0,.22,0a2,2,0,0,0,.77-.34c.59-.39,1.07-.93,1.67-1.31a2.17,2.17,0,0,1,1.78-.51,1.44,1.44,0,0,1,.88,1.16,13.8,13.8,0,0,0,8.09-5.6Q71.09,27.5,64.61,20.15Z"/><path class="cls-16" d="M75.86,37.52a2,2,0,0,0-.65-1,2.9,2.9,0,0,0-1.07-.69c-.32-.1-.46.28-.29.5.34.44.9.63,1.22,1.1a.7.7,0,0,1,.13.65.47.47,0,0,1-.63.27.09.09,0,0,0-.1.13.64.64,0,0,0,.93.17A1.08,1.08,0,0,0,75.86,37.52Z"/><path class="cls-16" d="M57.17,34.81c-.08-.17-.35-.24-.42,0-.17.51.14,1.25-.36,1.61s-.39-.48-.32-.76a.1.1,0,0,0-.15-.13c-.61.38-.45,1.69.38,1.59a1.15,1.15,0,0,0,.92-.93A2.21,2.21,0,0,0,57.17,34.81Z"/><path class="cls-16" d="M59.45,41.6a.23.23,0,0,0-.44.06c0,.5.12,1.16-.16,1.59a.71.71,0,0,1-.69.24c-.12-.06-.2-.54-.25-.66a.14.14,0,0,0-.27,0c0,.34-.11.87.21,1.12a1.1,1.1,0,0,0,1.25-.07C59.78,43.48,59.72,42.31,59.45,41.6Z"/><path class="cls-16" d="M69.85,42.74a1.84,1.84,0,0,0-.75-.81.18.18,0,0,0-.22.27,6,6,0,0,1,.78,1.37c0,.18.08.39-.09.47s-.58-.31-.74-.5a.1.1,0,0,0-.18.08,1.12,1.12,0,0,0,.83,1,.68.68,0,0,0,.75-.68A2.16,2.16,0,0,0,69.85,42.74Z"/><path class="cls-16" d="M67.21,31.47a1.69,1.69,0,0,0-.52-.93c-.14-.13-.32.08-.24.24s.16.43.23.63a3.39,3.39,0,0,1,.11.43v.25a0,0,0,0,0,0,0s-.05,0-.08,0a.37.37,0,0,1-.31-.32c-.07-.33.09-.78-.09-1.08-.06-.08-.18-.09-.21,0s-.07.45-.12.68a1.39,1.39,0,0,0,0,.78.79.79,0,0,0,1.13.36C67.39,32.29,67.29,31.78,67.21,31.47Z"/><path class="cls-17" d="M73.63,35.63c1,.23,2.69,2.36,1.46,2.94C73.69,39.21,73.28,36.45,73.63,35.63Z"/><path class="cls-17" d="M59.18,40.87c.67,1.15-.12,3.49-1.16,2.8C56.82,42.88,58.49,41.11,59.18,40.87Z"/><path class="cls-17" d="M57.22,34.3c.3,1.08-.37,2.87-1.25,2.35C54.91,36,56.61,34.5,57.22,34.3Z"/><path class="cls-17" d="M66.57,30c.6.75,1,2.51.07,2.41S65.91,30.77,66.57,30Z"/><path class="cls-17" d="M68.86,41.75c.88.66,1.42,2.46.51,2.55S68.33,42.76,68.86,41.75Z"/><path class="cls-18" d="M73.84,35.7A4.14,4.14,0,0,0,74,37a4.25,4.25,0,0,0,.38,1,.8.8,0,0,0,.43.37,1.22,1.22,0,0,0,.57,0C75.94,37.63,74.75,36.09,73.84,35.7Z"/><path class="cls-18" d="M58.59,43.09a1.82,1.82,0,0,0,.36-1A6.09,6.09,0,0,0,59,41c-.7.43-1.81,1.73-1.17,2.49A1.17,1.17,0,0,0,58.59,43.09Z"/><path class="cls-18" d="M56.09,36.44a.62.62,0,0,0,.31-.16,1.83,1.83,0,0,0,.24-.31,3.21,3.21,0,0,0,.22-.54,6,6,0,0,0,.22-1.07c-.62.31-1.81,1.43-1.35,2.08A.73.73,0,0,0,56.09,36.44Z"/><path class="cls-18" d="M66.61,30.05a3.24,3.24,0,0,0-.32,1.45.93.93,0,0,0,.2.58c.1.12.21.22.31.33C67.51,32.29,67.15,30.78,66.61,30.05Z"/><path class="cls-18" d="M69.42,43.74a1.23,1.23,0,0,0,0-.71,5.09,5.09,0,0,0-.4-1.11,1.51,1.51,0,0,0-.2-.17c-.43.81-.49,2,0,2.43A1,1,0,0,0,69.42,43.74Z"/><path class="cls-19" d="M74.61,36.59a1.75,1.75,0,0,0-.29-.18,2.6,2.6,0,0,1,.44.64,3.17,3.17,0,0,1,.39,1.22,1,1,0,0,0,.09-.83A1.8,1.8,0,0,0,74.61,36.59Z"/><path class="cls-19" d="M57.88,43.33a2.78,2.78,0,0,1,.69-1.8A1.59,1.59,0,0,0,57.88,43.33Z"/><path class="cls-19" d="M56.13,35.56a4.6,4.6,0,0,1,.31-.65c-.34.34-.78.91-.58,1.42A1.86,1.86,0,0,1,56.13,35.56Z"/><path class="cls-19" d="M66.86,31l0-.06a2.2,2.2,0,0,1,.06.37,3,3,0,0,1,0,.89A1.07,1.07,0,0,0,66.86,31Z"/><path class="cls-19" d="M68.84,43.22a4.16,4.16,0,0,1,0-.79,2.22,2.22,0,0,1,.09-.37,2.79,2.79,0,0,0-.2.55,1.65,1.65,0,0,0,.17,1.32C68.9,43.7,68.86,43.46,68.84,43.22Z"/><path class="cls-3" d="M63.65,49.89c3.57.82,54.11-3.44,54.84-3.17a8.6,8.6,0,0,1,.74.74C113.65,53.9,105,58.38,95.13,59.54,83.34,60.92,68.87,56.16,63.65,49.89Z"/><path class="cls-4" d="M74.68,49.82a31,31,0,0,0-3.29,1.58,31.66,31.66,0,0,1-2.87,1.54c-.31.13-.63.25-1,.35a36.83,36.83,0,0,0,8.71,4.09,3,3,0,0,1-.14-1.49c.41-1.86,2-3,3.25-4.38a4.83,4.83,0,0,0,1.17-1.82,1.81,1.81,0,0,0,0-.4l-5.41.32Z"/><path class="cls-4" d="M113.56,51.74a13.56,13.56,0,0,0-4.85-.83,6.59,6.59,0,0,1-3.4-.82,15.37,15.37,0,0,0,.35,2c.13.6.2,1.21.29,1.82a10.19,10.19,0,0,0,.53,2.47.23.23,0,0,1,.11.11,37.58,37.58,0,0,0,7.68-4.42A6.59,6.59,0,0,0,113.56,51.74Z"/><path class="cls-4" d="M96.78,58.86A5.71,5.71,0,0,0,95,56.3a24.15,24.15,0,0,0-2.82-2.12c-.47-.29-.92-.63-1.39-.9-.2-.11-.45-.27-.68-.2a3.28,3.28,0,0,0-.82.45c-.39.25-.79.48-1.19.7-1.23.68-2.46,1.3-3,2.69a9.5,9.5,0,0,0-.45,1.82c0,.18,0,.38-.07.58a41.24,41.24,0,0,0,10.51.22c.59-.07,1.17-.15,1.75-.25A3.34,3.34,0,0,0,96.78,58.86Z"/><path class="cls-5" d="M71.43,54a7.63,7.63,0,0,0-1.45.68,37.81,37.81,0,0,0,4,1.85A8.08,8.08,0,0,0,74.32,53C73.38,53.43,72.38,53.68,71.43,54Z"/><path class="cls-5" d="M107.71,54c.34.54.76,1,1.05,1.52.82-.41,1.61-.85,2.38-1.31a3.94,3.94,0,0,0-1.66-.91A1.76,1.76,0,0,0,107.71,54Z"/><path class="cls-5" d="M93.36,58.86A2.79,2.79,0,0,0,92,57.05a8.76,8.76,0,0,0-1.94-.9c-.1.89-.84,1.31-1.61,1.79-.5.32-1.09.83-1,1.49a1.55,1.55,0,0,0,0,.21,41.65,41.65,0,0,0,6,0A4.77,4.77,0,0,0,93.36,58.86Z"/><path class="cls-6" d="M89.6,19.42c-8.25,10.37-17.43,21.1-23.23,27.51,1,.12,5.61.7,5.87.75.12-.15,11.88-13.92,22.2-27.19l-.31-.36C92.61,19.93,91.09,19.72,89.6,19.42Z"/><path class="cls-7" d="M89.61,19.42c-7,8.88-14.91,18.13-20.72,24.67,1.67.16,3.35,0,5.4.29,4.78-4.82,12.86-14.57,20-24l-.22-.24C92.61,19.93,91.1,19.72,89.61,19.42Z"/><path class="cls-8" d="M89.58,19.42c-5,6.29-10.75,13.21-15.65,18.92,1.74.24,4,.13,5.72.34C84.12,33.56,89.47,27,94.4,20.44l-.27-.31C92.62,19.93,91.07,19.73,89.58,19.42Z"/><path class="cls-9" d="M71.75,47.1a23.87,23.87,0,0,0-4.92-.67l-3.21,3.46.07.08c1.6.08,2.67.17,4.54.32C68.6,50,71.57,47.26,71.75,47.1Z"/><path class="cls-10" d="M71.67,47a23.85,23.85,0,0,0-4.84-.59l-1.27,1.38c1.17.26,3.76.47,4.71.73A15.13,15.13,0,0,0,71.67,47Z"/><path class="cls-11" d="M109.7,37.67c-5.36-5.83-10.44-11.73-15.55-17.52-.47.63-.86,1.29-1.34,1.92-7.52,9.61-15.14,19.62-24.72,28.16a37.18,37.18,0,0,0,13.43,6.62,39.49,39.49,0,0,0,18.52.38A33.8,33.8,0,0,0,113.6,51a47.27,47.27,0,0,0,4.89-4.31C115.58,43.66,112.54,40.71,109.7,37.67Z"/><path class="cls-12" d="M109.76,37.65c-5.36-5.83-10.5-11.71-15.61-17.5-.47.64-1,1.27-1.42,1.9-7,8.94-14,18.26-22.68,26.4a33.2,33.2,0,0,0,4.16,2.44A39.19,39.19,0,0,0,97.26,54.8a35.14,35.14,0,0,0,12.41-4.54,35,35,0,0,0,6.63-5.84C114.14,42.14,111.89,39.93,109.76,37.65Z"/><path class="cls-13" d="M109.86,37.58q-8-8.74-15.71-17.43c-.47.64-1,1.27-1.42,1.9C86.17,30.46,79.51,39.18,71.55,47a32.64,32.64,0,0,0,10.29,4.95,33.23,33.23,0,0,0,17,1.19c4.23-.92,8-3.24,11.56-6A41.23,41.23,0,0,0,115,43Q112.41,40.31,109.86,37.58Z"/><path class="cls-14" d="M109.86,37.58q-8-8.74-15.71-17.43c-.47.64-1,1.27-1.42,1.9-5,6.41-10.49,13.45-16.23,19.78-.77.83-1.57,1.57-2.35,2.49A39.35,39.35,0,0,0,84,48.22a43,43,0,0,0,8.44.87c.45,0,.9,0,1.34-.08a3.4,3.4,0,0,1,.51-1.61.11.11,0,0,1,.18,0c.35.46.69.92,1,1.4.43-.07.85-.15,1.28-.24a.89.89,0,0,1,0-.78s.09,0,.13,0c.44.17.9.27,1.34.43.59-.17,1.17-.35,1.73-.55a28.14,28.14,0,0,0,11.76-8Z"/><path class="cls-15" d="M94.15,20.15c-.47.64-1,1.27-1.42,1.9C88.45,27.59,84,33.18,79.43,38.72A12.65,12.65,0,0,0,83.51,41a5.79,5.79,0,0,1,1.11-.86.12.12,0,0,1,.17.06,2.15,2.15,0,0,1,.07,1.17,20.35,20.35,0,0,0,4.41.46,3.25,3.25,0,0,1,.84-1.24.12.12,0,0,1,.18.06c.18.34.48.59.68.92a1.81,1.81,0,0,0,1-.78.09.09,0,0,1,.13,0,6.34,6.34,0,0,0,1.5.74l.33,0,.22,0a2,2,0,0,0,.76-.34c.6-.39,1.08-.93,1.68-1.31a2.17,2.17,0,0,1,1.78-.51,1.45,1.45,0,0,1,.88,1.16,13.83,13.83,0,0,0,8.09-5.6Q100.63,27.5,94.15,20.15Z"/><path class="cls-16" d="M105.39,37.52a1.87,1.87,0,0,0-.65-1,2.78,2.78,0,0,0-1.06-.69c-.32-.1-.47.28-.29.5.33.44.9.63,1.22,1.1a.7.7,0,0,1,.13.65.47.47,0,0,1-.64.27c-.07,0-.14.07-.1.13a.64.64,0,0,0,.93.17A1,1,0,0,0,105.39,37.52Z"/><path class="cls-16" d="M86.71,34.81c-.09-.17-.35-.24-.42,0-.17.51.13,1.25-.36,1.61s-.4-.48-.32-.76a.1.1,0,0,0-.15-.13c-.62.38-.45,1.69.38,1.59a1.13,1.13,0,0,0,.91-.93A2.21,2.21,0,0,0,86.71,34.81Z"/><path class="cls-16" d="M89,41.6a.23.23,0,0,0-.44.06c0,.5.12,1.16-.17,1.59a.7.7,0,0,1-.69.24c-.12-.06-.19-.54-.25-.66s-.26-.12-.26,0c0,.34-.11.87.21,1.12a1.1,1.1,0,0,0,1.25-.07C89.32,43.48,89.26,42.31,89,41.6Z"/><path class="cls-16" d="M99.39,42.74a1.84,1.84,0,0,0-.75-.81.19.19,0,0,0-.23.27,5.33,5.33,0,0,1,.78,1.37c.06.18.09.39-.08.47s-.58-.31-.74-.5-.21,0-.18.08a1.13,1.13,0,0,0,.82,1,.67.67,0,0,0,.75-.68A2.15,2.15,0,0,0,99.39,42.74Z"/><path class="cls-16" d="M96.75,31.47a1.76,1.76,0,0,0-.52-.93c-.15-.13-.32.08-.24.24s.16.43.23.63a3.34,3.34,0,0,1,.1.43.61.61,0,0,1,0,.14v.09s0,0,0,0,0,0,0,0,0,0-.09,0a.37.37,0,0,1-.3-.32c-.07-.33.08-.78-.1-1.08a.11.11,0,0,0-.2,0,6.86,6.86,0,0,0-.12.68,1.3,1.3,0,0,0,0,.78.79.79,0,0,0,1.13.36C96.92,32.29,96.83,31.78,96.75,31.47Z"/><path class="cls-17" d="M103.17,35.63c1,.23,2.69,2.36,1.45,2.94C103.23,39.21,102.81,36.45,103.17,35.63Z"/><path class="cls-17" d="M88.72,40.87c.66,1.15-.12,3.49-1.16,2.8C86.36,42.88,88,41.11,88.72,40.87Z"/><path class="cls-17" d="M86.76,34.3c.3,1.08-.38,2.87-1.25,2.35C84.44,36,86.14,34.5,86.76,34.3Z"/><path class="cls-17" d="M96.11,30c.6.75,1,2.51.07,2.41S95.44,30.77,96.11,30Z"/><path class="cls-17" d="M98.4,41.75c.88.66,1.42,2.46.5,2.55S97.87,42.76,98.4,41.75Z"/><path class="cls-18" d="M103.38,35.7a4.14,4.14,0,0,0,.16,1.3,3.84,3.84,0,0,0,.38,1,.77.77,0,0,0,.43.37,1.22,1.22,0,0,0,.57,0C105.48,37.63,104.28,36.09,103.38,35.7Z"/><path class="cls-18" d="M88.13,43.09a2,2,0,0,0,.36-1,6.09,6.09,0,0,0,0-1.13c-.7.43-1.81,1.73-1.17,2.49A1.21,1.21,0,0,0,88.13,43.09Z"/><path class="cls-18" d="M85.63,36.44a.66.66,0,0,0,.31-.16,1.83,1.83,0,0,0,.24-.31,3.21,3.21,0,0,0,.22-.54,7,7,0,0,0,.22-1.07c-.62.31-1.81,1.43-1.35,2.08A.73.73,0,0,0,85.63,36.44Z"/><path class="cls-18" d="M96.15,30.05a3.39,3.39,0,0,0-.33,1.45,1,1,0,0,0,.21.58c.1.12.2.22.31.33C97,32.29,96.69,30.78,96.15,30.05Z"/><path class="cls-18" d="M99,43.74A1.32,1.32,0,0,0,99,43a4.65,4.65,0,0,0-.41-1.11,1.45,1.45,0,0,0-.19-.17c-.43.81-.49,2,0,2.43A1,1,0,0,0,99,43.74Z"/><path class="cls-19" d="M104.15,36.59a2.29,2.29,0,0,0-.29-.18,2.6,2.6,0,0,1,.44.64,3.56,3.56,0,0,1,.39,1.22,1,1,0,0,0,.08-.83A1.72,1.72,0,0,0,104.15,36.59Z"/><path class="cls-19" d="M87.42,43.33a2.78,2.78,0,0,1,.69-1.8A1.59,1.59,0,0,0,87.42,43.33Z"/><path class="cls-19" d="M85.67,35.56a3.7,3.7,0,0,1,.31-.65c-.34.34-.78.91-.58,1.42A1.86,1.86,0,0,1,85.67,35.56Z"/><path class="cls-19" d="M96.39,31l0-.06c0,.12,0,.24,0,.37a2.73,2.73,0,0,1,0,.89A1.05,1.05,0,0,0,96.39,31Z"/><path class="cls-19" d="M98.38,43.22a4.16,4.16,0,0,1,0-.79c0-.13,0-.25.08-.37a2.76,2.76,0,0,0-.19.55,1.61,1.61,0,0,0,.17,1.32C98.44,43.7,98.4,43.46,98.38,43.22Z"/><path class="cls-3" d="M93.18,49.89c3.58.82,54.11-3.44,54.85-3.17a8.6,8.6,0,0,1,.74.74c-5.58,6.44-14.27,10.92-24.1,12.08C112.88,60.92,98.4,56.16,93.18,49.89Z"/><path class="cls-4" d="M104.22,49.82a30.13,30.13,0,0,0-3.29,1.58,31.66,31.66,0,0,1-2.87,1.54c-.31.13-.63.25-1,.35a36.93,36.93,0,0,0,8.7,4.09,3,3,0,0,1-.13-1.49c.41-1.86,2-3,3.24-4.38a4.6,4.6,0,0,0,1.17-1.82,1.09,1.09,0,0,0,0-.4c-1.89.12-3.71.23-5.4.32Z"/><path class="cls-4" d="M143.09,51.74a13.51,13.51,0,0,0-4.84-.83,6.56,6.56,0,0,1-3.4-.82,17.21,17.21,0,0,0,.34,2c.14.6.21,1.21.29,1.82a10.21,10.21,0,0,0,.54,2.47.23.23,0,0,1,.11.11,37.24,37.24,0,0,0,7.67-4.42A5.17,5.17,0,0,0,143.09,51.74Z"/><path class="cls-4" d="M126.31,58.86a5.56,5.56,0,0,0-1.76-2.56,22.58,22.58,0,0,0-2.82-2.12c-.46-.29-.91-.63-1.39-.9a.92.92,0,0,0-.67-.2,3.28,3.28,0,0,0-.82.45c-.39.25-.79.48-1.2.7-1.22.68-2.45,1.3-3,2.69a8.81,8.81,0,0,0-.45,1.82c0,.18,0,.38-.08.58a41.33,41.33,0,0,0,10.52.22c.59-.07,1.17-.15,1.75-.25A3.39,3.39,0,0,0,126.31,58.86Z"/><path class="cls-5" d="M101,54a8.25,8.25,0,0,0-1.45.68,38,38,0,0,0,4.06,1.85,8.23,8.23,0,0,0,.29-3.55C102.92,53.43,101.92,53.68,101,54Z"/><path class="cls-5" d="M137.25,54c.33.54.76,1,1.05,1.52.81-.41,1.61-.85,2.38-1.31a4,4,0,0,0-1.67-.91A1.75,1.75,0,0,0,137.25,54Z"/><path class="cls-5" d="M122.9,58.86a2.79,2.79,0,0,0-1.33-1.81,8.76,8.76,0,0,0-1.94-.9c-.1.89-.84,1.31-1.61,1.79-.51.32-1.09.83-1,1.49a1.55,1.55,0,0,0,0,.21,41.51,41.51,0,0,0,6,0A5.93,5.93,0,0,0,122.9,58.86Z"/><path class="cls-6" d="M119.13,19.42c-8.25,10.37-17.43,21.1-23.22,27.51,1,.12,5.61.7,5.87.75.12-.15,11.88-13.92,22.2-27.19l-.32-.36C122.15,19.93,120.63,19.72,119.13,19.42Z"/><path class="cls-7" d="M119.14,19.42c-7,8.88-14.9,18.13-20.71,24.67,1.67.16,3.35,0,5.4.29,4.78-4.82,12.85-14.57,20-24l-.21-.24C122.15,19.93,120.64,19.72,119.14,19.42Z"/><path class="cls-8" d="M119.12,19.42c-5,6.29-10.76,13.21-15.65,18.92,1.74.24,4,.13,5.71.34C113.66,33.56,119,27,123.94,20.44l-.28-.31C122.15,19.93,120.61,19.73,119.12,19.42Z"/><path class="cls-9" d="M101.28,47.1a23.65,23.65,0,0,0-4.91-.67l-3.21,3.46.06.08c1.61.08,2.68.17,4.55.32C98.13,50,101.11,47.26,101.28,47.1Z"/><path class="cls-10" d="M101.2,47a23.64,23.64,0,0,0-4.83-.59L95.1,47.81c1.17.26,3.75.47,4.71.73A14.41,14.41,0,0,0,101.2,47Z"/><path class="cls-11" d="M139.23,37.67c-5.36-5.83-10.44-11.73-15.54-17.52-.47.63-.87,1.29-1.34,1.92-7.52,9.61-15.15,19.62-24.72,28.16a37.1,37.1,0,0,0,13.43,6.62,39.45,39.45,0,0,0,18.51.38A33.78,33.78,0,0,0,143.14,51,47.27,47.27,0,0,0,148,46.72C145.12,43.66,142.08,40.71,139.23,37.67Z"/><path class="cls-12" d="M139.29,37.65c-5.36-5.83-10.5-11.71-15.6-17.5l-1.43,1.9c-7,8.94-14,18.26-22.67,26.4a33.82,33.82,0,0,0,4.15,2.44A39.23,39.23,0,0,0,126.8,54.8a35,35,0,0,0,12.4-4.54,34.7,34.7,0,0,0,6.64-5.84C143.67,42.14,141.42,39.93,139.29,37.65Z"/><path class="cls-13" d="M139.4,37.58q-8.06-8.74-15.71-17.43l-1.43,1.9c-6.55,8.41-13.21,17.13-21.17,24.91a32.64,32.64,0,0,0,10.29,4.95,33.22,33.22,0,0,0,17,1.19c4.23-.92,8-3.24,11.56-6A41.23,41.23,0,0,0,144.53,43Q141.94,40.31,139.4,37.58Z"/><path class="cls-14" d="M139.4,37.58q-8.06-8.74-15.71-17.43l-1.43,1.9c-5,6.41-10.48,13.45-16.22,19.78-.77.83-1.57,1.57-2.35,2.49a39.35,39.35,0,0,0,9.88,3.9,43,43,0,0,0,8.44.87c.45,0,.9,0,1.34-.08a3.4,3.4,0,0,1,.51-1.61.11.11,0,0,1,.18,0c.34.46.69.92,1,1.4.43-.07.85-.15,1.27-.24a.86.86,0,0,1,0-.78s.08,0,.13,0c.44.17.9.27,1.34.43.59-.17,1.16-.35,1.73-.55a28.11,28.11,0,0,0,11.75-8C140.67,38.94,140,38.26,139.4,37.58Z"/><path class="cls-15" d="M123.69,20.15l-1.43,1.9C118,27.59,113.52,33.18,109,38.72A12.86,12.86,0,0,0,113,41a6.48,6.48,0,0,1,1.11-.86.13.13,0,0,1,.18.06,2.25,2.25,0,0,1,.07,1.17,20.22,20.22,0,0,0,4.41.46,3.14,3.14,0,0,1,.84-1.24c.06,0,.14,0,.18.06.17.34.48.59.68.92a1.84,1.84,0,0,0,1-.78.09.09,0,0,1,.13,0,6.28,6.28,0,0,0,1.49.74l.34,0,.22,0a2.07,2.07,0,0,0,.76-.34c.59-.39,1.08-.93,1.67-1.31a2.19,2.19,0,0,1,1.78-.51,1.45,1.45,0,0,1,.89,1.16,13.83,13.83,0,0,0,8.09-5.6Q130.15,27.5,123.69,20.15Z"/><path class="cls-16" d="M134.93,37.52a1.87,1.87,0,0,0-.65-1,2.86,2.86,0,0,0-1.06-.69c-.32-.1-.47.28-.3.5.34.44.9.63,1.22,1.1a.7.7,0,0,1,.14.65.47.47,0,0,1-.64.27c-.07,0-.14.07-.1.13a.64.64,0,0,0,.93.17A1.08,1.08,0,0,0,134.93,37.52Z"/><path class="cls-16" d="M116.25,34.81c-.09-.17-.35-.24-.43,0-.17.51.14,1.25-.36,1.61s-.39-.48-.31-.76c0-.1-.06-.18-.15-.13-.62.38-.46,1.69.38,1.59a1.14,1.14,0,0,0,.91-.93A2.29,2.29,0,0,0,116.25,34.81Z"/><path class="cls-16" d="M118.53,41.6a.23.23,0,0,0-.44.06c0,.5.12,1.16-.17,1.59a.7.7,0,0,1-.69.24c-.12-.06-.2-.54-.25-.66s-.26-.12-.26,0c0,.34-.11.87.2,1.12a1.12,1.12,0,0,0,1.26-.07C118.86,43.48,118.8,42.31,118.53,41.6Z"/><path class="cls-16" d="M128.92,42.74a1.77,1.77,0,0,0-.74-.81.19.19,0,0,0-.23.27,5.64,5.64,0,0,1,.78,1.37c.05.18.09.39-.09.47s-.57-.31-.74-.5a.09.09,0,0,0-.17.08,1.13,1.13,0,0,0,.82,1,.67.67,0,0,0,.75-.68A2.16,2.16,0,0,0,128.92,42.74Z"/><path class="cls-16" d="M126.28,31.47a1.74,1.74,0,0,0-.51-.93c-.15-.13-.32.08-.24.24s.15.43.22.63a2.26,2.26,0,0,1,.11.43.61.61,0,0,1,0,.14.35.35,0,0,0,0,.06s0,.06,0,0a0,0,0,0,0,0,0s0,0,0,0,0,0-.08,0a.37.37,0,0,1-.31-.32c-.06-.33.09-.78-.09-1.08a.11.11,0,0,0-.2,0,6.86,6.86,0,0,0-.12.68,1.3,1.3,0,0,0,0,.78.78.78,0,0,0,1.12.36C126.46,32.29,126.37,31.78,126.28,31.47Z"/><path class="cls-17" d="M132.71,35.63c1,.23,2.69,2.36,1.45,2.94S132.35,36.45,132.71,35.63Z"/><path class="cls-17" d="M118.26,40.87c.66,1.15-.12,3.49-1.17,2.8S117.57,41.11,118.26,40.87Z"/><path class="cls-17" d="M116.29,34.3c.31,1.08-.37,2.87-1.25,2.35C114,36,115.68,34.5,116.29,34.3Z"/><path class="cls-17" d="M125.64,30c.6.75,1,2.51.07,2.41S125,30.77,125.64,30Z"/><path class="cls-17" d="M127.93,41.75c.88.66,1.43,2.46.51,2.55S127.4,42.76,127.93,41.75Z"/><path class="cls-18" d="M132.92,35.7a3.87,3.87,0,0,0,.16,1.3,3.51,3.51,0,0,0,.38,1,.77.77,0,0,0,.43.37,1.18,1.18,0,0,0,.56,0C135,37.63,133.82,36.09,132.92,35.7Z"/><path class="cls-18" d="M117.66,43.09a1.82,1.82,0,0,0,.36-1A5.33,5.33,0,0,0,118,41c-.69.43-1.81,1.73-1.16,2.49A1.17,1.17,0,0,0,117.66,43.09Z"/><path class="cls-18" d="M115.17,36.44a.66.66,0,0,0,.31-.16,2.55,2.55,0,0,0,.24-.31,4.35,4.35,0,0,0,.22-.54,6,6,0,0,0,.21-1.07c-.61.31-1.8,1.43-1.34,2.08A.73.73,0,0,0,115.17,36.44Z"/><path class="cls-18" d="M125.68,30.05a3.53,3.53,0,0,0-.32,1.45,1,1,0,0,0,.2.58c.1.12.21.22.32.33C126.58,32.29,126.22,30.78,125.68,30.05Z"/><path class="cls-18" d="M128.49,43.74a1.15,1.15,0,0,0,0-.71,4.62,4.62,0,0,0-.4-1.11,1.06,1.06,0,0,0-.2-.17c-.42.81-.48,2,0,2.43A1,1,0,0,0,128.49,43.74Z"/><path class="cls-19" d="M133.68,36.59a1.75,1.75,0,0,0-.29-.18,2.64,2.64,0,0,1,.45.64,3.56,3.56,0,0,1,.39,1.22,1.07,1.07,0,0,0,.08-.83A1.74,1.74,0,0,0,133.68,36.59Z"/><path class="cls-19" d="M117,43.33a2.84,2.84,0,0,1,.7-1.8A1.58,1.58,0,0,0,117,43.33Z"/><path class="cls-19" d="M115.21,35.56a4.42,4.42,0,0,1,.3-.65c-.33.34-.77.91-.58,1.42A2,2,0,0,1,115.21,35.56Z"/><path class="cls-19" d="M125.93,31l0-.06a2.2,2.2,0,0,1,.06.37,2.73,2.73,0,0,1,0,.89A1.05,1.05,0,0,0,125.93,31Z"/><path class="cls-19" d="M127.92,43.22a3.47,3.47,0,0,1,0-.79,2.21,2.21,0,0,1,.08-.37,2.24,2.24,0,0,0-.19.55,1.57,1.57,0,0,0,.17,1.32C128,43.7,127.93,43.46,127.92,43.22Z"/><ellipse class="cls-2" cx="208.01" cy="55.37" rx="43.97" ry="7.61"/><path class="cls-20" d="M160.74,11.65a47.54,47.54,0,0,0-.39,4.8c.35,24.08,22,43.29,48.28,42.92s47.37-20.2,47-44.27c0-1.45-.34-3.38-.51-4.79Z"/><path class="cls-21" d="M163.33,20.57a8.17,8.17,0,0,1-.8,2.46,5.76,5.76,0,0,0,0,2.94c.29,1.26,1.13,1.75,1.72,2.9a8.15,8.15,0,0,0,.66,1.42c.4.55.94,1,1.34,1.54.79,1.13,1.33,2.23.8,2.58-.25.17-.83-.1-.5.6A11,11,0,0,0,168,36.59a8,8,0,0,1,1.57,2.68c.86.86,1.62,1.73,1.48,2.12-.06.15-.29.23.05.63s.58.64.82.94c.45.55.89,1.1,1.27,1.6a13.19,13.19,0,0,1,1,1.44,2.57,2.57,0,0,0,.58.94c.23.26.56.59.88.91a36.39,36.39,0,0,0,3.18,2.46l-.24-.27a10.89,10.89,0,0,1-1.8-2.71,4.7,4.7,0,0,1-.38-2,4.19,4.19,0,0,1-.13-1.05c-.42-.66-.67-1.17-.55-1.61v0c-1-1.49-2.68-3.2-2.65-4.36a7.62,7.62,0,0,1-.39-1.6c-.2-1.63-1-1.5-1.86-2.87-.73-1.14-.17-2.17-.75-3.33-.71-1.43-2.12-1.9-2.84-3.4a6.2,6.2,0,0,1-.59-3.46c.21-1.41,1.1-1.21,1.83-2.15s.15-1.61-.54-2.52c-1.19-1.57-.9-2.28.42-3.41a2.5,2.5,0,0,0,1.08-1.5c.09-.59-.2-1.39-.67-1.43a2.47,2.47,0,0,0,.25-1.09l-7,.09a12.25,12.25,0,0,0-1.64,4.1C160.23,17.61,163.33,18.19,163.33,20.57Z"/><path class="cls-21" d="M184.57,23.49c1,.85,2,.91,2.57,2.48a3.16,3.16,0,0,1-.58,3.43c-1.11,1.3-.39,1.68.51,3.06a9.41,9.41,0,0,1,1.24,4c-1.09.07-2.44,2.63-1.54,4.21.42.74,1.12.83,1.5,1.73a7.67,7.67,0,0,1,.38,3.28,6.94,6.94,0,0,0-.16,2.5c.25.72.41.44.84,1a2.89,2.89,0,0,1,.55,1.38,7.57,7.57,0,0,1-.2,3.47c.49.66.85.27,1.32,1a6.79,6.79,0,0,1,.5,1.66,42,42,0,0,0,6.37,1.69c-.22-.41-.62-1-.73-1.18a8.5,8.5,0,0,1-1.4-3.31,2.78,2.78,0,0,1,.06-1.42c.14-.48.62-.93.37-1.63-.42-1.18-1.89-1-2.41-2.42s.2-2.46.13-3.72c-.09-1.61-1.66-1.91-1.18-3.62a2.78,2.78,0,0,0,1.5-3.55c-.61-1.46-2.09-1.82-2.6-3.43a11.1,11.1,0,0,1-.34-2.84c-.1-2,.07-3.95,0-6a4.83,4.83,0,0,0-.49-2.41c-.6-1.06-1.75-1.53-2.19-2.68-1-2.75,1.71-3.86,3-5.11.52-.51,1.41-1.07,1.28-2-.09-.69-.83-1.29-1.42-1.86l-5.34.07c-.54,1.13-2.25,1.8-2.91,2.87-1.16,1.85,1.08,2.71,1.65,4.21C185.67,20.59,185.15,21.55,184.57,23.49Z"/><path class="cls-21" d="M206.4,49.06c0,.76,1.74,2.38,2.09,3.36s-.14,2.25-.31,3.33a6.4,6.4,0,0,1-1.13,3c-.13.2-.27.41-.41.65a44.05,44.05,0,0,0,7.72-.39A4.65,4.65,0,0,1,215,57.3c.31-.52.64-.57.48-1.2s-.76-1-1-1.53a3.52,3.52,0,0,1,.47-3.59c-2.23-.14-.67-3.4.22-4.67-1.19-.22-1.7-2.35-1.75-3.53-.07-1.63-.31-2.79,1.27-3.36.26-1-1.13-2.2-1.53-3a9.36,9.36,0,0,1-.58-4.34c0-1.49.11-3.09,0-4.6-.12-1.29-1.63-3.16-1.44-4.38.12-.83.94-.94,1.51-1,.82-.13,1.1,0,1.77-.67,1.24-1.16,0-1.82-.46-3.38a6.92,6.92,0,0,1,.34-4.81c.37-.77,1-1.1.46-2a1.82,1.82,0,0,0-.29-.36l-7.7.1A9.35,9.35,0,0,1,208,15.93a3.56,3.56,0,0,1-1.16,2.23c-.45.46,1,2,.69,3.35a9.15,9.15,0,0,0-.09,4.09c.38,1.24-1,3-1.11,4.28-.09,1,1.44,4.15,1.62,4.67.32.87-.54,1.35-.2,2.28.63,1.71,1.54,3,.6,4.9-.43.86-1.39,1.31-1.77,2.1a5.94,5.94,0,0,0-.26,2.49C206.34,47.24,206.37,48.16,206.4,49.06Z"/><path class="cls-21" d="M224.5,43.81a5.63,5.63,0,0,0-.27,2.08c.11.86.77.8,1.33,1.2s.36.67.16,1.45a14.61,14.61,0,0,0-.55,3.76,10.14,10.14,0,0,0,0,1.66c.15.52.66.5,1,.68a.69.69,0,0,1,.28,1.06,2,2,0,0,1-.22.31,41.24,41.24,0,0,0,4.79-2.13l.13-.19a2,2,0,0,0,.25-.94,5.14,5.14,0,0,0-.07-1.62,9.75,9.75,0,0,1-.54-1.86,8.2,8.2,0,0,1,.46-2.33,12.42,12.42,0,0,1,.5-2.68c.36-.83,1.32-1.81,1.5-2.62s-.76-1-.76-1.82a5.33,5.33,0,0,1,.6-2.37c.46-.8,1.27-1.52,1.79-2.32a1.22,1.22,0,0,0,.29-.87c-.94-.49-2-.65-2.68-1.79a7.76,7.76,0,0,1-.38-4.65c.31-1.28,1.33-2.31,1.51-3.66a10,10,0,0,0-.48-3.91,30.32,30.32,0,0,0-1-3.94c-.18-.48-.44-.95-.64-1.46-.36-.9-.22-.75.34-1.41s1.76-1.85,1.91-2.79l-5.48.07c0,1.07-.72,1.83-1.41,2.72-.83,1.07-.51,1.58-.11,2.74a4.58,4.58,0,0,1,.12,3.14c-.15.44-.66,1.05-.69,1.49,0,.61.23.7.63,1.13.82.89.64,1.95.62,3.17a28.52,28.52,0,0,1-.49,3.53c-1.4,0-.64,1.56-.45,2.21a7.32,7.32,0,0,1,.31,2.66c-.06,1.24-.05,4.52-1.91,5-.07.66.36,1.15.48,1.73a4.61,4.61,0,0,1,0,2A18.14,18.14,0,0,1,224.5,43.81Z"/><path class="cls-21" d="M246.77,20.39c-.15.69-.73,1.33-.91,2.06-.23.91.12,1.39.11,2.26,0,1.29-.21,1.23.62,1.59s0,1.33-.45,2.2a14.56,14.56,0,0,0-1.2,2.84,3,3,0,0,0,.19,2,4.69,4.69,0,0,1,.22,1.89,3.57,3.57,0,0,1-.19,1.92,3.7,3.7,0,0,1-1.79,1.91,2.25,2.25,0,0,0-.22,1.64,3.71,3.71,0,0,1-.79,1.83c-.42.67-.81,1.32-1.18,2-.52.87-.2.74-.45,1.3a20.91,20.91,0,0,1-1.36,2,9.86,9.86,0,0,0-1,1.43.19.19,0,0,0,0,.07,39.54,39.54,0,0,0,3.22-2.69,10.19,10.19,0,0,1,1.62-2,14.27,14.27,0,0,0,1.87-2.05A22,22,0,0,1,247.48,40c1.12-1.21.56-1.17.89-1.9a22.61,22.61,0,0,1,2.14-3.07c-1.13.6-.65-.88,0-2.1s1.46-2.14,1.56-3.35a2.6,2.6,0,0,0,0-.89c-.1-.19-.4,0-.58-.13-.44-.21-.36-.85-.2-1.57a13,13,0,0,1,.55-2.14,7.44,7.44,0,0,1,.75-1.68,2.36,2.36,0,0,1-.39-2.51c.32-.63,1.27-.86,1.76-1.16.48-1.23-1.65-3.05-1.86-4.15-.25-1.31,2.24-1,1.13-2.53a4.48,4.48,0,0,1-.94-1.49,1.49,1.49,0,0,0-.59-.9l0,0-3.56,0a2.85,2.85,0,0,1-.09,1c-.4,1.3-1.43,2.33-1.23,4a2.34,2.34,0,0,1-.17,1.67,7,7,0,0,0-.85,1.77C246.22,19.19,247,19.5,246.77,20.39Z"/><ellipse class="cls-22" cx="207.94" cy="11.01" rx="47.21" ry="10.01" transform="translate(-0.14 2.96) rotate(-0.82)"/><path class="cls-13" d="M252.53,9.51c.07,4.7-19.84,9.15-44.48,9.5s-44.66-3.53-44.73-8.23S183.17,2,207.81,1.64,252.47,4.81,252.53,9.51Z"/><path class="cls-14" d="M244.48,9.66c.06,3.85-16.26,7.49-36.45,7.78s-36.6-2.89-36.66-6.74,16.27-7.2,36.46-7.49S244.43,5.81,244.48,9.66Z"/><path class="cls-15" d="M231.83,9.89c0,2.52-10.63,4.9-23.84,5.09s-23.93-1.89-24-4.41,10.64-4.71,23.84-4.9S231.8,7.37,231.83,9.89Z"/><path class="cls-23" d="M237.2,10.4a18.56,18.56,0,0,0-2.78.2,3.35,3.35,0,0,0,.92.18c.5.07,1.09.13,1.43.15a3.42,3.42,0,0,0,1.63-.23C238.51,10.54,237.89,10.41,237.2,10.4Z"/><path class="cls-24" d="M237,10.46a12.85,12.85,0,0,0-2.14.16,3.08,3.08,0,0,0,.72.13c.39.06.84.11,1.1.12a6.8,6.8,0,0,0,.8,0,.78.78,0,0,0,.44-.14C238.05,10.57,237.58,10.47,237,10.46Z"/><g class="cls-25"><path class="cls-26" d="M235.1,10.58h0l.09,0h.31s-.05,0-.1,0h-.27Z"/></g><g class="cls-25"><path class="cls-26" d="M235.9,10.53h-.24c-.1,0,.05,0,.14,0l.74,0h.15s0,0-.06,0l-.39,0Z"/></g><path class="cls-23" d="M233.27,12.84a20.09,20.09,0,0,0-2.86,0c-.09,0,.18.14.5.25a6.76,6.76,0,0,0,1,.25,5.42,5.42,0,0,0,1.88-.08C234.18,13.08,233.88,12.9,233.27,12.84Z"/><path class="cls-24" d="M233,12.88a15,15,0,0,0-2.21,0c-.07,0,.13.1.39.19a5.18,5.18,0,0,0,.78.19,4.14,4.14,0,0,0,1.44-.06C233.71,13.07,233.48,12.93,233,12.88Z"/><g class="cls-25"><path class="cls-26" d="M231.07,12.83s0,0,0,0h.4s-.08,0-.13,0h-.26Z"/></g><g class="cls-25"><path class="cls-26" d="M231.86,12.86l-.22,0c-.08,0,.09,0,.18,0l.74,0,.12,0s0,0-.1,0h-.72Z"/></g><path class="cls-23" d="M225.29,14.83a14.37,14.37,0,0,0-2.51-.26c-.12,0-.09.15,0,.27a1,1,0,0,0,.45.32,5,5,0,0,0,1.86.08C225.68,15.14,225.72,14.94,225.29,14.83Z"/><path class="cls-24" d="M225,14.86a9.59,9.59,0,0,0-1.93-.2c-.19,0,.06.36.35.45a4,4,0,0,0,1.42.06C225.27,15.09,225.31,14.94,225,14.86Z"/><g class="cls-25"><path class="cls-26" d="M223.32,14.65s0,0,0,0h.11l.13,0,.11,0s-.1,0-.15,0l-.15,0Z"/></g><g class="cls-25"><path class="cls-26" d="M224,14.74l-.16,0s.11,0,.19,0l.63.08s.07,0,.07,0-.06,0-.12,0l-.33,0Z"/></g><path class="cls-23" d="M214.49,16.08a5.27,5.27,0,0,0-1.78-.45c-.3,0-.79.45-.68.6a2.77,2.77,0,0,0,1.54.22C214.28,16.4,214.67,16.22,214.49,16.08Z"/><path class="cls-24" d="M214.16,16.08a3.92,3.92,0,0,0-1.36-.35c-.24,0-.62.35-.53.46a2.12,2.12,0,0,0,1.18.17C214,16.33,214.3,16.19,214.16,16.08Z"/><g class="cls-25"><path class="cls-26" d="M213,15.75h.13l.09,0s.08,0,.05,0a.29.29,0,0,1-.13,0l-.1,0Z"/></g><g class="cls-25"><path class="cls-26" d="M213.48,15.89s-.09,0-.09-.05.12,0,.18,0l.1,0,.2.07.12,0s0,0,0,0a.48.48,0,0,1-.12,0l-.22-.07-.12,0Z"/></g><path class="cls-23" d="M202.5,16.4c.07-.15-.39-.57-.79-.58a4.64,4.64,0,0,0-.9.21,3.63,3.63,0,0,0-.8.31c-.15.14.26.32,1,.33A2.76,2.76,0,0,0,202.5,16.4Z"/><path class="cls-24" d="M202.21,16.37c.07-.12-.28-.44-.6-.45a3.75,3.75,0,0,0-.7.16,2.46,2.46,0,0,0-.61.25c-.06.05,0,.11.13.16a2,2,0,0,0,.63.08A2,2,0,0,0,202.21,16.37Z"/><g class="cls-25"><path class="cls-26" d="M201.79,16h.05l.07,0,0,0s0,0,0,0a.14.14,0,0,1-.1,0s0,0,0,0S201.79,16,201.79,16Z"/></g><g class="cls-25"><path class="cls-26" d="M201.94,16.13s0,0,0-.05a.17.17,0,0,1,.14,0l0,0,.07.08s0,0,0,0,0,0-.05,0a.16.16,0,0,1-.1,0,.13.13,0,0,1-.07-.08l0-.05Z"/></g><path class="cls-23" d="M191.14,15.73c.34-.14.69-.57.35-.61a8.88,8.88,0,0,0-1.19.12,11.67,11.67,0,0,0-1.28.23c-.4.12-.36.32.28.39A5.16,5.16,0,0,0,191.14,15.73Z"/><path class="cls-24" d="M190.94,15.67c.27-.1.54-.43.27-.46a5.48,5.48,0,0,0-.93.09,9,9,0,0,0-1,.18c-.31.1-.26.25.22.3A3.86,3.86,0,0,0,190.94,15.67Z"/><g class="cls-25"><path class="cls-26" d="M191.3,15.26h.06s0,0,0,0a0,0,0,0,1,0,0,.1.1,0,0,1-.08,0c-.06,0-.06,0-.06,0s0,0,0,0Z"/></g><g class="cls-25"><path class="cls-26" d="M191.13,15.43a.19.19,0,0,1,.1,0c.07,0,.07,0,.07,0l0,0-.08.08a.12.12,0,0,1-.05.05.22.22,0,0,1-.1,0s-.07,0-.07,0a.59.59,0,0,1,.08-.08l0-.05Z"/></g><path class="cls-23" d="M182.16,14.17c.55-.1,1.65-.48,1.4-.55a11.66,11.66,0,0,0-1.27,0c-.61,0-1.28.07-1.57.12-.59.08-.91.28-.47.4A5.8,5.8,0,0,0,182.16,14.17Z"/><path class="cls-24" d="M182.07,14.11c.42-.08,1.28-.38,1.08-.42a16.63,16.63,0,0,0-2.2.1c-.44.06-.7.21-.35.3A4.48,4.48,0,0,0,182.07,14.11Z"/><g class="cls-25"><path class="cls-26" d="M183.14,13.74h.06s0,0,0,0l-.06,0-.14,0c-.06,0,0,0,0,0l.1,0Z"/></g><g class="cls-25"><path class="cls-26" d="M182.69,13.89l.17,0c.09,0,0,0,0,0l-.08,0-.22.07-.12,0-.14,0c-.06,0,0,0,0,0l.22-.07.14,0Z"/></g><path class="cls-23" d="M176.91,12a9.32,9.32,0,0,0,2.25-.4,22.22,22.22,0,0,0-2.79-.11c-.68,0-1.33.2-1.15.34A3.74,3.74,0,0,0,176.91,12Z"/><path class="cls-24" d="M176.94,11.9a6.79,6.79,0,0,0,1.74-.31,19.62,19.62,0,0,0-2.16-.08c-.52,0-1,.15-.88.26A2.8,2.8,0,0,0,176.94,11.9Z"/><g class="cls-25"><path class="cls-26" d="M178.57,11.65h0a.08.08,0,0,1-.05,0l-.11,0h-.17c-.05,0,0,0,.06,0l.15,0Z"/></g><g class="cls-25"><path class="cls-26" d="M177.89,11.75l.23,0c.1,0,0,0-.08,0l-.63.09h-.16c-.05,0,0,0,0,0l.33-.05Z"/></g><path class="cls-23" d="M176.2,9.46a17.15,17.15,0,0,0,2.77-.2,3.72,3.72,0,0,0-.92-.18C177.56,9,177,9,176.63,8.94a3.18,3.18,0,0,0-1.63.23C174.89,9.32,175.5,9.46,176.2,9.46Z"/><path class="cls-24" d="M176.36,9.4a13.18,13.18,0,0,0,2.14-.15,2.44,2.44,0,0,0-.72-.14c-.4,0-.84-.1-1.11-.11a5.3,5.3,0,0,0-.8,0,.81.81,0,0,0-.44.14C175.35,9.29,175.82,9.39,176.36,9.4Z"/><g class="cls-25"><path class="cls-26" d="M178.29,9.29s0,0,0,0h-.39s0,0,.1,0h.26Z"/></g><g class="cls-25"><path class="cls-26" d="M177.5,9.33h.24c.09,0-.06,0-.14,0l-.75,0h-.14s0,0,.06,0l.39,0Z"/></g><path class="cls-23" d="M180.12,7a21.62,21.62,0,0,0,2.87,0c.09,0-.19-.14-.5-.24a6,6,0,0,0-1-.26,5.23,5.23,0,0,0-1.89.09C179.21,6.79,179.52,7,180.12,7Z"/><path class="cls-24" d="M180.38,7a15.23,15.23,0,0,0,2.21,0c.06,0-.13-.11-.39-.19a5.38,5.38,0,0,0-.79-.2,4.14,4.14,0,0,0-1.44.07C179.68,6.8,179.92,6.93,180.38,7Z"/><g class="cls-25"><path class="cls-26" d="M182.33,7s0,0,0,0h-.25l-.15,0s.08,0,.13,0h.26Z"/></g><g class="cls-25"><path class="cls-26" d="M181.54,7h.22c.07,0-.09,0-.18,0l-.75,0-.11,0s0,0,.09,0h.39Z"/></g><path class="cls-23" d="M188.1,5a13.57,13.57,0,0,0,2.52.26c.12,0,.09-.14,0-.27a.94.94,0,0,0-.44-.32,5.07,5.07,0,0,0-1.86-.07C187.72,4.73,187.67,4.92,188.1,5Z"/><path class="cls-24" d="M188.42,5a10.29,10.29,0,0,0,1.93.2c.18,0-.06-.37-.35-.46a3.9,3.9,0,0,0-1.43,0C188.13,4.77,188.09,4.92,188.42,5Z"/><g class="cls-25"><path class="cls-26" d="M190.08,5.21s0,0,0,0h-.23c-.05,0-.12,0-.11,0h.14l.16,0Z"/></g><g class="cls-25"><path class="cls-26" d="M189.41,5.12a.71.71,0,0,1,.17,0s-.11,0-.2,0l-.62-.08-.07,0h.11l.33,0Z"/></g><path class="cls-23" d="M198.91,3.78a5.27,5.27,0,0,0,1.78.45c.29,0,.78-.45.68-.59a2.74,2.74,0,0,0-1.54-.23C199.12,3.46,198.72,3.64,198.91,3.78Z"/><path class="cls-24" d="M199.23,3.78a3.77,3.77,0,0,0,1.37.35c.23,0,.61-.35.52-.46a2.12,2.12,0,0,0-1.18-.17C199.4,3.54,199.1,3.68,199.23,3.78Z"/><g class="cls-25"><path class="cls-26" d="M200.35,4.11s0,0,0,0h-.09l-.09,0s-.08,0,0,0a.3.3,0,0,1,.13,0l.1,0S200.35,4.1,200.35,4.11Z"/></g><g class="cls-25"><path class="cls-26" d="M199.91,4,200,4s-.12,0-.18,0l-.09,0-.21-.06-.11,0s0,0,0,0a.2.2,0,0,1,.11,0l.22.06.13,0Z"/></g><path class="cls-23" d="M210.9,3.47c-.08.15.38.56.79.57a3.83,3.83,0,0,0,.9-.2,3.29,3.29,0,0,0,.79-.31c.16-.15-.25-.32-1-.33A2.67,2.67,0,0,0,210.9,3.47Z"/><path class="cls-24" d="M211.19,3.5c-.07.11.28.43.6.44a3.2,3.2,0,0,0,.7-.16,2.57,2.57,0,0,0,.61-.24c.05-.06,0-.12-.13-.17a3,3,0,0,0-1.78.13Z"/><g class="cls-25"><path class="cls-26" d="M211.6,3.9h0l-.06,0,0,0s0,0,0,0l.11,0,0,0A0,0,0,0,1,211.6,3.9Z"/></g><g class="cls-25"><path class="cls-26" d="M211.45,3.74s0,0,0,0-.1,0-.13,0l0,0-.07-.07,0,0s0,0,.05,0a.16.16,0,0,1,.1,0,.29.29,0,0,1,.08.08l0,0Z"/></g><path class="cls-23" d="M222.25,4.14c-.34.13-.69.57-.34.61a9.24,9.24,0,0,0,1.18-.13,9.55,9.55,0,0,0,1.29-.23c.4-.12.36-.32-.29-.39A4.93,4.93,0,0,0,222.25,4.14Z"/><path class="cls-24" d="M222.46,4.19c-.27.1-.54.44-.27.47a7.22,7.22,0,0,0,.92-.1,9.35,9.35,0,0,0,1-.18c.31-.09.26-.24-.23-.3A4,4,0,0,0,222.46,4.19Z"/><g class="cls-25"><path class="cls-26" d="M222.1,4.6H222s0,0,0,0,0,0,0,0,0,0,.08,0,.06,0,.06,0,0,0,0,0Z"/></g><g class="cls-25"><path class="cls-26" d="M222.26,4.44a.19.19,0,0,1-.09,0c-.07,0-.07,0-.07,0l0,0,.08-.08s0,0,0,0l.11,0s.07,0,.06,0,0,.06-.07.08l0,0Z"/></g><path class="cls-23" d="M231.24,5.69c-.55.1-1.65.49-1.4.55a9.28,9.28,0,0,0,1.26,0c.61,0,1.28-.07,1.58-.11.58-.09.91-.28.47-.4A5.53,5.53,0,0,0,231.24,5.69Z"/><path class="cls-24" d="M231.33,5.76c-.43.07-1.28.37-1.08.42a16.74,16.74,0,0,0,2.19-.11c.45-.06.7-.21.36-.3A4.24,4.24,0,0,0,231.33,5.76Z"/><g class="cls-25"><path class="cls-26" d="M230.26,6.12h-.06s0,0,0,0l.06,0a.42.42,0,0,1,.14,0c.06,0,0,0,0,0l-.11,0Z"/></g><g class="cls-25"><path class="cls-26" d="M230.71,6a.43.43,0,0,1-.17,0c-.09,0,0,0,0,0l.09,0,.21-.07.13,0h.14s0,0,0,0a1,1,0,0,1-.21.07l-.14,0Z"/></g><path class="cls-23" d="M236.49,7.89a9.28,9.28,0,0,0-2.26.41,22.83,22.83,0,0,0,2.8.1c.68,0,1.32-.19,1.15-.34A3.76,3.76,0,0,0,236.49,7.89Z"/><path class="cls-24" d="M236.45,8a7.59,7.59,0,0,0-1.73.31,15.51,15.51,0,0,0,2.15.08c.52,0,1-.15.89-.26A3,3,0,0,0,236.45,8Z"/><g class="cls-25"><path class="cls-26" d="M234.83,8.22h-.05l.06,0,.11,0a.42.42,0,0,1,.16,0c.06,0,0,0-.05,0l-.16,0Z"/></g><g class="cls-25"><path class="cls-26" d="M235.5,8.11l-.22,0c-.1,0,0,0,.08,0L236,8h.15c.06,0,0,0,0,0l-.33.05Z"/></g><path class="cls-23" d="M229.27,10.28a13.31,13.31,0,0,0-2.06.15,3,3,0,0,0,.69.13c.36,0,.8.1,1,.11a2.51,2.51,0,0,0,1.21-.17C230.24,10.38,229.78,10.28,229.27,10.28Z"/><path class="cls-24" d="M229.15,10.32a10.56,10.56,0,0,0-1.58.12,2,2,0,0,0,.53.1,7.24,7.24,0,0,0,.82.08,3.84,3.84,0,0,0,.59,0c.17,0,.29-.06.32-.11S229.55,10.33,229.15,10.32Z"/><g class="cls-25"><path class="cls-26" d="M227.72,10.41s0,0,0,0H228s0,0-.07,0h-.2Z"/></g><g class="cls-25"><path class="cls-26" d="M228.3,10.38h-.17c-.07,0,0,0,.1,0l.55,0h.11s0,0,0,0l-.29,0h-.26Z"/></g><path class="cls-23" d="M226.36,12.08a13.84,13.84,0,0,0-2.12,0c-.06,0,.14.1.37.18a4.85,4.85,0,0,0,.75.19,4.19,4.19,0,0,0,1.4-.07C227,12.26,226.81,12.13,226.36,12.08Z"/><path class="cls-24" d="M226.17,12.12a10.06,10.06,0,0,0-1.63,0s.1.07.29.14a3.47,3.47,0,0,0,.58.14,3.05,3.05,0,0,0,1.07-.05C226.69,12.25,226.52,12.15,226.17,12.12Z"/><g class="cls-25"><path class="cls-26" d="M224.73,12.08s0,0,0,0h.3s-.06,0-.1,0h-.19Z"/></g><g class="cls-25"><path class="cls-26" d="M225.32,12.1h-.17c-.05,0,.07,0,.14,0l.55,0h.08s0,0-.07,0h-.53Z"/></g><path class="cls-23" d="M220.46,13.56a9.62,9.62,0,0,0-1.86-.19c-.09,0-.07.1,0,.19a.63.63,0,0,0,.33.24,3.81,3.81,0,0,0,1.38.06C220.74,13.78,220.78,13.64,220.46,13.56Z"/><path class="cls-24" d="M220.23,13.58a6.69,6.69,0,0,0-1.43-.15c-.14,0,0,.27.26.34a3.21,3.21,0,0,0,1.05,0C220.44,13.75,220.47,13.64,220.23,13.58Z"/><g class="cls-25"><path class="cls-26" d="M219,13.43s0,0,0,0h.17s.09,0,.08,0-.07,0-.1,0l-.12,0Z"/></g><g class="cls-25"><path class="cls-26" d="M219.49,13.49s-.1,0-.12,0,.08,0,.14,0l.46.06.06,0h-.09l-.24,0Z"/></g><path class="cls-23" d="M212.46,14.48a4,4,0,0,0-1.31-.33c-.22,0-.59.33-.51.44a2,2,0,0,0,1.14.17C212.31,14.72,212.6,14.59,212.46,14.48Z"/><path class="cls-24" d="M212.22,14.48a2.82,2.82,0,0,0-1-.25c-.17,0-.45.25-.39.34a1.63,1.63,0,0,0,.88.12C212.1,14.66,212.32,14.56,212.22,14.48Z"/><g class="cls-25"><path class="cls-26" d="M211.39,14.24h.1l.06,0s.06,0,0,0h-.1l-.07,0Z"/></g><g class="cls-25"><path class="cls-26" d="M211.72,14.34l-.07,0s.09,0,.14,0l.22.06.08,0s0,0,0,0H212l-.16,0-.09,0Z"/></g><path class="cls-23" d="M203.59,14.72c.06-.11-.29-.42-.58-.43a3.37,3.37,0,0,0-.67.15,2.61,2.61,0,0,0-.59.23c-.11.11.19.24.73.25A2.17,2.17,0,0,0,203.59,14.72Z"/><path class="cls-24" d="M203.38,14.69c.05-.08-.21-.32-.45-.32a2.23,2.23,0,0,0-.52.12,1.75,1.75,0,0,0-.45.17s0,.09.1.13a2.16,2.16,0,0,0,.47.06A1.47,1.47,0,0,0,203.38,14.69Z"/><g class="cls-25"><path class="cls-26" d="M203.07,14.4h.08l0,0s0,0,0,0-.06,0-.07,0l0,0S203.06,14.4,203.07,14.4Z"/></g><g class="cls-25"><path class="cls-26" d="M203.18,14.52s0,0,0,0,.08,0,.1,0l0,0,.05.05,0,0s0,0,0,0a.08.08,0,0,1-.07,0,.11.11,0,0,1-.06-.06l0,0Z"/></g><path class="cls-23" d="M195.19,14.22c.25-.1.51-.42.25-.45a8.11,8.11,0,0,0-.88.09,7.43,7.43,0,0,0-.95.17c-.29.09-.26.24.21.29A3.8,3.8,0,0,0,195.19,14.22Z"/><path class="cls-24" d="M195,14.18c.19-.07.4-.32.19-.34a4,4,0,0,0-.68.07,5.63,5.63,0,0,0-.73.13c-.23.07-.19.18.17.22A2.84,2.84,0,0,0,195,14.18Z"/><g class="cls-25"><path class="cls-26" d="M195.3,13.87h0l0,0v0s0,0-.07,0,0,0,0,0l0,0Z"/></g><g class="cls-25"><path class="cls-26" d="M195.18,14a.14.14,0,0,1,.07,0c.05,0,.05,0,.05,0l0,0-.06.06,0,0-.08,0s-.05,0-.05,0,0,0,.06-.06l0,0Z"/></g><path class="cls-23" d="M188.54,13.07c.41-.07,1.22-.36,1-.41s-.5,0-.94,0-.95.05-1.17.08c-.43.07-.67.21-.35.3A4.49,4.49,0,0,0,188.54,13.07Z"/><path class="cls-24" d="M188.47,13c.32,0,.95-.28.8-.31a12.58,12.58,0,0,0-1.62.08c-.33,0-.52.16-.27.22A3,3,0,0,0,188.47,13Z"/><g class="cls-25"><path class="cls-26" d="M189.26,12.75h.05s0,0,0,0l0,0-.1,0c-.05,0,0,0,0,0l.08,0Z"/></g><g class="cls-25"><path class="cls-26" d="M188.93,12.86l.12,0c.08,0,0,0,0,0l-.06,0-.25.08h-.1s0,0,0,0a.5.5,0,0,1,.16-.05Z"/></g><path class="cls-23" d="M184.65,11.44a6.84,6.84,0,0,0,1.67-.3,17.92,17.92,0,0,0-2.07-.08c-.5,0-1,.15-.85.26A2.78,2.78,0,0,0,184.65,11.44Z"/><path class="cls-24" d="M184.68,11.39a5.57,5.57,0,0,0,1.29-.23,13.4,13.4,0,0,0-1.6-.06c-.39,0-.76.11-.65.19A2,2,0,0,0,184.68,11.39Z"/><g class="cls-25"><path class="cls-26" d="M185.88,11.2h0l-.08,0h-.12s0,0,0,0l.12,0Z"/></g><g class="cls-25"><path class="cls-26" d="M185.38,11.28l.17,0c.07,0,0,0-.06,0l-.47.07h-.11s0,0,0,0l.24,0,.15,0Z"/></g><path class="cls-23" d="M184.13,9.59a14.55,14.55,0,0,0,2.05-.15,2.7,2.7,0,0,0-.68-.14c-.37-.05-.8-.1-1.05-.11a2.45,2.45,0,0,0-1.21.18C183.16,9.48,183.61,9.58,184.13,9.59Z"/><path class="cls-24" d="M184.24,9.54a8.52,8.52,0,0,0,1.59-.12,2.1,2.1,0,0,0-.53-.1,7.24,7.24,0,0,0-.82-.08,2.85,2.85,0,0,0-.59,0,.62.62,0,0,0-.33.1C183.5,9.46,183.85,9.53,184.24,9.54Z"/><g class="cls-25"><path class="cls-26" d="M185.68,9.46h-.27s0,0,.07,0h.14S185.66,9.45,185.68,9.46Z"/></g><g class="cls-25"><path class="cls-26" d="M185.09,9.49h.18c.07,0,0,0-.11,0l-.55,0h-.11s0,0,.05,0h.54Z"/></g><path class="cls-23" d="M187,7.78a15.5,15.5,0,0,0,2.12,0c.07,0-.13-.1-.37-.18a4.48,4.48,0,0,0-.74-.19,3.94,3.94,0,0,0-1.4.06C186.36,7.61,186.58,7.73,187,7.78Z"/><path class="cls-24" d="M187.22,7.75a11.49,11.49,0,0,0,1.64,0s-.1-.08-.29-.14a3.83,3.83,0,0,0-.58-.15,3,3,0,0,0-1.07,0C186.71,7.61,186.88,7.71,187.22,7.75Z"/><g class="cls-25"><path class="cls-26" d="M188.66,7.78s0,0,0,0h-.29s.05,0,.09,0h.19Z"/></g><g class="cls-25"><path class="cls-26" d="M188.08,7.77h.16c.06,0-.07,0-.13,0l-.55,0h-.09s0,0,.07,0h.54Z"/></g><path class="cls-23" d="M192.94,6.3a9.67,9.67,0,0,0,1.86.2c.09,0,.06-.11,0-.2a.69.69,0,0,0-.33-.24,3.63,3.63,0,0,0-1.38,0C192.65,6.08,192.62,6.22,192.94,6.3Z"/><path class="cls-24" d="M193.17,6.29a8.18,8.18,0,0,0,1.43.15c.14,0,0-.27-.26-.34a2.75,2.75,0,0,0-1.05,0C193,6.11,192.93,6.23,193.17,6.29Z"/><g class="cls-25"><path class="cls-26" d="M194.4,6.44h-.18l-.09,0h.11l.11,0Z"/></g><g class="cls-25"><path class="cls-26" d="M193.91,6.37l.12,0h-.14l-.47-.06,0,0s0,0,.09,0l.24,0Z"/></g><path class="cls-23" d="M200.93,5.38a4.05,4.05,0,0,0,1.32.33c.22,0,.58-.33.51-.44a2.09,2.09,0,0,0-1.14-.16C201.09,5.14,200.8,5.28,200.93,5.38Z"/><path class="cls-24" d="M201.17,5.38a2.93,2.93,0,0,0,1,.26c.17,0,.45-.26.38-.34a1.63,1.63,0,0,0-.87-.13C201.3,5.2,201.07,5.3,201.17,5.38Z"/><g class="cls-25"><path class="cls-26" d="M202,5.62h-.16s-.06,0,0,0a.14.14,0,0,1,.09,0l.08,0Z"/></g><g class="cls-25"><path class="cls-26" d="M201.68,5.52l.06,0s-.08,0-.13,0l-.22-.07-.09,0s0,0,0,0h.08a.69.69,0,0,1,.17.05l.09,0Z"/></g><path class="cls-23" d="M209.81,5.15c-.06.11.28.42.58.42a3.52,3.52,0,0,0,.67-.15,2.84,2.84,0,0,0,.59-.23c.11-.11-.19-.23-.74-.24A1.93,1.93,0,0,0,209.81,5.15Z"/><path class="cls-24" d="M210,5.17c-.05.08.21.32.44.33a2.74,2.74,0,0,0,.52-.12,2.08,2.08,0,0,0,.45-.18s0-.09-.09-.12a1.41,1.41,0,0,0-.47-.06A1.53,1.53,0,0,0,210,5.17Z"/><g class="cls-25"><path class="cls-26" d="M210.33,5.47h-.09l0,0s0,0,0,0l.08,0,0,0Z"/></g><g class="cls-25"><path class="cls-26" d="M210.22,5.35s0,0,0,0a.09.09,0,0,1-.1,0l0,0L210,5.28l0,0s0,0,0,0a.16.16,0,0,1,.07,0l.06.06,0,0Z"/></g><path class="cls-23" d="M218.21,5.64c-.25.1-.51.42-.25.45a4.81,4.81,0,0,0,.87-.09,7.1,7.1,0,0,0,.95-.17c.3-.09.27-.23-.21-.29A4,4,0,0,0,218.21,5.64Z"/><path class="cls-24" d="M218.36,5.68c-.2.08-.4.33-.2.35a5.66,5.66,0,0,0,.69-.07c.29,0,.61-.1.72-.13s.2-.19-.16-.22A3.1,3.1,0,0,0,218.36,5.68Z"/><g class="cls-25"><path class="cls-26" d="M218.09,6h0s0,0,0,0V6s0,0,.06,0,.05,0,.05,0l0,0Z"/></g><g class="cls-25"><path class="cls-26" d="M218.22,5.87l-.07,0c-.06,0-.06,0-.05,0v0l.06-.06,0,0h.07s.06,0,.06,0,0,0-.06.06l0,0Z"/></g><path class="cls-23" d="M224.86,6.8c-.41.07-1.22.35-1,.4a7.46,7.46,0,0,0,.94,0c.45,0,1-.06,1.17-.09.43-.06.67-.21.34-.29A3.91,3.91,0,0,0,224.86,6.8Z"/><path class="cls-24" d="M224.93,6.84c-.32.06-1,.28-.81.31a12.4,12.4,0,0,0,1.63-.07c.33,0,.52-.16.26-.23A3.53,3.53,0,0,0,224.93,6.84Z"/><g class="cls-25"><path class="cls-26" d="M224.13,7.11h0s0,0,0,0l.05,0,.1,0c.05,0,0,0,0,0l-.08,0Z"/></g><g class="cls-25"><path class="cls-26" d="M224.47,7a.42.42,0,0,1-.13,0c-.07,0,0,0,0,0l.23-.07.09,0h.1s0,0,0,0l-.16.06-.1,0Z"/></g><path class="cls-23" d="M228.74,8.42a7.51,7.51,0,0,0-1.67.3,16.06,16.06,0,0,0,2.07.08c.5,0,1-.15.85-.25A2.72,2.72,0,0,0,228.74,8.42Z"/><path class="cls-24" d="M228.72,8.47a6.05,6.05,0,0,0-1.29.23,11.4,11.4,0,0,0,1.6.06c.38,0,.75-.11.65-.19A2.34,2.34,0,0,0,228.72,8.47Z"/><g class="cls-25"><path class="cls-26" d="M227.52,8.66h0l0,0h.08a.25.25,0,0,1,.12,0c.05,0,0,0,0,0l-.12,0Z"/></g><g class="cls-25"><path class="cls-26" d="M228,8.59h-.16c-.08,0,0,0,.06,0l.46-.08h.12s0,0,0,0l-.24,0-.14,0Z"/></g></g></g></svg>