<svg xmlns="http://www.w3.org/2000/svg" viewBox="0 0 150 48"><defs><style>.cls-1{isolation:isolate;}.cls-2{opacity:0.2;}.cls-11,.cls-2{mix-blend-mode:multiply;}.cls-3{fill:#e52315;}.cls-4{fill:#ce2017;}.cls-5{fill:#ff7954;}.cls-6{fill:#de401d;}.cls-7{fill:#ffa276;}.cls-8{opacity:0.7;}.cls-9{fill:#ffd073;}.cls-10{fill:#ffccad;}.cls-11{fill:#ddb3b3;}.cls-12{fill:#e5311f;}.cls-13{fill:#ff593e;}.cls-14{fill:#d9ed5d;opacity:0.54;}</style></defs><g class="cls-1"><g id="Layer_1" data-name="Layer 1"><path class="cls-2" d="M1.22,40a2.84,2.84,0,0,0-.76,2.64A4.49,4.49,0,0,0,1.91,44.2a19.78,19.78,0,0,0,8.42,1.91c3.48,0,5.76-1,9.24-1a12.94,12.94,0,0,1,1.87.09,14.65,14.65,0,0,1,1.52.36,23.16,23.16,0,0,0,7.4.65,62.63,62.63,0,0,1,7.22-.63,32.14,32.14,0,0,1,3.68.4,72.24,72.24,0,0,0,14.91.54C62,46.28,62,45.6,66.28,45c.72-.1,1.91.84,3.92,1.13,1.66.24,3-.49,4.21,0a30.14,30.14,0,0,0,7.32,1.48,57.23,57.23,0,0,0,9.46.35c1.45-.07,20.47-1.19,23.81-8.64.52-1.15,1.53-3.41-.18-4.75-4.87-3.81-24.41,5.79-37.45.84a17.18,17.18,0,0,0-5-1.68c-6.67-.89-16.15,1.4-16.45,1.47-6.09,1.47-12.46,1.82-25.2,2.53a197.71,197.71,0,0,1-25.47-.31A8.58,8.58,0,0,0,1.22,40Z"/><path class="cls-3" d="M117.13,33.06l-1.35.12a11.73,11.73,0,0,0-1.87-.87c-7.26-2.72-21.83-2.66-32.56.14-4.94,1.29-8.2,2.94-9.57,4.61l-1.35.12.73,2.31h0c.36,1.09,1.65,2.11,3.92,3,7.25,2.72,21.83,2.66,32.55-.14,7.27-1.9,10.9-4.57,10.22-6.94h0Z"/><path class="cls-4" d="M114.24,39.9c2.78-1.45,4-3,3.61-4.53h0l-.73-2.31-1.35.12a11.73,11.73,0,0,0-1.87-.87c-.67-.25-1.39-.47-2.17-.68h-.1Z"/><ellipse class="cls-5" cx="93.82" cy="35.25" rx="23.49" ry="6.91" transform="translate(-2.15 6.37) rotate(-3.84)"/><path class="cls-6" d="M93.21,30.5a2.25,2.25,0,0,0-1.63-.61,9.41,9.41,0,0,0-1.19.13,78.67,78.67,0,0,0-12.67,3.09c-.44.15-.91.34-.83.51s.35.22.55.26a77.3,77.3,0,0,0,8.17.76c4.67.21,4.81.32,4.79.37s-.16.15-4.34.56c-2.64.25-5.27.55-7.91.8a10.39,10.39,0,0,0-2.84.5c-.42.21-.41.44-.35.66.29.95,1.41,1.84,3.23,2.54a7.14,7.14,0,0,0,3,.49,10.73,10.73,0,0,0,3.2-.8,17.85,17.85,0,0,0,3.12-1.53c1.8-1.1,2.59-1.87,3.33-1.88a.73.73,0,0,1,.3,0c1.51.54-5.5,4.41-3.15,4.9a5.44,5.44,0,0,0,1.16,0,92.5,92.5,0,0,0,10.15-1,11.73,11.73,0,0,0,2-.44c1-.38,1-.89.43-1.27a7.94,7.94,0,0,0-1.82-1.08c-3.21-1.36-5.27-1.93-4.48-2.31a1,1,0,0,1,.31-.11c1.54-.26,4.55,1.72,10,2.26a11.64,11.64,0,0,0,3.75-.05,4.64,4.64,0,0,0,1.14-.42c1.72-.84,2.61-1.8,2.49-2.69,0-.24-.2-.5-.87-.6a7.91,7.91,0,0,0-1.62,0c-1.72.15-6.79.49-13.74,1-.66-.1-.75-.18-.72-.24.26-.5,10.55-1.48,14.1-2a5.64,5.64,0,0,0,1.42-.37c.35-.18.33-.39.2-.56-.53-.74-2.52-1.21-4.47-1.62a19.14,19.14,0,0,0-6.74-.41c-3,.58-3.12,2.86-6.19,5.07a1.64,1.64,0,0,1-.7.31C93.12,34.68,94.53,31.85,93.21,30.5Z"/><path class="cls-7" d="M89.12,32.24c0-.14-.06-.31-.48-.34a3.75,3.75,0,0,0-1,.12c-1.31.28-2.56.59-3.73.93-.28.08-.58.18-.56.28s.2.12.38.16c2,.46,4.75.73,5.22,1.5.3.48-.51,1-1.79,1.47a23.94,23.94,0,0,1-4.67.89c-.82.09-1.88.24-1.93.49,0,.09.12.17.26.24l1.51.81c1.66-.55,3.4-1.07,5.2-1.58a8.17,8.17,0,0,1,2.13-.36,3.53,3.53,0,0,1,1.71.37c1.35.71,1.57,1.65.58,2.55a31.76,31.76,0,0,0,4.45-.46,3.13,3.13,0,0,0,.93-.25c.33-.2-.07-.38-.41-.54-1.68-.77-1.72-1.9-.1-2.89a2.14,2.14,0,0,1,.82-.3,5.33,5.33,0,0,1,1.6,0l7.24,1a4.85,4.85,0,0,0,1.36-1.08c.08-.11.15-.22,0-.31a3.5,3.5,0,0,0-1.26-.18l-4.93-.2a9.4,9.4,0,0,1-2.81-.36c-.79-.36,0-.94,1.27-1.31s2.85-.58,4.33-.84c.28,0,.6-.12.62-.21s-.07-.1-.15-.13a15.56,15.56,0,0,0-4-1l-4,2.22a6.76,6.76,0,0,1-4.72.78C90.44,33.43,89.21,32.89,89.12,32.24Z"/><g class="cls-8"><path class="cls-9" d="M77.41,36.73a1.8,1.8,0,0,0-.67.11c-.45.19,0,.33.62.32h.7a3.18,3.18,0,0,1,.7,0s.14,0,.12,0-.14-.21-.37-.29A3.85,3.85,0,0,0,77.41,36.73Z"/><path class="cls-9" d="M76.89,37.74c-.87.19-.44.52.52.39.3,0,.59-.09.89-.13a4.38,4.38,0,0,0,.74-.15c.08,0,.1-.08.06-.1A4.92,4.92,0,0,0,76.89,37.74Z"/><path class="cls-9" d="M79.4,38.5a8.64,8.64,0,0,0-.91.15l-.88.14c-.81.14-.36.48.46.35.3,0,.61-.12.9-.18a5.93,5.93,0,0,0,.9-.22C80.18,38.61,79.88,38.45,79.4,38.5Z"/><path class="cls-9" d="M81.67,39.33a8.24,8.24,0,0,0-1.34.49c-.71.25.51.49,1.19.23.48-.18,1.09-.46.83-.67A1.16,1.16,0,0,0,81.67,39.33Z"/><path class="cls-9" d="M89.4,40.13c-.49.2-.68.43-.75.65s.19.22.62.21.84-.11.86-.23.23-.36.32-.54S89.8,40,89.4,40.13Z"/><path class="cls-9" d="M93,40c-.6.15-.69.42-.66.62s.53.2,1,.14.7-.21.58-.34-.12-.31-.37-.43A1.19,1.19,0,0,0,93,40Z"/><path class="cls-9" d="M96.32,39.7c-.43.08-.62.22-.64.35s.09.23.31.33a2.23,2.23,0,0,0,1.09,0c.38-.1.41-.23.21-.33.07,0,0,0,0,0L97.22,40l0,0,0,0s0,0,0,0,0,0,0,0-.08-.09-.18-.13A1.34,1.34,0,0,0,96.32,39.7Z"/><path class="cls-9" d="M98.2,39.33c-.09.3.44.68,1.36.66.5,0,.88-.21.79-.36s-.5-.2-.79-.27a7,7,0,0,0-.92-.16A.51.51,0,0,0,98.2,39.33Z"/><path class="cls-9" d="M107.16,36.66c-.39,0-.83.16-.64.26a3.41,3.41,0,0,0,.84.24,7.23,7.23,0,0,0,1.15.14c.63,0,1-.25.71-.37a5.15,5.15,0,0,0-1-.18A8.9,8.9,0,0,0,107.16,36.66Z"/><path class="cls-9" d="M110.28,35.88a15.18,15.18,0,0,0-1.9,0c-.46,0-.63.22-.29.29a10.67,10.67,0,0,0,1.71.15,2.2,2.2,0,0,0,1-.12c.15-.06.21-.12.19-.18S110.62,35.89,110.28,35.88Z"/><path class="cls-9" d="M112.11,34.81a10.41,10.41,0,0,0-2.66.33c-.25.08-.21.21.16.2.75,0,1.5-.07,2.25-.09C112.79,35.22,113.06,34.79,112.11,34.81Z"/><path class="cls-9" d="M111.38,33.82c-.33.06-.63.13-.93.2s-.5.14-.75.22-.2.27.29.23.69-.06,1-.12.69-.11,1-.18.4-.22.24-.3A1.84,1.84,0,0,0,111.38,33.82Z"/><path class="cls-9" d="M109.51,31.51a8.21,8.21,0,0,0-2.43.64c-.18.11.14.21.51.18.85-.09,1.66-.28,2.45-.42C111,31.75,110.47,31.36,109.51,31.51Z"/><path class="cls-9" d="M107.49,30.7c-1,.17-1.44.57-1.51.87,0,.15.65.19.88,0s1.1-.42,1.53-.65S108,30.61,107.49,30.7Z"/><path class="cls-9" d="M104.93,30.11a3.81,3.81,0,0,0-1,.34c-.22.12-.33.32.22.32a3.3,3.3,0,0,0,.88-.15l.73-.2c.33-.09.43-.23.2-.32A2.08,2.08,0,0,0,104.93,30.11Z"/><path class="cls-9" d="M101.27,29.66c-.09.19-.26.45,0,.6a.86.86,0,0,0,.54,0,1.22,1.22,0,0,0,1-.63C102.86,29.36,101.42,29.37,101.27,29.66Z"/><path class="cls-9" d="M90.51,30.64a1.7,1.7,0,0,0-.29.79c-.06.18.8.18.94,0s.52-.53.57-.8S90.72,30.39,90.51,30.64Z"/><path class="cls-9" d="M87,31.32a3,3,0,0,0,.4.23l.16.09.2.07a.64.64,0,0,0,.56-.05,1.12,1.12,0,0,0,.15-.11.28.28,0,0,0,.06-.14.36.36,0,0,0-.18-.31C88,30.86,86.61,31.09,87,31.32Z"/><path class="cls-9" d="M83,32a8.21,8.21,0,0,0,1.81.32c.28,0,.6-.08.49-.16a3.33,3.33,0,0,0-1.24-.5C83.45,31.56,82.51,31.87,83,32Z"/><path class="cls-9" d="M80.62,32.75c-.75,0-1.15.37-.41.41a12.9,12.9,0,0,0,2.06,0c.46,0,.65-.21.3-.29A10.74,10.74,0,0,0,80.62,32.75Z"/></g><path class="cls-10" d="M89.69,34c-.22.06-.27.16-.24.24.13.38,1.56.63,1.24,1a4.33,4.33,0,0,1-1.22.59c-.43.2-.61.49,0,.57s1.18-.07,1.77-.06a2.39,2.39,0,0,1,1.11.23,5.49,5.49,0,0,1,.5.41.65.65,0,0,0,.32.12,2,2,0,0,0,1-.17c.64-.28.62-.62.73-.94s.56-.7,1.57-.84a12.33,12.33,0,0,0,2.36-.31c.26-.13.18-.28-.1-.37a5,5,0,0,0-1.13-.13,3.57,3.57,0,0,1-.59,0c-.39-.08-.25-.28.06-.42a3.81,3.81,0,0,0,.88-.42c.07-.07,0-.16-.22-.16a1.35,1.35,0,0,0-.29,0c-1.27.27-2.8,1-4.34,1C92.19,34.35,90.48,33.75,89.69,34Z"/><path class="cls-11" d="M102.55,34.53c1.22-1.2,2-2.59,1.5-3.93s-2.47-2.57-5-2.74a15.83,15.83,0,0,0-5.88,1c-6.89,2.17-13.15,5-17.8,8.41a19.85,19.85,0,0,0-2.16,1.84,3.41,3.41,0,0,0,.89,1.24h0l.19.15h0l2.21,1.82h0c.91.73.65,1,4.47,1.59A68,68,0,0,0,92.65,40C96.46,38.46,100.26,36.77,102.55,34.53Z"/><path class="cls-3" d="M98.4,26.41l-1.15.39a20.11,20.11,0,0,0-2.37-.4c-8.7-1-22,2.16-29.76,7-3.57,2.22-5.33,4.42-5.33,6.24l-1.15.4L61,42h0a11.52,11.52,0,0,0,5.81,1.89c8.7,1,22-2.16,29.77-7,5.25-3.27,6.58-6.49,4.18-8.52h0Z"/><path class="cls-4" d="M100.88,33.3c1.46-1.92,1.42-3.65-.08-4.92h0l-2.4-2-1.15.39a20.11,20.11,0,0,0-2.37-.4c-.79-.09-1.63-.14-2.49-.16l-.09,0Z"/><ellipse class="cls-5" cx="78.66" cy="33.33" rx="21.63" ry="7.51" transform="translate(-5.66 19.63) rotate(-13.74)"/><path class="cls-6" d="M74.53,29.1a3.18,3.18,0,0,0-2-.22,6.79,6.79,0,0,0-1,.38,44.5,44.5,0,0,0-9.31,5.5c-.29.23-.58.5-.38.65a1.31,1.31,0,0,0,.7.11,72.66,72.66,0,0,0,8.06-1c4.45-.79,4.66-.71,4.68-.66s0,.17-3.56,1.42c-2.24.79-4.42,1.61-6.66,2.4a6.43,6.43,0,0,0-2.23,1.06c-.23.28,0,.49.17.67a9.54,9.54,0,0,0,4.87,1.66,7.94,7.94,0,0,0,3.12-.19,6.33,6.33,0,0,0,2.33-1.4,8.21,8.21,0,0,0,1.71-2.07c.84-1.38,1-2.26,1.66-2.42a1.27,1.27,0,0,1,.31,0c1.79.18-1.74,5.21.78,5.16a4.6,4.6,0,0,0,1.09-.22,66.19,66.19,0,0,0,8.54-3.08A6.86,6.86,0,0,0,89,36c.66-.57.21-1-.55-1.26a14.05,14.05,0,0,0-2.48-.61c-4-.57-6.28-.66-5.85-1.18a.56.56,0,0,1,.21-.16c1.22-.57,5.46.62,10.91,0a9.75,9.75,0,0,0,3.4-.83,2.63,2.63,0,0,0,.73-.63c1-1.14,1-2.21.26-3a1.45,1.45,0,0,0-1.24-.36,6.36,6.36,0,0,0-1.49.33C91.39,28.75,87,30.13,81,32c-.68.05-.83,0-.85-.06-.13-.51,8.58-3.59,11.43-4.83a3,3,0,0,0,1-.64c.19-.24,0-.42-.23-.56-1-.56-3.22-.57-5.31-.54-2.37,0-5,.32-6.5,1.05-2.34,1.17-.72,3.27-1.88,6,0,0-.16.38-.4.43C77.59,33,76.76,30.06,74.53,29.1Z"/><path class="cls-7" d="M72.08,31.56a.69.69,0,0,0-.69-.21,2.57,2.57,0,0,0-.83.32,31.27,31.27,0,0,0-2.73,1.64c-.19.13-.39.28-.3.37s.28.07.47.07c2.13,0,4.91-.33,5.92.28.63.38.32,1.07-.54,1.73a15.23,15.23,0,0,1-3.62,1.8c-.69.25-1.54.61-1.4.85s.23.13.41.16l2,.43q1.68-1.28,3.6-2.54A5,5,0,0,1,76,35.67a4.44,4.44,0,0,1,1.85,0c1.78.37,2.68,1.19,2.45,2.22a21.55,21.55,0,0,0,3.74-1.36,1.56,1.56,0,0,0,.66-.43c.15-.24-.35-.33-.78-.4-2.12-.36-3-1.38-2.25-2.63a1.09,1.09,0,0,1,.52-.45,4.6,4.6,0,0,1,1.49-.31l7.39-.62a2.23,2.23,0,0,0,.43-1.28.25.25,0,0,0-.2-.28A3.34,3.34,0,0,0,90,30.2l-4.67.86a9.71,9.71,0,0,1-2.85.26c-1-.16-.7-.87.18-1.47A28.81,28.81,0,0,1,86,28.17c.22-.11.46-.24.42-.33s-.14-.07-.25-.08a19.43,19.43,0,0,0-4.45-.1l-2,2.87c-.62.9-1.5,1.55-3.75,1.71C74.19,32.38,72.66,32.13,72.08,31.56Z"/><g class="cls-8"><path class="cls-9" d="M64.7,38.14a1.25,1.25,0,0,0-.53.25c-.26.27.26.3.81.16l.64-.15a2.21,2.21,0,0,1,.65-.13c.06,0,.13-.05.09-.06a1.77,1.77,0,0,0-.55-.18A4.09,4.09,0,0,0,64.7,38.14Z"/><path class="cls-9" d="M65,39.19c-.66.35,0,.56.77.25.25-.1.47-.21.72-.32a2.24,2.24,0,0,0,.56-.29s0-.09,0-.11A4.18,4.18,0,0,0,65,39.19Z"/><path class="cls-9" d="M67.86,39.35a5.36,5.36,0,0,0-.72.33l-.7.32c-.64.3,0,.51.68.22.24-.11.47-.24.69-.35a3.28,3.28,0,0,0,.66-.4C68.66,39.29,68.27,39.21,67.86,39.35Z"/><path class="cls-9" d="M70.57,39.63a4.15,4.15,0,0,0-.87.74c-.46.38.84.34,1.27,0s.65-.65.26-.78A1.15,1.15,0,0,0,70.57,39.63Z"/><path class="cls-9" d="M78.26,38.74a.61.61,0,0,0-.21.75c.06.12.35.16.73.07s.69-.28.62-.4-.06-.38-.11-.56S78.51,38.52,78.26,38.74Z"/><path class="cls-9" d="M81.45,37.91c-.44.27-.32.53-.14.7s.63.08,1-.07.48-.34.28-.44a2.38,2.38,0,0,0-.66-.31A.9.9,0,0,0,81.45,37.91Z"/><path class="cls-9" d="M84.28,36.89c-.33.16-.4.33-.31.45s.25.2.52.24a1.69,1.69,0,0,0,1-.24c.27-.17.2-.3-.07-.35.1,0,0,0,0,0l-.09,0-.07,0-.07,0h0l0,0a.45.45,0,0,0-.26-.08A1.27,1.27,0,0,0,84.28,36.89Z"/><path class="cls-9" d="M85.74,36.15c.13.3.91.53,1.73.32.45-.12.65-.38.46-.49a2.34,2.34,0,0,0-.93-.09,8.13,8.13,0,0,0-1,0C85.84,36,85.71,36.09,85.74,36.15Z"/><path class="cls-9" d="M92,31.82c-.36.08-.64.31-.39.37a4.08,4.08,0,0,0,1,0,7,7,0,0,0,1.16-.11c.59-.12.74-.44.37-.49a5,5,0,0,0-1,0A6.07,6.07,0,0,0,92,31.82Z"/><path class="cls-9" d="M94.23,30.45a10.7,10.7,0,0,0-1.71.43c-.38.14-.41.33,0,.33A10.63,10.63,0,0,0,94.15,31a1.76,1.76,0,0,0,.79-.31c.09-.09.1-.16,0-.22A1.1,1.1,0,0,0,94.23,30.45Z"/><path class="cls-9" d="M95.11,29.07a7.48,7.48,0,0,0-2.2.87c-.17.12,0,.24.31.15.67-.17,1.32-.38,2-.56C96,29.3,96,28.85,95.11,29.07Z"/><path class="cls-9" d="M93.7,28.32a7.81,7.81,0,0,0-.71.38,5.85,5.85,0,0,0-.52.36c-.21.16,0,.29.44.14s.58-.2.86-.32a7.61,7.61,0,0,0,.81-.38c.24-.14.2-.28,0-.32A1.66,1.66,0,0,0,93.7,28.32Z"/><path class="cls-9" d="M90.25,26.59a4.71,4.71,0,0,0-1.75,1.1c-.09.14.29.17.6.06a20.56,20.56,0,0,0,1.94-.9C91.78,26.5,91,26.25,90.25,26.59Z"/><path class="cls-9" d="M87.78,26.28c-.81.37-.89.83-.73,1.11s.75,0,.83-.16.69-.62.91-.93S88.22,26.08,87.78,26.28Z"/><path class="cls-9" d="M85,26.27a2.26,2.26,0,0,0-.64.52c-.11.16-.06.36.44.25a2.07,2.07,0,0,0,.7-.32l.52-.34c.23-.15.22-.31-.06-.34A1.8,1.8,0,0,0,85,26.27Z"/><path class="cls-9" d="M81.31,26.64c0,.18.09.46.44.55a.82.82,0,0,0,.51-.1c.46-.26.47-.58.39-.78S81.22,26.34,81.31,26.64Z"/><path class="cls-9" d="M72.16,29.79c0,.3.2.54.33.79s.86,0,.86-.2.07-.6-.08-.86S72.17,29.53,72.16,29.79Z"/><path class="cls-9" d="M69.42,31.17a4.56,4.56,0,0,0,.53.13l.22,0c.06,0,.2,0,.24,0s.47-.07.47-.16.06-.1.06-.14a.25.25,0,0,0-.06-.14.77.77,0,0,0-.4-.25C70,30.53,68.93,31,69.42,31.17Z"/><path class="cls-9" d="M66.31,32.66a9,9,0,0,0,1.9-.09c.27,0,.48-.2.33-.25a5,5,0,0,0-1.52-.2C66.38,32.13,65.75,32.61,66.31,32.66Z"/><path class="cls-9" d="M64.67,33.81c-.69.17-.78.59-.07.47a11,11,0,0,0,1.89-.44c.37-.14.43-.34.05-.33A10.07,10.07,0,0,0,64.67,33.81Z"/></g><path class="cls-10" d="M73.9,33c-.15.1-.12.2,0,.26.42.33,1.91.25,1.92.69,0,.24-.43.53-.68.8s-.19.58.42.52a12.76,12.76,0,0,0,1.57-.43,2.85,2.85,0,0,1,1.2,0,7.71,7.71,0,0,1,.77.27,1,1,0,0,0,.37,0,1.39,1.39,0,0,0,.77-.36c.38-.4.1-.7,0-1s0-.76.81-1.11c.64-.27,1.66-.46,1.93-.77s0-.29-.37-.32a4.86,4.86,0,0,0-1.14.12,2.93,2.93,0,0,1-.57.09c-.41,0-.42-.2-.25-.39s.47-.4.49-.57-.11-.15-.32-.1a.7.7,0,0,0-.23.1c-1,.51-1.79,1.55-3.23,1.84C76.49,32.85,74.47,32.66,73.9,33Z"/><path class="cls-11" d="M88.08,34.53c1.22-1.2,2-2.59,1.49-3.93s-2.46-2.57-5-2.74a15.85,15.85,0,0,0-5.89,1c-6.88,2.17-13.14,5-17.79,8.41a18.94,18.94,0,0,0-2.16,1.84,3.3,3.3,0,0,0,.89,1.24h0l.18.15h0L62,42.28h0c.91.73,1.26,1.12,4.58,1.58A66.36,66.36,0,0,0,78.17,40C82,38.46,85.79,36.77,88.08,34.53Z"/><path class="cls-3" d="M83.93,26.41l-1.15.39a20.11,20.11,0,0,0-2.37-.4c-8.7-1-22,2.16-29.77,7-3.56,2.22-5.32,4.42-5.33,6.24l-1.15.4,2.4,2h0a11.57,11.57,0,0,0,5.82,1.89c8.7,1,22-2.16,29.76-7,5.25-3.27,6.58-6.49,4.19-8.52h0Z"/><path class="cls-4" d="M86.41,33.3c1.46-1.92,1.41-3.65-.08-4.92h0l-2.4-2-1.15.39a20.11,20.11,0,0,0-2.37-.4c-.8-.09-1.63-.14-2.5-.16l-.08,0Z"/><ellipse class="cls-5" cx="64.18" cy="33.33" rx="21.63" ry="7.51" transform="translate(-6.08 16.19) rotate(-13.74)"/><path class="cls-6" d="M60.06,29.1a3.18,3.18,0,0,0-2-.22,6,6,0,0,0-1,.38,44.6,44.6,0,0,0-9.32,5.5c-.29.23-.58.5-.38.65a1.31,1.31,0,0,0,.7.11,72.94,72.94,0,0,0,8.07-1c4.45-.79,4.65-.71,4.67-.66s0,.17-3.56,1.42c-2.23.79-4.42,1.61-6.66,2.4a6.52,6.52,0,0,0-2.23,1.06c-.23.28,0,.49.18.67a9.54,9.54,0,0,0,4.87,1.66,8,8,0,0,0,3.12-.19,6.42,6.42,0,0,0,2.32-1.4,8,8,0,0,0,1.72-2.07c.83-1.38,1-2.26,1.65-2.42a1.35,1.35,0,0,1,.32,0c1.79.18-1.74,5.21.77,5.16a4.6,4.6,0,0,0,1.09-.22A65.65,65.65,0,0,0,73,36.81,7,7,0,0,0,74.5,36c.66-.57.2-1-.56-1.26a13.62,13.62,0,0,0-2.48-.61c-4-.57-6.28-.66-5.84-1.18a.48.48,0,0,1,.21-.16c1.21-.57,5.46.62,10.91,0a9.82,9.82,0,0,0,3.4-.83,2.63,2.63,0,0,0,.73-.63c.94-1.14,1-2.21.26-3a1.45,1.45,0,0,0-1.24-.36,6.47,6.47,0,0,0-1.5.33c-1.47.5-5.87,1.88-11.9,3.76-.68.05-.83,0-.84-.06-.13-.51,8.58-3.59,11.42-4.83a3,3,0,0,0,1-.64c.19-.24,0-.42-.24-.56-1-.56-3.21-.57-5.31-.54-2.36,0-5,.32-6.5,1.05-2.34,1.17-.71,3.27-1.87,6,0,0-.16.38-.4.43C63.11,33,62.28,30.06,60.06,29.1Z"/><path class="cls-7" d="M57.61,31.56a.7.7,0,0,0-.7-.21,2.66,2.66,0,0,0-.83.32c-1,.53-1.89,1.08-2.72,1.64-.2.13-.4.28-.3.37s.27.07.47.07c2.13,0,4.91-.33,5.91.28.63.38.32,1.07-.54,1.73a15.23,15.23,0,0,1-3.62,1.8c-.68.25-1.54.61-1.4.85s.24.13.41.16l2,.43q1.66-1.28,3.59-2.54a5.15,5.15,0,0,1,1.68-.79,4.39,4.39,0,0,1,1.84,0c1.78.37,2.69,1.19,2.46,2.22a22.17,22.17,0,0,0,3.74-1.36,1.71,1.71,0,0,0,.66-.43c.15-.24-.36-.33-.78-.4-2.12-.36-3-1.38-2.26-2.63a1.09,1.09,0,0,1,.52-.45,4.66,4.66,0,0,1,1.5-.31l7.38-.62a2.24,2.24,0,0,0,.44-1.28.25.25,0,0,0-.21-.28,3.36,3.36,0,0,0-1.29.09l-4.67.86a9.68,9.68,0,0,1-2.85.26c-1-.16-.69-.87.19-1.47a28.62,28.62,0,0,1,3.33-1.68c.22-.11.46-.24.42-.33s-.13-.07-.24-.08a19.52,19.52,0,0,0-4.46-.1l-2,2.87c-.61.9-1.5,1.55-3.74,1.71C59.72,32.38,58.18,32.13,57.61,31.56Z"/><g class="cls-8"><path class="cls-9" d="M50.23,38.14a1.25,1.25,0,0,0-.53.25c-.27.27.26.3.81.16l.64-.15a2.15,2.15,0,0,1,.65-.13c.06,0,.12-.05.08-.06a1.69,1.69,0,0,0-.55-.18A4,4,0,0,0,50.23,38.14Z"/><path class="cls-9" d="M50.52,39.19c-.67.35,0,.56.77.25l.71-.32a2.52,2.52,0,0,0,.57-.29s0-.09,0-.11A4.15,4.15,0,0,0,50.52,39.19Z"/><path class="cls-9" d="M53.38,39.35a6.82,6.82,0,0,0-.72.33L52,40c-.64.3,0,.51.67.22.24-.11.47-.24.69-.35a3,3,0,0,0,.66-.4C54.18,39.29,53.79,39.21,53.38,39.35Z"/><path class="cls-9" d="M56.09,39.63a3.83,3.83,0,0,0-.86.74c-.46.38.84.34,1.27,0s.65-.65.25-.78A1.17,1.17,0,0,0,56.09,39.63Z"/><path class="cls-9" d="M63.79,38.74a.6.6,0,0,0-.21.75c.05.12.35.16.73.07s.69-.28.62-.4-.06-.38-.12-.56S64,38.52,63.79,38.74Z"/><path class="cls-9" d="M67,37.91c-.44.27-.31.53-.14.7s.64.08,1-.07.48-.34.27-.44a2.14,2.14,0,0,0-.66-.31A.9.9,0,0,0,67,37.91Z"/><path class="cls-9" d="M69.81,36.89c-.33.16-.4.33-.32.45s.25.2.52.24a1.74,1.74,0,0,0,1-.24c.26-.17.2-.3-.07-.35.1,0,0,0,0,0l-.09,0-.08,0-.07,0s0,0,0,0l0,0a.45.45,0,0,0-.26-.08A1.22,1.22,0,0,0,69.81,36.89Z"/><path class="cls-9" d="M71.27,36.15c.13.3.9.53,1.73.32.45-.12.65-.38.46-.49a2.39,2.39,0,0,0-.93-.09,8,8,0,0,0-1,0C71.36,36,71.23,36.09,71.27,36.15Z"/><path class="cls-9" d="M77.48,31.82c-.36.08-.65.31-.39.37a4.05,4.05,0,0,0,1,0,7.07,7.07,0,0,0,1.16-.11c.59-.12.73-.44.37-.49a5.09,5.09,0,0,0-1,0A6,6,0,0,0,77.48,31.82Z"/><path class="cls-9" d="M79.76,30.45a10.7,10.7,0,0,0-1.71.43c-.39.14-.42.33-.06.33A10.6,10.6,0,0,0,79.68,31a1.72,1.72,0,0,0,.78-.31c.09-.09.1-.16,0-.22A1.1,1.1,0,0,0,79.76,30.45Z"/><path class="cls-9" d="M80.63,29.07a7.3,7.3,0,0,0-2.19.87c-.18.12,0,.24.3.15.67-.17,1.33-.38,2-.56C81.56,29.3,81.48,28.85,80.63,29.07Z"/><path class="cls-9" d="M79.22,28.32a7.59,7.59,0,0,0-.7.38,3.9,3.9,0,0,0-.52.36c-.21.16,0,.29.43.14s.59-.2.87-.32a7.42,7.42,0,0,0,.8-.38c.25-.14.2-.28,0-.32A1.69,1.69,0,0,0,79.22,28.32Z"/><path class="cls-9" d="M75.77,26.59A4.71,4.71,0,0,0,74,27.69c-.08.14.29.17.6.06a19.45,19.45,0,0,0,1.94-.9C77.31,26.5,76.54,26.25,75.77,26.59Z"/><path class="cls-9" d="M73.31,26.28c-.82.37-.89.83-.74,1.11s.75,0,.84-.16.68-.62.9-.93S73.74,26.08,73.31,26.28Z"/><path class="cls-9" d="M70.51,26.27a2.07,2.07,0,0,0-.63.52c-.11.16-.07.36.44.25a2,2,0,0,0,.69-.32c.17-.12.36-.23.53-.34s.22-.31-.07-.34A1.84,1.84,0,0,0,70.51,26.27Z"/><path class="cls-9" d="M66.83,26.64c.06.18.09.46.44.55a.81.81,0,0,0,.51-.1c.46-.26.47-.58.39-.78S66.74,26.34,66.83,26.64Z"/><path class="cls-9" d="M57.68,29.79c0,.3.21.54.33.79s.87,0,.86-.2a1.78,1.78,0,0,0-.08-.86C58.66,29.3,57.69,29.53,57.68,29.79Z"/><path class="cls-9" d="M55,31.17a3.74,3.74,0,0,0,.53.13l.21,0c.07,0,.2,0,.24,0s.48-.07.48-.16.05-.1.05-.14a.24.24,0,0,0-.05-.14.77.77,0,0,0-.4-.25C55.54,30.53,54.45,31,55,31.17Z"/><path class="cls-9" d="M51.83,32.66a9,9,0,0,0,1.9-.09c.28,0,.49-.2.33-.25a4.93,4.93,0,0,0-1.51-.2C51.9,32.13,51.27,32.61,51.83,32.66Z"/><path class="cls-9" d="M50.2,33.81c-.7.17-.78.59-.07.47A10.71,10.71,0,0,0,52,33.84c.38-.14.44-.34.06-.33A9.94,9.94,0,0,0,50.2,33.81Z"/></g><path class="cls-10" d="M59.43,33c-.15.1-.13.2,0,.26.41.33,1.91.25,1.92.69,0,.24-.44.53-.69.8s-.19.58.42.52a12.43,12.43,0,0,0,1.58-.43,2.8,2.8,0,0,1,1.19,0,6.91,6.91,0,0,1,.77.27,1.05,1.05,0,0,0,.38,0,1.39,1.39,0,0,0,.76-.36c.38-.4.1-.7,0-1s0-.76.81-1.11a8,8,0,0,0,1.93-.77c.15-.17,0-.29-.36-.32a4.81,4.81,0,0,0-1.14.12,3.05,3.05,0,0,1-.57.09c-.41,0-.43-.2-.26-.39s.47-.4.5-.57-.11-.15-.33-.1a.8.8,0,0,0-.23.1c-1,.51-1.78,1.55-3.22,1.84C62,32.85,60,32.66,59.43,33Z"/><path class="cls-11" d="M73.6,34.53c1.23-1.2,2-2.59,1.5-3.93s-2.47-2.57-5-2.74a15.85,15.85,0,0,0-5.89,1c-6.89,2.17-13.15,5-17.8,8.41a20.84,20.84,0,0,0-2.16,1.84,3.41,3.41,0,0,0,.89,1.24h0l.19.15h0l2.21,1.82h0c.91.73,1.54,1.19,4.6,1.59A66.54,66.54,0,0,0,63.7,40C67.51,38.46,71.31,36.77,73.6,34.53Z"/><path class="cls-3" d="M69.45,26.41l-1.15.39a20.11,20.11,0,0,0-2.37-.4c-8.7-1-22,2.16-29.76,7-3.57,2.22-5.32,4.42-5.33,6.24l-1.15.4,2.4,2h0a11.53,11.53,0,0,0,5.82,1.89c8.69,1,22-2.16,29.76-7,5.25-3.27,6.58-6.49,4.18-8.52h0Z"/><path class="cls-4" d="M71.93,33.3c1.46-1.92,1.42-3.65-.08-4.92h0l-2.4-2-1.15.39a20.11,20.11,0,0,0-2.37-.4c-.79-.09-1.63-.14-2.49-.16l-.09,0Z"/><ellipse class="cls-5" cx="49.71" cy="33.33" rx="21.63" ry="7.51" transform="translate(-6.49 12.76) rotate(-13.74)"/><path class="cls-6" d="M45.59,29.1a3.21,3.21,0,0,0-2-.22,6.79,6.79,0,0,0-1,.38,44.76,44.76,0,0,0-9.31,5.5c-.29.23-.58.5-.38.65a1.31,1.31,0,0,0,.7.11,72.66,72.66,0,0,0,8.06-1c4.45-.79,4.66-.71,4.68-.66s0,.17-3.56,1.42c-2.24.79-4.42,1.61-6.66,2.4a6.43,6.43,0,0,0-2.23,1.06c-.23.28,0,.49.17.67A9.61,9.61,0,0,0,39,41.05a7.94,7.94,0,0,0,3.12-.19,6.33,6.33,0,0,0,2.33-1.4,8.21,8.21,0,0,0,1.71-2.07C47,36,47.12,35.13,47.8,35a1.27,1.27,0,0,1,.31,0c1.79.18-1.74,5.21.78,5.16A4.6,4.6,0,0,0,50,39.89a66.19,66.19,0,0,0,8.54-3.08A6.86,6.86,0,0,0,60,36c.66-.57.21-1-.55-1.26A14.05,14.05,0,0,0,57,34.12c-4-.57-6.28-.66-5.85-1.18a.56.56,0,0,1,.21-.16c1.22-.57,5.47.62,10.91,0a9.75,9.75,0,0,0,3.4-.83,2.69,2.69,0,0,0,.74-.63c.94-1.14,1-2.21.25-3a1.44,1.44,0,0,0-1.23-.36,6.35,6.35,0,0,0-1.5.33C62.44,28.75,58,30.13,52,32c-.68.05-.83,0-.85-.06-.13-.51,8.58-3.59,11.43-4.83a3,3,0,0,0,1-.64c.19-.24,0-.42-.23-.56-1-.56-3.22-.57-5.31-.54-2.37,0-5,.32-6.5,1.05-2.34,1.17-.72,3.27-1.87,6,0,0-.17.38-.41.43C48.64,33,47.81,30.06,45.59,29.1Z"/><path class="cls-7" d="M43.13,31.56a.69.69,0,0,0-.69-.21,2.57,2.57,0,0,0-.83.32,31.27,31.27,0,0,0-2.73,1.64c-.19.13-.39.28-.3.37s.28.07.47.07c2.13,0,4.91-.33,5.92.28.63.38.32,1.07-.54,1.73a15.23,15.23,0,0,1-3.62,1.8c-.69.25-1.54.61-1.4.85s.23.13.41.16l2,.43q1.68-1.28,3.6-2.54a5,5,0,0,1,1.67-.79,4.44,4.44,0,0,1,1.85,0c1.78.37,2.68,1.19,2.45,2.22a21.55,21.55,0,0,0,3.74-1.36,1.68,1.68,0,0,0,.67-.43c.14-.24-.36-.33-.78-.4-2.13-.36-3-1.38-2.26-2.63a1.09,1.09,0,0,1,.52-.45,4.6,4.6,0,0,1,1.49-.31l7.39-.62a2.32,2.32,0,0,0,.44-1.28.27.27,0,0,0-.21-.28,3.34,3.34,0,0,0-1.29.09l-4.67.86a9.71,9.71,0,0,1-2.85.26c-1-.16-.7-.87.18-1.47a28.81,28.81,0,0,1,3.34-1.68c.22-.11.46-.24.42-.33s-.14-.07-.25-.08a19.43,19.43,0,0,0-4.45-.1l-2,2.87c-.62.9-1.5,1.55-3.75,1.71C45.24,32.38,43.71,32.13,43.13,31.56Z"/><g class="cls-8"><path class="cls-9" d="M35.75,38.14a1.25,1.25,0,0,0-.53.25c-.26.27.26.3.81.16l.64-.15a2.21,2.21,0,0,1,.65-.13c.06,0,.13-.05.09-.06a1.77,1.77,0,0,0-.55-.18A4.09,4.09,0,0,0,35.75,38.14Z"/><path class="cls-9" d="M36,39.19c-.66.35,0,.56.77.25.25-.1.47-.21.72-.32a2.24,2.24,0,0,0,.56-.29s0-.09,0-.11A4.2,4.2,0,0,0,36,39.19Z"/><path class="cls-9" d="M38.91,39.35a5.36,5.36,0,0,0-.72.33l-.7.32c-.64.3,0,.51.68.22.24-.11.47-.24.69-.35a3.28,3.28,0,0,0,.66-.4C39.71,39.29,39.32,39.21,38.91,39.35Z"/><path class="cls-9" d="M41.62,39.63a4.15,4.15,0,0,0-.87.74c-.46.38.84.34,1.27,0s.65-.65.26-.78A1.15,1.15,0,0,0,41.62,39.63Z"/><path class="cls-9" d="M49.31,38.74a.6.6,0,0,0-.2.75c0,.12.34.16.72.07s.7-.28.62-.4-.06-.38-.11-.56S49.56,38.52,49.31,38.74Z"/><path class="cls-9" d="M52.5,37.91c-.44.27-.32.53-.14.7s.63.08,1-.07.48-.34.28-.44a2.38,2.38,0,0,0-.66-.31A.9.9,0,0,0,52.5,37.91Z"/><path class="cls-9" d="M55.33,36.89c-.33.16-.4.33-.31.45s.25.2.52.24a1.69,1.69,0,0,0,1-.24c.27-.17.2-.3-.06-.35.09,0,0,0,0,0l-.08,0-.08,0-.07,0s0,0,0,0l-.06,0a.42.42,0,0,0-.26-.08A1.27,1.27,0,0,0,55.33,36.89Z"/><path class="cls-9" d="M56.79,36.15c.13.3.91.53,1.73.32.45-.12.65-.38.46-.49a2.34,2.34,0,0,0-.93-.09,8.13,8.13,0,0,0-1,0C56.89,36,56.76,36.09,56.79,36.15Z"/><path class="cls-9" d="M63,31.82c-.35.08-.64.31-.38.37a4,4,0,0,0,.94,0,7,7,0,0,0,1.16-.11c.59-.12.74-.44.37-.49a5,5,0,0,0-1,0A6.19,6.19,0,0,0,63,31.82Z"/><path class="cls-9" d="M65.28,30.45a10.7,10.7,0,0,0-1.71.43c-.38.14-.41.33,0,.33A10.63,10.63,0,0,0,65.2,31a1.71,1.71,0,0,0,.79-.31c.09-.09.1-.16,0-.22A1.1,1.1,0,0,0,65.28,30.45Z"/><path class="cls-9" d="M66.16,29.07a7.3,7.3,0,0,0-2.19.87c-.18.12,0,.24.3.15.67-.17,1.32-.38,2-.56C67.09,29.3,67,28.85,66.16,29.07Z"/><path class="cls-9" d="M64.75,28.32a7.81,7.81,0,0,0-.71.38,5.85,5.85,0,0,0-.52.36c-.21.16,0,.29.44.14s.58-.2.86-.32a7.61,7.61,0,0,0,.81-.38c.24-.14.2-.28,0-.32A1.66,1.66,0,0,0,64.75,28.32Z"/><path class="cls-9" d="M61.3,26.59a4.71,4.71,0,0,0-1.75,1.1c-.09.14.29.17.6.06a20.56,20.56,0,0,0,1.94-.9C62.83,26.5,62.06,26.25,61.3,26.59Z"/><path class="cls-9" d="M58.84,26.28c-.82.37-.89.83-.74,1.11s.75,0,.83-.16.69-.62.91-.93S59.27,26.08,58.84,26.28Z"/><path class="cls-9" d="M56,26.27a2.26,2.26,0,0,0-.64.52c-.11.16-.06.36.44.25a2.07,2.07,0,0,0,.7-.32l.52-.34c.23-.15.22-.31-.06-.34A1.8,1.8,0,0,0,56,26.27Z"/><path class="cls-9" d="M52.36,26.64c0,.18.09.46.44.55a.81.81,0,0,0,.51-.1c.46-.26.47-.58.39-.78S52.27,26.34,52.36,26.64Z"/><path class="cls-9" d="M43.21,29.79c0,.3.2.54.33.79s.86,0,.86-.2.07-.6-.08-.86S43.22,29.53,43.21,29.79Z"/><path class="cls-9" d="M40.47,31.17a4.56,4.56,0,0,0,.53.13l.22,0c.06,0,.2,0,.24,0s.47-.07.47-.16.06-.1.06-.14a.34.34,0,0,0-.05-.14.8.8,0,0,0-.41-.25C41.06,30.53,40,31,40.47,31.17Z"/><path class="cls-9" d="M37.36,32.66a9,9,0,0,0,1.9-.09c.27,0,.48-.2.33-.25a5,5,0,0,0-1.52-.2C37.43,32.13,36.8,32.61,37.36,32.66Z"/><path class="cls-9" d="M35.72,33.81c-.69.17-.78.59-.07.47a10.82,10.82,0,0,0,1.89-.44c.38-.14.43-.34.05-.33A10.07,10.07,0,0,0,35.72,33.81Z"/></g><path class="cls-10" d="M45,33c-.16.1-.13.2-.05.26.42.33,1.91.25,1.92.69,0,.24-.43.53-.68.8s-.19.58.42.52a12.76,12.76,0,0,0,1.57-.43,2.85,2.85,0,0,1,1.2,0,7.71,7.71,0,0,1,.77.27,1,1,0,0,0,.37,0,1.39,1.39,0,0,0,.77-.36c.38-.4.1-.7,0-1s0-.76.81-1.11A8,8,0,0,0,54,31.91c.14-.17-.05-.29-.37-.32a4.91,4.91,0,0,0-1.14.12,3,3,0,0,1-.56.09c-.42,0-.43-.2-.26-.39s.47-.4.49-.57-.11-.15-.32-.1a.8.8,0,0,0-.23.1c-1,.51-1.79,1.55-3.23,1.84C47.54,32.85,45.52,32.66,45,33Z"/><path class="cls-11" d="M59.47,34.53c1.23-1.2,2-2.59,1.5-3.93S58.5,28,56,27.86a15.85,15.85,0,0,0-5.89,1c-6.89,2.17-13.15,5-17.8,8.41a20.84,20.84,0,0,0-2.16,1.84A3.41,3.41,0,0,0,31,40.31h0l.19.15h0l2.21,1.82h0c.91.73.78,1.13,4.41,1.6A68.7,68.7,0,0,0,49.57,40C53.38,38.46,57.18,36.77,59.47,34.53Z"/><path class="cls-3" d="M55.32,26.41l-1.15.39a20.11,20.11,0,0,0-2.37-.4c-8.7-1-22,2.16-29.76,7-3.57,2.22-5.32,4.42-5.33,6.24l-1.15.4L18,42h0a11.53,11.53,0,0,0,5.82,1.89c8.69,1,22-2.16,29.76-7,5.25-3.27,6.58-6.49,4.18-8.52h0Z"/><path class="cls-4" d="M57.8,33.3c1.46-1.92,1.42-3.65-.08-4.92h0l-2.4-2-1.15.39a20.11,20.11,0,0,0-2.37-.4c-.79-.09-1.63-.14-2.49-.16l-.09,0Z"/><ellipse class="cls-5" cx="35.58" cy="33.33" rx="21.63" ry="7.51" transform="translate(-6.9 9.4) rotate(-13.74)"/><path class="cls-6" d="M31.46,29.1a3.21,3.21,0,0,0-2-.22,6.79,6.79,0,0,0-1,.38,44.76,44.76,0,0,0-9.31,5.5c-.29.23-.58.5-.38.65a1.31,1.31,0,0,0,.7.11,72.66,72.66,0,0,0,8.06-1c4.45-.79,4.66-.71,4.68-.66s0,.17-3.56,1.42c-2.24.79-4.42,1.61-6.66,2.4a6.43,6.43,0,0,0-2.23,1.06c-.23.28,0,.49.17.67a9.61,9.61,0,0,0,4.87,1.66A7.94,7.94,0,0,0,28,40.86a6.33,6.33,0,0,0,2.33-1.4A8.21,8.21,0,0,0,32,37.39c.84-1.38,1-2.26,1.66-2.42A1.27,1.27,0,0,1,34,35c1.79.18-1.74,5.21.78,5.16a4.6,4.6,0,0,0,1.09-.22,66.19,66.19,0,0,0,8.54-3.08,6.86,6.86,0,0,0,1.5-.82c.66-.57.21-1-.55-1.26a14.05,14.05,0,0,0-2.48-.61c-4-.57-6.28-.66-5.85-1.18a.56.56,0,0,1,.21-.16c1.22-.57,5.47.62,10.91,0a9.75,9.75,0,0,0,3.4-.83,2.69,2.69,0,0,0,.74-.63c.94-1.14,1-2.21.25-3a1.44,1.44,0,0,0-1.23-.36,6.35,6.35,0,0,0-1.5.33c-1.48.5-5.88,1.88-11.9,3.76-.68.05-.83,0-.85-.06-.13-.51,8.58-3.59,11.43-4.83a3,3,0,0,0,1-.64c.19-.24,0-.42-.23-.56-1-.56-3.22-.57-5.31-.54-2.37,0-5.05.32-6.5,1.05-2.34,1.17-.72,3.27-1.87,6,0,0-.17.38-.41.43C34.51,33,33.68,30.06,31.46,29.1Z"/><path class="cls-7" d="M29,31.56a.69.69,0,0,0-.69-.21,2.57,2.57,0,0,0-.83.32,31.27,31.27,0,0,0-2.73,1.64c-.19.13-.39.28-.3.37s.28.07.47.07c2.13,0,4.91-.33,5.92.28.63.38.32,1.07-.54,1.73a15.23,15.23,0,0,1-3.62,1.8c-.69.25-1.54.61-1.4.85s.23.13.41.16l2,.43q1.68-1.28,3.6-2.54A5,5,0,0,1,33,35.67a4.44,4.44,0,0,1,1.85,0c1.78.37,2.68,1.19,2.45,2.22A21.55,21.55,0,0,0,41,36.51a1.68,1.68,0,0,0,.67-.43c.14-.24-.36-.33-.78-.4-2.13-.36-3-1.38-2.26-2.63a1.09,1.09,0,0,1,.52-.45,4.6,4.6,0,0,1,1.49-.31L48,31.67a2.32,2.32,0,0,0,.44-1.28.27.27,0,0,0-.21-.28A3.34,3.34,0,0,0,47,30.2l-4.67.86a9.71,9.71,0,0,1-2.85.26c-1-.16-.7-.87.18-1.47A28.81,28.81,0,0,1,43,28.17c.22-.11.46-.24.42-.33s-.14-.07-.25-.08a19.43,19.43,0,0,0-4.45-.1l-2,2.87c-.62.9-1.5,1.55-3.75,1.71C31.11,32.38,29.58,32.13,29,31.56Z"/><g class="cls-8"><path class="cls-9" d="M21.62,38.14a1.25,1.25,0,0,0-.53.25c-.26.27.26.3.81.16l.64-.15a2.21,2.21,0,0,1,.65-.13c.06,0,.13-.05.09-.06a1.77,1.77,0,0,0-.55-.18A4.09,4.09,0,0,0,21.62,38.14Z"/><path class="cls-9" d="M21.91,39.19c-.66.35,0,.56.77.25.25-.1.47-.21.72-.32a2.24,2.24,0,0,0,.56-.29c.05,0,0-.09,0-.11A4.2,4.2,0,0,0,21.91,39.19Z"/><path class="cls-9" d="M24.78,39.35a5.36,5.36,0,0,0-.72.33l-.7.32c-.64.3,0,.51.68.22.24-.11.47-.24.69-.35a3.28,3.28,0,0,0,.66-.4C25.58,39.29,25.19,39.21,24.78,39.35Z"/><path class="cls-9" d="M27.49,39.63a4.15,4.15,0,0,0-.87.74c-.46.38.84.34,1.27,0s.65-.65.26-.78A1.15,1.15,0,0,0,27.49,39.63Z"/><path class="cls-9" d="M35.18,38.74a.6.6,0,0,0-.2.75c.05.12.34.16.72.07s.7-.28.62-.4-.06-.38-.11-.56S35.43,38.52,35.18,38.74Z"/><path class="cls-9" d="M38.37,37.91c-.44.27-.32.53-.14.7s.63.08,1-.07.48-.34.28-.44a2.38,2.38,0,0,0-.66-.31A.9.9,0,0,0,38.37,37.91Z"/><path class="cls-9" d="M41.2,36.89c-.33.16-.4.33-.31.45s.25.2.52.24a1.69,1.69,0,0,0,1-.24c.27-.17.2-.3-.06-.35.09,0,0,0,0,0l-.08,0-.08,0-.07,0s0,0,0,0l-.06,0a.42.42,0,0,0-.26-.08A1.27,1.27,0,0,0,41.2,36.89Z"/><path class="cls-9" d="M42.66,36.15c.13.3.91.53,1.73.32.45-.12.65-.38.46-.49a2.34,2.34,0,0,0-.93-.09,8.13,8.13,0,0,0-1,0C42.76,36,42.63,36.09,42.66,36.15Z"/><path class="cls-9" d="M48.87,31.82c-.35.08-.64.31-.38.37a4,4,0,0,0,.94,0,7,7,0,0,0,1.16-.11c.59-.12.74-.44.37-.49a5,5,0,0,0-1,0A6.19,6.19,0,0,0,48.87,31.82Z"/><path class="cls-9" d="M51.15,30.45a10.7,10.7,0,0,0-1.71.43c-.38.14-.41.33,0,.33A10.63,10.63,0,0,0,51.07,31a1.71,1.71,0,0,0,.79-.31c.09-.09.1-.16,0-.22A1.1,1.1,0,0,0,51.15,30.45Z"/><path class="cls-9" d="M52,29.07a7.3,7.3,0,0,0-2.19.87c-.18.12,0,.24.3.15.67-.17,1.32-.38,2-.56C53,29.3,52.88,28.85,52,29.07Z"/><path class="cls-9" d="M50.62,28.32a7.81,7.81,0,0,0-.71.38,5.85,5.85,0,0,0-.52.36c-.21.16,0,.29.44.14s.58-.2.86-.32a7.61,7.61,0,0,0,.81-.38c.24-.14.2-.28,0-.32A1.66,1.66,0,0,0,50.62,28.32Z"/><path class="cls-9" d="M47.17,26.59a4.71,4.71,0,0,0-1.75,1.1c-.09.14.29.17.6.06a20.56,20.56,0,0,0,1.94-.9C48.7,26.5,47.93,26.25,47.17,26.59Z"/><path class="cls-9" d="M44.71,26.28c-.82.37-.89.83-.74,1.11s.75,0,.83-.16.69-.62.91-.93S45.14,26.08,44.71,26.28Z"/><path class="cls-9" d="M41.91,26.27a2.26,2.26,0,0,0-.64.52c-.11.16-.06.36.44.25a2.07,2.07,0,0,0,.7-.32l.52-.34c.23-.15.22-.31-.06-.34A1.8,1.8,0,0,0,41.91,26.27Z"/><path class="cls-9" d="M38.23,26.64c.05.18.09.46.44.55a.81.81,0,0,0,.51-.1c.46-.26.47-.58.39-.78S38.14,26.34,38.23,26.64Z"/><path class="cls-9" d="M29.08,29.79c0,.3.2.54.33.79s.86,0,.86-.2a1.78,1.78,0,0,0-.08-.86C30.06,29.3,29.09,29.53,29.08,29.79Z"/><path class="cls-9" d="M26.34,31.17a4.56,4.56,0,0,0,.53.13l.22,0c.06,0,.2,0,.24,0s.47-.07.47-.16.06-.1.06-.14a.34.34,0,0,0-.05-.14.8.8,0,0,0-.41-.25C26.93,30.53,25.85,31,26.34,31.17Z"/><path class="cls-9" d="M23.23,32.66a9,9,0,0,0,1.9-.09c.27,0,.48-.2.33-.25a5,5,0,0,0-1.52-.2C23.3,32.13,22.67,32.61,23.23,32.66Z"/><path class="cls-9" d="M21.59,33.81c-.69.17-.78.59-.07.47a10.82,10.82,0,0,0,1.89-.44c.38-.14.43-.34.05-.33A10.07,10.07,0,0,0,21.59,33.81Z"/></g><path class="cls-10" d="M30.83,33c-.16.1-.13.2,0,.26.42.33,1.91.25,1.92.69,0,.24-.43.53-.68.8s-.19.58.42.52A12.76,12.76,0,0,0,34,34.87a2.85,2.85,0,0,1,1.2,0,7.71,7.71,0,0,1,.77.27,1,1,0,0,0,.37,0,1.39,1.39,0,0,0,.77-.36c.38-.4.1-.7,0-1s0-.76.81-1.11a8,8,0,0,0,1.93-.77c.14-.17,0-.29-.37-.32a4.91,4.91,0,0,0-1.14.12,3,3,0,0,1-.56.09c-.42,0-.43-.2-.26-.39s.47-.4.49-.57-.11-.15-.32-.1a.8.8,0,0,0-.23.1c-1,.51-1.79,1.55-3.23,1.84C33.41,32.85,31.39,32.66,30.83,33Z"/><path class="cls-11" d="M45.35,34.46c1.23-1.2,2-2.59,1.5-3.93s-2.47-2.57-5-2.75a16.05,16.05,0,0,0-5.89,1c-6.88,2.16-13.14,5-17.8,8.41A19.71,19.71,0,0,0,16,39a3.09,3.09,0,0,0,.89,1.23h0l.19.15h0l2.21,1.82h0c.92.73.44,1.12,4.23,1.65a70.8,70.8,0,0,0,11.94-3.92C39.26,38.39,43.06,36.7,45.35,34.46Z"/><path class="cls-3" d="M41.2,26.34l-1.14.39a20.66,20.66,0,0,0-2.38-.4c-8.69-1-22,2.16-29.76,7-3.57,2.22-5.32,4.42-5.33,6.24L1.44,40l2.4,2h0c1.15.93,3.1,1.59,5.82,1.9,8.7,1,22-2.16,29.76-7,5.25-3.28,6.58-6.49,4.18-8.52h0Z"/><path class="cls-4" d="M43.68,33.23c1.46-1.92,1.42-3.65-.08-4.92h0l-2.4-2-1.14.39a20.66,20.66,0,0,0-2.38-.4c-.79-.09-1.62-.14-2.49-.17l-.08,0Z"/><ellipse class="cls-5" cx="21.46" cy="33.26" rx="21.63" ry="7.51" transform="translate(-7.28 6.05) rotate(-13.74)"/><path class="cls-6" d="M17.34,29a3.14,3.14,0,0,0-2-.22,6.25,6.25,0,0,0-1,.37,44.6,44.6,0,0,0-9.32,5.51c-.29.23-.58.5-.38.65a1.42,1.42,0,0,0,.7.11,72.66,72.66,0,0,0,8.06-1c4.45-.79,4.66-.72,4.68-.67s0,.18-3.56,1.43c-2.23.79-4.42,1.61-6.66,2.4a6.25,6.25,0,0,0-2.23,1.06c-.23.28-.05.49.17.67A9.71,9.71,0,0,0,10.73,41a7.94,7.94,0,0,0,3.12-.19,6.28,6.28,0,0,0,2.33-1.41,8,8,0,0,0,1.72-2.06c.83-1.38,1-2.26,1.65-2.42a.7.7,0,0,1,.31,0c1.79.18-1.74,5.2.78,5.16a5.22,5.22,0,0,0,1.09-.22,65.65,65.65,0,0,0,8.54-3.08,6.46,6.46,0,0,0,1.5-.83c.66-.56.21-1-.55-1.25a14.05,14.05,0,0,0-2.48-.61c-4-.57-6.28-.66-5.85-1.18a.56.56,0,0,1,.21-.16c1.22-.57,5.47.62,10.91,0a9.42,9.42,0,0,0,3.4-.84,2.68,2.68,0,0,0,.74-.62c.94-1.14,1-2.21.25-3a1.4,1.4,0,0,0-1.23-.36,5.87,5.87,0,0,0-1.5.33c-1.48.49-5.87,1.87-11.9,3.76-.68,0-.83,0-.84-.07-.14-.5,8.57-3.58,11.42-4.82a3.08,3.08,0,0,0,1-.64c.18-.24,0-.42-.24-.56-1-.56-3.22-.57-5.31-.54-2.36,0-5,.32-6.5,1-2.34,1.17-.72,3.28-1.87,6,0,0-.17.38-.41.43C20.39,32.88,19.56,30,17.34,29Z"/><path class="cls-7" d="M14.89,31.49a.7.7,0,0,0-.7-.21,2.57,2.57,0,0,0-.83.32,29.63,29.63,0,0,0-2.72,1.64c-.2.13-.4.28-.31.37s.28.07.48.07c2.12,0,4.9-.33,5.91.27.63.39.32,1.08-.54,1.73a14.86,14.86,0,0,1-3.62,1.81c-.69.25-1.54.61-1.4.85.05.08.23.13.41.16l2,.43q1.66-1.27,3.59-2.54a5.19,5.19,0,0,1,1.67-.79,4.12,4.12,0,0,1,1.85,0c1.78.37,2.69,1.19,2.46,2.22a21.74,21.74,0,0,0,3.73-1.36,1.79,1.79,0,0,0,.67-.43c.15-.25-.36-.33-.78-.4-2.13-.36-3-1.39-2.26-2.63a1.1,1.1,0,0,1,.52-.46,4.94,4.94,0,0,1,1.49-.3l7.39-.62a2.24,2.24,0,0,0,.44-1.28.27.27,0,0,0-.21-.28,3.35,3.35,0,0,0-1.29.09L28.17,31a9.71,9.71,0,0,1-2.85.26c-1-.16-.7-.87.18-1.47a28,28,0,0,1,3.34-1.68c.22-.11.46-.24.42-.33s-.14-.07-.24-.09a20.18,20.18,0,0,0-4.46-.09l-2,2.87c-.62.9-1.5,1.55-3.75,1.71C17,32.31,15.46,32.06,14.89,31.49Z"/><g class="cls-8"><path class="cls-9" d="M7.5,38.07a1.31,1.31,0,0,0-.53.25c-.26.27.26.3.82.16l.63-.15a2.61,2.61,0,0,1,.65-.14c.06,0,.13,0,.09,0A1.77,1.77,0,0,0,8.61,38,4.09,4.09,0,0,0,7.5,38.07Z"/><path class="cls-9" d="M7.79,39.11c-.66.36,0,.57.77.25l.72-.31a2.52,2.52,0,0,0,.57-.29c.05,0,0-.09,0-.11A4.31,4.31,0,0,0,7.79,39.11Z"/><path class="cls-9" d="M10.66,39.28a4.76,4.76,0,0,0-.72.33c-.22.11-.47.21-.7.31-.64.3,0,.52.68.23.24-.11.47-.24.69-.36a3.28,3.28,0,0,0,.66-.39C11.46,39.22,11.07,39.13,10.66,39.28Z"/><path class="cls-9" d="M13.37,39.56a3.59,3.59,0,0,0-.86.74c-.47.38.83.34,1.26,0s.65-.65.26-.78A1.07,1.07,0,0,0,13.37,39.56Z"/><path class="cls-9" d="M21.06,38.67a.6.6,0,0,0-.2.75c.05.12.34.16.73.07s.69-.28.62-.4-.07-.38-.12-.56S21.31,38.45,21.06,38.67Z"/><path class="cls-9" d="M24.25,37.84c-.44.26-.32.53-.14.7a1.33,1.33,0,0,0,1-.07c.41-.16.48-.34.28-.44a2.38,2.38,0,0,0-.66-.31A.9.9,0,0,0,24.25,37.84Z"/><path class="cls-9" d="M27.08,36.82c-.33.16-.4.33-.31.45s.25.2.52.24a1.85,1.85,0,0,0,1-.24c.27-.17.2-.3-.06-.35.09,0,0,0,0,0l-.09,0-.08,0-.07,0s0,0,0,0l-.06,0a.61.61,0,0,0-.25-.08A1.3,1.3,0,0,0,27.08,36.82Z"/><path class="cls-9" d="M28.54,36.08c.14.3.91.53,1.73.32.46-.12.66-.38.46-.49a2.34,2.34,0,0,0-.93-.09,8.13,8.13,0,0,0-1,0C28.64,35.89,28.51,36,28.54,36.08Z"/><path class="cls-9" d="M34.75,31.74c-.35.09-.64.32-.38.38a3.56,3.56,0,0,0,.94,0,6.82,6.82,0,0,0,1.16-.1c.59-.12.74-.44.37-.49a5,5,0,0,0-1,0A7.23,7.23,0,0,0,34.75,31.74Z"/><path class="cls-9" d="M37,30.37a11.9,11.9,0,0,0-1.71.44c-.38.14-.41.33,0,.33A10.63,10.63,0,0,0,37,30.92a1.61,1.61,0,0,0,.79-.32c.09-.09.1-.15,0-.21S37.35,30.31,37,30.37Z"/><path class="cls-9" d="M37.91,29a7.3,7.3,0,0,0-2.19.86c-.18.13,0,.25.3.16.67-.17,1.32-.38,2-.56C38.84,29.23,38.76,28.78,37.91,29Z"/><path class="cls-9" d="M36.5,28.25a7.59,7.59,0,0,0-.7.38,3.76,3.76,0,0,0-.53.36c-.21.16,0,.29.44.14s.58-.2.86-.32.56-.25.81-.38.2-.29,0-.32A1.56,1.56,0,0,0,36.5,28.25Z"/><path class="cls-9" d="M33.05,26.52a4.71,4.71,0,0,0-1.75,1.1c-.09.14.29.17.6.06.72-.26,1.31-.61,1.94-.9S33.82,26.18,33.05,26.52Z"/><path class="cls-9" d="M30.59,26.2c-.82.38-.89.84-.74,1.12s.75,0,.83-.16.69-.62.91-.93S31,26,30.59,26.2Z"/><path class="cls-9" d="M27.79,26.2a2.1,2.1,0,0,0-.64.52c-.11.16-.06.36.44.25a2,2,0,0,0,.7-.32l.52-.34c.23-.16.22-.31-.06-.34A1.8,1.8,0,0,0,27.79,26.2Z"/><path class="cls-9" d="M24.11,26.56c.05.19.09.47.44.56a.81.81,0,0,0,.51-.1c.46-.26.47-.58.39-.78S24,26.27,24.11,26.56Z"/><path class="cls-9" d="M15,29.72c0,.3.21.54.33.79s.87,0,.86-.2a1.78,1.78,0,0,0-.08-.86C15.94,29.22,15,29.46,15,29.72Z"/><path class="cls-9" d="M12.22,31.1l.53.13.22,0,.24,0c.16.05.48-.07.47-.16s.06-.1.06-.14a.34.34,0,0,0-.05-.14.77.77,0,0,0-.4-.25C12.81,30.46,11.73,31,12.22,31.1Z"/><path class="cls-9" d="M9.11,32.59A9,9,0,0,0,11,32.5c.27,0,.49-.2.33-.25a5,5,0,0,0-1.52-.2C9.18,32.06,8.55,32.54,9.11,32.59Z"/><path class="cls-9" d="M7.47,33.74c-.69.16-.78.59-.07.47a10.82,10.82,0,0,0,1.89-.44c.38-.15.43-.34.05-.34A11.21,11.21,0,0,0,7.47,33.74Z"/></g><path class="cls-10" d="M16.71,33c-.16.1-.13.2-.05.26.42.33,1.91.25,1.92.69,0,.24-.43.53-.68.8s-.19.58.42.52a12.3,12.3,0,0,0,1.57-.43,2.85,2.85,0,0,1,1.2,0,7.71,7.71,0,0,1,.77.26,1,1,0,0,0,.37.05,1.39,1.39,0,0,0,.77-.36c.38-.4.1-.7,0-1s0-.76.81-1.11c.65-.27,1.66-.46,1.93-.78.14-.16-.05-.29-.36-.31a4.81,4.81,0,0,0-1.14.12,3.19,3.19,0,0,1-.57.09c-.42,0-.43-.2-.26-.39s.47-.4.49-.57-.11-.16-.32-.1a1.23,1.23,0,0,0-.23.09c-1,.52-1.79,1.55-3.23,1.85C19.29,32.78,17.27,32.59,16.71,33Z"/><ellipse class="cls-2" cx="133.88" cy="42.37" rx="11.33" ry="1.8"/><path class="cls-12" d="M140.89,2.43c8.79,5.31,8.77,16.91,8.76,19.38,0,3.42,0,11.67-6.59,17.05-5.79,4.75-12.83,4.12-14.48,3.92l.54-42.6A18.45,18.45,0,0,1,140.89,2.43Z"/><path class="cls-4" d="M140.89,40.48a18.51,18.51,0,0,1-11.77,2.25l-.07-5.51c1.43-.14,2.89,0,4.33-.1a17.14,17.14,0,0,0,16.27-15.61C149.64,24.65,149.26,35.42,140.89,40.48Z"/><path class="cls-13" d="M125,12.71a42.13,42.13,0,0,0,.7,8.81,42.13,42.13,0,0,0-.7,8.81c.16,7.76,2.23,13.33,4.61,12.44,1.6-.59,2.94-3.94,3.6-8.41h0q.22-1.5.33-3.15c.23-2.48.43-5.88.43-9.95,0-3.89-.22-7.14-.43-9.52-.07-1-.18-2-.31-3h0c-.66-4.53-2-7.93-3.62-8.53C127.26-.62,125.19,5,125,12.71Z"/><path class="cls-5" d="M125.48,13.65c0,.26,0,2,.13,4.21.08,1.56.2,2.81.29,3.67-.1.95-.21,2.27-.29,3.9-.11,2.09-.14,3.79-.13,4.21.15,7,2,12.1,4.19,11.3,1.45-.54,2.67-3.58,3.27-7.65h0c.13-.9.23-1.86.3-2.85.2-2.25.39-5.34.38-9,0-3.54-.19-6.48-.38-8.65-.07-.92-.16-1.82-.29-2.67h0c-.59-4.12-1.81-7.2-3.28-7.74C127.51,1.54,125.63,6.6,125.48,13.65Z"/><path class="cls-6" d="M127,18.87c.49,1.05,1.23.84,1.56-.67.25-1.12.12-2,.31-3.55.25-2.1.95-3,1.5-2.21s.94,2.9,1.08,5.17a16.14,16.14,0,0,0,.15,1.81c.2,1.16.64,1,.71,1s.5-.05.71-1.19a19.78,19.78,0,0,0-.17-5c-.85-7-2.6-8.93-2.6-8.93-1.3-1.4-3.31-.72-3.87,4.11C126,12.49,126.22,17.26,127,18.87Z"/><path class="cls-9" d="M126.82,13.33a2.4,2.4,0,0,0,.11,1.35c.18.23.35,1,.55.8a.55.55,0,0,0,.06-.28,4,4,0,0,0-.14-1c0-.13-.07-.27-.1-.39a4.21,4.21,0,0,1-.12-.42C127.09,12.94,126.92,12.82,126.82,13.33Z"/><path class="cls-9" d="M127.39,9.4a2.94,2.94,0,0,0,0,1.56,5.44,5.44,0,0,1,.13.57c.06.22.12.44.18.63s.16.5.22.29a3.89,3.89,0,0,0,0-1.08c0-.25-.06-.48-.09-.71s-.09-.52-.1-.77C127.72,9.25,127.52,9,127.39,9.4Z"/><path class="cls-9" d="M128.56,7.1c-.15.08-.25.78-.16,1.33,0,.2,0,.49,0,.71s0,.51.06.75.07.63.15.56a2.26,2.26,0,0,0,.11-.81c0-.44,0-1,.05-1.42C128.87,7.61,128.71,7,128.56,7.1Z"/><path class="cls-9" d="M129.66,7.45c0,.38,0,.76,0,1.14a10.09,10.09,0,0,0,0,1.1c0,.23.08.39.15.32a6,6,0,0,0,.33-2.11,2.05,2.05,0,0,0-.15-1C129.83,6.75,129.68,7,129.66,7.45Z"/><path class="cls-9" d="M131,9.11a11.84,11.84,0,0,0-.24,1.59c0,.25,0,.54.1.53s.16-.1.24-.31a3.63,3.63,0,0,0,.21-.85,2.47,2.47,0,0,0,0-1C131.2,8.82,131.08,8.81,131,9.11Z"/><path class="cls-9" d="M132,12.28a3.92,3.92,0,0,0-.38,1.45.91.91,0,0,0,.08.56c.16.16.37-.3.5-.67C132.4,13.05,132.22,11.83,132,12.28Z"/><path class="cls-9" d="M132.46,16.82v0s0,.08-.08.12-.09.15-.13.25a1.21,1.21,0,0,0-.08.59c0,.33.16.31.24.33a.23.23,0,0,0,.31-.14,2.51,2.51,0,0,0,0-1.31C132.63,16.4,132.52,16.5,132.46,16.82Z"/><path class="cls-6" d="M127,25.09c.49-1,1.23-.83,1.56.67.25,1.13.12,2,.31,3.55.25,2.11.95,3,1.5,2.21s.94-2.9,1.08-5.16a16.33,16.33,0,0,1,.15-1.82c.2-1.15.64-1,.71-1s.5.06.71,1.19a19.74,19.74,0,0,1-.17,5c-.85,7-2.6,8.93-2.6,8.93-1.3,1.41-3.31.73-3.87-4.1C126,31.47,126.22,26.7,127,25.09Z"/><path class="cls-9" d="M126.82,30.64a2.39,2.39,0,0,1,.11-1.35c.18-.23.35-1,.55-.81a.6.6,0,0,1,.06.29,4,4,0,0,1-.14,1c0,.14-.07.27-.1.4a4.21,4.21,0,0,0-.12.42C127.09,31,126.92,31.15,126.82,30.64Z"/><path class="cls-9" d="M127.39,34.57a3,3,0,0,1,0-1.57,5.22,5.22,0,0,0,.13-.56c.06-.23.12-.44.18-.64s.16-.49.22-.28a3.89,3.89,0,0,1,0,1.08c0,.25-.06.48-.09.71s-.09.52-.1.76C127.72,34.72,127.52,35,127.39,34.57Z"/><path class="cls-9" d="M128.56,36.87a2,2,0,0,1-.16-1.34c0-.19,0-.49,0-.71l.06-.74c0-.22.07-.64.15-.57a2.3,2.3,0,0,1,.11.81c0,.45,0,1,.05,1.43C128.87,36.36,128.71,36.94,128.56,36.87Z"/><path class="cls-9" d="M129.66,36.52c0-.38,0-.76,0-1.14a10.09,10.09,0,0,1,0-1.1c0-.24.08-.4.15-.33a6.06,6.06,0,0,1,.33,2.12,2.05,2.05,0,0,1-.15,1C129.83,37.21,129.68,37,129.66,36.52Z"/><path class="cls-9" d="M131,34.86a12.25,12.25,0,0,1-.24-1.6c0-.25,0-.54.1-.53s.16.1.24.31a3.63,3.63,0,0,1,.21.85,2.46,2.46,0,0,1,0,1C131.2,35.15,131.08,35.15,131,34.86Z"/><path class="cls-9" d="M132,31.68a3.92,3.92,0,0,1-.38-1.45.93.93,0,0,1,.08-.56c.16-.16.37.31.5.67C132.4,30.91,132.22,32.14,132,31.68Z"/><path class="cls-9" d="M132.46,27.15v0a1.48,1.48,0,0,1-.08-.13,1.73,1.73,0,0,1-.13-.24,1.21,1.21,0,0,1-.08-.59c0-.33.16-.32.24-.33a.22.22,0,0,1,.31.13,2.52,2.52,0,0,1,0,1.31C132.63,27.57,132.52,27.46,132.46,27.15Z"/><path class="cls-7" d="M131,20.72c-.09-.79.15-1.9.06-2.32s-.26.31-.4,0c-.2-.52-.05-2.6-.17-2.81s-.45,2.43-.66,2.19-.1-1.9-.3-2.14-.28.45-.33.62a15.1,15.1,0,0,0-.22,1.84,3.72,3.72,0,0,1-.71,1.93,1.17,1.17,0,0,1-1.43.64,1,1,0,0,1-1-.73,8.27,8.27,0,0,1-.57-1.86c0,.54.12,1.15.21,1.79s.18,1.14.29,1.68c-.12.61-.23,1.25-.32,1.91.94-1,1.69-.82,2.15-.55a3.06,3.06,0,0,1,1.38,2.61,11.82,11.82,0,0,0,.14,1.35s.15.62.3.44.14-1,.23-1a10.43,10.43,0,0,1,.29,1.62c.08.41.22,1.1.34,1a4.35,4.35,0,0,0,.21-1.32c.06-.88,0-1.26.07-1.52s.26.14.36-.25a4.39,4.39,0,0,0,0-.69c0-1,0-1.49,0-1.71,0-.55.35-1.12,1.71-1.27l-1.41-.89C131.12,21.21,131,21.1,131,20.72Z"/><path class="cls-10" d="M129,23.87a3.63,3.63,0,0,0,.16.65c.06.14.15.1.19-.17,0-.08,0-.18,0-.26,0-.34.17-.15.25,0a1.46,1.46,0,0,0,.29.46s.1.06.12-.1a3.12,3.12,0,0,0,0-.44,1.78,1.78,0,0,1,.18-.86,1.67,1.67,0,0,0,.27-.45,2.26,2.26,0,0,0,.07-.73c0-.47-.22-.41-.28-.83s0-.87,0-1.25-.23-.36-.34-.17-.27.36-.35-.05c0-.11,0-.25,0-.35s-.12-.19-.17-.09a2.91,2.91,0,0,0-.15.47c-.25,1-.58,1.59-.93,1.71a.49.49,0,0,0-.12.45.22.22,0,0,0,.07.17C128.48,22.31,128.76,22.71,129,23.87Z"/><path class="cls-14" d="M125.57,22.39a1.53,1.53,0,0,1,1.19-.78,3.11,3.11,0,0,1-1.31-1.75c.08.57.17,1.13.28,1.66C125.67,21.8,125.62,22.09,125.57,22.39Z"/></g></g></svg>