<svg xmlns="http://www.w3.org/2000/svg" viewBox="0 0 162.81 58.47"><defs><style>.cls-1{fill:#985b12;}.cls-2{fill:#804805;}.cls-3{fill:#663600;}.cls-4{fill:#b16f21;}.cls-5{fill:#bb7f2d;}.cls-6{fill:#e9cf79;}.cls-7{fill:#e2bc5b;}</style></defs><g id="Layer_5" data-name="Layer 5"><path class="cls-1" d="M2.31,36.49c0,.34,0,.67,0,1v0a25.75,25.75,0,0,0,.47,3.27A18.26,18.26,0,0,0,8,50.75c2.38,2.31,6.08,1.91,9.44,2.12,8.07.51,16.34.07,24.35,1,10.86,1.32,21.88-.88,32.81.16l1.91.16,1.46.08c1,0,1.94.09,2.92.11l1.46,0c2.34,0,4.68.06,7,.1l2,0,1.27,0,1.27.05,1.27,0c6,.28,11.87,1.18,17.83,1.52,4.7.27,9.41-.42,14.1-.57,1.24,0,2.49,0,3.73,0l.75,0,.74,0,.74,0,1.1.08.67.05L136,56l.19,0,1.23.11,1.66.17h.11l.76.07c.59.06,1.2.11,1.81.15l.67,0,.57,0c.21,0,.42,0,.64,0l.94,0c.63,0,1.26,0,1.9,0h5.75l1.74,0,1,0h.34l-.09-3.85-1-44.47,0-1.76c-12.73.47-26.18,2.59-39,2.4h-.28c1.68-1.43,4.51-1.67,6-3.19,1.2-1.23-.3-2.08-1.65-3.48-1.09-1.13-2.52-.66-4-.25-2.72.77-5.27,2-7.93,2.94l-.34.13c-.56.2-1.13.39-1.69.57a132.37,132.37,0,0,1-30.09,6c-8.8.8-17.52,1.78-26.29,2.52q-2.94.24-5.9.45l-.27,0c-3.11.22-6.09.6-9.18,1-5.69.78-11.44,1.11-17.16,1.7l-.75.06-1.63.1-.77.06-.47.05-.46.06c-.32.05-.63.1-.93.17l-.2.05-.22.06-.22.06-.21.07-.4.16-.2.09-.18.09a1.18,1.18,0,0,0-.19.11.87.87,0,0,0-.18.11l-.16.11c-3.76,2.75-5.51,7.4-6.35,11.6l-.18,1c-.08.48-.15,1-.2,1.44,0,.27-.06.55-.08.82s0,.31,0,.46,0,.45,0,.68C2.31,35.4,2.3,36,2.31,36.49Z"/><path class="cls-2" d="M104.75,6.12l.53-.38a132.37,132.37,0,0,1-30.09,6c-8.8.8-17.52,1.78-26.29,2.52,9.28-.5,18.55-.08,27.84-.63C85.85,13.07,97.44,11.72,104.75,6.12Z"/><path class="cls-2" d="M2.73,33s0,.06,0,.09v0a24.09,24.09,0,0,0,.48,3.27,18.15,18.15,0,0,0,5.2,9.93c2.38,2.32,6.08,1.92,9.45,2.13,8.06.51,16.33.07,24.34,1,10.87,1.32,21.89-.88,32.81.16l1.91.16,1.46.08c1,.05,2,.09,2.92.11l1.46,0c2.34,0,4.68.06,7,.09l2,0,1.27,0,1.27.05,1.27,0c6,.28,11.87,1.18,17.83,1.52,4.7.26,9.41-.42,14.1-.57,1.25,0,2.49,0,3.73,0l.75,0,.74,0,.75,0,1.09.08.67.05,1.08.09.19,0,1.23.11,1.66.17h.11l.76.07c.6.06,1.2.11,1.82.15.22,0,.44,0,.67,0a5.12,5.12,0,0,0,.56,0l.64,0,.95,0,1.89,0h3.81s0,0,.05,0h3.63l1,0,0-2h0a32.82,32.82,0,0,1-4.71-.73l-.2,0-.64-.13-.65-.12c-3.26-.59-6.5-1.26-9.79-1.79-12.1-1.9-24.56-1.53-36.75-1.26-4.11.09-9.7.75-13.67-.36-3.68-1,.82-3.38,2.65-4.1,1-.41,3.33-.71,3.6-2,.48-2.33-3.87-2.5-5.36-2.82a100.61,100.61,0,0,0-24.53-2.38c-6.66.22-13.3.65-20,.49-3.72-.09-7.46-.72-11.14-1.17-3.51-.43-7.81-.25-11-1.8-1.69-.83-3.42-2.36-2.26-4.26,1.32-2.14,5.35-1.48,7.44-1.61,7.39-.47,15.08,1.26,22.36-.29,1.57-.33,4.25-.64,3.09-2.5C53.06,22.31,50.09,22,49,21.68a46.28,46.28,0,0,0-7.46-1.5c-3-.36-6.1-.95-9.14-1.14-3.57-.21-.18-1.17,3.25-1.61,12.48-1.61,17.74-2.16,21.84-2.32,29.69-1.17,41.64-7.08,39.72-7L55.75,10c-8.91.67-18.72.95-21.81,1.37-5.69.78-11.44,1.11-17.16,1.69l-.75.07-1.63.1-.76.06-.47.05-.47.06c-.31,0-.63.1-.93.17l-.2,0-.22.06-.21.06-.22.07-.4.16-.19.09-.19.09-.18.1-.18.11-.17.12c-3.75,2.75-5.51,7.4-6.35,11.6-.06.33-.12.66-.17,1q-.13.72-.21,1.44c0,.27-.06.55-.08.82s0,.31,0,.46,0,.45,0,.68c0,.54,0,1.09,0,1.63Z"/><path class="cls-2" d="M113.94,10.29c7,.13,14.09-.31,21.08-.57,5.1-.19,10,.1,15.08-.66,1.37-.21,2.73-.45,4.09-.68l0-1.76c-12.73.47-17.56,0-37.95,1.56A4.11,4.11,0,0,0,113.94,10.29Z"/><path class="cls-3" d="M2.34,37.4a.28.28,0,0,0,0,.09v0a25.75,25.75,0,0,0,.47,3.27c.86,4,2.16,8.24,4.51,11.59,2,2.81,6.17,4.29,9.43,4.41,11.38.41,17.25-.46,25.15-.47,11,0,15.52-.37,27.41.11.64,0,5.71-.52,6.34-.48s3.28-.31,3.77-.28c1,.05,1.46-.1,2.43-.08.49,0,1.85-.08,2.33-.07,2.34.05,3.25,0,5.59,0,.68,0,1.65-.09,2.33-.07.42,0,1-.07,1.48-.06s.92-.23,1.35-.21l2.29.15c6,.28,9.89.54,15.85.88,4.7.27,9.41-.42,14.1-.57,1.24,0,2.49,0,3.73,0l.75,0,.74,0,.74,0,1.1.08.67.05L136,56l.19,0,1.23.11c.55.06.8.1,1.42.21.2.06.32.11.36.11a7.75,7.75,0,0,0,1.11.21,37.38,37.38,0,0,0,6.19.23l.35,0a7.22,7.22,0,0,0,1.11.11c2.82,0,4.31-.47,7-.36V53.81a33.06,33.06,0,0,1-4.73-.7,6.32,6.32,0,0,1-1.41.58h-.05a24.56,24.56,0,0,1-3.8.66c-4.84.4-9.61-.63-14.44-.57-5.44.08-11.45.15-18.31.08-6.24,0-12.38-1.22-18.64-1.13a63.28,63.28,0,0,1-8.8-.28c-3.56-.43-7.08-.1-10.66-.24-6-.22-12-.67-18-1.37-2.2-.25-4.43-.43-6.64-.69-1.83-.21-6.54.21-7.9-1.15-1.1-1.1.42-1.4,1.73-1.68a65,65,0,0,1,7.63-.72c5.16-.5,10.21-1.61,15.4-1.94,7.7-.48,15.31-1.38,23-1.55-10.82.25-12.48-1.22-18.84-1.32-5.45-.08-10.86.36-16.3.55-9.42.33-18.67-.17-28.07-.63-3.77-.19-15.31.6-14.43-5.43.35-2.44,2.51-4,4.7-5,7.18-3.52,17.81-4.29,25.63-4.66-11.23-.89-12.08-.44-17-.71-4.49-.24-13.22,1.74-14.08-3.89A40.91,40.91,0,0,1,11,16.76c-.43-4.94-4.27.67-4.32.71-3.31,4.67-3.8,9-4.09,12.82,0,.33,0,.9-.07,1.23-.08.48,0,.9,0,1.38,0,.27-.06.55-.08.82s0,.31,0,.46,0,.45,0,.68c0,.54,0,1.09,0,1.63C2.31,36.79,2.32,37.1,2.34,37.4Z"/><path class="cls-4" d="M140.88,15.22c-.69.08-1.37.13-1.72.19A38.81,38.81,0,0,1,135,16c-2.47.16-4.94.4-7.42.49-9.28.35-18.63.77-27.92.77-8.37,0-16.75-.56-25.12-.23-6.28.25-13,.26-19,2.37,1.32-.47,3.8,0,5.22-.05,1.94,0,3.87,0,5.8.13,3.65.22,7.09,1.24,10.69,1.74-.9.94-3,1-4.23,1.2a36.7,36.7,0,0,1-11.17.12c-4.15-.53-8.15-1.64-12.38-1.72-3.54-.06-8.74-.33-12.08.87,1-.35,3.15.27,4.17.42,1.38.21,2.75.48,4.1.78,2.73.61,5.41,1.35,8.11,2A69.83,69.83,0,0,0,69.9,27.35a34.6,34.6,0,0,0,8.29-1.09c4.47-1.08,9-2,13.56-2.65a140.09,140.09,0,0,1,15.31-1.31c5.2-.19,10.4.09,15.61.07a49.55,49.55,0,0,1,7,.47c1.25.17,5.88.36,6.64,1.33-2.12-2.72-7.86-4.08-11.38-4.06a44.53,44.53,0,0,0,5.89-.69c4-.64,8.93-2,11.88-4.69A4.22,4.22,0,0,1,140.88,15.22Z"/><path class="cls-4" d="M27.75,35.06c7.7.41,15.49-.79,23.19-1.09,9.91-.4,19.51-2.26,29.34-3.33,10.29-1.12,20.45-3.51,30.8-4,7.83-.37,15.09,1.27,22.63,2.85a179.06,179.06,0,0,0-22.54,1.77c-4.55.61-9.16.61-13.7,1.24-4,.55-7.88,1.41-11.86,1.93-8,1.05-16,1.71-24.09,2.36a154.55,154.55,0,0,1-19.36.68C37,37.26,32.51,36.82,27.75,35.06Z"/><path class="cls-2" d="M87.82,39.26c3.88-.06,7.87-1.07,11.63-1.69a87,87,0,0,1,17.6-1,66.82,66.82,0,0,0,8.13,0A61.77,61.77,0,0,0,133.65,35,68.17,68.17,0,0,1,147,34c.33,1.12-.54,2.33-.12,3.55a18.63,18.63,0,0,0,2.25,3.59c.87,1.31,2.18,2.19,2.45,3.67-2.56-.35-5-1.5-7.58-2a45.66,45.66,0,0,0-9.26-.91c-3.5,0-7,.25-10.5.23A69.58,69.58,0,0,1,113,40.86c-3-.5-5.79-1.13-8.85-1.36-2.45-.19-4.93-.2-7.4-.35C93.72,39,90.84,39.44,87.82,39.26Z"/><path class="cls-2" d="M116.36,1.88a.78.78,0,0,1,.38-.3,3.94,3.94,0,0,1,3.5.74,3.44,3.44,0,0,1,1.27,2.48c-.1,2.44-4.1,0-4.79-1C116.42,3.38,116,2.42,116.36,1.88Z"/><path class="cls-2" d="M119.05,2.31a6,6,0,0,1,.72.36,2.06,2.06,0,0,1,1.32,2c-.14,1.11-2.56-.12-3-.44s-1.66-1.35-.93-1.95C117.59,1.84,118.39,2,119.05,2.31Z"/><path class="cls-3" d="M148.76,32.35c0,2.16,0,4.33.14,6.43a75.16,75.16,0,0,0,1.81,11.54c1.08,4.91,3.92,7.72,6,5.75,1.29-1.24,2.1-2.29,2.68-5.29.22-1.16.21-2.48.42-3.57a16.45,16.45,0,0,0,.5-2.75c.16-2.91-.13-6,.08-8.86a61.38,61.38,0,0,0-.09-9.19,57.6,57.6,0,0,0-1.56-11,21.92,21.92,0,0,0-1.58-3.76c-.48-1-.67-2.51-1.25-3.27-.36-.47-.55-1.18-1-1.53a1.62,1.62,0,0,0-1.39-.34c-1,.09-2.15,1.54-2.74,3.41a42.1,42.1,0,0,0-1.27,7.9c-.29,3.13-.59,6.41-.68,9.64C148.81,29,148.77,30.68,148.76,32.35Z"/><path class="cls-5" d="M150,42.15c.19,1.29.36,2.38.64,3.59.26,1,.35,2.26.61,3.29a15.32,15.32,0,0,0,2.43,5.24c1.32,1.89,3.2.39,4.21-1.72A18.27,18.27,0,0,0,159.24,47a33,33,0,0,0,.49-3.87c0-1.15,0-2.26.1-3.4.06-1.3,0-2.58,0-3.89s.14-2.43.17-3.68a56.56,56.56,0,0,0-.35-7.13c-.25-2.25-.49-4.69-.89-6.83a17,17,0,0,0-1.62-4.62,13,13,0,0,1-1.1-3c-.52-2-1.6-2.69-2.61-2a4.41,4.41,0,0,0-1.63,1.43,10.9,10.9,0,0,0-1,3.76c-.11.78-.13,1.63-.24,2.4s-.3,1.51-.39,2.34c-.19,1.76-.23,3.79-.39,5.6a94.7,94.7,0,0,0-.12,11.19c.06,1.52.07,3,.13,4.51A21.34,21.34,0,0,0,150,42.15Z"/><path class="cls-6" d="M157,16.19A22.15,22.15,0,0,1,158.3,22c.16,2.11.5,4.22.61,6.34.18,3.51,0,7-.16,10.48a43.11,43.11,0,0,1-.9,8.86,25.08,25.08,0,0,1-.93,2.85c-.49,1.34-1.17,1.3-1.95,1.09s-1.17-.38-1.64-1.6A30.63,30.63,0,0,1,152,44.78a36.07,36.07,0,0,1-.84-5.53c-.08-2,0-4-.16-6a89.14,89.14,0,0,1,.15-9.11c.07-1.52,0-3.15.17-4.63s.56-2.79.84-4.14c.57-2.71,1.66-3.85,3-2.8a3.13,3.13,0,0,1,1.15,1.85Z"/><path class="cls-7" d="M155.42,17.7a20.77,20.77,0,0,1,1.5,4.88c1,4.52.93,10.18.78,15-.09,2.94-.56,9.83-2.48,9.63s-2.49-7.2-2.68-10.06c-.33-5-.65-10.32,0-15.12a11.72,11.72,0,0,1,1.4-4.45C154.49,16.76,155,17,155.42,17.7Z"/><path class="cls-6" d="M155.13,21.75c1.1,1.44,1.38,5.43,1.53,7.69a43.09,43.09,0,0,1,.11,6.62c-.2,2.4.18,5.54-1.15,6.83-.66.66-.91-.23-1.24-1.4a18.58,18.58,0,0,1-.57-4.29,101.5,101.5,0,0,1-.13-10.75C153.72,25.7,154.3,20.3,155.13,21.75Z"/><path class="cls-7" d="M155.38,27a17,17,0,0,1,.46,3.79c.1,1.1.13,2.17.16,3.28a24.35,24.35,0,0,1-.11,2.44,4.68,4.68,0,0,1-.22,1.49c-.21.35-.52-.26-.63-.71a16.93,16.93,0,0,1-.36-2.57,38.06,38.06,0,0,1,0-5.85A6.2,6.2,0,0,1,155,27C155.16,26.65,155.33,26.69,155.38,27Z"/><path class="cls-3" d="M155.6,9.93c0,.12-.34,4-.5,6.49,0,0,.14-5.61.12-7.58S155.6,9.93,155.6,9.93Z"/><path class="cls-3" d="M151.09,10.53l1.46,9.81s-1.3-7.72-1.76-9.16Z"/><path class="cls-3" d="M159.63,22l.21,1.2a10.39,10.39,0,0,1-1.28,2.69A10.56,10.56,0,0,0,157.08,28,35.67,35.67,0,0,1,159.63,22Z"/><path class="cls-1" d="M150.89,26.18a8.31,8.31,0,0,1,2,3.34S151.71,28.86,150.89,26.18Z"/><path class="cls-3" d="M153.39,55.58c.17-4.95.91-14.39.91-14.39s-.39,3.65-.73,5.74-.93,7.26-.93,7.26Z"/><path class="cls-3" d="M150.82,48.71c0-.07.43-2.66.43-2.66l-.67,2.27Z"/><path class="cls-3" d="M152.08,52.24c0-.39.42-2,.42-2L152.25,53Z"/><path class="cls-3" d="M160.19,31.9l0,1.92A4.52,4.52,0,0,0,159,32.59C159.65,32.78,160.13,31.82,160.19,31.9Z"/><path class="cls-1" d="M158.1,44.86a79.93,79.93,0,0,0-2.19-9.8A54,54,0,0,0,158.1,44.86Z"/><path class="cls-1" d="M154.78,27.63c0,.24.56,3.37.62,4.43,0,0,.75,1.31.89,1.43s-1.14-.14-1.14-.14l-.92,1.43L155,31.9Z"/><path class="cls-1" d="M155.66,19a45.47,45.47,0,0,1-.37,6A42.09,42.09,0,0,1,155.66,19Z"/><polygon class="cls-3" points="149.57 37.43 151.14 36.92 149.55 38.76 149.57 37.43"/><path class="cls-3" d="M149.66,20.3c0-.22,1.2,2.58,1.2,2.58l-1.4-1.46Z"/><polygon class="cls-3" points="153.54 6.88 153.75 12.54 153.21 6.89 153.54 6.88"/><path class="cls-3" d="M158.23,15l.17,1.15s-.46,1.55-.47,1.53S158.23,15,158.23,15Z"/><path class="cls-3" d="M157.54,55.12l-.33.31-.29-5.36S157.47,54.71,157.54,55.12Z"/><path class="cls-3" d="M160.15,43.12l0,1.49-1-2.26A7.63,7.63,0,0,0,160.15,43.12Z"/><path class="cls-1" d="M155.28,45a64.58,64.58,0,0,1,.17,7.14A60,60,0,0,1,155.28,45Z"/><path class="cls-1" d="M157.74,36.66s.81,0,1.58,2A4.11,4.11,0,0,1,157.74,36.66Z"/></g></svg>