<svg xmlns="http://www.w3.org/2000/svg" viewBox="0 0 170.6 157.23"><defs><style>.cls-1{fill:#985b12;}.cls-2{fill:#804805;}.cls-3{fill:#5b2e02;}.cls-4{fill:#b16f21;}.cls-5{fill:#663600;}.cls-6{fill:#bb7f2d;}.cls-7{fill:#e9cf79;}.cls-8{fill:#e2bc5b;}</style></defs><g id="Layer_6" data-name="Layer 6"><path class="cls-1" d="M159.05,13.13c-.23-.29-.47-.58-.71-.85l0,0a24.2,24.2,0,0,0-2.65-2.51A18.87,18.87,0,0,0,144.14,5c-3.76-.23-6.93,2.93-10.19,5.29-7.82,5.68-15.19,12.33-23.27,17.55C99.71,34.88,91,45.17,80.14,52.55c-.64.42-1.26.86-1.88,1.31s-1,.68-1.41,1c-.94.69-1.86,1.4-2.78,2.11l-1.38,1.08c-2.2,1.73-4.38,3.49-6.57,5.24L64.2,64.83l-1.2.94-1.21.92-1.21.92c-5.73,4.28-11.81,8-17.56,12.18C38.48,83.13,34.57,87.3,30.33,91c-1.14,1-2.29,1.92-3.48,2.83l-.71.54-.71.53-.72.52-1.07.77c-.21.15-.43.31-.66.46l-1.06.74-.18.12-1.22.84-1.65,1.11-.11.08L18,100c-.59.4-1.18.81-1.78,1.25-.22.15-.43.31-.64.47s-.37.27-.54.41l-.61.46-.9.69-1.77,1.42,0,0-.11.09L10.19,106l-.52.43-1.45,1.19s0,0,0,0l-1.75,1.44c-.54.44-1.08.88-1.62,1.3l-.95.75-.32.25,2.68,3.31L37.12,153l1.22,1.51c11.5-10.06,22.54-22.13,34.55-31.68l.27-.21c-.59,2.52-3.06,4.88-3.42,7.35-.28,2,1.68,1.59,3.88,1.8,1.77.16,2.78-1.33,3.85-2.8,2-2.74,3.56-5.74,5.37-8.59.08-.12.17-.25.24-.38.39-.59.78-1.19,1.18-1.78a173.34,173.34,0,0,1,23.86-28.09c7.62-7.37,15-14.84,22.69-22.14,1.71-1.63,3.43-3.26,5.16-4.87l.24-.23C139,60.31,141.46,57.71,144,55c4.75-5,9.86-9.65,14.77-14.5l.66-.62c.45-.43.94-.87,1.43-1.33.23-.2.45-.42.68-.63l.4-.4.39-.41c.26-.27.51-.56.75-.85l.15-.2.17-.22.15-.21.15-.22c.09-.15.19-.3.27-.45l.12-.22a2.4,2.4,0,0,0,.11-.23,1.6,1.6,0,0,0,.1-.23.92.92,0,0,0,.09-.23,2,2,0,0,0,.08-.22c1.63-5.26.12-10.67-1.93-15-.16-.34-.33-.67-.5-1s-.5-1-.78-1.42c-.15-.26-.31-.52-.47-.78s-.19-.29-.28-.43-.28-.42-.43-.62C159.78,14.08,159.42,13.6,159.05,13.13Z"/><path class="cls-2" d="M84.49,117.45c-.07.25-.15.49-.23.73a173.34,173.34,0,0,1,23.86-28.09c7.62-7.37,15-14.84,22.69-22.14-8.27,7.47-17.16,14.13-25.4,21.66C97.34,97,87.5,107,84.49,117.45Z"/><path class="cls-2" d="M161,16.51l-.07-.07,0,0a24.2,24.2,0,0,0-2.65-2.51,18.87,18.87,0,0,0-11.52-4.77c-3.76-.23-6.93,2.93-10.19,5.29-7.82,5.68-15.19,12.33-23.27,17.55C102.31,39,93.57,49.33,82.74,56.7c-.64.43-1.26.87-1.88,1.31l-1.41,1c-.94.69-1.86,1.39-2.78,2.11l-1.38,1.08c-2.2,1.73-4.38,3.49-6.57,5.24L66.8,69l-1.2.94-1.21.92-1.21.92c-5.73,4.28-11.81,8-17.56,12.18-4.54,3.34-8.45,7.51-12.69,11.19-1.14,1-2.29,1.92-3.48,2.83l-.71.54L28,99l-.72.52-1.07.77-.66.46-1.06.73-.18.13-1.22.84-1.65,1.11-.11.08-.76.51c-.59.4-1.18.81-1.78,1.24l-.64.48c-.18.13-.36.26-.54.41l-.61.46-.9.69-1.77,1.42,0,0-.11.09-1.43,1.17-.52.43-1.45,1.19s0,0,0,0L9,113.27c-.54.44-1.08.88-1.62,1.3l-1,.75L7.8,117l0,0a42,42,0,0,1,4.86-2.92l.22-.12.68-.37.67-.39c3.43-1.95,6.89-3.82,10.29-5.86,12.51-7.5,23.81-17.27,34.94-26.75,3.74-3.2,8.49-8,12.92-10,4.11-1.89,1.51,3.58.3,5.6-.69,1.15-2.61,3.16-2,4.49,1.13,2.41,5.27-.74,6.88-1.59a130.06,130.06,0,0,0,24.35-16.52c6-5.24,11.89-10.65,18.18-15.56,3.51-2.74,7.4-5,11.12-7.42,3.54-2.28,7.41-5.71,11.44-6.78,2.13-.56,4.76-.53,5,2,.22,2.88-4,5.35-5.81,7.06-6.54,6-14.83,10.32-20.55,17.2-1.23,1.48-3.5,3.79-1.17,4.54,1.42.46,4.41-1.5,5.59-2a58.69,58.69,0,0,0,7.92-4.35c3.06-2,6.3-3.78,9.25-5.93,3.45-2.52.95.9-1.93,3.88-10.49,10.88-15,15.34-18.7,18.6C95.5,97.29,88.39,111.54,90.13,110c1.19-1,37.13-33,37.21-33.12,7.81-7.35,16.72-15,19.3-17.74,4.76-5,9.86-9.65,14.77-14.5l.66-.62c.45-.43.94-.87,1.44-1.33l.67-.63c.13-.14.27-.27.4-.4l.39-.41c.26-.28.51-.56.75-.85l.15-.2L166,40l.15-.22a2.1,2.1,0,0,0,.15-.22,4,4,0,0,0,.27-.44l.12-.23a2.26,2.26,0,0,0,.11-.22,2.29,2.29,0,0,0,.1-.23.92.92,0,0,0,.09-.23,2,2,0,0,0,.08-.22c1.63-5.27.12-10.67-1.93-15-.16-.34-.33-.67-.5-1-.25-.49-.5-1-.78-1.42-.15-.26-.31-.53-.47-.78s-.19-.29-.28-.43-.28-.42-.43-.62c-.34-.5-.7-1-1.07-1.45C161.44,17,161.23,16.76,161,16.51Z"/><path class="cls-2" d="M73.17,120.75c-6.57,5.19-12.86,11-19.17,16.49-4.61,4-9.33,7.49-13.54,12-1.13,1.22-2.24,2.46-3.34,3.7l1.22,1.51c11.5-10.06,16.28-13.33,34.15-30.15A5,5,0,0,0,73.17,120.75Z"/><path class="cls-3" d="M158.41,12.35l-.07-.07,0,0a24.2,24.2,0,0,0-2.65-2.51c-3.45-2.83-7.55-5.6-12-6.75C140,2,135.07,3.89,132,6.26c-10.83,8.26-15.68,13.48-23,19.48C98.78,34.07,94.81,37.83,83.46,46.43c-.61.46-4.94,4.78-5.56,5.23s-2.84,2.76-3.3,3.1c-.94.7-1.29,1.2-2.21,1.91-.46.36-1.66,1.47-2.12,1.83-2.2,1.73-3,2.49-5.18,4.24-.63.5-1.47,1.32-2.11,1.82-.4.32-.93.87-1.33,1.18s-.71.9-1.11,1.2-1.82,1.31-2.23,1.61c-5.72,4.28-9.54,7-15.29,11.24C38.48,83.13,34.57,87.3,30.33,91c-1.14,1-2.29,1.92-3.48,2.83l-.71.54-.71.53-.72.52-1.07.77c-.21.15-.43.31-.66.46l-1.06.74-.18.12-1.22.84c-.55.37-.81.52-1.45.89a4.24,4.24,0,0,0-.42.18,10.16,10.16,0,0,0-1.16.66,48,48,0,0,0-5.91,4.49l-.34.23a8.47,8.47,0,0,0-1.11.75c-2.6,2.15-3.68,3.68-6.24,5.61l1.34,1.72.62.79a42.85,42.85,0,0,1,4.86-3,8.28,8.28,0,0,1,.92-1.59l0,0a32.65,32.65,0,0,1,3.09-3.45c4.22-4,9.33-6.74,13.76-10.45,5-4.2,10.53-8.81,16.94-14,5.82-4.68,12.3-8.31,18-13.14a80.3,80.3,0,0,1,8.34-6.42c3.6-2.33,6.64-5.29,10-7.88,5.77-4.4,11.57-8.5,17.61-12.45,2.22-1.45,4.41-3,6.63-4.43,1.84-1.2,5.93-5.14,8.11-5,1.76.13.54,1.55-.48,2.79-2,2.38-4.41,4.28-6.59,6.42-4.45,4.35-8.39,9.14-13,13.37C87.38,60.73,80.92,67.29,74,73.24c9.87-8.42,12.4-8.39,18.37-13.14,5.11-4.06,9.82-8.54,14.74-12.83,8.52-7.44,17.43-14,26.46-20.73,3.63-2.7,13.79-12.14,17-6.19,1.32,2.41.34,5.39-1,8C145.3,36.88,136,45.61,129,51.86c11-7.73,11.49-8.77,16.25-12.28,4.32-3.18,11.08-11.55,15.67-7.26A42.72,42.72,0,0,1,164.27,37c3.73,4,3.51-3.82,3.53-3.89-.08-6.61-2.54-10.79-4.85-14.35-.2-.31-.58-.8-.76-1.13-.24-.48-.61-.79-.89-1.25-.15-.26-.31-.52-.47-.78s-.19-.29-.28-.43-.28-.42-.43-.62c-.34-.5-.7-1-1.07-1.45C158.84,12.86,158.63,12.61,158.41,12.35Z"/><path class="cls-4" d="M44.87,136.86c.57-.59,1.18-1.15,1.46-1.47a47.82,47.82,0,0,1,3.49-3.63c2.18-2,4.3-4.1,6.54-6.06,8.38-7.34,16.77-14.81,25.38-21.85C89.5,97.51,97.65,91.64,105.19,85c5.66-5,11.86-10.06,16-16.45-.91,1.41-3.5,2.92-4.82,4-1.78,1.47-3.59,2.93-5.46,4.28-3.54,2.57-7.41,4.29-11.09,6.58.2-1.51,2.11-3.12,3.11-4.26a47.87,47.87,0,0,1,10.28-8.57c4.21-2.68,8.67-4.74,12.64-7.88,3.33-2.64,8.33-6.34,10.62-9.93-.67,1-3.1,2.16-4.15,2.8-1.41.86-2.86,1.66-4.33,2.43-2.93,1.53-5.92,2.91-8.89,4.35a89.59,89.59,0,0,0-16.57,10,45.86,45.86,0,0,0-7,7.24c-3.42,4.34-7,8.56-10.79,12.61A182,182,0,0,1,71.46,105c-4.7,4.11-9.71,7.82-14.52,11.77a62.38,62.38,0,0,1-6.81,4.9c-1.27.79-5.7,4.14-7.05,3.86,3.8.79,10-2.38,13.29-5.06a55.65,55.65,0,0,0-5,5.07c-3.25,3.56-7,8.51-7.87,13.12A5.5,5.5,0,0,1,44.87,136.86Z"/><path class="cls-4" d="M136.41,33.67c-7.41,5.48-13.83,12.44-20.76,18.55-8.93,7.85-16.58,16.77-25,25.17C81.89,86.16,74.08,96,64.8,104.25c-7,6.24-14.85,10.31-22.91,14.65A231.35,231.35,0,0,0,61.6,100.25c3.81-4,8.09-7.48,11.88-11.48,3.31-3.49,6.36-7.2,9.69-10.67,6.74-7,13.72-13.66,20.76-20.35a204.23,204.23,0,0,1,17.49-15.27C126.33,38.78,130.82,35.73,136.41,33.67Z"/><path class="cls-2" d="M77.89,75.54c-3.57,3-6.59,6.91-9.66,10.3a113.47,113.47,0,0,1-15.65,14.22A91.86,91.86,0,0,0,45,106.21,83.08,83.08,0,0,0,38.23,114a88.2,88.2,0,0,1-11.74,11c-1.06-.74-1.07-2.46-2.28-3.21a19.44,19.44,0,0,0-4.5-1.44c-1.69-.49-3.5-.27-4.75-1.36,2.61-1.64,5.67-2.5,8.39-4a58.87,58.87,0,0,0,9.2-6.23c3.24-2.66,6.32-5.53,9.58-8.16a88.48,88.48,0,0,1,11.29-7.38c3.08-1.8,6.13-3.4,9.13-5.51,2.39-1.7,4.71-3.57,7.09-5.31C72.6,80.26,75,77.67,77.89,75.54Z"/><path class="cls-2" d="M73.8,131.63a9,9,0,0,1-.91.24,2.24,2.24,0,0,1-2.54-.71c-.62-1.09,2.45-1.84,3.11-1.91s2.45-.08,2.18,1C75.47,130.94,74.59,131.38,73.8,131.63Z"/><path class="cls-5" d="M24.29,129c-1.49-1.88-3-3.75-4.56-5.51a106.48,106.48,0,0,0-9.15-9c-4.09-3.68-7.85-4.58-7.78-1.74,0,1.77.25,3.12,2,6,.67,1.13,1.59,2.27,2.21,3.33a24.58,24.58,0,0,0,1.6,2.65c1.92,2.61,4.22,5.12,6.1,7.74a92.24,92.24,0,0,0,6.43,7.94,83.32,83.32,0,0,0,8.66,8.74,28.5,28.5,0,0,0,3.61,2.4,29.72,29.72,0,0,0,3.06,2.16,12.78,12.78,0,0,0,1.67.82,1.12,1.12,0,0,0,1.12-.47c.59-.64.29-2.5-.64-4.44A60.57,60.57,0,0,0,33.91,142c-2-2.88-4.06-5.89-6.25-8.74C26.57,131.88,25.44,130.43,24.29,129Z"/><path class="cls-6" d="M16.69,121.14c-1-1-1.88-1.88-2.9-2.77s-1.78-1.78-2.66-2.53A19.35,19.35,0,0,0,6,112.61c-2.15-.93-2.3,1.39-1.47,3.77a26.09,26.09,0,0,0,3,5.58c.79,1.23,1.41,2.38,2.38,3.63.78,1,1.54,2,2.29,3,.86,1.17,1.78,2.25,2.7,3.38s1.6,2.2,2.45,3.29c1.6,2.07,3.4,4.12,5.18,6s3.56,3.8,5.29,5.45A22.84,22.84,0,0,0,32,149.85a16.82,16.82,0,0,1,2.79,2c1.75,1.48,2.89,1.46,3.08.35a4.64,4.64,0,0,0,0-2.12,15.51,15.51,0,0,0-2-3.79c-.48-.74-1.05-1.5-1.51-2.22s-.87-1.48-1.38-2.24c-1.1-1.63-2.48-3.42-3.64-5.08-2.31-3.3-5.05-6.63-7.7-9.78-1.09-1.29-2.12-2.56-3.21-3.85C17.77,122.29,17.45,121.9,16.69,121.14Z"/><path class="cls-7" d="M30.31,147.45a30.71,30.71,0,0,1-4.88-4.32c-1.57-1.74-3.24-3.39-4.79-5.17-2.54-3-4.85-6.13-7.18-9.19a63.94,63.94,0,0,1-5.58-8.19c-.53-1-1-2-1.39-3-.61-1.42-.15-1.75.49-2s1-.31,2.15.49a43.9,43.9,0,0,1,4.46,3.84A52.6,52.6,0,0,1,18,124.28c1.42,1.69,2.77,3.45,4.24,5.1,2.11,2.4,4.34,5.45,6.22,8,1,1.37,2.21,2.73,3.11,4.13s1.58,2.72,2.34,4c1.52,2.67,1.62,4.25,0,4.07a3.58,3.58,0,0,1-2-1Z"/><path class="cls-8" d="M30.24,145.3a27.67,27.67,0,0,1-4.33-3.42c-3.8-3.37-7.67-8.34-10.91-12.59-2-2.6-6.47-8.85-5.11-9.71s6.58,4.9,8.68,7.28A116.48,116.48,0,0,1,29.07,140a16.82,16.82,0,0,1,2.2,4.61C31.48,145.61,31,145.68,30.24,145.3Z"/><path class="cls-7" d="M27.61,141.63c-1.69-.66-4.64-4-6.31-5.85a64.93,64.93,0,0,1-4.66-5.69c-1.54-2.19-4-4.71-4-6.55,0-.93.74-.3,1.76.53a27.82,27.82,0,0,1,3.34,3.42c2.59,3,5.21,6.07,7.55,9.27C25.76,137.43,29.14,142.44,27.61,141.63Z"/><path class="cls-8" d="M23.8,137.19a24.44,24.44,0,0,1-2.93-3c-.82-.91-1.59-1.82-2.37-2.77-.62-.75-1.08-1.41-1.63-2.18a7.07,7.07,0,0,1-.9-1.4c-.1-.43.52-.06.9.26a27.82,27.82,0,0,1,2,2,55.78,55.78,0,0,1,4,5.1,8.89,8.89,0,0,1,1.13,1.8C24.19,137.39,24.05,137.45,23.8,137.19Z"/><path class="cls-5" d="M35.52,152.15c-.05-.13-2.59-3.69-4.19-5.91,0,0,3.81,4.95,5.19,6.65S35.52,152.15,35.52,152.15Z"/><path class="cls-5" d="M38,149.18l-7.73-7.73s6.18,6,7.47,7Z"/><path class="cls-5" d="M24.6,143.86l-1-.93a14.32,14.32,0,0,1-1.06-3,13.17,13.17,0,0,0-.56-2.68A48.46,48.46,0,0,1,24.6,143.86Z"/><path class="cls-1" d="M27.22,135.48a9.63,9.63,0,0,1-3.56-1.83S24.84,133.6,27.22,135.48Z"/><path class="cls-5" d="M5.23,111.31c3.32,4.39,9.41,13,9.41,13s-2.28-3.38-3.52-5.38-4.45-6.81-4.45-6.81Z"/><path class="cls-5" d="M11.63,115.88c.06.06,1.57,2.54,1.57,2.54l-1.15-2.33Z"/><path class="cls-5" d="M8.38,113.5c.26.35,1.12,2,1.12,2L7.72,112.9Z"/><path class="cls-5" d="M17.36,135.56,16,133.9a4.44,4.44,0,0,0,1.64.4C17.09,134.5,17.46,135.6,17.36,135.56Z"/><path class="cls-1" d="M9.69,123.17s4.08,4.07,8.19,7.32A75.7,75.7,0,0,0,9.69,123.17Z"/><path class="cls-1" d="M23.75,136.33c-.19-.19-2.69-2.62-3.46-3.51,0,0-1.39-.73-1.56-.76s.82-.5.82-.5l-.41-1.73,1.52,2.91Z"/><path class="cls-1" d="M29.16,144.28s-2-2.5-3.95-5.45A61.88,61.88,0,0,1,29.16,144.28Z"/><polygon class="cls-5" points="20.25 125 19.61 126.29 19.34 123.84 20.25 125"/><path class="cls-5" d="M32.09,139.92c.15.19-2.56-1.59-2.56-1.59l1.9.51Z"/><polygon class="cls-5" points="38.94 153.68 34.88 148.88 39.15 153.49 38.94 153.68"/><path class="cls-5" d="M30.33,149.16l-.91-.91s-.78-1.59-.77-1.58Z"/><path class="cls-5" d="M2.92,114v-.45L6.82,118S3.24,114.27,2.92,114Z"/><path class="cls-5" d="M9.6,125.8l-1-1.32,2.18,1.43A6.36,6.36,0,0,0,9.6,125.8Z"/><path class="cls-1" d="M11.4,121.55s-2.19-2.36-5.07-6.11C6.33,115.44,7.64,116.77,11.4,121.55Z"/><path class="cls-1" d="M15.61,130.09s-.53.43-2.41-.89A4.23,4.23,0,0,1,15.61,130.09Z"/></g></svg>