<svg xmlns="http://www.w3.org/2000/svg" viewBox="0 0 198.68 158.6"><defs><style>.cls-1{fill:#985b12;}.cls-2{fill:#804805;}.cls-3{fill:#663600;}.cls-4{fill:#b16f21;}.cls-5{fill:#bb7f2d;}.cls-6{fill:#e9cf79;}.cls-7{fill:#e2bc5b;}</style></defs><g id="Layer_7" data-name="Layer 7"><path class="cls-1" d="M8.7,12.6c.18-.27.36-.55.55-.82l0,0a18.79,18.79,0,0,1,2.23-2.41A16.15,16.15,0,0,1,22.6,4.94c3.92-.12,8,3.08,11.92,5.51C44,16.28,53.27,23.06,63,28.44c13.13,7.3,24.63,17.71,37.68,25.3.77.44,1.52.89,2.27,1.34l1.72,1.06,3.4,2.17c.57.36,1.13.73,1.69,1.1,2.71,1.77,5.39,3.57,8.1,5.36l2.35,1.55,1.48,1,1.47,1,1.49.94c7,4.38,14.21,8.19,21.21,12.52,5.53,3.42,10.57,7.65,15.86,11.41Q163.79,94.6,166,96l.87.55.87.55.87.53,1.3.79.8.47c.42.26.85.51,1.28.76l.22.13,1.47.86,2,1.15.13.08.91.52c.71.41,1.43.84,2.15,1.28l.79.49.66.42.75.47,1.09.71,2.19,1.45,0,0,.13.09,1.77,1.19.64.44,1.78,1.21.06,0,2.17,1.47,2,1.34,1.17.76.39.26-2.09,3.2-24.09,36.94-.95,1.47c-14.35-10.27-28.67-22.5-43.45-32.27l-.33-.22c1.19,2.52,4.31,4.92,5.23,7.37.74,2-1.42,1.52-3.69,1.67-1.82.11-3.22-1.39-4.68-2.88-2.72-2.76-5-5.76-7.57-8.64l-.33-.37c-.54-.6-1.09-1.2-1.64-1.79A252.12,252.12,0,0,0,79.46,90.08C69.8,82.59,60.3,75,50.64,67.58c-2.17-1.67-4.34-3.32-6.53-5l-.3-.23c-3.45-2.59-6.67-5.23-10-8C27.69,49.34,21.28,44.6,15,39.67L14.2,39l-1.81-1.34c-.29-.21-.57-.43-.85-.65L11,36.63l-.5-.41c-.34-.28-.67-.57-1-.87l-.2-.19c-.08-.07-.15-.15-.22-.22l-.22-.22-.2-.22-.39-.45-.17-.23L8,33.6l-.15-.23a1.82,1.82,0,0,1-.15-.23,2.53,2.53,0,0,1-.13-.22,19.06,19.06,0,0,1-1.3-14.77c.1-.33.2-.66.31-1q.23-.71.51-1.38c.1-.26.21-.51.32-.76l.2-.42c.1-.2.2-.4.31-.6Q8.27,13.29,8.7,12.6Z"/><path class="cls-2" d="M110.44,117.77c.13.25.27.49.41.74A252.12,252.12,0,0,0,79.46,90.08C69.8,82.59,60.3,75,50.64,67.58,61,75.18,71.86,82,82.21,89.69,92.37,97.22,105,107.35,110.44,117.77Z"/><path class="cls-2" d="M7.38,15.89l.06-.07,0,0A18.18,18.18,0,0,1,9.7,13.37,16.1,16.1,0,0,1,20.78,9c3.92-.12,8,3.08,11.92,5.51,9.5,5.83,18.75,12.61,28.43,18,13.14,7.3,24.63,17.71,37.69,25.3l2.27,1.34,1.71,1.06c1.14.72,2.27,1.43,3.4,2.17.57.36,1.13.73,1.69,1.1,2.71,1.77,5.4,3.57,8.1,5.36l2.35,1.55,1.48,1,1.48,1,1.48.94c7,4.38,14.21,8.19,21.21,12.52,5.53,3.42,10.57,7.65,15.86,11.41,1.42,1,2.84,2,4.29,2.89l.87.55.87.54c.29.19.58.36.87.54l1.3.79.8.47c.42.26.85.51,1.28.76l.22.13c.49.29,1,.58,1.48.86l2,1.15.13.08.91.52c.72.41,1.43.84,2.16,1.28l.78.49c.22.14.44.27.66.42l.75.47,1.1.71,2.18,1.45,0,0,.13.1,1.77,1.19.64.44,1.79,1.21.05,0,2.17,1.47,2,1.34,1.17.76-1,1.66,0,0a61.39,61.39,0,0,0-5.77-3l-.26-.12-.81-.39-.79-.4c-4-2-8.11-4-12.15-6.08-14.85-7.76-28.93-17.72-42.76-27.41-4.66-3.26-10.73-8.15-15.85-10.29-4.75-2-.8,3.51.92,5.53,1,1.16,3.46,3.2,3.1,4.5-.65,2.35-5.72-.88-7.6-1.77A190,190,0,0,1,79.87,63C72.35,57.66,65,52.15,57.25,47.13c-4.31-2.81-8.92-5.17-13.37-7.64-4.24-2.36-9.08-5.85-13.56-7-2.37-.61-5.15-.65-4.79,1.86.41,2.84,5.37,5.4,7.7,7.13C41.45,47.6,51.15,52.08,58.7,59c1.63,1.49,4.54,3.84,2.25,4.52-1.4.41-5-1.61-6.34-2.17a86.06,86.06,0,0,1-9.33-4.52c-3.66-2-7.48-3.91-11.05-6.11-4.2-2.59-.81.85,2.88,3.88,13.48,11,19.22,15.58,23.84,18.9,33.42,24,44.07,38.28,41.9,36.74-1.48-1-46.47-33.69-46.57-33.77C46.42,69,35.32,61.2,32,58.45c-6.13-5.08-12.54-9.81-18.79-14.74l-.83-.64-1.81-1.34-.85-.65-.52-.41-.5-.41c-.33-.28-.66-.57-1-.87l-.2-.19L7.3,39l-.21-.22-.21-.22-.38-.45-.18-.23-.17-.22L6,37.41l-.15-.23A2.53,2.53,0,0,1,5.72,37a19.06,19.06,0,0,1-1.3-14.77c.1-.33.2-.66.31-1q.22-.71.51-1.38c.1-.26.21-.51.33-.76s.12-.28.19-.42.2-.4.31-.6q.38-.72.81-1.41Z"/><path class="cls-2" d="M123.12,121.35c8.07,5.3,16,11.19,23.87,16.83,5.74,4.11,11.49,7.65,16.93,12.25,1.46,1.24,2.9,2.49,4.34,3.74l-.95,1.47C153,145.37,147.19,142,124.63,124.9A5.62,5.62,0,0,1,123.12,121.35Z"/><path class="cls-3" d="M9.2,11.85a.18.18,0,0,0,.05-.07l0,0a18.79,18.79,0,0,1,2.23-2.41C14.53,6.64,18.23,4,22.65,3c3.72-.85,9.28,1.14,13.08,3.57C49,15,55.25,20.32,64.31,26.45,76.88,35,81.9,38.79,95.77,47.6c.75.47,6.27,4.87,7,5.32.57.35,3.6,2.81,4.16,3.16,1.15.72,1.63,1.22,2.76,2,.56.37,2.07,1.5,2.63,1.87,2.71,1.77,3.7,2.54,6.4,4.32.78.52,1.85,1.36,2.64,1.87.49.32,1.17.88,1.66,1.19s1,.91,1.44,1.23,2.21,1.34,2.7,1.65c7,4.38,11.62,7.2,18.62,11.53,5.53,3.42,10.57,7.65,15.86,11.41Q163.79,94.6,166,96l.87.55.87.55.87.53,1.3.79.8.47c.42.26.85.51,1.28.76l.22.13,1.47.86c.67.39,1,.54,1.73.93.27.1.43.15.48.18.5.2,1.06.53,1.37.69a69.47,69.47,0,0,1,7.22,4.6l.42.23a13.14,13.14,0,0,1,1.33.78c3.22,2.19,4.7,3.74,7.83,5.71l-1,1.66-.48.77a61.15,61.15,0,0,0-5.78-3.06,11.89,11.89,0,0,0-1.32-1.6l0,0a46.35,46.35,0,0,0-4-3.5c-5.33-4.1-11.33-6.92-16.82-10.71-6.21-4.29-13-9-20.95-14.27-7.18-4.78-14.82-8.55-22-13.48a119.38,119.38,0,0,0-10.22-6.58c-4.3-2.4-8.17-5.4-12.34-8.06C92,50.37,85,46.16,77.72,42.09c-2.66-1.49-5.3-3.07-8-4.56-2.2-1.24-7.39-5.24-9.65-5.15-1.82.08-.23,1.52,1.12,2.78,2.59,2.4,5.61,4.34,8.38,6.52C75.25,46.1,80.47,51,86.25,55.26c8.57,6.37,16.83,13,25.5,19.1-12.28-8.59-14.93-8.63-22.28-13.49-6.28-4.15-12.25-8.71-18.39-13.08C60.45,40.2,49.6,33.46,38.59,26.56,34.17,23.79,21.36,14.19,19.25,20c-.85,2.34.84,5.31,2.79,7.92,6.42,8.56,18.2,17.45,27,23.82-13.33-7.94-14.06-9-19.86-12.58C23.89,35.87,14.9,27.42,11,31.53A28.44,28.44,0,0,0,8.5,36.09c-3,3.86-4.54-3.87-4.58-4-1.39-6.52.28-10.59,1.92-14,.14-.31.44-.78.55-1.1s.48-.76.67-1.21c.1-.26.21-.51.32-.76l.2-.42c.1-.2.2-.4.31-.6q.38-.72.81-1.41Z"/><path class="cls-4" d="M156.52,138.05c-.74-.6-1.5-1.17-1.86-1.49-1.46-1.28-2.93-2.53-4.48-3.69-2.75-2.05-5.45-4.17-8.25-6.17-10.46-7.49-21-15.1-31.6-22.29-9.59-6.49-19.48-12.51-28.91-19.28-7.07-5.07-14.73-10.27-20.5-16.7,1.28,1.42,4.34,3,6,4.09,2.21,1.51,4.43,3,6.7,4.39,4.31,2.64,8.77,4.44,13.15,6.81-.54-1.5-2.91-3.15-4.22-4.3a70.61,70.61,0,0,0-12.74-8.75c-5-2.77-10.19-4.93-15.07-8.14-4.1-2.7-10.19-6.5-13.4-10.1.94,1,3.75,2.21,5,2.87,1.69.89,3.4,1.72,5.11,2.52,3.43,1.6,6.89,3,10.34,4.55A129.33,129.33,0,0,1,81.44,72.75a66.52,66.52,0,0,1,9,7.35c4.56,4.38,9.3,8.65,14.17,12.76,5.41,4.56,11.1,8.84,16.87,13s12,8,17.91,12a92.41,92.41,0,0,0,8.26,5c1.52.82,6.93,4.25,8.3,4-3.84.66-11.12-2.64-15.14-5.38,2,1.38,4.48,3.52,6.39,5.15,4.21,3.61,9.22,8.61,11.2,13.19A7.49,7.49,0,0,0,156.52,138.05Z"/><path class="cls-4" d="M37.12,33.53c9,5.62,17.34,12.68,26,18.9C74.28,60.45,84.32,69.48,95,78c11.2,8.92,21.62,18.83,33.24,27.26,8.77,6.37,17.94,10.61,27.4,15.12-8.68-5.94-16.81-12.29-24.92-19-4.9-4-10.18-7.62-15.07-11.68-4.26-3.54-8.3-7.3-12.59-10.82C94.44,71.79,85.61,65,76.71,58.23,69.64,52.82,62.38,47.4,54.88,42.65,48.88,38.87,43.47,35.72,37.12,33.53Z"/><path class="cls-2" d="M108.11,76.53c4.42,3,8.48,7,12.46,10.44a167.76,167.76,0,0,0,19.65,14.49c3.13,2,6.36,4,9.34,6.29,3.28,2.5,6,5.2,8.89,7.9a131.3,131.3,0,0,0,14.82,11.19c.95-.7.58-2.4,1.69-3.11s3-.92,4.42-1.3c1.68-.44,3.63-.17,4.7-1.21-3.1-1.69-6.53-2.63-9.71-4.17a86,86,0,0,1-11.09-6.41c-4-2.72-7.89-5.64-11.91-8.33a131.2,131.2,0,0,0-13.54-7.6c-3.64-1.87-7.22-3.53-10.85-5.7-2.9-1.74-5.75-3.66-8.65-5.45C114.73,81.34,111.67,78.72,108.11,76.53Z"/><path class="cls-2" d="M121.56,130.37a1.08,1.08,0,0,0,.28.54,7,7,0,0,0,4.39,2.09,3,3,0,0,0,2.73-1.12c1.15-2.15-4.67-3.22-6-2.88C122.4,129.14,121.45,129.66,121.56,130.37Z"/><path class="cls-3" d="M177.52,131.53c1.13-1.83,2.3-3.65,3.49-5.36a92.13,92.13,0,0,1,7.26-8.94c3.3-3.66,6.63-4.79,6.93-2.22.18,1.61.15,2.85-1.06,5.64-.47,1.07-1.17,2.18-1.61,3.19a20,20,0,0,1-1.13,2.53c-1.43,2.52-3.23,5-4.63,7.51a77,77,0,0,1-4.91,7.71,71.65,71.65,0,0,1-6.84,8.62,24.7,24.7,0,0,1-3,2.47,25.12,25.12,0,0,1-2.54,2.21c-.48.24-1,.76-1.43.87a1.06,1.06,0,0,1-1.08-.33c-.62-.53-.58-2.24,0-4.07a51.94,51.94,0,0,1,3.34-7.22c1.46-2.76,3-5.66,4.65-8.42C175.8,134.35,176.65,132.94,177.52,131.53Z"/><path class="cls-5" d="M183.51,123.81c.8-1,1.49-1.85,2.31-2.74s1.42-1.76,2.13-2.51a16.83,16.83,0,0,1,4.35-3.35c1.85-1,2.28,1.07,1.82,3.3A23,23,0,0,1,192,123.8c-.58,1.18-1,2.28-1.73,3.48-.59,1-1.16,1.93-1.73,2.91s-1.35,2.18-2.05,3.28-1.2,2.12-1.83,3.17a69.69,69.69,0,0,1-4,5.87c-1.35,1.78-2.79,3.73-4.18,5.37a19.71,19.71,0,0,1-3.49,3.18,14.72,14.72,0,0,0-2.31,2.06c-1.41,1.49-2.46,1.57-2.78.58a4.23,4.23,0,0,1-.29-1.92,13.3,13.3,0,0,1,1.35-3.6c.34-.71.78-1.43,1.11-2.13s.61-1.4,1-2.14c.8-1.57,1.84-3.3,2.7-4.89,1.7-3.18,3.79-6.42,5.84-9.49.83-1.25,1.61-2.49,2.45-3.74C182.66,124.94,182.91,124.57,183.51,123.81Z"/><path class="cls-6" d="M174.31,148.75a26.27,26.27,0,0,0,3.94-4.32c1.22-1.7,2.55-3.33,3.74-5.07,2-2.88,3.69-6,5.44-8.91a54.8,54.8,0,0,0,4.09-7.86c.37-1,.65-1.94.9-2.81.39-1.35-.08-1.61-.69-1.77s-1-.19-1.91.62a35.66,35.66,0,0,0-3.61,3.85,42.81,42.81,0,0,0-3.47,4.28c-1.1,1.65-2.12,3.35-3.25,5-1.64,2.34-3.3,5.28-4.72,7.73-.76,1.32-1.68,2.65-2.33,4s-1.11,2.59-1.64,3.85c-1.06,2.54-1,4,.48,3.69a3.21,3.21,0,0,0,1.73-1.06Z"/><path class="cls-7" d="M174.11,146.79a24,24,0,0,0,3.55-3.45c3.06-3.36,6-8.17,8.42-12.29,1.49-2.52,4.83-8.54,3.48-9.21s-5.42,5-7.06,7.3a99.76,99.76,0,0,0-8,12.76,14.24,14.24,0,0,0-1.44,4.35C173,147.18,173.46,147.2,174.11,146.79Z"/><path class="cls-6" d="M176.06,143.25c1.47-.73,3.76-4,5.05-5.8a56.09,56.09,0,0,0,3.57-5.54c1.14-2.11,3-4.59,2.86-6.26-.08-.85-.71-.2-1.54.63a24,24,0,0,0-2.64,3.37c-2,2.94-4,5.92-5.76,9C177.24,139.3,174.76,144.11,176.06,143.25Z"/><path class="cls-7" d="M179,138.92a21.52,21.52,0,0,0,2.31-3c.64-.89,1.23-1.77,1.83-2.7.47-.73.81-1.37,1.22-2.11a5.55,5.55,0,0,0,.64-1.34c.05-.39-.47,0-.78.31a21,21,0,0,0-1.59,2,46.6,46.6,0,0,0-3.07,5,7.36,7.36,0,0,0-.81,1.73C178.67,139.14,178.8,139.18,179,138.92Z"/><path class="cls-3" d="M170.12,153.42c0-.12,1.92-3.55,3.1-5.68,0,0-2.86,4.79-3.92,6.44S170.12,153.42,170.12,153.42Z"/><path class="cls-3" d="M167.51,150.93l6.13-7.62s-4.92,5.94-6,6.95Z"/><path class="cls-3" d="M179.11,145l.77-.92a12.47,12.47,0,0,0,.59-2.84,11.53,11.53,0,0,1,.18-2.46A40.94,40.94,0,0,0,179.11,145Z"/><path class="cls-1" d="M175.65,137.66a8.46,8.46,0,0,0,3-1.95S177.6,135.76,175.65,137.66Z"/><path class="cls-3" d="M192.79,114c-2.49,4.24-7,12.53-7,12.53s1.67-3.25,2.55-5.17,3.23-6.52,3.23-6.52Z"/><path class="cls-3" d="M187.49,118.64s-1.12,2.43-1.12,2.43l.77-2.21Z"/><path class="cls-3" d="M190.18,116.21c-.19.34-.78,1.87-.78,1.87l1.31-2.46Z"/><path class="cls-3" d="M184.7,136.92l1-1.61a4.06,4.06,0,0,1-1.45.5C184.82,135.94,184.62,137,184.7,136.92Z"/><path class="cls-1" d="M190.19,125.08a93.79,93.79,0,0,1-6.59,7.29A64.81,64.81,0,0,1,190.19,125.08Z"/><path class="cls-1" d="M178.94,138.14c.15-.19,2.14-2.59,2.73-3.46,0,0,1.19-.77,1.34-.81s-.81-.39-.81-.39l.16-1.6-1,2.76Z"/><path class="cls-1" d="M175,145.78a58.24,58.24,0,0,0,2.94-5.26A54.63,54.63,0,0,0,175,145.78Z"/><polygon class="cls-3" points="180.73 127.6 181.48 128.72 181.42 126.47 180.73 127.6"/><path class="cls-3" d="M171.74,142.08c-.11.18,2.15-1.65,2.15-1.65l-1.68.61Z"/><polygon class="cls-3" points="167.18 155.1 170.3 150.41 166.97 154.94 167.18 155.1"/><path class="cls-3" d="M174.51,150.3l.72-.9s.52-1.51.51-1.5Z"/><path class="cls-3" d="M195.24,116.18l-.05-.4-3,4.38S195,116.49,195.24,116.18Z"/><path class="cls-3" d="M190.6,127.45l.76-1.28-1.82,1.47A5.86,5.86,0,0,1,190.6,127.45Z"/><path class="cls-1" d="M188.42,123.75s1.71-2.31,3.88-6C192.3,117.8,191.27,119.11,188.42,123.75Z"/><path class="cls-1" d="M185.63,131.83s.53.34,2.09-1A3.69,3.69,0,0,0,185.63,131.83Z"/></g></svg>