<svg xmlns="http://www.w3.org/2000/svg" viewBox="0 0 231.23 64.26"><defs><style>.cls-1{fill:#985b12;}.cls-2{fill:#804805;}.cls-3{fill:#663600;}.cls-4{fill:#b16f21;}.cls-5{fill:#bb7f2d;}.cls-6{fill:#e9cf79;}.cls-7{fill:#e2bc5b;}</style></defs><g id="Layer_4" data-name="Layer 4"><path class="cls-1" d="M2.3,40.49c0,.33,0,.67,0,1v0A17.38,17.38,0,0,0,3,44.8a16.72,16.72,0,0,0,7.31,9.86c3.36,2.28,8.67,1.83,13.49,2,11.54.38,23.39-.19,34.84.66,15.55,1.15,31.36-1.22,47-.35.91,0,1.82.1,2.73.13l2.09.06c1.39,0,2.78.06,4.17.07h2.1c3.34,0,6.69,0,10,0h4.74l1.82,0,1.82,0c8.54.19,17,1,25.5,1.25,6.73.19,13.49-.56,20.2-.78,1.79-.06,3.57-.07,5.35,0l1.07,0,1.06,0,1.07,0,1.57.06,1,0,1.54.07h.27l1.76.1,2.38.14H198c.36,0,.72,0,1.08.06.85,0,1.72.09,2.6.12l1,0h.8l.92,0h4.28l2.21,0h.8l2.24,0H214l2.71,0h4.41L221,54.5,220.25,10l0-1.76c-18.24.66-37.53,3-55.89,3h-.41c2.43-1.46,6.49-1.74,8.65-3.29,1.73-1.24-.4-2.07-2.31-3.46-1.55-1.11-3.6-.62-5.69-.18-3.91.81-7.58,2.06-11.4,3.07l-.5.12-2.42.6a264.32,264.32,0,0,1-43.2,6.48c-12.6.94-25.11,2.05-37.68,2.92q-4.22.3-8.46.55l-.39,0c-4.45.27-8.73.7-13.16,1.16-8.17.87-16.4,1.29-24.6,2l-1.08.07-2.33.13-1.1.07-.67.06-.67.06c-.45.05-.9.11-1.34.19l-.29.05-.31.06-.31.07-.3.07-.58.16-.28.1a2.15,2.15,0,0,0-.27.1l-.27.1-.25.11-.24.12A18.69,18.69,0,0,0,3.2,34.46q-.15.49-.27,1a14.43,14.43,0,0,0-.32,1.45c0,.27-.09.54-.13.81s0,.31,0,.46-.05.46-.06.68C2.32,39.4,2.3,39.94,2.3,40.49Z"/><path class="cls-2" d="M149.48,8.52l.77-.39a264.32,264.32,0,0,1-43.2,6.48c-12.6.94-25.11,2.05-37.68,2.92,13.29-.64,26.57-.35,39.88-1.06C122.31,15.77,138.92,14.24,149.48,8.52Z"/><path class="cls-2" d="M3,37s0,.06,0,.09v.05a17.38,17.38,0,0,0,.63,3.26,16.72,16.72,0,0,0,7.31,9.86c3.36,2.28,8.67,1.83,13.49,2,11.54.38,23.39-.19,34.84.66,15.55,1.15,31.36-1.22,47-.35.91.05,1.82.1,2.73.13l2.09.06c1.39,0,2.78.06,4.17.07h2.1c3.34,0,6.69,0,10,0h4.74l1.82,0,1.82,0c8.54.19,17,1,25.5,1.25,6.73.19,13.49-.56,20.2-.78,1.79-.06,3.57-.07,5.35-.05l1.07,0,1.06,0,1.07,0,1.57.06,1,0,1.54.07h.27l1.76.1,2.38.14h.16l1.08.06c.85.05,1.72.09,2.6.12l1,0h.8l.92,0h4.28l2.21,0h.8l2.24,0a.16.16,0,0,1,.07,0l2.71,0h3.93V52h0a63.69,63.69,0,0,1-6.73-.66l-.29,0-.92-.12-.92-.11c-4.67-.54-9.29-1.16-14-1.63-17.3-1.73-35.14-1.16-52.61-.7-5.88.15-13.91.9-19.57-.15-5.26-1,1.23-3.39,3.85-4.14,1.5-.43,4.8-.77,5.2-2.06.72-2.34-5.5-2.44-7.64-2.74a202.79,202.79,0,0,0-35.1-2c-9.54.32-19,.85-28.59.79-5.32,0-10.67-.6-15.93-1-5-.37-11.19-.12-15.76-1.63C29.8,35,27.34,33.47,29,31.56,31,29.4,36.72,30,39.72,29.83c10.59-.59,21.56,1,32-.63,2.25-.36,6.1-.71,4.46-2.56-1-1.12-5.25-1.41-6.76-1.69a91.35,91.35,0,0,0-10.66-1.39c-4.34-.31-8.72-.86-13.07-1-5.11-.16-.24-1.17,4.67-1.67,17.9-1.8,25.44-2.43,31.32-2.66,42.54-1.63,59.75-7.72,57-7.63L79.24,13.14C66.47,14,52.42,14.39,48,14.85c-8.17.87-16.4,1.29-24.6,2l-1.08.07L20,17l-1.1.07-.67.06-.67.06c-.45.05-.9.11-1.34.19l-.29.05-.31.06-.31.07-.3.07-.58.16-.28.1a1.69,1.69,0,0,0-.27.1l-.27.1-.25.11-.24.12A18.69,18.69,0,0,0,3.83,30.05q-.15.49-.27,1a14.43,14.43,0,0,0-.32,1.45c-.05.27-.09.54-.13.81s0,.31,0,.46-.05.46-.06.69c0,.54-.07,1.08-.07,1.63C2.93,36.38,2.94,36.69,3,37Z"/><path class="cls-2" d="M162.57,12.56c10,0,20.19-.53,30.21-.9,7.31-.27,14.29-.06,21.6-.9,2-.23,3.92-.48,5.87-.74l0-1.76c-18.24.66-25.15.29-54.37,2.15A5.59,5.59,0,0,0,162.57,12.56Z"/><path class="cls-3" d="M2.33,41.4s0,.06,0,.09v0A17.38,17.38,0,0,0,3,44.8,26.53,26.53,0,0,0,9.25,56.33C12,59.11,18,60.53,22.68,60.6c16.29.23,24.71-.73,36-.86,15.71-.18,22.23-.61,39.25-.31.92,0,8.18-.61,9.09-.58.7,0,4.71-.36,5.4-.34,1.4,0,2.1-.13,3.49-.11.7,0,2.64-.11,3.34-.11,3.35,0,4.64-.08,8-.08,1,0,2.36-.12,3.33-.11.61,0,1.52-.09,2.12-.08s1.33-.24,1.94-.23,2.67.1,3.28.11c8.53.19,14.16.4,22.68.64,6.73.19,13.49-.56,20.2-.78,1.79-.06,3.57-.07,5.35,0l1.07,0,1.06,0,1.07,0,1.57.06,1,0,1.54.07h.27l1.76.1c.8,0,1.14.08,2,.18a4,4,0,0,0,.52.11c.54.11,1.22.15,1.58.19a76.79,76.79,0,0,0,8.87.14l.49,0a13.28,13.28,0,0,0,1.6.09c4-.05,6.18-.54,10-.46V55.47a67.39,67.39,0,0,1-6.76-.64,12,12,0,0,1-2,.61h-.07a49.4,49.4,0,0,1-5.46.72c-6.93.47-13.75-.48-20.66-.34-7.8.15-16.4.31-26.23.36-8.93,0-17.71-1-26.68-.85-4.37.08-8.19.18-12.59-.14-5.09-.38-10.14,0-15.26-.08C96.18,55,87.69,54.63,79.09,54c-3.16-.22-6.34-.37-9.5-.59-2.62-.18-9.37.31-11.3-1-1.56-1.08.63-1.41,2.51-1.71,3.59-.58,7.31-.55,10.94-.84,7.4-.58,14.64-1.76,22.08-2.17,11-.6,21.94-1.62,32.89-1.91-15.5.41-17.85-1-27-1-7.8,0-15.54.52-23.34.8-13.5.47-26.74.12-40.19-.2-5.4-.13-21.93.84-20.59-5.21.54-2.44,3.66-4,6.81-5.11C32.77,31.39,48,30.46,59.21,30c-16.07-.72-17.29-.25-24.35-.45-6.42-.17-19,1.95-20.1-3.67a29.19,29.19,0,0,1,.3-5.24c-.54-4.93-6.12.73-6.19.78-4.81,4.72-5.59,9.07-6,12.89,0,.33,0,.89-.12,1.23a12.81,12.81,0,0,0-.09,1.39c0,.27-.09.54-.13.81s0,.31,0,.46-.05.46-.06.68c-.05.55-.07,1.09-.07,1.64C2.3,40.79,2.31,41.1,2.33,41.4Z"/><path class="cls-4" d="M201.08,17.07c-1,.09-2,.15-2.47.22-2,.26-4,.5-6,.61-3.54.2-7.07.48-10.63.61-13.3.49-26.7,1.06-40,1.2-12,.13-24-.3-36,.15-9,.35-18.59.47-27.19,2.66,1.9-.48,5.45-.09,7.49-.12,2.77,0,5.54-.06,8.3,0,5.23.17,10.13,1.14,15.29,1.58-1.31,1-4.29,1-6.08,1.27a75.67,75.67,0,0,1-16,.29c-6-.47-11.66-1.52-17.71-1.53-5.08,0-12.52-.19-17.32,1.06,1.4-.37,4.51.22,6,.35,2,.19,3.92.44,5.86.72,3.89.56,7.72,1.27,11.58,1.92a139.81,139.81,0,0,0,23,2.21,70.51,70.51,0,0,0,11.9-1.22c6.41-1.15,12.92-2.11,19.46-2.86,7.26-.83,14.61-1.27,21.94-1.54s14.89-.08,22.35-.17a98.18,98.18,0,0,1,10,.36c1.78.15,8.42.27,9.49,1.23-3-2.7-11.2-4-16.25-3.89,2.54,0,5.88-.47,8.45-.79,5.68-.69,12.83-2.12,17.09-4.87A8,8,0,0,1,201.08,17.07Z"/><path class="cls-4" d="M38.76,38.67c11,.29,22.2-1,33.22-1.46,14.2-.54,28-2.56,42.08-3.78C128.8,32.15,143.4,29.6,158.23,29c11.21-.48,21.59,1.05,32.37,2.51-10.89.17-21.51,1-32.31,2.12-6.53.68-13.13.75-19.65,1.45-5.69.61-11.31,1.53-17,2.11-11.53,1.18-23,2-34.55,2.74-9.18.62-18.53,1.15-27.73,1C52,40.72,45.54,40.36,38.76,38.67Z"/><path class="cls-2" d="M124.72,41.94c5.56-.12,11.3-1.19,16.68-1.87a178.24,178.24,0,0,1,25.22-1.27c3.84.07,7.79.15,11.65-.1,4.26-.28,8.1-1.07,12.16-1.71a137.6,137.6,0,0,1,19.16-1.18c.45,1.11-.81,2.34-.23,3.55s2.11,2.44,3.16,3.55c1.23,1.31,3.09,2.17,3.46,3.64-3.66-.31-7.17-1.42-10.82-1.9a93,93,0,0,0-13.26-.76c-5,.06-10,.36-15,.39a140.86,140.86,0,0,1-16.07-1.12c-4.22-.46-8.28-1-12.65-1.23-3.5-.15-7.06-.13-10.59-.23C133.17,41.57,129.05,42.07,124.72,41.94Z"/><path class="cls-2" d="M166.18,4.1a1.07,1.07,0,0,1,.54-.3,7.44,7.44,0,0,1,5,.68A3.13,3.13,0,0,1,173.5,7c-.17,2.44-5.87.11-6.84-.91C166.23,5.6,165.69,4.64,166.18,4.1Z"/><path class="cls-2" d="M170,4.49c.4.12.76.24,1,.35,1.07.4,2,1,1.86,1.93-.22,1.11-3.67-.08-4.33-.4s-2.36-1.32-1.32-1.93A4,4,0,0,1,170,4.49Z"/><path class="cls-3" d="M212.11,34.09c-.05,2.16,0,4.33.1,6.43A53.56,53.56,0,0,0,214.61,52c1.48,4.89,5.51,7.67,8.49,5.66A8.26,8.26,0,0,0,227,52.36c.33-1.16.33-2.48.66-3.57a13.1,13.1,0,0,0,.75-2.76c.27-2.91-.09-6,.25-8.87a43.52,43.52,0,0,0,0-9.2c-.33-3.68-.79-7.82-2.07-11a18.27,18.27,0,0,0-2.21-3.73c-.67-1-.92-2.5-1.74-3.25-.51-.47-.77-1.18-1.34-1.52a3.12,3.12,0,0,0-2-.32c-1.48.11-3.11,1.58-4,3.46a30.43,30.43,0,0,0-1.94,7.92c-.47,3.14-1,6.42-1.13,9.65C212.23,30.76,212.15,32.42,212.11,34.09Z"/><path class="cls-5" d="M213.75,43.87a27.26,27.26,0,0,0,.86,3.59c.34,1,.46,2.25.82,3.28a13.4,13.4,0,0,0,3.39,5.2c1.87,1.88,4.58.35,6.06-1.78a14.23,14.23,0,0,0,2-5.61,23.09,23.09,0,0,0,.76-3.89c.05-1.15.1-2.26.2-3.39.11-1.31.06-2.59.07-3.9s.23-2.44.29-3.68a38.73,38.73,0,0,0-.39-7.14c-.32-2.24-.63-4.68-1.16-6.82a13.41,13.41,0,0,0-2.26-4.59,10.61,10.61,0,0,1-1.52-3c-.72-2-2.26-2.66-3.72-2a6.55,6.55,0,0,0-2.34,1.46,8.54,8.54,0,0,0-1.46,3.77c-.16.79-.21,1.64-.38,2.41s-.45,1.52-.59,2.35c-.3,1.76-.39,3.79-.65,5.61a66.26,66.26,0,0,0-.33,11.2c0,1.51,0,3,.1,4.5A14.72,14.72,0,0,0,213.75,43.87Z"/><path class="cls-6" d="M224.1,17.79a16.6,16.6,0,0,1,1.83,5.8c.2,2.1.65,4.21.77,6.33a89.24,89.24,0,0,1-.38,10.49,31.26,31.26,0,0,1-1.43,8.88,20.58,20.58,0,0,1-1.38,2.87c-.72,1.34-1.7,1.31-2.81,1.11a2.77,2.77,0,0,1-2.33-1.57,22.75,22.75,0,0,1-1.78-5.22A25.16,25.16,0,0,1,215.46,41c-.08-2,0-4-.13-6a62.93,62.93,0,0,1,.34-9.11,39.58,39.58,0,0,1,.33-4.64,42.53,42.53,0,0,1,1.27-4.15c.85-2.72,2.43-3.88,4.36-2.85a3.17,3.17,0,0,1,1.62,1.83C223.54,16.65,223.83,17.22,224.1,17.79Z"/><path class="cls-7" d="M221.86,19.33c1,1.14,1.67,3.56,2.08,4.85,1.4,4.52,1.18,10.18.89,15-.17,2.94-1,9.85-3.7,9.68s-3.46-7.17-3.69-10c-.39-4.94-.76-10.31.24-15.13a9.81,9.81,0,0,1,2.07-4.47A1.26,1.26,0,0,1,221.86,19.33Z"/><path class="cls-6" d="M221.4,23.39c1.54,1.42,1.88,5.4,2.07,7.66a30,30,0,0,1,0,6.63c-.32,2.4.17,5.53-1.74,6.85-1,.67-1.3-.22-1.76-1.38a13.5,13.5,0,0,1-.75-4.28,72.92,72.92,0,0,1,0-10.76C219.32,27.36,220.22,22,221.4,23.39Z"/><path class="cls-7" d="M221.67,28.65c.49.85.48,2.71.6,3.79s.15,2.17.17,3.28a17.85,17.85,0,0,1-.19,2.44,3.52,3.52,0,0,1-.33,1.49c-.32.36-.74-.25-.9-.69a12.31,12.31,0,0,1-.48-2.57,26.57,26.57,0,0,1,.14-5.85,4.58,4.58,0,0,1,.45-1.9C221.36,28.29,221.61,28.33,221.67,28.65Z"/><path class="cls-3" d="M222.24,11.55c-.07.12-.54,4-.81,6.5,0,0,.29-5.61.29-7.59S222.24,11.55,222.24,11.55Z"/><path class="cls-3" d="M215.77,12.23,217.72,22s-1.75-7.71-2.38-9.15Z"/><path class="cls-3" d="M227.83,23.55l.28,1.2s-1.21,2.4-1.88,2.72a11.94,11.94,0,0,0-2.14,2.18A32.55,32.55,0,0,1,227.83,23.55Z"/><path class="cls-1" d="M215.25,27.88A8.41,8.41,0,0,1,218,31.19,5.92,5.92,0,0,1,215.25,27.88Z"/><path class="cls-3" d="M218.37,57.26c.33-4.95,1.54-14.41,1.54-14.41s-.62,3.65-1.15,5.75-1.43,7.28-1.43,7.28Z"/><path class="cls-3" d="M214.8,50.42c0-.07.66-2.66.66-2.66l-1,2.28Z"/><path class="cls-3" d="M216.55,53.94a17.49,17.49,0,0,1,.64-2l-.41,2.8Z"/><path class="cls-3" d="M228.47,33.46v1.92a5.73,5.73,0,0,0-1.74-1.21C227.69,34.35,228.39,33.38,228.47,33.46Z"/><path class="cls-1" d="M225.28,46.46a57,57,0,0,0-3-9.77A39.46,39.46,0,0,0,225.28,46.46Z"/><path class="cls-1" d="M220.79,29.28c.05.24.75,3.36.82,4.41a15.59,15.59,0,0,0,1.26,1.42,8.37,8.37,0,0,1-1.63-.12l-1.34,1.44L221,33.54Z"/><path class="cls-1" d="M222.2,20.66a32.93,32.93,0,0,1-.64,6A30.39,30.39,0,0,1,222.2,20.66Z"/><polygon class="cls-3" points="213.19 39.16 215.44 38.62 213.14 40.48 213.19 39.16"/><path class="cls-3" d="M213.58,22a25.86,25.86,0,0,1,1.68,2.56l-2-1.44Z"/><polygon class="cls-3" points="219.35 8.53 219.55 14.19 218.87 8.55 219.35 8.53"/><path class="cls-3" d="M225.93,16.59l.23,1.15s-.69,1.56-.69,1.54S225.93,16.59,225.93,16.59Z"/><path class="cls-3" d="M224.33,56.73l-.48.32-.34-5.36S224.24,56.33,224.33,56.73Z"/><path class="cls-3" d="M228.25,44.68l-.08,1.5-1.36-2.24A10.71,10.71,0,0,0,228.25,44.68Z"/><path class="cls-1" d="M221.25,46.61a45.09,45.09,0,0,1,.14,7.15A41.31,41.31,0,0,1,221.25,46.61Z"/><path class="cls-1" d="M224.9,38.27s1.16,0,2.24,2A4.77,4.77,0,0,1,224.9,38.27Z"/></g></svg>