<svg id="Layer_1" data-name="Layer 1" xmlns="http://www.w3.org/2000/svg" xmlns:xlink="http://www.w3.org/1999/xlink" viewBox="0 0 104 104"><defs><style>.cls-1{opacity:0.2;}.cls-2{fill:#fbffe1;}.cls-10,.cls-11,.cls-12,.cls-2,.cls-3,.cls-4,.cls-5,.cls-6,.cls-7,.cls-8,.cls-9{stroke:#559245;stroke-miterlimit:10;stroke-width:0.5px;}.cls-3{fill:#e7f9a7;}.cls-4{fill:url(#linear-gradient);}.cls-5{fill:url(#linear-gradient-2);}.cls-6{fill:url(#linear-gradient-3);}.cls-7{fill:url(#linear-gradient-4);}.cls-8{fill:url(#linear-gradient-5);}.cls-9{fill:url(#linear-gradient-6);}.cls-10{fill:url(#linear-gradient-7);}.cls-11{fill:url(#linear-gradient-8);}.cls-12{fill:url(#linear-gradient-9);}.cls-13{fill:#b5eb73;}.cls-14{fill:#ccfc90;}.cls-15{fill:#c0f57f;}.cls-16{fill:#dfffb8;}.cls-17{fill:#a7df62;}.cls-18{fill:#b6ee70;}.cls-19{fill:#8fcf40;}.cls-20{opacity:0.3;}.cls-21{fill:#7cbf2a;}.cls-22{fill:#8ccf3c;}.cls-23{fill:#a2de59;}.cls-24{fill:#e5f2c7;}.cls-25{fill:url(#linear-gradient-10);}.cls-26{fill:url(#linear-gradient-11);}.cls-27{fill:url(#linear-gradient-12);}.cls-28{fill:url(#linear-gradient-13);}.cls-29{fill:url(#linear-gradient-14);}.cls-30{fill:url(#linear-gradient-15);}.cls-31{fill:url(#linear-gradient-16);}.cls-32{fill:url(#linear-gradient-17);}.cls-33{fill:url(#linear-gradient-18);}.cls-34{fill:url(#linear-gradient-19);}.cls-35{fill:url(#linear-gradient-20);}.cls-36{fill:url(#linear-gradient-21);}</style><linearGradient id="linear-gradient" x1="3274.73" y1="-1890.31" x2="3391.63" y2="-1890.31" gradientTransform="matrix(0.17, 0.18, -0.18, 0.17, -877.08, -210.58)" gradientUnits="userSpaceOnUse"><stop offset="0" stop-color="#b6da76"/><stop offset="0.25" stop-color="#b1d779"/><stop offset="0.56" stop-color="#a1cd81"/></linearGradient><linearGradient id="linear-gradient-2" x1="3247.76" y1="-1883.95" x2="3364.66" y2="-1883.95" xlink:href="#linear-gradient"/><linearGradient id="linear-gradient-3" x1="3257.64" y1="-1880.76" x2="3374.54" y2="-1880.76" xlink:href="#linear-gradient"/><linearGradient id="linear-gradient-4" x1="3248.08" y1="-1857.49" x2="3364.98" y2="-1857.49" xlink:href="#linear-gradient"/><linearGradient id="linear-gradient-5" x1="3254.73" y1="-1871.26" x2="3371.63" y2="-1871.26" xlink:href="#linear-gradient"/><linearGradient id="linear-gradient-6" x1="3268.65" y1="-1903.42" x2="3385.56" y2="-1903.42" xlink:href="#linear-gradient"/><linearGradient id="linear-gradient-7" x1="3268.97" y1="-1876.96" x2="3385.87" y2="-1876.96" xlink:href="#linear-gradient"/><linearGradient id="linear-gradient-8" x1="3261.32" y1="-1896.72" x2="3378.22" y2="-1896.72" xlink:href="#linear-gradient"/><linearGradient id="linear-gradient-9" x1="3305.21" y1="-1849.09" x2="3422.11" y2="-1849.09" xlink:href="#linear-gradient"/><linearGradient id="linear-gradient-10" x1="36.73" y1="48.27" x2="64.42" y2="48.27" gradientTransform="matrix(1, 0, 0, 1, 0, 0)" xlink:href="#linear-gradient"/><linearGradient id="linear-gradient-11" x1="38.13" y1="50.38" x2="60.95" y2="50.38" gradientTransform="matrix(1, 0, 0, 1, 0, 0)" xlink:href="#linear-gradient"/><linearGradient id="linear-gradient-12" x1="39.11" y1="51.16" x2="59.53" y2="51.16" gradientTransform="matrix(1, 0, 0, 1, 0, 0)" xlink:href="#linear-gradient"/><linearGradient id="linear-gradient-13" x1="40.92" y1="52.73" x2="58.09" y2="52.73" gradientTransform="matrix(1, 0, 0, 1, 0, 0)" xlink:href="#linear-gradient"/><linearGradient id="linear-gradient-14" x1="42.11" y1="55.91" x2="55.93" y2="55.91" gradientTransform="matrix(1, 0, 0, 1, 0, 0)" xlink:href="#linear-gradient"/><linearGradient id="linear-gradient-15" x1="42.8" y1="57.8" x2="54.53" y2="57.8" gradientTransform="matrix(1, 0, 0, 1, 0, 0)" xlink:href="#linear-gradient"/><linearGradient id="linear-gradient-16" x1="45.39" y1="62.38" x2="50.96" y2="62.38" gradientTransform="matrix(1, 0, 0, 1, 0, 0)" xlink:href="#linear-gradient"/><linearGradient id="linear-gradient-17" x1="46.09" y1="64.51" x2="49.83" y2="64.51" gradientTransform="matrix(1, 0, 0, 1, 0, 0)" xlink:href="#linear-gradient"/><linearGradient id="linear-gradient-18" x1="46.64" y1="66.1" x2="49.2" y2="66.1" gradientTransform="matrix(1, 0, 0, 1, 0, 0)" xlink:href="#linear-gradient"/><linearGradient id="linear-gradient-19" x1="37.74" y1="49.14" x2="63.22" y2="49.14" gradientTransform="matrix(1, 0, 0, 1, 0, 0)" xlink:href="#linear-gradient"/><linearGradient id="linear-gradient-20" x1="43.47" y1="58.65" x2="53.22" y2="58.65" gradientTransform="matrix(1, 0, 0, 1, 0, 0)" xlink:href="#linear-gradient"/><linearGradient id="linear-gradient-21" x1="44.38" y1="60.85" x2="52.45" y2="60.85" gradientTransform="matrix(1, 0, 0, 1, 0, 0)" xlink:href="#linear-gradient"/></defs><path class="cls-1" d="M4.8,43.75a37.42,37.42,0,0,0-4,23c2,13,10,28,16,29s9,1,8-4-9-40.66-10-41.33Z"/><path class="cls-1" d="M36.3,48.25l23,55s23-4,35-17,9-31.13,9-31.13Z"/><path class="cls-2" d="M13.62,85.39,12.42,85c-.67-1.22-1.82-2.07-2.28-3.47a4.47,4.47,0,0,1,0-2.23c0-.23-.8-1.46-.87-1.84-.18-.92-.84-2-1.1-2.9-.48-1.69-.85-2.14-1.12-3.38-.13-.57-.09-2.9-.15-3.73-.07-1-.67-1.81-.75-2.95-.08-1.33-.75-2-.52-3.75.14-1.08,1.19-3.21,1.21-4.11s.79-1.53,1.07-2.51l.54.16a7.47,7.47,0,0,0-.65,1.78,22.57,22.57,0,0,0,0,2.44c0,.77-1.26,1.73-1.37,2.48-.2,1.4.64,1.68.83,2.91.1.63.67,1.55.75,2.28.26,2.26-.6,1.38-.07,3.5.74,1.29.53,3,.94,4.55a15.67,15.67,0,0,0,1.07,2.87,9.34,9.34,0,0,1,.64,1.06,14,14,0,0,1,.15,2.31,9.19,9.19,0,0,0,.87,2A18.67,18.67,0,0,0,13.62,85.39Z"/><path class="cls-3" d="M14.17,88s.92,2.1.48,2.6c-.16.18-1-1-1.18-1.3-.3-.54-.68-2.15-1.43-3.62-.65-1.27-1.86-2.12-2.33-3.56a4.44,4.44,0,0,1,0-2.22c0-.24-.8-1.46-.87-1.84-.18-.92-.84-2-1.1-2.9-.48-1.69-.84-2.15-1.12-3.38-.13-.58-.09-2.9-.15-3.74-.07-1-.67-1.8-.74-3-.09-1.33-.76-2-.53-3.75.14-1.07,1.19-3.2,1.21-4.1A2.67,2.67,0,0,1,6.88,56l.65.19a3.62,3.62,0,0,0-.15.56,22.38,22.38,0,0,0,0,2.43c0,.77-1.26,1.74-1.37,2.49-.2,1.39.64,1.67.83,2.91.1.63.67,1.55.75,2.28.26,2.25-.59,1.37-.07,3.5.74,1.28.54,3,.94,4.54a15.76,15.76,0,0,0,1.07,2.88,9.34,9.34,0,0,1,.64,1.06,13.87,13.87,0,0,1,.15,2.3,9,9,0,0,0,.87,2c.17.41,1.3,1.32,2,2.5A9.79,9.79,0,0,1,14.17,88Z"/><path class="cls-3" d="M21.38,92s.92,2.11.48,2.61c-.16.18-1-1-1.18-1.31-.3-.53-.68-2.14-1.43-3.61-.65-1.28-1.86-2.13-2.33-3.56a4.48,4.48,0,0,1,0-2.23c0-.23-.8-1.45-.87-1.84-.18-.92-.84-2-1.1-2.89-.48-1.7-.84-2.15-1.12-3.39-.13-.57-.09-2.9-.15-3.73-.07-1-.67-1.81-.74-3-.09-1.33-.76-2-.53-3.75.14-1.08,1.19-3.21,1.22-4.11a2.5,2.5,0,0,1,.45-1.31l.65.19a2.47,2.47,0,0,0-.14.55,20.62,20.62,0,0,0,0,2.44c0,.77-1.26,1.73-1.37,2.48-.2,1.4.64,1.68.83,2.91.1.63.67,1.56.75,2.29.26,2.25-.59,1.37-.07,3.49.74,1.29.54,3,.94,4.55a15.76,15.76,0,0,0,1.07,2.88,7.86,7.86,0,0,1,.64,1.06,13.81,13.81,0,0,1,.15,2.3,9.19,9.19,0,0,0,.87,2c.17.4,1.3,1.32,2,2.5A9.63,9.63,0,0,1,21.38,92Z"/><path class="cls-3" d="M16.87,88s.92,2.11.48,2.61c-.16.17-1-1-1.18-1.31-.3-.53-.69-2.14-1.43-3.61-.65-1.28-1.86-2.13-2.34-3.56a4.57,4.57,0,0,1,0-2.23c0-.23-.8-1.45-.88-1.84-.17-.92-.84-2-1.09-2.89-.48-1.7-.85-2.15-1.13-3.39-.12-.57-.09-2.9-.14-3.73-.08-1-.68-1.81-.75-3-.08-1.33-.75-2-.53-3.75.14-1.08,1.2-3.21,1.22-4.11A2.43,2.43,0,0,1,9.58,56l.64.19a4.45,4.45,0,0,0-.14.55c-.1.69,0,2.19,0,2.44,0,.77-1.25,1.73-1.36,2.48-.2,1.4.63,1.68.83,2.91.1.63.67,1.56.75,2.29.26,2.25-.6,1.37-.07,3.49.74,1.29.53,3,.93,4.55a15.79,15.79,0,0,0,1.08,2.88,9,9,0,0,1,.64,1.06,14.86,14.86,0,0,1,.14,2.3,10.29,10.29,0,0,0,.87,2c.17.4,1.3,1.32,2.05,2.5A10.07,10.07,0,0,1,16.87,88Z"/><path class="cls-3" d="M17.08,81.71l-1.4-.41a13.83,13.83,0,0,1-1.15-1.64c-.67-1.27-1.86-2.13-2.34-3.56a4.45,4.45,0,0,1,0-2.23c0-.23-.8-1.46-.88-1.84-.17-.92-.84-2-1.1-2.9-.47-1.69-.84-2.14-1.12-3.38C9,65.18,9,62.85,9,62c-.07-1-.67-1.81-.74-3-.08-1.33-.75-2-.53-3.75.14-1.08,1.2-3.21,1.22-4.11a2.49,2.49,0,0,1,.46-1.32l.64.19a2.69,2.69,0,0,0-.14.56,23,23,0,0,0,0,2.44c0,.77-1.25,1.73-1.36,2.48-.21,1.4.63,1.68.83,2.91.1.63.66,1.55.75,2.28.26,2.26-.6,1.38-.07,3.5.74,1.29.53,3,.93,4.55A15.7,15.7,0,0,0,12,71.67a11.07,11.07,0,0,1,.64,1.06A15.06,15.06,0,0,1,12.78,75a10.29,10.29,0,0,0,.87,2,23.82,23.82,0,0,0,2.83,3.81A2.85,2.85,0,0,1,17.08,81.71Z"/><path class="cls-3" d="M18.15,84l-1.39-.41A14,14,0,0,1,15.6,82c-.66-1.27-1.86-2.13-2.33-3.56a4.47,4.47,0,0,1,0-2.23c0-.23-.8-1.46-.87-1.84-.18-.92-.84-2-1.1-2.9-.48-1.69-.84-2.14-1.12-3.38-.13-.57-.09-2.9-.15-3.73-.07-1-.67-1.81-.74-3-.09-1.33-.76-2-.53-3.75C8.91,56.53,10,54.4,10,53.5a2.57,2.57,0,0,1,.45-1.32l.65.19a2.69,2.69,0,0,0-.14.56,20.61,20.61,0,0,0,0,2.44c0,.77-1.26,1.73-1.37,2.48-.2,1.4.64,1.68.83,2.91.1.63.67,1.55.76,2.29.25,2.25-.6,1.37-.08,3.49.74,1.29.54,3,.94,4.55A15.76,15.76,0,0,0,13.07,74a7.39,7.39,0,0,1,.64,1,14,14,0,0,1,.15,2.31,9.19,9.19,0,0,0,.87,2,23.23,23.23,0,0,0,2.83,3.81A2.81,2.81,0,0,1,18.15,84Z"/><path class="cls-2" d="M12.76,85.14l-1.4-.42a12.37,12.37,0,0,1-1.15-1.64C9.54,81.81,8.34,81,7.87,79.52a4.31,4.31,0,0,1,0-2.22c0-.24-.8-1.46-.88-1.84-.18-.92-.84-2-1.1-2.9-.47-1.69-.84-2.15-1.12-3.38-.13-.58-.09-2.9-.15-3.74-.07-1-.67-1.8-.74-2.95-.09-1.33-.75-2-.53-3.75.14-1.08,1.2-3.2,1.22-4.1a2.49,2.49,0,0,1,.46-1.32l.64.19a2.69,2.69,0,0,0-.14.56,22.87,22.87,0,0,0,0,2.43c0,.77-1.25,1.74-1.36,2.49C4,60.38,4.79,60.66,5,61.9c.1.63.67,1.55.76,2.28.25,2.25-.6,1.37-.08,3.5.75,1.28.54,3,.94,4.54A15.76,15.76,0,0,0,7.67,75.1a9.47,9.47,0,0,1,.65,1.06,14.93,14.93,0,0,1,.14,2.3,10,10,0,0,0,.87,2,22.89,22.89,0,0,0,2.83,3.82A2.73,2.73,0,0,1,12.76,85.14Z"/><path class="cls-3" d="M11.58,89.41A9.8,9.8,0,0,1,11,87a6.77,6.77,0,0,0-1.17-2.79C9.17,82.91,8,82.05,7.5,80.62a4.47,4.47,0,0,1,0-2.23c0-.23-.8-1.46-.87-1.84-.18-.92-.84-2-1.1-2.9C5.07,72,4.7,71.51,4.42,70.27c-.13-.57-.09-2.9-.15-3.73-.07-1-.67-1.81-.74-3-.09-1.33-.75-2-.53-3.75.14-1.08,1.2-3.21,1.22-4.11a2.49,2.49,0,0,1,.46-1.32l.64.19a2.69,2.69,0,0,0-.14.56,23,23,0,0,0,0,2.44c0,.77-1.26,1.73-1.36,2.48-.21,1.4.63,1.68.82,2.91.1.63.67,1.55.76,2.28.25,2.26-.6,1.38-.08,3.5.74,1.29.54,3,.94,4.55A15.67,15.67,0,0,0,7.3,76.19a8.08,8.08,0,0,1,.64,1.06,14,14,0,0,1,.15,2.31,9.71,9.71,0,0,0,.87,2c.31.74,1.68,1.74,2.83,3.81a21.51,21.51,0,0,1,.92,4.39C12.7,90.17,11.62,89.49,11.58,89.41Z"/><path class="cls-3" d="M15,91.6a9.67,9.67,0,0,1-.58-2.43,6.91,6.91,0,0,0-1.16-2.79c-.67-1.27-1.86-2.13-2.34-3.56a4.45,4.45,0,0,1,0-2.23c0-.23-.8-1.46-.88-1.84-.17-.92-.84-2-1.09-2.9-.48-1.69-.85-2.14-1.13-3.38-.12-.57-.09-2.9-.15-3.73-.07-1-.67-1.81-.74-2.95-.08-1.33-.75-2-.53-3.75.14-1.08,1.2-3.21,1.22-4.11a2.49,2.49,0,0,1,.46-1.32l.64.19a5.08,5.08,0,0,0-.14.56,23,23,0,0,0,0,2.44c0,.77-1.25,1.73-1.36,2.48-.21,1.4.63,1.68.83,2.91.1.63.66,1.55.75,2.28.26,2.26-.6,1.38-.07,3.5.74,1.29.53,3,.93,4.55a15.7,15.7,0,0,0,1.08,2.87,11.07,11.07,0,0,1,.64,1.06,15.06,15.06,0,0,1,.14,2.31,10.29,10.29,0,0,0,.87,2c.31.74,1.68,1.74,2.83,3.81A20.85,20.85,0,0,1,16.15,92C16.15,92.36,15.06,91.69,15,91.6Z"/><path class="cls-3" d="M18.09,91.56a9.8,9.8,0,0,1-.58-2.44,6.83,6.83,0,0,0-1.17-2.79c-.66-1.27-1.86-2.12-2.33-3.56a4.43,4.43,0,0,1,0-2.22c0-.24-.8-1.46-.87-1.85-.18-.92-.84-2-1.1-2.89-.48-1.69-.84-2.15-1.12-3.38-.13-.58-.09-2.9-.15-3.74-.07-1-.67-1.81-.74-3-.09-1.33-.76-2-.53-3.75.14-1.08,1.19-3.2,1.22-4.11a2.5,2.5,0,0,1,.45-1.31l.65.19a2.62,2.62,0,0,0-.14.55,20.63,20.63,0,0,0,0,2.44c0,.77-1.26,1.74-1.37,2.48-.2,1.4.64,1.68.83,2.91.1.63.67,1.56.75,2.29.26,2.25-.59,1.37-.07,3.49.74,1.29.54,3,.94,4.55a15.76,15.76,0,0,0,1.07,2.88,9.34,9.34,0,0,1,.64,1.06,13.87,13.87,0,0,1,.15,2.3,9,9,0,0,0,.87,2c.31.75,1.68,1.75,2.83,3.81a21.51,21.51,0,0,1,.92,4.39C19.21,92.32,18.13,91.64,18.09,91.56Z"/><path class="cls-3" d="M21.2,91a9.67,9.67,0,0,1-.58-2.43,6.91,6.91,0,0,0-1.16-2.79c-.67-1.27-1.86-2.13-2.34-3.56a4.45,4.45,0,0,1,0-2.23c0-.23-.8-1.46-.88-1.84-.17-.92-.84-2-1.09-2.9-.48-1.69-.85-2.14-1.13-3.38-.12-.57-.09-2.9-.14-3.73-.08-1-.68-1.81-.75-2.95-.08-1.33-.75-2-.53-3.75.14-1.08,1.2-3.21,1.22-4.11A2.49,2.49,0,0,1,14.3,56l.64.19a5.08,5.08,0,0,0-.14.56c-.1.68,0,2.19,0,2.44,0,.77-1.25,1.73-1.36,2.48-.2,1.4.63,1.68.83,2.91.1.63.66,1.55.75,2.28.26,2.25-.6,1.37-.07,3.5.74,1.29.53,3,.93,4.55a16,16,0,0,0,1.08,2.87,11.07,11.07,0,0,1,.64,1.06,15.06,15.06,0,0,1,.14,2.31,10.55,10.55,0,0,0,.87,2c.31.74,1.68,1.74,2.83,3.81a20.88,20.88,0,0,1,.92,4.38C22.33,91.75,21.24,91.08,21.2,91Z"/><path class="cls-3" d="M19.83,91.75a9.67,9.67,0,0,1-.58-2.43,7,7,0,0,0-1.17-2.79c-.66-1.27-1.86-2.13-2.33-3.56a4.47,4.47,0,0,1,0-2.23c0-.23-.8-1.46-.87-1.84-.18-.92-.84-2-1.1-2.9-.48-1.69-.84-2.14-1.12-3.38-.13-.57-.09-2.9-.15-3.73-.07-1-.67-1.81-.74-3-.09-1.33-.76-2-.53-3.75.14-1.08,1.19-3.21,1.21-4.11a2.67,2.67,0,0,1,.46-1.32l.64.19a5.08,5.08,0,0,0-.14.56,22.57,22.57,0,0,0,0,2.44c0,.77-1.26,1.73-1.37,2.48-.2,1.4.64,1.68.83,2.91.1.63.67,1.55.75,2.28.26,2.26-.59,1.38-.07,3.5.74,1.29.53,3,.94,4.55a15.67,15.67,0,0,0,1.07,2.87,9.34,9.34,0,0,1,.64,1.06,14,14,0,0,1,.15,2.31,9.19,9.19,0,0,0,.87,2c.31.74,1.68,1.74,2.83,3.81A21.51,21.51,0,0,1,21,92.11C21,92.52,19.87,91.84,19.83,91.75Z"/><path class="cls-3" d="M22.81,91.37a9.76,9.76,0,0,1-.58-2.43,7,7,0,0,0-1.16-2.8c-.67-1.27-1.86-2.12-2.34-3.56a4.42,4.42,0,0,1,0-2.22c0-.24-.8-1.46-.88-1.84-.17-.92-.84-2-1.09-2.9-.48-1.69-.85-2.15-1.13-3.38-.12-.58-.09-2.9-.14-3.74-.08-1-.68-1.81-.75-3-.08-1.33-.75-2-.53-3.75.14-1.08,1.2-3.2,1.22-4.1a2.49,2.49,0,0,1,.46-1.32l.64.19a5.08,5.08,0,0,0-.14.56c-.1.68,0,2.19,0,2.43,0,.77-1.25,1.74-1.36,2.49-.2,1.39.63,1.67.83,2.91.1.63.66,1.55.75,2.28.26,2.25-.6,1.37-.07,3.5.74,1.28.53,3,.93,4.54a15.79,15.79,0,0,0,1.08,2.88,11.07,11.07,0,0,1,.64,1.06,14.93,14.93,0,0,1,.14,2.3,10,10,0,0,0,.87,2c.31.75,1.68,1.75,2.83,3.82a20.59,20.59,0,0,1,.92,4.38C23.94,92.13,22.85,91.45,22.81,91.37Z"/><path class="cls-3" d="M12.69,77.09a9.76,9.76,0,0,1-.58-2.43,6.82,6.82,0,0,0-1.17-2.8c-.66-1.27-1.86-2.12-2.33-3.56a4.44,4.44,0,0,1,0-2.22c0-.24-.8-1.46-.87-1.84-.18-.92-.84-2-1.1-2.9-.48-1.69-.84-2.15-1.12-3.38-.13-.58-.09-2.9-.15-3.74-.07-1-.67-1.81-.74-2.95-.09-1.33-.76-2-.53-3.75.14-1.08,1.19-3.2,1.22-4.1a2.54,2.54,0,0,1,.45-1.32l.65.19a2.69,2.69,0,0,0-.14.56,20.45,20.45,0,0,0,0,2.43c0,.77-1.26,1.74-1.37,2.49-.2,1.39.64,1.67.83,2.91.1.63.67,1.55.75,2.28.26,2.25-.59,1.37-.07,3.5.74,1.28.54,3,.94,4.54a15.76,15.76,0,0,0,1.07,2.88,9.34,9.34,0,0,1,.64,1.06,13.87,13.87,0,0,1,.15,2.3,9,9,0,0,0,.87,2c.31.75,1.68,1.75,2.83,3.82a21.24,21.24,0,0,1,.92,4.38C13.81,77.85,12.73,77.17,12.69,77.09Z"/><path class="cls-3" d="M24,91.09a9.67,9.67,0,0,1-.58-2.43,7,7,0,0,0-1.17-2.79c-.66-1.27-1.86-2.13-2.33-3.56a4.47,4.47,0,0,1,0-2.23c0-.23-.8-1.46-.87-1.84-.18-.92-.84-2-1.1-2.9-.48-1.69-.84-2.14-1.12-3.38-.13-.57-.09-2.9-.15-3.73-.07-1-.67-1.81-.74-3-.09-1.33-.76-2-.53-3.75.14-1.08,1.19-3.21,1.21-4.11a2.67,2.67,0,0,1,.46-1.32l.64.19a5.08,5.08,0,0,0-.14.56,22.57,22.57,0,0,0,0,2.44c0,.77-1.26,1.73-1.37,2.48-.2,1.4.64,1.68.83,2.91.1.63.67,1.55.75,2.28.26,2.25-.59,1.38-.07,3.5.74,1.29.53,3,.94,4.55a15.94,15.94,0,0,0,1.07,2.87,9.34,9.34,0,0,1,.64,1.06,14,14,0,0,1,.15,2.31,9.41,9.41,0,0,0,.87,2c.31.74,1.68,1.74,2.83,3.81a21.54,21.54,0,0,1,.92,4.38C25.11,91.85,24,91.18,24,91.09Z"/><path class="cls-2" d="M20.12,91.36a9.21,9.21,0,0,1-.58-2.43,7,7,0,0,0-1.17-2.79C17.71,84.87,16.51,84,16,82.58a4.47,4.47,0,0,1,0-2.23c0-.23-.8-1.46-.87-1.84-.18-.92-.84-2-1.1-2.9-.48-1.69-.84-2.14-1.12-3.38-.13-.57-.09-2.9-.15-3.73-.07-1-.67-1.81-.75-3-.08-1.33-.75-2-.52-3.75.14-1.08,1.19-3.21,1.21-4.11a2.67,2.67,0,0,1,.46-1.32l.64.19a5.08,5.08,0,0,0-.14.56,22.57,22.57,0,0,0,0,2.44c0,.77-1.26,1.73-1.37,2.48-.2,1.4.64,1.68.83,2.91.1.63.67,1.55.75,2.28.26,2.26-.59,1.38-.07,3.5.74,1.29.53,3,.94,4.55a15.67,15.67,0,0,0,1.07,2.87,9.34,9.34,0,0,1,.64,1.06,14,14,0,0,1,.15,2.31,9.19,9.19,0,0,0,.87,2c.31.74,1.68,1.74,2.83,3.81a21.51,21.51,0,0,1,.92,4.39C21.24,92.12,20.16,91.45,20.12,91.36Z"/><path class="cls-2" d="M22.38,92.31a9.8,9.8,0,0,1-.58-2.44,7,7,0,0,0-1.16-2.79C20,85.81,18.77,85,18.3,83.52a4.3,4.3,0,0,1,0-2.22c0-.24-.8-1.46-.88-1.85-.18-.92-.84-2-1.1-2.89-.47-1.69-.84-2.15-1.12-3.38-.13-.58-.09-2.9-.15-3.74-.07-1-.67-1.81-.74-3-.09-1.33-.75-2-.53-3.75.14-1.08,1.2-3.2,1.22-4.11a2.43,2.43,0,0,1,.46-1.31l.64.19a2.69,2.69,0,0,0-.14.56,22.87,22.87,0,0,0,0,2.43c0,.77-1.26,1.74-1.36,2.48-.21,1.4.63,1.68.82,2.91.1.63.67,1.56.76,2.29.25,2.25-.6,1.37-.08,3.49.75,1.29.54,3,.94,4.55A15.76,15.76,0,0,0,18.1,79.1a9.47,9.47,0,0,1,.65,1.06,14.93,14.93,0,0,1,.14,2.3,10,10,0,0,0,.87,2c.31.75,1.68,1.75,2.83,3.81a21.51,21.51,0,0,1,.92,4.39C23.51,93.07,22.42,92.39,22.38,92.31Z"/><path class="cls-2" d="M22.51,89.59a9.8,9.8,0,0,1-.58-2.44,6.91,6.91,0,0,0-1.16-2.79c-.67-1.27-1.87-2.13-2.34-3.56a4.34,4.34,0,0,1,0-2.23c0-.23-.8-1.46-.88-1.84-.18-.92-.84-2-1.1-2.89-.47-1.7-.84-2.15-1.12-3.39-.13-.57-.09-2.9-.15-3.73-.07-1-.67-1.81-.74-2.95-.09-1.33-.75-2-.53-3.75.14-1.08,1.2-3.21,1.22-4.11a2.49,2.49,0,0,1,.46-1.32l.64.2a2.47,2.47,0,0,0-.14.55,23.05,23.05,0,0,0,0,2.44c0,.77-1.26,1.73-1.36,2.48-.21,1.4.63,1.68.82,2.91.1.63.67,1.56.76,2.29.25,2.25-.6,1.37-.08,3.49.75,1.29.54,3,.94,4.55a15.76,15.76,0,0,0,1.07,2.88,8.55,8.55,0,0,1,.65,1.05A15.06,15.06,0,0,1,19,79.74a9.71,9.71,0,0,0,.87,2c.31.75,1.68,1.74,2.83,3.81a21.51,21.51,0,0,1,.92,4.39C23.64,90.35,22.55,89.67,22.51,89.59Z"/><path class="cls-2" d="M22.83,84.8a9.8,9.8,0,0,1-.58-2.44,6.83,6.83,0,0,0-1.17-2.79c-.66-1.27-1.86-2.12-2.33-3.56a4.43,4.43,0,0,1,0-2.22c0-.24-.8-1.46-.87-1.85-.18-.92-.84-2-1.1-2.89-.48-1.69-.84-2.15-1.12-3.38-.13-.58-.09-2.9-.15-3.74-.07-1-.67-1.81-.74-3-.09-1.33-.76-2-.53-3.75.14-1.08,1.19-3.2,1.22-4.11a2.5,2.5,0,0,1,.45-1.31l.65.19a2.62,2.62,0,0,0-.14.55,20.63,20.63,0,0,0,0,2.44c0,.77-1.26,1.74-1.37,2.48-.2,1.4.64,1.68.83,2.91.1.63.67,1.56.75,2.29.26,2.25-.59,1.37-.07,3.49.74,1.29.54,3,.94,4.55a15.76,15.76,0,0,0,1.07,2.88,8.54,8.54,0,0,1,.64,1.06,13.81,13.81,0,0,1,.15,2.3,9,9,0,0,0,.87,2c.31.75,1.68,1.75,2.83,3.81A21.51,21.51,0,0,1,24,85.15C24,85.56,22.87,84.88,22.83,84.8Z"/><path class="cls-2" d="M17.66,90a9.54,9.54,0,0,1-.59-2.44,6.91,6.91,0,0,0-1.16-2.79c-.67-1.27-1.86-2.13-2.34-3.56a4.57,4.57,0,0,1,0-2.23c0-.23-.8-1.46-.87-1.84-.18-.92-.85-2-1.1-2.89-.48-1.7-.85-2.15-1.13-3.39-.12-.57-.08-2.9-.14-3.73-.08-1-.68-1.81-.75-3-.08-1.33-.75-2-.53-3.75.14-1.08,1.2-3.21,1.22-4.11A2.49,2.49,0,0,1,10.75,55l.64.2a4.45,4.45,0,0,0-.14.55c-.1.69,0,2.19,0,2.44,0,.77-1.25,1.73-1.36,2.48-.2,1.4.63,1.68.83,2.91.1.63.67,1.56.75,2.29.26,2.25-.6,1.37-.07,3.49.74,1.29.53,3,.94,4.55a15.06,15.06,0,0,0,1.07,2.88,9.84,9.84,0,0,1,.64,1,15.06,15.06,0,0,1,.14,2.31,10.29,10.29,0,0,0,.87,2c.31.75,1.69,1.74,2.84,3.81a20.94,20.94,0,0,1,.91,4.39C18.78,90.78,17.69,90.1,17.66,90Z"/><path class="cls-2" d="M15.42,89.87a9.8,9.8,0,0,1-.58-2.44,7,7,0,0,0-1.16-2.79c-.67-1.27-1.86-2.12-2.34-3.56a4.41,4.41,0,0,1,0-2.22c0-.24-.8-1.46-.88-1.85-.17-.92-.84-2-1.09-2.89-.48-1.69-.85-2.15-1.13-3.38-.12-.58-.09-2.9-.14-3.74-.08-1-.68-1.81-.75-3-.08-1.33-.75-2-.53-3.75C7,59.22,8,57.1,8.06,56.19a2.43,2.43,0,0,1,.46-1.31l.64.19a4.58,4.58,0,0,0-.14.56c-.1.68,0,2.19,0,2.43,0,.77-1.25,1.74-1.36,2.48-.2,1.4.63,1.68.83,2.91.1.63.66,1.56.75,2.29.26,2.25-.6,1.37-.07,3.49.74,1.29.53,3,.93,4.55a15.79,15.79,0,0,0,1.08,2.88,11.07,11.07,0,0,1,.64,1.06,14.93,14.93,0,0,1,.14,2.3,10,10,0,0,0,.87,2c.31.75,1.68,1.75,2.83,3.81a20.85,20.85,0,0,1,.92,4.39C16.55,90.63,15.46,90,15.42,89.87Z"/><path class="cls-2" d="M13.88,89.43A9.29,9.29,0,0,1,13.3,87a7,7,0,0,0-1.17-2.79c-.66-1.28-1.86-2.13-2.34-3.56a4.57,4.57,0,0,1,0-2.23c0-.23-.8-1.46-.87-1.84-.18-.92-.84-2-1.1-2.9C7.36,72,7,71.54,6.72,70.3c-.13-.58-.09-2.9-.15-3.73-.07-1-.67-1.81-.75-2.95-.08-1.33-.75-2-.52-3.75.14-1.08,1.19-3.21,1.21-4.11A2.67,2.67,0,0,1,7,54.44l.64.19a5.08,5.08,0,0,0-.14.56,22.38,22.38,0,0,0,0,2.43c0,.77-1.26,1.74-1.37,2.49-.2,1.4.64,1.68.83,2.91.1.63.67,1.55.75,2.28.26,2.25-.6,1.37-.07,3.5.74,1.29.53,3,.94,4.55A15.94,15.94,0,0,0,9.6,76.22a9.34,9.34,0,0,1,.64,1.06,13.94,13.94,0,0,1,.15,2.3,9.25,9.25,0,0,0,.87,2c.31.74,1.68,1.74,2.83,3.81A21.39,21.39,0,0,1,15,89.78C15,90.19,13.92,89.52,13.88,89.43Z"/><path class="cls-3" d="M14.65,81.54l-1.39-.41a14,14,0,0,1-1.16-1.64c-.66-1.27-1.86-2.13-2.33-3.56a4.47,4.47,0,0,1,0-2.23c0-.23-.8-1.46-.87-1.84-.18-.92-.84-2-1.1-2.9-.48-1.69-.84-2.14-1.12-3.38-.13-.57-.09-2.9-.15-3.73-.07-1-.67-1.81-.74-3-.09-1.33-.76-2-.53-3.75.14-1.08,1.19-3.21,1.22-4.11a2.57,2.57,0,0,1,.45-1.32l.65.19a2.69,2.69,0,0,0-.14.56,20.61,20.61,0,0,0,0,2.44c0,.77-1.26,1.73-1.37,2.48-.2,1.4.64,1.68.83,2.91.1.63.67,1.55.76,2.28.25,2.26-.6,1.38-.08,3.5.74,1.29.54,3,.94,4.55A15.67,15.67,0,0,0,9.57,71.5a8.08,8.08,0,0,1,.64,1.06,14,14,0,0,1,.15,2.31,9.19,9.19,0,0,0,.87,2,23.23,23.23,0,0,0,2.83,3.81A2.81,2.81,0,0,1,14.65,81.54Z"/><path class="cls-2" d="M15.71,86.39,14.5,86a6,6,0,0,1-1.16-1.77A4.62,4.62,0,0,1,13.25,82c0-.24-.86-1.42-.95-1.8-.22-.91-.93-1.95-1.23-2.85-.56-1.66-.94-2.1-1.28-3.32-.15-.57-.22-2.89-.31-3.72-.12-1-.76-1.78-.88-2.91-.15-1.33-.85-2-.7-3.72.09-1.09,1-3.26,1-4.16,0-1.16.88-1.67,1-2.91a7.16,7.16,0,0,0-.07-1.53l1,.29a1.44,1.44,0,0,1,0,.46,30.45,30.45,0,0,0-1,3.08A22.57,22.57,0,0,0,10,61.38c0,.77-1.18,1.79-1.25,2.54-.14,1.41.7,1.65,1,2.87.13.62.74,1.52.86,2.25.36,2.23-.53,1.39.09,3.49.8,1.25.67,3,1.14,4.5a16.37,16.37,0,0,0,1.2,2.82,7.72,7.72,0,0,1,.69,1,14.75,14.75,0,0,1,.25,2.29,9.76,9.76,0,0,0,1,2A8.86,8.86,0,0,0,15.71,86.39Z"/><path class="cls-2" d="M17,81l-1.21-.36a6,6,0,0,1-1.16-1.77,4.62,4.62,0,0,1-.09-2.22c0-.24-.86-1.42-1-1.8-.22-.91-.93-2-1.23-2.84-.56-1.67-.94-2.11-1.28-3.33-.15-.57-.22-2.89-.31-3.72-.12-1-.76-1.78-.88-2.91-.15-1.33-.85-2-.7-3.72.09-1.09,1.05-3.26,1-4.16,0-1.16.88-1.67,1-2.91a7.16,7.16,0,0,0-.07-1.53l1,.29a1.44,1.44,0,0,1,0,.46,31.35,31.35,0,0,0-1,3.08A22.34,22.34,0,0,0,11.25,56c0,.77-1.18,1.79-1.25,2.54-.14,1.41.7,1.65.95,2.87.13.63.74,1.52.86,2.25.36,2.23-.53,1.4.09,3.49.8,1.25.67,2.95,1.14,4.5a16,16,0,0,0,1.2,2.82,7.72,7.72,0,0,1,.69,1,14.87,14.87,0,0,1,.25,2.3,9.7,9.7,0,0,0,1,2A9.81,9.81,0,0,0,17,81Z"/><path class="cls-2" d="M17.22,83.76,16,83.4c-.67-1.22-1.82-2.07-2.29-3.47a4.58,4.58,0,0,1,0-2.23c0-.23-.8-1.46-.88-1.84-.17-.92-.84-2-1.09-2.89-.48-1.7-.85-2.15-1.13-3.39-.12-.57-.09-2.9-.14-3.73-.08-1-.68-1.81-.75-2.95-.08-1.33-.75-2-.53-3.75.14-1.08,1.2-3.21,1.22-4.11s.78-1.53,1.07-2.51l.54.16a7.47,7.47,0,0,0-.65,1.78c-.1.69,0,2.19,0,2.44,0,.77-1.25,1.73-1.36,2.48-.2,1.4.63,1.68.83,2.91.1.63.67,1.56.75,2.29.26,2.25-.6,1.37-.07,3.49.74,1.29.53,3,.93,4.55a15.79,15.79,0,0,0,1.08,2.88,9,9,0,0,1,.64,1.06,14.86,14.86,0,0,1,.14,2.3,10.29,10.29,0,0,0,.87,2A20.16,20.16,0,0,0,17.22,83.76Z"/><path class="cls-3" d="M19.59,89.42,18.19,89A13.83,13.83,0,0,1,17,87.37c-.66-1.27-1.86-2.13-2.33-3.56a4.48,4.48,0,0,1,0-2.23c0-.23-.8-1.45-.87-1.84-.18-.92-.84-2-1.1-2.89-.48-1.7-.85-2.15-1.12-3.39-.13-.57-.09-2.9-.15-3.73-.07-1-.67-1.81-.75-3-.08-1.33-.75-2-.52-3.75.14-1.08,1.19-3.21,1.21-4.11a2.6,2.6,0,0,1,.46-1.31l.64.19a4.45,4.45,0,0,0-.14.55,22.57,22.57,0,0,0,0,2.44c0,.77-1.26,1.73-1.37,2.48-.2,1.4.64,1.68.83,2.91.1.63.67,1.56.75,2.29.26,2.25-.59,1.37-.07,3.49.74,1.29.53,3,.94,4.55a15.76,15.76,0,0,0,1.07,2.88,7.86,7.86,0,0,1,.64,1.06,13.81,13.81,0,0,1,.15,2.3,9.19,9.19,0,0,0,.87,2A22.41,22.41,0,0,0,19,88.56,2.81,2.81,0,0,1,19.59,89.42Z"/><path class="cls-3" d="M20.67,80.08l-1.39-.42A13.21,13.21,0,0,1,18.12,78c-.66-1.27-1.86-2.12-2.33-3.56a4.43,4.43,0,0,1,0-2.22c0-.24-.8-1.46-.87-1.85-.18-.92-.84-2-1.1-2.89-.48-1.69-.84-2.15-1.12-3.38-.13-.58-.09-2.9-.15-3.74-.07-1-.67-1.81-.74-3-.09-1.33-.76-2-.53-3.75.14-1.08,1.19-3.2,1.22-4.11A2.5,2.5,0,0,1,13,48.26l.65.19a2.62,2.62,0,0,0-.14.55,23.06,23.06,0,0,0,0,2.44c0,.77-1.26,1.74-1.37,2.48-.2,1.4.64,1.68.83,2.91.1.63.67,1.56.76,2.29.25,2.25-.6,1.37-.08,3.49.74,1.29.54,3,.94,4.55A15.76,15.76,0,0,0,15.59,70a7.47,7.47,0,0,1,.64,1.06,13.81,13.81,0,0,1,.15,2.3,9.48,9.48,0,0,0,.87,2,22.41,22.41,0,0,0,2.83,3.81A2.58,2.58,0,0,1,20.67,80.08Z"/><path class="cls-2" d="M16.35,83.5,15,83.09a15.11,15.11,0,0,1-1.15-1.64c-.66-1.27-1.86-2.13-2.33-3.56a4.47,4.47,0,0,1,0-2.23c0-.23-.8-1.46-.87-1.84-.18-.92-.84-2-1.1-2.9-.48-1.69-.84-2.14-1.12-3.38-.13-.57-.09-2.9-.15-3.73-.07-1-.67-1.81-.74-3-.09-1.33-.76-2-.53-3.75C7.11,56,8.16,53.9,8.19,53a2.57,2.57,0,0,1,.45-1.32l.65.19a2.69,2.69,0,0,0-.14.56,20.61,20.61,0,0,0,0,2.44c0,.77-1.26,1.73-1.37,2.48-.2,1.4.64,1.68.83,2.91.1.63.67,1.55.75,2.28.26,2.25-.59,1.38-.07,3.5.74,1.29.54,3,.94,4.55a15.94,15.94,0,0,0,1.07,2.87,9.34,9.34,0,0,1,.64,1.06,14,14,0,0,1,.15,2.31,9.41,9.41,0,0,0,.87,2,23.23,23.23,0,0,0,2.83,3.81A2.81,2.81,0,0,1,16.35,83.5Z"/><path class="cls-3" d="M17.08,86l-1.4-.41A13.83,13.83,0,0,1,14.53,84c-.66-1.27-1.86-2.13-2.34-3.56a4.57,4.57,0,0,1,0-2.23c0-.23-.8-1.46-.87-1.84-.18-.92-.84-2-1.1-2.9-.48-1.69-.85-2.14-1.12-3.38C9,69.49,9,67.16,9,66.33c-.07-1-.67-1.81-.75-2.95-.08-1.33-.75-2-.52-3.75.14-1.08,1.19-3.21,1.21-4.11a2.67,2.67,0,0,1,.46-1.32l.64.19a5.08,5.08,0,0,0-.14.56,22.57,22.57,0,0,0,0,2.44c0,.77-1.26,1.73-1.37,2.48-.2,1.4.63,1.68.83,2.91.1.63.67,1.55.75,2.28.26,2.25-.6,1.38-.07,3.5.74,1.29.53,3,.94,4.55A15.94,15.94,0,0,0,12,76,9.34,9.34,0,0,1,12.64,77a14,14,0,0,1,.15,2.31,9.41,9.41,0,0,0,.87,2,23.23,23.23,0,0,0,2.83,3.81A2.81,2.81,0,0,1,17.08,86Z"/><path class="cls-3" d="M18.25,79.9l-1.4-.41a13.83,13.83,0,0,1-1.15-1.64c-.66-1.27-1.86-2.13-2.34-3.56a4.58,4.58,0,0,1,0-2.23c0-.23-.8-1.45-.87-1.84-.18-.92-.85-2-1.1-2.89-.48-1.7-.85-2.15-1.12-3.39-.13-.57-.09-2.9-.15-3.73-.07-1-.67-1.81-.75-3-.08-1.33-.75-2-.53-3.75.15-1.08,1.2-3.21,1.22-4.11a2.51,2.51,0,0,1,.46-1.31l.64.19a4.45,4.45,0,0,0-.14.55,22.57,22.57,0,0,0,0,2.44C11,52,9.76,53,9.65,53.75c-.2,1.4.63,1.68.83,2.91.1.63.67,1.56.75,2.29.26,2.25-.6,1.37-.07,3.49.74,1.29.53,3,.94,4.55a15.06,15.06,0,0,0,1.07,2.88,7.86,7.86,0,0,1,.64,1.06,15,15,0,0,1,.15,2.3,9.19,9.19,0,0,0,.87,2A21.89,21.89,0,0,0,17.66,79,2.81,2.81,0,0,1,18.25,79.9Z"/><path class="cls-2" d="M19.31,84.75l-1.21-.36a5.78,5.78,0,0,1-1.16-1.77,4.39,4.39,0,0,1-.09-2.22c0-.23-.86-1.42-1-1.8-.22-.91-.93-1.95-1.23-2.84-.55-1.67-.94-2.11-1.27-3.33-.15-.57-.22-2.89-.32-3.72-.12-1-.75-1.78-.88-2.91-.14-1.33-.84-2-.69-3.72.09-1.09,1.05-3.26,1-4.16,0-1.16.88-1.67,1-2.91a7.89,7.89,0,0,0-.07-1.53l1,.29a1.79,1.79,0,0,1,0,.46,28.87,28.87,0,0,0-1,3.08,22.82,22.82,0,0,0,.08,2.43c0,.77-1.17,1.79-1.25,2.54-.14,1.41.71,1.65,1,2.87.13.63.74,1.52.86,2.25.36,2.24-.54,1.4.08,3.49.8,1.26.67,3,1.15,4.5a15,15,0,0,0,1.2,2.82,9.74,9.74,0,0,1,.69,1,14.87,14.87,0,0,1,.25,2.3,9.7,9.7,0,0,0,1,1.95A8.86,8.86,0,0,0,19.31,84.75Z"/><path class="cls-2" d="M20.61,79.37,19.4,79a5.73,5.73,0,0,1-1.16-1.76A4.42,4.42,0,0,1,18.15,75c0-.23-.86-1.42-1-1.8-.22-.91-.93-1.94-1.23-2.84-.55-1.67-.94-2.1-1.27-3.33-.15-.56-.22-2.89-.32-3.72-.12-1-.75-1.77-.88-2.91-.14-1.32-.84-2-.69-3.72.09-1.08,1-3.25,1-4.16,0-1.16.88-1.67,1-2.9a7.84,7.84,0,0,0-.07-1.53l1,.29a1.75,1.75,0,0,1,0,.46,27.79,27.79,0,0,0-1,3.07,23.14,23.14,0,0,0,.08,2.44c0,.77-1.17,1.78-1.25,2.54-.14,1.4.71,1.64,1,2.86.13.63.74,1.53.86,2.25.36,2.24-.54,1.4.08,3.49.8,1.26.67,2.95,1.15,4.5a15.42,15.42,0,0,0,1.2,2.83c.18.34.58.69.69,1a14.75,14.75,0,0,1,.25,2.29,10,10,0,0,0,1,2A8.36,8.36,0,0,0,20.61,79.37Z"/><path class="cls-2" d="M12.65,82.34,11.46,82c-.67-1.22-1.83-2.07-2.29-3.47a4.48,4.48,0,0,1,0-2.23c0-.23-.79-1.46-.87-1.84-.18-.92-.84-2-1.1-2.89-.47-1.7-.84-2.15-1.12-3.39-.13-.57-.09-2.9-.15-3.73-.07-1-.67-1.81-.74-3-.09-1.33-.75-2-.53-3.75.14-1.08,1.2-3.21,1.22-4.11S6.67,52.09,7,51.11l.54.16a7.41,7.41,0,0,0-.64,1.78,23.05,23.05,0,0,0,0,2.44c0,.77-1.26,1.73-1.36,2.48-.21,1.4.63,1.68.82,2.91.1.63.67,1.56.76,2.29.25,2.25-.6,1.37-.08,3.49.74,1.29.54,3,.94,4.55A15.76,15.76,0,0,0,9,74.09a7,7,0,0,1,.64,1.06,13.81,13.81,0,0,1,.15,2.3,9.71,9.71,0,0,0,.87,2A20.77,20.77,0,0,0,12.65,82.34Z"/><path class="cls-3" d="M13.63,84.72l-1.4-.41a13.83,13.83,0,0,1-1.15-1.64c-.67-1.27-1.87-2.13-2.34-3.56a4.45,4.45,0,0,1,0-2.23c0-.23-.8-1.46-.88-1.84-.18-.92-.84-2-1.1-2.9-.47-1.69-.84-2.14-1.12-3.38-.13-.57-.09-2.9-.15-3.73-.07-1-.67-1.81-.74-3-.09-1.33-.75-2-.53-3.75.14-1.08,1.2-3.21,1.22-4.11a2.49,2.49,0,0,1,.46-1.32l.64.19a2.69,2.69,0,0,0-.14.56,23,23,0,0,0,0,2.44c0,.77-1.25,1.73-1.36,2.48-.21,1.4.63,1.68.82,2.91.1.63.67,1.55.76,2.28.25,2.25-.6,1.38-.08,3.5.75,1.29.54,3,.94,4.55a15.25,15.25,0,0,0,1.08,2.87,11.07,11.07,0,0,1,.64,1.06,15.06,15.06,0,0,1,.14,2.31,10.55,10.55,0,0,0,.87,2A23.23,23.23,0,0,0,13,83.86,2.85,2.85,0,0,1,13.63,84.72Z"/><path class="cls-3" d="M16.11,78.66l-1.4-.42a13.06,13.06,0,0,1-1.15-1.64c-.66-1.27-1.86-2.12-2.34-3.56a4.53,4.53,0,0,1,0-2.22c0-.24-.8-1.46-.87-1.85-.18-.92-.85-2-1.1-2.89-.48-1.69-.85-2.15-1.12-3.38C8,62.12,8.06,59.79,8,59c-.07-1-.67-1.81-.75-3-.08-1.33-.75-2-.52-3.75.14-1.08,1.19-3.2,1.21-4.11a2.51,2.51,0,0,1,.46-1.31L9,47a4.45,4.45,0,0,0-.14.55,22.57,22.57,0,0,0,0,2.44c0,.77-1.26,1.73-1.37,2.48-.2,1.4.63,1.68.83,2.91.1.63.67,1.56.75,2.29.26,2.25-.6,1.37-.07,3.49.74,1.29.53,3,.94,4.55A15.06,15.06,0,0,0,11,68.62a8.54,8.54,0,0,1,.64,1.06,15,15,0,0,1,.15,2.3,9,9,0,0,0,.87,2,21.89,21.89,0,0,0,2.83,3.81A2.74,2.74,0,0,1,16.11,78.66Z"/><path class="cls-3" d="M17.19,81l-1.4-.42a13.06,13.06,0,0,1-1.15-1.64c-.67-1.27-1.86-2.12-2.34-3.56a4.41,4.41,0,0,1,0-2.22c0-.24-.8-1.46-.88-1.85-.17-.92-.84-2-1.1-2.89C9.87,66.68,9.5,66.22,9.22,65c-.13-.58-.09-2.9-.15-3.74-.07-1-.67-1.81-.74-3-.08-1.33-.75-2-.53-3.75C7.94,53.47,9,51.35,9,50.44a2.43,2.43,0,0,1,.46-1.31l.64.19a2.62,2.62,0,0,0-.14.55,23.06,23.06,0,0,0,0,2.44c0,.77-1.25,1.74-1.36,2.48-.21,1.4.63,1.68.83,2.91.1.63.66,1.56.75,2.29.26,2.25-.6,1.37-.08,3.49.75,1.29.54,3,.94,4.55a15.79,15.79,0,0,0,1.08,2.88A11.07,11.07,0,0,1,12.75,72a14.86,14.86,0,0,1,.14,2.3,10,10,0,0,0,.87,2,22.41,22.41,0,0,0,2.83,3.81A2.77,2.77,0,0,1,17.19,81Z"/><path class="cls-2" d="M11.79,82.08l-1.4-.41A13.83,13.83,0,0,1,9.24,80c-.67-1.27-1.86-2.13-2.34-3.56a4.57,4.57,0,0,1,0-2.23c0-.23-.8-1.46-.87-1.84-.18-.92-.85-2-1.1-2.9-.48-1.69-.85-2.14-1.12-3.38-.13-.57-.09-2.9-.15-3.73-.08-1-.68-1.81-.75-3-.08-1.33-.75-2-.53-3.75.14-1.08,1.2-3.21,1.22-4.11a2.49,2.49,0,0,1,.46-1.32l.64.19a5.08,5.08,0,0,0-.14.56c-.1.68,0,2.19,0,2.44,0,.77-1.25,1.73-1.36,2.48-.2,1.4.63,1.68.83,2.91.1.63.67,1.55.75,2.28.26,2.25-.6,1.37-.07,3.5.74,1.29.53,3,.94,4.55A15.22,15.22,0,0,0,6.71,72a9.34,9.34,0,0,1,.64,1.06,15.06,15.06,0,0,1,.14,2.31,10.55,10.55,0,0,0,.87,2,23.29,23.29,0,0,0,2.84,3.81A3,3,0,0,1,11.79,82.08Z"/><path class="cls-3" d="M11.42,83.18,10,82.76a13.83,13.83,0,0,1-1.15-1.64C8.2,79.85,7,79,6.53,77.56a4.53,4.53,0,0,1,0-2.22c0-.24-.8-1.46-.88-1.85-.17-.92-.84-2-1.09-2.89-.48-1.69-.85-2.15-1.13-3.38-.12-.58-.09-2.91-.14-3.74-.08-1-.68-1.81-.75-2.95-.08-1.33-.75-2-.53-3.75.14-1.08,1.2-3.2,1.22-4.11a2.43,2.43,0,0,1,.46-1.31l.64.19a4.45,4.45,0,0,0-.14.55c-.1.69,0,2.19,0,2.44,0,.77-1.25,1.73-1.36,2.48-.2,1.4.63,1.68.83,2.91.1.63.66,1.56.75,2.29.26,2.25-.6,1.37-.07,3.49.74,1.29.53,3,.93,4.55a15.79,15.79,0,0,0,1.08,2.88A10,10,0,0,1,7,74.2a14.86,14.86,0,0,1,.14,2.3,10,10,0,0,0,.87,2,23,23,0,0,0,2.83,3.81A2.77,2.77,0,0,1,11.42,83.18Z"/><path class="cls-3" d="M13.69,78.48l-1.4-.41a13.83,13.83,0,0,1-1.15-1.64c-.67-1.27-1.86-2.13-2.34-3.56a4.46,4.46,0,0,1,0-2.23c0-.23-.8-1.45-.88-1.84-.17-.92-.84-2-1.1-2.89-.47-1.7-.84-2.15-1.12-3.39-.13-.57-.09-2.9-.15-3.73-.07-1-.67-1.81-.74-2.95-.08-1.33-.75-2-.53-3.75C4.44,51,5.5,48.88,5.52,48A2.43,2.43,0,0,1,6,46.67l.64.19a2.47,2.47,0,0,0-.14.55,23.05,23.05,0,0,0,0,2.44c0,.77-1.25,1.73-1.36,2.48-.21,1.4.63,1.68.83,2.91.1.63.66,1.56.75,2.29.26,2.25-.6,1.37-.08,3.49.75,1.29.54,3,.94,4.55a15.79,15.79,0,0,0,1.08,2.88,9,9,0,0,1,.64,1.06,14.86,14.86,0,0,1,.14,2.3,10.29,10.29,0,0,0,.87,2,23,23,0,0,0,2.83,3.81A2.85,2.85,0,0,1,13.69,78.48Z"/><path class="cls-2" d="M14.75,83.33,13.53,83a6,6,0,0,1-1.16-1.77A4.48,4.48,0,0,1,12.29,79c0-.24-.87-1.42-1-1.8-.22-.91-.93-2-1.23-2.84-.55-1.67-.94-2.11-1.27-3.33-.16-.57-.22-2.89-.32-3.72-.12-1-.76-1.78-.88-2.91-.14-1.33-.84-2-.7-3.72C7,59.57,8,57.4,8,56.5c0-1.16.89-1.67,1-2.91a7.74,7.74,0,0,0-.06-1.53l1,.29a1.79,1.79,0,0,1,0,.46,26.76,26.76,0,0,0-1,3.08A22.82,22.82,0,0,0,9,58.32c0,.77-1.18,1.79-1.25,2.54-.14,1.41.71,1.65,1,2.87.13.63.74,1.52.85,2.25.36,2.23-.53,1.4.09,3.49.8,1.26.67,3,1.15,4.5A14.41,14.41,0,0,0,12,76.79a10.28,10.28,0,0,1,.69,1,14.87,14.87,0,0,1,.25,2.3,8.73,8.73,0,0,0,1,1.95A8.07,8.07,0,0,0,14.75,83.33Z"/><path class="cls-2" d="M16.05,78l-1.22-.36a6.12,6.12,0,0,1-1.16-1.76,4.52,4.52,0,0,1-.08-2.23c0-.23-.87-1.42-1-1.8-.22-.91-.93-1.94-1.23-2.84-.55-1.67-.94-2.1-1.27-3.33-.16-.56-.22-2.89-.32-3.72-.12-1-.76-1.77-.88-2.91-.14-1.32-.84-2-.7-3.72.09-1.08,1-3.25,1-4.16,0-1.16.89-1.67,1-2.9a7.82,7.82,0,0,0-.06-1.54l1,.3a1.75,1.75,0,0,1,0,.46,25.82,25.82,0,0,0-1,3.07A23.14,23.14,0,0,0,10.28,53c0,.77-1.18,1.78-1.25,2.54-.14,1.4.71,1.64,1,2.86.13.63.74,1.53.85,2.25.36,2.24-.53,1.4.09,3.49.8,1.26.67,3,1.15,4.5a14.76,14.76,0,0,0,1.2,2.83,10.28,10.28,0,0,1,.69,1,14.75,14.75,0,0,1,.25,2.29,9,9,0,0,0,1,2A7.65,7.65,0,0,0,16.05,78Z"/><path class="cls-2" d="M16.23,81.19,15,80.84c-.68-1.23-1.83-2.07-2.29-3.47a4.47,4.47,0,0,1,0-2.23c0-.23-.8-1.46-.87-1.84-.18-.92-.84-2-1.1-2.9C10.31,68.71,10,68.26,9.67,67c-.13-.57-.09-2.9-.15-3.73-.07-1-.67-1.81-.74-2.95-.09-1.33-.76-2-.53-3.75.14-1.08,1.19-3.21,1.22-4.11S10.25,51,10.53,50l.54.16a7.41,7.41,0,0,0-.64,1.78,20.61,20.61,0,0,0,0,2.44c0,.77-1.26,1.73-1.37,2.48-.2,1.4.64,1.68.83,2.91.1.63.67,1.55.76,2.28.25,2.25-.6,1.37-.08,3.5.74,1.29.54,3,.94,4.55a15.94,15.94,0,0,0,1.07,2.87A8.08,8.08,0,0,1,13.19,74a13.94,13.94,0,0,1,.15,2.3,9.25,9.25,0,0,0,.87,2A19.41,19.41,0,0,0,16.23,81.19Z"/><path class="cls-3" d="M17.21,83.58l-1.4-.42a13.21,13.21,0,0,1-1.16-1.64C14,80.25,12.79,79.4,12.32,78a4.31,4.31,0,0,1,0-2.22c0-.24-.8-1.46-.88-1.84-.18-.93-.84-2-1.1-2.9-.47-1.69-.84-2.15-1.12-3.38-.13-.58-.09-2.9-.15-3.74-.07-1-.67-1.81-.74-3-.09-1.33-.75-2-.53-3.75C8,56.1,9,54,9,53.08a2.43,2.43,0,0,1,.46-1.32l.64.19a2.69,2.69,0,0,0-.14.56,22.87,22.87,0,0,0,0,2.43c0,.77-1.26,1.74-1.36,2.48-.21,1.4.63,1.68.82,2.91.1.64.67,1.56.76,2.29.25,2.25-.6,1.37-.08,3.49.75,1.29.54,3,.94,4.55a15.76,15.76,0,0,0,1.07,2.88,9.47,9.47,0,0,1,.65,1.06,14.93,14.93,0,0,1,.14,2.3,9.48,9.48,0,0,0,.87,2,22.89,22.89,0,0,0,2.83,3.82A2.73,2.73,0,0,1,17.21,83.58Z"/><path class="cls-3" d="M19.69,77.51l-1.4-.41a13.83,13.83,0,0,1-1.15-1.64c-.66-1.27-1.86-2.13-2.34-3.56a4.57,4.57,0,0,1,0-2.23c0-.23-.8-1.46-.87-1.84-.18-.92-.85-2-1.1-2.9-.48-1.69-.85-2.14-1.12-3.38-.13-.57-.09-2.9-.15-3.73-.08-1-.67-1.81-.75-3-.08-1.33-.75-2-.53-3.75.15-1.08,1.2-3.21,1.22-4.11A2.58,2.58,0,0,1,12,45.69l.64.19a5.08,5.08,0,0,0-.14.56,22.57,22.57,0,0,0,0,2.44c0,.77-1.26,1.73-1.37,2.48-.2,1.4.63,1.68.83,2.91.1.63.67,1.55.75,2.28.26,2.25-.6,1.38-.07,3.5.74,1.29.53,3,.94,4.55a15,15,0,0,0,1.07,2.87,9.34,9.34,0,0,1,.64,1.06,15.06,15.06,0,0,1,.14,2.31,9.8,9.8,0,0,0,.88,2,22.67,22.67,0,0,0,2.83,3.81A2.81,2.81,0,0,1,19.69,77.51Z"/><path class="cls-3" d="M20.77,79.8l-1.4-.41a13.83,13.83,0,0,1-1.15-1.64c-.67-1.27-1.86-2.13-2.34-3.56a4.45,4.45,0,0,1,0-2.23c0-.23-.8-1.46-.88-1.84-.18-.92-.84-2-1.1-2.9-.47-1.69-.84-2.14-1.12-3.38-.13-.57-.09-2.9-.15-3.73-.07-1-.67-1.81-.74-3-.09-1.33-.75-2-.53-3.75.14-1.08,1.2-3.21,1.22-4.11A2.49,2.49,0,0,1,13.06,48l.64.19a2.69,2.69,0,0,0-.14.56,23,23,0,0,0,0,2.44c0,.77-1.25,1.73-1.36,2.48-.21,1.4.63,1.68.82,2.91.1.63.67,1.55.76,2.28.25,2.26-.6,1.38-.08,3.5.75,1.29.54,3,.94,4.55a15,15,0,0,0,1.08,2.87,11.07,11.07,0,0,1,.64,1.06,15.06,15.06,0,0,1,.14,2.31,10.29,10.29,0,0,0,.87,2,23.23,23.23,0,0,0,2.83,3.81A2.85,2.85,0,0,1,20.77,79.8Z"/><path class="cls-2" d="M15.37,80.94,14,80.52a13.06,13.06,0,0,1-1.15-1.64c-.67-1.27-1.86-2.12-2.34-3.56a4.54,4.54,0,0,1,0-2.22c0-.24-.8-1.46-.88-1.84-.17-.93-.84-2-1.09-2.9C8.05,66.67,7.68,66.21,7.4,65c-.12-.58-.09-2.9-.14-3.74-.08-1-.68-1.81-.75-3-.08-1.33-.75-2-.53-3.75.14-1.08,1.2-3.2,1.22-4.11a2.43,2.43,0,0,1,.46-1.31l.64.19a5.08,5.08,0,0,0-.14.56c-.1.68,0,2.19,0,2.43,0,.77-1.25,1.74-1.36,2.48-.2,1.4.63,1.68.83,2.91.1.64.67,1.56.75,2.29.26,2.25-.6,1.37-.07,3.49.74,1.29.53,3,.93,4.55a15.79,15.79,0,0,0,1.08,2.88A11.07,11.07,0,0,1,10.93,72a14.93,14.93,0,0,1,.14,2.3,10,10,0,0,0,.87,2,23.46,23.46,0,0,0,2.83,3.82A2.63,2.63,0,0,1,15.37,80.94Z"/><path class="cls-3" d="M15,82l-1.4-.41A13.83,13.83,0,0,1,12.45,80c-.67-1.27-1.86-2.13-2.34-3.56a4.45,4.45,0,0,1,0-2.23c0-.23-.8-1.46-.88-1.84-.17-.92-.84-2-1.1-2.9-.47-1.69-.84-2.14-1.12-3.38-.13-.57-.09-2.9-.15-3.73-.07-1-.67-1.81-.74-3-.08-1.33-.75-2-.53-3.75.14-1.08,1.2-3.21,1.22-4.11a2.49,2.49,0,0,1,.46-1.32l.64.19a2.69,2.69,0,0,0-.14.56,23,23,0,0,0,0,2.44c0,.77-1.25,1.73-1.36,2.48-.21,1.4.63,1.68.83,2.91.1.63.66,1.55.75,2.28.26,2.25-.6,1.38-.08,3.5.75,1.29.54,3,.94,4.55A15.7,15.7,0,0,0,9.92,72a11.07,11.07,0,0,1,.64,1.06,15.06,15.06,0,0,1,.14,2.31,10.55,10.55,0,0,0,.87,2,23.23,23.23,0,0,0,2.83,3.81A2.85,2.85,0,0,1,15,82Z"/><path class="cls-3" d="M17.27,77.34l-1.4-.41a13.83,13.83,0,0,1-1.15-1.64c-.67-1.27-1.86-2.13-2.34-3.56a4.45,4.45,0,0,1,0-2.23c0-.23-.8-1.46-.88-1.84-.18-.92-.84-2-1.1-2.9-.47-1.69-.84-2.14-1.12-3.38-.13-.57-.09-2.9-.15-3.73-.07-1-.67-1.81-.74-2.95-.09-1.33-.75-2-.53-3.75.14-1.08,1.2-3.21,1.22-4.11a2.49,2.49,0,0,1,.46-1.32l.64.19a2.69,2.69,0,0,0-.14.56,23,23,0,0,0,0,2.44c0,.77-1.25,1.73-1.36,2.48-.21,1.4.63,1.68.82,2.91.11.63.67,1.55.76,2.28.26,2.25-.6,1.37-.08,3.5.75,1.29.54,3,.94,4.55a16,16,0,0,0,1.08,2.87,11.07,11.07,0,0,1,.64,1.06,15,15,0,0,1,.14,2.3,10.35,10.35,0,0,0,.87,2,23.23,23.23,0,0,0,2.83,3.81A2.85,2.85,0,0,1,17.27,77.34Z"/><path class="cls-2" d="M18.32,82.18l-1.21-.35A6.1,6.1,0,0,1,16,80.06a4.52,4.52,0,0,1-.08-2.23c0-.23-.87-1.42-1-1.79-.22-.92-.93-2-1.23-2.85-.55-1.66-.94-2.1-1.27-3.32-.16-.57-.23-2.89-.32-3.72-.12-1-.76-1.78-.88-2.92-.15-1.32-.85-2-.7-3.72.09-1.08,1.05-3.25,1-4.15,0-1.17.89-1.68,1-2.91a7.74,7.74,0,0,0-.06-1.53l1,.29a1.18,1.18,0,0,1,0,.46,27.74,27.74,0,0,0-1,3.08,20.59,20.59,0,0,0,.08,2.43c0,.77-1.18,1.79-1.25,2.54-.14,1.41.71,1.65,1,2.87.13.62.74,1.52.85,2.24.36,2.24-.53,1.4.09,3.5.8,1.25.67,3,1.14,4.5a15.66,15.66,0,0,0,1.21,2.82,10.28,10.28,0,0,1,.69,1A13.52,13.52,0,0,1,16.49,79a9.57,9.57,0,0,0,1,2A8.11,8.11,0,0,0,18.32,82.18Z"/><path class="cls-2" d="M19.62,76.81l-1.21-.36a6,6,0,0,1-1.16-1.77,4.48,4.48,0,0,1-.08-2.22c0-.24-.87-1.42-1-1.8-.22-.91-.93-2-1.23-2.84-.55-1.67-.94-2.11-1.27-3.33-.16-.57-.23-2.89-.32-3.72-.12-1-.76-1.78-.88-2.91-.15-1.33-.85-2-.7-3.72.09-1.09,1-3.26,1-4.16,0-1.16.89-1.67,1-2.91a7.74,7.74,0,0,0-.06-1.53l1,.29a1.2,1.2,0,0,1,0,.46,28.48,28.48,0,0,0-1,3.08,22.93,22.93,0,0,0,.08,2.43c0,.77-1.18,1.79-1.25,2.54-.14,1.41.71,1.65,1,2.87.13.63.74,1.52.85,2.25.36,2.23-.53,1.39.09,3.49.8,1.25.67,3,1.14,4.5a15.66,15.66,0,0,0,1.21,2.82,10.28,10.28,0,0,1,.69,1,13.62,13.62,0,0,1,.24,2.29,9.33,9.33,0,0,0,1,2A8.58,8.58,0,0,0,19.62,76.81Z"/><path class="cls-2" d="M19.63,82.76l-1.2-.36c-.67-1.22-1.82-2.07-2.28-3.47a4.43,4.43,0,0,1,0-2.22c0-.24-.8-1.46-.87-1.85-.18-.92-.84-2-1.1-2.89-.48-1.69-.85-2.15-1.12-3.39-.13-.57-.09-2.9-.15-3.73-.07-1-.67-1.81-.75-2.95-.08-1.33-.75-2-.52-3.75.14-1.08,1.19-3.2,1.21-4.11s.79-1.53,1.07-2.51l.54.16a7.63,7.63,0,0,0-.65,1.78,22.57,22.57,0,0,0,0,2.44c0,.77-1.26,1.73-1.37,2.48-.2,1.4.64,1.68.83,2.91.1.63.67,1.56.75,2.29.26,2.25-.59,1.37-.07,3.49.74,1.29.54,3,.94,4.55A15.76,15.76,0,0,0,16,74.51a8.54,8.54,0,0,1,.64,1.06,13.81,13.81,0,0,1,.15,2.3,9,9,0,0,0,.87,2A19.16,19.16,0,0,0,19.63,82.76Z"/><path class="cls-3" d="M21.31,88.45,19.91,88a13,13,0,0,1-1.15-1.63c-.67-1.28-1.87-2.13-2.34-3.56a4.34,4.34,0,0,1,0-2.23c0-.23-.8-1.46-.88-1.84-.18-.92-.84-2-1.1-2.9-.47-1.69-.84-2.15-1.12-3.38-.13-.58-.09-2.9-.15-3.73-.07-1-.67-1.81-.74-3-.09-1.33-.75-2-.53-3.74.14-1.08,1.2-3.21,1.22-4.11a2.49,2.49,0,0,1,.46-1.32l.64.19a2.69,2.69,0,0,0-.14.56,22.87,22.87,0,0,0,0,2.43c0,.77-1.26,1.74-1.36,2.49-.21,1.4.63,1.67.82,2.91.1.63.67,1.55.76,2.28.25,2.25-.6,1.37-.08,3.5.75,1.29.54,3,.94,4.55a15.94,15.94,0,0,0,1.07,2.87,9.47,9.47,0,0,1,.65,1.06,15,15,0,0,1,.14,2.3,9.77,9.77,0,0,0,.87,2,23.23,23.23,0,0,0,2.83,3.81A2.73,2.73,0,0,1,21.31,88.45Z"/><path class="cls-3" d="M21.87,82.05l-1.4-.42A12.37,12.37,0,0,1,19.32,80c-.67-1.27-1.86-2.12-2.34-3.56a4.54,4.54,0,0,1,0-2.22c0-.24-.8-1.46-.87-1.84-.18-.92-.85-2-1.1-2.9-.48-1.69-.85-2.15-1.12-3.38-.13-.58-.09-2.9-.15-3.74-.08-1-.68-1.81-.75-3-.08-1.33-.75-2-.53-3.75.14-1.08,1.2-3.2,1.22-4.1a2.49,2.49,0,0,1,.46-1.32l.64.19a5.08,5.08,0,0,0-.14.56c-.1.68,0,2.19,0,2.43,0,.77-1.25,1.74-1.36,2.49-.2,1.39.63,1.67.83,2.91.1.63.67,1.55.75,2.28.26,2.25-.6,1.37-.07,3.5.74,1.28.53,3,.94,4.54A15.06,15.06,0,0,0,16.79,72a11.07,11.07,0,0,1,.64,1.06,14.93,14.93,0,0,1,.14,2.3,10,10,0,0,0,.87,2,23,23,0,0,0,2.84,3.82A2.87,2.87,0,0,1,21.87,82.05Z"/><path class="cls-3" d="M24.19,86.42,22.79,86a13.83,13.83,0,0,1-1.15-1.64c-.67-1.27-1.87-2.13-2.34-3.56a4.35,4.35,0,0,1,0-2.23c0-.23-.8-1.45-.88-1.84-.18-.92-.84-2-1.1-2.89-.47-1.7-.84-2.15-1.12-3.39-.13-.57-.09-2.9-.15-3.73-.07-1-.67-1.81-.74-3-.09-1.33-.75-2-.53-3.75C14.94,59,16,56.82,16,55.92a2.43,2.43,0,0,1,.46-1.31l.64.19a2.47,2.47,0,0,0-.14.55,23.05,23.05,0,0,0,0,2.44c0,.77-1.25,1.73-1.36,2.48-.21,1.4.63,1.68.82,2.91.1.63.67,1.56.76,2.29.25,2.25-.6,1.37-.08,3.49.75,1.29.54,3,.94,4.55a15.76,15.76,0,0,0,1.07,2.88,8,8,0,0,1,.65,1.06,14.86,14.86,0,0,1,.14,2.3,10.29,10.29,0,0,0,.87,2,22.41,22.41,0,0,0,2.83,3.81A2.85,2.85,0,0,1,24.19,86.42Z"/><path class="cls-2" d="M18.77,82.5l-1.4-.41a13.83,13.83,0,0,1-1.15-1.64c-.67-1.27-1.86-2.13-2.34-3.56a4.45,4.45,0,0,1,0-2.23c0-.23-.8-1.46-.88-1.84-.18-.92-.84-2-1.1-2.9-.47-1.69-.84-2.14-1.12-3.38-.13-.57-.09-2.9-.15-3.73-.07-1-.67-1.81-.74-3-.09-1.33-.75-2-.53-3.75C9.52,55,10.58,52.9,10.6,52a2.49,2.49,0,0,1,.46-1.32l.64.19a2.69,2.69,0,0,0-.14.56,23,23,0,0,0,0,2.44c0,.77-1.25,1.73-1.36,2.48-.21,1.4.63,1.68.83,2.91.1.63.66,1.55.75,2.28.26,2.26-.6,1.38-.08,3.5.75,1.29.54,3,.94,4.55a15.7,15.7,0,0,0,1.08,2.87,11.07,11.07,0,0,1,.64,1.06,15.06,15.06,0,0,1,.14,2.31,10.29,10.29,0,0,0,.87,2,23.23,23.23,0,0,0,2.83,3.81A2.85,2.85,0,0,1,18.77,82.5Z"/><path class="cls-3" d="M18.4,83.6,17,83.18a13.06,13.06,0,0,1-1.15-1.64C15.18,80.27,14,79.42,13.51,78a4.31,4.31,0,0,1,0-2.22c0-.24-.8-1.46-.88-1.84-.18-.93-.84-2-1.1-2.9-.47-1.69-.84-2.15-1.12-3.38-.13-.58-.09-2.9-.15-3.74-.07-1-.67-1.81-.74-2.95-.09-1.33-.75-2-.53-3.75.14-1.08,1.2-3.2,1.22-4.11a2.43,2.43,0,0,1,.46-1.31l.64.19a2.69,2.69,0,0,0-.14.56,22.87,22.87,0,0,0,0,2.43c0,.77-1.26,1.74-1.36,2.48-.21,1.4.63,1.68.82,2.91.1.63.67,1.56.76,2.29.25,2.25-.6,1.37-.08,3.49.75,1.29.54,3,.94,4.55a15.76,15.76,0,0,0,1.07,2.88A9.47,9.47,0,0,1,14,74.62a14.93,14.93,0,0,1,.14,2.3,9.48,9.48,0,0,0,.87,2,22.41,22.41,0,0,0,2.83,3.81A2.77,2.77,0,0,1,18.4,83.6Z"/><path class="cls-3" d="M22.14,88l-1.4-.42A13.06,13.06,0,0,1,19.59,86c-.66-1.27-1.86-2.12-2.33-3.56a4.44,4.44,0,0,1,0-2.22c0-.24-.8-1.46-.87-1.84-.18-.92-.84-2-1.1-2.9-.48-1.69-.84-2.15-1.12-3.38-.13-.58-.09-2.9-.15-3.74-.07-1-.67-1.81-.75-3-.08-1.33-.75-2-.52-3.75.14-1.08,1.19-3.2,1.21-4.1a2.64,2.64,0,0,1,.46-1.32l.64.19a5.08,5.08,0,0,0-.14.56,22.38,22.38,0,0,0,0,2.43c0,.77-1.26,1.74-1.37,2.49-.2,1.39.64,1.67.83,2.91.1.63.67,1.55.75,2.28.26,2.25-.59,1.37-.07,3.5.74,1.28.53,3,.94,4.54A15.76,15.76,0,0,0,17.06,78,9.34,9.34,0,0,1,17.7,79a13.87,13.87,0,0,1,.15,2.3,9,9,0,0,0,.87,2,22.89,22.89,0,0,0,2.83,3.82A2.7,2.7,0,0,1,22.14,88Z"/><path class="cls-3" d="M20.66,78.91l-1.39-.42a13.21,13.21,0,0,1-1.16-1.64c-.66-1.27-1.86-2.12-2.33-3.56a4.43,4.43,0,0,1,0-2.22c0-.24-.8-1.46-.87-1.85-.18-.92-.84-2-1.1-2.89C13.34,64.64,13,64.18,12.7,63c-.13-.58-.09-2.9-.15-3.74-.07-1-.67-1.81-.74-3-.09-1.33-.76-2-.53-3.75.14-1.08,1.19-3.2,1.22-4.11A2.5,2.5,0,0,1,13,47.09l.65.19a2.47,2.47,0,0,0-.14.55,23.06,23.06,0,0,0,0,2.44c0,.77-1.26,1.74-1.37,2.48-.2,1.4.64,1.68.83,2.91.1.63.67,1.56.76,2.29.25,2.25-.6,1.37-.08,3.49.74,1.29.54,3,.94,4.55a15.76,15.76,0,0,0,1.07,2.88,7.47,7.47,0,0,1,.64,1.06,13.81,13.81,0,0,1,.15,2.3,9.48,9.48,0,0,0,.87,2A22.41,22.41,0,0,0,20.07,78,2.58,2.58,0,0,1,20.66,78.91Z"/><path class="cls-2" d="M21.72,83.75l-1.21-.36a5.84,5.84,0,0,1-1.16-1.77,4.48,4.48,0,0,1-.08-2.22c0-.23-.87-1.42-1-1.8-.22-.91-.93-1.94-1.23-2.84-.56-1.67-.94-2.11-1.28-3.33-.15-.57-.22-2.89-.31-3.72-.12-1-.76-1.77-.88-2.91-.15-1.32-.85-2-.7-3.72.09-1.09,1.05-3.26,1-4.16,0-1.16.89-1.67,1-2.9a7.23,7.23,0,0,0-.07-1.54l1,.3a1.38,1.38,0,0,1,0,.45,31.35,31.35,0,0,0-1,3.08A22.66,22.66,0,0,0,16,58.75c0,.77-1.18,1.78-1.25,2.54-.14,1.4.7,1.64,1,2.86.12.63.73,1.52.85,2.25.36,2.24-.53,1.4.09,3.49.8,1.26.67,3,1.14,4.5A15.73,15.73,0,0,0,19,77.21a8.42,8.42,0,0,1,.69,1,14.87,14.87,0,0,1,.25,2.3,9.7,9.7,0,0,0,1,1.95A9.15,9.15,0,0,0,21.72,83.75Z"/><path class="cls-2" d="M21.71,77.23l-1.21-.36a6,6,0,0,1-1.17-1.77,4.48,4.48,0,0,1-.08-2.22c0-.23-.87-1.42-1-1.8-.22-.91-.93-2-1.23-2.84-.55-1.67-.94-2.11-1.27-3.33-.16-.57-.22-2.89-.32-3.72-.12-1-.75-1.78-.88-2.91-.14-1.33-.84-2-.7-3.72.1-1.09,1-3.26,1-4.16,0-1.16.89-1.67,1-2.9A8.86,8.86,0,0,0,15.87,46l1,.29a1.79,1.79,0,0,1,0,.46,26.76,26.76,0,0,0-1,3.08,22.82,22.82,0,0,0,.08,2.43c0,.77-1.18,1.79-1.25,2.54-.14,1.41.71,1.65,1,2.87.13.63.74,1.52.86,2.25.36,2.24-.54,1.4.08,3.49.8,1.26.67,2.95,1.15,4.5a14.41,14.41,0,0,0,1.2,2.82,11.57,11.57,0,0,1,.69,1,14.87,14.87,0,0,1,.25,2.3,9.19,9.19,0,0,0,1,2A8.86,8.86,0,0,0,21.71,77.23Z"/><path class="cls-2" d="M13.8,80.45l-1.2-.35c-.67-1.22-1.82-2.07-2.28-3.47a4.47,4.47,0,0,1,0-2.23c0-.23-.8-1.46-.87-1.84-.18-.92-.84-2-1.1-2.9-.48-1.69-.85-2.14-1.12-3.38-.13-.57-.09-2.9-.15-3.73-.07-1-.67-1.81-.75-2.95-.08-1.33-.75-2-.52-3.75C6,54.77,7,52.64,7,51.74c0-1.05.79-1.53,1.07-2.51l.54.16A7.47,7.47,0,0,0,8,51.17a22.57,22.57,0,0,0,0,2.44c0,.77-1.26,1.73-1.37,2.48-.2,1.4.64,1.68.83,2.91.1.63.67,1.55.75,2.28.26,2.26-.6,1.38-.07,3.5.74,1.29.53,3,.94,4.55a15.67,15.67,0,0,0,1.07,2.87,9.34,9.34,0,0,1,.64,1.06,14,14,0,0,1,.15,2.31,9.19,9.19,0,0,0,.87,2A18.67,18.67,0,0,0,13.8,80.45Z"/><path class="cls-3" d="M17.26,76.77l-1.4-.41a13.83,13.83,0,0,1-1.15-1.64c-.67-1.27-1.86-2.13-2.34-3.56a4.45,4.45,0,0,1,0-2.23c0-.23-.8-1.46-.88-1.84-.17-.92-.84-2-1.1-2.9-.47-1.69-.84-2.14-1.12-3.38-.13-.57-.09-2.9-.15-3.73-.07-1-.67-1.81-.74-2.95-.08-1.33-.75-2-.53-3.75.14-1.08,1.2-3.21,1.22-4.11A2.49,2.49,0,0,1,9.55,45l.64.19a2.69,2.69,0,0,0-.14.56,23,23,0,0,0,0,2.44c0,.77-1.25,1.73-1.36,2.48-.21,1.4.63,1.68.83,2.91.1.63.66,1.55.75,2.29.26,2.25-.6,1.37-.08,3.49.75,1.29.54,3,.94,4.55a16.08,16.08,0,0,0,1.08,2.88,9.84,9.84,0,0,1,.64,1.05A15.06,15.06,0,0,1,13,70.1a10.29,10.29,0,0,0,.87,2,23.23,23.23,0,0,0,2.83,3.81A2.85,2.85,0,0,1,17.26,76.77Z"/><path class="cls-3" d="M18.33,79.06l-1.39-.41A14,14,0,0,1,15.78,77c-.66-1.27-1.86-2.13-2.33-3.56a4.47,4.47,0,0,1,0-2.23c0-.23-.8-1.46-.87-1.84-.18-.92-.84-2-1.1-2.89-.48-1.7-.84-2.15-1.12-3.39-.13-.57-.09-2.9-.15-3.73-.07-1-.67-1.81-.74-2.95-.09-1.33-.76-2-.53-3.75.14-1.08,1.19-3.21,1.22-4.11a2.57,2.57,0,0,1,.45-1.32l.65.19a2.69,2.69,0,0,0-.14.56,20.61,20.61,0,0,0,0,2.44c0,.77-1.26,1.73-1.37,2.48-.2,1.4.64,1.68.83,2.91.1.63.67,1.55.75,2.29.26,2.25-.59,1.37-.07,3.49.74,1.29.54,3,.94,4.55A15.76,15.76,0,0,0,13.25,69a8.44,8.44,0,0,1,.64,1A14,14,0,0,1,14,72.39a9.19,9.19,0,0,0,.87,2,22.81,22.81,0,0,0,2.83,3.81A2.81,2.81,0,0,1,18.33,79.06Z"/><path class="cls-2" d="M12.94,80.2l-1.4-.42a12.37,12.37,0,0,1-1.15-1.64C9.72,76.87,8.52,76,8.05,74.58a4.31,4.31,0,0,1,0-2.22c0-.24-.8-1.46-.88-1.84-.18-.92-.84-2-1.1-2.9-.47-1.69-.84-2.15-1.12-3.38-.13-.58-.09-2.9-.15-3.74-.07-1-.67-1.8-.74-3-.09-1.33-.75-2-.53-3.75.14-1.08,1.2-3.2,1.22-4.1a2.49,2.49,0,0,1,.46-1.32l.64.19a2.69,2.69,0,0,0-.14.56,22.87,22.87,0,0,0,0,2.43c0,.77-1.26,1.74-1.36,2.49-.21,1.39.63,1.67.82,2.91.1.63.67,1.55.76,2.28.25,2.25-.6,1.37-.08,3.5.75,1.28.54,3,.94,4.54a15.76,15.76,0,0,0,1.07,2.88,9.47,9.47,0,0,1,.65,1.06,14.93,14.93,0,0,1,.14,2.3,10,10,0,0,0,.87,2,22.89,22.89,0,0,0,2.83,3.82A2.73,2.73,0,0,1,12.94,80.2Z"/><path class="cls-3" d="M12.56,81.29l-1.39-.41A14,14,0,0,1,10,79.24C9.35,78,8.15,77.11,7.68,75.68a4.47,4.47,0,0,1,0-2.23c0-.23-.8-1.46-.87-1.84-.18-.92-.84-2-1.1-2.9C5.24,67,4.88,66.57,4.6,65.33c-.13-.57-.09-2.9-.15-3.73-.07-1-.67-1.81-.74-3-.09-1.33-.76-2-.53-3.75.14-1.08,1.19-3.21,1.22-4.11a2.49,2.49,0,0,1,.46-1.32l.64.19a2.69,2.69,0,0,0-.14.56,23,23,0,0,0,0,2.44c0,.77-1.26,1.73-1.37,2.48-.2,1.4.64,1.68.83,2.91.1.63.67,1.55.76,2.28.25,2.26-.6,1.38-.08,3.5.74,1.29.54,3,.94,4.55a15.67,15.67,0,0,0,1.07,2.87,8.08,8.08,0,0,1,.64,1.06,14,14,0,0,1,.15,2.31,9.71,9.71,0,0,0,.87,2A23.23,23.23,0,0,0,12,80.43,2.65,2.65,0,0,1,12.56,81.29Z"/><path class="cls-3" d="M14.83,76.6l-1.39-.41a14,14,0,0,1-1.16-1.64C11.62,73.28,10.42,72.42,10,71a4.47,4.47,0,0,1,0-2.23c0-.23-.8-1.46-.87-1.84-.18-.92-.84-2-1.1-2.9-.48-1.69-.84-2.14-1.12-3.38-.13-.57-.09-2.9-.15-3.73C6.65,55.9,6.05,55.1,6,54c-.09-1.33-.76-2-.53-3.75C5.59,49.13,6.64,47,6.67,46.1a2.57,2.57,0,0,1,.45-1.32l.65.19a2.69,2.69,0,0,0-.14.56A20.61,20.61,0,0,0,7.6,48c0,.77-1.26,1.73-1.37,2.48-.2,1.4.64,1.68.83,2.91.1.63.67,1.55.75,2.28.26,2.26-.59,1.38-.07,3.5.74,1.29.54,3,.94,4.55a15.67,15.67,0,0,0,1.07,2.87,8.08,8.08,0,0,1,.64,1.06,14,14,0,0,1,.15,2.31,9.19,9.19,0,0,0,.87,2,23.23,23.23,0,0,0,2.83,3.81A2.81,2.81,0,0,1,14.83,76.6Z"/><path class="cls-2" d="M15.89,81.45l-1.21-.36a5.78,5.78,0,0,1-1.16-1.77,4.62,4.62,0,0,1-.09-2.22c0-.24-.86-1.42-.95-1.8-.22-.91-.94-2-1.23-2.85-.56-1.66-.94-2.1-1.28-3.32-.15-.57-.22-2.89-.31-3.72-.12-1-.76-1.78-.88-2.91-.15-1.33-.85-2-.7-3.72.09-1.09,1.05-3.26,1-4.16,0-1.16.88-1.67,1-2.91a7.16,7.16,0,0,0-.07-1.53l1,.29a1.44,1.44,0,0,1,0,.46A30.45,30.45,0,0,0,10,54a22.57,22.57,0,0,0,.09,2.43c0,.77-1.18,1.79-1.25,2.54-.14,1.41.7,1.65.95,2.87.13.62.74,1.52.86,2.25.36,2.23-.53,1.39.09,3.49.8,1.25.67,3,1.14,4.5a16.37,16.37,0,0,0,1.2,2.82,7.72,7.72,0,0,1,.69,1,14.88,14.88,0,0,1,.25,2.29,9.76,9.76,0,0,0,1,2A8.86,8.86,0,0,0,15.89,81.45Z"/><path class="cls-2" d="M17.19,76.07,16,75.71a6,6,0,0,1-1.16-1.77,4.62,4.62,0,0,1-.09-2.22c0-.24-.86-1.42-1-1.8-.22-.91-.93-2-1.23-2.84-.56-1.67-.94-2.11-1.28-3.33-.15-.57-.22-2.89-.31-3.72-.12-1-.76-1.78-.88-2.91-.15-1.33-.85-2-.7-3.72.09-1.09,1-3.26,1-4.16,0-1.16.88-1.67,1-2.91a7.16,7.16,0,0,0-.07-1.53l1,.29a1.44,1.44,0,0,1,0,.46,31.35,31.35,0,0,0-1,3.08,22.34,22.34,0,0,0,.09,2.43c0,.77-1.18,1.79-1.25,2.54-.14,1.41.7,1.65,1,2.87.13.63.74,1.52.86,2.25.36,2.23-.53,1.4.09,3.49.8,1.25.67,2.95,1.14,4.5a16,16,0,0,0,1.2,2.82,7.72,7.72,0,0,1,.69,1,14.87,14.87,0,0,1,.25,2.3,9.7,9.7,0,0,0,1,2A8.86,8.86,0,0,0,17.19,76.07Z"/><path class="cls-2" d="M17.4,78.82l-1.2-.36c-.67-1.22-1.82-2.07-2.29-3.47a4.41,4.41,0,0,1,0-2.22c0-.24-.8-1.46-.88-1.85-.17-.92-.84-2-1.09-2.89-.48-1.69-.85-2.15-1.13-3.39-.12-.57-.09-2.9-.14-3.73-.08-1-.68-1.81-.75-2.95-.08-1.33-.75-2-.53-3.75.14-1.08,1.2-3.21,1.22-4.11s.78-1.53,1.07-2.51l.54.16a7.47,7.47,0,0,0-.65,1.78c-.1.69,0,2.19,0,2.44,0,.77-1.25,1.73-1.36,2.48-.2,1.4.63,1.68.83,2.91.1.63.66,1.56.75,2.29.26,2.25-.6,1.37-.07,3.49.74,1.29.53,3,.93,4.55a15.79,15.79,0,0,0,1.08,2.88,9,9,0,0,1,.64,1.06,14.86,14.86,0,0,1,.14,2.3,10.29,10.29,0,0,0,.87,2A20.16,20.16,0,0,0,17.4,78.82Z"/><path class="cls-3" d="M19.5,86.33l-1.4-.42A12.37,12.37,0,0,1,17,84.27c-.67-1.27-1.86-2.12-2.34-3.56a4.54,4.54,0,0,1,0-2.22c0-.24-.8-1.46-.88-1.84-.17-.92-.84-2-1.09-2.9-.48-1.69-.85-2.15-1.13-3.38-.12-.58-.09-2.9-.14-3.74-.08-1-.68-1.8-.75-2.95-.08-1.33-.75-2-.53-3.75.14-1.07,1.2-3.2,1.22-4.1a2.49,2.49,0,0,1,.46-1.32l.64.19a5.08,5.08,0,0,0-.14.56c-.1.68,0,2.19,0,2.43,0,.77-1.25,1.74-1.36,2.49-.2,1.39.63,1.67.83,2.91.1.63.67,1.55.75,2.28.26,2.25-.6,1.37-.07,3.5.74,1.28.53,3,.94,4.54a15.06,15.06,0,0,0,1.07,2.88,11.07,11.07,0,0,1,.64,1.06,14.93,14.93,0,0,1,.14,2.3,10,10,0,0,0,.87,2,23.46,23.46,0,0,0,2.83,3.82A2.73,2.73,0,0,1,19.5,86.33Z"/><path class="cls-3" d="M20.85,75.14l-1.39-.42a13.21,13.21,0,0,1-1.16-1.64C17.64,71.81,16.44,71,16,69.52a4.43,4.43,0,0,1,0-2.22c0-.24-.8-1.46-.87-1.85-.18-.92-.84-2-1.1-2.89-.48-1.69-.84-2.15-1.12-3.38-.13-.58-.09-2.9-.15-3.74-.07-1-.67-1.81-.74-2.95-.09-1.33-.76-2-.53-3.75.14-1.08,1.19-3.2,1.22-4.11a2.5,2.5,0,0,1,.45-1.31l.65.19a2.62,2.62,0,0,0-.14.55,20.63,20.63,0,0,0,0,2.44c0,.77-1.26,1.74-1.37,2.48-.2,1.4.64,1.68.83,2.91.1.63.67,1.56.76,2.29.25,2.25-.6,1.37-.08,3.49.74,1.29.54,3,.94,4.55a15.76,15.76,0,0,0,1.07,2.88,8.08,8.08,0,0,1,.64,1.06,13.87,13.87,0,0,1,.15,2.3,9,9,0,0,0,.87,2,22.41,22.41,0,0,0,2.83,3.81A2.58,2.58,0,0,1,20.85,75.14Z"/><path class="cls-4" d="M21.93,77.43,20.53,77a13.06,13.06,0,0,1-1.15-1.64c-.66-1.27-1.86-2.12-2.34-3.56a4.53,4.53,0,0,1,0-2.22c0-.24-.8-1.46-.87-1.85-.18-.92-.85-2-1.1-2.89-.48-1.69-.85-2.15-1.12-3.38-.13-.58-.09-2.9-.15-3.74-.08-1-.67-1.81-.75-2.95-.08-1.33-.75-2-.53-3.75.15-1.08,1.2-3.2,1.22-4.11a2.51,2.51,0,0,1,.46-1.31l.64.19a4.58,4.58,0,0,0-.14.56,22.38,22.38,0,0,0,0,2.43c0,.77-1.26,1.74-1.37,2.48-.2,1.4.63,1.68.83,2.91.1.63.67,1.56.75,2.29.26,2.25-.6,1.37-.07,3.49.74,1.29.53,3,.94,4.55a15.06,15.06,0,0,0,1.07,2.88,9.34,9.34,0,0,1,.64,1.06,13.77,13.77,0,0,1,.14,2.3,9.56,9.56,0,0,0,.88,2,21.89,21.89,0,0,0,2.83,3.81A2.74,2.74,0,0,1,21.93,77.43Z"/><path class="cls-2" d="M16.53,78.56l-1.4-.41A13.83,13.83,0,0,1,14,76.51c-.66-1.27-1.86-2.13-2.33-3.56a4.47,4.47,0,0,1,0-2.23c0-.23-.8-1.46-.87-1.84-.18-.92-.84-2-1.1-2.9-.48-1.69-.84-2.14-1.12-3.38-.13-.57-.09-2.9-.15-3.73-.07-1-.67-1.81-.74-2.95-.09-1.33-.76-2-.53-3.75.14-1.08,1.19-3.21,1.21-4.11a2.67,2.67,0,0,1,.46-1.32l.65.19a3.62,3.62,0,0,0-.15.56,22.57,22.57,0,0,0,0,2.44c0,.77-1.26,1.73-1.37,2.48-.2,1.4.64,1.68.83,2.91.1.63.67,1.55.75,2.28.26,2.25-.59,1.38-.07,3.5.74,1.29.53,3,.94,4.55a15.94,15.94,0,0,0,1.07,2.87,9.34,9.34,0,0,1,.64,1.06,14,14,0,0,1,.15,2.31,9.41,9.41,0,0,0,.87,2,23.23,23.23,0,0,0,2.83,3.81A2.81,2.81,0,0,1,16.53,78.56Z"/><path class="cls-3" d="M16.16,79.66l-1.4-.42a13.06,13.06,0,0,1-1.15-1.64C13,76.33,11.75,75.48,11.27,74a4.53,4.53,0,0,1,0-2.22c0-.24-.8-1.46-.87-1.85-.18-.92-.84-2-1.1-2.89-.48-1.69-.85-2.15-1.12-3.38-.13-.58-.09-2.9-.15-3.74-.07-1-.67-1.81-.75-3-.08-1.33-.75-2-.52-3.75C6.92,52.18,8,50.06,8,49.15a2.6,2.6,0,0,1,.46-1.31l.64.19a4.45,4.45,0,0,0-.14.55,22.57,22.57,0,0,0,0,2.44c0,.77-1.26,1.74-1.37,2.48-.2,1.4.63,1.68.83,2.91.1.63.67,1.56.75,2.29.26,2.25-.6,1.37-.07,3.49.74,1.29.53,3,.94,4.55a15.76,15.76,0,0,0,1.07,2.88,8.54,8.54,0,0,1,.64,1.06,13.81,13.81,0,0,1,.15,2.3,9,9,0,0,0,.87,2,22.41,22.41,0,0,0,2.83,3.81A2.74,2.74,0,0,1,16.16,79.66Z"/><path class="cls-3" d="M18.43,75,17,74.55a13.83,13.83,0,0,1-1.15-1.64c-.66-1.27-1.86-2.13-2.34-3.56a4.53,4.53,0,0,1,0-2.22c0-.24-.8-1.46-.87-1.85-.18-.92-.85-2-1.1-2.89-.48-1.7-.85-2.15-1.12-3.39-.13-.57-.09-2.9-.15-3.73-.08-1-.67-1.81-.75-3-.08-1.33-.75-2-.53-3.75.15-1.08,1.2-3.2,1.22-4.11a2.51,2.51,0,0,1,.46-1.31l.64.19a4.45,4.45,0,0,0-.14.55,22.57,22.57,0,0,0,0,2.44c0,.77-1.26,1.73-1.37,2.48-.2,1.4.63,1.68.83,2.91.1.63.67,1.56.75,2.29.26,2.25-.6,1.37-.07,3.49.74,1.29.53,3,.94,4.55a15.06,15.06,0,0,0,1.07,2.88A8.54,8.54,0,0,1,14,66a15,15,0,0,1,.15,2.3,9.19,9.19,0,0,0,.87,2,21.89,21.89,0,0,0,2.83,3.81A2.81,2.81,0,0,1,18.43,75Z"/><path class="cls-2" d="M19.49,79.81l-1.21-.36a5.78,5.78,0,0,1-1.16-1.77A4.39,4.39,0,0,1,17,75.46c0-.23-.86-1.42-1-1.8-.22-.91-.93-2-1.23-2.84-.55-1.67-.94-2.11-1.27-3.33-.15-.57-.22-2.89-.32-3.72-.12-1-.75-1.78-.88-2.91-.14-1.33-.84-2-.69-3.72.09-1.09,1-3.26,1-4.16,0-1.16.88-1.67,1-2.91a7.89,7.89,0,0,0-.07-1.53l1,.29a1.79,1.79,0,0,1,0,.46,28.87,28.87,0,0,0-1,3.08,22.82,22.82,0,0,0,.08,2.43c0,.77-1.17,1.79-1.25,2.54-.14,1.41.71,1.65,1,2.87.13.63.74,1.52.86,2.25.36,2.24-.54,1.4.08,3.49.8,1.26.67,3,1.15,4.5a15,15,0,0,0,1.2,2.82,11.57,11.57,0,0,1,.69,1,14.87,14.87,0,0,1,.25,2.3,9.7,9.7,0,0,0,1,2A8.86,8.86,0,0,0,19.49,79.81Z"/><path class="cls-2" d="M20.79,74.43l-1.21-.36a5.73,5.73,0,0,1-1.16-1.76,4.42,4.42,0,0,1-.09-2.23c0-.23-.86-1.42-1-1.8-.22-.91-.93-1.94-1.23-2.84-.55-1.67-.94-2.1-1.27-3.33-.15-.56-.22-2.89-.32-3.72-.12-1-.75-1.77-.88-2.91-.14-1.32-.84-2-.69-3.72.09-1.08,1-3.25,1-4.16,0-1.16.88-1.67,1-2.9A7.84,7.84,0,0,0,15,43.17l1,.29a1.75,1.75,0,0,1,0,.46,27.79,27.79,0,0,0-1,3.07A23.14,23.14,0,0,0,15,49.43c0,.77-1.17,1.78-1.25,2.54-.14,1.4.71,1.64,1,2.87.13.62.74,1.52.86,2.24.36,2.24-.54,1.4.08,3.49.8,1.26.67,3,1.15,4.5A15.42,15.42,0,0,0,18,67.9a10.28,10.28,0,0,1,.69,1A14.75,14.75,0,0,1,19,71.22a10,10,0,0,0,1,2A8.36,8.36,0,0,0,20.79,74.43Z"/><path class="cls-2" d="M12.83,77.4,11.64,77C11,75.82,9.81,75,9.35,73.57a4.48,4.48,0,0,1,0-2.23c0-.23-.79-1.46-.87-1.84-.18-.92-.84-2-1.1-2.89-.47-1.7-.84-2.15-1.12-3.39-.13-.57-.09-2.9-.15-3.73-.07-1-.67-1.81-.74-3-.09-1.33-.75-2-.53-3.75.14-1.08,1.2-3.21,1.22-4.11s.78-1.53,1.06-2.51l.54.16A7.41,7.41,0,0,0,7,48.11a23.05,23.05,0,0,0,0,2.44c0,.77-1.26,1.73-1.37,2.48-.2,1.4.64,1.68.83,2.91.1.63.67,1.56.76,2.29.25,2.25-.6,1.37-.08,3.49.74,1.29.54,3,.94,4.55a15.76,15.76,0,0,0,1.07,2.88,7,7,0,0,1,.64,1.06,13.81,13.81,0,0,1,.15,2.3,9.71,9.71,0,0,0,.87,2A20.77,20.77,0,0,0,12.83,77.4Z"/><path class="cls-3" d="M13.81,79.78l-1.4-.41a13.83,13.83,0,0,1-1.15-1.64c-.67-1.27-1.87-2.13-2.34-3.56a4.34,4.34,0,0,1,0-2.23c0-.23-.8-1.46-.88-1.84-.18-.92-.84-2-1.1-2.9-.47-1.69-.84-2.14-1.12-3.38-.13-.57-.09-2.9-.15-3.73-.07-1-.67-1.81-.74-3-.09-1.33-.75-2-.53-3.75.14-1.08,1.2-3.21,1.22-4.11A2.49,2.49,0,0,1,6.1,48l.64.19a2.69,2.69,0,0,0-.14.56,23,23,0,0,0,0,2.44c0,.77-1.25,1.73-1.36,2.48C5,55,5.84,55.31,6,56.54c.1.63.67,1.55.76,2.28.25,2.25-.6,1.38-.08,3.5.75,1.29.54,3,.94,4.55a15.67,15.67,0,0,0,1.07,2.87,9.47,9.47,0,0,1,.65,1.06,15.06,15.06,0,0,1,.14,2.31,10.55,10.55,0,0,0,.87,2,23.23,23.23,0,0,0,2.83,3.81A2.85,2.85,0,0,1,13.81,79.78Z"/><path class="cls-5" d="M16.29,73.72l-1.4-.42a13.06,13.06,0,0,1-1.15-1.64c-.66-1.27-1.86-2.12-2.34-3.56a4.53,4.53,0,0,1,0-2.22c0-.24-.8-1.46-.87-1.85-.18-.92-.85-2-1.1-2.89C9,59.45,8.6,59,8.33,57.76c-.13-.58-.09-2.9-.15-3.74-.07-1-.67-1.81-.75-3-.08-1.33-.75-2-.53-3.75.15-1.08,1.2-3.2,1.22-4.11a2.51,2.51,0,0,1,.46-1.31l.64.19a5,5,0,0,0-.14.55,22.57,22.57,0,0,0,0,2.44c0,.77-1.26,1.74-1.37,2.48-.2,1.4.63,1.68.83,2.91.1.63.67,1.56.75,2.29.26,2.25-.6,1.37-.07,3.49.74,1.29.53,3,.94,4.55a15.06,15.06,0,0,0,1.07,2.88,8.54,8.54,0,0,1,.64,1.06A15,15,0,0,1,12,67a9,9,0,0,0,.87,2,21.89,21.89,0,0,0,2.83,3.81A2.74,2.74,0,0,1,16.29,73.72Z"/><path class="cls-6" d="M17.37,76,16,75.59A13.06,13.06,0,0,1,14.82,74c-.67-1.27-1.86-2.12-2.34-3.56a4.41,4.41,0,0,1,0-2.22c0-.24-.8-1.46-.88-1.85-.17-.92-.84-2-1.1-2.89-.47-1.69-.84-2.15-1.12-3.38-.13-.58-.09-2.9-.15-3.74-.07-1-.67-1.81-.74-3-.08-1.33-.75-2-.53-3.75.14-1.08,1.2-3.2,1.22-4.11a2.43,2.43,0,0,1,.46-1.31l.64.19a2.55,2.55,0,0,0-.14.56,22.87,22.87,0,0,0,0,2.43c0,.77-1.25,1.74-1.36,2.48-.21,1.4.63,1.68.83,2.91.1.63.66,1.56.75,2.29.26,2.25-.6,1.37-.08,3.49.75,1.29.54,3,.94,4.55A15.79,15.79,0,0,0,12.29,66,11.07,11.07,0,0,1,12.93,67a14.93,14.93,0,0,1,.14,2.3,10,10,0,0,0,.87,2,22.41,22.41,0,0,0,2.83,3.81A2.77,2.77,0,0,1,17.37,76Z"/><path class="cls-2" d="M12,77.14l-1.4-.41a13.83,13.83,0,0,1-1.15-1.64C8.75,73.82,7.56,73,7.08,71.53a4.57,4.57,0,0,1,0-2.23c0-.23-.8-1.46-.87-1.84-.18-.92-.85-2-1.1-2.9-.48-1.69-.85-2.14-1.13-3.38-.12-.57-.08-2.9-.14-3.73-.08-1-.68-1.81-.75-3-.08-1.33-.75-2-.53-3.75.14-1.08,1.2-3.21,1.22-4.11a2.49,2.49,0,0,1,.46-1.32l.64.19a5.08,5.08,0,0,0-.14.56c-.1.68,0,2.19,0,2.44,0,.77-1.25,1.73-1.36,2.48-.2,1.4.63,1.68.83,2.91.1.63.67,1.55.75,2.28.26,2.25-.6,1.38-.07,3.5.74,1.29.53,3,.94,4.55A15.22,15.22,0,0,0,6.89,67.1a11.07,11.07,0,0,1,.64,1.06,15.06,15.06,0,0,1,.14,2.31,10.55,10.55,0,0,0,.87,2,23.29,23.29,0,0,0,2.84,3.81A3,3,0,0,1,12,77.14Z"/><path class="cls-7" d="M11.6,78.24l-1.4-.42a13.06,13.06,0,0,1-1.15-1.64c-.67-1.27-1.86-2.12-2.34-3.56a4.41,4.41,0,0,1,0-2.22c0-.24-.8-1.46-.88-1.85-.17-.92-.84-2-1.09-2.89-.48-1.69-.85-2.15-1.13-3.38-.12-.58-.09-2.91-.15-3.74-.07-1-.67-1.81-.74-2.95-.08-1.33-.75-2-.53-3.75.14-1.08,1.2-3.2,1.22-4.11a2.43,2.43,0,0,1,.46-1.31l.64.19a4.45,4.45,0,0,0-.14.55,23.06,23.06,0,0,0,0,2.44c0,.77-1.25,1.73-1.36,2.48-.21,1.4.63,1.68.83,2.91.1.63.66,1.56.75,2.29.26,2.25-.6,1.37-.07,3.49.74,1.29.53,3,.93,4.55A15.79,15.79,0,0,0,6.52,68.2a10,10,0,0,1,.64,1.06,14.86,14.86,0,0,1,.14,2.3,10,10,0,0,0,.87,2A23,23,0,0,0,11,77.37,2.77,2.77,0,0,1,11.6,78.24Z"/><path class="cls-3" d="M13.87,73.54l-1.4-.41a13.83,13.83,0,0,1-1.15-1.64c-.67-1.27-1.86-2.13-2.34-3.56A4.46,4.46,0,0,1,9,65.7c0-.23-.8-1.45-.88-1.84C8,62.94,7.28,61.88,7,61c-.47-1.7-.84-2.15-1.12-3.39-.13-.57-.09-2.9-.15-3.73-.07-1-.67-1.81-.74-3-.08-1.33-.75-2-.53-3.75.14-1.08,1.2-3.21,1.22-4.11a2.43,2.43,0,0,1,.46-1.31l.64.19a2.47,2.47,0,0,0-.14.55,23.05,23.05,0,0,0,0,2.44c0,.77-1.25,1.73-1.36,2.48-.21,1.4.63,1.68.83,2.91.1.63.66,1.56.75,2.29.26,2.25-.6,1.37-.08,3.49.75,1.29.54,3,.94,4.55a15.79,15.79,0,0,0,1.08,2.88,9,9,0,0,1,.64,1.06,14.86,14.86,0,0,1,.14,2.3,10.29,10.29,0,0,0,.87,2,22.41,22.41,0,0,0,2.83,3.81A2.85,2.85,0,0,1,13.87,73.54Z"/><path class="cls-2" d="M14.93,78.39,13.71,78a6,6,0,0,1-1.16-1.77A4.48,4.48,0,0,1,12.47,74c0-.23-.87-1.42-1-1.8-.22-.91-.93-1.95-1.23-2.84-.55-1.67-.94-2.11-1.27-3.33-.16-.57-.23-2.89-.32-3.72-.12-1-.76-1.78-.88-2.91-.15-1.33-.84-2-.7-3.72.09-1.09,1-3.26,1-4.16,0-1.16.89-1.67,1-2.91a7.74,7.74,0,0,0-.06-1.53l1,.29a1.2,1.2,0,0,1,0,.46,29.27,29.27,0,0,0-1,3.08,22.82,22.82,0,0,0,.08,2.43c0,.77-1.18,1.79-1.25,2.54-.14,1.41.71,1.65,1,2.87.13.63.74,1.52.85,2.25.36,2.24-.53,1.4.09,3.49.8,1.26.67,3,1.14,4.5a15.07,15.07,0,0,0,1.21,2.82,11.57,11.57,0,0,1,.69,1,14.87,14.87,0,0,1,.25,2.3,8.73,8.73,0,0,0,1,1.95A8.07,8.07,0,0,0,14.93,78.39Z"/><path class="cls-2" d="M16.23,73,15,72.65a5.92,5.92,0,0,1-1.16-1.76,4.52,4.52,0,0,1-.08-2.23c0-.23-.87-1.42-1-1.8-.22-.91-.93-1.94-1.23-2.84-.55-1.67-.94-2.1-1.27-3.33-.16-.56-.23-2.89-.32-3.72-.12-1-.76-1.77-.88-2.91-.14-1.32-.84-2-.7-3.72.09-1.08,1.05-3.25,1-4.16,0-1.16.89-1.67,1-2.9a7.7,7.7,0,0,0-.06-1.53l1,.29a1.41,1.41,0,0,1,.05.46,25.82,25.82,0,0,0-1,3.07A23.14,23.14,0,0,0,10.46,48c0,.77-1.18,1.78-1.25,2.54-.14,1.4.71,1.64,1,2.86.13.63.74,1.53.85,2.25.36,2.24-.53,1.4.09,3.49.8,1.26.67,3,1.14,4.5a15.45,15.45,0,0,0,1.21,2.83,10.28,10.28,0,0,1,.69,1,14.75,14.75,0,0,1,.25,2.29,9,9,0,0,0,1,2A7.65,7.65,0,0,0,16.23,73Z"/><path class="cls-2" d="M16.41,76.25l-1.19-.35c-.68-1.23-1.83-2.07-2.29-3.47a4.47,4.47,0,0,1,0-2.23c0-.23-.8-1.46-.87-1.84-.18-.92-.84-2-1.1-2.9-.48-1.69-.84-2.14-1.12-3.38-.13-.57-.09-2.9-.15-3.73-.07-1-.67-1.81-.74-3-.09-1.33-.76-2-.53-3.75.14-1.08,1.19-3.21,1.22-4.11S10.43,46,10.71,45l.54.16A7.41,7.41,0,0,0,10.61,47a20.61,20.61,0,0,0,0,2.44c0,.77-1.26,1.73-1.37,2.48-.2,1.4.64,1.68.83,2.91.1.63.67,1.55.75,2.28.26,2.25-.59,1.38-.07,3.5.74,1.29.54,3,.94,4.55A15.94,15.94,0,0,0,12.73,68a9.34,9.34,0,0,1,.64,1.06,13.94,13.94,0,0,1,.15,2.3,9.25,9.25,0,0,0,.87,2A19.41,19.41,0,0,0,16.41,76.25Z"/><path class="cls-3" d="M17.39,78.64,16,78.22a13.21,13.21,0,0,1-1.16-1.64C14.17,75.31,13,74.46,12.5,73a4.44,4.44,0,0,1,0-2.22c0-.24-.8-1.46-.87-1.84-.18-.93-.84-2-1.1-2.9-.47-1.69-.84-2.15-1.12-3.38-.13-.58-.09-2.9-.15-3.74-.07-1-.67-1.81-.74-2.95-.09-1.33-.75-2-.53-3.75.14-1.08,1.2-3.2,1.22-4.1a2.43,2.43,0,0,1,.46-1.32l.64.19a2.69,2.69,0,0,0-.14.56,22.87,22.87,0,0,0,0,2.43c0,.77-1.26,1.74-1.36,2.49-.21,1.39.63,1.67.82,2.9.1.64.67,1.56.76,2.29.25,2.25-.6,1.37-.08,3.49.74,1.29.54,3,.94,4.55A15.76,15.76,0,0,0,12.3,68.6a8.08,8.08,0,0,1,.64,1.06,13.87,13.87,0,0,1,.15,2.3A9.48,9.48,0,0,0,14,74a22.89,22.89,0,0,0,2.83,3.82A2.73,2.73,0,0,1,17.39,78.64Z"/><path class="cls-3" d="M19.87,72.57l-1.4-.41a13.83,13.83,0,0,1-1.15-1.64C16.65,69.25,15.46,68.39,15,67a4.57,4.57,0,0,1,0-2.23c0-.23-.8-1.46-.87-1.84C14,62,13.28,60.9,13,60c-.48-1.69-.85-2.14-1.12-3.38-.13-.57-.09-2.9-.15-3.73-.08-1-.68-1.81-.75-3-.08-1.33-.75-2-.53-3.75.15-1.08,1.2-3.21,1.22-4.11a2.58,2.58,0,0,1,.46-1.32l.64.19a5.08,5.08,0,0,0-.14.56,22.57,22.57,0,0,0,0,2.44c0,.77-1.26,1.73-1.37,2.48-.2,1.4.63,1.68.83,2.91.1.63.67,1.55.75,2.28.26,2.26-.6,1.38-.07,3.5.74,1.29.53,3,.94,4.55a15,15,0,0,0,1.07,2.87,9.34,9.34,0,0,1,.64,1.06,15.06,15.06,0,0,1,.14,2.31,10.29,10.29,0,0,0,.87,2,23.29,23.29,0,0,0,2.84,3.81A3,3,0,0,1,19.87,72.57Z"/><path class="cls-3" d="M21,74.86l-1.4-.41a13.83,13.83,0,0,1-1.15-1.64c-.67-1.27-1.87-2.13-2.34-3.56a4.34,4.34,0,0,1,0-2.23c0-.23-.8-1.46-.88-1.84-.18-.92-.84-2-1.1-2.9-.47-1.69-.84-2.14-1.12-3.38-.13-.57-.09-2.9-.15-3.73-.07-1-.67-1.81-.74-3-.09-1.33-.75-2-.53-3.75.14-1.08,1.2-3.21,1.22-4.11A2.49,2.49,0,0,1,13.24,43l.64.19a2.69,2.69,0,0,0-.14.56,23,23,0,0,0,0,2.44c0,.77-1.25,1.73-1.36,2.48-.21,1.4.63,1.68.82,2.91.1.63.67,1.55.76,2.28.25,2.26-.6,1.38-.08,3.5.75,1.29.54,3,.94,4.55a15.67,15.67,0,0,0,1.07,2.87,9.47,9.47,0,0,1,.65,1.06,15.06,15.06,0,0,1,.14,2.31,10.29,10.29,0,0,0,.87,2A23.23,23.23,0,0,0,20.35,74,2.85,2.85,0,0,1,21,74.86Z"/><path class="cls-2" d="M15.55,76l-1.4-.42A13.06,13.06,0,0,1,13,73.94c-.67-1.27-1.86-2.12-2.34-3.56a4.42,4.42,0,0,1,0-2.22c0-.24-.8-1.46-.88-1.84-.17-.93-.84-2-1.09-2.9-.48-1.69-.85-2.15-1.13-3.38-.12-.58-.09-2.9-.14-3.74-.08-1-.68-1.81-.75-2.95-.08-1.33-.75-2-.53-3.75.14-1.08,1.2-3.2,1.22-4.11a2.43,2.43,0,0,1,.46-1.31l.64.19a5.08,5.08,0,0,0-.14.56c-.1.68,0,2.19,0,2.43,0,.77-1.25,1.74-1.36,2.48-.2,1.4.63,1.68.83,2.91.1.64.66,1.56.75,2.29.26,2.25-.6,1.37-.07,3.49.74,1.29.53,3,.93,4.55A15.79,15.79,0,0,0,10.47,66,11.07,11.07,0,0,1,11.11,67a14.93,14.93,0,0,1,.14,2.3,10,10,0,0,0,.87,2A23.46,23.46,0,0,0,15,75.14,2.73,2.73,0,0,1,15.55,76Z"/><path class="cls-8" d="M15.18,77.09l-1.4-.41A13.83,13.83,0,0,1,12.63,75c-.67-1.27-1.86-2.13-2.34-3.56a4.45,4.45,0,0,1,0-2.23c0-.23-.8-1.46-.88-1.84-.17-.92-.84-2-1.1-2.9-.47-1.69-.84-2.14-1.12-3.38-.13-.57-.09-2.9-.15-3.73-.07-1-.67-1.81-.74-2.95-.08-1.33-.75-2-.53-3.75C5.93,49.62,7,47.49,7,46.59a2.49,2.49,0,0,1,.46-1.32l.64.19A2.69,2.69,0,0,0,8,46a23,23,0,0,0,0,2.44c0,.77-1.25,1.73-1.36,2.48-.21,1.4.63,1.68.83,2.91.1.63.66,1.55.75,2.28.26,2.25-.6,1.38-.08,3.5.75,1.29.54,3,.94,4.55a15.7,15.7,0,0,0,1.08,2.87,11.07,11.07,0,0,1,.64,1.06,15.06,15.06,0,0,1,.14,2.31,10.29,10.29,0,0,0,.87,2,23.23,23.23,0,0,0,2.83,3.81A2.85,2.85,0,0,1,15.18,77.09Z"/><path class="cls-3" d="M17.45,72.4,16.05,72a13.83,13.83,0,0,1-1.15-1.64c-.67-1.27-1.87-2.13-2.34-3.56a4.34,4.34,0,0,1,0-2.23c0-.23-.8-1.46-.88-1.84-.18-.92-.84-2-1.1-2.9-.47-1.69-.84-2.14-1.12-3.38-.13-.57-.09-2.9-.15-3.73-.07-1-.67-1.81-.74-3-.09-1.33-.75-2-.53-3.75.14-1.08,1.2-3.21,1.22-4.11a2.49,2.49,0,0,1,.46-1.32l.64.19a2.69,2.69,0,0,0-.14.56,23,23,0,0,0,0,2.44c0,.77-1.25,1.73-1.36,2.48-.21,1.4.63,1.68.82,2.91.1.63.67,1.55.76,2.28.25,2.25-.6,1.37-.08,3.5.75,1.29.54,3,.94,4.55a15.25,15.25,0,0,0,1.08,2.87A11.07,11.07,0,0,1,13,63.42a15.06,15.06,0,0,1,.14,2.31,10.55,10.55,0,0,0,.87,2,23.23,23.23,0,0,0,2.83,3.81A2.85,2.85,0,0,1,17.45,72.4Z"/><path class="cls-2" d="M18.5,77.24l-1.21-.35a6.1,6.1,0,0,1-1.16-1.77,4.52,4.52,0,0,1-.08-2.23c0-.23-.87-1.42-1-1.79-.22-.92-.93-1.95-1.23-2.85-.55-1.66-.94-2.1-1.27-3.32-.16-.57-.23-2.89-.32-3.72-.12-1-.76-1.78-.88-2.92-.15-1.32-.85-2-.7-3.72.09-1.08,1.05-3.25,1-4.15,0-1.17.89-1.68,1-2.91A7.74,7.74,0,0,0,12.67,46l1,.29a1.18,1.18,0,0,1,0,.46,29.59,29.59,0,0,0-1,3.08,22.57,22.57,0,0,0,.09,2.43c0,.77-1.18,1.79-1.25,2.54-.14,1.41.71,1.65,1,2.87.13.62.74,1.52.85,2.24.36,2.24-.53,1.4.09,3.5.8,1.25.67,3,1.14,4.5a15.66,15.66,0,0,0,1.21,2.82,10.28,10.28,0,0,1,.69,1A13.52,13.52,0,0,1,16.67,74a9.57,9.57,0,0,0,1,2A8.11,8.11,0,0,0,18.5,77.24Z"/><path class="cls-2" d="M19.8,71.87l-1.21-.36a6,6,0,0,1-1.16-1.77,4.48,4.48,0,0,1-.08-2.22c0-.24-.87-1.42-1-1.8-.22-.91-.93-1.95-1.23-2.84-.55-1.67-.94-2.11-1.27-3.33-.16-.57-.23-2.89-.32-3.72-.12-1-.76-1.78-.88-2.91-.15-1.33-.85-2-.7-3.72.09-1.09,1-3.26,1-4.16,0-1.16.89-1.67,1-2.91A7.74,7.74,0,0,0,14,40.6l1,.29a1.2,1.2,0,0,1,0,.46,28.48,28.48,0,0,0-1,3.08A20.5,20.5,0,0,0,14,46.86c0,.77-1.18,1.79-1.25,2.54-.14,1.41.71,1.65,1,2.87.13.63.74,1.52.85,2.25.36,2.23-.53,1.39.09,3.49.8,1.25.67,3,1.14,4.5A15.66,15.66,0,0,0,17,65.33a10.28,10.28,0,0,1,.69,1A13.62,13.62,0,0,1,18,68.65a9.33,9.33,0,0,0,1,2A8.58,8.58,0,0,0,19.8,71.87Z"/><path class="cls-2" d="M19.81,77.82l-1.2-.36c-.67-1.22-1.82-2.07-2.28-3.47a4.43,4.43,0,0,1,0-2.22c0-.24-.8-1.46-.87-1.85-.18-.92-.84-2-1.1-2.89-.48-1.69-.85-2.15-1.12-3.39-.13-.57-.09-2.9-.15-3.73-.07-1-.67-1.81-.75-2.95-.08-1.33-.75-2-.52-3.75C12,52.13,13,50,13,49.1s.79-1.53,1.07-2.51l.54.16A7.63,7.63,0,0,0,14,48.53,22.57,22.57,0,0,0,14,51c0,.77-1.26,1.73-1.37,2.48-.2,1.4.64,1.68.83,2.91.1.63.67,1.56.75,2.29.26,2.25-.6,1.37-.07,3.49.74,1.29.53,3,.94,4.55a15.76,15.76,0,0,0,1.07,2.88,9.34,9.34,0,0,1,.64,1.06,13.81,13.81,0,0,1,.15,2.3,9,9,0,0,0,.87,2A19.16,19.16,0,0,0,19.81,77.82Z"/><path class="cls-3" d="M20.78,80.2l-1.4-.41a15.11,15.11,0,0,1-1.15-1.64c-.66-1.27-1.86-2.13-2.33-3.56a4.47,4.47,0,0,1,0-2.23c0-.23-.8-1.46-.87-1.84-.18-.92-.84-2-1.1-2.9-.48-1.69-.84-2.14-1.12-3.38-.13-.57-.09-2.9-.15-3.73-.07-1-.67-1.81-.74-2.95-.09-1.33-.76-2-.53-3.75.14-1.08,1.19-3.21,1.22-4.11a2.57,2.57,0,0,1,.45-1.32l.65.19a2.69,2.69,0,0,0-.14.56,20.61,20.61,0,0,0,0,2.44c0,.77-1.26,1.73-1.37,2.48-.2,1.4.64,1.68.83,2.91.1.63.67,1.55.75,2.28.26,2.26-.59,1.38-.07,3.5.74,1.29.54,3,.94,4.55a15.67,15.67,0,0,0,1.07,2.87,9.34,9.34,0,0,1,.64,1.06,14,14,0,0,1,.15,2.31,9.19,9.19,0,0,0,.87,2,23.23,23.23,0,0,0,2.83,3.81A2.81,2.81,0,0,1,20.78,80.2Z"/><path class="cls-9" d="M23.27,74.14l-1.4-.42a13.06,13.06,0,0,1-1.15-1.64c-.67-1.27-1.86-2.12-2.34-3.56a4.42,4.42,0,0,1,0-2.22c0-.24-.8-1.46-.88-1.84-.17-.93-.84-2-1.09-2.9-.48-1.69-.85-2.15-1.13-3.38-.12-.58-.09-2.9-.15-3.74-.07-1-.67-1.81-.74-2.95-.08-1.33-.75-2-.53-3.75.14-1.08,1.2-3.2,1.22-4.11a2.43,2.43,0,0,1,.46-1.31l.64.19a3.52,3.52,0,0,0-.14.56,22.87,22.87,0,0,0,0,2.43c0,.77-1.25,1.74-1.36,2.48-.21,1.4.63,1.68.83,2.91.1.64.66,1.56.75,2.29.26,2.25-.6,1.37-.07,3.49.74,1.29.53,3,.93,4.55a15.79,15.79,0,0,0,1.08,2.88,11.07,11.07,0,0,1,.64,1.06,14.93,14.93,0,0,1,.14,2.3,10,10,0,0,0,.87,2,23.46,23.46,0,0,0,2.83,3.82A2.73,2.73,0,0,1,23.27,74.14Z"/><path class="cls-3" d="M21.24,74.66l-1.4-.41a13.83,13.83,0,0,1-1.15-1.64c-.66-1.27-1.86-2.13-2.34-3.56a4.57,4.57,0,0,1,0-2.23c0-.23-.8-1.46-.87-1.84-.18-.92-.84-2-1.1-2.89-.48-1.7-.85-2.15-1.12-3.39-.13-.57-.09-2.9-.15-3.73-.07-1-.67-1.81-.75-2.95-.08-1.33-.75-2-.52-3.75.14-1.08,1.19-3.21,1.21-4.11a2.58,2.58,0,0,1,.46-1.32l.64.19a5.08,5.08,0,0,0-.14.56A22.57,22.57,0,0,0,14,46c0,.77-1.26,1.73-1.37,2.48-.2,1.4.63,1.68.83,2.91.1.63.67,1.56.75,2.29.26,2.25-.6,1.37-.07,3.49.74,1.29.53,3,.94,4.55a15.06,15.06,0,0,0,1.07,2.88,8.44,8.44,0,0,1,.64,1.05A15.17,15.17,0,0,1,17,68a9.19,9.19,0,0,0,.87,2,21.89,21.89,0,0,0,2.83,3.81A2.81,2.81,0,0,1,21.24,74.66Z"/><path class="cls-2" d="M19,77.56l-1.4-.41a13.83,13.83,0,0,1-1.15-1.64c-.67-1.27-1.86-2.13-2.34-3.56a4.45,4.45,0,0,1,0-2.23c0-.23-.8-1.46-.88-1.84-.18-.92-.84-2-1.1-2.9-.47-1.69-.84-2.14-1.12-3.38-.13-.57-.09-2.9-.15-3.73-.07-1-.67-1.81-.74-2.95-.09-1.33-.75-2-.53-3.75.14-1.08,1.2-3.21,1.22-4.11a2.49,2.49,0,0,1,.46-1.32l.64.19a2.69,2.69,0,0,0-.14.56,23,23,0,0,0,0,2.44c0,.77-1.25,1.73-1.36,2.48-.21,1.4.63,1.68.82,2.91.1.63.67,1.55.76,2.28.25,2.26-.6,1.38-.08,3.5.75,1.29.54,3,.94,4.55a15,15,0,0,0,1.08,2.87,11.07,11.07,0,0,1,.64,1.06,15.06,15.06,0,0,1,.14,2.31,10.29,10.29,0,0,0,.87,2,23.23,23.23,0,0,0,2.83,3.81A2.85,2.85,0,0,1,19,77.56Z"/><path class="cls-10" d="M18.58,78.66l-1.4-.42A13.21,13.21,0,0,1,16,76.6c-.66-1.27-1.86-2.12-2.33-3.56a4.31,4.31,0,0,1,0-2.22c0-.24-.8-1.46-.88-1.84-.18-.93-.84-2-1.1-2.9-.47-1.69-.84-2.15-1.12-3.38-.13-.58-.09-2.9-.15-3.74-.07-1-.67-1.81-.74-3-.09-1.33-.75-2-.53-3.75.14-1.08,1.2-3.2,1.22-4.11a2.43,2.43,0,0,1,.46-1.31l.64.19a2.69,2.69,0,0,0-.14.56,22.87,22.87,0,0,0,0,2.43c0,.77-1.26,1.74-1.36,2.48-.21,1.4.63,1.68.82,2.91.1.64.67,1.56.76,2.29.25,2.25-.6,1.37-.08,3.49.74,1.29.54,3,.94,4.55a15.76,15.76,0,0,0,1.07,2.88,8.08,8.08,0,0,1,.64,1.06,13.87,13.87,0,0,1,.15,2.3,9.48,9.48,0,0,0,.87,2A22.89,22.89,0,0,0,18,77.8,2.63,2.63,0,0,1,18.58,78.66Z"/><path class="cls-3" d="M22.75,74.73l-1.4-.41a13.83,13.83,0,0,1-1.15-1.64c-.67-1.27-1.86-2.13-2.34-3.56a4.57,4.57,0,0,1,0-2.23c0-.23-.8-1.46-.88-1.84-.17-.92-.84-2-1.09-2.9-.48-1.69-.85-2.14-1.13-3.38-.12-.57-.09-2.9-.14-3.73-.08-1-.68-1.81-.75-2.95-.08-1.33-.75-2-.53-3.75.14-1.08,1.2-3.21,1.22-4.11A2.49,2.49,0,0,1,15,42.91l.64.19a5.08,5.08,0,0,0-.14.56c-.1.68,0,2.19,0,2.44,0,.77-1.25,1.73-1.36,2.48-.2,1.4.63,1.68.83,2.91.1.63.67,1.55.75,2.28.26,2.25-.6,1.38-.07,3.5.74,1.29.53,3,.94,4.55a15,15,0,0,0,1.07,2.87,11.07,11.07,0,0,1,.64,1.06,15.06,15.06,0,0,1,.14,2.31,10.55,10.55,0,0,0,.87,2,23.82,23.82,0,0,0,2.83,3.81A2.85,2.85,0,0,1,22.75,74.73Z"/><path class="cls-11" d="M20.84,74l-1.39-.42a13.21,13.21,0,0,1-1.16-1.64c-.66-1.27-1.86-2.12-2.33-3.56a4.43,4.43,0,0,1,0-2.22c0-.24-.8-1.46-.87-1.85-.18-.92-.84-2-1.1-2.89-.48-1.69-.84-2.15-1.12-3.38-.13-.58-.09-2.9-.15-3.74-.07-1-.67-1.81-.74-3-.09-1.33-.76-2-.53-3.75.14-1.08,1.19-3.2,1.22-4.11a2.5,2.5,0,0,1,.45-1.31l.65.19a2.62,2.62,0,0,0-.14.55,20.63,20.63,0,0,0,0,2.44c0,.77-1.26,1.74-1.37,2.48-.2,1.4.64,1.68.83,2.91.1.63.67,1.56.76,2.29.25,2.25-.6,1.37-.08,3.49.74,1.29.54,3,.94,4.55a15.76,15.76,0,0,0,1.07,2.88A7.47,7.47,0,0,1,16.4,65a13.81,13.81,0,0,1,.15,2.3,9,9,0,0,0,.87,2,22.41,22.41,0,0,0,2.83,3.81A2.58,2.58,0,0,1,20.84,74Z"/><path class="cls-2" d="M19.63,75.87l-1.21-.36a6,6,0,0,1-1.16-1.77,4.48,4.48,0,0,1-.08-2.22c0-.24-.87-1.42-1-1.8-.22-.91-.93-2-1.23-2.84-.55-1.67-.94-2.11-1.27-3.33-.16-.57-.23-2.89-.32-3.72-.12-1-.76-1.78-.88-2.91-.15-1.33-.85-2-.7-3.72.09-1.09,1-3.26,1-4.16,0-1.16.89-1.67,1-2.91a7.74,7.74,0,0,0-.06-1.53l1,.29a1.2,1.2,0,0,1,0,.46,28.48,28.48,0,0,0-1,3.08,23,23,0,0,0,.08,2.43c0,.77-1.18,1.79-1.25,2.54-.14,1.41.71,1.65,1,2.87.13.62.74,1.52.85,2.25.36,2.23-.53,1.39.09,3.49.8,1.25.67,2.95,1.14,4.5a15.66,15.66,0,0,0,1.21,2.82,10.28,10.28,0,0,1,.69,1,13.62,13.62,0,0,1,.24,2.29,9.33,9.33,0,0,0,1,2A8.58,8.58,0,0,0,19.63,75.87Z"/><path class="cls-2" d="M21.5,81.7l-1.21-.36a6,6,0,0,1-1.16-1.77,4.48,4.48,0,0,1-.08-2.22c0-.24-.87-1.42-1-1.8-.22-.91-.93-2-1.23-2.85-.56-1.66-.94-2.1-1.28-3.32-.15-.57-.22-2.89-.31-3.72-.12-1-.76-1.78-.88-2.91-.15-1.33-.85-2-.7-3.72.09-1.09,1.05-3.26,1-4.16,0-1.16.89-1.67,1-2.91a7.74,7.74,0,0,0-.06-1.53l1,.29a1.41,1.41,0,0,1,0,.46,30.45,30.45,0,0,0-1,3.08,22.57,22.57,0,0,0,.09,2.43c0,.77-1.18,1.79-1.25,2.54-.14,1.41.71,1.65,1,2.87.12.62.73,1.52.85,2.25.36,2.23-.53,1.39.09,3.49.8,1.25.67,3,1.14,4.5a16.37,16.37,0,0,0,1.2,2.82,7.72,7.72,0,0,1,.69,1,13.62,13.62,0,0,1,.25,2.29A12.49,12.49,0,0,0,21.5,81.7Z"/><path class="cls-12" d="M19.62,89.78l-1.4-.41a13.83,13.83,0,0,1-1.15-1.64c-.66-1.27-1.86-2.13-2.34-3.56a4.53,4.53,0,0,1,0-2.22c0-.24-.8-1.46-.87-1.85-.18-.92-.85-2-1.1-2.89-.48-1.69-.85-2.15-1.12-3.39-.13-.57-.09-2.9-.15-3.73-.08-1-.67-1.81-.75-3-.08-1.33-.75-2-.53-3.75.15-1.08,1.2-3.2,1.22-4.11A2.51,2.51,0,0,1,11.91,58l.64.19a4.45,4.45,0,0,0-.14.55,22.57,22.57,0,0,0,0,2.44c0,.77-1.26,1.73-1.37,2.48-.2,1.4.63,1.68.83,2.91.1.63.67,1.56.75,2.29.26,2.25-.6,1.37-.07,3.49.74,1.29.53,3,.94,4.55a15.06,15.06,0,0,0,1.07,2.88,8.54,8.54,0,0,1,.64,1.06,14.86,14.86,0,0,1,.14,2.3,9.56,9.56,0,0,0,.88,2A21.89,21.89,0,0,0,19,88.92,2.81,2.81,0,0,1,19.62,89.78Z"/><path class="cls-3" d="M22.07,89.45,20.67,89a13.06,13.06,0,0,1-1.15-1.64c-.67-1.27-1.86-2.12-2.34-3.56a4.53,4.53,0,0,1,0-2.22c0-.24-.8-1.46-.88-1.85-.17-.92-.84-2-1.09-2.89-.48-1.69-.85-2.15-1.13-3.38-.12-.58-.09-2.9-.14-3.74-.08-1-.68-1.81-.75-3-.08-1.33-.75-2-.53-3.75.14-1.08,1.2-3.2,1.22-4.11a2.43,2.43,0,0,1,.46-1.31l.64.19a4.58,4.58,0,0,0-.14.56c-.1.68,0,2.19,0,2.43,0,.77-1.25,1.74-1.36,2.48-.2,1.4.63,1.68.83,2.91.1.63.67,1.56.75,2.29.26,2.25-.6,1.37-.07,3.49.74,1.29.53,3,.94,4.55A15.06,15.06,0,0,0,17,79.41a11.07,11.07,0,0,1,.64,1.06,14.93,14.93,0,0,1,.14,2.3,10,10,0,0,0,.87,2,23,23,0,0,0,2.83,3.81A2.77,2.77,0,0,1,22.07,89.45Z"/><path class="cls-13" d="M95.61,24.7C87.4,6.1,64.89-2,45.17,1.94a2.65,2.65,0,0,1-.42,1.56A8.9,8.9,0,0,1,43.1,5.56a11.38,11.38,0,0,0-1.44,1.23,8.86,8.86,0,0,0-1.18,2.84A2.72,2.72,0,0,1,39.4,11.2C39.26,12.57,39,14,39,15.34h0a3,3,0,0,1,0,1.53c.11,1.53.76,3,1,4.49a42.41,42.41,0,0,1-.45,11.36,2.29,2.29,0,0,1-1.09,1.78c1.71,2.23,2.4,5.44,2.81,8.5a3.2,3.2,0,0,1,.63.6,34.14,34.14,0,0,1,3.48,6.18c1,1.91,2.11,3.69,2.94,5.67,2,4.68,2.4,9.84,4.68,14.44a2.91,2.91,0,0,1,.22.6,2.77,2.77,0,0,1,1.15,1.11c2.23,3.83,2.79,8.25,3.59,12.52.39,2.06,1.75,3,2.69,4.7a15.57,15.57,0,0,1,1.2,3.68A49,49,0,0,0,74.91,88.4C100,76.37,106,48.21,95.61,24.7Z"/><path class="cls-14" d="M92.09,54.54c-3.45,1.34-7,2.46-10.5,3.54a26.69,26.69,0,0,0-6.47,2.64,45.89,45.89,0,0,1,2.76-3.95,77.34,77.34,0,0,0,9.24-14.51,28,28,0,0,0,2-16.88c-.87-4.9-2.7-9.56-4.08-14.34-.64-.51-1.29-1-2-1.49.92,5.17,3.12,10.08,4.3,15.19A24.84,24.84,0,0,1,85.32,42l-.36.68a23.43,23.43,0,0,0-.8-5.9c-.83-3.53-2.15-7-3.32-10.39-2.48-7.26-5.29-14.47-7-21.95l-1.05-.4a177.88,177.88,0,0,0,6.23,21c1.16,3.42,2.35,6.85,3.35,10.32a31,31,0,0,1,1,4.94,33.15,33.15,0,0,1-.24,5.37.51.51,0,0,0,0,.13c-2.3,3.62-5,7-7.62,10.37a29.22,29.22,0,0,0-4.39,7.43c-.23.61-.45,1.22-.67,1.84-.78-4.78-2-9.5-3.19-14.18-.23-.89-.47-1.76-.72-2.64a71.54,71.54,0,0,1,2.93-12.52c1.4-4.8,2.1-9.51,1.18-14.45-1.35-7.2-5.33-13.48-8-20.23l-1.33-.17c2.36,6.82,6.41,13.12,7.89,20.24,1.06,5.11.12,10-1.41,14.9a58.17,58.17,0,0,0-2.3,8.72A73.27,73.27,0,0,0,60,32.37c-.7-1.27-1.43-2.52-2.19-3.74,0-2.88-.28-5.81-.43-8.67A54.9,54.9,0,0,0,56,9.92a17.3,17.3,0,0,0-3.79-7.38c-.41-.48-.84-.95-1.26-1.43l-1.38.13a3.76,3.76,0,0,0,.25.31c.8,1,1.64,1.94,2.4,3a15.41,15.41,0,0,1,2.2,4.74,46.71,46.71,0,0,1,1.61,10c.16,2.17.05,4.47.16,6.71-4.39-6.72-9.41-13-13.87-19.72a3.37,3.37,0,0,0-.61.58,2.8,2.8,0,0,0-.33.51c1.89,3.16,3.88,6.26,5.88,9.36a10.8,10.8,0,0,0-2.62-.73A44.21,44.21,0,0,1,39,14.77c0,.19,0,.38,0,.57h0a3.1,3.1,0,0,1,.08,1.09,26.59,26.59,0,0,0,3.56.8c1.77.26,3.74.41,5.25,1.44a.63.63,0,0,0,.66,0,142.22,142.22,0,0,1,9.78,17c-4,.26-7.7-.82-11.43-2.18-2.41-.88-4.78-1.86-7.11-2.9-.05.45-.11.89-.17,1.34,2.63,1.19,5.3,2.29,8,3.27,1.13.41,2.32.81,3.54,1.15a75.28,75.28,0,0,1-10.71,1.05H40c.16.45.31.92.44,1.4A71.37,71.37,0,0,0,54.1,37.45a.73.73,0,0,0,.48-.31,15,15,0,0,0,4.38,0l0,.05c2.59,5.9,3.91,12.19,5.34,18.45a115.52,115.52,0,0,1,2.55,15.23c-3.16-2.53-7-4.36-10.35-6.52-2.22-1.44-4.47-2.85-6.71-4.26.43,1.57.81,3.16,1.26,4.73l2.61,1.85c4.08,2.85,9.23,5,12.61,8.78.32.21.59.4.83.58a35.62,35.62,0,0,1-3.79,16.19,49.57,49.57,0,0,0,5.36-1.38,32.37,32.37,0,0,0,1.71-5.38,47.06,47.06,0,0,0,.72-14.93,41.51,41.51,0,0,0,2.06-5.71c.14-.44.31-.88.49-1.3,3.07-2.28,6.51-3.36,10.17-4.39A88.32,88.32,0,0,0,94,55.67a48.75,48.75,0,0,0,6.17-3.1c.07-.66.13-1.33.17-2A53.71,53.71,0,0,1,92.09,54.54Z"/><path class="cls-15" d="M91.32,21.14a30.49,30.49,0,0,0-6.38-10.21C74.26,2.34,59-.85,45.17,1.92a2.69,2.69,0,0,1-.42,1.58A8.9,8.9,0,0,1,43.1,5.56a11.38,11.38,0,0,0-1.44,1.23,8.86,8.86,0,0,0-1.18,2.84A2.72,2.72,0,0,1,39.4,11.2C39.26,12.57,39,14,39,15.34h0a3,3,0,0,1,0,1.53c.11,1.53.76,3,1,4.49A30.74,30.74,0,0,1,40,28.15c.28.31.56.61.85.91a42.48,42.48,0,0,0,14.41,9.07A41.76,41.76,0,0,0,71.58,41.4c6.17-.14,12.48-2.08,16.73-6.7a13.76,13.76,0,0,0,3.61-6.79A13.67,13.67,0,0,0,91.32,21.14Z"/><path class="cls-16" d="M60,32.37c-.7-1.27-1.43-2.52-2.19-3.74,0-2.88-.28-5.81-.43-8.67A54.9,54.9,0,0,0,56,9.92a17.3,17.3,0,0,0-3.79-7.38c-.41-.48-.84-.95-1.26-1.43l-1.38.13a3.76,3.76,0,0,0,.25.31c.8,1,1.64,1.94,2.4,3a15.41,15.41,0,0,1,2.2,4.74,46.71,46.71,0,0,1,1.61,10c.16,2.17.05,4.47.16,6.71-4.39-6.72-9.41-13-13.88-19.71a3.24,3.24,0,0,0-.6.57,4.25,4.25,0,0,0-.34.52c1.89,3.16,3.89,6.26,5.89,9.35a10.8,10.8,0,0,0-2.62-.73A44.21,44.21,0,0,1,39,14.77c0,.19,0,.38,0,.57h0a3.1,3.1,0,0,1,.08,1.09,26.59,26.59,0,0,0,3.56.8c1.77.26,3.74.41,5.25,1.44a.63.63,0,0,0,.66,0,142.22,142.22,0,0,1,9.78,17c-4,.26-7.7-.82-11.43-2.18l-1.05-.4a46.55,46.55,0,0,0,8,4.35l.31,0a.73.73,0,0,0,.48-.31,15,15,0,0,0,4.38,0l0,.05c.37.84.71,1.69,1,2.55,1.27.38,2.57.69,3.87,1A68.1,68.1,0,0,0,60,32.37Z"/><path class="cls-16" d="M88.31,34.7a19,19,0,0,0,1.22-1.47,29.67,29.67,0,0,0-.37-7.85c-.87-4.88-2.69-9.51-4.06-14.27L85,10.94c-.6-.48-1.21-.95-1.83-1.39.92,5.17,3.12,10.08,4.3,15.19a25,25,0,0,1,.23,10.64C87.88,35.16,88.1,34.93,88.31,34.7Z"/><path class="cls-16" d="M84.4,37.91c-.08-.38-.16-.75-.24-1.09-.83-3.53-2.15-7-3.32-10.39-2.48-7.26-5.29-14.47-7-21.95l-1.05-.4a177.88,177.88,0,0,0,6.23,21c1.16,3.42,2.35,6.85,3.35,10.32.31,1.07.57,2.14.77,3.22C83.53,38.42,84,38.17,84.4,37.91Z"/><path class="cls-16" d="M67.77,36.46c-.49,1.57-1,3.11-1.41,4.65.55.07,1.09.13,1.65.18.46-1.72,1-3.42,1.46-5.12,1.4-4.8,2.1-9.51,1.18-14.45-1.35-7.2-5.33-13.48-8-20.23l-1.33-.17c2.36,6.82,6.41,13.12,7.89,20.24C70.24,26.67,69.3,31.54,67.77,36.46Z"/><path class="cls-17" d="M98.22,31.87c-.62,1.37-1.35,2.65-2,4C94.44,39.5,93.15,43.33,91.39,47c-1.55,3.19-2.71,6.57-4.4,9.69a21.75,21.75,0,0,1-7,7.62L77.81,65.8c-1.45,1.43-3,2.68-4.59,4s-3.69,3.42-5.88,3.06c-3.94-.63-6.11-5.39-7.44-8.59-1.48-3.58-2.38-7.35-3.76-11,0,0,0,0,0-.07A19.17,19.17,0,0,0,50,47.05a34.15,34.15,0,0,0-8.26-3.6l.14.16a34.14,34.14,0,0,1,3.48,6.18c1,1.91,2.11,3.69,2.94,5.67,2,4.68,2.4,9.84,4.68,14.44a2.91,2.91,0,0,1,.22.6,2.77,2.77,0,0,1,1.15,1.11c2.23,3.83,2.79,8.25,3.59,12.52.39,2.06,1.75,3,2.69,4.7a15.57,15.57,0,0,1,1.2,3.68A49,49,0,0,0,74.91,88.4C97.52,77.57,104.6,53.69,98.22,31.87Z"/><path class="cls-18" d="M87.17,56.31c-.07.11-.12.23-.18.34a21.37,21.37,0,0,1-1.18,1.92,81.38,81.38,0,0,0,8.2-2.9,48.75,48.75,0,0,0,6.17-3.1c.07-.66.13-1.33.17-2a53.71,53.71,0,0,1-8.26,4Q89.64,55.49,87.17,56.31Z"/><path class="cls-19" d="M77.4,81.62c-6.71.23-13-3.87-17.11-8.8A20.36,20.36,0,0,1,56,63.66c-.77-3.65-1.53-7.53-4.59-10a24.69,24.69,0,0,0-5.85-3.47c.92,1.78,2,3.47,2.76,5.32,2,4.68,2.4,9.84,4.68,14.44a2.91,2.91,0,0,1,.22.6,2.77,2.77,0,0,1,1.15,1.11c2.23,3.83,2.79,8.25,3.59,12.52.39,2.06,1.75,3,2.69,4.7a15.57,15.57,0,0,1,1.2,3.68A49,49,0,0,0,74.91,88.4,43.77,43.77,0,0,0,95.78,68.08C91.88,75.2,86.25,81.31,77.4,81.62Z"/><path class="cls-20" d="M77.4,81.62c-5.3.18-10.33-2.33-14.23-5.83a26.21,26.21,0,0,1-4,1.93c-.77.3-1.55.56-2.34.79.42,1.86.72,3.75,1.07,5.62.39,2.06,1.75,3,2.69,4.7a15.57,15.57,0,0,1,1.2,3.68A49,49,0,0,0,74.91,88.4,43.77,43.77,0,0,0,95.78,68.08C91.88,75.2,86.25,81.31,77.4,81.62Z"/><path class="cls-21" d="M98.15,29.42c-2.4,16.39-6,31.51-19.64,38.83h0c-9.18,4.9-9.85,13.59-20.72,15.22l.12.66c.39,2.06,1.75,3,2.69,4.7A24.38,24.38,0,0,1,62.16,94a2.68,2.68,0,0,1,.1.6A51.45,51.45,0,0,0,88.71,82.42,43.6,43.6,0,0,0,98.15,29.42Z"/><path class="cls-21" d="M79,68Z"/><path class="cls-21" d="M78.83,68.08l.11-.06Z"/><path class="cls-22" d="M89.5,70.21a23.55,23.55,0,0,0-.16-7.54,17.3,17.3,0,0,0-.91-3.08l-.77,1c.15.43.29.87.41,1.31a18,18,0,0,1,.06,8.17,37.52,37.52,0,0,1-2.48,7.24c-.21.5-.42,1-.61,1.5-.05-.38-.1-.75-.16-1.11a34,34,0,0,0-3.66-11.11l-.94.6A34.47,34.47,0,0,1,82,87.39c1.09-.68,2.16-1.41,3.22-2.19.06-.49.09-1,.11-1.48C86.54,79.14,88.83,74.91,89.5,70.21Z"/><path class="cls-22" d="M98.37,56.35a48.92,48.92,0,0,1,.46,9,42.92,42.92,0,0,1-.51,4.8,44.37,44.37,0,0,0,2.28-5.19,46,46,0,0,0-5.22-21.07c-.11.42-.23.84-.34,1.26A43.26,43.26,0,0,1,98.37,56.35Z"/><path class="cls-22" d="M64.35,91.7a20.44,20.44,0,0,1-1.68-1.8,12.87,12.87,0,0,1-1.74-3.35,27.88,27.88,0,0,1-1-3.52l-.55.14a27.64,27.64,0,0,0,.92,3.69,15.5,15.5,0,0,0,1.15,2.66l-.83-.68a11.77,11.77,0,0,1,1,2.71l1,.78a20.41,20.41,0,0,0,2.72,1.77c.79-.16,1.57-.35,2.35-.55A20.36,20.36,0,0,1,64.35,91.7Z"/><path class="cls-19" d="M78.51,68.25c-9.18,4.9-9.85,13.59-20.72,15.22l.12.66a4.46,4.46,0,0,0,.21.76,27,27,0,0,0,3-.68,16.81,16.81,0,0,0,5.25-2.45,33.51,33.51,0,0,0,3.93-3.4,73,73,0,0,1,7.32-7c2.49-1.88,5.2-3.44,7.67-5.34a20.2,20.2,0,0,0,6.11-7.26c3.44-7,5-14.63,5.65-22.35C94.51,50,90.21,62,78.51,68.25Z"/><path class="cls-19" d="M78.77,68.11l-.25.14Z"/><path class="cls-19" d="M79,68l0,0Z"/><path class="cls-19" d="M79,68l-.11.06Z"/><path class="cls-23" d="M82.07,68.29c-.26-.57-.55-1.13-.85-1.68l-.94.6c.25.6.48,1.2.69,1.81Z"/><path class="cls-23" d="M88.36,63.22c.3-.34.6-.69.88-1a19.3,19.3,0,0,0-.81-2.58l-.77,1c.15.43.29.87.41,1.31S88.28,62.78,88.36,63.22Z"/><path class="cls-23" d="M95.88,44.86c-.16-.33-.33-.67-.5-1-.11.42-.23.84-.34,1.26l.54,1.25C95.69,45.87,95.79,45.37,95.88,44.86Z"/><path class="cls-23" d="M60.26,84.43c-.12-.46-.24-.93-.35-1.4l-.55.14c.09.48.18.94.29,1.41C59.85,84.53,60.06,84.49,60.26,84.43Z"/><path class="cls-24" d="M62.31,79.54c-.05-.67-.09-4.82-.15-5.54a21.5,21.5,0,0,0-.5-3.19,33.4,33.4,0,0,1-.48-3.5c-.23-2.15,0-5.32-.23-8-.3-3.8-1-7.18-1.38-9.87-.33-2.43-.86-3.6-1.15-5.73-.25-1.76-.81-6.9-1-8-.47-2.43-.78-3.07-1.47-6.3-.37-1.74-.4-2.07-.73-3.91-.14-.77-1-5.11-1-5.63C54,18.27,53.53,18,53.08,16c-.63-2.67-1.5-3.36-2.19-5.49-.41-1.28-1.13-2.46-1.58-3.71a13.94,13.94,0,0,0-1.14-3.14,26.32,26.32,0,0,0-1.82-2c-.3-.3-.59-1.08-.92-.93-.53.3-1,1.61-1.43,1.24-.09-.08-.21.07-.37.26a1.89,1.89,0,0,1-.62.58.37.37,0,0,1-.43-.09c-1.07-1-1.48-.88-1.91,1.34l0,.12a6.55,6.55,0,0,1-.35.77l-.06.4a2.49,2.49,0,0,1,0,.72A3.71,3.71,0,0,1,40,7.2c0,.39-.05.77-.07,1.08-.05.82-.43-.06-.62-.07h0c0,.1-.06.21-.1.32v.08c-.32.46-.75,2.94-1,3.55-.05.12-.09.26-.13.39L38,13c0,.11,0,.22-.07.34a3.42,3.42,0,0,0,0,.45l0,.18c-.11,1.28-.07,2.89-.2,4.68-.17,2.46-.45,4.64-.56,7.52,0,2.17-.31,19.79-.28,22.61l26,45C62.79,87.14,62.79,86.11,62.31,79.54Z"/><path class="cls-25" d="M64.41,95.8c-.06-.16-.15-.36-.25-.56a.59.59,0,0,1,0-.08l0-.09L64,94.82l-.05-.12,0-.11,0-.06c0-3.49.22-6.88.12-10.12-.06-1.91-.34-3.64-.48-4.83-.06-.47.05-4-.12-5s-.9-1.52-1.05-2.84c-.37-3.23.3-4,0-7.85-.1-1.42-.1-4.08-.21-5.28-.29-3.14-1-4-1.51-6.84-.23-1.28-.81-2.75-1.06-4.26-.76-4.68,0-3.6-.9-7.73-.78-2.09-1.12-6-1.78-9a53.54,53.54,0,0,0-1.41-5.24c-.19-.6-.51-1-.66-1.69-.36-1.53-.48-3.64-.71-4.9a29.31,29.31,0,0,0-1.05-3.53,32.46,32.46,0,0,0-2.69-5.56c-.75-1-1.08-3.79-1.53-4.59-.58-1-1.28-1.94-2.24-2.07-.3,0-.61-.36-1-.12-.07,0-.21.17-.37.39s-.54.8-.65.78c-.44-.11-.92.43-1.27.35-.6-.14-1-.58-1.54-.48h0a1,1,0,0,0-.43.23l0,.06A8,8,0,0,0,40.92,6c-.22,1.19-.43,2.8-.54,4.21-.05.67-.48.73-.63,1.53a29.09,29.09,0,0,1-1,2.86c-.5,1.85-.09,1.72-.5,4.05a27.86,27.86,0,0,0-.51,6.64c-.55,3.78-.38,19.91-.37,24.14l-.58-1.24-.1-.22c0-2.82.42-19.63.38-21.8.11-2.88.41-5.06.59-7.52.21-2.76,0-5.09.59-6.45.26-.61.73-3.09,1.06-3.55,0-1.21.71.76.79-.34,0-.77.12-2,.19-2.58h0c.08-.73.43-1,.57-1.48l0-.12c.46-2.22.9-2.34,2-1.34a.41.41,0,0,0,.46.09,2.11,2.11,0,0,0,.66-.58c.17-.19.3-.34.39-.26.44.37,1-.94,1.53-1.24.35-.15.66.63,1,.93.68.63,1.33,1.3,1.94,2s.73,1.89,1.22,3.14,1.24,2.43,1.68,3.71c.74,2.13,1.67,2.82,2.33,5.49.49,2,1,2.24,1.15,3.79.06.52,1,4.86,1.11,5.63.35,1.84.38,2.17.77,3.91.74,3.23,1.08,3.87,1.58,6.3.23,1.13.83,6.27,1.09,8,.31,2.13.88,3.3,1.23,5.73.39,2.69,1.15,6.07,1.47,9.87.22,2.7,0,5.87.25,8a30.41,30.41,0,0,0,.51,3.5A19.86,19.86,0,0,1,63.85,74c.07.72.11,4.87.16,5.54C64.52,86.11,64.41,89.18,64.41,95.8Z"/><path class="cls-26" d="M60.48,84c-.14-2.46,0-4.47-.08-5.66a39.75,39.75,0,0,0,.09-4.13c-.08-2-.83-4.31-1.2-7.81-.15-1.35-.27-4.8-.38-5.55-.13-.91-.28-2.91-.41-3.76a33.31,33.31,0,0,1-1-4.9c-.34-2.63-.41-6-.8-7.95l-1.07-5c-.45-2.15-1.18-6.07-1.58-7.7-1.22-5-2.28-3.51-3.62-10.08A24.88,24.88,0,0,0,48.87,17c-.39-.78-1.52-.74-1.91-1.33-1-1.51-.92-3-1.85-3.2-.16,0-1.22.71-1.38.7a8.1,8.1,0,0,0-.86.13c-.85.19-.72,4.18-1.44,5.49-.52.94-1.56,2.71-1.6,2.82-.46,1.64,0,7-.35,9.25-.3,1.83-1.17,17.39-1.35,20.29l.39.84.21.44c.14-3.16,1.11-19.88,1.39-21.62.33-2.06-.19-3.87.24-5.38,0,0,.07-.61.51,0s.51-1.31.69-1.65.26-3.09.44-4c.46-2.32.92-2.17,1.3-2.26.13,0,.28-1.4.41-1.4s1-.67,1.16-.63c.88.23,1.1,1.76,2,3.18.44.66,1-.44,1.45.48.29.6,1.33,4.88,1.63,5.58,2,4.74,2.35,2,4.1,10.51l1.65,7.26c.8,3.9.89,8,1.46,12.13.12.87,1,4.77,1.17,5.67.38,2.64,0,4.32.33,7a22,22,0,0,1,.95,4.86,20.13,20.13,0,0,1,.42,4c0,.78-.11,1.87-.09,2.61s-.15,1.59-.2,3.24c0,1,.07,3,0,3.79l.63,1.37L61,88.31C60.94,87.42,60.56,85.39,60.48,84Z"/><path class="cls-27" d="M59,84h0l-.67-1.44c0-.12,0-.24,0-.35s0-.27-.05-.4v0c-.18-1.55.22-2.91.29-4.82a25.94,25.94,0,0,0-.3-4.14c-.12-.92-1.15-2.53-1.42-3.81-.18-.88,0-2.79-.13-4.32-.06-1.31-.34-2.17-.41-3.71,0-1.05-.1-1.68-.28-3.63,0,0-.31-3.67-.36-4-.17-1.28-.53-4.21-.71-5.31-.3-1.92-.76-2.4-1-4.17s-.33-4.3-.77-5.33c-.32-.72-.69-2-1-2.84s-.58-1.9-.85-2.76a5.16,5.16,0,0,0-.94-1.51c-.26-.41-.8-3.3-1.36-4.28-.29-.51-1-1.37-1.22-1.92-.81-1.82-.9-1.29-1.3-1.4-.13,0-1.26-1.59-1.37-1.56-.67.15-2.18,4.66-2.75,5.76-.41.78-.1,3.56-.45,4.81,0,.1-.75,4.89-.77,5-.38,1.4-.11,4.52-.4,6.45,0,0-1,9.07-1,9.11l-.26-.5-.26-.5s1-9,1-9,0-.09,0-.14c.32-2.1.09-5.38.5-6.92,0-.11.76-4.91.79-5,.38-1.39.11-4.3.57-5.18.64-1.23,1.06-6.29,1.8-6.46.14,0,1.14-1.28,1.26-1.21.7.37.93,3.28,1.89,4a3.07,3.07,0,0,1,1.82,1.81c.69,1.57,1.28,4.49,1.73,5.21a15.34,15.34,0,0,1,2.07,3.33,65.78,65.78,0,0,1,2.11,8.86c.26,1.47.21,3.06.38,4.57.29,2.6.73,5.06.93,7a32.43,32.43,0,0,0,.62,3.9c.71,3.73.37,4.06,1.11,8,.11.62,0,2.11.13,2.7.18.84.62.74.76,1.25s.73,4.5.86,5.43c.34,2.49-.71,6.79-.7,6.93C58.81,81.69,58.89,83,59,84Z"/><path class="cls-28" d="M57.47,80.77l-.55-1.19A2.24,2.24,0,0,1,57,78.5c.17-.34.66-.36.62-.88,0-.23,0-1.49,0-2a2.3,2.3,0,0,0-.53-1.17c-.12-.24-.28-1.08-.46-1.4s-.37-.13-.38-.21a5.09,5.09,0,0,1-.36-1.47c-.23-2.36-.47-7-.9-9.43,0,0,0-1.62-.06-2.92s-.27-3.33-.35-4.07c-.16-1.54-.6-3.25-.8-4.72s-.65-5-.82-6c-.22-1.33-.54-3.9-.87-5.13-.46-1.73-.71-1.67-1-2.83-.83-3.27-1.4-2.84-1.75-2.83-1,0-1.05-3.62-2-5.42-.46-.84-1,.29-1.42-.41-.84-1.43-1.09-2.16-1.27-1.78a23.53,23.53,0,0,0-1.11,3.43,16.7,16.7,0,0,0-.67,3.63c-.06.55,0,3-.09,3.53-.23,1.62-.7,2.88-.9,4.43-.31,2.36.07,15.95,0,16.08L40.92,55c.14-1,.25-12.69.43-13.41,0-.09.27-2.7.3-2.79a16.6,16.6,0,0,0,.63-3c.26-2.59.35-6.06.59-6.57s1-3.74,1.64-4.41,1.35,1.44,1.64,1.71.83-.73,1.36,0c.32.43.34,2.25,1.21,4.18.18.42.57-.14.84.3a14.53,14.53,0,0,1,.51,1.37c.45,1,1,2.19,1.29,3a20.13,20.13,0,0,1,.86,2.31c.28,1,.61,2.86.71,3.13.42,1.15.57,4.82.7,5.65.2,1.29.23,1.6.66,3.89.28,1.53.71,2.81.81,4,.09.92.17,3.62.19,5.32s.2,3.49.21,3.55c.39,2.24.45,5.6.62,7.41.08.89.3,1.22.38,1.21s.32.61.52.95.38.31.48.6a9.17,9.17,0,0,1,.4,1.84c.11.92.14,2.06.19,2.45A12.4,12.4,0,0,1,57.47,80.77Z"/><path class="cls-29" d="M55.84,80.25h0l-.31-.67a5,5,0,0,0,0-1.42c-.12-1.06-.14-1.66-.33-3C55.06,74.25,55,72,55,71c-.06-1.34-.19-3.43-.29-4a10.09,10.09,0,0,1-.56-2.29c-.08-.81,0-3.69-.19-5-.11-.9-.54-4-.61-4.54-.17-1.17-.58-1.29-.73-2.21-.2-1.17-.19-4.34-.48-5.42-.41-1.53-.73-3.69-1-4.71-.74-2.88-1.6-3.15-1.91-3.14-.87,0-.25-.93-1.12-2.51A18,18,0,0,1,47.58,35c-.17-.79-.67-1-1-1.21s-.66-.63-.72-.51c-.16.34-.68-.24-1.11.11a5,5,0,0,0-.73,1.9s-.29,3-.6,5.24-.65,3.62-.69,3.86c-.2,1.43-.06,4.48-.23,5.84,0,.31-.07,7.64-.08,8l-.31-.65c0-.3.17-8.65.19-9.81,0-1.41,0-2.7,0-3.43.1-1,.45-2.62.66-4.3.27-2.27.61-3.93.64-4.44.11-1.75.39-3.33,1-3.92s1.79.9,2,1.14.41-.58.69,0,.68,2.86.94,3.2.05,1.1.81,2.8c.16.37.44-.74.69-.35a15,15,0,0,1,.8,1.42c.4.92.85,2.74,1.1,3.44.33.89.55,2.72.79,3.63a21.86,21.86,0,0,1,.22,3.81c0,.61.39.94.48,1.53.2,1.23.45,2.42.52,2.92.18,1.14.29,3,.66,5,.25,1.35-.12,1.65,0,2.65.15,1.65.7,5,.71,5.14.35,2,.26,5.11.4,6.7a27.16,27.16,0,0,0,.4,3.54A6,6,0,0,1,55.84,80.25Z"/><path class="cls-30" d="M54.53,79.43l-.3-.66c0-.51,0-1,0-1.28,0-1.34-.17-3.44-.25-4a9.61,9.61,0,0,1-.5-2.29c-.08-.82.07-4.91-.08-6.25-.09-.9-.24-4.13-.31-4.64s-.49-1.72-.82-3.12c-.28-1.18-.48-2.7-.6-3.2-.37-1.52-.21-4.53-.44-5.55-.66-2.88-1.18-3.91-1.45-3.9-.5,0-.7-.79-1-1s-.42.67-.71.09a22.13,22.13,0,0,1-.47-2.2,10.51,10.51,0,0,0-.9-2.89c-.37-.33-.4-1.13-.45-1-.15.34-.64-.78-1-.43s-.72,4.18-.82,4.62c0,0-.26,3-.54,5.25s-.58,3.61-.61,3.86c-.11.89-.11,7.43-.12,8.79l-.27-.57c0-1.36,0-7.58,0-8.3.09-1,.4-2.61.59-4.3.24-2.27.54-3.92.57-4.43.1-1.76.4-5.16.95-5.76s1.47.59,1.69.84.46,1.55.71,2.18.61,2.85.84,3.2.33-1.09,1,.61c.15.36,1,.87,1.19,1.27s.61,1.62.77,2.05c.36.92.4,2.62.63,3.31.29.9-.06,2.78.16,3.7.1.41.24,1.92.48,2.93.29,1.21.68,1.93.73,2.25.18,1.23.51,4.49.58,5,.15,1.14-.21,4.76-.12,5.76.06.78.34,1.19.48,2.22s.15,2.86.16,2.91A40.15,40.15,0,0,1,54.53,79.43Z"/><path class="cls-31" d="M51,72.65l-.42-.85v0c0-.61-.07-1.5-.11-1.74a5.15,5.15,0,0,1-.23-1c0-.37,0-2.22,0-2.82,0-.41-.11-1.87-.14-2.1s-.22-.77-.37-1.4-.22-1.23-.27-1.45c-.17-.69-.1-2.05-.2-2.51-.3-1.3-.53-1.77-.66-1.76s-.31-.36-.45-.45-.15.18-.25.13,0,0-.07-.09a6.15,6.15,0,0,1-.2-.93l0-.06a1.14,1.14,0,0,0-.44-.67c-.17-.15-.3-.82-.32-.77s-.21-1.29-.38-1.13a23,23,0,0,0-.3,2.7s-.12,1.37-.24,2.37-.27,1.63-.28,1.74c0,.28,0,3.7,0,4.13l-.06-.13-.07-.14c0-.37,0-3.68,0-3.89,0-.44,0-2.18.11-2.94.11-1,.29-1.71.3-1.94a9.11,9.11,0,0,1,.56-2.77c.08-.09.15.38.27.65s.34,0,.4,0,.33.92.44,1.2.12,1.19.2,1.53.2,0,.24.09,0-.9.24-.3c0,0,.3.52.31.56s.37.28.46.46.26.94.34,1.13c.16.42.28,1.55.38,1.87s-.23,1.21-.13,1.62c0,.19.16.44.27.9s.31.5.33.64c.08.56.37,2.45.4,2.68.07.51,0,1.25,0,1.71s.17,1.5.23,2a14.31,14.31,0,0,1,.07,1.45C50.93,70.77,50.94,72.09,51,72.65Z"/><path class="cls-32" d="M49.82,71.24l-.2-.43-.06-.14c0-.17,0-.35,0-.53,0-.55,0-1,0-1.24s-.08-1.38-.11-1.55-.16-.58-.27-1-.16-.9-.2-1.07A17.35,17.35,0,0,1,48.82,63a4.37,4.37,0,0,0-.37-1.86,2,2,0,0,1-.65-.4c0-.26-.47-.57-.57-.66s-.13-.38-.15-.34-.26-.47-.39-.35-.13.94-.19,1a21.17,21.17,0,0,0-.22,2.56c0,.2-.05,1.39-.07,1.54l-.12-.25c0-.15,0-1.3.06-1.46.08-.76.08-1.53.09-1.7a17.57,17.57,0,0,1,.39-3.19c.06-.06.16-.09.25.11s.25.63.3.68.26.74.34,1,.22-.1.36.17.78.44.85.58A14.22,14.22,0,0,1,48.92,62a7.56,7.56,0,0,0,.25,1.73c.1.3,0,.93.06,1.24,0,.14.41,1.75.43,1.85.06.41.07,1.67.1,1.84s.05.92.07,1.56C49.84,70.63,49.79,71,49.82,71.24Z"/><path class="cls-33" d="M49.2,69.89,49,69.54C49,69.28,49,69,49,69a2.22,2.22,0,0,0-.13-.41c0-.15-.21-.27-.28-.6s-.12-.63-.14-.75c-.09-.36-.05-1.06-.11-1.3-.15-.68-.06-1.41-.13-1.41s-.19-1-.39-1.14c0-.18-.25,0-.32-.09s-.18.27-.2.3-.18-.15-.27-.07a4.86,4.86,0,0,0-.15.89s-.06-.08-.09.23l-.12-.25c0-.27,0-.48,0-.54a3.4,3.4,0,0,1,.27-1.27c0-.05.12-.16.18,0s.23-.27.26-.24.31,0,.37.17.24.08.34.27.31,1.19.36,1.28,0,.76,0,.87,0,.88.09,1,0,.65,0,.87.14.1.19.34.18.78.2.86c0,.29.15,1,.17,1.12S49.18,69.55,49.2,69.89Z"/><path class="cls-34" d="M62.88,92.49l-.59-1.28c0-.54.23-.56.34-1.28a13.32,13.32,0,0,0,0-2.62c-.18-1.61-1-2.67-1.24-5-.08-.82.06-5.44-.12-7.79-.13-1.59-.58-4.81-.64-5.36-.19-1.72.27-5,.13-6.78-.26-3.26-.83-3-1.27-5.56-.23-1.28-.82-2.74-1.06-4.26-.76-4.68,0-3.59-.9-7.73-.79-2.09-1.12-6-1.78-9-.43-2-.9-3.65-1.41-5.24-.19-.6-.51-1-.66-1.69-.36-1.54-.48-3.65-.71-4.9a28.78,28.78,0,0,0-1-3.53A32.1,32.1,0,0,0,49.2,14.9c-.76-1-.9-.07-1.36-.87-.57-1-.32-1.93-1.28-2.07-.22,0-1.2-2-1.45-2-.09,0-.55-.18-.65-.12-.07.28-.53-.85-.67-.92-.15.21-.28.38-.35.36-.33-.08-.68.2-1,.31-.3,1.11-.54.46-.69,2.36a16.5,16.5,0,0,1-1.13,3.73,50.93,50.93,0,0,0-1.13,5.26c-.38,1.64-.24,5.46-.52,7.48-.15,1-.32,2.81-.37,3.92-.11,2.29-.39,15.5-.37,17.91l-.51-1.08c0-2.56.38-17.4.34-19.56.06-1.59.43-2.57.46-3.9,0-1.86.06-2.74.19-4.13A11.48,11.48,0,0,1,39.49,18c.26-.61.77-4.24,1.1-4.7,0-1.2.63-.54.7-1.65.06-.77.28-.72.34-1.28,0-.37.18-.87.14-.88a7.66,7.66,0,0,1,.41-1.58.88.88,0,0,0,.31-.15c.3-.95.65-1.11,1.23-.76a3.59,3.59,0,0,0,.55-.63,2.22,2.22,0,0,1,.58-.57l.08,0c.32,0,.6.68.9,1l.26.25c.58.55,1.15,1.14,1.68,1.74s.73,1.9,1.22,3.14,1.24,2.44,1.68,3.71c.73,2.13,1.67,2.83,2.33,5.5A29.77,29.77,0,0,1,53.59,26c.06.52.87,2.41,1,3.17C55,31,55.64,32.66,56,34.4c.74,3.24,1.08,3.87,1.57,6.3.23,1.14.84,6.27,1.1,8,.31,2.13.88,3.3,1.23,5.73.41,2.83,1,3.72,1.32,7.69.21,2.51.17,8.2.4,10.2.3,2.58-.13,4.52.1,7.39,0,.49.31,3,.48,3.67.28,1.1.75,3.87.82,4.66a14.68,14.68,0,0,1,.14,3C63.14,91.7,63,92.5,62.88,92.49Z"/><path class="cls-35" d="M52.77,76.61c0-.75,0-1.53,0-2.19,0-1.63-.12-4.14-.3-5.37a51.7,51.7,0,0,1-.29-5.61c0-1.86-1-1.74-1.23-3.88a32,32,0,0,1-.36-3.63c0-1.09.18-2.21.12-2.8a12.75,12.75,0,0,0,.19-2.29c0-.55-.64-.8-.8-1.36-.33-1.11-.76-.74-1.11-1.23-.57-.78-.95-1.68-1.3-1.49s-.88-.47-1-2.57c-.06-.82,0-1.69-.05-2.3-.2-1.46-.77-.82-.81-.87a8.81,8.81,0,0,0-1,3.88c-.08.8-.06,1.39-.22,3.61,0,.46-.29,2.1-.32,2.61-.1,1.92-.08,4.65-.18,5.34,0,.3-.12.61-.2.93l0,3-.39-.84c.1-.5.18-4,.25-4.45s.05-2.79.15-4.22c.2-2.81.53-5.44.65-6.56a10.65,10.65,0,0,1,1.23-4.45c.72-.62,1.14,1,1.26,2,0,0,0,.52,0,1.23a7.84,7.84,0,0,0,.36,2.18c.24.84.68.68.8.64.21.3.86.32,1,.6.39.57,1.07.77,1.35,2.3.22,1.26,1.09.49.48,4.22a17.37,17.37,0,0,0-.16,3.19c0,.87.23,1.68.3,2.28.25,2.14,1.05-.38,1.1,1.17,0,.73.53,2.81.53,3.54a58.39,58.39,0,0,0,.12,6.22c.26,2.27.21,5.55.31,8.13Z"/><path class="cls-36" d="M52.45,75.93l-.38-.81c0-.48-.06-.91-.11-1.24a51.3,51.3,0,0,1-.25-5.31,44.74,44.74,0,0,0-.62-5.09,22.66,22.66,0,0,1-.8-3.54,27.68,27.68,0,0,0-.4-3.61c-.41-2.32-.52-.37-.55-1.39,0-.43.11-2.63-.46-3-.18-.12-1.14-.05-1.25-2,0-.78-.68.38-.75-.19-.18-1.38-.66-.89-.69-.94s-.37.35-.47,1.1-.37,0-.48,1.18c-.07.76-.05,1.32-.19,3.42,0,.44-.25,2-.27,2.46,0,.7-.06,4.5-.07,5.27l-.33-.72c0-.62,0-4.27.06-4.8.17-2.66.46-5.14.57-6.2a11.64,11.64,0,0,1,.57-2.71c.23-.22.31-2.82.53-1.73a9.25,9.25,0,0,0,1,2.16s.86-.24.88.43c0,1,.44.73.56,1.2.21.8.6.65.7.6.18.28.57-.32.8,1.12.09.54-.12,1.24-.05,2,.08.94.44,2,.49,2.83,0,.49,0,2.86.15,3.81.06.49.7,2,.77,2.52.22,2,.34.86.38,2.33,0,.68.47,2.65.46,3.34.13.4-.23,2.55.11,5.88C52.38,74.77,52.42,75.33,52.45,75.93Z"/></svg>