<svg xmlns="http://www.w3.org/2000/svg" xmlns:xlink="http://www.w3.org/1999/xlink" viewBox="0 0 146 32"><defs><style>.cls-1{isolation:isolate;}.cls-2{opacity:0.2;mix-blend-mode:multiply;}.cls-3{fill:#f76800;}.cls-4{fill:url(#linear-gradient);}.cls-5{fill:url(#linear-gradient-2);}.cls-6{fill:#fe8e3d;}.cls-7{fill:url(#radial-gradient);}.cls-8{fill:url(#radial-gradient-2);}.cls-9{opacity:0.5;}.cls-10{fill:url(#radial-gradient-3);}.cls-11{fill:url(#radial-gradient-4);}.cls-12{fill:url(#radial-gradient-5);}.cls-13{fill:url(#radial-gradient-6);}.cls-14{fill:url(#radial-gradient-7);}.cls-15{fill:url(#radial-gradient-8);}.cls-16{fill:url(#radial-gradient-9);}.cls-17{fill:url(#radial-gradient-10);}.cls-18{fill:url(#radial-gradient-11);}.cls-19{fill:url(#radial-gradient-12);}.cls-20{fill:url(#radial-gradient-13);}.cls-21{fill:url(#radial-gradient-14);}.cls-22{fill:url(#radial-gradient-15);}.cls-23{fill:url(#radial-gradient-16);}.cls-24{fill:url(#radial-gradient-17);}.cls-25{fill:url(#radial-gradient-18);}.cls-26{fill:url(#linear-gradient-3);}.cls-27{fill:url(#linear-gradient-4);}.cls-28{fill:url(#radial-gradient-19);}.cls-29{fill:url(#radial-gradient-20);}.cls-30{fill:url(#radial-gradient-21);}.cls-31{fill:url(#radial-gradient-22);}.cls-32{fill:url(#radial-gradient-23);}.cls-33{fill:url(#radial-gradient-24);}.cls-34{fill:url(#radial-gradient-25);}.cls-35{fill:url(#radial-gradient-26);}.cls-36{fill:url(#radial-gradient-27);}.cls-37{fill:url(#radial-gradient-28);}.cls-38{fill:url(#radial-gradient-29);}.cls-39{fill:url(#radial-gradient-30);}.cls-40{fill:url(#radial-gradient-31);}.cls-41{fill:url(#radial-gradient-32);}.cls-42{fill:url(#radial-gradient-33);}.cls-43{fill:url(#radial-gradient-34);}.cls-44{fill:url(#radial-gradient-35);}.cls-45{fill:url(#radial-gradient-36);}.cls-46{fill:url(#linear-gradient-5);}.cls-47{fill:url(#linear-gradient-6);}.cls-48{fill:url(#radial-gradient-37);}.cls-49{fill:url(#radial-gradient-38);}.cls-50{fill:url(#radial-gradient-39);}.cls-51{fill:url(#radial-gradient-40);}.cls-52{fill:url(#radial-gradient-41);}.cls-53{fill:url(#radial-gradient-42);}.cls-54{fill:url(#radial-gradient-43);}.cls-55{fill:url(#radial-gradient-44);}.cls-56{fill:url(#radial-gradient-45);}.cls-57{fill:url(#radial-gradient-46);}.cls-58{fill:url(#radial-gradient-47);}.cls-59{fill:url(#radial-gradient-48);}.cls-60{fill:url(#radial-gradient-49);}.cls-61{fill:url(#radial-gradient-50);}.cls-62{fill:url(#radial-gradient-51);}.cls-63{fill:url(#radial-gradient-52);}.cls-64{fill:url(#radial-gradient-53);}.cls-65{fill:url(#radial-gradient-54);}.cls-66{opacity:0.1;}.cls-67{fill:url(#linear-gradient-7);}.cls-68{fill:url(#linear-gradient-8);}.cls-69{fill:url(#radial-gradient-55);}.cls-70{fill:url(#radial-gradient-56);}.cls-71{fill:url(#radial-gradient-57);}.cls-72{fill:url(#radial-gradient-58);}.cls-73{fill:url(#radial-gradient-59);}.cls-74{fill:url(#radial-gradient-60);}.cls-75{fill:url(#radial-gradient-61);}.cls-76{fill:url(#radial-gradient-62);}.cls-77{fill:url(#radial-gradient-63);}.cls-78{fill:url(#radial-gradient-64);}.cls-79{fill:url(#radial-gradient-65);}.cls-80{fill:url(#radial-gradient-66);}.cls-81{fill:url(#radial-gradient-67);}.cls-82{fill:url(#radial-gradient-68);}.cls-83{fill:url(#radial-gradient-69);}.cls-84{fill:url(#radial-gradient-70);}.cls-85{fill:url(#radial-gradient-71);}.cls-86{fill:url(#radial-gradient-72);}.cls-87{fill:url(#linear-gradient-9);}.cls-88{fill:url(#linear-gradient-10);}.cls-89{fill:url(#radial-gradient-73);}.cls-90{fill:url(#radial-gradient-74);}.cls-91{fill:url(#radial-gradient-75);}.cls-92{fill:url(#radial-gradient-76);}.cls-93{fill:url(#radial-gradient-77);}.cls-94{fill:url(#radial-gradient-78);}.cls-95{fill:url(#radial-gradient-79);}.cls-96{fill:url(#radial-gradient-80);}.cls-97{fill:url(#radial-gradient-81);}.cls-98{fill:url(#radial-gradient-82);}.cls-99{fill:url(#radial-gradient-83);}.cls-100{fill:url(#radial-gradient-84);}.cls-101{fill:url(#radial-gradient-85);}.cls-102{fill:url(#radial-gradient-86);}.cls-103{fill:url(#radial-gradient-87);}.cls-104{fill:url(#radial-gradient-88);}.cls-105{fill:url(#radial-gradient-89);}.cls-106{fill:url(#radial-gradient-90);}.cls-107{fill:url(#linear-gradient-11);}.cls-108{fill:url(#linear-gradient-12);}.cls-109{fill:url(#radial-gradient-91);}.cls-110{fill:url(#radial-gradient-92);}.cls-111{fill:url(#radial-gradient-93);}.cls-112{fill:url(#radial-gradient-94);}.cls-113{fill:url(#radial-gradient-95);}.cls-114{fill:url(#radial-gradient-96);}.cls-115{fill:url(#radial-gradient-97);}.cls-116{fill:url(#radial-gradient-98);}.cls-117{fill:url(#radial-gradient-99);}.cls-118{fill:url(#radial-gradient-100);}.cls-119{fill:url(#radial-gradient-101);}.cls-120{fill:url(#radial-gradient-102);}.cls-121{fill:url(#radial-gradient-103);}.cls-122{fill:url(#radial-gradient-104);}.cls-123{fill:url(#radial-gradient-105);}.cls-124{fill:url(#radial-gradient-106);}.cls-125{fill:url(#radial-gradient-107);}.cls-126{fill:url(#radial-gradient-108);}.cls-127{fill:url(#linear-gradient-13);}.cls-128{fill:url(#linear-gradient-14);}.cls-129{fill:url(#radial-gradient-109);}.cls-130{fill:url(#radial-gradient-110);}.cls-131{fill:url(#radial-gradient-111);}.cls-132{fill:url(#radial-gradient-112);}.cls-133{fill:url(#radial-gradient-113);}.cls-134{fill:url(#radial-gradient-114);}.cls-135{fill:url(#radial-gradient-115);}.cls-136{fill:url(#radial-gradient-116);}.cls-137{fill:url(#radial-gradient-117);}.cls-138{fill:url(#radial-gradient-118);}.cls-139{fill:url(#radial-gradient-119);}.cls-140{fill:url(#radial-gradient-120);}.cls-141{fill:url(#radial-gradient-121);}.cls-142{fill:url(#radial-gradient-122);}.cls-143{fill:url(#radial-gradient-123);}.cls-144{fill:url(#radial-gradient-124);}.cls-145{fill:url(#radial-gradient-125);}.cls-146{fill:url(#radial-gradient-126);}.cls-147{fill:url(#linear-gradient-15);}.cls-148{fill:url(#linear-gradient-16);}.cls-149{fill:url(#radial-gradient-127);}.cls-150{fill:url(#radial-gradient-128);}.cls-151{fill:url(#radial-gradient-129);}.cls-152{fill:url(#radial-gradient-130);}.cls-153{fill:url(#radial-gradient-131);}.cls-154{fill:url(#radial-gradient-132);}.cls-155{fill:url(#radial-gradient-133);}.cls-156{fill:url(#radial-gradient-134);}.cls-157{fill:url(#radial-gradient-135);}.cls-158{fill:url(#radial-gradient-136);}.cls-159{fill:url(#radial-gradient-137);}.cls-160{fill:url(#radial-gradient-138);}.cls-161{fill:url(#radial-gradient-139);}.cls-162{fill:url(#radial-gradient-140);}.cls-163{fill:url(#radial-gradient-141);}.cls-164{fill:url(#radial-gradient-142);}.cls-165{fill:url(#radial-gradient-143);}.cls-166{fill:url(#radial-gradient-144);}.cls-167{fill:url(#linear-gradient-17);}.cls-168{fill:url(#linear-gradient-18);}.cls-169{fill:url(#radial-gradient-145);}.cls-170{fill:url(#radial-gradient-146);}.cls-171{fill:url(#radial-gradient-147);}.cls-172{fill:url(#radial-gradient-148);}.cls-173{fill:url(#radial-gradient-149);}.cls-174{fill:url(#radial-gradient-150);}.cls-175{fill:url(#radial-gradient-151);}.cls-176{fill:url(#radial-gradient-152);}.cls-177{fill:url(#radial-gradient-153);}.cls-178{fill:url(#radial-gradient-154);}.cls-179{fill:url(#radial-gradient-155);}.cls-180{fill:url(#radial-gradient-156);}.cls-181{fill:url(#radial-gradient-157);}.cls-182{fill:url(#radial-gradient-158);}.cls-183{fill:url(#radial-gradient-159);}.cls-184{fill:url(#radial-gradient-160);}.cls-185{fill:url(#radial-gradient-161);}.cls-186{fill:url(#radial-gradient-162);}.cls-187{fill:#e86003;}.cls-188{fill:#ff7415;}.cls-189{fill:#e65c00;}.cls-190{fill:#d89030;}.cls-191{fill:#cc5100;}.cls-192{fill:#63ad00;}.cls-193{fill:url(#radial-gradient-163);}.cls-194{fill:url(#radial-gradient-164);}.cls-195{fill:url(#radial-gradient-165);}.cls-196{fill:url(#radial-gradient-166);}.cls-197{fill:url(#radial-gradient-167);}.cls-198{fill:url(#radial-gradient-168);}.cls-199{fill:url(#radial-gradient-169);}.cls-200{fill:url(#radial-gradient-170);}.cls-201{fill:url(#radial-gradient-171);}.cls-202{fill:url(#radial-gradient-172);}.cls-203{fill:url(#radial-gradient-173);}.cls-204{fill:url(#radial-gradient-174);}.cls-205{fill:url(#radial-gradient-175);}.cls-206{fill:url(#radial-gradient-176);}.cls-207{fill:url(#radial-gradient-177);}.cls-208{fill:url(#radial-gradient-178);}.cls-209{fill:url(#radial-gradient-179);}.cls-210{fill:url(#radial-gradient-180);}</style><linearGradient id="linear-gradient" x1="910.48" y1="-4287.13" x2="948.88" y2="-4287.49" gradientTransform="translate(1009.8 -4262.52) rotate(180)" gradientUnits="userSpaceOnUse"><stop offset="0" stop-color="#f76800"/><stop offset="0.61" stop-color="#f56700"/><stop offset="0.87" stop-color="#ee6100"/><stop offset="1" stop-color="#e65c00"/></linearGradient><linearGradient id="linear-gradient-2" x1="909.36" y1="-4287.4" x2="938.04" y2="-4287.58" gradientTransform="translate(1009.8 -4262.52) rotate(180)" gradientUnits="userSpaceOnUse"><stop offset="0" stop-color="#ff984d"/><stop offset="0.06" stop-color="#fe9345"/><stop offset="0.3" stop-color="#fb8027"/><stop offset="0.55" stop-color="#f97311"/><stop offset="0.78" stop-color="#f76b04"/><stop offset="1" stop-color="#f76800"/></linearGradient><radialGradient id="radial-gradient" cx="80.22" cy="6519.38" r="10.84" gradientTransform="translate(0.28 -1200.64) scale(1 0.19)" gradientUnits="userSpaceOnUse"><stop offset="0.72" stop-color="#fe9c56"/><stop offset="0.78" stop-color="#fe9850"/><stop offset="0.87" stop-color="#fe8e3e"/><stop offset="0.98" stop-color="#fe7e21"/><stop offset="1" stop-color="#fe7919"/></radialGradient><radialGradient id="radial-gradient-2" cx="80.35" cy="6519.4" r="4.58" gradientTransform="translate(0.28 -1200.64) scale(1 0.19)" gradientUnits="userSpaceOnUse"><stop offset="0.01" stop-color="#f76800"/><stop offset="0.37" stop-color="#f76902"/><stop offset="0.55" stop-color="#f86e0a"/><stop offset="0.7" stop-color="#f97618"/><stop offset="0.82" stop-color="#fa822b"/><stop offset="0.93" stop-color="#fc9143"/><stop offset="1" stop-color="#fe9c56"/></radialGradient><radialGradient id="radial-gradient-3" cx="80.38" cy="6519.25" r="9.13" gradientTransform="translate(0.28 -1200.64) scale(1 0.19)" gradientUnits="userSpaceOnUse"><stop offset="0.25" stop-color="#ff7e21"/><stop offset="0.28" stop-color="#ff8228"/><stop offset="0.38" stop-color="#ff9142"/><stop offset="0.49" stop-color="#fe9c57"/><stop offset="0.61" stop-color="#fea565"/><stop offset="0.76" stop-color="#feaa6d"/><stop offset="1" stop-color="#feab70"/></radialGradient><radialGradient id="radial-gradient-4" cx="80.38" cy="6519.25" r="9.13" xlink:href="#radial-gradient-3"/><radialGradient id="radial-gradient-5" cx="80.38" cy="6519.25" r="9.13" xlink:href="#radial-gradient-3"/><radialGradient id="radial-gradient-6" cx="80.38" cy="6519.25" r="9.13" xlink:href="#radial-gradient-3"/><radialGradient id="radial-gradient-7" cx="80.38" cy="6519.25" r="9.13" xlink:href="#radial-gradient-3"/><radialGradient id="radial-gradient-8" cx="80.38" cy="6519.25" r="9.13" xlink:href="#radial-gradient-3"/><radialGradient id="radial-gradient-9" cx="80.38" cy="6519.25" r="9.13" xlink:href="#radial-gradient-3"/><radialGradient id="radial-gradient-10" cx="80.38" cy="6519.25" r="9.13" xlink:href="#radial-gradient-3"/><radialGradient id="radial-gradient-11" cx="80.38" cy="6519.25" r="9.13" xlink:href="#radial-gradient-3"/><radialGradient id="radial-gradient-12" cx="80.38" cy="6519.25" r="9.13" xlink:href="#radial-gradient-3"/><radialGradient id="radial-gradient-13" cx="80.38" cy="6519.25" r="9.13" xlink:href="#radial-gradient-3"/><radialGradient id="radial-gradient-14" cx="80.38" cy="6519.25" r="9.13" xlink:href="#radial-gradient-3"/><radialGradient id="radial-gradient-15" cx="80.38" cy="6519.25" r="9.13" xlink:href="#radial-gradient-3"/><radialGradient id="radial-gradient-16" cx="80.38" cy="6519.25" r="9.13" xlink:href="#radial-gradient-3"/><radialGradient id="radial-gradient-17" cx="80.38" cy="6519.25" r="9.13" xlink:href="#radial-gradient-3"/><radialGradient id="radial-gradient-18" cx="80.38" cy="6519.25" r="9.13" xlink:href="#radial-gradient-3"/><linearGradient id="linear-gradient-3" x1="913.29" y1="-4283.28" x2="951.69" y2="-4283.64" xlink:href="#linear-gradient"/><linearGradient id="linear-gradient-4" x1="912.17" y1="-4283.55" x2="940.84" y2="-4283.73" xlink:href="#linear-gradient-2"/><radialGradient id="radial-gradient-19" cx="77.41" cy="6498.86" r="10.84" xlink:href="#radial-gradient"/><radialGradient id="radial-gradient-20" cx="77.54" cy="6498.88" r="4.58" xlink:href="#radial-gradient-2"/><radialGradient id="radial-gradient-21" cx="77.57" cy="6498.72" r="9.13" xlink:href="#radial-gradient-3"/><radialGradient id="radial-gradient-22" cx="77.57" cy="6498.72" r="9.13" xlink:href="#radial-gradient-3"/><radialGradient id="radial-gradient-23" cx="77.57" cy="6498.72" r="9.13" xlink:href="#radial-gradient-3"/><radialGradient id="radial-gradient-24" cx="77.57" cy="6498.72" r="9.13" xlink:href="#radial-gradient-3"/><radialGradient id="radial-gradient-25" cx="77.57" cy="6498.72" r="9.13" xlink:href="#radial-gradient-3"/><radialGradient id="radial-gradient-26" cx="77.57" cy="6498.72" r="9.13" xlink:href="#radial-gradient-3"/><radialGradient id="radial-gradient-27" cx="77.57" cy="6498.72" r="9.13" xlink:href="#radial-gradient-3"/><radialGradient id="radial-gradient-28" cx="77.57" cy="6498.72" r="9.13" xlink:href="#radial-gradient-3"/><radialGradient id="radial-gradient-29" cx="77.57" cy="6498.72" r="9.13" xlink:href="#radial-gradient-3"/><radialGradient id="radial-gradient-30" cx="77.57" cy="6498.72" r="9.13" xlink:href="#radial-gradient-3"/><radialGradient id="radial-gradient-31" cx="77.57" cy="6498.72" r="9.13" xlink:href="#radial-gradient-3"/><radialGradient id="radial-gradient-32" cx="77.57" cy="6498.72" r="9.13" xlink:href="#radial-gradient-3"/><radialGradient id="radial-gradient-33" cx="77.57" cy="6498.72" r="9.13" xlink:href="#radial-gradient-3"/><radialGradient id="radial-gradient-34" cx="77.57" cy="6498.72" r="9.13" xlink:href="#radial-gradient-3"/><radialGradient id="radial-gradient-35" cx="77.57" cy="6498.72" r="9.13" xlink:href="#radial-gradient-3"/><radialGradient id="radial-gradient-36" cx="77.57" cy="6498.72" r="9.13" xlink:href="#radial-gradient-3"/><linearGradient id="linear-gradient-5" x1="2462.52" y1="-3983.7" x2="2498.74" y2="-3984.04" gradientTransform="translate(-431.88 -4647.69) rotate(142.04)" xlink:href="#linear-gradient"/><linearGradient id="linear-gradient-6" x1="2462.75" y1="-3986.66" x2="2489.08" y2="-3986.83" gradientTransform="translate(-431.88 -4647.69) rotate(142.04)" xlink:href="#linear-gradient-2"/><radialGradient id="radial-gradient-37" cx="-1690.79" cy="5085.34" r="10.84" gradientTransform="matrix(0.79, -0.44, 0.16, 0.15, 567.44, -1471.87)" xlink:href="#radial-gradient"/><radialGradient id="radial-gradient-38" cx="-1690.67" cy="5085.36" r="4.58" gradientTransform="matrix(0.79, -0.44, 0.16, 0.15, 567.44, -1471.87)" xlink:href="#radial-gradient-2"/><radialGradient id="radial-gradient-39" cx="-1690.64" cy="5085.21" r="9.13" gradientTransform="matrix(0.79, -0.44, 0.16, 0.15, 567.44, -1471.87)" xlink:href="#radial-gradient-3"/><radialGradient id="radial-gradient-40" cx="-1690.64" cy="5085.21" r="9.13" gradientTransform="matrix(0.79, -0.44, 0.16, 0.15, 567.44, -1471.87)" xlink:href="#radial-gradient-3"/><radialGradient id="radial-gradient-41" cx="-1690.64" cy="5085.21" r="9.13" gradientTransform="matrix(0.79, -0.44, 0.16, 0.15, 567.44, -1471.87)" xlink:href="#radial-gradient-3"/><radialGradient id="radial-gradient-42" cx="-1690.64" cy="5085.21" r="9.13" gradientTransform="matrix(0.79, -0.44, 0.16, 0.15, 567.44, -1471.87)" xlink:href="#radial-gradient-3"/><radialGradient id="radial-gradient-43" cx="-1690.64" cy="5085.21" r="9.13" gradientTransform="matrix(0.79, -0.44, 0.16, 0.15, 567.44, -1471.87)" xlink:href="#radial-gradient-3"/><radialGradient id="radial-gradient-44" cx="-1690.64" cy="5085.21" r="9.13" gradientTransform="matrix(0.79, -0.44, 0.16, 0.15, 567.44, -1471.87)" xlink:href="#radial-gradient-3"/><radialGradient id="radial-gradient-45" cx="-1690.64" cy="5085.21" r="9.13" gradientTransform="matrix(0.79, -0.44, 0.16, 0.15, 567.44, -1471.87)" xlink:href="#radial-gradient-3"/><radialGradient id="radial-gradient-46" cx="-1690.64" cy="5085.21" r="9.13" gradientTransform="matrix(0.79, -0.44, 0.16, 0.15, 567.44, -1471.87)" xlink:href="#radial-gradient-3"/><radialGradient id="radial-gradient-47" cx="-1690.64" cy="5085.21" r="9.13" gradientTransform="matrix(0.79, -0.44, 0.16, 0.15, 567.44, -1471.87)" xlink:href="#radial-gradient-3"/><radialGradient id="radial-gradient-48" cx="-1690.64" cy="5085.21" r="9.13" gradientTransform="matrix(0.79, -0.44, 0.16, 0.15, 567.44, -1471.87)" xlink:href="#radial-gradient-3"/><radialGradient id="radial-gradient-49" cx="-1690.64" cy="5085.21" r="9.13" gradientTransform="matrix(0.79, -0.44, 0.16, 0.15, 567.44, -1471.87)" xlink:href="#radial-gradient-3"/><radialGradient id="radial-gradient-50" cx="-1690.64" cy="5085.21" r="9.13" gradientTransform="matrix(0.79, -0.44, 0.16, 0.15, 567.44, -1471.87)" xlink:href="#radial-gradient-3"/><radialGradient id="radial-gradient-51" cx="-1690.64" cy="5085.21" r="9.13" gradientTransform="matrix(0.79, -0.44, 0.16, 0.15, 567.44, -1471.87)" xlink:href="#radial-gradient-3"/><radialGradient id="radial-gradient-52" cx="-1690.64" cy="5085.21" r="9.13" gradientTransform="matrix(0.79, -0.44, 0.16, 0.15, 567.44, -1471.87)" xlink:href="#radial-gradient-3"/><radialGradient id="radial-gradient-53" cx="-1690.64" cy="5085.21" r="9.13" gradientTransform="matrix(0.79, -0.44, 0.16, 0.15, 567.44, -1471.87)" xlink:href="#radial-gradient-3"/><radialGradient id="radial-gradient-54" cx="-1690.64" cy="5085.21" r="9.13" gradientTransform="matrix(0.79, -0.44, 0.16, 0.15, 567.44, -1471.87)" xlink:href="#radial-gradient-3"/><linearGradient id="linear-gradient-7" x1="2469.17" y1="-3978.51" x2="2505.39" y2="-3978.85" gradientTransform="translate(-431.88 -4647.69) rotate(142.04)" xlink:href="#linear-gradient"/><linearGradient id="linear-gradient-8" x1="2469.39" y1="-3981.47" x2="2495.73" y2="-3981.64" gradientTransform="translate(-431.88 -4647.69) rotate(142.04)" xlink:href="#linear-gradient-2"/><radialGradient id="radial-gradient-55" cx="-1697.45" cy="5065.69" r="10.84" gradientTransform="matrix(0.79, -0.44, 0.16, 0.15, 567.44, -1471.87)" xlink:href="#radial-gradient"/><radialGradient id="radial-gradient-56" cx="-1697.32" cy="5065.72" r="4.58" gradientTransform="matrix(0.79, -0.44, 0.16, 0.15, 567.44, -1471.87)" xlink:href="#radial-gradient-2"/><radialGradient id="radial-gradient-57" cx="-1697.29" cy="5065.56" r="9.13" gradientTransform="matrix(0.79, -0.44, 0.16, 0.15, 567.44, -1471.87)" xlink:href="#radial-gradient-3"/><radialGradient id="radial-gradient-58" cx="-1697.29" cy="5065.56" r="9.13" gradientTransform="matrix(0.79, -0.44, 0.16, 0.15, 567.44, -1471.87)" xlink:href="#radial-gradient-3"/><radialGradient id="radial-gradient-59" cx="-1697.29" cy="5065.56" r="9.13" gradientTransform="matrix(0.79, -0.44, 0.16, 0.15, 567.44, -1471.87)" xlink:href="#radial-gradient-3"/><radialGradient id="radial-gradient-60" cx="-1697.29" cy="5065.56" r="9.13" gradientTransform="matrix(0.79, -0.44, 0.16, 0.15, 567.44, -1471.87)" xlink:href="#radial-gradient-3"/><radialGradient id="radial-gradient-61" cx="-1697.29" cy="5065.56" r="9.13" gradientTransform="matrix(0.79, -0.44, 0.16, 0.15, 567.44, -1471.87)" xlink:href="#radial-gradient-3"/><radialGradient id="radial-gradient-62" cx="-1697.29" cy="5065.56" r="9.13" gradientTransform="matrix(0.79, -0.44, 0.16, 0.15, 567.44, -1471.87)" xlink:href="#radial-gradient-3"/><radialGradient id="radial-gradient-63" cx="-1697.29" cy="5065.56" r="9.13" gradientTransform="matrix(0.79, -0.44, 0.16, 0.15, 567.44, -1471.87)" xlink:href="#radial-gradient-3"/><radialGradient id="radial-gradient-64" cx="-1697.29" cy="5065.56" r="9.13" gradientTransform="matrix(0.79, -0.44, 0.16, 0.15, 567.44, -1471.87)" xlink:href="#radial-gradient-3"/><radialGradient id="radial-gradient-65" cx="-1697.29" cy="5065.56" r="9.13" gradientTransform="matrix(0.79, -0.44, 0.16, 0.15, 567.44, -1471.87)" xlink:href="#radial-gradient-3"/><radialGradient id="radial-gradient-66" cx="-1697.29" cy="5065.56" r="9.13" gradientTransform="matrix(0.79, -0.44, 0.16, 0.15, 567.44, -1471.87)" xlink:href="#radial-gradient-3"/><radialGradient id="radial-gradient-67" cx="-1697.29" cy="5065.56" r="9.13" gradientTransform="matrix(0.79, -0.44, 0.16, 0.15, 567.44, -1471.87)" xlink:href="#radial-gradient-3"/><radialGradient id="radial-gradient-68" cx="-1697.29" cy="5065.56" r="9.13" gradientTransform="matrix(0.79, -0.44, 0.16, 0.15, 567.44, -1471.87)" xlink:href="#radial-gradient-3"/><radialGradient id="radial-gradient-69" cx="-1697.29" cy="5065.56" r="9.13" gradientTransform="matrix(0.79, -0.44, 0.16, 0.15, 567.44, -1471.87)" xlink:href="#radial-gradient-3"/><radialGradient id="radial-gradient-70" cx="-1697.29" cy="5065.56" r="9.13" gradientTransform="matrix(0.79, -0.44, 0.16, 0.15, 567.44, -1471.87)" xlink:href="#radial-gradient-3"/><radialGradient id="radial-gradient-71" cx="-1697.29" cy="5065.56" r="9.13" gradientTransform="matrix(0.79, -0.44, 0.16, 0.15, 567.44, -1471.87)" xlink:href="#radial-gradient-3"/><radialGradient id="radial-gradient-72" cx="-1697.29" cy="5065.56" r="9.13" gradientTransform="matrix(0.79, -0.44, 0.16, 0.15, 567.44, -1471.87)" xlink:href="#radial-gradient-3"/><linearGradient id="linear-gradient-9" x1="2475.69" y1="-3973.42" x2="2511.92" y2="-3973.76" gradientTransform="translate(-431.88 -4647.69) rotate(142.04)" xlink:href="#linear-gradient"/><linearGradient id="linear-gradient-10" x1="2475.92" y1="-3976.38" x2="2502.26" y2="-3976.55" gradientTransform="translate(-431.88 -4647.69) rotate(142.04)" xlink:href="#linear-gradient-2"/><radialGradient id="radial-gradient-73" cx="-1703.98" cy="5046.4" r="10.84" gradientTransform="matrix(0.79, -0.44, 0.16, 0.15, 567.44, -1471.87)" xlink:href="#radial-gradient"/><radialGradient id="radial-gradient-74" cx="-1703.86" cy="5046.42" r="4.58" gradientTransform="matrix(0.79, -0.44, 0.16, 0.15, 567.44, -1471.87)" xlink:href="#radial-gradient-2"/><radialGradient id="radial-gradient-75" cx="-1703.82" cy="5046.26" r="9.13" gradientTransform="matrix(0.79, -0.44, 0.16, 0.15, 567.44, -1471.87)" xlink:href="#radial-gradient-3"/><radialGradient id="radial-gradient-76" cx="-1703.82" cy="5046.27" r="9.13" gradientTransform="matrix(0.79, -0.44, 0.16, 0.15, 567.44, -1471.87)" xlink:href="#radial-gradient-3"/><radialGradient id="radial-gradient-77" cx="-1703.82" cy="5046.26" r="9.13" gradientTransform="matrix(0.79, -0.44, 0.16, 0.15, 567.44, -1471.87)" xlink:href="#radial-gradient-3"/><radialGradient id="radial-gradient-78" cx="-1703.83" cy="5046.26" r="9.13" gradientTransform="matrix(0.79, -0.44, 0.16, 0.15, 567.44, -1471.87)" xlink:href="#radial-gradient-3"/><radialGradient id="radial-gradient-79" cx="-1703.83" cy="5046.26" r="9.13" gradientTransform="matrix(0.79, -0.44, 0.16, 0.15, 567.44, -1471.87)" xlink:href="#radial-gradient-3"/><radialGradient id="radial-gradient-80" cx="-1703.83" cy="5046.27" r="9.13" gradientTransform="matrix(0.79, -0.44, 0.16, 0.15, 567.44, -1471.87)" xlink:href="#radial-gradient-3"/><radialGradient id="radial-gradient-81" cx="-1703.83" cy="5046.26" r="9.13" gradientTransform="matrix(0.79, -0.44, 0.16, 0.15, 567.44, -1471.87)" xlink:href="#radial-gradient-3"/><radialGradient id="radial-gradient-82" cx="-1703.83" cy="5046.26" r="9.13" gradientTransform="matrix(0.79, -0.44, 0.16, 0.15, 567.44, -1471.87)" xlink:href="#radial-gradient-3"/><radialGradient id="radial-gradient-83" cx="-1703.83" cy="5046.26" r="9.13" gradientTransform="matrix(0.79, -0.44, 0.16, 0.15, 567.44, -1471.87)" xlink:href="#radial-gradient-3"/><radialGradient id="radial-gradient-84" cx="-1703.82" cy="5046.26" r="9.13" gradientTransform="matrix(0.79, -0.44, 0.16, 0.15, 567.44, -1471.87)" xlink:href="#radial-gradient-3"/><radialGradient id="radial-gradient-85" cx="-1703.83" cy="5046.26" r="9.13" gradientTransform="matrix(0.79, -0.44, 0.16, 0.15, 567.44, -1471.87)" xlink:href="#radial-gradient-3"/><radialGradient id="radial-gradient-86" cx="-1703.83" cy="5046.26" r="9.13" gradientTransform="matrix(0.79, -0.44, 0.16, 0.15, 567.44, -1471.87)" xlink:href="#radial-gradient-3"/><radialGradient id="radial-gradient-87" cx="-1703.82" cy="5046.27" r="9.13" gradientTransform="matrix(0.79, -0.44, 0.16, 0.15, 567.44, -1471.87)" xlink:href="#radial-gradient-3"/><radialGradient id="radial-gradient-88" cx="-1703.83" cy="5046.26" r="9.13" gradientTransform="matrix(0.79, -0.44, 0.16, 0.15, 567.44, -1471.87)" xlink:href="#radial-gradient-3"/><radialGradient id="radial-gradient-89" cx="-1703.83" cy="5046.26" r="9.13" gradientTransform="matrix(0.79, -0.44, 0.16, 0.15, 567.44, -1471.87)" xlink:href="#radial-gradient-3"/><radialGradient id="radial-gradient-90" cx="-1703.82" cy="5046.26" r="9.13" gradientTransform="matrix(0.79, -0.44, 0.16, 0.15, 567.44, -1471.87)" xlink:href="#radial-gradient-3"/><linearGradient id="linear-gradient-11" x1="2482.22" y1="-3968.32" x2="2518.44" y2="-3968.67" gradientTransform="translate(-431.88 -4647.69) rotate(142.04)" xlink:href="#linear-gradient"/><linearGradient id="linear-gradient-12" x1="2482.45" y1="-3971.28" x2="2508.78" y2="-3971.45" gradientTransform="translate(-431.88 -4647.69) rotate(142.04)" xlink:href="#linear-gradient-2"/><radialGradient id="radial-gradient-91" cx="-1710.52" cy="5027.1" r="10.84" gradientTransform="matrix(0.79, -0.44, 0.16, 0.15, 567.44, -1471.87)" xlink:href="#radial-gradient"/><radialGradient id="radial-gradient-92" cx="-1710.39" cy="5027.13" r="4.58" gradientTransform="matrix(0.79, -0.44, 0.16, 0.15, 567.44, -1471.87)" xlink:href="#radial-gradient-2"/><radialGradient id="radial-gradient-93" cx="-1710.36" cy="5026.97" r="9.13" gradientTransform="matrix(0.79, -0.44, 0.16, 0.15, 567.44, -1471.87)" xlink:href="#radial-gradient-3"/><radialGradient id="radial-gradient-94" cx="-1710.36" cy="5026.97" r="9.13" gradientTransform="matrix(0.79, -0.44, 0.16, 0.15, 567.44, -1471.87)" xlink:href="#radial-gradient-3"/><radialGradient id="radial-gradient-95" cx="-1710.36" cy="5026.97" r="9.13" gradientTransform="matrix(0.79, -0.44, 0.16, 0.15, 567.44, -1471.87)" xlink:href="#radial-gradient-3"/><radialGradient id="radial-gradient-96" cx="-1710.36" cy="5026.97" r="9.13" gradientTransform="matrix(0.79, -0.44, 0.16, 0.15, 567.44, -1471.87)" xlink:href="#radial-gradient-3"/><radialGradient id="radial-gradient-97" cx="-1710.36" cy="5026.97" r="9.13" gradientTransform="matrix(0.79, -0.44, 0.16, 0.15, 567.44, -1471.87)" xlink:href="#radial-gradient-3"/><radialGradient id="radial-gradient-98" cx="-1710.36" cy="5026.97" r="9.13" gradientTransform="matrix(0.79, -0.44, 0.16, 0.15, 567.44, -1471.87)" xlink:href="#radial-gradient-3"/><radialGradient id="radial-gradient-99" cx="-1710.36" cy="5026.97" r="9.13" gradientTransform="matrix(0.79, -0.44, 0.16, 0.15, 567.44, -1471.87)" xlink:href="#radial-gradient-3"/><radialGradient id="radial-gradient-100" cx="-1710.36" cy="5026.97" r="9.13" gradientTransform="matrix(0.79, -0.44, 0.16, 0.15, 567.44, -1471.87)" xlink:href="#radial-gradient-3"/><radialGradient id="radial-gradient-101" cx="-1710.36" cy="5026.97" r="9.13" gradientTransform="matrix(0.79, -0.44, 0.16, 0.15, 567.44, -1471.87)" xlink:href="#radial-gradient-3"/><radialGradient id="radial-gradient-102" cx="-1710.36" cy="5026.97" r="9.13" gradientTransform="matrix(0.79, -0.44, 0.16, 0.15, 567.44, -1471.87)" xlink:href="#radial-gradient-3"/><radialGradient id="radial-gradient-103" cx="-1710.36" cy="5026.97" r="9.13" gradientTransform="matrix(0.79, -0.44, 0.16, 0.15, 567.44, -1471.87)" xlink:href="#radial-gradient-3"/><radialGradient id="radial-gradient-104" cx="-1710.36" cy="5026.97" r="9.13" gradientTransform="matrix(0.79, -0.44, 0.16, 0.15, 567.44, -1471.87)" xlink:href="#radial-gradient-3"/><radialGradient id="radial-gradient-105" cx="-1710.36" cy="5026.97" r="9.13" gradientTransform="matrix(0.79, -0.44, 0.16, 0.15, 567.44, -1471.87)" xlink:href="#radial-gradient-3"/><radialGradient id="radial-gradient-106" cx="-1710.36" cy="5026.97" r="9.13" gradientTransform="matrix(0.79, -0.44, 0.16, 0.15, 567.44, -1471.87)" xlink:href="#radial-gradient-3"/><radialGradient id="radial-gradient-107" cx="-1710.36" cy="5026.97" r="9.13" gradientTransform="matrix(0.79, -0.44, 0.16, 0.15, 567.44, -1471.87)" xlink:href="#radial-gradient-3"/><radialGradient id="radial-gradient-108" cx="-1710.36" cy="5026.97" r="9.13" gradientTransform="matrix(0.79, -0.44, 0.16, 0.15, 567.44, -1471.87)" xlink:href="#radial-gradient-3"/><linearGradient id="linear-gradient-13" x1="2488.75" y1="-3963.23" x2="2524.97" y2="-3963.57" gradientTransform="translate(-431.88 -4647.69) rotate(142.04)" xlink:href="#linear-gradient"/><linearGradient id="linear-gradient-14" x1="2488.98" y1="-3966.19" x2="2515.31" y2="-3966.36" gradientTransform="translate(-431.88 -4647.69) rotate(142.04)" xlink:href="#linear-gradient-2"/><radialGradient id="radial-gradient-109" cx="-1717.05" cy="5007.81" r="10.84" gradientTransform="matrix(0.79, -0.44, 0.16, 0.15, 567.44, -1471.87)" xlink:href="#radial-gradient"/><radialGradient id="radial-gradient-110" cx="-1716.93" cy="5007.83" r="4.58" gradientTransform="matrix(0.79, -0.44, 0.16, 0.15, 567.44, -1471.87)" xlink:href="#radial-gradient-2"/><radialGradient id="radial-gradient-111" cx="-1716.9" cy="5007.67" r="9.13" gradientTransform="matrix(0.79, -0.44, 0.16, 0.15, 567.44, -1471.87)" xlink:href="#radial-gradient-3"/><radialGradient id="radial-gradient-112" cx="-1716.9" cy="5007.68" r="9.13" gradientTransform="matrix(0.79, -0.44, 0.16, 0.15, 567.44, -1471.87)" xlink:href="#radial-gradient-3"/><radialGradient id="radial-gradient-113" cx="-1716.9" cy="5007.67" r="9.13" gradientTransform="matrix(0.79, -0.44, 0.16, 0.15, 567.44, -1471.87)" xlink:href="#radial-gradient-3"/><radialGradient id="radial-gradient-114" cx="-1716.9" cy="5007.67" r="9.13" gradientTransform="matrix(0.79, -0.44, 0.16, 0.15, 567.44, -1471.87)" xlink:href="#radial-gradient-3"/><radialGradient id="radial-gradient-115" cx="-1716.9" cy="5007.67" r="9.13" gradientTransform="matrix(0.79, -0.44, 0.16, 0.15, 567.44, -1471.87)" xlink:href="#radial-gradient-3"/><radialGradient id="radial-gradient-116" cx="-1716.9" cy="5007.67" r="9.13" gradientTransform="matrix(0.79, -0.44, 0.16, 0.15, 567.44, -1471.87)" xlink:href="#radial-gradient-3"/><radialGradient id="radial-gradient-117" cx="-1716.9" cy="5007.67" r="9.13" gradientTransform="matrix(0.79, -0.44, 0.16, 0.15, 567.44, -1471.87)" xlink:href="#radial-gradient-3"/><radialGradient id="radial-gradient-118" cx="-1716.9" cy="5007.67" r="9.13" gradientTransform="matrix(0.79, -0.44, 0.16, 0.15, 567.44, -1471.87)" xlink:href="#radial-gradient-3"/><radialGradient id="radial-gradient-119" cx="-1716.9" cy="5007.67" r="9.13" gradientTransform="matrix(0.79, -0.44, 0.16, 0.15, 567.44, -1471.87)" xlink:href="#radial-gradient-3"/><radialGradient id="radial-gradient-120" cx="-1716.9" cy="5007.67" r="9.13" gradientTransform="matrix(0.79, -0.44, 0.16, 0.15, 567.44, -1471.87)" xlink:href="#radial-gradient-3"/><radialGradient id="radial-gradient-121" cx="-1716.9" cy="5007.67" r="9.13" gradientTransform="matrix(0.79, -0.44, 0.16, 0.15, 567.44, -1471.87)" xlink:href="#radial-gradient-3"/><radialGradient id="radial-gradient-122" cx="-1716.9" cy="5007.67" r="9.13" gradientTransform="matrix(0.79, -0.44, 0.16, 0.15, 567.44, -1471.87)" xlink:href="#radial-gradient-3"/><radialGradient id="radial-gradient-123" cx="-1716.9" cy="5007.67" r="9.13" gradientTransform="matrix(0.79, -0.44, 0.16, 0.15, 567.44, -1471.87)" xlink:href="#radial-gradient-3"/><radialGradient id="radial-gradient-124" cx="-1716.9" cy="5007.67" r="9.13" gradientTransform="matrix(0.79, -0.44, 0.16, 0.15, 567.44, -1471.87)" xlink:href="#radial-gradient-3"/><radialGradient id="radial-gradient-125" cx="-1716.9" cy="5007.67" r="9.13" gradientTransform="matrix(0.79, -0.44, 0.16, 0.15, 567.44, -1471.87)" xlink:href="#radial-gradient-3"/><radialGradient id="radial-gradient-126" cx="-1716.9" cy="5007.67" r="9.13" gradientTransform="matrix(0.79, -0.44, 0.16, 0.15, 567.44, -1471.87)" xlink:href="#radial-gradient-3"/><linearGradient id="linear-gradient-15" x1="2495.28" y1="-3958.14" x2="2531.5" y2="-3958.48" gradientTransform="translate(-431.88 -4647.69) rotate(142.04)" xlink:href="#linear-gradient"/><linearGradient id="linear-gradient-16" x1="2495.51" y1="-3961.1" x2="2521.84" y2="-3961.26" gradientTransform="translate(-431.88 -4647.69) rotate(142.04)" xlink:href="#linear-gradient-2"/><radialGradient id="radial-gradient-127" cx="-1723.59" cy="4988.51" r="10.84" gradientTransform="matrix(0.79, -0.44, 0.16, 0.15, 567.44, -1471.87)" xlink:href="#radial-gradient"/><radialGradient id="radial-gradient-128" cx="-1723.46" cy="4988.54" r="4.58" gradientTransform="matrix(0.79, -0.44, 0.16, 0.15, 567.44, -1471.87)" xlink:href="#radial-gradient-2"/><radialGradient id="radial-gradient-129" cx="-1723.43" cy="4988.38" r="9.13" gradientTransform="matrix(0.79, -0.44, 0.16, 0.15, 567.44, -1471.87)" xlink:href="#radial-gradient-3"/><radialGradient id="radial-gradient-130" cx="-1723.43" cy="4988.38" r="9.13" gradientTransform="matrix(0.79, -0.44, 0.16, 0.15, 567.44, -1471.87)" xlink:href="#radial-gradient-3"/><radialGradient id="radial-gradient-131" cx="-1723.43" cy="4988.38" r="9.13" gradientTransform="matrix(0.79, -0.44, 0.16, 0.15, 567.44, -1471.87)" xlink:href="#radial-gradient-3"/><radialGradient id="radial-gradient-132" cx="-1723.43" cy="4988.38" r="9.13" gradientTransform="matrix(0.79, -0.44, 0.16, 0.15, 567.44, -1471.87)" xlink:href="#radial-gradient-3"/><radialGradient id="radial-gradient-133" cx="-1723.43" cy="4988.38" r="9.13" gradientTransform="matrix(0.79, -0.44, 0.16, 0.15, 567.44, -1471.87)" xlink:href="#radial-gradient-3"/><radialGradient id="radial-gradient-134" cx="-1723.43" cy="4988.38" r="9.13" gradientTransform="matrix(0.79, -0.44, 0.16, 0.15, 567.44, -1471.87)" xlink:href="#radial-gradient-3"/><radialGradient id="radial-gradient-135" cx="-1723.43" cy="4988.38" r="9.13" gradientTransform="matrix(0.79, -0.44, 0.16, 0.15, 567.44, -1471.87)" xlink:href="#radial-gradient-3"/><radialGradient id="radial-gradient-136" cx="-1723.43" cy="4988.38" r="9.13" gradientTransform="matrix(0.79, -0.44, 0.16, 0.15, 567.44, -1471.87)" xlink:href="#radial-gradient-3"/><radialGradient id="radial-gradient-137" cx="-1723.43" cy="4988.38" r="9.13" gradientTransform="matrix(0.79, -0.44, 0.16, 0.15, 567.44, -1471.87)" xlink:href="#radial-gradient-3"/><radialGradient id="radial-gradient-138" cx="-1723.43" cy="4988.38" r="9.13" gradientTransform="matrix(0.79, -0.44, 0.16, 0.15, 567.44, -1471.87)" xlink:href="#radial-gradient-3"/><radialGradient id="radial-gradient-139" cx="-1723.43" cy="4988.38" r="9.13" gradientTransform="matrix(0.79, -0.44, 0.16, 0.15, 567.44, -1471.87)" xlink:href="#radial-gradient-3"/><radialGradient id="radial-gradient-140" cx="-1723.43" cy="4988.38" r="9.13" gradientTransform="matrix(0.79, -0.44, 0.16, 0.15, 567.44, -1471.87)" xlink:href="#radial-gradient-3"/><radialGradient id="radial-gradient-141" cx="-1723.43" cy="4988.38" r="9.13" gradientTransform="matrix(0.79, -0.44, 0.16, 0.15, 567.44, -1471.87)" xlink:href="#radial-gradient-3"/><radialGradient id="radial-gradient-142" cx="-1723.43" cy="4988.38" r="9.13" gradientTransform="matrix(0.79, -0.44, 0.16, 0.15, 567.44, -1471.87)" xlink:href="#radial-gradient-3"/><radialGradient id="radial-gradient-143" cx="-1723.43" cy="4988.38" r="9.13" gradientTransform="matrix(0.79, -0.44, 0.16, 0.15, 567.44, -1471.87)" xlink:href="#radial-gradient-3"/><radialGradient id="radial-gradient-144" cx="-1723.43" cy="4988.38" r="9.13" gradientTransform="matrix(0.79, -0.44, 0.16, 0.15, 567.44, -1471.87)" xlink:href="#radial-gradient-3"/><linearGradient id="linear-gradient-17" x1="2501.81" y1="-3953.04" x2="2538.03" y2="-3953.38" gradientTransform="translate(-431.88 -4647.69) rotate(142.04)" xlink:href="#linear-gradient"/><linearGradient id="linear-gradient-18" x1="2502.03" y1="-3956" x2="2528.37" y2="-3956.17" gradientTransform="translate(-431.88 -4647.69) rotate(142.04)" xlink:href="#linear-gradient-2"/><radialGradient id="radial-gradient-145" cx="-1730.12" cy="4969.22" r="10.84" gradientTransform="matrix(0.79, -0.44, 0.16, 0.15, 567.44, -1471.87)" xlink:href="#radial-gradient"/><radialGradient id="radial-gradient-146" cx="-1730" cy="4969.24" r="4.58" gradientTransform="matrix(0.79, -0.44, 0.16, 0.15, 567.44, -1471.87)" xlink:href="#radial-gradient-2"/><radialGradient id="radial-gradient-147" cx="-1729.97" cy="4969.08" r="9.13" gradientTransform="matrix(0.79, -0.44, 0.16, 0.15, 567.44, -1471.87)" xlink:href="#radial-gradient-3"/><radialGradient id="radial-gradient-148" cx="-1729.97" cy="4969.09" r="9.13" gradientTransform="matrix(0.79, -0.44, 0.16, 0.15, 567.44, -1471.87)" xlink:href="#radial-gradient-3"/><radialGradient id="radial-gradient-149" cx="-1729.97" cy="4969.08" r="9.13" gradientTransform="matrix(0.79, -0.44, 0.16, 0.15, 567.44, -1471.87)" xlink:href="#radial-gradient-3"/><radialGradient id="radial-gradient-150" cx="-1729.97" cy="4969.08" r="9.13" gradientTransform="matrix(0.79, -0.44, 0.16, 0.15, 567.44, -1471.87)" xlink:href="#radial-gradient-3"/><radialGradient id="radial-gradient-151" cx="-1729.97" cy="4969.08" r="9.13" gradientTransform="matrix(0.79, -0.44, 0.16, 0.15, 567.44, -1471.87)" xlink:href="#radial-gradient-3"/><radialGradient id="radial-gradient-152" cx="-1729.97" cy="4969.08" r="9.13" gradientTransform="matrix(0.79, -0.44, 0.16, 0.15, 567.44, -1471.87)" xlink:href="#radial-gradient-3"/><radialGradient id="radial-gradient-153" cx="-1729.97" cy="4969.08" r="9.13" gradientTransform="matrix(0.79, -0.44, 0.16, 0.15, 567.44, -1471.87)" xlink:href="#radial-gradient-3"/><radialGradient id="radial-gradient-154" cx="-1729.97" cy="4969.08" r="9.13" gradientTransform="matrix(0.79, -0.44, 0.16, 0.15, 567.44, -1471.87)" xlink:href="#radial-gradient-3"/><radialGradient id="radial-gradient-155" cx="-1729.97" cy="4969.08" r="9.13" gradientTransform="matrix(0.79, -0.44, 0.16, 0.15, 567.44, -1471.87)" xlink:href="#radial-gradient-3"/><radialGradient id="radial-gradient-156" cx="-1729.97" cy="4969.08" r="9.13" gradientTransform="matrix(0.79, -0.44, 0.16, 0.15, 567.44, -1471.87)" xlink:href="#radial-gradient-3"/><radialGradient id="radial-gradient-157" cx="-1729.97" cy="4969.08" r="9.13" gradientTransform="matrix(0.79, -0.44, 0.16, 0.15, 567.44, -1471.87)" xlink:href="#radial-gradient-3"/><radialGradient id="radial-gradient-158" cx="-1729.97" cy="4969.08" r="9.13" gradientTransform="matrix(0.79, -0.44, 0.16, 0.15, 567.44, -1471.87)" xlink:href="#radial-gradient-3"/><radialGradient id="radial-gradient-159" cx="-1729.97" cy="4969.08" r="9.13" gradientTransform="matrix(0.79, -0.44, 0.16, 0.15, 567.44, -1471.87)" xlink:href="#radial-gradient-3"/><radialGradient id="radial-gradient-160" cx="-1729.97" cy="4969.08" r="9.13" gradientTransform="matrix(0.79, -0.44, 0.16, 0.15, 567.44, -1471.87)" xlink:href="#radial-gradient-3"/><radialGradient id="radial-gradient-161" cx="-1729.97" cy="4969.08" r="9.13" gradientTransform="matrix(0.79, -0.44, 0.16, 0.15, 567.44, -1471.87)" xlink:href="#radial-gradient-3"/><radialGradient id="radial-gradient-162" cx="-1729.97" cy="4969.08" r="9.13" gradientTransform="matrix(0.79, -0.44, 0.16, 0.15, 567.44, -1471.87)" xlink:href="#radial-gradient-3"/><radialGradient id="radial-gradient-163" cx="-933.42" cy="25528.44" r="8.14" gradientTransform="translate(-3904.24 -915.76) rotate(-90) scale(1 0.16)" xlink:href="#radial-gradient"/><radialGradient id="radial-gradient-164" cx="-933.33" cy="25528.46" r="3.44" gradientTransform="translate(-3904.24 -915.76) rotate(-90) scale(1 0.16)" xlink:href="#radial-gradient-2"/><radialGradient id="radial-gradient-165" cx="-933.31" cy="25528.34" r="6.86" gradientTransform="translate(-3904.24 -915.76) rotate(-90) scale(1 0.16)" xlink:href="#radial-gradient-3"/><radialGradient id="radial-gradient-166" cx="-933.31" cy="25528.34" r="6.85" gradientTransform="translate(-3904.24 -915.76) rotate(-90) scale(1 0.16)" xlink:href="#radial-gradient-3"/><radialGradient id="radial-gradient-167" cx="-933.31" cy="25528.34" r="6.85" gradientTransform="translate(-3904.24 -915.76) rotate(-90) scale(1 0.16)" xlink:href="#radial-gradient-3"/><radialGradient id="radial-gradient-168" cx="-933.31" cy="25528.34" r="6.85" gradientTransform="translate(-3904.24 -915.76) rotate(-90) scale(1 0.16)" xlink:href="#radial-gradient-3"/><radialGradient id="radial-gradient-169" cx="-933.31" cy="25528.34" r="6.85" gradientTransform="translate(-3904.24 -915.76) rotate(-90) scale(1 0.16)" xlink:href="#radial-gradient-3"/><radialGradient id="radial-gradient-170" cx="-933.31" cy="25528.34" r="6.85" gradientTransform="translate(-3904.24 -915.76) rotate(-90) scale(1 0.16)" xlink:href="#radial-gradient-3"/><radialGradient id="radial-gradient-171" cx="-933.31" cy="25528.34" r="6.85" gradientTransform="translate(-3904.24 -915.76) rotate(-90) scale(1 0.16)" xlink:href="#radial-gradient-3"/><radialGradient id="radial-gradient-172" cx="-933.31" cy="25528.34" r="6.85" gradientTransform="translate(-3904.24 -915.76) rotate(-90) scale(1 0.16)" xlink:href="#radial-gradient-3"/><radialGradient id="radial-gradient-173" cx="-933.31" cy="25528.34" r="6.85" gradientTransform="translate(-3904.24 -915.76) rotate(-90) scale(1 0.16)" xlink:href="#radial-gradient-3"/><radialGradient id="radial-gradient-174" cx="-933.31" cy="25528.34" r="6.85" gradientTransform="translate(-3904.24 -915.76) rotate(-90) scale(1 0.16)" xlink:href="#radial-gradient-3"/><radialGradient id="radial-gradient-175" cx="-933.31" cy="25528.34" r="6.85" gradientTransform="translate(-3904.24 -915.76) rotate(-90) scale(1 0.16)" xlink:href="#radial-gradient-3"/><radialGradient id="radial-gradient-176" cx="-933.31" cy="25528.34" r="6.85" gradientTransform="translate(-3904.24 -915.76) rotate(-90) scale(1 0.16)" xlink:href="#radial-gradient-3"/><radialGradient id="radial-gradient-177" cx="-933.31" cy="25528.34" r="6.85" gradientTransform="translate(-3904.24 -915.76) rotate(-90) scale(1 0.16)" xlink:href="#radial-gradient-3"/><radialGradient id="radial-gradient-178" cx="-933.31" cy="25528.34" r="6.85" gradientTransform="translate(-3904.24 -915.76) rotate(-90) scale(1 0.16)" xlink:href="#radial-gradient-3"/><radialGradient id="radial-gradient-179" cx="-933.31" cy="25528.34" r="6.85" gradientTransform="translate(-3904.24 -915.76) rotate(-90) scale(1 0.16)" xlink:href="#radial-gradient-3"/><radialGradient id="radial-gradient-180" cx="-933.31" cy="25528.34" r="6.85" gradientTransform="translate(-3904.24 -915.76) rotate(-90) scale(1 0.16)" xlink:href="#radial-gradient-3"/></defs><g class="cls-1"><g id="Layer_1" data-name="Layer 1"><path class="cls-2" d="M141.41,28.21c0,1.69-7.16,3.09-19.38,3.09s-22.14-1.37-22.14-3.05S109.8,25.2,122,25.2,141.41,26.53,141.41,28.21Z"/><path class="cls-2" d="M92.67,20.69s5.76,1.18,5,3.84c-1.51,5-19.09,6.88-31.28,3.95s-.17,1.58-7.45,1.07-9.83-2.43-9.55-1.24-3.1,2-5.3,1-5-1.53-3.84-.4c2.09,2.06-5.48.68-6.61-.17s-2.27-.58-1.52.57c1.21,1.86-5.76-.12-6.78-1.3s-1.67-.37-1.24.62c.82,1.89-5.14-.68-6.49-1.36s-2.59.52-.68,1.64c2.66,1.55-3.67,1.13-6.26-.39s-4.19-.05-4,.67C7.05,30.31,1.21,27.86.36,25,.08,24,1.6,23.45,4.68,23.6,11.28,23.93,92.67,20.69,92.67,20.69Z"/><path class="cls-3" d="M95.42,25.12l0-.2c-.1-.79-.17-1.57-.28-2.36H65.87c-.11.79-.33,2.36-.36,2.56-.19,1.2,8.83,2.38,15,2.38S94.4,26.56,95.42,25.12Z"/><path class="cls-4" d="M66.57,22.56c-.1.79-.33,2.91-.37,3.19a34.19,34.19,0,0,0,8.1,1.44c0-.75.07-1.49.1-2.27S66.57,22.56,66.57,22.56Z"/><path class="cls-5" d="M93,22.56s-7.94,1.57-7.91,2.36.07,1.62.1,2.41a42.07,42.07,0,0,0,8.21-1.21C93.39,25.72,93.12,23.35,93,22.56Z"/><ellipse class="cls-3" cx="80.49" cy="22.56" rx="14.62" ry="2.75"/><ellipse class="cls-6" cx="80.49" cy="22.56" rx="14.22" ry="2.67"/><path class="cls-7" d="M91.27,22.56c0,.07.18.17-.07.22a3.12,3.12,0,0,0-.55.12c-.11.12.35.29-.24.39a7.18,7.18,0,0,0-2,.67,5.64,5.64,0,0,1-1.42.19c-.67,0-.86.15-1.49.15a2.57,2.57,0,0,0-1.14.15,5.86,5.86,0,0,1-1.79.05c-.68-.05-1.41.06-2.07.06a23.27,23.27,0,0,1-2.41-.08c-.36,0-.79,0-1.18-.07s-.5-.06-.78-.09-.79-.08-1.16-.13-.95-.06-1.26-.11c-.46-.07-1.15-.12-1.54-.21-.2,0-.47-.08-.66-.13s0-.13-.17-.19-.92-.25-.86-.36-.25-.21-.63-.32-.34-.16-.34-.31.92-.1.63-.23.07-.22.28-.37.59-.21.47-.39.91-.05,1.17-.12-.23-.17.26-.25,1-.09,1.41-.15c.21,0,.21-.1.31-.15a4.11,4.11,0,0,1,.92,0c.59,0,1-.12,1.63-.13s.78-.13,1.4-.15a17.26,17.26,0,0,1,2,0,21.46,21.46,0,0,0,2.55.06,3,3,0,0,1,1.34.05c.44.09,1.37.09,1.93.15s.28.18,1.1.17a3.42,3.42,0,0,1,1.38.26c.28.1,1,.16,1.4.24s-.06.22.63.31.33.24.71.35c.2.06.11.11,0,.18S91.27,22.48,91.27,22.56Z"/><path class="cls-8" d="M85.18,22.56c0,.12-.25.26-.56.36s-.79.16-1.15.25a6.74,6.74,0,0,1-1.2.2c-.3,0-.62,0-.93,0l-1.08,0a10.74,10.74,0,0,1-1.83-.07c-.5-.09-1-.16-1.46-.27s-.85-.11-.86-.22a.52.52,0,0,0-.19-.37c-.14-.11.34-.19.47-.29a3.26,3.26,0,0,1,1.18-.25c.49-.05.88-.12,1.39-.16.7-.06,1.35,0,2.08-.06a15.07,15.07,0,0,1,1.58.11A7,7,0,0,1,84,22a.58.58,0,0,0,.27.11,4.27,4.27,0,0,1,.55.1c.12.06,0,.12,0,.18S85.18,22.5,85.18,22.56Z"/><g class="cls-9"><path class="cls-10" d="M80.64,21.52c0,.38,0,.68-.1.68s-.11-.3-.11-.68,0-.68.11-.68S80.64,21.14,80.64,21.52Z"/><path class="cls-11" d="M80.64,23.53c0,.38,0,.69-.1.69s-.11-.31-.11-.69,0-.68.11-.68S80.64,23.15,80.64,23.53Z"/><path class="cls-12" d="M75.18,22.51c2,0,3.64,0,3.64,0s-1.63,0-3.64,0-3.64,0-3.64,0S73.17,22.51,75.18,22.51Z"/><path class="cls-13" d="M85.89,22.51c2,0,3.64,0,3.64,0s-1.63,0-3.64,0-3.64,0-3.64,0S83.88,22.51,85.89,22.51Z"/><path class="cls-14" d="M76.83,21.8c1.42.27,2.53.49,2.49.5s-1.23-.2-2.65-.47-2.53-.49-2.49-.5S75.41,21.53,76.83,21.8Z"/><path class="cls-15" d="M84.4,23.22c1.42.27,2.54.49,2.49.5s-1.22-.2-2.64-.47-2.54-.49-2.5-.5Z"/><path class="cls-16" d="M76.67,23.22l2.65-.47s-1.07.24-2.49.5-2.61.48-2.65.47S75.25,23.49,76.67,23.22Z"/><path class="cls-17" d="M84.25,21.8c1.42-.27,2.6-.48,2.64-.47s-1.07.23-2.49.5-2.61.48-2.65.47S82.83,22.07,84.25,21.8Z"/><path class="cls-18" d="M79.2,21.88a6.25,6.25,0,0,1,.88.44s-.49-.19-1-.43a9.32,9.32,0,0,1-.89-.43A7.67,7.67,0,0,1,79.2,21.88Z"/><path class="cls-19" d="M82,23.16a5.57,5.57,0,0,1,.89.44,11,11,0,0,1-1-.43,7.09,7.09,0,0,1-.88-.44S81.48,22.92,82,23.16Z"/><path class="cls-20" d="M77.11,22.78c1.27-.1,2.32-.18,2.34-.17s-1,.09-2.28.19-2.32.18-2.34.17S75.84,22.88,77.11,22.78Z"/><path class="cls-21" d="M83.9,22.25l2.34-.17s-1,.1-2.28.2-2.32.17-2.33.16S82.63,22.35,83.9,22.25Z"/><path class="cls-22" d="M77.17,22.25c1.27.1,2.29.18,2.28.19s-1.07-.07-2.34-.16-2.29-.19-2.28-.2Z"/><path class="cls-23" d="M84,22.78c1.27.1,2.29.18,2.28.19s-1.06-.07-2.34-.17-2.29-.18-2.27-.19S82.69,22.68,84,22.78Z"/><path class="cls-24" d="M79.06,23.16c.53-.24,1-.43,1-.43a6.25,6.25,0,0,1-.88.44,11,11,0,0,1-1,.43A6.21,6.21,0,0,1,79.06,23.16Z"/><path class="cls-25" d="M81.87,21.88a7.67,7.67,0,0,1,1-.42,8,8,0,0,1-.89.43c-.53.24-1,.43-1,.43A7.09,7.09,0,0,1,81.87,21.88Z"/></g><path class="cls-3" d="M92.61,21.27l0-.2c-.1-.79-.17-1.57-.29-2.36H63.07c-.12.79-.34,2.36-.36,2.56-.19,1.2,8.82,2.38,15,2.38S91.59,22.71,92.61,21.27Z"/><path class="cls-26" d="M63.77,18.71c-.1.79-.34,2.91-.37,3.18a33.41,33.41,0,0,0,8.1,1.45c0-.75.06-1.49.09-2.27S63.77,18.71,63.77,18.71Z"/><path class="cls-27" d="M90.22,18.71s-7.94,1.57-7.91,2.36.07,1.62.11,2.41a42.07,42.07,0,0,0,8.21-1.21C90.58,21.87,90.32,19.5,90.22,18.71Z"/><ellipse class="cls-3" cx="77.68" cy="18.71" rx="14.62" ry="2.75"/><ellipse class="cls-6" cx="77.68" cy="18.71" rx="14.22" ry="2.67"/><path class="cls-28" d="M88.47,18.71c0,.07.17.16-.08.22a3.12,3.12,0,0,0-.55.12c-.1.11.35.29-.23.39a7.26,7.26,0,0,0-2,.67,5.57,5.57,0,0,1-1.42.19c-.67,0-.85.15-1.49.15a2.52,2.52,0,0,0-1.13.15,5.93,5.93,0,0,1-1.8,0c-.68,0-1.41.06-2.07.06a23.27,23.27,0,0,1-2.41-.08c-.36,0-.79,0-1.18-.07s-.5-.06-.78-.09-.78-.08-1.15-.13-1-.06-1.27-.11-1.15-.12-1.53-.21c-.21,0-.48-.08-.66-.13s0-.13-.17-.19-.93-.26-.87-.36-.24-.21-.63-.32-.34-.17-.34-.31.92-.1.63-.23.07-.23.29-.37.58-.21.47-.39.9,0,1.16-.12-.22-.17.27-.26,1-.08,1.4-.14c.21,0,.21-.1.32-.15a4.07,4.07,0,0,1,.92-.05c.59,0,1-.12,1.62-.14s.78-.12,1.4-.14a17.43,17.43,0,0,1,2,0,21.34,21.34,0,0,0,2.54.06,3.07,3.07,0,0,1,1.35.05c.43.09,1.37.09,1.92.15s.28.18,1.11.17a3.4,3.4,0,0,1,1.37.26c.28.1,1,.16,1.4.24s-.06.22.63.31.33.24.71.35c.2.06.11.11,0,.18S88.47,18.63,88.47,18.71Z"/><path class="cls-29" d="M82.37,18.71c0,.12-.25.26-.56.36s-.79.16-1.15.25a6.77,6.77,0,0,1-1.19.2c-.3,0-.63,0-.93,0l-1.08,0a10.65,10.65,0,0,1-1.83-.07c-.5-.09-1-.16-1.46-.27s-.85-.11-.87-.22a.48.48,0,0,0-.19-.37c-.13-.11.35-.19.47-.29a3.18,3.18,0,0,1,1.19-.25c.49-.05.87-.12,1.38-.16.7-.06,1.35,0,2.09-.06a15.07,15.07,0,0,1,1.57.11,6.87,6.87,0,0,1,1.41.2.64.64,0,0,0,.27.11,4.27,4.27,0,0,1,.55.1c.13.06,0,.12,0,.18S82.37,18.65,82.37,18.71Z"/><g class="cls-9"><path class="cls-30" d="M77.84,17.67c0,.38,0,.68-.11.68s-.11-.3-.11-.68,0-.68.11-.68S77.84,17.29,77.84,17.67Z"/><path class="cls-31" d="M77.84,19.68c0,.38,0,.68-.11.68s-.11-.3-.11-.68,0-.68.11-.68S77.84,19.3,77.84,19.68Z"/><path class="cls-32" d="M72.38,18.66c2,0,3.63,0,3.63,0s-1.63,0-3.63,0-3.64,0-3.64,0S70.37,18.66,72.38,18.66Z"/><path class="cls-33" d="M83.08,18.66c2,0,3.64,0,3.64,0s-1.63,0-3.64,0-3.63,0-3.63,0S81.08,18.66,83.08,18.66Z"/><path class="cls-34" d="M74,18c1.42.27,2.54.49,2.5.5s-1.23-.2-2.65-.47-2.54-.49-2.5-.5S72.6,17.68,74,18Z"/><path class="cls-35" d="M81.59,19.37c1.42.27,2.54.49,2.5.5s-1.23-.2-2.65-.47-2.54-.49-2.5-.5Z"/><path class="cls-36" d="M73.87,19.37l2.65-.47s-1.08.23-2.5.5-2.61.48-2.65.47S72.45,19.64,73.87,19.37Z"/><path class="cls-37" d="M81.44,18c1.42-.27,2.61-.48,2.65-.47s-1.08.23-2.5.5-2.6.48-2.65.47S80,18.22,81.44,18Z"/><path class="cls-38" d="M76.39,18a6.87,6.87,0,0,1,.89.44,11,11,0,0,1-1-.43,5.7,5.7,0,0,1-.88-.44S75.86,17.79,76.39,18Z"/><path class="cls-39" d="M79.21,19.31a5.7,5.7,0,0,1,.88.44s-.49-.19-1-.43a6.87,6.87,0,0,1-.89-.44A11,11,0,0,1,79.21,19.31Z"/><path class="cls-40" d="M74.3,18.93c1.28-.1,2.32-.18,2.34-.17s-1,.09-2.28.19-2.32.18-2.33.17S73,19,74.3,18.93Z"/><path class="cls-41" d="M81.1,18.4l2.33-.17s-1,.1-2.27.19-2.32.18-2.34.17S79.82,18.5,81.1,18.4Z"/><path class="cls-42" d="M74.36,18.4c1.28.1,2.3.18,2.28.19s-1.06-.07-2.34-.17S72,18.24,72,18.23Z"/><path class="cls-43" d="M81.16,18.93c1.27.1,2.29.18,2.27.19s-1.06-.07-2.33-.17-2.3-.18-2.28-.19S79.88,18.83,81.16,18.93Z"/><path class="cls-44" d="M76.25,19.31a11,11,0,0,1,1-.43,6.87,6.87,0,0,1-.89.44c-.53.24-1,.43-1,.43A5.7,5.7,0,0,1,76.25,19.31Z"/><path class="cls-45" d="M79.07,18c.53-.24,1-.43,1-.43a5.7,5.7,0,0,1-.88.44,11,11,0,0,1-1,.43A6.87,6.87,0,0,1,79.07,18Z"/></g><path class="cls-3" d="M75.86,14.22l-.19-.15c-.76-.58-1.5-1.16-2.27-1.73l-23,12.78,1.93,2.17c.88,1,9-2,13.85-4.66S76.3,15.8,75.86,14.22Z"/><path class="cls-46" d="M50.91,24.81l2.46,2.67A31.6,31.6,0,0,0,61,25.08l-1.89-1.83C58.46,22.62,50.91,24.81,50.91,24.81Z"/><path class="cls-47" d="M71.76,13.25s-4.9,4.7-4.19,5.31l2.17,1.86a26.57,26.57,0,0,0,5.43-4.55C74.78,15.58,72.52,13.82,71.76,13.25Z"/><path class="cls-3" d="M73.4,12.34c1.32,1.19-2.78,5-9.14,8.55s-12.59,5.42-13.9,4.23,2.78-5,9.14-8.56S72.09,11.14,73.4,12.34Z"/><ellipse class="cls-6" cx="61.88" cy="18.73" rx="12.86" ry="2.95" transform="translate(-1.56 31.16) rotate(-27.93)"/><path class="cls-48" d="M70.38,14c.06.05.28.06.13.21s-.34.27-.33.33.52.08.15.41a4,4,0,0,0-1,1.42,3.55,3.55,0,0,1-1,.76c-.52.3-.55.5-1,.77-.68.38-.51.34-.77.62a4.37,4.37,0,0,1-1.37.82c-.58.26-1.06.67-1.58.95a16.5,16.5,0,0,1-2,1c-.33.13-.66.32-1,.47s-.45.17-.69.27-.7.27-1,.4-.8.37-1.09.47-1,.4-1.39.5c-.2.06-.44.15-.63.19s-.11-.11-.3-.08-1,.2-1,.09-.37-.05-.77,0-.41,0-.54-.1.64-.48.3-.45-.14-.21-.09-.42.27-.42,0-.51.67-.44.81-.61-.32,0,0-.31.7-.5,1-.74.08-.17.12-.25A3.2,3.2,0,0,1,56,19.8c.46-.27.67-.52,1.17-.82s.5-.44,1-.72a10.56,10.56,0,0,1,1.59-.9,16.78,16.78,0,0,0,2.06-1.07,2.4,2.4,0,0,1,1.1-.54c.43-.12,1.16-.53,1.66-.73s.37,0,1-.35a3.18,3.18,0,0,1,1.31-.39c.3,0,.91-.3,1.31-.42s.15.19.76,0,.47,0,.87,0c.21,0,.18,0,.18.12S70.31,14,70.38,14Z"/><path class="cls-49" d="M65.58,16.68c.1.09,0,.31-.14.52a7.54,7.54,0,0,1-.69.7,4.53,4.53,0,0,1-.76.69c-.22.14-.51.26-.74.4s-.56.32-.83.49a9.54,9.54,0,0,1-1.5.75c-.47.15-1,.32-1.39.42s-.77.28-.87.21a1,1,0,0,0-.48-.22c-.19,0,.11-.3.13-.43s.34-.43.71-.71.59-.48.95-.74,1.05-.61,1.6-1a9.22,9.22,0,0,1,1.34-.6,5.17,5.17,0,0,1,1.28-.46.77.77,0,0,0,.31,0,2.84,2.84,0,0,1,.52-.15c.15,0,.08.1.18.12S65.52,16.63,65.58,16.68Z"/><g class="cls-9"><path class="cls-50" d="M61.1,17.84c.33.3.55.56.51.59a2.25,2.25,0,0,1-.68-.5c-.33-.29-.55-.56-.51-.58S60.77,17.54,61.1,17.84Z"/><path class="cls-51" d="M62.84,19.43c.33.29.55.56.51.58s-.35-.19-.68-.49-.55-.56-.51-.59A2.25,2.25,0,0,1,62.84,19.43Z"/><path class="cls-52" d="M57.65,21c1.58-.88,2.87-1.59,2.88-1.58s-1.27.73-2.85,1.61-2.87,1.58-2.88,1.57S56.06,21.88,57.65,21Z"/><path class="cls-53" d="M66.09,16.32c1.58-.88,2.87-1.58,2.88-1.57s-1.26.73-2.85,1.6-2.87,1.59-2.88,1.58S64.51,17.2,66.09,16.32Z"/><path class="cls-54" d="M58.33,19.73c1.35-.41,2.43-.72,2.4-.7s-1.14.38-2.49.79-2.43.72-2.4.7S57,20.14,58.33,19.73Z"/><path class="cls-55" d="M65.53,17.54c1.35-.41,2.43-.72,2.4-.7s-1.14.38-2.49.79-2.43.72-2.4.7S64.18,18,65.53,17.54Z"/><path class="cls-56" d="M59.44,20.92c.89-.83,1.64-1.52,1.69-1.53s-.65.65-1.54,1.48S58,22.39,57.91,22.4,58.55,21.75,59.44,20.92Z"/><path class="cls-57" d="M64.18,16.49c.89-.84,1.64-1.52,1.68-1.53s-.64.65-1.53,1.48S62.69,18,62.65,18,63.29,17.32,64.18,16.49Z"/><path class="cls-58" d="M60.27,18.76a8.66,8.66,0,0,1,1.08,0l-1.18.11a8.49,8.49,0,0,1-1.07,0A10.85,10.85,0,0,1,60.27,18.76Z"/><path class="cls-59" d="M63.6,18.53a8.61,8.61,0,0,1,1.08,0,11.57,11.57,0,0,1-1.18.11,8.66,8.66,0,0,1-1.08,0Z"/><path class="cls-60" d="M59.4,20.38c.92-.64,1.68-1.16,1.7-1.16s-.71.52-1.63,1.15-1.68,1.15-1.7,1.15S58.48,21,59.4,20.38Z"/><path class="cls-61" d="M64.3,17c.92-.64,1.68-1.15,1.7-1.15s-.71.51-1.63,1.14-1.68,1.16-1.7,1.16S63.38,17.62,64.3,17Z"/><path class="cls-62" d="M59,19.93l2-.84s-.89.41-2,.89-2,.86-2,.84Z"/><path class="cls-63" d="M64.8,17.38c1.09-.48,2-.86,2-.84l-2,.89-2,.84Z"/><path class="cls-64" d="M61.27,19.82a4.34,4.34,0,0,1,.44-.78,3.84,3.84,0,0,1-.32.73,6.34,6.34,0,0,1-.44.79A3.47,3.47,0,0,1,61.27,19.82Z"/><path class="cls-65" d="M62.38,17.59a6.34,6.34,0,0,1,.44-.79,3.47,3.47,0,0,1-.32.74,4.34,4.34,0,0,1-.44.78A3.84,3.84,0,0,1,62.38,17.59Z"/></g><path class="cls-66" d="M67.43,14.22s4.12-.89,1.9,2.16-15.09,8.82-17.42,9,3.68-4,7.22-6S67.43,14.22,67.43,14.22Z"/><path class="cls-3" d="M67.43,14.22l-.19-.15c-.76-.58-1.5-1.16-2.27-1.73l-23,12.78c.59.67,1.78,2,1.94,2.17.88,1,9-2,13.85-4.66S67.87,15.8,67.43,14.22Z"/><path class="cls-67" d="M42.48,24.81l2.46,2.67a31.6,31.6,0,0,0,7.64-2.4l-1.89-1.83C50,22.62,42.48,24.81,42.48,24.81Z"/><path class="cls-68" d="M63.33,13.25s-4.9,4.7-4.19,5.31l2.17,1.86a26.57,26.57,0,0,0,5.43-4.55C66.35,15.58,64.09,13.82,63.33,13.25Z"/><path class="cls-3" d="M65,12.34c1.32,1.19-2.78,5-9.14,8.55s-12.59,5.42-13.91,4.23,2.79-5,9.15-8.56S63.66,11.14,65,12.34Z"/><ellipse class="cls-6" cx="53.45" cy="18.73" rx="12.86" ry="2.95" transform="translate(-2.55 27.21) rotate(-27.93)"/><path class="cls-69" d="M62,14c.06.05.28.06.13.21s-.34.27-.33.33.52.08.15.41a3.91,3.91,0,0,0-1,1.42,3.72,3.72,0,0,1-1,.76c-.53.3-.55.5-1,.77-.68.38-.51.34-.77.62a4.37,4.37,0,0,1-1.37.82c-.58.26-1.06.67-1.58.95a15.89,15.89,0,0,1-2,1c-.32.13-.65.32-1,.47s-.45.17-.69.27-.7.27-1,.4-.8.37-1.09.47-1,.4-1.39.5c-.2.06-.45.15-.63.19s-.11-.11-.3-.08-1,.2-1,.09-.37-.05-.77,0-.41,0-.54-.1.64-.48.3-.45-.14-.21-.09-.42.27-.42,0-.51.67-.44.81-.61-.32,0,0-.31.7-.5,1-.74.08-.17.12-.25a3.2,3.2,0,0,1,.68-.44c.46-.27.67-.52,1.17-.82s.5-.44,1-.72a10.56,10.56,0,0,1,1.59-.9,16.78,16.78,0,0,0,2.06-1.07,2.4,2.4,0,0,1,1.1-.54c.43-.12,1.16-.53,1.66-.73s.37,0,1-.35a3.14,3.14,0,0,1,1.31-.39c.3,0,.91-.3,1.31-.42s.14.19.76,0,.47,0,.87,0c.21,0,.18,0,.18.12S61.88,14,62,14Z"/><path class="cls-70" d="M57.15,16.68c.1.09,0,.31-.14.52a7.54,7.54,0,0,1-.69.7,4.28,4.28,0,0,1-.77.69c-.21.14-.5.26-.73.4l-.84.49a8.75,8.75,0,0,1-1.5.75c-.46.15-1,.32-1.38.42s-.77.28-.87.21a1,1,0,0,0-.48-.22c-.2,0,.11-.3.12-.43s.34-.43.72-.71.59-.48.95-.74,1.05-.61,1.6-1a9.22,9.22,0,0,1,1.34-.6,5.17,5.17,0,0,1,1.28-.46.78.78,0,0,0,.31,0,2.84,2.84,0,0,1,.52-.15c.15,0,.08.1.18.12S57.09,16.63,57.15,16.68Z"/><g class="cls-9"><path class="cls-71" d="M52.67,17.84c.33.3.55.56.5.59a2.28,2.28,0,0,1-.67-.5c-.33-.29-.55-.56-.51-.58S52.34,17.54,52.67,17.84Z"/><path class="cls-72" d="M54.41,19.43c.33.29.55.56.51.58s-.35-.19-.68-.49-.55-.56-.51-.59A2.25,2.25,0,0,1,54.41,19.43Z"/><path class="cls-73" d="M49.22,21c1.58-.88,2.87-1.59,2.88-1.58s-1.27.73-2.85,1.61-2.88,1.58-2.89,1.57S47.63,21.88,49.22,21Z"/><path class="cls-74" d="M57.66,16.32c1.58-.88,2.87-1.58,2.88-1.57s-1.26.73-2.85,1.6-2.87,1.59-2.88,1.58S56.07,17.2,57.66,16.32Z"/><path class="cls-75" d="M49.9,19.73c1.35-.41,2.43-.72,2.4-.7s-1.14.38-2.49.79-2.43.72-2.4.7S48.55,20.14,49.9,19.73Z"/><path class="cls-76" d="M57.1,17.54c1.35-.41,2.43-.72,2.4-.7s-1.14.38-2.49.79-2.43.72-2.4.7S55.75,18,57.1,17.54Z"/><path class="cls-77" d="M51,20.92c.89-.83,1.64-1.52,1.68-1.53s-.64.65-1.53,1.48-1.64,1.52-1.68,1.53S50.12,21.75,51,20.92Z"/><path class="cls-78" d="M55.75,16.49c.89-.84,1.64-1.52,1.68-1.53s-.64.65-1.53,1.48S54.25,18,54.21,18,54.86,17.32,55.75,16.49Z"/><path class="cls-79" d="M51.84,18.76a8.66,8.66,0,0,1,1.08,0l-1.18.11a8.61,8.61,0,0,1-1.08,0A11.57,11.57,0,0,1,51.84,18.76Z"/><path class="cls-80" d="M55.17,18.53a8.49,8.49,0,0,1,1.07,0,10.85,10.85,0,0,1-1.17.11,8.66,8.66,0,0,1-1.08,0Z"/><path class="cls-81" d="M51,20.38c.92-.64,1.68-1.16,1.7-1.16S52,19.74,51,20.37s-1.68,1.15-1.7,1.15S50.05,21,51,20.38Z"/><path class="cls-82" d="M55.87,17c.92-.64,1.68-1.15,1.7-1.15s-.71.51-1.63,1.14-1.68,1.16-1.7,1.16S55,17.62,55.87,17Z"/><path class="cls-83" d="M50.56,19.93l2-.84s-.89.41-2,.89-2,.86-2,.84Z"/><path class="cls-84" d="M56.37,17.38c1.09-.48,2-.86,2-.84l-2,.89-2,.84Z"/><path class="cls-85" d="M52.84,19.82a4.34,4.34,0,0,1,.44-.78,4.89,4.89,0,0,1-.32.73,6.34,6.34,0,0,1-.44.79A3.47,3.47,0,0,1,52.84,19.82Z"/><path class="cls-86" d="M54,17.59a6.34,6.34,0,0,1,.44-.79,3.47,3.47,0,0,1-.32.74,4.34,4.34,0,0,1-.44.78A3.84,3.84,0,0,1,54,17.59Z"/></g><path class="cls-66" d="M59.15,14.22s4.12-.89,1.9,2.16S46,25.2,43.63,25.36s3.68-4,7.22-6S59.15,14.22,59.15,14.22Z"/><path class="cls-3" d="M59.15,14.22,59,14.07c-.76-.58-1.5-1.16-2.27-1.73l-23,12.78c.59.67,1.78,2,1.94,2.17.88,1,9-2,13.85-4.66S59.59,15.8,59.15,14.22Z"/><path class="cls-87" d="M34.2,24.81l2.46,2.67a31.6,31.6,0,0,0,7.64-2.4l-1.89-1.83C41.75,22.62,34.2,24.81,34.2,24.81Z"/><path class="cls-88" d="M55.05,13.25s-4.9,4.7-4.19,5.31L53,20.42a26.57,26.57,0,0,0,5.43-4.55C58.07,15.58,55.81,13.82,55.05,13.25Z"/><path class="cls-3" d="M56.69,12.34c1.32,1.19-2.78,5-9.14,8.55S35,26.31,33.64,25.12s2.79-5,9.15-8.56S55.38,11.14,56.69,12.34Z"/><ellipse class="cls-6" cx="45.17" cy="18.73" rx="12.86" ry="2.95" transform="translate(-3.51 23.33) rotate(-27.93)"/><path class="cls-89" d="M53.67,14c.06.05.28.06.13.21s-.34.27-.33.33.52.08.15.41a3.91,3.91,0,0,0-1,1.42,3.72,3.72,0,0,1-1,.76c-.53.3-.55.5-1,.77-.68.38-.51.34-.77.62a4.37,4.37,0,0,1-1.37.82c-.58.26-1.06.67-1.58.95a15.89,15.89,0,0,1-2,1c-.32.13-.65.32-1,.47s-.45.17-.69.27-.7.27-1,.4-.8.37-1.09.47-1,.4-1.39.5c-.2.06-.45.15-.64.19s-.1-.11-.29-.08-1,.2-1,.09-.37-.05-.77,0-.42,0-.54-.1.64-.48.3-.45-.14-.21-.09-.42.27-.42,0-.51.67-.44.81-.61-.32,0,0-.31.7-.5,1-.74c.13-.11.08-.17.12-.25a3.2,3.2,0,0,1,.68-.44c.46-.27.66-.52,1.17-.82s.5-.44,1-.72a10.56,10.56,0,0,1,1.59-.9,16.78,16.78,0,0,0,2.06-1.07,2.4,2.4,0,0,1,1.1-.54c.43-.12,1.16-.53,1.65-.73s.37,0,1-.35a3.14,3.14,0,0,1,1.31-.39c.3,0,.91-.3,1.31-.42s.14.19.76,0,.47,0,.87,0c.21,0,.18,0,.18.12S53.6,14,53.67,14Z"/><path class="cls-90" d="M48.86,16.68c.11.09,0,.31-.13.52a7.54,7.54,0,0,1-.69.7,4.28,4.28,0,0,1-.77.69c-.21.14-.5.26-.73.4l-.84.49a8.75,8.75,0,0,1-1.5.75c-.46.15-1,.32-1.38.42s-.77.28-.87.21a1,1,0,0,0-.48-.22c-.2,0,.11-.3.12-.43s.34-.43.72-.71.59-.48.95-.74,1-.61,1.6-1a9.22,9.22,0,0,1,1.34-.6,5.17,5.17,0,0,1,1.28-.46.78.78,0,0,0,.31,0,2.84,2.84,0,0,1,.52-.15c.15,0,.08.1.18.12S48.81,16.63,48.86,16.68Z"/><g class="cls-9"><path class="cls-91" d="M44.39,17.84c.33.3.55.56.5.59a2.28,2.28,0,0,1-.67-.5c-.33-.29-.56-.56-.51-.58S44.06,17.54,44.39,17.84Z"/><path class="cls-92" d="M46.13,19.43c.33.29.55.56.51.58s-.35-.19-.68-.49-.55-.56-.51-.59A2.25,2.25,0,0,1,46.13,19.43Z"/><path class="cls-93" d="M40.93,21c1.59-.88,2.88-1.59,2.89-1.58S42.55,20.16,41,21s-2.88,1.58-2.89,1.57S39.35,21.88,40.93,21Z"/><path class="cls-94" d="M49.38,16.32c1.58-.88,2.87-1.58,2.88-1.57s-1.26.73-2.85,1.6-2.87,1.59-2.88,1.58S47.79,17.2,49.38,16.32Z"/><path class="cls-95" d="M41.62,19.73C43,19.32,44.05,19,44,19s-1.14.38-2.49.79-2.43.72-2.4.7S40.27,20.14,41.62,19.73Z"/><path class="cls-96" d="M48.82,17.54c1.35-.41,2.43-.72,2.4-.7s-1.14.38-2.49.79-2.43.72-2.4.7S47.47,18,48.82,17.54Z"/><path class="cls-97" d="M42.73,20.92c.89-.83,1.64-1.52,1.68-1.53s-.64.65-1.53,1.48-1.64,1.52-1.69,1.53S41.84,21.75,42.73,20.92Z"/><path class="cls-98" d="M47.47,16.49c.89-.84,1.64-1.52,1.68-1.53s-.64.65-1.53,1.48S46,18,45.93,18,46.58,17.32,47.47,16.49Z"/><path class="cls-99" d="M43.56,18.76a8.66,8.66,0,0,1,1.08,0l-1.18.11a8.61,8.61,0,0,1-1.08,0A11.57,11.57,0,0,1,43.56,18.76Z"/><path class="cls-100" d="M46.88,18.53a8.66,8.66,0,0,1,1.08,0,10.85,10.85,0,0,1-1.17.11,8.66,8.66,0,0,1-1.08,0Z"/><path class="cls-101" d="M42.69,20.38c.92-.64,1.68-1.16,1.7-1.16s-.71.52-1.63,1.15-1.68,1.15-1.7,1.15S41.77,21,42.69,20.38Z"/><path class="cls-102" d="M47.59,17c.92-.64,1.68-1.15,1.7-1.15s-.71.51-1.63,1.14S46,18.14,46,18.14,46.67,17.62,47.59,17Z"/><path class="cls-103" d="M42.28,19.93l2-.84s-.89.41-2,.89-2,.86-2,.84Z"/><path class="cls-104" d="M48.09,17.38c1.09-.48,2-.86,2-.84s-.89.41-2,.89l-2,.84Z"/><path class="cls-105" d="M44.56,19.82A4.34,4.34,0,0,1,45,19a4.89,4.89,0,0,1-.32.73,6.34,6.34,0,0,1-.44.79A3.47,3.47,0,0,1,44.56,19.82Z"/><path class="cls-106" d="M45.67,17.59a6.34,6.34,0,0,1,.44-.79,3.47,3.47,0,0,1-.32.74,5.16,5.16,0,0,1-.44.78A3.84,3.84,0,0,1,45.67,17.59Z"/></g><path class="cls-66" d="M50.87,14.22s4.12-.89,1.9,2.16-15.09,8.82-17.43,9,3.69-4,7.23-6S50.87,14.22,50.87,14.22Z"/><path class="cls-3" d="M50.87,14.22l-.19-.15c-.76-.58-1.5-1.16-2.27-1.73l-23,12.78c.59.67,1.78,2,1.94,2.17.88,1,9-2,13.85-4.66S51.31,15.8,50.87,14.22Z"/><path class="cls-107" d="M25.92,24.81l2.46,2.67A31.6,31.6,0,0,0,36,25.08l-1.89-1.83C33.47,22.62,25.92,24.81,25.92,24.81Z"/><path class="cls-108" d="M46.77,13.25s-4.9,4.7-4.19,5.31,1.45,1.25,2.17,1.86a26.2,26.2,0,0,0,5.42-4.55C49.79,15.58,47.53,13.82,46.77,13.25Z"/><path class="cls-3" d="M48.41,12.34c1.31,1.19-2.78,5-9.15,8.55s-12.58,5.42-13.9,4.23,2.79-5,9.15-8.56S47.1,11.14,48.41,12.34Z"/><ellipse class="cls-6" cx="36.89" cy="18.73" rx="12.86" ry="2.95" transform="translate(-4.48 19.46) rotate(-27.93)"/><path class="cls-109" d="M45.39,14c.06.05.28.06.13.21s-.34.27-.33.33.52.08.15.41a3.91,3.91,0,0,0-1,1.42,3.72,3.72,0,0,1-1,.76c-.53.3-.55.5-1,.77-.68.38-.51.34-.77.62a4.37,4.37,0,0,1-1.37.82c-.58.26-1.06.67-1.58.95a15.89,15.89,0,0,1-2,1c-.32.13-.65.32-1,.47s-.45.17-.69.27-.7.27-1,.4-.8.37-1.09.47-1,.4-1.39.5c-.2.06-.45.15-.64.19s-.1-.11-.29-.08-1,.2-1,.09-.37-.05-.77,0-.42,0-.54-.1.64-.48.3-.45-.14-.21-.09-.42.27-.42,0-.51.67-.44.81-.61-.32,0,0-.31.7-.5,1-.74.08-.17.12-.25A3.2,3.2,0,0,1,31,19.8c.46-.27.66-.52,1.17-.82s.5-.44,1-.72a10.56,10.56,0,0,1,1.59-.9,16.78,16.78,0,0,0,2.06-1.07,2.4,2.4,0,0,1,1.1-.54c.43-.12,1.16-.53,1.65-.73s.37,0,1-.35a3.14,3.14,0,0,1,1.31-.39c.3,0,.91-.3,1.31-.42s.14.19.76,0,.47,0,.87,0c.21,0,.18,0,.18.12S45.32,14,45.39,14Z"/><path class="cls-110" d="M40.58,16.68c.11.09,0,.31-.13.52a7.54,7.54,0,0,1-.69.7,4.28,4.28,0,0,1-.77.69c-.21.14-.5.26-.73.4l-.84.49a8.75,8.75,0,0,1-1.5.75c-.46.15-1,.32-1.38.42s-.77.28-.87.21a1,1,0,0,0-.48-.22c-.2,0,.11-.3.12-.43s.34-.43.72-.71.59-.48.95-.74,1-.61,1.6-1a9.22,9.22,0,0,1,1.34-.6,5.17,5.17,0,0,1,1.28-.46.78.78,0,0,0,.31,0,2.84,2.84,0,0,1,.52-.15c.15,0,.08.1.18.12S40.53,16.63,40.58,16.68Z"/><g class="cls-9"><path class="cls-111" d="M36.11,17.84c.32.3.55.56.5.59a2.28,2.28,0,0,1-.67-.5c-.33-.29-.56-.56-.51-.58S35.78,17.54,36.11,17.84Z"/><path class="cls-112" d="M37.85,19.43c.33.29.55.56.51.58s-.35-.19-.68-.49-.55-.56-.51-.59A2.25,2.25,0,0,1,37.85,19.43Z"/><path class="cls-113" d="M32.65,21c1.59-.88,2.88-1.59,2.89-1.58s-1.27.73-2.85,1.61-2.88,1.58-2.89,1.57S31.07,21.88,32.65,21Z"/><path class="cls-114" d="M41.1,16.32c1.58-.88,2.87-1.58,2.88-1.57s-1.26.73-2.85,1.6-2.87,1.59-2.88,1.58S39.51,17.2,41.1,16.32Z"/><path class="cls-115" d="M33.34,19.73c1.35-.41,2.42-.72,2.4-.7s-1.14.38-2.5.79-2.42.72-2.39.7S32,20.14,33.34,19.73Z"/><path class="cls-116" d="M40.54,17.54c1.35-.41,2.43-.72,2.4-.7s-1.14.38-2.49.79-2.43.72-2.4.7S39.19,18,40.54,17.54Z"/><path class="cls-117" d="M34.45,20.92c.89-.83,1.64-1.52,1.68-1.53s-.64.65-1.53,1.48S33,22.39,32.91,22.4,33.56,21.75,34.45,20.92Z"/><path class="cls-118" d="M39.19,16.49c.89-.84,1.64-1.52,1.68-1.53s-.65.65-1.53,1.48S37.69,18,37.65,18,38.3,17.32,39.19,16.49Z"/><path class="cls-119" d="M35.28,18.76a8.64,8.64,0,0,1,1.08,0l-1.18.11a8.61,8.61,0,0,1-1.08,0A11.57,11.57,0,0,1,35.28,18.76Z"/><path class="cls-120" d="M38.6,18.53a8.66,8.66,0,0,1,1.08,0,10.85,10.85,0,0,1-1.17.11,8.66,8.66,0,0,1-1.08,0Z"/><path class="cls-121" d="M34.41,20.38c.92-.64,1.68-1.16,1.7-1.16s-.71.52-1.63,1.15-1.68,1.15-1.7,1.15S33.49,21,34.41,20.38Z"/><path class="cls-122" d="M39.31,17c.92-.64,1.68-1.15,1.7-1.15s-.71.51-1.63,1.14-1.68,1.16-1.7,1.16S38.39,17.62,39.31,17Z"/><path class="cls-123" d="M34,19.93l2-.84L34,20c-1.09.48-2,.86-2,.84Z"/><path class="cls-124" d="M39.81,17.38c1.09-.48,2-.86,2-.84s-.89.41-2,.89l-2,.84Z"/><path class="cls-125" d="M36.28,19.82a5.65,5.65,0,0,1,.43-.78,3.35,3.35,0,0,1-.31.73,6.34,6.34,0,0,1-.44.79A3.47,3.47,0,0,1,36.28,19.82Z"/><path class="cls-126" d="M37.39,17.59a6.34,6.34,0,0,1,.44-.79,3.47,3.47,0,0,1-.32.74,5.16,5.16,0,0,1-.44.78A3.84,3.84,0,0,1,37.39,17.59Z"/></g><path class="cls-66" d="M42.59,14.22s4.12-.89,1.9,2.16-15.09,8.82-17.43,9,3.69-4,7.23-6S42.59,14.22,42.59,14.22Z"/><path class="cls-3" d="M42.59,14.22l-.19-.15c-.76-.58-1.5-1.16-2.27-1.73L17.08,25.12c.59.67,1.78,2,1.94,2.17.88,1,9-2,13.85-4.66S43,15.8,42.59,14.22Z"/><path class="cls-127" d="M17.64,24.81l2.46,2.67a31.6,31.6,0,0,0,7.64-2.4l-1.89-1.83C25.19,22.62,17.64,24.81,17.64,24.81Z"/><path class="cls-128" d="M38.49,13.25s-4.9,4.7-4.19,5.31,1.45,1.25,2.17,1.86a26.2,26.2,0,0,0,5.42-4.55C41.51,15.58,39.25,13.82,38.49,13.25Z"/><path class="cls-3" d="M40.13,12.34c1.31,1.19-2.78,5-9.15,8.55s-12.58,5.42-13.9,4.23,2.79-5,9.15-8.56S38.82,11.14,40.13,12.34Z"/><ellipse class="cls-6" cx="28.61" cy="18.73" rx="12.86" ry="2.95" transform="translate(-5.44 15.58) rotate(-27.93)"/><path class="cls-129" d="M37.11,14c.06.05.28.06.13.21s-.34.27-.33.33.52.08.15.41a3.91,3.91,0,0,0-1,1.42,3.72,3.72,0,0,1-1,.76c-.53.3-.55.5-1,.77-.68.38-.51.34-.77.62a4.37,4.37,0,0,1-1.37.82c-.58.26-1.07.67-1.58.95a15.89,15.89,0,0,1-2,1c-.32.13-.65.32-1,.47s-.45.17-.7.27-.69.27-1,.4-.8.37-1.09.47-1,.4-1.39.5c-.2.06-.45.15-.64.19s-.1-.11-.29-.08-1,.2-1,.09-.38-.05-.77,0-.42,0-.54-.1.64-.48.3-.45-.14-.21-.09-.42.27-.42,0-.51.67-.44.81-.61-.32,0,0-.31.7-.5,1-.74c.13-.11.08-.17.12-.25a3.2,3.2,0,0,1,.68-.44c.46-.27.66-.52,1.17-.82s.5-.44,1-.72a10.56,10.56,0,0,1,1.59-.9,16.78,16.78,0,0,0,2.06-1.07,2.4,2.4,0,0,1,1.1-.54c.43-.12,1.16-.53,1.65-.73s.37,0,1-.35a3.14,3.14,0,0,1,1.31-.39c.3,0,.91-.3,1.31-.42s.14.19.76,0,.47,0,.87,0c.21,0,.18,0,.18.12S37,14,37.11,14Z"/><path class="cls-130" d="M32.3,16.68c.1.09,0,.31-.13.52a7.54,7.54,0,0,1-.69.7,4.28,4.28,0,0,1-.77.69c-.21.14-.5.26-.73.4l-.84.49a8.75,8.75,0,0,1-1.5.75c-.46.15-1,.32-1.38.42s-.77.28-.87.21a1,1,0,0,0-.48-.22c-.2,0,.11-.3.12-.43s.34-.43.72-.71.59-.48.95-.74,1-.61,1.6-1a9.22,9.22,0,0,1,1.34-.6,5.17,5.17,0,0,1,1.28-.46.78.78,0,0,0,.31,0,2.84,2.84,0,0,1,.52-.15c.15,0,.08.1.18.12S32.25,16.63,32.3,16.68Z"/><g class="cls-9"><path class="cls-131" d="M27.83,17.84c.32.3.55.56.5.59a2.28,2.28,0,0,1-.67-.5c-.33-.29-.56-.56-.51-.58S27.5,17.54,27.83,17.84Z"/><path class="cls-132" d="M29.57,19.43c.33.29.55.56.5.58a2,2,0,0,1-.67-.49c-.33-.3-.55-.56-.51-.59A2.25,2.25,0,0,1,29.57,19.43Z"/><path class="cls-133" d="M24.37,21c1.59-.88,2.88-1.59,2.89-1.58S26,20.16,24.41,21s-2.88,1.58-2.89,1.57S22.79,21.88,24.37,21Z"/><path class="cls-134" d="M32.82,16.32c1.58-.88,2.87-1.58,2.88-1.57s-1.26.73-2.85,1.6S30,17.94,30,17.93,31.23,17.2,32.82,16.32Z"/><path class="cls-135" d="M25.06,19.73c1.35-.41,2.42-.72,2.4-.7s-1.14.38-2.5.79-2.42.72-2.39.7S23.71,20.14,25.06,19.73Z"/><path class="cls-136" d="M32.26,17.54c1.35-.41,2.43-.72,2.4-.7s-1.14.38-2.49.79-2.43.72-2.4.7S30.91,18,32.26,17.54Z"/><path class="cls-137" d="M26.17,20.92c.89-.83,1.64-1.52,1.68-1.53s-.64.65-1.53,1.48-1.65,1.52-1.69,1.53S25.28,21.75,26.17,20.92Z"/><path class="cls-138" d="M30.91,16.49c.89-.84,1.64-1.52,1.68-1.53s-.65.65-1.53,1.48S29.41,18,29.37,18,30,17.32,30.91,16.49Z"/><path class="cls-139" d="M27,18.76a8.64,8.64,0,0,1,1.08,0l-1.18.11a8.61,8.61,0,0,1-1.08,0A11.57,11.57,0,0,1,27,18.76Z"/><path class="cls-140" d="M30.32,18.53a8.66,8.66,0,0,1,1.08,0,10.85,10.85,0,0,1-1.17.11,8.66,8.66,0,0,1-1.08,0Z"/><path class="cls-141" d="M26.13,20.38c.92-.64,1.68-1.16,1.7-1.16s-.71.52-1.63,1.15-1.68,1.15-1.7,1.15S25.21,21,26.13,20.38Z"/><path class="cls-142" d="M31,17c.92-.64,1.68-1.15,1.7-1.15L31.1,17c-.92.64-1.68,1.16-1.7,1.16S30.11,17.62,31,17Z"/><path class="cls-143" d="M25.72,19.93l2-.84-2,.89c-1.1.48-2,.86-2,.84Z"/><path class="cls-144" d="M31.53,17.38c1.09-.48,2-.86,2-.84s-.89.41-2,.89l-2,.84Z"/><path class="cls-145" d="M28,19.82a5.65,5.65,0,0,1,.43-.78,3.35,3.35,0,0,1-.31.73,6.34,6.34,0,0,1-.44.79A3.47,3.47,0,0,1,28,19.82Z"/><path class="cls-146" d="M29.11,17.59a6.34,6.34,0,0,1,.44-.79,3.47,3.47,0,0,1-.32.74,5.16,5.16,0,0,1-.44.78A3.84,3.84,0,0,1,29.11,17.59Z"/></g><path class="cls-66" d="M34.31,14.22s4.12-.89,1.9,2.16-15.09,8.82-17.43,9,3.69-4,7.23-6S34.31,14.22,34.31,14.22Z"/><path class="cls-3" d="M34.31,14.22l-.19-.15c-.76-.58-1.5-1.16-2.27-1.73L8.8,25.12c.59.67,1.78,2,1.94,2.17.88,1,9-2,13.85-4.66S34.75,15.8,34.31,14.22Z"/><path class="cls-147" d="M9.36,24.81l2.46,2.67a31.6,31.6,0,0,0,7.64-2.4l-1.9-1.83C16.91,22.62,9.36,24.81,9.36,24.81Z"/><path class="cls-148" d="M30.21,13.25S25.31,18,26,18.56s1.45,1.25,2.17,1.86a26.2,26.2,0,0,0,5.42-4.55C33.23,15.58,31,13.82,30.21,13.25Z"/><path class="cls-3" d="M31.85,12.34c1.31,1.19-2.78,5-9.15,8.55S10.12,26.31,8.8,25.12s2.79-5,9.15-8.56S30.54,11.14,31.85,12.34Z"/><ellipse class="cls-6" cx="20.33" cy="18.73" rx="12.86" ry="2.95" transform="translate(-6.4 11.7) rotate(-27.93)"/><path class="cls-149" d="M28.83,14c.05.05.28.06.13.21s-.34.27-.33.33.52.08.15.41a3.91,3.91,0,0,0-1,1.42,3.72,3.72,0,0,1-1,.76c-.53.3-.55.5-1,.77-.68.38-.51.34-.77.62a4.37,4.37,0,0,1-1.37.82c-.58.26-1.07.67-1.58.95a15.89,15.89,0,0,1-2,1c-.32.13-.65.32-1,.47s-.45.17-.7.27-.69.27-1,.4-.8.37-1.09.47-1,.4-1.39.5c-.2.06-.45.15-.64.19s-.1-.11-.29-.08-1,.2-1,.09-.38-.05-.77,0-.42,0-.54-.1.64-.48.3-.45-.14-.21-.09-.42.27-.42,0-.51.67-.44.81-.61-.32,0,0-.31.7-.5,1-.74.08-.17.12-.25a3,3,0,0,1,.68-.44c.45-.27.66-.52,1.17-.82s.5-.44,1-.72a10.56,10.56,0,0,1,1.59-.9,16.78,16.78,0,0,0,2.06-1.07,2.4,2.4,0,0,1,1.1-.54c.43-.12,1.16-.53,1.65-.73s.37,0,1-.35a3.14,3.14,0,0,1,1.31-.39c.3,0,.91-.3,1.31-.42s.14.19.76,0,.47,0,.87,0c.21,0,.18,0,.17.12S28.76,14,28.83,14Z"/><path class="cls-150" d="M24,16.68c.1.09,0,.31-.13.52a7.54,7.54,0,0,1-.69.7,4.28,4.28,0,0,1-.77.69c-.21.14-.5.26-.73.4l-.84.49a8.75,8.75,0,0,1-1.5.75c-.46.15-1,.32-1.38.42s-.77.28-.87.21a1,1,0,0,0-.48-.22c-.2,0,.11-.3.12-.43s.34-.43.72-.71.59-.48,1-.74,1-.61,1.6-1a9.22,9.22,0,0,1,1.34-.6,5.17,5.17,0,0,1,1.28-.46.78.78,0,0,0,.31,0,2.84,2.84,0,0,1,.52-.15c.14,0,.08.1.18.12S24,16.63,24,16.68Z"/><g class="cls-9"><path class="cls-151" d="M19.55,17.84c.32.3.55.56.5.59a2.28,2.28,0,0,1-.67-.5c-.33-.29-.56-.56-.51-.58S19.22,17.54,19.55,17.84Z"/><path class="cls-152" d="M21.29,19.43c.33.29.55.56.5.58a2,2,0,0,1-.67-.49c-.33-.3-.55-.56-.51-.59A2.25,2.25,0,0,1,21.29,19.43Z"/><path class="cls-153" d="M16.09,21c1.59-.88,2.88-1.59,2.89-1.58s-1.27.73-2.85,1.61-2.88,1.58-2.89,1.57S14.51,21.88,16.09,21Z"/><path class="cls-154" d="M24.54,16.32c1.58-.88,2.87-1.58,2.88-1.57s-1.26.73-2.85,1.6-2.87,1.59-2.88,1.58S23,17.2,24.54,16.32Z"/><path class="cls-155" d="M16.78,19.73c1.35-.41,2.42-.72,2.4-.7s-1.15.38-2.5.79-2.42.72-2.39.7S15.43,20.14,16.78,19.73Z"/><path class="cls-156" d="M24,17.54c1.35-.41,2.43-.72,2.4-.7s-1.14.38-2.49.79-2.43.72-2.4.7S22.63,18,24,17.54Z"/><path class="cls-157" d="M17.89,20.92c.89-.83,1.64-1.52,1.68-1.53S18.92,20,18,20.87s-1.65,1.52-1.69,1.53S17,21.75,17.89,20.92Z"/><path class="cls-158" d="M22.63,16.49c.89-.84,1.64-1.52,1.68-1.53s-.65.65-1.53,1.48S21.13,18,21.09,18,21.74,17.32,22.63,16.49Z"/><path class="cls-159" d="M18.72,18.76a8.64,8.64,0,0,1,1.08,0l-1.18.11a8.61,8.61,0,0,1-1.08,0A11.57,11.57,0,0,1,18.72,18.76Z"/><path class="cls-160" d="M22,18.53a8.66,8.66,0,0,1,1.08,0,10.87,10.87,0,0,1-1.18.11,8.49,8.49,0,0,1-1.07,0Z"/><path class="cls-161" d="M17.85,20.38c.92-.64,1.68-1.16,1.7-1.16s-.71.52-1.63,1.15-1.68,1.15-1.7,1.15S16.93,21,17.85,20.38Z"/><path class="cls-162" d="M22.75,17c.92-.64,1.68-1.15,1.7-1.15L22.82,17c-.92.64-1.68,1.16-1.7,1.16S21.83,17.62,22.75,17Z"/><path class="cls-163" d="M17.44,19.93l2-.84s-.89.41-2,.89-2,.86-2,.84Z"/><path class="cls-164" d="M23.25,17.38c1.09-.48,2-.86,2-.84s-.89.41-2,.89l-2,.84Z"/><path class="cls-165" d="M19.72,19.82a5.65,5.65,0,0,1,.43-.78,3.16,3.16,0,0,1-.32.73,5.61,5.61,0,0,1-.43.79A3.47,3.47,0,0,1,19.72,19.82Z"/><path class="cls-166" d="M20.83,17.59a6.34,6.34,0,0,1,.44-.79,3.47,3.47,0,0,1-.32.74,5.16,5.16,0,0,1-.44.78A3.84,3.84,0,0,1,20.83,17.59Z"/></g><path class="cls-66" d="M26,14.22s4.12-.89,1.9,2.16-15.09,8.82-17.43,9,3.69-4,7.23-6S26,14.22,26,14.22Z"/><path class="cls-3" d="M26,14.22l-.19-.15c-.76-.58-1.5-1.16-2.27-1.73L.52,25.12l1.93,2.17c.89,1,9-2,13.86-4.66S26.47,15.8,26,14.22Z"/><path class="cls-167" d="M1.08,24.81l2.46,2.67a31.6,31.6,0,0,0,7.64-2.4l-1.9-1.83C8.63,22.62,1.08,24.81,1.08,24.81Z"/><path class="cls-168" d="M21.93,13.25S17,18,17.74,18.56s1.45,1.25,2.17,1.86a26.2,26.2,0,0,0,5.42-4.55C25,15.58,22.69,13.82,21.93,13.25Z"/><path class="cls-3" d="M23.57,12.34c1.31,1.19-2.78,5-9.15,8.55S1.84,26.31.52,25.12s2.79-5,9.15-8.56S22.26,11.14,23.57,12.34Z"/><ellipse class="cls-6" cx="12.05" cy="18.73" rx="12.86" ry="2.95" transform="translate(-7.37 7.82) rotate(-27.93)"/><path class="cls-169" d="M20.55,14c.05.05.28.06.13.21s-.34.27-.33.33.52.08.15.41a3.91,3.91,0,0,0-1,1.42,3.72,3.72,0,0,1-1,.76c-.53.3-.55.5-1,.77-.68.38-.51.34-.77.62a4.37,4.37,0,0,1-1.37.82c-.58.26-1.07.67-1.58.95a15.89,15.89,0,0,1-2,1c-.32.13-.65.32-1,.47s-.45.17-.7.27-.69.27-1,.4-.8.37-1.09.47-1,.4-1.39.5c-.2.06-.45.15-.64.19s-.1-.11-.29-.08-1,.2-1,.09-.37-.05-.76,0-.42,0-.54-.1.64-.48.3-.45-.14-.21-.09-.42.27-.42,0-.51.67-.44.81-.61-.32,0,0-.31.7-.5,1-.74c.13-.11.08-.17.12-.25a3,3,0,0,1,.68-.44c.45-.27.66-.52,1.17-.82s.5-.44,1-.72a10.56,10.56,0,0,1,1.59-.9A16.78,16.78,0,0,0,12,16.29a2.4,2.4,0,0,1,1.1-.54c.42-.12,1.16-.53,1.65-.73s.37,0,1-.35a3.21,3.21,0,0,1,1.32-.39c.3,0,.91-.3,1.31-.42s.14.19.76,0,.47,0,.87,0c.21,0,.18,0,.17.12S20.48,14,20.55,14Z"/><path class="cls-170" d="M15.74,16.68c.1.09,0,.31-.13.52a9,9,0,0,1-.69.7,4.66,4.66,0,0,1-.77.69c-.21.14-.5.26-.74.4s-.55.32-.83.49a9.13,9.13,0,0,1-1.5.75c-.47.15-1,.32-1.38.42s-.77.28-.87.21a1,1,0,0,0-.48-.22c-.2,0,.11-.3.12-.43s.34-.43.72-.71.59-.48,1-.74,1-.61,1.6-1a9.22,9.22,0,0,1,1.34-.6,5.17,5.17,0,0,1,1.28-.46.72.72,0,0,0,.3,0,3.16,3.16,0,0,1,.53-.15c.14,0,.08.1.18.12S15.69,16.63,15.74,16.68Z"/><path class="cls-171" d="M11.27,17.84c.32.3.55.56.5.59a2.28,2.28,0,0,1-.67-.5c-.33-.29-.56-.56-.51-.58S10.94,17.54,11.27,17.84Z"/><path class="cls-172" d="M13,19.43c.33.29.55.56.5.58a2,2,0,0,1-.67-.49c-.33-.3-.56-.56-.51-.59A2.25,2.25,0,0,1,13,19.43Z"/><path class="cls-173" d="M7.81,21c1.59-.88,2.88-1.59,2.89-1.58S9.43,20.16,7.85,21,5,22.62,5,22.61,6.23,21.88,7.81,21Z"/><path class="cls-174" d="M16.26,16.32c1.58-.88,2.87-1.58,2.88-1.57s-1.26.73-2.85,1.6-2.87,1.59-2.88,1.58S14.67,17.2,16.26,16.32Z"/><path class="cls-175" d="M8.5,19.73c1.35-.41,2.42-.72,2.4-.7s-1.15.38-2.5.79S6,20.54,6,20.52,7.15,20.14,8.5,19.73Z"/><path class="cls-176" d="M15.7,17.54c1.35-.41,2.43-.72,2.4-.7s-1.14.38-2.49.79-2.43.72-2.4.7S14.35,18,15.7,17.54Z"/><path class="cls-177" d="M9.61,20.92c.89-.83,1.64-1.52,1.68-1.53s-.65.65-1.53,1.48S8.11,22.39,8.07,22.4,8.72,21.75,9.61,20.92Z"/><path class="cls-178" d="M14.35,16.49C15.24,15.65,16,15,16,15s-.65.65-1.54,1.48S12.85,18,12.81,18,13.46,17.32,14.35,16.49Z"/><path class="cls-179" d="M10.44,18.76a8.64,8.64,0,0,1,1.08,0l-1.18.11a8.61,8.61,0,0,1-1.08,0A11.57,11.57,0,0,1,10.44,18.76Z"/><path class="cls-180" d="M13.76,18.53a8.66,8.66,0,0,1,1.08,0,11.21,11.21,0,0,1-1.18.11,8.49,8.49,0,0,1-1.07,0Z"/><path class="cls-181" d="M9.57,20.38c.92-.64,1.68-1.16,1.7-1.16s-.71.52-1.63,1.15S8,21.52,7.94,21.52,8.65,21,9.57,20.38Z"/><path class="cls-182" d="M14.47,17c.92-.64,1.68-1.15,1.7-1.15L14.54,17c-.92.64-1.68,1.16-1.7,1.16S13.55,17.62,14.47,17Z"/><path class="cls-183" d="M9.16,19.93l2-.84-2,.89c-1.09.48-2,.86-2,.84Z"/><path class="cls-184" d="M15,17.38c1.09-.48,2-.86,2-.84s-.89.41-2,.89-2,.85-2,.84Z"/><path class="cls-185" d="M11.44,19.82a5.65,5.65,0,0,1,.43-.78,3.16,3.16,0,0,1-.32.73,5.61,5.61,0,0,1-.43.79A2.92,2.92,0,0,1,11.44,19.82Z"/><path class="cls-186" d="M12.55,17.59A6.34,6.34,0,0,1,13,16.8a3.47,3.47,0,0,1-.32.74,5.16,5.16,0,0,1-.44.78A3.84,3.84,0,0,1,12.55,17.59Z"/><path class="cls-3" d="M101.18,4.5V26.41q1.25.14,2.49.24c29.88,2.68,42.05,10.42,42.05-11.19h0c0-21.62-12.17-13.88-42-11.2Z"/><path class="cls-187" d="M103.67,26.11c29.85,2.29,42,8.9,42-9.55,0,6.69-12.17,4.3-42,3.47L101.18,20V25.9Q102.43,26,103.67,26.11Z"/><path class="cls-188" d="M101.18,6.05v6l2.49-.08c29.87-.83,42-3.23,42.05,3.47v0h0c0-18.51-12.17-11.88-42-9.59Z"/><path class="cls-189" d="M108.59,17.68s.22-2.85.3-6.36,0-6.35,0-6.35a23.25,23.25,0,0,0-1.07,6.33A23.13,23.13,0,0,0,108.59,17.68Z"/><path class="cls-190" d="M108.59,17.68s-.08-2.85,0-6.36.3-6.35.3-6.35a45.58,45.58,0,0,0-.61,6.34A45,45,0,0,0,108.59,17.68Z"/><path class="cls-189" d="M120.86,17s.33-3.1.46-6.93,0-6.92,0-6.92A22.74,22.74,0,0,0,120,10,22.93,22.93,0,0,0,120.86,17Z"/><path class="cls-190" d="M120.86,17s-.08-3.11,0-6.93.42-6.92.42-6.92a43.21,43.21,0,0,0-.78,6.91A43.79,43.79,0,0,0,120.86,17Z"/><path class="cls-189" d="M130.46,16.47s.12-3.3.23-7.35.16-7.31.16-7.31a25.41,25.41,0,0,0-1.29,7.3A25.65,25.65,0,0,0,130.46,16.47Z"/><path class="cls-190" d="M130.46,16.47s-.09-3.29,0-7.34.38-7.32.38-7.32a48.51,48.51,0,0,0-.74,7.31A49.62,49.62,0,0,0,130.46,16.47Z"/><path class="cls-191" d="M135.21,30.2a35.41,35.41,0,0,1-2.09-7.67s-.76,4.61.66,7.68C134.17,30.22,135.05,30.21,135.21,30.2Z"/><path class="cls-190" d="M135.06,30.2a31.69,31.69,0,0,1-1.94-7.67s-.23,4.62,1.2,7.68C134.51,30.22,134.92,30.21,135.06,30.2Z"/><path class="cls-191" d="M115.31,28a24.27,24.27,0,0,1-1.73-6.32s-.81,3.68.45,6.14Z"/><path class="cls-190" d="M115.16,28a21.7,21.7,0,0,1-1.58-6.3s-.51,3.72.75,6.18Z"/><path class="cls-191" d="M145.29,20.73c-.21,0-.39-2.36-.39-5.27s.18-5.28.39-5.28.39,2.36.39,5.28S145.51,20.73,145.29,20.73Z"/><path class="cls-192" d="M145.36,19.59a15,15,0,0,1-.29-4.13,15,15,0,0,1,.29-4.14,15.76,15.76,0,0,1,.28,4.14A15.71,15.71,0,0,1,145.36,19.59Z"/><path class="cls-3" d="M101.18,4.5c.95,0,1.72,4.9,1.72,11s-.77,11-1.72,11-1.72-4.9-1.72-10.95S100.23,4.5,101.18,4.5Z"/><path class="cls-6" d="M101.18,4.8c.93,0,1.68,4.77,1.68,10.66s-.75,10.66-1.68,10.66S99.5,21.34,99.5,15.46,100.26,4.8,101.18,4.8Z"/><path class="cls-193" d="M101.18,7.37s.1-.13.14.06a2.43,2.43,0,0,0,.07.41c.08.08.18-.26.25.18a6.48,6.48,0,0,0,.42,1.51,4.91,4.91,0,0,1,.12,1.06c0,.51.09.64.09,1.12a2.17,2.17,0,0,0,.1.85,5.45,5.45,0,0,1,0,1.35c0,.51,0,1.06,0,1.55a17.55,17.55,0,0,1-.06,1.81c0,.27,0,.59,0,.88s0,.37,0,.58-.06.59-.09.87,0,.71-.06.95-.08.86-.14,1.15,0,.36-.08.5-.08,0-.12.12-.16.7-.23.65-.13.18-.2.47-.1.26-.19.26-.06-.69-.14-.48-.15,0-.23-.21-.14-.44-.25-.35,0-.68-.08-.87-.1.16-.16-.2,0-.74-.09-1.06a.51.51,0,0,0-.09-.23,3.51,3.51,0,0,1,0-.69c0-.44-.08-.73-.09-1.22s-.08-.59-.09-1.05a13,13,0,0,1,0-1.53c0-.32.06-1.55,0-1.9a2.94,2.94,0,0,1,0-1c.06-.33.06-1,.1-1.45a3,3,0,0,0,.1-.82,2.88,2.88,0,0,1,.17-1c.06-.21.1-.74.15-1s.14,0,.19-.47.15-.25.22-.54.07-.08.11,0,.1-.15.15-.15Z"/><path class="cls-194" d="M101.18,11.94c.07,0,.16.19.23.42s.1.6.15.86a6.84,6.84,0,0,1,.13.9c0,.22,0,.47,0,.7s0,.54,0,.81a10,10,0,0,1,0,1.37c-.06.37-.11.78-.17,1.09s-.07.64-.14.65a.29.29,0,0,0-.23.15c-.07.1-.12-.27-.19-.36a2.88,2.88,0,0,1-.15-.89c0-.37-.08-.65-.1-1,0-.53,0-1,0-1.57a10.86,10.86,0,0,1,.07-1.18,5.16,5.16,0,0,1,.13-1,.79.79,0,0,0,.06-.21,3.14,3.14,0,0,1,.07-.41c0-.09.07,0,.11,0s.06-.23.1-.23Z"/><g class="cls-9"><path class="cls-195" d="M100.53,15.34c.23,0,.43,0,.43.08s-.2.08-.43.08-.43,0-.43-.08S100.29,15.34,100.53,15.34Z"/><path class="cls-196" d="M101.79,15.34c.24,0,.43,0,.43.08s-.19.08-.43.08-.43,0-.43-.08S101.55,15.34,101.79,15.34Z"/><path class="cls-197" d="M101.15,19.44c0-1.51,0-2.73,0-2.73s0,1.22,0,2.73,0,2.72,0,2.72S101.15,20.94,101.15,19.44Z"/><path class="cls-198" d="M101.15,11.41c0-1.51,0-2.73,0-2.73s0,1.22,0,2.73,0,2.72,0,2.72S101.15,12.91,101.15,11.41Z"/><path class="cls-199" d="M100.7,18.2c.17-1.06.31-1.9.32-1.87s-.13.92-.3,2-.31,1.9-.31,1.87S100.54,19.27,100.7,18.2Z"/><path class="cls-200" d="M101.6,12.53c.16-1.07.3-1.91.31-1.87s-.13.92-.3,2-.3,1.9-.31,1.87S101.43,13.59,101.6,12.53Z"/><path class="cls-201" d="M101.6,18.32c-.17-1.07-.3-2-.3-2s.15.81.31,1.87.3,2,.3,2S101.76,19.38,101.6,18.32Z"/><path class="cls-202" d="M100.7,12.64c-.16-1.06-.3-2-.29-2s.14.8.31,1.87.3,2,.3,2S100.87,13.71,100.7,12.64Z"/><path class="cls-203" d="M100.76,16.43a6.26,6.26,0,0,1,.27-.67s-.12.37-.27.77a6.56,6.56,0,0,1-.27.66A6.94,6.94,0,0,1,100.76,16.43Z"/><path class="cls-204" d="M101.56,14.32a6.26,6.26,0,0,1,.27-.67s-.12.37-.27.77a6.56,6.56,0,0,1-.27.66S101.41,14.71,101.56,14.32Z"/><path class="cls-205" d="M101.32,18c-.07-1-.11-1.74-.11-1.75s.06.75.12,1.71.11,1.74.11,1.75S101.38,19,101.32,18Z"/><path class="cls-206" d="M101,12.9c-.07-1-.11-1.74-.11-1.75s.06.75.12,1.7.11,1.74.11,1.76S101.05,13.85,101,12.9Z"/><path class="cls-207" d="M101,18c.06-1,.11-1.72.12-1.71s0,.79-.11,1.75-.12,1.72-.12,1.71S100.92,18.9,101,18Z"/><path class="cls-208" d="M101.32,12.85c.06-.95.11-1.72.12-1.7s0,.79-.11,1.75-.11,1.72-.12,1.71S101.25,13.81,101.32,12.85Z"/><path class="cls-209" d="M101.56,16.53c-.15-.4-.27-.74-.27-.77a6.26,6.26,0,0,1,.27.67c.15.39.27.74.27.76A6.56,6.56,0,0,1,101.56,16.53Z"/><path class="cls-210" d="M100.76,14.42a5,5,0,0,1-.27-.77,6.26,6.26,0,0,1,.27.67c.15.39.27.74.27.76A6.56,6.56,0,0,1,100.76,14.42Z"/></g></g></g></svg>