<svg xmlns="http://www.w3.org/2000/svg" viewBox="0 0 202 44"><defs><style>.cls-1{isolation:isolate;}.cls-2{opacity:0.2;mix-blend-mode:multiply;}.cls-3{fill:#397207;}.cls-4{fill:#518e11;}.cls-5{fill:#d8ea8c;}.cls-6{fill:#e8f9aa;}.cls-7{fill:#cedd7a;}</style></defs><g class="cls-1"><g id="Layer_1" data-name="Layer 1"><ellipse class="cls-2" cx="167.92" cy="33.73" rx="31.32" ry="5.54" transform="translate(-2.71 18.87) rotate(-6.38)"/><path class="cls-3" d="M142.38,1.07A253.7,253.7,0,0,1,178.18.8s20.51.37,23.51,13.07c0,0,3.28,14.3-20,18.88,0,0-25.71,5.69-37.39,4.88C144.32,37.63,156,8.87,142.38,1.07Z"/><path class="cls-4" d="M148.32,4.3s22-3.14,34.28-.92,13.37,1.1,19,9.68c0,0-1.83,12.61-11.6,15.23S149,34.86,149,34.86l-.4-26.57"/><path class="cls-3" d="M148.55,11.35s22.2-3.67,34.37-2.71,13.31.31,18.75,4.94c0,0-.43,6.1-10.25,7.77s-42.94,5.5-42.94,5.5l.31-14.73"/><polygon class="cls-3" points="146.27 37.46 143.41 37.58 140.63 35.91 138.2 32.61 136.37 28.01 135.31 22.56 135.13 16.79 135.84 11.26 137.38 6.52 139.59 3.03 142.26 1.14 145.13 1.02 147.91 2.69 150.33 5.98 152.16 10.58 153.22 16.04 153.4 21.81 152.69 27.33 151.15 32.07 148.94 35.56 146.27 37.46"/><path class="cls-5" d="M152.89,18.9c.44,9.57-3,17.58-7.78,17.89s-8.92-7.2-9.36-16.77,3-17.59,7.77-17.9S152.45,9.32,152.89,18.9Z"/><path class="cls-6" d="M152.07,18.89c.41,8.9-2.75,16.33-7.07,16.62s-8.13-6.7-8.54-15.6,2.75-16.33,7.07-16.61S151.66,10,152.07,18.89Z"/><path class="cls-7" d="M149.38,16.51a6.09,6.09,0,0,1-1.1-2.38c-.49-1.63-1.27-1.19-1.27-1.19a4,4,0,0,0,1.39,3s.68.5.7,1c0,0-.14,0-.6-.55s-2-.85-1.72-.23.64,1.48,1.62,1.22,1.07.17,1.07.17a18.79,18.79,0,0,1-3.85.84c-.8-.09-.44-.56-.44-1.24s1.27-6.46,1.4-6.86S148.7,12.44,149.38,16.51Z"/><path class="cls-7" d="M141.82,10.43a24,24,0,0,0,.72,2.46,23.41,23.41,0,0,1,1.08,2.67c0,.4.47,1.88.88,1.71s1.58-6.33,1.55-7-.33-2-3.65-.44c0,0-.28.37.24.41,0,0,2.28-.08,2.18,1.06-.14,1.72-1.61-.25-2.51-.76,0,0,3,3,2.18,4S142,10.32,142,10.32Z"/><path class="cls-7" d="M141.29,11.11s1.89,5.41,2.07,5.94.78,1.37.27,1.75-3.59.77-3.76.29a33.17,33.17,0,0,1,.92-7.17c.39-.71-.94,4.33,0,5,0,0,.9-.15.31-4.87,0,0,.88,6.85,1.35,5.35a18.36,18.36,0,0,0-1.26-5.85A.6.6,0,0,1,141.29,11.11Z"/><path class="cls-7" d="M148.58,19.85s1-.07.71-.44-1-.14-1.65,0-.3-.08-1,0c-.48.06-1,0-1.1.22s-.56.18-.15.89a13,13,0,0,1,1,2.58c.09.44,1.24,3.75,1.58,4.56s1.82-6.1,1.74-6.88-.53.82-.55,1.21-.69,3.28-1.41,2.64.39-2.33.68-2.79,1.07-1.49.95-1.73-.66.54-.66.68-1.86,1.69-1.7.26A1.34,1.34,0,0,1,148.58,19.85Z"/><path class="cls-7" d="M143.86,20s.1-.35-1-.18-2.88.29-2.94.78a27.86,27.86,0,0,0,1.63,5.53c.55,1.14-1-4.64-.17-3.66s.89,3.57.65,4.22c0,0,.24.92.37.47s-.62-6,.49-5.87c0,0,.6.51-.22,5.61C142.63,26.91,144.1,22.74,143.86,20Z"/><path class="cls-7" d="M143.11,27.8s1-7.08,1.79-6.68,2.41,6.7,2.41,6.7-2.68,1-3.5.38c0,0,1.8-.3,1.84-1.49s-1.62,1.23-2,1.16a7.14,7.14,0,0,1,.78-1.28c.58-.77.94-2.9.46-3.21,0,0-.92-.19-1.44,4.26C143.35,28.11,143.11,27.8,143.11,27.8Z"/><path class="cls-2" d="M131.92,36.78c-7.13,9.57-34.06,6.9-62.77,5.56-38.46-1.79-69,0-69-4.73S31.37,29.1,69.88,29.1,134.72,33,131.92,36.78Z"/><polygon class="cls-3" points="90 37.07 93.88 38.88 99.15 40.23 105.31 41 111.75 41.11 117.84 40.55 122.99 39.37 126.68 37.69 128.57 35.68 128.46 33.52 126.36 31.44 122.5 29.63 117.22 28.28 111.06 27.51 104.62 27.4 98.53 27.96 93.38 29.14 89.68 30.82 87.8 32.83 87.91 34.98 90 37.07"/><path class="cls-4" d="M105.05,38.94a42.56,42.56,0,0,0,8.22,0l.33,2-1.61.14L106.41,41l-1.33,0Z"/><polygon class="cls-4" points="99.32 38.33 99.56 40.21 94.05 38.94 94.07 37.13 99.32 38.33"/><polygon class="cls-4" points="120.88 39.84 120.44 37.83 123.5 37.01 125.16 36.35 125.6 38.26 123.28 39.3 120.88 39.84"/><polygon class="cls-3" points="89.37 35.48 92.83 37.14 97.81 38.43 103.83 39.23 110.31 39.45 116.61 39.09 122.1 38.16 126.26 36.77 128.67 35.05 129.11 33.16 127.51 31.3 124.06 29.64 119.08 28.35 113.05 27.55 106.57 27.32 100.28 27.69 94.78 28.61 90.63 30 88.21 31.73 87.78 33.61 89.37 35.48"/><path class="cls-5" d="M99.6,38.2A29,29,0,0,1,91.72,36c-5.5-2.71-2.57-6.06,6.55-7.49s21-.39,26.49,2.32,2.57,6.06-6.55,7.49A63.4,63.4,0,0,1,99.6,38.2"/><path class="cls-6" d="M99.27,28.93C90.79,30.26,88,33.34,93,35.81s15.95,3.4,24.43,2.07,11.27-4.41,6.25-6.88S107.74,27.6,99.27,28.93Z"/><path class="cls-7" d="M104.69,30a20.74,20.74,0,0,0,3.48.2c2.07,0,2.63.51,2.63.51s-1.18.35-4.45-.26a7.29,7.29,0,0,0-1.77-.21,7.48,7.48,0,0,0,1.22.24c1,.16,3.19,1,2.32.93a6.35,6.35,0,0,1-3.07-.69,3,3,0,0,0-1.48-.58,40.35,40.35,0,0,0,4,2.31c1.07.44,1,.15,1.65,0a40.37,40.37,0,0,0,4.44-2C113.81,30.38,109.18,29.7,104.69,30Z"/><path class="cls-7" d="M119.38,33.21c-.14,0-1.75,0-3.08,0s-3.39-.21-3.72-.13a6.79,6.79,0,0,1-2.6-.2c-.35-.26,3.75-2,4.35-2.09s2.22-.17,4.86,2c0,0,0,.22-.65-.06,0,0-2.72-1.29-3.63-1-1.37.38,2.2.86,3.75,1.28,0,0-6.34-1.14-6.25-.52s6.8.62,6.8.62Z"/><path class="cls-7" d="M119.42,33.62l-7.85-.12c-.69,0-2.19-.2-1.89.16A17,17,0,0,0,114,35.82c.64,0,5.12-1.43,5.29-1.77s-2.72,1.28-4.49.87c0,0-1-.54,4-1,0,0-7.22.7-6.44.18a34.58,34.58,0,0,1,6.78-.32S119.46,33.73,119.42,33.62Z"/><path class="cls-7" d="M102.68,31.06s-1.2-.59-.47-.47a6.51,6.51,0,0,1,2,.91c.75.4.45.16,1.24.58.53.28,1.25.58,1.14.66s.53.35-.61.24-3-.11-3.49-.09-4.87,0-6-.09,3.25-2.09,4-2.18-.08.44-.41.52-2.1,1-.65,1.25,1.61-.62,1.68-.86,0-.87.39-.84.33.46.19.49a1.68,1.68,0,0,0,1.85,1C104.68,31.84,102.68,31.06,102.68,31.06Z"/><path class="cls-7" d="M108.3,33.74s.19-.12,1.43.55S113,36,112.62,36.08a68.58,68.58,0,0,1-6.94.05c-1.7-.1,5.35-.26,3.49-.54a10.06,10.06,0,0,0-4.58.37s-1.11,0-.87-.12,6.17-.71,4.66-1.31c0,0-1.18-.24-4.76,1.11A10.2,10.2,0,0,1,108.3,33.74Z"/><path class="cls-7" d="M102.23,35.52s5.07-1.82,3.8-2.17-9-.18-9-.18a16.34,16.34,0,0,0,3.94,2s-1.93-1.06-.91-1.29.87,1.12,1.45,1.34a.92.92,0,0,0,.19-.66c0-.46,1.46-1,2.32-.82,0,0,1.3.49-2,1.56C101.66,35.44,102.23,35.52,102.23,35.52Z"/><polygon class="cls-3" points="72.03 38.62 76.3 38.95 81.71 38.37 87.74 36.92 93.81 34.76 99.32 32.1 103.73 29.19 106.6 26.32 107.66 23.77 106.8 21.79 104.1 20.58 99.85 20.25 94.43 20.83 88.39 22.27 82.32 24.43 76.82 27.09 72.41 30 69.54 32.88 68.48 35.42 69.34 37.4 72.03 38.62"/><path class="cls-4" d="M86.78,35.08a42.76,42.76,0,0,0,7.69-2.92l1,1.78-1.46.7-5.26,1.88-1.27.42Z"/><polygon class="cls-4" points="81.2 36.52 82.09 38.2 76.48 38.95 75.86 37.24 81.2 36.52"/><polygon class="cls-4" points="101.92 30.37 100.8 28.64 103.38 26.8 104.7 25.59 105.78 27.23 103.98 29.02 101.92 30.37"/><polygon class="cls-3" points="70.89 37.35 74.71 37.69 79.82 37.15 85.74 35.78 91.89 33.72 97.66 31.16 102.48 28.37 105.88 25.6 107.53 23.14 107.28 21.22 105.13 20.04 101.32 19.7 96.19 20.24 90.27 21.61 84.13 23.67 78.37 26.23 73.54 29.02 70.14 31.78 68.48 34.24 68.74 36.16 70.89 37.35"/><path class="cls-5" d="M81.42,36.3a29,29,0,0,1-8.16.69c-6.1-.61-4.54-4.78,3.5-9.32s19.5-7.73,25.61-7.13,4.54,4.78-3.49,9.32A63.42,63.42,0,0,1,81.42,36.3"/><path class="cls-6" d="M77.85,27.75c-7.46,4.22-9,8.08-3.44,8.63S90.54,34,98,29.74s9-8.09,3.44-8.64S85.32,23.53,77.85,27.75Z"/><path class="cls-7" d="M83.31,26.87a19.89,19.89,0,0,0,3.33-1c1.94-.73,2.64-.44,2.64-.44s-1,.74-4.25,1.32a7.07,7.07,0,0,0-1.73.43,9.28,9.28,0,0,0,1.23-.21c1-.2,3.32-.21,2.49.06a6.4,6.4,0,0,1-3.12.42,3.13,3.13,0,0,0-1.58,0,42.89,42.89,0,0,0,4.52.78c1.15,0,1-.23,1.55-.56a41.7,41.7,0,0,0,3.46-3.41C92,24,87.4,25,83.31,26.87Z"/><path class="cls-7" d="M98.19,24.69c-.12.07-1.62.65-2.88,1.1s-3.25,1-3.53,1.18a6.77,6.77,0,0,1-2.5.73c-.42-.12,2.8-3.18,3.34-3.48s2-.95,5.23.13c0,0,.09.21-.62.18,0,0-3-.26-3.77.3-1.15.83,2.37,0,4-.13,0,0-6.33,1.16-6,1.71S98,24.61,98,24.61Z"/><path class="cls-7" d="M98.37,25.06,91,27.71c-.65.23-2.13.58-1.72.81a17.08,17.08,0,0,0,4.81.5c.61-.21,4.3-3.14,4.33-3.52s-2.09,2.16-3.89,2.39c0,0-1.09-.16,3.38-2.36,0,0-6.52,3.19-6,2.43a34.73,34.73,0,0,1,6.24-2.68S98.45,25.15,98.37,25.06Z"/><path class="cls-7" d="M81.79,28.54s-1.32-.13-.6-.28a6.91,6.91,0,0,1,2.23.14c.85.11.48,0,1.37.11.59.08,1.37.11,1.3.21s.61.14-.5.44-2.82.95-3.29,1.15-4.58,1.67-5.67,2,2.31-3.09,3-3.46.08.45-.2.64-1.63,1.63-.18,1.4,1.3-1.16,1.27-1.4-.28-.82.07-.92.48.32.35.39a1.67,1.67,0,0,0,2.09.28C83.94,28.56,81.79,28.54,81.79,28.54Z"/><path class="cls-7" d="M88,29.07s.14-.17,1.53,0,3.65.41,3.34.65a65.54,65.54,0,0,1-6.49,2.5c-1.62.49,4.92-2.13,3.08-1.74a10.2,10.2,0,0,0-4.16,2s-1,.41-.85.18,5.53-2.83,3.9-2.85c0,0-1.19.18-4.07,2.7A10.41,10.41,0,0,1,88,29.07Z"/><path class="cls-7" d="M82.94,32.88s4.1-3.49,2.8-3.38-8.44,3-8.44,3a16.14,16.14,0,0,0,4.4.52s-2.19-.32-1.31-.89,1.21.74,1.83.75a.93.93,0,0,0,0-.69c-.17-.42,1-1.48,1.88-1.58,0,0,1.38,0-1.38,2.18C82.38,33,82.94,32.88,82.94,32.88Z"/><path class="cls-2" d="M90.14,34c-7.49,4.32-21.49,4.08-22.62,2.12s5.19-8.36,12.69-12.69,20.33-2.77,21.46-.81S97.64,29.66,90.14,34Z"/><polygon class="cls-3" points="63.35 38.62 67.62 38.95 73.03 38.37 79.06 36.92 85.14 34.76 90.64 32.1 95.05 29.19 97.92 26.32 98.98 23.77 98.12 21.79 95.42 20.58 91.17 20.25 85.75 20.83 79.71 22.27 73.64 24.43 68.14 27.09 63.73 30 60.86 32.88 59.8 35.42 60.66 37.4 63.35 38.62"/><path class="cls-4" d="M78.1,35.08a43.06,43.06,0,0,0,7.69-2.92l1,1.78-1.46.7-5.26,1.88-1.27.42Z"/><polygon class="cls-4" points="72.52 36.52 73.41 38.2 67.8 38.95 67.19 37.24 72.52 36.52"/><polygon class="cls-4" points="93.23 30.37 92.12 28.64 94.69 26.8 96.02 25.59 97.11 27.23 95.3 29.02 93.23 30.37"/><polygon class="cls-3" points="62.21 37.35 66.03 37.69 71.14 37.15 77.06 35.78 83.21 33.72 88.98 31.16 93.8 28.37 97.2 25.6 98.85 23.14 98.6 21.22 96.45 20.04 92.64 19.7 87.51 20.24 81.59 21.61 75.45 23.67 69.69 26.23 64.86 29.02 61.46 31.78 59.8 34.24 60.06 36.16 62.21 37.35"/><path class="cls-5" d="M72.74,36.3a29,29,0,0,1-8.16.69c-6.11-.61-4.54-4.78,3.5-9.32s19.5-7.73,25.61-7.13,4.54,4.78-3.49,9.32A63.42,63.42,0,0,1,72.74,36.3"/><path class="cls-6" d="M69.17,27.75c-7.46,4.22-9,8.08-3.44,8.63S81.86,34,89.33,29.74s9-8.09,3.44-8.64S76.64,23.53,69.17,27.75Z"/><path class="cls-7" d="M74.63,26.87a19.89,19.89,0,0,0,3.33-1c1.94-.73,2.64-.44,2.64-.44s-1,.74-4.25,1.32a7.07,7.07,0,0,0-1.73.43,9.28,9.28,0,0,0,1.23-.21c1-.2,3.32-.21,2.49.06a6.4,6.4,0,0,1-3.12.42,3.13,3.13,0,0,0-1.58,0,42.89,42.89,0,0,0,4.52.78c1.15,0,1-.23,1.55-.56a41.7,41.7,0,0,0,3.46-3.41C83.3,24,78.72,25,74.63,26.87Z"/><path class="cls-7" d="M89.51,24.69c-.12.07-1.62.65-2.88,1.1s-3.25,1-3.53,1.18a6.77,6.77,0,0,1-2.5.73c-.42-.12,2.8-3.18,3.34-3.48s2-.95,5.23.13c0,0,.08.21-.62.18,0,0-3-.26-3.77.3-1.15.83,2.37,0,4-.13,0,0-6.33,1.16-6,1.71s6.59-1.8,6.59-1.8Z"/><path class="cls-7" d="M89.69,25.06,82.3,27.71c-.65.23-2.13.58-1.72.81a17.08,17.08,0,0,0,4.81.5c.61-.21,4.3-3.14,4.33-3.52s-2.09,2.16-3.89,2.39c0,0-1.09-.16,3.38-2.36,0,0-6.52,3.19-6,2.43a34.73,34.73,0,0,1,6.24-2.68S89.77,25.15,89.69,25.06Z"/><path class="cls-7" d="M73.11,28.54s-1.32-.13-.6-.28a6.91,6.91,0,0,1,2.23.14c.85.11.48,0,1.37.11.59.08,1.37.11,1.3.21s.61.14-.5.44-2.82.95-3.29,1.15S69,32,68,32.33s2.31-3.09,3-3.46.08.45-.2.64-1.63,1.63-.18,1.4,1.3-1.16,1.27-1.4-.28-.82.07-.92.48.32.35.39a1.67,1.67,0,0,0,2.09.28C75.26,28.56,73.11,28.54,73.11,28.54Z"/><path class="cls-7" d="M79.32,29.07s.14-.17,1.53,0,3.65.41,3.34.65a65.54,65.54,0,0,1-6.49,2.5c-1.62.49,4.92-2.13,3.08-1.74a10.13,10.13,0,0,0-4.16,2s-1,.41-.85.18,5.53-2.83,3.9-2.85c0,0-1.19.18-4.07,2.7A10.3,10.3,0,0,1,79.32,29.07Z"/><path class="cls-7" d="M74.26,32.88s4.1-3.49,2.8-3.38-8.45,3-8.45,3A16.24,16.24,0,0,0,73,33s-2.19-.32-1.31-.89,1.21.74,1.83.75a.93.93,0,0,0-.05-.69c-.17-.42,1-1.48,1.88-1.58,0,0,1.38,0-1.38,2.18C73.7,33,74.26,32.88,74.26,32.88Z"/><path class="cls-2" d="M80.72,34c-7.49,4.32-21.49,4.08-22.62,2.12s5.19-8.36,12.68-12.69,20.34-2.77,21.47-.81S88.22,29.66,80.72,34Z"/><polygon class="cls-3" points="53.93 38.62 58.2 38.95 63.61 38.37 69.64 36.92 75.71 34.76 81.22 32.1 85.63 29.19 88.5 26.32 89.55 23.77 88.7 21.79 86 20.58 81.75 20.25 76.33 20.83 70.29 22.27 64.22 24.43 58.72 27.09 54.31 30 51.44 32.88 50.38 35.42 51.24 37.4 53.93 38.62"/><path class="cls-4" d="M68.68,35.08a43.06,43.06,0,0,0,7.69-2.92l1,1.78-1.45.7-5.26,1.88-1.27.42Z"/><polygon class="cls-4" points="63.1 36.52 63.99 38.2 58.38 38.95 57.76 37.24 63.1 36.52"/><polygon class="cls-4" points="83.81 30.37 82.7 28.64 85.27 26.8 86.6 25.59 87.68 27.23 85.88 29.02 83.81 30.37"/><polygon class="cls-3" points="52.78 37.35 56.6 37.69 61.72 37.15 67.64 35.78 73.79 33.72 79.55 31.16 84.37 28.37 87.78 25.6 89.43 23.14 89.18 21.22 87.03 20.04 83.22 19.7 78.09 20.24 72.17 21.61 66.03 23.67 60.27 26.23 55.44 29.02 52.04 31.78 50.38 34.24 50.64 36.16 52.78 37.35"/><path class="cls-5" d="M63.32,36.3a29.09,29.09,0,0,1-8.16.69c-6.11-.61-4.54-4.78,3.5-9.32s19.5-7.73,25.61-7.13,4.54,4.78-3.5,9.32A63.35,63.35,0,0,1,63.32,36.3"/><path class="cls-6" d="M59.75,27.75c-7.47,4.22-9,8.08-3.44,8.63S72.44,34,79.91,29.74s9-8.09,3.44-8.64S67.21,23.53,59.75,27.75Z"/><path class="cls-7" d="M65.21,26.87a20.22,20.22,0,0,0,3.33-1c1.94-.73,2.64-.44,2.64-.44s-1,.74-4.25,1.32a7,7,0,0,0-1.73.43,9.08,9.08,0,0,0,1.22-.21c1-.2,3.33-.21,2.5.06a6.4,6.4,0,0,1-3.12.42,3.11,3.11,0,0,0-1.58,0,43.07,43.07,0,0,0,4.51.78c1.16,0,1-.23,1.56-.56a43.31,43.31,0,0,0,3.46-3.41C73.88,24,69.3,25,65.21,26.87Z"/><path class="cls-7" d="M80.08,24.69c-.12.07-1.62.65-2.87,1.1S74,26.78,73.68,27a6.83,6.83,0,0,1-2.51.73c-.41-.12,2.81-3.18,3.34-3.48s2-.95,5.24.13c0,0,.08.21-.63.18,0,0-3-.26-3.76.3-1.15.83,2.36,0,4-.13,0,0-6.34,1.16-6,1.71s6.59-1.8,6.59-1.8Z"/><path class="cls-7" d="M80.27,25.06s-6.75,2.41-7.39,2.65-2.13.58-1.72.81A17,17,0,0,0,76,29c.61-.21,4.3-3.14,4.33-3.52s-2.09,2.16-3.89,2.39c0,0-1.09-.16,3.38-2.36,0,0-6.53,3.19-6,2.43a34.28,34.28,0,0,1,6.24-2.68S80.35,25.15,80.27,25.06Z"/><path class="cls-7" d="M63.69,28.54s-1.32-.13-.6-.28a6.91,6.91,0,0,1,2.23.14c.84.11.47,0,1.36.11.6.08,1.37.11,1.3.21s.62.14-.49.44a33.09,33.09,0,0,0-3.29,1.15c-.47.2-4.58,1.67-5.67,2s2.31-3.09,3-3.46.08.45-.19.64-1.63,1.63-.18,1.4,1.3-1.16,1.27-1.4-.28-.82.07-.92.47.32.35.39a1.67,1.67,0,0,0,2.09.28C65.84,28.56,63.69,28.54,63.69,28.54Z"/><path class="cls-7" d="M69.9,29.07s.14-.17,1.53,0,3.65.41,3.33.65a66.18,66.18,0,0,1-6.48,2.5c-1.62.49,4.92-2.13,3.08-1.74a10.13,10.13,0,0,0-4.16,2s-1,.41-.86.18,5.54-2.83,3.91-2.85c0,0-1.2.18-4.07,2.7A10.3,10.3,0,0,1,69.9,29.07Z"/><path class="cls-7" d="M64.84,32.88s4.1-3.49,2.8-3.38-8.45,3-8.45,3A16.24,16.24,0,0,0,63.6,33s-2.19-.32-1.31-.89,1.21.74,1.83.75a1,1,0,0,0-.06-.69c-.17-.42,1-1.48,1.89-1.58,0,0,1.38,0-1.38,2.18C64.27,33,64.84,32.88,64.84,32.88Z"/><path class="cls-2" d="M71.3,34c-7.5,4.32-21.49,4.08-22.62,2.12s5.19-8.36,12.68-12.69,20.33-2.77,21.46-.81S78.79,29.66,71.3,34Z"/><polygon class="cls-3" points="44.51 38.62 48.77 38.95 54.19 38.37 60.22 36.92 66.29 34.76 71.8 32.1 76.2 29.19 79.08 26.32 80.13 23.77 79.28 21.79 76.58 20.58 72.32 20.25 66.91 20.83 60.87 22.27 54.8 24.43 49.3 27.09 44.89 30 42.02 32.88 40.96 35.42 41.81 37.4 44.51 38.62"/><path class="cls-4" d="M59.25,35.08a42.76,42.76,0,0,0,7.69-2.92l1,1.78-1.46.7-5.26,1.88L60,36.94Z"/><polygon class="cls-4" points="53.68 36.52 54.57 38.2 48.96 38.95 48.34 37.24 53.68 36.52"/><polygon class="cls-4" points="74.39 30.37 73.28 28.64 75.85 26.8 77.18 25.59 78.26 27.23 76.46 29.02 74.39 30.37"/><polygon class="cls-3" points="43.36 37.35 47.18 37.69 52.3 37.15 58.22 35.78 64.36 33.72 70.13 31.16 74.95 28.37 78.35 25.6 80.01 23.14 79.75 21.22 77.61 20.04 73.79 19.7 68.67 20.24 62.74 21.61 56.6 23.67 50.84 26.23 46.02 29.02 42.62 31.78 40.96 34.24 41.22 36.16 43.36 37.35"/><path class="cls-5" d="M53.9,36.3a29.09,29.09,0,0,1-8.16.69c-6.11-.61-4.54-4.78,3.49-9.32s19.51-7.73,25.62-7.13,4.54,4.78-3.5,9.32A63.35,63.35,0,0,1,53.9,36.3"/><path class="cls-6" d="M50.33,27.75c-7.47,4.22-9,8.08-3.44,8.63S63,34,70.49,29.74s9-8.09,3.44-8.64S57.79,23.53,50.33,27.75Z"/><path class="cls-7" d="M55.79,26.87a20.22,20.22,0,0,0,3.33-1c1.93-.73,2.64-.44,2.64-.44s-1,.74-4.25,1.32a7.12,7.12,0,0,0-1.74.43A9.28,9.28,0,0,0,57,26.93c1-.2,3.33-.21,2.49.06a6.34,6.34,0,0,1-3.11.42,3.11,3.11,0,0,0-1.58,0,43.07,43.07,0,0,0,4.51.78c1.16,0,1-.23,1.56-.56a43.06,43.06,0,0,0,3.45-3.41C64.45,24,59.88,25,55.79,26.87Z"/><path class="cls-7" d="M70.66,24.69c-.12.07-1.62.65-2.87,1.1s-3.25,1-3.53,1.18a6.83,6.83,0,0,1-2.51.73c-.42-.12,2.81-3.18,3.34-3.48s2-.95,5.24.13c0,0,.08.21-.63.18,0,0-3-.26-3.76.3-1.15.83,2.36,0,4-.13,0,0-6.34,1.16-6,1.71s6.59-1.8,6.59-1.8Z"/><path class="cls-7" d="M70.85,25.06l-7.4,2.65c-.64.23-2.12.58-1.72.81a17.12,17.12,0,0,0,4.82.5c.61-.21,4.3-3.14,4.33-3.52s-2.1,2.16-3.89,2.39c0,0-1.1-.16,3.37-2.36,0,0-6.52,3.19-6,2.43a34.28,34.28,0,0,1,6.24-2.68S70.92,25.15,70.85,25.06Z"/><path class="cls-7" d="M54.27,28.54s-1.33-.13-.61-.28a7,7,0,0,1,2.24.14c.84.11.47,0,1.36.11.59.08,1.37.11,1.3.21s.62.14-.49.44a34.41,34.41,0,0,0-3.3,1.15c-.46.2-4.57,1.67-5.66,2s2.31-3.09,3-3.46.08.45-.2.64-1.63,1.63-.17,1.4S53,29.75,53,29.51s-.28-.82.07-.92.47.32.35.39a1.66,1.66,0,0,0,2.08.28C56.42,28.56,54.27,28.54,54.27,28.54Z"/><path class="cls-7" d="M60.48,29.07s.14-.17,1.53,0,3.65.41,3.33.65a66.18,66.18,0,0,1-6.48,2.5c-1.62.49,4.92-2.13,3.08-1.74a10.13,10.13,0,0,0-4.16,2s-1,.41-.86.18,5.53-2.83,3.9-2.85c0,0-1.19.18-4.06,2.7A10.3,10.3,0,0,1,60.48,29.07Z"/><path class="cls-7" d="M55.42,32.88s4.1-3.49,2.8-3.38-8.45,3-8.45,3a16.14,16.14,0,0,0,4.4.52s-2.18-.32-1.3-.89,1.2.74,1.82.75a.93.93,0,0,0,0-.69c-.17-.42,1-1.48,1.88-1.58,0,0,1.39,0-1.37,2.18C54.85,33,55.42,32.88,55.42,32.88Z"/><path class="cls-2" d="M61.88,34c-7.5,4.32-21.5,4.08-22.63,2.12s5.19-8.36,12.69-12.69,20.33-2.77,21.46-.81S69.37,29.66,61.88,34Z"/><polygon class="cls-3" points="35.09 38.62 39.35 38.95 44.76 38.37 50.8 36.92 56.87 34.76 62.38 32.1 66.78 29.19 69.65 26.32 70.71 23.77 69.85 21.79 67.16 20.58 62.9 20.25 57.48 20.83 51.45 22.27 45.38 24.43 39.88 27.09 35.47 30 32.59 32.88 31.53 35.42 32.39 37.4 35.09 38.62"/><path class="cls-4" d="M49.83,35.08a42.76,42.76,0,0,0,7.69-2.92l1,1.78-1.46.7-5.26,1.88-1.26.42Z"/><polygon class="cls-4" points="44.26 36.52 45.15 38.2 39.54 38.95 38.92 37.24 44.26 36.52"/><polygon class="cls-4" points="64.97 30.37 63.85 28.64 66.43 26.8 67.75 25.59 68.84 27.23 67.04 29.02 64.97 30.37"/><polygon class="cls-3" points="33.94 37.35 37.76 37.69 42.88 37.15 48.8 35.78 54.94 33.72 60.71 31.16 65.53 28.37 68.93 25.6 70.58 23.14 70.33 21.22 68.18 20.04 64.37 19.7 59.25 20.24 53.32 21.61 47.18 23.67 41.42 26.23 36.6 29.02 33.19 31.78 31.54 34.24 31.79 36.16 33.94 37.35"/><path class="cls-5" d="M44.47,36.3a29,29,0,0,1-8.15.69c-6.11-.61-4.54-4.78,3.49-9.32s19.51-7.73,25.62-7.13,4.54,4.78-3.5,9.32A63.3,63.3,0,0,1,44.47,36.3"/><path class="cls-6" d="M40.91,27.75c-7.47,4.22-9,8.08-3.45,8.63S53.59,34,61.06,29.74s9-8.09,3.44-8.64S48.37,23.53,40.91,27.75Z"/><path class="cls-7" d="M46.37,26.87a20.56,20.56,0,0,0,3.33-1c1.93-.73,2.64-.44,2.64-.44s-1,.74-4.25,1.32a7.12,7.12,0,0,0-1.74.43,9.28,9.28,0,0,0,1.23-.21c1-.2,3.32-.21,2.49.06a6.34,6.34,0,0,1-3.11.42,3.16,3.16,0,0,0-1.59,0,43.38,43.38,0,0,0,4.52.78c1.16,0,1-.23,1.56-.56A43.06,43.06,0,0,0,54.9,24.2C55,24,50.45,25,46.37,26.87Z"/><path class="cls-7" d="M61.24,24.69c-.12.07-1.62.65-2.88,1.1s-3.24,1-3.52,1.18a6.83,6.83,0,0,1-2.51.73c-.42-.12,2.81-3.18,3.34-3.48s2-.95,5.24.13c0,0,.08.21-.63.18,0,0-3-.26-3.77.3-1.14.83,2.37,0,4-.13,0,0-6.34,1.16-6,1.71S61,24.61,61,24.61Z"/><path class="cls-7" d="M61.43,25.06,54,27.71c-.64.23-2.12.58-1.72.81a17.12,17.12,0,0,0,4.82.5c.61-.21,4.29-3.14,4.33-3.52s-2.1,2.16-3.89,2.39c0,0-1.1-.16,3.37-2.36,0,0-6.52,3.19-6,2.43a34.33,34.33,0,0,1,6.23-2.68S61.5,25.15,61.43,25.06Z"/><path class="cls-7" d="M44.85,28.54s-1.33-.13-.61-.28a6.91,6.91,0,0,1,2.23.14c.85.11.48,0,1.37.11.59.08,1.37.11,1.3.21s.62.14-.49.44a34.41,34.41,0,0,0-3.3,1.15c-.47.2-4.57,1.67-5.66,2s2.31-3.09,3-3.46.08.45-.2.64-1.63,1.63-.17,1.4,1.29-1.16,1.27-1.4-.29-.82.07-.92.47.32.35.39a1.65,1.65,0,0,0,2.08.28C47,28.56,44.85,28.54,44.85,28.54Z"/><path class="cls-7" d="M51.05,29.07s.14-.17,1.53,0,3.65.41,3.34.65a66.18,66.18,0,0,1-6.48,2.5c-1.63.49,4.92-2.13,3.07-1.74a10.2,10.2,0,0,0-4.16,2s-1,.41-.85.18,5.53-2.83,3.9-2.85c0,0-1.19.18-4.06,2.7A10.32,10.32,0,0,1,51.05,29.07Z"/><path class="cls-7" d="M46,32.88s4.1-3.49,2.79-3.38-8.44,3-8.44,3a16.14,16.14,0,0,0,4.4.52s-2.19-.32-1.3-.89,1.2.74,1.82.75a.93.93,0,0,0-.05-.69c-.17-.42,1-1.48,1.88-1.58,0,0,1.39,0-1.38,2.18C45.43,33,46,32.88,46,32.88Z"/><path class="cls-2" d="M52.46,34C45,38.31,31,38.07,29.83,36.11S35,27.75,42.52,23.42,62.85,20.65,64,22.61,60,29.66,52.46,34Z"/><polygon class="cls-3" points="25.67 38.62 29.93 38.95 35.34 38.37 41.38 36.92 47.45 34.76 52.95 32.1 57.36 29.19 60.23 26.32 61.29 23.77 60.43 21.79 57.73 20.58 53.48 20.25 48.06 20.83 42.02 22.27 35.95 24.43 30.45 27.09 26.04 30 23.17 32.88 22.11 35.42 22.97 37.4 25.67 38.62"/><path class="cls-4" d="M40.41,35.08a42.76,42.76,0,0,0,7.69-2.92l1,1.78-1.46.7L42.4,36.52l-1.26.42Z"/><polygon class="cls-4" points="34.84 36.52 35.72 38.2 30.11 38.95 29.5 37.24 34.84 36.52"/><polygon class="cls-4" points="55.55 30.37 54.43 28.64 57.01 26.8 58.33 25.59 59.42 27.23 57.61 29.02 55.55 30.37"/><polygon class="cls-3" points="24.52 37.35 28.34 37.69 33.45 37.15 39.38 35.78 45.52 33.72 51.29 31.16 56.11 28.37 59.51 25.6 61.16 23.14 60.91 21.22 58.76 20.04 54.95 19.7 49.83 20.24 43.9 21.61 37.76 23.67 32 26.23 27.18 29.02 23.77 31.78 22.11 34.24 22.37 36.16 24.52 37.35"/><path class="cls-5" d="M35.05,36.3a29,29,0,0,1-8.16.69c-6.1-.61-4.54-4.78,3.5-9.32S49.89,19.94,56,20.54s4.55,4.78-3.49,9.32A63.3,63.3,0,0,1,35.05,36.3"/><path class="cls-6" d="M31.48,27.75C24,32,22.47,35.83,28,36.38S44.17,34,51.64,29.74s9-8.09,3.44-8.64S39,23.53,31.48,27.75Z"/><path class="cls-7" d="M37,26.87a20.33,20.33,0,0,0,3.32-1c1.94-.73,2.64-.44,2.64-.44s-1,.74-4.25,1.32a7.07,7.07,0,0,0-1.73.43,9.28,9.28,0,0,0,1.23-.21c1-.2,3.32-.21,2.49.06a6.4,6.4,0,0,1-3.12.42,3.13,3.13,0,0,0-1.58,0,42.89,42.89,0,0,0,4.52.78c1.15,0,1-.23,1.55-.56a41.7,41.7,0,0,0,3.46-3.41C45.61,24,41,25,37,26.87Z"/><path class="cls-7" d="M51.82,24.69c-.12.07-1.62.65-2.88,1.1s-3.25,1-3.53,1.18a6.77,6.77,0,0,1-2.5.73c-.42-.12,2.81-3.18,3.34-3.48s2-.95,5.23.13c0,0,.09.21-.62.18,0,0-3-.26-3.77.3-1.14.83,2.37,0,4-.13,0,0-6.33,1.16-6,1.71s6.59-1.8,6.59-1.8Z"/><path class="cls-7" d="M52,25.06l-7.39,2.65c-.65.23-2.12.58-1.72.81a17.08,17.08,0,0,0,4.81.5c.61-.21,4.3-3.14,4.34-3.52s-2.1,2.16-3.9,2.39c0,0-1.09-.16,3.38-2.36,0,0-6.52,3.19-6,2.43a34.73,34.73,0,0,1,6.24-2.68S52.08,25.15,52,25.06Z"/><path class="cls-7" d="M35.42,28.54s-1.32-.13-.6-.28a6.91,6.91,0,0,1,2.23.14c.85.11.48,0,1.37.11.59.08,1.37.11,1.3.21s.61.14-.49.44a34.41,34.41,0,0,0-3.3,1.15c-.47.2-4.57,1.67-5.66,2s2.3-3.09,3-3.46.08.45-.2.64-1.63,1.63-.17,1.4,1.29-1.16,1.26-1.4-.28-.82.07-.92.48.32.36.39a1.65,1.65,0,0,0,2.08.28C37.57,28.56,35.42,28.54,35.42,28.54Z"/><path class="cls-7" d="M41.63,29.07s.14-.17,1.53,0,3.65.41,3.34.65A65.54,65.54,0,0,1,40,32.24c-1.62.49,4.93-2.13,3.08-1.74a10.2,10.2,0,0,0-4.16,2s-1,.41-.85.18,5.53-2.83,3.9-2.85c0,0-1.19.18-4.07,2.7A10.41,10.41,0,0,1,41.63,29.07Z"/><path class="cls-7" d="M36.57,32.88s4.1-3.49,2.8-3.38-8.44,3-8.44,3a16.14,16.14,0,0,0,4.4.52s-2.19-.32-1.31-.89,1.21.74,1.83.75a.93.93,0,0,0-.05-.69c-.17-.42,1-1.48,1.88-1.58,0,0,1.38,0-1.38,2.18C36,33,36.57,32.88,36.57,32.88Z"/><path class="cls-2" d="M43,34c-7.49,4.32-21.49,4.08-22.62,2.12S25.6,27.75,33.1,23.42s20.33-2.77,21.46-.81S50.53,29.66,43,34Z"/><polygon class="cls-3" points="16.24 38.62 20.51 38.95 25.92 38.37 31.95 36.92 38.02 34.76 43.53 32.1 47.94 29.19 50.81 26.32 51.87 23.77 51.01 21.79 48.31 20.58 44.06 20.25 38.64 20.83 32.6 22.27 26.53 24.43 21.03 27.09 16.62 30 13.75 32.88 12.69 35.42 13.55 37.4 16.24 38.62"/><path class="cls-4" d="M31,35.08a43.06,43.06,0,0,0,7.69-2.92l1,1.78-1.46.7L33,36.52l-1.27.42Z"/><polygon class="cls-4" points="25.41 36.52 26.3 38.2 20.69 38.95 20.07 37.24 25.41 36.52"/><polygon class="cls-4" points="46.13 30.37 45.01 28.64 47.58 26.8 48.91 25.59 49.99 27.23 48.19 29.02 46.13 30.37"/><polygon class="cls-3" points="15.1 37.35 18.91 37.69 24.03 37.15 29.95 35.78 36.1 33.72 41.87 31.16 46.68 28.37 50.09 25.6 51.74 23.14 51.49 21.22 49.34 20.04 45.53 19.7 40.4 20.24 34.48 21.61 28.34 23.67 22.58 26.23 17.75 29.02 14.35 31.78 12.69 34.24 12.95 36.16 15.1 37.35"/><path class="cls-5" d="M25.63,36.3a29.07,29.07,0,0,1-8.16.69c-6.11-.61-4.54-4.78,3.5-9.32s19.5-7.73,25.61-7.13,4.54,4.78-3.49,9.32A63.42,63.42,0,0,1,25.63,36.3"/><path class="cls-6" d="M22.06,27.75c-7.47,4.22-9,8.08-3.44,8.63S34.75,34,42.22,29.74s9-8.09,3.44-8.64S29.53,23.53,22.06,27.75Z"/><path class="cls-7" d="M27.52,26.87a20.22,20.22,0,0,0,3.33-1c1.94-.73,2.64-.44,2.64-.44s-1,.74-4.25,1.32a7.07,7.07,0,0,0-1.73.43,9.08,9.08,0,0,0,1.22-.21c1-.2,3.33-.21,2.5.06a6.4,6.4,0,0,1-3.12.42,3.13,3.13,0,0,0-1.58,0,43.07,43.07,0,0,0,4.51.78c1.16,0,1-.23,1.56-.56a43.31,43.31,0,0,0,3.46-3.41C36.19,24,31.61,25,27.52,26.87Z"/><path class="cls-7" d="M42.4,24.69c-.13.07-1.63.65-2.88,1.1S36.27,26.78,36,27a6.83,6.83,0,0,1-2.5.73c-.42-.12,2.8-3.18,3.33-3.48s2-.95,5.24.13c0,0,.08.21-.62.18,0,0-3-.26-3.77.3-1.15.83,2.36,0,4-.13,0,0-6.33,1.16-6,1.71s6.59-1.8,6.59-1.8Z"/><path class="cls-7" d="M42.58,25.06s-6.75,2.41-7.39,2.65-2.13.58-1.72.81a17.08,17.08,0,0,0,4.81.5c.61-.21,4.3-3.14,4.33-3.52s-2.09,2.16-3.89,2.39c0,0-1.09-.16,3.38-2.36,0,0-6.52,3.19-6,2.43a34.28,34.28,0,0,1,6.24-2.68S42.66,25.15,42.58,25.06Z"/><path class="cls-7" d="M26,28.54s-1.32-.13-.6-.28a6.91,6.91,0,0,1,2.23.14c.84.11.48,0,1.37.11.59.08,1.37.11,1.3.21s.61.14-.5.44a34,34,0,0,0-3.29,1.15c-.47.2-4.58,1.67-5.67,2s2.31-3.09,3-3.46.09.45-.19.64-1.63,1.63-.18,1.4,1.3-1.16,1.27-1.4-.28-.82.07-.92.48.32.35.39a1.67,1.67,0,0,0,2.09.28C28.15,28.56,26,28.54,26,28.54Z"/><path class="cls-7" d="M32.21,29.07s.14-.17,1.53,0,3.65.41,3.34.65a65.54,65.54,0,0,1-6.49,2.5c-1.62.49,4.92-2.13,3.08-1.74a10.13,10.13,0,0,0-4.16,2s-1,.41-.85.18,5.53-2.83,3.9-2.85c0,0-1.2.18-4.07,2.7A10.3,10.3,0,0,1,32.21,29.07Z"/><path class="cls-7" d="M27.15,32.88s4.1-3.49,2.8-3.38-8.45,3-8.45,3a16.24,16.24,0,0,0,4.41.52s-2.19-.32-1.31-.89,1.21.74,1.83.75a1,1,0,0,0-.05-.69c-.18-.42,1-1.48,1.88-1.58,0,0,1.38,0-1.38,2.18C26.59,33,27.15,32.88,27.15,32.88Z"/><path class="cls-2" d="M33.61,34C26.12,38.31,12.12,38.07,11,36.11s5.19-8.36,12.68-12.69S44,20.65,45.14,22.61,41.11,29.66,33.61,34Z"/><polygon class="cls-3" points="6.82 38.62 11.09 38.95 16.5 38.37 22.53 36.92 28.6 34.76 34.11 32.1 38.52 29.19 41.39 26.32 42.44 23.77 41.59 21.79 38.89 20.58 34.63 20.25 29.22 20.83 23.18 22.27 17.11 24.43 11.61 27.09 7.2 30 4.33 32.88 3.27 35.42 4.13 37.4 6.82 38.62"/><path class="cls-4" d="M21.57,35.08a43.06,43.06,0,0,0,7.69-2.92l1,1.78-1.45.7-5.26,1.88-1.27.42Z"/><polygon class="cls-4" points="15.99 36.52 16.88 38.2 11.27 38.95 10.65 37.24 15.99 36.52"/><polygon class="cls-4" points="36.7 30.37 35.59 28.64 38.16 26.8 39.49 25.59 40.57 27.23 38.77 29.02 36.7 30.37"/><polygon class="cls-3" points="5.67 37.35 9.49 37.69 14.61 37.15 20.53 35.78 26.68 33.72 32.44 31.16 37.26 28.37 40.67 25.6 42.32 23.14 42.06 21.22 39.92 20.04 36.1 19.7 30.98 20.24 25.06 21.61 18.91 23.67 13.15 26.23 8.33 29.02 4.93 31.78 3.27 34.24 3.53 36.16 5.67 37.35"/><path class="cls-5" d="M16.21,36.3A29.09,29.09,0,0,1,8.05,37c-6.11-.61-4.54-4.78,3.5-9.32s19.5-7.73,25.61-7.13,4.54,4.78-3.5,9.32A63.35,63.35,0,0,1,16.21,36.3"/><path class="cls-6" d="M12.64,27.75c-7.47,4.22-9,8.08-3.44,8.63S25.33,34,32.8,29.74s9-8.09,3.44-8.64S20.1,23.53,12.64,27.75Z"/><path class="cls-7" d="M18.1,26.87a20.22,20.22,0,0,0,3.33-1c1.94-.73,2.64-.44,2.64-.44s-1,.74-4.25,1.32a7.12,7.12,0,0,0-1.74.43,9.28,9.28,0,0,0,1.23-.21c1-.2,3.33-.21,2.5.06a6.4,6.4,0,0,1-3.12.42,3.11,3.11,0,0,0-1.58,0,43.07,43.07,0,0,0,4.51.78c1.16,0,1-.23,1.56-.56a43.31,43.31,0,0,0,3.46-3.41C26.77,24,22.19,25,18.1,26.87Z"/><path class="cls-7" d="M33,24.69c-.12.07-1.62.65-2.87,1.1s-3.25,1-3.53,1.18a6.83,6.83,0,0,1-2.51.73c-.41-.12,2.81-3.18,3.34-3.48s2-.95,5.24.13c0,0,.08.21-.63.18,0,0-3-.26-3.76.3-1.15.83,2.36,0,4-.13,0,0-6.34,1.16-6,1.71s6.59-1.8,6.59-1.8Z"/><path class="cls-7" d="M33.16,25.06l-7.4,2.65c-.64.23-2.12.58-1.72.81a17.12,17.12,0,0,0,4.82.5c.61-.21,4.3-3.14,4.33-3.52s-2.1,2.16-3.89,2.39c0,0-1.1-.16,3.37-2.36,0,0-6.52,3.19-6,2.43a34.28,34.28,0,0,1,6.24-2.68S33.24,25.15,33.16,25.06Z"/><path class="cls-7" d="M16.58,28.54s-1.33-.13-.61-.28a7,7,0,0,1,2.24.14c.84.11.47,0,1.36.11.6.08,1.37.11,1.3.21s.62.14-.49.44a33.09,33.09,0,0,0-3.29,1.15c-.47.2-4.58,1.67-5.67,2s2.31-3.09,3-3.46.08.45-.2.64-1.63,1.63-.17,1.4,1.29-1.16,1.27-1.4-.28-.82.07-.92.47.32.35.39a1.67,1.67,0,0,0,2.09.28C18.73,28.56,16.58,28.54,16.58,28.54Z"/><path class="cls-7" d="M22.79,29.07s.14-.17,1.53,0,3.65.41,3.33.65a66.18,66.18,0,0,1-6.48,2.5c-1.62.49,4.92-2.13,3.08-1.74a10.13,10.13,0,0,0-4.16,2s-1,.41-.86.18,5.54-2.83,3.91-2.85c0,0-1.2.18-4.07,2.7A10.3,10.3,0,0,1,22.79,29.07Z"/><path class="cls-7" d="M17.73,32.88s4.1-3.49,2.8-3.38-8.45,3-8.45,3a16.24,16.24,0,0,0,4.41.52s-2.19-.32-1.31-.89,1.21.74,1.83.75a1,1,0,0,0-.06-.69c-.17-.42,1-1.48,1.89-1.58,0,0,1.38,0-1.38,2.18C17.16,33,17.73,32.88,17.73,32.88Z"/></g></g></svg>