<svg xmlns="http://www.w3.org/2000/svg" viewBox="0 0 150 52"><defs><style>.cls-1{isolation:isolate;}.cls-2{opacity:0.2;mix-blend-mode:multiply;}.cls-3{fill:#f2bfe7;}.cls-4{fill:#9d336a;}.cls-5{fill:#7f215b;}.cls-6{fill:#8e2b64;}.cls-7{fill:#f9e5f2;}.cls-8{fill:#721c55;}.cls-9{fill:#b24081;}.cls-10{fill:#f25aa6;}.cls-11,.cls-12{fill:#fff;}.cls-11{opacity:0.13;}.cls-12{opacity:0.51;}.cls-13{fill:#eaa7e1;}</style></defs><g class="cls-1"><g id="Layer_1" data-name="Layer 1"><ellipse class="cls-2" cx="28.35" cy="45.84" rx="25.23" ry="5.61"/><path class="cls-3" d="M43.67,33.93c-7.48-2.64-16.08,3.89-18.48,5.84a66.2,66.2,0,0,0,6.81.35,62,62,0,0,0,9.24-.66C44.39,38.7,47,37.61,47,36.38S44.28,34.14,43.67,33.93Z"/><path class="cls-4" d="M48.78,38.58v1.63c-2.28,3.1-10.89,5.41-21.17,5.41S8.71,43.31,6.44,40.21V38.58H5.58v2.87h0c0,3.95,9.86,7.16,22,7.16s22-3.21,22-7.16h0V38.58Z"/><path class="cls-5" d="M41,47.14c5.27-1.31,8.67-3.37,8.67-5.69V38.58h-.59l-.27.14v1.49c-1.13,1.54-3.82,2.88-7.51,3.85Z"/><path class="cls-4" d="M49.64,38.89l-.79.47,0,4a3,3,0,0,0,.76-1.87Z"/><path class="cls-6" d="M39.19,47.06c0-.7-1.27-1.49-2.82-2-1.78.25-3.69.43-5.68.52a.55.55,0,0,0,0,.17,7.52,7.52,0,0,0,3,2.62A52.44,52.44,0,0,0,39,47.59.78.78,0,0,0,39.19,47.06Z"/><path class="cls-7" d="M27.61,31.36c-12.17,0-22,3.23-22,7.22s9.86,7.21,22,7.21,22-3.23,22-7.21S39.78,31.36,27.61,31.36Zm0,13c-10.91,0-19.76-2.6-19.76-5.8s8.85-5.81,19.76-5.81,19.75,2.6,19.75,5.81S38.52,44.38,27.61,44.38Z"/><path class="cls-8" d="M36.41,48c1.05-.15,2.07-.33,3-.53.06-1,.13-2,.19-3-1.14.24-2.36.46-3.65.63Z"/><path class="cls-3" d="M44.25,43.3a1,1,0,0,0,0-.59,1.1,1.1,0,0,0-.85-.65c-3.6,1.41-9.34,2.32-15.8,2.32-2.28,0-4.47-.12-6.51-.32l2,.49L28,45.79A49.28,49.28,0,0,0,44.25,43.3Z"/><path class="cls-5" d="M31.2,48.52c.86-.05,1.71-.11,2.54-.19l0-3c-.79.08-1.59.14-2.42.18Z"/><path class="cls-8" d="M33.74,48.33l0-3h-.17l-.57,0h-.18l-.51,0h-.19l-.53,0h-.27l0,1,.32.34a7.7,7.7,0,0,0,2.06,1.49h.11Z"/><path class="cls-5" d="M25.12,48.57h.32l.22-3h-.29Z"/><path class="cls-5" d="M21.46,48.33l.66.06.3-3-.68-.06Z"/><path class="cls-9" d="M18.89,48l.52.07.18-3L19,45C18.94,46,18.92,47,18.89,48Z"/><path class="cls-5" d="M14.37,47.17l.55.13.22-2.95-.59-.14Z"/><path class="cls-9" d="M11.59,46.37l.36.12.3-2.92-.45-.15Z"/><path class="cls-9" d="M9,45.3c.4.2.84.4,1.31.59.11-1,.21-1.93.32-2.9-.52-.21-1-.43-1.46-.66Z"/><path class="cls-9" d="M6.94,43.93a5.41,5.41,0,0,0,.43.35l.33-2.86c-.19-.14-.36-.28-.52-.42Z"/><path class="cls-9" d="M29.86,48.57h.31v-3h-.29C29.87,46.58,29.86,47.58,29.86,48.57Z"/><path class="cls-10" d="M27.61,31.36c-12.17,0-22,3.23-22,7.22s9.86,7.21,22,7.21,22-3.23,22-7.21S39.78,31.36,27.61,31.36Zm0,14.26c-12,0-21.76-3.15-21.76-7s9.74-7,21.76-7,21.75,3.15,21.75,7S39.62,45.62,27.61,45.62Z"/><path class="cls-9" d="M48.49,36.28a5.75,5.75,0,0,0-.66-.31,4.38,4.38,0,0,1,1.33,1.64l.32.1h0l0-.09h0a.36.36,0,0,1,0-.09h0a.36.36,0,0,1,0-.09h0s0,0,0-.08h0a.56.56,0,0,0,0-.08h0l-.05-.08h0a.22.22,0,0,0-.05-.08h0L49.1,37h0L49,36.9h0L49,36.81h0l-.06-.08h0l-.06-.08h0l-.07-.08h0l-.07-.08h0a.3.3,0,0,0-.08-.08h0Z"/><ellipse class="cls-10" cx="27.62" cy="38.57" rx="19.74" ry="5.8"/><ellipse class="cls-7" cx="27.62" cy="38.57" rx="19.51" ry="5.54"/><path class="cls-3" d="M43,42c-3.29-.47-12.19,2.14-18.51.22a13.7,13.7,0,0,0-3.22-.64,12.77,12.77,0,0,0-4.42.36c-.45.14-.82.29-1.06.39l3.37,1.26a63.09,63.09,0,0,0,8.45.54C33.88,44.11,39.44,43.28,43,42Z"/><path class="cls-8" d="M49.5,42.25a3.14,3.14,0,0,0-1-.62,2.86,2.86,0,0,0-1-.17,15.07,15.07,0,0,1-3.6,1.8l-.27.28L46.71,45A5.7,5.7,0,0,0,49.5,42.25Z"/><ellipse class="cls-10" cx="27.62" cy="38.57" rx="16.57" ry="4.29"/><ellipse class="cls-7" cx="27.62" cy="38.57" rx="16.28" ry="4.07"/><ellipse class="cls-10" cx="27.48" cy="38.57" rx="14.56" ry="2.8"/><ellipse class="cls-7" cx="27.48" cy="38.57" rx="14.28" ry="2.58"/><path class="cls-10" d="M19.28,37.9c1-.13,1.51-.2,2.16-.24,1.19-.09,2.59-.19,4.32-.21.31,0,1.31,0,2.63,0s2.63.17,3.6.27a7.23,7.23,0,0,0-2.44.5c-.26.1-1.81.7-1.74,1.18,0,.25.49.39.83.47-1.31,0-2.39,0-3.15,0a35.74,35.74,0,0,1-6.15-.76c-.85-.19-2.28-.5-2.26-.76C17.09,38.28,17.22,38.17,19.28,37.9Z"/><path class="cls-10" d="M29.58,39.82c-.69-.12-.92-.24-.95-.4-.05-.31.78-.7,1.1-.85a6.36,6.36,0,0,1,1.92-.52A16,16,0,0,1,33.33,38a15.73,15.73,0,0,1,3.3.15c.64.12,1.16.21,1.18.4,0,.35-1.74.77-2.23.88a23.65,23.65,0,0,1-2.81.4A10.27,10.27,0,0,1,29.58,39.82Z"/><path class="cls-7" d="M30,38.78a2.8,2.8,0,0,1,.88-.37,10.58,10.58,0,0,1,1.92-.23,25,25,0,0,1,2.63,0c.62,0,2,.14,2,.35s-.15.16-1.08.39a25.69,25.69,0,0,1-3.45.61,18.5,18.5,0,0,1-2.16.1c-.94,0-1.23-.09-1.27-.24S29.85,38.89,30,38.78Z"/><path class="cls-7" d="M27.46,39.63c-.56,0-1.35,0-2.29,0-3.49-.12-7.28-.77-7.26-1.18s1.79-.4,4.08-.55c3.47-.22,6.3-.2,8.19-.13-.26.06-2.71.65-2.75,1.64A.89.89,0,0,0,27.46,39.63Z"/><path class="cls-10" d="M27.69,38.24c0,.18-.88.51-.84,1,0,.06,0,.08,0,.12-.1.26-1.18.06-1.79,0-2.37-.4-3.61-.28-3.61-.45s.82-.24,2.45-.46C24.13,38.34,27.62,37.89,27.69,38.24Z"/><path class="cls-7" d="M27.12,38.36a6,6,0,0,0-1.86.13c-1.66.22-2,.21-2,.29s2,.18,2.74.39a.62.62,0,0,0,.4,0c.13-.08.14-.2.25-.37S27.13,38.43,27.12,38.36Z"/><path class="cls-4" d="M53.15,34.58v1.63c-2.27,3.1-10.88,5.41-21.16,5.41s-18.9-2.31-21.17-5.41V34.58H10v2.87h0c0,4,9.86,7.16,22,7.16s22-3.2,22-7.16h0V34.58Z"/><path class="cls-5" d="M45.35,43.15c5.27-1.31,8.67-3.38,8.67-5.7V34.58h-.59l-.28.15v1.48c-1.12,1.54-3.82,2.89-7.5,3.85Z"/><path class="cls-4" d="M54,34.9l-.79.46,0,4A2.93,2.93,0,0,0,54,37.45Z"/><path class="cls-7" d="M32,27.37c-12.17,0-22,3.23-22,7.21s9.86,7.21,22,7.21,22-3.23,22-7.21S44.15,27.37,32,27.37Zm0,13c-10.92,0-19.76-2.6-19.76-5.8s8.84-5.8,19.76-5.8,19.75,2.59,19.75,5.8S42.9,40.38,32,40.38Z"/><path class="cls-8" d="M40.79,44c1.05-.15,2.06-.33,3-.53l.2-3c-1.14.25-2.37.46-3.65.63Z"/><path class="cls-5" d="M35.57,44.52c.87-.05,1.72-.11,2.55-.19,0-1,0-2,0-3-.79.08-1.6.14-2.42.18Z"/><path class="cls-5" d="M29.5,44.57h.32l.22-3h-.3Z"/><path class="cls-5" d="M25.84,44.33l.66.06.3-3-.69-.06Z"/><path class="cls-9" d="M23.27,44l.52.07.18-3-.62-.08Z"/><path class="cls-5" d="M18.75,43.18l.54.13.23-3-.59-.13Z"/><path class="cls-9" d="M16,42.37l.36.12.3-2.92-.45-.15Z"/><path class="cls-9" d="M13.41,41.3c.4.21.84.41,1.31.6L15,39c-.53-.21-1-.44-1.46-.67C13.52,39.32,13.46,40.31,13.41,41.3Z"/><path class="cls-9" d="M11.31,39.93c.14.12.28.24.43.35l.34-2.86a4.33,4.33,0,0,1-.52-.42Z"/><path class="cls-9" d="M34.24,44.58h.31v-3h-.29Z"/><path class="cls-10" d="M32,27.37c-12.17,0-22,3.23-22,7.21s9.86,7.21,22,7.21,22-3.23,22-7.21S44.15,27.37,32,27.37Zm0,14.25c-12,0-21.76-3.15-21.76-7s9.74-7,21.76-7,21.75,3.16,21.75,7S44,41.62,32,41.62Z"/><path class="cls-9" d="M52.87,32.28A7,7,0,0,0,52.2,32a4.42,4.42,0,0,1,1.34,1.64l.32.11h0a.42.42,0,0,0,0-.1h0l0-.09h0a.36.36,0,0,0,0-.09h0l0-.09h0a.59.59,0,0,1,0-.08h0a.35.35,0,0,0,0-.08h0l-.05-.08h0a.35.35,0,0,0-.05-.08h0l0-.08h0l-.06-.08h0l-.06-.08h0l-.06-.08h0l-.07-.08h0l-.07-.08h0a.6.6,0,0,0-.08-.08h0Z"/><ellipse class="cls-7" cx="32" cy="34.58" rx="19.51" ry="5.54"/><path class="cls-3" d="M25,39.94a36,36,0,0,0,10.1.53C39.92,40,47,38.4,47,36.38c0-1.26-2.75-2.24-3.36-2.45C36,31.2,27.05,38.23,25,39.94Z"/><path class="cls-10" d="M32,28.78c-10.9,0-19.74,2.59-19.74,5.8s8.84,5.8,19.74,5.8,19.74-2.6,19.74-5.8S42.9,28.78,32,28.78Zm0,11.34c-10.78,0-19.52-2.48-19.52-5.54S21.22,29,32,29s19.51,2.48,19.51,5.54S42.78,40.12,32,40.12Z"/><path class="cls-10" d="M32,30.29c-9.15,0-16.58,1.92-16.58,4.29S22.85,38.86,32,38.86s16.57-1.92,16.57-4.28S41.15,30.29,32,30.29Zm0,8.35c-9,0-16.28-1.82-16.28-4.06S23,30.51,32,30.51s16.28,1.82,16.28,4.07S41,38.64,32,38.64Z"/><path class="cls-10" d="M31.86,31.78c-8,0-14.55,1.25-14.55,2.8s6.51,2.8,14.55,2.8,14.56-1.26,14.56-2.8S39.9,31.78,31.86,31.78Zm0,5.38C24,37.16,17.58,36,17.58,34.58S24,32,31.86,32s14.28,1.16,14.28,2.59S39.75,37.16,31.86,37.16Z"/><path class="cls-10" d="M23.66,33.9c1-.13,1.51-.19,2.16-.24,1.18-.09,2.58-.19,4.32-.2.31,0,1.31,0,2.63,0s2.63.16,3.59.26a7.47,7.47,0,0,0-2.43.5c-.26.1-1.81.7-1.74,1.19,0,.25.49.39.83.46-1.31,0-2.39,0-3.15,0a34.56,34.56,0,0,1-6.15-.76c-.86-.18-2.28-.5-2.26-.76C21.47,34.29,21.6,34.17,23.66,33.9Z"/><path class="cls-10" d="M34,35.82c-.69-.11-.92-.24-1-.39,0-.32.78-.71,1.1-.86A6,6,0,0,1,36,34.06,14.32,14.32,0,0,1,37.7,34a15.51,15.51,0,0,1,3.3.16c.65.11,1.17.2,1.18.39,0,.36-1.73.77-2.22.89-.27.06-.62.13-2.81.4A10.29,10.29,0,0,1,34,35.82Z"/><path class="cls-7" d="M34.38,34.79a2.4,2.4,0,0,1,.89-.37,10,10,0,0,1,1.92-.24c1.28,0,1.92,0,2.62,0s2,.14,2,.35-.14.17-1.08.4a26.64,26.64,0,0,1-3.44.6,16.33,16.33,0,0,1-2.16.1c-.94,0-1.23-.09-1.27-.23S34.23,34.89,34.38,34.79Z"/><path class="cls-7" d="M31.84,35.63c-.56,0-1.35,0-2.3,0-3.49-.11-7.27-.76-7.25-1.18s1.79-.4,4.08-.54c3.46-.23,6.29-.2,8.19-.14-.26.06-2.71.65-2.75,1.65A.53.53,0,0,0,31.84,35.63Z"/><path class="cls-10" d="M32.07,34.24c0,.18-.89.51-.84,1,0,.06,0,.09,0,.13-.1.26-1.19,0-1.8-.05-2.36-.4-3.6-.28-3.6-.45s.81-.25,2.45-.46C28.51,34.35,32,33.89,32.07,34.24Z"/><path class="cls-7" d="M31.49,34.37a5.5,5.5,0,0,0-1.85.12c-1.66.22-2,.22-2,.3s2,.18,2.74.38a.51.51,0,0,0,.4,0c.13-.07.14-.19.25-.36S31.51,34.43,31.49,34.37Z"/><path class="cls-4" d="M43.59,30v1.63C41.32,34.69,32.7,37,22.42,37S3.53,34.69,1.25,31.58V30H.39v2.87h0c0,4,9.86,7.17,22,7.17s22-3.21,22-7.17h0V30Z"/><path class="cls-6" d="M44.43,33.12a3.67,3.67,0,0,0-1.87-.5C39.32,35.19,31.52,37,22.42,37c-.94,0-1.87,0-2.78-.06l-.53.14c1,.65,2.17,1.3,3.43,1.94.67.34,1.32.65,1.95.94C35.39,39.63,44,36.72,44.43,33.12Z"/><path class="cls-8" d="M35.78,38.52c5.27-1.31,8.67-3.37,8.67-5.7V30h-.59l-.27.15v1.48c-1.13,1.54-3.82,2.89-7.51,3.85Z"/><path class="cls-4" d="M44.45,30.27l-.78.47,0,4a2.93,2.93,0,0,0,.76-1.88Z"/><path class="cls-6" d="M34,38.44c0-.7-1.26-1.5-2.82-2-1.78.26-3.69.44-5.68.53l0,.17a7.11,7.11,0,0,0,.91,1.12,7.92,7.92,0,0,0,2.06,1.5A53,53,0,0,0,33.77,39,.75.75,0,0,0,34,38.44Z"/><path class="cls-7" d="M22.42,22.74C10.25,22.74.39,26,.39,30s9.86,7.21,22,7.21,22-3.22,22-7.21S34.59,22.74,22.42,22.74Zm0,13c-10.91,0-19.76-2.59-19.76-5.8s8.85-5.8,19.76-5.8,19.76,2.6,19.76,5.8S33.33,35.75,22.42,35.75Z"/><path class="cls-8" d="M31.22,39.39c1.06-.15,2.07-.32,3-.52l.2-3c-1.15.25-2.37.46-3.66.64C30.94,37.43,31.08,38.41,31.22,39.39Z"/><path class="cls-8" d="M26,39.89c.87,0,1.72-.11,2.54-.18l0-3c-.79.07-1.59.13-2.41.18Z"/><path class="cls-5" d="M19.93,39.94h.32c.08-1,.15-2,.22-3h-.29C20.1,38,20,39,19.93,39.94Z"/><path class="cls-5" d="M16.28,39.7l.65.06.31-3-.69-.06Z"/><path class="cls-9" d="M13.7,39.4l.53.07.18-3-.63-.08C13.76,37.41,13.73,38.41,13.7,39.4Z"/><path class="cls-5" d="M9.18,38.55l.55.13.22-3-.58-.14Z"/><path class="cls-9" d="M6.41,37.74l.36.12.29-2.92-.44-.15Z"/><path class="cls-9" d="M3.84,36.67c.41.21.84.41,1.31.6l.32-2.9c-.52-.21-1-.43-1.46-.66Z"/><path class="cls-9" d="M1.75,35.3a5,5,0,0,0,.43.35l.33-2.85c-.18-.14-.36-.28-.52-.42Z"/><path class="cls-8" d="M24.67,40H25V37h-.29Z"/><path class="cls-10" d="M22.42,22.74C10.25,22.74.39,26,.39,30s9.86,7.21,22,7.21,22-3.22,22-7.21S34.59,22.74,22.42,22.74Zm0,14.26C10.41,37,.66,33.84.66,30s9.75-7,21.76-7,21.76,3.15,21.76,7S34.44,37,22.42,37Z"/><path class="cls-9" d="M43.31,27.65c-.21-.11-.43-.21-.67-.31A4.33,4.33,0,0,1,44,29l.32.1h0l0-.09h0l0-.1h0l0-.09h0l0-.09h0l-.05-.09h0l0-.09h0L44,28.45h0l-.06-.08h0l-.06-.08h0l-.06-.08h0a.46.46,0,0,0-.07-.07h0L43.64,28h0l-.07-.08h0l-.08-.08h0l-.08-.08h0Z"/><ellipse class="cls-10" cx="22.43" cy="29.95" rx="19.74" ry="5.8"/><ellipse class="cls-7" cx="22.43" cy="29.95" rx="19.51" ry="5.54"/><ellipse class="cls-10" cx="22.43" cy="29.95" rx="16.57" ry="4.29"/><ellipse class="cls-7" cx="22.43" cy="29.95" rx="16.28" ry="4.07"/><ellipse class="cls-10" cx="22.3" cy="29.95" rx="14.56" ry="2.8"/><ellipse class="cls-7" cx="22.3" cy="29.95" rx="14.28" ry="2.58"/><path class="cls-10" d="M14.09,29.28c1-.13,1.52-.2,2.16-.25,1.19-.08,2.59-.19,4.32-.2.31,0,1.31,0,2.63.05s2.63.16,3.6.26a7.82,7.82,0,0,0-2.44.5c-.26.1-1.81.7-1.74,1.19,0,.25.49.39.83.46-1.31,0-2.38,0-3.14,0a36.75,36.75,0,0,1-6.16-.76c-.85-.19-2.28-.51-2.25-.77C11.9,29.66,12,29.54,14.09,29.28Z"/><path class="cls-10" d="M24.39,31.2c-.68-.12-.92-.25-.94-.4-.06-.32.77-.7,1.09-.85a6.45,6.45,0,0,1,1.92-.52,13.28,13.28,0,0,1,1.68-.09,15.73,15.73,0,0,1,3.3.15c.64.11,1.16.21,1.18.4,0,.35-1.73.76-2.23.88a26.2,26.2,0,0,1-2.8.4A10.65,10.65,0,0,1,24.39,31.2Z"/><path class="cls-7" d="M24.82,30.16a2.65,2.65,0,0,1,.88-.37,11,11,0,0,1,1.92-.24c1.28,0,1.93-.05,2.63,0s2,.14,2,.36-.15.16-1.08.39a27.42,27.42,0,0,1-3.45.61,19.5,19.5,0,0,1-2.16.09c-.94,0-1.23-.09-1.27-.23S24.66,30.26,24.82,30.16Z"/><path class="cls-7" d="M22.27,31c-.56,0-1.35,0-2.29,0-3.49-.11-7.27-.76-7.25-1.17s1.79-.4,4.07-.55c3.47-.22,6.3-.2,8.2-.14-.27.06-2.71.65-2.76,1.65A.76.76,0,0,0,22.27,31Z"/><path class="cls-10" d="M22.51,29.61c0,.18-.89.51-.85,1,0,.06,0,.09,0,.13-.1.26-1.18.05-1.79-.05-2.37-.4-3.6-.28-3.61-.45s.82-.24,2.45-.46C18.94,29.72,22.44,29.27,22.51,29.61Z"/><path class="cls-7" d="M21.93,29.74a5.35,5.35,0,0,0-1.85.13c-1.67.21-2,.21-2,.29s2,.18,2.74.38a.49.49,0,0,0,.39,0c.13-.07.14-.19.26-.36S21.94,29.81,21.93,29.74Z"/><path class="cls-4" d="M47.17,27.41V29C44.9,32.14,36.28,34.45,26,34.45S7.11,32.14,4.84,29V27.41H4v2.87H4c0,3.95,9.87,7.16,22,7.16s22-3.21,22-7.16h0V27.41Z"/><path class="cls-5" d="M39.36,36C44.63,34.67,48,32.6,48,30.28V27.41h-.58l-.28.15V29c-1.13,1.54-3.82,2.88-7.5,3.85Z"/><path class="cls-4" d="M48,27.73l-.78.46c0,1.32,0,2.64,0,4A2.9,2.9,0,0,0,48,30.28Z"/><path class="cls-6" d="M37.59,35.89c0-.7-1.27-1.49-2.83-2-1.78.25-3.68.43-5.67.52a1.36,1.36,0,0,0,0,.17A7.63,7.63,0,0,0,30,35.68,7.73,7.73,0,0,0,32,37.17a52.84,52.84,0,0,0,5.32-.75A.78.78,0,0,0,37.59,35.89Z"/><path class="cls-7" d="M26,20.19c-12.16,0-22,3.23-22,7.22s9.87,7.21,22,7.21,22-3.23,22-7.21S38.17,20.19,26,20.19Zm0,13c-10.91,0-19.75-2.6-19.75-5.8S15.09,21.6,26,21.6s19.76,2.6,19.76,5.81S36.91,33.21,26,33.21Z"/><path class="cls-8" d="M34.8,36.85c1.06-.15,2.07-.33,3-.53l.2-3c-1.15.25-2.37.46-3.65.63Z"/><path class="cls-5" d="M29.59,37.35c.87-.05,1.72-.11,2.55-.19l0-3c-.78.08-1.59.14-2.41.18Z"/><path class="cls-8" d="M32.14,37.16l0-3h-.17l-.56.05h-.19l-.5,0h-.2l-.52,0h-.27l0,1,.31.34A7.73,7.73,0,0,0,32,37.17h.11Z"/><path class="cls-5" d="M23.52,37.4h.32l.21-3h-.29Z"/><path class="cls-5" d="M19.86,37.16l.66.06.3-3-.69-.06Z"/><path class="cls-9" d="M17.28,36.86l.53.07L18,34l-.62-.08Z"/><path class="cls-5" d="M12.77,36l.54.13.23-3L13,33Z"/><path class="cls-9" d="M10,35.2l.36.12.3-2.92-.45-.15Z"/><path class="cls-9" d="M7.42,34.13c.41.2.85.4,1.31.6l.33-2.91a15.47,15.47,0,0,1-1.46-.66Z"/><path class="cls-9" d="M5.33,32.76l.43.35.34-2.86c-.19-.14-.37-.28-.53-.42Z"/><path class="cls-9" d="M28.25,37.4h.31v-3h-.28Z"/><path class="cls-10" d="M26,20.19c-12.16,0-22,3.23-22,7.22s9.87,7.21,22,7.21,22-3.23,22-7.21S38.17,20.19,26,20.19Zm0,14.26c-12,0-21.75-3.15-21.75-7s9.74-7,21.75-7,21.76,3.15,21.76,7.05S38,34.45,26,34.45Z"/><path class="cls-9" d="M46.89,25.11a5.91,5.91,0,0,0-.67-.31,4.42,4.42,0,0,1,1.34,1.64l.32.1h0l0-.09h0a.36.36,0,0,0,0-.09h0a.36.36,0,0,0,0-.09h0a.56.56,0,0,1,0-.08h0a.59.59,0,0,0,0-.08h0a.22.22,0,0,0,0-.08h0l0-.08h0a.56.56,0,0,0,0-.08h0l-.06-.08h0l-.06-.08h0l-.06-.08h0l-.07-.08h0a.27.27,0,0,1-.07-.08h0l-.07-.08h0A.6.6,0,0,0,47,25.2h0Z"/><ellipse class="cls-10" cx="26.02" cy="27.4" rx="19.74" ry="5.8"/><ellipse class="cls-7" cx="26.02" cy="27.4" rx="19.51" ry="5.54"/><ellipse class="cls-10" cx="26.02" cy="27.4" rx="16.57" ry="4.29"/><ellipse class="cls-7" cx="26.02" cy="27.4" rx="16.28" ry="4.07"/><ellipse class="cls-10" cx="25.88" cy="27.4" rx="14.56" ry="2.8"/><ellipse class="cls-7" cx="25.88" cy="27.4" rx="14.28" ry="2.58"/><path class="cls-10" d="M17.67,26.73c1-.13,1.52-.19,2.17-.24,1.18-.09,2.58-.19,4.32-.21.3,0,1.3,0,2.63,0s2.63.17,3.59.27a7.6,7.6,0,0,0-2.44.5c-.25.1-1.81.7-1.73,1.19,0,.25.49.38.82.46-1.3,0-2.38,0-3.14,0A35.73,35.73,0,0,1,17.73,28c-.85-.19-2.27-.5-2.25-.76C15.49,27.11,15.62,27,17.67,26.73Z"/><path class="cls-10" d="M28,28.65c-.68-.11-.91-.24-.94-.4s.78-.7,1.1-.85a6.27,6.27,0,0,1,1.92-.52c.21,0,.54-.06,1.67-.09a15.73,15.73,0,0,1,3.3.15c.64.12,1.17.21,1.18.4,0,.35-1.73.77-2.22.88a24.14,24.14,0,0,1-2.81.4A10,10,0,0,1,28,28.65Z"/><path class="cls-7" d="M28.4,27.62a2.76,2.76,0,0,1,.88-.38A10.58,10.58,0,0,1,31.2,27c1.29,0,1.93-.05,2.63,0s2,.14,2,.35-.15.16-1.08.39a25.42,25.42,0,0,1-3.45.61,18.26,18.26,0,0,1-2.15.1c-.94,0-1.24-.09-1.28-.24S28.25,27.72,28.4,27.62Z"/><path class="cls-7" d="M25.85,28.46c-.56,0-1.35,0-2.29,0-3.49-.12-7.27-.77-7.25-1.18s1.79-.4,4.08-.55c3.46-.22,6.29-.19,8.19-.13-.27.06-2.71.65-2.75,1.64A.57.57,0,0,0,25.85,28.46Z"/><path class="cls-10" d="M26.09,27.07c0,.18-.89.51-.84,1,0,.06,0,.08,0,.12-.1.26-1.19.06-1.8,0-2.36-.4-3.6-.29-3.6-.46s.81-.24,2.45-.46C22.52,27.18,26,26.72,26.09,27.07Z"/><path class="cls-7" d="M25.51,27.19a6,6,0,0,0-1.85.13c-1.67.22-2,.22-2,.3s2,.17,2.74.38a.62.62,0,0,0,.4,0c.13-.08.14-.2.25-.36C25.25,27.3,25.53,27.26,25.51,27.19Z"/><ellipse class="cls-2" cx="132.45" cy="48.74" rx="16.25" ry="2.7"/><path class="cls-4" d="M125.11,48.84V47.9h1.79c3.4-2.49,5.93-11.93,5.93-23.2S130.3,4,126.9,1.5h-1.79V.56h3.15a2.64,2.64,0,0,1,.74.1h0A22.35,22.35,0,0,1,138.86,4c9,5.8,10.38,16.44,10.62,19.63s1,12.74-6.32,19.55a22.11,22.11,0,0,1-14.85,5.62h-3.2Z"/><path class="cls-7" d="M125.11,48.84C129.48,48.84,133,38,133,24.7S129.48.56,125.11.56s-7.9,10.81-7.9,24.14S120.75,48.84,125.11,48.84Zm0-2.49c-3.51,0-6.36-9.69-6.36-21.65s2.85-21.65,6.36-21.65,6.36,9.69,6.36,21.65S128.62,46.35,125.11,46.35Z"/><ellipse class="cls-10" cx="125.11" cy="24.72" rx="6.36" ry="21.64"/><ellipse class="cls-7" cx="125.11" cy="24.72" rx="6.07" ry="21.39"/><ellipse class="cls-10" cx="125.11" cy="24.72" rx="4.7" ry="18.17"/><ellipse class="cls-7" cx="125.11" cy="24.72" rx="4.46" ry="17.84"/><ellipse class="cls-10" cx="125.11" cy="24.57" rx="3.07" ry="15.95"/><ellipse class="cls-7" cx="125.11" cy="24.57" rx="2.83" ry="15.65"/><path class="cls-10" d="M124.37,15.57c-.14,1.11-.21,1.66-.26,2.37-.1,1.3-.21,2.84-.23,4.74,0,.33,0,1.43.06,2.88s.18,2.88.29,3.94a8.16,8.16,0,0,1,.54-2.67c.11-.28.77-2,1.31-1.91.27,0,.42.54.5.91,0-1.43,0-2.62,0-3.45a38.45,38.45,0,0,0-.83-6.74c-.2-.94-.55-2.5-.84-2.47C124.79,13.17,124.66,13.32,124.37,15.57Z"/><path class="cls-10" d="M126.48,26.86c-.13-.75-.27-1-.44-1-.34-.05-.77.86-.93,1.21a6.74,6.74,0,0,0-.57,2.1,17.19,17.19,0,0,0-.1,1.84,16.8,16.8,0,0,0,.17,3.61c.12.71.22,1.28.43,1.3.39,0,.84-1.9,1-2.44a30.23,30.23,0,0,0,.44-3.08A11.66,11.66,0,0,0,126.48,26.86Z"/><path class="cls-7" d="M125.34,27.33a3,3,0,0,0-.41,1,11.29,11.29,0,0,0-.25,2.1,26.9,26.9,0,0,0,0,2.88c0,.68.15,2.16.38,2.17.08,0,.18-.16.43-1.18a29.48,29.48,0,0,0,.67-3.78,21.09,21.09,0,0,0,.11-2.37c0-1-.1-1.35-.26-1.39S125.46,27.16,125.34,27.33Z"/><path class="cls-7" d="M126.27,24.54c0-.62,0-1.48,0-2.52-.13-3.82-.84-8-1.29-7.94s-.44,2-.6,4.46c-.25,3.8-.22,6.9-.15,9,.06-.29.71-3,1.8-3A.51.51,0,0,1,126.27,24.54Z"/><path class="cls-10" d="M124.74,24.79c.2,0,.56-1,1.06-.92.07,0,.1,0,.14,0,.29-.11.06-1.3,0-2-.44-2.6-.31-4-.49-4s-.27.9-.51,2.69C124.86,20.89,124.36,24.72,124.74,24.79Z"/><path class="cls-7" d="M124.88,24.16a6,6,0,0,1,.14-2c.24-1.82.23-2.2.32-2.2s.2,2.16.42,3a.62.62,0,0,1,0,.44c-.08.14-.21.15-.4.27C125,23.88,125,24.18,124.88,24.16Z"/><path class="cls-6" d="M148.66,19.81a21.15,21.15,0,0,0-6.14-10.27,20,20,0,0,0-2.26-1.73,21.15,21.15,0,0,0-10.76-3.3l.17.56a18.79,18.79,0,0,1,12,4.43,21,21,0,0,1,7,11.86Z"/><path class="cls-6" d="M145.65,16.41A21.16,21.16,0,0,1,148.92,22l-.22.73a24.78,24.78,0,0,0-4.08-6,23.46,23.46,0,0,0-7.09-5.32,21.51,21.51,0,0,0-6.48-1.89c-.1-.36-.2-.72-.3-1.06C133.61,8.82,140.67,10.34,145.65,16.41Z"/><path class="cls-6" d="M140.67,19.81a28,28,0,0,0-4.5-1.12,27.15,27.15,0,0,0-3.61-.3c0-.27-.05-.54-.08-.81a33.76,33.76,0,0,1,12,2.92,34.13,34.13,0,0,1,4.47,2.44l.06.8A40.31,40.31,0,0,0,140.67,19.81Z"/><path class="cls-6" d="M143,26.81a48,48,0,0,0,5.58-1.24l-.13.6a45.57,45.57,0,0,1-5.71,1.33,46.29,46.29,0,0,1-10,.55l0-.72A47.48,47.48,0,0,0,143,26.81Z"/><path class="cls-6" d="M127.69,2.22A20.61,20.61,0,0,1,135,3.35a23,23,0,0,1,12.06,10.54,28,28,0,0,1,1.19,3.23l-.23.2a22.72,22.72,0,0,0-4.64-7.13C142,8.8,137.6,4.22,131.13,4A14.51,14.51,0,0,0,129,4,9.55,9.55,0,0,0,127.69,2.22Z"/><path class="cls-6" d="M136,8.66A24,24,0,0,1,148.88,20.1l-.38.19a23.65,23.65,0,0,0-4.26-5.82A25.46,25.46,0,0,0,130.5,7.62c-.05-.16-.1-.31-.16-.46A28.14,28.14,0,0,1,136,8.66Z"/><path class="cls-6" d="M144,23.64c1.54.11,3.11.24,4.65.38l0,.42c-1.54-.14-3.1-.27-4.64-.38-3.69-.27-7.43-.43-11.13-.5,0-.14,0-.28,0-.42C136.54,23.2,140.29,23.37,144,23.64Z"/><path class="cls-6" d="M135.81,46.81a24,24,0,0,1-8.77,1c2.61-2.07,4.69-8.26,5.47-16.18a19.63,19.63,0,0,0,11.1-1.23,17.82,17.82,0,0,0,3.62-2.11,22,22,0,0,0,.7-3.24,25,25,0,0,0-2.48-14.21,29.57,29.57,0,0,1,4,12.85c.22,3,.92,12.27-5.8,19A24.06,24.06,0,0,1,135.81,46.81Z"/><path class="cls-10" d="M125.11,48.84C129.48,48.84,133,38,133,24.7S129.48.56,125.11.56s-7.9,10.81-7.9,24.14S120.75,48.84,125.11,48.84Zm0-.3c-4.26,0-7.72-10.67-7.72-23.84S120.85.86,125.11.86s7.72,10.67,7.72,23.84S129.38,48.54,125.11,48.54Z"/><path class="cls-11" d="M135.56,30a48.74,48.74,0,0,0-4-27.19,16.07,16.07,0,0,1,8.9,8.11C143.15,17,141.25,24.74,135.56,30Z"/><path class="cls-12" d="M140.71,13.11c-.21.42-1.94.17-3.26-.6s-2.38-2.09-2.11-2.5,2.5.26,4,1.46C139.61,11.65,140.92,12.68,140.71,13.11Z"/><path class="cls-12" d="M135.6,8.38c-.09.33,2.64,1.52,3,1.07.09-.11,0-.3,0-.38C138.05,8.06,135.67,8.09,135.6,8.38Z"/><path class="cls-11" d="M148.54,32.94c.19.08-.4,2.25-1.46,4.35-2.66,5.33-7.26,8.33-7.44,8.14s2.17-1.93,5-6C147.15,35.76,148.32,32.84,148.54,32.94Z"/><path class="cls-11" d="M147,34.63a9,9,0,0,1-1.31,2.21,13,13,0,0,1-3.1,3.35,20.93,20.93,0,0,1,2.58-3.58A13.08,13.08,0,0,1,147,34.63Z"/><path class="cls-2" d="M115.27,45.27c0,2.26-12.32,6.17-26.26,6.17S57.59,48.22,57.59,46,76.1,41.16,90,41.16,115.27,43,115.27,45.27Z"/><path class="cls-4" d="M113.2,40.66V42c-1.8,2.47-8.65,4.3-16.83,4.3s-15-1.83-16.83-4.3v-1.3h-.68v2.28h0c0,3.15,7.84,5.7,17.51,5.7s17.52-2.55,17.52-5.7h0V40.66Z"/><path class="cls-5" d="M107,47.47c4.19-1,6.89-2.68,6.89-4.53V40.66h-.47l-.22.12V42c-.89,1.22-3,2.29-6,3.06Z"/><path class="cls-4" d="M113.89,40.92l-.62.36v3.15a2.29,2.29,0,0,0,.61-1.49Z"/><path class="cls-7" d="M96.37,34.93c-9.67,0-17.51,2.56-17.51,5.73S86.7,46.4,96.37,46.4s17.52-2.57,17.52-5.74S106.05,34.93,96.37,34.93Zm0,10.34c-8.67,0-15.7-2.06-15.7-4.61s7-4.61,15.7-4.61,15.71,2.06,15.71,4.61S105.05,45.27,96.37,45.27Z"/><path class="cls-5" d="M103.37,48.17c.84-.12,1.64-.26,2.41-.42l.15-2.42c-.91.2-1.88.36-2.9.5Z"/><path class="cls-5" d="M99.23,48.56c.69,0,1.36-.08,2-.14l0-2.38c-.63.06-1.27.11-1.92.14Z"/><path class="cls-5" d="M94.4,48.6h.25l.17-2.37h-.23Z"/><path class="cls-5" d="M91.49,48.42l.52,0,.24-2.36-.55,0Z"/><path class="cls-9" d="M89.44,48.18l.42,0L90,45.87l-.49-.07Z"/><path class="cls-5" d="M85.85,47.5l.43.1.18-2.35L86,45.14Z"/><path class="cls-9" d="M83.64,46.86l.29.09.23-2.32-.35-.12Z"/><path class="cls-9" d="M81.6,46c.32.16.67.32,1,.47l.26-2.31a11.49,11.49,0,0,1-1.16-.52Z"/><path class="cls-9" d="M79.94,44.92c.1.09.22.18.34.27l.26-2.27-.41-.33Z"/><path class="cls-9" d="M98.16,48.61h.25V46.22h-.23Z"/><path class="cls-10" d="M96.37,34.93c-9.67,0-17.51,2.56-17.51,5.73S86.7,46.4,96.37,46.4s17.52-2.57,17.52-5.74S106.05,34.93,96.37,34.93Zm0,11.33c-9.55,0-17.29-2.5-17.29-5.6s7.74-5.6,17.29-5.6,17.3,2.51,17.3,5.6S105.93,46.26,96.37,46.26Z"/><path class="cls-3" d="M78.86,40.66c0,2.33,4.25,4.34,10.34,5.23l1.59-.21c.53-.08,1.59-.24,2.93-.47-7.41-.37-13-2.27-13-4.55,0-2.55,7-4.61,15.7-4.61a44.22,44.22,0,0,1,9.72,1,16.93,16.93,0,0,0-2.79-1.65,49.85,49.85,0,0,0-6.93-.46C86.7,34.93,78.86,37.49,78.86,40.66Z"/><path class="cls-9" d="M79.08,40.66c0-3.09,7.74-5.6,17.29-5.6a50.17,50.17,0,0,1,7.31.52l-.38-.19h0l-.4,0h0l-.4-.05h0l-.4,0h0l-.41-.05h0l-.41,0h0l-.41,0h0l-.41,0h0l-.41,0h0l-.42,0h0l-.42,0h0l-.42,0h-.47l-.43,0H96.37c-9.67,0-17.51,2.56-17.51,5.73h0v.12s0,.06,0,.09h0s0,.06,0,.1v0s0,.06,0,.08v0s0,.06,0,.09v0a.29.29,0,0,1,0,.09h0l0,.1v0l0,.08h0a.3.3,0,0,0,0,.1v0l0,.07v0l.06.1h0l0,.08,0,0,.06.09h0l.06.08,0,0a.6.6,0,0,0,.08.08h0l.08.08,0,0,.08.08h0l.09.08,0,0,.1.09h0l.1.09,0,0,.1.08h0l.11.09,0,0,.1.07h0l.11.09h0l.11.08h0l.13.08,0,0,.12.07h0l.14.08,0,0,.13.07h0l.15.08h0l.14.07,0,0,.15.08h0l.15.07,0,0,.33.15h0l.35.15h0l.37.15h0l.19.07h0l.2.07h0l.19.07h0l.21.07h0l.19.06h0l.21.07h0l.21.06h0l.22.07h0L85,45h0l.46.12h0l.47.12h0l.48.11h0l.5.11h0l.51.1h0l.53.09h0l.27,0h0l.28.05h0l.27,0h0l.28,0,.5-.06C83.46,45,79.08,43,79.08,40.66Z"/><ellipse class="cls-7" cx="96.38" cy="40.66" rx="15.52" ry="4.4"/><path class="cls-10" d="M96.38,36.05c-8.66,0-15.69,2.06-15.69,4.61s7,4.61,15.69,4.61,15.7-2.06,15.7-4.61S105.05,36.05,96.38,36.05Zm0,9c-8.56,0-15.51-2-15.51-4.4s6.95-4.41,15.51-4.41,15.52,2,15.52,4.41S105,45.06,96.38,45.06Z"/><path class="cls-10" d="M96.38,37.25c-7.27,0-13.17,1.53-13.17,3.41s5.9,3.41,13.17,3.41,13.18-1.53,13.18-3.41S103.66,37.25,96.38,37.25Zm0,6.64c-7.14,0-12.94-1.45-12.94-3.23s5.8-3.23,12.94-3.23,13,1.44,13,3.23S103.53,43.89,96.38,43.89Z"/><path class="cls-3" d="M80.87,40.66c0,2.27,6,4.13,13.8,4.38,5.06-.94,12.87-2.8,13.09-5.53,0-.55-.21-1.28-1.33-2.21a44.43,44.43,0,0,0-10.05-1C87.82,36.25,80.87,38.23,80.87,40.66Z"/><path class="cls-10" d="M96.28,38.43c-6.4,0-11.58,1-11.58,2.23s5.18,2.22,11.58,2.22,11.57-1,11.57-2.22S102.67,38.43,96.28,38.43Zm0,4.28c-6.28,0-11.36-.92-11.36-2.05s5.08-2,11.36-2,11.35.91,11.35,2S102.55,42.71,96.28,42.71Z"/><path class="cls-9" d="M89.75,40.12c.8-.1,1.21-.15,1.72-.19.94-.07,2.06-.15,3.43-.16.25,0,1,0,2.1,0s2.09.13,2.85.21a6,6,0,0,0-1.93.39c-.21.08-1.44.56-1.38,1,0,.2.39.31.65.37-1,0-1.89,0-2.5,0a28,28,0,0,1-4.89-.61C89.12,41,88,40.7,88,40.49S88.11,40.34,89.75,40.12Z"/><path class="cls-9" d="M97.94,41.65c-.54-.09-.73-.19-.75-.31s.62-.56.87-.68a4.82,4.82,0,0,1,1.53-.41,9,9,0,0,1,1.33-.08,12.83,12.83,0,0,1,2.62.12c.51.09.93.17.94.32s-1.37.61-1.77.7a21.2,21.2,0,0,1-2.23.32A8.27,8.27,0,0,1,97.94,41.65Z"/><path class="cls-3" d="M98.28,40.83a2,2,0,0,1,.7-.3,9.78,9.78,0,0,1,1.53-.19c1,0,1.53,0,2.09,0s1.56.12,1.57.28-.12.13-.86.32a20.41,20.41,0,0,1-2.74.48,15.31,15.31,0,0,1-1.71.08c-.75,0-1-.07-1-.19S98.16,40.91,98.28,40.83Z"/><path class="cls-7" d="M96.25,41.5c-.44,0-1.07,0-1.82,0-2.77-.09-5.78-.61-5.76-.94s1.42-.32,3.24-.43c2.75-.18,5-.16,6.51-.11-.21,0-2.15.51-2.19,1.31A1.11,1.11,0,0,0,96.25,41.5Z"/><path class="cls-10" d="M96.44,40.39c0,.15-.7.41-.67.77,0,.05,0,.07,0,.1-.08.21-.94.05-1.43,0-1.88-.31-2.86-.22-2.86-.35s.64-.2,1.94-.37C93.61,40.48,96.39,40.12,96.44,40.39Z"/><path class="cls-7" d="M96,40.49a4.46,4.46,0,0,0-1.47.1c-1.32.18-1.6.17-1.6.24a21.11,21.11,0,0,0,2.18.3.5.5,0,0,0,.32,0c.1-.06.11-.16.2-.29S96,40.55,96,40.49Z"/><path class="cls-6" d="M81.72,46.06A24.11,24.11,0,0,0,88.14,48c.35-.69.71-1.38,1.06-2.08L89,45.73a30.55,30.55,0,0,1-5-1.13C82.83,44.87,81.86,45.46,81.72,46.06Z"/><path class="cls-9" d="M84.12,37.78c-.43.23-.85.46-1.24.71,2.66-1.33,7.71-2.24,13.5-2.24.85,0,1.69,0,2.5.06l.1-.2c-.85,0-1.71-.06-2.6-.06A38.11,38.11,0,0,0,84.12,37.78Z"/><path class="cls-9" d="M80.87,40.66a1.56,1.56,0,0,1,.41-1,4.29,4.29,0,0,0-.48.47,1.27,1.27,0,0,0-.11.54c0,2.28,5.63,4.17,13,4.54l1-.16h0C86.91,44.79,80.87,42.93,80.87,40.66Z"/><path class="cls-9" d="M100.84,36.44a38.5,38.5,0,0,1,5.6.86h0l-.37-.26-1.93-.39c-1-.17-2.13-.31-3.29-.41Z"/><path class="cls-9" d="M83.21,40.66c0,1.88,5.9,3.41,13.17,3.41,1.12,0,2.2,0,3.24-.11q.45-.1.9-.24c-1.3.11-2.69.17-4.14.17-7.14,0-12.94-1.45-12.94-3.23s5.8-3.23,12.94-3.23c4.9,0,9.16.67,11.36,1.67,0-.06,0-.13,0-.19-2.31-1-6.51-1.66-11.31-1.66C89.11,37.25,83.21,38.78,83.21,40.66Z"/><path class="cls-9" d="M84.7,40.66c0,1.23,5.18,2.22,11.58,2.22a42.78,42.78,0,0,0,8.8-.78l.54-.27a41.31,41.31,0,0,1-9.34.88c-6.28,0-11.36-.92-11.36-2.05s5.08-2,11.36-2c5.61,0,10.28.73,11.19,1.7l.09-.15c-1.18-1-5.78-1.73-11.28-1.73C89.88,38.43,84.7,39.43,84.7,40.66Z"/><path class="cls-9" d="M89.7,45.83C83.46,45,79.08,43,79.08,40.66c0-3.09,7.74-5.6,17.29-5.6a50.17,50.17,0,0,1,7.31.52l-.38-.19a49.85,49.85,0,0,0-6.93-.46c-9.67,0-17.51,2.56-17.51,5.73,0,2.33,4.25,4.34,10.34,5.23Z"/><path class="cls-3" d="M83.22,35.15c7.89-1.89,15-1.72,17.45.21a2.33,2.33,0,0,0,.22-1.57c-.74-3.08-9-3.75-18.36-1.5S66.1,38.86,66.84,41.94a2.37,2.37,0,0,0,.91,1.3C69.11,40.39,75.32,37,83.22,35.15Z"/><path class="cls-13" d="M99.7,34.8c.08-.69-.73-1.54-1.1-1.93A6.46,6.46,0,0,0,94.91,31,30.16,30.16,0,0,0,91.57,31a16.27,16.27,0,0,0-3,.64L88,34.23C93.06,33.52,97.35,33.74,99.7,34.8Z"/><path class="cls-13" d="M68.47,39.73a3.74,3.74,0,0,0,.06,2.36,15.31,15.31,0,0,1,3.94-3l-.53-2A4,4,0,0,0,68.47,39.73Z"/><path class="cls-13" d="M73.2,38.75l.84-.43-.25-2.14-1.05.64Z"/><path class="cls-4" d="M100.22,34l.31,1.26c-1.19,2.82-7.42,6.2-15.37,8.11s-15,1.71-17.37-.27l-.3-1.27-.67.16.53,2.22h0c.73,3.06,9,3.72,18.36,1.47s16.44-6.56,15.71-9.62h0l-.53-2.22Z"/><path class="cls-8" d="M95.77,42c3.84-2,6.08-4.21,5.65-6l-.53-2.22-.45.11-.19.17.28,1.14c-.59,1.4-2.42,2.94-5.09,4.37Z"/><path class="cls-4" d="M101,34l-.52.5.75,3.06a2.34,2.34,0,0,0,.24-1.59Z"/><path class="cls-7" d="M82.52,32.29c-9.41,2.25-16.44,6.57-15.7,9.65s9,3.76,18.37,1.5,16.44-6.57,15.7-9.65S91.93,30,82.52,32.29Zm2.41,10.06c-8.44,2-15.76,1.65-16.35-.83s5.77-6.12,14.2-8.14,15.76-1.65,16.35.83S93.37,40.33,84.93,42.35Z"/><path class="cls-8" d="M92.41,43.54c.79-.31,1.54-.64,2.24-1l-.41-2.39c-.84.41-1.74.8-2.71,1.17Z"/><path class="cls-9" d="M69.86,46.25a10.25,10.25,0,0,0,1.43.37l-.38-2.31a11,11,0,0,1-1.41-.37Z"/><path class="cls-5" d="M72.61,46.82l.46,0-.28-2.31-.49-.05Z"/><path class="cls-5" d="M69,45.89l-.43-2.35-.34-.19.34,2.3Z"/><path class="cls-6" d="M86.85,43Q76.49,46,74.67,47a41.47,41.47,0,0,0,8-.71A9.78,9.78,0,0,0,86.85,43Z"/><path class="cls-5" d="M74.74,47h.46L75,44.64h-.53Z"/><path class="cls-9" d="M75.68,47H76l-.22-2.33H75.4Z"/><path class="cls-4" d="M78.62,46.81l1-.1-.35-2.34-1.07.11Z"/><path class="cls-8" d="M80.83,46.56l.62-.09L81,44.14l-.64.09Z"/><path class="cls-5" d="M84.91,43.37l.49,2.33.31-.07.27-.07-.52-2.32-.3.08Z"/><path class="cls-8" d="M85.2,44.75c.18-.15.35-.29.5-.44l-.2-.9-.55.16Z"/><path class="cls-10" d="M82.52,32.29c-9.41,2.25-16.44,6.57-15.7,9.65s9,3.76,18.37,1.5,16.44-6.57,15.7-9.65S91.93,30,82.52,32.29Zm2.64,11C75.87,45.54,67.75,44.9,67,41.89s6.23-7.25,15.52-9.47,17.41-1.59,18.13,1.42S94.45,41.09,85.16,43.32Z"/><path class="cls-3" d="M88.42,31.23c-.74.3-1.54.64-2.41,1s-1.45.62-1.9.84c7-1.48,13-1.29,14.61.41a4.91,4.91,0,0,0-.21-.91,5.78,5.78,0,0,0-.42-1A25.53,25.53,0,0,0,88.42,31.23Z"/><path class="cls-9" d="M98.19,31.78l-.1-.19a25.53,25.53,0,0,0-9.67-.36l-.47.19C92.23,30.88,95.9,31,98.19,31.78Z"/><path class="cls-3" d="M78.54,35c7.55-3,14.56-3.77,17.31-2.21a2.31,2.31,0,0,0,0-1.58c-1.15-2.95-9.39-2.48-18.39,1.05S62.1,41,63.26,43.94a2.28,2.28,0,0,0,1.08,1.16C65.29,42.09,71,37.92,78.54,35Z"/><path class="cls-13" d="M90.76,30.4a4.67,4.67,0,0,0-.94-.07,1.4,1.4,0,0,0-.75.12,1.45,1.45,0,0,0-.16,1.71c.78-.09,1.52-.16,2.22-.18Z"/><path class="cls-13" d="M74.5,34.24l.07.16.72-.33-.05-.1Z"/><path class="cls-13" d="M76.32,35.88c.47-.21,1-.41,1.44-.61l-.86-2,2.19-.7.72,1.86.59-.21-.87-2.19-4.24,2Z"/><path class="cls-13" d="M65.62,40.2l.87,1.85a28.74,28.74,0,0,1,5.8-4.15L71.4,36l1-.55,1,1.89q1-.54,2.1-1l-.87-1.88-4.32,2Z"/><path class="cls-4" d="M95.21,31.41l.48,1.21c-.78,3-6.49,7.17-14.1,10.15s-14.66,3.77-17.24,2.14l-.47-1.21-.64.25.83,2.12h0C65.22,49,73.45,48.51,82.46,45s15.37-8.77,14.23-11.69h0l-.84-2.13Z"/><path class="cls-5" d="M91.92,40c3.52-2.5,5.44-5,4.77-6.73l-.84-2.13-.43.17-.16.19.43,1.1c-.39,1.47-2,3.24-4.44,5Z"/><path class="cls-4" d="M96,31.4,95.5,32l1.17,2.92a2.38,2.38,0,0,0,0-1.6Z"/><path class="cls-7" d="M77.45,32.22C68.45,35.75,62.08,41,63.24,44s9.39,2.47,18.4-1.06S97,34.11,95.85,31.16,86.46,28.68,77.45,32.22Zm3.78,9.63C73.15,45,65.85,45.66,64.92,43.29s4.87-6.86,12.94-10,15.38-3.81,16.31-1.44S89.31,38.68,81.23,41.85Z"/><path class="cls-5" d="M88.8,42c.74-.42,1.44-.84,2.09-1.27l-.74-2.31q-1.17.78-2.52,1.53Z"/><path class="cls-5" d="M86.3,43.3l.55-.27-1-2.17-.61.3Z"/><path class="cls-5" d="M84.14,44.29l.69-.3L84,41.78l-.83.36Z"/><path class="cls-9" d="M81.51,42.8,82.36,45l.1,0,.22-.08-.82-2.24-.27.11Z"/><path class="cls-5" d="M78.78,46.27l.69-.22-.89-2.2-.74.23C78.16,44.81,78.47,45.54,78.78,46.27Z"/><path class="cls-9" d="M77.47,46.66l.54-.15-1-2.2-.48.14Z"/><path class="cls-5" d="M73.85,47.5c.38-.07.77-.14,1.16-.23L74.19,45,73,45.28Z"/><path class="cls-6" d="M69.07,48a6.5,6.5,0,0,0,1-.8,5.79,5.79,0,0,0,1.06-1.45c-1.3.08-2.42.18-3.29.27-2.13.21-2.86.36-3.12.9v0A7.25,7.25,0,0,0,69.07,48Z"/><path class="cls-9" d="M71.62,47.84l.35,0-.77-2.24-.35,0C71.11,46.34,71.36,47.09,71.62,47.84Z"/><path class="cls-4" d="M71,46a2.52,2.52,0,0,0,.15-.27H70.9Z"/><path class="cls-4" d="M67.64,47.91c.36,0,.74.06,1.14.07l-.73-2.24c-.42,0-.82,0-1.19-.08Z"/><path class="cls-4" d="M66.32,47.68l.31.07-.87-2.28-.34-.09Z"/><path class="cls-10" d="M77.45,32.22C68.45,35.75,62.08,41,63.24,44s9.39,2.47,18.4-1.06S97,34.11,95.85,31.16,86.46,28.68,77.45,32.22Zm4.14,10.55c-8.89,3.49-17,4-18.15,1.1s5.17-8,14.06-11.53,17-4,18.15-1.1S90.48,39.28,81.59,42.77Z"/><path class="cls-3" d="M88.4,30.49a16.31,16.31,0,0,1,2.36-.09,1.81,1.81,0,0,0-.08-.57,1.86,1.86,0,0,0-.35-.6A21.69,21.69,0,0,0,88,29.4,2.38,2.38,0,0,0,88.4,30.49Z"/><path class="cls-9" d="M88,29.53a23.55,23.55,0,0,1,2.41-.16l-.11-.14-.83,0h0l-.27,0h0L88,29.4h0S88,29.49,88,29.53Z"/><path class="cls-3" d="M71.64,33.91c7.34-3.45,14.29-4.73,17.13-3.36a2.34,2.34,0,0,0-.1-1.58c-1.35-2.86-9.54-1.84-18.28,2.28S55.65,41,57,43.9A2.3,2.3,0,0,0,58.15,45C58.9,41.92,64.3,37.37,71.64,33.91Z"/><path class="cls-13" d="M58.28,40.86l.2,3.21h0a12.87,12.87,0,0,1,2.83-3.5l-.69-2a.18.18,0,0,0-.07-.05C60.09,38.33,58.86,40,58.28,40.86Z"/><path class="cls-13" d="M62.28,39.72a37.67,37.67,0,0,1,4.88-3.42l-1-2.32-4.66,3.84Z"/><path class="cls-13" d="M68.46,35.54l.7-.38-.83-2.25-.83.41Z"/><path class="cls-4" d="M88.05,29.27l.55,1.17c-.58,3-6,7.58-13.39,11.07s-14.37,4.74-17.06,3.28l-.55-1.17-.62.29L58,46h0c1.34,2.85,9.52,1.81,18.28-2.31S91,33.88,89.64,31h0l-1-2.07Z"/><path class="cls-5" d="M85.34,38.08c3.34-2.73,5.09-5.37,4.3-7l-1-2.07-.42.2-.15.2.5,1.07c-.29,1.49-1.77,3.37-4.09,5.31Z"/><path class="cls-4" d="M88.78,29.2l-.41.6,1.36,2.84a2.34,2.34,0,0,0-.09-1.6Z"/><path class="cls-6" d="M84,38.62c-.24-.5-1.42-.65-2.72-.51-1.19.79-2.5,1.56-3.9,2.3a.58.58,0,0,0,0,.14,6,6,0,0,0,3,.87A41.68,41.68,0,0,0,84,39.08.61.61,0,0,0,84,38.62Z"/><path class="cls-7" d="M70.38,31.25C61.63,35.38,55.63,41,57,43.91s9.54,1.84,18.29-2.28S90,31.84,88.67,29,79.13,27.13,70.38,31.25Zm4.41,9.36c-7.85,3.7-15.09,4.83-16.18,2.53S63,36,70.86,32.27,86,27.44,87,29.74,82.64,36.92,74.79,40.61Z"/><path class="cls-8" d="M82.35,40.25c.71-.47,1.38-.94,2-1.41l-.89-2.25c-.74.56-1.54,1.13-2.41,1.69Z"/><path class="cls-5" d="M78.77,42.37c.61-.32,1.2-.66,1.77-1l-1-2.14c-.54.32-1.1.64-1.68.95Z"/><path class="cls-8" d="M80.54,41.38l-1-2.14,0,0-.07,0-.39.23-.13.07-.35.2-.13.08c-.13.06-.25.13-.37.2l-.12.06-.07,0,.32.72.34.14a6,6,0,0,0,2,.37l.06,0Z"/><path class="cls-5" d="M74.42,44.47l.23-.1-.85-2.22-.21.09Z"/><path class="cls-5" d="M71.71,45.54l.49-.18-.79-2.24-.51.19Z"/><path class="cls-9" d="M69.76,46.2l.4-.13-.88-2.2-.47.15Z"/><path class="cls-5" d="M66.22,47.11l.43-.09-.83-2.2-.47.1Z"/><path class="cls-9" d="M64,47.47l.3,0-.78-2.2-.37,0Z"/><path class="cls-9" d="M61.74,47.57a10.93,10.93,0,0,0,1.14,0l-.75-2.2a10.93,10.93,0,0,1-1.27,0Z"/><path class="cls-9" d="M59.77,47.3l.43.1-.73-2.17a4.37,4.37,0,0,1-.52-.12Z"/><path class="cls-9" d="M77.83,42.87l.22-.11-1-2.15-.21.1Z"/><path class="cls-10" d="M70.38,31.25C61.63,35.38,55.63,41,57,43.91s9.54,1.84,18.29-2.28S90,31.84,88.67,29,79.13,27.13,70.38,31.25Zm4.83,10.26c-8.64,4.07-16.71,5.1-18,2.31s4.61-8.37,13.26-12.45,16.71-5.1,18-2.3S83.85,37.44,75.21,41.51Z"/></g></g></svg>