<svg xmlns="http://www.w3.org/2000/svg" viewBox="0 0 256 80"><defs><style>.cls-1{isolation:isolate;}.cls-2,.cls-4,.cls-5{opacity:0.2;}.cls-2,.cls-24,.cls-32{mix-blend-mode:multiply;}.cls-3{fill:#3e7f00;}.cls-4,.cls-5{mix-blend-mode:overlay;}.cls-11,.cls-13,.cls-14,.cls-15,.cls-5,.cls-7,.cls-8{stroke:#296037;stroke-miterlimit:10;stroke-width:0.5px;}.cls-6,.cls-7{fill:#89b71a;}.cls-8{fill:#448c04;}.cls-9{opacity:0.3;}.cls-10{fill:#b2ed40;}.cls-11,.cls-12{fill:#94cc27;}.cls-13{fill:#4d9e0e;}.cls-14{fill:#9bdb35;}.cls-15,.cls-16{fill:#b9ed54;}.cls-17{fill:#5aad12;}.cls-18,.cls-32{fill:#4e3519;}.cls-19{fill:#d9194d;}.cls-20{fill:#f16a73;}.cls-21,.cls-22{fill:#ebc9cd;}.cls-21{opacity:0.62;}.cls-23,.cls-26,.cls-28,.cls-29{fill:#e9e9e9;}.cls-23{opacity:0.17;}.cls-24{fill:#523119;opacity:0.19;}.cls-25{fill:#ecccb4;opacity:0.24;mix-blend-mode:hard-light;}.cls-26{opacity:0.63;}.cls-27{fill:#edaabf;}.cls-28{opacity:0.53;}.cls-29{opacity:0.85;}.cls-30,.cls-31{fill:#d2cbce;}.cls-30{opacity:0.64;}.cls-32{opacity:0.14;}</style></defs><g class="cls-1"><g id="Layer_1" data-name="Layer 1"><g class="cls-2"><ellipse cx="75.5" cy="76.3" rx="23.5" ry="3" transform="translate(-4.87 5.15) rotate(-3.78)"/><path d="M155.69,60.83c-14.41,1.81-25.87,5-25.6,7.19a.93.93,0,0,0,.46.61,13.25,13.25,0,0,0-3.05-.33,9.51,9.51,0,0,0-4.83,1c-.38,0-.77,0-1.17,0a9.51,9.51,0,0,0-4.83,1c-.38,0-.77,0-1.17,0a11.48,11.48,0,0,0-4,.63,11.48,11.48,0,0,0-4-.63c-3,0-5.5.89-5.5,2s2.46,2,5.5,2a11.72,11.72,0,0,0,4-.63,11.72,11.72,0,0,0,4,.63,9.5,9.5,0,0,0,4.83-1c.38,0,.77,0,1.17,0a9.5,9.5,0,0,0,4.83-1c.38,0,.77,0,1.17,0,3,0,5.5-.9,5.5-2,0-.39-.3-.74-.82-1,4.06,1,13.55.79,24.49-.58,14.41-1.8,25.88-5,25.6-7.18S170.1,59,155.69,60.83Z"/></g><path class="cls-3" d="M196.33,32.08a17.79,17.79,0,0,0,9.49-8.55c.86-1.69,1.71-3.74,3.53-4.14a5.38,5.38,0,0,1,2.47.25l14.49,3.77a33.81,33.81,0,0,1,8.5,3c-.44,2.49-2.21,4.43-3.49,6.57a18.17,18.17,0,0,0-2.19,12.42l-3.86,2.67c-1.45,1-3,2-4.8,1.94-2.16-.12-3.93-1.92-6.05-2.38-3.29-.71-6.56,1.94-9.85,1.22a15.17,15.17,0,0,1-3.06-1.29c-4.79-2.25-10.25-2-15.44-1.57A16.32,16.32,0,0,0,195,37.61a21.31,21.31,0,0,1-7.49-1.53C191.25,35,197.11,31.31,196.33,32.08Z"/><path class="cls-4" d="M225.27,48.1l1-.7A61.13,61.13,0,0,0,223.22,32a27.75,27.75,0,0,0-3.55-7.4,14.11,14.11,0,0,0-4.31-4l-3.54-.92a5.38,5.38,0,0,0-2.47-.25c-1.82.4-2.67,2.45-3.53,4.14-.1.2-.21.4-.32.59,2.37,1.08,5.35,1.61,7.68,2.39a1,1,0,0,1,.69.5,1,1,0,0,1-.2.81l-2.85,4.74,2.91,1.85A102.48,102.48,0,0,1,207,43.72a2.94,2.94,0,0,1,2.23.1c3,1,5.58,2.92,8.29,4.54a27.21,27.21,0,0,0,3.26,1.69A8.81,8.81,0,0,0,225.27,48.1Z"/><path class="cls-4" d="M229.13,45.43a18.24,18.24,0,0,1,.42-8.28,40.82,40.82,0,0,0-8.44-15.1l-9.29-2.41a5.38,5.38,0,0,0-2.47-.25c-1.82.4-2.67,2.45-3.53,4.14a18.93,18.93,0,0,1-1.18,2,16.74,16.74,0,0,0,3.85.91c1.69.2,3.44.11,5,.81a45.81,45.81,0,0,1-14,8.21,10,10,0,0,0-3.64,1.89,2.77,2.77,0,0,0,2.24.52,37.52,37.52,0,0,0,6.76-1.81c2.24-.65,4.71-1,6.89-.07a117.26,117.26,0,0,1-8.67,9.42c2.45,1.29,5.35,1.07,8,1.84.38.11.74.24,1.1.38a6.54,6.54,0,0,1,2.25,0c2.12.46,3.89,2.26,6.05,2.38,1.76.1,3.35-.94,4.8-1.94Z"/><path class="cls-5" d="M225.07,48.24c-1.71-.63-3.29-2-5.07-2.59-2.58-.83-5.3.11-7.95.52a20.5,20.5,0,0,1-12.73-2.24c-.64-.35-1.36-.9-1.32-1.64s.64-1.08,1.21-1.34c2.32-1.07,5-1,7.52-.94l9.29.25c.56,0,1.27-.06,1.44-.62a1.44,1.44,0,0,0-.24-1,8,8,0,0,0-1.87-2.6c-1.59-1.26-3.79-1.07-5.75-.82l-12.83,1.64a.9.9,0,0,1,0-1.2,2.32,2.32,0,0,1,1.12-.61c5.79-1.82,12-2.31,17.5-4.89a1.9,1.9,0,0,0-1.8-.38,170.39,170.39,0,0,0-19.13,3.83A15.32,15.32,0,0,1,196.26,32c-.86.35-5.57,3.16-8.76,4.07A21.31,21.31,0,0,0,195,37.61,16.32,16.32,0,0,1,186.07,46c5.19-.45,10.65-.68,15.44,1.57a15.17,15.17,0,0,0,3.06,1.29c3.29.72,6.56-1.93,9.85-1.22,2.12.46,3.89,2.26,6.05,2.38C222.15,50.14,223.67,49.19,225.07,48.24Z"/><path class="cls-5" d="M214,23.59c-.39-.48-1.13-.29-1.69-.05l-7.25,3.08c-.65.28-1.43.71-2.25,1.13a19.53,19.53,0,0,1-1.78,1.63C205.4,27.55,210.24,26.44,214,23.59Z"/><path class="cls-6" d="M185.73,42.87a44.61,44.61,0,0,0,11.7-5.47c.09,0,0-.22-.08-.18-4,1.43-8.09,2.66-12.17,3.73-2,.53-4,1-6,1.39s-3.91.52-5.56,1.55a.21.21,0,0,0,.06.38C177.2,45.58,182.3,43.88,185.73,42.87Z"/><path class="cls-7" d="M172.5,43.68c.78-.49,1.33-1.23,2.09-1.76a9.73,9.73,0,0,1,3.23-1.33,31.73,31.73,0,0,0,5.87-1.84,117.29,117.29,0,0,1,14.53-5.91,125.44,125.44,0,0,0,13-4.63,40.05,40.05,0,0,0,11-7.71c.07-.06,0-.2-.11-.14-4,3.13-8.74,4.95-13.44,6.78s-9.7,3.39-14.53,5.14c-2.15.78-4.26,1.65-6.32,2.63-2.4,1.13-4.73,2.58-7.28,3.31s-8.9,1.17-8.62,5.14A.37.37,0,0,0,172.5,43.68Z"/><path class="cls-6" d="M201.12,41.48a82.61,82.61,0,0,1,10.9-3c3.54-.68,7.38-1.17,10.53-3a.13.13,0,0,0-.11-.24c-7.3,1.81-14.76,1.68-21.9,4.25-3.45,1.23-6.72,3-10.17,4.15-1.77.61-3.58,1.13-5.4,1.56a19.69,19.69,0,0,0-4.62,1.3,0,0,0,0,0,0,.07c3,.84,6.76-.62,9.57-1.52C193.67,43.83,197.4,42.74,201.12,41.48Z"/><path class="cls-8" d="M230.1.35a11.38,11.38,0,0,0-8.9,3.19c-1.71,1.8-2.76,4.36-4.94,5.5-1.93,1-4.56.77-5.94,2.5-1.07,1.33-1,3.43-2.21,4.61-.55.53-1.32.81-1.8,1.41-.72.92-.57,2.25-.77,3.42a5.38,5.38,0,0,1-2.72,3.85c1.92-.21,3.68-1.47,5.61-1.27s3.63,1.84,5.56,1.67c1.55-.13,2.73-1.39,4-2.25,3.54-2.33,8.22-1.75,12.17-3.26a14.07,14.07,0,0,0,7.15-6.53c1.05-1.93,3.49-7.59,2.1-9.78S232.3.47,230.1.35Z"/><path class="cls-4" d="M214,25.23c1.55-.13,2.73-1.39,4-2.25,3.54-2.33,8.22-1.75,12.17-3.26a14.07,14.07,0,0,0,7.15-6.53h0a12.47,12.47,0,0,0-4.14-.23,6.85,6.85,0,0,0-4.48,1.86A8.15,8.15,0,0,1,227,16.65c-1.61.87-3.51-.53-5.34-.73-3.69-.42-6.22,4-9.87,4.64-2,.36-4.07-.48-6.11-.45a8,8,0,0,1-.1.87,5.38,5.38,0,0,1-2.72,3.85c1.92-.21,3.68-1.47,5.61-1.27S212.06,25.4,214,25.23Z"/><path class="cls-4" d="M217.12,22.75c.28.1.56.19.85.27l.06,0a10,10,0,0,1,2-1,.8.8,0,0,0-.2-.64c-.49-.53-1.4-.19-2-.57s-.28-2,.6-1.86c.67.1,1.3.87,1.88.53s.06-1.53.34-2.28a1.53,1.53,0,0,1,1.22-.82c2.55-.53,5.28.94,7.78.2,1.15-.33,2.23-1.76,1.44-2.7-.51-.6-1.4-.53-2.16-.47s-1.71-.11-2-.85c.59-.5,1.47-.34,2.24-.39s1.69-.62,1.48-1.4a5.12,5.12,0,0,1-.25-.65c-.07-.48.39-.83.81-1,1.74-.77,4.05-.69,5.08-2.33-.6-1.39-2.5-1.54-3.86-1s-2.57,1.53-4,1.68a4.45,4.45,0,0,1,2-2.51c0-.55-.71-.75-1.23-.69a7.12,7.12,0,0,0-5.38,3.72c-.41.78-.85,1.76-1.71,1.79a6.1,6.1,0,0,1-.94-.14c-1.17-.1-2,1.15-2.53,2.19s-1.63,2.18-2.74,1.75c.17-1.05.13-2.47-.86-2.79a1.56,1.56,0,0,0-1.15.17c-2.28,1.11-2.57,4.25-3.67,6.6-.23.47-.67,1-1.16.82-.26-.1-.42-.36-.63-.56-.78-.71-2.06-.17-2.6.74a24.7,24.7,0,0,0-.33,2.5,5.45,5.45,0,0,1-1.33,2.76,2.6,2.6,0,0,0-.1.4,5,5,0,0,0,.89.12,7.82,7.82,0,0,1,3.43-.7,5,5,0,0,1,1.25.31,2.65,2.65,0,0,0,1.57-.51c.5-.44.71-1.21,1.31-1.47a2,2,0,0,1,1.14,0A23.91,23.91,0,0,1,217.12,22.75Z"/><g class="cls-9"><path class="cls-10" d="M219.91,20.58a8.35,8.35,0,0,0,6.35.37c.07,0,0-.12,0-.11a9.32,9.32,0,0,1-4.3,0A24.8,24.8,0,0,1,218,19.22c-1.46-.66-4.53-1.86-5.73-.18,1.13-2.64.77-6.18,3.14-8,0,0,0-.11-.05-.08-1.53.78-1.95,2.52-2.34,4.12a14.05,14.05,0,0,1-2.5,6c0,.05,0,.16.09.11a4.85,4.85,0,0,0,1.59-2,.32.32,0,0,0,0,.21l.08.15a.13.13,0,0,0,.21,0c1-.86,2.94-.55,4.05-.28A25.37,25.37,0,0,1,219.91,20.58Z"/><path class="cls-10" d="M218.26,14.88a.07.07,0,0,0,.07.12,13.7,13.7,0,0,1,2.48-.44,19.6,19.6,0,0,1,2.29.17,35.34,35.34,0,0,0,4.48.28,11.6,11.6,0,0,0,7.55-2.4c.07-.06,0-.16-.09-.12a15.51,15.51,0,0,1-9.23,2c-1.42-.1-2.83-.36-4.25-.44C220.42,14,219.08,14,218.26,14.88Z"/><path class="cls-10" d="M226.48,10a.05.05,0,0,0,0,.1,8.34,8.34,0,0,0,8.71-.51c.06,0,0-.13-.06-.1a10.77,10.77,0,0,1-4.49,1.07,16.58,16.58,0,0,1,6.73-5.26s0-.11,0-.09a14.49,14.49,0,0,0-6.91,5.36A14.86,14.86,0,0,1,226.48,10Z"/><path class="cls-10" d="M220.57,13.62c0,.14.19.18.24.07.78-1.75.87-3.8,1.62-5.58a10.48,10.48,0,0,1,3.75-4.61c.06,0,0-.15-.07-.11a9.85,9.85,0,0,0-3.82,4.23,17.49,17.49,0,0,0-.91,2.76A19.44,19.44,0,0,0,220.57,13.62Z"/></g><path class="cls-11" d="M172.75,43.73c3.73-3.71,8-6,12.61-8.28C190.6,32.87,195.7,30,200.75,27s9.8-5.89,14.56-9.06,9.56-7.21,15-9.41c0,0,0-.08,0-.07-5.39,1.53-9.86,4.82-14.55,7.83-5.29,3.4-10.64,6.67-16.13,9.7s-10.88,5.66-16.4,8.33c-4.35,2.1-9.27,3.88-11.82,8.36A.84.84,0,0,0,172.75,43.73Z"/><path class="cls-12" d="M211.3,36.43c2.9-.31,5.82-.46,8.71-.85,5.51-.75,10.85-1.89,15.84-4.42a0,0,0,0,0,0-.05,55.36,55.36,0,0,1-17.07,4.29c-5.25.49-10.71-.22-15.88.79-4.88,1-9.43,3.41-13.84,5.61a22.19,22.19,0,0,1-8.74,2.6c-2.49.14-5-.66-7.47-.24-.73.12-.69,1.17-.15,1.51,2.14,1.36,4.93,1,7.28.71a26.81,26.81,0,0,0,7.24-2c5.11-2.23,9.82-5.5,15.26-6.91C205.32,36.71,208.37,36.74,211.3,36.43Z"/><path class="cls-8" d="M239.24,49c2.72-1.09,5.8-1.37,8.2-3.07,3.12-2.21,4.44-6.36,7-9.15a2.3,2.3,0,0,0-.06-3.13,27.1,27.1,0,0,0-10.86-6.93,13.92,13.92,0,0,0-4.63-.84c-2.31,0-4.52.93-6.82,1s-4.5-.56-6.76-.48a10.46,10.46,0,0,0-8.43,5,48.78,48.78,0,0,0-2.39,4.31c-2.26,4.79-7.8,5.38-8.26,6.36,2.24,1.09,5.87-.17,7.75,1.56,2.66,2.44,5.58,5.22,9.1,5.19,1.16,0,2.31-.34,3.47-.3,2.69.1,5.12,2.16,7.81,2.06C236.11,50.55,237.65,49.61,239.24,49Z"/><path class="cls-4" d="M236.43,37.06c4.38.45,8-3.25,12.33-4.09a9.81,9.81,0,0,1,5.58.58,27.25,27.25,0,0,0-8.71-6,35,35,0,0,0-4.69,0,102.58,102.58,0,0,0-11,1.44c-2.52.42-5,.86-7.52,1.44a46.19,46.19,0,0,0-5.68,1.42c-.55.91-1.08,1.82-1.58,2.75A22.69,22.69,0,0,0,218,36.07a10.78,10.78,0,0,0,6.48,1.47c2.07-.34,3.93-1.64,6-1.7S234.44,36.86,236.43,37.06Z"/><path class="cls-4" d="M234.56,39.53c3.45,1.9,6.48,5.09,10.35,5.39a2.37,2.37,0,0,0,2-.53,2.1,2.1,0,0,0-.27-2.75,4.94,4.94,0,0,0-2.7-1.2,8.29,8.29,0,0,1-2.85-.83,1.1,1.1,0,0,1-.45-.43c-.3-.59.43-1.23,1.07-1.18a9.09,9.09,0,0,1,1.82.67c.61.2,1.46,0,1.57-.64.08-.48-.29-.92-.42-1.39-.33-1.31,1.18-2.25,2.45-2.49s2.84-.48,3.29-1.73c-1.45-1.81-4.25-1.39-6.23-.31s-3.84,2.65-6.09,2.69c-1.4,0-2.8-.57-4.19-.37-2,.29-3.93,2.24-5.82,1.36,0-1,1.72-1.62,1.28-2.55a1.16,1.16,0,0,0-.7-.52c-3-1.11-6.17.76-8.34,3.06-1.06,1.12-2.41,2.47-3.85,1.93.12-1.05-1.16-1.71-2.17-1.49a9.64,9.64,0,0,1-3.69,3.66l-.13.13c-.77.77-1.66,1.61-1.07,2.61,1.72,0,3.49,0,4.63,1l.65.59c1.76,0,3.57,0,4.9.91a9.13,9.13,0,0,0,1.6,1,1.42,1.42,0,0,0,1.71-.34l-1.3-2.93a.9.9,0,0,1-.12-.5.65.65,0,0,1,.34-.44,2.07,2.07,0,0,1,2.38.68,12.91,12.91,0,0,0,1.85,2c.75.5,1.95.45,2.27-.39.15-.38.08-.82.24-1.19.32-.7,1.31-.73,2-.4a17.26,17.26,0,0,0,2,1.14c.73.23,1.72-.12,1.75-.9,0-1.31-2.41-1.53-2.39-2.84a1.16,1.16,0,0,1,1.11-1A3.1,3.1,0,0,1,234.56,39.53Z"/><g class="cls-9"><path class="cls-10" d="M230.57,41.3c-2.37-1.43-6.14-3.48-8.83-1.88a.12.12,0,0,0,.06.21,18,18,0,0,1,5.25.6,20.83,20.83,0,0,1,4.65,2.32c2.57,1.61,5.43,3.64,8.51,3.84,0,0,0-.07,0-.08a17.46,17.46,0,0,1-5.06-2C233.61,43.33,232.13,42.24,230.57,41.3Z"/><path class="cls-10" d="M231.71,47.92a.07.07,0,0,0,0-.14,20.56,20.56,0,0,1-4.76-2c-1.36-.81-2.66-1.72-4-2.51a13,13,0,0,0-9.46-1.66c-.18.05-.11.3.05.32,1.94.22,3.87,0,5.79.46a11.15,11.15,0,0,1,1.16.36c1.88,1.68,2.87,4.14,5.23,5.3a.07.07,0,0,0,.06-.12,12.92,12.92,0,0,1-3.4-3.66,8.47,8.47,0,0,0-.78-1.06c.75.35,1.48.75,2.2,1.17C226.22,45.77,228.83,47.78,231.71,47.92Z"/><path class="cls-10" d="M232.75,36.19c-.08,0-.06.15,0,.14,1.3-.12,2.3,1.08,3.21,1.89a20.29,20.29,0,0,0,2.77,2A16.69,16.69,0,0,0,245,42.76c.08,0,.08-.11,0-.13A25.39,25.39,0,0,1,237.46,39C236.09,37.94,234.64,35.84,232.75,36.19Z"/><path class="cls-10" d="M242.73,34c-.06,0,0,.14.05.12a3.89,3.89,0,0,1,.44-.16,12.73,12.73,0,0,1-2.75,1.34c-1.19.4-2.46.53-3.63,1a.09.09,0,0,0,0,.18,11.63,11.63,0,0,0,5.93-1.65c.64-.38,1.25-.78,1.85-1.16a27.76,27.76,0,0,1,4.35.17c.1,0,.12-.16,0-.18a10.48,10.48,0,0,0-3.68-.41,9.57,9.57,0,0,1,3.95-1.51.09.09,0,0,0,0-.17c-2-.25-3.74.89-5.34,1.94A6.14,6.14,0,0,0,242.73,34Z"/></g><path class="cls-13" d="M249.14,18.09a6.66,6.66,0,0,0-6.72-1.73c-1.1.37-2.15,1.05-3.32,1-1.77-.14-3.13-2-4.91-2.12-2.69-.16-4.06,3.64-6.7,4.18a9.49,9.49,0,0,1-3.44-.4,6.37,6.37,0,0,0-6.52,2.51,15.51,15.51,0,0,0-1.26,3.35,14.4,14.4,0,0,1-7.57,8.48,11.78,11.78,0,0,1,5.84-.51c2.81.7,5.18,3.42,8,3.11,1.93-.22,3.51-1.82,5.44-1.94,1.49-.09,2.89.7,4.35,1,2.19.5,4.45-.06,6.61-.61a18.23,18.23,0,0,0,4.45-1.56c1.07-.6,2-1.42,3.15-1.93.73-.34,1.51-.53,2.22-.9,2.07-1.09,3.22-3.5,3.47-5.9.15-1.37.43-2.29-.38-3.34C251.19,19.88,250,18.93,249.14,18.09Z"/><path class="cls-4" d="M221.15,33.22a5.63,5.63,0,0,1,.84-1c.95-.68,2.23,0,3.29.56s2.7.62,3-.54a1.65,1.65,0,0,1-.73-1.58,4.09,4.09,0,0,1,3.41.48,11.93,11.93,0,0,0,3.27,1.46,2.45,2.45,0,0,0,2.87-1.5,1.09,1.09,0,0,0,0-.62c-.18-.49-.75-.64-1.2-.86s-.87-.85-.52-1.21a14.16,14.16,0,0,0,11.26-2.72c.86-.67,1.71-1.78,1.23-2.79S246.08,21.88,245,22q-3.19.35-6.35,1c-.51-.93,1.54-1.78,1-2.72a1.09,1.09,0,0,0-.83-.45c-2.48-.37-4.59,1.6-6.46,3.28a4.64,4.64,0,0,1-2.38,1.38A1.84,1.84,0,0,1,228,23a4.63,4.63,0,0,1,.37-1.54A1.29,1.29,0,0,0,228,20c-.49-.31-1.12.06-1.52.47-1.64,1.64-2.64,4.14-4.81,4.88-.45.15-1.07.15-1.29-.29a1.43,1.43,0,0,1,0-.77,5.52,5.52,0,0,0-.68-3.35,18.25,18.25,0,0,0-2.86,2.17c-.19.58-.35,1.16-.54,1.73A14.54,14.54,0,0,1,211,32c.77.22,1.53.42,2.28.65a6.08,6.08,0,0,1,1.26.18A11.24,11.24,0,0,1,217.3,34,3.82,3.82,0,0,0,221.15,33.22Z"/><g class="cls-9"><path class="cls-10" d="M237.16,20.91A10.24,10.24,0,0,0,234.39,24a7.74,7.74,0,0,0-1.59,3.84c0,.11.18.17.22.05a22.25,22.25,0,0,1,2-3.51c.29-.46.6-.9.92-1.32,4.38-.5,8.72-.83,12.69-3,0,0,0-.09,0-.07a37.67,37.67,0,0,1-6.92,1.88,33.6,33.6,0,0,1-3.75.27,6.57,6.57,0,0,0-1.35.14,7.79,7.79,0,0,1,1.61-1.36c2.47-1.53,5.32-2.4,7.86-3.82.09,0,0-.2-.07-.17-1.68.58-3.31,1.35-4.95,2A23,23,0,0,0,237.16,20.91Z"/><path class="cls-10" d="M235.88,33.39a8,8,0,0,1-2-2.13c-.28-.5-.48-1.06-.72-1.59.71.29,1.44.53,2.18.75a19.36,19.36,0,0,0,6.15,1.07s.05-.07,0-.08a31.12,31.12,0,0,1-7.2-1.85c-1.07-.47-2.1-1-3.13-1.59-.68-.37-1.15-.63-1.87-.29-.14.06,0,.27.11.24.53-.11,1.19.46,1.62.71s1,.53,1.48.76h0c.15,1.67,2,3.47,3.34,4.06A0,0,0,0,0,235.88,33.39Z"/><path class="cls-10" d="M231,33.85a.06.06,0,0,0,0-.11c-1.18-.35-2.39-.63-3.53-1.09a14.18,14.18,0,0,1-3.24-2c-1.45-1.08-3.35-2.2-5-1.05a.07.07,0,0,0,.06.13,4.37,4.37,0,0,1,3.58.75c.25.34.5.67.73,1a10.11,10.11,0,0,0,.85,1.18.12.12,0,0,0,.19-.12,3.69,3.69,0,0,0-.6-1.27c.47.34.95.69,1.44,1A12.87,12.87,0,0,0,231,33.85Z"/><path class="cls-10" d="M222.53,28.92c2.13-.22,4.25-1.14,4.51-3.6a11.8,11.8,0,0,0,0-1.33,4.12,4.12,0,0,1,2.59-2.78,0,0,0,0,0,0-.08,3.17,3.17,0,0,0-2,1,3.3,3.3,0,0,0-.52.76.41.41,0,0,0,0-.11,5.68,5.68,0,0,1,1.06-2.36,14.3,14.3,0,0,1,3.79-3.23c.06,0,0-.13-.06-.1-2.27,1.07-4.48,2.62-5.2,5.22-.38,1.36,0,3-.74,4.23a6.09,6.09,0,0,1-3.44,2.19C222.39,28.74,222.41,28.93,222.53,28.92Z"/></g><path class="cls-14" d="M190.12,39.94a139.23,139.23,0,0,0,17.61-5.4c2.82-1.06,5.63-2.15,8.53-2.95a71.62,71.62,0,0,1,8.35-1.51,49.71,49.71,0,0,0,16.29-5.26.07.07,0,0,0-.05-.12,110.56,110.56,0,0,1-18.35,4.08c-5.93.68-11.25,2.47-16.82,4.55A131.69,131.69,0,0,1,188,38.62c-2.92.65-5.85,1.07-8.79,1.59a12.7,12.7,0,0,0-7.36,3.51A.94.94,0,0,0,173,45.17C178.51,42.31,184.13,41.34,190.12,39.94Z"/><path class="cls-14" d="M242.82,37.44s0,0,0,0a33.45,33.45,0,0,0-7.8-1.28,28.17,28.17,0,0,0-8.38,1.47,91.62,91.62,0,0,1-18.47,3.92c-2.8.23-5.58.51-8.34,1-3,.53-5.82,1.74-8.79,2.42a62.86,62.86,0,0,1-9.57,1.17,42.76,42.76,0,0,1-4.38.17,8.48,8.48,0,0,0-3.69.25.41.41,0,0,0-.15.66c1.57,1.72,4.38,1.38,6.44,1.27,2.89-.17,5.79-.46,8.65-.9A48.34,48.34,0,0,0,197.23,45,38.91,38.91,0,0,1,207,43.1,59.71,59.71,0,0,0,215.31,42c3.15-.74,6.16-2,9.23-3a36.22,36.22,0,0,1,9.39-2.29A50.19,50.19,0,0,1,242.82,37.44Z"/><path class="cls-6" d="M202.92,35.73l-.69.21a0,0,0,0,0,0,0l.69-.2S202.94,35.73,202.92,35.73Z"/><path class="cls-15" d="M186.92,46.45c-1.78.25-3.59.31-5.38.4a15.43,15.43,0,0,1-3.65-.35,11.94,11.94,0,0,1-2.54-.43c-3.34-1.5,2.13-3.41,3.13-3.73a41.53,41.53,0,0,1,5.83-1.66s0,0,0,0c-3.37.18-6.53-.26-9.78,1.06-1.69.69-3.45,2.21-2.88,4.33.65,2.41,3.4,2.78,5.41,2.56a56.41,56.41,0,0,0,9.89-2C187,46.59,187,46.44,186.92,46.45Z"/><path class="cls-16" d="M185.89,44.8a.06.06,0,0,0,0-.11,21.67,21.67,0,0,1-5.74.41c-1.47-.07-3-.55-4.43-.23,0,0,0,0,0,.05C178.27,47.14,183.11,45.83,185.89,44.8Z"/><path class="cls-16" d="M182.19,36.3c2.16-1,4.34-2,6.48-3.14a98.55,98.55,0,0,0,12.38-7.44s0,0,0,0c-4.29,2.75-8.58,5.64-13.35,7.41a31,31,0,0,0-6.05,2.44c-1.48.93-4.18,1.23-5.1,3a.24.24,0,0,0,.27.34C178.73,38.53,180.43,37.15,182.19,36.3Z"/><path class="cls-16" d="M202.55,36.36c5.08-2,10.2-3.74,15.34-5.52,0,0,0-.05,0-.05-5.14.3-9.69,2.47-14.45,4.31-5.2,2-10.23,4.14-15.85,4.59,0,0,0,.06,0,.06A48.19,48.19,0,0,0,202.55,36.36Z"/><path class="cls-16" d="M221.74,39.61s0-.07,0-.06c-4.37,1.62-9.38,2-14,2.09-.15,0-.19.26,0,.28C212.77,42.61,217.07,41.56,221.74,39.61Z"/><path class="cls-16" d="M245.44,24c.09,0,.08-.2,0-.19-3.63.48-6.59,1.79-9.9,3.21,0,0,0,.05,0,0C238.74,25.85,242.19,25.12,245.44,24Z"/><path class="cls-17" d="M248.05,29a6.23,6.23,0,0,0,3.83-4.83.9.9,0,0,0-1.3-1c-1.47.77-2.55,2.12-4,2.95A30.23,30.23,0,0,1,241,28.7a.13.13,0,0,0,0,.25C243.53,29.59,245.49,30.2,248.05,29Z"/><path class="cls-17" d="M239.54,29.77a.81.81,0,0,0-.2-1.22,2,2,0,0,0-1-.25,1.49,1.49,0,0,0-.81.21l-.16.07a.56.56,0,0,0-.23.64,1.11,1.11,0,0,0,.14.29v0A1.43,1.43,0,0,0,239.54,29.77Z"/><path class="cls-17" d="M235.82,20.87a69.32,69.32,0,0,1,7.3-3.32s0-.05,0-.06a16.54,16.54,0,0,0-8,.85c-1.87.76-4.52,1.72-4.83,4.05a.35.35,0,0,0,.24.4C232.52,23.2,234.14,21.72,235.82,20.87Z"/><path class="cls-17" d="M229,25a.34.34,0,0,0,.09-.08.55.55,0,0,0,.28-.17.52.52,0,0,0,.1-.11l.08-.11v0a1.42,1.42,0,0,0,.3-.45.36.36,0,0,0-.15-.59l-.11,0a.84.84,0,0,0-.87.24.82.82,0,0,0-.17,1,.71.71,0,0,0,.23.28A.22.22,0,0,0,229,25Z"/><path class="cls-17" d="M248.27,44.11c1.64-1.81,2.26-4.3,3.73-6.21,0,0,0,0,0,0-1.22,1.17-2.06,2.67-3.27,3.81-1.64,1.54-3.67,1.9-5.8,2.13a6,6,0,0,0-3.75,1.53c-1.77,1.49-3.26,3.23-5.76,2.29a.11.11,0,0,0-.1.19c1.13.89,2.35.71,3.66.44a22.11,22.11,0,0,0,2.66-.82,31.37,31.37,0,0,1,3.91-.73A8.41,8.41,0,0,0,248.27,44.11Z"/><path class="cls-17" d="M220.09,8.14a22.76,22.76,0,0,1,4.19-3.22c1-.61,4.43-2.34,5.52-1.33a.42.42,0,0,0,.41.11c2.26-.8,3.94-1.64,6.43-1,0,0,0,0,0,0a9.64,9.64,0,0,0-5.14-.58c-.88.21-1,.46-1.76.14a6.57,6.57,0,0,0-2-.9A6.42,6.42,0,0,0,223,2.86c-1.83,1.4-2.27,3.09-3.1,5.17C219.91,8.12,220,8.22,220.09,8.14Z"/><path class="cls-18" d="M61.89,53.67c-.37-.19-.73-.37-1.09-.57C61.16,53.3,61.52,53.48,61.89,53.67Z"/><path class="cls-18" d="M60.08,52.7l-1-.63Z"/><path class="cls-18" d="M60.2,52.77l.6.33-.72-.4Z"/><path class="cls-19" d="M52,56h0c.53,2.42-4.1,12.59,6.72,18.12a8.06,8.06,0,0,0,.83.42c6.6,2.47,19.39,2.06,33.83,0,9.49-3.72,9.08-33.43,0-33.79-5.86,1-11.82,2.2-17.5,3.47C61.27,47.5,54.15,50.67,52,56Z"/><path class="cls-20" d="M56.55,67.73c-.87-1.34-1-3.13,1.38-3.91s-2.83-4.13-.11-5-2.71-4.34-2.49-6.13c.08-.61-.24-.71-.7-.59a10.15,10.15,0,0,0-3,4h0a3.76,3.76,0,0,1-1.92,2,14,14,0,0,1-1.52.59c-3.72,1.21-11.29,2.28-24.32-1.41A38.67,38.67,0,0,1,1.32,39.48S8.81,55.46,22.46,61C33.52,65.42,46,66.7,50.34,67c1,.07,2.43,1.61,2.94,2.43a11.37,11.37,0,0,0,1.93,2.37C55.26,71.58,57.43,69.07,56.55,67.73Z"/><path class="cls-21" d="M54,64.77c.67-.53-.4-2.17-.87-3.27s-1.24-1.37-.22-2.16-.08-2.08-.31-3.6-1.08.27-1.08.27h0a3.85,3.85,0,0,1-1.93,2,13.27,13.27,0,0,1-1.53.6C44.35,59.91,36.73,61,23.62,57.4A38.59,38.59,0,0,1,.94,39.62S8.49,55.7,22.22,61.16c11.14,4.43,23.71,5.64,28.07,5.93A4.8,4.8,0,0,1,52.83,69a2.41,2.41,0,0,0,.87-1.26C54.15,65.9,52.14,66.24,54,64.77Z"/><path class="cls-22" d="M50.22,63.44c-1.45-.84-.77-1.54.3-3.38.67-1.15.85-1.83.12-2.37a3.37,3.37,0,0,1-.61.36c-.41.18-.92.38-1.53.58-3.73,1.22-11.33,2.29-24.45-1.39A39.12,39.12,0,0,1,1.29,39.46s7.64,16,21.39,21.5c10.61,4.24,22.49,5.6,27.37,6a2.23,2.23,0,0,1,1.35-1.73C52.62,64.57,51.67,64.29,50.22,63.44Z"/><path class="cls-23" d="M70.5,55c-.2,3.28,17.72,2,29.86.2-.41-4.54-1.24-9.08-2.06-9.49C86.34,48.08,70.64,52.7,70.5,55Z"/><path class="cls-19" d="M177.27,39.38a16.15,16.15,0,0,1,1.81,5.8A15.22,15.22,0,0,0,177.27,39.38Z"/><path class="cls-19" d="M178.78,50.51c-.09.42-.19.84-.31,1.27C178.59,51.37,178.69,50.94,178.78,50.51Z"/><path class="cls-19" d="M166.61,38.93c1.69,3.13-16.21,8.15-32,10.56V65c12.84-1.26,25.49-3.76,30.62-6.42,10.83-5.6,13-16.75,11.57-20a13.5,13.5,0,0,0-4.55-4.46c-6.34-3.76-21.59-2.68-37.64,0v6.22C148.92,37.51,165,35.92,166.61,38.93Z"/><path class="cls-24" d="M176.79,38.58v0a2.38,2.38,0,0,1,.18.3A3.37,3.37,0,0,0,176.79,38.58Z"/><path class="cls-24" d="M177.22,39.28l0,0a.75.75,0,0,0,.07.12A.31.31,0,0,1,177.22,39.28Z"/><path class="cls-24" d="M179.11,45.61c0,.22,0,.43,0,.64a23.41,23.41,0,0,1-.35,4.26A17.18,17.18,0,0,0,179.11,45.61Z"/><path class="cls-19" d="M179.11,45.61c0-.1,0-.21,0-.31a.49.49,0,0,1,0-.12,16.15,16.15,0,0,0-1.81-5.8.75.75,0,0,1-.07-.12c-.07-.12-.14-.24-.22-.36a2.38,2.38,0,0,0-.18-.3c1.44,3.21-.74,14.36-11.57,20-5.13,2.66-17.78,5.16-30.62,6.42v3l.89-.1,1.39-.18,1-.11,1.61-.21.79-.1,2.49-.32,1.39-.19.42,0,.94-.13.47-.07.91-.13.41-.07,1.26-.19h0l1.2-.2.38-.06.83-.14.42-.07.8-.14.38-.07,1.11-.2h.06l1-.2.35-.07.72-.14.39-.08.68-.15.35-.07.95-.21.12,0,.85-.2.34-.08.6-.15.35-.09.58-.14.32-.09.77-.21.21-.06.69-.19.3-.09.51-.15.31-.1.49-.15.29-.09.63-.21.25-.09.54-.19.28-.1.42-.15.28-.11.4-.15.26-.11.52-.21.25-.1.44-.19.25-.12.33-.15.25-.12a3.18,3.18,0,0,0,.32-.16l.24-.11L171,60l.28-.14.33-.19.22-.12a2.26,2.26,0,0,0,.26-.16l.23-.13.25-.15.2-.13.3-.2.27-.19a2.2,2.2,0,0,0,.25-.17l.19-.14.21-.15.19-.15.19-.15.18-.15.2-.18.27-.24.18-.16.16-.16.15-.15.16-.16.14-.15.15-.16.14-.16.25-.3.12-.15.14-.18.1-.14.13-.18.1-.14.13-.19.07-.12c.08-.12.16-.25.23-.38l.07-.12.11-.2s.05-.09.07-.13a2,2,0,0,0,.1-.21l.07-.13a2,2,0,0,1,.1-.21l0-.07c.07-.16.13-.32.19-.48a.36.36,0,0,0,0-.09,2.09,2.09,0,0,0,.08-.23l0-.12c0-.08.05-.15.07-.23a.49.49,0,0,0,0-.11c0-.08,0-.16.07-.25h0c.12-.43.22-.85.31-1.27a23.41,23.41,0,0,0,.35-4.26C179.13,46,179.12,45.83,179.11,45.61Z"/><path class="cls-24" d="M179.11,45.61c0-.1,0-.21,0-.31a.49.49,0,0,1,0-.12,16.15,16.15,0,0,0-1.81-5.8.75.75,0,0,1-.07-.12c-.07-.12-.14-.24-.22-.36a2.38,2.38,0,0,0-.18-.3c1.44,3.21-.74,14.36-11.57,20-5.13,2.66-17.78,5.16-30.62,6.42v3l.89-.1,1.39-.18,1-.11,1.61-.21.79-.1,2.49-.32,1.39-.19.42,0,.94-.13.47-.07.91-.13.41-.07,1.26-.19h0l1.2-.2.38-.06.83-.14.42-.07.8-.14.38-.07,1.11-.2h.06l1-.2.35-.07.72-.14.39-.08.68-.15.35-.07.95-.21.12,0,.85-.2.34-.08.6-.15.35-.09.58-.14.32-.09.77-.21.21-.06.69-.19.3-.09.51-.15.31-.1.49-.15.29-.09.63-.21.25-.09.54-.19.28-.1.42-.15.28-.11.4-.15.26-.11.52-.21.25-.1.44-.19.25-.12.33-.15.25-.12a3.18,3.18,0,0,0,.32-.16l.24-.11L171,60l.28-.14.33-.19.22-.12a2.26,2.26,0,0,0,.26-.16l.23-.13.25-.15.2-.13.3-.2.27-.19a2.2,2.2,0,0,0,.25-.17l.19-.14.21-.15.19-.15.19-.15.18-.15.2-.18.27-.24.18-.16.16-.16.15-.15.16-.16.14-.15.15-.16.14-.16.25-.3.12-.15.14-.18.1-.14.13-.18.1-.14.13-.19.07-.12c.08-.12.16-.25.23-.38l.07-.12.11-.2s.05-.09.07-.13a2,2,0,0,0,.1-.21l.07-.13a2,2,0,0,1,.1-.21l0-.07c.07-.16.13-.32.19-.48a.36.36,0,0,0,0-.09,2.09,2.09,0,0,0,.08-.23l0-.12c0-.08.05-.15.07-.23a.49.49,0,0,0,0-.11c0-.08,0-.16.07-.25h0c.12-.43.22-.85.31-1.27a23.41,23.41,0,0,0,.35-4.26C179.13,46,179.12,45.83,179.11,45.61Z"/><path class="cls-19" d="M166.61,38.93c-1.64-3-17.69-1.42-32,1.46V42c4.31-.72,7.86-.91,8.33.13s-3.44,2.18-8.33,3.11v4.24C150.4,47.08,168.3,42.06,166.61,38.93Zm-14.8,1.91c-.36-1.35,6-1.76,6.27-.78S152.24,42.48,151.81,40.84Z"/><path class="cls-25" d="M166.61,38.93c-1.64-3-17.69-1.42-32,1.46V42c4.31-.72,7.86-.91,8.33.13s-3.44,2.18-8.33,3.11v4.24C150.4,47.08,168.3,42.06,166.61,38.93Zm-14.8,1.91c-.36-1.35,6-1.76,6.27-.78S152.24,42.48,151.81,40.84Z"/><path class="cls-19" d="M142.94,42.14c-.47-1-4-.85-8.33-.13v3.24C139.5,44.32,143.41,43.18,142.94,42.14Z"/><path class="cls-25" d="M142.94,42.14c-.47-1-4-.85-8.33-.13v3.24C139.5,44.32,143.41,43.18,142.94,42.14Z"/><path class="cls-19" d="M151.81,40.84c.43,1.64,6.53.2,6.27-.78S151.45,39.49,151.81,40.84Z"/><path class="cls-25" d="M151.81,40.84c.43,1.64,6.53.2,6.27-.78S151.45,39.49,151.81,40.84Z"/><path class="cls-26" d="M151.81,40.84c.43,1.64,6.53.2,6.27-.78S151.45,39.49,151.81,40.84Z"/><ellipse class="cls-27" cx="134.1" cy="51.04" rx="8.45" ry="16.92"/><ellipse class="cls-22" cx="134.1" cy="51.04" rx="8.19" ry="16.17"/><path class="cls-28" d="M139.93,52.35l1-.8a.62.62,0,0,0,.09-.67.6.6,0,0,0-.09-.66c-.5-.41-1-.81-1-.81s1.92,1.06,1.95.43a3.77,3.77,0,0,0-.37-1.45,3.93,3.93,0,0,0,0-2.35c-.37-1.57-.62-1.67-.62-1.67a10.9,10.9,0,0,0-.44-2.5,2,2,0,0,1-.33-.46l-2.37,2.33s2.05-2.92,2-3.41a6.23,6.23,0,0,0-.58-1.68l-2.66,3.48s1.88-3.39,1.66-3.93a6.36,6.36,0,0,0-.54-1,5.46,5.46,0,0,0-1-1c-.32-.16-.43.35-.43.35s-.18-1.05-.62-1.26-1.13.5-1.13.5-.69-.54-1.13-.5-.84,1.49-.84,1.49-1.13-.5-1.41.5,1.41,4.48,1.41,4.48a29.74,29.74,0,0,0-2.36-3.28c-.29-.1-.61.37-.61.37l.11,1.29s-.65-.81-.94-.53a.69.69,0,0,0-.14.69.82.82,0,0,0-.68.75,7.53,7.53,0,0,0-.11,1.06,1.27,1.27,0,0,0-.47.73,5.14,5.14,0,0,0,0,1,1.1,1.1,0,0,0-.39.66l-.15.51L129,47.36s-2.57-2.35-2.56-1.54a2.75,2.75,0,0,0,.22,1.21s-.36-.46-.44.17a2.36,2.36,0,0,0,.19,1.16l-.11.5-.13.82c-.09.56.13,1.12.46,1.17l.29,0-.29,0c-.33,0-.55.6-.46,1.16l.13.82.11.51a2.31,2.31,0,0,0-.19,1.15c.08.63.44.17.44.17a2.78,2.78,0,0,0-.22,1.22c0,.8,2.56-1.55,2.56-1.55l-2.28,2.32.15.51a1.1,1.1,0,0,0,.39.65,5.24,5.24,0,0,0,0,1,1.23,1.23,0,0,0,.47.72,7.53,7.53,0,0,0,.11,1.06.8.8,0,0,0,.68.75.7.7,0,0,0,.14.7c.29.27.94-.53.94-.53l-.11,1.29s.32.46.61.37A30.78,30.78,0,0,0,132.5,60s-1.66,3.63-1.41,4.48,1.41.5,1.41.5.41,1.45.84,1.49,1.13-.49,1.13-.49.7.7,1.13.49.62-1.26.62-1.26.11.51.43.36a5.78,5.78,0,0,0,1-1,5.85,5.85,0,0,0,.54-1c.22-.53-1.66-3.92-1.66-3.92l2.66,3.47a6.23,6.23,0,0,0,.58-1.68c0-.49-2-3.41-2-3.41l2.37,2.33a2,2,0,0,1,.33-.46,10.9,10.9,0,0,0,.44-2.5s.25-.1.62-1.67a3.94,3.94,0,0,0,0-2.35,3.77,3.77,0,0,0,.37-1.45C141.85,51.3,139.93,52.35,139.93,52.35Z"/><path class="cls-29" d="M137.75,50.65c.16-.27.81-1.42.54-2s-.9-.12-.9-.12a6.54,6.54,0,0,0,0-1.72.61.61,0,0,1-.2-.15l-1,1.78a14.82,14.82,0,0,0,.72-2.24,2.26,2.26,0,0,0-.42-.7l-1,2.42a13.18,13.18,0,0,0,.73-2.79,2.11,2.11,0,0,0-.35-.37,1.79,1.79,0,0,0-.58-.22c-.17,0-.18.28-.18.28s-.18-.68-.41-.67a.29.29,0,0,0-.29.18s-.42-.45-.63-.32a3.46,3.46,0,0,0-.51.45s-.77-.45-1,.29c-.14.42,1.34,2.83,1.34,2.83a24.13,24.13,0,0,0-2-2.39c-.15,0-.28.34-.28.34l.17.62s-.39-.24-.51,0a.4.4,0,0,0,0,.39.66.66,0,0,0-.28.55,4.85,4.85,0,0,0,0,.56,1,1,0,0,0-.17.48,2.76,2.76,0,0,0,.06.51.88.88,0,0,0-.14.43l0,.29,1.31.6s-1.46-.54-1.39-.14a1.15,1.15,0,0,0,.21.56s-.22-.14-.2.19a.59.59,0,0,0,0,.14.51.51,0,0,0,0,.13c0,.33.2.19.2.19a1.22,1.22,0,0,0-.21.56c-.07.41,1.39-.13,1.39-.13l-1.31.59,0,.29a.83.83,0,0,0,.14.43,2.76,2.76,0,0,0-.06.51,1,1,0,0,0,.17.49,4.57,4.57,0,0,0,0,.56.68.68,0,0,0,.28.55.38.38,0,0,0,0,.38c.12.22.51,0,.51,0l-.17.63s.13.31.28.34a25.42,25.42,0,0,0,2-2.4s-1.48,2.41-1.34,2.84c.24.74,1,.29,1,.29a3.46,3.46,0,0,0,.51.45c.21.13.63-.32.63-.32a.31.31,0,0,0,.29.18c.23,0,.41-.68.41-.68s0,.28.18.29a2,2,0,0,0,.58-.23,1.75,1.75,0,0,0,.35-.37,13.35,13.35,0,0,0-.73-2.79l1,2.43a2.26,2.26,0,0,0,.42-.7,14.82,14.82,0,0,0-.72-2.24l1,1.77a.61.61,0,0,1,.2-.15,6.46,6.46,0,0,0,0-1.71s.58.58.9-.12S137.91,50.92,137.75,50.65Z"/><path class="cls-30" d="M136.38,50.65c.09-.13.47-.66.31-.94s-.53-.06-.53-.06.1-.75,0-.79a.43.43,0,0,1-.12-.07l-.58.82a6.81,6.81,0,0,0,.43-1,1.14,1.14,0,0,0-.25-.33l-.61,1.12s.52-1.19.43-1.29a1,1,0,0,0-.21-.17,1.43,1.43,0,0,0-.34-.1c-.1,0-.11.13-.11.13s-.1-.31-.24-.31a.19.19,0,0,0-.18.08s-.24-.21-.37-.15a2.11,2.11,0,0,0-.3.21s-.46-.21-.6.14c-.08.19.8,1.31.8,1.31a12.85,12.85,0,0,0-1.19-1.11c-.09,0-.16.16-.16.16l.1.28s-.23-.11-.31,0a.15.15,0,0,0,0,.18.3.3,0,0,0-.17.25,1.57,1.57,0,0,0,0,.26.37.37,0,0,0-.1.23,1.11,1.11,0,0,0,0,.23.43.43,0,0,0-.08.2l0,.14.79.27s-.87-.25-.83-.06a.49.49,0,0,0,.12.26s-.13-.07-.12.09a.19.19,0,0,1,0,.12c0,.15.12.09.12.09a.49.49,0,0,0-.12.26c0,.18.83-.07.83-.07l-.79.28,0,.13a.37.37,0,0,0,.08.2,1.27,1.27,0,0,0,0,.24.34.34,0,0,0,.1.22,1.83,1.83,0,0,0,0,.26.31.31,0,0,0,.17.26.13.13,0,0,0,0,.17c.08.1.31,0,.31,0l-.1.29s.07.14.16.15a11.56,11.56,0,0,0,1.19-1.1s-.88,1.11-.8,1.31.6.13.6.13a2.11,2.11,0,0,0,.3.21c.13.06.37-.15.37-.15a.21.21,0,0,0,.18.09c.14,0,.24-.32.24-.32s0,.13.11.14a1.33,1.33,0,0,0,.34-.11,1,1,0,0,0,.21-.17c.09-.1-.43-1.29-.43-1.29l.61,1.12a1.21,1.21,0,0,0,.25-.32,6.54,6.54,0,0,0-.43-1l.58.82a.43.43,0,0,1,.12-.07c.08,0,0-.79,0-.79s.35.27.53,0S136.47,50.77,136.38,50.65Z"/><path class="cls-31" d="M132.41,48.18s-1.6-4.06-1.95-3.7S132.41,48.18,132.41,48.18Z"/><path class="cls-31" d="M134.3,47.33s.28-4.91-.11-5S134.3,47.33,134.3,47.33Z"/><path class="cls-31" d="M136.09,48.12S138.26,45,138,44.41,136.09,48.12,136.09,48.12Z"/><path class="cls-31" d="M132.41,52.24s-1.6,4.06-1.95,3.7S132.41,52.24,132.41,52.24Z"/><path class="cls-31" d="M134.3,53.09s.28,4.91-.11,5S134.3,53.09,134.3,53.09Z"/><path class="cls-31" d="M136.09,52.3S138.26,55.43,138,56,136.09,52.3,136.09,52.3Z"/><path class="cls-31" d="M136.49,50.15s2.79-.58,2.86.12S136.49,50.15,136.49,50.15Z"/><path class="cls-31" d="M132,50.15s-2.79-.58-2.86.12S132,50.15,132,50.15Z"/><ellipse class="cls-19" cx="128.12" cy="53.26" rx="16.92" ry="8.94" transform="translate(42.29 162.28) rotate(-74.36)"/><ellipse class="cls-27" cx="126.97" cy="52.94" rx="16.92" ry="8.94" transform="translate(41.76 160.93) rotate(-74.36)"/><ellipse class="cls-22" cx="126.97" cy="52.94" rx="16.17" ry="8.66" transform="translate(41.76 160.93) rotate(-74.36)"/><path class="cls-28" d="M132.55,55.86s.64-.23,1.26-.48a.59.59,0,0,0,.26-.61.6.6,0,0,0,.1-.67c-.4-.53-.83-1.06-.83-1.06s1.67,1.56,1.87,1a3.6,3.6,0,0,0,0-1.5,3.8,3.8,0,0,0,.63-2.27c0-1.62-.18-1.79-.18-1.79a10.16,10.16,0,0,0,.22-2.52,2,2,0,0,1-.21-.54l-3,1.57s2.87-2.23,3-2.71a6.14,6.14,0,0,0-.14-1.78l-3.65,2.59s2.83-2.73,2.75-3.31a6.05,6.05,0,0,0-.28-1.12,6.17,6.17,0,0,0-.78-1.21c-.29-.24-.53.22-.53.22s.09-1.07-.3-1.39-1.28.16-1.28.16-.57-.72-1-.8-1.26,1.19-1.26,1.19-1-.8-1.58.08.24,4.71.24,4.71a30.63,30.63,0,0,0-1.52-3.83c-.27-.17-.72.18-.72.18l-.24,1.28s-.45-1-.81-.78a.68.68,0,0,0-.34.63.84.84,0,0,0-.89.52,7.48,7.48,0,0,0-.4,1,1.3,1.3,0,0,0-.67.57,4.87,4.87,0,0,0-.3,1,1.08,1.08,0,0,0-.58.52l-.28.45,1.7,2.88s-2-3-2.2-2.22a2.71,2.71,0,0,0-.1,1.23s-.25-.54-.49,0a2.24,2.24,0,0,0-.12,1.17l-.25.45-.35.75c-.25.51-.17,1.12.15,1.26l.29.11-.31,0c-.34-.06-.72.42-.78,1l-.09.82,0,.52a2.18,2.18,0,0,0-.5,1.06c-.1.62.39.28.39.28a2.77,2.77,0,0,0-.55,1.11c-.22.78,3-.75,3-.75l-3,1.58v.53a1.07,1.07,0,0,0,.23.74,5,5,0,0,0-.24,1,1.3,1.3,0,0,0,.28.83,7.65,7.65,0,0,0-.18,1,.87.87,0,0,0,.5.92.67.67,0,0,0,0,.71c.21.34,1.1-.24,1.1-.24L119.11,63s.21.54.53.53a30.44,30.44,0,0,0,3.28-2.49s-2.66,3-2.64,3.91,1.3.88,1.3.88,0,1.52.46,1.68a2.56,2.56,0,0,0,1.29-.16s.52.88,1,.8,1-1,1-1,0,.52.34.46A6.13,6.13,0,0,0,127,67a5.44,5.44,0,0,0,.83-.81c.36-.45-.64-4.25-.64-4.25l1.78,4.1a5.9,5.9,0,0,0,1-1.45c.14-.47-1.16-3.87-1.16-3.87l1.79,2.93a1.65,1.65,0,0,1,.46-.36A10.24,10.24,0,0,0,132.17,61s.28,0,1.08-1.44a3.68,3.68,0,0,0,.64-2.26,3.49,3.49,0,0,0,.76-1.29C134.79,55.4,132.55,55.86,132.55,55.86Z"/><path class="cls-29" d="M130.79,53.6c.24-.21,1.2-1.13,1.09-1.8s-.88-.37-.88-.37.62-1.52.49-1.64a.74.74,0,0,1-.17-.21L129.85,51a14.7,14.7,0,0,0,1.34-1.94,2.16,2.16,0,0,0-.24-.8l-1.7,2a13.58,13.58,0,0,0,1.5-2.48,2,2,0,0,0-.26-.45A2.07,2.07,0,0,0,130,47c-.18,0-.27.22-.27.22s0-.71-.23-.77a.33.33,0,0,0-.35.09s-.3-.55-.55-.49a3.87,3.87,0,0,0-.64.29s-.67-.65-1.11,0c-.26.37.6,3.11.6,3.11A25.07,25.07,0,0,0,126,46.57c-.16,0-.37.25-.37.25v.64s-.33-.34-.5-.17a.38.38,0,0,0-.12.37.66.66,0,0,0-.43.45,2.88,2.88,0,0,0-.11.55,1,1,0,0,0-.31.42,2.77,2.77,0,0,0-.07.51.83.83,0,0,0-.26.37l-.1.28,1.18.94s-1.35-.93-1.39-.52a1,1,0,0,0,.07.59s-.19-.19-.26.13c0,0,0,.09,0,.13a.5.5,0,0,0,0,.13c-.11.31.15.24.15.24a1.08,1.08,0,0,0-.36.48c-.18.37,1.46.27,1.46.27l-1.51.19-.05.29a.83.83,0,0,0,0,.46,2.6,2.6,0,0,0-.21.47,1,1,0,0,0,0,.51,2.92,2.92,0,0,0-.19.53.64.64,0,0,0,.13.61.37.37,0,0,0-.09.38c.06.23.52.11.52.11l-.33.56s0,.33.19.4a25.19,25.19,0,0,0,2.68-1.73s-2.16,1.9-2.13,2.35c0,.78,1,.56,1,.56a3.35,3.35,0,0,0,.4.58c.18.19.73-.13.73-.13a.33.33,0,0,0,.25.26c.23.07.6-.54.6-.54s-.07.28.11.33a1.41,1.41,0,0,0,1.11-.3,13.36,13.36,0,0,0,0-2.9l.39,2.62a2.23,2.23,0,0,0,.63-.55,15.12,15.12,0,0,0-.14-2.36l.52,2a.53.53,0,0,1,.24-.09c.18,0,.44-1.66.44-1.66s.44.73.95.14S130.88,53.91,130.79,53.6Z"/><path class="cls-30" d="M129.39,53.21c.13-.09.66-.49.57-.81s-.52-.21-.52-.21.3-.69.22-.75a.44.44,0,0,1-.1-.11l-.81.63a6.8,6.8,0,0,0,.72-.87,1.22,1.22,0,0,0-.17-.39l-.92.91s.85-1,.79-1.12a1.24,1.24,0,0,0-.17-.22,1.28,1.28,0,0,0-.32-.2c-.11,0-.15.09-.15.09s0-.33-.16-.37a.22.22,0,0,0-.2,0s-.2-.27-.34-.25a2.8,2.8,0,0,0-.36.12s-.41-.33-.65,0,.46,1.48.46,1.48a14.39,14.39,0,0,0-.91-1.4c-.1,0-.21.11-.21.11l0,.3s-.21-.17-.3-.1a.15.15,0,0,0-.06.17.29.29,0,0,0-.23.2,1,1,0,0,0,0,.26s-.14.08-.16.18a1.07,1.07,0,0,0,0,.24.36.36,0,0,0-.14.17l0,.12.72.49s-.82-.49-.82-.29a.49.49,0,0,0,0,.28s-.11-.1-.14,0a.13.13,0,0,0,0,.06.14.14,0,0,0,0,.06c-.06.15.09.12.09.12a.44.44,0,0,0-.19.21c-.1.17.86.18.86.18l-.88,0v.14a.33.33,0,0,0,0,.21.8.8,0,0,0-.11.22.38.38,0,0,0,0,.24,1.13,1.13,0,0,0-.1.24.31.31,0,0,0,.1.3.13.13,0,0,0,0,.17c.05.11.31.07.31.07l-.17.25s0,.16.12.2a13.08,13.08,0,0,0,1.5-.73s-1.19.82-1.16,1,.58.3.58.3a2,2,0,0,0,.25.28c.11.1.42,0,.42,0s0,.09.15.13.33-.24.33-.24,0,.13.08.16a1.55,1.55,0,0,0,.38,0,1,1,0,0,0,.25-.1c.12-.07-.09-1.37-.09-1.37l.32,1.25s.29-.13.34-.24a5.79,5.79,0,0,0-.16-1.12l.37,1a.45.45,0,0,1,.14,0c.1,0,.2-.77.2-.77s.28.36.56.1S129.45,53.36,129.39,53.21Z"/><path class="cls-31" d="M126,49.7s-.54-4.36-1-4.11S126,49.7,126,49.7Z"/><path class="cls-31" d="M128.16,49.43s1.62-4.66,1.25-4.89S128.16,49.43,128.16,49.43Z"/><path class="cls-31" d="M129.78,50.69s3.05-2.39,3-3S129.78,50.69,129.78,50.69Z"/><path class="cls-31" d="M124.91,53.62s-2.72,3.45-3,3S124.91,53.62,124.91,53.62Z"/><path class="cls-31" d="M126.61,55s-1,4.82-1.47,4.82S126.61,55,126.61,55Z"/><path class="cls-31" d="M128.65,54.73s1.37,3.63,1,4.12S128.65,54.73,128.65,54.73Z"/><path class="cls-31" d="M129.64,52.77s3,.23,2.88.93S129.64,52.77,129.64,52.77Z"/><path class="cls-31" d="M125.08,51.49s-2.69-1.35-3-.7S125.08,51.49,125.08,51.49Z"/><path class="cls-32" d="M123,69.35s7.39,0,11.75-11.43c0,0-2.59,7.9,1.54-.79C136,58.58,130.7,72.07,123,69.35Z"/><ellipse class="cls-19" cx="123.58" cy="53.26" rx="16.92" ry="8.94" transform="translate(38.98 157.91) rotate(-74.36)"/><ellipse class="cls-27" cx="122.43" cy="52.94" rx="16.92" ry="8.94" transform="translate(38.45 156.56) rotate(-74.36)"/><ellipse class="cls-22" cx="122.43" cy="52.94" rx="16.17" ry="8.66" transform="translate(38.45 156.56) rotate(-74.36)"/><path class="cls-28" d="M128,55.86s.64-.23,1.26-.48a.59.59,0,0,0,.26-.61.6.6,0,0,0,.1-.67c-.4-.53-.83-1.06-.83-1.06s1.67,1.56,1.87,1a3.43,3.43,0,0,0,0-1.5,3.72,3.72,0,0,0,.63-2.27c.05-1.62-.18-1.79-.18-1.79a10.16,10.16,0,0,0,.22-2.52,2,2,0,0,1-.21-.54l-3,1.57s2.87-2.23,3-2.71a6.14,6.14,0,0,0-.14-1.78l-3.65,2.59s2.83-2.73,2.75-3.31a6.05,6.05,0,0,0-.28-1.12,6.17,6.17,0,0,0-.78-1.21c-.29-.24-.53.22-.53.22s.09-1.07-.3-1.39-1.28.16-1.28.16-.56-.72-1-.8-1.26,1.19-1.26,1.19-1-.8-1.57.08.23,4.71.23,4.71a30.63,30.63,0,0,0-1.52-3.83c-.27-.17-.72.18-.72.18l-.24,1.28s-.44-1-.81-.78a.66.66,0,0,0-.33.63.85.85,0,0,0-.9.52,6.39,6.39,0,0,0-.39,1,1.3,1.3,0,0,0-.68.57,4.87,4.87,0,0,0-.3,1,1.12,1.12,0,0,0-.58.52l-.28.45,1.7,2.88s-2-3-2.2-2.22a2.71,2.71,0,0,0-.1,1.23s-.25-.54-.49,0a2.24,2.24,0,0,0-.12,1.17l-.25.45-.35.75c-.25.51-.17,1.12.15,1.26l.29.11-.3,0c-.35-.06-.73.42-.79,1l-.09.82,0,.52a2.18,2.18,0,0,0-.5,1.06c-.1.62.39.28.39.28a2.77,2.77,0,0,0-.55,1.11c-.22.78,3-.75,3-.75l-3,1.58v.53a1.07,1.07,0,0,0,.23.74,5,5,0,0,0-.24,1,1.3,1.3,0,0,0,.28.83,7.65,7.65,0,0,0-.18,1,.87.87,0,0,0,.5.92.67.67,0,0,0,0,.71c.22.34,1.1-.24,1.1-.24L114.57,63s.21.54.53.53a30.62,30.62,0,0,0,3.29-2.49s-2.67,3-2.65,3.91,1.3.88,1.3.88,0,1.52.46,1.68a2.56,2.56,0,0,0,1.29-.16s.52.88,1,.8,1-1,1-1,0,.52.34.46a5.89,5.89,0,0,0,1.29-.63,5.44,5.44,0,0,0,.83-.81c.36-.45-.63-4.25-.63-4.25l1.77,4.1a5.9,5.9,0,0,0,1-1.45c.14-.47-1.16-3.87-1.16-3.87l1.79,2.93a1.65,1.65,0,0,1,.46-.36A10.24,10.24,0,0,0,127.63,61s.28,0,1.08-1.44a3.68,3.68,0,0,0,.64-2.26,3.49,3.49,0,0,0,.76-1.29C130.25,55.4,128,55.86,128,55.86Z"/><path class="cls-29" d="M126.25,53.6c.24-.21,1.2-1.13,1.09-1.8s-.88-.37-.88-.37.62-1.52.49-1.64a.58.58,0,0,1-.16-.21L125.31,51a14.7,14.7,0,0,0,1.34-1.94,2.16,2.16,0,0,0-.24-.8l-1.7,2a13.58,13.58,0,0,0,1.5-2.48,2,2,0,0,0-.26-.45,2.07,2.07,0,0,0-.53-.38c-.18,0-.27.22-.27.22s0-.71-.23-.77a.34.34,0,0,0-.35.09s-.3-.55-.55-.49a3.87,3.87,0,0,0-.64.29s-.67-.65-1.11,0c-.26.37.6,3.11.6,3.11a25.07,25.07,0,0,0-1.39-2.87c-.16,0-.37.25-.37.25v.64s-.34-.34-.51-.17a.38.38,0,0,0-.12.37.66.66,0,0,0-.43.45,4.49,4.49,0,0,0-.11.55,1,1,0,0,0-.31.42,2.77,2.77,0,0,0-.07.51.83.83,0,0,0-.26.37l-.1.28,1.18.94s-1.35-.93-1.39-.52a1,1,0,0,0,.07.59s-.19-.19-.26.13c0,0,0,.09,0,.13s0,.08,0,.13c-.11.31.15.24.15.24a1.17,1.17,0,0,0-.36.48c-.18.37,1.46.27,1.46.27l-1.51.19,0,.29a.83.83,0,0,0,0,.46,2.6,2.6,0,0,0-.21.47,1,1,0,0,0,.05.51,2.92,2.92,0,0,0-.19.53.64.64,0,0,0,.13.61.4.4,0,0,0-.09.38c.06.23.53.11.53.11l-.34.56s0,.33.19.4a25.19,25.19,0,0,0,2.68-1.73s-2.16,1.9-2.13,2.35c.05.78,1,.56,1,.56a4.09,4.09,0,0,0,.4.58c.18.19.73-.13.73-.13a.33.33,0,0,0,.25.26c.24.07.6-.54.6-.54s-.07.28.11.33a1.41,1.41,0,0,0,1.11-.3,13.36,13.36,0,0,0,0-2.9l.4,2.62a2.23,2.23,0,0,0,.62-.55,15.12,15.12,0,0,0-.14-2.36l.52,2a.54.54,0,0,1,.25-.09c.17,0,.43-1.66.43-1.66s.44.73,1,.14S126.34,53.91,126.25,53.6Z"/><path class="cls-30" d="M124.85,53.21c.13-.09.66-.49.57-.81s-.52-.21-.52-.21.31-.69.23-.75l-.11-.11-.81.63a6.8,6.8,0,0,0,.72-.87,1,1,0,0,0-.17-.39l-.92.91s.85-1,.79-1.12a1.24,1.24,0,0,0-.17-.22,1.28,1.28,0,0,0-.32-.2c-.11,0-.15.09-.15.09s0-.33-.16-.37a.22.22,0,0,0-.2,0s-.19-.27-.34-.25a2.8,2.8,0,0,0-.36.12s-.41-.33-.65,0,.46,1.48.46,1.48a14.39,14.39,0,0,0-.91-1.4c-.1,0-.21.11-.21.11l0,.3s-.2-.17-.3-.1a.15.15,0,0,0-.06.17.29.29,0,0,0-.23.2,1,1,0,0,0,0,.26s-.14.08-.16.18a1.07,1.07,0,0,0,0,.24.36.36,0,0,0-.14.17l0,.12.72.49s-.81-.49-.82-.29a.49.49,0,0,0,0,.28s-.11-.1-.14,0a.13.13,0,0,0,0,.06.14.14,0,0,0,0,.06c-.06.15.09.12.09.12a.44.44,0,0,0-.19.21c-.1.17.86.18.86.18l-.87,0,0,.14a.33.33,0,0,0,0,.21.8.8,0,0,0-.11.22.38.38,0,0,0,0,.24,1.13,1.13,0,0,0-.1.24.31.31,0,0,0,.1.3.15.15,0,0,0,0,.17c0,.11.31.07.31.07l-.17.25s0,.16.12.2a12.32,12.32,0,0,0,1.5-.73s-1.19.82-1.16,1,.58.3.58.3a2,2,0,0,0,.25.28c.11.1.42,0,.42,0s0,.09.15.13.33-.24.33-.24,0,.13.08.16a1.55,1.55,0,0,0,.38,0,.88.88,0,0,0,.25-.1c.12-.07-.09-1.37-.09-1.37l.32,1.25s.29-.13.34-.24a5.79,5.79,0,0,0-.16-1.12l.37,1a.45.45,0,0,1,.14,0c.1,0,.2-.77.2-.77s.28.36.56.1S124.91,53.36,124.85,53.21Z"/><path class="cls-31" d="M121.47,49.7s-.54-4.36-1-4.11S121.47,49.7,121.47,49.7Z"/><path class="cls-31" d="M123.62,49.43s1.62-4.66,1.25-4.89S123.62,49.43,123.62,49.43Z"/><path class="cls-31" d="M125.24,50.69s3-2.39,3-3S125.24,50.69,125.24,50.69Z"/><path class="cls-31" d="M120.37,53.62s-2.72,3.45-3,3S120.37,53.62,120.37,53.62Z"/><path class="cls-31" d="M122.07,55s-1,4.82-1.47,4.82S122.07,55,122.07,55Z"/><path class="cls-31" d="M124.11,54.73s1.37,3.63,1,4.12S124.11,54.73,124.11,54.73Z"/><path class="cls-31" d="M125.1,52.77s3,.23,2.88.93S125.1,52.77,125.1,52.77Z"/><path class="cls-31" d="M120.54,51.49s-2.68-1.35-3-.7S120.54,51.49,120.54,51.49Z"/><path class="cls-32" d="M118.45,69.35s7.39,0,11.75-11.43c0,0-2.59,7.9,1.54-.79C131.49,58.58,126.16,72.07,118.45,69.35Z"/><ellipse class="cls-19" cx="118.21" cy="56.15" rx="16.92" ry="8.94" transform="translate(32.28 154.85) rotate(-74.36)"/><ellipse class="cls-27" cx="117.06" cy="55.83" rx="16.92" ry="8.94" transform="matrix(0.27, -0.96, 0.96, 0.27, 31.75, 153.51)"/><ellipse class="cls-22" cx="117.06" cy="55.83" rx="16.17" ry="8.66" transform="matrix(0.27, -0.96, 0.96, 0.27, 31.75, 153.51)"/><path class="cls-28" d="M122.65,58.75s.63-.23,1.25-.48a.58.58,0,0,0,.27-.61.6.6,0,0,0,.09-.67c-.4-.53-.82-1.06-.82-1.06s1.67,1.56,1.87,1a3.6,3.6,0,0,0,0-1.5,3.76,3.76,0,0,0,.62-2.27c.06-1.62-.18-1.79-.18-1.79a10.14,10.14,0,0,0,.23-2.53,1.91,1.91,0,0,1-.21-.54l-3.05,1.58s2.88-2.23,3-2.71a6.14,6.14,0,0,0-.14-1.78L122,48s2.83-2.73,2.75-3.31a5.65,5.65,0,0,0-.29-1.12,5.74,5.74,0,0,0-.77-1.21c-.29-.24-.54.22-.54.22s.1-1.07-.29-1.39-1.28.16-1.28.16-.57-.72-1-.81-1.27,1.2-1.27,1.2-1-.8-1.57.08.23,4.71.23,4.71a32.09,32.09,0,0,0-1.51-3.83c-.27-.17-.73.18-.73.18l-.23,1.27s-.45-1-.82-.77a.69.69,0,0,0-.33.63.86.86,0,0,0-.9.52,8.1,8.1,0,0,0-.39,1,1.3,1.3,0,0,0-.67.57,4.87,4.87,0,0,0-.3,1,1.08,1.08,0,0,0-.58.52l-.28.45,1.69,2.88s-2-3-2.19-2.22a2.65,2.65,0,0,0-.11,1.23s-.24-.55-.48,0a2.26,2.26,0,0,0-.13,1.16l-.24.46-.36.75c-.24.51-.16,1.12.16,1.25l.29.12-.31-.05c-.35,0-.73.43-.78,1l-.09.82,0,.52a2.28,2.28,0,0,0-.5,1.06c-.09.62.4.28.4.28a2.77,2.77,0,0,0-.55,1.11c-.22.78,3-.76,3-.76l-3,1.58v.54a1.1,1.1,0,0,0,.22.74,5.33,5.33,0,0,0-.23,1,1.24,1.24,0,0,0,.28.83,7.65,7.65,0,0,0-.18,1,.85.85,0,0,0,.5.92.66.66,0,0,0-.05.71c.22.34,1.1-.24,1.1-.24l-.46,1.2s.2.54.53.53A30.43,30.43,0,0,0,113,64s-2.66,3-2.64,3.91,1.3.88,1.3.88,0,1.51.46,1.68a2.56,2.56,0,0,0,1.29-.16s.51.88,1,.8,1-1,1-1,0,.51.35.46a6.13,6.13,0,0,0,1.29-.63,5.7,5.7,0,0,0,.82-.81c.37-.45-.63-4.25-.63-4.25l1.77,4.1a6.14,6.14,0,0,0,1-1.45c.13-.47-1.16-3.87-1.16-3.87l1.78,2.92a2.07,2.07,0,0,1,.46-.35,9.86,9.86,0,0,0,1.12-2.28s.29,0,1.09-1.43a3.78,3.78,0,0,0,.64-2.26,3.57,3.57,0,0,0,.76-1.3C124.88,58.29,122.65,58.75,122.65,58.75Z"/><path class="cls-29" d="M120.88,56.49c.24-.21,1.21-1.13,1.1-1.8s-.88-.37-.88-.37.61-1.52.48-1.64a.58.58,0,0,1-.16-.21L120,53.9A14.7,14.7,0,0,0,121.29,52a2.33,2.33,0,0,0-.25-.8l-1.69,2a13,13,0,0,0,1.49-2.48,1.65,1.65,0,0,0-.26-.45,2.1,2.1,0,0,0-.53-.39c-.18,0-.26.23-.26.23s0-.71-.23-.77a.33.33,0,0,0-.35.09s-.3-.55-.55-.49a4.13,4.13,0,0,0-.65.29s-.66-.65-1.11,0c-.25.37.61,3.11.61,3.11a25.19,25.19,0,0,0-1.4-2.87c-.16,0-.37.25-.37.25v.64s-.33-.34-.51-.17a.36.36,0,0,0-.11.37.62.62,0,0,0-.43.45,3.8,3.8,0,0,0-.12.55.89.89,0,0,0-.3.42,2.71,2.71,0,0,0-.07.5.92.92,0,0,0-.26.38l-.11.27,1.19,1s-1.35-.93-1.39-.53a1.15,1.15,0,0,0,.06.6s-.18-.2-.25.13a.69.69,0,0,0,0,.13.5.5,0,0,0,0,.13c-.11.31.15.24.15.24a1.13,1.13,0,0,0-.37.48c-.18.37,1.46.27,1.46.27l-1.5.19,0,.29a.9.9,0,0,0,0,.46,3,3,0,0,0-.2.47.91.91,0,0,0,0,.51,4.42,4.42,0,0,0-.19.53.66.66,0,0,0,.14.61.37.37,0,0,0-.09.38c.06.23.52.11.52.11l-.33.55s0,.34.18.41a24.37,24.37,0,0,0,2.69-1.73s-2.16,1.89-2.13,2.34c0,.78,1,.57,1,.57a3.35,3.35,0,0,0,.4.58c.18.19.72-.13.72-.13a.33.33,0,0,0,.26.26c.23.07.59-.54.59-.54s-.06.28.11.33a2.15,2.15,0,0,0,.65-.05,1.8,1.8,0,0,0,.46-.26,12.71,12.71,0,0,0,0-2.89l.39,2.62a2.23,2.23,0,0,0,.63-.55,15,15,0,0,0-.14-2.36l.52,2a.53.53,0,0,1,.24-.09c.17,0,.44-1.66.44-1.66s.44.73.94.14S121,56.8,120.88,56.49Z"/><path class="cls-30" d="M119.48,56.1c.13-.09.67-.49.58-.81s-.53-.21-.53-.21.31-.7.23-.76a.35.35,0,0,1-.1-.1l-.81.63a6.3,6.3,0,0,0,.72-.88,1.22,1.22,0,0,0-.18-.38l-.92.91s.86-1,.79-1.12a.9.9,0,0,0-.16-.23,1.24,1.24,0,0,0-.33-.19c-.1,0-.14.09-.14.09s0-.33-.16-.37a.21.21,0,0,0-.21,0s-.19-.27-.33-.25a2.6,2.6,0,0,0-.37.12s-.41-.33-.64,0,.45,1.49.45,1.49a11.86,11.86,0,0,0-.91-1.4c-.09,0-.2.11-.2.11l0,.3s-.21-.17-.31-.1a.13.13,0,0,0,0,.17.31.31,0,0,0-.24.2c0,.17-.05.25-.05.25a.4.4,0,0,0-.16.19.82.82,0,0,0,0,.24.31.31,0,0,0-.14.17l0,.12.72.49s-.82-.49-.83-.3a.46.46,0,0,0,.06.29s-.11-.1-.14,0a.13.13,0,0,0,0,.06l0,.06c0,.14.1.12.1.12a.43.43,0,0,0-.2.21c-.09.17.86.18.86.18l-.87,0,0,.13a.35.35,0,0,0,0,.22.94.94,0,0,0-.1.22.4.4,0,0,0,0,.24,1.78,1.78,0,0,0-.09.24.29.29,0,0,0,.1.29.14.14,0,0,0,0,.18c0,.11.31.07.31.07l-.18.25s0,.16.12.2a14.17,14.17,0,0,0,1.51-.73s-1.19.82-1.16,1,.57.29.57.29a1.6,1.6,0,0,0,.26.29c.11.1.41,0,.41,0s0,.09.16.14.33-.24.33-.24,0,.13.07.16a1.53,1.53,0,0,0,.38,0,1.3,1.3,0,0,0,.26-.11c.12-.07-.09-1.36-.09-1.36l.31,1.25s.29-.13.35-.24a5.79,5.79,0,0,0-.16-1.12l.37,1a.3.3,0,0,1,.14,0c.1,0,.2-.76.2-.76s.28.35.55.09S119.55,56.25,119.48,56.1Z"/><path class="cls-31" d="M116.1,52.59s-.53-4.36-1-4.11S116.1,52.59,116.1,52.59Z"/><path class="cls-31" d="M118.26,52.31s1.61-4.65,1.24-4.88S118.26,52.31,118.26,52.31Z"/><path class="cls-31" d="M119.88,53.58s3.05-2.39,3-3S119.88,53.58,119.88,53.58Z"/><path class="cls-31" d="M115,56.5s-2.73,3.46-3,3S115,56.5,115,56.5Z"/><path class="cls-31" d="M116.71,57.86s-1,4.81-1.48,4.82S116.71,57.86,116.71,57.86Z"/><path class="cls-31" d="M118.75,57.61s1.37,3.64,1,4.13S118.75,57.61,118.75,57.61Z"/><path class="cls-31" d="M119.74,55.66s3,.23,2.88.92S119.74,55.66,119.74,55.66Z"/><path class="cls-31" d="M115.17,54.38s-2.68-1.35-2.94-.7S115.17,54.38,115.17,54.38Z"/><path class="cls-32" d="M113.09,72.24s7.39,0,11.75-11.43c0,0-2.6,7.9,1.54-.79C126.13,61.46,120.8,75,113.09,72.24Z"/><ellipse class="cls-19" cx="111.61" cy="56.15" rx="16.92" ry="8.94" transform="translate(27.46 148.49) rotate(-74.36)"/><ellipse class="cls-27" cx="110.46" cy="55.83" rx="16.92" ry="8.94" transform="matrix(0.27, -0.96, 0.96, 0.27, 26.93, 147.15)"/><ellipse class="cls-22" cx="110.46" cy="55.83" rx="16.17" ry="8.66" transform="translate(26.93 147.15) rotate(-74.36)"/><path class="cls-28" d="M116,58.75s.64-.23,1.26-.48a.58.58,0,0,0,.27-.61.62.62,0,0,0,.09-.67c-.4-.53-.82-1.06-.82-1.06s1.66,1.56,1.87,1a3.53,3.53,0,0,0,0-1.5,3.72,3.72,0,0,0,.63-2.27c.05-1.62-.18-1.79-.18-1.79a10.14,10.14,0,0,0,.23-2.53,1.58,1.58,0,0,1-.21-.54l-3,1.58s2.87-2.23,3-2.71a6.06,6.06,0,0,0-.15-1.78L115.36,48s2.82-2.73,2.75-3.31a5.65,5.65,0,0,0-.29-1.12,5.74,5.74,0,0,0-.77-1.21c-.29-.24-.54.22-.54.22s.09-1.07-.29-1.39-1.29.16-1.29.16-.56-.72-1-.81-1.27,1.2-1.27,1.2-1-.8-1.57.08.23,4.71.23,4.71a30.63,30.63,0,0,0-1.52-3.83c-.27-.17-.72.18-.72.18l-.23,1.27s-.45-1-.82-.77a.66.66,0,0,0-.33.63.86.86,0,0,0-.9.52,8.1,8.1,0,0,0-.39,1,1.3,1.3,0,0,0-.67.57,4.87,4.87,0,0,0-.3,1,1.08,1.08,0,0,0-.58.52l-.29.45,1.7,2.88s-2-3-2.2-2.22a2.71,2.71,0,0,0-.1,1.23s-.24-.55-.48,0a2.26,2.26,0,0,0-.13,1.16l-.24.46-.36.75c-.24.51-.17,1.12.16,1.25l.28.12-.3-.05c-.35,0-.73.43-.79,1l-.08.82,0,.52a2.28,2.28,0,0,0-.5,1.06c-.1.62.4.28.4.28a2.7,2.7,0,0,0-.56,1.11c-.22.78,3-.76,3-.76l-3,1.58v.54a1,1,0,0,0,.22.74,4.54,4.54,0,0,0-.23,1,1.24,1.24,0,0,0,.28.83,7.65,7.65,0,0,0-.18,1,.85.85,0,0,0,.49.92.67.67,0,0,0,0,.71c.22.34,1.1-.24,1.1-.24l-.46,1.2s.2.54.52.53A30.61,30.61,0,0,0,106.42,64s-2.66,3-2.65,3.91,1.31.88,1.31.88,0,1.51.46,1.68a2.51,2.51,0,0,0,1.28-.16s.52.88,1,.8,1-1,1-1,0,.51.35.46a6.13,6.13,0,0,0,1.29-.63,6.33,6.33,0,0,0,.82-.81c.37-.45-.63-4.25-.63-4.25l1.77,4.1a6.14,6.14,0,0,0,1-1.45c.13-.47-1.17-3.87-1.17-3.87l1.79,2.92a2.07,2.07,0,0,1,.46-.35,9.86,9.86,0,0,0,1.12-2.28s.29,0,1.08-1.43a3.68,3.68,0,0,0,.64-2.26,3.69,3.69,0,0,0,.77-1.3C118.28,58.29,116,58.75,116,58.75Z"/><path class="cls-29" d="M114.28,56.49c.24-.21,1.21-1.13,1.09-1.8s-.87-.37-.87-.37.61-1.52.48-1.64a.58.58,0,0,1-.16-.21l-1.48,1.43A15.7,15.7,0,0,0,114.69,52a2.33,2.33,0,0,0-.25-.8l-1.7,2a13,13,0,0,0,1.5-2.48,2,2,0,0,0-.26-.45,2.1,2.1,0,0,0-.53-.39c-.18,0-.26.23-.26.23s0-.71-.23-.77a.35.35,0,0,0-.36.09s-.3-.55-.55-.49a4.34,4.34,0,0,0-.64.29s-.66-.65-1.11,0c-.25.37.6,3.11.6,3.11a25.07,25.07,0,0,0-1.39-2.87c-.16,0-.37.25-.37.25v.64s-.33-.34-.51-.17a.38.38,0,0,0-.12.37.64.64,0,0,0-.43.45,4.49,4.49,0,0,0-.11.55.89.89,0,0,0-.3.42,2,2,0,0,0-.07.5.92.92,0,0,0-.26.38l-.11.27,1.18,1s-1.34-.93-1.38-.53a1.15,1.15,0,0,0,.06.6s-.18-.2-.25.13a.69.69,0,0,0,0,.13l-.06.13c-.1.31.16.24.16.24a1.13,1.13,0,0,0-.37.48c-.18.37,1.46.27,1.46.27l-1.5.19-.05.29a.9.9,0,0,0,0,.46,2.21,2.21,0,0,0-.2.47.91.91,0,0,0,0,.51,4.42,4.42,0,0,0-.19.53.68.68,0,0,0,.13.61.4.4,0,0,0-.09.38c.07.23.53.11.53.11l-.33.55s0,.34.18.41a24.37,24.37,0,0,0,2.69-1.73s-2.16,1.89-2.14,2.34c.05.78,1,.57,1,.57a3.35,3.35,0,0,0,.4.58c.18.19.72-.13.72-.13a.33.33,0,0,0,.26.26c.23.07.59-.54.59-.54s-.06.28.11.33a2.15,2.15,0,0,0,.65-.05,1.8,1.8,0,0,0,.46-.26,13.31,13.31,0,0,0,0-2.89l.39,2.62a2.23,2.23,0,0,0,.62-.55,15.15,15.15,0,0,0-.13-2.36l.51,2a.63.63,0,0,1,.25-.09c.17,0,.44-1.66.44-1.66s.43.73.94.14S114.37,56.8,114.28,56.49Z"/><path class="cls-30" d="M112.88,56.1c.13-.09.66-.49.58-.81s-.53-.21-.53-.21.31-.7.23-.76a.35.35,0,0,1-.1-.1l-.81.63A5.65,5.65,0,0,0,113,54c0-.11-.17-.38-.17-.38l-.92.91s.86-1,.79-1.12a.82.82,0,0,0-.17-.23,1.14,1.14,0,0,0-.32-.19c-.1,0-.15.09-.15.09s0-.33-.15-.37a.21.21,0,0,0-.21,0s-.19-.27-.33-.25a2.6,2.6,0,0,0-.37.12s-.41-.33-.65,0,.46,1.49.46,1.49a13.28,13.28,0,0,0-.91-1.4c-.09,0-.21.11-.21.11l0,.3s-.2-.17-.3-.1a.13.13,0,0,0-.05.17.3.3,0,0,0-.24.2c0,.17,0,.25,0,.25a.4.4,0,0,0-.16.19.82.82,0,0,0,0,.24.31.31,0,0,0-.14.17l-.06.12.73.49s-.82-.49-.83-.3a.46.46,0,0,0,.06.29s-.12-.1-.15,0v.06l0,.06c-.05.14.1.12.1.12a.43.43,0,0,0-.2.21c-.09.17.86.18.86.18l-.87,0,0,.13a.35.35,0,0,0,0,.22.94.94,0,0,0-.1.22.4.4,0,0,0,0,.24,1.78,1.78,0,0,0-.09.24.29.29,0,0,0,.1.29.14.14,0,0,0,0,.18c0,.11.31.07.31.07l-.18.25s0,.16.12.2a14.17,14.17,0,0,0,1.51-.73s-1.2.82-1.16,1,.57.29.57.29a1.85,1.85,0,0,0,.25.29c.11.1.42,0,.42,0s0,.09.16.14.33-.24.33-.24,0,.13.07.16a1.53,1.53,0,0,0,.38,0,1.3,1.3,0,0,0,.26-.11c.12-.07-.09-1.36-.09-1.36l.31,1.25s.29-.13.35-.24a6.69,6.69,0,0,0-.16-1.12l.37,1a.3.3,0,0,1,.14,0c.1,0,.19-.76.19-.76s.28.35.56.09S112.94,56.25,112.88,56.1Z"/><path class="cls-31" d="M109.5,52.59s-.53-4.36-1-4.11S109.5,52.59,109.5,52.59Z"/><path class="cls-31" d="M111.66,52.31s1.61-4.65,1.24-4.88S111.66,52.31,111.66,52.31Z"/><path class="cls-31" d="M113.27,53.58s3.06-2.39,3-3S113.27,53.58,113.27,53.58Z"/><path class="cls-31" d="M108.41,56.5s-2.73,3.46-3,3S108.41,56.5,108.41,56.5Z"/><path class="cls-31" d="M110.1,57.86s-1,4.81-1.47,4.82S110.1,57.86,110.1,57.86Z"/><path class="cls-31" d="M112.15,57.61s1.36,3.64,1,4.13S112.15,57.61,112.15,57.61Z"/><path class="cls-31" d="M113.13,55.66s3,.23,2.89.92S113.13,55.66,113.13,55.66Z"/><path class="cls-31" d="M108.57,54.38s-2.68-1.35-2.95-.7S108.57,54.38,108.57,54.38Z"/><path class="cls-32" d="M106.49,72.24s7.39,0,11.74-11.43c0,0-2.59,7.9,1.55-.79C119.53,61.46,114.2,75,106.49,72.24Z"/></g></g></svg>