<svg xmlns="http://www.w3.org/2000/svg" viewBox="0 0 104 52"><defs><style>.cls-1{isolation:isolate;}.cls-2{opacity:0.2;mix-blend-mode:multiply;}.cls-3{fill:#61a01e;}.cls-3,.cls-7,.cls-8{stroke:#405e0d;stroke-miterlimit:10;}.cls-3,.cls-7{stroke-width:0.75px;}.cls-4{opacity:0.24;}.cls-10,.cls-11,.cls-4,.cls-6,.cls-9{mix-blend-mode:overlay;}.cls-5{fill:#c4ea73;}.cls-6{opacity:0.11;}.cls-7{fill:#6db421;}.cls-8{fill:#a9c95d;}.cls-9{opacity:0.21;}.cls-10{fill:#fff;opacity:0.39;}.cls-11{opacity:0.35;}</style></defs><g class="cls-1"><g id="Layer_1" data-name="Layer 1"><ellipse class="cls-2" cx="51.04" cy="42.37" rx="50.5" ry="9"/><path class="cls-3" d="M9.14,39.08S1.59,36.06,3.86,28a7.14,7.14,0,0,1-3-7.81c1.26-5.29.76,0,3-2S7.38,21,9.65,19.94s1.51-3.27,4-2l3.52,3.52,6.05,9.82,3,5.8s1,4-2.52,3.52c0,0,.76,1.77-6-.75S9.14,39.08,9.14,39.08Z"/><path class="cls-4" d="M2.3,19.21s1-.5,3,2.48,0-1,.49-1,0-2,.5-1.48,2.48,1.48,2.48,2.48c0,0,1.35-.34.92,2.55s.07,2.4.07,2.4.49-1.49,1,0-1-4.46,0-4,0-2,.49-2,1.49,3.47,1.49,3.47,1.49,0,.49,3,.5,1.48.5,1.48,2-1,1.49.5,4,8.91,4,8.91S6.73,37,7.24,34.29c0,0-.49-1.71,2-1.71,0,0-4-.49-3.47-1a.69.69,0,0,1,1,0s-2.47-2-1.48-2.47,1.48,0,1.48,0,1.49.49,1.49,1.48c0,0,1,1,1.49,0s-2.48-2-2.48-2-3.47-.49-3-1-1.49-1-1.49-2-1-2,0-2,1.49,1.48,1.49,1.48,1-1,1.48,1.49c0,0,1.49,1,.5-1s-4-2-4.46-3,.5-1,.5-1S1.31,19.7,2.3,19.21Z"/><path class="cls-5" d="M3.27,25.08c1.11.67,1.87,1.26,2.68,1.73a9.69,9.69,0,0,0,1.24.65c.45.22,1,.35,1.57.62l0,.1a5,5,0,0,1-1.72.05,4.35,4.35,0,0,1-1.62-.56,6.36,6.36,0,0,1-2.26-2.54Z"/><path class="cls-5" d="M2.77,19.8a27.77,27.77,0,0,0,1.95,2.49c.67.81,1.34,1.62,2.06,2.38,1.41,1.55,2.78,3.14,4.28,4.62.69.79,1.43,1.55,2.14,2.32s1.49,1.49,2.18,2.3c1.44,1.55,2.89,3.09,4.25,4.76l-.07.07c-1.59-1.4-3.17-2.82-4.71-4.27S11.79,31.52,10.33,30s-2.84-3.16-4.16-4.82a29,29,0,0,1-3.49-5.33Z"/><path class="cls-5" d="M9.32,33.15a12.47,12.47,0,0,0,1.4,1,3.63,3.63,0,0,0,1.18.39,7,7,0,0,0,1.36,0c.26-.05.54-.08.83-.12a6.52,6.52,0,0,1,.94-.09l.06.08-.75.48-.8.38a4.09,4.09,0,0,1-1.77.28,2.92,2.92,0,0,1-1.6-.81,4.2,4.2,0,0,1-.95-1.51Z"/><path class="cls-5" d="M6.54,29.87c.61.4,1.1.73,1.6,1a7.45,7.45,0,0,0,1.46.59,10.26,10.26,0,0,0,1.6.33c.58.09,1.19.11,1.92.25l0,.09a6.35,6.35,0,0,1-3.83.29,4.72,4.72,0,0,1-2.86-2.5Z"/><path class="cls-5" d="M11.22,23.52a4.23,4.23,0,0,1,.91,1.56,5.88,5.88,0,0,1,.32,1.72,4.66,4.66,0,0,1-.32,1.83,2.24,2.24,0,0,1-.65.9.86.86,0,0,1-1.12,0l0-.1a.69.69,0,0,0,.69-.23,1.77,1.77,0,0,0,.29-.74,6.84,6.84,0,0,0,.09-1.63,22.92,22.92,0,0,0-.33-3.3Z"/><path class="cls-5" d="M6.79,20.54a3.16,3.16,0,0,1,1.45.91A3.73,3.73,0,0,1,9.1,23a3.59,3.59,0,0,1,.08,1,5.23,5.23,0,0,1-.12.54,3.4,3.4,0,0,1-.26.5A1.74,1.74,0,0,1,7,25.66l0-.1a2.07,2.07,0,0,0,1.1-.91,2,2,0,0,0,0-1.43A7.45,7.45,0,0,0,6.71,20.6Z"/><path class="cls-6" d="M18,13.61c-.89-.51-1.49,1-2,1.8-2.1,3.32-9.16,4.56-7.18,7.3,2.54,3.53-.28,2.77,0,3.78S13,29.26,13.55,31s-1.12,1.26,2.83,3.78c0,0-3.39,1.76.56,3,0,0-2.52,1.26,2.28,2.27s2.23-1.51,5.06-.76a2.06,2.06,0,0,0,2.25,2l2.26-13.6L25.69,14.9,22,9.36S23.05,16.54,18,13.61Z"/><path class="cls-7" d="M19.87,8.83a1.62,1.62,0,0,0-2.3.56c-1.88,3.32-5.91,11.08-4.14,13.83,2.26,3.52-.26,2.77,0,3.77s3.77,2.77,4.28,4.54-1,1.26,2.52,3.77c0,0-3,1.77.5,3,0,0-2.52,1.76,1.76,2.77s2.27-2,4.79-1.26a2,2,0,0,0,2,2l2-13.6L28.54,15.41,25.26,9.87S24.42,11.76,19.87,8.83Z"/><path class="cls-5" d="M20.18,14.28A15.37,15.37,0,0,1,22.56,17a35.53,35.53,0,0,1,1.85,3.09,45.58,45.58,0,0,1,2.74,6.63,64.44,64.44,0,0,1,1.67,6.95l.49,3.54c.06,1.19.18,2.37.19,3.57h-.1l-.61-3.48-.73-3.47c-.55-2.29-1.12-4.58-1.86-6.82a53.73,53.73,0,0,0-2.5-6.61,26.55,26.55,0,0,0-3.59-6Z"/><path class="cls-5" d="M16.25,15.65c.5,1,1,1.84,1.45,2.68a10.73,10.73,0,0,0,1.65,2.19,4.78,4.78,0,0,0,2.19,1.21,11.26,11.26,0,0,0,2.92.18l0,.09a6.71,6.71,0,0,1-3,.51,4.7,4.7,0,0,1-2.8-1.27A7.91,7.91,0,0,1,17,18.64a12.26,12.26,0,0,1-.83-3Z"/><path class="cls-5" d="M19,27.72c.76.48,1.43,1,2.09,1.4a15.37,15.37,0,0,0,1.95,1.16,6.38,6.38,0,0,0,2,.64,8.25,8.25,0,0,0,2.35-.17l.05.08a4.87,4.87,0,0,1-2.36.87,5.1,5.1,0,0,1-2.46-.52,8.42,8.42,0,0,1-2.05-1.49,11.85,11.85,0,0,1-1.63-1.91Z"/><path class="cls-5" d="M25,35a4.39,4.39,0,0,1,1.19.05,4.33,4.33,0,0,1,.88.25,4.21,4.21,0,0,1,.78.42c.27.14.49.4.86.57l.08.07a1.55,1.55,0,0,1-1.07.13,4.52,4.52,0,0,1-1-.27A6.41,6.41,0,0,1,25,35.09Z"/><path class="cls-5" d="M21.53,25.18a11.61,11.61,0,0,1,1.41.47c.41.15.78.33,1.15.49s.73.36,1.12.57a10.21,10.21,0,0,1,1.27.78v.1A6.47,6.47,0,0,1,23.67,27a6.08,6.08,0,0,1-2.22-1.8Z"/><path class="cls-5" d="M26.57,19.44a3.13,3.13,0,0,1,.58,1.34,4.3,4.3,0,0,1,0,1.34,3.71,3.71,0,0,1-.46,1.33,2.44,2.44,0,0,1-.52.64,1.06,1.06,0,0,1-.51.24.41.41,0,0,1-.44-.28l.06-.08c.17.14.35,0,.44-.16a2.89,2.89,0,0,0,.22-.58A8.84,8.84,0,0,0,26.19,22a24.05,24.05,0,0,0,.28-2.54Z"/><path class="cls-5" d="M29.09,28.75a2.44,2.44,0,0,1,.8,1.22A3.09,3.09,0,0,1,30,31.36a2.74,2.74,0,0,1-.58,1.39,1.66,1.66,0,0,1-1.4.69L28,33.36a2.92,2.92,0,0,0,1-2.13,8.12,8.12,0,0,0,0-2.46Z"/><path class="cls-5" d="M23.27,11.62a3.59,3.59,0,0,1,1.2,1.44,4.15,4.15,0,0,1,.43,1.84,3,3,0,0,1-.66,2,2,2,0,0,1-1.88.73l0-.09a2.45,2.45,0,0,0,1.23-1,3,3,0,0,0,.34-1.58,8.25,8.25,0,0,0-.72-3.23Z"/><path class="cls-4" d="M19.14,11.78s2,0,3,3-.49-3,.5-3.47,3.12,2.28,3.29,4.11-1.31,3.32-.82,3.82,1.49-3.47,2-2.48,1,7.93,0,8.42c0,0-.5,1.49,1,1s.82-5,2.14-3-2.14,4-1.65,4.49,3,1.49,1,6.44l-.06,5.72s-1.92-3.24-4.89-3.24,0-1,0-1-3-1.49-1-1.49a12,12,0,0,1,3.47.5,62.68,62.68,0,0,1-7.19-3.51c-2.23-1.45-.12-1.33-.12-1.33s-3.12-3.88-1.62-3.49a10,10,0,0,1,3.35,2.27s-.4-1.63.36-.76,2.74.87,2.74.87-4.46-2.48-4.46-3.47,1,0,1,0-2-1.48-1-1.48a10,10,0,0,1,3,1s-4.46-2.48-5-3-3.47-2-2.48-2.48-1-4.46,0-4.46,2,2.48,2,2.48,1-1.49,1.49,0,1,1.48,1,1.48-1.49-4.46-1-4S18.15,11.28,19.14,11.78Z"/><path class="cls-3" d="M78.77,13.93s.51,4,4,5.29.48,7.62,3.27,9,5.55-1.92,8.07.1a8.86,8.86,0,0,0,4.2,2.15s2.6,6.66,5.12,5.91c0,0-4,1-5,3.78s-1.76,5.54-8.31,3.52-4.28-5-9.32-5.54-4.53-2.77-6.8-2.52-5,.76-6-2.26,3.77,0,5.79-7.31S72,17,78.77,13.93Z"/><path class="cls-7" d="M42,11s-2.77-4.78,2.27-5.29.5,1,5.29,1.76S58.38,4.7,64.68,4.7s8.06-.5,9.57.51S89.91,31.88,89.91,31.88a7.44,7.44,0,0,1-5.34-.73c-3-1.51-1.25-1.76-2.77-.76s-2-1.76-2-1.76-2.52-2.52-2.27,3.78-4,5.29-5,6.29-2.52,3.78-6.8,2S45.79,12.51,42,11Z"/><path class="cls-8" d="M39.55,28.09S20.75,42.85,16.84,44.58a.47.47,0,0,0-.24.63c.46,1,1.61,3.3,2.5,2.83,1.83-1,19.73-16.44,22.09-16.74A2.35,2.35,0,0,0,39.55,28.09Z"/><path class="cls-3" d="M62.9,39.84s7.56-3,5.29-11.08a7.14,7.14,0,0,0,3-7.81c-1.26-5.29-.75,0-3-2S64.67,21.7,62.4,20.7s-1.51-3.28-4-2l-3.53,3.53L48.8,32l-3,5.79s-1,4,2.51,3.53c0,0-.75,1.76,6.05-.76S62.9,39.84,62.9,39.84Z"/><path class="cls-6" d="M57.22,8.57a7.16,7.16,0,0,1,3.3,2c2,3-2,8.82,3.14,12.34,3.46,2.37.25,2.77,0,3.78s-3.78,2.77-4.28,4.53,1,1.26-2.52,3.78c0,0,3,1.77-.51,3,0,0,2.16,1.25-2.12,2.26s-1.91-1.51-4.42-.75a2,2,0,0,1-2,2l-2-13.6,2.77-12.84.64-4.54S53,7.1,57.22,8.57Z"/><path class="cls-7" d="M52.18,9.58a1.63,1.63,0,0,1,2.3.56c1.88,3.32,5.9,11.09,4.14,13.83-2.27,3.53.25,2.77,0,3.78s-3.78,2.77-4.28,4.53,1,1.26-2.52,3.78c0,0,3,1.76-.5,3,0,0,2.52,1.77-1.77,2.77s-2.26-2-4.78-1.26a2,2,0,0,1-2,2l-2-13.6,2.77-12.85,3.27-5.54S47.62,12.51,52.18,9.58Z"/><path class="cls-9" d="M65,15.53l-.12.14a.56.56,0,0,0,0,.71l12.9,13.2c.28.28.76.14,1-.31l.23-.38a1,1,0,0,0,0-1.15L66,15.33A.69.69,0,0,0,65,15.53Z"/><path class="cls-9" d="M64.6,13l-.12.07c-.18.11-.13.37.12.57L85.13,30.25c.44.36,1,.44,1.26.18l.19-.23c.21-.24.06-.66-.35-1l-20.39-16A1.24,1.24,0,0,0,64.6,13Z"/><path class="cls-9" d="M61.39,17.35l-.06.18a.51.51,0,0,0,.35.66l23.7,6.16a.86.86,0,0,0,1.07-.73l0-.45a1,1,0,0,0-.73-1L62.48,16.73A.92.92,0,0,0,61.39,17.35Z"/><path class="cls-5" d="M69.89,21.51a27.78,27.78,0,0,0-2.37,2.1c-.76.73-1.51,1.46-2.22,2.24-1.44,1.53-2.9,3-4.25,4.67-.72.77-1.4,1.58-2.1,2.36s-1.34,1.63-2.06,2.41c-1.38,1.6-2.75,3.22-4.21,4.78l-.06,0c1.24-1.71,2.51-3.42,3.81-5.09s2.66-3.31,4.06-4.91,2.87-3.12,4.4-4.59a29.72,29.72,0,0,1,5-4Z"/><path class="cls-8" d="M26.2,20S7.4,34.79,3.49,36.52a.47.47,0,0,0-.24.63c.46,1,1.62,3.3,2.5,2.83,1.84-1,19.74-16.44,22.09-16.74A2.35,2.35,0,0,0,26.2,20Z"/><path class="cls-9" d="M8.32,38.7l.21.11a.91.91,0,0,0,.88.1L22,28.32c.26-.22-.05-.67-.67-.93l-.54-.24a1.53,1.53,0,0,0-1.41-.06L7.8,37.8C7.57,38,7.79,38.4,8.32,38.7Z"/><path class="cls-9" d="M16.6,39.38l.25,0c.37,0,.73-.21.78-.41l4.49-15.79c.1-.33-.41-.52-1.07-.4l-.59.11c-.61.11-1.12.42-1.19.73l-3.6,15.33C15.6,39.23,16,39.43,16.6,39.38Z"/><path class="cls-10" d="M16.48,29.13l-.07-.1a.32.32,0,0,0-.45-.11L4.37,36.76a.49.49,0,0,0,0,.77l.2.2a.6.6,0,0,0,.77.1l11.07-8A.53.53,0,0,0,16.48,29.13Z"/><path class="cls-10" d="M29.47,37.66l-.07-.11c-.1-.16-.06.3-.2.39L17.1,44.86a.49.49,0,0,0-.05.77l.2.21A.6.6,0,0,0,18,46l11.34-7.59A.52.52,0,0,0,29.47,37.66Z"/><path class="cls-9" d="M29.69,38.18l-.08-.09c-.12-.15,0,.3-.15.41L18.3,46.85a.49.49,0,0,0,0,.76l.23.19a.59.59,0,0,0,.77,0l10.46-8.5C30,39.15,29.88,38.42,29.69,38.18Z"/><path class="cls-8" d="M21.74,16.31s-8.58,22.32-11,25.8a.47.47,0,0,0,.12.66c.92.65,3.08,2,3.6,1.16,1.08-1.78,8.52-24.24,10.39-25.71A2.35,2.35,0,0,0,21.74,16.31Z"/><path class="cls-10" d="M18,29.38l-.11-.06c-.17-.08.11.29,0,.44L11.51,42.12a.5.5,0,0,0,.37.67l.29.07a.6.6,0,0,0,.71-.3l5.45-12.51A.52.52,0,0,0,18,29.38Z"/><path class="cls-5" d="M50.87,14.81a23.77,23.77,0,0,0-1.51,3.24c-.47,1.09-.87,2.21-1.23,3.33-.16.57-.35,1.13-.54,1.69l-.51,1.7c-.3,1.14-.62,2.28-.85,3.44-.65,2.28-1,4.63-1.52,7s-.85,4.7-1.38,7.07h-.1l.29-3.59.42-3.58c.35-2.37.74-4.75,1.32-7.08A49.82,49.82,0,0,1,47.4,21.1c.45-1.12.93-2.22,1.48-3.29a18.64,18.64,0,0,1,1.91-3.06Z"/><path class="cls-5" d="M55.46,15.64a7.08,7.08,0,0,1-.08,3.45,6.77,6.77,0,0,1-1.78,3.16,8.43,8.43,0,0,1-.74.6c-.28.16-.55.33-.83.48a5.93,5.93,0,0,1-1.83.42,6.29,6.29,0,0,1-1.79-.14A9,9,0,0,1,46.8,23l0-.1c.54.07,1.08.19,1.62.21A6.81,6.81,0,0,0,50.07,23a6.11,6.11,0,0,0,1.54-.48l.68-.43a6.27,6.27,0,0,0,.61-.53,7.29,7.29,0,0,0,1.74-2.72,11.13,11.13,0,0,0,.72-3.18Z"/><path class="cls-5" d="M53.67,28a6.41,6.41,0,0,1-1.24,2.62,7.43,7.43,0,0,1-2.23,2,5.62,5.62,0,0,1-3,.7,4.23,4.23,0,0,1-2.72-1.21l0-.09a6,6,0,0,0,2.64.52,6.22,6.22,0,0,0,2.56-.79,9.6,9.6,0,0,0,2.16-1.65A12.91,12.91,0,0,0,53.58,28Z"/><path class="cls-5" d="M47.68,36a2.39,2.39,0,0,1-.52,1.27,2.89,2.89,0,0,1-2.31,1.09,2.16,2.16,0,0,1-.7-.13,1.06,1.06,0,0,1-.64-.49l.06-.08a1.87,1.87,0,0,0,1.09-.06,5.9,5.9,0,0,0,1.05-.42A7.48,7.48,0,0,0,47.61,36Z"/><path class="cls-5" d="M50.56,25.81a2.83,2.83,0,0,1-.64,1.66,4.1,4.1,0,0,1-3,1.62,3.19,3.19,0,0,1-1.73-.32v-.1a8.17,8.17,0,0,0,2.94-.94,6.78,6.78,0,0,0,2.37-2Z"/><path class="cls-5" d="M44.29,20.66a3.94,3.94,0,0,1,.89,1.14A5.51,5.51,0,0,1,45.65,23a6.85,6.85,0,0,1,.21,1.17c0,.19,0,.38,0,.53s-.13.32.2.35l.06.07a.42.42,0,0,1-.34.12.61.61,0,0,1-.31-.18,2,2,0,0,1-.36-.56,9.11,9.11,0,0,1-.46-1.23,22.85,22.85,0,0,1-.5-2.57Z"/><path class="cls-5" d="M42.48,30.24a7.65,7.65,0,0,1,1,2.28c.08.34.16.66.23,1a6.76,6.76,0,0,0,.4,1.17l0,.09a2.94,2.94,0,0,1-1.55-2,7.36,7.36,0,0,1-.14-2.56Z"/><path class="cls-5" d="M47.13,12.53a12.25,12.25,0,0,1,.21,1.77c0,.54.06,1,.13,1.49A4.2,4.2,0,0,0,47.75,17a4.49,4.49,0,0,0,1,1.23l0,.1a3,3,0,0,1-1.55-.81,3,3,0,0,1-.68-1.61A7.55,7.55,0,0,1,47,12.49Z"/><path class="cls-6" d="M41.63,42.61a3.69,3.69,0,0,0,3.28-1.69,2.3,2.3,0,0,0,.42-1.59A62.34,62.34,0,0,1,45,28.25a14,14,0,0,0,3.27-8.06,22,22,0,0,0,1.52-3.27c.75-2-.26-5.54,0-6.55s1.65-2.77.39-2.77a4.33,4.33,0,0,1-4.54-3.27c-.31.42.06-3.27-1.65-.76a5.35,5.35,0,0,1-3,0c-1.51-.5-.25,1.76-.75,2.27a4,4,0,0,0-1.77,4c.25,2.77-5.29,2.52-5.29,3s-1,1.26-1.51,1.76-3,1.26,4,6.8a3.25,3.25,0,0,1,1,4,16.35,16.35,0,0,0-.5,6.55s-1.88,5,2.4,2.52,1.51,1.76,2.52,2.77S41.63,42.61,41.63,42.61Z"/><path class="cls-11" d="M73.59,6.14s-9.86-1.3-14.82,1.18,6.44-.5,7.93.49-4,1.49-4.46,2,4.95-.5,4.95.49,4-1,4.46,0-5,1-3.46,2.48,9.41-1.49,9.9,1-1,1.49-.49,3,2-1,2.47,0-3,5,2,7.43,2,1.49,2,2,1,0,3.47,3C87.51,29.12,77.51,8.92,73.59,6.14Z"/><path class="cls-8" d="M73,11.76s-.46,23.9-1.6,28a.48.48,0,0,0,.34.59c1.09.29,3.58.84,3.78-.14.41-2-.25-25.69,1-27.71A2.35,2.35,0,0,0,73,11.76Z"/><path class="cls-9" d="M73.33,11.39l-.25,0a.69.69,0,0,0-.76.56L69.68,39.12a1,1,0,0,0,1.17,1l.59-.06a1.23,1.23,0,0,0,1.15-1l1.76-26.55A1,1,0,0,0,73.33,11.39Z"/><path class="cls-9" d="M75.43,12.25l-.1-.06c-.14-.1-.27.09-.29.41L73.87,38.85c0,.56.18,1.1.43,1.15l.22,0c.24,0,.43-.32.44-.83l.85-25.78A1.52,1.52,0,0,0,75.43,12.25Z"/><path class="cls-10" d="M74.8,12.26l0-.07c0-.11-.11.07-.13.39L73,38.57a2.59,2.59,0,0,0,.11,1.17l.08.06c.09.06.18-.28.21-.79l1.52-25.55A3.19,3.19,0,0,0,74.8,12.26Z"/><path class="cls-8" d="M63.59,14.42S81.76,30,84.21,33.45a.48.48,0,0,0,.67.11c.92-.66,2.93-2.23,2.29-3-1.31-1.61-20-16.12-20.75-18.38A2.36,2.36,0,0,0,63.59,14.42Z"/><path class="cls-9" d="M65.16,12.76l-.12,0c-.18.08-.13.33.12.55L85.25,31.62c.42.39,1,.56,1.23.35l.19-.18c.21-.19.06-.6-.34-.95l-20-17.66A1.38,1.38,0,0,0,65.16,12.76Z"/><path class="cls-10" d="M64.08,13.74H64c-.12,0,0,.17.22.38L84.45,31.94c.43.38.94.66,1.07.6l.12-.06c.12,0-.09-.36-.49-.71l-20-17.39A2.66,2.66,0,0,0,64.08,13.74Z"/><path class="cls-11" d="M77.12,18.45l13.62,24.4s4.45,3,6.44-4-1,2-2,1,2-5.45,4-5,.49-2-.5-1.48-3.47,3.47-5,2c-1-1,.92-2.52,2.11-3a.23.23,0,0,0,0-.44c-1.73-.3-5,1.22-4.54,2.48-.79-.88,2-4.46,2.48-5,.78-.78-4,0-4.46,2.48-.39,2.28-2-.81-2.12-2a.26.26,0,0,0-.4-.2c-.59.35-.69.78-.45,1.24-.75-1-1.49-2-1-3-.65,0-.91.21-1,.49a9,9,0,0,1-.56-5.75.07.07,0,0,0-.11-.08A4.4,4.4,0,0,0,81.82,25a12.52,12.52,0,0,1,0-5.45,4.44,4.44,0,0,0-1,3l-3.48-4.25A.14.14,0,0,0,77.12,18.45Z"/><path class="cls-8" d="M59.78,16.84S83.13,22,86.94,23.91a.48.48,0,0,0,.64-.22c.5-1,1.53-3.35.61-3.73-1.92-.8-25.24-4.79-27-6.42A2.35,2.35,0,0,0,59.78,16.84Z"/><path class="cls-9" d="M60.34,14.66l-.07.12c-.12.17,0,.38.36.46l25.76,5.83c.55.12,1.12-.06,1.2-.4l.08-.29c.08-.3-.24-.61-.75-.72L61.57,14.35A1.24,1.24,0,0,0,60.34,14.66Z"/><path class="cls-10" d="M59.92,16.27l-.08,0c-.11.05.06.16.38.23l26.21,6.35c.56.13,1.14.15,1.22,0l.08-.1c.08-.1-.25-.28-.76-.4l-25.8-6.07A2.7,2.7,0,0,0,59.92,16.27Z"/><path class="cls-11" d="M48.44,15.66s3.64-5.12,4.64-3.14-4,7.43-3,7.93,5-6.94,5.45-5.95,1,9.91-4.95,10.41c0,0,2,1,0,3.46s3-1.48,3-1.48,2.48-.5,0,4-6,3.43-6,3.43,3.76,1.65-.35,3.82-3.88,2.68-3.88,2.68.74-5.32-1.23-7.13-1.92-9.31.78-10.51,2-8.47,2.84-8.31A27,27,0,0,1,48.44,15.66Z"/><path class="cls-11" d="M63.77,23.23s6.4-3.57,6.64-1.79-7.22,5.28-6.59,5.9,5.49-4.15,5.62-3.26S67.69,32,63.07,30.92c0,0,1.25,1.25-.88,2.69s2.62-.42,2.62-.42,2,.22-1,3.07A7,7,0,0,1,57,37.79s2.16.82-1.49,1.48-3.47,1-3.47,1,2-3.07,1-4.95,2.3-7.38,4.65-7.64S61.36,21.6,62,21.93A19.66,19.66,0,0,1,63.77,23.23Z"/><path class="cls-3" d="M40,43.36c2.52.26,2.77-.5,2.77-.5s-1-11.08-.5-15.11a14.06,14.06,0,0,0,3.27-8.06A22,22,0,0,0,47,16.42c.75-2-.26-5.55,0-6.55s1.51-3,.75-4-1.51-.76-2.27-3.53c0,0-2-2.52-4.28.76a5.35,5.35,0,0,1-3,0c-1.51-.51-.25,1.76-.75,2.26a4,4,0,0,0-1.77,4c.25,2.77-5.29,2.52-5.29,3s-1,1.26-1.51,1.76-3,1.26,4,6.8a3.25,3.25,0,0,1,1,4,16.35,16.35,0,0,0-.5,6.55S31.67,42.1,36,39.59s2.52-3.28,3.53-2.27S40,43.36,40,43.36Z"/><path class="cls-11" d="M41.8,42.36s-.26-7.31-2.52-8.31c0,0,1,1.51.5,2,0,0-1.76-2.52-2.77.76s-2.52-4.21,0-4.88c0,0-1.76-2.43-2.52-.67,0,0-1-2.67,1.13-3.73S34.24,25,34.49,23.22s4,3.27,4.79,2.26-5.78-6.92-6.54-6.73-2-3.85,6.54,2.45c0,0,1.76-.5.25-2S33,15.41,31.47,16.67c0,0-4.28-1.77,0-4.16S40,16.67,41,15.16s-5-3.32-4.38-4.94,5.64,3.43,5.64,1.91-6.8-4.78-5-6,4.28,2.52,5,1.51-2.77-3.53-.5-4.53,2.26,2.26,2.77,3,1.26-1,2-.25-1.51,3-1.26,3.52a8.46,8.46,0,0,1,1,3.28c0,1.26-1.62,2.4-1.69,3.59s.3,3.78-.52,4.88-2.07,3.62-1.82,4.37-1.76,2.83-1.76,4.19.77,2.33.76,3.73S42.55,41.6,41.8,42.36Z"/><path class="cls-6" d="M30.55,41.85C28,42.1,28,41.1,28,41.1S28.54,31,28,27a14,14,0,0,1-3.27-8.06,21.47,21.47,0,0,1-1.51-3.27c-.76-2-.76-5.54,2.27-5.54,1,0-.26-1.76.5-2.77s-.25-1.51.5-4.28c0,0,.25-4,2.52-.76a5.25,5.25,0,0,0,3,0c1.51-.5.26,1.76.76,2.27a4,4,0,0,1,1.76,4c-.25,2.77,5.29,2.52,5.29,3s1,1.26,1.51,1.76,3,1.26-4,6.8a3.26,3.26,0,0,0-1,4,16.44,16.44,0,0,1,.51,6.55s1.76,10.58-2.52,8.06-2.52-3.27-3.53-2.27S30.55,41.85,30.55,41.85Z"/><path class="cls-6" d="M34.08,34.05c-2.52.25-2.27,1.76-2.27,1.76a66.23,66.23,0,0,0-.25-9.32,14,14,0,0,1-3.27-8.06,22,22,0,0,1-1.52-3.27c-.75-2,.26-5.54,0-6.55s-1.51-3-.75-4,1.76.5,2.52-2.27c0,0-.25-.5,2,2.77,0,0-.25.25,1.26-.25s.76,1.51,1.26,2,5.29-1.52,5,1.25,5.54,1.52,5.54,2a6.72,6.72,0,0,0,1.26,2.77c.5.5,3.52,2.27-3.53,7.81,0,0-2.52.25-1.51,3a16.35,16.35,0,0,1,.5,6.55s2.52,8.56-1.76,6-3.27-1.26-4.28-.25S34.08,34.05,34.08,34.05Z"/><path class="cls-3" d="M32.06,42.61c-2.52.25-2.77-.51-2.77-.51S30.3,31,29.8,27a14,14,0,0,1-3.28-8.06A22.72,22.72,0,0,1,25,15.66c-.75-2,.25-5.54,0-6.55s-1.51-3-.75-4,1.51-.75,2.26-3.52c0,0,2-2.52,4.28.75a5.29,5.29,0,0,0,3,0c1.51-.5.25,1.76.75,2.27a4,4,0,0,1,1.76,4c-.25,2.77,5.29,2.52,5.29,3s1,1.26,1.51,1.76,3,1.26-4,6.8a3.25,3.25,0,0,0-1,4,16.35,16.35,0,0,1,.5,6.55s1.76,10.58-2.52,8.06-2.52-3.27-3.52-2.27S32.06,42.61,32.06,42.61Z"/><path class="cls-4" d="M30.05,42.36s.25-7.31,2.52-8.31c0,0-1,1.51-.51,2,0,0,1.77-2.52,2.77.76s2.52-4.21,0-4.88c0,0,1.77-2.43,2.52-.67,0,0,1-2.67-1.13-3.73S37.6,25,37.35,23.22s-4,3.27-4.78,2.26,5.77-6.92,6.54-6.73,2-3.85-6.54,2.45c0,0-1.77-.5-.25-2s6.54-3.78,8-2.52c0,0,4.29-1.77,0-4.16s-8.56,4.16-9.57,2.65,5-3.32,4.39-4.94-5.65,3.43-5.65,1.91,6.8-4.78,5-6-4.28,2.52-5,1.51,2.78-3.53.51-4.53-2.27,2.26-2.77,3-1.26-1-2-.25,1.51,3,1.26,3.52a8.48,8.48,0,0,0-1,3.28c0,1.26,1.61,2.4,1.68,3.59s-.3,3.78.52,4.88,2.08,3.62,1.82,4.37,1.77,2.83,1.77,4.19-.77,2.33-.76,3.73S29.29,41.6,30.05,42.36Z"/><path class="cls-9" d="M51.39,20.49l-.09.23a.71.71,0,0,0,.31.9l25.2,10.53a1,1,0,0,0,1.26-.83l.11-.59a1.23,1.23,0,0,0-.66-1.4L52.67,19.81A1,1,0,0,0,51.39,20.49Z"/><path class="cls-8" d="M51.25,20.24S73.36,29.3,76.79,31.85a.48.48,0,0,0,.67-.1c.66-.91,2.08-3,1.23-3.58-1.75-1.11-24-9-25.47-11A2.35,2.35,0,0,0,51.25,20.24Z"/><path class="cls-9" d="M52.8,18.57l-.1.1c-.14.15,0,.39.28.51L77.27,29.54c.52.22,1.11.14,1.26-.17l.13-.27c.13-.29-.13-.65-.61-.85l-24-9.77A1.21,1.21,0,0,0,52.8,18.57Z"/><path class="cls-10" d="M51.65,19.71l-.08,0c-.13,0,0,.16.32.29L76.6,30.84a2.06,2.06,0,0,0,1.2.25l.09-.09c.1-.09-.19-.32-.68-.53L52.87,20A2.69,2.69,0,0,0,51.65,19.71Z"/><path class="cls-5" d="M61.25,34.57A7,7,0,0,1,58.69,37a3.87,3.87,0,0,1-1.79.5A1.81,1.81,0,0,1,56,37.2a1.69,1.69,0,0,1-.56-.73,1.66,1.66,0,0,0,1.46.42,5,5,0,0,0,1.47-.57C59.3,35.8,60.22,35.15,61.25,34.57Z"/><path class="cls-5" d="M56.79,30.11c0,.71-.18,1.32-.16,1.88a2.31,2.31,0,0,0,.16.78,3.18,3.18,0,0,0,.5.81,1.46,1.46,0,0,1-1-.48A1.78,1.78,0,0,1,55.88,32,2.38,2.38,0,0,1,56.79,30.11Z"/><path class="cls-5" d="M60.26,26.14a2.31,2.31,0,0,0-.36,2.19,3,3,0,0,0,1.75,1.26,4.18,4.18,0,0,0,2.27-.05,10.78,10.78,0,0,0,2.28-.92,5.72,5.72,0,0,1-2.1,1.48,4.1,4.1,0,0,1-2.66.21,3.17,3.17,0,0,1-2.08-1.76,1.92,1.92,0,0,1,.08-1.4A2.79,2.79,0,0,1,60.26,26.14Z"/></g></g></svg>