<?xml version="1.0" encoding="UTF-8"?><svg id="a" xmlns="http://www.w3.org/2000/svg" viewBox="0 0 256 200"><defs><style>.b{fill:#93121f;}.c{fill:#ad1a25;}.d{fill:#efd13f;}.e{fill:#ffed94;}.f{fill:#c72127;}.g{fill:#af202d;}.h{fill:#fde34c;}.i{fill:#efd96f;}.j{fill:#84101b;}.k{fill:#fcea7b;}.l{fill:#eac926;}.m{fill:#b42027;}</style></defs><g><polygon class="h" points="62.25 28.68 57.54 19.46 55.24 32.43 56.61 51.22 62.03 36.43 62.25 28.68"/><g><polygon class="k" points="57.54 19.46 66.99 18.52 79.41 34.64 69.94 41.92 61.06 34.7 57.54 19.46"/><path class="b" d="M60.82,33.58c5.36-.1,18.51,1.42,18.59,1.06l-3.96,17.06s-18.59-.47-18.84-.48c.23,0,3.7-16.8,4.21-17.64Z"/><path class="j" d="M75.25,43.44c-1.94-.55-3.06-.33-4.28,1.25-.55,.72-1.96,2.73-3.13,2.44-.85-.21-.85-1.47-.97-2.15-.16-.92-.35-1.95-1.11-2.58-1.59-1.32-3.96-.07-5.05,1.34-1.37,1.76-.93,6.93-3.9,6.9-.09,.36-.16,.58-.19,.57,.25,0,18.84,.48,18.84,.48,0,0,.9-3.9,1.85-7.97-.68,.05-1.32-.07-2.05-.28Z"/></g></g><g><polygon class="k" points="109.5 106.06 87.85 107.6 85.74 94.13 94.72 82.15 109.61 92.39 109.5 106.06"/><path class="h" d="M109.61,92.39c-5.83,.7-23.85,1.43-23.87,1.74l3.6-13.16s16.3-1.91,16.58-1.93c.04,1.17,4.08,12.6,3.69,13.35Z"/></g><g><polygon class="k" points="75.2 102.4 53.56 103.94 51.44 90.46 60.42 78.49 75.31 88.73 75.2 102.4"/><path class="h" d="M75.31,88.73c-5.83,.7-23.85,1.43-23.87,1.74l3.6-13.16s16.3-1.91,16.58-1.93c.04,1.17,4.08,12.6,3.69,13.35Z"/></g><g><path class="c" d="M84.81,39.08l.6-3.31-7.22-1.71s-7.76,6.67-8.53,14.4c-.11,1.06-.21,2.12-.32,3.18-.07,.71-.16,1.36-.06,2.07,0,.05,.01,.09,.04,.13,.04,.06,.11,.08,.17,.11,2.32,1.04,4.79,1.78,7.2,2.62l8.13-17.49Z"/><path class="m" d="M69.65,48.46c.78-7.73,8.53-14.4,8.53-14.4l3.1,.73c-2.03,1.45-4.69,2.14-6.34,4.02-.48,.55-.92,1.39-.6,2.13,.34,.77,1.34,1.13,2,1.65-1.39,.7-2.42,1.31-2.37,3.07,.03,.92,.48,1.73,.82,2.57,.21,.51,.55,1.22,.3,1.75-.26,.56-1.12,.59-1.62,.87-1.43,.79-2.01,2.32-2.07,3.86,0-.04-.77-.27-.83-.29-.55-.19-1.18-.44-1.35-1.04-.12-.43,.02-.91,.06-1.35,.12-1.2,.24-2.39,.36-3.59Z"/><path class="k" d="M85.41,35.77l4.7,13.32-13.43,7.47s1.77-15.22,8.73-20.79Z"/></g><g><polygon class="k" points="94.52 73.55 75.84 74.88 74.02 63.26 81.77 52.92 94.61 61.76 94.52 73.55"/><path class="h" d="M94.61,61.76c-5.03,.6-20.58,1.23-20.59,1.5l3.11-11.35s14.06-1.65,14.3-1.67c.04,1.01,3.52,10.87,3.18,11.52Z"/></g><g><polygon class="k" points="103.86 68.6 105.42 65.15 91.5 65.22 81.66 67.62 96.5 69.85 103.86 68.6"/><g><polygon class="h" points="105.42 65.15 106.83 77.27 100.99 85.59 92.58 78.2 97.98 68.63 105.42 65.15"/><path class="j" d="M99.01,68.2c.95,4.94,1.62,17.39,1.98,17.4l-16.76-.46s-2.54-17.28-2.57-17.52c.03,.21,16.47,.27,17.34,.58Z"/><path class="b" d="M92.65,84c.98-.8,2.29-1.62,2.21-1.47,.84-1.5-1.8-1.88-2.15-1.39,.63-.9,1.03-1.95,1.16-3.04-2.02,.3-4.04,.59-6.07,.89-.14,.02-.28,.04-.41,.01-.63-.13-.61-1.1-.15-1.55,.46-.45,1.13-.61,1.61-1.04,.39-.34,.48-.83,.28-1.27-1.73-.28-5.1-.23-5.51-2.31-.47-2.34,1.18-3.77-1.93-5.1,.19,1.48,2.19,17.39,2.54,17.4,.01,0,3.83,.1,7.83,.21-.89,.05-.28-.64,.59-1.35Z"/></g></g><g><path class="j" d="M104.32,80.55l.39-4.93,10.69,.46s8.35,12.55,6.59,23.81c-.24,1.54-.48,3.09-.73,4.63-.16,1.03-.27,2-.67,2.96-.03,.06-.05,.13-.11,.17-.07,.06-.18,.07-.28,.08-3.61,.55-7.33,.61-10.99,.84l-4.89-28.03Z"/><path class="b" d="M121.99,99.9c1.76-11.26-6.59-23.81-6.59-23.81l-4.58-.2c2.3,2.87,5.75,4.9,7.36,8.23,.47,.97,.77,2.34,.05,3.26-.76,.95-2.28,1.07-3.4,1.54,1.68,1.55,2.89,2.82,2.18,5.29-.37,1.29-1.3,2.26-2.09,3.32-.47,.64-1.22,1.51-1.07,2.35,.16,.9,1.35,1.29,1.94,1.88,1.7,1.69,1.95,4.1,1.47,6.3,.01-.05,1.17-.07,1.26-.08,.83-.05,1.81-.15,2.26-.93,.32-.56,.31-1.3,.41-1.94,.28-1.74,.55-3.49,.82-5.23Z"/><path class="l" d="M104.71,75.62l-11.46,17,15.97,15.95s3.13-22.27-4.51-32.95Z"/></g><g><polygon class="h" points="71.84 60.67 64.13 53.53 66.57 66.45 74.53 83.66 74.38 68.02 71.84 60.67"/><g><polygon class="k" points="64.13 53.53 72.71 49.6 90.14 60.74 83.8 70.64 72.85 66.71 64.13 53.53"/><path class="f" d="M72.23,65.73c5.02-1.82,17.96-4.62,17.91-4.99l2.32,17.3s-17.69,5.54-17.93,5.61c.22-.07-2.48-16.97-2.3-17.93Z"/><path class="m" d="M89.34,70.36c-2.02,.11-3.01,.67-3.59,2.55-.27,.85-.88,3.19-2.09,3.3-.88,.08-1.32-1.11-1.67-1.71-.48-.81-1.02-1.71-1.97-2.06-1.96-.73-3.76,1.21-4.29,2.88-.66,2.1,1.58,6.81-1.23,7.73,.04,.37,.05,.59,.03,.6,.24-.08,17.93-5.61,17.93-5.61,0,0-.53-3.95-1.09-8.08-.62,.27-1.27,.35-2.04,.39Z"/></g></g><g><polygon class="k" points="30.08 40.58 32.21 30.28 22.41 39.04 11.79 54.75 25.1 46.55 30.08 40.58"/><g><polygon class="h" points="32.21 30.28 40.01 35.6 39.47 56.28 27.72 55.96 25.44 44.56 32.21 30.28"/><path class="j" d="M25.95,43.52c4.15,3.36,13.23,12.99,13.52,12.76l-13.61,10.93s-13.88-12.29-14.07-12.46c.17,.15,13.25-10.89,14.16-11.23Z"/><path class="g" d="M30.83,60.56c-1.13-1.68-2.13-2.23-4.04-1.76-.87,.21-3.19,.9-3.9-.09-.52-.71,.27-1.7,.6-2.31,.45-.83,.94-1.76,.75-2.75-.39-2.06-2.98-2.6-4.68-2.18-2.14,.52-5.02,4.88-7.26,2.94-.3,.23-.48,.35-.5,.33,.19,.17,14.07,12.46,14.07,12.46,0,0,3.11-2.5,6.36-5.1-.55-.39-.96-.9-1.39-1.54Z"/></g></g><g><polygon class="h" points="34.6 77.73 26.89 70.58 29.32 83.5 37.28 100.71 37.14 85.08 34.6 77.73"/><g><polygon class="k" points="26.89 70.58 35.46 66.65 52.9 77.8 46.55 87.69 35.61 83.76 26.89 70.58"/><path class="j" d="M34.99,82.78c5.02-1.82,17.96-4.62,17.91-4.99l2.32,17.3s-17.69,5.54-17.93,5.61c.22-.07-2.48-16.97-2.3-17.93Z"/><path class="m" d="M52.1,87.41c-2.02,.11-3.01,.67-3.59,2.55-.27,.85-.88,3.19-2.09,3.3-.88,.08-1.32-1.11-1.67-1.71-.48-.81-1.02-1.71-1.97-2.06-1.96-.73-3.76,1.21-4.29,2.88-.66,2.1,1.58,6.81-1.23,7.73,.04,.37,.05,.59,.03,.6,.24-.08,17.93-5.61,17.93-5.61,0,0-.53-3.95-1.09-8.08-.62,.27-1.27,.35-2.04,.39Z"/></g></g><g><polygon class="h" points="84.74 80.25 85.41 69.99 76.73 80.24 68.23 97.3 80.56 86.91 84.74 80.25"/><g><polygon class="k" points="85.41 69.99 94.11 73.58 96.58 93.47 84.6 95.41 80.61 84.94 85.41 69.99"/><path class="j" d="M80.98,83.85c4.71,2.42,15.34,9.9,15.6,9.62l-12.24,13.05s-15.9-9.1-16.12-9.23c.2,.11,11.88-12.95,12.75-13.45Z"/><path class="m" d="M88.42,99.22c-1.4-1.39-2.49-1.72-4.36-.91-.85,.37-3.11,1.47-3.98,.66-.63-.58,.02-1.68,.27-2.33,.33-.88,.7-1.86,.36-2.77-.7-1.89-3.41-1.91-5.08-1.19-2.1,.9-4.39,5.62-6.95,4.2-.27,.27-.44,.43-.46,.42,.22,.12,16.12,9.23,16.12,9.23,0,0,2.8-2.98,5.72-6.1-.61-.27-1.11-.68-1.64-1.21Z"/></g></g><g><polygon class="h" points="39.1 54.57 39.76 44.31 31.08 54.57 22.58 71.62 34.91 61.23 39.1 54.57"/><g><polygon class="l" points="39.76 44.31 48.46 47.91 50.94 67.79 38.95 69.73 34.96 59.27 39.76 44.31"/><path class="j" d="M35.34,58.18c4.71,2.42,15.34,9.9,15.6,9.62l-12.24,13.05s-15.9-9.1-16.12-9.23c.2,.11,11.88-12.95,12.75-13.45Z"/><path class="m" d="M42.78,73.54c-1.4-1.39-2.49-1.72-4.36-.91-.85,.37-3.11,1.47-3.98,.66-.63-.58,.02-1.68,.27-2.33,.33-.88,.7-1.86,.36-2.77-.7-1.89-3.41-1.91-5.08-1.19-2.1,.9-4.39,5.62-6.95,4.2-.27,.27-.44,.43-.46,.42,.22,.12,16.12,9.23,16.12,9.23,0,0,2.8-2.98,5.72-6.1-.61-.27-1.11-.68-1.64-1.21Z"/></g></g><g><polygon class="e" points="66.38 41.55 45.94 34.27 49.41 21.08 62.44 13.71 71.97 29.06 66.38 41.55"/><path class="h" d="M71.97,29.06c-5.62-1.7-22.42-8.26-22.56-7.99l8.58-10.61s15.69,4.79,15.96,4.88c-.43,1.09-1.32,13.18-1.98,13.71Z"/></g><g><polygon class="i" points="67.22 78.03 45.57 79.57 43.46 66.09 52.44 54.12 67.33 64.35 67.22 78.03"/><path class="d" d="M67.33,64.35c-5.83,.7-23.85,1.43-23.87,1.74l3.6-13.16s16.3-1.91,16.58-1.93c.04,1.17,4.08,12.6,3.69,13.35Z"/></g><g><path class="f" d="M39.33,38.66l-2.84-4.46,9.43-6.48s15.21,5.34,20.95,16.09c.79,1.47,1.57,2.95,2.36,4.42,.52,.98,1.05,1.88,1.33,2.96,.02,.07,.04,.14,.02,.21-.02,.1-.11,.18-.18,.25-2.74,2.79-5.87,5.24-8.85,7.79l-22.21-20.79Z"/><path class="m" d="M66.86,43.81c-5.74-10.75-20.95-16.09-20.95-16.09l-4.04,2.78c3.81,.97,8.06,.49,11.58,2.3,1.02,.52,2.17,1.5,2.13,2.75-.04,1.3-1.26,2.38-1.91,3.5,2.43,.24,4.28,.55,5.26,3.12,.51,1.34,.34,2.77,.35,4.18,0,.85-.07,2.07,.6,2.7,.71,.67,1.98,.23,2.87,.36,2.54,.35,4.3,2.24,5.31,4.44-.02-.05,.95-.82,1.02-.88,.68-.57,1.45-1.29,1.33-2.25-.09-.69-.58-1.31-.9-1.92-.89-1.67-1.77-3.33-2.66-4.99Z"/><path class="k" d="M36.49,34.2l1.15,21.89,23.9,3.35s-11.65-21.03-25.05-25.24Z"/></g><g><path class="f" d="M12.35,63.32l-2.66-4.17,8.82-6.06s14.22,5,19.59,15.05c.74,1.38,1.47,2.76,2.21,4.14,.49,.92,.98,1.76,1.24,2.76,.02,.07,.03,.13,.02,.2-.02,.1-.1,.16-.17,.23-2.56,2.61-5.49,4.9-8.28,7.28L12.35,63.32Z"/><path class="m" d="M38.1,68.15c-5.37-10.06-19.59-15.05-19.59-15.05l-3.78,2.6c3.56,.91,7.54,.46,10.83,2.15,.95,.49,2.03,1.41,2,2.57-.03,1.22-1.18,2.23-1.79,3.28,2.28,.23,4.01,.51,4.92,2.92,.48,1.26,.32,2.59,.33,3.91,0,.8-.06,1.94,.56,2.52,.67,.62,1.85,.22,2.68,.34,2.37,.33,4.02,2.1,4.97,4.15-.02-.05,.89-.76,.96-.82,.63-.53,1.36-1.21,1.24-2.1-.08-.64-.54-1.23-.84-1.79-.83-1.56-1.66-3.11-2.49-4.67Z"/><path class="k" d="M9.69,59.16l1.08,20.48,22.35,3.13s-10.9-19.67-23.43-23.61Z"/></g><g><path class="f" d="M76.11,71.25l2.21-4.42-9.4-5.11s-13.62,6.46-17.91,17.02c-.59,1.45-1.17,2.9-1.76,4.35-.39,.96-.79,1.85-.95,2.88-.01,.07-.02,.14,0,.2,.03,.09,.12,.15,.19,.22,2.82,2.33,5.98,4.3,8.99,6.38l18.62-21.51Z"/><path class="m" d="M51.01,78.74c4.28-10.56,17.91-17.02,17.91-17.02l4.03,2.19c-3.44,1.28-7.45,1.24-10.54,3.27-.9,.59-1.87,1.61-1.71,2.77,.16,1.21,1.41,2.09,2.12,3.07-2.24,.47-3.93,.93-4.59,3.42-.34,1.3-.05,2.61,.08,3.92,.08,.79,.26,1.92-.3,2.57-.6,.69-1.82,.41-2.63,.61-2.33,.58-3.78,2.51-4.5,4.65,.02-.05-.97-.67-1.04-.71-.69-.47-1.48-1.06-1.46-1.96,.01-.65,.41-1.28,.65-1.87,.66-1.64,1.32-3.27,1.99-4.91Z"/><path class="h" d="M78.32,66.82l1.08,20.48-21.9,5.46s8.77-20.71,20.82-25.93Z"/></g></svg>