<?xml version="1.0" encoding="UTF-8"?><svg id="a" xmlns="http://www.w3.org/2000/svg" viewBox="0 0 152 133"><defs><style>.b{fill:#93121f;}.c{fill:#ad1a25;}.d{fill:#efd13f;}.e{fill:#ffed94;}.f{fill:#c72127;}.g{fill:#af202d;}.h{fill:#fde34c;}.i{fill:#efd96f;}.j{fill:#84101b;}.k{fill:#fcea7b;}.l{fill:#eac926;}.m{fill:#b42027;}</style></defs><g><polygon class="h" points="72.29 35.66 67.58 26.44 65.28 39.41 66.65 58.19 72.07 43.41 72.29 35.66"/><g><polygon class="k" points="67.58 26.44 77.03 25.5 89.45 41.61 79.98 48.9 71.1 41.68 67.58 26.44"/><path class="b" d="M70.86,40.55c5.36-.1,18.51,1.42,18.59,1.06l-3.96,17.06s-18.59-.47-18.84-.48c.23,0,3.7-16.8,4.21-17.64Z"/><path class="j" d="M85.29,50.42c-1.94-.55-3.06-.33-4.28,1.25-.55,.72-1.96,2.73-3.13,2.44-.85-.21-.85-1.47-.97-2.15-.16-.92-.35-1.95-1.11-2.58-1.59-1.32-3.96-.07-5.05,1.34-1.37,1.76-.93,6.93-3.9,6.9-.09,.36-.16,.58-.19,.57,.25,0,18.84,.48,18.84,.48,0,0,.9-3.9,1.85-7.97-.68,.05-1.32-.07-2.05-.28Z"/></g></g><g><polygon class="k" points="119.54 113.04 97.89 114.58 95.78 101.1 104.76 89.13 119.65 99.36 119.54 113.04"/><path class="h" d="M119.65,99.36c-5.83,.7-23.85,1.43-23.87,1.74l3.6-13.16s16.3-1.91,16.58-1.93c.04,1.17,4.08,12.6,3.69,13.35Z"/></g><g><polygon class="k" points="85.24 109.38 63.6 110.92 61.48 97.44 70.46 85.47 85.35 95.7 85.24 109.38"/><path class="h" d="M85.35,95.7c-5.83,.7-23.85,1.43-23.87,1.74l3.6-13.16s16.3-1.91,16.58-1.93c.04,1.17,4.08,12.6,3.69,13.35Z"/></g><g><path class="c" d="M94.85,46.05l.6-3.31-7.22-1.71s-7.76,6.67-8.53,14.4c-.11,1.06-.21,2.12-.32,3.18-.07,.71-.16,1.36-.06,2.07,0,.05,.01,.09,.04,.13,.04,.06,.11,.08,.17,.11,2.32,1.04,4.79,1.78,7.2,2.62l8.13-17.49Z"/><path class="m" d="M79.69,55.43c.78-7.73,8.53-14.4,8.53-14.4l3.1,.73c-2.03,1.45-4.69,2.14-6.34,4.02-.48,.55-.92,1.39-.6,2.13,.34,.77,1.34,1.13,2,1.65-1.39,.7-2.42,1.31-2.37,3.07,.03,.92,.48,1.73,.82,2.57,.21,.51,.55,1.22,.3,1.75-.26,.56-1.12,.59-1.62,.87-1.43,.79-2.01,2.32-2.07,3.86,0-.04-.77-.27-.83-.29-.55-.19-1.18-.44-1.35-1.04-.12-.43,.02-.91,.06-1.35,.12-1.2,.24-2.39,.36-3.59Z"/><path class="k" d="M95.44,42.75l4.7,13.32-13.43,7.47s1.77-15.22,8.73-20.79Z"/></g><g><polygon class="k" points="104.56 80.53 85.88 81.86 84.06 70.23 91.81 59.9 104.65 68.73 104.56 80.53"/><path class="h" d="M104.65,68.73c-5.03,.6-20.58,1.23-20.59,1.5l3.11-11.35s14.06-1.65,14.3-1.67c.04,1.01,3.52,10.87,3.18,11.52Z"/></g><g><polygon class="k" points="113.9 75.58 115.46 72.13 101.54 72.2 91.7 74.6 106.54 76.83 113.9 75.58"/><g><polygon class="h" points="115.46 72.13 116.87 84.25 111.03 92.57 102.62 85.18 108.02 75.61 115.46 72.13"/><path class="j" d="M109.04,75.18c.95,4.94,1.62,17.39,1.98,17.4l-16.76-.46s-2.54-17.28-2.57-17.52c.03,.21,16.47,.27,17.34,.58Z"/><path class="b" d="M102.68,90.98c.98-.8,2.29-1.62,2.21-1.47,.84-1.5-1.8-1.88-2.15-1.39,.63-.9,1.03-1.95,1.16-3.04-2.02,.3-4.04,.59-6.07,.89-.14,.02-.28,.04-.41,.01-.63-.13-.61-1.1-.15-1.55,.46-.45,1.13-.61,1.61-1.04,.39-.34,.48-.83,.28-1.27-1.73-.28-5.1-.23-5.51-2.31-.47-2.34,1.18-3.77-1.93-5.1,.19,1.48,2.19,17.39,2.54,17.4,.01,0,3.83,.1,7.83,.21-.89,.05-.28-.64,.59-1.35Z"/></g></g><g><path class="j" d="M114.36,87.53l.39-4.93,10.69,.46s8.35,12.55,6.59,23.81c-.24,1.54-.48,3.09-.73,4.63-.16,1.03-.27,2-.67,2.96-.03,.06-.05,.13-.11,.17-.07,.06-.18,.07-.28,.08-3.61,.55-7.33,.61-10.99,.84l-4.89-28.03Z"/><path class="b" d="M132.03,106.87c1.76-11.26-6.59-23.81-6.59-23.81l-4.58-.2c2.3,2.87,5.75,4.9,7.36,8.23,.47,.97,.77,2.34,.05,3.26-.76,.95-2.28,1.07-3.4,1.54,1.68,1.55,2.89,2.82,2.18,5.29-.37,1.29-1.3,2.26-2.09,3.32-.47,.64-1.22,1.51-1.07,2.35,.16,.9,1.35,1.29,1.94,1.88,1.7,1.69,1.95,4.1,1.47,6.3,.01-.05,1.17-.07,1.26-.08,.83-.05,1.81-.15,2.26-.93,.32-.56,.31-1.3,.41-1.94,.28-1.74,.55-3.49,.82-5.23Z"/><path class="l" d="M114.75,82.6l-11.46,17,15.97,15.95s3.13-22.27-4.51-32.95Z"/></g><g><polygon class="h" points="81.88 67.65 74.17 60.51 76.6 73.42 84.57 90.63 84.42 75 81.88 67.65"/><g><polygon class="k" points="74.17 60.51 82.75 56.58 100.18 67.72 93.84 77.61 82.89 73.68 74.17 60.51"/><path class="f" d="M82.27,72.71c5.02-1.82,17.96-4.62,17.91-4.99l2.32,17.3s-17.69,5.54-17.93,5.61c.22-.07-2.48-16.97-2.3-17.93Z"/><path class="m" d="M99.38,77.33c-2.02,.11-3.01,.67-3.59,2.55-.27,.85-.88,3.19-2.09,3.3-.88,.08-1.32-1.11-1.67-1.71-.48-.81-1.02-1.71-1.97-2.06-1.96-.73-3.76,1.21-4.29,2.88-.66,2.1,1.58,6.81-1.23,7.73,.04,.37,.05,.59,.03,.6,.24-.08,17.93-5.61,17.93-5.61,0,0-.53-3.95-1.09-8.08-.62,.27-1.27,.35-2.04,.39Z"/></g></g><g><polygon class="k" points="40.12 47.56 42.25 37.26 32.45 46.02 21.83 61.73 35.14 53.53 40.12 47.56"/><g><polygon class="h" points="42.25 37.26 50.05 42.57 49.51 63.26 37.76 62.94 35.48 51.54 42.25 37.26"/><path class="j" d="M35.99,50.5c4.15,3.36,13.23,12.99,13.52,12.76l-13.61,10.93s-13.88-12.29-14.07-12.46c.17,.15,13.25-10.89,14.16-11.23Z"/><path class="g" d="M40.87,67.54c-1.13-1.68-2.13-2.23-4.04-1.76-.87,.21-3.19,.9-3.9-.09-.52-.71,.27-1.7,.6-2.31,.45-.83,.94-1.76,.75-2.75-.39-2.06-2.98-2.6-4.68-2.18-2.14,.52-5.02,4.88-7.26,2.94-.3,.23-.48,.35-.5,.33,.19,.17,14.07,12.46,14.07,12.46,0,0,3.11-2.5,6.36-5.1-.55-.39-.96-.9-1.39-1.54Z"/></g></g><g><polygon class="h" points="44.64 84.71 36.92 77.56 39.36 90.48 47.32 107.69 47.18 92.05 44.64 84.71"/><g><polygon class="k" points="36.92 77.56 45.5 73.63 62.93 84.78 56.59 94.67 45.65 90.74 36.92 77.56"/><path class="j" d="M45.03,89.76c5.02-1.82,17.96-4.62,17.91-4.99l2.32,17.3s-17.69,5.54-17.93,5.61c.22-.07-2.48-16.97-2.3-17.93Z"/><path class="m" d="M62.13,94.39c-2.02,.11-3.01,.67-3.59,2.55-.27,.85-.88,3.19-2.09,3.3-.88,.08-1.32-1.11-1.67-1.71-.48-.81-1.02-1.71-1.97-2.06-1.96-.73-3.76,1.21-4.29,2.88-.66,2.1,1.58,6.81-1.23,7.73,.04,.37,.05,.59,.03,.6,.24-.08,17.93-5.61,17.93-5.61,0,0-.53-3.95-1.09-8.08-.62,.27-1.27,.35-2.04,.39Z"/></g></g><g><polygon class="h" points="94.78 87.22 95.45 76.97 86.77 87.22 78.26 104.28 90.59 93.89 94.78 87.22"/><g><polygon class="k" points="95.45 76.97 104.15 80.56 106.62 100.45 94.63 102.39 90.65 91.92 95.45 76.97"/><path class="j" d="M91.02,90.83c4.71,2.42,15.34,9.9,15.6,9.62l-12.24,13.05s-15.9-9.1-16.12-9.23c.2,.11,11.88-12.95,12.75-13.45Z"/><path class="m" d="M98.46,106.2c-1.4-1.39-2.49-1.72-4.36-.91-.85,.37-3.11,1.47-3.98,.66-.63-.58,.02-1.68,.27-2.33,.33-.88,.7-1.86,.36-2.77-.7-1.89-3.41-1.91-5.08-1.19-2.1,.9-4.39,5.62-6.95,4.2-.27,.27-.44,.43-.46,.42,.22,.12,16.12,9.23,16.12,9.23,0,0,2.8-2.98,5.72-6.1-.61-.27-1.11-.68-1.64-1.21Z"/></g></g><g><polygon class="h" points="49.14 61.55 49.8 51.29 41.12 61.54 32.62 78.6 44.95 68.21 49.14 61.55"/><g><polygon class="l" points="49.8 51.29 58.5 54.88 60.98 74.77 48.99 76.71 45 66.25 49.8 51.29"/><path class="j" d="M45.37,65.15c4.71,2.42,15.34,9.9,15.6,9.62l-12.24,13.05s-15.9-9.1-16.12-9.23c.2,.11,11.88-12.95,12.75-13.45Z"/><path class="m" d="M52.82,80.52c-1.4-1.39-2.49-1.72-4.36-.91-.85,.37-3.11,1.47-3.98,.66-.63-.58,.02-1.68,.27-2.33,.33-.88,.7-1.86,.36-2.77-.7-1.89-3.41-1.91-5.08-1.19-2.1,.9-4.39,5.62-6.95,4.2-.27,.27-.44,.43-.46,.42,.22,.12,16.12,9.23,16.12,9.23,0,0,2.8-2.98,5.72-6.1-.61-.27-1.11-.68-1.64-1.21Z"/></g></g><g><polygon class="e" points="76.42 48.52 55.97 41.25 59.45 28.05 72.48 20.69 82.01 36.04 76.42 48.52"/><path class="h" d="M82.01,36.04c-5.62-1.7-22.42-8.26-22.56-7.99l8.58-10.61s15.69,4.79,15.96,4.88c-.43,1.09-1.32,13.18-1.98,13.71Z"/></g><g><polygon class="i" points="77.26 85 55.61 86.55 53.5 73.07 62.48 61.09 77.37 71.33 77.26 85"/><path class="d" d="M77.37,71.33c-5.83,.7-23.85,1.43-23.87,1.74l3.6-13.16s16.3-1.91,16.58-1.93c.04,1.17,4.08,12.6,3.69,13.35Z"/></g><g><path class="f" d="M49.37,45.64l-2.84-4.46,9.43-6.48s15.21,5.34,20.95,16.09c.79,1.47,1.57,2.95,2.36,4.42,.52,.98,1.05,1.88,1.33,2.96,.02,.07,.04,.14,.02,.21-.02,.1-.11,.18-.18,.25-2.74,2.79-5.87,5.24-8.85,7.79l-22.21-20.79Z"/><path class="m" d="M76.9,50.79c-5.74-10.75-20.95-16.09-20.95-16.09l-4.04,2.78c3.81,.97,8.06,.49,11.58,2.3,1.02,.52,2.17,1.5,2.13,2.75-.04,1.3-1.26,2.38-1.91,3.5,2.43,.24,4.28,.55,5.26,3.12,.51,1.34,.34,2.77,.35,4.18,0,.85-.07,2.07,.6,2.7,.71,.67,1.98,.23,2.87,.36,2.54,.35,4.3,2.24,5.31,4.44-.02-.05,.95-.82,1.02-.88,.68-.57,1.45-1.29,1.33-2.25-.09-.69-.58-1.31-.9-1.92-.89-1.67-1.77-3.33-2.66-4.99Z"/><path class="k" d="M46.53,41.18l1.15,21.89,23.9,3.35s-11.65-21.03-25.05-25.24Z"/></g><g><path class="f" d="M22.38,70.3l-2.66-4.17,8.82-6.06s14.22,5,19.59,15.05c.74,1.38,1.47,2.76,2.21,4.14,.49,.92,.98,1.76,1.24,2.76,.02,.07,.03,.13,.02,.2-.02,.1-.1,.16-.17,.23-2.56,2.61-5.49,4.9-8.28,7.28l-20.77-19.44Z"/><path class="m" d="M48.14,75.12c-5.37-10.06-19.59-15.05-19.59-15.05l-3.78,2.6c3.56,.91,7.54,.46,10.83,2.15,.95,.49,2.03,1.41,2,2.57-.03,1.22-1.18,2.23-1.79,3.28,2.28,.23,4.01,.51,4.92,2.92,.48,1.26,.32,2.59,.33,3.91,0,.8-.06,1.94,.56,2.52,.67,.62,1.85,.22,2.68,.34,2.37,.33,4.02,2.1,4.97,4.15-.02-.05,.89-.76,.96-.82,.63-.53,1.36-1.21,1.24-2.1-.08-.64-.54-1.23-.84-1.79-.83-1.56-1.66-3.11-2.49-4.67Z"/><path class="k" d="M19.73,66.13l1.08,20.48,22.35,3.13s-10.9-19.67-23.43-23.61Z"/></g><g><path class="f" d="M86.15,78.22l2.21-4.42-9.4-5.11s-13.62,6.46-17.91,17.02c-.59,1.45-1.17,2.9-1.76,4.35-.39,.96-.79,1.85-.95,2.88-.01,.07-.02,.14,0,.2,.03,.09,.12,.15,.19,.22,2.82,2.33,5.98,4.3,8.99,6.38l18.62-21.51Z"/><path class="m" d="M61.05,85.72c4.28-10.56,17.91-17.02,17.91-17.02l4.03,2.19c-3.44,1.28-7.45,1.24-10.54,3.27-.9,.59-1.87,1.61-1.71,2.77,.16,1.21,1.41,2.09,2.12,3.07-2.24,.47-3.93,.93-4.59,3.42-.34,1.3-.05,2.61,.08,3.92,.08,.79,.26,1.92-.3,2.57-.6,.69-1.82,.41-2.63,.61-2.33,.58-3.78,2.51-4.5,4.65,.02-.05-.97-.67-1.04-.71-.69-.47-1.48-1.06-1.46-1.96,.01-.65,.41-1.28,.65-1.87,.66-1.64,1.32-3.27,1.99-4.91Z"/><path class="h" d="M88.36,73.8l1.08,20.48-21.9,5.46s8.77-20.71,20.82-25.93Z"/></g></svg>