<?xml version="1.0" encoding="UTF-8"?><svg id="a" xmlns="http://www.w3.org/2000/svg" viewBox="0 0 152 133"><defs><style>.b{fill:#99c83c;}.c{fill:#fff;opacity:.3;}.d{fill:#9aba24;}.e{opacity:.05;}.f{fill:#bfd65f;}.g{fill:#a5c62e;}.h{fill:#aed148;}.i{fill:#b9d43c;}.j{fill:#a8c931;}</style></defs><g><ellipse class="d" cx="78.98" cy="39.26" rx="19.01" ry="13.99" transform="translate(17.49 102.49) rotate(-72.23)"/><path class="e" d="M92.14,36.36c-2.92,10.08-11.35,16.66-18.82,14.69-4.52-1.19-7.64-5.24-8.78-10.48-.7,8.18,2.9,15.3,9.15,16.95,7.48,1.97,15.91-4.61,18.83-14.69,1.15-3.99,1.26-7.92,.52-11.35-.14,1.6-.42,3.23-.9,4.88Z"/><path class="b" d="M83.85,22.41c1.55,.41,2.67,1.23,2.49,1.84s-1.58,.77-3.13,.36-2.67-1.23-2.49-1.84,1.58-.77,3.13-.36Z"/><path class="i" d="M80.72,22.77c-.07,.24,.07,.52,.36,.8,0-.05,0-.1,0-.14,.18-.61,1.58-.77,3.13-.36,.93,.25,1.7,.64,2.13,1.05-.01-.59-1.06-1.32-2.5-1.7-1.55-.41-2.95-.25-3.13,.36Z"/><path class="c" d="M68.17,33.13c-.11,.41-.2,.82-.26,1.24-.15,.92,.05,3.54,1.59,3.33,.38-.05,.65-.38,.87-.67,2.53-3.37,4.89-6.89,7.79-10,.47-.51,.98-1.1,.91-1.78-.07-.65-.68-1.15-1.34-1.3-.66-.15-1.36,0-2,.22-2.87,.99-5.1,3.4-6.43,6.01-.48,.94-.86,1.93-1.13,2.95Z"/></g><g><ellipse class="h" cx="57.86" cy="31.17" rx="14.05" ry="18.95" transform="translate(-2.09 4.23) rotate(-4.11)"/><path class="e" d="M69.32,24.34c.68,10.44-5.05,19.28-12.8,19.73-4.68,.28-9.01-2.58-11.87-7.18,2.13,7.96,7.95,13.57,14.43,13.19,7.74-.46,13.47-9.29,12.8-19.73-.27-4.13-1.51-7.88-3.38-10.89,.42,1.55,.71,3.19,.82,4.89Z"/><path class="b" d="M56.73,13.72c1.61-.09,2.94,.34,2.99,.97s-1.23,1.22-2.84,1.31-2.94-.34-2.99-.97,1.23-1.22,2.84-1.31Z"/><path class="i" d="M53.89,15.03c.02,.25,.25,.47,.62,.64-.02-.05-.04-.09-.04-.14-.04-.63,1.23-1.22,2.84-1.31,.96-.06,1.82,.08,2.37,.33-.21-.55-1.45-.92-2.94-.83-1.61,.09-2.88,.68-2.84,1.31Z"/><path class="c" d="M45.55,28.72c.04,.42,.09,.84,.17,1.25,.17,.91,1.26,3.33,2.64,2.66,.34-.17,.48-.56,.59-.91,1.24-3.97,2.27-8.04,3.96-11.87,.28-.63,.55-1.34,.26-1.96-.28-.59-1.03-.88-1.71-.81-.68,.07-1.28,.42-1.81,.83-2.38,1.83-3.66,4.8-4.03,7.68-.13,1.04-.16,2.09-.06,3.14Z"/></g><g><ellipse class="h" cx="37.42" cy="47.11" rx="13.87" ry="19.19" transform="translate(-19.74 28.34) rotate(-33.36)"/><path class="e" d="M44.56,36.16c5.43,9.09,4.36,19.43-2.38,23.09-4.07,2.21-9.29,1.47-13.97-1.46,5.58,6.25,13.4,8.84,19.04,5.77,6.74-3.66,7.81-14,2.38-23.09-2.15-3.6-4.99-6.44-8.06-8.36,1.09,1.22,2.1,2.57,2.99,4.05Z"/><path class="b" d="M28.35,31.92c1.4-.76,2.8-.93,3.13-.39s-.54,1.61-1.94,2.37-2.8,.93-3.13,.39,.54-1.61,1.94-2.37Z"/><path class="i" d="M26.41,34.29c.13,.22,.44,.32,.85,.31-.04-.03-.08-.06-.1-.1-.33-.55,.54-1.61,1.94-2.37,.84-.46,1.67-.7,2.28-.7-.45-.41-1.73-.21-3.02,.49-1.4,.76-2.27,1.82-1.94,2.37Z"/><path class="c" d="M25.24,50.09c.23,.36,.47,.71,.73,1.05,.57,.75,2.67,2.46,3.6,1.28,.23-.29,.18-.7,.11-1.07-.72-4.09-1.67-8.17-1.92-12.32-.04-.68-.13-1.44-.68-1.87-.53-.41-1.33-.36-1.91-.01-.58,.34-.96,.92-1.25,1.51-1.29,2.64-1.07,5.85-.08,8.59,.36,.99,.82,1.94,1.39,2.84Z"/></g><g><ellipse class="f" cx="40.64" cy="71.03" rx="13.76" ry="19.34" transform="translate(-37.78 47.65) rotate(-43.62)"/><path class="e" d="M45.7,59.08c6.99,8.06,7.8,18.42,1.82,23.14-3.61,2.85-8.88,2.97-14.03,.86,6.63,5.24,14.8,6.5,19.8,2.56,5.98-4.72,5.16-15.08-1.82-23.14-2.76-3.19-6.08-5.53-9.45-6.91,1.29,1.02,2.54,2.18,3.68,3.5Z"/><path class="b" d="M28.97,57.56c1.24-.98,2.59-1.38,3.01-.89s-.24,1.67-1.49,2.65-2.59,1.38-3.01,.89,.24-1.67,1.49-2.65Z"/><path class="i" d="M27.49,60.22c.17,.19,.49,.24,.89,.17-.04-.03-.09-.05-.12-.09-.42-.49,.24-1.67,1.49-2.65,.74-.59,1.52-.96,2.12-1.07-.51-.33-1.74,.07-2.89,.98-1.24,.98-1.91,2.17-1.49,2.65Z"/><path class="c" d="M29.18,75.97c.29,.32,.59,.62,.91,.92,.7,.64,3.07,1.99,3.77,.67,.17-.33,.05-.72-.08-1.07-1.44-3.91-3.12-7.77-4.12-11.82-.16-.66-.38-1.4-1-1.73-.59-.32-1.38-.13-1.88,.3-.51,.43-.78,1.06-.96,1.69-.79,2.82,0,5.94,1.48,8.47,.53,.91,1.16,1.78,1.88,2.57Z"/></g><g><ellipse class="g" cx="67.35" cy="41.91" rx="13.76" ry="19.34" transform="translate(-10.3 58.14) rotate(-43.7)"/><path class="e" d="M72.39,29.95c7,8.05,7.83,18.41,1.86,23.14-3.61,2.86-8.88,2.98-14.03,.87,6.64,5.23,14.81,6.49,19.8,2.53,5.97-4.73,5.14-15.09-1.86-23.14-2.77-3.19-6.09-5.52-9.46-6.9,1.3,1.02,2.54,2.18,3.68,3.49Z"/><path class="b" d="M55.66,28.46c1.24-.98,2.59-1.38,3.01-.9s-.24,1.67-1.48,2.66-2.59,1.38-3.01,.9,.24-1.67,1.48-2.66Z"/><path class="i" d="M54.18,31.11c.17,.19,.49,.24,.89,.17-.04-.03-.09-.05-.12-.09-.42-.49,.24-1.67,1.48-2.66,.74-.59,1.52-.96,2.12-1.07-.51-.33-1.74,.08-2.89,.98-1.24,.98-1.9,2.17-1.48,2.66Z"/><path class="c" d="M55.9,46.87c.29,.32,.59,.62,.91,.92,.7,.64,3.07,1.98,3.77,.66,.17-.33,.05-.72-.08-1.07-1.45-3.91-3.13-7.77-4.14-11.81-.16-.66-.39-1.4-1.01-1.73-.59-.32-1.38-.13-1.88,.3-.51,.43-.78,1.06-.95,1.69-.79,2.82,0,5.94,1.49,8.47,.53,.91,1.17,1.78,1.89,2.57Z"/></g><g><ellipse class="d" cx="74.97" cy="64.44" rx="22.45" ry="16.95" transform="translate(-7.56 10.02) rotate(-7.28)"/><path class="e" d="M66.37,50.96c12.32-1.35,23.03,5.11,23.93,14.43,.54,5.63-2.65,11.01-7.96,14.69,9.31-2.98,15.69-10.29,14.94-18.09-.89-9.32-11.61-15.78-23.93-14.43-4.87,.53-9.26,2.22-12.73,4.63,1.82-.58,3.74-1.01,5.75-1.23Z"/><path class="b" d="M54.38,66.7c-.19-1.94,.27-3.57,1.01-3.65s1.49,1.42,1.68,3.36-.27,3.57-1.01,3.65-1.49-1.42-1.68-3.36Z"/><path class="i" d="M56.06,70.06c.3-.03,.55-.32,.73-.78-.05,.02-.1,.05-.16,.06-.74,.08-1.49-1.42-1.68-3.36-.11-1.16,0-2.2,.28-2.88-.64,.29-1.02,1.8-.85,3.59,.19,1.94,.94,3.44,1.68,3.36Z"/><path class="c" d="M72.64,79.42c.5-.07,.99-.16,1.48-.27,1.07-.25,3.88-1.69,3.02-3.32-.21-.41-.68-.56-1.1-.67-4.76-1.3-9.61-2.33-14.22-4.17-.75-.3-1.62-.6-2.33-.21-.69,.37-.99,1.29-.89,2.1,.11,.81,.56,1.53,1.06,2.15,2.28,2.78,5.85,4.18,9.27,4.47,1.23,.11,2.48,.08,3.71-.08Z"/></g><g><ellipse class="j" cx="62.68" cy="88.42" rx="19.68" ry="13.52" transform="translate(-30.47 33.02) rotate(-23.93)"/><path class="e" d="M51.57,81.09c9.77-4.74,20.55-3.23,24.06,3.37,2.12,3.99,1.09,8.92-2.2,13.25,6.81-5.02,9.89-12.35,6.95-17.87-3.51-6.6-14.29-8.11-24.06-3.37-3.87,1.87-6.98,4.45-9.14,7.28,1.33-.98,2.79-1.88,4.38-2.66Z"/><path class="b" d="M46.35,96.34c-.73-1.37-.84-2.71-.26-3s1.66,.59,2.39,1.97,.84,2.71,.26,3-1.66-.59-2.39-1.97Z"/><path class="i" d="M48.74,98.3c.24-.11,.35-.4,.37-.79-.04,.03-.07,.07-.11,.09-.59,.29-1.66-.59-2.39-1.97-.44-.82-.65-1.63-.63-2.21-.45,.41-.31,1.64,.37,2.91,.73,1.37,1.8,2.25,2.39,1.97Z"/><path class="c" d="M65.22,100.17c.39-.2,.77-.42,1.14-.65,.81-.51,2.7-2.42,1.51-3.37-.3-.23-.73-.2-1.11-.16-4.31,.49-8.63,1.2-12.99,1.25-.71,0-1.51,.05-1.99,.56-.46,.48-.44,1.25-.11,1.82,.33,.57,.91,.96,1.52,1.26,2.71,1.36,6.07,1.3,8.99,.48,1.05-.3,2.07-.69,3.04-1.19Z"/></g><g><ellipse class="h" cx="101.66" cy="74.83" rx="13.43" ry="19.82" transform="translate(9.88 161.51) rotate(-79.72)"/><path class="e" d="M97.77,62.49c10.73,2.12,18.16,9.72,16.59,16.97-.95,4.38-4.98,7.62-10.39,9.04,8.6,.13,15.81-3.75,17.13-9.82,1.57-7.25-5.85-14.85-16.59-16.97-4.25-.84-8.37-.68-11.9,.24,1.68,.03,3.41,.19,5.16,.54Z"/><path class="b" d="M83.72,71.29c.33-1.51,1.12-2.62,1.76-2.49s.91,1.45,.58,2.96-1.12,2.62-1.76,2.49-.91-1.45-.58-2.96Z"/><path class="i" d="M84.3,74.24c.26,.05,.54-.1,.81-.4-.05,0-.1,.01-.15,0-.65-.13-.91-1.45-.58-2.96,.2-.9,.56-1.66,.96-2.1-.61,.05-1.31,1.1-1.61,2.49-.33,1.51-.07,2.83,.58,2.96Z"/><path class="c" d="M95.95,85.53c.43,.08,.87,.13,1.31,.17,.97,.08,3.7-.28,3.38-1.73-.08-.36-.44-.59-.76-.79-3.69-2.19-7.53-4.21-10.96-6.76-.56-.42-1.21-.86-1.92-.75-.67,.1-1.16,.72-1.27,1.36-.11,.64,.09,1.29,.36,1.89,1.23,2.67,3.89,4.64,6.7,5.73,1.01,.4,2.07,.69,3.15,.88Z"/></g><g><ellipse class="d" cx="83.34" cy="98.2" rx="18.95" ry="14.05" transform="translate(-20.69 174.14) rotate(-85.81)"/><path class="e" d="M95.6,92.79c-.69,10.44-7.53,18.53-15.27,18.06-4.68-.28-8.61-3.63-10.84-8.54,1.08,8.15,6.12,14.41,12.6,14.8,7.74,.47,14.58-7.62,15.27-18.06,.27-4.13-.47-8-1.93-11.21,.21,1.59,.28,3.25,.17,4.95Z"/><path class="b" d="M84.49,80.75c1.61,.1,2.88,.69,2.84,1.31s-1.38,1.06-2.99,.96-2.88-.69-2.84-1.31,1.38-1.06,2.99-.96Z"/><path class="i" d="M81.51,81.72c-.02,.25,.18,.5,.53,.71-.01-.05-.03-.09-.03-.14,.04-.63,1.38-1.06,2.99-.96,.96,.06,1.8,.29,2.31,.61-.14-.57-1.32-1.08-2.81-1.17-1.61-.1-2.95,.33-2.99,.96Z"/><path class="c" d="M71.44,94.31c-.02,.42-.02,.84,0,1.26,.05,.93,.81,3.45,2.27,2.95,.36-.13,.55-.49,.71-.83,1.75-3.79,3.3-7.7,5.47-11.31,.36-.59,.72-1.27,.51-1.92-.2-.62-.91-1-1.59-1.01-.68-.02-1.33,.26-1.91,.61-2.6,1.54-4.26,4.33-5,7.14-.27,1.01-.43,2.06-.47,3.1Z"/></g><g><ellipse class="h" cx="110.3" cy="102.25" rx="16.03" ry="21.98" transform="translate(-38.15 126.44) rotate(-52.08)"/><path class="e" d="M110.94,86.43c10.14,6.61,14.87,18.28,10.57,26.08-2.6,4.71-7.91,6.91-13.94,6.47,8.71,3.47,17.5,1.75,21.1-4.77,4.3-7.8-.43-19.48-10.57-26.08-4.01-2.61-8.26-4.02-12.21-4.31,1.7,.68,3.4,1.53,5.06,2.61Z"/><path class="b" d="M93.36,91.21c.89-1.62,2.11-2.61,2.72-2.21s.38,2.03-.51,3.65-2.11,2.61-2.72,2.21-.38-2.03,.51-3.65Z"/><path class="i" d="M92.85,94.87c.25,.16,.59,.09,.97-.15-.05-.01-.11-.02-.15-.05-.61-.4-.38-2.03,.51-3.65,.53-.97,1.19-1.71,1.75-2.06-.64-.18-1.74,.77-2.57,2.26-.89,1.62-1.12,3.25-.51,3.65Z"/><path class="c" d="M100.51,112.45c.41,.26,.84,.49,1.27,.71,.95,.47,3.87,1.1,4.09-.7,.05-.45-.22-.85-.48-1.21-2.94-3.96-6.1-7.78-8.64-12.07-.42-.7-.92-1.47-1.67-1.61-.72-.14-1.45,.38-1.8,1.08-.35,.7-.39,1.53-.34,2.33,.25,3.57,2.24,6.88,4.69,9.23,.89,.85,1.85,1.61,2.88,2.24Z"/></g><g><ellipse class="h" cx="52.22" cy="54.85" rx="13.92" ry="19.11" transform="translate(-19.44 30.33) rotate(-27.52)"/><path class="e" d="M60.41,44.6c4.5,9.54,2.41,19.74-4.67,22.78-4.28,1.84-9.39,.62-13.76-2.72,4.94,6.72,12.46,10.01,18.38,7.47,7.08-3.04,9.16-13.23,4.67-22.78-1.78-3.77-4.33-6.87-7.19-9.05,.96,1.31,1.84,2.74,2.57,4.3Z"/><path class="b" d="M44.7,38.91c1.47-.63,2.88-.68,3.15-.1s-.7,1.55-2.17,2.18-2.88,.68-3.15,.1,.7-1.55,2.17-2.18Z"/><path class="i" d="M42.53,41.09c.11,.23,.41,.36,.81,.39-.03-.04-.07-.07-.09-.11-.27-.57,.7-1.55,2.17-2.18,.88-.38,1.73-.54,2.34-.49-.4-.44-1.7-.37-3.06,.21-1.47,.63-2.44,1.61-2.17,2.18Z"/><path class="c" d="M39.79,56.72c.19,.38,.4,.75,.62,1.11,.5,.8,2.41,2.69,3.45,1.6,.26-.27,.25-.68,.22-1.05-.31-4.14-.85-8.28-.69-12.44,.03-.68,.02-1.44-.49-1.92-.48-.46-1.29-.48-1.9-.19-.61,.29-1.05,.83-1.39,1.39-1.55,2.52-1.65,5.73-.93,8.54,.26,1.02,.63,2.01,1.1,2.95Z"/></g></svg>