<?xml version="1.0" encoding="UTF-8"?><svg id="a" xmlns="http://www.w3.org/2000/svg" viewBox="0 0 256 200"><defs><style>.b{fill:#d85678;}.c{fill:#e2ada6;}.d{fill:#f17a90;}.e{fill:#e5b3ac;}.f{fill:#efc4bd;}.g{fill:#f2c9c2;}.h{fill:#fde6e1;}.i{fill:#f4dfdc;}.j{fill:#e5b5ae;}.k{fill:#fcedeb;}.l{fill:#fff4f3;}.m{fill:#fdf1ef;}.n{fill:#f4dbd7;}.o{fill:#f4d7d3;}.p{fill:#efd8d5;}.q{fill:#f6d8d3;}</style></defs><g><path class="b" d="M117.92,8.45s1.44-1.09,2.37,2.83c1.65,6.98-3.62,16.56-12.89,22.8-9.27,6.24-32.34,9.44-38.99-13.13l.52-.48,8.25-2.19c14.58,7.08,26.72,6.14,34.67-8.61,4.1,1.23,5.31,.18,6.08-1.22Z"/><path class="q" d="M118.07,8.61c1.87,.58,5.71,10.62-7.54,22.27-13.24,11.65,1.36-11.95,1.36-11.95l6.18-10.32Z"/><path class="i" d="M111.87,8.55l1.03-.46,2.05,1.12s2.17,.11,3.12-.6c0,0,.8,1.49,.72,3.48-.07,1.99-4.8,1.11-4.8,1.11l-.87-1.61-1.14-1.76-.12-1.28Z"/><path class="c" d="M78.48,17.86s8.2,4.3,17.79,1.74c8.14-2.17,12.54-5.13,15.6-11.05l.12,1.28,1.99,6.69-10.74,10.91-10.06,3.5h-7.31l-5.25-3.35-2.88-3.67,.74-6.05Z"/><path class="f" d="M118.79,12.09c-.99,.44-4.07-.67-4.07-.67l-1.61-1.73-1.12,.14s.64,6.75-7.31,12.39c-8.37,5.94-22.84,6.12-26.19-4.36l-9.56,2.61s4.9,22.83,30.98,15.86c19.67-5.25,18.89-24.24,18.89-24.24Z"/></g><g><path class="d" d="M137,7.82s1.16-1.39,2.95,2.22c3.19,6.43,.23,16.94-7.38,25.13-7.62,8.18-29.36,16.53-40.95-3.94l.39-.58,7.54-4c15.81,3.59,27.41-.09,31.81-16.25,4.27,.27,5.21-1.03,5.64-2.57Z"/><path class="q" d="M137.18,7.95c1.96,.14,7.97,9.05-2.29,23.4-10.26,14.35-1.39-11.95-1.39-11.95l3.68-11.45Z"/><path class="m" d="M131.13,9.29l.9-.68,2.25,.62s2.14-.39,2.9-1.29c0,0,1.12,1.27,1.49,3.22,.38,1.95-4.42,2.17-4.42,2.17l-1.21-1.37-1.51-1.45-.41-1.22Z"/><path class="g" d="M100.73,25.94s8.96,2.33,17.72-2.34c7.43-3.96,11.05-7.84,12.69-14.3l.41,1.22,3.46,6.06-7.99,13.07-9,5.69-7.12,1.67-5.88-2.08-3.64-2.92-.65-6.06Z"/><path class="h" d="M138.68,11.17c-.87,.65-4.12,.27-4.12,.27l-1.96-1.32-1.06,.39s2.15,6.43-4.31,13.73c-6.81,7.68-20.85,11.14-26.5,1.69l-8.72,4.71s9.95,21.12,33.77,8.42c17.97-9.58,12.9-27.89,12.9-27.89Z"/></g><g><path class="b" d="M139.04,86.75s1.7-.61,1.41,3.41c-.52,7.16-8.41,14.71-19.13,17.88-10.72,3.17-33.69-.69-33.26-24.21l.64-.3,8.52,.38c11.79,11.13,23.65,13.86,35.65,2.18,3.54,2.41,5.01,1.76,6.17,.66Z"/><path class="q" d="M139.13,86.95c1.62,1.11,2.26,11.84-13.86,18.99-16.13,7.14,4.88-11,4.88-11l8.99-7.99Z"/><path class="m" d="M133.24,85.04l1.12-.13,1.62,1.68s2.04,.75,3.16,.36c0,0,.31,1.66-.35,3.54-.67,1.88-4.91-.38-4.91-.38l-.34-1.8-.56-2.02,.27-1.26Z"/><path class="c" d="M98.59,83.91s6.53,6.56,16.45,6.99c8.41,.37,13.5-1.14,18.2-5.87l-.27,1.26-.1,6.98-13.52,7.19-10.64,.32-6.98-2.18-4-4.78-1.65-4.37,2.52-5.55Z"/><path class="f" d="M138.78,90.49c-1.08,.12-3.68-1.86-3.68-1.86l-1.02-2.13-1.12-.2s-1.41,6.63-10.69,9.63c-9.77,3.16-23.62-1.01-23.68-12.01l-9.9-.38s-2.17,23.25,24.8,24.42c20.34,.88,25.29-17.46,25.29-17.46Z"/></g><g><path class="b" d="M133.75,36.92s1.8,.07,.05,3.69c-3.13,6.46-13.27,10.54-24.4,9.52-11.13-1.02-31.03-13.12-21.92-34.81l.7-.05,7.78,3.52c6.82,14.7,16.83,21.64,32.31,15.24,2.4,3.55,4,3.49,5.48,2.9Z"/><path class="q" d="M133.77,37.14c1.09,1.63-2.29,11.84-19.91,12.5-17.62,.66,8.61-8.4,8.61-8.4l11.31-4.09Z"/><path class="i" d="M129,33.17l1.08,.3,.88,2.16s1.61,1.46,2.8,1.51c0,0-.32,1.66-1.64,3.15-1.31,1.5-4.42-2.17-4.42-2.17l.35-1.8,.23-2.09,.72-1.07Z"/><path class="c" d="M97.24,19.29s3.64,8.51,12.68,12.59c7.68,3.46,12.96,3.95,19.08,1.3l-.72,1.07-2.68,6.44-15.22,1.67-10-3.65-5.67-4.61-1.95-5.92,.09-4.67,4.4-4.22Z"/><path class="f" d="M132.13,40.29c-1.05-.29-2.73-3.09-2.73-3.09l-.15-2.36-.96-.6s-3.77,5.63-13.5,4.98c-10.24-.69-21.56-9.69-17.54-19.93l-9.05-4.02s-10.63,20.79,13.98,31.87c18.57,8.36,29.96-6.85,29.96-6.85Z"/></g><g><path class="b" d="M109.89,15.22s1.44-1.09,2.37,2.83c1.65,6.98-3.62,16.56-12.89,22.8-9.27,6.24-32.34,9.44-38.99-13.13l.52-.48,8.25-2.19c14.58,7.08,26.72,6.14,34.67-8.61,4.1,1.23,5.31,.18,6.08-1.22Z"/><path class="q" d="M110.04,15.38c1.87,.58,5.71,10.62-7.54,22.27-13.24,11.65,1.36-11.95,1.36-11.95l6.18-10.32Z"/><path class="m" d="M103.85,15.32l1.03-.46,2.05,1.12s2.17,.11,3.12-.6c0,0,.8,1.49,.72,3.48-.07,1.99-4.8,1.11-4.8,1.11l-.87-1.61-1.14-1.76-.12-1.28Z"/><path class="g" d="M70.46,24.63s8.2,4.3,17.79,1.74c8.14-2.17,12.54-5.13,15.6-11.05l.12,1.28,1.99,6.69-10.74,10.91-10.06,3.5h-7.31l-5.25-3.35-2.88-3.67,.74-6.05Z"/><path class="h" d="M110.77,18.86c-.99,.44-4.07-.67-4.07-.67l-1.61-1.73-1.12,.14s.64,6.75-7.31,12.39c-8.37,5.94-22.84,6.12-26.19-4.36l-9.56,2.61s4.9,22.83,30.98,15.86c19.67-5.25,18.89-24.24,18.89-24.24Z"/></g><g><path class="b" d="M123.47,61.14s1.78,.3-.44,3.66c-3.95,5.99-14.53,8.72-25.43,6.24-10.9-2.47-29.05-17.07-17.17-37.38l.7,.05,7.25,4.5c4.84,15.47,13.85,23.66,30.03,19.34,1.91,3.83,3.51,3.98,5.06,3.59Z"/><path class="q" d="M123.46,61.36c.87,1.76-3.82,11.44-21.38,9.78-17.56-1.66,9.63-7.2,9.63-7.2l11.75-2.58Z"/><path class="m" d="M119.25,56.81l1.04,.44,.59,2.26s1.41,1.66,2.58,1.86c0,0-.54,1.6-2.04,2.91-1.5,1.31-4.1-2.73-4.1-2.73l.58-1.73,.5-2.04,.85-.96Z"/><path class="e" d="M89.58,38.88s2.49,8.92,10.92,14.14c7.16,4.44,12.33,5.61,18.74,3.78l-.85,.96-3.5,6.04-15.31-.34-9.44-4.92-5.02-5.31-1.16-6.13,.7-4.61,4.91-3.61Z"/><path class="p" d="M121.42,64.27c-1-.42-2.3-3.42-2.3-3.42l.16-2.36-.88-.72s-4.48,5.09-14.03,3.17c-10.07-2.02-20.11-12.43-14.78-22.06l-8.45-5.17s-13.26,19.22,9.69,33.43c17.31,10.72,30.6-2.86,30.6-2.86Z"/></g><g><path class="d" d="M138.98,44.1s1.8-.15,.48,3.66c-2.34,6.78-11.92,12.04-23.09,12.35-11.17,.3-32.37-9.34-25.9-31.97l.69-.13,8.14,2.57c8.52,13.79,19.28,19.49,33.89,11.29,2.8,3.24,4.39,2.99,5.79,2.22Z"/><path class="q" d="M139.02,44.32c1.27,1.49-.87,12.03-18.29,14.77-17.42,2.75,7.55-9.37,7.55-9.37l10.74-5.41Z"/><path class="m" d="M133.82,40.95l1.11,.17,1.13,2.04s1.78,1.25,2.96,1.16c0,0-.12,1.69-1.25,3.33-1.13,1.64-4.65-1.63-4.65-1.63l.13-1.82-.02-2.1,.59-1.15Z"/><path class="e" d="M100.64,30.93s4.62,8.02,14.09,10.99c8.03,2.53,13.34,2.38,19.1-.98l-.59,1.15-1.9,6.72-14.92,3.46-10.37-2.43-6.18-3.91-2.64-5.65-.47-4.64,3.87-4.71Z"/><path class="l" d="M137.77,47.65c-1.07-.16-3.08-2.75-3.08-2.75l-.43-2.32-1.03-.48s-3.07,6.04-12.81,6.55c-10.25,.53-22.56-7.06-19.79-17.71l-9.47-2.92s-8.09,21.9,17.67,29.98c19.43,6.1,28.94-10.35,28.94-10.35Z"/></g><g><path class="d" d="M176.27,60.64s1.8,.13-.08,3.69c-3.35,6.35-13.62,10.09-24.7,8.69-11.09-1.4-30.57-14.17-20.72-35.54l.7-.02,7.65,3.78c6.32,14.93,16.09,22.2,31.77,16.32,2.27,3.62,3.88,3.62,5.38,3.08Z"/><path class="q" d="M176.28,60.86c1.03,1.67-2.69,11.75-20.33,11.81-17.64,.06,8.89-8.11,8.89-8.11l11.44-3.71Z"/><path class="m" d="M171.65,56.73l1.07,.33,.81,2.19s1.56,1.51,2.75,1.6c0,0-.38,1.65-1.74,3.1-1.36,1.45-4.34-2.32-4.34-2.32l.41-1.78,.3-2.08,.75-1.04Z"/><path class="g" d="M140.38,41.78s3.35,8.63,12.25,13.01c7.56,3.72,12.82,4.39,19.02,1.94l-.75,1.04-2.9,6.35-15.27,1.15-9.87-3.98-5.51-4.8-1.75-5.98,.25-4.66,4.54-4.07Z"/><path class="h" d="M174.54,63.95c-1.04-.32-2.62-3.18-2.62-3.18l-.07-2.36-.94-.63s-3.96,5.5-13.66,4.52c-10.21-1.04-21.22-10.42-16.86-20.52l-8.91-4.33s-11.33,20.42,12.89,32.33c18.27,8.99,30.18-5.82,30.18-5.82Z"/></g><g><path class="b" d="M126.31,87.12s1.64,.75-1.37,3.43c-5.36,4.77-16.29,4.68-26.18-.51-9.9-5.19-23.68-23.97-6.97-40.54l.67,.23,5.84,6.22c.7,16.2,7.3,26.43,24.05,26.41,.86,4.19,2.36,4.75,3.96,4.77Z"/><path class="q" d="M126.24,87.33c.38,1.92-6.63,10.07-23.18,3.95-16.54-6.12,11.16-4.48,11.16-4.48l12.01,.53Z"/><path class="m" d="M123.35,81.85l.89,.69v2.33s.93,1.96,2,2.46c0,0-.93,1.41-2.72,2.29-1.79,.88-3.26-3.69-3.26-3.69l1.01-1.53,1-1.84,1.07-.71Z"/><path class="g" d="M99.29,56.9s.11,9.26,6.92,16.48c5.78,6.13,10.47,8.6,17.14,8.48l-1.07,.71-4.94,4.93-14.71-4.27-7.85-7.19-3.48-6.43,.46-6.22,1.86-4.28,5.68-2.22Z"/><path class="h" d="M123.52,89.62c-.86-.67-1.34-3.9-1.34-3.9l.76-2.24-.66-.92s-5.64,3.77-14.38-.55c-9.21-4.55-16.23-17.19-8.61-25.12l-6.83-7.17s-17.76,15.16,.76,34.79c13.97,14.81,30.31,5.1,30.31,5.1Z"/></g><g><path class="b" d="M155.79,93.29s1.64,.75-1.37,3.43c-5.36,4.77-16.29,4.68-26.18-.51-9.9-5.19-23.68-23.97-6.97-40.54l.67,.23,5.84,6.22c.7,16.2,7.3,26.43,24.05,26.41,.86,4.19,2.36,4.75,3.96,4.77Z"/><path class="q" d="M155.72,93.5c.38,1.92-6.63,10.07-23.18,3.95-16.54-6.12,11.16-4.48,11.16-4.48l12.01,.53Z"/><path class="m" d="M152.83,88.01l.89,.69v2.33s.93,1.96,2,2.46c0,0-.93,1.41-2.72,2.29-1.79,.88-3.26-3.69-3.26-3.69l1.01-1.53,1-1.84,1.07-.71Z"/><path class="g" d="M128.77,63.06s.11,9.26,6.92,16.48c5.78,6.13,10.47,8.6,17.14,8.48l-1.07,.71-4.94,4.93-14.71-4.27-7.85-7.19-3.48-6.43,.46-6.22,1.86-4.28,5.68-2.22Z"/><path class="h" d="M153,95.79c-.86-.67-1.34-3.9-1.34-3.9l.76-2.24-.66-.92s-5.64,3.77-14.38-.55c-9.21-4.55-16.23-17.19-8.61-25.12l-6.83-7.17s-17.76,15.16,.76,34.79c13.97,14.81,30.31,5.1,30.31,5.1Z"/></g><g><path class="b" d="M180.45,74.85s1.72-.55,1.3,3.46c-.76,7.14-8.9,14.42-19.71,17.24-10.82,2.82-33.65-1.81-32.43-25.31l.65-.28,8.51,.67c11.41,11.52,23.18,14.64,35.56,3.36,3.46,2.52,4.95,1.93,6.14,.86Z"/><path class="q" d="M180.54,75.05c1.58,1.16,1.86,11.91-14.49,18.51-16.35,6.6,5.24-10.83,5.24-10.83l9.25-7.69Z"/><path class="n" d="M174.71,72.94l1.12-.09,1.56,1.73s2.01,.82,3.14,.47c0,0,.26,1.67-.47,3.52-.73,1.85-4.89-.54-4.89-.54l-.28-1.81-.5-2.04,.31-1.25Z"/><path class="c" d="M140.13,70.66s6.31,6.77,16.2,7.54c8.4,.65,13.53-.69,18.38-5.26l-.31,1.25-.34,6.97-13.75,6.74-10.65-.03-6.9-2.41-3.84-4.91-1.5-4.42,2.71-5.46Z"/><path class="f" d="M180.07,78.57c-1.08,.08-3.62-1.98-3.62-1.98l-.94-2.17-1.11-.24s-1.63,6.58-11.01,9.27c-9.87,2.83-23.57-1.8-23.27-12.79l-9.88-.71s-2.94,23.16,23.97,25.23c20.3,1.56,25.86-16.61,25.86-16.61Z"/></g><g><path class="b" d="M139.46,92.11s-1.8,.16-.5-3.66c2.31-6.79,11.87-12.1,23.04-12.45,11.17-.35,32.41,9.2,26.04,31.85l-.69,.13-8.15-2.53c-8.58-13.75-19.37-19.4-33.94-11.14-2.81-3.22-4.4-2.97-5.8-2.2Z"/><path class="q" d="M139.42,91.89c-1.28-1.48,.81-12.03,18.22-14.85,17.41-2.82-7.51,9.4-7.51,9.4l-10.72,5.45Z"/><path class="m" d="M144.64,95.24l-1.11-.16-1.14-2.04s-1.78-1.25-2.96-1.15c0,0,.12-1.69,1.24-3.33,1.12-1.65,4.65,1.61,4.65,1.61l-.12,1.82,.03,2.1-.58,1.15Z"/><path class="g" d="M177.87,105.1s-4.66-8-14.14-10.93c-8.05-2.49-13.35-2.32-19.09,1.06l.58-1.15,1.87-6.72,14.9-3.53,10.38,2.39,6.2,3.88,2.66,5.64,.49,4.64-3.85,4.73Z"/><path class="k" d="M140.66,88.56c1.07,.16,3.09,2.73,3.09,2.73l.44,2.32,1.03,.48s3.05-6.06,12.78-6.61c10.25-.58,22.59,6.96,19.87,17.62l9.48,2.88s7.99-21.94-17.8-29.9c-19.45-6.01-28.89,10.48-28.89,10.48Z"/></g><g><path class="d" d="M142.95,51.16s1.34-1.2,2.6,2.62c2.23,6.82-2.22,16.8-10.94,23.79-8.72,6.99-31.44,12.11-39.95-9.83l.47-.52,8.04-2.87c15.12,5.84,27.14,3.88,33.83-11.47,4.19,.89,5.3-.27,5.96-1.72Z"/><path class="q" d="M143.12,51.31c1.92,.42,6.57,10.11-5.65,22.82-12.23,12.71,.36-12.02,.36-12.02l5.29-10.8Z"/><path class="m" d="M136.94,51.77l.99-.54,2.13,.94s2.17-.07,3.06-.86c0,0,.92,1.42,1.01,3.41,.09,1.99-4.69,1.51-4.69,1.51l-1-1.53-1.29-1.66-.22-1.27Z"/><path class="j" d="M104.44,63.83s8.53,3.6,17.87,.25c7.93-2.84,12.07-6.16,14.63-12.32l.22,1.27,2.54,6.5-9.8,11.77-9.73,4.32-7.28,.62-5.51-2.91-3.18-3.42,.24-6.09Z"/><path class="o" d="M144.13,54.72c-.95,.52-4.11-.33-4.11-.33l-1.75-1.59-1.11,.24s1.2,6.67-6.25,12.96c-7.85,6.62-22.25,8-26.47-2.16l-9.31,3.39s6.79,22.34,32.19,13.22c19.16-6.88,16.8-25.73,16.8-25.73Z"/></g><g><path class="d" d="M162.89,62.52s1.8-.15,.48,3.66c-2.34,6.78-11.92,12.04-23.09,12.35-11.17,.3-32.37-9.35-25.89-31.97l.69-.13,8.14,2.57c8.52,13.79,19.28,19.49,33.89,11.3,2.8,3.24,4.39,2.99,5.79,2.23Z"/><path class="q" d="M162.93,62.74c1.27,1.49-.87,12.03-18.29,14.77-17.42,2.74,7.55-9.37,7.55-9.37l10.74-5.41Z"/><path class="m" d="M157.72,59.37l1.11,.17,1.13,2.04s1.78,1.26,2.96,1.16c0,0-.12,1.69-1.25,3.33-1.13,1.64-4.65-1.63-4.65-1.63l.13-1.82-.02-2.1,.59-1.15Z"/><path class="g" d="M124.54,49.35s4.62,8.02,14.09,11c8.03,2.53,13.34,2.38,19.1-.98l-.59,1.15-1.9,6.72-14.92,3.46-10.37-2.43-6.18-3.91-2.64-5.65-.47-4.64,3.87-4.71Z"/><path class="h" d="M161.67,66.06c-1.07-.16-3.08-2.75-3.08-2.75l-.43-2.32-1.03-.48s-3.08,6.04-12.81,6.55c-10.25,.53-22.56-7.06-19.78-17.71l-9.47-2.92s-8.09,21.9,17.66,29.99c19.43,6.1,28.94-10.35,28.94-10.35Z"/></g><g><path class="d" d="M158.31,64.78s1.57-.88,1.96,3.12c.7,7.14-5.81,15.92-15.84,20.85-10.03,4.93-33.32,5-36.86-18.26l.58-.41,8.47-1.06c13.49,8.98,25.65,9.68,35.51-3.86,3.89,1.77,5.23,.89,6.19-.39Z"/><path class="q" d="M158.44,64.97c1.78,.82,4.22,11.29-10.47,21.05-14.69,9.76,2.96-11.66,2.96-11.66l7.51-9.39Z"/><path class="m" d="M152.31,64.07l1.08-.31,1.88,1.38s2.14,.4,3.17-.18c0,0,.59,1.58,.25,3.55-.34,1.96-4.9,.46-4.9,.46l-.64-1.71-.9-1.9,.06-1.29Z"/><path class="g" d="M117.97,68.8s7.55,5.36,17.39,4.12c8.36-1.05,13.12-3.39,16.95-8.85l-.06,1.29,1.07,6.9-12.12,9.37-10.44,2.11-7.24-.97-4.75-4.04-2.36-4.03,1.55-5.9Z"/><path class="l" d="M158.69,68.51c-1.04,.3-3.94-1.21-3.94-1.21l-1.36-1.93h-1.13s-.28,6.76-8.92,11.28c-9.1,4.76-23.45,2.98-25.37-7.85l-9.82,1.29s1.78,23.28,28.56,19.89c20.2-2.56,21.99-21.47,21.99-21.47Z"/></g><g><path class="d" d="M126.54,22.32s1.8,.05,.07,3.69c-3.09,6.48-13.19,10.63-24.33,9.69-11.14-.95-31.12-12.91-22.15-34.66l.7-.05,7.8,3.46c6.92,14.66,16.98,21.53,32.41,15.02,2.42,3.53,4.02,3.46,5.5,2.86Z"/><path class="q" d="M126.55,22.54c1.1,1.62-2.21,11.85-19.83,12.63-17.62,.78,8.55-8.46,8.55-8.46l11.28-4.17Z"/><path class="m" d="M121.76,18.61l1.09,.29,.9,2.16s1.62,1.45,2.81,1.49c0,0-.31,1.66-1.62,3.17-1.3,1.5-4.43-2.14-4.43-2.14l.34-1.8,.21-2.09,.71-1.07Z"/><path class="g" d="M89.91,4.94s3.7,8.49,12.77,12.5c7.7,3.41,12.99,3.86,19.09,1.17l-.71,1.07-2.64,6.46-15.21,1.77-10.03-3.58-5.7-4.57-1.99-5.91,.06-4.67,4.37-4.25Z"/><path class="l" d="M124.94,25.71c-1.05-.28-2.75-3.07-2.75-3.07l-.17-2.36-.97-.59s-3.73,5.66-13.46,5.07c-10.25-.62-21.63-9.55-17.68-19.81l-9.08-3.96s-10.49,20.86,14.2,31.77c18.62,8.23,29.91-7.05,29.91-7.05Z"/></g></svg>