<?xml version="1.0" encoding="UTF-8"?><svg id="a" xmlns="http://www.w3.org/2000/svg" viewBox="0 0 152 133"><defs><style>.b{fill:#e97526;}.b,.c,.d,.e,.f,.g,.h,.i,.j,.k,.l,.m{fill-rule:evenodd;}.c{fill:#e86524;}.d{fill:#d65312;}.e{fill:#e36925;}.f{fill:#e66c24;}.g{fill:#f3853b;}.h{fill:#f37a26;}.i{fill:#ed7726;}.j{fill:#db6126;}.k{fill:#f08134;}.l{fill:#a84a28;}.m{fill:#d55927;}</style></defs><g><path class="l" d="M76.98,11.54s-6.36-7.75-7.19-8.07c-.81-.32-6.1,1.12-9.96,.92-3.84-.21-6.26-.41-6.26-.41l-1.09,2.1,9.66,9.11s6.56,2.37,6.98,2.33c.41-.04,4.21-2.11,4.21-2.11l3.66-3.87Z"/><path class="d" d="M72.72,35.91s1.71-12.18,2.58-16.14c.86-3.96,2.33-8.09,1.69-8.23-.64-.16-4.54,2.85-8.58,2.6-4.03-.25-6.13-2.18-7.18-1.84-1.05,.34-12.46,18.85-14.55,20.47l-2.08,1.63s1.91,4.11,10.49,5.93c8.57,1.8,17.64-4.42,17.64-4.42h0Z"/><path class="b" d="M61.92,12.32s-6.85-8.05-8.35-8.35c-1.49-.29-10.88,10.86-13.94,13.53-3.07,2.67-4.95,3.82-5.15,4.3-.21,.48,9.25,13.72,10.64,13.39,1.4-.33,4.26-4.56,6.98-8.42,2.73-3.85,9.82-14.45,9.82-14.45h0Z"/><path class="e" d="M72.73,35.98c-.05-.25,.13-.86,.08-.84-12.56,4.58-17.76,5.44-25.41,1.07-4.02-2.29-8.43-7.68-10.97-11.43,0,0-.93-2.38-1.84-2.83v.13c1.02,4.32,7.88,13.2,12,15.54,6.3,3.59,12.34,3.87,19.19,1.75,2.79-.87,6.95-3.4,6.95-3.4Z"/><path class="k" d="M63.38,13.36s-9.38,12.85-10.62,14.19c-1.24,1.34-4.74,4.87-4.74,4.87,0,0,13.59-21.28,13.35-20.73-.19,.45,2.01,1.67,2.01,1.67h0Z"/><path class="i" d="M47.93,30.79s6.22-9.42,7.87-11.63c1.65-2.2,4.91-6.67,4.8-7.46-.11-.79-5.5-6.4-6.07-6.53-.58-.14-.53,.5-.53,.5,0,0,4.79,5.53,4.48,6.34-.31,.81-8.14,13.43-9.32,15.19-1.2,1.77-1.23,3.59-1.23,3.59h0Z"/></g><g><path class="l" d="M79.99,18.77s-8.26,1.11-8.78,1.61c-.51,.48-.98,5.41-2.34,8.37-1.36,2.94-2.27,4.75-2.27,4.75l1.37,1.93,10.39-3.04s3.95-4,4.06-4.36c.1-.35-.41-4.41-.41-4.41l-2.01-4.86Z"/><path class="b" d="M98.45,34.53s-9.35-7.54-12.3-10.24c-2.95-2.69-5.84-5.95-6.16-5.52-.33,.43,.9,5.05-.55,8.13-1.45,3.08-3.67,3.76-3.72,4.76-.05,1.01,11.44,19.46,12.11,21.94l.67,2.48s3.93,.57,8.06-5.31c4.12-5.89,1.88-16.24,1.88-16.24h0Z"/><path class="f" d="M75.96,31.12s-8.66,1.35-9.36,2.39c-.7,1.03,5.44,14.14,6.66,17.93,1.22,3.79,1.57,5.87,1.89,6.27,.33,.41,14-.37,14.16-1.65,.16-1.28-2.38-5.7-4.67-9.81-2.28-4.12-8.69-15.13-8.69-15.13h0Z"/><path class="e" d="M98.51,34.55c-.22-.08-.66-.54-.66-.49-.18,12.29-1.09,16.86-7,20.7-3.1,2.03-8.84,2.79-12.67,2.91,0,0-2.22-.47-2.87,.02l.11,.06c3.82,1.4,13.15,.46,16.33-1.62,4.87-3.18,6.97-7.83,7.36-14.34,.16-2.66-.6-7.24-.6-7.24Z"/><path class="k" d="M77.25,30.48s7.52,13.97,8.23,15.63c.7,1.66,2.49,6.23,2.49,6.23,0,0-13.06-21.59-12.69-21.12,.31,.38,1.98-.75,1.98-.75h0Z"/><path class="i" d="M86.61,51.6s-5.72-9.72-7-12.15c-1.28-2.42-3.9-7.29-4.57-7.6-.67-.31-6.9,1.12-7.18,1.5-.29,.39,.24,.67,.24,.67,0,0,5.97-.99,6.53-.34,.56,.65,8.38,13.28,9.44,15.11,1.06,1.85,2.53,2.8,2.53,2.8h0Z"/></g><g><path class="l" d="M44.69,77.17s-8.26,1.11-8.78,1.61c-.51,.48-.98,5.41-2.34,8.37-1.36,2.94-2.27,4.75-2.27,4.75l1.37,1.93,10.39-3.04s3.95-4,4.06-4.36c.1-.35-.41-4.41-.41-4.41l-2.01-4.86Z"/><path class="b" d="M63.15,92.93s-9.35-7.54-12.3-10.24c-2.95-2.69-5.84-5.95-6.16-5.52-.33,.43,.9,5.05-.55,8.13-1.45,3.08-3.67,3.76-3.72,4.76-.05,1.01,11.44,19.46,12.11,21.94l.67,2.48s3.93,.57,8.06-5.31c4.12-5.89,1.88-16.24,1.88-16.24h0Z"/><path class="f" d="M40.66,89.52s-8.66,1.35-9.36,2.39c-.7,1.03,5.44,14.14,6.66,17.93,1.22,3.79,1.57,5.87,1.89,6.27,.33,.41,14-.37,14.16-1.65,.16-1.28-2.38-5.7-4.67-9.81-2.28-4.12-8.69-15.13-8.69-15.13h0Z"/><path class="e" d="M63.21,92.95c-.22-.08-.66-.54-.66-.49-.18,12.29-1.09,16.86-7,20.7-3.1,2.03-8.84,2.79-12.67,2.91,0,0-2.22-.47-2.87,.02l.11,.06c3.82,1.4,13.15,.46,16.33-1.62,4.87-3.18,6.97-7.83,7.36-14.34,.16-2.66-.6-7.24-.6-7.24Z"/><path class="k" d="M41.95,88.88s7.52,13.97,8.23,15.63c.7,1.66,2.49,6.23,2.49,6.23,0,0-13.06-21.59-12.69-21.12,.31,.38,1.98-.75,1.98-.75h0Z"/><path class="i" d="M51.31,110s-5.72-9.72-7-12.15c-1.28-2.42-3.9-7.29-4.57-7.6-.67-.31-6.9,1.12-7.18,1.5-.29,.39,.24,.67,.24,.67,0,0,5.97-.99,6.53-.34,.56,.65,8.38,13.28,9.44,15.11,1.06,1.85,2.53,2.8,2.53,2.8h0Z"/></g><g><path class="b" d="M89.36,74.79s5-12.03,6.59-15.45c1.58-3.41,2.05-4.84,2.05-4.84,0,0-1.6-2.09-2.5-5.78-.9-3.68,.04-5.62-.94-5.6-.99,.02-17.22,7.37-17.64,7.99-.43,.63-.29,7.36,1.4,12.81,1.7,5.46,8.97,12.12,9.79,12.03,.81-.08,1.26-1.16,1.26-1.16h0Z"/><path class="l" d="M97.66,55.41s-2.62-6.95-3.15-9.63c-.52-2.68,.06-2.66,.06-2.66,0,0,15.54,1.31,15.86,1.85,.33,.53,.09,.7,1.18,3.81,1.1,3.11,2.47,3.98,2.44,4.45-.04,.45-6.85,2.86-6.85,2.86l-9.54-.67Z"/><path class="f" d="M88.11,75.95s7.16,.64,10.02,.05c2.87-.58,8.67-2.33,8.67-2.33,0,0,1.13-3.49,3.06-6.94,1.93-3.45,4.34-13.04,4.19-13.51-.16-.47-16.87,1.41-16.87,1.41l-6.81,12.36-2.26,8.95Z"/><path class="j" d="M88.36,75.47c-.48-.23,0,.77-.45,.52-9.03-5.03-12.88-14.42-11.4-24.71,.04-.27,.5-.19,.53-.46,.22,2.26,.29,4.79,.64,6.99,1.68,10.53,3.87,11.09,10.68,17.65h0Z"/><path class="c" d="M96.99,53.67s-.09-.21-.2-.52c-.11-.24-.27-.56-.44-.88-.38-.68-1.95-7.15-2.05-7.86-.08-.7,.45-.26,.45-.26,0,0,.31,1.01,.98,2.38,.49,1.01,1.6,3.08,2.17,4.13,3.25-.23,10.32,.25,9.62,.74-.08,.06,4.94,1.72,4.72,1.8-2.13,.72-15.26,.48-15.26,.48h0Z"/><path class="h" d="M95.71,55.41s5.89-.35,7.89-1.02c2.01-.65,3.56-.8,3.56-.8l-7.49,.26-1.58-.09-1.1-.19-1.27,1.83Z"/><path class="g" d="M85.99,70.49s-3.11-1.59-4.16-3.26c-1.06-1.67-1.94-3.76-2.13-4.03-.18-.28-1.28-3.84-1.4-5.74-.12-1.9,2.82,5.79,4.76,6.68,1.94,.9,3.62,1.5,3.62,1.5,0,0,6.69-10.1,7.54-10.71,.83-.63,1.77-.22,1.5,.49-.27,.72-6.98,12.98-7.39,14.63-.42,1.65-.61,2.48-.61,2.48l-1.73-2.04Z"/></g><g><path class="l" d="M102.84,59.52s9.32-3.71,10.2-3.59c.87,.11,4.8,3.93,8.28,5.62,3.47,1.67,5.68,2.66,5.68,2.66l-.06,2.37-12.86,3.31s-6.89-1.1-7.24-1.33c-.34-.23-2.66-3.88-2.66-3.88l-1.33-5.15Z"/><path class="d" d="M94.79,82.92s4.38-11.49,5.54-15.37c1.16-3.88,1.87-8.21,2.5-8.02,.63,.17,2.6,4.69,6.25,6.42,3.65,1.73,6.42,1.05,7.18,1.86,.76,.81,1.8,22.53,2.85,24.96l1.04,2.43s-3.66,2.67-12.05,.12c-8.38-2.56-13.31-12.39-13.31-12.39h0Z"/><path class="b" d="M115.64,67.49s9.89-3.74,11.34-3.27c1.44,.46,4.27,14.76,5.67,18.58,1.39,3.82,2.49,5.74,2.43,6.25-.05,.52-14.72,7.55-15.79,6.58-1.06-.96-1.53-6.06-2.04-10.74-.52-4.69-1.61-17.4-1.61-17.4h0Z"/><path class="e" d="M94.74,82.97c.17-.19,.3-.81,.34-.78,8.79,10.08,12.92,13.35,21.73,13.21,4.63-.06,11.09-2.65,15.13-4.7,0,0,1.97-1.64,2.98-1.59l-.07,.11c-2.97,3.3-13.27,7.75-18.01,7.81-7.25,.1-12.68-2.57-17.64-7.74-2.03-2.11-4.44-6.33-4.44-6.33Z"/><path class="k" d="M113.86,67.68s2,15.79,2.44,17.56c.44,1.77,1.79,6.56,1.79,6.56,0,0-1.61-25.2-1.67-24.6-.05,.49-2.56,.49-2.56,.49h0Z"/><path class="i" d="M118.97,90.42s-.89-11.26-1.27-13.98c-.38-2.72-1.07-8.22-.6-8.85,.48-.64,7.91-2.94,8.47-2.78,.57,.16,.22,.7,.22,.7,0,0-6.86,2.53-6.98,3.38-.12,.85,.64,15.69,.82,17.8,.2,2.12-.66,3.74-.66,3.74h0Z"/></g><g><path class="l" d="M90.98,90.57s9.32-3.71,10.2-3.59c.87,.11,4.8,3.93,8.28,5.62,3.47,1.67,5.68,2.66,5.68,2.66l-.06,2.37-12.86,3.31s-6.89-1.1-7.24-1.33c-.34-.23-2.66-3.88-2.66-3.88l-1.33-5.15Z"/><path class="b" d="M82.93,113.97s4.38-11.49,5.54-15.37c1.16-3.88,1.87-8.21,2.5-8.02,.63,.17,2.6,4.69,6.25,6.42,3.65,1.73,6.42,1.05,7.18,1.86,.76,.81,1.8,22.53,2.85,24.96l1.04,2.43s-3.66,2.67-12.05,.12c-8.38-2.56-13.31-12.39-13.31-12.39h0Z"/><path class="f" d="M103.78,98.53s9.89-3.74,11.34-3.27c1.44,.46,4.27,14.76,5.67,18.58,1.39,3.82,2.49,5.74,2.43,6.25-.05,.52-14.72,7.55-15.79,6.58-1.06-.96-1.53-6.06-2.04-10.74-.52-4.69-1.61-17.4-1.61-17.4h0Z"/><path class="e" d="M82.88,114.02c.17-.19,.3-.81,.34-.78,8.79,10.08,12.92,13.35,21.73,13.21,4.63-.06,11.09-2.65,15.13-4.7,0,0,1.97-1.64,2.98-1.59l-.07,.11c-2.97,3.3-13.27,7.75-18.01,7.81-7.25,.1-12.68-2.57-17.64-7.74-2.03-2.11-4.44-6.33-4.44-6.33Z"/><path class="k" d="M102,98.73s2,15.79,2.44,17.56c.44,1.77,1.79,6.56,1.79,6.56,0,0-1.61-25.2-1.67-24.6-.05,.49-2.56,.49-2.56,.49h0Z"/><path class="i" d="M107.11,121.46s-.89-11.26-1.27-13.98c-.38-2.72-1.07-8.22-.6-8.85,.48-.64,7.91-2.94,8.47-2.78,.57,.16,.22,.7,.22,.7,0,0-6.86,2.53-6.98,3.38-.12,.85,.64,15.69,.82,17.8,.2,2.12-.66,3.74-.66,3.74h0Z"/></g><g><path class="l" d="M70.81,92.05s9.32-3.71,10.2-3.59c.87,.11,4.8,3.93,8.28,5.62,3.47,1.67,5.68,2.66,5.68,2.66l-.06,2.37-12.86,3.31s-6.89-1.1-7.24-1.33c-.34-.23-2.66-3.88-2.66-3.88l-1.33-5.15Z"/><path class="b" d="M62.76,115.44s4.38-11.49,5.54-15.37c1.16-3.88,1.87-8.21,2.5-8.02,.63,.17,2.6,4.69,6.25,6.42,3.65,1.73,6.42,1.05,7.18,1.86,.76,.81,1.8,22.53,2.85,24.96l1.04,2.43s-3.66,2.67-12.05,.12c-8.38-2.56-13.31-12.39-13.31-12.39h0Z"/><path class="f" d="M83.61,100.01s9.89-3.74,11.34-3.27c1.44,.46,4.27,14.76,5.67,18.58,1.39,3.82,2.49,5.74,2.43,6.25-.05,.52-14.72,7.55-15.79,6.58-1.06-.96-1.53-6.06-2.04-10.74-.52-4.69-1.61-17.4-1.61-17.4h0Z"/><path class="e" d="M62.71,115.49c.17-.19,.3-.81,.34-.78,8.79,10.08,12.92,13.35,21.73,13.21,4.63-.06,11.09-2.65,15.13-4.7,0,0,1.97-1.64,2.98-1.59l-.07,.11c-2.97,3.3-13.27,7.75-18.01,7.81-7.25,.1-12.68-2.57-17.64-7.74-2.03-2.11-4.44-6.33-4.44-6.33Z"/><path class="k" d="M81.83,100.21s2,15.79,2.44,17.56c.44,1.77,1.79,6.56,1.79,6.56,0,0-1.61-25.2-1.67-24.6-.05,.49-2.56,.49-2.56,.49h0Z"/><path class="i" d="M86.94,122.94s-.89-11.26-1.27-13.98c-.38-2.72-1.07-8.22-.6-8.85,.48-.64,7.91-2.94,8.47-2.78,.57,.16,.22,.7,.22,.7,0,0-6.86,2.53-6.98,3.38-.12,.85,.64,15.69,.82,17.8,.2,2.12-.66,3.74-.66,3.74h0Z"/></g><g><path class="m" d="M42.96,93.21s-2.53-9.7-2.29-10.56c.22-.85,4.5-4.27,6.6-7.52,2.09-3.23,3.35-5.3,3.35-5.3l2.34,.35,1.69,13.17s-1.95,6.7-2.22,7.02c-.27,.31-4.18,2.16-4.18,2.16l-5.28,.68Z"/><path class="b" d="M65.17,104.1s-10.86-5.78-14.56-7.41c-3.71-1.63-7.91-2.87-7.65-3.48,.25-.61,4.98-2,7.15-5.4,2.17-3.41,1.84-6.24,2.73-6.89,.89-.65,22.58,1.02,25.12,.28l2.54-.73s2.2,3.97-1.38,11.97c-3.59,7.99-13.95,11.67-13.95,11.67h0Z"/><path class="f" d="M52.45,81.49s-2.48-10.28-1.84-11.66c.64-1.37,15.18-2.41,19.14-3.31,3.97-.91,6-1.76,6.51-1.63,.51,.11,5.66,15.55,4.57,16.48-1.09,.93-6.2,.76-10.91,.69-4.72-.06-17.46-.56-17.46-.56h0Z"/><path class="e" d="M65.22,104.16c-.17-.19-.77-.4-.73-.43,11.09-7.47,14.85-11.16,15.81-19.92,.51-4.6-1.25-11.33-2.78-15.59,0,0-1.38-2.15-1.21-3.15l.1,.09c2.9,3.35,6.04,14.13,5.52,18.84-.8,7.21-4.13,12.26-9.87,16.54-2.34,1.75-6.84,3.62-6.84,3.62Z"/><path class="k" d="M52.42,83.29s15.91-.02,17.72-.24c1.81-.22,6.73-.97,6.73-.97,0,0-25.21-1.53-24.62-1.4,.48,.11,.17,2.6,.17,2.6h0Z"/><path class="i" d="M75.61,81.05s-11.28-.51-14.03-.48c-2.75,.04-8.29,.04-8.86-.51-.57-.55-1.94-8.22-1.71-8.75,.23-.55,.72-.13,.72-.13,0,0,1.66,7.12,2.49,7.35,.83,.23,15.65,1.32,17.77,1.4,2.13,.07,3.63,1.12,3.63,1.12h0Z"/></g><g><path class="l" d="M25.1,56.85s4.39-9.01,5.13-9.52c.72-.5,6.2-.32,9.9-1.42,3.69-1.1,5.99-1.85,5.99-1.85l1.55,1.79-7.28,11.1s-5.83,3.82-6.25,3.89c-.41,.06-4.58-1.08-4.58-1.08l-4.45-2.92Z"/><path class="d" d="M34.89,79.57s-4.49-11.45-6.24-15.1c-1.75-3.65-4.14-7.33-3.55-7.62,.58-.3,5.08,1.72,8.95,.54,3.87-1.17,5.46-3.54,6.56-3.46,1.1,.09,16.49,15.46,18.9,16.55l2.4,1.1s-.91,4.44-8.83,8.2c-7.92,3.74-18.18-.21-18.18-.21h0Z"/><path class="f" d="M39.93,54.12s4.8-9.42,6.19-10.05c1.38-.63,13.09,8.04,16.7,9.94,3.6,1.89,5.7,2.57,6,2.99,.32,.42-5.82,15.49-7.25,15.49-1.43,0-5.2-3.45-8.74-6.58-3.54-3.12-12.9-11.79-12.9-11.79h0Z"/><path class="e" d="M34.89,79.64c0-.26-.32-.81-.27-.8,13.28,1.54,18.54,1.18,24.96-4.84,3.38-3.16,6.42-9.42,8.03-13.66,0,0,.35-2.53,1.14-3.18l.02,.13c.02,4.44-4.6,14.67-8.06,17.9-5.3,4.95-11.11,6.63-18.26,6.15-2.92-.2-7.55-1.7-7.55-1.7Z"/><path class="k" d="M38.75,55.47s12.1,10.33,13.62,11.34c1.52,1.01,5.74,3.64,5.74,3.64,0,0-18.15-17.56-17.79-17.07,.29,.4-1.57,2.09-1.57,2.09h0Z"/><path class="i" d="M57.82,68.85s-8.23-7.73-10.35-9.49c-2.11-1.76-6.32-5.36-6.4-6.15-.08-.79,3.87-7.5,4.4-7.76,.53-.27,.63,.37,.63,.37,0,0-3.38,6.49-2.89,7.2,.48,.71,11.03,11.18,12.58,12.62,1.57,1.44,2.03,3.21,2.03,3.21h0Z"/></g><g><path class="l" d="M25.01,11.41s9.32-3.71,10.2-3.59c.87,.11,4.8,3.93,8.28,5.62,3.47,1.67,5.68,2.66,5.68,2.66l-.06,2.37-12.86,3.31s-6.89-1.1-7.24-1.33c-.34-.23-2.66-3.88-2.66-3.88l-1.33-5.15Z"/><path class="b" d="M16.96,34.81s4.38-11.49,5.54-15.37c1.16-3.88,1.87-8.21,2.5-8.02,.63,.17,2.6,4.69,6.25,6.42,3.65,1.73,6.42,1.05,7.18,1.86,.76,.81,1.8,22.53,2.85,24.96l1.04,2.43s-3.66,2.67-12.05,.12c-8.38-2.56-13.31-12.39-13.31-12.39h0Z"/><path class="d" d="M37.82,19.38s9.89-3.74,11.34-3.27c1.44,.46,4.27,14.76,5.67,18.58,1.39,3.82,2.49,5.74,2.43,6.25-.05,.52-14.72,7.55-15.79,6.58-1.06-.96-1.53-6.06-2.04-10.74-.52-4.69-1.61-17.4-1.61-17.4h0Z"/><path class="e" d="M16.92,34.86c.17-.19,.3-.81,.34-.78,8.79,10.08,12.92,13.35,21.73,13.21,4.63-.06,11.09-2.65,15.13-4.7,0,0,1.97-1.64,2.98-1.59l-.07,.11c-2.97,3.3-13.27,7.75-18.01,7.81-7.25,.1-12.68-2.57-17.64-7.74-2.03-2.11-4.44-6.33-4.44-6.33Z"/><path class="k" d="M36.03,19.57s2,15.79,2.44,17.56c.44,1.77,1.79,6.56,1.79,6.56,0,0-1.61-25.2-1.67-24.6-.05,.49-2.56,.49-2.56,.49h0Z"/><path class="i" d="M41.14,42.31s-.89-11.26-1.27-13.98c-.38-2.72-1.07-8.22-.6-8.85,.48-.64,7.91-2.94,8.47-2.78,.57,.16,.22,.7,.22,.7,0,0-6.86,2.53-6.98,3.38-.12,.85,.64,15.69,.82,17.8,.2,2.12-.66,3.74-.66,3.74h0Z"/></g><g><path class="d" d="M61.38,31.24s-2.18,12.85-2.97,16.53c-.78,3.67-.91,5.18-.91,5.18,0,0,2.03,1.68,3.73,5.08,1.7,3.38,1.22,5.49,2.17,5.25,.96-.24,15.13-11.03,15.41-11.73,.28-.71-1.36-7.24-4.23-12.18-2.88-4.94-11.45-9.81-12.23-9.54-.77,.26-.96,1.41-.96,1.41h0Z"/><path class="l" d="M57.62,51.99s4.11,6.18,5.22,8.68c1.1,2.5,.54,2.61,.54,2.61,0,0-15.44,2.2-15.87,1.74-.44-.44-.25-.66-2-3.45-1.77-2.79-3.3-3.33-3.37-3.79-.06-.45,6.03-4.32,6.03-4.32l9.45-1.48Z"/><path class="b" d="M62.34,29.83s-7.12,.98-9.78,2.19c-2.67,1.21-7.93,4.21-7.93,4.21,0,0-.32,3.65-1.43,7.45-1.11,3.8-1.32,13.68-1.06,14.1,.27,.42,16.13-5.15,16.13-5.15l3.87-13.57,.2-9.23Z"/><path class="j" d="M62.2,30.36c.52,.11-.17-.75,.32-.61,9.92,2.88,15.78,11.17,16.63,21.53,.03,.27-.44,.29-.42,.56-.72-2.15-1.35-4.6-2.19-6.67-4-9.88-6.26-9.94-14.35-14.82h0Z"/><path class="c" d="M58.66,53.53s.13,.19,.31,.46c.16,.21,.39,.49,.63,.76,.52,.57,3.5,6.53,3.75,7.21,.24,.66-.38,.36-.38,.36,0,0-.53-.92-1.49-2.11-.7-.87-2.25-2.65-3.04-3.54-3.11,.95-10.11,2.06-9.55,1.43,.06-.07-5.2-.57-5-.7,1.92-1.18,14.76-3.88,14.76-3.88h0Z"/><path class="h" d="M59.52,51.55s-5.66,1.66-7.46,2.76c-1.81,1.09-3.29,1.58-3.29,1.58l7.24-1.93,1.56-.27,1.12-.06,.83-2.07Z"/><path class="g" d="M65.63,34.68s3.39,.85,4.78,2.24c1.4,1.39,2.73,3.23,2.97,3.45,.24,.23,2.1,3.46,2.65,5.28,.54,1.82-4.05-5.02-6.13-5.44-2.09-.44-3.86-.65-3.86-.65,0,0-4.27,11.34-4.95,12.13-.67,.8-1.67,.61-1.57-.14,.1-.77,3.9-14.21,3.93-15.91,.04-1.7,.04-2.55,.04-2.55l2.14,1.6Z"/></g><g><path class="l" d="M65.37,49.88s9.45-3.37,10.32-3.21c.86,.14,4.65,4.1,8.07,5.92,3.4,1.8,5.58,2.87,5.58,2.87l-.15,2.37-12.97,2.84s-6.84-1.35-7.19-1.59c-.33-.24-2.52-3.98-2.52-3.98l-1.14-5.2Z"/><path class="b" d="M56.47,72.97s4.8-11.32,6.1-15.16c1.3-3.84,2.17-8.13,2.79-7.93,.63,.19,2.43,4.78,6.01,6.65,3.59,1.87,6.38,1.28,7.11,2.12,.73,.83,.97,22.58,1.93,25.04l.95,2.47s-3.76,2.54-12.05-.32c-8.28-2.87-12.85-12.87-12.85-12.87h0Z"/><path class="f" d="M77.88,58.31s10.02-3.37,11.46-2.86c1.42,.52,3.73,14.91,4.98,18.78,1.25,3.87,2.28,5.83,2.2,6.34-.07,.52-14.99,7-16.02,6-1.03-1-1.3-6.11-1.64-10.81-.35-4.7-.97-17.45-.97-17.45h0Z"/><path class="e" d="M56.43,73.02c.17-.19,.33-.8,.36-.76,8.41,10.39,12.43,13.81,21.23,14,4.63,.11,11.18-2.24,15.29-4.14,0,0,2.02-1.56,3.04-1.48l-.08,.11c-3.09,3.19-13.55,7.26-18.28,7.15-7.25-.17-12.58-3.04-17.35-8.38-1.95-2.18-4.21-6.49-4.21-6.49Z"/><path class="k" d="M76.09,58.44s1.42,15.85,1.8,17.63c.37,1.78,1.55,6.62,1.55,6.62,0,0-.69-25.24-.77-24.65-.07,.49-2.58,.4-2.58,.4h0Z"/><path class="i" d="M80.36,81.34s-.48-11.28-.76-14.02c-.28-2.73-.77-8.25-.27-8.87,.5-.62,8.01-2.65,8.57-2.47,.57,.18,.19,.7,.19,.7,0,0-6.95,2.27-7.1,3.12-.15,.85,.06,15.7,.17,17.82,.12,2.13-.8,3.71-.8,3.71h0Z"/></g><g><path class="l" d="M65.99,72.68s-3.17,7.71-3,8.4c.16,.69,4.19,3.56,6.07,6.22,1.87,2.65,2.98,4.35,2.98,4.35l2.36-.22,2.57-10.51s-1.49-5.43-1.74-5.69c-.25-.26-4.02-1.85-4.02-1.85l-5.22-.7Z"/><path class="b" d="M88.87,64.6s-11.21,4.32-15.02,5.52c-3.81,1.2-8.08,2.07-7.86,2.57,.21,.5,4.82,1.75,6.76,4.54,1.94,2.8,1.41,5.06,2.26,5.61,.85,.55,22.57-.16,25.06,.51l2.48,.66s2.46-3.12-.56-9.64c-3.03-6.51-13.12-9.76-13.12-9.76h0Z"/><path class="f" d="M74.66,82.36s-3.17,8.17-2.62,9.3c.54,1.12,14.97,2.37,18.86,3.21,3.89,.84,5.87,1.58,6.37,1.5,.52-.08,6.69-12.3,5.67-13.08-1.02-.78-6.13-.79-10.83-.87-4.71-.09-17.45-.06-17.45-.06h0Z"/><path class="e" d="M88.92,64.56c-.18,.15-.8,.3-.75,.32,10.55,6.31,14.05,9.38,14.41,16.43,.2,3.7-2.01,9.05-3.83,12.42,0,0-1.52,1.69-1.41,2.49l.11-.07c3.12-2.61,6.98-11.16,6.77-14.95-.31-5.8-3.29-9.95-8.72-13.55-2.22-1.47-6.57-3.1-6.57-3.1Z"/><path class="k" d="M74.76,80.92s15.86,.48,17.65,.71c1.79,.23,6.64,.97,6.64,.97,0,0-25.23,.5-24.64,.41,.49-.08,.34-2.08,.34-2.08h0Z"/><path class="i" d="M97.72,83.39s-11.28,.08-14.02-.03c-2.74-.11-8.26-.28-8.86,.15-.61,.43-2.49,6.53-2.3,6.97,.19,.45,.71,.13,.71,.13,0,0,2.13-5.66,2.98-5.82,.85-.16,15.69-.6,17.8-.61,2.13,0,3.69-.79,3.69-.79h0Z"/></g><path class="l" d="M96.37,52.67c11.56,9.14,4.02,4.78,3.56,19.59l-2.19,.92-7.2-8.08s-1.23-5.49-1.14-5.84c.1-.34,2.69-3.52,2.69-3.52l4.28-3.06Z"/><path class="b" d="M72.37,56.26c1.48,.29,21.48-3.46,24-3.59-3.59,4.87-4.63,6.62-3.2,13.19-1.5,1.56-21.92,10.99-23.77,13.95-8.62-5.78-1.18-20.23,2.98-23.55h0Z"/><path class="d" d="M93.25,65.28s6.63,5.73,6.68,6.98c.04,1.24-12.11,9.11-15.15,11.68-3.04,2.57-4.44,4.15-4.93,4.31-.5,.18-11.68-7.73-11.14-8.9,2.46-3.09,22.63-12.8,24.54-14.08h0Z"/><path class="e" d="M72.31,56.25c-8.19,15.25-7.57,23.11,7.43,31.92-16.24-5.34-18.91-20.2-7.43-31.92Z"/><path class="k" d="M92.5,64.05c-2.79,1.51-17.85,10.15-20.67,12.88,0,0,22.51-11.4,21.95-11.2-.46,.16-1.28-1.68-1.28-1.68h0Z"/><path class="i" d="M73.37,77.01c2.7-1.07,16.73-9.5,20.26-10.63,.55,.21,6.88,5.32,4.73,5.52,0,0-4.54-4-5.36-3.74-2.49,.69-16.37,8.81-19.64,8.85Z"/></svg>