<?xml version="1.0" encoding="utf-8"?>
<!-- Generator: Adobe Illustrator 26.2.1, SVG Export Plug-In . SVG Version: 6.00 Build 0)  -->
<svg version="1.1" id="a" xmlns="http://www.w3.org/2000/svg" xmlns:xlink="http://www.w3.org/1999/xlink" x="0px" y="0px"
	 viewBox="0 0 152 133" style="enable-background:new 0 0 152 133;" xml:space="preserve">
<style type="text/css">
	.st0{fill:#FFD325;}
	.st1{fill:#FFCC05;}
	.st2{fill:#FDBB11;}
	.st3{fill:#FBB315;}
	.st4{fill:#FAA61B;}
	.st5{fill:#FBBF2B;}
	.st6{fill:#F58E52;}
	.st7{fill:#F37F45;}
	.st8{fill:#F1673D;}
	.st9{fill:#F2BD14;}
	.st10{fill:#F4BB03;}
	.st11{fill:#F2A906;}
	.st12{fill:#EFBA11;}
	.st13{fill:#F2B903;}
	.st14{fill:#F2A908;}
	.st15{fill:#EDA20A;}
	.st16{fill:#E87136;}
	.st17{fill:#EA6A32;}
	.st18{fill:#F2B800;}
	.st19{fill:#EAA40A;}
	.st20{fill:#E57138;}
	.st21{fill:#E2642D;}
	.st22{fill:#EAA50C;}
	.st23{fill:#EFBB14;}
	.st24{fill:#EDA70C;}
	.st25{fill:#EA6F39;}
	.st26{fill:#F4BE14;}
	.st27{fill:#F4BA00;}
	.st28{fill:#EFA706;}
	.st29{fill:#ED793E;}
	.st30{fill:#E25534;}
	.st31{fill:#FFCE45;}
	.st32{fill:#FFC610;}
	.st33{fill:#FFBB22;}
</style>
<g>
	<path class="st0" d="M52.8,64.1c2.7-0.2,10.1-2.1,12.4-2.8c0.8-0.2,1.4-0.7,2.3-1c1.3-0.4,2,1.1,3.7,1s1.4-0.6,3-0.7
		s1.6,1.1,2.3,1.1c1,0.1,1.6-0.7,2.2-0.9c0.8-0.3,0.9,0.1,1.8-0.6c0.7-0.5,0.8-0.9,1.7-1.3c0.9-0.4,1.4,0,2.4-0.7
		c1-0.7,1.1-1.5,1.9-2.2s2-0.5,4.6-1.7c2.6-1.2,7.5-3.3,9.1-4c2.2,0.2,7.2,6.1,5,17.2C103.5,77.3,96.8,85.8,81,89
		C67.5,91.8,52.4,79.2,52.8,64.1z"/>
	<path class="st1" d="M100.3,50.2c-1.5,0.6-6.4,2.8-9.1,4c-2.6,1.2-2.5,1.2-3.3,1.9c6.3,4.8,0.5,13-0.4,14c-1.8,2.2-4.4,3.8-7,4.8
		c-2.5,1-5.3,1.6-8,1.3c-1.7-0.2-3.4-0.8-4.9-1.6c-1.9-0.9-3.6-2.2-4.9-3.8c-1.2-1.3-2.2-2.9-2.7-4.6c-0.3-1.2-0.4-2.6,0.3-3.6
		c-2.8,0.7-5.9,1.4-7.4,1.5C52.4,79.2,67.5,91.8,81,89c15.8-3.3,22.5-11.7,24.4-21.6C107.5,56.3,102.5,50.4,100.3,50.2L100.3,50.2z"
		/>
	<path class="st2" d="M100.3,50.2c-1.5,0.6-6.4,2.8-9.1,4c-2.6,1.2-3.8,1-4.6,1.7c9.2-0.9,9.7,8.3,9.4,10.4
		c-0.2,2.2-1.8,5.3-3.1,7.1c-1.5,2-3.9,3.5-5.9,4.9c-2.1,1.4-4.3,2.5-6.7,3.3c-1.1,0.3-2.2,0.6-3.4,0.8c-1.4,0.2-2.8,0.1-4.1,0
		c-3.9-0.4-7.5-2.1-10.5-4.7c-0.7-0.6-1.4-1.3-2.1-2c-0.6-0.7-1.2-1.4-1.8-2.2c-0.7-1-1.3-2.1-1.8-3.2c-0.6-1.3-1.2-2.8-1.5-4.2
		c-0.1-0.7-0.3-1.4-0.2-2.2c-0.9,0.2-1.6,0.3-2.2,0.3c-0.4,15.1,14.7,27.7,28.1,25c15.8-3.3,22.5-11.7,24.4-21.6
		C107.4,56.3,102.5,50.4,100.3,50.2L100.3,50.2z"/>
	<path class="st3" d="M66.4,61.6c0.8,0.8,0.8,2.6,1.3,2.9c0.6,0.3,1.2-0.3,1.8,0c0.5,0.3,0.4,1.4,0.8,1.5c0.4,0.1,1.7-1.5,2.5-0.6
		c0.4,0.4,1.8,1.9,2.2,2c1.6,0.1,1.8-1.2,2.8-1.3c0.5,0,1.5,0.5,2.6,0.2c1-0.3,1.4-1.4,1.8-1.7c0.4-0.3,1.3-0.2,2-0.8
		c0.7-0.5,0.7-1.5,1.1-1.7c0.4-0.2,0.8-0.4,1.2-0.7c0.4-0.2,0.8-0.5,1-0.8c0.2-0.3,0.4-0.8,0.4-1.2c0-0.3-0.1-0.5-0.1-0.8
		c-0.1-0.7,0.4-1.3,0.9-1.8c0.4-0.4,0.9-0.8,1.4-1.2c0.1-0.1,0.3-0.2,0.4-0.3c0,0-0.2-0.2-0.2-0.3c0,0-0.1-0.1-0.1-0.2
		c-1.8,0.7-2.7,0.7-3.4,1.2c-0.8,0.7-1,1.5-1.9,2.2c-1,0.7-1.5,0.3-2.4,0.7c-0.9,0.4-1,0.8-1.7,1.3c-1,0.6-1.1,0.3-1.8,0.6
		c-0.6,0.2-1.2,1-2.2,0.9c-0.7,0-0.6-1.2-2.3-1.1s-1.4,0.6-3,0.7s-2.4-1.4-3.7-1c-0.8,0.2-1.3,0.6-1.9,0.9
		C65.9,61.2,66.1,61.4,66.4,61.6L66.4,61.6z"/>
	<path class="st4" d="M89.2,54.9c-0.4,0.4-0.9,0.8-1.3,1.2c-0.3,0.3-0.7,0.8-0.8,1.2c-0.1,0.4-0.2,0.8-0.3,1.2
		c-0.1,0.4-0.3,0.7-0.7,1c-0.4,0.3-0.8,0.5-1.2,0.8c-0.2,0.2-0.4,0.3-0.6,0.5c-0.2,0.2-0.3,0.5-0.4,0.7c-0.2,0.4-0.5,0.8-0.9,1
		c-0.4,0.2-0.8,0.4-1.1,0.5c-0.2,0.1-0.5,0.3-0.7,0.4c-0.2,0.1-0.3,0.3-0.5,0.3c-0.2,0.1-0.5,0.2-0.7,0.1c-0.5-0.2-0.9-0.8-1.5-0.6
		c-0.7,0.1-1.2,0.7-1.6,1.2c-0.4,0.4-0.8,0.9-1.4,1c-0.8,0.1-1.2-0.6-1.6-1.1C73.5,64,73,63.8,72.4,64c-0.4,0.1-0.7,0.4-1.1,0.4
		c-0.4,0.1-0.7-0.1-0.9-0.4c-0.2-0.2-0.3-0.5-0.6-0.6c-0.2-0.1-0.4-0.1-0.6-0.1c-0.3,0-0.6,0-0.9-0.1c-0.4-0.2-0.6-0.6-0.8-0.9
		c-0.2-0.3-0.4-0.7-0.7-0.9c-0.3-0.2-0.6-0.3-0.9-0.4c0,0-0.1,0-0.1,0c0.3,0.1,0.5,0.3,0.7,0.5c0.8,0.8,0.8,2.6,1.3,2.9
		c0.6,0.3,1.2-0.3,1.8,0c0.5,0.3,0.4,1.4,0.8,1.5c0.4,0.1,1.7-1.5,2.5-0.6c0.4,0.4,1.8,1.9,2.2,2c1.6,0.1,1.8-1.2,2.8-1.3
		c0.5,0,1.5,0.5,2.6,0.2c1-0.3,1.4-1.4,1.8-1.7c0.4-0.3,1.3-0.2,2-0.8c0.7-0.5,0.7-1.5,1.1-1.7c0.4-0.2,0.8-0.4,1.2-0.7
		c0.4-0.2,0.8-0.5,1-0.8c0.2-0.3,0.4-0.8,0.4-1.2c0-0.3-0.1-0.5-0.1-0.8c-0.1-0.7,0.4-1.3,0.9-1.8c0.4-0.4,0.9-0.8,1.4-1.2
		c0.1-0.1,0.3-0.2,0.4-0.3c0,0-0.2-0.2-0.2-0.3c0,0-0.1-0.1-0.1-0.2C89.8,54.8,89.5,54.9,89.2,54.9z"/>
	<path class="st5" d="M66.2,60.8c0.3-0.1,0.7-0.2,1-0.2c0.8-0.1,1.5,0.3,2.2,0.8c0.4,0.3,0.8,0.5,1.2,0.5c0.4,0,0.7-0.2,1.1-0.3
		c0.6-0.3,1.3-0.7,2.1-0.6c0.3,0.1,0.6,0.2,0.9,0.4c0.3,0.2,0.7,0.6,1.1,0.7c0.8,0.3,1.6-0.2,2.3-0.6c0.3-0.2,0.7-0.4,1.1-0.6
		c0.4-0.1,0.8-0.2,1.1-0.2c0.4-0.1,0.8-0.2,1.2-0.4c0.4-0.3,0.7-0.7,1-1c0.4-0.3,0.7-0.3,1.2-0.4c0.5,0,1-0.1,1.5-0.4
		c0.5-0.3,0.9-0.8,1.2-1.3c0.2-0.5,0.4-1,0.8-1.3c0.3-0.3,0.7-0.6,1.1-0.8c-0.6,0.2-1,0.3-1.3,0.6c-0.8,0.7-1,1.5-1.9,2.2
		c-1,0.7-1.5,0.3-2.4,0.7c-0.9,0.4-1,0.8-1.7,1.3c-1,0.6-1.1,0.3-1.8,0.6c-0.6,0.2-1.2,1-2.2,0.9c-0.7,0-0.6-1.2-2.3-1.1
		s-1.4,0.6-3,0.7s-2.4-1.4-3.7-1C67,60.4,66.5,60.7,66.2,60.8L66.2,60.8L66.2,60.8z"/>
	<path class="st6" d="M100.3,50.2c-3,0.1-6.9,2.3-11,4.7c0.1,0.2,0.3,0.7,0.2,0.9c3.9-1.8,8.2-1.2,9.6,0c7.1,7.4-0.8,20.6-6.4,25
		c-3.5,2.8-7.5,5.1-11.8,6c-4.3,0.9-9.5,0.2-13.4-1.8c-4-2.1-7-4.9-9.8-8.4c-2.7-3.5-4.5-8.2-4.5-12.7c-0.2,0-0.3,0-0.5,0
		c-0.4,15.1,14.7,27.7,28.3,25.5c14-2.3,23.8-12.6,25.7-22.4C108.9,56,102.5,50.4,100.3,50.2L100.3,50.2z"/>
	<path class="st7" d="M98.9,77.4c1.4-1.8,4.4-6.2,5-8.8c1.3-6,0.1-10.6-0.2-11.5c-0.9-2.7-4-5.9-3.1-6.9c-0.1,0-0.2,0-0.3-0.1
		c-3,0.1-6.9,2.3-11,4.7c0.1,0.2,0.3,0.7,0.2,0.9c3.9-1.8,8.2-1.2,9.6,0c7.1,7.4-0.8,20.6-6.4,25c-3.5,2.8-7.5,5.1-11.8,6
		c-4.3,0.9-9.5,0.2-13.4-1.8c-4-2.1-7-4.9-9.8-8.4c-2.7-3.5-4.5-8.2-4.5-12.7c-0.2,0-0.3,0-0.5,0c-0.4,15.1,14.7,27.7,28.3,25.5
		C92.7,86,98.3,78.3,98.9,77.4L98.9,77.4z"/>
	<path class="st8" d="M68.6,87.4c1.8,0.5,3.7,0.5,5.5,0.2c0.5-0.1,1.1-0.2,1.6-0.3c-2.9-0.2-5.7-0.9-8.1-2.2c-4-2.1-7-4.9-9.8-8.4
		c-2.7-3.5-4.5-8.2-4.5-12.7c-0.2,0-0.3,0-0.5,0c-0.3,9.6,5.7,18.1,13.5,22.5C67.1,86.9,67.8,87.2,68.6,87.4L68.6,87.4z"/>
	<path class="st8" d="M95.8,53.5c-0.2-0.6-0.6-1.2-0.9-1.7c-1.8,0.8-3.7,2-5.6,3.1c0.1,0.2,0.3,0.7,0.2,0.9c2.2-1,4.6-1.3,6.4-1.1
		C96,54.3,95.9,53.9,95.8,53.5L95.8,53.5z"/>
</g>
<g>
	<path class="st0" d="M36.4,89.6C39,89,46,86,48.2,84.9c0.8-0.4,1.3-0.9,2.2-1.4c1.2-0.6,2.2,0.8,3.8,0.4c1.6-0.4,1.2-0.8,2.9-1.2
		s1.8,0.8,2.4,0.7c1-0.1,1.5-0.9,2-1.2c0.7-0.4,0.9-0.1,1.7-0.8c0.6-0.6,0.7-1,1.5-1.6c0.8-0.5,1.4-0.2,2.2-1.1
		c0.8-0.8,0.9-1.7,1.6-2.5s1.9-0.8,4.3-2.4c2.4-1.6,6.9-4.5,8.3-5.3c2.2-0.2,8,4.9,7.7,16.2c-0.3,10-5.6,19.4-20.7,25.1
		C55.2,114.7,38.3,104.6,36.4,89.6L36.4,89.6z"/>
	<path class="st1" d="M81.1,68.6c-1.4,0.9-5.9,3.7-8.3,5.3c-2.4,1.6-2.2,1.6-3,2.4c7,3.8,2.5,12.8,1.8,13.9
		c-1.5,2.4-3.7,4.4-6.2,5.8c-2.3,1.4-5,2.4-7.7,2.5c-1.7,0.1-3.5-0.2-5.1-0.8c-2-0.7-3.8-1.7-5.5-3c-1.4-1.1-2.7-2.5-3.4-4.2
		c-0.5-1.1-0.8-2.5-0.2-3.6c-2.7,1.1-5.6,2.3-7.1,2.6c1.9,15,18.8,25.1,31.7,20.3c15.1-5.7,20.4-15.1,20.7-25.1
		C89.2,73.5,83.3,68.4,81.1,68.6L81.1,68.6z"/>
	<path class="st2" d="M81.1,68.6c-1.4,0.9-5.9,3.7-8.3,5.3c-2.4,1.6-3.6,1.6-4.3,2.4c9-2.3,10.8,6.6,10.9,8.8
		c0.1,2.2-0.9,5.5-1.9,7.4c-1.2,2.2-3.3,4.1-5.1,5.7c-1.8,1.7-3.9,3.2-6.2,4.3c-1,0.5-2.1,0.9-3.2,1.3c-1.3,0.4-2.7,0.6-4.1,0.6
		c-3.9,0.2-7.8-0.9-11.1-3c-0.8-0.5-1.6-1.1-2.4-1.7c-0.7-0.6-1.4-1.2-2.1-1.9C42.6,97,41.8,96,41.1,95c-0.8-1.2-1.6-2.5-2.2-3.9
		c-0.2-0.6-0.5-1.4-0.5-2.1c-0.8,0.3-1.6,0.5-2.1,0.7c1.9,15,18.8,25.1,31.7,20.3c15.1-5.7,20.4-15.1,20.7-25.1
		C89.2,73.5,83.3,68.4,81.1,68.6L81.1,68.6z"/>
	<path class="st3" d="M49.4,85.1c0.9,0.6,1.2,2.4,1.8,2.6c0.6,0.2,1.2-0.5,1.8-0.3c0.6,0.2,0.6,1.3,1,1.3c0.4,0,1.4-1.7,2.4-1
		c0.5,0.3,2.1,1.7,2.5,1.6c1.6-0.2,1.6-1.5,2.6-1.7c0.5-0.1,1.6,0.2,2.6-0.2c0.9-0.4,1.2-1.6,1.5-1.9c0.3-0.3,1.3-0.5,1.8-1.1
		c0.6-0.7,0.4-1.6,0.8-1.9c0.3-0.3,0.7-0.6,1.1-0.9c0.3-0.3,0.7-0.6,0.9-1c0.2-0.4,0.2-0.8,0.2-1.2c0-0.3-0.1-0.5-0.2-0.8
		c-0.2-0.7,0.2-1.4,0.6-1.9c0.4-0.5,0.8-0.9,1.2-1.4c0.1-0.1,0.2-0.3,0.4-0.4c0,0-0.2-0.2-0.2-0.2c-0.1,0-0.1-0.1-0.1-0.1
		c-1.7,1-2.6,1.1-3.2,1.7c-0.7,0.8-0.8,1.6-1.6,2.5c-0.8,0.9-1.4,0.6-2.2,1.1c-0.8,0.5-0.9,1-1.5,1.6c-0.9,0.8-1,0.4-1.7,0.8
		c-0.6,0.3-1.1,1.2-2,1.2c-0.7,0.1-0.8-1.1-2.4-0.7s-1.2,0.8-2.9,1.2s-2.6-1-3.8-0.4c-0.7,0.4-1.2,0.8-1.8,1.2
		C48.8,84.8,49.1,84.9,49.4,85.1L49.4,85.1z"/>
	<path class="st4" d="M70.9,75c-0.4,0.4-0.8,0.9-1.1,1.4c-0.2,0.4-0.5,0.8-0.6,1.3c-0.1,0.4,0,0.8-0.1,1.2c-0.1,0.4-0.2,0.8-0.5,1.1
		c-0.3,0.4-0.8,0.6-1.1,1c-0.2,0.2-0.4,0.4-0.5,0.6c-0.1,0.2-0.2,0.5-0.3,0.8c-0.2,0.4-0.4,0.8-0.8,1.1c-0.3,0.3-0.7,0.5-1,0.7
		c-0.2,0.2-0.4,0.3-0.6,0.5c-0.2,0.2-0.3,0.3-0.5,0.4c-0.2,0.2-0.5,0.2-0.7,0.2c-0.5-0.1-1-0.6-1.6-0.4c-0.7,0.2-1,0.9-1.4,1.5
		c-0.3,0.4-0.7,1-1.2,1.2c-0.7,0.2-1.3-0.4-1.8-0.9c-0.4-0.4-0.9-0.5-1.4-0.2c-0.3,0.2-0.7,0.5-1,0.6c-0.4,0.1-0.7,0-1-0.3
		c-0.2-0.2-0.4-0.4-0.7-0.5c-0.2,0-0.4,0-0.6,0c-0.3,0.1-0.6,0.1-0.9,0c-0.4-0.1-0.7-0.5-1-0.8c-0.3-0.3-0.5-0.6-0.8-0.8
		c-0.3-0.2-0.6-0.2-1-0.2c0,0-0.1,0.1-0.1,0.1c0.3,0.1,0.5,0.2,0.8,0.4c0.9,0.6,1.2,2.4,1.8,2.6c0.6,0.2,1.2-0.5,1.8-0.3
		c0.6,0.2,0.6,1.3,1,1.3c0.4,0,1.4-1.7,2.4-1c0.5,0.3,2.1,1.7,2.5,1.6c1.6-0.2,1.6-1.5,2.6-1.7c0.5-0.1,1.6,0.2,2.6-0.2
		c0.9-0.4,1.2-1.6,1.5-1.9c0.3-0.3,1.3-0.5,1.8-1.1c0.6-0.7,0.4-1.6,0.8-1.9c0.3-0.3,0.7-0.6,1.1-0.9c0.3-0.3,0.7-0.6,0.9-1
		c0.2-0.4,0.2-0.8,0.2-1.2c0-0.3-0.1-0.5-0.2-0.8c-0.2-0.7,0.2-1.4,0.6-1.9c0.4-0.5,0.8-0.9,1.2-1.4c0.1-0.1,0.2-0.3,0.4-0.4
		c0,0-0.2-0.2-0.2-0.2c-0.1,0-0.1-0.1-0.1-0.1C71.4,74.7,71.1,74.8,70.9,75L70.9,75z"/>
	<path class="st5" d="M49.1,84.4c0.3-0.2,0.7-0.3,1-0.4c0.8-0.3,1.5,0.1,2.2,0.4c0.4,0.2,0.8,0.4,1.3,0.3c0.4-0.1,0.7-0.3,1-0.5
		c0.6-0.4,1.2-0.9,2-0.9c0.3,0,0.6,0.2,0.9,0.3c0.4,0.2,0.7,0.5,1.2,0.5c0.8,0.2,1.5-0.4,2.1-0.9c0.3-0.3,0.6-0.5,1-0.7
		c0.3-0.2,0.7-0.3,1.1-0.4c0.4-0.1,0.8-0.3,1.1-0.6c0.4-0.3,0.6-0.8,0.9-1.1c0.3-0.3,0.7-0.4,1.1-0.6c0.5-0.1,1-0.3,1.4-0.6
		c0.5-0.4,0.7-0.9,0.9-1.4c0.2-0.5,0.3-1,0.6-1.4c0.2-0.4,0.6-0.7,0.9-0.9c-0.5,0.2-0.9,0.4-1.2,0.8c-0.7,0.8-0.8,1.6-1.6,2.5
		c-0.8,0.9-1.4,0.6-2.2,1.1c-0.8,0.5-0.9,1-1.5,1.6c-0.9,0.8-1,0.4-1.7,0.8c-0.6,0.3-1.1,1.2-2,1.2c-0.7,0.1-0.8-1.1-2.4-0.7
		s-1.2,0.8-2.9,1.2s-2.6-1-3.8-0.4C49.8,83.8,49.4,84.1,49.1,84.4L49.1,84.4L49.1,84.4z"/>
	<path class="st6" d="M81.1,68.6c-3,0.5-6.5,3.4-10.1,6.4c0.1,0.2,0.4,0.6,0.4,0.8c3.6-2.4,7.8-2.5,9.5-1.5
		c8.1,6.2,2.4,20.5-2.4,25.7c-3,3.3-6.6,6.2-10.8,7.8c-4.1,1.6-9.4,1.7-13.5,0.3c-4.2-1.4-7.7-3.7-11-6.8c-3.2-3-5.7-7.3-6.4-11.8
		c-0.2,0.1-0.3,0.1-0.5,0.1c1.9,15,18.8,25.1,31.9,20.8c13.5-4.4,21.6-16.1,21.9-26.1C90.5,73,83.3,68.4,81.1,68.6L81.1,68.6z"/>
	<path class="st7" d="M84,95.7c1.1-2,3.4-6.8,3.5-9.5c0.4-6.2-1.5-10.4-2-11.3c-1.3-2.6-4.8-5.2-4.1-6.3c-0.1,0-0.2,0-0.3,0
		c-3,0.5-6.5,3.4-10.1,6.4c0.1,0.2,0.4,0.6,0.4,0.8c3.6-2.4,7.8-2.5,9.5-1.5c8.1,6.2,2.4,20.5-2.4,25.7c-3,3.3-6.6,6.2-10.8,7.8
		c-4.1,1.6-9.4,1.7-13.5,0.3c-4.2-1.4-7.7-3.7-11-6.8c-3.2-3-5.7-7.3-6.4-11.8c-0.2,0.1-0.3,0.1-0.5,0.1c1.9,15,18.8,25.1,31.9,20.8
		C79.2,105.1,83.5,96.6,84,95.7L84,95.7z"/>
	<path class="st8" d="M55.5,110.2c1.8,0.2,3.7,0,5.5-0.6c0.5-0.2,1-0.4,1.5-0.6c-2.8,0.3-5.8,0-8.3-0.9c-4.2-1.4-7.7-3.7-11-6.8
		c-3.2-3-5.7-7.3-6.4-11.8c-0.2,0.1-0.3,0.1-0.5,0.1c1.2,9.5,8.4,17,16.9,20.2C54,110,54.8,110.1,55.5,110.2L55.5,110.2z"/>
	<path class="st8" d="M77.2,72.6C76.9,72,76.5,71.5,76,71c-1.6,1.1-3.3,2.5-5,3.9c0.1,0.2,0.4,0.6,0.4,0.8c2.1-1.4,4.3-2,6.2-2.1
		C77.5,73.3,77.4,72.9,77.2,72.6z"/>
</g>
<g>
	<path class="st9" d="M57.1,63c-0.4,2.7-0.2,10.3-0.1,12.7c0.1,0.8,0.4,1.5,0.5,2.5c0.1,1.3-1.5,1.7-1.8,3.4s0.3,1.4,0,3.1
		c-0.2,1.7-1.4,1.3-1.6,2c-0.3,0.9,0.3,1.7,0.4,2.4c0.1,0.8-0.3,0.8,0.1,1.9c0.3,0.8,0.7,1,0.9,1.9c0.2,0.9-0.3,1.3,0.2,2.5
		c0.5,1.1,1.2,1.4,1.7,2.4s0,2,0.6,4.9c0.6,2.8,1.5,8.1,1.8,9.7c-0.7,2.1-7.6,5.6-17.9,1c-9.1-4.1-15.9-12.5-15.5-28.6
		C26.7,71,42.5,59.1,57.1,63L57.1,63z"/>
	<path class="st10" d="M59.8,112.4c-0.3-1.6-1.2-6.9-1.8-9.7c-0.6-2.8-0.6-2.7-1.1-3.6c-6.1,5.1-12.8-2.5-13.6-3.6
		c-1.7-2.3-2.7-5.1-3.1-7.9c-0.4-2.7-0.3-5.5,0.6-8.1c0.6-1.6,1.5-3.1,2.6-4.5c1.3-1.6,3-2.9,4.8-3.9c1.6-0.9,3.3-1.5,5.1-1.6
		c1.2,0,2.6,0.2,3.5,1.1c0-2.9,0-6.1,0.2-7.6c-14.6-3.8-30.4,8-30.7,21.8c-0.4,16.2,6.3,24.6,15.5,28.6
		C52.2,118,59.1,114.4,59.8,112.4z"/>
	<path class="st11" d="M59.8,112.4c-0.3-1.6-1.2-6.9-1.8-9.7c-0.6-2.8-0.2-3.9-0.6-4.9c-1.2,9.2-10.2,7.5-12.3,6.8
		c-2.1-0.7-4.8-2.9-6.2-4.6c-1.6-1.9-2.5-4.6-3.4-6.8c-0.9-2.3-1.5-4.8-1.7-7.3c-0.1-1.2-0.1-2.3,0-3.5c0.2-1.4,0.5-2.7,1-4
		c1.3-3.7,3.8-6.8,6.9-9.2c0.8-0.6,1.6-1.1,2.5-1.6c0.8-0.4,1.6-0.9,2.5-1.2c1.2-0.4,2.3-0.8,3.6-1c1.5-0.3,3-0.6,4.5-0.5
		c0.7,0,1.5,0.1,2.2,0.3c0-0.9,0.1-1.7,0.2-2.2c-14.6-3.8-30.4,8-30.7,21.8c-0.4,16.2,6.3,24.6,15.5,28.6
		C52.2,118,59.1,114.4,59.8,112.4L59.8,112.4z"/>
	<path class="st3" d="M56.4,76.7c-0.9,0.6-2.7,0.2-3.1,0.6c-0.4,0.5,0,1.3-0.4,1.7c-0.4,0.4-1.5,0.1-1.6,0.4s1,1.9,0.1,2.6
		c-0.5,0.3-2.3,1.3-2.4,1.7c-0.4,1.5,0.8,2,0.6,3c-0.1,0.5-0.8,1.4-0.7,2.5c0.1,1,1.1,1.7,1.2,2.1c0.2,0.4,0,1.3,0.3,2.1
		c0.4,0.8,1.3,1,1.5,1.4c0.1,0.4,0.2,0.9,0.4,1.3c0.1,0.4,0.3,0.9,0.6,1.2c0.3,0.3,0.7,0.5,1,0.6c0.3,0.1,0.5,0.1,0.8,0.1
		c0.7,0.1,1.2,0.7,1.6,1.3c0.3,0.5,0.6,1.1,0.8,1.6c0.1,0.2,0.2,0.3,0.2,0.5c0,0.1,0.3-0.1,0.3-0.1c0.1,0,0.1-0.1,0.2-0.1
		c-0.2-1.9,0-2.8-0.4-3.6c-0.5-0.9-1.2-1.3-1.7-2.4c-0.5-1.1,0-1.5-0.2-2.5c-0.2-0.9-0.6-1.2-0.9-1.9c-0.4-1.1,0-1.1-0.1-1.9
		c-0.1-0.7-0.7-1.4-0.4-2.4c0.2-0.7,1.4-0.3,1.6-2s-0.3-1.4,0-3.1c0.2-1.7,1.9-2.1,1.8-3.4c-0.1-0.8-0.3-1.4-0.4-2.1
		C56.9,76.4,56.7,76.6,56.4,76.7L56.4,76.7z"/>
	<path class="st4" d="M57.7,100.5c-0.3-0.5-0.6-1-0.9-1.5c-0.3-0.4-0.6-0.8-1-1.1c-0.3-0.2-0.7-0.3-1.1-0.5
		c-0.4-0.2-0.6-0.5-0.8-0.9c-0.2-0.4-0.3-0.9-0.5-1.4c-0.1-0.2-0.2-0.5-0.4-0.7c-0.2-0.2-0.4-0.4-0.6-0.6c-0.3-0.3-0.6-0.7-0.8-1.2
		c-0.1-0.4-0.2-0.8-0.3-1.2c-0.1-0.3-0.1-0.5-0.2-0.8c-0.1-0.2-0.2-0.4-0.2-0.6c-0.1-0.2,0-0.5,0.1-0.7c0.3-0.5,1-0.7,1-1.3
		c0-0.7-0.5-1.3-0.8-1.9c-0.3-0.4-0.7-1-0.6-1.6c0.1-0.8,0.9-1,1.5-1.3c0.5-0.2,0.8-0.7,0.7-1.2c0-0.4-0.2-0.8-0.2-1.2
		c0-0.4,0.3-0.7,0.6-0.8c0.3-0.1,0.5-0.2,0.7-0.5c0.1-0.2,0.2-0.4,0.2-0.6c0.1-0.3,0.1-0.6,0.3-0.8c0.3-0.3,0.7-0.4,1.1-0.6
		c0.3-0.1,0.7-0.3,1-0.5c0.3-0.2,0.5-0.5,0.6-0.8c0,0,0-0.1,0-0.1c-0.2,0.2-0.4,0.4-0.7,0.6c-0.9,0.6-2.7,0.2-3.1,0.6
		c-0.4,0.5,0,1.3-0.4,1.7c-0.4,0.4-1.5,0.1-1.6,0.4s1,1.9,0.1,2.6c-0.5,0.3-2.3,1.3-2.4,1.7c-0.4,1.5,0.8,2,0.6,3
		c-0.1,0.5-0.8,1.4-0.7,2.5c0.1,1,1.1,1.7,1.2,2.1c0.2,0.4,0,1.3,0.3,2.1c0.4,0.8,1.3,1,1.5,1.4c0.1,0.4,0.2,0.9,0.4,1.3
		c0.1,0.4,0.3,0.9,0.6,1.2c0.3,0.3,0.7,0.5,1,0.6c0.3,0.1,0.5,0.1,0.8,0.1c0.7,0.1,1.2,0.7,1.6,1.3c0.3,0.5,0.6,1.1,0.8,1.6
		c0.1,0.2,0.2,0.3,0.2,0.5c0,0.1,0.3-0.1,0.3-0.1c0.1,0,0.1-0.1,0.2-0.1C57.7,101,57.7,100.8,57.7,100.5L57.7,100.5z"/>
	<path class="st5" d="M57.2,76.7c0,0.4,0,0.7,0,1.1c-0.1,0.9-0.6,1.4-1.2,1.9c-0.3,0.3-0.7,0.6-0.8,1.1c-0.1,0.4,0,0.7,0.1,1.1
		c0.2,0.7,0.4,1.5,0.1,2.2c-0.2,0.3-0.4,0.5-0.6,0.7c-0.3,0.3-0.7,0.5-0.9,0.9c-0.5,0.7-0.2,1.6,0,2.3c0.1,0.4,0.3,0.8,0.3,1.2
		c0,0.4,0,0.8,0,1.2c0,0.4,0,0.8,0.1,1.2c0.2,0.5,0.5,0.8,0.7,1.2c0.2,0.4,0.2,0.8,0.1,1.2c-0.1,0.5-0.1,1,0,1.5
		c0.2,0.6,0.5,1,1,1.4c0.4,0.3,0.8,0.6,1.1,1.1c0.2,0.4,0.4,0.8,0.5,1.2c0-0.6-0.1-1-0.2-1.4c-0.5-0.9-1.2-1.3-1.7-2.4
		c-0.5-1.1,0-1.5-0.2-2.5c-0.2-0.9-0.6-1.2-0.9-1.9c-0.4-1.1,0-1.1-0.1-1.9c-0.1-0.7-0.7-1.4-0.4-2.4c0.2-0.7,1.4-0.3,1.6-2
		s-0.3-1.4,0-3.1c0.2-1.7,1.9-2.1,1.8-3.4C57.4,77.6,57.3,77.1,57.2,76.7L57.2,76.7L57.2,76.7z"/>
	<path class="st6" d="M59.8,112.4c0.6-3-0.7-7.3-2.1-11.8c-0.2,0-0.7,0.1-0.9,0c0.9,4.2-0.6,8.2-2.2,9.3c-8.8,5.2-19.9-5.5-23-11.9
		c-1.9-4-3.3-8.4-3.2-12.9c0.1-4.4,2-9.3,4.8-12.6c2.9-3.4,6.3-5.7,10.4-7.6c4-1.9,9-2.5,13.4-1.5c0-0.2,0-0.3,0.1-0.5
		c-14.6-3.8-30.3,8-31.2,21.7c-0.9,14.2,6.8,26,16,30.1C52.2,119.4,59.1,114.4,59.8,112.4L59.8,112.4z"/>
	<path class="st8" d="M33.6,104.8c1.4,1.8,5,5.7,7.5,6.8c5.6,2.7,10.3,2.5,11.2,2.4c2.9-0.2,6.6-2.5,7.4-1.5c0-0.1,0.1-0.2,0.1-0.3
		c0.6-3-0.7-7.3-2.1-11.8c-0.2,0-0.7,0.1-0.9,0c0.9,4.2-0.6,8.2-2.2,9.3c-8.8,5.2-19.9-5.5-23-11.9c-1.9-4-3.3-8.4-3.2-12.9
		c0.1-4.4,2-9.3,4.8-12.6c2.9-3.4,6.3-5.7,10.4-7.6c4-1.9,9-2.5,13.4-1.5c0-0.2,0-0.3,0.1-0.5c-14.6-3.8-30.3,8-31.2,21.7
		C26.7,96.9,32.9,104,33.6,104.8L33.6,104.8z"/>
	<path class="st8" d="M30.8,73c-0.9,1.6-1.4,3.4-1.5,5.3c0,0.5,0,1.1,0,1.6c0.8-2.7,2.2-5.4,4-7.4c2.9-3.4,6.3-5.7,10.4-7.6
		c4-1.9,9-2.5,13.4-1.5c0-0.2,0-0.3,0.1-0.5c-9.2-2.4-18.9,1.4-25,8.1C31.6,71.7,31.2,72.3,30.8,73L30.8,73z"/>
	<path class="st8" d="M57.5,107.2c0.6-0.1,1.2-0.3,1.8-0.5c-0.4-1.9-1.1-4-1.7-6.1c-0.2,0-0.7,0.1-0.9,0c0.5,2.4,0.2,4.8-0.4,6.5
		C56.7,107.2,57.1,107.3,57.5,107.2z"/>
</g>
<g>
	<path class="st0" d="M64.8,58c-2.5,1-8.9,5.2-10.9,6.6c-0.7,0.5-1.1,1.1-1.9,1.7c-1.1,0.8-2.2-0.4-3.8,0.3s-1.1,1-2.7,1.6
		c-1.5,0.7-1.9-0.5-2.5-0.3c-1,0.2-1.3,1.2-1.8,1.6c-0.7,0.5-0.8,0.2-1.6,1.1c-0.5,0.6-0.5,1.1-1.2,1.8c-0.7,0.7-1.3,0.4-2,1.4
		c-0.7,1-0.6,1.8-1.2,2.7s-1.7,1.1-3.8,3.1s-6.1,5.5-7.4,6.6c-2.1,0.5-8.7-3.5-10.2-14.8c-1.3-9.9,2.3-20.1,16.3-28.2
		C42,36.4,60.4,43.6,64.8,58L64.8,58z"/>
	<path class="st1" d="M24.1,86.2c1.3-1.1,5.2-4.7,7.4-6.6c2.1-2,2-1.9,2.5-2.8c-7.5-2.6-4.6-12.2-4.1-13.4c1.1-2.7,3-5,5.1-6.8
		c2.1-1.7,4.5-3.2,7.2-3.8c1.7-0.4,3.5-0.3,5.2-0.1c2.1,0.3,4.1,1,5.9,2c1.6,0.9,3,2,4,3.5c0.7,1,1.2,2.3,0.8,3.5
		c2.4-1.5,5.2-3.2,6.6-3.8C60.3,43.6,42,36.4,30.1,43.3c-14,8.1-17.6,18.3-16.3,28.2C15.3,82.7,21.9,86.7,24.1,86.2L24.1,86.2z"/>
	<path class="st2" d="M24.1,86.2c1.3-1.1,5.2-4.7,7.4-6.6c2.1-2,3.2-2.2,3.8-3.1c-8.5,3.8-11.8-4.8-12.2-6.9c-0.5-2.1,0-5.6,0.7-7.7
		c0.8-2.3,2.6-4.5,4.1-6.5c1.5-2,3.3-3.8,5.4-5.2c0.9-0.7,1.9-1.3,3-1.8c1.2-0.6,2.6-1,3.9-1.3c3.8-0.8,7.8-0.4,11.4,1.1
		c0.9,0.4,1.8,0.8,2.6,1.3c0.8,0.5,1.6,0.9,2.3,1.5c1,0.7,1.9,1.6,2.7,2.5c1,1.1,2,2.2,2.8,3.5c0.3,0.6,0.7,1.3,0.8,2
		c0.8-0.4,1.5-0.8,2-1C60.4,43.6,42,36.4,30.1,43.2c-14,8.1-17.6,18.3-16.3,28.2C15.3,82.6,22,86.7,24.1,86.2L24.1,86.2z"/>
	<path class="st3" d="M52.7,64.7c-1-0.5-1.5-2.2-2.2-2.3c-0.6-0.1-1.1,0.7-1.7,0.5c-0.6-0.1-0.8-1.2-1.2-1.2c-0.4,0-1.1,1.9-2.2,1.4
		c-0.5-0.2-2.4-1.3-2.7-1.2c-1.5,0.4-1.3,1.7-2.2,2.1c-0.5,0.2-1.6,0-2.5,0.7c-0.8,0.6-0.9,1.8-1.2,2.2c-0.3,0.4-1.2,0.7-1.6,1.4
		c-0.5,0.7-0.2,1.7-0.5,2c-0.3,0.3-0.6,0.7-0.9,1c-0.3,0.3-0.6,0.7-0.7,1.1c-0.1,0.4-0.1,0.8,0,1.2c0.1,0.3,0.2,0.5,0.3,0.8
		c0.3,0.7,0,1.4-0.3,2c-0.3,0.5-0.6,1.1-0.9,1.6c-0.1,0.2-0.2,0.3-0.3,0.4c0,0.1,0.2,0.2,0.3,0.2c0,0,0.1,0.1,0.2,0.1
		c1.5-1.2,2.4-1.5,2.9-2.2c0.6-0.9,0.5-1.7,1.2-2.7c0.7-1,1.3-0.8,2-1.4s0.7-1.1,1.2-1.8c0.7-0.9,0.9-0.6,1.6-1.1
		c0.5-0.4,0.9-1.3,1.8-1.6c0.7-0.2,1,1,2.5,0.3c1.5-0.7,1.1-1,2.7-1.6c1.5-0.7,2.7,0.5,3.8-0.3c0.7-0.5,1-1,1.5-1.4
		C53.2,64.9,53,64.8,52.7,64.7L52.7,64.7z"/>
	<path class="st4" d="M33.1,78.2c0.3-0.5,0.6-1,0.8-1.6c0.2-0.4,0.4-0.9,0.4-1.4c0-0.4-0.1-0.8-0.1-1.2c0-0.4,0.1-0.8,0.3-1.1
		c0.3-0.4,0.6-0.8,0.9-1.2c0.2-0.2,0.3-0.4,0.4-0.7c0.1-0.3,0.1-0.5,0.2-0.8c0.1-0.5,0.3-0.9,0.6-1.2c0.3-0.3,0.6-0.6,0.9-0.9
		c0.2-0.2,0.4-0.4,0.5-0.6c0.1-0.2,0.2-0.3,0.4-0.5c0.2-0.2,0.4-0.3,0.7-0.3c0.6,0,1.1,0.5,1.6,0.1c0.6-0.3,0.9-1.1,1.2-1.7
		c0.2-0.5,0.5-1.1,1-1.4c0.7-0.3,1.3,0.2,1.9,0.6c0.5,0.3,1,0.3,1.4,0c0.3-0.2,0.6-0.6,0.9-0.8c0.4-0.2,0.7-0.1,1,0.1
		c0.2,0.2,0.5,0.3,0.8,0.3c0.2,0,0.4,0,0.6-0.1c0.3-0.1,0.6-0.2,0.9-0.2c0.4,0.1,0.8,0.4,1.1,0.6c0.3,0.2,0.6,0.5,1,0.6
		c0.3,0.1,0.7,0.1,1,0.1c0,0,0.1-0.1,0.1-0.1c-0.3,0-0.6-0.1-0.8-0.2c-1-0.5-1.5-2.2-2.2-2.3c-0.6-0.1-1.1,0.7-1.7,0.5
		c-0.6-0.1-0.8-1.2-1.2-1.2c-0.4,0-1.1,1.9-2.2,1.4c-0.5-0.2-2.4-1.3-2.7-1.2c-1.5,0.4-1.3,1.7-2.2,2.1c-0.5,0.2-1.6,0-2.5,0.7
		c-0.8,0.6-0.9,1.8-1.2,2.2c-0.3,0.4-1.2,0.7-1.6,1.4c-0.5,0.7-0.2,1.7-0.5,2c-0.3,0.3-0.6,0.7-0.9,1c-0.3,0.3-0.6,0.7-0.7,1.1
		c-0.1,0.4-0.1,0.8,0,1.2c0.1,0.3,0.2,0.5,0.3,0.8c0.3,0.7,0,1.4-0.3,2c-0.3,0.5-0.6,1.1-0.9,1.6c-0.1,0.2-0.2,0.3-0.3,0.4
		c0,0.1,0.2,0.2,0.3,0.2c0,0,0.1,0.1,0.2,0.1C32.6,78.6,32.9,78.4,33.1,78.2L33.1,78.2z"/>
	<path class="st5" d="M53.1,65.3c-0.3,0.2-0.6,0.4-0.9,0.5c-0.8,0.4-1.5,0.2-2.3-0.1c-0.4-0.1-0.9-0.3-1.3-0.1
		c-0.4,0.1-0.6,0.4-0.9,0.7c-0.5,0.5-1,1.1-1.8,1.2c-0.3,0-0.6,0-1-0.1c-0.4-0.1-0.8-0.3-1.2-0.3c-0.9,0-1.5,0.7-2,1.3
		c-0.3,0.3-0.5,0.6-0.8,0.9c-0.3,0.2-0.7,0.4-1,0.6c-0.4,0.2-0.7,0.4-1,0.7c-0.3,0.4-0.4,0.8-0.7,1.2c-0.2,0.4-0.6,0.6-1,0.7
		c-0.5,0.2-0.9,0.4-1.3,0.8c-0.4,0.4-0.6,1-0.7,1.6c-0.1,0.5-0.1,1.1-0.3,1.5c-0.2,0.4-0.5,0.7-0.8,1.1c0.5-0.3,0.8-0.6,1.1-1
		c0.6-0.9,0.5-1.7,1.2-2.7c0.7-1,1.3-0.8,2-1.4s0.7-1.1,1.2-1.8c0.7-0.9,0.9-0.6,1.6-1.1c0.5-0.4,0.9-1.3,1.8-1.6
		c0.7-0.2,1,1,2.5,0.3c1.5-0.7,1.1-1,2.7-1.6c1.5-0.7,2.7,0.5,3.8-0.3C52.5,66,52.8,65.6,53.1,65.3L53.1,65.3L53.1,65.3z"/>
	<path class="st6" d="M24.1,86.2c2.9-1,5.8-4.4,8.9-7.9c-0.2-0.2-0.5-0.5-0.5-0.8c-3.2,3-7.3,3.8-9.1,3c-9-4.8-5.8-19.8-1.9-25.8
		c2.4-3.7,5.5-7.2,9.3-9.5c3.8-2.2,9-3.2,13.3-2.5c4.4,0.7,8.2,2.4,11.9,4.8c3.7,2.4,6.8,6.3,8.2,10.6c0.2-0.1,0.3-0.2,0.5-0.2
		C60.4,43.6,42,36.4,29.9,42.8c-12.5,6.6-18.6,19.5-17.3,29.4C14.1,83.4,22,86.7,24.1,86.2L24.1,86.2z"/>
	<path class="st7" d="M16.8,59.9c-0.8,2.1-2.2,7.2-1.9,9.9c0.6,6.1,3.2,10.1,3.8,10.8c1.7,2.3,5.6,4.3,5.1,5.6c0.1,0,0.2,0,0.3-0.1
		c2.9-1,5.8-4.4,9-7.9c-0.2-0.2-0.5-0.5-0.5-0.8c-3.2,3-7.3,3.8-9.1,3c-9-4.8-5.8-19.8-1.9-25.8c2.4-3.7,5.5-7.2,9.3-9.5
		c3.8-2.2,9-3.2,13.3-2.5c4.4,0.7,8.2,2.4,11.9,4.8c3.7,2.4,6.8,6.3,8.2,10.6c0.2-0.1,0.3-0.2,0.5-0.2C60.3,43.6,42,36.4,29.9,42.8
		C19.9,49.9,17.1,58.9,16.8,59.9L16.8,59.9z"/>
	<path class="st8" d="M42.4,40.9c-1.8,0.1-3.6,0.7-5.3,1.5c-0.5,0.2-0.9,0.5-1.4,0.8c2.8-0.7,5.7-0.9,8.4-0.5
		c4.4,0.7,8.2,2.4,11.9,4.8c3.7,2.4,6.8,6.3,8.2,10.6c0.2-0.1,0.3-0.2,0.5-0.2C62,48.9,53.6,42.7,44.8,41
		C44,40.9,43.2,40.9,42.4,40.9L42.4,40.9z"/>
	<path class="st8" d="M27.3,81.6c0.4,0.5,0.9,0.9,1.4,1.3c1.4-1.4,2.9-3,4.3-4.7c-0.2-0.2-0.5-0.5-0.5-0.8c-1.8,1.7-3.9,2.7-5.8,3.1
		C26.8,80.9,27,81.3,27.3,81.6L27.3,81.6z"/>
</g>
<g>
	<path class="st12" d="M29.5,16.3c2.5,1,10,2.5,12.4,2.9c0.8,0.1,1.6,0,2.6,0.1c1.3,0.2,1.3,1.9,2.9,2.5c1.6,0.6,1.5,0.1,3,0.7
		c1.6,0.6,1,1.7,1.6,2c0.8,0.5,1.7,0.1,2.4,0.1c0.8,0.1,0.7,0.4,1.9,0.3c0.8-0.1,1.1-0.5,2.1-0.4s1.2,0.6,2.4,0.4
		c1.2-0.2,1.7-0.9,2.7-1.1s2,0.4,4.9,0.5c2.9,0.1,8.2,0.3,9.9,0.4c1.9,1.1,3.8,8.6-3,17.7c-6,8-15.7,12.7-31.4,8.7
		C30.6,47.7,22.6,29.7,29.5,16.3L29.5,16.3z"/>
	<path class="st13" d="M78.3,24.7c-1.7-0.1-7-0.3-9.9-0.4s-2.8,0-3.8,0.2c3.6,7.1-5.3,11.9-6.5,12.5c-2.6,1.2-5.6,1.5-8.4,1.2
		c-2.7-0.2-5.5-0.9-7.8-2.4c-1.5-0.9-2.7-2.2-3.8-3.6c-1.2-1.7-2.2-3.6-2.8-5.6c-0.5-1.7-0.8-3.5-0.4-5.3c0.2-1.2,0.8-2.5,1.9-3.1
		c-2.8-0.6-5.9-1.4-7.3-1.9c-7,13.4,1,31.4,14.4,34.8c15.7,4,25.4-0.7,31.4-8.7C82,33.3,80.2,25.8,78.3,24.7L78.3,24.7z"/>
	<path class="st14" d="M78.3,24.7c-1.7-0.1-7-0.3-9.9-0.4s-3.8-0.7-4.9-0.5c8.7,3.2,5.1,11.7,3.9,13.5c-1.2,1.8-3.9,4-5.8,5
		c-2.2,1.1-5,1.5-7.4,1.8c-2.5,0.3-5,0.4-7.5,0c-1.2-0.2-2.3-0.4-3.4-0.8c-1.3-0.5-2.5-1.1-3.7-1.8c-3.3-2.1-5.8-5.2-7.4-8.8
		c-0.4-0.9-0.7-1.8-1-2.8c-0.3-0.9-0.5-1.8-0.6-2.7c-0.2-1.2-0.2-2.5-0.2-3.7c0-1.5,0.1-3,0.5-4.5c0.2-0.7,0.4-1.4,0.8-2
		c-0.9-0.2-1.6-0.5-2.1-0.7c-7,13.4,1,31.4,14.4,34.8c15.7,4,25.4-0.7,31.4-8.7C82,33.3,80.1,25.8,78.3,24.7L78.3,24.7z"/>
	<path class="st15" d="M42.8,20c0.3,1-0.4,2.6-0.1,3.2c0.4,0.5,1.2,0.2,1.6,0.8c0.3,0.5-0.2,1.4,0.1,1.7s2.1-0.6,2.5,0.5
		c0.2,0.5,0.8,2.6,1.1,2.7c1.4,0.8,2.2-0.3,3.1,0.1c0.5,0.2,1.2,1.1,2.2,1.3c1,0.1,1.9-0.6,2.3-0.7c0.5-0.1,1.3,0.4,2.1,0.2
		c0.9-0.2,1.3-1.1,1.7-1.1c0.5,0,0.9,0,1.4-0.1c0.4,0,0.9-0.1,1.3-0.3c0.3-0.2,0.7-0.5,0.8-0.9c0.1-0.2,0.2-0.5,0.3-0.8
		c0.3-0.7,0.9-1,1.6-1.2c0.6-0.2,1.2-0.3,1.8-0.5c0.2,0,0.3-0.1,0.5-0.1c0.1,0,0-0.3-0.1-0.3c0-0.1,0-0.1,0-0.2
		c-1.9-0.2-2.8-0.6-3.6-0.4c-1,0.2-1.5,0.9-2.7,1.1c-1.2,0.2-1.5-0.4-2.4-0.4c-1,0-1.3,0.3-2.1,0.4c-1.2,0.1-1.1-0.2-1.9-0.3
		c-0.7-0.1-1.5,0.3-2.4-0.1c-0.6-0.4,0-1.4-1.6-2c-1.6-0.6-1.5-0.1-3-0.7c-1.6-0.6-1.6-2.3-2.9-2.5c-0.8-0.1-1.4,0-2.1-0.1
		C42.5,19.5,42.7,19.7,42.8,20L42.8,20z"/>
	<path class="st4" d="M66.3,24.1c-0.6,0.1-1.1,0.3-1.7,0.5c-0.4,0.2-0.9,0.4-1.3,0.7c-0.3,0.3-0.5,0.6-0.8,0.9
		c-0.3,0.3-0.6,0.5-1,0.6c-0.5,0.1-1,0.1-1.5,0.2c-0.3,0-0.5,0.1-0.8,0.2c-0.3,0.1-0.5,0.3-0.7,0.5c-0.4,0.3-0.8,0.4-1.3,0.5
		c-0.4,0-0.8,0-1.2,0c-0.3,0-0.5,0-0.8,0.1c-0.2,0-0.4,0.1-0.6,0.1c-0.3,0-0.5-0.1-0.7-0.3c-0.4-0.4-0.4-1.1-1.1-1.2
		c-0.7-0.2-1.4,0.1-2,0.4c-0.5,0.2-1.2,0.5-1.7,0.3c-0.7-0.3-0.8-1.1-1-1.7c-0.1-0.5-0.5-0.9-1-1c-0.4,0-0.8,0-1.2-0.1
		c-0.4-0.1-0.6-0.4-0.7-0.8c0-0.3-0.1-0.6-0.3-0.8c-0.2-0.1-0.3-0.2-0.5-0.3c-0.3-0.1-0.6-0.2-0.8-0.5c-0.2-0.3-0.3-0.8-0.3-1.2
		c-0.1-0.4-0.1-0.8-0.2-1.1c-0.2-0.3-0.4-0.5-0.7-0.7c0,0-0.1,0-0.1,0c0.2,0.2,0.3,0.5,0.4,0.8c0.3,1-0.4,2.6-0.1,3.2
		c0.4,0.5,1.2,0.2,1.6,0.8c0.3,0.5-0.2,1.4,0.1,1.7s2.1-0.6,2.5,0.5c0.2,0.5,0.8,2.6,1.1,2.7c1.4,0.8,2.2-0.3,3.1,0.1
		c0.5,0.2,1.2,1.1,2.2,1.3c1,0.1,1.9-0.6,2.3-0.7c0.5-0.1,1.3,0.4,2.1,0.2c0.9-0.2,1.3-1.1,1.7-1.1c0.5,0,0.9,0,1.4-0.1
		c0.4,0,0.9-0.1,1.3-0.3c0.3-0.2,0.7-0.5,0.8-0.9c0.1-0.2,0.2-0.5,0.3-0.8c0.3-0.7,0.9-1,1.6-1.2c0.6-0.2,1.2-0.3,1.8-0.5
		c0.2,0,0.3-0.1,0.5-0.1c0.1,0,0-0.3-0.1-0.3c0-0.1,0-0.1,0-0.2C66.8,24.1,66.6,24.1,66.3,24.1L66.3,24.1z"/>
	<path class="st5" d="M43,19.3c0.3,0.1,0.7,0.2,1,0.3c0.8,0.3,1.2,0.9,1.6,1.6c0.2,0.4,0.4,0.8,0.9,1c0.3,0.2,0.7,0.2,1.1,0.1
		c0.7,0,1.5-0.1,2.1,0.4c0.2,0.2,0.4,0.5,0.6,0.8c0.2,0.4,0.3,0.8,0.6,1.1c0.6,0.6,1.5,0.5,2.3,0.5c0.4,0,0.8-0.1,1.2,0
		c0.4,0,0.8,0.2,1.1,0.3c0.4,0.1,0.8,0.2,1.2,0.2c0.5,0,0.9-0.3,1.3-0.4c0.5-0.1,0.8,0,1.2,0.2c0.5,0.2,1,0.3,1.5,0.3
		c0.6,0,1.1-0.3,1.6-0.6c0.4-0.3,0.8-0.7,1.3-0.9c0.4-0.2,0.8-0.2,1.3-0.2c-0.6-0.1-1-0.2-1.4-0.1c-1,0.2-1.5,0.9-2.7,1.1
		c-1.2,0.2-1.5-0.4-2.4-0.4c-1,0-1.3,0.3-2.1,0.4c-1.2,0.1-1.1-0.2-1.9-0.3c-0.7-0.1-1.5,0.3-2.4-0.1c-0.6-0.4,0-1.4-1.6-2
		c-1.6-0.6-1.5-0.1-3-0.7c-1.6-0.6-1.6-2.3-2.9-2.5c-0.6-0.1-1.1-0.1-1.6-0.1L43,19.3L43,19.3z"/>
	<path class="st16" d="M78.3,24.7c-2.8-1.3-7.2-0.9-12-0.6c0,0.2-0.1,0.7-0.2,0.9c4.3,0.1,7.9,2.5,8.6,4.2C77.9,39,65,47.4,58.1,49
		c-4.3,1-9,1.3-13.3,0.2c-4.3-1.1-8.6-4-11.2-7.5c-2.6-3.6-4.2-7.5-5.1-11.8c-0.9-4.3-0.5-9.3,1.6-13.4c-0.2-0.1-0.3-0.1-0.5-0.2
		c-7,13.4,1.1,31.3,14.2,35.3c13.6,4.1,26.9-0.9,32.9-8.9C83.4,33.6,80.2,25.8,78.3,24.7z"/>
	<path class="st17" d="M65.1,48.6c2-1,6.6-3.6,8.3-5.8c3.8-4.8,4.7-9.5,4.9-10.4c0.4-2.8-1-7,0.2-7.5c-0.1-0.1-0.2-0.1-0.3-0.2
		c-2.8-1.3-7.2-0.9-12-0.6c0,0.2-0.1,0.7-0.2,0.9c4.3,0.1,7.9,2.5,8.6,4.2c3.1,9.7-9.8,18.2-16.7,19.7c-4.3,1-9,1.3-13.3,0.2
		c-4.3-1.1-8.6-4-11.2-7.5c-2.6-3.6-4.2-7.5-5.1-11.8c-0.9-4.3-0.5-9.3,1.6-13.4c-0.2-0.1-0.3-0.1-0.5-0.2
		c-7,13.4,1.1,31.3,14.2,35.3C55.8,53.5,64.2,49,65.1,48.6L65.1,48.6z"/>
	<path class="st8" d="M33.5,44.2c1.4,1.2,3.1,2.1,4.8,2.6c0.5,0.2,1,0.3,1.6,0.4c-2.5-1.4-4.7-3.3-6.3-5.5
		c-2.6-3.6-4.2-7.5-5.1-11.8c-0.9-4.3-0.5-9.3,1.6-13.4c-0.2-0.1-0.3-0.1-0.5-0.2c-4.4,8.5-2.8,18.8,2.3,26.2
		C32.3,43.1,32.9,43.7,33.5,44.2L33.5,44.2z"/>
	<path class="st8" d="M72.8,25.7c0.1-0.6,0-1.3-0.1-1.9c-2,0-4.1,0.1-6.3,0.3c0,0.2-0.1,0.7-0.2,0.9c2.5,0.1,4.7,0.9,6.3,1.9
		C72.6,26.5,72.7,26.1,72.8,25.7L72.8,25.7z"/>
</g>
<g>
	<path class="st9" d="M30.9,69.6c2-1.4,8.4-4.2,10.4-5c0.7-0.3,1.4-0.3,2.2-0.6c1.1-0.4,0.8-1.9,2.1-2.8c1.3-0.8,1.3-0.3,2.5-1.2
		c1.3-0.8,0.5-1.7,1-2.1c0.7-0.6,1.5-0.4,2.1-0.6c0.7-0.2,0.6-0.5,1.6-0.6c0.7-0.1,1.1,0.2,1.9,0c0.8-0.2,1-0.8,2.1-0.8
		c1.1,0,1.7,0.5,2.6,0.5s1.7-0.7,4.2-1.4c2.5-0.6,7.2-1.9,8.7-2.3c1.4-1.3,1.6-8.4-6.1-15c-6.8-5.9-16.3-8.2-29.4-1.6
		C25.7,41.7,22.1,59.2,30.9,69.6L30.9,69.6z"/>
	<path class="st18" d="M72.3,52.8c-1.4,0.4-6.1,1.7-8.7,2.3s-2.4,0.5-3.4,0.5c1.8-7-7-9.5-8.2-9.7c-2.5-0.5-5.2-0.2-7.7,0.5
		c-2.3,0.7-4.7,1.9-6.4,3.6c-1.1,1.1-2,2.5-2.6,3.9c-0.8,1.7-1.2,3.6-1.4,5.5c-0.1,1.6,0,3.3,0.7,4.8c0.5,1,1.2,2.1,2.3,2.4
		c-2.4,1.1-5,2.3-6.1,3.1c-8.8-10.5-5.2-27.9,5.9-33.5c13-6.6,22.5-4.3,29.4,1.6C73.9,44.4,73.8,51.4,72.3,52.8L72.3,52.8z"/>
	<path class="st19" d="M72.3,52.8c-1.4,0.4-6.1,1.7-8.7,2.3s-3.3,1.4-4.2,1.4c7.1-4.5,2.2-11.3,0.8-12.7c-1.4-1.4-4.2-2.8-6.1-3.3
		c-2.2-0.5-4.7-0.3-6.9-0.1c-2.2,0.2-4.5,0.7-6.6,1.5c-1,0.4-1.9,0.8-2.8,1.4c-1.1,0.7-2,1.4-2.9,2.3c-2.5,2.5-4.1,5.7-4.8,9.2
		c-0.2,0.9-0.3,1.8-0.3,2.6c0,0.8-0.1,1.7,0,2.5c0.1,1.1,0.3,2.2,0.5,3.3c0.3,1.3,0.7,2.6,1.3,3.8c0.3,0.6,0.6,1.2,1.1,1.6
		c-0.7,0.4-1.3,0.7-1.7,1c-8.8-10.5-5.2-27.9,5.9-33.5c13-6.6,22.5-4.3,29.4,1.6C73.9,44.4,73.8,51.4,72.3,52.8L72.3,52.8z"/>
	<path class="st3" d="M41.9,63.8c0.1-1-0.9-2.3-0.7-2.8s1-0.5,1.2-1c0.2-0.5-0.5-1.2-0.3-1.5s2,0.1,2.2-1c0.1-0.5,0.2-2.4,0.4-2.6
		c1.1-0.9,2-0.1,2.7-0.7c0.4-0.3,0.8-1.2,1.7-1.5c0.8-0.3,1.8,0.2,2.2,0.2c0.4,0,1.1-0.6,1.8-0.6c0.8,0,1.3,0.7,1.7,0.6
		c0.4,0,0.8-0.1,1.2-0.2c0.4,0,0.8-0.1,1.2,0c0.3,0.1,0.7,0.3,0.9,0.6c0.2,0.2,0.3,0.4,0.4,0.6c0.4,0.6,1,0.7,1.7,0.8
		c0.5,0.1,1.1,0.1,1.6,0.1c0.2,0,0.3,0,0.5,0c0,0,0,0.3,0,0.3c0,0.1,0,0.1,0,0.2c-1.7,0.5-2.3,1.1-3.1,1.1c-1,0-1.5-0.5-2.6-0.5
		c-1.1,0-1.2,0.6-2.1,0.8c-0.8,0.2-1.2,0-1.9,0c-1,0.1-0.9,0.4-1.6,0.6c-0.6,0.2-1.4,0-2.1,0.6c-0.5,0.4,0.3,1.2-1,2.1
		c-1.3,0.8-1.3,0.3-2.5,1.2c-1.3,0.8-1,2.3-2.1,2.7c-0.7,0.3-1.3,0.3-1.8,0.5C41.8,64.3,41.8,64,41.9,63.8L41.9,63.8z"/>
	<path class="st4" d="M61.8,55.6c-0.5,0-1.1-0.1-1.6-0.2c-0.4-0.1-0.9-0.2-1.2-0.4c-0.3-0.2-0.6-0.5-0.8-0.7c-0.3-0.2-0.6-0.3-1-0.3
		c-0.5,0-0.9,0.1-1.3,0.1c-0.2,0-0.5,0-0.7,0c-0.2-0.1-0.5-0.2-0.7-0.3c-0.4-0.2-0.8-0.2-1.2-0.2c-0.4,0-0.7,0.2-1.1,0.2
		c-0.2,0-0.5,0.1-0.7,0.1c-0.2,0-0.4,0-0.6,0c-0.2,0-0.4,0.2-0.6,0.4c-0.2,0.5-0.2,1-0.7,1.3c-0.6,0.3-1.2,0.1-1.8,0
		c-0.5-0.1-1.1-0.2-1.5,0.1c-0.6,0.4-0.5,1.1-0.5,1.7c0,0.5-0.2,0.9-0.7,1.1c-0.3,0.1-0.7,0.2-1,0.3c-0.3,0.2-0.4,0.5-0.4,0.8
		c0,0.2,0,0.5-0.1,0.8c-0.1,0.2-0.2,0.3-0.4,0.4c-0.2,0.2-0.5,0.3-0.6,0.6c-0.2,0.3-0.1,0.8-0.1,1.1c0,0.3,0.1,0.7,0,1
		c-0.1,0.3-0.2,0.6-0.4,0.8c0,0-0.1,0-0.1,0c0.1-0.2,0.2-0.5,0.2-0.8c0.1-1-0.9-2.3-0.7-2.8s1-0.5,1.2-1c0.2-0.5-0.5-1.2-0.3-1.5
		s2,0.1,2.2-1c0.1-0.5,0.2-2.4,0.4-2.6c1.1-0.9,2-0.1,2.7-0.7c0.4-0.3,0.8-1.2,1.7-1.5c0.8-0.3,1.8,0.2,2.2,0.2
		c0.4,0,1.1-0.6,1.8-0.6c0.8,0,1.3,0.7,1.7,0.6c0.4,0,0.8-0.1,1.2-0.2c0.4,0,0.8-0.1,1.2,0c0.3,0.1,0.7,0.3,0.9,0.6
		c0.2,0.2,0.3,0.4,0.4,0.6c0.4,0.6,1,0.7,1.7,0.8c0.5,0.1,1.1,0.1,1.6,0.1c0.2,0,0.3,0,0.5,0c0,0,0,0.3,0,0.3c0,0.1,0,0.1,0,0.2
		C62.3,55.4,62,55.5,61.8,55.6L61.8,55.6z"/>
	<path class="st5" d="M42.2,64.4c0.3-0.1,0.6-0.3,0.8-0.4c0.7-0.4,0.9-1,1.1-1.8c0.1-0.4,0.2-0.8,0.6-1.1c0.3-0.2,0.6-0.3,0.9-0.3
		c0.6-0.1,1.4-0.2,1.8-0.8c0.2-0.2,0.3-0.5,0.4-0.8c0.1-0.4,0.2-0.8,0.3-1.1c0.4-0.7,1.2-0.8,1.9-0.9c0.4,0,0.7-0.1,1.1-0.2
		c0.3-0.1,0.6-0.3,0.9-0.5c0.3-0.2,0.7-0.4,1-0.4c0.4,0,0.8,0.1,1.3,0.1c0.4,0,0.7-0.2,1.1-0.4c0.4-0.2,0.8-0.5,1.3-0.5
		c0.5-0.1,1,0,1.5,0.3c0.4,0.2,0.8,0.5,1.3,0.5c0.4,0.1,0.8,0,1.2,0c-0.5,0.2-0.8,0.3-1.3,0.3c-1,0-1.5-0.5-2.6-0.5
		c-1.1,0-1.2,0.6-2.1,0.8c-0.8,0.2-1.2,0-1.9,0c-1,0.1-0.9,0.4-1.6,0.6c-0.6,0.2-1.4,0-2.1,0.6c-0.5,0.4,0.3,1.2-1,2.1
		s-1.3,0.3-2.5,1.2c-1.3,0.8-1,2.3-2.1,2.8C43,64.3,42.5,64.3,42.2,64.4L42.2,64.4L42.2,64.4z"/>
	<path class="st20" d="M72.3,52.8c-2.2,1.7-6.2,2.2-10.4,2.8c-0.1-0.2-0.2-0.6-0.3-0.8c3.8-0.9,6.5-3.7,6.8-5.4
		c0.8-9.2-12.2-14.2-18.6-14.2c-4,0-8.2,0.6-11.8,2.4c-3.6,1.8-6.9,5.2-8.4,8.8c-1.6,3.7-2.2,7.4-2.2,11.4c0,4,1.4,8.3,4,11.5
		c-0.1,0.1-0.3,0.2-0.4,0.2c-8.8-10.5-5.1-27.9,5.7-33.9c11.2-6.2,23.9-4.5,30.8,1.4C75.1,43.8,73.8,51.4,72.3,52.8L72.3,52.8z"/>
	<path class="st21" d="M56.1,34.2c2,0.5,6.5,1.9,8.5,3.5c4.3,3.5,6,7.4,6.3,8.2c0.9,2.4,0.5,6.4,1.7,6.6c-0.1,0.1-0.1,0.2-0.2,0.2
		c-2.2,1.7-6.2,2.2-10.4,2.8c-0.1-0.2-0.2-0.6-0.3-0.8c3.8-0.9,6.5-3.7,6.8-5.4c0.8-9.2-12.2-14.2-18.6-14.2c-4,0-8.2,0.6-11.8,2.4
		c-3.6,1.8-6.9,5.2-8.4,8.8c-1.6,3.7-2.2,7.4-2.2,11.4c0,4,1.4,8.3,4,11.5c-0.1,0.1-0.3,0.2-0.4,0.2c-8.8-10.5-5.1-27.9,5.7-33.9
		C46.9,31.7,55.1,34,56.1,34.2L56.1,34.2z"/>
	<path class="st8" d="M29,44.3c1-1.3,2.3-2.4,3.8-3.2c0.4-0.2,0.9-0.5,1.3-0.6c-1.9,1.7-3.5,3.9-4.5,6.1c-1.6,3.7-2.2,7.4-2.2,11.4
		c0,4,1.4,8.3,4,11.5c-0.1,0.1-0.3,0.2-0.4,0.2c-5.6-6.6-6.1-16-3.1-23.6C28.2,45.4,28.5,44.8,29,44.3z"/>
	<path class="st8" d="M67.2,52.9c0.2,0.5,0.3,1.1,0.3,1.7c-1.7,0.4-3.7,0.7-5.7,1c-0.1-0.2-0.2-0.6-0.3-0.8c2.2-0.5,4-1.7,5.2-2.8
		C67,52.2,67.1,52.6,67.2,52.9z"/>
</g>
<g>
	<path class="st0" d="M48.4,31.7c2.7-0.2,10.1-2.1,12.4-2.8c0.8-0.2,1.4-0.7,2.3-1c1.3-0.4,2,1.1,3.7,1s1.4-0.6,3-0.7
		s1.6,1.1,2.3,1.1c1,0.1,1.6-0.7,2.2-0.9c0.8-0.3,0.9,0.1,1.8-0.6c0.7-0.5,0.8-0.9,1.7-1.3c0.9-0.4,1.4,0,2.4-0.7
		c1-0.7,1.1-1.5,1.9-2.2s2-0.5,4.6-1.7s7.5-3.3,9.1-4c2.2,0.2,7.2,6.1,5,17.2c-1.9,9.8-8.6,18.3-24.4,21.6
		C63.1,59.4,48,46.8,48.4,31.7L48.4,31.7z"/>
	<path class="st13" d="M95.9,17.8c-1.5,0.6-6.4,2.8-9.1,4c-2.6,1.2-2.5,1.2-3.3,1.9c6.3,4.8,0.5,13-0.4,14c-1.8,2.2-4.4,3.8-7,4.8
		c-2.5,1-5.3,1.6-8,1.3c-1.7-0.2-3.4-0.8-4.9-1.6c-1.9-1-3.5-2.2-4.9-3.8c-1.2-1.3-2.2-2.9-2.7-4.6c-0.3-1.2-0.4-2.6,0.3-3.6
		c-2.8,0.7-5.9,1.4-7.4,1.5c-0.4,15.1,14.7,27.7,28.1,25c15.8-3.3,22.5-11.7,24.4-21.6C103,23.9,98,18,95.9,17.8L95.9,17.8z"/>
	<path class="st22" d="M95.9,17.8c-1.5,0.6-6.4,2.8-9.1,4c-2.6,1.2-3.8,1-4.6,1.7c9.2-0.9,9.7,8.2,9.4,10.4c-0.2,2.2-1.8,5.3-3.1,7
		c-1.5,2-3.9,3.5-5.9,4.9c-2.1,1.4-4.3,2.5-6.7,3.3c-1.1,0.3-2.2,0.6-3.4,0.8c-1.4,0.2-2.8,0.1-4.1,0c-3.9-0.5-7.5-2.1-10.5-4.7
		c-0.7-0.6-1.4-1.3-2.1-2c-0.6-0.7-1.2-1.4-1.8-2.2c-0.7-1-1.3-2.1-1.8-3.2c-0.6-1.3-1.2-2.8-1.5-4.2c-0.1-0.7-0.3-1.5-0.2-2.2
		c-0.9,0.2-1.6,0.3-2.2,0.3c-0.4,15.1,14.7,27.7,28.1,25c15.8-3.3,22.5-11.7,24.4-21.6C103,23.9,98,18,95.9,17.8L95.9,17.8z"/>
	<path class="st3" d="M61.9,29.2c0.8,0.8,0.8,2.6,1.3,2.9c0.5,0.3,1.2-0.3,1.8,0c0.5,0.3,0.4,1.4,0.8,1.5c0.4,0.1,1.7-1.5,2.5-0.6
		c0.4,0.4,1.8,2,2.2,2c1.6,0.1,1.8-1.2,2.8-1.3c0.5,0,1.5,0.5,2.6,0.2c1-0.3,1.4-1.4,1.8-1.7c0.4-0.3,1.3-0.2,2-0.8
		c0.7-0.5,0.7-1.5,1.1-1.7c0.4-0.2,0.8-0.4,1.2-0.7c0.4-0.2,0.8-0.5,1-0.8c0.2-0.3,0.4-0.8,0.4-1.2c0-0.3-0.1-0.5-0.1-0.8
		c-0.1-0.7,0.4-1.3,0.9-1.8c0.4-0.4,0.9-0.8,1.4-1.2c0.1-0.1,0.3-0.2,0.4-0.3c0,0-0.2-0.2-0.2-0.3c0,0-0.1-0.1-0.1-0.2
		c-1.8,0.7-2.7,0.7-3.4,1.2c-0.8,0.6-1,1.5-1.9,2.2c-1,0.7-1.5,0.3-2.4,0.7s-1,0.9-1.7,1.3c-1,0.6-1.1,0.3-1.8,0.6
		c-0.6,0.2-1.2,1-2.2,0.9c-0.7,0-0.6-1.2-2.3-1.1s-1.4,0.6-3,0.7s-2.4-1.4-3.7-1c-0.8,0.2-1.3,0.6-1.9,0.9
		C61.5,28.8,61.7,29,61.9,29.2L61.9,29.2z"/>
	<path class="st4" d="M84.8,22.5c-0.4,0.4-0.9,0.8-1.3,1.2c-0.3,0.4-0.7,0.8-0.8,1.2c-0.1,0.4-0.2,0.8-0.3,1.2
		c-0.1,0.4-0.3,0.7-0.7,1c-0.4,0.3-0.8,0.5-1.2,0.8c-0.2,0.1-0.4,0.3-0.6,0.5c-0.2,0.2-0.3,0.5-0.4,0.7c-0.2,0.4-0.5,0.8-0.9,1
		c-0.4,0.2-0.8,0.4-1.1,0.5c-0.2,0.1-0.5,0.3-0.7,0.4c-0.2,0.1-0.3,0.3-0.5,0.4c-0.2,0.1-0.5,0.2-0.7,0.1c-0.5-0.2-0.9-0.8-1.5-0.6
		c-0.7,0.1-1.2,0.7-1.6,1.2c-0.4,0.4-0.8,0.9-1.4,1c-0.8,0.1-1.2-0.6-1.6-1.1c-0.3-0.4-0.8-0.6-1.3-0.4c-0.4,0.1-0.7,0.4-1.1,0.4
		c-0.4,0.1-0.7-0.1-0.9-0.4c-0.2-0.2-0.3-0.5-0.6-0.6c-0.2-0.1-0.4-0.1-0.6-0.1c-0.3,0-0.6,0-0.9-0.1c-0.4-0.2-0.6-0.6-0.8-0.9
		c-0.2-0.3-0.4-0.6-0.7-0.9c-0.3-0.2-0.6-0.3-0.9-0.4c0,0-0.1,0-0.1,0c0.3,0.1,0.5,0.3,0.7,0.5c0.8,0.8,0.8,2.6,1.3,2.9
		c0.5,0.3,1.2-0.3,1.8,0c0.5,0.3,0.4,1.4,0.8,1.5c0.4,0.1,1.7-1.5,2.5-0.6c0.4,0.4,1.8,2,2.2,2c1.6,0.1,1.8-1.2,2.8-1.3
		c0.5,0,1.5,0.5,2.6,0.2c1-0.3,1.4-1.4,1.8-1.7c0.4-0.3,1.3-0.2,2-0.8c0.7-0.5,0.7-1.5,1.1-1.7c0.4-0.2,0.8-0.4,1.2-0.7
		c0.4-0.2,0.8-0.5,1-0.8c0.2-0.3,0.4-0.8,0.4-1.2c0-0.3-0.1-0.5-0.1-0.8c-0.1-0.7,0.4-1.3,0.9-1.8c0.4-0.4,0.9-0.8,1.4-1.2
		c0.1-0.1,0.3-0.2,0.4-0.3c0,0-0.2-0.2-0.2-0.3c0,0-0.1-0.1-0.1-0.2C85.3,22.4,85.1,22.5,84.8,22.5z"/>
	<path class="st5" d="M61.8,28.5c0.3-0.1,0.7-0.1,1-0.2c0.8-0.1,1.5,0.3,2.2,0.8c0.4,0.3,0.8,0.5,1.2,0.5c0.4,0,0.7-0.2,1.1-0.3
		c0.6-0.3,1.3-0.7,2.1-0.6c0.3,0.1,0.6,0.2,0.9,0.4c0.3,0.2,0.7,0.6,1.1,0.7c0.8,0.3,1.6-0.2,2.3-0.6c0.3-0.2,0.7-0.4,1.1-0.6
		c0.4-0.1,0.8-0.2,1.1-0.2c0.4-0.1,0.8-0.1,1.2-0.4c0.4-0.3,0.7-0.7,1-1c0.4-0.3,0.7-0.3,1.2-0.4c0.5,0,1-0.1,1.5-0.4
		c0.5-0.3,0.9-0.8,1.2-1.3c0.2-0.5,0.4-1,0.8-1.3c0.3-0.3,0.7-0.6,1.1-0.8c-0.6,0.1-1,0.3-1.3,0.6c-0.8,0.6-1,1.5-1.9,2.2
		c-1,0.7-1.5,0.3-2.4,0.7s-1,0.9-1.7,1.3c-1,0.6-1.1,0.3-1.8,0.6c-0.6,0.2-1.2,1-2.2,0.9c-0.7,0-0.6-1.2-2.3-1.1s-1.4,0.6-3,0.7
		s-2.4-1.4-3.7-1C62.6,28,62.1,28.3,61.8,28.5L61.8,28.5L61.8,28.5z"/>
	<path class="st6" d="M95.9,17.8c-3,0.1-6.9,2.4-11,4.7c0.1,0.2,0.3,0.6,0.2,0.9c3.9-1.8,8.2-1.2,9.6,0c7.1,7.4-0.8,20.6-6.4,25
		c-3.5,2.8-7.5,5.1-11.8,6c-4.3,0.9-9.5,0.2-13.4-1.8c-4-2.1-7-4.9-9.8-8.4c-2.7-3.5-4.5-8.1-4.5-12.7c-0.2,0-0.3,0-0.5,0
		C48,46.8,63.1,59.4,76.6,57.1c14-2.3,23.8-12.6,25.7-22.4C104.4,23.6,98,18,95.9,17.8L95.9,17.8z"/>
	<path class="st7" d="M94.5,45.1c1.4-1.8,4.4-6.2,5-8.8c1.3-6,0.1-10.6-0.2-11.5c-0.9-2.7-4-5.9-3.1-6.9c-0.1,0-0.2,0-0.3-0.1
		c-3,0.1-6.9,2.4-11,4.7c0.1,0.2,0.3,0.6,0.2,0.9c3.9-1.8,8.2-1.2,9.6,0c7.1,7.4-0.8,20.6-6.4,25c-3.5,2.8-7.5,5.1-11.8,6
		c-4.3,0.9-9.5,0.2-13.4-1.8c-4-2.1-7-4.9-9.8-8.4c-2.7-3.5-4.5-8.1-4.5-12.7c-0.2,0-0.3,0-0.5,0C48,46.8,63.1,59.4,76.7,57.1
		C88.3,53.6,93.9,45.9,94.5,45.1L94.5,45.1z"/>
	<path class="st8" d="M64.1,55c1.8,0.5,3.7,0.5,5.5,0.2c0.5-0.1,1.1-0.2,1.6-0.3c-2.9-0.2-5.7-0.9-8.1-2.2c-4-2.1-7-4.9-9.8-8.4
		c-2.7-3.5-4.5-8.1-4.5-12.7c-0.2,0-0.3,0-0.5,0c-0.3,9.6,5.7,18.1,13.5,22.5C62.6,54.5,63.4,54.8,64.1,55L64.1,55z"/>
	<path class="st8" d="M91.4,21.2c-0.2-0.6-0.6-1.2-0.9-1.7c-1.8,0.9-3.7,2-5.6,3.1c0.1,0.2,0.3,0.6,0.2,0.9c2.2-1,4.6-1.3,6.4-1.1
		C91.6,22,91.5,21.5,91.4,21.2L91.4,21.2z"/>
</g>
<g>
	<path class="st0" d="M69.7,31.1c2.6,0.9,10.2,2,12.5,2.2c0.8,0.1,1.6-0.1,2.6,0c1.3,0.1,1.4,1.8,3,2.3s1.5,0,3.1,0.5
		s1.1,1.6,1.7,1.9c0.9,0.5,1.7,0,2.4,0c0.8,0.1,0.8,0.4,1.9,0.2c0.8-0.1,1.1-0.5,2.1-0.5c1,0,1.3,0.5,2.4,0.2c1.2-0.3,1.6-1,2.7-1.3
		s2,0.3,4.9,0.2s8.2-0.1,9.9-0.1c1.9,1,4.2,8.4-2.1,17.8c-5.6,8.3-15,13.5-30.9,10.3C72.4,62.4,63.4,44.8,69.7,31.1L69.7,31.1z"/>
	<path class="st1" d="M118.8,36.9c-1.7,0-7,0-9.9,0.1c-2.9,0.1-2.8,0.2-3.8,0.4c4,6.9-4.7,12.2-5.8,12.8c-2.6,1.3-5.5,1.8-8.3,1.7
		c-2.7-0.1-5.5-0.6-7.9-2c-1.5-0.8-2.8-2-3.9-3.4c-1.3-1.6-2.4-3.5-3.1-5.4c-0.6-1.7-0.9-3.5-0.7-5.3c0.2-1.2,0.7-2.5,1.7-3.2
		c-2.8-0.5-6-1-7.4-1.5c-6.3,13.7,2.7,31.3,16.2,34c15.8,3.2,25.3-2,30.9-10.3C123,45.3,120.7,37.9,118.8,36.9L118.8,36.9z"/>
	<path class="st2" d="M118.8,36.9c-1.7,0-7,0-9.9,0.1c-2.9,0.1-3.9-0.5-4.9-0.2c8.9,2.8,5.7,11.4,4.6,13.3c-1.1,1.9-3.7,4.2-5.6,5.3
		c-2.1,1.2-4.9,1.7-7.3,2.2c-2.5,0.5-5,0.6-7.5,0.4c-1.2-0.1-2.3-0.3-3.4-0.6c-1.3-0.4-2.6-0.9-3.8-1.6c-3.4-1.9-6.1-4.9-7.8-8.4
		c-0.4-0.9-0.8-1.8-1.1-2.7c-0.3-0.9-0.6-1.8-0.8-2.7c-0.2-1.2-0.3-2.5-0.4-3.7c-0.1-1.5,0-3,0.2-4.5c0.1-0.7,0.3-1.4,0.7-2.1
		c-0.9-0.2-1.6-0.4-2.2-0.6c-6.3,13.7,2.7,31.3,16.2,34c15.8,3.2,25.3-2,30.9-10.3C123,45.3,120.7,37.9,118.8,36.9L118.8,36.9z"/>
	<path class="st3" d="M83.1,34.1c0.4,1-0.3,2.7,0.1,3.2c0.4,0.5,1.3,0.2,1.6,0.7c0.4,0.5-0.2,1.4,0.2,1.7c0.3,0.2,2.1-0.7,2.6,0.4
		c0.2,0.5,0.9,2.5,1.2,2.7c1.4,0.7,2.1-0.4,3.1-0.1c0.5,0.2,1.2,1,2.3,1.1c1,0.1,1.9-0.8,2.3-0.8c0.4-0.1,1.3,0.3,2.1,0.1
		c0.8-0.2,1.2-1.1,1.7-1.2c0.5-0.1,0.9-0.1,1.4-0.2c0.4-0.1,0.9-0.1,1.3-0.4c0.3-0.2,0.6-0.6,0.8-0.9c0.1-0.2,0.2-0.5,0.3-0.8
		c0.2-0.7,0.9-1.1,1.5-1.3c0.6-0.2,1.1-0.4,1.7-0.6c0.2,0,0.3-0.1,0.5-0.1c0.1,0-0.1-0.3-0.1-0.3c0-0.1,0-0.1,0-0.2
		c-1.9-0.1-2.8-0.5-3.6-0.2c-1,0.3-1.5,1-2.7,1.3c-1.2,0.3-1.5-0.3-2.4-0.2c-1,0-1.3,0.4-2.1,0.5c-1.2,0.2-1.1-0.1-1.9-0.2
		c-0.7,0-1.5,0.4-2.4,0c-0.6-0.3-0.1-1.4-1.7-1.9s-1.5,0-3.1-0.5s-1.7-2.2-3-2.3c-0.8-0.1-1.4,0-2.1,0C82.8,33.6,83,33.8,83.1,34.1
		L83.1,34.1z"/>
	<path class="st4" d="M106.8,36.9c-0.6,0.2-1.1,0.4-1.7,0.6c-0.4,0.2-0.9,0.5-1.2,0.8c-0.3,0.3-0.5,0.7-0.7,1
		c-0.3,0.3-0.6,0.5-1,0.7c-0.5,0.1-1,0.2-1.4,0.2c-0.3,0-0.5,0.1-0.7,0.3c-0.2,0.1-0.4,0.3-0.7,0.5c-0.4,0.3-0.8,0.5-1.3,0.5
		c-0.4,0.1-0.8,0-1.2,0.1c-0.3,0-0.6,0-0.8,0.1c-0.2,0-0.4,0.1-0.6,0.1c-0.3,0-0.5,0-0.7-0.2c-0.4-0.4-0.5-1-1.1-1.2
		c-0.7-0.1-1.4,0.2-2,0.5c-0.5,0.2-1.1,0.5-1.7,0.4c-0.7-0.2-0.9-1-1-1.7c-0.1-0.5-0.5-0.9-1.1-0.9c-0.4,0-0.8,0.1-1.2,0
		c-0.4-0.1-0.6-0.4-0.7-0.8c-0.1-0.3-0.1-0.6-0.4-0.8c-0.2-0.1-0.3-0.2-0.5-0.3c-0.3-0.1-0.6-0.2-0.8-0.5c-0.2-0.3-0.3-0.8-0.4-1.2
		c-0.1-0.4-0.1-0.8-0.3-1.1c-0.2-0.3-0.4-0.5-0.7-0.7c0,0-0.1,0-0.1,0c0.2,0.2,0.3,0.5,0.5,0.8c0.4,1-0.3,2.7,0.1,3.2
		s1.3,0.2,1.6,0.7c0.4,0.5-0.2,1.4,0.2,1.7c0.3,0.2,2.1-0.7,2.6,0.4c0.2,0.5,0.9,2.5,1.2,2.7c1.4,0.7,2.1-0.4,3.1-0.1
		c0.5,0.2,1.2,1,2.3,1.1c1,0.1,1.9-0.8,2.3-0.8c0.4-0.1,1.3,0.3,2.1,0.1c0.8-0.2,1.2-1.1,1.7-1.2c0.5-0.1,0.9-0.1,1.4-0.2
		c0.4-0.1,0.9-0.1,1.3-0.4c0.3-0.2,0.6-0.6,0.8-0.9c0.1-0.2,0.2-0.5,0.3-0.8c0.2-0.7,0.9-1.1,1.5-1.3c0.6-0.2,1.1-0.4,1.7-0.6
		c0.2,0,0.3-0.1,0.5-0.1c0.1,0-0.1-0.3-0.1-0.3c0-0.1,0-0.1,0-0.2C107.3,37,107,36.9,106.8,36.9L106.8,36.9z"/>
	<path class="st5" d="M83.2,33.4c0.3,0,0.7,0.1,1,0.2c0.8,0.2,1.3,0.9,1.7,1.5c0.2,0.4,0.5,0.8,0.9,1c0.3,0.1,0.7,0.1,1.1,0.1
		c0.7-0.1,1.5-0.2,2.1,0.3c0.3,0.2,0.4,0.5,0.6,0.7c0.2,0.4,0.4,0.8,0.7,1.1c0.6,0.6,1.5,0.5,2.3,0.3c0.4-0.1,0.8-0.1,1.2-0.1
		c0.4,0,0.8,0.1,1.1,0.2c0.4,0.1,0.8,0.2,1.2,0.1c0.5-0.1,0.9-0.3,1.3-0.5c0.4-0.1,0.8,0,1.2,0.1c0.5,0.2,1,0.3,1.5,0.2
		c0.6-0.1,1.1-0.4,1.6-0.7c0.4-0.3,0.8-0.7,1.2-0.9c0.4-0.2,0.8-0.3,1.3-0.3c-0.6-0.1-1-0.1-1.4,0c-1,0.3-1.5,1-2.7,1.3
		c-1.2,0.3-1.5-0.3-2.4-0.2c-1,0-1.3,0.4-2.1,0.5c-1.2,0.2-1.1-0.1-1.9-0.2c-0.7,0-1.5,0.4-2.4,0c-0.6-0.3-0.1-1.4-1.7-1.9
		s-1.5,0-3.1-0.5s-1.7-2.2-3-2.3c-0.6-0.1-1.1,0-1.6,0L83.2,33.4L83.2,33.4z"/>
	<path class="st6" d="M118.8,36.9c-2.8-1.1-7.3-0.5-12,0c0,0.2,0,0.7-0.1,0.9c4.3-0.1,8,2,8.8,3.8c3.6,9.6-8.8,18.7-15.6,20.6
		c-4.3,1.2-8.9,1.8-13.2,0.9c-4.3-0.8-8.8-3.5-11.6-6.9c-2.8-3.5-4.6-7.2-5.7-11.5c-1.2-4.3-1-9.3,0.9-13.4c-0.2,0-0.3-0.1-0.5-0.1
		c-6.3,13.7,2.7,31.2,16.1,34.5c13.8,3.3,26.8-2.3,32.4-10.6C124.5,45.6,120.8,37.9,118.8,36.9L118.8,36.9z"/>
	<path class="st7" d="M106.9,61.5c2-1.1,6.4-4,8-6.2c3.6-5,4.2-9.7,4.3-10.6c0.3-2.9-1.4-6.9-0.2-7.5c-0.1-0.1-0.2-0.1-0.3-0.2
		c-2.8-1.1-7.3-0.5-12,0c0,0.2,0,0.7-0.1,0.9c4.3-0.1,8,2,8.8,3.8c3.6,9.6-8.8,18.7-15.6,20.6c-4.3,1.2-8.9,1.8-13.2,0.9
		c-4.3-0.8-8.8-3.5-11.6-6.9c-2.8-3.5-4.6-7.2-5.7-11.5c-1.2-4.3-1-9.3,0.9-13.4c-0.2,0-0.3-0.1-0.5-0.1
		c-6.3,13.7,2.7,31.2,16.1,34.5C97.9,66.9,106,62,106.9,61.5L106.9,61.5z"/>
	<path class="st8" d="M75.1,58.7c1.5,1.1,3.2,1.9,5,2.3c0.5,0.1,1.1,0.2,1.6,0.3c-2.6-1.3-4.9-3.1-6.6-5.2
		c-2.8-3.5-4.6-7.2-5.7-11.5c-1.2-4.3-1-9.3,0.9-13.4c-0.2,0-0.3-0.1-0.5-0.1c-4,8.7-1.8,18.9,3.7,26C73.9,57.7,74.5,58.2,75.1,58.7
		L75.1,58.7z"/>
	<path class="st8" d="M113.4,38.2c0-0.6-0.1-1.3-0.2-1.9c-2,0.1-4.1,0.4-6.3,0.6c0,0.2,0,0.7-0.1,0.9c2.5-0.1,4.7,0.6,6.3,1.5
		C113.2,39,113.3,38.6,113.4,38.2L113.4,38.2z"/>
</g>
<g>
	<path class="st0" d="M83.7,63.7C86,62.4,92,57.5,93.8,56c0.6-0.6,1-1.2,1.7-1.9c1-0.9,2.3,0.2,3.8-0.7s1-1.1,2.5-1.9
		c1.5-0.8,1.9,0.3,2.6,0.1c0.9-0.3,1.2-1.3,1.6-1.8c0.6-0.6,0.8-0.3,1.4-1.3c0.4-0.7,0.4-1.2,1-1.9c0.6-0.7,1.3-0.6,1.8-1.6
		c0.6-1,0.4-1.9,0.9-2.8s1.6-1.3,3.5-3.5s5.5-6.2,6.6-7.4c2.1-0.8,9,2.6,11.7,13.6c2.4,9.7-0.2,20.2-13.2,29.7
		C108.5,82.8,89.6,77.6,83.7,63.7L83.7,63.7z"/>
	<path class="st1" d="M121.1,31.4c-1.1,1.2-4.7,5.2-6.6,7.4s-1.7,2.1-2.2,3.1c7.8,1.7,5.8,11.7,5.5,12.9c-0.8,2.8-2.4,5.2-4.4,7.3
		c-1.9,1.9-4.2,3.6-6.8,4.5c-1.6,0.6-3.4,0.7-5.1,0.6c-2.1-0.1-4.2-0.6-6.1-1.4c-1.7-0.7-3.2-1.7-4.4-3.1c-0.8-1-1.4-2.2-1.2-3.4
		c-2.3,1.8-4.8,3.7-6.2,4.4c5.9,13.9,24.9,19.1,36,11c13.1-9.5,15.6-20,13.2-29.7C130.2,33.9,123.2,30.6,121.1,31.4L121.1,31.4z"/>
	<path class="st2" d="M121.1,31.4c-1.1,1.2-4.7,5.2-6.6,7.4s-3,2.5-3.5,3.5c8-4.7,12.2,3.5,12.9,5.6c0.7,2.1,0.6,5.6,0.1,7.7
		c-0.5,2.4-2.1,4.8-3.3,6.9c-1.3,2.1-2.9,4.1-4.8,5.8c-0.9,0.8-1.8,1.5-2.8,2.1c-1.2,0.7-2.4,1.3-3.8,1.7c-3.7,1.2-7.7,1.2-11.5,0.1
		c-0.9-0.3-1.9-0.6-2.8-1c-0.8-0.4-1.7-0.8-2.5-1.2c-1.1-0.6-2-1.4-3-2.2c-1.1-1-2.2-2-3.1-3.2c-0.4-0.5-0.8-1.2-1-1.9
		c-0.7,0.5-1.4,0.9-1.9,1.2c5.9,13.9,24.9,19.2,36,11c13.1-9.5,15.6-20,13.2-29.7C130.2,34,123.2,30.6,121.1,31.4L121.1,31.4z"/>
	<path class="st3" d="M95,55.8c1,0.4,1.8,2,2.4,2.1s1-0.8,1.6-0.7c0.6,0.1,0.9,1.1,1.3,1c0.4-0.1,0.9-2,2-1.6c0.5,0.2,2.5,1,2.8,0.9
		c1.5-0.6,1.1-1.9,2-2.3c0.4-0.2,1.6-0.2,2.4-0.9c0.8-0.7,0.7-1.9,0.9-2.3c0.2-0.4,1.1-0.8,1.5-1.5c0.4-0.8,0-1.7,0.2-2
		c0.3-0.4,0.6-0.7,0.8-1.1c0.2-0.3,0.5-0.8,0.6-1.2c0.1-0.4,0-0.8-0.1-1.2c-0.1-0.3-0.3-0.5-0.4-0.7c-0.4-0.6-0.2-1.4,0.1-2
		c0.2-0.6,0.5-1.1,0.8-1.7c0.1-0.2,0.2-0.3,0.2-0.5c0,0-0.3-0.2-0.3-0.2c-0.1,0-0.1-0.1-0.2-0.1c-1.4,1.4-2.2,1.8-2.6,2.5
		c-0.5,0.9-0.3,1.8-0.9,2.8c-0.6,1.1-1.2,0.9-1.8,1.6s-0.6,1.2-1,1.9c-0.6,1-0.8,0.7-1.4,1.3c-0.5,0.5-0.7,1.4-1.6,1.8
		c-0.7,0.2-1.1-0.9-2.6-0.1s-1,1.1-2.5,1.9c-1.5,0.8-2.8-0.2-3.8,0.7c-0.6,0.5-0.9,1.1-1.4,1.6C94.4,55.6,94.7,55.7,95,55.8L95,55.8
		z"/>
	<path class="st4" d="M113,40.3c-0.3,0.5-0.5,1.1-0.7,1.7c-0.1,0.5-0.3,1-0.2,1.4c0,0.4,0.2,0.8,0.2,1.2c0.1,0.4,0,0.8-0.2,1.2
		c-0.2,0.4-0.6,0.8-0.8,1.2c-0.1,0.2-0.2,0.5-0.3,0.7c-0.1,0.3-0.1,0.5-0.1,0.8c-0.1,0.5-0.2,0.9-0.4,1.3c-0.2,0.3-0.5,0.6-0.8,1
		c-0.2,0.2-0.3,0.4-0.5,0.7c-0.1,0.2-0.2,0.4-0.3,0.5c-0.2,0.2-0.4,0.3-0.7,0.4c-0.6,0-1.1-0.3-1.6,0c-0.6,0.4-0.8,1.2-1,1.8
		c-0.2,0.5-0.4,1.2-0.9,1.5c-0.7,0.4-1.3-0.1-1.9-0.3c-0.5-0.2-1-0.2-1.4,0.2c-0.3,0.3-0.5,0.6-0.8,0.9c-0.3,0.2-0.7,0.2-1.1,0
		c-0.2-0.1-0.5-0.3-0.8-0.2c-0.2,0-0.4,0.1-0.6,0.2c-0.3,0.1-0.6,0.3-0.9,0.3c-0.4,0-0.8-0.3-1.1-0.5c-0.3-0.2-0.7-0.4-1-0.5
		c-0.3-0.1-0.7-0.1-1,0c0,0-0.1,0.1-0.1,0.1c0.3,0,0.6,0,0.9,0.2c1,0.4,1.8,2,2.4,2.1s1-0.8,1.6-0.7c0.6,0.1,0.9,1.1,1.3,1
		c0.4-0.1,0.9-2,2-1.6c0.5,0.2,2.5,1,2.8,0.9c1.5-0.6,1.1-1.9,2-2.3c0.4-0.2,1.6-0.2,2.4-0.9c0.8-0.7,0.7-1.9,0.9-2.3
		c0.2-0.4,1.1-0.8,1.5-1.5c0.4-0.8,0-1.7,0.2-2c0.3-0.4,0.6-0.7,0.8-1.1c0.2-0.3,0.5-0.8,0.6-1.2c0.1-0.4,0-0.8-0.1-1.2
		c-0.1-0.3-0.3-0.5-0.4-0.7c-0.4-0.6-0.2-1.4,0.1-2c0.2-0.6,0.5-1.1,0.8-1.7c0.1-0.2,0.2-0.3,0.2-0.5c0,0-0.3-0.2-0.3-0.2
		c-0.1,0-0.1-0.1-0.2-0.1C113.4,39.9,113.2,40.1,113,40.3L113,40.3z"/>
	<path class="st5" d="M94.5,55.2c0.3-0.2,0.6-0.4,0.9-0.6c0.7-0.5,1.5-0.3,2.3-0.2c0.4,0.1,0.9,0.2,1.3,0c0.3-0.2,0.6-0.5,0.8-0.8
		c0.4-0.5,0.9-1.2,1.7-1.4c0.3-0.1,0.6,0,1,0c0.4,0.1,0.8,0.2,1.3,0.2c0.8-0.1,1.4-0.8,1.8-1.5c0.2-0.3,0.4-0.7,0.7-1
		c0.3-0.3,0.6-0.5,0.9-0.7c0.3-0.2,0.7-0.5,0.9-0.8c0.3-0.4,0.3-0.9,0.5-1.3c0.2-0.4,0.5-0.6,0.9-0.8c0.4-0.3,0.9-0.5,1.2-1
		c0.3-0.5,0.5-1,0.5-1.7c0-0.5,0-1.1,0.2-1.5c0.1-0.4,0.4-0.8,0.6-1.1c-0.4,0.4-0.8,0.7-1,1.1c-0.5,0.9-0.3,1.8-0.9,2.8
		c-0.6,1.1-1.2,0.9-1.8,1.6s-0.6,1.2-1,1.9c-0.6,1-0.8,0.7-1.4,1.3c-0.5,0.5-0.7,1.4-1.6,1.8c-0.7,0.2-1.1-0.9-2.6-0.1
		s-1,1.1-2.5,1.9c-1.5,0.8-2.8-0.2-3.8,0.7C95,54.5,94.7,54.9,94.5,55.2L94.5,55.2L94.5,55.2z"/>
	<path class="st6" d="M121.1,31.4c-2.7,1.3-5.3,5-8.1,8.9c0.2,0.2,0.5,0.5,0.6,0.7c2.8-3.3,6.9-4.5,8.7-4c9.5,3.8,7.8,19.1,4.6,25.4
		c-2,3.9-4.7,7.7-8.3,10.4c-3.5,2.6-8.6,4.1-12.9,3.9c-4.5-0.3-8.4-1.5-12.4-3.6c-3.9-2-7.5-5.5-9.3-9.7c-0.2,0.1-0.3,0.2-0.4,0.2
		c5.9,13.9,24.9,19.1,36.3,11.5c11.8-7.9,16.4-21.3,14.1-31C131.3,33.1,123.2,30.6,121.1,31.4L121.1,31.4z"/>
	<path class="st7" d="M131.2,56.7c0.5-2.2,1.4-7.4,0.9-10.1c-1.3-6-4.3-9.7-4.9-10.3c-1.9-2.1-6-3.7-5.7-5c-0.1,0-0.2,0-0.3,0.1
		c-2.7,1.3-5.3,5-8.1,8.8c0.2,0.2,0.5,0.5,0.6,0.7c2.8-3.3,6.9-4.5,8.7-4c9.5,3.8,7.8,19.1,4.6,25.4c-2,3.9-4.7,7.7-8.3,10.4
		c-3.5,2.6-8.6,4.1-12.9,3.9c-4.5-0.3-8.4-1.5-12.4-3.6c-3.9-2-7.5-5.5-9.3-9.7c-0.2,0.1-0.3,0.2-0.4,0.2
		c5.9,13.9,24.9,19.1,36.3,11.5C129.1,67.1,131,57.8,131.2,56.7L131.2,56.7z"/>
	<path class="st8" d="M107.7,78.3c1.8-0.3,3.6-1,5.1-2.1c0.4-0.3,0.9-0.6,1.3-1c-2.7,1-5.6,1.5-8.3,1.4c-4.5-0.3-8.4-1.5-12.4-3.6
		c-3.9-2-7.5-5.5-9.3-9.7c-0.2,0.1-0.3,0.2-0.4,0.2c3.7,8.8,12.7,14.1,21.7,14.9C106.1,78.5,106.9,78.5,107.7,78.3L107.7,78.3z"/>
	<path class="st8" d="M118.4,36.3c-0.4-0.5-1-0.8-1.5-1.2c-1.2,1.5-2.5,3.3-3.8,5.1c0.2,0.2,0.5,0.5,0.6,0.7
		c1.6-1.9,3.6-3.1,5.4-3.7C118.9,36.9,118.7,36.6,118.4,36.3z"/>
</g>
<g>
	<path class="st23" d="M88.4,82.4c2.4-1.3,8.4-6,10.2-7.6c0.7-0.6,1-1.2,1.7-1.9c1-0.9,2.3,0.2,3.8-0.6c1.5-0.8,1-1.1,2.5-1.9
		c1.5-0.8,1.9,0.3,2.6,0.1c0.9-0.3,1.2-1.3,1.7-1.7c0.6-0.6,0.8-0.3,1.4-1.3c0.4-0.7,0.4-1.2,1-1.9c0.6-0.7,1.3-0.6,1.9-1.6
		c0.6-1,0.4-1.9,0.9-2.8s1.6-1.3,3.5-3.4c1.9-2.2,5.5-6.1,6.7-7.3c2.1-0.7,9,2.7,11.6,13.7c2.3,9.7-0.4,20.2-13.6,29.6
		C113.1,101.8,94.2,96.3,88.4,82.4L88.4,82.4z"/>
	<path class="st13" d="M126.3,50.5c-1.2,1.2-4.8,5.1-6.7,7.3c-1.9,2.2-1.8,2.1-2.3,3c7.8,1.8,5.7,11.7,5.3,13
		c-0.8,2.8-2.5,5.2-4.5,7.2c-1.9,1.9-4.2,3.6-6.8,4.4c-1.7,0.5-3.4,0.7-5.2,0.6c-2.1-0.1-4.2-0.6-6.1-1.5c-1.7-0.7-3.2-1.7-4.3-3.1
		c-0.8-1-1.4-2.2-1.2-3.4c-2.3,1.8-4.8,3.6-6.2,4.4c5.7,14,24.7,19.4,35.8,11.4c13.2-9.4,15.8-19.8,13.6-29.6
		C135.3,53.2,128.3,49.8,126.3,50.5L126.3,50.5z"/>
	<path class="st24" d="M126.3,50.5c-1.2,1.2-4.8,5.1-6.7,7.3c-1.9,2.2-3,2.5-3.5,3.4c8.1-4.6,12.2,3.6,12.8,5.7
		c0.7,2.1,0.6,5.6,0.1,7.7c-0.6,2.4-2.1,4.8-3.4,6.8c-1.3,2.1-3,4.1-4.8,5.7c-0.9,0.8-1.8,1.5-2.8,2.1c-1.2,0.7-2.5,1.2-3.8,1.7
		c-3.7,1.2-7.8,1.1-11.5,0c-0.9-0.3-1.8-0.6-2.8-1c-0.8-0.4-1.7-0.8-2.5-1.3c-1.1-0.7-2-1.4-3-2.2c-1.1-1-2.2-2-3.1-3.2
		c-0.4-0.6-0.8-1.2-1-1.9c-0.7,0.5-1.4,0.9-1.9,1.2c5.7,14,24.7,19.4,35.8,11.4c13.2-9.4,15.8-19.8,13.6-29.6
		C135.3,53.2,128.4,49.8,126.3,50.5L126.3,50.5z"/>
	<path class="st3" d="M99.8,74.6c1,0.4,1.8,2.1,2.4,2.1c0.6,0.1,1-0.8,1.6-0.7c0.6,0.1,0.9,1.1,1.3,1c0.4-0.1,0.9-2,2-1.6
		c0.5,0.2,2.5,1.1,2.8,0.9c1.5-0.6,1.2-1.8,2-2.3c0.4-0.2,1.6-0.2,2.4-0.9c0.8-0.7,0.7-1.9,0.9-2.3c0.2-0.4,1.1-0.8,1.5-1.5
		c0.4-0.8,0-1.7,0.3-2c0.3-0.4,0.6-0.7,0.8-1.1c0.2-0.3,0.5-0.8,0.6-1.2c0.1-0.4,0-0.8-0.1-1.2c-0.1-0.3-0.3-0.5-0.4-0.7
		c-0.4-0.7-0.2-1.4,0.1-2c0.2-0.6,0.5-1.1,0.8-1.6c0.1-0.2,0.2-0.3,0.2-0.5c0,0-0.2-0.2-0.3-0.2c-0.1,0-0.1-0.1-0.2-0.1
		c-1.4,1.4-2.2,1.7-2.6,2.5c-0.5,0.9-0.3,1.8-0.9,2.8c-0.6,1.1-1.2,0.9-1.9,1.6s-0.6,1.2-1,1.9c-0.6,1-0.8,0.7-1.4,1.3
		c-0.5,0.5-0.7,1.4-1.7,1.7c-0.7,0.2-1.1-0.9-2.6-0.1c-1.5,0.8-1,1.1-2.5,1.9c-1.5,0.8-2.8-0.3-3.8,0.6c-0.6,0.5-0.9,1.1-1.4,1.6
		C99.3,74.5,99.5,74.5,99.8,74.6L99.8,74.6z"/>
	<path class="st4" d="M118.1,59.3c-0.3,0.5-0.5,1.1-0.7,1.7c-0.1,0.5-0.3,1-0.2,1.4c0,0.4,0.2,0.8,0.2,1.2c0.1,0.4,0,0.8-0.2,1.2
		c-0.2,0.4-0.6,0.8-0.8,1.2c-0.1,0.2-0.2,0.5-0.3,0.7c-0.1,0.3-0.1,0.6-0.1,0.8c-0.1,0.5-0.2,0.9-0.5,1.3c-0.2,0.3-0.5,0.6-0.8,1
		c-0.2,0.2-0.3,0.4-0.5,0.7c-0.1,0.2-0.2,0.4-0.3,0.5c-0.2,0.2-0.4,0.3-0.7,0.3c-0.6,0-1.1-0.3-1.6,0c-0.6,0.4-0.8,1.2-1,1.8
		c-0.2,0.5-0.4,1.2-0.9,1.5c-0.7,0.4-1.3-0.1-1.9-0.4c-0.5-0.2-1-0.2-1.4,0.2c-0.3,0.3-0.5,0.6-0.8,0.9c-0.4,0.2-0.7,0.2-1.1,0
		c-0.2-0.1-0.5-0.3-0.8-0.3c-0.2,0-0.4,0.1-0.6,0.2c-0.3,0.1-0.6,0.3-0.9,0.2c-0.4,0-0.8-0.3-1.1-0.5c-0.3-0.2-0.6-0.4-1-0.5
		c-0.3-0.1-0.7-0.1-1,0c0,0-0.1,0.1-0.1,0.1c0.3,0,0.6,0.1,0.9,0.2c1,0.4,1.8,2.1,2.4,2.1c0.6,0.1,1-0.8,1.6-0.7
		c0.6,0.1,0.9,1.1,1.3,1c0.4-0.1,0.9-2,2-1.6c0.5,0.2,2.5,1.1,2.8,0.9c1.5-0.6,1.2-1.8,2-2.3c0.4-0.2,1.6-0.2,2.4-0.9
		c0.8-0.7,0.7-1.9,0.9-2.3c0.2-0.4,1.1-0.8,1.5-1.5c0.4-0.8,0-1.7,0.3-2c0.3-0.4,0.6-0.7,0.8-1.1c0.2-0.3,0.5-0.8,0.6-1.2
		c0.1-0.4,0-0.8-0.1-1.2c-0.1-0.3-0.3-0.5-0.4-0.7c-0.4-0.7-0.2-1.4,0.1-2c0.2-0.6,0.5-1.1,0.8-1.6c0.1-0.2,0.2-0.3,0.2-0.5
		c0,0-0.2-0.2-0.3-0.2c-0.1,0-0.1-0.1-0.2-0.1C118.5,58.9,118.3,59.1,118.1,59.3z"/>
	<path class="st5" d="M99.4,74c0.3-0.2,0.6-0.4,0.9-0.6c0.7-0.5,1.5-0.3,2.3-0.2c0.4,0.1,0.9,0.2,1.3,0c0.3-0.2,0.6-0.4,0.8-0.7
		c0.4-0.6,0.9-1.2,1.7-1.3c0.3-0.1,0.6,0,1,0.1c0.4,0.1,0.8,0.2,1.3,0.2c0.9-0.1,1.4-0.8,1.8-1.4c0.2-0.3,0.4-0.7,0.7-0.9
		c0.3-0.3,0.6-0.5,0.9-0.7c0.3-0.2,0.7-0.5,0.9-0.8c0.3-0.4,0.3-0.9,0.6-1.3c0.2-0.4,0.5-0.6,0.9-0.8c0.4-0.2,0.9-0.5,1.2-1
		c0.3-0.5,0.5-1,0.5-1.6c0-0.5,0-1.1,0.2-1.5c0.1-0.4,0.4-0.8,0.7-1.1c-0.4,0.4-0.8,0.7-1,1c-0.5,0.9-0.3,1.8-0.9,2.8
		c-0.6,1.1-1.2,0.9-1.9,1.6s-0.6,1.2-1,1.9c-0.6,1-0.8,0.7-1.4,1.3c-0.5,0.5-0.7,1.4-1.7,1.7c-0.7,0.2-1.1-0.9-2.6-0.1
		c-1.5,0.8-1,1.1-2.5,1.9c-1.5,0.8-2.8-0.3-3.8,0.6C99.9,73.3,99.6,73.7,99.4,74L99.4,74L99.4,74z"/>
	<path class="st20" d="M126.3,50.5c-2.8,1.3-5.4,5-8.2,8.8c0.2,0.2,0.5,0.5,0.6,0.7c2.9-3.2,6.9-4.4,8.8-3.9
		c9.4,3.9,7.6,19.2,4.3,25.5c-2.1,3.9-4.8,7.7-8.4,10.3c-3.6,2.6-8.6,4-13,3.7c-4.5-0.3-8.4-1.6-12.3-3.7c-3.9-2.1-7.4-5.6-9.2-9.8
		c-0.2,0.1-0.3,0.2-0.4,0.2c5.7,14,24.7,19.4,36.2,11.9c11.9-7.8,16.7-21.1,14.4-30.9C136.5,52.3,128.4,49.8,126.3,50.5L126.3,50.5z
		"/>
	<path class="st25" d="M136.1,75.9c0.5-2.2,1.5-7.4,1-10.1c-1.2-6-4.2-9.7-4.8-10.4c-1.9-2.1-6-3.8-5.6-5c-0.1,0-0.2,0-0.3,0.1
		c-2.8,1.3-5.4,5-8.2,8.8c0.2,0.2,0.5,0.5,0.6,0.7c2.9-3.2,6.9-4.4,8.8-3.9c9.4,3.9,7.6,19.2,4.3,25.5c-2.1,3.9-4.8,7.7-8.4,10.3
		c-3.6,2.6-8.6,4-13,3.7c-4.5-0.3-8.4-1.6-12.3-3.7c-3.9-2.1-7.4-5.6-9.2-9.8c-0.2,0.1-0.3,0.2-0.4,0.2c5.7,14,24.7,19.4,36.2,11.9
		C133.8,86.3,135.8,77,136.1,75.9L136.1,75.9z"/>
	<path class="st8" d="M112.3,97.3c1.8-0.3,3.6-1,5.1-2c0.4-0.3,0.9-0.6,1.3-1c-2.7,1-5.6,1.5-8.3,1.3c-4.5-0.3-8.4-1.6-12.3-3.7
		c-3.9-2.1-7.4-5.6-9.2-9.8c-0.2,0.1-0.3,0.2-0.4,0.2c3.6,8.8,12.5,14.3,21.5,15.1C110.8,97.5,111.5,97.4,112.3,97.3L112.3,97.3z"/>
	<path class="st8" d="M123.5,55.4c-0.4-0.5-1-0.8-1.5-1.2c-1.3,1.5-2.6,3.3-3.9,5c0.2,0.2,0.5,0.5,0.6,0.7c1.6-1.8,3.7-3,5.4-3.6
		C124,56,123.8,55.7,123.5,55.4L123.5,55.4z"/>
</g>
<g>
	<path class="st26" d="M64.9,85.2C67.6,85,75,83,77.3,82.4c0.8-0.2,1.4-0.7,2.3-1c1.3-0.4,2,1.1,3.7,0.9s1.4-0.6,3-0.7
		s1.6,1.1,2.3,1.1c1,0.1,1.6-0.7,2.2-0.9c0.8-0.3,0.9,0.1,1.8-0.6c0.7-0.4,0.8-0.9,1.7-1.3c0.9-0.4,1.4,0,2.4-0.7
		c1-0.7,1.1-1.5,1.9-2.2s2-0.5,4.6-1.7c2.6-1.2,7.5-3.3,9.1-4c2.2,0.2,7.2,6.1,5,17.2c-1.9,9.8-8.6,18.3-24.4,21.6
		C79.6,112.9,64.5,100.3,64.9,85.2z"/>
	<path class="st27" d="M112.4,71.3c-1.5,0.6-6.4,2.8-9.1,4c-2.6,1.2-2.5,1.2-3.3,1.9c6.3,4.8,0.5,13-0.4,14c-1.8,2.2-4.4,3.8-7,4.8
		c-2.5,1-5.3,1.6-8,1.3c-1.7-0.2-3.4-0.8-4.9-1.6c-1.9-0.9-3.6-2.2-4.9-3.8c-1.2-1.3-2.2-2.9-2.7-4.6c-0.3-1.2-0.4-2.6,0.3-3.6
		c-2.8,0.7-5.9,1.4-7.4,1.5c-0.4,15.1,14.7,27.7,28.2,25c15.8-3.3,22.5-11.7,24.4-21.6C119.6,77.4,114.6,71.5,112.4,71.3L112.4,71.3
		z"/>
	<path class="st28" d="M112.4,71.3c-1.5,0.6-6.4,2.8-9.1,4c-2.6,1.2-3.8,1.1-4.6,1.7c9.2-0.9,9.7,8.2,9.4,10.4
		c-0.2,2.2-1.8,5.3-3.1,7.1c-1.5,2-3.9,3.5-5.9,4.9c-2.1,1.4-4.3,2.5-6.7,3.3c-1.1,0.3-2.2,0.6-3.4,0.8c-1.4,0.2-2.8,0.1-4.1,0
		c-3.9-0.4-7.5-2.1-10.5-4.7c-0.7-0.6-1.4-1.3-2.1-2c-0.6-0.7-1.2-1.4-1.8-2.2c-0.7-1-1.3-2.1-1.8-3.2c-0.6-1.3-1.2-2.8-1.5-4.2
		c-0.1-0.7-0.3-1.4-0.2-2.2c-0.9,0.2-1.6,0.3-2.2,0.3c-0.4,15.1,14.7,27.7,28.2,25c15.8-3.3,22.5-11.7,24.4-21.6
		C119.6,77.4,114.6,71.5,112.4,71.3L112.4,71.3z"/>
	<path class="st3" d="M78.5,82.7c0.8,0.8,0.8,2.6,1.3,2.9c0.6,0.3,1.2-0.3,1.8,0c0.5,0.3,0.4,1.4,0.8,1.5c0.4,0.1,1.7-1.5,2.5-0.6
		c0.4,0.4,1.8,1.9,2.2,2c1.6,0.1,1.8-1.2,2.8-1.3c0.5,0,1.5,0.5,2.6,0.2c1-0.3,1.4-1.4,1.8-1.7c0.4-0.3,1.3-0.2,2-0.8
		c0.7-0.6,0.7-1.5,1.1-1.7c0.4-0.2,0.8-0.4,1.2-0.7c0.4-0.2,0.8-0.5,1-0.8c0.2-0.3,0.4-0.8,0.4-1.2c0-0.3-0.1-0.6-0.1-0.8
		c-0.1-0.7,0.4-1.3,0.9-1.8c0.4-0.4,0.9-0.8,1.4-1.2c0.1-0.1,0.3-0.2,0.4-0.3c0,0-0.2-0.2-0.2-0.3c0-0.1-0.1-0.1-0.1-0.2
		c-1.8,0.7-2.7,0.7-3.4,1.2c-0.8,0.7-1,1.5-1.9,2.2c-1,0.7-1.5,0.3-2.4,0.7s-1,0.8-1.7,1.3c-1,0.6-1.1,0.3-1.8,0.6
		c-0.6,0.2-1.2,1-2.2,0.9c-0.7-0.1-0.6-1.2-2.3-1.1s-1.4,0.6-3,0.7s-2.4-1.4-3.7-0.9c-0.8,0.2-1.3,0.6-1.9,0.9
		C78,82.3,78.2,82.5,78.5,82.7L78.5,82.7z"/>
	<path class="st4" d="M101.3,76.1c-0.4,0.4-0.9,0.8-1.3,1.2c-0.3,0.3-0.7,0.8-0.8,1.2c-0.1,0.4-0.2,0.8-0.3,1.2
		c-0.1,0.4-0.3,0.7-0.7,1c-0.4,0.3-0.8,0.5-1.2,0.8c-0.2,0.2-0.4,0.3-0.6,0.5c-0.2,0.2-0.3,0.5-0.4,0.7c-0.2,0.4-0.5,0.8-0.9,1
		c-0.4,0.2-0.8,0.4-1.1,0.6c-0.2,0.1-0.5,0.3-0.7,0.4c-0.2,0.1-0.3,0.3-0.5,0.3c-0.2,0.1-0.5,0.2-0.7,0.1c-0.5-0.2-0.9-0.8-1.5-0.6
		c-0.7,0.1-1.2,0.7-1.6,1.2c-0.4,0.4-0.8,0.9-1.4,1c-0.8,0.1-1.2-0.6-1.6-1.1c-0.3-0.4-0.8-0.6-1.3-0.4c-0.4,0.1-0.7,0.4-1.1,0.4
		c-0.4,0.1-0.7-0.1-0.9-0.4c-0.2-0.2-0.3-0.5-0.6-0.6c-0.2-0.1-0.4-0.1-0.6-0.1c-0.3,0-0.6,0-0.9-0.1c-0.4-0.2-0.6-0.6-0.8-0.9
		c-0.2-0.3-0.4-0.7-0.7-0.9c-0.3-0.2-0.6-0.3-0.9-0.4c0,0-0.1,0-0.1,0.1c0.3,0.1,0.5,0.3,0.7,0.5c0.8,0.8,0.8,2.6,1.3,2.9
		c0.6,0.3,1.2-0.3,1.8,0c0.5,0.3,0.4,1.4,0.8,1.5c0.4,0.1,1.7-1.5,2.5-0.6c0.4,0.4,1.8,1.9,2.2,2c1.6,0.1,1.8-1.2,2.8-1.3
		c0.5,0,1.5,0.5,2.6,0.2c1-0.3,1.4-1.4,1.8-1.7c0.4-0.3,1.3-0.2,2-0.8c0.7-0.6,0.7-1.5,1.1-1.7c0.4-0.2,0.8-0.4,1.2-0.7
		c0.4-0.2,0.8-0.5,1-0.8c0.2-0.3,0.4-0.8,0.4-1.2c0-0.3-0.1-0.6-0.1-0.8c-0.1-0.7,0.4-1.3,0.9-1.8c0.4-0.4,0.9-0.8,1.4-1.2
		c0.1-0.1,0.3-0.2,0.4-0.3c0,0-0.2-0.2-0.2-0.3c0-0.1-0.1-0.1-0.1-0.2C101.9,75.9,101.6,76,101.3,76.1z"/>
	<path class="st5" d="M78.3,82c0.3-0.1,0.7-0.2,1-0.2c0.8-0.1,1.5,0.3,2.2,0.8c0.4,0.3,0.8,0.6,1.2,0.5c0.4,0,0.7-0.2,1.1-0.3
		c0.6-0.3,1.3-0.7,2.1-0.6c0.3,0.1,0.6,0.2,0.9,0.4c0.3,0.2,0.7,0.6,1.1,0.7c0.8,0.3,1.6-0.2,2.3-0.6c0.3-0.2,0.7-0.4,1.1-0.6
		c0.4-0.1,0.8-0.2,1.1-0.2c0.4-0.1,0.8-0.2,1.2-0.4c0.4-0.3,0.7-0.7,1-1c0.4-0.3,0.7-0.3,1.2-0.4c0.5-0.1,1-0.1,1.5-0.4
		c0.5-0.3,0.9-0.8,1.2-1.3c0.2-0.4,0.4-1,0.8-1.3c0.3-0.3,0.7-0.6,1.1-0.8c-0.6,0.2-1,0.3-1.3,0.6c-0.8,0.7-1,1.5-1.9,2.2
		c-1,0.7-1.5,0.3-2.4,0.7s-1,0.8-1.7,1.3c-1,0.6-1.1,0.3-1.8,0.6c-0.6,0.2-1.2,1-2.2,0.9c-0.7-0.1-0.6-1.2-2.3-1.1s-1.4,0.6-3,0.7
		s-2.4-1.4-3.7-0.9C79.1,81.5,78.6,81.8,78.3,82L78.3,82L78.3,82z"/>
	<path class="st29" d="M112.4,71.3c-3,0.1-6.9,2.3-11,4.7c0.1,0.2,0.3,0.7,0.2,0.9c3.9-1.8,8.2-1.2,9.6,0c7.1,7.4-0.8,20.6-6.4,25
		c-3.5,2.8-7.5,5.1-11.8,6c-4.3,0.9-9.5,0.2-13.4-1.8c-4-2.1-7-4.9-9.8-8.4c-2.7-3.5-4.5-8.2-4.4-12.7c-0.2,0-0.3,0-0.5,0.1
		c-0.4,15.1,14.7,27.7,28.3,25.5c14-2.3,23.8-12.6,25.7-22.4C121,77.1,114.6,71.5,112.4,71.3L112.4,71.3z"/>
	<path class="st30" d="M111,98.6c1.4-1.8,4.4-6.2,5-8.8c1.3-6,0.1-10.6-0.2-11.5c-0.9-2.7-4-5.9-3.1-6.9c-0.1,0-0.2-0.1-0.3-0.1
		c-3,0.1-6.9,2.3-11,4.7c0.1,0.2,0.3,0.7,0.2,0.9c3.9-1.8,8.2-1.2,9.6,0c7.1,7.4-0.8,20.6-6.4,25.1c-3.5,2.8-7.5,5.1-11.8,6
		c-4.3,0.9-9.5,0.2-13.4-1.8c-4-2.1-7-4.9-9.8-8.4c-2.7-3.5-4.5-8.2-4.4-12.7c-0.2,0-0.3,0-0.5,0.1c-0.4,15.1,14.7,27.7,28.3,25.5
		C104.8,107.1,110.4,99.4,111,98.6L111,98.6z"/>
	<path class="st8" d="M80.7,108.5c1.8,0.5,3.7,0.5,5.5,0.2c0.5-0.1,1.1-0.2,1.6-0.3c-2.9-0.2-5.7-0.9-8.1-2.2c-4-2.1-7-4.9-9.8-8.4
		c-2.7-3.5-4.5-8.2-4.4-12.7c-0.2,0-0.3,0-0.5,0.1c-0.3,9.6,5.7,18.1,13.5,22.6C79.2,108,79.9,108.3,80.7,108.5L80.7,108.5z"/>
	<path class="st8" d="M107.9,74.7c-0.2-0.6-0.6-1.2-0.9-1.7c-1.8,0.8-3.7,1.9-5.6,3.1c0.1,0.2,0.3,0.7,0.2,0.9
		c2.2-1,4.6-1.3,6.4-1.1C108.1,75.5,108,75.1,107.9,74.7L107.9,74.7z"/>
</g>
<g>
	<path class="st31" d="M37.7,55.3c2.7-0.2,10.1-2.1,12.4-2.8c0.8-0.2,1.4-0.7,2.3-1c1.3-0.4,2,1.1,3.7,1s1.4-0.6,3-0.7
		s1.6,1.1,2.3,1.1c1,0.1,1.6-0.7,2.2-0.9c0.8-0.3,0.9,0.1,1.8-0.6c0.7-0.5,0.8-0.9,1.7-1.3c0.9-0.4,1.4,0,2.4-0.7
		c1-0.7,1.1-1.5,1.9-2.2s2-0.5,4.6-1.7c2.6-1.2,7.5-3.3,9.1-4c2.2,0.2,7.2,6.1,5,17.2c-1.9,9.8-8.6,18.3-24.4,21.6
		C52.4,83.1,37.3,70.4,37.7,55.3L37.7,55.3z"/>
	<path class="st32" d="M85.2,41.5c-1.5,0.6-6.4,2.8-9.1,4c-2.6,1.2-2.5,1.2-3.3,1.9c6.3,4.8,0.5,13-0.4,14c-1.8,2.2-4.4,3.8-7,4.8
		c-2.5,1-5.3,1.6-8,1.3c-1.7-0.2-3.4-0.8-4.9-1.6c-1.9-0.9-3.5-2.2-4.9-3.8c-1.2-1.3-2.2-2.9-2.7-4.6c-0.3-1.2-0.4-2.6,0.3-3.6
		c-2.8,0.7-5.9,1.4-7.4,1.5c-0.4,15.1,14.7,27.7,28.1,25c15.8-3.3,22.5-11.7,24.4-21.6C92.4,47.6,87.4,41.7,85.2,41.5L85.2,41.5z"/>
	<path class="st33" d="M85.2,41.5c-1.5,0.6-6.4,2.8-9.1,4c-2.6,1.2-3.8,1-4.6,1.7c9.2-0.9,9.7,8.2,9.4,10.4
		c-0.2,2.2-1.8,5.3-3.1,7.1c-1.5,2-3.9,3.5-5.9,4.9c-2.1,1.4-4.3,2.5-6.7,3.3c-1.1,0.3-2.2,0.6-3.4,0.8c-1.4,0.2-2.8,0.1-4.1,0
		c-3.9-0.4-7.5-2.1-10.5-4.7c-0.7-0.6-1.4-1.3-2.1-2c-0.6-0.7-1.2-1.4-1.8-2.2c-0.7-1-1.3-2.1-1.8-3.2c-0.6-1.3-1.2-2.8-1.5-4.2
		c-0.1-0.7-0.3-1.5-0.2-2.2c-0.9,0.2-1.6,0.3-2.2,0.3c-0.4,15.1,14.7,27.7,28.2,25c15.8-3.3,22.5-11.7,24.4-21.6
		C92.4,47.6,87.4,41.7,85.2,41.5L85.2,41.5z"/>
	<path class="st3" d="M51.3,52.9c0.8,0.8,0.8,2.6,1.3,2.9c0.5,0.3,1.2-0.3,1.8,0c0.5,0.3,0.4,1.4,0.8,1.5c0.4,0.1,1.7-1.5,2.5-0.6
		c0.4,0.4,1.8,2,2.2,2c1.6,0.1,1.8-1.2,2.8-1.3c0.5,0,1.5,0.5,2.6,0.2c1-0.3,1.4-1.4,1.8-1.7c0.4-0.3,1.3-0.2,2-0.8
		c0.7-0.5,0.7-1.5,1.1-1.7c0.4-0.2,0.8-0.4,1.2-0.7c0.4-0.2,0.8-0.5,1-0.8c0.2-0.3,0.4-0.8,0.4-1.2c0-0.3-0.1-0.5-0.1-0.8
		c-0.1-0.7,0.4-1.3,0.9-1.8c0.4-0.4,0.9-0.8,1.4-1.2c0.1-0.1,0.3-0.2,0.4-0.3c0,0-0.2-0.2-0.2-0.3c0,0-0.1-0.1-0.1-0.2
		c-1.8,0.7-2.7,0.7-3.4,1.2c-0.8,0.7-1,1.5-1.9,2.2c-1,0.7-1.5,0.3-2.4,0.7c-0.9,0.4-1,0.8-1.7,1.3c-1,0.6-1.1,0.3-1.8,0.6
		c-0.6,0.2-1.2,1-2.2,0.9c-0.7,0-0.6-1.2-2.3-1.1s-1.4,0.6-3,0.7s-2.4-1.4-3.7-1c-0.8,0.2-1.3,0.6-1.9,0.9
		C50.8,52.5,51.1,52.7,51.3,52.9L51.3,52.9z"/>
	<path class="st4" d="M74.2,46.2c-0.4,0.4-0.9,0.8-1.3,1.2c-0.3,0.3-0.7,0.8-0.8,1.2c-0.1,0.4-0.2,0.8-0.3,1.2
		c-0.1,0.4-0.3,0.7-0.7,1c-0.4,0.3-0.8,0.5-1.2,0.8c-0.2,0.2-0.4,0.3-0.6,0.5c-0.2,0.2-0.3,0.5-0.4,0.7c-0.2,0.4-0.5,0.8-0.9,1
		c-0.4,0.2-0.8,0.4-1.1,0.5c-0.2,0.1-0.5,0.3-0.7,0.4c-0.2,0.1-0.3,0.3-0.5,0.3c-0.2,0.1-0.5,0.2-0.7,0.1c-0.5-0.2-0.9-0.8-1.5-0.6
		c-0.7,0.1-1.2,0.7-1.6,1.2c-0.4,0.4-0.8,0.9-1.4,1c-0.8,0.1-1.2-0.6-1.6-1.1c-0.3-0.4-0.8-0.6-1.3-0.4c-0.4,0.1-0.7,0.4-1.1,0.4
		c-0.4,0.1-0.7-0.1-1-0.4c-0.2-0.2-0.3-0.5-0.6-0.6c-0.2-0.1-0.4-0.1-0.6-0.1c-0.3,0-0.6,0-0.9-0.1c-0.4-0.2-0.6-0.6-0.8-0.9
		c-0.2-0.3-0.4-0.7-0.7-0.9c-0.3-0.2-0.6-0.3-0.9-0.4c0,0-0.1,0-0.1,0c0.3,0.1,0.5,0.3,0.7,0.5c0.8,0.8,0.8,2.6,1.3,2.9
		c0.5,0.3,1.2-0.3,1.8,0c0.5,0.3,0.4,1.4,0.8,1.5c0.4,0.1,1.7-1.5,2.5-0.6c0.4,0.4,1.8,2,2.2,2c1.6,0.1,1.8-1.2,2.8-1.3
		c0.5,0,1.5,0.5,2.6,0.2c1-0.3,1.4-1.4,1.8-1.7c0.4-0.3,1.3-0.2,2-0.8c0.7-0.5,0.7-1.5,1.1-1.7c0.4-0.2,0.8-0.4,1.2-0.7
		c0.4-0.2,0.8-0.5,1-0.8c0.2-0.3,0.4-0.8,0.4-1.2c0-0.3-0.1-0.5-0.1-0.8c-0.1-0.7,0.4-1.3,0.9-1.8c0.4-0.4,0.9-0.8,1.4-1.2
		c0.1-0.1,0.3-0.2,0.4-0.3c0,0-0.2-0.2-0.2-0.3c0,0-0.1-0.1-0.1-0.2C74.7,46,74.4,46.1,74.2,46.2z"/>
	<path class="st5" d="M51.1,52.1c0.3-0.1,0.7-0.2,1-0.2c0.8-0.1,1.5,0.3,2.2,0.8c0.4,0.3,0.8,0.5,1.2,0.5c0.4,0,0.7-0.2,1.1-0.3
		c0.6-0.3,1.3-0.7,2.1-0.6c0.3,0.1,0.6,0.2,0.9,0.4c0.3,0.2,0.7,0.6,1.1,0.7c0.8,0.3,1.6-0.2,2.3-0.6c0.3-0.2,0.7-0.4,1.1-0.6
		c0.4-0.1,0.8-0.2,1.1-0.2c0.4-0.1,0.8-0.2,1.2-0.4c0.4-0.3,0.7-0.7,1-1c0.4-0.3,0.7-0.3,1.2-0.4c0.5,0,1-0.1,1.5-0.4
		c0.5-0.3,0.9-0.8,1.2-1.3c0.2-0.5,0.4-1,0.8-1.3c0.3-0.3,0.7-0.6,1.1-0.8c-0.6,0.2-1,0.3-1.3,0.6c-0.8,0.7-1,1.5-1.9,2.2
		c-1,0.7-1.5,0.3-2.4,0.7c-0.9,0.4-1,0.8-1.7,1.3c-1,0.6-1.1,0.3-1.8,0.6c-0.6,0.2-1.2,1-2.2,0.9c-0.7,0-0.6-1.2-2.3-1.1
		s-1.4,0.6-3,0.7s-2.4-1.4-3.7-1C51.9,51.7,51.4,51.9,51.1,52.1L51.1,52.1L51.1,52.1z"/>
	<path class="st29" d="M85.2,41.5c-3,0.1-6.9,2.3-11,4.7c0.1,0.2,0.3,0.7,0.2,0.9c3.9-1.8,8.2-1.2,9.6,0c7.1,7.4-0.8,20.6-6.4,25
		c-3.5,2.8-7.5,5.1-11.8,6c-4.3,0.9-9.5,0.2-13.4-1.8c-4-2.1-7-4.9-9.8-8.4c-2.7-3.5-4.5-8.2-4.5-12.7c-0.2,0-0.3,0-0.5,0
		C37.3,70.4,52.4,83,66,80.8c14-2.3,23.8-12.6,25.7-22.4C93.8,47.3,87.4,41.7,85.2,41.5L85.2,41.5z"/>
	<path class="st30" d="M83.8,68.7c1.4-1.8,4.4-6.2,5-8.8c1.3-6,0.1-10.6-0.2-11.5c-0.9-2.7-4-5.9-3.1-6.9c-0.1,0-0.2,0-0.3-0.1
		c-3,0.1-6.9,2.3-11,4.7c0.1,0.2,0.3,0.7,0.2,0.9c3.9-1.8,8.2-1.2,9.6,0c7.1,7.4-0.8,20.6-6.4,25c-3.5,2.8-7.5,5.1-11.8,6
		c-4.3,0.9-9.5,0.2-13.4-1.8c-4-2.1-7-4.9-9.8-8.4c-2.7-3.5-4.5-8.2-4.5-12.7c-0.2,0-0.3,0-0.5,0C37.3,70.4,52.4,83,66,80.8
		C77.6,77.2,83.2,69.6,83.8,68.7L83.8,68.7z"/>
	<path class="st8" d="M53.5,78.7c1.8,0.5,3.7,0.5,5.5,0.2c0.5-0.1,1.1-0.2,1.6-0.3c-2.9-0.2-5.7-0.9-8.1-2.2c-4-2.1-7-4.9-9.8-8.4
		c-2.7-3.5-4.5-8.2-4.5-12.7c-0.2,0-0.3,0-0.5,0c-0.3,9.6,5.7,18.1,13.5,22.6C52,78.2,52.7,78.5,53.5,78.7L53.5,78.7z"/>
	<path class="st8" d="M80.7,44.8c-0.2-0.6-0.6-1.2-0.9-1.7c-1.8,0.8-3.7,2-5.6,3.1c0.1,0.2,0.3,0.7,0.2,0.9c2.2-1,4.6-1.3,6.4-1.1
		C80.9,45.6,80.8,45.2,80.7,44.8L80.7,44.8z"/>
</g>
<g>
	<path class="st0" d="M48.4,76.2C51,77,58.6,78,61,78.2c0.8,0.1,1.6-0.1,2.6-0.1c1.3,0.1,1.5,1.8,3.1,2.3s1.5,0,3.1,0.5
		c1.6,0.5,1.1,1.6,1.7,1.9c0.9,0.4,1.7-0.1,2.4,0c0.8,0,0.8,0.4,1.9,0.2c0.8-0.2,1.1-0.5,2.1-0.6c1,0,1.3,0.5,2.5,0.2
		c1.2-0.3,1.6-1,2.6-1.3s2,0.3,4.9,0.1c2.9-0.1,8.2-0.3,9.9-0.3c1.9,1,4.4,8.3-1.8,17.9c-5.4,8.4-14.8,13.8-30.7,10.9
		C51.7,107.4,42.4,90,48.4,76.2L48.4,76.2z"/>
	<path class="st1" d="M97.6,81c-1.7,0-7,0.2-9.9,0.3c-2.9,0.1-2.7,0.2-3.8,0.5c4.1,6.8-4.4,12.3-5.6,12.9c-2.5,1.3-5.5,1.9-8.3,1.8
		c-2.7,0-5.5-0.5-7.9-1.8c-1.5-0.8-2.9-2-4-3.3c-1.4-1.6-2.5-3.4-3.2-5.4c-0.6-1.7-1-3.5-0.8-5.3c0.2-1.2,0.6-2.6,1.7-3.2
		c-2.8-0.4-6-0.9-7.5-1.4c-6,13.9,3.3,31.2,16.8,33.7c15.9,2.9,25.3-2.5,30.7-10.9C102,89.4,99.6,82,97.6,81z"/>
	<path class="st2" d="M97.6,81c-1.7,0-7,0.2-9.9,0.3c-2.9,0.1-3.9-0.4-4.9-0.1c8.9,2.6,5.9,11.2,4.9,13.2c-1,1.9-3.6,4.3-5.5,5.4
		c-2.1,1.3-4.9,1.8-7.3,2.3c-2.4,0.5-5,0.7-7.5,0.5c-1.2-0.1-2.3-0.3-3.4-0.6c-1.3-0.3-2.6-0.9-3.8-1.6c-3.4-1.9-6.2-4.8-8-8.3
		c-0.5-0.9-0.8-1.8-1.2-2.7c-0.3-0.9-0.6-1.8-0.8-2.7c-0.3-1.2-0.4-2.4-0.5-3.7c-0.1-1.5-0.1-3,0.2-4.5c0.1-0.7,0.3-1.4,0.7-2.1
		c-0.9-0.2-1.6-0.3-2.2-0.5c-6,13.9,3.3,31.2,16.8,33.7c15.9,2.9,25.3-2.5,30.7-10.9C102,89.4,99.6,82,97.6,81L97.6,81z"/>
	<path class="st3" d="M61.9,78.9c0.4,1-0.2,2.7,0.2,3.2s1.3,0.2,1.6,0.7c0.4,0.5-0.2,1.4,0.2,1.7s2.1-0.7,2.6,0.3
		c0.2,0.5,1,2.5,1.3,2.7c1.4,0.7,2.1-0.5,3.1-0.2c0.5,0.2,1.2,1,2.3,1.1c1,0.1,1.9-0.8,2.3-0.9c0.4-0.1,1.3,0.3,2.1,0
		c0.8-0.2,1.2-1.2,1.6-1.2c0.4-0.1,0.9-0.1,1.4-0.2c0.4-0.1,0.9-0.2,1.3-0.4c0.3-0.2,0.6-0.6,0.8-0.9c0.1-0.3,0.2-0.5,0.2-0.8
		c0.2-0.7,0.9-1.1,1.5-1.3c0.6-0.2,1.1-0.4,1.7-0.6c0.2-0.1,0.3-0.1,0.5-0.2c0.1,0-0.1-0.3-0.1-0.3c0-0.1,0-0.1-0.1-0.2
		c-1.9-0.1-2.8-0.4-3.6-0.2c-1,0.3-1.5,1-2.6,1.3c-1.2,0.3-1.5-0.2-2.5-0.2s-1.3,0.4-2.1,0.6c-1.2,0.2-1.1-0.1-1.9-0.2
		c-0.7,0-1.5,0.4-2.4,0c-0.6-0.3-0.1-1.4-1.7-1.9s-1.5,0-3.1-0.5c-1.6-0.5-1.7-2.2-3.1-2.3c-0.8-0.1-1.4,0.1-2.1,0.1
		C61.6,78.4,61.8,78.7,61.9,78.9L61.9,78.9z"/>
	<path class="st4" d="M85.6,81.3C85,81.5,84.5,81.7,84,82c-0.4,0.2-0.9,0.5-1.2,0.8c-0.3,0.3-0.4,0.7-0.7,1c-0.2,0.3-0.6,0.6-1,0.7
		c-0.5,0.1-1,0.2-1.4,0.3c-0.2,0.1-0.5,0.1-0.7,0.3c-0.2,0.1-0.4,0.3-0.7,0.5c-0.4,0.3-0.8,0.5-1.2,0.6c-0.4,0.1-0.8,0.1-1.2,0.1
		c-0.3,0-0.6,0.1-0.8,0.1c-0.2,0.1-0.4,0.1-0.6,0.1c-0.3,0-0.5,0-0.7-0.2c-0.4-0.4-0.5-1-1.2-1.2c-0.7-0.1-1.4,0.2-2,0.5
		c-0.5,0.2-1.1,0.6-1.7,0.4c-0.7-0.2-0.9-1-1.1-1.6c-0.2-0.5-0.5-0.9-1.1-0.9c-0.4,0-0.8,0.1-1.2,0c-0.4-0.1-0.6-0.4-0.7-0.8
		c-0.1-0.3-0.2-0.6-0.4-0.8c-0.2-0.1-0.3-0.2-0.5-0.3c-0.3-0.1-0.6-0.2-0.8-0.4c-0.3-0.3-0.3-0.8-0.4-1.2c-0.1-0.4-0.1-0.8-0.3-1.1
		c-0.2-0.3-0.4-0.5-0.7-0.7c0,0-0.1,0-0.1,0c0.2,0.2,0.4,0.5,0.5,0.7c0.4,1-0.2,2.7,0.2,3.2s1.3,0.2,1.6,0.7
		c0.4,0.5-0.2,1.4,0.2,1.7s2.1-0.7,2.6,0.3c0.2,0.5,1,2.5,1.3,2.7c1.4,0.7,2.1-0.5,3.1-0.2c0.5,0.2,1.2,1,2.3,1.1
		c1,0.1,1.9-0.8,2.3-0.9c0.4-0.1,1.3,0.3,2.1,0c0.8-0.2,1.2-1.2,1.6-1.2c0.4-0.1,0.9-0.1,1.4-0.2c0.4-0.1,0.9-0.2,1.3-0.4
		c0.3-0.2,0.6-0.6,0.8-0.9c0.1-0.3,0.2-0.5,0.2-0.8c0.2-0.7,0.9-1.1,1.5-1.3c0.6-0.2,1.1-0.4,1.7-0.6c0.2-0.1,0.3-0.1,0.5-0.2
		c0.1,0-0.1-0.3-0.1-0.3c0-0.1,0-0.1-0.1-0.2C86.2,81.4,85.9,81.3,85.6,81.3L85.6,81.3z"/>
	<path class="st5" d="M62,78.2c0.3,0,0.7,0.1,1,0.2c0.8,0.2,1.3,0.8,1.7,1.5c0.2,0.4,0.5,0.8,0.9,1c0.3,0.1,0.7,0.1,1.1,0.1
		c0.7-0.1,1.5-0.2,2.1,0.3c0.3,0.2,0.5,0.4,0.6,0.7c0.2,0.3,0.4,0.8,0.7,1.1c0.6,0.6,1.5,0.4,2.3,0.3c0.4-0.1,0.8-0.2,1.2-0.1
		c0.4,0,0.8,0.1,1.1,0.2c0.4,0.1,0.8,0.2,1.2,0.1c0.5-0.1,0.9-0.4,1.3-0.5c0.4-0.2,0.8,0,1.2,0.1c0.5,0.1,1,0.3,1.5,0.2
		c0.6-0.1,1.1-0.4,1.6-0.8c0.4-0.3,0.8-0.7,1.2-1c0.4-0.2,0.8-0.3,1.3-0.3c-0.6-0.1-1-0.1-1.4,0c-1,0.3-1.5,1-2.6,1.3
		c-1.2,0.3-1.5-0.2-2.5-0.2s-1.3,0.4-2.1,0.6c-1.2,0.2-1.1-0.1-1.9-0.2c-0.7,0-1.5,0.4-2.4,0c-0.6-0.3-0.1-1.4-1.7-1.9
		s-1.5,0-3.1-0.5c-1.6-0.5-1.7-2.2-3.1-2.3c-0.6,0-1.1,0-1.6,0.1L62,78.2L62,78.2z"/>
	<path class="st6" d="M97.6,81c-2.8-1.1-7.3-0.4-12,0.3c0,0.2,0,0.7-0.1,0.9c4.3-0.2,8,1.9,8.9,3.6c3.8,9.5-8.4,18.8-15.2,20.9
		c-4.2,1.3-8.8,1.9-13.2,1.2c-4.3-0.8-8.9-3.4-11.7-6.7c-2.9-3.4-4.7-7.1-5.9-11.4c-1.2-4.2-1.1-9.2,0.6-13.4
		c-0.2-0.1-0.3-0.1-0.5-0.1c-6,13.9,3.3,31.2,16.7,34.2c13.8,3.1,26.8-2.8,32.2-11.2C103.4,89.6,99.6,82,97.6,81L97.6,81z"/>
	<path class="st7" d="M86.2,105.8c2-1.2,6.3-4.1,7.9-6.3c3.5-5.1,4-9.8,4.1-10.7c0.2-2.9-1.5-6.9-0.3-7.5c-0.1-0.1-0.2-0.1-0.3-0.2
		c-2.8-1.1-7.3-0.4-12,0.3c0,0.2,0,0.7-0.1,0.9c4.3-0.2,8,1.9,8.9,3.6c3.8,9.5-8.4,18.8-15.2,20.9c-4.2,1.3-8.8,1.9-13.2,1.2
		c-4.3-0.8-8.9-3.4-11.7-6.7c-2.9-3.4-4.7-7.1-5.9-11.4c-1.2-4.2-1.1-9.2,0.6-13.4c-0.2-0.1-0.3-0.1-0.5-0.1
		c-6,13.9,3.3,31.2,16.7,34.2C77.3,111.4,85.3,106.3,86.2,105.8L86.2,105.8z"/>
	<path class="st8" d="M54.3,103.7c1.5,1.1,3.2,1.9,5,2.3c0.5,0.1,1.1,0.2,1.6,0.3c-2.6-1.2-5-3-6.7-5.1c-2.9-3.4-4.7-7.1-5.9-11.4
		c-1.2-4.2-1.1-9.2,0.6-13.4c-0.2-0.1-0.3-0.1-0.5-0.1c-3.8,8.8-1.5,18.9,4.2,26C53.1,102.7,53.7,103.2,54.3,103.7L54.3,103.7z"/>
	<path class="st8" d="M92.2,82.4c0-0.6-0.1-1.3-0.2-1.9c-2,0.1-4.1,0.4-6.3,0.8c0,0.2,0,0.7-0.1,0.9c2.5-0.1,4.7,0.5,6.4,1.4
		C92.1,83.3,92.2,82.9,92.2,82.4z"/>
</g>
</svg>
