<?xml version="1.0" encoding="utf-8"?>
<!-- Generator: Adobe Illustrator 26.2.1, SVG Export Plug-In . SVG Version: 6.00 Build 0)  -->
<svg version="1.1" id="a" xmlns="http://www.w3.org/2000/svg" xmlns:xlink="http://www.w3.org/1999/xlink" x="0px" y="0px"
	 viewBox="0 0 256 200" style="enable-background:new 0 0 256 200;" xml:space="preserve">
<style type="text/css">
	.st0{fill:#FFD325;}
	.st1{fill:#FFCC05;}
	.st2{fill:#FDBB11;}
	.st3{fill:#FBB315;}
	.st4{fill:#FAA61B;}
	.st5{fill:#FBBF2B;}
	.st6{fill:#F58E52;}
	.st7{fill:#F37F45;}
	.st8{fill:#F1673D;}
	.st9{fill:#F2BD14;}
	.st10{fill:#F4BB03;}
	.st11{fill:#F2A906;}
	.st12{fill:#EFBA11;}
	.st13{fill:#F2B903;}
	.st14{fill:#F2A908;}
	.st15{fill:#EDA20A;}
	.st16{fill:#E87136;}
	.st17{fill:#EA6A32;}
	.st18{fill:#F2B800;}
	.st19{fill:#EAA40A;}
	.st20{fill:#E57138;}
	.st21{fill:#E2642D;}
	.st22{fill:#EAA50C;}
	.st23{fill:#EFBB14;}
	.st24{fill:#EDA70C;}
	.st25{fill:#EA6F39;}
	.st26{fill:#F4BE14;}
	.st27{fill:#F4BA00;}
	.st28{fill:#EFA706;}
	.st29{fill:#ED793E;}
	.st30{fill:#EA5432;}
	.st31{fill:#FFCE45;}
	.st32{fill:#FFC610;}
	.st33{fill:#FFBB22;}
</style>
<g>
	<path class="st0" d="M158.3,48.1c2.7-0.2,10.1-2.1,12.4-2.8c0.8-0.2,1.4-0.7,2.4-1c1.3-0.4,2,1.1,3.7,1c1.7-0.1,1.4-0.6,3-0.7
		s1.6,1.1,2.3,1.1c1,0.1,1.6-0.7,2.2-0.9c0.8-0.3,0.9,0.1,1.8-0.6c0.7-0.5,0.8-0.9,1.7-1.3c0.9-0.4,1.4,0,2.4-0.7
		c1-0.7,1.1-1.5,1.9-2.2s2-0.5,4.6-1.7c2.6-1.2,7.5-3.3,9.1-4c2.2,0.2,7.2,6.1,5,17.2c-1.9,9.8-8.6,18.3-24.4,21.6
		C173,75.8,157.9,63.2,158.3,48.1L158.3,48.1z"/>
	<path class="st1" d="M205.8,34.2c-1.5,0.6-6.4,2.8-9.1,4c-2.6,1.2-2.5,1.2-3.3,1.9c6.4,4.8,0.5,13-0.4,14c-1.9,2.2-4.4,3.8-7,4.8
		c-2.5,1-5.3,1.6-8,1.3c-1.7-0.2-3.4-0.8-4.9-1.6c-1.9-1-3.6-2.2-4.9-3.8c-1.2-1.3-2.2-2.9-2.7-4.6c-0.3-1.2-0.4-2.6,0.3-3.6
		c-2.8,0.7-5.9,1.4-7.4,1.5c-0.4,15.1,14.7,27.7,28.1,25c15.8-3.3,22.5-11.7,24.4-21.6C213,40.3,208,34.4,205.8,34.2L205.8,34.2z"/>
	<path class="st2" d="M205.8,34.2c-1.5,0.6-6.4,2.8-9.1,4c-2.6,1.2-3.8,1-4.6,1.7c9.2-0.9,9.7,8.2,9.4,10.4c-0.2,2.2-1.8,5.3-3.1,7
		c-1.5,2-3.9,3.5-5.9,4.9c-2.1,1.4-4.4,2.5-6.7,3.3c-1.1,0.3-2.2,0.6-3.4,0.8c-1.4,0.2-2.8,0.1-4.1,0c-3.9-0.4-7.5-2.1-10.5-4.7
		c-0.7-0.6-1.4-1.3-2.1-2c-0.6-0.7-1.2-1.4-1.8-2.2c-0.7-1-1.3-2.1-1.8-3.2c-0.6-1.3-1.2-2.8-1.5-4.2c-0.1-0.7-0.3-1.5-0.2-2.2
		c-0.9,0.2-1.6,0.3-2.2,0.3c-0.4,15.1,14.7,27.7,28.1,25c15.8-3.3,22.5-11.7,24.4-21.6C213,40.3,208,34.4,205.8,34.2L205.8,34.2z"/>
	<path class="st3" d="M171.9,45.6c0.8,0.8,0.8,2.6,1.3,2.9c0.6,0.3,1.2-0.3,1.8,0c0.5,0.3,0.4,1.4,0.8,1.5c0.4,0.1,1.6-1.5,2.5-0.6
		c0.4,0.4,1.8,2,2.2,2c1.6,0.1,1.8-1.2,2.8-1.3c0.5,0,1.5,0.5,2.6,0.2c1-0.3,1.4-1.4,1.8-1.7c0.4-0.3,1.3-0.2,2-0.8
		c0.7-0.5,0.7-1.5,1.1-1.7c0.4-0.2,0.8-0.4,1.2-0.7c0.4-0.2,0.8-0.5,1-0.8c0.2-0.3,0.4-0.8,0.4-1.2c0-0.3-0.1-0.5-0.1-0.8
		c-0.1-0.7,0.4-1.3,0.9-1.8c0.4-0.4,0.9-0.8,1.4-1.2c0.1-0.1,0.3-0.2,0.4-0.3c0,0-0.2-0.2-0.2-0.3c0,0-0.1-0.1-0.1-0.2
		c-1.8,0.7-2.7,0.7-3.4,1.2c-0.8,0.7-1,1.5-1.9,2.2c-1,0.7-1.5,0.3-2.4,0.7c-0.9,0.4-1,0.8-1.7,1.3c-1,0.6-1.1,0.3-1.8,0.6
		c-0.6,0.2-1.2,1-2.2,0.9c-0.7,0-0.6-1.2-2.3-1.1c-1.7,0.1-1.4,0.6-3,0.7s-2.4-1.4-3.7-1c-0.8,0.2-1.3,0.6-1.9,0.9
		C171.4,45.2,171.7,45.4,171.9,45.6L171.9,45.6z"/>
	<path class="st4" d="M194.8,39c-0.4,0.4-0.9,0.8-1.3,1.2c-0.3,0.3-0.6,0.8-0.8,1.2c-0.1,0.4-0.2,0.8-0.3,1.2
		c-0.1,0.4-0.3,0.7-0.7,1c-0.4,0.3-0.8,0.5-1.2,0.8c-0.2,0.2-0.4,0.3-0.6,0.5c-0.2,0.2-0.3,0.5-0.4,0.7c-0.2,0.4-0.5,0.8-0.9,1
		c-0.4,0.2-0.8,0.4-1.1,0.5c-0.2,0.1-0.5,0.3-0.7,0.4c-0.2,0.1-0.3,0.3-0.5,0.3c-0.2,0.1-0.5,0.2-0.7,0.1c-0.5-0.2-0.9-0.8-1.5-0.6
		c-0.7,0.1-1.2,0.7-1.6,1.2c-0.4,0.4-0.8,0.9-1.4,1c-0.8,0.1-1.2-0.6-1.6-1.1c-0.3-0.4-0.8-0.6-1.4-0.4c-0.4,0.1-0.7,0.4-1.1,0.4
		c-0.4,0.1-0.7-0.1-0.9-0.4c-0.2-0.2-0.4-0.5-0.6-0.6c-0.2-0.1-0.4-0.1-0.6-0.1c-0.3,0-0.6,0-0.9-0.1c-0.4-0.2-0.6-0.6-0.8-0.9
		c-0.2-0.3-0.4-0.7-0.7-0.9c-0.3-0.2-0.6-0.3-0.9-0.4c0,0-0.1,0-0.1,0c0.3,0.1,0.5,0.3,0.7,0.5c0.8,0.8,0.8,2.6,1.3,2.9
		c0.6,0.3,1.2-0.3,1.8,0c0.5,0.3,0.4,1.4,0.8,1.5c0.4,0.1,1.6-1.5,2.5-0.6c0.4,0.4,1.8,2,2.2,2c1.6,0.1,1.8-1.2,2.8-1.3
		c0.5,0,1.5,0.5,2.6,0.2c1-0.3,1.4-1.4,1.8-1.7c0.4-0.3,1.3-0.2,2-0.8c0.7-0.5,0.7-1.5,1.1-1.7c0.4-0.2,0.8-0.4,1.2-0.7
		c0.4-0.2,0.8-0.5,1-0.8c0.2-0.3,0.4-0.8,0.4-1.2c0-0.3-0.1-0.5-0.1-0.8c-0.1-0.7,0.4-1.3,0.9-1.8c0.4-0.4,0.9-0.8,1.4-1.2
		c0.1-0.1,0.3-0.2,0.4-0.3c0,0-0.2-0.2-0.2-0.3c0,0-0.1-0.1-0.1-0.2C195.3,38.8,195,38.9,194.8,39L194.8,39z"/>
	<path class="st5" d="M171.7,44.9c0.3-0.1,0.7-0.2,1-0.2c0.9-0.1,1.5,0.3,2.2,0.8c0.4,0.3,0.8,0.5,1.2,0.5c0.4,0,0.7-0.2,1.1-0.3
		c0.6-0.3,1.4-0.7,2.1-0.6c0.3,0.1,0.6,0.2,0.9,0.4c0.3,0.2,0.7,0.6,1.1,0.7c0.8,0.3,1.6-0.2,2.3-0.6c0.3-0.2,0.7-0.4,1.1-0.6
		c0.4-0.1,0.8-0.2,1.1-0.2c0.4-0.1,0.8-0.2,1.2-0.4c0.4-0.3,0.7-0.7,1-1c0.4-0.3,0.7-0.3,1.2-0.4c0.5,0,1-0.1,1.5-0.4
		c0.5-0.3,0.9-0.8,1.1-1.3c0.2-0.5,0.4-1,0.8-1.3c0.3-0.3,0.7-0.6,1.1-0.8c-0.6,0.2-1,0.3-1.3,0.6c-0.8,0.7-1,1.5-1.9,2.2
		c-1,0.7-1.5,0.3-2.4,0.7c-0.9,0.4-1,0.8-1.7,1.3c-1,0.6-1.1,0.3-1.8,0.6c-0.6,0.2-1.2,1-2.2,0.9c-0.7,0-0.6-1.2-2.3-1.1
		c-1.7,0.1-1.4,0.6-3,0.7s-2.4-1.4-3.7-1C172.5,44.4,172.1,44.7,171.7,44.9L171.7,44.9L171.7,44.9z"/>
	<path class="st6" d="M205.8,34.2c-3,0.1-6.9,2.3-11,4.7c0.1,0.2,0.3,0.7,0.2,0.9c3.9-1.8,8.1-1.2,9.6,0c7.1,7.4-0.8,20.6-6.4,25.1
		c-3.5,2.8-7.5,5.1-11.8,6c-4.3,0.9-9.5,0.2-13.4-1.8c-4-2.1-7-4.9-9.8-8.4c-2.7-3.5-4.5-8.1-4.4-12.7c-0.2,0-0.4,0-0.5,0
		c-0.4,15.1,14.7,27.7,28.3,25.5c14-2.3,23.8-12.6,25.7-22.4C214.4,40,208,34.4,205.8,34.2L205.8,34.2z"/>
	<path class="st7" d="M204.5,61.5c1.4-1.8,4.4-6.2,5-8.8c1.3-6,0.1-10.6-0.2-11.5c-0.9-2.7-4-5.9-3.1-6.9c-0.1,0-0.2,0-0.3-0.1
		c-3,0.1-6.9,2.3-11,4.7c0.1,0.2,0.3,0.7,0.2,0.9c3.9-1.8,8.1-1.2,9.6,0c7.1,7.4-0.8,20.6-6.4,25c-3.5,2.8-7.5,5.1-11.8,6
		c-4.3,0.9-9.5,0.2-13.4-1.8c-4-2.1-7-4.9-9.8-8.4c-2.7-3.5-4.5-8.1-4.4-12.7c-0.2,0-0.4,0-0.5,0c-0.4,15.1,14.7,27.7,28.3,25.5
		C198.2,70,203.8,62.3,204.5,61.5L204.5,61.5z"/>
	<path class="st8" d="M174.1,71.4c1.8,0.5,3.7,0.5,5.5,0.2c0.5-0.1,1.1-0.2,1.6-0.3c-2.9-0.2-5.7-0.9-8.1-2.2c-4-2.1-7-4.9-9.8-8.4
		c-2.7-3.5-4.5-8.1-4.4-12.7c-0.2,0-0.4,0-0.5,0c-0.3,9.6,5.7,18.1,13.5,22.5C172.6,70.9,173.3,71.2,174.1,71.4L174.1,71.4z"/>
	<path class="st8" d="M201.3,37.6c-0.2-0.6-0.6-1.2-0.9-1.7c-1.8,0.8-3.6,2-5.6,3.1c0.1,0.2,0.3,0.7,0.2,0.9c2.2-1,4.6-1.3,6.4-1.1
		C201.5,38.4,201.5,38,201.3,37.6L201.3,37.6z"/>
</g>
<g>
	<path class="st0" d="M141.9,73.6c2.6-0.6,9.7-3.7,11.8-4.7c0.8-0.4,1.3-0.9,2.2-1.4c1.2-0.6,2.2,0.8,3.8,0.4
		c1.6-0.4,1.2-0.8,2.9-1.2s1.8,0.8,2.4,0.7c1-0.1,1.4-0.9,2-1.2c0.7-0.4,0.9-0.1,1.7-0.8c0.6-0.6,0.7-1,1.5-1.5
		c0.8-0.5,1.4-0.2,2.2-1.1c0.8-0.8,0.9-1.7,1.6-2.5s1.9-0.8,4.3-2.4c2.4-1.6,6.9-4.5,8.3-5.3c2.2-0.2,8,4.9,7.7,16.2
		c-0.3,10-5.6,19.4-20.7,25.1C160.7,98.8,143.8,88.6,141.9,73.6L141.9,73.6z"/>
	<path class="st1" d="M186.6,52.6c-1.4,0.9-5.9,3.7-8.3,5.3c-2.4,1.6-2.2,1.6-3,2.4c7,3.8,2.5,12.8,1.8,13.9
		c-1.5,2.4-3.7,4.4-6.2,5.8c-2.3,1.4-5,2.4-7.7,2.5c-1.7,0.1-3.5-0.2-5.1-0.8c-2-0.7-3.9-1.7-5.5-3c-1.4-1.1-2.6-2.5-3.4-4.2
		c-0.5-1.1-0.8-2.5-0.2-3.6c-2.6,1.1-5.6,2.3-7.1,2.6c1.9,15,18.8,25.1,31.7,20.3c15.1-5.7,20.4-15.1,20.7-25.1
		C194.7,57.5,188.8,52.4,186.6,52.6L186.6,52.6z"/>
	<path class="st2" d="M186.6,52.6c-1.4,0.9-5.9,3.7-8.3,5.3c-2.4,1.6-3.6,1.6-4.3,2.4c9-2.3,10.8,6.6,10.9,8.8
		c0.1,2.2-0.9,5.5-1.9,7.4c-1.2,2.2-3.3,4.1-5.1,5.7c-1.8,1.7-3.9,3.2-6.1,4.3c-1,0.5-2.1,0.9-3.2,1.3c-1.3,0.4-2.7,0.6-4.1,0.6
		c-3.9,0.2-7.8-0.9-11.1-3c-0.8-0.5-1.6-1.1-2.4-1.7c-0.7-0.6-1.4-1.2-2.1-1.9c-0.9-0.9-1.6-1.9-2.3-2.9c-0.8-1.2-1.6-2.5-2.2-3.9
		c-0.2-0.6-0.5-1.4-0.5-2.1c-0.8,0.3-1.6,0.5-2.1,0.7c1.9,15,18.8,25.1,31.7,20.3c15.1-5.7,20.4-15.1,20.7-25.1
		C194.7,57.5,188.8,52.4,186.6,52.6L186.6,52.6z"/>
	<path class="st3" d="M154.9,69.1c0.9,0.6,1.2,2.4,1.8,2.6c0.6,0.2,1.2-0.5,1.8-0.3c0.6,0.2,0.6,1.3,1,1.3c0.4,0,1.4-1.7,2.4-1
		c0.5,0.3,2.1,1.7,2.5,1.6c1.6-0.2,1.6-1.5,2.6-1.7c0.5-0.1,1.6,0.2,2.6-0.2c0.9-0.4,1.2-1.6,1.5-1.9c0.3-0.3,1.3-0.5,1.8-1.1
		c0.6-0.7,0.4-1.6,0.8-1.9c0.4-0.3,0.7-0.6,1.1-0.9c0.3-0.3,0.7-0.6,0.9-1c0.2-0.4,0.2-0.8,0.2-1.2c0-0.3-0.1-0.5-0.2-0.8
		c-0.2-0.7,0.2-1.4,0.6-1.9c0.4-0.5,0.8-0.9,1.2-1.4c0.1-0.1,0.2-0.3,0.4-0.4c0,0-0.2-0.2-0.2-0.2c-0.1,0-0.1-0.1-0.1-0.1
		c-1.7,1-2.6,1.1-3.2,1.7c-0.7,0.8-0.8,1.6-1.6,2.5c-0.9,0.9-1.4,0.5-2.2,1.1s-0.9,1-1.5,1.5c-0.9,0.8-1,0.4-1.7,0.8
		c-0.6,0.3-1.1,1.2-2,1.2c-0.7,0.1-0.8-1.1-2.4-0.7s-1.2,0.8-2.9,1.2s-2.6-1-3.8-0.4c-0.7,0.4-1.2,0.8-1.8,1.2
		C154.4,68.8,154.6,68.9,154.9,69.1L154.9,69.1z"/>
	<path class="st4" d="M176.5,59c-0.4,0.5-0.8,0.9-1.1,1.4c-0.2,0.4-0.5,0.8-0.6,1.3c-0.1,0.4,0,0.8-0.1,1.2
		c-0.1,0.4-0.2,0.8-0.5,1.1c-0.3,0.4-0.8,0.6-1.1,1c-0.2,0.2-0.4,0.4-0.5,0.6c-0.1,0.2-0.2,0.5-0.3,0.8c-0.2,0.4-0.4,0.8-0.8,1.1
		c-0.3,0.3-0.7,0.5-1,0.7c-0.2,0.2-0.4,0.3-0.6,0.5c-0.1,0.2-0.3,0.3-0.4,0.4c-0.2,0.2-0.5,0.2-0.7,0.2c-0.6-0.1-1-0.6-1.6-0.4
		c-0.6,0.2-1.1,0.9-1.4,1.5c-0.3,0.4-0.7,1-1.2,1.2c-0.7,0.2-1.3-0.4-1.8-0.9c-0.4-0.4-0.9-0.5-1.4-0.2c-0.4,0.2-0.7,0.5-1.1,0.6
		c-0.4,0.1-0.7,0-1-0.3c-0.2-0.2-0.4-0.4-0.7-0.5c-0.2,0-0.4,0-0.6,0c-0.3,0.1-0.6,0.1-0.9,0c-0.4-0.1-0.7-0.5-1-0.8
		c-0.3-0.3-0.5-0.6-0.8-0.8c-0.3-0.2-0.6-0.2-1-0.2c0,0-0.1,0.1-0.1,0.1c0.3,0.1,0.5,0.2,0.8,0.4c0.9,0.6,1.2,2.4,1.8,2.6
		c0.6,0.2,1.2-0.5,1.8-0.3c0.6,0.2,0.6,1.3,1,1.3c0.4,0,1.4-1.7,2.4-1c0.5,0.3,2.1,1.7,2.5,1.6c1.6-0.2,1.6-1.5,2.6-1.7
		c0.5-0.1,1.6,0.2,2.6-0.2c0.9-0.4,1.2-1.6,1.5-1.9c0.3-0.3,1.3-0.5,1.8-1.1c0.6-0.7,0.4-1.6,0.8-1.9c0.4-0.3,0.7-0.6,1.1-0.9
		c0.3-0.3,0.7-0.6,0.9-1c0.2-0.4,0.2-0.8,0.2-1.2c0-0.3-0.1-0.5-0.2-0.8c-0.2-0.7,0.2-1.4,0.6-1.9c0.4-0.5,0.8-0.9,1.2-1.4
		c0.1-0.1,0.2-0.3,0.4-0.4c0,0-0.2-0.2-0.2-0.2c-0.1,0-0.1-0.1-0.1-0.1C176.9,58.7,176.7,58.9,176.5,59L176.5,59z"/>
	<path class="st5" d="M154.6,68.4c0.3-0.2,0.7-0.3,1-0.4c0.8-0.3,1.5,0.1,2.2,0.4c0.4,0.2,0.8,0.4,1.3,0.3c0.4-0.1,0.7-0.3,1-0.5
		c0.6-0.4,1.2-0.9,2-0.9c0.3,0,0.6,0.2,0.9,0.3c0.4,0.2,0.7,0.5,1.2,0.5c0.8,0.2,1.5-0.4,2.1-0.9c0.3-0.3,0.6-0.5,1-0.7
		c0.4-0.2,0.7-0.3,1.1-0.4c0.4-0.1,0.8-0.3,1.1-0.6c0.4-0.3,0.6-0.8,0.9-1.1c0.3-0.3,0.7-0.4,1.1-0.6c0.5-0.1,1-0.3,1.4-0.6
		c0.5-0.4,0.7-0.9,0.9-1.5c0.2-0.5,0.3-1,0.6-1.5c0.2-0.4,0.6-0.7,0.9-0.9c-0.5,0.2-0.9,0.4-1.2,0.8c-0.7,0.8-0.8,1.6-1.6,2.5
		c-0.9,0.9-1.4,0.5-2.2,1.1c-0.8,0.5-0.9,1-1.5,1.6c-0.9,0.8-1,0.4-1.7,0.8c-0.6,0.3-1.1,1.2-2,1.2c-0.7,0.1-0.8-1.1-2.4-0.7
		s-1.2,0.8-2.9,1.2s-2.6-1-3.8-0.4C155.3,67.8,154.9,68.1,154.6,68.4L154.6,68.4L154.6,68.4z"/>
	<path class="st6" d="M186.6,52.6c-3,0.5-6.5,3.4-10.1,6.4c0.1,0.2,0.4,0.6,0.4,0.8c3.6-2.4,7.9-2.5,9.5-1.5
		c8.1,6.2,2.4,20.5-2.4,25.7c-3,3.3-6.6,6.2-10.8,7.8c-4.1,1.6-9.4,1.7-13.5,0.3c-4.2-1.4-7.7-3.7-10.9-6.8c-3.2-3-5.7-7.3-6.4-11.8
		c-0.2,0.1-0.3,0.1-0.5,0.1c1.9,15,18.8,25.1,31.9,20.8c13.5-4.4,21.6-16.1,21.9-26.1C196,57,188.8,52.4,186.6,52.6L186.6,52.6z"/>
	<path class="st7" d="M189.5,79.7c1.1-2,3.4-6.8,3.5-9.5c0.4-6.2-1.5-10.5-2-11.3c-1.3-2.6-4.8-5.2-4.1-6.3c-0.1,0-0.2,0-0.3,0
		c-3,0.5-6.5,3.4-10.1,6.4c0.1,0.2,0.4,0.6,0.4,0.8c3.6-2.4,7.9-2.5,9.5-1.5c8.1,6.2,2.4,20.5-2.4,25.7c-3,3.3-6.6,6.2-10.8,7.8
		c-4.1,1.6-9.4,1.7-13.5,0.3c-4.2-1.4-7.7-3.7-10.9-6.8c-3.2-3-5.7-7.3-6.4-11.8c-0.2,0.1-0.3,0.1-0.5,0.1
		c1.9,15,18.8,25.1,31.9,20.8C184.7,89.1,189,80.6,189.5,79.7L189.5,79.7z"/>
	<path class="st8" d="M161.1,94.2c1.8,0.2,3.7,0,5.4-0.6c0.5-0.2,1-0.4,1.5-0.6c-2.9,0.3-5.8,0-8.3-0.9c-4.2-1.4-7.7-3.7-10.9-6.8
		c-3.2-3-5.7-7.3-6.4-11.8c-0.2,0.1-0.3,0.1-0.5,0.1c1.2,9.5,8.4,17,16.9,20.2C159.5,94,160.3,94.2,161.1,94.2L161.1,94.2z"/>
	<path class="st8" d="M182.7,56.6c-0.3-0.6-0.7-1.1-1.2-1.5c-1.6,1.1-3.3,2.5-5,3.9c0.1,0.2,0.4,0.6,0.4,0.8c2.1-1.4,4.3-2,6.2-2.1
		C183.1,57.3,182.9,56.9,182.7,56.6z"/>
</g>
<g>
	<path class="st9" d="M162.6,47c-0.4,2.7-0.2,10.3-0.1,12.7c0.1,0.8,0.4,1.5,0.5,2.5c0.1,1.3-1.5,1.7-1.8,3.4s0.3,1.4,0,3.1
		c-0.2,1.7-1.4,1.3-1.6,2c-0.3,0.9,0.3,1.7,0.4,2.4c0.1,0.8-0.3,0.8,0.1,1.9c0.3,0.8,0.7,1,0.9,1.9c0.2,0.9-0.3,1.3,0.2,2.5
		c0.5,1.1,1.2,1.4,1.7,2.4s0.1,2,0.6,4.9c0.6,2.8,1.5,8.1,1.8,9.7c-0.7,2.1-7.6,5.6-17.9,1c-9.1-4.1-15.9-12.5-15.5-28.6
		C132.3,55,148,43.2,162.6,47L162.6,47z"/>
	<path class="st10" d="M165.3,96.4c-0.3-1.6-1.2-6.9-1.8-9.7c-0.6-2.8-0.6-2.7-1.1-3.6c-6.1,5.1-12.8-2.5-13.6-3.6
		c-1.7-2.3-2.7-5.1-3.1-7.9c-0.4-2.7-0.3-5.5,0.6-8.1c0.6-1.6,1.5-3.1,2.6-4.5c1.4-1.6,3-3,4.8-4c1.6-0.9,3.3-1.5,5.1-1.6
		c1.2,0,2.6,0.2,3.4,1.1c0-2.9,0-6,0.2-7.6c-14.6-3.8-30.4,8-30.7,21.8c-0.4,16.2,6.3,24.6,15.5,28.6
		C157.7,102,164.6,98.5,165.3,96.4L165.3,96.4z"/>
	<path class="st11" d="M165.3,96.4c-0.3-1.6-1.2-6.9-1.8-9.7c-0.6-2.8-0.2-3.9-0.6-4.9c-1.2,9.2-10.2,7.5-12.3,6.8
		c-2.1-0.7-4.8-2.9-6.2-4.6c-1.6-1.9-2.5-4.6-3.4-6.8c-0.9-2.3-1.5-4.8-1.6-7.3c-0.1-1.2-0.1-2.3,0-3.5c0.1-1.4,0.5-2.7,0.9-4
		c1.3-3.7,3.8-6.8,6.9-9.2c0.8-0.6,1.6-1.1,2.5-1.6c0.8-0.5,1.6-0.9,2.5-1.2c1.1-0.5,2.4-0.8,3.6-1c1.4-0.3,3-0.6,4.4-0.5
		c0.7,0,1.5,0.1,2.1,0.3c0-0.9,0.1-1.7,0.2-2.2c-14.6-3.8-30.4,8-30.7,21.8c-0.4,16.2,6.3,24.6,15.5,28.6
		C157.7,102,164.6,98.5,165.3,96.4L165.3,96.4z"/>
	<path class="st3" d="M161.9,60.7c-0.9,0.6-2.7,0.2-3.1,0.6c-0.4,0.5,0,1.3-0.4,1.7c-0.4,0.4-1.4,0.1-1.6,0.4s1,1.9,0.1,2.6
		c-0.5,0.3-2.3,1.3-2.4,1.7c-0.4,1.5,0.8,2,0.6,3c-0.1,0.5-0.8,1.4-0.7,2.5c0.1,1,1.1,1.7,1.2,2.1c0.2,0.4-0.1,1.3,0.3,2.1
		c0.4,0.8,1.3,1,1.5,1.4c0.1,0.4,0.2,0.9,0.4,1.3c0.1,0.4,0.3,0.9,0.6,1.2c0.3,0.3,0.7,0.5,1.1,0.6c0.3,0.1,0.6,0.1,0.8,0.1
		c0.7,0.1,1.2,0.7,1.6,1.3c0.3,0.5,0.6,1.1,0.9,1.6c0.1,0.2,0.1,0.3,0.2,0.5c0,0.1,0.3-0.1,0.3-0.1c0.1,0,0.1-0.1,0.2-0.1
		c-0.2-1.9,0-2.8-0.4-3.6c-0.4-0.9-1.2-1.3-1.7-2.4c-0.5-1.1,0-1.5-0.2-2.5c-0.2-0.9-0.6-1.2-0.9-1.9c-0.4-1.1-0.1-1.1-0.1-1.9
		c-0.1-0.7-0.7-1.4-0.4-2.4c0.2-0.7,1.4-0.3,1.6-2s-0.3-1.4,0-3.1c0.2-1.7,1.9-2,1.8-3.4c-0.1-0.8-0.3-1.4-0.4-2.1
		C162.4,60.4,162.2,60.6,161.9,60.7L161.9,60.7z"/>
	<path class="st4" d="M163.2,84.5c-0.3-0.5-0.6-1-0.9-1.5c-0.3-0.4-0.6-0.8-1-1.1c-0.3-0.2-0.7-0.3-1.1-0.5
		c-0.4-0.2-0.6-0.5-0.8-0.9c-0.2-0.4-0.3-0.9-0.5-1.4c-0.1-0.2-0.2-0.5-0.4-0.7c-0.2-0.2-0.4-0.4-0.6-0.6c-0.3-0.3-0.6-0.7-0.8-1.2
		c-0.1-0.4-0.2-0.8-0.3-1.2c-0.1-0.3-0.1-0.5-0.2-0.8c-0.1-0.2-0.2-0.4-0.2-0.6c-0.1-0.2-0.1-0.5,0.1-0.7c0.3-0.5,0.9-0.7,1-1.3
		c0-0.7-0.4-1.3-0.8-1.9c-0.3-0.4-0.7-1-0.6-1.6c0.1-0.8,0.9-1,1.5-1.3c0.5-0.2,0.8-0.7,0.7-1.2c0-0.4-0.2-0.8-0.2-1.2
		c0-0.4,0.3-0.7,0.6-0.8c0.3-0.1,0.6-0.2,0.7-0.5c0.1-0.2,0.2-0.4,0.2-0.6c0.1-0.3,0.1-0.6,0.3-0.8c0.3-0.3,0.7-0.5,1.1-0.6
		c0.4-0.1,0.7-0.3,1-0.5c0.3-0.2,0.4-0.5,0.6-0.8c0,0,0-0.1,0-0.1c-0.2,0.2-0.4,0.4-0.7,0.6c-0.9,0.6-2.7,0.2-3.1,0.6
		c-0.4,0.5,0,1.3-0.4,1.7c-0.4,0.4-1.4,0.1-1.6,0.4s1,1.9,0.1,2.6c-0.5,0.3-2.3,1.3-2.4,1.7c-0.4,1.5,0.8,2,0.6,3
		c-0.1,0.5-0.8,1.4-0.7,2.5c0.1,1,1.1,1.7,1.2,2.1c0.2,0.4-0.1,1.3,0.3,2.1c0.4,0.8,1.3,1,1.5,1.4c0.1,0.4,0.2,0.9,0.4,1.3
		c0.1,0.4,0.3,0.9,0.6,1.2c0.3,0.3,0.7,0.5,1.1,0.6c0.3,0.1,0.6,0.1,0.8,0.1c0.7,0.1,1.2,0.7,1.6,1.3c0.3,0.5,0.6,1.1,0.9,1.6
		c0.1,0.2,0.1,0.3,0.2,0.5c0,0.1,0.3-0.1,0.3-0.1c0.1,0,0.1-0.1,0.2-0.1C163.2,85.1,163.2,84.8,163.2,84.5L163.2,84.5z"/>
	<path class="st5" d="M162.7,60.7c0,0.4,0,0.7,0,1.1c-0.1,0.9-0.6,1.4-1.2,1.9c-0.3,0.3-0.7,0.6-0.8,1.1c-0.1,0.4,0,0.7,0.1,1.1
		c0.2,0.7,0.4,1.5,0.1,2.2c-0.1,0.3-0.4,0.5-0.6,0.7c-0.3,0.3-0.7,0.5-0.9,0.9c-0.5,0.7-0.2,1.6,0.1,2.3c0.1,0.4,0.3,0.8,0.3,1.2
		c0,0.4,0,0.8,0,1.2c0,0.4,0,0.8,0.1,1.2c0.2,0.5,0.5,0.8,0.7,1.2c0.2,0.4,0.2,0.8,0.1,1.2c-0.1,0.5-0.1,1,0.1,1.5
		c0.2,0.6,0.5,1,1,1.4c0.4,0.3,0.9,0.6,1.1,1.1c0.2,0.4,0.4,0.8,0.5,1.2c0-0.6-0.1-1-0.2-1.4c-0.4-0.9-1.2-1.3-1.7-2.4
		c-0.5-1.1,0-1.5-0.2-2.5c-0.2-0.9-0.6-1.2-0.9-1.9c-0.4-1.1-0.1-1.1-0.1-1.9c-0.1-0.7-0.7-1.4-0.4-2.4c0.2-0.7,1.4-0.3,1.6-2
		s-0.3-1.4,0-3.1c0.2-1.7,1.9-2,1.8-3.4C163,61.6,162.8,61.1,162.7,60.7L162.7,60.7L162.7,60.7z"/>
	<path class="st6" d="M165.3,96.4c0.6-3-0.7-7.3-2.1-11.8c-0.2,0-0.7,0.1-0.9,0c0.9,4.2-0.6,8.2-2.2,9.3c-8.8,5.2-19.9-5.5-23-11.9
		c-1.9-4-3.3-8.4-3.2-12.9c0.1-4.4,2-9.3,4.8-12.6c2.9-3.4,6.3-5.7,10.4-7.6c4-1.9,9-2.5,13.4-1.5c0-0.2,0-0.3,0.1-0.5
		c-14.6-3.8-30.3,8-31.2,21.7c-0.9,14.2,6.8,26,16,30.1C157.7,103.4,164.6,98.5,165.3,96.4L165.3,96.4z"/>
	<path class="st8" d="M139.1,88.9c1.4,1.8,5,5.7,7.5,6.8c5.6,2.7,10.3,2.5,11.2,2.4c2.9-0.2,6.6-2.5,7.4-1.5
		c0.1-0.1,0.1-0.2,0.1-0.3c0.6-3-0.7-7.3-2.1-11.8c-0.2,0-0.7,0.1-0.9,0c0.9,4.2-0.6,8.2-2.2,9.3c-8.8,5.2-19.9-5.5-23-11.9
		c-1.9-4-3.3-8.4-3.2-12.9c0.1-4.4,2-9.3,4.8-12.6c2.9-3.4,6.3-5.7,10.4-7.6c4-1.9,9-2.5,13.4-1.5c0-0.2,0-0.3,0.1-0.5
		c-14.6-3.8-30.3,8-31.2,21.7C132.2,80.9,138.4,88.1,139.1,88.9L139.1,88.9z"/>
	<path class="st8" d="M136.3,57c-0.9,1.6-1.4,3.4-1.5,5.3c0,0.5,0,1.1,0,1.6c0.8-2.7,2.2-5.4,4-7.4c2.9-3.4,6.3-5.7,10.4-7.6
		c4-1.9,9-2.5,13.4-1.5c0-0.2,0-0.3,0.1-0.5c-9.2-2.4-18.9,1.4-25,8.1C137.1,55.7,136.7,56.3,136.3,57L136.3,57z"/>
	<path class="st8" d="M163.1,91.2c0.6-0.1,1.2-0.3,1.9-0.5c-0.4-1.9-1.1-4-1.7-6.1c-0.2,0-0.7,0.1-0.9,0c0.5,2.4,0.2,4.8-0.4,6.5
		C162.3,91.3,162.7,91.3,163.1,91.2z"/>
</g>
<g>
	<path class="st0" d="M170.3,42.1c-2.5,1-8.9,5.2-10.9,6.6c-0.7,0.5-1.1,1.1-1.9,1.7c-1.1,0.8-2.2-0.4-3.8,0.3s-1.1,1-2.6,1.6
		c-1.6,0.7-1.9-0.5-2.5-0.3c-0.9,0.2-1.3,1.2-1.8,1.6c-0.6,0.5-0.8,0.2-1.6,1.1c-0.5,0.6-0.5,1.1-1.2,1.8c-0.7,0.7-1.3,0.4-2,1.4
		c-0.7,1-0.6,1.8-1.1,2.7s-1.7,1.1-3.8,3.1c-2.1,2-6.1,5.5-7.4,6.6c-2.1,0.5-8.7-3.5-10.2-14.8c-1.3-9.9,2.3-20.1,16.3-28.2
		C147.6,20.4,165.9,27.6,170.3,42.1L170.3,42.1z"/>
	<path class="st1" d="M129.6,70.2c1.3-1.1,5.2-4.7,7.4-6.6c2.1-2,2-1.9,2.5-2.8c-7.6-2.5-4.6-12.2-4.1-13.4c1.1-2.7,3-5,5.1-6.8
		c2.1-1.7,4.5-3.2,7.2-3.8c1.7-0.4,3.5-0.3,5.2-0.1c2.1,0.3,4.1,1,5.9,2c1.6,0.9,3,2,4,3.5c0.7,1,1.2,2.3,0.8,3.5
		c2.4-1.5,5.2-3.2,6.6-3.8c-4.4-14.5-22.7-21.7-34.6-14.8c-14,8.1-17.6,18.3-16.3,28.2C120.9,66.7,127.5,70.8,129.6,70.2L129.6,70.2
		z"/>
	<path class="st2" d="M129.6,70.2c1.3-1.1,5.2-4.7,7.4-6.6c2.1-2,3.2-2.2,3.8-3.1c-8.5,3.8-11.8-4.8-12.2-6.9
		c-0.5-2.1,0-5.6,0.7-7.7c0.8-2.3,2.6-4.5,4.1-6.5c1.5-2,3.3-3.8,5.4-5.2c0.9-0.7,1.9-1.3,3-1.8c1.2-0.6,2.6-1,3.9-1.3
		c3.8-0.8,7.8-0.4,11.4,1.1c0.9,0.4,1.8,0.8,2.6,1.3c0.8,0.5,1.6,0.9,2.3,1.5c1,0.7,1.9,1.6,2.7,2.5c1,1.1,2,2.2,2.8,3.5
		c0.3,0.6,0.7,1.3,0.8,2c0.8-0.4,1.5-0.8,2-1c-4.4-14.5-22.7-21.7-34.6-14.8c-14,8.1-17.6,18.3-16.3,28.2
		C120.9,66.7,127.5,70.7,129.6,70.2L129.6,70.2z"/>
	<path class="st3" d="M158.2,48.7c-1-0.5-1.6-2.2-2.2-2.3c-0.6-0.1-1.1,0.7-1.7,0.5c-0.6-0.1-0.8-1.2-1.2-1.2
		c-0.4,0-1.1,1.9-2.2,1.4c-0.5-0.2-2.4-1.3-2.7-1.2c-1.5,0.4-1.3,1.7-2.2,2.1c-0.5,0.2-1.6,0-2.5,0.7c-0.8,0.6-0.9,1.8-1.2,2.2
		c-0.3,0.4-1.2,0.7-1.6,1.4c-0.5,0.7-0.2,1.7-0.4,2c-0.3,0.3-0.6,0.7-0.9,1c-0.3,0.3-0.6,0.7-0.7,1.1c-0.1,0.4-0.1,0.8,0,1.2
		c0.1,0.3,0.2,0.5,0.3,0.8c0.3,0.7,0,1.4-0.3,2c-0.3,0.5-0.6,1-0.9,1.6c-0.1,0.2-0.2,0.3-0.3,0.4c0,0,0.2,0.2,0.3,0.2
		c0.1,0,0.1,0.1,0.2,0.1c1.5-1.2,2.4-1.5,2.9-2.2c0.6-0.9,0.5-1.7,1.1-2.7c0.7-1,1.3-0.8,2-1.4c0.7-0.7,0.7-1.1,1.2-1.8
		c0.7-0.9,0.9-0.6,1.6-1.1c0.5-0.4,0.9-1.3,1.8-1.6c0.7-0.2,1,1,2.5,0.3s1.1-1,2.6-1.6c1.6-0.7,2.7,0.5,3.8-0.3
		c0.7-0.5,1.1-1,1.6-1.4C158.8,48.9,158.5,48.8,158.2,48.7L158.2,48.7z"/>
	<path class="st4" d="M138.6,62.2c0.3-0.5,0.6-1,0.8-1.6c0.2-0.4,0.4-0.9,0.4-1.4c0-0.4-0.1-0.8-0.1-1.2c0-0.4,0.1-0.8,0.3-1.1
		c0.3-0.4,0.6-0.8,0.9-1.2c0.2-0.2,0.3-0.4,0.4-0.7c0.1-0.3,0.1-0.5,0.2-0.8c0.1-0.5,0.3-0.9,0.6-1.2c0.3-0.3,0.6-0.6,0.9-0.9
		c0.2-0.2,0.4-0.4,0.5-0.6c0.1-0.2,0.2-0.3,0.4-0.5c0.2-0.2,0.4-0.3,0.7-0.3c0.6,0,1.1,0.5,1.6,0.1c0.6-0.3,0.9-1.1,1.2-1.7
		c0.2-0.5,0.5-1.1,1-1.4c0.7-0.3,1.3,0.2,1.9,0.6c0.4,0.3,1,0.3,1.4,0c0.3-0.2,0.6-0.6,0.9-0.8c0.4-0.2,0.7-0.1,1,0.1
		c0.2,0.2,0.5,0.3,0.8,0.3c0.2,0,0.4,0,0.6-0.1c0.3-0.1,0.6-0.2,0.9-0.2c0.4,0.1,0.8,0.4,1.1,0.6c0.3,0.2,0.6,0.5,0.9,0.6
		c0.3,0.1,0.6,0.1,1,0.1c0,0,0.1-0.1,0.1-0.1c-0.3,0-0.6-0.1-0.9-0.2c-1-0.5-1.6-2.2-2.2-2.3c-0.6-0.1-1.1,0.7-1.7,0.5
		c-0.6-0.1-0.8-1.2-1.2-1.2c-0.4,0-1.1,1.9-2.2,1.4c-0.5-0.2-2.4-1.3-2.7-1.2c-1.5,0.4-1.3,1.7-2.2,2.1c-0.5,0.2-1.6,0-2.5,0.7
		c-0.8,0.6-0.9,1.8-1.2,2.2c-0.3,0.4-1.2,0.7-1.6,1.4c-0.5,0.7-0.2,1.7-0.4,2c-0.3,0.3-0.6,0.7-0.9,1c-0.3,0.3-0.6,0.7-0.7,1.1
		c-0.1,0.4-0.1,0.8,0,1.2c0.1,0.3,0.2,0.5,0.3,0.8c0.3,0.7,0,1.4-0.3,2c-0.3,0.5-0.6,1-0.9,1.6c-0.1,0.2-0.2,0.3-0.3,0.4
		c0,0,0.2,0.2,0.3,0.2c0.1,0,0.1,0.1,0.2,0.1C138.1,62.6,138.4,62.4,138.6,62.2L138.6,62.2z"/>
	<path class="st5" d="M158.6,49.3c-0.3,0.2-0.6,0.4-0.9,0.5c-0.8,0.4-1.5,0.2-2.3,0c-0.4-0.1-0.9-0.3-1.3-0.1
		c-0.4,0.1-0.6,0.4-0.9,0.7c-0.5,0.5-1.1,1.1-1.8,1.2c-0.3,0-0.6,0-0.9-0.1c-0.4-0.1-0.8-0.3-1.2-0.3c-0.9,0-1.4,0.7-2,1.3
		c-0.3,0.3-0.5,0.6-0.8,0.9c-0.3,0.2-0.7,0.4-1,0.6c-0.4,0.2-0.7,0.4-1,0.7c-0.3,0.4-0.4,0.8-0.7,1.2c-0.2,0.4-0.6,0.6-1,0.7
		c-0.5,0.2-0.9,0.5-1.3,0.8c-0.4,0.5-0.6,1-0.7,1.6c-0.1,0.5-0.1,1-0.3,1.5c-0.2,0.4-0.4,0.7-0.8,1.1c0.5-0.3,0.8-0.6,1.1-1
		c0.6-0.9,0.5-1.7,1.1-2.7c0.7-1,1.3-0.8,2-1.4c0.7-0.7,0.7-1.1,1.2-1.8c0.7-0.9,0.9-0.6,1.6-1.1c0.5-0.4,0.9-1.3,1.8-1.6
		c0.7-0.2,1,1,2.5,0.3s1.1-1,2.6-1.6c1.6-0.7,2.7,0.5,3.8-0.3C158,50,158.3,49.6,158.6,49.3L158.6,49.3L158.6,49.3z"/>
	<path class="st6" d="M129.6,70.2c2.9-1,5.8-4.4,8.9-8c-0.2-0.2-0.5-0.5-0.5-0.8c-3.2,3-7.3,3.8-9.1,3c-9-4.8-5.8-19.8-1.9-25.8
		c2.4-3.7,5.5-7.2,9.3-9.5c3.8-2.2,9-3.2,13.3-2.5c4.4,0.7,8.2,2.4,11.9,4.9c3.7,2.4,6.9,6.3,8.2,10.6c0.2-0.1,0.3-0.2,0.5-0.2
		c-4.4-14.5-22.7-21.6-34.9-15.2c-12.6,6.6-18.6,19.5-17.3,29.4C119.6,67.4,127.5,70.8,129.6,70.2L129.6,70.2z"/>
	<path class="st7" d="M122.3,44c-0.8,2.1-2.2,7.2-1.9,10c0.7,6.1,3.2,10,3.8,10.8c1.7,2.3,5.6,4.3,5.1,5.6c0.1,0,0.2,0,0.3-0.1
		c2.9-1,5.8-4.4,8.9-8c-0.2-0.2-0.5-0.5-0.5-0.8c-3.2,3-7.3,3.8-9.1,3c-9-4.8-5.8-19.8-1.9-25.8c2.4-3.7,5.5-7.2,9.3-9.5
		c3.8-2.2,9-3.2,13.3-2.5c4.4,0.7,8.2,2.4,11.9,4.9c3.7,2.4,6.9,6.3,8.2,10.6c0.2-0.1,0.3-0.2,0.5-0.2
		c-4.4-14.5-22.7-21.6-34.9-15.2C125.5,33.9,122.6,43,122.3,44L122.3,44z"/>
	<path class="st8" d="M148,24.9c-1.8,0.1-3.6,0.6-5.3,1.5c-0.5,0.2-0.9,0.5-1.4,0.8c2.8-0.7,5.7-0.9,8.4-0.5
		c4.4,0.7,8.2,2.4,11.9,4.9c3.7,2.4,6.9,6.3,8.2,10.6c0.2-0.1,0.3-0.2,0.5-0.2c-2.8-9.2-11.1-15.4-20-17.1
		C149.5,24.9,148.8,24.9,148,24.9L148,24.9z"/>
	<path class="st8" d="M132.8,65.6c0.4,0.5,0.9,0.9,1.4,1.3c1.4-1.4,2.9-3,4.3-4.7c-0.2-0.2-0.5-0.5-0.5-0.8
		c-1.8,1.7-3.9,2.7-5.8,3.1C132.4,64.9,132.6,65.3,132.8,65.6L132.8,65.6z"/>
</g>
<g>
	<path class="st12" d="M135.1,0.3c2.5,1,10,2.5,12.4,2.9c0.9,0.1,1.6,0,2.6,0.1c1.3,0.2,1.3,1.9,2.9,2.5c1.6,0.6,1.5,0.1,3.1,0.7
		c1.6,0.6,1,1.7,1.6,2c0.8,0.5,1.7,0.1,2.4,0.1c0.8,0.1,0.7,0.4,1.9,0.3c0.8-0.1,1.1-0.4,2.1-0.4s1.2,0.6,2.4,0.4
		c1.2-0.2,1.7-0.9,2.7-1.1s2,0.4,4.9,0.5c2.9,0.1,8.2,0.3,9.9,0.4c1.9,1.1,3.8,8.6-3,17.7c-6,8-15.7,12.7-31.4,8.7
		C136.1,31.7,128.1,13.7,135.1,0.3L135.1,0.3z"/>
	<path class="st13" d="M183.8,8.7c-1.7-0.1-7-0.3-9.9-0.4s-2.8,0-3.8,0.2c3.6,7.1-5.3,11.9-6.5,12.4c-2.6,1.2-5.6,1.5-8.4,1.2
		c-2.7-0.2-5.5-0.9-7.8-2.4c-1.5-0.9-2.7-2.2-3.8-3.6c-1.2-1.7-2.2-3.6-2.8-5.6c-0.5-1.7-0.8-3.6-0.4-5.3c0.2-1.2,0.8-2.5,1.9-3.1
		c-2.8-0.6-5.9-1.4-7.3-1.9c-7,13.4,1,31.4,14.4,34.8c15.6,4,25.4-0.7,31.4-8.7C187.6,17.3,185.7,9.8,183.8,8.7L183.8,8.7z"/>
	<path class="st14" d="M183.8,8.7c-1.7-0.1-7-0.3-9.9-0.4s-3.9-0.7-4.9-0.5c8.7,3.2,5.1,11.6,3.9,13.5c-1.1,1.8-3.9,4-5.8,5
		c-2.2,1.1-5,1.5-7.4,1.8c-2.5,0.3-5,0.4-7.5,0c-1.1-0.2-2.3-0.4-3.4-0.8c-1.3-0.5-2.5-1.1-3.7-1.8c-3.3-2.1-5.8-5.2-7.4-8.8
		c-0.4-0.9-0.7-1.8-1-2.8c-0.3-0.9-0.5-1.8-0.6-2.7c-0.2-1.2-0.2-2.5-0.2-3.7c0-1.5,0.1-3,0.5-4.4c0.2-0.7,0.4-1.4,0.8-2
		c-0.9-0.2-1.6-0.5-2.1-0.7c-7,13.4,1,31.4,14.4,34.8c15.6,4,25.4-0.7,31.4-8.7C187.5,17.3,185.7,9.8,183.8,8.7L183.8,8.7z"/>
	<path class="st15" d="M148.3,4.1c0.4,1-0.4,2.7-0.1,3.2c0.4,0.5,1.2,0.2,1.6,0.8c0.3,0.5-0.2,1.4,0.1,1.7c0.3,0.3,2.1-0.6,2.6,0.5
		c0.2,0.5,0.8,2.6,1.1,2.7c1.4,0.8,2.1-0.3,3.1,0.1c0.5,0.2,1.2,1.1,2.2,1.3c1,0.1,1.9-0.6,2.3-0.7c0.5-0.1,1.3,0.4,2.1,0.2
		c0.9-0.2,1.3-1.1,1.7-1.1c0.5,0,0.9-0.1,1.4-0.1c0.4,0,0.9-0.1,1.3-0.3c0.3-0.2,0.7-0.5,0.9-0.9c0.1-0.2,0.2-0.5,0.3-0.8
		c0.3-0.7,0.9-1,1.6-1.2c0.6-0.2,1.2-0.3,1.8-0.5c0.2,0,0.3-0.1,0.5-0.1c0.1,0,0-0.3-0.1-0.3c0-0.1,0-0.1,0-0.2
		c-1.9-0.2-2.8-0.6-3.6-0.4c-1,0.2-1.5,0.9-2.7,1.1c-1.2,0.2-1.5-0.4-2.4-0.4c-1,0-1.3,0.3-2.1,0.4c-1.2,0.1-1.1-0.2-1.9-0.3
		c-0.7-0.1-1.5,0.3-2.4-0.1c-0.6-0.4,0-1.4-1.6-2c-1.6-0.6-1.5-0.1-3.1-0.7c-1.6-0.6-1.6-2.3-2.9-2.5c-0.8-0.1-1.4,0-2.1-0.1
		C148.1,3.5,148.2,3.7,148.3,4.1L148.3,4.1z"/>
	<path class="st4" d="M171.8,8.1c-0.6,0.1-1.1,0.3-1.7,0.6c-0.4,0.2-0.9,0.4-1.3,0.7c-0.3,0.3-0.5,0.6-0.8,0.9
		c-0.3,0.3-0.6,0.5-1,0.6c-0.5,0.1-1,0.1-1.5,0.2c-0.3,0-0.5,0.1-0.8,0.2c-0.3,0.1-0.5,0.3-0.7,0.4c-0.4,0.3-0.8,0.4-1.3,0.5
		c-0.4,0-0.8,0-1.2,0c-0.3,0-0.6,0-0.8,0.1c-0.2,0-0.4,0.1-0.6,0.1c-0.3,0-0.5-0.1-0.7-0.3c-0.4-0.4-0.4-1.1-1.1-1.2
		c-0.7-0.2-1.4,0.1-2,0.4c-0.5,0.2-1.1,0.5-1.7,0.3c-0.7-0.3-0.8-1.1-0.9-1.7c-0.1-0.5-0.5-0.9-1-1c-0.4-0.1-0.8,0-1.2-0.1
		c-0.4-0.1-0.6-0.4-0.7-0.8c-0.1-0.3-0.1-0.6-0.3-0.8c-0.2-0.1-0.3-0.2-0.5-0.3c-0.3-0.1-0.6-0.2-0.8-0.5C149,6,149,5.5,148.9,5.1
		c-0.1-0.4-0.1-0.8-0.2-1.1c-0.1-0.3-0.4-0.5-0.6-0.7c0,0-0.1,0-0.1,0c0.2,0.2,0.3,0.5,0.4,0.8c0.4,1-0.4,2.7-0.1,3.2
		c0.4,0.5,1.2,0.2,1.6,0.8c0.3,0.5-0.2,1.4,0.1,1.7c0.3,0.3,2.1-0.6,2.6,0.5c0.2,0.5,0.8,2.6,1.1,2.7c1.4,0.8,2.1-0.3,3.1,0.1
		c0.5,0.2,1.2,1.1,2.2,1.3c1,0.1,1.9-0.6,2.3-0.7c0.5-0.1,1.3,0.4,2.1,0.2c0.9-0.2,1.3-1.1,1.7-1.1c0.5,0,0.9-0.1,1.4-0.1
		c0.4,0,0.9-0.1,1.3-0.3c0.3-0.2,0.7-0.5,0.9-0.9c0.1-0.2,0.2-0.5,0.3-0.8c0.3-0.7,0.9-1,1.6-1.2c0.6-0.2,1.2-0.3,1.8-0.5
		c0.2,0,0.3-0.1,0.5-0.1c0.1,0,0-0.3-0.1-0.3c0-0.1,0-0.1,0-0.2C172.4,8.2,172.1,8.1,171.8,8.1L171.8,8.1z"/>
	<path class="st5" d="M148.5,3.3c0.4,0.1,0.7,0.2,1,0.3c0.8,0.3,1.2,0.9,1.6,1.6c0.2,0.4,0.4,0.8,0.9,1c0.3,0.2,0.7,0.2,1.1,0.2
		c0.7,0,1.5-0.1,2.1,0.4c0.2,0.2,0.4,0.5,0.6,0.8c0.2,0.4,0.4,0.8,0.6,1.1c0.6,0.6,1.5,0.5,2.3,0.5c0.4,0,0.8-0.1,1.2,0
		c0.4,0.1,0.8,0.2,1.1,0.3c0.4,0.1,0.8,0.2,1.2,0.2c0.5-0.1,0.9-0.3,1.4-0.4c0.5-0.1,0.8,0,1.2,0.2c0.5,0.2,1,0.3,1.5,0.3
		c0.6,0,1.1-0.3,1.6-0.6c0.4-0.3,0.8-0.7,1.3-0.9c0.4-0.2,0.8-0.2,1.3-0.2c-0.6-0.1-1-0.2-1.4-0.1c-1,0.2-1.5,0.9-2.7,1.1
		c-1.2,0.2-1.5-0.4-2.4-0.4c-1,0-1.3,0.3-2.1,0.4c-1.2,0.1-1.1-0.2-1.9-0.3c-0.7-0.1-1.5,0.3-2.4-0.1c-0.6-0.4,0-1.4-1.6-2
		c-1.6-0.6-1.5-0.1-3.1-0.7c-1.6-0.6-1.6-2.3-2.9-2.5c-0.6-0.1-1.1-0.1-1.6-0.1L148.5,3.3L148.5,3.3z"/>
	<path class="st16" d="M183.8,8.7c-2.8-1.3-7.2-0.9-12-0.6c0,0.2-0.1,0.7-0.2,0.9c4.3,0.1,7.9,2.5,8.6,4.2
		c3.1,9.7-9.8,18.2-16.7,19.7c-4.3,1-9,1.3-13.3,0.2c-4.3-1.1-8.6-4-11.2-7.5c-2.6-3.6-4.2-7.5-5.1-11.8c-0.9-4.3-0.5-9.3,1.6-13.4
		c-0.2-0.1-0.3-0.1-0.5-0.2c-7,13.4,1.1,31.3,14.2,35.3c13.6,4.1,26.9-0.9,32.9-8.9C189,17.7,185.7,9.8,183.8,8.7z"/>
	<path class="st17" d="M170.7,32.6c2-1,6.6-3.6,8.3-5.8c3.8-4.8,4.7-9.4,4.9-10.4c0.4-2.8-1-7,0.2-7.6c-0.1-0.1-0.2-0.1-0.3-0.2
		c-2.8-1.3-7.2-0.9-12-0.6c0,0.2-0.1,0.7-0.2,0.9c4.3,0.1,7.9,2.5,8.6,4.2c3.1,9.7-9.8,18.2-16.7,19.7c-4.3,1-9,1.3-13.3,0.2
		c-4.3-1.1-8.6-4-11.2-7.5c-2.6-3.6-4.2-7.5-5.1-11.8c-0.9-4.3-0.5-9.3,1.6-13.4c-0.2-0.1-0.3-0.1-0.5-0.2
		c-7,13.4,1.1,31.3,14.2,35.3C161.3,37.5,169.7,33,170.7,32.6L170.7,32.6z"/>
	<path class="st8" d="M139,28.2c1.4,1.2,3.1,2.1,4.8,2.6c0.5,0.2,1,0.3,1.6,0.4c-2.5-1.4-4.7-3.4-6.3-5.5c-2.6-3.6-4.2-7.5-5.1-11.8
		c-0.9-4.3-0.5-9.3,1.6-13.4c-0.2-0.1-0.3-0.1-0.5-0.2c-4.4,8.5-2.8,18.8,2.3,26.2C137.9,27.1,138.4,27.7,139,28.2L139,28.2z"/>
	<path class="st8" d="M178.3,9.7c0.1-0.6,0-1.3-0.1-1.9c-2,0-4.1,0.2-6.4,0.3c0,0.2-0.1,0.7-0.2,0.9c2.5,0.1,4.7,0.9,6.3,1.9
		C178.2,10.5,178.3,10.1,178.3,9.7L178.3,9.7z"/>
</g>
<g>
	<path class="st9" d="M136.4,53.7c2-1.4,8.4-4.2,10.4-5c0.7-0.3,1.4-0.3,2.2-0.6c1.1-0.4,0.8-1.9,2.1-2.8s1.3-0.3,2.6-1.2
		c1.3-0.8,0.5-1.7,1-2.1c0.6-0.6,1.5-0.4,2.1-0.6c0.7-0.2,0.6-0.5,1.6-0.6c0.7-0.1,1.1,0.2,1.9,0c0.9-0.2,1-0.8,2.1-0.8
		c1.1,0,1.7,0.5,2.6,0.5s1.7-0.7,4.2-1.4c2.5-0.6,7.2-1.9,8.6-2.3c1.4-1.3,1.6-8.4-6.1-15c-6.8-5.9-16.3-8.2-29.4-1.6
		C131.3,25.8,127.7,43.2,136.4,53.7L136.4,53.7z"/>
	<path class="st18" d="M177.8,36.8c-1.4,0.4-6.1,1.7-8.6,2.3s-2.4,0.5-3.4,0.5c1.8-7-7-9.5-8.2-9.7c-2.5-0.5-5.2-0.2-7.7,0.5
		c-2.3,0.7-4.6,1.9-6.4,3.6c-1.1,1.1-2,2.5-2.6,3.9c-0.8,1.7-1.2,3.6-1.4,5.5c-0.1,1.6,0,3.3,0.7,4.8c0.4,1,1.2,2.1,2.3,2.4
		c-2.4,1.1-4.9,2.3-6.1,3.1c-8.8-10.5-5.2-27.9,5.9-33.5c13-6.6,22.5-4.3,29.4,1.6C179.5,28.4,179.3,35.4,177.8,36.8L177.8,36.8z"/>
	<path class="st19" d="M177.8,36.8c-1.4,0.4-6.1,1.7-8.6,2.3s-3.3,1.4-4.2,1.4c7.1-4.5,2.2-11.3,0.8-12.7c-1.4-1.4-4.2-2.8-6.1-3.3
		c-2.1-0.5-4.7-0.3-6.9-0.1c-2.2,0.2-4.5,0.6-6.6,1.5c-1,0.4-1.9,0.8-2.8,1.4c-1.1,0.6-2,1.4-2.9,2.3c-2.5,2.5-4.1,5.7-4.8,9.2
		c-0.2,0.9-0.3,1.8-0.3,2.6c-0.1,0.8-0.1,1.7,0,2.5c0.1,1.1,0.3,2.2,0.5,3.3c0.3,1.3,0.7,2.6,1.3,3.8c0.3,0.5,0.6,1.2,1.1,1.6
		c-0.7,0.4-1.3,0.7-1.7,1c-8.8-10.5-5.2-27.9,5.9-33.5c13-6.6,22.5-4.3,29.4,1.6C179.5,28.4,179.3,35.4,177.8,36.8L177.8,36.8z"/>
	<path class="st3" d="M147.4,47.8c0.1-1-0.9-2.3-0.7-2.8s1.1-0.5,1.2-1c0.2-0.5-0.5-1.2-0.3-1.5s2,0.1,2.1-1
		c0.1-0.5,0.2-2.4,0.4-2.6c1.1-0.9,2-0.1,2.7-0.7c0.4-0.3,0.8-1.2,1.7-1.5c0.9-0.3,1.8,0.2,2.2,0.2c0.4,0,1.1-0.6,1.8-0.6
		c0.8,0,1.3,0.7,1.7,0.6c0.4,0,0.8-0.1,1.2-0.2c0.4,0,0.8-0.1,1.2,0c0.3,0.1,0.7,0.3,0.9,0.6c0.2,0.2,0.3,0.4,0.4,0.6
		c0.4,0.6,1,0.7,1.7,0.8c0.5,0.1,1.1,0.1,1.6,0.1c0.2,0,0.3,0,0.5,0c0.1,0,0,0.3,0,0.3c0,0.1,0,0.1,0,0.2c-1.7,0.5-2.3,1.1-3.1,1.1
		c-0.9,0-1.5-0.5-2.6-0.5c-1.1,0-1.2,0.6-2.1,0.8c-0.9,0.2-1.2,0-1.9,0c-1.1,0.1-0.9,0.4-1.6,0.6c-0.6,0.2-1.4,0-2.1,0.6
		c-0.5,0.4,0.3,1.2-1,2.1s-1.3,0.3-2.6,1.2c-1.3,0.8-0.9,2.3-2.1,2.8c-0.7,0.3-1.3,0.3-1.8,0.5C147.3,48.3,147.4,48.1,147.4,47.8
		L147.4,47.8z"/>
	<path class="st4" d="M167.4,39.6c-0.5,0-1.1-0.1-1.6-0.2c-0.4-0.1-0.9-0.2-1.2-0.4c-0.3-0.2-0.6-0.5-0.9-0.7
		c-0.3-0.2-0.6-0.3-1-0.3c-0.4,0-0.9,0.1-1.3,0.1c-0.2,0-0.5,0-0.7,0c-0.2-0.1-0.5-0.2-0.7-0.3c-0.4-0.2-0.8-0.2-1.2-0.2
		c-0.4,0-0.7,0.2-1.1,0.2c-0.2,0-0.5,0.1-0.7,0.1c-0.2,0-0.4,0-0.6,0c-0.2,0-0.4,0.2-0.6,0.4c-0.2,0.5-0.2,1-0.7,1.3
		c-0.6,0.3-1.2,0.1-1.8,0c-0.5-0.1-1.1-0.2-1.6,0.1c-0.6,0.4-0.5,1.1-0.5,1.7c0,0.5-0.2,0.9-0.7,1.1c-0.3,0.1-0.7,0.2-1.1,0.3
		c-0.3,0.2-0.4,0.5-0.4,0.8c0,0.2,0,0.5-0.1,0.8c-0.1,0.2-0.2,0.3-0.4,0.4c-0.2,0.2-0.4,0.3-0.6,0.6c-0.1,0.3-0.1,0.8-0.1,1.1
		c0,0.3,0.1,0.7,0,1c-0.1,0.3-0.2,0.6-0.4,0.8c0,0-0.1,0-0.1,0c0.1-0.2,0.2-0.5,0.2-0.8c0.1-1-0.9-2.3-0.7-2.8s1.1-0.5,1.2-1
		c0.2-0.5-0.5-1.2-0.3-1.5s2,0.1,2.1-1c0.1-0.5,0.2-2.4,0.4-2.6c1.1-0.9,2-0.1,2.7-0.7c0.4-0.3,0.8-1.2,1.7-1.5
		c0.9-0.3,1.8,0.2,2.2,0.2c0.4,0,1.1-0.6,1.8-0.6c0.8,0,1.3,0.7,1.7,0.6c0.4,0,0.8-0.1,1.2-0.2c0.4,0,0.8-0.1,1.2,0
		c0.3,0.1,0.7,0.3,0.9,0.6c0.2,0.2,0.3,0.4,0.4,0.6c0.4,0.6,1,0.7,1.7,0.8c0.5,0.1,1.1,0.1,1.6,0.1c0.2,0,0.3,0,0.5,0
		c0.1,0,0,0.3,0,0.3c0,0.1,0,0.1,0,0.2C167.8,39.4,167.6,39.5,167.4,39.6L167.4,39.6z"/>
	<path class="st5" d="M147.7,48.4c0.3-0.1,0.6-0.3,0.9-0.4c0.7-0.4,0.9-1,1.1-1.8c0.1-0.4,0.2-0.8,0.6-1.1c0.3-0.2,0.6-0.3,0.9-0.3
		c0.6-0.1,1.4-0.2,1.8-0.8c0.2-0.2,0.3-0.5,0.4-0.8c0.1-0.4,0.1-0.8,0.4-1.1c0.4-0.7,1.2-0.8,1.9-0.9c0.4,0,0.7-0.1,1.1-0.2
		c0.3-0.1,0.6-0.3,0.9-0.5c0.3-0.2,0.7-0.4,1-0.4c0.4,0,0.8,0.1,1.3,0.1c0.4,0,0.7-0.2,1.1-0.4c0.4-0.2,0.8-0.5,1.3-0.5
		c0.5-0.1,1.1,0,1.5,0.3c0.4,0.2,0.9,0.5,1.3,0.5c0.4,0.1,0.8,0,1.2,0c-0.5,0.2-0.9,0.3-1.3,0.3c-0.9,0-1.5-0.5-2.6-0.5
		c-1.1,0-1.2,0.6-2.1,0.8c-0.9,0.2-1.2,0-1.9,0c-1.1,0.1-0.9,0.4-1.6,0.6c-0.6,0.2-1.4,0-2.1,0.6c-0.5,0.4,0.3,1.2-1,2.1
		c-1.3,0.8-1.3,0.3-2.6,1.2c-1.3,0.8-0.9,2.3-2.1,2.8C148.5,48.3,148,48.4,147.7,48.4L147.7,48.4L147.7,48.4z"/>
	<path class="st20" d="M177.8,36.8c-2.2,1.7-6.2,2.2-10.4,2.8c-0.1-0.2-0.2-0.6-0.3-0.8c3.8-0.9,6.5-3.7,6.8-5.4
		c0.9-9.2-12.1-14.2-18.6-14.2c-4,0-8.2,0.6-11.8,2.4c-3.6,1.8-6.9,5.2-8.4,8.8c-1.6,3.7-2.2,7.4-2.2,11.4c0,4,1.4,8.3,4,11.5
		c-0.1,0.1-0.3,0.2-0.4,0.2c-8.8-10.5-5.1-27.9,5.7-33.9c11.2-6.2,23.9-4.5,30.8,1.4C180.7,27.9,179.3,35.4,177.8,36.8L177.8,36.8z"
		/>
	<path class="st21" d="M161.6,18.3c2,0.5,6.6,1.9,8.5,3.5c4.3,3.5,6,7.4,6.3,8.2c0.9,2.4,0.5,6.4,1.7,6.6c-0.1,0.1-0.1,0.2-0.2,0.2
		c-2.2,1.7-6.2,2.2-10.4,2.8c-0.1-0.2-0.2-0.6-0.3-0.8c3.8-0.9,6.5-3.7,6.8-5.4c0.9-9.2-12.1-14.2-18.6-14.2c-4,0-8.2,0.6-11.8,2.4
		c-3.6,1.8-6.9,5.2-8.4,8.8c-1.6,3.7-2.2,7.4-2.2,11.4c0,4,1.4,8.3,4,11.5c-0.1,0.1-0.3,0.2-0.4,0.2c-8.8-10.5-5.1-27.9,5.7-33.9
		C152.4,15.7,160.6,18,161.6,18.3L161.6,18.3z"/>
	<path class="st8" d="M134.5,28.3c1-1.3,2.3-2.4,3.8-3.2c0.4-0.2,0.9-0.5,1.3-0.6c-1.9,1.7-3.5,3.9-4.5,6.1
		c-1.6,3.7-2.2,7.4-2.2,11.4c0,4,1.4,8.3,4,11.5c-0.1,0.1-0.3,0.2-0.4,0.2c-5.6-6.6-6.1-16-3.1-23.6
		C133.7,29.5,134.1,28.9,134.5,28.3z"/>
	<path class="st8" d="M172.8,37c0.2,0.5,0.3,1.1,0.3,1.7c-1.7,0.4-3.7,0.7-5.7,1c-0.1-0.2-0.2-0.6-0.3-0.8c2.2-0.5,4-1.7,5.2-2.8
		C172.5,36.3,172.7,36.6,172.8,37z"/>
</g>
<g>
	<path class="st0" d="M153.9,15.7c2.7-0.2,10.1-2.1,12.4-2.8c0.8-0.2,1.4-0.7,2.4-1c1.3-0.4,2,1.1,3.7,0.9c1.7-0.1,1.4-0.6,3-0.7
		s1.6,1.1,2.3,1.1c1,0.1,1.6-0.7,2.2-0.9c0.8-0.3,0.9,0.1,1.8-0.6c0.7-0.4,0.8-0.9,1.7-1.3c0.9-0.4,1.4,0,2.4-0.7
		c1-0.7,1.1-1.5,1.9-2.2s2-0.5,4.6-1.7c2.6-1.2,7.5-3.3,9.1-4c2.2,0.2,7.2,6.1,5,17.2c-1.9,9.8-8.6,18.3-24.4,21.6
		C168.6,43.4,153.5,30.8,153.9,15.7L153.9,15.7z"/>
	<path class="st13" d="M201.4,1.9c-1.5,0.6-6.4,2.8-9.1,4C189.7,7,189.9,7,189,7.7c6.4,4.8,0.5,13-0.4,14c-1.9,2.2-4.4,3.8-7,4.8
		c-2.5,1-5.3,1.6-8,1.3c-1.7-0.2-3.4-0.8-4.9-1.6c-1.9-1-3.6-2.2-4.9-3.8c-1.2-1.4-2.2-2.9-2.7-4.6c-0.3-1.2-0.4-2.6,0.3-3.6
		c-2.8,0.7-5.9,1.4-7.4,1.5c-0.4,15.1,14.7,27.7,28.1,25c15.8-3.3,22.5-11.7,24.4-21.6C208.6,8,203.6,2,201.4,1.9L201.4,1.9z"/>
	<path class="st22" d="M201.4,1.9c-1.5,0.6-6.4,2.8-9.1,4c-2.6,1.2-3.8,1-4.6,1.7c9.2-0.9,9.7,8.2,9.4,10.4c-0.2,2.2-1.8,5.3-3.1,7
		c-1.5,2-3.9,3.5-5.9,4.9c-2.1,1.4-4.4,2.5-6.7,3.3c-1.1,0.3-2.2,0.6-3.4,0.8c-1.4,0.2-2.8,0.1-4.1,0c-3.9-0.5-7.5-2.1-10.5-4.7
		c-0.7-0.6-1.4-1.3-2.1-2c-0.6-0.7-1.2-1.4-1.8-2.2c-0.7-1-1.3-2.1-1.8-3.2c-0.6-1.4-1.2-2.8-1.5-4.2c-0.1-0.7-0.3-1.5-0.2-2.2
		c-0.9,0.2-1.6,0.3-2.2,0.3c-0.4,15.1,14.7,27.7,28.1,25c15.8-3.3,22.5-11.7,24.4-21.6C208.5,8,203.6,2,201.4,1.9L201.4,1.9z"/>
	<path class="st3" d="M167.5,13.2c0.8,0.8,0.8,2.6,1.3,2.9c0.6,0.3,1.2-0.3,1.8,0c0.5,0.3,0.4,1.4,0.8,1.5c0.4,0.1,1.6-1.5,2.5-0.6
		c0.4,0.4,1.8,2,2.2,2c1.6,0.1,1.8-1.2,2.8-1.3c0.5,0,1.5,0.5,2.6,0.1c1-0.3,1.4-1.4,1.8-1.7c0.4-0.3,1.3-0.2,2-0.8
		c0.7-0.6,0.7-1.5,1.1-1.7c0.4-0.2,0.8-0.4,1.2-0.7c0.4-0.2,0.8-0.5,1-0.8c0.2-0.3,0.4-0.8,0.4-1.2c0-0.3-0.1-0.6-0.1-0.8
		c-0.1-0.7,0.4-1.3,0.9-1.8c0.4-0.4,0.9-0.8,1.4-1.2c0.1-0.1,0.3-0.2,0.4-0.3c0,0-0.2-0.2-0.2-0.3c0-0.1-0.1-0.1-0.1-0.2
		c-1.8,0.7-2.7,0.7-3.4,1.2c-0.8,0.6-1,1.5-1.9,2.2c-1,0.7-1.5,0.3-2.4,0.7s-1,0.9-1.7,1.3c-1,0.6-1.1,0.3-1.8,0.6
		c-0.6,0.2-1.2,1-2.2,0.9c-0.7-0.1-0.6-1.2-2.3-1.1c-1.7,0.1-1.4,0.6-3,0.7s-2.4-1.4-3.7-0.9c-0.8,0.2-1.3,0.6-1.9,0.9
		C167,12.8,167.2,13,167.5,13.2L167.5,13.2z"/>
	<path class="st4" d="M190.3,6.6c-0.4,0.4-0.9,0.8-1.3,1.2c-0.3,0.4-0.6,0.8-0.8,1.2c-0.1,0.4-0.2,0.8-0.3,1.2
		c-0.1,0.4-0.3,0.7-0.7,1c-0.4,0.3-0.8,0.5-1.2,0.8c-0.2,0.1-0.4,0.3-0.6,0.5c-0.2,0.2-0.3,0.5-0.4,0.7c-0.2,0.4-0.5,0.8-0.9,1
		c-0.4,0.2-0.8,0.4-1.1,0.6c-0.2,0.1-0.5,0.3-0.7,0.4c-0.2,0.1-0.3,0.3-0.5,0.4c-0.2,0.1-0.5,0.2-0.7,0.1c-0.5-0.2-0.9-0.8-1.5-0.6
		c-0.7,0.1-1.2,0.7-1.6,1.2c-0.4,0.4-0.8,0.9-1.4,1c-0.8,0.1-1.2-0.6-1.6-1.1c-0.3-0.4-0.8-0.6-1.4-0.4c-0.4,0.1-0.7,0.4-1.1,0.4
		c-0.4,0.1-0.7-0.1-0.9-0.4c-0.2-0.2-0.4-0.5-0.6-0.6c-0.2-0.1-0.4-0.1-0.6-0.1c-0.3,0-0.6,0-0.9-0.1c-0.4-0.2-0.6-0.6-0.8-0.9
		c-0.2-0.3-0.4-0.6-0.7-0.9c-0.3-0.2-0.6-0.3-0.9-0.4c0,0-0.1,0-0.1,0.1c0.3,0.1,0.5,0.3,0.7,0.5c0.8,0.8,0.8,2.6,1.3,2.9
		c0.6,0.3,1.2-0.3,1.8,0c0.5,0.3,0.4,1.4,0.8,1.5c0.4,0.1,1.6-1.5,2.5-0.6c0.4,0.4,1.8,2,2.2,2c1.6,0.1,1.8-1.2,2.8-1.3
		c0.5,0,1.5,0.5,2.6,0.1c1-0.3,1.4-1.4,1.8-1.7c0.4-0.3,1.3-0.2,2-0.8c0.7-0.6,0.7-1.5,1.1-1.7c0.4-0.2,0.8-0.4,1.2-0.7
		c0.4-0.2,0.8-0.5,1-0.8c0.2-0.3,0.4-0.8,0.4-1.2c0-0.3-0.1-0.6-0.1-0.8c-0.1-0.7,0.4-1.3,0.9-1.8c0.4-0.4,0.9-0.8,1.4-1.2
		c0.1-0.1,0.3-0.2,0.4-0.3c0,0-0.2-0.2-0.2-0.3c0-0.1-0.1-0.1-0.1-0.2C190.9,6.4,190.6,6.5,190.3,6.6L190.3,6.6z"/>
	<path class="st5" d="M167.3,12.5c0.3-0.1,0.7-0.1,1-0.2c0.9-0.1,1.5,0.3,2.2,0.8c0.4,0.3,0.8,0.6,1.2,0.5c0.4,0,0.7-0.2,1.1-0.3
		c0.6-0.3,1.4-0.7,2.1-0.6c0.3,0.1,0.6,0.2,0.9,0.4c0.3,0.2,0.7,0.6,1.1,0.7c0.8,0.3,1.6-0.2,2.3-0.6c0.3-0.2,0.7-0.4,1.1-0.6
		c0.4-0.1,0.8-0.2,1.1-0.2c0.4-0.1,0.8-0.1,1.2-0.4c0.4-0.3,0.7-0.7,1-1c0.4-0.3,0.7-0.3,1.2-0.4c0.5-0.1,1-0.1,1.5-0.4
		c0.5-0.3,0.9-0.8,1.1-1.3c0.2-0.4,0.4-1,0.8-1.3c0.3-0.3,0.7-0.6,1.1-0.8c-0.6,0.2-1,0.3-1.3,0.6c-0.8,0.7-1,1.5-1.9,2.2
		c-1,0.7-1.5,0.3-2.4,0.7c-0.9,0.4-1,0.9-1.7,1.3c-1,0.6-1.1,0.3-1.8,0.6c-0.6,0.2-1.2,1-2.2,0.9c-0.7-0.1-0.6-1.2-2.3-1.1
		c-1.7,0.1-1.4,0.6-3,0.7s-2.4-1.4-3.7-0.9C168.1,12,167.6,12.3,167.3,12.5L167.3,12.5L167.3,12.5z"/>
	<path class="st6" d="M201.4,1.9c-3,0.1-6.9,2.3-11,4.7c0.1,0.2,0.3,0.7,0.2,0.9c3.9-1.8,8.1-1.2,9.6,0c7.1,7.4-0.8,20.6-6.4,25
		c-3.5,2.8-7.5,5.1-11.8,6c-4.3,0.9-9.5,0.2-13.4-1.8c-4-2.1-7-4.9-9.8-8.4c-2.7-3.5-4.5-8.1-4.4-12.7c-0.2,0-0.4,0-0.5,0.1
		c-0.4,15.1,14.7,27.7,28.3,25.5c14-2.3,23.8-12.6,25.7-22.4C210,7.6,203.6,2,201.4,1.9L201.4,1.9z"/>
	<path class="st7" d="M200,29.1c1.4-1.8,4.4-6.1,5-8.8c1.3-6,0.1-10.6-0.2-11.5c-0.9-2.7-4-5.9-3.1-6.9c-0.1,0-0.2,0-0.3-0.1
		c-3,0.1-6.9,2.3-11,4.7c0.1,0.2,0.3,0.7,0.2,0.9c3.9-1.8,8.1-1.2,9.6,0c7.1,7.4-0.8,20.6-6.4,25c-3.5,2.8-7.5,5.1-11.8,6
		c-4.3,0.9-9.5,0.2-13.4-1.8c-4-2.1-7-4.9-9.8-8.4c-2.7-3.5-4.5-8.1-4.4-12.7c-0.2,0-0.4,0-0.5,0.1c-0.4,15.1,14.7,27.7,28.3,25.5
		C193.8,37.6,199.4,29.9,200,29.1L200,29.1z"/>
	<path class="st8" d="M169.6,39c1.8,0.5,3.7,0.5,5.5,0.2c0.5-0.1,1.1-0.2,1.6-0.3c-2.9-0.2-5.7-0.9-8.1-2.2c-4-2.1-7-4.9-9.8-8.4
		c-2.7-3.5-4.5-8.1-4.4-12.7c-0.2,0-0.4,0-0.5,0.1c-0.3,9.6,5.7,18.1,13.5,22.5C168.1,38.5,168.9,38.8,169.6,39L169.6,39z"/>
	<path class="st8" d="M196.9,5.2c-0.2-0.6-0.6-1.2-0.9-1.7c-1.8,0.8-3.6,1.9-5.6,3.1c0.1,0.2,0.3,0.7,0.2,0.9c2.2-1,4.6-1.3,6.4-1.1
		C197.1,6,197,5.6,196.9,5.2L196.9,5.2z"/>
</g>
<g>
	<path class="st0" d="M175.2,15.1c2.6,0.9,10.1,2,12.5,2.2c0.9,0.1,1.6-0.1,2.6,0c1.3,0.1,1.4,1.8,3,2.3c1.6,0.5,1.5,0,3.1,0.5
		s1.1,1.6,1.7,1.9c0.9,0.5,1.7,0,2.4,0c0.8,0.1,0.8,0.4,1.9,0.2c0.8-0.1,1.1-0.5,2.1-0.5c1,0,1.3,0.5,2.4,0.2c1.2-0.3,1.6-1,2.6-1.3
		s2,0.3,4.9,0.2s8.2-0.1,9.9-0.1c1.9,1,4.2,8.4-2.1,17.8c-5.6,8.3-15,13.5-30.9,10.3C177.9,46.4,168.9,28.9,175.2,15.1L175.2,15.1z"
		/>
	<path class="st1" d="M224.3,20.9c-1.7,0-7,0-9.9,0.1c-2.9,0.1-2.8,0.1-3.8,0.4c4,6.9-4.7,12.2-5.9,12.8c-2.6,1.3-5.5,1.8-8.3,1.7
		c-2.7-0.1-5.5-0.6-7.9-2c-1.5-0.8-2.8-2-3.9-3.4c-1.3-1.6-2.4-3.5-3.1-5.4c-0.6-1.7-0.9-3.5-0.7-5.3c0.2-1.2,0.6-2.5,1.7-3.2
		c-2.8-0.5-6-1-7.4-1.5c-6.3,13.7,2.7,31.3,16.2,34c15.8,3.2,25.3-2,30.9-10.3C228.5,29.3,226.3,21.9,224.3,20.9L224.3,20.9z"/>
	<path class="st2" d="M224.3,20.9c-1.7,0-7,0-9.9,0.1c-2.9,0.1-3.9-0.5-4.9-0.2c8.9,2.8,5.7,11.4,4.6,13.3c-1.1,1.9-3.7,4.2-5.6,5.3
		c-2.1,1.2-4.9,1.7-7.3,2.2c-2.5,0.5-5,0.6-7.5,0.4c-1.2-0.1-2.3-0.3-3.4-0.6c-1.3-0.4-2.6-0.9-3.8-1.6c-3.4-1.9-6.1-4.9-7.8-8.4
		c-0.4-0.9-0.8-1.8-1.1-2.7c-0.3-0.9-0.6-1.8-0.8-2.7c-0.2-1.2-0.4-2.5-0.4-3.7c-0.1-1.5,0-3,0.2-4.5c0.1-0.7,0.3-1.4,0.7-2.1
		c-0.9-0.2-1.6-0.4-2.1-0.6c-6.3,13.7,2.7,31.3,16.2,34c15.8,3.2,25.3-2,30.9-10.3C228.5,29.3,226.3,21.9,224.3,20.9L224.3,20.9z"/>
	<path class="st3" d="M188.6,18.1c0.4,1-0.3,2.7,0.1,3.2s1.3,0.2,1.6,0.7c0.4,0.5-0.2,1.4,0.2,1.7c0.3,0.2,2.1-0.7,2.6,0.4
		c0.2,0.5,0.9,2.5,1.2,2.7c1.4,0.7,2.1-0.4,3.1-0.1c0.5,0.2,1.2,1,2.3,1.1c1,0.1,1.9-0.8,2.3-0.9c0.4-0.1,1.3,0.3,2.1,0.1
		c0.9-0.2,1.2-1.1,1.6-1.2c0.5-0.1,0.9-0.1,1.4-0.2c0.4-0.1,0.9-0.1,1.3-0.4c0.3-0.2,0.6-0.6,0.8-0.9c0.1-0.2,0.2-0.5,0.3-0.8
		c0.2-0.7,0.9-1.1,1.5-1.3c0.6-0.2,1.1-0.4,1.7-0.6c0.2,0,0.3-0.1,0.5-0.1c0.1,0-0.1-0.3-0.1-0.3c0-0.1,0-0.1,0-0.2
		c-1.9-0.1-2.8-0.5-3.6-0.2c-1,0.3-1.5,1-2.6,1.3c-1.2,0.3-1.5-0.3-2.4-0.2c-1,0-1.3,0.4-2.1,0.5c-1.1,0.2-1.1-0.1-1.9-0.2
		c-0.7,0-1.5,0.4-2.4,0c-0.6-0.3-0.1-1.4-1.7-1.9c-1.6-0.5-1.5,0-3.1-0.5s-1.7-2.2-3-2.3c-0.8-0.1-1.4,0-2.1,0
		C188.4,17.6,188.5,17.8,188.6,18.1L188.6,18.1z"/>
	<path class="st4" d="M212.3,21c-0.6,0.2-1.1,0.4-1.7,0.6c-0.4,0.2-0.9,0.5-1.2,0.8c-0.3,0.3-0.5,0.7-0.7,1c-0.3,0.3-0.6,0.5-1,0.6
		c-0.5,0.1-1,0.1-1.4,0.2c-0.3,0-0.5,0.1-0.7,0.3c-0.2,0.1-0.4,0.3-0.7,0.5c-0.4,0.3-0.8,0.5-1.3,0.5c-0.4,0.1-0.8,0-1.2,0.1
		c-0.3,0-0.6,0-0.8,0.1c-0.2,0-0.4,0.1-0.6,0.1c-0.3,0-0.5,0-0.7-0.2c-0.4-0.4-0.5-1-1.1-1.2c-0.7-0.1-1.4,0.2-2,0.5
		c-0.5,0.2-1.1,0.5-1.7,0.4c-0.7-0.2-0.9-1-1-1.7c-0.1-0.5-0.5-0.9-1.1-0.9c-0.4,0-0.8,0.1-1.2,0c-0.4-0.1-0.6-0.4-0.7-0.8
		c-0.1-0.3-0.1-0.6-0.4-0.8c-0.2-0.1-0.4-0.2-0.5-0.3c-0.3-0.1-0.6-0.2-0.8-0.5c-0.2-0.3-0.3-0.8-0.4-1.2c-0.1-0.4-0.1-0.8-0.3-1.1
		c-0.2-0.3-0.4-0.5-0.7-0.7c0,0-0.1,0-0.1,0c0.2,0.2,0.4,0.5,0.5,0.8c0.4,1-0.3,2.7,0.1,3.2s1.3,0.2,1.6,0.7
		c0.4,0.5-0.2,1.4,0.2,1.7c0.3,0.2,2.1-0.7,2.6,0.4c0.2,0.5,0.9,2.5,1.2,2.7c1.4,0.7,2.1-0.4,3.1-0.1c0.5,0.2,1.2,1,2.3,1.1
		c1,0.1,1.9-0.8,2.3-0.9c0.4-0.1,1.3,0.3,2.1,0.1c0.9-0.2,1.2-1.1,1.6-1.2c0.5-0.1,0.9-0.1,1.4-0.2c0.4-0.1,0.9-0.1,1.3-0.4
		c0.3-0.2,0.6-0.6,0.8-0.9c0.1-0.2,0.2-0.5,0.3-0.8c0.2-0.7,0.9-1.1,1.5-1.3c0.6-0.2,1.1-0.4,1.7-0.6c0.2,0,0.3-0.1,0.5-0.1
		c0.1,0-0.1-0.3-0.1-0.3c0-0.1,0-0.1,0-0.2C212.8,21,212.6,21,212.3,21L212.3,21z"/>
	<path class="st5" d="M188.8,17.4c0.4,0,0.7,0.1,1,0.2c0.8,0.2,1.3,0.9,1.7,1.5c0.2,0.4,0.5,0.8,0.9,1c0.4,0.1,0.7,0.1,1.1,0.1
		c0.7-0.1,1.5-0.1,2.1,0.3c0.3,0.2,0.4,0.5,0.6,0.7c0.2,0.4,0.4,0.8,0.7,1.1c0.6,0.6,1.5,0.5,2.3,0.4c0.4-0.1,0.8-0.1,1.2-0.1
		c0.4,0,0.8,0.1,1.1,0.2c0.4,0.1,0.8,0.2,1.2,0.1c0.5-0.1,0.9-0.4,1.3-0.5c0.4-0.1,0.8,0,1.2,0.1c0.5,0.1,1,0.3,1.5,0.2
		c0.6-0.1,1.1-0.4,1.6-0.7c0.4-0.3,0.8-0.7,1.2-0.9c0.4-0.2,0.8-0.3,1.3-0.3c-0.6-0.1-1-0.1-1.4,0c-1,0.3-1.5,1-2.6,1.3
		c-1.2,0.3-1.5-0.3-2.4-0.2c-1,0-1.3,0.4-2.1,0.5c-1.1,0.2-1.1-0.1-1.9-0.2c-0.7,0-1.5,0.4-2.4,0c-0.6-0.3-0.1-1.4-1.7-1.9
		c-1.6-0.5-1.5,0-3.1-0.5s-1.7-2.2-3-2.3c-0.6-0.1-1.1,0-1.6,0L188.8,17.4L188.8,17.4z"/>
	<path class="st6" d="M224.3,20.9c-2.8-1.1-7.3-0.5-12,0c0,0.2,0,0.7-0.1,0.9c4.3-0.1,8,2,8.8,3.8c3.6,9.6-8.8,18.7-15.6,20.6
		c-4.3,1.2-8.9,1.8-13.2,0.9c-4.3-0.8-8.8-3.5-11.6-6.9c-2.8-3.5-4.6-7.2-5.7-11.5c-1.2-4.3-1-9.3,0.9-13.4
		c-0.2-0.1-0.3-0.1-0.5-0.1c-6.3,13.7,2.7,31.2,16.1,34.5c13.8,3.3,26.8-2.3,32.4-10.6C230,29.6,226.3,21.9,224.3,20.9L224.3,20.9z"
		/>
	<path class="st7" d="M212.4,45.5c2-1.1,6.4-4,8-6.2c3.6-5,4.2-9.7,4.3-10.6c0.3-2.9-1.4-6.9-0.2-7.5c-0.1-0.1-0.2-0.1-0.3-0.2
		c-2.8-1.1-7.3-0.5-12,0c0,0.2,0,0.7-0.1,0.9c4.3-0.1,8,2,8.8,3.8c3.6,9.6-8.8,18.7-15.6,20.6c-4.3,1.2-8.9,1.8-13.2,0.9
		c-4.3-0.8-8.8-3.5-11.6-6.9c-2.8-3.5-4.6-7.2-5.7-11.5c-1.2-4.3-1-9.3,0.9-13.4c-0.2-0.1-0.3-0.1-0.5-0.1
		c-6.3,13.7,2.7,31.2,16.1,34.5C203.4,50.9,211.5,46,212.4,45.5L212.4,45.5z"/>
	<path class="st8" d="M180.6,42.7c1.5,1.1,3.2,1.9,5,2.3c0.5,0.1,1.1,0.2,1.6,0.3c-2.6-1.3-4.9-3.1-6.6-5.2
		c-2.8-3.5-4.6-7.2-5.7-11.5c-1.2-4.3-1-9.3,0.9-13.4c-0.2-0.1-0.3-0.1-0.5-0.1c-4,8.7-1.8,18.9,3.7,26
		C179.4,41.7,180,42.2,180.6,42.7L180.6,42.7z"/>
	<path class="st8" d="M218.9,22.2c0-0.6-0.1-1.3-0.2-1.9c-2,0.1-4.1,0.4-6.3,0.6c0,0.2,0,0.7-0.1,0.9c2.5-0.1,4.7,0.6,6.4,1.5
		C218.8,23,218.9,22.6,218.9,22.2L218.9,22.2z"/>
</g>
<g>
	<path class="st0" d="M189.2,47.7c2.4-1.3,8.3-6.1,10.1-7.7c0.6-0.6,1-1.2,1.7-1.9c1-0.9,2.3,0.2,3.8-0.7s1-1.1,2.5-1.9
		c1.5-0.8,1.9,0.3,2.6,0.1c0.9-0.3,1.1-1.3,1.6-1.8c0.6-0.6,0.8-0.3,1.4-1.3c0.4-0.7,0.4-1.2,1-1.9c0.6-0.7,1.3-0.6,1.8-1.6
		c0.6-1,0.4-1.9,0.9-2.8s1.6-1.3,3.5-3.5s5.5-6.2,6.6-7.4c2.1-0.8,9.1,2.6,11.7,13.6c2.4,9.7-0.2,20.2-13.2,29.7
		C214.1,66.8,195.1,61.6,189.2,47.7L189.2,47.7z"/>
	<path class="st1" d="M226.7,15.4c-1.1,1.2-4.7,5.2-6.6,7.4s-1.7,2.1-2.2,3.1c7.8,1.7,5.8,11.7,5.5,12.9c-0.8,2.8-2.4,5.2-4.4,7.3
		c-1.9,1.9-4.2,3.6-6.8,4.5c-1.6,0.5-3.4,0.7-5.1,0.6c-2.1-0.1-4.2-0.6-6.1-1.4c-1.7-0.7-3.2-1.7-4.4-3.1c-0.8-1-1.4-2.2-1.2-3.4
		c-2.3,1.8-4.8,3.7-6.1,4.4c5.9,13.9,24.9,19.2,36,11c13.1-9.5,15.6-20,13.2-29.7C235.7,18,228.7,14.6,226.7,15.4L226.7,15.4z"/>
	<path class="st2" d="M226.7,15.4c-1.1,1.2-4.7,5.2-6.6,7.4s-3,2.5-3.5,3.5c8-4.7,12.2,3.5,12.9,5.6c0.7,2.1,0.6,5.6,0.1,7.7
		c-0.5,2.4-2.1,4.8-3.3,6.9c-1.3,2.1-2.9,4.1-4.8,5.8c-0.9,0.8-1.8,1.5-2.8,2.1c-1.2,0.7-2.4,1.3-3.8,1.7c-3.7,1.2-7.7,1.2-11.5,0.1
		c-0.9-0.3-1.9-0.6-2.8-1c-0.9-0.4-1.7-0.8-2.5-1.2c-1.1-0.6-2-1.4-3-2.2c-1.1-1-2.2-2-3.1-3.2c-0.4-0.5-0.9-1.2-1-1.9
		c-0.7,0.5-1.4,0.9-1.9,1.2c5.9,13.9,24.9,19.1,36,11c13.1-9.5,15.6-20,13.2-29.7C235.7,18,228.7,14.6,226.7,15.4L226.7,15.4z"/>
	<path class="st3" d="M200.5,39.8c1,0.4,1.8,2,2.4,2.1s1-0.8,1.6-0.7c0.6,0.1,0.9,1.1,1.4,1c0.4-0.1,0.9-2,2-1.6
		c0.5,0.2,2.5,1,2.8,0.9c1.5-0.6,1.1-1.9,2-2.3c0.4-0.2,1.6-0.2,2.4-0.9c0.8-0.7,0.7-1.9,0.9-2.3c0.2-0.4,1.1-0.8,1.5-1.5
		c0.4-0.8,0-1.7,0.2-2c0.3-0.4,0.6-0.7,0.8-1.1c0.2-0.4,0.5-0.8,0.6-1.2c0.1-0.4,0-0.9-0.1-1.2c-0.1-0.3-0.3-0.5-0.4-0.7
		c-0.4-0.6-0.2-1.4,0.1-2c0.2-0.6,0.5-1.1,0.8-1.6c0.1-0.2,0.2-0.3,0.2-0.5c0,0-0.3-0.2-0.3-0.2c-0.1,0-0.1-0.1-0.2-0.1
		c-1.4,1.4-2.2,1.8-2.6,2.5c-0.5,0.9-0.3,1.8-0.9,2.8c-0.6,1.1-1.2,0.9-1.8,1.6c-0.6,0.7-0.6,1.2-1,1.9c-0.6,1-0.8,0.7-1.4,1.3
		c-0.5,0.5-0.7,1.4-1.6,1.8c-0.6,0.2-1.1-0.9-2.6-0.1s-1,1.1-2.5,1.9c-1.5,0.8-2.8-0.2-3.8,0.7c-0.6,0.5-0.9,1.1-1.4,1.6
		C199.9,39.7,200.2,39.7,200.5,39.8L200.5,39.8z"/>
	<path class="st4" d="M218.6,24.3c-0.3,0.5-0.5,1.1-0.6,1.6c-0.1,0.5-0.3,1-0.2,1.4c0,0.4,0.2,0.8,0.2,1.2c0.1,0.4,0,0.8-0.2,1.2
		c-0.2,0.4-0.6,0.8-0.8,1.2c-0.1,0.2-0.2,0.5-0.3,0.7c-0.1,0.3-0.1,0.5-0.1,0.8c-0.1,0.5-0.2,0.9-0.4,1.3c-0.2,0.3-0.5,0.6-0.8,1
		c-0.2,0.2-0.3,0.4-0.5,0.7c-0.1,0.2-0.2,0.4-0.3,0.5c-0.2,0.2-0.4,0.3-0.6,0.4c-0.6,0-1.1-0.3-1.6,0c-0.6,0.4-0.8,1.2-1,1.8
		c-0.2,0.5-0.4,1.2-0.9,1.5c-0.6,0.4-1.3-0.1-1.9-0.3c-0.5-0.2-1-0.2-1.4,0.2c-0.3,0.3-0.5,0.6-0.8,0.9c-0.4,0.2-0.7,0.2-1.1,0
		c-0.2-0.1-0.5-0.3-0.8-0.2c-0.2,0-0.4,0.1-0.6,0.2c-0.3,0.1-0.6,0.3-0.9,0.3c-0.4,0-0.8-0.3-1.1-0.5c-0.3-0.2-0.6-0.4-1-0.5
		c-0.3-0.1-0.7-0.1-1,0c0,0-0.1,0.1-0.1,0.1c0.3,0,0.6,0,0.9,0.2c1,0.4,1.8,2,2.4,2.1s1-0.8,1.6-0.7c0.6,0.1,0.9,1.1,1.4,1
		c0.4-0.1,0.9-2,2-1.6c0.5,0.2,2.5,1,2.8,0.9c1.5-0.6,1.1-1.9,2-2.3c0.4-0.2,1.6-0.2,2.4-0.9c0.8-0.7,0.7-1.9,0.9-2.3
		c0.2-0.4,1.1-0.8,1.5-1.5c0.4-0.8,0-1.7,0.2-2c0.3-0.4,0.6-0.7,0.8-1.1c0.2-0.4,0.5-0.8,0.6-1.2c0.1-0.4,0-0.9-0.1-1.2
		c-0.1-0.3-0.3-0.5-0.4-0.7c-0.4-0.6-0.2-1.4,0.1-2c0.2-0.6,0.5-1.1,0.8-1.6c0.1-0.2,0.2-0.3,0.2-0.5c0,0-0.3-0.2-0.3-0.2
		c-0.1,0-0.1-0.1-0.2-0.1C219,23.9,218.8,24.1,218.6,24.3L218.6,24.3z"/>
	<path class="st5" d="M200,39.2c0.3-0.2,0.6-0.4,0.9-0.6c0.7-0.5,1.5-0.3,2.3-0.2c0.4,0.1,0.9,0.2,1.4,0c0.3-0.2,0.6-0.5,0.8-0.8
		c0.4-0.5,0.9-1.2,1.7-1.4c0.3-0.1,0.6,0,1,0c0.4,0.1,0.8,0.2,1.3,0.2c0.9-0.1,1.4-0.8,1.8-1.5c0.2-0.3,0.4-0.7,0.7-1
		c0.3-0.3,0.6-0.5,0.9-0.7c0.3-0.2,0.7-0.5,0.9-0.8c0.3-0.4,0.3-0.9,0.5-1.3c0.2-0.4,0.5-0.6,0.9-0.9c0.4-0.3,0.9-0.5,1.2-1
		c0.4-0.5,0.5-1,0.5-1.6c0-0.5,0-1.1,0.1-1.5c0.1-0.4,0.4-0.8,0.6-1.1c-0.4,0.4-0.8,0.7-1,1.1c-0.5,0.9-0.3,1.8-0.9,2.8
		c-0.6,1.1-1.2,0.9-1.8,1.6c-0.6,0.7-0.6,1.2-1,1.9c-0.6,1-0.8,0.7-1.4,1.3c-0.5,0.5-0.7,1.4-1.6,1.8c-0.6,0.2-1.1-0.9-2.6-0.1
		s-1,1.1-2.5,1.9c-1.5,0.8-2.8-0.2-3.8,0.7C200.6,38.5,200.3,38.9,200,39.2L200,39.2L200,39.2z"/>
	<path class="st6" d="M226.7,15.4c-2.7,1.3-5.3,5-8.1,8.9c0.2,0.2,0.5,0.5,0.6,0.7c2.8-3.3,6.9-4.5,8.7-4c9.5,3.8,7.8,19.1,4.6,25.4
		c-2,4-4.7,7.7-8.3,10.4c-3.5,2.6-8.6,4.1-12.9,3.9c-4.5-0.3-8.4-1.5-12.4-3.6c-3.9-2-7.5-5.5-9.3-9.7c-0.2,0.1-0.3,0.2-0.4,0.2
		c5.9,13.9,24.9,19.1,36.3,11.5c11.8-7.9,16.4-21.3,14.1-31C236.9,17.1,228.7,14.6,226.7,15.4L226.7,15.4z"/>
	<path class="st7" d="M236.7,40.7c0.5-2.2,1.4-7.4,0.9-10.1c-1.3-6-4.3-9.6-4.9-10.4c-1.9-2.1-6-3.7-5.7-5c-0.1,0-0.2,0.1-0.3,0.1
		c-2.7,1.3-5.3,5-8.1,8.9c0.2,0.2,0.5,0.5,0.6,0.7c2.8-3.3,6.9-4.5,8.7-4c9.5,3.8,7.8,19.1,4.6,25.4c-2,4-4.7,7.7-8.3,10.4
		c-3.5,2.6-8.6,4.1-12.9,3.9c-4.5-0.3-8.4-1.5-12.4-3.6c-3.9-2-7.5-5.5-9.3-9.7c-0.2,0.1-0.3,0.2-0.4,0.2
		c5.9,13.9,24.9,19.1,36.3,11.5C234.6,51.1,236.5,41.8,236.7,40.7L236.7,40.7z"/>
	<path class="st8" d="M213.2,62.4c1.8-0.3,3.6-1,5.1-2.1c0.4-0.3,0.9-0.6,1.3-1c-2.7,1-5.6,1.5-8.3,1.4c-4.5-0.3-8.4-1.5-12.4-3.6
		c-3.9-2-7.5-5.5-9.3-9.7c-0.2,0.1-0.3,0.2-0.4,0.2c3.7,8.8,12.7,14.1,21.7,14.9C211.6,62.6,212.4,62.5,213.2,62.4L213.2,62.4z"/>
	<path class="st8" d="M223.9,20.3c-0.4-0.5-1-0.8-1.5-1.1c-1.2,1.5-2.5,3.3-3.8,5.1c0.2,0.2,0.5,0.5,0.6,0.7
		c1.6-1.9,3.6-3.1,5.4-3.7C224.5,20.9,224.2,20.6,223.9,20.3L223.9,20.3z"/>
</g>
<g>
	<path class="st23" d="M194,66.4c2.4-1.3,8.4-6,10.2-7.6c0.6-0.6,1-1.2,1.7-1.9c1-0.9,2.3,0.2,3.8-0.6c1.5-0.8,1-1.1,2.5-1.9
		c1.5-0.8,1.9,0.3,2.6,0.1c0.9-0.3,1.2-1.3,1.7-1.7c0.6-0.6,0.8-0.3,1.4-1.3c0.4-0.7,0.4-1.2,1-1.9s1.3-0.6,1.9-1.6
		c0.6-1,0.4-1.9,0.9-2.8s1.6-1.3,3.5-3.4c1.9-2.2,5.5-6.1,6.7-7.3c2.1-0.7,9,2.7,11.6,13.7c2.3,9.7-0.4,20.2-13.6,29.6
		C218.6,85.8,199.7,80.3,194,66.4L194,66.4z"/>
	<path class="st13" d="M231.8,34.5c-1.2,1.2-4.8,5.1-6.7,7.3c-1.9,2.2-1.8,2.1-2.3,3c7.8,1.8,5.7,11.7,5.3,13
		c-0.8,2.8-2.5,5.2-4.5,7.2c-1.9,1.9-4.2,3.6-6.8,4.4c-1.6,0.5-3.4,0.7-5.1,0.6c-2.1-0.1-4.1-0.6-6.1-1.5c-1.6-0.7-3.2-1.7-4.3-3.1
		c-0.8-1-1.4-2.2-1.2-3.4c-2.3,1.8-4.8,3.6-6.2,4.4c5.7,14,24.6,19.4,35.8,11.4c13.2-9.4,15.8-19.8,13.6-29.6
		C240.8,37.2,233.9,33.8,231.8,34.5L231.8,34.5z"/>
	<path class="st24" d="M231.8,34.5c-1.2,1.2-4.8,5.1-6.7,7.3c-1.9,2.2-3,2.5-3.5,3.4c8.1-4.6,12.2,3.6,12.8,5.7
		c0.7,2.1,0.6,5.6,0.1,7.7c-0.6,2.4-2.1,4.8-3.4,6.8c-1.3,2.1-3,4.1-4.8,5.7c-0.9,0.8-1.8,1.5-2.8,2.1c-1.2,0.7-2.5,1.2-3.8,1.7
		c-3.7,1.2-7.8,1.1-11.5,0c-0.9-0.3-1.9-0.6-2.8-1c-0.8-0.4-1.7-0.8-2.5-1.3c-1.1-0.7-2-1.4-3-2.2c-1.1-1-2.2-2-3.1-3.2
		c-0.4-0.6-0.8-1.2-1-1.9c-0.7,0.5-1.4,0.9-1.9,1.2c5.7,14,24.6,19.4,35.8,11.4c13.2-9.4,15.8-19.8,13.6-29.6
		C240.8,37.2,233.9,33.8,231.8,34.5L231.8,34.5z"/>
	<path class="st3" d="M205.4,58.7c1,0.4,1.8,2,2.4,2.1c0.6,0,1-0.8,1.6-0.7c0.6,0.1,0.9,1.1,1.3,1s0.9-2,2-1.6
		c0.5,0.2,2.5,1,2.8,0.9c1.5-0.6,1.1-1.8,2-2.3c0.4-0.2,1.6-0.2,2.4-0.9c0.8-0.7,0.7-1.9,0.9-2.3c0.2-0.4,1.1-0.8,1.5-1.5
		c0.4-0.8,0-1.7,0.3-2c0.3-0.4,0.6-0.7,0.8-1.1c0.2-0.3,0.5-0.8,0.6-1.2c0.1-0.4,0-0.8-0.1-1.2c-0.1-0.3-0.3-0.5-0.4-0.7
		c-0.4-0.7-0.2-1.4,0.1-2c0.2-0.6,0.5-1.1,0.8-1.6c0.1-0.2,0.2-0.3,0.2-0.5c0,0-0.2-0.2-0.3-0.2c-0.1,0-0.1-0.1-0.2-0.1
		c-1.4,1.4-2.2,1.7-2.6,2.5c-0.5,0.9-0.3,1.8-0.9,2.8c-0.6,1-1.2,0.9-1.9,1.6c-0.6,0.7-0.6,1.2-1,1.9c-0.6,1-0.9,0.7-1.4,1.3
		c-0.5,0.5-0.7,1.4-1.7,1.7c-0.6,0.2-1.1-0.9-2.6-0.1c-1.5,0.8-1,1.1-2.5,1.9c-1.5,0.8-2.8-0.3-3.8,0.6c-0.6,0.5-0.9,1.1-1.4,1.6
		C204.8,58.5,205.1,58.5,205.4,58.7L205.4,58.7z"/>
	<path class="st4" d="M223.6,43.3c-0.3,0.5-0.5,1.1-0.7,1.7c-0.1,0.5-0.3,1-0.2,1.4c0,0.4,0.2,0.8,0.2,1.2c0.1,0.4,0,0.8-0.2,1.2
		c-0.2,0.4-0.6,0.8-0.8,1.2c-0.1,0.2-0.2,0.5-0.3,0.7c-0.1,0.3-0.1,0.5-0.1,0.8c-0.1,0.5-0.2,0.9-0.5,1.3c-0.2,0.3-0.5,0.6-0.8,1
		c-0.2,0.2-0.3,0.4-0.5,0.7c-0.1,0.2-0.2,0.4-0.3,0.5c-0.2,0.2-0.4,0.3-0.6,0.3c-0.6,0-1.1-0.3-1.6,0c-0.6,0.4-0.8,1.2-1,1.8
		c-0.2,0.5-0.4,1.2-0.9,1.5c-0.7,0.4-1.3-0.1-1.9-0.4c-0.5-0.2-1-0.2-1.4,0.2c-0.3,0.3-0.5,0.6-0.9,0.9c-0.4,0.2-0.7,0.2-1.1,0
		c-0.2-0.1-0.5-0.3-0.8-0.3c-0.2,0-0.4,0.1-0.6,0.2c-0.3,0.1-0.6,0.3-0.9,0.2c-0.4,0-0.8-0.3-1.1-0.5c-0.3-0.2-0.6-0.4-1-0.5
		c-0.3-0.1-0.7-0.1-1,0c0,0-0.1,0.1-0.1,0.1c0.3,0,0.6,0.1,0.9,0.2c1,0.4,1.8,2,2.4,2.1c0.6,0,1-0.8,1.6-0.7c0.6,0.1,0.9,1.1,1.3,1
		s0.9-2,2-1.6c0.5,0.2,2.5,1,2.8,0.9c1.5-0.6,1.1-1.8,2-2.3c0.4-0.2,1.6-0.2,2.4-0.9c0.8-0.7,0.7-1.9,0.9-2.3
		c0.2-0.4,1.1-0.8,1.5-1.5c0.4-0.8,0-1.7,0.3-2c0.3-0.4,0.6-0.7,0.8-1.1c0.2-0.3,0.5-0.8,0.6-1.2c0.1-0.4,0-0.8-0.1-1.2
		c-0.1-0.3-0.3-0.5-0.4-0.7c-0.4-0.7-0.2-1.4,0.1-2c0.2-0.6,0.5-1.1,0.8-1.6c0.1-0.2,0.2-0.3,0.2-0.5c0,0-0.2-0.2-0.3-0.2
		c-0.1,0-0.1-0.1-0.2-0.1C224,42.9,223.8,43.1,223.6,43.3L223.6,43.3z"/>
	<path class="st5" d="M204.9,58c0.3-0.2,0.6-0.4,0.9-0.6c0.7-0.5,1.5-0.3,2.3-0.2c0.4,0.1,0.9,0.2,1.4,0c0.4-0.2,0.6-0.5,0.8-0.7
		c0.4-0.5,0.9-1.2,1.7-1.3c0.3-0.1,0.6,0,1,0c0.4,0.1,0.8,0.2,1.3,0.2c0.9-0.1,1.4-0.8,1.8-1.4c0.2-0.3,0.4-0.7,0.7-0.9
		c0.3-0.3,0.6-0.5,0.9-0.7c0.4-0.2,0.7-0.5,0.9-0.8c0.3-0.4,0.3-0.9,0.6-1.3s0.5-0.6,0.9-0.8c0.4-0.2,0.9-0.5,1.2-1
		c0.4-0.5,0.5-1,0.5-1.6c0-0.5,0-1.1,0.2-1.5c0.1-0.4,0.4-0.8,0.6-1.1c-0.4,0.4-0.8,0.7-1,1c-0.5,0.9-0.3,1.8-0.9,2.8
		c-0.6,1-1.2,0.9-1.9,1.6c-0.6,0.7-0.6,1.2-1,1.9c-0.6,1-0.9,0.7-1.4,1.3c-0.5,0.5-0.7,1.4-1.7,1.7c-0.6,0.2-1.1-0.9-2.6-0.1
		c-1.5,0.8-1,1.1-2.5,1.9c-1.5,0.8-2.8-0.3-3.8,0.6C205.4,57.3,205.1,57.8,204.9,58L204.9,58L204.9,58z"/>
	<path class="st20" d="M231.8,34.5c-2.8,1.3-5.4,5-8.2,8.8c0.2,0.2,0.5,0.5,0.6,0.7c2.9-3.2,6.9-4.4,8.8-3.9
		c9.4,3.9,7.6,19.2,4.3,25.5c-2.1,3.9-4.8,7.7-8.4,10.3c-3.6,2.6-8.6,4-13,3.7c-4.5-0.3-8.4-1.6-12.3-3.7c-3.9-2.1-7.4-5.6-9.2-9.8
		c-0.2,0.1-0.3,0.2-0.4,0.2c5.7,14,24.6,19.4,36.2,11.9c11.9-7.8,16.7-21.1,14.4-30.9C242,36.4,233.9,33.8,231.8,34.5L231.8,34.5z"
		/>
	<path class="st25" d="M241.6,60c0.5-2.2,1.5-7.4,1-10.1c-1.2-6-4.2-9.7-4.8-10.4c-1.9-2.1-6-3.8-5.6-5c-0.1,0-0.2,0-0.3,0.1
		c-2.8,1.3-5.4,5-8.2,8.8c0.2,0.2,0.5,0.5,0.6,0.7c2.9-3.2,6.9-4.4,8.8-3.9c9.4,3.9,7.6,19.2,4.3,25.5c-2.1,3.9-4.8,7.7-8.4,10.3
		c-3.6,2.6-8.6,4-13,3.7c-4.5-0.3-8.4-1.6-12.3-3.7c-3.9-2.1-7.4-5.6-9.2-9.8c-0.2,0.1-0.3,0.2-0.4,0.2c5.7,14,24.6,19.4,36.2,11.9
		C239.4,70.3,241.3,61,241.6,60L241.6,60z"/>
	<path class="st8" d="M217.8,81.3c1.8-0.3,3.6-1,5.1-2c0.4-0.3,0.9-0.6,1.3-1c-2.7,1-5.6,1.5-8.3,1.3c-4.5-0.3-8.4-1.6-12.3-3.7
		c-3.9-2.1-7.4-5.6-9.2-9.8c-0.2,0.1-0.3,0.2-0.4,0.2c3.6,8.8,12.5,14.3,21.5,15.1C216.3,81.5,217.1,81.5,217.8,81.3L217.8,81.3z"/>
	<path class="st8" d="M229,39.4c-0.4-0.5-1-0.8-1.5-1.2c-1.3,1.5-2.6,3.3-3.9,5c0.2,0.2,0.5,0.5,0.6,0.7c1.6-1.8,3.7-3,5.4-3.6
		C229.5,40,229.3,39.7,229,39.4L229,39.4z"/>
</g>
<g>
	<path class="st26" d="M170.4,69.2c2.7-0.2,10.1-2.1,12.4-2.8c0.8-0.2,1.4-0.7,2.4-1c1.3-0.4,2,1.1,3.7,0.9c1.7-0.1,1.4-0.6,3-0.7
		s1.6,1.1,2.3,1.1c1,0.1,1.6-0.7,2.2-0.9c0.8-0.3,0.9,0.1,1.8-0.6c0.7-0.4,0.8-0.9,1.7-1.3c0.9-0.4,1.4,0,2.4-0.7
		c1-0.7,1.1-1.5,1.9-2.2s2-0.5,4.6-1.7c2.6-1.2,7.5-3.3,9.1-4c2.2,0.2,7.2,6.1,5,17.2c-1.9,9.8-8.6,18.3-24.4,21.6
		C185.1,96.9,170,84.3,170.4,69.2L170.4,69.2z"/>
	<path class="st27" d="M217.9,55.4c-1.5,0.6-6.4,2.8-9.1,4c-2.6,1.2-2.5,1.2-3.3,1.9c6.4,4.8,0.5,13-0.4,14c-1.9,2.2-4.4,3.8-7,4.8
		c-2.5,1-5.3,1.6-8,1.3c-1.7-0.2-3.4-0.8-4.9-1.6c-1.9-0.9-3.6-2.2-4.9-3.8c-1.2-1.3-2.2-2.9-2.7-4.6c-0.3-1.2-0.4-2.6,0.3-3.6
		c-2.8,0.7-5.9,1.4-7.4,1.5c-0.4,15.1,14.7,27.7,28.1,25c15.8-3.3,22.5-11.7,24.4-21.6C225.1,61.5,220.1,55.5,217.9,55.4L217.9,55.4
		z"/>
	<path class="st28" d="M217.9,55.4c-1.5,0.6-6.4,2.8-9.1,4c-2.6,1.2-3.8,1-4.6,1.7c9.2-0.9,9.7,8.3,9.4,10.4
		c-0.2,2.2-1.8,5.3-3.1,7.1c-1.5,2-3.9,3.5-5.9,4.9c-2.1,1.4-4.4,2.5-6.7,3.3c-1.1,0.3-2.2,0.6-3.4,0.8c-1.4,0.2-2.8,0.1-4.1,0
		c-3.9-0.4-7.5-2.1-10.5-4.7c-0.7-0.6-1.4-1.3-2.1-2c-0.6-0.7-1.2-1.4-1.8-2.2c-0.7-1-1.3-2.1-1.8-3.2c-0.6-1.3-1.2-2.8-1.5-4.2
		c-0.1-0.7-0.3-1.4-0.2-2.2c-0.9,0.2-1.6,0.3-2.2,0.3c-0.4,15.1,14.7,27.7,28.1,25c15.8-3.3,22.5-11.7,24.4-21.6
		C225.1,61.5,220.1,55.5,217.9,55.4L217.9,55.4z"/>
	<path class="st3" d="M184,66.7c0.8,0.8,0.8,2.6,1.3,2.9c0.6,0.3,1.2-0.3,1.8,0c0.5,0.3,0.4,1.4,0.8,1.5c0.4,0.1,1.6-1.5,2.5-0.6
		c0.4,0.4,1.8,1.9,2.2,2c1.6,0.1,1.8-1.2,2.8-1.3c0.5,0,1.5,0.5,2.6,0.2c1-0.3,1.4-1.4,1.8-1.7c0.4-0.3,1.3-0.2,2-0.8
		c0.7-0.6,0.7-1.5,1.1-1.7c0.4-0.2,0.8-0.4,1.2-0.7c0.4-0.2,0.8-0.5,1-0.8c0.2-0.3,0.4-0.8,0.4-1.2c0-0.3-0.1-0.5-0.1-0.8
		c-0.1-0.7,0.4-1.3,0.9-1.8c0.4-0.4,0.9-0.8,1.4-1.2c0.1-0.1,0.3-0.2,0.4-0.3c0,0-0.2-0.2-0.2-0.3c0,0-0.1-0.1-0.1-0.2
		c-1.8,0.7-2.7,0.7-3.4,1.2c-0.8,0.7-1,1.5-1.9,2.2c-1,0.7-1.5,0.3-2.4,0.7c-0.9,0.4-1,0.8-1.7,1.3c-1,0.6-1.1,0.3-1.8,0.6
		c-0.6,0.2-1.2,1-2.2,0.9c-0.7-0.1-0.6-1.2-2.3-1.1c-1.7,0.1-1.4,0.6-3,0.7s-2.4-1.4-3.7-0.9c-0.8,0.2-1.3,0.6-1.9,0.9
		C183.5,66.4,183.8,66.5,184,66.7L184,66.7z"/>
	<path class="st4" d="M206.9,60.1c-0.4,0.4-0.9,0.8-1.3,1.2c-0.3,0.3-0.6,0.8-0.8,1.2c-0.1,0.4-0.2,0.8-0.3,1.2
		c-0.1,0.4-0.3,0.7-0.7,1c-0.4,0.3-0.8,0.5-1.2,0.8c-0.2,0.2-0.4,0.3-0.6,0.5c-0.2,0.2-0.3,0.5-0.4,0.7c-0.2,0.4-0.5,0.8-0.9,1
		c-0.4,0.2-0.8,0.4-1.1,0.6c-0.2,0.1-0.5,0.3-0.7,0.4c-0.2,0.1-0.3,0.3-0.5,0.3c-0.2,0.1-0.5,0.2-0.7,0.1c-0.5-0.2-0.9-0.8-1.5-0.6
		c-0.7,0.1-1.2,0.7-1.6,1.2c-0.4,0.4-0.8,0.9-1.4,1c-0.8,0.1-1.2-0.6-1.6-1.1c-0.3-0.4-0.8-0.6-1.4-0.4c-0.4,0.1-0.7,0.4-1.1,0.4
		c-0.4,0.1-0.7-0.1-0.9-0.4c-0.2-0.2-0.4-0.5-0.6-0.6c-0.2-0.1-0.4-0.1-0.6-0.1c-0.3,0-0.6,0-0.9-0.1c-0.4-0.2-0.6-0.6-0.8-0.9
		c-0.2-0.3-0.4-0.7-0.7-0.9c-0.3-0.2-0.6-0.3-0.9-0.4c0,0-0.1,0-0.1,0.1c0.3,0.1,0.5,0.3,0.7,0.5c0.8,0.8,0.8,2.6,1.3,2.9
		c0.6,0.3,1.2-0.3,1.8,0c0.5,0.3,0.4,1.4,0.8,1.5c0.4,0.1,1.6-1.5,2.5-0.6c0.4,0.4,1.8,1.9,2.2,2c1.6,0.1,1.8-1.2,2.8-1.3
		c0.5,0,1.5,0.5,2.6,0.2c1-0.3,1.4-1.4,1.8-1.7c0.4-0.3,1.3-0.2,2-0.8c0.7-0.6,0.7-1.5,1.1-1.7c0.4-0.2,0.8-0.4,1.2-0.7
		c0.4-0.2,0.8-0.5,1-0.8c0.2-0.3,0.4-0.8,0.4-1.2c0-0.3-0.1-0.5-0.1-0.8c-0.1-0.7,0.4-1.3,0.9-1.8c0.4-0.4,0.9-0.8,1.4-1.2
		c0.1-0.1,0.3-0.2,0.4-0.3c0,0-0.2-0.2-0.2-0.3c0,0-0.1-0.1-0.1-0.2C207.4,59.9,207.1,60,206.9,60.1L206.9,60.1z"/>
	<path class="st5" d="M183.8,66c0.3-0.1,0.7-0.2,1-0.2c0.9-0.1,1.5,0.3,2.2,0.8c0.4,0.3,0.8,0.6,1.2,0.5c0.4,0,0.7-0.2,1.1-0.3
		c0.6-0.3,1.4-0.7,2.1-0.6c0.3,0.1,0.6,0.2,0.9,0.4c0.3,0.2,0.7,0.6,1.1,0.7c0.8,0.3,1.6-0.2,2.3-0.6c0.3-0.2,0.7-0.4,1.1-0.6
		c0.4-0.1,0.8-0.2,1.1-0.2c0.4-0.1,0.8-0.2,1.2-0.4c0.4-0.3,0.7-0.7,1-1c0.4-0.3,0.7-0.3,1.2-0.4c0.5-0.1,1-0.1,1.5-0.4
		c0.5-0.3,0.9-0.8,1.1-1.3c0.2-0.5,0.4-1,0.8-1.3c0.3-0.3,0.7-0.6,1.1-0.8c-0.6,0.2-1,0.3-1.3,0.6c-0.8,0.7-1,1.5-1.9,2.2
		c-1,0.7-1.5,0.3-2.4,0.7c-0.9,0.4-1,0.8-1.7,1.3c-1,0.6-1.1,0.3-1.8,0.6c-0.6,0.2-1.2,1-2.2,0.9c-0.7-0.1-0.6-1.2-2.3-1.1
		c-1.7,0.1-1.4,0.6-3,0.7s-2.4-1.4-3.7-0.9C184.6,65.6,184.1,65.8,183.8,66L183.8,66L183.8,66z"/>
	<path class="st29" d="M217.9,55.4c-3,0.1-6.9,2.3-11,4.7c0.1,0.2,0.3,0.7,0.2,0.9c3.9-1.8,8.1-1.2,9.6,0c7.1,7.4-0.8,20.6-6.4,25
		c-3.5,2.8-7.5,5.1-11.8,6c-4.3,0.9-9.5,0.2-13.4-1.8c-4-2.1-7-4.9-9.8-8.4c-2.7-3.5-4.5-8.2-4.4-12.7c-0.2,0-0.4,0-0.5,0.1
		c-0.4,15.1,14.7,27.7,28.3,25.5c14-2.3,23.8-12.6,25.7-22.4C226.5,61.1,220.1,55.5,217.9,55.4L217.9,55.4z"/>
	<path class="st30" d="M216.6,82.6c1.4-1.8,4.4-6.2,5-8.8c1.3-6,0.1-10.6-0.2-11.5c-0.9-2.7-4-5.9-3.1-6.9c-0.1,0-0.2,0-0.3-0.1
		c-3,0.1-6.9,2.3-11,4.7c0.1,0.2,0.3,0.7,0.2,0.9c3.9-1.8,8.1-1.2,9.6,0c7.1,7.4-0.8,20.6-6.4,25c-3.5,2.8-7.5,5.1-11.8,6
		c-4.3,0.9-9.5,0.2-13.4-1.8c-4-2.1-7-4.9-9.8-8.4c-2.7-3.5-4.5-8.2-4.4-12.7c-0.2,0-0.4,0-0.5,0.1c-0.4,15.1,14.7,27.7,28.3,25.5
		C210.3,91.1,215.9,83.4,216.6,82.6L216.6,82.6z"/>
	<path class="st8" d="M186.2,92.5c1.8,0.5,3.7,0.5,5.5,0.2c0.5-0.1,1.1-0.2,1.6-0.3c-2.9-0.2-5.7-0.9-8.1-2.2c-4-2.1-7-4.9-9.8-8.4
		c-2.7-3.5-4.5-8.2-4.4-12.7c-0.2,0-0.4,0-0.5,0.1c-0.3,9.6,5.7,18.1,13.5,22.6C184.7,92.1,185.4,92.3,186.2,92.5L186.2,92.5z"/>
	<path class="st8" d="M213.4,58.7c-0.2-0.6-0.6-1.2-0.9-1.7c-1.8,0.8-3.6,2-5.6,3.1c0.1,0.2,0.3,0.7,0.2,0.9c2.2-1,4.6-1.3,6.4-1.1
		C213.6,59.5,213.6,59.1,213.4,58.7L213.4,58.7z"/>
</g>
<g>
	<path class="st31" d="M143.2,39.4c2.7-0.2,10.1-2.1,12.4-2.8c0.8-0.2,1.4-0.7,2.4-1c1.3-0.4,2,1.1,3.7,1c1.7-0.1,1.4-0.6,3-0.7
		s1.6,1.1,2.3,1.1c1,0.1,1.6-0.7,2.2-0.9c0.8-0.3,0.9,0.1,1.8-0.6c0.7-0.5,0.8-0.9,1.7-1.3c0.9-0.4,1.4,0,2.4-0.7
		c1-0.7,1.1-1.5,1.9-2.2s2-0.5,4.6-1.7c2.6-1.2,7.5-3.3,9.1-4c2.2,0.2,7.2,6.1,5,17.2c-1.9,9.8-8.6,18.3-24.4,21.6
		C157.9,67.1,142.8,54.5,143.2,39.4z"/>
	<path class="st32" d="M190.7,25.5c-1.5,0.6-6.4,2.8-9.1,4c-2.6,1.2-2.5,1.2-3.3,1.9c6.4,4.8,0.5,13-0.4,14c-1.9,2.2-4.4,3.8-7,4.8
		c-2.5,1-5.3,1.6-8,1.3c-1.7-0.2-3.4-0.8-4.9-1.6c-1.9-1-3.6-2.2-4.9-3.8c-1.2-1.3-2.2-2.9-2.7-4.6c-0.3-1.2-0.4-2.6,0.3-3.6
		c-2.8,0.7-5.9,1.4-7.4,1.5c-0.4,15.1,14.7,27.7,28.1,25c15.8-3.3,22.5-11.7,24.4-21.6C197.9,31.6,192.9,25.7,190.7,25.5L190.7,25.5
		z"/>
	<path class="st33" d="M190.7,25.5c-1.5,0.6-6.4,2.8-9.1,4c-2.6,1.2-3.8,1-4.6,1.7c9.2-0.9,9.7,8.2,9.4,10.4c-0.2,2.2-1.8,5.3-3.1,7
		c-1.5,2-3.9,3.5-5.9,4.9c-2.1,1.4-4.4,2.5-6.7,3.3c-1.1,0.3-2.2,0.6-3.4,0.8c-1.4,0.2-2.8,0.1-4.1,0c-3.9-0.5-7.5-2.1-10.5-4.7
		c-0.7-0.6-1.4-1.3-2.1-2c-0.6-0.7-1.2-1.4-1.8-2.2c-0.7-1-1.3-2.1-1.8-3.2c-0.6-1.3-1.2-2.8-1.5-4.2c-0.1-0.7-0.3-1.5-0.2-2.2
		c-0.9,0.2-1.6,0.3-2.2,0.3c-0.4,15.1,14.7,27.7,28.1,25c15.8-3.3,22.5-11.7,24.4-21.6C197.9,31.6,192.9,25.7,190.7,25.5L190.7,25.5
		z"/>
	<path class="st3" d="M156.8,36.9c0.8,0.8,0.8,2.6,1.3,2.9c0.6,0.3,1.2-0.3,1.8,0c0.5,0.3,0.4,1.4,0.8,1.5c0.4,0.1,1.6-1.5,2.5-0.6
		c0.4,0.4,1.8,2,2.2,2c1.6,0.1,1.8-1.2,2.8-1.3c0.5,0,1.5,0.5,2.6,0.2c1-0.3,1.4-1.4,1.8-1.7c0.4-0.3,1.3-0.2,2-0.8
		c0.7-0.5,0.7-1.5,1.1-1.7c0.4-0.2,0.8-0.4,1.2-0.7c0.4-0.2,0.8-0.5,1-0.8c0.2-0.3,0.4-0.8,0.4-1.2c0-0.3-0.1-0.5-0.1-0.8
		c-0.1-0.7,0.4-1.3,0.9-1.8c0.4-0.4,0.9-0.8,1.4-1.2c0.1-0.1,0.3-0.2,0.4-0.3c0,0-0.2-0.2-0.2-0.3c0,0-0.1-0.1-0.1-0.2
		c-1.8,0.7-2.7,0.7-3.4,1.2c-0.8,0.6-1,1.5-1.9,2.2c-1,0.7-1.5,0.3-2.4,0.7c-0.9,0.4-1,0.8-1.7,1.3c-1,0.6-1.1,0.3-1.8,0.6
		c-0.6,0.2-1.2,1-2.2,0.9c-0.7,0-0.6-1.2-2.3-1.1c-1.7,0.1-1.4,0.6-3,0.7s-2.4-1.4-3.7-1c-0.8,0.2-1.3,0.6-1.9,0.9
		C156.3,36.5,156.6,36.7,156.8,36.9L156.8,36.9z"/>
	<path class="st4" d="M179.7,30.2c-0.4,0.4-0.9,0.8-1.3,1.2c-0.3,0.4-0.6,0.8-0.8,1.2c-0.1,0.4-0.2,0.8-0.3,1.2
		c-0.1,0.4-0.3,0.7-0.7,1c-0.4,0.3-0.8,0.5-1.2,0.8c-0.2,0.2-0.4,0.3-0.6,0.5c-0.2,0.2-0.3,0.5-0.4,0.7c-0.2,0.4-0.5,0.8-0.9,1
		c-0.4,0.2-0.8,0.4-1.1,0.5c-0.2,0.1-0.5,0.3-0.7,0.4c-0.2,0.1-0.3,0.3-0.5,0.3c-0.2,0.1-0.5,0.2-0.7,0.1c-0.5-0.2-0.9-0.8-1.5-0.6
		c-0.7,0.1-1.2,0.7-1.6,1.2c-0.4,0.4-0.8,0.9-1.4,1c-0.8,0.1-1.2-0.6-1.6-1.1c-0.3-0.4-0.8-0.6-1.4-0.4c-0.4,0.1-0.7,0.4-1.1,0.4
		c-0.4,0.1-0.7-0.1-0.9-0.4c-0.2-0.2-0.4-0.5-0.6-0.6c-0.2-0.1-0.4-0.1-0.6-0.1c-0.3,0-0.6,0-0.9-0.1c-0.4-0.2-0.6-0.6-0.8-0.9
		c-0.2-0.3-0.4-0.7-0.7-0.9c-0.3-0.2-0.6-0.3-0.9-0.4c0,0-0.1,0-0.1,0c0.3,0.1,0.5,0.3,0.7,0.5c0.8,0.8,0.8,2.6,1.3,2.9
		c0.6,0.3,1.2-0.3,1.8,0c0.5,0.3,0.4,1.4,0.8,1.5c0.4,0.1,1.6-1.5,2.5-0.6c0.4,0.4,1.8,2,2.2,2c1.6,0.1,1.8-1.2,2.8-1.3
		c0.5,0,1.5,0.5,2.6,0.2c1-0.3,1.4-1.4,1.8-1.7c0.4-0.3,1.3-0.2,2-0.8c0.7-0.5,0.7-1.5,1.1-1.7c0.4-0.2,0.8-0.4,1.2-0.7
		c0.4-0.2,0.8-0.5,1-0.8c0.2-0.3,0.4-0.8,0.4-1.2c0-0.3-0.1-0.5-0.1-0.8c-0.1-0.7,0.4-1.3,0.9-1.8c0.4-0.4,0.9-0.8,1.4-1.2
		c0.1-0.1,0.3-0.2,0.4-0.3c0,0-0.2-0.2-0.2-0.3c0,0-0.1-0.1-0.1-0.2C180.2,30.1,179.9,30.2,179.7,30.2L179.7,30.2z"/>
	<path class="st5" d="M156.6,36.2c0.3-0.1,0.7-0.2,1-0.2c0.9-0.1,1.5,0.3,2.2,0.8c0.4,0.3,0.8,0.5,1.2,0.5c0.4,0,0.7-0.2,1.1-0.3
		c0.6-0.3,1.4-0.7,2.1-0.6c0.3,0.1,0.6,0.2,0.9,0.4c0.3,0.2,0.7,0.6,1.1,0.7c0.8,0.3,1.6-0.2,2.3-0.6c0.3-0.2,0.7-0.4,1.1-0.6
		c0.4-0.1,0.8-0.2,1.1-0.2c0.4-0.1,0.8-0.2,1.2-0.4c0.4-0.3,0.7-0.7,1-1c0.4-0.3,0.7-0.3,1.2-0.4c0.5,0,1-0.1,1.5-0.4
		c0.5-0.3,0.9-0.8,1.1-1.3c0.2-0.5,0.4-1,0.8-1.3c0.3-0.3,0.7-0.6,1.1-0.8c-0.6,0.1-1,0.3-1.3,0.6c-0.8,0.6-1,1.5-1.9,2.2
		c-1,0.7-1.5,0.3-2.4,0.7c-0.9,0.4-1,0.8-1.7,1.3c-1,0.6-1.1,0.3-1.8,0.6c-0.6,0.2-1.2,1-2.2,0.9c-0.7,0-0.6-1.2-2.3-1.1
		c-1.7,0.1-1.4,0.6-3,0.7s-2.4-1.4-3.7-1C157.4,35.7,157,36,156.6,36.2L156.6,36.2L156.6,36.2z"/>
	<path class="st29" d="M190.7,25.5c-3,0.1-6.9,2.4-11,4.7c0.1,0.2,0.3,0.6,0.2,0.9c3.9-1.8,8.1-1.2,9.6,0c7.1,7.4-0.8,20.6-6.4,25
		c-3.5,2.8-7.5,5.1-11.8,6c-4.3,0.9-9.5,0.2-13.4-1.8c-4-2.1-7-4.9-9.8-8.4c-2.7-3.5-4.5-8.1-4.4-12.7c-0.2,0-0.4,0-0.5,0
		c-0.4,15.1,14.7,27.7,28.3,25.5c14-2.3,23.8-12.6,25.7-22.4C199.3,31.3,192.9,25.7,190.7,25.5L190.7,25.5z"/>
	<path class="st30" d="M189.4,52.8c1.4-1.8,4.4-6.2,5-8.8c1.3-6,0.1-10.6-0.2-11.5c-0.9-2.7-4-5.9-3.1-6.9c-0.1,0-0.2,0-0.3-0.1
		c-3,0.1-6.9,2.4-11,4.7c0.1,0.2,0.3,0.6,0.2,0.9c3.9-1.8,8.1-1.2,9.6,0c7.1,7.4-0.8,20.6-6.4,25c-3.5,2.8-7.5,5.1-11.8,6
		c-4.3,0.9-9.5,0.2-13.4-1.8c-4-2.1-7-4.9-9.8-8.4c-2.7-3.5-4.5-8.1-4.4-12.7c-0.2,0-0.4,0-0.5,0c-0.4,15.1,14.7,27.7,28.3,25.5
		C183.2,61.3,188.7,53.6,189.4,52.8L189.4,52.8z"/>
	<path class="st8" d="M159,62.7c1.8,0.5,3.7,0.5,5.5,0.2c0.5-0.1,1.1-0.2,1.6-0.3c-2.9-0.2-5.7-0.9-8.1-2.2c-4-2.1-7-4.9-9.8-8.4
		c-2.7-3.5-4.5-8.1-4.4-12.7c-0.2,0-0.4,0-0.5,0c-0.3,9.6,5.7,18.1,13.5,22.5C157.5,62.2,158.2,62.5,159,62.7L159,62.7z"/>
	<path class="st8" d="M186.2,28.9c-0.2-0.6-0.6-1.2-0.9-1.7c-1.8,0.9-3.6,2-5.6,3.1c0.1,0.2,0.3,0.6,0.2,0.9c2.2-1,4.6-1.3,6.4-1.1
		C186.4,29.7,186.4,29.2,186.2,28.9L186.2,28.9z"/>
</g>
<g>
	<path class="st0" d="M153.9,60.2c2.6,0.8,10.2,1.8,12.6,2c0.9,0.1,1.6-0.1,2.6-0.1c1.3,0.1,1.5,1.8,3.1,2.3c1.6,0.5,1.5,0,3.1,0.5
		s1.1,1.6,1.7,1.9c0.9,0.4,1.7-0.1,2.4,0c0.8,0,0.8,0.4,1.9,0.2c0.8-0.2,1.1-0.5,2.1-0.6c1,0,1.3,0.5,2.5,0.2c1.1-0.3,1.6-1,2.6-1.3
		s2,0.3,4.9,0.1c2.9-0.1,8.2-0.3,9.9-0.3c1.9,1,4.4,8.3-1.8,17.9c-5.4,8.4-14.8,13.8-30.7,10.9C157.2,91.4,147.9,74,153.9,60.2
		L153.9,60.2z"/>
	<path class="st1" d="M203.1,65.1c-1.7,0-7,0.2-9.9,0.3c-2.9,0.1-2.7,0.2-3.8,0.5c4.1,6.8-4.4,12.3-5.6,12.9
		c-2.5,1.3-5.5,1.9-8.3,1.8c-2.7,0-5.5-0.5-7.9-1.8c-1.5-0.8-2.9-2-4-3.3c-1.4-1.6-2.5-3.4-3.2-5.4c-0.6-1.7-1-3.5-0.8-5.3
		c0.1-1.2,0.6-2.6,1.6-3.2c-2.9-0.4-6-0.9-7.4-1.4c-6,13.9,3.3,31.2,16.8,33.7c15.9,2.9,25.3-2.5,30.7-10.9
		C207.5,73.4,205.1,66,203.1,65.1z"/>
	<path class="st2" d="M203.1,65.1c-1.7,0-7,0.2-9.9,0.3c-2.9,0.1-3.9-0.4-4.9-0.1c8.9,2.6,5.9,11.2,4.9,13.2c-1,1.9-3.6,4.3-5.5,5.4
		c-2.1,1.3-4.9,1.8-7.3,2.3c-2.4,0.5-5,0.7-7.5,0.5c-1.2-0.1-2.3-0.3-3.4-0.6c-1.3-0.3-2.6-0.9-3.8-1.6c-3.4-1.9-6.2-4.8-8-8.3
		c-0.4-0.9-0.9-1.8-1.2-2.7c-0.3-0.9-0.6-1.8-0.8-2.7c-0.3-1.2-0.4-2.4-0.5-3.7c-0.1-1.5-0.1-3,0.1-4.5c0.1-0.7,0.3-1.5,0.7-2.1
		c-0.9-0.2-1.6-0.3-2.2-0.5c-6,13.9,3.3,31.2,16.8,33.7c15.9,2.9,25.3-2.5,30.7-10.9C207.5,73.4,205.1,66,203.1,65.1L203.1,65.1z"/>
	<path class="st3" d="M167.4,63c0.4,1-0.2,2.7,0.1,3.2s1.3,0.2,1.6,0.7c0.4,0.5-0.1,1.4,0.2,1.7s2.1-0.7,2.6,0.3
		c0.2,0.5,1,2.5,1.3,2.7c1.4,0.7,2.1-0.5,3.1-0.2c0.5,0.2,1.2,1,2.3,1.1c1,0.1,1.9-0.8,2.3-0.9c0.4-0.1,1.3,0.3,2.1,0
		c0.9-0.2,1.2-1.2,1.6-1.2c0.4-0.1,0.9-0.1,1.4-0.2c0.4-0.1,0.9-0.2,1.3-0.4c0.3-0.2,0.6-0.6,0.8-0.9c0.1-0.3,0.2-0.5,0.2-0.8
		c0.2-0.7,0.9-1.1,1.5-1.3c0.6-0.2,1.1-0.4,1.7-0.6c0.2-0.1,0.3-0.1,0.5-0.2c0.1,0-0.1-0.3-0.1-0.3c0-0.1,0-0.1-0.1-0.2
		c-1.9-0.1-2.8-0.4-3.6-0.2c-1,0.3-1.5,1-2.6,1.3c-1.2,0.3-1.5-0.2-2.5-0.2s-1.3,0.4-2.1,0.6c-1.1,0.2-1.1-0.1-1.9-0.2
		c-0.7,0-1.5,0.4-2.4,0c-0.6-0.3-0.1-1.4-1.7-1.9s-1.5,0-3.1-0.5s-1.7-2.2-3.1-2.3c-0.8-0.1-1.4,0.1-2.1,0.1
		C167.1,62.4,167.3,62.7,167.4,63L167.4,63z"/>
	<path class="st4" d="M191.1,65.3c-0.6,0.2-1.1,0.4-1.6,0.7c-0.4,0.2-0.9,0.5-1.2,0.8c-0.3,0.3-0.4,0.7-0.7,1
		c-0.2,0.3-0.6,0.6-1,0.7c-0.5,0.1-1,0.2-1.4,0.3c-0.2,0.1-0.5,0.1-0.7,0.3c-0.2,0.1-0.4,0.3-0.7,0.5c-0.4,0.3-0.8,0.5-1.2,0.6
		c-0.4,0.1-0.8,0.1-1.2,0.1c-0.3,0-0.6,0.1-0.8,0.1c-0.2,0.1-0.4,0.1-0.6,0.1c-0.3,0-0.5,0-0.7-0.2c-0.4-0.4-0.5-1-1.1-1.2
		c-0.7-0.1-1.4,0.2-2,0.5c-0.5,0.2-1.1,0.6-1.7,0.4c-0.7-0.2-0.9-1-1.1-1.6c-0.1-0.5-0.5-0.9-1.1-0.9c-0.4,0-0.8,0.1-1.2,0
		c-0.4-0.1-0.6-0.4-0.7-0.8c-0.1-0.3-0.1-0.6-0.4-0.8c-0.2-0.1-0.4-0.2-0.6-0.3c-0.3-0.1-0.6-0.2-0.8-0.4c-0.3-0.3-0.3-0.8-0.4-1.2
		c-0.1-0.4-0.1-0.8-0.3-1.1c-0.2-0.3-0.4-0.5-0.7-0.7c0,0-0.1,0-0.1,0c0.2,0.2,0.4,0.5,0.5,0.7c0.4,1-0.2,2.7,0.1,3.2
		s1.3,0.2,1.6,0.7c0.4,0.5-0.1,1.4,0.2,1.7s2.1-0.7,2.6,0.3c0.2,0.5,1,2.5,1.3,2.7c1.4,0.7,2.1-0.5,3.1-0.2c0.5,0.2,1.2,1,2.3,1.1
		c1,0.1,1.9-0.8,2.3-0.9c0.4-0.1,1.3,0.3,2.1,0c0.9-0.2,1.2-1.2,1.6-1.2c0.4-0.1,0.9-0.1,1.4-0.2c0.4-0.1,0.9-0.2,1.3-0.4
		c0.3-0.2,0.6-0.6,0.8-0.9c0.1-0.3,0.2-0.5,0.2-0.8c0.2-0.7,0.9-1.1,1.5-1.3c0.6-0.2,1.1-0.4,1.7-0.6c0.2-0.1,0.3-0.1,0.5-0.2
		c0.1,0-0.1-0.3-0.1-0.3c0-0.1,0-0.1-0.1-0.2C191.7,65.4,191.4,65.4,191.1,65.3L191.1,65.3z"/>
	<path class="st5" d="M167.5,62.2c0.4,0,0.7,0.1,1,0.2c0.8,0.2,1.3,0.8,1.7,1.5c0.2,0.4,0.5,0.8,0.9,1c0.4,0.1,0.7,0.1,1.1,0.1
		c0.7-0.1,1.5-0.2,2.1,0.3c0.3,0.2,0.5,0.4,0.6,0.7c0.2,0.3,0.4,0.8,0.7,1.1c0.6,0.6,1.5,0.4,2.3,0.3c0.4-0.1,0.8-0.2,1.2-0.1
		c0.4,0,0.8,0.1,1.1,0.2c0.4,0.1,0.8,0.2,1.2,0.1c0.5-0.1,0.9-0.4,1.3-0.5c0.4-0.2,0.8,0,1.2,0.1c0.5,0.1,1,0.3,1.5,0.2
		c0.6-0.1,1.1-0.4,1.6-0.8c0.4-0.3,0.8-0.7,1.2-1c0.4-0.2,0.8-0.3,1.3-0.3c-0.6-0.1-1-0.1-1.4,0c-1,0.3-1.5,1-2.6,1.3
		c-1.2,0.3-1.5-0.2-2.5-0.2s-1.3,0.4-2.1,0.6c-1.1,0.2-1.1-0.1-1.9-0.2c-0.7,0-1.5,0.4-2.4,0c-0.6-0.3-0.1-1.4-1.7-1.9
		s-1.5,0-3.1-0.5s-1.7-2.2-3.1-2.3c-0.6,0-1.1,0-1.6,0.1L167.5,62.2L167.5,62.2z"/>
	<path class="st6" d="M203.1,65.1c-2.8-1.1-7.3-0.4-12,0.3c0,0.2,0,0.7-0.1,0.9c4.3-0.2,8,1.9,8.9,3.6c3.8,9.5-8.4,18.8-15.2,20.9
		c-4.2,1.3-8.8,1.9-13.2,1.2c-4.3-0.8-8.9-3.4-11.7-6.7c-2.9-3.4-4.7-7.1-5.9-11.4c-1.2-4.2-1.1-9.2,0.6-13.4
		c-0.2,0-0.3-0.1-0.5-0.1c-6,13.9,3.3,31.2,16.7,34.2c13.8,3.1,26.8-2.8,32.2-11.2C209,73.6,205.1,66,203.1,65.1L203.1,65.1z"/>
	<path class="st7" d="M191.7,89.8c2-1.2,6.4-4.1,7.9-6.3c3.5-5.1,4-9.8,4.1-10.7c0.2-2.9-1.5-6.9-0.3-7.5c-0.1-0.1-0.2-0.1-0.3-0.2
		c-2.8-1.1-7.3-0.4-12,0.3c0,0.2,0,0.7-0.1,0.9c4.3-0.2,8,1.9,8.9,3.6c3.8,9.5-8.4,18.8-15.2,20.9c-4.2,1.3-8.8,1.9-13.2,1.2
		c-4.3-0.8-8.9-3.4-11.7-6.7c-2.9-3.4-4.7-7.1-5.9-11.4c-1.2-4.2-1.1-9.2,0.6-13.4c-0.2,0-0.3-0.1-0.5-0.1
		c-6,13.9,3.3,31.2,16.7,34.2C182.8,95.4,190.8,90.4,191.7,89.8L191.7,89.8z"/>
	<path class="st8" d="M159.9,87.7c1.5,1.1,3.2,1.9,5,2.3c0.5,0.1,1.1,0.2,1.6,0.3c-2.6-1.2-5-3-6.7-5.1c-2.9-3.4-4.7-7.1-5.9-11.4
		c-1.2-4.2-1.1-9.2,0.6-13.4c-0.2,0-0.3-0.1-0.5-0.1c-3.8,8.8-1.5,18.9,4.2,26C158.7,86.7,159.2,87.2,159.9,87.7L159.9,87.7z"/>
	<path class="st8" d="M197.7,66.5c0-0.6-0.1-1.3-0.2-1.9c-2,0.1-4.1,0.4-6.3,0.8c0,0.2,0,0.7-0.1,0.9c2.5-0.1,4.7,0.5,6.4,1.4
		C197.6,67.3,197.7,66.9,197.7,66.5z"/>
</g>
</svg>
