<?xml version="1.0" encoding="UTF-8"?><svg id="a" xmlns="http://www.w3.org/2000/svg" viewBox="0 0 256 200"><defs><style>.b{fill:#fff8d2;}.c{fill:#fff9de;}.d{fill:#e8dea6;}.e{fill:#e2d798;}.f{fill:#aec837;}.g{fill:#a1aa26;}.h{fill:#f8f2c3;}.i{fill:#ecdd9e;}.j{fill:#94a81e;}.k{fill:#abba37;}</style></defs><g><polygon class="d" points="54 52.81 38.1 54.75 50.41 43.16 74.46 29.35 62.39 46.58 54 52.81"/><g><polygon class="e" points="38.1 54.75 50.43 67.83 74.15 66.52 74.72 50.77 59.71 46.89 38.1 54.75"/><path class="f" d="M58.28,47.5c4.13,5.8,16.21,18.65,15.88,19.02l15.74-17.43s-15.22-19.47-15.43-19.73c.19,.24-15.66,16.95-16.18,18.15Z"/><path class="k" d="M80.59,56.5c-1.76,.21-3.88,.74-3.65,.8-2.34-.62-.18-3.67,.66-3.53-1.53-.25-2.99-.87-4.23-1.79,2.26-1.76,4.52-3.52,6.78-5.28,.15-.12,.31-.24,.41-.41,.48-.76-.54-1.69-1.44-1.66-.9,.03-1.72,.55-2.62,.62-.72,.06-1.31-.33-1.57-.96,1.39-2.03,4.7-5.39,2.97-7.84-1.94-2.76-4.99-2.49-3.35-6.95,1.33,1.65,15.66,19.22,15.34,19.58,0,.01-3.6,3.99-7.35,8.14,.91-.86-.38-.91-1.95-.72Z"/></g></g><g><polygon class="i" points="92.71 95.86 105.86 104.99 100.38 88.99 85.54 65.57 88.19 86.44 92.71 95.86"/><g><polygon class="h" points="105.86 104.99 88.87 110.81 68.49 98.6 75.32 84.4 90.42 87.96 105.86 104.99"/><path class="f" d="M91.4,89.17c-6.36,3.2-23.03,8.94-22.91,9.43l-5.8-22.76s22.54-10.13,22.85-10.27c-.28,.12,5.95,22.3,5.86,23.6Z"/><path class="k" d="M67.46,86.74c1.46,1.01,3.09,2.46,2.85,2.41,2.36,.54,1.87-3.16,1.06-3.43,1.47,.49,3.05,.62,4.58,.39-1.18-2.61-2.36-5.22-3.54-7.83-.08-.18-.16-.36-.18-.55-.07-.9,1.27-1.24,2.05-.8,.78,.45,1.27,1.29,2.03,1.77,.61,.39,1.32,.32,1.84-.12-.28-2.44-1.64-6.95,1.03-8.32,3-1.54,5.58,.13,6.2-4.58-1.95,.83-22.82,9.71-22.7,10.18,0,.01,1.33,5.21,2.71,10.63-.4-1.18,.76-.63,2.06,.27Z"/></g></g><g><polygon class="i" points="48.86 14.58 44.26 13.09 46.24 30.62 50.64 42.68 51.45 23.67 48.86 14.58"/><g><polygon class="b" points="44.26 13.09 59.48 9.63 70.87 15.84 62.61 27.45 49.7 21.98 44.26 13.09"/><path class="f" d="M49.01,20.75c6.16-1.89,21.89-4.46,21.86-4.91l1.7,21.17s-21.63,5.6-21.93,5.67c.27-.07-1.91-20.78-1.63-21.93Z"/><path class="k" d="M69.3,27.46c-2.44,0-3.66,.63-4.48,2.87-.37,1.02-1.26,3.82-2.72,3.87-1.06,.04-1.52-1.43-1.9-2.18-.53-1.02-1.12-2.15-2.23-2.63-2.32-1.01-4.6,1.23-5.34,3.23-.93,2.5,1.47,8.38-1.97,9.32,.02,.45,.03,.72,0,.73,.3-.08,21.93-5.67,21.93-5.67,0,0-.39-4.84-.8-9.89-.76,.28-1.55,.35-2.48,.35Z"/></g></g><g><polygon class="i" points="99.54 76.12 94.94 74.63 96.93 92.16 101.32 104.21 102.13 85.21 99.54 76.12"/><g><polygon class="d" points="94.94 74.63 110.17 71.17 121.55 77.37 113.29 88.99 100.38 83.51 94.94 74.63"/><path class="j" d="M99.69,82.28c6.16-1.89,21.89-4.46,21.86-4.91l1.7,21.17s-21.63,5.6-21.93,5.67c.27-.07-1.91-20.78-1.63-21.93Z"/><path class="g" d="M119.98,89c-2.44,0-3.66,.63-4.48,2.87-.37,1.02-1.26,3.82-2.72,3.87-1.06,.04-1.52-1.43-1.9-2.18-.53-1.02-1.12-2.15-2.23-2.63-2.32-1.01-4.6,1.23-5.34,3.23-.93,2.5,1.47,8.38-1.97,9.32,.02,.45,.03,.72,0,.73,.3-.08,21.93-5.67,21.93-5.67,0,0-.39-4.84-.8-9.89-.76,.28-1.55,.35-2.48,.35Z"/></g></g><g><path class="f" d="M23.2,28.15l-2.93-5.23,10.99-6.8s16.8,6.98,22.62,19.54c.8,1.72,1.6,3.45,2.39,5.17,.53,1.15,1.07,2.2,1.32,3.44,.02,.08,.03,.16,0,.24-.03,.11-.13,.19-.22,.27-3.24,3.01-6.92,5.6-10.42,8.32L23.2,28.15Z"/><path class="k" d="M53.87,35.65c-5.82-12.56-22.62-19.54-22.62-19.54l-4.71,2.92c4.22,1.33,9.04,1.04,12.89,3.3,1.12,.66,2.35,1.84,2.24,3.25-.12,1.48-1.56,2.63-2.36,3.87,2.72,.42,4.79,.88,5.74,3.86,.5,1.56,.22,3.17,.15,4.77-.04,.97-.2,2.35,.52,3.1,.76,.8,2.21,.38,3.21,.58,2.84,.55,4.71,2.81,5.71,5.36-.02-.06,1.12-.87,1.2-.93,.8-.61,1.71-1.38,1.63-2.48-.06-.79-.57-1.52-.9-2.23-.9-1.95-1.8-3.89-2.7-5.83Z"/><path class="h" d="M20.27,22.92v24.95l26.69,5.23s-11.86-24.6-26.69-30.18Z"/></g><g><path class="f" d="M13.99,44.65l-2.93-5.23,10.99-6.8s16.8,6.98,22.62,19.54c.8,1.72,1.6,3.45,2.39,5.17,.53,1.15,1.07,2.2,1.32,3.44,.02,.08,.03,.16,0,.24-.03,.11-.13,.19-.22,.27-3.24,3.01-6.92,5.6-10.42,8.32L13.99,44.65Z"/><path class="k" d="M44.67,52.15c-5.82-12.56-22.62-19.54-22.62-19.54l-4.71,2.92c4.22,1.33,9.04,1.04,12.89,3.3,1.12,.66,2.35,1.84,2.24,3.25-.12,1.48-1.56,2.63-2.36,3.87,2.72,.42,4.79,.88,5.74,3.86,.5,1.56,.22,3.17,.15,4.77-.04,.97-.2,2.35,.52,3.1,.76,.8,2.21,.38,3.21,.58,2.84,.55,4.71,2.81,5.71,5.36-.02-.06,1.12-.87,1.2-.93,.8-.61,1.71-1.38,1.63-2.48-.06-.79-.57-1.52-.9-2.23-.9-1.95-1.8-3.89-2.7-5.83Z"/><path class="c" d="M11.06,39.41v24.95l26.69,5.23s-11.86-24.6-26.69-30.18Z"/></g><g><polygon class="i" points="18.12 64.42 11.54 63.15 13.52 80.68 19.27 92.59 21.41 73.43 18.12 64.42"/><g><polygon class="h" points="11.54 63.15 33.75 58.9 49.91 64.56 37.37 76.66 18.95 71.81 11.54 63.15"/><path class="j" d="M18.03,70.61c9.01-2.21,31.91-5.6,31.88-6.05l1.39,21.2s-31.59,6.72-32.03,6.82c.39-.08-1.71-20.8-1.25-21.97Z"/><path class="k" d="M47.05,76.34c-3.53,.12-5.33,.82-6.63,3.11-.59,1.05-2.01,3.91-4.14,4.03-1.53,.09-2.12-1.36-2.64-2.09-.71-1-1.52-2.1-3.1-2.53-3.3-.9-6.72,1.47-7.9,3.52-1.47,2.57,1.71,8.35-3.32,9.47,.01,.46,0,.73-.04,.73,.43-.09,32.03-6.82,32.03-6.82,0,0-.32-4.85-.65-9.9-1.12,.32-2.26,.43-3.6,.48Z"/></g></g><g><polygon class="i" points="60.95 82.16 73.84 72.67 56.93 72.67 29.96 79.12 50.57 83.38 60.95 82.16"/><g><polygon class="h" points="73.84 72.67 73.84 90.64 55.68 105.96 44.46 94.89 52.73 81.76 73.84 72.67"/><path class="j" d="M54.19,81.23c.97,7.06,.99,24.69,1.49,24.73l-23.41-1.89s-2.28-24.61-2.31-24.94c.03,.3,23.02,1.6,24.22,2.11Z"/><path class="k" d="M44.13,103.09c1.43-1.05,3.33-2.12,3.2-1.92,1.28-2.05-2.38-2.8-2.9-2.12,.94-1.23,1.58-2.69,1.85-4.21-2.85,.27-5.7,.54-8.55,.81-.19,.02-.39,.04-.58-.01-.87-.23-.77-1.6-.09-2.2,.68-.59,1.63-.78,2.33-1.34,.56-.45,.73-1.14,.48-1.78-2.4-.52-7.11-.7-7.54-3.67-.48-3.34,1.93-5.23-2.33-7.35,.16,2.11,1.79,24.73,2.27,24.77,.01,0,5.36,.43,10.93,.88-1.25,0-.35-.93,.92-1.86Z"/></g></g><g><path class="j" d="M63.29,54.44l3.74-4.69,10.44,7.62s-.13,18.19-9.58,28.31c-1.29,1.39-2.59,2.78-3.89,4.16-.86,.92-1.64,1.82-2.69,2.52-.07,.05-.14,.09-.22,.1-.12,.01-.23-.05-.34-.1-4.01-1.87-7.8-4.3-11.63-6.51l14.16-31.41Z"/><path class="g" d="M67.9,85.69c9.44-10.13,9.58-28.31,9.58-28.31l-4.48-3.27c.36,4.41,2.45,8.77,1.8,13.19-.19,1.28-.82,2.87-2.17,3.3-1.41,.45-3.02-.46-4.47-.73,.64,2.68,.99,4.77-1.41,6.77-1.25,1.05-2.85,1.4-4.36,1.93-.91,.32-2.25,.7-2.68,1.65-.45,1.01,.48,2.19,.67,3.19,.55,2.84-.83,5.42-2.81,7.31,.05-.05,1.23,.71,1.32,.76,.86,.51,1.92,1.06,2.91,.58,.71-.35,1.2-1.1,1.73-1.67,1.46-1.57,2.93-3.13,4.39-4.7Z"/><path class="h" d="M67.03,49.76l-23.11,9.4,5.21,26.7s18.32-20.26,17.9-36.1Z"/></g><g><path class="f" d="M97.24,90.24l5.08,3.19-6.4,11.23s-18.09,1.9-29.21-6.35c-1.53-1.13-3.05-2.26-4.57-3.4-1.01-.75-1.99-1.42-2.8-2.39-.05-.06-.11-.13-.13-.21-.03-.12,.02-.23,.06-.35,1.41-4.19,3.4-8.23,5.17-12.29l32.8,10.55Z"/><path class="k" d="M66.71,98.32c11.12,8.25,29.21,6.35,29.21,6.35l2.74-4.82c-4.35,.85-8.44,3.41-12.9,3.26-1.29-.04-2.94-.49-3.52-1.79-.6-1.35,.11-3.06,.22-4.52-2.59,.93-4.63,1.52-6.89-.65-1.18-1.13-1.71-2.68-2.41-4.12-.42-.87-.95-2.16-1.94-2.48-1.05-.34-2.13,.72-3.09,1.02-2.76,.87-5.48-.21-7.58-1.98,.05,.04-.57,1.3-.61,1.4-.41,.92-.84,2.03-.25,2.95,.43,.66,1.23,1.07,1.85,1.53,1.72,1.28,3.44,2.56,5.16,3.83Z"/><path class="e" d="M102.32,93.44l-11.93-21.91-25.95,8.17s22.18,15.93,37.88,13.75Z"/></g><g><path class="f" d="M106.46,66.28l5.08,3.19-6.4,11.23s-18.09,1.9-29.21-6.35c-1.53-1.13-3.05-2.26-4.57-3.4-1.01-.75-1.99-1.42-2.8-2.39-.05-.06-.11-.13-.13-.21-.03-.12,.02-.23,.06-.35,1.41-4.19,3.4-8.23,5.17-12.29l32.8,10.55Z"/><path class="k" d="M75.93,74.36c11.12,8.25,29.21,6.35,29.21,6.35l2.74-4.82c-4.35,.85-8.44,3.41-12.9,3.26-1.29-.04-2.94-.49-3.52-1.79-.6-1.35,.11-3.06,.22-4.52-2.59,.93-4.63,1.52-6.89-.65-1.18-1.13-1.71-2.68-2.41-4.12-.42-.87-.95-2.16-1.94-2.48-1.05-.34-2.13,.72-3.09,1.02-2.76,.87-5.48-.21-7.58-1.98,.05,.04-.57,1.3-.61,1.4-.41,.92-.84,2.03-.25,2.95,.43,.66,1.23,1.07,1.85,1.53,1.72,1.28,3.44,2.56,5.16,3.83Z"/><path class="h" d="M111.54,69.47l-11.93-21.91-25.95,8.17s22.18,15.93,37.88,13.75Z"/></g></svg>