<?xml version="1.0" encoding="UTF-8"?><svg xmlns="http://www.w3.org/2000/svg" viewBox="0 0 256 200"><defs><style>.b{isolation:isolate;}.c{fill:#fde640;}.d{fill:#fded87;}.e{fill:#fded4d;}.f{fill:#f2a71d;}.g{fill:#af5c27;}.h{fill:#c06929;}.i{fill:#ffd528;}.j{fill:#f5b419;}.k{fill:#1a1210;mix-blend-mode:overlay;opacity:.3;}.l{fill:#eda620;}</style></defs><g class="b"><g id="a"><g><g><path class="j" d="M109.93,90.82c1.25-3.06,2.58-6,4.27-8.86,1.78-3.01,3.53-6.01,5.16-9.1,.75-1.42,1.64-2.8,2.23-4.25l1.36,8.96-13.12,25.25-1.49-8.81c.62-.98,1.13-2.06,1.59-3.18Z"/><path class="l" d="M114.26,90.02c.37-2.08,1.76-4.16,2.83-5.97,1.23-2.08,2.74-3.91,4.15-5.87,.07-.1,.22,0,.16,.1-1.21,1.9-2.18,3.99-3.23,5.99-.51,.97-1.03,1.95-1.52,2.93-.51,1.03-.95,2.14-1.68,3.04-.21,.26-.79,.2-.72-.23Z"/><path class="l" d="M113.74,87.16c.51-4.06,3.95-7.24,5.63-10.83,.05-.1,.2-.05,.16,.05-.73,1.87-1.51,3.65-2.47,5.42-.99,1.81-1.8,3.72-2.79,5.53-.14,.25-.57,.11-.53-.17Z"/><path class="l" d="M110.5,95.14c.54-2.12,1.65-3.92,2.8-5.76,.05-.08,.2-.02,.15,.07-.89,1.94-1.59,3.96-2.66,5.82-.1,.17-.34,.03-.29-.14Z"/><path class="l" d="M109.11,93.04c.79-2.13,2-4.03,2.89-6.11,.07-.17,.34-.09,.28,.09-.7,2.23-1.35,4.32-2.88,6.15-.11,.13-.35,.05-.29-.13Z"/><path class="k" d="M108.34,94.01c.62-.98,1.13-2.06,1.59-3.18,1.25-3.06,2.58-6,4.27-8.86,1.78-3.01,3.53-6.01,5.16-9.1,.75-1.42,1.64-2.8,2.23-4.25l1.06,6.99c-.07,.14-.13,.27-.19,.42-1.89,4.28-4.99,7.89-7.73,11.65-2.51,3.44-4.82,7.37-5.52,11.45l-.86-5.1Z"/><path class="e" d="M121.68,68.39s.06,.02,.09,.03c3,1.09,5.75,2.72,8.62,4.08,5.49,2.6,11.15,4.88,17.02,6.51l2.08,1.01-.92,7.93-25.62-10.38-1.36-8.96c.03-.07,.06-.15,.09-.22Z"/><path class="i" d="M115.06,90.98c1.42-3.22,3.13-6.31,5.09-9.24l2.8-4.17,17.23,6.34c.9,.33,1.77,.71,2.62,1.14l5.77,2.91s-9.25,25.43-38.74,14.87l5.23-11.84Z"/><path class="c" d="M128.94,95.49c-.53-1.48-1.06-2.96-1.57-4.44-.53-1.54-1.07-3.05-1.66-4.57-.24-.61-.5-1.22-.67-1.86-.21-.82-.18-1.68-.4-2.51-.03-.13,.17-.2,.22-.08,.35,.75,.89,1.29,1.33,1.97,.43,.66,.74,1.41,1.1,2.1,.77,1.48,1.69,2.84,2.53,4.28,.8,1.36,1.56,2.75,2.15,4.21,.61,1.5,1.3,3.11,1.38,4.75,.07,1.56-2.32,1.93-2.94,.63-.67-1.4-.96-3.03-1.48-4.49Z"/><path class="c" d="M130.02,84.89c-.13-.16,.08-.34,.23-.21,.47,.41,1.19,.49,1.72,.81,.54,.33,1.05,.78,1.56,1.16,.99,.75,1.93,1.55,2.9,2.33,.97,.78,1.95,1.55,2.93,2.32,.98,.77,2.26,1.5,2.8,2.66,.5,1.08-.49,2.02-1.56,1.81-1.25-.25-2.26-1.37-3.19-2.18-.94-.82-1.85-1.67-2.74-2.54-.89-.88-1.77-1.76-2.56-2.73-.41-.5-.86-1.02-1.21-1.56-.36-.55-.48-1.37-.88-1.87Z"/><path class="c" d="M113.48,101.14c.18-.52,.52-.92,.78-1.4,.31-.58,.59-1.17,.89-1.76,.62-1.25,1.2-2.51,1.8-3.76,1.07-2.24,1.95-4.83,3.72-6.62,.11-.11,.33-.05,.35,.11,.26,2.73-1,5.64-1.97,8.18-.52,1.35-1.05,2.69-1.61,4.03-.56,1.34-1.05,2.95-2.77,2.95-.86,0-1.44-.94-1.18-1.71Z"/><path class="g" d="M149.08,88.31s.5,6.79-13.59,14.66c-14.09,7.86-25.8,.02-25.8,.02l4.39,1.56,4.06,.19,1.31-.83,1.34,1.37,6.67,.24,6.31-2.23,.96-2.06,2.08-.04,3.06-2.34,5.59-5.41-.07-1.36,2.09-1.78,1.59-1.98Z"/><path class="h" d="M108.66,98.52c-.15-.9-.32-1.79-.48-2.68-.08-.41-.18-.83-.23-1.24,.19-.28,.37-.56,.55-.85,.41,.6,.51,1.38,.67,2.08,.2,.88,.37,1.78,.53,2.67,.16,.89,.48,3.53,.33,3.95,1.45,.34,3,.98,4.44,1.36,1.3,.34,3.74,1.15,4.63-.33,.15-.26,.48-.18,.62,.03,.81,1.23,2.25,1.52,3.65,1.53,1.36,.01,2.75-.04,4.1-.21,2.31-.28,6.29-1.05,7.11-3.63,.06-.2,.29-.36,.5-.34,1.09,.11,2.22-.78,3.1-1.35,1.09-.7,2.12-1.47,3.1-2.3,1.36-1.14,4.18-3.19,3.73-5.22-.04-.18,.09-.38,.28-.41,1.7-.3,2.73-2.11,3.29-3.63-.11-.06-.38-3.1-.28-4.66,.07-1.13,.13-2.94,1.05-3.76,.02-.02,.04-.03,.06-.03,.02,0,.05,0,.07,0,.04,.01,.07,.05,.08,.09,.13,.57-.03,1.12-.11,1.7-.1,.74-.14,1.47-.16,2.21-.04,1.47-.07,4.72-.21,4.8-.06,1.81-1.57,3.15-3.25,3.8,.8,2.13-2.15,4.47-3.5,5.67-1.18,1.05-2.46,1.99-3.8,2.83-.91,.57-2.08,1.47-3.22,1.31-1.49,2.74-5.11,3.64-8.01,3.95-2.4,.26-6.45,.84-7.95-1.52-.85,.91-2.31,.88-3.5,.66-2.03-.38-6.09-1.98-6.16-2.02-.59-.35-.5-.96-.59-1.59-.14-.96-.28-1.93-.44-2.88Z"/><path class="h" d="M108.85,101.82s.02,.01,0,.02-.02-.01,0-.02Z"/><path class="f" d="M131.91,85.87c.93,.8,2.02,1.45,2.98,2.23,.89,.72,1.75,1.46,2.63,2.18,1.72,1.42,3.51,2.71,4.91,4.44,.15,.19-.02,.51-.27,.42-2.18-.77-3.92-2.2-5.63-3.7-.86-.76-1.68-1.54-2.46-2.39-.88-.96-1.51-2.05-2.3-3.07-.07-.09,.05-.2,.13-.12Z"/><path class="f" d="M129.48,96.53c-.58-1.39-1.09-2.81-1.6-4.24-.47-1.33-.93-2.68-1.37-4.02-.46-1.42-.76-2.88-1.25-4.29-.03-.08,.11-.13,.15-.05,.57,1.39,1.32,2.68,1.95,4.04,.63,1.36,1.25,2.72,1.88,4.08,.63,1.36,1.26,2.72,1.85,4.11,.52,1.22,1.07,2.44,1.15,3.78,.02,.38-.51,.5-.74,.26-.99-1.02-1.5-2.39-2.04-3.68Z"/><path class="f" d="M114.79,101.44c.35-2.16,1.63-4.25,2.63-6.19,1.14-2.24,2.29-4.49,3.18-6.84,.04-.11,.2-.06,.17,.05-.68,2.39-1.29,4.79-2.14,7.14-.74,2.07-1.65,4.54-3.3,6.09-.2,.18-.59,.03-.55-.26Z"/><path class="c" d="M122.51,82.4c.02-.09,.16-.09,.19-.02,.97,2.18,1.17,4.77,.89,7.12-.03,.27-.37,.27-.45,.04-.76-2.23-1.11-4.8-.63-7.14Z"/><path class="c" d="M123.11,91.8c.05-.16,.29-.14,.32,.02,.22,1.01,.67,2.34,.26,3.35-.08,.2-.39,.32-.53,.12-.71-.98-.38-2.42-.05-3.49Z"/><path class="c" d="M130.64,82.6c2.04,.66,4.19,1.72,5.98,2.89,.28,.18,.14,.67-.21,.64-2.23-.19-4.64-1.36-6.07-3.07-.18-.21,.02-.55,.3-.46Z"/><path class="c" d="M140.86,87.84c.59-.03,1.23,.34,1.73,.6,.55,.29,1.08,.69,1.55,1.11,.21,.19-.05,.46-.27,.42-.65-.13-1.31-.34-1.9-.63-.52-.25-1.1-.53-1.42-1.02-.15-.23,.1-.47,.32-.49Z"/><path class="d" d="M129.66,72.46c.69,.18,1.37,.41,2.04,.65,1.7,.79,3.42,1.54,5.16,2.25,.34,.16,.67,.31,1.01,.46,1.29,.58,2.58,1.16,3.87,1.76,1.19,.55,2.54,1.08,3.46,2.04,.08,.08,0,.19-.1,.2-1.32,.04-2.65-.54-3.86-1-1.41-.55-2.81-1.13-4.2-1.74-2.64-1.15-5.36-2.27-7.67-3.99-.32-.23-.09-.73,.3-.63Z"/><path class="d" d="M131.7,76.93c1.89,.4,3.69,1.19,5.49,1.89,1.82,.71,3.6,1.46,5.39,2.24,.18,.08,.16,.42-.07,.38-3.74-.65-7.95-1.74-11.04-4.01-.26-.19-.07-.57,.24-.5Z"/><path class="d" d="M126.61,78.16c4.2,.77,8.13,2.72,12.1,4.22,.55,.21,.27,1.07-.29,.87-4.02-1.44-8.31-2.51-12.02-4.65-.26-.15-.04-.48,.21-.43Z"/><path class="k" d="M109.83,102.82l.64-1.45c1.64,.26,3.54-.65,4.92-1.78,3.04-2.47,5.27-5.92,6.26-9.68,.23-.88,.48-1.9,1.29-2.34,.94-.52,2.12,.03,2.87,.78,1.6,1.58,2.23,3.94,3.85,5.51,1.92,1.86,5.16,2.2,7.46,.78,1-.62,1.81-1.5,2.6-2.37l5.25-5.8c.07-.08,.14-.15,.2-.23l3.4,1.72s-9.25,25.43-38.74,14.87Z"/></g><g><path class="j" d="M118.96,81.69c1.39-3,2.85-5.88,4.67-8.66,1.92-2.93,3.8-5.84,5.57-8.85,.82-1.39,1.77-2.72,2.42-4.15l.95,9.01-14.26,24.63-1.09-8.87c.66-.95,1.22-2,1.73-3.11Z"/><path class="l" d="M123.32,81.09c.46-2.06,1.95-4.08,3.1-5.83,1.32-2.02,2.91-3.79,4.41-5.67,.08-.09,.22,0,.15,.11-1.3,1.85-2.36,3.89-3.5,5.84-.56,.95-1.11,1.9-1.65,2.86-.56,1-1.05,2.1-1.82,2.96-.23,.25-.8,.16-.7-.26Z"/><path class="l" d="M122.93,78.2c.7-4.04,4.27-7.05,6.12-10.56,.05-.1,.21-.04,.16,.06-.81,1.83-1.67,3.58-2.72,5.3-1.07,1.77-1.97,3.63-3.04,5.4-.15,.25-.57,.09-.53-.19Z"/><path class="l" d="M119.33,86.03c.64-2.09,1.83-3.84,3.06-5.62,.05-.08,.2,0,.15,.08-.98,1.9-1.77,3.88-2.92,5.7-.11,.16-.34,.02-.29-.15Z"/><path class="l" d="M118.04,83.87c.88-2.09,2.19-3.93,3.16-5.97,.08-.17,.34-.08,.28,.1-.8,2.19-1.55,4.26-3.16,6.01-.11,.12-.36,.04-.28-.15Z"/><path class="k" d="M117.23,84.8c.66-.95,1.22-2,1.73-3.11,1.39-3,2.85-5.88,4.67-8.66,1.92-2.93,3.8-5.84,5.57-8.85,.82-1.39,1.77-2.72,2.42-4.15l.74,7.03c-.07,.13-.14,.27-.21,.41-2.08,4.19-5.35,7.65-8.26,11.28-2.66,3.32-5.15,7.14-6.04,11.18l-.63-5.13Z"/><path class="e" d="M131.72,59.82s.06,.02,.09,.04c2.94,1.23,5.62,2.98,8.43,4.47,5.37,2.85,10.91,5.38,16.7,7.28l2.03,1.1-1.28,7.88-25.12-11.54-.95-9.01c.03-.07,.06-.14,.1-.22Z"/><path class="i" d="M124.08,82.08c1.57-3.15,3.41-6.16,5.51-9l2.98-4.04,16.92,7.11c.88,.37,1.74,.79,2.57,1.26l5.63,3.17s-10.4,24.98-39.38,13.09l5.77-11.59Z"/><path class="c" d="M137.74,87.22c-.46-1.5-.92-3-1.37-4.51-.46-1.56-.93-3.1-1.45-4.64-.21-.62-.45-1.24-.58-1.88-.17-.83-.1-1.68-.28-2.52-.03-.13,.17-.19,.22-.07,.32,.76,.83,1.33,1.24,2.03,.4,.68,.67,1.44,1,2.15,.7,1.51,1.55,2.92,2.33,4.39,.74,1.39,1.44,2.82,1.96,4.31,.54,1.53,1.16,3.17,1.16,4.81,0,1.56-2.4,1.83-2.97,.49-.6-1.43-.82-3.07-1.27-4.55Z"/><path class="c" d="M139.3,76.69c-.12-.16,.1-.34,.24-.2,.45,.43,1.16,.55,1.68,.89,.53,.35,1.01,.82,1.5,1.23,.95,.79,1.86,1.64,2.79,2.46,.93,.82,1.88,1.64,2.82,2.45,.94,.81,2.19,1.6,2.68,2.78,.45,1.1-.58,2-1.65,1.74-1.24-.3-2.2-1.47-3.09-2.32-.91-.86-1.77-1.75-2.62-2.67-.85-.92-1.68-1.84-2.43-2.84-.39-.52-.81-1.05-1.14-1.62-.33-.57-.41-1.39-.79-1.91Z"/><path class="c" d="M122.03,92.16c.2-.51,.56-.9,.84-1.37,.34-.56,.65-1.15,.96-1.72,.67-1.22,1.31-2.45,1.97-3.67,1.17-2.19,2.17-4.74,4.02-6.45,.11-.1,.33-.03,.34,.13,.14,2.74-1.26,5.59-2.34,8.08-.58,1.33-1.17,2.64-1.8,3.95-.63,1.31-1.18,2.89-2.9,2.82-.86-.04-1.39-1.01-1.1-1.76Z"/><path class="g" d="M158.19,80.97s.19,6.81-14.24,14.02c-14.43,7.21-25.78-1.15-25.78-1.15l4.32,1.76,4.05,.37,1.35-.77,1.28,1.43,6.65,.54,6.4-1.94,1.05-2.02,2.08,.05,3.17-2.2,5.83-5.15v-1.37l2.16-1.68,1.68-1.91Z"/><path class="h" d="M117.34,89.32c-.11-.9-.23-1.8-.36-2.7-.06-.42-.14-.83-.17-1.25,.2-.27,.4-.54,.59-.82,.38,.62,.45,1.4,.58,2.11,.16,.89,.29,1.79,.41,2.69,.12,.9,.32,3.55,.15,3.96,1.43,.41,2.95,1.12,4.38,1.56,1.28,.4,3.69,1.32,4.64-.12,.16-.25,.49-.16,.62,.05,.76,1.27,2.18,1.62,3.57,1.7,1.36,.07,2.74,.08,4.11-.02,2.32-.17,6.33-.76,7.26-3.3,.07-.2,.3-.35,.52-.32,1.09,.16,2.25-.68,3.16-1.2,1.12-.65,2.18-1.38,3.2-2.16,1.41-1.08,4.32-3,3.96-5.05-.03-.18,.11-.37,.29-.4,1.71-.23,2.82-1.99,3.46-3.48-.1-.06-.24-3.12-.07-4.66,.13-1.13,.27-2.93,1.22-3.71,.02-.02,.04-.02,.06-.03,.02,0,.05,0,.07,.01,.04,.02,.07,.05,.08,.1,.1,.58-.08,1.12-.19,1.69-.13,.73-.21,1.46-.26,2.2-.11,1.47-.29,4.72-.42,4.78-.15,1.81-1.72,3.08-3.42,3.65,.7,2.16-2.35,4.37-3.76,5.51-1.23,.99-2.55,1.87-3.93,2.65-.94,.53-2.15,1.37-3.27,1.16-1.61,2.66-5.27,3.4-8.18,3.58-2.4,.15-6.48,.55-7.87-1.88-.89,.87-2.35,.78-3.53,.5-2.01-.47-6-2.26-6.06-2.3-.57-.38-.46-.98-.52-1.62-.09-.97-.19-1.94-.31-2.9Z"/><path class="h" d="M117.38,92.63s.02,.01,0,.02-.02-.01,0-.02Z"/><path class="f" d="M141.14,77.75c.89,.84,1.95,1.54,2.87,2.36,.85,.76,1.69,1.53,2.53,2.3,1.65,1.5,3.38,2.87,4.71,4.66,.14,.19-.04,.51-.29,.41-2.15-.87-3.81-2.37-5.45-3.95-.83-.8-1.61-1.62-2.35-2.5-.84-1-1.41-2.11-2.16-3.17-.07-.1,.06-.19,.14-.12Z"/><path class="f" d="M138.23,88.29c-.51-1.42-.97-2.86-1.4-4.3-.41-1.35-.81-2.71-1.18-4.08-.4-1.44-.63-2.91-1.05-4.34-.02-.08,.12-.13,.15-.04,.5,1.41,1.2,2.74,1.76,4.13,.56,1.39,1.13,2.78,1.69,4.16,.57,1.39,1.13,2.78,1.66,4.19,.47,1.25,.96,2.48,.98,3.83,0,.38-.53,.47-.75,.23-.94-1.07-1.39-2.45-1.87-3.77Z"/><path class="f" d="M123.33,92.52c.45-2.15,1.83-4.17,2.9-6.06,1.24-2.18,2.5-4.38,3.49-6.68,.05-.11,.21-.05,.17,.06-.79,2.36-1.51,4.73-2.46,7.03-.84,2.04-1.86,4.46-3.57,5.93-.2,.18-.59,0-.54-.28Z"/><path class="c" d="M131.91,73.85c.02-.09,.16-.08,.19,0,.87,2.22,.95,4.82,.57,7.16-.04,.27-.39,.26-.46,.01-.66-2.26-.89-4.84-.3-7.16Z"/><path class="c" d="M132.08,83.27c.06-.16,.3-.13,.32,.03,.17,1.02,.56,2.37,.11,3.36-.09,.19-.4,.3-.54,.09-.66-1.01-.27-2.44,.11-3.49Z"/><path class="c" d="M140.03,74.43c2.01,.75,4.11,1.91,5.84,3.16,.27,.2,.11,.67-.24,.63-2.22-.29-4.57-1.57-5.92-3.34-.17-.22,.05-.55,.32-.44Z"/><path class="c" d="M149.99,80.13c.59,0,1.21,.4,1.7,.68,.54,.32,1.05,.74,1.49,1.18,.2,.2-.07,.46-.29,.41-.64-.16-1.3-.4-1.87-.71-.5-.28-1.08-.58-1.38-1.08-.14-.24,.12-.47,.34-.47Z"/><path class="d" d="M139.51,64.25c.68,.22,1.35,.47,2,.74,1.66,.86,3.35,1.69,5.05,2.48,.33,.17,.66,.34,.99,.51,1.26,.64,2.53,1.28,3.78,1.93,1.16,.61,2.49,1.19,3.36,2.19,.07,.08,0,.19-.1,.19-1.32-.02-2.62-.66-3.81-1.18-1.39-.61-2.76-1.26-4.12-1.93-2.58-1.27-5.25-2.51-7.48-4.33-.31-.25-.06-.74,.33-.61Z"/><path class="d" d="M141.34,68.81c1.87,.48,3.64,1.36,5.4,2.13,1.78,.79,3.53,1.62,5.28,2.49,.18,.09,.15,.43-.09,.38-3.71-.82-7.87-2.1-10.85-4.51-.26-.21-.04-.57,.27-.49Z"/><path class="d" d="M136.2,69.81c4.16,.96,8,3.09,11.89,4.76,.54,.23,.22,1.08-.33,.85-3.95-1.62-8.19-2.88-11.79-5.2-.25-.16-.02-.48,.23-.42Z"/><path class="k" d="M118.31,93.67l.71-1.42c1.63,.33,3.57-.49,5-1.55,3.15-2.33,5.53-5.67,6.69-9.38,.27-.87,.57-1.87,1.39-2.28,.96-.48,2.11,.13,2.83,.91,1.53,1.65,2.05,4.04,3.59,5.68,1.83,1.94,5.05,2.43,7.42,1.12,1.03-.57,1.87-1.42,2.7-2.25l5.51-5.56c.07-.07,.14-.14,.21-.22l3.32,1.87s-10.4,24.98-39.38,13.09Z"/></g><g><path class="j" d="M72.12,48.81c-.63-3.25-1.13-6.44-1.27-9.76-.16-3.5-.33-6.96-.65-10.44-.15-1.6-.15-3.24-.46-4.78l6.04,6.76,2.83,28.32-6.07-6.56c-.02-1.16-.18-2.34-.41-3.54Z"/><path class="l" d="M75.31,45.77c-.83-1.94-.8-4.45-.9-6.54-.11-2.41,.15-4.77,.27-7.18,0-.12,.19-.12,.19,0,.03,2.26,.36,4.53,.58,6.78,.11,1.1,.21,2.19,.33,3.28,.13,1.14,.38,2.31,.26,3.46-.04,.34-.55,.6-.72,.2Z"/><path class="l" d="M73.31,43.65c-1.79-3.68-.65-8.22-1.21-12.15-.02-.11,.14-.16,.17-.05,.41,1.96,.73,3.88,.9,5.89,.17,2.06,.53,4.1,.69,6.15,.02,.29-.42,.41-.54,.15Z"/><path class="l" d="M74.96,52.11c-.71-2.07-.76-4.18-.81-6.35,0-.1,.15-.12,.17-.02,.31,2.11,.83,4.18,.96,6.33,.01,.2-.26,.21-.32,.05Z"/><path class="l" d="M72.65,51.11c-.5-2.21-.52-4.47-.92-6.69-.03-.18,.23-.26,.28-.08,.63,2.25,1.23,4.36,.95,6.73-.02,.17-.27,.24-.31,.05Z"/><path class="k" d="M72.54,52.34c-.02-1.16-.18-2.34-.41-3.54-.63-3.25-1.13-6.44-1.27-9.76-.16-3.5-.33-6.96-.65-10.44-.15-1.6-.15-3.24-.46-4.78l4.71,5.27c.02,.15,.04,.3,.06,.45,.76,4.62,.14,9.34-.1,13.98-.22,4.25,0,8.8,1.64,12.6l-3.51-3.8Z"/><path class="e" d="M69.68,23.6s.06-.02,.1-.02c3.1-.72,6.3-.86,9.45-1.3,6.02-.83,12-2.01,17.81-3.86l2.29-.3,3.57,7.14-27.13,5.32-6.04-6.76c-.02-.08-.03-.15-.05-.23Z"/><path class="i" d="M76.5,46.13c-.57-3.47-.84-6.99-.79-10.52l.06-5.02,17.89-4.12c.93-.21,1.87-.38,2.82-.48l6.42-.72s6.17,26.35-24.3,33.64l-2.1-12.78Z"/><path class="c" d="M90.59,42.32c-1.25-.95-2.51-1.9-3.75-2.86-1.29-1-2.56-1.97-3.89-2.92-.53-.38-1.09-.75-1.57-1.19-.63-.57-1.07-1.3-1.71-1.88-.1-.09,.03-.26,.14-.19,.7,.43,1.45,.59,2.19,.92,.72,.32,1.39,.77,2.07,1.16,1.45,.82,2.97,1.46,4.46,2.2,1.41,.7,2.81,1.45,4.11,2.35,1.33,.93,2.8,1.89,3.75,3.22,.91,1.27-.88,2.89-2.12,2.14-1.32-.8-2.46-2.01-3.69-2.95Z"/><path class="c" d="M85.7,32.86c-.19-.06-.12-.33,.08-.31,.62,.09,1.26-.24,1.89-.26,.63-.02,1.3,.07,1.94,.12,1.24,.09,2.47,.24,3.7,.36,1.24,.12,2.48,.23,3.72,.34,1.24,.11,2.71,.02,3.8,.69,1.01,.63,.7,1.96-.32,2.37-1.18,.48-2.64,.09-3.86-.08-1.24-.17-2.46-.38-3.69-.63-1.22-.25-2.44-.51-3.63-.88-.62-.19-1.27-.38-1.87-.65-.6-.27-1.15-.89-1.76-1.09Z"/><path class="c" d="M80.74,55.51c-.14-.53-.07-1.05-.12-1.6-.05-.65-.14-1.31-.22-1.96-.17-1.38-.37-2.75-.55-4.13-.33-2.46-1.01-5.11-.51-7.58,.03-.15,.25-.22,.35-.1,1.71,2.14,2.25,5.27,2.82,7.92,.31,1.41,.59,2.83,.85,4.25,.26,1.43,.73,3.04-.71,3.98-.72,.47-1.72,0-1.92-.79Z"/><path class="g" d="M103.53,25.29s4.13,5.42-3.36,19.7c-7.49,14.29-21.59,14.13-21.59,14.13l4.53-1.09,3.5-2.06,.65-1.41,1.87,.41,5.71-3.45,4.06-5.32-.33-2.25,1.72-1.18,1.28-3.63,1.72-7.59-.8-1.11,.77-2.63,.25-2.53Z"/><path class="h" d="M75.27,55.95c-.61-.67-1.24-1.32-1.87-1.98-.29-.3-.61-.59-.87-.91,.01-.34,0-.67,0-1.01,.67,.28,1.19,.88,1.7,1.37,.65,.63,1.28,1.28,1.9,1.95,.62,.66,2.34,2.69,2.44,3.13,1.4-.51,3.05-.82,4.47-1.29,1.27-.42,3.76-1.08,3.69-2.81-.01-.3,.3-.42,.53-.32,1.36,.59,2.71,.04,3.89-.71,1.15-.74,2.27-1.54,3.32-2.42,1.78-1.5,4.69-4.32,3.97-6.92-.06-.2,.04-.46,.23-.56,.98-.51,1.43-1.87,1.86-2.82,.53-1.18,.97-2.39,1.34-3.63,.51-1.7,1.75-4.96,.26-6.41-.13-.13-.13-.37,0-.5,1.25-1.18,1.13-3.26,.77-4.84-.12,0-2.02-2.39-2.78-3.74-.56-.99-1.5-2.54-1.17-3.72,0-.02,.02-.04,.03-.06,.02-.01,.04-.02,.06-.03,.04,0,.09,0,.12,.03,.42,.41,.59,.96,.84,1.49,.32,.67,.69,1.31,1.07,1.94,.77,1.26,2.53,3.99,2.45,4.13,.94,1.55,.41,3.5-.64,4.96,1.83,1.35,.65,4.92,.17,6.67-.42,1.52-.98,3.01-1.64,4.45-.45,.98-.94,2.37-1.98,2.86,.25,3.1-2.29,5.84-4.54,7.69-1.86,1.53-4.93,4.23-7.48,3.08-.21,1.23-1.45,2-2.57,2.47-1.9,.79-6.19,1.67-6.26,1.68-.68,.03-.95-.53-1.37-1.01-.64-.73-1.29-1.46-1.94-2.17Z"/><path class="h" d="M77.23,58.61s.02,0,.02,.01-.02,0-.02-.01Z"/><path class="f" d="M87.82,32.64c1.22,.16,2.48,.11,3.71,.24,1.13,.12,2.26,.26,3.4,.39,2.21,.25,4.42,.35,6.54,1.03,.23,.07,.26,.43,0,.5-2.25,.55-4.48,.3-6.74-.02-1.14-.16-2.25-.37-3.36-.65-1.26-.33-2.38-.89-3.6-1.31-.11-.04-.07-.19,.05-.17Z"/><path class="f" d="M91.62,42.89c-1.25-.85-2.45-1.76-3.65-2.67-1.12-.86-2.24-1.73-3.34-2.62-1.16-.94-2.21-2-3.39-2.91-.07-.05,.02-.17,.09-.12,1.23,.85,2.57,1.52,3.84,2.32,1.27,.8,2.54,1.59,3.81,2.39,1.27,.8,2.55,1.59,3.8,2.42,1.11,.74,2.23,1.45,3.04,2.54,.23,.31-.15,.69-.47,.62-1.39-.31-2.56-1.18-3.72-1.96Z"/><path class="f" d="M82,55.04c-.89-2-.96-4.45-1.19-6.62-.27-2.5-.54-5.02-1.07-7.46-.02-.11,.14-.16,.17-.05,.74,2.38,1.54,4.72,2.12,7.14,.51,2.14,1.1,4.71,.57,6.9-.06,.26-.48,.35-.6,.09Z"/><path class="c" d="M78.05,34.88c-.03-.08,.08-.16,.15-.12,2,1.29,3.59,3.35,4.65,5.47,.12,.24-.16,.43-.36,.28-1.86-1.45-3.55-3.41-4.43-5.63Z"/><path class="c" d="M83.69,42.42c-.05-.16,.16-.28,.28-.16,.73,.72,1.84,1.59,2.05,2.66,.04,.21-.15,.48-.38,.39-1.13-.43-1.64-1.82-1.95-2.89Z"/><path class="c" d="M84.97,30.6c2.07-.57,4.45-.85,6.59-.85,.34,0,.48,.48,.17,.65-1.97,1.07-4.63,1.4-6.76,.75-.26-.08-.28-.47,0-.55Z"/><path class="c" d="M96.38,29.4c.48-.35,1.21-.39,1.78-.44,.62-.06,1.28-.01,1.9,.08,.28,.04,.21,.42,0,.5-.61,.25-1.28,.43-1.94,.52-.57,.07-1.21,.16-1.75-.07-.26-.11-.18-.45,0-.58Z"/><path class="d" d="M78.6,22.64c.68-.22,1.37-.41,2.06-.57,1.85-.27,3.7-.58,5.55-.94,.37-.05,.73-.11,1.1-.17,1.4-.22,2.8-.44,4.2-.64,1.3-.19,2.72-.49,4.01-.19,.11,.03,.11,.16,.03,.22-1.08,.76-2.51,1-3.78,1.27-1.48,.32-2.97,.59-4.47,.84-2.84,.48-5.73,1.03-8.61,.86-.39-.02-.48-.56-.09-.69Z"/><path class="d" d="M82.75,25.27c1.8-.7,3.74-1.03,5.63-1.42,1.91-.4,3.82-.75,5.74-1.07,.2-.03,.37,.26,.15,.36-3.49,1.51-7.61,2.89-11.44,2.69-.33-.02-.37-.44-.07-.56Z"/><path class="d" d="M79.17,29.09c3.94-1.65,8.29-2.17,12.43-3.09,.57-.13,.81,.75,.23,.88-4.15,.99-8.33,2.45-12.6,2.68-.3,.02-.3-.38-.06-.47Z"/><path class="k" d="M78.6,58.91l-.26-1.56c1.52-.68,2.61-2.49,3.15-4.18,1.19-3.73,1.17-7.84-.06-11.53-.29-.87-.64-1.85-.2-2.66,.5-.95,1.79-1.13,2.83-.92,2.21,.45,4.03,2.08,6.24,2.51,2.62,.5,5.52-.98,6.68-3.43,.5-1.07,.69-2.25,.88-3.41l1.22-7.73c.02-.1,.03-.2,.05-.3l3.79-.43s6.17,26.35-24.3,33.64Z"/></g><g><path class="j" d="M83.44,31.68c-.63-3.25-1.13-6.44-1.27-9.76-.16-3.5-.33-6.96-.65-10.44-.15-1.6-.15-3.24-.46-4.78l6.04,6.76,2.83,28.32-6.07-6.56c-.02-1.16-.18-2.34-.41-3.54Z"/><path class="l" d="M86.63,28.65c-.83-1.94-.8-4.45-.9-6.54-.11-2.41,.15-4.77,.27-7.18,0-.12,.19-.12,.19,0,.03,2.26,.36,4.53,.58,6.78,.11,1.1,.21,2.19,.33,3.28,.13,1.14,.38,2.31,.26,3.46-.04,.34-.55,.6-.72,.2Z"/><path class="l" d="M84.63,26.53c-1.79-3.68-.65-8.22-1.21-12.15-.02-.11,.14-.16,.17-.05,.41,1.96,.73,3.88,.9,5.89,.17,2.06,.53,4.1,.69,6.15,.02,.29-.42,.41-.54,.15Z"/><path class="l" d="M86.28,34.98c-.71-2.07-.76-4.18-.81-6.35,0-.1,.15-.12,.17-.02,.31,2.11,.83,4.18,.96,6.33,.01,.2-.26,.21-.32,.05Z"/><path class="l" d="M83.97,33.99c-.5-2.21-.52-4.47-.92-6.69-.03-.18,.23-.26,.28-.08,.63,2.25,1.23,4.36,.95,6.73-.02,.17-.27,.24-.31,.05Z"/><path class="k" d="M83.85,35.22c-.02-1.16-.18-2.34-.41-3.54-.63-3.25-1.13-6.44-1.27-9.76-.16-3.5-.33-6.96-.65-10.44-.15-1.6-.15-3.24-.46-4.78l4.71,5.27c.02,.15,.04,.3,.06,.45,.76,4.62,.14,9.34-.1,13.98-.22,4.25,0,8.8,1.64,12.6l-3.51-3.8Z"/><path class="e" d="M81,6.48s.06-.02,.1-.02c3.1-.72,6.3-.86,9.45-1.3,6.02-.83,12-2.01,17.81-3.86l2.29-.3,3.57,7.14-27.13,5.32-6.04-6.76c-.02-.08-.03-.15-.05-.23Z"/><path class="i" d="M87.82,29c-.57-3.47-.84-6.99-.79-10.52l.06-5.02,17.89-4.12c.93-.21,1.87-.38,2.82-.48l6.42-.72s6.17,26.35-24.3,33.64l-2.1-12.78Z"/><path class="c" d="M101.91,25.19c-1.25-.95-2.51-1.9-3.75-2.86-1.29-1-2.56-1.97-3.89-2.92-.53-.38-1.09-.75-1.57-1.19-.63-.57-1.07-1.3-1.71-1.88-.1-.09,.03-.26,.14-.19,.7,.43,1.45,.59,2.19,.92,.72,.32,1.39,.77,2.07,1.16,1.45,.82,2.97,1.46,4.46,2.2,1.41,.7,2.81,1.45,4.11,2.35,1.33,.93,2.8,1.89,3.75,3.22,.91,1.27-.88,2.89-2.12,2.14-1.32-.8-2.46-2.01-3.69-2.95Z"/><path class="c" d="M97.02,15.73c-.19-.06-.12-.33,.08-.31,.62,.09,1.26-.24,1.89-.26,.63-.02,1.3,.07,1.94,.12,1.24,.09,2.47,.24,3.7,.36,1.24,.12,2.48,.23,3.72,.34,1.24,.11,2.71,.02,3.8,.69,1.01,.63,.7,1.96-.32,2.37-1.18,.48-2.64,.09-3.86-.08-1.24-.17-2.46-.38-3.69-.63-1.22-.25-2.44-.51-3.63-.88-.62-.19-1.27-.38-1.87-.65-.6-.27-1.15-.89-1.76-1.09Z"/><path class="c" d="M92.06,38.38c-.14-.53-.07-1.05-.12-1.6-.05-.65-.14-1.31-.22-1.96-.17-1.38-.37-2.75-.55-4.13-.33-2.46-1.01-5.11-.51-7.58,.03-.15,.25-.22,.35-.1,1.71,2.14,2.25,5.27,2.82,7.92,.31,1.41,.59,2.83,.85,4.25,.26,1.43,.73,3.04-.71,3.98-.72,.47-1.72,0-1.92-.79Z"/><path class="g" d="M114.85,8.17s4.13,5.42-3.36,19.7c-7.49,14.29-21.59,14.13-21.59,14.13l4.53-1.09,3.5-2.06,.65-1.41,1.87,.41,5.71-3.45,4.06-5.32-.33-2.25,1.72-1.18,1.28-3.63,1.72-7.59-.8-1.11,.77-2.63,.25-2.53Z"/><path class="h" d="M86.59,38.82c-.61-.67-1.24-1.32-1.87-1.98-.29-.3-.61-.59-.87-.91,.01-.34,0-.67,0-1.01,.67,.28,1.19,.88,1.7,1.37,.65,.63,1.28,1.28,1.9,1.95,.62,.66,2.34,2.69,2.44,3.13,1.4-.51,3.05-.82,4.47-1.29,1.27-.42,3.76-1.08,3.69-2.81-.01-.3,.3-.42,.53-.32,1.36,.59,2.71,.04,3.89-.71,1.15-.74,2.27-1.54,3.32-2.42,1.78-1.5,4.69-4.32,3.97-6.92-.06-.2,.04-.46,.23-.56,.98-.51,1.43-1.87,1.86-2.82,.53-1.18,.97-2.39,1.34-3.63,.51-1.7,1.75-4.96,.26-6.41-.13-.13-.13-.37,0-.5,1.25-1.18,1.13-3.26,.77-4.84-.12,0-2.02-2.39-2.78-3.74-.56-.99-1.5-2.54-1.17-3.72,0-.02,.02-.04,.03-.06,.02-.01,.04-.02,.06-.03,.04,0,.09,0,.12,.03,.42,.41,.59,.96,.84,1.49,.32,.67,.69,1.31,1.07,1.94,.77,1.26,2.53,3.99,2.45,4.13,.94,1.55,.41,3.5-.64,4.96,1.83,1.35,.65,4.92,.17,6.67-.42,1.52-.98,3.01-1.64,4.45-.45,.98-.94,2.37-1.98,2.86,.25,3.1-2.29,5.84-4.54,7.69-1.86,1.53-4.93,4.23-7.48,3.08-.21,1.23-1.45,2-2.57,2.47-1.9,.79-6.19,1.67-6.26,1.68-.68,.03-.95-.53-1.37-1.01-.64-.73-1.29-1.46-1.94-2.17Z"/><path class="h" d="M88.55,41.48s.02,0,.02,.01-.02,0-.02-.01Z"/><path class="f" d="M99.13,15.51c1.22,.16,2.48,.11,3.71,.24,1.13,.12,2.26,.26,3.4,.39,2.21,.25,4.42,.35,6.54,1.03,.23,.07,.26,.43,0,.5-2.25,.55-4.48,.3-6.74-.02-1.14-.16-2.25-.37-3.36-.65-1.26-.33-2.38-.89-3.6-1.31-.11-.04-.07-.19,.05-.17Z"/><path class="f" d="M102.93,25.77c-1.25-.85-2.45-1.76-3.65-2.67-1.12-.86-2.24-1.73-3.34-2.62-1.16-.94-2.21-2-3.39-2.91-.07-.05,.02-.17,.09-.12,1.23,.85,2.57,1.52,3.84,2.32,1.27,.8,2.54,1.59,3.81,2.39,1.27,.8,2.55,1.59,3.8,2.42,1.11,.74,2.23,1.45,3.04,2.54,.23,.31-.15,.69-.47,.62-1.39-.31-2.56-1.18-3.72-1.96Z"/><path class="f" d="M93.32,37.91c-.89-2-.96-4.45-1.19-6.62-.27-2.5-.54-5.02-1.07-7.46-.02-.11,.14-.16,.17-.05,.74,2.38,1.54,4.72,2.12,7.14,.51,2.14,1.1,4.71,.57,6.9-.06,.26-.48,.35-.6,.09Z"/><path class="c" d="M89.37,17.75c-.03-.08,.08-.16,.15-.12,2,1.29,3.59,3.35,4.65,5.47,.12,.24-.16,.43-.36,.28-1.86-1.45-3.55-3.41-4.43-5.63Z"/><path class="c" d="M95.01,25.29c-.05-.16,.16-.28,.28-.16,.73,.72,1.84,1.59,2.05,2.66,.04,.21-.15,.48-.38,.39-1.13-.43-1.64-1.82-1.95-2.89Z"/><path class="c" d="M96.29,13.47c2.07-.57,4.45-.85,6.59-.85,.34,0,.48,.48,.17,.65-1.97,1.07-4.63,1.4-6.76,.75-.26-.08-.28-.47,0-.55Z"/><path class="c" d="M107.7,12.27c.48-.35,1.21-.39,1.78-.44,.62-.06,1.28-.01,1.9,.08,.28,.04,.21,.42,0,.5-.61,.25-1.28,.43-1.94,.52-.57,.07-1.21,.16-1.75-.07-.26-.11-.18-.45,0-.58Z"/><path class="d" d="M89.92,5.52c.68-.22,1.37-.41,2.06-.57,1.85-.27,3.7-.58,5.55-.94,.37-.05,.73-.11,1.1-.17,1.4-.22,2.8-.44,4.2-.64,1.3-.19,2.72-.49,4.01-.19,.11,.03,.11,.16,.03,.22-1.08,.76-2.51,1-3.78,1.27-1.48,.32-2.97,.59-4.47,.84-2.84,.48-5.73,1.03-8.61,.86-.39-.02-.48-.56-.09-.69Z"/><path class="d" d="M94.07,8.15c1.8-.7,3.74-1.03,5.63-1.42,1.91-.4,3.82-.75,5.74-1.07,.2-.03,.37,.26,.15,.36-3.49,1.51-7.61,2.89-11.44,2.69-.33-.02-.37-.44-.07-.56Z"/><path class="d" d="M90.48,11.96c3.94-1.65,8.29-2.17,12.43-3.09,.57-.13,.81,.75,.23,.88-4.15,.99-8.33,2.45-12.6,2.68-.3,.02-.3-.38-.06-.47Z"/><path class="k" d="M89.92,41.78l-.26-1.56c1.52-.68,2.61-2.49,3.15-4.18,1.19-3.73,1.17-7.84-.06-11.53-.29-.87-.64-1.85-.2-2.66,.5-.95,1.79-1.13,2.83-.92,2.21,.45,4.03,2.08,6.24,2.51,2.62,.5,5.52-.98,6.68-3.43,.5-1.07,.69-2.25,.88-3.41l1.22-7.73c.02-.1,.03-.2,.05-.3l3.79-.43s6.17,26.35-24.3,33.64Z"/></g><g><path class="j" d="M90.38,54.19c-.63-3.25-1.13-6.44-1.27-9.76-.16-3.5-.33-6.96-.65-10.44-.15-1.6-.15-3.24-.46-4.78l6.04,6.76,2.83,28.32-6.07-6.56c-.02-1.16-.18-2.34-.41-3.54Z"/><path class="l" d="M93.57,51.15c-.83-1.94-.8-4.45-.9-6.54-.11-2.41,.15-4.77,.27-7.18,0-.12,.19-.12,.19,0,.03,2.26,.36,4.53,.58,6.78,.11,1.1,.21,2.19,.33,3.28,.13,1.14,.38,2.31,.26,3.46-.04,.34-.55,.6-.72,.2Z"/><path class="l" d="M91.56,49.03c-1.79-3.68-.65-8.22-1.21-12.15-.02-.11,.14-.16,.17-.05,.41,1.96,.73,3.88,.9,5.89,.17,2.06,.53,4.1,.69,6.15,.02,.29-.42,.41-.54,.15Z"/><path class="l" d="M93.22,57.49c-.71-2.07-.76-4.18-.81-6.35,0-.1,.15-.12,.17-.02,.31,2.11,.83,4.18,.96,6.33,.01,.2-.26,.21-.32,.05Z"/><path class="l" d="M90.9,56.49c-.5-2.21-.52-4.47-.92-6.69-.03-.18,.23-.26,.28-.08,.63,2.25,1.23,4.36,.95,6.73-.02,.17-.27,.24-.31,.05Z"/><path class="k" d="M90.79,57.72c-.02-1.16-.18-2.34-.41-3.54-.63-3.25-1.13-6.44-1.27-9.76-.16-3.5-.33-6.96-.65-10.44-.15-1.6-.15-3.24-.46-4.78l4.71,5.27c.02,.15,.04,.3,.06,.45,.76,4.62,.14,9.34-.1,13.98-.22,4.25,0,8.8,1.64,12.6l-3.51-3.8Z"/><path class="e" d="M87.94,28.98s.06-.02,.1-.02c3.1-.72,6.3-.86,9.45-1.3,6.02-.83,12-2.01,17.81-3.86l2.29-.3,3.57,7.14-27.13,5.32-6.04-6.76c-.02-.08-.03-.15-.05-.23Z"/><path class="i" d="M94.76,51.51c-.57-3.47-.84-6.99-.79-10.52l.06-5.02,17.89-4.12c.93-.21,1.87-.38,2.82-.48l6.42-.72s6.17,26.35-24.3,33.64l-2.1-12.78Z"/><path class="c" d="M108.85,47.7c-1.25-.95-2.51-1.9-3.75-2.86-1.29-1-2.56-1.97-3.89-2.92-.53-.38-1.09-.75-1.57-1.19-.63-.57-1.07-1.3-1.71-1.88-.1-.09,.03-.26,.14-.19,.7,.43,1.45,.59,2.19,.92,.72,.32,1.39,.77,2.07,1.16,1.45,.82,2.97,1.46,4.46,2.2,1.41,.7,2.81,1.45,4.11,2.35,1.33,.93,2.8,1.89,3.75,3.22,.91,1.27-.88,2.89-2.12,2.14-1.32-.8-2.46-2.01-3.69-2.95Z"/><path class="c" d="M103.95,38.23c-.19-.06-.12-.33,.08-.31,.62,.09,1.26-.24,1.89-.26,.63-.02,1.3,.07,1.94,.12,1.24,.09,2.47,.24,3.7,.36,1.24,.12,2.48,.23,3.72,.34,1.24,.11,2.71,.02,3.8,.69,1.01,.63,.7,1.96-.32,2.37-1.18,.48-2.64,.09-3.86-.08-1.24-.17-2.46-.38-3.69-.63-1.22-.25-2.44-.51-3.63-.88-.62-.19-1.27-.38-1.87-.65-.6-.27-1.15-.89-1.76-1.09Z"/><path class="c" d="M98.99,60.88c-.14-.53-.07-1.05-.12-1.6-.05-.65-.14-1.31-.22-1.96-.17-1.38-.37-2.75-.55-4.13-.33-2.46-1.01-5.11-.51-7.58,.03-.15,.25-.22,.35-.1,1.71,2.14,2.25,5.27,2.82,7.92,.31,1.41,.59,2.83,.85,4.25,.26,1.43,.73,3.04-.71,3.98-.72,.47-1.72,0-1.92-.79Z"/><path class="g" d="M121.78,30.67s4.13,5.42-3.36,19.7c-7.49,14.29-21.59,14.13-21.59,14.13l4.53-1.09,3.5-2.06,.65-1.41,1.87,.41,5.71-3.45,4.06-5.32-.33-2.25,1.72-1.18,1.28-3.63,1.72-7.59-.8-1.11,.77-2.63,.25-2.53Z"/><path class="h" d="M93.53,61.32c-.61-.67-1.24-1.32-1.87-1.98-.29-.3-.61-.59-.87-.91,.01-.34,0-.67,0-1.01,.67,.28,1.19,.88,1.7,1.37,.65,.63,1.28,1.28,1.9,1.95,.62,.66,2.34,2.69,2.44,3.13,1.4-.51,3.05-.82,4.47-1.29,1.27-.42,3.76-1.08,3.69-2.81-.01-.3,.3-.42,.53-.32,1.36,.59,2.71,.04,3.89-.71,1.15-.74,2.27-1.54,3.32-2.42,1.78-1.5,4.69-4.32,3.97-6.92-.06-.2,.04-.46,.23-.56,.98-.51,1.43-1.87,1.86-2.82,.53-1.18,.97-2.39,1.34-3.63,.51-1.7,1.75-4.96,.26-6.41-.13-.13-.13-.37,0-.5,1.25-1.18,1.13-3.26,.77-4.84-.12,0-2.02-2.39-2.78-3.74-.56-.99-1.5-2.54-1.17-3.72,0-.02,.02-.04,.03-.06,.02-.01,.04-.02,.06-.03,.04,0,.09,0,.12,.03,.42,.41,.59,.96,.84,1.49,.32,.67,.69,1.31,1.07,1.94,.77,1.26,2.53,3.99,2.45,4.13,.94,1.55,.41,3.5-.64,4.96,1.83,1.35,.65,4.92,.17,6.67-.42,1.52-.98,3.01-1.64,4.45-.45,.98-.94,2.37-1.98,2.86,.25,3.1-2.29,5.84-4.54,7.69-1.86,1.53-4.93,4.23-7.48,3.08-.21,1.23-1.45,2-2.57,2.47-1.9,.79-6.19,1.67-6.26,1.68-.68,.03-.95-.53-1.37-1.01-.64-.73-1.29-1.46-1.94-2.17Z"/><path class="h" d="M95.49,63.98s.02,0,.02,.01-.02,0-.02-.01Z"/><path class="f" d="M106.07,38.02c1.22,.16,2.48,.11,3.71,.24,1.13,.12,2.26,.26,3.4,.39,2.21,.25,4.42,.35,6.54,1.03,.23,.07,.26,.43,0,.5-2.25,.55-4.48,.3-6.74-.02-1.14-.16-2.25-.37-3.36-.65-1.26-.33-2.38-.89-3.6-1.31-.11-.04-.07-.19,.05-.17Z"/><path class="f" d="M109.87,48.27c-1.25-.85-2.45-1.76-3.65-2.67-1.12-.86-2.24-1.73-3.34-2.62-1.16-.94-2.21-2-3.39-2.91-.07-.05,.02-.17,.09-.12,1.23,.85,2.57,1.52,3.84,2.32,1.27,.8,2.54,1.59,3.81,2.39,1.27,.8,2.55,1.59,3.8,2.42,1.11,.74,2.23,1.45,3.04,2.54,.23,.31-.15,.69-.47,.62-1.39-.31-2.56-1.18-3.72-1.96Z"/><path class="f" d="M100.25,60.42c-.89-2-.96-4.45-1.19-6.62-.27-2.5-.54-5.02-1.07-7.46-.02-.11,.14-.16,.17-.05,.74,2.38,1.54,4.72,2.12,7.14,.51,2.14,1.1,4.71,.57,6.9-.06,.26-.48,.35-.6,.09Z"/><path class="c" d="M96.3,40.26c-.03-.08,.08-.16,.15-.12,2,1.29,3.59,3.35,4.65,5.47,.12,.24-.16,.43-.36,.28-1.86-1.45-3.55-3.41-4.43-5.63Z"/><path class="c" d="M101.95,47.8c-.05-.16,.16-.28,.28-.16,.73,.72,1.84,1.59,2.05,2.66,.04,.21-.15,.48-.38,.39-1.13-.43-1.64-1.82-1.95-2.89Z"/><path class="c" d="M103.22,35.97c2.07-.57,4.45-.85,6.59-.85,.34,0,.48,.48,.17,.65-1.97,1.07-4.63,1.4-6.76,.75-.26-.08-.28-.47,0-.55Z"/><path class="c" d="M114.64,34.77c.48-.35,1.21-.39,1.78-.44,.62-.06,1.28-.01,1.9,.08,.28,.04,.21,.42,0,.5-.61,.25-1.28,.43-1.94,.52-.57,.07-1.21,.16-1.75-.07-.26-.11-.18-.45,0-.58Z"/><path class="d" d="M96.85,28.02c.68-.22,1.37-.41,2.06-.57,1.85-.27,3.7-.58,5.55-.94,.37-.05,.73-.11,1.1-.17,1.4-.22,2.8-.44,4.2-.64,1.3-.19,2.72-.49,4.01-.19,.11,.03,.11,.16,.03,.22-1.08,.76-2.51,1-3.78,1.27-1.48,.32-2.97,.59-4.47,.84-2.84,.48-5.73,1.03-8.61,.86-.39-.02-.48-.56-.09-.69Z"/><path class="d" d="M101,30.65c1.8-.7,3.74-1.03,5.63-1.42,1.91-.4,3.82-.75,5.74-1.07,.2-.03,.37,.26,.15,.36-3.49,1.51-7.61,2.89-11.44,2.69-.33-.02-.37-.44-.07-.56Z"/><path class="d" d="M97.42,34.46c3.94-1.65,8.29-2.17,12.43-3.09,.57-.13,.81,.75,.23,.88-4.15,.99-8.33,2.45-12.6,2.68-.3,.02-.3-.38-.06-.47Z"/><path class="k" d="M96.86,64.28l-.26-1.56c1.52-.68,2.61-2.49,3.15-4.18,1.19-3.73,1.17-7.84-.06-11.53-.29-.87-.64-1.85-.2-2.66,.5-.95,1.79-1.13,2.83-.92,2.21,.45,4.03,2.08,6.24,2.51,2.62,.5,5.52-.98,6.68-3.43,.5-1.07,.69-2.25,.88-3.41l1.22-7.73c.02-.1,.03-.2,.05-.3l3.79-.43s6.17,26.35-24.3,33.64Z"/></g><g><path class="j" d="M102.97,77.63c-.63-3.25-1.13-6.44-1.27-9.76-.16-3.5-.33-6.96-.65-10.44-.15-1.6-.15-3.24-.46-4.78l6.04,6.76,2.83,28.32-6.07-6.56c-.02-1.16-.18-2.34-.41-3.54Z"/><path class="l" d="M106.16,74.6c-.83-1.94-.8-4.45-.9-6.54-.11-2.41,.15-4.77,.27-7.18,0-.12,.19-.12,.19,0,.03,2.26,.36,4.53,.58,6.78,.11,1.1,.21,2.19,.33,3.28,.13,1.14,.38,2.31,.26,3.46-.04,.34-.55,.6-.72,.2Z"/><path class="l" d="M104.16,72.48c-1.79-3.68-.65-8.22-1.21-12.15-.02-.11,.14-.16,.17-.05,.41,1.96,.73,3.88,.9,5.89,.17,2.06,.53,4.1,.69,6.15,.02,.29-.42,.41-.54,.15Z"/><path class="l" d="M105.81,80.94c-.71-2.07-.76-4.18-.81-6.35,0-.1,.15-.12,.17-.02,.31,2.11,.83,4.18,.96,6.33,.01,.2-.26,.21-.32,.05Z"/><path class="l" d="M103.5,79.94c-.5-2.21-.52-4.47-.92-6.69-.03-.18,.23-.26,.28-.08,.63,2.25,1.23,4.36,.95,6.73-.02,.17-.27,.24-.31,.05Z"/><path class="k" d="M103.38,81.17c-.02-1.16-.18-2.34-.41-3.54-.63-3.25-1.13-6.44-1.27-9.76-.16-3.5-.33-6.96-.65-10.44-.15-1.6-.15-3.24-.46-4.78l4.71,5.27c.02,.15,.04,.3,.06,.45,.76,4.62,.14,9.34-.1,13.98-.22,4.25,0,8.8,1.64,12.6l-3.51-3.8Z"/><path class="e" d="M100.53,52.43s.06-.02,.1-.02c3.1-.72,6.3-.86,9.45-1.3,6.02-.83,12-2.01,17.81-3.86l2.29-.3,3.57,7.14-27.13,5.32-6.04-6.76c-.02-.08-.03-.15-.05-.23Z"/><path class="i" d="M107.35,74.95c-.57-3.47-.84-6.99-.79-10.52l.06-5.02,17.89-4.12c.93-.21,1.87-.38,2.82-.48l6.42-.72s6.17,26.35-24.3,33.64l-2.1-12.78Z"/><path class="c" d="M121.44,71.14c-1.25-.95-2.51-1.9-3.75-2.86-1.29-1-2.56-1.97-3.89-2.92-.53-.38-1.09-.75-1.57-1.19-.63-.57-1.07-1.3-1.71-1.88-.1-.09,.03-.26,.14-.19,.7,.43,1.45,.59,2.19,.92,.72,.32,1.39,.77,2.07,1.16,1.45,.82,2.97,1.46,4.46,2.2,1.41,.7,2.81,1.45,4.11,2.35,1.33,.93,2.8,1.89,3.75,3.22,.91,1.27-.88,2.89-2.12,2.14-1.32-.8-2.46-2.01-3.69-2.95Z"/><path class="c" d="M116.55,61.68c-.19-.06-.12-.33,.08-.31,.62,.09,1.26-.24,1.89-.26,.63-.02,1.3,.07,1.94,.12,1.24,.09,2.47,.24,3.7,.36,1.24,.12,2.48,.23,3.72,.34,1.24,.11,2.71,.02,3.8,.69,1.01,.63,.7,1.96-.32,2.37-1.18,.48-2.64,.09-3.86-.08-1.24-.17-2.46-.38-3.69-.63-1.22-.25-2.44-.51-3.63-.88-.62-.19-1.27-.38-1.87-.65-.6-.27-1.15-.89-1.76-1.09Z"/><path class="c" d="M111.58,84.33c-.14-.53-.07-1.05-.12-1.6-.05-.65-.14-1.31-.22-1.96-.17-1.38-.37-2.75-.55-4.13-.33-2.46-1.01-5.11-.51-7.58,.03-.15,.25-.22,.35-.1,1.71,2.14,2.25,5.27,2.82,7.92,.31,1.41,.59,2.83,.85,4.25,.26,1.43,.73,3.04-.71,3.98-.72,.47-1.72,0-1.92-.79Z"/><path class="g" d="M134.38,54.12s4.13,5.42-3.36,19.7c-7.49,14.29-21.59,14.13-21.59,14.13l4.53-1.09,3.5-2.06,.65-1.41,1.87,.41,5.71-3.45,4.06-5.32-.33-2.25,1.72-1.18,1.28-3.63,1.72-7.59-.8-1.11,.77-2.63,.25-2.53Z"/><path class="h" d="M106.12,84.77c-.61-.67-1.24-1.32-1.87-1.98-.29-.3-.61-.59-.87-.91,.01-.34,0-.67,0-1.01,.67,.28,1.19,.88,1.7,1.37,.65,.63,1.28,1.28,1.9,1.95,.62,.66,2.34,2.69,2.44,3.13,1.4-.51,3.05-.82,4.47-1.29,1.27-.42,3.76-1.08,3.69-2.81-.01-.3,.3-.42,.53-.32,1.36,.59,2.71,.04,3.89-.71,1.15-.74,2.27-1.54,3.32-2.42,1.78-1.5,4.69-4.32,3.97-6.92-.06-.2,.04-.46,.23-.56,.98-.51,1.43-1.87,1.86-2.82,.53-1.18,.97-2.39,1.34-3.63,.51-1.7,1.75-4.96,.26-6.41-.13-.13-.13-.37,0-.5,1.25-1.18,1.13-3.26,.77-4.84-.12,0-2.02-2.39-2.78-3.74-.56-.99-1.5-2.54-1.17-3.72,0-.02,.02-.04,.03-.06,.02-.01,.04-.02,.06-.03,.04,0,.09,0,.12,.03,.42,.41,.59,.96,.84,1.49,.32,.67,.69,1.31,1.07,1.94,.77,1.26,2.53,3.99,2.45,4.13,.94,1.55,.41,3.5-.64,4.96,1.83,1.35,.65,4.92,.17,6.67-.42,1.52-.98,3.01-1.64,4.45-.45,.98-.94,2.37-1.98,2.86,.25,3.1-2.29,5.84-4.54,7.69-1.86,1.53-4.93,4.23-7.48,3.08-.21,1.23-1.45,2-2.57,2.47-1.9,.79-6.19,1.67-6.26,1.68-.68,.03-.95-.53-1.37-1.01-.64-.73-1.29-1.46-1.94-2.17Z"/><path class="h" d="M108.08,87.43s.02,0,.02,.01-.02,0-.02-.01Z"/><path class="f" d="M118.66,61.46c1.22,.16,2.48,.11,3.71,.24,1.13,.12,2.26,.26,3.4,.39,2.21,.25,4.42,.35,6.54,1.03,.23,.07,.26,.43,0,.5-2.25,.55-4.48,.3-6.74-.02-1.14-.16-2.25-.37-3.36-.65-1.26-.33-2.38-.89-3.6-1.31-.11-.04-.07-.19,.05-.17Z"/><path class="f" d="M122.46,71.72c-1.25-.85-2.45-1.76-3.65-2.67-1.12-.86-2.24-1.73-3.34-2.62-1.16-.94-2.21-2-3.39-2.91-.07-.05,.02-.17,.09-.12,1.23,.85,2.57,1.52,3.84,2.32,1.27,.8,2.54,1.59,3.81,2.39,1.27,.8,2.55,1.59,3.8,2.42,1.11,.74,2.23,1.45,3.04,2.54,.23,.31-.15,.69-.47,.62-1.39-.31-2.56-1.18-3.72-1.96Z"/><path class="f" d="M112.85,83.86c-.89-2-.96-4.45-1.19-6.62-.27-2.5-.54-5.02-1.07-7.46-.02-.11,.14-.16,.17-.05,.74,2.38,1.54,4.72,2.12,7.14,.51,2.14,1.1,4.71,.57,6.9-.06,.26-.48,.35-.6,.09Z"/><path class="c" d="M108.89,63.7c-.03-.08,.08-.16,.15-.12,2,1.29,3.59,3.35,4.65,5.47,.12,.24-.16,.43-.36,.28-1.86-1.45-3.55-3.41-4.43-5.63Z"/><path class="c" d="M114.54,71.24c-.05-.16,.16-.28,.28-.16,.73,.72,1.84,1.59,2.05,2.66,.04,.21-.15,.48-.38,.39-1.13-.43-1.64-1.82-1.95-2.89Z"/><path class="c" d="M115.82,59.42c2.07-.57,4.45-.85,6.59-.85,.34,0,.48,.48,.17,.65-1.97,1.07-4.63,1.4-6.76,.75-.26-.08-.28-.47,0-.55Z"/><path class="c" d="M127.23,58.22c.48-.35,1.21-.39,1.78-.44,.62-.06,1.28-.01,1.9,.08,.28,.04,.21,.42,0,.5-.61,.25-1.28,.43-1.94,.52-.57,.07-1.21,.16-1.75-.07-.26-.11-.18-.45,0-.58Z"/><path class="d" d="M109.44,51.47c.68-.22,1.37-.41,2.06-.57,1.85-.27,3.7-.58,5.55-.94,.37-.05,.73-.11,1.1-.17,1.4-.22,2.8-.44,4.2-.64,1.3-.19,2.72-.49,4.01-.19,.11,.03,.11,.16,.03,.22-1.08,.76-2.51,1-3.78,1.27-1.48,.32-2.97,.59-4.47,.84-2.84,.48-5.73,1.03-8.61,.86-.39-.02-.48-.56-.09-.69Z"/><path class="d" d="M113.6,54.1c1.8-.7,3.74-1.03,5.63-1.42,1.91-.4,3.82-.75,5.74-1.07,.2-.03,.37,.26,.15,.36-3.49,1.51-7.61,2.89-11.44,2.69-.33-.02-.37-.44-.07-.56Z"/><path class="d" d="M110.01,57.91c3.94-1.65,8.29-2.17,12.43-3.09,.57-.13,.81,.75,.23,.88-4.15,.99-8.33,2.45-12.6,2.68-.3,.02-.3-.38-.06-.47Z"/><path class="k" d="M109.45,87.73l-.26-1.56c1.52-.68,2.61-2.49,3.15-4.18,1.19-3.73,1.17-7.84-.06-11.53-.29-.87-.64-1.85-.2-2.66,.5-.95,1.79-1.13,2.83-.92,2.21,.45,4.03,2.08,6.24,2.51,2.62,.5,5.52-.98,6.68-3.43,.5-1.07,.69-2.25,.88-3.41l1.22-7.73c.02-.1,.03-.2,.05-.3l3.79-.43s6.17,26.35-24.3,33.64Z"/></g><g><path class="j" d="M99.17,17.43c2.51-2.16,5.02-4.18,7.83-5.96,2.96-1.88,5.87-3.75,8.73-5.76,1.32-.92,2.73-1.74,3.92-2.78l-2.86,8.6-23.16,16.54,2.68-8.53c1-.6,1.94-1.32,2.86-2.12Z"/><path class="l" d="M103.39,18.68c1.27-1.68,3.46-2.91,5.23-4.03,2.04-1.3,4.22-2.24,6.36-3.34,.11-.05,.2,.1,.1,.16-1.95,1.15-3.75,2.57-5.6,3.87-.9,.64-1.8,1.27-2.68,1.92-.92,.68-1.82,1.48-2.88,1.94-.31,.14-.8-.18-.53-.53Z"/><path class="l" d="M104.23,15.89c2.3-3.39,6.81-4.65,9.93-7.09,.08-.07,.21,.05,.12,.12-1.49,1.33-3,2.57-4.66,3.71-1.7,1.17-3.29,2.49-4.99,3.66-.24,.16-.56-.16-.4-.39Z"/><path class="l" d="M97.71,21.53c1.44-1.64,3.25-2.74,5.11-3.86,.08-.05,.18,.07,.1,.13-1.68,1.32-3.22,2.81-5.02,3.98-.16,.11-.32-.12-.2-.25Z"/><path class="l" d="M97.43,19.03c1.67-1.54,3.61-2.68,5.35-4.13,.14-.12,.34,.07,.21,.21-1.64,1.66-3.17,3.24-5.36,4.17-.15,.07-.34-.12-.19-.25Z"/><path class="k" d="M96.31,19.54c1-.6,1.94-1.32,2.86-2.12,2.51-2.16,5.02-4.18,7.83-5.96,2.96-1.88,5.87-3.75,8.73-5.76,1.32-.92,2.73-1.74,3.92-2.78l-2.23,6.71c-.12,.09-.24,.18-.36,.28-3.63,2.95-8.03,4.76-12.18,6.86-3.8,1.93-7.64,4.37-10.12,7.69l1.55-4.93Z"/><path class="e" d="M119.83,2.78s.05,.05,.07,.07c2.17,2.33,3.88,5.04,5.82,7.55,3.71,4.81,7.71,9.41,12.2,13.53l1.4,1.84-4.42,6.65-18.11-20.89,2.86-8.6c.06-.05,.12-.1,.18-.16Z"/><path class="i" d="M103.67,19.9c2.73-2.22,5.65-4.2,8.74-5.92l4.39-2.44,12.47,13.47c.65,.7,1.26,1.44,1.82,2.21l3.82,5.21s-19.79,18.45-41.27-4.35l10.04-8.18Z"/><path class="c" d="M113.98,30.23c.2-1.56,.4-3.12,.62-4.67,.23-1.61,.44-3.21,.6-4.82,.06-.65,.11-1.32,.25-1.96,.19-.83,.6-1.58,.79-2.42,.03-.13,.24-.1,.23,.03-.03,.83,.21,1.55,.29,2.36,.08,.78,.02,1.59,.03,2.37,.01,1.66,.21,3.3,.31,4.96,.1,1.57,.14,3.16,0,4.73-.14,1.62-.25,3.37-.93,4.86-.65,1.42-2.94,.67-2.91-.78,.04-1.55,.52-3.13,.72-4.67Z"/><path class="c" d="M119.76,21.27c-.04-.2,.23-.27,.3-.08,.23,.58,.83,.98,1.16,1.51,.34,.54,.58,1.17,.86,1.74,.54,1.12,1.02,2.26,1.52,3.39,.51,1.14,1.03,2.27,1.56,3.4,.52,1.13,1.34,2.36,1.29,3.64-.04,1.19-1.35,1.58-2.22,.91-1-.79-1.39-2.25-1.85-3.39-.47-1.16-.89-2.33-1.29-3.51-.39-1.18-.77-2.37-1.04-3.59-.14-.64-.3-1.29-.37-1.94-.07-.65,.2-1.44,.07-2.06Z"/><path class="c" d="M97.64,28.23c.39-.38,.88-.59,1.33-.9,.54-.37,1.06-.78,1.59-1.17,1.11-.83,2.21-1.69,3.31-2.53,1.97-1.51,3.93-3.42,6.32-4.21,.14-.05,.32,.11,.26,.26-1.01,2.55-3.46,4.57-5.47,6.39-1.07,.97-2.16,1.92-3.27,2.85-1.11,.94-2.27,2.15-3.81,1.37-.77-.39-.85-1.49-.27-2.06Z"/><path class="g" d="M135.19,32.98s-2.64,6.28-18.77,6.88c-16.12,.61-23-11.7-23-11.7l3.2,3.39,3.53,2.01,1.54-.14,.57,1.83,5.83,3.24,6.63,.88,1.79-1.4,1.88,.91,3.79-.69,7.44-2.28,.56-1.25,2.67-.64,2.32-1.04Z"/><path class="h" d="M94.54,23.71c.27-.87,.53-1.74,.79-2.61,.12-.4,.21-.82,.36-1.21,.3-.16,.59-.33,.87-.51,.09,.72-.17,1.46-.35,2.16-.22,.88-.48,1.75-.74,2.62-.27,.87-1.17,3.37-1.5,3.67,1.14,.97,2.23,2.24,3.34,3.23,1,.89,2.81,2.73,4.27,1.81,.25-.16,.51,.06,.54,.31,.17,1.47,1.31,2.37,2.55,3.02,1.21,.63,2.47,1.21,3.75,1.68,2.18,.8,6.08,1.92,7.98,0,.15-.15,.42-.19,.6-.08,.92,.6,2.33,.31,3.37,.21,1.28-.13,2.55-.35,3.81-.64,1.73-.4,5.17-.95,5.7-2.96,.05-.18,.25-.3,.43-.24,1.65,.5,3.39-.64,4.58-1.74-.07-.1,1.07-2.94,1.86-4.28,.58-.98,1.46-2.56,2.65-2.87,.02,0,.05,0,.07,0,.02,.01,.04,.03,.06,.04,.03,.03,.04,.07,.03,.12-.14,.57-.54,.99-.87,1.46-.42,.61-.79,1.25-1.15,1.9-.71,1.3-2.21,4.18-2.36,4.18-.88,1.59-2.83,2.09-4.62,1.91-.26,2.26-3.95,3.01-5.7,3.46-1.53,.4-3.1,.65-4.67,.79-1.07,.09-2.52,.36-3.46-.3-2.57,1.76-6.2,.92-8.93-.12-2.25-.86-6.13-2.18-6.39-4.96-1.17,.43-2.46-.26-3.42-1-1.63-1.26-4.53-4.54-4.57-4.6-.37-.58-.01-1.09,.2-1.69,.32-.92,.63-1.84,.92-2.77Z"/><path class="h" d="M93.21,26.73s.01,.02,0,.02-.01-.02,0-.02Z"/><path class="f" d="M121,23c.46,1.14,1.14,2.21,1.64,3.34,.46,1.04,.9,2.09,1.35,3.14,.88,2.05,1.89,4.01,2.36,6.19,.05,.24-.25,.45-.43,.25-1.6-1.68-2.49-3.73-3.33-5.86-.42-1.07-.8-2.14-1.11-3.24-.35-1.26-.41-2.51-.65-3.77-.02-.11,.13-.15,.17-.05Z"/><path class="f" d="M113.99,31.4c.12-1.5,.3-3,.5-4.5,.19-1.4,.39-2.81,.61-4.2,.23-1.48,.63-2.91,.84-4.39,.01-.09,.16-.07,.15,.02-.13,1.49-.04,2.99-.1,4.49-.06,1.5-.12,3-.18,4.49-.06,1.5-.12,3-.22,4.5-.09,1.33-.15,2.66-.69,3.89-.15,.35-.68,.21-.77-.1-.42-1.36-.26-2.81-.15-4.2Z"/><path class="f" d="M98.67,29.09c1.29-1.77,3.39-3.04,5.15-4.32,2.03-1.47,4.08-2.96,5.94-4.64,.09-.08,.21,.04,.13,.13-1.69,1.82-3.33,3.68-5.15,5.39-1.61,1.51-3.54,3.29-5.7,3.93-.26,.08-.54-.24-.37-.48Z"/><path class="c" d="M114.2,15.64c.06-.07,.18-.01,.18,.07-.13,2.38-1.13,4.78-2.44,6.75-.15,.23-.46,.07-.42-.17,.34-2.33,1.19-4.78,2.68-6.65Z"/><path class="c" d="M110.46,24.29c.12-.12,.32,0,.28,.16-.26,1-.47,2.38-1.29,3.11-.16,.14-.49,.11-.53-.14-.19-1.19,.76-2.33,1.54-3.13Z"/><path class="c" d="M121.35,19.52c1.52,1.52,2.95,3.44,4.02,5.29,.17,.29-.18,.66-.48,.47-1.91-1.18-3.51-3.32-4.01-5.49-.06-.27,.27-.48,.47-.27Z"/><path class="c" d="M128.07,28.83c.54,.24,.94,.86,1.27,1.33,.36,.51,.65,1.11,.87,1.69,.1,.27-.26,.39-.43,.25-.52-.41-1.02-.9-1.41-1.42-.35-.46-.74-.97-.81-1.55-.03-.28,.3-.38,.51-.29Z"/><path class="d" d="M125.09,10.04c.53,.48,1.03,.98,1.52,1.51,1.16,1.47,2.35,2.92,3.57,4.35,.23,.29,.46,.58,.69,.87,.89,1.1,1.77,2.21,2.65,3.32,.81,1.03,1.78,2.11,2.15,3.38,.03,.11-.09,.18-.18,.13-1.2-.57-2.12-1.68-2.98-2.65-1.01-1.13-1.99-2.29-2.95-3.46-1.83-2.22-3.74-4.46-5.02-7.04-.18-.35,.25-.7,.56-.42Z"/><path class="d" d="M124.87,14.94c1.51,1.21,2.75,2.74,4.03,4.17,1.3,1.46,2.55,2.94,3.78,4.45,.13,.16-.04,.45-.24,.31-3.04-2.28-6.29-5.17-8.02-8.59-.15-.29,.2-.54,.45-.34Z"/><path class="d" d="M119.78,13.73c3.39,2.6,6.01,6.12,8.86,9.25,.39,.43-.25,1.07-.65,.64-2.93-3.11-6.26-6.01-8.59-9.6-.16-.25,.18-.44,.38-.29Z"/><path class="k" d="M93.63,28.07l1.23-1c1.34,.98,3.45,1.03,5.19,.65,3.83-.82,7.38-2.88,9.97-5.78,.61-.68,1.29-1.47,2.21-1.5,1.07-.04,1.87,.99,2.2,2,.71,2.14,.2,4.53,.93,6.66,.87,2.53,3.6,4.3,6.29,4.09,1.17-.09,2.29-.52,3.39-.93l7.31-2.78c.09-.04,.19-.07,.29-.11l2.25,3.07s-19.79,18.45-41.27-4.35Z"/></g><g><path class="j" d="M114.54,39.75c1.32-3.04,2.71-5.95,4.46-8.77,1.85-2.97,3.66-5.93,5.36-8.98,.78-1.41,1.7-2.76,2.32-4.21l1.17,8.99-13.67,24.96-1.3-8.84c.64-.97,1.17-2.03,1.66-3.15Z"/><path class="l" d="M118.89,39.05c.41-2.07,1.85-4.12,2.95-5.91,1.27-2.06,2.82-3.85,4.28-5.77,.07-.1,.22,0,.16,.1-1.26,1.88-2.26,3.94-3.35,5.92-.53,.96-1.07,1.92-1.58,2.9-.53,1.02-1,2.12-1.74,3-.22,.26-.8,.18-.71-.24Z"/><path class="l" d="M118.43,36.17c.6-4.05,4.1-7.15,5.86-10.71,.05-.1,.21-.05,.16,.06-.77,1.85-1.59,3.62-2.59,5.36-1.03,1.79-1.88,3.68-2.91,5.47-.14,.25-.57,.1-.53-.18Z"/><path class="l" d="M115.02,44.08c.59-2.11,1.73-3.88,2.92-5.7,.05-.08,.2-.01,.15,.07-.94,1.92-1.68,3.92-2.79,5.76-.1,.17-.34,.03-.29-.14Z"/><path class="l" d="M113.68,41.95c.83-2.11,2.09-3.98,3.02-6.04,.08-.17,.34-.09,.28,.09-.75,2.21-1.45,4.29-3.01,6.09-.11,.13-.36,.04-.28-.14Z"/><path class="k" d="M112.89,42.9c.64-.97,1.17-2.03,1.66-3.15,1.32-3.04,2.71-5.95,4.46-8.77,1.85-2.97,3.66-5.93,5.36-8.98,.78-1.41,1.7-2.76,2.32-4.21l.91,7.01c-.07,.13-.14,.27-.2,.41-1.98,4.24-5.16,7.78-7.99,11.48-2.58,3.39-4.98,7.26-5.77,11.33l-.75-5.12Z"/><path class="e" d="M126.78,17.58s.06,.02,.09,.03c2.97,1.16,5.69,2.85,8.53,4.27,5.43,2.72,11.04,5.12,16.87,6.87l2.06,1.05-1.09,7.91-25.39-10.94-1.17-8.99c.03-.07,.06-.15,.09-.22Z"/><path class="i" d="M119.67,40.02c1.49-3.19,3.26-6.24,5.29-9.13l2.89-4.11,17.09,6.71c.89,.35,1.76,.75,2.6,1.2l5.71,3.03s-9.8,25.22-39.06,14.03l5.49-11.73Z"/><path class="c" d="M133.45,44.83c-.5-1.49-1-2.98-1.48-4.48-.5-1.55-1-3.08-1.56-4.6-.23-.61-.48-1.23-.63-1.87-.19-.83-.14-1.68-.34-2.52-.03-.13,.17-.19,.22-.07,.34,.75,.86,1.31,1.29,2,.41,.67,.71,1.42,1.06,2.13,.74,1.49,1.62,2.88,2.44,4.33,.77,1.38,1.5,2.78,2.06,4.26,.57,1.52,1.24,3.14,1.28,4.78,.04,1.56-2.36,1.88-2.95,.57-.64-1.41-.89-3.05-1.38-4.52Z"/><path class="c" d="M134.76,34.26c-.12-.16,.09-.34,.24-.21,.46,.42,1.18,.52,1.7,.85,.54,.34,1.03,.8,1.53,1.19,.97,.77,1.9,1.59,2.85,2.39,.95,.8,1.92,1.59,2.88,2.38,.96,.79,2.23,1.55,2.74,2.72,.48,1.09-.53,2.01-1.6,1.78-1.25-.27-2.23-1.42-3.14-2.25-.93-.84-1.82-1.71-2.69-2.6-.87-.9-1.73-1.8-2.5-2.78-.4-.51-.84-1.03-1.18-1.59-.35-.56-.45-1.38-.84-1.89Z"/><path class="c" d="M117.87,50.15c.19-.52,.54-.91,.81-1.39,.33-.57,.62-1.16,.92-1.74,.64-1.23,1.25-2.48,1.88-3.72,1.11-2.22,2.05-4.79,3.86-6.54,.11-.1,.33-.04,.34,.12,.2,2.74-1.12,5.62-2.15,8.13-.54,1.34-1.11,2.67-1.7,3.99-.59,1.33-1.11,2.92-2.83,2.89-.86-.02-1.42-.97-1.14-1.74Z"/><path class="g" d="M153.74,38.1s.35,6.8-13.91,14.36c-14.25,7.56-25.8-.54-25.8-.54l4.36,1.66,4.06,.28,1.33-.8,1.31,1.4,6.66,.38,6.36-2.09,1-2.04h2.09l3.11-2.27,5.71-5.29-.04-1.37,2.13-1.73,1.64-1.95Z"/><path class="h" d="M113.11,47.42c-.13-.9-.28-1.79-.42-2.69-.07-.42-.16-.83-.2-1.25,.2-.27,.39-.55,.57-.84,.39,.61,.48,1.39,.63,2.1,.18,.89,.33,1.78,.47,2.68,.14,.9,.41,3.54,.24,3.96,1.44,.38,2.98,1.05,4.41,1.46,1.29,.37,3.72,1.23,4.63-.23,.16-.25,.49-.17,.62,.04,.79,1.25,2.21,1.57,3.61,1.61,1.36,.04,2.75,.02,4.11-.12,2.31-.23,6.31-.92,7.18-3.47,.07-.2,.29-.36,.51-.33,1.09,.13,2.23-.73,3.13-1.28,1.1-.67,2.15-1.43,3.15-2.24,1.38-1.12,4.25-3.1,3.84-5.14-.04-.18,.1-.38,.28-.41,1.7-.27,2.77-2.05,3.37-3.56-.11-.06-.32-3.11-.18-4.66,.1-1.13,.2-2.94,1.13-3.73,.02-.02,.04-.03,.06-.03,.02,0,.05,0,.07,0,.04,.02,.07,.05,.08,.09,.12,.58-.06,1.12-.15,1.7-.12,.73-.17,1.47-.21,2.21-.07,1.47-.17,4.72-.31,4.79-.1,1.81-1.64,3.12-3.33,3.73,.75,2.15-2.25,4.43-3.63,5.6-1.21,1.02-2.51,1.93-3.86,2.74-.92,.55-2.11,1.42-3.25,1.24-1.55,2.7-5.19,3.52-8.09,3.78-2.4,.21-6.46,.7-7.91-1.69-.87,.89-2.33,.83-3.51,.58-2.02-.42-6.05-2.11-6.12-2.16-.58-.36-.48-.97-.56-1.6-.12-.97-.24-1.93-.38-2.89Z"/><path class="h" d="M113.22,50.72s.02,.01,0,.02-.02-.01,0-.02Z"/><path class="f" d="M136.63,35.28c.91,.82,1.99,1.49,2.93,2.29,.87,.74,1.72,1.49,2.58,2.24,1.69,1.46,3.45,2.79,4.82,4.55,.15,.19-.03,.51-.28,.41-2.17-.81-3.87-2.28-5.55-3.82-.85-.78-1.65-1.58-2.41-2.44-.86-.98-1.46-2.08-2.23-3.11-.07-.09,.05-.2,.14-.12Z"/><path class="f" d="M133.97,45.89c-.55-1.41-1.03-2.83-1.5-4.27-.44-1.34-.87-2.69-1.28-4.05-.43-1.43-.7-2.9-1.15-4.32-.03-.08,.12-.13,.15-.05,.54,1.4,1.26,2.71,1.86,4.08,.6,1.38,1.19,2.75,1.79,4.12,.6,1.38,1.2,2.75,1.76,4.14,.5,1.23,1.02,2.46,1.07,3.81,.01,.38-.52,.49-.74,.25-.97-1.04-1.45-2.42-1.96-3.72Z"/><path class="f" d="M119.17,50.47c.4-2.16,1.73-4.21,2.76-6.13,1.19-2.21,2.39-4.44,3.33-6.77,.04-.11,.2-.05,.17,.06-.73,2.38-1.4,4.76-2.29,7.09-.79,2.06-1.75,4.5-3.43,6.02-.2,.18-.59,.02-.54-.27Z"/><path class="c" d="M127.3,31.61c.02-.09,.16-.09,.19-.01,.92,2.2,1.06,4.79,.74,7.14-.04,.27-.38,.26-.46,.03-.71-2.24-1-4.82-.47-7.15Z"/><path class="c" d="M127.7,41.02c.05-.16,.29-.14,.32,.02,.2,1.01,.61,2.35,.19,3.36-.08,.19-.39,.31-.54,.11-.69-.99-.33-2.43,.02-3.49Z"/><path class="c" d="M135.43,31.99c2.03,.7,4.15,1.81,5.92,3.02,.28,.19,.13,.67-.23,.63-2.23-.23-4.61-1.46-6-3.2-.17-.21,.03-.55,.31-.45Z"/><path class="c" d="M145.53,37.45c.59-.02,1.22,.37,1.72,.64,.55,.3,1.07,.71,1.52,1.14,.21,.19-.06,.46-.28,.41-.65-.14-1.3-.37-1.89-.67-.51-.26-1.09-.55-1.4-1.05-.15-.24,.11-.47,.33-.48Z"/><path class="d" d="M134.67,21.82c.69,.2,1.36,.44,2.02,.7,1.68,.82,3.39,1.61,5.11,2.36,.33,.16,.67,.33,1,.48,1.28,.61,2.56,1.22,3.83,1.84,1.18,.58,2.52,1.13,3.41,2.11,.07,.08,0,.19-.1,.2-1.32,.01-2.64-.59-3.84-1.09-1.4-.58-2.79-1.19-4.16-1.83-2.61-1.21-5.31-2.39-7.59-4.15-.31-.24-.08-.74,.32-.62Z"/><path class="d" d="M136.61,26.34c1.88,.44,3.67,1.27,5.45,2.01,1.8,.75,3.57,1.54,5.34,2.36,.18,.08,.16,.43-.08,.38-3.73-.73-7.91-1.91-10.95-4.25-.26-.2-.06-.57,.25-.5Z"/><path class="d" d="M131.5,27.46c4.19,.86,8.07,2.9,12,4.48,.54,.22,.24,1.07-.31,.86-3.99-1.53-8.25-2.69-11.91-4.91-.25-.15-.03-.48,.22-.43Z"/><path class="k" d="M114.19,51.75l.67-1.43c1.64,.29,3.56-.58,4.96-1.67,3.09-2.41,5.39-5.8,6.47-9.54,.25-.88,.52-1.89,1.34-2.31,.95-.5,2.11,.08,2.85,.84,1.57,1.62,2.15,3.99,3.73,5.59,1.88,1.9,5.11,2.31,7.45,.94,1.02-.59,1.84-1.46,2.65-2.32l5.38-5.69c.07-.07,.14-.15,.21-.22l3.36,1.79s-9.8,25.22-39.06,14.03Z"/></g><g><path class="j" d="M141.78,64.97c-1.79-2.78-3.43-5.56-4.79-8.59-1.44-3.19-2.88-6.34-4.47-9.46-.73-1.43-1.34-2.95-2.2-4.27l8.11,4.04,13.11,25.26-8.07-3.85c-.45-1.07-1.03-2.1-1.69-3.13Z"/><path class="l" d="M143.62,60.97c-1.49-1.5-2.39-3.83-3.26-5.75-1-2.2-1.63-4.49-2.41-6.77-.04-.11,.13-.18,.17-.07,.86,2.09,2.01,4.08,3.05,6.09,.5,.98,1,1.96,1.53,2.93,.55,1.01,1.21,2.01,1.52,3.12,.09,.33-.29,.76-.6,.45Z"/><path class="l" d="M140.98,59.74c-3.03-2.76-3.65-7.39-5.62-10.83-.05-.09,.07-.2,.14-.1,1.11,1.67,2.12,3.34,3.01,5.14,.92,1.85,2.01,3.61,2.92,5.46,.13,.26-.24,.53-.45,.34Z"/><path class="l" d="M145.64,66.98c-1.43-1.66-2.26-3.6-3.1-5.6-.04-.09,.1-.17,.15-.08,1.07,1.85,2.32,3.58,3.23,5.53,.08,.18-.17,.3-.28,.16Z"/><path class="l" d="M143.12,66.91c-1.29-1.87-2.14-3.96-3.33-5.88-.1-.16,.12-.33,.23-.18,1.42,1.85,2.76,3.6,3.37,5.9,.04,.16-.16,.32-.27,.16Z"/><path class="k" d="M143.47,68.1c-.45-1.07-1.03-2.1-1.69-3.13-1.79-2.78-3.43-5.56-4.79-8.59-1.44-3.19-2.88-6.34-4.47-9.46-.73-1.43-1.34-2.95-2.2-4.27l6.32,3.15c.07,.13,.15,.27,.23,.4,2.41,4.01,3.58,8.62,5.08,13.03,1.37,4.03,3.25,8.18,6.19,11.1l-4.67-2.23Z"/><path class="e" d="M130.19,42.45s.05-.04,.08-.06c2.62-1.82,5.53-3.13,8.3-4.7,5.28-3,10.4-6.31,15.11-10.18l2.02-1.12,5.96,5.31-23.23,14.98-8.11-4.04c-.04-.07-.09-.13-.13-.2Z"/><path class="i" d="M144.86,60.86c-1.82-3.02-3.36-6.19-4.63-9.48l-1.8-4.69,15.09-10.45c.79-.54,1.6-1.04,2.44-1.49l5.7-3.05s15.48,22.19-10.12,40.24l-6.68-11.09Z"/><path class="c" d="M156.54,52.1c-1.51-.42-3.03-.84-4.54-1.27-1.56-.45-3.11-.88-4.69-1.27-.63-.15-1.29-.29-1.9-.52-.79-.3-1.48-.82-2.28-1.12-.12-.05-.07-.25,.06-.23,.81,.14,1.57,.01,2.38,.05,.79,.03,1.58,.2,2.35,.31,1.65,.22,3.3,.26,4.95,.39,1.57,.13,3.15,.3,4.69,.66,1.58,.37,3.3,.72,4.68,1.61,1.32,.84,.25,3.01-1.18,2.77-1.53-.26-3.03-.96-4.52-1.37Z"/><path class="c" d="M148.49,45.12c-.2,.01-.23-.27-.04-.31,.6-.15,1.09-.69,1.66-.94,.58-.26,1.24-.41,1.84-.61,1.18-.38,2.38-.69,3.57-1.03,1.2-.34,2.39-.7,3.58-1.06,1.19-.36,2.53-.99,3.78-.76,1.17,.21,1.38,1.56,.58,2.32-.92,.88-2.42,1.06-3.62,1.36-1.21,.3-2.43,.56-3.66,.78-1.23,.22-2.46,.43-3.7,.52-.65,.05-1.32,.12-1.98,.09-.66-.02-1.4-.4-2.03-.36Z"/><path class="c" d="M152.26,68c-.32-.44-.46-.95-.7-1.44-.29-.59-.62-1.16-.93-1.74-.67-1.22-1.36-2.42-2.04-3.63-1.22-2.16-2.83-4.37-3.28-6.85-.03-.15,.15-.3,.29-.22,2.39,1.36,4.04,4.07,5.55,6.31,.81,1.2,1.6,2.41,2.37,3.64,.77,1.23,1.81,2.55,.82,3.96-.49,.7-1.6,.63-2.08-.02Z"/><path class="g" d="M162.26,31.5s5.84,3.5,4.17,19.55c-1.67,16.05-14.83,21.12-14.83,21.12l3.81-2.69,2.49-3.21,.08-1.55,1.89-.31,4.03-5.32,1.81-6.44-1.13-1.97,1.16-1.73-.15-3.85-1.21-7.69-1.15-.73-.25-2.73-.71-2.44Z"/><path class="h" d="M147.35,70.43c-.82-.39-1.64-.77-2.47-1.15-.38-.17-.78-.33-1.15-.53-.11-.32-.24-.63-.38-.94,.72,.01,1.43,.38,2.09,.65,.84,.34,1.67,.72,2.49,1.1,.82,.39,3.17,1.63,3.42,2,1.12-.99,2.53-1.89,3.67-2.85,1.03-.86,3.1-2.4,2.39-3.98-.12-.27,.13-.5,.38-.49,1.48,.04,2.53-.96,3.35-2.1,.8-1.11,1.54-2.27,2.19-3.47,1.1-2.05,2.76-5.75,1.12-7.9-.13-.17-.13-.44,0-.61,.72-.83,.64-2.26,.68-3.31,.06-1.29,.01-2.58-.1-3.86-.16-1.77-.21-5.25-2.13-6.06-.17-.07-.26-.29-.18-.46,.73-1.56-.16-3.45-1.07-4.78-.11,.05-2.76-1.47-3.97-2.45-.89-.71-2.33-1.8-2.47-3.02,0-.02,0-.05,.01-.07,.02-.02,.03-.04,.05-.06,.03-.02,.08-.03,.12-.01,.54,.22,.9,.67,1.33,1.07,.54,.51,1.12,.96,1.72,1.4,1.18,.88,3.82,2.78,3.81,2.93,1.45,1.1,1.67,3.1,1.24,4.85,2.2,.57,2.42,4.33,2.63,6.13,.18,1.57,.21,3.16,.12,4.74-.06,1.08,0,2.55-.78,3.39,1.38,2.79,.03,6.27-1.38,8.82-1.16,2.11-3.02,5.76-5.81,5.63,.26,1.22-.61,2.4-1.47,3.24-1.47,1.44-5.13,3.84-5.2,3.88-.62,.28-1.08-.14-1.64-.43-.87-.44-1.73-.88-2.61-1.3Z"/><path class="h" d="M150.15,72.18s.02-.01,.02,0-.02,.01-.02,0Z"/><path class="f" d="M150.38,44.14c1.19-.3,2.35-.82,3.54-1.15,1.1-.31,2.2-.6,3.3-.9,2.15-.59,4.24-1.31,6.46-1.46,.24-.02,.41,.31,.18,.46-1.88,1.34-4.05,1.94-6.27,2.48-1.12,.27-2.23,.49-3.37,.64-1.29,.17-2.54,.05-3.83,.12-.12,0-.13-.15-.02-.18Z"/><path class="f" d="M157.7,52.26c-1.47-.33-2.93-.72-4.38-1.13-1.36-.38-2.72-.78-4.08-1.19-1.43-.44-2.79-1.04-4.23-1.45-.08-.02-.04-.17,.04-.15,1.46,.34,2.95,.46,4.43,.73,1.47,.27,2.95,.54,4.42,.81,1.48,.27,2.95,.54,4.42,.85,1.3,.28,2.61,.52,3.76,1.23,.32,.2,.11,.7-.21,.75-1.41,.22-2.82-.14-4.18-.45Z"/><path class="f" d="M153.26,67.1c-1.57-1.53-2.53-3.78-3.55-5.71-1.17-2.22-2.36-4.46-3.76-6.54-.06-.1,.07-.2,.14-.11,1.57,1.93,3.17,3.81,4.61,5.85,1.27,1.8,2.76,3.97,3.08,6.2,.04,.27-.32,.5-.52,.3Z"/><path class="c" d="M142.13,49.83c-.06-.06,.01-.18,.1-.16,2.34,.46,4.57,1.79,6.34,3.37,.2,.18,0,.46-.23,.39-2.26-.66-4.56-1.85-6.2-3.59Z"/><path class="c" d="M150.17,54.75c-.1-.13,.05-.32,.2-.26,.95,.4,2.29,.8,2.89,1.71,.12,.18,.04,.5-.21,.5-1.21,.02-2.2-1.08-2.88-1.96Z"/><path class="c" d="M146.98,43.29c1.72-1.29,3.82-2.44,5.8-3.23,.31-.13,.63,.27,.4,.54-1.44,1.72-3.78,3.01-6,3.2-.27,.02-.44-.33-.2-.51Z"/><path class="c" d="M157.14,37.96c.31-.5,.98-.81,1.49-1.07,.56-.29,1.19-.49,1.8-.63,.28-.06,.35,.31,.18,.46-.48,.46-1.03,.88-1.61,1.2-.5,.28-1.07,.6-1.65,.58-.28,0-.33-.35-.21-.54Z"/><path class="d" d="M138.11,38.26c.55-.46,1.12-.88,1.7-1.29,1.62-.94,3.23-1.91,4.81-2.92,.32-.19,.64-.37,.96-.56,1.22-.72,2.44-1.44,3.66-2.15,1.14-.66,2.34-1.46,3.65-1.65,.11-.02,.16,.11,.11,.19-.73,1.1-1.96,1.86-3.04,2.58-1.26,.84-2.54,1.65-3.84,2.44-2.46,1.49-4.94,3.08-7.68,3.98-.37,.12-.65-.35-.34-.61Z"/><path class="d" d="M142.94,39.17c1.41-1.32,3.1-2.34,4.7-3.4,1.62-1.08,3.27-2.11,4.94-3.12,.17-.1,.44,.11,.27,.28-2.68,2.69-6,5.5-9.63,6.73-.31,.1-.51-.27-.27-.49Z"/><path class="d" d="M141.03,44.04c3.05-2.99,6.9-5.08,10.41-7.47,.48-.33,1.03,.39,.54,.74-3.49,2.46-6.83,5.35-10.72,7.15-.27,.12-.41-.24-.23-.42Z"/><path class="k" d="M151.54,71.95l-.82-1.36c1.16-1.19,1.5-3.27,1.38-5.05-.28-3.91-1.81-7.71-4.32-10.69-.59-.7-1.28-1.48-1.18-2.4,.12-1.06,1.25-1.71,2.29-1.9,2.21-.4,4.51,.44,6.72,.02,2.62-.5,4.76-2.96,4.93-5.66,.07-1.18-.19-2.34-.45-3.49l-1.72-7.63c-.02-.1-.05-.2-.07-.3l3.36-1.8s15.48,22.19-10.12,40.24Z"/></g><g><path class="j" d="M74.41,60.31c.92-3.18,1.93-6.24,3.31-9.26,1.46-3.18,2.87-6.34,4.18-9.59,.6-1.49,1.34-2.95,1.77-4.47l2.3,8.77-10.39,26.49-2.41-8.61c.51-1.04,.91-2.16,1.24-3.33Z"/><path class="l" d="M78.63,59.06c.15-2.11,1.31-4.32,2.18-6.23,1-2.2,2.31-4.18,3.51-6.27,.06-.1,.22-.03,.17,.08-1.01,2.02-1.74,4.2-2.58,6.3-.41,1.02-.81,2.04-1.2,3.07-.4,1.07-.72,2.23-1.35,3.2-.19,.28-.77,.28-.74-.15Z"/><path class="l" d="M77.81,56.26c.08-4.09,3.16-7.61,4.46-11.36,.04-.1,.2-.07,.17,.03-.52,1.93-1.12,3.79-1.89,5.65-.79,1.91-1.4,3.89-2.19,5.79-.11,.27-.56,.17-.55-.11Z"/><path class="l" d="M75.43,64.54c.31-2.17,1.23-4.07,2.18-6.02,.04-.09,.19-.04,.16,.05-.69,2.02-1.16,4.11-2.03,6.07-.08,.18-.33,.07-.31-.1Z"/><path class="l" d="M73.83,62.6c.56-2.2,1.57-4.21,2.23-6.38,.05-.18,.33-.13,.29,.06-.46,2.29-.89,4.44-2.22,6.42-.09,.14-.35,.09-.3-.1Z"/><path class="k" d="M73.17,63.65c.51-1.04,.91-2.16,1.24-3.33,.92-3.18,1.93-6.24,3.31-9.26,1.46-3.18,2.87-6.34,4.18-9.59,.6-1.49,1.34-2.95,1.77-4.47l1.79,6.84c-.05,.14-.1,.29-.15,.43-1.43,4.45-4.14,8.37-6.47,12.4-2.13,3.69-4.02,7.83-4.28,11.97l-1.39-4.98Z"/><path class="e" d="M83.73,36.76s.06,.01,.1,.02c3.09,.77,6,2.1,9,3.15,5.73,2.01,11.6,3.68,17.61,4.68l2.18,.78-.08,7.99-26.57-7.63-2.3-8.77c.02-.08,.04-.15,.06-.23Z"/><path class="i" d="M79.53,59.92c1.08-3.35,2.44-6.61,4.09-9.73l2.34-4.44,17.8,4.49c.93,.23,1.84,.52,2.73,.86l6.04,2.28s-6.52,26.26-36.96,18.87l3.95-12.33Z"/><path class="c" d="M93.81,62.95c-.68-1.42-1.37-2.83-2.03-4.25-.69-1.47-1.38-2.93-2.13-4.37-.3-.58-.63-1.16-.86-1.78-.3-.8-.36-1.65-.66-2.45-.05-.12,.14-.21,.21-.1,.43,.71,1.02,1.19,1.53,1.82,.49,.61,.88,1.32,1.32,1.98,.92,1.39,1.98,2.65,2.96,3.99,.94,1.27,1.84,2.57,2.59,3.96,.76,1.43,1.63,2.96,1.87,4.58,.24,1.55-2.1,2.17-2.86,.94-.81-1.32-1.27-2.91-1.94-4.31Z"/><path class="c" d="M93.77,52.3c-.14-.14,.05-.35,.21-.24,.51,.36,1.23,.37,1.8,.63,.58,.27,1.13,.66,1.67,.99,1.06,.64,2.09,1.34,3.13,2.01,1.05,.67,2.1,1.34,3.16,2,1.06,.66,2.41,1.25,3.07,2.35,.61,1.02-.27,2.07-1.36,1.97-1.27-.11-2.39-1.13-3.4-1.83-1.03-.71-2.02-1.46-2.99-2.24-.98-.78-1.94-1.57-2.83-2.44-.46-.46-.96-.92-1.37-1.43-.41-.51-.62-1.32-1.07-1.77Z"/><path class="c" d="M79.02,70.2c.12-.54,.42-.97,.63-1.48,.25-.61,.47-1.23,.69-1.85,.48-1.3,.93-2.62,1.39-3.93,.82-2.34,1.43-5.01,3-6.98,.09-.12,.32-.08,.36,.07,.55,2.69-.4,5.72-1.1,8.34-.37,1.4-.76,2.79-1.18,4.17-.42,1.39-.73,3.04-2.44,3.22-.85,.09-1.53-.78-1.35-1.58Z"/><path class="g" d="M113.08,53.7s1.21,6.7-11.97,16.01c-13.18,9.3-25.66,2.74-25.66,2.74l4.53,1.09,4.06-.24,1.22-.96,1.48,1.22,6.66-.47,6.04-2.88,.74-2.15,2.07-.26,2.8-2.65,4.99-5.97-.21-1.35,1.89-1.99,1.38-2.14Z"/><path class="h" d="M73.96,68.1c-.24-.87-.5-1.74-.76-2.61-.12-.4-.27-.8-.36-1.21,.16-.29,.31-.6,.46-.9,.47,.55,.66,1.32,.89,2,.29,.86,.56,1.73,.81,2.6,.25,.87,.85,3.46,.74,3.89,1.48,.19,3.09,.66,4.56,.89,1.32,.2,3.84,.75,4.57-.82,.12-.27,.46-.23,.62-.04,.94,1.14,2.39,1.27,3.79,1.14,1.36-.13,2.73-.33,4.06-.64,2.26-.52,6.14-1.71,6.68-4.35,.04-.2,.25-.39,.46-.39,1.1,0,2.12-1.01,2.94-1.66,1.01-.81,1.95-1.69,2.84-2.62,1.23-1.28,3.82-3.61,3.16-5.59-.06-.17,.05-.39,.23-.44,1.65-.48,2.49-2.39,2.89-3.96-.11-.05-.71-3.05-.77-4.6-.05-1.14-.18-2.94,.65-3.85,.02-.02,.04-.03,.06-.04,.02,0,.05,0,.07,0,.04,.01,.08,.04,.09,.08,.19,.56,.09,1.12,.07,1.7-.02,.74,.02,1.48,.07,2.22,.11,1.47,.43,4.71,.3,4.79,.13,1.81-1.23,3.3-2.83,4.12,1.02,2.03-1.67,4.68-2.89,6.01-1.07,1.17-2.24,2.24-3.49,3.21-.85,.66-1.92,1.68-3.06,1.64-1.19,2.88-4.7,4.15-7.55,4.77-2.35,.51-6.32,1.52-8.06-.67-.75,1-2.2,1.12-3.41,1.03-2.05-.16-6.27-1.33-6.34-1.36-.62-.28-.6-.9-.76-1.52-.24-.94-.48-1.89-.74-2.82Z"/><path class="h" d="M74.49,71.36s.02,0,.01,.02-.02,0-.01-.02Z"/><path class="f" d="M95.75,53.07c1.01,.7,2.16,1.23,3.2,1.9,.96,.62,1.9,1.26,2.85,1.89,1.86,1.23,3.77,2.33,5.35,3.9,.17,.17,.04,.51-.23,.44-2.25-.53-4.13-1.77-5.99-3.09-.94-.66-1.84-1.35-2.7-2.12-.98-.87-1.71-1.88-2.61-2.81-.08-.08,.03-.2,.12-.13Z"/><path class="f" d="M94.46,63.93c-.72-1.32-1.38-2.68-2.03-4.04-.61-1.28-1.21-2.56-1.78-3.85-.61-1.36-1.06-2.78-1.69-4.14-.04-.08,.1-.14,.14-.07,.71,1.32,1.6,2.52,2.36,3.81,.77,1.29,1.53,2.58,2.3,3.86,.77,1.29,1.54,2.58,2.27,3.89,.65,1.16,1.32,2.31,1.55,3.64,.06,.38-.45,.55-.7,.34-1.09-.91-1.75-2.22-2.42-3.44Z"/><path class="f" d="M80.36,70.36c.12-2.19,1.18-4.4,1.96-6.43,.9-2.34,1.81-4.71,2.45-7.13,.03-.11,.2-.08,.18,.04-.42,2.45-.78,4.9-1.37,7.32-.52,2.14-1.17,4.69-2.64,6.4-.18,.2-.59,.09-.57-.2Z"/><path class="c" d="M86.03,50.61c0-.09,.14-.11,.19-.04,1.19,2.07,1.66,4.62,1.64,6.99,0,.27-.34,.31-.45,.08-.99-2.14-1.61-4.65-1.38-7.04Z"/><path class="c" d="M87.62,59.9c.03-.17,.27-.17,.32-.02,.32,.98,.91,2.25,.61,3.31-.06,.2-.35,.36-.52,.17-.81-.9-.64-2.37-.42-3.46Z"/><path class="c" d="M94.14,49.96c2.1,.44,4.35,1.27,6.25,2.24,.3,.15,.21,.65-.14,.66-2.24,.05-4.75-.87-6.36-2.41-.2-.19-.04-.55,.25-.49Z"/><path class="c" d="M104.85,54.09c.58-.09,1.26,.21,1.79,.42,.58,.23,1.15,.57,1.65,.94,.23,.17,0,.47-.23,.44-.66-.06-1.34-.2-1.96-.42-.54-.2-1.15-.41-1.52-.86-.18-.21,.05-.48,.27-.52Z"/><path class="d" d="M92.1,39.98c.71,.11,1.4,.26,2.09,.43,1.78,.6,3.56,1.17,5.36,1.69,.35,.12,.7,.24,1.05,.35,1.35,.44,2.69,.88,4.03,1.34,1.24,.42,2.64,.8,3.65,1.66,.08,.07,.02,.19-.07,.21-1.31,.18-2.69-.25-3.94-.59-1.46-.39-2.91-.83-4.36-1.29-2.74-.87-5.57-1.69-8.05-3.16-.34-.2-.17-.72,.24-.66Z"/><path class="d" d="M94.6,44.21c1.93,.2,3.8,.79,5.66,1.3,1.88,.51,3.74,1.07,5.59,1.66,.19,.06,.21,.4-.03,.39-3.79-.25-8.09-.9-11.4-2.82-.28-.16-.13-.56,.19-.53Z"/><path class="d" d="M89.67,45.97c4.26,.33,8.37,1.85,12.47,2.92,.57,.15,.38,1.03-.2,.89-4.15-1.01-8.53-1.62-12.44-3.36-.27-.12-.09-.47,.16-.45Z"/><path class="k" d="M75.58,72.25l.48-1.51c1.66,.08,3.45-1.02,4.71-2.29,2.76-2.78,4.61-6.44,5.2-10.29,.14-.9,.28-1.94,1.03-2.46,.88-.61,2.11-.19,2.93,.47,1.76,1.4,2.63,3.69,4.41,5.07,2.1,1.64,5.36,1.64,7.5,0,.93-.72,1.64-1.68,2.33-2.63l4.61-6.32c.06-.08,.12-.16,.18-.25l3.56,1.35s-6.52,26.26-36.96,18.87Z"/></g><g><path class="j" d="M84.04,65.76c2.81-1.74,5.62-3.34,8.66-4.66,3.21-1.39,6.38-2.78,9.53-4.32,1.45-.71,2.97-1.3,4.3-2.13l-4.17,8.05-25.46,12.71,3.98-8c1.08-.43,2.12-1,3.16-1.64Z"/><path class="l" d="M88.01,67.66c1.52-1.46,3.87-2.33,5.8-3.17,2.22-.96,4.51-1.56,6.81-2.3,.12-.04,.18,.13,.07,.17-2.1,.83-4.11,1.95-6.13,2.95-.99,.49-1.97,.97-2.95,1.48-1.02,.53-2.03,1.18-3.14,1.47-.33,.09-.76-.3-.45-.6Z"/><path class="l" d="M89.28,65.03c2.8-2.99,7.45-3.53,10.92-5.45,.09-.05,.2,.08,.1,.14-1.68,1.08-3.37,2.07-5.19,2.93-1.87,.89-3.64,1.95-5.5,2.83-.26,.12-.53-.24-.33-.45Z"/><path class="l" d="M81.96,69.58c1.68-1.4,3.64-2.2,5.65-3.01,.09-.04,.17,.1,.08,.15-1.86,1.04-3.61,2.27-5.58,3.15-.18,.08-.29-.17-.16-.28Z"/><path class="l" d="M82.07,67.07c1.89-1.26,3.99-2.08,5.93-3.24,.16-.1,.33,.12,.17,.24-1.88,1.39-3.64,2.7-5.95,3.28-.16,.04-.32-.17-.15-.28Z"/><path class="k" d="M80.88,67.4c1.08-.43,2.12-1,3.16-1.64,2.81-1.74,5.62-3.34,8.66-4.66,3.21-1.39,6.38-2.78,9.53-4.32,1.45-.71,2.97-1.3,4.3-2.13l-3.25,6.27c-.13,.07-.27,.14-.4,.22-4.05,2.35-8.68,3.45-13.1,4.87-4.05,1.31-8.23,3.12-11.2,6.01l2.3-4.63Z"/><path class="e" d="M106.73,54.52s.04,.05,.06,.08c1.78,2.64,3.05,5.58,4.57,8.37,2.91,5.33,6.15,10.5,9.94,15.27l1.09,2.04-5.41,5.88-14.62-23.46,4.17-8.05c.07-.04,.13-.09,.2-.13Z"/><path class="i" d="M88.1,68.9c3.04-1.77,6.24-3.27,9.55-4.48l4.71-1.73,10.21,15.25c.53,.79,1.02,1.62,1.45,2.46l2.96,5.75s-22.43,15.13-40.08-10.75l11.2-6.51Z"/><path class="c" d="M96.67,80.71c.44-1.51,.88-3.02,1.34-4.52,.47-1.56,.93-3.1,1.34-4.67,.16-.63,.31-1.28,.55-1.89,.31-.79,.84-1.46,1.15-2.26,.05-.12,.25-.06,.22,.07-.15,.81-.04,1.57-.08,2.38-.04,.78-.23,1.57-.35,2.35-.25,1.65-.31,3.29-.47,4.94-.15,1.57-.35,3.14-.73,4.68-.39,1.57-.78,3.29-1.68,4.65-.86,1.31-3.01,.2-2.75-1.22,.28-1.52,1-3.01,1.44-4.5Z"/><path class="c" d="M103.77,72.78c-.01-.2,.27-.23,.31-.03,.14,.61,.67,1.1,.91,1.67,.25,.58,.39,1.24,.58,1.85,.36,1.19,.65,2.39,.98,3.59,.33,1.2,.67,2.4,1.01,3.6,.34,1.2,.95,2.54,.71,3.8-.23,1.17-1.59,1.35-2.33,.55-.87-.94-1.02-2.44-1.3-3.64-.28-1.22-.52-2.44-.72-3.67-.2-1.23-.39-2.46-.47-3.71-.04-.65-.1-1.33-.06-1.98,.04-.66,.42-1.39,.39-2.03Z"/><path class="c" d="M80.84,76.19c.45-.32,.96-.44,1.46-.68,.59-.28,1.17-.6,1.75-.9,1.23-.65,2.44-1.32,3.66-1.98,2.18-1.19,4.42-2.76,6.9-3.17,.15-.02,.3,.16,.22,.29-1.39,2.36-4.13,3.97-6.4,5.46-1.21,.79-2.44,1.56-3.67,2.31-1.25,.75-2.58,1.77-3.97,.76-.7-.5-.61-1.61,.06-2.08Z"/><path class="g" d="M117.18,86.75s-3.59,5.79-19.61,3.87c-16.02-1.92-20.88-15.15-20.88-15.15l2.63,3.85,3.17,2.54,1.55,.1,.28,1.89,5.25,4.11,6.41,1.91,1.99-1.1,1.71,1.19,3.85-.09,7.71-1.09,.75-1.14,2.74-.21,2.45-.67Z"/><path class="h" d="M78.48,71.24c.41-.81,.8-1.63,1.18-2.45,.18-.38,.34-.78,.54-1.14,.32-.11,.63-.23,.94-.36-.02,.72-.4,1.42-.68,2.08-.36,.83-.74,1.65-1.14,2.47-.4,.82-1.68,3.14-2.06,3.39,.97,1.13,1.85,2.56,2.79,3.72,.85,1.04,2.35,3.13,3.94,2.45,.27-.12,.5,.14,.49,.39-.07,1.48,.92,2.55,2.05,3.38,1.1,.81,2.25,1.58,3.44,2.24,2.03,1.13,5.71,2.85,7.88,1.25,.17-.12,.44-.12,.61,.02,.82,.73,2.25,.67,3.3,.74,1.29,.08,2.58,.05,3.86-.04,1.77-.13,5.26-.13,6.09-2.03,.07-.17,.3-.25,.46-.17,1.55,.75,3.45-.11,4.8-1-.05-.11,1.51-2.74,2.51-3.93,.73-.87,1.84-2.3,3.06-2.42,.02,0,.05,0,.07,.01,.02,.02,.04,.03,.05,.05,.02,.03,.03,.08,.01,.12-.23,.54-.69,.89-1.09,1.31-.51,.54-.98,1.11-1.43,1.69-.9,1.17-2.84,3.78-2.99,3.76-1.12,1.43-3.13,1.63-4.86,1.16-.61,2.19-4.37,2.36-6.17,2.53-1.57,.15-3.16,.16-4.74,.05-1.07-.07-2.55-.04-3.37-.83-2.81,1.34-6.27-.06-8.8-1.51-2.09-1.2-5.71-3.11-5.53-5.9-1.22,.24-2.39-.64-3.22-1.52-1.42-1.5-3.76-5.19-3.79-5.26-.27-.63,.16-1.07,.46-1.63,.46-.86,.91-1.72,1.34-2.59Z"/><path class="h" d="M76.7,74.02s.01,.02,0,.02-.01-.02,0-.02Z"/><path class="f" d="M104.73,74.68c.28,1.2,.78,2.36,1.1,3.56,.29,1.1,.56,2.21,.84,3.31,.55,2.16,1.24,4.25,1.36,6.48,.01,.24-.31,.4-.47,.18-1.31-1.9-1.88-4.08-2.38-6.3-.25-1.12-.46-2.24-.58-3.38-.14-1.3-.01-2.54-.06-3.83,0-.12,.15-.13,.18-.02Z"/><path class="f" d="M96.5,81.87c.35-1.47,.77-2.92,1.2-4.36,.4-1.36,.82-2.71,1.26-4.06,.46-1.42,1.08-2.78,1.52-4.2,.03-.08,.17-.04,.15,.04-.36,1.46-.5,2.94-.8,4.42-.29,1.47-.59,2.94-.88,4.41-.29,1.47-.58,2.95-.92,4.41-.3,1.3-.56,2.6-1.29,3.74-.21,.32-.7,.1-.75-.22-.2-1.41,.19-2.81,.51-4.17Z"/><path class="f" d="M81.72,77.2c1.56-1.54,3.82-2.47,5.76-3.46,2.24-1.14,4.5-2.29,6.59-3.66,.1-.06,.2,.07,.11,.14-1.96,1.54-3.86,3.11-5.93,4.52-1.82,1.24-4.01,2.7-6.25,2.99-.27,.03-.5-.32-.29-.53Z"/><path class="c" d="M99.16,66.34c.07-.06,.18,.02,.16,.1-.5,2.33-1.86,4.54-3.46,6.29-.18,.2-.46,0-.39-.24,.7-2.25,1.92-4.53,3.69-6.15Z"/><path class="c" d="M94.12,74.3c.14-.1,.32,.05,.25,.2-.42,.94-.84,2.28-1.76,2.87-.18,.11-.5,.03-.5-.22,0-1.21,1.11-2.18,2.01-2.85Z"/><path class="c" d="M105.63,71.29c1.27,1.73,2.38,3.86,3.14,5.85,.12,.31-.28,.62-.55,.39-1.7-1.46-2.95-3.83-3.11-6.05-.02-.27,.34-.43,.51-.19Z"/><path class="c" d="M110.81,81.53c.49,.32,.79,1,1.05,1.51,.28,.56,.47,1.19,.6,1.81,.06,.28-.31,.34-.47,.18-.45-.49-.86-1.05-1.17-1.63-.27-.51-.58-1.08-.56-1.66,.01-.28,.36-.33,.55-.2Z"/><path class="d" d="M110.79,62.51c.45,.55,.87,1.13,1.26,1.72,.91,1.64,1.86,3.26,2.85,4.85,.18,.32,.36,.65,.55,.97,.7,1.23,1.41,2.46,2.09,3.7,.64,1.15,1.42,2.37,1.6,3.68,.01,.11-.11,.16-.19,.1-1.09-.75-1.83-1.99-2.53-3.08-.82-1.27-1.61-2.57-2.38-3.88-1.46-2.48-3-4.99-3.86-7.74-.12-.38,.36-.65,.61-.33Z"/><path class="d" d="M109.81,67.32c1.3,1.43,2.29,3.13,3.33,4.75,1.05,1.64,2.06,3.3,3.04,4.98,.1,.17-.11,.44-.28,.26-2.65-2.72-5.41-6.09-6.58-9.73-.1-.31,.28-.5,.49-.27Z"/><path class="d" d="M104.98,65.33c2.94,3.1,4.98,6.98,7.31,10.52,.32,.49-.41,1.02-.74,.53-2.4-3.53-5.25-6.92-6.98-10.83-.12-.27,.25-.41,.42-.23Z"/><path class="k" d="M76.9,75.41l1.37-.8c1.18,1.17,3.25,1.55,5.03,1.46,3.91-.22,7.74-1.69,10.75-4.15,.71-.58,1.5-1.25,2.42-1.14,1.06,.13,1.69,1.27,1.86,2.31,.36,2.22-.51,4.5-.13,6.72,.46,2.63,2.88,4.81,5.58,5.02,1.17,.09,2.35-.15,3.5-.39l7.66-1.61c.1-.02,.2-.04,.3-.06l1.74,3.39s-22.43,15.13-40.08-10.75Z"/></g><g><path class="j" d="M87.8,88.99c.55-3.26,1.19-6.42,2.22-9.59,1.08-3.33,2.12-6.63,3.04-10.01,.42-1.55,.99-3.09,1.24-4.64l3.3,8.44-7.24,27.52-3.39-8.27c.38-1.09,.65-2.25,.85-3.46Z"/><path class="l" d="M91.85,87.26c-.1-2.11,.8-4.45,1.44-6.44,.74-2.3,1.81-4.42,2.76-6.63,.05-.11,.22-.05,.18,.06-.77,2.13-1.24,4.37-1.83,6.55-.28,1.06-.57,2.12-.83,3.19-.27,1.11-.45,2.3-.97,3.33-.15,.3-.73,.37-.75-.06Z"/><path class="l" d="M90.71,84.57c-.39-4.08,2.26-7.93,3.11-11.8,.02-.11,.19-.1,.17,.01-.3,1.98-.67,3.9-1.22,5.83-.56,1.99-.94,4.02-1.5,6.01-.08,.28-.53,.23-.56-.05Z"/><path class="l" d="M89.3,93.07c.06-2.19,.75-4.19,1.46-6.23,.03-.09,.19-.06,.17,.04-.45,2.09-.68,4.21-1.31,6.27-.06,.19-.32,.11-.32-.07Z"/><path class="l" d="M87.49,91.33c.3-2.25,1.07-4.37,1.47-6.59,.03-.18,.31-.17,.29,.02-.19,2.33-.37,4.52-1.46,6.63-.08,.15-.33,.13-.31-.07Z"/><path class="k" d="M86.95,92.44c.38-1.09,.65-2.25,.85-3.46,.55-3.26,1.19-6.42,2.22-9.59,1.08-3.33,2.12-6.63,3.04-10.01,.42-1.55,.99-3.09,1.24-4.64l2.57,6.58c-.04,.15-.07,.3-.1,.45-.9,4.59-3.14,8.79-4.98,13.06-1.69,3.91-3.08,8.25-2.87,12.38l-1.96-4.78Z"/><path class="e" d="M94.32,64.52s.07,0,.1,.01c3.16,.41,6.21,1.39,9.31,2.09,5.93,1.33,11.95,2.31,18.03,2.6l2.25,.53,.85,7.94-27.28-4.49-3.3-8.44c.01-.08,.02-.16,.03-.23Z"/><path class="i" d="M92.84,88.01c.68-3.45,1.66-6.85,2.93-10.14l1.81-4.68,18.2,2.39c.95,.12,1.89,.3,2.81,.53l6.27,1.57s-3.43,26.84-34.52,23.03l2.5-12.71Z"/><path class="c" d="M107.37,89.36c-.84-1.33-1.68-2.65-2.51-3.99-.86-1.38-1.71-2.75-2.62-4.09-.37-.54-.76-1.08-1.06-1.66-.39-.76-.55-1.6-.94-2.36-.06-.12,.12-.23,.2-.12,.51,.65,1.15,1.06,1.73,1.63,.56,.55,1.03,1.21,1.54,1.81,1.07,1.27,2.27,2.4,3.41,3.61,1.08,1.15,2.13,2.34,3.03,3.64,.92,1.33,1.96,2.75,2.39,4.33,.41,1.51-1.84,2.4-2.73,1.26-.96-1.22-1.6-2.74-2.43-4.05Z"/><path class="c" d="M106.1,78.78c-.16-.13,0-.35,.18-.26,.55,.29,1.27,.22,1.86,.42,.6,.2,1.19,.53,1.77,.79,1.13,.51,2.23,1.09,3.34,1.63,1.12,.55,2.24,1.08,3.37,1.62,1.13,.54,2.54,.96,3.32,1.97,.73,.94-.03,2.08-1.13,2.11-1.28,.04-2.51-.84-3.59-1.42-1.1-.59-2.17-1.22-3.23-1.88-1.06-.66-2.11-1.33-3.1-2.1-.51-.4-1.06-.8-1.53-1.26-.47-.46-.77-1.24-1.27-1.63Z"/><path class="c" d="M93.53,98.27c.06-.55,.3-1.01,.45-1.54,.18-.63,.32-1.28,.48-1.91,.33-1.35,.62-2.71,.93-4.06,.55-2.42,.84-5.14,2.17-7.28,.08-.13,.31-.12,.36,.03,.86,2.61,.26,5.72-.12,8.41-.21,1.43-.43,2.86-.69,4.28-.26,1.43-.37,3.1-2.05,3.49-.84,.19-1.61-.6-1.52-1.41Z"/><path class="g" d="M125.44,77.93s1.98,6.52-10.03,17.29c-12.01,10.77-25.17,5.7-25.17,5.7l4.63,.56,4-.71,1.1-1.09,1.61,1.04,6.56-1.23,5.66-3.56,.48-2.22,2.02-.5,2.47-2.95,4.26-6.51-.36-1.32,1.65-2.2,1.12-2.29Z"/><path class="h" d="M88.25,96.78c-.34-.84-.7-1.67-1.06-2.51-.17-.39-.36-.77-.5-1.16,.13-.31,.24-.63,.35-.95,.53,.49,.8,1.24,1.11,1.88,.39,.82,.75,1.65,1.1,2.49,.35,.84,1.25,3.34,1.19,3.78,1.49,.02,3.15,.3,4.63,.35,1.34,.05,3.91,.3,4.44-1.34,.09-.28,.43-.28,.61-.11,1.07,1.02,2.53,.99,3.89,.69,1.33-.29,2.67-.65,3.96-1.11,2.19-.78,5.9-2.41,6.13-5.1,.02-.21,.2-.42,.41-.44,1.09-.13,1.99-1.25,2.73-2,.91-.92,1.74-1.9,2.52-2.93,1.07-1.42,3.37-4.03,2.49-5.92-.08-.17,0-.39,.18-.46,1.59-.67,2.2-2.66,2.41-4.26-.12-.03-1.06-2.94-1.3-4.48-.18-1.12-.52-2.9,.2-3.9,.01-.02,.03-.03,.05-.04,.02,0,.05,0,.07,0,.04,0,.08,.03,.1,.07,.25,.53,.21,1.1,.26,1.68,.06,.74,.19,1.46,.33,2.19,.28,1.45,.97,4.62,.86,4.73,.34,1.78-.84,3.42-2.34,4.42,1.25,1.9-1.11,4.84-2.17,6.31-.92,1.28-1.97,2.48-3.09,3.59-.76,.76-1.71,1.89-2.85,1.98-.85,3-4.19,4.67-6.94,5.61-2.28,.78-6.1,2.24-8.09,.27-.63,1.08-2.06,1.37-3.27,1.41-2.06,.08-6.38-.59-6.46-.62-.65-.21-.7-.83-.93-1.42-.34-.91-.69-1.82-1.06-2.72Z"/><path class="h" d="M89.16,99.95s.02,0,.01,.02-.02,0-.01-.02Z"/><path class="f" d="M108.15,79.32c1.08,.58,2.29,.97,3.4,1.52,1.02,.51,2.03,1.04,3.05,1.55,1.99,1.01,4.02,1.87,5.77,3.25,.19,.15,.1,.5-.17,.47-2.3-.27-4.3-1.28-6.31-2.37-1.01-.55-1.98-1.13-2.92-1.79-1.07-.75-1.92-1.66-2.92-2.49-.09-.07,0-.2,.1-.15Z"/><path class="f" d="M108.13,90.26c-.87-1.23-1.69-2.5-2.49-3.78-.75-1.2-1.49-2.41-2.22-3.62-.76-1.28-1.37-2.64-2.16-3.91-.05-.07,.08-.15,.13-.08,.86,1.23,1.88,2.32,2.79,3.51,.91,1.19,1.82,2.38,2.73,3.57,.92,1.19,1.83,2.38,2.71,3.6,.78,1.08,1.58,2.14,1.96,3.44,.11,.37-.39,.6-.66,.42-1.19-.78-1.99-2-2.8-3.14Z"/><path class="f" d="M94.87,98.28c-.13-2.19,.66-4.5,1.2-6.61,.62-2.43,1.25-4.89,1.6-7.37,.02-.11,.19-.1,.18,.02-.14,2.49-.21,4.96-.51,7.43-.27,2.19-.62,4.79-1.88,6.66-.15,.22-.57,.16-.59-.13Z"/><path class="c" d="M98.22,78.01c0-.09,.13-.12,.18-.06,1.42,1.91,2.19,4.4,2.44,6.75,.03,.27-.3,.35-.44,.13-1.23-2.01-2.13-4.44-2.18-6.83Z"/><path class="c" d="M100.87,87.04c.01-.17,.25-.2,.32-.06,.43,.93,1.16,2.13,.99,3.21-.03,.21-.31,.4-.5,.23-.9-.8-.91-2.28-.82-3.39Z"/><path class="c" d="M106.2,76.41c2.14,.19,4.47,.76,6.47,1.5,.32,.12,.29,.62-.07,.67-2.22,.31-4.82-.31-6.59-1.66-.22-.16-.1-.54,.19-.51Z"/><path class="c" d="M117.31,79.28c.57-.16,1.27,.06,1.82,.21,.6,.16,1.21,.44,1.75,.74,.25,.14,.05,.46-.17,.47-.66,.02-1.35-.04-2-.19-.56-.13-1.19-.28-1.61-.68-.2-.19,0-.48,.21-.55Z"/><path class="d" d="M103.01,66.74c.71,.03,1.42,.1,2.13,.19,1.83,.39,3.68,.75,5.52,1.06,.36,.08,.73,.15,1.09,.23,1.39,.28,2.78,.57,4.16,.87,1.28,.28,2.72,.49,3.82,1.23,.09,.06,.05,.19-.05,.21-1.28,.33-2.7,.06-3.99-.13-1.5-.22-2.99-.49-4.48-.77-2.83-.54-5.73-1.04-8.36-2.2-.36-.16-.25-.7,.16-.68Z"/><path class="d" d="M105.98,70.65c1.93-.03,3.86,.35,5.77,.63,1.93,.29,3.84,.63,5.75,1,.2,.04,.25,.38,.01,.39-3.79,.19-8.14,.05-11.66-1.48-.3-.13-.19-.54,.13-.55Z"/><path class="d" d="M101.29,72.97c4.27-.17,8.53,.87,12.73,1.45,.58,.08,.5,.98-.09,.91-4.24-.52-8.66-.62-12.75-1.9-.28-.09-.15-.46,.11-.47Z"/><path class="k" d="M90.34,100.71l.31-1.55c1.66-.11,3.31-1.42,4.41-2.82,2.42-3.08,3.83-6.93,3.97-10.82,.03-.91,.05-1.96,.74-2.57,.8-.71,2.07-.43,2.97,.13,1.91,1.19,3.04,3.36,4.97,4.53,2.28,1.39,5.51,1.01,7.45-.88,.84-.82,1.43-1.86,2.01-2.89l3.85-6.81c.05-.09,.1-.18,.15-.27l3.7,.92s-3.43,26.84-34.52,23.03Z"/></g><g><path class="j" d="M141.54,73.19c.48-3.27,1.07-6.45,2.02-9.63,1.01-3.35,1.99-6.67,2.84-10.07,.39-1.56,.93-3.11,1.15-4.66l3.46,8.37-6.7,27.66-3.56-8.2c.36-1.1,.6-2.27,.78-3.47Z"/><path class="l" d="M145.56,71.37c-.14-2.11,.71-4.46,1.32-6.47,.69-2.32,1.72-4.46,2.63-6.69,.05-.11,.22-.06,.18,.06-.72,2.14-1.16,4.4-1.7,6.59-.26,1.07-.53,2.13-.77,3.21-.25,1.12-.41,2.31-.9,3.35-.14,.31-.72,.38-.75-.05Z"/><path class="l" d="M144.37,68.71c-.48-4.07,2.1-7.97,2.87-11.86,.02-.11,.19-.1,.17,.01-.26,1.99-.59,3.91-1.1,5.85-.52,2-.86,4.04-1.38,6.03-.07,.28-.53,.24-.56-.04Z"/><path class="l" d="M143.13,77.24c.02-2.19,.66-4.2,1.34-6.26,.03-.09,.19-.07,.17,.03-.4,2.1-.6,4.23-1.19,6.29-.05,.19-.32,.11-.32-.06Z"/><path class="l" d="M141.28,75.53c.26-2.25,.98-4.39,1.34-6.62,.03-.18,.31-.17,.29,.02-.15,2.33-.28,4.52-1.33,6.66-.07,.15-.33,.13-.31-.06Z"/><path class="k" d="M140.76,76.66c.36-1.1,.6-2.27,.78-3.47,.48-3.27,1.07-6.45,2.02-9.63,1.01-3.35,1.99-6.67,2.84-10.07,.39-1.56,.93-3.11,1.15-4.66l2.7,6.53c-.03,.15-.06,.3-.09,.45-.81,4.61-2.96,8.86-4.72,13.16-1.61,3.94-2.92,8.31-2.62,12.44l-2.06-4.74Z"/><path class="e" d="M147.58,48.59s.07,0,.1,0c3.17,.34,6.23,1.27,9.35,1.9,5.95,1.21,11.99,2.07,18.08,2.24l2.26,.48,1.01,7.92-27.36-3.95-3.46-8.37c.01-.08,.02-.16,.03-.24Z"/><path class="i" d="M146.56,72.11c.61-3.47,1.52-6.88,2.73-10.19l1.72-4.72,18.24,2.03c.95,.11,1.89,.27,2.82,.48l6.3,1.44s-2.89,26.9-34.06,23.71l2.24-12.75Z"/><path class="c" d="M161.12,73.17c-.87-1.31-1.74-2.62-2.59-3.94-.88-1.37-1.77-2.71-2.71-4.04-.38-.53-.78-1.06-1.09-1.64-.4-.75-.58-1.58-.99-2.34-.06-.12,.11-.23,.2-.13,.52,.64,1.18,1.04,1.77,1.6,.57,.54,1.06,1.19,1.57,1.78,1.1,1.25,2.32,2.36,3.48,3.55,1.1,1.13,2.18,2.3,3.1,3.58,.95,1.32,2.01,2.71,2.48,4.28,.44,1.5-1.79,2.43-2.71,1.31-.98-1.2-1.65-2.71-2.51-4Z"/><path class="c" d="M159.63,62.62c-.16-.12,0-.35,.18-.26,.55,.28,1.27,.19,1.87,.38,.61,.19,1.2,.5,1.79,.75,1.14,.49,2.25,1.04,3.37,1.57,1.13,.53,2.27,1.04,3.4,1.55,1.14,.51,2.56,.91,3.36,1.91,.75,.93,.01,2.08-1.08,2.14-1.28,.06-2.52-.79-3.62-1.35-1.11-.57-2.2-1.18-3.27-1.81-1.07-.64-2.14-1.29-3.14-2.04-.52-.39-1.08-.78-1.55-1.23-.48-.45-.79-1.22-1.3-1.61Z"/><path class="c" d="M147.46,82.36c.05-.55,.28-1.02,.42-1.55,.17-.63,.3-1.28,.44-1.92,.3-1.36,.57-2.72,.84-4.08,.5-2.43,.74-5.16,2.03-7.32,.08-.13,.31-.12,.36,.02,.91,2.59,.38,5.72,.04,8.41-.18,1.44-.38,2.87-.6,4.3-.23,1.44-.31,3.11-1.98,3.53-.83,.21-1.62-.57-1.55-1.38Z"/><path class="g" d="M178.96,61.38s2.11,6.48-9.69,17.48c-11.8,11.01-25.05,6.2-25.05,6.2l4.64,.47,3.99-.79,1.08-1.12,1.63,1.01,6.53-1.36,5.59-3.67,.44-2.23,2.01-.54,2.41-3,4.13-6.59-.39-1.31,1.6-2.23,1.07-2.31Z"/><path class="h" d="M142.15,80.96c-.36-.83-.73-1.66-1.11-2.49-.17-.38-.38-.76-.52-1.15,.12-.31,.23-.63,.33-.96,.54,.48,.83,1.22,1.15,1.86,.41,.81,.79,1.63,1.15,2.47,.37,.83,1.32,3.31,1.27,3.76,1.49-.01,3.15,.24,4.64,.26,1.34,.02,3.91,.22,4.41-1.43,.09-.28,.42-.29,.61-.12,1.09,1,2.54,.94,3.91,.61,1.33-.31,2.66-.7,3.93-1.18,2.17-.82,5.85-2.53,6.03-5.22,.01-.21,.19-.42,.4-.45,1.09-.15,1.97-1.29,2.69-2.05,.89-.94,1.7-1.94,2.46-2.98,1.04-1.44,3.29-4.1,2.37-5.96-.08-.16,0-.39,.17-.47,1.57-.7,2.14-2.7,2.33-4.31-.12-.03-1.12-2.92-1.39-4.45-.2-1.12-.58-2.89,.12-3.9,.01-.02,.03-.04,.05-.04,.02,0,.05,0,.07-.01,.04,0,.08,.03,.1,.07,.26,.53,.24,1.1,.3,1.68,.08,.74,.22,1.46,.37,2.19,.31,1.44,1.06,4.6,.95,4.71,.37,1.78-.77,3.44-2.25,4.47,1.29,1.88-1.02,4.86-2.04,6.35-.9,1.3-1.92,2.52-3.02,3.66-.75,.77-1.67,1.92-2.81,2.04-.79,3.01-4.09,4.75-6.83,5.75-2.26,.83-6.06,2.36-8.08,.43-.61,1.09-2.03,1.41-3.24,1.48-2.06,.12-6.39-.47-6.47-.49-.65-.2-.72-.81-.96-1.4-.36-.9-.73-1.8-1.12-2.7Z"/><path class="h" d="M143.12,84.12s.02,0,.01,.02-.02,0-.01-.02Z"/><path class="f" d="M161.7,63.12c1.09,.56,2.31,.93,3.43,1.45,1.03,.49,2.05,.99,3.08,1.49,2.01,.97,4.05,1.79,5.84,3.14,.19,.15,.11,.5-.16,.47-2.3-.22-4.33-1.19-6.35-2.25-1.02-.53-2-1.09-2.96-1.73-1.09-.73-1.95-1.63-2.96-2.43-.09-.07,0-.2,.1-.15Z"/><path class="f" d="M161.9,74.05c-.9-1.21-1.74-2.47-2.56-3.73-.78-1.18-1.54-2.38-2.29-3.58-.79-1.27-1.43-2.61-2.24-3.87-.05-.07,.08-.16,.13-.08,.88,1.21,1.93,2.28,2.86,3.46,.93,1.17,1.87,2.34,2.81,3.51,.94,1.17,1.88,2.34,2.78,3.54,.8,1.06,1.63,2.11,2.03,3.4,.11,.36-.37,.6-.65,.43-1.21-.76-2.03-1.96-2.86-3.08Z"/><path class="f" d="M148.8,82.33c-.18-2.18,.57-4.52,1.07-6.64,.57-2.44,1.15-4.91,1.46-7.4,.01-.12,.18-.1,.18,.01-.09,2.49-.11,4.96-.37,7.44-.23,2.19-.52,4.8-1.74,6.7-.15,.23-.57,.17-.59-.12Z"/><path class="c" d="M151.74,62c0-.09,.13-.13,.18-.06,1.46,1.88,2.28,4.35,2.57,6.7,.03,.27-.3,.35-.43,.14-1.27-1.98-2.22-4.39-2.32-6.78Z"/><path class="c" d="M154.58,70.98c0-.17,.25-.21,.32-.06,.45,.93,1.21,2.11,1.06,3.19-.03,.21-.3,.41-.49,.24-.92-.78-.95-2.26-.89-3.37Z"/><path class="c" d="M159.69,60.25c2.14,.15,4.48,.67,6.5,1.37,.32,.11,.3,.61-.05,.67-2.21,.35-4.83-.21-6.63-1.53-.22-.16-.11-.54,.18-.52Z"/><path class="c" d="M170.86,62.89c.56-.17,1.27,.04,1.83,.17,.61,.15,1.22,.41,1.77,.71,.25,.13,.06,.46-.16,.47-.66,.03-1.36-.01-2-.15-.56-.12-1.2-.25-1.63-.65-.21-.19-.02-.48,.2-.55Z"/><path class="d" d="M156.31,50.64c.71,.01,1.42,.07,2.13,.14,1.84,.36,3.69,.67,5.54,.95,.36,.07,.73,.14,1.09,.21,1.39,.26,2.79,.51,4.18,.78,1.29,.25,2.73,.44,3.84,1.15,.09,.06,.05,.19-.05,.22-1.27,.35-2.7,.11-3.99-.05-1.5-.19-3-.43-4.49-.68-2.84-.49-5.75-.92-8.41-2.04-.36-.15-.27-.69,.14-.68Z"/><path class="d" d="M159.36,54.49c1.93-.07,3.87,.27,5.78,.52,1.93,.25,3.85,.55,5.77,.89,.2,.03,.26,.37,.02,.39-3.79,.27-8.14,.21-11.68-1.25-.3-.12-.2-.54,.12-.55Z"/><path class="d" d="M154.71,56.9c4.27-.25,8.54,.7,12.75,1.2,.58,.07,.52,.97-.07,.91-4.25-.44-8.67-.45-12.78-1.64-.28-.08-.15-.45,.1-.47Z"/><path class="k" d="M144.32,84.86l.27-1.56c1.66-.14,3.28-1.48,4.35-2.91,2.36-3.13,3.7-7.01,3.76-10.9,.01-.91,.01-1.96,.69-2.58,.79-.73,2.06-.47,2.97,.07,1.93,1.15,3.11,3.3,5.06,4.43,2.31,1.34,5.53,.9,7.43-1.03,.83-.84,1.4-1.89,1.95-2.93l3.71-6.89c.05-.09,.1-.18,.14-.27l3.71,.85s-2.89,26.9-34.06,23.71Z"/></g><g><path class="j" d="M148.19,79.47c2.62-2.03,5.24-3.91,8.13-5.54,3.05-1.72,6.06-3.43,9.02-5.29,1.36-.85,2.82-1.6,4.06-2.57l-3.31,8.44-24,15.3,3.12-8.38c1.03-.54,2.01-1.21,2.97-1.96Z"/><path class="l" d="M152.33,80.95c1.36-1.62,3.61-2.72,5.43-3.75,2.11-1.19,4.33-2.02,6.53-3,.11-.05,.2,.11,.09,.17-2,1.04-3.88,2.37-5.79,3.57-.93,.59-1.86,1.17-2.78,1.78-.96,.63-1.89,1.38-2.97,1.79-.32,.12-.79-.22-.51-.55Z"/><path class="l" d="M153.32,78.2c2.48-3.26,7.04-4.29,10.29-6.56,.09-.06,.2,.06,.12,.13-1.56,1.25-3.14,2.41-4.85,3.45-1.76,1.08-3.42,2.32-5.18,3.39-.25,.15-.55-.19-.38-.41Z"/><path class="l" d="M146.52,83.49c1.53-1.57,3.39-2.57,5.31-3.58,.08-.04,.18,.08,.1,.14-1.75,1.23-3.36,2.63-5.22,3.71-.17,.1-.31-.14-.19-.26Z"/><path class="l" d="M146.37,80.98c1.75-1.45,3.75-2.48,5.56-3.84,.15-.11,.34,.09,.2,.22-1.72,1.58-3.34,3.06-5.57,3.88-.16,.06-.33-.13-.18-.26Z"/><path class="k" d="M145.22,81.43c1.03-.54,2.01-1.21,2.97-1.96,2.62-2.03,5.24-3.91,8.13-5.54,3.05-1.72,6.06-3.43,9.02-5.29,1.36-.85,2.82-1.6,4.06-2.57l-2.58,6.58c-.13,.08-.25,.17-.38,.26-3.78,2.76-8.27,4.33-12.53,6.21-3.89,1.72-7.86,3.96-10.51,7.15l1.81-4.84Z"/><path class="e" d="M169.59,65.93s.04,.05,.06,.08c2.05,2.44,3.61,5.23,5.42,7.85,3.45,5,7.21,9.8,11.48,14.15l1.3,1.91-4.77,6.41-16.98-21.81,3.31-8.44c.06-.05,.12-.1,.18-.15Z"/><path class="i" d="M152.55,82.17c2.84-2.08,5.87-3.9,9.03-5.45l4.51-2.21,11.74,14.11c.61,.73,1.18,1.5,1.7,2.3l3.54,5.41s-20.74,17.39-40.98-6.52l10.46-7.64Z"/><path class="c" d="M162.31,93.03c.28-1.55,.56-3.09,.86-4.63,.31-1.6,.61-3.18,.85-4.79,.1-.65,.18-1.31,.35-1.94,.23-.82,.68-1.54,.91-2.37,.04-.13,.24-.09,.23,.04-.07,.82,.13,1.56,.17,2.37,.04,.79-.06,1.59-.1,2.37-.07,1.66,.04,3.31,.05,4.97,.01,1.58-.02,3.16-.24,4.73-.23,1.61-.43,3.35-1.18,4.8-.72,1.39-2.97,.51-2.86-.93,.12-1.54,.69-3.1,.97-4.63Z"/><path class="c" d="M168.55,84.39c-.03-.2,.24-.25,.31-.07,.2,.59,.78,1.02,1.08,1.57,.31,.56,.52,1.2,.77,1.78,.48,1.14,.9,2.31,1.34,3.47,.45,1.16,.91,2.32,1.38,3.48,.46,1.16,1.21,2.43,1.1,3.7-.1,1.19-1.44,1.51-2.26,.79-.96-.84-1.27-2.32-1.67-3.48-.41-1.18-.77-2.37-1.1-3.57-.33-1.2-.65-2.41-.85-3.64-.11-.64-.23-1.31-.27-1.96-.03-.66,.28-1.43,.18-2.06Z"/><path class="c" d="M146.09,90.18c.41-.36,.91-.54,1.38-.82,.56-.34,1.1-.72,1.65-1.08,1.16-.77,2.29-1.57,3.44-2.36,2.04-1.41,4.11-3.21,6.54-3.87,.15-.04,.31,.13,.25,.27-1.14,2.5-3.69,4.38-5.8,6.09-1.12,.91-2.26,1.81-3.41,2.68-1.16,.88-2.38,2.03-3.87,1.17-.74-.43-.77-1.53-.16-2.07Z"/><path class="g" d="M183.34,96.9s-2.97,6.13-19.1,5.89c-16.13-.24-22.35-12.9-22.35-12.9l3.02,3.55,3.42,2.2,1.55-.06,.48,1.85,5.65,3.54,6.58,1.23,1.86-1.3,1.83,1.01,3.82-.49,7.55-1.89,.63-1.21,2.7-.5,2.37-.92Z"/><path class="h" d="M143.23,85.5c.32-.85,.62-1.71,.92-2.56,.14-.4,.26-.81,.42-1.19,.3-.14,.6-.3,.9-.46,.05,.72-.25,1.45-.46,2.14-.27,.87-.57,1.72-.88,2.58-.31,.85-1.35,3.3-1.69,3.58,1.08,1.02,2.11,2.35,3.16,3.4,.95,.94,2.66,2.87,4.17,2.03,.26-.14,.51,.08,.52,.33,.09,1.47,1.19,2.44,2.39,3.15,1.18,.69,2.4,1.34,3.66,1.87,2.14,.91,5.97,2.24,7.97,.42,.15-.14,.43-.17,.6-.04,.89,.64,2.31,.43,3.36,.39,1.29-.06,2.57-.22,3.84-.44,1.75-.31,5.21-.67,5.84-2.66,.06-.17,.27-.28,.44-.22,1.62,.59,3.42-.46,4.67-1.49-.06-.1,1.22-2.88,2.09-4.17,.63-.95,1.59-2.48,2.79-2.73,.02,0,.05,0,.07,0,.02,.01,.04,.03,.06,.04,.03,.03,.04,.08,.02,.12-.17,.56-.59,.96-.95,1.42-.46,.59-.86,1.2-1.25,1.83-.77,1.26-2.43,4.06-2.58,4.05-.96,1.54-2.94,1.94-4.72,1.66-.37,2.24-4.1,2.8-5.87,3.16-1.55,.32-3.13,.49-4.71,.54-1.08,.04-2.54,.23-3.44-.48-2.66,1.62-6.24,.59-8.91-.59-2.2-.97-6-2.5-6.12-5.29-1.19,.36-2.44-.39-3.36-1.18-1.56-1.34-4.28-4.77-4.32-4.83-.33-.6,.05-1.08,.28-1.67,.36-.9,.72-1.81,1.06-2.72Z"/><path class="h" d="M141.75,88.45s.01,.02,0,.02-.01-.02,0-.02Z"/><path class="f" d="M169.7,86.19c.4,1.16,1.02,2.27,1.46,3.42,.41,1.07,.79,2.14,1.19,3.21,.77,2.09,1.68,4.1,2.03,6.31,.04,.24-.27,.43-.45,.23-1.51-1.76-2.29-3.86-3.02-6.02-.37-1.09-.69-2.18-.93-3.3-.28-1.28-.28-2.52-.45-3.8-.02-.12,.14-.15,.18-.04Z"/><path class="f" d="M162.26,94.2c.2-1.5,.46-2.98,.74-4.47,.26-1.39,.53-2.78,.83-4.17,.31-1.46,.78-2.87,1.07-4.34,.02-.08,.16-.06,.15,.03-.21,1.49-.2,2.98-.34,4.48-.14,1.49-.28,2.98-.41,4.48-.14,1.5-.27,2.99-.45,4.48-.16,1.32-.29,2.65-.89,3.85-.17,.34-.69,.18-.77-.14-.35-1.38-.11-2.82,.08-4.21Z"/><path class="f" d="M147.08,91.09c1.39-1.7,3.54-2.86,5.37-4.04,2.11-1.36,4.23-2.74,6.18-4.32,.09-.07,.2,.05,.12,.13-1.79,1.73-3.52,3.5-5.42,5.11-1.68,1.42-3.7,3.1-5.9,3.62-.26,.06-.53-.27-.35-.5Z"/><path class="c" d="M163.29,78.48c.06-.07,.18,0,.17,.08-.25,2.37-1.38,4.71-2.79,6.61-.16,.22-.46,.05-.41-.2,.46-2.31,1.44-4.71,3.03-6.5Z"/><path class="c" d="M159.11,86.92c.12-.12,.32,.02,.27,.18-.32,.98-.59,2.36-1.45,3.03-.17,.13-.5,.09-.52-.17-.12-1.2,.88-2.29,1.7-3.05Z"/><path class="c" d="M170.23,82.72c1.44,1.59,2.76,3.59,3.73,5.49,.15,.3-.21,.65-.5,.45-1.84-1.28-3.33-3.5-3.72-5.69-.05-.27,.29-.46,.49-.25Z"/><path class="c" d="M176.45,92.37c.52,.27,.89,.91,1.2,1.39,.33,.53,.59,1.14,.78,1.73,.09,.27-.28,.37-.45,.23-.5-.44-.97-.95-1.33-1.5-.32-.48-.69-1.01-.73-1.59-.02-.28,.32-.36,.52-.26Z"/><path class="d" d="M174.46,73.45c.51,.5,.98,1.04,1.44,1.58,1.08,1.53,2.19,3.04,3.34,4.53,.21,.3,.43,.61,.64,.91,.83,1.15,1.65,2.3,2.47,3.46,.75,1.07,1.66,2.2,1.97,3.49,.03,.11-.09,.17-.18,.12-1.16-.63-2.03-1.79-2.84-2.8-.95-1.18-1.87-2.39-2.77-3.61-1.71-2.32-3.5-4.65-4.65-7.29-.16-.36,.29-.68,.58-.39Z"/><path class="d" d="M173.98,78.34c1.44,1.29,2.6,2.88,3.81,4.38,1.22,1.52,2.39,3.07,3.54,4.64,.12,.16-.07,.45-.25,.29-2.92-2.43-6.01-5.49-7.56-9-.13-.3,.22-.53,.46-.31Z"/><path class="d" d="M168.97,76.86c3.25,2.77,5.68,6.43,8.36,9.7,.37,.45-.3,1.06-.68,.61-2.76-3.26-5.94-6.33-8.07-10.04-.15-.26,.2-.43,.4-.27Z"/><path class="k" d="M142.1,89.81l1.28-.93c1.29,1.05,3.39,1.21,5.15,.92,3.87-.62,7.52-2.49,10.26-5.25,.64-.65,1.36-1.4,2.29-1.38,1.07,.02,1.81,1.09,2.09,2.11,.59,2.17-.04,4.53,.57,6.7,.73,2.57,3.37,4.48,6.07,4.41,1.18-.03,2.32-.39,3.44-.75l7.45-2.39c.1-.03,.19-.06,.29-.09l2.09,3.19s-20.74,17.39-40.98-6.52Z"/></g><g><path class="j" d="M112.4,44.58c3.1-1.15,6.17-2.15,9.42-2.83,3.43-.72,6.81-1.45,10.2-2.33,1.56-.4,3.17-.68,4.64-1.23l-5.69,7.05-27.49,7.37,5.5-7.05c1.14-.21,2.28-.56,3.42-.98Z"/><path class="l" d="M115.92,47.24c1.78-1.13,4.26-1.51,6.31-1.95,2.37-.5,4.73-.62,7.13-.9,.12-.01,.15,.16,.03,.18-2.23,.39-4.41,1.09-6.6,1.67-1.06,.28-2.13,.56-3.19,.86-1.1,.32-2.22,.75-3.37,.81-.34,.02-.68-.45-.32-.68Z"/><path class="l" d="M117.68,44.92c3.34-2.37,8.01-1.97,11.79-3.16,.1-.03,.18,.11,.07,.16-1.87,.73-3.71,1.35-5.67,1.84-2.01,.5-3.96,1.18-5.96,1.68-.28,.07-.47-.35-.24-.51Z"/><path class="l" d="M109.6,47.92c1.93-1.03,4-1.43,6.14-1.82,.09-.02,.15,.13,.05,.16-2.03,.65-3.99,1.5-6.09,1.97-.19,.04-.25-.23-.1-.31Z"/><path class="l" d="M110.21,45.47c2.1-.85,4.32-1.24,6.45-1.99,.18-.06,.3,.19,.12,.27-2.11,.99-4.1,1.92-6.48,2.03-.17,0-.28-.23-.1-.3Z"/><path class="k" d="M108.98,45.56c1.14-.21,2.28-.56,3.42-.98,3.1-1.15,6.17-2.15,9.42-2.83,3.43-.72,6.81-1.45,10.2-2.33,1.56-.4,3.17-.68,4.64-1.23l-4.44,5.5c-.14,.04-.29,.09-.44,.14-4.43,1.49-9.19,1.64-13.81,2.16-4.23,.47-8.69,1.42-12.17,3.66l3.18-4.08Z"/><path class="e" d="M136.89,38.1s.03,.06,.04,.09c1.22,2.95,1.87,6.08,2.81,9.12,1.79,5.8,3.93,11.52,6.69,16.95l.66,2.22-6.47,4.68-9.64-25.91,5.69-7.05c.07-.03,.15-.06,.22-.09Z"/><path class="i" d="M115.76,48.47c3.34-1.12,6.77-1.96,10.26-2.48l4.96-.75,6.96,16.99c.36,.88,.67,1.79,.93,2.7l1.75,6.22s-25,10.35-37.13-18.54l12.27-4.14Z"/><path class="c" d="M121.79,61.76c.73-1.39,1.47-2.78,2.22-4.16,.78-1.43,1.53-2.85,2.25-4.31,.29-.59,.56-1.2,.92-1.74,.47-.71,1.11-1.27,1.58-1.99,.07-.11,.26-.01,.21,.11-.31,.76-.35,1.53-.56,2.31-.2,.76-.54,1.5-.81,2.23-.57,1.56-.96,3.16-1.45,4.75-.46,1.51-.97,3.01-1.65,4.43-.7,1.46-1.42,3.06-2.57,4.22-1.1,1.11-2.99-.4-2.45-1.74,.58-1.43,1.59-2.75,2.31-4.12Z"/><path class="c" d="M130.34,55.4c.03-.2,.31-.17,.31,.03,.02,.62,.44,1.21,.56,1.82,.13,.62,.14,1.3,.2,1.93,.11,1.24,.16,2.47,.24,3.71,.08,1.24,.17,2.49,.27,3.73,.09,1.24,.42,2.68-.07,3.86-.46,1.1-1.82,1.01-2.39,.07-.66-1.09-.51-2.59-.55-3.82-.03-1.25-.02-2.49,.03-3.74,.05-1.25,.11-2.49,.28-3.73,.09-.64,.17-1.32,.33-1.95,.17-.64,.69-1.28,.79-1.91Z"/><path class="c" d="M107.19,54.17c.5-.22,1.03-.24,1.56-.37,.64-.16,1.27-.35,1.9-.54,1.33-.39,2.66-.81,3.99-1.21,2.37-.73,4.88-1.83,7.4-1.73,.15,0,.26,.21,.15,.33-1.84,2.04-4.84,3.07-7.36,4.07-1.34,.53-2.7,1.04-4.06,1.53-1.37,.49-2.88,1.22-4.05-.05-.58-.63-.28-1.7,.47-2.02Z"/><path class="g" d="M140.69,71.77s-4.68,4.95-19.99-.13c-15.31-5.08-17.44-19.02-17.44-19.02l1.81,4.29,2.6,3.12,1.5,.41-.1,1.91,4.33,5.08,5.9,3.15,2.17-.68,1.44,1.51,3.79,.68,7.77,.47,.96-.97,2.72,.34,2.54-.16Z"/><path class="h" d="M105.87,48.84c.56-.71,1.11-1.44,1.65-2.16,.25-.34,.49-.69,.76-1.01,.33-.04,.66-.1,1-.17-.17,.7-.67,1.31-1.08,1.9-.52,.75-1.06,1.47-1.61,2.19-.55,.72-2.28,2.74-2.69,2.91,.73,1.3,1.3,2.88,1.99,4.2,.62,1.19,1.68,3.54,3.37,3.19,.29-.06,.46,.23,.4,.48-.36,1.43,.4,2.68,1.33,3.72,.91,1.01,1.89,2,2.92,2.89,1.76,1.51,5.02,3.93,7.47,2.79,.19-.09,.46-.03,.59,.14,.66,.88,2.07,1.11,3.09,1.38,1.25,.33,2.52,.57,3.79,.73,1.76,.23,5.17,.93,6.37-.78,.11-.15,.34-.19,.49-.08,1.37,1.05,3.4,.59,4.9-.02-.03-.12,2.03-2.38,3.24-3.35,.89-.71,2.26-1.89,3.48-1.76,.02,0,.05,.01,.06,.02,.01,.02,.03,.04,.04,.06,.02,.04,.01,.08-.01,.12-.34,.48-.85,.73-1.33,1.07-.61,.42-1.18,.89-1.74,1.37-1.12,.97-3.53,3.14-3.68,3.09-1.38,1.18-3.39,.97-5,.17-1.03,2.03-4.75,1.43-6.55,1.25-1.57-.16-3.13-.48-4.65-.9-1.04-.29-2.49-.55-3.14-1.49-3.02,.75-6.13-1.32-8.32-3.24-1.81-1.59-4.97-4.18-4.24-6.89-1.25-.01-2.21-1.11-2.85-2.13-1.09-1.75-2.65-5.83-2.67-5.91-.14-.67,.37-1.02,.77-1.51,.62-.75,1.23-1.5,1.83-2.27Z"/><path class="h" d="M103.56,51.21s0,.02,0,.02,0-.02,0-.02Z"/><path class="f" d="M130.9,57.46c.04,1.23,.29,2.47,.37,3.7,.07,1.14,.11,2.28,.17,3.42,.11,2.23,.37,4.42,.04,6.63-.04,.24-.39,.33-.49,.08-.91-2.13-1.02-4.37-1.07-6.65-.02-1.15,0-2.28,.1-3.43,.12-1.3,.49-2.49,.71-3.76,.02-.11,.18-.1,.18,.02Z"/><path class="f" d="M121.39,62.86c.64-1.37,1.34-2.71,2.05-4.04,.67-1.25,1.35-2.49,2.04-3.72,.74-1.3,1.61-2.5,2.32-3.82,.04-.08,.17,0,.14,.07-.64,1.35-1.08,2.78-1.67,4.17-.58,1.38-1.16,2.76-1.74,4.15-.58,1.39-1.16,2.77-1.78,4.14-.55,1.21-1.07,2.44-2.01,3.41-.27,.27-.71-.04-.69-.36,.09-1.42,.75-2.72,1.34-3.99Z"/><path class="f" d="M107.85,55.33c1.83-1.2,4.24-1.66,6.34-2.24,2.42-.67,4.86-1.34,7.19-2.27,.11-.04,.18,.11,.08,.16-2.23,1.12-4.41,2.28-6.71,3.24-2.03,.85-4.47,1.84-6.72,1.68-.27-.02-.42-.42-.18-.58Z"/><path class="c" d="M127.11,48.18c.08-.05,.17,.05,.14,.13-.95,2.19-2.73,4.08-4.65,5.47-.22,.16-.45-.09-.33-.31,1.13-2.06,2.79-4.06,4.84-5.29Z"/><path class="c" d="M120.58,54.97c.15-.07,.3,.12,.21,.25-.6,.84-1.28,2.07-2.3,2.46-.2,.08-.5-.07-.45-.31,.24-1.18,1.53-1.92,2.54-2.39Z"/><path class="c" d="M132.45,54.31c.89,1.95,1.56,4.25,1.91,6.36,.06,.33-.4,.56-.61,.27-1.37-1.77-2.13-4.34-1.83-6.55,.04-.27,.42-.35,.54-.09Z"/><path class="c" d="M135.48,65.39c.42,.41,.58,1.14,.72,1.69,.16,.61,.22,1.26,.23,1.89,0,.28-.38,.27-.49,.08-.34-.57-.64-1.2-.82-1.83-.16-.55-.35-1.17-.21-1.74,.07-.27,.42-.25,.58-.09Z"/><path class="d" d="M139.27,46.74c.33,.63,.62,1.28,.89,1.94,.57,1.79,1.17,3.56,1.82,5.32,.11,.35,.23,.71,.34,1.06,.44,1.35,.89,2.69,1.31,4.04,.4,1.25,.92,2.6,.83,3.92,0,.11-.14,.13-.21,.06-.92-.95-1.39-2.32-1.87-3.52-.55-1.41-1.06-2.84-1.55-4.27-.93-2.72-1.94-5.49-2.24-8.35-.04-.39,.48-.56,.67-.2Z"/><path class="d" d="M137.35,51.26c.99,1.67,1.62,3.53,2.31,5.32,.71,1.82,1.36,3.64,1.98,5.49,.06,.19-.2,.41-.33,.2-2.05-3.2-4.08-7.04-4.5-10.85-.04-.33,.37-.44,.54-.16Z"/><path class="d" d="M133.01,48.34c2.27,3.62,3.48,7.83,5.06,11.77,.22,.54-.61,.92-.84,.37-1.65-3.94-3.76-7.82-4.68-12.01-.06-.29,.32-.35,.46-.14Z"/><path class="k" d="M103.49,52.61l1.5-.51c.92,1.39,2.87,2.17,4.64,2.43,3.88,.57,7.92-.11,11.37-1.92,.81-.43,1.72-.93,2.6-.63,1.02,.34,1.4,1.58,1.36,2.64-.09,2.25-1.4,4.31-1.47,6.56-.07,2.67,1.86,5.29,4.46,6.03,1.13,.32,2.33,.32,3.5,.31l7.82-.04c.1,0,.2,0,.31,0l1.03,3.67s-25,10.35-37.13-18.54Z"/></g><g><path class="j" d="M81.81,11.89c3.08-1.2,6.13-2.26,9.37-3,3.41-.78,6.78-1.57,10.16-2.51,1.55-.43,3.16-.73,4.62-1.31l-5.57,7.15-27.36,7.84,5.37-7.14c1.14-.23,2.27-.59,3.4-1.04Z"/><path class="l" d="M85.36,14.48c1.76-1.16,4.23-1.58,6.28-2.05,2.36-.54,4.72-.71,7.11-1.02,.12-.02,.16,.16,.04,.18-2.22,.43-4.4,1.17-6.57,1.78-1.06,.3-2.12,.59-3.17,.92-1.1,.34-2.21,.78-3.36,.87-.34,.03-.69-.44-.33-.68Z"/><path class="l" d="M87.09,12.13c3.3-2.42,7.97-2.11,11.73-3.36,.1-.03,.18,.11,.07,.15-1.85,.76-3.69,1.42-5.63,1.93-2,.53-3.94,1.25-5.93,1.78-.28,.07-.47-.34-.24-.5Z"/><path class="l" d="M79.06,15.27c1.91-1.07,3.98-1.5,6.11-1.93,.09-.02,.15,.13,.05,.16-2.02,.68-3.97,1.57-6.06,2.07-.19,.05-.26-.22-.1-.31Z"/><path class="l" d="M79.63,12.82c2.08-.89,4.3-1.31,6.42-2.1,.18-.07,.3,.18,.13,.26-2.1,1.02-4.07,1.99-6.45,2.14-.17,.01-.28-.22-.1-.3Z"/><path class="k" d="M78.4,12.93c1.14-.23,2.27-.59,3.4-1.04,3.08-1.2,6.13-2.26,9.37-3,3.41-.78,6.78-1.57,10.16-2.51,1.55-.43,3.16-.73,4.62-1.31l-4.34,5.58c-.14,.04-.29,.09-.44,.14-4.41,1.57-9.16,1.8-13.77,2.4-4.22,.54-8.66,1.57-12.11,3.87l3.11-4.13Z"/><path class="e" d="M106.17,4.99s.03,.06,.04,.09c1.27,2.93,1.98,6.05,2.96,9.07,1.89,5.77,4.12,11.45,6.98,16.83l.7,2.2-6.39,4.79-10.08-25.74,5.57-7.15c.07-.03,.15-.06,.22-.09Z"/><path class="i" d="M85.22,15.72c3.32-1.18,6.73-2.07,10.21-2.66l4.95-.84,7.25,16.86c.38,.88,.7,1.78,.98,2.69l1.86,6.19s-24.82,10.78-37.44-17.9l12.2-4.35Z"/><path class="c" d="M91.49,28.9c.71-1.4,1.42-2.8,2.14-4.2,.75-1.44,1.48-2.88,2.17-4.35,.28-.59,.54-1.2,.89-1.76,.45-.72,1.09-1.29,1.55-2.01,.07-.11,.26-.02,.21,.11-.3,.77-.32,1.54-.52,2.32-.19,.76-.51,1.5-.77,2.25-.54,1.57-.9,3.18-1.36,4.78-.44,1.52-.92,3.03-1.58,4.46-.67,1.48-1.36,3.09-2.5,4.27-1.09,1.13-3-.35-2.48-1.7,.56-1.44,1.54-2.78,2.24-4.16Z"/><path class="c" d="M99.93,22.4c.03-.2,.31-.17,.31,.02,.03,.62,.46,1.2,.59,1.81,.14,.62,.16,1.3,.23,1.93,.14,1.23,.2,2.47,.3,3.71,.1,1.24,.22,2.48,.33,3.72,.11,1.24,.47,2.67,0,3.86-.44,1.11-1.81,1.04-2.39,.11-.68-1.08-.56-2.59-.61-3.81-.06-1.25-.06-2.49-.04-3.74,.02-1.25,.07-2.49,.22-3.73,.08-.65,.15-1.32,.3-1.95,.15-.64,.67-1.29,.75-1.92Z"/><path class="c" d="M76.75,21.56c.5-.23,1.03-.26,1.55-.4,.63-.17,1.26-.38,1.89-.57,1.33-.41,2.64-.85,3.96-1.28,2.36-.77,4.85-1.91,7.37-1.86,.15,0,.26,.21,.16,.33-1.8,2.07-4.78,3.15-7.29,4.19-1.34,.56-2.68,1.09-4.03,1.6-1.36,.51-2.86,1.27-4.05,.02-.59-.62-.31-1.69,.43-2.03Z"/><path class="g" d="M110.55,38.59s-4.59,5.03-19.99,.22c-15.4-4.82-17.76-18.72-17.76-18.72l1.88,4.26,2.66,3.08,1.5,.38-.07,1.91,4.41,5,5.96,3.05,2.15-.72,1.47,1.48,3.8,.61,7.77,.34,.95-.99,2.73,.29,2.54-.21Z"/><path class="h" d="M75.34,16.26c.55-.72,1.08-1.46,1.61-2.19,.25-.34,.47-.7,.74-1.02,.33-.05,.66-.11,.99-.19-.15,.71-.65,1.32-1.05,1.92-.5,.76-1.03,1.49-1.57,2.22-.54,.73-2.23,2.78-2.64,2.96,.75,1.29,1.35,2.86,2.07,4.16,.64,1.18,1.74,3.51,3.43,3.13,.29-.07,.46,.22,.41,.47-.33,1.44,.44,2.68,1.4,3.7,.93,1,1.92,1.96,2.97,2.83,1.79,1.48,5.09,3.84,7.52,2.67,.19-.09,.46-.04,.59,.13,.67,.87,2.09,1.07,3.11,1.33,1.25,.31,2.52,.52,3.81,.67,1.77,.2,5.19,.84,6.36-.89,.1-.15,.34-.19,.49-.08,1.39,1.02,3.41,.53,4.9-.11-.03-.12,1.99-2.41,3.19-3.41,.87-.73,2.23-1.93,3.45-1.82,.02,0,.05,.01,.06,.02,.02,.02,.03,.04,.04,.06,.02,.04,.02,.08-.01,.12-.33,.49-.84,.75-1.31,1.09-.6,.43-1.16,.91-1.72,1.4-1.1,.98-3.48,3.2-3.62,3.15-1.36,1.2-3.37,1.03-4.99,.25-1,2.04-4.73,1.52-6.53,1.36-1.57-.14-3.14-.42-4.67-.82-1.04-.27-2.5-.5-3.16-1.44-3.01,.8-6.15-1.21-8.37-3.1-1.84-1.56-5.05-4.1-4.36-6.81-1.25,.01-2.23-1.07-2.89-2.09-1.12-1.73-2.75-5.79-2.77-5.86-.15-.67,.35-1.03,.75-1.52,.6-.76,1.21-1.53,1.79-2.3Z"/><path class="h" d="M73.08,18.67s0,.02,0,.02,0-.02,0-.02Z"/><path class="f" d="M100.52,24.44c.06,1.23,.34,2.46,.43,3.7,.09,1.14,.15,2.27,.22,3.41,.15,2.22,.45,4.41,.15,6.62-.03,.24-.38,.34-.49,.09-.94-2.11-1.1-4.35-1.18-6.63-.04-1.15-.04-2.28,.04-3.43,.09-1.3,.45-2.5,.65-3.78,.02-.12,.17-.1,.18,.01Z"/><path class="f" d="M91.11,30.01c.61-1.38,1.29-2.73,1.98-4.07,.65-1.26,1.3-2.51,1.98-3.76,.71-1.31,1.57-2.53,2.26-3.85,.04-.08,.17,0,.14,.07-.62,1.37-1.03,2.8-1.59,4.2-.56,1.39-1.12,2.78-1.67,4.17-.55,1.4-1.11,2.79-1.71,4.17-.53,1.22-1.03,2.46-1.95,3.44-.26,.28-.71-.03-.7-.35,.06-1.42,.7-2.73,1.27-4.01Z"/><path class="f" d="M77.44,22.72c1.81-1.23,4.21-1.73,6.3-2.35,2.41-.71,4.84-1.42,7.15-2.39,.11-.04,.18,.11,.08,.16-2.21,1.15-4.37,2.36-6.65,3.36-2.02,.89-4.43,1.92-6.69,1.79-.27-.02-.43-.41-.19-.57Z"/><path class="c" d="M96.57,15.23c.08-.05,.17,.05,.14,.13-.92,2.2-2.66,4.13-4.56,5.55-.22,.16-.45-.08-.34-.31,1.09-2.08,2.72-4.1,4.75-5.37Z"/><path class="c" d="M90.16,22.13c.15-.08,.3,.11,.21,.25-.58,.85-1.24,2.09-2.25,2.5-.2,.08-.5-.06-.45-.31,.22-1.19,1.49-1.94,2.49-2.44Z"/><path class="c" d="M102.02,21.27c.93,1.94,1.63,4.23,2.02,6.33,.06,.33-.39,.56-.61,.28-1.4-1.75-2.2-4.3-1.95-6.51,.03-.27,.41-.36,.54-.1Z"/><path class="c" d="M105.24,32.29c.43,.41,.6,1.13,.75,1.67,.17,.6,.24,1.26,.26,1.88,0,.28-.37,.28-.49,.09-.35-.56-.66-1.19-.85-1.81-.17-.55-.37-1.17-.24-1.73,.06-.27,.41-.25,.57-.1Z"/><path class="d" d="M108.71,13.58c.34,.63,.65,1.27,.93,1.93,.6,1.78,1.24,3.54,1.91,5.29,.12,.35,.24,.7,.36,1.05,.47,1.34,.93,2.67,1.38,4.02,.42,1.24,.97,2.59,.9,3.91,0,.11-.14,.14-.21,.07-.94-.93-1.43-2.29-1.93-3.49-.58-1.4-1.11-2.82-1.63-4.24-.98-2.71-2.04-5.45-2.38-8.31-.05-.39,.47-.57,.66-.21Z"/><path class="d" d="M106.86,18.14c1.01,1.65,1.68,3.5,2.4,5.28,.74,1.81,1.42,3.62,2.08,5.45,.07,.19-.19,.41-.33,.21-2.1-3.16-4.21-6.97-4.69-10.77-.04-.33,.37-.44,.53-.17Z"/><path class="d" d="M102.47,15.3c2.33,3.58,3.62,7.77,5.26,11.68,.23,.54-.59,.93-.83,.39-1.72-3.91-3.89-7.76-4.89-11.92-.07-.29,.32-.36,.46-.15Z"/><path class="k" d="M73.03,20.07l1.49-.53c.94,1.37,2.91,2.12,4.68,2.35,3.89,.5,7.92-.25,11.33-2.12,.8-.44,1.71-.96,2.59-.68,1.02,.32,1.43,1.56,1.41,2.62-.05,2.25-1.33,4.33-1.35,6.58-.03,2.67,1.95,5.25,4.57,5.96,1.14,.31,2.33,.28,3.51,.25l7.82-.18c.1,0,.2,0,.31,0l1.1,3.65s-24.82,10.78-37.44-17.9Z"/></g></g></g></g></svg>