<?xml version="1.0" encoding="utf-8"?>
<!-- Generator: Adobe Illustrator 26.2.1, SVG Export Plug-In . SVG Version: 6.00 Build 0)  -->
<svg version="1.1" id="a" xmlns="http://www.w3.org/2000/svg" xmlns:xlink="http://www.w3.org/1999/xlink" x="0px" y="0px"
	 viewBox="0 0 256 200" style="enable-background:new 0 0 256 200;" xml:space="preserve">
<style type="text/css">
	.st0{fill-rule:evenodd;clip-rule:evenodd;fill:#962269;stroke:#74184F;stroke-width:0.25;stroke-miterlimit:10;}
	.st1{fill-rule:evenodd;clip-rule:evenodd;fill:#E0BE4F;}
	.st2{fill:#DBB042;}
	.st3{fill-rule:evenodd;clip-rule:evenodd;fill:#E8BE60;}
	.st4{fill-rule:evenodd;clip-rule:evenodd;fill:#7F165C;stroke:#74184F;stroke-width:0.25;stroke-miterlimit:10;}
	.st5{fill-rule:evenodd;clip-rule:evenodd;fill:#FFE1A4;}
	.st6{fill-rule:evenodd;clip-rule:evenodd;fill:#F6D275;}
	.st7{fill-rule:evenodd;clip-rule:evenodd;fill:#771356;stroke:#74184F;stroke-width:0.25;stroke-miterlimit:10;}
	.st8{fill-rule:evenodd;clip-rule:evenodd;fill:#CE9F29;}
	.st9{fill:#BF8F2E;}
	.st10{fill-rule:evenodd;clip-rule:evenodd;fill:#7C1459;stroke:#74184F;stroke-width:0.25;stroke-miterlimit:10;}
	.st11{fill-rule:evenodd;clip-rule:evenodd;fill:#CE9B41;}
	.st12{fill-rule:evenodd;clip-rule:evenodd;fill:#680D52;stroke:#74184F;stroke-width:0.25;stroke-miterlimit:10;}
	.st13{fill-rule:evenodd;clip-rule:evenodd;fill:#82195F;stroke:#74184F;stroke-width:0.25;stroke-miterlimit:10;}
	.st14{fill-rule:evenodd;clip-rule:evenodd;fill:#C99B2B;}
	.st15{fill:#C19130;}
	.st16{fill-rule:evenodd;clip-rule:evenodd;fill:#D6AE54;}
	.st17{fill-rule:evenodd;clip-rule:evenodd;fill:#F2CF81;}
	.st18{fill-rule:evenodd;clip-rule:evenodd;fill:#FFDA88;}
	.st19{fill-rule:evenodd;clip-rule:evenodd;fill:#D3AA37;}
	.st20{fill-rule:evenodd;clip-rule:evenodd;fill:#FFD576;}
	.st21{fill-rule:evenodd;clip-rule:evenodd;fill:#82175E;stroke:#74184F;stroke-width:0.25;stroke-miterlimit:10;}
	.st22{fill-rule:evenodd;clip-rule:evenodd;fill:#E0AF61;}
	.st23{fill-rule:evenodd;clip-rule:evenodd;fill:#841860;stroke:#74184F;stroke-width:0.25;stroke-miterlimit:10;}
	.st24{fill-rule:evenodd;clip-rule:evenodd;fill:#A0307B;stroke:#74184F;stroke-width:0.25;stroke-miterlimit:10;}
</style>
<g>
	<g>
		<g>
			<g>
				<path class="st0" d="M169.6,62.1c-2,1.8-2.4,4.2-2.4,4.5c0,0.1,0,0.1-0.1,0.2c-0.1,0.1-0.9,0.2-1.1,0.2
					c-0.3,0.1-0.6,0.1-0.8,0.1c-0.2,0-0.4,0.2-0.6,0.1c-1.9-0.7-4-1-6-0.8c-2.2,0-4.5,0.5-6.4,1.2c-3.1,1.1-6,2.8-8.5,5
					c-1.1,1-2.1,2.2-2.9,3.5c-1.2,0.5-2.4,1.6-4,2.3c-0.1-0.1-0.6-0.5-0.7-0.6c-4.6-3.6-11.6-16.9-1.2-24.7
					c10.6-8,18.3-6.8,25.2-5.2c6.9,1.6,11.6,8.6,12,10.1C172.6,59.4,171.6,60.3,169.6,62.1z"/>
			</g>
		</g>
		<g>
			<path class="st1" d="M164.6,67.2c0,0-2.7-0.6-3-0.7c-1.1-0.1-2.1-0.1-3.2-0.1c-2.1,0.1-4.1,0.5-6.1,1.2c-3.1,1.1-6,2.8-8.5,5
				c-1.1,1-1.5,2-2.3,3.3c-1.2,0.5-2.7,1.4-4.1,2.3c-3.2-2.2-5.2-5.7-6.3-9.4c-1.8-5.7-0.9-10.8,5.1-15.7c1.3-1,3.1-1.9,4.3-2.6
				c3.3-1.9,7.1-2.3,10.8-1.4c1.6,0.4,3,1.1,4.5,1.7c1.3,0.6,2.6,1.3,3.8,2c1.1,0.7,2.1,1.6,3,2.4c0.9,0.9,1.5,1.8,2,3
				c0.5,1,0.6,2.1,0.7,3.2c0.1,1.2,0,2.4-0.2,3.6C165.1,65.8,164.9,66.6,164.6,67.2z"/>
		</g>
		<g>
			<path class="st2" d="M160.7,60.7c-0.2,0.7-0.5,1.6-0.1,2.2c0.4,0.7,2.4,0.4,3.9,0.5c-1,0.2-1.6,0.7-2.4,1.1
				c-0.6,0.3-0.4,1.1-0.2,2c-4.2-1.2-10.5,0.9-13.7,3.2c0,0,0,0-0.1,0.1c-2.8,1.5-5.2,3.5-6.8,6.2c-0.2,0.2-0.6,0.2-0.8,0.4
				c-0.2-0.4-0.3-0.5-0.6-0.6c-0.6-0.3-1.1-0.1-1.5,0.2c-0.3,0.2-1,0.5-1.1,0.9c0.2-0.5,1.3-2,1.1-2.8c-0.4-1.3-1.5-1-2.1-0.8
				c-0.3,0.1-0.7,0.3-1,0.4c-0.3,0.1-0.8,0.2-1.1,0.4c0.3-0.3,1.9-1.4,2.2-1.7c1.6-2.1-0.5-3.7-2.8-4.2c0.6,0.1,1.8-0.1,2.4-0.1
				c0.7,0,1.4-0.4,1.4-1.2c0-1.2-1.7-2.4-1.5-2.4c-0.1-0.1-0.9-0.5-1-0.6c1.1,0.2,3.9,1.2,2.7-1c-0.6-1-1.9-2.3-2.9-2.9
				c1.7,0.9,4.9,2.5,5.2,1.3c0-0.2,0-0.5,0-0.7c-0.4-1.2-1.1-3-1.7-4.4c0.9,1.3,2.5,2.8,3.5,2.9c0.7,0.1,1.1-0.7,1.1-1.5
				c0-0.8-0.8-2.8-1-3.7c1,1.5,3.3,3.7,4.2,3c0.9-0.8,0.4-2.6,0.1-4.5c0.3,0.8,0.6,1.6,1.1,2.3c0.5,0.7,1.2,1.2,1.7,1.1
				c0.7-0.2,1.3-0.4,1.4-1.4c0.1-1.4,0.2-1.2,0.4-2.5c0.2,1.9,0.3,1.9,0.6,3.8c0.1,0.4,0.2,0.8,0.5,1.1c0.7,0.7,1.5,0.1,1.7-0.8
				c0.3-0.9,0.6-1.8,1-3.2c0,1.9-0.3,4.9,0.1,5.4c0.6,0.6,1.6,0.4,2.1-0.4c0.5-0.8,0.8-1.5,1.5-2.6c-0.3,1.5-0.9,2.7-0.4,4.2
				c0.9,2.5,3,0.5,3.6-0.5c0,0.2-0.3,0.7-0.4,0.9C160.9,60.1,160.8,60.4,160.7,60.7z"/>
		</g>
		<g>
			<path class="st3" d="M158.8,66.7c-2.3,0.4-4,1.3-5.9,2.2c-3.1,1.5-5.1,2.6-8,4.6c-1,0.7-2.3,1.7-3.5,2.5
				c-0.9-3.3-0.3-8.1,1.3-10.8c1.1-1.8,2.9-3.4,4.7-4.3c1.9-0.9,4.4-0.6,6.5-0.1c3.1,0.7,6.1,2.7,7.8,5.7
				C160.7,66.3,159.8,66.6,158.8,66.7z"/>
		</g>
	</g>
	<g>
		<g>
			<g>
				<path class="st4" d="M169.8,2.6c-2.5,1-4.8,0.4-5.1,0.3c-0.1,0-0.1,0-0.2,0c-0.2,0-0.5,0.7-0.7,0.9c-0.2,0.2-0.3,0.5-0.5,0.7
					c-0.1,0.1-0.3,0.3-0.4,0.5c-0.2,2-0.7,4-1.8,5.7c-1,2-2.3,3.9-3.7,5.3c-2.3,2.4-5,4.3-8.1,5.6c-1.3,0.6-2.8,1-4.4,1.2
					c-1,0.9-2.4,1.6-3.8,2.6c0,0.1,0.2,0.8,0.2,0.9c1.4,5.7,10.6,17.5,22.1,11.4c11.7-6.3,13.8-13.8,15.2-20.8
					c1.4-6.9-3.1-14.2-4.2-15.1C173.5,1,172.2,1.6,169.8,2.6z"/>
			</g>
		</g>
		<g>
			<path class="st1" d="M163.1,5.1c0,0-0.5,2.7-0.6,3c-0.3,1-0.8,2-1.2,3c-1,1.9-2.1,3.6-3.6,5.1c-2.3,2.4-5,4.3-8.1,5.6
				c-1.3,0.6-2.5,0.6-4,0.7c-1,0.9-2.4,1.8-3.8,2.8c0.7,3.8,3.1,7.1,5.9,9.6c4.5,4,9.5,5.3,16.5,1.8c1.5-0.7,3-2,4.2-2.8
				c3.1-2.2,5-5.5,5.7-9.3c0.3-1.6,0.3-3.2,0.3-4.8c0-1.4-0.1-2.9-0.3-4.3c-0.2-1.3-0.6-2.5-1-3.7c-0.4-1.2-1-2.1-1.8-3.1
				c-0.7-0.8-1.7-1.4-2.7-1.9c-1.1-0.6-2.2-1-3.3-1.3C164.5,5.2,163.8,5,163.1,5.1z"/>
		</g>
		<g>
			<path class="st2" d="M167.3,11.3c-0.7-0.1-1.7-0.2-2.1-0.8c-0.5-0.7,0.6-2.4,1.1-3.7c-0.6,0.8-1.3,1.2-2,1.8
				c-0.5,0.4-1.2-0.1-1.9-0.6c-0.7,4.4-5.2,9.2-8.6,11.1c0,0-0.1,0-0.1,0c-2.5,1.9-5.3,3.2-8.5,3.7c-0.2,0.1-0.4,0.4-0.7,0.6
				c0.2,0.3,0.3,0.5,0.3,0.8c0,0.6-0.4,1-0.8,1.2c-0.3,0.2-0.9,0.7-1.3,0.6c0.6,0,2.4-0.4,3,0.2c1,0.9,0.3,1.8-0.1,2.2
				c-0.2,0.3-0.5,0.5-0.8,0.7c-0.2,0.2-0.5,0.7-0.8,0.8c0.4-0.2,2-1.2,2.4-1.3c2.6-0.5,3.2,2,2.7,4.3c0.1-0.6,0.8-1.6,1-2.1
				c0.3-0.6,0.9-1.1,1.7-0.7c1.1,0.5,1.5,2.5,1.5,2.3c0,0.2,0.1,1,0.1,1.2c0.2-1.1,0.6-4.1,2-2c0.7,1,1.3,2.7,1.4,3.9
				c-0.2-1.9-0.3-5.5,1-5.3c0.2,0.1,0.5,0.2,0.6,0.3c0.9,0.8,2.3,2.3,3.3,3.4c-0.8-1.4-1.5-3.5-1.2-4.4c0.2-0.6,1-0.7,1.8-0.4
				c0.8,0.3,2.2,1.8,2.9,2.4c-1-1.6-2.1-4.5-1-5.1c1.1-0.5,2.5,0.7,4.2,1.8c-0.6-0.6-1.2-1.2-1.6-1.9c-0.4-0.7-0.6-1.6-0.3-2
				c0.5-0.6,0.9-1,1.8-0.7c1.3,0.4,1.2,0.3,2.5,0.7c-1.7-1-1.6-1-3.2-2.1c-0.4-0.2-0.6-0.5-0.8-0.9c-0.3-1,0.5-1.4,1.4-1.2
				c1,0.1,1.9,0.1,3.3,0.4c-1.7-0.7-4.6-1.7-4.9-2.4c-0.3-0.8,0.3-1.6,1.3-1.7c1-0.1,1.7-0.1,3-0.3c-1.5-0.4-2.9-0.3-4-1.4
				c-1.9-1.8,0.8-2.9,1.9-3.1c-0.2-0.1-0.8,0-1,0C168,11.4,167.7,11.3,167.3,11.3z"/>
		</g>
		<g>
			<path class="st5" d="M161.1,10.5c-1.3,1.9-2.9,3.1-4.5,4.4c-2.7,2.2-4.5,3.6-7.5,5.4c-1,0.6-2.5,1.4-3.7,2.2
				c2.6,2.2,7.2,3.7,10.3,3.3c2.1-0.2,4.3-1.2,5.8-2.5c1.6-1.4,2.4-3.8,2.8-5.8c0.7-3.1,0.1-6.7-1.9-9.4
				C162.2,8.9,161.6,9.7,161.1,10.5z"/>
		</g>
	</g>
	<g>
		<g>
			<g>
				<path class="st0" d="M211.8,51c-2.7-0.8-4.2-2.8-4.3-3c0-0.1-0.1-0.1-0.1-0.1c-0.2-0.1-0.9,0.2-1.1,0.2
					c-0.3,0.1-0.6,0.2-0.9,0.2c-0.2,0-0.5,0-0.6,0.2c-1.5,1.4-3.3,2.6-5.3,3.3c-2.1,0.9-4.5,1.5-6.6,1.7c-3.5,0.3-7,0.1-10.4-0.9
					c-1.5-0.4-3-1-4.4-1.9c-1.4,0.1-3-0.4-4.8-0.4c-0.1,0.1-0.3,0.7-0.4,0.8c-2.7,5.3-3.1,20.3,10.4,22.9
					c13.8,2.6,20.5-1.8,26.3-6.2c5.8-4.4,6.9-12.8,6.6-14.3C215.9,52.2,214.5,51.8,211.8,51z"/>
			</g>
		</g>
		<g>
			<path class="st1" d="M204.7,48.6c0,0-2.2,1.7-2.5,1.9c-1,0.6-2,1.1-3,1.5c-2,0.8-4.1,1.4-6.3,1.6c-3.5,0.3-7,0.1-10.4-0.9
				c-1.5-0.4-2.4-1.1-3.8-2c-1.4,0.1-3.2-0.1-4.9-0.3c-2,3.4-2.2,7.4-1.6,11.2c1,5.9,4.2,10.2,12.2,12c1.7,0.4,3.8,0.4,5.3,0.5
				c4,0.3,7.7-1,10.9-3.5c1.3-1,2.3-2.3,3.4-3.5c1-1.1,1.9-2.3,2.7-3.5c0.7-1.1,1.2-2.3,1.7-3.5c0.5-1.2,0.6-2.3,0.5-3.5
				c-0.1-1.1-0.4-2.2-0.9-3.2c-0.5-1.1-1.1-2.2-1.8-3.2C205.8,49.7,205.3,49,204.7,48.6z"/>
		</g>
		<g>
			<path class="st2" d="M204,56.1c-0.5-0.6-1.2-1.2-1.2-1.9c0.1-0.8,2-1.4,3.4-2.1c-1,0.2-1.9,0.1-2.8,0.1c-0.7,0-0.9-0.8-1.1-1.7
				c-3.5,2.9-10.4,3.8-14.4,3c0,0-0.1,0-0.1,0c-3.3-0.1-6.5-0.9-9.4-2.6c-0.3-0.1-0.6,0.1-0.9,0c0,0.4-0.1,0.6-0.3,0.8
				c-0.4,0.5-1,0.5-1.5,0.4c-0.4-0.1-1.1-0.1-1.5-0.3c0.4,0.4,2.2,1.2,2.3,2.1c0.2,1.3-1,1.5-1.6,1.6c-0.4,0-0.8,0-1.1,0
				c-0.4,0-0.9,0.2-1.2,0.1c0.4,0.1,2.5,0.4,2.8,0.6c2.5,1.2,1.3,3.6-0.7,5c0.5-0.4,1.8-0.7,2.3-0.9c0.6-0.3,1.4-0.3,1.9,0.5
				c0.6,1.1-0.4,2.9-0.3,2.8c-0.1,0.1-0.6,0.9-0.7,1c0.9-0.7,3.2-2.8,3-0.3c-0.1,1.2-0.7,2.9-1.4,3.9c1.2-1.6,3.5-4.4,4.3-3.5
				c0.1,0.2,0.3,0.4,0.3,0.6c0.2,1.2,0.4,3.2,0.4,4.7c0.3-1.6,1-3.7,2-4.2c0.6-0.3,1.3,0.1,1.7,0.9c0.4,0.7,0.6,2.8,0.7,3.7
				c0.3-1.8,1.3-4.8,2.6-4.5c1.2,0.3,1.6,2.2,2.2,4c-0.1-0.8-0.2-1.7,0-2.5c0.1-0.8,0.6-1.6,1.1-1.7c0.8-0.2,1.4-0.2,1.9,0.6
				c0.8,1.2,0.8,1,1.6,2.1c-0.8-1.8-0.6-1.8-1.2-3.6c-0.1-0.4-0.2-0.8,0-1.2c0.4-1,1.3-0.7,2,0c0.7,0.7,1.4,1.3,2.5,2.4
				c-0.9-1.7-2.6-4.3-2.4-4.9c0.3-0.8,1.3-1,2.2-0.5c0.8,0.5,1.5,1,2.6,1.6c-1-1.2-2.1-2-2.4-3.7c-0.4-2.6,2.6-1.8,3.6-1.1
				c-0.1-0.2-0.6-0.5-0.8-0.6C204.5,56.6,204.3,56.4,204,56.1z"/>
		</g>
		<g>
			<path class="st6" d="M199.4,51.6c-2.4,0.6-4.4,0.6-6.6,0.5c-3.6-0.1-6.1-0.1-9.7-0.7c-1.3-0.2-2.9-0.5-4.5-0.7
				c0.7,3.4,3.5,7.4,6.3,9.2c1.8,1.1,4.3,1.8,6.5,1.8c2.2,0,4.4-1.4,6.2-2.7c2.6-1.9,4.5-5.1,4.7-8.5
				C201.4,51.1,200.4,51.2,199.4,51.6z"/>
		</g>
	</g>
	<g>
		<g>
			<g>
				<path class="st7" d="M231.9,56.2c-2.8-0.1-4.7-1.7-4.9-1.9c0,0-0.1-0.1-0.2-0.1c-0.2,0-0.8,0.4-1,0.5c-0.3,0.1-0.5,0.3-0.8,0.4
					c-0.2,0.1-0.5,0.1-0.6,0.3c-1.1,1.8-2.6,3.3-4.4,4.4c-1.8,1.4-4,2.5-6,3.2c-3.3,1.1-6.7,1.7-10.3,1.6c-1.5,0-3.2-0.3-4.7-0.8
					c-1.4,0.4-3,0.4-4.8,0.8c0,0.1-0.2,0.8-0.2,0.9c-1.4,5.7,1.8,20.4,15.5,19.8c14.1-0.7,19.5-6.6,24.1-12.2
					c4.6-5.7,3.7-14.1,3.1-15.4C236.1,56.4,234.7,56.3,231.9,56.2z"/>
			</g>
		</g>
		<g>
			<path class="st8" d="M224.4,55.5c0,0-1.8,2.2-2,2.4c-0.8,0.8-1.7,1.5-2.6,2.1c-1.8,1.3-3.7,2.3-5.8,3c-3.3,1.1-6.7,1.7-10.3,1.6
				c-1.5,0-2.6-0.6-4.1-1.1c-1.4,0.4-3.1,0.6-4.9,0.9c-1.1,3.7-0.4,7.8,1.1,11.3c2.4,5.5,6.5,8.9,14.7,8.7c1.7,0,3.8-0.5,5.2-0.7
				c3.9-0.6,7.3-2.8,9.7-5.9c1-1.3,1.7-2.8,2.5-4.2c0.7-1.3,1.3-2.7,1.8-4c0.4-1.2,0.7-2.5,0.8-3.8c0.2-1.3,0.1-2.3-0.3-3.6
				c-0.3-1.1-0.9-2-1.6-2.9c-0.7-1-1.6-1.9-2.5-2.6C225.7,56.3,225.1,55.8,224.4,55.5z"/>
		</g>
		<g>
			<path class="st9" d="M225.5,63c-0.6-0.4-1.5-0.9-1.6-1.6c-0.1-0.8,1.7-1.9,2.8-2.9c-0.9,0.5-1.8,0.5-2.7,0.7
				c-0.7,0.2-1.1-0.6-1.5-1.4c-2.7,3.6-9.2,6.1-13.3,6.3c0,0-0.1,0-0.1,0c-3.2,0.6-6.5,0.6-9.7-0.3c-0.3,0-0.6,0.2-0.9,0.2
				c0.1,0.4,0,0.6-0.1,0.9c-0.3,0.6-0.8,0.7-1.3,0.8c-0.4,0-1.1,0.2-1.5,0c0.5,0.3,2.4,0.7,2.8,1.4c0.5,1.2-0.6,1.7-1.1,1.9
				c-0.4,0.1-0.7,0.2-1.1,0.3c-0.3,0.1-0.8,0.4-1.2,0.4c0.4,0,2.5-0.2,2.9-0.1c2.7,0.6,2.1,3.2,0.5,5c0.4-0.5,1.5-1.1,2-1.5
				c0.6-0.4,1.3-0.6,1.9,0.1c0.8,0.9,0.3,2.9,0.4,2.7c-0.1,0.2-0.4,1-0.4,1.1c0.7-0.9,2.4-3.4,2.9-1c0.2,1.2,0,3-0.5,4.1
				c0.8-1.8,2.3-5.1,3.4-4.4c0.1,0.2,0.4,0.4,0.4,0.5c0.5,1.2,1.1,3,1.5,4.5c-0.1-1.6,0.2-3.8,0.9-4.5c0.5-0.5,1.3-0.2,1.9,0.4
				c0.6,0.6,1.2,2.6,1.6,3.5c-0.2-1.8,0.2-5,1.5-5c1.3,0,2,1.7,3.1,3.4c-0.3-0.8-0.6-1.6-0.6-2.4c-0.1-0.8,0.2-1.7,0.7-1.9
				c0.7-0.3,1.3-0.5,2,0.2c1,0.9,1,0.8,2.1,1.7c-1.2-1.6-1-1.6-2.1-3.3c-0.2-0.4-0.3-0.7-0.3-1.2c0.1-1,1.1-1,1.9-0.5
				c0.9,0.5,1.7,0.9,3,1.8c-1.3-1.4-3.5-3.6-3.5-4.2c0.1-0.8,1-1.3,2-1c1,0.3,1.7,0.6,2.9,1c-1.2-1-2.6-1.5-3.2-3
				c-1-2.5,2.1-2.3,3.3-1.9c-0.1-0.2-0.7-0.3-0.9-0.4C226.1,63.4,225.8,63.2,225.5,63z"/>
		</g>
		<g>
			<path class="st6" d="M220,59.6c-2.2,1.1-4.2,1.6-6.3,2.1c-3.5,0.8-5.9,1.3-9.6,1.6c-1.3,0.1-3,0.2-4.5,0.3
				c1.4,3.1,5.1,6.4,8.2,7.4c2.1,0.7,4.6,0.7,6.7,0.2c2.2-0.5,4-2.4,5.4-4.1c2.1-2.5,3.2-6,2.6-9.3C221.8,58.7,220.9,59.1,220,59.6z
				"/>
		</g>
	</g>
	<g>
		<g>
			<g>
				<path class="st10" d="M159.3,71.9c2.6,0.6,4.9-0.4,5.1-0.5c0.1,0,0.1,0,0.2,0c0.2,0,0.6,0.6,0.8,0.7c0.2,0.2,0.4,0.4,0.6,0.6
					c0.1,0.1,0.4,0.3,0.4,0.4c0.5,2,1.4,3.8,2.6,5.3c1.3,1.8,2.9,3.4,4.5,4.6c2.7,1.9,5.7,3.4,9,4.2c1.4,0.4,3,0.6,4.6,0.5
					c1.1,0.7,2.7,1.1,4.2,2c0,0.1-0.1,0.8-0.1,0.9c-0.5,5.8-8,18.8-20.4,14.5c-12.7-4.3-15.9-11.3-18.4-17.8
					c-2.5-6.5,0.9-14.3,1.9-15.3C155.3,70.9,156.7,71.2,159.3,71.9z"/>
			</g>
		</g>
		<g>
			<path class="st8" d="M166.4,73.2c0,0,0.9,2.6,1.1,2.8c0.5,0.9,1.1,1.8,1.7,2.7c1.2,1.7,2.7,3.1,4.4,4.4c2.7,1.9,5.7,3.4,9,4.2
				c1.4,0.4,2.6,0.2,4.1,0.1c1.1,0.7,2.7,1.4,4.2,2.1c-0.1,3.8-2,7.4-4.5,10.3c-3.9,4.6-8.7,6.7-16.2,4.4c-1.6-0.5-3.3-1.5-4.6-2.1
				c-3.4-1.6-5.8-4.5-7.1-8.1c-0.5-1.5-0.7-3.1-1-4.7c-0.2-1.4-0.4-2.8-0.4-4.3c0-1.2,0.2-2.5,0.4-3.8c0.2-1.2,0.7-2.2,1.4-3.3
				c0.6-0.9,1.5-1.6,2.4-2.3c1-0.7,2-1.3,3.1-1.8C164.9,73.5,165.7,73.2,166.4,73.2z"/>
		</g>
		<g>
			<path class="st9" d="M163,79.9c0.7-0.2,1.6-0.5,1.9-1.1c0.4-0.8-0.9-2.2-1.7-3.5c0.7,0.7,1.5,0.9,2.3,1.4
				c0.6,0.3,1.2-0.2,1.8-0.9c1.3,4.1,6.6,8.1,10.3,9.4c0,0,0.1,0,0.1,0c2.8,1.5,5.8,2.3,9,2.2c0.3,0.1,0.5,0.4,0.8,0.4
				c-0.2,0.4-0.2,0.5-0.2,0.8c0.1,0.6,0.5,0.9,1,1.1c0.3,0.1,1,0.5,1.4,0.4c-0.6,0.1-2.4,0-3,0.6c-0.9,1,0,1.8,0.4,2.1
				c0.3,0.2,0.6,0.4,0.9,0.6c0.3,0.2,0.6,0.6,0.9,0.7c-0.4-0.1-2.2-0.8-2.6-0.9c-2.7-0.1-2.9,2.4-2.1,4.6c-0.2-0.6-1.1-1.4-1.4-1.9
				c-0.4-0.6-1-0.9-1.8-0.5c-1.1,0.7-1.1,2.7-1.2,2.5c0,0.2,0,1,0.1,1.2c-0.4-1-1.2-3.9-2.3-1.7c-0.6,1.1-0.9,2.8-0.9,4
				c-0.1-1.9-0.6-5.4-1.8-5c-0.1,0.1-0.4,0.2-0.6,0.4c-0.8,1-2,2.6-2.8,3.8c0.6-1.5,1-3.6,0.5-4.5c-0.3-0.6-1.1-0.5-1.9-0.1
				c-0.7,0.4-1.9,2.1-2.5,2.8c0.7-1.7,1.4-4.7,0.2-5.1c-1.2-0.3-2.4,1.1-3.9,2.4c0.5-0.7,1-1.4,1.3-2.1c0.3-0.8,0.4-1.6,0-2
				c-0.6-0.5-1.1-0.8-1.9-0.4c-1.2,0.6-1.1,0.5-2.4,1c1.6-1.2,1.4-1.3,2.9-2.5c0.3-0.3,0.5-0.6,0.6-1c0.2-1-0.7-1.2-1.6-1
				c-0.9,0.3-1.9,0.4-3.3,0.9c1.6-1,4.3-2.4,4.5-3.1c0.2-0.8-0.5-1.5-1.5-1.5c-1,0.1-1.7,0.1-3,0.2c1.4-0.6,2.8-0.7,3.8-2
				c1.7-2.1-1.2-2.7-2.4-2.7c0.2-0.1,0.8-0.1,1-0.1C162.4,80.1,162.7,80,163,79.9z"/>
		</g>
		<g>
			<path class="st11" d="M169.2,78.2c1.6,1.6,3.4,2.6,5.1,3.6c3,1.7,5,2.8,8.4,4.1c1.1,0.4,2.7,1,4.1,1.5c-2.3,2.6-6.7,4.7-9.9,4.8
				c-2.1,0.1-4.5-0.5-6.2-1.5c-1.8-1.1-2.9-3.3-3.7-5.2c-1.1-2.9-1.1-6.5,0.5-9.5C167.8,76.8,168.5,77.4,169.2,78.2z"/>
		</g>
	</g>
	<g>
		<g>
			<path class="st12" d="M167,68.9c-0.2,2.7,1.1,4.8,1.3,5c0,0,0.1,0.1,0.1,0.2c0,0.2-0.5,0.7-0.6,0.9c-0.2,0.2-0.4,0.4-0.5,0.7
				c-0.1,0.1-0.2,0.4-0.4,0.5c-1.9,0.8-3.6,1.9-4.8,3.4c-1.6,1.5-2.9,3.4-3.8,5.2c-1.5,3-2.5,6.1-2.8,9.5c-0.1,1.5-0.1,3.1,0.2,4.6
				c-0.5,1.2-0.7,2.8-1.3,4.4c-0.1,0-0.8,0-0.9,0c-5.8,0.4-19.8-5-17.5-18c2.3-13.2,8.7-17.4,14.8-20.9c6.1-3.4,14.2-1.2,15.5-0.4
				C167.4,64.8,167.3,66.2,167,68.9z"/>
		</g>
		<g>
			<path class="st8" d="M166.8,76.1c0,0-2.4,1.3-2.6,1.5c-0.9,0.6-1.6,1.3-2.4,2.1c-1.5,1.5-2.7,3.1-3.7,5c-1.5,3-2.5,6.1-2.8,9.5
				c-0.1,1.5,0.2,2.5,0.6,4.1c-0.5,1.2-1,2.9-1.4,4.5c-3.8,0.5-7.6-0.9-10.9-2.8c-5.1-3.1-7.9-7.6-6.8-15.4c0.2-1.6,0.9-3.5,1.3-4.9
				c1.1-3.6,3.6-6.5,6.9-8.3c1.4-0.8,2.9-1.2,4.4-1.7c1.3-0.4,2.8-0.8,4.1-1c1.2-0.2,2.5-0.2,3.8-0.2c1.2,0,2.3,0.3,3.5,0.9
				c1,0.5,1.8,1.2,2.6,2c0.9,0.9,1.6,1.8,2.3,2.8C166.3,74.7,166.6,75.4,166.8,76.1z"/>
		</g>
		<g>
			<path class="st9" d="M159.7,73.8c0.3,0.6,0.7,1.5,1.4,1.8c0.8,0.2,2-1.3,3.2-2.2c-0.6,0.8-0.7,1.6-1,2.4
				c-0.2,0.6,0.4,1.1,1.2,1.6c-3.9,1.9-7,7.7-7.7,11.6c0,0,0,0.1,0,0.1c-1,3-1.4,6.1-0.8,9.3c-0.1,0.3-0.3,0.5-0.3,0.8
				c-0.4-0.1-0.6-0.1-0.9-0.1c-0.6,0.2-0.8,0.7-0.9,1.1c-0.1,0.3-0.3,1-0.2,1.4c-0.2-0.5-0.4-2.4-1.1-2.9c-1.1-0.7-1.7,0.3-2,0.8
				c-0.2,0.3-0.3,0.7-0.4,1c-0.2,0.3-0.5,0.7-0.5,1c0-0.4,0.5-2.3,0.4-2.7c-0.3-2.6-2.8-2.5-4.9-1.3c0.5-0.3,1.3-1.3,1.7-1.6
				c0.5-0.5,0.7-1.2,0.2-1.8c-0.8-1-2.8-0.7-2.6-0.8c-0.2,0-1,0.2-1.2,0.2c0.9-0.5,3.6-1.8,1.3-2.6c-1.1-0.4-2.9-0.5-4.1-0.2
				c1.9-0.4,5.3-1.4,4.7-2.5c-0.1-0.1-0.3-0.4-0.5-0.5c-1.1-0.7-2.8-1.5-4.2-2.2c1.6,0.4,3.7,0.5,4.5-0.1c0.5-0.4,0.3-1.2-0.2-1.9
				c-0.5-0.6-2.4-1.6-3.2-2.1c1.8,0.5,4.9,0.6,5-0.6c0.2-1.2-1.5-2.2-2.9-3.5c0.7,0.4,1.5,0.8,2.3,1c0.8,0.2,1.7,0.1,2-0.3
				c0.4-0.6,0.7-1.2,0.1-2c-0.8-1.1-0.6-1.1-1.4-2.2c1.4,1.4,1.5,1.2,2.9,2.5c0.3,0.3,0.7,0.4,1.1,0.5c1,0,1.1-0.9,0.7-1.8
				c-0.4-0.9-0.7-1.8-1.4-3.1c1.2,1.4,3.1,3.9,3.7,4c0.8,0.1,1.4-0.8,1.2-1.7c-0.2-1-0.4-1.7-0.6-3c0.8,1.3,1.1,2.7,2.6,3.5
				c2.3,1.3,2.5-1.6,2.3-2.8c0.1,0.2,0.2,0.8,0.3,0.9C159.4,73.1,159.5,73.5,159.7,73.8z"/>
		</g>
		<g>
			<path class="st11" d="M162.3,79.6c-1.4,1.9-2.1,3.7-2.8,5.6c-1.2,3.2-2,5.4-2.7,8.9c-0.3,1.2-0.5,2.8-0.9,4.2
				c-2.9-1.9-5.7-5.9-6.3-9c-0.4-2.1-0.2-4.5,0.6-6.4c0.8-2,2.8-3.4,4.6-4.5c2.7-1.6,6.3-2.1,9.4-0.9
				C163.4,78,162.9,78.8,162.3,79.6z"/>
		</g>
	</g>
	<g>
		<g>
			<g>
				<path class="st13" d="M182.6,51.4c-2.6,0.4-4.7-0.8-4.9-0.9c0,0-0.1,0-0.2,0c-0.2,0-0.7,0.6-0.9,0.7c-0.2,0.2-0.4,0.4-0.6,0.6
					c-0.1,0.1-0.4,0.2-0.5,0.4c-0.8,1.9-1.8,3.8-3.2,5.2c-1.5,1.7-3.2,3.2-5,4.3c-2.9,1.8-6,3-9.3,3.5c-1.4,0.2-3,0.3-4.5,0.1
					c-1.2,0.6-2.8,0.9-4.3,1.7c0,0.1,0,0.8,0,0.9c-0.2,5.9,5.4,19.7,18,16.4c12.9-3.4,16.9-10.2,20.2-16.6
					c3.2-6.4,0.9-14.6,0.1-15.7C186.5,50.8,185.2,51,182.6,51.4z"/>
			</g>
		</g>
		<g>
			<path class="st1" d="M175.5,52.2c0,0-1.3,2.5-1.4,2.8c-0.6,0.9-1.3,1.8-2,2.6c-1.4,1.6-3,3-4.8,4.1c-2.9,1.8-6,3-9.3,3.5
				c-1.4,0.2-2.5,0-4-0.3c-1.2,0.6-2.8,1.2-4.4,1.8c-0.4,3.9,1,7.7,3,10.8c3.2,5,7.7,7.5,15.2,5.8c1.6-0.4,3.4-1.2,4.7-1.7
				c3.6-1.4,6.3-4.1,8-7.7c0.7-1.5,1.1-3.1,1.6-4.6c0.4-1.4,0.7-2.9,0.9-4.3c0.2-1.3,0.2-2.6,0.1-3.9c-0.1-1.3-0.4-2.3-0.9-3.4
				c-0.5-1-1.2-1.8-2-2.5c-0.9-0.8-1.8-1.5-2.8-2.1C176.9,52.7,176.2,52.3,175.5,52.2z"/>
		</g>
		<g>
			<path class="st2" d="M177.9,59.3c-0.6-0.3-1.5-0.6-1.8-1.3c-0.3-0.8,1.2-2.2,2.1-3.4c-0.8,0.6-1.6,0.8-2.4,1.2
				c-0.6,0.3-1.1-0.3-1.6-1.1c-1.8,4.1-7.4,7.7-11.2,8.7c0,0-0.1,0-0.1,0c-2.9,1.3-6,1.9-9.1,1.5c-0.3,0.1-0.5,0.3-0.8,0.4
				c0.1,0.4,0.1,0.6,0.1,0.9c-0.2,0.6-0.6,0.9-1.1,1c-0.3,0.1-1,0.4-1.4,0.3c0.5,0.2,2.4,0.2,2.8,0.9c0.7,1.1-0.2,1.8-0.7,2.1
				c-0.3,0.2-0.6,0.3-1,0.5c-0.3,0.2-0.7,0.6-1,0.6c0.4-0.1,2.3-0.7,2.7-0.7c2.6,0.1,2.5,2.7,1.4,4.8c0.3-0.5,1.2-1.4,1.6-1.8
				c0.4-0.5,1.1-0.8,1.8-0.3c1,0.8,0.8,2.8,0.9,2.6c0,0.2-0.2,1.1-0.2,1.2c0.5-1,1.6-3.8,2.5-1.5c0.4,1.1,0.5,2.9,0.3,4.1
				c0.4-1.9,1.2-5.5,2.4-5c0.1,0.1,0.4,0.3,0.5,0.4c0.7,1,1.6,2.8,2.2,4.1c-0.4-1.6-0.5-3.8,0-4.6c0.4-0.6,1.2-0.4,1.8,0.1
				c0.6,0.5,1.6,2.3,2.1,3.1c-0.5-1.8-0.7-4.9,0.5-5.2c1.2-0.3,2.2,1.3,3.5,2.7c-0.4-0.7-0.8-1.5-1-2.3c-0.2-0.8-0.1-1.7,0.3-2
				c0.6-0.5,1.1-0.8,1.9-0.2c1.1,0.7,1.1,0.6,2.2,1.2c-1.4-1.3-1.2-1.4-2.5-2.8c-0.3-0.3-0.4-0.7-0.5-1.1c-0.1-1,0.9-1.2,1.7-0.9
				c0.9,0.4,1.8,0.6,3.1,1.2c-1.4-1.1-3.9-2.8-4-3.5c-0.1-0.8,0.7-1.5,1.7-1.4c0.9,0.1,1.7,0.3,2.9,0.4c-1.3-0.7-2.7-1-3.5-2.3
				c-1.3-2.2,1.5-2.7,2.7-2.5c-0.2-0.1-0.7-0.2-0.9-0.2C178.5,59.5,178.2,59.4,177.9,59.3z"/>
		</g>
		<g>
			<path class="st3" d="M172.1,57c-1.8,1.5-3.6,2.4-5.5,3.2c-3.1,1.5-5.3,2.4-8.7,3.4c-1.2,0.4-2.7,0.8-4.1,1.2
				c1.9,2.8,5.9,5.3,9,5.7c2,0.3,4.4-0.2,6.3-1.1c1.9-0.9,3.3-3.1,4.3-5c1.5-2.8,1.9-6.5,0.7-9.7C173.6,55.8,172.8,56.3,172.1,57z"
				/>
		</g>
	</g>
	<g>
		<g>
			<g>
				<path class="st7" d="M205.8,59.1c-2.6,0.4-4.7-0.8-4.9-0.9c0,0-0.1,0-0.2,0c-0.2,0-0.7,0.6-0.9,0.7c-0.2,0.2-0.4,0.4-0.6,0.6
					c-0.1,0.1-0.4,0.2-0.5,0.4c-0.8,1.9-1.8,3.8-3.2,5.2c-1.5,1.7-3.2,3.2-5,4.3c-2.9,1.8-6,3-9.3,3.5c-1.4,0.2-3,0.3-4.5,0.1
					c-1.2,0.6-2.8,0.9-4.3,1.7c0,0.1,0,0.8,0,0.9c-0.2,5.9,5.4,19.7,18,16.4c12.9-3.4,16.9-10.2,20.2-16.6
					c3.2-6.4,0.9-14.6,0.1-15.7C209.8,58.5,208.5,58.7,205.8,59.1z"/>
			</g>
		</g>
		<g>
			<path class="st1" d="M198.8,59.9c0,0-1.3,2.5-1.4,2.8c-0.6,0.9-1.3,1.8-2,2.6c-1.4,1.6-3,3-4.8,4.1c-2.9,1.8-6,3-9.3,3.5
				c-1.4,0.2-2.5,0-4-0.3c-1.2,0.6-2.8,1.2-4.4,1.8c-0.4,3.9,1,7.7,3,10.8c3.2,5,7.7,7.5,15.2,5.8c1.6-0.4,3.4-1.2,4.7-1.7
				c3.6-1.4,6.3-4.1,8-7.7c0.7-1.5,1.1-3.1,1.6-4.6c0.4-1.4,0.7-2.9,0.9-4.3c0.2-1.3,0.2-2.6,0.1-3.9c-0.1-1.3-0.4-2.3-0.9-3.4
				c-0.5-1-1.2-1.8-2-2.5c-0.9-0.8-1.8-1.5-2.8-2.1C200.1,60.4,199.4,60,198.8,59.9z"/>
		</g>
		<g>
			<path class="st2" d="M201.2,67c-0.6-0.3-1.5-0.6-1.8-1.3c-0.3-0.8,1.2-2.2,2.1-3.4c-0.8,0.6-1.6,0.8-2.4,1.2
				c-0.6,0.3-1.1-0.3-1.6-1.1c-1.8,4.1-7.4,7.7-11.2,8.7c0,0-0.1,0-0.1,0c-2.9,1.3-6,1.9-9.1,1.5c-0.3,0.1-0.5,0.3-0.8,0.4
				c0.1,0.4,0.1,0.6,0.1,0.9c-0.2,0.6-0.6,0.9-1.1,1c-0.3,0.1-1,0.4-1.4,0.3c0.5,0.2,2.4,0.2,2.8,0.9c0.7,1.1-0.2,1.8-0.7,2.1
				c-0.3,0.2-0.6,0.3-1,0.5c-0.3,0.2-0.7,0.6-1,0.6c0.4-0.1,2.3-0.7,2.7-0.7c2.6,0.1,2.5,2.7,1.4,4.8c0.3-0.5,1.2-1.4,1.6-1.8
				c0.4-0.5,1.1-0.8,1.8-0.3c1,0.8,0.8,2.8,0.9,2.6c0,0.2-0.2,1.1-0.2,1.2c0.5-1,1.6-3.8,2.5-1.5c0.4,1.1,0.5,2.9,0.3,4.1
				c0.4-1.9,1.2-5.5,2.4-5c0.1,0.1,0.4,0.3,0.5,0.4c0.7,1,1.6,2.8,2.2,4.1c-0.4-1.6-0.5-3.8,0-4.6c0.4-0.6,1.2-0.4,1.8,0.1
				c0.6,0.5,1.6,2.3,2.1,3.1c-0.5-1.8-0.7-4.9,0.5-5.2c1.2-0.3,2.2,1.3,3.5,2.7c-0.4-0.7-0.8-1.5-1-2.3c-0.2-0.8-0.1-1.7,0.3-2
				c0.6-0.5,1.1-0.8,1.9-0.2c1.1,0.7,1.1,0.6,2.2,1.2c-1.4-1.3-1.2-1.4-2.5-2.8c-0.3-0.3-0.4-0.7-0.5-1.1c-0.1-1,0.9-1.2,1.7-0.9
				c0.9,0.4,1.8,0.6,3.1,1.2c-1.4-1.1-3.9-2.8-4-3.5c-0.1-0.8,0.7-1.5,1.7-1.4c0.9,0.1,1.7,0.3,2.9,0.4c-1.3-0.7-2.7-1-3.5-2.3
				c-1.3-2.2,1.5-2.7,2.7-2.5c-0.2-0.1-0.7-0.2-0.9-0.2C201.8,67.2,201.5,67.1,201.2,67z"/>
		</g>
		<g>
			<path class="st6" d="M195.4,64.7c-1.8,1.5-3.6,2.4-5.5,3.2c-3.1,1.5-5.3,2.4-8.7,3.4c-1.2,0.4-2.7,0.8-4.1,1.2
				c1.9,2.8,5.9,5.3,9,5.7c2,0.3,4.4-0.2,6.3-1.1c1.9-0.9,3.3-3.1,4.3-5c1.5-2.8,1.9-6.5,0.7-9.7C196.9,63.5,196.1,64,195.4,64.7z"
				/>
		</g>
	</g>
	<g>
		<g>
			<g>
				<path class="st0" d="M164.2,42.3c-1.9-1.9-2.2-4.3-2.3-4.5c0-0.1,0-0.1-0.1-0.2c-0.1-0.1-0.9-0.2-1.1-0.3
					c-0.3-0.1-0.6-0.1-0.8-0.2c-0.2,0-0.4-0.2-0.6-0.1c-2,0.6-4,0.9-6,0.6c-2.2-0.1-4.4-0.6-6.3-1.3c-3.1-1.2-5.9-2.9-8.3-5.3
					c-1.1-1-2.1-2.2-2.8-3.6c-1.2-0.6-2.4-1.6-3.9-2.4c-0.1,0.1-0.6,0.5-0.7,0.6c-4.7,3.5-12,16.6-1.8,24.8
					c10.4,8.3,18.1,7.3,25,5.9c6.9-1.4,11.8-8.4,12.2-9.8C167.1,45.1,166.1,44.2,164.2,42.3z"/>
			</g>
		</g>
		<g>
			<path class="st14" d="M159.4,37.1c0,0-2.7,0.6-3,0.6c-1.1,0.1-2.1,0.1-3.2,0c-2.1-0.2-4.1-0.6-6.1-1.3c-3.1-1.2-5.9-2.9-8.3-5.3
				c-1.1-1-1.5-2.1-2.2-3.4c-1.2-0.6-2.6-1.5-4-2.4c-3.2,2.1-5.3,5.6-6.5,9.2c-1.9,5.7-1.1,10.8,4.8,15.9c1.2,1.1,3,2,4.2,2.8
				c3.2,2,7,2.5,10.7,1.7c1.6-0.3,3-1,4.5-1.6c1.3-0.5,2.6-1.2,3.9-1.9c1.1-0.6,2.1-1.5,3.1-2.3c0.9-0.8,1.6-1.7,2.1-2.9
				c0.5-1,0.6-2.1,0.7-3.2c0.1-1.2,0.1-2.4-0.1-3.6C159.8,38.5,159.7,37.7,159.4,37.1z"/>
		</g>
		<g>
			<path class="st15" d="M155.3,43.4c-0.1-0.7-0.5-1.6-0.1-2.2c0.5-0.7,2.4-0.4,3.9-0.4c-1-0.2-1.6-0.7-2.4-1.1
				c-0.6-0.3-0.4-1.1-0.2-2c-4.3,1.1-10.5-1.2-13.5-3.6c0,0,0,0-0.1-0.1c-2.7-1.5-5-3.6-6.7-6.4c-0.2-0.2-0.6-0.2-0.8-0.4
				c-0.2,0.4-0.3,0.5-0.6,0.6c-0.6,0.3-1.1,0-1.5-0.3c-0.3-0.2-0.9-0.5-1.1-0.9c0.2,0.5,1.3,2,1,2.8c-0.4,1.2-1.5,0.9-2.1,0.8
				c-0.3-0.1-0.6-0.3-1-0.5c-0.3-0.1-0.8-0.2-1.1-0.4c0.3,0.3,1.9,1.4,2.1,1.8c1.5,2.2-0.6,3.7-2.9,4.2c0.6-0.1,1.8,0.1,2.3,0.1
				c0.7,0,1.3,0.4,1.3,1.3c0,1.2-1.7,2.4-1.5,2.3c-0.1,0.1-0.9,0.5-1.1,0.6c1.1-0.2,4-1.1,2.7,1.1c-0.6,1-1.9,2.3-3,2.8
				c1.7-0.9,5-2.4,5.3-1.2c0,0.2,0,0.5,0,0.7c-0.4,1.2-1.2,3-1.8,4.4c1-1.3,2.6-2.8,3.6-2.8c0.7,0,1,0.7,1,1.5
				c0,0.8-0.8,2.7-1.1,3.6c1.1-1.5,3.3-3.7,4.3-2.9c0.9,0.8,0.3,2.6,0,4.5c0.3-0.8,0.6-1.6,1.1-2.2c0.5-0.7,1.2-1.2,1.7-1
				c0.7,0.2,1.3,0.4,1.3,1.4c0.1,1.4,0.2,1.2,0.4,2.6c0.2-1.9,0.3-1.9,0.7-3.8c0.1-0.4,0.2-0.8,0.6-1.1c0.7-0.7,1.5,0,1.7,0.8
				c0.3,0.9,0.6,1.8,0.9,3.2c0-1.9-0.2-4.9,0.3-5.4c0.6-0.6,1.6-0.3,2.1,0.5c0.5,0.9,0.8,1.5,1.5,2.6c-0.2-1.5-0.9-2.7-0.3-4.3
				c0.9-2.5,3-0.4,3.6,0.6c0-0.2-0.3-0.7-0.4-0.9C155.5,44.1,155.4,43.8,155.3,43.4z"/>
		</g>
		<g>
			<path class="st16" d="M153.6,37.4c-2.3-0.5-4-1.4-5.8-2.4c-3-1.6-5-2.7-7.9-4.8c-1-0.7-2.2-1.7-3.4-2.6c-1,3.3-0.5,8.1,1,10.8
				c1,1.8,2.8,3.5,4.6,4.4c1.9,1,4.4,0.7,6.5,0.3c3.1-0.6,6.2-2.5,7.9-5.5C155.5,37.8,154.6,37.5,153.6,37.4z"/>
		</g>
	</g>
	<g>
		<g>
			<g>
				<path class="st0" d="M172.6,31.6c-1.9-2-2.1-4.5-2.1-4.8c0-0.1,0-0.1-0.1-0.2c-0.1-0.2-0.8-0.3-1-0.3c-0.3-0.1-0.5-0.1-0.8-0.2
					c-0.2-0.1-0.4-0.2-0.6-0.2c-1.9,0.5-4,0.6-5.9,0.2c-2.2-0.3-4.4-0.9-6.2-1.8c-3-1.5-5.7-3.4-8.1-6c-1-1.1-2-2.4-2.7-3.8
					c-1.2-0.7-2.3-1.8-3.8-2.8c-0.1,0.1-0.6,0.4-0.7,0.5c-4.7,3.2-12.2,16-2.3,25c10.1,9.2,17.6,8.7,24.5,7.8
					c6.8-0.9,11.8-7.6,12.2-9C175.4,34.7,174.5,33.7,172.6,31.6z"/>
			</g>
		</g>
		<g>
			<path class="st1" d="M168,26c0,0-2.7,0.4-2.9,0.4c-1.1,0-2.1-0.1-3.2-0.2c-2-0.3-4-0.9-5.9-1.8c-3-1.5-5.7-3.4-8.1-6
				c-1-1.1-1.4-2.2-2.1-3.6c-1.2-0.7-2.6-1.7-3.9-2.7c-3.2,1.9-5.4,5.3-6.7,8.9c-2,5.6-1.4,10.9,4.3,16.5c1.2,1.2,2.9,2.2,4.1,3.1
				c3.1,2.3,6.8,3,10.5,2.5c1.6-0.2,3-0.8,4.5-1.3c1.3-0.4,2.6-1,3.9-1.7c1.1-0.6,2.1-1.4,3.1-2.2c0.9-0.8,1.6-1.7,2.1-2.8
				c0.5-1,0.7-2.1,0.8-3.2c0.1-1.2,0.1-2.4,0-3.7C168.4,27.4,168.2,26.6,168,26z"/>
		</g>
		<g>
			<path class="st2" d="M163.9,32.1c-0.1-0.7-0.4-1.7,0-2.2c0.5-0.7,2.4-0.2,3.8-0.1c-0.9-0.3-1.6-0.9-2.3-1.3
				c-0.6-0.4-0.4-1.2-0.1-2c-4.2,0.8-10.3-2-13.2-4.7c0,0,0,0-0.1-0.1c-2.6-1.8-4.9-4.1-6.4-7c-0.2-0.2-0.6-0.3-0.8-0.5
				c-0.2,0.3-0.4,0.4-0.6,0.6c-0.6,0.2-1,0-1.4-0.4c-0.3-0.2-0.9-0.6-1-1c0.2,0.6,1.2,2.2,0.9,3c-0.4,1.2-1.5,0.9-2,0.6
				c-0.3-0.2-0.6-0.4-1-0.5c-0.3-0.2-0.8-0.3-1.1-0.5c0.3,0.3,1.8,1.6,2.1,1.9c1.4,2.3-0.6,3.7-2.9,4c0.6-0.1,1.8,0.3,2.3,0.3
				c0.7,0.1,1.3,0.5,1.3,1.4c0,1.3-1.7,2.3-1.5,2.3c-0.1,0.1-0.9,0.5-1.1,0.5c1.1-0.1,3.9-0.8,2.6,1.3c-0.6,1-1.9,2.2-3,2.6
				c1.7-0.8,5-2.1,5.2-0.8c0,0.2,0,0.5-0.1,0.7c-0.4,1.2-1.2,3-1.9,4.3c1-1.2,2.6-2.6,3.6-2.6c0.7,0,1,0.8,1,1.6
				c0,0.8-0.9,2.7-1.2,3.6c1.1-1.4,3.4-3.5,4.3-2.6c0.9,0.9,0.3,2.7-0.1,4.6c0.3-0.8,0.7-1.5,1.2-2.2c0.5-0.6,1.2-1.1,1.7-0.9
				c0.7,0.2,1.2,0.5,1.3,1.5c0.1,1.4,0.2,1.2,0.3,2.6c0.3-2,0.4-1.9,0.7-3.8c0.1-0.4,0.3-0.8,0.6-1c0.8-0.6,1.4,0.1,1.7,1
				c0.2,1,0.6,1.9,0.8,3.4c0-1.9-0.1-5,0.4-5.5c0.6-0.6,1.6-0.2,2,0.7c0.4,0.9,0.7,1.6,1.4,2.7c-0.2-1.6-0.8-2.8-0.2-4.4
				c1-2.5,3-0.2,3.5,0.9c0-0.2-0.3-0.7-0.4-0.9C164,32.8,163.9,32.5,163.9,32.1z"/>
		</g>
		<g>
			<path class="st17" d="M162.3,25.9c-2.2-0.7-3.9-1.7-5.6-2.8c-2.9-1.9-4.9-3.1-7.7-5.5c-0.9-0.8-2.2-1.9-3.3-2.9
				c-1.1,3.3-0.7,8.2,0.8,11.1c1,1.9,2.7,3.7,4.4,4.8c1.8,1.1,4.3,1,6.4,0.8c3.1-0.4,6.1-2.1,7.9-5
				C164.1,26.4,163.2,26.1,162.3,25.9z"/>
		</g>
	</g>
	<g>
		<g>
			<g>
				<path class="st0" d="M210.7,36.1c-1.3-2.4-0.9-4.8-0.9-5.1c0-0.1,0-0.1,0-0.2c-0.1-0.2-0.8-0.5-0.9-0.6
					c-0.2-0.1-0.5-0.3-0.7-0.4c-0.2-0.1-0.3-0.3-0.5-0.3c-2,0-4-0.3-5.8-1.1c-2.1-0.7-4-1.9-5.6-3.1c-2.6-2.1-4.8-4.6-6.4-7.5
					c-0.7-1.3-1.3-2.7-1.7-4.3c-1-0.9-1.8-2.3-3-3.5c-0.1,0-0.7,0.3-0.9,0.3c-5.4,2-16,12.6-8.7,23.5c7.5,11.1,15.1,12.3,22,13
					c7,0.7,13.5-4.7,14.3-5.9C212.7,39.6,212,38.4,210.7,36.1z"/>
			</g>
		</g>
		<g>
			<path class="st1" d="M207.6,29.6c0,0-2.7-0.2-3-0.3c-1-0.2-2-0.5-3-0.9c-1.9-0.8-3.7-1.8-5.4-3.1c-2.6-2.1-4.8-4.6-6.4-7.5
				c-0.7-1.3-0.8-2.4-1.2-4c-1-0.9-2.1-2.2-3.1-3.5c-3.6,1.1-6.6,3.9-8.8,7c-3.4,5-4.1,10.2,0,16.8c0.9,1.4,2.3,2.8,3.2,3.9
				c2.5,2.9,5.9,4.4,9.7,4.7c1.6,0.1,3.2-0.1,4.8-0.3c1.4-0.1,2.8-0.4,4.2-0.7c1.2-0.3,2.4-0.8,3.6-1.4c1.1-0.5,2-1.2,2.8-2.2
				c0.7-0.8,1.2-1.8,1.6-2.9c0.4-1.1,0.8-2.3,0.9-3.5C207.6,31.1,207.7,30.3,207.6,29.6z"/>
		</g>
		<g>
			<path class="st2" d="M202,34.6c0.1-0.7,0-1.7,0.6-2.2c0.6-0.6,2.4,0.3,3.8,0.7c-0.8-0.5-1.3-1.2-1.9-1.8c-0.5-0.5-0.1-1.2,0.4-2
				c-4.3-0.2-9.6-4.2-11.8-7.4c0,0,0-0.1,0-0.1c-2.1-2.3-3.8-5-4.5-8.1c-0.2-0.2-0.5-0.4-0.6-0.6c-0.3,0.3-0.5,0.4-0.8,0.4
				c-0.6,0.1-1-0.3-1.3-0.7c-0.2-0.3-0.7-0.8-0.8-1.2c0,0.6,0.6,2.4,0.2,3c-0.7,1.1-1.7,0.5-2.2,0.1c-0.3-0.2-0.5-0.5-0.8-0.7
				c-0.3-0.2-0.7-0.4-0.9-0.7c0.2,0.3,1.4,1.9,1.5,2.3c0.8,2.5-1.6,3.4-3.9,3.2c0.6,0.1,1.7,0.7,2.2,0.8c0.6,0.2,1.2,0.8,0.9,1.6
				c-0.4,1.2-2.3,1.8-2.1,1.8c-0.2,0-1,0.2-1.2,0.3c1.1,0.1,4,0.1,2.2,1.8c-0.9,0.8-2.5,1.6-3.6,1.9c1.9-0.4,5.4-0.9,5.3,0.4
				c-0.1,0.2-0.1,0.5-0.2,0.7c-0.7,1-2,2.6-3,3.7c1.3-1,3.2-1.9,4.2-1.7c0.6,0.2,0.8,1,0.6,1.8c-0.2,0.8-1.6,2.4-2.1,3.2
				c1.4-1.1,4.2-2.6,4.9-1.5c0.6,1-0.4,2.6-1.3,4.4c0.5-0.7,1-1.3,1.7-1.8c0.7-0.5,1.5-0.8,1.9-0.5c0.6,0.4,1.1,0.8,0.9,1.8
				c-0.3,1.4-0.1,1.2-0.4,2.6c0.8-1.8,0.8-1.7,1.7-3.5c0.2-0.4,0.4-0.7,0.8-0.9c0.9-0.5,1.4,0.4,1.4,1.3c0,1,0.1,1.9,0,3.4
				c0.5-1.8,1.2-4.8,1.8-5.2c0.7-0.4,1.6,0.1,1.8,1.1c0.2,1,0.3,1.7,0.6,2.9c0.2-1.5,0-2.9,0.9-4.2c1.6-2.1,3,0.5,3.2,1.6
				c0.1-0.2-0.1-0.8-0.1-1C201.9,35.3,201.9,34.9,202,34.6z"/>
		</g>
		<g>
			<path class="st18" d="M202,28.2c-2-1.1-3.4-2.6-4.8-4c-2.4-2.4-4-4.1-6.1-7c-0.7-1-1.6-2.3-2.5-3.5c-1.9,2.9-2.8,7.7-2.1,10.8
				c0.5,2,1.7,4.2,3.1,5.6c1.5,1.5,4,2,6,2.2c3.1,0.3,6.6-0.7,9-3C203.7,29.2,202.9,28.6,202,28.2z"/>
		</g>
	</g>
	<g>
		<g>
			<g>
				<path class="st0" d="M223.1,17.6c-2.6,0.5-4.8-0.7-5-0.8c-0.1,0-0.1,0-0.2,0c-0.2,0-0.7,0.6-0.8,0.7c-0.2,0.2-0.4,0.4-0.6,0.6
					c-0.1,0.1-0.4,0.2-0.5,0.4c-0.6,2-1.6,3.8-3,5.2c-1.4,1.8-3.1,3.3-4.8,4.4c-2.8,1.8-5.8,3.1-9.1,3.8c-1.4,0.3-3,0.4-4.5,0.2
					c-1.2,0.7-2.7,1-4.2,1.8c0,0.1,0,0.8,0,0.9c0.1,5.9,6.5,19.4,19,15.8c12.8-3.7,16.4-10.6,19.3-17.1c2.9-6.5,0.1-14.5-0.8-15.7
					C227.1,16.8,225.7,17.1,223.1,17.6z"/>
			</g>
		</g>
		<g>
			<path class="st19" d="M216.1,18.5c0,0-1.1,2.5-1.3,2.8c-0.5,0.9-1.2,1.8-1.9,2.6c-1.3,1.6-2.9,3.1-4.6,4.2
				c-2.8,1.8-5.8,3.1-9.1,3.8c-1.4,0.3-2.5,0-4.1-0.1c-1.2,0.7-2.7,1.3-4.3,1.9c-0.1,3.9,1.4,7.6,3.7,10.7c3.5,4.9,8.1,7.2,15.6,5.3
				c1.6-0.4,3.4-1.3,4.7-1.8c3.5-1.5,6.1-4.3,7.6-7.9c0.6-1.5,0.9-3.1,1.3-4.7c0.3-1.4,0.6-2.9,0.7-4.3c0.1-1.3,0-2.6-0.1-3.9
				c-0.1-1.3-0.5-2.3-1.1-3.4c-0.5-1-1.3-1.7-2.2-2.5c-0.9-0.8-1.9-1.5-3-2C217.5,19,216.7,18.6,216.1,18.5z"/>
		</g>
		<g>
			<path class="st2" d="M218.9,25.5c-0.6-0.3-1.6-0.5-1.8-1.2c-0.3-0.8,1.1-2.2,1.9-3.4c-0.7,0.7-1.5,0.9-2.3,1.3
				c-0.6,0.3-1.1-0.3-1.7-1c-1.6,4.1-7,7.9-10.8,9c0,0-0.1,0-0.1,0c-2.8,1.3-5.9,2-9,1.8c-0.3,0.1-0.5,0.3-0.8,0.4
				c0.2,0.4,0.2,0.6,0.1,0.9c-0.1,0.6-0.6,0.9-1.1,1c-0.3,0.1-1,0.5-1.4,0.3c0.6,0.2,2.4,0.1,2.9,0.8c0.8,1.1-0.1,1.8-0.6,2.1
				c-0.3,0.2-0.6,0.3-0.9,0.5c-0.3,0.2-0.6,0.6-1,0.6c0.4-0.1,2.3-0.7,2.7-0.7c2.6,0,2.7,2.6,1.7,4.8c0.2-0.5,1.2-1.4,1.5-1.8
				c0.4-0.5,1.1-0.9,1.8-0.4c1,0.7,0.9,2.8,1,2.6c0,0.2-0.1,1.1-0.1,1.2c0.5-1,1.4-3.9,2.4-1.6c0.5,1.1,0.7,2.9,0.6,4.1
				c0.3-1.9,0.9-5.5,2.1-5c0.1,0.1,0.4,0.3,0.5,0.4c0.7,1,1.7,2.7,2.5,4c-0.5-1.5-0.8-3.7-0.2-4.6c0.4-0.6,1.2-0.5,1.8,0
				c0.7,0.5,1.7,2.3,2.3,3c-0.6-1.7-1-4.9,0.2-5.2c1.2-0.3,2.3,1.2,3.7,2.6c-0.4-0.7-0.9-1.4-1.2-2.2c-0.2-0.8-0.2-1.7,0.2-2
				c0.6-0.5,1.1-0.8,1.9-0.3c1.2,0.7,1.1,0.5,2.3,1.2c-1.5-1.3-1.3-1.4-2.7-2.7c-0.3-0.3-0.5-0.6-0.5-1.1c-0.1-1,0.8-1.2,1.7-0.9
				c0.9,0.3,1.8,0.5,3.2,1.1c-1.5-1.1-4.1-2.7-4.2-3.3c-0.1-0.8,0.6-1.5,1.6-1.4c1,0.1,1.7,0.2,3,0.3c-1.4-0.7-2.7-0.9-3.6-2.2
				c-1.5-2.2,1.4-2.7,2.6-2.6c-0.2-0.1-0.8-0.1-0.9-0.2C219.5,25.8,219.2,25.7,218.9,25.5z"/>
		</g>
		<g>
			<path class="st20" d="M213,23.5c-1.7,1.6-3.5,2.5-5.3,3.4c-3.1,1.5-5.1,2.6-8.5,3.7c-1.2,0.4-2.7,0.8-4.1,1.3
				c2.1,2.7,6.2,5.1,9.4,5.4c2.1,0.2,4.4-0.3,6.2-1.2c1.9-1,3.1-3.2,4-5.1c1.3-2.9,1.5-6.5,0.2-9.6C214.4,22.2,213.6,22.7,213,23.5z
				"/>
		</g>
	</g>
	<g>
		<g>
			<g>
				<path class="st21" d="M209.4,30.2c2.7,0,4.6-1.6,4.7-1.7c0,0,0.1-0.1,0.2-0.1c0.2,0,0.8,0.4,0.9,0.5c0.2,0.1,0.5,0.3,0.7,0.5
					c0.2,0.1,0.4,0.2,0.5,0.3c1,1.8,2.3,3.4,3.9,4.6c1.7,1.5,3.7,2.6,5.5,3.4c3.1,1.2,6.3,1.9,9.7,1.9c1.4,0,3-0.2,4.5-0.6
					c1.3,0.4,2.9,0.5,4.5,0.9c0,0.1,0.1,0.8,0.2,0.9c1,5.8-2.6,20.3-15.5,19.2c-13.3-1.1-18.2-7.2-22.3-13
					c-4.1-5.8-2.9-14.2-2.3-15.5C205.4,30.2,206.8,30.2,209.4,30.2z"/>
			</g>
		</g>
		<g>
			<path class="st1" d="M216.5,29.7c0,0,1.6,2.3,1.8,2.5c0.7,0.8,1.5,1.5,2.3,2.2c1.6,1.3,3.4,2.4,5.3,3.2c3.1,1.2,6.3,1.9,9.7,1.9
				c1.4,0,2.5-0.5,4-0.9c1.3,0.4,2.9,0.7,4.6,1c0.9,3.8,0.1,7.8-1.5,11.2c-2.5,5.5-6.5,8.7-14.3,8.3c-1.6-0.1-3.5-0.6-4.9-0.9
				c-3.7-0.7-6.8-3-9-6.2c-0.9-1.3-1.5-2.8-2.2-4.3c-0.6-1.3-1.1-2.7-1.5-4.1c-0.4-1.2-0.5-2.5-0.6-3.8c-0.1-1.3,0-2.3,0.4-3.6
				c0.3-1.1,1-2,1.6-2.8c0.7-0.9,1.6-1.8,2.5-2.6C215.2,30.4,215.9,29.9,216.5,29.7z"/>
		</g>
		<g>
			<path class="st2" d="M215.1,37.1c0.6-0.4,1.4-0.8,1.6-1.6c0.1-0.8-1.5-1.9-2.6-3c0.9,0.5,1.7,0.6,2.5,0.8
				c0.6,0.2,1.1-0.5,1.5-1.3c2.4,3.7,8.4,6.4,12.3,6.7c0,0,0.1,0,0.1,0c3,0.8,6.2,0.8,9.2,0c0.3,0,0.6,0.2,0.8,0.2
				c-0.1,0.4-0.1,0.6,0.1,0.9c0.2,0.6,0.8,0.8,1.2,0.8c0.3,0,1.1,0.3,1.4,0.1c-0.5,0.3-2.3,0.6-2.7,1.4c-0.5,1.2,0.5,1.7,1,2
				c0.3,0.1,0.7,0.2,1,0.4c0.3,0.1,0.7,0.4,1.1,0.4c-0.4,0-2.4-0.3-2.8-0.2c-2.6,0.5-2.1,3.1-0.7,5c-0.3-0.5-1.4-1.2-1.8-1.5
				c-0.5-0.5-1.2-0.6-1.8,0c-0.8,0.9-0.4,2.9-0.5,2.7c0.1,0.2,0.3,1,0.4,1.2c-0.6-0.9-2.2-3.5-2.7-1.1c-0.3,1.2-0.1,3,0.3,4.1
				c-0.6-1.8-2-5.2-3-4.5c-0.1,0.2-0.4,0.3-0.4,0.5c-0.5,1.1-1.2,3-1.6,4.4c0.2-1.6,0-3.8-0.7-4.5c-0.5-0.5-1.2-0.2-1.8,0.4
				c-0.6,0.6-1.3,2.6-1.7,3.4c0.2-1.8,0-5-1.2-5c-1.2-0.1-2,1.7-3.1,3.3c0.3-0.8,0.6-1.6,0.7-2.4c0.1-0.8-0.1-1.7-0.6-2
				c-0.7-0.4-1.2-0.6-1.9,0.1c-1,0.9-1,0.7-2,1.6c1.2-1.6,1-1.6,2.1-3.2c0.2-0.4,0.3-0.7,0.3-1.2c-0.1-1-1-1-1.8-0.6
				c-0.8,0.5-1.7,0.9-2.9,1.7c1.3-1.4,3.5-3.4,3.5-4.1c0-0.8-0.9-1.4-1.8-1.1c-0.9,0.3-1.6,0.5-2.8,0.9c1.2-0.9,2.5-1.4,3.1-2.9
				c1-2.4-1.9-2.4-3-2c0.1-0.2,0.7-0.3,0.9-0.4C214.6,37.5,214.9,37.3,215.1,37.1z"/>
		</g>
		<g>
			<path class="st6" d="M220.5,33.9c2,1.2,3.9,1.7,5.8,2.3c3.3,0.9,5.5,1.5,9,1.9c1.2,0.1,2.8,0.3,4.3,0.5c-1.5,3.1-5.1,6.2-8.1,7.2
				c-2,0.6-4.4,0.6-6.4,0c-2-0.6-3.7-2.5-4.9-4.2c-1.9-2.5-2.8-6.1-2.1-9.4C218.9,32.9,219.7,33.4,220.5,33.9z"/>
		</g>
	</g>
	<g>
		<g>
			<g>
				<path class="st7" d="M239.5,42.8c-2.7,0.3-4.7-1-4.9-1.2c0,0-0.1-0.1-0.2-0.1c-0.2,0-0.7,0.5-0.9,0.6c-0.2,0.2-0.4,0.4-0.7,0.5
					c-0.1,0.1-0.4,0.2-0.5,0.4c-0.8,1.9-1.9,3.7-3.4,5c-1.5,1.7-3.3,3.1-5.1,4c-2.9,1.6-6,2.7-9.4,3.1c-1.4,0.2-3,0.2-4.5-0.1
					c-1.2,0.6-2.8,0.8-4.4,1.5c0,0.1,0,0.8,0,0.9c-0.3,5.9,5,19.9,17.8,17.2c13.1-2.7,17.2-9.3,20.5-15.6c3.4-6.3,1.2-14.5,0.4-15.7
					C243.5,42.3,242.2,42.5,239.5,42.8z"/>
			</g>
		</g>
		<g>
			<path class="st1" d="M232.4,43.2c0,0-1.3,2.4-1.5,2.7c-0.6,0.9-1.3,1.7-2.1,2.5c-1.5,1.5-3.1,2.8-4.9,3.8c-2.9,1.6-6,2.7-9.4,3.1
				c-1.4,0.2-2.5-0.2-4-0.4c-1.2,0.6-2.8,1.1-4.4,1.6c-0.4,3.8,0.9,7.7,2.8,10.9c3.1,5.1,7.5,7.8,15.2,6.5c1.6-0.3,3.4-1,4.8-1.5
				c3.6-1.2,6.4-3.8,8.2-7.3c0.7-1.4,1.2-3,1.7-4.6c0.4-1.4,0.8-2.8,1-4.2c0.2-1.2,0.2-2.6,0.2-3.9c0-1.3-0.3-2.3-0.9-3.5
				c-0.5-1-1.2-1.8-2-2.6c-0.8-0.9-1.8-1.6-2.8-2.2C233.8,43.8,233.1,43.4,232.4,43.2z"/>
		</g>
		<g>
			<path class="st2" d="M234.7,50.4c-0.6-0.3-1.5-0.7-1.7-1.4c-0.2-0.8,1.2-2.1,2.2-3.3c-0.8,0.6-1.6,0.8-2.4,1.1
				c-0.6,0.3-1.1-0.4-1.6-1.1c-1.9,4-7.6,7.3-11.4,8.2c0,0-0.1,0-0.1,0c-2.9,1.1-6,1.6-9.1,1.1c-0.3,0.1-0.5,0.3-0.8,0.3
				c0.1,0.4,0.1,0.6,0.1,0.9c-0.2,0.6-0.7,0.8-1.1,1c-0.3,0.1-1,0.4-1.4,0.2c0.5,0.2,2.4,0.3,2.8,1c0.7,1.1-0.2,1.8-0.8,2.1
				c-0.3,0.2-0.7,0.3-1,0.5c-0.3,0.2-0.7,0.5-1,0.6c0.4,0,2.3-0.6,2.7-0.5c2.6,0.2,2.5,2.8,1.3,4.9c0.3-0.5,1.3-1.3,1.6-1.7
				c0.4-0.5,1.2-0.8,1.8-0.2c0.9,0.8,0.7,2.8,0.8,2.7c0,0.2-0.2,1-0.2,1.2c0.5-1,1.7-3.7,2.5-1.4c0.4,1.1,0.5,2.9,0.2,4.1
				c0.4-1.9,1.3-5.4,2.5-4.8c0.1,0.1,0.4,0.3,0.5,0.5c0.7,1.1,1.5,2.8,2.1,4.2c-0.4-1.6-0.5-3.8,0.1-4.6c0.4-0.5,1.2-0.4,1.8,0.2
				c0.6,0.5,1.6,2.4,2.1,3.2c-0.5-1.8-0.6-4.9,0.6-5.1c1.2-0.2,2.2,1.4,3.5,2.9c-0.4-0.7-0.8-1.5-1-2.3c-0.2-0.8-0.1-1.7,0.3-2
				c0.6-0.4,1.2-0.7,1.9-0.1c1.1,0.8,1,0.6,2.2,1.3c-1.4-1.4-1.2-1.4-2.5-2.9c-0.3-0.3-0.4-0.7-0.5-1.1c0-1,0.9-1.1,1.7-0.8
				c0.9,0.4,1.8,0.7,3.1,1.3c-1.4-1.2-3.9-3-4-3.7c-0.1-0.8,0.8-1.5,1.7-1.3c0.9,0.2,1.7,0.3,2.9,0.5c-1.3-0.8-2.6-1.1-3.4-2.5
				c-1.3-2.3,1.6-2.6,2.8-2.4c-0.2-0.1-0.7-0.2-0.9-0.3C235.3,50.7,235,50.6,234.7,50.4z"/>
		</g>
		<g>
			<path class="st6" d="M228.9,47.9c-1.8,1.4-3.7,2.2-5.5,3c-3.2,1.3-5.3,2.2-8.7,3c-1.2,0.3-2.8,0.6-4.2,1c1.9,2.9,5.8,5.6,8.9,6.1
				c2,0.4,4.4,0,6.3-0.8c2-0.8,3.3-2.9,4.4-4.8c1.5-2.8,2-6.4,0.9-9.6C230.5,46.7,229.7,47.2,228.9,47.9z"/>
		</g>
	</g>
	<g>
		<g>
			<g>
				<path class="st0" d="M203.1,39.1c-2.4-1.3-3.4-3.6-3.4-3.8c0-0.1-0.1-0.1-0.1-0.1c-0.1-0.1-0.9,0-1.1,0c-0.3,0-0.6,0.1-0.8,0.1
					c-0.2,0-0.5-0.1-0.6,0c-1.7,1.1-3.6,1.9-5.5,2.1c-2.2,0.5-4.4,0.6-6.4,0.3c-3.3-0.4-6.5-1.3-9.4-3c-1.3-0.7-2.6-1.6-3.7-2.7
					c-1.3-0.2-2.7-1-4.4-1.4c-0.1,0.1-0.5,0.6-0.5,0.7c-3.5,4.6-6.8,19.2,5.2,24.5c12.3,5.4,19.3,2.4,25.6-0.7
					c6.2-3.1,8.9-11.1,8.9-12.6C206.7,41,205.5,40.4,203.1,39.1z"/>
			</g>
		</g>
		<g>
			<path class="st8" d="M197,35.2c0,0-2.4,1.2-2.7,1.3c-1,0.4-2,0.6-3.1,0.8c-2,0.4-4.1,0.5-6.2,0.3c-3.3-0.4-6.5-1.3-9.4-3
				c-1.3-0.7-2-1.6-3.1-2.7c-1.3-0.2-2.9-0.8-4.5-1.3c-2.5,2.9-3.5,6.8-3.7,10.6c-0.2,6,1.9,10.8,9,14.2c1.5,0.7,3.4,1.2,4.8,1.6
				c3.6,1.1,7.4,0.6,10.7-1.2c1.4-0.7,2.6-1.8,3.9-2.7c1.1-0.9,2.2-1.8,3.2-2.9c0.9-0.9,1.6-2,2.3-3.1c0.7-1.1,1-2.1,1.2-3.4
				c0.2-1.1,0-2.2-0.2-3.3c-0.2-1.2-0.6-2.4-1.1-3.5C197.9,36.5,197.5,35.8,197,35.2z"/>
		</g>
		<g>
			<path class="st9" d="M195,42.4c-0.3-0.6-0.9-1.4-0.7-2.1c0.2-0.8,2.2-1,3.6-1.4c-1,0-1.7-0.3-2.6-0.5c-0.7-0.1-0.7-1-0.7-1.9
				c-3.8,2.1-10.3,1.5-14,0c0,0-0.1,0-0.1,0c-3-0.8-5.9-2.2-8.2-4.5c-0.3-0.1-0.6-0.1-0.9-0.2c-0.1,0.4-0.2,0.5-0.4,0.7
				c-0.5,0.4-1,0.3-1.5,0.1c-0.3-0.1-1-0.3-1.3-0.6c0.3,0.5,1.8,1.7,1.8,2.5c0,1.3-1.2,1.3-1.8,1.3c-0.4,0-0.7-0.1-1.1-0.2
				c-0.3,0-0.9,0-1.2-0.1c0.3,0.2,2.2,0.9,2.5,1.2c2,1.7,0.5,3.7-1.6,4.8c0.5-0.3,1.8-0.3,2.3-0.5c0.7-0.2,1.4,0,1.6,0.9
				c0.3,1.2-1,2.8-0.8,2.6c-0.1,0.1-0.7,0.7-0.8,0.8c1-0.5,3.5-2.1,2.9,0.4c-0.3,1.2-1.2,2.7-2.1,3.5c1.4-1.3,4.1-3.6,4.7-2.5
				c0,0.2,0.2,0.5,0.2,0.7c0,1.3-0.3,3.2-0.5,4.7c0.6-1.5,1.7-3.4,2.6-3.7c0.6-0.2,1.2,0.4,1.4,1.2c0.2,0.8,0,2.9,0,3.8
				c0.6-1.7,2.2-4.4,3.3-3.9c1.1,0.5,1,2.4,1.3,4.4c0.1-0.8,0.2-1.7,0.5-2.5c0.3-0.8,0.8-1.4,1.4-1.4c0.8,0,1.3,0.1,1.7,1
				c0.5,1.3,0.5,1.1,1.1,2.4c-0.3-1.9-0.2-1.9-0.4-3.8c-0.1-0.5,0-0.8,0.2-1.2c0.5-0.9,1.4-0.4,1.9,0.4c0.5,0.8,1.1,1.6,1.8,2.9
				c-0.5-1.8-1.6-4.7-1.3-5.3c0.4-0.7,1.4-0.7,2.1,0c0.7,0.7,1.2,1.3,2.1,2.2c-0.7-1.4-1.6-2.4-1.5-4.1c0.2-2.6,2.8-1.2,3.6-0.3
				c0-0.2-0.5-0.6-0.6-0.8C195.3,43.1,195.2,42.8,195,42.4z"/>
		</g>
		<g>
			<path class="st22" d="M191.6,37c-2.3,0.1-4.2-0.4-6.2-0.8c-3.3-0.8-5.6-1.4-8.9-2.7c-1.1-0.5-2.6-1.1-4-1.6
				c-0.1,3.5,1.8,8,4,10.3c1.5,1.5,3.7,2.7,5.6,3.1c2.1,0.5,4.4-0.4,6.3-1.4c2.8-1.3,5.2-4,6-7.3C193.5,37,192.6,36.9,191.6,37z"/>
		</g>
	</g>
	<g>
		<g>
			<g>
				<path class="st23" d="M167.4,33.9c-2.6,0.8-4.8,0-5-0.1c-0.1,0-0.1,0-0.2,0c-0.2,0-0.6,0.7-0.7,0.8c-0.2,0.2-0.4,0.5-0.5,0.7
					c-0.1,0.1-0.4,0.3-0.4,0.5c-0.5,2-1.2,4-2.5,5.6c-1.2,2-2.7,3.7-4.3,5c-2.6,2.2-5.5,3.9-8.6,5c-1.4,0.5-2.9,0.8-4.5,0.8
					c-1.1,0.8-2.6,1.4-4,2.3c0,0.1,0.1,0.8,0.1,0.9c0.6,5.9,8.2,18.6,20.2,13.3c12.3-5.4,15.3-12.8,17.5-19.7
					c2.3-6.9-1.2-14.5-2.2-15.6C171.2,32.6,169.9,33.1,167.4,33.9z"/>
			</g>
		</g>
		<g>
			<path class="st1" d="M160.5,35.8c0,0-0.9,2.7-1,3c-0.4,1-1,2-1.6,2.9c-1.2,1.8-2.5,3.4-4.2,4.8c-2.6,2.2-5.5,3.9-8.6,5
				c-1.4,0.5-2.5,0.4-4,0.4c-1.1,0.8-2.6,1.7-4.1,2.5c0.2,3.9,2.1,7.4,4.6,10.2c3.9,4.4,8.7,6.1,15.9,3.2c1.5-0.6,3.2-1.7,4.4-2.5
				c3.3-1.9,5.6-5.1,6.8-8.9c0.5-1.6,0.6-3.2,0.9-4.8c0.2-1.4,0.3-2.9,0.3-4.4c0-1.3-0.2-2.6-0.5-3.9c-0.2-1.2-0.7-2.2-1.4-3.3
				c-0.6-0.9-1.5-1.6-2.4-2.2c-1-0.7-2-1.2-3.1-1.6C161.9,36.1,161.2,35.8,160.5,35.8z"/>
		</g>
		<g>
			<path class="st2" d="M163.9,42.4c-0.7-0.2-1.6-0.3-1.9-1c-0.4-0.8,0.9-2.3,1.6-3.7c-0.7,0.8-1.4,1.1-2.2,1.6
				c-0.6,0.4-1.1-0.2-1.8-0.8c-1.2,4.3-6.2,8.8-9.8,10.4c0,0-0.1,0-0.1,0c-2.7,1.7-5.6,2.8-8.8,3c-0.3,0.1-0.5,0.4-0.7,0.5
				c0.2,0.4,0.2,0.5,0.2,0.8c-0.1,0.7-0.5,1-0.9,1.2c-0.3,0.2-0.9,0.6-1.3,0.5c0.6,0.1,2.4-0.2,2.9,0.4c0.9,1,0.1,1.8-0.4,2.2
				c-0.3,0.2-0.6,0.4-0.9,0.7c-0.3,0.2-0.6,0.7-0.9,0.8c0.4-0.1,2.2-1,2.6-1.1c2.6-0.3,2.9,2.3,2.1,4.6c0.2-0.6,1-1.6,1.3-2
				c0.3-0.6,1-1,1.7-0.6c1.1,0.6,1.2,2.7,1.2,2.5c0,0.2,0,1.1,0,1.2c0.4-1.1,1.1-4.1,2.3-1.9c0.6,1,1,2.8,0.9,4
				c0.1-2,0.4-5.6,1.6-5.3c0.1,0.1,0.4,0.2,0.6,0.4c0.8,0.9,2,2.5,2.8,3.7c-0.6-1.5-1.1-3.6-0.6-4.5c0.3-0.6,1.1-0.6,1.8-0.2
				c0.7,0.4,1.9,2,2.5,2.7c-0.7-1.7-1.4-4.7-0.3-5.2c1.1-0.4,2.4,0.9,3.9,2.1c-0.5-0.6-1-1.3-1.3-2.1c-0.3-0.8-0.4-1.6,0-2.1
				c0.5-0.6,1-0.9,1.9-0.5c1.2,0.5,1.1,0.4,2.4,0.9c-1.6-1.1-1.4-1.2-2.9-2.4c-0.3-0.3-0.5-0.6-0.6-1c-0.2-1,0.7-1.3,1.6-1.1
				c0.9,0.2,1.8,0.3,3.2,0.7c-1.6-0.9-4.3-2.1-4.5-2.8c-0.2-0.8,0.5-1.6,1.5-1.6c1,0,1.7,0,2.9-0.1c-1.4-0.5-2.8-0.5-3.8-1.7
				c-1.7-2,1.1-2.9,2.3-2.9c-0.2-0.1-0.8,0-0.9-0.1C164.6,42.6,164.2,42.5,163.9,42.4z"/>
		</g>
		<g>
			<path class="st6" d="M157.9,41.2c-1.6,1.8-3.2,2.9-4.9,4.1c-2.9,2-4.8,3.2-8.1,4.8c-1.1,0.5-2.6,1.2-3.9,1.9
				c2.3,2.5,6.6,4.3,9.7,4.2c2-0.1,4.4-0.9,6.1-2.1c1.8-1.2,2.8-3.6,3.5-5.7c1.1-3,0.9-6.7-0.7-9.7
				C159.2,39.7,158.5,40.4,157.9,41.2z"/>
		</g>
	</g>
	<g>
		<g>
			<g>
				<path class="st24" d="M213.6,53.6c-1.5,2.2-1.4,4.6-1.4,4.9c0,0.1,0,0.1,0,0.2c-0.1,0.2-0.8,0.4-1,0.5c-0.3,0.1-0.5,0.2-0.8,0.3
					c-0.2,0.1-0.4,0.3-0.6,0.2c-2-0.2-4.1-0.1-6,0.5c-2.2,0.5-4.3,1.4-6,2.5c-2.8,1.8-5.3,4-7.2,6.7c-0.8,1.2-1.6,2.6-2.1,4
					c-1.1,0.8-2,2.1-3.4,3.1c-0.1-0.1-0.7-0.4-0.8-0.4c-5.3-2.6-14.9-14.1-6.4-23.9c8.7-10.1,16.5-10.5,23.5-10.4
					c7.1,0.1,13.2,6,13.9,7.3C216,50.3,215.2,51.4,213.6,53.6z"/>
			</g>
		</g>
		<g>
			<path class="st1" d="M209.8,59.7c0,0-2.8-0.1-3,0c-1.1,0.1-2.1,0.3-3.2,0.6c-2,0.5-4,1.3-5.7,2.4c-2.8,1.8-5.3,4-7.2,6.7
				c-0.8,1.2-1.1,2.3-1.6,3.8c-1.1,0.8-2.3,2-3.5,3.1c-3.6-1.5-6.3-4.5-8.2-7.8c-3-5.2-3.2-10.4,1.7-16.4c1-1.3,2.6-2.5,3.6-3.5
				c2.8-2.6,6.4-3.7,10.3-3.6c1.6,0,3.2,0.4,4.8,0.8c1.4,0.3,2.8,0.7,4.2,1.2c1.2,0.4,2.4,1.1,3.5,1.7c1.1,0.6,1.9,1.4,2.6,2.5
				c0.7,0.9,1,1.9,1.3,3c0.3,1.2,0.5,2.4,0.6,3.5C210,58.2,210,59,209.8,59.7z"/>
		</g>
		<g>
			<path class="st2" d="M204.7,54.2c0,0.7-0.2,1.7,0.3,2.2c0.6,0.6,2.4-0.1,3.9-0.3c-0.9,0.4-1.4,1-2.1,1.6c-0.5,0.4-0.2,1.2,0.2,2
				c-4.4-0.3-10.1,3.1-12.7,6.1c0,0,0,0-0.1,0.1c-2.4,2-4.3,4.5-5.4,7.5c-0.2,0.2-0.5,0.3-0.7,0.5c-0.3-0.3-0.4-0.4-0.7-0.5
				c-0.6-0.2-1.1,0.2-1.4,0.5c-0.2,0.3-0.8,0.7-0.9,1.1c0.1-0.6,0.9-2.2,0.5-3c-0.6-1.1-1.7-0.6-2.2-0.4c-0.3,0.2-0.6,0.4-0.9,0.6
				c-0.3,0.2-0.8,0.3-1,0.6c0.2-0.3,1.6-1.7,1.8-2.1c1.1-2.4-1.3-3.5-3.6-3.5c0.6,0,1.8-0.5,2.3-0.6c0.7-0.1,1.2-0.6,1.1-1.5
				c-0.3-1.2-2.1-2-1.9-2c-0.2,0-1-0.3-1.2-0.4c1.1,0,4.1,0.3,2.4-1.5c-0.8-0.9-2.3-1.9-3.5-2.2c1.9,0.6,5.4,1.4,5.4,0.2
				c-0.1-0.2-0.1-0.5-0.2-0.7c-0.6-1.1-1.7-2.7-2.6-3.9c1.2,1.1,3.1,2.2,4.1,2.1c0.7-0.1,0.9-0.9,0.7-1.7c-0.2-0.8-1.3-2.5-1.8-3.4
				c1.3,1.3,4,3,4.7,2c0.7-0.9-0.2-2.6-0.8-4.4c0.5,0.7,0.9,1.4,1.5,2c0.6,0.6,1.4,0.9,1.9,0.7c0.7-0.3,1.2-0.7,1.1-1.6
				c-0.1-1.4,0-1.2-0.1-2.6c0.6,1.9,0.7,1.8,1.4,3.6c0.2,0.4,0.4,0.7,0.7,0.9c0.9,0.5,1.4-0.2,1.5-1.1c0.1-1,0.3-1.9,0.3-3.3
				c0.4,1.8,0.7,4.9,1.3,5.3c0.7,0.5,1.6,0,1.9-0.9c0.3-0.9,0.5-1.6,0.9-2.8c0,1.5-0.3,2.8,0.5,4.2c1.4,2.3,3-0.1,3.4-1.3
				c0.1,0.2-0.2,0.7-0.2,0.9C204.7,53.5,204.7,53.8,204.7,54.2z"/>
		</g>
		<g>
			<path class="st3" d="M204,60.4c-2.2,0.9-3.7,2.1-5.3,3.4c-2.7,2.1-4.5,3.6-6.9,6.2c-0.8,0.9-1.9,2.1-2.9,3.2c-1.6-3-2-7.8-1-10.8
				c0.7-2,2.1-3.9,3.7-5.2c1.7-1.3,4.2-1.5,6.3-1.5c3.2,0,6.6,1.3,8.8,3.9C205.8,59.7,205,60.1,204,60.4z"/>
		</g>
	</g>
</g>
</svg>
