<?xml version="1.0" encoding="UTF-8"?><svg id="a" xmlns="http://www.w3.org/2000/svg" viewBox="0 0 256 200"><defs><style>.b{fill:#c60525;}.c{fill:#68361d;}.d{fill:#ee3d4a;}.e{fill:#dd283e;}.f{fill:#d81220;}.g{fill:#e81e25;}</style></defs><g><g><path class="b" d="M218.42,100.6c-.08-.53-.84-1.12-1.19-1.44-2.22-1.98-4.55-3.8-6.93-5.58-1.04-.78-2.08-1.56-3.12-2.34-1.25-.93-2.46-1.9-3.69-2.85-1.04-.8-2.14-1.51-3.17-2.33-1.18-.94-2.39-1.85-3.63-2.71-1.21-.84-2.33-1.8-3.52-2.68-2.38-1.75-4.66-3.62-7.01-5.4-.51-.39-1.03-.77-1.53-1.18-.22-.18-.39-.32-.59-.49-.14-.12-1.39,.45-1.59,.52-1.35,.48-2.69,1.02-4,1.6-1.25,.56-2.49,1.17-3.69,1.82-1.62,.88-3.19,1.84-4.69,2.9-1.62,1.14-3.17,2.4-4.61,3.79-1.14,1.11-2.21,2.29-3.17,3.55-.96,1.26-1.82,2.6-2.54,4.02-.25,.5-.82,1.95-1.27,3.25-.24,.68-.44,1.32-.55,1.76,1.79,.18,6.41,.64,12.03,1,8.98,.57,18.08,.86,27.06,1.37,3.43,.19,6.65,.31,10.08,.55,3.23,.22,6.61,.33,10,.65,.44,.04,.87,.15,1.32,.35,0-.05,0-.1,0-.15Z"/><path class="f" d="M218.62,101.55c-.03-.23-.09-.62-.2-.81-.45-.19-.87-.31-1.32-.35-3.39-.32-6.76-.43-10-.65-3.43-.24-6.65-.35-10.08-.55-8.98-.51-18.08-.79-27.06-1.37-5.62-.36-10.24-.82-12.03-1h0s-.05,.2-.08,.46c-.04,.33-.07,.67-.11,1-.11,.94-.17,1.93-.19,2.88-.05,1.79-.12,3.84,.39,5.57h0c2.88,.34,5.81,.3,8.71,.34,3.01,.05,6.01,.07,9.02,.06,2.95,0,5.89-.05,8.84-.11,2.85-.06,5.7-.35,8.55-.35,2.9-.16,5.77-.41,8.67-.56,3-.16,6-.33,8.99-.53,1.35-.09,2.7-.2,4.05-.31,1.08-.09,3.03-.36,3.37-.62,.43-.33,.57-2.26,.48-3.11Z"/></g><g><path class="c" d="M198.14,87.61c-.15-.46-.41-1-.9-1.17-.79-.27-1.09,.6-.96,1.23,.13,.61,.78,1.37,1.39,1.57,.45,.15,.45-.14,.47-.5,.02-.39,.12-.75,0-1.13Z"/><path class="c" d="M197.27,93.46c-.63-.62-2.33-1.82-2.97-.61-.48,.9,.43,1.54,1.26,1.47,.25-.02,2.15-.43,1.71-.86Z"/><path class="c" d="M191.59,88.42c-.06-.25-.11-.58-.15-.78-.01-.54-.16-1.13-.54-1.53-.42-.44-1.28-.5-1.61,.11-.22,.41-.08,1.05,.38,1.48,.54,.5,1.45,.76,1.52,.81,.13,.08,.48,.2,.42-.09Z"/><path class="c" d="M184.35,92.89c-.45-.21-.86-.5-1.34-.66-.63-.21-1.8,0-1.82,.85-.02,.9,1.21,1.19,1.89,.99,.2-.06,1.91-.91,1.27-1.18Z"/><path class="c" d="M183.84,102.7c-.14-.69-.39-1.6-.94-2.06-.72-.6-1.73-.03-1.64,.87,.06,.57,.49,1.08,.95,1.34,.25,.14,1.95,.59,1.64-.14Z"/><path class="c" d="M190.74,103.72c-.18-.17-.68-.21-.92-.18-.45,.06-.96,.27-1.31,.54-.34,.26-.69,.71-.44,1.17,.2,.38,.8,.39,1.15,.28,0,0,0,0-.01,0,.43-.13,.82-.47,1.06-.76,.17-.2,.81-.81,.47-1.06Z"/></g></g><g><g><path class="b" d="M212.19,84.29c-.08-.53-.84-1.12-1.19-1.44-2.22-1.98-4.55-3.8-6.93-5.58-1.04-.78-2.08-1.56-3.12-2.34-1.25-.93-2.46-1.9-3.69-2.85-1.04-.8-2.14-1.51-3.17-2.33-1.18-.94-2.39-1.85-3.63-2.71-1.21-.84-2.33-1.8-3.52-2.68-2.38-1.75-4.66-3.62-7.01-5.4-.51-.39-1.03-.77-1.53-1.18-.22-.18-.39-.32-.59-.49-.14-.12-1.39,.45-1.59,.52-1.35,.48-2.69,1.02-4,1.6-1.25,.56-2.49,1.17-3.69,1.82-1.62,.88-3.19,1.84-4.69,2.9-1.62,1.14-3.17,2.4-4.61,3.79-1.14,1.11-2.21,2.29-3.17,3.55-.96,1.26-1.82,2.6-2.54,4.02-.25,.5-.82,1.95-1.27,3.25-.24,.68-.44,1.32-.55,1.76,1.79,.18,6.41,.64,12.03,1,8.98,.57,18.08,.86,27.06,1.37,3.43,.19,6.65,.31,10.08,.55,3.23,.22,6.61,.33,10,.65,.44,.04,.87,.15,1.32,.35,0-.05,0-.1,0-.15Z"/><path class="f" d="M212.39,85.25c-.03-.23-.09-.62-.2-.81-.45-.19-.87-.31-1.32-.35-3.39-.32-6.76-.43-10-.65-3.43-.24-6.65-.35-10.08-.55-8.98-.51-18.08-.79-27.06-1.37-5.62-.36-10.24-.82-12.03-1h0s-.05,.2-.08,.46c-.04,.33-.07,.67-.11,1-.11,.94-.17,1.93-.19,2.88-.05,1.79-.12,3.84,.39,5.57h0c2.88,.34,5.81,.3,8.71,.34,3.01,.05,6.01,.07,9.02,.06,2.95,0,5.89-.05,8.84-.11,2.85-.06,5.7-.35,8.55-.35,2.9-.16,5.77-.41,8.67-.56,3-.16,6-.33,8.99-.53,1.35-.09,2.7-.2,4.05-.31,1.08-.09,3.03-.36,3.37-.62,.43-.33,.57-2.26,.48-3.11Z"/></g><g><path class="c" d="M191.91,71.3c-.15-.46-.41-1-.9-1.17-.79-.27-1.09,.6-.96,1.23,.13,.61,.78,1.37,1.39,1.57,.45,.15,.45-.14,.47-.5,.02-.39,.12-.75,0-1.13Z"/><path class="c" d="M191.05,77.16c-.63-.62-2.33-1.82-2.97-.61-.48,.9,.43,1.54,1.26,1.47,.25-.02,2.15-.43,1.71-.86Z"/><path class="c" d="M185.36,72.11c-.06-.25-.11-.58-.15-.78-.01-.54-.16-1.13-.54-1.53-.42-.44-1.28-.5-1.61,.11-.22,.41-.08,1.05,.38,1.48,.54,.5,1.45,.76,1.52,.81,.13,.08,.48,.2,.42-.09Z"/><path class="c" d="M178.13,76.58c-.45-.21-.86-.5-1.34-.66-.63-.21-1.8,0-1.82,.85-.02,.9,1.21,1.19,1.89,.99,.2-.06,1.91-.91,1.27-1.18Z"/><path class="c" d="M177.61,86.4c-.14-.69-.39-1.6-.94-2.06-.72-.6-1.73-.03-1.64,.87,.06,.57,.49,1.08,.95,1.34,.25,.14,1.95,.59,1.64-.14Z"/><path class="c" d="M184.52,87.41c-.18-.17-.68-.21-.92-.18-.45,.06-.96,.27-1.31,.54-.34,.26-.69,.71-.44,1.17,.2,.38,.8,.39,1.15,.28,0,0,0,0-.01,0,.43-.13,.82-.47,1.06-.76,.17-.2,.81-.81,.47-1.06Z"/></g></g><g><g><path class="b" d="M203.88,68.25c-.08-.53-.84-1.12-1.19-1.44-2.22-1.98-4.55-3.8-6.93-5.58-1.04-.78-2.08-1.56-3.12-2.34-1.25-.93-2.46-1.9-3.69-2.85-1.04-.8-2.14-1.51-3.17-2.33-1.18-.94-2.39-1.85-3.63-2.71-1.21-.84-2.33-1.8-3.52-2.68-2.38-1.75-4.66-3.62-7.01-5.4-.51-.39-1.03-.77-1.53-1.18-.22-.18-.39-.32-.59-.49-.14-.12-1.39,.45-1.59,.52-1.35,.48-2.69,1.02-4,1.6-1.25,.56-2.49,1.17-3.69,1.82-1.62,.88-3.19,1.84-4.69,2.9-1.62,1.14-3.17,2.4-4.61,3.79-1.14,1.11-2.21,2.29-3.17,3.55-.96,1.26-1.82,2.6-2.54,4.02-.25,.5-.82,1.95-1.27,3.25-.24,.68-.44,1.32-.55,1.76,1.79,.18,6.41,.64,12.03,1,8.98,.57,18.08,.86,27.06,1.37,3.43,.19,6.65,.31,10.08,.55,3.23,.22,6.61,.33,10,.65,.44,.04,.87,.15,1.32,.35,0-.05,0-.1,0-.15Z"/><path class="f" d="M204.09,69.21c-.03-.23-.09-.62-.2-.81-.45-.19-.87-.31-1.32-.35-3.39-.32-6.76-.43-10-.65-3.43-.24-6.65-.35-10.08-.55-8.98-.51-18.08-.79-27.06-1.37-5.62-.36-10.24-.82-12.03-1h0s-.05,.2-.08,.46c-.04,.33-.07,.67-.11,1-.11,.94-.17,1.93-.19,2.88-.05,1.79-.12,3.84,.39,5.57h0c2.88,.34,5.81,.3,8.71,.34,3.01,.05,6.01,.07,9.02,.06,2.95,0,5.89-.05,8.84-.11,2.85-.06,5.7-.35,8.55-.35,2.9-.16,5.77-.41,8.67-.56,3-.16,6-.33,8.99-.53,1.35-.09,2.7-.2,4.05-.31,1.08-.09,3.03-.36,3.37-.62,.43-.33,.57-2.26,.48-3.11Z"/></g><g><path class="c" d="M183.6,55.26c-.15-.46-.41-1-.9-1.17-.79-.27-1.09,.6-.96,1.23,.13,.61,.78,1.37,1.39,1.57,.45,.15,.45-.14,.47-.5,.02-.39,.12-.75,0-1.13Z"/><path class="c" d="M182.74,61.12c-.63-.62-2.33-1.82-2.97-.61-.48,.9,.43,1.54,1.26,1.47,.25-.02,2.15-.43,1.71-.86Z"/><path class="c" d="M177.05,56.07c-.06-.25-.11-.58-.15-.78-.01-.54-.16-1.13-.54-1.53-.42-.44-1.28-.5-1.61,.11-.22,.41-.08,1.05,.38,1.48,.54,.5,1.45,.76,1.52,.81,.13,.08,.48,.2,.42-.09Z"/><path class="c" d="M169.82,60.54c-.45-.21-.86-.5-1.34-.66-.63-.21-1.8,0-1.82,.85-.02,.9,1.21,1.19,1.89,.99,.2-.06,1.91-.91,1.27-1.18Z"/><path class="c" d="M169.3,70.36c-.14-.69-.39-1.6-.94-2.06-.72-.6-1.73-.03-1.64,.87,.06,.57,.49,1.08,.95,1.34,.25,.14,1.95,.59,1.64-.14Z"/><path class="c" d="M176.21,71.37c-.18-.17-.68-.21-.92-.18-.45,.06-.96,.27-1.31,.54-.34,.26-.69,.71-.44,1.17,.2,.38,.8,.39,1.15,.28,0,0,0,0-.01,0,.43-.13,.82-.47,1.06-.76,.17-.2,.81-.81,.47-1.06Z"/></g></g><g><g><path class="b" d="M197.78,54.46c-.08-.53-.84-1.12-1.19-1.44-2.22-1.98-4.55-3.8-6.93-5.58-1.04-.78-2.08-1.56-3.12-2.34-1.25-.93-2.46-1.9-3.69-2.85-1.04-.8-2.14-1.51-3.17-2.33-1.18-.94-2.39-1.85-3.63-2.71-1.21-.84-2.33-1.8-3.52-2.68-2.38-1.75-4.66-3.62-7.01-5.4-.51-.39-1.03-.77-1.53-1.18-.22-.18-.39-.32-.59-.49-.14-.12-1.39,.45-1.59,.52-1.35,.48-2.69,1.02-4,1.6-1.25,.56-2.49,1.17-3.69,1.82-1.62,.88-3.19,1.84-4.69,2.9-1.62,1.14-3.17,2.4-4.61,3.79-1.14,1.11-2.21,2.29-3.17,3.55-.96,1.26-1.82,2.6-2.54,4.02-.25,.5-.82,1.95-1.27,3.25-.24,.68-.44,1.32-.55,1.76,1.79,.18,6.41,.64,12.03,1,8.98,.57,18.08,.86,27.06,1.37,3.43,.19,6.65,.31,10.08,.55,3.23,.22,6.61,.33,10,.65,.44,.04,.87,.15,1.32,.35,0-.05,0-.1,0-.15Z"/><path class="f" d="M197.98,55.42c-.03-.23-.09-.62-.2-.81-.45-.19-.87-.31-1.32-.35-3.39-.32-6.76-.43-10-.65-3.43-.24-6.65-.35-10.08-.55-8.98-.51-18.08-.79-27.06-1.37-5.62-.36-10.24-.82-12.03-1h0s-.05,.2-.08,.46c-.04,.33-.07,.67-.11,1-.11,.94-.17,1.93-.19,2.88-.05,1.79-.12,3.84,.39,5.57h0c2.88,.34,5.81,.3,8.71,.34,3.01,.05,6.01,.07,9.02,.06,2.95,0,5.89-.05,8.84-.11,2.85-.06,5.7-.35,8.55-.35,2.9-.16,5.77-.41,8.67-.56,3-.16,6-.33,8.99-.53,1.35-.09,2.7-.2,4.05-.31,1.08-.09,3.03-.36,3.37-.62,.43-.33,.57-2.26,.48-3.11Z"/></g><g><path class="c" d="M177.5,41.47c-.15-.46-.41-1-.9-1.17-.79-.27-1.09,.6-.96,1.23,.13,.61,.78,1.37,1.39,1.57,.45,.15,.45-.14,.47-.5,.02-.39,.12-.75,0-1.13Z"/><path class="c" d="M176.64,47.33c-.63-.62-2.33-1.82-2.97-.61-.48,.9,.43,1.54,1.26,1.47,.25-.02,2.15-.43,1.71-.86Z"/><path class="c" d="M170.95,42.28c-.06-.25-.11-.58-.15-.78-.01-.54-.16-1.13-.54-1.53-.42-.44-1.28-.5-1.61,.11-.22,.41-.08,1.05,.38,1.48,.54,.5,1.45,.76,1.52,.81,.13,.08,.48,.2,.42-.09Z"/><path class="c" d="M163.72,46.75c-.45-.21-.86-.5-1.34-.66-.63-.21-1.8,0-1.82,.85-.02,.9,1.21,1.19,1.89,.99,.2-.06,1.91-.91,1.27-1.18Z"/><path class="c" d="M163.2,56.57c-.14-.69-.39-1.6-.94-2.06-.72-.6-1.73-.03-1.64,.87,.06,.57,.49,1.08,.95,1.34,.25,.14,1.95,.59,1.64-.14Z"/><path class="c" d="M170.11,57.58c-.18-.17-.68-.21-.92-.18-.45,.06-.96,.27-1.31,.54-.34,.26-.69,.71-.44,1.17,.2,.38,.8,.39,1.15,.28,0,0,0,0-.01,0,.43-.13,.82-.47,1.06-.76,.17-.2,.81-.81,.47-1.06Z"/></g></g><g><g><path class="e" d="M193.57,38.24c-.08-.53-.84-1.12-1.19-1.44-2.22-1.98-4.55-3.8-6.93-5.58-1.04-.78-2.08-1.56-3.12-2.34-1.25-.93-2.46-1.9-3.69-2.85-1.04-.8-2.14-1.51-3.17-2.33-1.18-.94-2.39-1.85-3.63-2.71-1.21-.84-2.33-1.8-3.52-2.68-2.38-1.75-4.66-3.62-7.01-5.4-.51-.39-1.03-.77-1.53-1.18-.22-.18-.39-.32-.59-.49-.14-.12-1.39,.45-1.59,.52-1.35,.48-2.69,1.02-4,1.6-1.25,.56-2.49,1.17-3.69,1.82-1.62,.88-3.19,1.84-4.69,2.9-1.62,1.14-3.17,2.4-4.61,3.79-1.14,1.11-2.21,2.29-3.17,3.55-.96,1.26-1.82,2.6-2.54,4.02-.25,.5-.82,1.95-1.27,3.25-.24,.68-.44,1.32-.55,1.76,1.79,.18,6.41,.64,12.03,1,8.98,.57,18.08,.86,27.06,1.37,3.43,.19,6.65,.31,10.08,.55,3.23,.22,6.61,.33,10,.65,.44,.04,.87,.15,1.32,.35,0-.05,0-.1,0-.15Z"/><path class="f" d="M193.78,39.19c-.03-.23-.09-.62-.2-.81-.45-.19-.87-.31-1.32-.35-3.39-.32-6.76-.43-10-.65-3.43-.24-6.65-.35-10.08-.55-8.98-.51-18.08-.79-27.06-1.37-5.62-.36-10.24-.82-12.03-1h0s-.05,.2-.08,.46c-.04,.33-.07,.67-.11,1-.11,.94-.17,1.93-.19,2.88-.05,1.79-.12,3.84,.39,5.57h0c2.88,.34,5.81,.3,8.71,.34,3.01,.05,6.01,.07,9.02,.06,2.95,0,5.89-.05,8.84-.11,2.85-.06,5.7-.35,8.55-.35,2.9-.16,5.77-.41,8.67-.56,3-.16,6-.33,8.99-.53,1.35-.09,2.7-.2,4.05-.31,1.08-.09,3.03-.36,3.37-.62,.43-.33,.57-2.26,.48-3.11Z"/></g><g><path class="c" d="M173.29,25.25c-.15-.46-.41-1-.9-1.17-.79-.27-1.09,.6-.96,1.23,.13,.61,.78,1.37,1.39,1.57,.45,.15,.45-.14,.47-.5,.02-.39,.12-.75,0-1.13Z"/><path class="c" d="M172.43,31.1c-.63-.62-2.33-1.82-2.97-.61-.48,.9,.43,1.54,1.26,1.47,.25-.02,2.15-.43,1.71-.86Z"/><path class="c" d="M166.74,26.06c-.06-.25-.11-.58-.15-.78-.01-.54-.16-1.13-.54-1.53-.42-.44-1.28-.5-1.61,.11-.22,.41-.08,1.05,.38,1.48,.54,.5,1.45,.76,1.52,.81,.13,.08,.48,.2,.42-.09Z"/><path class="c" d="M159.51,30.53c-.45-.21-.86-.5-1.34-.66-.63-.21-1.8,0-1.82,.85-.02,.9,1.21,1.19,1.89,.99,.2-.06,1.91-.91,1.27-1.18Z"/><path class="c" d="M158.99,40.34c-.14-.69-.39-1.6-.94-2.06-.72-.6-1.73-.03-1.64,.87,.06,.57,.49,1.08,.95,1.34,.25,.14,1.95,.59,1.64-.14Z"/><path class="c" d="M165.9,41.36c-.18-.17-.68-.21-.92-.18-.45,.06-.96,.27-1.31,.54-.34,.26-.69,.71-.44,1.17,.2,.38,.8,.39,1.15,.28,0,0,0,0-.01,0,.43-.13,.82-.47,1.06-.76,.17-.2,.81-.81,.47-1.06Z"/></g></g><g><g><path class="d" d="M176.76,31.05c-2.82-4.59-5.56-9.23-8.3-13.61-1.25-1.99-2.27-3.94-3.87-6.5-1.02-1.64-2.45-4.28-3.19-4.93-.03-.02-.07-.04-.09,0-.8,.85-1.53,2.45-2.02,3.37-.6,1.15-3.16,6.76-4.37,9.58-1.07,2.5-2.18,5.14-2.72,6.59-.36,.97-.71,1.94-1.08,2.9-.16,.41-.74,1.75-.64,2.03,.14,.38,2.41,.55,3.16,.62,4.42,.4,7.22,.63,11.67,.56,2.27-.04,6.25-.12,8.52-.2,.69-.02,2.33,.02,2.92-.41Z"/><path class="f" d="M175.63,18.65c-2.31-3.89-5.27-7.76-7.44-11.29-.59-.96-1.11-1.81-1.71-2.74-.62-.97-.66-1.33-1.75-.84-.87,.39-2.18,1.32-2.96,1.85-.17,.11-.36,.27-.45,.37,.02-.01,.06,0,.08,.02,.74,.65,2.17,3.29,3.19,4.93,1.6,2.56,2.62,4.5,3.87,6.5,2.74,4.38,5.47,9.02,8.3,13.61,1.2-.7,3.93-4.07,3.67-4.74-1.62-2.47-3.37-5.24-4.8-7.66Z"/></g><g><path class="c" d="M160.35,22c-.24-.14-.43,.13-.57,.27-.2,.2-.44,.37-.62,.62-.29,.4-.42,1.16,.15,1.41,.56,.24,.91-.5,1.01-.91,.07-.26,.3-1.22,.03-1.39Z"/><path class="c" d="M163.97,18.99c.36-.26,.26-.77,.07-1.1-.16-.27-.37-.35-.63-.47-.02-.01-.12-.06-.16-.07h-.01c-.23-.11-.57-.32-.68-.05-.08,.19,0,.46,.03,.66,.13,.59,.69,1.57,1.39,1.02Z"/><path class="c" d="M163.4,25.39c-.27-.08-.75,.51-.83,.72-.2,.5-.18,1.32,.48,1.42,.65,.1,.8-.52,.73-1.02-.03-.26-.12-1.01-.38-1.11Z"/><path class="c" d="M166.19,21.67c-.12-.29-.69-.92-1.01-1-.44-.11-.26,.62-.24,.86,.02,.46,.11,1.14,.6,1.32,.7,.26,.85-.73,.66-1.18Z"/></g></g><g><g><path class="d" d="M194.88,47.12c-1.72-8.16-3.28-16.34-4.99-24.14-.78-3.55-1.26-6.92-2.25-11.47-.64-2.92-1.34-7.51-2.08-8.84-.03-.05-.08-.09-.13-.06-1.6,.83-3.51,2.77-4.7,3.86-1.47,1.36-8.12,8.2-11.35,11.67-2.87,3.09-5.85,6.35-7.39,8.18-1.03,1.22-2.05,2.45-3.09,3.67-.44,.51-1.99,2.17-1.99,2.62,0,.63,3.22,2.06,4.28,2.55,6.23,2.89,10.19,4.68,16.7,6.89,3.33,1.13,9.16,3.09,12.51,4.15,1.01,.32,3.39,1.25,4.47,.92Z"/><path class="b" d="M199.69,28.48c-1.34-6.87-3.63-14.05-4.94-20.32-.36-1.71-.68-3.22-1.06-4.88-.4-1.73-.27-2.29-2.11-2.14-1.47,.12-3.86,.79-5.27,1.15-.3,.08-.67,.21-.85,.31,.04,0,.08,.03,.1,.07,.74,1.33,1.44,5.91,2.08,8.84,.99,4.56,1.48,7.92,2.25,11.47,1.71,7.8,3.27,15.98,4.99,24.14,2.11-.4,7.84-3.88,7.82-4.98-1.07-4.44-2.17-9.39-3-13.66Z"/></g><g><path class="c" d="M175.69,25.4c-.28-.33-.7-.03-.97,.1-.4,.19-.84,.31-1.22,.57-.64,.43-1.22,1.47-.51,2.13,.69,.64,1.58-.26,1.95-.8,.23-.34,1.08-1.62,.76-2Z"/><path class="c" d="M182.53,22.91c.65-.2,.78-.99,.67-1.56-.09-.48-.36-.7-.68-1.01-.03-.03-.15-.14-.2-.19l-.02-.02c-.28-.27-.66-.76-.97-.41-.21,.23-.25,.67-.29,.98-.12,.93,.18,2.65,1.49,2.21Z"/><path class="c" d="M178.37,31.92c-.36-.26-1.35,.35-1.59,.61-.56,.62-.95,1.82-.04,2.32,.9,.49,1.43-.35,1.6-1.11,.08-.39,.35-1.53,.03-1.82Z"/><path class="c" d="M184.37,27.97c-.03-.48-.53-1.71-.95-1.99-.59-.39-.7,.78-.8,1.13-.2,.68-.43,1.72,.18,2.23,.89,.75,1.61-.61,1.57-1.37Z"/></g></g><g><g><path class="f" d="M216.27,59.03c1.32-8.23,2.8-16.43,4-24.32,.55-3.6,1.3-6.91,2.01-11.52,.45-2.96,1.44-7.49,1.23-8.99,0-.05-.04-.11-.1-.1-1.8,.2-4.27,1.32-5.77,1.92-1.86,.74-10.52,4.74-14.78,6.82-3.79,1.85-7.74,3.83-9.83,4.99-1.4,.77-2.79,1.56-4.2,2.32-.59,.32-2.64,1.31-2.8,1.73-.23,.59,2.27,3.07,3.08,3.91,4.78,4.93,7.83,8.02,13.12,12.42,2.7,2.25,7.44,6.17,10.19,8.36,.83,.67,2.71,2.38,3.84,2.46Z"/><path class="b" d="M227.44,43.35c1.21-6.89,1.65-14.42,2.67-20.74,.28-1.72,.52-3.25,.76-4.94,.25-1.76,.57-2.23-1.2-2.75-1.42-.42-3.88-.65-5.33-.82-.31-.04-.7-.04-.91-.02,.04,0,.07,.06,.07,.1,.21,1.5-.77,6.04-1.23,8.99-.71,4.61-1.46,7.92-2.01,11.52-1.2,7.89-2.68,16.09-4,24.32,2.11,.39,8.71-.81,9.08-1.85,.59-4.53,1.34-9.54,2.1-13.83Z"/></g><g><path class="c" d="M206.14,31.87c-.14-.41-.64-.28-.94-.25-.44,.03-.9,0-1.35,.1-.75,.17-1.67,.94-1.24,1.8,.42,.84,1.57,.33,2.1-.05,.34-.24,1.59-1.13,1.43-1.6Z"/><path class="c" d="M213.43,32c.68,.05,1.08-.64,1.18-1.22,.09-.48-.09-.78-.27-1.18-.02-.03-.09-.19-.12-.25v-.02c-.18-.36-.35-.94-.76-.73-.28,.14-.48,.53-.63,.81-.45,.82-.78,2.54,.6,2.59Z"/><path class="c" d="M206.31,38.92c-.24-.37-1.39-.16-1.7,0-.75,.38-1.54,1.36-.87,2.15,.66,.78,1.46,.19,1.89-.46,.22-.33,.87-1.3,.68-1.69Z"/><path class="c" d="M213.33,37.39c.15-.46,.12-1.78-.17-2.2-.41-.58-.93,.48-1.15,.76-.43,.56-1.02,1.45-.63,2.15,.56,1.02,1.73,0,1.95-.72Z"/></g></g><g><g><path class="b" d="M222.54,86.29c-.08-.53-.84-1.12-1.19-1.44-2.22-1.98-4.55-3.8-6.93-5.58-1.04-.78-2.08-1.56-3.12-2.34-1.25-.93-2.46-1.9-3.69-2.85-1.04-.8-2.14-1.51-3.17-2.33-1.18-.94-2.39-1.85-3.63-2.71-1.21-.84-2.33-1.8-3.52-2.68-2.38-1.75-4.66-3.62-7.01-5.4-.51-.39-1.03-.77-1.53-1.18-.22-.18-.39-.32-.59-.49-.14-.12-1.39,.45-1.59,.52-1.35,.48-2.69,1.02-4,1.6-1.25,.56-2.49,1.17-3.69,1.82-1.62,.88-3.19,1.84-4.69,2.9-1.62,1.14-3.17,2.4-4.61,3.79-1.14,1.11-2.21,2.29-3.17,3.55-.96,1.26-1.82,2.6-2.54,4.02-.25,.5-.82,1.95-1.27,3.25-.24,.68-.44,1.32-.55,1.76,1.79,.18,6.41,.64,12.03,1,8.98,.57,18.08,.86,27.06,1.37,3.43,.19,6.65,.31,10.08,.55,3.23,.22,6.61,.33,10,.65,.44,.04,.87,.15,1.32,.35,0-.05,0-.1,0-.15Z"/><path class="g" d="M222.74,87.24c-.03-.23-.09-.62-.2-.81-.45-.19-.87-.31-1.32-.35-3.39-.32-6.76-.43-10-.65-3.43-.24-6.65-.35-10.08-.55-8.98-.51-18.08-.79-27.06-1.37-5.62-.36-10.24-.82-12.03-1h0s-.05,.2-.08,.46c-.04,.33-.07,.67-.11,1-.11,.94-.17,1.93-.19,2.88-.05,1.79-.12,3.84,.39,5.57h0c2.88,.34,5.81,.3,8.71,.34,3.01,.05,6.01,.07,9.02,.06,2.95,0,5.89-.05,8.84-.11,2.85-.06,5.7-.35,8.55-.35,2.9-.16,5.77-.41,8.67-.56,3-.16,6-.33,8.99-.53,1.35-.09,2.7-.2,4.05-.31,1.08-.09,3.03-.36,3.37-.62,.43-.33,.57-2.26,.48-3.11Z"/></g><g><path class="c" d="M202.26,73.3c-.15-.46-.41-1-.9-1.17-.79-.27-1.09,.6-.96,1.23,.13,.61,.78,1.37,1.39,1.57,.45,.15,.45-.14,.47-.5,.02-.39,.12-.75,0-1.13Z"/><path class="c" d="M201.39,79.16c-.63-.62-2.33-1.82-2.97-.61-.48,.9,.43,1.54,1.26,1.47,.25-.02,2.15-.43,1.71-.86Z"/><path class="c" d="M195.71,74.11c-.06-.25-.11-.58-.15-.78-.01-.54-.16-1.13-.54-1.53-.42-.44-1.28-.5-1.61,.11-.22,.41-.08,1.05,.38,1.48,.54,.5,1.45,.76,1.52,.81,.13,.08,.48,.2,.42-.09Z"/><path class="c" d="M188.47,78.58c-.45-.21-.86-.5-1.34-.66-.63-.21-1.8,0-1.82,.85-.02,.9,1.21,1.19,1.89,.99,.2-.06,1.91-.91,1.27-1.18Z"/><path class="c" d="M187.96,88.39c-.14-.69-.39-1.6-.94-2.06-.72-.6-1.73-.03-1.64,.87,.06,.57,.49,1.08,.95,1.34,.25,.14,1.95,.59,1.64-.14Z"/><path class="c" d="M194.86,89.41c-.18-.17-.68-.21-.92-.18-.45,.06-.96,.27-1.31,.54-.34,.26-.69,.71-.44,1.17,.2,.38,.8,.39,1.15,.28,0,0,0,0-.01,0,.43-.13,.82-.47,1.06-.76,.17-.2,.81-.81,.47-1.06Z"/></g></g><g><g><path class="e" d="M236.68,69.33c-.08-.53-.84-1.12-1.19-1.44-2.22-1.98-4.55-3.8-6.93-5.58-1.04-.78-2.08-1.56-3.12-2.34-1.25-.93-2.46-1.9-3.69-2.85-1.04-.8-2.14-1.51-3.17-2.33-1.18-.94-2.39-1.85-3.63-2.71-1.21-.84-2.33-1.8-3.52-2.68-2.38-1.75-4.66-3.62-7.01-5.4-.51-.39-1.03-.77-1.53-1.18-.22-.18-.39-.32-.59-.49-.14-.12-1.39,.45-1.59,.52-1.35,.48-2.69,1.02-4,1.6-1.25,.56-2.49,1.17-3.69,1.82-1.62,.88-3.19,1.84-4.69,2.9-1.62,1.14-3.17,2.4-4.61,3.79-1.14,1.11-2.21,2.29-3.17,3.55-.96,1.26-1.82,2.6-2.54,4.02-.25,.5-.82,1.95-1.27,3.25-.24,.68-.44,1.32-.55,1.76,1.79,.18,6.41,.64,12.03,1,8.98,.57,18.08,.86,27.06,1.37,3.43,.19,6.65,.31,10.08,.55,3.23,.22,6.61,.33,10,.65,.44,.04,.87,.15,1.32,.35,0-.05,0-.1,0-.15Z"/><path class="g" d="M236.88,70.28c-.03-.23-.09-.62-.2-.81-.45-.19-.87-.31-1.32-.35-3.39-.32-6.76-.43-10-.65-3.43-.24-6.65-.35-10.08-.55-8.98-.51-18.08-.79-27.06-1.37-5.62-.36-10.24-.82-12.03-1h0s-.05,.2-.08,.46c-.04,.33-.07,.67-.11,1-.11,.94-.17,1.93-.19,2.88-.05,1.79-.12,3.84,.39,5.57h0c2.88,.34,5.81,.3,8.71,.34,3.01,.05,6.01,.07,9.02,.06,2.95,0,5.89-.05,8.84-.11,2.85-.06,5.7-.35,8.55-.35,2.9-.16,5.77-.41,8.67-.56,3-.16,6-.33,8.99-.53,1.35-.09,2.7-.2,4.05-.31,1.08-.09,3.03-.36,3.37-.62,.43-.33,.57-2.26,.48-3.11Z"/></g><g><path class="c" d="M216.39,56.33c-.15-.46-.41-1-.9-1.17-.79-.27-1.09,.6-.96,1.23,.13,.61,.78,1.37,1.39,1.57,.45,.15,.45-.14,.47-.5,.02-.39,.12-.75,0-1.13Z"/><path class="c" d="M215.53,62.19c-.63-.62-2.33-1.82-2.97-.61-.48,.9,.43,1.54,1.26,1.47,.25-.02,2.15-.43,1.71-.86Z"/><path class="c" d="M209.85,57.14c-.06-.25-.11-.58-.15-.78-.01-.54-.16-1.13-.54-1.53-.42-.44-1.28-.5-1.61,.11-.22,.41-.08,1.05,.38,1.48,.54,.5,1.45,.76,1.52,.81,.13,.08,.48,.2,.42-.09Z"/><path class="c" d="M202.61,61.62c-.45-.21-.86-.5-1.34-.66-.63-.21-1.8,0-1.82,.85-.02,.9,1.21,1.19,1.89,.99,.2-.06,1.91-.91,1.27-1.18Z"/><path class="c" d="M202.1,71.43c-.14-.69-.39-1.6-.94-2.06-.72-.6-1.73-.03-1.64,.87,.06,.57,.49,1.08,.95,1.34,.25,.14,1.95,.59,1.64-.14Z"/><path class="c" d="M209,72.44c-.18-.17-.68-.21-.92-.18-.45,.06-.96,.27-1.31,.54-.34,.26-.69,.71-.44,1.17,.2,.38,.8,.39,1.15,.28,0,0,0,0-.01,0,.43-.13,.82-.47,1.06-.76,.17-.2,.81-.81,.47-1.06Z"/></g></g><g><g><path class="g" d="M219.18,19.67c.52,.09,1.09,.88,1.39,1.24,1.9,2.29,3.64,4.68,5.33,7.12,.74,1.07,1.49,2.13,2.23,3.2,.88,1.28,1.81,2.52,2.72,3.78,.77,1.06,1.43,2.19,2.21,3.25,.9,1.21,1.77,2.45,2.59,3.72,.8,1.24,1.72,2.39,2.55,3.61,1.66,2.43,3.45,4.78,5.15,7.19,.37,.53,.73,1.06,1.13,1.57,.18,.23,.31,.4,.47,.61,.11,.15-.49,1.37-.57,1.57-.53,1.34-1.11,2.65-1.74,3.94-.6,1.23-1.25,2.45-1.95,3.63-.93,1.59-1.95,3.12-3.06,4.59-1.19,1.58-2.51,3.09-3.95,4.48-1.15,1.1-2.37,2.13-3.66,3.05-1.3,.92-2.66,1.73-4.1,2.4-.51,.24-1.98,.75-3.3,1.15-.69,.21-1.34,.39-1.78,.49-.12-1.8-.42-6.43-.58-12.06-.26-8.99-.23-18.09-.42-27.09-.07-3.43-.08-6.66-.19-10.09-.11-3.24-.1-6.62-.3-10.01-.03-.44-.12-.87-.3-1.33,.05,0,.1,0,.15,0Z"/><path class="b" d="M218.23,19.44c.23,.03,.61,.11,.8,.23,.18,.45,.27,.88,.3,1.33,.2,3.4,.19,6.78,.3,10.01,.12,3.43,.12,6.66,.19,10.09,.19,8.99,.16,18.1,.42,27.09,.16,5.63,.46,10.26,.58,12.06h0s-.2,.04-.46,.07c-.34,.03-.67,.05-1.01,.07-.95,.07-1.93,.1-2.89,.09-1.79-.02-3.84-.02-5.56-.59h0c-.24-2.89-.09-5.82-.04-8.72,.06-3.01,.14-6.01,.26-9.02,.11-2.94,.25-5.89,.42-8.83,.16-2.84,.55-5.69,.65-8.53,.26-2.89,.61-5.75,.87-8.65,.26-2.99,.53-5.98,.85-8.97,.14-1.35,.29-2.69,.45-4.03,.13-1.07,.47-3.01,.74-3.35,.34-.41,2.27-.49,3.13-.37Z"/></g><g><path class="c" d="M231.46,40.4c.45,.16,.99,.44,1.14,.94,.24,.8-.64,1.07-1.26,.91-.61-.15-1.34-.82-1.52-1.44-.14-.46,.16-.45,.52-.46,.39,0,.75-.09,1.13,.04Z"/><path class="c" d="M225.57,41.05c.6,.65,1.73,2.39,.51,2.99-.91,.44-1.52-.49-1.43-1.31,.03-.25,.5-2.13,.92-1.67Z"/><path class="c" d="M230.41,46.91c.25,.07,.58,.13,.78,.18,.54,.03,1.13,.2,1.51,.6,.43,.44,.46,1.3-.17,1.61-.42,.21-1.06,.05-1.47-.43-.48-.56-.71-1.47-.76-1.54-.08-.13-.18-.49,.1-.41Z"/><path class="c" d="M225.69,53.99c.19,.46,.47,.88,.62,1.36,.19,.63-.06,1.8-.91,1.79-.9-.01-1.15-1.25-.93-1.92,.06-.2,.98-1.88,1.22-1.23Z"/><path class="c" d="M215.87,54.16c.68,.17,1.58,.45,2.03,1.02,.58,.74-.03,1.73-.93,1.61-.57-.08-1.06-.53-1.3-.99-.14-.26-.52-1.97,.2-1.63Z"/><path class="c" d="M215.09,47.22c.17,.19,.19,.68,.15,.92-.07,.45-.3,.95-.59,1.29-.27,.33-.74,.66-1.19,.4-.37-.21-.36-.81-.24-1.15h0c.15-.42,.5-.79,.79-1.03,.2-.16,.84-.78,1.07-.44Z"/></g></g><g><g><path class="g" d="M153.62,55.18c-.52,.09-1.09,.88-1.39,1.24-1.9,2.29-3.64,4.68-5.33,7.12-.74,1.07-1.49,2.13-2.23,3.2-.88,1.28-1.81,2.52-2.72,3.78-.77,1.06-1.43,2.19-2.21,3.25-.9,1.21-1.77,2.45-2.59,3.72-.8,1.24-1.72,2.39-2.55,3.61-1.66,2.43-3.45,4.78-5.15,7.19-.37,.53-.73,1.06-1.13,1.57-.18,.23-.31,.4-.47,.61-.11,.15,.49,1.37,.57,1.57,.53,1.34,1.11,2.65,1.74,3.94,.6,1.23,1.25,2.45,1.95,3.63,.93,1.59,1.95,3.12,3.06,4.59,1.19,1.58,2.51,3.09,3.95,4.48,1.15,1.1,2.37,2.13,3.66,3.05,1.3,.92,2.66,1.73,4.1,2.4,.51,.24,1.98,.75,3.3,1.15,.69,.21,1.34,.39,1.78,.49,.12-1.8,.42-6.43,.58-12.06,.26-8.99,.23-18.09,.42-27.09,.07-3.43,.08-6.66,.19-10.09,.11-3.24,.1-6.62,.3-10.01,.03-.44,.12-.87,.3-1.33-.05,0-.1,0-.15,0Z"/><path class="b" d="M154.56,54.95c-.23,.03-.61,.11-.8,.23-.18,.45-.27,.88-.3,1.33-.2,3.4-.19,6.78-.3,10.01-.12,3.43-.12,6.66-.19,10.09-.19,8.99-.16,18.1-.42,27.09-.16,5.63-.46,10.26-.58,12.06h0s.2,.04,.46,.07c.34,.03,.67,.05,1.01,.07,.95,.07,1.93,.1,2.89,.09,1.79-.02,3.84-.02,5.56-.59h0c.24-2.89,.09-5.82,.04-8.72-.06-3.01-.14-6.01-.26-9.02-.11-2.94-.25-5.89-.42-8.83-.16-2.84-.55-5.69-.65-8.53-.26-2.89-.61-5.75-.87-8.65-.26-2.99-.53-5.98-.85-8.97-.14-1.35-.29-2.69-.45-4.03-.13-1.07-.47-3.01-.74-3.35-.34-.41-2.27-.49-3.13-.37Z"/></g><g><path class="c" d="M141.34,75.91c-.45,.16-.99,.44-1.14,.94-.24,.8,.64,1.07,1.26,.91,.61-.15,1.34-.82,1.52-1.44,.14-.46-.16-.45-.52-.46-.39,0-.75-.09-1.13,.04Z"/><path class="c" d="M147.22,76.56c-.6,.65-1.73,2.39-.51,2.99,.91,.44,1.52-.49,1.43-1.31-.03-.25-.5-2.13-.92-1.67Z"/><path class="c" d="M142.38,82.42c-.25,.07-.58,.13-.78,.18-.54,.03-1.13,.2-1.51,.6-.43,.44-.46,1.3,.17,1.61,.42,.21,1.06,.05,1.47-.43,.48-.56,.71-1.47,.76-1.54,.08-.13,.18-.49-.1-.41Z"/><path class="c" d="M147.1,89.5c-.19,.46-.47,.88-.62,1.36-.19,.63,.06,1.8,.91,1.79,.9-.01,1.15-1.25,.93-1.92-.06-.2-.98-1.88-1.22-1.23Z"/><path class="c" d="M156.93,89.67c-.68,.17-1.58,.45-2.03,1.02-.58,.74,.03,1.73,.93,1.61,.57-.08,1.06-.53,1.3-.99,.14-.26,.52-1.97-.2-1.63Z"/><path class="c" d="M157.7,82.73c-.17,.19-.19,.68-.15,.92,.07,.45,.3,.95,.59,1.29,.27,.33,.74,.66,1.19,.4,.37-.21,.36-.81,.24-1.15h0c-.15-.42-.5-.79-.79-1.03-.2-.16-.84-.78-1.07-.44Z"/></g></g><g><g><path class="b" d="M158.34,43.65c.27-.46,1.19-.72,1.64-.89,2.8-1.01,5.64-1.83,8.51-2.59,1.26-.33,2.51-.68,3.77-1,1.5-.39,2.99-.85,4.48-1.27,1.26-.36,2.55-.6,3.81-.98,1.45-.43,2.91-.83,4.38-1.17,1.44-.33,2.83-.8,4.26-1.17,2.86-.74,5.67-1.62,8.52-2.39,.62-.17,1.24-.33,1.86-.53,.28-.09,.48-.15,.73-.23,.18-.05,1.12,.93,1.28,1.07,1.08,.95,2.12,1.95,3.12,2.98,.96,.99,1.87,2.01,2.75,3.07,1.17,1.42,2.27,2.9,3.27,4.44,1.08,1.66,2.05,3.41,2.86,5.24,.65,1.45,1.2,2.95,1.62,4.48,.42,1.53,.72,3.09,.86,4.68,.05,.56,.03,2.12-.04,3.49-.04,.72-.09,1.39-.15,1.84-1.73-.5-6.19-1.8-11.54-3.56-8.54-2.81-17.09-5.94-25.62-8.82-3.25-1.1-6.29-2.19-9.56-3.25-3.08-1-6.26-2.16-9.52-3.13-.43-.13-.86-.18-1.35-.17,.01-.04,.03-.09,.05-.14Z"/><path class="g" d="M157.8,44.46c.11-.21,.31-.54,.49-.67,.49-.01,.92,.04,1.35,.17,3.26,.97,6.44,2.13,9.52,3.13,3.27,1.06,6.3,2.15,9.56,3.25,8.52,2.88,17.07,6,25.62,8.82,5.35,1.76,9.8,3.06,11.54,3.56h0s-.03,.2-.09,.46c-.09,.33-.18,.65-.27,.97-.25,.92-.56,1.85-.9,2.74-.62,1.67-1.32,3.6-2.44,5.02h0c-2.8-.76-5.51-1.89-8.21-2.93-2.81-1.08-5.6-2.18-8.39-3.31-2.73-1.11-5.45-2.24-8.16-3.4-2.62-1.12-5.16-2.45-7.8-3.51-2.63-1.23-5.2-2.53-7.84-3.76-2.72-1.26-5.44-2.54-8.14-3.85-1.22-.59-2.43-1.19-3.64-1.8-.97-.49-2.67-1.46-2.89-1.83-.27-.46,.31-2.31,.72-3.07Z"/></g><g><path class="c" d="M182,39.15c.31-.37,.75-.78,1.27-.75,.83,.05,.79,.96,.43,1.5-.35,.52-1.23,.98-1.87,.94-.48-.03-.37-.3-.25-.64,.13-.37,.17-.74,.43-1.05Z"/><path class="c" d="M180.62,44.91c.82-.34,2.84-.82,2.98,.54,.11,1.01-.98,1.27-1.72,.89-.23-.11-1.84-1.2-1.26-1.43Z"/><path class="c" d="M187.78,42.35c.15-.21,.32-.5,.43-.67,.21-.49,.58-.99,1.07-1.22,.55-.25,1.38,.01,1.46,.7,.05,.47-.31,1.01-.9,1.23-.69,.26-1.63,.17-1.71,.19-.15,.03-.52,0-.35-.23Z"/><path class="c" d="M192.82,49.2c.5-.02,.99-.14,1.49-.11,.66,.04,1.67,.67,1.37,1.46-.32,.85-1.56,.65-2.12,.22-.16-.13-1.43-1.56-.74-1.56Z"/><path class="c" d="M189.64,58.49c.39-.59,.96-1.34,1.65-1.56,.89-.29,1.62,.61,1.2,1.42-.27,.51-.86,.82-1.38,.89-.29,.04-2.03-.18-1.47-.74Z"/><path class="c" d="M182.86,56.86c.24-.09,.71,.06,.92,.17,.39,.22,.79,.61,1.02,.99,.22,.37,.37,.92-.03,1.25-.33,.27-.89,.07-1.17-.17h.01c-.35-.28-.58-.74-.71-1.09-.09-.25-.45-1.05-.04-1.16Z"/></g></g><g><g><path class="e" d="M171.15,42.84c.13-.3,.69-.53,.95-.67,1.65-.83,3.35-1.53,5.07-2.21,.75-.3,1.5-.6,2.25-.89,.9-.35,1.78-.74,2.68-1.11,.75-.31,1.53-.55,2.28-.88,.86-.37,1.73-.72,2.62-1.03,.87-.31,1.69-.7,2.55-1.03,1.71-.66,3.39-1.41,5.09-2.09,.37-.15,.74-.29,1.11-.46,.16-.07,.29-.13,.44-.2,.1-.05,.76,.49,.87,.57,.73,.51,1.45,1.05,2.14,1.62,.66,.54,1.3,1.11,1.92,1.7,.83,.79,1.61,1.63,2.34,2.51,.78,.95,1.51,1.96,2.14,3.03,.5,.85,.95,1.74,1.32,2.65,.37,.91,.66,1.86,.86,2.83,.07,.34,.17,1.31,.23,2.16,.03,.45,.05,.87,.04,1.15-1.11-.18-3.95-.67-7.38-1.37-5.48-1.12-10.98-2.44-16.45-3.61-2.09-.45-4.04-.9-6.14-1.32-1.98-.4-4.02-.88-6.1-1.25-.27-.05-.55-.05-.85,0,0-.03,.01-.06,.02-.09Z"/><path class="g" d="M170.87,43.38c.05-.14,.16-.36,.25-.45,.3-.04,.57-.04,.85,0,2.08,.36,4.13,.85,6.1,1.25,2.09,.42,4.05,.88,6.14,1.32,5.47,1.17,10.97,2.48,16.45,3.61,3.43,.7,6.27,1.19,7.38,1.37h0s0,.13-.03,.29c-.03,.21-.07,.41-.1,.62-.09,.58-.22,1.18-.36,1.76-.26,1.08-.56,2.32-1.15,3.28h0c-1.78-.27-3.54-.77-5.28-1.22-1.81-.46-3.62-.95-5.42-1.44-1.77-.49-3.53-.99-5.28-1.51-1.7-.5-3.36-1.14-5.07-1.61-1.71-.57-3.39-1.19-5.11-1.76-1.77-.58-3.54-1.18-5.31-1.79-.79-.28-1.59-.56-2.38-.85-.63-.23-1.76-.71-1.92-.92-.2-.27,.03-1.45,.22-1.95Z"/></g><g><path class="c" d="M185.44,38.37c.16-.25,.41-.54,.73-.55,.52-.03,.56,.54,.37,.9-.18,.35-.69,.69-1.09,.72-.3,.02-.25-.16-.2-.38,.05-.24,.05-.47,.19-.68Z"/><path class="c" d="M185,42.02c.48-.27,1.69-.71,1.88,.12,.14,.62-.51,.85-1,.68-.15-.05-1.22-.61-.88-.79Z"/><path class="c" d="M189.24,39.93c.08-.14,.16-.33,.22-.44,.1-.32,.28-.65,.58-.83,.32-.2,.85-.09,.95,.33,.07,.28-.12,.65-.47,.83-.41,.21-.99,.22-1.04,.24-.09,.03-.32,.04-.24-.12Z"/><path class="c" d="M192.84,43.79c.3-.05,.6-.16,.91-.18,.41-.02,1.08,.29,.95,.8-.14,.55-.92,.52-1.3,.29-.11-.07-1-.86-.57-.91Z"/><path class="c" d="M191.55,49.76c.2-.39,.5-.89,.9-1.08,.53-.24,1.04,.26,.84,.79-.13,.34-.47,.57-.79,.65-.18,.05-1.26,.04-.96-.35Z"/><path class="c" d="M187.24,49.24c.14-.07,.44-.02,.58,.04,.26,.11,.53,.32,.7,.54,.16,.21,.29,.54,.07,.77-.18,.19-.54,.1-.73-.02h0c-.24-.15-.41-.42-.51-.63-.07-.15-.35-.62-.11-.71Z"/></g></g><g><g><path class="d" d="M208.54,46.18c-6.64-5.03-13.36-9.94-19.67-14.8-2.88-2.22-5.71-4.09-9.4-6.93-2.37-1.82-6.21-4.42-7.1-5.64-.03-.04-.04-.11,0-.14,1.42-1.05,3.97-1.88,5.46-2.45,1.85-.7,10.8-3.58,15.29-4.91,3.99-1.18,8.18-2.39,10.48-2.94,1.54-.37,3.07-.73,4.6-1.12,.64-.16,2.79-.81,3.2-.61,.57,.27,.5,3.71,.5,4.85,0,6.71-.06,10.96-.8,17.62-.38,3.41-1.06,9.36-1.51,12.76-.13,1.03-.29,3.51-1.05,4.32Z"/><path class="b" d="M189.71,42.35c-5.63-4.14-11.15-9.25-16.25-13.11-1.39-1.05-2.62-1.98-3.95-3.04-1.39-1.09-1.95-1.22-1.04-2.77,.72-1.24,2.33-3.04,3.25-4.12,.2-.23,.47-.49,.64-.61-.02,.03,0,.08,.02,.12,.89,1.22,4.73,3.82,7.1,5.64,3.69,2.84,6.52,4.72,9.4,6.93,6.32,4.87,13.04,9.77,19.67,14.8-1.25,1.68-6.79,5.2-7.78,4.7-3.55-2.86-7.55-5.96-11.06-8.53Z"/></g><g><path class="c" d="M197.01,19.98c-.18-.38,.27-.62,.5-.81,.34-.27,.63-.6,1.03-.83,.65-.37,1.84-.44,2.13,.47,.28,.88-.9,1.28-1.54,1.36-.41,.05-1.92,.24-2.13-.2Z"/><path class="c" d="M191.89,24.9c-.45,.49-1.22,.26-1.69-.09-.39-.28-.48-.62-.62-1.03-.01-.03-.07-.19-.09-.25v-.02c-.13-.37-.41-.9,.03-1.03,.29-.08,.71,.07,1.01,.16,.89,.29,2.31,1.3,1.37,2.26Z"/><path class="c" d="M201.77,25.14c-.08-.42,.88-1.03,1.22-1.13,.8-.22,2.04-.04,2.11,.97,.06,1-.91,1.11-1.67,.92-.39-.09-1.52-.35-1.65-.76Z"/><path class="c" d="M195.68,28.7c-.42-.23-1.32-1.2-1.4-1.69-.11-.68,.99-.28,1.35-.22,.7,.12,1.73,.36,1.94,1.13,.3,1.1-1.23,1.15-1.89,.78Z"/></g></g><g><g><path class="b" d="M241.11,58.75c.3,.44,.12,1.39,.07,1.87-.33,2.96-.85,5.86-1.43,8.78-.25,1.27-.5,2.55-.76,3.82-.31,1.52-.56,3.06-.84,4.59-.23,1.29-.59,2.55-.8,3.85-.25,1.49-.54,2.97-.89,4.44-.34,1.44-.53,2.9-.83,4.34-.6,2.89-1.05,5.8-1.61,8.7-.12,.63-.25,1.26-.35,1.9-.04,.29-.07,.5-.12,.76-.03,.18-1.33,.6-1.53,.68-1.33,.54-2.68,1.04-4.05,1.48-1.31,.42-2.63,.8-3.97,1.11-1.79,.43-3.6,.76-5.43,.98-1.96,.23-3.97,.33-5.97,.26-1.59-.06-3.17-.23-4.73-.52-1.56-.3-3.09-.72-4.57-1.29-.52-.2-1.91-.91-3.12-1.57-.63-.35-1.21-.69-1.58-.94,1.21-1.34,4.34-4.76,8.28-8.78,6.29-6.43,12.87-12.72,19.21-19.1,2.42-2.44,4.74-4.68,7.13-7.14,2.26-2.33,4.7-4.66,7.01-7.16,.3-.33,.54-.7,.75-1.14,.03,.03,.07,.07,.1,.11Z"/><path class="f" d="M240.62,57.9c.14,.19,.35,.52,.39,.74-.2,.44-.45,.81-.75,1.14-2.31,2.5-4.75,4.84-7.01,7.16-2.39,2.47-4.71,4.71-7.13,7.14-6.34,6.38-12.92,12.67-19.21,19.1-3.94,4.02-7.07,7.45-8.28,8.78h0s-.17-.11-.37-.29c-.25-.22-.5-.45-.75-.68-.71-.63-1.41-1.32-2.07-2.02-1.23-1.3-2.65-2.78-3.43-4.41h0c1.92-2.18,4.13-4.11,6.25-6.08,2.21-2.04,4.43-4.07,6.67-6.07,2.2-1.96,4.42-3.9,6.65-5.82,2.16-1.86,4.48-3.55,6.59-5.45,2.26-1.82,4.57-3.55,6.83-5.38,2.33-1.89,4.68-3.77,7.05-5.61,1.07-.83,2.14-1.66,3.22-2.47,.86-.65,2.49-1.75,2.92-1.79,.54-.04,1.93,1.3,2.44,2Z"/></g><g><path class="c" d="M234.7,81.97c.2,.44,.37,1.02,.11,1.47-.41,.73-1.21,.28-1.54-.28-.31-.54-.34-1.54-.02-2.1,.23-.42,.43-.2,.69,.06,.27,.27,.59,.48,.75,.84Z"/><path class="c" d="M230.15,78.19c-.06,.88-.52,2.91-1.8,2.44-.95-.35-.71-1.44-.04-1.94,.2-.15,1.88-1.12,1.84-.5Z"/><path class="c" d="M229.29,85.74c.12,.23,.31,.51,.41,.68,.35,.41,.63,.95,.62,1.5-.02,.61-.62,1.23-1.27,1-.44-.16-.77-.73-.71-1.35,.07-.74,.57-1.53,.59-1.61,.04-.15,.22-.47,.37-.21Z"/><path class="c" d="M220.92,87.25c-.2,.46-.31,.95-.55,1.39-.33,.57-1.34,1.2-1.92,.58-.62-.66,.1-1.69,.74-2,.19-.09,2.03-.6,1.73,.03Z"/><path class="c" d="M213.98,80.29c.35,.61,.78,1.45,.68,2.17-.13,.93-1.27,1.18-1.8,.45-.34-.47-.35-1.13-.19-1.63,.09-.28,1.05-1.74,1.31-.99Z"/><path class="c" d="M218.44,74.92c-.02,.25-.36,.61-.56,.75-.37,.26-.89,.44-1.34,.47-.43,.03-.99-.07-1.11-.58-.1-.41,.33-.83,.66-.97h-.01c.41-.18,.93-.19,1.3-.14,.26,.03,1.15,.06,1.06,.47Z"/></g></g></svg>