<svg xmlns="http://www.w3.org/2000/svg" xmlns:xlink="http://www.w3.org/1999/xlink" id="Layer_1" data-name="Layer 1" viewBox="0 0 1920 900"><defs><style>.cls-1{fill:none;}.cls-2{clip-path:url(#clip-path);}.cls-12,.cls-3{fill:#1e1a2e;}.cls-4{fill:#282759;}.cls-5{fill:#3b2769;}.cls-6{fill:#106b6d;}.cls-7{opacity:0.69;}.cls-8{opacity:0.7;}.cls-9{fill:#0e6987;}.cls-10{fill:#92278f;}.cls-11{fill:#4f1f2e;}.cls-12{opacity:0.45;}.cls-13{clip-path:url(#clip-path-2);}.cls-14{fill:#fff;}.cls-15{fill:#e8837c;}.cls-16{fill:#e3734e;}.cls-17{fill:#ca5832;}.cls-18{fill:#d05033;}.cls-19{fill:#df784c;}.cls-20{fill:#d05c33;}.cls-21{fill:#ce5a32;}.cls-22{fill:#ce5b31;}.cls-23{fill:#df7c48;}.cls-24{fill:#c85434;}.cls-25{fill:#cf593b;}.cls-26{fill:#cc5a2c;}.cls-27{fill:#d15d3c;}.cls-28{fill:#c05029;}.cls-29{fill:#b43d2b;}.cls-30{fill:#c4482e;}.cls-31{fill:#c34728;}.cls-32{fill:#a74633;}.cls-33{fill:#d46b3c;}.cls-34{fill:#eae0d0;}.cls-35{fill:#b2a68a;}.cls-36{fill:#c4b090;}.cls-37{clip-path:url(#clip-path-3);}.cls-38{clip-path:url(#clip-path-4);}.cls-39{fill:#60ddef;}</style><clipPath id="clip-path"><rect class="cls-1" y="0.03" width="1920" height="899.97"/></clipPath><clipPath id="clip-path-2"><rect class="cls-1" x="1940" y="-0.91" width="1920" height="901.82"/></clipPath><clipPath id="clip-path-3"><rect class="cls-1" y="920" width="1920" height="900"/></clipPath><clipPath id="clip-path-4"><polygon class="cls-1" points="1920 1820 0 1820 0 920 1919.19 920 1920 1820"/></clipPath></defs><g class="cls-2"><rect class="cls-3" y="0.08" width="1920" height="899.92"/><path class="cls-4" d="M1692.84,931.12c20.42-16.63,36.94,15.89,68.6-9.89,17.21-14,16.09-30.3,2.21-42.17-10.75-9.19-23.4-12-40.79-.42-7.1,4.66-20.84,14-31.13,5.17-11.64-9.95-7.22-17.67,5.18-28.89,10.8-9.92,10.27-20.33,0-29.13-13.43-11.49-30.48-8.07-42.64,1.83-27.76,22.61,4.18,39.2-13.94,54-7.8,6.36-18.73,9.65-28.8,1-27.31-23.36-5.69-60.41,16.57-78.53,39.68-32.32,76.08-25.71,97.79-7.13,14.33,12.25,18,26.48,11.84,42.69,21.91-10,42.68-4.49,59.46,9.87,35.37,30.26,24.4,67.6-9.56,95.26-43.12,35.12-82.85,23.74-95.38,13C1683.05,949.94,1683.44,938.78,1692.84,931.12Z"/><path class="cls-5" d="M1978.8,315.71c7.2,15.66,8.39,30.13-.33,47.58-19.53,39.07-61.41,49.56-99.16,36.41-51.48-17.92-62.67-56.37-43.67-94.39,27.6-55.21,87.28-53.7,136.58-36.53,92.36,32.16,110.15,73.52,85.94,122-15.49,31-47.25,44.7-66.28,38.07-11.23-3.91-16.64-14.36-12.08-23.47,8.59-17.19,35.81-8.63,46.36-29.72,13.53-27.09-13-48-41.74-57.95Zm-107.2,1.2c-9.37,18.75-.43,35.32,23.59,43.68,26.53,9.24,44.89.35,53.48-16.84,8.46-16.93,1.5-35.25-23.15-43.84C1901.5,291.55,1881,298.16,1871.6,316.91Z"/><path class="cls-4" d="M1486.05,409.29c4.13,19.14-5.27,38.4-24.21,49.7-33.07,19.73-77.1,10.74-110.19-27.9s-29-76.32,4-96c18.94-11.3,43.81-12.5,64.18-3-8.9-23.13,1.57-43.79,24.71-57.6,50.81-30.31,98.29-4,124.72,26.82s40.84,76.86-10,107.17C1536.18,422.21,1509.38,423.8,1486.05,409.29Zm49-87.61c-15.26-17.82-38-23.19-58.77-10.81-12.93,7.71-27.52,27.79-8,50.63s47,17.8,60,10.09C1549,359.21,1550.28,339.49,1535,321.68Zm-95.59,57c-12.9-15.06-31.72-21.65-50.66-10.35-17.73,10.58-17.55,28.3-4.66,43.35s32.92,20.93,50.65,10.35C1453.7,410.77,1452.32,393.77,1439.43,378.72Z"/><path class="cls-4" d="M1603.6,122.1c14.63,4.42,25.4,11.18,33.22,24.3,17.51,29.37,3.63,55.16-24.75,66.95-38.7,16.08-71.36,2-88.4-26.54-24.75-41.5,6.59-69.91,43.65-85.3,69.43-28.84,107.48-16.56,129.19,19.85,13.89,23.3,7.4,45.78-6.91,51.72-8.44,3.51-18.51.85-22.6-6-7.7-12.92,12.12-21.89,2.66-37.74-12.14-20.36-40.26-18-61.84-9Zm-53.55,53c8.41,14.09,24.57,18.13,42.63,10.62,19.93-8.28,23-21.77,15.31-34.69-7.59-12.72-24-18.62-42.51-10.92C1547.42,147.63,1541.65,161,1550.05,175.12Z"/><path class="cls-4" d="M1595.62,37.69l13,20.26c3.32,5.19,2.88,9-4.83,12.47-7,3.11-10.87.81-18-6.51l-5.23-5.14c-15.71-15.42-34-1-42.6-14.31-3.23-5-3.21-10.28,7-14.83L1651.8-18.15c9.79-4.38,18.58-4.27,24.22,4.53s.89,15-8.9,19.34Z"/><path class="cls-4" d="M700.49,572.26l1.23-37.58c.31-9.61,4.67-14.76,19-14.43,12.91.29,16.21,6.2,19.21,21.42l2.44,10.84c7.31,32.53,47.39,24.4,46.58,49.16-.3,9.32-5.43,16.79-24.28,16.36l-198.22-4.52c-18.15-.42-30.52-6.53-30-22.84s13.29-21.85,31.44-21.44Z"/><path class="cls-4" d="M765.59,700.74c-6.78.73-12.2-1.42-13.23-8.13s3.57-9.93,11.78-10.8l67-7.16c10.35-1.1,15.53,4.25,16.33,9.47,1.62,10.58-7.82,23.56-28.34,37.72-22.81,15.77-31,19.37-29.12,31.45,1.48,9.69,11.23,14.1,21.06,13.05,11.43-1.22,18.51-5.92,20.61-18.26.94-5.71,2.83-8.79,10-9.55,7.32-.78,13.42,1.14,14.56,8.59,2.79,18.19-16.51,34.34-42.77,37.15-28.57,3.05-47.94-10.79-50-24.51-3-19.82,6.66-28.74,24.22-39.7,18.72-11.7,30.11-19.13,31.56-25Z"/><path class="cls-4" d="M617.48,249.94,603.57,272.4A9.27,9.27,0,0,1,592,276a9.85,9.85,0,0,1-5.28-4.43l-25.27-45.82c-1.31-2.27-.95-4.61.6-7.11,3-4.83,7.26-5.37,11.87-3.38L613,232.15l2.77-4.48c1.89-3,5.68-3.9,9.22-2.37s4.89,4.6,3,7.65l-2.77,4.47,11,4.76c4.5,1.94,6.51,4.85,3.63,9.5s-6.88,5-11.38,3Zm-40-17.24-.11.17,17.07,29.25,10.8-17.45Z"/><path class="cls-4" d="M185.16,199.45,166.52,180.6c-3.86-3.91-2.31-8,.57-10a11.41,11.41,0,0,1,6.72-2.23L232.23,167a9.47,9.47,0,0,1,7.35,3.15c4,4.06,3,7.43-.92,10.1l-32.85,22.62,3.71,3.75c2.53,2.56,2,5.7-1,7.74a7.13,7.13,0,0,1-9.29-.67L195.55,210l-9.27,6.38c-3.78,2.61-7.64,3-11.5-.92s-2.67-7,1.11-9.59Zm33.57-23.11-.15-.15-37.64,1.55,14.48,14.65Z"/><path class="cls-4" d="M990.29,440.9c-6.94-5.66-9.51-12.38.22-20.7,13.9-11.89,48.31,7.73,144.81-44.49,12.56-6.88,18.53-7.82,26.89-1,10.33,8.41,7.27,15.49-.2,21.87-17.2,14.71-91.6,38.81-134.71,37.92l57.5,46.84c6.41,5.22,8.26,12,.45,18.64s-15.93,5.3-22.7-.21Z"/><path class="cls-4" d="M1811.71,494.2c-8-17.86-3-37.8,12.94-51.47,27.77-23.85,72.12-21.6,112.13,10.84s44,69.39,16.21,93.24c-15.9,13.66-39.64,18.44-61.26,12.28,13.42,21,7.65,42.46-11.79,59.16-42.66,36.65-94,18.23-125.91-7.68s-55.48-68.18-12.82-104.83C1760.64,489.05,1786.16,483.61,1811.71,494.2Zm-28.9,91.65c18.44,15,41.53,16.82,59,1.86,10.85-9.33,20.72-30.83-2.92-50s-49.1-10.32-59.95-1C1761.47,551.68,1764.36,570.89,1782.81,585.85Zm80.26-69c15.59,12.64,35.12,16.26,51,2.6,14.89-12.8,11-29.86-4.58-42.5s-36.13-15.39-51-2.59C1842.6,488.06,1847.49,504.25,1863.07,516.89Z"/><path class="cls-4" d="M804-6.53c2.57,17.86-.74,33.19-15.3,49.44C756.15,79.29,709.27,81,674.11,59.1,626.17,29.18,626.6-13.28,658.33-48.69c46.06-51.42,107.69-36.78,153.6-8.12,86,53.68,91.53,100.61,51.12,145.72-25.85,28.86-63.21,36.18-80.94,25.11-10.46-6.52-12.8-18.57-5.2-27.06,14.34-16,40-1.14,57.58-20.79C857.09,41,836,13.42,809.27-3.27ZM692.1-28.75c-15.64,17.47-11.54,36.66,10.83,50.62,24.7,15.42,46.6,10.18,60.94-5.82C778,.28,776.51-20.31,753.55-34.64,731.18-48.6,707.75-46.21,692.1-28.75Z"/><path class="cls-4" d="M1331,494.36l-4.74-14.81c-1.21-3.79-.22-6.22,5.42-7.48,5.09-1.14,7.2.85,10.48,6.52l2.46,4c7.39,12,21.93,5,25.05,14.71,1.18,3.67.21,7.09-7.22,8.74l-78.13,17.43c-7.15,1.6-12.84.41-14.9-6s2.16-9.83,9.31-11.43Z"/><path class="cls-4" d="M1689.33,311.09l-39.45,15.62c-10.1,4-17.34,3.12-23.29-7.35-5.37-9.45-.71-14.42,13.75-23.27l10.15-6.52c30.47-19.57,4.45-44.92,30.45-55.22,9.78-3.87,19.77-3.45,27.6,10.34l82.42,145c7.54,13.28,6.65,24.89-10.48,31.67s-28.47,0-36-13.26Z"/><path class="cls-4" d="M1673.58,426.14c-10.53,6.39-15.44-9.2-31.77.71-8.87,5.39-9.65,12.8-4.31,18.93,4.13,4.74,9.63,6.69,18.39,2.42,3.57-1.71,10.51-5.17,14.47-.63,4.48,5.14,1.87,8.38-4.61,12.77-5.66,3.89-6.24,8.62-2.28,13.16,5.16,5.93,13.13,5.32,19.4,1.51,14.32-8.69,1.2-17.94,10.54-23.61,4-2.45,9.22-3.34,13.09,1.11,10.5,12.05-2.18,27.6-13.66,34.56-20.46,12.43-36.38,7.45-44.73-2.13-5.51-6.32-6-12.95-2-19.93-10.68,3.31-19.63-.31-26.09-7.72-13.6-15.61-5.7-31.87,11.81-42.5,22.24-13.51,39.29-6.19,44.11-.66C1679.48,418.18,1678.43,423.2,1673.58,426.14Z"/><path class="cls-4" d="M1048.49,186.67l67.87-26.9c14.06-5.58,25.31.2,29.41,7.42,3.34,5.87,3.77,10.12,2.44,15.35l-32.55,122.17c-1.49,6.12-6.41,10.28-14,13.28-14.6,5.79-24,1.5-29.52-8.21l-46.87-82.38-13.52,5.36c-9.2,3.65-18.23.59-22.46-6.86s-1.38-15.22,7.82-18.87l13.52-5.35-13.23-23.25c-5.39-9.48-4.12-17.73,9.94-23.3s22.52-1.19,27.92,8.29Zm47.9,84.18.54-.21,18.93-79.14-52.73,20.9Z"/><path class="cls-5" d="M627.61,479.55c5.09,3.69,7.2,8.28.84,14.38-9.07,8.73-33.92-3.73-98.4,35.79-8.39,5.2-12.49,6.06-18.63,1.61-7.58-5.5-5.8-10.51-.92-15.2,11.23-10.8,61.73-30.05,91.71-30.89L560,454.66c-4.7-3.41-6.32-8-1.21-12.93s10.8-4.22,15.76-.62Z"/><path class="cls-5" d="M118.92-86.84c5.43-17.76,15.33-31.29,36.31-42.25,47-24.54,92.26-11.81,116,19.81C303.54-66.14,284.42-26,238.69-2.08,172.3,32.6,120.23-.22,89.27-41.52c-58-77.38-42.58-123.64,15.67-154.07,37.27-19.46,76-14.94,87.92,1,7,9.41,4,21.57-7,27.29-20.67,10.8-38.47-11.19-63.84,2.06-32.57,17-24.67,49.63-6.64,73.68Zm96.49,55.45c22.55-11.78,27.12-31.26,12-51.39-16.66-22.22-39.77-24-60.44-13.17-20.35,10.63-28,30.64-12.53,51.29C169.56-24.53,192.86-19.61,215.41-31.39Z"/><path class="cls-5" d="M1057.11,830.2c-7.86,3.33-15.54,2.68-20.26-5.08s-.83-13.32,8.68-17.36L1123,774.88c12-5.08,21-.46,24.73,5.58,7.46,12.25,2.73,31.4-14.81,56-19.49,27.38-27.52,34.69-19,48.67,6.83,11.21,21,13,32.32,8.22,13.23-5.62,19.38-13.87,15.53-29.6-1.82-7.27-1.13-11.68,7.14-15.19,8.47-3.6,16.87-3.47,22.13,5.16,12.81,21-2.22,47.62-32.61,60.51-33.08,14-63.74,4.24-73.41-11.64-14-22.94-6.82-37.26,8.79-56.91,16.63-20.95,26.59-34.08,25.28-41.77Z"/><path class="cls-5" d="M915.62,860.09c-2.39-11.18-1-20.94,7.5-31.61,19-23.9,48.43-26.41,71.53-13.64,31.5,17.41,33.05,44.18,14.59,67.44-26.8,33.78-66.27,26.4-96.43,9.73-56.51-31.24-62-60.65-38.49-90.29,15-19,38.27-24.69,49.91-18.25,6.88,3.8,8.87,11.32,4.45,16.9-8.35,10.52-25.15,1.92-35.39,14.82-13.15,16.57,1.33,33.29,18.89,43Zm71.48,10.64c9.1-11.48,5.7-23.45-9-31.58-16.23-9-29.81-5-38.15,5.51-8.22,10.35-6.4,23.28,8.69,31.62C963.33,884.41,978,882.2,987.1,870.73Z"/><path class="cls-4" d="M754.4,934.53c-17.76,2.48-35.49-3.76-45.76-16.08-17.95-21.5-9.22-49.8,26.85-70.77s70.9-18,88.85,3.51c10.27,12.32,11.14,28.36,2.19,41.4C848,887.07,867,894,879.59,909.07c27.57,33,2.81,63.39-26,80.14s-71.51,25.6-99.08-7.43C742,966.72,740.75,949.43,754.4,934.53Zm80.6,32.4c16.63-9.67,21.81-24.3,10.56-37.79-7-8.4-25.46-18-46.77-5.61s-16.93,30.16-9.91,38.56C800.13,975.58,818.37,976.59,835,966.93Zm-51.87-62.17c14-8.17,20.33-20.24,10-32.55-9.63-11.54-26-11.59-40.07-3.42s-19.68,21-10.05,32.56C753.33,913.66,769.07,912.93,783.13,904.76Z"/><path class="cls-6" d="M667,150.76c.89,6.57-.38,12.2-5.78,18.14-12.09,13.3-29.33,13.84-42.18,5.7-17.53-11.1-17.24-26.71-5.47-39.65,17.09-18.8,39.7-13.29,56.48-2.66,31.45,19.92,33.34,37.18,18.35,53.68-9.6,10.55-23.35,13.16-29.83,9.05-3.83-2.42-4.65-6.85-1.83-10,5.32-5.85,14.7-.33,21.23-7.51,8.38-9.23.71-19.39-9.06-25.58Zm-41.08-8.41c-5.8,6.39-4.36,13.45,3.82,18.63,9,5.72,17.11,3.84,22.43-2s4.75-13.34-3.64-18.65C640.33,135.14,631.7,136,625.9,142.35Z"/><g class="cls-7"><path class="cls-6" d="M112.79,632c-19.06-3.79-33.68-11-45.7-26.43-26.93-34.64-14-68.55,19.49-86.68,45.65-24.72,88.89-11.06,115.09,22.65,38.05,49,3.72,88.22-40,111.89C79.79,697.73,30.11,686.91-3.28,644c-21.36-27.48-17.08-56.37-.21-65.51,10-5.39,23-3.27,29.29,4.81,11.85,15.24-11.41,28.82,3.13,47.52,18.67,24,53.43,17.66,78.88,3.88Zm57.89-72.69c-12.93-16.62-33.83-19.74-55.13-8.21-23.51,12.74-25,30-13.2,45.21,11.66,15,33.17,20.43,55,8.59C178.67,593.33,183.6,575.9,170.68,559.27Z"/><path class="cls-6" d="M477,731.53l16.51-8.37c4.22-2.15,7.46-2,10.65,2.34,2.88,4,1.1,6.32-4.78,10.77l-4.11,3.25c-12.34,9.77.5,19.94-10.38,25.46-4.09,2.07-8.51,2.27-12.71-3.5L428,700.82c-4-5.55-4.29-10.69,2.88-14.33s12.52-1.09,16.57,4.46Z"/><path class="cls-6" d="M1162.15,665.39l-11.63-7c-3-1.78-3.82-3.66-1.17-6.74,2.39-2.78,4.84-2.46,10.18-.4l3.85,1.39c11.56,4.19,16.14-6.07,23.8-1.48,2.88,1.73,4.32,4.19.83,8.25l-36.73,42.74c-3.36,3.91-7.49,5.54-12.54,2.52s-4.52-6.81-1.16-10.72Z"/><path class="cls-6" d="M90.72,431c-8.14,1.8-6.73-8.55-19.35-5.77-6.85,1.52-9.4,5.84-7.9,10.57,1.17,3.66,3.93,5.91,10.41,5.05,2.63-.34,7.78-1.07,8.9,2.44,1.26,4-1.22,5.42-6.36,6.8-4.5,1.24-6.17,4-5.06,7.49,1.45,4.58,6.43,5.76,11.28,4.69,11.06-2.44,5.74-10.58,13-12.17,3.11-.69,6.49-.21,7.58,3.22,2.95,9.31-9,16.21-17.91,18.17-15.82,3.5-24-2.61-26.37-10-1.55-4.89,0-9,4.38-12.41-7.36-.08-11.74-4-13.56-9.74C45.9,427.22,55.21,419,68.74,416c17.19-3.8,25.42,3.93,26.78,8.21C96.51,427.31,94.47,430.13,90.72,431Z"/><path class="cls-6" d="M445.28,67.57l-12.37,42.7c-2.56,8.85-11.29,11.41-17.81,10.09-5.3-1.07-8.27-2.75-11.09-5.66L338.69,46.05c-3.34-3.37-3.88-7.45-2.5-12.21,2.66-9.19,9.6-11.56,18.37-9.8l74.39,15,2.47-8.51c1.67-5.78,7.65-8.54,14.37-7.18s10.54,6.09,8.86,11.87l-2.46,8.51,21,4.23c8.56,1.73,13.38,5.95,10.81,14.79s-9.15,10.76-17.71,9Zm-76-15.35-.1.34,43.28,43.5,9.61-33.18Z"/><path class="cls-6" d="M426.83,375.54c7.19,12,9.48,23.55,4.11,38.06-12,32.48-44.52,43.55-75.91,35.46-42.81-11-55.29-41.05-43.6-72.66,17-45.91,64.83-48.52,105.82-38,76.79,19.79,94.82,51.71,79.92,92-9.53,25.76-33.65,38.76-49.48,34.68-9.34-2.41-14.62-10.41-11.82-18,5.29-14.29,27.84-9.19,34.33-26.73,8.33-22.52-14.83-37.5-38.7-43.65Zm-85.58,7.83c-5.77,15.59,2.9,28.26,22.88,33.41,22.05,5.68,35.91-2.61,41.2-16.9,5.2-14.07-2.05-28.28-22.54-33.56C362.81,361.18,347,367.78,341.25,383.37Z"/><path class="cls-6" d="M1298.14,741.64c15.5,7.89,25.92,17.72,31.2,34.23,11.84,37-11.21,63.77-46.94,71.74-48.73,10.87-82.15-11.52-93.67-47.5-16.73-52.25,27-78.65,73.67-89.06,87.4-19.49,127.48,1.93,142.16,47.78,9.39,29.32-4.29,53.77-22.3,57.79-10.63,2.37-21.41-2.62-24.17-11.25-5.21-16.27,20-22.67,13.56-42.63-8.21-25.64-41-28.35-68.2-22.29Zm-76,50.22c5.68,17.75,23,25.49,45.77,20.42,25.1-5.6,32.38-20.42,27.17-36.69-5.13-16-22.23-25.94-45.56-20.73C1226.8,759.93,1216.47,774.12,1222.15,791.86Z"/><path class="cls-6" d="M1245.74,224.14c39.78.8,64.88,25.29,63.49,73.66-1,36.27-15.93,75.76-67.74,74.72s-64.42-41.07-63.38-77.34C1179.5,246.81,1206,223.35,1245.74,224.14Zm-3.55,123.79c18.91.38,30.09-12.32,31.14-49,.88-30.75-6.68-49.76-28.29-50.2s-30.25,18.27-31.13,49C1212.85,334.42,1223.29,347.55,1242.19,347.93Z"/></g><g class="cls-8"><path class="cls-9" d="M1922.61,712.71c9.84,12.85,14.07,25.58,10.12,42.46-8.85,37.8-43.88,53.54-80.41,47.58-49.81-8.12-68.21-40.68-59.59-77.47,12.5-53.43,66-61.18,113.73-53.4,89.37,14.58,114.28,48.73,103.31,95.6-7,30-32.33,47-50.74,44-10.87-1.77-18-10.25-15.91-19.07,3.89-16.63,30-13.16,34.81-33.57,6.14-26.21-22.11-40.75-49.89-45.28Zm-95.29,17.42c-4.25,18.15,7.35,31.55,30.59,35.34,25.67,4.19,40.09-6.54,44-23.17,3.84-16.38-6.38-31.65-30.23-35.54C1848.41,703,1831.57,712,1827.32,730.13Z"/><path class="cls-9" d="M342.26,166.91l-8.81-10.41c-2.26-2.66-2.33-4.8,1.64-7.13,3.57-2.11,5.91-1.07,10.43,2.55l3.3,2.53c9.9,7.59,18.8-1.42,24.61,5.44,2.19,2.58,2.61,5.48-2.61,8.56l-54.9,32.4c-5,3-9.87,3.41-13.7-1.11s-1.71-8.19,3.31-11.15Z"/><path class="cls-9" d="M1037.16,705.07c5.18-5.11,11.89-6.84,19.15-1.72s6.34,10.94.07,17.13L1005.29,771c-7.91,7.8-17.46,6.6-23.11,2.62-11.45-8.08-15.6-25.54-11.31-51.35,4.75-28.72,8.39-37.22-4.67-46.44a23.74,23.74,0,0,0-30.59,2.65c-8.72,8.61-10.39,17.36-.49,29.42,4.61,5.55,5.9,9.46.45,14.84s-12.69,7.9-20.75,2.21c-19.67-13.88-18.32-40.6,1.71-60.39C938.33,643,968.21,642.13,983,652.6c21.45,15.12,21.52,29.25,16.75,50.34-5.07,22.48-7.87,36.43-3.51,42.51Z"/><path class="cls-9" d="M-45,184c7.29,9.73,7.14,19.79-6.67,27s-24.7,2.92-33.53-8.86l-72-96c-11.13-14.86-3.76-27.25,7-32.86,21.79-11.37,58.13-7.89,106.35,11.48,53.68,21.51,68.42,30.92,93.27,17.94,19.95-10.41,21.4-29,10.85-43.07C48,43.18,31.74,36.33,3,43.51c-13.28,3.36-21.6,3.08-29.28-7.17-7.87-10.5-8.79-21.42,6.55-29.43,37.44-19.54,89-3.7,117.22,34,30.7,41,16.71,82.13-11.52,96.86-40.82,21.3-68.48,14-107.23-3.53-41.33-18.69-67.15-29.8-81.31-27Z"/><path class="cls-9" d="M1788.37,121.34c15.89,19.72-25.33,27.42-.69,58,13.39,16.61,32.75,18.62,49.2,9.38,12.74-7.15,18.28-17,7.82-33.35-4.2-6.65-12.7-19.58-.49-26.44,13.8-7.75,22.08-2.74,33,9.44,9.73,10.63,22.07,12.07,34.28,5.22,15.92-9,15-23.53,5.5-35.27-21.6-26.81-46.86-3.62-61-21.12-6.07-7.53-8-17.08,4-23.78,32.39-18.18,72.08,6.19,89.4,27.68,30.88,38.32,16.57,67-9.18,81.41-17,9.54-34.37,10-52.33,2,7.81,19.74-2.4,35.77-22.31,47-41.93,23.55-83.89,7.85-110.31-24.94-33.57-41.65-13-72.16,1.81-80.5C1768,109.94,1781.05,112.26,1788.37,121.34Z"/><path class="cls-9" d="M1883.73-4.7c-6.34-.3-11.5-1.89-16.4-6.25-11-9.77-9.16-21.21.28-28.59,12.87-10.07,27.6-7.78,38.28,1.73,15.5,13.8,7.23,28-5.09,37.61-23.09,18.06-39.69,17-53.29,4.87-8.7-7.75-9.31-17.17-4.56-20.89a7.82,7.82,0,0,1,9.68.13c4.83,4.3-1.66,9.74,4.26,15,7.6,6.77,18.26,3.08,25.43-2.53Zm13.49-26c-5.27-4.69-12.15-4.69-18.16,0-6.63,5.19-5.94,10.76-1.11,15.06s12,4.93,18.15.11C1902.1-20.18,1902.48-26,1897.22-30.66Z"/><path class="cls-9" d="M83.59,754.75c3.61-2.72,7.73-3.57,12.41.75,6.68,6.19-6.18,19.94,22.06,61.91,3.73,5.47,4.1,8-.25,11.27-5.37,4-9.52,2.54-13.11-.79-8.27-7.65-20.35-39.49-18.45-57.47L56.34,792.94c-3.34,2.51-7.43,3.08-11.19-.4s-2.67-6.83.84-9.47Z"/><path class="cls-9" d="M438.29,912c-4.22,17.23-19.85,30.78-40.3,35-35.7,7.33-69.08-12.54-81.36-54.26s6.27-72.24,42-79.56c20.45-4.19,41.82,1.77,55.13,15.41,1.8-21.91,18.9-36.33,43.89-41.46,54.84-11.25,84.18,24.1,94,57.42s3.44,76-51.41,87.24C475.21,936.91,452.06,930.75,438.29,912Zm76.32-59.89C509,832.91,492,822,469.58,826.62c-13.95,2.86-34.28,15.64-27,40.3s32.36,28.11,46.32,25.25C511.27,887.58,520.27,871.37,514.61,852.14ZM411.4,873.31c-4.78-16.26-17.94-27.06-38.39-22.87-19.15,3.93-26.11,18.86-21.33,35.11s19.25,26.79,38.4,22.86C410.52,904.22,416.19,889.56,411.4,873.31Z"/><path class="cls-9" d="M1478,770.39c9.48-9.72,20.29-15.75,37.08-17.52,37.61-4,61.34,14.8,65.17,40.12,5.22,34.53-20.48,54.88-57.09,58.74C1470,857.33,1449,824.47,1444,791.4c-9.37-61.94,16.14-86.95,62.77-91.87,29.84-3.14,52.3,9,54.23,21.71,1.14,7.54-5,14.35-13.74,15.27-16.55,1.75-20-16.17-40.33-14-26.07,2.75-32.4,24.89-29.49,44.14Zm40.8,57.56c18-1.9,27.6-12.9,25.16-29-2.69-17.79-16.43-24.42-33-22.68-16.3,1.72-27.94,12.3-25.44,28.84C1488,821.21,1500.74,829.86,1518.79,828Z"/></g><path class="cls-10" d="M268.59,257.17c16.53,2.31,25.25,13.77,21.22,33.87-3,15.08-12.06,30.8-33.59,27.79s-23.93-20.33-20.91-35.4C239.34,263.33,252.05,254.86,268.59,257.17Zm-10.32,51.44c7.86,1.1,13.43-3.64,16.48-18.88,2.56-12.78.77-21.09-8.21-22.34s-13.92,6.11-16.48,18.89C247,301.52,250.41,307.52,258.27,308.61Z"/><path class="cls-4" d="M356.13,568.34c-5.81-9.94-7.59-19.4-3.06-31.28,10.14-26.61,36.94-35.51,62.66-28.69,35.07,9.32,45.06,34,35.19,60-14.33,37.6-53.66,39.47-87.24,30.55-62.91-16.7-77.45-43-64.87-76,8.05-21.11,28-31.64,40.94-28.19,7.65,2,11.92,8.63,9.55,14.84-4.46,11.71-22.94,7.39-28.42,21.76-7,18.44,11.87,30.89,31.42,36.08Zm70.36-5.93c4.87-12.77-2.14-23.23-18.51-27.57-18.06-4.8-29.52,1.93-34,13.63-4.4,11.54,1.44,23.24,18.23,27.7C408.59,580.52,421.62,575.19,426.49,562.41Z"/><path class="cls-5" d="M784.49,218.56a7,7,0,0,1-7.39,3.54l-27.53-6c-3.49-.76-5.63-2.7-4.55-6.15s4.08-4.26,7.39-3.54l23.4,5.11,6.08-10.95-.14-.19c-4,1.65-9.18,1.76-13.86.73-11.47-2.5-19.92-10.57-16.23-22.36C755.53,166.4,768.29,162,783,165.19c15.88,3.47,19.59,11.65,18.34,15.63-1,3.06-4.32,4.7-8.26,3.84-5.6-1.22-3.27-8.65-13-10.77-7-1.53-13.26,2.26-14.82,7.24-2,6.51,2.55,10.62,9.44,12.12,7.25,1.59,10.63-1.69,15.22-.68,3.3.72,5.87,2.83,4.74,6.43a20,20,0,0,1-1.73,4Z"/><path class="cls-5" d="M1027.9,603.45c3.14-7.79,8.12-13.58,17.95-17.9,22-9.68,41.78-2.71,51.13,12.11,12.75,20.22,2.58,37.68-18.85,47.09-31.12,13.68-53.12-2.47-65.33-21.83-22.87-36.27-14.11-56.55,13.2-68.55,17.46-7.67,34.61-4.57,39.32,2.91,2.79,4.41.92,9.77-4.22,12-9.69,4.26-16.78-6.08-28.67-.86-15.26,6.71-13,21.54-5.92,32.81Zm41,27.53c10.57-4.64,13.4-13.24,7.45-22.67-6.57-10.42-16.85-11.85-26.54-7.59-9.54,4.19-13.77,12.94-7.67,22.61C1048.07,632.77,1058.31,635.62,1068.88,631Z"/><path class="cls-11" d="M1443.51,920.41c-2.31,4.82-6.45,7.74-14.75,5-11.86-4-6.38-25.8-67.18-60.71-8-4.52-10.1-7.24-7.32-13.06,3.43-7.17,9.21-7.39,15.59-5.27,14.67,4.9,50.06,35.78,60,57.32L1449,863.71c2.13-4.45,6.45-7,13.12-4.8s7.68,6.58,5.43,11.28Z"/><path class="cls-11" d="M587.08,339.33l28.25-24.8c7.23-6.34,13.94-7.61,23.38-.11,8.52,6.76,6.44,12.43-2.64,24.26l-6.26,8.57C611,373,644.07,387.86,625.45,404.2c-7,6.15-15.93,8.59-28.36-1.28L466.27,299.08c-12-9.5-15.89-19.93-3.62-30.7s24.93-8,36.91,1.48Z"/><path class="cls-11" d="M891,494.46c-6.15-3.67-8.6-8.8-3.4-14.88s11.82-5.81,19.26-1.37l60.7,36.2c9.38,5.6,8.76,13.18,4.71,17.91-8.21,9.59-27.54,14.18-56.91,12.79-32.67-1.53-42.52-3.73-51.89,7.21-7.52,8.78-3.59,18.47,5.31,23.78,10.36,6.18,20.33,6.81,33.14-1.87,5.9-4,10.2-5.34,16.67-1.48,6.64,4,9.85,9.34,4.07,16.09-14.11,16.49-44.29,17.47-68.08,3.28-25.89-15.45-29.13-38.8-18.49-51.23,15.38-18,31.27-19.1,55.36-17,25.69,2.26,41.6,3.39,48.1-.49Z"/><path class="cls-11" d="M1652.12,263c2.92,2.58,3.89,5.57-.55,9.07-6.35,5-21-4.12-64.44,17.31-5.66,2.83-8.29,3.15-11.81,0-4.35-3.84-2.85-6.9.56-9.59,7.86-6.19,41-15.63,59.87-14.59l-24.19-21.4c-2.69-2.38-3.36-5.36.21-8.17s7.1-2.09,9.94.43Z"/><path class="cls-11" d="M885.34,189.24c8.89-4.08,17.48-5.58,28.54-3.15,24.77,5.45,34,22.21,28.69,38.88C935.39,247.71,913.12,255,889,249.74c-35-7.7-38.22-32.73-31.35-54.5,12.88-40.79,36.44-51.08,67.14-44.33,19.65,4.33,30.07,16.64,27.41,25.05-1.57,5-7.45,7.94-13.23,6.66-10.89-2.39-7.65-14.35-21-17.29-17.17-3.78-27.84,8.76-31.84,21.43Zm8.14,44.68c11.89,2.62,21.2-2.26,24.55-12.87,3.7-11.72-2.9-18.77-13.8-21.17-10.73-2.36-21.23,1.82-24.67,12.7C876.21,223.19,881.6,231.31,893.48,233.92Z"/><path class="cls-11" d="M485.56,187.12c-5.9-1.93-10.19-4.78-13.21-10.18-6.75-12.1-.77-22.47,10.92-27,16-6.19,29.05-.19,35.62,11.58,9.54,17.1-3.57,28.38-18.84,34.31-28.6,11.12-43.93,5.79-52.29-9.22-5.36-9.6-2.43-18.68,3.46-21,3.48-1.36,7.54-.19,9.12,2.64,3,5.32-5.21,8.79-1.56,15.33,4.68,8.38,16.15,7.66,25,4.2ZM508,166c-3.24-5.8-9.76-7.59-17.2-4.7-8.22,3.2-9.64,8.66-6.67,14s9.52,7.78,17.15,4.82C508.73,177.23,511.25,171.83,508,166Z"/><path class="cls-11" d="M1030.09,337.79c-11.41,9.13-26.7,8.17-42.64-5.7-12-10.41-21.1-25-6.24-36.86s31.89-3.64,43.84,6.76C1041,315.86,1041.49,328.66,1030.09,337.79Zm-40.78-35.5c-5.43,4.34-4.27,10.52,7.82,21,10.12,8.82,18.66,12.36,24.85,7.4s2.31-12.22-7.81-21C1002.08,299.17,994.73,298,989.31,302.29Z"/><path class="cls-11" d="M1171.79,135.31c28.11-8.38,26.83,28.57,70.41,15.57,23.69-7.06,31.13-22.95,24.14-39.3-5.42-12.65-16-19.9-38.58-15.25-9.18,1.85-27.12,5.71-32.31-6.41-5.86-13.71,2.37-19.43,20-25.59,15.46-5.5,20.4-15.59,15.21-27.72-6.77-15.82-24.78-18.77-41.51-13.78-38.22,11.39-16.51,38.81-41.46,46.25-10.74,3.2-22.85,2.35-27.93-9.51C1106,27.41,1146,.05,1176.59-9.08c54.63-16.29,85.79,3.25,96.73,28.82,7.22,16.87,3.25,31.72-11,44.9,26.06-1.52,42.93,11.28,51.39,31.05,17.83,41.65-12.13,73.17-58.87,87.1-59.37,17.71-91.2-7.58-97.52-22.34C1152.64,149.65,1158.85,139.17,1171.79,135.31Z"/><path class="cls-11" d="M614.1,713l63.62-19.36c13.18-4,22.68,2,25.64,8.73,2.4,5.5,2.36,9.35.64,14L662.45,823.68c-2,5.39-6.79,8.78-13.88,10.94-13.69,4.17-21.69-.35-25.67-9.44L589.16,748l-12.67,3.86c-8.62,2.62-16.41-.75-19.46-7.73s.3-13.76,8.92-16.38l12.67-3.86-9.52-21.79c-3.88-8.89-1.91-16.2,11.27-20.21s20.33.52,24.21,9.41ZM648.59,792l.5-.16,25-69.68-49.42,15Z"/><path class="cls-11" d="M1415.44,172.39l47.47,16.8c9.83,3.48,11.41,10.93,8.84,16a16.19,16.19,0,0,1-8.32,8L1373.5,255c-4.44,2.16-9.24,1.95-14.54.07-10.21-3.61-11.86-9.59-8.41-16.38L1379.82,181l-9.46-3.35c-6.43-2.28-8.67-7.54-6-12.75s8.73-7.52,15.16-5.25L1389,163l8.26-16.26c3.36-6.63,9-9.85,18.85-6.37s11,9.11,7.63,15.74Zm-29.91,58.88.38.14,57.27-28-36.88-13.05Z"/><path class="cls-11" d="M1604.93,519.31c2.45-2.86,6.72-4.43,10.35-3l33,13.14c4.18,1.66,6.32,4.54,4,8.68s-6.39,4.55-10.35,3L1613.84,530,1603,542.55l.11.27c5.59-1.27,12.1-.37,17.71,1.86,13.75,5.48,22.09,17.37,14,31.51C1626.37,591,1609,594,1591.39,587c-19-7.58-21.35-18.65-18.63-23.43,2.1-3.67,6.82-5.06,11.55-3.18,6.71,2.67,1.62,11.58,13.28,16.22,8.36,3.33,17.39-.17,20.8-6.14,4.46-7.81-.14-13.93-8.4-17.21-8.69-3.46-13.9,0-19.4-2.21-4-1.57-6.6-4.76-4.13-9.08a29,29,0,0,1,3.33-4.65Z"/><path class="cls-11" d="M337.24,759.11c-3.45,0-6.73-1.7-7.27-4.42L325.06,730c-.62-3.14.7-5.69,5.15-6.31s6.68,1.45,7.27,4.42l4.17,21,15.26.18.17-.2a17.28,17.28,0,0,1-6.82-10.83c-2.05-10.31,3.63-20.58,18.84-22.68,15.91-2.2,26.5,6.16,29.12,19.36,2.83,14.26-5,20.77-10.15,21.48-4,.54-7.29-1.45-8-5-1-5,8.59-6.35,6.85-15.09-1.24-6.27-8.32-9.7-14.74-8.81-8.39,1.16-11.17,6.63-9.94,12.81,1.29,6.52,6.53,7.83,7.34,11.95.59,3-.74,6-5.39,6.59a34.36,34.36,0,0,1-5.32.31Z"/><path class="cls-11" d="M562.94-92.58c11.32-4.23,22.12-3.61,29.4,10,10.41,19.39-33.72,44.34-4.65,164.73,3.9,15.71,2.44,22.08-11.21,27.18-16.84,6.3-25.49-.07-31.09-10.49-12.88-24-12.26-109.21,9.26-151.61L460.86-17.72c-10.45,3.91-20.92,2.59-26.78-8.32S434-44.35,445-48.48Z"/><path class="cls-11" d="M1387.86,652.67c-7.72,16.6-26.08,27.9-47.33,29.18-37.12,2.23-66.37-22.34-70.11-65.71s21-71.18,58.1-73.42c21.26-1.27,41.36,7.71,51.86,23.21,6.27-21.61,26.27-33.57,52.25-35.13,57-3.43,79.08,36,82.07,70.65s-12.07,76.31-69.09,79.74C1419.63,682.75,1397.78,673.31,1387.86,652.67Zm88.37-48.91c-1.72-20-16.44-33.26-39.72-31.86-14.51.87-37.39,10.74-35.18,36.37s26.56,32.65,41.07,31.78C1465.68,638.65,1478,623.76,1476.23,603.76Zm-107.29,6.46c-1.46-16.9-12.39-29.55-33.64-28.27-19.91,1.2-29.9,15.1-28.45,32s13.74,29.46,33.65,28.27C1361.75,640.94,1370.4,627.11,1368.94,610.22Z"/><path class="cls-11" d="M256.79,768.18c14.69,2.8,26,12.36,29.27,24.62,5.67,21.42-11.9,41-47.83,47.62s-61.75-4.95-67.41-26.37c-3.25-12.27,2.21-24.92,14.12-32.62-18.74-1.45-30.8-11.89-34.76-26.88-8.71-32.91,22-49.82,50.74-55.1s65.13-.78,73.83,32.13C278.72,746.57,273.05,760.28,256.79,768.18Zm-50-46.54c-16.57,3.06-26.17,13-22.61,26.43,2.21,8.38,12.82,20.71,34.05,16.8s24.62-18.83,22.4-27.21C237.09,724.23,223.36,718.59,206.8,721.64Zm16.38,61.92c-14,2.58-23.46,10.25-20.22,22.52,3,11.49,15.71,15.89,29.7,13.31s23.27-11,20.23-22.51C249.64,784.61,237.18,781,223.18,783.56Z"/><path class="cls-11" d="M177.62,429.05c6.66-8.17,14.66-13.51,27.71-15.85,29.21-5.24,49.36,8.16,54.42,27.83,6.9,26.82-11.64,44.26-40.07,49.36-41.29,7.4-60.46-17.23-67.07-42.92-12.38-48.12,5.63-69.2,41.86-75.69,23.18-4.15,41.8,4.07,44.35,14,1.5,5.85-2.74,11.54-9.56,12.77-12.85,2.3-17-11.58-32.81-8.75-20.25,3.63-23.43,21.38-19.59,36.33ZM214.33,472c14-2.51,20.62-11.69,17.41-24.21-3.56-13.82-14.89-18.25-27.74-15.95-12.66,2.27-20.95,11.24-17.65,24.08C189.57,468.4,200.3,474.47,214.33,472Z"/><path class="cls-11" d="M1772.28,40.92l8.92,20.28c1.85,4.2-.88,7.24-4,8.19a10.74,10.74,0,0,1-6.39.22l-49.2-13.17a7.18,7.18,0,0,1-5-4.42c-1.92-4.36.14-6.92,4.31-8.2L1756.26,33l-1.78-4c-1.21-2.75.33-5.24,3.53-6.22s6.3.09,7.51,2.83l1.78,4.05,10-3.06c4.06-1.25,7.41-.63,9.26,3.58s-.22,6.48-4.28,7.73ZM1736.17,52l.07.16,31.94,7.91-6.94-15.76Z"/><path class="cls-11" d="M1436.36,89.6c-6.55-3.82-10.81-8.37-12.59-15.74-4-16.51,7-27.76,23-30.45,21.75-3.67,35.71,6.92,39.6,23,5.65,23.33-14.42,33.94-35.26,37.45-39,6.59-55.93-3.73-60.89-24.2-3.17-13.1,3.64-23.52,11.68-24.88,4.75-.8,9.32,1.64,10.25,5.49,1.76,7.26-9.5,9.5-7.34,18.42,2.77,11.44,17.1,13.38,29.23,11.33Zm35-20.34c-1.92-7.92-9.29-11.72-19.44-10-11.21,1.89-14.88,8.24-13.13,15.5s8.93,11.9,19.34,10.14C1468.29,83.18,1473.29,77.18,1471.37,69.26Z"/><path class="cls-5" d="M342.58,660.64c-11.1,13.92-30.34,16.26-54.65,2.77-18.23-10.13-34.37-26-19.92-44.17s38.27-11.86,56.5-1.74C348.82,631,353.68,646.71,342.58,660.64ZM280.37,626.1c-5.28,6.62-1.8,14,16.64,24.24,15.44,8.58,27.18,11,33.21,3.43s-1.19-15.66-16.64-24.24C295.15,619.3,285.64,619.48,280.37,626.1Z"/><path class="cls-5" d="M1197.24,533.63,1232.42,558c9,6.24,11.2,12.37,1.91,21.71-8.38,8.42-16.1,6.92-32.55-.64l-11.9-5.17c-35.72-15.52-53.09,16.29-76.27.22-8.73-6-12.65-14.15-.42-26.44l128.66-129.32c11.78-11.84,25.39-16.26,40.66-5.67s12.58,22.57.8,34.4Z"/><path class="cls-4" d="M908.15,350c-3.59.9-6.74.14-8-3.41s.86-5.62,5.2-6.71L940.77,331c5.48-1.37,8.85,1.14,9.84,3.9,2,5.6-1.7,13.32-11.28,22.5-10.64,10.22-14.67,12.77-12.37,19.16,1.84,5.13,7.58,6.79,12.78,5.49,6-1.52,9.37-4.58,9.18-11.41-.1-3.15.59-5,4.37-5.9s7.38-.39,8.79,3.56c3.46,9.62-5.25,19.78-19.14,23.26-15.11,3.78-27.06-2.26-29.66-9.52-3.77-10.48.52-16,8.84-23.26,8.86-7.72,14.22-12.58,14.38-15.88Z"/><path class="cls-5" d="M959.92,13.74c-9,1.43-16.43-1.07-18.47-10s3.78-13.5,14.67-15.23l88.76-14.16c13.73-2.19,21.17,4.61,22.75,11.53,3.21,14-8.13,32-34.14,52.33-28.92,22.63-39.47,28-35.81,44,2.94,12.84,16.41,18.06,29.42,16,15.15-2.42,24.15-9.18,25.74-25.81.7-7.69,2.92-11.94,12.38-13.45,9.71-1.54,18,.61,20.31,10.49,5.52,24.1-18.68,47-53.47,52.55-37.87,6-65.11-11.12-69.27-29.3-6-26.27,6.07-38.85,28.45-54.7,23.85-16.91,38.33-27.61,39.69-35.61Z"/><path class="cls-5" d="M1523.46,501.36l-20.16-15c-4.18-3.11-3.45-7-1.16-9.17a9.92,9.92,0,0,1,5.76-2.82L1561,466.3a9.11,9.11,0,0,1,7.23,2c4.34,3.23,3.94,6.43.86,9.31l-26.17,24.48,4,3c2.73,2,2.78,5,.41,7.17a6.57,6.57,0,0,1-8.59.47l-4-3-7.39,6.91c-3,2.81-6.46,3.61-10.64.5s-3.61-6.06-.6-8.88Zm26.74-25-.16-.12L1516,482.05l15.66,11.67Z"/><path class="cls-5" d="M2.78,377.35c-10.43,2.87-22.31.68-27.28-7L-69.66,300.2c-5.72-8.88-4.89-17.69,7.71-23.34s21.85-1.37,27.27,7L3.71,343.5,49.77,331l.26-.72c-14.1-4.52-26.13-14.78-33.8-26.7C-2.59,274.32,1.83,238.6,45,219.25,90,199,132.13,215.08,156.22,252.47c26,40.43,10.47,66.69-4.09,73.23-11.2,5-23.68,1.89-30.16-8.16-9.18-14.26,18-26.44,2-51.22-11.44-17.76-36.91-22-55.11-13.83-23.8,10.68-25.41,29.48-14.12,47C66.66,318,84,317.41,91.52,329.1c5.42,8.41,5.07,18.51-8.09,24.42A103.57,103.57,0,0,1,67.84,359Z"/><path class="cls-5" d="M811.75,388.22c-14.51,12.42-30.3,19.62-53.73,20.34-52.44,1.59-82.39-26.72-83.93-62-2.1-48.16,36.35-73.58,87.4-75.13,74.12-2.26,98.25,45.22,100.27,91.33C865.53,449.12,826.66,481,761.62,483c-41.6,1.27-70.79-17.71-71.57-35.52-.46-10.5,9-19.26,21.2-19.64,23.08-.7,25.22,24.37,53.54,23.51,36.37-1.11,48.36-31,47.19-57.84ZM764,304.63c-25.18.77-40,15-39,37.43,1.08,24.8,19,35.36,42.13,34.66,22.72-.69,40.34-14.09,39.34-37.14C805.5,317.11,789.16,303.87,764,304.63Z"/><path class="cls-5" d="M246,76.87c5.43,6.68,7.89,13.37,6.08,22.35-4,20.1-22.29,28.85-41.72,26.14-26.5-3.7-36.79-20.71-32.87-40.28,5.69-28.42,33.89-33.16,59.26-29.62,47.54,6.64,61.31,24.41,56.31,49.34-3.19,16-16.29,25.29-26.09,23.92-5.78-.81-9.68-5.21-8.74-9.91,1.77-8.84,15.66-7.32,17.84-18.17,2.79-13.94-12.41-21.3-27.18-23.37ZM195.92,87.23c-1.94,9.66,4.43,16.61,16.79,18.33,13.66,1.91,21.1-3.94,22.88-12.79S231.66,76.1,219,74.33C206.61,72.6,197.85,77.58,195.92,87.23Z"/><path class="cls-5" d="M465.74,610.74c3.63-3.64,8.21-5.19,14.47-.84,8.94,6.21-3.17,23.85,37.75,68.4,5.38,5.79,6.31,8.65,1.94,13-5.4,5.41-10.48,4.24-15.29.9-11.06-7.68-31.32-42.77-32.69-63.78l-30.06,30.13c-3.35,3.36-8,4.57-13,1.08s-4.43-7.51-.9-11Z"/><path class="cls-5" d="M353.73,240.23c0-3.41,1.74-6,7.6-6,8.37.07,11.22,14.5,58.27,23.82,6.16,1.19,8.24,2.43,8.19,6.53-.07,5.06-3.54,6.34-8,6.3-10.36-.09-40.75-12-52.95-23.16l-.35,28.2c0,3.14-1.95,5.57-6.66,5.53s-6.56-2.51-6.52-5.82Z"/><path class="cls-5" d="M1756.89,698.3c-9.46,36.12-46.84,53.82-109.88,42.32-47.28-8.64-95.82-30.58-83.5-77.62s67.41-50.07,114.69-41.44C1741.24,633.07,1766.36,662.18,1756.89,698.3Zm-161.33-29.45c-4.5,17.17,9.76,30,57.57,38.78,40.07,7.31,66.57,4.44,71.71-15.18s-17.5-31.46-57.57-38.78C1619.46,645,1600.06,651.68,1595.56,668.85Z"/></g><rect class="cls-12" width="1920" height="899.97" style="&#10;    opacity: 0.85;&#10;"/><g class="cls-13"><path class="cls-14" d="M1889.4-134.41V1019.21H3959.49V968.82h38.39V924.3h-38.39V868h38.39v-9.21l7.87,0v-9.59l-7.87-2.63V823.47h-38.39V767.16h38.39V730.85h7.87v-8.23h12.95l-16.08-5.89-43.13-15.81V666.32h38.39V621.8h-38.39V565.49h38.39V521h-38.39V464.65h38.39V420.13h-38.39V363.82h38.39V319.3h-38.39V263h38.39V218.47h-38.39V162.16h38.39V117.64h-38.39V10.91h312.27V-134.41ZM4094.86,874.46V879l7.85,2.63v-7.18Z"/><rect class="cls-15" x="1904.05" y="-14.12" width="2229.94" height="907.57"/><rect class="cls-16" x="1890.72" y="621.74" width="192.44" height="55.5"/><rect class="cls-17" x="1808.06" y="621.74" width="74.53" height="55.5"/><rect class="cls-18" x="1890.72" y="-6.77" width="192.44" height="55.5"/><rect class="cls-19" x="1808.06" y="-6.77" width="74.53" height="55.5"/><rect class="cls-20" x="1808.06" y="56.08" width="174.81" height="55.5"/><rect class="cls-21" x="1890.72" y="244.63" width="192.44" height="55.51"/><rect class="cls-22" x="1808.06" y="244.63" width="74.53" height="55.51"/><rect class="cls-23" x="1808.06" y="181.78" width="174.81" height="55.51"/><rect class="cls-24" x="1808.06" y="433.19" width="174.81" height="55.5"/><rect class="cls-25" x="1890.72" y="118.92" width="192.44" height="55.5"/><rect class="cls-26" x="1808.06" y="118.92" width="74.53" height="55.5"/><rect class="cls-27" x="1857.29" y="747.45" width="64.22" height="55.51"/><rect class="cls-28" x="1808.06" y="307.48" width="174.81" height="55.5"/><rect class="cls-29" x="1890.72" y="370.33" width="192.44" height="55.5"/><rect class="cls-30" x="1808.06" y="370.33" width="74.53" height="55.5"/><rect class="cls-31" x="1808.06" y="558.89" width="174.81" height="55.51"/><rect class="cls-32" x="1897.69" y="496.04" width="192.44" height="55.5"/><rect class="cls-33" x="1815.03" y="496.04" width="74.53" height="55.5"/><path class="cls-34" d="M3975.4,803l15.81,7.35h-12.73v10.26h-7.74v45.26H3933V936h37.75v28.76l7.74,3.28v12l-7.74,0v11.48H3933v56.65H1688.84V738.73h2281.9v1.37H3933v43.14Q3954.2,793.11,3975.4,803Z"/><line class="cls-35" x1="1879.65" y1="815.86" x2="4173.4" y2="805.66"/><path class="cls-36" d="M2063.22,814.19l348.79-.67-83.45,85.39-409.91-.66Z"/><path class="cls-36" d="M1857.29,812.8l213.21,1.68c46.62-26.8,93-49,139.58-75.75-64.33,1.34-128.39-2-192.72-.63Z"/></g><g class="cls-37"><g class="cls-38"><rect class="cls-39" y="860.7" width="1937.06" height="764.06"/></g></g></svg>