<svg xmlns="http://www.w3.org/2000/svg" viewBox="0 0 44.64 42.34"><defs><style>.cls-1{fill:#f7c90d;}.cls-2{fill:#f9d953;}.cls-3{fill:#fff;}</style></defs><g id="Layer_2" data-name="Layer 2"><path class="cls-1" d="M35.27,41.49c-1.8,1.29-10.92-6.72-13.14-6.74s-11.5,7.79-13.28,6.47,3-12.46,2.36-14.58S.24,18.11,1,16s12.79-1,14.59-2.26S20.27.68,22.48.71s4.89,11.86,6.67,13.18,13.88.45,14.54,2.56-9.76,8.32-10.47,10.42S37.08,40.21,35.27,41.49Z"/><path class="cls-2" d="M33.16,14.64c-1,11.13-11.19,20-23.85,20.67-.74,2.81-1.25,5.33-.46,5.91,1.78,1.32,11.07-6.49,13.28-6.47s11.34,8,13.14,6.74S32.51,29,33.22,26.87s11.14-8.3,10.47-10.41C43.24,15,37.36,15,33.16,14.64Z"/><path class="cls-3" d="M22.23,1.54a.22.22,0,0,0-.19.13c-.37.82-.74,1.64-1.08,2.46C19.91,6.64,19,9.2,18,11.73A6.1,6.1,0,0,1,16.78,14a4.05,4.05,0,0,1-1.92,1,11.26,11.26,0,0,1-2.26.25c-2.19.11-4.37.22-6.56.27a12,12,0,0,0-2.91.31,5.8,5.8,0,0,0-1.38.59.24.24,0,0,0-.12.2.23.23,0,0,0,.12.2.24.24,0,0,0,.23,0,5,5,0,0,1,1.28-.55,11.59,11.59,0,0,1,2.79-.29c2.19,0,4.38-.16,6.57-.27A13.41,13.41,0,0,0,15,15.41a4.48,4.48,0,0,0,2.15-1.1,6.6,6.6,0,0,0,1.35-2.42c1-2.54,1.87-5.09,2.92-7.58.34-.82.7-1.64,1.08-2.45a.24.24,0,0,0,0-.22A.23.23,0,0,0,22.23,1.54Z"/></g></svg>