<svg id="Layer_1" data-name="Layer 1" xmlns="http://www.w3.org/2000/svg" xmlns:xlink="http://www.w3.org/1999/xlink" viewBox="0 0 1920 900"><defs><style>.cls-1{fill:none;}.cls-2{clip-path:url(#clip-path);}.cls-3{fill:#3b2769;}.cls-4{fill:#282759;}.cls-5{opacity:0.7;}.cls-6{fill:#0e6987;}.cls-7{clip-path:url(#clip-path-2);}.cls-8{fill:#fff;}.cls-9{fill:#e8837c;}.cls-10,.cls-76{fill:#994430;}.cls-11{fill:#ca5530;}.cls-12{fill:#cf5b32;}.cls-13{fill:#d05233;}.cls-14{fill:#ca562d;}.cls-15{fill:#e3734e;}.cls-16{fill:#df784c;}.cls-17{fill:#d05033;}.cls-18{fill:#c33f2a;}.cls-19{fill:#e2754e;}.cls-20{fill:#d05f35;}.cls-21{fill:#d25636;}.cls-22{fill:#cb532f;}.cls-23{fill:#d2653a;}.cls-24{fill:#cd5032;}.cls-25{fill:#d05c33;}.cls-26{fill:#be4427;}.cls-27{fill:#bf4126;}.cls-28{fill:#df784f;}.cls-29{fill:#c84f2c;}.cls-30{fill:#ce5a32;}.cls-31{fill:#d26f3f;}.cls-32{fill:#ce5c33;}.cls-33{fill:#c34225;}.cls-34{fill:#df7c48;}.cls-35{fill:#c44525;}.cls-36{fill:#d1673f;}.cls-37{fill:#ca562a;}.cls-38{fill:#d56735;}.cls-39{fill:#cd5132;}.cls-40{fill:#c85434;}.cls-41{fill:#ca5e3a;}.cls-42{fill:#cf593b;}.cls-43{fill:#cd5932;}.cls-44{fill:#c6552e;}.cls-45{fill:#b24a32;}.cls-46{fill:#ab3822;}.cls-47{fill:#c84728;}.cls-48{fill:#cc5934;}.cls-49{fill:#c14527;}.cls-50{fill:#cd5231;}.cls-51{fill:#cd6134;}.cls-52,.cls-75{fill:#d76033;}.cls-53{fill:#be4523;}.cls-54{fill:#db6c32;}.cls-55{fill:#c05029;}.cls-56{fill:#c34a27;}.cls-57{fill:#d15e35;}.cls-58{fill:#d05d37;}.cls-59{fill:#b43d2b;}.cls-60{fill:#c55a31;}.cls-61{fill:#ce5a33;}.cls-62{fill:#cc5b2f;}.cls-63{fill:#cd4d31;}.cls-64{fill:#c34728;}.cls-65{fill:#c8602b;}.cls-66{fill:#d05c34;}.cls-67{fill:#ca522a;}.cls-68{fill:#ce6835;}.cls-69{fill:#a74633;}.cls-70{fill:#3cffe0;}.cls-71{fill:#eae0d0;}.cls-72{fill:#b2a68a;}.cls-73{fill:#c4b090;}.cls-74{fill:#753b32;}.cls-75{opacity:0.1;}.cls-76{stroke:#231f20;stroke-width:0.25px;}.cls-76,.cls-81{stroke-miterlimit:10;}.cls-77{clip-path:url(#clip-path-3);}.cls-78{fill:#75c4ef;}.cls-79{fill:#8aba5b;}.cls-80{fill:#97cb69;}.cls-81{stroke-width:0.21px;fill:url(#linear-gradient);stroke:url(#Fading_Sky_2);}.cls-82{fill:#4e4f50;}.cls-83{fill:#0e7435;}.cls-84{clip-path:url(#clip-path-4);}.cls-85{clip-path:url(#clip-path-5);}.cls-86{clip-path:url(#clip-path-6);}</style><clipPath id="clip-path"><rect class="cls-1" x="-1940" y="0.03" width="1920" height="899.97"/></clipPath><clipPath id="clip-path-2"><rect class="cls-1" y="-0.91" width="1920" height="901.82"/></clipPath><clipPath id="clip-path-3"><rect class="cls-1" x="1940" width="1920" height="900"/></clipPath><linearGradient id="linear-gradient" x1="1772.93" y1="636.29" x2="2282.17" y2="-1.39" gradientUnits="userSpaceOnUse"><stop offset="0.02" stop-color="#439a56"/><stop offset="0.5" stop-color="#4ea862"/><stop offset="0.57" stop-color="#4ba567"/><stop offset="0.66" stop-color="#439d74"/><stop offset="0.74" stop-color="#36908b"/><stop offset="0.83" stop-color="#247eab"/><stop offset="0.86" stop-color="#1b75ba"/></linearGradient><linearGradient id="Fading_Sky_2" x1="1876.17" y1="449.61" x2="2055.62" y2="326.7" gradientUnits="userSpaceOnUse"><stop offset="0" stop-color="#2483c5"/><stop offset="1" stop-color="#2483c5" stop-opacity="0"/></linearGradient><clipPath id="clip-path-4"><rect class="cls-1" x="-1940" y="920" width="1920" height="900"/></clipPath><clipPath id="clip-path-5"><polygon class="cls-1" points="-20 1820 -1940 1820 -1940 920 -20.81 920 -20 1820"/></clipPath><clipPath id="clip-path-6"><rect class="cls-1" x="1940" y="920" width="1920" height="900"/></clipPath></defs><g class="cls-2"><path class="cls-3" d="M38.8,315.71c7.2,15.66,8.39,30.13-.33,47.58-19.53,39.07-61.41,49.56-99.16,36.41-51.48-17.92-62.67-56.37-43.67-94.39,27.6-55.21,87.28-53.7,136.58-36.53,92.36,32.16,110.15,73.52,85.94,122-15.49,31-47.25,44.7-66.28,38.07-11.23-3.91-16.64-14.36-12.08-23.47,8.59-17.19,35.81-8.63,46.36-29.72,13.53-27.09-13-48-41.74-57.95Zm-107.2,1.2c-9.37,18.75-.43,35.32,23.59,43.68,26.53,9.24,44.89.35,53.48-16.84,8.46-16.93,1.5-35.25-23.15-43.84C-38.5,291.55-59,298.16-68.4,316.91Z"/><path class="cls-4" d="M-128.29,494.2c-8-17.86-3-37.8,12.94-51.47,27.77-23.85,72.12-21.6,112.13,10.84S40.76,523,13,546.81c-15.9,13.66-39.64,18.44-61.26,12.28,13.42,21,7.65,42.46-11.79,59.16C-102.72,654.9-154,636.48-186,610.57s-55.48-68.18-12.82-104.83C-179.36,489.05-153.84,483.61-128.29,494.2Zm-28.9,91.65c18.44,15,41.53,16.82,59,1.86,10.85-9.33,20.72-30.83-2.92-50s-49.1-10.32-60-1C-178.53,551.68-175.64,570.89-157.19,585.85Zm80.26-69c15.59,12.64,35.12,16.26,51,2.6,14.89-12.8,11-29.86-4.58-42.5s-36.13-15.39-51-2.59C-97.4,488.06-92.51,504.25-76.93,516.89Z"/><g class="cls-5"><path class="cls-6" d="M-17.39,712.71c9.84,12.85,14.07,25.58,10.12,42.46-8.85,37.8-43.88,53.54-80.41,47.58-49.81-8.12-68.21-40.68-59.59-77.47,12.5-53.43,66-61.18,113.73-53.4,89.37,14.58,114.28,48.73,103.31,95.6-7,30-32.33,47-50.74,44-10.87-1.77-18-10.25-15.91-19.07,3.89-16.63,30-13.16,34.81-33.57C44.07,732.67,15.82,718.13-12,713.6Zm-95.29,17.42c-4.25,18.15,7.35,31.55,30.59,35.34,25.67,4.19,40.09-6.54,44-23.17,3.84-16.38-6.38-31.65-30.23-35.54C-91.59,703-108.43,712-112.68,730.13Z"/><path class="cls-6" d="M-151.63,121.34c15.89,19.72-25.33,27.42-.69,58,13.39,16.61,32.75,18.62,49.2,9.38,12.74-7.15,18.28-17,7.82-33.35-4.2-6.65-12.7-19.58-.49-26.44,13.8-7.75,22.08-2.74,33.05,9.44C-53,149-40.67,150.43-28.46,143.58c15.92-9,15-23.53,5.5-35.27-21.6-26.81-46.86-3.62-61-21.12-6.07-7.53-8-17.08,4-23.78C-47.58,45.23-7.89,69.6,9.43,91.09,40.31,129.41,26,158.05.25,172.5c-17,9.54-34.37,10-52.33,2,7.81,19.74-2.4,35.77-22.31,47-41.93,23.55-83.89,7.85-110.31-24.94-33.57-41.65-13.05-72.16,1.81-80.5C-172,109.94-158.95,112.26-151.63,121.34Z"/></g></g><g class="cls-7"><path class="cls-8" d="M-50.6-134.41V1019.21H2019.49V968.82h38.39V924.3h-38.39V868h38.39v-9.21l7.87,0v-9.59l-7.87-2.63V823.47h-38.39V767.16h38.39V730.85h7.87v-8.23h12.95l-16.08-5.89-43.13-15.81V666.32h38.39V621.8h-38.39V565.49h38.39V521h-38.39V464.65h38.39V420.13h-38.39V363.82h38.39V319.3h-38.39V263h38.39V218.47h-38.39V162.16h38.39V117.64h-38.39V10.91h312.27V-134.41ZM2154.86,874.46V879l7.85,2.63v-7.18Z"/><rect class="cls-9" x="-35.95" y="-14.12" width="2229.94" height="907.57"/><rect class="cls-10" x="1154.11" y="621.74" width="192.43" height="55.5"/><rect class="cls-11" x="953.55" y="621.74" width="192.43" height="55.5"/><rect class="cls-12" x="752.98" y="621.74" width="192.43" height="55.5"/><rect class="cls-13" x="552.41" y="621.74" width="192.44" height="55.5"/><rect class="cls-14" x="351.85" y="621.74" width="192.43" height="55.5"/><rect class="cls-10" x="151.28" y="621.74" width="192.44" height="55.5"/><rect class="cls-15" x="-49.28" y="621.74" width="192.44" height="55.5"/><rect class="cls-12" x="1354.68" y="621.74" width="192.43" height="55.5"/><rect class="cls-12" x="1555.25" y="621.74" width="192.43" height="55.5"/><rect class="cls-10" x="1755.82" y="621.74" width="192.44" height="55.5"/><rect class="cls-16" x="1154.11" y="-6.77" width="192.43" height="55.5"/><rect class="cls-17" x="953.55" y="-6.77" width="192.43" height="55.5"/><rect class="cls-16" x="752.98" y="-6.77" width="192.43" height="55.5"/><rect class="cls-17" x="552.41" y="-6.77" width="192.44" height="55.5"/><rect class="cls-18" x="351.85" y="-6.77" width="192.43" height="55.5"/><rect class="cls-19" x="151.28" y="-6.77" width="192.44" height="55.5"/><rect class="cls-17" x="-49.28" y="-6.77" width="192.44" height="55.5"/><rect class="cls-17" x="1354.68" y="-6.77" width="192.43" height="55.5"/><rect class="cls-20" x="1555.25" y="-6.77" width="192.43" height="55.5"/><rect class="cls-21" x="1755.82" y="-6.77" width="192.44" height="55.5"/><rect class="cls-12" x="1053.83" y="56.08" width="192.43" height="55.5"/><rect class="cls-19" x="853.26" y="56.08" width="192.44" height="55.5"/><rect class="cls-22" x="652.7" y="56.08" width="192.44" height="55.5"/><rect class="cls-16" x="452.13" y="56.08" width="192.44" height="55.5"/><rect class="cls-23" x="251.57" y="56.08" width="192.44" height="55.5"/><rect class="cls-24" x="51" y="56.08" width="192.44" height="55.5"/><rect class="cls-25" x="-131.94" y="56.08" width="174.81" height="55.5"/><rect class="cls-19" x="1254.4" y="56.08" width="192.43" height="55.5"/><rect class="cls-26" x="1454.96" y="56.08" width="192.44" height="55.5"/><rect class="cls-20" x="1655.53" y="56.08" width="192.44" height="55.5"/><rect class="cls-16" x="1856.1" y="56.08" width="192.43" height="55.5"/><rect class="cls-25" x="1154.11" y="244.63" width="192.43" height="55.51"/><rect class="cls-27" x="953.55" y="244.63" width="192.43" height="55.51"/><rect class="cls-28" x="752.98" y="244.63" width="192.43" height="55.51"/><rect class="cls-19" x="552.41" y="244.63" width="192.44" height="55.51"/><rect class="cls-23" x="351.85" y="244.63" width="192.43" height="55.51"/><rect class="cls-29" x="151.28" y="244.63" width="192.44" height="55.51"/><rect class="cls-30" x="-49.28" y="244.63" width="192.44" height="55.51"/><rect class="cls-27" x="1354.68" y="244.63" width="192.43" height="55.51"/><rect class="cls-28" x="1555.25" y="244.63" width="192.43" height="55.51"/><rect class="cls-19" x="1755.82" y="244.63" width="192.44" height="55.51"/><rect class="cls-31" x="1053.83" y="181.78" width="192.43" height="55.51"/><rect class="cls-32" x="853.26" y="181.78" width="192.44" height="55.51"/><rect class="cls-10" x="652.7" y="181.78" width="192.44" height="55.51"/><rect class="cls-20" x="452.13" y="181.78" width="192.44" height="55.51"/><rect class="cls-19" x="251.57" y="181.78" width="192.44" height="55.51"/><rect class="cls-33" x="51" y="181.78" width="192.44" height="55.51"/><rect class="cls-34" x="-131.94" y="181.78" width="174.81" height="55.51"/><rect class="cls-23" x="1254.4" y="181.78" width="192.43" height="55.51"/><rect class="cls-35" x="1454.96" y="181.78" width="192.44" height="55.51"/><rect class="cls-36" x="1655.53" y="181.78" width="192.44" height="55.51"/><rect class="cls-35" x="1856.1" y="181.78" width="192.43" height="55.5"/><rect class="cls-10" x="1053.83" y="433.19" width="192.43" height="55.5"/><rect class="cls-19" x="853.26" y="433.19" width="192.44" height="55.5"/><rect class="cls-37" x="652.7" y="433.19" width="192.44" height="55.5"/><rect class="cls-38" x="452.13" y="433.19" width="192.44" height="55.5"/><rect class="cls-10" x="251.57" y="433.19" width="192.44" height="55.5"/><rect class="cls-39" x="51" y="433.19" width="192.44" height="55.5"/><rect class="cls-40" x="-131.94" y="433.19" width="174.81" height="55.5"/><rect class="cls-19" x="1254.4" y="433.19" width="192.43" height="55.5"/><rect class="cls-21" x="1454.96" y="433.19" width="192.44" height="55.5"/><rect class="cls-19" x="1655.53" y="433.19" width="192.44" height="55.5"/><rect class="cls-35" x="1856.1" y="433.19" width="192.43" height="55.5"/><rect class="cls-25" x="1154.11" y="118.92" width="192.43" height="55.5"/><rect class="cls-10" x="953.55" y="118.92" width="192.43" height="55.5"/><rect class="cls-41" x="752.98" y="118.92" width="192.43" height="55.5"/><rect class="cls-37" x="552.41" y="118.92" width="192.44" height="55.5"/><rect class="cls-19" x="351.85" y="118.92" width="192.43" height="55.5"/><rect class="cls-37" x="151.28" y="118.92" width="192.44" height="55.5"/><rect class="cls-42" x="-49.28" y="118.92" width="192.44" height="55.5"/><rect class="cls-43" x="1354.68" y="118.92" width="192.43" height="55.5"/><rect class="cls-41" x="1555.25" y="118.92" width="192.43" height="55.5"/><rect class="cls-19" x="1755.82" y="118.92" width="192.44" height="55.5"/><rect class="cls-44" x="1025.42" y="747.45" width="165.81" height="55.51"/><rect class="cls-45" x="852.61" y="747.45" width="165.81" height="55.51"/><rect class="cls-46" x="679.79" y="747.45" width="165.81" height="55.51"/><rect class="cls-47" x="506.97" y="747.45" width="165.81" height="55.51"/><rect class="cls-48" x="334.15" y="747.45" width="165.81" height="55.51"/><rect class="cls-49" x="161.33" y="747.45" width="165.81" height="55.51"/><rect class="cls-50" x="-11.49" y="747.45" width="165.81" height="55.51"/><rect class="cls-45" x="1198.25" y="747.45" width="165.81" height="55.51"/><rect class="cls-46" x="1371.06" y="747.45" width="165.81" height="55.51"/><rect class="cls-47" x="1543.88" y="747.45" width="165.81" height="55.51"/><path class="cls-48" d="M1800.32,803H1716.7v-55.5h45.19v35.79Z"/><rect class="cls-51" x="1053.83" y="307.48" width="192.43" height="55.5"/><rect class="cls-52" x="853.26" y="307.48" width="192.44" height="55.5"/><rect class="cls-26" x="652.7" y="307.48" width="192.44" height="55.5"/><rect class="cls-53" x="452.13" y="307.48" width="192.44" height="55.5"/><rect class="cls-54" x="251.57" y="307.48" width="192.44" height="55.5"/><rect class="cls-10" x="51" y="307.48" width="192.44" height="55.5"/><rect class="cls-55" x="-131.94" y="307.48" width="174.81" height="55.5"/><rect class="cls-51" x="1254.4" y="307.48" width="192.43" height="55.5"/><rect class="cls-52" x="1454.96" y="307.48" width="192.44" height="55.5"/><rect class="cls-26" x="1655.53" y="307.48" width="192.44" height="55.5"/><rect class="cls-10" x="1856.1" y="307.48" width="192.43" height="55.51"/><rect class="cls-11" x="1154.11" y="370.33" width="192.43" height="55.5"/><rect class="cls-56" x="953.55" y="370.33" width="192.43" height="55.5"/><rect class="cls-17" x="752.98" y="370.33" width="192.43" height="55.5"/><rect class="cls-57" x="552.41" y="370.33" width="192.44" height="55.5"/><rect class="cls-19" x="351.85" y="370.33" width="192.43" height="55.5"/><rect class="cls-58" x="151.28" y="370.33" width="192.44" height="55.5"/><rect class="cls-59" x="-49.28" y="370.33" width="192.44" height="55.5"/><rect class="cls-19" x="1354.68" y="370.33" width="192.43" height="55.5"/><rect class="cls-10" x="1555.25" y="370.33" width="192.43" height="55.5"/><rect class="cls-19" x="1755.82" y="370.33" width="192.44" height="55.5"/><rect class="cls-60" x="1053.83" y="558.89" width="192.43" height="55.51"/><rect class="cls-10" x="853.26" y="558.89" width="192.44" height="55.51"/><rect class="cls-61" x="652.7" y="558.89" width="192.44" height="55.51"/><rect class="cls-62" x="452.13" y="558.89" width="192.44" height="55.51"/><rect class="cls-63" x="251.57" y="558.89" width="192.44" height="55.51"/><rect class="cls-10" x="51" y="558.89" width="192.44" height="55.51"/><rect class="cls-64" x="-131.94" y="558.89" width="174.81" height="55.51"/><rect class="cls-60" x="1254.4" y="558.89" width="192.43" height="55.51"/><rect class="cls-19" x="1454.96" y="558.89" width="192.44" height="55.51"/><rect class="cls-61" x="1655.53" y="558.89" width="192.44" height="55.51"/><rect class="cls-16" x="1856.1" y="558.89" width="192.43" height="55.51"/><rect class="cls-65" x="1161.08" y="496.04" width="192.43" height="55.5"/><rect class="cls-11" x="960.52" y="496.04" width="192.43" height="55.5"/><rect class="cls-66" x="759.95" y="496.04" width="192.43" height="55.5"/><rect class="cls-67" x="559.38" y="496.04" width="192.44" height="55.5"/><rect class="cls-16" x="358.82" y="496.04" width="192.43" height="55.5"/><rect class="cls-68" x="158.25" y="496.04" width="192.44" height="55.5"/><rect class="cls-69" x="-42.31" y="496.04" width="192.44" height="55.5"/><rect class="cls-11" x="1361.65" y="496.04" width="192.43" height="55.5"/><rect class="cls-11" x="1562.22" y="496.04" width="192.43" height="55.5"/><rect class="cls-67" x="1762.79" y="496.04" width="192.44" height="55.5"/><path class="cls-70" d="M1761.89,740.1V900.91H154.32c.11-2.41.21-4.83.32-7.24l.72-16.66q.25-5.61.49-11.2,1-23.49,2.05-47,.15-3.41.29-6.79c0-.58.05-1.16.08-1.74q.85-19.8,1.73-39.58c0-.58,0-1.16.07-1.73l.33-7.6.3-6.76.63-14.53Z"/><path class="cls-71" d="M2035.4,803l15.81,7.35h-12.73v10.26h-7.74v45.26H1993V936h37.75v28.76l7.74,3.28v12l-7.74,0v11.48H1993v56.65H-251.16V738.73h2281.9v1.37H1993v43.14Q2014.2,793.11,2035.4,803Z"/><line class="cls-72" x1="837.27" y1="735.6" x2="652.92" y2="1175.39"/><line class="cls-72" x1="1108.76" y1="736.56" x2="1248.1" y2="1199.26"/><line class="cls-72" x1="1385.56" y1="738.16" x2="1942.87" y2="1240.92"/><line class="cls-72" x1="270.35" y1="734.15" x2="-0.39" y2="888.8"/><line class="cls-72" x1="-60.35" y1="815.86" x2="2233.4" y2="805.66"/><line class="cls-72" x1="545.96" y1="730.32" x2="211.35" y2="1088.73"/><polygon class="cls-73" points="805.55 812.48 1131.93 809.37 1155.91 900.91 769.84 900.91 805.55 812.48"/><polygon class="cls-73" points="1108.76 738.43 1131.93 813.71 1468.74 813.09 1385.63 738.43 1108.76 738.43"/><polygon class="cls-73" points="835.61 738.24 805.55 812.33 466.63 813.52 544.13 732.5 835.61 738.24"/><path class="cls-73" d="M123.22,814.19,472,813.52l-83.45,85.39-409.91-.66Z"/><path class="cls-73" d="M-82.71,812.8l213.21,1.68c46.62-26.8,93-49,139.58-75.75-64.33,1.34-128.39-2-192.72-.63Z"/><line class="cls-72" x1="2142.14" y1="1003.92" x2="1823.53" y2="807.48"/><polygon class="cls-73" points="1468.74 808.8 1566.39 900.91 1973.13 900.91 1823.53 807.48 1468.74 808.8"/><polygon class="cls-73" points="1904.45 735.46 1904.45 807.48 1823.53 807.48 1713.95 734.09 1904.45 735.46"/><rect class="cls-74" x="-7.4" y="660.45" width="1964.7" height="73.78"/><rect class="cls-75" x="608.41" y="290.34" width="100.56" height="49.29"/><rect class="cls-75" x="663.11" y="235.28" width="125.12" height="46.36"/><rect class="cls-75" x="608.41" y="235.28" width="50.28" height="46.36"/><rect class="cls-75" x="715.91" y="290.34" width="72.32" height="49.29"/><rect class="cls-75" x="1030.37" y="232.5" width="118.15" height="46.36"/><rect class="cls-75" x="978.72" y="232.5" width="47.48" height="46.36"/><rect class="cls-75" x="1080.23" y="287.56" width="68.29" height="49.29"/><rect class="cls-75" x="1302.71" y="287.12" width="94.96" height="49.29"/><rect class="cls-75" x="1354.36" y="232.06" width="118.15" height="46.36"/><rect class="cls-75" x="1302.71" y="232.06" width="47.48" height="46.36"/><rect class="cls-75" x="1404.22" y="287.12" width="68.29" height="49.29"/><rect class="cls-10" x="1198.25" y="496.04" width="55.5" height="55.5"/><rect class="cls-10" x="1253.75" y="496.04" width="6.29" height="55.5"/><rect class="cls-10" x="1195.1" y="118.92" width="55.5" height="55.5"/><rect class="cls-76" x="1250.61" y="118.92" width="6.29" height="55.5"/><rect class="cls-10" x="1455.74" y="56.08" width="55.5" height="55.5"/><rect class="cls-10" x="1511.24" y="56.08" width="6.29" height="55.5"/><rect class="cls-10" x="334.15" y="118.92" width="55.5" height="59.81"/><rect class="cls-10" x="389.65" y="118.92" width="6.29" height="55.5"/><rect class="cls-10" x="1371.06" y="621.74" width="59.37" height="45.71"/><rect class="cls-76" x="1430.44" y="621.74" width="6.73" height="45.71"/><rect class="cls-10" x="511.74" y="496.04" width="59.37" height="57.8"/><rect class="cls-10" x="571.12" y="496.04" width="6.73" height="54.62"/></g><g class="cls-77"><path class="cls-78" d="M2378.57,397.72c-.2,34.22.08,178.52.08,178.52q-738.7-3.45-1476.65-7.13l-.08-130.24,9.17.29.55,12.22h8.23l-.28-19,48.5,1.41v15.81l56.75.33,2.35-212.8,12.59-1.08,15.22,3.4v-2h-2.19v-2.14h1.78V229.7h1v6.11h3.29v-5h1.23V236l2.75,1.07-.27,1.62h-.69v1.44l2.6.36v10.79l9.45-1.09v-2h.56v1.62h2V231.13l11.1-.54v-2.16h1.1v-5.22h-1v-2h3.29v7.9h.83v2.69h7v-4.14h2.74v2.7h-.95l.14,2.33,14,2-.12,27.85,8.5,1.25v3.24l1.5,2L1123,419.1l9.33-.72,5.76.17.55-17.44,6.14-.71v-9.54l26.18-.37v-3.95l19.87-.2V382.4H1193v-23l1.43-1.89V345.55h6v-9.17h2.45v.9h3V322.72l.68.72v2.88l1.65.36v1.07h2l.14-1.8,1.1-.36v1.8l2.86.18.42-1.62,1.65-.18.41,1.62,3.29.17-.15-1.44,1.52.19v1.08h2.73v-2.15l.69-.36L1225,322h1.23l.29,5.38,3.41.18.15-4.14.83.18.4,4,2.47.89.13-4.85h.55l.14,5,2.59.55.55-1.45v-2l1.37.17.14,3.78-.54,1.07.13,8.46,4.53.35.83,8.45.69.18.55,1.43,2.46-.17.12-15.28,1.25.18.41,15.82,12.2.71-1.2,73.68h1.65v1.62l.56.55-.13,2.15-.83.37-.26,15.63,1.64.54v2h-1.1l-.13,5.75,8.77-.18c-.41,0,.28,2.16.28,2.16l4.79.17-.68,2.15-.83.55h-1.23l.56,10.61,1.1.89V481.2h2.05l.87-138.38,13.71-3.08v-8.25l15.76-3.08v-1.26h4.11l.56.9,37.41,2v9.17l15.09,1.43-.28-16.17,5.19-2.16,2.19-29.3,45.92.69,3,30.92,8.51.17-.15-3.41,1.52.17,1.48-24.81,6.18-1.07-.31-49.07,18.23.17,11.65,1.62,0-70.47,8.36-3h4.66V172h.81v2.52l12.48-.54v-3.25h.82v2.88l7.4-.54v1.8h1.51V173.2h9.32l11.38,5,15.62-1.45,4,2.51-1.42,148.46,11.1,2L1554,308l5.89.19V290l15.35-2.17-.43-24.26,1.92-1.45,7.82-1.07V237.15l1.5-1.08s7-1.44,6.58-1.44,20.27-20.49,20.27-20.49h4.11l20.43,20.11,1,.35.27,1.09,6.44,1.42-.13,24.63,9.88,1.62-.11,40.44,19.72.53.56-6.83h1l.27,4.49h1l-.13,2.35,35.35,1.06.14,6.47,11-1.44.39-12.4,7.81-.37,3-10.06.27-4.68h1.77l.7,3.78h3v-.89h3.44v1.07l18.64-2.88v-1.44h-1v-3h5.88v4.67l4.8.19v-2l2.06-2.69,1.78.18v2.69l-1.1.19.56,2,1.1.18.41,3.77-.13,1.43,1-.16v3.41h.81v2.51h8.49l-.64,76.21H1781l-.13,24.44,3.29.37,0,29.65,2.88.17V408.87l1.64-.36.14-5.75,14.4,1.07V402h14.52v1.61H1824l.07-95.6,1-.91,1.8-.18.13-.91,1.38-.34.39-.73,4.25-.18.14-1.07,3-.2V292.92l4.78-3.06,29.49,1.24v-1.25h3.28v1.07l13.7-.19.42,14.75,12.34.17-.45,175.6,2.21-.19.06-119.7,1-.18.14-2.69,8.08.17V361h2.33v-1.44h7.94v1.27h1.38l-.31-62.37,11.24-6.12-.15-10.42,10.14-6.3,30.71.54V281l2-.16,2.59-1.27v-1.61h1.1l.69.9,7.12-.2v-1.79h-.68l-1.58-2.06,1.24-1.61,1.71-2.26h2.06v-5.57h1.49v5.94l17.27-.38v-1.61H2011v2.33l2.33,1.27.14,2-1.79,3.6.29,8.08,1.37,1.09h3.43l-.15.71,1.25.18v11.86H2025v-1.61l1.23-1.63,1.93,1.8.31,59.67,2.06.72V372.8l5.89.53-.13,14.2,2.61.53.27,7.38,1.51.71.14,27.5,1,.18-.08,66.5.53-.18.42-1.79h4.52v1.43c0,.71.42.71.42.71l.13,1.8,8.64-.18-.42-9.88s-1.5-2-2.32-2.16l-.28-1.25h3.29v-1.26l3.14.17v.54l1.1.73.14.53h2.74l.28-.9a3.61,3.61,0,0,1,1.51-1.08c1-.36,1.49,1.44,1.49,1.44h3.16l-.41-11,1.65-.36-.17-42.24,2.61-3.06h8.77l.21-105.87,2.88-.18v-9.7l1.9.18.14,2,1.23-.35-.14-1.8,13,.17,5.62-21.21.27-3.6.55-.72.67-5.75.83,5.75.83,1.08.42,3.24,4.94,22.09,31,.89,4.12.18,4,4.14.3,22.09,1.23.37.55,1.79,1.24.19-.09,78.18h9.59l6.17,5.38-.13,11.32,2.88.54-.14,11,5.09.18,0,32.71h2.45v-4.5l14.53-1.26v-7.72l1.25-1.62h1.91l.27-16.71,5.2-4.51h2.6v-1.61h-1.38V424.83l6.87-4.86,30.57.52v14.56l-1.53,1.8.15,2.87H2253l.14,7-.81.71.53,1.25,9.75,10.25,5.62.18v16h6.57l0,39.54h11.25l-.06-105.86h11.09V407h1.52v2h1.9v-1.62h1.24V409h3.42v-3h.82v2.87l12.89.71v-2.34l1.1-.53.41.53.27,1.45h1.93V405h3v3.25h2v-2H2331v1.8l.56-.17,1.92-2.18C2350.88,403.4,2361.15,400,2378.57,397.72Z"/><path class="cls-79" d="M3897.47,708.31H1880.91V544.68H3895.67Z"/><path class="cls-80" d="M3969,584.25q-305.2-2.5-610.47-5.41-776.34-7.41-1552.56-17.48V538.19l2163,6.49Z"/><path class="cls-81" d="M1920.23,430.8s-6.27-15.41,14.09-141.11,70.49-67.66,78.32,16.17,7.83,169.27,7.83,169.27c-11,112.84-102.06,79.79-101.15,17.73Z"/><rect class="cls-82" x="1899.27" y="627.68" width="2038.44" height="73.44"/><path class="cls-83" d="M1917.7,625.7s-45.23-15,31.47-21.07c0,0-12.8-14.71,12.77-24,0,0,16.07-5.65,38.37.93,0,0,31.48-32,89.48-6.08,0,0,27.11-10.62,57.59-3.33s38.78,26.79,38.78,26.79,32.93-25.38,71.79,1.67c0,0,34.7-11.5,53.1,10.53,0,0,50.83-12.14,75.72,8.92,0,0,72.76-3.37,59,6l-17.11,1.7-500.14.86Z"/><polygon class="cls-8" points="1915.98 761.12 1922.44 769.12 2059.57 769.12 2059.57 761.12 1915.98 761.12"/></g></svg>