<svg xmlns="http://www.w3.org/2000/svg" xmlns:xlink="http://www.w3.org/1999/xlink" viewBox="0 0 1920 900"><defs><style>.cls-1,.cls-38,.cls-40{fill:none;}.cls-2{isolation:isolate;}.cls-3{clip-path:url(#clip-path);}.cls-4{opacity:0.7;}.cls-5{clip-path:url(#clip-path-2);}.cls-6{fill:#fff;}.cls-7{fill:#eae0d0;}.cls-8{fill:#b2a68a;}.cls-9{clip-path:url(#clip-path-3);}.cls-10{clip-path:url(#clip-path-4);}.cls-11{fill:#69b7b7;}.cls-12{fill:#94c920;}.cls-13{fill:#016b29;}.cls-14{fill:url(#radial-gradient);}.cls-15{opacity:0.71;}.cls-16{fill:#ec008c;}.cls-17{fill:#f400f4;}.cls-18{fill:#7ac943;}.cls-19{fill:#a62ca2;}.cls-20{fill:#29abe2;}.cls-21{fill:#ff9cc2;}.cls-22{fill:#fbbe00;}.cls-23{fill:#581600;}.cls-24{fill:#f8af00;}.cls-25{fill:#e84f35;}.cls-26{fill:#ffcd00;}.cls-27{fill:#4e3f87;}.cls-28{fill:#312782;}.cls-29{fill:#89d1f5;}.cls-30{clip-path:url(#clip-path-5);}.cls-31{clip-path:url(#clip-path-6);}.cls-32{fill:#c1bfbf;}.cls-33{fill:#848483;}.cls-34{fill:#98a3b0;}.cls-35{fill:url(#linear-gradient);}.cls-36{fill:#674758;}.cls-37{fill:#c9a5bb;mix-blend-mode:multiply;opacity:0.3;}.cls-38{stroke:#6b2727;stroke-width:0.5px;}.cls-38,.cls-40{stroke-miterlimit:10;}.cls-39{fill:url(#linear-gradient-2);}.cls-40{stroke:#9b8579;stroke-width:0.75px;}.cls-41{fill:#122209;}.cls-42{fill:#595858;}</style><clipPath id="clip-path"><rect class="cls-1" x="-1940" y="-919.97" width="1920" height="899.97"/></clipPath><clipPath id="clip-path-2"><rect class="cls-1" y="-920.91" width="1920" height="901.82"/></clipPath><clipPath id="clip-path-3"><rect class="cls-1" x="-1940" width="1920" height="900"/></clipPath><clipPath id="clip-path-4"><polygon class="cls-1" points="-20 900 -1940 900 -1940 0 -20.81 0 -20 900"/></clipPath><radialGradient id="radial-gradient" cx="2553.04" cy="397.16" r="629.32" gradientTransform="translate(-2869.55 -46.45) scale(1.5 1.25)" gradientUnits="userSpaceOnUse"><stop offset="0.04" stop-color="#de57e5"/><stop offset="0.05" stop-color="#dc56e3"/><stop offset="0.47" stop-color="#941d99"/><stop offset="0.67" stop-color="#78067c"/><stop offset="0.83" stop-color="#69056d"/><stop offset="1" stop-color="#5f0562"/></radialGradient><clipPath id="clip-path-5"><rect class="cls-1" x="1940" width="1920" height="900"/></clipPath><clipPath id="clip-path-6"><rect class="cls-1" x="1933.71" width="1926.29" height="905.46"/></clipPath><linearGradient id="linear-gradient" x1="1665.81" y1="318.39" x2="4213.06" y2="318.39" gradientUnits="userSpaceOnUse"><stop offset="0.59" stop-color="#c44422"/><stop offset="0.59" stop-color="#c74522"/><stop offset="0.59" stop-color="#cf4923"/><stop offset="0.59" stop-color="#dd5125"/><stop offset="0.59" stop-color="#f05a28"/><stop offset="0.7" stop-color="#f15c2b"/><stop offset="0.77" stop-color="#f36233"/><stop offset="0.82" stop-color="#f66d41"/><stop offset="0.86" stop-color="#f9764e"/></linearGradient><linearGradient id="linear-gradient-2" x1="1463.84" y1="695.6" x2="3583.12" y2="695.6" gradientUnits="userSpaceOnUse"><stop offset="0" stop-color="#96a343"/><stop offset="0.05" stop-color="#84a13c"/><stop offset="0.11" stop-color="#719f35"/><stop offset="0.17" stop-color="#679e31"/><stop offset="0.25" stop-color="#639e30"/><stop offset="0.51" stop-color="#2da035"/><stop offset="0.95" stop-color="#96a343"/></linearGradient></defs><g class="cls-2"><g id="Layer_1" data-name="Layer 1"><g class="cls-5"><path class="cls-6" d="M-50.6-1054.41V99.21H2019.49V48.82h38.39V4.3h-38.39V-52h38.39v-9.21l7.87,0v-9.59l-7.87-2.63V-96.53h-38.39v-56.31h38.39v-36.31h7.87v-8.23h12.95l-16.08-5.89-43.13-15.81v-34.61h38.39V-298.2h-38.39v-56.31h38.39V-399h-38.39v-56.31h38.39v-44.52h-38.39v-56.31h38.39V-600.7h-38.39V-657h38.39v-44.52h-38.39v-56.31h38.39v-44.52h-38.39V-909.09h312.27v-145.32ZM2154.86-45.54V-41l7.85,2.63v-7.18Z"/><path class="cls-7" d="M2035.4-117l15.81,7.35h-12.73v10.26h-7.74v45.26H1993V16h37.75V44.77l7.74,3.28V60l-7.74,0V71.51H1993v56.65H-251.16V-181.27h2281.9v1.37H1993v43.14Q2014.2-126.89,2035.4-117Z"/><line class="cls-8" x1="837.27" y1="-184.4" x2="652.92" y2="255.39"/><line class="cls-8" x1="1108.76" y1="-183.44" x2="1248.1" y2="279.26"/><line class="cls-8" x1="1385.56" y1="-181.84" x2="1942.87" y2="320.92"/><line class="cls-8" x1="545.96" y1="-189.68" x2="211.35" y2="168.73"/><line class="cls-8" x1="2142.14" y1="83.92" x2="1823.53" y2="-112.52"/></g><g class="cls-9"><g class="cls-10"><path class="cls-11" d="M55.49,364.49V772l-1241.32-12.2s-83.79-104.83,314-146c193-20,339-273.13,604.09-168.56,13.95-16.16,40.19-45.87,73.45-65.55,69-40.8,144-44.1,181.42-48.53,26-.95,39.18,10.12,70.54,11.27"/><path class="cls-12" d="M-1978.06,730.42s162.22,4.91,537.6,5.12,533-23.37,586.65-26.44,138.31-22.6,322.3-35.81S-177.38,630.7,5.39,697c36.18,13.13-1.86,193-1.86,193l-1981.59-2Z"/><path class="cls-13" d="M15.85,840.15s-133.56-22.64-421,6-628.89,28-778.87,19.66-119.67-49.45-418.84-48.26c-222.25.89-364,9.31-364,9.31l-19.72,105.45,610-9.34L21,931.4Z"/></g></g><rect class="cls-14" width="1920" height="900"/><g class="cls-15"><path class="cls-16" d="M1043.16,700.21c5,0,10-4,10.16-9.13s-4.59-8.75-9.5-8.75-10,4-10.17,9.13,4.59,8.75,9.51,8.75Z"/><path class="cls-17" d="M1248.88,220.87c4.51,0,9-3.58,9.18-8.25s-4.14-7.9-8.58-7.9-9,3.58-9.18,8.25,4.14,7.9,8.58,7.9Z"/><path class="cls-18" d="M696,403.29c4.51,0,9-3.58,9.18-8.25s-4.14-7.9-8.58-7.9-9,3.58-9.18,8.25,4.14,7.9,8.58,7.9Z"/><path class="cls-18" d="M1381.41,296.73c4.51,0,9-3.58,9.18-8.25s-4.14-7.9-8.58-7.9-9,3.58-9.18,8.25,4.14,7.9,8.58,7.9Z"/><path class="cls-19" d="M1042.32,339.55c4.51,0,9-3.58,9.17-8.25s-4.14-7.89-8.58-7.89-9,3.57-9.18,8.24,4.14,7.9,8.59,7.9Z"/><path class="cls-17" d="M1382.07,417.94c4.51,0,9-3.58,9.18-8.25s-4.14-7.89-8.58-7.89-9,3.57-9.18,8.25,4.14,7.89,8.58,7.89Z"/><path class="cls-18" d="M912.18,686.3c4.51,0,9-3.58,9.17-8.25s-4.14-7.9-8.58-7.9-9,3.58-9.18,8.25,4.14,7.9,8.59,7.9Z"/><path class="cls-18" d="M768.85,699.66c4.51,0,9-3.58,9.18-8.25s-4.14-7.9-8.59-7.9-9,3.58-9.17,8.25,4.14,7.9,8.58,7.9Z"/><path class="cls-18" d="M677,432.64a4.17,4.17,0,0,0,4.19-3.77,3.68,3.68,0,0,0-3.92-3.6,4.18,4.18,0,0,0-4.19,3.77,3.68,3.68,0,0,0,3.92,3.6Z"/><path class="cls-17" d="M1240.12,377.78c4.52,0,9-3.58,9.18-8.25s-4.14-7.89-8.58-7.89-9,3.57-9.18,8.24,4.14,7.9,8.58,7.9Z"/><path class="cls-16" d="M1221.19,407.14a4.2,4.2,0,0,0,4.2-3.77,3.69,3.69,0,0,0-3.92-3.61,4.18,4.18,0,0,0-4.2,3.77,3.69,3.69,0,0,0,3.92,3.61Z"/><path class="cls-19" d="M536.69,409.44a4.19,4.19,0,0,0,4.2-3.77,3.7,3.7,0,0,0-3.92-3.61,4.19,4.19,0,0,0-4.2,3.77,3.68,3.68,0,0,0,3.92,3.61Z"/><path class="cls-18" d="M529.41,583.13a4.18,4.18,0,0,0,4.19-3.77,3.69,3.69,0,0,0-3.92-3.61,4.2,4.2,0,0,0-4.2,3.77,3.69,3.69,0,0,0,3.93,3.61Z"/><path class="cls-16" d="M525.18,351.28a4.19,4.19,0,0,0,3.47,4.45,3.68,3.68,0,0,0,3.87-3.65,4.17,4.17,0,0,0-3.46-4.45,3.68,3.68,0,0,0-3.88,3.65Z"/><path class="cls-18" d="M984.89,472.6a4.17,4.17,0,0,0,4.19-3.77,3.69,3.69,0,0,0-3.92-3.61A4.19,4.19,0,0,0,981,469a3.68,3.68,0,0,0,3.92,3.61Z"/><path class="cls-18" d="M788.12,490.82a4.17,4.17,0,0,0,4.19-3.77,3.69,3.69,0,0,0-3.92-3.61,4.19,4.19,0,0,0-4.19,3.77,3.68,3.68,0,0,0,3.92,3.61Z"/><path class="cls-18" d="M1050.74,369.77a4.18,4.18,0,0,0,4.2-3.77,3.7,3.7,0,0,0-3.92-3.61,4.19,4.19,0,0,0-4.2,3.77,3.68,3.68,0,0,0,3.92,3.61Z"/><path class="cls-16" d="M742.91,725.33a4.18,4.18,0,0,0,4.19-3.77,3.69,3.69,0,0,0-3.92-3.61,4.18,4.18,0,0,0-4.19,3.77,3.68,3.68,0,0,0,3.92,3.61Z"/><path class="cls-16" d="M751.41,200.61a4.17,4.17,0,0,0,4.19-3.77,3.68,3.68,0,0,0-3.92-3.6,4.18,4.18,0,0,0-4.19,3.77,3.68,3.68,0,0,0,3.92,3.6Z"/><path class="cls-19" d="M899.59,665.81a4.18,4.18,0,0,0,4.2-3.76,3.68,3.68,0,0,0-3.92-3.61,4.19,4.19,0,0,0-4.2,3.77,3.68,3.68,0,0,0,3.92,3.6Z"/><path class="cls-18" d="M1348.91,335.91c-4.47.56-8.49,4.67-8.07,9.33s5.09,7.32,9.5,6.77,8.49-4.68,8.07-9.33-5.09-7.32-9.5-6.77Z"/><path class="cls-19" d="M1364,354.67a4.17,4.17,0,0,0-3.69,4.26,3.69,3.69,0,0,0,4.34,3.09,4.18,4.18,0,0,0,3.69-4.26,3.68,3.68,0,0,0-4.34-3.09Z"/><path class="cls-18" d="M1343.77,397.23a4.18,4.18,0,0,0-3.69,4.26,3.69,3.69,0,0,0,4.34,3.09,4.18,4.18,0,0,0,3.69-4.26,3.69,3.69,0,0,0-4.34-3.09Z"/><path class="cls-16" d="M626.43,200.89c3.55-2.78,4.87-8.37,2.12-12.15s-8.13-3.66-11.62-.92-4.88,8.38-2.13,12.16,8.13,3.65,11.63.91Z"/><path class="cls-18" d="M603.89,192.55a4.19,4.19,0,0,0,1-5.55,3.7,3.7,0,0,0-5.32-.42,4.19,4.19,0,0,0-1,5.55,3.7,3.7,0,0,0,5.32.42Z"/><path class="cls-19" d="M1321.6,183.29a5.34,5.34,0,0,0,7-1.86c1.36-2.45-.06-5.22-2.38-6.39a5.34,5.34,0,0,0-7,1.86c-1.36,2.45.06,5.22,2.38,6.39Z"/><path class="cls-19" d="M1142.52,266.2a4.17,4.17,0,0,0,4.19-3.77,3.68,3.68,0,0,0-3.92-3.6,4.18,4.18,0,0,0-4.19,3.77,3.68,3.68,0,0,0,3.92,3.6Z"/><path class="cls-18" d="M844.13,299.34c2.94,0,5.86-2.32,6-5.36s-2.69-5.14-5.58-5.14-5.86,2.33-6,5.37,2.69,5.13,5.58,5.13Z"/><path class="cls-18" d="M850.73,319.68a4.19,4.19,0,0,0,4.2-3.77,3.7,3.7,0,0,0-3.93-3.6,4.18,4.18,0,0,0-4.19,3.77,3.68,3.68,0,0,0,3.92,3.6Z"/><path class="cls-20" d="M796,520.52a5.5,5.5,0,0,0,5.51-4.95c.1-2.87-2.49-4.74-5.15-4.74a5.49,5.49,0,0,0-5.5,4.95c-.11,2.87,2.48,4.74,5.14,4.74Z"/><path class="cls-18" d="M520.9,450.74a5.5,5.5,0,0,0,5.51-4.95c.1-2.87-2.49-4.73-5.15-4.73a5.48,5.48,0,0,0-5.5,4.94c-.11,2.87,2.48,4.74,5.14,4.74Z"/><path class="cls-18" d="M1353.22,235.17a4.19,4.19,0,0,0,4.19-3.77,3.68,3.68,0,0,0-3.92-3.61,4.2,4.2,0,0,0-4.2,3.77,3.7,3.7,0,0,0,3.93,3.61Z"/><path class="cls-18" d="M1267,190.77a4.17,4.17,0,0,0,4.19-3.77,3.69,3.69,0,0,0-3.92-3.61,4.19,4.19,0,0,0-4.19,3.77,3.68,3.68,0,0,0,3.92,3.61Z"/><path class="cls-18" d="M1131.19,246.43c4.51,0,9-3.58,9.17-8.25s-4.14-7.9-8.58-7.9-9,3.58-9.18,8.25,4.14,7.9,8.59,7.9Z"/><path class="cls-18" d="M574,256.56c2.69-12.11,3.36-22.2,6.67-33.8,2.53,7.43,9.43,33,9.43,33s26.36,2.22,33.73,3.12c-11.49,5.09-34.7,10.47-34.7,10.47s-3,16.82-7.06,31.62A240.47,240.47,0,0,1,575.38,270s-22.2-2-35.65-6.06C551.16,261.27,560.58,259.25,574,256.56Z"/><path class="cls-16" d="M546.31,296.13c1.1-4.94,1.37-9.05,2.72-13.78,1,3,3.85,13.45,3.85,13.45s10.74.9,13.75,1.27c-4.68,2.07-14.15,4.27-14.15,4.27s-1.23,6.85-2.88,12.89a97.64,97.64,0,0,1-2.74-12.62s-9.05-.82-14.53-2.47C537,298.05,540.83,297.22,546.31,296.13Z"/><path class="cls-18" d="M717.18,174.13c1.1-4.93,1.37-9,2.72-13.78,1,3,3.85,13.45,3.85,13.45s10.74.91,13.75,1.27c-4.69,2.08-14.15,4.27-14.15,4.27s-1.23,6.86-2.88,12.89a97.69,97.69,0,0,1-2.74-12.61s-9.05-.83-14.54-2.47C707.86,176.05,711.7,175.23,717.18,174.13Z"/><path class="cls-18" d="M776.34,302.23c.82-3.7,1-6.78,2-10.32.77,2.27,2.87,10.07,2.87,10.07s8,.68,10.3.95a79.75,79.75,0,0,1-10.59,3.2s-.92,5.14-2.16,9.65a74.26,74.26,0,0,1-2-9.44,71.21,71.21,0,0,1-10.89-1.85C769.36,303.67,772.23,303.05,776.34,302.23Z"/><path class="cls-19" d="M988.53,188.38c1.1-4.94,1.38-9,2.72-13.78,1,3,3.85,13.45,3.85,13.45s10.74.9,13.75,1.27c-4.68,2.07-14.14,4.27-14.14,4.27s-1.24,6.85-2.88,12.89a98.73,98.73,0,0,1-2.75-12.62s-9.05-.82-14.53-2.47C979.21,190.3,983.05,189.47,988.53,188.38Z"/><path class="cls-16" d="M1140.36,702.16c1.76-7.89,2.19-14.46,4.35-22,1.65,4.84,6.14,21.5,6.14,21.5s17.18,1.45,22,2c-7.48,3.32-22.61,6.82-22.61,6.82s-2,11-4.6,20.6a156,156,0,0,1-4.38-20.16s-14.47-1.31-23.23-3.94C1125.46,705.23,1131.6,703.92,1140.36,702.16Z"/><path class="cls-18" d="M1209.93,746.84c1.76-7.89,2.2-14.46,4.35-22,1.65,4.84,6.14,21.49,6.14,21.49s17.18,1.45,22,2c-7.48,3.31-22.6,6.82-22.6,6.82s-2,11-4.61,20.6a158.07,158.07,0,0,1-4.38-20.16s-14.46-1.32-23.23-4C1195,749.91,1201.17,748.59,1209.93,746.84Z"/><path class="cls-18" d="M1357.79,642.39c1.41-6.38,1.77-11.69,3.51-17.79,1.33,3.91,5,17.36,5,17.36s13.87,1.17,17.75,1.64c-6,2.68-18.26,5.51-18.26,5.51s-1.59,8.85-3.72,16.64a128,128,0,0,1-3.54-16.28s-11.68-1.07-18.76-3.19C1345.75,644.86,1350.71,643.8,1357.79,642.39Z"/><path class="cls-18" d="M659.51,695.68c1.75-7.84,2.18-14.37,4.32-21.88,1.64,4.81,6.11,21.36,6.11,21.36s17.06,1.44,21.84,2c-7.44,3.29-22.47,6.78-22.47,6.78s-2,10.89-4.57,20.47a155.13,155.13,0,0,1-4.35-20s-14.38-1.3-23.09-3.92C644.71,698.73,650.8,697.42,659.51,695.68Z"/><path class="cls-18" d="M472,345.66c1.67-7.52,2.09-13.78,4.15-21,1.57,4.61,5.85,20.48,5.85,20.48s16.36,1.38,20.94,1.93c-7.13,3.16-21.54,6.51-21.54,6.51S479.48,364,477,373.22A148.3,148.3,0,0,1,472.8,354s-13.78-1.25-22.13-3.76C457.77,348.58,463.61,347.33,472,345.66Z"/><path class="cls-18" d="M1273.9,314.57c.3-3.52-.34-7.19-.79-10.67q-.4-3-.88-6c5.26-1.44,10.51-2.86,15.79-4.19a1.68,1.68,0,0,0,1.1-1.35,1.81,1.81,0,0,0-1-1.85,74.15,74.15,0,0,0-10-4.44q-3-1.19-5.94-2.29c.13-2,.23-3.92.32-5.88a83.59,83.59,0,0,0,0-11.63,1.78,1.78,0,0,0-3.1-.93c-3.53,4.37-6.86,8.86-10.91,12.77-5.61.09-11.22-.5-16.82-.68a1.74,1.74,0,0,0-1.36,3.05c4,3.58,7.56,7.54,11.44,11.21-3.56,4.27-6.88,8.73-10.19,13.19a1.76,1.76,0,0,0,2,2.73,168.17,168.17,0,0,0,16.56-5.78c3.44,4.58,6.92,9.15,10.64,13.5C1271.65,316.35,1273.76,316.23,1273.9,314.57Zm-13.83-16.48c-4.15,1.58-8.33,3.25-12.57,4.66,2.58-3.43,5.21-6.83,8-10.1a1.76,1.76,0,0,0-.26-2.45c-3.21-2.93-6.2-6.1-9.29-9.15,4.48.25,9,.58,13.46.47a1.51,1.51,0,0,0,1.14-.6l0,0a87.5,87.5,0,0,0,8.63-9.73c0,2.06-.11,4.11-.19,6.15-.11,2.44-.24,4.88-.41,7.32a1.78,1.78,0,0,0,1,1.85c2.3.84,4.59,1.72,6.86,2.62,2,.79,4,1.56,6,2.42-4.29,1.12-8.57,2.29-12.84,3.46a1.71,1.71,0,0,0-1.11,1.8c.4,2.41.76,4.84,1.08,7.26.23,1.72.44,3.44.6,5.16-2.76-3.44-5.42-7-8.07-10.5A1.79,1.79,0,0,0,1260.07,298.09Z"/><path class="cls-16" d="M950.76,240.45a6.16,6.16,0,0,0,2.17-4l.24-7.17c0-1.39.73-1.66,1.62-.59l4.71,5.71a4.38,4.38,0,0,0,4.1,1.26l7.25-1.76c1.35-.34,1.73.26.84,1.33l-4.12,5.07a2.65,2.65,0,0,0,.17,3.64l5.45,5.25c1,1,.7,1.58-.68,1.38l-7.71-1.19A4.09,4.09,0,0,0,961,251.2L956.77,258c-.73,1.19-1.32,1-1.32-.37l-.19-8.15a2.67,2.67,0,0,0-2.53-2.65l-7.28-.35c-1.39-.06-1.6-.77-.46-1.57Z"/><path class="cls-17" d="M853.71,239.8a5,5,0,0,0,1.77-3.3l.2-5.87c0-1.13.59-1.35,1.32-.48l3.86,4.67a3.61,3.61,0,0,0,3.34,1l5.93-1.45c1.11-.28,1.42.21.69,1.09l-3.37,4.15a2.17,2.17,0,0,0,.14,3l4.46,4.29c.82.78.57,1.29-.56,1.12l-6.3-1a3.35,3.35,0,0,0-3.09,1.52l-3.48,5.54c-.59,1-1.08.83-1.08-.3l-.15-6.67a2.19,2.19,0,0,0-2.07-2.16l-6-.29c-1.14-.05-1.31-.63-.38-1.29Z"/><path class="cls-20" d="M849.89,711.16c6.12-6.68,8.16-17.33,3.73-25.43a15.22,15.22,0,0,0-10-7.55,17.11,17.11,0,0,0-11.68,2.07c-7.32,4.12-12.7,13.71-7.88,21.66a12.77,12.77,0,0,0,10.4,5.87,13.1,13.1,0,0,0,11.53-6.49,10.43,10.43,0,0,0,1-7.78,7.11,7.11,0,0,0-6.07-4.88,7.51,7.51,0,0,0-7.58,4.09,6.14,6.14,0,0,0,1.74,7.72c1.4,1.15,4.35-1.62,2.72-3a3.56,3.56,0,0,1-1-4.59,1.88,1.88,0,0,1,1.27-.89,4.33,4.33,0,0,1,2.86.45c3.43,1.62,3.27,6.53,1.32,9a8.55,8.55,0,0,1-10.06,2.22,10.39,10.39,0,0,1-6.34-9.2,11.94,11.94,0,0,1,1.3-5.47,14.68,14.68,0,0,1,3.16-4.15,13.58,13.58,0,0,1,9.7-3.61c4.07.14,7.6,2.71,9.79,6,2.42,3.66,2.89,8.27,2.23,12.51a19,19,0,0,1-4.65,9.82c-.54.59-1,1.73-.1,2.27a2.26,2.26,0,0,0,2.62-.7Z"/><path class="cls-19" d="M906.75,725.62c-8.82,4.47-15,14.56-13.61,24.53a16.68,16.68,0,0,0,7.36,11.58,18.69,18.69,0,0,0,12.73,2.38c9.06-1.39,18.24-9.11,16.38-19.07a13.94,13.94,0,0,0-8.36-10A14.35,14.35,0,0,0,907,737.22a11.4,11.4,0,0,0-4.05,7.55,7.75,7.75,0,0,0,4.32,7.31,8.16,8.16,0,0,0,9.31-1.26,6.68,6.68,0,0,0,1.2-8.54c-1-1.72-5.06,0-3.92,2a3.88,3.88,0,0,1-.75,5.07,2,2,0,0,1-1.63.43,4.8,4.8,0,0,1-2.75-1.57c-2.88-3-.83-7.92,2.13-9.72,3.54-2.15,8.17-1.21,11.12,1.61a11.34,11.34,0,0,1,2.93,11.84,12.94,12.94,0,0,1-3.43,5.07,16,16,0,0,1-4.82,3,14.8,14.8,0,0,1-11.3,0c-4.1-1.71-6.72-5.7-7.68-9.91-1.07-4.66.23-9.55,2.54-13.63a20.83,20.83,0,0,1,8.53-8.24c.77-.39,1.64-1.4,1-2.27s-2.08-.73-2.94-.3Z"/><path class="cls-17" d="M622.25,550.08c10.79,3.64,24.07.57,31.13-8.64a19.19,19.19,0,0,0,3.56-15.4,21.51,21.51,0,0,0-8.32-12.38c-8.47-6.32-22.22-7.62-28.91,2a16.05,16.05,0,0,0-1.45,15,16.45,16.45,0,0,0,13.33,9.95,13.07,13.07,0,0,0,9.47-2.77,8.93,8.93,0,0,0,2.52-9.45,9.42,9.42,0,0,0-8.56-6.63,7.72,7.72,0,0,0-8,5.92c-.61,2.19,4.08,4.17,4.79,1.62a4.48,4.48,0,0,1,4.77-3.48,2.35,2.35,0,0,1,1.68,1,5.48,5.48,0,0,1,.93,3.51c-.11,4.78-5.84,7.09-9.7,6.11-4.63-1.17-7.6-5.73-7.66-10.43a13,13,0,0,1,7.35-12,14.91,14.91,0,0,1,6.94-1.28,18.34,18.34,0,0,1,6.38,1.51,17.1,17.1,0,0,1,9.09,9.31c1.9,4.75.75,10.13-1.93,14.32-3,4.64-8,7.53-13.25,8.93a24,24,0,0,1-13.65-.35c-.95-.32-2.48-.22-2.66,1s1.09,2.3,2.14,2.65Z"/><path class="cls-16" d="M590.12,641.82c-4,4.11-5.43,10.79-2.77,16a9.58,9.58,0,0,0,6.21,4.92A10.8,10.8,0,0,0,601,661.6c4.68-2.48,8.23-8.44,5.32-13.53a8.05,8.05,0,0,0-6.47-3.87,8.29,8.29,0,0,0-7.38,3.91,6.56,6.56,0,0,0-.77,4.89,4.48,4.48,0,0,0,3.74,3.17,4.73,4.73,0,0,0,4.85-2.46,3.87,3.87,0,0,0-1-4.89c-.86-.75-2.77.95-1.77,1.82a2.25,2.25,0,0,1,.56,2.92,1.21,1.21,0,0,1-.81.54,2.76,2.76,0,0,1-1.8-.33c-2.14-1.08-2-4.17-.69-5.71a5.41,5.41,0,0,1,6.38-1.24,6.55,6.55,0,0,1,3.85,5.91,7.55,7.55,0,0,1-.91,3.42,9.21,9.21,0,0,1-2.06,2.57,8.6,8.6,0,0,1-6.17,2.12,8,8,0,0,1-6.08-4,11.17,11.17,0,0,1-1.2-7.93,11.94,11.94,0,0,1,3.09-6.11c.35-.36.63-1.08.1-1.43a1.41,1.41,0,0,0-1.66.4Z"/><path class="cls-20" d="M659.7,464.82c-4,4.11-5.43,10.79-2.77,16a9.58,9.58,0,0,0,6.21,4.92,10.77,10.77,0,0,0,7.4-1.11c4.69-2.48,8.23-8.44,5.33-13.53a8.05,8.05,0,0,0-6.47-3.87,8.28,8.28,0,0,0-7.38,3.91,6.6,6.6,0,0,0-.78,4.89,4.5,4.5,0,0,0,3.75,3.17,4.73,4.73,0,0,0,4.85-2.46,3.88,3.88,0,0,0-1-4.89c-.87-.75-2.77.95-1.77,1.82a2.26,2.26,0,0,1,.56,2.92,1.21,1.21,0,0,1-.82.54,2.74,2.74,0,0,1-1.79-.33c-2.14-1.08-2-4.17-.69-5.71a5.4,5.4,0,0,1,6.38-1.24,6.55,6.55,0,0,1,3.85,5.91,7.55,7.55,0,0,1-.91,3.42,9.21,9.21,0,0,1-2.06,2.57,8.6,8.6,0,0,1-6.17,2.12,8,8,0,0,1-6.08-3.95,11.17,11.17,0,0,1-1.2-7.93,11.94,11.94,0,0,1,3.09-6.11c.35-.36.63-1.08.1-1.43a1.4,1.4,0,0,0-1.66.4Z"/><path class="cls-16" d="M538,510.32a5.38,5.38,0,0,0-5.4.22,5.16,5.16,0,0,0-1,.84,6.47,6.47,0,0,1-1-1.52,5.58,5.58,0,0,1-.45-3.48,2.13,2.13,0,0,1,.13-.45,7.53,7.53,0,0,0,4.56,1.56c1.85,0,4.67-1,3.88-3.39-.65-2-3.39-2.1-5.06-1.86a9.11,9.11,0,0,0-3.06,1,6.88,6.88,0,0,1-.76-1.68,7.19,7.19,0,0,1-.26-2.95c.41.2.82.39,1.23.55,2.41,1,5.43,1.12,7.58-.55,1.47-1.15,2-3.2.52-4.59-1.79-1.73-5-1.66-7.16-.82a6.44,6.44,0,0,0-3.16,2.57,7,7,0,0,1-1.89-2.44c-.38-.86-2.45-.24-2.1.57a9,9,0,0,0,3.18,3.65,8.23,8.23,0,0,0,.81,6.48c.11.19.24.38.37.56a4.22,4.22,0,0,0-.71,1.24A6.68,6.68,0,0,0,530,512.6a4.6,4.6,0,0,0,.52.47c-1.3,3.32.46,8.08,2.43,10.59.54.69,2.55-.1,1.93-.89a12.37,12.37,0,0,1-2.64-7.66,7.61,7.61,0,0,1,.11-1.07,7,7,0,0,0,4.9-.52,2.74,2.74,0,0,0,1.67-1.7A1.55,1.55,0,0,0,538,510.32Zm-7.39-14.49a4.63,4.63,0,0,1,5.27-1.51c1.58.49,2.38,2.19,1.19,3.4a3.52,3.52,0,0,1-2.51.77,9.36,9.36,0,0,1-3.74-1.21c-.26-.13-.51-.28-.77-.44A5.88,5.88,0,0,1,530.62,495.83Zm1,8.46c1.24-.7,3.48-1.24,4.63-.14a1.48,1.48,0,0,1,.44.88,1.35,1.35,0,0,1,0,.49c0,.15-.07.17-.18.29.13-.13-.07.05-.1.07h0l-.08,0,0,0-.07,0L536,506a4.42,4.42,0,0,1-1.45,0,5.47,5.47,0,0,1-3-1.61Zm4.85,8a3,3,0,0,1-.54.26,3.51,3.51,0,0,1-3.05-.11,3.39,3.39,0,0,1,.58-.73,2.26,2.26,0,0,1,.83-.49,2.42,2.42,0,0,1,1-.11,1.76,1.76,0,0,1,1.43.72c0-.07,0,.14,0,.1s0,.07,0,.1-.06.12,0,0C536.62,512.28,536.68,512.19,536.49,512.32Z"/><path class="cls-16" d="M677.91,613.25a5.38,5.38,0,0,0-5.4.23,5.13,5.13,0,0,0-1,.83,6.26,6.26,0,0,1-1-1.51,5.61,5.61,0,0,1-.45-3.49,3.74,3.74,0,0,1,.12-.45,7.57,7.57,0,0,0,4.56,1.56c1.86,0,4.68-1,3.89-3.39-.65-1.95-3.39-2.1-5.06-1.85a9,9,0,0,0-3.06,1,6.61,6.61,0,0,1-.76-1.67,7.07,7.07,0,0,1-.26-3c.41.21.82.39,1.23.56,2.41,1,5.43,1.11,7.58-.56,1.47-1.15,2-3.2.52-4.59-1.79-1.73-5-1.66-7.16-.82a6.45,6.45,0,0,0-3.16,2.57,6.82,6.82,0,0,1-1.89-2.43c-.38-.87-2.45-.25-2.1.56a8.82,8.82,0,0,0,3.18,3.65,8.23,8.23,0,0,0,.81,6.48c.11.19.24.38.37.56a4.35,4.35,0,0,0-.71,1.24,6.67,6.67,0,0,0,1.72,6.77c.17.17.35.32.52.46-1.3,3.32.46,8.08,2.44,10.6.54.68,2.55-.11,1.93-.89a12.42,12.42,0,0,1-2.64-7.66,6.48,6.48,0,0,1,.11-1.08,7,7,0,0,0,4.9-.51,2.78,2.78,0,0,0,1.67-1.7A1.57,1.57,0,0,0,677.91,613.25Zm-7.39-14.48a4.6,4.6,0,0,1,5.27-1.51c1.58.48,2.38,2.18,1.19,3.39a3.47,3.47,0,0,1-2.51.77,9.44,9.44,0,0,1-3.75-1.2l-.76-.44A5.88,5.88,0,0,1,670.52,598.77Zm1,8.45c1.23-.7,3.48-1.24,4.63-.14a1.54,1.54,0,0,1,.44.88,1.34,1.34,0,0,1,0,.49.46.46,0,0,1-.17.29c.12-.13-.08.06-.1.07l0,0-.08,0-.05,0-.07,0-.21.06a4.42,4.42,0,0,1-1.45,0,5.38,5.38,0,0,1-3-1.61Zm4.85,8a2,2,0,0,1-.55.26,3.49,3.49,0,0,1-3-.11,4,4,0,0,1,.57-.73,2.34,2.34,0,0,1,.83-.49,2.43,2.43,0,0,1,1-.1,1.71,1.71,0,0,1,1.43.71c0-.07,0,.14,0,.1a.36.36,0,0,1,0,.1c0,.06-.07.12,0,0C676.52,615.21,676.58,615.13,676.39,615.25Z"/><circle class="cls-17" cx="675.97" cy="244.02"/><path class="cls-17" d="M694.91,201.68a2.36,2.36,0,0,0-3-.54,72.84,72.84,0,0,1-10.09,5.34,27.33,27.33,0,0,0-13.22-4.12c-3.57-.16-12.48,1.29-11,6.83.6,2.18,3,3.22,4.91,3.82,3.23,1,6.91.58,10.18.05a44.05,44.05,0,0,0,8-2.12c2.67,2.17,4.67,5.13,3.79,8.6a12.65,12.65,0,0,1-1.93,4.1,14.89,14.89,0,0,0-3.8-1.07,22.32,22.32,0,0,0-7.34.06c-1.81.3-3.94.87-5.25,2.24a3.46,3.46,0,0,0,.1,5.13,10.08,10.08,0,0,0,7.23,2.91,14.33,14.33,0,0,0,9.12-3.61A12.35,12.35,0,0,1,683.92,241a5.12,5.12,0,0,1-.79,1.28,7.37,7.37,0,0,0-7.11-2.84c-3.33.62-6.21,4.61-3.37,7.45,1.56,1.57,4.39,1.51,6.39,1.25a16.93,16.93,0,0,0,2-.39,12.62,12.62,0,0,1,.26,4.56c-.49,5.38-2.94,10.36-3.76,15.68-.39,2.54,4.14,2.18,4.5-.18,1-6.29,4.23-12.17,3.82-18.68a11.88,11.88,0,0,0-.74-3.35,8.42,8.42,0,0,0,1-.95c3.39-3.65,3.77-9.08,2.29-13.67a14.31,14.31,0,0,0-2.77-5,19,19,0,0,0,1.76-2.68,11.67,11.67,0,0,0,1.51-7.88,12.82,12.82,0,0,0-3.86-6.43,79.76,79.76,0,0,0,8.85-4.81C694.86,203.77,695.59,202.71,694.91,201.68Zm-18.93,42Zm2.31.73a5.58,5.58,0,0,1-2-.16l-.21-.07s0,0-.12-.14v0a.08.08,0,0,0,0,0l0,0,0,0,0-.07v0a.49.49,0,0,0,0,.12c.29.24,0-.22,0-.14v0a.25.25,0,0,1,0-.08l.06-.17c-.08.18,0,0,.14-.17,0,0,.37-.28.27-.24l.06,0,0,0,.24-.06h.31c-.66,0,.65.18.2,0a6.68,6.68,0,0,1,.74.33,5.75,5.75,0,0,1,1.07.89ZM669.53,227Zm-.1.17h0l0,0Zm1.45,1.06a8.17,8.17,0,0,1-1.17-.94.62.62,0,0,1-.15-.22h0c.24-.12.73-.34.66-.32a11.46,11.46,0,0,1,1.42-.39,18.1,18.1,0,0,1,6,0,10.28,10.28,0,0,1,1.93.48,9.94,9.94,0,0,1-5.84,2.29A5,5,0,0,1,670.88,228.25Zm.6-18.77c-2.67.39-5.79.65-8.32-.49a2.68,2.68,0,0,1-.85-.55s-.29-.42-.29-.35l-.06-.19c0,.06,0,0,0-.11a.62.62,0,0,0,0-.1c0,.07.36-.44.06-.14a1.78,1.78,0,0,1,.8-.55,5.93,5.93,0,0,1,1.31-.45,14.8,14.8,0,0,1,4.45-.37,21.49,21.49,0,0,1,7.53,2l.37.16A37.28,37.28,0,0,1,671.48,209.48Z"/><path class="cls-16" d="M1303.31,579.92a8.91,8.91,0,0,0-12.35-.68,12.47,12.47,0,0,0-4.33,7.59,12,12,0,0,0-9.51.65,9.82,9.82,0,0,0-4.71,12.15c1.59,4.69,6.31,7.1,10.81,8.27,4.66,1.21,9.45,1.43,14.23,1.76h.59a2.76,2.76,0,0,0,2.63-1.56,2.34,2.34,0,0,0,.09-.24C1303.66,599.39,1310.9,587.87,1303.31,579.92Zm-25.25,19.77a8,8,0,0,1-1.18-5.21,5.31,5.31,0,0,1,2.16-3.67,5.09,5.09,0,0,1,3.27-.84,8.06,8.06,0,0,1,4.84,2.5c1.43,1.39,4.68-.18,4.38-2.15-.48-3.13.49-6.82,3-8.82a3.34,3.34,0,0,1,1.2-.62,2,2,0,0,1,1,0c1.79.51,3,2.2,3.94,3.72,1.88,3.26.76,7.72-.3,11s-2.59,6.68-3.84,10a76.15,76.15,0,0,1-9.16-1C1283.88,604,1280.12,602.75,1278.06,599.69Z"/><path class="cls-20" d="M1103.34,199.06c-8.09-1.94-22.57-4.59-24.59-14-2.32-11.23,11.06-15.59,17.38-6.7,0-10.13,11.3-17,16.75-6.49C1117.17,180.13,1107.56,191.07,1103.34,199.06Z"/><path class="cls-20" d="M1173.54,189.65c-1.85-5.07-5.62-13.85-1.28-18.31,5.24-5.29,12.41.39,9.87,7,5.48-3.64,13.22,0,9.53,6.73C1188.75,190.34,1179.38,189.07,1173.54,189.65Z"/><path class="cls-17" d="M998.52,769.28c-6.37.94-17.52,3.23-21.69-2.91-4.91-7.39,3.43-14.39,10.54-9.83-2.92-7.27,3.2-15.43,10.14-9.51C1003,751.69,999.24,762.32,998.52,769.28Z"/><path class="cls-17" d="M858.2,497.66c-6.36.94-17.52,3.23-21.68-2.91-4.91-7.39,3.43-14.39,10.54-9.83-2.93-7.27,3.2-15.43,10.14-9.51C862.65,480.07,858.92,490.7,858.2,497.66Z"/><path class="cls-16" d="M962.66,741c-2.18-4.46-6.47-12.12-2.93-16.62,4.29-5.33,11.38-.83,9.69,5.45,4.66-3.84,12.08-1.25,9.35,5.24C976.62,740.18,967.94,739.92,962.66,741Z"/><path class="cls-20" d="M944.26,721.74c-2.19-.29-6.09-.59-6.88-3-.93-2.9,2.49-4.42,4.4-2.25-.28-2.67,2.51-4.79,4.24-2.18C947.38,716.36,945.15,719.52,944.26,721.74Z"/><path class="cls-20" d="M607.31,460c-9.43-.65-26.06-.87-30.11-11-4.72-12.15,9.45-19.57,18.22-10.8-1.91-11.36,9.44-21.14,17.54-10.46C619.33,436.14,610.54,450.23,607.31,460Z"/><path class="cls-21" d="M607.31,460c-8.13-1.83-21.22-3.35-24.32-11.1-3.62-9.31,8.31-12.33,15-5.6-1.46-8.71,4.88-16,10.44-13C616.67,434.81,609.47,451.42,607.31,460Z"/><path class="cls-18" d="M1181.35,257.33c.87-8.45,1.59-23.4,10.81-26.72,11.07-3.87,17.29,9.1,9.14,16.71,10.26-1.37,18.7,9.15,8.85,16.09C1202.4,268.87,1190,260.53,1181.35,257.33Z"/><path class="cls-21" d="M1181.35,257.33c1.89-7.25,3.66-19,10.73-21.51,8.48-3,10.82,7.85,4.57,13.68,7.87-1,14.22,4.88,11.31,9.79C1203.68,266.53,1189,259.54,1181.35,257.33Z"/><path class="cls-18" d="M1058.39,682.05a17.61,17.61,0,0,0-10.21-6.34,20.21,20.21,0,0,0-19.12,5.39,2.83,2.83,0,0,0-2,1.37,25.17,25.17,0,0,0-1,2.76,18.42,18.42,0,0,0-1,2.26c-.16.46-.31.92-.46,1.38a1,1,0,0,0,.69,1.24,15.84,15.84,0,0,0,1.46,7.23,18.09,18.09,0,0,0,9.93,9,18.38,18.38,0,0,0,14.08-.38,18.15,18.15,0,0,0,9.73-11.85A14,14,0,0,0,1058.39,682.05Zm-5.78,17.76a15.06,15.06,0,0,1-1.77,1.89,17.77,17.77,0,0,1-1.6,1.11,8.48,8.48,0,0,1-3.73,1.13,12.24,12.24,0,0,1-4-.36,14.33,14.33,0,0,1-4.4-2c-5.58-3.63-7.46-10.19-5.85-16.29a14.15,14.15,0,0,1,2-2.78,11.09,11.09,0,0,1,4.52-3.06l0,0,.19-.06c.23-.08.46-.14.7-.21l.71-.17.4-.08c.43-.07.85-.11,1.28-.15l.73,0h.53a14.38,14.38,0,0,1,5.48,1.17,12.83,12.83,0,0,1,7.31,7.41C1056.57,691.5,1055.27,696.38,1052.61,699.81Z"/><path class="cls-16" d="M1308,471.85c-3.94-5.4-10.32-8.91-16.73-10.4-11.5-2.67-23.56.71-31.35,8.84a4.66,4.66,0,0,0-3.26,2.24,39.54,39.54,0,0,0-1.61,4.54,29.57,29.57,0,0,0-1.64,3.71c-.27.74-.51,1.5-.75,2.25-.31,1,.29,1.64,1.13,2a26,26,0,0,0,2.39,11.84,29.72,29.72,0,0,0,16.27,14.8,30.18,30.18,0,0,0,23.1-.63c8-3.58,13.6-11.08,15.94-19.42A23,23,0,0,0,1308,471.85ZM1298.53,501a25.08,25.08,0,0,1-2.91,3.1,26.45,26.45,0,0,1-2.62,1.81,13.77,13.77,0,0,1-6.11,1.86,20,20,0,0,1-6.56-.59,23.55,23.55,0,0,1-7.22-3.27c-9.14-5.95-12.23-16.7-9.59-26.7a23.83,23.83,0,0,1,3.23-4.56,18.24,18.24,0,0,1,7.42-5l.08,0,.3-.1c.38-.13.77-.23,1.15-.34s.78-.2,1.17-.29l.66-.12c.7-.11,1.4-.19,2.1-.25.39,0,.79-.05,1.19-.06h.88a23.65,23.65,0,0,1,9,1.92,21.09,21.09,0,0,1,12,12.14C1305,487.34,1302.89,495.35,1298.53,501Z"/><path class="cls-18" d="M877.85,191.68a9,9,0,0,0-11.2.14,1.81,1.81,0,0,0-.5.7,8.14,8.14,0,0,0,1.91,10.95c4,2.9,9.16,1.54,12-2.33C882.34,198,880.8,193.78,877.85,191.68Zm-1.67,7.22a4.68,4.68,0,0,1-2.6,1.78c.15-.05-.54,0-.64,0h-.24l-.34-.06a3.74,3.74,0,0,1-.45-.12l-.1,0c-.17-.07-.87-.48-.72-.37a3.8,3.8,0,0,1-1.65-2.46,5.48,5.48,0,0,1,0-1.3,4.81,4.81,0,0,1,.63-1.63l.38-.26.19-.1.26-.09c.07,0,.66-.14.59-.15.24,0,.48,0,.72,0h.21l.28,0a8.11,8.11,0,0,1,.85.21l.1,0,.37.16a7.4,7.4,0,0,1,.95.53c-.33-.21.31.26.38.31s.36.35.53.53c-.15-.16.26.36.3.43s.26.51.27.5c.05.16.1.33.14.5-.08-.31,0,.34,0,.46A2.87,2.87,0,0,1,876.18,198.9Z"/><path class="cls-18" d="M1085.9,474.16c-4.69-3.33-10.76-3.56-15.27.19a2.48,2.48,0,0,0-.69.95c-3,4.91-2.23,11.44,2.61,14.93,5.48,4,12.48,2.1,16.32-3.18C1092,482.73,1089.92,477,1085.9,474.16Zm-2.28,9.83a6.34,6.34,0,0,1-3.55,2.43,7.27,7.27,0,0,0-.87.07,2,2,0,0,0-.32,0l-.46-.08-.61-.16-.15-.06c-.23-.1-1.19-.66-1-.51a5.18,5.18,0,0,1-2.25-3.34,7.37,7.37,0,0,1,0-1.78,6.41,6.41,0,0,1,.85-2.23l.52-.35a2.67,2.67,0,0,0,.26-.13l.35-.13a7.25,7.25,0,0,0,.81-.2c.33,0,.66,0,1,0h.28l.38.06a10.9,10.9,0,0,1,1.16.28l.14.05.5.22a10.07,10.07,0,0,1,1.29.71c-.44-.28.43.36.52.43a9.93,9.93,0,0,1,.73.72c-.21-.21.35.5.41.59s.35.7.36.67a5.91,5.91,0,0,1,.19.69c-.1-.42,0,.46,0,.63A3.86,3.86,0,0,1,1083.62,484Z"/><path class="cls-20" d="M650.65,351.79c-5.32,11-22.74,4.88-17.46-6.91S656,340.09,650.65,351.79ZM627.38,349c-4.66,2.34-10.5,8.17-6.22,13.61,3.89,4.67,10.11,1.17,14.39-1.55-1,4.66-.78,12.83,5.44,12.05,5.83-.39,7.78-8,7-12.83,10.11,13.22,18.28-6.61,7.39-9.33,11.67,3.5,11.67-13.61.39-10.89,10.89-3.5,1.17-19.44-10.11-7.39-1.17-4.28-1.56-10.5-8.17-9.33-6.22,1.17-6.41,7.78-3.3,12.05C622.33,328.56,613.38,344.89,627.38,349Z"/><path class="cls-19" d="M1279.9,683.91c-4.77,9.84-20.38,4.37-15.65-6.2S1284.66,673.42,1279.9,683.91Zm-20.85-2.53c-4.18,2.09-9.41,7.32-5.58,12.2,3.49,4.18,9.06,1,12.9-1.4-.88,4.18-.7,11.5,4.87,10.8,5.23-.35,7-7.14,6.27-11.49,9.06,11.84,16.38-5.93,6.62-8.37,10.46,3.14,10.46-12.19.35-9.75,9.76-3.14,1-17.42-9.06-6.62-1-3.84-1.39-9.41-7.31-8.36-5.58,1-5.75,7-3,10.8C1254.52,663.09,1246.51,677.72,1259.05,681.38Z"/><path class="cls-20" d="M1120.59,767.94c-2.86,5.9-12.22,2.62-9.38-3.72S1123.45,761.65,1120.59,767.94Zm-12.5-1.52c-2.51,1.26-5.64,4.39-3.34,7.31,2.09,2.51,5.43.63,7.73-.83-.53,2.51-.42,6.89,2.92,6.48,3.14-.21,4.18-4.29,3.76-6.9,5.43,7.1,9.82-3.55,4-5,6.27,1.88,6.27-7.31.21-5.85,5.85-1.88.63-10.45-5.43-4-.63-2.3-.84-5.64-4.39-5-3.34.62-3.45,4.17-1.77,6.47C1105.37,755.46,1100.57,764.23,1108.09,766.42Z"/><path class="cls-20" d="M935.09,177c-4.85,10-20.74,4.45-15.92-6.3S939.93,166.35,935.09,177Zm-21.22-2.57c-4.25,2.13-9.57,7.45-5.67,12.41,3.55,4.26,9.22,1.06,13.12-1.42-.89,4.26-.71,11.7,5,11,5.32-.35,7.09-7.26,6.38-11.7,9.22,12.06,16.66-6,6.74-8.5,10.63,3.19,10.63-12.41.35-9.93,9.93-3.19,1.07-17.73-9.21-6.74-1.07-3.9-1.42-9.57-7.45-8.51-5.67,1.07-5.85,7.1-3,11C909.26,155.84,901.11,170.73,913.87,174.45Z"/><path class="cls-16" d="M939.37,473.37c-2.21,4.56-9.43,2-7.24-2.87S941.57,468.52,939.37,473.37Zm-9.65-1.17c-1.93,1-4.35,3.39-2.58,5.64,1.62,1.94,4.19.49,6-.64-.4,1.93-.32,5.32,2.26,5,2.41-.16,3.22-3.31,2.9-5.32,4.19,5.48,7.57-2.74,3.06-3.87,4.84,1.45,4.84-5.64.16-4.52,4.52-1.45.49-8.06-4.19-3.06-.48-1.77-.64-4.35-3.39-3.87-2.58.49-2.66,3.23-1.37,5C927.63,463.74,923.92,470.51,929.72,472.2Z"/><path class="cls-22" d="M485.23,198.7s-1.52,14.83-1.61,18.25c0,0-9.21,1.5-13,2.4a116.75,116.75,0,0,0,12,7.37s-1.51,11.43-1.68,14.46a51.14,51.14,0,0,0,10.62-12.25s9.94,3.82,13.57,5.27c0,0-4.19-9.79-4.71-11.83,0,0,5.29-6.2,8-10.27,0,0-10.86,1.19-13.88,1.76C494.48,213.86,485.55,199,485.23,198.7Z"/><path class="cls-23" d="M491.94,217.74c.16.71-.05,1.36-.46,1.45s-.86-.42-1-1.13.06-1.37.46-1.45S491.79,217,491.94,217.74Z"/><path class="cls-23" d="M488.62,218.39c.15.72-.05,1.37-.46,1.46s-.86-.42-1-1.14.05-1.36.46-1.45S488.46,217.68,488.62,218.39Z"/><path class="cls-23" d="M485,221.23c.88,1.44,3.3,2.12,4.87,1.9,2-.28,4.13-1.43,4.62-3.54,0-.17-.21-.31-.3-.14a5.55,5.55,0,0,1-4.1,3.13c-2,.41-3.38-.69-5.06-1.39,0,0,0,0,0,0Z"/><path class="cls-16" d="M544.13,659.92s.57-11.59.83-14.58c0,0,6.5,9.43,8.25,13.91,0,0,13.75.2,16.52.48,0,0-6.41,7.52-8.36,9.35,0,0,2.18,12.19,2.89,14.57,0,0-8.85-5.08-12.25-7.4,0,0-6.68,8.26-9,10.17,0,0-1.3-10.26-1-15.46,0,0-11.55-5.56-15.15-7.32C526.91,663.64,541.72,660.41,544.13,659.92Z"/><path class="cls-23" d="M548.66,665.51c.13.69-.06,1.31-.42,1.38s-.76-.44-.89-1.14.06-1.31.42-1.38S548.53,664.81,548.66,665.51Z"/><path class="cls-23" d="M551,665.33c0,.7-.23,1.29-.6,1.31s-.69-.54-.73-1.25.23-1.29.6-1.31S551,664.62,551,665.33Z"/><path class="cls-23" d="M544.91,667.67c.33,2.05,2.92,3.15,4.77,2.92a5.43,5.43,0,0,0,4.34-3.51.25.25,0,0,0-.43-.23c-.92,1.56-1.94,2.78-3.8,3.1-2.18.37-3.32-1.07-4.78-2.34,0,0-.11,0-.1.06Z"/><path class="cls-22" d="M1342.44,541.27c-.21,1.66-1.29,10.08-1.82,14.56,0,0-8.69,3-12.7,5.08l13,3.22s.4,11,.59,14.27c0,0,7.62-11,9.09-13,0,0,10.45,5,13.29,6.06,0,0-3.42-9.48-5-12.7,0,0,3.91-6.74,5.28-10.06,0,0-7.43,2.24-11.43,3.51,0,0-9.12-10.05-10.27-11.13Z"/><path class="cls-23" d="M1347.46,557.69c.22.63.16,1.22-.13,1.33s-.71-.33-.93-1-.16-1.22.13-1.32S1347.24,557.06,1347.46,557.69Z"/><path class="cls-23" d="M1350.11,556.92c.11.66,0,1.24-.35,1.29s-.65-.44-.76-1.1,0-1.23.36-1.28S1350,556.27,1350.11,556.92Z"/><path class="cls-23" d="M1344.36,559.64a5.21,5.21,0,0,0,4.52,1.54c1.92-.32,3.24-1.73,4.33-3.23.15-.21-.18-.46-.34-.27-1.13,1.28-2.07,2.49-3.79,3s-3.09-.52-4.63-1.13c-.09,0-.13.08-.09.14Z"/><path class="cls-24" d="M472.44,608.15v21.47a.37.37,0,0,1-.74,0V608.15a.37.37,0,0,1,.74,0Z"/><path class="cls-24" d="M482,619.46c-7,0-14-.37-20.95.62-.46.06-.66-.64-.19-.7,7-1,14.08-.67,21.14-.65a.37.37,0,0,1,0,.73Z"/><path class="cls-24" d="M466.32,612.27c1.93,5.06,8,7.39,11.48,11.2.32.35-.19.86-.51.52-3.61-3.92-9.68-6.29-11.67-11.53-.17-.44.53-.63.7-.19Z"/><path class="cls-24" d="M478.36,612.89c-2.31,1.36-4.06,3.88-5.7,6-1.86,2.34-3.61,4.78-5.37,7.2-.28.38-.91,0-.63-.37,1.8-2.47,3.6-4.94,5.49-7.35,1.66-2.13,3.47-4.66,5.84-6.06a.37.37,0,0,1,.37.63Z"/><path class="cls-25" d="M480.36,644.27v15.29a.26.26,0,0,0,.52,0V644.27a.26.26,0,0,0-.52,0Z"/><path class="cls-25" d="M473.58,652.32c5,0,10-.26,14.92.44.33,0,.47-.45.13-.5-5-.71-10-.47-15.05-.45a.26.26,0,0,0,0,.51Z"/><path class="cls-25" d="M484.72,647.2c-1.38,3.61-5.68,5.27-8.18,8-.22.24.14.61.37.37,2.57-2.8,6.89-4.48,8.31-8.21.12-.32-.38-.45-.5-.14Z"/><path class="cls-25" d="M476.14,647.64c1.65,1,2.9,2.77,4.07,4.24,1.32,1.67,2.56,3.4,3.82,5.13.19.26.65,0,.45-.27-1.29-1.75-2.56-3.51-3.91-5.23a17.1,17.1,0,0,0-4.16-4.32.26.26,0,0,0-.27.45Z"/><path class="cls-26" d="M694.38,731c.3,3.49.52,7.34.52,11.13l.43-.07c1.9-3.06,4.37-5.39,6.48-8.3a.57.57,0,0,1,.58.22c-1.39,3.06-4.44,5.6-5.89,8.37-.51.72-1.31,1.31-1.6,2,4.28.07,9.17-.45,13-.37-.37,1.31-1.82,1.09-2.91,1.24-3.06-.08-5.6.43-8.81.29l-.14.14c3,3.57,7.49,5.9,9.16,10.11a.53.53,0,0,1-.5.22c-2.91-3.63-6.4-6.18-9.6-9.45-.29,5.16.58,10.18-.16,15.56a2.76,2.76,0,0,1-.94-1.74c0-5-.29-9.6-.43-14.55l-1,1c-2.4,2.91-3.78,7.13-7.34,8.94l-.23-.07c.15-1.16,1.61-1.74,2-2.91l4.73-6.77c-1.09-.43-2.32,0-3.64,0-2.33-.28-4.72.23-7.05-.43-.22-.22-.66-.44-.44-.8,1.46-.51,3,.22,4.8.07,2.33-.14,4.73-.07,7.28-.36a122.36,122.36,0,0,1-8.74-9.16c.37-.66,1.1-.08,1.46.21,2.62,2.69,5.09,5.39,8,7.86l.15-.29c-.29-4.65-.15-9.75-.44-14.11C694.83,728.28,693.88,730.53,694.38,731Z"/><path class="cls-26" d="M632.44,578.17v23.54a.4.4,0,0,1-.8,0V578.17a.4.4,0,0,1,.8,0Z"/><path class="cls-26" d="M642.89,590.58c-7.67,0-15.36-.41-23,.67-.5.07-.72-.7-.21-.77,7.69-1.09,15.45-.73,23.19-.71a.41.41,0,0,1,0,.81Z"/><path class="cls-26" d="M625.73,582.68c2.12,5.55,8.75,8.11,12.59,12.29.35.38-.21.94-.56.56-4-4.29-10.61-6.89-12.8-12.63-.19-.49.59-.69.77-.22Z"/><path class="cls-26" d="M638.94,583.37c-2.54,1.49-4.46,4.26-6.26,6.52-2,2.57-3.95,5.24-5.89,7.89-.3.42-1,0-.69-.4,2-2.71,3.95-5.42,6-8.06,1.83-2.33,3.81-5.11,6.41-6.64a.4.4,0,0,1,.41.69Z"/><path class="cls-24" d="M1310.21,226.09v21.47a.37.37,0,0,1-.73,0V226.09a.37.37,0,0,1,.73,0Z"/><path class="cls-24" d="M1319.74,237.4c-7,0-14-.37-21,.62-.45.06-.65-.64-.18-.7,7-1,14.08-.67,21.14-.65a.37.37,0,0,1,0,.73Z"/><path class="cls-24" d="M1304.09,230.2c1.93,5.06,8,7.4,11.49,11.21.31.34-.2.86-.52.51-3.61-3.92-9.67-6.29-11.67-11.52-.17-.44.54-.63.7-.2Z"/><path class="cls-24" d="M1316.14,230.83c-2.31,1.36-4.07,3.88-5.71,5.95-1.86,2.34-3.6,4.78-5.37,7.19-.27.38-.91,0-.63-.36,1.8-2.47,3.6-4.94,5.49-7.35,1.66-2.13,3.48-4.66,5.84-6.06a.37.37,0,0,1,.38.63Z"/><path class="cls-25" d="M1318.14,262.21V277.5a.26.26,0,0,0,.52,0V262.21a.26.26,0,0,0-.52,0Z"/><path class="cls-25" d="M1311.35,270.26c5,0,10-.26,14.92.44.33.05.47-.45.14-.5-5-.71-10-.47-15.06-.45a.26.26,0,0,0,0,.51Z"/><path class="cls-25" d="M1322.49,265.14c-1.37,3.6-5.67,5.27-8.17,8-.23.24.13.61.36.37,2.58-2.8,6.89-4.49,8.31-8.22.12-.31-.38-.44-.5-.13Z"/><path class="cls-25" d="M1313.92,265.58c1.64,1,2.89,2.77,4.06,4.24,1.33,1.67,2.56,3.4,3.82,5.12.2.27.65,0,.45-.26-1.28-1.76-2.56-3.51-3.9-5.23a16.8,16.8,0,0,0-4.17-4.32.26.26,0,0,0-.26.45Z"/><path class="cls-26" d="M1425.6,312.91c.29,3.49.51,7.34.51,11.13l.43-.07c1.9-3.06,4.37-5.39,6.48-8.3a.55.55,0,0,1,.58.22c-1.38,3.06-4.44,5.6-5.89,8.36-.51.73-1.31,1.31-1.6,2,4.29.07,9.17-.44,13-.36-.36,1.31-1.82,1.09-2.91,1.23-3.06-.07-5.6.44-8.81.3l-.14.14c3,3.57,7.5,5.89,9.16,10.11a.51.51,0,0,1-.5.22c-2.91-3.64-6.4-6.18-9.6-9.45-.29,5.16.58,10.18-.15,15.56a2.76,2.76,0,0,1-.94-1.74c0-4.95-.29-9.6-.44-14.55l-.94,1c-2.4,2.91-3.79,7.13-7.35,8.94l-.22-.07c.15-1.17,1.6-1.74,2-2.91l4.73-6.77c-1.1-.43-2.33,0-3.64,0-2.33-.29-4.73.22-7.06-.43-.21-.22-.65-.44-.44-.8,1.46-.51,3,.22,4.8.07,2.33-.14,4.74-.07,7.28-.37a116.63,116.63,0,0,1-8.73-9.16c.36-.65,1.09-.07,1.45.22,2.63,2.69,5.1,5.38,8,7.86l.14-.29c-.29-4.66-.14-9.75-.43-14.11C1426,310.22,1425.09,312.47,1425.6,312.91Z"/><path class="cls-26" d="M410,329.67c.29,3.49.51,7.34.51,11.13l.43-.07c1.9-3.06,4.37-5.39,6.48-8.3a.56.56,0,0,1,.58.22c-1.38,3.06-4.44,5.6-5.89,8.37-.51.72-1.31,1.31-1.6,2,4.29.07,9.17-.44,13-.36-.37,1.3-1.82,1.08-2.91,1.23-3.06-.08-5.6.43-8.81.29l-.14.14c3,3.57,7.5,5.9,9.16,10.11a.52.52,0,0,1-.5.22c-2.91-3.63-6.4-6.18-9.6-9.45-.29,5.16.58,10.18-.15,15.56a2.71,2.71,0,0,1-.94-1.74c0-4.95-.29-9.6-.44-14.55l-.95,1c-2.39,2.91-3.78,7.13-7.34,8.94l-.22-.07c.15-1.16,1.6-1.74,2-2.91l4.73-6.77c-1.1-.43-2.33,0-3.64,0-2.34-.28-4.73.23-7.06-.43-.22-.22-.65-.44-.44-.8,1.46-.51,3,.22,4.8.07,2.33-.14,4.74-.07,7.28-.36a118.41,118.41,0,0,1-8.73-9.16c.36-.66,1.09-.08,1.45.21,2.63,2.69,5.1,5.39,8,7.86l.14-.29c-.29-4.65-.14-9.75-.43-14.11C410.45,327,409.5,329.23,410,329.67Z"/><path class="cls-26" d="M1442.1,213.13v23.54a.4.4,0,0,1-.8,0V213.13a.4.4,0,0,1,.8,0Z"/><path class="cls-26" d="M1452.54,225.53c-7.67,0-15.35-.41-23,.68-.5.06-.72-.7-.21-.77,7.69-1.1,15.44-.74,23.18-.71a.4.4,0,0,1,0,.8Z"/><path class="cls-26" d="M1435.39,217.64c2.12,5.55,8.74,8.11,12.59,12.29.35.37-.21.94-.57.56-4-4.3-10.6-6.9-12.79-12.64-.19-.48.59-.69.77-.21Z"/><path class="cls-26" d="M1448.59,218.32c-2.53,1.5-4.45,4.26-6.25,6.53-2,2.56-3.95,5.24-5.89,7.89-.3.41-1,0-.69-.41,2-2.7,3.94-5.41,6-8.05,1.82-2.33,3.81-5.11,6.41-6.65a.4.4,0,0,1,.4.69Z"/><path class="cls-27" d="M1205.47,698.15c2.66-1.5,7.8-2.66,8.91.38,1.33,3.62-4.57,4.65-7.86,3.22,1.71.94,5.1,4.37,3.54,6.4-2.28,3-6.19-1.26-7.06-3.8-.68,3.57-5.41,10.23-7.51,4.47-.86-2.37.68-4.91,5-7.72-4.26-1.65-7.64-5.21-5.21-7.88,1.64-1.8,6,1.24,7.36,4.12-.62-2.53.56-11.71,5-9.27C1211.41,690.17,1205.47,698.15,1205.47,698.15Z"/><path class="cls-28" d="M1322.51,701.67c.33,2.54.62,5.35.74,8.13l.32-.07c1.29-2.3,3-4.09,4.46-6.28a.41.41,0,0,1,.44.14c-.91,2.28-3.06,4.24-4,6.31-.34.55-.91,1-1.1,1.55,3.14-.09,6.69-.63,9.51-.7-.22,1-1.29.86-2.08,1-2.24,0-4.09.5-6.44.51l-.1.1c2.3,2.52,5.68,4.07,7,7.11a.41.41,0,0,1-.36.17c-2.25-2.57-4.89-4.32-7.34-6.61,0,3.8.76,7.44.4,11.4a2,2,0,0,1-.74-1.24c-.16-3.63-.53-7-.8-10.64l-.66.78c-1.66,2.21-2.53,5.34-5.08,6.79l-.17,0c.07-.85,1.12-1.32,1.4-2.19l3.24-5.11a7.6,7.6,0,0,0-2.66.12c-1.72-.14-3.45.32-5.18-.09-.17-.15-.49-.29-.35-.57,1-.42,2.19.06,3.52-.1,1.7-.18,3.46-.21,5.31-.51a86,86,0,0,1-6.69-6.42c.25-.49.8-.09,1.07.11,2,1.89,3.9,3.78,6.12,5.49l.09-.22c-.37-3.4-.43-7.13-.78-10.31C1322.74,699.68,1322.13,701.37,1322.51,701.67Z"/><path class="cls-29" d="M1432.73,693.07c.23,2.79.41,5.89.41,8.92l.35,0c1.51-2.46,3.5-4.32,5.18-6.66a.47.47,0,0,1,.47.18c-1.1,2.45-3.55,4.49-4.72,6.7-.4.58-1.05,1.05-1.28,1.64,3.44.05,7.34-.36,10.43-.29-.29,1-1.46.87-2.33,1-2.45-.06-4.49.34-7.06.23l-.11.11c2.39,2.86,6,4.73,7.34,8.11a.43.43,0,0,1-.4.17c-2.34-2.91-5.13-5-7.69-7.58-.24,4.14.46,8.16-.13,12.48a2.28,2.28,0,0,1-.75-1.4c0-4-.23-7.69-.35-11.66l-.75.82c-1.93,2.33-3,5.71-5.89,7.17l-.18-.07c.12-.93,1.29-1.39,1.63-2.32l3.79-5.43c-.87-.34-1.86,0-2.91,0-1.87-.23-3.79.18-5.66-.34-.17-.18-.52-.35-.34-.65,1.16-.4,2.39.18,3.84.06,1.86-.11,3.79-.06,5.83-.29a91.68,91.68,0,0,1-7-7.34c.29-.53.87-.06,1.16.17,2.1,2.16,4.08,4.32,6.41,6.3l.12-.23c-.24-3.73-.12-7.82-.35-11.31C1433.08,690.92,1432.32,692.72,1432.73,693.07Z"/><path class="cls-29" d="M462.17,459.79c.23,2.79.41,5.89.41,8.92l.35,0c1.51-2.46,3.5-4.32,5.18-6.66a.47.47,0,0,1,.47.18c-1.1,2.45-3.55,4.49-4.72,6.7-.4.58-1.05,1.05-1.28,1.64,3.44.05,7.34-.36,10.43-.29-.29,1-1.46.87-2.33,1-2.45-.06-4.49.34-7.06.23l-.11.11c2.39,2.86,6,4.73,7.34,8.11a.43.43,0,0,1-.4.17c-2.34-2.91-5.13-5-7.69-7.58-.24,4.14.46,8.16-.13,12.48a2.28,2.28,0,0,1-.75-1.4c0-4-.23-7.69-.35-11.66l-.75.82c-1.93,2.33-3,5.71-5.89,7.17l-.18-.07c.12-.93,1.29-1.39,1.63-2.32l3.79-5.43c-.87-.34-1.86,0-2.91,0-1.87-.23-3.79.18-5.66-.34-.17-.18-.52-.35-.34-.65,1.16-.4,2.39.18,3.84.06,1.86-.11,3.79-.06,5.83-.29a91.68,91.68,0,0,1-7-7.34c.29-.53.87-.06,1.16.17,2.1,2.16,4.08,4.32,6.41,6.3l.12-.23c-.24-3.73-.12-7.82-.35-11.31C462.52,457.64,461.76,459.44,462.17,459.79Z"/><path class="cls-29" d="M414.2,174.22c.23,2.79.41,5.89.41,8.92l.35,0c1.51-2.46,3.49-4.32,5.18-6.65a.45.45,0,0,1,.47.17c-1.11,2.45-3.56,4.49-4.72,6.7-.41.58-1.05,1.05-1.28,1.64,3.44.05,7.34-.36,10.43-.29-.29,1.05-1.46.87-2.33,1-2.45-.06-4.49.34-7.06.23l-.11.11c2.39,2.86,6,4.73,7.34,8.11a.43.43,0,0,1-.4.17c-2.34-2.91-5.13-5-7.7-7.58-.23,4.14.47,8.16-.12,12.48a2.24,2.24,0,0,1-.75-1.4c0-4-.23-7.69-.35-11.66l-.76.82c-1.92,2.33-3,5.71-5.88,7.17l-.18-.07c.12-.93,1.28-1.39,1.63-2.32l3.79-5.43c-.87-.34-1.86,0-2.91,0-1.87-.23-3.79.18-5.66-.34-.17-.18-.52-.35-.35-.65,1.17-.4,2.39.18,3.85.06,1.86-.11,3.79-.06,5.83-.29a93.61,93.61,0,0,1-7-7.34c.29-.53.88-.06,1.17.17,2.1,2.16,4.08,4.32,6.41,6.3l.12-.23c-.24-3.73-.12-7.81-.36-11.31C414.55,172.07,413.79,173.88,414.2,174.22Z"/><path class="cls-29" d="M1407.17,452.05c.24,2.8.41,5.89.41,8.92l.35-.05c1.52-2.46,3.5-4.32,5.19-6.65a.43.43,0,0,1,.46.17c-1.1,2.45-3.55,4.49-4.72,6.7a10.92,10.92,0,0,0-1.28,1.64c3.44.06,7.34-.35,10.43-.29-.29,1.05-1.45.87-2.33,1-2.44-.06-4.49.35-7,.23l-.11.12c2.38,2.85,6,4.72,7.33,8.1a.42.42,0,0,1-.4.17c-2.33-2.91-5.13-5-7.69-7.58-.24,4.14.46,8.17-.12,12.48a2.22,2.22,0,0,1-.76-1.4c0-4-.23-7.69-.34-11.66l-.76.82c-1.93,2.33-3,5.71-5.89,7.17l-.18-.07c.12-.93,1.29-1.39,1.64-2.32l3.78-5.43c-.87-.34-1.86,0-2.91,0-1.86-.23-3.79.18-5.66-.34-.17-.18-.52-.35-.34-.65,1.16-.4,2.39.18,3.84.06,1.87-.11,3.79-.06,5.83-.29a93.49,93.49,0,0,1-7-7.34c.29-.52.88-.06,1.16.17,2.11,2.16,4.08,4.32,6.41,6.3l.12-.23c-.23-3.73-.12-7.81-.35-11.31C1407.52,449.9,1406.76,451.71,1407.17,452.05Z"/><path class="cls-16" d="M1205.49,574.78c5,0,10-4,10.16-9.13s-4.58-8.74-9.5-8.74-10,4-10.16,9.13,4.58,8.74,9.5,8.74Z"/><path class="cls-18" d="M1074.51,560.87c4.51,0,9-3.58,9.18-8.25s-4.14-7.89-8.58-7.89-9,3.57-9.18,8.25,4.14,7.89,8.58,7.89Z"/><path class="cls-19" d="M1061.93,540.39a4.17,4.17,0,0,0,4.19-3.77,3.69,3.69,0,0,0-3.92-3.61,4.19,4.19,0,0,0-4.19,3.77,3.68,3.68,0,0,0,3.92,3.61Z"/><path class="cls-20" d="M1012.23,585.74c6.11-6.68,8.16-17.34,3.73-25.44a15.23,15.23,0,0,0-10.05-7.54,17.05,17.05,0,0,0-11.68,2.07c-7.33,4.12-12.7,13.71-7.89,21.65a12.79,12.79,0,0,0,10.41,5.88,13.14,13.14,0,0,0,11.53-6.5,10.37,10.37,0,0,0,1-7.78,7.11,7.11,0,0,0-6.06-4.88,7.5,7.5,0,0,0-7.58,4.1,6.13,6.13,0,0,0,1.74,7.71c1.39,1.16,4.34-1.62,2.72-3a3.56,3.56,0,0,1-1-4.59,1.84,1.84,0,0,1,1.26-.9,4.44,4.44,0,0,1,2.86.45c3.44,1.63,3.28,6.53,1.32,9-2.34,3-6.61,3.68-10.05,2.21a10.34,10.34,0,0,1-6.34-9.2,11.9,11.9,0,0,1,1.3-5.46,14.71,14.71,0,0,1,3.15-4.16,13.65,13.65,0,0,1,9.71-3.61c4.06.15,7.6,2.72,9.79,6,2.42,3.65,2.89,8.26,2.23,12.51a19.15,19.15,0,0,1-4.65,9.82c-.54.59-1,1.73-.1,2.26a2.26,2.26,0,0,0,2.62-.69Z"/><path class="cls-19" d="M1069.08,600.2c-8.81,4.46-15,14.55-13.6,24.53a16.6,16.6,0,0,0,7.36,11.57,18.6,18.6,0,0,0,12.72,2.39c9.07-1.39,18.25-9.11,16.39-19.08a13.93,13.93,0,0,0-8.36-10,14.3,14.3,0,0,0-14.28,2.19,11.36,11.36,0,0,0-4,7.54,7.76,7.76,0,0,0,4.31,7.32,8.2,8.2,0,0,0,9.32-1.26,6.7,6.7,0,0,0,1.2-8.55c-1-1.71-5.07,0-3.92,2a3.89,3.89,0,0,1-.75,5.07,2,2,0,0,1-1.64.43,4.8,4.8,0,0,1-2.74-1.56c-2.89-3-.83-7.93,2.12-9.72,3.55-2.16,8.18-1.22,11.12,1.61a11.31,11.31,0,0,1,2.94,11.83,13,13,0,0,1-3.44,5.08,15.9,15.9,0,0,1-4.82,3,14.86,14.86,0,0,1-11.29-.05c-4.1-1.71-6.72-5.7-7.68-9.91-1.07-4.67.22-9.56,2.54-13.64a20.78,20.78,0,0,1,8.52-8.23c.78-.39,1.65-1.4,1-2.28s-2.09-.73-3-.29Z"/><path class="cls-17" d="M1160.85,643.85c-6.36.95-17.52,3.23-21.68-2.91-4.91-7.38,3.43-14.38,10.54-9.83-2.93-7.27,3.2-15.43,10.14-9.5C1165.3,626.27,1161.57,636.9,1160.85,643.85Z"/><path class="cls-16" d="M1125,615.59c-2.17-4.46-6.46-12.12-2.92-16.61,4.28-5.33,11.37-.84,9.68,5.45,4.67-3.85,12.09-1.25,9.36,5.23C1139,614.76,1130.27,614.5,1125,615.59Z"/><path class="cls-20" d="M1106.59,596.32c-2.19-.29-6.08-.59-6.88-3-.92-2.9,2.49-4.42,4.41-2.24-.28-2.68,2.51-4.79,4.24-2.18C1109.72,590.94,1107.49,594.09,1106.59,596.32Z"/><path class="cls-18" d="M1220.72,556.62a17.59,17.59,0,0,0-10.2-6.34,20.24,20.24,0,0,0-19.12,5.39,2.86,2.86,0,0,0-2,1.37,21.73,21.73,0,0,0-1,2.77,17,17,0,0,0-1,2.26c-.17.45-.32.91-.46,1.38s.17,1,.69,1.24a15.77,15.77,0,0,0,1.46,7.22,18.15,18.15,0,0,0,9.92,9,18.36,18.36,0,0,0,14.09-.39,18.07,18.07,0,0,0,9.72-11.84A14,14,0,0,0,1220.72,556.62ZM1215,574.38a15.23,15.23,0,0,1-1.78,1.9,13.7,13.7,0,0,1-1.6,1.1,8.3,8.3,0,0,1-3.72,1.14,12,12,0,0,1-4-.37,14.31,14.31,0,0,1-4.4-2c-5.57-3.63-7.46-10.18-5.85-16.28a14.72,14.72,0,0,1,2-2.78,11.11,11.11,0,0,1,4.53-3.07l.05,0,.18-.06.7-.2.71-.18.41-.08c.42-.06.85-.11,1.28-.14l.72,0h.54a14.29,14.29,0,0,1,5.47,1.17,12.83,12.83,0,0,1,7.31,7.41C1218.91,566.07,1217.6,571,1215,574.38Z"/><path class="cls-16" d="M1113.63,418.81c5,0,10-4,10.16-9.14s-4.58-8.74-9.5-8.74-10,4-10.16,9.13,4.58,8.75,9.5,8.75Z"/><path class="cls-18" d="M1181.14,490.05c4.51,0,9-3.58,9.18-8.25s-4.14-7.9-8.59-7.9-9,3.58-9.17,8.25,4.14,7.9,8.58,7.9Z"/><path class="cls-19" d="M822.83,352.26a4.18,4.18,0,0,0,4.19-3.77,3.68,3.68,0,0,0-3.92-3.61,4.19,4.19,0,0,0-4.19,3.77,3.68,3.68,0,0,0,3.92,3.61Z"/><path class="cls-20" d="M771.06,445.82c6.12-6.68,8.17-17.33,3.74-25.44a15.23,15.23,0,0,0-10-7.54,17.09,17.09,0,0,0-11.69,2.07c-7.32,4.12-12.69,13.71-7.88,21.65a12.79,12.79,0,0,0,10.41,5.88,13.14,13.14,0,0,0,11.53-6.5,10.37,10.37,0,0,0,1-7.78,7.11,7.11,0,0,0-6.06-4.88,7.52,7.52,0,0,0-7.58,4.1,6.13,6.13,0,0,0,1.74,7.71c1.39,1.16,4.34-1.62,2.71-3a3.57,3.57,0,0,1-1-4.59,1.82,1.82,0,0,1,1.26-.9,4.44,4.44,0,0,1,2.86.45c3.44,1.63,3.27,6.53,1.32,9-2.34,3-6.61,3.68-10,2.21a10.34,10.34,0,0,1-6.34-9.2,11.9,11.9,0,0,1,1.3-5.46,14.71,14.71,0,0,1,3.15-4.16,13.65,13.65,0,0,1,9.71-3.61c4.06.15,7.6,2.72,9.79,6,2.42,3.65,2.89,8.26,2.23,12.51a19.15,19.15,0,0,1-4.65,9.82c-.54.59-1,1.73-.1,2.26a2.24,2.24,0,0,0,2.61-.69Z"/><path class="cls-19" d="M764.5,560.25c-8.82,4.47-15,14.55-13.61,24.53a16.6,16.6,0,0,0,7.36,11.57A18.63,18.63,0,0,0,771,598.74c9.06-1.39,18.24-9.11,16.38-19.08a13.94,13.94,0,0,0-8.36-10,14.3,14.3,0,0,0-14.28,2.19,11.4,11.4,0,0,0-4.05,7.54,7.75,7.75,0,0,0,4.32,7.32,8.18,8.18,0,0,0,9.31-1.26,6.7,6.7,0,0,0,1.2-8.55c-1-1.71-5.06,0-3.92,2a3.89,3.89,0,0,1-.75,5.08,2,2,0,0,1-1.64.42,4.74,4.74,0,0,1-2.74-1.56c-2.88-3-.83-7.93,2.12-9.72,3.55-2.16,8.18-1.22,11.12,1.61a11.31,11.31,0,0,1,2.94,11.83,13,13,0,0,1-3.44,5.08,15.79,15.79,0,0,1-4.81,3,14.89,14.89,0,0,1-11.3,0c-4.1-1.71-6.72-5.7-7.68-9.91-1.07-4.66.23-9.55,2.54-13.63a20.86,20.86,0,0,1,8.52-8.24c.78-.39,1.65-1.4,1-2.27s-2.08-.74-2.94-.3Z"/><path class="cls-17" d="M896.15,581.09c-6.36.94-17.52,3.23-21.68-2.91-4.91-7.39,3.43-14.39,10.54-9.83-2.92-7.27,3.2-15.43,10.14-9.51C900.61,563.5,896.87,574.13,896.15,581.09Z"/><path class="cls-16" d="M885.89,427.46c-2.17-4.46-6.46-12.12-2.92-16.61,4.28-5.33,11.37-.84,9.68,5.45,4.67-3.85,12.09-1.25,9.36,5.23C899.86,426.63,891.17,426.37,885.89,427.46Z"/><path class="cls-20" d="M867.49,408.19c-2.19-.29-6.08-.59-6.88-3-.92-2.9,2.49-4.42,4.41-2.25-.28-2.67,2.51-4.78,4.24-2.17C870.62,402.81,868.39,406,867.49,408.19Z"/><path class="cls-18" d="M981.62,368.49a17.59,17.59,0,0,0-10.2-6.34,20.21,20.21,0,0,0-19.12,5.39,2.86,2.86,0,0,0-2,1.37,23.39,23.39,0,0,0-1,2.77,17,17,0,0,0-1,2.26c-.17.45-.32.91-.46,1.38s.18,1,.69,1.24a15.77,15.77,0,0,0,1.46,7.22,18.15,18.15,0,0,0,9.92,9,18.36,18.36,0,0,0,14.09-.39,18.09,18.09,0,0,0,9.72-11.84A14,14,0,0,0,981.62,368.49Zm-5.77,17.76a13.83,13.83,0,0,1-1.78,1.89,12.76,12.76,0,0,1-1.6,1.11,8.3,8.3,0,0,1-3.72,1.14,12.07,12.07,0,0,1-4-.37,14.31,14.31,0,0,1-4.4-2c-5.57-3.63-7.46-10.18-5.85-16.28a15.12,15.12,0,0,1,2-2.79A11.19,11.19,0,0,1,961,365.9l0,0,.18-.06.71-.2c.23-.07.47-.12.7-.18l.41-.08c.42-.06.85-.11,1.28-.14l.72,0h.54a14.56,14.56,0,0,1,5.48,1.16,12.87,12.87,0,0,1,7.3,7.41C979.81,377.94,978.51,382.83,975.85,386.25Z"/></g><g class="cls-30"><g class="cls-31"><path class="cls-32" d="M2140.49,733.21s1582.15-46.13,1765.45,1.17l-15.5,169.78-2208-5.19V827c98.19,0,146-86.08,244.24-86.07C1979.2,703.48,2140.49,733.21,2140.49,733.21Z"/><path class="cls-33" d="M3886.18,900c-632.74.78-1338.09,4.69-1970.83,5.46V882.84c632.74.42,1319.4,3,1952.13,3.45Z"/><rect class="cls-34" x="1884.29" y="429.17" width="533.06" height="228.92"/><path class="cls-35" d="M1891.35,431.41q1.25-112.7,2.47-225.38l152.62-.19,391.08-.48,22.86,226.05Z"/><rect class="cls-36" x="1889.47" y="431.41" width="570.91" height="10.37"/><rect class="cls-37" x="1889.47" y="441.78" width="507.2" height="19.33"/><line class="cls-38" x1="2396.03" y1="396.71" x2="1918.88" y2="395.49"/><path class="cls-39" d="M2384.06,733.82c-48,3.92-379.34,3.27-467.3,3.76l6.31-84h456.46q.7,13.93,1.42,27.87"/><line class="cls-40" x1="3187.76" y1="782.67" x2="1531.38" y2="791.35"/><path class="cls-41" d="M1934.75,710s-22.75-50-12.21-74.36,38.85,26.31,38.29,63.38c.56,16,7.22,4.32,11.66-10.66s20.53-35,40-41.63,20,15.54-12.76,43.29-24.42,35-8.33,20c18.32-16.65,13.32-11.6,21.65-15.23s42.11,1.35,2.74,34.1L1998,737.15h-82.68l-3.33-19.1s17.75,1.9,9.43-2.54-41.07-29.15-27.19-32.34S1912,679.44,1934.75,710Z"/><rect class="cls-33" x="1809.56" y="726.94" width="315.26" height="11.85"/><rect class="cls-42" x="1809.56" y="728.58" width="87.42" height="10.81"/></g></g></g></g></svg>