<?xml version="1.0" encoding="UTF-8"?><svg xmlns="http://www.w3.org/2000/svg" viewBox="0 0 256 200"><defs><style>.b{isolation:isolate;}.c,.d{fill:#009ec1;}.e{fill:#07afbd;stroke:#0f9a96;}.e,.f{stroke-miterlimit:10;}.d{mix-blend-mode:multiply;opacity:.2;}.f{fill:#eff8f8;stroke:#7bc5bc;}</style></defs><g class="b"><g id="a"><g><path class="e" d="M172.36,173.16c-4.86,5.38-21.9,9.75-40.84,10.23-.42,0-.85,.02-1.28,.03-6.71,.09-13.15-.39-18.97-1.26-10.7-1.6-19.34-3.35-23.93-6.5-.63-.43-1.19-.87-1.66-1.31-4.7-4.35,1.24-11.45,5.03-11.5l76.31-1.05c2.32-.03,5.42,2.47,6.47,5.5,.67,1.91,.52,4.03-1.13,5.86Z"/><path class="f" d="M245.16,58.09c.09-.73-12.26,36.37-108,39.28C19.95,100.92,10.48,60.58,10.58,61.31c-.06,1.88-.09,3.77-.07,5.66,.02,1.49,.08,2.98,.16,4.46,.18,3.33,.52,6.62,1,9.87,1.38,9.22,3.93,18.07,7.51,26.41,.02,.07,.05,.13,.08,.19,1.48,3.43,3.14,6.77,4.96,10.02,5.05,9.02,11.37,17.3,18.72,24.62,.85,.85,1.71,1.68,2.59,2.5,1.28,1.2,2.59,2.37,3.92,3.51,.04,.04,.08,.07,.12,.1,1.74,1.49,3.52,2.92,5.35,4.29,4.95,3.74,10.22,7.1,15.77,10.05,2.02,1.07,4.08,2.09,6.17,3.05,.92,.42,1.86,.84,2.8,1.24,2.47,1.06,4.97,2.03,7.52,2.93,4.19,1.47,8.5,2.72,12.9,3.73,7.97,1.84,16.26,2.9,24.76,3.1,.76,.01,1.52,.03,2.28,.03h.05c.34,0,.67,0,1,0,.37,0,.75,0,1.12-.01,.43,0,.86-.01,1.3-.02,.33,0,.67-.02,1-.03h.05c.76-.03,1.52-.06,2.28-.09,12.96-.64,25.35-3.26,36.84-7.57,2.82-1.04,5.58-2.2,8.28-3.45,26.89-12.41,48.03-34.29,58.71-60.99,3.4-8.49,5.73-17.48,6.86-26.8,.4-3.27,.64-6.58,.73-9.92,.04-1.47,.06-2.96,.04-4.45-.03-1.89-.1-3.78-.22-5.66Z"/><path class="c" d="M244.36,78.59c-4.05,7.49-14.8,15.5-30.04,22.09-15.19,6.55-33.41,11.28-53.12,13.91-10.51,1.4-21.44,2.2-32.56,2.35-31.95,.44-62.53-4.5-86.08-13.9-15.75-6.29-26.84-14.2-30.9-21.72,1.38,9.29,3.97,18.21,7.59,26.61,3.08,1.87,6.45,3.67,10.08,5.38,2.47,1.17,5.08,2.29,7.8,3.38,2.14,.85,4.33,1.67,6.57,2.45,24.25,8.5,54.17,12.91,85.14,12.49,9.06-.12,18.02-.66,26.76-1.59,23.91-2.53,46.2-7.96,64.51-15.86,6.54-2.82,12.35-5.86,17.38-9.09,.09-.05,.17-.1,.25-.16,3.4-8.49,5.73-17.48,6.86-26.8-.08,.16-.16,.31-.25,.47Z"/><path class="c" d="M235.12,110.98c-.28,.31-.57,.61-.87,.91-2.44,2.49-5.59,4.92-9.35,7.23l-.11,.07c-.12,.07-.24,.15-.38,.23-.58,.35-1.17,.7-1.75,1.02-.3,.17-.59,.33-.91,.5-.48,.26-.96,.52-1.46,.78-.41,.21-.82,.42-1.25,.64l-.05,.03c-.19,.1-.38,.19-.6,.29-.2,.11-.41,.21-.63,.31-1.07,.52-2.19,1.04-3.34,1.54-.34,.15-.68,.3-1.03,.44l-.23,.1c-.36,.16-.73,.31-1.11,.47-.2,.08-.41,.17-.61,.25l-.04,.02c-.22,.09-.45,.18-.67,.28l-.17,.07c-.22,.09-.43,.17-.65,.26h-.41l-.22,.24c-.16,.06-.32,.12-.48,.18l-.51,.2c-.18,.07-.36,.14-.54,.2h-.11l-.25,.13c-.18,.07-.37,.14-.58,.21-.35,.14-.71,.26-1.08,.39l-.1,.04c-.37,.13-.74,.26-1.12,.39-.42,.15-.85,.29-1.28,.43l-.1,.03c-.18,.06-.36,.12-.54,.18l-.6,.2c-.22,.07-.43,.14-.65,.21l-.09,.03c-.43,.14-.87,.27-1.3,.41l-.49,.15c-1.2,.37-2.42,.73-3.62,1.07l-.76,.21c-.49,.14-.98,.27-1.5,.41-.11,.03-.22,.06-.33,.09l-.06,.02c-.37,.1-.74,.2-1.12,.3l-.23,.06c-1.51,.39-3.04,.77-4.54,1.12-.73,.17-1.46,.34-2.19,.5-1.36,.3-2.73,.59-4.19,.89-.55,.11-1.09,.22-1.64,.33-2.73,.54-5.53,1.03-8.34,1.48l-.96,.15c-1.89,.29-3.62,.54-5.3,.77l-1.76,.23c-1.23,.16-2.48,.31-3.74,.45l-.3,.03h0c-.6,.07-1.21,.14-1.83,.21-1.5,.16-3.04,.31-4.58,.45-.11,0-.21,.02-.32,.03-.04,0-.07,0-.1,0h-.16c-.06,.02-.11,.02-.17,.02h-.17c-.06,.02-.11,.02-.17,.03h0s-.05,0-.07,0h-.04l-1.38,.12c-.18,.02-.37,.03-.56,.05-.04,0-.09,0-.13,0-.09,0-.18,.01-.27,.02-.04,0-.09,0-.13,0h-.16s-.09,.02-.15,.02c-.06,0-.13,0-.19,.01h-.05c-.15,.02-.29,.03-.46,.04h-.04c-.08,.01-.16,.02-.25,.02h-.05c-.18,.02-.38,.03-.56,.05h-.08c-1.94,.15-3.93,.27-5.9,.37l-.58,.03c-.16,0-.31,.02-.47,.02h-.06c-.2,.02-.4,.03-.63,.03-1.15,.06-2.32,.1-3.48,.14h-.42c-.32,.02-.65,.04-.98,.04h-.21c-.07,0-.14,0-.21,0h-.09c-.32,.01-.64,.03-.96,.03h-.08c-.21,0-.42,.02-.64,.02h-.08c-.06,0-.12,0-.18,0h-.71c-.19,.02-.38,.02-.53,.03-.31,0-.63,0-.92,.02h-.36c-.93,.02-1.85,.03-2.78,.03h-.11s-.05,0-.08,0h-.09c-.09,0-.18,0-.27,0h-.64c-.11,0-.21,0-.36,0-1.39,0-2.67,0-3.91-.02-3.67-.05-7.37-.16-10.98-.33h-.06c-7.37-.37-14.63-1.01-21.57-1.9-.03,0-.07-.01-.1-.02h-.06c-2.26-.3-4.33-.59-6.33-.91-5.94-.92-11.7-2.04-17.13-3.34-1.38-.33-2.63-.64-3.84-.96-.12-.03-.24-.06-.39-.11l-.99-.26c-.48-.13-.95-.26-1.41-.4l-.08-.02s-.07-.02-.09-.03l-.14-.04c-.16-.04-.33-.09-.5-.14l-.06-.02c-.33-.09-.65-.19-.98-.29l-.07-.02c-6.83-2.02-12.97-4.33-18.27-6.9-.13-.06-.25-.12-.41-.2-2.07-1.01-4.06-2.1-5.92-3.23-2.56-1.56-4.83-3.2-6.74-4.86-.78-.68-1.51-1.37-2.18-2.06l-.13-.13c-.1-.1-.19-.19-.27-.29l-.04-.04c-.25-.27-.5-.55-.74-.82-.1-.12-.2-.24-.3-.36,.92,1.9,1.9,3.77,2.93,5.61,.59,1.05,1.19,2.09,1.81,3.12,1.23,.9,2.56,1.77,3.96,2.63,1.95,1.18,4.03,2.32,6.16,3.36,.15,.08,.3,.15,.45,.22,5.45,2.64,11.75,5.02,18.75,7.09l.07,.02c.34,.1,.68,.2,1.01,.29l.04,.02c.19,.05,.37,.11,.56,.16,.09,.03,.19,.05,.29,.08,.47,.14,.94,.27,1.42,.4l.98,.26c.15,.05,.31,.09,.45,.12,1.22,.32,2.5,.64,3.9,.98,5.51,1.32,11.36,2.47,17.39,3.39,2.02,.32,4.11,.61,6.39,.91,.03,0,.06,.01,.08,.01h.07c7.05,.92,14.42,1.56,21.9,1.93h.06c3.64,.18,7.35,.29,11.04,.34,1.26,.02,2.55,.03,3.92,.02,.13,0,.26,0,.38,0,.05,0,.11,0,.16,0,.08,0,.16,0,.24,0h.24c.1,0,.19,0,.29,0,.11,0,.21,0,.31,0,.92,0,1.85,0,2.77-.02h.38c.3-.01,.6-.02,.93-.02,.16,0,.33,0,.5-.01h.71c.1-.02,.2-.02,.3-.02,.22,0,.44-.01,.63-.02h.05c.35,0,.69-.02,1.03-.03h.02c.09,0,.18,0,.28,0,.05,0,.1,0,.15,0,.35,0,.7-.02,1.04-.03h.42c1.18-.05,2.35-.1,3.5-.15,.23,0,.47-.02,.7-.03,.17,0,.35-.02,.51-.03l.54-.02c2.02-.11,4.03-.23,5.99-.37h.08c.21-.02,.42-.03,.58-.05,.12,0,.23-.01,.33-.02,.16-.01,.33-.02,.49-.04,.11,0,.22-.01,.32-.02,.04,0,.08,0,.11,0h.14l.18-.02s.05,0,.07,0l.2-.02c.22-.02,.44-.03,.66-.05l1.4-.12h.07s.06,0,.09-.01h.09s.09-.01,.13-.02c.08,0,.17-.01,.25-.02h.04l.27-.02c.05,0,.11-.01,.15-.01h.06c1.57-.14,3.13-.3,4.66-.47,.69-.07,1.37-.15,2.06-.22h.32l.07-.05c1.17-.13,2.33-.28,3.48-.42l1.77-.23c1.71-.23,3.47-.49,5.36-.78l.6-.09s.01,0,.02,0l.39-.06c2.83-.45,5.67-.95,8.45-1.5,.56-.11,1.1-.22,1.65-.33,1.48-.3,2.87-.6,4.25-.9,.75-.17,1.49-.34,2.23-.51,1.53-.36,3.08-.74,4.61-1.14l.23-.06c.39-.1,.78-.2,1.16-.31,.13-.03,.26-.07,.38-.1,.5-.13,1.01-.28,1.53-.42l.76-.22c1.22-.34,2.47-.71,3.71-1.09l.5-.15c.43-.14,.86-.27,1.29-.41,.04-.01,.09-.03,.14-.05,.22-.06,.43-.14,.64-.21l.61-.2c.2-.07,.4-.13,.58-.2l.08-.03c.44-.15,.88-.29,1.3-.44,.39-.13,.77-.27,1.15-.4l.11-.04c.38-.14,.76-.27,1.11-.4,.19-.07,.38-.14,.57-.21l.13-.05c.28-.1,.56-.2,.83-.31l.48-.18,.13-.06c.14-.05,.28-.11,.42-.16l.46-.03,.22-.24c.21-.08,.41-.16,.61-.25l.17-.06c.24-.1,.48-.19,.72-.3,.22-.08,.44-.18,.65-.26,.38-.16,.75-.31,1.12-.47,.07-.03,.15-.06,.22-.09l.04-.02c.35-.15,.7-.3,1.04-.45,1.19-.52,2.35-1.06,3.45-1.59,.23-.11,.46-.22,.65-.32,.22-.1,.42-.21,.63-.31l.04-.02c.44-.22,.88-.45,1.3-.67,.51-.27,1.02-.54,1.51-.81,.32-.17,.64-.35,.95-.53,.61-.34,1.22-.7,1.81-1.06,.15-.08,.29-.17,.43-.26l.1-.06c1.52-.93,2.95-1.89,4.28-2.86,0,0,.02-.01,.03-.02,1.53-2.63,2.95-5.34,4.25-8.1-.02,.02-.03,.04-.05,.05Z"/><path class="d" d="M79.62,167.26c15.2,6.51,32.11,10.04,49.9,9.8,49.64-.68,91.7-30.55,108.34-72.19,3.4-8.5,5.74-17.49,6.86-26.82,.4-3.26,.64-6.56,.73-9.9,.04-1.48,.06-2.98,.03-4.47-.03-1.9-.1-3.78-.22-5.66-.44,3.7-2.11,7.29-4.86,10.72-1.03,1.29-2.21,2.56-3.54,3.8-12.8,11.99-39.04,21.58-71.7,26.03-2.3,12.79-7.94,35.2-20.67,49.75-13.3,15.18-35.94,20.69-64.88,18.94Z"/></g></g></g></svg>