<svg id="Layer_1" data-name="Layer 1" xmlns="http://www.w3.org/2000/svg" xmlns:xlink="http://www.w3.org/1999/xlink" width="70.92" height="73.54" viewBox="0 0 70.92 73.54">
  <defs>
    <style>
      .cls-1, .cls-4 {
        fill: #f9d1c6;
      }

      .cls-1 {
        stroke: #323232;
      }

      .cls-1, .cls-16, .cls-3, .cls-6 {
        stroke-miterlimit: 10;
        stroke-width: 0.25px;
      }

      .cls-10, .cls-2 {
        fill: #db9d8e;
      }

      .cls-2 {
        opacity: 0.63;
      }

      .cls-3 {
        fill: #077477;
      }

      .cls-3, .cls-6 {
        stroke: #0c7777;
      }

      .cls-5 {
        fill: #323232;
      }

      .cls-6, .cls-8 {
        fill: #00b6c2;
      }

      .cls-7 {
        fill: #0a2c2d;
        opacity: 0.22;
      }

      .cls-9 {
        fill: #0c7777;
      }

      .cls-11 {
        fill: #f5968e;
      }

      .cls-12 {
        fill: #951c27;
      }

      .cls-13 {
        fill: #d26653;
      }

      .cls-14 {
        fill: url(#linear-gradient);
      }

      .cls-15 {
        fill: #342517;
      }

      .cls-16 {
        fill: #fff;
        stroke: #3d2e17;
      }

      .cls-17 {
        fill: #2d2b21;
      }

      .cls-18 {
        fill: #f2f0e9;
      }

      .cls-19 {
        fill: #49442e;
      }
    </style>
    <linearGradient id="linear-gradient" x1="-360" y1="86.77" x2="-359.89" y2="89.22" gradientTransform="matrix(1.4, -0.26, 0.3, 1.62, 515.17, -207.49)" gradientUnits="userSpaceOnUse">
      <stop offset="0" stop-color="#e8d9d7"/>
      <stop offset="0.4" stop-color="#efe5e4"/>
      <stop offset="1" stop-color="#fff"/>
    </linearGradient>
  </defs>
  <g>
    <path class="cls-1" d="M70.63,71.75l-.14,1.34-2.66-.51a9.53,9.53,0,0,0-1.55-2.84l-.94,2.35s-1.49.39-.85-3.48l.24-2.18s-5.88-5.07-8.82-9.59L52.28,52.3l-.67-.84a7.76,7.76,0,0,1,5.08-4.72l1,1.31,2.8,3.49A103.18,103.18,0,0,1,68.85,66S70.18,70.09,70.63,71.75Z"/>
    <path class="cls-2" d="M57.73,48.05a15.6,15.6,0,0,1-5.45,4.25l-.67-.84a7.76,7.76,0,0,1,5.08-4.72Z"/>
    <path class="cls-3" d="M25.42,53.17s.34,1.79-1.51-.42a33.76,33.76,0,0,1-3.54-5.58s-.65-1.15.4-.87S25.42,53.17,25.42,53.17Z"/>
    <path class="cls-1" d="M25.62,51.54A19.81,19.81,0,0,1,24.11,53c-1.19,1-2.9,2.22-4.34,2.33-2.54.19-10-8.91-10.7-10.94s3.31-2,3.31-2,4.43,4.26,7.46,5l.29-.28,1-.9,0,0h0C21.37,46.35,25.11,49.45,25.62,51.54Z"/>
    <path class="cls-2" d="M21.09,46.17l0,0c.24.2,4,3.3,4.49,5.39A19.81,19.81,0,0,1,24.11,53a27.75,27.75,0,0,0-4-5.88Z"/>
    <g>
      <path class="cls-1" d="M9.9,45.57a5.56,5.56,0,0,1-4.09-1.93c-4.13-.06-4.55-.63-4.67-1.2s.6-.61.6-.61l3.52,0S1.48,40,.61,38.66.75,37.2,2.28,38s3,1.57,3,1.57.4-.1,0-.57S1.9,35.47,1.9,35.47a.81.81,0,0,1-.12-1.14c.52-.59,1.63.1,5.18,3.4,0,0,.07-.53-1.3-3,0,0-1-1.93-.14-2.76,0,0,.78-.19,3.33,4.58,0,0,1.35,2.25,2.23,2.55,0,0,.17.19.45-.9s1-2.08,2.27-1.73c0,0,.64,0,0,1a4.38,4.38,0,0,0-.57,3.06,5.5,5.5,0,0,1-.34,2.73"/>
      <g>
        <path class="cls-4" d="M8.41,36.5s-4.27,2.55-3.16,5.79"/>
        <path class="cls-5" d="M8.41,36.5a12.3,12.3,0,0,0-1.34,1.15A7.59,7.59,0,0,0,6,39a4.72,4.72,0,0,0-.72,1.56,4.09,4.09,0,0,0,0,1.74A3.58,3.58,0,0,1,5,40.51a4.78,4.78,0,0,1,.7-1.66A7.43,7.43,0,0,1,8.41,36.5Z"/>
      </g>
    </g>
    <path class="cls-6" d="M51.77,53.28l1.07,11s-1.79,1.61-10.47,1.79c-3.67.07-14.68.51-14.68.51A77.61,77.61,0,0,0,28,50.21l-1.51,2-1.1,1.43a14,14,0,0,0-5-7.3L21.49,45c1.43-1.64,3.84-4.35,4.7-5.21,1.26-1.25,8.53-3.69,8.53-3.69S44,33.85,51.21,38.34l5.5,6.42L58,46.25a30.48,30.48,0,0,1-6.37,5.21Z"/>
    <g>
      <path class="cls-1" d="M42.9,35.63s-1,3.32-3.08,3.84c-.2.05-1,1.72-1.17,1.72-.69,0-1.4-1.74-1.58-1.85-2-1.24-3-1.71-3.17-2.87,0-.21,0-.34,0-.34-.07-.44-1.19-2.53-.69-3.54.43-.84,3-.33,3-.33l5.06-.5c.06.46,1,.66,1.45,1.49a8,8,0,0,1,.23,2.36Z"/>
      <path class="cls-2" d="M42.6,35.77A6.06,6.06,0,0,1,39,37.27a8,8,0,0,1-5.12-.8c0-.21,0-.34,0-.34-.14-.17-1.24-2-.73-3,1.94-1,6.67-1,6.67-1l2.85,1.6C43,34.52,42.53,35.63,42.6,35.77Z"/>
      <path class="cls-7" d="M38.57,41.3,40.79,40s2.66.67,2.78.46a10.11,10.11,0,0,0,1.29-4.25L40.16,39Z"/>
      <path class="cls-6" d="M40.41,38.47,38.57,41.3l2-2.18,2.68.51a4.69,4.69,0,0,0,1.58-3.46L43,34.75A4.45,4.45,0,0,1,40.41,38.47Z"/>
      <path class="cls-7" d="M38.57,41.3l-2.2-1.23a14.65,14.65,0,0,1-2.8.61c-1-.83-1.5-4.18-1.5-4.18l4.68,2.43Z"/>
      <path class="cls-6" d="M36.7,38.72l1.87,2.58-2.09-2.14-2.53.5s-1.24-.27-1.88-3.16l1.62-1.41S33.51,37.63,36.7,38.72Z"/>
    </g>
    <path class="cls-1" d="M11.28,38.93a4.09,4.09,0,0,0-1.41,3"/>
    <g>
      <path class="cls-4" d="M19.73,47.33a4.65,4.65,0,0,1,1.87,3.35"/>
      <path class="cls-5" d="M19.8,47.22a4,4,0,0,1,1.25,1.56,6.37,6.37,0,0,1,.55,1.9,6.23,6.23,0,0,0-.66-1.84,3.85,3.85,0,0,0-1.27-1.41Z"/>
    </g>
    <g>
      <line class="cls-8" x1="28.06" y1="51.21" x2="27.79" y2="45.66"/>
      <polygon class="cls-9" points="27.94 51.22 27.79 45.66 28.19 51.2 27.94 51.22"/>
    </g>
    <g>
      <line class="cls-8" x1="51.71" y1="52.66" x2="50.91" y2="45.3"/>
      <polygon class="cls-9" points="51.59 52.68 50.91 45.3 51.84 52.65 51.59 52.68"/>
    </g>
    <g>
      <g>
        <path class="cls-1" d="M50.7,23.15c-.62,2-2.38,3.09-4,2.59s-1.21-1.63-.58-3.66.7-1.82,2.1-2.76C51.3,17.25,51.33,21.12,50.7,23.15Z"/>
        <path class="cls-10" d="M48.91,20.05a.83.83,0,0,1,.72,0,1,1,0,0,1,.4.87,5.47,5.47,0,0,1-1,3.31,1.4,1.4,0,0,1-.38.42.53.53,0,0,1-.54,0,.59.59,0,0,1-.21-.58,3,3,0,0,1,.82-1.38A1.19,1.19,0,0,0,49,22.3a.41.41,0,0,0-.12-.41.61.61,0,0,0-.33-.1,3.19,3.19,0,0,0-.69.1c-.15-.33.08-.7.25-1A2.07,2.07,0,0,1,48.91,20.05Z"/>
      </g>
      <g>
        <path class="cls-1" d="M23.28,28c1.14,1.72,2.87,2.17,4,1.19s.45-1.93-.69-3.65S25.46,24,24,23.57C20.94,22.58,22.14,26.25,23.28,28Z"/>
        <path class="cls-10" d="M23.73,24.47a.63.63,0,0,0-.58.19,1.11,1.11,0,0,0,0,.95,5.82,5.82,0,0,0,1.82,2.82,1.22,1.22,0,0,0,.44.28.4.4,0,0,0,.44-.15.67.67,0,0,0,0-.6,3,3,0,0,0-1.09-1.05.93.93,0,0,1-.29-.3.48.48,0,0,1,0-.42A.41.41,0,0,1,24.6,26a2,2,0,0,1,.58-.13c0-.36-.29-.64-.5-.84A1.87,1.87,0,0,0,23.73,24.47Z"/>
      </g>
      <g>
        <path class="cls-1" d="M47.69,15.84c-1-7-5.49-11-13.41-9.7-7.7,1.26-11.52,6-10.54,13A86.76,86.76,0,0,0,25.88,28c.63,6.33,9,9.16,13.48,8.2,3.21-.68,9.72-6.5,8.74-11.84A82.67,82.67,0,0,0,47.69,15.84Z"/>
        <g>
          <path class="cls-11" d="M32.77,29.6s3.45-.31,4.7-.57,5.07-1.11,5.07-1.11-1.48,4.52-4,5.22C36.09,33.8,32.77,29.6,32.77,29.6Z"/>
          <g>
            <path class="cls-12" d="M37.72,29c-1.33.18-5.23.37-5.23.37s3.71,3.17,5.75,2.92,4.52-4.75,4.52-4.75A44.91,44.91,0,0,1,37.72,29Z"/>
            <path class="cls-13" d="M39.79,30.41a7.84,7.84,0,0,0-1.15.13,1.33,1.33,0,0,0-.61.26,3.55,3.55,0,0,0-1.81.17c-.93.36-.81.42-.76.53a5.07,5.07,0,0,0,2.78.82,3.42,3.42,0,0,0,1.85-1.12,4.88,4.88,0,0,0,.56-.55C40.85,30.48,40.6,30.41,39.79,30.41Z"/>
          </g>
          <path class="cls-10" d="M42.44,26.8s.2,1.32.78,1.4-.08-.45-.25-.66S42.44,26.8,42.44,26.8Z"/>
          <path class="cls-10" d="M32.64,28.53s.23,1.32-.29,1.57-.12-.43,0-.67A6.91,6.91,0,0,0,32.64,28.53Z"/>
          <path class="cls-14" d="M33.69,29.39s.55,1.84,4.28,1.19,3.47-2.52,3.47-2.52a18,18,0,0,1-3.75,1.05C36.48,29.31,35,29,33.69,29.39Z"/>
          <path class="cls-11" d="M32.49,29.4a13.56,13.56,0,0,0,5.11.17c4.88-1.06,5.16-2,5.16-2a52.79,52.79,0,0,1-5.26,1.32C36.19,29,32.49,29.4,32.49,29.4Z"/>
        </g>
        <path class="cls-15" d="M32.7,18.16c-.93-.07-4,.48-4.47,2.49a11,11,0,0,1,4.49-1.45S33.16,18.2,32.7,18.16Z"/>
        <path class="cls-15" d="M38.81,17.18c.83-.4,3.93-1,5.06.73a11,11,0,0,0-4.71.25S38.39,17.39,38.81,17.18Z"/>
        <path class="cls-10" d="M27.52,15.2s2.5,2,11.14.57l-.44-1.15s1.42,1.07,6.59,1.19l3.24,6.06L45.22,9,26.73,10.39l-2.31,3.39.74,3.55s-.69,5.91,0,8.29L26,21.06S28.35,21.86,27.52,15.2Z"/>
      </g>
      <path class="cls-15" d="M27,13.37s-.42,2.93,11.26,1.78c0,0-.32-.09-1.79-2.73,1.88,3.24,6.12,2.43,8.44,2.8L44,12l4,9.88s.51-2.51.6-3.86a18.52,18.52,0,0,0-1-5.72A4.07,4.07,0,0,1,48.78,14s-.15-6.38-5.48-9.88a15.12,15.12,0,0,1,2.79.73,13,13,0,0,0-11-4.29c-3.6.4-8.64,1.94-9.68,5.77,0,0-3.5-1-4.54,4.79,0,0,1.05-2.1,2.61-2.34,0,0-2.14,1.06-2.18,6.48,0,5.12,1.69,7.71,3.88,11a45.35,45.35,0,0,1,.51-7.6l.44,1.87S27.7,20.42,27,13.37Z"/>
      <g>
        <ellipse class="cls-16" cx="41.37" cy="22.11" rx="2.34" ry="2.58" transform="translate(-3.2 7.49) rotate(-9.97)"/>
        <ellipse class="cls-17" cx="41.35" cy="22.01" rx="1.45" ry="1.61" transform="translate(-3.18 7.49) rotate(-9.97)"/>
        <ellipse class="cls-18" cx="42.02" cy="20.75" rx="0.42" ry="0.47" transform="translate(-2.96 7.59) rotate(-9.97)"/>
      </g>
      <g>
        <ellipse class="cls-16" cx="31.25" cy="23.89" rx="2.34" ry="2.58" transform="translate(-3.66 5.77) rotate(-9.97)"/>
        <ellipse class="cls-17" cx="31.23" cy="23.78" rx="1.45" ry="1.61" transform="translate(-3.65 5.76) rotate(-9.97)"/>
        <ellipse class="cls-18" cx="31.9" cy="22.53" rx="0.42" ry="0.47" transform="translate(-3.42 5.86) rotate(-9.97)"/>
      </g>
      <g>
        <path class="cls-4" d="M35.16,26.11a3.85,3.85,0,0,0,1.66.63c.91.08,2-1.27,2-1.27"/>
        <path class="cls-19" d="M35.16,26.11a6.48,6.48,0,0,0,1,.38,2.25,2.25,0,0,0,1,.1,2.5,2.5,0,0,0,.89-.45,10.28,10.28,0,0,0,.81-.67,3.85,3.85,0,0,1-.69.82,2.36,2.36,0,0,1-.95.54,2.11,2.11,0,0,1-1.1-.16A3.29,3.29,0,0,1,35.16,26.11Z"/>
      </g>
    </g>
    <path class="cls-7" d="M51.61,51.46l.16,1.82-.36-3.35s4.34-3.24,5.3-5.17L58,46.25A30.48,30.48,0,0,1,51.61,51.46Z"/>
    <path class="cls-7" d="M26.47,52.18l-1.1,1.43a14,14,0,0,0-5-7.3L21.49,45C22.6,45.93,26,49,26.47,52.18Z"/>
  </g>
</svg>
