<svg xmlns="http://www.w3.org/2000/svg" viewBox="0 0 186.29 146.3"><defs><style>.cls-1{fill:#dbdbdb;}.cls-1,.cls-2,.cls-3{fill-rule:evenodd;}.cls-2{fill:#72c91e;}.cls-3{fill:#bababa;}</style></defs><g id="Layer_8" data-name="Layer 8"><path class="cls-1" d="M95.15,19.69c-26.74,0-48.42-3.83-48.42-8.56S68.41,2.58,95.15,2.58s48.41,3.83,48.41,8.55-21.68,8.56-48.41,8.56Z"/><path class="cls-1" d="M143.57,111.65c-22.32,13.5-79.22,12.43-96.85,0l0-100.49c27.3,11,69.53,10.8,96.83-.24V111.65Z"/><path class="cls-2" d="M116.8,111.22c19.3-1.75,27.62-.15,27.77,1.14,1.34,11.07-23,6.12-23,9.16,12.15,14.29-7.28,4.31-13,6.62,1.83,6-2,2.93-5.35,4.56,3.13,10.73-4.53,2.78-4.65,2.71-3.31.53-.76,7.18-6-.83-4.45,2.44-6,2-6-2.35-.1,0-5,3.06-4.69-1-6.86-2.88-1.45,4.87-9.81-1.74-3.54,2.87-4,3.55-9.81-.69.14,3.55-7.28,11-9.47,2.08-1.85-7.52-13,5.21-7.5-3.18-6-.51-6,2.59-14.57.11-5-1.46-16,5.18-11-4.22,2.51-4.78,9.74-1.18,16.4.79,8.45,2.51,15,1.14,9.37-5.93-2.81-3.52-4.12-2.24-8.69-1.83-4,.36-8.44.35-10.12-3-2.16-4.22,5-11.7,19.82-2.11,9.09,5.89,22.44,3.68,26.61,3.68,13.21,0,31.12-6.85,43.68-4Zm31,26.26c.08,6.09-16.56,7.05-6.41-.72,1.86-1.43,2.63-1.71,6.41.72Zm5-11.58c2.36-.52,3.44,3.19,5.35-3.35.61-1.5.28-1.61,3.68-1.09,1.07,2.52,13.06,4.66,15.73,2.46,4.67-3.84-1.67-14.28-6.53-8s-9.82-4.91-15.15-2.7c-3.76,1.56-1.26,8.16-10.94,8.21-20.75.1-20,6.78-7,5,1.16-.15,9.58,10.78,14.86-.58Zm-37.13,8.71c8.12,6.95,30.19.62,9.59-1.41-4.08-.41-2.75,2.37-8.46-.7-3-1.64-11.79-4.74-1.13,2.11ZM56.55,142c10.81-5.24-3.1-7.5-2.43-3.56.49,2.82,2.15,3.69,2.43,3.56Zm-22.46-7.16c-2.93-.3-5.39,9.58,1.31,5.9,2.24-1.22,10.75-4.15,8.75-9.31-.49-1.26,2.2,4.65-10.06,3.41Z"/><path class="cls-2" d="M95.15,19c-24.54,0-44.44-2.5-44.44-5.58s19.42-6.85,44-6.85,44.91,3.76,44.91,6.85S119.69,19,95.15,19Z"/><path class="cls-3" d="M143.57,26.31c-22.32,13.5-79.22,12.42-96.85,0V11.14c21.88,9.34,71.81,10,96.85-.22V26.31Z"/><path class="cls-3" d="M143.57,111.65c-22.32,13.5-79.22,12.43-96.85,0V96.49c21.88,9.33,71.81,10,96.85-.22v15.38Z"/><path class="cls-2" d="M68.44,16.61c.27,2.76,4.45,5.74,4.61,11.22.06,2.11,6.4,4.55,6.5,12.28C79.62,46,83.92,42,84,54.2c0,6.12-.69,9,1.6,14.64,2.12,5.22,1.77,8.86.43,14-1.66,6.43,8.1,10.41,9.07,5,1.18-6.69-6.24-13.34-3.18-18.73,2.54-4.48,1.34-24.2,11.48-14.71,3.27,3.06-.61,13.94-1.4,17.41-1.19,5.28,1.17,22,1.11,29.17-.06,8.21-7.73,17.48,4.64,15.54,5.17-.81-.17-12.63,0-16.6.15-4.25-.51-4.1.29-9.53,1.2-8.15-.29-16-.29-24.19,0-7,.39-9.55-.9-16.24a11,11,0,0,1,6.75-12.7c6-2.53,4.84,12.42,4.94,14.8.38,8.69,1.83,14.36,1.83,23.63,0,8.1-.47,6.62-2.07,14.94-3.61,18.75,11.94,26.12,7.75,2-1.26-7.3-.76-11.06-.25-17,.37-4.37-.65-9.42-.65-13.74,0-8.49-3.24-11.31-3.24-19.19,0-11.62,7.08-14.64,7-4.46,0,.29-.94,12,2.47,8.78,4.11-3.92,1.45-9.53.16-13.51-1.81-5.58,1.13-4.07,2.42-7.63.36-1,4.38-6.76,3.46-12.67-24.32,6.92-51.81,5.71-69,3.53Z"/></g></svg>