<svg xmlns="http://www.w3.org/2000/svg" xmlns:xlink="http://www.w3.org/1999/xlink" viewBox="0 0 1920 900"><defs><style>.cls-1{mask:url(#mask);filter:url(#luminosity-noclip-2);}.cls-2,.cls-26,.cls-34,.cls-36{mix-blend-mode:multiply;}.cls-2{fill:url(#linear-gradient);}.cls-18,.cls-3,.cls-37,.cls-63,.cls-70,.cls-71,.cls-94{fill:none;}.cls-4{isolation:isolate;}.cls-5{clip-path:url(#clip-path);}.cls-6{fill:#fff;}.cls-7{fill:#eae0d0;}.cls-8{fill:#f7efed;}.cls-9{fill:#b2a68a;}.cls-10{clip-path:url(#clip-path-2);}.cls-11{clip-path:url(#clip-path-3);}.cls-12{fill:#a5e9f9;}.cls-13{fill:url(#linear-gradient-2);}.cls-14{fill:#c1bfbf;}.cls-15{fill:#848483;}.cls-16{fill:#98a3b0;}.cls-17{fill:url(#linear-gradient-3);}.cls-18,.cls-37,.cls-63{stroke:#6b2727;}.cls-18,.cls-37,.cls-63,.cls-70,.cls-71,.cls-91,.cls-94{stroke-miterlimit:10;}.cls-18,.cls-91,.cls-94{stroke-width:0.75px;}.cls-19{fill:#876c64;}.cls-19,.cls-20,.cls-23,.cls-24,.cls-28{opacity:0.8;}.cls-20,.cls-42,.cls-45{fill:#4f3b37;}.cls-21{fill:#00afb0;}.cls-22,.cls-23,.cls-34{fill:#ad734b;}.cls-25{fill:#6d3f1f;}.cls-26,.cls-36{fill:#c9a5bb;}.cls-27{opacity:0.7;}.cls-28{fill:#9e8a7a;}.cls-29{fill:#60818a;}.cls-30{fill:#006c7d;}.cls-31{fill:#dc9d72;}.cls-32{fill:url(#linear-gradient-4);}.cls-33{fill:#705f54;}.cls-35{fill:#674758;}.cls-36,.cls-40,.cls-45,.cls-83{opacity:0.3;}.cls-37,.cls-70,.cls-71{stroke-width:0.5px;}.cls-38,.cls-39{fill:#b53c39;}.cls-38,.cls-65{opacity:0.5;}.cls-40,.cls-41,.cls-65,.cls-66{fill:#fc784f;}.cls-41,.cls-68,.cls-76{opacity:0.4;}.cls-43{fill:#824014;}.cls-44{fill:#f7eada;}.cls-46{mask:url(#mask-2);}.cls-47{fill:url(#linear-gradient-5);}.cls-48{fill:#8c8c8c;}.cls-49{fill:url(#linear-gradient-6);}.cls-50{fill:#293947;}.cls-51{fill:#2e4356;opacity:0.68;}.cls-52{opacity:0.36;}.cls-53{fill:#5e5a5a;}.cls-54{fill:#595858;}.cls-55{fill:url(#linear-gradient-7);}.cls-56{fill:url(#linear-gradient-8);}.cls-57{fill:url(#linear-gradient-9);}.cls-58{fill:url(#linear-gradient-10);}.cls-59{fill:url(#linear-gradient-11);}.cls-60{fill:#c14733;}.cls-61{fill:#6b2727;}.cls-62{fill:#ee4036;}.cls-63{stroke-width:0.25px;}.cls-63,.cls-64{opacity:0.56;}.cls-66{opacity:0.71;}.cls-67{fill:#6f3521;}.cls-68,.cls-75{fill:#8e8e8d;}.cls-68{mix-blend-mode:screen;}.cls-69{fill:#70706f;}.cls-70{stroke:#5b5b5b;}.cls-71{stroke:#fff;}.cls-72{fill:url(#linear-gradient-12);}.cls-73{fill:url(#linear-gradient-13);}.cls-74{fill:#e8e8e8;}.cls-76{fill:#383837;}.cls-77{fill:#e0dfde;}.cls-78{fill:#eaeaea;}.cls-79{fill:url(#linear-gradient-14);}.cls-80{fill:#69844f;}.cls-81{fill:#562917;}.cls-82{fill:#adacac;}.cls-84{fill:#ad886a;}.cls-85{fill:url(#linear-gradient-15);}.cls-86{fill:url(#linear-gradient-16);}.cls-87{fill:#227a29;}.cls-88{fill:#009b12;}.cls-89{fill:#022705;}.cls-90{fill:#356d1b;}.cls-91{fill:#294c54;stroke:#303030;}.cls-92{fill:#122209;}.cls-93{fill:#5b5b5b;}.cls-94{stroke:#9b8579;}.cls-95{fill:#4c9f32;}.cls-96{filter:url(#luminosity-noclip);}</style><filter id="luminosity-noclip" x="441.9" y="-8182" width="987.79" height="32766" filterUnits="userSpaceOnUse" color-interpolation-filters="sRGB"><feFlood flood-color="#fff" result="bg"/><feBlend in="SourceGraphic" in2="bg"/></filter><mask id="mask" x="441.9" y="-8182" width="987.79" height="32766" maskUnits="userSpaceOnUse"><g class="cls-96"/></mask><linearGradient id="linear-gradient" x1="935.8" y1="151.72" x2="935.8" y2="168.05" gradientUnits="userSpaceOnUse"><stop offset="0.23" stop-color="#fff"/><stop offset="0.3" stop-color="#f0f0f0"/><stop offset="0.44" stop-color="#c8c8c8"/><stop offset="0.64" stop-color="#888"/><stop offset="0.88" stop-color="#303030"/><stop offset="1"/></linearGradient><clipPath id="clip-path"><rect class="cls-3" x="-1940" y="-920.91" width="1920" height="901.82"/></clipPath><clipPath id="clip-path-2"><rect class="cls-3" width="1920" height="900"/></clipPath><clipPath id="clip-path-3"><rect class="cls-3" x="-6.29" width="1926.29" height="905.46"/></clipPath><linearGradient id="linear-gradient-2" x1="960" y1="453.28" x2="960" y2="-410.59" gradientUnits="userSpaceOnUse"><stop offset="0" stop-color="#eef6e9"/><stop offset="0.03" stop-color="#e4f1ea"/><stop offset="0.16" stop-color="#c4e1ee"/><stop offset="0.3" stop-color="#aad4f0"/><stop offset="0.43" stop-color="#97caf2"/><stop offset="0.58" stop-color="#8dc5f4"/><stop offset="0.74" stop-color="#89c3f4"/><stop offset="0.78" stop-color="#86c1f2"/><stop offset="0.8" stop-color="#7ebced"/><stop offset="0.82" stop-color="#70b3e3"/><stop offset="0.84" stop-color="#5ca6d5"/><stop offset="0.85" stop-color="#4295c3"/><stop offset="0.86" stop-color="#2280ae"/><stop offset="0.87" stop-color="#1779a6"/></linearGradient><linearGradient id="linear-gradient-3" x1="1873.73" y1="308.79" x2="3539.33" y2="308.79" gradientTransform="translate(-615.56)" gradientUnits="userSpaceOnUse"><stop offset="0.59" stop-color="#c44422"/><stop offset="0.59" stop-color="#c74522"/><stop offset="0.59" stop-color="#cf4923"/><stop offset="0.59" stop-color="#dd5125"/><stop offset="0.59" stop-color="#f05a28"/><stop offset="0.7" stop-color="#f15c2b"/><stop offset="0.77" stop-color="#f36233"/><stop offset="0.82" stop-color="#f66d41"/><stop offset="0.86" stop-color="#f9764e"/></linearGradient><linearGradient id="linear-gradient-4" x1="-274.19" y1="318.39" x2="2273.06" y2="318.39" gradientTransform="matrix(1, 0, 0, 1, 0, 0)" xlink:href="#linear-gradient-3"/><filter id="luminosity-noclip-2" x="441.9" y="151.69" width="988.9" height="15.38" filterUnits="userSpaceOnUse" color-interpolation-filters="sRGB"><feFlood flood-color="#fff" result="bg"/><feBlend in="SourceGraphic" in2="bg"/></filter><mask id="mask-2" x="441.9" y="151.69" width="988.9" height="15.38" maskUnits="userSpaceOnUse"><g class="cls-1"><rect class="cls-2" x="441.9" y="151.69" width="987.79" height="15.07"/></g></mask><linearGradient id="linear-gradient-5" x1="936.35" y1="151.72" x2="936.35" y2="168.38" gradientUnits="userSpaceOnUse"><stop offset="0.23" stop-color="#7a7e7e"/><stop offset="1" stop-color="#7a7e7e"/></linearGradient><linearGradient id="linear-gradient-6" x1="942.52" y1="770.36" x2="942.52" y2="338.37" gradientUnits="userSpaceOnUse"><stop offset="0" stop-color="#c6c9cc"/><stop offset="0.29" stop-color="#d6d7d9"/><stop offset="0.66" stop-color="#e3e3e4"/><stop offset="1" stop-color="#e7e7e8"/></linearGradient><linearGradient id="linear-gradient-7" x1="1370.55" y1="307.23" x2="1405.49" y2="307.23" gradientUnits="userSpaceOnUse"><stop offset="0.03" stop-color="#7a7e7e"/><stop offset="0.04" stop-color="#838787"/><stop offset="0.06" stop-color="#9fa2a3"/><stop offset="0.08" stop-color="#b5b7b9"/><stop offset="0.11" stop-color="#c4c6c8"/><stop offset="0.14" stop-color="#cdcfd1"/><stop offset="0.18" stop-color="#d0d2d4"/><stop offset="0.62" stop-color="#f0f1f2"/></linearGradient><linearGradient id="linear-gradient-8" x1="1403.7" y1="257.09" x2="1371.01" y2="257.09" gradientUnits="userSpaceOnUse"><stop offset="0.29" stop-color="#3a3d41"/><stop offset="1" stop-color="#585e66"/></linearGradient><linearGradient id="linear-gradient-9" x1="477.1" y1="306.44" x2="511.02" y2="306.44" xlink:href="#linear-gradient-7"/><linearGradient id="linear-gradient-10" x1="509.29" y1="257.74" x2="477.54" y2="257.74" xlink:href="#linear-gradient-8"/><linearGradient id="linear-gradient-11" x1="952.92" y1="298.48" x2="952.92" y2="-212.19" gradientUnits="userSpaceOnUse"><stop offset="0" stop-color="#ee4036"/><stop offset="0.26" stop-color="#ef4831"/><stop offset="0.59" stop-color="#f05a28"/><stop offset="0.7" stop-color="#f15c2b"/><stop offset="0.77" stop-color="#f36233"/><stop offset="0.82" stop-color="#f66d41"/><stop offset="0.86" stop-color="#f9764e"/></linearGradient><linearGradient id="linear-gradient-12" x1="1519.46" y1="682.88" x2="1694.58" y2="682.88" gradientUnits="userSpaceOnUse"><stop offset="0.04" stop-color="#705137"/><stop offset="0.34" stop-color="#816148"/><stop offset="0.86" stop-color="#705137"/></linearGradient><linearGradient id="linear-gradient-13" x1="1519.46" y1="680.29" x2="1694.58" y2="680.29" gradientUnits="userSpaceOnUse"><stop offset="0" stop-color="#8c6b54"/><stop offset="0.36" stop-color="#ae896b"/><stop offset="0.66" stop-color="#a68265"/><stop offset="1" stop-color="#8c6b54"/></linearGradient><linearGradient id="linear-gradient-14" x1="1712.1" y1="684.95" x2="1923.59" y2="684.95" gradientUnits="userSpaceOnUse"><stop offset="0" stop-color="#96a343"/><stop offset="0.04" stop-color="#9baa47"/><stop offset="0.14" stop-color="#a4b44f"/><stop offset="0.25" stop-color="#a7b851"/><stop offset="0.51" stop-color="#a7b851"/><stop offset="0.95" stop-color="#96a343"/></linearGradient><linearGradient id="linear-gradient-15" x1="-476.16" y1="695.6" x2="1643.12" y2="695.6" gradientUnits="userSpaceOnUse"><stop offset="0" stop-color="#96a343"/><stop offset="0.05" stop-color="#84a13c"/><stop offset="0.11" stop-color="#719f35"/><stop offset="0.17" stop-color="#679e31"/><stop offset="0.25" stop-color="#639e30"/><stop offset="0.51" stop-color="#2da035"/><stop offset="0.95" stop-color="#96a343"/></linearGradient><linearGradient id="linear-gradient-16" x1="9.24" y1="721.69" x2="309.08" y2="721.69" gradientUnits="userSpaceOnUse"><stop offset="0" stop-color="#97a444" stop-opacity="0.79"/><stop offset="0.19" stop-color="#97a444" stop-opacity="0.89"/><stop offset="0.43" stop-color="#96a343" stop-opacity="0.97"/><stop offset="0.65" stop-color="#96a343"/></linearGradient></defs><g class="cls-4"><g id="Layer_1" data-name="Layer 1"><g class="cls-5"><path class="cls-6" d="M-1990.6-1054.41V99.21H79.49V48.82h38.39V4.3H79.49V-52h38.39v-9.21l7.87,0v-9.59l-7.87-2.63V-96.53H79.49v-56.31h38.39v-36.31h7.87v-8.23H138.7l-16.08-5.89L79.49-219.07v-34.61h38.39V-298.2H79.49v-56.31h38.39V-399H79.49v-56.31h38.39v-44.52H79.49v-56.31h38.39V-600.7H79.49V-657h38.39v-44.52H79.49v-56.31h38.39v-44.52H79.49V-909.09H391.76v-145.32ZM214.86-45.54V-41l7.85,2.63v-7.18Z"/><path class="cls-7" d="M95.4-117l15.81,7.35H98.48v10.26H90.74v45.26H53V16H90.74V44.77l7.74,3.28V60l-7.74,0V71.51H53v56.65H-2191.16V-181.27H90.74v1.37H53v43.14Q74.2-126.89,95.4-117Z"/><polygon class="cls-8" points="193.82 79.6 193.82 88.56 186.1 85.28 186.1 79.58 193.82 79.6"/><line class="cls-9" x1="-554.44" y1="-181.84" x2="2.87" y2="320.92"/><line class="cls-9" x1="202.14" y1="83.92" x2="-116.47" y2="-112.52"/></g><g class="cls-10"><g class="cls-11"><polyline class="cls-12" points="1361.7 643.25 1361.7 643.25 1332.96 643.29 1361.7 643.25 1361.7 643.25 1359.77 638.15"/><rect class="cls-13" width="1920" height="524.73"/><path class="cls-14" d="M200.49,733.21s1582.15-46.13,1765.45,1.17l-15.5,169.78-2208-5.19V827c98.19,0,146-86.08,244.24-86.07C39.2,703.48,200.49,733.21,200.49,733.21Z"/><path class="cls-15" d="M1946.18,900c-632.74.78-1338.09,4.69-1970.83,5.46V882.84c632.74.42,1319.4,3,1952.13,3.45Z"/><path class="cls-16" d="M1934.18,642.78c-171.83-1-478.88-2-650.71-3V400.65c48-3.47,96,8,144,4.49L1602,267.67l162.49,147.86h169.66Z"/><path class="cls-17" d="M1602,202H1337.54l-79.37,208h181.37L1602,282.91l162.49,132.62h164.36l5.3-213.49Z"/><path class="cls-18" d="M1923.12,273.19c-149.44.35-330.11.35-478.48,0"/><path class="cls-18" d="M1681.65,320.77c46.28.07,192,2.38,238.35,1.75"/><path class="cls-18" d="M1501.51,320.65l1.31,11.9-58.36,45-.7-57.15c30.77-.67,60.77.9,92,.68"/><polygon class="cls-19" points="1787.22 415.53 1603.29 267.67 1421.3 410 1440.8 410 1601.86 283 1764.52 415.53 1787.22 415.53"/><path class="cls-20" d="M1803.15,415.53c-65.55-50.93-137-107.4-202.5-158.33L1400.53,410h20.77l179.35-137.79c59.94,45.93,126.63,97.4,186.57,143.32Z"/><polygon class="cls-21" points="1509.95 408.81 1596.15 341.39 1682.35 408.81 1509.95 408.81"/><path class="cls-22" d="M1596.15,334.85l-100.47,78.58h200.94Zm0,13.08,71.93,56.25H1524.23Z"/><path class="cls-23" d="M1596.15,334.85l-100.47,78.58h200.94Zm0,13.08,71.93,56.25H1524.23Z"/><g class="cls-24"><polygon class="cls-25" points="1524.23 404.18 1538.5 404.18 1603.29 353.51 1596.15 347.93 1524.23 404.18"/><polygon class="cls-25" points="1610.42 334.85 1596.15 334.85 1696.62 413.43 1710.9 413.43 1610.42 334.85"/></g><path class="cls-26" d="M1603.29,353.51l-64.79,50.67h22L1614,362Z"/><g class="cls-27"><rect class="cls-28" x="1566.36" y="477.97" width="68.57" height="147.84"/><rect class="cls-21" x="1574.88" y="489.55" width="51.53" height="50.76"/><rect class="cls-21" x="1574.88" y="563.47" width="51.53" height="50.76"/><path class="cls-22" d="M1634.93,468.7h-86.41V634l10.29-.74-2.48-154.8h78.6V634h7.82V468.7Z"/><rect class="cls-29" x="1614.06" y="547.25" width="11.11" height="4.63"/><rect class="cls-25" x="1642.75" y="468.7" width="10.04" height="174.93"/><path class="cls-25" d="M1566.24,624.45q-3.71,4.41-7.43,8.8-1.24-77.64-2.48-155.28h10Z"/></g><g class="cls-24"><path class="cls-21" d="M1727.48,482.06v74.41h134.68V482.06Z"/><path class="cls-22" d="M1727.48,482.06v74.41h134.68V482.06Zm70.81,33.67h56.93v35h-56.93Zm-63.87,0h56.93v35h-56.93Zm0-27.92h120.8V510h-120.8Z"/><rect class="cls-25" x="1734.42" y="515.73" width="7.81" height="35"/><rect class="cls-25" x="1734.42" y="487.81" width="7.81" height="22.17"/><rect class="cls-25" x="1798.29" y="515.73" width="7.81" height="35"/><rect class="cls-25" x="1862.16" y="482.06" width="7.81" height="74.41"/><rect class="cls-26" x="1734.42" y="515.73" width="12.92" height="35"/><rect class="cls-26" x="1734.42" y="487.81" width="12.92" height="22.17"/><rect class="cls-26" x="1798.29" y="515.73" width="12.92" height="35"/><rect class="cls-26" x="1862.16" y="482.06" width="12.92" height="74.41"/><rect class="cls-26" x="1348.42" y="516.18" width="12.92" height="35"/><rect class="cls-26" x="1348.42" y="488.26" width="12.92" height="22.17"/><rect class="cls-26" x="1412.29" y="516.18" width="12.92" height="35"/></g><g class="cls-24"><rect class="cls-26" x="1504.61" y="471.45" width="4.93" height="102.88"/><path class="cls-30" d="M1437.31,471.45V574.33h69.77V471.45Z"/><path class="cls-25" d="M1437.31,471.45V574.33h69.77V471.45Zm33.56,97.72H1440V537.72h30.91Zm33.56,0h-30.91V537.72h30.91Zm0-36.62H1440V476.61h64.47Z"/><rect class="cls-31" x="1501.44" y="537.72" width="2.98" height="31.45"/><rect class="cls-31" x="1501.44" y="476.61" width="2.98" height="55.94"/><rect class="cls-31" x="1467.89" y="537.72" width="2.98" height="31.45"/><rect class="cls-31" x="1434.33" y="471.45" width="2.98" height="102.88"/><rect class="cls-26" x="1439.96" y="537.72" width="2.89" height="31.45"/><rect class="cls-26" x="1439.96" y="476.61" width="2.89" height="55.94"/><rect class="cls-26" x="1473.52" y="537.72" width="2.89" height="31.45"/></g><rect class="cls-25" x="1644.51" y="629.12" width="441.63" height="21.51"/><rect class="cls-16" x="-55.71" y="429.17" width="533.06" height="228.92"/><path class="cls-32" d="M-48.65,431.41Q-47.4,318.71-46.18,206l152.62-.19,391.08-.48,22.86,226.05Z"/><rect class="cls-26" x="332.25" y="485.97" width="18.35" height="120.09"/><path class="cls-30" d="M81.87,486V606.06H341.43V486Z"/><path class="cls-25" d="M81.87,486V606.06H341.43V486ZM206.72,600h-115V563.32h115Zm124.85,0h-115V563.32h115Zm0-42.74H91.73V492H331.57Z"/><rect class="cls-31" x="320.47" y="563.32" width="11.1" height="36.72"/><rect class="cls-31" x="320.47" y="491.99" width="11.1" height="65.3"/><rect class="cls-33" x="195.62" y="563.32" width="11.1" height="36.72"/><rect class="cls-33" x="70.77" y="485.97" width="11.1" height="120.09"/><g class="cls-24"><rect class="cls-34" x="91.73" y="563.32" width="10.74" height="36.72"/><rect class="cls-34" x="91.73" y="491.99" width="10.74" height="65.3"/></g><rect class="cls-26" x="216.58" y="563.32" width="10.74" height="36.72"/><rect class="cls-35" x="-50.53" y="431.41" width="570.91" height="10.37"/><rect class="cls-36" x="-50.53" y="441.78" width="507.2" height="19.33"/><line class="cls-37" x1="456.03" y1="396.71" x2="-21.12" y2="395.49"/><line class="cls-37" x1="465.6" y1="353.41" x2="-11.55" y2="352.19"/><line class="cls-37" x1="477.13" y1="319.19" x2="-8.82" y2="318.03"/><line class="cls-37" x1="477.13" y1="285.03" x2="-8.82" y2="283.87"/><line class="cls-37" x1="480.06" y1="253.41" x2="-5.89" y2="252.25"/><line class="cls-37" x1="477.13" y1="225.75" x2="-8.82" y2="224.59"/><line class="cls-18" x1="94.82" y1="205.36" x2="40.85" y2="429.06"/><line class="cls-18" x1="201.88" y1="205.36" x2="175.12" y2="429.06"/><line class="cls-18" x1="312.89" y1="205.36" x2="312.89" y2="427.12"/><line class="cls-18" x1="405.77" y1="218.33" x2="421.24" y2="429.06"/><path class="cls-38" d="M295.73,354v43.75l-112.79-.34q2.09-22.07,4.16-44.11Z"/><path class="cls-39" d="M378,285.52l2.22,34.16,66.78.15-4.91-34.6Z"/><path class="cls-39" d="M200.17,224.79q-1.39,14-2.78,27.92l98.34.28V225.06Z"/><path class="cls-40" d="M194.2,284.65l101.53.29v34.49l-105-.3Q192.47,301.9,194.2,284.65Z"/><polygon class="cls-41" points="295.73 398.12 296.42 430.11 386.02 430.11 384.33 398.35 295.73 398.12"/><line class="cls-42" x1="1560.78" y1="287.77" x2="1550.5" y2="202.24"/><line class="cls-42" x1="1488.46" y1="201.92" x2="1503.05" y2="334.67"/><polyline class="cls-42" points="1684.55 323.42 1670.64 249.92 1661.69 202.56"/><line class="cls-42" x1="1732.86" y1="202.55" x2="1767.11" y2="387.26"/><path class="cls-18" d="M1609.18,263.9c-4.34-24-7.79-45.59-11.11-69.66"/><line class="cls-18" x1="1406.37" y1="232.74" x2="1927.83" y2="236.06"/><polygon class="cls-39" points="1739.35 234.58 1745.96 273.19 1812.96 273.19 1806.17 235.5 1739.35 234.58"/><path class="cls-40" d="M1733.81,202.55l5,32.3-70.94-1.17-3.81-29.44Z"/><path class="cls-43" d="M460.51,217H-13V202.58l487.92,1.14Z"/><rect class="cls-43" x="1427.91" y="191.46" width="498.74" height="11.54"/><polygon class="cls-42" points="1444.46 730.91 1430.64 731.32 1430.64 149.56 1444.46 149.56 1444.46 730.91"/><polygon class="cls-38" points="81.66 284.48 188.53 284.18 184.69 318.52 74.41 319 81.66 284.48"/><polygon class="cls-39" points="1675.1 273.46 1745.96 273.19 1754.95 321.67 1684.55 320.22 1675.1 273.46"/><polygon class="cls-39" points="1491.91 233.28 1496.29 273.19 1559.03 273.19 1554.35 234.25 1491.91 233.28"/><polygon class="cls-40" points="1501.51 320.65 1502.82 332.55 1445.45 376.1 1445.45 376.1 1443.76 320.38 1501.51 320.65"/><line class="cls-15" x1="524.69" y1="730.78" x2="467" y2="880.58"/><line class="cls-15" x1="1416.34" y1="772.19" x2="1429.88" y2="932.34"/><polygon class="cls-44" points="1430.88 730.61 442.16 730.61 442.16 150.06 1430.9 149.65 1430.88 730.61"/><rect class="cls-45" x="441.9" y="158.01" width="990.31" height="19.69"/><g class="cls-46"><polygon class="cls-47" points="1430.8 167.06 441.9 166.76 441.9 151.69 1430.48 152.38 1430.8 167.06"/></g><rect class="cls-48" x="444.81" y="176.98" width="985.93" height="1.32"/><rect class="cls-48" x="444.81" y="217.78" width="985.07" height="1.32"/><rect class="cls-48" x="444.81" y="258.51" width="985.07" height="1.32"/><rect class="cls-48" x="444.81" y="299.25" width="985.07" height="1.32"/><rect class="cls-48" x="444.81" y="339.98" width="985.07" height="1.32"/><rect class="cls-48" x="444.81" y="380.71" width="985.07" height="1.32"/><rect class="cls-48" x="444.81" y="421.45" width="985.07" height="1.32"/><rect class="cls-48" x="444.81" y="462.18" width="985.07" height="1.32"/><rect class="cls-48" x="444.81" y="502.92" width="985.07" height="1.32"/><rect class="cls-48" x="444.81" y="543.83" width="985.56" height="1.32"/><rect class="cls-48" x="444.81" y="589.69" width="985.56" height="1.32"/><rect class="cls-48" x="449.63" y="643.98" width="980.66" height="1.32"/><rect class="cls-48" x="449.63" y="692.03" width="980.66" height="1.32"/><rect class="cls-49" x="580.06" y="348.91" width="724.92" height="381.62"/><rect class="cls-50" x="562.73" y="197.23" width="760.59" height="533.29"/><rect class="cls-51" x="568.15" y="206.74" width="748.97" height="519.83"/><g class="cls-52"><rect class="cls-53" x="571.23" y="383.98" width="745.61" height="8.11"/><rect class="cls-54" x="571.23" y="359.78" width="745.61" height="8.11"/><rect class="cls-54" x="571.51" y="340.25" width="745.61" height="8.11"/><rect class="cls-54" x="571.51" y="317.98" width="745.61" height="8.11"/><rect class="cls-54" x="571.51" y="299.42" width="745.61" height="8.11"/><rect class="cls-54" x="570.54" y="279.24" width="745.61" height="8.11"/><rect class="cls-54" x="571.51" y="258.58" width="745.61" height="8.11"/><rect class="cls-54" x="570.54" y="238.44" width="745.61" height="8.11"/><rect class="cls-54" x="570.54" y="221" width="745.61" height="8.11"/><rect class="cls-54" x="570.33" y="201.86" width="745.61" height="8.11"/><rect class="cls-54" x="571.23" y="404.26" width="745.61" height="9.46"/><rect class="cls-54" x="571.23" y="425.9" width="745.61" height="9.46"/><rect class="cls-54" x="571.23" y="446.18" width="745.61" height="8.11"/><rect class="cls-54" x="571.23" y="466.46" width="745.61" height="9.46"/><rect class="cls-54" x="571.23" y="488.09" width="745.61" height="9.46"/><rect class="cls-54" x="571.23" y="509.72" width="745.61" height="8.11"/><rect class="cls-54" x="571.23" y="530" width="745.61" height="9.46"/><rect class="cls-54" x="571.23" y="551.63" width="745.61" height="6.76"/><rect class="cls-54" x="571.23" y="570.56" width="745.61" height="9.46"/><rect class="cls-54" x="571.23" y="592.2" width="745.61" height="9.46"/><rect class="cls-54" x="571.23" y="613.83" width="745.61" height="8.11"/><rect class="cls-54" x="571.23" y="634.11" width="745.61" height="9.46"/><rect class="cls-54" x="571.23" y="655.74" width="745.61" height="8.11"/><rect class="cls-54" x="571.23" y="676.02" width="745.61" height="8.11"/><rect class="cls-54" x="571.23" y="696.3" width="745.61" height="9.46"/><rect class="cls-54" x="571.23" y="717.93" width="745.61" height="8.11"/></g><polygon points="1410.59 282.16 1365.45 282.16 1372.98 329.8 1403.06 329.8 1410.59 282.16"/><polygon class="cls-55" points="1405.49 289.68 1370.55 289.68 1376.38 324.78 1399.66 324.78 1405.49 289.68"/><polygon class="cls-56" points="1409.96 279.65 1403.06 252.07 1390.53 252.07 1390.53 229.51 1383.01 229.51 1383.01 252.07 1372.98 252.07 1366.08 279.65 1360.44 279.65 1360.44 284.67 1415.6 284.67 1415.6 279.65 1409.96 279.65"/><rect x="1385.51" y="289.68" width="5.01" height="35.1"/><polygon points="515.97 282.09 472.15 282.09 479.45 328.35 508.67 328.35 515.97 282.09"/><polygon class="cls-57" points="511.02 289.39 477.1 289.39 482.75 323.48 505.37 323.48 511.02 289.39"/><polygon class="cls-58" points="515.37 279.65 508.67 252.87 496.5 252.87 496.5 230.96 489.19 230.96 489.19 252.87 479.45 252.87 472.76 279.65 467.28 279.65 467.28 284.52 520.84 284.52 520.84 279.65 515.37 279.65"/><rect x="491.63" y="289.39" width="4.87" height="34.09"/><rect class="cls-42" x="382.16" y="132.55" width="1141.54" height="19.69"/><polygon class="cls-59" points="510.18 -25.03 1367.72 -25.03 1526.66 119.76 379.19 125.93 510.18 -25.03"/><path class="cls-60" d="M379.19,125.93c31,0,367.13-.25,620-33.24,84.65-11,176.54-27.91,286.61-76.81,35-15.54,63.31-30.55,82-40.91,53,47.51,106,97.28,158.93,144.79Z"/><path class="cls-61" d="M930.48-25c.93,37.14,2.55,111.89,3.24,149-.92-37.14-2.55-111.88-3.24-149Z"/><path class="cls-61" d="M1000,116.28c.17,0-19.55-141.6-19-141.33l5,37.16c-.75-.15,65.75-.23,65,0L1042.22-25c.37-.43,33.38,140.12,33.53,140.08S1041.86-25.24,1042.37-25l8.9,37.15c.12.36-65.2,0-65.39.13-.08-.08-5-37.17-5-37.26.42-.43,19,141.34,19.17,141.31Z"/><path class="cls-61" d="M1090.15-25c14.19,35.18,42.53,106.06,56.51,141.32C1132.46,81.1,1104.12,10.22,1090.15-25Z"/><path class="cls-61" d="M1143-25c16.91,34.87,50.72,105.15,67.41,140.11C1193.46,80.2,1159.65,9.93,1143-25Z"/><path class="cls-61" d="M1203.76-25c1.45.74,2.34,2.53,3.35,3.78,2.93,4.19,5.61,8.55,8.29,12.9,24.64,40.88,47.48,82.8,70.44,124.63-23.13-41.74-46.07-83.6-70.49-124.59-2.67-4.37-5.33-8.73-8.25-12.93-1-1.27-1.89-3-3.34-3.79Z"/><path class="cls-61" d="M1255.86-25c1.62.84,2.61,2.61,3.82,3.94,3.42,4.36,6.61,8.89,9.81,13.42C1299,34.84,1326.74,78.48,1354.65,122c-28.07-43.43-56-87-85.21-129.64-3.18-4.54-6.36-9.08-9.78-13.45-1.2-1.34-2.18-3.1-3.8-4Z"/><path class="cls-61" d="M1317.13-25a1.1,1.1,0,0,1,.66.27,35.21,35.21,0,0,1,3.73,3.5c4,4.22,7.9,8.63,11.75,13,35.67,41.36,69.93,83.91,104.28,126.37-34.49-42.34-68.84-84.82-104.33-126.33-3.83-4.42-7.68-8.83-11.71-13.07a35.21,35.21,0,0,0-3.72-3.51c-.21-.12-.41-.3-.66-.27Z"/><line class="cls-62" x1="874.08" y1="122.01" x2="876.32" y2="-25.03"/><path class="cls-61" d="M821.44-25c-4,35.7-12.19,107.51-16.39,143.18C809,82.45,817.24,10.63,821.44-25Z"/><path class="cls-61" d="M766.73-25c-9.21,35.25-28,106.13-37.39,141.32C738.54,81,757.3,10.14,766.73-25Z"/><path class="cls-61" d="M604.14,119.28c.17.06,55.92-144.81,56.28-144.29,0,0-14.46,37.72-14.57,37,0,.05,61.55-.1,61.1.08l14-37.15c.57-.15-54.32,144.3-54.17,144.34L720.92-25.06c.57-.18-13.94,37.19-13.78,37.22-.21.21-61.16,0-61.46.07-.08-.12,14.61-37.17,14.57-37.31l.17.07L604.14,119.28Z"/><path class="cls-61" d="M597-25l14.43,0c.12,0-41.43,74.57-41.41,74.59L528.44,124c20.6-37.21,62.22-111.93,83-149,.13.06-14.44,0-14.41,0Z"/><path class="cls-63" d="M1409.15,12.12H477.94L510.18-25h41.55l-97,150.41"/><g class="cls-64"><path class="cls-61" d="M446.73,48.09s1010.47,6.88,1010.48,7l32.84,29.45.24.21H1490L414,85.8l1076-1.33c.25.93-33-29.46-32.92-29.24.4.09-1010.4-7.17-1010.32-7.14Z"/></g><polygon class="cls-38" points="756.43 12.13 746.83 50.18 812.29 50.64 816.66 12.12 756.43 12.13"/><polygon class="cls-38" points="932.15 51.48 932.15 84.59 995.76 84.59 991.35 51.89 932.15 51.48"/><path class="cls-65" d="M1105.21,12.74l15.59,38.87c.47,1.19,59.8,1.6,59.8,1.6l-19.77-41.09Z"/><polygon class="cls-38" points="1251.15 53.7 1267.59 83.17 1330.68 84.77 1310.48 53.7 1251.15 53.7"/><polygon class="cls-38" points="1386.23 55.14 1457.13 55.14 1488.17 83.86 1410.46 84.77 1386.23 55.14"/><polygon class="cls-38" points="569.69 50.45 629.24 49.47 617.64 84.6 549.79 85.65 569.69 50.45"/><path class="cls-66" d="M645.85,12.12H707L721-25H660.33Q653.1-6.47,645.85,12.12Z"/><polygon class="cls-66" points="982.24 -25.04 985.98 12.13 1051.17 12.13 1042.3 -25.03 982.24 -25.04"/><path class="cls-38" d="M808.8,85.36l-3.75,37.44,68.45-1.49,1.14-36Z"/><polygon class="cls-66" points="1204.98 -25.04 1227.48 12.12 1282.97 12.12 1255.34 -25.04 1204.98 -25.04"/><polygon class="cls-66" points="692.63 50.45 746.83 50.18 737.54 85.28 678.52 86.42 692.63 50.45"/><polygon class="cls-66" points="1310.48 53.7 1330.68 84.77 1410.46 84.77 1385.05 53.7 1310.48 53.7"/><polygon class="cls-66" points="445.53 49.47 502.9 49.47 479.65 84.61 415.05 84.61 445.53 49.47"/><polygon class="cls-38" points="552.71 -25 528.44 11.08 591.33 11.08 611.45 -25.04 552.71 -25"/><path class="cls-67" d="M1526.66,146.62H381.51V123.15l1145.15-3.39Z"/><polygon class="cls-14" points="1747.79 730.82 1739.45 883.07 2137.08 883.07 2142.41 733.86 1747.79 730.82"/><path class="cls-14" d="M2024.5,742.63c-205.57-3.15-379.25-8.6-584.81-11.74,10.53-28.13-.76-69.2,9.77-97.33,17-.15,23.86,14.94,40.82,14.79l6.47-8.25c48.28-.37,87.51-.33,113.62-.24,91.33.33,169.83,1.85,273.4,2.46l19.36.11,122.45.7-3.33,262.33"/><polygon class="cls-68" points="584.83 842.63 671.14 764.07 1212.59 753.08 1336.52 815.42 1001.73 864.91 584.83 842.63"/><polygon class="cls-69" points="787.65 899.28 787.65 880.25 802.45 825.95 789.75 880.25 789.26 899.28 787.65 899.28"/><line class="cls-70" x1="194.47" y1="844.46" x2="1938.48" y2="844.46"/><line class="cls-71" x1="193.45" y1="843.67" x2="1937.46" y2="843.67"/><polygon class="cls-72" points="1534.54 662.39 1656.55 662.39 1694.58 703.37 1519.46 703.37 1534.54 662.39"/><polygon class="cls-73" points="1534.54 659.8 1656.55 659.8 1694.58 700.78 1519.46 700.78 1534.54 659.8"/><path class="cls-74" d="M730.43,791.81s4.76-7.17,13-6.22,16.46-3.57,20.35-2,10.83,9.45,6.93,8.69S730.43,791.81,730.43,791.81Z"/><path class="cls-69" d="M730.43,793.46s4.76-7.17,13-6.22,16.46-3.58,20.35-2,10.83,9.45,6.93,8.69S730.43,793.46,730.43,793.46Z"/><path class="cls-74" d="M1054.79,845.8s-16.08,13.09-2.68,10.25,34.83-10.25,34.83-10.25Z"/><path class="cls-75" d="M1054.23,845.8s-15,10.64-2.49,8.34,32.4-8.34,32.4-8.34Z"/><path class="cls-74" d="M1513.35,789.74s-20,4.34,0,7.33,48.08-3.67,48.08-3.67Z"/><path class="cls-75" d="M1513.35,788.69s-20,4.34,0,7.33,48.08-3.66,48.08-3.66Z"/><line class="cls-76" x1="1336.52" y1="730.53" x2="1915.39" y2="732.56"/><path class="cls-74" d="M1696.25,732.23s-7.14,7.1,8.08,7.74,20.06-7.74,20.06-7.74Z"/><path class="cls-75" d="M1746.09,746s-7.13,5.71,8.09,6.22,20-6.22,20-6.22Z"/><path class="cls-74" d="M1663.7,661.87s-4.34,5.72,2,4.35,4.84-4.22,12.11-2.56,19.62,0,19.62,0l4.1-1.79Z"/><path class="cls-75" d="M1663.17,660.13s-4.66,7.9,2.1,6,5.2-5.83,13-3.54,21.08,0,21.08,0l4.41-2.47Z"/><ellipse class="cls-74" cx="1119.4" cy="764.87" rx="14.7" ry="4.44"/><ellipse class="cls-75" cx="1118.12" cy="764.87" rx="14.7" ry="4.44"/><path class="cls-74" d="M246.71,845.25s-13.74,11.84,0,9.67,9.81-5.93,21.58-4.7,21.59-5,21.59-5Z"/><path class="cls-69" d="M246.71,844.46s-13.74,11.84,0,9.68,9.81-5.94,21.58-4.71,21.59-5,21.59-5Z"/><polyline class="cls-77" points="482.92 844.47 467 880.58 468.94 880.25 482.92 844.47"/><polyline class="cls-78" points="802.45 825.95 802.2 827.01 789.75 880.25 791.21 880.25"/><polyline class="cls-78" points="1425.67 863.78 1425.74 880.67 1428.05 880.25 1425.67 863.78"/><polygon class="cls-79" points="1712.1 637.03 1810.88 732.19 1920 732.88 1923.59 641.12 1712.1 637.03"/><polygon class="cls-80" points="1714.86 636.88 1812.06 729.92 1812.06 732.88 1712.1 637.03 1714.86 636.88"/><polyline class="cls-80" points="1429.88 730.53 1493.99 730.53 1493.67 731.91 1429.88 731.91 1429.88 730.53"/><path class="cls-81" d="M1570.63,618.19l59.21.57v8h-68.08v-8.93Z"/><polyline class="cls-81" points="1629.84 626.81 1637.65 626.81 1637.65 618.76 1629.84 618.76"/><polygon class="cls-81" points="1641.19 625.2 1641.19 636.59 1651.22 636.26 1651.22 625.2 1641.19 625.2"/><path class="cls-82" d="M1644,641.45l-6.33-14.64-75.87-1.16q-6,7.43-11.89,14.87"/><rect class="cls-83" x="562.73" y="197.23" width="760.59" height="48.66"/><path class="cls-84" d="M1171.17,715h-29.86a4,4,0,0,1-.65-1.87,3.94,3.94,0,0,1,.65-2.43h29.86a2.36,2.36,0,0,1,0,4.3Z"/><path class="cls-84" d="M671.84,717H642a4,4,0,0,1-.65-1.87,3.94,3.94,0,0,1,.65-2.43h29.86a2.36,2.36,0,0,1,0,4.3Z"/><path class="cls-81" d="M1557.14,622.59c.32-1.3,1.34-3.06,4.62-4.71l0,7.77-5.5,6.87a16.71,16.71,0,0,0,.94-5.55C1557.22,624.81,1556.8,624,1557.14,622.59Z"/><polygon class="cls-81" points="1637.65 618.76 1641.19 625.2 1641.19 636.59 1637.65 626.81 1637.65 618.76"/><polyline class="cls-82" points="1332.08 850.6 1329.6 863.98 1460.34 865.4 1457.88 853.06 1332.08 850.6"/><path class="cls-71" d="M308.22,824.1s25-37.2,38.35-27.35c2.71,2,2.72,4.34,1,6.78-6.66,9.49-39.35,20.57-39.35,20.57"/><path class="cls-85" d="M444.06,733.82c-48,3.92-379.34,3.27-467.3,3.76l6.31-84H439.53q.71,13.93,1.42,27.87"/><ellipse class="cls-86" cx="159.16" cy="721.69" rx="149.92" ry="10.86"/><path class="cls-87" d="M284.27,683.24s-89.52,16.06-49,21.66,67.22-14.26,71.46-1.55,35.2,5.31,38.22-5.8S284.27,683.24,284.27,683.24Z"/><path class="cls-88" d="M333,684.33l-16,21.44c44.54-8.52,38.81-29.06,55.81-19.23S333,684.33,333,684.33Z"/><path class="cls-75" d="M1362.13,826s-21.48,14.79,0,11.73,37.84-1.21,46,.41,9.2-12.14,9.2-12.14Z"/><path class="cls-87" d="M68.77,678.4S61.61,695.74,125.86,692s44.26-14.55,95.18-11,19.06-10.9,19.06-10.9Z"/><ellipse class="cls-75" cx="1376.96" cy="778.91" rx="14.83" ry="4.37"/><rect class="cls-25" x="-6.29" y="644.93" width="447.29" height="8.68"/><rect class="cls-25" x="1444.46" y="622.79" width="113.17" height="10.77"/><path class="cls-89" d="M425.83,685.11A172.78,172.78,0,0,0,404,689c-20,4.82-48.56,15.08-62.36,35.92-21.87-10.84-3.19-94.3,62.92-62,9.92,2.58,5.46-9.52-9.36-12.31s-50.17-7.16-57.12-4.66,48.9-67.69,77.17-33.22c12.48,13.63,20.62,35.53,18.76,41.94,3.83-.53,8.25-26.53-3.12-41.94s1.9-33.86,8.84-22.11c4.64,7.85,5.69,16.94,5.87,22.11a39.66,39.66,0,0,1,0,4.16l1.76,119.32s-6.4-19.57-13.31-15.78-36.93,25.45-39.12,12.83,15.17-38.08,32.21-34.29,1.27-6,1.27-6-33.21,8.76-43.12,32c-14.34-7.69,1.55-31.71,16-32A46.28,46.28,0,0,0,425.83,685.11Z"/><path class="cls-90" d="M422.87,674.34c-31-5.86-70.17-3.53-79.19,33-.34,2-1.12,5-1.28,7a97.23,97.23,0,0,0-.77,10.64c-1.14-50,39.95-59.56,81.24-50.6Z"/><path class="cls-90" d="M431.23,669.74c-4.56-23.43-19-51.94-47.1-47.93-14.92,2.17-27.9,10.87-39.59,19.92,7.72-6.3,16-12.08,25.17-16.1,35.58-15.94,55.55,12,61.52,44.11Z"/><rect class="cls-42" x="442.13" y="152.24" width="5.47" height="579.31"/><path class="cls-91" d="M607.22,741s3.41-4.23-14.35-10c-17.1-5.58-20.18-4.22-19.64-3.41C573.23,727.53,586.4,744.55,607.22,741Z"/><path class="cls-91" d="M461.26,731.05s1.69,3.32,10.07-13.39c8.07-16.07,7.18-19.32,6.3-18.91C477.63,698.75,460.83,709.94,461.26,731.05Z"/><path class="cls-92" d="M168,708.87s-22.76-50-12.21-74.37,38.84,26.32,38.29,63.39c.55,16,7.21,4.32,11.65-10.67s20.54-35,40-41.62,20,15.54-12.76,43.29-24.42,35-8.33,20c18.31-16.65,13.32-11.6,21.64-15.24s42.12,1.36,2.75,34.1l-17.73,8.33H148.6l-16.54-6s31-11.21,22.65-15.64-41.07-29.16-27.19-32.34S145.27,678.34,168,708.87Z"/><path class="cls-90" d="M190.12,726.8c11.61-18.18,42.74-66.25,61.19-73.95-18.11,7.76-49.32,55.89-61.19,73.95Z"/><path class="cls-90" d="M186,726.8q-11.58-43-22.69-86.08,11.56,43,22.69,86.08Z"/><path class="cls-90" d="M209.19,729.71q24.06-14.25,48.34-28.11-24.06,14.25-48.34,28.11Z"/><path class="cls-89" d="M301.78,732.17s-26.47-29.57-10.28-40.83S301.78,732.17,301.78,732.17Z"/><path class="cls-89" d="M302.5,732.85s2.1-57.55,20.87-50.22S302.5,732.85,302.5,732.85Z"/><line class="cls-70" x1="243.29" y1="738.18" x2="156.83" y2="854.4"/><polygon class="cls-69" points="289.88 869.03 282.25 883.03 282.25 900.3 276.45 900.3 276.45 883.1 289.88 869.03"/><path class="cls-93" d="M379.75,733.11c-32.84,48.22-69.95,102.12-103.3,150,32.84-48.22,70-102.12,103.3-150Z"/><rect class="cls-15" x="160.01" y="727.96" width="287.46" height="10.22"/><rect class="cls-54" x="160.01" y="727.96" width="87.42" height="10.81"/><rect class="cls-54" x="326.87" y="727.82" width="87.42" height="9.92"/><line class="cls-94" x1="1247.76" y1="782.67" x2="-408.62" y2="791.35"/><path class="cls-95" d="M1449.46,633.56h63c-4.5,32.32-9.34,66.77-13.84,99.09-21.37,0-37.59-1.76-59-1.76C1444.55,698.57,1444.6,665.88,1449.46,633.56Z"/><path class="cls-89" d="M1456.56,696.56a122.73,122.73,0,0,1,15.69,2.81c14.37,3.46,34.87,10.83,44.78,25.8,15.71-7.79,2.3-67.73-45.18-44.56-7.12,1.85-3.92-6.84,6.72-8.84s36-5.15,41-3.35-35.12-48.61-55.42-23.86c-9,9.79-14.81,25.52-13.47,30.12-2.75-.38-5.93-19,2.24-30.12s-1.37-24.31-6.36-15.88c-3.33,5.64-4.08,12.17-4.21,15.88-.06,1.84,0,3,0,3l-2.79,85.7s6.12-14.06,11.09-11.34,26.3,22.67,27.87,13.61-10.67-31.75-22.91-29-.91-4.32-.91-4.32,23.85,6.29,31,23c10.29-5.52-1.12-22.78-11.51-23A33.3,33.3,0,0,1,1456.56,696.56Z"/><path class="cls-90" d="M1455,687.8c29.52-6.69,59.49.55,58.35,36.34a69.79,69.79,0,0,0-.59-7.63c-.12-1.43-.69-3.58-.94-5l-.73-2.44c-7.32-23.89-35.34-25.17-56.09-21.26Z"/><path class="cls-90" d="M1449,684.5c4.18-23.14,18.72-43.15,44.2-31.71a78.68,78.68,0,0,1,18.06,11.6,93.74,93.74,0,0,0-15.77-10.16C1469.19,641.05,1454,660,1449,684.5Z"/><path class="cls-90" d="M1451.5,698.31c11.12,2.67,24.38,8.29,28.92,19.61a19.55,19.55,0,0,1,1,5.05c-1.84-14.2-17.79-21-30-24.66Z"/><path class="cls-92" d="M-5.25,710S-28,660-17.46,635.6,21.39,661.91,20.83,699c.56,16,7.22,4.32,11.66-10.66s20.53-35,39.95-41.63,20,15.54-12.76,43.29-24.42,35-8.33,20c18.32-16.65,13.32-11.6,21.65-15.23s42.11,1.35,2.74,34.1L58,737.15H-24.67L-28,718.05s17.75,1.9,9.43-2.54-41.07-29.15-27.19-32.34S-28,679.44-5.25,710Z"/><path class="cls-90" d="M16.84,727.89C28.45,709.71,59.58,661.64,78,653.94c-18.11,7.76-49.32,55.89-61.19,73.95Z"/><path class="cls-90" d="M12.73,727.89Q1.15,684.92-10,641.82q11.57,43,22.69,86.07Z"/><path class="cls-90" d="M35.91,730.8Q60,716.55,84.25,702.69,60.21,717,35.91,730.8Z"/><rect class="cls-15" x="-130.44" y="726.94" width="315.26" height="11.85"/><rect class="cls-54" x="36.42" y="727.55" width="87.42" height="10.81"/></g></g></g></g></svg>