<svg xmlns="http://www.w3.org/2000/svg" viewBox="0 0 44.47 41.83"><defs><style>.cls-1{fill:#b4b4b5;}</style></defs><g id="Layer_3" data-name="Layer 3"><path class="cls-1" d="M43.61,16.2a.79.79,0,0,0-.14-.23l0-.06a1.62,1.62,0,0,0-.19-.17l0,0a2.89,2.89,0,0,0-.35-.19h0l-.42-.15-.07,0c-3.3-1-11.79-.62-13.26-1.71C27.28,12.31,24.61.47,22.4.45s-5.14,11.76-6.94,13S1.57,13.66.87,15.76s9.59,8.51,10.25,10.63c.37,1.17-.95,5.14-1.89,8.66h0c-.22.82-.41,1.61-.56,2.34l0,.12c-.05.25-.09.5-.13.73s0,.25,0,.37,0,.23-.05.34,0,.34,0,.49,0,.13,0,.19a3.53,3.53,0,0,0,0,.48.59.59,0,0,0,0,.13,1.41,1.41,0,0,0,.1.38l0,.06a.67.67,0,0,0,.2.26v0c1.78,1.32,11.06-6.5,13.28-6.47,2.07,0,10.22,7,12.71,6.87a.84.84,0,0,0,.43-.13C37,40,32.43,28.71,33.13,26.61c.46-1.34,4.87-4.35,7.83-6.9,1.53-1.32,2.68-2.52,2.68-3.3A.76.76,0,0,0,43.61,16.2Z"/></g></svg>