<svg xmlns="http://www.w3.org/2000/svg" id="Layer_1" data-name="Layer 1" viewBox="0 0 220 200"><defs><style>.cls-1{fill:#fff;}.cls-2{fill:#2381c4;}.cls-3{fill:#0e4168;}.cls-4{fill:#07518d;}.cls-5{fill:#d7d7d7;}.cls-6{fill:#fbfcfa;}</style></defs><circle class="cls-1" cx="110" cy="100" r="91.3" style="&#10;    fill: lightpink;&#10;"/><circle class="cls-2" cx="110" cy="100" r="81.8" style="&#10;    fill: #5743C3;&#10;"/><circle class="cls-3" cx="107.1" cy="102.8" r="79" style="&#10;    fill: #5743C3;&#10;"/><circle class="cls-4" cx="108.8" cy="101.1" r="77.3" style="&#10;    fill: #5743C3;&#10;"/><path class="cls-5" d="M151.78,101.74,112.5,62.46a2.82,2.82,0,0,0-4,0L69.22,101.74a2.83,2.83,0,0,0,2,4.83h9v30A2.83,2.83,0,0,0,83,139.37h17.61a1.51,1.51,0,0,0,1.51-1.51V116.8a1.44,1.44,0,0,1,1.44-1.44h13.84a1.44,1.44,0,0,1,1.44,1.44v21.06a1.51,1.51,0,0,0,1.51,1.51H138a2.83,2.83,0,0,0,2.83-2.83v-30h9A2.83,2.83,0,0,0,151.78,101.74Z"/><path class="cls-6" d="M150.78,100.74,111.5,61.46a2.82,2.82,0,0,0-4,0L68.22,100.74a2.83,2.83,0,0,0,2,4.83h9v30A2.83,2.83,0,0,0,82,138.37H99.63a1.51,1.51,0,0,0,1.51-1.51V115.8a1.44,1.44,0,0,1,1.44-1.44h13.84a1.44,1.44,0,0,1,1.44,1.44v21.06a1.51,1.51,0,0,0,1.51,1.51H137a2.83,2.83,0,0,0,2.83-2.83v-30h9A2.83,2.83,0,0,0,150.78,100.74Z"/></svg>