<svg xmlns="http://www.w3.org/2000/svg" viewBox="0 0 219.62 178.43" style="&#10;    fill: red;&#10;"><defs><style>.cls-1{fill:red;}</style></defs><g id="Layer_13" data-name="Layer 13"><path class="cls-1" d="M211.72,69.13C204.4,51.19,187.89,34.3,166.4,22.76c-1-.55-2.07-1.14-3.1-1.73-1.37-.77-2.75-1.58-4.17-2.4-6.89-4-14.7-8.55-23-11.18-1.59-.48-3-.85-4.34-1.12a54.52,54.52,0,0,0-11.83-1.21c-1.43,0-2.93,0-4.36.13-3,.16-6.16.48-10,1-1.74.22-3.48.46-5.24.7l-1.51.21a60.8,60.8,0,0,0-11.66,1,50.67,50.67,0,0,0-5,1.24c-32.68,6-60.43,24.63-72.52,48.7C1.3,74.59-3.12,100.62,22.77,131.46a115.35,115.35,0,0,0,83.85,41.66c2.32.12,4.66.19,7,.19h0a127.75,127.75,0,0,0,67.87-19.45C216.85,130.7,222.16,94.61,211.72,69.13ZM176,145.49c-4.76,3.08-31.13,19.69-68.82,17.64a107,107,0,0,1-53-16.93A106.36,106.36,0,0,1,30.4,125c-5.4-6.43-27-32.24-11.91-62.32,10.19-20.28,34.84-37.91,66-43.47A39.22,39.22,0,0,1,89,18.05a52.43,52.43,0,0,1,10.45-.86c2.47-.34,4.93-.69,7.36-1,3.07-.44,6.14-.79,9.21-1a49,49,0,0,1,13.61.87c1.16.24,2.33.55,3.49.91,8.79,2.76,17.47,8.33,25.2,12.71,1.11.63,2.23,1.26,3.34,1.85C181.18,42,196,57.08,202.46,72.91,212.05,96.31,205.48,126.19,176,145.49Z"/></g></svg>