<svg id="Layer_1" data-name="Layer 1" xmlns="http://www.w3.org/2000/svg" xmlns:xlink="http://www.w3.org/1999/xlink" viewBox="0 0 1920 900"><defs><style>.cls-1,.cls-49{fill:none;}.cls-2{clip-path:url(#clip-path);}.cls-3{fill:#fff;}.cls-4{fill:#e8837c;}.cls-5{fill:#994430;}.cls-6{fill:#ca562d;}.cls-7{fill:#d25636;}.cls-8{fill:#c33f2a;}.cls-9{fill:#df784c;}.cls-10{fill:#e2754e;}.cls-11{fill:#d2653a;}.cls-12{fill:#c44525;}.cls-13{fill:#d05f35;}.cls-14{fill:#cf5c36;}.cls-15{fill:#ca522a;}.cls-16{fill:#d05e33;}.cls-17{fill:#eae0d0;}.cls-18{fill:#f7efed;}.cls-19{fill:#b2a68a;}.cls-20{fill:#c4b090;}.cls-21{fill:#753b32;}.cls-22{clip-path:url(#clip-path-2);}.cls-23{fill:url(#linear-gradient);}.cls-24{fill:#75c4ef;}.cls-25{fill:#8aba5b;}.cls-26{fill:#97cb69;}.cls-27{fill:url(#linear-gradient-2);}.cls-28,.cls-33,.cls-49{stroke-miterlimit:10;}.cls-28,.cls-33{stroke-width:0.21px;}.cls-28{fill:url(#linear-gradient-3);stroke:url(#Fading_Sky_2);}.cls-29{fill:#4e4f50;}.cls-30{fill:#7c89a6;}.cls-31{fill:#0e7435;}.cls-32{fill:url(#linear-gradient-4);}.cls-33{fill:url(#linear-gradient-5);stroke:url(#Fading_Sky_2-2);}.cls-34{fill:#348e48;}.cls-35{opacity:0.7;}.cls-36{fill:url(#linear-gradient-6);}.cls-37{fill:url(#linear-gradient-7);}.cls-38{fill:url(#linear-gradient-8);}.cls-39{fill:url(#linear-gradient-9);}.cls-40{fill:url(#linear-gradient-10);}.cls-41{fill:url(#linear-gradient-11);}.cls-42{clip-path:url(#clip-path-3);}.cls-43{clip-path:url(#clip-path-4);}.cls-44{fill:url(#linear-gradient-12);}.cls-45{fill:#c14733;}.cls-46{fill:#6b2727;}.cls-47{fill:#ee4036;}.cls-48{fill:url(#Áåçûìÿííûé_ãðàäèåíò_67);}.cls-49{stroke:#6b2727;stroke-width:0.25px;opacity:0.56;}.cls-50{fill:#fc784f;opacity:0.71;}.cls-51{fill:#9b5526;}.cls-52{fill:#b53c39;opacity:0.5;}</style><clipPath id="clip-path"><rect class="cls-1" x="-1940" y="-0.91" width="1920" height="901.82"/></clipPath><clipPath id="clip-path-2"><rect class="cls-1" width="1920" height="900"/></clipPath><linearGradient id="linear-gradient" x1="962.75" y1="-429.61" x2="960.24" y2="1076.61" gradientUnits="userSpaceOnUse"><stop offset="0.08" stop-color="#7b98ff"/><stop offset="0.09" stop-color="#7e9dff"/><stop offset="0.23" stop-color="#96c1ff"/><stop offset="0.36" stop-color="#a7daff"/><stop offset="0.47" stop-color="#b1eaff"/><stop offset="0.56" stop-color="#b5efff"/></linearGradient><linearGradient id="linear-gradient-2" x1="19.06" y1="579.94" x2="34.96" y2="579.94" gradientUnits="userSpaceOnUse"><stop offset="0" stop-color="#a5573f"/><stop offset="0.07" stop-color="#a1715b"/><stop offset="0.13" stop-color="#9e8672"/><stop offset="0.63" stop-color="#918d7a"/><stop offset="0.98" stop-color="#777c65"/></linearGradient><linearGradient id="linear-gradient-3" x1="-167.07" y1="636.29" x2="342.17" y2="-1.39" gradientUnits="userSpaceOnUse"><stop offset="0.02" stop-color="#439a56"/><stop offset="0.5" stop-color="#4ea862"/><stop offset="0.57" stop-color="#4ba567"/><stop offset="0.66" stop-color="#439d74"/><stop offset="0.74" stop-color="#36908b"/><stop offset="0.83" stop-color="#247eab"/><stop offset="0.86" stop-color="#1b75ba"/></linearGradient><linearGradient id="Fading_Sky_2" x1="-63.83" y1="449.61" x2="115.62" y2="326.7" gradientUnits="userSpaceOnUse"><stop offset="0" stop-color="#2483c5"/><stop offset="1" stop-color="#2483c5" stop-opacity="0"/></linearGradient><linearGradient id="linear-gradient-4" x1="1731.06" y1="563.68" x2="1743.13" y2="563.68" xlink:href="#linear-gradient-2"/><linearGradient id="linear-gradient-5" x1="1612.99" y1="604.99" x2="1940.9" y2="194.37" gradientUnits="userSpaceOnUse"><stop offset="0.02" stop-color="#0e9932"/><stop offset="0.3" stop-color="#279e44"/><stop offset="0.52" stop-color="#35a14e"/><stop offset="0.66" stop-color="#3aa252"/><stop offset="0.81" stop-color="#47a65d"/><stop offset="0.86" stop-color="#4ea862"/></linearGradient><linearGradient id="Fading_Sky_2-2" x1="1676.5" y1="486.01" x2="1796.17" y2="404.05" xlink:href="#Fading_Sky_2"/><linearGradient id="linear-gradient-6" x1="445.54" y1="75.12" x2="500.73" y2="19.89" gradientUnits="userSpaceOnUse"><stop offset="0.15" stop-color="#a2d0ff"/><stop offset="0.51" stop-color="#c0e2f8"/><stop offset="0.82" stop-color="#d5eef3"/></linearGradient><linearGradient id="linear-gradient-7" x1="924.09" y1="-82.67" x2="1011.65" y2="-170.3" gradientTransform="matrix(0.8, -0.07, 0.09, 1, -313.88, 230.91)" gradientUnits="userSpaceOnUse"><stop offset="0.21" stop-color="#aad5fd"/><stop offset="0.22" stop-color="#abd5fd"/><stop offset="0.64" stop-color="#cee9fa"/><stop offset="0.86" stop-color="#dcf1f9"/></linearGradient><linearGradient id="linear-gradient-8" x1="600.43" y1="114.85" x2="734.29" y2="-19.1" gradientUnits="userSpaceOnUse"><stop offset="0.15" stop-color="#a0cfff"/><stop offset="0.3" stop-color="#b5dbfa"/><stop offset="0.48" stop-color="#c7e6f6"/><stop offset="0.68" stop-color="#d2ecf4"/><stop offset="0.9" stop-color="#d5eef3"/></linearGradient><linearGradient id="linear-gradient-9" x1="1417.7" y1="115.2" x2="1449.36" y2="83.52" gradientUnits="userSpaceOnUse"><stop offset="0.15" stop-color="#81cbd7"/><stop offset="0.82" stop-color="#d5eef3"/></linearGradient><linearGradient id="linear-gradient-10" x1="2119.02" y1="46.25" x2="2210.59" y2="-45.38" gradientTransform="matrix(0.8, -0.07, 0.09, 1, -313.88, 230.91)" gradientUnits="userSpaceOnUse"><stop offset="0.19" stop-color="#a1d0ff"/><stop offset="0.34" stop-color="#b9defd"/><stop offset="0.49" stop-color="#cde8fb"/><stop offset="0.65" stop-color="#d8eff9"/><stop offset="0.82" stop-color="#dcf1f9"/></linearGradient><linearGradient id="linear-gradient-11" x1="1554.93" y1="172.6" x2="1691.59" y2="35.84" gradientUnits="userSpaceOnUse"><stop offset="0.15" stop-color="#9eccff"/><stop offset="0.9" stop-color="#d2f7ff"/></linearGradient><clipPath id="clip-path-3"><rect class="cls-1" y="920" width="1920" height="900"/></clipPath><clipPath id="clip-path-4"><rect class="cls-1" x="-6.29" y="920" width="1926.29" height="905.46"/></clipPath><linearGradient id="linear-gradient-12" x1="952.92" y1="1218.48" x2="952.92" y2="707.81" gradientUnits="userSpaceOnUse"><stop offset="0" stop-color="#ee4036"/><stop offset="0.26" stop-color="#ef4831"/><stop offset="0.59" stop-color="#f05a28"/><stop offset="0.7" stop-color="#f15c2b"/><stop offset="0.77" stop-color="#f36233"/><stop offset="0.82" stop-color="#f66d41"/><stop offset="0.86" stop-color="#f9764e"/></linearGradient><linearGradient id="Áåçûìÿííûé_ãðàäèåíò_67" x1="814.48" y1="835.31" x2="814.48" y2="834.31" gradientUnits="userSpaceOnUse"><stop offset="0" stop-color="#eef6e9"/><stop offset="0.11" stop-color="#e6f3e7"/><stop offset="0.28" stop-color="#cfeae3"/><stop offset="0.48" stop-color="#addddd"/><stop offset="0.58" stop-color="#a3dadb"/><stop offset="0.74" stop-color="#88d3d6"/><stop offset="0.96" stop-color="#5cc7ce"/><stop offset="1" stop-color="#53c4cc"/></linearGradient></defs><g class="cls-2"><path class="cls-3" d="M-1990.6-134.41V1019.21H79.49V968.82h38.39V924.3H79.49V868h38.39v-9.21l7.87,0v-9.59l-7.87-2.63V823.47H79.49V767.16h38.39V730.85h7.87v-8.23H138.7l-16.08-5.89L79.49,700.93V666.32h38.39V621.8H79.49V565.49h38.39V521H79.49V464.65h38.39V420.13H79.49V363.82h38.39V319.3H79.49V263h38.39V218.47H79.49V162.16h38.39V117.64H79.49V10.91H391.76V-134.41ZM214.86,874.46V879l7.85,2.63v-7.18Z"/><rect class="cls-4" x="-1975.95" y="-14.12" width="2229.94" height="907.57"/><rect class="cls-5" x="-184.18" y="621.74" width="192.44" height="55.5"/><rect class="cls-6" x="16.38" y="621.74" width="52.45" height="55.51"/><rect class="cls-7" x="-184.18" y="-6.77" width="192.44" height="55.5"/><rect class="cls-8" x="16.38" y="-6.77" width="52.45" height="55.5"/><rect class="cls-9" x="-83.9" y="56.08" width="192.43" height="55.5"/><rect class="cls-10" x="-184.18" y="244.63" width="192.44" height="55.51"/><rect class="cls-11" x="16.38" y="244.63" width="52.45" height="55.51"/><rect class="cls-12" x="-83.9" y="181.78" width="192.43" height="55.5"/><rect class="cls-12" x="-83.9" y="433.19" width="192.43" height="55.5"/><rect class="cls-10" x="-184.18" y="118.92" width="192.44" height="55.5"/><rect class="cls-13" x="16.38" y="118.92" width="52.45" height="55.51"/><rect class="cls-5" x="-83.9" y="307.48" width="192.43" height="55.51"/><rect class="cls-10" x="-184.18" y="370.33" width="192.44" height="55.5"/><rect class="cls-14" x="16.38" y="370.33" width="52.45" height="55.51"/><rect class="cls-9" x="-83.9" y="558.89" width="192.43" height="55.51"/><rect class="cls-15" x="-177.21" y="496.04" width="192.44" height="55.5"/><rect class="cls-16" x="23.36" y="496.04" width="52.45" height="55.5"/><path class="cls-17" d="M95.4,803l15.81,7.35H98.48v10.26H90.74v45.26H53V936H90.74v28.76l7.74,3.28v12l-7.74,0v11.48H53v56.65H-2191.16V738.73H90.74v1.37H53v43.14Q74.2,793.11,95.4,803Z"/><polygon class="cls-18" points="521 821.19 515.31 819.73 515.63 819.73 521 821.19"/><line class="cls-19" x1="-554.44" y1="738.16" x2="2.87" y2="1240.92"/><line class="cls-19" x1="-2000.35" y1="815.86" x2="293.4" y2="805.66"/><line class="cls-19" x1="202.14" y1="1003.92" x2="-116.47" y2="807.48"/><polygon class="cls-20" points="-471.26 808.8 -373.61 900.91 33.13 900.91 -116.47 807.48 -471.26 808.8"/><rect class="cls-21" x="-1947.4" y="660.45" width="1964.7" height="73.78"/></g><g class="cls-22"><rect class="cls-23" x="-17.87" y="-25.99" width="1958.4" height="900"/><path class="cls-24" d="M2035.22,414.62l-7,168-1630.94-6.4-.07-123.5,10.11.28.62,11.58H417l-.31-18.07,53.54,1.34v15l62.65.31,2.61-201.78,13.9-1,16.81,3.22v-1.88H563.8v-2h2v-5.29h1.06v5.8h3.63v-4.77h1.36v4.94l3,1-.3,1.54h-.77v1.37l2.88.33v10.23l10.43-1v-1.88h.62v1.54H590V255.75l12.25-.52v-2h1.21v-5h-1.06v-1.86H606v7.49h.92v2.56h7.71v-3.92h3V255h-1l.15,2.22,15.42,1.88-.13,26.41,9.39,1.18v3.08l1.66,1.86L641.22,434l10.3-.68,6.35.17.61-16.54,6.79-.68v-9l28.91-.36V403.1l21.94-.19v-3.74h2.44V377.36l1.58-1.8V364.23h6.59v-8.69h2.71v.84h3.33v-13.8l.75.68V346l1.83.33v1h2.27l.15-1.71,1.21-.34V347l3.17.17.45-1.54,1.83-.17.44,1.54,3.64.17-.16-1.37L750,346v1h3v-2l.76-.34.15-2.73h1.37l.31,5.11,3.77.17.16-3.92.91.17.44,3.75,2.73.84.15-4.6h.61l.15,4.77,2.87.52.6-1.37v-1.87l1.51.17.16,3.58-.6,1,.14,8,5,.34.91,8,.77.17.61,1.35,2.72-.16.13-14.48,1.37.16.46,15,13.47.67-1.33,69.87h1.82v1.54l.62.52-.15,2-.92.35-.29,14.83,1.82.51v1.86H795l-.14,5.46,9.68-.17c-.46,0,.3,2,.3,2l5.3.17-.76,2-.91.52h-1.36l.62,10.06,1.21.84v11.08h2.26l1-131.22,15.14-2.91v-7.83l17.4-2.92v-1.2h4.54l.61.86,41.3,1.85v8.7l16.66,1.36-.31-15.34,5.74-2.05,2.41-27.78,50.7.65,3.33,29.32,9.39.16-.17-3.23,1.68.15,1.64-23.52,6.82-1-.34-46.53,20.13.16,12.85,1.55,0-66.82,9.23-2.9H1036v-2.73h.89V202l13.78-.52v-3.07h.91v2.72l8.17-.51v1.7h1.67v-1.53h10.3l12.56,4.78,17.24-1.38,4.39,2.38-1.58,140.77,12.26,1.87.44-20.63,6.51.18V311.54l16.94-2.06-.47-23,2.12-1.37,8.63-1V261.41l1.66-1s7.71-1.37,7.25-1.37S1182,239.59,1182,239.59h4.54l22.55,19.06,1.08.34.3,1,7.11,1.35-.15,23.35,10.91,1.53-.13,38.35,21.77.5.62-6.48h1.05l.3,4.25H1253l-.15,2.23,39,1,.15,6.14,12.13-1.36.43-11.77,8.62-.34,3.33-9.54.3-4.44h2l.77,3.58h3.31v-.85h3.79v1l20.58-2.73v-1.37h-1v-2.89h6.49V306l5.29.18v-1.89l2.27-2.56,2,.17v2.55l-1.21.19.61,1.86,1.21.17.46,3.58-.14,1.36,1.06-.16v3.23h.9V317h9.38l-.72,72.27h-6.2l-.13,23.17,3.62.35,0,28.12,3.18.15V424.22l1.82-.34.15-5.46,15.89,1v-1.7h16v1.52h7l.08-90.65,1.06-.86,2-.17.15-.86,1.51-.33.44-.69,4.69-.17.16-1,3.33-.18V314.27l5.28-2.9,32.55,1.17v-1.18H1470v1l15.13-.18.46,14,13.62.17-.52,166.5,2.44-.19.09-113.49,1.06-.17.15-2.55,8.92.16v2.22h2.57v-1.37h8.77v1.2h1.52l-.34-59.14,12.41-5.81-.17-9.88,11.2-6,33.9.5v4.59l2.25-.16,2.87-1.2v-1.52h1.21l.76.84,7.87-.18V299h-.76l-1.74-2,1.36-1.52,1.89-2.14h2.28v-5.27h1.65v5.62l19.07-.36v-1.52h1.67v2.21l2.57,1.2.15,1.86-2,3.42.31,7.66,1.52,1H1628l-.16.67,1.38.17v11.25H1637v-1.52l1.36-1.54,2.12,1.71.35,56.57,2.27.68V390l6.5.51-.14,13.46,2.88.51.3,7,1.67.68.15,26.07,1.07.17-.1,63.05.58-.16.47-1.7h5v1.35c0,.68.46.68.46.68l.15,1.71,9.54-.18-.47-9.37s-1.66-1.87-2.57-2l-.3-1.19h3.63v-1.2l3.47.17V490l1.22.69.14.51h3l.31-.86a4,4,0,0,1,1.66-1c1.07-.34,1.65,1.37,1.65,1.37h3.49l-.45-10.39,1.82-.34-.19-40.06L1691,437h9.68l.24-100.38,3.18-.17v-9.2l2.1.16.16,1.88,1.35-.34-.15-1.71,14.37.17,6.21-20.11.29-3.42.61-.67.74-5.46.91,5.45.92,1,.46,3.08,5.46,20.95,34.18.84,4.55.16,4.38,3.92.32,21,1.37.35.6,1.69,1.37.18-.11,74.13h10.59l6.81,5.1-.14,10.74,3.17.5-.15,10.4,5.62.17v31h2.71v-4.26l16-1.2v-7.32l1.38-1.54h2.11l.3-15.84,5.74-4.28h2.87v-1.53h-1.52V439.31l7.58-4.6,33.75.49V449l-1.69,1.71.16,2.72h9.23l.16,6.65-.9.68.59,1.19,10.76,9.71,6.2.17V487h7.26l0,37.49h12.42l-.06-100.37h12.24v-1.71h1.67v1.87h2.1v-1.53h1.38v1.54h3.77v-2.89h.9v2.72l14.22.67v-2.21l1.22-.51.46.5.28,1.37h2.14V420.5h3.33v3.07h2.27v-1.88h3.62v1.71l.62-.17,2.12-2.06Z"/><path class="cls-24" d="M438.57,397.72c-.2,34.22.08,178.52.08,178.52q-738.7-3.45-1476.65-7.13l-.08-130.24,9.17.29.55,12.22h8.23l-.28-19,48.5,1.41v15.81l56.75.33,2.35-212.8,12.59-1.08,15.22,3.4v-2h-2.19v-2.14h1.78V229.7h1v6.11h3.29v-5h1.23V236l2.75,1.07-.27,1.62h-.69v1.44l2.6.36v10.79l9.45-1.09v-2h.56v1.62h2V231.13l11.1-.54v-2.16h1.1v-5.22h-1v-2h3.29v7.9h.83v2.69h7v-4.14h2.74v2.7h-1l.14,2.33,14,2-.12,27.85,8.5,1.25v3.24l1.5,2L-817,419.1l9.33-.72,5.76.17.55-17.44,6.14-.71v-9.54l26.18-.37v-3.95l19.87-.2V382.4H-747v-23l1.43-1.89V345.55h6v-9.17h2.45v.9h3V322.72l.68.72v2.88l1.65.36v1.07h2.05l.14-1.8,1.1-.36v1.8l2.86.18.42-1.62,1.65-.18.41,1.62,3.29.17-.15-1.44,1.52.19v1.08h2.73v-2.15l.69-.36L-715,322h1.23l.29,5.38,3.41.18.15-4.14.83.18.4,4,2.47.89.13-4.85h.55l.14,5,2.59.55.55-1.45v-2l1.37.17.14,3.78-.54,1.07.13,8.46,4.53.35.83,8.45.69.18.55,1.43,2.46-.17.12-15.28,1.25.18.41,15.82,12.2.71-1.2,73.68h1.65v1.62l.56.55-.13,2.15-.83.37-.26,15.63,1.64.54v2h-1.1l-.13,5.75,8.77-.18c-.41,0,.28,2.16.28,2.16l4.79.17-.68,2.15-.83.55h-1.23l.56,10.61,1.1.89V481.2h2l.87-138.38,13.71-3.08v-8.25l15.76-3.08v-1.26h4.11l.56.9,37.41,2v9.17l15.09,1.43-.28-16.17,5.19-2.16,2.19-29.3,45.92.69,3,30.92,8.51.17-.15-3.41,1.52.17,1.48-24.81,6.18-1.07-.31-49.07,18.23.17,11.65,1.62-.05-70.47,8.36-3h4.66V172h.81v2.52l12.48-.54v-3.25h.82v2.88l7.4-.54v1.8h1.51V173.2h9.32l11.38,5,15.62-1.45,4,2.51-1.42,148.46,11.1,2L-386,308l5.89.19V290l15.35-2.17-.43-24.26,1.92-1.45,7.82-1.07V237.15l1.5-1.08s7-1.44,6.58-1.44,20.27-20.49,20.27-20.49h4.11l20.43,20.11,1,.35.27,1.09,6.44,1.42-.13,24.63,9.88,1.62-.11,40.44,19.72.53.56-6.83h1l.27,4.49h1l-.13,2.35,35.35,1.06.14,6.47,11-1.44.39-12.4,7.81-.37,3-10.06.27-4.68h1.77l.7,3.78h3v-.89h3.44v1.07l18.64-2.88v-1.44h-1v-3h5.88v4.67l4.8.19v-2l2.06-2.69,1.78.18v2.69l-1.1.19.56,2,1.1.18.41,3.77-.13,1.43,1-.16v3.41h.81v2.51h8.49l-.64,76.21H-159l-.13,24.44,3.29.37,0,29.65,2.88.17V408.87l1.64-.36.14-5.75,14.4,1.07V402h14.52v1.61H-116l.07-95.6,1-.91,1.8-.18.13-.91,1.38-.34.39-.73,4.25-.18.14-1.07,3-.2V292.92l4.78-3.06,29.49,1.24v-1.25h3.28v1.07l13.7-.19.42,14.75,12.34.17-.45,175.6,2.21-.19.06-119.7,1-.18.14-2.69,8.08.17V361h2.33v-1.44h7.94v1.27h1.38l-.31-62.37,11.24-6.12-.15-10.42,10.14-6.3,30.71.54V281l2.05-.16,2.59-1.27v-1.61h1.1l.69.9,7.12-.2v-1.79h-.68l-1.58-2.06L47,273.17l1.71-2.26h2.06v-5.57h1.49v5.94l17.27-.38v-1.61H71v2.33l2.33,1.27.14,2-1.79,3.6.29,8.08,1.37,1.09h3.43l-.15.71,1.25.18v11.86H85v-1.61l1.23-1.63,1.93,1.8.31,59.67,2.06.72V372.8l5.89.53-.13,14.2,2.61.53.27,7.38,1.51.71.14,27.5,1,.18-.08,66.5.53-.18.42-1.79h4.52v1.43c0,.71.42.71.42.71l.13,1.8,8.64-.18-.42-9.88s-1.5-2-2.32-2.16l-.28-1.25h3.29v-1.26l3.14.17v.54l1.1.73.14.53h2.74l.28-.9a3.61,3.61,0,0,1,1.51-1.08c1-.36,1.49,1.44,1.49,1.44h3.16l-.41-11,1.65-.36-.17-42.24,2.61-3.06h8.77l.21-105.87,2.88-.18v-9.7l1.9.18.14,2,1.23-.35-.14-1.8,13,.17,5.62-21.21.27-3.6.55-.72.67-5.75.83,5.75.83,1.08.42,3.24L176,307.68l31,.89,4.12.18,4,4.14.3,22.09,1.23.37.55,1.79,1.24.19-.09,78.18h9.59l6.17,5.38-.13,11.32,2.88.54-.14,11,5.09.18,0,32.71h2.45v-4.5l14.53-1.26v-7.72L260,461.5h1.91l.27-16.71,5.2-4.51H270v-1.61h-1.38V424.83l6.87-4.86,30.57.52v14.56l-1.53,1.8.15,2.87H313l.14,7-.81.71.53,1.25L322.64,459l5.62.18v16h6.57l0,39.54h11.25l-.06-105.86h11.09V407h1.52v2h1.9v-1.62h1.24V409h3.42v-3H366v2.87l12.89.71v-2.34l1.1-.53.41.53.27,1.45h1.93V405h3v3.25h2.05v-2H391v1.8l.56-.17,1.92-2.18C410.88,403.4,421.15,400,438.57,397.72Z"/><path class="cls-25" d="M1957.47,708.31H-59.09V544.68H1955.67Z"/><path class="cls-26" d="M2029,584.25q-305.21-2.5-610.47-5.41-776.34-7.41-1552.56-17.48V538.19l2163,6.49Z"/><polygon class="cls-27" points="33.97 630.29 19.06 630.29 20.05 529.6 34.96 529.6 33.97 630.29"/><path class="cls-28" d="M-19.77,430.8S-26,415.39-5.68,289.69,64.81,222,72.64,305.86s7.83,169.27,7.83,169.27C69.5,588-21.59,554.92-20.68,492.86Z"/><rect class="cls-29" x="-40.73" y="627.68" width="2038.44" height="73.44"/><rect class="cls-30" x="-17.87" y="654.77" width="1958.4" height="264.15"/><path class="cls-31" d="M-22.3,625.7s-45.23-15,31.47-21.07c0,0-12.8-14.71,12.77-24,0,0,16.07-5.65,38.37.93,0,0,31.48-32,89.48-6.08,0,0,27.11-10.62,57.59-3.33s38.78,26.79,38.78,26.79,32.93-25.38,71.79,1.67c0,0,34.7-11.5,53.1,10.53,0,0,50.83-12.14,75.72,8.92,0,0,72.76-3.37,59,6l-17.11,1.7-500.14.86Z"/><polygon class="cls-32" points="1742.78 595.85 1731.06 595.85 1731.06 542.91 1743.13 531.51 1742.78 595.85"/><path class="cls-33" d="M1700.52,470.59s-4.92-9.67,11.09-88.6,55.41-42.49,61.57,10.15,6.16,106.28,6.16,106.28c-8.62,70.86-80.25,50.1-79.53,11.14Z"/><path class="cls-34" d="M1013.1,539.51s-13.83-10.93,9.63-15.36c0,0-3.92-10.72,3.9-17.52,0,0,4.92-4.12,11.73.68,0,0,9.63-23.34,27.37-4.43,0,0,8.29-7.74,17.61-2.43S1095.2,520,1095.2,520s10.07-18.5,22,1.21c0,0,10.61-8.38,16.24,7.68,0,0,15.54-8.85,23.15,6.5,0,0,19.25-1.18,15,5.61l-7.22,3.25-147.95-2.66Z"/><path class="cls-34" d="M1936.65,622.47s24.66-8.7-17.16-12.22c0,0,7-8.53-7-13.94,0,0-8.76-3.28-20.92.54,0,0-17.17-18.57-48.79-3.52,0,0-14.78-6.17-31.41-1.94s-21.14,15.54-21.14,15.54-18-14.72-39.15,1c0,0-18.92-6.67-28.95,6.11,0,0-27.72-7-41.29,5.17,0,0-34.32-.94-26.81,4.46l12.87,2.59,263.82-2.12Z"/><path class="cls-31" d="M1004.45,627.68c.1-4.28,4.42-8.86,5.58-10.78,5.65-9.41,20.93-13,38-8.63,0,0-10.88-11,10.87-18,0,0,13.66-4.23,32.62.7,0,0,26.78-24,76.11-4.55,0,0,23.06-8,49-2.5s33,20.07,33,20.07,28-19,61.06,1.25c0,0,29.51-8.61,45.16,7.89,0,0,43.23-9.09,64.4,6.68,13.32,2.1,26.94,5.77,40.26,7.87-139,.78-278.21,0-417.17.77C1031.4,627.65,1016.37,628.49,1004.45,627.68Z"/><g class="cls-35"><polygon class="cls-3" points="944.46 759.2 948.75 769.12 1077.27 769.12 1074.22 761.23 944.46 759.2"/><polygon class="cls-3" points="1123.53 759.2 1126.57 769.12 1250.89 769.12 1247.85 759.2 1123.53 759.2"/><polygon class="cls-3" points="1295.53 761.12 1297.79 769.12 1431.47 769.12 1429.1 761.12 1295.53 761.12"/><polygon class="cls-3" points="1474.5 761.12 1478.11 769.12 1607.32 769.12 1603.64 761.12 1474.5 761.12"/><polygon class="cls-3" points="1655.09 761.12 1657.61 769.12 1760.47 769.12 1760.47 761.12 1655.09 761.12"/><polygon class="cls-3" points="1812.63 761.12 1818.39 769.12 1940.53 769.12 1940.53 761.12 1812.63 761.12"/></g><polygon class="cls-3" points="-24.02 761.12 -17.56 769.12 119.57 769.12 119.57 761.12 -24.02 761.12"/><polyline class="cls-3" points="174.53 761.12 177.36 769.12 305.5 769.12 302.26 761.12"/><polyline class="cls-3" points="359.82 761.12 362.04 769.12 492.62 769.12 489.8 761.12 356.2 761.12"/><polygon class="cls-3" points="546.35 761.12 550.38 769.12 677.3 769.12 671.48 761.12 546.35 761.12"/><path class="cls-3" d="M728,761.12s.43,8.1,2.84,8,129.33,0,129.33,0v-8Z"/><path class="cls-36" d="M444.87,57.12s.64-4.43,8.78-7.47,15-4.66,22.06-1.16,5.57,11.43,4.07,12.36c-2.91,1.81-9.18,4.19-25.92,1.86C443.8,61.32,444.87,57.12,444.87,57.12Z"/><path class="cls-37" d="M414.93,50.21s1.57-8.58,14.48-13,21.32-6.47,28.9,2.26,4.38,22.55-.7,24S431.17,65.3,418.08,59A7.89,7.89,0,0,1,414.93,50.21Z"/><path class="cls-38" d="M599.34,77.82s1.31-9.45,17.92-15.92,30.61-9.94,45-2.48,11.37,24.36,8.31,26.35c-5.94,3.87-18.74,8.94-52.91,4C597.15,86.77,599.34,77.82,599.34,77.82Z"/><path class="cls-39" d="M1417,97.2s.64-4.43,8.78-7.46,15-4.67,22.06-1.17,5.57,11.43,4.07,12.36c-2.91,1.81-9.18,4.2-25.91,1.87C1416,101.4,1417,97.2,1417,97.2Z"/><path class="cls-40" d="M1387.08,90.3s1.58-8.58,14.48-13,21.33-6.47,28.9,2.26,4.39,22.54-.7,24-26.44,1.79-39.53-4.5A7.88,7.88,0,0,1,1387.08,90.3Z"/><path class="cls-41" d="M1571.49,117.9s1.31-9.45,17.93-15.91,30.6-9.95,45-2.49,11.37,24.37,8.31,26.36c-5.94,3.86-18.74,8.94-52.91,4C1569.3,126.85,1571.49,117.9,1571.49,117.9Z"/></g><g class="cls-42"><g class="cls-43"><polygon class="cls-44" points="510.18 894.97 1367.72 894.97 1526.66 1039.76 379.19 1045.93 510.18 894.97"/><path class="cls-45" d="M379.19,1045.93c31,0,367.13-.25,620-33.24,84.65-11,176.54-27.91,286.61-76.81,35-15.54,63.31-30.55,82-40.91,53,47.51,106,97.28,158.93,144.79Z"/><path class="cls-46" d="M930.48,895c.93,37.14,2.55,111.89,3.24,149-.92-37.14-2.55-111.88-3.24-149Z"/><path class="cls-46" d="M1000,1036.28c.17,0-19.55-141.6-19-141.33l5,37.16c-.75-.15,65.75-.23,65,0L1042.22,895c.37-.43,33.38,140.12,33.53,140.08S1041.86,894.76,1042.37,895l8.9,37.15c.12.36-65.2,0-65.39.13-.08-.08-5-37.17-5-37.26.42-.43,19,141.34,19.17,141.31Z"/><path class="cls-46" d="M1090.15,895c14.19,35.18,42.53,106.06,56.51,141.32-14.2-35.18-42.54-106.06-56.51-141.32Z"/><path class="cls-46" d="M1143,895c16.91,34.87,50.72,105.15,67.41,140.11-16.9-34.87-50.71-105.14-67.41-140.11Z"/><path class="cls-46" d="M1203.76,895c1.45.74,2.34,2.53,3.35,3.78,2.93,4.19,5.61,8.55,8.29,12.9,24.64,40.88,47.48,82.8,70.44,124.63-23.13-41.74-46.07-83.6-70.49-124.59-2.67-4.37-5.33-8.73-8.25-12.93-1-1.27-1.89-3-3.34-3.79Z"/><path class="cls-46" d="M1255.86,895c1.62.84,2.61,2.61,3.82,3.94,3.42,4.36,6.61,8.89,9.81,13.42,29.46,42.51,57.25,86.15,85.16,129.68-28.07-43.43-56-87-85.21-129.64-3.18-4.54-6.36-9.08-9.78-13.45-1.2-1.34-2.18-3.1-3.8-3.95Z"/><path class="cls-46" d="M1317.13,895a1.1,1.1,0,0,1,.66.27,35.21,35.21,0,0,1,3.73,3.5c4,4.22,7.9,8.63,11.75,13,35.67,41.36,69.93,83.91,104.28,126.37-34.49-42.34-68.84-84.82-104.33-126.33-3.83-4.42-7.68-8.83-11.71-13.07a35.21,35.21,0,0,0-3.72-3.51c-.21-.12-.41-.3-.66-.27Z"/><line class="cls-47" x1="874.08" y1="1042.01" x2="876.32" y2="894.97"/><path class="cls-46" d="M821.44,895c-4,35.7-12.19,107.51-16.39,143.18,4-35.7,12.19-107.52,16.39-143.18Z"/><path class="cls-46" d="M766.73,895c-9.21,35.25-28,106.13-37.39,141.32,9.2-35.26,28-106.14,37.39-141.32Z"/><path class="cls-46" d="M604.14,1039.28c.17.06,55.92-144.81,56.28-144.29,0,0-14.46,37.72-14.57,37,0,0,61.55-.1,61.1.08l14-37.15c.57-.15-54.32,144.3-54.17,144.34l54.17-144.34c.57-.18-13.94,37.19-13.78,37.22-.21.21-61.16,0-61.46.07-.08-.12,14.61-37.17,14.57-37.31l.17.07-56.28,144.29Z"/><path class="cls-46" d="M597,895l14.43,0c.12,0-41.43,74.57-41.41,74.59L528.44,1044c20.6-37.21,62.22-111.93,83-149,.13.06-14.44,0-14.41,0Z"/><path class="cls-48" d="M815.27,832.31h-1.58a1.88,1.88,0,0,0-1,.21,2,2,0,0,0-.81.52,2.83,2.83,0,0,0-.73,1.77l.09.66a2.53,2.53,0,0,0,.64,1.11l.51.39a2.53,2.53,0,0,0,1.26.34h1.58a1.86,1.86,0,0,0,1-.22,2.16,2.16,0,0,0,1.32-1.32,1.88,1.88,0,0,0,.22-1l-.09-.67A2.5,2.5,0,0,0,817,833l-.51-.39a2.43,2.43,0,0,0-1.26-.34Z"/><path class="cls-49" d="M1409.15,932.12H477.94L510.18,895h41.55l-97,150.41"/><path class="cls-50" d="M645.85,932.12H707L721,895H660.33Q653.1,913.53,645.85,932.12Z"/><polygon class="cls-50" points="982.24 894.96 985.98 932.13 1051.17 932.13 1042.3 894.97 982.24 894.96"/><polygon class="cls-50" points="1204.98 894.96 1227.48 932.12 1282.97 932.12 1255.34 894.96 1204.98 894.96"/><rect class="cls-51" x="510.23" y="888.96" width="859.05" height="6"/><polygon class="cls-52" points="552.71 895 528.44 931.08 591.33 931.08 611.45 894.96 552.71 895"/></g></g></svg>