<svg id="Layer_1" data-name="Layer 1" xmlns="http://www.w3.org/2000/svg" xmlns:xlink="http://www.w3.org/1999/xlink" viewBox="0 0 1920 900"><defs><style>.cls-1{fill:none;}.cls-2{clip-path:url(#clip-path);}.cls-3{fill:#282759;}.cls-4{fill:#3b2769;}.cls-5{opacity:0.7;}.cls-6{fill:#0e6987;}.cls-7{fill:#4f1f2e;}.cls-8{clip-path:url(#clip-path-2);}.cls-47,.cls-9{fill:#fff;}.cls-10{fill:#eae0d0;}.cls-11{clip-path:url(#clip-path-3);}.cls-12{clip-path:url(#clip-path-4);}.cls-13{fill:#60ddef;}.cls-14{fill:#69b7b7;}.cls-15{fill:#4e9fa5;}.cls-16{fill:url(#linear-gradient);}.cls-17,.cls-26{fill:#b46747;}.cls-18{fill:url(#linear-gradient-2);}.cls-19{fill:url(#linear-gradient-3);}.cls-20{fill:url(#linear-gradient-4);}.cls-21{fill:url(#linear-gradient-5);}.cls-22{fill:#036801;}.cls-23{fill:url(#linear-gradient-6);}.cls-24{fill:#2f2023;}.cls-25{fill:url(#linear-gradient-7);}.cls-26{opacity:0.68;}.cls-27{fill:#167056;}.cls-28{fill:#94c920;}.cls-29{fill:#3ebf08;}.cls-30{fill:url(#linear-gradient-8);}.cls-31{fill:#408e20;}.cls-32{fill:#236b1f;}.cls-33{fill:#79ad25;}.cls-34{fill:#016b29;}.cls-35{fill:#01491d;}.cls-36{fill:url(#linear-gradient-9);}.cls-37{fill:url(#linear-gradient-10);}.cls-38{fill:url(#linear-gradient-11);}.cls-39{fill:url(#linear-gradient-12);}.cls-40{fill:#2b6a57;}.cls-41{fill:#7ac62e;}.cls-42{fill:#25845c;}.cls-43{fill:#1a6949;}.cls-44{fill:#1a6345;}.cls-45{fill:#7cc447;}.cls-46{fill:#57a336;}.cls-47{opacity:0.29;}.cls-48{fill:#90da47;}.cls-49{fill:#75be4b;}.cls-50{fill:#5fa55d;}.cls-51{fill:#3d893d;}.cls-52{fill:#156049;}.cls-53{fill:#20704f;}.cls-54{fill:#52a330;}.cls-55{fill:#76bf4a;}.cls-56{fill:#0d1f17;}</style><clipPath id="clip-path"><rect class="cls-1" y="-919.97" width="1920" height="899.97"/></clipPath><clipPath id="clip-path-2"><rect class="cls-1" x="1940" y="-920.91" width="1920" height="901.82"/></clipPath><clipPath id="clip-path-3"><rect class="cls-1" width="1920" height="900"/></clipPath><clipPath id="clip-path-4"><polygon class="cls-1" points="1920 900 0 900 0 0 1919.19 0 1920 900"/></clipPath><linearGradient id="linear-gradient" x1="8208.97" y1="647.76" x2="8320.49" y2="307.18" gradientTransform="matrix(-1, 0, 0, 1, 9384.33, 0)" gradientUnits="userSpaceOnUse"><stop offset="0.06" stop-color="#7f2f0b"/><stop offset="0.26" stop-color="#65230b"/><stop offset="0.53" stop-color="#47150b"/></linearGradient><linearGradient id="linear-gradient-2" x1="1241.21" y1="799.34" x2="1420.49" y2="358.16" gradientTransform="matrix(1.11, 0.06, -0.04, 0.85, -326.26, -188.61)" gradientUnits="userSpaceOnUse"><stop offset="0.48" stop-color="#0b5a42"/><stop offset="0.54" stop-color="#24733b"/><stop offset="0.63" stop-color="#469732"/><stop offset="0.72" stop-color="#61b32a"/><stop offset="0.81" stop-color="#75c725"/><stop offset="0.91" stop-color="#80d322"/><stop offset="1" stop-color="#84d721"/></linearGradient><linearGradient id="linear-gradient-3" x1="1214.92" y1="77.06" x2="1005.36" y2="364.83" gradientUnits="userSpaceOnUse"><stop offset="0.37" stop-color="#88d23d"/><stop offset="0.38" stop-color="#84cd41"/><stop offset="0.55" stop-color="#60a65f"/><stop offset="0.69" stop-color="#4a8d71"/><stop offset="0.77" stop-color="#428478"/></linearGradient><linearGradient id="linear-gradient-4" x1="1058.71" y1="-748.85" x2="849.15" y2="-461.07" gradientTransform="matrix(0.93, -0.37, 0.37, 0.93, 325.27, 1050.16)" xlink:href="#linear-gradient-3"/><linearGradient id="linear-gradient-5" x1="376.74" y1="396.92" x2="523.96" y2="257.49" gradientUnits="userSpaceOnUse"><stop offset="0.12" stop-color="#2a6856"/><stop offset="0.4" stop-color="#2a7648"/><stop offset="0.84" stop-color="#2b8a34"/></linearGradient><linearGradient id="linear-gradient-6" x1="1329.06" y1="205.47" x2="1106.82" y2="510.66" gradientUnits="userSpaceOnUse"><stop offset="0.37" stop-color="#9dec27"/><stop offset="0.46" stop-color="#87d23b"/><stop offset="0.62" stop-color="#64ab5a"/><stop offset="0.75" stop-color="#4f926d"/><stop offset="0.83" stop-color="#478974"/></linearGradient><linearGradient id="linear-gradient-7" x1="844.58" y1="644.13" x2="966.26" y2="272.58" gradientTransform="matrix(1, 0, 0, 1, 0, 0)" xlink:href="#linear-gradient"/><linearGradient id="linear-gradient-8" x1="49.27" y1="774.63" x2="679.28" y2="376.12" gradientUnits="userSpaceOnUse"><stop offset="0.1" stop-color="#0e5747"/><stop offset="0.18" stop-color="#125b46"/><stop offset="0.27" stop-color="#1e6743"/><stop offset="0.35" stop-color="#317c3e"/><stop offset="0.44" stop-color="#4d9838"/><stop offset="0.52" stop-color="#70bd2f"/><stop offset="0.6" stop-color="#9be925"/><stop offset="0.62" stop-color="#a6f522"/></linearGradient><linearGradient id="linear-gradient-9" x1="666.63" y1="347.82" x2="600.09" y2="154.37" gradientTransform="translate(-4.4 -58.77) rotate(1.19)" gradientUnits="userSpaceOnUse"><stop offset="0.38" stop-color="#408c3a"/><stop offset="0.86" stop-color="#57a336"/></linearGradient><linearGradient id="linear-gradient-10" x1="837.23" y1="588.94" x2="961.27" y2="40.36" gradientTransform="translate(-4.4 -58.77) rotate(1.19)" gradientUnits="userSpaceOnUse"><stop offset="0" stop-color="#0b5a42"/><stop offset="0.17" stop-color="#0f5e41"/><stop offset="0.35" stop-color="#1b6b3e"/><stop offset="0.54" stop-color="#2f8038"/><stop offset="0.72" stop-color="#4c9d30"/><stop offset="0.91" stop-color="#70c227"/><stop offset="1" stop-color="#84d721"/></linearGradient><linearGradient id="linear-gradient-11" x1="743.94" y1="438.19" x2="403.45" y2="385.46" gradientTransform="translate(-4.4 -58.77) rotate(1.19)" gradientUnits="userSpaceOnUse"><stop offset="0" stop-color="#206a53"/><stop offset="0.3" stop-color="#246e52"/><stop offset="0.61" stop-color="#307a4e"/><stop offset="0.92" stop-color="#458e47"/><stop offset="1" stop-color="#4b9445"/></linearGradient><linearGradient id="linear-gradient-12" x1="1054.51" y1="373.28" x2="1077.49" y2="271.63" gradientTransform="matrix(1, 0, 0, 1, 0, 0)" xlink:href="#linear-gradient-10"/></defs><g class="cls-2"><path class="cls-3" d="M1692.84,11.12c20.42-16.63,36.94,15.89,68.6-9.89,17.21-14,16.09-30.3,2.21-42.17-10.75-9.19-23.4-12-40.79-.42-7.1,4.66-20.84,14-31.13,5.17-11.64-10-7.22-17.67,5.18-28.89,10.8-9.92,10.27-20.33,0-29.13-13.43-11.49-30.48-8.07-42.64,1.83-27.76,22.61,4.18,39.2-13.94,54-7.8,6.36-18.73,9.65-28.8,1-27.31-23.36-5.69-60.41,16.57-78.53,39.68-32.32,76.08-25.71,97.79-7.13,14.33,12.25,18,26.48,11.84,42.69,21.91-10,42.68-4.49,59.46,9.87,35.37,30.26,24.4,67.6-9.56,95.26-43.12,35.12-82.85,23.74-95.38,13C1683.05,29.94,1683.44,18.78,1692.84,11.12Z"/><path class="cls-4" d="M1057.11-89.8c-7.86,3.33-15.54,2.68-20.26-5.08s-.83-13.32,8.68-17.36L1123-145.12c12-5.08,21-.46,24.73,5.58,7.46,12.25,2.73,31.4-14.81,56-19.49,27.38-27.52,34.69-19,48.67,6.83,11.21,21,13,32.32,8.22,13.23-5.62,19.38-13.87,15.53-29.6-1.82-7.27-1.13-11.68,7.14-15.19,8.47-3.6,16.87-3.47,22.13,5.16,12.81,21.05-2.22,47.62-32.61,60.51-33.08,14-63.74,4.24-73.41-11.64-14-22.94-6.82-37.26,8.79-56.91,16.63-21,26.59-34.08,25.28-41.77Z"/><path class="cls-3" d="M754.4,14.53C736.64,17,718.91,10.77,708.64-1.55c-17.95-21.5-9.22-49.8,26.85-70.77s70.9-18,88.85,3.51c10.27,12.32,11.14,28.36,2.19,41.4C848-32.93,867-26,879.59-10.93c27.57,33,2.81,63.39-26,80.14s-71.51,25.6-99.08-7.43C742,46.72,740.75,29.43,754.4,14.53ZM835,46.93c16.63-9.67,21.81-24.3,10.56-37.79-7-8.4-25.46-18-46.77-5.61s-16.93,30.16-9.91,38.56C800.13,55.58,818.37,56.59,835,46.93ZM783.13-15.24c14-8.17,20.33-20.24,10-32.55-9.63-11.54-26-11.59-40.07-3.42s-19.68,21-10.05,32.56C753.33-6.34,769.07-7.07,783.13-15.24Z"/><g class="cls-5"><path class="cls-6" d="M438.29-8C434.07,9.26,418.44,22.81,398,27c-35.7,7.33-69.08-12.54-81.36-54.26s6.27-72.24,42-79.56c20.45-4.19,41.82,1.77,55.13,15.41,1.8-21.91,18.9-36.33,43.89-41.46,54.84-11.25,84.18,24.1,94,57.42s3.44,76-51.41,87.24C475.21,16.91,452.06,10.75,438.29-8Zm76.32-59.89C509-87.09,492-98,469.58-93.38c-13.95,2.86-34.28,15.64-27,40.3S474.92-25,488.88-27.83C511.27-32.42,520.27-48.63,514.61-67.86ZM411.4-46.69C406.62-62.95,393.46-73.75,373-69.56c-19.15,3.93-26.11,18.86-21.33,35.11s19.25,26.79,38.4,22.86C410.52-15.78,416.19-30.44,411.4-46.69Z"/></g><path class="cls-7" d="M1443.51.41c-2.31,4.82-6.45,7.74-14.75,5-11.86-3.95-6.38-25.8-67.18-60.71-8-4.52-10.1-7.24-7.32-13.06,3.43-7.17,9.21-7.39,15.59-5.27,14.67,4.9,50.06,35.78,60,57.32L1449-56.29c2.13-4.45,6.45-7,13.12-4.8s7.68,6.58,5.43,11.28Z"/></g><g class="cls-8"><path class="cls-9" d="M1889.4-1054.41V99.21H3959.49V48.82h38.39V4.3h-38.39V-52h38.39v-9.21l7.87,0v-9.59l-7.87-2.63V-96.53h-38.39v-56.31h38.39v-36.31h7.87v-8.23h12.95l-16.08-5.89-43.13-15.81v-34.61h38.39V-298.2h-38.39v-56.31h38.39V-399h-38.39v-56.31h38.39v-44.52h-38.39v-56.31h38.39V-600.7h-38.39V-657h38.39v-44.52h-38.39v-56.31h38.39v-44.52h-38.39V-909.09h312.27v-145.32ZM4094.86-45.54V-41l7.85,2.63v-7.18Z"/><path class="cls-10" d="M3975.4-117l15.81,7.35h-12.73v10.26h-7.74v45.26H3933V16h37.75V44.77l7.74,3.28V60l-7.74,0V71.51H3933v56.65H1688.84V-181.27h2281.9v1.37H3933v43.14Q3954.2-126.89,3975.4-117Z"/></g><g class="cls-11"><g class="cls-12"><rect class="cls-13" y="-59.3" width="1937.06" height="764.06"/><path class="cls-14" d="M1995.49,364.49V772L754.17,759.75s-83.79-104.83,314-146c193-20,339-273.13,604.09-168.56,14-16.16,40.19-45.87,73.45-65.55,69-40.8,144-44.1,181.42-48.53,26-.95,39.18,10.12,70.54,11.27"/><path class="cls-15" d="M213,544.06s9.13-17,64.52-1.53c54-29.91,151.67-110.79,248.28-38.48,41-31.43,118.43,3.17,133.77,46.75C705.22,532.09,765,567.22,754.45,590c20.18-10.9,57.81-4.35,55.35,17.2-.42,3.67,17.46,5.92,21.1,5.93,49.39,0,76.39-7.44,99.16,5.36,50.55-7.17,163.85,129.73,163.85,129.73L213,755.42Z"/><path class="cls-16" d="M1203.71,410.1s2,35.75-9.79,36.16-51.48-2.91-57.07-2.91-9.8,9.56-12.59,38.24-12,72.32-19.59,73.15-13.15-7.48-13.43-35.74,21.27-44.89,20.15-75.65l-8.12.42s-1.93,35.83-12,38.68c-7.27,2.05-2.24-39.93-2.24-39.93l-15.66.42s2.52,60.27-6.72,65.25-25.74-33.25-17.06-63.59l-8.12-1.25s-1.68,29.51-16.5,28.68-18.75-32.83-18.75-32.83l-6.43.83s-.84,42.39,17.9,46.13,19.87-1.24,19.87-1.24,22.38,55.28,22.38,84.37-8.12,111-26.58,155.87l111.35-5.82s-4.2-49.05-8.39-84.58-10.91-49.26-1.68-58,52.88-33,62.11-44.26,21.12-19.71,35.93-36.4c0,0,36.24-28.74,39.32-64.48,0,0-6.1,1.47-12.26,10.62s-15,34.89-35.23,44.72l13-54.26L1226,436.43s-10.49,52.64-29.23,72.59-48.4,22.86-51.48,21.2-12-7.9-10.91-34.5,4.47-42.81,22.66-41.56,24.06,8.31,32.73,6.23S1214.06,459.15,1203.71,410.1Z"/><path class="cls-17" d="M1000.52,450.16s1.89,25.89,16.06,29.17.31-2.12-5.35-9.53S1000.88,453.62,1000.52,450.16Z"/><path class="cls-18" d="M942.84,358.24c3.69-23,12-57.6,33.12-85.1,57-74.31,156.38-33.12,188.19-19.9,78.52,32.62,126.8,103.48,150.12,144.48,4,4.46,18.77,25.15-41.92,24.39-56.64,10.21-71.23,5.55-148.36.17A819.54,819.54,0,0,1,950.18,391Z"/><path class="cls-19" d="M1026.84,175.16s96.46-27,139.22,55.22c27.84,63.8,32.81,84.5-139.22,72.92C997.76,201.14,1026.84,175.16,1026.84,175.16Z"/><path class="cls-20" d="M890,121.42s79.4-61,149.76-.75c49.65,48.8,62,66.14-101.92,119.63C872.72,156.38,890,121.42,890,121.42Z"/><path class="cls-21" d="M462.75,389.78c-2.89,0-86.74-7.14-86.74-7.14s-52.05-13.08-22.17-45.2A53.44,53.44,0,0,0,372.73,318c5.95-10.51,4.36-15.67,8.16-25.35,12-30.67,52.37-41.11,52.37-41.11h0s54.7-13.53,95.41,13c4.54,3,6.78,4.56,8.51,7.32,18.82,30-39.73,117.93-39.73,117.93Z"/><path class="cls-22" d="M455.88,232s12.34-36.41,57.6-25.37c42,13.5,4.12,62.53-31.68,55.17S449.89,239.51,455.88,232Z"/><path class="cls-22" d="M512.22,200.44s3.2-9.44,14.93-6.58c10.88,3.5,1.07,16.22-8.21,14.31S510.66,202.4,512.22,200.44Z"/><path class="cls-23" d="M1114.54,318.9s122-24.35,176,49.79c35.2,57.53,41.49,76.19-176,65.75C1077.77,342.33,1114.54,318.9,1114.54,318.9Z"/><path class="cls-24" d="M540.4,416.14s-1.82,32,9.11,32.35,47.86-2.61,53.06-2.61,9.1,8.56,11.7,34.21,11.19,64.69,18.21,65.43,12.23-6.69,12.49-32-19.77-40.15-18.73-67.67l7.54.38s1.8,32.05,11.19,34.6c6.76,1.83,2.08-35.72,2.08-35.72l14.56.37s-2.34,53.91,6.25,58.37,23.93-29.74,15.86-56.88l7.55-1.12s1.56,26.4,15.34,25.66S724,442.17,724,442.17l6,.74s.78,37.92-16.65,41.27-18.46-1.12-18.46-1.12-20.81,49.45-20.81,75.47,7.54,99.26,24.71,139.42l-103.52-5.21s3.9-43.87,7.8-75.65,10.14-44.06,1.56-51.87-49.16-29.55-57.74-39.59S527.27,508,513.5,493.07c0,0-33.69-25.7-36.55-57.67,0,0,5.67,1.32,11.39,9.5s13.93,31.21,32.76,40L509,436.37l10.71,3.32s9.75,47.09,27.18,64.93,45,20.45,47.86,19,11.18-7.06,10.14-30.85-4.16-38.29-21.07-37.18-22.37,7.44-30.43,5.58S530.78,460,540.4,416.14Z"/><path class="cls-24" d="M729.31,452s-1.75,23.16-14.93,26.1-.29-1.9,5-8.53S729,455.07,729.31,452Z"/><path class="cls-25" d="M779.54,404.09s-3,36.43,14.83,36.85,77.94-3,86.41-3,14.82,9.75,19.06,39,18.21,73.71,29.65,74.55,19.91-7.62,20.33-36.42-32.19-45.75-30.5-77.1l12.29.43s2.93,36.52,18.21,39.42c11,2.09,3.39-40.69,3.39-40.69l23.72.42s-3.81,61.42,10.16,66.5,39-33.88,25.84-64.8l12.29-1.28s2.54,30.08,25,29.23,28.38-33.46,28.38-33.46l9.74.85s1.27,43.2-27.11,47-30.07-1.27-30.07-1.27-33.89,56.34-33.89,86,12.28,113.09,40.24,158.84l-168.58-5.93s6.35-50,12.7-86.2,16.52-50.19,2.55-59.09-80.06-33.67-94-45.11-25-15.88-33.46-52.31c0,0-54.64-16.52-59.3-52.95,0,0,2.54-10.16,11.86-.84s3.81,31.76,44.48,37.69l-1.28-26.26,19.12-4s2.89,45.3,31.27,65.63,58.74,26.46,63.4,24.77,3.11-1.74,1.41-28.85,2.87-34.5-24.67-33.23-29.11-1-42.24-3.15S763.87,454.07,779.54,404.09Z"/><path class="cls-26" d="M998,581.39c-9.42,4.79-13.53,8.48-23.05,20.3-35.19,43.68-20.36,114.66-18.64,121.56,26.92,3.17,53.91-1.26,80.83,1.91a282.25,282.25,0,0,1-12.91-28.86C1007.1,651.45,999.78,609.57,998,581.39Z"/><path class="cls-17" d="M901.31,485.72s9.75,51,26.16,65.19c0,0-17.9.58-26.16-27.8S901.31,485.72,901.31,485.72Z"/><path class="cls-17" d="M976.52,448.78s-2.77,47,10.57,55.27c0,0-14.61-.95-16.2-21.6S971,449.42,976.52,448.78Z"/><path class="cls-27" d="M1050,734.84s-53.7-47.66,35.34-55.8c-49.47-41.23,42.4-65.2,72.08-45.8-1.42-42.23,106-36.53,130-1.14,26.85-66.21,110.24-35.39,113.07-9.13,33.92-37.67,90.29,14.27,73.49,30.82,62.19-34.24,46.87,28,42.6,29.08,53.51-18.8,91.67,14.82,86,27.12,39.53-4.69,130,24.85,130,24.85Z"/><path class="cls-28" d="M-38.06,730.42s162.22,4.91,537.6,5.12,533-23.37,586.65-26.44,138.31-22.6,322.3-35.81,354.13-42.59,536.9,23.75c36.18,13.13-1.86,193-1.86,193L-38.06,888Z"/><path class="cls-28" d="M1436.63,676s7.5-5.48,22-6.83-15.54-7.2-26.25,6.83C1432.35,676,1427.53,682.2,1436.63,676Z"/><path class="cls-28" d="M1416.28,676.74s22-17.54,34.82-22.22-12.32-5.07-29.47,9.55C1421.63,664.07,1413.06,672.85,1416.28,676.74Z"/><path class="cls-28" d="M1409.85,676.74s14.59-28.46,21.22-32-10.51-5.46-21.22,17.74C1409.85,662.51,1405.56,674.8,1409.85,676.74Z"/><path class="cls-28" d="M1402.08,676.74s5.63-26.12,11-30S1392.71,651,1402.08,676.74Z"/><path class="cls-28" d="M1398.87,676.74s.27-21.76-11.25-25.11S1394.32,665.83,1398.87,676.74Z"/><path class="cls-28" d="M1395.12,676.74s-7.23-24.94-24.91-25.53S1384.14,660.37,1395.12,676.74Z"/><path class="cls-28" d="M1393.6,676.74a34.41,34.41,0,0,0-25.53-9.35C1352,668.17,1389.67,673.63,1393.6,676.74Z"/><path class="cls-28" d="M1781.6,686.92s7.5-5.48,22-6.83-15.53-7.21-26.24,6.83C1777.32,686.92,1772.49,693.16,1781.6,686.92Z"/><path class="cls-28" d="M1761.25,687.7s22-17.55,34.81-22.22-12.32-5.07-29.46,9.55C1766.6,675,1758,683.8,1761.25,687.7Z"/><path class="cls-28" d="M1743.84,687.7s.26-21.76-11.25-25.11S1739.28,676.78,1743.84,687.7Z"/><path class="cls-28" d="M1740.09,687.7s-7.23-24.94-24.91-25.53S1729.11,671.32,1740.09,687.7Z"/><path class="cls-28" d="M1738.57,687.7a34.4,34.4,0,0,0-25.53-9.36C1697,679.12,1734.64,684.58,1738.57,687.7Z"/><path class="cls-29" d="M-4.78,796.61S114.62,798,358.7,780s633.57,28.84,844.37,28.84c193.34,0,647.47-37.1,685.7-41s20.3,164.45,20.3,164.45H1683.94c-59.73,0-1695.71,12.9-1695.71,12.9Z"/><path class="cls-30" d="M-8.94,429.19l-15,323H691.81l-3.26-4c-78.36-59.14-200.8-52.42-200.8-52.42,24.49-27.76-19.59-94.09-119.17-71.24,0,0-4.9-104.84-91.42-63.66,27.75-38.13-49-113.76-129-82.85C171,435,89.42,365.06,16,424.2,16,424.2-1,417-8.94,429.19Z"/><path class="cls-31" d="M669.76,726.26s11.94-95,87.14-59.21c2.89-23.49,44.5-30.12,53.7-16.51,0-22.11,47.52-37,58.38-14.2,3.63-34.83,57.34-39.27,69.56-9.12,49-20.07,65,21.78,65,21.78,31.92-15.32,61.23,14.33,59.87,51.88,79.49,46.53-77.31,42.19-77.31,42.19Z"/><path class="cls-32" d="M204.65,752.14s32.6-78.12,142-58.6c-7.3-54.06,93-58.51,125.85-37.51-7.29-58.6,85.73-35.31,104-11.66,32.83-39.43,120.38,13.13,83.9,46.17,78.43-34.54,111.27,28.53,111.27,28.53,63.83-30,120.74,33.58,120.74,33.58Z"/><path class="cls-33" d="M793.85,764.3s15.34-3,14.91-11.17S793.85,764.3,793.85,764.3Z"/><path class="cls-33" d="M804.93,738.6c6.39-5.22-11.08-5.64-14.91,15.81v9.89"/><path class="cls-33" d="M788.1,764.3s4.3-15.94-11.72-16.76C769.14,747.17,788.1,764.3,788.1,764.3Z"/><path class="cls-33" d="M787.22,764s-9-8.3-17.4-3.28S787.22,764,787.22,764Z"/><path class="cls-33" d="M473.43,756.28s6.24-5.48,18.28-6.84-12.93-7.2-21.85,6.84C469.86,756.28,465.84,762.52,473.43,756.28Z"/><path class="cls-33" d="M456.48,757.06s18.29-17.55,29-22.23-10.26-5.07-24.53,9.56C460.94,744.39,453.8,753.16,456.48,757.06Z"/><path class="cls-33" d="M451.13,757.06s12.15-28.47,17.67-32-8.75-5.45-17.67,17.75C451.13,742.83,447.56,755.11,451.13,757.06Z"/><path class="cls-33" d="M444.66,757.06s4.68-26.13,9.14-30S436.85,731.32,444.66,757.06Z"/><path class="cls-33" d="M442,757.06s.23-21.77-9.36-25.12S438.19,746.14,442,757.06Z"/><path class="cls-33" d="M438.86,757.06s-6-24.94-20.74-25.53S429.72,740.68,438.86,757.06Z"/><path class="cls-33" d="M437.6,757.06s-7.88-10.14-21.26-9.36S434.33,753.94,437.6,757.06Z"/><path class="cls-34" d="M1955.85,840.15s-133.56-22.64-421,6S906,874.11,756,865.77s-119.67-49.45-418.84-48.26c-222.25.89-363.95,9.31-363.95,9.31L-46.53,932.27l610-9.34L1961,931.4Z"/><path class="cls-35" d="M626.14,838.8s-.44-23.57-20.48-29.8c-6-1.86,3.5,3.5,11.49,20.57,0,0,1.49,4,1.24,5.12s-13.23-20.47-21.72-21.59c0,0,16.48,18.3,18.23,24.61C614.9,837.71,620.64,851.47,626.14,838.8Z"/><path class="cls-35" d="M580.62,836.81s9.74-6.07,4.74-9.42S573.38,836.54,580.62,836.81Z"/><path class="cls-35" d="M571.38,835.21s10-13.41,3-20.12S567.38,831.86,571.38,835.21Z"/><path class="cls-35" d="M336.12,819.86s10.74-8.06,31.47-10-22.26-10.58-37.62,10C330,819.86,323.07,829,336.12,819.86Z"/><path class="cls-35" d="M306.94,821s31.48-25.77,49.91-32.64-17.66-7.44-42.23,14C314.62,802.39,302.34,815.28,306.94,821Z"/><path class="cls-35" d="M297.73,821s20.91-41.8,30.42-47-15.07-8-30.42,26.06C297.73,800.1,291.59,818.14,297.73,821Z"/><path class="cls-35" d="M286.6,821s8.06-38.37,15.74-44.09S273.16,783.21,286.6,821Z"/><path class="cls-35" d="M282,821s.39-32-16.12-36.88S275.47,805,282,821Z"/><path class="cls-35" d="M276.62,821s-10.37-36.63-35.7-37.5S260.88,797,276.62,821Z"/><path class="cls-35" d="M274.44,821a48.73,48.73,0,0,0-36.59-13.74C214.82,808.4,268.81,816.42,274.44,821Z"/><path class="cls-35" d="M423.89,819.7s16.15-2.83,14-13C436.38,799.58,423.89,819.7,423.89,819.7Z"/><path class="cls-35" d="M419.9,818.21s11.33-11.13,4.49-17.51C420.4,797,419.9,818.21,419.9,818.21Z"/><path class="cls-36" d="M492,278.34A58.21,58.21,0,0,1,513.24,243s-10.52-14.12.6-29,28.64.59,28.64.59-2.42-13.28,24.64-14.22c0,0-.71-17.73,17.89-28.16,0,0-12.85-20.75,7.35-38.79,17.16-15.33,41.78.87,41.78.87l117.75,23.26,44.57,103.14-112,58.52Z"/><path class="cls-37" d="M608.49,275.9s-4.65-54,31.59-71.64c0,0-31.85-37.44,1.55-74.6s62.21-18.18,62.21-18.18S732,74.2,796.71,75.54s87,20.19,87,20.19,109.24.1,167.3,69.45c0,0,116.54,66.43,119,142C1170.05,307.18,721.65,400.3,608.49,275.9Z"/><path class="cls-38" d="M612.91,444.59S585,475.38,550.36,474.66c-27-.56-34.14-22.88-34.14-22.88s-23.6,16.82-39.89-6.24c0,0-29.23,27.52-60.31,13.36s-31-45.53-26-51.38c0,0-8.16-23.42.63-30.27,0,0-13.82-20.69.84-40.55C403.75,320.13,417.26,321,417.26,321s4.82-24.24,22.81-30.89,35.68.74,35.68.74A44.56,44.56,0,0,1,512,264c27.65-3.21,33,.69,33,.69S556.75,244.4,577.79,247s29.53,10.34,33.71,17.46c0,0,8.79-5.64,14.17-5.11,45.16,4.45,105.05,33,105.05,33s-40.08,41.73-46.09,71.17S612.91,444.59,612.91,444.59Z"/><path class="cls-39" d="M983.81,254.06s90.61-40.58,111.9,2.31c0,0,12.41-11.91,29.31-5.07s14.14,22.2,14.14,22.2a20.86,20.86,0,0,1,23.43,4.54c11.14,10.78,11.7,23,7.46,31.79S1072,345.35,1072,345.35,940.36,314.81,983.81,254.06Z"/><path class="cls-40" d="M654.81,292.31s-17.25-6.49-31.29,5.39c0,0-47-3.41-43.21,49.4,0,0-32.51,3-37.8,23.38S546.69,404,546.69,404,531,430.06,553.89,448c19.16,15,41.73-2.38,41.73-2.38s8.65,26.37,38.21,20.26c17.46-3.61,23.8-13.3,23.8-13.3s2.9,16.87,22.4,15.36,16.53-14.55,16.53-14.55S754.62,470,777.1,442s19.6-123.76,19.6-123.76Z"/><path class="cls-41" d="M1080.39,307.88s12-20.48,36.6-8.61c0,0,2.92-10.22,20.73-8.23s17,14.42,17,14.42,20.1-14.26,35.21-2.52c15.73,12.23,6.47,26.86,6.47,26.86s21.59,2.39,18.49,21.25S1192.27,373,1192.27,373s19.78,11,1,30.73l-51.16-10.36-120-54.4S1074,320.91,1080.39,307.88Z"/><path class="cls-42" d="M1021.1,307.56s21.8-8.2,34.75-6.85,13.75,14.88,13.75,14.88,15.49-16.44,34.27-9.56,11.88,27.28,11.88,27.28,15.63,2.49,13.64,20.3c0,0,34.16-4.16,35,32.63,0,0,36.33-4.65,38.88,28.93s-21.72,30.38-21.72,30.38l-173.13-6L657.64,387.1s-7.14,5.26-12,5.16c0,0-23.79,26-45.07,8.8s-6.16-42-6.16-42-12.54-21.09,4.56-37.5,32.59-6.9,32.59-6.9-7.15-12.77,23.26-22.32S721,279.17,763.73,304.39Z"/><ellipse class="cls-43" cx="663.66" cy="318.77" rx="9.9" ry="7.28" transform="translate(144.18 840.49) rotate(-70.78)"/><ellipse class="cls-43" cx="1089.72" cy="324.35" rx="9.9" ry="7.28" transform="translate(424.7 1246.54) rotate(-70.78)"/><ellipse class="cls-43" cx="1173.36" cy="411.53" rx="9.9" ry="7.28" transform="translate(398.48 1384) rotate(-70.78)"/><circle class="cls-40" cx="642.07" cy="372.54" r="9.91"/><path class="cls-44" d="M1032.35,338.62s6.65-7.8,19.59-5.73,16.22,17.65,16.22,17.65,7.38-8.14,17.79-5.76,20.31,11.59,19.28,26.35c0,0,33.86,1.79,30.72,31.29,0,0,12.52,4.58,9,20s-14.33,13.05-14.33,13.05l-398.79.75s-22.15-1-36-11.56c0,0-25,7.59-29.87-20.09,0,0-35.62-29.94,11.44-56.55,0,0,.5-24.14,30.76-22.52,0,0-6.37-15.21,11.86-24.19,14.75-7.26,26.9,6.51,26.9,6.51s6.81-15.54,38.79-18.67,137,16.9,137,16.9Z"/><ellipse class="cls-45" cx="526.04" cy="268.42" rx="10.54" ry="7.62" transform="translate(64.5 636.87) rotate(-65.63)"/><ellipse class="cls-45" cx="504.08" cy="278.52" rx="10.54" ry="7.62" transform="translate(42.4 622.8) rotate(-65.63)"/><ellipse class="cls-46" cx="595.87" cy="198.02" rx="10.54" ry="12.43" transform="translate(59.54 524.56) rotate(-49.72)"/><ellipse class="cls-45" cx="1085.36" cy="230.69" rx="10.54" ry="7.62" transform="translate(427.44 1124.2) rotate(-65.63)"/><ellipse class="cls-47" cx="1203.48" cy="298.96" rx="10.54" ry="7.62" transform="translate(434.64 1271.9) rotate(-65.63)"/><ellipse class="cls-48" cx="1244.92" cy="322.13" rx="27.26" ry="30.07" transform="translate(343.49 1239.2) rotate(-60)"/><ellipse class="cls-49" cx="1271.97" cy="429.91" rx="27.01" ry="24.48" transform="translate(-65.92 316.92) rotate(-13.85)"/><ellipse class="cls-50" cx="1219.44" cy="438.82" rx="20.27" ry="18.38" transform="translate(-69.58 304.61) rotate(-13.85)"/><ellipse class="cls-51" cx="380.2" cy="317.34" rx="17.51" ry="19.32" transform="translate(-84.72 487.94) rotate(-60)"/><ellipse class="cls-52" cx="370.48" cy="384.19" rx="20.79" ry="24.33" transform="matrix(0.5, -0.87, 0.87, 0.5, -147.48, 512.94)"/><ellipse class="cls-53" cx="394.9" cy="356.44" rx="11.18" ry="12.33" transform="translate(-111.23 520.22) rotate(-60)"/><ellipse class="cls-51" cx="403.07" cy="284.65" rx="11.14" ry="12.29" transform="translate(-44.97 491.4) rotate(-60)"/><ellipse class="cls-51" cx="397.22" cy="301.39" rx="7.91" ry="8.73" transform="translate(-62.4 494.7) rotate(-60)"/><ellipse class="cls-54" cx="1129.34" cy="200.84" rx="22.72" ry="25.64" transform="translate(390.73 1078.46) rotate(-60)"/><ellipse class="cls-55" cx="1094.71" cy="170.07" rx="17" ry="19.18" transform="matrix(0.5, -0.87, 0.87, 0.5, 400.07, 1033.09)"/><ellipse class="cls-54" cx="1158.83" cy="238.13" rx="14.95" ry="16.88" transform="translate(373.19 1122.64) rotate(-60)"/><ellipse class="cls-48" cx="1283.59" cy="365.58" rx="17.91" ry="21.77" transform="translate(325.2 1294.41) rotate(-60)"/><ellipse class="cls-48" cx="1309.93" cy="405.34" rx="12.69" ry="15.42" transform="translate(303.93 1337.1) rotate(-60)"/><path class="cls-56" d="M336.65,878.2s417.28-5.83,497.14-12.69,365-13.39,365-13.39,6.52-24.7,26.08-27.45S1210.18,853,1210.18,853s45.63-26.92,55.41-18.68-37.48,18.59-37.48,18.59h112.45s-39.12-32.66-17.93-28.37,32.59,28.18,32.59,28.18-9.78-29.38,11.41-34.87,0,37.06,0,37.06,9.78-24.71,19.56-19.22,0,17.84,0,17.84l120.6,1.38s-51-22-26.33-26.08,36.12,27.45,36.12,27.45-24.43-30.2,0-32.94,13,26,13,26h62.06l68.32,0s-29.34-28.68-109.19-46.52c0,0,25.67-54.68,126.91,20.59-42.17-46.67-58.21-71.38-86-75.49,0,0,47.13-30,97.65,60.39,0,0-43.63-50.79,15.67-85.1,0,0-18.56,48.34,0,79.08,0,0-10.78-53,38.11-68.1-17.92,59-27.7,70-13,85.1,0,0-17.93-53.53,76.59-71.37l3.26,1.37s-60.3,15.1-61.93,65.88c0,0,21.79-48,102.16-32.94,0,0-94,15.32-94,65.88l180.93-2.33V955.38L-5.59,937V888l299.87-9.77Z"/></g></g></svg>