<svg xmlns="http://www.w3.org/2000/svg" viewBox="0 0 201.7 156.89"><defs><style>.cls-1{opacity:0.3;}.cls-2{fill:#8c5310;}.cls-3{fill:#e09944;}.cls-4{fill:#ffe1a6;}.cls-5{fill:#f2cf91;}.cls-6{fill:#ffecca;}.cls-7{fill:#f2c066;}</style></defs><g id="Layer_12" data-name="Layer 12"><ellipse class="cls-1" cx="99.96" cy="78.82" rx="71.1" ry="6.51"/><path class="cls-2" d="M166.06,135.1c-4.76,3.08-31.13,19.69-68.82,17.64a107,107,0,0,1-53-16.93,106.62,106.62,0,0,1-23.77-21.2c-5.4-6.43-27-32.24-11.91-62.32,11.07-22,39.18-40.93,74.12-44.64,4.87-.51,9.58-1.26,14.24-1.85,3.07-.44,6.14-.79,9.21-1a49,49,0,0,1,13.61.87,34.49,34.49,0,0,1,3.49.91C132,9.39,140.7,15,148.43,19.34c1.11.63,2.23,1.26,3.34,1.85,19.48,10.46,34.3,25.5,40.76,41.32C202.12,85.92,195.55,115.8,166.06,135.1Z"/><path class="cls-3" d="M139.56,19.17c-.23-1.6-7.85-8.82-18.09-10.52C114.07,7.42,108.69,7.26,99.85,7c-10.1-.29-15.26-.42-20.74.66-4.43.87-6.91,1.92-13.67,4.6-21.75,8.62-20.59,7.46-24.71,9.54,0,0-14.14,7.11-22.5,19.72C1.31,67.07,27.05,102,27.05,102a36,36,0,0,1-5.73-17.75C20.11,63.58,36.51,47.77,39,45.47,71,15.47,140.34,24.65,139.56,19.17Z"/><path class="cls-3" d="M122.46,140.31c2,2.89,17.79.65,28.79-5.35,2.21-1.21,7.21-5.27,17.2-13.38,5.34-4.33,7.2-6,9.27-8.29A44.21,44.21,0,0,0,186,100.72c2.2-5.34,1.62-7.85,2.65-17.38s2.33-13.82,2.64-16.59c1.3-11.29-31.17-41.87-33.75-40.12-1.32.91,9.24,7.78,15.22,22.74,9.39,23.45-1.06,45.23-2,47.07C156.23,125.54,119.37,135.71,122.46,140.31Z"/><path class="cls-4" d="M160.11,127.05a90.48,90.48,0,0,1-11.06,6.31c-6.2,3-11.22,8.28-21.39,10.33-7.83,1.6-20.06.49-29.75,0a93.85,93.85,0,0,1-52.47-19.22,94.39,94.39,0,0,1-16.94-16.6C23.63,101.8,4,77.54,17.7,49.3A63.44,63.44,0,0,1,34.11,28.61c3-2.42,4.87-5.58,9.06-6.68C56.19,18.36,69,9.14,84.73,7.42,126.81,2.75,165.57,25,180.6,51.76A58.75,58.75,0,0,1,184,58.94C192.73,80.86,186.8,108.93,160.11,127.05Z"/><path class="cls-5" d="M160.11,127.05a90.48,90.48,0,0,1-11.06,6.31c-6.2,3-11.22,8.28-21.39,10.33-7.83,1.6-20.06.49-29.75,0a93.85,93.85,0,0,1-52.47-19.22,135.13,135.13,0,0,0,27.69,1.35,146.12,146.12,0,0,0,52.94-13.36c26.26-12.34,38.86-28.85,41.72-32.79A76.51,76.51,0,0,0,180.6,51.76,58.75,58.75,0,0,1,184,58.94C192.73,80.86,186.8,108.93,160.11,127.05Z"/><path class="cls-6" d="M114.85,11.52C114.09,8.66,98.54,8.62,91,9.13a79.15,79.15,0,0,0-19.42,3.75C65.16,15,63.7,16.54,51.76,21.42c-7,2.87-8.06,3-10.59,4.1-15.88,7-22.44,24.12-24.26,29.71C13.08,67,13.56,85.34,19.11,86.65c5,1.18,13.71-13.2,18.53-19.46,9.77-12.68,9.81-18.35,14.56-25.28C68.73,17.84,116.18,16.52,114.85,11.52Z"/><path class="cls-7" d="M180.13,72c-.43-8-1.12-20.78-12.34-33.12C153.5,23,131.68,18.61,121.89,16.64c-6.51-1.31-28.75-5.25-53.79,1.72C60.37,20.49,48.3,24,38.08,33A49.22,49.22,0,0,0,25.27,51.15a49.49,49.49,0,0,0-4,25.61c2.17,17.75,14,29.72,19.85,35.49a90.21,90.21,0,0,0,46.33,25.29c7.3,1.52,21.23,4.26,37.06.33,11.91-3,19.8-8.36,26.94-13.32,5-3.44,12.39-8.53,18.53-16.72C181.08,93.07,180.5,78.4,180.13,72Zm-7,22.54c-2.12,5.16-8.48,17.83-25.15,27.66a84.66,84.66,0,0,1-34.41,10.94,89,89,0,0,1-31.77-2.41C67.52,126.8,59.1,120.12,52.64,115,47,110.53,34.75,100.53,28.82,84.26c-2.54-7-6.46-17.83-1.33-30.74S44,33.12,47.35,31c9.42-6,18.69-8.23,25.57-9.91S87.74,17.5,98.07,18c6.35.33,8.41,1.31,28.27,6.85,23.34,6.51,24.4,6.23,28.22,8.52,10,6,13.44,14.3,16.78,22.21C174.25,62.58,180.28,77.09,173.09,94.51Z"/><path class="cls-7" d="M169.11,68.4c-1-5.74-2.7-15.37-11.91-24.59-18.26-18.4-49.34-18.44-54.95-18.44A83.41,83.41,0,0,0,73.13,30C67.94,31.8,51.16,38,42.74,52.5c-9,15.33-2.8,29.92,0,36.39,1,2.42,13.71,30.74,48.29,38.41a80.68,80.68,0,0,0,29.11,1c3.5-.53,20.81-3.44,34.42-15.37C174,95.86,170.12,74,169.11,68.4ZM156.3,106.48c-3.12,3.64-12.49,14.22-30.86,18.77a73.71,73.71,0,0,1-38.81-1.36c-25-7.74-34.25-26.43-38.38-34.83-3.71-7.5-8.68-17.5-4.45-29.39,3.81-10.57,12.81-17,15.88-19.14,10.43-7.21,21.5-9.3,26.47-10.24,4.13-.74,33.41-5.66,57.39,9.59,2.76,1.72,14.62,9.59,20.28,23.56C164.83,65.9,172.93,87.09,156.3,106.48Z"/><path class="cls-7" d="M158.53,66.52S161,60.7,141.32,44.3c-7.89-6.55-18.9-6.39-26.47-7.17-6-.61-18-1.72-31.77,2.38C77.15,41.27,61.85,45.82,54.39,58c-6,9.88-3.6,19.26-2.17,24.59,5.4,20.74,26.47,31.52,29.12,32.79,6.56,3.28,21.44,10.57,40.13,7.54A50.09,50.09,0,0,0,155,102C165.73,86.68,160.33,71.56,158.53,66.52ZM144.39,111.6a49,49,0,0,1-17.84,8.85,57.39,57.39,0,0,1-19.22,1.72c-12-.94-20.22-5.49-25.57-8.52C76.15,110.41,62.91,101.84,57,86.84c-2.33-6-5.67-14.59-1.06-24.26C60.9,52.13,72,46.8,75.35,45.16A63.78,63.78,0,0,1,92.14,40c7.73-1.47,20.17-3.81,34.2.33a49.33,49.33,0,0,1,23.82,15.2,39.07,39.07,0,0,1,6.41,10.58c3.49,9,2,16.47.84,21.51C155.83,94.92,153.92,103.85,144.39,111.6Z"/><path class="cls-7" d="M155.53,68.71s2.15-5.12-15.15-19.56c-6.95-5.78-16.65-5.63-23.31-6.32a70.42,70.42,0,0,0-28,2.09c-5.22,1.56-18.7,5.56-25.27,16.25-5.32,8.7-3.17,17-1.91,21.65,4.75,18.27,23.31,27.76,25.64,28.88,5.78,2.89,18.88,9.31,35.34,6.64A44.09,44.09,0,0,0,152.41,100C161.88,86.47,157.12,73.15,155.53,68.71Zm-12.44,39.71a43.27,43.27,0,0,1-15.72,7.79,50.41,50.41,0,0,1-16.92,1.52c-10.59-.83-17.82-4.84-22.53-7.51C83,107.37,71.32,99.83,66.15,86.61c-2.05-5.3-5-12.85-.93-21.36C69.55,56,79.3,51.35,82.28,49.91a56.29,56.29,0,0,1,14.78-4.52c6.81-1.3,17.77-3.35,30.12.29a43.5,43.5,0,0,1,21,13.39,34.35,34.35,0,0,1,5.64,9.32c3.08,7.9,1.72,14.51.75,19C153.16,93.73,151.48,101.59,143.09,108.42Z"/><path class="cls-7" d="M147.3,66.78s.77-4.51-16.46-14.44c-6.91-4-14.93-2.7-20.6-2.48-4.48.18-13.47.62-22.81,5.06-4,1.91-14.43,6.83-17.77,16.49-2.69,7.85.73,14.46,2.71,18.2,7.56,14.6,24.85,20.28,27,20.93,5.37,1.71,17.52,5.49,30.66,1.32C145.1,107,149.94,95.44,150.9,93.1,156.09,80.77,149.5,70.28,147.3,66.78Zm-2.47,34.44a32.33,32.33,0,0,1-11.5,8.34,40.59,40.59,0,0,1-13.75,3.27c-9,.57-15.75-1.9-20.19-3.56-4.66-1.78-15.84-6.66-22.75-17-2.76-4.17-6.69-10.08-5-17.63,1.78-8.16,8.94-13.21,11.13-14.77a43.18,43.18,0,0,1,11.38-5.5c5.39-1.89,14.08-4.89,25.06-3.33a41.31,41.31,0,0,1,20.08,8.62,33.53,33.53,0,0,1,6.53,7.06c4.12,6.2,4.3,11.85,4.37,15.65C150.28,87.83,150.45,94.56,144.83,101.22Z"/><path class="cls-7" d="M148.52,80.57c-.58-6.1-5.19-10.73-7.2-12.7a37.18,37.18,0,0,0-20.54-11.11c-11.49-2-26,.82-33.73,9.39A19.51,19.51,0,0,0,82,81.68c1.17,9,8.9,14.43,14.35,18.28s10.8,7.66,19.43,8.2a33.36,33.36,0,0,0,19.16-4.76c3.71-2.33,5.51-4.79,9.06-9.75,3.7-5.17,4.5-8.36,4.66-10.9A20.06,20.06,0,0,0,148.52,80.57Zm-2.22,5.5c-1.33,8.6-8.74,13.89-9.8,14.59a33.61,33.61,0,0,1-16.36,5.61,31.28,31.28,0,0,1-14.56-1.76c-1.9-.78-4-2.38-8.25-5.53-4.93-3.65-7.42-5.54-9.11-8a18.18,18.18,0,0,1-2.81-7.33,20.65,20.65,0,0,1,.64-10,18.46,18.46,0,0,1,4.5-8.08c4.55-4.75,11.06-6.31,13.71-6.92a40.32,40.32,0,0,1,18.53.37,36.71,36.71,0,0,1,15.56,7.7A24.84,24.84,0,0,1,146,79.14,20.61,20.61,0,0,1,146.3,86.07Z"/><path class="cls-7" d="M140.9,80.7A20.47,20.47,0,0,0,134,71.11c-.47-.37-10.85-8.2-22.23-5.45a19.75,19.75,0,0,0-7.94,3.93c-7.15,5.49-9.59,14.8-5.51,22.54a20.58,20.58,0,0,0,10.8,9.71c1.06.46,10.32,4.18,19.85.7a20.21,20.21,0,0,0,9.48-7A16.09,16.09,0,0,0,140.9,80.7Zm-1.91,11a15.3,15.3,0,0,1-6.14,7.71,22.69,22.69,0,0,1-8.42,3.15c-.74.12-10.69,1.64-18.05-3.69a15.13,15.13,0,0,1-6.3-10.9,19.13,19.13,0,0,1,2.17-11.19,29.39,29.39,0,0,1,3-4.26,11.39,11.39,0,0,1,2.64-2.83c2-1.31,4.4-1.51,6.73-1.72a27.52,27.52,0,0,1,5,.08A31.36,31.36,0,0,1,125,69.3c7.57,2.34,7.31,2.22,7.57,2.34C139.2,74.39,142,84.22,139,91.68Z"/></g></svg>