<svg xmlns="http://www.w3.org/2000/svg" viewBox="0 0 256 256"><defs><style>.cls-1{isolation:isolate;}.cls-2{fill:#221f1f;}.cls-2,.cls-36{opacity:0.2;}.cls-3{fill:#f0fbfa;stroke:#7bc6bd;}.cls-14,.cls-23,.cls-3,.cls-34,.cls-4{stroke-miterlimit:10;}.cls-4{fill:#d4b6bd;stroke:#af697c;}.cls-5{fill:#ffb51c;}.cls-6{fill:#ffa418;}.cls-7{fill:#ffb747;}.cls-8{fill:#ffe706;}.cls-9{fill:#fffddd;}.cls-10{fill:#f7df00;}.cls-11{fill:#ffde05;}.cls-12{fill:#fff778;}.cls-13{fill:#fcd200;}.cls-14{fill:#b1bd00;stroke:#87a80e;}.cls-15{fill:#c8d600;}.cls-16{fill:#d8e628;}.cls-17{fill:#96a100;}.cls-18{fill:#d9d900;}.cls-19{fill:#535900;}.cls-20{fill:#1b1f01;}.cls-21{fill:#46267d;}.cls-22{fill:#53338f;}.cls-23{fill:#de0600;stroke:#aa2121;stroke-width:0.75px;}.cls-24{fill:#fb0600;}.cls-25{fill:#fff;}.cls-26{fill:#fbf0b2;}.cls-27{fill:#e2ca64;}.cls-28{fill:#fd424d;}.cls-29{fill:#df0000;}.cls-30{fill:#ff5767;}.cls-31{fill:#df7900;}.cls-32{fill:#f8c724;}.cls-33{fill:#f8b600;}.cls-34{fill:#00b0be;stroke:#0d9b97;}.cls-35,.cls-36{fill:#009fc2;}.cls-36{mix-blend-mode:multiply;}</style></defs><g class="cls-1"><g id="Layer_1" data-name="Layer 1"><ellipse class="cls-2" cx="128" cy="195.15" rx="97.59" ry="24.01"/><ellipse class="cls-3" cx="128" cy="80.95" rx="117.5" ry="44.12"/><path class="cls-4" d="M243.05,79.43V80c0,.5-.05,1-.11,1.5a16.29,16.29,0,0,1-.51,2.46,18.68,18.68,0,0,1-1.78,4.15,25.06,25.06,0,0,1-2.32,3.37A32.92,32.92,0,0,1,236.12,94l-.64.62a43.18,43.18,0,0,1-3.53,3,62.24,62.24,0,0,1-5.64,3.83l-.25.15-.26.15c-.59.36-1.19.71-1.81,1l-.94.51c-.49.27-1,.54-1.51.8l-1.29.65-.66.33-.66.31c-1.12.54-2.28,1.06-3.46,1.58l-.28.12-.85.36-.16.07-.38.16h0l-.42.17-.33.14-.66.27-.73.29-.16.06-.59.23-.37.14h0l-.86.33h0l-.48.18-.83.31h0l-.66.24-1.11.4-.12,0c-.37.14-.75.27-1.14.4l-1.39.46-.86.28-1,.32-.06,0-1.85.57-.7.21h0l-1,.29c-.66.2-1.34.39-2,.57a1,1,0,0,1-.16,0l-.63.18-.42.11-.82.22-.25.07h0l-.34.09h0c-.46.13-.93.25-1.4.36-.27.08-.54.14-.81.21h0c-.87.22-1.75.44-2.65.65l-1.17.27-.72.17-1.52.34-1.87.4-2.41.5-.18,0-1.5.3c-1.17.23-2.36.45-3.56.66h0c-1.34.24-2.69.47-4.06.69l-.84.13-.31.05h-.07l-.14,0-.18,0-.3,0q-2.67.4-5.42.77l-1.52.2-.27,0-.38,0-1.32.16h0l-2.11.25h0l-1.08.11-1,.11h-.12l-2.18.23-2.48.23a2.58,2.58,0,0,0-.29,0h-.23l-.26,0-.27,0h-.1c-.27,0-.54.05-.81.06l-.63.06-.63,0h-.12l-.24,0-.28,0H148l-.28,0-.51,0-.32,0-.67,0c-.43,0-.86.07-1.3.09h0l-.42,0-.82.05-.75,0-2.21.12-.54,0-.54,0-.54,0-.68,0-1.48.06-2.14.08-1.37,0h0a.75.75,0,0,1-.15,0H133l-1.06,0h-1.72l-.54,0h-4.13a2.09,2.09,0,0,1-.25,0H124c-1.34,0-2.67,0-4,0s-2.45,0-3.66-.06l-2.14-.06c-.57,0-1.13,0-1.69-.06l-1.12,0-2.56-.11h0c-1.25-.06-2.5-.13-3.74-.21l-1.18-.07h0l-3.23-.23c-1.08-.08-2.15-.16-3.22-.26-1.61-.14-3.2-.29-4.78-.46l-1.4-.14-1.67-.19h0l-1.51-.18-1.36-.17h-.14l-.57-.08-2.86-.38-.49-.07-.91-.13-1.24-.19-.4-.06-1.9-.3c-1.22-.19-2.42-.4-3.61-.6l-.9-.17-.9-.16L71.7,118l-1.45-.28-1.75-.35L66.9,117c-1.36-.29-2.71-.59-4-.9l-.29-.07-1.38-.33c-.85-.21-1.7-.42-2.53-.64l-.42-.11-.93-.24-1.54-.43-.25-.07h0c-.2,0-.39-.1-.59-.16L54.7,114l-.31-.08-.57-.17c-1.38-.4-2.73-.81-4-1.24l-1.23-.4c-3.44-1.14-6.69-2.36-9.71-3.64h0c-1.31-.56-2.57-1.13-3.79-1.71-.14-.08-.28-.14-.43-.21q-3.28-1.59-6.14-3.3c-1.17-.71-2.3-1.44-3.35-2.18-.69-.47-1.35-1-2-1.45L23,99.52c-.55-.43-1.07-.86-1.58-1.29-.83-.71-1.6-1.43-2.32-2.16-.15-.16-.32-.32-.46-.49h0c-.26-.29-.53-.57-.77-.85A25.48,25.48,0,0,1,15.72,92l-.23-.36a17.63,17.63,0,0,1-2.69-6.9,14.86,14.86,0,0,1-.17-2.1,15.94,15.94,0,0,1,.69-4.83s0,0,0,0c.09-.3.19-.59.3-.88l0-.11c.1-.26.21-.53.32-.79a.14.14,0,0,0,0-.06,1,1,0,0,0,.07-.15l.31-.64a3.13,3.13,0,0,1,.15-.32l.23-.46.17-.31.09-.14c.18-.32.37-.64.58-1a1.94,1.94,0,0,0,.15-.24l.05-.07c.18-.27.36-.53.55-.79.06-.07.1-.15.16-.23.26-.34.51-.69.79-1l.14-.18c.24-.29.48-.57.74-.86l0,0,.1-.12.11-.13.27-.28.05-.06.43-.45.14-.14a.76.76,0,0,1,.09-.09c.17-.19.37-.37.55-.56l.11-.1q.57-.55,1.2-1.11l.53-.46.16-.13.5-.42,0,0,.06-.05L23,65l.52-.39.12-.1.19-.15.22-.17,0,0,.14-.1L25.67,63c.08,0,.15-.1.23-.15.52-.37,1.06-.73,1.62-1.09a1.83,1.83,0,0,1,.3-.18c.11-.09.23-.16.35-.24h0l0,0,.15-.1.08,0,.9-.55.26-.15a1.65,1.65,0,0,1,.25-.15c.16-.1.32-.2.49-.29s.6-.35.9-.52l.53-.3c.55-.3,1.11-.61,1.67-.9l.13-.07h0c.15-.09.31-.15.47-.24l.43-.22.37-.19.36-.18.54-.28L36,57l.32-.16,1.25-.59.35-.16.38-.17a.88.88,0,0,1,.22-.1l.32-.15.33-.16.68-.29.23-.1h0l.18-.08h0l.25-.11.27-.12.24-.1,0,0,.52-.21h0l.3-.13.77-.32,0,0,.33-.14,1.08-.43.76-.29.77-.3.66-.24.75-.28,1.37-.5.61-.22c.22-.07.41-.15.63-.23h0L51,50.93l.19-.06.47-.16.43-.14.06,0,.12,0a4.72,4.72,0,0,1,.53-.18l.35-.12.68-.21.38-.11h0l.23-.08h0l.21-.06.16-.06,1.08-.33.45-.13c.58-.18,1.17-.34,1.77-.51l.69-.2L60.69,48l.06,0,.22-.06h0l.08,0,.65-.18,1.54-.4.07,0,.42-.1.21-.05h0l1.84-.47.58-.14,1.86-.44.38-.09.13,0,.45-.1.07,0,.61-.13.46-.11.89-.19.06,0,.11,0,.48-.1.17,0,1-.2h0l1.31-.27h0l.31-.06,2.23-.43c.21,0,.42-.08.64-.12L78.3,44l1-.18.39-.07.37-.06.12,0,1-.16q.72-.14,1.44-.24l.2,0,.51-.08,2.2-.35.64-.1,2.69-.4H89l.65-.09.38-.06,1.56-.2.69-.1.52-.07,1.88-.22.39-.06,1.87-.21.91-.1.54-.06h.09l.48-.05h.17l1.24-.13.23,0,.17,0,.67-.06,2.84-.26.39,0,2.49-.21.76,0,2.63-.19.28,0,2.9-.17h.19l.58,0,2.35-.12.46,0h.22l1.16-.06,1.77-.07h.19l.42,0,1.25,0,1.17,0h.83l3-.06,2.6,0h3.56l1.6,0h2.68l.89,0h1.68l.85,0,.78,0h.38l1.07,0h.28l.55,0h.19l1.76.08h.28a3,3,0,0,0,.42,0l.75,0a.62.62,0,0,1,.19,0h0l.4,0,.44,0h.17l.39,0a1.55,1.55,0,0,0,.3,0c.43,0,.87.06,1.3.08l.32,0h.44a3.57,3.57,0,0,0,.46,0h.37l1.22.09.57,0,.3,0,.47,0h0c.4,0,.79,0,1.19.09h0l.71.06.61.05h0l1.46.11a3,3,0,0,0,.31,0l1.55.15.87.09.46,0,.25,0,.29,0h.24l1.11.12.74.08,1.6.17.82.11.44.05c.37,0,.74.08,1.1.14l.78.1,1.59.2h0l.23,0,.44.06c.65.08,1.29.18,1.93.27l.32.05,1.78.26.53.08.19,0,.39.07h0l.72.11.89.14.6.12.85.14h0l.32.05.41.07.71.13,1.48.26.7.14c.5.09,1,.18,1.5.29l.63.12h.07l.08,0H186l.24,0,.16,0,1,.2h0l.11,0,.39.08,2.56.56,1.59.35.51.12c.5.12,1,.23,1.5.36l.25.06.18,0,.07,0h0l.08,0,0,0,1.31.32.65.17,1.15.29.05,0,.13,0h0c.2,0,.38.11.58.15a1.17,1.17,0,0,0,.25.07l.3.09c.31.07.61.16.91.25.14,0,.29.07.43.12L201,48l.08,0c.42.11.83.23,1.24.36l.2,0,1.75.53.45.14,1.34.42.59.19,1.06.35a.34.34,0,0,0,.12,0c.21.07.4.15.6.2.39.15.78.28,1.16.41l.3.1.27.1,1.22.44.46.17c1.11.41,2.2.84,3.26,1.27.13.05.25.11.38.15.4.18.8.33,1.18.5.17.07.35.14.51.22l.11.05.12,0,0,0,.75.32.54.24.35.17.62.27c.17.09.34.16.52.24l.23.11.77.38.43.2,1.23.63.16.07c.46.25.92.48,1.37.73a2.2,2.2,0,0,1,.26.15l.65.36.4.21.39.23.18.11c.24.13.47.27.7.41s.28.16.41.24l.82.51.41.26.84.54.33.21.39.27.59.41.13.09c.38.27.75.53,1.12.81l0,0c.33.25.66.5,1,.76l.24.18c.25.22.51.42.76.63.08.08.17.14.26.22l.7.61c.08.07.15.15.23.21l.42.39.3.28a.81.81,0,0,0,.16.16c.24.23.47.46.69.7l.23.23.41.45.38.42.4.48.41.48.09.12c.09.12.17.24.26.34s.26.36.39.52.22.3.32.45l.37.54.28.44c.11.18.23.37.33.56s.17.29.24.43.21.39.31.6l.21.4.15.33c0,.06,0,.12.07.17a.06.06,0,0,1,0,0,.39.39,0,0,1,.06.11c.05.13.11.25.16.36a1.3,1.3,0,0,0,.08.17v0c.1.27.2.54.29.82a15.51,15.51,0,0,1,.76,3.6c0,.27.05.55.06.83v.09A2.71,2.71,0,0,1,243.05,79.43Z"/><path class="cls-5" d="M163,112.1c-12.6-3.19-45.09-13.46-68-20.74-1.43.63-3.8,1.32-5.71,1.93-2.85,5.35,6.06,23.23,26.5,29.3C131.73,127.31,156.13,127.79,163,112.1Z"/><path class="cls-6" d="M89.36,93.29c2-.76,3.52-1.3,5.71-1.93l2.12.68a67.28,67.28,0,0,0,3.12,7.86,39.59,39.59,0,0,0,3.14,5.57,31.74,31.74,0,0,0,3.88,4.63,47.87,47.87,0,0,0,9.72,7.25,50.09,50.09,0,0,0,12.82,5.3,44.41,44.41,0,0,0,6.88,1.2,31.94,31.94,0,0,0,7,0A29.1,29.1,0,0,0,156.4,119a26.36,26.36,0,0,0,4.81-4.26q.67-.75,1.32-1.53c-7.53,14.6-28.44,15.72-47,9.89C95.2,116.65,85.75,100.13,89.36,93.29Z"/><path class="cls-7" d="M96.81,95.72c-1.73-.47-3.48-.93-5.19-1.49a20.33,20.33,0,0,1-2.27-.92v0c2-.76,3.52-1.3,5.71-1.93l2.12.68c.45,1.38.94,2.75,1.48,4.1C98.05,96,97.42,95.89,96.81,95.72Z"/><path class="cls-8" d="M157.7,114.67c-3.64-1.4-61.17-18.53-67.76-21.12a51.84,51.84,0,0,0,5.53-2.07c23.26,7,55.64,17.08,67.57,20.62C163,112.17,159.61,113.82,157.7,114.67Z"/><path class="cls-9" d="M94.74,92.53C94,92.82,91.41,93.77,91,94c-.58-.2-.74-.32-1.07-.45a51.84,51.84,0,0,0,5.53-2.07l1,.3C95.9,92.06,95.32,92.29,94.74,92.53Z"/><path class="cls-8" d="M100.56,93c18,5.46,39.71,12.17,53.49,16.36a19.88,19.88,0,0,1-2.69,2.5l-.65.55c-13.25-4.1-41.15-12.52-54.21-16.71A12.32,12.32,0,0,1,100.56,93Z"/><path class="cls-10" d="M108.66,95.5c12.5,3.81,25.92,7.94,36.8,11.27a16.46,16.46,0,0,1-2.77,2.63c-.18.14-.37.27-.56.4-11.29-3.45-26-8.07-37.17-11.54A24.9,24.9,0,0,1,108.66,95.5Z"/><path class="cls-9" d="M161.79,111.73l1.25.37c0,.07-3.43,1.72-5.34,2.57-.28-.11-.42,0-1.3-.31C157.2,113.82,161,112.27,161.79,111.73Z"/><path class="cls-11" d="M158,114.53c-12.54-3.72-44.37-13.86-68.07-21-2.58,4.67,6.06,22.36,26.55,28.25C131.94,126.26,149.45,125.91,158,114.53Z"/><path class="cls-12" d="M89.93,93.55l1,.32c-1,5,3.45,11.06,5.34,13.19a45,45,0,0,0,14.92,11.26,53.25,53.25,0,0,0,23.2,4.89c7.67-.19,16.79-2.48,22.44-9l1.12.34c-8.55,11.38-26.06,11.73-41.52,7.27C96,115.91,87.35,98.22,89.93,93.55Z"/><path class="cls-11" d="M145.58,115.68a30.53,30.53,0,0,1-10.21,1.54,54.43,54.43,0,0,1-12-1.41,52.36,52.36,0,0,1-12.13-4.38,47.14,47.14,0,0,1-5.54-3.35,37.88,37.88,0,0,1-5-4,16.88,16.88,0,0,1-4.37-8.54c18.9,5.76,41.1,12.77,54.62,16.91A14.36,14.36,0,0,1,145.58,115.68Z"/><path class="cls-13" d="M130.11,110.43a43.93,43.93,0,0,1-6.84-1.21,47.85,47.85,0,0,1-6.78-2.39,42.5,42.5,0,0,1-6.06-3.16A18.71,18.71,0,0,1,105,98.13c12.93,4,26.52,8.23,37.33,11.59a23.58,23.58,0,0,1-5.66.93A41.86,41.86,0,0,1,130.11,110.43Z"/><path class="cls-14" d="M89.45,138.75c.62-.3,1.24-.61,1.84-1,12.46-7.11,20.15-15.75,16.11-27.13A111.06,111.06,0,0,0,96.82,89.28c-3.39,1.5-37.38,20-37.38,20Z"/><path class="cls-15" d="M70.45,100.18,96.59,88.61c3.37,5.31,5.7,10.93,8.74,19.38,4.21,11.67-3.54,20.48-16.13,27.7-.62.35-1.24.68-1.87,1L70.41,120l-1.14-1.11L56.48,106.36l13.87-6.14Z"/><path class="cls-16" d="M90.23,91.42c1-.09,1.72,0,1.9.25.31.47-2.19,1.83-4.4,3,2.77-.36,6.5-1.09,6.77-.62s-1.82,1.73-4.43,2.76c3.11-.19,5.17-.06,5.4.44s-1.2,1.16-3.65,1.91c2.83,0,6.4.4,6.56.86s-3.23,1-6.06,1.6c3.14.25,5.17.65,5.29,1.13S95,104,92.41,104.33c2.82.42,7,.46,7,.9s-2.94.92-5.89,1.07c3.08.65,5,1.28,5,1.74s-4.2.44-6.9.42c2.75.77,8.09,1.71,8.06,2.13s-3,.42-6,.17c2.94,1,4.72,1.84,4.65,2.26s-1.75.36-4.42,0c2.56,1.06,5.05,2,4.94,2.34s-3.93,0-6.87-.67h0l0,0c2.74,1.3,5.3,2.52,5.14,2.89s-1.83.11-4.43-.57c2.34,1.31,5.65,2.82,5.45,3.16s-4-.59-6.85-1.54c2.47,1.56,3.87,2.69,3.63,3s-2.87-.46-5.36-1.44c2.09,1.53,5.19,3.63,4.92,3.92s-3-1-5.67-2.25c2.16,1.77,3.33,3,3,3.29s-1.85-.36-4.15-1.58c1.77,1.68,6,5.36,5.62,5.59s-5.29-3.07-7.71-4.56c1.8,1.93,3.33,3.9,2.94,4.12s-2.89-1.61-4.92-3l-.5-.35.34.42c1.42,1.73,3.22,3.68,2.85,3.85s-2.49-1.15-4.62-2.85c1.41,2,2,3.39,1.6,3.55s-1.73-.76-3.52-2.37c.59,1,1.44,2.32,2,3.27l-11.17-11L69.37,119,56.48,106.36Z"/><path class="cls-17" d="M75.49,107.81h0a17.28,17.28,0,0,1,.68,1.64h0c1.91,5.07-.54,8.51-4.12,9.83a8,8,0,0,1-1.79.44l-.16,0L78.47,128a3.8,3.8,0,0,0,1.31-.15,1.86,1.86,0,0,0,1.5-1.65,4.62,4.62,0,0,0,2.22-.36l.16-.07.26-.13a1.76,1.76,0,0,0,.46-2.88l0,0,.15-.11a1.59,1.59,0,0,0,.58-1.7,2.57,2.57,0,0,0,1.9-1,1.71,1.71,0,0,0,.26-1.2,2.85,2.85,0,0,0,2-.75,1.67,1.67,0,0,0,.36-1.78,3.93,3.93,0,0,0,2-.95,1.62,1.62,0,0,0,.39-.49h0a2,2,0,0,0-.28-2.24,3.8,3.8,0,0,0-1.45-1.1,1.72,1.72,0,0,0,.28-.47,2,2,0,0,0-.37-2,3.74,3.74,0,0,0-1.77-1.23,1.62,1.62,0,0,0,.27-.5,2.18,2.18,0,0,0-.42-2.09,3.65,3.65,0,0,0-1.07-.95l.13-.12a2,2,0,0,0,.06-2.83,4.12,4.12,0,0,0-1.81-1.32,2.46,2.46,0,0,0-.51-2,4.23,4.23,0,0,0-1.27-1.1,2.52,2.52,0,0,0-.51-2.17l-.08-.09-12.82,5.67A45.79,45.79,0,0,1,75.49,107.81Z"/><path class="cls-18" d="M75.22,107.23h0a18.61,18.61,0,0,1,1,2.22h0a9.19,9.19,0,0,1,.56,4.78h0a7.53,7.53,0,0,1-6.47,5.49,6.08,6.08,0,0,1-.67-.48L56.48,106.36l13.91-6.16A35.28,35.28,0,0,1,75.22,107.23Z"/><path class="cls-19" d="M70.32,100.23l-2.45,1.09,0,0a1.1,1.1,0,0,1,.44,1.24c-.27.65-.07.91.85,1.18a1.78,1.78,0,0,1,1.09.83c.2.37.38.7.58,1s.45.73.75,1.19a1.51,1.51,0,0,0,1,.61l1.61,1.91a1.75,1.75,0,0,1-.87,3l-.47.13c-.44.13-.61.63-.9,1.17a.94.94,0,0,1-.83.42h0c-.2,0-.31.13-.26.28l.94,3c.07.22-.16.38-.47.33h0c-.52-.09-1,.09-1.09.43v0c-.13.41-.76.56-1.37.33l-.17-.07.75.74,1,1,2.29,2.25-.18-.37c-.06-.14.16-.22.3-.11.49.38,4,3.36,5.08,4.07.25.17.62,0,.55-.18-.29-1-4.26-5.64-4.26-5.64s0-.18.17-.11a47.44,47.44,0,0,1,5,3.36c.8.6,1.57,1.15,2.57.6a.27.27,0,0,0,0-.48l-4.86-3.87c-.18-.14,0-.34.22-.27s3.41,1.32,4.59,1.76c.28.11.5-.12.27-.3a3.53,3.53,0,0,1-.47-.43l-4.5-3.45c-.17-.13,0-.31.19-.24,2.21.64,4.39,2.12,6.65,2.16.31,0,.45-.25.24-.44-1.68-1.51-4.06-2.37-5.88-3.4-.37-.2-.15-.58.27-.45s6.31,1.65,7.94,2c.23.06.37-.13.21-.28a3.88,3.88,0,0,0-.91-.65c-1.58-.73-3.23-1.41-4.88-2.12-.13,0-.11-.19,0-.18,1.51.05,3,.48,4.24.37s2.93,1,4,0c.16-.15.08-.41-.18-.52a28.33,28.33,0,0,0-10.15-2c-.35,0-.58-.34-.37-.51a.91.91,0,0,1,.54-.21c2.17-.08,4.37,0,6.51-.12a11.68,11.68,0,0,0,2-.32c.22,0,.17-.31-.07-.36-1.78-.36-6.36-1-9.36-1.27-.15,0-.21-.18-.07-.21l7.5-1.83c.28-.07.27-.38,0-.52a3.1,3.1,0,0,0-1.38-.35c-1.72,0-3.41.28-5.15.35a16.53,16.53,0,0,1-2.29-.19c-.32,0-.5-.36-.28-.49l1.93-1.2a1.57,1.57,0,0,1,1.15-.12A6.07,6.07,0,0,0,85,102.32c.16-.16-.09-.43-.35-.39-3.87.62-6.14.89-9.73,1.46a1.48,1.48,0,0,1-.51,0,3.19,3.19,0,0,0-.78,0c-.25,0-.42-.26-.2-.34,3.17-1,6.68-1.77,9.21-4,.17-.15,0-.44-.33-.44a7.64,7.64,0,0,0-1.71.12c-1.9.52-3.71,1.17-5.61,1.7a4.77,4.77,0,0,1-1.33.08,1.14,1.14,0,0,1-1-.55c-.05-.07.1-.17.4-.3,1.43-.64,6.21-2,7.74-3.85a.21.21,0,0,0,0-.25l-10.39,4.6Z"/><path class="cls-20" d="M74.67,122.77a4.9,4.9,0,0,1-1.38-1.86,7.48,7.48,0,0,1,2,1.59c1,1,.93,1.12.75,1.19S75.63,123.74,74.67,122.77Z"/><path class="cls-20" d="M77.68,121.39a5.83,5.83,0,0,1-1.7-1.76,8.29,8.29,0,0,1,2.27,1.4c1.12.89,1.12,1,1,1.15S78.81,122.27,77.68,121.39Z"/><path class="cls-20" d="M77.78,118.65A7.21,7.21,0,0,1,75.72,117a9,9,0,0,1,2.52,1.19c1.29.78,1.33,1,1.2,1.07S79.07,119.44,77.78,118.65Z"/><path class="cls-20" d="M80.05,117.15a7.57,7.57,0,0,1-2.25-1.49,9.48,9.48,0,0,1,2.62,1c1.38.7,1.44.87,1.34,1S81.42,117.84,80.05,117.15Z"/><path class="cls-20" d="M80.19,114.57a9.08,9.08,0,0,1-2.68-1,8.89,8.89,0,0,1,2.8.38c1.55.38,1.68.54,1.65.7S81.74,114.94,80.19,114.57Z"/><path class="cls-20" d="M72.23,119.46c-.86-.8-1.26-1.51-1.19-1.56a5.67,5.67,0,0,1,1.82,1.24c.85.79.81.93.64,1S73.08,120.24,72.23,119.46Z"/><path class="cls-20" d="M73.74,118c-1-.73-1.49-1.43-1.42-1.48a6.12,6.12,0,0,1,2,1.1c1,.73,1,.88.8,1S74.71,118.76,73.74,118Z"/><path class="cls-20" d="M73.88,115.89a5.06,5.06,0,0,1-1.77-1.32,6.24,6.24,0,0,1,2.18.85c1.12.61,1.15.77,1,.9S75,116.5,73.88,115.89Z"/><path class="cls-20" d="M75.63,114.41a5.75,5.75,0,0,1-2-1.11,6.17,6.17,0,0,1,2.28.56c1.22.48,1.29.64,1.22.79S76.84,114.88,75.63,114.41Z"/><path class="cls-20" d="M77.58,112.21a6.22,6.22,0,0,1-2.21-.85,5.84,5.84,0,0,1,2.31.24c1.27.3,1.38.45,1.35.62S78.85,112.51,77.58,112.21Z"/><path class="cls-20" d="M78.88,110a10.14,10.14,0,0,1-3.22-.38,8,8,0,0,1,3-.36c1.77,0,2,.15,2,.36S80.64,110,78.88,110Z"/><path class="cls-20" d="M77.13,107.48a8.27,8.27,0,0,1-3,.38,6.05,6.05,0,0,1,2.56-1.1c1.59-.42,1.86-.32,2-.12S78.72,107.06,77.13,107.48Z"/><path class="cls-20" d="M78.28,101a8.51,8.51,0,0,1-3.12.37,6,6,0,0,1,2.62-1.13c1.63-.43,1.9-.32,2-.11S79.9,100.59,78.28,101Z"/><path class="cls-20" d="M73.61,98.78,77.69,97a.36.36,0,0,1,.11.1c.17.21.15.46-1.39,1A10.44,10.44,0,0,1,73.61,98.78Z"/><path class="cls-20" d="M83.58,112.85a10.15,10.15,0,0,1-3.12-.7,8.66,8.66,0,0,1,3.08,0c1.76.19,1.94.35,1.95.55S85.33,113.05,83.58,112.85Z"/><path class="cls-20" d="M74,105.23a6,6,0,0,1-2.55.23c-.07-.1.74-.62,2-1s1.55-.23,1.68,0S75.29,104.89,74,105.23Z"/><path class="cls-20" d="M72.25,102.65a5.76,5.76,0,0,1-2.59.22c-.07-.1.75-.63,2.07-1s1.57-.22,1.71,0S73.57,102.31,72.25,102.65Z"/><path class="cls-21" d="M38.11,85.05a3.43,3.43,0,0,0-.36-1.51c-.63-1.05-1,.12-2.17.61-.76.31-.79-.38-1.83-.06-1.45.44-1.24,1.3-1.39,1.43s-1.21,0-1.8.49c-.43.37.38,1.12,1.15,1.69a12.42,12.42,0,0,0-4.16,15.38c3.09,6.59,11.36,9.59,18.48,6.72s10.38-10.55,7.29-17.13C50.69,87.08,44.33,84.07,38.11,85.05Z"/><path class="cls-22" d="M38.85,88.34c.15,1.23-3.2,2.8-5.1,5.75-2.14,2.82-2.33,6.29-3.61,6.66-.61.14-1.62-.76-2-2.54a8.4,8.4,0,0,1,1.46-6.62,9.68,9.68,0,0,1,5.94-3.93C37.44,87.28,38.74,87.76,38.85,88.34Z"/><path class="cls-23" d="M164.59,92.71c-3.38-.15-4.78,2.45-5.94,4.33a17.12,17.12,0,0,1-3.16,3,15.65,15.65,0,0,1-3.81,2c-2,.44-4.77.83-6,4.3s-1.47,9,3.41,14.61c7.59,8.81,17,6.29,21.06,3.31s9.89-11.41,5.41-22.47C172.72,94.71,168,92.85,164.59,92.71Z"/><path class="cls-24" d="M158.52,98.33c.61-1,1.91-1.83,2.74-1,1,.93,2.08,2.54.83,4.39-2,2.94-4.66,2.91-6.65,6s-2,6.9-5.22,6.43-4.65-3.09-3.7-6.24c.7-2.34,1-3.76,5.83-5.12A10,10,0,0,0,158.52,98.33Z"/><path class="cls-25" d="M152.57,107.5a2.3,2.3,0,0,1-.94,2.86c-1,.75-2.28.67-2.78-.16a2.29,2.29,0,0,1,.94-2.86C150.82,106.59,152.06,106.67,152.57,107.5Z"/><path class="cls-26" d="M173.66,113a12.8,12.8,0,0,0,8.38,8.32c6.75,2.12,16.85-.34,25.82-5.46,8.81-5,11.91-11.69,8-21.44C194.4,101.08,173.66,113,173.66,113Z"/><ellipse class="cls-25" cx="194.81" cy="103.93" rx="23.02" ry="12.21" transform="translate(-25.2 85.23) rotate(-23.22)"/><ellipse class="cls-26" cx="195.33" cy="104.15" rx="19.32" ry="10.25" transform="translate(-25.24 85.45) rotate(-23.22)"/><path class="cls-27" d="M197.81,103.12c-1.5.11-2.48-.46-2.41-1.43.18-2.29-.32-4.57-2.32-3.75-1.3.53-.79,2.93,0,4.73.35.78-.25,1.87-1.51,2.74-3.12,2.14-5.72,5-4.68,5.58.88.45,3.67-1.79,5.74-3.89a6.41,6.41,0,0,1,4.75-1.8c2.7.29,6.05.2,6.56-.78S200.91,102.89,197.81,103.12Z"/><path class="cls-21" d="M168.05,81.19a3.54,3.54,0,0,0-.35-1.51c-.64-1.05-.95.11-2.17.61-.76.3-.8-.38-1.84-.06-1.45.44-1.23,1.3-1.39,1.43s-1.21,0-1.79.49.38,1.12,1.14,1.69a12.42,12.42,0,0,0-4.16,15.38c3.09,6.59,11.37,9.59,18.48,6.72s10.38-10.55,7.29-17.13C180.64,83.21,174.27,80.21,168.05,81.19Z"/><path class="cls-22" d="M168.79,84.47c.16,1.24-3.19,2.81-5.1,5.76-2.14,2.82-2.32,6.29-3.61,6.66-.6.14-1.62-.76-2-2.54a8.35,8.35,0,0,1,1.45-6.62,9.73,9.73,0,0,1,5.94-3.93C167.38,83.41,168.68,83.9,168.79,84.47Z"/><path class="cls-28" d="M228.59,113.14c.23.56-25.94-5.19-25.94-5.19l-7.33-9,19.25-11.14,15.47-9,3.71,7.91S228.37,112.59,228.59,113.14Z"/><path class="cls-29" d="M228.59,113.14l-5.21-9.37-8.81-15.94,15.47-9,3.71,7.91S228.37,112.59,228.59,113.14Z"/><polygon class="cls-30" points="230.04 78.88 223.38 103.77 195.32 98.97 197.61 93.45 200.21 93.62 198 92.51 200.75 85.86 202.3 85.76 201.08 85.07 205.18 75.16 230.04 78.88"/><polygon class="cls-29" points="225.42 99.49 223.86 97.95 225.92 98.65 225.42 99.49"/><path class="cls-29" d="M229.13,90.4c-.07-.17-3.68-2.68-3.68-2.68l4.23,1.22Z"/><path class="cls-29" d="M213.35,81.41c-1,.4-6,3.65-4.73,5S213.35,81.41,213.35,81.41Z"/><path class="cls-29" d="M218.13,85.53c-.4-.29.22,6.8,1.49,6.17S219,86.19,218.13,85.53Z"/><path class="cls-29" d="M213.28,91.78c-.18-.43-3.72,6-2.26,6S213.68,92.74,213.28,91.78Z"/><path class="cls-26" d="M33.42,99.62A12.78,12.78,0,0,0,38,110.51c5.43,4.53,15.7,6.12,25.95,4.81C74,114,79.4,109.08,79.54,98.58,57.16,96.51,33.42,99.62,33.42,99.62Z"/><ellipse class="cls-25" cx="56.44" cy="99.3" rx="23.03" ry="12.21" transform="translate(-1.36 0.79) rotate(-0.79)"/><ellipse class="cls-26" cx="56.84" cy="99.7" rx="19.33" ry="10.25" transform="translate(-1.37 0.79) rotate(-0.79)"/><path class="cls-27" d="M59.52,99.69c-1.42-.47-2.11-1.37-1.67-2.23,1-2,1.46-4.35-.7-4.35-1.41,0-1.86,2.4-1.79,4.38,0,.85-1,1.63-2.44,2-3.71.79-7.23,2.48-6.47,3.37s4.08-.25,6.8-1.4a6.47,6.47,0,0,1,5.08.15c2.38,1.3,5.51,2.5,6.35,1.79S62.48,100.67,59.52,99.69Z"/><path class="cls-31" d="M13.76,91.85c1.1,2.73,8.62,7.48,11.26,8.08a2.45,2.45,0,0,0,.5.06c3.07.08,10.71-3.76,11.63-6.77,1-3.19.38-12-1.62-13.48-2.84-2.14-8.62-4.88-10.43-4.89l-.53,0C21.82,75.15,12.83,77,12,78S12.66,89.12,13.76,91.85Z"/><path class="cls-32" d="M13.76,91.85c1.1,2.73,8.62,7.48,11.26,8.08a2.45,2.45,0,0,0,.5.06C24.89,97,24,93.61,23,88.81c-1.33-6.83.26-11.66,1.54-13.93C21.82,75.15,12.83,77,12,78S12.66,89.12,13.76,91.85Z"/><path class="cls-33" d="M12,78c.81,3,7.61,8.38,12.09,7.85,2.94-.35,13.23-4,11.47-6.12-2.84-2.14-8.62-4.88-10.43-4.89S12.9,77,12,78Z"/><path class="cls-34" d="M172.36,196.73c-4.87,5.38-21.91,9.75-40.84,10.23l-1.28,0a118.63,118.63,0,0,1-19-1.26c-10.7-1.61-19.34-3.36-23.93-6.51a15,15,0,0,1-1.66-1.3c-4.7-4.36,1.24-11.47,5-11.52L167,185.35c2.32,0,5.42,2.48,6.47,5.51A5.62,5.62,0,0,1,172.36,196.73Z"/><path class="cls-3" d="M245.16,81.54c.08-.73-12.27,36.41-108,39.32C20,124.42,10.48,84,10.58,84.76c-.07,1.89-.1,3.77-.07,5.67,0,1.49.08,3,.16,4.47.18,3.33.52,6.63,1,9.88a106.43,106.43,0,0,0,7.51,26.44c0,.06.05.12.08.19a108.6,108.6,0,0,0,5,10,112.16,112.16,0,0,0,18.71,24.65c.85.84,1.71,1.68,2.59,2.49,1.28,1.2,2.59,2.38,3.93,3.52l.11.09q2.61,2.24,5.35,4.3a118.79,118.79,0,0,0,15.77,10.06q3,1.6,6.17,3c.92.43,1.86.84,2.8,1.24,2.47,1.06,5,2,7.52,2.94a120.92,120.92,0,0,0,12.9,3.73,122.89,122.89,0,0,0,24.76,3.1l2.28,0h0c.34,0,.67,0,1,0h1.13l1.3,0,1,0h0c.77,0,1.52-.05,2.28-.09a121.9,121.9,0,0,0,36.84-7.58c2.82-1,5.58-2.2,8.28-3.45,26.9-12.42,48-34.32,58.71-61.05a106.67,106.67,0,0,0,6.86-26.82c.4-3.27.64-6.59.73-9.93,0-1.48.06-3,0-4.45C245.35,85.31,245.28,83.42,245.16,81.54Z"/><path class="cls-35" d="M244.36,102.06c-4,7.5-14.79,15.52-30,22.11s-33.41,11.29-53.12,13.92a275.43,275.43,0,0,1-32.56,2.35c-31.95.44-62.53-4.5-86.08-13.92-15.74-6.29-26.84-14.21-30.89-21.74a106.48,106.48,0,0,0,7.59,26.63,107.49,107.49,0,0,0,10.08,5.38q3.71,1.76,7.79,3.39,3.21,1.27,6.57,2.46c24.26,8.51,54.17,12.92,85.14,12.5,9.06-.13,18-.67,26.77-1.59,23.9-2.53,46.2-8,64.51-15.88a121.59,121.59,0,0,0,17.38-9.1l.25-.16a106.67,106.67,0,0,0,6.86-26.82Z"/><path class="cls-35" d="M235.12,134.48c-.27.31-.56.61-.86.91a49.46,49.46,0,0,1-9.35,7.24l-.11.06-.38.23c-.59.36-1.17.7-1.75,1l-.91.5c-.48.27-1,.52-1.46.78s-.82.43-1.25.64l-.05,0-.6.3-.63.31c-1.07.52-2.2,1-3.35,1.54l-1,.45-.24.09c-.36.16-.72.32-1.1.47l-.61.25,0,0-.67.28-.18.06-.65.26h-.4l-.22.23-.48.19-.51.19-.55.21h-.11l-.25.13-.58.21c-.36.14-.72.26-1.08.39l-.11,0-1.12.39-1.28.43-.09,0-.54.19-.61.19-.64.21-.09,0-1.3.41-.49.15c-1.21.37-2.43.73-3.63,1.07l-.76.22-1.5.41-.32.08-.06,0-1.12.3-.23.06c-1.51.39-3,.77-4.54,1.11l-2.19.51c-1.36.3-2.73.59-4.19.89l-1.64.33c-2.73.53-5.53,1-8.35,1.48l-1,.15c-1.88.29-3.62.55-5.3.77l-1.76.23-3.74.46-.29,0h0l-1.83.2c-1.5.16-3,.32-4.58.46l-.32,0h-.6l-.17,0h-.12l-1.38.12-.56,0h-.13l-.27,0h-.13l-.16,0h-.39l-.47,0h0l-.25,0h-.06l-.55,0h-.09c-1.93.14-3.93.26-5.9.36l-.58,0-.47,0h-.06l-.63,0-3.48.13-.42,0-1,0h-.51q-.48,0-1,0h-.08l-.64,0h-1.51l-.92,0h-.35l-2.78,0H125c-1.39,0-2.67,0-3.91,0-3.67-.05-7.37-.16-11-.33H110c-7.37-.36-14.63-1-21.57-1.89l-.1,0h-.06c-2.26-.3-4.33-.59-6.33-.9-5.94-.92-11.7-2-17.13-3.35-1.37-.33-2.63-.65-3.83-1l-.39-.11-1-.26-1.42-.4-.08,0-.09,0-.14,0-.49-.14h-.06l-1-.29-.07,0A119.85,119.85,0,0,1,38,147.84l-.41-.2c-2.07-1-4.06-2.1-5.92-3.23a49.89,49.89,0,0,1-6.74-4.86c-.78-.68-1.51-1.37-2.18-2.06l-.12-.13a3.58,3.58,0,0,1-.27-.29l-.05,0c-.25-.27-.5-.55-.73-.82l-.31-.36c.93,1.91,1.9,3.78,2.94,5.62.58,1,1.19,2.09,1.81,3.12q1.84,1.35,3.95,2.63c1.95,1.19,4,2.32,6.16,3.37l.45.22a122.88,122.88,0,0,0,18.76,7.09l.07,0,1,.29,0,0,.55.16.29.07,1.42.4,1,.26.45.12c1.22.33,2.49.65,3.89,1,5.51,1.32,11.37,2.46,17.39,3.39,2,.32,4.11.62,6.4.91H88c7.05.91,14.42,1.56,21.9,1.93H110c3.64.17,7.36.29,11,.33,1.25,0,2.55,0,3.92,0h1.62l2.77,0h.38l.93,0h.5l.71,0h.3l.64,0h0l1,0h.44l1,0h.42c1.18,0,2.36-.08,3.5-.14l.7,0,.51,0,.54,0c2-.1,4-.22,6-.36h.08l.58,0,.33,0,.5,0,.31,0h.26l.19,0h.07l.2,0,.65-.05,1.4-.12h.38l.25,0h0l.28,0,.15,0h.06c1.56-.14,3.13-.3,4.66-.46l2.06-.23h.32l.07,0,3.49-.43,1.77-.23c1.71-.23,3.47-.49,5.35-.78l.6-.09h0l.39-.06c2.83-.45,5.68-1,8.45-1.5l1.65-.33c1.48-.3,2.88-.59,4.26-.9L188,160c1.52-.36,3.08-.74,4.61-1.14l.22-.06,1.17-.31.38-.1L196,158l.76-.22c1.22-.34,2.46-.71,3.7-1.09l.5-.15,1.29-.41.14,0,.64-.2.61-.2.58-.2.08,0,1.3-.44,1.15-.4.11,0,1.1-.4.57-.21.13,0,.83-.31.48-.18.13-.06.43-.16.46,0,.22-.23.61-.25.17-.06.72-.3.65-.26,1.12-.47.22-.09,0,0,1-.45c1.19-.52,2.36-1.06,3.46-1.59l.65-.32.63-.32,0,0c.44-.22.88-.44,1.3-.67s1-.54,1.51-.8l1-.53c.61-.34,1.22-.7,1.81-1.06l.43-.26.1-.06c1.52-.93,2.95-1.89,4.28-2.86l0,0q2.29-4,4.25-8.1Z"/><path class="cls-36" d="M79.62,190.82a122.16,122.16,0,0,0,49.9,9.81c49.64-.68,91.69-30.58,108.34-72.26a106.36,106.36,0,0,0,6.86-26.85c.4-3.26.65-6.57.74-9.91,0-1.48,0-3,0-4.47,0-1.9-.1-3.79-.22-5.66a21.25,21.25,0,0,1-4.86,10.73A36.52,36.52,0,0,1,236.87,96c-12.8,12-39,21.6-71.7,26.05-2.29,12.81-7.93,35.24-20.67,49.8C131.2,187.06,108.56,192.57,79.62,190.82Z"/></g></g></svg>