<svg xmlns="http://www.w3.org/2000/svg" viewBox="0 0 512 512"><defs><style>.cls-1{isolation:isolate;}.cls-2{fill:#221f1f;}.cls-2,.cls-62{opacity:0.2;}.cls-3{fill:#f0fbfa;stroke:#7bc6bd;}.cls-14,.cls-23,.cls-3,.cls-4,.cls-60{stroke-miterlimit:10;}.cls-4{fill:#d4b6bd;stroke:#af697c;}.cls-5{fill:#ffb51c;}.cls-6{fill:#ffa418;}.cls-7{fill:#ffb747;}.cls-8{fill:#ffe706;}.cls-9{fill:#fffddd;}.cls-10{fill:#f7df00;}.cls-11{fill:#ffde05;}.cls-12{fill:#fff778;}.cls-13{fill:#fcd200;}.cls-14{fill:#b1bd00;stroke:#87a80e;}.cls-15{fill:#c8d600;}.cls-16{fill:#d8e628;}.cls-17{fill:#96a100;}.cls-18{fill:#d9d900;}.cls-19{fill:#535900;}.cls-20{fill:#1b1f01;}.cls-21{fill:#46267d;}.cls-22{fill:#53338f;}.cls-23{fill:#de0600;stroke:#aa2121;stroke-width:0.75px;}.cls-24{fill:#fb0600;}.cls-25{fill:#fff;}.cls-26{fill:#fbf0b2;}.cls-27{fill:#e2ca64;}.cls-28{fill:#fd424d;}.cls-29{fill:#df0000;}.cls-30{fill:#ff5767;}.cls-31{fill:#df7900;}.cls-32{fill:#f8c724;}.cls-33{fill:#f8b600;}.cls-34{fill:#aec300;}.cls-35{fill:#dd2;}.cls-36{fill:#4b2452;}.cls-37{fill:#623869;}.cls-38{fill:#83498f;}.cls-39{fill:#dd7bc7;}.cls-40{fill:#5bae00;}.cls-41{fill:#559303;}.cls-42{fill:#d1f987;}.cls-43{fill:#cc0a00;}.cls-44{fill:#b70000;}.cls-45{fill:#bc0000;}.cls-46,.cls-54{fill:#f85b29;}.cls-47{fill:#c9241c;}.cls-48{fill:#a30707;}.cls-49{fill:#f2b12f;}.cls-50{fill:#ffde55;}.cls-51{fill:#fff2bb;}.cls-52{fill:#dc1b00;}.cls-53{fill:#ef1600;}.cls-54,.cls-55,.cls-56,.cls-57,.cls-59{opacity:0.5;}.cls-55{fill:#ff6131;}.cls-56{fill:#fe955d;}.cls-57{mix-blend-mode:soft-light;}.cls-58{fill:#ba0000;}.cls-59{fill:#ffd5c2;mix-blend-mode:color-dodge;}.cls-60{fill:#00b0be;stroke:#0d9b97;}.cls-61,.cls-62{fill:#009fc2;}.cls-62{mix-blend-mode:multiply;}</style></defs><g class="cls-1"><g id="Layer_1" data-name="Layer 1"><ellipse class="cls-2" cx="256" cy="384.9" rx="186.87" ry="46.1"/><ellipse class="cls-3" cx="256" cy="165.69" rx="225" ry="84.69"/><path class="cls-4" d="M476.31,162.76c0,.24,0,.48,0,.72v.43c0,1-.1,2-.21,2.89a32.69,32.69,0,0,1-1,4.72,36.49,36.49,0,0,1-3.42,8,46.34,46.34,0,0,1-4.45,6.46,56.77,56.77,0,0,1-4.22,4.68c-.4.41-.81.81-1.22,1.21a82.74,82.74,0,0,1-6.78,5.8A116.44,116.44,0,0,1,444.26,205l-.49.29-.49.29c-1.14.68-2.28,1.35-3.48,2-.58.33-1.18.65-1.78,1q-1.42.78-2.91,1.53c-.8.43-1.63.84-2.46,1.25-.42.22-.84.43-1.27.63l-1.27.61c-2.13,1-4.35,2-6.61,3l-.55.23c-.53.23-1.07.47-1.61.69l-.31.13-.73.32h0c-.27.1-.53.21-.8.33l-.65.26-1.26.51c-.45.2-.92.38-1.39.56l-.3.12-1.13.45-.71.27h0l-1.65.63,0,0-.92.34-1.59.59h0l0,0c-.42.14-.84.31-1.26.46l-2.14.77-.22.07c-.72.25-1.45.51-2.19.75l-2.66.89c-.56.2-1.1.36-1.65.54l-1.95.62-.12,0-3.53,1.09-1.34.4h0l-1.89.55c-1.28.38-2.57.75-3.88,1.11a1.67,1.67,0,0,1-.3.08l-1.2.34c-.27.07-.54.16-.81.22l-1.58.43-.47.12-.06,0-.65.18h-.08c-.88.25-1.77.48-2.68.71l-1.55.39h0c-1.68.42-3.37.84-5.09,1.24l-2.23.52-1.38.32c-1,.23-1.94.44-2.91.66l-3.59.77c-1.53.33-3.07.64-4.62,1l-.34.07-2.86.57q-3.37.66-6.82,1.27l-.1,0c-2.56.46-5.16.9-7.78,1.31l-1.6.26-.61.09a.25.25,0,0,1-.12,0l-.27.05-.34.06-.57.08c-3.42.52-6.88,1-10.39,1.49L323,241l-.52.07-.73.09-2.52.31h0l-4,.47h0l-2.07.22c-.63.08-1.26.14-1.9.21h0l-.15,0h-.08l-4.17.43c-1.58.16-3.16.3-4.75.45l-.56.05-.24,0H301l-.49.05-.52,0h-.19l-1.54.13-1.22.1-1.21.11h-.21l-.48,0-.53.05h-.27l-.53,0c-.32,0-.65.05-1,.06l-.6,0-1.3.1-2.47.18h0l-.8,0-1.58.1-1.44.08c-1.4.09-2.81.17-4.22.24l-1,0-1,.05-1,0c-.43,0-.86.06-1.3.07l-2.85.13-4.08.14c-.88,0-1.76.05-2.64.06h0a1.26,1.26,0,0,1-.28,0l-.54,0h0c-.67,0-1.34.06-2,.07h-.1l-1.3,0-.51,0-1.39,0-1,0h-.46l-1.33,0h-.69l-1.87,0c-1.19,0-2.38,0-3.57,0h-3c-2.56,0-5.1,0-7.64,0-2.34,0-4.68-.07-7-.12-1.38,0-2.75-.07-4.11-.12-1.08,0-2.15-.06-3.22-.1l-2.17-.08-4.89-.22h-.09q-3.6-.18-7.16-.4l-2.26-.14h0c-2.08-.13-4.13-.27-6.19-.43s-4.11-.32-6.15-.51q-4.62-.39-9.17-.87l-2.67-.28-3.19-.37h0l-2.88-.34-2.62-.32-.27,0c-.37,0-.73-.09-1.09-.15q-2.76-.34-5.47-.73c-.31,0-.63-.08-.93-.14-.59-.07-1.18-.16-1.76-.25l-2.37-.35-.76-.12-3.65-.57c-2.32-.38-4.63-.77-6.9-1.17L152,237.5c-.58-.1-1.15-.2-1.73-.32l-2.05-.38-2.79-.53-3.34-.68L139,235q-3.93-.84-7.75-1.74l-.55-.13-2.64-.64c-1.64-.39-3.25-.8-4.85-1.22l-.79-.21-1.79-.47c-1-.27-2-.54-3-.82a2.9,2.9,0,0,1-.48-.14h0c-.39-.09-.76-.19-1.14-.3l-.41-.12-.58-.16-1.09-.32c-2.64-.77-5.24-1.56-7.77-2.37l-2.35-.78c-6.59-2.19-12.8-4.52-18.58-7h0c-2.5-1.08-4.92-2.18-7.25-3.28-.28-.15-.55-.26-.82-.41q-6.32-3-11.76-6.33c-2.26-1.37-4.41-2.76-6.43-4.18-1.32-.91-2.58-1.84-3.8-2.78l-.28-.21c-1-.82-2-1.65-3-2.48-1.58-1.37-3.05-2.75-4.43-4.15-.3-.31-.6-.61-.89-.93a.05.05,0,0,1,0,0c-.52-.54-1-1.09-1.49-1.63a48.42,48.42,0,0,1-4-5.3l-.45-.7a34,34,0,0,1-5.15-13.25,28.56,28.56,0,0,1-.32-4,30.32,30.32,0,0,1,1.33-9.27s0-.05,0-.08c.18-.56.37-1.13.58-1.69a1.59,1.59,0,0,1,.07-.2c.18-.51.39-1,.6-1.51a.28.28,0,0,0,0-.12,1.75,1.75,0,0,0,.13-.28c.19-.41.38-.82.59-1.24.09-.21.2-.42.3-.62l.44-.87c.11-.19.22-.4.31-.6l.18-.27c.35-.61.72-1.23,1.11-1.84.1-.16.21-.3.3-.46l.09-.14c.33-.51.69-1,1-1.52.12-.13.2-.29.31-.43.49-.66,1-1.32,1.51-2,.09-.11.18-.24.28-.35.45-.56.92-1.1,1.41-1.65a.34.34,0,0,0,.06-.06c.07-.08.13-.16.21-.24l.2-.23.53-.55s0-.06.08-.11l.82-.86a1.77,1.77,0,0,1,.28-.27.69.69,0,0,1,.17-.17c.33-.37.71-.72,1-1.08l.22-.19c.74-.71,1.51-1.42,2.3-2.13.34-.31.7-.59,1-.89l.31-.25,1-.81a.12.12,0,0,0,0,0l.12-.09L55,135c.32-.25.65-.51,1-.76l.23-.19.37-.28.42-.34.06,0a2.52,2.52,0,0,0,.25-.21l2.76-2c.15-.08.27-.18.43-.28,1-.71,2-1.4,3.1-2.1l.57-.35a8,8,0,0,1,.68-.45l0,0a.17.17,0,0,1,.08-.06l.29-.19a.48.48,0,0,0,.15-.11c.55-.34,1.14-.7,1.72-1l.49-.3a5,5,0,0,1,.5-.29c.31-.19.61-.38.93-.55.56-.34,1.15-.67,1.73-1l1-.57c1-.58,2.12-1.16,3.19-1.73l.25-.13h0c.3-.17.6-.3.9-.47s.54-.27.83-.42l.7-.35.69-.35,1.05-.53.42-.21.61-.29c.79-.39,1.58-.77,2.39-1.14l.66-.31.74-.34a1.89,1.89,0,0,1,.41-.18l.61-.29.65-.3,1.29-.56c.14-.07.3-.13.45-.19l.08,0,.33-.14h0l.48-.21.52-.23a4.47,4.47,0,0,0,.46-.19l.08,0c.33-.14.65-.29,1-.41h0a5.38,5.38,0,0,1,.56-.25c.48-.2,1-.4,1.47-.62l.11,0,.64-.26c.68-.28,1.36-.54,2-.83.48-.17,1-.38,1.46-.56l1.48-.56,1.26-.48c.47-.17,1-.34,1.43-.53.86-.32,1.74-.64,2.63-.95l1.18-.43c.41-.14.77-.3,1.2-.44h0l2.46-.82.36-.12.9-.31.83-.26.12,0,.22-.07,1-.35.66-.21,1.32-.41c.25-.07.48-.16.71-.21h0l.43-.16h0l.41-.12.31-.1c.69-.22,1.37-.43,2.06-.63.29-.09.58-.18.87-.25,1.1-.35,2.24-.67,3.38-1l1.33-.38c1.2-.34,2.39-.66,3.61-1a.14.14,0,0,1,.11,0,2.9,2.9,0,0,1,.42-.12h0l.15,0,1.24-.34,2.95-.77.15,0,.79-.19.42-.1h0c1.17-.31,2.34-.6,3.52-.89.37-.1.74-.18,1.12-.27l3.56-.85.73-.17.24,0c.28-.07.56-.14.87-.2a.27.27,0,0,1,.12,0l1.18-.26.88-.2c.56-.13,1.13-.26,1.7-.37a.53.53,0,0,1,.12,0l.21,0c.29-.07.6-.14.91-.19a2.05,2.05,0,0,1,.34-.07l1.82-.39h0c.84-.19,1.67-.36,2.5-.53h.08l.6-.13,4.27-.82,1.22-.23,1.47-.27,1.89-.35.74-.14c.24,0,.47-.07.71-.12l.22,0,1.87-.31c.91-.17,1.84-.32,2.76-.47l.37-.06,1-.17,4.2-.66c.41-.06.83-.11,1.23-.19,1.72-.27,3.44-.53,5.16-.77a1.75,1.75,0,0,1,.24,0l1.24-.17.73-.11,3-.39,1.32-.19,1-.12,3.59-.44c.26,0,.5-.06.76-.11l3.58-.4,1.74-.2,1-.1a.32.32,0,0,1,.13,0h.06l.9-.09.33,0,2.38-.25.44,0,.33,0,1.27-.12c1.79-.18,3.62-.36,5.44-.49.24,0,.5-.06.74-.08,1.57-.13,3.18-.27,4.78-.39l1.46-.11c1.67-.13,3.36-.25,5-.35l.52-.06,5.57-.33.35,0,1.12,0,4.5-.23.87,0h.43l2.22-.1,3.39-.14h.36l.8,0,2.39,0,2.25-.07c.51,0,1,0,1.52,0h.07c1.9,0,3.82-.09,5.73-.12l5,0c.54,0,1.07,0,1.61,0h1.91l1.42,0h1.88l3.06,0c.64,0,1.28,0,1.93,0h1.28c.43,0,.85,0,1.29,0h.64l1.69,0,2.06,0,.42,0h.75c.55,0,1.09,0,1.62.05l1.49,0h0a4.52,4.52,0,0,0,.52,0,.37.37,0,0,1,.18,0h0l2,0,.56,0,1,0a.66.66,0,0,1,.2,0h.18c1.13,0,2.26.09,3.38.15h.52a7.39,7.39,0,0,0,.8,0l1.44.08a2.28,2.28,0,0,1,.36,0h0l.77,0,.83,0a1.29,1.29,0,0,0,.34,0c.25,0,.5,0,.74,0l.58,0,2.48.16.62,0h.66l.17,0c.29,0,.6,0,.89.06.1,0,.2,0,.3,0a2.6,2.6,0,0,0,.4,0l2.35.17c.36,0,.73,0,1.09.09a2.59,2.59,0,0,1,.56,0c.31,0,.6,0,.9.06h0c.77,0,1.51.1,2.28.17H310l1.36.12,1.16.09a0,0,0,0,1,0,0c.93.06,1.88.16,2.8.23l.58,0,3,.28,1.67.17c.28,0,.57.06.88.07l.48.06c.17,0,.37,0,.55.06h0l.28,0s0,0,.06,0h.09c.7.07,1.41.13,2.11.22l1.44.15c1,.12,2,.24,3.06.34.52.06,1,.14,1.56.21l.85.09c.7.08,1.4.16,2.1.27l1.5.19,3.05.38h0l.45.08.83.11,3.7.52c.22,0,.41.07.61.1,1.14.16,2.29.32,3.42.51l1,.15c.14,0,.26,0,.38.06s.5.09.75.12h0l1.36.21,1.71.29,1.16.21,1.62.27h0l.6.1.79.14,1.36.24c.95.16,1.89.34,2.83.51.46.08.88.16,1.34.26,1,.17,1.92.36,2.87.55l1.22.23.12,0,.16,0,.11,0,.47.08.3.07,1.87.38h0l.21,0,.75.15,4.91,1.07,3,.68,1,.23c1,.22,1.93.44,2.87.68l.5.12.33.08.15,0,.06,0,.15,0,.1,0c.84.2,1.67.4,2.52.62.4.09.81.21,1.23.31l2.2.57.1,0,.26.07.08,0c.38.09.72.2,1.09.29a4.43,4.43,0,0,0,.49.13l.58.17c.59.14,1.16.31,1.74.47.27.08.55.15.81.24l.9.25.14,0c.81.22,1.59.46,2.38.69l.39.11,3.33,1c.3.08.58.19.88.26l2.56.82,1.12.36c.7.22,1.37.44,2,.67a1.23,1.23,0,0,0,.24.09c.4.13.77.27,1.16.38.73.27,1.48.53,2.21.78l.58.2.51.18c.79.3,1.58.56,2.34.85.29.12.59.21.88.33,2.13.78,4.2,1.6,6.24,2.43l.73.3c.77.33,1.53.62,2.26.95.32.14.66.27,1,.42l.21.09.22.1.08,0,1.44.62,1,.46.67.32,1.19.53c.32.16.65.31,1,.45l.44.22,1.48.72c.27.13.55.27.83.38l2.35,1.21a1.75,1.75,0,0,1,.31.15c.87.47,1.75.92,2.63,1.4l.49.27,1.25.69.75.41.75.45.35.2,1.33.79c.27.15.55.31.8.47.53.32,1.05.64,1.57,1,.27.16.53.32.77.49l1.61,1c.21.13.42.29.63.42l.76.51,1.13.79.24.17c.73.52,1.44,1,2.15,1.56a.14.14,0,0,0,.1.07c.64.48,1.25,1,1.85,1.46.15.13.31.23.45.36.49.4,1,.79,1.46,1.2l.51.42c.45.4.9.78,1.33,1.17l.45.41.8.75q.29.25.57.54c.09.11.2.19.31.3.46.44.9.89,1.33,1.34l.43.43c.28.3.53.6.8.88s.48.53.71.79.52.63.77.93.54.62.79.93l.17.23c.17.22.33.45.5.65s.5.68.75,1,.42.58.61.86.48.69.7,1l.54.83c.22.36.44.73.64,1.09s.31.56.46.82.39.76.59,1.15c.14.24.26.52.4.78l.29.63c0,.11.09.22.13.32s0,.05,0,.07a1.6,1.6,0,0,1,.1.23c.1.23.22.47.3.68s.1.2.16.33V152c.2.52.38,1,.57,1.57a30.17,30.17,0,0,1,1.45,6.91c.06.53.1,1.06.11,1.59v.18C476.3,162.39,476.31,162.58,476.31,162.76Z"/><path class="cls-5" d="M323.09,225.48C299,219.37,236.76,199.64,193,185.68c-2.75,1.2-7.29,2.53-10.93,3.69-5.47,10.28,11.59,44.6,50.72,56.25C263.14,254.67,309.86,255.59,323.09,225.48Z"/><path class="cls-6" d="M182,189.37c3.77-1.45,6.73-2.49,10.93-3.69L197,187a124.19,124.19,0,0,0,6,15.08,76.23,76.23,0,0,0,6,10.7,63.79,63.79,0,0,0,7.43,8.89A92,92,0,0,0,235,235.56a95.7,95.7,0,0,0,24.55,10.17A86.44,86.44,0,0,0,272.75,248a61.08,61.08,0,0,0,13.38,0,55.57,55.57,0,0,0,24.26-9.4,50.81,50.81,0,0,0,9.2-8.19c.86-1,1.71-1.92,2.52-2.92-14.41,28-54.46,30.17-90,19C193.2,234.21,175.1,202.5,182,189.37Z"/><path class="cls-7" d="M196.28,194c-3.32-.9-6.66-1.79-9.94-2.87a38,38,0,0,1-4.35-1.76l0,0c3.77-1.45,6.73-2.49,10.93-3.69L197,187c.86,2.65,1.81,5.28,2.84,7.87C198.65,194.6,197.45,194.36,196.28,194Z"/><path class="cls-8" d="M312.88,230.41c-7-2.68-117.14-35.56-129.76-40.53a106.69,106.69,0,0,0,10.59-4c44.55,13.51,106.54,32.78,129.38,39.57C323,225.61,316.53,228.79,312.88,230.41Z"/><path class="cls-9" d="M192.31,187.91c-1.41.57-6.37,2.39-7.14,2.83-1.11-.39-1.41-.61-2-.86a106.69,106.69,0,0,0,10.59-4l1.89.57C194.52,187,193.42,187.46,192.31,187.91Z"/><path class="cls-8" d="M203.46,188.87c34.39,10.48,76,23.37,102.42,31.41a39.2,39.2,0,0,1-5.16,4.81l-1.24,1c-25.37-7.86-78.78-24-103.8-32.08C196,193.31,200.84,189.67,203.46,188.87Z"/><path class="cls-10" d="M219,193.61c23.95,7.33,49.65,15.25,70.48,21.64a31.8,31.8,0,0,1-5.31,5.05l-1.07.77c-21.63-6.63-49.86-15.49-71.17-22.16C212.49,197.9,217.64,194.47,219,193.61Z"/><path class="cls-9" d="M320.7,224.77l2.39.71c-.06.13-6.56,3.31-10.21,4.93-.54-.21-.82,0-2.5-.59C311.92,228.78,319.27,225.8,320.7,224.77Z"/><path class="cls-11" d="M313.44,230.14c-24-7.14-85-26.59-130.33-40.26-5,9,11.6,42.91,50.83,54.23C263.55,252.65,297.07,252,313.44,230.14Z"/><path class="cls-12" d="M183.11,189.88l2,.6c-1.91,9.6,6.59,21.24,10.21,25.32a86.13,86.13,0,0,0,28.57,21.62,102,102,0,0,0,44.43,9.39c14.69-.38,32.15-4.77,43-17.32l2.14.65c-16.37,21.84-49.89,22.51-79.5,14C194.71,232.79,178.16,198.83,183.11,189.88Z"/><path class="cls-11" d="M289.66,232.35a58.4,58.4,0,0,1-19.55,3,102.81,102.81,0,0,1-23-2.71,98.93,98.93,0,0,1-23.22-8.4,89.53,89.53,0,0,1-10.62-6.43,73.79,73.79,0,0,1-9.51-7.77c-4.61-4.58-7-10.29-8.38-16.39,36.21,11.05,78.72,24.5,104.6,32.45A27.27,27.27,0,0,1,289.66,232.35Z"/><path class="cls-13" d="M260,222.28a84.29,84.29,0,0,1-13.09-2.34,90.61,90.61,0,0,1-13-4.58,83,83,0,0,1-11.6-6.06,36.17,36.17,0,0,1-10.46-10.64c24.76,7.64,50.78,15.81,71.5,22.25a45.32,45.32,0,0,1-10.85,1.79A80.43,80.43,0,0,1,260,222.28Z"/><path class="cls-14" d="M182.18,276.63c1.2-.56,2.37-1.17,3.53-1.84,23.85-13.64,38.58-30.23,30.85-52.07a213.62,213.62,0,0,0-20.26-41c-6.49,2.88-71.58,38.37-71.58,38.37Z"/><path class="cls-15" d="M145.79,202.6l50.05-22.21c6.46,10.2,10.93,21,16.76,37.2,8,22.4-6.79,39.31-30.9,53.18-1.18.67-2.37,1.29-3.58,1.86l-32.4-31.9-2.17-2.14-24.5-24.13,26.55-11.78Z"/><path class="cls-16" d="M183.68,185.79c2-.18,3.28,0,3.63.48.6.89-4.18,3.5-8.42,5.74,5.31-.71,12.45-2.1,13-1.19s-3.48,3.31-8.49,5.3c6-.37,9.91-.12,10.35.84s-2.29,2.22-7,3.66c5.44.09,12.26.76,12.58,1.66s-6.19,1.94-11.61,3.06c6,.48,9.89,1.25,10.13,2.17s-5,2.37-10,3.05c5.4.81,13.31.89,13.44,1.74s-5.63,1.75-11.27,2c5.9,1.24,9.59,2.46,9.63,3.34s-8.05.85-13.22.8c5.27,1.48,15.49,3.29,15.44,4.08s-5.74.81-11.44.34c5.63,1.92,9,3.52,8.91,4.33s-3.35.7-8.47,0c4.9,2,9.68,3.75,9.46,4.49s-7.52-.11-13.15-1.29l-.11,0,.09.05c5.24,2.49,10.16,4.82,9.84,5.55s-3.5.21-8.49-1.11c4.49,2.51,10.83,5.42,10.45,6.07s-7.72-1.14-13.12-3c4.73,3,7.42,5.18,6.94,5.82s-5.49-.88-10.26-2.76c4,2.93,9.94,7,9.42,7.52s-5.79-1.94-10.85-4.32c4.13,3.4,6.37,5.77,5.75,6.31s-3.55-.68-7.94-3c3.38,3.23,11.39,10.29,10.75,10.73s-10.14-5.89-14.76-8.76c3.45,3.71,6.37,7.49,5.62,7.91s-5.52-3.08-9.41-5.8l-.95-.67.64.81c2.72,3.32,6.16,7.07,5.46,7.39s-4.78-2.2-8.86-5.48c2.7,3.92,3.93,6.51,3.06,6.82s-3.29-1.45-6.73-4.55c1.12,2,2.75,4.45,3.84,6.27l-21.39-21.06-2.43-2.39-24.69-24.32Z"/><path class="cls-17" d="M155.46,217.24h0a31.38,31.38,0,0,1,1.29,3.13h0c3.66,9.73-1,16.34-7.89,18.87a15.52,15.52,0,0,1-3.43.86l-.3,0,16,15.77a7.27,7.27,0,0,0,2.52-.28c1.77-.54,2.84-1.75,2.86-3.17a8.75,8.75,0,0,0,4.26-.69l.31-.14c.17-.08.33-.17.49-.26,2.18-1.21,2.56-3.53.88-5.51l-.08-.09.29-.2a3.09,3.09,0,0,0,1.12-3.26,4.9,4.9,0,0,0,3.63-1.95,3.17,3.17,0,0,0,.49-2.29,5.41,5.41,0,0,0,3.94-1.46,3.16,3.16,0,0,0,.68-3.4,7.56,7.56,0,0,0,3.88-1.83,3.41,3.41,0,0,0,.74-.93s0,0,0,0a3.88,3.88,0,0,0-.54-4.29,7.1,7.1,0,0,0-2.77-2.12,3.39,3.39,0,0,0,.53-.9,3.86,3.86,0,0,0-.71-3.8A7.23,7.23,0,0,0,180.3,217a3.46,3.46,0,0,0,.52-.94,4.23,4.23,0,0,0-.8-4,7.29,7.29,0,0,0-2.06-1.82l.25-.22c1.48-1.41,1.53-3.53.12-5.44a7.89,7.89,0,0,0-3.46-2.53,4.68,4.68,0,0,0-1-3.8,8,8,0,0,0-2.43-2.11,4.8,4.8,0,0,0-1-4.17l-.14-.18L145.78,202.6S152.49,210.82,155.46,217.24Z"/><path class="cls-18" d="M154.92,216.13h0a35.38,35.38,0,0,1,1.82,4.25h0a17.65,17.65,0,0,1,1.07,9.17h0c-1,4.87-5.88,9.7-12.4,10.56a12.3,12.3,0,0,1-1.27-.93l-25.11-24.73,26.64-11.82A68,68,0,0,1,154.92,216.13Z"/><path class="cls-19" d="M145.56,202.7l-4.71,2.09.06,0a2.11,2.11,0,0,1,.86,2.38c-.53,1.25-.14,1.73,1.62,2.25a3.54,3.54,0,0,1,2.09,1.6c.38.71.73,1.35,1.1,2s.87,1.4,1.45,2.29a2.82,2.82,0,0,0,2,1.16l3.09,3.68c2,2.32,1.17,5-1.67,5.81l-.9.25c-.85.24-1.17,1.21-1.72,2.25a1.81,1.81,0,0,1-1.59.8h0c-.38,0-.6.25-.51.54.63,2,1.23,3.91,1.82,5.77.13.42-.32.74-.91.63h0c-1-.19-1.87.15-2.08.81l0,0c-.25.8-1.47,1.07-2.62.63a3.4,3.4,0,0,0-.34-.12L144,239l1.89,1.87,4.39,4.32c-.12-.24-.23-.49-.34-.72s.3-.41.58-.2c.93.71,7.74,6.45,9.71,7.8.49.33,1.19.11,1.07-.33-.57-2-8.16-10.84-8.16-10.84-.16-.18.09-.34.32-.21a89.26,89.26,0,0,1,9.64,6.45c1.55,1.16,3,2.22,4.93,1.15a.52.52,0,0,0,0-.92l-9.29-7.42c-.35-.28-.05-.65.42-.52s6.52,2.52,8.78,3.38c.54.2,1-.24.53-.58a4.86,4.86,0,0,1-.91-.83l-8.62-6.62c-.33-.25-.06-.59.36-.47,4.23,1.24,8.42,4.09,12.74,4.16.6,0,.86-.48.46-.85-3.21-2.9-7.77-4.54-11.26-6.52-.7-.39-.28-1.12.51-.87.61.19,12.09,3.16,15.21,3.87.45.1.71-.27.4-.54a7.06,7.06,0,0,0-1.73-1.25c-3-1.41-6.19-2.72-9.36-4.08-.23-.1-.19-.35.06-.34,2.9.09,5.72.92,8.13.72s5.61,1.83,7.7-.09c.32-.29.16-.78-.33-1-6.32-2.71-12.71-3.5-19.45-3.8-.65,0-1.09-.65-.69-1a1.69,1.69,0,0,1,1-.42c4.16-.13,8.36,0,12.46-.21a22.49,22.49,0,0,0,3.8-.63c.42-.09.32-.59-.15-.68-3.39-.7-12.17-1.91-17.91-2.44-.29,0-.41-.34-.14-.41l14.37-3.51c.52-.13.52-.72,0-1a6,6,0,0,0-2.64-.68c-3.31.1-6.53.54-9.86.67a29.85,29.85,0,0,1-4.39-.36c-.62-.07-1-.68-.54-1l3.69-2.28a2.93,2.93,0,0,1,2.21-.24,11.64,11.64,0,0,0,10.05-2.91c.3-.29-.17-.81-.66-.73-7.41,1.17-11.76,1.69-18.63,2.79a2.71,2.71,0,0,1-1,0,6.11,6.11,0,0,0-1.49.06c-.48.06-.82-.5-.4-.64,6.08-2,12.79-3.39,17.64-7.67.33-.3-.08-.86-.63-.85a13.6,13.6,0,0,0-3.28.23c-3.63,1-7.1,2.25-10.74,3.25a9.49,9.49,0,0,1-2.55.17,2.21,2.21,0,0,1-1.83-1.07c-.11-.12.18-.32.76-.58,2.75-1.22,11.9-3.81,14.82-7.37a.44.44,0,0,0,0-.49l-19.9,8.83Z"/><path class="cls-20" d="M153.88,246c-1.87-1.87-2.8-3.5-2.65-3.58a14.24,14.24,0,0,1,3.89,3c1.84,1.86,1.78,2.16,1.44,2.3S155.72,247.82,153.88,246Z"/><path class="cls-20" d="M159.65,243.31c-2.17-1.71-3.39-3.28-3.26-3.37a15.65,15.65,0,0,1,4.34,2.69c2.14,1.7,2.15,2,1.85,2.2S161.8,245,159.65,243.31Z"/><path class="cls-20" d="M159.83,238.06c-2.49-1.52-4-3-3.94-3.12a17,17,0,0,1,4.82,2.28c2.47,1.51,2.55,1.84,2.31,2.07S162.3,239.57,159.83,238.06Z"/><path class="cls-20" d="M164.17,235.18c-2.65-1.35-4.38-2.73-4.3-2.86a17.51,17.51,0,0,1,5,1.92c2.63,1.34,2.75,1.66,2.55,1.92S166.8,236.51,164.17,235.18Z"/><path class="cls-20" d="M164.45,230.21a16.88,16.88,0,0,1-5.12-1.87c0-.15,2.37,0,5.35.73s3.22,1,3.16,1.34S167.41,230.93,164.45,230.21Z"/><path class="cls-20" d="M149.21,239.6c-1.65-1.52-2.42-2.9-2.27-3a10.63,10.63,0,0,1,3.47,2.38c1.63,1.51,1.55,1.78,1.22,1.95S150.84,241.1,149.21,239.6Z"/><path class="cls-20" d="M152.1,236.87c-1.86-1.4-2.85-2.75-2.73-2.85a11.4,11.4,0,0,1,3.79,2.12c1.84,1.4,1.82,1.69,1.53,1.89S154,238.26,152.1,236.87Z"/><path class="cls-20" d="M152.36,232.76c-2.16-1.17-3.48-2.42-3.39-2.55a12.29,12.29,0,0,1,4.19,1.64c2.14,1.17,2.2,1.48,2,1.73S154.5,233.93,152.36,232.76Z"/><path class="cls-20" d="M155.71,229.92a10.86,10.86,0,0,1-3.86-2.14,12,12,0,0,1,4.37,1.09c2.33.9,2.46,1.21,2.32,1.5S158,230.82,155.71,229.92Z"/><path class="cls-20" d="M159.45,225.69a12,12,0,0,1-4.22-1.62c0-.16,2-.14,4.4.44s2.66.88,2.61,1.2S161.88,226.26,159.45,225.69Z"/><path class="cls-20" d="M161.94,221.43c-3.39,0-6.1-.55-6.17-.74s2.39-.68,5.8-.68,3.81.3,3.91.69S165.31,221.43,161.94,221.43Z"/><path class="cls-20" d="M158.59,216.61c-3.05.82-5.71.9-5.84.72s1.84-1.28,4.9-2.1,3.56-.62,3.82-.24S161.63,215.8,158.59,216.61Z"/><path class="cls-20" d="M160.79,204.22c-3.11.82-5.83.88-6,.7s1.89-1.34,5-2.16,3.63-.62,3.89-.21S163.9,203.39,160.79,204.22Z"/><path class="cls-20" d="M151.86,199.91l7.81-3.47a1.29,1.29,0,0,1,.21.19c.31.4.28.87-2.66,2A19.85,19.85,0,0,1,151.86,199.91Z"/><path class="cls-20" d="M170.94,226.93a18.93,18.93,0,0,1-6-1.36c0-.18,2.53-.38,5.9,0s3.72.68,3.73,1.06S174.28,227.3,170.94,226.93Z"/><path class="cls-20" d="M152.58,212.3a11.24,11.24,0,0,1-4.89.42c-.14-.17,1.41-1.18,3.92-1.84s2.95-.44,3.22,0S155.07,211.64,152.58,212.3Z"/><path class="cls-20" d="M149.25,207.34c-2.53.67-4.82.61-5,.42s1.43-1.2,4-1.87,3-.44,3.27,0S151.77,206.68,149.25,207.34Z"/><path class="cls-21" d="M83.87,173.56a6.89,6.89,0,0,0-.68-2.9c-1.22-2-1.82.22-4.16,1.17-1.45.59-1.52-.74-3.51-.12-2.78.86-2.37,2.5-2.66,2.75s-2.32,0-3.44.94c-.83.71.73,2.15,2.19,3.24-9.32,6.88-12.92,18.94-8,29.53,5.92,12.64,21.76,18.41,35.38,12.89s19.88-20.24,14-32.88C108,177.44,95.78,171.67,83.87,173.56Z"/><path class="cls-22" d="M85.29,179.86c.29,2.37-6.13,5.39-9.78,11.06-4.09,5.4-4.44,12.07-6.9,12.78-1.16.27-3.11-1.46-3.87-4.88a16.11,16.11,0,0,1,2.8-12.7,18.5,18.5,0,0,1,11.37-7.55C82.58,177.83,85.08,178.77,85.29,179.86Z"/><path class="cls-23" d="M326.07,188.26c-6.48-.28-9.15,4.71-11.39,8.3-1.41,2.27-5.59,5.51-6.05,5.86s-4.82,3.28-7.28,3.82c-3.89.86-9.13,1.61-11.42,8.25s-2.82,17.18,6.53,28.06c14.54,16.91,32.46,12.06,40.34,6.34s18.92-21.9,10.35-43.13C341.63,192.1,332.55,188.53,326.07,188.26Z"/><path class="cls-24" d="M314.45,199.05c1.16-2,3.65-3.52,5.25-2,1.87,1.8,4,4.89,1.59,8.45-3.79,5.63-8.93,5.58-12.74,11.49s-3.91,13.25-10,12.34-8.9-5.93-7.08-12c1.34-4.49,1.92-7.2,11.17-9.81C311.35,205.08,314.43,199.07,314.45,199.05Z"/><path class="cls-25" d="M303.05,216.66c1,1.6.16,4.06-1.81,5.49s-4.35,1.28-5.32-.32-.17-4.06,1.8-5.49S302.07,215.05,303.05,216.66Z"/><path class="cls-26" d="M343.44,227.25a24.54,24.54,0,0,0,16,16c12.94,4.06,32.27-.65,49.45-10.49,16.87-9.67,22.8-22.44,15.34-41.16C383.16,204.33,343.44,227.25,343.44,227.25Z"/><ellipse class="cls-25" cx="383.94" cy="209.8" rx="44.09" ry="23.44" transform="translate(-51.68 169.06) rotate(-23.31)"/><ellipse class="cls-26" cx="384.94" cy="210.21" rx="37.01" ry="19.67" transform="translate(-51.76 169.48) rotate(-23.31)"/><path class="cls-27" d="M389.67,208.23c-2.86.22-4.74-.87-4.6-2.74.35-4.39-.62-8.77-4.45-7.19-2.49,1-1.51,5.62.07,9.09.68,1.48-.48,3.58-2.89,5.24-6,4.12-10.95,9.7-9,10.72,1.68.87,7-3.43,11-7.47a12.37,12.37,0,0,1,9.1-3.46c5.16.56,11.58.39,12.56-1.49S395.62,207.79,389.67,208.23Z"/><path class="cls-21" d="M332.7,166.15a7,7,0,0,0-.68-2.91c-1.22-2-1.82.23-4.16,1.18-1.46.58-1.52-.74-3.52-.12-2.77.86-2.36,2.5-2.66,2.75s-2.31,0-3.43.94c-.83.71.73,2.15,2.19,3.24-9.33,6.88-12.92,18.93-8,29.53,5.92,12.64,21.76,18.41,35.38,12.89s19.87-20.24,14-32.88C356.79,170,344.6,164.26,332.7,166.15Z"/><path class="cls-22" d="M334.12,172.45c.29,2.37-6.13,5.38-9.78,11.06-4.1,5.4-4.45,12.06-6.9,12.78-1.17.26-3.11-1.47-3.87-4.88a16.14,16.14,0,0,1,2.8-12.71,18.52,18.52,0,0,1,11.37-7.54C331.41,170.42,333.9,171.36,334.12,172.45Z"/><path class="cls-28" d="M448.63,227.48c.42,1.07-49.68-10-49.68-10l-14-17.22,36.85-21.39,29.63-17.2,7.11,15.19S448.2,226.43,448.63,227.48Z"/><path class="cls-29" d="M448.63,227.48l-10-18-16.88-30.6,29.63-17.2,7.11,15.19S448.2,226.43,448.63,227.48Z"/><polygon class="cls-30" points="451.39 161.7 438.63 209.5 384.91 200.29 389.29 189.68 394.27 190 390.04 187.87 395.31 175.1 398.28 174.92 395.94 173.59 403.79 154.56 451.39 161.7"/><polygon class="cls-29" points="442.54 201.28 439.56 198.32 443.5 199.66 442.54 201.28"/><path class="cls-29" d="M449.65,183.83c-.13-.32-7-5.15-7-5.15l8.11,2.35Z"/><path class="cls-29" d="M419.43,166.57c-1.95.78-11.54,7-9.05,9.55S419.43,166.57,419.43,166.57Z"/><path class="cls-29" d="M428.59,174.48c-.77-.57.42,13.06,2.86,11.85S430.32,175.74,428.59,174.48Z"/><path class="cls-29" d="M419.3,186.47C419,185.64,412.18,198,415,198S420.08,188.33,419.3,186.47Z"/><path class="cls-26" d="M74.89,201.52a24.56,24.56,0,0,0,8.69,20.9c10.39,8.7,30.06,11.75,49.69,9.24,19.29-2.47,29.66-12,29.94-32.14C120.35,195.56,74.89,201.52,74.89,201.52Z"/><ellipse class="cls-25" cx="118.98" cy="200.91" rx="44.09" ry="23.44" transform="translate(-2.76 1.66) rotate(-0.79)"/><ellipse class="cls-26" cx="119.74" cy="201.68" rx="37.01" ry="19.67" transform="translate(-2.77 1.67) rotate(-0.79)"/><path class="cls-27" d="M124.87,201.66c-2.72-.9-4-2.62-3.19-4.29,2-3.93,2.78-8.34-1.36-8.35-2.69,0-3.55,4.61-3.42,8.42.06,1.63-1.81,3.13-4.68,3.74-7.09,1.52-13.83,4.76-12.38,6.47,1.22,1.45,7.81-.48,13-2.69a12.33,12.33,0,0,1,9.73.29c4.55,2.5,10.55,4.79,12.17,3.43S130.54,203.54,124.87,201.66Z"/><path class="cls-31" d="M37.24,186.61c2.1,5.23,16.52,14.36,21.56,15.51a4.51,4.51,0,0,0,1,.11c5.89.16,20.52-7.21,22.28-13,1.87-6.13.73-23-3.11-25.88C73.5,159.25,62.42,154,59,154c-.25,0-.59,0-1,0-5.27.52-22.47,4.11-24.12,6C32,162.09,35.14,181.38,37.24,186.61Z"/><path class="cls-32" d="M37.24,186.61c2.1,5.23,16.52,14.36,21.56,15.51a4.51,4.51,0,0,0,1,.11c-1.19-5.71-3-12.24-4.76-21.46-2.54-13.11.5-22.37,2.95-26.73-5.27.52-22.47,4.11-24.12,6C32,162.09,35.14,181.38,37.24,186.61Z"/><path class="cls-33" d="M33.82,160c1.55,5.69,14.56,16.08,23.15,15.07,5.63-.66,25.34-7.65,22-11.75C73.5,159.25,62.42,154,59,154S35.6,158,33.82,160Z"/><path class="cls-26" d="M324.61,166.5a22.07,22.07,0,0,0,7.8,18.76c9.33,7.8,27,10.55,44.6,8.29,17.31-2.21,26.62-10.76,26.88-28.84C365.42,161.15,324.61,166.5,324.61,166.5Z"/><ellipse class="cls-25" cx="364.18" cy="165.96" rx="39.58" ry="21.04" transform="translate(-2.26 5.04) rotate(-0.79)"/><ellipse class="cls-26" cx="364.87" cy="166.64" rx="33.22" ry="17.65" transform="translate(-2.27 5.05) rotate(-0.79)"/><path class="cls-27" d="M369.48,166.63c-2.45-.81-3.64-2.36-2.87-3.85,1.79-3.53,2.5-7.49-1.22-7.5-2.42,0-3.19,4.14-3.07,7.56.05,1.46-1.62,2.81-4.2,3.36-6.36,1.36-12.41,4.27-11.12,5.8,1.11,1.3,7-.43,11.69-2.41a11.11,11.11,0,0,1,8.74.25c4.08,2.25,9.46,4.31,10.92,3.09S374.56,168.31,369.48,166.63Z"/><path class="cls-26" d="M235.27,186.15a22.07,22.07,0,0,0,7.8,18.76c9.33,7.8,27,10.55,44.6,8.29C305,211,314.3,202.44,314.55,184.36,276.08,180.8,235.27,186.15,235.27,186.15Z"/><ellipse class="cls-25" cx="274.85" cy="185.6" rx="39.58" ry="21.04" transform="translate(-2.54 3.81) rotate(-0.79)"/><ellipse class="cls-26" cx="275.53" cy="186.29" rx="33.22" ry="17.65" transform="translate(-2.55 3.82) rotate(-0.79)"/><path class="cls-27" d="M280.14,186.28c-2.45-.81-3.64-2.36-2.87-3.86,1.79-3.52,2.5-7.49-1.22-7.49-2.41,0-3.18,4.14-3.07,7.56,0,1.46-1.62,2.8-4.2,3.35-6.36,1.37-12.41,4.28-11.11,5.81,1.1,1.3,7-.43,11.68-2.42a11.15,11.15,0,0,1,8.74.26c4.08,2.25,9.47,4.31,10.92,3.08S285.22,188,280.14,186.28Z"/><path class="cls-34" d="M214.09,159.53S174,209.81,128.7,185.7c-47.8-25.41-34.55-62.62-34.55-62.62,10.67,34.27,37.92,44.15,54.58,40.6,20.67-4.4,28.16-17.29,28.16-17.29l23.2,8.19Z"/><path class="cls-35" d="M200.09,154.58c-12.3,13.2-32.8,27.84-60.56,22.7-47.84-8.86-45.38-54.2-45.38-54.2,10.67,34.27,37.92,44.15,54.58,40.6,20.67-4.4,28.16-17.29,28.16-17.29Z"/><path class="cls-31" d="M201.5,168.13c-3.78,2.34-18.34,1-22.57-.79a4.7,4.7,0,0,1-.75-.41c-4.44-2.87-12.19-15.05-11.05-19.7,1.21-4.93,9.18-15.32,13.26-15.27,5.76.06,16.21,2.23,18.79,4,.19.12.43.31.73.54,3.69,3,14.94,14,15.36,16.09C215.73,154.79,205.27,165.78,201.5,168.13Z"/><path class="cls-32" d="M201.5,168.13c-3.78,2.34-18.34,1-22.57-.79a4.7,4.7,0,0,1-.75-.41c3.3-3.12,7.38-6.46,12.61-11.56,7.43-7.26,9.09-14.81,9.12-18.89,3.69,3,14.94,14,15.36,16.09C215.73,154.79,205.27,165.78,201.5,168.13Z"/><path class="cls-33" d="M215.27,152.57c-3.55,2.91-17.61,3.11-23.56-1.89-3.9-3.27-15.57-17.76-11.32-18.72,5.76.06,16.21,2.23,18.79,4S214.81,150.34,215.27,152.57Z"/><path class="cls-28" d="M194.73,152c-.59-.71-14.51,32.45-14.51,32.45l6.47,15.5,31.89-11.42,25.63-9.18-8-10.69S195.32,152.74,194.73,152Z"/><path class="cls-29" d="M194.73,152l8.81,13.55,15,23,25.63-9.18-8-10.69S195.32,152.74,194.73,152Z"/><polygon class="cls-30" points="244.21 179.39 203.54 165.59 186.69 199.99 196.39 202.18 198.34 199.22 198.05 202.55 209.74 205.18 211.18 203.59 211.12 205.49 228.53 209.41 244.21 179.39"/><polygon class="cls-29" points="211.29 166.99 212.15 169.97 212.9 167.16 211.29 166.99"/><path class="cls-29" d="M227.21,170.65c.18.21.69,6.24.69,6.24l1.84-5.61Z"/><path class="cls-29" d="M226.6,195.31c-1.43.75-10.22,3.43-11,.91S226.6,195.31,226.6,195.31Z"/><path class="cls-29" d="M224.82,186.65c.07.69-9.4-6-7.44-6.82S224.66,185.12,224.82,186.65Z"/><path class="cls-29" d="M211.94,186.63c.45.56-11.58-1-10.36-2.62S210.92,185.38,211.94,186.63Z"/><path class="cls-31" d="M406.43,156.63c.52,4-7.89,14.55-11.74,16.93a5.69,5.69,0,0,1-.78.38c-5,2-21,2.14-25.08-1-4.35-3.28-10.89-14.37-8.86-17.47,2.86-4.39,10.11-11.36,13.11-12.5.22-.09.52-.18.9-.3,4.79-1.4,21.28-4.74,23.56-4.08C400,139.34,405.91,152.62,406.43,156.63Z"/><path class="cls-32" d="M406.43,156.63c.52,4-7.89,14.55-11.74,16.93a5.69,5.69,0,0,1-.78.38c-1.52-4-2.89-8.75-5.45-15.2a30.39,30.39,0,0,0-14.48-16c4.79-1.4,21.28-4.74,23.56-4.08C400,139.34,405.91,152.62,406.43,156.63Z"/><path class="cls-33" d="M397.54,138.62c1.19,4.12-5.44,15-13.33,17.16-5.16,1.42-25.34,3.43-24.24-.28,2.86-4.39,10.11-11.36,13.11-12.5S395.09,137.91,397.54,138.62Z"/><path class="cls-34" d="M357.74,138.84s27.32,41.89,65,25.59c39.7-17.19,32.37-47.22,32.37-47.22-11.23,26.32-33.48,32.49-46.29,28.73-15.89-4.67-20.7-15.25-20.7-15.25l-18.92,5.08Z"/><path class="cls-35" d="M369.17,135.77c8.57,11.1,23.46,23.82,45.72,21.4,38.35-4.17,40.19-40,40.19-40-11.23,26.32-33.48,32.49-46.29,28.73-15.89-4.67-20.7-15.25-20.7-15.25Z"/><path class="cls-36" d="M210.82,124.15c-.7,9.65,11.52,23.78,32.2,20.45,22.62-3.65,23-27.29,15.19-33.68C237.39,118.41,216.76,123.39,210.82,124.15Z"/><path class="cls-37" d="M210.82,124.15c-1.12,6.16,5.81,17,28.66,12.76,20.92-3.91,26.11-20.8,18.73-26-10.69-7.54-25.88,1.46-25.88,1.46S213.29,110.57,210.82,124.15Z"/><path class="cls-38" d="M233.71,114.72s-8.41-.51-12.77,1.78c-3.64,1.92-7.67,6.14-5.39,11.56s11.31,9.65,25.16,6.25,18.52-14.33,15.2-19.12-9-4.81-13.17-4.1A30.75,30.75,0,0,0,233.71,114.72Z"/><path class="cls-39" d="M228,124.31c.66,2.55,4.61,6.6,11.66,5.2s7-10.36,3.61-11.77-7.69,1.47-7.69,1.47S226.79,119.43,228,124.31Z"/><path class="cls-37" d="M241,119.35a7.52,7.52,0,0,0-4.27,3.63s-3-1.87-5.86-1,.35,6.55,7.32,4.83S244,118.4,241,119.35Z"/><path class="cls-36" d="M233.2,123.88c-.76.94.57,1.35,3.05,1.37C235.33,123.63,233.6,123.39,233.2,123.88Z"/><path class="cls-36" d="M240.65,122.05c1.2.46.31,1.42-1.81,2.56C238.68,122.81,240,121.81,240.65,122.05Z"/><path class="cls-28" d="M298.31,126.06c-.6-.71-14.51,32.45-14.51,32.45l6.46,15.5,31.89-11.42,25.64-9.18-8-10.69S298.89,126.76,298.31,126.06Z"/><path class="cls-29" d="M298.31,126.06l8.8,13.55,15,23,25.64-9.18-8-10.69S298.89,126.76,298.31,126.06Z"/><polygon class="cls-30" points="347.79 153.41 307.11 139.61 290.26 174.01 299.97 176.2 301.92 173.24 301.62 176.57 313.31 179.2 314.75 177.61 314.69 179.51 332.11 183.44 347.79 153.41"/><polygon class="cls-29" points="314.86 141.01 315.72 144 316.47 141.18 314.86 141.01"/><path class="cls-29" d="M330.79,144.67c.18.21.68,6.24.68,6.24l1.84-5.61Z"/><path class="cls-29" d="M330.17,169.33c-1.43.76-10.22,3.43-11,.91S330.17,169.33,330.17,169.33Z"/><path class="cls-29" d="M328.39,160.67c.08.69-9.39-6-7.44-6.82S328.23,159.14,328.39,160.67Z"/><path class="cls-29" d="M315.51,160.65c.46.56-11.57-1-10.36-2.62S314.49,159.4,315.51,160.65Z"/><path class="cls-40" d="M473.77,150.33l-.22.4c-2.85,4.89-8.42,2.67-15.73.47s-18.6,2.84-19.89-5.59a7.41,7.41,0,0,1,2.41-6.67c3.81-3.66,11.11-5.14,15.79-4.38C472.38,137.21,476.2,145.39,473.77,150.33Z"/><path class="cls-41" d="M473.77,150.33l-.22.4c-2.85,4.89-8.42,2.67-15.73.47s-18.6,2.84-19.89-5.59a7.41,7.41,0,0,1,2.41-6.67c-.17,2.06.67,4.69,6,4.77,8.83.11,15.92,1.92,21.68,5.28A10.16,10.16,0,0,0,473.77,150.33Z"/><path class="cls-42" d="M448.79,137.93a2.3,2.3,0,0,0-2.32-.86,6.87,6.87,0,0,0-1.1.3,2.63,2.63,0,0,0-1.36.92,1.71,1.71,0,0,0-.1,1.73,2.39,2.39,0,0,0,3.19.93,9.54,9.54,0,0,0,1.34-.81A1.68,1.68,0,0,0,448.79,137.93Z"/><path class="cls-42" d="M452.75,137c-.7,0-1.43.37-1.47,1a1.24,1.24,0,0,0,1.19,1.29c.7,0,1.42-.37,1.47-1.05A1.24,1.24,0,0,0,452.75,137Z"/><path class="cls-31" d="M473,174c-1.73,3.76-14.84,9.52-19.51,10a5.39,5.39,0,0,1-.9,0c-5.5-.3-19.57-6.86-21.47-11.31-2-4.71-1.72-17.2,1.75-19.09,4.9-2.67,15.05-5.79,18.3-5.54l.95.11c5,.77,21.26,4.7,22.89,6.24S474.77,170.2,473,174Z"/><path class="cls-32" d="M473,174c-1.73,3.76-14.84,9.52-19.51,10a5.39,5.39,0,0,1-.9,0c.87-4.17,2.24-8.91,3.5-15.66,1.79-9.61-1.47-16.74-4-20.17,5,.77,21.26,4.7,22.89,6.24S474.77,170.2,473,174Z"/><path class="cls-33" d="M475,154.38c-1.19,4.13-12.93,10.94-21,9.56-5.31-.91-24.1-7.55-21.11-10.37,4.9-2.67,15.05-5.79,18.3-5.54S473.28,152.72,475,154.38Z"/><path class="cls-43" d="M143.61,166.54a22.93,22.93,0,0,1-3.14,9.41c-1,1.78-2.72,3.56-4.15,4-11.76,3.26-40.69-1.22-49.93-3.81-20.32-5.69-34.65-11.21-44.87-19.59-4.08-3.34-5.15-6.42-5-8.58.23-4.45,5.39-12.8,5.39-12.8Z"/><path class="cls-44" d="M86.31,176.35a217.62,217.62,0,0,1-26.26-8.81A76,76,0,0,1,41.33,156.7c-4.66-3.81-5.21-7.14-5.13-8.79.23-4.46,5.21-12.58,5.42-12.92l.12-.19,102,31.49.2.06v.21a23.26,23.26,0,0,1-3.17,9.51c-1,1.72-2.73,3.65-4.32,4.09a42.47,42.47,0,0,1-10.3,1.15h0C112.08,181.5,93,178.23,86.31,176.35ZM42,135.44c-.75,1.26-5,8.53-5.23,12.5-.08,1.55.46,4.7,4.94,8.36,9.22,7.56,22.19,13.22,44.76,19.54,6.7,1.87,25.66,5.13,39.62,4.94a41.74,41.74,0,0,0,10.15-1.13c1.22-.34,2.86-1.91,4-3.83a23.15,23.15,0,0,0,3.08-9.09Z"/><path class="cls-45" d="M110.78,169.53c3-2.7,6.39-5.5,7.45-9.25q.19-.74.33-1.47l25.05,7.73a22.93,22.93,0,0,1-3.14,9.41c-1,1.78-2.72,3.56-4.15,4-10.8,3-36.09-.54-47.3-3.14C100,176.19,107.88,172.08,110.78,169.53Z"/><path class="cls-46" d="M108.52,176.27a1.82,1.82,0,0,0-.86-1.37,4.38,4.38,0,0,0-1.53-.72c-2-.48-2.75.26-3,.54a1.55,1.55,0,0,0,0,2,3.59,3.59,0,0,0,2.22.92,6.81,6.81,0,0,0,2.13-.13A1.25,1.25,0,0,0,108.52,176.27Z"/><path class="cls-47" d="M108.26,176.23a3.1,3.1,0,0,0-1.27-.93,5.18,5.18,0,0,0-2-.43,1.64,1.64,0,0,0-1.14.42,1.16,1.16,0,0,0-.07,1.48,3.18,3.18,0,0,0,1.72.72,6.33,6.33,0,0,0,1.95-.19C108.14,177.16,108.43,176.56,108.26,176.23Z"/><path class="cls-48" d="M107.52,176.43c0-.06.14-.1-.06-.25a5.44,5.44,0,0,0-1-.56,2.41,2.41,0,0,0-1.08-.26,1,1,0,0,0-.73.27.73.73,0,0,0,0,1,1.18,1.18,0,0,0,.8.36,7.31,7.31,0,0,0,1.93-.16c.08,0,.2-.14.2-.19A.47.47,0,0,0,107.52,176.43Z"/><path class="cls-49" d="M107.34,176.41s.12-.08,0-.21a5.21,5.21,0,0,0-.87-.48,2.47,2.47,0,0,0-1-.22.88.88,0,0,0-.64.22.58.58,0,0,0,0,.79,1,1,0,0,0,.71.3,7,7,0,0,0,1.69-.11.41.41,0,0,0,.18-.16A.49.49,0,0,0,107.34,176.41Z"/><path class="cls-50" d="M107.05,176.38s.1-.06,0-.15a4.65,4.65,0,0,0-.71-.36,2.13,2.13,0,0,0-.76-.17.86.86,0,0,0-.51.16.42.42,0,0,0,0,.58.87.87,0,0,0,.57.23,5.4,5.4,0,0,0,1.34-.08c.06,0,.14-.08.14-.11A.41.41,0,0,0,107.05,176.38Z"/><path class="cls-51" d="M105.75,175.9c.13,0-.27-.11-.38-.09a.36.36,0,0,0-.27.12.4.4,0,0,0,0,.41c.05.09.28.25.28.15C105.34,176.21,105.31,176,105.75,175.9Z"/><path class="cls-46" d="M86.52,168.65a1.89,1.89,0,0,0-.7-1.58,4.46,4.46,0,0,0-1.52-1c-2.08-.8-3-.11-3.31.15a1.68,1.68,0,0,0-.31,2.14,3.77,3.77,0,0,0,2.23,1.31,7.48,7.48,0,0,0,2.3.17A1.39,1.39,0,0,0,86.52,168.65Z"/><path class="cls-47" d="M86.25,168.58A3.18,3.18,0,0,0,85,167.4a5.6,5.6,0,0,0-2-.75,1.87,1.87,0,0,0-1.3.29,1.28,1.28,0,0,0-.32,1.58,3.51,3.51,0,0,0,1.72,1,7.33,7.33,0,0,0,2.12.08C86,169.56,86.37,169,86.25,168.58Z"/><path class="cls-48" d="M85.42,168.68c0-.06.16-.08,0-.27a6,6,0,0,0-1-.75,2.81,2.81,0,0,0-1.13-.43,1.14,1.14,0,0,0-.83.18.82.82,0,0,0-.2,1,1.21,1.21,0,0,0,.8.51,8.41,8.41,0,0,0,2.09.1.48.48,0,0,0,.25-.17A1,1,0,0,0,85.42,168.68Z"/><path class="cls-49" d="M85.23,168.63s.15-.06,0-.23a6.21,6.21,0,0,0-.86-.63,2.48,2.48,0,0,0-1-.38,1.11,1.11,0,0,0-.73.14.66.66,0,0,0-.16.85,1.16,1.16,0,0,0,.71.43,7.23,7.23,0,0,0,1.83.11c.08,0,.21-.09.22-.14A.53.53,0,0,0,85.23,168.63Z"/><path class="cls-50" d="M84.92,168.56s.12-.05,0-.17a6,6,0,0,0-.7-.48,2.3,2.3,0,0,0-.79-.29.83.83,0,0,0-.57.1.45.45,0,0,0-.1.62.92.92,0,0,0,.57.33,6.21,6.21,0,0,0,1.45.1.28.28,0,0,0,.16-.1A.28.28,0,0,0,84.92,168.56Z"/><path class="cls-51" d="M83.61,167.86c.15,0-.27-.15-.39-.16a.45.45,0,0,0-.31.1.43.43,0,0,0-.1.44c0,.1.26.31.28.19C83.12,168.14,83.12,167.92,83.61,167.86Z"/><path class="cls-46" d="M74.1,169.13a1.84,1.84,0,0,0-.45-1.66,4.41,4.41,0,0,0-1.36-1.19c-1.93-1.07-2.94-.5-3.3-.28a1.69,1.69,0,0,0-.62,2.08,3.61,3.61,0,0,0,2,1.59,7.78,7.78,0,0,0,2.25.47A1.44,1.44,0,0,0,74.1,169.13Z"/><path class="cls-47" d="M73.84,169a3.17,3.17,0,0,0-1-1.33,5.62,5.62,0,0,0-1.9-1,1.82,1.82,0,0,0-1.32.12,1.29,1.29,0,0,0-.56,1.52,3.36,3.36,0,0,0,1.55,1.23,6.76,6.76,0,0,0,2.09.35C73.41,170,73.91,169.41,73.84,169Z"/><path class="cls-48" d="M73,169c0-.06.18-.06,0-.27a6.63,6.63,0,0,0-.84-.87,2.71,2.71,0,0,0-1-.57,1.18,1.18,0,0,0-.85.07.84.84,0,0,0-.35,1,1.14,1.14,0,0,0,.71.6,8.44,8.44,0,0,0,2,.38c.1,0,.26-.09.28-.15A.66.66,0,0,0,73,169Z"/><path class="cls-49" d="M72.83,168.94c0-.05.15-.05,0-.23a6,6,0,0,0-.76-.74,2.56,2.56,0,0,0-.92-.51,1.1,1.1,0,0,0-.74,0,.67.67,0,0,0-.29.82,1.14,1.14,0,0,0,.64.52,7.55,7.55,0,0,0,1.79.35.35.35,0,0,0,.24-.12A.45.45,0,0,0,72.83,168.94Z"/><path class="cls-50" d="M72.53,168.83s.12,0,0-.17a4.49,4.49,0,0,0-.62-.57,2.12,2.12,0,0,0-.74-.39.91.91,0,0,0-.57,0,.46.46,0,0,0-.2.61.9.9,0,0,0,.52.39,6.26,6.26,0,0,0,1.41.3.31.31,0,0,0,.19-.08A.38.38,0,0,0,72.53,168.83Z"/><path class="cls-51" d="M71.33,168c.16,0-.23-.19-.36-.21a.42.42,0,0,0-.31.05.44.44,0,0,0-.17.42c0,.11.21.35.25.23C70.82,168.17,70.85,168,71.33,168Z"/><path class="cls-46" d="M65.89,162.87a1.83,1.83,0,0,0-.35-1.68,4.27,4.27,0,0,0-1.28-1.26c-1.87-1.16-2.9-.65-3.28-.45a1.72,1.72,0,0,0-.75,2.05,3.57,3.57,0,0,0,1.91,1.68,7.49,7.49,0,0,0,2.22.59A1.43,1.43,0,0,0,65.89,162.87Z"/><path class="cls-47" d="M65.64,162.75a3.05,3.05,0,0,0-.93-1.38,5.62,5.62,0,0,0-1.83-1.1,1.84,1.84,0,0,0-1.33,0,1.3,1.3,0,0,0-.64,1.49,3.18,3.18,0,0,0,1.47,1.31,6.47,6.47,0,0,0,2.06.46C65.15,163.65,65.69,163.14,65.64,162.75Z"/><path class="cls-48" d="M64.8,162.7c0-.07.19,0,0-.27a6,6,0,0,0-.79-.91,2.67,2.67,0,0,0-1-.63,1.18,1.18,0,0,0-.85,0,.84.84,0,0,0-.42,1,1.17,1.17,0,0,0,.68.64,7.67,7.67,0,0,0,2,.48.45.45,0,0,0,.28-.12A.48.48,0,0,0,64.8,162.7Z"/><path class="cls-49" d="M64.63,162.62c0-.06.16-.05,0-.23a6.7,6.7,0,0,0-.71-.79,2.45,2.45,0,0,0-.89-.54,1,1,0,0,0-.74,0,.67.67,0,0,0-.34.81,1.08,1.08,0,0,0,.61.55,7.72,7.72,0,0,0,1.77.44.38.38,0,0,0,.24-.1A.49.49,0,0,0,64.63,162.62Z"/><path class="cls-50" d="M64.35,162.49s.12,0,0-.17a5.42,5.42,0,0,0-.59-.6,2.11,2.11,0,0,0-.71-.43.89.89,0,0,0-.58,0,.45.45,0,0,0-.23.59.87.87,0,0,0,.49.42,6.37,6.37,0,0,0,1.4.37c.06,0,.17,0,.18-.07A.31.31,0,0,0,64.35,162.49Z"/><path class="cls-51" d="M63.2,161.57c.16,0-.22-.2-.35-.23a.38.38,0,0,0-.31,0,.41.41,0,0,0-.19.41c0,.1.18.35.22.24C62.67,161.75,62.71,161.54,63.2,161.57Z"/><path class="cls-46" d="M43.39,151.6a1.84,1.84,0,0,0,.19-1.7,4.13,4.13,0,0,0-.84-1.54c-1.43-1.62-2.58-1.4-3-1.31a1.8,1.8,0,0,0-1.35,1.76,3.38,3.38,0,0,0,1.31,2.13,6.93,6.93,0,0,0,1.94,1.15A1.49,1.49,0,0,0,43.39,151.6Z"/><path class="cls-47" d="M43.19,151.42a2.94,2.94,0,0,0-.47-1.57,5.23,5.23,0,0,0-1.41-1.54A1.84,1.84,0,0,0,40,148,1.38,1.38,0,0,0,39,149.26a3.06,3.06,0,0,0,1,1.65,6.44,6.44,0,0,0,1.83,1A1.05,1.05,0,0,0,43.19,151.42Z"/><path class="cls-48" d="M42.4,151.15c.05-.05.19,0,.13-.25a5.3,5.3,0,0,0-.48-1.08,2.51,2.51,0,0,0-.77-.87,1.15,1.15,0,0,0-.82-.2.88.88,0,0,0-.69.81,1.06,1.06,0,0,0,.45.79,7.12,7.12,0,0,0,1.79,1,.44.44,0,0,0,.31,0A.74.74,0,0,0,42.4,151.15Z"/><path class="cls-49" d="M42.27,151c0-.05.16,0,.1-.21a5.11,5.11,0,0,0-.44-.94,2.28,2.28,0,0,0-.68-.76,1,1,0,0,0-.71-.19.68.68,0,0,0-.57.67,1,1,0,0,0,.41.69,6.75,6.75,0,0,0,1.55.9.39.39,0,0,0,.27,0A.92.92,0,0,0,42.27,151Z"/><path class="cls-50" d="M42,150.83s.13,0,.07-.16a4.56,4.56,0,0,0-.37-.73,2.12,2.12,0,0,0-.55-.6.9.9,0,0,0-.55-.16.48.48,0,0,0-.41.51.86.86,0,0,0,.34.54,6.55,6.55,0,0,0,1.22.72c.06,0,.18,0,.2,0A.29.29,0,0,0,42,150.83Z"/><path class="cls-51" d="M41.22,149.64c.14.05-.15-.25-.26-.31a.5.5,0,0,0-.32-.05.45.45,0,0,0-.31.35c0,.1.07.39.15.29S40.76,149.48,41.22,149.64Z"/><path class="cls-46" d="M95.21,175.34a1.65,1.65,0,0,0-.48-1.48,3.9,3.9,0,0,0-1.27-1c-1.8-.89-2.68-.34-3-.13a1.53,1.53,0,0,0-.47,1.9A3.29,3.29,0,0,0,91.87,176a6.73,6.73,0,0,0,2.06.34A1.27,1.27,0,0,0,95.21,175.34Z"/><path class="cls-47" d="M95,175.25a2.86,2.86,0,0,0-1-1.16,5.19,5.19,0,0,0-1.75-.83,1.7,1.7,0,0,0-1.2.15,1.18,1.18,0,0,0-.43,1.4,3.06,3.06,0,0,0,1.45,1.06,6.35,6.35,0,0,0,1.91.24C94.63,176.11,95.06,175.6,95,175.25Z"/><path class="cls-48" d="M94.22,175.28c0-.06.16-.06,0-.25a5.43,5.43,0,0,0-.8-.75,2.52,2.52,0,0,0-1-.48,1.09,1.09,0,0,0-.76.1.73.73,0,0,0-.28.89,1,1,0,0,0,.67.52,6.84,6.84,0,0,0,1.87.26.36.36,0,0,0,.25-.13A.49.49,0,0,0,94.22,175.28Z"/><path class="cls-49" d="M94.06,175.22c0-.05.14-.05,0-.21a6.08,6.08,0,0,0-.72-.64,2.22,2.22,0,0,0-.86-.42.92.92,0,0,0-.66.07.6.6,0,0,0-.23.75,1,1,0,0,0,.6.44,6.44,6.44,0,0,0,1.64.25.33.33,0,0,0,.21-.11A.32.32,0,0,0,94.06,175.22Z"/><path class="cls-50" d="M93.79,175.13s.1,0,0-.15a4,4,0,0,0-.59-.49,2,2,0,0,0-.68-.33.75.75,0,0,0-.52.05.4.4,0,0,0-.15.55.85.85,0,0,0,.48.34,5.88,5.88,0,0,0,1.29.21.34.34,0,0,0,.17-.08A.32.32,0,0,0,93.79,175.13Z"/><path class="cls-51" d="M92.67,174.4c.13,0-.23-.16-.34-.18a.35.35,0,0,0-.28.07.36.36,0,0,0-.13.38c0,.09.2.3.22.2C92.21,174.6,92.22,174.41,92.67,174.4Z"/><path class="cls-46" d="M135.2,177.8a1.11,1.11,0,0,0-.74-.61,2.65,2.65,0,0,0-1-.13c-1.21.07-1.47.61-1.55.81a.91.91,0,0,0,.4,1.1,2.1,2.1,0,0,0,1.42.13,4,4,0,0,0,1.15-.43A.69.69,0,0,0,135.2,177.8Z"/><path class="cls-47" d="M135.05,177.83a1.85,1.85,0,0,0-.88-.3,3.17,3.17,0,0,0-1.17.09.9.9,0,0,0-.55.43.68.68,0,0,0,.25.83,1.91,1.91,0,0,0,1.1.11,3.81,3.81,0,0,0,1-.44A.49.49,0,0,0,135.05,177.83Z"/><path class="cls-48" d="M134.68,178.06s.06-.08-.08-.13a3.94,3.94,0,0,0-.66-.14,1.55,1.55,0,0,0-.65,0,.59.59,0,0,0-.35.28.43.43,0,0,0,.16.53.65.65,0,0,0,.52.06,4.22,4.22,0,0,0,1-.41.25.25,0,0,0,.08-.15A.38.38,0,0,0,134.68,178.06Z"/><path class="cls-49" d="M134.58,178.08s0-.07-.07-.11a3.54,3.54,0,0,0-.58-.11,1.33,1.33,0,0,0-.57,0,.52.52,0,0,0-.32.23.36.36,0,0,0,.14.44.64.64,0,0,0,.46.05,3.79,3.79,0,0,0,.91-.35s.08-.1.07-.12A.32.32,0,0,0,134.58,178.08Z"/><path class="cls-50" d="M134.41,178.11s0,0,0-.07a2.56,2.56,0,0,0-.46-.08,1.39,1.39,0,0,0-.46,0,.45.45,0,0,0-.25.17.25.25,0,0,0,.11.33.54.54,0,0,0,.36,0,3.25,3.25,0,0,0,.73-.28s.06-.07.05-.09S134.41,178.11,134.41,178.11Z"/><path class="cls-51" d="M133.59,178.07c.07,0-.16,0-.23,0a.21.21,0,0,0-.12.11.24.24,0,0,0,.07.23s.21.09.18,0S133.38,178.21,133.59,178.07Z"/><path class="cls-46" d="M117.13,173.05c.06-.47-.31-.85-.72-1.18a4.76,4.76,0,0,0-1.44-.77c-1.93-.63-2.72-.13-3,.06a1.06,1.06,0,0,0-.16,1.59,4,4,0,0,0,2.1,1,8.59,8.59,0,0,0,2.1.16A1.05,1.05,0,0,0,117.13,173.05Z"/><path class="cls-47" d="M116.88,173a3,3,0,0,0-1.16-.9,6.46,6.46,0,0,0-1.89-.59,1.93,1.93,0,0,0-1.16.2.81.81,0,0,0-.2,1.17,3.72,3.72,0,0,0,1.62.78,7.57,7.57,0,0,0,1.93.09C116.67,173.72,117,173.28,116.88,173Z"/><path class="cls-48" d="M116.13,173.06c0-.05.15-.06,0-.2a5.5,5.5,0,0,0-.92-.57,2.82,2.82,0,0,0-1-.34,1.22,1.22,0,0,0-.75.12.52.52,0,0,0-.13.75,1.31,1.31,0,0,0,.76.39,9.7,9.7,0,0,0,1.9.11c.09,0,.21-.09.22-.13A.42.42,0,0,0,116.13,173.06Z"/><path class="cls-49" d="M116,173s.13-.05,0-.17a5.91,5.91,0,0,0-.81-.49,2.78,2.78,0,0,0-.93-.29,1.15,1.15,0,0,0-.65.09.43.43,0,0,0-.1.63,1.21,1.21,0,0,0,.67.33,8.23,8.23,0,0,0,1.67.11c.07,0,.19-.07.19-.1A.28.28,0,0,0,116,173Z"/><path class="cls-50" d="M115.68,173s.1,0,0-.12a3.88,3.88,0,0,0-.66-.37,2.34,2.34,0,0,0-.74-.23.94.94,0,0,0-.51.06.3.3,0,0,0-.06.47,1,1,0,0,0,.54.25,8.17,8.17,0,0,0,1.32.1c.06,0,.14-.05.15-.08S115.68,173,115.68,173Z"/><path class="cls-51" d="M114.44,172.42c.14,0-.25-.11-.37-.12a.44.44,0,0,0-.27.07.25.25,0,0,0-.06.32c0,.07.25.24.26.15S114,172.46,114.44,172.42Z"/><path class="cls-46" d="M55.1,162.21a1.62,1.62,0,0,0-.35-1.54,5.27,5.27,0,0,0-1.29-1.29c-1.88-1.31-2.93-1-3.31-.9a1.26,1.26,0,0,0-.76,1.7A4.41,4.41,0,0,0,51.31,162a9.93,9.93,0,0,0,2.24.85A1.28,1.28,0,0,0,55.1,162.21Z"/><path class="cls-47" d="M54.85,162.06a3.45,3.45,0,0,0-.94-1.35,7.06,7.06,0,0,0-1.85-1.24,2.12,2.12,0,0,0-1.34-.16,1,1,0,0,0-.66,1.22,4.1,4.1,0,0,0,1.49,1.38,9.22,9.22,0,0,0,2.08.71C54.36,162.79,54.89,162.42,54.85,162.06Z"/><path class="cls-48" d="M54,161.9c0-.06.19,0,0-.24a7.32,7.32,0,0,0-.8-.92,3.26,3.26,0,0,0-1-.7,1.38,1.38,0,0,0-.86-.11.62.62,0,0,0-.42.78,1.36,1.36,0,0,0,.69.67,9.67,9.67,0,0,0,2,.73A.46.46,0,0,0,54,162,.31.31,0,0,0,54,161.9Z"/><path class="cls-49" d="M53.83,161.8c0-.05.16,0,0-.2a6.79,6.79,0,0,0-.72-.79,3.09,3.09,0,0,0-.9-.62,1.25,1.25,0,0,0-.74-.11.51.51,0,0,0-.35.66,1.31,1.31,0,0,0,.61.57,8.82,8.82,0,0,0,1.79.66.36.36,0,0,0,.25-.05A.35.35,0,0,0,53.83,161.8Z"/><path class="cls-50" d="M53.54,161.64s.13,0,0-.14a4.09,4.09,0,0,0-.59-.62,2.52,2.52,0,0,0-.72-.48,1,1,0,0,0-.58-.1.35.35,0,0,0-.24.49,1.12,1.12,0,0,0,.5.45,8.44,8.44,0,0,0,1.41.53.27.27,0,0,0,.19,0A.34.34,0,0,0,53.54,161.64Z"/><path class="cls-51" d="M52.39,160.66c.15,0-.23-.21-.36-.26a.5.5,0,0,0-.32,0,.31.31,0,0,0-.19.33c0,.1.19.34.23.25S51.89,160.56,52.39,160.66Z"/><path class="cls-46" d="M53,154.88a1.41,1.41,0,0,0-.24-1.36,4.34,4.34,0,0,0-1.07-1.19c-1.6-1.23-2.53-1-2.87-.92a1.11,1.11,0,0,0-.75,1.46,3.86,3.86,0,0,0,1.61,1.63,8.19,8.19,0,0,0,1.93.83A1.14,1.14,0,0,0,53,154.88Z"/><path class="cls-47" d="M52.79,154.74a2.85,2.85,0,0,0-.76-1.23,6.09,6.09,0,0,0-1.56-1.16,1.84,1.84,0,0,0-1.17-.19.84.84,0,0,0-.63,1,3.36,3.36,0,0,0,1.23,1.27,7.67,7.67,0,0,0,1.8.71C52.33,155.36,52.82,155.05,52.79,154.74Z"/><path class="cls-48" d="M52.06,154.56c0-.05.16,0,0-.2a5.8,5.8,0,0,0-.66-.84,2.83,2.83,0,0,0-.86-.66,1.27,1.27,0,0,0-.75-.13.54.54,0,0,0-.4.67A1.14,1.14,0,0,0,50,154a8.38,8.38,0,0,0,1.76.72c.08,0,.23,0,.25,0A.27.27,0,0,0,52.06,154.56Z"/><path class="cls-49" d="M51.91,154.47s.14,0,0-.18a5.23,5.23,0,0,0-.59-.72,2.75,2.75,0,0,0-.76-.58,1.11,1.11,0,0,0-.65-.12.43.43,0,0,0-.33.56,1.07,1.07,0,0,0,.51.53,7.65,7.65,0,0,0,1.54.65.32.32,0,0,0,.21,0A.17.17,0,0,0,51.91,154.47Z"/><path class="cls-50" d="M51.67,154.32s.1,0,0-.13a4.43,4.43,0,0,0-.49-.56,2.39,2.39,0,0,0-.61-.46.87.87,0,0,0-.51-.1.31.31,0,0,0-.23.42.92.92,0,0,0,.42.41,7.16,7.16,0,0,0,1.21.52.22.22,0,0,0,.17,0A.45.45,0,0,0,51.67,154.32Z"/><path class="cls-51" d="M50.7,153.41c.13,0-.19-.2-.3-.24a.39.39,0,0,0-.28,0,.27.27,0,0,0-.19.28c0,.09.15.31.19.23S50.27,153.3,50.7,153.41Z"/><path class="cls-46" d="M122.44,178a1.66,1.66,0,0,0-1-1.06,4.22,4.22,0,0,0-1.49-.39c-1.86-.1-2.37.68-2.54,1a1.4,1.4,0,0,0,.39,1.76,3.31,3.31,0,0,0,2.13.45,6.15,6.15,0,0,0,1.85-.46A1.07,1.07,0,0,0,122.44,178Z"/><path class="cls-47" d="M122.2,178a2.77,2.77,0,0,0-1.29-.61,4.8,4.8,0,0,0-1.8-.07,1.45,1.45,0,0,0-.93.56,1,1,0,0,0,.22,1.31,3,3,0,0,0,1.65.36,5.66,5.66,0,0,0,1.68-.48C122.27,178.81,122.42,178.23,122.2,178Z"/><path class="cls-48" d="M121.59,178.27c0-.06.1-.11-.09-.22a5.87,5.87,0,0,0-1-.33,2.33,2.33,0,0,0-1-.05.9.9,0,0,0-.59.35.66.66,0,0,0,.14.84,1,1,0,0,0,.77.19,6.67,6.67,0,0,0,1.67-.45c.06,0,.15-.15.14-.2A.34.34,0,0,0,121.59,178.27Z"/><path class="cls-49" d="M121.43,178.27s.09-.09-.08-.17a4.57,4.57,0,0,0-.86-.28,2.09,2.09,0,0,0-.89,0,.84.84,0,0,0-.52.29.54.54,0,0,0,.12.71,1,1,0,0,0,.68.15,5.91,5.91,0,0,0,1.47-.38.29.29,0,0,0,.13-.17A.61.61,0,0,0,121.43,178.27Z"/><path class="cls-50" d="M121.17,178.3s.07-.07-.07-.13a4.56,4.56,0,0,0-.69-.2,1.67,1.67,0,0,0-.7,0,.66.66,0,0,0-.42.22.37.37,0,0,0,.11.51.84.84,0,0,0,.54.11,5.29,5.29,0,0,0,1.16-.29.21.21,0,0,0,.11-.12A.56.56,0,0,0,121.17,178.3Z"/><path class="cls-51" d="M119.93,178.09c.11-.06-.25-.06-.35,0a.34.34,0,0,0-.21.16.33.33,0,0,0,0,.36c.06.07.29.18.27.08S119.57,178.26,119.93,178.09Z"/><path class="cls-46" d="M129,174.07a1.44,1.44,0,0,0-.85-1,3.57,3.57,0,0,0-1.3-.4c-1.65-.15-2.13.52-2.3.76a1.25,1.25,0,0,0,.28,1.57,2.87,2.87,0,0,0,1.87.48,5.41,5.41,0,0,0,1.66-.34A1,1,0,0,0,129,174.07Z"/><path class="cls-47" d="M128.78,174.07a2.54,2.54,0,0,0-1.12-.59,4.21,4.21,0,0,0-1.6-.12,1.32,1.32,0,0,0-.85.45.94.94,0,0,0,.14,1.18,2.68,2.68,0,0,0,1.45.38,5.38,5.38,0,0,0,1.51-.37C128.8,174.81,129,174.31,128.78,174.07Z"/><path class="cls-48" d="M128.22,174.31c0-.05.09-.09-.08-.19a5.16,5.16,0,0,0-.85-.34,2.12,2.12,0,0,0-.89-.08.87.87,0,0,0-.54.29.59.59,0,0,0,.09.76.94.94,0,0,0,.68.19,5.54,5.54,0,0,0,1.49-.34.18.18,0,0,0,.1-.29Z"/><path class="cls-49" d="M128.07,174.31s.09-.08-.06-.16a4.79,4.79,0,0,0-.75-.28,1.94,1.94,0,0,0-.78-.07.7.7,0,0,0-.48.25.46.46,0,0,0,.08.62.88.88,0,0,0,.6.17,5.5,5.5,0,0,0,1.31-.29c.06,0,.13-.1.12-.14A.25.25,0,0,0,128.07,174.31Z"/><path class="cls-50" d="M127.84,174.32s.07-.06,0-.12a3.81,3.81,0,0,0-.6-.2,1.66,1.66,0,0,0-.62,0,.59.59,0,0,0-.38.18.32.32,0,0,0,.07.46.69.69,0,0,0,.47.11,4.41,4.41,0,0,0,1-.21.19.19,0,0,0,.09-.11A.24.24,0,0,0,127.84,174.32Z"/><path class="cls-51" d="M126.75,174.09c.11,0-.22-.06-.31,0a.26.26,0,0,0-.19.12.31.31,0,0,0,0,.33c0,.06.26.17.24.08S126.43,174.23,126.75,174.09Z"/><path class="cls-46" d="M101.76,171.51a1.43,1.43,0,0,0-.5-1.24,3.54,3.54,0,0,0-1.15-.81c-1.59-.67-2.31-.16-2.57,0a1.3,1.3,0,0,0-.3,1.65,2.9,2.9,0,0,0,1.69,1.07,5.93,5.93,0,0,0,1.78.19A1.08,1.08,0,0,0,101.76,171.51Z"/><path class="cls-47" d="M101.55,171.45a2.46,2.46,0,0,0-.9-.95,4.54,4.54,0,0,0-1.55-.62,1.44,1.44,0,0,0-1,.19,1,1,0,0,0-.29,1.22,2.58,2.58,0,0,0,1.3.83,5,5,0,0,0,1.64.11C101.3,172.2,101.64,171.75,101.55,171.45Z"/><path class="cls-48" d="M100.9,171.51s.14-.06,0-.21a4.41,4.41,0,0,0-.73-.6,2.16,2.16,0,0,0-.86-.37.88.88,0,0,0-.64.13.63.63,0,0,0-.19.78.93.93,0,0,0,.61.41,6.3,6.3,0,0,0,1.61.13.34.34,0,0,0,.2-.13A.31.31,0,0,0,100.9,171.51Z"/><path class="cls-49" d="M100.76,171.47s.12-.05,0-.18a4.21,4.21,0,0,0-.65-.51,2,2,0,0,0-.76-.32.85.85,0,0,0-.57.09.52.52,0,0,0-.14.66.88.88,0,0,0,.53.35,6.36,6.36,0,0,0,1.42.13c.06,0,.16-.07.17-.11A.19.19,0,0,0,100.76,171.47Z"/><path class="cls-50" d="M100.53,171.41s.09,0,0-.14a6.16,6.16,0,0,0-.53-.39,1.85,1.85,0,0,0-.61-.24.65.65,0,0,0-.44.06.36.36,0,0,0-.1.48.7.7,0,0,0,.44.27,4.91,4.91,0,0,0,1.12.12.21.21,0,0,0,.13-.08A.2.2,0,0,0,100.53,171.41Z"/><path class="cls-51" d="M99.52,170.83c.12,0-.2-.12-.3-.13a.33.33,0,0,0-.23.07.32.32,0,0,0-.09.34c0,.07.19.24.2.15S99.15,170.87,99.52,170.83Z"/><path class="cls-46" d="M139.71,172.76a1.16,1.16,0,0,0-.66-.79,2.72,2.72,0,0,0-1-.34c-1.31-.15-1.7.37-1.84.56a1,1,0,0,0,.19,1.26,2.26,2.26,0,0,0,1.48.41,4,4,0,0,0,1.32-.24A.76.76,0,0,0,139.71,172.76Z"/><path class="cls-47" d="M139.55,172.76a2,2,0,0,0-.88-.49,3.53,3.53,0,0,0-1.27-.13,1,1,0,0,0-.69.35.74.74,0,0,0,.09.94,2.16,2.16,0,0,0,1.14.33,4.39,4.39,0,0,0,1.21-.27A.55.55,0,0,0,139.55,172.76Z"/><path class="cls-48" d="M139.09,172.94s.09-.07-.05-.15a3.66,3.66,0,0,0-.67-.28,1.78,1.78,0,0,0-.71-.09.73.73,0,0,0-.44.23.48.48,0,0,0,.06.6.72.72,0,0,0,.54.17,4.45,4.45,0,0,0,1.19-.25.25.25,0,0,0,.12-.13A.64.64,0,0,0,139.09,172.94Z"/><path class="cls-49" d="M139,172.94s.07-.06,0-.13a3.16,3.16,0,0,0-.59-.23,1.5,1.5,0,0,0-.62-.07.65.65,0,0,0-.39.18.38.38,0,0,0,.06.5.65.65,0,0,0,.47.14,3.9,3.9,0,0,0,1-.2s.1-.08.1-.11A.22.22,0,0,0,139,172.94Z"/><path class="cls-50" d="M138.8,172.94s0,0,0-.09a2.92,2.92,0,0,0-.48-.17,1.41,1.41,0,0,0-.49-.05.53.53,0,0,0-.31.14.26.26,0,0,0,.05.37.61.61,0,0,0,.38.1,4.46,4.46,0,0,0,.83-.15.16.16,0,0,0,.08-.09A.2.2,0,0,0,138.8,172.94Z"/><path class="cls-51" d="M137.93,172.74c.09,0-.17-.05-.24,0a.21.21,0,0,0-.16.1.25.25,0,0,0,0,.26c0,.05.2.14.19.07S137.67,172.85,137.93,172.74Z"/><path class="cls-52" d="M65.84,127.26a61,61,0,0,1,16.76.66A93.16,93.16,0,0,1,109,136.43a120.79,120.79,0,0,1,25.62,17.24c5,4.54,14.52,12.2,5.76,15.29-6,2.11-22.1,2.3-35.86-.23a202.86,202.86,0,0,1-43.44-12.66c-10.16-4.41-19-10.18-20.51-15.56s3.77-7.49,7.51-8.9c1.29-.49,4.2-1.46,5.42-1.91A48.4,48.4,0,0,1,65.84,127.26Z"/><path class="cls-53" d="M64.62,128.28a65.32,65.32,0,0,1,17,.5c6.22,1.17,15.71,3.08,25,7.88,9.7,4.78,18,11.23,23.12,15.31,2.78,2.21,15.41,11.71,9.78,14.89-6.76,3.82-23.9,1.95-40.15-1.2-15.79-3.17-23-5.79-36.06-11.21-9.55-4.17-18.18-9.11-19.82-14.1-1.72-5.6,6-8.11,9.27-9.1C56.59,130.1,60.55,128.74,64.62,128.28Z"/><path class="cls-54" d="M73.58,132.65c4.21-.73,6.81-3.41,6.28-4.8.81.54,1.89,4-4,6.19C75.23,133.7,74.64,133.22,73.58,132.65Z"/><path class="cls-54" d="M55.38,136.21c-3,1.18-10.78,1-13.48.38.8.44,8.78,2.09,15.59.81C57,137.08,56.2,136.74,55.38,136.21Z"/><path class="cls-54" d="M57.69,138.87c-2.54,1.92-10.37,3.07-13.32,2.86,1,.37,9.6.86,15.85-1.84C59.63,139.6,58.7,139.34,57.69,138.87Z"/><path class="cls-54" d="M60.13,141.17c-1,2.42-10.2,6.21-12.9,6.37,3.05.39,12-1.47,15.69-5.23C62.23,142.07,61.29,141.55,60.13,141.17Z"/><path class="cls-54" d="M79.66,135.22c5.22,0,12.66-3.2,12.9-4.41.6.55-2.54,4.68-11.73,5.62C80.3,136.07,80.5,135.84,79.66,135.22Z"/><path class="cls-54" d="M85,138.5c7.31.84,17.18-1.81,19.69-2.74-3.43,2.69-11.72,3.83-18.68,3.72C85.48,139.11,85.88,139.12,85,138.5Z"/><path class="cls-54" d="M89.38,141.81c7.45.83,21,.14,26.27-1.1-6.15,2.91-19.38,2.54-25.22,2.07C89.87,142.42,90.27,142.43,89.38,141.81Z"/><path class="cls-54" d="M92.37,143.87a163.05,163.05,0,0,0,22.74.84,96.94,96.94,0,0,1-21.66.13C92.87,144.47,93.28,144.49,92.37,143.87Z"/><path class="cls-54" d="M102.11,150.18a161.2,161.2,0,0,0,22,1.74c-9.15.77-14.75-.11-20.23-.75C103.35,150.8,103,150.8,102.11,150.18Z"/><path class="cls-54" d="M125.63,161.4a11.31,11.31,0,0,1-1.28-.43A110.27,110.27,0,0,0,142,162.88a69.18,69.18,0,0,1-15.61-.77A.93.93,0,0,0,125.63,161.4Z"/><path class="cls-54" d="M109.28,154.35c7.74,1.36,17.79,1.46,25.65,1.53a108.53,108.53,0,0,1-24-.6C110.38,154.91,110.22,155,109.28,154.35Z"/><path class="cls-54" d="M99.19,148.36c7.73.82,21.52,1.91,29.29,1.44-10.84,1.37-22.12,0-28.17-.47C99.71,149,100.13,149,99.19,148.36Z"/><path class="cls-54" d="M97.81,146.24a41.13,41.13,0,0,0,11,.94,37.57,37.57,0,0,1-9.86,0C98.32,146.85,98.74,146.85,97.81,146.24Z"/><path class="cls-54" d="M105.32,152.13c2.65.72,9.36,1.41,14.48,1.59a54,54,0,0,1-12.78-.53C106.41,152.83,106.3,152.75,105.32,152.13Z"/><path class="cls-54" d="M112.67,156a136.5,136.5,0,0,0,15,1.8,65.69,65.69,0,0,1-13.49-.89C113.54,156.59,113.63,156.66,112.67,156Z"/><path class="cls-54" d="M117.24,158.48a135.83,135.83,0,0,0,14.89,1.43,54.53,54.53,0,0,1-12.49-.51A23.07,23.07,0,0,1,117.24,158.48Z"/><path class="cls-54" d="M131.78,164.11a4.26,4.26,0,0,0-1.39-.53h0l-.24-.15a78.68,78.68,0,0,0,12.72,1.37,39.73,39.73,0,0,1-10.79-.5A1.26,1.26,0,0,0,131.78,164.11Z"/><path class="cls-54" d="M132.6,165.3a1.42,1.42,0,0,0,.08-.18,53.16,53.16,0,0,0,9.73,2,28.87,28.87,0,0,1-9.92-1.51l-.09-.06A1.07,1.07,0,0,0,132.6,165.3Z"/><path class="cls-54" d="M125.33,165c1.84,1.17,4.44,2.74,4.61,4.07.95-1.25-.41-2.57-2.53-3.6C126.67,165.24,126.57,165.24,125.33,165Z"/><path class="cls-54" d="M112.47,159.62c1.75,1.17,9.78,7.85,9.57,10,2.3-2.39-4.59-7.87-6.62-8.9C114.71,160.55,113.67,159.91,112.47,159.62Z"/><path class="cls-54" d="M88.9,151.65c1.57,1.17,10.91,11.82,10.5,14,2.47-2.4-4.75-11.21-7.72-13.2C91,152.28,90,151.94,88.9,151.65Z"/><path class="cls-54" d="M101.13,155.26c1.65,1.17,8.77,6.82,9.82,9.51,1.4-2.76-5.46-7.45-6.63-8.25C103.63,156.33,102.28,155.55,101.13,155.26Z"/><path class="cls-54" d="M83.47,149.63c1.41,1.18,7.31,6.86,7.78,9.5,2-2.66-3.85-7.39-4.85-8.2C85.75,150.74,84.56,149.94,83.47,149.63Z"/><path class="cls-54" d="M68.28,145.68c1.37,1.84.54,8.39-2.44,10.29,5.35-1.57,6.44-7.66,5.06-9.36C70.35,146.36,69.21,146.08,68.28,145.68Z"/><path class="cls-54" d="M93.84,153.12c2.52,1.52,10,8.74,10.62,11.75C106.25,162,99,155,97.06,154,96.39,153.77,95,153.41,93.84,153.12Z"/><path class="cls-54" d="M78.71,148.81c2.23,1.55,10.09,12.23,9,14.89,3.84-3.85-4.35-13.23-6-14.29C81,149.22,79.79,149.12,78.71,148.81Z"/><path class="cls-54" d="M72.11,146.77c2.66,2,7.88,11.2,7.12,14.39C82,157,77.69,149.88,75,147.37,74.34,147.18,73.17,147.08,72.11,146.77Z"/><path class="cls-54" d="M63.84,142.48c1.29,2-5.19,7.79-8.78,10.23,6.49-2.91,12.34-6.91,11.4-9.32C65.93,143.14,64.74,142.89,63.84,142.48Z"/><path class="cls-54" d="M128.68,165.43c1.86,1.16,4.48,2.74,4.67,4.06.94-1.24-.45-2.57-2.59-3.59C130,165.72,129.92,165.72,128.68,165.43Z"/><path class="cls-54" d="M67.48,145.61c2.57,1,9,2.85,14,4.33s12.84,3.58,17.68,5,15.84,6,21.22,8.2,9,3.31,11.91,3.55,2.49-1.38.69-2.41c-1.26-.74-7.43-3.83-11-5.28a166.8,166.8,0,0,1-24-13.06c-4.38-3.12-8.87-5.92-12.44-8.28a74.37,74.37,0,0,0-13.23-6.91,34,34,0,0,0-11.61-2.28c-2-.1-5.08.46-9.08,2.36-.75.35-1.6,2.33.62,4.83C53.47,137,57.86,141.64,67.48,145.61Zm-3.65-5.11c-3.11-1.81-7.53-5.4-8.3-6.83s.37-3.12.35-3.51c1.09.22,1.31-.49,1.31-.49s8.66.88,12.2,2A50.05,50.05,0,0,1,82,137.55c4.66,2.71,7,4.4,9.94,6.44s8.44,5.48,12.84,8a162.91,162.91,0,0,0,18.75,9.29c6.53,2.54,9.43,3,8,4.14-.47.35-4.2-.54-8.86-2.42-3.35-1.37-6.94-2.69-11.23-4.5-2.91-1.25-12.06-4.68-18.85-6.93-4.28-1.45-10.61-3.27-15.28-5A119.39,119.39,0,0,1,63.83,140.5Z"/><path class="cls-55" d="M64.5,131.57c.72.44,7.26,4.38,11.87,7.21,1.84,1.1,27.24,13.26,23.92,13.12-2,0-27.5-10.77-28.37-11.13-5.65-2.41-12.3-4.73-16.39-7.1-2.57-1.52-2.45-2.93-2.45-2.93a47.71,47.71,0,0,1,5.56-1.4C59.08,129.54,60.6,129.13,64.5,131.57Z"/><path class="cls-56" d="M74.22,138.86c2.69,1.67,17.31,8.49,16.7,8.72-.72,0-15.23-6.16-20.09-8.27-4-1.77-15.6-6.28-16.85-8.85a14.66,14.66,0,0,1,2.78-1C62.43,130.93,68.71,135.34,74.22,138.86Z"/><path class="cls-56" d="M68.94,145.08c2.58,1,7.89,3,12.82,4.44s12.63,3.78,17.47,5.19,15.89,6,21.27,8.19,8.85,3.13,10.11,3.27c3,.35,2.93-1.33,1.41-2.08s-4.14-2.17-7.74-3.62c-4.29-1.74-19.34-9-26.92-14.25-4.37-3.12-9-5.9-12.73-8.22a71.7,71.7,0,0,0-12.12-6.3,45,45,0,0,0-13-2.92A17,17,0,0,0,53.74,130c-3.44,1.29-1.39,4,.12,5.84C55,137.19,59.31,141.11,68.94,145.08Zm-6.38-4.32c-3.11-1.81-7.19-4.78-8.13-6.67-1.73-3.59,2.94-4.89,5.63-4.53,11.39,1.5,18.23,5.4,23.73,8.6a124.87,124.87,0,0,1,11.57,7.36c3,2,6.84,4.42,11.27,6.9A155.44,155.44,0,0,0,124,160.69c6.52,2.55,9.47,4.16,8.42,4.81-.8.49-2.89.48-9.9-2.23-3.41-1.35-7.43-2.83-11.8-4.61-4.19-1.73-11-4.31-19-6.78-4.36-1.38-10.49-3.32-15.27-5A98.6,98.6,0,0,1,62.56,140.76Z"/><path class="cls-57" d="M54,152.65a97.51,97.51,0,0,0,10.83,2.88A80.5,80.5,0,0,0,79.3,159c4.73.75,9.49,1.47,14.25,2.07a80.46,80.46,0,0,0,12.7.79c4.42-.16,9-.83,12.88-2.86a13.85,13.85,0,0,0,7.53-10c0-.19.06-1.58.09-1.78.25-.19.52.81.77.62,2.78,2.07,5.19,4,7.08,5.77,5,4.54,14.52,12.2,5.76,15.29-6,2.11-22.1,2.3-35.86-.23a202.86,202.86,0,0,1-43.44-12.66c-2.47-1.07-4.86-2.22-7.08-3.43Z"/><path class="cls-58" d="M104.45,169a204.15,204.15,0,0,1-43.52-12.68c-11.78-5.12-19.31-10.85-20.66-15.74-1.47-5.76,4.48-8,7.68-9.21.73-.27,1.95-.7,3.14-1.11.9-.31,1.76-.6,2.28-.8A48.12,48.12,0,0,1,65.82,127c1.71-.17,3.46-.27,5.2-.29a60.41,60.41,0,0,1,11.63,1,93.23,93.23,0,0,1,26.46,8.53,121.28,121.28,0,0,1,25.69,17.29l1.15,1c3.78,3.38,9,8,8.18,11.47-.3,1.39-1.54,2.48-3.67,3.23-2.73,1-7.54,1.55-13.55,1.63h0A120.54,120.54,0,0,1,104.45,169ZM65.87,127.52A47.7,47.7,0,0,0,53.58,130l-2.29.8c-1.18.41-2.4.83-3.13,1.11-4.21,1.58-8.59,3.68-7.34,8.58,1.31,4.73,8.73,10.34,20.35,15.39a203.34,203.34,0,0,0,43.39,12.64,120.22,120.22,0,0,0,22.35,1.84c5.85-.08,10.72-.66,13.35-1.59q2.91-1,3.32-2.84c.7-3.18-4.34-7.69-8-11l-1.15-1a120.2,120.2,0,0,0-25.56-17.2,92.45,92.45,0,0,0-26.3-8.48A59.24,59.24,0,0,0,71,127.24C69.31,127.26,67.57,127.36,65.87,127.52Z"/><path class="cls-59" d="M39.67,141.92c-.82.77-2.68,6.3-2.06,7.36,3.91,7.22,27.31,21,50.71,21C72.89,167.52,44.65,151.68,39.67,141.92Z"/><path class="cls-23" d="M261.85,149.74c-1.66-6.31-7.19-7.39-11.27-8.48-2.57-.68-6.88-3.74-7.35-4.07s-4.55-3.66-5.79-5.86c-2-3.49-4.23-8.3-11.22-8.53s-17.16,2.38-24.73,14.59c-11.76,19-1.84,34.73,5.92,40.6s26.41,11.69,44.05-2.83C262.8,165.81,263.5,156,261.85,149.74Z"/><path class="cls-24" d="M248.15,141.77c2.21.54,4.42,2.47,3.44,4.46-1.15,2.33-3.47,5.26-7.55,4-6.47-2-7.95-6.92-14.7-8.83s-13.74.17-14.68-5.95,3-10.31,9.29-10.35c4.67,0,7.42-.3,12.64,7.82C241.5,140.58,248.12,141.77,248.15,141.77Z"/><path class="cls-25" d="M228.05,136c-1.24,1.41-3.82,1.36-5.76-.11s-2.51-3.8-1.27-5.21,3.81-1.36,5.75.11S229.28,134.63,228.05,136Z"/><path class="cls-26" d="M98.94,157.78a22.07,22.07,0,0,0,7.8,18.76c9.33,7.8,27,10.55,44.6,8.29,17.32-2.22,26.63-10.76,26.88-28.84C139.75,152.43,98.94,157.78,98.94,157.78Z"/><ellipse class="cls-25" cx="138.52" cy="157.23" rx="39.58" ry="21.04" transform="translate(-2.16 1.93) rotate(-0.79)"/><ellipse class="cls-26" cx="139.2" cy="157.92" rx="33.22" ry="17.65" transform="translate(-2.17 1.94) rotate(-0.79)"/><path class="cls-27" d="M143.81,157.91c-2.45-.81-3.64-2.36-2.87-3.86,1.79-3.52,2.5-7.49-1.22-7.49-2.41,0-3.18,4.14-3.07,7.56,0,1.46-1.62,2.8-4.2,3.36-6.36,1.36-12.41,4.27-11.11,5.8,1.1,1.3,7-.43,11.68-2.41a11.11,11.11,0,0,1,8.74.25c4.08,2.25,9.47,4.31,10.92,3.08S148.89,159.59,143.81,157.91Z"/><path class="cls-34" d="M354.42,90.83s0,48.3-41.81,50.73c-44.14,2.56-54.81-26.69-54.81-26.69,24.65,17.88,47.43,13.44,56.39,4.55,11.13-11,9.31-22.32,9.31-22.32l19.28-3.91Z"/><path class="cls-35" d="M342.78,93.19c-1.15,13.38-6.85,31-27.51,38.64-35.59,13.25-57.47-17-57.47-17,24.65,17.88,47.43,13.44,56.39,4.55,11.13-11,9.31-22.32,9.31-22.32Z"/><path class="cls-40" d="M367.19,182.31c-.06.13-.14.27-.21.4-2.85,4.88-8.42,2.67-15.73.47s-18.6,2.84-19.89-5.59a7.36,7.36,0,0,1,2.41-6.67c3.81-3.66,11.11-5.14,15.79-4.38C365.8,169.19,369.62,177.37,367.19,182.31Z"/><path class="cls-41" d="M367.19,182.31c-.06.13-.14.27-.21.4-2.85,4.88-8.42,2.67-15.73.47s-18.6,2.84-19.89-5.59a7.36,7.36,0,0,1,2.41-6.67c-.17,2.06.67,4.69,6,4.77,8.83.11,15.92,1.91,21.67,5.28A10.2,10.2,0,0,0,367.19,182.31Z"/><path class="cls-42" d="M342.22,169.91a2.31,2.31,0,0,0-2.33-.86,6.76,6.76,0,0,0-1.09.3,2.59,2.59,0,0,0-1.36.92,1.68,1.68,0,0,0-.1,1.73,2.39,2.39,0,0,0,3.19.93,8.19,8.19,0,0,0,1.33-.82A1.67,1.67,0,0,0,342.22,169.91Z"/><path class="cls-42" d="M346.18,169c-.7,0-1.43.37-1.48,1.05a1.22,1.22,0,0,0,1.19,1.28c.7,0,1.43-.36,1.48-1A1.24,1.24,0,0,0,346.18,169Z"/><path class="cls-26" d="M291.15,136.22A22.06,22.06,0,0,0,299,155c9.32,7.8,27,10.55,44.6,8.29,17.31-2.22,26.62-10.76,26.87-28.84C332,130.87,291.15,136.22,291.15,136.22Z"/><ellipse class="cls-25" cx="330.73" cy="135.67" rx="39.58" ry="21.04" transform="translate(-1.84 4.58) rotate(-0.79)"/><ellipse class="cls-26" cx="331.41" cy="136.36" rx="33.22" ry="17.65" transform="translate(-1.85 4.59) rotate(-0.79)"/><path class="cls-27" d="M336,136.35c-2.45-.81-3.63-2.36-2.87-3.86,1.8-3.52,2.5-7.49-1.22-7.49-2.41,0-3.18,4.14-3.07,7.56.06,1.46-1.62,2.81-4.19,3.36-6.37,1.36-12.42,4.27-11.12,5.8,1.1,1.3,7-.43,11.68-2.41a11.11,11.11,0,0,1,8.74.25c4.08,2.25,9.47,4.31,10.92,3.08S341.11,138,336,136.35Z"/><path class="cls-28" d="M84.55,175.56c.33.82-38.73-7.78-38.73-7.78L34.88,154.35l28.73-16.67,23.09-13.4,5.55,11.83S84.22,174.73,84.55,175.56Z"/><path class="cls-29" d="M84.55,175.56l-7.79-14L63.61,137.68l23.09-13.4,5.55,11.83S84.22,174.73,84.55,175.56Z"/><polygon class="cls-30" points="86.7 124.28 76.76 161.53 34.88 154.35 38.29 146.08 42.17 146.34 38.88 144.68 42.99 134.72 45.3 134.58 43.48 133.54 49.6 118.71 86.7 124.28"/><polygon class="cls-29" points="79.81 155.13 77.49 152.82 80.55 153.86 79.81 155.13"/><path class="cls-29" d="M85.35,141.52c-.1-.25-5.5-4-5.5-4l6.33,1.83Z"/><path class="cls-29" d="M61.79,128.07c-1.52.6-9,5.47-7.06,7.44S61.79,128.07,61.79,128.07Z"/><path class="cls-29" d="M68.93,134.23c-.6-.44.33,10.19,2.23,9.24S70.28,135.22,68.93,134.23Z"/><path class="cls-29" d="M61.69,143.58c-.27-.64-5.55,9-3.37,9S62.29,145,61.69,143.58Z"/><path class="cls-34" d="M86.14,111.77s15.43,46.32,56.34,38.11c43.14-8.66,44-39.39,44-39.39-17.91,23.35-41.17,24.83-52.62,18.56C119.67,121.28,117.79,110,117.79,110l-19.74,1.1Z"/><path class="cls-35" d="M98.05,111.1c5.39,12.55,16.49,28,38.76,30.12,38.38,3.75,49.67-30.73,49.67-30.73-17.91,23.35-41.17,24.83-52.62,18.56C119.67,121.28,117.79,110,117.79,110Z"/><path class="cls-36" d="M337.83,108c-.7,9.65,11.53,23.79,32.2,20.45,22.63-3.64,23-27.29,15.2-33.68C364.41,102.25,343.77,107.24,337.83,108Z"/><path class="cls-37" d="M337.83,108c-1.12,6.16,5.81,17,28.67,12.77,20.92-3.91,26.1-20.8,18.73-26-10.7-7.54-25.89,1.46-25.89,1.46S340.31,94.42,337.83,108Z"/><path class="cls-38" d="M360.73,98.56s-8.42-.51-12.78,1.79c-3.63,1.91-7.66,6.13-5.38,11.56s11.31,9.64,25.15,6.24,18.52-14.33,15.2-19.12-9-4.81-13.17-4.1A30.64,30.64,0,0,0,360.73,98.56Z"/><path class="cls-39" d="M355,108.16c.66,2.54,4.61,6.6,11.66,5.19s6.95-10.36,3.61-11.77-7.69,1.47-7.69,1.47S353.81,103.27,355,108.16Z"/><path class="cls-37" d="M368,103.19a7.55,7.55,0,0,0-4.28,3.63s-3-1.87-5.85-1,.34,6.56,7.32,4.83S371,102.24,368,103.19Z"/><path class="cls-36" d="M360.22,107.72c-.76.94.56,1.36,3,1.37C362.34,107.47,360.61,107.23,360.22,107.72Z"/><path class="cls-36" d="M367.66,105.89c1.2.46.31,1.42-1.8,2.57C365.7,106.65,367,105.65,367.66,105.89Z"/><path class="cls-28" d="M188.12,149.58c.34.83-38.72-7.78-38.72-7.78l-11-13.43,28.73-16.67,23.1-13.4,5.54,11.83S187.79,148.75,188.12,149.58Z"/><path class="cls-29" d="M188.12,149.58l-7.79-14L167.18,111.7l23.1-13.4,5.54,11.83S187.79,148.75,188.12,149.58Z"/><polygon class="cls-30" points="190.28 98.3 180.34 135.56 138.45 128.37 141.87 120.1 145.75 120.36 142.45 118.7 146.56 108.74 148.87 108.6 147.05 107.57 153.17 92.73 190.28 98.3"/><polygon class="cls-29" points="183.38 129.15 181.06 126.84 184.13 127.89 183.38 129.15"/><path class="cls-29" d="M188.92,115.54c-.1-.24-5.49-4-5.49-4l6.32,1.83Z"/><path class="cls-29" d="M165.36,102.09c-1.52.61-9,5.47-7.05,7.45S165.36,102.09,165.36,102.09Z"/><path class="cls-29" d="M172.51,108.25c-.61-.44.32,10.19,2.22,9.24S173.85,109.24,172.51,108.25Z"/><path class="cls-29" d="M165.27,117.61c-.27-.65-5.56,9-3.38,9S165.87,119.05,165.27,117.61Z"/><path class="cls-26" d="M386.73,120.24a22,22,0,0,0,7.8,18.76c9.33,7.8,27,10.55,44.6,8.29,17.31-2.22,26.62-10.76,26.87-28.84C427.53,114.89,386.73,120.24,386.73,120.24Z"/><ellipse class="cls-25" cx="426.3" cy="119.7" rx="39.58" ry="21.04" transform="translate(-1.61 5.9) rotate(-0.79)"/><ellipse class="cls-26" cx="426.99" cy="120.38" rx="33.22" ry="17.65" transform="translate(-1.62 5.91) rotate(-0.79)"/><path class="cls-27" d="M431.59,120.37c-2.44-.81-3.63-2.36-2.87-3.85,1.8-3.53,2.5-7.49-1.21-7.5-2.42,0-3.19,4.14-3.07,7.56.05,1.46-1.63,2.81-4.2,3.36-6.37,1.36-12.42,4.27-11.12,5.8,1.1,1.3,7-.43,11.69-2.41a11.09,11.09,0,0,1,8.73.25c4.09,2.25,9.47,4.31,10.92,3.08S436.68,122.05,431.59,120.37Z"/><path class="cls-31" d="M119.82,157.55c-1.3,3.89-13.67,10.78-18.27,11.69a4.66,4.66,0,0,1-.89.08c-5.52.19-20.27-5.1-22.68-9.35-2.56-4.5-3.7-16.95-.46-19.13,4.56-3.09,14.31-7.09,17.57-7.14l1,0c5,.32,21.7,2.79,23.5,4.17C121.5,139.39,121.11,153.67,119.82,157.55Z"/><path class="cls-32" d="M119.82,157.55c-1.3,3.89-13.67,10.78-18.27,11.69a4.66,4.66,0,0,1-.89.08c.38-4.23,1.2-9.06,1.67-15.89a26.69,26.69,0,0,0-6.28-19.7c5,.32,21.7,2.79,23.5,4.17C121.5,139.39,121.11,153.67,119.82,157.55Z"/><path class="cls-33" d="M119.55,137.9c-.71,4.22-11.6,12-19.82,11.37-5.39-.43-24.86-5.37-22.21-8.43,4.56-3.09,14.31-7.09,17.57-7.14S117.61,136.42,119.55,137.9Z"/><path class="cls-31" d="M222.39,131.57c-1.29,3.89-13.67,10.78-18.27,11.69a4.63,4.63,0,0,1-.88.08c-5.52.19-20.28-5.09-22.69-9.35-2.56-4.5-3.7-17-.46-19.13,4.57-3.09,14.31-7.09,17.58-7.14l1,0c5,.33,21.7,2.79,23.5,4.17S223.68,127.69,222.39,131.57Z"/><path class="cls-32" d="M222.39,131.57c-1.29,3.89-13.67,10.78-18.27,11.69a4.63,4.63,0,0,1-.88.08c.37-4.22,1.19-9.06,1.67-15.89a26.73,26.73,0,0,0-6.28-19.7c5,.33,21.7,2.79,23.5,4.17S223.68,127.69,222.39,131.57Z"/><path class="cls-33" d="M222.13,111.92c-.71,4.22-11.61,12-19.83,11.38-5.39-.44-24.86-5.38-22.21-8.44,4.57-3.09,14.31-7.09,17.58-7.14S220.18,110.44,222.13,111.92Z"/><path class="cls-40" d="M158.6,124.78a3.61,3.61,0,0,1,.16.42c1.84,5.23-3.93,7-10.94,9.93S136.68,148.5,129,143.26a7.65,7.65,0,0,1-3.57-6.24c-.17-4.93,3.91-10.44,7.89-12.76C147.16,116.25,156.42,119.77,158.6,124.78Z"/><path class="cls-41" d="M158.6,124.78a3.61,3.61,0,0,1,.16.42c1.84,5.23-3.93,7-10.94,9.93S136.68,148.5,129,143.26a7.65,7.65,0,0,1-3.57-6.24c1.52,1.58,4.22,2.95,8.14-.27,6.45-5.3,13-8.34,19.82-9.44A9.67,9.67,0,0,0,158.6,124.78Z"/><path class="cls-42" d="M130.75,131.15a2.34,2.34,0,0,0-2.36.8,5.39,5.39,0,0,0-.55.88,2,2,0,0,0-.24,1.49,2,2,0,0,0,1.3,1.3,2.34,2.34,0,0,0,3-1.28,6.18,6.18,0,0,0,.32-1.4A1.87,1.87,0,0,0,130.75,131.15Z"/><path class="cls-42" d="M132.85,128.06a1.11,1.11,0,0,0-.22,1.65,1.48,1.48,0,0,0,1.88.19,1.1,1.1,0,0,0,.22-1.64A1.48,1.48,0,0,0,132.85,128.06Z"/><path class="cls-31" d="M299.18,131c-3.77,2.35-18.33,1-22.56-.78a4.52,4.52,0,0,1-.76-.42c-4.43-2.86-12.18-15.05-11-19.7,1.21-4.93,9.18-15.32,13.26-15.27,5.76.06,16.21,2.24,18.79,4,.18.13.43.31.72.55,3.7,3,14.94,14,15.37,16.08C313.41,117.67,303,128.66,299.18,131Z"/><path class="cls-32" d="M299.18,131c-3.77,2.35-18.33,1-22.56-.78a4.52,4.52,0,0,1-.76-.42c3.3-3.11,7.39-6.46,12.61-11.56,7.44-7.25,9.1-14.81,9.12-18.88,3.7,3,14.94,14,15.37,16.08C313.41,117.67,303,128.66,299.18,131Z"/><path class="cls-33" d="M313,115.44c-3.56,2.92-17.62,3.11-23.56-1.88-3.9-3.28-15.57-17.77-11.32-18.73,5.76.06,16.21,2.24,18.79,4S312.5,113.21,313,115.44Z"/><path class="cls-36" d="M234.26,134c-.7,9.65,11.52,23.79,32.2,20.45,22.62-3.65,23-27.29,15.2-33.68C260.83,128.23,240.2,133.21,234.26,134Z"/><path class="cls-37" d="M234.26,134c-1.12,6.16,5.81,17,28.66,12.77,20.93-3.91,26.11-20.8,18.74-26-10.7-7.54-25.89,1.46-25.89,1.46S236.73,120.39,234.26,134Z"/><path class="cls-38" d="M257.15,124.54s-8.41-.51-12.77,1.79c-3.63,1.91-7.67,6.13-5.38,11.56s11.3,9.64,25.15,6.24,18.52-14.33,15.2-19.12-9-4.81-13.17-4.1A30.75,30.75,0,0,0,257.15,124.54Z"/><path class="cls-39" d="M251.41,134.14c.66,2.54,4.61,6.6,11.66,5.19S270,129,266.68,127.56,259,129,259,129,250.23,129.25,251.41,134.14Z"/><path class="cls-37" d="M264.42,129.17a7.52,7.52,0,0,0-4.27,3.63s-3-1.87-5.85-1,.34,6.56,7.31,4.83S267.44,128.22,264.42,129.17Z"/><path class="cls-36" d="M256.64,133.7c-.76.94.57,1.36,3.06,1.37C258.77,133.45,257,133.21,256.64,133.7Z"/><path class="cls-36" d="M264.09,131.87c1.2.46.31,1.42-1.81,2.57C262.12,132.63,263.46,131.63,264.09,131.87Z"/><path class="cls-34" d="M250.84,116.8s0,48.31-41.81,50.74c-44.13,2.55-54.8-26.69-54.8-26.69,24.65,17.87,47.43,13.44,56.39,4.54,11.12-11,9.31-22.31,9.31-22.31l19.27-3.91Z"/><path class="cls-35" d="M239.2,119.17c-1.14,13.38-6.85,31-27.5,38.64-35.6,13.25-57.47-17-57.47-17,24.65,17.87,47.43,13.44,56.39,4.54,11.12-11,9.31-22.31,9.31-22.31Z"/><path class="cls-34" d="M189.71,85.79s15.44,46.33,56.35,38.11c43.13-8.66,44-39.39,44-39.39-17.91,23.35-41.17,24.83-52.61,18.56-14.2-7.77-16.07-19-16.07-19l-19.74,1.1Z"/><path class="cls-35" d="M201.63,85.12c5.38,12.55,16.48,27.95,38.75,30.13,38.38,3.74,49.67-30.74,49.67-30.74-17.91,23.35-41.17,24.83-52.61,18.56-14.2-7.77-16.07-19-16.07-19Z"/><path class="cls-36" d="M107.24,150.13c-.69,9.65,11.53,23.78,32.2,20.45,22.63-3.65,23-27.29,15.2-33.68C133.82,144.38,113.19,149.37,107.24,150.13Z"/><path class="cls-37" d="M107.24,150.13c-1.12,6.16,5.81,17,28.67,12.76,20.92-3.91,26.1-20.8,18.73-26-10.7-7.54-25.88,1.46-25.88,1.46S109.72,136.55,107.24,150.13Z"/><path class="cls-38" d="M130.14,140.7s-8.41-.51-12.78,1.78c-3.63,1.92-7.66,6.14-5.38,11.56s11.31,9.65,25.15,6.25,18.53-14.34,15.2-19.12-9-4.81-13.17-4.1A30.64,30.64,0,0,0,130.14,140.7Z"/><path class="cls-39" d="M124.39,150.29c.66,2.55,4.62,6.6,11.66,5.2s7-10.36,3.62-11.77-7.7,1.47-7.7,1.47S123.22,145.41,124.39,150.29Z"/><path class="cls-37" d="M137.41,145.33a7.52,7.52,0,0,0-4.28,3.63s-3-1.87-5.85-1,.34,6.55,7.32,4.83S140.43,144.38,137.41,145.33Z"/><path class="cls-36" d="M129.63,149.86c-.76.94.56,1.35,3.05,1.37C131.76,149.61,130,149.37,129.63,149.86Z"/><path class="cls-36" d="M137.08,148c1.2.46.31,1.42-1.81,2.56C135.11,148.79,136.45,147.79,137.08,148Z"/><path class="cls-40" d="M304,160.6l-.46.19c-5.72,2.22-8.42-2.58-12.48-8.34s-16.41-8.09-11.31-15.35a9.29,9.29,0,0,1,6.68-3.85c5.58-.74,12.29,2.16,15.35,5.34C312.45,149.64,309.48,158.11,304,160.6Z"/><path class="cls-41" d="M304,160.6l-.46.19c-5.72,2.22-8.42-2.58-12.48-8.34s-16.41-8.09-11.31-15.35a9.29,9.29,0,0,1,6.68-3.85c-1.63,1.51-2.88,4,1.21,7.05,6.74,5,10.91,10.3,12.92,16.1A8.17,8.17,0,0,0,304,160.6Z"/><path class="cls-42" d="M293.72,137.14a1.86,1.86,0,0,0-1.17-1.95,6.81,6.81,0,0,0-1.07-.38,2.85,2.85,0,0,0-1.71,0,2,2,0,0,0-1.33,1.29,2,2,0,0,0,1.79,2.48,9.73,9.73,0,0,0,1.62.11A2,2,0,0,0,293.72,137.14Z"/><path class="cls-42" d="M297.45,138.61a1.52,1.52,0,0,0-1.89,0,1.08,1.08,0,0,0,0,1.66,1.5,1.5,0,0,0,1.89,0A1.07,1.07,0,0,0,297.45,138.61Z"/><path class="cls-31" d="M189.22,174.22C187.93,178.11,175.55,185,171,185.9a5.43,5.43,0,0,1-.88.09c-5.52.18-20.27-5.1-22.68-9.35-2.56-4.5-3.7-16.95-.47-19.14,4.57-3.09,14.32-7.09,17.58-7.13l1,0c5,.32,21.7,2.79,23.5,4.17S190.52,170.33,189.22,174.22Z"/><path class="cls-32" d="M189.22,174.22C187.93,178.11,175.55,185,171,185.9a5.43,5.43,0,0,1-.88.09c.37-4.23,1.2-9.06,1.67-15.89a26.73,26.73,0,0,0-6.28-19.7c5,.32,21.7,2.79,23.5,4.17S190.52,170.33,189.22,174.22Z"/><path class="cls-33" d="M189,154.57c-.71,4.21-11.61,12-19.83,11.37-5.39-.43-24.86-5.37-22.21-8.44,4.57-3.09,14.32-7.09,17.58-7.13S187,153.08,189,154.57Z"/><path class="cls-31" d="M407.08,138.39c.51,4-7.89,14.54-11.74,16.93a5.69,5.69,0,0,1-.78.38c-5,2-21,2.14-25.09-1-4.34-3.28-10.88-14.37-8.85-17.47,2.86-4.39,10.11-11.36,13.11-12.5a9.34,9.34,0,0,1,.9-.3c4.79-1.4,21.28-4.75,23.55-4.08C400.63,121.09,406.56,134.38,407.08,138.39Z"/><path class="cls-32" d="M407.08,138.39c.51,4-7.89,14.54-11.74,16.93a5.69,5.69,0,0,1-.78.38c-1.52-4-2.89-8.76-5.45-15.21a30.44,30.44,0,0,0-14.48-16c4.79-1.4,21.28-4.75,23.55-4.08C400.63,121.09,406.56,134.38,407.08,138.39Z"/><path class="cls-33" d="M398.18,120.38c1.2,4.12-5.43,15-13.32,17.16-5.17,1.42-25.34,3.43-24.24-.28,2.86-4.39,10.11-11.36,13.11-12.5S395.73,119.66,398.18,120.38Z"/><path class="cls-31" d="M303.5,164.37c.52,4-7.89,14.54-11.74,16.93a4.74,4.74,0,0,1-.78.38c-5,2-21,2.14-25.08-1-4.35-3.29-10.88-14.37-8.85-17.47,2.86-4.39,10.11-11.36,13.1-12.51l.9-.29c4.8-1.4,21.29-4.75,23.56-4.08C297.06,147.07,303,160.36,303.5,164.37Z"/><path class="cls-32" d="M303.5,164.37c.52,4-7.89,14.54-11.74,16.93a4.74,4.74,0,0,1-.78.38c-1.51-4-2.88-8.76-5.45-15.21a30.36,30.36,0,0,0-14.48-16c4.8-1.4,21.29-4.75,23.56-4.08C297.06,147.07,303,160.36,303.5,164.37Z"/><path class="cls-33" d="M294.61,146.36c1.2,4.12-5.43,15-13.32,17.16-5.17,1.42-25.34,3.43-24.24-.28,2.86-4.39,10.11-11.36,13.1-12.51S292.16,145.64,294.61,146.36Z"/><path class="cls-40" d="M183.07,199.15c-.06.13-.14.27-.21.4-2.85,4.88-8.42,2.67-15.73.47s-18.6,2.84-19.89-5.59a7.36,7.36,0,0,1,2.41-6.67c3.81-3.66,11.11-5.14,15.79-4.38C181.68,186,185.5,194.21,183.07,199.15Z"/><path class="cls-41" d="M183.07,199.15c-.06.13-.14.27-.21.4-2.85,4.88-8.42,2.67-15.73.47s-18.6,2.84-19.89-5.59a7.36,7.36,0,0,1,2.41-6.67c-.17,2.06.67,4.69,6,4.77,8.83.11,15.92,1.91,21.67,5.28A10.36,10.36,0,0,0,183.07,199.15Z"/><path class="cls-42" d="M158.1,186.75a2.31,2.31,0,0,0-2.33-.86,6.76,6.76,0,0,0-1.09.3,2.59,2.59,0,0,0-1.36.92,1.68,1.68,0,0,0-.1,1.73,2.38,2.38,0,0,0,3.19.92,8.14,8.14,0,0,0,1.33-.81A1.67,1.67,0,0,0,158.1,186.75Z"/><path class="cls-42" d="M162.06,185.81c-.7,0-1.43.36-1.48,1.05a1.23,1.23,0,0,0,1.19,1.28c.7,0,1.43-.36,1.48-1A1.23,1.23,0,0,0,162.06,185.81Z"/><path class="cls-40" d="M328.2,118.6c-.07.14-.14.28-.22.41-2.84,4.88-8.41,2.67-15.73.47s-18.6,2.84-19.88-5.59a7.36,7.36,0,0,1,2.41-6.67c3.8-3.66,11.11-5.14,15.79-4.38C326.81,105.49,330.63,113.67,328.2,118.6Z"/><path class="cls-41" d="M328.2,118.6c-.07.14-.14.28-.22.41-2.84,4.88-8.41,2.67-15.73.47s-18.6,2.84-19.88-5.59a7.36,7.36,0,0,1,2.41-6.67c-.17,2.06.66,4.69,6,4.76,8.83.12,15.93,1.92,21.68,5.29A10.25,10.25,0,0,0,328.2,118.6Z"/><path class="cls-42" d="M303.22,106.21a2.29,2.29,0,0,0-2.32-.86,6.49,6.49,0,0,0-1.09.3,2.55,2.55,0,0,0-1.36.92,1.66,1.66,0,0,0-.1,1.73,2.37,2.37,0,0,0,3.18.92,8.23,8.23,0,0,0,1.34-.81A1.66,1.66,0,0,0,303.22,106.21Z"/><path class="cls-42" d="M307.18,105.27c-.69,0-1.42.36-1.47,1a1.23,1.23,0,0,0,1.19,1.28c.7,0,1.43-.36,1.47-1A1.23,1.23,0,0,0,307.18,105.27Z"/><path class="cls-40" d="M407.62,134.62l-.46.19c-5.73,2.22-8.43-2.58-12.49-8.34s-16.41-8.09-11.31-15.35a9.29,9.29,0,0,1,6.68-3.85c5.58-.74,12.29,2.16,15.36,5.34C416,123.66,413.06,132.13,407.62,134.62Z"/><path class="cls-41" d="M407.62,134.62l-.46.19c-5.73,2.22-8.43-2.58-12.49-8.34s-16.41-8.09-11.31-15.35a9.29,9.29,0,0,1,6.68-3.85c-1.62,1.51-2.88,4,1.22,7,6.73,5,10.9,10.3,12.91,16.1A8.14,8.14,0,0,0,407.62,134.62Z"/><path class="cls-42" d="M397.29,111.16a1.86,1.86,0,0,0-1.17-2,5.54,5.54,0,0,0-1.06-.37,2.89,2.89,0,0,0-1.72,0,2,2,0,0,0-1.33,1.29,2,2,0,0,0,1.8,2.48,9.66,9.66,0,0,0,1.62.11A2,2,0,0,0,397.29,111.16Z"/><path class="cls-42" d="M401,112.63a1.53,1.53,0,0,0-1.9,0,1.09,1.09,0,0,0,0,1.66,1.52,1.52,0,0,0,1.9,0A1.08,1.08,0,0,0,401,112.63Z"/><path class="cls-60" d="M340.94,387.92c-9.31,10.34-41.94,18.73-78.2,19.65l-2.45.05A225.59,225.59,0,0,1,224,405.2c-20.5-3.08-37-6.44-45.83-12.49A27.13,27.13,0,0,1,175,390.2c-9-8.36,2.38-22,9.63-22.1l146.12-2c4.45-.06,10.38,4.75,12.4,10.57A10.78,10.78,0,0,1,340.94,387.92Z"/><path class="cls-3" d="M480.34,166.83c.17-1.4-23.48,69.89-206.81,75.46C49.09,249.12,31,171.61,31.15,173c-.13,3.61-.18,7.24-.13,10.88,0,2.86.14,5.73.3,8.57.34,6.4,1,12.72,1.91,19a206.35,206.35,0,0,0,14.38,50.74c0,.13.1.25.16.38a210.81,210.81,0,0,0,9.49,19.25A215.18,215.18,0,0,0,93.1,329.1c1.63,1.63,3.28,3.23,5,4.8q3.66,3.45,7.51,6.74a1,1,0,0,0,.23.19q5,4.28,10.24,8.25a226.3,226.3,0,0,0,30.19,19.31q5.81,3.09,11.81,5.86,2.65,1.23,5.36,2.38c4.73,2,9.52,3.9,14.41,5.63a230.67,230.67,0,0,0,24.7,7.17,234.58,234.58,0,0,0,47.42,5.95c1.45,0,2.9.05,4.36.06h2l2.15,0,2.49,0,1.91-.06H263q2.19-.07,4.35-.18a233,233,0,0,0,70.56-14.54c5.39-2,10.68-4.23,15.85-6.62,51.5-23.85,92-65.88,112.42-117.19a205.05,205.05,0,0,0,13.14-51.48c.76-6.28,1.23-12.65,1.39-19.07.09-2.83.11-5.69.07-8.54C480.71,174.06,480.58,170.44,480.34,166.83Z"/><path class="cls-61" d="M478.82,206.21c-7.75,14.39-28.33,29.79-57.53,42.44s-64,21.68-101.71,26.72a526,526,0,0,1-62.35,4.51c-61.19.84-119.74-8.65-164.83-26.71C62.24,241.09,41,225.88,33.24,211.43a205.48,205.48,0,0,0,14.53,51.12,208.87,208.87,0,0,0,19.3,10.33q7.11,3.38,14.93,6.5,6.15,2.46,12.58,4.72c46.44,16.33,103.73,24.8,163,24,17.35-.24,34.51-1.27,51.25-3,45.78-4.85,88.47-15.3,123.54-30.48a233,233,0,0,0,33.28-17.46l.48-.3a205.2,205.2,0,0,0,13.14-51.5C479.14,205.61,479,205.91,478.82,206.21Z"/><path class="cls-61" d="M461.13,268.44c-.53.59-1.09,1.17-1.66,1.75a93.82,93.82,0,0,1-17.91,13.89l-.2.12-.73.45c-1.12.67-2.25,1.33-3.35,2l-1.74,1c-.92.51-1.84,1-2.8,1.5-.77.41-1.56.81-2.39,1.23l-.1.05c-.36.19-.72.37-1.15.57l-1.21.6c-2,1-4.19,2-6.4,3l-2,.85-.44.19c-.69.31-1.39.6-2.12.9-.38.16-.78.33-1.17.47l-.08,0-1.29.53-.34.13-1.24.5h-.78l-.42.45c-.3.12-.61.24-.93.35l-1,.38-1,.39h-.22l-.48.25-1.11.41q-1,.39-2.07.75l-.2.08c-.7.24-1.4.5-2.14.74s-1.63.56-2.45.84l-.19.05c-.34.13-.69.24-1,.36l-1.15.37-1.24.4-.16.06-2.5.78-.94.3c-2.3.71-4.64,1.4-6.94,2.05l-1.45.42-2.87.78-.63.17-.11,0c-.71.2-1.43.38-2.14.57l-.44.11c-2.89.76-5.81,1.48-8.69,2.15-1.4.33-2.79.66-4.2,1-2.61.58-5.23,1.14-8,1.71l-3.15.63c-5.22,1-10.59,2-16,2.84l-1.84.29c-3.61.56-6.93,1-10.16,1.49l-3.36.44q-3.54.45-7.16.86l-.57.07h0l-3.51.38c-2.88.31-5.82.6-8.77.87l-.6,0-.2,0h0l-.25,0-.33,0-.33,0-.33,0h-.22l-2.64.22c-.36,0-.71.07-1.07.09l-.25,0-.52,0-.26,0-.31,0-.29,0-.37,0h-.09c-.28,0-.56,0-.89.06h-.08l-.48,0h-.1l-1.07.07-.16,0c-3.71.26-7.53.5-11.3.69l-1.12.06-.9,0h-.11l-1.21.06c-2.21.1-4.44.18-6.66.26l-.8,0L268,324h-1c-.61,0-1.22.05-1.84.05H265l-1.22,0h-.51l-1.36,0-1,0-1.76,0h-.68c-1.78,0-3.55,0-5.32,0h-3c-2.66,0-5.11,0-7.48,0-7-.09-14.11-.3-21-.64h-.11c-14.12-.7-28-1.92-41.31-3.63l-.19,0-.12,0c-4.32-.56-8.29-1.12-12.12-1.72-11.37-1.77-22.41-3.92-32.79-6.43-2.64-.63-5-1.24-7.35-1.85l-.75-.2-1.9-.51c-.91-.25-1.82-.5-2.71-.76l-.14,0-.18-.05-.26-.08-1-.26-.11,0c-.63-.17-1.25-.36-1.88-.54l-.13,0a229.93,229.93,0,0,1-35-13.26c-.25-.11-.49-.24-.78-.38-4-1.94-7.77-4-11.33-6.2a96.33,96.33,0,0,1-12.91-9.34c-1.49-1.3-2.9-2.64-4.17-4l-.24-.25c-.18-.19-.36-.37-.52-.55l-.08-.09c-.48-.53-1-1.05-1.41-1.58l-.58-.69q2.66,5.49,5.62,10.79,1.68,3,3.47,6,3.54,2.58,7.57,5.05c3.73,2.27,7.71,4.45,11.8,6.45.29.16.58.3.86.43a235.26,235.26,0,0,0,35.91,13.62l.13,0,1.93.57.08,0,1.07.3.55.15c.89.26,1.8.51,2.71.76l1.88.5c.29.09.59.17.86.23,2.34.62,4.78,1.24,7.46,1.89,10.55,2.54,21.76,4.74,33.3,6.52,3.87.61,7.87,1.18,12.24,1.74a.5.5,0,0,0,.16,0l.14,0c13.5,1.74,27.61,3,41.93,3.7h.12c7,.34,14.08.55,21.15.65,2.41,0,4.89.05,7.5,0,.25,0,.5,0,.74,0a1.5,1.5,0,0,0,.3,0h2.08c1.76,0,3.53,0,5.3,0h.72c.57,0,1.14,0,1.79,0l1,0,1.36,0,.57,0c.43,0,.85,0,1.22,0h.09q1,0,2-.06h.85l2-.05.81,0c2.25-.07,4.5-.15,6.69-.26.45,0,.9,0,1.35-.07l1-.05,1,0c3.86-.21,7.73-.44,11.47-.71h.15c.39,0,.79-.05,1.11-.09l.64,0,.94-.07.61,0,.22,0h.27l.35,0h.14l.39,0,1.25-.11,2.68-.22h.13l.16,0,.17,0,.26,0,.48,0h.08l.53-.05.29,0h.11c3-.27,6-.57,8.93-.88l3.94-.43.61,0,.14-.07c2.24-.26,4.46-.53,6.68-.82l3.38-.44c3.28-.44,6.65-.94,10.26-1.5l1.15-.18h0l.75-.12c5.42-.86,10.86-1.83,16.17-2.88l3.17-.63c2.84-.58,5.5-1.14,8.14-1.73,1.44-.33,2.86-.65,4.27-1,2.93-.68,5.9-1.41,8.83-2.18l.44-.11c.75-.19,1.49-.39,2.23-.6l.73-.19,2.92-.8,1.46-.42c2.34-.66,4.72-1.37,7.1-2.1l.95-.29,2.46-.78.27-.09,1.23-.4,1.17-.38,1.11-.37.15-.05,2.49-.85,2.21-.76.2-.08,2.11-.77c.37-.13.74-.26,1.09-.4l.24-.09,1.59-.58.93-.35.25-.11.81-.31.89-.05.43-.45c.39-.16.78-.31,1.16-.48l.32-.12c.47-.19.93-.37,1.38-.57l1.25-.5,2.14-.9.42-.18.08,0,2-.87c2.28-1,4.51-2,6.61-3.06.44-.21.88-.42,1.25-.62s.81-.39,1.2-.6l.09,0c.85-.43,1.68-.85,2.49-1.28,1-.52,2-1,2.89-1.55.61-.33,1.22-.68,1.81-1,1.17-.66,2.35-1.35,3.47-2l.83-.5.19-.12q4.37-2.69,8.2-5.5a.08.08,0,0,0,.05-.05q4.4-7.59,8.14-15.55Z"/><path class="cls-62" d="M163.36,376.59a233.34,233.34,0,0,0,95.54,18.82c95.07-1.3,175.59-58.7,207.47-138.7a205.86,205.86,0,0,0,13.14-51.53q1.14-9.41,1.41-19c.08-2.85.1-5.72.06-8.59-.05-3.65-.2-7.27-.43-10.87-.84,7.1-4,14-9.3,20.6a68.17,68.17,0,0,1-6.78,7.31c-24.51,23-74.76,41.46-137.29,50-4.4,24.59-15.19,67.64-39.58,95.58C262.12,369.37,218.78,380,163.36,376.59Z"/></g></g></svg>