<svg id="Layer_1" data-name="Layer 1" xmlns="http://www.w3.org/2000/svg" xmlns:xlink="http://www.w3.org/1999/xlink" width="1920" height="900" viewBox="0 0 1920 900">
  <defs>
    <style>
      .cls-1 {
        fill: none;
      }

      .cls-2 {
        clip-path: url(#clip-path);
      }

      .cls-3 {
        fill: #8282a3;
      }

      .cls-4 {
        fill: url(#linear-gradient);
      }

      .cls-5 {
        fill: url(#linear-gradient-2);
      }

      .cls-6 {
        fill: url(#linear-gradient-3);
      }

      .cls-10, .cls-7 {
        fill: #9cb2be;
      }

      .cls-7 {
        stroke: #576f8c;
      }

      .cls-10, .cls-11, .cls-16, .cls-7 {
        stroke-miterlimit: 10;
      }

      .cls-8 {
        fill: #9f9fbf;
      }

      .cls-9 {
        fill: #b0b0d6;
      }

      .cls-10, .cls-11, .cls-16 {
        stroke: #33455e;
      }

      .cls-10 {
        stroke-width: 0.5px;
      }

      .cls-11 {
        fill: #99c6dd;
      }

      .cls-11, .cls-16 {
        stroke-width: 2px;
      }

      .cls-11, .cls-17 {
        opacity: 0.55;
      }

      .cls-11, .cls-12, .cls-13, .cls-17, .cls-18 {
        isolation: isolate;
      }

      .cls-12, .cls-13 {
        fill: #d1e9f2;
      }

      .cls-12, .cls-15 {
        opacity: 0.35;
      }

      .cls-13 {
        opacity: 0.2;
      }

      .cls-14 {
        fill: #a28fcc;
      }

      .cls-16, .cls-17, .cls-18 {
        fill: #72a0b7;
      }

      .cls-18 {
        opacity: 0.54;
      }

      .cls-19 {
        fill: #9385ba;
      }
    </style>
    <clipPath id="clip-path">
      <rect class="cls-1" width="1920" height="900"/>
    </clipPath>
    <linearGradient id="linear-gradient" x1="1884.35" y1="87.62" x2="1510.44" y2="919.5" gradientTransform="matrix(1, 0, 0, -1, 0, 900)" gradientUnits="userSpaceOnUse">
      <stop offset="0" stop-color="#a7a8a8"/>
      <stop offset="0.66" stop-color="#cbcfce"/>
      <stop offset="1" stop-color="#e0e6e4"/>
    </linearGradient>
    <linearGradient id="linear-gradient-2" x1="-253.93" y1="-229.97" x2="526.35" y2="1127.31" gradientTransform="matrix(1, 0, 0, -1, 0, 900)" gradientUnits="userSpaceOnUse">
      <stop offset="0.26" stop-color="#a7a8a8"/>
      <stop offset="0.66" stop-color="#cbcfce"/>
      <stop offset="0.86" stop-color="#e0e6e4"/>
    </linearGradient>
    <linearGradient id="linear-gradient-3" x1="318.6" y1="261.69" x2="1529.79" y2="811.03" gradientTransform="matrix(1, 0, 0, -1, 0, 900)" gradientUnits="userSpaceOnUse">
      <stop offset="0.33" stop-color="#dde2e3"/>
      <stop offset="0.93" stop-color="#e0e6e4"/>
    </linearGradient>
  </defs>
  <g id="Layer_2" data-name="Layer 2">
    <g class="cls-2">
      <rect class="cls-3" x="21.28" y="671.2" width="1820.88" height="276.48"/>
      <g>
        <polygon class="cls-4" points="1435.28 -1.83 1924.4 -2.51 1923.38 910.51 1426.36 697.45 1435.28 -1.83"/>
        <polygon class="cls-5" points="491.85 -1.83 381.28 723.76 -3.77 914.6 -4.28 -3.02 491.85 -1.83"/>
        <rect class="cls-6" x="384.16" y="-2.05" width="1099.71" height="722.47"/>
        <rect class="cls-7" x="687.05" y="210.4" width="541.55" height="209.1"/>
        <g>
          <polygon class="cls-8" points="-13.98 627.11 409.58 528.58 385.6 728.08 -11.84 937.6 -13.98 627.11"/>
          <polygon class="cls-9" points="384.16 534.51 1483.87 523.89 1483.87 729.7 385.58 729.7 384.16 534.51"/>
          <polygon class="cls-8" points="1483.87 523.89 1925.43 589.83 1985.44 1049.2 1483.55 731.28 1483.87 523.89"/>
        </g>
        <rect class="cls-10" x="1272.01" y="91.85" width="209.22" height="261.06"/>
        <g>
          <polygon class="cls-11" points="1549.79 76.38 1721.95 56.83 1721.95 371.89 1548.19 358.83 1549.79 76.38"/>
          <path class="cls-11" d="M333.47,104.7,161.32,86.17V385l176.39-12Q335.6,238.86,333.47,104.7Z"/>
          <path class="cls-12" d="M1430,100.38,1281.27,349.32l59.1.17,134.3-215.32q-.11-17-.2-34.07Z"/>
          <path class="cls-12" d="M1331.18,336.33,1475,153q-.15,7.62-.28,15.23L1346.27,336Z"/>
          <path class="cls-12" d="M1288.75,275.17c-1,5.25-1.93,11.37-.39,12.14,2.32,1.17,8.94-10.43,10.78-13.6,16.67-28.83,37.34-54.42,56.32-81.36,18-25.54,40.24-56.72,66.29-92.36h-11.86Z"/>
          <path class="cls-12" d="M1551,301.33,1687.35,63l32.39-3.26.62,39.69L1574.67,360.82l-23.26-2.16Z"/>
          <path class="cls-12" d="M1551.87,284.64Q1613.6,174.69,1675.3,64.73l-11.42,1q-56.2,100.8-112.43,201.6Z"/>
          <path class="cls-13" d="M937.49,419.51l118.08-145.9h45L977.68,419.51Z"/>
          <path class="cls-13" d="M1004,419.51l110.4-146.43,12.93.47-105.8,146Z"/>
          <path class="cls-13" d="M776.38,419.16l96-134.9,27.4.24L804.4,419.16Z"/>
          <path class="cls-13" d="M809.78,419.16l91.55-131.67,11.18-.09L822.08,419Z"/>
        </g>
        <polygon class="cls-14" points="384.16 535.51 1484.68 524.3 1484.68 506.35 384.12 517.35 384.16 535.51"/>
        <g class="cls-15">
          <rect class="cls-16" x="408.74" y="90.43" width="221.84" height="243.93"/>
          <path class="cls-17" d="M207.85,85.21l125.78,222L335.7,371l-19.87,1.24L165.35,125.54V80.64Z"/>
          <path class="cls-17" d="M165.35,163.75,302.17,373.06,284,374.3q-59.31-90.54-118.61-181.08Z"/>
          <polygon class="cls-18" points="438.63 276.86 630.58 90.42 608.32 90.42 438.63 260.47 438.63 276.86"/>
        </g>
        <path class="cls-19" d="M-9.68,630.88l393.84-97.2V517.26L-9.68,604Z"/>
        <path class="cls-19" d="M1943.68,591.28,1485.17,526.7l-.28-21.38,458.41,54.87Z"/>
      </g>
    </g>
  </g>
</svg>
