<svg xmlns="http://www.w3.org/2000/svg" xmlns:xlink="http://www.w3.org/1999/xlink" viewBox="0 0 347.36 133.49"><defs><style>.cls-1{isolation:isolate;}.cls-2{fill:#b88341;}.cls-3{fill:#e9ad50;}.cls-4,.cls-6{mix-blend-mode:overlay;opacity:0.3;}.cls-5,.cls-6{fill:#22252a;}.cls-7{fill:#684b6d;opacity:0.4;}.cls-11,.cls-15,.cls-7{mix-blend-mode:multiply;}.cls-8{fill:#3b2c23;}.cls-9{fill:#4e3a2e;}.cls-10,.cls-14{mix-blend-mode:screen;}.cls-10,.cls-11,.cls-14,.cls-15{opacity:0.2;}.cls-10{fill:url(#linear-gradient);}.cls-11{fill:url(#linear-gradient-2);}.cls-12{fill:#a8691e;}.cls-13{fill:#c88323;}.cls-14{fill:url(#linear-gradient-3);}.cls-15{fill:url(#linear-gradient-4);}</style><linearGradient id="linear-gradient" x1="21.57" y1="31.93" x2="69.8" y2="57.44" gradientUnits="userSpaceOnUse"><stop offset="0" stop-color="#d28029"/><stop offset="0.1" stop-color="#c57a31"/><stop offset="0.51" stop-color="#946051"/><stop offset="0.82" stop-color="#755165"/><stop offset="1" stop-color="#694b6d"/></linearGradient><linearGradient id="linear-gradient-2" x1="31.65" y1="8.23" x2="32.21" y2="68.4" gradientUnits="userSpaceOnUse"><stop offset="0" stop-color="#694b6d"/><stop offset="0.28" stop-color="#fff"/><stop offset="0.8" stop-color="#fff"/><stop offset="0.82" stop-color="#f0edf0"/><stop offset="0.88" stop-color="#b6a8b8"/><stop offset="0.94" stop-color="#8d7690"/><stop offset="0.98" stop-color="#735776"/><stop offset="1" stop-color="#694b6d"/></linearGradient><linearGradient id="linear-gradient-3" x1="307.16" y1="31.93" x2="355.39" y2="57.44" xlink:href="#linear-gradient"/><linearGradient id="linear-gradient-4" x1="317.24" y1="8.23" x2="317.81" y2="68.4" xlink:href="#linear-gradient-2"/></defs><g class="cls-1"><g id="Layer_9" data-name="Layer 9"><path class="cls-2" d="M10.68,56.2s-13.1,8-5.83,27.32l5.83,1.23L4.27,87.24,4,121.32s7.3,8.17,9,6.6l308.39,3.13s-.2-3.34,6.71-7.1l-1.07,6.48s12.54-3.87,12.44-13.9l1.26-20.68-4.56,1.88s1.06-5.43,3-8.15l.49-24s-2.53-10.66-14.3-10.24Z"/><path class="cls-3" d="M14.64,56.67S1.54,64.07,8.8,82.1l5.84,1.14L8.22,85.56l-.29,31.72s7.3,7.6,9,6.14l308.39,2.92s-.19-3.11,6.71-6.61l-1.07,6s12.54-3.59,12.44-12.93l1.27-19.25-4.57,1.75s1.07-5,3-7.58l.49-22.36s-2.53-9.92-14.29-9.53Z"/><g class="cls-4"><path class="cls-5" d="M95,68.38a19.36,19.36,0,0,1-4.92,2.3,61.89,61.89,0,0,1-6,1.63,116.81,116.81,0,0,1-13.24,2c-2.29.23-4.57.45-6.86.63-1.12.1-2.28.17-3.4.25l-3.36.27c-2.23.19-4.44.36-6.62.56l-6.43.62c-2.12.21-4.2.43-6.24.6s-4.07.34-6,.45-3.88.2-5.74.27l-5.37.18c-3.44.09-6.62.14-9.4.18l-3.93,0H6.63c0-.42,0-.84,0-1.25l.41,0c1.19-.1,2.48-.21,3.87-.31,2.79-.22,5.91-.42,9.33-.61s7.12-.39,11-.52c2-.07,4-.1,6.06-.13l6.34-.1q3.24,0,6.54-.2c2.2-.1,4.42-.23,6.6-.45s4.42-.39,6.59-.66,4.26-.62,6.32-1,4.07-.79,6-1.23c1-.21,1.92-.43,2.87-.67L80,70.88l1.34-.35c3.54-1,6.73-2.1,8.23-3.31.71-.6,1-1.18.83-1.74a3.38,3.38,0,0,0-1.64-1.67,19.55,19.55,0,0,0-3.23-1.53L84.73,62l-1.06-.34c-.7-.22-1.39-.47-2-.62l-1.87-.52-2-.46c-1.3-.3-2.6-.55-3.81-.8l-.79-.14h5.6l5.11,0h0l.68.14c.89.19,1.57.38,2.34.58l1.13.3.14,0h0l.16.05.07,0,.29.09.59.19a25.26,25.26,0,0,1,4.51,1.87c1.36.75,2.55,1.7,2.83,2.8S96.3,67.47,95,68.38Z"/></g><g class="cls-4"><path class="cls-5" d="M6.65,84.05H11c1,0,2.1,0,3.24,0L16,84l1.79,0c2.46,0,5.12-.11,7.94-.2,5.69-.18,12.08-.44,19-.66L50,82.93l2.7-.08,2.79-.07c3.76-.08,7.64-.18,11.63-.33,8-.26,16.35-.64,25-1.07,4.33-.21,8.75-.4,13.22-.59s9-.39,13.57-.54c9.06-.37,18.4-.21,27.83-.57A117.29,117.29,0,0,0,161,78.46c1.17-.21,2.32-.46,3.45-.77a16,16,0,0,0,1.61-.54l.2-.07.1,0,.14-.07a3.25,3.25,0,0,0,.48-.25,2.34,2.34,0,0,0,.62-.58,1.63,1.63,0,0,0-.14-1.88,7.69,7.69,0,0,0-1.24-1.45,39.36,39.36,0,0,0-3.06-2.55c-.52-.4-1-.8-1.51-1.19a8.37,8.37,0,0,1-1.16-1.1,1.18,1.18,0,0,1-.2-.33v-.08c0-.07,0-.08,0-.09a1,1,0,0,1,.09-.17,2.41,2.41,0,0,1,1-.71,21.61,21.61,0,0,1,4.3-1.34c3.46-.76,7.38-1.33,11.25-1.83s7.79-.92,11.62-1.29c7.66-.75,15-1.37,21.86-1.89l8.29-.65-32.13.18c-3.78.34-7.65.73-11.56,1.23q-3.09.39-6.21.9c-2.08.34-4.16.73-6.22,1.23a27.36,27.36,0,0,0-5.89,2,5,5,0,0,0-2,1.65,1.6,1.6,0,0,0-.21.5.81.81,0,0,0,0,.24v.08a1,1,0,0,0,0,.11v.09a2.14,2.14,0,0,0,.57,1,12,12,0,0,0,1.58,1.37c.55.42,1.11.82,1.67,1.22,1.11.79,2.2,1.57,3.11,2.35a7.41,7.41,0,0,1,1.12,1.13c.28.35.37.71.29.85l0,.06h0l0,0h0l0,0-.1,0a9.33,9.33,0,0,1-1,.38,23.73,23.73,0,0,1-2.53.65,106,106,0,0,1-12.72,1.54c-4.51.33-9.12.53-13.73.69l-6.93.21c-2.3.07-4.64.17-6.89.26-4.56.18-9.09.33-13.56.44s-8.92.14-13.28.18c-8.72.09-17.19.08-25.18.25-4,.07-7.87.17-11.62.29l-2.8.08-2.77.11-5.36.22c-7,.35-13.31.73-18.88,1.09-2.81.16-5.44.32-7.87.48l-1.78.11L14,82.87,10.81,83c-1.51.07-2.91.15-4.17.23Z"/></g><g class="cls-4"><path class="cls-5" d="M278,66.76V67l-4,.11c-2.6.11-6.43.27-11.26.56s-10.72.68-17.42,1.17S231,69.9,222.77,70.55l-26.53,2.17a25,25,0,0,0-5.49,1c-.63.23-.92.45-.95.63a.37.37,0,0,0,.08.32,2.1,2.1,0,0,0,.48.38,16.13,16.13,0,0,0,4.79,1.38l.9.14.69.09c.53.06,1.1.11,1.7.16,1.19.1,2.45.19,3.74.28,2.59.19,5.3.37,8.11.71a43.6,43.6,0,0,1,4.34.72,17.38,17.38,0,0,1,2.21.64,7.27,7.27,0,0,1,1.88,1,4.81,4.81,0,0,1,.4.36l.16.2.09.12,0,.08.08.14a2.49,2.49,0,0,1,.11.29,1.53,1.53,0,0,1-.2,1.29,4,4,0,0,1-1.47,1.17,12.23,12.23,0,0,1-2.12.81A49.77,49.77,0,0,1,207,86c-5.56.44-11,.84-16.61,1.16-2.77.18-5.58.3-8.38.45s-5.6.25-8.41.37c-11.22.44-22.5.56-33.55.67s-21.92.21-32.42.43S87,89.69,77.45,90c-4.8.17-9.42.35-13.91.48l-6.67.22-3.23.1-3.15.1c-8.38.27-35.72-.41-32.8-.57l9.5-.48c6.79-.33,14.46-.69,22.83-1,4.23-.2,8.56-.32,13.09-.45,2.28-.06,4.61-.08,7-.12s4.75-.06,7.16-.06c9.68-.06,19.85.07,30.37,0S129,88,139.93,87.62,162,86.61,173,86c2.75-.16,5.51-.32,8.26-.51s5.48-.34,8.2-.56c5.44-.39,10.9-.85,16.13-1.32,1.27-.13,2.49-.27,3.61-.44a24.2,24.2,0,0,0,2.89-.57c.74-.22,1.09-.43,1.18-.6a.39.39,0,0,0,0-.34.31.31,0,0,0,0-.1l0-.06h0l-.14-.19s0,0,0,0a5.62,5.62,0,0,0-1.61-.6c-.86-.2-1.92-.38-3-.53-2.27-.3-4.8-.51-7.36-.72-1.3-.11-2.6-.21-4-.35-.66-.07-1.35-.14-2.07-.24l-1.14-.16-.9-.16c-.72-.13-1.39-.27-2-.42s-1.26-.31-1.87-.5a13.5,13.5,0,0,1-3.28-1.4,3.59,3.59,0,0,1-1.08-1,1.31,1.31,0,0,1-.15-1.18c.32-.82,1.58-1.46,2.83-1.87a24.6,24.6,0,0,1,3.92-.88c1.32-.19,2.61-.32,3.9-.42l13.91-1c4.49-.28,8.81-.57,13-.84,8.33-.52,16-.95,22.77-1.3s12.73-.6,17.64-.76c2.44-.1,4.64-.14,6.54-.2s3.55,0,4.87-.07Z"/></g><g class="cls-4"><path class="cls-5" d="M340.53,72.77c-.07.66-.16,1.32-.25,2q-4.38.14-9,.32c-10.07.36-21,.82-32.41,1.41-2.86.15-5.77.3-8.69.48s-5.9.33-8.89.53l-4.5.28-4.53.33-4.57.32-4.65.36c-3.12.24-6.24.45-9,.8a24.36,24.36,0,0,0-3.45.65,2.65,2.65,0,0,0-.78.33.3.3,0,0,0-.15.32s0,.08,0,.11,0,.06,0,.1l.2.21.13.12a8.63,8.63,0,0,0,1,.7c.85.49,1.84,1,2.86,1.51s2.08,1,3.1,1.6A19.57,19.57,0,0,1,260,87.05a4,4,0,0,1,1,1.22,1,1,0,0,1,.11.37,1.1,1.1,0,0,1,0,.47,1.13,1.13,0,0,1-.06.16l0,.06a1.15,1.15,0,0,1-.08.15c-.11.12-.2.25-.33.37a6.29,6.29,0,0,1-2.1,1.15,19.74,19.74,0,0,1-2.53.71A78.52,78.52,0,0,1,245.75,93c-6.83.52-13.63.69-20.42.84s-13.55.2-20.27.32c-3.35,0-6.68.15-10,.23l-10,.26c-13.3.31-26.37.67-39,1.12s-24.85.87-36.45,1.16q-4.35.12-8.58.2l-8.32.16-15.81.24c-10.14.13-19.43.23-27.67.29-4.11,0-8,.06-11.54.07s-6.84,0-9.8,0L14.11,98c-1.7,0-1.82-.39-.09-.48,3.17-.15,7.81-.35,13.7-.56s13.06-.46,21.28-.69,17.5-.47,27.62-.7l15.79-.35,8.33-.14q4.23-.09,8.58-.13c11.61-.16,23.87-.19,36.55-.29l9.57-.09,9.72-.14c6.5-.13,13.1-.26,19.73-.47,3.32-.09,6.64-.21,10-.34l10-.38c6.73-.23,13.47-.45,20.16-.75s13.35-.64,19.71-1.24A70.25,70.25,0,0,0,253.51,90a5.58,5.58,0,0,0,2.36-.92.46.46,0,0,0,.07-.07h0l0-.06s0-.07,0-.09h0s0-.07-.08-.16a2.62,2.62,0,0,0-.65-.66,17.2,17.2,0,0,0-2.48-1.5c-1-.5-2-1-3.05-1.51s-2.13-1-3.18-1.61a12,12,0,0,1-1.53-1l-.27-.22-.11-.11-.22-.24a2.09,2.09,0,0,1-.44-.74,1.5,1.5,0,0,1,.67-1.59A7.46,7.46,0,0,1,247,78.36a30.86,30.86,0,0,1,5.19-1.06c3.37-.46,6.57-.68,9.64-1l4.63-.39,4.66-.35,4.63-.33,4.57-.3c6.05-.4,12-.71,17.82-1,11.6-.53,22.62-.84,32.78-1.06C334.21,72.87,337.42,72.82,340.53,72.77Z"/></g><g class="cls-4"><path class="cls-5" d="M340.44,87l-2.87.08-5.09.1-5.08.06c-1.7,0-3.39,0-5.09,0s-3.39,0-5.09,0l-5.09-.07c-1.72,0-3.33,0-5,0-3.36,0-6.83,0-10.32-.12a95.19,95.19,0,0,1-10.45-.86,40.06,40.06,0,0,1-4.86-1,18.2,18.2,0,0,1-3.92-1.54l-.21-.11v-.15c0-.28.34-.57.75-.75a6.91,6.91,0,0,1,1.31-.42c.89-.2,1.76-.34,2.66-.46,1.77-.25,3.56-.4,5.33-.57,3.55-.33,7.11-.61,10.66-.92s7.11-.6,10.67-.87,7.16-.5,10.75-.67,7.2-.29,10.8-.39c3.16-.09,6.33-.15,9.5-.21-.12.74-.23,1.36-.31,1.82q-4.35.24-8.73.43c-3.57.16-7.15.32-10.73.44s-7.19.19-10.79.26-7.2.12-10.78.23c-1.79.06-3.59.13-5.37.22s-3.54.21-5.28.36-3.48.33-5.11.56a22.06,22.06,0,0,0-2.25.43,4.62,4.62,0,0,0-.77.28l-.15.1a17.16,17.16,0,0,0,3.35,1.05,38,38,0,0,0,4.43.65c3.09.27,6.36.3,9.65.27s6.61-.13,10-.21l5.16-.09,5.09-.07c1.7,0,3.4,0,5.09,0l5.11,0c1.69,0,3.4.06,5.1.09l5.08.13,2.76.08C340.39,85.53,340.42,86.2,340.44,87Z"/></g><g class="cls-4"><path class="cls-5" d="M224.5,100.7c-.46.34-.33.48.13.69a11.31,11.31,0,0,0,2.57.47c2.15.2,4.57.23,6.94.23s4.82-.08,7.25-.16c5-.15,9.83-.28,14.69-.39s9.6-.32,14.32-.48l14-.57c4.6-.2,9.16-.39,13.57-.56l13-.49c8.44-.31,16.47-.58,23.92-.76l4.7-.11c-.1.32-.19.62-.3.89-.35.41-.67.8-1,1.18l-3,.14c-3.67.15-7.49.34-11.46.54l-12.3.58c-8.44.4-17.39.74-26.64,1l-14.12.41c-4.81.09-9.69.23-14.57.28l-7.33,0-7.37,0c-2.48,0-5,0-7.55-.07s-5.11-.19-7.72-.52q-1-.12-2-.33a8.79,8.79,0,0,1-1.9-.6,2.09,2.09,0,0,1-.43-.25l-.2-.14-.09-.08-.08-.09c-.1-.11,0-.07-.09-.12l0-.07a.67.67,0,0,1-.08-.29c0-.4.39-.74.82-1A13.47,13.47,0,0,1,225.3,99c1.09-.29,2.21-.54,3.34-.77,2.26-.45,4.54-.84,6.82-1.21l3.44-.55c1.14-.18,2.27-.38,3.46-.52l3.48-.46c1.16-.16,2.31-.32,3.5-.44l3.52-.39c1.17-.13,2.33-.27,3.5-.37l3.48-.31,1.73-.16.43,0,.47,0,.88-.06,3.51-.25c1.16-.09,2.32-.18,3.49-.23,9.29-.55,18.42-.71,27-.62s16.59.43,24,.67c3.69.13,7.21.26,10.57.36,1.67,0,3.31.1,4.9.15l3.58.09c0,.54-.09,1.08-.16,1.6-5.8,0-12.26-.07-19.24-.21l-23.84-.59c-8.42-.19-17.28-.4-26.45-.2-1.14,0-2.29,0-3.44.1l-3.46.13-.88,0-.4,0-.44,0-1.75.12-3.52.24c-2.36.15-4.61.42-6.95.64-1.16.1-2.29.26-3.44.41l-3.42.46c-1.16.14-2.26.34-3.38.53l-3.36.56c-2.23.4-4.44.82-6.54,1.29-1,.24-2,.5-3,.78A8.93,8.93,0,0,0,224.5,100.7Z"/></g><g class="cls-4"><path class="cls-5" d="M333.89,106.75a4.78,4.78,0,0,0-.68,2.1l-1.38.06-15.31.61-16.29.7L283,111l-8.93.39c-3,.13-6.1.23-9.18.35l-9.35.33-2.35.08-2.36,0-4.74.11-9.54.2-2.41,0-1.27,0h-1.24c-1.65,0-3.29,0-4.93,0-6.58-.07-13.2-.29-19.8-.81-3.3-.27-6.61-.61-9.82-1.14a45.77,45.77,0,0,1-4.69-1,13.39,13.39,0,0,1-3.94-1.62c-.23-.18-.42-.36-.63-.55a3.93,3.93,0,0,1-.39-.58,2.58,2.58,0,0,1-.13-.6,1.5,1.5,0,0,1,.14-.61,1.48,1.48,0,0,1,.29-.51l.17-.24c.07-.1.05-.07.08-.1l.06-.06.12-.12c.29-.33.62-.63.94-.93a6.25,6.25,0,0,0,1.45-1.76c.25-.56,0-1.08-.82-1.53-.24-.1-.45-.22-.7-.31s-.49-.19-.8-.29l-1-.28-1-.22c-.32-.08-.67-.15-1-.21l-1.06-.19c-.74-.1-1.46-.22-2.22-.29a85.44,85.44,0,0,0-9.4-.44c-3.19,0-6.38.11-9.55.25l-9.5.43c-6.31.27-12.54.59-18.66.9l-9.11.47c-3,.15-6,.32-8.94.43L108,101l-8.56.3c-5.64.17-11.12.34-16.43.47l-15.33.37c-9.83.2-18.85.38-26.85.51l-11.21.24-9.52.18-9.27.14c0-.21.05-.43.07-.66l9-.48c2.86-.15,6-.31,9.46-.47s7.16-.35,11.15-.52c8-.32,17-.61,26.83-.94s20.49-.64,31.75-.91l8.57-.18,8.78-.15c5.93-.09,12-.26,18.1-.39s12.41-.3,18.72-.49l4.75-.14,4.78-.2c3.21-.12,6.46-.21,9.74-.22a91.06,91.06,0,0,1,9.9.42c.82.07,1.61.19,2.43.29l1.19.19,1.17.22,1.18.26,1,.27c.34.1.72.24,1.07.36s.64.27.95.41c1.22.59,1.76,1.45,1.49,2.18a5.92,5.92,0,0,1-1.38,2c-.27.31-.55.61-.77.91l-.15.19-.14.24c-.07.15-.22.34-.19.45s-.05.24,0,.37a1.07,1.07,0,0,0,.13.38c.11.13.18.25.3.37s.29.23.46.34a11.48,11.48,0,0,0,3.09,1.1c1.27.3,2.66.55,4.13.75,2.93.4,6.07.64,9.21.82s6.34.3,9.54.36,6.39.11,9.57.1l4.74,0,1.17,0,1.14,0,2.39-.08,9.54-.3,4.73-.15,2.36-.07,2.31-.1,9.21-.41,18-.79,8.74-.4c2.88-.12,5.75-.21,8.58-.31l8.35-.31c2.72-.09,5.45-.21,8.1-.27l15.35-.39Z"/></g><g class="cls-4"><path class="cls-5" d="M338.49,113c-6.6.37-13.23.71-19.85,1.06-4.24.24-8.5.41-12.76.6l-12.79.57-12.84.41-6.42.2-6.46.11-12.94.2c-4.28,0-8.55,0-12.83,0h-9.66l-3.18,0c-4.26,0-8.55,0-12.83-.07-8.56-.06-17.15-.2-25.74-.47-2.15-.07-4.3-.15-6.46-.27s-4.31-.25-6.53-.53l-.95-.14-.37-.08-.18,0-.07,0-.18,0a6.75,6.75,0,0,1-1.45-.56,2.62,2.62,0,0,1-1.3-1.39,4.56,4.56,0,0,1,.13-2.67,3.37,3.37,0,0,0,0-2.44,1.5,1.5,0,0,0-.2-.24l-.11-.1-.2-.14-.39-.19c-.17-.06-.31-.13-.5-.18a14.61,14.61,0,0,0-2.55-.53,51.28,51.28,0,0,0-6.07-.37c-2.09,0-4.2,0-6.31.07s-4.22.17-6.34.28c-1.07,0-2.12.11-3.21.15l-3.21.12-12.77.52c-8.51.36-17,.72-25.54,1s-17,.56-25.59.76l-12.8.31c-4.29.07-8.5.21-12.75.33s-8.49.21-12.74.35-8.53.32-12.79.46l-.51,0v-1.25h.13q6.35-.41,12.69-.79c4.23-.23,8.52-.41,12.79-.6s8.58-.38,12.82-.51l12.8-.39q12.8-.41,25.61-.64c8.54-.16,17.1-.27,25.66-.38l12.82-.18c1.07,0,2.15,0,3.2-.06l3.17-.1c2.13-.07,4.28-.14,6.44-.19s4.31-.08,6.5,0a60,60,0,0,1,6.56.42,18.72,18.72,0,0,1,3.12.64,6.78,6.78,0,0,1,1.32.55l.22.14.23.19a1.76,1.76,0,0,1,.29.36,2.23,2.23,0,0,1,.31,1.38,9.42,9.42,0,0,1-.16,1.3,4.55,4.55,0,0,0,0,2.46,2,2,0,0,0,1,1,5.25,5.25,0,0,0,.85.3h0l.09,0,.19,0,.34.07.57.07c1.9.2,4,.29,6.1.35s4.2.09,6.32.11c8.49.08,17,0,25.56-.14l12.84-.13,6.4,0,6.41-.05c4.27,0,8.56-.06,12.82-.13l12.69-.31,6.35-.15,6.37-.21,12.72-.41L337.64,111h0S338.05,111.77,338.49,113Z"/></g><g class="cls-4"><path class="cls-5" d="M248.72,122.68l-2.89.15c-1.77.09-84.39-.63-85.42-1.18-.18-.09-.36-.18-.53-.28l-.49-.32-.47-.32-.32-.26-.32-.27-.13-.11-.07-.07-.15-.14-.56-.55c-.76-.72-1.47-1.43-2.29-2.08a13.73,13.73,0,0,0-1.29-.91,3.16,3.16,0,0,0-.33-.21l-.45-.24-.44-.24-.33-.15a17.09,17.09,0,0,0-4-1.12,45.42,45.42,0,0,0-5.2-.6c-1.85-.12-3.81-.19-5.75-.22s-4,0-6,0h-6.08l-6.05,0-6,.08c-2,0-4,.08-6,.12-8,.15-15.76.49-23.3.86s-14.82.77-21.75,1-13.49.41-19.47.62c-3,.1-5.88.14-8.64.25s-5.42.18-7.79.25c-4.94.22-9.23.34-12.72.48-1.73.07-3.28.15-4.65.19l-1,.06c-.07-.21.32-.72.59-.75l4.65-.49c1.76-.18,3.68-.32,5.79-.5s4.35-.36,6.77-.54,5.05-.34,7.81-.51,5.67-.28,8.7-.43c6.11-.27,12.63-.53,19.6-.69s14.32-.18,21.93-.22c3.8,0,7.66,0,11.57-.09s7.86-.12,11.83-.23,8-.23,12-.36l12.11-.44c2-.08,4-.17,6.09-.22s4.19-.07,6.35,0a57.31,57.31,0,0,1,6.5.53,26.23,26.23,0,0,1,5.93,1.5l.32.13.15.06.08,0,.14.07.48.23.47.23c.17.08.34.19.5.28a18.57,18.57,0,0,1,1.78,1.13c1,.74,1.87,1.49,2.69,2.19l.6.53.16.13.06.06h0l0,0,.34.26.35.25.29.18.29.17.35.17a13.26,13.26,0,0,0,3.44,1.09,65.22,65.22,0,0,0,9.68.79l2.65,0,2.63,0,5.28.07,10,.07c3.26,0,6.4,0,9.42,0l16.55,0c4.94,0,9.26,0,12.81,0s6.35.07,8.25.1l2.91.06Z"/></g><path class="cls-6" d="M21.12,56.85c-.8-.34-1.62-.7-2.49-1.11,2.79,5.21,4.3,9,4.61,12.7-.33,3.67-.84,3.74-3.66,8.64.88-.31,9-.49,12.68-.61,3.71.54,5.81-3.9,10.89-.82A21,21,0,0,1,42,69.47c.34-3.67,1.86-7.28,4.68-12.18-.88.31-1.71.58-2.51.84.31-.78.63-1.59,1-2.44-5.09,2.51-8.8,3.82-12.51,3.94-3.7-.53-5.74-1.66-9-6.12C24,54.41,23.09,56.29,21.12,56.85Z"/><path class="cls-7" d="M28.62,61.78c-1.71-.43-2.62-1.55-4.9-2.61,1.84,3.43,4,12.77,1,18.12,3.33-1.65,4.6-3.33,7-3.47,1.19,1.08,1.37,2.09,2.73,4A5.8,5.8,0,0,1,36.38,74c1.7.43,2.24,1.17,4.52,2.23-1.84-3.42-.89-4.91-1.16-7.35a25.88,25.88,0,0,1,4.18-3.5,34.64,34.64,0,0,1-4-.51,30.48,30.48,0,0,1,1.92-5.73c-3.34,1.65-5.81,2.54-8.25,2.68-1.2-1.08-3.54-2.14-4.9-4C28.68,59.33,28.78,60.64,28.62,61.78Z"/><path class="cls-6" d="M28.65,62.89a6.87,6.87,0,0,1,10,9.42,6.87,6.87,0,0,1-10-9.42Z"/><path class="cls-8" d="M37.75,22A6.62,6.62,0,0,0,36,17.33a1,1,0,0,0,.32-.27,6.65,6.65,0,0,0,1.47-4.25c0-3.89-2.77-5.73-5.22-7.35a13.5,13.5,0,0,1-3.17-2.55,1.15,1.15,0,0,0-.9-.46,1,1,0,0,0-.9.46,6.69,6.69,0,0,0-1.47,4.25,6.62,6.62,0,0,0,1.79,4.62,1.15,1.15,0,0,0-.32.27,6.67,6.67,0,0,0-1.47,4.25,6.6,6.6,0,0,0,1.78,4.61,1.16,1.16,0,0,0-.31.28,6.69,6.69,0,0,0-1.47,4.25,6.62,6.62,0,0,0,1.79,4.62,1.15,1.15,0,0,0-.32.27,6.69,6.69,0,0,0-1.47,4.25,6.6,6.6,0,0,0,1.79,4.62,1.15,1.15,0,0,0-.32.27,6.71,6.71,0,0,0-1.47,4.25,6.62,6.62,0,0,0,1.79,4.62,1.15,1.15,0,0,0-.32.27,6.69,6.69,0,0,0-1.47,4.25,6.6,6.6,0,0,0,1.8,4.63,1,1,0,0,0-.33.26A6.69,6.69,0,0,0,26.09,62c0,3.89,2.78,5.73,5.23,7.35a13.69,13.69,0,0,1,3.16,2.55,1.13,1.13,0,0,0,.9.46h0a1.15,1.15,0,0,0,.9-.45,6.7,6.7,0,0,0,1.47-4.26A6.62,6.62,0,0,0,36,63a1,1,0,0,0,.32-.27A6.87,6.87,0,0,0,36,53.89a1,1,0,0,0,.32-.27A6.87,6.87,0,0,0,36,44.75a1,1,0,0,0,.32-.27A6.87,6.87,0,0,0,36,35.61a1,1,0,0,0,.32-.27A6.87,6.87,0,0,0,36,26.47a1,1,0,0,0,.32-.27A6.65,6.65,0,0,0,37.75,22Zm-9.2-5.65a3.44,3.44,0,0,1,.16-1.08,24.14,24.14,0,0,0,2.61,1.9c2.47,1.64,4,2.78,4,4.83A3.83,3.83,0,0,1,35.14,23a23.87,23.87,0,0,0-2.61-1.91C30.05,19.49,28.55,18.35,28.55,16.3Zm.16-10.22A24.14,24.14,0,0,0,31.32,8c2.47,1.64,4,2.78,4,4.83a3.83,3.83,0,0,1-.15,1.09A23.87,23.87,0,0,0,32.53,12c-2.48-1.64-4-2.78-4-4.83A3.44,3.44,0,0,1,28.71,6.08Zm-.16,19.36a3.44,3.44,0,0,1,.16-1.08,24.14,24.14,0,0,0,2.61,1.9c2.47,1.64,4,2.78,4,4.83a3.83,3.83,0,0,1-.15,1.09,23.87,23.87,0,0,0-2.61-1.91C30.05,28.63,28.55,27.49,28.55,25.44Zm0,9.14a3.44,3.44,0,0,1,.16-1.08,24.14,24.14,0,0,0,2.61,1.9c2.47,1.64,4,2.78,4,4.83a3.83,3.83,0,0,1-.15,1.09,23.87,23.87,0,0,0-2.61-1.91C30.05,37.77,28.55,36.63,28.55,34.58Zm0,9.14a3.44,3.44,0,0,1,.16-1.08,24.14,24.14,0,0,0,2.61,1.9c2.47,1.64,4,2.78,4,4.83a3.83,3.83,0,0,1-.15,1.09,23.87,23.87,0,0,0-2.61-1.91C30.05,46.91,28.55,45.77,28.55,43.72Zm0,9.14a3.44,3.44,0,0,1,.16-1.08,24.14,24.14,0,0,0,2.61,1.9c2.47,1.64,4,2.78,4,4.83a3.83,3.83,0,0,1-.15,1.09,23.87,23.87,0,0,0-2.61-1.91C30.05,56.05,28.55,54.91,28.55,52.86Zm6.59,15.88a23.87,23.87,0,0,0-2.61-1.91c-2.48-1.64-4-2.78-4-4.83a3.44,3.44,0,0,1,.16-1.08,24.14,24.14,0,0,0,2.61,1.9c2.47,1.64,4,2.78,4,4.83A3.83,3.83,0,0,1,35.14,68.74Z"/><path class="cls-9" d="M28.46,58.73A5.08,5.08,0,0,0,27.32,62c0,4.75,5.61,5.8,8.06,8.92a5.06,5.06,0,0,0,1.14-3.27C36.52,62.9,30.92,61.86,28.46,58.73Z"/><path class="cls-9" d="M28.46,49.59a5.08,5.08,0,0,0-1.14,3.27c0,4.75,5.61,5.8,8.06,8.92a5.06,5.06,0,0,0,1.14-3.27C36.52,53.76,30.92,52.72,28.46,49.59Z"/><path class="cls-9" d="M28.46,40.45a5.08,5.08,0,0,0-1.14,3.27c0,4.75,5.61,5.8,8.06,8.92a5.06,5.06,0,0,0,1.14-3.27C36.52,44.62,30.92,43.58,28.46,40.45Z"/><path class="cls-9" d="M28.46,31.31a5.08,5.08,0,0,0-1.14,3.27c0,4.75,5.61,5.8,8.06,8.92a5.06,5.06,0,0,0,1.14-3.27C36.52,35.48,30.92,34.44,28.46,31.31Z"/><path class="cls-9" d="M28.46,22.17a5.08,5.08,0,0,0-1.14,3.27c0,4.75,5.61,5.8,8.06,8.92a5.06,5.06,0,0,0,1.14-3.27C36.52,26.34,30.92,25.29,28.46,22.17Z"/><path class="cls-9" d="M28.46,13a5.08,5.08,0,0,0-1.14,3.27c0,4.75,5.61,5.8,8.06,8.92A5.06,5.06,0,0,0,36.52,22C36.52,17.2,30.92,16.15,28.46,13Z"/><path class="cls-9" d="M28.46,3.89a5.08,5.08,0,0,0-1.14,3.27c0,4.75,5.61,5.8,8.06,8.92a5.06,5.06,0,0,0,1.14-3.27C36.52,8.06,30.92,7,28.46,3.89Z"/><path class="cls-10" d="M37.75,22A6.62,6.62,0,0,0,36,17.33a1,1,0,0,0,.32-.27,6.65,6.65,0,0,0,1.47-4.25c0-3.89-2.77-5.73-5.22-7.35a13.5,13.5,0,0,1-3.17-2.55,1.15,1.15,0,0,0-.9-.46,1,1,0,0,0-.9.46,6.69,6.69,0,0,0-1.47,4.25,6.62,6.62,0,0,0,1.79,4.62,1.15,1.15,0,0,0-.32.27,6.67,6.67,0,0,0-1.47,4.25,6.6,6.6,0,0,0,1.78,4.61,1.16,1.16,0,0,0-.31.28,6.69,6.69,0,0,0-1.47,4.25,6.62,6.62,0,0,0,1.79,4.62,1.15,1.15,0,0,0-.32.27,6.69,6.69,0,0,0-1.47,4.25,6.6,6.6,0,0,0,1.79,4.62,1.15,1.15,0,0,0-.32.27,6.71,6.71,0,0,0-1.47,4.25,6.62,6.62,0,0,0,1.79,4.62,1.15,1.15,0,0,0-.32.27,6.69,6.69,0,0,0-1.47,4.25,6.6,6.6,0,0,0,1.8,4.63,1,1,0,0,0-.33.26A6.69,6.69,0,0,0,26.09,62c0,3.89,2.78,5.73,5.23,7.35a13.69,13.69,0,0,1,3.16,2.55,1.13,1.13,0,0,0,.9.46h0a1.15,1.15,0,0,0,.9-.45,6.7,6.7,0,0,0,1.47-4.26A6.62,6.62,0,0,0,36,63a1,1,0,0,0,.32-.27A6.87,6.87,0,0,0,36,53.89a1,1,0,0,0,.32-.27A6.87,6.87,0,0,0,36,44.75a1,1,0,0,0,.32-.27A6.87,6.87,0,0,0,36,35.61a1,1,0,0,0,.32-.27A6.87,6.87,0,0,0,36,26.47a1,1,0,0,0,.32-.27A6.65,6.65,0,0,0,37.75,22Z"/><path class="cls-11" d="M37.75,22A6.62,6.62,0,0,0,36,17.33a1,1,0,0,0,.32-.27,6.65,6.65,0,0,0,1.47-4.25c0-3.89-2.77-5.73-5.22-7.35a13.5,13.5,0,0,1-3.17-2.55,1.15,1.15,0,0,0-.9-.46,1,1,0,0,0-.9.46,6.69,6.69,0,0,0-1.47,4.25,6.62,6.62,0,0,0,1.79,4.62,1.15,1.15,0,0,0-.32.27,6.67,6.67,0,0,0-1.47,4.25,6.6,6.6,0,0,0,1.78,4.61,1.16,1.16,0,0,0-.31.28,6.69,6.69,0,0,0-1.47,4.25,6.62,6.62,0,0,0,1.79,4.62,1.15,1.15,0,0,0-.32.27,6.69,6.69,0,0,0-1.47,4.25,6.6,6.6,0,0,0,1.79,4.62,1.15,1.15,0,0,0-.32.27,6.71,6.71,0,0,0-1.47,4.25,6.62,6.62,0,0,0,1.79,4.62,1.15,1.15,0,0,0-.32.27,6.69,6.69,0,0,0-1.47,4.25,6.6,6.6,0,0,0,1.8,4.63,1,1,0,0,0-.33.26A6.69,6.69,0,0,0,26.09,62c0,3.89,2.78,5.73,5.23,7.35a13.69,13.69,0,0,1,3.16,2.55,1.13,1.13,0,0,0,.9.46h0a1.15,1.15,0,0,0,.9-.45,6.7,6.7,0,0,0,1.47-4.26A6.62,6.62,0,0,0,36,63a1,1,0,0,0,.32-.27A6.87,6.87,0,0,0,36,53.89a1,1,0,0,0,.32-.27A6.87,6.87,0,0,0,36,44.75a1,1,0,0,0,.32-.27A6.87,6.87,0,0,0,36,35.61a1,1,0,0,0,.32-.27A6.87,6.87,0,0,0,36,26.47a1,1,0,0,0,.32-.27A6.65,6.65,0,0,0,37.75,22Z"/><path class="cls-12" d="M37.75,22A6.62,6.62,0,0,0,36,17.33a1,1,0,0,0,.32-.27,6.65,6.65,0,0,0,1.47-4.25c0-3.89-2.77-5.73-5.22-7.35a13.5,13.5,0,0,1-3.17-2.55,1.15,1.15,0,0,0-.9-.46,1,1,0,0,0-.9.46,6.69,6.69,0,0,0-1.47,4.25,6.62,6.62,0,0,0,1.79,4.62,1.15,1.15,0,0,0-.32.27,6.67,6.67,0,0,0-1.47,4.25,6.6,6.6,0,0,0,1.78,4.61,1.16,1.16,0,0,0-.31.28,6.69,6.69,0,0,0-1.47,4.25,6.62,6.62,0,0,0,1.79,4.62,1.15,1.15,0,0,0-.32.27,6.69,6.69,0,0,0-1.47,4.25,6.6,6.6,0,0,0,1.79,4.62,1.15,1.15,0,0,0-.32.27,6.71,6.71,0,0,0-1.47,4.25,6.62,6.62,0,0,0,1.79,4.62,1.15,1.15,0,0,0-.32.27,6.69,6.69,0,0,0-1.47,4.25,6.6,6.6,0,0,0,1.8,4.63,1,1,0,0,0-.33.26A6.69,6.69,0,0,0,26.09,62c0,3.89,2.78,5.73,5.23,7.35a13.69,13.69,0,0,1,3.16,2.55,1.13,1.13,0,0,0,.9.46h0a1.15,1.15,0,0,0,.9-.45,6.7,6.7,0,0,0,1.47-4.26A6.62,6.62,0,0,0,36,63a1,1,0,0,0,.32-.27A6.87,6.87,0,0,0,36,53.89a1,1,0,0,0,.32-.27A6.87,6.87,0,0,0,36,44.75a1,1,0,0,0,.32-.27A6.87,6.87,0,0,0,36,35.61a1,1,0,0,0,.32-.27A6.87,6.87,0,0,0,36,26.47a1,1,0,0,0,.32-.27A6.65,6.65,0,0,0,37.75,22Zm-9.2-5.65a3.44,3.44,0,0,1,.16-1.08,24.14,24.14,0,0,0,2.61,1.9c2.47,1.64,4,2.78,4,4.83A3.83,3.83,0,0,1,35.14,23a23.87,23.87,0,0,0-2.61-1.91C30.05,19.49,28.55,18.35,28.55,16.3Zm.16-10.22A24.14,24.14,0,0,0,31.32,8c2.47,1.64,4,2.78,4,4.83a3.83,3.83,0,0,1-.15,1.09A23.87,23.87,0,0,0,32.53,12c-2.48-1.64-4-2.78-4-4.83A3.44,3.44,0,0,1,28.71,6.08Zm-.16,19.36a3.44,3.44,0,0,1,.16-1.08,24.14,24.14,0,0,0,2.61,1.9c2.47,1.64,4,2.78,4,4.83a3.83,3.83,0,0,1-.15,1.09,23.87,23.87,0,0,0-2.61-1.91C30.05,28.63,28.55,27.49,28.55,25.44Zm0,9.14a3.44,3.44,0,0,1,.16-1.08,24.14,24.14,0,0,0,2.61,1.9c2.47,1.64,4,2.78,4,4.83a3.83,3.83,0,0,1-.15,1.09,23.87,23.87,0,0,0-2.61-1.91C30.05,37.77,28.55,36.63,28.55,34.58Zm0,9.14a3.44,3.44,0,0,1,.16-1.08,24.14,24.14,0,0,0,2.61,1.9c2.47,1.64,4,2.78,4,4.83a3.83,3.83,0,0,1-.15,1.09,23.87,23.87,0,0,0-2.61-1.91C30.05,46.91,28.55,45.77,28.55,43.72Zm0,9.14a3.44,3.44,0,0,1,.16-1.08,24.14,24.14,0,0,0,2.61,1.9c2.47,1.64,4,2.78,4,4.83a3.83,3.83,0,0,1-.15,1.09,23.87,23.87,0,0,0-2.61-1.91C30.05,56.05,28.55,54.91,28.55,52.86Zm6.59,15.88a23.87,23.87,0,0,0-2.61-1.91c-2.48-1.64-4-2.78-4-4.83a3.44,3.44,0,0,1,.16-1.08,24.14,24.14,0,0,0,2.61,1.9c2.47,1.64,4,2.78,4,4.83A3.83,3.83,0,0,1,35.14,68.74Z"/><path class="cls-13" d="M28.46,58.73A5.08,5.08,0,0,0,27.32,62c0,4.75,5.61,5.8,8.06,8.92a5.06,5.06,0,0,0,1.14-3.27C36.52,62.9,30.92,61.86,28.46,58.73Z"/><path class="cls-13" d="M28.46,49.59a5.08,5.08,0,0,0-1.14,3.27c0,4.75,5.61,5.8,8.06,8.92a5.06,5.06,0,0,0,1.14-3.27C36.52,53.76,30.92,52.72,28.46,49.59Z"/><path class="cls-13" d="M28.46,40.45a5.08,5.08,0,0,0-1.14,3.27c0,4.75,5.61,5.8,8.06,8.92a5.06,5.06,0,0,0,1.14-3.27C36.52,44.62,30.92,43.58,28.46,40.45Z"/><path class="cls-13" d="M28.46,31.31a5.08,5.08,0,0,0-1.14,3.27c0,4.75,5.61,5.8,8.06,8.92a5.06,5.06,0,0,0,1.14-3.27C36.52,35.48,30.92,34.44,28.46,31.31Z"/><path class="cls-13" d="M28.46,22.17a5.08,5.08,0,0,0-1.14,3.27c0,4.75,5.61,5.8,8.06,8.92a5.06,5.06,0,0,0,1.14-3.27C36.52,26.34,30.92,25.29,28.46,22.17Z"/><path class="cls-13" d="M28.46,13a5.08,5.08,0,0,0-1.14,3.27c0,4.75,5.61,5.8,8.06,8.92A5.06,5.06,0,0,0,36.52,22C36.52,17.2,30.92,16.15,28.46,13Z"/><path class="cls-13" d="M28.46,3.89a5.08,5.08,0,0,0-1.14,3.27c0,4.75,5.61,5.8,8.06,8.92a5.06,5.06,0,0,0,1.14-3.27C36.52,8.06,30.92,7,28.46,3.89Z"/><path class="cls-6" d="M306.72,56.85c-.8-.34-1.63-.7-2.5-1.11,2.79,5.21,4.3,9,4.62,12.7-.34,3.67-.85,3.74-3.66,8.64.87-.31,9-.49,12.67-.61,3.71.54,5.81-3.9,10.89-.82a21,21,0,0,1-1.17-6.18c.34-3.67,1.86-7.28,4.68-12.18-.88.31-1.7.58-2.51.84.31-.78.63-1.59,1-2.44-5.08,2.51-8.79,3.82-12.5,3.94-3.71-.53-5.74-1.66-9-6.12C309.56,54.41,308.68,56.29,306.72,56.85Z"/><path class="cls-7" d="M314.21,61.78c-1.71-.43-2.62-1.55-4.89-2.61,1.83,3.43,4,12.77,1,18.12,3.34-1.65,4.61-3.33,7-3.47,1.2,1.08,1.37,2.09,2.74,4A5.75,5.75,0,0,1,322,74c1.71.43,2.24,1.17,4.52,2.23-1.83-3.42-.89-4.91-1.16-7.35a25.58,25.58,0,0,1,4.19-3.5,34.54,34.54,0,0,1-4-.51,29.88,29.88,0,0,1,1.93-5.73c-3.35,1.65-5.82,2.54-8.26,2.68-1.19-1.08-3.53-2.14-4.9-4A37.39,37.39,0,0,1,314.21,61.78Z"/><path class="cls-6" d="M314.24,62.89a6.87,6.87,0,1,1,.52,9.44A6.69,6.69,0,0,1,314.24,62.89Z"/><path class="cls-8" d="M323.35,22a6.62,6.62,0,0,0-1.8-4.62,1,1,0,0,0,.32-.27,6.66,6.66,0,0,0,1.48-4.25c0-3.89-2.78-5.73-5.23-7.35A13.23,13.23,0,0,1,315,2.91a1.16,1.16,0,0,0-.9-.46,1,1,0,0,0-.91.46,6.69,6.69,0,0,0-1.47,4.25,6.66,6.66,0,0,0,1.79,4.62,1.31,1.31,0,0,0-.32.27,6.87,6.87,0,0,0,.31,8.86,1.16,1.16,0,0,0-.31.28,6.87,6.87,0,0,0,.32,8.87,1.15,1.15,0,0,0-.32.27,6.87,6.87,0,0,0,.32,8.87,1.31,1.31,0,0,0-.32.27,6.87,6.87,0,0,0,.32,8.87,1.15,1.15,0,0,0-.32.27,6.87,6.87,0,0,0,.33,8.88,1.15,1.15,0,0,0-.33.26A6.69,6.69,0,0,0,311.68,62c0,3.89,2.78,5.73,5.23,7.35a13.48,13.48,0,0,1,3.16,2.55,1.13,1.13,0,0,0,.9.46h0a1.14,1.14,0,0,0,.9-.45,6.71,6.71,0,0,0,1.48-4.26,6.62,6.62,0,0,0-1.8-4.62,1,1,0,0,0,.32-.27,6.84,6.84,0,0,0-.32-8.87,1,1,0,0,0,.32-.27,6.84,6.84,0,0,0-.32-8.87,1,1,0,0,0,.32-.27,6.84,6.84,0,0,0-.32-8.87,1,1,0,0,0,.32-.27,6.84,6.84,0,0,0-.32-8.87,1,1,0,0,0,.32-.27A6.66,6.66,0,0,0,323.35,22Zm-9.2-5.65a3.44,3.44,0,0,1,.15-1.08,24.14,24.14,0,0,0,2.61,1.9c2.47,1.64,4,2.78,4,4.83a3.83,3.83,0,0,1-.15,1.09,22.94,22.94,0,0,0-2.61-1.91C315.65,19.49,314.15,18.35,314.15,16.3Zm.15-10.22A24.14,24.14,0,0,0,316.91,8c2.47,1.64,4,2.78,4,4.83a3.83,3.83,0,0,1-.15,1.09A22.94,22.94,0,0,0,318.12,12c-2.47-1.64-4-2.78-4-4.83A3.44,3.44,0,0,1,314.3,6.08Zm-.15,19.36a3.44,3.44,0,0,1,.15-1.08,24.14,24.14,0,0,0,2.61,1.9c2.47,1.64,4,2.78,4,4.83a3.83,3.83,0,0,1-.15,1.09,22.94,22.94,0,0,0-2.61-1.91C315.65,28.63,314.15,27.49,314.15,25.44Zm0,9.14a3.44,3.44,0,0,1,.15-1.08,24.14,24.14,0,0,0,2.61,1.9c2.47,1.64,4,2.78,4,4.83a3.83,3.83,0,0,1-.15,1.09,22.94,22.94,0,0,0-2.61-1.91C315.65,37.77,314.15,36.63,314.15,34.58Zm0,9.14a3.44,3.44,0,0,1,.15-1.08,24.14,24.14,0,0,0,2.61,1.9c2.47,1.64,4,2.78,4,4.83a3.83,3.83,0,0,1-.15,1.09,22.94,22.94,0,0,0-2.61-1.91C315.65,46.91,314.15,45.77,314.15,43.72Zm0,9.14a3.44,3.44,0,0,1,.15-1.08,24.14,24.14,0,0,0,2.61,1.9c2.47,1.64,4,2.78,4,4.83a3.83,3.83,0,0,1-.15,1.09,22.94,22.94,0,0,0-2.61-1.91C315.65,56.05,314.15,54.91,314.15,52.86Zm6.58,15.88a22.94,22.94,0,0,0-2.61-1.91c-2.47-1.64-4-2.78-4-4.83a3.44,3.44,0,0,1,.15-1.08,24.14,24.14,0,0,0,2.61,1.9c2.47,1.64,4,2.78,4,4.83A3.83,3.83,0,0,1,320.73,68.74Z"/><path class="cls-9" d="M314.05,58.73A5.08,5.08,0,0,0,312.91,62c0,4.75,5.61,5.8,8.06,8.92a5.06,5.06,0,0,0,1.14-3.27C322.11,62.9,316.51,61.86,314.05,58.73Z"/><path class="cls-9" d="M314.05,49.59a5.08,5.08,0,0,0-1.14,3.27c0,4.75,5.61,5.8,8.06,8.92a5.06,5.06,0,0,0,1.14-3.27C322.11,53.76,316.51,52.72,314.05,49.59Z"/><path class="cls-9" d="M314.05,40.45a5.08,5.08,0,0,0-1.14,3.27c0,4.75,5.61,5.8,8.06,8.92a5.06,5.06,0,0,0,1.14-3.27C322.11,44.62,316.51,43.58,314.05,40.45Z"/><path class="cls-9" d="M314.05,31.31a5.08,5.08,0,0,0-1.14,3.27c0,4.75,5.61,5.8,8.06,8.92a5.06,5.06,0,0,0,1.14-3.27C322.11,35.48,316.51,34.44,314.05,31.31Z"/><path class="cls-9" d="M314.05,22.17a5.08,5.08,0,0,0-1.14,3.27c0,4.75,5.61,5.8,8.06,8.92a5.06,5.06,0,0,0,1.14-3.27C322.11,26.34,316.51,25.29,314.05,22.17Z"/><path class="cls-9" d="M314.05,13a5.08,5.08,0,0,0-1.14,3.27c0,4.75,5.61,5.8,8.06,8.92A5.06,5.06,0,0,0,322.11,22C322.11,17.2,316.51,16.15,314.05,13Z"/><path class="cls-9" d="M314.05,3.89a5.08,5.08,0,0,0-1.14,3.27c0,4.75,5.61,5.8,8.06,8.92a5.06,5.06,0,0,0,1.14-3.27C322.11,8.06,316.51,7,314.05,3.89Z"/><path class="cls-14" d="M323.35,22a6.62,6.62,0,0,0-1.8-4.62,1,1,0,0,0,.32-.27,6.66,6.66,0,0,0,1.48-4.25c0-3.89-2.78-5.73-5.23-7.35A13.23,13.23,0,0,1,315,2.91a1.16,1.16,0,0,0-.9-.46,1,1,0,0,0-.91.46,6.69,6.69,0,0,0-1.47,4.25,6.66,6.66,0,0,0,1.79,4.62,1.31,1.31,0,0,0-.32.27,6.87,6.87,0,0,0,.31,8.86,1.16,1.16,0,0,0-.31.28,6.87,6.87,0,0,0,.32,8.87,1.15,1.15,0,0,0-.32.27,6.87,6.87,0,0,0,.32,8.87,1.31,1.31,0,0,0-.32.27,6.87,6.87,0,0,0,.32,8.87,1.15,1.15,0,0,0-.32.27,6.87,6.87,0,0,0,.33,8.88,1.15,1.15,0,0,0-.33.26A6.69,6.69,0,0,0,311.68,62c0,3.89,2.78,5.73,5.23,7.35a13.48,13.48,0,0,1,3.16,2.55,1.13,1.13,0,0,0,.9.46h0a1.14,1.14,0,0,0,.9-.45,6.71,6.71,0,0,0,1.48-4.26,6.62,6.62,0,0,0-1.8-4.62,1,1,0,0,0,.32-.27,6.84,6.84,0,0,0-.32-8.87,1,1,0,0,0,.32-.27,6.84,6.84,0,0,0-.32-8.87,1,1,0,0,0,.32-.27,6.84,6.84,0,0,0-.32-8.87,1,1,0,0,0,.32-.27,6.84,6.84,0,0,0-.32-8.87,1,1,0,0,0,.32-.27A6.66,6.66,0,0,0,323.35,22Z"/><path class="cls-15" d="M323.35,22a6.62,6.62,0,0,0-1.8-4.62,1,1,0,0,0,.32-.27,6.66,6.66,0,0,0,1.48-4.25c0-3.89-2.78-5.73-5.23-7.35A13.23,13.23,0,0,1,315,2.91a1.16,1.16,0,0,0-.9-.46,1,1,0,0,0-.91.46,6.69,6.69,0,0,0-1.47,4.25,6.66,6.66,0,0,0,1.79,4.62,1.31,1.31,0,0,0-.32.27,6.87,6.87,0,0,0,.31,8.86,1.16,1.16,0,0,0-.31.28,6.87,6.87,0,0,0,.32,8.87,1.15,1.15,0,0,0-.32.27,6.87,6.87,0,0,0,.32,8.87,1.31,1.31,0,0,0-.32.27,6.87,6.87,0,0,0,.32,8.87,1.15,1.15,0,0,0-.32.27,6.87,6.87,0,0,0,.33,8.88,1.15,1.15,0,0,0-.33.26A6.69,6.69,0,0,0,311.68,62c0,3.89,2.78,5.73,5.23,7.35a13.48,13.48,0,0,1,3.16,2.55,1.13,1.13,0,0,0,.9.46h0a1.14,1.14,0,0,0,.9-.45,6.71,6.71,0,0,0,1.48-4.26,6.62,6.62,0,0,0-1.8-4.62,1,1,0,0,0,.32-.27,6.84,6.84,0,0,0-.32-8.87,1,1,0,0,0,.32-.27,6.84,6.84,0,0,0-.32-8.87,1,1,0,0,0,.32-.27,6.84,6.84,0,0,0-.32-8.87,1,1,0,0,0,.32-.27,6.84,6.84,0,0,0-.32-8.87,1,1,0,0,0,.32-.27A6.66,6.66,0,0,0,323.35,22Z"/><path class="cls-12" d="M323.35,22a6.62,6.62,0,0,0-1.8-4.62,1,1,0,0,0,.32-.27,6.66,6.66,0,0,0,1.48-4.25c0-3.89-2.78-5.73-5.23-7.35A13.23,13.23,0,0,1,315,2.91a1.16,1.16,0,0,0-.9-.46,1,1,0,0,0-.91.46,6.69,6.69,0,0,0-1.47,4.25,6.66,6.66,0,0,0,1.79,4.62,1.31,1.31,0,0,0-.32.27,6.87,6.87,0,0,0,.31,8.86,1.16,1.16,0,0,0-.31.28,6.87,6.87,0,0,0,.32,8.87,1.15,1.15,0,0,0-.32.27,6.87,6.87,0,0,0,.32,8.87,1.31,1.31,0,0,0-.32.27,6.87,6.87,0,0,0,.32,8.87,1.15,1.15,0,0,0-.32.27,6.87,6.87,0,0,0,.33,8.88,1.15,1.15,0,0,0-.33.26A6.69,6.69,0,0,0,311.68,62c0,3.89,2.78,5.73,5.23,7.35a13.48,13.48,0,0,1,3.16,2.55,1.13,1.13,0,0,0,.9.46h0a1.14,1.14,0,0,0,.9-.45,6.71,6.71,0,0,0,1.48-4.26,6.62,6.62,0,0,0-1.8-4.62,1,1,0,0,0,.32-.27,6.84,6.84,0,0,0-.32-8.87,1,1,0,0,0,.32-.27,6.84,6.84,0,0,0-.32-8.87,1,1,0,0,0,.32-.27,6.84,6.84,0,0,0-.32-8.87,1,1,0,0,0,.32-.27,6.84,6.84,0,0,0-.32-8.87,1,1,0,0,0,.32-.27A6.66,6.66,0,0,0,323.35,22Zm-9.2-5.65a3.44,3.44,0,0,1,.15-1.08,24.14,24.14,0,0,0,2.61,1.9c2.47,1.64,4,2.78,4,4.83a3.83,3.83,0,0,1-.15,1.09,22.94,22.94,0,0,0-2.61-1.91C315.65,19.49,314.15,18.35,314.15,16.3Zm.15-10.22A24.14,24.14,0,0,0,316.91,8c2.47,1.64,4,2.78,4,4.83a3.83,3.83,0,0,1-.15,1.09A22.94,22.94,0,0,0,318.12,12c-2.47-1.64-4-2.78-4-4.83A3.44,3.44,0,0,1,314.3,6.08Zm-.15,19.36a3.44,3.44,0,0,1,.15-1.08,24.14,24.14,0,0,0,2.61,1.9c2.47,1.64,4,2.78,4,4.83a3.83,3.83,0,0,1-.15,1.09,22.94,22.94,0,0,0-2.61-1.91C315.65,28.63,314.15,27.49,314.15,25.44Zm0,9.14a3.44,3.44,0,0,1,.15-1.08,24.14,24.14,0,0,0,2.61,1.9c2.47,1.64,4,2.78,4,4.83a3.83,3.83,0,0,1-.15,1.09,22.94,22.94,0,0,0-2.61-1.91C315.65,37.77,314.15,36.63,314.15,34.58Zm0,9.14a3.44,3.44,0,0,1,.15-1.08,24.14,24.14,0,0,0,2.61,1.9c2.47,1.64,4,2.78,4,4.83a3.83,3.83,0,0,1-.15,1.09,22.94,22.94,0,0,0-2.61-1.91C315.65,46.91,314.15,45.77,314.15,43.72Zm0,9.14a3.44,3.44,0,0,1,.15-1.08,24.14,24.14,0,0,0,2.61,1.9c2.47,1.64,4,2.78,4,4.83a3.83,3.83,0,0,1-.15,1.09,22.94,22.94,0,0,0-2.61-1.91C315.65,56.05,314.15,54.91,314.15,52.86Zm6.58,15.88a22.94,22.94,0,0,0-2.61-1.91c-2.47-1.64-4-2.78-4-4.83a3.44,3.44,0,0,1,.15-1.08,24.14,24.14,0,0,0,2.61,1.9c2.47,1.64,4,2.78,4,4.83A3.83,3.83,0,0,1,320.73,68.74Z"/><path class="cls-13" d="M314.05,58.73A5.08,5.08,0,0,0,312.91,62c0,4.75,5.61,5.8,8.06,8.92a5.06,5.06,0,0,0,1.14-3.27C322.11,62.9,316.51,61.86,314.05,58.73Z"/><path class="cls-13" d="M314.05,49.59a5.08,5.08,0,0,0-1.14,3.27c0,4.75,5.61,5.8,8.06,8.92a5.06,5.06,0,0,0,1.14-3.27C322.11,53.76,316.51,52.72,314.05,49.59Z"/><path class="cls-13" d="M314.05,40.45a5.08,5.08,0,0,0-1.14,3.27c0,4.75,5.61,5.8,8.06,8.92a5.06,5.06,0,0,0,1.14-3.27C322.11,44.62,316.51,43.58,314.05,40.45Z"/><path class="cls-13" d="M314.05,31.31a5.08,5.08,0,0,0-1.14,3.27c0,4.75,5.61,5.8,8.06,8.92a5.06,5.06,0,0,0,1.14-3.27C322.11,35.48,316.51,34.44,314.05,31.31Z"/><path class="cls-13" d="M314.05,22.17a5.08,5.08,0,0,0-1.14,3.27c0,4.75,5.61,5.8,8.06,8.92a5.06,5.06,0,0,0,1.14-3.27C322.11,26.34,316.51,25.29,314.05,22.17Z"/><path class="cls-13" d="M314.05,13a5.08,5.08,0,0,0-1.14,3.27c0,4.75,5.61,5.8,8.06,8.92A5.06,5.06,0,0,0,322.11,22C322.11,17.2,316.51,16.15,314.05,13Z"/><path class="cls-13" d="M314.05,3.89a5.08,5.08,0,0,0-1.14,3.27c0,4.75,5.61,5.8,8.06,8.92a5.06,5.06,0,0,0,1.14-3.27C322.11,8.06,316.51,7,314.05,3.89Z"/></g></g></svg>