<svg id="Layer_1" data-name="Layer 1" xmlns="http://www.w3.org/2000/svg" xmlns:xlink="http://www.w3.org/1999/xlink" viewBox="0 0 931.76 499.76"><defs><style>.cls-1{fill:none;}.cls-2{clip-path:url(#clip-path);}.cls-3{fill:#3b2769;}.cls-4{fill:#4f1f2e;}.cls-5{fill:#01182d;stroke:#98d0f9;stroke-miterlimit:10;stroke-width:3px;}.cls-6{fill:#f523f8;}.cls-7{fill:#1e1a2f;}</style><clipPath id="clip-path"><rect class="cls-1" y="591.52" width="1920" height="899.97"/></clipPath></defs><g class="cls-2"><path class="cls-3" d="M118.92,504.65c5.43-17.76,15.33-31.29,36.31-42.25,47-24.54,92.26-11.82,116,19.81,32.34,43.13,13.22,83.32-32.51,107.2C172.3,624.09,120.23,591.27,89.27,550c-58-77.38-42.58-123.64,15.67-154.07,37.27-19.46,76-14.94,87.92,1,7,9.41,4,21.57-7,27.29C165.2,435,147.4,413,122,426.26c-32.57,17-24.67,49.63-6.64,73.68Zm96.49,55.45c22.55-11.78,27.12-31.26,12-51.39-16.66-22.22-39.77-24-60.44-13.17-20.35,10.63-28,30.64-12.53,51.29C169.56,567,192.86,571.88,215.41,560.1Z"/><path class="cls-4" d="M562.94,498.91c11.32-4.23,22.12-3.61,29.4,10,10.41,19.39-33.72,44.34-4.65,164.73,3.9,15.71,2.44,22.08-11.21,27.18-16.84,6.3-25.49-.07-31.09-10.49-12.88-24-12.26-109.21,9.26-151.61l-93.79,35.09c-10.45,3.91-20.92,2.59-26.78-8.32S434,547.14,445,543Z"/></g><path class="cls-5" d="M688.21,227.07c-34.54,1.21-38.48-15.38-38.48-15.38S636.91,230,605.8,226.75s-40.4-18.92-40.4-18.92-9.29,18.92-34.95,18-41.36-15.4-41.36-15.4-9.94,49.7-39.44,63.17-64.12-.32-70.22-22.12c0,0-18.27,33-51.3,29.82s-48.41-20.53-46.49-47.14l.32-10.26-33.35,4.49-6.41-13.47S197,242.14,146,218.73c0,0,1-111.26-4.49-153.58,0,0,63.67-21.87,105.42,11.18,0,0,37.36-13.88,50.05,22.43.24.68.46,1.37.68,2.08,12,38.91-2.14.86,45.32,9.41l46.6-9.41,2.56,19.67S414,103,437.9,112.39v-5.56l47.88-6,2.14,15.39S523,87.16,567,120.51c0,0,32.92-23.09,65.41-2.57l13.68-3.42,9.83-34.63,48.31,3L694,113.24l20.52-.85-4.27,27.78L704,166.28,726.9,174S721.77,225.89,688.21,227.07Z"/><path class="cls-6" d="M244.31,169.68a45.53,45.53,0,0,1,.83,8.49,32.36,32.36,0,0,1-7.24,21.1,37.83,37.83,0,0,1-18.21,11.59q-12,3.72-28.34,3.72-19.66,0-34.76-5.38,4.75-21.51,4.76-57.31,0-39.93-6-71.17A123.86,123.86,0,0,1,188.45,76q43,0,47.79,31.65a33.65,33.65,0,0,1,.42,5.18q0,21.1-20.9,30.82Q240.17,148,244.31,169.68Zm-36.62-47.79A11.59,11.59,0,0,0,204,112q-4.14-3.72-11.59-3.73a38.37,38.37,0,0,0-8.48,1q1.65,11,2.69,27.93Q206.86,133.9,207.69,121.89Zm6.42,48.83q-1.67-14.28-26.69-12.62.41,7.86.41,15.1t-.41,13c2.06.14,4,.2,5.79.2q11,0,16.34-4.34A12,12,0,0,0,214.11,170.72Z"/><path class="cls-6" d="M284.86,97.06a16.31,16.31,0,0,1,.62,4.35q0,10.75-11.58,14.69a23.05,23.05,0,0,1-7.24,1.24,16.84,16.84,0,0,1-10.76-3.42q-4.35-3.4-4.35-9.62,0-9.72,10.55-14.27a22.45,22.45,0,0,1,8.9-1.86Q282.39,88.17,284.86,97.06Zm2.07,115.87q-7.65.82-31.24,4.13a233.47,233.47,0,0,0,2.48-36.82,362,362,0,0,0-3.72-53.18l29.38-4.55q-.61,8.69-.62,21.73Q283.21,184.38,286.93,212.93Z"/><path class="cls-6" d="M383.35,117.13q1.86,33.74,1.86,46.35,0,32.27-5.59,57.1-4.55,20.07-16.55,33.31-13.45,14.49-31.45,14.49-16.35,0-26.07-10.56t-9.72-27.31a57.67,57.67,0,0,1,2.27-15.72,145.34,145.34,0,0,0,31.45,9.93,24.88,24.88,0,0,0-.83,6.41q0,9.52,5.8,10.76,6.41,1.46,13.34-7.65t9.83-24.62a133.62,133.62,0,0,0,2.07-14.28Q345.48,215.62,324,214.17q-14.91-1-23.18-12.42-7.25-10.33-7.24-25.86a55.25,55.25,0,0,1,11.38-33.72q12.61-17,30.42-16.56a30.58,30.58,0,0,1,23.17,10.56q-1-5.38-3.52-15.94Q367,118.58,383.35,117.13Zm-32.18,37.66q-2.37-3.1-7.55-3.11-8.69,0-14.59,7.45t-5.89,14.69a12.73,12.73,0,0,0,2.79,8.49c1.86,2.2,4.52,3.31,8,3.31q8.27,0,14.48-7.66a23.56,23.56,0,0,0,5.17-14.9A13.23,13.23,0,0,0,351.17,154.79Z"/><path class="cls-6" d="M481.83,117.13q1.86,33.74,1.86,46.35,0,32.27-5.58,57.1-4.56,20.07-16.56,33.31-13.44,14.49-31.45,14.49-16.34,0-26.06-10.56t-9.73-27.31a57.69,57.69,0,0,1,2.28-15.72A145.17,145.17,0,0,0,428,224.72a24.45,24.45,0,0,0-.83,6.41q0,9.52,5.79,10.76,6.42,1.46,13.35-7.65t9.82-24.62a128.66,128.66,0,0,0,2.07-14.28Q444,215.62,422.45,214.17q-14.9-1-23.17-12.42Q392,191.42,392,175.89a55.3,55.3,0,0,1,11.37-33.72q12.63-17,30.42-16.56A30.55,30.55,0,0,1,457,136.17q-1-5.38-3.52-15.94Q465.48,118.58,481.83,117.13Zm-32.17,37.66q-2.39-3.1-7.56-3.11-8.69,0-14.58,7.45t-5.9,14.69a12.69,12.69,0,0,0,2.8,8.49c1.86,2.2,4.51,3.31,8,3.31q8.28,0,14.48-7.66a23.57,23.57,0,0,0,5.18-14.9A13.29,13.29,0,0,0,449.66,154.79Z"/><path class="cls-6" d="M571.42,173.41q-.21,20.68-11.59,31.65-9.51,9.12-24,10.14a38.22,38.22,0,0,1-25.65-7q-13.24-9.31-17.8-27.73a63.11,63.11,0,0,1-2.07-16.14q0-18.41,9.31-31,10.14-13.65,26.9-13.86,19.44-.21,30,13.45,9.11,12.4,10.14,33.93-8.49.21-16.55.83A295.53,295.53,0,0,0,516,171.55q.82,10.14,4.24,16.65t8.38,6.11q6.82-.63,6.83-11.38a28,28,0,0,0-.62-5.8Q544.31,175.9,571.42,173.41ZM537.9,155.2q-2.28-16.14-11.79-14.69-7.46,1-9.93,16.76A145.38,145.38,0,0,0,537.9,155.2Z"/><path class="cls-6" d="M649.21,192.24a20.82,20.82,0,0,1-10,18q-9.84,6.4-24.31,6.2-24-.21-38.69-19.86a129.36,129.36,0,0,1,18.62-21.52,32.66,32.66,0,0,0,9.51,11.8q5.18,3.72,9.52,3.72,4.75,0,4.76-4.14,0-5.79-13.66-11.58-22.75-9.74-23.58-26.49a24,24,0,0,1,5.6-17q7.47-8.89,22.41-9.52,29.68-1.44,39.85,31a75.13,75.13,0,0,0-26.82,7.86q-5.19-13.24-12.27-13.24-3.95,0-3.32,4.13,1,6.84,12.2,12.42,19.25,9.1,20.07,9.72Q649.42,180.86,649.21,192.24Z"/><path class="cls-6" d="M721,179.62q-2.07,18.19-10.56,27.93a25.54,25.54,0,0,1-19.65,8.89,36,36,0,0,1-5.38-.41q-25.67-4.72-25.66-52.26A206,206,0,0,1,661,142h-7.65q.4-8.69,1.65-18l8.69-.41a288.89,288.89,0,0,1,7-29.8q13,.21,28.34.83a194.43,194.43,0,0,0-8.69,27.52l20.49-1a134.42,134.42,0,0,0-2.28,22.76q-9.11-1.19-22.34-1.86a171.63,171.63,0,0,0-2.69,28.71q0,17,4.13,18.67,3.31,1.24,5.18-4.76t1.65-15.52Q707.35,173.41,721,179.62Z"/><path class="cls-5" d="M170.65,447.05,231.89,449l1.82-8.16,2.35,3.35,51.3-6.09,1-5.45c16,12.5,34,3.53,34,3.53l2.24,4.81,32.39-5.13,3.53,6.73,34.95-3.85,35.91,4.49,3.84-5.77,36.7,3.3,2.42,3.43L516,437.75c31.1,8,49.69-15.39,49.69-15.39,39.12,41.36,78.88,6.73,78.88,6.73s1.6,17,2.89,17,49.38-10.26,49.38-10.26l-5-35.39,26.55-7.15,6.95-.34s5.22-2.22,9.4-13.19c7.77-20.43-7.42-39.48-7.42-39.48-14.43-19.24-42-8.58-42-8.58V323C673.73,328.73,642,331.7,642,331.7V338c-44.89-37.51-79.2,4.49-79.2,4.49-19.88-18.28-46.17-13.15-46.17-13.15L522.71,259,466.28,269.9c9.13,20.2,4.33,67.81,4.33,67.81-26.78-17.95-49.7-3.53-49.7-3.53-12.67-9-29.5-3.36-29.5-3.36V323l-31.91,6.73-3.33-5-36.72,3.35-.35,4.36-32.38-8.73,7-44-63.48-7.38-2.62,11.86-7-7.05-53,4.49,6.87,63.08S174.92,433.8,170.65,447.05Z"/><path class="cls-6" d="M275.69,290.29Q272,311.61,272,350.7q0,40.56,3.51,81.11a226.77,226.77,0,0,0-36.2,3.31,211.26,211.26,0,0,0-25-71.17q1.65,51.32,6.83,75.1-17.17-1-36.62-1,4.34-18.42,4.34-51.73a544.85,544.85,0,0,0-6.82-89,217.44,217.44,0,0,0,37-2.48q5.58,50.9,24.62,85a508.87,508.87,0,0,0-6-92.28Q256.45,288.21,275.69,290.29Z"/><path class="cls-6" d="M358.86,430.56a120.43,120.43,0,0,0-25.65,2.49q.41-6.35.41-9.72a32.32,32.32,0,0,1-20.69,7.24,33.53,33.53,0,0,1-5.17-.42q-11.79-1.44-18-12.72T283.55,388q0-21.74,8.69-48.63l29.59,5.38q-7.66,21.74-7.66,41,0,19,7.45,20.28,6.83,1.23,12-5.38-.83-29.6-4.76-60.21,17.59.42,28.56-2.69a413.18,413.18,0,0,0-2.07,41.47A351,351,0,0,0,358.86,430.56Z"/><path class="cls-6" d="M467.69,433.05a163.5,163.5,0,0,0-28.14-3.72,129.4,129.4,0,0,0,7.25-41.8q0-20.07-7-22.55-4.14-1.44-8.07,1.66a115.26,115.26,0,0,1,2.28,24.2,229.58,229.58,0,0,1-4.76,43.87A184.7,184.7,0,0,0,401.48,431a134,134,0,0,0,6-39.31q0-24.21-7.24-26.48-4.75-1.45-8.69,2.27,1.45,40.77,4.35,65.38-7.87.42-29,3.11,2.28-24.63,2.28-48.21a316.34,316.34,0,0,0-2.9-45.93q4.54-.21,8.69-.62a73.73,73.73,0,0,0,16.55-3.73c-.14,1.8-.2,4.55-.2,8.28a24.64,24.64,0,0,1,15.72-5.8q11.79,0,18.62,11,8.69-11,20.49-11,15.51,0,22.75,17.38,5.18,12.42,5.18,30.42Q474.11,408.42,467.69,433.05Z"/><path class="cls-6" d="M564.31,390q-1.23,18-10.86,28.86t-24.52,10.45a34.17,34.17,0,0,1-20.48-7.25c.28,1.94.55,4.76.83,8.49q-12.21,1.23-27.31,3.72,3.51-33.3,3.51-80.9,0-44.68-3.51-73.65,14.89-2.07,34.34-5.59-3.94,27.53-7,75.52a33.27,33.27,0,0,1,24.81-9.1q16.26.82,24.6,18.62A62.51,62.51,0,0,1,564.31,390Zm-26.89-1a23.35,23.35,0,0,0-5.59-14.79q-5.18-5.9-11.38-4.87a12.07,12.07,0,0,0-9.1,6,22.4,22.4,0,0,0-2.9,12.42A20.4,20.4,0,0,0,512.8,400a13.11,13.11,0,0,0,10.13,5,12.36,12.36,0,0,0,10.56-4.24A16.25,16.25,0,0,0,537.42,389Z"/><path class="cls-6" d="M651.63,390.43q-.21,20.69-11.59,31.65-9.52,9.12-24,10.14a38.27,38.27,0,0,1-25.66-7q-13.25-9.31-17.79-27.73a63.11,63.11,0,0,1-2.07-16.14q0-18.4,9.31-31,10.14-13.65,26.9-13.86,19.44-.21,30,13.45,9.1,12.4,10.14,33.93-8.49.21-16.56.83a295.6,295.6,0,0,0-34.13,3.93q.81,10.14,4.24,16.65t8.38,6.11q6.83-.63,6.82-11.38a27.3,27.3,0,0,0-.62-5.8Q624.53,392.92,651.63,390.43Zm-33.52-18.21q-2.28-16.14-11.8-14.69-7.44,1-9.93,16.76A145.53,145.53,0,0,0,618.11,372.22Z"/><path class="cls-6" d="M730,378.64q-12.82,1.23-30.41,6.82.61-18.61-6.21-19.86-6.21-1.25-10.35,6,1.45,35.17,5.38,59.59a93.63,93.63,0,0,0-29.58,3.93q2.05-27.93,2.07-50.07,0-25.24-2.69-43.24,4.54-.21,8.69-.62a69.62,69.62,0,0,0,16.13-3.73v11a31.83,31.83,0,0,1,22.57-9.11Q730.66,339.32,730,378.64Z"/><path class="cls-7" d="M332.63,301.47c18.9,0,34.47-8.25,45.89-18.13,12.16,9.66,28.74,15.55,46.47,15.55a79.07,79.07,0,0,0,26.26-4.46c-.57-6.86,11.69-23.81,10.08-27.36l-13.64,8.18c-28.78,11.19-62.37-2.77-68.26-23.81,0,0-18.27,33-51.3,29.82a85.41,85.41,0,0,1-14-2.47L311,298.63a108.18,108.18,0,0,0,15.21,2.53C328.34,301.37,330.5,301.47,332.63,301.47Z"/><path class="cls-7" d="M281.64,234.12l.32-10.26-33.35,4.49-6.41-13.47S197,242.14,146,218.73c0,0,1-111.26-4.49-153.58,0,0,63.67-21.87,105.42,11.18,0,0,37.36-13.88,50.05,22.43.24.68.46,1.37.68,2.08,12,38.91-2.14.86,45.32,9.41l46.6-9.41,2.56,19.67S414,103,437.9,112.39v-5.56l47.88-6,2.14,15.39S523,87.16,567,120.51c0,0,32.92-23.09,65.41-2.57l13.68-3.42,9.83-34.63,48.31,3L694,113.24l20.52-.85-4.27,27.78L704,166.28,726.9,174s-5.13,51.94-38.69,53.12c-34.54,1.21-38.48-15.38-38.48-15.38S636.91,230,605.8,226.75s-40.4-18.92-40.4-18.92-9.29,18.92-34.95,18-41.36-15.4-41.36-15.4-6.57,35.54-26.3,54.64l36.82-21.94c.45-1.06.88-2.1,1.29-3.13,1.72.65,3.53,1.26,5.4,1.83l38.62-7.46-.9,10.43a57.66,57.66,0,0,0,22.82-9.56c8.6,5.1,20.6,9.76,36.91,11.44a90.63,90.63,0,0,0,9.23.48c15.06,0,26.64-3.91,35.08-8.6,8.12,4.88,19.81,8.61,36.62,8.61,1.38,0,2.8,0,4.23-.07,12.62-.45,35.86-6.14,49.69-39.29a121.44,121.44,0,0,0,8.2-31.86l1.57-15.86-20.66-6.92,2.16-9.12L738,91.39l-15.71.66,9.29-27.51-90.46-5.6L630.92,94.77a73.15,73.15,0,0,0-27.64-5.33,87.16,87.16,0,0,0-35.13,7.77c-14.31-8.45-29.21-12.72-44.45-12.72A80.38,80.38,0,0,0,504,86.94l-1.16-8.4-85,10.63v.67a66.16,66.16,0,0,0-9.38,1.47L406.65,77,342.59,89.93a90,90,0,0,0-12.82-1,62.34,62.34,0,0,0-14.48,1.61c-8.81-23.44-27.8-36.83-52.35-36.83a71.88,71.88,0,0,0-11.91,1c-17.51-11.09-38.77-16.7-63.36-16.7A178.64,178.64,0,0,0,135,46.23l-15.42,5.3,2.08,16.17C126.9,108.18,126,217.46,126,218.56l-.11,12.95,11.77,5.4a122.9,122.9,0,0,0,51.65,11.31A133.87,133.87,0,0,0,232.47,241l4.36,9.15,18,10.23c.37,3.21,7.86-.79,8.68,2.21l22.57-3.91C282.46,251.78,281,243.54,281.64,234.12Z"/><path class="cls-7" d="M743.1,328c-8.87-11.68-22.21-18.44-37.83-19.21V290.6l-28.94,14.47c-4.81,2.4-22.94,5.47-36.21,6.72l-.94.09a71.72,71.72,0,0,0-35-9.43c-18.51,0-33.22,7.52-43.07,14.72a75.83,75.83,0,0,0-22.68-7.42l5.63-65a64.55,64.55,0,0,1-11.69,1.06h0c-.86,0-1.74,0-2.62,0a90.6,90.6,0,0,1-23.41-4l-6.69,1.3c-3.12,7.36-41.68,17.08-39.38,28L522.71,259l-6.09,70.38s26.29-5.13,46.17,13.15c0,0,34.31-42,79.2-4.49V331.7s31.74-3,43.28-8.74v8.74s27.58-10.66,42,8.58c0,0,15.19,19.05,7.42,39.48-4.18,11-9.4,13.19-9.4,13.19l-6.95.34-26.55,7.15,5,35.39s-48.1,10.26-49.38,10.26-2.89-17-2.89-17-39.76,34.63-78.88-6.73c0,0-18.59,23.41-49.69,15.39l-41.69,6.41-2.42-3.43-36.7-3.3-3.84,5.77-35.91-4.49-34.95,3.85-3.53-6.73L324.55,441l-2.24-4.81s-18,9-34-3.53l-1,5.45-51.3,6.09-2.35-3.35L231.89,449l-61.24-1.92c4.27-13.25,3.85-102.37,3.85-102.37l-6.87-63.08,53-4.49,7,7.05,2.62-11.86,87.77,8.13c-17.07-6.85-24.17-8-31.94-21.78l-71.46-8.3L163,239.49,145.53,263.4l9,82.41c.17,39.4-.91,86.59-3,95.34l-8.09,25.05,104.36,3.28,1.51-6.75,44.62-5.3a51.89,51.89,0,0,0,13.72,1.84c1.14,0,2.24,0,3.32-.11l1.82,3.91,33.09-5.24,3.19,6.1,46.19-5.08,45.84,5.73,4.11-6.17,15.64,1.41,4.23,6,50.19-7.72a70,70,0,0,0,13.52,1.33,67.64,67.64,0,0,0,36.65-10.79c15.93,11.3,31.21,14,42.26,14a74.53,74.53,0,0,0,24.07-4.09,20.51,20.51,0,0,0,15.66,7.51c2.67,0,3.39,0,53.55-10.7l18.25-3.9-5.15-36.34,7.39-2,8.36-.41,3.28-1.39c3.92-1.67,13.76-7.39,20.27-24.49C762.66,362.51,751.37,338.56,743.1,328Z"/><path class="cls-7" d="M319.1,332.42l.35-4.36,36.72-3.35,3.33,5L391.41,323v7.86s16.83-5.61,29.5,3.36c0,0,22.92-14.42,49.7,3.53,0,0,4.43-42.81-4.77-69.31-3.73,2.9-3.46,21.34-7.88,23.35-2.2,1-4.44,1.89-6.71,2.68.39,4.65.58,9.76.61,14.92-3.06-.43-6.63-16.32-9.76-16.32-8.45,0-14.62.71-20.09,2.55-3.19-1.16-5.53-2.22-9-2.72l-18-3.75L368.6,307.33l-2.42-3.62-56.83,5.18L311,298.63c-7.05-1.72-11.05-17.09-16.72-20.2l-7.55,45.26Z"/></svg>