<svg xmlns="http://www.w3.org/2000/svg" xmlns:xlink="http://www.w3.org/1999/xlink" viewBox="0 0 512 512"><defs><style>.cls-1{fill:#b96e2c;}.cls-2{isolation:isolate;}.cls-3{clip-path:url(#clip-path);}.cls-4{opacity:0.38;}.cls-5{fill:#9b561e;}.cls-6{fill:none;stroke:#7a4218;stroke-miterlimit:10;}.cls-7{fill:#7f4b25;}.cls-8{mix-blend-mode:screen;opacity:0.22;}.cls-9{fill:#494949;}</style><clipPath id="clip-path"><polygon class="cls-1" points="-50.65 288.41 -502.43 288.41 -512.93 270.36 -502.43 252.3 -50.65 252.3 -41.11 270.36 -50.65 288.41"/></clipPath></defs><g class="cls-2"><g id="Layer_1" data-name="Layer 1"><polygon class="cls-1" points="-50.65 288.41 -502.43 288.41 -512.93 270.36 -502.43 252.3 -50.65 252.3 -41.11 270.36 -50.65 288.41"/><g class="cls-3"><g class="cls-4"><path class="cls-5" d="M-569.09,249.26c-2.66,5.12,331.61,1.4,388,7.7,27.33,3,298.07,1.6,219.58,0C38.5,257-566.45,244.15-569.09,249.26Z"/><path class="cls-5" d="M-569.09,266.56c-2.66,5.13,331.61,1.4,388,7.67,27.33,3.06,298.07,1.61,219.58,0C38.5,274.23-566.45,261.43-569.09,266.56Z"/><path class="cls-6" d="M-569.09,266.56c-2.66,5.13,331.61,1.4,388,7.67,27.33,3.06,298.07,1.61,219.58,0C38.5,274.23-566.45,261.43-569.09,266.56Z"/><path class="cls-7" d="M5.36,279c-37.8-8.95-127.1,11.35-258.62,23-94.19,8.38,31-.46,59.1-3.87,16.45-2,88.63-13.13,146.24-16.74,41.11-2.54,43.39,1.62,55.38,4.28C36.21,292.08,55.47,290.83,5.36,279Z"/><path class="cls-7" d="M48.26,299.66c13.76,7.74,26.26,12.45,0,0Z"/><path class="cls-7" d="M-59.95,285.19c-70.67,8-173.49,15.14-170.3,19.11s102.43.95,132.79,4.16,86.1,5.61,106.51,13,7.47-3.78-62.46-10.69c-43.5-4.28-132.23-5-149.18-5.24-16.27-.24-53.07-1,43.4-10,56.33-5.26,89.33-8.17,96.46-9.13,3.13-.39,9.32-1.65,17.58-2.63-1.85.16-3.62.28-5.56.45C-53.69,284.53-56.76,284.82-59.95,285.19Z"/><path class="cls-7" d="M-43.35,283.18c16.8.85,64.61,3.84,84.61,13.21,2.6,1.19,4.9,2.29,7,3.27a99.38,99.38,0,0,1-13.61-8.84S-7.08,283.7-43.35,283.18Z"/><path class="cls-7" d="M-97.46,294.82c49.37-4.34,83.07-11,110.27-3s31.19,12.11,22,5.67c0,0-6.8-5.05-23.71-8.19-12.24-2.28-29.79-3.53-53.89-1.14-57.42,5.68-165.9,14-167.47,15.2s66.3,2.28,109.37,2.55S-2.61,313.17,11,318.18s13.41-1.66-15.32-7-153.67-6.66-157.48-7.84S-146.85,299.13-97.46,294.82Z"/><path class="cls-7" d="M-97.46,295.18c49.39-4.31,83.07-11,110.28-3s31.2,12.11,22,5.67c0,0-6.8-5.06-23.71-8.2-12.24-2.25-29.79-3.53-53.91-1.14-57.42,5.68-165.88,14-167.47,15.22s66.32,2.29,109.39,2.55S-2.61,313.56,11,318.55s13.42-1.66-15.31-7-153.69-6.67-157.48-7.81S-146.83,299.52-97.46,295.18Z"/><path class="cls-7" d="M-62.59,296.09c11.58-.32,22.8-1.53,34.52-1.4,1.86,0,6.12-.13,7.21.93-1.26.69-3.19.69-4.8.69-5.81.05-11.6.1-17.38.12-2.33,0-4.84.07-6.7.91,2.93.54,5.87,1.11,8.78,1.63a36.21,36.21,0,0,0,7.21.82c2.51-.05,3.7-.83,5.78-1.38,4.8-1.27,11.33-1.3,16.48-1.24a165.34,165.34,0,0,1,33.18,4.16,33.24,33.24,0,0,0,7.71,1.06,2.91,2.91,0,0,0,1.31-.28c.42-.31.21-.82-.26-1.1-1.78-1.07-6.7-1.64-9.07-2.16-3.44-.76-6.94-1.46-10.46-2.07a237.51,237.51,0,0,0-26.43-3.17c-6.46-.42-13.34-.61-20.63-.46-30.67.63-98.29,7.08-83.71,8.21s155.07,6.86,155.07,6.86c-22.69-11.34-106.09-4.46-111.53-8.87C-79.7,296.16-64.73,296.16-62.59,296.09Z"/><path class="cls-7" d="M-62.57,296.78c11.58-.35,22.8-1.53,34.5-1.43,1.88,0,6.16-.12,7.23,1-1.26.67-3.19.67-4.8.67-5.79,0-11.61.09-17.4.11-2.33,0-4.82.08-6.66.91,2.91.56,5.85,1.1,8.76,1.64a37,37,0,0,0,7.23.81c2.49-.05,3.69-.83,5.78-1.38,4.78-1.27,11.31-1.29,16.46-1.24A164.91,164.91,0,0,1,21.73,302a34.18,34.18,0,0,0,7.69,1.06,2.55,2.55,0,0,0,1.3-.27c.43-.3.24-.81-.25-1.1-1.79-1.08-6.7-1.63-9.07-2.16q-5.17-1.14-10.46-2.09a244.1,244.1,0,0,0-26.44-3.16c-6.45-.41-13.35-.59-20.62-.43-30.67.61-98.29,7.06-83.71,8.2s155.07,6.84,155.07,6.84C12.55,297.53-70.85,304.42-76.29,300-79.68,296.85-64.71,296.82-62.57,296.78Z"/><g class="cls-8"><path class="cls-7" d="M5.36,279.49c-37.78-8.95-127.08,11.35-258.62,23.07-94.15,8.37,31-.49,59.12-3.9,16.45-2,88.61-13.13,146.24-16.71,41.11-2.57,43.39,1.61,55.36,4.25C36.23,292.59,55.49,291.35,5.36,279.49Z"/><path class="cls-7" d="M48.26,300.18c13.8,7.71,26.26,12.44,0,0Z"/><path class="cls-7" d="M-59.93,285.71c-70.69,8-173.49,15.13-170.32,19.11s102.45.94,132.81,4.15,86.08,5.59,106.51,13,7.47-3.77-62.47-10.68c-43.5-4.29-132.22-5-149.17-5.23-16.29-.23-53.06-1,43.4-10,56.32-5.23,89.33-8.17,96.46-9.11,3.13-.41,9.31-1.64,17.58-2.62-1.85.15-3.64.25-5.55.45C-53.67,285-56.74,285.33-59.93,285.71Z"/><path class="cls-7" d="M-43.33,283.7c16.82.82,64.59,3.81,84.61,13.18,2.6,1.21,4.9,2.29,7,3.3a102.29,102.29,0,0,1-13.59-8.85S-7.06,284.19-43.33,283.7Z"/><path class="cls-7" d="M-97.46,295.31c49.41-4.31,83.09-11,110.28-3s31.2,12.11,22,5.67c0,0-6.8-5.05-23.71-8.19-12.24-2.25-29.79-3.53-53.91-1.13-57.42,5.67-165.88,14-167.47,15.19s66.32,2.31,109.41,2.55S-2.59,313.68,11,318.67s13.42-1.66-15.31-7-153.66-6.67-157.48-7.83S-146.83,299.64-97.46,295.31Z"/><path class="cls-7" d="M-97.42,295.7c49.37-4.34,83.05-11,110.26-3s31.2,12.14,22,5.69c0,0-6.78-5.05-23.69-8.19-12.24-2.28-29.79-3.55-53.92-1.14-57.41,5.68-165.89,14-167.46,15.19s66.3,2.29,109.39,2.57S-2.57,314.05,11.06,319s13.39-1.66-15.32-7-153.68-6.7-157.5-7.84S-146.83,300-97.42,295.7Z"/><path class="cls-7" d="M-62.57,296.6c11.56-.34,22.8-1.51,34.5-1.42,1.88,0,6.14-.13,7.23.95-1.26.69-3.21.67-4.8.69-5.79,0-11.61.08-17.4.13-2.33,0-4.82,0-6.68.91l8.78,1.61a34.67,34.67,0,0,0,7.23.81c2.49,0,3.69-.81,5.78-1.38,4.76-1.24,11.29-1.3,16.46-1.24a165.9,165.9,0,0,1,33.2,4.16,31.27,31.27,0,0,0,7.69,1.05,2.3,2.3,0,0,0,1.29-.27c.44-.29.25-.8-.24-1.1-1.79-1.08-6.7-1.61-9.07-2.15q-5.19-1.16-10.46-2.06A239.8,239.8,0,0,0-15.5,294.1c-6.45-.42-13.35-.58-20.64-.44-30.65.61-98.27,7.06-83.69,8.22s155.07,6.83,155.07,6.83c-22.69-11.34-106.11-4.46-111.53-8.87C-79.68,296.68-64.71,296.65-62.57,296.6Z"/><path class="cls-7" d="M-62.53,297.27C-51,297-39.75,295.74-28,295.84c1.86,0,6.12-.12,7.21,1-1.26.69-3.21.67-4.8.69L-43,297.6c-2.33,0-4.84.08-6.7.91l8.78,1.62a34.67,34.67,0,0,0,7.23.8c2.47,0,3.7-.8,5.76-1.37,4.79-1.24,11.33-1.27,16.48-1.24a164.71,164.71,0,0,1,33.18,4.16,32.79,32.79,0,0,0,7.71,1.06,2.34,2.34,0,0,0,1.28-.27c.45-.3.26-.81-.23-1.1-1.79-1.06-6.7-1.63-9.09-2.16C18,299.25,14.48,298.56,11,298a247.25,247.25,0,0,0-26.44-3.19c-6.45-.41-13.33-.59-20.62-.43-30.67.63-98.29,7.05-83.71,8.2s155.07,6.83,155.07,6.83C12.57,298-70.83,304.91-76.27,300.52-79.66,297.34-64.69,297.34-62.53,297.27Z"/></g><path class="cls-7" d="M-313.17,238.86c-34.81-3.92-129.14-14.44-146.16-15-19.9-.61,81.79,9.11,156,17.86C-233.48,250-100.7,248.3-57,249.31c44.72,1,229,2.75,172.11-1.24C83.64,245.9-257.59,245.1-313.17,238.86Z"/><path class="cls-7" d="M-312.74,231.92C-347.26,229-441.33,222-458.26,221.55s88.71,6.79,155.33,12.14c69.57,5.56,201.39,7.09,244.85,8.27,44.45,1.2,228.3,2.39,171.26,1.15C80.9,242.31-260.64,236.3-312.74,231.92Z"/><path class="cls-7" d="M-312.84,234.55c-34.5-2.92-128.57-9.88-145.52-10.37S-369.63,231-303,236.31c69.58,5.56,201.38,7.09,244.84,8.26,44.48,1.21,228.31,2.36,171.26,1.15C80.8,245.1-260.72,238.93-312.84,234.55Z"/><path class="cls-7" d="M99.47,222.24s-15.29,1.11-34.71,2.21c-21.07,1.18-47,2.38-63.54,2.13-31.74-.44-232.25,1.32-257.53-2.2-4.89-.67-9.78-1.23-14.54-1.69-19.85-2-36.84-2.25-36.84-2.25l49.1,5.6,5,.59s80.38,2.55,163,2.57H16C57.59,229.2,207.77,213.11,99.47,222.24Z"/><path class="cls-7" d="M122.25,222c-3.61,0-123.09,8.1-171.8,8.51-18.68.15-152.77-3.67-167.15-3.38-23.31.46-81.6,2.3-92.08-.91s11.34,7.11,41.15,4.24,90,.2,136.51,1.3c18.35.44,82.27,6.57,154.63-1.25C67.75,225.77,187.85,223,122.25,222Z"/><path class="cls-7" d="M122.25,222.51s-63.65,3.65-90.57,6.71S-286,232.59-360.4,219.3c-30.13-5.39-56.4-8.57-75.3-10.49,33.38,5.62,83.23,17.92,106.05,19.31,30.92,1.92,261.11,6.9,279.23,7.22C-79.5,234.85,205.4,225.82,122.25,222.51Z"/><path class="cls-7" d="M-31.94,262.37c15.46.16,26.26.41,30.52.68,25.75,1.59,118.64,0,118.64,0C179.24,261.32,24.61,262.29-31.94,262.37Z"/><path class="cls-7" d="M-55.24,257c-2.76.06,17.65-.26,6.18,0,39.43-.12,40.24.53,47.81.79,25.88.94,118.64,0,118.64,0C200.31,255.52-81.71,257.61-55.24,257Z"/><path class="cls-5" d="M127.56,254.85c-43.73-2.26-457.54,1.51-580.17,15.47-114.64,13.05,51.85-.94,145.14-6.37,215.5-12.57,515.3-4.89,460.82-6.94Z"/><path class="cls-7" d="M116.4,257.35c-49.9-.74-148.58-1-161.69-.55-44.6,1.25,51.36-.66,100.37.21,21.92.41,61,.69,63.6,2.11,2.19,1.17,3.4,2.38,3.4,7.4,0,7.2-14.07,5.63-14.79,6.66s26.45,6.49,18.91-14.43C126.2,258.75,127.87,257.5,116.4,257.35Z"/><path class="cls-7" d="M125.13,241.77s-3.23-.56-47.21-1.22c-8-.12-75.09.4-79.88.87s68.53.22,81.76,1.09,42.88.56,45.25,1.54C125.05,244.05,126.88,242.29,125.13,241.77Z"/><g class="cls-8"><path class="cls-7" d="M-313.21,239.49c-34.79-3.92-129.12-14.43-146.16-14.92-19.86-.61,81.79,9.12,156,17.84,69.87,8.23,202.65,6.53,246.36,7.53,44.7,1,229,2.76,172.11-1.21C83.63,246.38-257.61,245.75-313.21,239.49Z"/><path class="cls-7" d="M-312.76,232.59c-34.52-2.92-128.59-9.88-145.52-10.37s88.71,6.78,155.34,12.1c69.56,5.59,201.36,7.12,244.82,8.29,44.47,1.21,228.3,2.37,171.26,1.15C80.86,243.12-260.66,237-312.76,232.59Z"/><path class="cls-7" d="M-312.86,235.17c-34.52-2.87-128.59-9.86-145.52-10.32s88.71,6.76,155.36,12.09c69.56,5.58,201.36,7.12,244.82,8.3,44.48,1.2,228.31,2.36,171.24,1.14C80.78,245.59-260.74,239.57-312.86,235.17Z"/><path class="cls-7" d="M99.45,222.9s-15.29,1.1-34.71,2.18c-21.09,1.21-47,2.38-63.54,2.16-31.74-.43-232.25,1.3-257.54-2.2-4.87-.66-9.79-1.23-14.53-1.72-19.85-1.93-36.86-2.23-36.86-2.23l49.1,5.62,5,.56s80.37,2.57,163,2.57l106.57,0C57.59,229.86,207.77,213.74,99.45,222.9Z"/><path class="cls-7" d="M122.23,222.71c-3.61-.05-123.09,8.08-171.8,8.48-18.67.14-152.77-3.66-167.15-3.36-23.31.47-81.6,2.28-92.08-.91s11.34,7.11,41.15,4.24,90,.19,136.53,1.3c18.31.44,82.23,6.56,154.6-1.24C67.72,226.41,187.83,223.61,122.23,222.71Z"/><path class="cls-7" d="M122.21,223.15s-63.63,3.68-90.55,6.71-317.73,3.35-392.08-9.89c-30.14-5.39-56.4-8.61-75.3-10.49,33.38,5.61,83.21,17.91,106.05,19.31,30.92,1.88,261.1,6.89,279.23,7.22C-79.52,235.49,205.4,226.48,122.21,223.15Z"/><path class="cls-7" d="M-31.95,263c15.45.16,26.25.42,30.51.65,25.75,1.6,118.64.07,118.64.07C179.22,262,24.61,262.93-31.95,263Z"/><path class="cls-7" d="M-55.26,257.66c-2.76.07,17.67-.24,6.2,0,39.41-.13,40.24.51,47.8.79,25.87.93,118.63,0,118.63,0C200.29,256.18-81.71,258.27-55.26,257.66Z"/><path class="cls-7" d="M127.52,255.52C83.81,253.23-330,257-452.63,271c-114.64,13,51.85-.93,145.14-6.36,215.5-12.57,515.3-4.89,460.82-6.93Z"/><path class="cls-7" d="M115.57,258.75c-47-7-147.4.44-160.51.83-44.6,1.34,50-.84,99,0,21.92.39,61.67-.23,63.73,1.53s3.19,4.67,1.73,7c-1.09,1.7-11.5,4.71-12.24,5.75s26.47,6.48,18.91-14.47A60.48,60.48,0,0,1,115.57,258.75Z"/><path class="cls-7" d="M125.11,242.41s-3.23-.54-47.21-1.2c-8-.12-75.11.4-79.88.87s68.53.21,81.75,1.09,42.89.56,45.26,1.54C125,244.71,126.84,242.92,125.11,242.41Z"/></g></g></g></g><g id="Layer_2" data-name="Layer 2"><path class="cls-9" d="M300.28,283.52a.86.86,0,0,0-.23-.33l-.1-.08a2.14,2.14,0,0,0-.37-.23l-.09-.05a6.09,6.09,0,0,0-.61-.22l-.25-.06-.55-.13-.27-.05-.83-.13-.45-.06-.51-.06-.54-.06h-.17c-3.95-.35-9-.36-10.08-1.18-1.84-1.37-4.61-13.62-6.91-13.64s-5.31,12.16-7.18,13.49-14.37.18-15.1,2.35,9.93,8.81,10.61,11c.39,1.22-1,5.33-1.95,9h0c-.22.85-.42,1.67-.58,2.43v0c-.06.32-.12.62-.16.91l0,.19c0,.23-.06.46-.07.67a2,2,0,0,0,0,.23,4.68,4.68,0,0,0,0,.53,1.34,1.34,0,0,1,0,.2,2.38,2.38,0,0,0,.09.42s0,.09,0,.13a.82.82,0,0,0,.26.36c1.84,1.36,11.45-6.73,13.74-6.7s10.58,7.3,13.17,7.12a.88.88,0,0,0,.44-.14c1.86-1.33-2.86-13-2.13-15.14.47-1.39,5-4.5,8.09-7.14,1.44-1.24,2.55-2.38,2.75-3.19a.82.82,0,0,0,0-.44h0Z"/></g></g></svg>