<svg xmlns="http://www.w3.org/2000/svg" xmlns:xlink="http://www.w3.org/1999/xlink" viewBox="0 0 44.64 42.6"><defs><style>.cls-1{fill:#b96e2c;}.cls-2{isolation:isolate;}.cls-3{clip-path:url(#clip-path);}.cls-4{opacity:0.38;}.cls-5{fill:#9b561e;}.cls-6{fill:none;stroke:#7a4218;stroke-miterlimit:10;}.cls-7{opacity:0.22;mix-blend-mode:screen;}.cls-8{fill:#7f4b25;}.cls-9{fill:#fce77e;}.cls-10{fill:#f9d953;}.cls-11{fill:#fff;}</style><clipPath id="clip-path"><polygon class="cls-1" points="-106.34 67.58 -687.94 67.58 -701.46 44.34 -687.94 21.11 -106.34 21.11 -94.05 44.34 -106.34 67.58"/></clipPath></defs><g class="cls-2"><g id="Layer_1" data-name="Layer 1"><polygon class="cls-1" points="-106.34 67.58 -687.94 67.58 -701.46 44.34 -687.94 21.11 -106.34 21.11 -94.05 44.34 -106.34 67.58"/><g class="cls-3"><g class="cls-4"><path class="cls-5" d="M-773.76,17.19c-3.43,6.59,426.9,1.79,499.52,9.9,35.18,3.92,383.71,2.06,282.67,0C8.43,27.09-770.36,10.61-773.76,17.19Z"/><path class="cls-5" d="M-773.76,39.46c-3.43,6.6,426.9,1.81,499.52,9.88,35.18,3.93,383.71,2.07,282.67,0C8.43,49.34-770.36,32.86-773.76,39.46Z"/><path class="cls-6" d="M-773.76,39.46c-3.43,6.6,426.9,1.81,499.52,9.88,35.18,3.93,383.71,2.07,282.67,0C8.43,49.34-770.36,32.86-773.76,39.46Z"/><path class="cls-8" d="M-444.3,3.8c-44.81-5-166.24-18.59-188.16-19.25-25.62-.79,105.29,11.73,200.8,23,90,10.59,260.88,8.4,317.15,9.69,57.58,1.3,294.84,3.55,221.57-1.58C66.54,12.86-372.75,11.83-444.3,3.8Z"/><path class="cls-8" d="M-443.74-5.13c-44.44-3.73-165.55-12.72-187.34-13.35s114.2,8.74,200,15.62C-341.55,4.3-171.85,6.27-115.9,7.78-58.68,9.33,178,10.86,104.56,9.27,63,8.24-376.67.51-443.74-5.13Z"/><path class="cls-8" d="M-443.87-1.75C-488.29-5.51-609.39-14.47-631.21-15.1S-517-6.37-431.24.52C-341.66,7.67-172,9.64-116,11.15c57.25,1.55,293.91,3,220.47,1.48C62.88,11.83-376.78,3.88-443.87-1.75Z"/><path class="cls-8" d="M-82.25,34.06c19.89.22,33.8.53,39.28.88C-9.81,37,109.77,35,109.77,35,189.61,32.71-9.46,34-82.25,34.06Z"/><path class="cls-8" d="M-112.25,27.17c-3.56.08,22.72-.32,8,0,50.77-.15,51.8.69,61.56,1,33.31,1.21,152.73.05,152.73.05C216.73,25.25-146.33,27.93-112.25,27.17Z"/><path class="cls-5" d="M123.08,24.39c-56.3-2.92-589,1.94-746.88,19.91C-771.39,61.1-557.06,43.09-437,36.1c277.42-16.18,663.37-6.29,593.24-8.94Z"/><path class="cls-8" d="M108.71,27.6c-64.24-1-191.27-1.22-208.15-.71-57.42,1.61,66.11-.85,129.21.27,28.23.53,78.49.89,81.87,2.72,2.83,1.51,4.38,3.06,4.38,9.52,0,9.27-18.11,7.26-19,8.58S131,56.33,121.32,29.41C121.32,29.41,123.48,27.79,108.71,27.6Z"/><path class="cls-8" d="M120,7.55S115.8,6.83,59.17,6c-10.31-.15-96.66.51-102.84,1.12s88.23.29,105.27,1.4,55.2.73,58.25,2C119.85,10.48,122.2,8.21,120,7.55Z"/><g class="cls-7"><path class="cls-8" d="M-444.34,4.61C-489.13-.44-610.57-14-632.51-14.59c-25.57-.79,105.29,11.73,200.83,23C-341.73,19-170.8,16.78-114.53,18.06-57,19.39,180.3,21.61,107,16.5,66.53,13.49-372.77,12.67-444.34,4.61Z"/><path class="cls-8" d="M-443.77-4.27C-488.21-8-609.32-17-631.11-17.62s114.2,8.73,200,15.57c89.55,7.2,259.23,9.16,315.18,10.68,57.25,1.55,293.9,3,220.46,1.48C63,9.28-376.7,1.36-443.77-4.27Z"/><path class="cls-8" d="M-443.9-.95c-44.43-3.7-165.54-12.7-187.33-13.29s114.2,8.7,200,15.56C-341.68,8.51-172,10.49-116.06,12c57.26,1.54,293.91,3,220.45,1.47C62.86,12.46-376.8,4.71-443.9-.95Z"/><path class="cls-8" d="M116.2-16.43S34.27-11.7-.38-7.78s-409,4.31-504.75-12.75c-38.8-6.93-72.61-11.07-96.93-13.49,43,7.21,107.12,23.06,136.52,24.85C-425.73-6.75-129.42-.29-106.07.12-143.5-.54,223.29-12.14,116.2-16.43Z"/><path class="cls-8" d="M-82.27,34.91c19.89.21,33.8.54,39.28.84,33.16,2.06,152.73.1,152.73.1C189.58,33.57-9.46,34.78-82.27,34.91Z"/><path class="cls-8" d="M-112.28,28c-3.55.08,22.75-.32,8,0,50.75-.16,51.8.66,61.54,1,33.3,1.2,152.72,0,152.72,0C216.71,26.09-146.33,28.79-112.28,28Z"/><path class="cls-8" d="M123,25.25c-56.28-3-589,1.89-746.86,19.89-147.58,16.8,66.75-1.2,186.84-8.2C-159.56,20.76,226.38,30.66,156.26,28Z"/><path class="cls-8" d="M107.64,29.41C47.19,20.37-82.11,30-99,30.47c-57.42,1.73,64.31-1.08,127.41,0,28.22.5,79.39-.29,82,2s4.11,6,2.23,8.95c-1.4,2.19-14.81,6.06-15.76,7.4S131,57.19,121.28,30.22A78.71,78.71,0,0,1,107.64,29.41Z"/><path class="cls-8" d="M119.92,8.37s-4.15-.7-60.77-1.54C48.84,6.66-37.54,7.34-43.69,8s88.22.26,105.24,1.4,55.22.72,58.27,2C119.82,11.33,122.15,9,119.92,8.37Z"/></g></g></g></g><g id="Layer_3" data-name="Layer 3"><path class="cls-9" d="M35.73,42.34c-1.87,1.33-11.31-7-13.61-7s-11.9,8.06-13.74,6.7S11.5,29.15,10.82,27-.53,18.13.2,16s13.24-1,15.11-2.35S20.19.09,22.49.11s5.06,12.28,6.9,13.65,14.37.47,15.06,2.66S34.33,25,33.6,27.2,37.6,41,35.73,42.34Z"/><path class="cls-10" d="M33.54,14.54C32.47,26.06,22,35.22,8.85,35.94c-.77,2.9-1.29,5.51-.47,6.12,1.84,1.36,11.45-6.73,13.74-6.7s11.74,8.31,13.61,7-2.86-13-2.13-15.14,11.53-8.59,10.85-10.78C44,14.91,37.89,14.87,33.54,14.54Z"/><path class="cls-11" d="M22.23,1a.25.25,0,0,0-.2.14c-.39.85-.76,1.7-1.12,2.55-1.09,2.6-2,5.24-3,7.86a6.22,6.22,0,0,1-1.29,2.33,4.17,4.17,0,0,1-2,1,12.8,12.8,0,0,1-2.34.26c-2.27.12-4.53.23-6.79.28a11.86,11.86,0,0,0-3,.32A5.66,5.66,0,0,0,1,16.34a.23.23,0,0,0-.13.21.24.24,0,0,0,.13.21.26.26,0,0,0,.24,0,5.33,5.33,0,0,1,1.32-.57,11.86,11.86,0,0,1,2.89-.29c2.27-.06,4.54-.17,6.8-.28a13.3,13.3,0,0,0,2.42-.28,4.64,4.64,0,0,0,2.22-1.14,6.84,6.84,0,0,0,1.41-2.5c1-2.62,1.94-5.26,3-7.84.35-.85.72-1.7,1.11-2.54a.21.21,0,0,0,0-.23A.26.26,0,0,0,22.23,1Z"/></g></g></svg>