<svg id="Layer_1" data-name="Layer 1" xmlns="http://www.w3.org/2000/svg" xmlns:xlink="http://www.w3.org/1999/xlink" viewBox="0 0 242 74"><defs><style>.cls-1{opacity:0.2;}.cls-2{fill:url(#Áåçûìÿííûé_ãðàäèåíò_19);}.cls-3{fill:#ffaf18;}.cls-4{fill:#ffb71b;}.cls-5,.cls-8{fill:#d99400;}.cls-6{fill:#ef9113;}.cls-7{fill:#ffe7b8;}.cls-8{opacity:0.5;}.cls-9{fill:#7eb82f;}.cls-10{fill:#68a71d;}.cls-11{fill:#87bc1c;}.cls-12{fill:#469025;}.cls-13{fill:#ffd500;}.cls-14{fill:#fee7a2;}.cls-15{fill:#ffb900;}.cls-16{fill:#fde486;}.cls-17{fill:#f5fffe;}.cls-18{fill:#fefbee;opacity:0.3;}</style><linearGradient id="Áåçûìÿííûé_ãðàäèåíò_19" x1="660.1" y1="-5.79" x2="660.1" y2="-63.1" gradientTransform="matrix(-0.96, 0.27, 0.27, 0.96, 799.24, -109.93)" gradientUnits="userSpaceOnUse"><stop offset="0" stop-color="#ffc328"/><stop offset="0.52" stop-color="#ffce38"/><stop offset="1" stop-color="#ffd442"/></linearGradient></defs><ellipse class="cls-1" cx="158.73" cy="49.64" rx="66.6" ry="12.06" transform="translate(-3.9 14.87) rotate(-5.3)"/><path class="cls-2" d="M83.87,32.4c-.36-2,1.31-5.25,3.25-4.68,4.14,1.23,1.45-4.69,8.2-2.48a4.47,4.47,0,0,1,6.55-2.36c.8-3.42,6.07-4.77,8.44-2.17a3.78,3.78,0,0,1,2.53-3.56,3.84,3.84,0,0,1,4.21,1.3,3.32,3.32,0,0,1,2.38-3.3,3.38,3.38,0,0,1,3.78,1.59c.71-3.28,6-4.37,7.93-1.66a5.65,5.65,0,0,1,7.91-2.18c.75-3,5.42-3.93,7.31-1.54,1.46-3.31,6.63-4.26,9.18-1.7a5.19,5.19,0,0,1,8-.95,5,5,0,0,1,7.61-1.39,5.67,5.67,0,0,1,8.63-1.18c1-1.58,4-2.28,5.69-2.53,1.57-.23,3.32,1.07,4.8.54a14.91,14.91,0,0,0,2.36-1.61c1.56-1.13,3.67-.94,5.58-.7.3,0,1.21.9,1.5.82A16.7,16.7,0,0,1,208.07,2c8.74,1.7,14.36,10.24,16.58,18.69,1.68,6.37,1.61,13.87-4,18.34-1,.79-2.09,1.4-3,2.21-1.61,1.37-2.73,3.25-4.36,4.6s-3.43,1.69-7,1.41c-.7,1.28-.23,1.89-1.31,2.86a4.44,4.44,0,0,1-4,1.18c-1.06-.29-2.1-1.11-3.13-.73-1.73.64-2.23,2.25-4.17,2.75s-4.25,0-6.28.46-5.13.91-5.62-1.13c-1.61,2.7-6.32,2.7-7.9,0a5.57,5.57,0,0,1-7.73,1c-1.73,2.94-6.85,3-8.57,0-1.89,2.76-6.74,2.75-8.58,0A4.2,4.2,0,0,1,142.39,55a4.76,4.76,0,0,1-7.23-.43c-1.49,3.25-7,3.5-8.78.39a3.71,3.71,0,0,1-3.85,2.3,3.58,3.58,0,0,1-3-3.23c-.69,2-4.33,2.71-5.61,1.05-1.46-1.89-2.42-1.73-3.44-.67-1.66,1.7-6.94-2.51-7.16-3.23-1.86.94-2.15,1.62-4.23,1.53s-4.85-2.92-4.76-5c-4,1.8-7.76-1.61-8-5.7l-.52,0a5,5,0,0,1-1.92-9.62Z"/><path class="cls-3" d="M105.33,53.06c.2.33-.24-.31,0,0Z"/><path class="cls-3" d="M140.58,43c23.71-8.21,29.19-16.68,39.07-32.19a52.16,52.16,0,0,0,3.08-5.56c.83-.6,2.09-2,3.12-2.17,1.48-.27,2.52,1.24,4,1.17a1.81,1.81,0,0,0,1.31-.49c1.49-1.69,4.79-3,7.09-1.88a6.61,6.61,0,0,0,1.48.74A5,5,0,0,0,202.31,2c2-.71,4.18-.15,6.21.41l3.95,1.09c1.16.31,2.48.79,2.84,1.93a2.56,2.56,0,0,0,.28.86,1.8,1.8,0,0,0,1,.54c4.87,1.64,6.93,9.4,8.1,13.87a26.21,26.21,0,0,1,.49,11.45c-.12.69-.95,3.69-.66,4.22,1.88,3.46-2.68,3.55-2.71,3.72-.33,2-2.58,1.16-4.54,1.72a3.69,3.69,0,0,0-1.32.5.89.89,0,0,0-.23,1.24c-1.51,2.6-5,4.44-8,3.79-.62-.13-1.23-.65-1.49-.08a1.59,1.59,0,0,0-.08.53c-.17,2.19-2.56,3.58-4.75,3.75-1.34.11-3.31-.91-4.45-.6-.53.15-.31,1.2-.49,1.59,0,.07,0,0-.13.13-3.11,1.73-6,.45-9,1.12-2.09.47-5.13.91-5.62-1.13-1.61,2.7-6.32,2.7-7.9,0a5.57,5.57,0,0,1-7.73,1c-1.73,2.94-6.85,3-8.57,0-1.89,2.76-6.74,2.75-8.58,0A4.2,4.2,0,0,1,142.39,55a4.76,4.76,0,0,1-7.23-.43c-1.49,3.25-7,3.5-8.78.39a3.71,3.71,0,0,1-3.85,2.3,3.58,3.58,0,0,1-3-3.23c-.69,2-4.15,2.57-5.61,1.05-2.06-2.14-2.21-1.41-4-.25-1.26.83-3.92-.92-4.59-1.79C108.6,51.5,133.66,45.44,140.58,43Z"/><path class="cls-4" d="M84.76,35.7c-.14-.28-.2-.52-.35-.76s-.25-.46-.36-.67c-.44-.85-.68-1.44-.68-1.44s.44.47,1,1.23l.46.61a4.2,4.2,0,0,1,.47.76,11.4,11.4,0,0,1,.75,1.74,9.36,9.36,0,0,1,.49,3.51,6,6,0,0,1-.27,1.58l0-.44c0-.27-.06-.66-.11-1.13a18.23,18.23,0,0,0-.76-3.3C85.21,36.8,85,36.23,84.76,35.7Z"/><path class="cls-4" d="M87.06,34.64A5.54,5.54,0,0,0,88.44,34a2.49,2.49,0,0,0,.59-.53,1.88,1.88,0,0,0,.21-.31,1.54,1.54,0,0,0,.16-.38,4.11,4.11,0,0,0,0-1.64c-.07-.57-.13-1.09-.22-1.53-.19-.9-.29-1.52-.29-1.52A9.16,9.16,0,0,1,90.06,31a4.08,4.08,0,0,1,0,1.94,3,3,0,0,1-.21.48,2.14,2.14,0,0,1-.32.45,3.27,3.27,0,0,1-.79.62,5.19,5.19,0,0,1-1.62.49,7.17,7.17,0,0,1-1.59.06S86.17,34.92,87.06,34.64Z"/><path class="cls-4" d="M94.53,28.52a1.11,1.11,0,0,0,.49-.26.51.51,0,0,0,.09-.44c-.06-.46-.08-.91-.11-1.29,0-.76,0-1.27,0-1.27s.2.47.42,1.2c.1.37.24.78.34,1.26a1.11,1.11,0,0,1-.17,1,1.72,1.72,0,0,1-.81.51,26.66,26.66,0,0,1-2.76.7,12.13,12.13,0,0,1-1.28.19,12.28,12.28,0,0,1,1.17-.57A25.73,25.73,0,0,1,94.53,28.52Z"/><path class="cls-4" d="M101.44,26c0-.05,0-.11,0-.16l.19-.06Z"/><path class="cls-4" d="M101.48,25.87c0,.05,0,.11,0,.16l.23-.22-.19.06a5.19,5.19,0,0,0,.27-1.58,5.88,5.88,0,0,0-.32-1.83,3.92,3.92,0,0,1,.66,3.79l0,.16-.18.06c-.78.25-1.58.45-2.38.64a24.74,24.74,0,0,1-2.46.41,22.75,22.75,0,0,1,2.29-1C100,26.3,100.75,26.07,101.48,25.87Z"/><path class="cls-4" d="M105.18,24.75c.46-.1,1-.25,1.57-.36s1.22-.23,1.79-.35a1.1,1.1,0,0,0,1-.9,12.31,12.31,0,0,0,.32-1.5c.13-.9.17-1.52.17-1.52a6.51,6.51,0,0,1,.23,1.54,8.69,8.69,0,0,1-.11,1.62,1.74,1.74,0,0,1-.47.95,2,2,0,0,1-1,.49c-.66.12-1.25.2-1.85.27s-1.14.11-1.61.15c-.94.07-1.58.06-1.58.06S104.26,25,105.18,24.75Z"/><path class="cls-4" d="M111.77,22.92a1.88,1.88,0,0,1,.87-.58,27.35,27.35,0,0,0,2.83-.72,2.94,2.94,0,0,0,1.72-1.92,2.34,2.34,0,0,0-.14-1.25,2.78,2.78,0,0,1,.24.29,1.84,1.84,0,0,1,.3,1,2.28,2.28,0,0,1-.47,1.43,3.64,3.64,0,0,1-1.35,1.09,4.47,4.47,0,0,1-1.67.37,12.72,12.72,0,0,0-1.36.09,1.88,1.88,0,0,0-.87.3,2.78,2.78,0,0,0-.29.24A1.74,1.74,0,0,1,111.77,22.92Z"/><path class="cls-4" d="M119.24,20.1a3,3,0,0,1,.67-.32,2.4,2.4,0,0,1,.84-.11,5.19,5.19,0,0,0,1.51.15,1.41,1.41,0,0,0,.87-.88,2.35,2.35,0,0,0,.11-1.25c-.06-.39-.13-.73-.19-1l-.09-.37a3.28,3.28,0,0,1,.22.32,5.46,5.46,0,0,1,.45.91,3.43,3.43,0,0,1,.16.7,2,2,0,0,1-.06.83,1.9,1.9,0,0,1-1.3,1.37,2.19,2.19,0,0,1-1,0c-.28-.06-.54-.15-.74-.18a2.16,2.16,0,0,0-.67,0,2.24,2.24,0,0,0-.59.17,2.45,2.45,0,0,0-.79.53,2.15,2.15,0,0,0-.25.29,1.43,1.43,0,0,1,.13-.37A2.36,2.36,0,0,1,119.24,20.1Z"/><path class="cls-4" d="M131.29,19.18c0-.31-.07-.63-.1-.94a7,7,0,0,1,.87.42Z"/><path class="cls-4" d="M128.55,17.79a6.45,6.45,0,0,1,2.64.45c0,.31.06.63.1.94l.77-.52a7,7,0,0,0-.87-.42,23.43,23.43,0,0,1-.08-3.56,23.92,23.92,0,0,1,1.2,4.34l.19,1-1-.52a7.53,7.53,0,0,0-1.45-.57,8.23,8.23,0,0,0-1.56-.28,8.77,8.77,0,0,0-1.62,0c-.28,0-.55.05-.83.1l-.84.19A5.62,5.62,0,0,1,128.55,17.79Z"/><path class="cls-4" d="M136.65,17.08l.42.06.39.1.71.17a1.16,1.16,0,0,0,.78,0c0,.1,0,.2,0,.31l.16-.37s-.11,0-.16.06c0-1.56,0-3.11,0-4.74a12.64,12.64,0,0,1,1,5v.2l-.16.17a1.55,1.55,0,0,1-1,.44,2.9,2.9,0,0,1-.92-.11,5.5,5.5,0,0,1-.75-.25l-.34-.12-.33-.09a11.32,11.32,0,0,0-2.94-.09,10.36,10.36,0,0,1,1.46-.59A4.65,4.65,0,0,1,136.65,17.08Z"/><path class="cls-4" d="M139,17.7c0-.11,0-.21,0-.31s.13,0,.16-.06Z"/><path class="cls-4" d="M144.55,15.46a6.06,6.06,0,0,1,2.18.44c.05.35.1.69.17,1l.79-.55a5.11,5.11,0,0,0-1-.49,11.59,11.59,0,0,1,0-3.67c.45,1.52.78,3,1.16,4.47l.31,1.19-1.1-.64a8.36,8.36,0,0,0-5.63-.87A5.25,5.25,0,0,1,144.55,15.46Z"/><path class="cls-4" d="M146.9,16.94c-.07-.35-.12-.69-.17-1a5.11,5.11,0,0,1,1,.49Z"/><path class="cls-4" d="M87.2,41.46h0l0,0Z"/><path class="cls-4" d="M87,41c.09.16.17.31.24.46h0l0,0,0,0a3.49,3.49,0,0,0,3.58-2.57A4.46,4.46,0,0,0,91,37.7a6.29,6.29,0,0,0-.11-1.22,11.7,11.7,0,0,0-.81-2.4,6.45,6.45,0,0,1,1.32,2.27,4.55,4.55,0,0,1,.26,1.32A4.37,4.37,0,0,1,91.49,39a3.84,3.84,0,0,1-1.65,2.24,3.6,3.6,0,0,1-1.32.5,2.45,2.45,0,0,1-1.37-.16H87.1v0C87.05,41.38,87,41.19,87,41Z"/><path class="cls-4" d="M96.77,38.05l0,0,0,0Z"/><path class="cls-4" d="M94.63,39.07A3.53,3.53,0,0,0,96.79,38l0,0,0-.07,0,0A10.86,10.86,0,0,0,97.24,37a9.72,9.72,0,0,0,.27-1.16,8,8,0,0,0,0-2.39,8.16,8.16,0,0,0-.67-2.31c-.18-.36-.37-.72-.59-1.07a10.14,10.14,0,0,0-.77-1,6.22,6.22,0,0,1,1.72,1.87,7.33,7.33,0,0,1,.94,2.4,7.45,7.45,0,0,1,.06,2.58,9,9,0,0,1-.31,1.27,7.25,7.25,0,0,1-.55,1.2l0,0,0,0a3.8,3.8,0,0,1-5.19.11,3.7,3.7,0,0,0,1.22.5A4.37,4.37,0,0,0,94.63,39.07Z"/><path class="cls-4" d="M102.86,37.58s0,0,0-.08l.08-.06Z"/><path class="cls-4" d="M102.88,37.5s0,0,0,.08l.1-.14-.08.06a13.47,13.47,0,0,0,.51-5.16,13.84,13.84,0,0,0-.51-2.61c-.27-.86-.57-1.71-.87-2.57a13.19,13.19,0,0,1,2,5.1,11.13,11.13,0,0,1-.58,5.51l0,.09-.06,0a3.77,3.77,0,0,1-4.71-.17,3.78,3.78,0,0,0,2.26.52A3.45,3.45,0,0,0,102.88,37.5Z"/><path class="cls-4" d="M108.3,36.19a10.94,10.94,0,0,0,2.55-1.09,3,3,0,0,0,1-1,3.1,3.1,0,0,0,.37-1.37,14.21,14.21,0,0,0-.31-3.11c-.18-1-.4-1.95-.6-2.75a2.75,2.75,0,0,0-.92-1.62.93.93,0,0,0-.7-.18,1,1,0,0,1,.8,0,2.91,2.91,0,0,1,1.4,1.6,18,18,0,0,1,.94,2.75,11.89,11.89,0,0,1,.46,3.37,4.26,4.26,0,0,1-.54,1.81,3.75,3.75,0,0,1-1.36,1.27,8.56,8.56,0,0,1-2.91.89,5.18,5.18,0,0,1-2.13-.06,2.26,2.26,0,0,1-.73-.32,2.85,2.85,0,0,0,.77.12A6,6,0,0,0,108.3,36.19Z"/><path class="cls-4" d="M113.91,35a1.76,1.76,0,0,0,.41.43,2.87,2.87,0,0,0,2,.31,4.29,4.29,0,0,0,2.5-1.2,2.06,2.06,0,0,0,.51-1.3,5.51,5.51,0,0,0-.22-1.61c-.58-2.32-1.08-4.67-1.39-6.45s-.44-3-.44-3,.46,1.12,1,2.83,1.25,4,1.84,6.35a6.39,6.39,0,0,1,.21,1.93,2.91,2.91,0,0,1-.84,1.85,3.78,3.78,0,0,1-1.59.93,5.34,5.34,0,0,1-1.57.25,3,3,0,0,1-2.18-.76,1.27,1.27,0,0,1-.36-.77Z"/><path class="cls-4" d="M122.59,34.66a4.34,4.34,0,0,0,2.19.21,8.54,8.54,0,0,0,1.43-.24.92.92,0,0,0,.68-.8,7.28,7.28,0,0,0,0-1.65c0-.61-.13-1.22-.23-1.83A36.07,36.07,0,0,0,125,23.7c-.62-1.78-1.12-3-1.12-3a14.35,14.35,0,0,1,1.87,2.65A19.88,19.88,0,0,1,128,30.13c.1.65.16,1.3.2,1.94a6.46,6.46,0,0,1-.11,2,2.05,2.05,0,0,1-.6,1,2.23,2.23,0,0,1-1,.5,7.05,7.05,0,0,1-1.7,0,4.13,4.13,0,0,1-2.34-.79,1.88,1.88,0,0,1-.54-.73l.16.16A2.55,2.55,0,0,0,122.59,34.66Z"/><path class="cls-4" d="M132.45,31.7a4.24,4.24,0,0,0,.78-.8,4.5,4.5,0,0,0,.56-1.07,7.09,7.09,0,0,0,.33-2.68A15.29,15.29,0,0,0,132.9,22c-.29-.69-.59-1.23-.79-1.67a.88.88,0,0,1-.05-.74.82.82,0,0,0,.29.59,11.35,11.35,0,0,1,1.26,1.43A9.74,9.74,0,0,1,134.9,24a10,10,0,0,1,.43,1.5,11.65,11.65,0,0,1,.21,1.6,6.71,6.71,0,0,1-.6,3.22,4.46,4.46,0,0,1-.91,1.28,4,4,0,0,1-1.15.8,3.35,3.35,0,0,1-2,.32,2.29,2.29,0,0,1-.71-.23,3.38,3.38,0,0,0,.71,0A3.58,3.58,0,0,0,132.45,31.7Z"/><path class="cls-4" d="M136.66,31.86a3.64,3.64,0,0,0,2-.24c.4-.14.84-.34,1.3-.55a3.48,3.48,0,0,0,1.14-.75,3.53,3.53,0,0,0,.65-2.74c-.06-1.08-.36-2.23-.53-3.33s-.31-2.14-.44-3a3.56,3.56,0,0,0-.78-1.81,1.63,1.63,0,0,0-.47-.33l-.2-.08a1.5,1.5,0,0,1,.84.19,3.39,3.39,0,0,1,1.39,1.8c.34.89.59,1.85.89,2.93a20.9,20.9,0,0,1,.73,3.48,6.5,6.5,0,0,1-.15,2A3.51,3.51,0,0,1,142,31.19a4,4,0,0,1-1.64.85,8.6,8.6,0,0,1-1.48.36,3.52,3.52,0,0,1-2.3-.28,1.67,1.67,0,0,1-.61-.59l.18.12A1.78,1.78,0,0,0,136.66,31.86Z"/><path class="cls-4" d="M145.55,30.69a4.14,4.14,0,0,0,2.07,0c.43-.09.88-.23,1.38-.38a3.94,3.94,0,0,0,1.27-.59,1.69,1.69,0,0,0,.52-1.13,12.84,12.84,0,0,0,.13-1.67,15.8,15.8,0,0,0-1.14-6.17,19.5,19.5,0,0,0-.92-1.94c-.26-.46-.4-.73-.4-.73s.24.19.63.56a10.11,10.11,0,0,1,1.42,1.75,11.31,11.31,0,0,1,1.33,2.9,11.76,11.76,0,0,1,.51,3.65,13.47,13.47,0,0,1-.2,1.89,3.8,3.8,0,0,1-.35,1,3,3,0,0,1-.35.49,3.24,3.24,0,0,1-.42.37,4.22,4.22,0,0,1-1.79.62,9.3,9.3,0,0,1-1.53.17,3.92,3.92,0,0,1-2.29-.52,2.38,2.38,0,0,1-.6-.62A2,2,0,0,0,145.55,30.69Z"/><path class="cls-5" d="M158.93,19.28a7.1,7.1,0,0,0-.55-.79,6.32,6.32,0,0,0-.62-.66,7.18,7.18,0,0,0-5.57-1.66,6.58,6.58,0,0,0-1,.19l.23-.13a3.68,3.68,0,0,1,.68-.32,6.52,6.52,0,0,1,2.73-.4,6.6,6.6,0,0,1,4.57,2.17,6.07,6.07,0,0,1,.69.9,10,10,0,0,1,1,2.07,17.42,17.42,0,0,1,.53,2.16,7.13,7.13,0,0,1,.15,2.25,2.79,2.79,0,0,1-.16.59,2.46,2.46,0,0,1-.3.56,4,4,0,0,1-.77.81,7.3,7.3,0,0,1-1.63.94,4.31,4.31,0,0,1-2.75.42,1.42,1.42,0,0,1-.84-.58,1.48,1.48,0,0,0,.21.14,1.59,1.59,0,0,0,.68.18,4.28,4.28,0,0,0,2.31-.87,7.83,7.83,0,0,0,1.31-1,2.84,2.84,0,0,0,.48-.63,2.4,2.4,0,0,0,.13-.32,1.23,1.23,0,0,0,.08-.39,7,7,0,0,0-.26-1.84,14.81,14.81,0,0,0-.53-2A8.17,8.17,0,0,0,158.93,19.28Z"/><path class="cls-5" d="M165.07,27c.57-.13,1.24-.24,2-.33a16.15,16.15,0,0,0,2.1-.36,3.84,3.84,0,0,0,1.69-.78,2.36,2.36,0,0,0,.74-1.36,8.57,8.57,0,0,0,.1-1.32v-.54a4.9,4.9,0,0,1,.26.48,4.25,4.25,0,0,1,.45,1.39,2.84,2.84,0,0,1-.06,1.07,2.7,2.7,0,0,1-.58,1.11,4.3,4.3,0,0,1-2.26,1.3,9.69,9.69,0,0,1-2.39.24c-.73,0-1.41-.05-2-.11a14.2,14.2,0,0,1-2-.29A15.19,15.19,0,0,1,165.07,27Z"/><path class="cls-5" d="M177.27,25.89c.47-.06,1-.12,1.4-.15a3.65,3.65,0,0,0,.54-.08,2,2,0,0,0,.4-.15A1,1,0,0,0,180,25a.6.6,0,0,0,0-.33.72.72,0,0,1,.25.29,1.15,1.15,0,0,1-.12,1.07,1.64,1.64,0,0,1-.55.53,2.48,2.48,0,0,1-.71.31,13.34,13.34,0,0,1-4.13.46,6.71,6.71,0,0,1-1.26-.16,6.51,6.51,0,0,1,1.15-.55A14.08,14.08,0,0,1,177.27,25.89Z"/><path class="cls-4" d="M92.37,41.5a4.84,4.84,0,0,1,1,1,5.25,5.25,0,0,1,.72,1.37,5.42,5.42,0,0,1,.28,1.52,4.9,4.9,0,0,1-.16,1.33,3.6,3.6,0,0,1-.35.87c-.12.2-.19.3-.19.3l.06-.34a6.06,6.06,0,0,0,.08-.89,5.84,5.84,0,0,0-.07-1.22,7.24,7.24,0,0,0-.32-1.34,7.42,7.42,0,0,0-1.28-2.27,6.79,6.79,0,0,0-.62-.65l-.26-.24.34.13A3.63,3.63,0,0,1,92.37,41.5Z"/><path class="cls-4" d="M99.72,46.29a.87.87,0,0,0,.64-.57,2.1,2.1,0,0,0,0-1,14.62,14.62,0,0,0-.64-2.3,16.9,16.9,0,0,0-.84-1.92,20.56,20.56,0,0,0-1.06-1.79,9.09,9.09,0,0,1,1.4,1.59A11.15,11.15,0,0,1,101,44.52a2.81,2.81,0,0,1,0,1.41,1.51,1.51,0,0,1-1.13,1,5.94,5.94,0,0,1-1.2.11l-1,0c-1.28,0-2.14,0-2.14,0s.84-.19,2.1-.4C98.23,46.54,99,46.46,99.72,46.29Z"/><path class="cls-4" d="M103.94,46.09a3.11,3.11,0,0,0,.94-1.22,4.09,4.09,0,0,0,.28-1.73,12.34,12.34,0,0,0-.23-1.84,10.23,10.23,0,0,0-.36-1.59,1.89,1.89,0,0,0-.62-.91,1.31,1.31,0,0,0-.4-.2,1.21,1.21,0,0,1,.47.08,1.92,1.92,0,0,1,.91.86,7.18,7.18,0,0,1,.61,1.62,8.54,8.54,0,0,1,.33,2,4,4,0,0,1-.43,2,3.19,3.19,0,0,1-1.29,1.29,2.29,2.29,0,0,1-1.24.28,1.87,1.87,0,0,1-.46-.11,1.77,1.77,0,0,0,.46,0A2.3,2.3,0,0,0,103.94,46.09Z"/><path class="cls-4" d="M108.86,46a6.38,6.38,0,0,0,2.16-.74,3.53,3.53,0,0,0,1.63-1.8,6.87,6.87,0,0,0,.24-2.53,15.31,15.31,0,0,0-.17-2.29,4.82,4.82,0,0,0-.53-1.52,4.27,4.27,0,0,0-.35-.52,3,3,0,0,1,.47.44,4.21,4.21,0,0,1,.8,1.5,12,12,0,0,1,.41,2.36,6.64,6.64,0,0,1-.2,2.8,4,4,0,0,1-2,2.1,6.43,6.43,0,0,1-2.41.59,12.46,12.46,0,0,1-1.71,0l-.65-.06.65-.07C107.59,46.17,108.18,46.1,108.86,46Z"/><path class="cls-4" d="M116.38,46.05a11.34,11.34,0,0,0,2.54,0,2,2,0,0,0,1.61-1.63,14.78,14.78,0,0,0,.25-2.84,10.61,10.61,0,0,0-.21-2.5,4.24,4.24,0,0,0-.7-1.62,3.9,3.9,0,0,0-.46-.53,5.89,5.89,0,0,1,.61.39,4.1,4.1,0,0,1,1.13,1.57,8.14,8.14,0,0,1,.57,2.66,11.55,11.55,0,0,1-.15,3.12,3.23,3.23,0,0,1-.88,1.56,2.84,2.84,0,0,1-1.63.73,8.32,8.32,0,0,1-2.77-.34,8.3,8.3,0,0,0-1.82-.27,6.06,6.06,0,0,0-.71.05,4,4,0,0,1,.68-.25A6.56,6.56,0,0,1,116.38,46.05Z"/><path class="cls-4" d="M123.43,46.52a9.06,9.06,0,0,1,2-.09,9.94,9.94,0,0,0,1.22,0,2.24,2.24,0,0,0,1.07-.39,3.55,3.55,0,0,0,1.16-2.21,8.14,8.14,0,0,0,.22-1.43,11.09,11.09,0,0,0,0-1.41A12,12,0,0,0,128,36.71l-.32-.66a6.47,6.47,0,0,1,.55.5,7.24,7.24,0,0,1,1.18,1.59,8.29,8.29,0,0,1,.93,2.67,8.42,8.42,0,0,1,.12,1.61,10,10,0,0,1-.2,1.66,4.39,4.39,0,0,1-1.92,3,3.18,3.18,0,0,1-1.68.37,6.58,6.58,0,0,1-1.37-.21,16.6,16.6,0,0,0-1.86-.43,4,4,0,0,0-.73,0A2.89,2.89,0,0,1,123.43,46.52Z"/><path class="cls-5" d="M134.53,44.41c.39-.11.83-.22,1.28-.32s.71-.26.79-.47a4.32,4.32,0,0,0,.18-1.25,9,9,0,0,0,0-1.47A12.33,12.33,0,0,0,136.2,38a14.46,14.46,0,0,0-1-2.42c-.37-.68-.73-1.24-1-1.63s-.43-.6-.43-.6.23.13.63.41a8.63,8.63,0,0,1,1.47,1.37,9.4,9.4,0,0,1,1.51,2.44,10.5,10.5,0,0,1,.78,3.2,10.85,10.85,0,0,1,0,1.71,4,4,0,0,1-.47,1.74,1.69,1.69,0,0,1-.85.7,3.42,3.42,0,0,1-.85.18c-.48,0-.92.07-1.33.09a25.85,25.85,0,0,1-2.75,0A26.54,26.54,0,0,1,134.53,44.41Z"/><path class="cls-5" d="M145.26,42.85v-.24l.2-.17Z"/><polygon class="cls-5" points="143.1 32.47 143.06 32.46 143.05 32.45 143.1 32.47"/><path class="cls-5" d="M144.2,43.38a5.42,5.42,0,0,0,1.06-.77v.24l.2-.41-.2.17c.06-.84.09-1.68.07-2.52s-.09-1.84-.19-2.75a7.71,7.71,0,0,0-2.08-4.88h0l0,0h0l-.53-.15.59-.05h0l0,0a5,5,0,0,1,2.18,2,9,9,0,0,1,1.06,2.8,17.62,17.62,0,0,1,.18,5.84l0,.26-.17.15a6.24,6.24,0,0,1-3.53,1.5,5.5,5.5,0,0,1-3.56-.82,7.09,7.09,0,0,0,3.4-.06A6.31,6.31,0,0,0,144.2,43.38Z"/><path class="cls-5" d="M151,42.86c.8-.18,1.79-.35,2.08-.92a3,3,0,0,0,.21-1.18c0-.53.05-1.06.07-1.59a22.16,22.16,0,0,0,0-3.05,11.62,11.62,0,0,0-.18-1.37,11.41,11.41,0,0,0-.31-1.19,7.82,7.82,0,0,0-.79-1.72,5.71,5.71,0,0,0-.42-.62,4.5,4.5,0,0,1,.64.44,5.75,5.75,0,0,1,1.32,1.56,6.88,6.88,0,0,1,.59,1.25,8.45,8.45,0,0,1,.4,1.48,15.46,15.46,0,0,1,.18,3.27c-.05.54-.09,1.09-.13,1.62a3.41,3.41,0,0,1-.56,1.81,2.5,2.5,0,0,1-1.61.91,8,8,0,0,1-1.4.09,27.21,27.21,0,0,1-2.78-.06A27,27,0,0,1,151,42.86Z"/><path class="cls-5" d="M159.93,42.3a4.73,4.73,0,0,0,1.42-.71,3.37,3.37,0,0,0,1-1.27,5.27,5.27,0,0,0,.38-1.78,11.34,11.34,0,0,0-.08-2,16.62,16.62,0,0,0-.86-3.9,14.83,14.83,0,0,0-.7-1.69,2.94,2.94,0,0,0-1-1.11,3.33,3.33,0,0,0-2.31-.5,2.88,2.88,0,0,0-.94.28,2.77,2.77,0,0,1,.86-.54,3.62,3.62,0,0,1,2.79.05A3.58,3.58,0,0,1,162,30.41a10.84,10.84,0,0,1,1,1.78,14.44,14.44,0,0,1,1.1,4.2,12.87,12.87,0,0,1,0,2.24,5.76,5.76,0,0,1-.62,2.21,4.06,4.06,0,0,1-1.54,1.61,4.91,4.91,0,0,1-1.83.62,9.82,9.82,0,0,1-2.71,0c-.64-.09-1-.17-1-.17l1-.1A12.62,12.62,0,0,0,159.93,42.3Z"/><path class="cls-5" d="M168.39,40.72a7.77,7.77,0,0,0,2.39-1.47,4,4,0,0,0,1.32-2.56,10.8,10.8,0,0,0,0-1.62c0-.56,0-1.11-.07-1.65a8.68,8.68,0,0,0-.51-2.74A4.72,4.72,0,0,0,170.44,29a3,3,0,0,0-.64-.48,2.48,2.48,0,0,1,.8.25,4.2,4.2,0,0,1,1.67,1.51,7.13,7.13,0,0,1,1,3,16.18,16.18,0,0,1,.2,3.55,4.91,4.91,0,0,1-.63,1.9,5.21,5.21,0,0,1-1.28,1.43,6.79,6.79,0,0,1-3,1.31,11.06,11.06,0,0,1-2.2.2c-.53,0-.83,0-.83,0l.79-.25C166.88,41.25,167.59,41,168.39,40.72Z"/><path class="cls-5" d="M177.92,27.66a3.61,3.61,0,0,1,2,.39l.24.15.18.14a3,3,0,0,1,.41.37,3,3,0,0,1,.54.82,4.42,4.42,0,0,1,.41,1.55,4.75,4.75,0,0,1-.08,1.5s-.32-.53-.71-1.28a9.7,9.7,0,0,0-.71-1.15,4.32,4.32,0,0,0-.45-.5c-.09-.09-.16-.14-.23-.2l-.17-.11-.14-.07a5.27,5.27,0,0,0-2.68-.42c-.85,0-1.49,0-1.49,0a5.13,5.13,0,0,1,1.31-.79A4.72,4.72,0,0,1,177.92,27.66Z"/><path class="cls-4" d="M102.3,49.37c0-.41,0-.83-.09-1.16s0-.58,0-.58a1.77,1.77,0,0,1,.42.45,2.54,2.54,0,0,1,.43,1.24,2.65,2.65,0,0,1-.26,1.29,1.67,1.67,0,0,1-.36.5s0-.25,0-.58S102.33,49.78,102.3,49.37Z"/><path class="cls-6" d="M111.86,53a4.45,4.45,0,0,0,.34-1.26A4.2,4.2,0,0,0,112,49.6a4.83,4.83,0,0,0-.33-.64,4.49,4.49,0,0,0-.81-1,5,5,0,0,0-1.07-.79,3.12,3.12,0,0,1,1.32.48,4.43,4.43,0,0,1,1.09,1,4.28,4.28,0,0,1,.43.72,4.37,4.37,0,0,1,.27.82,4,4,0,0,1-.64,3,3.16,3.16,0,0,1-1,1A5.07,5.07,0,0,0,111.86,53Z"/><path class="cls-6" d="M119.21,50.85a13.94,13.94,0,0,1,.18-2.1,8.74,8.74,0,0,1,.22-1,7.08,7.08,0,0,1,.18,1,13.33,13.33,0,0,1,.13,2.11,13.72,13.72,0,0,1-.19,2.1,7.16,7.16,0,0,1-.21,1,7.49,7.49,0,0,1-.19-1A14.66,14.66,0,0,1,119.21,50.85Z"/><path class="cls-6" d="M124.77,47.94A3.11,3.11,0,0,1,126.11,49a3.8,3.8,0,0,1,.47.84,4.3,4.3,0,0,1,.26,1,10,10,0,0,1-.35,3.38c-.21.87-.31,1.48-.31,1.48a5.77,5.77,0,0,1-.3-1.52c-.08-.92,0-2.13-.1-3.21a3.43,3.43,0,0,0-.17-.75,4.45,4.45,0,0,0-.3-.71,3.7,3.7,0,0,0-.85-1.06,2.14,2.14,0,0,0-.9-.46,3.39,3.39,0,0,0-.42-.06,1.6,1.6,0,0,1,.42-.14A2.11,2.11,0,0,1,124.77,47.94Z"/><path class="cls-6" d="M133.71,46.72A2.93,2.93,0,0,1,134.89,48a5.6,5.6,0,0,1,.54,1.83,11.37,11.37,0,0,1-.08,3.39,8.65,8.65,0,0,1-.42,1.5s-.09-.62-.19-1.51-.22-2.08-.37-3.24a8.21,8.21,0,0,0-.34-1.6,3.38,3.38,0,0,0-.7-1.17,2.25,2.25,0,0,0-.83-.59,3.13,3.13,0,0,0-.4-.14,1.29,1.29,0,0,1,.44-.06A2.22,2.22,0,0,1,133.71,46.72Z"/><path class="cls-6" d="M140.24,45a3.57,3.57,0,0,1,1.62,1.3,4.63,4.63,0,0,1,.51,1,6.43,6.43,0,0,1,.28,1.13,12.62,12.62,0,0,1,.08,2.19c0,.68-.07,1.31-.13,1.86-.11,1.09-.26,1.82-.26,1.82s-.18-.72-.35-1.8c-.08-.55-.15-1.18-.2-1.85s-.09-1.39-.2-2.06a6.18,6.18,0,0,0-.2-1,4.75,4.75,0,0,0-.35-.88,4.65,4.65,0,0,0-.49-.7,4.22,4.22,0,0,0-.6-.53,2.76,2.76,0,0,0-1.13-.48,3.17,3.17,0,0,0-.51,0,2.36,2.36,0,0,1,.5-.17A2.71,2.71,0,0,1,140.24,45Z"/><path class="cls-6" d="M146.2,45a1.66,1.66,0,0,1,1.46-.18,1.86,1.86,0,0,1,.87.58,3.33,3.33,0,0,1,.57.94,14.1,14.1,0,0,1,.58,2.09,10.54,10.54,0,0,1,.16,4,5,5,0,0,1-.65,1.74s0-.18,0-.5a10.6,10.6,0,0,0,0-1.27,24.93,24.93,0,0,0-.6-3.78c-.14-.69-.27-1.42-.42-2a2.16,2.16,0,0,0-.8-1.28,1.38,1.38,0,0,0-1.11-.19.86.86,0,0,0-.42.24A1.08,1.08,0,0,1,146.2,45Z"/><path class="cls-6" d="M154.89,44.49a3.06,3.06,0,0,1,1.4.54,3.72,3.72,0,0,1,1.17,1.28,4.56,4.56,0,0,1,.51,1.56,6,6,0,0,1,.05,1.38,8.19,8.19,0,0,1-.23,1.33s0-.13-.12-.35-.17-.54-.26-.92-.22-.8-.36-1.24c-.06-.21-.16-.43-.23-.65s-.18-.39-.31-.64a4.24,4.24,0,0,0-.81-1,3.77,3.77,0,0,0-1-.68,2.5,2.5,0,0,0-.85-.26l-.37,0a2.17,2.17,0,0,1,.34-.16A2.27,2.27,0,0,1,154.89,44.49Z"/><path class="cls-6" d="M162.41,42.78a1.84,1.84,0,0,1,.72.35,5.28,5.28,0,0,1,1.34,1.66,6.27,6.27,0,0,1,.68,2,3.67,3.67,0,0,1,0,.71,1,1,0,0,1-.05.28s-.21-.33-.55-.78a17,17,0,0,1-1.06-1.7c-.34-.64-.63-1.3-.86-1.77a3.25,3.25,0,0,0-.3-.54c-.08-.13-.24-.11-.22-.13S162.2,42.75,162.41,42.78Z"/><path class="cls-7" d="M92.09,30.3a3.32,3.32,0,0,1,3.52-.48l.44.4-2.24.49a4.9,4.9,0,0,1-2.54,2.84l-.08.12A3.14,3.14,0,0,1,92.09,30.3Z"/><path class="cls-7" d="M98.69,23l.14.82c-.9.36-1.78.88-2.68,1.24l-.1-.88A6,6,0,0,1,98.69,23Z"/><path class="cls-7" d="M102.8,21.34l2.27-1a3.81,3.81,0,0,1,1.82-.48c.63.05,1.27.54,1.23,1.16A8,8,0,0,0,103,23C103,22.41,102.38,22.05,102.8,21.34Z"/><path class="cls-7" d="M112.57,17.89c.84-.53,2.23-.18,2.35.78a5.1,5.1,0,0,0-2,.07,1.72,1.72,0,0,0-1.28,1.33l-.5.3A3.64,3.64,0,0,1,112.57,17.89Z"/><path class="cls-7" d="M121.58,15.93l-3.78,1.51V17A3.59,3.59,0,0,1,121.58,15.93Z"/><path class="cls-7" d="M117.81,17.63v-.08l1.2-.09Z"/><path class="cls-7" d="M117.8,17.44v.11l-.36,0Z"/><path class="cls-7" d="M98.72,28.92a2.53,2.53,0,0,1,3.27,0,3.71,3.71,0,0,0-3.1,3.25l-.41,0A2.4,2.4,0,0,1,98.72,28.92Z"/><path class="cls-7" d="M104.14,27.08a2.28,2.28,0,0,1,1.43-1.57,5.43,5.43,0,0,1,1.66,0,6.29,6.29,0,0,1,1.57.11,1.12,1.12,0,0,1,.89,1.12,5.78,5.78,0,0,0-3.3.25c-1,.46-1.34,2.59-1.12,3.66-.67.26-1.13-.67-1.2-1.38A5.65,5.65,0,0,1,104.14,27.08Z"/><path class="cls-7" d="M113,24.11a4.52,4.52,0,0,1,3.72.2l-2.42.51a2,2,0,0,0-1,.38c-.87.78-.1,2.25-.26,3.4a7.93,7.93,0,0,1-1-3A1.45,1.45,0,0,1,113,24.11Z"/><path class="cls-7" d="M119.18,23.87a2.73,2.73,0,0,1,1.5-2.36c1.46-.61,3.1.66,3.63,2.11a16.17,16.17,0,0,0-2.52.2,3,3,0,0,0-2.16,2.63A7.38,7.38,0,0,1,119.18,23.87Z"/><path class="cls-7" d="M119.63,26.45a2.76,2.76,0,0,1,.08.27l0,.09c-.11-.06-.12-.21-.11-.33Z"/><path class="cls-7" d="M126.93,19.75a3.07,3.07,0,0,1,1.74-.7c1.37,0,2.41,1.11,3.25,2.16a10.06,10.06,0,0,0-2.19-.11A2.83,2.83,0,0,0,127,24c0,.35,0,.76,0,1.26a8.3,8.3,0,0,1-1.12-2.78A2.74,2.74,0,0,1,126.93,19.75Z"/><path class="cls-7" d="M134.38,19.32a2,2,0,0,1,1.24-.51,4.67,4.67,0,0,1,4.57,2.46l-2.68-.93a2.34,2.34,0,0,0-1.62-.15c-1,.4-.68,2.27-.45,3.27a2.64,2.64,0,0,1-1.18-1.79C134,20.88,133.81,19.92,134.38,19.32Z"/><path class="cls-8" d="M143.49,31.54h-.07s0,0,0-.05Z"/><path class="cls-8" d="M153.36,29.56c2-.68,4-1.66,6.15-1.89s4.07.24,6.1.06c1.59-.14,3.13-.67,4.72-.82,3-.27,6.26.86,9.1-.26,1.15-.45,2.34-1.27,3.51-.88a8,8,0,0,1-10,2.68,2.38,2.38,0,0,0-1.24-.41c-.59,0-1,.55-1.44,1a6.74,6.74,0,0,1-5.42,1.46,19.68,19.68,0,0,1-5.45-1.83,4.21,4.21,0,0,1-6,2.6,2.3,2.3,0,0,0-1.08-.49,2.15,2.15,0,0,0-1.36.7,6.33,6.33,0,0,1-7.46.1l2.26-.35A45.61,45.61,0,0,0,153.36,29.56Z"/><path class="cls-8" d="M139.89,34a10.06,10.06,0,0,1-4.31-1.22l7.84-1.21A3.6,3.6,0,0,1,139.89,34Z"/><path class="cls-8" d="M135.58,32.76l-.16,0a.29.29,0,0,0,0-.09Z"/><path class="cls-8" d="M107.46,36.21a21.35,21.35,0,0,1,2.73-.68,20.39,20.39,0,0,1,3.13-.13,108,108,0,0,0,16-1.67l.2,0a4.2,4.2,0,0,1-3.19,2.85,6.88,6.88,0,0,1-4.51-.71,2.16,2.16,0,0,0-1.08-.35c-.53,0-.93.49-1.33.84a4.51,4.51,0,0,1-5.57.09,7.4,7.4,0,0,1-7.06,1.51,4.13,4.13,0,0,0-1.64-.35c-.85.09-1.47.8-2.15,1.3a4.76,4.76,0,0,1-4.94.32,3.85,3.85,0,0,1-5.86,0l0-.16A75.63,75.63,0,0,0,107.46,36.21Z"/><path class="cls-8" d="M135.42,32.79a2.49,2.49,0,0,1-2.52,1.88,6.76,6.76,0,0,1-3.14-1l3.65-.56Z"/><path class="cls-8" d="M129.76,33.66l-.22,0,0-.13Z"/><path class="cls-8" d="M124.52,46.27a12.62,12.62,0,0,0,4.07-.35c.91-.29,1.74-.79,2.67-1a10.79,10.79,0,0,1,2.34-.22C145.12,44.4,156.46,41,168,41.3c.6,0,1.44.56,1,1a23.33,23.33,0,0,0-6.83.59A34.52,34.52,0,0,1,158,44.16a3.88,3.88,0,0,1-3.87-1.28,5.76,5.76,0,0,1-8.27,1.25,4.52,4.52,0,0,1-5.25,2.18,8.59,8.59,0,0,0-2.12-.68c-1.68-.1-3.1,1.7-4.75,1.4-.72-.13-1.33-.66-2.06-.73a4.53,4.53,0,0,0-2.54,1,7.72,7.72,0,0,1-7.47,0,6,6,0,0,1-9,.23c-2,1.26-4.57,2.55-6.67,1.45a10.3,10.3,0,0,0-2-1.16c-1-.28-2.11.26-3.15.55A8.39,8.39,0,0,1,94,46.85c5.24-.55,10.52-.66,15.78-.69Q117.17,46.12,124.52,46.27Z"/><path class="cls-9" d="M220.77,10.59c3.89,2.23,7.37,8,8.39,12.38,1.49,6.36-1,9.14-4.14,12.33q-1.2-5.41-2.38-10.82C221.78,20.56,221.25,14.71,220.77,10.59Z"/><path class="cls-10" d="M225.5,16.31a48.83,48.83,0,0,0,12.61.11.91.91,0,0,1,.59.07.75.75,0,0,1,.25.33c1.67,3.31,3.16,7.06,2.37,10.68a81.13,81.13,0,0,1-13.34,3,40,40,0,0,1-2.81-14.13Z"/><path class="cls-11" d="M231.14,19.42a35.76,35.76,0,0,1,7.92-2.63,29.51,29.51,0,0,1,2.41,7.49c-3.7,1.33-9.06.25-12.39-1.84C228.86,21.37,230.14,19.88,231.14,19.42Z"/><path class="cls-12" d="M226,32.58c1.54-1.06,1.54-1.06,2.56-1.79-.76,3.17-2,4.36-4.55,6.37.12-8.52-2.93-17.42-3.22-26.57A107.18,107.18,0,0,1,226,32.58Z"/><path class="cls-5" d="M154.12,13.43c.24-.06.48-.14.74-.19s.34-.13.3-.12a.62.62,0,0,0,.05-.34c0-.23,0-.51,0-.75a13.28,13.28,0,0,1,.09-1.36,7.47,7.47,0,0,1,.27-1.35,8.55,8.55,0,0,1,.45,1.29,12.39,12.39,0,0,1,.29,1.34c0,.25.09.48.11.77a1.72,1.72,0,0,1-.27,1.17,1.69,1.69,0,0,1-1.08.55c-.26,0-.52.05-.76.07a11,11,0,0,1-1.37.05,7.62,7.62,0,0,1-1.36-.13,7.37,7.37,0,0,1,1.24-.58A11.75,11.75,0,0,1,154.12,13.43Z"/><path class="cls-5" d="M160,14.07a1.8,1.8,0,0,0,.93.09,2.9,2.9,0,0,0,1.16-.49,2.68,2.68,0,0,0,.5-.45,1.64,1.64,0,0,0,.19-.24,2,2,0,0,0,.17-.32,6.19,6.19,0,0,0,.33-2.84c-.06-.86-.08-1.49-.08-1.49A5.52,5.52,0,0,1,164,9.65a5.14,5.14,0,0,1,.41,1.57,4,4,0,0,1-.3,1.95,2,2,0,0,1-.26.45,2.83,2.83,0,0,1-.36.44,3.09,3.09,0,0,1-.84.58,2.87,2.87,0,0,1-1.74.24,1.73,1.73,0,0,1-1-.62,2.36,2.36,0,0,1-.22-.37A2.29,2.29,0,0,0,160,14.07Z"/><path class="cls-5" d="M170.35,12.55c0-.11,0-.22.06-.33l.37-.11Z"/><path class="cls-5" d="M170.41,12.22c0,.11,0,.22-.06.33l.43-.44-.37.11a15.36,15.36,0,0,0,.27-2.16c.07-.85,0-1.71,0-2.65a5.57,5.57,0,0,1,1,2.6,7,7,0,0,1-.2,2.84l-.1.35-.32.09a8.69,8.69,0,0,1-2.09.28,6.76,6.76,0,0,1-2.09-.28c.68-.24,1.32-.41,2-.61Z"/><path class="cls-5" d="M176.42,13.59a6.89,6.89,0,0,0,.86-.1,3.32,3.32,0,0,0,.83-.3,2.31,2.31,0,0,0,.7-.53,2.28,2.28,0,0,0,.22-.31,1.59,1.59,0,0,0,.14-.42,19.14,19.14,0,0,0,.12-2.12c0-.73.09-1.41.16-2a17.06,17.06,0,0,1,.32-1.95,14.64,14.64,0,0,1,.39,1.94c.09.58.17,1.25.23,2a9.67,9.67,0,0,1,0,2.41,2.74,2.74,0,0,1-.25.68,2.68,2.68,0,0,1-.45.61,2.89,2.89,0,0,1-1.15.72,3.15,3.15,0,0,1-1.19.21,3.63,3.63,0,0,1-1-.12,6.41,6.41,0,0,1-1.37-.5c-.31-.15-.48-.25-.48-.25H175C175.38,13.57,175.86,13.6,176.42,13.59Z"/><path class="cls-5" d="M185.64,13.13c.35-.1.71-.22,1.1-.36s.78-.3,1.17-.48a4.1,4.1,0,0,0,1-.66,1.77,1.77,0,0,0,.31-.41,1.21,1.21,0,0,0,.16-.51,6.46,6.46,0,0,0,0-1.33c0-.48,0-1,0-1.42,0-.92,0-1.78,0-2.52.06-1.48.48-1.51.72-.05.13.73.25,1.59.35,2.5,0,.46.12.93.15,1.42a7.54,7.54,0,0,1,0,1.59,2.55,2.55,0,0,1-.3.88,3,3,0,0,1-.59.74,4.25,4.25,0,0,1-1.41.79,7.24,7.24,0,0,1-1.34.36,9.63,9.63,0,0,1-1.22.17,8,8,0,0,1-2.51-.15l.67-.13C184.35,13.47,185,13.33,185.64,13.13Z"/><path class="cls-5" d="M196,12.19a7.28,7.28,0,0,0,1.09-.18,4.11,4.11,0,0,0,1.09-.42,2.76,2.76,0,0,0,1.46-1.73,8.88,8.88,0,0,0-.17-2.6c-.12-.91-.21-1.77-.25-2.5a22.53,22.53,0,0,1-.08-2.47A23.32,23.32,0,0,1,200,4.63c.21.71.43,1.54.63,2.43.1.46.22.9.3,1.4a4.3,4.3,0,0,1,0,1.68,3.66,3.66,0,0,1-2.19,2.45,4.34,4.34,0,0,1-1.42.35,5.84,5.84,0,0,1-1.27,0,9.06,9.06,0,0,1-1.77-.42l-.65-.23h.69C194.71,12.24,195.32,12.24,196,12.19Z"/><path class="cls-5" d="M206.06,10.72a8.76,8.76,0,0,0,.95-.31,4.73,4.73,0,0,0,.94-.52,3.75,3.75,0,0,0,.78-.76,2.06,2.06,0,0,0,.42-.94,5.54,5.54,0,0,0-.28-2.27c-.2-.81-.36-1.58-.48-2.24-.32-1.67.16-1.44.69-.21.27.62.56,1.35.84,2.13a5.48,5.48,0,0,1,.46,2.85,3.42,3.42,0,0,1-.7,1.43,4,4,0,0,1-1.13.95,4.59,4.59,0,0,1-1.25.47,5.45,5.45,0,0,1-1.15.14,8.49,8.49,0,0,1-1.65-.14,6.08,6.08,0,0,1-.61-.12l.61-.13C204.88,11,205.43,10.88,206.06,10.72Z"/><path class="cls-5" d="M213.87,13.49a3.8,3.8,0,0,0,1.42-.74,3.31,3.31,0,0,0,.3-.32l.26-.34a3.24,3.24,0,0,0,.37-.8,9,9,0,0,0,.13-3.63c-.13-1.06-.19-1.81-.19-1.81A8.26,8.26,0,0,1,217,7.48a7.41,7.41,0,0,1,.53,1.87,4.94,4.94,0,0,1-.16,2.33,3.92,3.92,0,0,1-.58,1.11,3.7,3.7,0,0,1-.42.48,3.9,3.9,0,0,1-.46.36,3.4,3.4,0,0,1-2,.57,3,3,0,0,1-1.37-.34,2.67,2.67,0,0,1-.43-.3,3.9,3.9,0,0,0,.5.06A4.44,4.44,0,0,0,213.87,13.49Z"/><path class="cls-5" d="M167.26,14.71a3.84,3.84,0,0,1,2.2.42l.25.16.15.1.09.08a4,4,0,0,1,.43.41,3.36,3.36,0,0,1,.59.94,5.06,5.06,0,0,1,.42,1.79,6.34,6.34,0,0,1-.11,1.73s-.26-.66-.6-1.58a8.72,8.72,0,0,0-.68-1.42,4.62,4.62,0,0,0-.51-.64,3.12,3.12,0,0,0-.3-.26l-.1-.08s-.05,0-.07,0l-.17-.1a5.63,5.63,0,0,0-3.18-.38c-1,.1-1.68.15-1.68.15a6.57,6.57,0,0,1,1.5-.84A5.65,5.65,0,0,1,167.26,14.71Z"/><path class="cls-5" d="M175.06,14.86c.28-.15.59-.45,1.09-.79l.2-.13.13-.07.1,0a2.76,2.76,0,0,1,.53-.17,3,3,0,0,1,1.2,0A3.94,3.94,0,0,1,180.44,15a4.32,4.32,0,0,1,.67,1.11,3.17,3.17,0,0,1,.19.57,5.78,5.78,0,0,1,.12.57,6.48,6.48,0,0,1,0,2,8.79,8.79,0,0,1-.46,1.86s-.13-.77-.26-1.86a11.47,11.47,0,0,0-.36-1.78,4.11,4.11,0,0,0-.15-.46l-.2-.45a3.12,3.12,0,0,0-.51-.77A3.4,3.4,0,0,0,178,14.74a2.91,2.91,0,0,0-.8-.16,2.13,2.13,0,0,0-.39,0l-.11,0h-.07l-.18.06a6.22,6.22,0,0,1-1.35.39,1.16,1.16,0,0,1-.54-.07A1.36,1.36,0,0,0,175.06,14.86Z"/><path class="cls-5" d="M184,24.94a.31.31,0,0,0-.07.21c0,.15.22.27.48.33a1.66,1.66,0,0,0,1-.09c.4-.11.85-.23,1.35-.34l1.6-.36c.57-.12,1.19-.23,1.74-.38a2.29,2.29,0,0,0,1.28-.76c.24-.3.14-.82,0-1.55-.17-1.33-.28-2.72-.46-3.89a6.75,6.75,0,0,0-.48-1.61,3.17,3.17,0,0,0-.87-1.14,2.64,2.64,0,0,0-2.11-.56,2.14,2.14,0,0,0-.61.24l-.2.15a1.78,1.78,0,0,1,.73-.62,2.93,2.93,0,0,1,2.58.19,3.54,3.54,0,0,1,1.3,1.28,6.37,6.37,0,0,1,.73,1.83c.32,1.31.44,2.63.64,4,0,.33.09.65.1,1.07a2.66,2.66,0,0,1-.08.67c-.06.18-.06.17-.11.3a2.17,2.17,0,0,1-.19.34,3.18,3.18,0,0,1-2,1.15,18.1,18.1,0,0,1-1.87.24c-.58.06-1.13.11-1.63.14s-1,.07-1.39.09a2,2,0,0,1-1.13-.14c-.29-.13-.49-.36-.47-.56A.32.32,0,0,1,184,24.94Z"/><path class="cls-5" d="M201.71,22.92v-.37l.37-.13Z"/><path class="cls-5" d="M201.71,22.55v.37l.37-.5-.37.13a38.66,38.66,0,0,0-.74-8.89l.17.09-.19-.2s0,.07,0,.11c-.67-.34-1.35-.69-2-1.08.81.15,1.6.37,2.39.58l.12,0,.07.17a19.29,19.29,0,0,1,1.26,4.74,20.68,20.68,0,0,1,.06,4.91l0,.39-.34.11a10,10,0,0,1-6.82-.07A14.65,14.65,0,0,0,201.71,22.55Z"/><path class="cls-5" d="M201.14,13.75l-.17-.09s0-.07,0-.11Z"/><path class="cls-5" d="M208.09,22.54a2.6,2.6,0,0,0,.87-.39,2.41,2.41,0,0,0,.69-.76,2.45,2.45,0,0,0,.35-1c0-.06,0-.17,0-.3l0-.25a4.69,4.69,0,0,0-.12-.61c-.21-.89-.44-1.81-.6-2.67s-.31-1.67-.4-2.37a23.42,23.42,0,0,1-.23-2.35s.43.86.92,2.18c.25.66.52,1.43.78,2.27s.51,1.72.75,2.65c0,.24.1.5.13.77a2.94,2.94,0,0,1,0,.43,3.43,3.43,0,0,1,0,.4,3.25,3.25,0,0,1-.64,1.48,3.1,3.1,0,0,1-1.13.95,2.76,2.76,0,0,1-1.27.29,2.85,2.85,0,0,1-1.73-.55,2,2,0,0,1-.48-.47,2.85,2.85,0,0,0,.59.25A3.13,3.13,0,0,0,208.09,22.54Z"/><path class="cls-5" d="M216.49,22.77a2.91,2.91,0,0,0,.64-.53,3,3,0,0,0,.43-.77,4,4,0,0,0,.1-2,7.34,7.34,0,0,0-1.82-3.59,9.59,9.59,0,0,0-1-1l-.44-.35a4.84,4.84,0,0,1,1.94.79,5.84,5.84,0,0,1,1.59,1.53,6.65,6.65,0,0,1,.63,1.11,7.21,7.21,0,0,1,.38,1.27,4.4,4.4,0,0,1-.33,2.66,2.94,2.94,0,0,1-.8,1,2.64,2.64,0,0,1-1,.52,2.32,2.32,0,0,1-1.6-.11,1.72,1.72,0,0,1-.47-.35,1.89,1.89,0,0,0,.54.1A2.18,2.18,0,0,0,216.49,22.77Z"/><path class="cls-5" d="M178.77,38.52a10.08,10.08,0,0,0,1.72-.31s.09-.08.13-.11,0,0,0-.05a.65.65,0,0,0,.11-.25,2.92,2.92,0,0,0,0-.73,8.18,8.18,0,0,1,0-1.29,2.09,2.09,0,0,1,.11-.49,4.28,4.28,0,0,0,.14.46c.1.29.29.66.48,1.17a2.73,2.73,0,0,1,.2.94,1.47,1.47,0,0,1-.11.63,1.3,1.3,0,0,1-.2.36,1.89,1.89,0,0,1-.22.23,2.5,2.5,0,0,1-1.17.49l-1,.19a27,27,0,0,1-3.81.35A11.77,11.77,0,0,1,173.4,40a12.47,12.47,0,0,1,1.65-.63A26.52,26.52,0,0,1,178.77,38.52Z"/><path class="cls-5" d="M173.28,44.76a11.06,11.06,0,0,1,.71,1.72,10,10,0,0,1,.34,1.83,7.11,7.11,0,0,1,0,1.61,5.44,5.44,0,0,1-.35,1.54s-.17-.62-.36-1.5-.48-2-.82-3.12-.71-2.22-1-3.07-.51-1.46-.51-1.46a6,6,0,0,1,1.13,1.1A7.72,7.72,0,0,1,173.28,44.76Z"/><path class="cls-5" d="M178.78,42.08a1.64,1.64,0,0,1,.45.09,2.33,2.33,0,0,1,1,.72,4.5,4.5,0,0,1,.84,1.55,10.05,10.05,0,0,1,.4,1.87,22.18,22.18,0,0,1,.21,3.48,9.57,9.57,0,0,1-.14,1.61,11.78,11.78,0,0,1-.57-1.51,22.81,22.81,0,0,1-.74-3.41,13,13,0,0,0-.61-3.2A2.79,2.79,0,0,0,178.78,42.08Z"/><path class="cls-5" d="M183.81,39.19a3.46,3.46,0,0,1,1.11-.3,4.82,4.82,0,0,1,2.78.64A4.73,4.73,0,0,1,189,40.59a4,4,0,0,1,.27.34,2.7,2.7,0,0,1,.22.33,8,8,0,0,1,.41.75,9.43,9.43,0,0,1,.73,3.11,18.06,18.06,0,0,1,0,2.68,5.3,5.3,0,0,1-.37,1.89,1.77,1.77,0,0,1-.41.6,2.19,2.19,0,0,0,.17-.67,7.11,7.11,0,0,0-.11-1.8,19.3,19.3,0,0,0-1.12-5.29,6.71,6.71,0,0,0-.31-.6c-.05-.1-.13-.21-.19-.32s-.12-.15-.19-.25a4.71,4.71,0,0,0-.94-.9,4.87,4.87,0,0,0-2.19-.85,3.32,3.32,0,0,0-1.69.26,4.44,4.44,0,0,0-.61.35,3.24,3.24,0,0,1,.47-.56A2.42,2.42,0,0,1,183.81,39.19Z"/><path class="cls-5" d="M191.53,36.47a2.84,2.84,0,0,0,1.19-.31,2.22,2.22,0,0,0,.91-1,3.44,3.44,0,0,0,.35-1.4,5.29,5.29,0,0,0-.19-1.61c-.26-1.09-.7-2.25-1-3.33l-.44-1.56a1.53,1.53,0,0,0-.61-.94,2.85,2.85,0,0,0-1.93-.13l-.81.19a5,5,0,0,1,.73-.42,4.86,4.86,0,0,1,.93-.34,2.23,2.23,0,0,1,1.39.05A2.17,2.17,0,0,1,193.22,27c.22.51.42,1,.62,1.53A34.53,34.53,0,0,1,195,31.9a6.37,6.37,0,0,1,.18,2,4.06,4.06,0,0,1-.61,1.91A3,3,0,0,1,193.15,37a3.18,3.18,0,0,1-1.65.2,6.4,6.4,0,0,1-2.15-.73c-.47-.25-.72-.42-.72-.42l.81.19A7.45,7.45,0,0,0,191.53,36.47Z"/><path class="cls-5" d="M194.64,39.86a2.28,2.28,0,0,0-1.54-.55,1.71,1.71,0,0,0-.49.09l-.17.07a1.62,1.62,0,0,1,.61-.41,2.51,2.51,0,0,1,2,.19,3.16,3.16,0,0,1,1.06.92,5.53,5.53,0,0,1,.73,1.31c.38,1,.61,1.91.91,2.89s.53,2,.71,2.94a5.77,5.77,0,0,1,.09,1.49,3.49,3.49,0,0,1-.34,1.34,2.54,2.54,0,0,1-1.48,1.33,1.71,1.71,0,0,1-.73.06,1.65,1.65,0,0,0,.63-.28,2.48,2.48,0,0,0,.91-1.38,3.33,3.33,0,0,0,.08-1.07,7.81,7.81,0,0,0-.24-1.25c-.26-.87-.57-1.87-.84-2.84s-.5-2-.74-2.86a6.52,6.52,0,0,0-.47-1.16A2.81,2.81,0,0,0,194.64,39.86Z"/><path class="cls-5" d="M202.74,37.91a3.45,3.45,0,0,1,2.21.67,3.34,3.34,0,0,1,.47.44,4.16,4.16,0,0,1,.43.53,5.44,5.44,0,0,1,.61,1.17,7.37,7.37,0,0,1,.37,1.22c.09.42.15.79.22,1.2a6.74,6.74,0,0,1,0,1.19,6.09,6.09,0,0,1-.25,1c-.21.57-.35,1-.44,1.36l-.13.55a2.86,2.86,0,0,1-.17-.55,5.33,5.33,0,0,1-.08-1.52,5.52,5.52,0,0,0,0-.91,4.62,4.62,0,0,0-.14-1,16.68,16.68,0,0,0-.55-2.16,5.75,5.75,0,0,0-.45-1c-.08-.16-.18-.29-.26-.42a4.44,4.44,0,0,0-.33-.37,3.12,3.12,0,0,0-1.56-.82,2.25,2.25,0,0,0-1.8.36,3,3,0,0,1,.36-.45A2.37,2.37,0,0,1,202.74,37.91Z"/><path class="cls-5" d="M201,35.56a2.88,2.88,0,0,0,1.93-.7,3.24,3.24,0,0,0,.82-1,5.36,5.36,0,0,0,.46-1.45,14,14,0,0,0,0-3.49,17.89,17.89,0,0,0-.24-1.79,15,15,0,0,0-.38-1.65c-.2-.47-.34-.66-.75-.68s-1,.09-1.45.12c-.94.08-1.73.1-2.28.14s-.87,0-.87,0l.83-.26c.53-.14,1.29-.39,2.2-.61a11.07,11.07,0,0,1,1.55-.34,1.63,1.63,0,0,1,1.1.29,2.14,2.14,0,0,1,.69.89,11.09,11.09,0,0,1,.55,1.85c.13.62.23,1.26.3,1.9a12,12,0,0,1-.2,3.84,5.09,5.09,0,0,1-.73,1.7A4.14,4.14,0,0,1,204,35a4.07,4.07,0,0,1-.67.49,3.16,3.16,0,0,1-2.38.34,2,2,0,0,1-.77-.43l.21.08A3.07,3.07,0,0,0,201,35.56Z"/><path class="cls-5" d="M212.8,36.89a4.71,4.71,0,0,1,.68,0,1.42,1.42,0,0,1,.84.5,8,8,0,0,1,.66,1.2c.34.76.69,1.48,1,2.25a3.86,3.86,0,0,1,.19,2.33,2.12,2.12,0,0,1-1,1.32,1.28,1.28,0,0,1-.58.17,1.32,1.32,0,0,0,.42-.37,2.07,2.07,0,0,0,.43-1.24,3,3,0,0,0-.12-.85,6.4,6.4,0,0,0-.39-.93c-.33-.65-.72-1.41-1.07-2.14-.17-.35-.36-.83-.47-1a.31.31,0,0,0-.17-.12,2.91,2.91,0,0,0-.49-.09c-.77-.1-1.48-.21-2.09-.34a18.18,18.18,0,0,1-2-.51,18,18,0,0,1,2.08-.21C211.3,36.9,212,36.88,212.8,36.89Z"/><path class="cls-5" d="M212,33.2a1.67,1.67,0,0,0,.82-.41,1.25,1.25,0,0,0,.09-.12l.06-.15,0,0s0-.06,0,0h0v0a1.05,1.05,0,0,0,0-.43,9.11,9.11,0,0,0-.41-1.21c-.17-.45-.34-.91-.5-1.37-.32-.92-.59-1.85-.91-2.62a6.73,6.73,0,0,0-.56-1,3.51,3.51,0,0,0-.72-.76,2.81,2.81,0,0,0-1.49-.61,1.87,1.87,0,0,0-.65.05l.15-.09a1.6,1.6,0,0,1,.48-.2,2.67,2.67,0,0,1,1.87.23,3.47,3.47,0,0,1,1.06.76,5.2,5.2,0,0,1,.84,1.17A19.66,19.66,0,0,1,213.2,29c.16.46.31.92.46,1.38a6.44,6.44,0,0,1,.37,1.47,2,2,0,0,1-.11.89l0,.11v0c-.05.1,0,0,0,.06l0,0-.09.13a1.57,1.57,0,0,1-.33.35,2.26,2.26,0,0,1-1.34.43c-.77,0-1.35-.06-1.77,0a3.12,3.12,0,0,0-.66.09,2.1,2.1,0,0,1,.61-.33A14,14,0,0,1,212,33.2Z"/><path class="cls-5" d="M217.23,34.73a3.25,3.25,0,0,1,.84-.79,4,4,0,0,1,1.54-.65,3.84,3.84,0,0,1,1-.09,1.62,1.62,0,0,1,1.23.6,2.52,2.52,0,0,1,.38,1.12c0,.29,0,.58.06.86,0,.56,0,1.09,0,1.54a9.21,9.21,0,0,1-.15,1.53,10.22,10.22,0,0,1-.56-1.43c-.14-.43-.28-.94-.4-1.49,0-.27-.13-.55-.17-.84a1.44,1.44,0,0,0-.18-.55s-.08-.1-.32-.13a4.54,4.54,0,0,0-.74,0,6.34,6.34,0,0,0-1.38.21,7.08,7.08,0,0,0-1.38.51A2.84,2.84,0,0,1,217.23,34.73Z"/><path class="cls-5" d="M216.56,24a2.74,2.74,0,0,1,.8.17,3.52,3.52,0,0,1,.79.44,3.37,3.37,0,0,1,.71.7,4.15,4.15,0,0,1,.51.86,4.2,4.2,0,0,1,.28,1,3.47,3.47,0,0,1,.06,1,3.67,3.67,0,0,1-.46,1.61,2.68,2.68,0,0,1-1.11,1.11l.17-.38a5,5,0,0,0-.09-3.76,4.24,4.24,0,0,0-.77-1.21,4.54,4.54,0,0,0-.52-.45,4.39,4.39,0,0,0-.53-.32,2.14,2.14,0,0,0-1.35-.19,1.15,1.15,0,0,1,.34-.28A2,2,0,0,1,216.56,24Z"/><path class="cls-7" d="M144.66,18a3.16,3.16,0,0,1,3.93,2.4c-2.06-.11-4.6,0-5.53,1.89l-.19,0A3.17,3.17,0,0,1,144.66,18Z"/><path class="cls-7" d="M152.13,20l0,0,0,0Z"/><path class="cls-7" d="M152,19.14a3,3,0,0,1,5.65-.4,5.68,5.68,0,0,0-5.44,1.2A.91.91,0,0,1,152,19.14Z"/><path class="cls-7" d="M152.2,20h.36A.24.24,0,0,1,152.2,20Z"/><path class="cls-7" d="M167.08,16.56a2.54,2.54,0,0,1,2.48,1.35,5.84,5.84,0,0,0-5.16.73c-.06-.39-.11-.78-.16-1.18A7.43,7.43,0,0,1,167.08,16.56Z"/><path class="cls-7" d="M164.4,18.64l0,.32-.23.67-.06-.82Z"/><path class="cls-7" d="M149,11.06l.06,0a2.3,2.3,0,0,0,0,.64Z"/><path class="cls-7" d="M150.57,9.13a2.47,2.47,0,0,1,2.83.82A16.45,16.45,0,0,0,149.1,11,2.48,2.48,0,0,1,150.57,9.13Z"/><ellipse class="cls-1" cx="41.19" cy="59.04" rx="6.19" ry="1.16"/><path class="cls-13" d="M46.36,54.69c-.87-.42-.54-.6-2.76-.65a32.52,32.52,0,0,0-4.34-.25,5.43,5.43,0,0,0-3.8,1,2.54,2.54,0,0,0,.46,3.89,7.12,7.12,0,0,0,4.95,1.1,22.52,22.52,0,0,0,5.68-1.54,3,3,0,0,0,1.31-.77,1.31,1.31,0,0,0-.24-1.65A3.68,3.68,0,0,0,46.36,54.69Z"/><path class="cls-14" d="M44.49,54.14c-1,.79,0,2.11.49,2.38,1.59.95,3.19.83,3.08-.1A3.87,3.87,0,0,0,44.49,54.14Z"/><path class="cls-15" d="M45.47,57.81c-3,.17-11.39,1-9.42-3.47-1.88.78-1.56,3.27-.07,4.37a7.3,7.3,0,0,0,4.14,1,23.35,23.35,0,0,0,6-.71c.57-.15,2-1.33,1.82-1.79A3.76,3.76,0,0,1,45.47,57.81Z"/><path class="cls-16" d="M41.31,57.21l-.72-.05-.78-.11a7.73,7.73,0,0,1-.8-.19,4.2,4.2,0,0,1-.78-.26,3.52,3.52,0,0,1-.7-.35,2.53,2.53,0,0,1-.52-.43l-.16-.24a2.17,2.17,0,0,0-.07-.24.92.92,0,0,1,.11-.48,1.41,1.41,0,0,1,.27-.4,1.73,1.73,0,0,1,.31-.3l.3-.26a3.93,3.93,0,0,0-.4.14,1.57,1.57,0,0,0-.44.21,1.66,1.66,0,0,0-.5.4,1.22,1.22,0,0,0-.33.67,3,3,0,0,0,0,.42,2,2,0,0,0,.18.4,2.27,2.27,0,0,0,.65.66,4.12,4.12,0,0,0,.85.46,5.36,5.36,0,0,0,.94.29,6.33,6.33,0,0,0,.94.15,7.43,7.43,0,0,0,1.67-.07c.23,0,.45-.09.63-.14a2.84,2.84,0,0,0,.47-.16,4,4,0,0,0,.39-.16l-.43,0C42.15,57.22,41.76,57.2,41.31,57.21Z"/><path class="cls-17" d="M47,55c-.89-.89-2.33-.3-2.09.54a2.11,2.11,0,0,0,1.57,1.14c.84.22,1.73-.17,1.23-.76A8.89,8.89,0,0,0,47,55Z"/><ellipse class="cls-1" cx="12.02" cy="71.34" rx="6.19" ry="1.16"/><path class="cls-13" d="M17.19,67c-.87-.42-.55-.59-2.76-.64a34.51,34.51,0,0,0-4.34-.26,5.47,5.47,0,0,0-3.8,1,2.54,2.54,0,0,0,.45,3.89,7.2,7.2,0,0,0,5,1.1,22.35,22.35,0,0,0,5.67-1.55,2.75,2.75,0,0,0,1.31-.76,1.3,1.3,0,0,0-.23-1.65A3.71,3.71,0,0,0,17.19,67Z"/><path class="cls-14" d="M15.32,66.44c-1,.78,0,2.11.49,2.38,1.59,1,3.19.82,3.08-.11A3.91,3.91,0,0,0,15.32,66.44Z"/><path class="cls-15" d="M16.29,70.11c-3,.17-11.39,1-9.41-3.48C5,67.41,5.31,69.91,6.8,71A7.25,7.25,0,0,0,11,72a22.54,22.54,0,0,0,6-.71c.57-.14,2-1.32,1.82-1.78A3.9,3.9,0,0,1,16.29,70.11Z"/><path class="cls-16" d="M12.14,69.5l-.72,0-.78-.11c-.26-.06-.54-.1-.8-.18a4.89,4.89,0,0,1-.79-.27,3,3,0,0,1-.69-.35,2.55,2.55,0,0,1-.53-.43,1.82,1.82,0,0,0-.15-.23c0-.09,0-.17-.07-.25a.92.92,0,0,1,.11-.48,1.56,1.56,0,0,1,.27-.4,2.16,2.16,0,0,1,.31-.3l.3-.26-.4.14a1.45,1.45,0,0,0-.44.21,1.59,1.59,0,0,0-.5.41,1.23,1.23,0,0,0-.34.67q0,.19,0,.42c0,.13.12.26.19.4a2.54,2.54,0,0,0,.65.66,5,5,0,0,0,.85.46,6.37,6.37,0,0,0,.94.29,6.1,6.1,0,0,0,.94.14,7.36,7.36,0,0,0,1.66-.06l.64-.14a4.22,4.22,0,0,0,.47-.16l.39-.16-.44,0C13,69.51,12.59,69.5,12.14,69.5Z"/><path class="cls-17" d="M17.81,67.33c-.88-.89-2.32-.31-2.08.53A2.07,2.07,0,0,0,17.3,69c.84.23,1.73-.16,1.23-.76A9.44,9.44,0,0,0,17.81,67.33Z"/><ellipse class="cls-1" cx="75.19" cy="49.39" rx="6.19" ry="1.16"/><path class="cls-13" d="M80.35,45c-.86-.42-.54-.6-2.76-.64a31,31,0,0,0-4.34-.26,5.49,5.49,0,0,0-3.8,1A2.53,2.53,0,0,0,69.91,49a7.19,7.19,0,0,0,5,1.11,22.77,22.77,0,0,0,5.67-1.55,2.76,2.76,0,0,0,1.31-.77,1.31,1.31,0,0,0-.23-1.65A3.71,3.71,0,0,0,80.35,45Z"/><path class="cls-14" d="M78.48,44.48c-1,.79,0,2.11.5,2.39,1.59.94,3.18.82,3.07-.11A3.87,3.87,0,0,0,78.48,44.48Z"/><path class="cls-15" d="M79.46,48.16c-3,.16-11.39,1-9.41-3.48-1.88.78-1.57,3.27-.08,4.37a7.23,7.23,0,0,0,4.15,1,23.4,23.4,0,0,0,6-.71c.56-.15,2-1.33,1.82-1.79A3.87,3.87,0,0,1,79.46,48.16Z"/><path class="cls-16" d="M75.31,47.55l-.72,0-.78-.11A7.33,7.33,0,0,1,73,47.2a4.2,4.2,0,0,1-.78-.26,3.52,3.52,0,0,1-.7-.35,2.53,2.53,0,0,1-.52-.43c0-.08-.1-.16-.16-.24a1.09,1.09,0,0,0-.07-.24,1,1,0,0,1,.11-.48,1.44,1.44,0,0,1,.28-.4,1.45,1.45,0,0,1,.31-.3c.19-.16.29-.26.29-.26l-.4.14a1.53,1.53,0,0,0-.43.21,1.58,1.58,0,0,0-.51.4,1.36,1.36,0,0,0-.33.68,2.93,2.93,0,0,0,0,.41,3.65,3.65,0,0,0,.18.41,2.55,2.55,0,0,0,.66.65,4.11,4.11,0,0,0,.85.47,5.22,5.22,0,0,0,.93.28,6.33,6.33,0,0,0,.94.15A7.45,7.45,0,0,0,75.35,48l.64-.15a3.56,3.56,0,0,0,.46-.15l.39-.16h-.43C76.14,47.56,75.75,47.55,75.31,47.55Z"/><path class="cls-17" d="M81,45.37c-.88-.89-2.33-.3-2.09.54a2.11,2.11,0,0,0,1.57,1.14c.84.22,1.73-.17,1.23-.76A8.89,8.89,0,0,0,81,45.37Z"/><ellipse class="cls-1" cx="55.43" cy="38.13" rx="6.19" ry="2.39"/><path class="cls-13" d="M60.69,34.06a3.45,3.45,0,0,0-3.08-1.41,18.85,18.85,0,0,0-3.7.08c-1.88-.07-1.63.17-2.42.64a4.18,4.18,0,0,0-1.21,1.29,2.29,2.29,0,0,0-.41,2.05,2.29,2.29,0,0,0,1,1A14,14,0,0,0,55.46,40a4.72,4.72,0,0,0,4.33-1.1A4.26,4.26,0,0,0,60.69,34.06Z"/><path class="cls-14" d="M53.14,32.8c-1.82-.12-2.7,1.5-3.31,2.64-.21,1.16,1.12,1.4,2.59.31C52.84,35.43,53.86,33.84,53.14,32.8Z"/><path class="cls-15" d="M60.24,33.52c1.08,5.72-5.92,4.19-8.4,3.81-.82-.12-1.49-.11-2-.86-.23.56.84,2.12,1.3,2.33a13.13,13.13,0,0,0,5,1.23,4.84,4.84,0,0,0,3.64-1C61.14,37.71,61.73,34.61,60.24,33.52Z"/><path class="cls-16" d="M60,35.28c0-.18,0-.36.08-.53a2,2,0,0,0-.2-.86,1.46,1.46,0,0,0-.37-.53,1.07,1.07,0,0,0-.34-.29l-.32-.2s.07.13.21.35a1.74,1.74,0,0,1,.23.39,1.87,1.87,0,0,1,.18.52,1.72,1.72,0,0,1,0,.6,1.71,1.71,0,0,0-.09.3,2.75,2.75,0,0,0-.17.29,3,3,0,0,1-.5.51,2.93,2.93,0,0,1-.63.4,3.7,3.7,0,0,1-.69.28c-.24.09-.48.12-.71.19l-.67.09-.62,0a8.52,8.52,0,0,1-.92-.08l-.37,0s.11.09.31.22a1.81,1.81,0,0,0,.37.23l.52.21a4.32,4.32,0,0,0,1.4.18,4.7,4.7,0,0,0,.81-.13,3.8,3.8,0,0,0,.83-.31,3.58,3.58,0,0,0,.78-.53,3.07,3.07,0,0,0,.64-.78C59.86,35.6,59.94,35.44,60,35.28Z"/><path class="cls-17" d="M50.92,33.77a11.31,11.31,0,0,0-.72,1.1c-.5.72.2,1.25.93,1a2.15,2.15,0,0,0,1.48-1.34C52.92,33.52,51.78,32.71,50.92,33.77Z"/><ellipse class="cls-1" cx="38.1" cy="43.93" rx="5.3" ry="3.9"/><path class="cls-13" d="M37.87,38.74a4.94,4.94,0,0,0-3.54.67A3.65,3.65,0,0,0,32.7,42.7a13.23,13.23,0,0,0,1.41,3,2.93,2.93,0,0,0,1,1,3.15,3.15,0,0,0,1.4.21l4.2,0a.79.79,0,0,0,.43-.08,1,1,0,0,0,.28-.4c.48-1.06,1.86-3.21,1.78-4.38C43.08,39.76,40,39.08,37.87,38.74Z"/><path class="cls-15" d="M38.05,44.77a5.55,5.55,0,0,1-5.23-3.27,3.21,3.21,0,0,0-.12,1.2,13.23,13.23,0,0,0,1.41,3,2.93,2.93,0,0,0,1,1,3.15,3.15,0,0,0,1.4.21l4.2,0a.79.79,0,0,0,.43-.08,1,1,0,0,0,.28-.4c.48-1.06,1.86-3.21,1.78-4.38a1.84,1.84,0,0,0,0-.35A5.55,5.55,0,0,1,38.05,44.77Z"/><path class="cls-14" d="M39.31,42.76a5.8,5.8,0,0,0-2.55-.33l0,0a3,3,0,0,0-1.19,1.82,9.44,9.44,0,0,0-.22,2.25h5.48A4.64,4.64,0,0,0,41,44.7,2.8,2.8,0,0,0,39.31,42.76Z"/><path class="cls-17" d="M39.09,42.87a1.89,1.89,0,0,0-1.62-.19c-.28.29-.88.17-1.12.53a1,1,0,0,0-.13.46c0,.32-.06.64-.1,1H40A2.2,2.2,0,0,0,39.09,42.87Z"/><path class="cls-17" d="M37.19,42.78a1.83,1.83,0,0,1,.28-.1l.08-.1Z"/><path class="cls-18" d="M40.23,39.73a9.15,9.15,0,0,0-2.86-.21c-1.26,0-2.69.18-3.45,1.25l.17-.1c.35-.48,1-.43,1.59-.34l3.12.5a4.55,4.55,0,0,1,1.31.36c.72.35,1.35,1.11,2.13,1a.36.36,0,0,0,.22-.09.51.51,0,0,0,0-.56A3.41,3.41,0,0,0,40.23,39.73Z"/><ellipse class="cls-1" cx="5.88" cy="50.82" rx="5.3" ry="3.9"/><path class="cls-13" d="M5.65,45.64a4.93,4.93,0,0,0-3.54.66A3.66,3.66,0,0,0,.48,49.59a13.23,13.23,0,0,0,1.41,3,2.92,2.92,0,0,0,1,1,3,3,0,0,0,1.4.22l4.2,0A.79.79,0,0,0,9,53.73a.93.93,0,0,0,.28-.39C9.71,52.28,11.09,50.12,11,49,10.86,46.65,7.79,46,5.65,45.64Z"/><path class="cls-15" d="M5.83,51.66A5.55,5.55,0,0,1,.6,48.39a3.23,3.23,0,0,0-.12,1.2,13.23,13.23,0,0,0,1.41,3,2.92,2.92,0,0,0,1,1,3,3,0,0,0,1.4.22l4.2,0A.79.79,0,0,0,9,53.73a.93.93,0,0,0,.28-.39C9.71,52.28,11.09,50.12,11,49a1.34,1.34,0,0,0,0-.35A5.55,5.55,0,0,1,5.83,51.66Z"/><path class="cls-14" d="M7.09,49.65a5.66,5.66,0,0,0-2.55-.32l0,.05a3,3,0,0,0-1.19,1.81,9.47,9.47,0,0,0-.22,2.26H8.65a4.69,4.69,0,0,0,.13-1.86A2.8,2.8,0,0,0,7.09,49.65Z"/><path class="cls-17" d="M6.87,49.76a1.89,1.89,0,0,0-1.62-.18c-.28.29-.88.17-1.12.52a1,1,0,0,0-.13.46c0,.32-.06.64-.1,1H7.82A2.23,2.23,0,0,0,6.87,49.76Z"/><path class="cls-17" d="M5,49.68a1.16,1.16,0,0,1,.28-.1.76.76,0,0,0,.08-.11Z"/><path class="cls-18" d="M8,46.62a9.46,9.46,0,0,0-2.86-.2c-1.26,0-2.69.17-3.45,1.24l.17-.09c.35-.48,1-.44,1.59-.35l3.12.51a4.53,4.53,0,0,1,1.31.35c.72.36,1.35,1.11,2.13,1a.44.44,0,0,0,.22-.1c.14-.13.09-.38,0-.56A3.41,3.41,0,0,0,8,46.62Z"/><ellipse class="cls-1" cx="71.02" cy="62.36" rx="5.3" ry="3.9"/><path class="cls-13" d="M70.79,57.18a4.94,4.94,0,0,0-3.54.66,3.65,3.65,0,0,0-1.63,3.29,13.26,13.26,0,0,0,1.42,3,2.93,2.93,0,0,0,1,1,3,3,0,0,0,1.39.21l4.21,0a.76.76,0,0,0,.42-.08.88.88,0,0,0,.28-.4c.48-1.06,1.86-3.21,1.79-4.38C76,58.19,72.93,57.51,70.79,57.18Z"/><path class="cls-15" d="M71,63.2a5.57,5.57,0,0,1-5.23-3.27,3.23,3.23,0,0,0-.12,1.2,13.26,13.26,0,0,0,1.42,3,2.93,2.93,0,0,0,1,1,3,3,0,0,0,1.39.21l4.21,0a.76.76,0,0,0,.42-.08.88.88,0,0,0,.28-.4c.48-1.06,1.86-3.21,1.79-4.38a2,2,0,0,0-.06-.35A5.55,5.55,0,0,1,71,63.2Z"/><path class="cls-14" d="M72.23,61.19a5.76,5.76,0,0,0-2.54-.33l0,0a3,3,0,0,0-1.19,1.82A9.47,9.47,0,0,0,68.31,65h5.48a4.53,4.53,0,0,0,.13-1.86A2.8,2.8,0,0,0,72.23,61.19Z"/><path class="cls-17" d="M72,61.3a1.89,1.89,0,0,0-1.62-.19c-.27.29-.87.17-1.12.53a.9.9,0,0,0-.12.46c0,.32-.07.64-.1,1H73A2.16,2.16,0,0,0,72,61.3Z"/><path class="cls-17" d="M70.11,61.22a1.36,1.36,0,0,1,.28-.11.39.39,0,0,0,.08-.1Z"/><path class="cls-18" d="M73.16,58.16a9.52,9.52,0,0,0-2.87-.2c-1.26,0-2.69.17-3.45,1.24l.18-.09c.34-.49,1-.44,1.59-.35l3.12.51a4.18,4.18,0,0,1,1.3.35c.72.35,1.35,1.11,2.14,1a.31.31,0,0,0,.21-.09.51.51,0,0,0,0-.56A3.4,3.4,0,0,0,73.16,58.16Z"/><ellipse class="cls-1" cx="52.42" cy="68.15" rx="6.19" ry="1.16"/><path class="cls-13" d="M54.28,61.94a8,8,0,0,0-3.82-.61,7.34,7.34,0,0,0-2.19.31,2.68,2.68,0,0,0-1.65,1.42,4.23,4.23,0,0,0-.22,1.66,4.61,4.61,0,0,0,.52,2.66c.8,1.2,2.44,1.31,3.84,1.3l5.79,0a2.16,2.16,0,0,0,.8-.12c.72-.31.87-1.3.74-2.1A6.13,6.13,0,0,0,54.28,61.94Z"/><path class="cls-15" d="M46.6,63.14a4.4,4.4,0,0,0-.2,1.58,4.61,4.61,0,0,0,.52,2.66c.8,1.2,2.44,1.31,3.84,1.3l5.79,0a2.39,2.39,0,0,0,.75-.11C53.23,68,49,66.39,46.6,63.14Z"/><path class="cls-14" d="M56.54,63.91l-.13,0a2.18,2.18,0,0,0-1.88-.67c-.56,0-1.28.12-1.38.69s.32.82.54,1.21a5.17,5.17,0,0,1,.23,2.55.87.87,0,0,0,.13.57.91.91,0,0,0,.62.25c1.14.15,2.54.19,3.17-.82a2.28,2.28,0,0,0,0-2.08A6.42,6.42,0,0,0,56.54,63.91Z"/><path class="cls-17" d="M56.39,64.4l-.1-.26a1.64,1.64,0,0,0-1.72,0,1.14,1.14,0,0,0-.24,1.63,1.46,1.46,0,0,0,1.36.26,4.1,4.1,0,0,1,1.42-.23A1,1,0,0,0,56.39,64.4Z"/><path class="cls-16" d="M49.06,62.38A1.55,1.55,0,0,0,49.42,64a4.23,4.23,0,0,0,1.5.9c-.47-.81-.81-2-.14-2.6a2.17,2.17,0,0,1,1.56-.41H53l.23-.19-1.93-.12C50.44,61.57,49.44,61.62,49.06,62.38Z"/><ellipse class="cls-1" cx="25.82" cy="63.51" rx="6.19" ry="1.16"/><path class="cls-13" d="M27.69,57.3a8,8,0,0,0-3.82-.62,8,8,0,0,0-2.19.31A2.73,2.73,0,0,0,20,58.42a4.42,4.42,0,0,0-.23,1.66,4.79,4.79,0,0,0,.52,2.66c.81,1.2,2.44,1.31,3.85,1.3L30,64a2,2,0,0,0,.8-.11c.72-.31.87-1.31.73-2.1A6.1,6.1,0,0,0,27.69,57.3Z"/><path class="cls-15" d="M20,58.49a4.7,4.7,0,0,0-.2,1.59,4.79,4.79,0,0,0,.52,2.66c.81,1.2,2.44,1.31,3.85,1.3L30,64a2.12,2.12,0,0,0,.75-.1C26.64,63.34,22.42,61.75,20,58.49Z"/><path class="cls-14" d="M29.94,59.26l-.13,0a2.19,2.19,0,0,0-1.88-.66c-.55,0-1.27.12-1.37.69s.32.81.54,1.21A5,5,0,0,1,27.32,63a.92.92,0,0,0,.14.57.85.85,0,0,0,.61.26c1.15.15,2.55.18,3.17-.82a2.25,2.25,0,0,0,0-2.08A6.3,6.3,0,0,0,29.94,59.26Z"/><path class="cls-17" d="M29.8,59.76l-.11-.26a1.64,1.64,0,0,0-1.72,0,1.16,1.16,0,0,0-.24,1.63,1.45,1.45,0,0,0,1.37.26,4.35,4.35,0,0,1,1.42-.23A1,1,0,0,0,29.8,59.76Z"/><path class="cls-16" d="M22.47,57.73a1.55,1.55,0,0,0,.36,1.66,4.12,4.12,0,0,0,1.5.91c-.47-.81-.81-2-.15-2.6a2.2,2.2,0,0,1,1.57-.41h.61l.23-.19L24.66,57C23.85,56.93,22.84,57,22.47,57.73Z"/><ellipse class="cls-1" cx="56.27" cy="51.96" rx="6.19" ry="1.16"/><path class="cls-13" d="M58.13,45.75a8,8,0,0,0-3.82-.62,7.66,7.66,0,0,0-2.18.31,2.68,2.68,0,0,0-1.66,1.43,4.18,4.18,0,0,0-.22,1.66,4.67,4.67,0,0,0,.52,2.65c.8,1.2,2.44,1.31,3.84,1.31l5.79,0a2,2,0,0,0,.8-.12c.72-.31.87-1.3.74-2.09A6.11,6.11,0,0,0,58.13,45.75Z"/><path class="cls-15" d="M50.45,46.94a4.46,4.46,0,0,0-.2,1.59,4.67,4.67,0,0,0,.52,2.65c.8,1.2,2.44,1.31,3.84,1.31l5.79,0a2.06,2.06,0,0,0,.75-.1C57.09,51.78,52.87,50.2,50.45,46.94Z"/><path class="cls-14" d="M60.39,47.71l-.13,0A2.18,2.18,0,0,0,58.38,47c-.56,0-1.28.11-1.37.68s.31.82.53,1.21a5.17,5.17,0,0,1,.23,2.55.68.68,0,0,0,.75.82c1.14.15,2.54.19,3.17-.82a2.25,2.25,0,0,0,0-2.08A6.42,6.42,0,0,0,60.39,47.71Z"/><path class="cls-17" d="M60.24,48.2l-.1-.26a1.64,1.64,0,0,0-1.72,0,1.14,1.14,0,0,0-.24,1.63,1.46,1.46,0,0,0,1.36.26A4.35,4.35,0,0,1,61,49.61,1,1,0,0,0,60.24,48.2Z"/><path class="cls-16" d="M52.91,46.18a1.55,1.55,0,0,0,.36,1.66,4.23,4.23,0,0,0,1.5.9c-.47-.8-.8-2-.14-2.6a2.13,2.13,0,0,1,1.57-.4h.61l.23-.18-1.93-.13C54.29,45.37,53.29,45.42,52.91,46.18Z"/><ellipse class="cls-1" cx="21.87" cy="43.3" rx="6.19" ry="1.16"/><path class="cls-13" d="M23.73,37.09a7.88,7.88,0,0,0-3.82-.61,7.72,7.72,0,0,0-2.19.3,2.75,2.75,0,0,0-1.65,1.43,4.23,4.23,0,0,0-.22,1.66,4.69,4.69,0,0,0,.52,2.66c.8,1.2,2.44,1.31,3.84,1.3l5.79,0a2,2,0,0,0,.8-.11c.72-.31.87-1.3.74-2.1A6.13,6.13,0,0,0,23.73,37.09Z"/><path class="cls-15" d="M16.05,38.29a4.4,4.4,0,0,0-.2,1.58,4.69,4.69,0,0,0,.52,2.66c.8,1.2,2.44,1.31,3.84,1.3l5.79,0a2.06,2.06,0,0,0,.75-.1C22.68,43.13,18.47,41.54,16.05,38.29Z"/><path class="cls-14" d="M26,39.06l-.13,0A2.18,2.18,0,0,0,24,38.37c-.56,0-1.28.12-1.38.69s.32.82.54,1.21a5.17,5.17,0,0,1,.23,2.55.93.93,0,0,0,.13.57.91.91,0,0,0,.62.25c1.14.15,2.54.18,3.17-.82a2.28,2.28,0,0,0,0-2.08A6.42,6.42,0,0,0,26,39.06Z"/><path class="cls-17" d="M25.84,39.55l-.1-.26a1.64,1.64,0,0,0-1.72,0,1.14,1.14,0,0,0-.24,1.63,1.43,1.43,0,0,0,1.36.25A4.34,4.34,0,0,1,26.56,41,1,1,0,0,0,25.84,39.55Z"/><path class="cls-16" d="M18.51,37.53a1.55,1.55,0,0,0,.36,1.66,4.23,4.23,0,0,0,1.5.9c-.47-.81-.8-2-.14-2.6a2.18,2.18,0,0,1,1.57-.41h.61l.23-.19-1.93-.12C19.89,36.72,18.89,36.77,18.51,37.53Z"/></svg>