<svg xmlns="http://www.w3.org/2000/svg" xmlns:xlink="http://www.w3.org/1999/xlink" viewBox="0 0 158 64"><defs><style>.cls-1{isolation:isolate;}.cls-11,.cls-2,.cls-21,.cls-23,.cls-25,.cls-39,.cls-43,.cls-49,.cls-50{opacity:0.2;}.cls-2,.cls-39{mix-blend-mode:multiply;}.cls-3{fill:#89ca3c;}.cls-13,.cls-16,.cls-19,.cls-3,.cls-44,.cls-6{stroke:#1e7248;}.cls-10,.cls-12,.cls-13,.cls-14,.cls-15,.cls-16,.cls-17,.cls-19,.cls-22,.cls-24,.cls-3,.cls-30,.cls-38,.cls-4,.cls-40,.cls-41,.cls-42,.cls-44,.cls-46,.cls-5,.cls-6,.cls-7,.cls-8,.cls-9{stroke-miterlimit:10;}.cls-10,.cls-12,.cls-13,.cls-14,.cls-15,.cls-16,.cls-17,.cls-19,.cls-22,.cls-24,.cls-3,.cls-30,.cls-38,.cls-4,.cls-41,.cls-42,.cls-44,.cls-46,.cls-5,.cls-6,.cls-7,.cls-8,.cls-9{stroke-width:0.75px;}.cls-10,.cls-12,.cls-14,.cls-15,.cls-17,.cls-22,.cls-24,.cls-30,.cls-4,.cls-5,.cls-7,.cls-9{stroke:#37a53f;}.cls-4{fill:url(#linear-gradient);}.cls-5{fill:url(#linear-gradient-2);}.cls-6{fill:#afdb71;}.cls-7{fill:url(#linear-gradient-3);}.cls-8{fill:none;stroke:#000;}.cls-9{fill:url(#linear-gradient-4);}.cls-10{fill:url(#linear-gradient-5);}.cls-11{fill:url(#linear-gradient-6);}.cls-12{fill:url(#linear-gradient-7);}.cls-13{fill:url(#linear-gradient-8);}.cls-14{fill:url(#linear-gradient-9);}.cls-15{fill:url(#linear-gradient-10);}.cls-16{fill:url(#linear-gradient-11);}.cls-17{fill:url(#linear-gradient-12);}.cls-18,.cls-51{fill:#fff;}.cls-18{opacity:0.4;}.cls-19{fill:url(#linear-gradient-13);}.cls-20,.cls-31,.cls-37,.cls-47{opacity:0.09;}.cls-20{fill:url(#linear-gradient-14);}.cls-21{fill:url(#linear-gradient-15);}.cls-22{fill:url(#linear-gradient-16);}.cls-23{fill:url(#linear-gradient-17);}.cls-24{fill:url(#linear-gradient-18);}.cls-25{fill:url(#linear-gradient-19);}.cls-26,.cls-27,.cls-28,.cls-29,.cls-32,.cls-33,.cls-34,.cls-35,.cls-36{opacity:0.22;}.cls-26{fill:url(#linear-gradient-20);}.cls-27{fill:url(#linear-gradient-21);}.cls-28{fill:url(#linear-gradient-22);}.cls-29{fill:url(#linear-gradient-23);}.cls-30{fill:url(#linear-gradient-24);}.cls-31{fill:url(#linear-gradient-25);}.cls-32{fill:url(#linear-gradient-26);}.cls-33{fill:url(#linear-gradient-27);}.cls-34{fill:url(#linear-gradient-28);}.cls-35{fill:url(#linear-gradient-29);}.cls-36{fill:url(#linear-gradient-30);}.cls-37{fill:url(#linear-gradient-31);}.cls-38,.cls-40,.cls-41,.cls-42,.cls-46{stroke:#328e57;}.cls-38{fill:url(#linear-gradient-32);}.cls-39{fill:#55c51e;}.cls-40{fill:#8ccf38;stroke-width:0.5px;}.cls-41{fill:url(#linear-gradient-33);}.cls-42{fill:url(#linear-gradient-34);}.cls-43{fill:#ffff9f;mix-blend-mode:color-dodge;}.cls-44{fill:#74c03c;}.cls-45{fill:#40962d;opacity:0.49;}.cls-46{fill:url(#linear-gradient-35);}.cls-47{fill:url(#linear-gradient-36);}.cls-48{opacity:0.12;fill:url(#linear-gradient-37);}.cls-49{fill:url(#linear-gradient-38);}.cls-50{fill:url(#linear-gradient-39);}.cls-51{opacity:0.52;}</style><linearGradient id="linear-gradient" x1="1.88" y1="36.47" x2="49" y2="36.47" gradientUnits="userSpaceOnUse"><stop offset="0" stop-color="#fdffc7"/><stop offset="0.99" stop-color="#9ee62c"/></linearGradient><linearGradient id="linear-gradient-2" x1="59.45" y1="41.49" x2="78.29" y2="41.49" xlink:href="#linear-gradient"/><linearGradient id="linear-gradient-3" x1="63.68" y1="44.81" x2="82.52" y2="44.81" xlink:href="#linear-gradient"/><linearGradient id="linear-gradient-4" x1="55.05" y1="50.31" x2="75.86" y2="50.31" xlink:href="#linear-gradient"/><linearGradient id="linear-gradient-5" x1="59.1" y1="34.07" x2="79.06" y2="34.07" xlink:href="#linear-gradient"/><linearGradient id="linear-gradient-6" x1="63.91" y1="45.69" x2="81.9" y2="45.69" gradientUnits="userSpaceOnUse"><stop offset="0"/><stop offset="0.99"/></linearGradient><linearGradient id="linear-gradient-7" x1="1.96" y1="53.13" x2="41.37" y2="53.13" xlink:href="#linear-gradient"/><linearGradient id="linear-gradient-8" x1="0.84" y1="49.48" x2="43" y2="49.48" gradientUnits="userSpaceOnUse"><stop offset="0" stop-color="#d5ff9f"/><stop offset="0.99" stop-color="#86da2c"/></linearGradient><linearGradient id="linear-gradient-9" x1="1.88" y1="38.27" x2="41.4" y2="38.27" xlink:href="#linear-gradient"/><linearGradient id="linear-gradient-10" x1="1.88" y1="46.2" x2="45.95" y2="46.2" xlink:href="#linear-gradient"/><linearGradient id="linear-gradient-11" x1="1.87" y1="42.3" x2="47.71" y2="42.3" xlink:href="#linear-gradient-8"/><linearGradient id="linear-gradient-12" x1="60.3" y1="28.94" x2="78.94" y2="28.94" xlink:href="#linear-gradient"/><linearGradient id="linear-gradient-13" x1="0.88" y1="32.53" x2="50.14" y2="32.53" xlink:href="#linear-gradient-8"/><linearGradient id="linear-gradient-14" x1="167.92" y1="19.87" x2="185.91" y2="19.87" gradientTransform="matrix(0.91, 0.12, -0.13, 0.99, -87.25, -9.93)" xlink:href="#linear-gradient-6"/><linearGradient id="linear-gradient-15" x1="54.33" y1="51.97" x2="72.31" y2="51.97" gradientTransform="matrix(1.05, -0.01, 0.01, 1, -1.54, -0.02)" xlink:href="#linear-gradient-6"/><linearGradient id="linear-gradient-16" x1="59.96" y1="54.04" x2="76.85" y2="54.04" xlink:href="#linear-gradient"/><linearGradient id="linear-gradient-17" x1="-73.44" y1="292.94" x2="-55.45" y2="292.94" gradientTransform="matrix(0.88, -0.15, 0.13, 0.74, 87.24, -170.8)" xlink:href="#linear-gradient-6"/><linearGradient id="linear-gradient-18" x1="57.26" y1="45.19" x2="76.11" y2="45.19" xlink:href="#linear-gradient"/><linearGradient id="linear-gradient-19" x1="57.29" y1="46.93" x2="75.28" y2="46.93" xlink:href="#linear-gradient-6"/><linearGradient id="linear-gradient-20" x1="57.63" y1="33.43" x2="60.24" y2="33.43" xlink:href="#linear-gradient-6"/><linearGradient id="linear-gradient-21" x1="55.98" y1="46.25" x2="58.59" y2="46.25" xlink:href="#linear-gradient-6"/><linearGradient id="linear-gradient-22" x1="53.57" y1="51.2" x2="56.52" y2="51.2" xlink:href="#linear-gradient-6"/><linearGradient id="linear-gradient-23" x1="58.95" y1="55.55" x2="61.18" y2="55.55" xlink:href="#linear-gradient-6"/><linearGradient id="linear-gradient-24" x1="57.04" y1="37.83" x2="76.88" y2="37.83" xlink:href="#linear-gradient"/><linearGradient id="linear-gradient-25" x1="155.67" y1="29.27" x2="173.65" y2="29.27" gradientTransform="translate(-92.32 -10.59) rotate(7.49)" xlink:href="#linear-gradient-6"/><linearGradient id="linear-gradient-26" x1="55.98" y1="38.19" x2="58.59" y2="38.19" xlink:href="#linear-gradient-6"/><linearGradient id="linear-gradient-27" x1="47.19" y1="31.24" x2="50.46" y2="31.24" xlink:href="#linear-gradient-6"/><linearGradient id="linear-gradient-28" x1="204.05" y1="0.6" x2="207.32" y2="0.6" gradientTransform="translate(-160.31 -11.13) rotate(12.78)" xlink:href="#linear-gradient-6"/><linearGradient id="linear-gradient-29" x1="44.83" y1="42.32" x2="48.2" y2="42.32" xlink:href="#linear-gradient-6"/><linearGradient id="linear-gradient-30" x1="38.27" y1="57.26" x2="41.33" y2="57.26" xlink:href="#linear-gradient-6"/><linearGradient id="linear-gradient-31" x1="3.04" y1="35.01" x2="41.33" y2="35.01" xlink:href="#linear-gradient-6"/><linearGradient id="linear-gradient-32" x1="5159.93" y1="-5.51" x2="5205.75" y2="-5.51" gradientTransform="matrix(0.99, 0.1, -0.12, 0.97, -5033.09, -498.07)" gradientUnits="userSpaceOnUse"><stop offset="0" stop-color="#fdffc7"/><stop offset="0.13" stop-color="#e8f9a5"/><stop offset="0.33" stop-color="#cef37a"/><stop offset="0.52" stop-color="#b9ed58"/><stop offset="0.69" stop-color="#aae940"/><stop offset="0.86" stop-color="#a1e731"/><stop offset="0.99" stop-color="#9ee62c"/></linearGradient><linearGradient id="linear-gradient-33" x1="5169.39" y1="0.32" x2="5215.21" y2="0.32" xlink:href="#linear-gradient-32"/><linearGradient id="linear-gradient-34" x1="5165.26" y1="11.03" x2="5211.07" y2="11.03" xlink:href="#linear-gradient-32"/><linearGradient id="linear-gradient-35" x1="5178.96" y1="3.58" x2="5224.78" y2="3.58" xlink:href="#linear-gradient-32"/><linearGradient id="linear-gradient-36" x1="4.92" y1="43.16" x2="44.82" y2="43.16" xlink:href="#linear-gradient-6"/><linearGradient id="linear-gradient-37" x1="5.36" y1="46.42" x2="45.85" y2="46.42" xlink:href="#linear-gradient-6"/><linearGradient id="linear-gradient-38" x1="6.73" y1="50.63" x2="42.96" y2="50.63" xlink:href="#linear-gradient-6"/><linearGradient id="linear-gradient-39" x1="8.48" y1="54.29" x2="38.68" y2="54.29" xlink:href="#linear-gradient-6"/></defs><g class="cls-1"><g id="Layer_1" data-name="Layer 1"><g class="cls-2"><ellipse cx="24.5" cy="56.5" rx="22.5" ry="7"/><ellipse cx="67" cy="55" rx="15" ry="3.5"/><ellipse cx="121.5" cy="54.5" rx="34.5" ry="6"/></g><path class="cls-3" d="M121.07,27c1.32-1.92.12-3.3.82-5.12,1.07-2.78,2.36-.08,3.55-.31.78-.14.5-.88,1.33-.79s.44,1.39,1.46.09,1.18-3.92,3.42-3.69c1.06.12,1.1,1.65,1.76,2.27,1,.94,1.55-1.08,2.67-.34.83.55.07,2.05.9,2.44s2.49-1.15,3.45-1.2c1.76-.08,1.32,1.93,1.52,3.38.34,2.44,2.25.92,3.58,2.17,1.52,1.42,1.2,6.27-.89,7.34-1.88,1-4.09.56-6,.45a33.91,33.91,0,0,1-15.53-4.88Z"/><path class="cls-3" d="M57.85,27.31l11.37,1.22-.44-2.7L59.89,24.6S57.85,26.32,57.85,27.31Z"/><path class="cls-4" d="M49,27.28c-18.89-1-47.33,5.81-47.12,18.48a35.88,35.88,0,0,1,13.28-8.93c10-3.94,19.1-4.57,33.63-3.74Z"/><path class="cls-5" d="M59.45,38.22l17.94.43s2,3.05,0,5.67l-17.5.43A23.33,23.33,0,0,0,59.45,38.22Z"/><ellipse class="cls-6" cx="59.52" cy="41.49" rx="1.24" ry="3.26" transform="translate(-2.71 4.19) rotate(-3.95)"/><path class="cls-7" d="M63.68,42.25l17.4.33a1.06,1.06,0,0,1,.88.51,3.11,3.11,0,0,1,0,3.54,1,1,0,0,1-.81.4l-17,.34A14.43,14.43,0,0,0,63.68,42.25Z"/><ellipse class="cls-8" cx="63.75" cy="44.81" rx="1.24" ry="2.55" transform="translate(-4.09 6.47) rotate(-5.63)"/><path class="cls-9" d="M55.05,47.48l19.3.36a1,1,0,0,1,.84.49,3.48,3.48,0,0,1,0,4.07,1,1,0,0,1-.77.37l-18.87.37A15.9,15.9,0,0,0,55.05,47.48Z"/><path class="cls-10" d="M59.1,29.44l18.61,3.24a1,1,0,0,1,.73.57c.44,1,1.19,3.23-.07,5.06a1,1,0,0,1-.91.39L59.33,36.43A25,25,0,0,0,59.1,29.44Z"/><ellipse class="cls-6" cx="59.06" cy="32.91" rx="1.32" ry="3.48" transform="translate(-1.7 3.26) rotate(-3.12)"/><path class="cls-11" d="M63.91,45l16.49.09a2.7,2.7,0,0,1,1,.14c.41.2,1,.59,0,1a3.22,3.22,0,0,1-.91.12l-16,.08c-.08,0-.15,0-.14,0A1.28,1.28,0,0,0,63.91,45Z"/><path class="cls-3" d="M56.89.5s1.67,12.17-20.55,19.06A78.11,78.11,0,0,0,1.88,41.19S-1.65,23.13,13.5,15.87c2.08-1,7.66-1.3,8.1-1.46,3.94-1.45,3.11-4.15,5.6-4.77,3.48-.87,2.08.62,6.65-.62s3.94-5.19,8.92-6.23,4.57,2.28,9.34.83S56.89.5,56.89.5Z"/><path class="cls-12" d="M2,45.78S8.52,66.72,40.28,58.63c0,0,2.7-2.29-.42-4.78C39.86,53.85,13.66,59.29,2,45.78Z"/><path class="cls-13" d="M41.32,47.21C33.85,49.7,8.11,50.74.84,44.51c0,0,5,14.74,40.89,8.3C41.73,52.81,44.85,51.36,41.32,47.21Z"/><path class="cls-14" d="M41.11,31C41,30.62,5,28.94,1.88,45.76c0,0,8.92-11.21,38-8.72C39.31,37,42.31,35.58,41.11,31Z"/><path class="cls-15" d="M44.85,43.06c0-.6-30.77,1.88-43,2.7,0,0,.83,6.64,43,2.07C44.85,47.83,47.34,45.13,44.85,43.06Z"/><ellipse class="cls-6" cx="40.5" cy="33.92" rx="3.09" ry="1.7" transform="translate(-1.84 65.52) rotate(-76.69)"/><path class="cls-6" d="M47.1,30.25c0,1.63.76,3,1.7,3s1.7-1.32,1.7-3-.77-3-1.71-3S47.1,28.62,47.1,30.25Z"/><ellipse class="cls-6" cx="39.89" cy="56.34" rx="1.48" ry="2.49"/><path class="cls-16" d="M46.51,38.08c-18.63-1.65-33.09,1.23-44.63,7.68-.42,4.77,18.68-6.23,44.63-1.46A4.61,4.61,0,0,0,46.51,38.08Z"/><path class="cls-17" d="M77,25.59c-.11-.09-12.41-.83-16.08-1.05a.54.54,0,0,0-.49.82l3.74,6.12,13.31,1.85a1,1,0,0,0,1.11-.71C79,31,79.58,27.62,77,25.59Z"/><path class="cls-6" d="M44.82,41.19c0,1.71.76,3.09,1.7,3.09s1.69-1.38,1.69-3.09-.77-3.11-1.7-3.11S44.82,39.48,44.82,41.19Z"/><path class="cls-18" d="M53,5.91s1.66,7-28.95,16.54L6.22,33.21c3.51-4.57,6.76-9.14,5-13.65,2.38,3.34,2.52,7.45-.41,8.68,5-2.06,10-5.77,9.51-11.16,1,3.12.66,5.71-1.66,7.44,5.24-2.17,9.13-5.61,10.76-11.17a8.31,8.31,0,0,1-3.31,7l5.38-2.48c3.62-1.42,5.44-4.41,5.79-8.68.36,2.94,0,5.62-2.49,7.44l6.62-2.48c3.25-2.47,4.16-5.1,3.31-7.86,1.43,2.37,1.33,4.59-.83,6.62C47.85,12.21,52.54,8.8,53,5.91Z"/><path class="cls-19" d="M49.48,19.3a.62.62,0,0,1,.62.52,4.65,4.65,0,0,1-.48,2.68c-.62,1.42-6.64-.71-6.75,8.64.87.57-33.9.11-40.47,14.26,0,0-.63,1-1.25,0S-.3,30.19,14.44,24.75C29,19.38,38.86,19.08,49.48,19.3Z"/><path class="cls-6" d="M49.64,22.87a3,3,0,0,0,1-3,.78.78,0,0,0-.81-.69c-2.78.18-8.84,2-8.43,11.93h2.07S42.2,23.28,49.64,22.87Z"/><path class="cls-20" d="M62.69,29.14l15,2.05a2.13,2.13,0,0,1,.86.26c.35.24.79.69-.11.95a2.64,2.64,0,0,1-.85,0L63,30.58c-.08,0-.14,0-.13,0A1.35,1.35,0,0,0,62.69,29.14Z"/><path class="cls-21" d="M55.63,50.86l17.25,0a3,3,0,0,1,1,.13c.43.2,1,.58,0,1A3.18,3.18,0,0,1,73,52l-16.72.21c-.08,0-.15,0-.15,0A1.24,1.24,0,0,0,55.63,50.86Z"/><path class="cls-22" d="M60,53l15.23-2a1.28,1.28,0,0,1,1.29.61A2.18,2.18,0,0,1,76.55,54a1.32,1.32,0,0,1-.94.63l-15,2.46A10.27,10.27,0,0,0,60,53Z"/><ellipse class="cls-6" cx="55.13" cy="50.21" rx="1.37" ry="2.86" transform="translate(-4.55 5.51) rotate(-5.49)"/><path class="cls-23" d="M60.52,55.68,75,53.23a3.08,3.08,0,0,1,.86,0c.39.09.92.29.14.71a3.4,3.4,0,0,1-.79.22l-14,2.51c-.07,0-.13,0-.13,0A.88.88,0,0,0,60.52,55.68Z"/><ellipse class="cls-6" cx="60.16" cy="55.04" rx="1.12" ry="2.05" transform="translate(-7.59 9.67) rotate(-8.65)"/><path class="cls-6" d="M57.85,27.31l-.73-.5s5-7.61,7,4.67H62.8S61.49,22.39,57.85,27.31Z"/><path class="cls-24" d="M57.26,41.92l17.27.42a1.15,1.15,0,0,1,1,.66,4.92,4.92,0,0,1,0,4.49,1.15,1.15,0,0,1-1,.55l-16.75.41a.15.15,0,0,1-.15-.15A22.45,22.45,0,0,0,57.26,41.92Z"/><path class="cls-25" d="M57.29,46.23l16.49.09a3,3,0,0,1,1,.14c.42.2,1,.59,0,1a3.33,3.33,0,0,1-.91.12l-16,.08c-.09,0-.15,0-.15,0A1.29,1.29,0,0,0,57.29,46.23Z"/><ellipse class="cls-6" cx="57.34" cy="45.03" rx="1.24" ry="3.3" transform="translate(-2.91 3.98) rotate(-3.87)"/><path class="cls-26" d="M57.63,31.71s1.62,4.68,2.61-.33c0,0,.16,4.1-1.09,4.1h0S57.91,35.07,57.63,31.71Z"/><path class="cls-27" d="M56,44.53s1.62,4.68,2.6-.32c0,0,.16,4.09-1.08,4.09h0S56.26,47.89,56,44.53Z"/><path class="cls-28" d="M53.57,49.46s1.83,4.72,2.94-.33c0,0,.18,4.13-1.22,4.13h0S53.89,52.85,53.57,49.46Z"/><path class="cls-29" d="M59,54.92s1.29,2.71,2.07-.83c0,0,.56,2.9-.42,2.9h0S59.17,57.29,59,54.92Z"/><path class="cls-30" d="M57.57,33.26,75.5,36.38a1,1,0,0,1,.77.6c.42,1,1.14,3.14,0,4.94a1,1,0,0,1-1,.47L58.12,40.25a1,1,0,0,1-.9-1.08,24.59,24.59,0,0,0-.17-5.39A.45.45,0,0,1,57.57,33.26Z"/><ellipse class="cls-6" cx="57.31" cy="36.72" rx="1.32" ry="3.52" transform="translate(-1.88 3.11) rotate(-3.06)"/><path class="cls-31" d="M58.29,38l16.33,2.23a2.66,2.66,0,0,1,.94.27c.38.25.87.71-.11,1a3.09,3.09,0,0,1-.92,0l-15.85-2c-.09,0-.15,0-.15-.05A1.27,1.27,0,0,0,58.29,38Z"/><path class="cls-32" d="M56,36.47s1.62,4.67,2.6-.33c0,0,.16,4.1-1.08,4.1h0S56.26,39.82,56,36.47Z"/><path class="cls-33" d="M47.37,29.28c-.28,0-.48,4.13,1.53,3.91,1.78-.19,1.55-3.65,1.55-3.65C50.26,30.1,48.61,33,47.37,29.28Z"/><path class="cls-34" d="M39.15,32.73c-.26-.08-1.38,3.92.63,4.15,1.78.21,2.32-3.22,2.32-3.22C41.79,34.17,39.54,36.63,39.15,32.73Z"/><path class="cls-35" d="M44.84,40.77s-.25,3.47,1.76,3.44,1.56-3.78,1.56-3.78-.38,2.08-1.21,2.5S45.2,42.34,44.84,40.77Z"/><path class="cls-36" d="M38.27,55.75s.34,3.28,1.82,3.08,1.22-3.15,1.22-3.15-.56,1.72-1.39,1.72S38.27,55.75,38.27,55.75Z"/><path class="cls-37" d="M41.33,30.24S12.06,28.23,3,42.4C3,42.4,9.73,24.73,41.16,28Z"/><path class="cls-38" d="M101.69,41.83c3.84.44,12.76-1.34,15.76-1.84s3.56-2.26,5.35-3.51,2.19-2.65,1.84-3.65.24-2.15,2.5-3.34,2.22-2.89.49-5.26-2.24,0-3.68.19-.07-1.45-1.11-2.66-2.91.76-4,1.12-.21-1.23-2.72-2-3.84,2.7-4.85,3.31.13-1.19-1.13-1.45-2.7,2-4,1.35-1.88,0-2.38,1.3-2.75,1.38-4.26,1.22-3,1.23-5.21,1.22S96,25.63,96.5,24.48s-4.13,1.1-5.18,2.07-6.9.55-7.52.84-1.14,1.68-1.14,1.68c2.57,3.86,8.89,8.13,19.09,12.82"/><path class="cls-39" d="M83.76,29.69c1.94.58,6.22-.76,7.53-.85s4,1.78,5.35.6,4.24-2.06,5.9-1.15,2.23-.95,3.39-1.79S109,25,109.16,26,111,28.4,112,27.18s1.86-4.86,3.63-2.85,3.08,1.91,5,2.37,2,3.13.81,4.2-1.13,3.73-2.19,4.7S117.82,38.82,116,39,101.77,41.81,97.82,40"/><path class="cls-18" d="M90.2,33.6c.63-.68,2-.81,2.72-1.21A20.63,20.63,0,0,0,97,29.44s.1,0,.06.07a8.91,8.91,0,0,1-3.14,3,16,16,0,0,1-2.16,1,4.31,4.31,0,0,0-.49.22,60.94,60.94,0,0,0,6.34,0c.44,0,.87-.07,1.29-.13a23.89,23.89,0,0,0,4.15-2.12,29.11,29.11,0,0,0,3.34-3.13s.11,0,.07.06a15,15,0,0,1-3.79,3.92c-.41.28-.86.58-1.33.84a30,30,0,0,0,10.94-5.59,0,0,0,1,1,0,0c-3.14,2.82-6.83,5.39-11,6.26.8.15,1.6.38,2.36.48a14.41,14.41,0,0,0,5.43-.4s.06.05,0,.06a10.88,10.88,0,0,1-4.77.81,20.13,20.13,0,0,1-4.77-.69,57,57,0,0,1-7.4.25,4.92,4.92,0,0,1,.69.34c1.07.61,2.17,1.18,3.17,1.89a.08.08,0,0,1-.08.14,11.29,11.29,0,0,1-2.69-1.29c-.88-.49-1.87-.67-2.72-1.14"/><path class="cls-18" d="M85.56,29.14s0,0,0,0a5.22,5.22,0,0,1-2.33,2.56"/><path class="cls-40" d="M101.69,41.83c3.84.44,12.76-1.34,15.76-1.84s3.56-2.26,5.35-3.51l.32-.23c-.29-.21-.6-.43-.92-.68-2.82-2.13-4.58,1.9-6.21,2.8s-3.56.21-5.91.18-4,1-6.08.65-1-1.8-3-1.91-3.34,1.32-3.32.11-3.31.12-5.19.15.25-3.24-1.7-3.7S86,36.69,85.41,37C89.08,40,94.29,41.75,101.69,41.83Z"/><path class="cls-18" d="M97.63,39.4a2.72,2.72,0,0,1-.78,1.85c-.64.42-.56-.09-.36-.37a3.71,3.71,0,0,0,.73-1.28C97.41,39,97.62,39,97.63,39.4Z"/><path class="cls-18" d="M100.19,38.51c0,.56-.25,1.45-1.68,2.85-1.16.65-.92-.14-.53-.57a7.07,7.07,0,0,0,1.48-2C99.9,37.83,100.24,38,100.19,38.51Z"/><path class="cls-18" d="M101.7,40a1.88,1.88,0,0,1-.84,1.12c-.47.12-.32-.22-.14-.37a2.51,2.51,0,0,0,.69-.72C101.65,39.57,101.77,39.69,101.7,40Z"/><path class="cls-18" d="M101,39.33A2.82,2.82,0,0,1,99.78,41c-.72.3-.53-.19-.27-.43a3.94,3.94,0,0,0,1-1.12C100.82,38.86,101,39,101,39.33Z"/><path class="cls-41" d="M110.38,48.45c3.83.43,12.75-1.34,15.76-1.85s3.55-2.25,5.35-3.5,2.19-2.65,1.83-3.66.25-2.14,2.5-3.33,2.22-2.89.49-5.26-2.24,0-3.67.19-.07-1.46-1.11-2.66-2.91.76-4,1.12-.21-1.23-2.71-2-3.85,2.71-4.86,3.32.14-1.19-1.13-1.45-2.7,2-4,1.35-1.89,0-2.39,1.3-2.75,1.38-4.26,1.21-3,1.24-5.21,1.23,1.79-2.22,2.28-3.37-4.14,1.11-5.19,2.07-6.89.56-7.52.85-1.13,1.68-1.13,1.68c2.57,3.86,8.88,8.13,19.09,12.82"/><path class="cls-39" d="M92.45,36.31c1.93.58,6.22-.76,7.52-.86s4,1.78,5.35.61,4.24-2.06,5.91-1.15,2.23-1,3.38-1.79,3.12-1.46,3.24-.48,1.85,2.38,2.81,1.16,1.85-4.86,3.63-2.85,3.07,1.91,5,2.37,2,3.12.81,4.2-1.13,3.73-2.18,4.7-1.43,3.22-3.22,3.38-14.26,2.83-18.21,1"/><path class="cls-18" d="M98.89,40.21c.62-.67,1.94-.8,2.71-1.2a20.06,20.06,0,0,0,4.1-2.95s.1,0,.07.07a9.18,9.18,0,0,1-3.14,3,17.39,17.39,0,0,1-2.16,1,4.31,4.31,0,0,0-.49.22,58.29,58.29,0,0,0,6.34,0c.43,0,.86-.07,1.29-.12A24.66,24.66,0,0,0,111.76,38a27.33,27.33,0,0,0,3.33-3.12s.12,0,.08.05a15.43,15.43,0,0,1-3.8,3.93c-.41.27-.85.57-1.33.84A30,30,0,0,0,121,34.13a0,0,0,0,1,0,0c-3.14,2.81-6.84,5.39-11.06,6.26.8.15,1.6.38,2.37.48a14.38,14.38,0,0,0,5.42-.41s.06.06,0,.07a10.85,10.85,0,0,1-4.77.81,20.12,20.12,0,0,1-4.76-.69,57.08,57.08,0,0,1-7.4.25,5.47,5.47,0,0,1,.69.33c1.06.62,2.16,1.19,3.17,1.9.08.06,0,.16-.09.14A11.22,11.22,0,0,1,101.94,42c-.88-.49-1.87-.67-2.73-1.14"/><path class="cls-18" d="M94.24,35.76s.06,0,.05,0A5.22,5.22,0,0,1,92,38.34"/><path class="cls-40" d="M110.38,48.45c3.83.43,12.75-1.34,15.76-1.85s3.55-2.25,5.35-3.5l.31-.23-.92-.68c-2.81-2.13-4.57,1.9-6.21,2.8s-3.55.2-5.91.18-4,1-6.08.64-1-1.79-3-1.9-3.33,1.32-3.31.11-3.31.11-5.2.14.25-3.23-1.69-3.69-4.81,2.84-5.43,3.13C97.76,46.59,103,48.37,110.38,48.45Z"/><path class="cls-18" d="M106.31,46a2.67,2.67,0,0,1-.78,1.85c-.64.42-.55-.09-.35-.37a4.11,4.11,0,0,0,.73-1.28C106.1,45.58,106.31,45.66,106.31,46Z"/><path class="cls-18" d="M108.88,45.13A4.61,4.61,0,0,1,107.2,48c-1.17.65-.93-.14-.54-.58a6.5,6.5,0,0,0,1.48-2C108.59,44.45,108.93,44.57,108.88,45.13Z"/><path class="cls-18" d="M110.39,46.57a1.88,1.88,0,0,1-.84,1.11c-.48.13-.33-.21-.15-.36a2.51,2.51,0,0,0,.7-.72C110.34,46.19,110.45,46.31,110.39,46.57Z"/><path class="cls-18" d="M109.63,46a2.77,2.77,0,0,1-1.17,1.68c-.72.3-.52-.19-.27-.43a3.8,3.8,0,0,0,1-1.12C109.51,45.48,109.7,45.6,109.63,46Z"/><path class="cls-42" d="M105,58.38c3.84.43,12.76-1.34,15.76-1.85s3.56-2.26,5.35-3.5,2.19-2.65,1.83-3.66.25-2.14,2.51-3.34,2.21-2.89.48-5.25-2.23,0-3.67.19-.07-1.46-1.11-2.66-2.91.76-4,1.11-.21-1.23-2.72-2-3.84,2.71-4.85,3.32.13-1.2-1.13-1.46-2.71,2-4,1.36-1.88,0-2.38,1.3-2.75,1.38-4.27,1.21-3,1.23-5.2,1.22,1.78-2.21,2.27-3.36-4.13,1.1-5.19,2.07-6.89.55-7.51.84S86,45.62,86,45.62c2.57,3.86,8.89,8.12,19.09,12.81"/><path class="cls-39" d="M87.07,46.23c1.94.58,6.22-.75,7.53-.85s4,1.78,5.35.6,4.24-2,5.9-1.14,2.23-1,3.39-1.8,3.11-1.46,3.23-.48,1.85,2.38,2.81,1.16,1.86-4.86,3.63-2.85,3.08,1.92,5,2.38,2,3.12.81,4.19-1.14,3.74-2.19,4.7-1.43,3.22-3.21,3.38-14.27,2.83-18.22,1"/><path class="cls-18" d="M93.51,50.14c.63-.67,1.95-.81,2.72-1.21a20.19,20.19,0,0,0,4.1-2.94s.09,0,.06.06a9,9,0,0,1-3.14,3,17.32,17.32,0,0,1-2.16,1l-.49.22a58.3,58.3,0,0,0,6.34,0q.66,0,1.29-.12A24.66,24.66,0,0,0,106.38,48a29,29,0,0,0,3.34-3.12s.11,0,.07.05A15.19,15.19,0,0,1,106,48.8c-.41.28-.86.58-1.33.84a29.91,29.91,0,0,0,10.93-5.59s.08,0,.05.06c-3.14,2.81-6.83,5.39-11.06,6.26.81.14,1.61.38,2.37.48a14.43,14.43,0,0,0,5.43-.41s0,.05,0,.07a11.17,11.17,0,0,1-4.77.81,20.65,20.65,0,0,1-4.77-.69,57.08,57.08,0,0,1-7.4.24,4.92,4.92,0,0,1,.69.34c1.07.62,2.17,1.19,3.17,1.89.08.06,0,.17-.08.15A11.29,11.29,0,0,1,96.56,52c-.88-.49-1.87-.68-2.73-1.15"/><path class="cls-18" d="M88.87,45.68s0,0,0,0a5.22,5.22,0,0,1-2.33,2.56"/><path class="cls-40" d="M105,58.38c3.84.43,12.76-1.34,15.76-1.85s3.56-2.26,5.35-3.5l.31-.23-.91-.69c-2.82-2.12-4.58,1.9-6.21,2.81s-3.56.2-5.91.18-4,1-6.08.64-1-1.8-3-1.9S101,55.15,101,54s-3.31.11-5.2.14.26-3.23-1.69-3.69-4.8,2.84-5.43,3.13C92.38,56.51,97.6,58.3,105,58.38Z"/><path class="cls-18" d="M100.94,55.94a2.68,2.68,0,0,1-.79,1.85c-.63.42-.55-.09-.35-.37a3.75,3.75,0,0,0,.73-1.27C100.72,55.5,100.93,55.58,100.94,55.94Z"/><path class="cls-18" d="M103.5,55.05c0,.56-.25,1.45-1.68,2.86-1.16.64-.93-.15-.53-.58a6.85,6.85,0,0,0,1.48-2C103.21,54.37,103.55,54.5,103.5,55.05Z"/><path class="cls-18" d="M105,56.49a1.88,1.88,0,0,1-.84,1.12c-.47.13-.32-.22-.15-.36a2.39,2.39,0,0,0,.7-.72C105,56.12,105.08,56.23,105,56.49Z"/><path class="cls-18" d="M104.25,55.88a2.76,2.76,0,0,1-1.16,1.68c-.72.29-.53-.19-.27-.43a4.34,4.34,0,0,0,1-1.13C104.13,55.41,104.32,55.52,104.25,55.88Z"/><path class="cls-43" d="M151.51,43.51c.44-1.16,1.52-2.88.84-3.92-.46-.71-1.47.46-1.83-.34-.28-.59.45-2.39.64-3.13,1.09-4.21-1.87-1.65-3-2.55-1.49-1.16,1.3-5.3-.14-7a1.37,1.37,0,0,0-2.36.15,12.23,12.23,0,0,0-.8,2,2.74,2.74,0,0,0-.61-1.09,1.44,1.44,0,0,0-1-.43,1,1,0,0,0-.32-.06,1.36,1.36,0,0,0-.45.12c-.82.11-1.53.18-1.75-1.6s.18-4.48-1.53-4c-.94.28-2.49,2.66-3.33,2.33s-.1-2.42-.92-2.94c-1.1-.69-1.59,2-2.59,1.05-.65-.65-.72-2.59-1.75-2.5-1.39.13-1.92,1.55-2.39,3.06,2.14,1.23,3.7,3.7,5.5,5.77,1.34,2.13,4,1,5.37,3.14"/><path class="cls-44" d="M137.49,39c2.07-.52,5.73-1.3,5.78-5.74,0-1.69-.74-3.37-.19-4.56.33-.71.71.22.66-1.22A22.49,22.49,0,0,0,143,24.6c-.4-1.93-.28-4.22,1.24-2.73-.08-2.15,1-5,1.65-3.05.39-.9.5-2.08,1.24-2.3s1.22.9,2,1.27c1.36.67,2.37-.93,2.92,2.67,1.29-.49,3.31,1.34,3.52,4.22,2.63,1.09,1.31,5.8.72,7.38-1.38,3.66-4.09,4.52-6.64,5.48a27,27,0,0,1-7.5,1.74c-.94.07-2.26,1.62-3.23,1.57Z"/><path class="cls-45" d="M152.69,33.29a7.51,7.51,0,0,0,1.79-5.1c-.12-1.62-1.47-.89-2.12-1.32-.12-.34.53-1.18.27-1.86-.43-.71-1.3.41-1.78,0,.05-.31-.25-.68,0-1,.44-.56,1.78-1.29,1.18-2-.64-.93-1.64-1.22-1.57-2.68a22.8,22.8,0,0,1-1.65,2.57,7.08,7.08,0,0,0-.58.69A26.08,26.08,0,0,1,146,20.67c.46,1.37-.38,1.93-.71,3-.35.88,1.07,1.18,1.61,1.59.28.21.1.65.22.93-.32.52-1.42-.3-1.62.5,0,.73.77,1.34.74,1.7-.48.6-1.9.3-1.58,1.87a7.39,7.39,0,0,0,3,4.36c-.3.15-.73,0-.75.39.2,1.38,1.15,1.67,2,1.94l.57-.63a4.16,4.16,0,0,1,1-2.08,3.47,3.47,0,0,1,.91,1.22l.76.43c.75-.51,1.62-1.08,1.44-2.46C153.43,33.1,153,33.35,152.69,33.29Z"/><path class="cls-44" d="M131.78,47.75c2.05.6,5.61,1.77,7.89-2,.87-1.45,1.07-3.28,2.14-4,.64-.44.5.55,1.19-.72a22.84,22.84,0,0,0,.83-2.86c.64-1.86,1.9-3.78,2.46-1.72,1-1.91,3.37-3.84,3-1.81.79-.58,1.48-1.54,2.24-1.36s.59,1.39,1.06,2.1c.83,1.26,2.51.39,1.17,3.77,1.36.23,2.18,2.83.91,5.42,1.73,2.27-1.79,5.68-3.1,6.74-3,2.47-5.8,1.84-8.49,1.38a26.63,26.63,0,0,1-7.36-2.28c-.85-.42-2.77.25-3.57-.28Z"/><path class="cls-45" d="M151.51,40.52c0,1.06-1.71.55-2.49.64-.39,0-.4.57-.67.78.12.69,1.68.51,1.53,1.41-.27.74-1.45.87-1.59,1.24.25.86,1.93,1.37.85,2.73a7.66,7.66,0,0,1-5.26,2.55c.26.32.77.44.64.81-.86,1.22-2,1-3,.77l-.32-.94c.53-1.79-.48-2.68-.17-4.32s1.83-3.86,2.85-5.47a5.3,5.3,0,0,1,5-2.87,24.84,24.84,0,0,0,3.29-.68C151,38.26,151.65,39.27,151.51,40.52Z"/><path class="cls-46" d="M119.48,52.59c3.83.43,12.75-1.34,15.76-1.85s3.55-2.26,5.35-3.5,2.19-2.65,1.83-3.66.25-2.14,2.5-3.34,2.22-2.89.49-5.25-2.24,0-3.67.19-.07-1.46-1.11-2.66-2.92.76-4,1.11-.21-1.23-2.71-2S130.05,34.35,129,35s.14-1.2-1.13-1.46-2.7,2-4,1.36-1.89,0-2.39,1.3-2.75,1.38-4.26,1.21-3,1.23-5.21,1.22,1.79-2.21,2.27-3.36-4.13,1.1-5.18,2.07-6.89.55-7.52.84-1.13,1.69-1.13,1.69c2.57,3.86,8.88,8.12,19.09,12.81"/><path class="cls-39" d="M101.55,40.44c1.93.58,6.22-.75,7.52-.85s4,1.78,5.35.6,4.24-2,5.91-1.14,2.23-1,3.38-1.8,3.11-1.46,3.24-.48,1.84,2.38,2.81,1.16,1.85-4.86,3.62-2.85,3.08,1.92,5,2.38,2,3.12.81,4.19-1.13,3.74-2.18,4.7-1.44,3.22-3.22,3.38-14.26,2.83-18.21,1.05"/><path class="cls-18" d="M108,44.35c.62-.67,1.94-.81,2.71-1.21a19.65,19.65,0,0,0,4.1-2.94s.1,0,.07.06a9.09,9.09,0,0,1-3.14,3,15.61,15.61,0,0,1-2.17,1l-.48.22a58.3,58.3,0,0,0,6.34,0q.64,0,1.29-.12a25,25,0,0,0,4.15-2.13A28.93,28.93,0,0,0,124.19,39a0,0,0,0,1,.08.05,15.23,15.23,0,0,1-3.8,3.92c-.41.28-.86.58-1.33.84a30,30,0,0,0,10.94-5.59s.08,0,0,.06c-3.14,2.81-6.84,5.39-11.06,6.26.8.14,1.6.38,2.37.48a14.38,14.38,0,0,0,5.42-.41s.06.05,0,.07a11.17,11.17,0,0,1-4.77.81,20.65,20.65,0,0,1-4.76-.69,57.23,57.23,0,0,1-7.41.24,5,5,0,0,1,.7.34c1.06.62,2.16,1.19,3.17,1.89.08.06,0,.17-.09.15A11,11,0,0,1,111,46.17c-.88-.49-1.87-.68-2.73-1.15"/><path class="cls-18" d="M103.34,39.89a0,0,0,0,1,0,0,5.2,5.2,0,0,1-2.34,2.56"/><path class="cls-40" d="M119.48,52.59c3.83.43,12.75-1.34,15.76-1.85s3.55-2.26,5.35-3.5l.31-.23-.92-.69c-2.81-2.12-4.57,1.9-6.21,2.81s-3.56.2-5.91.18-4,1-6.08.64-1-1.8-3-1.9-3.33,1.31-3.31.11-3.31.11-5.2.14.25-3.23-1.7-3.69-4.8,2.84-5.42,3.13C106.86,50.72,112.07,52.51,119.48,52.59Z"/><path class="cls-18" d="M115.41,50.15a2.66,2.66,0,0,1-.78,1.85c-.64.42-.55-.09-.35-.37a3.76,3.76,0,0,0,.72-1.27C115.2,49.71,115.41,49.79,115.41,50.15Z"/><path class="cls-18" d="M118,49.26a4.6,4.6,0,0,1-1.68,2.86c-1.17.64-.93-.15-.54-.58a6.67,6.67,0,0,0,1.48-2C117.69,48.58,118,48.71,118,49.26Z"/><path class="cls-18" d="M119.49,50.7a1.92,1.92,0,0,1-.84,1.12c-.48.13-.33-.22-.15-.36a2.38,2.38,0,0,0,.69-.72C119.44,50.33,119.55,50.44,119.49,50.7Z"/><path class="cls-18" d="M118.73,50.09a2.87,2.87,0,0,1-1.17,1.68c-.72.29-.53-.19-.27-.43a4,4,0,0,0,1-1.13C118.61,49.62,118.8,49.73,118.73,50.09Z"/><path class="cls-47" d="M44.82,41.19s-16.39-2.36-39.9,4.34c0,0,26.53-5.71,39.76-2.4C44.68,43.13,44.13,41.73,44.82,41.19Z"/><path class="cls-48" d="M45.85,44.51S14.2,47.67,8,46.33l-2.68.55S19.52,50.67,45.85,46Z"/><path class="cls-49" d="M43,50.21s-22.9,3.3-33.44-1.37l-2.79-.51S15.6,56,42.86,51.54Z"/><path class="cls-50" d="M8.48,51.39s3.19,8.45,29.93,5l.27-1.42S19.63,58.21,8.48,51.39Z"/><path class="cls-51" d="M40.75,21S19.66,21,9.32,30.52c0,0,10.34-7,29.78-7.45C39.1,23.07,43.23,22.66,40.75,21Z"/><path class="cls-51" d="M36.32,38.74S21,37.12,12.76,42.91c0,0,8-4.07,22.21-2.86C35,40.05,38,40.08,36.32,38.74Z"/><path class="cls-51" d="M33.52,59s-15.38,1.28-23.41-4c0,0,7.9,3.71,22.09,2.78C32.2,57.83,35.24,57.83,33.52,59Z"/><path class="cls-51" d="M63.88,26.3c.07,1.24,12.89,1,12.89,1S63.82,25.06,63.88,26.3Z"/><path class="cls-51" d="M60.16,35.81c.07,1.24,12.89,1,12.89,1S60.1,34.58,60.16,35.81Z"/><path class="cls-51" d="M60.16,43.26c.07,1.24,12.89,1,12.89,1S60.1,42,60.16,43.26Z"/><path class="cls-51" d="M62.13,54.59c.26.78,11.29-2.56,11.29-2.56S61.87,53.8,62.13,54.59Z"/></g></g></svg>