<svg xmlns="http://www.w3.org/2000/svg" viewBox="0 0 288.89 115.79"><defs><style>.cls-1{fill:#797879;}.cls-2{fill:#d2d7de;}.cls-3{fill:#f2aa7a;}</style></defs><g id="Layer_19" data-name="Layer 19"><path class="cls-1" d="M267.85,115.39H21A20.37,20.37,0,0,1,1.3,90l17.59-69.2A20.37,20.37,0,0,1,38.63,5.46H250.26A20.36,20.36,0,0,1,270,20.81L287.59,90A20.36,20.36,0,0,1,267.85,115.39Z"/><path class="cls-2" d="M267.85,110.33H21A20.37,20.37,0,0,1,1.3,85L18.89,15.74A20.37,20.37,0,0,1,38.63.39H250.26A20.36,20.36,0,0,1,270,15.74L287.59,85A20.36,20.36,0,0,1,267.85,110.33Z"/><path class="cls-1" d="M261.15,70h-9.83a4,4,0,0,1-4-3l-6.89-33.59a3.82,3.82,0,0,1,4-4.39h8.68a4,4,0,0,1,4,2.92l8.05,33.59A3.81,3.81,0,0,1,261.15,70Z"/><path class="cls-3" d="M259.51,70H250.8A3.6,3.6,0,0,1,247.27,67l-6.11-32.57a3.6,3.6,0,0,1,3.54-4.25h7.68A3.59,3.59,0,0,1,255.89,33L263,65.61A3.6,3.6,0,0,1,259.51,70Z"/></g></svg>