<svg id="Layer_1" data-name="Layer 1" xmlns="http://www.w3.org/2000/svg" xmlns:xlink="http://www.w3.org/1999/xlink" width="1920" height="900" viewBox="0 0 1920 900">
  <defs>
    <style>
      .cls-1 {
        fill: #f9a66e;
      }

      .cls-2 {
        fill: #6b3c24;
      }

      .cls-3 {
        fill: #c48156;
      }

      .cls-3, .cls-5 {
        opacity: 0.51;
      }

      .cls-17, .cls-18, .cls-21, .cls-22, .cls-23, .cls-25, .cls-26, .cls-27, .cls-28, .cls-3, .cls-5, .cls-6 {
        isolation: isolate;
      }

      .cls-4 {
        fill: #724436;
      }

      .cls-19, .cls-20, .cls-5 {
        fill: none;
      }

      .cls-5 {
        stroke: #724436;
      }

      .cls-12, .cls-16, .cls-18, .cls-19, .cls-20, .cls-21, .cls-22, .cls-23, .cls-29, .cls-5 {
        stroke-miterlimit: 10;
      }

      .cls-6 {
        opacity: 0.33;
      }

      .cls-7 {
        fill: #b79b79;
      }

      .cls-8 {
        fill: #976740;
      }

      .cls-9 {
        fill: #e0c9ad;
      }

      .cls-10 {
        fill: #c1a380;
      }

      .cls-11 {
        fill: #976643;
      }

      .cls-12 {
        fill: #725b49;
        stroke: #7f4f4b;
      }

      .cls-12, .cls-19 {
        stroke-width: 5px;
      }

      .cls-13 {
        fill: #91725d;
      }

      .cls-14 {
        fill: #c39b93;
      }

      .cls-15 {
        fill: #c39c91;
      }

      .cls-16, .cls-18 {
        stroke: #60301d;
        stroke-width: 4px;
      }

      .cls-16 {
        fill: url(#linear-gradient);
      }

      .cls-17, .cls-27, .cls-28 {
        opacity: 0.55;
      }

      .cls-17 {
        fill: url(#linear-gradient-2);
      }

      .cls-18 {
        fill: #4f3320;
        opacity: 0.43;
      }

      .cls-19 {
        stroke: #eacfa0;
      }

      .cls-20, .cls-21, .cls-22, .cls-23 {
        stroke: #261610;
      }

      .cls-21 {
        fill: #77392b;
      }

      .cls-21, .cls-22, .cls-23 {
        opacity: 0.5;
      }

      .cls-22 {
        fill: #662e25;
      }

      .cls-23 {
        fill: #5b2a22;
      }

      .cls-24 {
        fill: #6d423d;
      }

      .cls-25, .cls-26 {
        opacity: 0.68;
      }

      .cls-25 {
        fill: url(#linear-gradient-3);
      }

      .cls-26 {
        fill: url(#linear-gradient-4);
      }

      .cls-27 {
        fill: url(#linear-gradient-5);
      }

      .cls-28 {
        fill: url(#linear-gradient-6);
      }

      .cls-29 {
        fill: #fff;
        stroke: #00a99d;
        stroke-width: 2px;
      }
    </style>
    <linearGradient id="linear-gradient" x1="357.39" y1="54.67" x2="1541.22" y2="54.67" gradientTransform="matrix(1, 0, 0, -1, 0, 900)" gradientUnits="userSpaceOnUse">
      <stop offset="0" stop-color="#aa6c3d"/>
      <stop offset="0.28" stop-color="#ae6f3e"/>
      <stop offset="0.57" stop-color="#bb7743"/>
      <stop offset="0.77" stop-color="#c87f47"/>
    </linearGradient>
    <linearGradient id="linear-gradient-2" x1="644" y1="191.29" x2="760" y2="191.29" gradientTransform="matrix(1, 0, 0, -1, 0, 900)" gradientUnits="userSpaceOnUse">
      <stop offset="0.03" stop-color="#915824"/>
      <stop offset="0.1" stop-color="#a1662e"/>
      <stop offset="0.2" stop-color="#ac7136"/>
      <stop offset="0.34" stop-color="#b3773b"/>
      <stop offset="0.73" stop-color="#b5793c"/>
    </linearGradient>
    <linearGradient id="linear-gradient-3" x1="438.11" y1="152.45" x2="504.68" y2="152.45" xlink:href="#linear-gradient-2"/>
    <linearGradient id="linear-gradient-4" x1="413.66" y1="152.4" x2="527.93" y2="152.4" xlink:href="#linear-gradient-2"/>
    <linearGradient id="linear-gradient-5" x1="942.36" y1="194.52" x2="1058.3" y2="194.52" xlink:href="#linear-gradient-2"/>
    <linearGradient id="linear-gradient-6" x1="970.87" y1="192.07" x2="1037.76" y2="192.07" xlink:href="#linear-gradient-2"/>
  </defs>
  <g>
    <path class="cls-1" d="M293.23,781.13c39.45-40,102.17-92.69,144.45-133.49,362.68-.63,670.8-3.27,1033.48-3.9l133,141.15Z"/>
    <rect class="cls-2" x="291.96" y="776.64" width="1312.16" height="18.18"/>
    <path class="cls-3" d="M401.1,774.09s322-20.78,491.88-40.6c204.25-23.85,402.46-56.6,579.24-91.64,24,27.07,50,54.79,78,82.83q27.26,27.3,53.94,52Z"/>
    <path class="cls-4" d="M428.52,754.68A25.24,25.24,0,0,1,418,741.23a26.8,26.8,0,0,1-1-4.23l-.28-2.16v-2.18a20.13,20.13,0,0,1,2.23-8.35,28.36,28.36,0,0,1,12.31-11.95c2.62-1.27,5.25-2.47,7.88-3.7s5.3-2.36,8-3.41a267.67,267.67,0,0,1,33-11c11.21-3,22.6-5.32,34.05-7.2s23-3.28,34.53-4.42,23.09-2.25,34.66-3.21c23.12-1.91,46.28-3.43,69.45-4.72,46.34-2.58,92.72-4.27,139.07-6.48,2.9-.12,5.79-.3,8.69-.38l8.7-.25,17.4-.5,34.79-1c23.19-.64,46.38-1.44,69.58-1.87,46.4-1,92.81-1.44,139.21-2q34.8-.44,69.6-1l34.8-.69c11.59-.26,23.2-.3,34.8-.4,46.41-.25,92.84.36,139.2,2.7q34.77,1.75,69.45,4.85c11.64.8,23,4.17,33.74,8.44a11.88,11.88,0,0,1,8.23,14.06,21.28,21.28,0,0,1-3.37,8.12,23.08,23.08,0,0,1-6.17,6.25h0a13.51,13.51,0,0,0-3.91,2.13,33.69,33.69,0,0,0-3.36,3.07h0A170.11,170.11,0,0,1,1421,721.47l-11.4,5.11a25,25,0,0,1-5.94,2.1c-2,.45-4.11.74-6.11,1.25h.06a303.66,303.66,0,0,1-39.61,14.8c-13.52,4.07-27.25,7.37-41,10.32l-5.18,1.09c-1.72.36-3.42.82-5.16,1.16-3.45.74-6.94,1.32-10.43,1.84-7,1-14,1.8-21,2.6-14,1.6-28,3.17-42.07,4.56q-10.52,1.05-21.06,1.94c-7,.53-14.06,1.34-21.13,1.18s-14.11-.57-21.15-.46-14.1.23-21.15.18a610,610,0,0,1-84.3-6.69h0c-5.32,0-10.56-1.07-15.87-1.08h0a205.18,205.18,0,0,1-20.57-4,208.8,208.8,0,0,0,20.58,4h0c5.32,0,10.56,1,15.87,1h0a609.62,609.62,0,0,0,84.28,6.47c7,0,14.1,0,21.15-.23s14.11.37,21.15.4,14-.68,21.09-1.23,14-1.27,21-2c14-1.41,28-3,42.06-4.61,7-.8,14-1.58,21-2.61,3.48-.51,7-1.1,10.39-1.84,1.73-.34,3.43-.8,5.16-1.16l5.17-1.1c13.79-3,27.5-6.27,41-10.34a304.26,304.26,0,0,0,39.54-14.82h.06c2-.52,4.11-.82,6.13-1.26a24.45,24.45,0,0,0,5.8-2.06l11.4-5.12a172.41,172.41,0,0,0,22-11.63h-.06a35,35,0,0,1,3.42-3.13,13.53,13.53,0,0,1,4.12-2.24h-.08a22.18,22.18,0,0,0,6-6.06,20.74,20.74,0,0,0,3.25-7.84,11.18,11.18,0,0,0-7.8-13.26c-10.75-4.24-22-7.57-33.53-8.36q-34.65-3.11-69.42-4.79c-46.34-2.29-92.75-2.86-139.15-2.57-11.6.11-23.2.16-34.8.43l-34.79.7q-34.8.58-69.61,1c-46.4.54-92.8,1-139.2,1.9-23.2.41-46.39,1.19-69.58,1.81l-34.79,1-17.39.49-8.7.25c-2.9.07-5.79.25-8.69.37-46.36,2.16-92.74,3.82-139.07,6.36-23.17,1.27-46.32,2.77-69.44,4.66-11.56,1-23.12,2-34.66,3.13s-23.07,2.44-34.51,4.34-22.83,4.14-34,7.1a269.91,269.91,0,0,0-33,10.88c-2.7,1-5.33,2.26-8,3.38s-5.27,2.43-7.88,3.69A28.3,28.3,0,0,0,419,724.35a20.27,20.27,0,0,0-2.24,8.31v2.17L417,737a28,28,0,0,0,1,4.23A25.16,25.16,0,0,0,428.52,754.68Z"/>
    <path class="cls-5" d="M842.57,683.25a1601.88,1601.88,0,0,1,198-11.54c51.73.2,100.13,2.9,144.75,7.12"/>
    <path class="cls-4" d="M1465.14,662c6,3.59,11.87,7.51,17.53,11.66A185.32,185.32,0,0,1,1499,687.05a100,100,0,0,1,14,15.78,51.51,51.51,0,0,1,5.16,9.23,31,31,0,0,1,2.48,10.29,22.54,22.54,0,0,1-2,10.39,27.72,27.72,0,0,1-6.32,8.51,46,46,0,0,1-8.54,6.26c-1.51.93-3.1,1.7-4.66,2.52a49.61,49.61,0,0,1-4.82,2.17,142.87,142.87,0,0,1-20.07,6.52c-6.82,1.72-13.72,3.09-20.65,4.27h-.07l-89.28,2.79-44.64,1.38-44.65,1.22,44.63-1.72,44.64-1.56,89.27-3.08h-.06c6.91-1.14,13.8-2.48,20.59-4.17a142.77,142.77,0,0,0,20-6.4c1.62-.64,3.19-1.41,4.78-2.14a43.33,43.33,0,0,0,4.61-2.47,45.83,45.83,0,0,0,8.44-6.13,27,27,0,0,0,6.2-8.26,22,22,0,0,0,2-10.07,30.52,30.52,0,0,0-2.4-10.08,49.68,49.68,0,0,0-5.06-9.14,101.17,101.17,0,0,0-13.83-15.76,182.34,182.34,0,0,0-16.1-13.53C1476.92,669.66,1471.13,665.67,1465.14,662Z"/>
    <path class="cls-5" d="M640.21,734s52.67,56.7,212.62,28.84"/>
    <path class="cls-6" d="M1509.31,762.49l-452.74,2.1a10.28,10.28,0,0,1-10-8l-20.76-89.54a7.9,7.9,0,0,1,5.89-9.49,8.27,8.27,0,0,1,1.85-.21l460.7,2.17a7.9,7.9,0,0,1,7.75,6.55l15.12,87.11a7.92,7.92,0,0,1-6.41,9.19A8.18,8.18,0,0,1,1509.31,762.49Z"/>
    <path class="cls-7" d="M1112.48,251.16q5.4,254.7,10.81,509.41l404.89,1.14-39.57-510.55Z"/>
    <path class="cls-8" d="M1095,652.53q9.46-195.06,19-390.12v1.07c-.3,13.15,2.32,156.51,9.48,501.15"/>
    <path class="cls-9" d="M1129.87,272.5q4.94,217.54,9.86,435.1l369.06,1-36.06-436.1Z"/>
    <polygon class="cls-10" points="1122.59 722.28 1525.75 722.03 1528.93 762.45 1122.59 764.63 1122.59 722.28"/>
    <path class="cls-11" d="M1122.59,722.28v42.83s-20.33-72.68-28.34-108.61l1.19-13C1103.16,669.53,1122.59,722.28,1122.59,722.28Z"/>
    <path class="cls-12" d="M1158.5,298.74l133.57-1,2.4,102.4-136,1Z"/>
    <polygon class="cls-12" points="1314.93 297.95 1318.65 401.14 1459.99 401.14 1452.3 297.74 1314.93 297.95"/>
    <polygon class="cls-12" points="1320.33 438.44 1325.22 542.69 1472.03 542.69 1462.9 437.7 1320.33 438.44"/>
    <polygon class="cls-12" points="1164.34 439.69 1164.82 512.27 1165.02 544.08 1298.96 542.74 1294.97 438.87 1164.34 439.69"/>
    <polygon class="cls-12" points="1165.78 576.63 1300.44 576.63 1304.74 684.69 1165.78 686.16 1165.78 576.63"/>
    <polygon class="cls-12" points="1327.6 576.63 1331.37 684.39 1482.69 682.81 1473.95 576.63 1327.6 576.63"/>
    <path class="cls-13" d="M1261.3,300.9l.16,82.5,29.81,13.85-1.2-96.35Z"/>
    <path class="cls-13" d="M1408.43,300.9s3.19,57.51,4.19,85.7q10.25,2.08,21,4.65,11.6,2.76,22.44,5.77c-.15-2.55-3.35-54.91-3.51-57.47-.07-1.16-2.29-37.49-2.36-38.65Z"/>
    <path class="cls-13" d="M1260,441.68l1.29,75.61,33.19,19.28-3.1-93.91Z"/>
    <path class="cls-14" d="M1167.42,657.35h92.48l42.32,23.59-134.8,1.28h0Z"/>
    <path class="cls-14" d="M1327.2,518.46l91.41-1,48.67,22.12-138.55-.07Z"/>
    <polygon class="cls-14" points="1167.42 518.97 1261.3 517.83 1297.73 538.41 1167.42 539.56 1167.42 518.97"/>
    <path class="cls-14" d="M1161.09,383.27l97.84-.83,32.34,14.81H1161.09Z"/>
    <path class="cls-13" d="M1417.74,441.68h42.07q4.59,48.9,9.2,97.81l-51.27-22.31Z"/>
    <path class="cls-13" d="M1412.64,579.24l57.54.8q4.62,50.4,9.23,100.8L1413,658.13Z"/>
    <path class="cls-13" d="M1258.5,578.92h38.89l4.83,102-42.48-21.61Z"/>
    <path class="cls-14" d="M1412.51,657.35l-79.75,1.39,1.71,23.47,144.94-1.37Z"/>
    <path class="cls-15" d="M1413.5,382.36l-92.68-1.6q.32,7.69.65,15.39l134.16,2.11Z"/>
    <rect class="cls-16" x="357.39" y="790.65" width="1183.83" height="109.35"/>
    <path class="cls-17" d="M702,696.18c-32,0-58,5.61-58,12.52s26,12.53,58,12.53,58-5.61,58-12.53S734.07,696.18,702,696.18Zm-2.3,22.62c-25.86,0-46.82-4.52-46.82-10.1s21-10.11,46.82-10.11,46.82,4.53,46.82,10.11S725.56,718.8,699.7,718.8Z"/>
    <rect class="cls-18" x="357.58" y="790.65" width="1183.83" height="27.02"/>
    <polyline class="cls-19" points="1112.47 251.16 1487.93 251.16 1528.18 758.08"/>
    <path class="cls-20" d="M358.62,808.61s713.64.23,799.77,3.36,381.22-5.54,381.22-5.54"/>
    <path class="cls-20" d="M358.62,817s450.37-6.22,578.67,2.34C1079,818.6,1455.34,817,1455.34,817l82.43-4.33"/>
    <path class="cls-20" d="M358.62,831.33s307.63-11.68,406.64,0,474.67-1.43,516.48-3.59,257.87-9.06,257.87-5.62"/>
    <path class="cls-20" d="M358.62,890.68S575.33,840.58,904,872.87c334.6,22.47,633.81-6.34,633.81-6.34"/>
    <path class="cls-20" d="M357.39,900.59s178.85-59.91,650-9.91c310.16,14.48,527.91-17.81,527.91-17.81"/>
    <path class="cls-20" d="M410.4,899.6s330.12-33,555.28,0c223.67,19,575.54-13.92,575.54-13.92"/>
    <path class="cls-21" d="M358.62,836.7s144.65-7.62,192.88-4.3C605.22,852.24,481,863,362.32,877c0,0,187.16-13.49,202.8-22.71s72.52-26.71-93.07-26.28C367.41,836.25,358.62,836.7,358.62,836.7Z"/>
    <path class="cls-21" d="M410.4,841.62s81.36-6.68,47.06,5S353.92,861.89,358.62,862s111.14-2.23,119.76-11.16S474.45,828.86,410.4,841.62Z"/>
    <path class="cls-22" d="M1228.66,851.61c-107.11-.18-107.11,9.73,0,9.55C1335.77,861.34,1335.77,851.43,1228.66,851.61Zm0,7.45c-93.55.1-93.55-5.45,0-5.34C1322.21,853.61,1322.21,859.16,1228.66,859.06Z"/>
    <path class="cls-23" d="M1229.05,840.85c-196.37-.55-196.37,30,0,29.4C1425.43,870.8,1425.43,840.3,1229.05,840.85Zm0,22.91c-171.5.34-171.5-16.76,0-16.42,171.51-.34,171.51,16.76,0,16.42Z"/>
    <path class="cls-24" d="M1537.77,846.36c-49-1.83-98.06-3.43-147.1-4.54s-98.08-2.08-147.13-2.35q-36.78-.15-73.56.06c-24.52.2-49,.58-73.53,1.3s-49,1.84-73.41,3.62c-6.11.46-12.22.88-18.3,1.5l-9.14.86c-3.05.28-6.07.7-9.11,1l-9.1,1.09-9.06,1.36-4.52.68c-1.51.23-3,.56-4.49.84l-9,1.73.81-.39c-.14.13-.28.27-.25.26a.45.45,0,0,0,0-.28,3.42,3.42,0,0,0,.69.68,17.54,17.54,0,0,0,3.66,1.93,70.52,70.52,0,0,0,8.63,2.78c5.94,1.55,12,2.74,18.11,3.8,12.22,2.1,24.55,3.65,36.91,5,24.72,2.6,49.56,4.24,74.42,5.43,49.72,2.36,99.54,2.65,149.33,2.23s99.6-2.14,149.35-4.57q37.32-1.74,74.62-4.09,18.64-1.15,37.28-2.47l37.28-2.66q-18.62,1.7-37.23,3.27t-37.26,2.93q-37.26,2.79-74.58,5c-49.76,2.82-99.57,4.81-149.41,5.69q-18.69.33-37.39.44t-37.39-.13c-24.93-.26-49.86-.87-74.77-2s-49.81-2.71-74.65-5.26c-12.42-1.3-24.82-2.82-37.17-4.91-6.17-1.06-12.33-2.25-18.46-3.83a77.09,77.09,0,0,1-9.14-2.92A20.49,20.49,0,0,1,949.2,857l-.58-.48a8.21,8.21,0,0,1-.58-.6,4.66,4.66,0,0,1-1-1.84,3.62,3.62,0,0,1,.35-2.54,5.31,5.31,0,0,1,1.27-1.48l.34-.3.48-.09,9.1-1.74c1.52-.28,3-.61,4.56-.84l4.57-.67,9.14-1.36L986,844c3-.33,6.11-.75,9.17-1l9.18-.84c6.12-.61,12.25-1,18.37-1.47,24.51-1.72,49-2.73,73.58-3.44,49.08-1.29,98.16-1.44,147.23-.79s98.12,1.83,147.16,3.47q36.76,1.29,73.53,2.88T1537.77,846.36Z"/>
    <path class="cls-21" d="M912.6,847.33s-163.42-4.14-38.22,16.44L910.16,866h0s-86.14-11.74-61-13.48S912.6,847.33,912.6,847.33Z"/>
    <path class="cls-21" d="M647.13,838.35s134.49,1,67.76,8.64-84,3.35-75.37,5.49,53.78-9.3,61.59-7.06S647.13,838.35,647.13,838.35Z"/>
    <path class="cls-25" d="M471.39,741.37c-18.38,0-33.28,2.77-33.28,6.19s14.9,6.18,33.28,6.18,33.29-2.77,33.29-6.18S489.78,741.37,471.39,741.37Zm-1.33,11.17c-14.83,0-26.86-2.23-26.86-5s12-5,26.86-5,26.86,2.23,26.86,5-12,5-26.86,5Z"/>
    <path class="cls-26" d="M470.79,739c-31.55,0-57.13,3.85-57.13,8.6s25.58,8.61,57.13,8.61,57.14-3.85,57.14-8.61S502.35,739,470.79,739Zm-2.28,15.55c-25.47,0-46.11-3.11-46.11-7s20.64-6.95,46.11-6.95,46.1,3.11,46.1,6.95-20.61,7-46.1,7Z"/>
    <path class="cls-27" d="M1000.3,693.42c-32,0-57.94,5.4-57.94,12.06s25.94,12.07,57.94,12.07,58-5.4,58-12.07S1032.31,693.42,1000.3,693.42ZM998,715.21c-25.82,0-46.75-4.35-46.75-9.73s20.93-9.74,46.75-9.74,46.76,4.36,46.76,9.74S1023.81,715.21,998,715.21Z"/>
    <path class="cls-28" d="M1004.31,700.93c-18.47,0-33.44,3.12-33.44,7s15,7,33.44,7,33.45-3.12,33.45-7S1022.79,700.93,1004.31,700.93ZM1003,713.51c-14.91,0-27-2.51-27-5.62s12.08-5.62,27-5.62,27,2.52,27,5.62S1017.88,713.51,1003,713.51Z"/>
    <rect class="cls-29" x="1173.59" y="542.44" width="120" height="30" rx="4.1"/>
    <rect class="cls-29" x="1342.09" y="542.44" width="120" height="30" rx="4.1"/>
    <rect class="cls-29" x="1174.09" y="684.94" width="120" height="30" rx="4.1"/>
    <rect class="cls-29" x="1354.09" y="684.94" width="120" height="30" rx="4.1"/>
    <rect class="cls-29" x="1330.09" y="403.94" width="120" height="30" rx="4.1"/>
    <rect class="cls-29" x="1165.59" y="403.94" width="120" height="30" rx="4.1"/>
  </g>
</svg>
