<?xml version="1.0" encoding="utf-8"?>
<!-- Generator: Adobe Illustrator 25.2.3, SVG Export Plug-In . SVG Version: 6.00 Build 0)  -->
<svg version="1.1" id="Layer_1" xmlns="http://www.w3.org/2000/svg" xmlns:xlink="http://www.w3.org/1999/xlink" x="0px" y="0px"
	 viewBox="0 0 256 256" style="enable-background:new 0 0 256 256;" xml:space="preserve">
<style type="text/css">
	.st0{fill:#FCF7DA;stroke:#564500;stroke-width:2;stroke-miterlimit:10;}
	.st1{fill:url(#SVGID_1_);stroke:url(#SVGID_2_);stroke-width:6.000000e-02;stroke-miterlimit:10;}
	.st2{fill:url(#SVGID_3_);stroke:#CB9E2E;stroke-width:6.000000e-02;stroke-miterlimit:10;}
</style>
<path class="st0" d="M44.7,36.5h161l34.4,15.1v171.3c0,5.8-6.5,10.6-14.4,10.6H30.3c-8,0-14.4-4.7-14.4-10.6V49.3L44.7,36.5z"/>
<linearGradient id="SVGID_1_" gradientUnits="userSpaceOnUse" x1="115.9627" y1="335.8216" x2="112.9127" y2="283.1316" gradientTransform="matrix(1 2.000000e-02 2.000000e-02 -1 3.49 334.46)">
	<stop  offset="2.000000e-02" style="stop-color:#F4EA32"/>
	<stop  offset="0.46" style="stop-color:#E8C52A"/>
	<stop  offset="0.84" style="stop-color:#C3972D"/>
</linearGradient>
<linearGradient id="SVGID_2_" gradientUnits="userSpaceOnUse" x1="114.2541" y1="314.3133" x2="114.3741" y2="307.9633" gradientTransform="matrix(1 2.000000e-02 2.000000e-02 -1 3.49 334.46)">
	<stop  offset="2.000000e-02" style="stop-color:#F4EA32"/>
	<stop  offset="0.46" style="stop-color:#E8C52A"/>
	<stop  offset="0.84" style="stop-color:#C3972D"/>
</linearGradient>
<path class="st1" d="M97.6,28.8c0,0,4.1-0.6,4.8-1.2s19.3-10.5,41.9-0.8c3.5,1.2,2.5,1,2.5,1l3.6,0.2L97.6,28.8z"/>
<linearGradient id="SVGID_3_" gradientUnits="userSpaceOnUse" x1="114.4777" y1="314.7834" x2="115.0477" y2="285.2333" gradientTransform="matrix(1 2.000000e-02 2.000000e-02 -1 2.28 334.38)">
	<stop  offset="2.000000e-02" style="stop-color:#F4EA32"/>
	<stop  offset="0.46" style="stop-color:#E8C52A"/>
	<stop  offset="0.84" style="stop-color:#C3972D"/>
</linearGradient>
<path class="st2" d="M96.1,28.8l53.7-0.8c0,0,2.4,0.1-0.1,7.1l-1.8,7c0,0-1.4,2.9-4.2,3.1s-40.6,0.7-40.6,0.7
	c-2.2,0.3-4.2-1.1-4.8-3.2c-1-4.5-2.3-9.5-2.3-9.5S94.2,28.8,96.1,28.8z"/>
</svg>
