<svg xmlns="http://www.w3.org/2000/svg" xmlns:xlink="http://www.w3.org/1999/xlink" viewBox="0 0 1253.87 561.57"><defs><style>.cls-1{isolation:isolate;}.cls-2{fill:url(#linear-gradient);}.cls-27,.cls-28,.cls-3,.cls-30,.cls-31,.cls-33,.cls-34{stroke-miterlimit:10;}.cls-3{stroke-width:0.21px;fill:url(#linear-gradient-2);stroke:url(#Fading_Sky_2);}.cls-13,.cls-4{fill:#141616;}.cls-4{opacity:0.3;}.cls-5{fill:#5d2c0f;}.cls-38,.cls-6{fill:#fdb736;}.cls-7{fill:#ffb041;}.cls-8{fill:#514a4b;}.cls-9{fill:#262122;}.cls-10{fill:#df434b;}.cls-11{fill:#fff;}.cls-12,.cls-36{fill:#363838;}.cls-14{fill:#626364;}.cls-14,.cls-25,.cls-35,.cls-36,.cls-38{mix-blend-mode:screen;}.cls-15{fill:#696a6a;}.cls-16{fill:#a3a5a8;}.cls-17{fill:#545759;}.cls-18{fill:#231f20;}.cls-19{fill:#f89934;}.cls-20,.cls-22{fill:#d1722b;}.cls-20,.cls-21{mix-blend-mode:multiply;opacity:0.6;}.cls-23{fill:#1b1617;}.cls-24{fill:#7ab9d1;}.cls-26,.cls-35{fill:#71cdde;}.cls-27{fill:#d97144;stroke:#99492c;}.cls-27,.cls-28,.cls-30,.cls-31,.cls-33,.cls-34{stroke-width:0.25px;}.cls-28{fill:#ffb327;}.cls-28,.cls-30,.cls-31,.cls-33,.cls-34{stroke:#515151;}.cls-29{fill:#1d1d1b;}.cls-30{fill:#ffc04d;}.cls-31,.cls-32{fill:#333;}.cls-33{fill:#ba080f;}.cls-34{fill:#2b2b28;}.cls-37{fill:#f9a134;}.cls-38{opacity:0.5;}</style><linearGradient id="linear-gradient" x1="1026.9" y1="398.37" x2="1035.7" y2="398.37" gradientUnits="userSpaceOnUse"><stop offset="0" stop-color="#a5573f"/><stop offset="0.07" stop-color="#a1715b"/><stop offset="0.13" stop-color="#9e8672"/><stop offset="0.63" stop-color="#918d7a"/><stop offset="0.98" stop-color="#777c65"/></linearGradient><linearGradient id="linear-gradient-2" x1="913.15" y1="399.83" x2="1254.68" y2="90.68" gradientUnits="userSpaceOnUse"><stop offset="0.02" stop-color="#0e9932"/><stop offset="0.08" stop-color="#189b39"/><stop offset="0.35" stop-color="#3da255"/><stop offset="0.49" stop-color="#4ba55f"/><stop offset="0.56" stop-color="#49a364"/><stop offset="0.64" stop-color="#419b71"/><stop offset="0.73" stop-color="#358f88"/><stop offset="0.82" stop-color="#257fa8"/><stop offset="0.86" stop-color="#1b75ba"/></linearGradient><linearGradient id="Fading_Sky_2" x1="976.55" y1="329.39" x2="1082.39" y2="256.9" gradientUnits="userSpaceOnUse"><stop offset="0" stop-color="#2483c5"/><stop offset="1" stop-color="#2483c5" stop-opacity="0"/></linearGradient></defs><g class="cls-1"><g id="Layer_9" data-name="Layer 9"><rect class="cls-2" x="1026.9" y="377.46" width="8.8" height="41.81"/><path class="cls-3" d="M1002.5,318.25s-3.7-9.08,8.32-83.11,41.63-39.86,46.25,9.52,4.63,99.7,4.63,99.7c-6.48,66.47-60.28,47-59.74,10.44Z"/><ellipse class="cls-4" cx="626.94" cy="525.21" rx="620.9" ry="21.92"/><path class="cls-5" d="M859.23,441.83H1103.3V345.49a493.29,493.29,0,0,0-244.07,0Z"/><path class="cls-6" d="M110.22,441.56V103.61c0-87.73,40.53-89.17,40.53-89.17h851.69c28,0,29.2,29.19,29.2,29.19V70.74l-15.05.6,30.1,178.22,126,21.27s22.61,4.62,22.61,38.64v62.25c-31.1,28.7-57.23,35.15-74.89,36-49.2,2.33-72.76-37-133.48-45.09-33.6-4.5-62.31,2.74-80.57,9.1q-17.76,34.92-35.53,69.84Z"/><path class="cls-6" d="M150.75,14.44h851.69c28,0,29.2,29.19,29.2,29.19V70.74l-15.05.6,30.1,178.22,126,21.27s22.61,4.62,22.61,38.64v62.25a1084.6,1084.6,0,0,0-200.62-8.24c-31.13,1.62-60.61,4.5-88.32,8.24q-17.76,34.92-35.53,69.84H456.8a129.58,129.58,0,0,0-5.56-16.16c-5.41-13.29-11.67-26.42-19.75-38.32-19.62-29-50-50.16-86.06-49.89-36.34.29-72.89,9-93.46,41.44-12.33,19.47-20,40.88-25.76,62.93h-116V103.61C110.22,15.88,150.75,14.44,150.75,14.44Z"/><path class="cls-7" d="M150.75,14.44h851.69c28,0,29.2,29.19,29.2,29.19V70.74l-15.05.6,30.1,178.22,126,21.27s22.61,4.62,22.61,38.64v92.62l-78,1.61-.8-32a657.3,657.3,0,0,0-210.16,0q-17.76,34.92-35.53,69.84H456.8a129.58,129.58,0,0,0-5.56-16.16c-5.41-13.29-11.67-26.42-19.75-38.32-19.62-29-50-50.16-86.06-49.89-36.34.29-72.89,9-93.46,41.44-12.33,19.47-20,40.88-25.76,62.93h-116V103.61C110.22,15.88,150.75,14.44,150.75,14.44Z"/><path class="cls-8" d="M134.8,350.56c0,15.06-4.88,27.25-10.89,27.25S113,365.62,113,350.56s4.87-27.24,10.88-27.24S134.8,335.52,134.8,350.56Z"/><path class="cls-9" d="M130.78,351.42c0,12.75-4,23.08-8.88,23.08S113,364.17,113,351.42s4-23.08,8.87-23.08S130.78,338.67,130.78,351.42Z"/><path class="cls-10" d="M129.38,351.21c0,12.14-3.52,22-7.88,22s-7.88-9.84-7.88-22,3.53-22,7.88-22S129.38,339.07,129.38,351.21Z"/><path class="cls-10" d="M129.38,351.21c0,12.14-3.52,22-7.88,22s-7.88-9.84-7.88-22,3.53-22,7.88-22S129.38,339.07,129.38,351.21Z"/><path class="cls-11" d="M127.13,344c0,4.51-1.32,8.18-2.94,8.18s-2.94-3.67-2.94-8.18,1.32-8.2,2.94-8.2S127.13,339.46,127.13,344Z"/><rect class="cls-12" x="1095.26" y="397.68" width="115.38" height="52.08"/><rect class="cls-13" x="1095.26" y="407.71" width="115.38" height="42.05"/><rect class="cls-14" x="1095.26" y="407.71" width="115.38" height="1.91"/><path d="M911.16,459.07a79.18,79.18,0,1,0,79.17-79.17A79.16,79.16,0,0,0,911.16,459.07Z"/><path class="cls-12" d="M915.56,459.07a74.78,74.78,0,1,0,74.77-74.77A74.78,74.78,0,0,0,915.56,459.07Z"/><path class="cls-15" d="M915.56,459.07a74.78,74.78,0,1,0,74.77-74.77A74.78,74.78,0,0,0,915.56,459.07Z"/><path class="cls-12" d="M916.68,460.2a73.66,73.66,0,1,0,73.65-73.67A73.65,73.65,0,0,0,916.68,460.2Z"/><path d="M938.18,459.09a52.16,52.16,0,1,0,52.15-52.16A52.15,52.15,0,0,0,938.18,459.09Z"/><path class="cls-11" d="M941.1,459.09a49.24,49.24,0,1,0,49.23-49.25A49.23,49.23,0,0,0,941.1,459.09Z"/><path class="cls-16" d="M946.13,459.09a44.21,44.21,0,1,0,44.2-44.22A44.21,44.21,0,0,0,946.13,459.09Z"/><path class="cls-17" d="M985.85,423.07a4.49,4.49,0,1,0,4.48-4.5A4.48,4.48,0,0,0,985.85,423.07Z"/><path class="cls-18" d="M984.81,423.07a5.53,5.53,0,1,1,5.52,5.52A5.53,5.53,0,0,1,984.81,423.07Zm2.08,0a3.45,3.45,0,1,0,3.44-3.46A3.45,3.45,0,0,0,986.89,423.07Z"/><path class="cls-17" d="M985.85,495.08a4.49,4.49,0,1,0,4.48-4.49A4.47,4.47,0,0,0,985.85,495.08Z"/><path class="cls-18" d="M984.81,495.08a5.53,5.53,0,1,1,5.52,5.52A5.52,5.52,0,0,1,984.81,495.08Zm2.08,0a3.45,3.45,0,1,0,3.44-3.46A3.45,3.45,0,0,0,986.89,495.08Z"/><path class="cls-17" d="M954.33,463.56a4.49,4.49,0,1,0-4.49-4.49A4.48,4.48,0,0,0,954.33,463.56Z"/><path class="cls-18" d="M948.8,459.07a5.53,5.53,0,1,1,5.53,5.53A5.53,5.53,0,0,1,948.8,459.07Zm2.08,0a3.45,3.45,0,1,0,3.45-3.45A3.45,3.45,0,0,0,950.88,459.07Z"/><path class="cls-17" d="M1026.34,463.56a4.49,4.49,0,1,0-4.49-4.49A4.49,4.49,0,0,0,1026.34,463.56Z"/><path class="cls-18" d="M1020.81,459.07a5.53,5.53,0,1,1,5.53,5.53A5.53,5.53,0,0,1,1020.81,459.07Zm2.08,0a3.45,3.45,0,1,0,3.45-3.45A3.46,3.46,0,0,0,1022.89,459.07Z"/><path class="cls-17" d="M961.7,436.77a4.5,4.5,0,1,0,0-6.36A4.53,4.53,0,0,0,961.7,436.77Z"/><path class="cls-18" d="M961,437.49a5.52,5.52,0,0,1,0-7.81,5.65,5.65,0,0,1,7.81,0,5.52,5.52,0,1,1-7.81,7.81Zm1.47-6.34a3.43,3.43,0,0,0,0,4.88,3.54,3.54,0,0,0,4.88,0,3.46,3.46,0,0,0-2.44-5.9A3.39,3.39,0,0,0,962.44,431.15Z"/><circle class="cls-17" cx="1015.8" cy="484.51" r="4.49"/><path class="cls-18" d="M1011.89,488.41a5.52,5.52,0,0,1,0-7.81,5.65,5.65,0,0,1,7.81,0,5.52,5.52,0,1,1-7.81,7.81Zm1.47-6.35a3.46,3.46,0,0,0,0,4.89,3.54,3.54,0,0,0,4.88,0,3.45,3.45,0,0,0-4.88-4.89Z"/><path class="cls-17" d="M968.06,487.69a4.49,4.49,0,1,0-6.36,0A4.51,4.51,0,0,0,968.06,487.69Z"/><path class="cls-18" d="M961,488.41a5.5,5.5,0,0,1,0-7.8,5.64,5.64,0,0,1,7.81,0,5.52,5.52,0,1,1-7.81,7.81Zm1.47-6.35a3.46,3.46,0,0,0,0,4.89,3.54,3.54,0,0,0,4.88,0,3.45,3.45,0,0,0-2.44-5.89A3.41,3.41,0,0,0,962.44,482.06Z"/><path class="cls-17" d="M1019,436.77a4.49,4.49,0,1,0-6.35,0A4.49,4.49,0,0,0,1019,436.77Z"/><path class="cls-18" d="M1011.89,437.49a5.53,5.53,0,0,1,0-7.81,5.65,5.65,0,0,1,7.81,0,5.52,5.52,0,1,1-7.81,7.81Zm1.47-6.34a3.45,3.45,0,0,0,0,4.88,3.54,3.54,0,0,0,4.88,0,3.45,3.45,0,1,0-4.88-4.88Z"/><path d="M973.75,459.09a16.58,16.58,0,1,0,16.58-16.59A16.59,16.59,0,0,0,973.75,459.09Z"/><path class="cls-12" d="M978.27,459.09A12.06,12.06,0,1,0,990.33,447,12.06,12.06,0,0,0,978.27,459.09Z"/><path class="cls-19" d="M1083,449.58c-7.65-47.25-46.19-83.2-92.63-83.2s-85,35.95-92.63,83.2H878.9c0-.12,0-.25,0-.37,0-65.7,49.9-119,111.45-119s111.43,53.27,111.43,119v.37Z"/><path class="cls-20" d="M878.89,449.21c0,.12,0,.25,0,.37h18.81c7.64-47.25,46.17-83.2,92.63-83.2s85,35.95,92.63,83.2h18.8v-.37c0-65.7-49.88-119-111.43-119S878.89,383.51,878.89,449.21Zm15.81-55.94c47.76-75.87,114-57.4,114-57.4,86.91,21.47,88.71,104,88.71,104l-10.44-.4c-12.84-80.89-75.06-101.56-120.42-94.34S894.7,393.27,894.7,393.27Z"/><rect class="cls-12" x="104.99" y="385.63" width="139.94" height="57.91"/><rect class="cls-13" x="104.99" y="396.79" width="139.94" height="46.75"/><rect class="cls-14" x="104.99" y="396.79" width="139.94" height="2.12"/><g class="cls-21"><path class="cls-22" d="M1195.34,309.47v5.12H110.22V288.7H1191.64C1193.85,294,1195.34,300.75,1195.34,309.47Z"/><path class="cls-20" d="M150.75,14.44h851.69c28,0,29.2,28.39,29.2,28.39V69.2l-15.05.58,2.23,12.89H111C116.36,15.68,150.75,14.44,150.75,14.44Z"/><polygon class="cls-22" points="1040.79 214.64 1046.59 248.96 110.22 248.96 110.22 214.64 1040.79 214.64"/></g><path class="cls-5" d="M291.75,360.25c14.75-6.51,31.06-9.18,47.1-9.56,34.69-.84,63.45,15.62,82.16,44.75A189.36,189.36,0,0,1,438.33,429c1.49,3.84,3.24,8.14,4.63,12.59H239.73c4.31-16.18,9.85-31.94,18-46.44C266,380.34,275.79,367.27,291.75,360.25Z"/><path class="cls-19" d="M430.15,449.58c-7.65-47.25-46.2-83.2-92.63-83.2s-85,35.95-92.63,83.2H226.07v-.37c0-65.7,49.89-119,111.45-119S449,383.51,449,449.21v.37Z"/><path class="cls-20" d="M226.07,449.21v.37h18.82c7.64-47.25,46.17-83.2,92.63-83.2s85,35.95,92.63,83.2H449v-.37c0-65.7-49.88-119-111.43-119S226.07,383.51,226.07,449.21Zm15.8-55.94c47.77-75.87,114-57.4,114-57.4,86.91,21.47,88.72,104,88.72,104l-10.45-.4c-12.83-80.89-75.06-101.56-120.41-94.34S241.87,393.27,241.87,393.27Z"/><path d="M258.23,459.07a79.18,79.18,0,1,0,79.18-79.17A79.17,79.17,0,0,0,258.23,459.07Z"/><path class="cls-12" d="M262.63,459.07a74.78,74.78,0,1,0,74.78-74.77A74.78,74.78,0,0,0,262.63,459.07Z"/><path class="cls-15" d="M262.63,459.07a74.78,74.78,0,1,0,74.78-74.77A74.78,74.78,0,0,0,262.63,459.07Z"/><path class="cls-12" d="M263.75,460.2a73.66,73.66,0,1,0,73.66-73.67A73.66,73.66,0,0,0,263.75,460.2Z"/><path d="M285.25,459.09a52.16,52.16,0,1,0,52.16-52.16A52.15,52.15,0,0,0,285.25,459.09Z"/><path class="cls-11" d="M288.17,459.09a49.24,49.24,0,1,0,49.24-49.25A49.23,49.23,0,0,0,288.17,459.09Z"/><path class="cls-16" d="M293.2,459.09a44.21,44.21,0,1,0,44.21-44.22A44.22,44.22,0,0,0,293.2,459.09Z"/><path class="cls-17" d="M332.92,423.07a4.49,4.49,0,1,0,4.49-4.5A4.49,4.49,0,0,0,332.92,423.07Z"/><path class="cls-18" d="M331.88,423.07a5.53,5.53,0,1,1,5.53,5.52A5.54,5.54,0,0,1,331.88,423.07Zm2.07,0a3.46,3.46,0,1,0,3.46-3.46A3.47,3.47,0,0,0,334,423.07Z"/><path class="cls-17" d="M332.92,495.08a4.49,4.49,0,1,0,4.49-4.49A4.47,4.47,0,0,0,332.92,495.08Z"/><path class="cls-18" d="M331.88,495.08a5.53,5.53,0,1,1,5.53,5.52A5.53,5.53,0,0,1,331.88,495.08Zm2.07,0a3.46,3.46,0,1,0,3.46-3.46A3.47,3.47,0,0,0,334,495.08Z"/><path class="cls-17" d="M301.41,463.56a4.49,4.49,0,1,0-4.49-4.49A4.49,4.49,0,0,0,301.41,463.56Z"/><path class="cls-18" d="M295.87,459.07a5.53,5.53,0,1,1,5.54,5.53A5.53,5.53,0,0,1,295.87,459.07Zm2.08,0a3.45,3.45,0,1,0,3.46-3.45A3.45,3.45,0,0,0,298,459.07Z"/><path class="cls-17" d="M373.41,463.56a4.49,4.49,0,1,0-4.49-4.49A4.49,4.49,0,0,0,373.41,463.56Z"/><path class="cls-18" d="M367.88,459.07a5.53,5.53,0,1,1,5.53,5.53A5.53,5.53,0,0,1,367.88,459.07Zm2.09,0a3.45,3.45,0,1,0,3.44-3.45A3.45,3.45,0,0,0,370,459.07Z"/><path class="cls-17" d="M308.77,436.77a4.49,4.49,0,1,0,0-6.36A4.51,4.51,0,0,0,308.77,436.77Z"/><path class="cls-18" d="M308,437.49a5.52,5.52,0,0,1,0-7.81,5.65,5.65,0,0,1,7.81,0,5.52,5.52,0,1,1-7.81,7.81Zm1.47-6.34a3.43,3.43,0,0,0,0,4.88,3.54,3.54,0,0,0,4.88,0,3.46,3.46,0,0,0-2.45-5.9A3.38,3.38,0,0,0,309.51,431.15Z"/><ellipse class="cls-17" cx="362.87" cy="484.51" rx="4.49" ry="4.5"/><path class="cls-18" d="M359,488.41a5.52,5.52,0,0,1,0-7.81,5.64,5.64,0,0,1,7.8,0,5.52,5.52,0,1,1-7.8,7.81Zm1.46-6.35a3.46,3.46,0,0,0,0,4.89,3.54,3.54,0,0,0,4.88,0,3.48,3.48,0,0,0,0-4.89,3.48,3.48,0,0,0-4.88,0Z"/><path class="cls-17" d="M315.12,487.69a4.49,4.49,0,1,0-6.35,0A4.51,4.51,0,0,0,315.12,487.69Z"/><path class="cls-18" d="M308,488.41a5.52,5.52,0,0,1,0-7.8,5.64,5.64,0,0,1,7.81,0,5.52,5.52,0,1,1-7.81,7.81Zm1.47-6.35a3.47,3.47,0,0,0,0,4.89,3.55,3.55,0,0,0,4.89,0,3.45,3.45,0,0,0-4.88-4.89Z"/><path class="cls-17" d="M366.05,436.77a4.49,4.49,0,1,0-6.36,0A4.51,4.51,0,0,0,366.05,436.77Z"/><path class="cls-18" d="M359,437.49a5.53,5.53,0,0,1,0-7.81,5.64,5.64,0,0,1,7.8,0,5.52,5.52,0,1,1-7.81,7.81Zm1.47-6.34a3.45,3.45,0,0,0,0,4.88,3.54,3.54,0,0,0,4.88,0,3.45,3.45,0,0,0,0-4.88,3.43,3.43,0,0,0-4.88,0Z"/><path d="M320.83,459.09a16.58,16.58,0,1,0,16.58-16.59A16.59,16.59,0,0,0,320.83,459.09Z"/><path class="cls-12" d="M325.35,459.09A12.06,12.06,0,1,0,337.41,447,12.05,12.05,0,0,0,325.35,459.09Z"/><path class="cls-23" d="M1002.14,224.27,990.49,88.59s-1.6-12,10.44-12.43l16.41-.38,29.35,173.78-29.7-4S1004.55,243.94,1002.14,224.27Z"/><path class="cls-24" d="M1003.68,221.6,992.59,92.47s-1.52-11.47,9.94-11.85l15.62-.36,27.94,165.42-28.27-3.82S1006,240.33,1003.68,221.6Z"/><g class="cls-25"><path class="cls-26" d="M1008.61,159.4l-6-70.1s-.83-6.23,5.4-6.44l8.48-.19,15.16,89.8-15.35-2.08S1009.86,169.56,1008.61,159.4Z"/></g><path class="cls-23" d="M863.63,110.39h106.1s18.28.67,18.28,18.8V230.93c0,18.13-18.28,18.8-18.28,18.8H863.63s-18.27-.67-18.27-18.8V129.19C845.36,111.06,863.63,110.39,863.63,110.39Z"/><path class="cls-8" d="M866.73,125.59h99.54s17.14.58,17.14,16.15v87.38c0,15.57-17.14,16.15-17.14,16.15H866.73s-17.15-.58-17.15-16.15V141.74C849.58,126.17,866.73,125.59,866.73,125.59Z"/><path class="cls-24" d="M868.33,117.63h96.33s16.61.6,16.61,16.78V225.2c0,16.18-16.61,16.78-16.61,16.78H868.33s-16.6-.6-16.6-16.78V134.41C851.73,118.23,868.33,117.63,868.33,117.63Z"/><polygon class="cls-27" points="918.36 172.25 914.89 180.09 923.48 182.64 926.68 175.68 918.36 172.25"/><path class="cls-28" d="M938.61,206.17a50.94,50.94,0,0,0-6.17-17.39c-2.42-4.15-3.75-6.21-6.36-7.37-1.26-.56-1.72-.43-5.93-1.59-4.92-1.36-5.27-1.8-6.17-1.66-4.05.64-9.59,17.67-9.67,18.28-.15,1.22-.24,2.09-.24,2.09s-6.17,32.69-.59,44c.48,1,7.87-1.51,9-.8,2,1.24,4.1.72,7.55.52,2.89-.17,1.53.2,8.09.26,4.26,0,7.45-.09,11.59-.26,3.1-.13,5.69-.27,7.55-.38-5.69-22.05-7.8-30.62-8.06-32.11C939.21,209.69,938.94,208.21,938.61,206.17Z"/><path class="cls-29" d="M979,234.17,973.53,228l4.89-3.75,2.85,4.52S980.07,233.91,979,234.17Z"/><path class="cls-29" d="M981.27,218.79s-16,13-19.29,13c1.11,3.21,1.6,2.56,4.28,1.67.51-.17,15-10.89,15-10.89S982.56,217.75,981.27,218.79Z"/><path class="cls-27" d="M978.75,226.36c-1.4,1.89-5,2.36-6,1.14s.7-3.11-.21-4.35c-1.22-1.67-5.76-.27-6.64,0-13,3.95-25,7.64-32.35,4.35-1.91-.86-10.86-11.92-13.57-18.3,4.2-3.25,4.61-6,10.72-6.83,1.49,1.33,6.44,15.09,7.93,16.42l36.31-1.1a2.9,2.9,0,0,1,2.24.93C979.64,221.29,980.07,224.57,978.75,226.36Z"/><path class="cls-30" d="M918.62,210.32c4.47-2.29,11.64-6.1,16.11-8.38-1-6.27-16.19-25-20.73-17.74C910.3,190.09,914.4,204.86,918.62,210.32Z"/><path class="cls-27" d="M944.83,165.94c-.29.58-1.33.78-1.54.82-.74.14-1.06-.1-1.34.14s-.15,1,0,2.13c0,0,.11.76.17,2.67,0,.39.09,2.83-.79,4.09-.65.93-2.11,1.39-7.22,1.37a34.55,34.55,0,0,1-10.07-1.23,22.18,22.18,0,0,1-5.09-2.11,28,28,0,0,1-6.71-5.81,23.37,23.37,0,0,1-3-3.56c-2.78-5.18,2-17.41,12-20,7.06-1.81,15.05,1.37,19.4,7.95-.18,4.5.55,6.81,1.29,8.1.31.54.6,1.09.93,1.63C944.34,164.55,945.16,165.29,944.83,165.94Z"/><path class="cls-31" d="M913.79,172.87a6.61,6.61,0,0,1-3.28-.45c-1.74-.8-2.93-2.63-2.55-3.14s1.95.52,2.6-.05-.13-2.62-1.31-4.78c-.37-.72-4.14-8.5.36-16.12,3.74-6.35,10.53-7.94,12.3-8.35a18.41,18.41,0,0,1,11.55,1.17,13.68,13.68,0,0,1,4.56,2.91c1.12,1.2,2,2.76,3.65,3.34,1.11.38,1.82,0,2.28.44s.54,1.42-.9,4.2a11.56,11.56,0,0,1-2.39,2.14c-4.7,3.18-9.28,1.26-11,3.93a8.06,8.06,0,0,0-.87,4.69c.12,1.16.43,2-.06,2.92a2.43,2.43,0,0,1-2.17,1.29,3.93,3.93,0,0,1-2.9-2.45c-.72-1.8.37-2.88-.46-3.84a3.11,3.11,0,0,0-3.52-.35c-1.55.82-1.57,2.83-1.57,3.26,0,2,1.12,2.28,1.1,4.07a5.56,5.56,0,0,1-3.48,4.82A6.26,6.26,0,0,1,913.79,172.87Z"/><path class="cls-11" d="M942,169s.11.76.17,2.67a5,5,0,0,1-3.45-.11,4.66,4.66,0,0,1-2.21-1.92,20.63,20.63,0,0,0,2.48-.06,12.52,12.52,0,0,0,2-.28A9.69,9.69,0,0,0,942,169Z"/><path class="cls-32" d="M934.7,160.4A.59.59,0,0,1,934,160a.55.55,0,0,1,.35-.72l4.41-1.54a.6.6,0,0,1,.76.33.57.57,0,0,1-.35.73l-4.41,1.54Z"/><path class="cls-32" d="M939.27,161.69a1.21,1.21,0,0,1-.85,1.49,1.26,1.26,0,0,1-1.4-1.05,1.2,1.2,0,0,1,.85-1.49A1.27,1.27,0,0,1,939.27,161.69Z"/><path class="cls-33" d="M909.25,164.45a99.36,99.36,0,0,1,15.12-12.27,100.63,100.63,0,0,1,14.78-8.08c-6.59-8.32-19-9.57-26.79-3.42A17.41,17.41,0,0,0,909.25,164.45Z"/><path class="cls-34" d="M930.87,148.23q18.72,1,18.93-.41.16-1.12-10.65-3.72a62.36,62.36,0,0,0-6.36,3C932.13,147.49,931.49,147.86,930.87,148.23Z"/><path class="cls-35" d="M895.42,228.16c-4.81-2.83-8.74-10.17-8.74-18.27V132h91v76.37c0,22.55-15.68,23.39-15.68,23.39H906.83C902.31,231.18,899.34,230.48,895.42,228.16Z"/><path class="cls-8" d="M1166.72,319.25c0,15.05,4.87,27.25,10.89,27.25s10.88-12.2,10.88-27.25S1183.61,292,1177.61,292,1166.72,304.21,1166.72,319.25Z"/><path class="cls-9" d="M1170.73,320.11c0,12.74,4,23.07,8.88,23.07s8.88-10.33,8.88-23.07-4-23.08-8.88-23.08S1170.73,307.36,1170.73,320.11Z"/><path class="cls-10" d="M1172.13,319.91c0,12.14,3.53,22,7.88,22s7.88-9.84,7.88-22-3.52-22-7.88-22S1172.13,307.77,1172.13,319.91Z"/><path class="cls-10" d="M1172.13,319.91c0,12.14,3.53,22,7.88,22s7.88-9.84,7.88-22-3.52-22-7.88-22S1172.13,307.77,1172.13,319.91Z"/><path class="cls-11" d="M1174.39,312.69c0,4.51,1.31,8.18,2.94,8.18s2.94-3.67,2.94-8.18-1.32-8.2-2.94-8.2S1174.39,308.15,1174.39,312.69Z"/><path class="cls-12" d="M1027.82,260.6a8.43,8.43,0,1,0,8.43-8.43A8.44,8.44,0,0,0,1027.82,260.6Z"/><path class="cls-23" d="M1038.26,265.16h18.62c31.89,0,40.75-19,41-29V81.71c0-31-28.28-31.39-28.56-31.39h-40.15a4.82,4.82,0,0,0,0,9.63h40.15c1.91,0,18.92.82,18.92,21.76V236c0,.65-1.19,19.49-31.36,19.49h-18.62a4.82,4.82,0,0,0,0,9.64Z"/><path class="cls-12" d="M1067.16,193a22.28,22.28,0,0,0,22.29,22.28h0A22.27,22.27,0,0,0,1111.72,193V122.51a22.27,22.27,0,0,0-22.27-22.27h0a22.28,22.28,0,0,0-22.29,22.27Z"/><path class="cls-36" d="M1082.24,162.09c0,7.52,5.83,13.61,13,13.61h0c7.19,0,13-6.09,13-13.61v-43c0-7.52-5.82-13.62-13-13.62h0c-7.2,0-13,6.1-13,13.62Z"/><path class="cls-37" d="M110.22,65.88c0-50,40.53-51.44,40.53-51.44h851.69c28,0,29.2,29.19,29.2,29.19l.5,27.81-15.55-.1H110.22Z"/><path class="cls-38" d="M342.23,50.86c1.19-29.51,29.92-30.4,29.92-30.4h630.16c20.71,0,21.61,18.34,21.61,18.34l.25,12.06Z"/><rect class="cls-8" x="108.11" y="71.44" width="911.2" height="11.23"/><path class="cls-23" d="M195.29,111.76h137.9s23.74.68,23.74,19V233.57c0,18.33-23.74,19-23.74,19H195.29s-23.77-.68-23.77-19V130.76C171.52,112.44,195.29,111.76,195.29,111.76Z"/><path class="cls-8" d="M199.32,116.27H328.69S351,116.91,351,134v96c0,17.11-22.28,17.75-22.28,17.75H199.32s-22.3-.64-22.3-17.75V134C177,116.91,199.32,116.27,199.32,116.27Z"/><path class="cls-24" d="M201.4,116.27H326.61s21.57.62,21.57,17.28V227c0,16.65-21.57,17.27-21.57,17.27H201.4s-21.58-.62-21.58-17.27V133.55C179.82,116.89,201.4,116.27,201.4,116.27Z"/><path class="cls-35" d="M222.6,229.58a21.86,21.86,0,0,1-12.86-19.48v-83H343.5V208.5c0,24-23.05,24.93-23.05,24.93H239.38C232.73,232.81,228.38,232.06,222.6,229.58Z"/><path class="cls-23" d="M645.29,111.76h137.9s23.74.68,23.74,19V233.57c0,18.33-23.74,19-23.74,19H645.29s-23.77-.68-23.77-19V130.76C621.52,112.44,645.29,111.76,645.29,111.76Z"/><path class="cls-8" d="M649.32,116.27H778.69S801,116.91,801,134v96c0,17.11-22.28,17.75-22.28,17.75H649.32s-22.3-.64-22.3-17.75V134C627,116.91,649.32,116.27,649.32,116.27Z"/><path class="cls-24" d="M651.4,116.27H776.61s21.57.62,21.57,17.28V227c0,16.65-21.57,17.27-21.57,17.27H651.4s-21.58-.62-21.58-17.27V133.55C629.82,116.89,651.4,116.27,651.4,116.27Z"/><path class="cls-35" d="M672.6,229.58a21.86,21.86,0,0,1-12.86-19.48v-83H793.5V208.5c0,24-23,24.93-23,24.93H689.38C682.73,232.81,678.38,232.06,672.6,229.58Z"/><path class="cls-23" d="M420.29,111.76h137.9s23.74.68,23.74,19V233.57c0,18.33-23.74,19-23.74,19H420.29s-23.77-.68-23.77-19V130.76C396.52,112.44,420.29,111.76,420.29,111.76Z"/><path class="cls-8" d="M424.32,116.27H553.69S576,116.91,576,134v96c0,17.11-22.28,17.75-22.28,17.75H424.32s-22.3-.64-22.3-17.75V134C402,116.91,424.32,116.27,424.32,116.27Z"/><path class="cls-24" d="M426.4,116.27H551.61s21.57.62,21.57,17.28V227c0,16.65-21.57,17.27-21.57,17.27H426.4s-21.58-.62-21.58-17.27V133.55C404.82,116.89,426.4,116.27,426.4,116.27Z"/><path class="cls-35" d="M447.6,229.58a21.86,21.86,0,0,1-12.86-19.48v-83H568.5V208.5c0,24-23,24.93-23,24.93H464.38C457.73,232.81,453.38,232.06,447.6,229.58Z"/></g></g></svg>