<svg xmlns="http://www.w3.org/2000/svg" xmlns:xlink="http://www.w3.org/1999/xlink" viewBox="0 0 1920 900"><defs><style>.cls-1,.cls-130,.cls-131,.cls-132,.cls-135,.cls-136,.cls-138,.cls-139,.cls-150,.cls-19,.cls-27,.cls-31,.cls-33,.cls-34,.cls-35,.cls-36,.cls-37{fill:none;}.cls-2{fill:#b44a26;}.cls-3,.cls-59{fill:#202328;}.cls-4,.cls-69{fill:#c36a28;}.cls-5{fill:#d5d4d4;}.cls-6{clip-path:url(#clip-path);}.cls-12,.cls-136,.cls-138,.cls-15,.cls-150,.cls-151,.cls-16,.cls-17,.cls-18,.cls-19,.cls-21,.cls-31,.cls-33,.cls-34,.cls-35,.cls-36,.cls-37,.cls-38,.cls-39,.cls-40,.cls-41,.cls-42,.cls-7,.cls-9{stroke:#1a2021;}.cls-12,.cls-127,.cls-128,.cls-129,.cls-130,.cls-131,.cls-132,.cls-133,.cls-134,.cls-135,.cls-136,.cls-138,.cls-139,.cls-140,.cls-141,.cls-142,.cls-148,.cls-15,.cls-150,.cls-151,.cls-152,.cls-153,.cls-154,.cls-155,.cls-156,.cls-16,.cls-17,.cls-18,.cls-19,.cls-21,.cls-27,.cls-31,.cls-33,.cls-34,.cls-35,.cls-36,.cls-37,.cls-38,.cls-39,.cls-40,.cls-41,.cls-42,.cls-49,.cls-54,.cls-69,.cls-7,.cls-73,.cls-9{stroke-miterlimit:10;}.cls-7{stroke-width:1.59px;fill:url(#linear-gradient);}.cls-29,.cls-77,.cls-8{fill:#353534;}.cls-8{opacity:0.44;}.cls-9{stroke-width:0.7px;fill:url(#linear-gradient-2);}.cls-10{fill:url(#linear-gradient-3);}.cls-11{fill:#95a0a3;}.cls-12{stroke-width:0.53px;fill:url(#linear-gradient-4);}.cls-13{fill:url(#linear-gradient-5);}.cls-14{opacity:0.22;}.cls-15,.cls-16,.cls-17,.cls-18,.cls-75,.cls-93{fill:#353533;}.cls-15,.cls-16{stroke-width:1.07px;}.cls-112,.cls-16,.cls-17,.cls-18{opacity:0.4;}.cls-17{stroke-width:1.06px;}.cls-18,.cls-19,.cls-38,.cls-39,.cls-40,.cls-41,.cls-42{stroke-width:1.04px;}.cls-20{fill:#414141;}.cls-21{fill:#686766;stroke-width:0.98px;}.cls-22{fill:#f9a66e;}.cls-23{fill:#6b3c24;}.cls-24{fill:#c48156;}.cls-137,.cls-24,.cls-25,.cls-27{opacity:0.51;}.cls-26{fill:#724436;}.cls-27{stroke:#724436;}.cls-28{fill:url(#linear-gradient-6);}.cls-29{opacity:0.19;}.cls-150,.cls-30,.cls-37{opacity:0.53;}.cls-31{stroke-width:0.96px;}.cls-32{fill:#4e565b;}.cls-33{stroke-width:1.43px;}.cls-34{stroke-width:1.32px;}.cls-35{stroke-width:1.41px;}.cls-36{stroke-width:1.3px;}.cls-37{stroke-width:1.07px;}.cls-38{fill:url(#linear-gradient-7);}.cls-39{fill:url(#linear-gradient-8);}.cls-40{fill:url(#linear-gradient-9);}.cls-41{fill:url(#linear-gradient-10);}.cls-42{fill:url(#linear-gradient-11);}.cls-43{opacity:0.33;}.cls-44{fill:#b79b79;}.cls-45{fill:#976740;}.cls-46{fill:#e0c9ad;}.cls-47{fill:#c1a380;}.cls-48{fill:#976643;}.cls-49{fill:#725b49;stroke:#7f4f4b;}.cls-135,.cls-49{stroke-width:5px;}.cls-50{fill:#91725d;}.cls-51{fill:#c39b93;}.cls-52{fill:#c39c91;}.cls-53{fill:#3a3a49;}.cls-127,.cls-54{stroke:#60301d;stroke-width:4px;}.cls-54{fill:url(#linear-gradient-12);}.cls-55{fill:#561913;}.cls-56{fill:#b05930;}.cls-57{fill:#458768;}.cls-58,.cls-59,.cls-81,.cls-86{opacity:0.3;}.cls-108,.cls-109,.cls-112,.cls-115,.cls-148,.cls-60,.cls-64,.cls-65,.cls-81{fill:#fff;}.cls-60{opacity:0.1;}.cls-61{fill:#76b793;}.cls-62{fill:#adadad;}.cls-63{clip-path:url(#clip-path-2);}.cls-64{opacity:0.2;}.cls-66{fill:#42434b;}.cls-67{fill:url(#linear-gradient-13);}.cls-68{clip-path:url(#clip-path-3);}.cls-69{stroke:#eeaf75;stroke-width:0.96px;}.cls-116,.cls-69{opacity:0.71;}.cls-70{clip-path:url(#clip-path-5);}.cls-71{fill:#7e8082;}.cls-72{fill:url(#linear-gradient-14);}.cls-73{fill:#fab216;stroke:#9a6427;stroke-width:0.74px;}.cls-74{clip-path:url(#clip-path-6);}.cls-75{opacity:0.21;}.cls-76{fill:#e8a85d;}.cls-78{fill:#fbc072;}.cls-79{fill:#5f5f66;}.cls-80{fill:#faac3c;}.cls-82{fill:#7f7f82;}.cls-83{fill:#383a3a;}.cls-84{fill:#282827;}.cls-85{fill:url(#linear-gradient-15);}.cls-87{fill:#6d6361;}.cls-88{fill:#dfdfdd;}.cls-89{fill:#2b2625;}.cls-90{fill:#1f2023;}.cls-91{fill:#bababa;}.cls-92{fill:#747478;}.cls-93{opacity:0.17;}.cls-94{fill:#71757c;}.cls-100,.cls-101,.cls-102,.cls-103,.cls-104,.cls-105,.cls-94,.cls-95,.cls-96,.cls-97,.cls-99{fill-rule:evenodd;}.cls-95{fill:#9fb4ba;}.cls-96{fill:#808287;}.cls-97{fill:#663533;}.cls-98{fill:#5a5f64;}.cls-99{fill:#5f646f;}.cls-100{fill:#2e3135;}.cls-101{fill:#3f4248;}.cls-103{fill:#4f535b;}.cls-104{fill:#1a1a1a;}.cls-105{fill:#333;}.cls-106{fill:#3d3230;}.cls-107{clip-path:url(#clip-path-7);}.cls-108{opacity:0.05;}.cls-109{opacity:0.15;}.cls-110{clip-path:url(#clip-path-8);}.cls-111{fill:#8f9396;}.cls-113{fill:#55585e;}.cls-114{clip-path:url(#clip-path-9);}.cls-115{opacity:0.25;}.cls-117{fill:#eeaf75;}.cls-118{fill:#eb7b23;}.cls-119{fill:#eb6624;}.cls-120{fill:#211e1f;}.cls-121{fill:#6d6e71;}.cls-122{fill:#404141;}.cls-123{fill:#a7a7aa;}.cls-124{fill:#434243;}.cls-125{fill:#d1d2d2;opacity:0.69;}.cls-126,.cls-146,.cls-147{opacity:0.55;}.cls-126{fill:url(#linear-gradient-16);}.cls-127{fill:#4f3320;opacity:0.43;}.cls-128,.cls-129,.cls-130,.cls-131,.cls-132,.cls-133,.cls-134{stroke:#393a39;}.cls-128{stroke-width:0.88px;fill:url(#linear-gradient-17);}.cls-129{stroke-width:1.31px;fill:url(#linear-gradient-18);}.cls-130{stroke-width:5.26px;}.cls-131{stroke-width:4.95px;}.cls-132{stroke-width:5.2px;}.cls-133{stroke-width:1.99px;fill:url(#linear-gradient-19);}.cls-134{stroke-width:1.93px;fill:url(#linear-gradient-20);}.cls-135{stroke:#eacfa0;}.cls-137{fill:#181818;}.cls-138{stroke-width:0.5px;}.cls-138,.cls-140,.cls-141,.cls-142{opacity:0.5;}.cls-139,.cls-140,.cls-141,.cls-142{stroke:#261610;}.cls-140{fill:#77392b;}.cls-141{fill:#662e25;}.cls-142{fill:#5b2a22;}.cls-143{fill:#6d423d;}.cls-144,.cls-145{opacity:0.68;}.cls-144{fill:url(#linear-gradient-21);}.cls-145{fill:url(#linear-gradient-22);}.cls-146{fill:url(#linear-gradient-23);}.cls-147{fill:url(#linear-gradient-24);}.cls-148{stroke:#00a99d;}.cls-148,.cls-153{stroke-width:2px;}.cls-149{fill:#2b2121;}.cls-150,.cls-152{stroke-width:4.16px;}.cls-151{fill:#28191d;stroke-width:0.52px;}.cls-152{fill:#161012;stroke:#080909;}.cls-153{fill:#fcf7da;stroke:#564500;}.cls-154,.cls-155{stroke-width:0.06px;}.cls-154{fill:url(#linear-gradient-25);stroke:url(#linear-gradient-26);}.cls-155{stroke:#cb9e2e;fill:url(#linear-gradient-27);}.cls-156{fill:#1e64ae;stroke:#d7aa29;stroke-width:0.32px;opacity:0.7;}</style><clipPath id="clip-path"><rect class="cls-1" width="1920" height="900"/></clipPath><linearGradient id="linear-gradient" x1="-150.61" y1="968.36" x2="2047.75" y2="242.66" gradientUnits="userSpaceOnUse"><stop offset="0" stop-color="#579093"/><stop offset="0.23" stop-color="#5a8f91"/><stop offset="0.99" stop-color="#5e8d8e"/></linearGradient><linearGradient id="linear-gradient-2" x1="-27.68" y1="499.96" x2="1926.96" y2="499.96" gradientUnits="userSpaceOnUse"><stop offset="0.14" stop-color="#98b6c7"/><stop offset="0.17" stop-color="#9ab5c4"/><stop offset="0.4" stop-color="#a2b0b6"/><stop offset="0.6" stop-color="#a5aeb1"/></linearGradient><linearGradient id="linear-gradient-3" x1="52.75" y1="1101.98" x2="1859.89" y2="505.43" gradientUnits="userSpaceOnUse"><stop offset="0" stop-color="#a5b5bf"/><stop offset="0.39" stop-color="#acb8c0"/><stop offset="1" stop-color="#b0bac1"/></linearGradient><linearGradient id="linear-gradient-4" x1="2143.69" y1="81.89" x2="-558.57" y2="488.07" gradientUnits="userSpaceOnUse"><stop offset="0" stop-color="#a9bfcd"/><stop offset="0.09" stop-color="#a0b8c7"/><stop offset="0.25" stop-color="#99b3c2"/><stop offset="0.68" stop-color="#97b2c1"/></linearGradient><linearGradient id="linear-gradient-5" x1="67.57" y1="715.47" x2="1853.84" y2="125.8" gradientUnits="userSpaceOnUse"><stop offset="0" stop-color="#888d8b"/><stop offset="0.13" stop-color="#8c9190"/><stop offset="0.57" stop-color="#949c9d"/><stop offset="0.99" stop-color="#979fa1"/></linearGradient><linearGradient id="linear-gradient-6" x1="1938.85" y1="-19.49" x2="-255.59" y2="105.92" gradientUnits="userSpaceOnUse"><stop offset="0" stop-color="#7f7873"/><stop offset="0.58" stop-color="#7e7771"/><stop offset="0.79" stop-color="#79716a"/><stop offset="0.92" stop-color="#726a61"/></linearGradient><linearGradient id="linear-gradient-7" x1="1124.04" y1="572.65" x2="1380.87" y2="572.65" gradientUnits="userSpaceOnUse"><stop offset="0" stop-color="#37686e"/><stop offset="0.31" stop-color="#436c6d"/><stop offset="0.62" stop-color="#476d6d"/></linearGradient><linearGradient id="linear-gradient-8" x1="799.11" y1="570.47" x2="1405.06" y2="570.47" xlink:href="#linear-gradient-7"/><linearGradient id="linear-gradient-9" x1="799.11" y1="618.16" x2="1405.06" y2="618.16" xlink:href="#linear-gradient-7"/><linearGradient id="linear-gradient-10" x1="499.71" y1="619.36" x2="1105.66" y2="619.36" xlink:href="#linear-gradient-7"/><linearGradient id="linear-gradient-11" x1="499.07" y1="570.47" x2="1105.02" y2="570.47" xlink:href="#linear-gradient-7"/><linearGradient id="linear-gradient-12" x1="357.39" y1="845.32" x2="1541.22" y2="845.32" gradientUnits="userSpaceOnUse"><stop offset="0" stop-color="#aa6c3d"/><stop offset="0.28" stop-color="#ae6f3e"/><stop offset="0.57" stop-color="#bb7743"/><stop offset="0.77" stop-color="#c87f47"/></linearGradient><clipPath id="clip-path-2"><path class="cls-1" d="M933.55,419.34l-1.39-32.93s-.3-4.65,3.83-4.64,3.58,4.56,3.58,4.56l-1.28,33.14s-.46,1.1-2.43,1C933.73,420.46,933.55,419.34,933.55,419.34Z"/></clipPath><linearGradient id="linear-gradient-13" x1="955.01" y1="418.8" x2="955.01" y2="441.08" gradientUnits="userSpaceOnUse"><stop offset="0" stop-color="#983333"/><stop offset="1" stop-color="#b74f28"/></linearGradient><clipPath id="clip-path-3"><path class="cls-1" d="M952.52,419.34l-1.38-32.93s-.3-4.65,3.82-4.64,3.58,4.56,3.58,4.56l-1.28,33.14s-.45,1.1-2.42,1C952.7,420.46,952.52,419.34,952.52,419.34Z"/></clipPath><clipPath id="clip-path-5"><path class="cls-2" d="M924.88,430.59c0,4.34-1.28,7.38-3,9.31s-9.35,1.84-11-.07-2.91-4.95-2.91-9.24c0-6.63,2.71-12,8.46-12C922,418.59,924.88,424,924.88,430.59Z"/></clipPath><linearGradient id="linear-gradient-14" x1="916.42" y1="441.28" x2="916.42" y2="418.59" xlink:href="#linear-gradient-13"/><clipPath id="clip-path-6"><path class="cls-1" d="M913.94,419.34l-1.39-32.93s-.3-4.65,3.83-4.64,3.58,4.56,3.58,4.56l-1.28,33.14s-.46,1.1-2.43,1C914.12,420.46,913.94,419.34,913.94,419.34Z"/></clipPath><linearGradient id="linear-gradient-15" x1="629.2" y1="462.54" x2="635.34" y2="451.91" gradientUnits="userSpaceOnUse"><stop offset="0" stop-color="#191818"/><stop offset="0.38" stop-color="#2e2926"/><stop offset="1" stop-color="#5e5f5e"/></linearGradient><clipPath id="clip-path-7"><path class="cls-3" d="M1009.65,486.65h0V484l44-.3v2.92c0,2.31-8.4,3.17-19.05,3.17h-8.31C1016.14,489.82,1009.65,488.76,1009.65,486.65Z"/></clipPath><clipPath id="clip-path-8"><path class="cls-4" d="M1005.24,463.37l3.35,20.39a2.48,2.48,0,0,0,.5,1.11h0c1.22,1.56,5.06,2.67,19.18,2.67h6.45c10.56,0,16.4-.9,18.79-2.24a2.32,2.32,0,0,0,1.21-1.66l3.53-21.14Z"/></clipPath><clipPath id="clip-path-9"><path class="cls-5" d="M1058.25,459.68l-2.2-1.52a23.33,23.33,0,0,0-10.61-4h0c-1.73-.34-3.77-.62-11.87-.67h-4.8c-.57,0-1.13,0-1.67,0-10.66.33-14.33,1.89-20.37,5.51l-1.49.9Z"/></clipPath><linearGradient id="linear-gradient-16" x1="644" y1="708.7" x2="760.05" y2="708.7" gradientUnits="userSpaceOnUse"><stop offset="0.03" stop-color="#915824"/><stop offset="0.1" stop-color="#a1662e"/><stop offset="0.2" stop-color="#ac7136"/><stop offset="0.34" stop-color="#b3773b"/><stop offset="0.73" stop-color="#b5793c"/></linearGradient><linearGradient id="linear-gradient-17" x1="1529.9" y1="154.87" x2="1681.7" y2="785.82" gradientUnits="userSpaceOnUse"><stop offset="0.04" stop-color="#97a1a9"/><stop offset="0.43" stop-color="#767b80"/><stop offset="0.86" stop-color="#4d4c4d"/></linearGradient><linearGradient id="linear-gradient-18" x1="1418.02" y1="138.67" x2="1817.55" y2="655.51" xlink:href="#linear-gradient-17"/><linearGradient id="linear-gradient-19" x1="1610" y1="301.61" x2="1652.61" y2="356.72" gradientUnits="userSpaceOnUse"><stop offset="0.04" stop-color="#97d9f2"/><stop offset="0.37" stop-color="#6ec0e6"/><stop offset="0.86" stop-color="#2a96d3"/></linearGradient><linearGradient id="linear-gradient-20" x1="1548.5" y1="309.51" x2="1584.51" y2="356.1" xlink:href="#linear-gradient-19"/><linearGradient id="linear-gradient-21" x1="438.11" y1="747.56" x2="504.68" y2="747.56" xlink:href="#linear-gradient-16"/><linearGradient id="linear-gradient-22" x1="413.66" y1="747.55" x2="527.93" y2="747.55" xlink:href="#linear-gradient-16"/><linearGradient id="linear-gradient-23" x1="942.36" y1="705.48" x2="1058.25" y2="705.48" xlink:href="#linear-gradient-16"/><linearGradient id="linear-gradient-24" x1="970.87" y1="707.9" x2="1037.76" y2="707.9" xlink:href="#linear-gradient-16"/><linearGradient id="linear-gradient-25" x1="757.13" y1="248.37" x2="754.08" y2="301.06" gradientTransform="matrix(1, 0.02, -0.02, 1, -4.36, -95.46)" gradientUnits="userSpaceOnUse"><stop offset="0.02" stop-color="#f4ea32"/><stop offset="0.46" stop-color="#e8c52a"/><stop offset="0.84" stop-color="#c3972d"/></linearGradient><linearGradient id="linear-gradient-26" x1="755.43" y1="269.88" x2="755.55" y2="276.23" xlink:href="#linear-gradient-25"/><linearGradient id="linear-gradient-27" x1="755.66" y1="269.41" x2="756.22" y2="298.96" gradientTransform="matrix(1, 0.02, -0.02, 1, -5.57, -95.54)" xlink:href="#linear-gradient-25"/></defs><g id="Layer_5" data-name="Layer 5"><g class="cls-6"><rect class="cls-7" x="-61.03" y="517.48" width="1984.15" height="187.62"/><rect class="cls-8" x="-60.55" y="516.42" width="1982.14" height="11.73"/><polygon class="cls-9" points="-27.68 516.3 1926.96 516.3 1926.7 486.43 -13.04 483.62 -27.68 516.3"/><polygon class="cls-10" points="-13.04 705.91 1925.68 704.72 1924.66 901.83 -12.7 903.7 -13.04 705.91"/><rect class="cls-11" x="-2.11" width="1924.21" height="165.72"/><path class="cls-12" d="M1923.06,163.93H-3.35V361.8l1930.05-6.6q-1.65-45.69-2.58-92.52Q1923.13,212.67,1923.06,163.93Z"/><path class="cls-13" d="M1927.47,488.54H-7.34V353.15c644.94,1.39,1292,.74,1936.94,2.13Z"/><g class="cls-14"><line class="cls-15" x1="98.73" y1="353.74" x2="98.73" y2="482.96"/><line class="cls-15" x1="39.74" y1="355.8" x2="39.74" y2="485.01"/><line class="cls-15" x1="157.71" y1="353.74" x2="157.71" y2="482.96"/><line class="cls-15" x1="218.8" y1="355.8" x2="218.8" y2="485.01"/><line class="cls-15" x1="290.42" y1="355.8" x2="290.42" y2="485.01"/><line class="cls-15" x1="357.83" y1="355.8" x2="357.83" y2="485.01"/><line class="cls-15" x1="456.84" y1="355.8" x2="456.84" y2="485.01"/><line class="cls-15" x1="539" y1="355.8" x2="539" y2="485.01"/><line class="cls-15" x1="614.83" y1="351.69" x2="614.83" y2="480.91"/><line class="cls-15" x1="699.09" y1="355.8" x2="699.09" y2="485.01"/><line class="cls-15" x1="774.93" y1="355.8" x2="774.93" y2="485.01"/><line class="cls-15" x1="848.66" y1="355.8" x2="848.66" y2="485.01"/><line class="cls-15" x1="913.96" y1="355.8" x2="913.96" y2="485.01"/><line class="cls-15" x1="998.22" y1="355.8" x2="998.22" y2="485.01"/><line class="cls-15" x1="1071.95" y1="355.8" x2="1071.95" y2="485.01"/><line class="cls-15" x1="1147.79" y1="353.74" x2="1147.79" y2="482.96"/><line class="cls-15" x1="1223.62" y1="353.74" x2="1223.62" y2="482.96"/><line class="cls-15" x1="1288.93" y1="353.74" x2="1288.93" y2="482.96"/><line class="cls-15" x1="1356.34" y1="355.8" x2="1356.34" y2="485.01"/><line class="cls-15" x1="1425.85" y1="355.8" x2="1425.85" y2="485.01"/><line class="cls-15" x1="1491.15" y1="353.74" x2="1491.15" y2="482.96"/><line class="cls-15" x1="1558.56" y1="355.8" x2="1558.56" y2="485.01"/><line class="cls-15" x1="1630.19" y1="357.85" x2="1630.19" y2="487.06"/><line class="cls-15" x1="1706.02" y1="357.85" x2="1706.02" y2="487.06"/><line class="cls-16" y1="417.08" x2="1920" y2="417.31"/><line class="cls-17" y1="388.36" x2="1920" y2="388.6"/><line class="cls-16" x1="1920" y1="448.08" y2="447.85"/><line class="cls-18" y1="482.72" x2="1920" y2="482.96"/></g><polygon class="cls-19" points="334.35 528.42 486.83 528.42 487.53 702.35 334.35 702.35 334.35 528.42"/><line class="cls-19" x1="405.64" y1="528.14" x2="405.64" y2="702.34"/><line class="cls-19" x1="428.29" y1="592.76" x2="428.29" y2="646.28"/><line class="cls-19" x1="377.87" y1="592.76" x2="377.87" y2="646.28"/><ellipse class="cls-20" cx="429.55" cy="593.78" rx="6.3" ry="7.98"/><ellipse class="cls-20" cx="429.55" cy="644.87" rx="6.3" ry="7.98"/><ellipse class="cls-20" cx="379.13" cy="590.59" rx="6.3" ry="7.98"/><ellipse class="cls-20" cx="376.61" cy="644.87" rx="6.3" ry="7.98"/><polygon class="cls-19" points="142.21 528.42 294.69 528.42 295.39 702.35 142.21 702.35 142.21 528.42"/><line class="cls-19" x1="213.5" y1="528.14" x2="213.5" y2="702.34"/><line class="cls-19" x1="236.15" y1="592.76" x2="236.15" y2="646.28"/><line class="cls-19" x1="185.73" y1="592.76" x2="185.73" y2="646.28"/><ellipse class="cls-20" cx="237.41" cy="593.78" rx="6.3" ry="7.98"/><ellipse class="cls-20" cx="237.41" cy="644.87" rx="6.3" ry="7.98"/><ellipse class="cls-20" cx="186.99" cy="590.59" rx="6.3" ry="7.98"/><ellipse class="cls-20" cx="184.47" cy="644.87" rx="6.3" ry="7.98"/><polygon class="cls-19" points="1436.95 528.68 1585.73 528.68 1586.42 697.99 1436.95 697.99 1436.95 528.68"/><line class="cls-19" x1="1506.51" y1="528.42" x2="1506.51" y2="697.99"/><line class="cls-19" x1="1528.61" y1="591.32" x2="1528.61" y2="643.41"/><line class="cls-19" x1="1479.41" y1="591.32" x2="1479.41" y2="643.41"/><ellipse class="cls-20" cx="1529.84" cy="592.31" rx="6.15" ry="7.77"/><ellipse class="cls-20" cx="1529.84" cy="642.04" rx="6.15" ry="7.77"/><ellipse class="cls-20" cx="1480.64" cy="589.2" rx="6.15" ry="7.77"/><ellipse class="cls-20" cx="1478.18" cy="642.04" rx="6.15" ry="7.77"/><polygon class="cls-19" points="1631.29 528.68 1780.07 528.68 1780.75 697.99 1631.29 697.99 1631.29 528.68"/><line class="cls-19" x1="1700.85" y1="528.42" x2="1700.85" y2="697.99"/><line class="cls-19" x1="1722.95" y1="591.32" x2="1722.95" y2="643.41"/><line class="cls-19" x1="1673.75" y1="591.32" x2="1673.75" y2="643.41"/><ellipse class="cls-20" cx="1724.18" cy="592.31" rx="6.15" ry="7.77"/><ellipse class="cls-20" cx="1724.18" cy="642.04" rx="6.15" ry="7.77"/><ellipse class="cls-20" cx="1674.98" cy="589.2" rx="6.15" ry="7.77"/><ellipse class="cls-20" cx="1672.52" cy="642.04" rx="6.15" ry="7.77"/><rect class="cls-21" x="-2.62" y="514.18" width="1925.23" height="9.23"/><path class="cls-22" d="M293.23,781.13c39.45-40,102.17-92.69,144.45-133.49,362.68-.63,670.8-3.27,1033.48-3.9l133,141.15Z"/><rect class="cls-23" x="291.96" y="776.64" width="1312.16" height="18.18"/><path class="cls-24" d="M401.1,774.09s322-20.78,491.88-40.6c204.25-23.85,402.46-56.6,579.24-91.64,24,27.07,50,54.79,78,82.83q27.25,27.3,53.94,52Z"/><g class="cls-25"><path class="cls-26" d="M428.52,754.68A25.21,25.21,0,0,1,418,741.23a26.78,26.78,0,0,1-1-4.23l-.28-2.16c0-.73,0-1.45,0-2.18a20.09,20.09,0,0,1,2.23-8.35,28.36,28.36,0,0,1,12.31-11.95c2.62-1.27,5.25-2.47,7.88-3.7s5.3-2.36,8-3.41a267.82,267.82,0,0,1,33-11c11.21-3,22.6-5.32,34.05-7.2s23-3.28,34.53-4.42,23.09-2.25,34.66-3.21c23.12-1.91,46.28-3.43,69.45-4.72,46.34-2.58,92.72-4.27,139.07-6.48,2.9-.12,5.79-.3,8.69-.38l8.7-.25,17.4-.5,34.79-1c23.19-.64,46.38-1.44,69.58-1.87,46.4-1,92.81-1.44,139.21-2q34.8-.44,69.6-1l34.8-.69c11.59-.26,23.2-.3,34.8-.4,46.41-.25,92.84.36,139.2,2.7q34.77,1.76,69.45,4.85c11.64.8,22.95,4.17,33.74,8.44a11.88,11.88,0,0,1,8.23,14.06,21.28,21.28,0,0,1-3.37,8.12,22.94,22.94,0,0,1-6.17,6.25l0,0,0,0a13.3,13.3,0,0,0-3.91,2.13,33.38,33.38,0,0,0-3.36,3.07l0,0,0,0A170.43,170.43,0,0,1,1421,721.47l-11.4,5.11a24.84,24.84,0,0,1-5.94,2.1c-2,.45-4.11.74-6.11,1.25l.06,0A303.26,303.26,0,0,1,1358,744.73c-13.52,4.07-27.25,7.37-41,10.32l-5.18,1.09c-1.72.36-3.42.82-5.16,1.16-3.45.74-6.94,1.32-10.43,1.84-7,1-14,1.8-21,2.6-14,1.6-28,3.17-42.07,4.56q-10.51,1.05-21.06,1.94c-7,.53-14.06,1.34-21.13,1.18s-14.11-.57-21.15-.46-14.1.23-21.15.18a609.91,609.91,0,0,1-84.3-6.69h0c-5.32,0-10.56-1.07-15.87-1.08h0a205.22,205.22,0,0,1-20.57-4,207.53,207.53,0,0,0,20.58,4h0c5.32,0,10.56,1,15.87,1h0a609.62,609.62,0,0,0,84.28,6.47c7,0,14.1,0,21.15-.23s14.11.37,21.15.4,14-.68,21.09-1.23,14-1.27,21-2c14-1.41,28-3,42.06-4.61,7-.8,14-1.58,21-2.61,3.48-.51,7-1.1,10.39-1.84,1.73-.34,3.43-.8,5.16-1.16l5.17-1.1c13.79-3,27.5-6.27,41-10.34a303.72,303.72,0,0,0,39.54-14.82h.06c2-.52,4.11-.82,6.13-1.26a24.6,24.6,0,0,0,5.8-2.06l11.4-5.12a172.83,172.83,0,0,0,22-11.63l-.06,0a35.17,35.17,0,0,1,3.42-3.13,13.63,13.63,0,0,1,4.12-2.24l-.08,0a22.22,22.22,0,0,0,6-6.06,20.71,20.71,0,0,0,3.25-7.84,11.17,11.17,0,0,0-7.8-13.26c-10.75-4.24-22-7.57-33.53-8.36q-34.65-3.1-69.42-4.79c-46.34-2.29-92.75-2.86-139.15-2.57-11.6.11-23.2.16-34.8.43l-34.79.7q-34.8.59-69.61,1c-46.4.54-92.8,1-139.2,1.9-23.2.41-46.39,1.19-69.58,1.81l-34.79,1-17.39.49-8.7.25c-2.9.07-5.79.25-8.69.37-46.36,2.16-92.74,3.82-139.07,6.36-23.17,1.27-46.32,2.77-69.44,4.66-11.56,1-23.12,2-34.66,3.13s-23.07,2.44-34.51,4.34-22.83,4.14-34,7.1a270.2,270.2,0,0,0-33,10.88c-2.7,1-5.33,2.26-8,3.38s-5.27,2.43-7.88,3.69A28.32,28.32,0,0,0,419,724.35a20.27,20.27,0,0,0-2.24,8.31c0,.73,0,1.45,0,2.17l.27,2.16a27.9,27.9,0,0,0,1,4.23A25.19,25.19,0,0,0,428.52,754.68Z"/></g><path class="cls-27" d="M842.57,683.25a1601.29,1601.29,0,0,1,198-11.54c51.73.2,100.13,2.9,144.75,7.12"/><g class="cls-25"><path class="cls-26" d="M1465.14,662c6,3.59,11.87,7.51,17.53,11.66A184.55,184.55,0,0,1,1499,687.05a99.82,99.82,0,0,1,14,15.78,51.51,51.51,0,0,1,5.16,9.23,31.15,31.15,0,0,1,2.48,10.29,22.54,22.54,0,0,1-2,10.39,27.72,27.72,0,0,1-6.32,8.51,46.28,46.28,0,0,1-8.54,6.26c-1.51.93-3.1,1.7-4.66,2.52s-3.18,1.52-4.82,2.17a142.87,142.87,0,0,1-20.07,6.52c-6.82,1.72-13.72,3.09-20.65,4.27h-.07l-89.28,2.79-44.64,1.38-44.65,1.22,44.63-1.72,44.64-1.56,89.27-3.08h-.06c6.91-1.14,13.8-2.48,20.59-4.17a142.1,142.1,0,0,0,20-6.4c1.62-.64,3.19-1.41,4.78-2.14s3.13-1.56,4.61-2.47a46,46,0,0,0,8.44-6.13,27.1,27.1,0,0,0,6.2-8.26,22,22,0,0,0,2-10.07,30.39,30.39,0,0,0-2.4-10.08,50,50,0,0,0-5.06-9.14,101,101,0,0,0-13.83-15.76,182.61,182.61,0,0,0-16.1-13.53C1476.92,669.66,1471.13,665.67,1465.14,662Z"/></g><path class="cls-27" d="M640.21,734s52.67,56.7,212.62,28.84"/><polygon class="cls-28" points="-47.43 -7.11 -47.43 70.51 2017.6 77.15 2016.06 -7.11 -47.43 -7.11"/><path class="cls-29" d="M-55.35,353.36v41.57l2030.7-10V353.36Z"/><g class="cls-30"><polygon class="cls-19" points="725.19 176.89 877.39 176.89 878 334.84 725.19 334.84 725.19 176.89"/><polygon class="cls-31" points="731.51 183.04 871.12 183.04 871.68 328.69 731.51 328.69 731.51 183.04"/><ellipse class="cls-32" cx="787.42" cy="232.27" rx="2.11" ry="2.05"/><ellipse class="cls-32" cx="787.42" cy="265.09" rx="2.11" ry="2.05"/><ellipse class="cls-32" cx="814.8" cy="265.09" rx="2.11" ry="2.05"/><ellipse class="cls-32" cx="814.8" cy="232.27" rx="2.11" ry="2.05"/><line class="cls-31" x1="801.6" y1="183.04" x2="801.6" y2="328.69"/><line class="cls-31" x1="815.2" y1="232.5" x2="814.8" y2="265.09"/><line class="cls-31" x1="787.82" y1="232.5" x2="787.42" y2="265.09"/></g><g class="cls-30"><polygon class="cls-19" points="549.22 179.25 701.42 179.25 702.02 337.21 549.22 337.21 549.22 179.25"/><polygon class="cls-31" points="555.54 185.41 695.15 185.41 695.7 331.05 555.54 331.05 555.54 185.41"/><ellipse class="cls-32" cx="611.44" cy="234.64" rx="2.11" ry="2.05"/><ellipse class="cls-32" cx="611.44" cy="267.46" rx="2.11" ry="2.05"/><ellipse class="cls-32" cx="638.83" cy="267.46" rx="2.11" ry="2.05"/><ellipse class="cls-32" cx="638.83" cy="234.64" rx="2.11" ry="2.05"/><line class="cls-31" x1="625.62" y1="185.41" x2="625.62" y2="331.05"/><line class="cls-31" x1="639.23" y1="234.86" x2="638.83" y2="267.46"/><line class="cls-31" x1="611.84" y1="234.86" x2="611.44" y2="267.46"/></g><g class="cls-30"><polygon class="cls-19" points="367.94 179.25 520.14 179.25 520.75 337.21 367.94 337.21 367.94 179.25"/><polygon class="cls-31" points="374.26 185.41 513.87 185.41 514.43 331.05 374.26 331.05 374.26 185.41"/><ellipse class="cls-32" cx="430.17" cy="234.64" rx="2.11" ry="2.05"/><ellipse class="cls-32" cx="430.17" cy="267.46" rx="2.11" ry="2.05"/><ellipse class="cls-32" cx="457.55" cy="267.46" rx="2.11" ry="2.05"/><ellipse class="cls-32" cx="457.55" cy="234.64" rx="2.11" ry="2.05"/><line class="cls-31" x1="444.34" y1="185.41" x2="444.34" y2="331.05"/><line class="cls-31" x1="457.95" y1="234.86" x2="457.55" y2="267.46"/><line class="cls-31" x1="430.56" y1="234.86" x2="430.17" y2="267.46"/></g><g class="cls-30"><polygon class="cls-19" points="181.55 179.25 333.75 179.25 334.35 337.21 181.55 337.21 181.55 179.25"/><polygon class="cls-31" points="187.87 185.41 327.48 185.41 328.04 331.05 187.87 331.05 187.87 185.41"/><ellipse class="cls-32" cx="243.77" cy="234.64" rx="2.11" ry="2.05"/><ellipse class="cls-32" cx="243.77" cy="267.46" rx="2.11" ry="2.05"/><ellipse class="cls-32" cx="271.16" cy="267.46" rx="2.11" ry="2.05"/><ellipse class="cls-32" cx="271.16" cy="234.64" rx="2.11" ry="2.05"/><line class="cls-31" x1="257.95" y1="185.41" x2="257.95" y2="331.05"/><line class="cls-31" x1="271.56" y1="234.86" x2="271.16" y2="267.46"/><line class="cls-31" x1="244.17" y1="234.86" x2="243.77" y2="267.46"/></g><g class="cls-30"><polygon class="cls-33" points="904.92 179.25 1112.07 179.25 1112.89 337.21 904.92 337.21 904.92 179.25"/><polygon class="cls-34" points="913.53 185.41 1103.53 185.41 1104.29 331.05 913.53 331.05 913.53 185.41"/><ellipse class="cls-32" cx="989.61" cy="234.64" rx="2.87" ry="2.05"/><ellipse class="cls-32" cx="989.61" cy="267.46" rx="2.87" ry="2.05"/><ellipse class="cls-32" cx="1026.88" cy="267.46" rx="2.87" ry="2.05"/><ellipse class="cls-32" cx="1026.88" cy="234.64" rx="2.87" ry="2.05"/><line class="cls-34" x1="1008.91" y1="185.41" x2="1008.91" y2="331.05"/><line class="cls-34" x1="1027.42" y1="234.86" x2="1026.88" y2="267.46"/><line class="cls-34" x1="990.15" y1="234.86" x2="989.61" y2="267.46"/></g><g class="cls-30"><polygon class="cls-35" points="1153.07 176.89 1401.47 176.89 1402.46 334.84 1153.07 334.84 1153.07 176.89"/><polygon class="cls-36" points="1163.38 183.04 1391.24 183.04 1392.15 328.69 1163.38 328.69 1163.38 183.04"/><ellipse class="cls-32" cx="1254.62" cy="232.27" rx="3.44" ry="2.05"/><ellipse class="cls-32" cx="1254.62" cy="265.09" rx="3.44" ry="2.05"/><ellipse class="cls-32" cx="1299.32" cy="265.09" rx="3.44" ry="2.05"/><ellipse class="cls-32" cx="1299.32" cy="232.27" rx="3.44" ry="2.05"/><line class="cls-36" x1="1277.77" y1="183.04" x2="1277.77" y2="328.69"/><line class="cls-36" x1="1299.97" y1="232.5" x2="1299.32" y2="265.09"/><line class="cls-36" x1="1255.28" y1="232.5" x2="1254.62" y2="265.09"/></g><g class="cls-30"><polygon class="cls-19" points="1421.32 176.89 1573.52 176.89 1574.12 334.84 1421.32 334.84 1421.32 176.89"/><polygon class="cls-31" points="1427.64 183.04 1567.25 183.04 1567.8 328.69 1427.64 328.69 1427.64 183.04"/><ellipse class="cls-32" cx="1483.54" cy="232.27" rx="2.11" ry="2.05"/><ellipse class="cls-32" cx="1483.54" cy="265.09" rx="2.11" ry="2.05"/><ellipse class="cls-32" cx="1510.93" cy="265.09" rx="2.11" ry="2.05"/><ellipse class="cls-32" cx="1510.93" cy="232.27" rx="2.11" ry="2.05"/><line class="cls-31" x1="1497.72" y1="183.04" x2="1497.72" y2="328.69"/><line class="cls-31" x1="1511.33" y1="232.5" x2="1510.93" y2="265.09"/><line class="cls-31" x1="1483.54" y1="265.09" x2="1483.94" y2="232.5"/></g><g class="cls-30"><polygon class="cls-19" points="1586.42 176.82 1738.62 176.82 1739.22 334.77 1586.42 334.77 1586.42 176.82"/><polygon class="cls-31" points="1592.73 182.97 1732.35 182.97 1732.9 328.62 1592.73 328.62 1592.73 182.97"/><ellipse class="cls-32" cx="1648.64" cy="232.21" rx="2.11" ry="2.05"/><ellipse class="cls-32" cx="1648.64" cy="265.03" rx="2.11" ry="2.05"/><ellipse class="cls-32" cx="1676.02" cy="265.03" rx="2.11" ry="2.05"/><ellipse class="cls-32" cx="1676.02" cy="232.21" rx="2.11" ry="2.05"/><line class="cls-31" x1="1662.82" y1="182.97" x2="1662.82" y2="328.62"/><line class="cls-31" x1="1676.42" y1="232.43" x2="1676.02" y2="265.03"/><line class="cls-31" x1="1648.64" y1="265.03" x2="1649.04" y2="232.43"/></g><polygon class="cls-37" points="98.73 166.47 98.73 342.89 1838 342.89 1837.36 166.47 98.73 166.47"/><polygon class="cls-38" points="1124.04 556.69 1124.04 591.48 1380.87 591.48 1380.87 553.82 1124.04 556.69"/><polygon class="cls-39" points="825.32 554.51 825.32 589.3 1082.15 589.3 1082.15 551.64 825.32 554.51"/><polygon class="cls-40" points="825.32 602.2 825.32 636.99 1082.15 636.99 1082.15 599.33 825.32 602.2"/><polygon class="cls-41" points="525.92 603.4 525.92 638.19 782.75 638.19 782.75 600.53 525.92 603.4"/><polygon class="cls-42" points="525.28 554.51 525.28 589.3 782.12 589.3 782.12 551.64 525.28 554.51"/><path class="cls-43" d="M1509.31,762.49l-452.74,2.1a10.27,10.27,0,0,1-10-8l-20.76-89.54a7.9,7.9,0,0,1,7.74-9.7l460.7,2.17a7.9,7.9,0,0,1,7.75,6.55l15.12,87.11A7.92,7.92,0,0,1,1509.31,762.49Z"/><path class="cls-44" d="M1112.48,251.16q5.4,254.7,10.81,509.41l404.89,1.14-39.57-510.55Z"/><path class="cls-45" d="M1095,652.53q9.46-195.06,19-390.12v1.07c-.3,13.15,2.32,156.51,9.48,501.15"/><path class="cls-46" d="M1129.87,272.5q4.94,217.54,9.86,435.1l369.06,1L1472.73,272.5Z"/><polygon class="cls-47" points="1122.59 722.28 1525.75 722.03 1528.93 762.45 1122.59 764.63 1122.59 722.28"/><path class="cls-48" d="M1122.59,722.28v42.83s-20.33-72.68-28.34-108.61l1.19-13C1103.16,669.53,1122.59,722.28,1122.59,722.28Z"/><path class="cls-49" d="M1158.5,298.74l133.57-1,2.4,102.4-136,1Z"/><polygon class="cls-49" points="1314.93 297.95 1318.65 401.14 1459.99 401.14 1452.3 297.74 1314.93 297.95"/><polygon class="cls-49" points="1320.33 438.44 1325.22 542.69 1472.03 542.69 1462.9 437.7 1320.33 438.44"/><polygon class="cls-49" points="1164.34 439.69 1164.82 512.27 1165.02 544.08 1298.96 542.74 1294.97 438.87 1164.34 439.69"/><polygon class="cls-49" points="1165.78 576.63 1300.44 576.63 1304.74 684.69 1165.78 686.16 1165.78 576.63"/><polygon class="cls-49" points="1327.6 576.63 1331.37 684.39 1482.69 682.81 1473.95 576.63 1327.6 576.63"/><path class="cls-50" d="M1261.3,300.9l.16,82.5,29.81,13.85-1.2-96.35Z"/><path class="cls-50" d="M1408.43,300.9s3.19,57.51,4.19,85.7q10.25,2.08,21,4.65,11.59,2.76,22.44,5.77c-.15-2.55-3.35-54.91-3.51-57.47-.07-1.16-2.29-37.49-2.36-38.65Z"/><path class="cls-50" d="M1260,441.68l1.29,75.61,33.19,19.28-3.1-93.91Z"/><path class="cls-51" d="M1167.42,657.35h92.48l42.32,23.59-134.8,1.28h0Z"/><path class="cls-51" d="M1327.2,518.46l91.41-1,48.67,22.12-138.55-.07Z"/><polygon class="cls-51" points="1167.42 518.97 1261.3 517.83 1297.73 538.41 1167.42 539.56 1167.42 518.97"/><path class="cls-51" d="M1161.09,383.27l97.84-.83,32.34,14.81H1161.09Z"/><path class="cls-50" d="M1417.74,441.68h42.07q4.59,48.9,9.2,97.81l-51.27-22.31Z"/><path class="cls-50" d="M1412.64,579.24l57.54.8q4.62,50.4,9.23,100.8L1413,658.13Z"/><path class="cls-50" d="M1258.5,578.92h38.89l4.83,102-42.48-21.61Z"/><path class="cls-51" d="M1412.51,657.35l-79.75,1.39,1.71,23.47,144.94-1.37Z"/><path class="cls-52" d="M1413.5,382.36l-92.68-1.6q.32,7.69.65,15.39l134.16,2.11Z"/><ellipse class="cls-53" cx="640.97" cy="571.09" rx="8.6" ry="5.54"/><ellipse class="cls-53" cx="941.29" cy="568.68" rx="9.79" ry="6.34"/><ellipse class="cls-53" cx="942.39" cy="619.36" rx="10.16" ry="7.27"/><ellipse class="cls-53" cx="642.58" cy="619.47" rx="8.98" ry="6.98"/><rect class="cls-54" x="357.39" y="790.65" width="1183.83" height="109.35"/><path class="cls-55" d="M945.69,436.51l-3.93-14a4.34,4.34,0,0,0-4.2-3.25h-2.22a4.36,4.36,0,0,0-4.11,2.93l-4.91,13.47a3.08,3.08,0,0,0,1.31,3.64,16.61,16.61,0,0,0,8,2.13,19.28,19.28,0,0,0,8.22-1.31A3.07,3.07,0,0,0,945.69,436.51Zm-14.22,1.17-2.15-.52a.69.69,0,0,1-.52-.86L933,423.44a.73.73,0,0,1,.77-.48.69.69,0,0,1,.65.77l-2,13.38A.74.74,0,0,1,931.47,437.68Zm5.34,2.09-1.95-.07a.75.75,0,0,1-.74-.8l1.4-13.43a.76.76,0,0,1,.81-.65.74.74,0,0,1,.74.7l.55,13.5A.75.75,0,0,1,936.81,439.77Zm5.16-2.23-1.7.22a.75.75,0,0,1-.87-.66l-1.13-13.23a.73.73,0,0,1,.68-.77.75.75,0,0,1,.84.57l2.82,13A.73.73,0,0,1,942,437.54Z"/><path class="cls-56" d="M945.42,436.51l-3.93-14a4.34,4.34,0,0,0-4.21-3.25h-2.21a4.36,4.36,0,0,0-4.11,2.93l-4.91,13.47a3.08,3.08,0,0,0,1.31,3.64,16.61,16.61,0,0,0,8,2.13,19.28,19.28,0,0,0,8.22-1.31A3.07,3.07,0,0,0,945.42,436.51Zm-14.22,1.17-2.15-.52a.69.69,0,0,1-.52-.86l4.15-12.86a.73.73,0,0,1,.76-.48.7.7,0,0,1,.66.77l-2,13.38A.73.73,0,0,1,931.2,437.68Zm5.34,2.09-1.95-.07a.75.75,0,0,1-.74-.8l1.4-13.43a.76.76,0,0,1,.81-.65.74.74,0,0,1,.74.7l.55,13.5A.75.75,0,0,1,936.54,439.77Zm5.15-2.23-1.7.22a.76.76,0,0,1-.87-.66L938,423.87a.73.73,0,0,1,.68-.77.76.76,0,0,1,.84.57l2.82,13A.73.73,0,0,1,941.69,437.54Z"/><path class="cls-57" d="M900.46,376.6c.4.42,69.72-1.33,69.72-1.33l-1.57,18.07-67.13-.79Z"/><path class="cls-58" d="M921.5,392.79s0-6.54,0-6.94c0-2.66-3.52-3.76-3.52-3.76l.2,10.66Z"/><path class="cls-58" d="M941,393s0-6.85,0-7.28c0-2.78-4-3.82-4-3.82l.39,11.06Z"/><path class="cls-59" d="M962.83,385c.4.43,7.35-9.71,7.35-9.71l-1.57,18.07-67.13-.79Z"/><path class="cls-60" d="M900.46,376.6c.4.42,69.72-1.33,69.72-1.33l-65.5,4.6-3.2,12.68Z"/><path class="cls-61" d="M900.46,376.6c.4.42,69.72-1.33,69.72-1.33l-2.7-.81-64.17,1.1Z"/><path class="cls-62" d="M933.55,419.34l-1.39-32.93s-.3-4.65,3.83-4.64,3.58,4.56,3.58,4.56l-1.28,33.14s-.46,1.1-2.43,1C933.73,420.46,933.55,419.34,933.55,419.34Z"/><path class="cls-5" d="M935.87,388.36h0a1.34,1.34,0,0,1-1.34-1.34v-1.45a1.34,1.34,0,0,1,1.34-1.34h0a1.34,1.34,0,0,1,1.34,1.34V387A1.34,1.34,0,0,1,935.87,388.36Z"/><g class="cls-63"><path class="cls-59" d="M938,379.11l-.81,45.9s4.12-1.51,4.17-2.72-.82-42.09-.82-42.09Z"/><polygon class="cls-64" points="933.75 379.11 934.57 424.81 930.96 418.04 930.76 382.84 933.75 379.11"/></g><circle class="cls-65" cx="935.66" cy="385.38" r="1.98" transform="translate(345.62 1207.47) rotate(-76.72)"/><circle class="cls-58" cx="936.67" cy="385.85" r="1.98" transform="translate(345.94 1208.81) rotate(-76.72)"/><circle class="cls-66" cx="935.85" cy="385.57" r="1.98" transform="translate(345.58 1207.81) rotate(-76.72)"/><path class="cls-67" d="M962.83,435.13l-.21-7.81c0-1.52-.6-4.52-1.58-5.6h0a8.71,8.71,0,0,0-6.44-2.92h0a7.48,7.48,0,0,0-6,3.14l-.2.27a6.3,6.3,0,0,0-1.2,3.71v9.54c0,1.93,1.58,3.63,2.9,4.69a.33.33,0,0,0,.53-.22l.65-11.16a.77.77,0,0,1,.59-.68.76.76,0,0,1,.93.7l.79,11.82a.49.49,0,0,0,.51.47l2-.08a.5.5,0,0,0,.48-.5V428.89a.76.76,0,0,1,1.51-.15l1.38,11a.33.33,0,0,0,.52.2C961.32,438.84,962.88,437.08,962.83,435.13Z"/><path class="cls-62" d="M952.52,419.34l-1.38-32.93s-.3-4.65,3.82-4.64,3.58,4.56,3.58,4.56l-1.28,33.14s-.45,1.1-2.42,1C952.7,420.46,952.52,419.34,952.52,419.34Z"/><path class="cls-5" d="M954.85,388.36h0a1.34,1.34,0,0,1-1.34-1.34v-1.45a1.34,1.34,0,0,1,1.34-1.34h0a1.34,1.34,0,0,1,1.34,1.34V387A1.34,1.34,0,0,1,954.85,388.36Z"/><g class="cls-68"><path class="cls-59" d="M957,379.11l-.8,45.9s4.12-1.51,4.16-2.72-.81-42.09-.81-42.09Z"/><polygon class="cls-64" points="952.73 379.11 953.55 424.81 949.94 418.04 949.73 382.84 952.73 379.11"/></g><circle class="cls-65" cx="954.63" cy="385.38" r="1.98" transform="translate(360.23 1225.93) rotate(-76.72)"/><circle class="cls-66" cx="954.83" cy="385.57" r="1.98"/><path class="cls-55" d="M963.11,435.13l-.22-7.81c0-1.52-.6-4.52-1.58-5.6h0a8.71,8.71,0,0,0-6.44-2.92h0a7.5,7.5,0,0,0-6,3.14l-.2.27a6.29,6.29,0,0,0-1.19,3.71v9.54c0,1.93,1.57,3.63,2.89,4.69a.33.33,0,0,0,.53-.22l.65-11.16a.78.78,0,0,1,.59-.68.76.76,0,0,1,.93.7l.79,11.82a.49.49,0,0,0,.51.47l2-.08a.5.5,0,0,0,.48-.5V428.89a.76.76,0,0,1,1.51-.15l1.38,11a.33.33,0,0,0,.53.2C961.59,438.84,963.15,437.08,963.11,435.13Z"/><path class="cls-69" d="M962.83,435.13l-.21-7.81c0-1.52-.6-4.52-1.58-5.6h0a8.71,8.71,0,0,0-6.44-2.92h0a7.48,7.48,0,0,0-6,3.14l-.2.27a6.3,6.3,0,0,0-1.2,3.71v9.54c0,1.93,1.58,3.63,2.9,4.69a.33.33,0,0,0,.53-.22l.65-11.16a.77.77,0,0,1,.59-.68.76.76,0,0,1,.93.7l.79,11.82a.49.49,0,0,0,.51.47l2-.08a.5.5,0,0,0,.48-.5V428.89a.76.76,0,0,1,1.51-.15l1.38,11a.33.33,0,0,0,.52.2C961.32,438.84,962.88,437.08,962.83,435.13Z"/><path class="cls-62" d="M952.52,419.34l-1.38-32.93s-.3-4.65,3.82-4.64,3.58,4.56,3.58,4.56l-1.28,33.14s-.45,1.1-2.42,1C952.7,420.46,952.52,419.34,952.52,419.34Z"/><path class="cls-5" d="M954.85,388.36h0a1.34,1.34,0,0,1-1.34-1.34v-1.45a1.34,1.34,0,0,1,1.34-1.34h0a1.34,1.34,0,0,1,1.34,1.34V387A1.34,1.34,0,0,1,954.85,388.36Z"/><g class="cls-68"><path class="cls-59" d="M957,379.11l-.8,45.9s4.12-1.51,4.16-2.72-.81-42.09-.81-42.09Z"/><polygon class="cls-64" points="952.73 379.11 953.55 424.81 949.94 418.04 949.73 382.84 952.73 379.11"/></g><circle class="cls-65" cx="954.63" cy="385.38" r="1.98" transform="translate(360.23 1225.93) rotate(-76.72)"/><circle class="cls-58" cx="955.65" cy="385.85" r="1.98"/><circle class="cls-66" cx="954.83" cy="385.57" r="1.98"/><path class="cls-2" d="M924.88,430.59c0,4.34-1.28,7.38-3,9.31s-9.35,1.84-11-.07-2.91-4.95-2.91-9.24c0-6.63,2.71-12,8.46-12C922,418.59,924.88,424,924.88,430.59Z"/><g class="cls-70"><ellipse class="cls-71" cx="916.42" cy="441.57" rx="8.28" ry="2.47"/></g><path class="cls-55" d="M925.16,430.59c0,4.34-1.29,7.38-3,9.31s-9.35,1.84-11-.07-2.91-4.95-2.91-9.24c0-6.63,2.71-12,8.47-12C922.25,418.59,925.16,424,925.16,430.59Z"/><path class="cls-72" d="M924.88,430.59c0,4.34-1.28,7.38-3,9.31s-9.35,1.84-11-.07-2.91-4.95-2.91-9.24c0-6.63,2.71-12,8.46-12C922,418.59,924.88,424,924.88,430.59Z"/><path class="cls-55" d="M923.51,431.62a12.83,12.83,0,0,1-2,7.21c-1.4,2.1-9.43,2.17-10.83,0a13.19,13.19,0,0,1-1.92-7.21c0-5.54,2.54-9.6,7.35-9.6C920.79,422,923.51,426.08,923.51,431.62Z"/><path class="cls-73" d="M924.05,432.17a12.85,12.85,0,0,1-2,7.21c-1.39,2.09-9.43,2.16-10.83,0a13.24,13.24,0,0,1-1.92-7.21c0-5.54,2.55-9.6,7.36-9.6C921.33,422.57,924.05,426.63,924.05,432.17Z"/><path class="cls-62" d="M913.94,419.34l-1.39-32.93s-.3-4.65,3.83-4.64,3.58,4.56,3.58,4.56l-1.28,33.14s-.46,1.1-2.43,1C914.12,420.46,913.94,419.34,913.94,419.34Z"/><path class="cls-5" d="M916.26,388.36h0a1.34,1.34,0,0,1-1.34-1.34v-1.45a1.34,1.34,0,0,1,1.34-1.34h0a1.34,1.34,0,0,1,1.34,1.34V387A1.34,1.34,0,0,1,916.26,388.36Z"/><g class="cls-74"><path class="cls-59" d="M918.41,379.11,917.6,425s4.12-1.51,4.17-2.72S921,380.2,921,380.2Z"/><polygon class="cls-64" points="914.14 379.11 914.96 424.81 911.35 418.04 911.15 382.84 914.14 379.11"/></g><circle class="cls-65" cx="916.05" cy="385.38" r="1.98" transform="translate(388.91 1227.87) rotate(-80.78)"/><circle class="cls-58" cx="917.06" cy="385.85" r="1.98" transform="translate(330.84 1189.72) rotate(-76.72)"/><circle class="cls-66" cx="916.24" cy="385.57" r="1.98" transform="translate(330.48 1188.72) rotate(-76.72)"/><path class="cls-75" d="M513.85,510.52a1.11,1.11,0,0,0,.65,2.05c20.08-1,98.65-.17,122.8.11a23.12,23.12,0,0,0,13-3.85l27.41-15.42a.39.39,0,0,0-.2-.73l-140.79,3.19Z"/><path class="cls-76" d="M662.35,429.72l.53,63.53L645.13,503l-.73-67,17.82-6.36A.1.1,0,0,1,662.35,429.72Z"/><rect class="cls-77" x="623.13" y="503.5" width="11.79" height="3.28"/><rect class="cls-77" x="533.86" y="503.89" width="11.79" height="3.28"/><path class="cls-78" d="M524.78,437.65l31.72-7.15a48.13,48.13,0,0,1,10.7-1.18l95.15.26-16.06,7.34-121.47,1.14A.21.21,0,0,1,524.78,437.65Z"/><path class="cls-79" d="M643.41,437l-117.64,1.1a2.86,2.86,0,0,0-2.83,2.93l1.49,60.9a2.86,2.86,0,0,0,2.88,2.78l116.15-1.07a2.86,2.86,0,0,0,2.83-2.86V439.8A2.86,2.86,0,0,0,643.41,437Z"/><polygon class="cls-80" points="526.05 440.8 641.95 440.51 641.95 501.14 527.02 502.74 526.05 440.8"/><path class="cls-81" d="M522.93,440.73a2.62,2.62,0,0,1,2.59-2.68l120.77-1.13L530,444l-5.48,60.68Z"/><polygon class="cls-58" points="637.52 460.97 623.95 460.97 623.74 452.01 638.1 452.01 637.52 460.97"/><polygon class="cls-82" points="637.28 460.73 623.72 460.73 623.5 451.77 637.86 451.77 637.28 460.73"/><path class="cls-83" d="M636.15,460.05H624.88a.41.41,0,0,1-.42-.41l-.18-6.75a.42.42,0,0,1,.43-.43h11.93a.41.41,0,0,1,.42.44l-.48,6.76A.42.42,0,0,1,636.15,460.05Z"/><path class="cls-84" d="M624.88,460.05a.41.41,0,0,1-.42-.41l-.18-6.75a.42.42,0,0,1,.43-.43l11.93.44h0l-5.11.22C631.52,453.34,624.88,460.05,624.88,460.05Z"/><path class="cls-85" d="M636.15,460.05h-10.9l9.07-1.07,2.74-6.08h0l-.48,6.76A.42.42,0,0,1,636.15,460.05Z"/><g class="cls-86"><path d="M626.31,467.07h-.18a1.32,1.32,0,0,1-1.31-1.28v-.67a1.31,1.31,0,0,1,1.3-1.34h.2a1.31,1.31,0,0,1,1.31,1.31v.67A1.31,1.31,0,0,1,626.31,467.07Z"/><path d="M631.05,467.07h-.18a1.3,1.3,0,0,1-1.3-1.28l0-.67a1.31,1.31,0,0,1,1.31-1.34h.19a1.31,1.31,0,0,1,1.31,1.31v.67A1.31,1.31,0,0,1,631.05,467.07Z"/><path d="M635.59,467.07h0a1.3,1.3,0,0,1-1.3-1.28l0-.67a1.31,1.31,0,0,1,1.31-1.34h.07a1.32,1.32,0,0,1,1.31,1.43l-.06.66A1.32,1.32,0,0,1,635.59,467.07Z"/><path d="M626.31,471.89h-.18a1.29,1.29,0,0,1-1.31-1.24V470a1.28,1.28,0,0,1,1.3-1.3h.2a1.29,1.29,0,0,1,1.31,1.27v.65A1.29,1.29,0,0,1,626.31,471.89Z"/><path d="M631,471.88h-.18a1.26,1.26,0,0,1-1.26-1.24l0-.64a1.27,1.27,0,0,1,1.27-1.3H631a1.27,1.27,0,0,1,1.27,1.27v.64A1.27,1.27,0,0,1,631,471.88Z"/><path d="M635.57,471.88h0a1.26,1.26,0,0,1-1.28-1.22l0-.64a1.26,1.26,0,0,1,1.28-1.28h.07a1.26,1.26,0,0,1,1.28,1.36l-.06.64A1.26,1.26,0,0,1,635.57,471.88Z"/><path d="M626.3,476.36h-.17a1.25,1.25,0,0,1-1.24-1.21v-.63a1.23,1.23,0,0,1,1.24-1.27h.18a1.23,1.23,0,0,1,1.24,1.24v.63A1.23,1.23,0,0,1,626.3,476.36Z"/><path d="M631,476.36h-.17a1.22,1.22,0,0,1-1.22-1.21l0-.63a1.23,1.23,0,0,1,1.23-1.27H631a1.23,1.23,0,0,1,1.23,1.24v.63A1.23,1.23,0,0,1,631,476.36Z"/><path d="M635.52,476.36h0a1.21,1.21,0,0,1-1.23-1.18l0-.62a1.21,1.21,0,0,1,1.24-1.23h.07a1.22,1.22,0,0,1,1.24,1.31l-.06.62A1.23,1.23,0,0,1,635.52,476.36Z"/></g><path class="cls-87" d="M626.07,466.83h-.18a1.32,1.32,0,0,1-1.31-1.28v-.67a1.31,1.31,0,0,1,1.3-1.34h.2a1.31,1.31,0,0,1,1.31,1.31v.67A1.31,1.31,0,0,1,626.07,466.83Z"/><path class="cls-87" d="M630.81,466.83h-.18a1.3,1.3,0,0,1-1.3-1.28l0-.67a1.31,1.31,0,0,1,1.31-1.34h.19a1.31,1.31,0,0,1,1.31,1.31v.67A1.31,1.31,0,0,1,630.81,466.83Z"/><path class="cls-87" d="M635.35,466.83h0a1.31,1.31,0,0,1-1.3-1.28l0-.67a1.32,1.32,0,0,1,1.31-1.34h.07a1.31,1.31,0,0,1,1.31,1.43l-.06.66A1.32,1.32,0,0,1,635.35,466.83Z"/><path class="cls-87" d="M626.07,471.65h-.18a1.29,1.29,0,0,1-1.31-1.24v-.65a1.28,1.28,0,0,1,1.3-1.3h.2a1.29,1.29,0,0,1,1.31,1.27v.65A1.29,1.29,0,0,1,626.07,471.65Z"/><path class="cls-87" d="M630.77,471.64h-.18a1.26,1.26,0,0,1-1.26-1.24l0-.64a1.27,1.27,0,0,1,1.27-1.3h.19a1.27,1.27,0,0,1,1.27,1.27v.64A1.27,1.27,0,0,1,630.77,471.64Z"/><path class="cls-87" d="M635.33,471.64h0a1.26,1.26,0,0,1-1.28-1.22l0-.64a1.27,1.27,0,0,1,1.28-1.28h.08a1.26,1.26,0,0,1,1.27,1.36l-.06.64A1.26,1.26,0,0,1,635.33,471.64Z"/><path class="cls-87" d="M626.06,476.12h-.17a1.25,1.25,0,0,1-1.24-1.21v-.63a1.23,1.23,0,0,1,1.24-1.27h.18a1.24,1.24,0,0,1,1.24,1.24v.63A1.23,1.23,0,0,1,626.06,476.12Z"/><path class="cls-87" d="M630.72,476.12h-.17a1.23,1.23,0,0,1-1.22-1.21l0-.63a1.24,1.24,0,0,1,1.23-1.27h.18a1.24,1.24,0,0,1,1.23,1.24v.63A1.23,1.23,0,0,1,630.72,476.12Z"/><path class="cls-87" d="M635.29,476.12h0a1.22,1.22,0,0,1-1.24-1.18l0-.62a1.23,1.23,0,0,1,1.24-1.23h.07a1.23,1.23,0,0,1,1.24,1.31l-.06.62A1.22,1.22,0,0,1,635.29,476.12Z"/><circle class="cls-58" cx="631.44" cy="489.08" r="5.82"/><circle class="cls-88" cx="630.01" cy="487.65" r="5.82"/><circle class="cls-66" cx="630.25" cy="488.02" r="5.61"/><polygon class="cls-66" points="617.24 494.99 611.09 494.99 610.45 449.11 617.56 449.11 617.24 494.99"/><polygon class="cls-89" points="610.45 494.37 611.09 494.99 610.45 449.11 609.28 448.65 610.45 494.37"/><polygon class="cls-89" points="610.45 494.37 611.09 494.99 611.8 502.11 610.96 502.11 610.45 494.37"/><polygon class="cls-90" points="617.24 494.99 611.09 494.99 610.96 502.11 617.44 502.06 617.24 494.99"/><polygon class="cls-91" points="618.06 440.57 611.09 440.59 610.45 449.11 617.56 449.11 618.06 440.57"/><polygon class="cls-89" points="610 440.59 611.09 440.59 610.45 449.11 609.28 448.65 610 440.59"/><polygon class="cls-58" points="619.75 440.57 641.95 440.51 641.95 501.14 641.41 441.3 619.87 441.22 619.75 440.57"/><polygon class="cls-66" points="619.75 440.57 619.75 437.17 615.55 437.21 620.58 437.16 620.58 440.56 619.75 440.57"/><rect class="cls-92" x="536.63" y="452.65" width="68.27" height="37.96" rx="2.25"/><polygon class="cls-83" points="598.79 485.96 540.64 486.37 540.99 456.38 599.45 455.77 598.79 485.96"/><polygon class="cls-84" points="571.65 460.73 540.64 486.37 540.99 456.38 599.45 455.77 571.65 460.73"/><polygon class="cls-84" points="599.45 485.96 543.88 486.35 594.27 482.41 599.42 457.06 599.45 485.96"/><path class="cls-93" d="M1102.51,517.94l-183.94.32a3.22,3.22,0,0,1-2.79-1.64l-9.46-17.08a3.18,3.18,0,0,1,2.75-4.72l171.47-1.46a3.19,3.19,0,0,1,2.06.74l21.94,18.21A3.18,3.18,0,0,1,1102.51,517.94Z"/><polyline class="cls-94" points="914.38 481.26 1070.58 481.38 1098.36 501.71 923.8 501.61"/><polygon class="cls-95" points="1097.94 501.19 1098.79 501.61 923.8 501.61 924.65 501.19 1097.94 501.19"/><polygon class="cls-96" points="923.8 501.61 1098.79 501.61 1097.27 513.95 923.14 513.95 923.8 501.61"/><path class="cls-97" d="M1023.78,505.15c.26,0,.47-.13.47-.29s-.21-.3-.47-.3-.48.13-.48.3.22.29.48.29Z"/><path class="cls-97" d="M1022.29,505.15c.26,0,.47-.13.47-.29s-.21-.3-.47-.3-.48.13-.48.3.22.29.48.29Z"/><path class="cls-97" d="M1032.56,503.33c.26,0,.47-.13.47-.3s-.21-.3-.47-.3-.48.14-.48.3.21.3.48.3Z"/><path class="cls-97" d="M1031.06,503.33c.26,0,.48-.13.48-.3s-.22-.3-.48-.3-.47.14-.47.3.21.3.47.3Z"/><path class="cls-97" d="M1034.05,503.33c.26,0,.47-.13.47-.3s-.21-.3-.47-.3-.48.14-.48.3.22.3.48.3Z"/><path class="cls-95" d="M1075.85,497.56H939.76a1.32,1.32,0,0,1-1.11-.49l-7-11.91c-.29-.48.28-1,1.1-1H1059.7a1.59,1.59,0,0,1,.9.26l16.15,11.91C1077.4,496.81,1076.86,497.56,1075.85,497.56Z"/><path class="cls-97" d="M983.22,505.15c.26,0,.47-.13.47-.29s-.21-.3-.47-.3-.45.13-.45.3.21.29.45.29Z"/><path class="cls-97" d="M981.75,505.15c.24,0,.45-.13.45-.29s-.21-.3-.45-.3-.47.13-.47.3.21.29.47.29Z"/><path class="cls-97" d="M992,503.33c.26,0,.47-.13.47-.3s-.21-.3-.47-.3-.48.14-.48.3.22.3.48.3Z"/><path class="cls-97" d="M990.51,503.33c.26,0,.47-.13.47-.3s-.21-.3-.47-.3-.48.14-.48.3.22.3.48.3Z"/><path class="cls-97" d="M993.51,503.33c.26,0,.45-.13.45-.3s-.19-.3-.45-.3-.47.14-.47.3.21.3.47.3Z"/><rect class="cls-98" x="923.8" y="501.61" width="174.56" height="5.1"/><path class="cls-99" d="M992.84,503a5,5,0,0,1,5.24,4.81c0,2.57-3.77,4.73-6.86,4.73s-5.58-2.08-5.58-4.64,4.11-4.9,7.2-4.9Z"/><path class="cls-100" d="M993.43,512c-3.09,0-5.58-2.07-5.58-4.64s2.49-4.64,5.58-4.64,5.61,2.08,5.61,4.64-2.52,4.64-5.61,4.64Z"/><path class="cls-101" d="M993.43,511.26c-2.57,0-4.66-1.75-4.66-3.89s2.09-3.89,4.66-3.89,4.69,1.75,4.69,3.89-2.09,3.89-4.69,3.89Z"/><path class="cls-95" d="M993.43,510.64c-2.17,0-3.92-1.47-3.92-3.27s1.75-3.26,3.92-3.26,3.93,1.46,3.93,3.26-1.76,3.27-3.93,3.27Z"/><path class="cls-102" d="M990.75,504.74c2.36.34,4.61,3.7,5.77,4.79a.17.17,0,0,1,0,.27l-1.14.75a.24.24,0,0,1-.31,0c-1.21-1.18-4.07-3.69-4.28-5.78Z"/><path class="cls-97" d="M1033.23,503.46c.26,0,.47-.13.47-.29s-.21-.3-.47-.3-.47.13-.47.3.21.29.47.29Z"/><path class="cls-97" d="M1031.74,503.46c.26,0,.47-.13.47-.29s-.21-.3-.47-.3-.47.13-.47.3.21.29.47.29Z"/><path class="cls-97" d="M1034.75,503.46c.26,0,.44-.13.44-.29s-.18-.3-.44-.3-.48.13-.48.3.22.29.48.29Z"/><path class="cls-99" d="M1034.07,503.16a5,5,0,0,1,5.24,4.81c0,2.56-3.76,4.72-6.85,4.72s-5.59-2.07-5.59-4.64,4.11-4.89,7.2-4.89Z"/><path class="cls-100" d="M1034.67,512.15c-3.09,0-5.59-2.08-5.59-4.64s2.5-4.64,5.59-4.64,5.6,2.07,5.6,4.64-2.51,4.64-5.6,4.64Z"/><path class="cls-101" d="M1034.67,511.4c-2.58,0-4.67-1.75-4.67-3.89s2.09-3.9,4.67-3.9,4.68,1.76,4.68,3.9-2.09,3.89-4.68,3.89Z"/><path class="cls-95" d="M1034.67,510.77c-2.17,0-3.93-1.46-3.93-3.26s1.76-3.27,3.93-3.27,3.92,1.47,3.92,3.27-1.75,3.26-3.92,3.26Z"/><path class="cls-102" d="M1032,504.87c2.35.34,4.6,3.71,5.77,4.8a.17.17,0,0,1,0,.27l-1.15.75a.25.25,0,0,1-.31,0c-1.2-1.17-4.07-3.69-4.27-5.78Z"/><polygon class="cls-103" points="923.8 501.61 923.14 513.95 914.01 497.01 914.38 481.26 923.8 501.61"/><path class="cls-102" d="M997,497.61l-47.85-.05a.92.92,0,0,1-.81-.36l-7.22-12.3c-.21-.36.21-.74.82-.74h40.27a4.73,4.73,0,0,1,3.16,1.06l12.35,11.53C998.13,497.12,997.71,497.61,997,497.61Z"/><path class="cls-95" d="M989.54,495.51l-36.86.07a1.12,1.12,0,0,1-1-.41l-5-8.58c-.25-.41.24-.86.95-.86h31.41a3.91,3.91,0,0,1,2.61.87l8.69,7.91C990.83,494.93,990.35,495.51,989.54,495.51Z"/><path class="cls-102" d="M1063.37,497.61h-47.24a3,3,0,0,1-2.06-.71l-12-11.74c-.54-.53.06-1.23,1.06-1.23h44.15a7.16,7.16,0,0,1,4.6,1.49l12.49,10.93C1065,496.87,1064.4,497.61,1063.37,497.61Z"/><path class="cls-95" d="M1056.1,495.29l-36.32.06a4.3,4.3,0,0,1-2.89-1l-8.53-8c-.31-.29,0-.68.57-.69l35.43-.2a5.52,5.52,0,0,1,3.65,1.19l8.66,7.89C1057,494.89,1056.66,495.28,1056.1,495.29Z"/><path class="cls-103" d="M1032.47,493.42c8.42,0,15.3-1.12,15.3-2.49s-6.88-2.49-15.3-2.49-15.31,1.12-15.31,2.49,6.88,2.49,15.31,2.49Z"/><path class="cls-94" d="M1032.47,488.44a63.71,63.71,0,0,0-12.24,1c-3.52,1.13,4.12,3.91,13.62,3.44,10.82-.53,13.67-2,10.71-3.47a64.1,64.1,0,0,0-12.09-1Z"/><path class="cls-104" d="M1032.71,490c-3.67,0-6.64.54-6.64,1.21s2.75,1.05,6.41,1.05,6.85-.38,6.85-1.05-3-1.21-6.62-1.21Z"/><path class="cls-105" d="M1032.58,489.21c-3.13,0-5.81.27-6.75.76a.64.64,0,0,0-.35.48c0,.69,3.18,1.25,7.1,1.25s7.1-.56,7.1-1.25c0-.15-.13-.36-.44-.51a21.3,21.3,0,0,0-6.66-.73Z"/><path class="cls-103" d="M968.59,493.35c8.43,0,15.3-1.12,15.3-2.49s-6.87-2.49-15.3-2.49-15.3,1.12-15.3,2.49,6.87,2.49,15.3,2.49Z"/><path class="cls-94" d="M968.59,488.37a64.63,64.63,0,0,0-12.23,1c-3.53,1.14,4.11,3.92,13.61,3.45,10.82-.53,13.67-2,10.71-3.47a64,64,0,0,0-12.09-1Z"/><path class="cls-104" d="M968.83,489.92c-3.66,0-6.64.55-6.64,1.22s2.75,1.05,6.41,1.05,6.85-.39,6.85-1.05-3-1.22-6.62-1.22Z"/><path class="cls-105" d="M968.7,489.14c-3.13,0-5.8.27-6.75.76a.66.66,0,0,0-.35.48c0,.68,3.18,1.25,7.1,1.25s7.11-.57,7.11-1.25a.65.65,0,0,0-.44-.51,21.38,21.38,0,0,0-6.67-.73Z"/><path class="cls-106" d="M1048.51,489.56c0,.63-1.33,1.21-3.54,1.67-.89.18-1.93.34-3.08.48a84.8,84.8,0,0,1-18,0c-1.14-.14-2.18-.3-3.07-.48-2.21-.46-3.54-1-3.54-1.67,0-1.45,7-2.63,15.62-2.63S1048.51,488.11,1048.51,489.56Z"/><path class="cls-3" d="M1009.65,486.65h0V484l44-.3v2.92c0,2.31-8.4,3.17-19.05,3.17h-8.31C1016.14,489.82,1009.65,488.76,1009.65,486.65Z"/><g class="cls-107"><rect class="cls-108" x="1011.34" y="482.02" width="28.14" height="11.11"/><rect class="cls-109" x="1014.5" y="482.02" width="10.81" height="11.11"/><rect class="cls-58" x="1045.6" y="482.02" width="10.81" height="11.11"/></g><path class="cls-4" d="M1005.24,463.37l3.35,20.39a2.48,2.48,0,0,0,.5,1.11h0c1.22,1.56,5.06,2.67,19.18,2.67h6.45c10.56,0,16.4-.9,18.79-2.24a2.32,2.32,0,0,0,1.21-1.66l3.53-21.14Z"/><g class="cls-110"><path class="cls-59" d="M1051.52,463.33l-5.76,27.48c10.56,0,5.36-4.17,7.75-5.51a2.32,2.32,0,0,0,1.21-1.66l4.36-21.24S1053.38,462.08,1051.52,463.33Z"/></g><path class="cls-111" d="M1038.18,449.58c0-1.37-2.34-2.94-6.44-2.94s-6.43,1.57-6.43,2.94Z"/><path class="cls-112" d="M1038.18,449.58a64.67,64.67,0,0,0-6.63-.29,51.26,51.26,0,0,0-6.24.29Z"/><path class="cls-113" d="M1025.31,449.58a5.6,5.6,0,0,1,2.11,4.36c0,2.16,8.71,1.81,8.71,0a6.52,6.52,0,0,1,2-4.36Z"/><path class="cls-5" d="M1058.25,459.68l-2.2-1.52a23.33,23.33,0,0,0-10.61-4h0c-1.73-.34-3.77-.62-11.87-.67h-4.8c-.57,0-1.13,0-1.67,0-10.66.33-14.33,1.89-20.37,5.51l-1.49.9Z"/><g class="cls-114"><path class="cls-108" d="M1007.46,459.91c17.68-1,40.56-1.2,46.18-6.41,7.27-6.75-41.34-5.84-41.34-5.84s-16.6,10-16.64,10.86S1007.46,459.91,1007.46,459.91Z"/><path class="cls-108" d="M1012.71,471.81c-1.85-2.92-10.7-14.13,24.94-18.25,10.31-1.19-25.35-5.9-25.35-5.9s-16.6,10-16.64,10.86S1012.71,471.81,1012.71,471.81Z"/><ellipse class="cls-109" cx="1023.62" cy="460.41" rx="15.54" ry="5.94"/><path class="cls-59" d="M1023.26,453.5c15.45.06,26.72.5,30.38,9.08s14-9.73,14-10.08-32.09-4.28-32.09-4.28Z"/></g><path class="cls-3" d="M1067.66,463.33h-9.55l-1,5.63h.63a6.38,6.38,0,0,1,3.17-2.81c1.92-.55,6.72-.42,6.72-.42Z"/><path class="cls-3" d="M995.66,463.33h9.56l1,5.63h-.62a6.38,6.38,0,0,0-3.17-2.81c-1.92-.55-6.73-.42-6.73-.42Z"/><rect class="cls-115" x="995.66" y="463.33" width="10.64" height="0.45"/><rect class="cls-115" x="1057.02" y="463.33" width="10.64" height="0.45"/><rect class="cls-4" x="1004.92" y="461.22" width="53.72" height="2.56"/><rect class="cls-108" x="1007.87" y="461.22" width="32.43" height="2.56"/><polygon class="cls-59" points="1058.63 463.78 1051.06 463.78 1051.01 461.22 1058.63 461.22 1058.63 463.78"/><polygon class="cls-59" points="1057.69 465.75 1005.41 464.47 1005.29 463.78 1058.03 463.78 1057.69 465.75"/><polygon class="cls-111" points="1059.08 459.59 1004.66 459.59 1004.73 461.22 1059.02 461.22 1059.08 459.59"/><polygon class="cls-59" points="1059.08 459.59 1052.24 459.59 1052.25 461.22 1059.02 461.22 1059.08 459.59"/><polygon class="cls-109" points="1035.36 459.59 1008.87 459.59 1008.9 461.22 1035.33 461.22 1035.36 459.59"/><polygon class="cls-112" points="1058.25 459.68 1008.41 458.03 1005.77 459.59 1058.25 459.68 1058.25 459.68"/><polygon class="cls-109" points="1024.09 459.59 1014.98 459.59 1014.99 461.22 1024.08 461.22 1024.09 459.59"/><polygon class="cls-3" points="1004.73 461.22 1058.63 461.22 1058.63 461.64 1004.73 461.22"/><g class="cls-116"><path class="cls-4" d="M1007,465.31s3.1,17.73,4.39,18.71,15.59,2.22,20.53,1.84"/><path class="cls-117" d="M1007,465.3c.65,3.27,1.33,6.53,2.07,9.77.36,1.63.74,3.25,1.17,4.85.21.8.44,1.6.69,2.38a11.15,11.15,0,0,0,.44,1.11c0,.09.09.15.13.23s0,.07.12.1a2.69,2.69,0,0,0,.49.18,36.22,36.22,0,0,0,4.86.72l5,.47c3.3.31,6.61.61,9.94.7v.1a55.88,55.88,0,0,1-10,.16c-1.67-.11-3.33-.26-5-.49a35.12,35.12,0,0,1-5-.93,3.07,3.07,0,0,1-.68-.28c-.1,0-.25-.22-.32-.32s-.13-.22-.17-.32a9.94,9.94,0,0,1-.44-1.22c-.24-.81-.45-1.62-.64-2.44-.38-1.63-.71-3.26-1-4.9-.62-3.28-1.18-6.56-1.7-9.85Z"/></g><path class="cls-106" d="M981.26,489.63c0,.63-1.33,1.21-3.54,1.67-.89.18-1.93.34-3.07.48a84.8,84.8,0,0,1-18,0c-1.15-.14-2.19-.3-3.08-.48-2.21-.46-3.54-1-3.54-1.67,0-1.46,7-2.63,15.63-2.63S981.26,488.17,981.26,489.63Z"/><path class="cls-118" d="M976.51,487.49a3.84,3.84,0,0,1-1.3,1.35c-1.19.51-1.54,1.54-5.75,1.56-.8,0-1.67,0-2.61,0h-1.3c-3.17,0-6.06-.26-6.79-1.8a25.27,25.27,0,0,0-1.11-2.85c-.49-.61,1.85.17,1.67,1.2-.12.67.74,1.75,1.62,1.36s-2-2.27-.7-3.5,3.47-.77,2.6-.46.11,2.21,1.53,2.25c1.26,0,2.51-.85,2-3.73,0-.08.1-.1.13-.1a3.8,3.8,0,0,1,2.66,3.08c0,.12,0,.25,0,.39a1.55,1.55,0,0,0,0,.22c.27,2.06,4.43-.5,5.5-.65.51-.07.37.21.16.55h0c-.17.26-.38.55-.36.74s.06.15.2.18a6.55,6.55,0,0,0,2-.35h0C976.82,486.9,976.71,487.16,976.51,487.49Z"/><path class="cls-119" d="M971,488.84c.23-.79.36.74.27.79a3.91,3.91,0,0,1-2,.77,24.17,24.17,0,0,1-6.47-.53,1.39,1.39,0,0,1-.6-.28.59.59,0,0,1-.1-.71c.33-.56.75,0,1.08-.24a3.11,3.11,0,0,0,0-1.18c.09.35,1.62.94,2,1a.57.57,0,0,0,.07-.31,2.55,2.55,0,0,1,.4-1c.23-.31,1-.51.9-.24a1.75,1.75,0,0,0,1,2.29c.4.21,1.09-.18,1.37-.58s1.36-.58,1.57-.68c.7-.33-1.13.75-.74,1.26A.72.72,0,0,0,971,488.84Z"/><path class="cls-119" d="M976.51,487.49l-.08-.13a10.28,10.28,0,0,1-1.31.1,5.06,5.06,0,0,1-1.87-.27c-.18-.1-.19-.2-.16-.3a7.45,7.45,0,0,1-1.71.4,9.63,9.63,0,0,1-2.4,0,2.73,2.73,0,0,1-1.27-.46.78.78,0,0,1-.29-.6,4.57,4.57,0,0,1,0-.74,2.48,2.48,0,0,0-1-2.64c.05-.07.1-.1.13-.1a3.8,3.8,0,0,1,2.66,3.08,1.18,1.18,0,0,0,0,.59l0,0c.27,2.06,4.43-.5,5.5-.65.51-.07.37.21.16.55h0a1,1,0,0,0-.46.64s0,.07.1.1.06.15.2.18a6.55,6.55,0,0,0,2-.35h0C976.82,486.9,976.71,487.16,976.51,487.49Z"/><path class="cls-120" d="M952.5,489.63h0a.5.5,0,0,1-.52-.48v-1.87a.5.5,0,0,1,.52-.48h0a.51.51,0,0,1,.53.48v1.87A.51.51,0,0,1,952.5,489.63Z"/><path class="cls-120" d="M978.77,489.63h0a.51.51,0,0,1-.53-.48v-1.87a.51.51,0,0,1,.53-.48h0a.5.5,0,0,1,.52.48v1.87A.5.5,0,0,1,978.77,489.63Z"/><path class="cls-120" d="M965.81,491.52h0a.51.51,0,0,1-.53-.48v-2.35a.51.51,0,0,1,.53-.48h0a.5.5,0,0,1,.52.48V491A.5.5,0,0,1,965.81,491.52Z"/><path class="cls-120" d="M988.26,469.83l3.1-.8a4,4,0,0,1,.57-.12c.29,0,.44.66.16.93a5.81,5.81,0,0,1-2.57,1.27l-.14,0H985.7a1.44,1.44,0,0,1-1.15-.53v-.31C985.4,470.3,987.53,470.53,988.26,469.83Z"/><path class="cls-106" d="M988.92,468.84h2.81c.43,0,.64.42.36.69a5.61,5.61,0,0,1-2.57,1.27l-.14,0H985.7a1.44,1.44,0,0,1-1.15-.53C986.24,470.11,987.82,469.89,988.92,468.84Z"/><path class="cls-121" d="M989.23,462.36v18.8c0,3.28-2.53,4.88-5.71,5.38l-.39.06q-4.44.69-8.92,1c-.91.07-1.82.13-2.73.17a114.56,114.56,0,0,1-14-.14c-1.36-.09-2.72-.21-4.07-.36-1-.1-2-.19-3.13-.32-3.88-.47-7.9-1.49-7.9-5.81v-18.8Z"/><path class="cls-122" d="M989.23,462.36v18.8c0,3.28-2.53,4.88-5.71,5.38l-.39.06q-4.44.69-8.92,1l.06-.08a26.81,26.81,0,0,0,5-15.52v-9.66Z"/><path class="cls-123" d="M989.32,462.36c0,.69-2,1.32-5.32,1.81-1.34.2-2.89.37-4.62.52-3.82.33-8.49.53-13.53.53s-9.71-.2-13.53-.53c-1.73-.15-3.28-.32-4.62-.52-3.32-.49-5.31-1.12-5.31-1.81,0-1.58,10.5-2.86,23.46-2.86S989.32,460.78,989.32,462.36Z"/><path class="cls-124" d="M965.85,464.64c-4.86,0-9.52-.18-13.47-.52-1.72-.14-3.26-.32-4.58-.52-3.64-.54-4.54-1.07-4.74-1.25.36-.32,2.14-1,6.87-1.52a167.12,167.12,0,0,1,31.84,0c4.73.54,6.51,1.2,6.87,1.52-.2.18-1.1.71-4.74,1.25-1.32.2-2.86.38-4.57.52C975.37,464.46,970.71,464.64,965.85,464.64Z"/><path class="cls-120" d="M943.21,469.83l-4-.8a5.8,5.8,0,0,0-.73-.12.53.53,0,0,0-.2.93,8.51,8.51,0,0,0,3.31,1.27l.18,0h4.74a2.12,2.12,0,0,0,1.49-.53v-.31C946.9,470.3,944.15,470.53,943.21,469.83Z"/><path class="cls-106" d="M942.36,468.84h-3.62c-.55,0-.83.42-.46.69a8.2,8.2,0,0,0,3.31,1.27l.18,0h4.74a2.12,2.12,0,0,0,1.49-.53C945.82,470.11,943.78,469.89,942.36,468.84Z"/><path class="cls-125" d="M952.32,464.69l-2-.19V487c1.09.13,2.16.22,3.13.32,1.35.15,2.71.27,4.07.36V465C955.64,464.94,953.91,464.83,952.32,464.69Z"/><path class="cls-126" d="M702,696.18c-32,0-58,5.61-58,12.52s26,12.53,58,12.53,58-5.61,58-12.53S734.07,696.18,702,696.18ZM699.7,718.8c-25.86,0-46.82-4.52-46.82-10.1s21-10.11,46.82-10.11,46.82,4.53,46.82,10.11S725.56,718.8,699.7,718.8Z"/><rect class="cls-127" x="357.58" y="790.65" width="1183.83" height="27.02"/><polygon class="cls-128" points="1546.61 299.69 1675.77 279.57 1675.77 773.6 1545.61 701.77 1546.61 299.69"/><polygon class="cls-129" points="1675.77 279.57 1760 279.57 1760 771.87 1675.77 773.6 1675.77 279.57"/><polyline class="cls-130" points="1643.37 570.82 1628.02 571.59 1628.02 426.13 1643.37 427.3"/><polyline class="cls-131" points="1578.62 558.76 1563.27 559.44 1563.27 430.46 1578.62 431.5"/><line class="cls-132" x1="1608.51" y1="288.21" x2="1604.12" y2="732.6"/><polygon class="cls-133" points="1618.69 331.16 1662.82 326.28 1662.82 356.49 1618.69 356.49 1618.69 331.16"/><polygon class="cls-134" points="1554.37 335.63 1594.84 331.97 1594.84 354.6 1554.37 354.6 1554.37 335.63"/><polyline class="cls-135" points="1112.47 251.16 1487.93 251.16 1528.18 758.08"/><line class="cls-136" x1="801.38" y1="523.41" x2="801.38" y2="650.37"/><line class="cls-137" x1="310.91" y1="704.34" x2="241.67" y2="900"/><line class="cls-138" x1="1550.04" y1="747.56" x2="1700.85" y2="903.06"/><path class="cls-139" d="M358.62,808.61s713.64.23,799.77,3.36,381.22-5.54,381.22-5.54"/><path class="cls-139" d="M358.62,817s450.37-6.22,578.67,2.34c141.72-.74,518.05-2.34,518.05-2.34l82.43-4.33"/><path class="cls-139" d="M358.62,831.33s307.63-11.68,406.64,0,474.67-1.43,516.48-3.59,257.87-9.06,257.87-5.62"/><path class="cls-139" d="M358.62,890.68S575.33,840.58,904,872.87c334.6,22.47,633.81-6.34,633.81-6.34"/><path class="cls-139" d="M357.39,900.59s178.85-59.91,650-9.91c310.16,14.48,527.91-17.81,527.91-17.81"/><path class="cls-139" d="M410.4,899.6s330.12-33,555.28,0c223.67,19,575.54-13.92,575.54-13.92"/><path class="cls-140" d="M358.62,836.7s144.65-7.62,192.88-4.3C605.22,852.24,481,863,362.32,877c0,0,187.16-13.49,202.8-22.71s72.52-26.71-93.07-26.28C367.41,836.25,358.62,836.7,358.62,836.7Z"/><path class="cls-140" d="M410.4,841.62s81.36-6.68,47.06,5S353.92,861.89,358.62,862s111.14-2.23,119.76-11.16S474.45,828.86,410.4,841.62Z"/><path class="cls-141" d="M1228.66,851.61c-107.11-.18-107.11,9.73,0,9.55C1335.77,861.34,1335.77,851.43,1228.66,851.61Zm0,7.45c-93.55.1-93.55-5.45,0-5.34C1322.21,853.61,1322.21,859.16,1228.66,859.06Z"/><path class="cls-142" d="M1229.05,840.85c-196.37-.55-196.37,30,0,29.4C1425.43,870.8,1425.43,840.3,1229.05,840.85Zm0,22.91c-171.5.34-171.5-16.76,0-16.42C1400.56,847,1400.56,864.1,1229.05,863.76Z"/><path class="cls-143" d="M1537.77,846.36c-49-1.83-98.06-3.43-147.1-4.54s-98.08-2.08-147.13-2.35q-36.78-.15-73.56.06c-24.52.2-49,.58-73.53,1.3s-49,1.84-73.41,3.62c-6.11.46-12.22.88-18.3,1.5l-9.14.86c-3.05.28-6.07.7-9.11,1l-9.1,1.09-9.06,1.36-4.52.68c-1.51.23-3,.56-4.49.84l-9,1.73.81-.39c-.14.13-.28.27-.25.26a.39.39,0,0,0,0-.28,3.41,3.41,0,0,0,.69.68,17.44,17.44,0,0,0,3.66,1.93,70.14,70.14,0,0,0,8.63,2.78c5.94,1.55,12,2.74,18.11,3.8,12.22,2.1,24.55,3.65,36.91,5,24.72,2.6,49.56,4.24,74.42,5.43,49.72,2.36,99.54,2.65,149.33,2.23s99.6-2.14,149.35-4.57q37.32-1.74,74.62-4.09,18.64-1.15,37.28-2.47t37.28-2.66q-18.62,1.7-37.23,3.27t-37.26,2.93q-37.26,2.79-74.58,5c-49.76,2.82-99.57,4.81-149.41,5.69q-18.69.33-37.39.44t-37.39-.13c-24.93-.26-49.86-.87-74.77-2s-49.81-2.71-74.65-5.26c-12.42-1.3-24.82-2.82-37.17-4.91-6.17-1.06-12.33-2.25-18.46-3.83a76.85,76.85,0,0,1-9.14-2.92A20.67,20.67,0,0,1,949.2,857l-.58-.48a8.28,8.28,0,0,1-.58-.6,4.62,4.62,0,0,1-1-1.84,3.61,3.61,0,0,1,.35-2.54,5.16,5.16,0,0,1,1.27-1.48l.34-.3.48-.09,9.1-1.74c1.52-.28,3-.61,4.56-.84l4.57-.67,9.14-1.36L986,844c3.05-.33,6.11-.75,9.17-1l9.18-.84c6.12-.61,12.25-1,18.37-1.47,24.51-1.72,49-2.73,73.58-3.44,49.08-1.29,98.16-1.44,147.23-.79s98.12,1.83,147.16,3.47q36.76,1.29,73.53,2.88T1537.77,846.36Z"/><path class="cls-140" d="M912.6,847.33s-163.42-4.14-38.22,16.44L910.16,866h0s-86.14-11.74-61-13.48S912.6,847.33,912.6,847.33Z"/><path class="cls-140" d="M647.13,838.35s134.49,1,67.76,8.64-84,3.35-75.37,5.49,53.78-9.3,61.59-7.06S647.13,838.35,647.13,838.35Z"/><path class="cls-144" d="M471.39,741.37c-18.38,0-33.28,2.77-33.28,6.19s14.9,6.18,33.28,6.18,33.29-2.77,33.29-6.18S489.78,741.37,471.39,741.37Zm-1.33,11.17c-14.83,0-26.86-2.23-26.86-5s12-5,26.86-5,26.86,2.23,26.86,5S484.89,752.54,470.06,752.54Z"/><path class="cls-145" d="M470.79,739c-31.55,0-57.13,3.85-57.13,8.6s25.58,8.61,57.13,8.61,57.14-3.85,57.14-8.61S502.35,739,470.79,739Zm-2.28,15.55c-25.47,0-46.11-3.11-46.11-7s20.64-6.95,46.11-6.95,46.1,3.11,46.1,6.95S494,754.5,468.51,754.5Z"/><path class="cls-146" d="M1000.3,693.42c-32,0-57.94,5.4-57.94,12.06s25.94,12.07,57.94,12.07,58-5.4,58-12.07S1032.31,693.42,1000.3,693.42ZM998,715.21c-25.82,0-46.75-4.35-46.75-9.73s20.93-9.74,46.75-9.74,46.76,4.36,46.76,9.74S1023.81,715.21,998,715.21Z"/><path class="cls-147" d="M1004.31,700.93c-18.47,0-33.44,3.12-33.44,7s15,7,33.44,7,33.45-3.12,33.45-7S1022.79,700.93,1004.31,700.93ZM1003,713.51c-14.91,0-27-2.51-27-5.62s12.08-5.62,27-5.62,27,2.52,27,5.62S1017.88,713.51,1003,713.51Z"/><rect class="cls-148" x="1173.59" y="542.44" width="120" height="30" rx="4.1"/><rect class="cls-148" x="1342.09" y="542.44" width="120" height="30" rx="4.1"/><rect class="cls-148" x="1174.09" y="684.94" width="120" height="30" rx="4.1"/><rect class="cls-148" x="1354.09" y="684.94" width="120" height="30" rx="4.1"/><rect class="cls-148" x="1330.09" y="403.94" width="120" height="30" rx="4.1"/><rect class="cls-148" x="1165.59" y="403.94" width="120" height="30" rx="4.1"/><rect class="cls-149" x="364.02" y="99.28" width="1154.98" height="66.78"/><line class="cls-150" y1="198.45" x2="1920" y2="198.45"/><ellipse class="cls-151" cx="381.93" cy="185.21" rx="12.64" ry="12.31"/><line class="cls-152" x1="381.93" y1="164.7" x2="381.93" y2="181.11"/><ellipse class="cls-151" cx="1487.87" cy="185.21" rx="12.64" ry="12.31"/><line class="cls-152" x1="1487.87" y1="164.7" x2="1487.87" y2="181.11"/><path class="cls-153" d="M665.9,204.24h161l34.43,15.07V390.6c0,5.82-6.45,10.55-14.41,10.55H651.41c-8,0-14.41-4.73-14.41-10.55V217.06Z"/><path class="cls-154" d="M718.79,196.57s4.06-.58,4.76-1.23,19.35-10.46,41.91-.75c3.49,1.23,2.51,1,2.51,1l3.63.21Z"/><path class="cls-155" d="M717.29,196.52l53.7-.79s2.41.11-.15,7.06l-1.83,7s-1.41,2.89-4.16,3.07-40.61.69-40.61.69a4.32,4.32,0,0,1-4.77-3.21c-1-4.55-2.27-9.5-2.27-9.5S715.38,196.55,717.29,196.52Z"/><rect class="cls-156" width="1920" height="900"/></g></g></svg>