<svg xmlns="http://www.w3.org/2000/svg" viewBox="0 0 256 256"><defs><style>.cls-1{isolation:isolate;}.cls-2{fill:#221f1f;}.cls-2,.cls-7{opacity:0.2;}.cls-3{fill:#f0fbfa;stroke:#7bc6bd;}.cls-3,.cls-4,.cls-5{stroke-miterlimit:10;}.cls-4{fill:#d4b6bd;stroke:#af697c;}.cls-5{fill:#00b0be;stroke:#0d9b97;}.cls-6,.cls-7{fill:#009fc2;}.cls-7{mix-blend-mode:multiply;}</style></defs><g class="cls-1"><g id="Layer_1" data-name="Layer 1"><ellipse class="cls-2" cx="128" cy="201.17" rx="97.59" ry="23.99"/><ellipse class="cls-3" cx="128" cy="87.08" rx="117.5" ry="44.08"/><path class="cls-4" d="M243.05,85.55v.6c0,.5-.05,1-.11,1.5a16.29,16.29,0,0,1-.51,2.46,18.68,18.68,0,0,1-1.78,4.15,24.36,24.36,0,0,1-2.32,3.36,31,31,0,0,1-2.21,2.44c-.21.21-.42.42-.64.62a43.18,43.18,0,0,1-3.53,3,62.21,62.21,0,0,1-5.64,3.82l-.25.16-.26.15c-.59.35-1.19.7-1.81,1l-.94.52c-.49.27-1,.53-1.51.79l-1.29.65-.66.33-.66.31c-1.12.54-2.28,1.06-3.46,1.58l-.28.12-.85.36-.16.07-.38.16h0l-.42.17-.33.14-.66.26c-.24.11-.48.2-.73.3a.76.76,0,0,0-.16.06l-.59.23-.37.14h0l-.86.33h0l-.48.18-.83.3h0l-.66.24c-.36.14-.74.27-1.11.4l-.12,0-1.14.39-1.39.47-.86.28-1,.32-.06,0-1.85.57-.7.21h0l-1,.29c-.66.2-1.34.39-2,.58l-.16,0-.63.18-.42.11-.82.23-.25.06h0l-.34.09h0l-1.4.37-.81.2h0l-2.65.64-1.17.27-.72.17-1.52.34-1.87.4-2.41.5-.18,0-1.5.3c-1.17.23-2.36.45-3.56.66h0c-1.34.24-2.69.47-4.06.68l-.84.14-.31,0h-.07l-.14,0-.18,0-.3,0q-2.67.42-5.42.78l-1.52.2-.27,0-.38.05-1.32.16h0l-2.11.25h0l-1.08.12-1,.11h-.12l-2.18.22-2.48.23-.29,0h-.23l-.26,0-.27,0h-.1l-.81.07-.63,0-.63.06h-.36l-.28,0H148l-.28,0-.51,0-.32,0-.67.05L145,128h0l-.42,0-.82,0-.75,0c-.73.05-1.47.09-2.21.12a4.89,4.89,0,0,1-.54,0l-.54,0-.54,0-.68,0-1.48.07-2.14.07-1.37,0H133c-.35,0-.7,0-1.06,0h0l-.68,0H131l-.72,0H124c-1.34,0-2.67,0-4,0l-3.66-.07c-.71,0-1.43,0-2.14-.06l-1.69-.05-1.12,0-2.56-.12h0l-3.74-.2-1.18-.08h0l-3.23-.22-3.22-.26c-1.61-.14-3.2-.29-4.78-.46-.47-.05-.94-.09-1.4-.15l-1.67-.19h0c-.5,0-1-.11-1.51-.18l-1.36-.16-.14,0-.57-.07L83.13,126l-.49-.08c-.3,0-.61-.08-.91-.13l-1.24-.18-.4-.06-1.9-.3-3.61-.61-.9-.16-.9-.16-1.08-.2-1.45-.28-1.75-.35-1.6-.34c-1.36-.29-2.71-.59-4-.9l-.29-.07-1.38-.33c-.85-.21-1.7-.42-2.53-.64l-.42-.11-.93-.24-1.54-.43-.25-.07h0l-.59-.16-.21-.07-.31-.08-.57-.17q-2.07-.6-4-1.23l-1.23-.4c-3.44-1.14-6.69-2.36-9.71-3.64h0c-1.31-.56-2.57-1.13-3.79-1.71-.14-.08-.28-.14-.43-.21q-3.28-1.59-6.14-3.3c-1.17-.71-2.3-1.43-3.35-2.17-.69-.48-1.35-1-2-1.45l-.14-.11c-.55-.43-1.07-.86-1.58-1.29-.83-.71-1.6-1.43-2.32-2.16-.15-.16-.32-.32-.46-.48s0,0,0,0c-.26-.29-.53-.57-.77-.85a26.39,26.39,0,0,1-2.12-2.76l-.23-.36a17.69,17.69,0,0,1-2.69-6.9,14.86,14.86,0,0,1-.17-2.1,15.88,15.88,0,0,1,.69-4.82s0,0,0,0c.09-.3.19-.59.3-.88l0-.11c.1-.26.21-.53.32-.78A.25.25,0,0,0,14,82l.07-.14c.1-.21.2-.43.31-.65a3.13,3.13,0,0,1,.15-.32c.08-.16.16-.31.23-.46l.17-.31S15,80.05,15,80c.18-.31.37-.64.58-.95.05-.09.11-.16.15-.24a.35.35,0,0,0,.05-.08l.55-.79c.06-.07.1-.15.16-.22.26-.34.51-.69.79-1a1.24,1.24,0,0,1,.14-.18c.24-.29.48-.58.74-.86l0,0a.64.64,0,0,1,.1-.13,1.31,1.31,0,0,0,.11-.12c.09-.09.17-.19.27-.28a.13.13,0,0,1,.05-.06l.43-.45.14-.14a.76.76,0,0,1,.09-.09c.17-.19.37-.37.55-.56l.11-.1q.57-.56,1.2-1.11l.53-.46L22,72l.5-.42,0,0,.06,0,.46-.38.52-.4.12-.1.19-.15.22-.17,0,0,.14-.1,1.43-1A1.5,1.5,0,0,0,25.9,69c.52-.36,1.06-.73,1.62-1.09l.3-.18.35-.23,0,0,0,0,.15-.09.08-.06.9-.55.26-.15c.08-.06.17-.1.25-.15s.32-.2.49-.29l.9-.52.53-.29c.55-.31,1.11-.61,1.67-.91l.13-.06h0c.15-.09.31-.16.47-.25s.28-.14.43-.22l.37-.18.36-.18.54-.28.22-.1.32-.16,1.25-.59.35-.16.38-.17a.88.88,0,0,1,.22-.1l.32-.15.33-.15.68-.3.23-.1h0l.18-.08h0l.25-.11.27-.12.24-.1a.05.05,0,0,0,0,0l.52-.21h0l.3-.13.77-.32,0,0,.33-.14,1.08-.43.76-.29.77-.29.66-.25.75-.28L48.45,58l.61-.23.63-.22h0L51,57.09l.19-.07.47-.16.43-.13.06,0,.12,0,.53-.18.35-.11.68-.21.38-.11h0l.23-.08h0l.21-.07.16,0,1.08-.33.45-.13,1.77-.52.69-.19,1.88-.52.06,0a1.8,1.8,0,0,1,.22-.06h0l.08,0,.65-.17,1.54-.4.07,0,.42-.1.21-.06h0l1.84-.46.58-.14,1.86-.44.38-.09.13,0,.45-.1.07,0,.61-.13.46-.11.89-.19.06,0,.11,0,.48-.1a1,1,0,0,1,.17,0l1-.21h0L74.32,51h0l.31-.06,2.23-.43.64-.12.76-.14,1-.19.39-.07c.13,0,.24,0,.37-.06l.12,0,1-.16,1.44-.24.2,0,.51-.09,2.2-.35c.21,0,.43,0,.64-.09l2.69-.41H89l.65-.09.38-.05,1.56-.21.69-.1.52-.06,1.88-.23a2.63,2.63,0,0,0,.39-.06l1.87-.2.91-.11.54,0h.09l.48,0h.17l1.24-.13.23,0,.17,0,.67-.06c.93-.1,1.89-.19,2.84-.26l.39,0,2.49-.2.76-.06,2.63-.18.28,0,2.9-.18h.19l.58,0c.78-.05,1.56-.08,2.35-.12l.46,0h.22l1.16,0,1.77-.07h.19l.42,0,1.25,0,1.17,0,.8,0h0l3-.06,2.6,0h3.56l1.6,0c.33,0,.67,0,1,0h1.67l.89,0,1.07,0h.46a.74.74,0,0,1,.15,0c.29,0,.57,0,.85,0l.78,0h.38l1.07,0a2.62,2.62,0,0,1,.28,0c.18,0,.37,0,.55,0h.19l1.76.08h.28l.42,0,.75,0,.19,0h0l.4,0,.44,0h.17l.39,0h.3l1.3.08.32,0h.44c.15,0,.31,0,.46,0h.16l.21,0,1.22.09.57,0,.3,0,.47,0h0l1.19.09h0l.71.06.61,0h0c.49,0,1,.08,1.46.12l.31,0,1.55.14.87.09.46,0,.25,0,.29,0h.24l1.11.11.74.08,1.6.18.82.1.44,0,1.1.14.78.1,1.59.2h0l.23,0,.44.06,1.93.27.32,0,1.78.26.53.09.19,0A2.92,2.92,0,0,0,177,49h0l.72.11.89.15.6.11.85.14h0l.32,0,.41.07.71.13L183,50l.7.14c.5.09,1,.18,1.5.29l.63.12h.07l.08,0H186l.24,0,.16,0,1,.2h0l.11,0,.39.08,2.56.56,1.59.35.51.12,1.5.36.25.06.18,0,.07,0h0l.08,0,0,0,1.31.32.65.16,1.15.3.05,0,.13,0h0l.58.15.25.07.3.09c.31.07.61.16.91.24l.43.13.46.13.08,0,1.24.35.2.06,1.75.53.45.13,1.34.43.59.19,1.06.35.12,0,.6.2,1.16.41.3.1.27.09,1.22.45.46.17c1.11.4,2.2.83,3.26,1.26l.38.16c.4.17.8.32,1.18.49.17.07.35.14.51.22l.11,0,.12,0,0,0,.75.32.54.24.35.17.62.27a4.9,4.9,0,0,0,.52.24l.23.11.77.38.43.2,1.23.63.16.07c.46.25.92.48,1.37.73l.26.14.65.36.4.22.39.23.18.11.7.4.41.25c.28.16.55.33.82.51l.41.25c.28.19.56.36.84.54.11.07.21.15.33.22l.39.27.59.41.13.08,1.12.82s0,0,0,0l1,.76.24.19.76.62a2.75,2.75,0,0,0,.26.22l.7.61.23.22.42.38.3.28a.81.81,0,0,0,.16.16c.24.23.47.46.69.7l.23.23.41.45.38.42.4.48.41.48.09.12.26.34.39.52c.12.15.22.3.32.45s.25.36.37.54.19.29.28.43.23.38.33.57l.24.42c.11.2.21.4.31.6l.21.41.15.33.07.16a.08.08,0,0,1,0,0,.45.45,0,0,1,.06.12c.05.12.11.25.16.35a.89.89,0,0,0,.08.17v0c.1.27.2.54.29.82a15.51,15.51,0,0,1,.76,3.6c0,.27.05.54.06.82v.1A2.62,2.62,0,0,1,243.05,85.55Z"/><path class="cls-5" d="M172.36,202.74c-4.87,5.38-21.91,9.74-40.84,10.22l-1.28,0a118.63,118.63,0,0,1-19-1.26c-10.7-1.6-19.34-3.35-23.93-6.5a13.93,13.93,0,0,1-1.66-1.31c-4.7-4.35,1.24-11.45,5-11.5l76.31-1c2.32,0,5.42,2.47,6.47,5.5A5.6,5.6,0,0,1,172.36,202.74Z"/><path class="cls-3" d="M245.16,87.67c.08-.73-12.27,36.37-108,39.28C20,130.5,10.48,90.16,10.58,90.88c-.07,1.88-.1,3.77-.07,5.67,0,1.49.08,3,.16,4.46.18,3.33.52,6.62,1,9.87a106.2,106.2,0,0,0,7.51,26.41,1.67,1.67,0,0,0,.08.2,108.42,108.42,0,0,0,5,10,112,112,0,0,0,18.71,24.62c.85.84,1.71,1.68,2.59,2.49q1.92,1.8,3.93,3.51l.11.1c1.74,1.48,3.52,2.92,5.35,4.29a117.72,117.72,0,0,0,15.77,10q3,1.6,6.17,3.05c.92.43,1.86.84,2.8,1.24,2.47,1.06,5,2,7.52,2.93a120.92,120.92,0,0,0,12.9,3.73,122.89,122.89,0,0,0,24.76,3.1l2.28,0h2.18l1.3,0,1,0h0l2.28-.1a121.88,121.88,0,0,0,36.84-7.56q4.23-1.58,8.28-3.45c26.9-12.41,48-34.28,58.71-61a106.55,106.55,0,0,0,6.86-26.79c.4-3.27.64-6.59.73-9.93,0-1.47.06-3,0-4.44C245.35,91.43,245.28,89.55,245.16,87.67Z"/><path class="cls-6" d="M244.36,108.17c-4,7.49-14.79,15.5-30,22.08s-33.41,11.29-53.12,13.91a275.43,275.43,0,0,1-32.56,2.35c-31.95.44-62.53-4.5-86.08-13.9-15.74-6.29-26.84-14.21-30.89-21.73a106.45,106.45,0,0,0,7.59,26.61,107.48,107.48,0,0,0,10.08,5.37q3.71,1.75,7.79,3.39,3.21,1.27,6.57,2.45c24.26,8.5,54.17,12.91,85.14,12.49,9.06-.13,18-.66,26.77-1.59,23.9-2.52,46.2-8,64.51-15.86a121.59,121.59,0,0,0,17.38-9.09l.25-.16a106.41,106.41,0,0,0,6.86-26.8C244.53,107.85,244.45,108,244.36,108.17Z"/><path class="cls-6" d="M235.12,140.55c-.27.31-.56.61-.86.92a49.42,49.42,0,0,1-9.35,7.22l-.11.07-.38.23-1.75,1-.91.5c-.48.27-1,.52-1.46.78s-.82.43-1.25.64l-.05,0-.6.3-.63.31c-1.07.52-2.2,1-3.35,1.54l-1,.44-.24.1-1.1.47-.61.25,0,0-.67.27-.18.07-.65.26h-.4l-.22.24-.48.18-.51.2-.55.2h-.11l-.25.13-.58.22-1.08.39-.11,0c-.36.12-.73.26-1.12.38l-1.28.44-.09,0-.54.18-.61.2-.64.2-.09,0-1.3.41-.49.16c-1.21.37-2.43.73-3.63,1.07l-.76.21-1.5.41-.32.09h-.06c-.37.11-.75.2-1.12.3l-.23.06c-1.51.39-3,.77-4.54,1.11q-1.09.27-2.19.51c-1.36.3-2.73.59-4.19.89l-1.64.33c-2.73.53-5.53,1-8.35,1.48l-1,.15c-1.88.29-3.62.54-5.3.77l-1.76.23c-1.23.16-2.48.31-3.74.45l-.29,0h0l-1.83.2c-1.5.16-3,.31-4.58.45l-.32,0h-.43l-.17,0-.17,0h-.12l-1.38.11-.56.05h-.13l-.27,0h-.68l-.47,0h-.35l-.55,0h-.09c-1.93.13-3.93.25-5.9.35l-.58,0-.47,0h-.06l-.63,0c-1.16.06-2.32.1-3.48.14h-.42l-1,0h-.51l-1,0h-.08l-.64,0h-.26l-.71,0h-.54l-.92,0h-.35l-2.78,0H125c-1.39,0-2.67,0-3.91,0-3.67,0-7.37-.15-11-.33H110c-7.37-.37-14.63-1-21.57-1.9h-.16c-2.26-.29-4.33-.58-6.33-.9-5.94-.91-11.7-2-17.13-3.34-1.37-.33-2.63-.64-3.83-1l-.39-.11-1-.26c-.48-.14-1-.26-1.42-.4l-.08,0-.09,0-.14,0-.49-.13-.06,0-1-.29-.07,0A118.83,118.83,0,0,1,38,153.9l-.41-.2c-2.07-1-4.06-2.1-5.92-3.22a50.78,50.78,0,0,1-6.74-4.86c-.78-.68-1.51-1.38-2.18-2.06l-.12-.13a3.58,3.58,0,0,1-.27-.29l-.05,0c-.25-.27-.5-.55-.73-.82l-.31-.36c.93,1.91,1.9,3.77,2.94,5.62.58,1,1.19,2.08,1.81,3.11Q27.88,152,30,153.27c1.95,1.19,4,2.32,6.16,3.36l.45.23a124,124,0,0,0,18.76,7.08l.07,0,1,.29,0,0,.55.15.29.08,1.42.4,1,.26a3.74,3.74,0,0,0,.45.12c1.22.32,2.49.65,3.89,1,5.51,1.33,11.37,2.47,17.39,3.4,2,.31,4.11.61,6.4.9h.08l.07,0c7.05.9,14.42,1.55,21.9,1.92H110c3.64.17,7.36.29,11,.34l3.92,0h1.62l2.77,0h.38l.93,0h.5l.71,0h.3l.64,0h0l1,0h.44l1,0h.42c1.18,0,2.36-.08,3.5-.14l.7,0,.51,0,.54,0c2-.1,4-.22,6-.36h.08l.58,0,.33,0,.5,0,.31,0h.26l.19,0h.07l.2,0,.65,0,1.4-.12h.38l.25,0h0l.28,0h.21c1.56-.14,3.13-.29,4.66-.46l2.06-.22h.32l.07,0c1.17-.13,2.33-.28,3.49-.42l1.77-.24c1.71-.22,3.47-.48,5.35-.77l.6-.1h0l.39-.07c2.83-.44,5.68-.95,8.45-1.49l1.65-.33,4.26-.9,2.23-.52c1.52-.35,3.08-.73,4.61-1.14l.22-.05,1.17-.31.38-.1,1.53-.42.76-.22c1.22-.34,2.46-.71,3.7-1.09l.5-.15,1.29-.41.14-.05.64-.2.61-.2.58-.19.08,0,1.3-.44,1.15-.4.11,0,1.1-.4.57-.2.13-.05.83-.31.48-.18.13-.05.43-.17.46,0,.22-.24.61-.24.17-.07.72-.29.65-.27,1.12-.47.22-.09,0,0,1-.45c1.19-.53,2.36-1.06,3.46-1.6.23-.11.45-.21.65-.32l.63-.31,0,0c.44-.22.88-.44,1.3-.67l1.51-.8,1-.53c.61-.34,1.22-.7,1.81-1.06l.43-.26.1-.06c1.52-.93,2.95-1.89,4.28-2.86l0,0q2.29-4,4.25-8.1A.12.12,0,0,1,235.12,140.55Z"/><path class="cls-7" d="M79.62,196.84a122.32,122.32,0,0,0,49.9,9.8c49.64-.68,91.69-30.56,108.34-72.19a106.25,106.25,0,0,0,6.86-26.82c.4-3.27.65-6.56.74-9.9,0-1.48,0-3,0-4.47,0-1.9-.1-3.78-.22-5.66a21.22,21.22,0,0,1-4.86,10.72,36.52,36.52,0,0,1-3.54,3.81c-12.8,12-39,21.57-71.7,26-2.29,12.79-7.93,35.2-20.67,49.74C131.2,193.08,108.56,198.59,79.62,196.84Z"/></g></g></svg>