<svg xmlns="http://www.w3.org/2000/svg" viewBox="0 0 256 256"><defs><style>.cls-1{isolation:isolate;}.cls-2{fill:#221f1f;}.cls-2,.cls-62{opacity:0.2;}.cls-3{fill:#f0fbfa;stroke:#7bc6bd;}.cls-14,.cls-23,.cls-3,.cls-4,.cls-60{stroke-miterlimit:10;}.cls-4{fill:#d4b6bd;stroke:#af697c;}.cls-5{fill:#ffb51c;}.cls-6{fill:#ffa418;}.cls-7{fill:#ffb747;}.cls-8{fill:#ffe706;}.cls-9{fill:#fffddd;}.cls-10{fill:#f7df00;}.cls-11{fill:#ffde05;}.cls-12{fill:#fff778;}.cls-13{fill:#fcd200;}.cls-14{fill:#b1bd00;stroke:#87a80e;}.cls-15{fill:#c8d600;}.cls-16{fill:#d8e628;}.cls-17{fill:#96a100;}.cls-18{fill:#d9d900;}.cls-19{fill:#535900;}.cls-20{fill:#1b1f01;}.cls-21{fill:#46267d;}.cls-22{fill:#53338f;}.cls-23{fill:#de0600;stroke:#aa2121;stroke-width:0.75px;}.cls-24{fill:#fb0600;}.cls-25{fill:#fff;}.cls-26{fill:#fbf0b2;}.cls-27{fill:#e2ca64;}.cls-28{fill:#fd424d;}.cls-29{fill:#df0000;}.cls-30{fill:#ff5767;}.cls-31{fill:#df7900;}.cls-32{fill:#f8c724;}.cls-33{fill:#f8b600;}.cls-34{fill:#aec300;}.cls-35{fill:#dd2;}.cls-36{fill:#4b2452;}.cls-37{fill:#623869;}.cls-38{fill:#83498f;}.cls-39{fill:#dd7bc7;}.cls-40{fill:#5bae00;}.cls-41{fill:#559303;}.cls-42{fill:#d1f987;}.cls-43{fill:#cc0a00;}.cls-44{fill:#b70000;}.cls-45{fill:#bc0000;}.cls-46,.cls-54{fill:#f85b29;}.cls-47{fill:#c9241c;}.cls-48{fill:#a30707;}.cls-49{fill:#f2b12f;}.cls-50{fill:#ffde55;}.cls-51{fill:#fff2bb;}.cls-52{fill:#dc1b00;}.cls-53{fill:#ef1600;}.cls-54,.cls-55,.cls-56,.cls-57,.cls-59{opacity:0.5;}.cls-55{fill:#ff6131;}.cls-56{fill:#fe955d;}.cls-57{mix-blend-mode:soft-light;}.cls-58{fill:#ba0000;}.cls-59{fill:#ffd5c2;mix-blend-mode:color-dodge;}.cls-60{fill:#00b0be;stroke:#0d9b97;}.cls-61,.cls-62{fill:#009fc2;}.cls-62{mix-blend-mode:multiply;}</style></defs><g class="cls-1"><g id="Layer_1" data-name="Layer 1"><ellipse class="cls-2" cx="128" cy="195.15" rx="97.59" ry="24.01"/><ellipse class="cls-3" cx="128" cy="80.95" rx="117.5" ry="44.12"/><path class="cls-4" d="M243.05,79.43V80c0,.5-.05,1-.11,1.5a16.29,16.29,0,0,1-.51,2.46,18.68,18.68,0,0,1-1.78,4.15,25.06,25.06,0,0,1-2.32,3.37A32.92,32.92,0,0,1,236.12,94l-.64.62a43.18,43.18,0,0,1-3.53,3,62.24,62.24,0,0,1-5.64,3.83l-.25.15-.26.15c-.59.36-1.19.71-1.81,1l-.94.51c-.49.27-1,.54-1.51.8l-1.29.65-.66.33-.66.31c-1.12.54-2.28,1.06-3.46,1.58l-.28.12-.85.36-.16.07-.38.16h0l-.42.17-.33.14-.66.27-.73.29-.16.06-.59.23-.37.14h0l-.86.33h0l-.48.18-.83.31h0l-.66.24-1.11.4-.12,0c-.37.14-.75.27-1.14.4l-1.39.46-.86.28-1,.32-.06,0-1.85.57-.7.21h0l-1,.29c-.66.2-1.34.39-2,.57a1,1,0,0,1-.16,0l-.63.18-.42.11-.82.22-.25.07h0l-.34.09h0c-.46.13-.93.25-1.4.36-.27.08-.54.14-.81.21h0c-.87.22-1.75.44-2.65.65l-1.17.27-.72.17-1.52.34-1.87.4-2.41.5-.18,0-1.5.3c-1.17.23-2.36.45-3.56.66h0c-1.34.24-2.69.47-4.06.69l-.84.13-.31.05h-.07l-.14,0-.18,0-.3,0q-2.67.4-5.42.77l-1.52.2-.27,0-.38,0-1.32.16h0l-2.11.25h0l-1.08.11-1,.11h-.12l-2.18.23-2.48.23a2.58,2.58,0,0,0-.29,0h-.23l-.26,0-.27,0h-.1c-.27,0-.54.05-.81.06l-.63.06-.63,0h-.12l-.24,0-.28,0H148l-.28,0-.51,0-.32,0-.67,0c-.43,0-.86.07-1.3.09h0l-.42,0-.82.05-.75,0-2.21.12-.54,0-.54,0-.54,0-.68,0-1.48.06-2.14.08-1.37,0h0a.75.75,0,0,1-.15,0H133l-1.06,0h-1.72l-.54,0h-4.13a2.09,2.09,0,0,1-.25,0H124c-1.34,0-2.67,0-4,0s-2.45,0-3.66-.06l-2.14-.06c-.57,0-1.13,0-1.69-.06l-1.12,0-2.56-.11h0c-1.25-.06-2.5-.13-3.74-.21l-1.18-.07h0l-3.23-.23c-1.08-.08-2.15-.16-3.22-.26-1.61-.14-3.2-.29-4.78-.46l-1.4-.14-1.67-.19h0l-1.51-.18-1.36-.17h-.14l-.57-.08-2.86-.38-.49-.07-.91-.13-1.24-.19-.4-.06-1.9-.3c-1.22-.19-2.42-.4-3.61-.6l-.9-.17-.9-.16L71.7,118l-1.45-.28-1.75-.35L66.9,117c-1.36-.29-2.71-.59-4-.9l-.29-.07-1.38-.33c-.85-.21-1.7-.42-2.53-.64l-.42-.11-.93-.24-1.54-.43-.25-.07h0c-.2,0-.39-.1-.59-.16L54.7,114l-.31-.08-.57-.17c-1.38-.4-2.73-.81-4-1.24l-1.23-.4c-3.44-1.14-6.69-2.36-9.71-3.64h0c-1.31-.56-2.57-1.13-3.79-1.71-.14-.08-.28-.14-.43-.21q-3.28-1.59-6.14-3.3c-1.17-.71-2.3-1.44-3.35-2.18-.69-.47-1.35-1-2-1.45L23,99.52c-.55-.43-1.07-.86-1.58-1.29-.83-.71-1.6-1.43-2.32-2.16-.15-.16-.32-.32-.46-.49h0c-.26-.29-.53-.57-.77-.85A25.48,25.48,0,0,1,15.72,92l-.23-.36a17.63,17.63,0,0,1-2.69-6.9,14.86,14.86,0,0,1-.17-2.1,15.94,15.94,0,0,1,.69-4.83s0,0,0,0c.09-.3.19-.59.3-.88l0-.11c.1-.26.21-.53.32-.79a.14.14,0,0,0,0-.06,1,1,0,0,0,.07-.15l.31-.64a3.13,3.13,0,0,1,.15-.32l.23-.46.17-.31.09-.14c.18-.32.37-.64.58-1a1.94,1.94,0,0,0,.15-.24l.05-.07c.18-.27.36-.53.55-.79.06-.07.1-.15.16-.23.26-.34.51-.69.79-1l.14-.18c.24-.29.48-.57.74-.86l0,0,.1-.12.11-.13.27-.28.05-.06.43-.45.14-.14a.76.76,0,0,1,.09-.09c.17-.19.37-.37.55-.56l.11-.1q.57-.55,1.2-1.11l.53-.46.16-.13.5-.42,0,0,.06-.05L23,65l.52-.39.12-.1.19-.15.22-.17,0,0,.14-.1L25.67,63c.08,0,.15-.1.23-.15.52-.37,1.06-.73,1.62-1.09a1.83,1.83,0,0,1,.3-.18c.11-.09.23-.16.35-.24h0l0,0,.15-.1.08,0,.9-.55.26-.15a1.65,1.65,0,0,1,.25-.15c.16-.1.32-.2.49-.29s.6-.35.9-.52l.53-.3c.55-.3,1.11-.61,1.67-.9l.13-.07h0c.15-.09.31-.15.47-.24l.43-.22.37-.19.36-.18.54-.28L36,57l.32-.16,1.25-.59.35-.16.38-.17a.88.88,0,0,1,.22-.1l.32-.15.33-.16.68-.29.23-.1h0l.18-.08h0l.25-.11.27-.12.24-.1,0,0,.52-.21h0l.3-.13.77-.32,0,0,.33-.14,1.08-.43.76-.29.77-.3.66-.24.75-.28,1.37-.5.61-.22c.22-.07.41-.15.63-.23h0L51,50.93l.19-.06.47-.16.43-.14.06,0,.12,0a4.72,4.72,0,0,1,.53-.18l.35-.12.68-.21.38-.11h0l.23-.08h0l.21-.06.16-.06,1.08-.33.45-.13c.58-.18,1.17-.34,1.77-.51l.69-.2L60.69,48l.06,0,.22-.06h0l.08,0,.65-.18,1.54-.4.07,0,.42-.1.21-.05h0l1.84-.47.58-.14,1.86-.44.38-.09.13,0,.45-.1.07,0,.61-.13.46-.11.89-.19.06,0,.11,0,.48-.1.17,0,1-.2h0l1.31-.27h0l.31-.06,2.23-.43c.21,0,.42-.08.64-.12L78.3,44l1-.18.39-.07.37-.06.12,0,1-.16q.72-.14,1.44-.24l.2,0,.51-.08,2.2-.35.64-.1,2.69-.4H89l.65-.09.38-.06,1.56-.2.69-.1.52-.07,1.88-.22.39-.06,1.87-.21.91-.1.54-.06h.09l.48-.05h.17l1.24-.13.23,0,.17,0,.67-.06,2.84-.26.39,0,2.49-.21.76,0,2.63-.19.28,0,2.9-.17h.19l.58,0,2.35-.12.46,0h.22l1.16-.06,1.77-.07h.19l.42,0,1.25,0,1.17,0h.83l3-.06,2.6,0h3.56l1.6,0h2.68l.89,0h1.68l.85,0,.78,0h.38l1.07,0h.28l.55,0h.19l1.76.08h.28a3,3,0,0,0,.42,0l.75,0a.62.62,0,0,1,.19,0h0l.4,0,.44,0h.17l.39,0a1.55,1.55,0,0,0,.3,0c.43,0,.87.06,1.3.08l.32,0h.44a3.57,3.57,0,0,0,.46,0h.37l1.22.09.57,0,.3,0,.47,0h0c.4,0,.79,0,1.19.09h0l.71.06.61.05h0l1.46.11a3,3,0,0,0,.31,0l1.55.15.87.09.46,0,.25,0,.29,0h.24l1.11.12.74.08,1.6.17.82.11.44.05c.37,0,.74.08,1.1.14l.78.1,1.59.2h0l.23,0,.44.06c.65.08,1.29.18,1.93.27l.32.05,1.78.26.53.08.19,0,.39.07h0l.72.11.89.14.6.12.85.14h0l.32.05.41.07.71.13,1.48.26.7.14c.5.09,1,.18,1.5.29l.63.12h.07l.08,0H186l.24,0,.16,0,1,.2h0l.11,0,.39.08,2.56.56,1.59.35.51.12c.5.12,1,.23,1.5.36l.25.06.18,0,.07,0h0l.08,0,0,0,1.31.32.65.17,1.15.29.05,0,.13,0h0c.2,0,.38.11.58.15a1.17,1.17,0,0,0,.25.07l.3.09c.31.07.61.16.91.25.14,0,.29.07.43.12L201,48l.08,0c.42.11.83.23,1.24.36l.2,0,1.75.53.45.14,1.34.42.59.19,1.06.35a.34.34,0,0,0,.12,0c.21.07.4.15.6.2.39.15.78.28,1.16.41l.3.1.27.1,1.22.44.46.17c1.11.41,2.2.84,3.26,1.27.13.05.25.11.38.15.4.18.8.33,1.18.5.17.07.35.14.51.22l.11.05.12,0,0,0,.75.32.54.24.35.17.62.27c.17.09.34.16.52.24l.23.11.77.38.43.2,1.23.63.16.07c.46.25.92.48,1.37.73a2.2,2.2,0,0,1,.26.15l.65.36.4.21.39.23.18.11c.24.13.47.27.7.41s.28.16.41.24l.82.51.41.26.84.54.33.21.39.27.59.41.13.09c.38.27.75.53,1.12.81l0,0c.33.25.66.5,1,.76l.24.18c.25.22.51.42.76.63.08.08.17.14.26.22l.7.61c.08.07.15.15.23.21l.42.39.3.28a.81.81,0,0,0,.16.16c.24.23.47.46.69.7l.23.23.41.45.38.42.4.48.41.48.09.12c.09.12.17.24.26.34s.26.36.39.52.22.3.32.45l.37.54.28.44c.11.18.23.37.33.56s.17.29.24.43.21.39.31.6l.21.4.15.33c0,.06,0,.12.07.17a.06.06,0,0,1,0,0,.39.39,0,0,1,.06.11c.05.13.11.25.16.36a1.3,1.3,0,0,0,.08.17v0c.1.27.2.54.29.82a15.51,15.51,0,0,1,.76,3.6c0,.27.05.55.06.83v.09A2.71,2.71,0,0,1,243.05,79.43Z"/><path class="cls-5" d="M163,112.1c-12.6-3.19-45.09-13.46-68-20.74-1.43.63-3.8,1.32-5.71,1.93-2.85,5.35,6.06,23.23,26.5,29.3C131.73,127.31,156.13,127.79,163,112.1Z"/><path class="cls-6" d="M89.36,93.29c2-.76,3.52-1.3,5.71-1.93l2.12.68a67.28,67.28,0,0,0,3.12,7.86,39.59,39.59,0,0,0,3.14,5.57,31.74,31.74,0,0,0,3.88,4.63,47.87,47.87,0,0,0,9.72,7.25,50.09,50.09,0,0,0,12.82,5.3,44.41,44.41,0,0,0,6.88,1.2,31.94,31.94,0,0,0,7,0A29.1,29.1,0,0,0,156.4,119a26.36,26.36,0,0,0,4.81-4.26q.67-.75,1.32-1.53c-7.53,14.6-28.44,15.72-47,9.89C95.2,116.65,85.75,100.13,89.36,93.29Z"/><path class="cls-7" d="M96.81,95.72c-1.73-.47-3.48-.93-5.19-1.49a20.33,20.33,0,0,1-2.27-.92v0c2-.76,3.52-1.3,5.71-1.93l2.12.68c.45,1.38.94,2.75,1.48,4.1C98.05,96,97.42,95.89,96.81,95.72Z"/><path class="cls-8" d="M157.7,114.67c-3.64-1.4-61.17-18.53-67.76-21.12a51.84,51.84,0,0,0,5.53-2.07c23.26,7,55.64,17.08,67.57,20.62C163,112.17,159.61,113.82,157.7,114.67Z"/><path class="cls-9" d="M94.74,92.53C94,92.82,91.41,93.77,91,94c-.58-.2-.74-.32-1.07-.45a51.84,51.84,0,0,0,5.53-2.07l1,.3C95.9,92.06,95.32,92.29,94.74,92.53Z"/><path class="cls-8" d="M100.56,93c18,5.46,39.71,12.17,53.49,16.36a19.88,19.88,0,0,1-2.69,2.5l-.65.55c-13.25-4.1-41.15-12.52-54.21-16.71A12.32,12.32,0,0,1,100.56,93Z"/><path class="cls-10" d="M108.66,95.5c12.5,3.81,25.92,7.94,36.8,11.27a16.46,16.46,0,0,1-2.77,2.63c-.18.14-.37.27-.56.4-11.29-3.45-26-8.07-37.17-11.54A24.9,24.9,0,0,1,108.66,95.5Z"/><path class="cls-9" d="M161.79,111.73l1.25.37c0,.07-3.43,1.72-5.34,2.57-.28-.11-.42,0-1.3-.31C157.2,113.82,161,112.27,161.79,111.73Z"/><path class="cls-11" d="M158,114.53c-12.54-3.72-44.37-13.86-68.07-21-2.58,4.67,6.06,22.36,26.55,28.25C131.94,126.26,149.45,125.91,158,114.53Z"/><path class="cls-12" d="M89.93,93.55l1,.32c-1,5,3.45,11.06,5.34,13.19a45,45,0,0,0,14.92,11.26,53.25,53.25,0,0,0,23.2,4.89c7.67-.19,16.79-2.48,22.44-9l1.12.34c-8.55,11.38-26.06,11.73-41.52,7.27C96,115.91,87.35,98.22,89.93,93.55Z"/><path class="cls-11" d="M145.58,115.68a30.53,30.53,0,0,1-10.21,1.54,54.43,54.43,0,0,1-12-1.41,52.36,52.36,0,0,1-12.13-4.38,47.14,47.14,0,0,1-5.54-3.35,37.88,37.88,0,0,1-5-4,16.88,16.88,0,0,1-4.37-8.54c18.9,5.76,41.1,12.77,54.62,16.91A14.36,14.36,0,0,1,145.58,115.68Z"/><path class="cls-13" d="M130.11,110.43a43.93,43.93,0,0,1-6.84-1.21,47.85,47.85,0,0,1-6.78-2.39,42.5,42.5,0,0,1-6.06-3.16A18.71,18.71,0,0,1,105,98.13c12.93,4,26.52,8.23,37.33,11.59a23.58,23.58,0,0,1-5.66.93A41.86,41.86,0,0,1,130.11,110.43Z"/><path class="cls-14" d="M89.45,138.75c.62-.3,1.24-.61,1.84-1,12.46-7.11,20.15-15.75,16.11-27.13A111.06,111.06,0,0,0,96.82,89.28c-3.39,1.5-37.38,20-37.38,20Z"/><path class="cls-15" d="M70.45,100.18,96.59,88.61c3.37,5.31,5.7,10.93,8.74,19.38,4.21,11.67-3.54,20.48-16.13,27.7-.62.35-1.24.68-1.87,1L70.41,120l-1.14-1.11L56.48,106.36l13.87-6.14Z"/><path class="cls-16" d="M90.23,91.42c1-.09,1.72,0,1.9.25.31.47-2.19,1.83-4.4,3,2.77-.36,6.5-1.09,6.77-.62s-1.82,1.73-4.43,2.76c3.11-.19,5.17-.06,5.4.44s-1.2,1.16-3.65,1.91c2.83,0,6.4.4,6.56.86s-3.23,1-6.06,1.6c3.14.25,5.17.65,5.29,1.13S95,104,92.41,104.33c2.82.42,7,.46,7,.9s-2.94.92-5.89,1.07c3.08.65,5,1.28,5,1.74s-4.2.44-6.9.42c2.75.77,8.09,1.71,8.06,2.13s-3,.42-6,.17c2.94,1,4.72,1.84,4.65,2.26s-1.75.36-4.42,0c2.56,1.06,5.05,2,4.94,2.34s-3.93,0-6.87-.67h0l0,0c2.74,1.3,5.3,2.52,5.14,2.89s-1.83.11-4.43-.57c2.34,1.31,5.65,2.82,5.45,3.16s-4-.59-6.85-1.54c2.47,1.56,3.87,2.69,3.63,3s-2.87-.46-5.36-1.44c2.09,1.53,5.19,3.63,4.92,3.92s-3-1-5.67-2.25c2.16,1.77,3.33,3,3,3.29s-1.85-.36-4.15-1.58c1.77,1.68,6,5.36,5.62,5.59s-5.29-3.07-7.71-4.56c1.8,1.93,3.33,3.9,2.94,4.12s-2.89-1.61-4.92-3l-.5-.35.34.42c1.42,1.73,3.22,3.68,2.85,3.85s-2.49-1.15-4.62-2.85c1.41,2,2,3.39,1.6,3.55s-1.73-.76-3.52-2.37c.59,1,1.44,2.32,2,3.27l-11.17-11L69.37,119,56.48,106.36Z"/><path class="cls-17" d="M75.49,107.81h0a17.28,17.28,0,0,1,.68,1.64h0c1.91,5.07-.54,8.51-4.12,9.83a8,8,0,0,1-1.79.44l-.16,0L78.47,128a3.8,3.8,0,0,0,1.31-.15,1.86,1.86,0,0,0,1.5-1.65,4.62,4.62,0,0,0,2.22-.36l.16-.07.26-.13a1.76,1.76,0,0,0,.46-2.88l0,0,.15-.11a1.59,1.59,0,0,0,.58-1.7,2.57,2.57,0,0,0,1.9-1,1.71,1.71,0,0,0,.26-1.2,2.85,2.85,0,0,0,2-.75,1.67,1.67,0,0,0,.36-1.78,3.93,3.93,0,0,0,2-.95,1.62,1.62,0,0,0,.39-.49h0a2,2,0,0,0-.28-2.24,3.8,3.8,0,0,0-1.45-1.1,1.72,1.72,0,0,0,.28-.47,2,2,0,0,0-.37-2,3.74,3.74,0,0,0-1.77-1.23,1.62,1.62,0,0,0,.27-.5,2.18,2.18,0,0,0-.42-2.09,3.65,3.65,0,0,0-1.07-.95l.13-.12a2,2,0,0,0,.06-2.83,4.12,4.12,0,0,0-1.81-1.32,2.46,2.46,0,0,0-.51-2,4.23,4.23,0,0,0-1.27-1.1,2.52,2.52,0,0,0-.51-2.17l-.08-.09-12.82,5.67A45.79,45.79,0,0,1,75.49,107.81Z"/><path class="cls-18" d="M75.22,107.23h0a18.61,18.61,0,0,1,1,2.22h0a9.19,9.19,0,0,1,.56,4.78h0a7.53,7.53,0,0,1-6.47,5.49,6.08,6.08,0,0,1-.67-.48L56.48,106.36l13.91-6.16A35.28,35.28,0,0,1,75.22,107.23Z"/><path class="cls-19" d="M70.32,100.23l-2.45,1.09,0,0a1.1,1.1,0,0,1,.44,1.24c-.27.65-.07.91.85,1.18a1.78,1.78,0,0,1,1.09.83c.2.37.38.7.58,1s.45.73.75,1.19a1.51,1.51,0,0,0,1,.61l1.61,1.91a1.75,1.75,0,0,1-.87,3l-.47.13c-.44.13-.61.63-.9,1.17a.94.94,0,0,1-.83.42h0c-.2,0-.31.13-.26.28l.94,3c.07.22-.16.38-.47.33h0c-.52-.09-1,.09-1.09.43v0c-.13.41-.76.56-1.37.33l-.17-.07.75.74,1,1,2.29,2.25-.18-.37c-.06-.14.16-.22.3-.11.49.38,4,3.36,5.08,4.07.25.17.62,0,.55-.18-.29-1-4.26-5.64-4.26-5.64s0-.18.17-.11a47.44,47.44,0,0,1,5,3.36c.8.6,1.57,1.15,2.57.6a.27.27,0,0,0,0-.48l-4.86-3.87c-.18-.14,0-.34.22-.27s3.41,1.32,4.59,1.76c.28.11.5-.12.27-.3a3.53,3.53,0,0,1-.47-.43l-4.5-3.45c-.17-.13,0-.31.19-.24,2.21.64,4.39,2.12,6.65,2.16.31,0,.45-.25.24-.44-1.68-1.51-4.06-2.37-5.88-3.4-.37-.2-.15-.58.27-.45s6.31,1.65,7.94,2c.23.06.37-.13.21-.28a3.88,3.88,0,0,0-.91-.65c-1.58-.73-3.23-1.41-4.88-2.12-.13,0-.11-.19,0-.18,1.51.05,3,.48,4.24.37s2.93,1,4,0c.16-.15.08-.41-.18-.52a28.33,28.33,0,0,0-10.15-2c-.35,0-.58-.34-.37-.51a.91.91,0,0,1,.54-.21c2.17-.08,4.37,0,6.51-.12a11.68,11.68,0,0,0,2-.32c.22,0,.17-.31-.07-.36-1.78-.36-6.36-1-9.36-1.27-.15,0-.21-.18-.07-.21l7.5-1.83c.28-.07.27-.38,0-.52a3.1,3.1,0,0,0-1.38-.35c-1.72,0-3.41.28-5.15.35a16.53,16.53,0,0,1-2.29-.19c-.32,0-.5-.36-.28-.49l1.93-1.2a1.57,1.57,0,0,1,1.15-.12A6.07,6.07,0,0,0,85,102.32c.16-.16-.09-.43-.35-.39-3.87.62-6.14.89-9.73,1.46a1.48,1.48,0,0,1-.51,0,3.19,3.19,0,0,0-.78,0c-.25,0-.42-.26-.2-.34,3.17-1,6.68-1.77,9.21-4,.17-.15,0-.44-.33-.44a7.64,7.64,0,0,0-1.71.12c-1.9.52-3.71,1.17-5.61,1.7a4.77,4.77,0,0,1-1.33.08,1.14,1.14,0,0,1-1-.55c-.05-.07.1-.17.4-.3,1.43-.64,6.21-2,7.74-3.85a.21.21,0,0,0,0-.25l-10.39,4.6Z"/><path class="cls-20" d="M74.67,122.77a4.9,4.9,0,0,1-1.38-1.86,7.48,7.48,0,0,1,2,1.59c1,1,.93,1.12.75,1.19S75.63,123.74,74.67,122.77Z"/><path class="cls-20" d="M77.68,121.39a5.83,5.83,0,0,1-1.7-1.76,8.29,8.29,0,0,1,2.27,1.4c1.12.89,1.12,1,1,1.15S78.81,122.27,77.68,121.39Z"/><path class="cls-20" d="M77.78,118.65A7.21,7.21,0,0,1,75.72,117a9,9,0,0,1,2.52,1.19c1.29.78,1.33,1,1.2,1.07S79.07,119.44,77.78,118.65Z"/><path class="cls-20" d="M80.05,117.15a7.57,7.57,0,0,1-2.25-1.49,9.48,9.48,0,0,1,2.62,1c1.38.7,1.44.87,1.34,1S81.42,117.84,80.05,117.15Z"/><path class="cls-20" d="M80.19,114.57a9.08,9.08,0,0,1-2.68-1,8.89,8.89,0,0,1,2.8.38c1.55.38,1.68.54,1.65.7S81.74,114.94,80.19,114.57Z"/><path class="cls-20" d="M72.23,119.46c-.86-.8-1.26-1.51-1.19-1.56a5.67,5.67,0,0,1,1.82,1.24c.85.79.81.93.64,1S73.08,120.24,72.23,119.46Z"/><path class="cls-20" d="M73.74,118c-1-.73-1.49-1.43-1.42-1.48a6.12,6.12,0,0,1,2,1.1c1,.73,1,.88.8,1S74.71,118.76,73.74,118Z"/><path class="cls-20" d="M73.88,115.89a5.06,5.06,0,0,1-1.77-1.32,6.24,6.24,0,0,1,2.18.85c1.12.61,1.15.77,1,.9S75,116.5,73.88,115.89Z"/><path class="cls-20" d="M75.63,114.41a5.75,5.75,0,0,1-2-1.11,6.17,6.17,0,0,1,2.28.56c1.22.48,1.29.64,1.22.79S76.84,114.88,75.63,114.41Z"/><path class="cls-20" d="M77.58,112.21a6.22,6.22,0,0,1-2.21-.85,5.84,5.84,0,0,1,2.31.24c1.27.3,1.38.45,1.35.62S78.85,112.51,77.58,112.21Z"/><path class="cls-20" d="M78.88,110a10.14,10.14,0,0,1-3.22-.38,8,8,0,0,1,3-.36c1.77,0,2,.15,2,.36S80.64,110,78.88,110Z"/><path class="cls-20" d="M77.13,107.48a8.27,8.27,0,0,1-3,.38,6.05,6.05,0,0,1,2.56-1.1c1.59-.42,1.86-.32,2-.12S78.72,107.06,77.13,107.48Z"/><path class="cls-20" d="M78.28,101a8.51,8.51,0,0,1-3.12.37,6,6,0,0,1,2.62-1.13c1.63-.43,1.9-.32,2-.11S79.9,100.59,78.28,101Z"/><path class="cls-20" d="M73.61,98.78,77.69,97a.36.36,0,0,1,.11.1c.17.21.15.46-1.39,1A10.44,10.44,0,0,1,73.61,98.78Z"/><path class="cls-20" d="M83.58,112.85a10.15,10.15,0,0,1-3.12-.7,8.66,8.66,0,0,1,3.08,0c1.76.19,1.94.35,1.95.55S85.33,113.05,83.58,112.85Z"/><path class="cls-20" d="M74,105.23a6,6,0,0,1-2.55.23c-.07-.1.74-.62,2-1s1.55-.23,1.68,0S75.29,104.89,74,105.23Z"/><path class="cls-20" d="M72.25,102.65a5.76,5.76,0,0,1-2.59.22c-.07-.1.75-.63,2.07-1s1.57-.22,1.71,0S73.57,102.31,72.25,102.65Z"/><path class="cls-21" d="M38.11,85.05a3.43,3.43,0,0,0-.36-1.51c-.63-1.05-1,.12-2.17.61-.76.31-.79-.38-1.83-.06-1.45.44-1.24,1.3-1.39,1.43s-1.21,0-1.8.49c-.43.37.38,1.12,1.15,1.69a12.42,12.42,0,0,0-4.16,15.38c3.09,6.59,11.36,9.59,18.48,6.72s10.38-10.55,7.29-17.13C50.69,87.08,44.33,84.07,38.11,85.05Z"/><path class="cls-22" d="M38.85,88.34c.15,1.23-3.2,2.8-5.1,5.75-2.14,2.82-2.33,6.29-3.61,6.66-.61.14-1.62-.76-2-2.54a8.4,8.4,0,0,1,1.46-6.62,9.68,9.68,0,0,1,5.94-3.93C37.44,87.28,38.74,87.76,38.85,88.34Z"/><path class="cls-23" d="M164.59,92.71c-3.38-.15-4.78,2.45-5.94,4.33a17.12,17.12,0,0,1-3.16,3,15.65,15.65,0,0,1-3.81,2c-2,.44-4.77.83-6,4.3s-1.47,9,3.41,14.61c7.59,8.81,17,6.29,21.06,3.31s9.89-11.41,5.41-22.47C172.72,94.71,168,92.85,164.59,92.71Z"/><path class="cls-24" d="M158.52,98.33c.61-1,1.91-1.83,2.74-1,1,.93,2.08,2.54.83,4.39-2,2.94-4.66,2.91-6.65,6s-2,6.9-5.22,6.43-4.65-3.09-3.7-6.24c.7-2.34,1-3.76,5.83-5.12A10,10,0,0,0,158.52,98.33Z"/><path class="cls-25" d="M152.57,107.5a2.3,2.3,0,0,1-.94,2.86c-1,.75-2.28.67-2.78-.16a2.29,2.29,0,0,1,.94-2.86C150.82,106.59,152.06,106.67,152.57,107.5Z"/><path class="cls-26" d="M173.66,113a12.8,12.8,0,0,0,8.38,8.32c6.75,2.12,16.85-.34,25.82-5.46,8.81-5,11.91-11.69,8-21.44C194.4,101.08,173.66,113,173.66,113Z"/><ellipse class="cls-25" cx="194.81" cy="103.93" rx="23.02" ry="12.21" transform="translate(-25.2 85.23) rotate(-23.22)"/><ellipse class="cls-26" cx="195.33" cy="104.15" rx="19.32" ry="10.25" transform="translate(-25.24 85.45) rotate(-23.22)"/><path class="cls-27" d="M197.81,103.12c-1.5.11-2.48-.46-2.41-1.43.18-2.29-.32-4.57-2.32-3.75-1.3.53-.79,2.93,0,4.73.35.78-.25,1.87-1.51,2.74-3.12,2.14-5.72,5-4.68,5.58.88.45,3.67-1.79,5.74-3.89a6.41,6.41,0,0,1,4.75-1.8c2.7.29,6.05.2,6.56-.78S200.91,102.89,197.81,103.12Z"/><path class="cls-21" d="M168.05,81.19a3.54,3.54,0,0,0-.35-1.51c-.64-1.05-.95.11-2.17.61-.76.3-.8-.38-1.84-.06-1.45.44-1.23,1.3-1.39,1.43s-1.21,0-1.79.49.38,1.12,1.14,1.69a12.42,12.42,0,0,0-4.16,15.38c3.09,6.59,11.37,9.59,18.48,6.72s10.38-10.55,7.29-17.13C180.64,83.21,174.27,80.21,168.05,81.19Z"/><path class="cls-22" d="M168.79,84.47c.16,1.24-3.19,2.81-5.1,5.76-2.14,2.82-2.32,6.29-3.61,6.66-.6.14-1.62-.76-2-2.54a8.35,8.35,0,0,1,1.45-6.62,9.73,9.73,0,0,1,5.94-3.93C167.38,83.41,168.68,83.9,168.79,84.47Z"/><path class="cls-28" d="M228.59,113.14c.23.56-25.94-5.19-25.94-5.19l-7.33-9,19.25-11.14,15.47-9,3.71,7.91S228.37,112.59,228.59,113.14Z"/><path class="cls-29" d="M228.59,113.14l-5.21-9.37-8.81-15.94,15.47-9,3.71,7.91S228.37,112.59,228.59,113.14Z"/><polygon class="cls-30" points="230.04 78.88 223.38 103.77 195.32 98.97 197.61 93.45 200.21 93.62 198 92.51 200.75 85.86 202.3 85.76 201.08 85.07 205.18 75.16 230.04 78.88"/><polygon class="cls-29" points="225.42 99.49 223.86 97.95 225.92 98.65 225.42 99.49"/><path class="cls-29" d="M229.13,90.4c-.07-.17-3.68-2.68-3.68-2.68l4.23,1.22Z"/><path class="cls-29" d="M213.35,81.41c-1,.4-6,3.65-4.73,5S213.35,81.41,213.35,81.41Z"/><path class="cls-29" d="M218.13,85.53c-.4-.29.22,6.8,1.49,6.17S219,86.19,218.13,85.53Z"/><path class="cls-29" d="M213.28,91.78c-.18-.43-3.72,6-2.26,6S213.68,92.74,213.28,91.78Z"/><path class="cls-26" d="M33.42,99.62A12.78,12.78,0,0,0,38,110.51c5.43,4.53,15.7,6.12,25.95,4.81C74,114,79.4,109.08,79.54,98.58,57.16,96.51,33.42,99.62,33.42,99.62Z"/><ellipse class="cls-25" cx="56.44" cy="99.3" rx="23.03" ry="12.21" transform="translate(-1.36 0.79) rotate(-0.79)"/><ellipse class="cls-26" cx="56.84" cy="99.7" rx="19.33" ry="10.25" transform="translate(-1.37 0.79) rotate(-0.79)"/><path class="cls-27" d="M59.52,99.69c-1.42-.47-2.11-1.37-1.67-2.23,1-2,1.46-4.35-.7-4.35-1.41,0-1.86,2.4-1.79,4.38,0,.85-1,1.63-2.44,2-3.71.79-7.23,2.48-6.47,3.37s4.08-.25,6.8-1.4a6.47,6.47,0,0,1,5.08.15c2.38,1.3,5.51,2.5,6.35,1.79S62.48,100.67,59.52,99.69Z"/><path class="cls-31" d="M13.76,91.85c1.1,2.73,8.62,7.48,11.26,8.08a2.45,2.45,0,0,0,.5.06c3.07.08,10.71-3.76,11.63-6.77,1-3.19.38-12-1.62-13.48-2.84-2.14-8.62-4.88-10.43-4.89l-.53,0C21.82,75.15,12.83,77,12,78S12.66,89.12,13.76,91.85Z"/><path class="cls-32" d="M13.76,91.85c1.1,2.73,8.62,7.48,11.26,8.08a2.45,2.45,0,0,0,.5.06C24.89,97,24,93.61,23,88.81c-1.33-6.83.26-11.66,1.54-13.93C21.82,75.15,12.83,77,12,78S12.66,89.12,13.76,91.85Z"/><path class="cls-33" d="M12,78c.81,3,7.61,8.38,12.09,7.85,2.94-.35,13.23-4,11.47-6.12-2.84-2.14-8.62-4.88-10.43-4.89S12.9,77,12,78Z"/><path class="cls-26" d="M163.83,81.37a11.48,11.48,0,0,0,4.07,9.78c4.88,4.06,14.09,5.49,23.3,4.32,9-1.16,13.9-5.61,14-15C185.14,78.59,163.83,81.37,163.83,81.37Z"/><ellipse class="cls-25" cx="184.5" cy="81.09" rx="20.67" ry="10.96" transform="translate(-1.1 2.54) rotate(-0.79)"/><ellipse class="cls-26" cx="184.85" cy="81.45" rx="17.35" ry="9.2" transform="translate(-1.1 2.55) rotate(-0.79)"/><path class="cls-27" d="M187.26,81.44c-1.28-.42-1.9-1.23-1.5-2,.94-1.83,1.31-3.9-.63-3.9-1.27,0-1.67,2.15-1.61,3.94,0,.76-.85,1.46-2.19,1.75-3.32.71-6.48,2.22-5.81,3s3.67-.22,6.11-1.26a5.81,5.81,0,0,1,4.56.14c2.13,1.16,4.94,2.24,5.7,1.6S189.92,82.32,187.26,81.44Z"/><path class="cls-26" d="M117.18,91.61a11.46,11.46,0,0,0,4.07,9.77c4.87,4.07,14.09,5.5,23.29,4.32,9-1.15,13.9-5.6,14-15C138.49,88.82,117.18,91.61,117.18,91.61Z"/><ellipse class="cls-25" cx="137.84" cy="91.33" rx="20.67" ry="10.96" transform="translate(-1.24 1.9) rotate(-0.79)"/><ellipse class="cls-26" cx="138.2" cy="91.68" rx="17.35" ry="9.2" transform="translate(-1.25 1.91) rotate(-0.79)"/><path class="cls-27" d="M140.61,91.68c-1.28-.42-1.9-1.23-1.5-2,.93-1.84,1.3-3.9-.64-3.91-1.26,0-1.66,2.16-1.6,3.94,0,.76-.85,1.46-2.19,1.75-3.33.71-6.49,2.23-5.81,3s3.66-.22,6.1-1.25a5.79,5.79,0,0,1,4.57.13c2.13,1.17,4.94,2.24,5.7,1.61S143.26,92.55,140.61,91.68Z"/><path class="cls-34" d="M106.12,77.74s-20.93,26.2-44.6,13.64c-25-13.24-18-32.63-18-32.63,5.57,17.86,19.8,23,28.5,21.15,10.8-2.29,14.71-9,14.71-9L98.8,75.16Z"/><path class="cls-35" d="M98.8,75.16C92.38,82,81.68,89.67,67.18,87c-25-4.61-23.7-28.24-23.7-28.24,5.57,17.86,19.8,23,28.5,21.15,10.8-2.29,14.71-9,14.71-9Z"/><path class="cls-31" d="M99.54,82.22c-2,1.22-9.58.53-11.79-.41a2.54,2.54,0,0,1-.39-.21C85,80.1,81,73.76,81.59,71.33s4.79-8,6.92-7.95c3,0,8.47,1.16,9.82,2.07l.38.29c1.93,1.56,7.8,7.3,8,8.37S101.51,81,99.54,82.22Z"/><path class="cls-32" d="M99.54,82.22c-2,1.22-9.58.53-11.79-.41a2.54,2.54,0,0,1-.39-.21c1.72-1.63,3.85-3.37,6.58-6,3.89-3.77,4.76-7.71,4.77-9.83,1.93,1.56,7.8,7.3,8,8.37S101.51,81,99.54,82.22Z"/><path class="cls-33" d="M106.73,74.11c-1.86,1.52-9.2,1.63-12.3-1-2-1.7-8.13-9.25-5.92-9.75,3,0,8.47,1.16,9.82,2.07S106.49,73,106.73,74.11Z"/><path class="cls-28" d="M96,73.84c-.31-.37-7.58,16.9-7.58,16.9l3.37,8.08,16.66-5.95,13.38-4.78-4.18-5.57S96.31,74.21,96,73.84Z"/><path class="cls-29" d="M96,73.84l4.59,7.06,7.86,12,13.38-4.78-4.18-5.57S96.31,74.21,96,73.84Z"/><polygon class="cls-30" points="121.84 88.09 100.6 80.9 91.8 98.82 96.87 99.96 97.89 98.42 97.74 100.15 103.84 101.52 104.59 100.69 104.56 101.69 113.66 103.73 121.84 88.09"/><polygon class="cls-29" points="104.65 81.63 105.1 83.18 105.49 81.72 104.65 81.63"/><path class="cls-29" d="M113,83.53c.09.11.35,3.26.35,3.26l1-2.93Z"/><path class="cls-29" d="M112.64,96.38c-.74.4-5.33,1.79-5.73.48S112.64,96.38,112.64,96.38Z"/><path class="cls-29" d="M111.72,91.87c0,.36-4.91-3.11-3.89-3.55S111.63,91.07,111.72,91.87Z"/><path class="cls-29" d="M105,91.86c.24.29-6-.54-5.41-1.37S104.46,91.21,105,91.86Z"/><path class="cls-31" d="M206.56,76.23c.27,2.1-4.12,7.58-6.13,8.82a2.61,2.61,0,0,1-.41.2c-2.62,1.06-11,1.11-13.1-.5s-5.68-7.49-4.62-9.11c1.49-2.28,5.28-5.92,6.84-6.51l.47-.15c2.5-.73,11.12-2.48,12.3-2.13S206.29,74.14,206.56,76.23Z"/><path class="cls-32" d="M206.56,76.23c.27,2.1-4.12,7.58-6.13,8.82a2.61,2.61,0,0,1-.41.2c-.79-2.1-1.51-4.56-2.85-7.92A15.83,15.83,0,0,0,189.61,69c2.5-.73,11.12-2.48,12.3-2.13S206.29,74.14,206.56,76.23Z"/><path class="cls-33" d="M201.91,66.85c.63,2.15-2.83,7.81-6.95,8.94-2.7.74-13.24,1.79-12.66-.15,1.49-2.28,5.28-5.92,6.84-6.51S200.63,66.48,201.91,66.85Z"/><path class="cls-34" d="M181.13,67s14.27,21.81,33.93,13.32c20.73-9,16.91-24.6,16.91-24.6-5.87,13.72-17.49,16.93-24.18,15-8.3-2.43-10.81-7.94-10.81-7.94l-9.88,2.65Z"/><path class="cls-35" d="M187.1,65.37c4.48,5.78,12.25,12.4,23.88,11.14,20-2.17,21-20.82,21-20.82-5.87,13.72-17.49,16.93-24.18,15-8.3-2.43-10.81-7.94-10.81-7.94Z"/><path class="cls-36" d="M104.4,59.31c-.36,5,6,12.39,16.82,10.65,11.81-1.9,12-14.21,7.94-17.54C118.28,56.32,107.51,58.92,104.4,59.31Z"/><path class="cls-37" d="M104.4,59.31c-.58,3.21,3,8.88,15,6.65,10.93-2,13.64-10.84,9.79-13.54-5.59-3.93-13.52.76-13.52.76S105.7,52.24,104.4,59.31Z"/><path class="cls-38" d="M116.36,54.4s-4.39-.27-6.67.93c-1.9,1-4,3.19-2.81,6s5.9,5,13.13,3.25,9.68-7.46,7.94-10-4.7-2.5-6.88-2.13A16,16,0,0,0,116.36,54.4Z"/><path class="cls-39" d="M113.36,59.4c.34,1.32,2.41,3.43,6.09,2.7s3.63-5.39,1.89-6.13-4,.77-4,.77S112.75,56.85,113.36,59.4Z"/><path class="cls-37" d="M120.16,56.81a3.93,3.93,0,0,0-2.24,1.89,4.24,4.24,0,0,0-3-.53c-1.51.44.18,3.41,3.82,2.52S121.73,56.32,120.16,56.81Z"/><path class="cls-36" d="M116.09,59.17c-.39.49.3.7,1.6.71C117.21,59,116.3,58.91,116.09,59.17Z"/><path class="cls-36" d="M120,58.22c.63.23.17.73-.94,1.33C119,58.61,119.66,58.09,120,58.22Z"/><path class="cls-28" d="M150.09,60.3c-.31-.36-7.57,16.91-7.57,16.91l3.37,8.08,16.66-6,13.38-4.79L171.75,69S150.4,60.67,150.09,60.3Z"/><path class="cls-29" d="M150.09,60.3l4.6,7.06,7.86,12,13.38-4.79L171.75,69S150.4,60.67,150.09,60.3Z"/><polygon class="cls-30" points="175.93 74.55 154.69 67.36 145.89 85.28 150.96 86.42 151.98 84.89 151.82 86.62 157.93 87.99 158.68 87.16 158.65 88.15 167.75 90.2 175.93 74.55"/><polygon class="cls-29" points="158.74 68.1 159.19 69.65 159.58 68.19 158.74 68.1"/><path class="cls-29" d="M167.06,70c.09.11.35,3.25.35,3.25l1-2.92Z"/><path class="cls-29" d="M166.73,82.85c-.74.39-5.33,1.78-5.73.47S166.73,82.85,166.73,82.85Z"/><path class="cls-29" d="M165.81,78.34c0,.36-4.91-3.12-3.89-3.56S165.72,77.54,165.81,78.34Z"/><path class="cls-29" d="M159.08,78.33c.24.29-6.05-.54-5.41-1.37S158.54,77.67,159.08,78.33Z"/><path class="cls-40" d="M241.72,73a2.12,2.12,0,0,1-.11.21c-1.49,2.54-4.4,1.39-8.21.24s-9.72,1.48-10.39-2.91A3.83,3.83,0,0,1,224.27,67c2-1.91,5.8-2.68,8.24-2.28C241,66.12,243,70.38,241.72,73Z"/><path class="cls-41" d="M241.72,73a2.12,2.12,0,0,1-.11.21c-1.49,2.54-4.4,1.39-8.21.24s-9.72,1.48-10.39-2.91A3.83,3.83,0,0,1,224.27,67c-.09,1.07.35,2.44,3.15,2.48a22.63,22.63,0,0,1,11.32,2.75A5.32,5.32,0,0,0,241.72,73Z"/><path class="cls-42" d="M228.68,66.49a1.23,1.23,0,0,0-1.21-.45,2.76,2.76,0,0,0-.58.16,1.31,1.31,0,0,0-.7.48.86.86,0,0,0-.06.9,1.25,1.25,0,0,0,1.67.48,4.19,4.19,0,0,0,.7-.42A.88.88,0,0,0,228.68,66.49Z"/><path class="cls-42" d="M230.75,66c-.37,0-.75.19-.77.55a.64.64,0,0,0,.62.67c.36,0,.74-.19.77-.55A.64.64,0,0,0,230.75,66Z"/><path class="cls-31" d="M241.34,85.26c-.91,1.95-7.75,5-10.19,5.21a2.38,2.38,0,0,1-.47,0c-2.87-.16-10.22-3.58-11.21-5.9s-.9-9,.91-9.94c2.56-1.39,7.86-3,9.56-2.89l.5.06c2.59.4,11.1,2.45,11.95,3.25S242.25,83.3,241.34,85.26Z"/><path class="cls-32" d="M241.34,85.26c-.91,1.95-7.75,5-10.19,5.21a2.38,2.38,0,0,1-.47,0c.45-2.18,1.17-4.65,1.83-8.16a13.68,13.68,0,0,0-2.07-10.51c2.59.4,11.1,2.45,11.95,3.25S242.25,83.3,241.34,85.26Z"/><path class="cls-33" d="M242.39,75.06c-.62,2.15-6.75,5.7-11,5-2.77-.47-12.58-3.93-11-5.4,2.56-1.39,7.86-3,9.56-2.89S241.47,74.2,242.39,75.06Z"/><path class="cls-43" d="M69.31,81.4a11.92,11.92,0,0,1-1.64,4.9,4.66,4.66,0,0,1-2.17,2.06c-6.14,1.7-21.25-.64-26.07-2-10.62-3-18.1-5.84-23.44-10.21-2.13-1.74-2.68-3.34-2.63-4.46.12-2.32,2.82-6.67,2.82-6.67Z"/><path class="cls-44" d="M39.38,86.5a114.37,114.37,0,0,1-13.71-4.58,40,40,0,0,1-9.78-5.65c-2.43-2-2.72-3.72-2.68-4.58.12-2.33,2.73-6.55,2.84-6.73l.06-.1L69.35,81.27l.11,0v.1a12,12,0,0,1-1.65,5,4.75,4.75,0,0,1-2.26,2.13,22.4,22.4,0,0,1-5.38.6h0A93.42,93.42,0,0,1,39.38,86.5ZM16.25,65.19c-.4.66-2.63,4.44-2.74,6.51,0,.81.24,2.45,2.58,4.36C20.91,80,27.68,82.94,39.47,86.24a92.76,92.76,0,0,0,20.69,2.57,21.8,21.8,0,0,0,5.3-.59,4.39,4.39,0,0,0,2.08-2,12.27,12.27,0,0,0,1.61-4.74Z"/><path class="cls-45" d="M52.16,83c1.6-1.41,3.34-2.86,3.89-4.82a6.91,6.91,0,0,0,.17-.76l13.09,4a11.92,11.92,0,0,1-1.64,4.9,4.66,4.66,0,0,1-2.17,2.06c-5.64,1.56-18.85-.29-24.7-1.64C46.55,86.42,50.65,84.28,52.16,83Z"/><path class="cls-46" d="M51,86.46a.93.93,0,0,0-.45-.71,2.45,2.45,0,0,0-.8-.38c-1-.25-1.43.14-1.57.29a.81.81,0,0,0,0,1,1.91,1.91,0,0,0,1.17.48,3.59,3.59,0,0,0,1.11-.07A.64.64,0,0,0,51,86.46Z"/><path class="cls-47" d="M50.85,86.44a1.68,1.68,0,0,0-.67-.48,2.69,2.69,0,0,0-1-.23.86.86,0,0,0-.59.22.6.6,0,0,0,0,.77,1.65,1.65,0,0,0,.9.38,3.28,3.28,0,0,0,1-.1C50.78,86.93,50.94,86.62,50.85,86.44Z"/><path class="cls-48" d="M50.46,86.55s.07,0,0-.13a3,3,0,0,0-.52-.3,1.27,1.27,0,0,0-.56-.13.54.54,0,0,0-.39.14.39.39,0,0,0,0,.49.57.57,0,0,0,.42.19,3.78,3.78,0,0,0,1-.08s.1-.07.1-.1A.15.15,0,0,0,50.46,86.55Z"/><path class="cls-49" d="M50.37,86.53s.06,0,0-.1a2.72,2.72,0,0,0-.46-.25,1.31,1.31,0,0,0-.5-.12.48.48,0,0,0-.33.12.3.3,0,0,0,0,.41.57.57,0,0,0,.37.16,3.61,3.61,0,0,0,.89-.06s.09-.06.09-.09A.56.56,0,0,0,50.37,86.53Z"/><path class="cls-50" d="M50.21,86.52s0,0,0-.08a2.13,2.13,0,0,0-.37-.18,1,1,0,0,0-.4-.09.4.4,0,0,0-.26.08.21.21,0,0,0,0,.3.45.45,0,0,0,.29.12,3,3,0,0,0,.7,0s.08,0,.08-.06A.12.12,0,0,0,50.21,86.52Z"/><path class="cls-51" d="M49.53,86.27c.07,0-.13,0-.19,0a.19.19,0,0,0-.14.07.18.18,0,0,0,0,.21s.15.13.15.08S49.31,86.33,49.53,86.27Z"/><path class="cls-46" d="M39.49,82.49a1,1,0,0,0-.36-.82,2.21,2.21,0,0,0-.8-.52c-1.08-.42-1.55-.06-1.72.08a.85.85,0,0,0-.16,1.11,1.89,1.89,0,0,0,1.16.68,3.91,3.91,0,0,0,1.2.1A.73.73,0,0,0,39.49,82.49Z"/><path class="cls-47" d="M39.35,82.46a1.62,1.62,0,0,0-.63-.62,3.18,3.18,0,0,0-1.06-.39,1,1,0,0,0-.67.15.67.67,0,0,0-.17.83,1.87,1.87,0,0,0,.9.53,3.81,3.81,0,0,0,1.11,0C39.2,83,39.42,82.65,39.35,82.46Z"/><path class="cls-48" d="M38.92,82.51s.08,0,0-.14a3.23,3.23,0,0,0-.5-.39,1.61,1.61,0,0,0-.59-.23.63.63,0,0,0-.43.1.42.42,0,0,0-.11.53.67.67,0,0,0,.42.26,4.08,4.08,0,0,0,1.09,0,.22.22,0,0,0,.13-.09A.26.26,0,0,0,38.92,82.51Z"/><path class="cls-49" d="M38.82,82.49s.08,0,0-.12a2.62,2.62,0,0,0-.45-.34,1.27,1.27,0,0,0-.51-.19.54.54,0,0,0-.38.07.34.34,0,0,0-.09.44.64.64,0,0,0,.37.23,4.55,4.55,0,0,0,1,.06s.11,0,.11-.08A.15.15,0,0,0,38.82,82.49Z"/><path class="cls-50" d="M38.66,82.45s.06,0,0-.09a3.14,3.14,0,0,0-.36-.25,1.18,1.18,0,0,0-.42-.15.4.4,0,0,0-.29.05.23.23,0,0,0-.06.32.47.47,0,0,0,.3.17,3.39,3.39,0,0,0,.76.06s.08,0,.08-.06A.08.08,0,0,0,38.66,82.45Z"/><path class="cls-51" d="M38,82.08c.08,0-.14-.08-.2-.08a.24.24,0,0,0-.16,0,.24.24,0,0,0,0,.23s.13.16.14.1S37.72,82.11,38,82.08Z"/><path class="cls-46" d="M33,82.74a1,1,0,0,0-.24-.86,2.34,2.34,0,0,0-.71-.62c-1-.56-1.53-.26-1.72-.15A.89.89,0,0,0,30,82.2a1.86,1.86,0,0,0,1,.82,3.85,3.85,0,0,0,1.18.25A.75.75,0,0,0,33,82.74Z"/><path class="cls-47" d="M32.87,82.69a1.58,1.58,0,0,0-.53-.7,3,3,0,0,0-1-.52,1,1,0,0,0-.69.06.69.69,0,0,0-.29.8,1.77,1.77,0,0,0,.81.64,3.65,3.65,0,0,0,1.09.18C32.65,83.17,32.91,82.89,32.87,82.69Z"/><path class="cls-48" d="M32.43,82.68s.1,0,0-.14a3,3,0,0,0-.44-.45,1.49,1.49,0,0,0-.55-.3.61.61,0,0,0-.44,0,.44.44,0,0,0-.19.51.64.64,0,0,0,.38.31,4.44,4.44,0,0,0,1.07.2s.13,0,.14-.08A.39.39,0,0,0,32.43,82.68Z"/><path class="cls-49" d="M32.34,82.64s.08,0,0-.11a2.38,2.38,0,0,0-.39-.39,1.14,1.14,0,0,0-.48-.26.58.58,0,0,0-.39,0,.35.35,0,0,0-.15.43.61.61,0,0,0,.33.27,4.13,4.13,0,0,0,.94.18s.12,0,.12-.06A.28.28,0,0,0,32.34,82.64Z"/><path class="cls-50" d="M32.19,82.59s.06,0,0-.09a1.91,1.91,0,0,0-.32-.3,1.27,1.27,0,0,0-.38-.2.54.54,0,0,0-.31,0,.24.24,0,0,0-.1.32.48.48,0,0,0,.27.2,3.16,3.16,0,0,0,.74.16s.09,0,.1,0Z"/><path class="cls-51" d="M31.56,82.14c.08,0-.12-.1-.19-.11a.18.18,0,0,0-.16,0,.23.23,0,0,0-.09.22s.11.18.13.12S31.31,82.14,31.56,82.14Z"/><path class="cls-46" d="M28.72,79.48a1,1,0,0,0-.18-.87,2.34,2.34,0,0,0-.67-.66c-1-.61-1.52-.34-1.71-.23a.89.89,0,0,0-.4,1.06,2,2,0,0,0,1,.88,3.79,3.79,0,0,0,1.16.31A.76.76,0,0,0,28.72,79.48Z"/><path class="cls-47" d="M28.59,79.42a1.54,1.54,0,0,0-.49-.72,2.68,2.68,0,0,0-1-.57,1,1,0,0,0-.7,0,.69.69,0,0,0-.33.78,1.65,1.65,0,0,0,.76.68,3.61,3.61,0,0,0,1.08.24C28.34,79.89,28.61,79.62,28.59,79.42Z"/><path class="cls-48" d="M28.15,79.39s.1,0,0-.14a3.32,3.32,0,0,0-.42-.47,1.39,1.39,0,0,0-.52-.33.58.58,0,0,0-.45,0,.42.42,0,0,0-.21.49.59.59,0,0,0,.35.34,4.6,4.6,0,0,0,1.06.25.24.24,0,0,0,.15-.07A.39.39,0,0,0,28.15,79.39Z"/><path class="cls-49" d="M28.06,79.35s.09,0,0-.12a2.57,2.57,0,0,0-.37-.41,1.24,1.24,0,0,0-.46-.28.53.53,0,0,0-.39,0,.36.36,0,0,0-.18.42.58.58,0,0,0,.32.29,4.09,4.09,0,0,0,.92.23s.12,0,.13-.06A.23.23,0,0,0,28.06,79.35Z"/><path class="cls-50" d="M27.91,79.28s.07,0,0-.08a2.12,2.12,0,0,0-.3-.32,1.29,1.29,0,0,0-.37-.22.44.44,0,0,0-.3,0,.23.23,0,0,0-.13.31.53.53,0,0,0,.26.22,3.48,3.48,0,0,0,.73.19.15.15,0,0,0,.1,0A.11.11,0,0,0,27.91,79.28Z"/><path class="cls-51" d="M27.32,78.8c.08,0-.12-.1-.19-.12a.19.19,0,0,0-.16,0,.21.21,0,0,0-.1.21s.1.18.12.12S27.06,78.79,27.32,78.8Z"/><path class="cls-46" d="M17,73.61a1,1,0,0,0,.1-.88,2.2,2.2,0,0,0-.44-.81c-.74-.84-1.35-.73-1.56-.68a.93.93,0,0,0-.71.92A1.79,1.79,0,0,0,15,73.27a3.72,3.72,0,0,0,1,.6A.79.79,0,0,0,17,73.61Z"/><path class="cls-47" d="M16.87,73.52a1.56,1.56,0,0,0-.25-.82,2.58,2.58,0,0,0-.74-.8.94.94,0,0,0-.67-.16.7.7,0,0,0-.56.65,1.55,1.55,0,0,0,.52.86,3.48,3.48,0,0,0,1,.52C16.48,73.9,16.83,73.72,16.87,73.52Z"/><path class="cls-48" d="M16.46,73.38s.09,0,.06-.13a2.63,2.63,0,0,0-.25-.56,1.28,1.28,0,0,0-.4-.46.6.6,0,0,0-.43-.1.46.46,0,0,0-.36.42.58.58,0,0,0,.24.41,3.58,3.58,0,0,0,.93.52.21.21,0,0,0,.16,0A.45.45,0,0,0,16.46,73.38Z"/><path class="cls-49" d="M16.38,73.31s.09,0,.06-.11a2.55,2.55,0,0,0-.23-.48,1.08,1.08,0,0,0-.36-.4.5.5,0,0,0-.37-.1.37.37,0,0,0-.3.35.51.51,0,0,0,.22.36,3.46,3.46,0,0,0,.81.47.21.21,0,0,0,.14,0A.17.17,0,0,0,16.38,73.31Z"/><path class="cls-50" d="M16.26,73.21s.07,0,0-.08a2,2,0,0,0-.2-.38.87.87,0,0,0-.29-.31.38.38,0,0,0-.28-.09.26.26,0,0,0-.22.27.52.52,0,0,0,.18.28,3.29,3.29,0,0,0,.64.37.14.14,0,0,0,.11,0A.17.17,0,0,0,16.26,73.21Z"/><path class="cls-51" d="M15.84,72.59c.07,0-.08-.13-.14-.16a.24.24,0,0,0-.17,0,.23.23,0,0,0-.16.17c0,.06,0,.21.08.15S15.6,72.51,15.84,72.59Z"/><path class="cls-46" d="M44,86a.85.85,0,0,0-.25-.77,1.87,1.87,0,0,0-.66-.53c-.94-.47-1.4-.18-1.57-.07a.8.8,0,0,0-.25,1,1.78,1.78,0,0,0,1,.71,3.5,3.5,0,0,0,1.07.17A.65.65,0,0,0,44,86Z"/><path class="cls-47" d="M43.91,85.93a1.57,1.57,0,0,0-.51-.6,2.69,2.69,0,0,0-.92-.44.94.94,0,0,0-.62.08.61.61,0,0,0-.22.73,1.57,1.57,0,0,0,.75.56,3.66,3.66,0,0,0,1,.12C43.73,86.38,44,86.12,43.91,85.93Z"/><path class="cls-48" d="M43.51,86s.09,0,0-.13a2.32,2.32,0,0,0-.42-.39,1.24,1.24,0,0,0-.5-.25.5.5,0,0,0-.4,0,.38.38,0,0,0-.15.46.55.55,0,0,0,.35.27,3.71,3.71,0,0,0,1,.14.23.23,0,0,0,.13-.07A.2.2,0,0,0,43.51,86Z"/><path class="cls-49" d="M43.43,85.92s.07,0,0-.11a2.56,2.56,0,0,0-.37-.34,1.18,1.18,0,0,0-.45-.22.49.49,0,0,0-.34,0,.31.31,0,0,0-.12.39.5.5,0,0,0,.31.23,3.25,3.25,0,0,0,.86.13s.1,0,.11-.06Z"/><path class="cls-50" d="M43.29,85.87s.05,0,0-.08a3.22,3.22,0,0,0-.31-.26,1,1,0,0,0-.35-.16.38.38,0,0,0-.28,0,.23.23,0,0,0-.08.29.46.46,0,0,0,.26.17,2.83,2.83,0,0,0,.67.11.13.13,0,0,0,.09,0Z"/><path class="cls-51" d="M42.7,85.49c.08,0-.11-.09-.17-.09a.18.18,0,0,0-.22.23c0,.05.11.16.12.1S42.47,85.5,42.7,85.49Z"/><path class="cls-46" d="M64.92,87.26a.59.59,0,0,0-.39-.31,1.38,1.38,0,0,0-.52-.08c-.63,0-.77.32-.81.43a.47.47,0,0,0,.21.57,1.18,1.18,0,0,0,.74.07,2.26,2.26,0,0,0,.6-.23A.36.36,0,0,0,64.92,87.26Z"/><path class="cls-47" d="M64.84,87.27a1,1,0,0,0-.46-.15,1.8,1.8,0,0,0-.62,0,.48.48,0,0,0-.28.22.36.36,0,0,0,.13.43,1,1,0,0,0,.57.06,2,2,0,0,0,.55-.23A.26.26,0,0,0,64.84,87.27Z"/><path class="cls-48" d="M64.64,87.4s0,0,0-.07a1.45,1.45,0,0,0-.34-.07.64.64,0,0,0-.34,0,.3.3,0,0,0-.19.14.24.24,0,0,0,.09.28.39.39,0,0,0,.27,0,2,2,0,0,0,.54-.22.1.1,0,0,0,0-.07Z"/><path class="cls-49" d="M64.59,87.41s0,0,0-.06l-.31-.06a.74.74,0,0,0-.3,0,.29.29,0,0,0-.16.12.18.18,0,0,0,.07.23.33.33,0,0,0,.24,0,2.36,2.36,0,0,0,.48-.19s0,0,0-.06Z"/><path class="cls-50" d="M64.5,87.42s0,0,0,0l-.24,0a.9.9,0,0,0-.24,0,.22.22,0,0,0-.13.1.11.11,0,0,0,.05.16.31.31,0,0,0,.19,0,2,2,0,0,0,.38-.14.07.07,0,0,0,0,0S64.5,87.42,64.5,87.42Z"/><path class="cls-51" d="M64.08,87.4s-.09,0-.12,0a.11.11,0,0,0-.07.06.13.13,0,0,0,0,.12s.11,0,.09,0S64,87.47,64.08,87.4Z"/><path class="cls-46" d="M55.48,84.79c0-.25-.17-.44-.38-.62a2.58,2.58,0,0,0-.75-.4c-1-.33-1.42-.07-1.57,0a.56.56,0,0,0-.08.83,2,2,0,0,0,1.1.52,4.49,4.49,0,0,0,1.09.09A.56.56,0,0,0,55.48,84.79Z"/><path class="cls-47" d="M55.35,84.76a1.59,1.59,0,0,0-.61-.47,3.35,3.35,0,0,0-1-.3,1,1,0,0,0-.61.1.41.41,0,0,0-.1.61,2,2,0,0,0,.84.41,4.53,4.53,0,0,0,1,0C55.24,85.13,55.42,84.91,55.35,84.76Z"/><path class="cls-48" d="M55,84.79s.07,0,0-.1a2.51,2.51,0,0,0-.48-.3,1.64,1.64,0,0,0-.54-.18.62.62,0,0,0-.39.07.26.26,0,0,0-.07.39.69.69,0,0,0,.4.2,4.89,4.89,0,0,0,1,0s.11,0,.11-.06A.16.16,0,0,0,55,84.79Z"/><path class="cls-49" d="M54.87,84.77s.06,0,0-.09a3.58,3.58,0,0,0-.42-.25,1.93,1.93,0,0,0-.48-.16.6.6,0,0,0-.34,0,.22.22,0,0,0-.06.33.68.68,0,0,0,.35.17,4.49,4.49,0,0,0,.88.06s.09,0,.09,0A.11.11,0,0,0,54.87,84.77Z"/><path class="cls-50" d="M54.72,84.74s.05,0,0-.07l-.35-.19a2.07,2.07,0,0,0-.38-.12.57.57,0,0,0-.27,0,.15.15,0,0,0,0,.24.49.49,0,0,0,.28.13,3.48,3.48,0,0,0,.69,0,.1.1,0,0,0,.08,0A.23.23,0,0,0,54.72,84.74Z"/><path class="cls-51" d="M54.07,84.46c.07,0-.13-.06-.19-.06a.18.18,0,0,0-.14,0,.14.14,0,0,0,0,.17s.13.12.13.08S53.85,84.48,54.07,84.46Z"/><path class="cls-46" d="M23.09,79.14a.84.84,0,0,0-.19-.8,2.7,2.7,0,0,0-.67-.68c-1-.68-1.53-.52-1.73-.46a.65.65,0,0,0-.4.88,2.2,2.2,0,0,0,1,.92,4.48,4.48,0,0,0,1.17.44A.67.67,0,0,0,23.09,79.14Z"/><path class="cls-47" d="M23,79.06a1.6,1.6,0,0,0-.49-.7,3.54,3.54,0,0,0-1-.65,1.15,1.15,0,0,0-.7-.08.49.49,0,0,0-.34.63,2.08,2.08,0,0,0,.77.72,4.81,4.81,0,0,0,1.09.37C22.7,79.44,23,79.25,23,79.06Z"/><path class="cls-48" d="M22.51,79s.1,0,0-.12a5.11,5.11,0,0,0-.42-.48,1.84,1.84,0,0,0-.53-.36.73.73,0,0,0-.45-.06.32.32,0,0,0-.22.41.76.76,0,0,0,.36.35,5.63,5.63,0,0,0,1.07.38s.13,0,.14,0S22.51,79,22.51,79Z"/><path class="cls-49" d="M22.42,78.92s.09,0,0-.1a2.62,2.62,0,0,0-.37-.41,1.82,1.82,0,0,0-.47-.33.68.68,0,0,0-.39,0,.26.26,0,0,0-.18.34.63.63,0,0,0,.32.3,4.26,4.26,0,0,0,.93.34s.12,0,.13,0A.23.23,0,0,0,22.42,78.92Z"/><path class="cls-50" d="M22.27,78.84s.07,0,0-.07a1.73,1.73,0,0,0-.3-.32,1.51,1.51,0,0,0-.38-.26.5.5,0,0,0-.31,0,.17.17,0,0,0-.12.25.55.55,0,0,0,.26.23,4.29,4.29,0,0,0,.74.28.15.15,0,0,0,.1,0Z"/><path class="cls-51" d="M21.67,78.33c.08,0-.12-.11-.19-.13a.22.22,0,0,0-.16,0,.16.16,0,0,0-.1.17s.1.18.12.13S21.41,78.28,21.67,78.33Z"/><path class="cls-46" d="M22,75.32a.75.75,0,0,0-.12-.71,2.54,2.54,0,0,0-.56-.62c-.83-.64-1.32-.52-1.5-.48a.58.58,0,0,0-.39.76,2,2,0,0,0,.84.85,4.26,4.26,0,0,0,1,.44A.58.58,0,0,0,22,75.32Z"/><path class="cls-47" d="M21.88,75.25a1.46,1.46,0,0,0-.4-.64,3.32,3.32,0,0,0-.81-.61,1.07,1.07,0,0,0-.62-.1.44.44,0,0,0-.32.55,1.81,1.81,0,0,0,.64.66,4.56,4.56,0,0,0,.94.37C21.64,75.57,21.89,75.41,21.88,75.25Z"/><path class="cls-48" d="M21.5,75.15s.08,0,0-.1a2.28,2.28,0,0,0-.34-.44,1.45,1.45,0,0,0-.45-.34.62.62,0,0,0-.39-.07.28.28,0,0,0-.21.35.61.61,0,0,0,.3.32,4.49,4.49,0,0,0,.91.37c.05,0,.13,0,.14,0A.41.41,0,0,0,21.5,75.15Z"/><path class="cls-49" d="M21.42,75.1s.07,0,0-.08a1.92,1.92,0,0,0-.31-.38,1.61,1.61,0,0,0-.39-.31.72.72,0,0,0-.34-.06.22.22,0,0,0-.18.29.56.56,0,0,0,.27.28,4.46,4.46,0,0,0,.8.34s.11,0,.12,0A.18.18,0,0,0,21.42,75.1Z"/><path class="cls-50" d="M21.29,75s.06,0,0-.07a2,2,0,0,0-.25-.29,1.22,1.22,0,0,0-.32-.24.42.42,0,0,0-.26-.05.15.15,0,0,0-.13.21.52.52,0,0,0,.22.22,3.62,3.62,0,0,0,.64.27s.08,0,.08,0S21.29,75,21.29,75Z"/><path class="cls-51" d="M20.79,74.55c.07,0-.1-.1-.16-.12a.19.19,0,0,0-.15,0,.13.13,0,0,0-.09.15s.08.16.1.11S20.56,74.5,20.79,74.55Z"/><path class="cls-46" d="M58.25,87.34a.9.9,0,0,0-.53-.55,1.91,1.91,0,0,0-.77-.2c-1,0-1.24.35-1.33.5a.72.72,0,0,0,.2.91,1.77,1.77,0,0,0,1.12.24,3.31,3.31,0,0,0,1-.24A.56.56,0,0,0,58.25,87.34Z"/><path class="cls-47" d="M58.13,87.35a1.39,1.39,0,0,0-.68-.32,2.3,2.3,0,0,0-.94,0,.73.73,0,0,0-.48.29.53.53,0,0,0,.11.68,1.68,1.68,0,0,0,.86.19,3.38,3.38,0,0,0,.88-.25A.41.41,0,0,0,58.13,87.35Z"/><path class="cls-48" d="M57.81,87.5s0,0-.05-.11a3,3,0,0,0-.51-.17,1.38,1.38,0,0,0-.53,0,.53.53,0,0,0-.31.19.33.33,0,0,0,.08.43.53.53,0,0,0,.4.1,3.13,3.13,0,0,0,.87-.23s.08-.08.07-.11A.31.31,0,0,0,57.81,87.5Z"/><path class="cls-49" d="M57.72,87.51s.05-.05,0-.09a2,2,0,0,0-.45-.15,1.21,1.21,0,0,0-.46,0,.4.4,0,0,0-.27.15.28.28,0,0,0,.06.37.51.51,0,0,0,.36.08,3,3,0,0,0,.76-.2.13.13,0,0,0,.07-.09S57.72,87.51,57.72,87.51Z"/><path class="cls-50" d="M57.59,87.52s0,0,0-.07a2,2,0,0,0-.36-.1.88.88,0,0,0-.36,0,.33.33,0,0,0-.22.11.2.2,0,0,0,0,.27.45.45,0,0,0,.29.06,2.76,2.76,0,0,0,.6-.15s.06,0,.06-.07A.14.14,0,0,1,57.59,87.52Z"/><path class="cls-51" d="M56.94,87.41c.06,0-.13,0-.18,0a.18.18,0,0,0-.11.08.17.17,0,0,0,0,.19s.16.09.15,0S56.75,87.5,56.94,87.41Z"/><path class="cls-46" d="M61.67,85.32a.76.76,0,0,0-.45-.51,1.8,1.8,0,0,0-.68-.21c-.86-.08-1.11.27-1.19.4a.62.62,0,0,0,.14.81,1.45,1.45,0,0,0,1,.25,2.91,2.91,0,0,0,.86-.17A.51.51,0,0,0,61.67,85.32Z"/><path class="cls-47" d="M61.56,85.32A1.26,1.26,0,0,0,61,85a2.22,2.22,0,0,0-.84-.06.68.68,0,0,0-.44.23.5.5,0,0,0,.07.62,1.41,1.41,0,0,0,.76.19,2.54,2.54,0,0,0,.79-.19C61.57,85.7,61.65,85.44,61.56,85.32Z"/><path class="cls-48" d="M61.27,85.44s0,0,0-.1a2.39,2.39,0,0,0-.44-.17,1.09,1.09,0,0,0-.47,0,.37.37,0,0,0-.28.15.31.31,0,0,0,0,.39.51.51,0,0,0,.36.1,3.05,3.05,0,0,0,.78-.18.13.13,0,0,0,.07-.09A.2.2,0,0,0,61.27,85.44Z"/><path class="cls-49" d="M61.19,85.44s.05,0,0-.08l-.39-.15a1.15,1.15,0,0,0-.41,0,.38.38,0,0,0-.25.13.25.25,0,0,0,0,.32.52.52,0,0,0,.31.09,3.09,3.09,0,0,0,.69-.15s.07-.06.06-.08Z"/><path class="cls-50" d="M61.07,85.45s0,0,0-.06l-.32-.11a.88.88,0,0,0-.32,0,.31.31,0,0,0-.2.09.17.17,0,0,0,0,.24.31.31,0,0,0,.24.06,2.13,2.13,0,0,0,.55-.11s.05,0,.05-.05A.07.07,0,0,0,61.07,85.45Z"/><path class="cls-51" d="M60.5,85.33c.06,0-.11,0-.16,0a.17.17,0,0,0-.1.07.16.16,0,0,0,0,.17s.13.08.12,0S60.33,85.4,60.5,85.33Z"/><path class="cls-46" d="M47.45,84a.74.74,0,0,0-.26-.65,1.56,1.56,0,0,0-.6-.42c-.83-.36-1.21-.09-1.34,0a.69.69,0,0,0-.16.87,1.52,1.52,0,0,0,.89.55,2.85,2.85,0,0,0,.93.1A.55.55,0,0,0,47.45,84Z"/><path class="cls-47" d="M47.34,84a1.26,1.26,0,0,0-.47-.49,2.35,2.35,0,0,0-.81-.33.8.8,0,0,0-.53.1.53.53,0,0,0-.15.64,1.43,1.43,0,0,0,.68.43,2.67,2.67,0,0,0,.86.06C47.21,84.34,47.39,84.11,47.34,84Z"/><path class="cls-48" d="M47,84s.06,0,0-.12a2.18,2.18,0,0,0-.38-.31,1.11,1.11,0,0,0-.45-.19.53.53,0,0,0-.33.06.33.33,0,0,0-.1.41.47.47,0,0,0,.32.21,3,3,0,0,0,.84.07s.1,0,.1-.07A.18.18,0,0,0,47,84Z"/><path class="cls-49" d="M46.93,84s.06,0,0-.09a2.12,2.12,0,0,0-.34-.27.91.91,0,0,0-.4-.16.37.37,0,0,0-.29,0,.26.26,0,0,0-.08.34.47.47,0,0,0,.28.18,3.71,3.71,0,0,0,.74.07s.09,0,.09-.06A.11.11,0,0,0,46.93,84Z"/><path class="cls-50" d="M46.81,83.93s0,0,0-.07a2.37,2.37,0,0,0-.27-.2.87.87,0,0,0-.32-.13.35.35,0,0,0-.23,0,.18.18,0,0,0,0,.25.34.34,0,0,0,.23.14,2.35,2.35,0,0,0,.58.06s.07,0,.07,0Z"/><path class="cls-51" d="M46.28,83.63c.07,0-.1-.06-.15-.07a.22.22,0,0,0-.13,0,.17.17,0,0,0,0,.17s.1.13.11.08S46.09,83.65,46.28,83.63Z"/><path class="cls-46" d="M67.27,84.64a.6.6,0,0,0-.34-.42,1.54,1.54,0,0,0-.54-.17c-.68-.08-.89.19-1,.29a.5.5,0,0,0,.09.65,1.21,1.21,0,0,0,.78.22,2.32,2.32,0,0,0,.69-.12A.4.4,0,0,0,67.27,84.64Z"/><path class="cls-47" d="M67.18,84.64a1,1,0,0,0-.45-.26,2,2,0,0,0-.67-.07.51.51,0,0,0-.35.19.36.36,0,0,0,0,.48,1,1,0,0,0,.6.17A1.84,1.84,0,0,0,67,85C67.19,84.94,67.26,84.74,67.18,84.64Z"/><path class="cls-48" d="M67,84.73s0,0,0-.08a2.44,2.44,0,0,0-.35-.15,1,1,0,0,0-.37,0,.35.35,0,0,0-.23.12.25.25,0,0,0,0,.31.41.41,0,0,0,.28.09,3.07,3.07,0,0,0,.63-.13s.06,0,.06-.07A.12.12,0,0,0,67,84.73Z"/><path class="cls-49" d="M66.89,84.73s0,0,0-.07l-.31-.12a1,1,0,0,0-.33,0,.3.3,0,0,0-.2.1.19.19,0,0,0,0,.26.31.31,0,0,0,.24.07,2.08,2.08,0,0,0,.55-.1s.06,0,.06-.06Z"/><path class="cls-50" d="M66.79,84.73s0,0,0,0l-.24-.09a.8.8,0,0,0-.26,0,.26.26,0,0,0-.16.07.13.13,0,0,0,0,.19.25.25,0,0,0,.2,0,1.65,1.65,0,0,0,.44-.08.08.08,0,0,0,0,0Z"/><path class="cls-51" d="M66.34,84.63s-.09,0-.13,0a.12.12,0,0,0-.08,0,.14.14,0,0,0,0,.14s.11.07.1,0S66.21,84.68,66.34,84.63Z"/><path class="cls-52" d="M28.7,60.93a31.73,31.73,0,0,1,8.75.35,48.29,48.29,0,0,1,13.77,4.43,62.64,62.64,0,0,1,13.38,9c2.62,2.37,7.58,6.35,3,8-3.11,1.09-11.54,1.19-18.73-.12a106.25,106.25,0,0,1-22.68-6.6c-5.31-2.3-9.94-5.31-10.71-8.11s2-3.9,3.92-4.63c.67-.26,2.19-.77,2.83-1A25.18,25.18,0,0,1,28.7,60.93Z"/><path class="cls-53" d="M28.06,61.46a34.46,34.46,0,0,1,8.89.26A46.78,46.78,0,0,1,50,65.83a67.88,67.88,0,0,1,12.07,8c1.45,1.15,8,6.09,5.11,7.75-3.53,2-12.48,1-21-.62A84.92,84.92,0,0,1,27.39,75.1c-5-2.17-9.49-4.75-10.35-7.35-.9-2.92,3.11-4.22,4.84-4.74A35.16,35.16,0,0,1,28.06,61.46Z"/><path class="cls-54" d="M32.74,63.74c2.19-.38,3.55-1.78,3.28-2.5.42.28,1,2-2.08,3.22C33.6,64.29,33.29,64,32.74,63.74Z"/><path class="cls-54" d="M23.23,65.59c-1.57.62-5.63.51-7,.2a19.45,19.45,0,0,0,8.14.42C24.09,66.05,23.66,65.87,23.23,65.59Z"/><path class="cls-54" d="M24.44,67c-1.33,1-5.42,1.6-7,1.49a17.22,17.22,0,0,0,8.28-1C25.45,67.36,25,67.23,24.44,67Z"/><path class="cls-54" d="M25.71,68.18c-.51,1.26-5.32,3.23-6.73,3.32,1.59.2,6.28-.77,8.19-2.73C26.81,68.65,26.32,68.38,25.71,68.18Z"/><path class="cls-54" d="M35.91,65.08c2.73,0,6.61-1.67,6.74-2.3.31.29-1.33,2.44-6.13,2.93C36.24,65.52,36.35,65.4,35.91,65.08Z"/><path class="cls-54" d="M38.71,66.79c3.81.44,9-1,10.28-1.43-1.79,1.4-6.12,2-9.75,1.94C39,67.11,39.16,67.11,38.71,66.79Z"/><path class="cls-54" d="M41,68.51a55.79,55.79,0,0,0,13.72-.57C51.49,69.46,44.59,69.26,41.54,69,41.24,68.83,41.45,68.83,41,68.51Z"/><path class="cls-54" d="M42.55,69.58A84.85,84.85,0,0,0,54.43,70a50.77,50.77,0,0,1-11.32.07C42.81,69.9,43,69.9,42.55,69.58Z"/><path class="cls-54" d="M47.64,72.87a84.26,84.26,0,0,0,11.5.91,45.82,45.82,0,0,1-10.56-.39C48.28,73.2,48.11,73.19,47.64,72.87Z"/><path class="cls-54" d="M59.92,78.72a5.3,5.3,0,0,1-.67-.23,57.58,57.58,0,0,0,9.2,1,35.86,35.86,0,0,1-8.15-.41A.5.5,0,0,0,59.92,78.72Z"/><path class="cls-54" d="M51.38,75a88,88,0,0,0,13.39.8,56.53,56.53,0,0,1-12.51-.31A9.46,9.46,0,0,1,51.38,75Z"/><path class="cls-54" d="M46.11,71.92a116.78,116.78,0,0,0,15.29.76c-5.65.7-11.54,0-14.71-.25C46.38,72.24,46.6,72.24,46.11,71.92Z"/><path class="cls-54" d="M45.39,70.82a21.5,21.5,0,0,0,5.72.49,19.61,19.61,0,0,1-5.15,0C45.66,71.13,45.87,71.14,45.39,70.82Z"/><path class="cls-54" d="M49.31,73.89a45.68,45.68,0,0,0,7.56.82,28,28,0,0,1-6.67-.27Z"/><path class="cls-54" d="M53.15,75.93a72.62,72.62,0,0,0,7.82.93,34.41,34.41,0,0,1-7-.46C53.61,76.21,53.65,76.25,53.15,75.93Z"/><path class="cls-54" d="M55.54,77.19a69.27,69.27,0,0,0,7.77.75,29.13,29.13,0,0,1-6.52-.26A12.3,12.3,0,0,1,55.54,77.19Z"/><path class="cls-54" d="M63.13,80.13a2.31,2.31,0,0,0-.73-.28h0l-.13-.07a42.2,42.2,0,0,0,6.64.71,20.64,20.64,0,0,1-5.63-.26Z"/><path class="cls-54" d="M63.56,80.75a.36.36,0,0,0,0-.09,28.35,28.35,0,0,0,5.08,1,15.13,15.13,0,0,1-5.18-.79l0,0Z"/><path class="cls-54" d="M59.76,80.57c1,.6,2.32,1.42,2.41,2.11.5-.64-.22-1.33-1.32-1.87Z"/><path class="cls-54" d="M53.05,77.79c.91.61,5.1,4.09,5,5.22,1.2-1.24-2.39-4.1-3.45-4.64C54.21,78.28,53.67,77.94,53.05,77.79Z"/><path class="cls-54" d="M40.74,73.64c.81.61,5.69,6.16,5.48,7.3,1.29-1.25-2.48-5.84-4-6.88C41.84,74,41.32,73.79,40.74,73.64Z"/><path class="cls-54" d="M47.12,75.52c.87.61,4.58,3.55,5.13,5,.73-1.44-2.85-3.88-3.46-4.3C48.43,76.08,47.72,75.67,47.12,75.52Z"/><path class="cls-54" d="M37.9,72.59c.74.61,3.82,3.57,4.06,5,1-1.39-2-3.86-2.53-4.28C39.09,73.16,38.47,72.75,37.9,72.59Z"/><path class="cls-54" d="M30,70.53c.71,1,.28,4.37-1.27,5.36,2.79-.82,3.36-4,2.64-4.88C31.05,70.88,30.46,70.74,30,70.53Z"/><path class="cls-54" d="M43.31,74.4c1.32.79,5.22,4.56,5.55,6.12C49.8,79,46,75.38,45,74.84Z"/><path class="cls-54" d="M35.42,72.16c1.16.8,5.27,6.37,4.67,7.75,2-2-2.27-6.89-3.15-7.44C36.6,72.37,36,72.32,35.42,72.16Z"/><path class="cls-54" d="M32,71.09c1.39,1,4.11,5.84,3.72,7.5,1.42-2.15-.81-5.87-2.23-7.18C33.14,71.31,32.52,71.26,32,71.09Z"/><path class="cls-54" d="M27.65,68.86c.67,1-2.71,4.06-4.58,5.33,3.38-1.51,6.44-3.6,5.95-4.85C28.74,69.21,28.12,69.07,27.65,68.86Z"/><path class="cls-54" d="M61.51,80.82c1,.6,2.34,1.42,2.44,2.11.49-.64-.23-1.34-1.35-1.87Z"/><path class="cls-54" d="M29.55,70.49c1.34.54,4.71,1.49,7.29,2.26s6.71,1.86,9.24,2.6,8.26,3.13,11.08,4.27a23.35,23.35,0,0,0,6.22,1.85c1.54.13,1.29-.72.36-1.26-.66-.38-3.88-2-5.76-2.75a88.24,88.24,0,0,1-12.52-6.8C43.18,69,40.83,67.57,39,66.35a38.43,38.43,0,0,0-6.91-3.61A17.9,17.9,0,0,0,26,61.56a10.26,10.26,0,0,0-4.74,1.23c-.39.18-.84,1.21.33,2.51A21.46,21.46,0,0,0,29.55,70.49Zm-1.9-2.66a16.37,16.37,0,0,1-4.34-3.56c-.37-.69.2-1.63.18-1.83.57.12.69-.25.69-.25a44.37,44.37,0,0,1,6.37,1.06,25.89,25.89,0,0,1,6.57,3c2.43,1.41,3.66,2.3,5.19,3.36S46.72,72.5,49,73.8a86.74,86.74,0,0,0,9.79,4.84C62.22,80,63.74,80.21,63,80.79c-.24.19-2.19-.28-4.62-1.26-1.75-.71-3.63-1.4-5.87-2.34-1.52-.65-6.3-2.44-9.84-3.61-2.24-.76-5.54-1.7-8-2.63A63.08,63.08,0,0,1,27.65,67.83Z"/><path class="cls-55" d="M28,63.17l6.2,3.76c1,.58,14.23,6.91,12.49,6.84-1,0-14.35-5.61-14.81-5.8-2.95-1.26-6.42-2.46-8.56-3.7C22,63.48,22,62.74,22,62.74a26,26,0,0,1,2.9-.73A6.25,6.25,0,0,1,28,63.17Z"/><path class="cls-56" d="M33.07,67c1.41.87,9,4.43,8.72,4.55s-7.95-3.21-10.49-4.31c-2.08-.92-8.15-3.27-8.8-4.61A7.83,7.83,0,0,1,24,62.1C26.91,62.84,30.19,65.14,33.07,67Z"/><path class="cls-56" d="M30.31,70.21c1.35.54,4.12,1.54,6.7,2.32s6.59,2,9.12,2.7,8.3,3.13,11.11,4.27a27.44,27.44,0,0,0,5.28,1.7c1.58.18,1.53-.69.73-1.08s-2.16-1.13-4-1.89a104.41,104.41,0,0,1-14.06-7.42c-2.28-1.63-4.69-3.07-6.64-4.28a36.47,36.47,0,0,0-6.33-3.28,23.27,23.27,0,0,0-6.78-1.53,9.08,9.08,0,0,0-3,.62c-1.79.67-.72,2.1.07,3C23.06,66.1,25.29,68.15,30.31,70.21ZM27,68c-1.62-.94-3.75-2.49-4.24-3.47-.91-1.87,1.53-2.55,2.94-2.36a30.46,30.46,0,0,1,12.39,4.48,65.54,65.54,0,0,1,6,3.83C45.68,71.5,47.68,72.75,50,74a80.78,80.78,0,0,0,9.06,4.31c3.41,1.32,5,2.16,4.4,2.5s-1.51.25-5.17-1.16c-1.78-.7-3.88-1.47-6.17-2.4s-5.72-2.24-9.9-3.53c-2.28-.72-5.48-1.73-8-2.62A51.15,51.15,0,0,1,27,68Z"/><path class="cls-57" d="M22.51,74.16a51,51,0,0,0,5.65,1.5,43,43,0,0,0,7.56,1.83c2.47.39,5,.76,7.44,1.07A41,41,0,0,0,49.8,79a16,16,0,0,0,6.72-1.49,7.2,7.2,0,0,0,3.93-5.2c0-.1,0-.83,0-.93s.28.42.41.32c1.44,1.08,2.7,2.12,3.69,3,2.62,2.37,7.58,6.35,3,8-3.11,1.09-11.54,1.19-18.73-.12a106.25,106.25,0,0,1-22.68-6.6c-1.29-.56-2.54-1.16-3.7-1.79Z"/><path class="cls-58" d="M48.86,82.67a106.77,106.77,0,0,1-22.73-6.61C20,73.4,16,70.41,15.34,67.86c-.77-3,2.34-4.16,4-4.79.38-.15,1-.37,1.64-.58l1.19-.42a25.22,25.22,0,0,1,6.5-1.28c.9-.08,1.81-.13,2.72-.15a31.23,31.23,0,0,1,6.07.5,48.8,48.8,0,0,1,13.82,4.44,63.57,63.57,0,0,1,13.42,9l.6.54c2,1.76,4.67,4.17,4.27,6-.16.73-.8,1.29-1.92,1.69a25,25,0,0,1-7.07.84h0A62.13,62.13,0,0,1,48.86,82.67ZM28.71,61.07a24.94,24.94,0,0,0-6.42,1.26l-1.19.42c-.62.21-1.26.43-1.64.58-2.2.82-4.48,1.92-3.83,4.47s4.55,5.38,10.63,8A106,106,0,0,0,48.91,82.4a63.33,63.33,0,0,0,11.67,1,25.28,25.28,0,0,0,7-.83c1-.36,1.59-.86,1.73-1.48.37-1.66-2.27-4-4.19-5.72l-.6-.54a62.79,62.79,0,0,0-13.35-9,48.55,48.55,0,0,0-13.73-4.42,31.47,31.47,0,0,0-6-.49C30.51,60.93,29.6,61,28.71,61.07Z"/><path class="cls-59" d="M15,68.57c-.43.4-1.4,3.28-1.08,3.83,2,3.76,14.27,11,26.48,10.94C32.37,81.9,17.63,73.65,15,68.57Z"/><path class="cls-23" d="M131.05,72.64c-.86-3.28-3.75-3.85-5.88-4.41a16.84,16.84,0,0,1-3.84-2.13,15.33,15.33,0,0,1-3-3c-1-1.82-2.21-4.32-5.86-4.44s-9,1.24-12.91,7.6c-6.15,9.88-1,18.09,3.09,21.15s13.79,6.09,23-1.48C131.55,81,131.92,75.93,131.05,72.64Z"/><path class="cls-24" d="M123.9,68.49c1.16.28,2.31,1.28,1.8,2.32-.61,1.22-1.81,2.75-4,2.1-3.37-1-4.15-3.61-7.67-4.6s-7.18.09-7.67-3.1,1.57-5.37,4.85-5.4c2.44,0,3.88-.15,6.6,4.08A10,10,0,0,0,123.9,68.49Z"/><path class="cls-25" d="M113.4,65.5a2.27,2.27,0,0,1-3,0c-1-.77-1.31-2-.67-2.71a2.27,2.27,0,0,1,3,0C113.75,63.56,114.05,64.77,113.4,65.5Z"/><path class="cls-26" d="M46,76.83a11.45,11.45,0,0,0,4.08,9.77c4.87,4.07,14.08,5.5,23.29,4.32,9-1.15,13.9-5.6,14-15C67.29,74,46,76.83,46,76.83Z"/><ellipse class="cls-25" cx="66.65" cy="76.55" rx="20.67" ry="10.96" transform="translate(-1.05 0.92) rotate(-0.79)"/><ellipse class="cls-26" cx="67.01" cy="76.9" rx="17.35" ry="9.2" transform="translate(-1.05 0.93) rotate(-0.79)"/><path class="cls-27" d="M69.41,76.9c-1.28-.42-1.9-1.23-1.5-2,.94-1.84,1.31-3.9-.63-3.91-1.26,0-1.67,2.16-1.61,3.94,0,.77-.84,1.47-2.19,1.75-3.32.71-6.48,2.23-5.8,3s3.66-.23,6.1-1.26a5.81,5.81,0,0,1,4.56.13c2.13,1.17,4.94,2.25,5.7,1.61S72.07,77.77,69.41,76.9Z"/><path class="cls-60" d="M172.36,196.73c-4.87,5.38-21.91,9.75-40.84,10.23l-1.28,0a118.63,118.63,0,0,1-19-1.26c-10.7-1.61-19.34-3.36-23.93-6.51a15,15,0,0,1-1.66-1.3c-4.7-4.36,1.24-11.47,5-11.52L167,185.35c2.32,0,5.42,2.48,6.47,5.51A5.62,5.62,0,0,1,172.36,196.73Z"/><path class="cls-3" d="M245.16,81.54c.08-.73-12.27,36.41-108,39.32C20,124.42,10.48,84,10.58,84.76c-.07,1.89-.1,3.77-.07,5.67,0,1.49.08,3,.16,4.47.18,3.33.52,6.63,1,9.88a106.43,106.43,0,0,0,7.51,26.44c0,.06.05.12.08.19a108.6,108.6,0,0,0,5,10,112.16,112.16,0,0,0,18.71,24.65c.85.84,1.71,1.68,2.59,2.49,1.28,1.2,2.59,2.38,3.93,3.52l.11.09q2.61,2.24,5.35,4.3a118.79,118.79,0,0,0,15.77,10.06q3,1.6,6.17,3c.92.43,1.86.84,2.8,1.24,2.47,1.06,5,2,7.52,2.94a120.92,120.92,0,0,0,12.9,3.73,122.89,122.89,0,0,0,24.76,3.1l2.28,0h0c.34,0,.67,0,1,0h1.13l1.3,0,1,0h0c.77,0,1.52-.05,2.28-.09a121.9,121.9,0,0,0,36.84-7.58c2.82-1,5.58-2.2,8.28-3.45,26.9-12.42,48-34.32,58.71-61.05a106.67,106.67,0,0,0,6.86-26.82c.4-3.27.64-6.59.73-9.93,0-1.48.06-3,0-4.45C245.35,85.31,245.28,83.42,245.16,81.54Z"/><path class="cls-61" d="M244.36,102.06c-4,7.5-14.79,15.52-30,22.11s-33.41,11.29-53.12,13.92a275.43,275.43,0,0,1-32.56,2.35c-31.95.44-62.53-4.5-86.08-13.92-15.74-6.29-26.84-14.21-30.89-21.74a106.48,106.48,0,0,0,7.59,26.63,107.49,107.49,0,0,0,10.08,5.38q3.71,1.76,7.79,3.39,3.21,1.27,6.57,2.46c24.26,8.51,54.17,12.92,85.14,12.5,9.06-.13,18-.67,26.77-1.59,23.9-2.53,46.2-8,64.51-15.88a121.59,121.59,0,0,0,17.38-9.1l.25-.16a106.67,106.67,0,0,0,6.86-26.82Z"/><path class="cls-61" d="M235.12,134.48c-.27.31-.56.61-.86.91a49.46,49.46,0,0,1-9.35,7.24l-.11.06-.38.23c-.59.36-1.17.7-1.75,1l-.91.5c-.48.27-1,.52-1.46.78s-.82.43-1.25.64l-.05,0-.6.3-.63.31c-1.07.52-2.2,1-3.35,1.54l-1,.45-.24.09c-.36.16-.72.32-1.1.47l-.61.25,0,0-.67.28-.18.06-.65.26h-.4l-.22.23-.48.19-.51.19-.55.21h-.11l-.25.13-.58.21c-.36.14-.72.26-1.08.39l-.11,0-1.12.39-1.28.43-.09,0-.54.19-.61.19-.64.21-.09,0-1.3.41-.49.15c-1.21.37-2.43.73-3.63,1.07l-.76.22-1.5.41-.32.08-.06,0-1.12.3-.23.06c-1.51.39-3,.77-4.54,1.11l-2.19.51c-1.36.3-2.73.59-4.19.89l-1.64.33c-2.73.53-5.53,1-8.35,1.48l-1,.15c-1.88.29-3.62.55-5.3.77l-1.76.23-3.74.46-.29,0h0l-1.83.2c-1.5.16-3,.32-4.58.46l-.32,0h-.6l-.17,0h-.12l-1.38.12-.56,0h-.13l-.27,0h-.13l-.16,0h-.39l-.47,0h0l-.25,0h-.06l-.55,0h-.09c-1.93.14-3.93.26-5.9.36l-.58,0-.47,0h-.06l-.63,0-3.48.13-.42,0-1,0h-.51q-.48,0-1,0h-.08l-.64,0h-1.51l-.92,0h-.35l-2.78,0H125c-1.39,0-2.67,0-3.91,0-3.67-.05-7.37-.16-11-.33H110c-7.37-.36-14.63-1-21.57-1.89l-.1,0h-.06c-2.26-.3-4.33-.59-6.33-.9-5.94-.92-11.7-2-17.13-3.35-1.37-.33-2.63-.65-3.83-1l-.39-.11-1-.26-1.42-.4-.08,0-.09,0-.14,0-.49-.14h-.06l-1-.29-.07,0A119.85,119.85,0,0,1,38,147.84l-.41-.2c-2.07-1-4.06-2.1-5.92-3.23a49.89,49.89,0,0,1-6.74-4.86c-.78-.68-1.51-1.37-2.18-2.06l-.12-.13a3.58,3.58,0,0,1-.27-.29l-.05,0c-.25-.27-.5-.55-.73-.82l-.31-.36c.93,1.91,1.9,3.78,2.94,5.62.58,1,1.19,2.09,1.81,3.12q1.84,1.35,3.95,2.63c1.95,1.19,4,2.32,6.16,3.37l.45.22a122.88,122.88,0,0,0,18.76,7.09l.07,0,1,.29,0,0,.55.16.29.07,1.42.4,1,.26.45.12c1.22.33,2.49.65,3.89,1,5.51,1.32,11.37,2.46,17.39,3.39,2,.32,4.11.62,6.4.91H88c7.05.91,14.42,1.56,21.9,1.93H110c3.64.17,7.36.29,11,.33,1.25,0,2.55,0,3.92,0h1.62l2.77,0h.38l.93,0h.5l.71,0h.3l.64,0h0l1,0h.44l1,0h.42c1.18,0,2.36-.08,3.5-.14l.7,0,.51,0,.54,0c2-.1,4-.22,6-.36h.08l.58,0,.33,0,.5,0,.31,0h.26l.19,0h.07l.2,0,.65-.05,1.4-.12h.38l.25,0h0l.28,0,.15,0h.06c1.56-.14,3.13-.3,4.66-.46l2.06-.23h.32l.07,0,3.49-.43,1.77-.23c1.71-.23,3.47-.49,5.35-.78l.6-.09h0l.39-.06c2.83-.45,5.68-1,8.45-1.5l1.65-.33c1.48-.3,2.88-.59,4.26-.9L188,160c1.52-.36,3.08-.74,4.61-1.14l.22-.06,1.17-.31.38-.1L196,158l.76-.22c1.22-.34,2.46-.71,3.7-1.09l.5-.15,1.29-.41.14,0,.64-.2.61-.2.58-.2.08,0,1.3-.44,1.15-.4.11,0,1.1-.4.57-.21.13,0,.83-.31.48-.18.13-.06.43-.16.46,0,.22-.23.61-.25.17-.06.72-.3.65-.26,1.12-.47.22-.09,0,0,1-.45c1.19-.52,2.36-1.06,3.46-1.59l.65-.32.63-.32,0,0c.44-.22.88-.44,1.3-.67s1-.54,1.51-.8l1-.53c.61-.34,1.22-.7,1.81-1.06l.43-.26.1-.06c1.52-.93,2.95-1.89,4.28-2.86l0,0q2.29-4,4.25-8.1Z"/><path class="cls-62" d="M79.62,190.82a122.16,122.16,0,0,0,49.9,9.81c49.64-.68,91.69-30.58,108.34-72.26a106.36,106.36,0,0,0,6.86-26.85c.4-3.26.65-6.57.74-9.91,0-1.48,0-3,0-4.47,0-1.9-.1-3.79-.22-5.66a21.25,21.25,0,0,1-4.86,10.73A36.52,36.52,0,0,1,236.87,96c-12.8,12-39,21.6-71.7,26.05-2.29,12.81-7.93,35.24-20.67,49.8C131.2,187.06,108.56,192.57,79.62,190.82Z"/></g></g></svg>