<?xml version="1.0" encoding="UTF-8"?><svg id="a" xmlns="http://www.w3.org/2000/svg" viewBox="0 0 256 200"><defs><style>.b{fill:#d8ea8c;}.c{fill:#cedd7a;}.d{fill:#518e11;}.e{fill:#397207;}.f{fill:#e8f9aa;}</style></defs><g><polygon class="e" points="44.34 53.6 49.58 56.05 56.72 57.88 65.05 58.92 73.77 59.07 82.01 58.31 88.98 56.72 93.98 54.45 96.53 51.72 96.39 48.81 93.55 45.99 88.31 43.54 81.17 41.71 72.83 40.67 64.12 40.52 55.88 41.28 48.91 42.87 43.91 45.14 41.35 47.87 41.5 50.78 44.34 53.6"/><path class="d" d="M64.7,56.13s6.21,.61,11.13-.05l.45,2.74-2.18,.19-7.56-.11-1.8-.07-.04-2.7Z"/><polygon class="d" points="56.95 55.31 57.28 57.86 49.82 56.14 49.85 53.68 56.95 55.31"/><polygon class="d" points="86.12 57.36 85.53 54.64 89.66 53.53 91.92 52.63 92.51 55.22 89.38 56.63 86.12 57.36"/><g><polygon class="e" points="43.49 51.45 48.17 53.7 54.91 55.44 63.06 56.52 71.83 56.83 80.35 56.33 87.78 55.08 93.41 53.2 96.67 50.87 97.26 48.31 95.1 45.79 90.43 43.55 83.68 41.8 75.53 40.72 66.76 40.41 58.25 40.91 50.81 42.16 45.19 44.05 41.92 46.38 41.33 48.93 43.49 51.45"/><path class="b" d="M57.33,55.13c-4.27-.68-8.01-1.7-10.66-3.01-7.45-3.67-3.48-8.21,8.86-10.14,12.34-1.93,28.39-.53,35.84,3.14,7.45,3.67,3.48,8.21-8.86,10.14-7.96,1.25-17.44,1.11-25.18-.13"/><path class="f" d="M56.88,42.59c-11.47,1.8-15.26,5.96-8.47,9.31,6.79,3.34,21.59,4.6,33.06,2.8,11.46-1.8,15.25-5.96,8.46-9.31-6.79-3.34-21.59-4.6-33.06-2.8Z"/><path class="c" d="M64.22,44.07c-.26,.02,1.91,.28,4.71,.27,2.8-.01,3.56,.69,3.56,.69,0,0-1.59,.48-6.01-.34,0,0-1.71-.39-2.4-.28,0,0,.25,.1,1.65,.32,1.35,.21,4.31,1.31,3.13,1.26-1.18-.05-2.85-.14-4.15-.94-1.31-.81-1.99-.78-1.99-.78,0,0,3.91,2.54,5.35,3.12,1.45,.59,1.41,.21,2.24,.04,.82-.17,5.74-2.49,6-2.69,.26-.2-6.01-1.12-12.08-.67Z"/><path class="c" d="M84.1,48.38c-.19,.03-2.37,.06-4.17,.03-1.8-.03-4.58-.29-5.03-.18-.44,.11-3.06,.09-3.52-.26-.47-.35,5.07-2.7,5.89-2.83,.82-.13,3.01-.24,6.57,2.66,0,0,0,.3-.88-.08,0,0-3.68-1.75-4.91-1.41-1.85,.52,2.98,1.17,5.08,1.73,0,0-8.58-1.54-8.46-.71,.12,.84,9.21,.85,9.21,.85l.23,.2Z"/><path class="c" d="M84.16,48.94s-9.7-.15-10.63-.16c-.93,0-2.97-.27-2.56,.21,.4,.48,4.99,2.91,5.86,2.93,.87,.02,6.94-1.94,7.16-2.4,.22-.46-3.68,1.74-6.07,1.18,0,0-1.31-.73,5.4-1.39,0,0-9.78,.95-8.73,.24,0,0,3.03-.59,9.18-.43,0,0,.44-.03,.39-.18Z"/><path class="c" d="M61.49,45.47s-1.62-.8-.63-.64c.99,.16,1.75,.7,2.76,1.24,1.02,.54,.61,.22,1.68,.79,.71,.38,1.68,.79,1.55,.88-.13,.1,.71,.47-.83,.33-1.55-.15-4.03-.15-4.72-.12-.69,.03-6.59-.06-8.14-.12-1.55-.07,4.4-2.83,5.46-2.96,1.07-.13-.11,.6-.55,.71-.45,.11-2.84,1.3-.89,1.69,1.96,.39,2.19-.85,2.27-1.17,.09-.32,.03-1.17,.53-1.13,.49,.04,.45,.63,.26,.66-.19,.03,1.04,1.82,2.5,1.36,1.47-.46-1.25-1.51-1.25-1.51Z"/><path class="c" d="M69.1,49.1s.26-.16,1.93,.75c1.67,.9,4.43,2.26,3.91,2.42-.51,.16-7.11,.22-9.4,.08-2.29-.15,7.25-.36,4.73-.74-2.52-.38-5.8,.17-6.2,.51,0,0-1.5,.04-1.17-.17,.33-.21,8.35-.96,6.3-1.76,0,0-1.6-.33-6.44,1.5,0,0,2.63-2.1,6.34-2.57Z"/><path class="c" d="M60.89,51.51s6.85-2.47,5.15-2.94c-1.7-.47-12.12-.24-12.12-.24,0,0,3.28,2.26,5.33,2.75,0,0-2.62-1.44-1.23-1.75,1.38-.3,1.18,1.51,1.96,1.82,0,0,.27-.28,.26-.89-.01-.62,1.98-1.4,3.14-1.11,0,0,1.75,.66-2.78,2.11-.48,.16,.29,.27,.29,.27Z"/></g></g><g><polygon class="e" points="34.61 88.53 39.85 90.97 46.98 92.81 55.32 93.85 64.03 94 72.28 93.24 79.25 91.64 84.25 89.37 86.8 86.64 86.65 83.73 83.81 80.91 78.58 78.47 71.44 76.63 63.1 75.59 54.39 75.44 46.15 76.2 39.18 77.79 34.17 80.07 31.62 82.79 31.77 85.71 34.61 88.53"/><path class="d" d="M54.97,91.06s6.21,.61,11.13-.05l.45,2.74-2.18,.19-7.56-.11-1.8-.07-.04-2.7Z"/><polygon class="d" points="47.22 90.23 47.55 92.78 40.08 91.06 40.11 88.6 47.22 90.23"/><polygon class="d" points="76.39 92.28 75.8 89.56 79.93 88.45 82.19 87.55 82.78 90.14 79.65 91.55 76.39 92.28"/><g><polygon class="e" points="33.76 86.37 38.43 88.62 45.17 90.37 53.33 91.45 62.09 91.75 70.61 91.26 78.05 90.01 83.67 88.12 86.94 85.79 87.53 83.24 85.37 80.72 80.7 78.47 73.95 76.73 65.79 75.64 57.03 75.34 48.52 75.83 41.08 77.08 35.45 78.97 32.19 81.3 31.6 83.85 33.76 86.37"/><path class="b" d="M47.6,90.05c-4.27-.68-8.01-1.7-10.66-3.01-7.45-3.67-3.48-8.21,8.86-10.14,12.34-1.93,28.39-.53,35.84,3.14,7.45,3.67,3.48,8.21-8.86,10.14-7.96,1.25-17.44,1.11-25.18-.13"/><path class="f" d="M47.14,77.52c-11.47,1.8-15.26,5.96-8.47,9.31,6.79,3.34,21.59,4.6,33.06,2.8,11.46-1.8,15.25-5.96,8.46-9.31-6.79-3.34-21.59-4.6-33.06-2.8Z"/><path class="c" d="M54.48,79c-.26,.02,1.91,.28,4.71,.27,2.8-.01,3.56,.69,3.56,.69,0,0-1.59,.48-6.01-.34,0,0-1.71-.39-2.4-.28,0,0,.25,.1,1.65,.32,1.35,.21,4.31,1.31,3.13,1.26-1.18-.05-2.85-.14-4.15-.94-1.31-.81-1.99-.78-1.99-.78,0,0,3.91,2.54,5.35,3.12,1.45,.59,1.41,.21,2.24,.04,.82-.17,5.74-2.49,6-2.69,.26-.2-6.01-1.12-12.08-.67Z"/><path class="c" d="M74.36,83.3c-.19,.03-2.37,.06-4.17,.03-1.8-.03-4.58-.29-5.03-.18-.44,.11-3.06,.09-3.52-.26-.47-.35,5.07-2.7,5.89-2.83,.82-.13,3.01-.24,6.57,2.66,0,0,0,.3-.88-.08,0,0-3.68-1.75-4.91-1.41-1.85,.52,2.98,1.17,5.08,1.73,0,0-8.58-1.54-8.46-.71,.12,.84,9.21,.85,9.21,.85l.23,.2Z"/><path class="c" d="M74.42,83.86s-9.7-.15-10.63-.16c-.93,0-2.97-.27-2.56,.21,.4,.48,4.99,2.91,5.86,2.93,.87,.02,6.94-1.94,7.16-2.4,.22-.46-3.68,1.74-6.07,1.18,0,0-1.31-.73,5.4-1.39,0,0-9.78,.95-8.73,.24,0,0,3.03-.59,9.18-.43,0,0,.44-.03,.39-.18Z"/><path class="c" d="M51.76,80.4s-1.62-.8-.63-.64c.99,.16,1.75,.7,2.76,1.24,1.02,.54,.61,.22,1.68,.79,.71,.38,1.68,.79,1.55,.88-.13,.1,.71,.47-.83,.33-1.55-.15-4.03-.15-4.72-.12-.69,.03-6.59-.06-8.14-.12-1.55-.07,4.4-2.83,5.46-2.96,1.07-.13-.11,.6-.55,.71-.45,.11-2.84,1.3-.89,1.69,1.96,.39,2.19-.85,2.27-1.17,.09-.32,.03-1.17,.53-1.13,.49,.04,.45,.63,.26,.66-.19,.03,1.04,1.82,2.5,1.36,1.47-.46-1.25-1.51-1.25-1.51Z"/><path class="c" d="M59.37,84.02s.26-.16,1.93,.75c1.67,.9,4.43,2.26,3.91,2.42-.51,.16-7.11,.22-9.4,.08-2.29-.15,7.25-.36,4.73-.74-2.52-.38-5.8,.17-6.2,.51,0,0-1.5,.04-1.17-.17,.33-.21,8.35-.96,6.3-1.76,0,0-1.6-.33-6.44,1.5,0,0,2.63-2.1,6.34-2.57Z"/><path class="c" d="M51.16,86.44s6.85-2.47,5.15-2.94c-1.7-.47-12.12-.24-12.12-.24,0,0,3.28,2.26,5.33,2.75,0,0-2.62-1.44-1.23-1.75,1.38-.3,1.18,1.51,1.96,1.82,0,0,.27-.28,.26-.89-.01-.62,1.98-1.4,3.14-1.11,0,0,1.75,.66-2.78,2.11-.48,.16,.29,.27,.29,.27Z"/></g></g><g><polygon class="e" points="69.55 93.42 74.8 95.87 81.93 97.7 90.26 98.74 98.98 98.89 107.23 98.13 114.19 96.54 119.19 94.27 121.74 91.54 121.6 88.63 118.76 85.81 113.52 83.36 106.38 81.53 98.05 80.49 89.33 80.34 81.09 81.1 74.12 82.69 69.12 84.96 66.57 87.69 66.71 90.6 69.55 93.42"/><path class="d" d="M89.91,95.95s6.21,.61,11.13-.05l.45,2.74-2.18,.19-7.56-.11-1.8-.07-.04-2.7Z"/><polygon class="d" points="82.16 95.13 82.49 97.68 75.03 95.96 75.06 93.5 82.16 95.13"/><polygon class="d" points="111.33 97.18 110.74 94.46 114.88 93.35 117.13 92.45 117.73 95.04 114.59 96.45 111.33 97.18"/><g><polygon class="e" points="68.7 91.27 73.38 93.52 80.12 95.26 88.27 96.34 97.04 96.65 105.56 96.15 112.99 94.9 118.62 93.02 121.88 90.69 122.47 88.13 120.32 85.61 115.65 83.37 108.9 81.62 100.74 80.54 91.98 80.23 83.47 80.73 76.02 81.98 70.4 83.87 67.13 86.2 66.55 88.75 68.7 91.27"/><path class="b" d="M82.54,94.95c-4.27-.68-8.01-1.7-10.66-3.01-7.45-3.67-3.48-8.21,8.86-10.14,12.34-1.93,28.39-.53,35.84,3.14,7.45,3.67,3.48,8.21-8.86,10.14-7.96,1.25-17.44,1.11-25.18-.13"/><path class="f" d="M82.09,82.41c-11.47,1.8-15.26,5.96-8.47,9.31,6.79,3.34,21.59,4.6,33.06,2.8,11.46-1.8,15.25-5.96,8.46-9.31-6.79-3.34-21.59-4.6-33.06-2.8Z"/><path class="c" d="M89.43,83.89c-.26,.02,1.91,.28,4.71,.27,2.8-.01,3.56,.69,3.56,.69,0,0-1.59,.48-6.01-.34,0,0-1.71-.39-2.4-.28,0,0,.25,.1,1.65,.32,1.35,.21,4.31,1.31,3.13,1.26-1.18-.05-2.85-.14-4.15-.94-1.31-.81-1.99-.78-1.99-.78,0,0,3.91,2.54,5.35,3.12,1.45,.59,1.41,.21,2.24,.04,.82-.17,5.74-2.49,6-2.69,.26-.2-6.01-1.12-12.08-.67Z"/><path class="c" d="M109.31,88.2c-.19,.03-2.37,.06-4.17,.03-1.8-.03-4.58-.29-5.03-.18-.44,.11-3.06,.09-3.52-.26-.47-.35,5.07-2.7,5.89-2.83,.82-.13,3.01-.24,6.57,2.66,0,0,0,.3-.88-.08,0,0-3.68-1.75-4.91-1.41-1.85,.52,2.98,1.17,5.08,1.73,0,0-8.58-1.54-8.46-.71,.12,.84,9.21,.85,9.21,.85l.23,.2Z"/><path class="c" d="M109.37,88.76s-9.7-.15-10.63-.16c-.93,0-2.97-.27-2.56,.21,.4,.48,4.99,2.91,5.86,2.93,.87,.02,6.94-1.94,7.16-2.4,.22-.46-3.68,1.74-6.07,1.18,0,0-1.31-.73,5.4-1.39,0,0-9.78,.95-8.73,.24,0,0,3.03-.59,9.18-.43,0,0,.44-.03,.39-.18Z"/><path class="c" d="M86.7,85.29s-1.62-.8-.63-.64c.99,.16,1.75,.7,2.76,1.24,1.02,.54,.61,.22,1.68,.79,.71,.38,1.68,.79,1.55,.88-.13,.1,.71,.47-.83,.33-1.55-.15-4.03-.15-4.72-.12-.69,.03-6.59-.06-8.14-.12-1.55-.07,4.4-2.83,5.46-2.96,1.07-.13-.11,.6-.55,.71-.45,.11-2.84,1.3-.89,1.69,1.96,.39,2.19-.85,2.27-1.17,.09-.32,.03-1.17,.53-1.13,.49,.04,.45,.63,.26,.66-.19,.03,1.04,1.82,2.5,1.36,1.47-.46-1.25-1.51-1.25-1.51Z"/><path class="c" d="M94.32,88.92s.26-.16,1.93,.75c1.67,.9,4.43,2.26,3.91,2.42-.51,.16-7.11,.22-9.4,.08-2.29-.15,7.25-.36,4.73-.74-2.52-.38-5.8,.17-6.2,.51,0,0-1.5,.04-1.17-.17,.33-.21,8.35-.96,6.3-1.76,0,0-1.6-.33-6.44,1.5,0,0,2.63-2.1,6.34-2.57Z"/><path class="c" d="M86.1,91.33s6.85-2.47,5.15-2.94c-1.7-.47-12.12-.24-12.12-.24,0,0,3.28,2.26,5.33,2.75,0,0-2.62-1.44-1.23-1.75,1.38-.3,1.18,1.51,1.96,1.82,0,0,.27-.28,.26-.89-.01-.62,1.98-1.4,3.14-1.11,0,0,1.75,.66-2.78,2.11-.48,.16,.29,.27,.29,.27Z"/></g></g><g><polygon class="e" points="74.12 98.67 79.36 101.12 86.5 102.95 94.83 103.99 103.55 104.14 111.79 103.38 118.76 101.79 123.76 99.52 126.31 96.79 126.16 93.88 123.32 91.06 118.09 88.61 110.95 86.78 102.61 85.74 93.9 85.59 85.66 86.35 78.69 87.94 73.68 90.21 71.13 92.94 71.28 95.85 74.12 98.67"/><path class="d" d="M94.48,101.2s6.21,.61,11.13-.05l.45,2.74-2.18,.19-7.56-.11-1.8-.07-.04-2.7Z"/><polygon class="d" points="86.73 100.38 87.06 102.93 79.6 101.21 79.62 98.75 86.73 100.38"/><polygon class="d" points="115.9 102.43 115.31 99.71 119.44 98.6 121.7 97.7 122.29 100.29 119.16 101.7 115.9 102.43"/><g><polygon class="e" points="73.27 96.52 77.94 98.77 84.69 100.51 92.84 101.59 101.6 101.9 110.12 101.4 117.56 100.15 123.18 98.27 126.45 95.93 127.04 93.38 124.88 90.86 120.21 88.62 113.46 86.87 105.31 85.79 96.54 85.48 88.03 85.98 80.59 87.23 74.96 89.11 71.7 91.45 71.11 94 73.27 96.52"/><path class="b" d="M87.11,100.2c-4.27-.68-8.01-1.7-10.66-3.01-7.45-3.67-3.48-8.21,8.86-10.14,12.34-1.93,28.39-.53,35.84,3.14,7.45,3.67,3.48,8.21-8.86,10.14-7.96,1.25-17.44,1.11-25.18-.13"/><path class="f" d="M86.65,87.66c-11.47,1.8-15.26,5.96-8.47,9.31,6.79,3.34,21.59,4.6,33.06,2.8,11.46-1.8,15.25-5.96,8.46-9.31-6.79-3.34-21.59-4.6-33.06-2.8Z"/><path class="c" d="M93.99,89.14c-.26,.02,1.91,.28,4.71,.27,2.8-.01,3.56,.69,3.56,.69,0,0-1.59,.48-6.01-.34,0,0-1.71-.39-2.4-.28,0,0,.25,.1,1.65,.32,1.35,.21,4.31,1.31,3.13,1.26-1.18-.05-2.85-.14-4.15-.94-1.31-.81-1.99-.78-1.99-.78,0,0,3.91,2.54,5.35,3.12,1.45,.59,1.41,.21,2.24,.04,.82-.17,5.74-2.49,6-2.69,.26-.2-6.01-1.12-12.08-.67Z"/><path class="c" d="M113.87,93.45c-.19,.03-2.37,.06-4.17,.03-1.8-.03-4.58-.29-5.03-.18-.44,.11-3.06,.09-3.52-.26-.47-.35,5.07-2.7,5.89-2.83,.82-.13,3.01-.24,6.57,2.66,0,0,0,.3-.88-.08,0,0-3.68-1.75-4.91-1.41-1.85,.52,2.98,1.17,5.08,1.73,0,0-8.58-1.54-8.46-.71,.12,.84,9.21,.85,9.21,.85l.23,.2Z"/><path class="c" d="M113.93,94.01s-9.7-.15-10.63-.16c-.93,0-2.97-.27-2.56,.21,.4,.48,4.99,2.91,5.86,2.93,.87,.02,6.94-1.94,7.16-2.4,.22-.46-3.68,1.74-6.07,1.18,0,0-1.31-.73,5.4-1.39,0,0-9.78,.95-8.73,.24,0,0,3.03-.59,9.18-.43,0,0,.44-.03,.39-.18Z"/><path class="c" d="M91.27,90.54s-1.62-.8-.63-.64c.99,.16,1.75,.7,2.76,1.24,1.02,.54,.61,.22,1.68,.79,.71,.38,1.68,.79,1.55,.88-.13,.1,.71,.47-.83,.33-1.55-.15-4.03-.15-4.72-.12-.69,.03-6.59-.06-8.14-.12-1.55-.07,4.4-2.83,5.46-2.96,1.07-.13-.11,.6-.55,.71-.45,.11-2.84,1.3-.89,1.69,1.96,.39,2.19-.85,2.27-1.17,.09-.32,.03-1.17,.53-1.13,.49,.04,.45,.63,.26,.66-.19,.03,1.04,1.82,2.5,1.36,1.47-.46-1.25-1.51-1.25-1.51Z"/><path class="c" d="M98.88,94.17s.26-.16,1.93,.75c1.67,.9,4.43,2.26,3.91,2.42-.51,.16-7.11,.22-9.4,.08-2.29-.15,7.25-.36,4.73-.74-2.52-.38-5.8,.17-6.2,.51,0,0-1.5,.04-1.17-.17,.33-.21,8.35-.96,6.3-1.76,0,0-1.6-.33-6.44,1.5,0,0,2.63-2.1,6.34-2.57Z"/><path class="c" d="M90.67,96.58s6.85-2.47,5.15-2.94c-1.7-.47-12.12-.24-12.12-.24,0,0,3.28,2.26,5.33,2.75,0,0-2.62-1.44-1.23-1.75,1.38-.3,1.18,1.51,1.96,1.82,0,0,.27-.28,.26-.89-.01-.62,1.98-1.4,3.14-1.11,0,0,1.75,.66-2.78,2.11-.48,.16,.29,.27,.29,.27Z"/></g></g><g><polygon class="e" points="62.87 77.34 68.11 79.79 75.24 81.62 83.57 82.66 92.29 82.81 100.54 82.05 107.5 80.46 112.51 78.19 115.05 75.46 114.91 72.54 112.07 69.73 106.84 67.28 99.69 65.45 91.36 64.4 82.64 64.26 74.41 65.02 67.44 66.61 62.43 68.88 59.88 71.61 60.03 74.52 62.87 77.34"/><path class="d" d="M83.22,79.87s6.21,.61,11.13-.05l.45,2.74-2.18,.19-7.56-.11-1.8-.07-.04-2.7Z"/><polygon class="d" points="75.48 79.05 75.81 81.6 68.34 79.88 68.37 77.42 75.48 79.05"/><polygon class="d" points="104.64 81.1 104.05 78.38 108.19 77.27 110.44 76.36 111.04 78.96 107.91 80.37 104.64 81.1"/><g><polygon class="e" points="62.01 75.19 66.69 77.43 73.43 79.18 81.58 80.26 90.35 80.57 98.87 80.07 106.31 78.82 111.93 76.94 115.2 74.6 115.79 72.05 113.63 69.53 108.96 67.29 102.21 65.54 94.05 64.46 85.29 64.15 76.78 64.65 69.34 65.9 63.71 67.78 60.44 70.12 59.86 72.67 62.01 75.19"/><path class="b" d="M75.86,78.87c-4.27-.68-8.01-1.7-10.66-3.01-7.45-3.67-3.48-8.21,8.86-10.14,12.34-1.93,28.39-.53,35.84,3.14,7.45,3.67,3.48,8.21-8.86,10.14-7.96,1.25-17.44,1.11-25.18-.13"/><path class="f" d="M75.4,66.33c-11.47,1.8-15.26,5.96-8.47,9.31,6.79,3.34,21.59,4.6,33.06,2.8,11.46-1.8,15.25-5.96,8.46-9.31-6.79-3.34-21.59-4.6-33.06-2.8Z"/><path class="c" d="M82.74,67.81c-.26,.02,1.91,.28,4.71,.27,2.8-.01,3.56,.69,3.56,.69,0,0-1.59,.48-6.01-.34,0,0-1.71-.39-2.4-.28,0,0,.25,.1,1.65,.32,1.35,.21,4.31,1.31,3.13,1.26-1.18-.05-2.85-.14-4.15-.94-1.31-.81-1.99-.78-1.99-.78,0,0,3.91,2.54,5.35,3.12,1.45,.59,1.41,.21,2.24,.04,.82-.17,5.74-2.49,6-2.69,.26-.2-6.01-1.12-12.08-.67Z"/><path class="c" d="M102.62,72.12c-.19,.03-2.37,.06-4.17,.03-1.8-.03-4.58-.29-5.03-.18-.44,.11-3.06,.09-3.52-.26-.47-.35,5.07-2.7,5.89-2.83,.82-.13,3.01-.24,6.57,2.66,0,0,0,.3-.88-.08,0,0-3.68-1.75-4.91-1.41-1.85,.52,2.98,1.17,5.08,1.73,0,0-8.58-1.54-8.46-.71,.12,.84,9.21,.85,9.21,.85l.23,.2Z"/><path class="c" d="M102.68,72.68s-9.7-.15-10.63-.16c-.93,0-2.97-.27-2.56,.21,.4,.48,4.99,2.91,5.86,2.93,.87,.02,6.94-1.94,7.16-2.4,.22-.46-3.68,1.74-6.07,1.18,0,0-1.31-.73,5.4-1.39,0,0-9.78,.95-8.73,.24,0,0,3.03-.59,9.18-.43,0,0,.44-.03,.39-.18Z"/><path class="c" d="M80.02,69.21s-1.62-.8-.63-.64c.99,.16,1.75,.7,2.76,1.24,1.02,.54,.61,.22,1.68,.79,.71,.38,1.68,.79,1.55,.88-.13,.1,.71,.47-.83,.33-1.55-.15-4.03-.15-4.72-.12-.69,.03-6.59-.06-8.14-.12-1.55-.07,4.4-2.83,5.46-2.96,1.07-.13-.11,.6-.55,.71-.45,.11-2.84,1.3-.89,1.69,1.96,.39,2.19-.85,2.27-1.17,.09-.32,.03-1.17,.53-1.13,.49,.04,.45,.63,.26,.66-.19,.03,1.04,1.82,2.5,1.36,1.47-.46-1.25-1.51-1.25-1.51Z"/><path class="c" d="M87.63,72.84s.26-.16,1.93,.75c1.67,.9,4.43,2.26,3.91,2.42-.51,.16-7.11,.22-9.4,.08-2.29-.15,7.25-.36,4.73-.74-2.52-.38-5.8,.17-6.2,.51,0,0-1.5,.04-1.17-.17,.33-.21,8.35-.96,6.3-1.76,0,0-1.6-.33-6.44,1.5,0,0,2.63-2.1,6.34-2.57Z"/><path class="c" d="M79.41,75.25s6.85-2.47,5.15-2.94c-1.7-.47-12.12-.24-12.12-.24,0,0,3.28,2.26,5.33,2.75,0,0-2.62-1.44-1.23-1.75,1.38-.3,1.18,1.51,1.96,1.82,0,0,.27-.28,.26-.89-.01-.62,1.98-1.4,3.14-1.11,0,0,1.75,.66-2.78,2.11-.48,.16,.29,.27,.29,.27Z"/></g></g><g><polygon class="e" points="39.39 20.88 42.96 25.44 48.48 30.31 55.43 35.02 63.13 39.11 70.83 42.17 77.75 43.92 83.24 44.16 86.75 42.89 87.95 40.23 86.7 36.42 83.14 31.87 77.61 27 70.65 22.28 62.96 18.2 55.27 15.14 48.34 13.39 42.85 13.14 39.33 14.42 38.14 17.08 39.39 20.88"/><path class="d" d="M56.39,32.38s5.26,3.36,9.94,5.01l-.84,2.64-2.03-.82-6.69-3.53-1.57-.88,1.19-2.42Z"/><polygon class="d" points="49.86 28.13 48.99 30.55 43.12 25.63 44.26 23.45 49.86 28.13"/><polygon class="d" points="74.92 43.19 75.62 40.5 79.81 41.38 82.23 41.6 81.58 44.18 78.15 44.02 74.92 43.19"/><g><polygon class="e" points="39.61 18.57 42.76 22.7 47.97 27.31 54.75 31.98 62.42 36.23 70.24 39.65 77.43 41.91 83.3 42.79 87.27 42.19 88.95 40.19 88.17 36.96 85.03 32.84 79.81 28.22 73.03 23.55 65.36 19.3 57.55 15.88 50.35 13.62 44.48 12.75 40.51 13.34 38.83 15.35 39.61 18.57"/><path class="b" d="M50.28,28.14c-3.5-2.55-6.36-5.15-8.14-7.52-4.97-6.65,.62-8.9,12.5-5.02,11.88,3.88,25.54,12.41,30.51,19.07,4.97,6.65-.62,8.9-12.5,5.02-7.66-2.5-16.05-6.93-22.38-11.55"/><path class="f" d="M55.56,16.76c-11.03-3.6-16.3-1.61-11.77,4.45,4.53,6.06,17.15,13.89,28.19,17.5,11.03,3.6,16.3,1.61,11.76-4.45-4.53-6.06-17.16-13.9-28.19-17.5Z"/><path class="c" d="M61.43,21.41c-.24-.1,1.57,1.12,4.07,2.38,2.5,1.26,2.86,2.23,2.86,2.23,0,0-1.64-.29-5.2-3.03,0,0-1.35-1.13-2.01-1.34,0,0,.18,.2,1.33,1.04,1.11,.8,3.25,3.12,2.22,2.54-1.03-.58-2.48-1.41-3.27-2.72-.8-1.31-1.42-1.6-1.42-1.6,0,0,2.33,4.03,3.35,5.21,1.03,1.18,1.17,.83,1.98,1.05,.81,.23,6.24,.38,6.57,.33,.32-.06-4.85-3.72-10.46-6.08Z"/><path class="c" d="M77.19,34.27c-.18-.06-2.14-1.02-3.73-1.86-1.59-.84-3.95-2.34-4.4-2.45-.44-.1-2.77-1.31-3.02-1.83-.26-.53,5.74-.1,6.53,.15,.79,.26,2.79,1.15,4.65,5.35,0,0-.13,.27-.75-.47,0,0-2.49-3.23-3.74-3.49-1.88-.38,2.12,2.39,3.74,3.85,0,0-6.94-5.27-7.22-4.47-.27,.8,7.82,4.94,7.82,4.94l.12,.28Z"/><path class="c" d="M76.99,34.79s-8.57-4.53-9.4-4.97c-.82-.43-2.52-1.59-2.38-.98,.13,.61,3.13,4.86,3.89,5.27,.77,.42,7.07,1.42,7.47,1.11,.41-.31-4.07-.12-5.94-1.7,0,0-.84-1.24,5.44,1.21,0,0-9.15-3.59-7.89-3.75,0,0,2.97,.85,8.37,3.78,0,0,.41,.17,.43,.02Z"/><path class="c" d="M58.37,21.42s-1.08-1.44-.27-.86c.81,.59,1.24,1.42,1.9,2.36,.66,.94,.44,.47,1.14,1.46,.46,.66,1.14,1.46,.98,1.49-.16,.03,.42,.74-.89-.09-1.31-.83-3.53-1.96-4.15-2.24-.62-.29-5.85-3.04-7.2-3.8-1.35-.76,5.2-.52,6.21-.16,1.01,.37-.37,.49-.81,.38-.45-.11-3.12-.13-1.56,1.11,1.57,1.24,2.33,.24,2.56-.01,.23-.25,.56-1.03,.98-.77,.42,.26,.11,.76-.07,.7-.18-.06,.1,2.09,1.62,2.34,1.52,.25-.43-1.91-.43-1.91Z"/><path class="c" d="M63.5,28.1s.3-.02,1.38,1.54c1.08,1.56,2.92,4.02,2.39,3.93-.52-.09-6.43-3.03-8.41-4.2-1.97-1.17,6.62,2.97,4.55,1.49-2.08-1.49-5.25-2.48-5.76-2.36,0,0-1.35-.65-.97-.68,.39-.03,7.88,2.94,6.42,1.29,0,0-1.28-1.02-6.42-1.59,0,0,3.3-.68,6.81,.59Z"/><path class="c" d="M55.09,26.53s7.23,.91,5.92-.29c-1.3-1.19-10.69-5.71-10.69-5.71,0,0,1.89,3.5,3.51,4.87,0,0-1.68-2.47-.31-2.11,1.37,.36,.36,1.88,.92,2.51,0,0,.37-.12,.64-.68,.27-.56,2.4-.35,3.3,.43,0,0,1.26,1.38-3.43,.62-.5-.08,.14,.37,.14,.37Z"/></g></g><g><polygon class="e" points="18.48 46.08 23.73 48.53 30.86 50.36 39.19 51.4 47.91 51.55 56.16 50.79 63.12 49.2 68.12 46.93 70.67 44.2 70.53 41.28 67.69 38.46 62.45 36.02 55.31 34.19 46.97 33.14 38.26 32.99 30.02 33.76 23.05 35.35 18.05 37.62 15.5 40.35 15.64 43.26 18.48 46.08"/><path class="d" d="M38.84,48.61s6.21,.61,11.13-.05l.45,2.74-2.18,.19-7.56-.11-1.8-.07-.04-2.7Z"/><polygon class="d" points="31.09 47.79 31.42 50.34 23.96 48.62 23.99 46.16 31.09 47.79"/><polygon class="d" points="60.26 49.83 59.67 47.12 63.81 46.01 66.06 45.1 66.66 47.7 63.52 49.11 60.26 49.83"/><g><polygon class="e" points="17.63 43.93 22.31 46.17 29.05 47.92 37.2 49 45.97 49.31 54.49 48.81 61.92 47.56 67.55 45.68 70.81 43.34 71.4 40.79 69.25 38.27 64.58 36.03 57.83 34.28 49.67 33.2 40.91 32.89 32.4 33.39 24.95 34.64 19.33 36.52 16.06 38.85 15.48 41.4 17.63 43.93"/><path class="b" d="M31.47,47.61c-4.27-.68-8.01-1.7-10.66-3.01-7.45-3.67-3.48-8.21,8.86-10.14,12.34-1.93,28.39-.53,35.84,3.14,7.45,3.67,3.48,8.21-8.86,10.14-7.96,1.25-17.44,1.11-25.18-.13"/><path class="f" d="M31.02,35.07c-11.47,1.8-15.26,5.96-8.47,9.31,6.79,3.34,21.59,4.6,33.06,2.8,11.46-1.8,15.25-5.96,8.46-9.31-6.79-3.34-21.59-4.6-33.06-2.8Z"/><path class="c" d="M38.36,36.55c-.26,.02,1.91,.28,4.71,.27,2.8-.01,3.56,.69,3.56,.69,0,0-1.59,.48-6.01-.34,0,0-1.71-.39-2.4-.28,0,0,.25,.1,1.65,.32,1.35,.21,4.31,1.31,3.13,1.26-1.18-.05-2.85-.14-4.15-.94-1.31-.81-1.99-.78-1.99-.78,0,0,3.91,2.54,5.35,3.12,1.45,.59,1.41,.21,2.24,.04,.82-.17,5.74-2.49,6-2.69,.26-.2-6.01-1.12-12.08-.67Z"/><path class="c" d="M58.24,40.86c-.19,.03-2.37,.06-4.17,.03-1.8-.03-4.58-.29-5.03-.18-.44,.11-3.06,.09-3.52-.26-.47-.35,5.07-2.7,5.89-2.83,.82-.13,3.01-.24,6.57,2.66,0,0,0,.3-.88-.08,0,0-3.68-1.75-4.91-1.41-1.85,.52,2.98,1.17,5.08,1.73,0,0-8.58-1.54-8.46-.71,.12,.84,9.21,.85,9.21,.85l.23,.2Z"/><path class="c" d="M58.3,41.42s-9.7-.15-10.63-.16c-.93,0-2.97-.27-2.56,.21,.4,.48,4.99,2.91,5.86,2.93,.87,.02,6.94-1.94,7.16-2.4,.22-.46-3.68,1.74-6.07,1.18,0,0-1.31-.73,5.4-1.39,0,0-9.78,.95-8.73,.24,0,0,3.03-.59,9.18-.43,0,0,.44-.03,.39-.18Z"/><path class="c" d="M35.63,37.95s-1.62-.8-.63-.64c.99,.16,1.75,.7,2.76,1.24,1.02,.54,.61,.22,1.68,.79,.71,.38,1.68,.79,1.55,.88-.13,.1,.71,.47-.83,.33-1.55-.15-4.03-.15-4.72-.12-.69,.03-6.59-.06-8.14-.12-1.55-.07,4.4-2.83,5.46-2.96,1.07-.13-.11,.6-.55,.71-.45,.11-2.84,1.3-.89,1.69,1.96,.39,2.19-.85,2.27-1.17,.09-.32,.03-1.17,.53-1.13,.49,.04,.45,.63,.26,.66-.19,.03,1.04,1.82,2.5,1.36,1.47-.46-1.25-1.51-1.25-1.51Z"/><path class="c" d="M43.25,41.57s.26-.16,1.93,.75c1.67,.9,4.43,2.26,3.91,2.42-.51,.16-7.11,.22-9.4,.08-2.29-.15,7.25-.36,4.73-.74-2.52-.38-5.8,.17-6.2,.51,0,0-1.5,.04-1.17-.17,.33-.21,8.35-.96,6.3-1.76,0,0-1.6-.33-6.44,1.5,0,0,2.63-2.1,6.34-2.57Z"/><path class="c" d="M35.03,43.99s6.85-2.47,5.15-2.94c-1.7-.47-12.12-.24-12.12-.24,0,0,3.28,2.26,5.33,2.75,0,0-2.62-1.44-1.23-1.75,1.38-.3,1.18,1.51,1.96,1.82,0,0,.27-.28,.26-.89-.01-.62,1.98-1.4,3.14-1.11,0,0,1.75,.66-2.78,2.11-.48,.16,.29,.27,.29,.27Z"/></g></g><g><polygon class="e" points="18.36 57.15 23.6 59.6 30.74 61.43 39.07 62.48 47.79 62.62 56.03 61.86 63 60.27 68 58 70.55 55.27 70.4 52.36 67.56 49.54 62.33 47.09 55.19 45.26 46.85 44.22 38.14 44.07 29.9 44.83 22.93 46.42 17.92 48.69 15.37 51.42 15.52 54.33 18.36 57.15"/><path class="d" d="M38.72,59.69s6.21,.61,11.13-.05l.45,2.74-2.18,.19-7.56-.11-1.8-.07-.04-2.7Z"/><polygon class="d" points="30.97 58.86 31.3 61.41 23.84 59.69 23.87 57.23 30.97 58.86"/><polygon class="d" points="60.14 60.91 59.55 58.19 63.68 57.08 65.94 56.18 66.53 58.77 63.4 60.18 60.14 60.91"/><g><polygon class="e" points="17.51 55 22.18 57.25 28.93 58.99 37.08 60.07 45.84 60.38 54.37 59.88 61.8 58.63 67.43 56.75 70.69 54.42 71.28 51.87 69.12 49.34 64.45 47.1 57.7 45.35 49.55 44.27 40.78 43.96 32.27 44.46 24.83 45.71 19.2 47.6 15.94 49.93 15.35 52.48 17.51 55"/><path class="b" d="M31.35,58.68c-4.27-.68-8.01-1.7-10.66-3.01-7.45-3.67-3.48-8.21,8.86-10.14,12.34-1.93,28.39-.53,35.84,3.14,7.45,3.67,3.48,8.21-8.86,10.14-7.96,1.25-17.44,1.11-25.18-.13"/><path class="f" d="M30.9,46.15c-11.47,1.8-15.26,5.96-8.47,9.31,6.79,3.34,21.59,4.6,33.06,2.8,11.46-1.8,15.25-5.96,8.46-9.31-6.79-3.34-21.59-4.6-33.06-2.8Z"/><path class="c" d="M38.23,47.63c-.26,.02,1.91,.28,4.71,.27,2.8-.01,3.56,.69,3.56,.69,0,0-1.59,.48-6.01-.34,0,0-1.71-.39-2.4-.28,0,0,.25,.1,1.65,.32,1.35,.21,4.31,1.31,3.13,1.26-1.18-.05-2.85-.14-4.15-.94-1.31-.81-1.99-.78-1.99-.78,0,0,3.91,2.54,5.35,3.12,1.45,.59,1.41,.21,2.24,.04,.82-.17,5.74-2.49,6-2.69,.26-.2-6.01-1.12-12.08-.67Z"/><path class="c" d="M58.11,51.93c-.19,.03-2.37,.06-4.17,.03-1.8-.03-4.58-.29-5.03-.18-.44,.11-3.06,.09-3.52-.26-.47-.35,5.07-2.7,5.89-2.83,.82-.13,3.01-.24,6.57,2.66,0,0,0,.3-.88-.08,0,0-3.68-1.75-4.91-1.41-1.85,.52,2.98,1.17,5.08,1.73,0,0-8.58-1.54-8.46-.71,.12,.84,9.21,.85,9.21,.85l.23,.2Z"/><path class="c" d="M58.17,52.49s-9.7-.15-10.63-.16c-.93,0-2.97-.27-2.56,.21,.4,.48,4.99,2.91,5.86,2.93,.87,.02,6.94-1.94,7.16-2.4,.22-.46-3.68,1.74-6.07,1.18,0,0-1.31-.73,5.4-1.39,0,0-9.78,.95-8.73,.24,0,0,3.03-.59,9.18-.43,0,0,.44-.03,.39-.18Z"/><path class="c" d="M35.51,49.03s-1.62-.8-.63-.64c.99,.16,1.75,.7,2.76,1.24,1.02,.54,.61,.22,1.68,.79,.71,.38,1.68,.79,1.55,.88-.13,.1,.71,.47-.83,.33-1.55-.15-4.03-.15-4.72-.12-.69,.03-6.59-.06-8.14-.12-1.55-.07,4.4-2.83,5.46-2.96,1.07-.13-.11,.6-.55,.71-.45,.11-2.84,1.3-.89,1.69,1.96,.39,2.19-.85,2.27-1.17,.09-.32,.03-1.17,.53-1.13,.49,.04,.45,.63,.26,.66-.19,.03,1.04,1.82,2.5,1.36,1.47-.46-1.25-1.51-1.25-1.51Z"/><path class="c" d="M43.12,52.65s.26-.16,1.93,.75c1.67,.9,4.43,2.26,3.91,2.42-.51,.16-7.11,.22-9.4,.08-2.29-.15,7.25-.36,4.73-.74-2.52-.38-5.8,.17-6.2,.51,0,0-1.5,.04-1.17-.17,.33-.21,8.35-.96,6.3-1.76,0,0-1.6-.33-6.44,1.5,0,0,2.63-2.1,6.34-2.57Z"/><path class="c" d="M34.91,55.07s6.85-2.47,5.15-2.94c-1.7-.47-12.12-.24-12.12-.24,0,0,3.28,2.26,5.33,2.75,0,0-2.62-1.44-1.23-1.75,1.38-.3,1.18,1.51,1.96,1.82,0,0,.27-.28,.26-.89-.01-.62,1.98-1.4,3.14-1.11,0,0,1.75,.66-2.78,2.11-.48,.16,.29,.27,.29,.27Z"/></g></g><g><polygon class="e" points="17.95 66.48 23.2 68.93 30.33 70.76 38.66 71.81 47.38 71.95 55.63 71.19 62.59 69.6 67.59 67.33 70.14 64.6 70 61.69 67.16 58.87 61.92 56.42 54.78 54.59 46.44 53.55 37.73 53.4 29.49 54.16 22.52 55.75 17.52 58.02 14.97 60.75 15.11 63.66 17.95 66.48"/><path class="d" d="M38.31,69.02s6.21,.61,11.13-.05l.45,2.74-2.18,.19-7.56-.11-1.8-.07-.04-2.7Z"/><polygon class="d" points="30.56 68.19 30.89 70.74 23.43 69.02 23.46 66.56 30.56 68.19"/><polygon class="d" points="59.73 70.24 59.14 67.52 63.28 66.41 65.53 65.51 66.12 68.1 62.99 69.51 59.73 70.24"/><g><polygon class="e" points="17.1 64.33 21.78 66.58 28.52 68.32 36.67 69.4 45.44 69.71 53.96 69.21 61.39 67.96 67.02 66.08 70.28 63.75 70.87 61.2 68.72 58.67 64.05 56.43 57.3 54.68 49.14 53.6 40.38 53.29 31.87 53.79 24.42 55.04 18.8 56.93 15.53 59.26 14.94 61.81 17.1 64.33"/><path class="b" d="M30.94,68.01c-4.27-.68-8.01-1.7-10.66-3.01-7.45-3.67-3.48-8.21,8.86-10.14,12.34-1.93,28.39-.53,35.84,3.14,7.45,3.67,3.48,8.21-8.86,10.14-7.96,1.25-17.44,1.11-25.18-.13"/><path class="f" d="M30.49,55.48c-11.47,1.8-15.26,5.96-8.47,9.31,6.79,3.34,21.59,4.6,33.06,2.8,11.46-1.8,15.25-5.96,8.46-9.31-6.79-3.34-21.59-4.6-33.06-2.8Z"/><path class="c" d="M37.83,56.96c-.26,.02,1.91,.28,4.71,.27,2.8-.01,3.56,.69,3.56,.69,0,0-1.59,.48-6.01-.34,0,0-1.71-.39-2.4-.28,0,0,.25,.1,1.65,.32,1.35,.21,4.31,1.31,3.13,1.26-1.18-.05-2.85-.14-4.15-.94-1.31-.81-1.99-.78-1.99-.78,0,0,3.91,2.54,5.35,3.12,1.45,.59,1.41,.21,2.24,.04,.82-.17,5.74-2.49,6-2.69,.26-.2-6.01-1.12-12.08-.67Z"/><path class="c" d="M57.71,61.26c-.19,.03-2.37,.06-4.17,.03-1.8-.03-4.58-.29-5.03-.18-.44,.11-3.06,.09-3.52-.26-.47-.35,5.07-2.7,5.89-2.83,.82-.13,3.01-.24,6.57,2.66,0,0,0,.3-.88-.08,0,0-3.68-1.75-4.91-1.41-1.85,.52,2.98,1.17,5.08,1.73,0,0-8.58-1.54-8.46-.71,.12,.84,9.21,.85,9.21,.85l.23,.2Z"/><path class="c" d="M57.77,61.82s-9.7-.15-10.63-.16c-.93,0-2.97-.27-2.56,.21,.4,.48,4.99,2.91,5.86,2.93,.87,.02,6.94-1.94,7.16-2.4,.22-.46-3.68,1.74-6.07,1.18,0,0-1.31-.73,5.4-1.39,0,0-9.78,.95-8.73,.24,0,0,3.03-.59,9.18-.43,0,0,.44-.03,.39-.18Z"/><path class="c" d="M35.1,58.36s-1.62-.8-.63-.64c.99,.16,1.75,.7,2.76,1.24,1.02,.54,.61,.22,1.68,.79,.71,.38,1.68,.79,1.55,.88-.13,.1,.71,.47-.83,.33-1.55-.15-4.03-.15-4.72-.12-.69,.03-6.59-.06-8.14-.12-1.55-.07,4.4-2.83,5.46-2.96,1.07-.13-.11,.6-.55,.71-.45,.11-2.84,1.3-.89,1.69,1.96,.39,2.19-.85,2.27-1.17,.09-.32,.03-1.17,.53-1.13,.49,.04,.45,.63,.26,.66-.19,.03,1.04,1.82,2.5,1.36,1.47-.46-1.25-1.51-1.25-1.51Z"/><path class="c" d="M42.72,61.98s.26-.16,1.93,.75c1.67,.9,4.43,2.26,3.91,2.42-.51,.16-7.11,.22-9.4,.08-2.29-.15,7.25-.36,4.73-.74-2.52-.38-5.8,.17-6.2,.51,0,0-1.5,.04-1.17-.17,.33-.21,8.35-.96,6.3-1.76,0,0-1.6-.33-6.44,1.5,0,0,2.63-2.1,6.34-2.57Z"/><path class="c" d="M34.5,64.4s6.85-2.47,5.15-2.94c-1.7-.47-12.12-.24-12.12-.24,0,0,3.28,2.26,5.33,2.75,0,0-2.62-1.44-1.23-1.75,1.38-.3,1.18,1.51,1.96,1.82,0,0,.27-.28,.26-.89-.01-.62,1.98-1.4,3.14-1.11,0,0,1.75,.66-2.78,2.11-.48,.16,.29,.27,.29,.27Z"/></g></g><g><polygon class="e" points="19.97 80.83 25.22 83.28 32.35 85.11 40.68 86.15 49.4 86.3 57.65 85.54 64.61 83.94 69.61 81.67 72.16 78.95 72.02 76.03 69.18 73.21 63.94 70.77 56.8 68.94 48.46 67.89 39.75 67.74 31.51 68.5 24.54 70.1 19.54 72.37 16.99 75.09 17.13 78.01 19.97 80.83"/><path class="d" d="M40.33,83.36s6.21,.61,11.13-.05l.45,2.74-2.18,.19-7.56-.11-1.8-.07-.04-2.7Z"/><polygon class="d" points="32.58 82.54 32.91 85.08 25.45 83.37 25.48 80.91 32.58 82.54"/><polygon class="d" points="61.75 84.58 61.16 81.87 65.3 80.76 67.55 79.85 68.14 82.45 65.01 83.85 61.75 84.58"/><g><polygon class="e" points="19.12 78.68 23.8 80.92 30.54 82.67 38.69 83.75 47.46 84.06 55.98 83.56 63.41 82.31 69.04 80.42 72.3 78.09 72.89 75.54 70.74 73.02 66.07 70.77 59.32 69.03 51.16 67.95 42.4 67.64 33.89 68.14 26.44 69.39 20.82 71.27 17.55 73.6 16.96 76.15 19.12 78.68"/><path class="b" d="M32.96,82.35c-4.27-.68-8.01-1.7-10.66-3.01-7.45-3.67-3.48-8.21,8.86-10.14,12.34-1.93,28.39-.53,35.84,3.14,7.45,3.67,3.48,8.21-8.86,10.14-7.96,1.25-17.44,1.11-25.18-.13"/><path class="f" d="M32.51,69.82c-11.47,1.8-15.26,5.96-8.47,9.31,6.79,3.34,21.59,4.6,33.06,2.8,11.46-1.8,15.25-5.96,8.46-9.31-6.79-3.34-21.59-4.6-33.06-2.8Z"/><path class="c" d="M39.85,71.3c-.26,.02,1.91,.28,4.71,.27,2.8-.01,3.56,.69,3.56,.69,0,0-1.59,.48-6.01-.34,0,0-1.71-.39-2.4-.28,0,0,.25,.1,1.65,.32,1.35,.21,4.31,1.31,3.13,1.26-1.18-.05-2.85-.14-4.15-.94-1.31-.81-1.99-.78-1.99-.78,0,0,3.91,2.54,5.35,3.12,1.45,.59,1.41,.21,2.24,.04,.82-.17,5.74-2.49,6-2.69,.26-.2-6.01-1.12-12.08-.67Z"/><path class="c" d="M59.73,75.61c-.19,.03-2.37,.06-4.17,.03-1.8-.03-4.58-.29-5.03-.18-.44,.11-3.06,.09-3.52-.26-.47-.35,5.07-2.7,5.89-2.83,.82-.13,3.01-.24,6.57,2.66,0,0,0,.3-.88-.08,0,0-3.68-1.75-4.91-1.41-1.85,.52,2.98,1.17,5.08,1.73,0,0-8.58-1.54-8.46-.71,.12,.84,9.21,.85,9.21,.85l.23,.2Z"/><path class="c" d="M59.79,76.17s-9.7-.15-10.63-.16c-.93,0-2.97-.27-2.56,.21,.4,.48,4.99,2.91,5.86,2.93,.87,.02,6.94-1.94,7.16-2.4,.22-.46-3.68,1.74-6.07,1.18,0,0-1.31-.73,5.4-1.39,0,0-9.78,.95-8.73,.24,0,0,3.03-.59,9.18-.43,0,0,.44-.03,.39-.18Z"/><path class="c" d="M37.12,72.7s-1.62-.8-.63-.64c.99,.16,1.75,.7,2.76,1.24,1.02,.54,.61,.22,1.68,.79,.71,.38,1.68,.79,1.55,.88-.13,.1,.71,.47-.83,.33-1.55-.15-4.03-.15-4.72-.12-.69,.03-6.59-.06-8.14-.12-1.55-.07,4.4-2.83,5.46-2.96,1.07-.13-.11,.6-.55,.71-.45,.11-2.84,1.3-.89,1.69,1.96,.39,2.19-.85,2.27-1.17,.09-.32,.03-1.17,.53-1.13,.49,.04,.45,.63,.26,.66-.19,.03,1.04,1.82,2.5,1.36,1.47-.46-1.25-1.51-1.25-1.51Z"/><path class="c" d="M44.74,76.32s.26-.16,1.93,.75c1.67,.9,4.43,2.26,3.91,2.42-.51,.16-7.11,.22-9.4,.08-2.29-.15,7.25-.36,4.73-.74-2.52-.38-5.8,.17-6.2,.51,0,0-1.5,.04-1.17-.17,.33-.21,8.35-.96,6.3-1.76,0,0-1.6-.33-6.44,1.5,0,0,2.63-2.1,6.34-2.57Z"/><path class="c" d="M36.52,78.74s6.85-2.47,5.15-2.94c-1.7-.47-12.12-.24-12.12-.24,0,0,3.28,2.26,5.33,2.75,0,0-2.62-1.44-1.23-1.75,1.38-.3,1.18,1.51,1.96,1.82,0,0,.27-.28,.26-.89-.01-.62,1.98-1.4,3.14-1.11,0,0,1.75,.66-2.78,2.11-.48,.16,.29,.27,.29,.27Z"/></g></g><g><polygon class="e" points="39.77 85.96 34.42 83.76 28.24 79.76 21.83 74.33 15.82 68.02 10.79 61.44 7.25 55.23 5.53 50.01 5.81 46.29 8.05 44.42 12.05 44.6 17.4 46.8 23.58 50.81 29.99 56.24 36 62.55 41.02 69.13 44.57 75.33 46.29 80.55 46.01 84.28 43.77 86.14 39.77 85.96"/><path class="d" d="M24.12,72.7s-4.65-4.16-7.51-8.22l-2.31,1.52,1.34,1.73,5.2,5.49,1.27,1.28,2.01-1.8Z"/><polygon class="d" points="29.97 77.84 27.88 79.33 34.2 83.65 35.98 81.97 29.97 77.84"/><polygon class="d" points="8.72 57.77 11.11 56.36 9.13 52.57 8.27 50.3 5.96 51.62 7.04 54.88 8.72 57.77"/><g><polygon class="e" points="41.93 85.13 37.11 83.21 31.26 79.44 24.95 74.17 18.78 67.93 13.38 61.32 9.26 55 6.84 49.59 6.35 45.61 7.82 43.45 11.14 43.33 15.95 45.24 21.81 49.02 28.13 54.29 34.29 60.53 39.69 67.13 43.81 73.46 46.23 78.87 46.73 82.85 45.25 85.01 41.93 85.13"/><path class="b" d="M29.85,77.44c3.4,2.68,6.68,4.74,9.43,5.81,7.75,3,8.4-3,1.46-13.39-6.94-10.39-18.84-21.25-26.59-24.25-7.74-3-8.4,3-1.46,13.39,4.47,6.7,11,13.58,17.15,18.44"/><path class="f" d="M39.38,69.29c6.44,9.65,5.95,15.26-1.11,12.53-7.06-2.73-18-12.77-24.45-22.43-6.44-9.65-5.94-15.26,1.12-12.53,7.06,2.73,18.01,12.78,24.45,22.43Z"/><path class="c" d="M33.32,64.89c.16,.2-1.5-1.21-3.39-3.28-1.89-2.07-2.91-2.15-2.91-2.15,0,0,.73,1.5,4.32,4.19,0,0,1.45,.99,1.83,1.58,0,0-.24-.12-1.36-1-1.07-.85-3.88-2.29-3.05-1.45,.83,.83,2.03,2.01,3.5,2.42,1.48,.42,1.92,.94,1.92,.94,0,0-4.51-1.16-5.92-1.82-1.42-.67-1.11-.9-1.54-1.62-.44-.72-2.05-5.91-2.09-6.24-.03-.33,4.89,3.66,8.68,8.43Z"/><path class="c" d="M16.69,53.18c.1,.16,1.56,1.78,2.8,3.09,1.24,1.31,3.32,3.17,3.54,3.57,.22,.4,2,2.31,2.58,2.41,.58,.11-1.45-5.56-1.91-6.25-.46-.69-1.86-2.37-6.41-3.03,0,0-.23,.2,.65,.59,0,0,3.78,1.52,4.37,2.66,.87,1.71-2.88-1.4-4.71-2.56,0,0,6.95,5.27,6.25,5.75-.69,.48-6.86-6.2-6.86-6.2l-.3-.04Z"/><path class="c" d="M16.24,53.51s6.68,7.03,7.32,7.71c.64,.68,2.21,2,1.58,2.03-.62,.04-5.52-1.71-6.12-2.33-.61-.63-3.27-6.42-3.08-6.9,.19-.48,1.21,3.89,3.24,5.27,0,0,1.42,.47-2.63-4.91,0,0,5.93,7.84,5.73,6.58,0,0-1.62-2.63-5.9-7.04,0,0-.28-.35-.13-.41Z"/><path class="c" d="M34.14,67.84s1.68,.65,.9,.03c-.78-.62-1.7-.82-2.78-1.2-1.09-.38-.57-.3-1.72-.7-.76-.27-1.72-.71-1.7-.54,.02,.16-.83-.2,.32,.83,1.16,1.04,2.84,2.87,3.28,3.39,.44,.52,4.5,4.81,5.6,5.91,1.1,1.1-.9-5.15-1.52-6.02-.63-.87-.37,.49-.15,.89,.22,.4,.97,2.97-.65,1.8-1.62-1.18-.86-2.18-.68-2.47,.18-.29,.84-.82,.48-1.15-.36-.34-.77,.1-.66,.26,.11,.16-2.04,.47-2.69-.92-.65-1.39,1.96-.11,1.96-.11Z"/><path class="c" d="M26.32,64.69s-.06-.3-1.86-.92c-1.8-.62-4.66-1.73-4.43-1.24,.23,.48,4.65,5.38,6.31,6.97,1.66,1.59-4.65-5.58-2.66-3.98,1.99,1.6,3.8,4.38,3.83,4.91,0,0,.99,1.13,.92,.75-.07-.38-4.95-6.8-2.97-5.83,0,0,1.33,.95,3.26,5.75,0,0-.23-3.36-2.4-6.4Z"/><path class="c" d="M30.1,72.37s-2.82-6.72-1.32-5.78c1.5,.93,8.38,8.75,8.38,8.75,0,0-3.88-.88-5.63-2.06,0,0,2.84,.95,2.12-.28-.71-1.22-1.91,.16-2.66-.21,0,0,.02-.39,.48-.8,.47-.41-.31-2.4-1.31-3.06,0,0-1.67-.85,.33,3.47,.21,.46-.39-.04-.39-.04Z"/></g></g><g><polygon class="e" points="77.72 77.56 81.83 81.64 87.92 85.78 95.4 89.59 103.55 92.68 111.57 94.76 118.66 95.62 124.14 95.18 127.46 93.48 128.31 90.69 126.6 87.08 122.5 83 116.41 78.86 108.92 75.05 100.77 71.95 92.76 69.88 85.66 69.01 80.19 69.45 76.86 71.15 76.01 73.94 77.72 77.56"/><path class="d" d="M96.02,86.84s5.64,2.68,10.49,3.73l-.51,2.72-2.11-.56-7.07-2.67-1.67-.68,.88-2.55Z"/><polygon class="d" points="89.01 83.44 88.46 85.95 82.02 81.8 82.88 79.5 89.01 83.44"/><polygon class="d" points="115.76 95.26 116.12 92.5 120.39 92.86 122.82 92.77 122.49 95.41 119.07 95.68 115.76 95.26"/><g><polygon class="e" points="77.65 75.24 81.29 78.94 87.04 82.87 94.34 86.65 102.49 89.91 110.67 92.33 118.09 93.68 124.02 93.81 127.88 92.73 129.3 90.53 128.13 87.42 124.5 83.73 118.74 79.8 111.43 76.01 103.29 72.75 95.12 70.34 87.69 68.99 81.76 68.85 77.9 69.94 76.48 72.14 77.65 75.24"/><path class="b" d="M89.43,83.4c-3.79-2.09-6.96-4.32-9.01-6.44-5.77-5.98-.49-8.91,11.77-6.54,12.27,2.36,26.89,9.13,32.65,15.11,5.76,5.97,.49,8.9-11.77,6.54-7.91-1.52-16.79-4.87-23.65-8.66"/><path class="f" d="M93.25,71.45c-11.4-2.2-16.38,.44-11.12,5.88,5.25,5.45,18.75,11.64,30.15,13.84,11.39,2.2,16.37-.44,11.12-5.89-5.25-5.45-18.76-11.65-30.15-13.84Z"/><path class="c" d="M99.65,75.33c-.25-.07,1.7,.91,4.34,1.85,2.64,.94,3.11,1.85,3.11,1.85,0,0-1.66-.09-5.54-2.36,0,0-1.48-.95-2.17-1.08,0,0,.2,.18,1.45,.86,1.2,.66,3.62,2.69,2.52,2.24-1.09-.44-2.64-1.09-3.59-2.29-.96-1.2-1.61-1.41-1.61-1.41,0,0,2.82,3.71,3.98,4.75,1.17,1.05,1.26,.67,2.09,.79,.83,.12,6.24-.4,6.56-.49,.31-.1-5.27-3.09-11.14-4.73Z"/><path class="c" d="M116.9,86.12c-.19-.03-2.25-.74-3.93-1.38-1.69-.64-4.21-1.83-4.67-1.88-.45-.05-2.91-.95-3.23-1.44-.32-.49,5.68-.82,6.5-.66,.82,.16,2.91,.8,5.28,4.73,0,0-.1,.29-.8-.37,0,0-2.87-2.9-4.14-2.99-1.92-.14,2.41,2.11,4.19,3.35,0,0-7.55-4.36-7.72-3.53-.17,.83,8.37,3.92,8.37,3.92l.15,.26Z"/><path class="c" d="M116.76,86.67s-9.07-3.43-9.94-3.75c-.87-.32-2.7-1.26-2.48-.67,.21,.59,3.71,4.43,4.52,4.74,.82,.32,7.19,.53,7.55,.17,.37-.36-4.06,.39-6.11-.94,0,0-.99-1.13,5.55,.52,0,0-9.52-2.42-8.29-2.73,0,0,3.05,.47,8.78,2.71,0,0,.43,.12,.43-.04Z"/><path class="c" d="M96.62,75.73s-1.25-1.3-.38-.82c.87,.48,1.41,1.25,2.18,2.1,.77,.85,.5,.41,1.31,1.31,.54,.6,1.32,1.31,1.15,1.36-.16,.05,.51,.69-.89,.02-1.41-.66-3.74-1.5-4.4-1.71-.66-.21-6.18-2.29-7.62-2.88-1.44-.59,5.09-1.17,6.14-.93,1.05,.24-.31,.53-.76,.48-.46-.05-3.12,.26-1.41,1.29,1.71,1.03,2.34-.06,2.54-.33,.19-.27,.43-1.09,.88-.89,.45,.2,.21,.74,.02,.71-.19-.04,.36,2.06,1.9,2.12,1.54,.06-.66-1.85-.66-1.85Z"/><path class="c" d="M102.55,81.72s.3-.06,1.57,1.36c1.27,1.42,3.4,3.63,2.86,3.6-.53-.02-6.76-2.2-8.87-3.12-2.1-.91,6.94,2.12,4.7,.91-2.24-1.22-5.52-1.81-6.01-1.63,0,0-1.42-.47-1.05-.56,.38-.08,8.18,1.93,6.53,.48,0,0-1.39-.85-6.56-.78,0,0,3.19-1.09,6.83-.27Z"/><path class="c" d="M94,81.2s7.29,0,5.84-1.03c-1.44-1.02-11.32-4.33-11.32-4.33,0,0,2.32,3.24,4.09,4.39,0,0-1.98-2.24-.57-2.06,1.4,.18,.59,1.82,1.22,2.37,0,0,.35-.17,.55-.75,.2-.59,2.34-.64,3.33,.02,0,0,1.43,1.21-3.33,1.04-.51-.02,.19,.35,.19,.35Z"/></g></g><g><polygon class="e" points="11.71 41.57 16.38 44.98 23.03 48.14 31.01 50.76 39.54 52.58 47.77 53.42 54.91 53.19 60.26 51.93 63.29 49.74 63.7 46.85 61.46 43.54 56.79 40.13 50.13 36.96 42.15 34.34 33.63 32.52 25.4 31.69 18.25 31.91 12.9 33.18 9.88 35.37 9.46 38.25 11.71 41.57"/><path class="d" d="M31.2,47.96s5.98,1.79,10.93,2.09l-.09,2.77-2.17-.23-7.4-1.56-1.75-.41,.48-2.65Z"/><polygon class="d" points="23.76 45.66 23.59 48.23 16.59 45.11 17.09 42.7 23.76 45.66"/><polygon class="d" points="51.99 53.27 51.93 50.49 56.2 50.2 58.59 49.74 58.67 52.4 55.33 53.18 51.99 53.27"/><g><polygon class="e" points="11.28 39.29 15.44 42.39 21.72 45.4 29.52 48.03 38.06 50.01 46.52 51.16 54.06 51.36 59.94 50.59 63.59 48.93 64.66 46.54 63.02 43.65 58.87 40.55 52.58 37.54 44.79 34.91 36.24 32.93 27.8 31.78 20.25 31.58 14.37 32.35 10.72 34.01 9.65 36.4 11.28 39.29"/><path class="b" d="M24.16,45.56c-4.06-1.49-7.53-3.21-9.89-5-6.61-5.03-1.84-8.73,10.64-8.25,12.48,.47,27.96,4.93,34.57,9.96,6.6,5.03,1.84,8.73-10.64,8.25-8.05-.3-17.33-2.26-24.69-4.96"/><path class="f" d="M26.12,33.17c-11.6-.44-16.12,2.92-10.09,7.51,6.02,4.58,20.31,8.65,31.91,9.09,11.59,.44,16.12-2.93,10.09-7.51-6.02-4.58-20.31-8.66-31.9-9.09Z"/><path class="c" d="M33.04,36.03c-.26-.03,1.82,.64,4.57,1.17,2.75,.53,3.36,1.36,3.36,1.36,0,0-1.66,.17-5.83-1.49,0,0-1.6-.71-2.3-.74,0,0,.23,.15,1.56,.63,1.29,.47,3.98,2.11,2.83,1.83-1.15-.27-2.77-.68-3.89-1.72-1.13-1.04-1.81-1.14-1.81-1.14,0,0,3.35,3.24,4.65,4.09,1.31,.86,1.35,.47,2.19,.47,.84,0,6.11-1.34,6.41-1.49,.3-.14-5.68-2.25-11.73-2.98Z"/><path class="c" d="M51.72,44.07c-.19,0-2.33-.39-4.1-.77-1.76-.37-4.44-1.17-4.9-1.15-.46,.02-3.02-.5-3.41-.93-.4-.44,5.49-1.67,6.32-1.64,.83,.03,3,.34,5.94,3.87,0,0-.05,.3-.85-.24,0,0-3.28-2.43-4.55-2.33-1.92,.15,2.7,1.72,4.65,2.67,0,0-8.12-3.16-8.17-2.32-.04,.84,8.87,2.6,8.87,2.6l.19,.24Z"/><path class="c" d="M51.68,44.63s-9.49-2.01-10.4-2.2c-.91-.19-2.86-.84-2.56-.29,.3,.55,4.34,3.81,5.19,4,.85,.19,7.18-.57,7.49-.98,.31-.41-3.95,1-6.18,0,0,0-1.15-.97,5.57-.33,0,0-9.78-.95-8.61-1.44,0,0,3.09,0,9.09,1.34,0,0,.44,.06,.42-.1Z"/><path class="c" d="M30.1,36.88s-1.43-1.09-.5-.75c.94,.34,1.58,1.02,2.47,1.74,.89,.73,.55,.33,1.5,1.09,.63,.51,1.5,1.09,1.35,1.16-.15,.07,.61,.6-.88,.16-1.49-.44-3.93-.92-4.61-1.02-.68-.1-6.46-1.32-7.97-1.68-1.51-.36,4.86-1.93,5.93-1.85,1.08,.08-.22,.57-.68,.59-.46,.02-3.04,.73-1.19,1.49,1.85,.76,2.31-.41,2.46-.71,.15-.3,.26-1.14,.73-1.01,.48,.13,.32,.7,.13,.7-.19,0,.67,1.99,2.2,1.81,1.53-.17-.93-1.72-.93-1.72Z"/><path class="c" d="M36.87,41.9s.29-.11,1.75,1.1c1.47,1.21,3.91,3.07,3.38,3.12-.53,.06-7.02-1.15-9.24-1.73-2.22-.58,7.18,1.04,4.78,.18-2.4-.86-5.73-.95-6.18-.69,0,0-1.48-.25-1.12-.39,.36-.14,8.38,.66,6.52-.52,0,0-1.51-.63-6.61,.23,0,0,2.98-1.56,6.71-1.3Z"/><path class="c" d="M28.35,42.69s7.2-1.11,5.62-1.9c-1.58-.79-11.84-2.56-11.84-2.56,0,0,2.78,2.85,4.71,3.72,0,0-2.3-1.92-.87-1.95,1.42-.03,.86,1.71,1.57,2.16,0,0,.32-.22,.43-.83,.11-.61,2.21-.99,3.29-.49,0,0,1.6,.98-3.13,1.53-.51,.06,.24,.32,.24,.32Z"/></g></g><g><polygon class="e" points="38.83 60.17 43.51 63.58 50.16 66.74 58.13 69.37 66.66 71.19 74.9 72.02 82.04 71.8 87.39 70.53 90.41 68.34 90.83 65.45 88.58 62.14 83.92 58.74 77.26 55.57 69.28 52.94 60.75 51.12 52.52 50.29 45.38 50.51 40.03 51.78 37 53.97 36.59 56.86 38.83 60.17"/><path class="d" d="M58.33,66.56s5.98,1.79,10.93,2.09l-.09,2.77-2.17-.23-7.4-1.56-1.75-.41,.48-2.65Z"/><polygon class="d" points="50.88 64.27 50.71 66.83 43.72 63.71 44.22 61.3 50.88 64.27"/><polygon class="d" points="79.11 71.87 79.06 69.09 83.33 68.8 85.71 68.34 85.8 71 82.45 71.78 79.11 71.87"/><g><polygon class="e" points="38.41 57.89 42.57 60.99 48.85 64 56.64 66.63 65.19 68.61 73.64 69.76 81.18 69.96 87.06 69.19 90.71 67.53 91.78 65.14 90.15 62.25 86 59.15 79.71 56.14 71.91 53.51 63.37 51.53 54.92 50.38 47.38 50.18 41.5 50.95 37.84 52.61 36.78 55 38.41 57.89"/><path class="b" d="M51.29,64.16c-4.06-1.49-7.53-3.21-9.89-5-6.61-5.03-1.84-8.73,10.64-8.25,12.48,.47,27.96,4.93,34.57,9.96,6.6,5.03,1.84,8.73-10.64,8.25-8.05-.3-17.33-2.26-24.69-4.96"/><path class="f" d="M53.25,51.77c-11.6-.44-16.12,2.92-10.09,7.51,6.02,4.58,20.31,8.65,31.91,9.09,11.59,.44,16.12-2.93,10.09-7.51-6.02-4.58-20.31-8.66-31.9-9.09Z"/><path class="c" d="M60.17,54.63c-.26-.03,1.82,.64,4.57,1.17,2.75,.53,3.36,1.36,3.36,1.36,0,0-1.66,.17-5.83-1.49,0,0-1.6-.71-2.3-.74,0,0,.23,.15,1.56,.63,1.29,.47,3.98,2.11,2.83,1.83-1.15-.27-2.77-.68-3.89-1.72-1.13-1.04-1.81-1.14-1.81-1.14,0,0,3.35,3.24,4.65,4.09,1.31,.86,1.35,.47,2.19,.47,.84,0,6.11-1.34,6.41-1.49,.3-.14-5.68-2.25-11.73-2.98Z"/><path class="c" d="M78.85,62.68c-.19,0-2.33-.39-4.1-.77-1.76-.37-4.44-1.17-4.9-1.15-.46,.02-3.02-.5-3.41-.93-.4-.44,5.49-1.67,6.32-1.64,.83,.03,3,.34,5.94,3.87,0,0-.05,.3-.85-.24,0,0-3.28-2.43-4.55-2.33-1.92,.15,2.7,1.72,4.65,2.67,0,0-8.12-3.16-8.17-2.32-.04,.84,8.87,2.6,8.87,2.6l.19,.24Z"/><path class="c" d="M78.8,63.24s-9.49-2.01-10.4-2.2c-.91-.19-2.86-.84-2.56-.29,.3,.55,4.34,3.81,5.19,4,.85,.19,7.18-.57,7.49-.98,.31-.41-3.95,1-6.18,0,0,0-1.15-.97,5.57-.33,0,0-9.78-.95-8.61-1.44,0,0,3.09,0,9.09,1.34,0,0,.44,.06,.42-.1Z"/><path class="c" d="M57.23,55.48s-1.43-1.09-.5-.75c.94,.34,1.58,1.02,2.47,1.74,.89,.73,.55,.33,1.5,1.09,.63,.51,1.5,1.09,1.35,1.16-.15,.07,.61,.6-.88,.16-1.49-.44-3.93-.92-4.61-1.02-.68-.1-6.46-1.32-7.97-1.68-1.51-.36,4.86-1.93,5.93-1.85,1.08,.08-.22,.57-.68,.59-.46,.02-3.04,.73-1.19,1.49,1.85,.76,2.31-.41,2.46-.71,.15-.3,.26-1.14,.73-1.01,.48,.13,.32,.7,.13,.7-.19,0,.67,1.99,2.2,1.81,1.53-.17-.93-1.72-.93-1.72Z"/><path class="c" d="M64,60.5s.29-.11,1.75,1.1c1.47,1.21,3.91,3.07,3.38,3.12-.53,.06-7.02-1.15-9.24-1.73-2.22-.58,7.18,1.04,4.78,.18-2.4-.86-5.73-.95-6.18-.69,0,0-1.48-.25-1.12-.39,.36-.14,8.38,.66,6.52-.52,0,0-1.51-.63-6.61,.23,0,0,2.98-1.56,6.71-1.3Z"/><path class="c" d="M55.47,61.3s7.2-1.11,5.62-1.9c-1.58-.79-11.84-2.56-11.84-2.56,0,0,2.78,2.85,4.71,3.72,0,0-2.3-1.92-.87-1.95,1.42-.03,.86,1.71,1.57,2.16,0,0,.32-.22,.43-.83,.11-.61,2.21-.99,3.29-.49,0,0,1.6,.98-3.13,1.53-.51,.06,.24,.32,.24,.32Z"/></g></g><g><polygon class="e" points="51.36 40.99 53.99 46.14 58.5 51.97 64.43 57.91 71.22 63.38 78.19 67.85 84.66 70.87 90.01 72.15 93.69 71.56 95.37 69.18 94.86 65.21 92.23 60.06 87.73 54.23 81.79 48.28 75 42.81 68.04 38.35 61.56 35.33 56.21 34.05 52.53 34.63 50.85 37.02 51.36 40.99"/><path class="d" d="M65.87,55.49s4.53,4.3,8.81,6.8l-1.33,2.43-1.84-1.19-5.9-4.73-1.38-1.16,1.63-2.15Z"/><polygon class="d" points="60.26 50.08 58.95 52.3 54.12 46.35 55.66 44.43 60.26 50.08"/><polygon class="d" points="82.02 69.62 83.22 67.11 87.17 68.78 89.5 69.45 88.37 71.86 85.04 71.05 82.02 69.62"/><g><polygon class="e" points="52.01 38.77 54.32 43.41 58.57 48.93 64.33 54.79 71.06 60.42 78.09 65.26 84.73 68.84 90.32 70.81 94.33 70.98 96.36 69.33 96.21 66.01 93.9 61.37 89.65 55.85 83.88 49.98 77.16 44.36 70.13 39.52 63.49 35.94 57.9 33.97 53.89 33.8 51.86 35.45 52.01 38.77"/><path class="b" d="M60.67,50.17c-2.95-3.16-5.27-6.26-6.57-8.92-3.63-7.47,2.3-8.62,13.22-2.56,10.93,6.06,22.72,17.02,26.35,24.5,3.62,7.47-2.29,8.62-13.22,2.56-7.04-3.9-14.44-9.84-19.79-15.57"/><path class="f" d="M68.01,40c-10.15-5.63-15.7-4.67-12.4,2.14,3.3,6.81,14.21,16.89,24.37,22.52,10.15,5.62,15.7,4.66,12.4-2.15-3.3-6.81-14.21-16.89-24.36-22.52Z"/><path class="c" d="M72.9,45.68c-.21-.14,1.33,1.39,3.55,3.11,2.22,1.71,2.38,2.73,2.38,2.73,0,0-1.55-.6-4.53-3.96,0,0-1.11-1.36-1.72-1.7,0,0,.14,.23,1.11,1.27,.93,1,2.6,3.68,1.7,2.92-.9-.76-2.17-1.86-2.7-3.29-.54-1.44-1.1-1.84-1.1-1.84,0,0,1.53,4.4,2.3,5.75,.78,1.36,.99,1.03,1.74,1.4,.75,.38,6.06,1.56,6.39,1.57,.33,0-4.05-4.57-9.12-7.95Z"/><path class="c" d="M85.94,61.29c-.17-.09-1.9-1.4-3.31-2.53-1.41-1.13-3.44-3.05-3.85-3.24-.42-.19-2.47-1.81-2.62-2.37-.16-.57,5.66,.99,6.38,1.39,.73,.4,2.52,1.66,3.55,6.14,0,0-.18,.24-.64-.6,0,0-1.83-3.65-3.01-4.13-1.78-.73,1.63,2.75,2.94,4.48,0,0-5.82-6.49-6.24-5.76-.42,.73,6.74,6.33,6.74,6.33l.06,.3Z"/><path class="c" d="M85.64,61.77s-7.56-6.08-8.29-6.66c-.73-.58-2.17-2.04-2.15-1.41,.02,.62,2.15,5.36,2.83,5.91,.68,.55,6.67,2.73,7.13,2.5,.46-.23-3.98-.89-5.52-2.79,0,0-.59-1.38,5.11,2.22,0,0-8.3-5.26-7.03-5.17,0,0,2.76,1.4,7.5,5.3,0,0,.37,.25,.42,.1Z"/><path class="c" d="M69.89,45.11s-.79-1.62-.11-.89c.68,.73,.95,1.63,1.42,2.67,.47,1.05,.35,.54,.84,1.65,.33,.74,.85,1.65,.68,1.65-.16,0,.27,.81-.86-.25-1.13-1.07-3.09-2.59-3.65-2.99-.56-.4-5.17-4.09-6.35-5.1-1.18-1.01,5.21,.47,6.12,1.02,.92,.56-.45,.41-.87,.22-.42-.19-3.04-.72-1.74,.79,1.31,1.52,2.25,.67,2.51,.47,.27-.2,.74-.9,1.11-.57,.37,.33-.03,.77-.2,.68-.17-.09-.3,2.07,1.14,2.61,1.44,.53-.06-1.96-.06-1.96Z"/><path class="c" d="M73.67,52.65s.3,.04,1.07,1.78c.76,1.74,2.1,4.5,1.6,4.31-.5-.19-5.74-4.19-7.46-5.72-1.72-1.52,5.94,4.17,4.19,2.32-1.76-1.85-4.68-3.43-5.2-3.41,0,0-1.21-.89-.82-.85,.39,.04,7.18,4.38,6.06,2.48,0,0-1.06-1.24-6-2.78,0,0,3.37-.04,6.58,1.87Z"/><path class="c" d="M65.7,49.51s6.93,2.26,5.87,.84c-1.05-1.42-9.41-7.63-9.41-7.63,0,0,1.2,3.8,2.52,5.44,0,0-1.18-2.75,.1-2.13,1.28,.61,0,1.92,.43,2.64,0,0,.38-.05,.75-.55,.37-.5,2.42,.11,3.16,1.05,0,0,.98,1.6-3.49-.05-.48-.17,.07,.39,.07,.39Z"/></g></g><g><polygon class="e" points="24.06 40.91 29.67 42.33 37.02 42.79 45.4 42.25 53.99 40.76 61.95 38.47 68.49 35.59 72.98 32.42 74.97 29.26 74.28 26.43 70.96 24.19 65.36 22.78 58 22.32 49.62 22.86 41.03 24.35 33.08 26.64 26.53 29.52 22.05 32.69 20.05 35.84 20.74 38.68 24.06 40.91"/><path class="d" d="M44.53,39.58s6.22-.57,10.93-2.14l.95,2.6-2.1,.6-7.45,1.31-1.78,.27-.54-2.64Z"/><polygon class="d" points="36.77 40.22 37.57 42.66 29.92 42.38 29.48 39.96 36.77 40.22"/><polygon class="d" points="65.8 36.76 64.71 34.2 68.56 32.33 70.61 31.02 71.68 33.46 68.87 35.43 65.8 36.76"/><g><polygon class="e" points="22.82 38.96 27.83 40.29 34.78 40.74 42.99 40.27 51.66 38.92 59.94 36.83 67.01 34.21 72.18 31.3 74.95 28.4 75.05 25.78 72.45 23.71 67.45 22.38 60.49 21.94 52.27 22.4 43.61 23.75 35.34 25.84 28.27 28.46 23.09 31.37 20.32 34.27 20.23 36.89 22.82 38.96"/><path class="b" d="M37.11,39.97c-4.33,.13-8.19-.17-11.04-.95-8.01-2.2-4.96-7.41,6.8-11.63,11.76-4.22,27.78-5.85,35.8-3.65,8,2.2,4.96,7.41-6.8,11.62-7.58,2.72-16.93,4.36-24.76,4.6"/><path class="f" d="M34.31,27.75c-10.92,3.92-13.87,8.72-6.57,10.73,7.3,2.01,22.07,.46,33-3.46,10.92-3.92,13.86-8.72,6.56-10.73-7.3-2.01-22.07-.46-32.99,3.46Z"/><path class="c" d="M41.79,27.82c-.25,.07,1.92-.08,4.68-.62,2.75-.54,3.62,0,3.62,0,0,0-1.48,.77-5.97,.79,0,0-1.75-.06-2.41,.18,0,0,.27,.05,1.69,0,1.37-.04,4.48,.47,3.31,.65-1.16,.17-2.82,.4-4.26-.14-1.44-.55-2.1-.39-2.1-.39,0,0,4.31,1.76,5.84,2.06,1.54,.31,1.43-.06,2.2-.38,.78-.32,5.17-3.52,5.39-3.77,.22-.24-6.11,.03-11.99,1.61Z"/><path class="c" d="M62.13,28.32c-.18,.06-2.31,.5-4.09,.82-1.78,.31-4.56,.57-4.97,.76-.41,.19-2.99,.66-3.51,.4-.53-.26,4.47-3.6,5.25-3.88,.78-.28,2.91-.8,6.95,1.38,0,0,.06,.3-.88,.09,0,0-3.95-1.03-5.09-.46-1.72,.85,3.15,.59,5.31,.75,0,0-8.72,.1-8.44,.89,.27,.8,9.2-.89,9.2-.89l.26,.15Z"/><path class="c" d="M62.29,28.86s-9.55,1.67-10.47,1.84c-.91,.17-2.96,.29-2.48,.69,.48,.4,5.45,1.92,6.31,1.78,.86-.14,6.45-3.21,6.58-3.71,.13-.5-3.29,2.4-5.74,2.3,0,0-1.42-.47,5.04-2.38,0,0-9.43,2.77-8.53,1.88,0,0,2.87-1.15,8.93-2.14,0,0,.43-.11,.35-.25Z"/><path class="c" d="M39.38,29.71s-1.74-.48-.74-.51c1-.03,1.85,.36,2.95,.7,1.1,.34,.64,.1,1.8,.46,.77,.24,1.8,.46,1.68,.58-.11,.12,.79,.33-.76,.48-1.55,.15-3.99,.61-4.66,.77-.67,.16-6.48,1.18-8.02,1.41-1.54,.22,3.79-3.6,4.81-3.93,1.03-.33,0,.61-.41,.8-.42,.19-2.55,1.81-.55,1.83,2,.02,1.99-1.24,2.01-1.58,.03-.34-.19-1.16,.3-1.21,.49-.06,.56,.53,.38,.6-.18,.06,1.36,1.59,2.71,.86,1.35-.73-1.51-1.25-1.51-1.25Z"/><path class="c" d="M47.54,31.84s.23-.2,2.04,.37c1.81,.57,4.77,1.39,4.3,1.64-.47,.25-6.94,1.55-9.22,1.84-2.28,.29,7.05-1.71,4.5-1.62-2.55,.1-5.67,1.26-6,1.66,0,0-1.47,.32-1.18,.06,.29-.26,8.03-2.51,5.86-2.92,0,0-1.63-.03-6.04,2.68,0,0,2.19-2.56,5.74-3.71Z"/><path class="c" d="M39.92,35.76s6.27-3.72,4.5-3.86c-1.76-.14-11.94,2.04-11.94,2.04,0,0,3.64,1.61,5.76,1.7,0,0-2.85-.92-1.54-1.48,1.3-.56,1.44,1.27,2.26,1.42,0,0,.21-.32,.09-.93-.13-.61,1.68-1.74,2.87-1.68,0,0,1.85,.32-2.34,2.59-.45,.24,.34,.21,.34,.21Z"/></g></g></svg>