<?xml version="1.0" encoding="UTF-8"?><svg id="a" xmlns="http://www.w3.org/2000/svg" viewBox="0 0 152 133"><defs><style>.b{fill:#d8ea8c;}.c{fill:#cedd7a;}.d{fill:#518e11;}.e{fill:#397207;}.f{fill:#e8f9aa;}</style></defs><g><polygon class="e" points="52.92 61.66 58.17 64.11 65.3 65.94 73.63 66.98 82.35 67.13 90.6 66.37 97.56 64.78 102.56 62.5 105.11 59.78 104.97 56.86 102.13 54.04 96.89 51.6 89.75 49.77 81.42 48.72 72.7 48.57 64.46 49.33 57.49 50.93 52.49 53.2 49.94 55.93 50.08 58.84 52.92 61.66"/><path class="d" d="M73.28,64.19s6.21,.61,11.13-.05l.45,2.74-2.18,.19-7.56-.11-1.8-.07-.04-2.7Z"/><polygon class="d" points="65.53 63.37 65.86 65.91 58.4 64.2 58.43 61.74 65.53 63.37"/><polygon class="d" points="94.7 65.41 94.11 62.7 98.25 61.59 100.5 60.68 101.1 63.28 97.96 64.68 94.7 65.41"/><g><polygon class="e" points="52.07 59.51 56.75 61.75 63.49 63.5 71.64 64.58 80.41 64.89 88.93 64.39 96.36 63.14 101.99 61.25 105.25 58.92 105.84 56.37 103.69 53.85 99.02 51.61 92.27 49.86 84.11 48.78 75.35 48.47 66.84 48.97 59.39 50.22 53.77 52.1 50.5 54.43 49.92 56.98 52.07 59.51"/><path class="b" d="M65.91,63.18c-4.27-.68-8.01-1.7-10.66-3.01-7.45-3.67-3.48-8.21,8.86-10.14,12.34-1.93,28.39-.53,35.84,3.14,7.45,3.67,3.48,8.21-8.86,10.14-7.96,1.25-17.44,1.11-25.18-.13"/><path class="f" d="M65.46,50.65c-11.47,1.8-15.26,5.96-8.47,9.31,6.79,3.34,21.59,4.6,33.06,2.8,11.46-1.8,15.25-5.96,8.46-9.31-6.79-3.34-21.59-4.6-33.06-2.8Z"/><path class="c" d="M72.8,52.13c-.26,.02,1.91,.28,4.71,.27,2.8-.01,3.56,.69,3.56,.69,0,0-1.59,.48-6.01-.34,0,0-1.71-.39-2.4-.28,0,0,.25,.1,1.65,.32,1.35,.21,4.31,1.31,3.13,1.26-1.18-.05-2.85-.14-4.15-.94-1.31-.81-1.99-.78-1.99-.78,0,0,3.91,2.54,5.35,3.12,1.45,.59,1.41,.21,2.24,.04,.82-.17,5.74-2.49,6-2.69,.26-.2-6.01-1.12-12.08-.67Z"/><path class="c" d="M92.68,56.44c-.19,.03-2.37,.06-4.17,.03-1.8-.03-4.58-.29-5.03-.18-.44,.11-3.06,.09-3.52-.26-.47-.35,5.07-2.7,5.89-2.83,.82-.13,3.01-.24,6.57,2.66,0,0,0,.3-.88-.08,0,0-3.68-1.75-4.91-1.41-1.85,.52,2.98,1.17,5.08,1.73,0,0-8.58-1.54-8.46-.71,.12,.84,9.21,.85,9.21,.85l.23,.2Z"/><path class="c" d="M92.74,57s-9.7-.15-10.63-.16c-.93,0-2.97-.27-2.56,.21,.4,.48,4.99,2.91,5.86,2.93,.87,.02,6.94-1.94,7.16-2.4,.22-.46-3.68,1.74-6.07,1.18,0,0-1.31-.73,5.4-1.39,0,0-9.78,.95-8.73,.24,0,0,3.03-.59,9.18-.43,0,0,.44-.03,.39-.18Z"/><path class="c" d="M70.07,53.53s-1.62-.8-.63-.64c.99,.16,1.75,.7,2.76,1.24,1.02,.54,.61,.22,1.68,.79,.71,.38,1.68,.79,1.55,.88-.13,.1,.71,.47-.83,.33-1.55-.15-4.03-.15-4.72-.12-.69,.03-6.59-.06-8.14-.12-1.55-.07,4.4-2.83,5.46-2.96,1.07-.13-.11,.6-.55,.71-.45,.11-2.84,1.3-.89,1.69,1.96,.39,2.19-.85,2.27-1.17,.09-.32,.03-1.17,.53-1.13,.49,.04,.45,.63,.26,.66-.19,.03,1.04,1.82,2.5,1.36,1.47-.46-1.25-1.51-1.25-1.51Z"/><path class="c" d="M77.69,57.15s.26-.16,1.93,.75c1.67,.9,4.43,2.26,3.91,2.42-.51,.16-7.11,.22-9.4,.08-2.29-.15,7.25-.36,4.73-.74-2.52-.38-5.8,.17-6.2,.51,0,0-1.5,.04-1.17-.17,.33-.21,8.35-.96,6.3-1.76,0,0-1.6-.33-6.44,1.5,0,0,2.63-2.1,6.34-2.57Z"/><path class="c" d="M69.47,59.57s6.85-2.47,5.15-2.94c-1.7-.47-12.12-.24-12.12-.24,0,0,3.28,2.26,5.33,2.75,0,0-2.62-1.44-1.23-1.75,1.38-.3,1.18,1.51,1.96,1.82,0,0,.27-.28,.26-.89-.01-.62,1.98-1.4,3.14-1.11,0,0,1.75,.66-2.78,2.11-.48,.16,.29,.27,.29,.27Z"/></g></g><g><polygon class="e" points="43.19 96.58 48.43 99.03 55.57 100.86 63.9 101.9 72.62 102.05 80.86 101.29 87.83 99.7 92.83 97.43 95.38 94.7 95.24 91.79 92.4 88.97 87.16 86.52 80.02 84.69 71.68 83.64 62.97 83.5 54.73 84.26 47.76 85.85 42.76 88.12 40.2 90.85 40.35 93.76 43.19 96.58"/><path class="d" d="M63.55,99.11s6.21,.61,11.13-.05l.45,2.74-2.18,.19-7.56-.11-1.8-.07-.04-2.7Z"/><polygon class="d" points="55.8 98.29 56.13 100.84 48.67 99.12 48.7 96.66 55.8 98.29"/><polygon class="d" points="84.97 100.34 84.38 97.62 88.51 96.51 90.77 95.61 91.36 98.2 88.23 99.61 84.97 100.34"/><g><polygon class="e" points="42.34 94.43 47.02 96.68 53.76 98.42 61.91 99.5 70.68 99.81 79.2 99.31 86.63 98.06 92.26 96.18 95.52 93.84 96.11 91.29 93.95 88.77 89.28 86.53 82.53 84.78 74.38 83.7 65.61 83.39 57.1 83.89 49.66 85.14 44.03 87.02 40.77 89.36 40.18 91.91 42.34 94.43"/><path class="b" d="M56.18,98.11c-4.27-.68-8.01-1.7-10.66-3.01-7.45-3.67-3.48-8.21,8.86-10.14,12.34-1.93,28.39-.53,35.84,3.14,7.45,3.67,3.48,8.21-8.86,10.14-7.96,1.25-17.44,1.11-25.18-.13"/><path class="f" d="M55.73,85.57c-11.47,1.8-15.26,5.96-8.47,9.31,6.79,3.34,21.59,4.6,33.06,2.8,11.46-1.8,15.25-5.96,8.46-9.31-6.79-3.34-21.59-4.6-33.06-2.8Z"/><path class="c" d="M63.07,87.05c-.26,.02,1.91,.28,4.71,.27,2.8-.01,3.56,.69,3.56,.69,0,0-1.59,.48-6.01-.34,0,0-1.71-.39-2.4-.28,0,0,.25,.1,1.65,.32,1.35,.21,4.31,1.31,3.13,1.26-1.18-.05-2.85-.14-4.15-.94-1.31-.81-1.99-.78-1.99-.78,0,0,3.91,2.54,5.35,3.12,1.45,.59,1.41,.21,2.24,.04,.82-.17,5.74-2.49,6-2.69,.26-.2-6.01-1.12-12.08-.67Z"/><path class="c" d="M82.95,91.36c-.19,.03-2.37,.06-4.17,.03-1.8-.03-4.58-.29-5.03-.18-.44,.11-3.06,.09-3.52-.26-.47-.35,5.07-2.7,5.89-2.83,.82-.13,3.01-.24,6.57,2.66,0,0,0,.3-.88-.08,0,0-3.68-1.75-4.91-1.41-1.85,.52,2.98,1.17,5.08,1.73,0,0-8.58-1.54-8.46-.71,.12,.84,9.21,.85,9.21,.85l.23,.2Z"/><path class="c" d="M83.01,91.92s-9.7-.15-10.63-.16c-.93,0-2.97-.27-2.56,.21,.4,.48,4.99,2.91,5.86,2.93,.87,.02,6.94-1.94,7.16-2.4,.22-.46-3.68,1.74-6.07,1.18,0,0-1.31-.73,5.4-1.39,0,0-9.78,.95-8.73,.24,0,0,3.03-.59,9.18-.43,0,0,.44-.03,.39-.18Z"/><path class="c" d="M60.34,88.45s-1.62-.8-.63-.64c.99,.16,1.75,.7,2.76,1.24,1.02,.54,.61,.22,1.68,.79,.71,.38,1.68,.79,1.55,.88-.13,.1,.71,.47-.83,.33-1.55-.15-4.03-.15-4.72-.12-.69,.03-6.59-.06-8.14-.12-1.55-.07,4.4-2.83,5.46-2.96,1.07-.13-.11,.6-.55,.71-.45,.11-2.84,1.3-.89,1.69,1.96,.39,2.19-.85,2.27-1.17,.09-.32,.03-1.17,.53-1.13,.49,.04,.45,.63,.26,.66-.19,.03,1.04,1.82,2.5,1.36,1.47-.46-1.25-1.51-1.25-1.51Z"/><path class="c" d="M67.95,92.08s.26-.16,1.93,.75c1.67,.9,4.43,2.26,3.91,2.42-.51,.16-7.11,.22-9.4,.08-2.29-.15,7.25-.36,4.73-.74-2.52-.38-5.8,.17-6.2,.51,0,0-1.5,.04-1.17-.17,.33-.21,8.35-.96,6.3-1.76,0,0-1.6-.33-6.44,1.5,0,0,2.63-2.1,6.34-2.57Z"/><path class="c" d="M59.74,94.49s6.85-2.47,5.15-2.94c-1.7-.47-12.12-.24-12.12-.24,0,0,3.28,2.26,5.33,2.75,0,0-2.62-1.44-1.23-1.75,1.38-.3,1.18,1.51,1.96,1.82,0,0,.27-.28,.26-.89-.01-.62,1.98-1.4,3.14-1.11,0,0,1.75,.66-2.78,2.11-.48,.16,.29,.27,.29,.27Z"/></g></g><g><polygon class="e" points="78.14 101.48 83.38 103.93 90.51 105.76 98.84 106.8 107.56 106.95 115.81 106.19 122.77 104.6 127.78 102.32 130.33 99.6 130.18 96.68 127.34 93.86 122.11 91.42 114.97 89.59 106.63 88.54 97.91 88.39 89.68 89.15 82.71 90.75 77.7 93.02 75.15 95.75 75.3 98.66 78.14 101.48"/><path class="d" d="M98.5,104.01s6.21,.61,11.13-.05l.45,2.74-2.18,.19-7.56-.11-1.8-.07-.04-2.7Z"/><polygon class="d" points="90.75 103.19 91.08 105.73 83.61 104.02 83.64 101.56 90.75 103.19"/><polygon class="d" points="119.91 105.23 119.32 102.52 123.46 101.41 125.72 100.5 126.31 103.1 123.18 104.5 119.91 105.23"/><g><polygon class="e" points="77.28 99.33 81.96 101.57 88.7 103.32 96.85 104.4 105.62 104.71 114.14 104.21 121.58 102.96 127.2 101.07 130.47 98.74 131.06 96.19 128.9 93.67 124.23 91.43 117.48 89.68 109.32 88.6 100.56 88.29 92.05 88.79 84.61 90.04 78.98 91.92 75.71 94.25 75.13 96.8 77.28 99.33"/><path class="b" d="M91.13,103c-4.27-.68-8.01-1.7-10.66-3.01-7.45-3.67-3.48-8.21,8.86-10.14,12.34-1.93,28.39-.53,35.84,3.14,7.45,3.67,3.48,8.21-8.86,10.14-7.96,1.25-17.44,1.11-25.18-.13"/><path class="f" d="M90.67,90.47c-11.47,1.8-15.26,5.96-8.47,9.31,6.79,3.34,21.59,4.6,33.06,2.8,11.46-1.8,15.25-5.96,8.46-9.31-6.79-3.34-21.59-4.6-33.06-2.8Z"/><path class="c" d="M98.01,91.95c-.26,.02,1.91,.28,4.71,.27,2.8-.01,3.56,.69,3.56,.69,0,0-1.59,.48-6.01-.34,0,0-1.71-.39-2.4-.28,0,0,.25,.1,1.65,.32,1.35,.21,4.31,1.31,3.13,1.26-1.18-.05-2.85-.14-4.15-.94-1.31-.81-1.99-.78-1.99-.78,0,0,3.91,2.54,5.35,3.12,1.45,.59,1.41,.21,2.24,.04,.82-.17,5.74-2.49,6-2.69,.26-.2-6.01-1.12-12.08-.67Z"/><path class="c" d="M117.89,96.26c-.19,.03-2.37,.06-4.17,.03-1.8-.03-4.58-.29-5.03-.18-.44,.11-3.06,.09-3.52-.26-.47-.35,5.07-2.7,5.89-2.83,.82-.13,3.01-.24,6.57,2.66,0,0,0,.3-.88-.08,0,0-3.68-1.75-4.91-1.41-1.85,.52,2.98,1.17,5.08,1.73,0,0-8.58-1.54-8.46-.71,.12,.84,9.21,.85,9.21,.85l.23,.2Z"/><path class="c" d="M117.95,96.82s-9.7-.15-10.63-.16c-.93,0-2.97-.27-2.56,.21,.4,.48,4.99,2.91,5.86,2.93,.87,.02,6.94-1.94,7.16-2.4,.22-.46-3.68,1.74-6.07,1.18,0,0-1.31-.73,5.4-1.39,0,0-9.78,.95-8.73,.24,0,0,3.03-.59,9.18-.43,0,0,.44-.03,.39-.18Z"/><path class="c" d="M95.29,93.35s-1.62-.8-.63-.64c.99,.16,1.75,.7,2.76,1.24,1.02,.54,.61,.22,1.68,.79,.71,.38,1.68,.79,1.55,.88-.13,.1,.71,.47-.83,.33-1.55-.15-4.03-.15-4.72-.12-.69,.03-6.59-.06-8.14-.12-1.55-.07,4.4-2.83,5.46-2.96,1.07-.13-.11,.6-.55,.71-.45,.11-2.84,1.3-.89,1.69,1.96,.39,2.19-.85,2.27-1.17,.09-.32,.03-1.17,.53-1.13,.49,.04,.45,.63,.26,.66-.19,.03,1.04,1.82,2.5,1.36,1.47-.46-1.25-1.51-1.25-1.51Z"/><path class="c" d="M102.9,96.97s.26-.16,1.93,.75c1.67,.9,4.43,2.26,3.91,2.42-.51,.16-7.11,.22-9.4,.08-2.29-.15,7.25-.36,4.73-.74-2.52-.38-5.8,.17-6.2,.51,0,0-1.5,.04-1.17-.17,.33-.21,8.35-.96,6.3-1.76,0,0-1.6-.33-6.44,1.5,0,0,2.63-2.1,6.34-2.57Z"/><path class="c" d="M94.69,99.39s6.85-2.47,5.15-2.94c-1.7-.47-12.12-.24-12.12-.24,0,0,3.28,2.26,5.33,2.75,0,0-2.62-1.44-1.23-1.75,1.38-.3,1.18,1.51,1.96,1.82,0,0,.27-.28,.26-.89-.01-.62,1.98-1.4,3.14-1.11,0,0,1.75,.66-2.78,2.11-.48,.16,.29,.27,.29,.27Z"/></g></g><g><polygon class="e" points="82.7 106.73 87.94 109.18 95.08 111.01 103.41 112.05 112.13 112.2 120.37 111.44 127.34 109.84 132.34 107.57 134.89 104.85 134.75 101.93 131.91 99.11 126.67 96.67 119.53 94.83 111.19 93.79 102.48 93.64 94.24 94.4 87.27 96 82.27 98.27 79.71 100.99 79.86 103.91 82.7 106.73"/><path class="d" d="M103.06,109.26s6.21,.61,11.13-.05l.45,2.74-2.18,.19-7.56-.11-1.8-.07-.04-2.7Z"/><polygon class="d" points="95.31 108.44 95.64 110.98 88.18 109.26 88.21 106.81 95.31 108.44"/><polygon class="d" points="124.48 110.48 123.89 107.76 128.02 106.66 130.28 105.75 130.87 108.35 127.74 109.75 124.48 110.48"/><g><polygon class="e" points="81.85 104.58 86.53 106.82 93.27 108.57 101.42 109.65 110.19 109.96 118.71 109.46 126.14 108.21 131.77 106.32 135.03 103.99 135.62 101.44 133.46 98.92 128.79 96.67 122.04 94.93 113.89 93.85 105.12 93.54 96.61 94.04 89.17 95.29 83.55 97.17 80.28 99.5 79.69 102.05 81.85 104.58"/><path class="b" d="M95.69,108.25c-4.27-.68-8.01-1.7-10.66-3.01-7.45-3.67-3.48-8.21,8.86-10.14,12.34-1.93,28.39-.53,35.84,3.14,7.45,3.67,3.48,8.21-8.86,10.14-7.96,1.25-17.44,1.11-25.18-.13"/><path class="f" d="M95.24,95.72c-11.47,1.8-15.26,5.96-8.47,9.31,6.79,3.34,21.59,4.6,33.06,2.8,11.46-1.8,15.25-5.96,8.46-9.31-6.79-3.34-21.59-4.6-33.06-2.8Z"/><path class="c" d="M102.58,97.2c-.26,.02,1.91,.28,4.71,.27,2.8-.01,3.56,.69,3.56,.69,0,0-1.59,.48-6.01-.34,0,0-1.71-.39-2.4-.28,0,0,.25,.1,1.65,.32,1.35,.21,4.31,1.31,3.13,1.26-1.18-.05-2.85-.14-4.15-.94-1.31-.81-1.99-.78-1.99-.78,0,0,3.91,2.54,5.35,3.12,1.45,.59,1.41,.21,2.24,.04,.82-.17,5.74-2.49,6-2.69,.26-.2-6.01-1.12-12.08-.67Z"/><path class="c" d="M122.46,101.51c-.19,.03-2.37,.06-4.17,.03-1.8-.03-4.58-.29-5.03-.18-.44,.11-3.06,.09-3.52-.26-.47-.35,5.07-2.7,5.89-2.83,.82-.13,3.01-.24,6.57,2.66,0,0,0,.3-.88-.08,0,0-3.68-1.75-4.91-1.41-1.85,.52,2.98,1.17,5.08,1.73,0,0-8.58-1.54-8.46-.71,.12,.84,9.21,.85,9.21,.85l.23,.2Z"/><path class="c" d="M122.52,102.07s-9.7-.15-10.63-.16c-.93,0-2.97-.27-2.56,.21,.4,.48,4.99,2.91,5.86,2.93,.87,.02,6.94-1.94,7.16-2.4,.22-.46-3.68,1.74-6.07,1.18,0,0-1.31-.73,5.4-1.39,0,0-9.78,.95-8.73,.24,0,0,3.03-.59,9.18-.43,0,0,.44-.03,.39-.18Z"/><path class="c" d="M99.85,98.6s-1.62-.8-.63-.64c.99,.16,1.75,.7,2.76,1.24,1.02,.54,.61,.22,1.68,.79,.71,.38,1.68,.79,1.55,.88-.13,.1,.71,.47-.83,.33-1.55-.15-4.03-.15-4.72-.12-.69,.03-6.59-.06-8.14-.12-1.55-.07,4.4-2.83,5.46-2.96,1.07-.13-.11,.6-.55,.71-.45,.11-2.84,1.3-.89,1.69,1.96,.39,2.19-.85,2.27-1.17,.09-.32,.03-1.17,.53-1.13,.49,.04,.45,.63,.26,.66-.19,.03,1.04,1.82,2.5,1.36,1.47-.46-1.25-1.51-1.25-1.51Z"/><path class="c" d="M107.46,102.22s.26-.16,1.93,.75c1.67,.9,4.43,2.26,3.91,2.42-.51,.16-7.11,.22-9.4,.08-2.29-.15,7.25-.36,4.73-.74-2.52-.38-5.8,.17-6.2,.51,0,0-1.5,.04-1.17-.17,.33-.21,8.35-.96,6.3-1.76,0,0-1.6-.33-6.44,1.5,0,0,2.63-2.1,6.34-2.57Z"/><path class="c" d="M99.25,104.64s6.85-2.47,5.15-2.94c-1.7-.47-12.12-.24-12.12-.24,0,0,3.28,2.26,5.33,2.75,0,0-2.62-1.44-1.23-1.75,1.38-.3,1.18,1.51,1.96,1.82,0,0,.27-.28,.26-.89-.01-.62,1.98-1.4,3.14-1.11,0,0,1.75,.66-2.78,2.11-.48,.16,.29,.27,.29,.27Z"/></g></g><g><polygon class="e" points="71.45 85.4 76.69 87.84 83.82 89.68 92.16 90.72 100.87 90.87 109.12 90.11 116.09 88.51 121.09 86.24 123.64 83.51 123.49 80.6 120.65 77.78 115.42 75.34 108.28 73.5 99.94 72.46 91.23 72.31 82.99 73.07 76.02 74.67 71.01 76.94 68.46 79.66 68.61 82.58 71.45 85.4"/><path class="d" d="M91.81,87.93s6.21,.61,11.13-.05l.45,2.74-2.18,.19-7.56-.11-1.8-.07-.04-2.7Z"/><polygon class="d" points="84.06 87.11 84.39 89.65 76.92 87.93 76.95 85.48 84.06 87.11"/><polygon class="d" points="113.23 89.15 112.64 86.43 116.77 85.32 119.03 84.42 119.62 87.02 116.49 88.42 113.23 89.15"/><g><polygon class="e" points="70.59 83.24 75.27 85.49 82.01 87.24 90.17 88.32 98.93 88.62 107.45 88.13 114.89 86.88 120.51 84.99 123.78 82.66 124.37 80.11 122.21 77.59 117.54 75.34 110.79 73.6 102.63 72.51 93.87 72.21 85.36 72.71 77.92 73.96 72.29 75.84 69.03 78.17 68.44 80.72 70.59 83.24"/><path class="b" d="M84.44,86.92c-4.27-.68-8.01-1.7-10.66-3.01-7.45-3.67-3.48-8.21,8.86-10.14,12.34-1.93,28.39-.53,35.84,3.14,7.45,3.67,3.48,8.21-8.86,10.14-7.96,1.25-17.44,1.11-25.18-.13"/><path class="f" d="M83.98,74.39c-11.47,1.8-15.26,5.96-8.47,9.31,6.79,3.34,21.59,4.6,33.06,2.8,11.46-1.8,15.25-5.96,8.46-9.31-6.79-3.34-21.59-4.6-33.06-2.8Z"/><path class="c" d="M91.32,75.87c-.26,.02,1.91,.28,4.71,.27,2.8-.01,3.56,.69,3.56,.69,0,0-1.59,.48-6.01-.34,0,0-1.71-.39-2.4-.28,0,0,.25,.1,1.65,.32,1.35,.21,4.31,1.31,3.13,1.26-1.18-.05-2.85-.14-4.15-.94-1.31-.81-1.99-.78-1.99-.78,0,0,3.91,2.54,5.35,3.12,1.45,.59,1.41,.21,2.24,.04,.82-.17,5.74-2.49,6-2.69,.26-.2-6.01-1.12-12.08-.67Z"/><path class="c" d="M111.2,80.17c-.19,.03-2.37,.06-4.17,.03-1.8-.03-4.58-.29-5.03-.18-.44,.11-3.06,.09-3.52-.26-.47-.35,5.07-2.7,5.89-2.83,.82-.13,3.01-.24,6.57,2.66,0,0,0,.3-.88-.08,0,0-3.68-1.75-4.91-1.41-1.85,.52,2.98,1.17,5.08,1.73,0,0-8.58-1.54-8.46-.71,.12,.84,9.21,.85,9.21,.85l.23,.2Z"/><path class="c" d="M111.26,80.73s-9.7-.15-10.63-.16c-.93,0-2.97-.27-2.56,.21,.4,.48,4.99,2.91,5.86,2.93,.87,.02,6.94-1.94,7.16-2.4,.22-.46-3.68,1.74-6.07,1.18,0,0-1.31-.73,5.4-1.39,0,0-9.78,.95-8.73,.24,0,0,3.03-.59,9.18-.43,0,0,.44-.03,.39-.18Z"/><path class="c" d="M88.6,77.27s-1.62-.8-.63-.64c.99,.16,1.75,.7,2.76,1.24,1.02,.54,.61,.22,1.68,.79,.71,.38,1.68,.79,1.55,.88-.13,.1,.71,.47-.83,.33-1.55-.15-4.03-.15-4.72-.12-.69,.03-6.59-.06-8.14-.12-1.55-.07,4.4-2.83,5.46-2.96,1.07-.13-.11,.6-.55,.71-.45,.11-2.84,1.3-.89,1.69,1.96,.39,2.19-.85,2.27-1.17,.09-.32,.03-1.17,.53-1.13,.49,.04,.45,.63,.26,.66-.19,.03,1.04,1.82,2.5,1.36,1.47-.46-1.25-1.51-1.25-1.51Z"/><path class="c" d="M96.21,80.89s.26-.16,1.93,.75c1.67,.9,4.43,2.26,3.91,2.42-.51,.16-7.11,.22-9.4,.08-2.29-.15,7.25-.36,4.73-.74-2.52-.38-5.8,.17-6.2,.51,0,0-1.5,.04-1.17-.17,.33-.21,8.35-.96,6.3-1.76,0,0-1.6-.33-6.44,1.5,0,0,2.63-2.1,6.34-2.57Z"/><path class="c" d="M88,83.31s6.85-2.47,5.15-2.94c-1.7-.47-12.12-.24-12.12-.24,0,0,3.28,2.26,5.33,2.75,0,0-2.62-1.44-1.23-1.75,1.38-.3,1.18,1.51,1.96,1.82,0,0,.27-.28,.26-.89-.01-.62,1.98-1.4,3.14-1.11,0,0,1.75,.66-2.78,2.11-.48,.16,.29,.27,.29,.27Z"/></g></g><g><polygon class="e" points="47.98 28.94 51.54 33.5 57.06 38.37 64.01 43.08 71.72 47.16 79.41 50.23 86.34 51.97 91.83 52.22 95.34 50.94 96.53 48.28 95.28 44.48 91.72 39.93 86.19 35.05 79.24 30.34 71.54 26.25 63.85 23.19 56.92 21.45 51.43 21.2 47.92 22.47 46.73 25.13 47.98 28.94"/><path class="d" d="M64.97,40.43s5.26,3.36,9.94,5.01l-.84,2.64-2.03-.82-6.69-3.53-1.57-.88,1.19-2.42Z"/><polygon class="d" points="58.44 36.18 57.58 38.6 51.7 33.68 52.85 31.5 58.44 36.18"/><polygon class="d" points="83.5 51.24 84.21 48.55 88.4 49.44 90.82 49.66 90.17 52.24 86.74 52.07 83.5 51.24"/><g><polygon class="e" points="48.19 26.63 51.34 30.75 56.56 35.37 63.33 40.03 71 44.29 78.82 47.71 86.01 49.97 91.88 50.84 95.85 50.25 97.53 48.24 96.75 45.01 93.61 40.9 88.39 36.28 81.61 31.61 73.94 27.36 66.13 23.94 58.93 21.68 53.07 20.8 49.1 21.4 47.42 23.4 48.19 26.63"/><path class="b" d="M58.86,36.19c-3.5-2.55-6.36-5.15-8.14-7.52-4.97-6.65,.62-8.9,12.5-5.02,11.88,3.88,25.54,12.41,30.51,19.07,4.97,6.65-.62,8.9-12.5,5.02-7.66-2.5-16.05-6.93-22.38-11.55"/><path class="f" d="M64.14,24.82c-11.03-3.6-16.3-1.61-11.77,4.45,4.53,6.06,17.15,13.89,28.19,17.5,11.03,3.6,16.3,1.61,11.76-4.45-4.53-6.06-17.16-13.9-28.19-17.5Z"/><path class="c" d="M70.01,29.46c-.24-.1,1.57,1.12,4.07,2.38,2.5,1.26,2.86,2.23,2.86,2.23,0,0-1.64-.29-5.2-3.03,0,0-1.35-1.13-2.01-1.34,0,0,.18,.2,1.33,1.04,1.11,.8,3.25,3.12,2.22,2.54-1.03-.58-2.48-1.41-3.27-2.72-.8-1.31-1.42-1.6-1.42-1.6,0,0,2.33,4.03,3.35,5.21,1.03,1.18,1.17,.83,1.98,1.05,.81,.23,6.24,.38,6.57,.33,.32-.06-4.85-3.72-10.46-6.08Z"/><path class="c" d="M85.77,42.32c-.18-.06-2.14-1.02-3.73-1.86-1.59-.84-3.95-2.34-4.4-2.45-.44-.1-2.77-1.31-3.02-1.83-.26-.53,5.74-.1,6.53,.15,.79,.26,2.79,1.15,4.65,5.35,0,0-.13,.27-.75-.47,0,0-2.49-3.23-3.74-3.49-1.88-.38,2.12,2.39,3.74,3.85,0,0-6.94-5.27-7.22-4.47-.27,.8,7.82,4.94,7.82,4.94l.12,.28Z"/><path class="c" d="M85.57,42.85s-8.57-4.53-9.4-4.97c-.82-.43-2.52-1.59-2.38-.98,.13,.61,3.13,4.86,3.89,5.27,.77,.42,7.07,1.42,7.47,1.11,.41-.31-4.07-.12-5.94-1.7,0,0-.84-1.24,5.44,1.21,0,0-9.15-3.59-7.89-3.75,0,0,2.97,.85,8.37,3.78,0,0,.41,.17,.43,.02Z"/><path class="c" d="M66.95,29.48s-1.08-1.44-.27-.86c.81,.59,1.24,1.42,1.9,2.36,.66,.94,.44,.47,1.14,1.46,.46,.66,1.14,1.46,.98,1.49-.16,.03,.42,.74-.89-.09-1.31-.83-3.53-1.96-4.15-2.24-.62-.29-5.85-3.04-7.2-3.8-1.35-.76,5.2-.52,6.21-.16,1.01,.37-.37,.49-.81,.38-.45-.11-3.12-.13-1.56,1.11,1.57,1.24,2.33,.24,2.56-.01,.23-.25,.56-1.03,.98-.77,.42,.26,.11,.76-.07,.7-.18-.06,.1,2.09,1.62,2.34,1.52,.25-.43-1.91-.43-1.91Z"/><path class="c" d="M72.09,36.16s.3-.02,1.38,1.54c1.08,1.56,2.92,4.02,2.39,3.93-.52-.09-6.43-3.03-8.41-4.2-1.97-1.17,6.62,2.97,4.55,1.49-2.08-1.49-5.25-2.48-5.76-2.36,0,0-1.35-.65-.97-.68,.39-.03,7.88,2.94,6.42,1.29,0,0-1.28-1.02-6.42-1.59,0,0,3.3-.68,6.81,.59Z"/><path class="c" d="M63.67,34.59s7.23,.91,5.92-.29c-1.3-1.19-10.69-5.71-10.69-5.71,0,0,1.89,3.5,3.51,4.87,0,0-1.68-2.47-.31-2.11,1.37,.36,.36,1.88,.92,2.51,0,0,.37-.12,.64-.68,.27-.56,2.4-.35,3.3,.43,0,0,1.26,1.38-3.43,.62-.5-.08,.14,.37,.14,.37Z"/></g></g><g><polygon class="e" points="27.07 54.14 32.31 56.58 39.44 58.42 47.77 59.46 56.49 59.61 64.74 58.85 71.7 57.25 76.71 54.98 79.26 52.25 79.11 49.34 76.27 46.52 71.04 44.08 63.9 42.24 55.56 41.2 46.84 41.05 38.61 41.81 31.64 43.4 26.63 45.68 24.08 48.4 24.23 51.32 27.07 54.14"/><path class="d" d="M47.43,56.67s6.21,.61,11.13-.05l.45,2.74-2.18,.19-7.56-.11-1.8-.07-.04-2.7Z"/><polygon class="d" points="39.68 55.84 40.01 58.39 32.54 56.67 32.57 54.21 39.68 55.84"/><polygon class="d" points="68.84 57.89 68.25 55.17 72.39 54.06 74.64 53.16 75.24 55.75 72.11 57.16 68.84 57.89"/><g><polygon class="e" points="26.21 51.98 30.89 54.23 37.63 55.98 45.78 57.06 54.55 57.36 63.07 56.87 70.51 55.61 76.13 53.73 79.4 51.4 79.99 48.85 77.83 46.33 73.16 44.08 66.41 42.33 58.25 41.25 49.49 40.95 40.98 41.44 33.54 42.69 27.91 44.58 24.64 46.91 24.06 49.46 26.21 51.98"/><path class="b" d="M40.06,55.66c-4.27-.68-8.01-1.7-10.66-3.01-7.45-3.67-3.48-8.21,8.86-10.14,12.34-1.93,28.39-.53,35.84,3.14,7.45,3.67,3.48,8.21-8.86,10.14-7.96,1.25-17.44,1.11-25.18-.13"/><path class="f" d="M39.6,43.13c-11.47,1.8-15.26,5.96-8.47,9.31,6.79,3.34,21.59,4.6,33.06,2.8,11.46-1.8,15.25-5.96,8.46-9.31-6.79-3.34-21.59-4.6-33.06-2.8Z"/><path class="c" d="M46.94,44.61c-.26,.02,1.91,.28,4.71,.27,2.8-.01,3.56,.69,3.56,.69,0,0-1.59,.48-6.01-.34,0,0-1.71-.39-2.4-.28,0,0,.25,.1,1.65,.32,1.35,.21,4.31,1.31,3.13,1.26-1.18-.05-2.85-.14-4.15-.94-1.31-.81-1.99-.78-1.99-.78,0,0,3.91,2.54,5.35,3.12,1.45,.59,1.41,.21,2.24,.04,.82-.17,5.74-2.49,6-2.69,.26-.2-6.01-1.12-12.08-.67Z"/><path class="c" d="M66.82,48.91c-.19,.03-2.37,.06-4.17,.03-1.8-.03-4.58-.29-5.03-.18-.44,.11-3.06,.09-3.52-.26-.47-.35,5.07-2.7,5.89-2.83,.82-.13,3.01-.24,6.57,2.66,0,0,0,.3-.88-.08,0,0-3.68-1.75-4.91-1.41-1.85,.52,2.98,1.17,5.08,1.73,0,0-8.58-1.54-8.46-.71,.12,.84,9.21,.85,9.21,.85l.23,.2Z"/><path class="c" d="M66.88,49.47s-9.7-.15-10.63-.16c-.93,0-2.97-.27-2.56,.21,.4,.48,4.99,2.91,5.86,2.93,.87,.02,6.94-1.94,7.16-2.4,.22-.46-3.68,1.74-6.07,1.18,0,0-1.31-.73,5.4-1.39,0,0-9.78,.95-8.73,.24,0,0,3.03-.59,9.18-.43,0,0,.44-.03,.39-.18Z"/><path class="c" d="M44.22,46.01s-1.62-.8-.63-.64c.99,.16,1.75,.7,2.76,1.24,1.02,.54,.61,.22,1.68,.79,.71,.38,1.68,.79,1.55,.88-.13,.1,.71,.47-.83,.33-1.55-.15-4.03-.15-4.72-.12-.69,.03-6.59-.06-8.14-.12-1.55-.07,4.4-2.83,5.46-2.96,1.07-.13-.11,.6-.55,.71-.45,.11-2.84,1.3-.89,1.69,1.96,.39,2.19-.85,2.27-1.17,.09-.32,.03-1.17,.53-1.13,.49,.04,.45,.63,.26,.66-.19,.03,1.04,1.82,2.5,1.36,1.47-.46-1.25-1.51-1.25-1.51Z"/><path class="c" d="M51.83,49.63s.26-.16,1.93,.75c1.67,.9,4.43,2.26,3.91,2.42-.51,.16-7.11,.22-9.4,.08-2.29-.15,7.25-.36,4.73-.74-2.52-.38-5.8,.17-6.2,.51,0,0-1.5,.04-1.17-.17,.33-.21,8.35-.96,6.3-1.76,0,0-1.6-.33-6.44,1.5,0,0,2.63-2.1,6.34-2.57Z"/><path class="c" d="M43.61,52.05s6.85-2.47,5.15-2.94c-1.7-.47-12.12-.24-12.12-.24,0,0,3.28,2.26,5.33,2.75,0,0-2.62-1.44-1.23-1.75,1.38-.3,1.18,1.51,1.96,1.82,0,0,.27-.28,.26-.89-.01-.62,1.98-1.4,3.14-1.11,0,0,1.75,.66-2.78,2.11-.48,.16,.29,.27,.29,.27Z"/></g></g><g><polygon class="e" points="26.94 65.21 32.19 67.66 39.32 69.49 47.65 70.53 56.37 70.68 64.62 69.92 71.58 68.33 76.58 66.06 79.13 63.33 78.99 60.41 76.15 57.59 70.91 55.15 63.77 53.32 55.43 52.27 46.72 52.13 38.48 52.89 31.51 54.48 26.51 56.75 23.96 59.48 24.1 62.39 26.94 65.21"/><path class="d" d="M47.3,67.74s6.21,.61,11.13-.05l.45,2.74-2.18,.19-7.56-.11-1.8-.07-.04-2.7Z"/><polygon class="d" points="39.55 66.92 39.88 69.47 32.42 67.75 32.45 65.29 39.55 66.92"/><polygon class="d" points="68.72 68.96 68.13 66.25 72.27 65.14 74.52 64.23 75.11 66.83 71.98 68.24 68.72 68.96"/><g><polygon class="e" points="26.09 63.06 30.77 65.3 37.51 67.05 45.66 68.13 54.43 68.44 62.95 67.94 70.38 66.69 76.01 64.81 79.27 62.47 79.86 59.92 77.7 57.4 73.03 55.16 66.29 53.41 58.13 52.33 49.37 52.02 40.85 52.52 33.41 53.77 27.79 55.65 24.52 57.98 23.93 60.53 26.09 63.06"/><path class="b" d="M39.93,66.74c-4.27-.68-8.01-1.7-10.66-3.01-7.45-3.67-3.48-8.21,8.86-10.14,12.34-1.93,28.39-.53,35.84,3.14,7.45,3.67,3.48,8.21-8.86,10.14-7.96,1.25-17.44,1.11-25.18-.13"/><path class="f" d="M39.48,54.2c-11.47,1.8-15.26,5.96-8.47,9.31,6.79,3.34,21.59,4.6,33.06,2.8,11.46-1.8,15.25-5.96,8.46-9.31-6.79-3.34-21.59-4.6-33.06-2.8Z"/><path class="c" d="M46.82,55.68c-.26,.02,1.91,.28,4.71,.27,2.8-.01,3.56,.69,3.56,.69,0,0-1.59,.48-6.01-.34,0,0-1.71-.39-2.4-.28,0,0,.25,.1,1.65,.32,1.35,.21,4.31,1.31,3.13,1.26-1.18-.05-2.85-.14-4.15-.94-1.31-.81-1.99-.78-1.99-.78,0,0,3.91,2.54,5.35,3.12,1.45,.59,1.41,.21,2.24,.04,.82-.17,5.74-2.49,6-2.69,.26-.2-6.01-1.12-12.08-.67Z"/><path class="c" d="M66.7,59.99c-.19,.03-2.37,.06-4.17,.03-1.8-.03-4.58-.29-5.03-.18-.44,.11-3.06,.09-3.52-.26-.47-.35,5.07-2.7,5.89-2.83,.82-.13,3.01-.24,6.57,2.66,0,0,0,.3-.88-.08,0,0-3.68-1.75-4.91-1.41-1.85,.52,2.98,1.17,5.08,1.73,0,0-8.58-1.54-8.46-.71,.12,.84,9.21,.85,9.21,.85l.23,.2Z"/><path class="c" d="M66.76,60.55s-9.7-.15-10.63-.16c-.93,0-2.97-.27-2.56,.21,.4,.48,4.99,2.91,5.86,2.93,.87,.02,6.94-1.94,7.16-2.4,.22-.46-3.68,1.74-6.07,1.18,0,0-1.31-.73,5.4-1.39,0,0-9.78,.95-8.73,.24,0,0,3.03-.59,9.18-.43,0,0,.44-.03,.39-.18Z"/><path class="c" d="M44.09,57.08s-1.62-.8-.63-.64c.99,.16,1.75,.7,2.76,1.24,1.02,.54,.61,.22,1.68,.79,.71,.38,1.68,.79,1.55,.88-.13,.1,.71,.47-.83,.33-1.55-.15-4.03-.15-4.72-.12-.69,.03-6.59-.06-8.14-.12-1.55-.07,4.4-2.83,5.46-2.96,1.07-.13-.11,.6-.55,.71-.45,.11-2.84,1.3-.89,1.69,1.96,.39,2.19-.85,2.27-1.17,.09-.32,.03-1.17,.53-1.13,.49,.04,.45,.63,.26,.66-.19,.03,1.04,1.82,2.5,1.36,1.47-.46-1.25-1.51-1.25-1.51Z"/><path class="c" d="M51.71,60.71s.26-.16,1.93,.75c1.67,.9,4.43,2.26,3.91,2.42-.51,.16-7.11,.22-9.4,.08-2.29-.15,7.25-.36,4.73-.74-2.52-.38-5.8,.17-6.2,.51,0,0-1.5,.04-1.17-.17,.33-.21,8.35-.96,6.3-1.76,0,0-1.6-.33-6.44,1.5,0,0,2.63-2.1,6.34-2.57Z"/><path class="c" d="M43.49,63.12s6.85-2.47,5.15-2.94c-1.7-.47-12.12-.24-12.12-.24,0,0,3.28,2.26,5.33,2.75,0,0-2.62-1.44-1.23-1.75,1.38-.3,1.18,1.51,1.96,1.82,0,0,.27-.28,.26-.89-.01-.62,1.98-1.4,3.14-1.11,0,0,1.75,.66-2.78,2.11-.48,.16,.29,.27,.29,.27Z"/></g></g><g><polygon class="e" points="26.54 74.54 31.78 76.99 38.91 78.82 47.24 79.86 55.96 80.01 64.21 79.25 71.17 77.66 76.18 75.39 78.72 72.66 78.58 69.74 75.74 66.92 70.51 64.48 63.36 62.65 55.03 61.6 46.31 61.45 38.08 62.22 31.11 63.81 26.1 66.08 23.55 68.81 23.7 71.72 26.54 74.54"/><path class="d" d="M46.89,77.07s6.21,.61,11.13-.05l.45,2.74-2.18,.19-7.56-.11-1.8-.07-.04-2.7Z"/><polygon class="d" points="39.15 76.25 39.48 78.8 32.01 77.08 32.04 74.62 39.15 76.25"/><polygon class="d" points="68.31 78.29 67.72 75.58 71.86 74.47 74.11 73.56 74.71 76.16 71.58 77.57 68.31 78.29"/><g><polygon class="e" points="25.68 72.39 30.36 74.63 37.1 76.38 45.25 77.46 54.02 77.77 62.54 77.27 69.98 76.02 75.6 74.14 78.87 71.8 79.46 69.25 77.3 66.73 72.63 64.49 65.88 62.74 57.72 61.66 48.96 61.35 40.45 61.85 33.01 63.1 27.38 64.98 24.11 67.31 23.53 69.86 25.68 72.39"/><path class="b" d="M39.53,76.07c-4.27-.68-8.01-1.7-10.66-3.01-7.45-3.67-3.48-8.21,8.86-10.14,12.34-1.93,28.39-.53,35.84,3.14,7.45,3.67,3.48,8.21-8.86,10.14-7.96,1.25-17.44,1.11-25.18-.13"/><path class="f" d="M39.07,63.53c-11.47,1.8-15.26,5.96-8.47,9.31,6.79,3.34,21.59,4.6,33.06,2.8,11.46-1.8,15.25-5.96,8.46-9.31-6.79-3.34-21.59-4.6-33.06-2.8Z"/><path class="c" d="M46.41,65.01c-.26,.02,1.91,.28,4.71,.27,2.8-.01,3.56,.69,3.56,.69,0,0-1.59,.48-6.01-.34,0,0-1.71-.39-2.4-.28,0,0,.25,.1,1.65,.32,1.35,.21,4.31,1.31,3.13,1.26-1.18-.05-2.85-.14-4.15-.94-1.31-.81-1.99-.78-1.99-.78,0,0,3.91,2.54,5.35,3.12,1.45,.59,1.41,.21,2.24,.04,.82-.17,5.74-2.49,6-2.69,.26-.2-6.01-1.12-12.08-.67Z"/><path class="c" d="M66.29,69.32c-.19,.03-2.37,.06-4.17,.03-1.8-.03-4.58-.29-5.03-.18-.44,.11-3.06,.09-3.52-.26-.47-.35,5.07-2.7,5.89-2.83,.82-.13,3.01-.24,6.57,2.66,0,0,0,.3-.88-.08,0,0-3.68-1.75-4.91-1.41-1.85,.52,2.98,1.17,5.08,1.73,0,0-8.58-1.54-8.46-.71,.12,.84,9.21,.85,9.21,.85l.23,.2Z"/><path class="c" d="M66.35,69.88s-9.7-.15-10.63-.16c-.93,0-2.97-.27-2.56,.21,.4,.48,4.99,2.91,5.86,2.93,.87,.02,6.94-1.94,7.16-2.4,.22-.46-3.68,1.74-6.07,1.18,0,0-1.31-.73,5.4-1.39,0,0-9.78,.95-8.73,.24,0,0,3.03-.59,9.18-.43,0,0,.44-.03,.39-.18Z"/><path class="c" d="M43.69,66.41s-1.62-.8-.63-.64c.99,.16,1.75,.7,2.76,1.24,1.02,.54,.61,.22,1.68,.79,.71,.38,1.68,.79,1.55,.88-.13,.1,.71,.47-.83,.33-1.55-.15-4.03-.15-4.72-.12-.69,.03-6.59-.06-8.14-.12-1.55-.07,4.4-2.83,5.46-2.96,1.07-.13-.11,.6-.55,.71-.45,.11-2.84,1.3-.89,1.69,1.96,.39,2.19-.85,2.27-1.17,.09-.32,.03-1.17,.53-1.13,.49,.04,.45,.63,.26,.66-.19,.03,1.04,1.82,2.5,1.36,1.47-.46-1.25-1.51-1.25-1.51Z"/><path class="c" d="M51.3,70.04s.26-.16,1.93,.75c1.67,.9,4.43,2.26,3.91,2.42-.51,.16-7.11,.22-9.4,.08-2.29-.15,7.25-.36,4.73-.74-2.52-.38-5.8,.17-6.2,.51,0,0-1.5,.04-1.17-.17,.33-.21,8.35-.96,6.3-1.76,0,0-1.6-.33-6.44,1.5,0,0,2.63-2.1,6.34-2.57Z"/><path class="c" d="M43.08,72.45s6.85-2.47,5.15-2.94c-1.7-.47-12.12-.24-12.12-.24,0,0,3.28,2.26,5.33,2.75,0,0-2.62-1.44-1.23-1.75,1.38-.3,1.18,1.51,1.96,1.82,0,0,.27-.28,.26-.89-.01-.62,1.98-1.4,3.14-1.11,0,0,1.75,.66-2.78,2.11-.48,.16,.29,.27,.29,.27Z"/></g></g><g><polygon class="e" points="28.56 88.88 33.8 91.33 40.93 93.16 49.26 94.21 57.98 94.35 66.23 93.59 73.19 92 78.2 89.73 80.74 87 80.6 84.09 77.76 81.27 72.53 78.82 65.38 76.99 57.05 75.95 48.33 75.8 40.1 76.56 33.13 78.15 28.12 80.42 25.57 83.15 25.72 86.06 28.56 88.88"/><path class="d" d="M48.91,91.42s6.21,.61,11.13-.05l.45,2.74-2.18,.19-7.56-.11-1.8-.07-.04-2.7Z"/><polygon class="d" points="41.17 90.59 41.5 93.14 34.03 91.42 34.06 88.96 41.17 90.59"/><polygon class="d" points="70.33 92.64 69.74 89.92 73.88 88.81 76.13 87.91 76.73 90.5 73.6 91.91 70.33 92.64"/><g><polygon class="e" points="27.7 86.73 32.38 88.98 39.12 90.72 47.27 91.8 56.04 92.11 64.56 91.61 72 90.36 77.62 88.48 80.89 86.15 81.48 83.6 79.32 81.07 74.65 78.83 67.9 77.08 59.74 76 50.98 75.69 42.47 76.19 35.03 77.44 29.4 79.33 26.13 81.66 25.55 84.21 27.7 86.73"/><path class="b" d="M41.55,90.41c-4.27-.68-8.01-1.7-10.66-3.01-7.45-3.67-3.48-8.21,8.86-10.14,12.34-1.93,28.39-.53,35.84,3.14,7.45,3.67,3.48,8.21-8.86,10.14-7.96,1.25-17.44,1.11-25.18-.13"/><path class="f" d="M41.09,77.88c-11.47,1.8-15.26,5.96-8.47,9.31,6.79,3.34,21.59,4.6,33.06,2.8,11.46-1.8,15.25-5.96,8.46-9.31-6.79-3.34-21.59-4.6-33.06-2.8Z"/><path class="c" d="M48.43,79.36c-.26,.02,1.91,.28,4.71,.27,2.8-.01,3.56,.69,3.56,.69,0,0-1.59,.48-6.01-.34,0,0-1.71-.39-2.4-.28,0,0,.25,.1,1.65,.32,1.35,.21,4.31,1.31,3.13,1.26-1.18-.05-2.85-.14-4.15-.94-1.31-.81-1.99-.78-1.99-.78,0,0,3.91,2.54,5.35,3.12,1.45,.59,1.41,.21,2.24,.04,.82-.17,5.74-2.49,6-2.69,.26-.2-6.01-1.12-12.08-.67Z"/><path class="c" d="M68.31,83.66c-.19,.03-2.37,.06-4.17,.03-1.8-.03-4.58-.29-5.03-.18-.44,.11-3.06,.09-3.52-.26-.47-.35,5.07-2.7,5.89-2.83,.82-.13,3.01-.24,6.57,2.66,0,0,0,.3-.88-.08,0,0-3.68-1.75-4.91-1.41-1.85,.52,2.98,1.17,5.08,1.73,0,0-8.58-1.54-8.46-.71,.12,.84,9.21,.85,9.21,.85l.23,.2Z"/><path class="c" d="M68.37,84.22s-9.7-.15-10.63-.16c-.93,0-2.97-.27-2.56,.21,.4,.48,4.99,2.91,5.86,2.93,.87,.02,6.94-1.94,7.16-2.4,.22-.46-3.68,1.74-6.07,1.18,0,0-1.31-.73,5.4-1.39,0,0-9.78,.95-8.73,.24,0,0,3.03-.59,9.18-.43,0,0,.44-.03,.39-.18Z"/><path class="c" d="M45.71,80.76s-1.62-.8-.63-.64c.99,.16,1.75,.7,2.76,1.24,1.02,.54,.61,.22,1.68,.79,.71,.38,1.68,.79,1.55,.88-.13,.1,.71,.47-.83,.33-1.55-.15-4.03-.15-4.72-.12-.69,.03-6.59-.06-8.14-.12-1.55-.07,4.4-2.83,5.46-2.96,1.07-.13-.11,.6-.55,.71-.45,.11-2.84,1.3-.89,1.69,1.96,.39,2.19-.85,2.27-1.17,.09-.32,.03-1.17,.53-1.13,.49,.04,.45,.63,.26,.66-.19,.03,1.04,1.82,2.5,1.36,1.47-.46-1.25-1.51-1.25-1.51Z"/><path class="c" d="M53.32,84.38s.26-.16,1.93,.75c1.67,.9,4.43,2.26,3.91,2.42-.51,.16-7.11,.22-9.4,.08-2.29-.15,7.25-.36,4.73-.74-2.52-.38-5.8,.17-6.2,.51,0,0-1.5,.04-1.17-.17,.33-.21,8.35-.96,6.3-1.76,0,0-1.6-.33-6.44,1.5,0,0,2.63-2.1,6.34-2.57Z"/><path class="c" d="M45.1,86.8s6.85-2.47,5.15-2.94c-1.7-.47-12.12-.24-12.12-.24,0,0,3.28,2.26,5.33,2.75,0,0-2.62-1.44-1.23-1.75,1.38-.3,1.18,1.51,1.96,1.82,0,0,.27-.28,.26-.89-.01-.62,1.98-1.4,3.14-1.11,0,0,1.75,.66-2.78,2.11-.48,.16,.29,.27,.29,.27Z"/></g></g><g><polygon class="e" points="48.35 94.02 43 91.82 36.82 87.81 30.41 82.39 24.4 76.07 19.37 69.49 15.83 63.29 14.11 58.07 14.39 54.35 16.64 52.48 20.63 52.66 25.98 54.86 32.16 58.87 38.58 64.3 44.59 70.61 49.61 77.18 53.16 83.39 54.87 88.61 54.59 92.33 52.35 94.2 48.35 94.02"/><path class="d" d="M32.7,80.76s-4.65-4.16-7.51-8.22l-2.31,1.52,1.34,1.73,5.2,5.49,1.27,1.28,2.01-1.8Z"/><polygon class="d" points="38.56 85.9 36.46 87.38 42.78 91.71 44.57 90.02 38.56 85.9"/><polygon class="d" points="17.3 65.82 19.7 64.42 17.71 60.62 16.85 58.35 14.54 59.67 15.63 62.93 17.3 65.82"/><g><polygon class="e" points="50.52 93.19 45.7 91.27 39.84 87.49 33.53 82.23 27.37 75.98 21.96 69.38 17.85 63.06 15.42 57.65 14.93 53.66 16.41 51.5 19.72 51.38 24.54 53.3 30.39 57.08 36.71 62.35 42.87 68.59 48.27 75.19 52.39 81.51 54.81 86.93 55.31 90.91 53.83 93.07 50.52 93.19"/><path class="b" d="M38.43,85.5c3.4,2.68,6.68,4.74,9.43,5.81,7.75,3,8.4-3,1.46-13.39-6.94-10.39-18.84-21.25-26.59-24.25-7.74-3-8.4,3-1.46,13.39,4.47,6.7,11,13.58,17.15,18.44"/><path class="f" d="M47.96,77.34c6.44,9.65,5.95,15.26-1.11,12.53-7.06-2.73-18-12.77-24.45-22.43-6.44-9.65-5.94-15.26,1.12-12.53,7.06,2.73,18.01,12.78,24.45,22.43Z"/><path class="c" d="M41.9,72.94c.16,.2-1.5-1.21-3.39-3.28-1.89-2.07-2.91-2.15-2.91-2.15,0,0,.73,1.5,4.32,4.19,0,0,1.45,.99,1.83,1.58,0,0-.24-.12-1.36-1-1.07-.85-3.88-2.29-3.05-1.45,.83,.83,2.03,2.01,3.5,2.42,1.48,.42,1.92,.94,1.92,.94,0,0-4.51-1.16-5.92-1.82-1.42-.67-1.11-.9-1.54-1.62-.44-.72-2.05-5.91-2.09-6.24-.03-.33,4.89,3.66,8.68,8.43Z"/><path class="c" d="M25.27,61.23c.1,.16,1.56,1.78,2.8,3.09,1.24,1.31,3.32,3.17,3.54,3.57,.22,.4,2,2.31,2.58,2.41,.58,.11-1.45-5.56-1.91-6.25-.46-.69-1.86-2.37-6.41-3.03,0,0-.23,.2,.65,.59,0,0,3.78,1.52,4.37,2.66,.87,1.71-2.88-1.4-4.71-2.56,0,0,6.95,5.27,6.25,5.75-.69,.48-6.86-6.2-6.86-6.2l-.3-.04Z"/><path class="c" d="M24.82,61.57s6.68,7.03,7.32,7.71c.64,.68,2.21,2,1.58,2.03-.62,.04-5.52-1.71-6.12-2.33-.61-.63-3.27-6.42-3.08-6.9,.19-.48,1.21,3.89,3.24,5.27,0,0,1.42,.47-2.63-4.91,0,0,5.93,7.84,5.73,6.58,0,0-1.62-2.63-5.9-7.04,0,0-.28-.35-.13-.41Z"/><path class="c" d="M42.72,75.9s1.68,.65,.9,.03c-.78-.62-1.7-.82-2.78-1.2-1.09-.38-.57-.3-1.72-.7-.76-.27-1.72-.71-1.7-.54,.02,.16-.83-.2,.32,.83,1.16,1.04,2.84,2.87,3.28,3.39,.44,.52,4.5,4.81,5.6,5.91,1.1,1.1-.9-5.15-1.52-6.02-.63-.87-.37,.49-.15,.89,.22,.4,.97,2.97-.65,1.8-1.62-1.18-.86-2.18-.68-2.47,.18-.29,.84-.82,.48-1.15-.36-.34-.77,.1-.66,.26,.11,.16-2.04,.47-2.69-.92-.65-1.39,1.96-.11,1.96-.11Z"/><path class="c" d="M34.9,72.75s-.06-.3-1.86-.92c-1.8-.62-4.66-1.73-4.43-1.24,.23,.48,4.65,5.38,6.31,6.97,1.66,1.59-4.65-5.58-2.66-3.98,1.99,1.6,3.8,4.38,3.83,4.91,0,0,.99,1.13,.92,.75-.07-.38-4.95-6.8-2.97-5.83,0,0,1.33,.95,3.26,5.75,0,0-.23-3.36-2.4-6.4Z"/><path class="c" d="M38.68,80.43s-2.82-6.72-1.32-5.78c1.5,.93,8.38,8.75,8.38,8.75,0,0-3.88-.88-5.63-2.06,0,0,2.84,.95,2.12-.28-.71-1.22-1.91,.16-2.66-.21,0,0,.02-.39,.48-.8,.47-.41-.31-2.4-1.31-3.06,0,0-1.67-.85,.33,3.47,.21,.46-.39-.04-.39-.04Z"/></g></g><g><polygon class="e" points="86.31 85.61 90.41 89.69 96.5 93.84 103.98 97.64 112.14 100.74 120.15 102.82 127.24 103.68 132.72 103.24 136.04 101.54 136.9 98.75 135.18 95.13 131.08 91.06 124.99 86.91 117.5 83.1 109.35 80.01 101.34 77.93 94.25 77.07 88.77 77.51 85.44 79.21 84.59 82 86.31 85.61"/><path class="d" d="M104.6,94.9s5.64,2.68,10.49,3.73l-.51,2.72-2.11-.56-7.07-2.67-1.67-.68,.88-2.55Z"/><polygon class="d" points="97.59 91.5 97.04 94.01 90.6 89.86 91.46 87.55 97.59 91.5"/><polygon class="d" points="124.34 103.31 124.7 100.55 128.97 100.91 131.4 100.83 131.08 103.47 127.65 103.73 124.34 103.31"/><g><polygon class="e" points="86.23 83.3 89.87 87 95.62 90.93 102.93 94.71 111.07 97.97 119.25 100.39 126.67 101.73 132.6 101.87 136.47 100.78 137.89 98.58 136.71 95.48 133.08 91.78 127.32 87.85 120.01 84.07 111.88 80.81 103.7 78.39 96.27 77.04 90.34 76.91 86.48 77.99 85.06 80.19 86.23 83.3"/><path class="b" d="M98.01,91.45c-3.79-2.09-6.96-4.32-9.01-6.44-5.77-5.98-.49-8.91,11.77-6.54,12.27,2.36,26.89,9.13,32.65,15.11,5.76,5.97,.49,8.9-11.77,6.54-7.91-1.52-16.79-4.87-23.65-8.66"/><path class="f" d="M101.83,79.51c-11.4-2.2-16.38,.44-11.12,5.88,5.25,5.45,18.75,11.64,30.15,13.84,11.39,2.2,16.37-.44,11.12-5.89-5.25-5.45-18.76-11.65-30.15-13.84Z"/><path class="c" d="M108.24,83.39c-.25-.07,1.7,.91,4.34,1.85,2.64,.94,3.11,1.85,3.11,1.85,0,0-1.66-.09-5.54-2.36,0,0-1.48-.95-2.17-1.08,0,0,.2,.18,1.45,.86,1.2,.66,3.62,2.69,2.52,2.24-1.09-.44-2.64-1.09-3.59-2.29-.96-1.2-1.61-1.41-1.61-1.41,0,0,2.82,3.71,3.98,4.75,1.17,1.05,1.26,.67,2.09,.79,.83,.12,6.24-.4,6.56-.49,.31-.1-5.27-3.09-11.14-4.73Z"/><path class="c" d="M125.48,94.18c-.19-.03-2.25-.74-3.93-1.38-1.69-.64-4.21-1.83-4.67-1.88-.45-.05-2.91-.95-3.23-1.44-.32-.49,5.68-.82,6.5-.66,.82,.16,2.91,.8,5.28,4.73,0,0-.1,.29-.8-.37,0,0-2.87-2.9-4.14-2.99-1.92-.14,2.41,2.11,4.19,3.35,0,0-7.55-4.36-7.72-3.53-.17,.83,8.37,3.92,8.37,3.92l.15,.26Z"/><path class="c" d="M125.34,94.73s-9.07-3.43-9.94-3.75c-.87-.32-2.7-1.26-2.48-.67,.21,.59,3.71,4.43,4.52,4.74,.82,.32,7.19,.53,7.55,.17,.37-.36-4.06,.39-6.11-.94,0,0-.99-1.13,5.55,.52,0,0-9.52-2.42-8.29-2.73,0,0,3.05,.47,8.78,2.71,0,0,.43,.12,.43-.04Z"/><path class="c" d="M105.2,83.78s-1.25-1.3-.38-.82c.87,.48,1.41,1.25,2.18,2.1,.77,.85,.5,.41,1.31,1.31,.54,.6,1.32,1.31,1.15,1.36-.16,.05,.51,.69-.89,.02-1.41-.66-3.74-1.5-4.4-1.71-.66-.21-6.18-2.29-7.62-2.88-1.44-.59,5.09-1.17,6.14-.93,1.05,.24-.31,.53-.76,.48-.46-.05-3.12,.26-1.41,1.29,1.71,1.03,2.34-.06,2.54-.33,.19-.27,.43-1.09,.88-.89,.45,.2,.21,.74,.02,.71-.19-.04,.36,2.06,1.9,2.12,1.54,.06-.66-1.85-.66-1.85Z"/><path class="c" d="M111.13,89.77s.3-.06,1.57,1.36c1.27,1.42,3.4,3.63,2.86,3.6-.53-.02-6.76-2.2-8.87-3.12-2.1-.91,6.94,2.12,4.7,.91-2.24-1.22-5.52-1.81-6.01-1.63,0,0-1.42-.47-1.05-.56,.38-.08,8.18,1.93,6.53,.48,0,0-1.39-.85-6.56-.78,0,0,3.19-1.09,6.83-.27Z"/><path class="c" d="M102.58,89.26s7.29,0,5.84-1.03c-1.44-1.02-11.32-4.33-11.32-4.33,0,0,2.32,3.24,4.09,4.39,0,0-1.98-2.24-.57-2.06,1.4,.18,.59,1.82,1.22,2.37,0,0,.35-.17,.55-.75,.2-.59,2.34-.64,3.33,.02,0,0,1.43,1.21-3.33,1.04-.51-.02,.19,.35,.19,.35Z"/></g></g><g><polygon class="e" points="20.29 49.62 24.97 53.03 31.61 56.2 39.59 58.82 48.12 60.64 56.36 61.48 63.5 61.25 68.84 59.98 71.87 57.79 72.29 54.91 70.04 51.59 65.37 48.19 58.72 45.02 50.73 42.4 42.21 40.58 33.98 39.74 26.83 39.97 21.49 41.24 18.46 43.42 18.04 46.31 20.29 49.62"/><path class="d" d="M39.78,56.02s5.98,1.79,10.93,2.09l-.09,2.77-2.17-.23-7.4-1.56-1.75-.41,.48-2.65Z"/><polygon class="d" points="32.34 53.72 32.17 56.28 25.18 53.16 25.68 50.76 32.34 53.72"/><polygon class="d" points="60.57 61.33 60.51 58.55 64.78 58.25 67.17 57.8 67.25 60.46 63.91 61.24 60.57 61.33"/><g><polygon class="e" points="19.86 47.35 24.02 50.45 30.31 53.46 38.1 56.08 46.64 58.07 55.1 59.21 62.64 59.41 68.52 58.64 72.17 56.98 73.24 54.59 71.61 51.7 67.45 48.6 61.17 45.59 53.37 42.97 44.83 40.98 36.38 39.84 28.84 39.64 22.95 40.4 19.3 42.07 18.23 44.46 19.86 47.35"/><path class="b" d="M32.75,53.61c-4.06-1.49-7.53-3.21-9.89-5-6.61-5.03-1.84-8.73,10.64-8.25,12.48,.47,27.96,4.93,34.57,9.96,6.6,5.03,1.84,8.73-10.64,8.25-8.05-.3-17.33-2.26-24.69-4.96"/><path class="f" d="M34.71,41.23c-11.6-.44-16.12,2.92-10.09,7.51,6.02,4.58,20.31,8.65,31.91,9.09,11.59,.44,16.12-2.93,10.09-7.51-6.02-4.58-20.31-8.66-31.9-9.09Z"/><path class="c" d="M41.62,44.09c-.26-.03,1.82,.64,4.57,1.17,2.75,.53,3.36,1.36,3.36,1.36,0,0-1.66,.17-5.83-1.49,0,0-1.6-.71-2.3-.74,0,0,.23,.15,1.56,.63,1.29,.47,3.98,2.11,2.83,1.83-1.15-.27-2.77-.68-3.89-1.72-1.13-1.04-1.81-1.14-1.81-1.14,0,0,3.35,3.24,4.65,4.09,1.31,.86,1.35,.47,2.19,.47,.84,0,6.11-1.34,6.41-1.49,.3-.14-5.68-2.25-11.73-2.98Z"/><path class="c" d="M60.31,52.13c-.19,0-2.33-.39-4.1-.77-1.76-.37-4.44-1.17-4.9-1.15-.46,.02-3.02-.5-3.41-.93-.4-.44,5.49-1.67,6.32-1.64,.83,.03,3,.34,5.94,3.87,0,0-.05,.3-.85-.24,0,0-3.28-2.43-4.55-2.33-1.92,.15,2.7,1.72,4.65,2.67,0,0-8.12-3.16-8.17-2.32-.04,.84,8.87,2.6,8.87,2.6l.19,.24Z"/><path class="c" d="M60.26,52.69s-9.49-2.01-10.4-2.2c-.91-.19-2.86-.84-2.56-.29,.3,.55,4.34,3.81,5.19,4,.85,.19,7.18-.57,7.49-.98,.31-.41-3.95,1-6.18,0,0,0-1.15-.97,5.57-.33,0,0-9.78-.95-8.61-1.44,0,0,3.09,0,9.09,1.34,0,0,.44,.06,.42-.1Z"/><path class="c" d="M38.68,44.94s-1.43-1.09-.5-.75c.94,.34,1.58,1.02,2.47,1.74,.89,.73,.55,.33,1.5,1.09,.63,.51,1.5,1.09,1.35,1.16-.15,.07,.61,.6-.88,.16-1.49-.44-3.93-.92-4.61-1.02-.68-.1-6.46-1.32-7.97-1.68-1.51-.36,4.86-1.93,5.93-1.85,1.08,.08-.22,.57-.68,.59-.46,.02-3.04,.73-1.19,1.49,1.85,.76,2.31-.41,2.46-.71,.15-.3,.26-1.14,.73-1.01,.48,.13,.32,.7,.13,.7-.19,0,.67,1.99,2.2,1.81,1.53-.17-.93-1.72-.93-1.72Z"/><path class="c" d="M45.46,49.96s.29-.11,1.75,1.1c1.47,1.21,3.91,3.07,3.38,3.12-.53,.06-7.02-1.15-9.24-1.73-2.22-.58,7.18,1.04,4.78,.18-2.4-.86-5.73-.95-6.18-.69,0,0-1.48-.25-1.12-.39,.36-.14,8.38,.66,6.52-.52,0,0-1.51-.63-6.61,.23,0,0,2.98-1.56,6.71-1.3Z"/><path class="c" d="M36.93,50.75s7.2-1.11,5.62-1.9c-1.58-.79-11.84-2.56-11.84-2.56,0,0,2.78,2.85,4.71,3.72,0,0-2.3-1.92-.87-1.95,1.42-.03,.86,1.71,1.57,2.16,0,0,.32-.22,.43-.83,.11-.61,2.21-.99,3.29-.49,0,0,1.6,.98-3.13,1.53-.51,.06,.24,.32,.24,.32Z"/></g></g><g><polygon class="e" points="47.41 68.22 52.09 71.63 58.74 74.8 66.72 77.42 75.24 79.24 83.48 80.08 90.62 79.85 95.97 78.58 98.99 76.4 99.41 73.51 97.17 70.2 92.5 66.79 85.84 63.62 77.86 61 69.34 59.18 61.11 58.35 53.96 58.57 48.61 59.84 45.58 62.02 45.17 64.91 47.41 68.22"/><path class="d" d="M66.91,74.62s5.98,1.79,10.93,2.09l-.09,2.77-2.17-.23-7.4-1.56-1.75-.41,.48-2.65Z"/><polygon class="d" points="59.46 72.32 59.3 74.89 52.3 71.77 52.8 69.36 59.46 72.32"/><polygon class="d" points="87.7 79.93 87.64 77.15 91.91 76.85 94.3 76.4 94.38 79.06 91.04 79.84 87.7 79.93"/><g><polygon class="e" points="46.99 65.95 51.15 69.05 57.43 72.06 65.22 74.68 73.77 76.67 82.23 77.82 89.76 78.02 95.65 77.25 99.3 75.58 100.37 73.19 98.73 70.3 94.58 67.21 88.29 64.2 80.49 61.57 71.95 59.58 63.51 58.44 55.96 58.24 50.08 59.01 46.42 60.67 45.36 63.06 46.99 65.95"/><path class="b" d="M59.87,72.22c-4.06-1.49-7.53-3.21-9.89-5-6.61-5.03-1.84-8.73,10.64-8.25,12.48,.47,27.96,4.93,34.57,9.96,6.6,5.03,1.84,8.73-10.64,8.25-8.05-.3-17.33-2.26-24.69-4.96"/><path class="f" d="M61.83,59.83c-11.6-.44-16.12,2.92-10.09,7.51,6.02,4.58,20.31,8.65,31.91,9.09,11.59,.44,16.12-2.93,10.09-7.51-6.02-4.58-20.31-8.66-31.9-9.09Z"/><path class="c" d="M68.75,62.69c-.26-.03,1.82,.64,4.57,1.17,2.75,.53,3.36,1.36,3.36,1.36,0,0-1.66,.17-5.83-1.49,0,0-1.6-.71-2.3-.74,0,0,.23,.15,1.56,.63,1.29,.47,3.98,2.11,2.83,1.83-1.15-.27-2.77-.68-3.89-1.72-1.13-1.04-1.81-1.14-1.81-1.14,0,0,3.35,3.24,4.65,4.09,1.31,.86,1.35,.47,2.19,.47,.84,0,6.11-1.34,6.41-1.49,.3-.14-5.68-2.25-11.73-2.98Z"/><path class="c" d="M87.43,70.73c-.19,0-2.33-.39-4.1-.77-1.76-.37-4.44-1.17-4.9-1.15-.46,.02-3.02-.5-3.41-.93-.4-.44,5.49-1.67,6.32-1.64,.83,.03,3,.34,5.94,3.87,0,0-.05,.3-.85-.24,0,0-3.28-2.43-4.55-2.33-1.92,.15,2.7,1.72,4.65,2.67,0,0-8.12-3.16-8.17-2.32-.04,.84,8.87,2.6,8.87,2.6l.19,.24Z"/><path class="c" d="M87.38,71.29s-9.49-2.01-10.4-2.2c-.91-.19-2.86-.84-2.56-.29,.3,.55,4.34,3.81,5.19,4,.85,.19,7.18-.57,7.49-.98,.31-.41-3.95,1-6.18,0,0,0-1.15-.97,5.57-.33,0,0-9.78-.95-8.61-1.44,0,0,3.09,0,9.09,1.34,0,0,.44,.06,.42-.1Z"/><path class="c" d="M65.81,63.54s-1.43-1.09-.5-.75c.94,.34,1.58,1.02,2.47,1.74,.89,.73,.55,.33,1.5,1.09,.63,.51,1.5,1.09,1.35,1.16-.15,.07,.61,.6-.88,.16-1.49-.44-3.93-.92-4.61-1.02-.68-.1-6.46-1.32-7.97-1.68-1.51-.36,4.86-1.93,5.93-1.85,1.08,.08-.22,.57-.68,.59-.46,.02-3.04,.73-1.19,1.49,1.85,.76,2.31-.41,2.46-.71,.15-.3,.26-1.14,.73-1.01,.48,.13,.32,.7,.13,.7-.19,0,.67,1.99,2.2,1.81,1.53-.17-.93-1.72-.93-1.72Z"/><path class="c" d="M72.58,68.56s.29-.11,1.75,1.1c1.47,1.21,3.91,3.07,3.38,3.12-.53,.06-7.02-1.15-9.24-1.73-2.22-.58,7.18,1.04,4.78,.18-2.4-.86-5.73-.95-6.18-.69,0,0-1.48-.25-1.12-.39,.36-.14,8.38,.66,6.52-.52,0,0-1.51-.63-6.61,.23,0,0,2.98-1.56,6.71-1.3Z"/><path class="c" d="M64.06,69.35s7.2-1.11,5.62-1.9c-1.58-.79-11.84-2.56-11.84-2.56,0,0,2.78,2.85,4.71,3.72,0,0-2.3-1.92-.87-1.95,1.42-.03,.86,1.71,1.57,2.16,0,0,.32-.22,.43-.83,.11-.61,2.21-.99,3.29-.49,0,0,1.6,.98-3.13,1.53-.51,.06,.24,.32,.24,.32Z"/></g></g><g><polygon class="e" points="59.94 49.04 62.58 54.2 67.08 60.02 73.01 65.97 79.8 71.44 86.77 75.9 93.25 78.93 98.59 80.21 102.28 79.62 103.95 77.23 103.45 73.26 100.82 68.12 96.31 62.29 90.37 56.34 83.59 50.87 76.62 46.41 70.14 43.38 64.8 42.1 61.11 42.69 59.43 45.08 59.94 49.04"/><path class="d" d="M74.45,63.55s4.53,4.3,8.81,6.8l-1.33,2.43-1.84-1.19-5.9-4.73-1.38-1.16,1.63-2.15Z"/><polygon class="d" points="68.84 58.14 67.54 60.35 62.7 54.41 64.24 52.49 68.84 58.14"/><polygon class="d" points="90.6 77.67 91.8 75.17 95.75 76.83 98.08 77.5 96.96 79.92 93.62 79.1 90.6 77.67"/><g><polygon class="e" points="60.59 46.82 62.9 51.47 67.15 56.99 72.92 62.85 79.65 68.48 86.67 73.32 93.31 76.9 98.91 78.87 102.91 79.03 104.95 77.38 104.79 74.07 102.49 69.43 98.24 63.9 92.46 58.04 85.74 52.41 78.72 47.58 72.08 43.99 66.48 42.02 62.47 41.85 60.44 43.51 60.59 46.82"/><path class="b" d="M69.25,58.23c-2.95-3.16-5.27-6.26-6.57-8.92-3.63-7.47,2.3-8.62,13.22-2.56,10.93,6.06,22.72,17.02,26.35,24.5,3.62,7.47-2.29,8.62-13.22,2.56-7.04-3.9-14.44-9.84-19.79-15.57"/><path class="f" d="M76.6,48.06c-10.15-5.63-15.7-4.67-12.4,2.14,3.3,6.81,14.21,16.89,24.37,22.52,10.15,5.62,15.7,4.66,12.4-2.15-3.3-6.81-14.21-16.89-24.36-22.52Z"/><path class="c" d="M81.48,53.74c-.21-.14,1.33,1.39,3.55,3.11,2.22,1.71,2.38,2.73,2.38,2.73,0,0-1.55-.6-4.53-3.96,0,0-1.11-1.36-1.72-1.7,0,0,.14,.23,1.11,1.27,.93,1,2.6,3.68,1.7,2.92-.9-.76-2.17-1.86-2.7-3.29-.54-1.44-1.1-1.84-1.1-1.84,0,0,1.53,4.4,2.3,5.75,.78,1.36,.99,1.03,1.74,1.4,.75,.38,6.06,1.56,6.39,1.57,.33,0-4.05-4.57-9.12-7.95Z"/><path class="c" d="M94.52,69.35c-.17-.09-1.9-1.4-3.31-2.53-1.41-1.13-3.44-3.05-3.85-3.24-.42-.19-2.47-1.81-2.62-2.37-.16-.57,5.66,.99,6.38,1.39,.73,.4,2.52,1.66,3.55,6.14,0,0-.18,.24-.64-.6,0,0-1.83-3.65-3.01-4.13-1.78-.73,1.63,2.75,2.94,4.48,0,0-5.82-6.49-6.24-5.76-.42,.73,6.74,6.33,6.74,6.33l.06,.3Z"/><path class="c" d="M94.22,69.83s-7.56-6.08-8.29-6.66c-.73-.58-2.17-2.04-2.15-1.41,.02,.62,2.15,5.36,2.83,5.91,.68,.55,6.67,2.73,7.13,2.5,.46-.23-3.98-.89-5.52-2.79,0,0-.59-1.38,5.11,2.22,0,0-8.3-5.26-7.03-5.17,0,0,2.76,1.4,7.5,5.3,0,0,.37,.25,.42,.1Z"/><path class="c" d="M78.47,53.17s-.79-1.62-.11-.89c.68,.73,.95,1.63,1.42,2.67,.47,1.05,.35,.54,.84,1.65,.33,.74,.85,1.65,.68,1.65-.16,0,.27,.81-.86-.25-1.13-1.07-3.09-2.59-3.65-2.99-.56-.4-5.17-4.09-6.35-5.1-1.18-1.01,5.21,.47,6.12,1.02,.92,.56-.45,.41-.87,.22-.42-.19-3.04-.72-1.74,.79,1.31,1.52,2.25,.67,2.51,.47,.27-.2,.74-.9,1.11-.57,.37,.33-.03,.77-.2,.68-.17-.09-.3,2.07,1.14,2.61,1.44,.53-.06-1.96-.06-1.96Z"/><path class="c" d="M82.25,60.7s.3,.04,1.07,1.78c.76,1.74,2.1,4.5,1.6,4.31-.5-.19-5.74-4.19-7.46-5.72-1.72-1.52,5.94,4.17,4.19,2.32-1.76-1.85-4.68-3.43-5.2-3.41,0,0-1.21-.89-.82-.85,.39,.04,7.18,4.38,6.06,2.48,0,0-1.06-1.24-6-2.78,0,0,3.37-.04,6.58,1.87Z"/><path class="c" d="M74.28,57.56s6.93,2.26,5.87,.84c-1.05-1.42-9.41-7.63-9.41-7.63,0,0,1.2,3.8,2.52,5.44,0,0-1.18-2.75,.1-2.13,1.28,.61,0,1.92,.43,2.64,0,0,.38-.05,.75-.55,.37-.5,2.42,.11,3.16,1.05,0,0,.98,1.6-3.49-.05-.48-.17,.07,.39,.07,.39Z"/></g></g><g><polygon class="e" points="32.64 48.97 38.25 50.39 45.6 50.85 53.98 50.31 62.57 48.82 70.53 46.52 77.07 43.65 81.56 40.48 83.55 37.32 82.86 34.49 79.54 32.25 73.94 30.83 66.58 30.37 58.2 30.91 49.61 32.4 41.66 34.7 35.12 37.57 30.63 40.74 28.63 43.9 29.33 46.73 32.64 48.97"/><path class="d" d="M53.12,47.63s6.22-.57,10.93-2.14l.95,2.6-2.1,.6-7.45,1.31-1.78,.27-.54-2.64Z"/><polygon class="d" points="45.35 48.28 46.15 50.72 38.5 50.43 38.07 48.01 45.35 48.28"/><polygon class="d" points="74.38 44.81 73.29 42.25 77.15 40.39 79.19 39.08 80.26 41.51 77.45 43.48 74.38 44.81"/><g><polygon class="e" points="31.4 47.02 36.42 48.34 43.37 48.79 51.58 48.32 60.25 46.98 68.52 44.89 75.59 42.27 80.76 39.36 83.53 36.45 83.63 33.84 81.04 31.77 76.03 30.44 69.07 29.99 60.86 30.46 52.19 31.8 43.92 33.89 36.85 36.52 31.68 39.42 28.91 42.33 28.81 44.94 31.4 47.02"/><path class="b" d="M45.69,48.03c-4.33,.13-8.19-.17-11.04-.95-8.01-2.2-4.96-7.41,6.8-11.63,11.76-4.22,27.78-5.85,35.8-3.65,8,2.2,4.96,7.41-6.8,11.62-7.58,2.72-16.93,4.36-24.76,4.6"/><path class="f" d="M42.89,35.8c-10.92,3.92-13.87,8.72-6.57,10.73,7.3,2.01,22.07,.46,33-3.46,10.92-3.92,13.86-8.72,6.56-10.73-7.3-2.01-22.07-.46-32.99,3.46Z"/><path class="c" d="M50.38,35.88c-.25,.07,1.92-.08,4.68-.62,2.75-.54,3.62,0,3.62,0,0,0-1.48,.77-5.97,.79,0,0-1.75-.06-2.41,.18,0,0,.27,.05,1.69,0,1.37-.04,4.48,.47,3.31,.65-1.16,.17-2.82,.4-4.26-.14-1.44-.55-2.1-.39-2.1-.39,0,0,4.31,1.76,5.84,2.06,1.54,.31,1.43-.06,2.2-.38,.78-.32,5.17-3.52,5.39-3.77,.22-.24-6.11,.03-11.99,1.61Z"/><path class="c" d="M70.71,36.38c-.18,.06-2.31,.5-4.09,.82-1.78,.31-4.56,.57-4.97,.76-.41,.19-2.99,.66-3.51,.4-.53-.26,4.47-3.6,5.25-3.88,.78-.28,2.91-.8,6.95,1.38,0,0,.06,.3-.88,.09,0,0-3.95-1.03-5.09-.46-1.72,.85,3.15,.59,5.31,.75,0,0-8.72,.1-8.44,.89,.27,.8,9.2-.89,9.2-.89l.26,.15Z"/><path class="c" d="M70.87,36.91s-9.55,1.67-10.47,1.84c-.91,.17-2.96,.29-2.48,.69,.48,.4,5.45,1.92,6.31,1.78,.86-.14,6.45-3.21,6.58-3.71,.13-.5-3.29,2.4-5.74,2.3,0,0-1.42-.47,5.04-2.38,0,0-9.43,2.77-8.53,1.88,0,0,2.87-1.15,8.93-2.14,0,0,.43-.11,.35-.25Z"/><path class="c" d="M47.96,37.77s-1.74-.48-.74-.51c1-.03,1.85,.36,2.95,.7,1.1,.34,.64,.1,1.8,.46,.77,.24,1.8,.46,1.68,.58-.11,.12,.79,.33-.76,.48-1.55,.15-3.99,.61-4.66,.77-.67,.16-6.48,1.18-8.02,1.41-1.54,.22,3.79-3.6,4.81-3.93,1.03-.33,0,.61-.41,.8-.42,.19-2.55,1.81-.55,1.83,2,.02,1.99-1.24,2.01-1.58,.03-.34-.19-1.16,.3-1.21,.49-.06,.56,.53,.38,.6-.18,.06,1.36,1.59,2.71,.86,1.35-.73-1.51-1.25-1.51-1.25Z"/><path class="c" d="M56.12,39.9s.23-.2,2.04,.37c1.81,.57,4.77,1.39,4.3,1.64-.47,.25-6.94,1.55-9.22,1.84-2.28,.29,7.05-1.71,4.5-1.62-2.55,.1-5.67,1.26-6,1.66,0,0-1.47,.32-1.18,.06,.29-.26,8.03-2.51,5.86-2.92,0,0-1.63-.03-6.04,2.68,0,0,2.19-2.56,5.74-3.71Z"/><path class="c" d="M48.51,43.81s6.27-3.72,4.5-3.86c-1.76-.14-11.94,2.04-11.94,2.04,0,0,3.64,1.61,5.76,1.7,0,0-2.85-.92-1.54-1.48,1.3-.56,1.44,1.27,2.26,1.42,0,0,.21-.32,.09-.93-.13-.61,1.68-1.74,2.87-1.68,0,0,1.85,.32-2.34,2.59-.45,.24,.34,.21,.34,.21Z"/></g></g></svg>