<?xml version="1.0" encoding="utf-8"?>
<!-- Generator: Adobe Illustrator 26.2.1, SVG Export Plug-In . SVG Version: 6.00 Build 0)  -->
<svg version="1.1" id="Layer_1" xmlns="http://www.w3.org/2000/svg" xmlns:xlink="http://www.w3.org/1999/xlink" x="0px" y="0px"
	 viewBox="0 0 256 200" style="enable-background:new 0 0 256 200;" xml:space="preserve">
<style type="text/css">
	.st0{fill:url(#SVGID_1_);stroke:#328E57;}
	.st1{fill:#55C51E;}
	.st2{opacity:0.4;fill:#FFFFFF;enable-background:new    ;}
	.st3{fill:#8CCF38;stroke:#328E57;stroke-width:0.5;}
	.st4{fill:url(#SVGID_00000160910845279802515570000000820584033037137825_);}
	.st5{fill:#AFDB71;stroke:#1E7248;}
	.st6{opacity:0.2;fill:url(#SVGID_00000149372126028723746600000014664883617513569192_);}
	.st7{fill:#74C03C;stroke:#1E7248;}
	.st8{opacity:0.49;fill:#40962D;enable-background:new    ;}
	.st9{fill:#61931B;stroke:#1E7248;}
	.st10{fill:url(#SVGID_00000163032221243630201190000005984001030743058102_);stroke:#328E57;}
	.st11{fill:url(#SVGID_00000056401842719456911340000013847181469268128431_);stroke:#328E57;}
	.st12{fill:url(#SVGID_00000026859471214708638890000011807433885828219309_);stroke:#328E57;}
	.st13{fill:url(#SVGID_00000142170792102666818640000011526776395463659433_);}
	.st14{opacity:0.2;fill:url(#SVGID_00000054965447862541094550000011065981387992988345_);}
	.st15{opacity:0.2;fill:url(#SVGID_00000030488094996193205910000007575563014134165179_);}
	.st16{opacity:0.52;fill:#FFFFFF;enable-background:new    ;}
	.st17{fill:url(#SVGID_00000111894917742712717420000006714200865193734028_);}
	.st18{opacity:0.2;}
	.st19{opacity:0.2;fill:url(#SVGID_00000147906649124071760120000012047606009358818993_);}
	.st20{fill:url(#SVGID_00000160901871386681499880000008117315766646250650_);}
	.st21{opacity:0.2;fill:url(#SVGID_00000091006929478706833530000001971985032375210912_);}
	.st22{opacity:0.2;fill:url(#SVGID_00000000203558099420528220000001846566311425632681_);}
	.st23{fill:url(#SVGID_00000101812669277344876020000016892042410865858441_);}
	.st24{opacity:0.2;fill:url(#SVGID_00000091732479335433735890000004309599704323735443_);}
	.st25{opacity:0.2;fill:url(#SVGID_00000178202853001599729230000013624476524731487872_);}
	.st26{fill:url(#SVGID_00000040561775124867220860000007285279570671523253_);}
	.st27{opacity:0.2;fill:url(#SVGID_00000174584218478648454090000007541907129642687374_);}
	.st28{opacity:0.2;fill:url(#SVGID_00000152957071024657138010000012372262983143284641_);}
	.st29{fill:url(#SVGID_00000057852290952351745320000009369143988246370709_);}
	.st30{opacity:0.2;fill:url(#SVGID_00000035501367687906234790000013394379686209527977_);}
	.st31{fill:url(#SVGID_00000129197105781525444870000013314554756882389905_);}
	.st32{fill:url(#SVGID_00000046308992731454426360000009093467129484102075_);stroke:#328E57;}
	.st33{fill:url(#SVGID_00000003105603954784067180000005562070825446251920_);}
	.st34{fill:url(#SVGID_00000163767829334186000170000018245567897513398945_);}
	.st35{fill:url(#SVGID_00000132072779568535280280000006393543666315037093_);}
	.st36{fill:url(#SVGID_00000088850959312768070720000014061918684499451776_);}
	.st37{fill:url(#SVGID_00000030478170557033125760000010576161998049329054_);}
	.st38{opacity:0.2;fill:url(#SVGID_00000026163645783506049640000010091959659367981235_);}
	.st39{fill:url(#SVGID_00000039098774366610721050000007477703841037955985_);}
	.st40{fill:url(#SVGID_00000116229936207642313050000016009886831973172097_);}
	.st41{fill:url(#SVGID_00000019659495818735668610000007127364734532937370_);}
	.st42{fill:url(#SVGID_00000127031476863825327880000010267700651305672353_);}
	.st43{opacity:0.2;fill:url(#SVGID_00000135664754747630420280000006033965351282319036_);}
	.st44{fill:url(#SVGID_00000048502109058190703890000016725915833863611825_);stroke:#328E57;}
	.st45{fill:url(#SVGID_00000000926014741855373340000012067004096169833372_);stroke:#328E57;}
	.st46{fill:#89CA3C;stroke:#1E7248;}
	.st47{fill:url(#SVGID_00000010996505357984878850000008075777223523052422_);stroke:#328E57;}
	.st48{fill:url(#SVGID_00000076574859665288480790000003095509481709973889_);stroke:#328E57;}
	.st49{fill:url(#SVGID_00000002346459463879593390000001964912342238616461_);stroke:#328E57;}
	.st50{fill:url(#SVGID_00000038405340081633384950000001489298705976648848_);stroke:#328E57;}
	.st51{fill:url(#SVGID_00000126297264740202556180000015145409781229413819_);stroke:#328E57;}
	.st52{fill:url(#SVGID_00000111886156077092804070000008806529418894349448_);stroke:#328E57;}
	.st53{fill:url(#SVGID_00000101794954787019380920000010181652495033114527_);}
	.st54{opacity:0.2;fill:url(#SVGID_00000080199130409625088140000013477184851911637404_);}
	.st55{fill:url(#SVGID_00000151516495218409553220000009212337544817937808_);}
	.st56{opacity:0.2;fill:url(#SVGID_00000008839339066740250040000015498616012835090840_);}
	.st57{fill:url(#SVGID_00000017497094770477693160000009740566015700322735_);}
	.st58{opacity:9.000000e-02;fill:url(#SVGID_00000135660906806548175750000013805309264465095606_);enable-background:new    ;}
	.st59{fill:url(#SVGID_00000028313221776429771640000010800316944045933202_);}
	.st60{opacity:9.000000e-02;fill:url(#SVGID_00000114784173027864065020000007429861455576516480_);enable-background:new    ;}
	.st61{fill:url(#SVGID_00000156559578203514189750000013600532317007656842_);}
	.st62{opacity:9.000000e-02;fill:url(#SVGID_00000068674532934739824700000010851235951175857567_);enable-background:new    ;}
	.st63{fill:url(#SVGID_00000142141916017794642830000002544582431862957230_);}
	.st64{opacity:0.2;fill:url(#SVGID_00000135679901490084612150000017772394793573367218_);}
	.st65{opacity:0.2;fill:url(#SVGID_00000000219992679169658380000018290372453023969179_);}
	.st66{fill:url(#SVGID_00000072967387466655914180000010303649161872934296_);}
	.st67{opacity:0.2;fill:url(#SVGID_00000017483247544765190330000017050080007235223949_);}
	.st68{opacity:0.2;fill:url(#SVGID_00000137831785012803756600000013960748764674459800_);}
	.st69{fill:url(#SVGID_00000171707681273114731400000017653801247263254174_);}
	.st70{opacity:0.2;fill:url(#SVGID_00000121253782267412769710000009043525551184138643_);}
	.st71{opacity:0.2;fill:url(#SVGID_00000112613195943663111980000011913138159478145719_);}
</style>
<g>
	<g id="a">
		<g>
			<g>
				
					<linearGradient id="SVGID_1_" gradientUnits="userSpaceOnUse" x1="3742.9614" y1="847.2947" x2="3789.1211" y2="847.2947" gradientTransform="matrix(-0.598 -0.8015 0.7664 -0.5949 1755.074 3586.8223)">
					<stop  offset="0" style="stop-color:#FDFFC7"/>
					<stop  offset="0.13" style="stop-color:#E7F9A4"/>
					<stop  offset="0.33" style="stop-color:#CDF279"/>
					<stop  offset="0.52" style="stop-color:#B8ED57"/>
					<stop  offset="0.69" style="stop-color:#AAE93F"/>
					<stop  offset="0.86" style="stop-color:#A1E631"/>
					<stop  offset="0.99" style="stop-color:#9EE62C"/>
				</linearGradient>
				<path class="st0" d="M155.4,87.6c-2.4-3.1-5.4-11.7-6.5-14.6s0.1-4.2,0.3-6.4c0.1-2.2,1.2-3.3,2.2-3.5c1.1-0.2,1.7-1.3,1.6-3.9
					c-0.1-2.6,1.4-3.4,4.3-3.1s1.2,1.9,1.7,3.3c0.6,1.3,1.3-0.7,2.9-0.4s0.9,2.9,1.1,4c0.3,1.1,1.2-0.5,3.1,1.3
					c1.9,1.8-0.4,4.7-0.4,5.9c0,1.2,1-0.7,1.8,0.2c0.9,1-0.3,3.4,0.9,4.2c1.2,0.8,0.9,1.7,0.1,2.7s0.2,3.1,1.1,4.3s0.5,3.2,1.6,5.1
					c1.2,1.9,1-2.7,1.7-3.7c0.8-1,1.2,4.1,0.9,5.6c-0.3,1.4,3.1,6.2,3.1,6.9c0.1,0.7-0.9,1.8-0.9,1.8
					C171.6,97.2,164.6,94,155.4,87.6"/>
				<path class="st1" d="M175.1,96.8c-1.5-1.4-2.6-5.8-3.1-6.9s-3.6-2.6-3.3-4.3s-0.4-4.7-2.1-5.7c-1.6-1-0.3-2.4-0.2-3.8
					c0.1-1.4-0.3-3.4-1.2-3.1c-0.9,0.4-3-0.4-2.4-1.8c0.6-1.5,3.2-4.1,0.6-4.6s-3.2-1.7-4.6-3.1s-3.7-0.1-4.1,1.5s-2.6,2.9-2.9,4.3
					c-0.3,1.4-2.1,2.9-1.3,4.5s4.9,13.8,8.5,16.3"/>
				<path class="st2" d="M168.4,93.3c0.3-0.9-0.3-2.1-0.4-3c-0.1-1.8,0.1-3.3,0.4-5.1c0-0.1-0.1-0.1-0.1,0c-0.6,1.4-1,2.7-0.9,4.2
					c0,0.8,0.1,1.6,0.3,2.4c0,0.2,0.1,0.4,0.1,0.5c-1.2-1.8-2.3-3.6-3.3-5.5c-0.2-0.4-0.4-0.8-0.6-1.2c-0.1-1.6-0.5-3.1-0.3-4.7
					c0.2-1.5,0.5-3,1-4.5c0-0.1-0.1-0.1-0.1,0c-0.7,1.7-1.3,3.4-1.4,5.3c0,0.5-0.1,1,0,1.6c-1.2-4-1.2-8-0.8-12.3
					c0-0.1-0.1-0.1-0.1,0c-0.8,4.2-1.1,8.7,0.3,12.8c-0.5-0.6-1.2-1.2-1.6-1.8c-1.2-1.5-1.9-3.1-2.4-4.9c0,0-0.1,0-0.1,0
					c0.3,1.6,0.8,3.2,1.8,4.6c0.9,1.2,1.8,2.8,3.1,3.8c1,2.2,2.3,4.4,3.6,6.5c-0.2-0.2-0.4-0.3-0.6-0.4c-1.1-0.6-2.1-1.3-3.3-1.8
					c-0.1,0-0.1,0.1-0.1,0.2c0.7,0.7,1.6,1.2,2.5,1.7s1.6,1.3,2.4,1.8"/>
				<path class="st3" d="M155.4,87.6c-2.4-3.1-5.4-11.7-6.5-14.6s0.1-4.2,0.3-6.4c0-0.1,0-0.3,0-0.4c0.3,0.1,0.7,0.3,1.1,0.4
					c3.3,1.3,0.7,4.9,0.8,6.8s1.7,3.2,2.9,5.2c1.2,2,1.2,4,2.6,5.6c1.4,1.6,2.1-0.1,3.2,1.6c1.1,1.7,0.6,3.6,1.6,2.9
					s1.6,2.9,2.6,4.6s2.7-1.9,4.1-0.4c1.4,1.4,0,5.6,0.1,6.3C163.5,97.5,159.2,93.9,155.4,87.6L155.4,87.6z"/>
				<path class="st2" d="M159.6,89.9c-0.3,0.2-0.8,0.5-1.2,1.6c0,0.8,0.4,0.4,0.5,0.1s0.3-0.8,0.7-1.3S159.9,89.7,159.6,89.9
					L159.6,89.9z"/>
				<path class="st2" d="M159,87.2c-0.5,0.3-1.1,1-1.6,2.9c0,1.3,0.6,0.7,0.8,0.2s0.3-1.4,0.9-2.3S159.5,86.9,159,87.2z"/>
				<path class="st2" d="M157,86.6c-0.2,0.2-0.5,0.5-0.5,1.3c0.1,0.5,0.4,0.2,0.4-0.1s0-0.6,0.3-1S157.2,86.4,157,86.6z"/>
				<path class="st2" d="M157.9,86.9c-0.3,0.2-0.7,0.7-0.9,1.9c0.1,0.8,0.4,0.4,0.5,0s0.1-0.8,0.5-1.4S158.2,86.7,157.9,86.9z"/>
			</g>
			<g>
				
					<linearGradient id="SVGID_00000010286408112633081760000005282220801804523686_" gradientUnits="userSpaceOnUse" x1="315.0013" y1="-526.1036" x2="355.683" y2="-526.1036" gradientTransform="matrix(0.8988 -0.4384 -0.4384 -0.8988 -369.1497 -227.8709)">
					<stop  offset="0" style="stop-color:#FDFFC7"/>
					<stop  offset="0.99" style="stop-color:#9EE62C"/>
				</linearGradient>
				<path style="fill:url(#SVGID_00000010286408112633081760000005282220801804523686_);" d="M177.6,82.5
					c-0.3-0.3-34.4,14.4-29.6,31.3c0,0,3.2-14.4,31.2-25.2C178.7,88.9,180.8,86.2,177.6,82.5L177.6,82.5z"/>
				
					<ellipse transform="matrix(0.9756 -0.2197 0.2197 0.9756 -14.4147 41.2697)" class="st5" cx="178.4" cy="85.5" rx="1.8" ry="3.2"/>
				
					<linearGradient id="SVGID_00000083769682090421078690000009431537622797696904_" gradientUnits="userSpaceOnUse" x1="224.0747" y1="-280.6976" x2="227.4364" y2="-280.6976" gradientTransform="matrix(0.9735 -0.2287 -0.2287 -0.9735 -105.4837 -135.054)">
					<stop  offset="0" style="stop-color:#000000"/>
					<stop  offset="0.99" style="stop-color:#000000"/>
				</linearGradient>
				<path style="opacity:0.2;fill:url(#SVGID_00000083769682090421078690000009431537622797696904_);" d="M176.6,84.9
					c-0.3,0.1,0.5,4.3,2.5,3.6c1.7-0.6,0.7-4,0.7-4C179.7,85.1,178.7,88.4,176.6,84.9L176.6,84.9z"/>
			</g>
			<g>
				<path class="st7" d="M121.9,46.1c2.1-0.5,5.9-1.3,5.9-5.9c0-1.7-0.8-3.5-0.2-4.7c0.3-0.7,0.7,0.2,0.7-1.2c0-0.8-0.6-2.1-0.7-3
					c-0.4-2-0.3-4.4,1.3-2.8c-0.1-2.2,1-5.2,1.7-3.1c0.4-0.9,0.5-2.1,1.3-2.4c0.9-0.3,1.2,0.9,2,1.3c1.4,0.7,2.4-1,3,2.7
					c1.3-0.5,3.4,1.4,3.6,4.4c2.7,1.1,1.4,6,0.8,7.6c-1.4,3.8-4.2,4.7-6.8,5.6c-2.5,0.9-5,1.6-7.7,1.8c-1,0.1-2.3,1.7-3.3,1.6
					L121.9,46.1L121.9,46.1z"/>
				<path class="st8" d="M137.5,40.2c1.1-1.5,1.9-3,1.9-5.2c-0.1-1.7-1.5-0.9-2.2-1.4c-0.1-0.3,0.5-1.2,0.3-1.9
					c-0.4-0.7-1.3,0.4-1.8,0c0.1-0.3-0.3-0.7,0-1c0.4-0.6,1.8-1.3,1.2-2.1c-0.7-1-1.7-1.2-1.6-2.8c-0.6,0.9-1.2,2.1-1.7,2.6
					c-0.2,0.2-0.4,0.5-0.6,0.7c-0.6-0.4-1.4-1.3-2.2-2c0.5,1.4-0.4,2-0.7,3.1c-0.4,0.9,1.1,1.2,1.7,1.6c0.3,0.2,0.1,0.7,0.2,1
					c-0.3,0.5-1.5-0.3-1.7,0.5c-0.1,0.8,0.8,1.4,0.8,1.8c-0.5,0.6-1.9,0.3-1.6,1.9c0.6,2.2,1.7,3.4,3.1,4.5c-0.3,0.2-0.7,0-0.8,0.4
					c0.2,1.4,1.2,1.7,2,2l0.6-0.7c0.1-1,0.6-1.6,1-2.1c0.4,0.3,0.7,0.7,0.9,1.2l0.8,0.5c0.8-0.5,1.7-1.1,1.5-2.5
					C138.3,40,137.9,40.3,137.5,40.2L137.5,40.2z"/>
			</g>
			<path class="st9" d="M74.1,93.1c1.3-2,0.1-3.4,0.8-5.3c1.1-2.9,2.4-0.1,3.7-0.3c0.8-0.2,0.5-0.9,1.4-0.8c0.9,0.1,0.4,1.4,1.5,0.1
				c1.1-1.4,1.2-4,3.5-3.8c1.1,0.1,1.1,1.7,1.8,2.3c1,1,1.6-1.1,2.8-0.3c0.9,0.6,0.1,2.1,0.9,2.5c0.9,0.4,2.6-1.2,3.6-1.2
				c1.8-0.1,1.4,2,1.6,3.5c0.3,2.5,2.3,0.9,3.7,2.2c1.6,1.5,1.2,6.4-0.9,7.6c-1.9,1-4.2,0.6-6.1,0.5c-6-0.3-10.9-2.1-16-5L74.1,93.1
				L74.1,93.1z"/>
			<g>
				
					<linearGradient id="SVGID_00000062170403609719336600000008090296455601295532_" gradientUnits="userSpaceOnUse" x1="3424.9238" y1="761.7385" x2="3457.5439" y2="761.7385" gradientTransform="matrix(-0.7423 -0.67 0.6362 -0.7325 2129.3394 2934.7908)">
					<stop  offset="0" style="stop-color:#FDFFC7"/>
					<stop  offset="0.13" style="stop-color:#E7F9A4"/>
					<stop  offset="0.33" style="stop-color:#CDF279"/>
					<stop  offset="0.52" style="stop-color:#B8ED57"/>
					<stop  offset="0.69" style="stop-color:#AAE93F"/>
					<stop  offset="0.86" style="stop-color:#A1E631"/>
					<stop  offset="0.99" style="stop-color:#9EE62C"/>
				</linearGradient>
				<path style="fill:url(#SVGID_00000062170403609719336600000008090296455601295532_);stroke:#328E57;" d="M68.1,89.7
					c-2.1-1.8-5.4-7.4-6.5-9.2s-0.5-3-0.7-4.5s0.4-2.4,1.1-2.7s1-1.2,0.6-2.9c-0.4-1.8,0.5-2.6,2.6-2.8s1.1,1.2,1.7,2
					c0.6,0.9,0.8-0.7,1.9-0.7s1,1.9,1.3,2.7c0.3,0.8,0.8-0.5,2.3,0.5s0.4,3.3,0.6,4.2c0.2,0.8,0.6-0.6,1.3-0.1s0.2,2.4,1.2,2.8
					c1,0.4,0.9,1,0.4,1.9c-0.4,0.9,0.6,2.1,1.4,2.8s0.8,2.2,1.8,3.3c1.1,1.2,0.3-2,0.7-2.8c0.4-0.8,1.4,2.7,1.4,3.7
					c0,1,3,3.9,3.1,4.4c0.1,0.5-0.3,1.4-0.3,1.4C80.7,94.2,75.4,92.8,68.1,89.7"/>
				<path class="st1" d="M83.1,93.4c-1.2-0.8-2.6-3.7-3.1-4.4s-2.9-1.3-2.9-2.5c0-1.3-0.9-3.2-2.2-3.7c-1.3-0.4-0.6-1.6-0.7-2.6
					c-0.1-1-0.7-2.3-1.3-1.9c-0.6,0.4-2.1,0.2-1.9-0.9c0.2-1.1,1.7-3.3-0.2-3.3c-1.9,0-2.5-0.7-3.7-1.5s-2.6,0.4-2.6,1.6
					c0,1.1-1.4,2.4-1.5,3.4c0,1-1,2.3-0.3,3.3c0.8,1,5.3,8.9,8.1,10.1"/>
				<path class="st2" d="M78,91.8c0.1-0.7-0.5-1.4-0.7-2c-0.3-1.2-0.4-2.3-0.4-3.6c0,0-0.1,0-0.1,0c-0.2,1.1-0.3,2-0.1,3.1
					c0.1,0.6,0.3,1.1,0.5,1.6c0.1,0.1,0.1,0.2,0.1,0.4c-1.1-1.1-2.1-2.2-3-3.4c-0.2-0.2-0.4-0.5-0.6-0.7c-0.3-1.1-0.8-2-0.8-3.2
					c-0.1-1.1,0-2.2,0.1-3.2c0,0-0.1-0.1-0.1,0c-0.3,1.3-0.4,2.6-0.3,3.9c0.1,0.3,0.1,0.7,0.2,1.1c-1.4-2.6-2-5.4-2.2-8.4
					c0,0-0.1,0-0.1,0c0,3,0.4,6.2,1.9,8.8c-0.5-0.3-1-0.7-1.4-1c-1-0.9-1.8-1.9-2.4-3.1c0,0-0.1,0,0,0c0.4,1.1,1,2.1,1.8,2.9
					c0.8,0.7,1.7,1.7,2.6,2.2c1,1.4,2.2,2.8,3.4,4c-0.2-0.1-0.3-0.2-0.5-0.2c-0.8-0.3-1.7-0.6-2.5-0.8c-0.1,0-0.1,0.1,0,0.1
					c0.6,0.4,1.3,0.6,2,0.8c0.7,0.2,1.2,0.7,1.9,0.9"/>
				<path class="st2" d="M82.6,92.2C82.6,92.2,82.5,92.1,82.6,92.2c-0.4,0.8-0.4,1.6-0.3,2.4"/>
				<path class="st3" d="M68.1,89.7c-2.1-1.8-5.4-7.4-6.5-9.2s-0.5-3-0.7-4.5c0-0.1,0-0.2,0-0.3c0.2,0.1,0.5,0.1,0.8,0.2
					c2.5,0.5,1.2,3.3,1.5,4.6c0.3,1.3,1.6,2,2.7,3.2c1.1,1.2,1.4,2.6,2.6,3.5s1.4-0.3,2.4,0.7c1,1,0.9,2.4,1.5,1.8
					c0.6-0.6,1.5,1.8,2.4,2.8c0.9,1,1.6-1.7,2.8-0.9c1.2,0.8,0.8,3.9,0.9,4.4C75.1,95.5,71.7,93.6,68.1,89.7L68.1,89.7z"/>
				<path class="st2" d="M71.4,90.7c-0.2,0.2-0.5,0.5-0.6,1.3c0.1,0.5,0.3,0.2,0.4,0s0.1-0.6,0.3-1S71.6,90.5,71.4,90.7z"/>
				<path class="st2" d="M70.6,88.9c-0.3,0.3-0.6,0.8-0.7,2.2c0.2,0.9,0.5,0.4,0.6,0s0-1,0.3-1.7S70.9,88.6,70.6,88.9L70.6,88.9z"/>
				<path class="st2" d="M69.1,88.8c-0.1,0.2-0.2,0.4-0.2,1c0.2,0.3,0.3,0.1,0.3-0.1s-0.1-0.4,0.1-0.7S69.2,88.6,69.1,88.8z"/>
				<path class="st2" d="M69.8,88.9c-0.2,0.2-0.4,0.6-0.3,1.4c0.2,0.5,0.3,0.2,0.4-0.1s0-0.6,0.1-1.1S70,88.7,69.8,88.9z"/>
			</g>
			<g>
				<path class="st7" d="M90.1,37.1c0.1-2.2,0.4-6-4-7.4c-1.7-0.5-3.5-0.2-4.6-1.1c-0.6-0.5,0.4-0.6-1-1c-0.8-0.2-2.2-0.1-3.1-0.1
					c-2-0.2-4.2-1-2.3-2c-2.2-0.5-4.7-2.4-2.5-2.5c-0.8-0.6-1.9-1.1-1.9-1.9c0-0.9,1.2-0.9,1.8-1.6c1.1-1.1-0.2-2.6,3.5-2.1
					c-0.1-1.4,2.3-2.9,5.2-2.2c1.8-2.3,6.1,0.4,7.5,1.4c3.2,2.4,3.3,5.4,3.5,8.1c0.2,2.7,0.1,5.3-0.5,7.9c-0.2,1,0.9,2.7,0.6,3.6
					L90.1,37.1L90.1,37.1z"/>
				<path class="st8" d="M78,19.1c1.1-0.2,1,1.6,1.2,2.3c0.1,0.4,0.7,0.3,0.9,0.5c0.7-0.3,0.1-1.8,1-1.9c0.8,0.1,1.2,1.2,1.6,1.3
					c0.8-0.5,0.9-2.3,2.5-1.5c2.2,1.2,3.1,2.7,3.8,4.6c0.3-0.3,0.2-0.9,0.7-0.8c1.4,0.6,1.5,1.8,1.5,2.8L90.5,27
					c-1.9-0.1-2.6,1.1-4.3,1.2c-1.6,0.1-4.3-0.9-6.2-1.5c-2.6-0.8-3.6-2.2-4.1-4.3c-0.2-0.8-1-2-1.5-3.1
					C75.9,20.2,76.7,19.3,78,19.1L78,19.1z"/>
			</g>
			<g>
				<path class="st7" d="M75,47.6c0.1-2.2,0.4-6-4-7.4c-1.7-0.5-3.5-0.2-4.6-1.1c-0.6-0.5,0.4-0.6-1-1c-0.8-0.2-2.2-0.1-3.1-0.1
					c-2-0.2-4.2-1-2.3-2c-2.2-0.5-4.7-2.4-2.5-2.5c-0.8-0.7-1.9-1.1-1.9-1.9c0-0.9,1.2-0.9,1.8-1.6c1-1.1-0.2-2.6,3.5-2.1
					c-0.1-1.4,2.3-2.9,5.2-2.2c1.8-2.3,6.1,0.4,7.5,1.4c3.2,2.4,3.3,5.4,3.5,8.1c0.2,2.7,0.1,5.3-0.5,7.9c-0.2,1,0.9,2.7,0.6,3.6
					L75,47.6L75,47.6z"/>
				<path class="st8" d="M62.9,29.6c1.1-0.2,1,1.6,1.2,2.3c0.1,0.4,0.7,0.3,0.9,0.5c0.7-0.3,0.1-1.8,1-1.9c0.8,0.1,1.2,1.2,1.6,1.3
					c0.8-0.5,0.9-2.3,2.5-1.5c2.2,1.2,3.1,2.7,3.8,4.6c0.3-0.3,0.2-0.9,0.7-0.8c1.4,0.6,1.5,1.8,1.5,2.8l-0.9,0.6
					c-1.9-0.1-2.6,1.1-4.3,1.2c-1.6,0.1-4.3-0.9-6.2-1.5c-2.5-0.8-3.6-2.2-4.1-4.3c-0.2-0.8-1-2-1.5-3.1
					C60.8,30.7,61.6,29.8,62.9,29.6L62.9,29.6z"/>
			</g>
			<g>
				
					<linearGradient id="SVGID_00000160158940563808611490000010402747669812073135_" gradientUnits="userSpaceOnUse" x1="4332.6108" y1="-2065.6543" x2="4370.3311" y2="-2065.6543" gradientTransform="matrix(-0.2723 -0.9622 -0.9384 0.2463 -677.9824 4735.6211)">
					<stop  offset="0" style="stop-color:#FDFFC7"/>
					<stop  offset="0.13" style="stop-color:#E7F9A4"/>
					<stop  offset="0.33" style="stop-color:#CDF279"/>
					<stop  offset="0.52" style="stop-color:#B8ED57"/>
					<stop  offset="0.69" style="stop-color:#AAE93F"/>
					<stop  offset="0.86" style="stop-color:#A1E631"/>
					<stop  offset="0.99" style="stop-color:#9EE62C"/>
				</linearGradient>
				<path style="fill:url(#SVGID_00000160158940563808611490000010402747669812073135_);stroke:#328E57;" d="M91,57.7
					c-0.9-3-5.3-9.3-6.7-11.4c-1.4-2.1-3-2-4.6-3s-2.9-0.9-3.6-0.3c-0.7,0.6-1.8,0.5-3.5-0.9s-3.1-0.8-4.4,1.2s0.7,1.7,1.4,2.7
					s-1.2,0.5-1.8,1.6s1.6,2,2.2,2.7s-0.9,0.5-0.7,2.7c0.2,2.1,3.5,2.1,4.3,2.7s-1,0.2-0.8,1.3c0.2,1,2.5,1.5,2.4,2.7S75.8,61,77,61
					c1.2,0,2,1.7,2.4,2.9s2,1.9,2.7,3.6c0.7,1.7-2.4-0.7-3.5-0.7c-1.1,0,2.3,2.8,3.4,3.3c1.1,0.5,2.7,5.1,3.2,5.4
					c0.4,0.4,1.7,0.4,1.7,0.4C89.2,72.7,90.5,66.7,91,57.7"/>
				<path class="st1" d="M87,74.8c-0.2-1.6-2.7-4.5-3.2-5.4s0.1-3.6-1.3-4.2s-3.1-2.6-2.9-4.1c0.2-1.5-1.5-1.4-2.6-2
					c-1.1-0.6-2.2-1.9-1.5-2.3s1.3-2.1,0-2.5c-1.3-0.4-4.6,0-3.5-1.9c1.1-1.9,0.5-2.9,0.3-4.5c-0.3-1.6,1.9-2.4,3.1-1.9
					c1.3,0.6,3.4-0.2,4.5,0.3c1.1,0.5,3.1,0.1,3.8,1.4c0.7,1.3,7,10,6.9,13.5"/>
				<path class="st2" d="M88.1,68.8c-0.8-0.3-1.3-1.2-1.9-1.7c-1.2-0.9-2.4-1.6-3.8-2.2c0,0,0-0.1,0-0.1c1.3,0.3,2.4,0.7,3.4,1.5
					c0.6,0.4,1,0.9,1.5,1.3c0.1,0.1,0.2,0.2,0.3,0.3c-0.6-1.6-1.3-3.2-2.1-4.8c-0.2-0.3-0.3-0.6-0.5-0.9c-1.1-0.8-1.8-1.8-3.1-2.5
					c-1.2-0.6-2.4-1.2-3.6-1.6c-0.1,0,0-0.1,0-0.1c1.6,0.4,3.1,0.8,4.4,1.7c0.4,0.2,0.8,0.5,1.1,0.8c-2.1-2.8-4.9-4.8-8.2-6.6
					c0,0,0-0.1,0,0c3.3,1.5,6.6,3.6,8.7,6.5c-0.1-0.7-0.2-1.3-0.4-1.9c-0.4-1.5-1.2-2.8-2.1-4c0,0,0-0.1,0.1,0
					c0.9,1,1.8,2.1,2.2,3.4c0.4,1.2,1,2.6,1,3.8c1,1.8,1.9,3.6,2.6,5.5c0-0.2,0-0.4,0-0.6c0.2-1,0.2-2,0.5-3c0-0.1,0.1,0,0.1,0
					c0.1,0.8-0.1,1.6-0.2,2.4s0.1,1.6,0,2.4"/>
				<path class="st2" d="M86,73.6C86,73.6,86,73.6,86,73.6c1.1,0,2,0.4,2.8,1"/>
				<path class="st3" d="M91,57.7c-0.9-3-5.3-9.3-6.7-11.4c-1.4-2.1-3-2-4.6-3c-0.1-0.1-0.2-0.1-0.3-0.2c-0.1,0.3-0.2,0.6-0.2,0.9
					c-0.8,2.8,3.1,2.9,4.3,3.9c1.3,1,1.3,2.6,2.1,4.4c0.8,1.8,2.1,2.7,2.5,4.4c0.4,1.7-1.1,1.3-0.6,2.8s2.2,2.1,1.2,2.5
					c-1,0.3,1.2,2.5,1.8,3.9s-2.7,0.8-2.4,2.4c0.3,1.6,3.9,2.8,4.3,3.2C93.6,67.8,93.3,63.3,91,57.7L91,57.7z"/>
				<path class="st2" d="M90.3,61.5c0.3-0.1,0.8-0.2,1.8,0c0.6,0.4,0.1,0.5-0.2,0.4s-0.7-0.2-1.3-0.2S90,61.6,90.3,61.5L90.3,61.5z"
					/>
				<path class="st2" d="M88.8,59.8c0.5-0.1,1.3-0.2,2.9,0.4c0.9,0.7,0.2,0.7-0.3,0.6s-1.1-0.5-2.1-0.5S88.3,59.9,88.8,59.8z"/>
				<path class="st2" d="M89.4,58.2c0.2,0,0.6,0,1.2,0.3c0.3,0.3-0.1,0.3-0.2,0.2s-0.4-0.2-0.8-0.3S89.2,58.2,89.4,58.2L89.4,58.2z"
					/>
				<path class="st2" d="M89.2,59c0.3,0,0.8-0.1,1.8,0.4c0.5,0.5,0,0.5-0.3,0.3s-0.7-0.3-1.2-0.4S88.9,59,89.2,59z"/>
			</g>
			<path class="st9" d="M80.3,69.2c1.3-2,0.1-3.4,0.8-5.3c1.1-2.9,2.4-0.1,3.7-0.3c0.8-0.2,0.5-0.9,1.4-0.8c0.9,0.1,0.4,1.4,1.5,0.1
				c1.1-1.4,1.2-4,3.5-3.8c1.1,0.1,1.1,1.7,1.8,2.3c1,1,1.6-1.1,2.8-0.3c0.9,0.6,0.1,2.1,0.9,2.5c0.9,0.4,2.6-1.2,3.6-1.2
				c1.8-0.1,1.4,2,1.6,3.5c0.3,2.5,2.3,0.9,3.7,2.2c1.6,1.5,1.2,6.4-0.9,7.6c-1.9,1-4.2,0.6-6.1,0.5c-6-0.3-10.9-2.1-16-5L80.3,69.2
				L80.3,69.2z"/>
			<g>
				
					<linearGradient id="SVGID_00000142163512439290608360000006453883051315538578_" gradientUnits="userSpaceOnUse" x1="5244.1504" y1="-343.1103" x2="5281.8706" y2="-343.1103" gradientTransform="matrix(0.9334 -0.3589 -0.3308 -0.912 -4915.0483 1654.729)">
					<stop  offset="0" style="stop-color:#FDFFC7"/>
					<stop  offset="0.13" style="stop-color:#E7F9A4"/>
					<stop  offset="0.33" style="stop-color:#CDF279"/>
					<stop  offset="0.52" style="stop-color:#B8ED57"/>
					<stop  offset="0.69" style="stop-color:#AAE93F"/>
					<stop  offset="0.86" style="stop-color:#A1E631"/>
					<stop  offset="0.99" style="stop-color:#9EE62C"/>
				</linearGradient>
				<path style="fill:url(#SVGID_00000142163512439290608360000006453883051315538578_);stroke:#328E57;" d="M95.3,95.6
					c2.9-1.2,8.7-6.1,10.7-7.7c2-1.6,1.7-3.2,2.6-4.9c0.8-1.7,0.6-2.9,0-3.6c-0.6-0.6-0.6-1.8,0.6-3.6c1.2-1.8,0.5-3.1-1.6-4.3
					c-2.1-1.2-1.6,0.9-2.6,1.6c-1,0.7-0.6-1.1-1.8-1.6c-1.2-0.5-1.8,1.8-2.5,2.5c-0.7,0.7-0.6-0.9-2.7-0.5c-2.1,0.4-1.8,3.6-2.3,4.5
					c-0.5,0.9-0.3-1-1.3-0.7c-1,0.3-1.2,2.6-2.4,2.7c-1.2,0-1.4,0.8-1.2,2c0.1,1.2-1.5,2.2-2.6,2.6c-1.2,0.5-1.7,2.2-3.3,3
					c-1.6,0.9,0.5-2.4,0.4-3.5c-0.1-1.1-2.6,2.5-3,3.7c-0.4,1.2-4.8,3.2-5.1,3.7s-0.2,1.8-0.2,1.8C80.2,95.2,86.3,96,95.3,95.6"/>
				<path class="st1" d="M77.9,93.3c1.6-0.3,4.2-3.1,5.1-3.7c0.9-0.6,3.6-0.2,4.1-1.7c0.5-1.4,2.3-3.3,3.8-3.2s1.3-1.6,1.8-2.8
					s1.7-2.4,2.2-1.7c0.4,0.7,2.2,1.1,2.5-0.2c0.2-1.3-0.4-4.5,1.6-3.7s2.9,0.3,4.5-0.1c1.6-0.4,2.6,1.7,2.1,3
					c-0.5,1.3,0.6,3.4,0.2,4.6c-0.4,1.2,0.2,3.1-1.1,3.9c-1.2,0.8-9.3,7.9-12.8,8.1"/>
				<path class="st2" d="M84,93.8c0.2-0.8,1.1-1.4,1.5-2c0.8-1.2,1.4-2.5,1.9-3.9c0-0.1,0.1,0,0.1,0c-0.2,1.3-0.5,2.4-1.2,3.6
					c-0.4,0.6-0.8,1.1-1.2,1.6c-0.1,0.1-0.2,0.2-0.3,0.4c1.6-0.8,3.1-1.6,4.6-2.5c0.3-0.2,0.6-0.4,0.9-0.6c0.7-1.1,1.7-2,2.2-3.3
					c0.5-1.2,0.9-2.5,1.3-3.8c0-0.1,0.1,0,0.1,0c-0.2,1.6-0.6,3.1-1.3,4.6c-0.2,0.4-0.4,0.8-0.7,1.2c2.6-2.3,4.3-5.3,5.9-8.7
					c0,0,0.1,0,0.1,0c-1.2,3.4-3,6.9-5.7,9.3c0.6-0.2,1.3-0.3,1.9-0.6c1.4-0.6,2.6-1.4,3.8-2.5c0,0,0.1,0,0,0c-0.9,1-1.9,2-3.2,2.5
					c-1.2,0.5-2.5,1.2-3.7,1.3c-1.7,1.2-3.4,2.2-5.3,3.1c0.2,0,0.4,0,0.6,0c1,0.1,2,0.1,3,0.2c0.1,0,0.1,0.1,0,0.2
					c-0.8,0.2-1.6,0.1-2.4,0.1s-1.6,0.2-2.4,0.2"/>
				<path class="st2" d="M79,92.1C79,92.1,79,92.1,79,92.1c0.1,1.1-0.2,2-0.7,2.9"/>
				<path class="st3" d="M95.3,95.6c2.9-1.2,8.7-6.1,10.7-7.7c2-1.6,1.7-3.2,2.6-4.9c0.1-0.1,0.1-0.2,0.1-0.3
					c-0.3-0.1-0.6-0.1-0.9-0.2c-2.8-0.5-2.6,3.3-3.5,4.7c-0.8,1.4-2.5,1.6-4.2,2.5s-2.5,2.4-4.2,2.9c-1.6,0.6-1.4-1-2.8-0.3
					c-1.5,0.7-1.9,2.3-2.4,1.4s-2.4,1.4-3.7,2.2c-1.4,0.8-1-2.6-2.6-2.2c-1.6,0.4-2.4,4.1-2.8,4.6C85.5,99.2,90,98.5,95.3,95.6
					L95.3,95.6z"/>
				<path class="st2" d="M91.5,95.3c0.1,0.3,0.3,0.8,0.1,1.8c-0.3,0.6-0.4,0.2-0.4-0.2s0.2-0.7,0.1-1.3S91.4,95.1,91.5,95.3z"/>
				<path class="st2" d="M93,93.6c0.2,0.5,0.3,1.2-0.2,2.9c-0.6,1-0.7,0.3-0.6-0.2s0.4-1.2,0.3-2.1S92.9,93.2,93,93.6z"/>
				<path class="st2" d="M94.7,94.2c0.1,0.2,0.1,0.6-0.2,1.2c-0.3,0.3-0.3,0-0.2-0.2s0.2-0.4,0.2-0.8S94.6,93.9,94.7,94.2z"/>
				<path class="st2" d="M93.9,94c0.1,0.3,0.2,0.8-0.2,1.8c-0.4,0.5-0.4,0.1-0.3-0.2s0.3-0.7,0.3-1.3S93.8,93.7,93.9,94z"/>
			</g>
			<path class="st9" d="M110.7,54c1.3-2,0.1-3.4,0.8-5.3c1.1-2.9,2.4-0.1,3.7-0.3c0.8-0.2,0.5-0.9,1.4-0.8c0.9,0.1,0.4,1.4,1.5,0.1
				c1.1-1.4,1.2-4,3.5-3.8c1.1,0.1,1.1,1.7,1.8,2.3c1,1,1.6-1.1,2.8-0.3c0.9,0.6,0.1,2.1,0.9,2.5c0.9,0.4,2.6-1.2,3.5-1.2
				c1.8-0.1,1.4,2,1.6,3.5c0.4,2.5,2.3,1,3.7,2.2c1.6,1.5,1.2,6.5-0.9,7.6c-1.9,1-4.2,0.6-6.1,0.5c-6-0.3-10.9-2.1-16-5L110.7,54
				L110.7,54z"/>
			<g>
				
					<linearGradient id="SVGID_00000031203030465405537160000012803248322165580686_" gradientUnits="userSpaceOnUse" x1="958.2632" y1="-509.2756" x2="986.8279" y2="-509.2756" gradientTransform="matrix(0.9976 -6.923414e-02 -6.923414e-02 -0.9976 -916.466 -408.0257)">
					<stop  offset="0" style="stop-color:#FDFFC7"/>
					<stop  offset="0.99" style="stop-color:#9EE62C"/>
				</linearGradient>
				<path style="fill:url(#SVGID_00000031203030465405537160000012803248322165580686_);" d="M74.4,28.8l26.2-1.2
					c0.7,0,1.3,0.3,1.6,0.9c0.8,1.4,1.8,4.1,0.5,6.8c-0.3,0.5-0.8,0.9-1.4,0.9L76,38.6c-0.1,0-0.2-0.1-0.2-0.2
					C75.7,37.1,75.6,31.9,74.4,28.8z"/>
				
					<linearGradient id="SVGID_00000006695086796902083810000009364526819239290025_" gradientUnits="userSpaceOnUse" x1="958.3132" y1="-511.9192" x2="985.5856" y2="-511.9192" gradientTransform="matrix(0.9976 -6.923414e-02 -6.923414e-02 -0.9976 -916.466 -408.0257)">
					<stop  offset="0" style="stop-color:#000000"/>
					<stop  offset="0.99" style="stop-color:#000000"/>
				</linearGradient>
				<path style="opacity:0.2;fill:url(#SVGID_00000006695086796902083810000009364526819239290025_);" d="M74.9,35.3l24.9-1.6
					c0.6,0,1.2,0,1.5,0.1c0.7,0.3,1.5,0.8,0.1,1.4c-0.3,0.1-0.8,0.2-1.4,0.3l-24.2,1.8c-0.1,0-0.2,0-0.2,0
					C75.7,37,75.9,35.9,74.9,35.3L74.9,35.3z"/>
				<ellipse transform="matrix(0.9907 -0.1364 0.1364 0.9907 -3.8628 10.5162)" class="st5" cx="74.8" cy="33.4" rx="1.9" ry="5"/>
				
					<linearGradient id="SVGID_00000057135082904727541910000006360343526875175836_" gradientUnits="userSpaceOnUse" x1="956.3132" y1="-510.9" x2="960.2771" y2="-510.9" gradientTransform="matrix(0.9976 -6.923414e-02 -6.923414e-02 -0.9976 -916.466 -408.0257)">
					<stop  offset="0" style="stop-color:#000000"/>
					<stop  offset="0.99" style="stop-color:#000000"/>
				</linearGradient>
				<path style="opacity:0.2;fill:url(#SVGID_00000057135082904727541910000006360343526875175836_);" d="M72.7,32.8
					c0,0,2.9,6.9,3.9-0.8c0,0,0.7,6.2-1.2,6.3s0,0,0,0S73.5,37.9,72.7,32.8z"/>
				<path class="st16" d="M78.9,30.5c0.2,1.9,19.6,0.1,19.6,0.1S78.7,28.6,78.9,30.5z"/>
			</g>
			<g>
				
					<linearGradient id="SVGID_00000044147337806161933210000005465331120881122216_" gradientUnits="userSpaceOnUse" x1="77.63" y1="42.4144" x2="106.5068" y2="42.4144">
					<stop  offset="0" style="stop-color:#FDFFC7"/>
					<stop  offset="0.99" style="stop-color:#9EE62C"/>
				</linearGradient>
				<path style="fill:url(#SVGID_00000044147337806161933210000005465331120881122216_);" d="M77.6,38.1l26.2-1.2
					c0.7,0,1.3,0.3,1.6,0.9c0.8,1.4,1.8,4.1,0.5,6.8c-0.3,0.5-0.8,0.9-1.4,0.9l-25.3,2.4c-0.1,0-0.2-0.1-0.2-0.2
					C79,46.5,78.8,41.2,77.6,38.1z"/>
				<path class="st18" d="M78.1,44.6l24.9-1.6c0.6,0,1.2,0,1.5,0.1c0.7,0.3,1.5,0.8,0.1,1.4c-0.3,0.1-0.8,0.2-1.4,0.3l-24.2,1.8
					c-0.1,0-0.2,0-0.2,0C79,46.4,79.1,45.2,78.1,44.6L78.1,44.6z"/>
				<ellipse transform="matrix(0.9907 -0.1364 0.1364 0.9907 -5.1073 11.0489)" class="st5" cx="78.1" cy="42.8" rx="1.9" ry="5"/>
				
					<linearGradient id="SVGID_00000130646811039495940810000002099851871743953808_" gradientUnits="userSpaceOnUse" x1="958.9233" y1="-520.4532" x2="962.8932" y2="-520.4532" gradientTransform="matrix(0.9976 -6.923414e-02 -6.923414e-02 -0.9976 -916.466 -408.0257)">
					<stop  offset="0" style="stop-color:#000000"/>
					<stop  offset="0.99" style="stop-color:#000000"/>
				</linearGradient>
				<path style="opacity:0.2;fill:url(#SVGID_00000130646811039495940810000002099851871743953808_);" d="M76,42.2
					c0,0,2.9,6.9,3.9-0.8c0,0,0.7,6.2-1.2,6.3s0,0,0,0S76.7,47.2,76,42.2z"/>
				<path class="st16" d="M82.2,39.8c0.2,1.9,19.6,0.1,19.6,0.1S81.9,38,82.2,39.8z"/>
			</g>
			<g>
				
					<linearGradient id="SVGID_00000059281448494388564320000010849427559192889768_" gradientUnits="userSpaceOnUse" x1="968.7133" y1="-524.3553" x2="997.2779" y2="-524.3553" gradientTransform="matrix(0.9976 -6.923414e-02 -6.923414e-02 -0.9976 -916.466 -408.0257)">
					<stop  offset="0" style="stop-color:#FDFFC7"/>
					<stop  offset="0.99" style="stop-color:#9EE62C"/>
				</linearGradient>
				<path style="fill:url(#SVGID_00000059281448494388564320000010849427559192889768_);" d="M85.8,43.1l26.2-1.2
					c0.7,0,1.3,0.3,1.6,0.9c0.8,1.4,1.8,4.1,0.5,6.8c-0.3,0.5-0.8,0.9-1.4,0.9l-25.3,2.4c-0.1,0-0.2-0.1-0.2-0.2
					C87.2,51.5,87,46.2,85.8,43.1z"/>
				
					<linearGradient id="SVGID_00000047740368952825544150000001169466801391116683_" gradientUnits="userSpaceOnUse" x1="968.7632" y1="-526.9982" x2="996.0356" y2="-526.9982" gradientTransform="matrix(0.9976 -6.923414e-02 -6.923414e-02 -0.9976 -916.466 -408.0257)">
					<stop  offset="0" style="stop-color:#000000"/>
					<stop  offset="0.99" style="stop-color:#000000"/>
				</linearGradient>
				<path style="opacity:0.2;fill:url(#SVGID_00000047740368952825544150000001169466801391116683_);" d="M86.3,49.6l24.9-1.6
					c0.6,0,1.2,0,1.5,0.1c0.7,0.3,1.5,0.8,0.1,1.4c-0.3,0.1-0.8,0.2-1.4,0.3l-24.2,1.8c-0.1,0-0.2,0-0.2,0
					C87.2,51.3,87.3,50.2,86.3,49.6L86.3,49.6z"/>
				<ellipse transform="matrix(0.9907 -0.1364 0.1364 0.9907 -5.7079 12.214)" class="st5" cx="86.3" cy="47.8" rx="1.9" ry="5"/>
				
					<linearGradient id="SVGID_00000066482636842118297360000008934268438825063330_" gradientUnits="userSpaceOnUse" x1="966.7632" y1="-525.9691" x2="970.7271" y2="-525.9691" gradientTransform="matrix(0.9976 -6.923414e-02 -6.923414e-02 -0.9976 -916.466 -408.0257)">
					<stop  offset="0" style="stop-color:#000000"/>
					<stop  offset="0.99" style="stop-color:#000000"/>
				</linearGradient>
				<path style="opacity:0.2;fill:url(#SVGID_00000066482636842118297360000008934268438825063330_);" d="M84.2,47.2
					c0,0,2.9,6.9,3.9-0.8c0,0,0.7,6.2-1.2,6.3s0,0,0,0S84.9,52.2,84.2,47.2z"/>
				<path class="st16" d="M90.4,44.8c0.2,1.9,19.6,0.1,19.6,0.1S90.1,42.9,90.4,44.8z"/>
			</g>
			<g>
				
					<linearGradient id="SVGID_00000012470453213381736740000004126416934146622343_" gradientUnits="userSpaceOnUse" x1="971.2632" y1="-531.6495" x2="999.8279" y2="-531.6495" gradientTransform="matrix(0.9976 -6.923414e-02 -6.923414e-02 -0.9976 -916.466 -408.0257)">
					<stop  offset="0" style="stop-color:#FDFFC7"/>
					<stop  offset="0.99" style="stop-color:#9EE62C"/>
				</linearGradient>
				<path style="fill:url(#SVGID_00000012470453213381736740000004126416934146622343_);" d="M88.9,50.2l26.2-1.2
					c0.7,0,1.3,0.3,1.6,0.9c0.8,1.4,1.8,4.1,0.5,6.8c-0.3,0.5-0.8,0.9-1.4,0.9L90.5,60c-0.1,0-0.2-0.1-0.2-0.2
					C90.2,58.6,90.1,53.3,88.9,50.2z"/>
				
					<linearGradient id="SVGID_00000127727431907330476160000011575426405541914253_" gradientUnits="userSpaceOnUse" x1="971.3132" y1="-534.2924" x2="998.5856" y2="-534.2924" gradientTransform="matrix(0.9976 -6.923414e-02 -6.923414e-02 -0.9976 -916.466 -408.0257)">
					<stop  offset="0" style="stop-color:#000000"/>
					<stop  offset="0.99" style="stop-color:#000000"/>
				</linearGradient>
				<path style="opacity:0.2;fill:url(#SVGID_00000127727431907330476160000011575426405541914253_);" d="M89.4,56.7l24.9-1.6
					c0.6,0,1.2,0,1.5,0.1c0.7,0.3,1.5,0.8,0.1,1.4c-0.3,0.1-0.8,0.2-1.4,0.3l-24.2,1.8c-0.1,0-0.2,0-0.2,0
					C90.2,58.4,90.4,57.3,89.4,56.7L89.4,56.7z"/>
				<ellipse transform="matrix(0.9907 -0.1364 0.1364 0.9907 -6.6475 12.6962)" class="st5" cx="89.3" cy="54.9" rx="1.9" ry="5"/>
				
					<linearGradient id="SVGID_00000003809843000612440100000010624997334573130646_" gradientUnits="userSpaceOnUse" x1="969.3132" y1="-533.2632" x2="973.2771" y2="-533.2632" gradientTransform="matrix(0.9976 -6.923414e-02 -6.923414e-02 -0.9976 -916.466 -408.0257)">
					<stop  offset="0" style="stop-color:#000000"/>
					<stop  offset="0.99" style="stop-color:#000000"/>
				</linearGradient>
				<path style="opacity:0.2;fill:url(#SVGID_00000003809843000612440100000010624997334573130646_);" d="M87.2,54.2
					c0,0,2.9,6.9,3.9-0.8c0,0,0.7,6.2-1.2,6.3s0,0,0,0S88,59.3,87.2,54.2z"/>
				<path class="st16" d="M93.4,51.9C93.6,53.8,113,52,113,52S93.2,50,93.4,51.9z"/>
			</g>
			<g>
				
					<linearGradient id="SVGID_00000026867167340557825100000000751829180847461821_" gradientUnits="userSpaceOnUse" x1="972.5333" y1="-539.3152" x2="1001.0979" y2="-539.3152" gradientTransform="matrix(0.9976 -6.923414e-02 -6.923414e-02 -0.9976 -916.466 -408.0257)">
					<stop  offset="0" style="stop-color:#FDFFC7"/>
					<stop  offset="0.99" style="stop-color:#9EE62C"/>
				</linearGradient>
				<path style="fill:url(#SVGID_00000026867167340557825100000000751829180847461821_);" d="M90.7,57.7l26.2-1.2
					c0.7,0,1.3,0.3,1.6,0.9c0.8,1.4,1.8,4.1,0.5,6.8c-0.3,0.5-0.8,0.9-1.4,0.9l-25.3,2.4c-0.1,0-0.2-0.1-0.2-0.2
					C92,66.1,91.9,60.9,90.7,57.7z"/>
				
					<linearGradient id="SVGID_00000128443129555965852960000005071083473274625449_" gradientUnits="userSpaceOnUse" x1="972.5833" y1="-541.9588" x2="999.8556" y2="-541.9588" gradientTransform="matrix(0.9976 -6.923414e-02 -6.923414e-02 -0.9976 -916.466 -408.0257)">
					<stop  offset="0" style="stop-color:#000000"/>
					<stop  offset="0.99" style="stop-color:#000000"/>
				</linearGradient>
				<path style="opacity:0.2;fill:url(#SVGID_00000128443129555965852960000005071083473274625449_);" d="M91.2,64.2l24.9-1.6
					c0.6,0,1.2,0,1.5,0.1c0.7,0.3,1.5,0.8,0.1,1.4c-0.3,0.1-0.8,0.2-1.4,0.3l-24.2,1.8c-0.1,0-0.2,0-0.2,0
					C92,66,92.2,64.9,91.2,64.2L91.2,64.2z"/>
				<ellipse transform="matrix(0.9907 -0.1364 0.1364 0.9907 -7.6627 13.0119)" class="st5" cx="91.1" cy="62.4" rx="1.9" ry="5"/>
				
					<linearGradient id="SVGID_00000055682829971847079970000008062265064289988231_" gradientUnits="userSpaceOnUse" x1="970.5833" y1="-540.9396" x2="974.5471" y2="-540.9396" gradientTransform="matrix(0.9976 -6.923414e-02 -6.923414e-02 -0.9976 -916.466 -408.0257)">
					<stop  offset="0" style="stop-color:#000000"/>
					<stop  offset="0.99" style="stop-color:#000000"/>
				</linearGradient>
				<path style="opacity:0.2;fill:url(#SVGID_00000055682829971847079970000008062265064289988231_);" d="M89,61.8
					c0,0,2.9,6.9,3.9-0.8c0,0,0.7,6.2-1.2,6.3s0,0,0,0S89.8,66.9,89,61.8z"/>
				<path class="st16" d="M95.2,59.5c0.2,1.9,19.6,0.1,19.6,0.1S95,57.6,95.2,59.5z"/>
			</g>
			<g>
				
					<linearGradient id="SVGID_00000135673839579175271720000006876296473610487955_" gradientUnits="userSpaceOnUse" x1="978.9833" y1="-543.8428" x2="1007.5479" y2="-543.8428" gradientTransform="matrix(0.9976 -6.923414e-02 -6.923414e-02 -0.9976 -916.466 -408.0257)">
					<stop  offset="0" style="stop-color:#FDFFC7"/>
					<stop  offset="0.99" style="stop-color:#9EE62C"/>
				</linearGradient>
				<path style="fill:url(#SVGID_00000135673839579175271720000006876296473610487955_);" d="M97.4,61.8l26.2-1.2
					c0.7,0,1.3,0.3,1.6,0.9c0.8,1.4,1.8,4.1,0.5,6.8c-0.3,0.5-0.8,0.9-1.4,0.9L99,71.6c-0.1,0-0.2-0.1-0.2-0.2
					C98.8,70.2,98.6,64.9,97.4,61.8z"/>
				
					<linearGradient id="SVGID_00000033368339149916756960000001710508662174190773_" gradientUnits="userSpaceOnUse" x1="979.0333" y1="-546.4764" x2="1006.3056" y2="-546.4764" gradientTransform="matrix(0.9976 -6.923414e-02 -6.923414e-02 -0.9976 -916.466 -408.0257)">
					<stop  offset="0" style="stop-color:#000000"/>
					<stop  offset="0.99" style="stop-color:#000000"/>
				</linearGradient>
				<path style="opacity:0.2;fill:url(#SVGID_00000033368339149916756960000001710508662174190773_);" d="M97.9,68.3l24.9-1.6
					c0.6,0,1.2,0,1.5,0.1c0.7,0.3,1.5,0.8,0.1,1.4c-0.3,0.1-0.8,0.2-1.4,0.3L99,70.3c-0.1,0-0.2,0-0.2,0
					C98.8,70.1,98.9,68.9,97.9,68.3L97.9,68.3z"/>
				<ellipse transform="matrix(0.9907 -0.1364 0.1364 0.9907 -8.1536 13.9707)" class="st5" cx="97.9" cy="66.5" rx="1.9" ry="5"/>
				
					<linearGradient id="SVGID_00000005967467883415999770000004461518027388737190_" gradientUnits="userSpaceOnUse" x1="977.0333" y1="-545.4572" x2="980.9971" y2="-545.4572" gradientTransform="matrix(0.9976 -6.923414e-02 -6.923414e-02 -0.9976 -916.466 -408.0257)">
					<stop  offset="0" style="stop-color:#000000"/>
					<stop  offset="0.99" style="stop-color:#000000"/>
				</linearGradient>
				<path style="fill:url(#SVGID_00000005967467883415999770000004461518027388737190_);" d="M95.8,65.9c0,0,2.9,6.9,3.9-0.8
					c0,0,0.7,6.2-1.2,6.3s0,0,0,0S96.5,70.9,95.8,65.9z"/>
				<path class="st16" d="M101.9,63.5c0.2,1.9,19.6,0.1,19.6,0.1S101.7,61.7,101.9,63.5z"/>
			</g>
			<g>
				
					<linearGradient id="SVGID_00000078025056969252267760000000129742711915751055_" gradientUnits="userSpaceOnUse" x1="5251.3804" y1="-330.1239" x2="5289.1006" y2="-330.1239" gradientTransform="matrix(0.9334 -0.3589 -0.3308 -0.912 -4915.0483 1654.729)">
					<stop  offset="0" style="stop-color:#FDFFC7"/>
					<stop  offset="0.13" style="stop-color:#E7F9A4"/>
					<stop  offset="0.33" style="stop-color:#CDF279"/>
					<stop  offset="0.52" style="stop-color:#B8ED57"/>
					<stop  offset="0.69" style="stop-color:#AAE93F"/>
					<stop  offset="0.86" style="stop-color:#A1E631"/>
					<stop  offset="0.99" style="stop-color:#9EE62C"/>
				</linearGradient>
				<path style="fill:url(#SVGID_00000078025056969252267760000000129742711915751055_);stroke:#328E57;" d="M97.8,81.2
					c2.9-1.2,8.7-6.1,10.7-7.7c2-1.6,1.7-3.2,2.6-4.9c0.8-1.7,0.6-2.9,0-3.6c-0.6-0.6-0.6-1.8,0.6-3.6c1.2-1.8,0.5-3.1-1.6-4.3
					c-2.1-1.2-1.6,0.9-2.6,1.6c-1,0.7-0.6-1.1-1.8-1.6c-1.2-0.5-1.8,1.8-2.5,2.5c-0.7,0.7-0.6-0.9-2.7-0.5s-1.8,3.6-2.3,4.5
					c-0.5,0.9-0.3-1-1.3-0.7c-1,0.3-1.2,2.6-2.4,2.7c-1.2,0-1.4,0.8-1.2,2c0.1,1.2-1.5,2.2-2.6,2.6c-1.2,0.5-1.7,2.2-3.3,3
					c-1.6,0.9,0.5-2.4,0.4-3.5c-0.1-1.1-2.6,2.5-3,3.7c-0.4,1.2-4.8,3.2-5.1,3.7s-0.2,1.8-0.2,1.8C82.6,80.8,88.7,81.6,97.8,81.2"/>
				<path class="st1" d="M80.3,78.8c1.6-0.3,4.2-3.1,5.1-3.7c0.9-0.6,3.6-0.2,4.1-1.7c0.5-1.4,2.3-3.3,3.8-3.2s1.3-1.6,1.8-2.8
					s1.7-2.4,2.2-1.7c0.4,0.7,2.2,1.1,2.5-0.2c0.2-1.3-0.4-4.5,1.6-3.7c2,0.9,2.9,0.3,4.5-0.1c1.6-0.4,2.6,1.7,2.1,3
					c-0.5,1.3,0.6,3.4,0.2,4.6c-0.4,1.2,0.2,3.1-1.1,3.9c-1.2,0.8-9.3,7.9-12.8,8.1"/>
				<path class="st2" d="M86.4,79.3c0.2-0.8,1.1-1.4,1.5-2c0.8-1.2,1.4-2.5,1.9-3.9c0-0.1,0.1,0,0.1,0c-0.2,1.3-0.5,2.4-1.2,3.6
					c-0.4,0.6-0.8,1.1-1.2,1.6c-0.1,0.1-0.2,0.2-0.3,0.4c1.6-0.8,3.1-1.6,4.6-2.5c0.3-0.2,0.6-0.4,0.9-0.6c0.7-1.1,1.7-2,2.2-3.3
					c0.5-1.2,0.9-2.5,1.3-3.8c0-0.1,0.1,0,0.1,0c-0.2,1.6-0.6,3.1-1.3,4.6c-0.2,0.4-0.4,0.8-0.7,1.2c2.6-2.3,4.3-5.3,5.9-8.7
					c0,0,0.1,0,0.1,0c-1.2,3.4-3,6.9-5.7,9.3c0.6-0.2,1.3-0.3,1.9-0.6c1.4-0.6,2.6-1.4,3.8-2.5c0,0,0.1,0,0,0c-0.9,1-1.9,2-3.2,2.5
					c-1.2,0.5-2.5,1.2-3.7,1.3c-1.7,1.2-3.4,2.2-5.3,3.1c0.2,0,0.4,0,0.6,0c1,0.1,2,0.1,3,0.2c0.1,0,0.1,0.1,0,0.2
					c-0.8,0.2-1.6,0.1-2.4,0.1s-1.6,0.2-2.4,0.2"/>
				<path class="st2" d="M81.4,77.7C81.4,77.7,81.5,77.7,81.4,77.7c0.1,1.1-0.2,2-0.7,2.9"/>
				<path class="st3" d="M97.8,81.2c2.9-1.2,8.7-6.1,10.7-7.7c2-1.6,1.7-3.2,2.6-4.9c0.1-0.1,0.1-0.2,0.1-0.3
					c-0.3-0.1-0.6-0.1-0.9-0.2c-2.8-0.5-2.6,3.3-3.5,4.7c-0.8,1.4-2.5,1.6-4.2,2.5s-2.5,2.4-4.2,2.9c-1.6,0.6-1.4-1-2.8-0.3
					c-1.5,0.7-1.9,2.3-2.4,1.4s-2.4,1.4-3.7,2.2c-1.4,0.8-1-2.6-2.6-2.2c-1.6,0.4-2.4,4.1-2.8,4.6C88,84.7,92.4,84.1,97.8,81.2
					L97.8,81.2z"/>
				<path class="st2" d="M93.9,80.9c0.1,0.3,0.3,0.8,0.1,1.8c-0.3,0.6-0.4,0.2-0.4-0.2s0.2-0.7,0.1-1.3S93.8,80.6,93.9,80.9z"/>
				<path class="st2" d="M95.5,79.2c0.2,0.5,0.3,1.2-0.2,2.9c-0.6,1-0.7,0.3-0.6-0.2s0.4-1.2,0.3-2.1S95.3,78.7,95.5,79.2z"/>
				<path class="st2" d="M97.1,79.7c0.1,0.2,0.1,0.6-0.2,1.2c-0.3,0.3-0.3,0-0.2-0.2s0.2-0.4,0.2-0.8S97,79.5,97.1,79.7z"/>
				<path class="st2" d="M96.3,79.5c0.1,0.3,0.2,0.8-0.2,1.8c-0.4,0.5-0.4,0.1-0.3-0.2s0.3-0.7,0.3-1.3S96.2,79.2,96.3,79.5z"/>
			</g>
			<g>
				
					<linearGradient id="SVGID_00000108989949372079751200000011426388225290366648_" gradientUnits="userSpaceOnUse" x1="994.7233" y1="-552.9841" x2="1023.2879" y2="-552.9841" gradientTransform="matrix(0.9976 -6.923414e-02 -6.923414e-02 -0.9976 -916.466 -408.0257)">
					<stop  offset="0" style="stop-color:#FDFFC7"/>
					<stop  offset="0.99" style="stop-color:#9EE62C"/>
				</linearGradient>
				<path style="fill:url(#SVGID_00000108989949372079751200000011426388225290366648_);" d="M113.8,69.8l26.2-1.2
					c0.7,0,1.3,0.3,1.6,0.9c0.8,1.4,1.8,4.1,0.5,6.8c-0.3,0.5-0.8,0.9-1.4,0.9l-25.3,2.4c-0.1,0-0.2-0.1-0.2-0.2
					C115.1,78.2,115,73,113.8,69.8z"/>
				
					<linearGradient id="SVGID_00000003814964301978977670000017011300788200866195_" gradientUnits="userSpaceOnUse" x1="994.7733" y1="-555.6177" x2="1022.0455" y2="-555.6177" gradientTransform="matrix(0.9976 -6.923414e-02 -6.923414e-02 -0.9976 -916.466 -408.0257)">
					<stop  offset="0" style="stop-color:#000000"/>
					<stop  offset="0.99" style="stop-color:#000000"/>
				</linearGradient>
				<path style="fill:url(#SVGID_00000003814964301978977670000017011300788200866195_);" d="M114.3,76.3l24.9-1.6
					c0.6,0,1.2,0,1.5,0.1c0.6,0.3,1.5,0.8,0.1,1.4c-0.3,0.1-0.8,0.2-1.4,0.3l-24.2,1.8c-0.1,0-0.2,0-0.2,0
					C115.1,78.1,115.2,77,114.3,76.3L114.3,76.3z"/>
				<ellipse transform="matrix(0.9907 -0.1364 0.1364 0.9907 -9.0957 16.2736)" class="st5" cx="114.2" cy="74.5" rx="1.9" ry="5"/>
				
					<linearGradient id="SVGID_00000090265490611076985670000009350506478549996169_" gradientUnits="userSpaceOnUse" x1="992.7733" y1="-554.5986" x2="996.7371" y2="-554.5986" gradientTransform="matrix(0.9976 -6.923414e-02 -6.923414e-02 -0.9976 -916.466 -408.0257)">
					<stop  offset="0" style="stop-color:#000000"/>
					<stop  offset="0.99" style="stop-color:#000000"/>
				</linearGradient>
				<path style="fill:url(#SVGID_00000090265490611076985670000009350506478549996169_);" d="M112.1,73.9c0,0,2.9,6.9,3.9-0.8
					c0,0,0.7,6.2-1.2,6.3s0,0,0,0S112.9,79,112.1,73.9z"/>
				<path class="st16" d="M118.3,71.6c0.2,1.9,19.6,0.1,19.6,0.1S118.1,69.7,118.3,71.6z"/>
			</g>
			<g>
				
					<linearGradient id="SVGID_00000063628341383179111180000001194768070372241340_" gradientUnits="userSpaceOnUse" x1="975.9033" y1="-553.2216" x2="1004.4679" y2="-553.2216" gradientTransform="matrix(0.9976 -6.923414e-02 -6.923414e-02 -0.9976 -916.466 -408.0257)">
					<stop  offset="0" style="stop-color:#FDFFC7"/>
					<stop  offset="0.99" style="stop-color:#9EE62C"/>
				</linearGradient>
				<path style="fill:url(#SVGID_00000063628341383179111180000001194768070372241340_);" d="M95,71.4l26.2-1.2
					c0.7,0,1.3,0.3,1.6,0.9c0.8,1.4,1.8,4.1,0.5,6.8c-0.3,0.5-0.8,0.9-1.4,0.9l-25.3,2.4c-0.1,0-0.2-0.1-0.2-0.2
					C96.3,79.8,96.2,74.5,95,71.4z"/>
				
					<linearGradient id="SVGID_00000113329327931636652550000012678702767918802089_" gradientUnits="userSpaceOnUse" x1="975.9532" y1="-555.8652" x2="1003.2256" y2="-555.8652" gradientTransform="matrix(0.9976 -6.923414e-02 -6.923414e-02 -0.9976 -916.466 -408.0257)">
					<stop  offset="0" style="stop-color:#000000"/>
					<stop  offset="0.99" style="stop-color:#000000"/>
				</linearGradient>
				<path style="fill:url(#SVGID_00000113329327931636652550000012678702767918802089_);" d="M95.5,77.9l24.9-1.6
					c0.6,0,1.2,0,1.5,0.1c0.7,0.3,1.5,0.8,0.1,1.4c-0.3,0.1-0.8,0.2-1.4,0.3l-24.2,1.8c-0.1,0-0.2,0-0.2,0
					C96.4,79.6,96.5,78.5,95.5,77.9L95.5,77.9z"/>
				<ellipse transform="matrix(0.9907 -0.1364 0.1364 0.9907 -9.4831 13.7301)" class="st5" cx="95.4" cy="76.1" rx="1.9" ry="5"/>
				
					<linearGradient id="SVGID_00000145769986295669184760000006727097726830475448_" gradientUnits="userSpaceOnUse" x1="973.9532" y1="-554.8361" x2="977.9171" y2="-554.8361" gradientTransform="matrix(0.9976 -6.923414e-02 -6.923414e-02 -0.9976 -916.466 -408.0257)">
					<stop  offset="0" style="stop-color:#000000"/>
					<stop  offset="0.99" style="stop-color:#000000"/>
				</linearGradient>
				<path style="opacity:0.2;fill:url(#SVGID_00000145769986295669184760000006727097726830475448_);" d="M93.3,75.4
					c0,0,2.9,6.9,3.9-0.8c0,0,0.7,6.2-1.2,6.3s0,0,0,0S94.1,80.5,93.3,75.4z"/>
				<path class="st16" d="M99.5,73.1c0.2,1.9,19.6,0.1,19.6,0.1S99.3,71.2,99.5,73.1z"/>
			</g>
			<g>
				
					<linearGradient id="SVGID_00000150799646380793431590000004178097418164466838_" gradientUnits="userSpaceOnUse" x1="981.6533" y1="-560.728" x2="1010.2179" y2="-560.728" gradientTransform="matrix(0.9976 -6.923414e-02 -6.923414e-02 -0.9976 -916.466 -408.0257)">
					<stop  offset="0" style="stop-color:#FDFFC7"/>
					<stop  offset="0.99" style="stop-color:#9EE62C"/>
				</linearGradient>
				<path style="fill:url(#SVGID_00000150799646380793431590000004178097418164466838_);" d="M101.3,78.5l26.2-1.2
					c0.7,0,1.3,0.3,1.6,0.9c0.8,1.4,1.8,4.1,0.5,6.8c-0.3,0.5-0.8,0.9-1.4,0.9l-25.3,2.4c-0.1,0-0.2-0.1-0.2-0.2
					C102.6,86.9,102.5,81.6,101.3,78.5z"/>
				
					<linearGradient id="SVGID_00000059310679856924667150000012883278097061110680_" gradientUnits="userSpaceOnUse" x1="981.7032" y1="-563.3716" x2="1008.9756" y2="-563.3716" gradientTransform="matrix(0.9976 -6.923414e-02 -6.923414e-02 -0.9976 -916.466 -408.0257)">
					<stop  offset="0" style="stop-color:#000000"/>
					<stop  offset="0.99" style="stop-color:#000000"/>
				</linearGradient>
				<path style="fill:url(#SVGID_00000059310679856924667150000012883278097061110680_);" d="M101.8,85l24.9-1.6
					c0.6,0,1.2,0,1.5,0.1c0.6,0.3,1.5,0.8,0.1,1.4c-0.3,0.1-0.8,0.2-1.4,0.3L102.8,87c-0.1,0-0.2,0-0.2,0
					C102.6,86.7,102.8,85.6,101.8,85L101.8,85z"/>
				
					<ellipse transform="matrix(0.9907 -0.1364 0.1364 0.9907 -10.3919 14.6487)" class="st5" cx="101.7" cy="83.2" rx="1.9" ry="5"/>
				
					<linearGradient id="SVGID_00000032634209408750009680000013620361727824604846_" gradientUnits="userSpaceOnUse" x1="979.7032" y1="-562.3524" x2="983.6671" y2="-562.3524" gradientTransform="matrix(0.9976 -6.923414e-02 -6.923414e-02 -0.9976 -916.466 -408.0257)">
					<stop  offset="0" style="stop-color:#000000"/>
					<stop  offset="0.99" style="stop-color:#000000"/>
				</linearGradient>
				<path style="fill:url(#SVGID_00000032634209408750009680000013620361727824604846_);" d="M99.6,82.6c0,0,2.9,6.9,3.9-0.8
					c0,0,0.7,6.2-1.2,6.3s0,0,0,0S100.4,87.6,99.6,82.6z"/>
				<path class="st16" d="M105.8,80.2c0.2,1.9,19.6,0.1,19.6,0.1S105.6,78.3,105.8,80.2z"/>
			</g>
			<g>
				
					<linearGradient id="SVGID_00000094620051419839485770000012226539939792233123_" gradientUnits="userSpaceOnUse" x1="987.9432" y1="-567.6698" x2="1016.5079" y2="-567.6698" gradientTransform="matrix(0.9976 -6.923414e-02 -6.923414e-02 -0.9976 -916.466 -408.0257)">
					<stop  offset="0" style="stop-color:#FDFFC7"/>
					<stop  offset="0.99" style="stop-color:#9EE62C"/>
				</linearGradient>
				<path style="fill:url(#SVGID_00000094620051419839485770000012226539939792233123_);" d="M108,84.9l26.2-1.2
					c0.7,0,1.3,0.3,1.6,0.9c0.8,1.4,1.8,4.1,0.5,6.8c-0.3,0.5-0.8,0.9-1.4,0.9l-25.3,2.4c-0.1,0-0.2-0.1-0.2-0.2
					C109.3,93.3,109.2,88.1,108,84.9z"/>
				
					<linearGradient id="SVGID_00000017483337560637134730000002788420674132250302_" gradientUnits="userSpaceOnUse" x1="987.9933" y1="-570.3134" x2="1015.2656" y2="-570.3134" gradientTransform="matrix(0.9976 -6.923414e-02 -6.923414e-02 -0.9976 -916.466 -408.0257)">
					<stop  offset="0" style="stop-color:#000000"/>
					<stop  offset="0.99" style="stop-color:#000000"/>
				</linearGradient>
				<path style="opacity:0.2;fill:url(#SVGID_00000017483337560637134730000002788420674132250302_);" d="M108.5,91.5l24.9-1.6
					c0.6,0,1.2,0,1.5,0.1c0.6,0.3,1.5,0.8,0.1,1.4c-0.3,0.1-0.8,0.2-1.4,0.3l-24.2,1.8c-0.1,0-0.2,0-0.2,0
					C109.4,93.2,109.5,92.1,108.5,91.5L108.5,91.5z"/>
				
					<ellipse transform="matrix(0.9907 -0.1364 0.1364 0.9907 -11.2136 15.6318)" class="st5" cx="108.5" cy="89.6" rx="1.9" ry="5"/>
				<path d="M106.3,89c0,0,2.9,6.9,3.9-0.8c0,0,0.7,6.2-1.2,6.3s0,0,0,0S107.1,94.1,106.3,89z"/>
				<path class="st16" d="M112.5,86.7c0.2,1.9,19.6,0.1,19.6,0.1S112.3,84.8,112.5,86.7z"/>
			</g>
			<g>
				
					<linearGradient id="SVGID_00000050659970522255684200000007414063000732289672_" gradientUnits="userSpaceOnUse" x1="3510.5959" y1="770.5129" x2="3567.3762" y2="770.5129" gradientTransform="matrix(-0.7267 -0.687 0.6529 -0.7176 2172.9255 3063.8157)">
					<stop  offset="0" style="stop-color:#FDFFC7"/>
					<stop  offset="0.13" style="stop-color:#E7F9A4"/>
					<stop  offset="0.33" style="stop-color:#CDF279"/>
					<stop  offset="0.52" style="stop-color:#B8ED57"/>
					<stop  offset="0.69" style="stop-color:#AAE93F"/>
					<stop  offset="0.86" style="stop-color:#A1E631"/>
					<stop  offset="0.99" style="stop-color:#9EE62C"/>
				</linearGradient>
				<path style="fill:url(#SVGID_00000050659970522255684200000007414063000732289672_);stroke:#328E57;" d="M109.7,104
					c-3.5-3.3-9-13.1-11-16.3c-1.9-3.2-0.8-5.2-1-7.9c-0.3-2.7,0.7-4.2,2-4.7c1.2-0.5,1.8-2,1.1-5.1c-0.7-3.1,0.9-4.4,4.6-4.7
					c3.6-0.3,1.8,2.1,2.8,3.6s1.4-1.1,3.4-1.1s1.6,3.3,2.2,4.7c0.6,1.3,1.3-0.8,4.1,0.9c2.7,1.7,0.6,5.8,0.8,7.2
					c0.2,1.4,1-1.1,2.3-0.1c1.3,1,0.3,4.2,2,4.9s1.5,1.8,0.7,3.3c-0.8,1.5,0.9,3.7,2.3,5c1.4,1.3,1.2,3.8,3.1,5.9
					c1.8,2.1,0.6-3.5,1.3-4.8c0.7-1.4,2.3,4.8,2.2,6.6c-0.1,1.8,5.1,6.9,5.3,7.8s-0.7,2.4-0.7,2.4
					C131.3,112.3,122.2,109.8,109.7,104"/>
				<path class="st1" d="M135.6,111c-2.1-1.3-4.3-6.5-5.3-7.8s-4.9-2.4-4.9-4.5c0.1-2.2-1.5-5.7-3.7-6.5c-2.2-0.8-0.9-2.9-1.1-4.6
					c-0.2-1.8-1.1-4.1-2.2-3.4c-1,0.7-3.7,0.2-3.4-1.7s3.1-5.7-0.2-5.7s-4.3-1.3-6.3-2.8s-4.6,0.6-4.6,2.6c-0.1,2-2.6,4.1-2.7,5.8
					c-0.1,1.8-1.9,3.9-0.6,5.8s8.9,15.7,13.7,18"/>
				<path class="st2" d="M126.7,108.1c0.1-1.1-0.8-2.5-1.1-3.5c-0.5-2.1-0.6-4.1-0.5-6.2c0-0.1-0.1-0.1-0.1,0
					c-0.5,1.9-0.7,3.4-0.2,5.3c0.2,1,0.5,1.9,0.8,2.8c0.1,0.2,0.1,0.4,0.2,0.6c-1.8-1.9-3.5-3.9-5.1-6c-0.3-0.4-0.6-0.9-0.9-1.3
					c-0.4-1.9-1.3-3.6-1.3-5.6c-0.1-1.9,0-3.8,0.2-5.7c0-0.1-0.1-0.1-0.1,0c-0.5,2.2-0.9,4.4-0.6,6.7c0.1,0.6,0.2,1.3,0.3,1.9
					c-2.3-4.6-3.2-9.5-3.6-14.8c0-0.1-0.1-0.1-0.1,0c-0.1,5.2,0.4,10.8,3.1,15.4c-0.8-0.6-1.7-1.2-2.4-1.8c-1.7-1.5-3-3.4-4-5.4
					c0-0.1-0.1,0-0.1,0c0.7,1.9,1.6,3.7,3.1,5.1c1.4,1.3,2.8,3,4.5,3.9c1.7,2.5,3.7,4.9,5.8,7.2c-0.3-0.2-0.6-0.3-0.9-0.4
					c-1.4-0.5-2.9-1.1-4.3-1.4c-0.1,0-0.2,0.1-0.1,0.2c1,0.7,2.2,1.1,3.4,1.5c1.2,0.4,2.1,1.2,3.3,1.6"/>
				<path class="st3" d="M109.7,104c-3.5-3.3-9-13.1-11-16.3c-1.9-3.2-0.8-5.2-1-7.9c0-0.2,0-0.3,0-0.5c0.4,0.1,0.9,0.2,1.4,0.3
					c4.3,0.9,1.9,5.8,2.4,8.1c0.5,2.3,2.7,3.5,4.6,5.7c1.9,2.2,2.3,4.6,4.3,6.2c2,1.7,2.5-0.5,4.2,1.2s1.4,4.2,2.6,3.2
					c1.1-1,2.6,3.2,4.1,5s2.8-2.8,4.8-1.4s1.2,6.8,1.4,7.6C121.6,114.3,115.7,110.9,109.7,104L109.7,104z"/>
				<path class="st2" d="M115.2,105.8c-0.3,0.3-0.8,0.8-1.1,2.2c0.1,0.9,0.5,0.4,0.6,0s0.2-1,0.6-1.7S115.6,105.6,115.2,105.8z"/>
				<path class="st2" d="M114,102.7c-0.5,0.5-1.2,1.4-1.3,3.9c0.3,1.6,0.9,0.8,1,0s0.1-1.8,0.7-3S114.5,102.2,114,102.7z"/>
				<path class="st2" d="M111.4,102.5c-0.2,0.3-0.4,0.7-0.4,1.7c0.3,0.6,0.5,0.1,0.5-0.2s-0.1-0.7,0.1-1.2S111.6,102.2,111.4,102.5z
					"/>
				<path class="st2" d="M112.6,102.7c-0.3,0.3-0.7,1-0.6,2.4c0.3,0.9,0.6,0.3,0.6-0.1s0-1.1,0.2-1.8
					C113.2,102.4,112.9,102.3,112.6,102.7z"/>
			</g>
			<g>
				
					<linearGradient id="SVGID_00000124856980874181850910000007199834091333136310_" gradientUnits="userSpaceOnUse" x1="3774.1313" y1="847.6391" x2="3820.3013" y2="847.6391" gradientTransform="matrix(-0.598 -0.8015 0.7664 -0.5949 1755.074 3586.8223)">
					<stop  offset="0" style="stop-color:#FDFFC7"/>
					<stop  offset="0.13" style="stop-color:#E7F9A4"/>
					<stop  offset="0.33" style="stop-color:#CDF279"/>
					<stop  offset="0.52" style="stop-color:#B8ED57"/>
					<stop  offset="0.69" style="stop-color:#AAE93F"/>
					<stop  offset="0.86" style="stop-color:#A1E631"/>
					<stop  offset="0.99" style="stop-color:#9EE62C"/>
				</linearGradient>
				<path style="fill:url(#SVGID_00000124856980874181850910000007199834091333136310_);stroke:#328E57;" d="M137.1,62.5
					c-2.4-3.1-5.4-11.7-6.5-14.6s0.1-4.2,0.3-6.4c0.1-2.2,1.2-3.3,2.2-3.5c1.1-0.2,1.7-1.3,1.6-3.9c-0.1-2.6,1.4-3.4,4.3-3.1
					c2.9,0.3,1.2,1.9,1.7,3.3c0.6,1.3,1.3-0.7,2.9-0.4s0.9,2.9,1.1,4c0.3,1.1,1.2-0.5,3.1,1.3c1.9,1.8-0.4,4.7-0.4,5.9
					c0,1.2,1-0.7,1.8,0.2c0.9,1-0.3,3.4,0.9,4.2s0.9,1.7,0.1,2.7s0.2,3.1,1.1,4.3s0.5,3.2,1.6,5.1c1.2,1.9,1-2.7,1.7-3.7
					c0.8-1,1.2,4.1,0.9,5.6c-0.3,1.4,3.1,6.2,3.1,6.9c0.1,0.7-0.9,1.8-0.9,1.8C153.2,72.1,146.3,68.9,137.1,62.5"/>
				<path class="st1" d="M156.8,71.7c-1.5-1.4-2.6-5.8-3.1-6.9s-3.6-2.6-3.3-4.3s-0.4-4.7-2.1-5.7s-0.3-2.4-0.2-3.8
					c0.1-1.4-0.3-3.5-1.2-3s-3-0.4-2.4-1.8c0.6-1.5,3.2-4.1,0.6-4.6s-3.2-1.7-4.6-3.1s-3.7-0.1-4.1,1.5c-0.3,1.6-2.6,2.9-2.9,4.3
					c-0.3,1.4-2.1,2.9-1.3,4.5c0.8,1.6,4.9,13.8,8.5,16.3"/>
				<path class="st2" d="M150.1,68.2c0.3-0.9-0.3-2.1-0.4-3c-0.1-1.8,0.1-3.3,0.4-5.1c0-0.1-0.1-0.1-0.1,0c-0.6,1.4-1,2.7-0.9,4.2
					c0,0.8,0.1,1.6,0.3,2.4c0,0.2,0.1,0.4,0.1,0.5c-1.2-1.8-2.3-3.6-3.3-5.5c-0.2-0.4-0.4-0.8-0.6-1.2c-0.1-1.6-0.5-3-0.3-4.7
					c0.2-1.5,0.5-3,1-4.5c0-0.1-0.1-0.1-0.1,0c-0.7,1.7-1.3,3.4-1.4,5.3c0,0.5-0.1,1,0,1.6c-1.2-4-1.2-8-0.8-12.4c0,0-0.1-0.1-0.1,0
					c-0.8,4.2-1.1,8.7,0.3,12.8c-0.5-0.6-1.2-1.2-1.6-1.8c-1.2-1.5-1.9-3.1-2.4-4.9c0,0-0.1,0-0.1,0c0.3,1.6,0.8,3.2,1.8,4.5
					c0.9,1.2,1.8,2.8,3.1,3.8c1,2.2,2.3,4.4,3.6,6.5c-0.2-0.2-0.4-0.3-0.6-0.4c-1.1-0.6-2.1-1.3-3.3-1.8c-0.1,0-0.1,0.1-0.1,0.2
					c0.7,0.7,1.6,1.2,2.5,1.7s1.6,1.3,2.4,1.8"/>
				<path class="st3" d="M137.1,62.5c-2.4-3.1-5.4-11.7-6.5-14.6s0.1-4.2,0.3-6.4c0-0.1,0-0.3,0-0.4c0.3,0.1,0.7,0.3,1.1,0.4
					c3.3,1.3,0.7,4.9,0.8,6.8s1.7,3.2,2.9,5.2c1.2,2,1.2,4,2.6,5.6s2.1-0.1,3.2,1.6c1.1,1.7,0.6,3.6,1.6,2.9s1.6,2.9,2.6,4.6
					s2.7-1.9,4.1-0.4c1.4,1.4,0,5.6,0.1,6.3C145.2,72.4,140.9,68.8,137.1,62.5L137.1,62.5z"/>
				<path class="st2" d="M141.2,64.8c-0.3,0.2-0.8,0.5-1.2,1.6c0,0.8,0.4,0.4,0.5,0.1s0.3-0.8,0.7-1.3S141.6,64.6,141.2,64.8
					L141.2,64.8z"/>
				<path class="st2" d="M140.7,62.1c-0.5,0.3-1.1,1-1.6,2.9c0,1.3,0.6,0.7,0.8,0.2s0.3-1.4,0.9-2.3S141.2,61.7,140.7,62.1z"/>
				<path class="st2" d="M138.7,61.5c-0.2,0.2-0.5,0.5-0.5,1.3c0.1,0.5,0.4,0.2,0.4-0.1s0-0.5,0.3-1S138.9,61.3,138.7,61.5z"/>
				<path class="st2" d="M139.6,61.8c-0.3,0.2-0.7,0.7-0.9,1.9c0.1,0.8,0.4,0.4,0.5,0s0.1-0.8,0.5-1.4S139.9,61.6,139.6,61.8z"/>
			</g>
			<path class="st46" d="M113.7,61.1c1.3-2,0.1-3.4,0.8-5.3c1.1-2.9,2.4-0.1,3.7-0.3c0.8-0.2,0.5-0.9,1.4-0.8
				c0.9,0.1,0.4,1.4,1.5,0.1c1.1-1.4,1.2-4,3.5-3.8c1.1,0.1,1.1,1.7,1.8,2.3c1,1,1.6-1.1,2.8-0.3c0.9,0.6,0.1,2.1,0.9,2.5
				c0.9,0.4,2.6-1.2,3.6-1.2c1.8-0.1,1.4,2,1.6,3.5c0.4,2.5,2.3,1,3.7,2.2c1.6,1.5,1.2,6.5-0.9,7.6c-1.9,1-4.2,0.6-6.1,0.5
				c-6-0.3-10.9-2.1-16-5L113.7,61.1L113.7,61.1z"/>
			<path class="st46" d="M100.3,33c1.3-2,0.1-3.4,0.8-5.3c1.1-2.9,2.4-0.1,3.7-0.3c0.8-0.1,0.5-0.9,1.4-0.8c0.9,0.1,0.4,1.4,1.5,0.1
				c1.1-1.4,1.2-4,3.5-3.8c1.1,0.1,1.1,1.7,1.8,2.3c1,1,1.6-1.1,2.8-0.4c0.9,0.6,0.1,2.1,0.9,2.5c0.9,0.4,2.6-1.2,3.6-1.2
				c1.8-0.1,1.4,2,1.6,3.5c0.3,2.5,2.3,1,3.7,2.2c1.6,1.5,1.2,6.5-0.9,7.6c-1.9,1-4.2,0.6-6.1,0.5c-6-0.3-10.9-2.1-16-5L100.3,33
				L100.3,33z"/>
			<path class="st9" d="M102.3,43.9c1.3-2,0.1-3.4,0.8-5.3c1.1-2.9,2.4-0.1,3.7-0.3c0.8-0.2,0.5-0.9,1.4-0.8
				c0.9,0.1,0.4,1.4,1.5,0.1c1.1-1.4,1.2-4,3.5-3.8c1.1,0.1,1.1,1.7,1.8,2.3c1,1,1.6-1.1,2.8-0.3c0.9,0.6,0.1,2.1,0.9,2.5
				c0.9,0.4,2.6-1.2,3.6-1.2c1.8-0.1,1.4,2,1.6,3.5c0.3,2.5,2.3,1,3.7,2.2c1.6,1.5,1.2,6.5-0.9,7.6c-1.9,1-4.2,0.6-6.1,0.5
				c-6-0.3-10.9-2.1-16-5L102.3,43.9L102.3,43.9z"/>
			<g>
				
					<linearGradient id="SVGID_00000165945936245785576060000001575822364310469017_" gradientUnits="userSpaceOnUse" x1="4967.7861" y1="273.0771" x2="5014.9463" y2="273.0771" gradientTransform="matrix(0.9946 0.1035 0.1188 -0.9629 -4834.5225 -162.9071)">
					<stop  offset="0" style="stop-color:#FDFFC7"/>
					<stop  offset="0.13" style="stop-color:#E7F9A4"/>
					<stop  offset="0.33" style="stop-color:#CDF279"/>
					<stop  offset="0.52" style="stop-color:#B8ED57"/>
					<stop  offset="0.69" style="stop-color:#AAE93F"/>
					<stop  offset="0.86" style="stop-color:#A1E631"/>
					<stop  offset="0.99" style="stop-color:#9EE62C"/>
				</linearGradient>
				<path style="fill:url(#SVGID_00000165945936245785576060000001575822364310469017_);stroke:#328E57;" d="M142.2,100.2
					c3.9,0.4,13.1-1.4,16.2-1.9c3.1-0.5,3.7-2.3,5.5-3.6c1.8-1.3,2.2-2.7,1.9-3.8c-0.4-1,0.2-2.2,2.6-3.4c2.3-1.2,2.3-3,0.5-5.4
					s-2.3,0-3.8,0.2c-1.5,0.2-0.1-1.5-1.1-2.7c-1.1-1.2-3,0.8-4.1,1.2s-0.2-1.3-2.8-2.1c-2.6-0.8-4,2.8-5,3.4
					c-1,0.6,0.1-1.2-1.2-1.5s-2.8,2.1-4.2,1.4s-1.9,0-2.5,1.3c-0.5,1.3-2.8,1.4-4.4,1.2c-1.6-0.2-3.1,1.3-5.4,1.3
					c-2.3,0,1.8-2.3,2.3-3.5c0.5-1.2-4.2,1.1-5.3,2.1c-1.1,1-7.1,0.6-7.7,0.9s-1.2,1.7-1.2,1.7C125.3,91,131.8,95.4,142.2,100.2"/>
				<path class="st1" d="M123.8,87.7c2,0.6,6.4-0.8,7.8-0.9c1.3-0.1,4.1,1.8,5.5,0.6c1.4-1.2,4.4-2.1,6.1-1.2s2.3-1,3.5-1.8
					c1.2-0.9,3.2-1.5,3.3-0.5c0.1,1,1.9,2.4,2.9,1.2c1-1.3,1.9-5,3.7-2.9c1.8,2.1,3.2,2,5.2,2.4c2,0.5,2.1,3.2,0.8,4.3
					c-1.2,1.1-1.2,3.8-2.2,4.8c-1.1,1-1.5,3.3-3.3,3.5c-1.8,0.2-14.7,2.9-18.8,1.1"/>
				<path class="st2" d="M130.4,91.7c0.6-0.7,2-0.8,2.8-1.2c1.6-0.8,2.9-1.9,4.2-3c0,0,0.1,0,0.1,0.1c-0.9,1.3-1.8,2.3-3.2,3.1
					c-0.7,0.4-1.4,0.7-2.2,1c-0.2,0.1-0.3,0.1-0.5,0.2c2.2,0.1,4.4,0.1,6.5,0c0.4,0,0.9-0.1,1.3-0.1c1.4-0.8,2.9-1.1,4.3-2.2
					c1.2-1,2.4-2.1,3.4-3.2c0-0.1,0.1,0,0.1,0.1c-1.1,1.5-2.3,3-3.9,4c-0.4,0.3-0.9,0.6-1.4,0.9c4.1-1,7.7-3.1,11.3-5.8
					c0,0,0.1,0,0.1,0.1c-3.2,2.9-7,5.6-11.4,6.4c0.8,0.2,1.6,0.4,2.4,0.5c1.9,0.2,3.7,0,5.6-0.4c0,0,0.1,0.1,0,0.1
					c-1.6,0.6-3.2,1-4.9,0.8c-1.6-0.2-3.4-0.2-4.9-0.7c-2.5,0.3-5.1,0.3-7.6,0.2c0.2,0.1,0.5,0.2,0.7,0.3c1.1,0.6,2.2,1.2,3.3,1.9
					c0.1,0.1,0,0.2-0.1,0.2c-1-0.3-1.9-0.8-2.8-1.3c-0.9-0.5-1.9-0.7-2.8-1.2"/>
				<path class="st2" d="M125.6,87.1C125.6,87.1,125.7,87.1,125.6,87.1c-0.4,1.2-1.3,2-2.3,2.7"/>
				<path class="st3" d="M142.2,100.2c3.9,0.4,13.1-1.4,16.2-1.9c3.1-0.5,3.7-2.3,5.5-3.6c0.1-0.1,0.2-0.2,0.3-0.2
					c-0.3-0.2-0.6-0.4-0.9-0.7c-2.9-2.2-4.7,1.9-6.4,2.9s-3.7,0.2-6.1,0.2c-2.4,0-4.1,1-6.3,0.7c-2.1-0.4-1-1.8-3.1-2
					s-3.4,1.3-3.4,0.1c0-1.2-3.4,0.1-5.4,0.1s0.3-3.3-1.8-3.8s-4.9,2.9-5.6,3.2C129.2,98.2,134.6,100.1,142.2,100.2L142.2,100.2z"/>
				<path class="st2" d="M138,97.7c0,0.4-0.1,1-0.8,1.9c-0.7,0.4-0.6-0.1-0.4-0.4s0.6-0.7,0.8-1.3S138,97.3,138,97.7z"/>
				<path class="st2" d="M140.7,96.8c-0.1,0.6-0.3,1.5-1.7,2.9c-1.2,0.7-0.9-0.2-0.6-0.6s1.1-1,1.5-2S140.7,96.2,140.7,96.8
					L140.7,96.8z"/>
				<path class="st2" d="M142.2,98.2c-0.1,0.3-0.2,0.7-0.9,1.2c-0.5,0.1-0.3-0.2-0.1-0.4s0.5-0.3,0.7-0.7S142.3,98,142.2,98.2
					L142.2,98.2z"/>
				<path class="st2" d="M141.4,97.6c-0.1,0.4-0.2,0.9-1.2,1.7c-0.7,0.3-0.5-0.2-0.3-0.4s0.7-0.5,1-1.2S141.5,97.2,141.4,97.6
					L141.4,97.6z"/>
			</g>
			<g>
				
					<linearGradient id="SVGID_00000103945485912851213430000016822265679698493842_" gradientUnits="userSpaceOnUse" x1="4959.0664" y1="283.0171" x2="5006.2261" y2="283.0171" gradientTransform="matrix(0.9946 0.1035 0.1188 -0.9629 -4834.5225 -162.9071)">
					<stop  offset="0" style="stop-color:#FDFFC7"/>
					<stop  offset="0.13" style="stop-color:#E7F9A4"/>
					<stop  offset="0.33" style="stop-color:#CDF279"/>
					<stop  offset="0.52" style="stop-color:#B8ED57"/>
					<stop  offset="0.69" style="stop-color:#AAE93F"/>
					<stop  offset="0.86" style="stop-color:#A1E631"/>
					<stop  offset="0.99" style="stop-color:#9EE62C"/>
				</linearGradient>
				<path style="fill:url(#SVGID_00000103945485912851213430000016822265679698493842_);stroke:#328E57;" d="M134.8,89.7
					c3.9,0.4,13.1-1.4,16.2-1.9c3.1-0.5,3.7-2.3,5.5-3.6c1.8-1.3,2.2-2.7,1.9-3.8c-0.4-1,0.2-2.2,2.6-3.4c2.3-1.2,2.3-3,0.5-5.4
					s-2.3,0-3.8,0.2c-1.5,0.2-0.1-1.5-1.1-2.7c-1.1-1.2-3,0.8-4.1,1.2s-0.2-1.3-2.8-2.1c-2.6-0.8-4,2.8-5,3.4
					c-1,0.6,0.1-1.2-1.2-1.5s-2.8,2.1-4.2,1.4s-1.9,0-2.5,1.3c-0.5,1.3-2.8,1.4-4.4,1.2c-1.6-0.2-3.1,1.3-5.4,1.3
					c-2.3,0,1.8-2.3,2.3-3.5c0.5-1.2-4.2,1.1-5.3,2.1c-1.1,1-7.1,0.6-7.7,0.9s-1.2,1.7-1.2,1.7C117.8,80.6,124.3,84.9,134.8,89.7"/>
				<path class="st1" d="M116.3,77.2c2,0.6,6.4-0.8,7.8-0.9c1.3-0.1,4.1,1.8,5.5,0.6c1.4-1.2,4.4-2.1,6.1-1.2s2.3-1,3.5-1.8
					c1.2-0.9,3.2-1.5,3.3-0.5c0.1,1,1.9,2.4,2.9,1.2c1-1.3,1.9-5,3.7-2.9c1.8,2.1,3.2,2,5.2,2.4c2,0.5,2.1,3.2,0.8,4.3
					c-1.2,1.1-1.2,3.8-2.2,4.8c-1.1,1-1.5,3.3-3.3,3.5c-1.8,0.2-14.7,2.9-18.8,1.1"/>
				<path class="st2" d="M122.9,81.2c0.6-0.7,2-0.8,2.8-1.2c1.6-0.8,2.9-1.9,4.2-3c0,0,0.1,0,0.1,0.1c-0.9,1.3-1.8,2.3-3.2,3.1
					c-0.7,0.4-1.4,0.7-2.2,1c-0.2,0.1-0.3,0.1-0.5,0.2c2.2,0.1,4.4,0.1,6.5,0c0.4,0,0.9-0.1,1.3-0.1c1.4-0.8,2.9-1.1,4.3-2.2
					c1.2-1,2.4-2.1,3.4-3.2c0-0.1,0.1,0,0.1,0.1c-1.1,1.5-2.3,3-3.9,4c-0.4,0.3-0.9,0.6-1.4,0.9c4.1-1,7.7-3.1,11.3-5.8
					c0,0,0.1,0,0.1,0.1c-3.2,2.9-7,5.6-11.4,6.4c0.8,0.2,1.6,0.4,2.4,0.5c1.9,0.2,3.7,0,5.6-0.4c0,0,0.1,0.1,0,0.1
					c-1.6,0.6-3.2,1-4.9,0.8c-1.6-0.2-3.4-0.2-4.9-0.7c-2.5,0.3-5.1,0.3-7.6,0.2c0.2,0.1,0.5,0.2,0.7,0.3c1.1,0.6,2.2,1.2,3.3,1.9
					c0.1,0.1,0,0.2-0.1,0.2c-1-0.3-1.8-0.8-2.8-1.3c-0.9-0.5-1.9-0.7-2.8-1.2"/>
				<path class="st2" d="M118.2,76.6C118.2,76.6,118.2,76.6,118.2,76.6c-0.4,1.2-1.3,2-2.3,2.7"/>
				<path class="st3" d="M134.8,89.7c3.9,0.4,13.1-1.4,16.2-1.9c3.1-0.5,3.7-2.3,5.5-3.6c0.1-0.1,0.2-0.2,0.3-0.2
					c-0.3-0.2-0.6-0.4-0.9-0.7c-2.9-2.2-4.7,1.9-6.4,2.9s-3.7,0.2-6.1,0.2c-2.4,0-4.1,1-6.3,0.7c-2.1-0.4-1-1.8-3.1-2
					s-3.4,1.3-3.4,0.1c0-1.2-3.4,0.1-5.3,0.1c-1.9,0,0.3-3.3-1.8-3.8s-4.9,2.9-5.6,3.2C121.8,87.8,127.1,89.6,134.8,89.7L134.8,89.7
					z"/>
				<path class="st2" d="M130.6,87.2c0,0.4-0.1,1-0.8,1.9c-0.7,0.4-0.6-0.1-0.4-0.4s0.6-0.7,0.8-1.3S130.6,86.8,130.6,87.2z"/>
				<path class="st2" d="M133.2,86.3c-0.1,0.6-0.3,1.5-1.7,2.9c-1.2,0.7-0.9-0.2-0.6-0.6s1.1-1,1.5-2S133.3,85.7,133.2,86.3
					L133.2,86.3z"/>
				<path class="st2" d="M134.8,87.8c-0.1,0.3-0.2,0.7-0.9,1.2c-0.5,0.1-0.3-0.2-0.1-0.4s0.5-0.3,0.7-0.7S134.8,87.5,134.8,87.8
					L134.8,87.8z"/>
				<path class="st2" d="M134,87.1c-0.1,0.4-0.2,0.9-1.2,1.7c-0.7,0.3-0.5-0.2-0.3-0.4s0.7-0.5,1-1.2S134.1,86.8,134,87.1L134,87.1z
					"/>
			</g>
			<g>
				
					<linearGradient id="SVGID_00000000185771640312073450000015913497649949512579_" gradientUnits="userSpaceOnUse" x1="5143.7998" y1="-1390.3203" x2="5176.4199" y2="-1390.3203" gradientTransform="matrix(0.4755 -0.8797 -0.8445 -0.4775 -3549.261 3912.9468)">
					<stop  offset="0" style="stop-color:#FDFFC7"/>
					<stop  offset="0.13" style="stop-color:#E7F9A4"/>
					<stop  offset="0.33" style="stop-color:#CDF279"/>
					<stop  offset="0.52" style="stop-color:#B8ED57"/>
					<stop  offset="0.69" style="stop-color:#AAE93F"/>
					<stop  offset="0.86" style="stop-color:#A1E631"/>
					<stop  offset="0.99" style="stop-color:#9EE62C"/>
				</linearGradient>
				<path style="fill:url(#SVGID_00000000185771640312073450000015913497649949512579_);stroke:#328E57;" d="M75.2,59.9
					c1.3-2.4,2.6-8.8,3.1-10.9s-0.5-3-0.8-4.5s-1.2-2.2-1.9-2.2s-1.3-0.8-1.5-2.6c-0.2-1.8-1.3-2.2-3.3-1.8s-0.6,1.5-0.9,2.5
					s-1-0.3-2.1,0c-1.1,0.4-0.3,2.1-0.4,3c-0.1,0.8-0.9-0.2-2.1,1.2c-1.2,1.4,0.7,3.3,0.9,4.1c0.1,0.8-0.8-0.4-1.3,0.3
					c-0.5,0.8,0.6,2.3-0.2,3s-0.5,1.2,0.2,1.9s0.2,2.2-0.4,3.1c-0.5,1,0,2.3-0.6,3.8c-0.6,1.5-1-1.8-1.6-2.4c-0.6-0.6-0.4,3,0,4
					c0.3,1-1.5,4.7-1.5,5.2c0,0.5,0.8,1.2,0.8,1.2C64.9,68.3,69.4,65.3,75.2,59.9"/>
				<path class="st1" d="M62.4,68.4c0.9-1.1,1.2-4.3,1.5-5.2c0.3-0.9,2.3-2.2,1.8-3.4c-0.4-1.2-0.2-3.3,0.8-4.2
					c1.1-0.8,0-1.7-0.3-2.7c-0.2-1-0.1-2.5,0.6-2.3c0.7,0.2,2.1-0.6,1.5-1.5c-0.5-1-2.7-2.5-0.9-3.2s2.1-1.5,2.9-2.7s2.6-0.5,3,0.6
					c0.4,1.1,2.2,1.8,2.5,2.7c0.3,1,1.7,1.8,1.3,3C76.9,51,75.2,59.9,73,62"/>
				<path class="st2" d="M66.7,65.2c-0.3-0.6,0-1.5-0.1-2.1c-0.1-1.2-0.4-2.3-0.8-3.5c0,0,0-0.1,0.1,0c0.6,0.9,1,1.8,1.1,2.9
					C67,63,67,63.6,67,64.2c0,0.1,0,0.2,0,0.4c0.6-1.4,1.2-2.8,1.7-4.2c0.1-0.3,0.2-0.6,0.3-0.9c-0.1-1.1,0.1-2.2-0.3-3.3
					c-0.3-1-0.7-2.1-1.2-3c0,0,0-0.1,0.1,0c0.7,1.1,1.3,2.3,1.6,3.6c0.1,0.3,0.1,0.7,0.2,1.1c0.5-2.9,0.1-5.7-0.7-8.7c0,0,0,0,0.1,0
					c1,2.8,1.7,6,1.1,9c0.3-0.5,0.7-1,1-1.4c0.7-1.2,1-2.4,1.2-3.7c0,0,0.1,0,0.1,0c-0.1,1.2-0.2,2.3-0.8,3.4c-0.5,1-1,2.1-1.8,3
					c-0.5,1.7-1.1,3.3-1.8,4.9c0.1-0.1,0.3-0.3,0.4-0.4c0.7-0.5,1.4-1.1,2.1-1.6c0.1,0,0.1,0,0.1,0.1c-0.4,0.6-1,1-1.6,1.4
					c-0.6,0.5-0.9,1-1.5,1.5"/>
				<path class="st2" d="M62.5,67.1C62.5,67.1,62.5,67.1,62.5,67.1c0.7,0.6,1,1.4,1.1,2.2"/>
				<path class="st3" d="M75.2,59.9c1.3-2.4,2.6-8.8,3.1-10.9s-0.5-3-0.8-4.5c0-0.1,0-0.2-0.1-0.3c-0.2,0.1-0.4,0.3-0.7,0.4
					c-2.2,1.3,0,3.5,0.2,4.8c0.2,1.3-0.8,2.4-1.5,3.9c-0.7,1.5-0.4,2.9-1.2,4.2c-0.8,1.3-1.4,0.2-2.1,1.4s0,2.5-0.8,2.2
					s-0.8,2.2-1.3,3.5s-2.1-1-2.9,0.1c-0.8,1.2,0.6,3.9,0.6,4.4C70.6,67.7,73.2,64.8,75.2,59.9L75.2,59.9z"/>
				<path class="st2" d="M72.5,62c0.2,0.1,0.6,0.3,1,1c0.1,0.5-0.2,0.3-0.3,0.1s-0.3-0.5-0.6-0.8S72.3,61.9,72.5,62z"/>
				<path class="st2" d="M72.7,60c0.3,0.2,0.9,0.6,1.4,1.9c0.1,0.9-0.3,0.6-0.5,0.2s-0.4-0.9-0.9-1.5S72.3,59.8,72.7,60L72.7,60z"/>
				<path class="st2" d="M74,59.4c0.2,0.1,0.4,0.3,0.5,0.9c0,0.3-0.2,0.2-0.3,0s-0.1-0.4-0.3-0.7S73.9,59.3,74,59.4L74,59.4z"/>
				<path class="st2" d="M73.4,59.8c0.2,0.1,0.5,0.4,0.8,1.2c0,0.5-0.3,0.3-0.4,0.1s-0.2-0.6-0.5-1S73.2,59.6,73.4,59.8L73.4,59.8z"
					/>
			</g>
			<g>
				
					<linearGradient id="SVGID_00000119819839264994395930000000200365883354205115_" gradientUnits="userSpaceOnUse" x1="4165.3096" y1="748.6655" x2="4197.9297" y2="748.6655" gradientTransform="matrix(-0.329 -0.9443 0.9099 -0.3366 766.5991 4259.5859)">
					<stop  offset="0" style="stop-color:#FDFFC7"/>
					<stop  offset="0.13" style="stop-color:#E7F9A4"/>
					<stop  offset="0.33" style="stop-color:#CDF279"/>
					<stop  offset="0.52" style="stop-color:#B8ED57"/>
					<stop  offset="0.69" style="stop-color:#AAE93F"/>
					<stop  offset="0.86" style="stop-color:#A1E631"/>
					<stop  offset="0.99" style="stop-color:#9EE62C"/>
				</linearGradient>
				<path style="fill:url(#SVGID_00000119819839264994395930000000200365883354205115_);stroke:#328E57;" d="M71.2,80.8
					c-0.9-2.6-1.2-9.1-1.3-11.2c-0.1-2.2,1-2.8,1.6-4.3c0.6-1.5,1.5-2,2.2-1.9s1.4-0.5,1.9-2.3c0.5-1.8,1.6-2,3.6-1.2
					c1.9,0.8,0.4,1.5,0.5,2.6c0.1,1,1-0.2,2,0.3s-0.1,2.1-0.1,3c-0.1,0.8,0.9-0.1,1.8,1.6s-1.2,3.1-1.5,3.9
					c-0.3,0.8,0.8-0.3,1.2,0.5s-0.9,2.2-0.3,3c0.7,0.8,0.3,1.3-0.5,1.9c-0.8,0.6-0.5,2.1-0.1,3.2c0.4,1-0.4,2.3,0,3.8
					c0.4,1.6,1.2-1.6,2-2.1c0.7-0.5-0.1,3-0.6,3.9s0.7,4.9,0.6,5.3c-0.1,0.5-1,1.1-1,1.1C80,90.8,76,87.1,71.2,80.8"/>
				<path class="st1" d="M82.5,91.2c-0.7-1.2-0.5-4.4-0.6-5.3s-1.9-2.5-1.3-3.6c0.6-1.1,0.7-3.3-0.2-4.3s0.3-1.7,0.7-2.6
					s0.5-2.4-0.2-2.3c-0.7,0.1-1.9-0.9-1.3-1.8c0.7-0.9,3.1-2.1,1.4-3s-1.8-1.8-2.5-3.1s-2.5-0.9-3,0.1c-0.6,1-2.4,1.4-2.9,2.3
					c-0.5,0.9-2,1.5-1.8,2.8s0.4,10.3,2.2,12.8"/>
				<path class="st2" d="M78.8,87.4c0.4-0.5,0.2-1.5,0.4-2.1c0.3-1.2,0.8-2.2,1.4-3.3c0,0,0-0.1-0.1,0c-0.7,0.8-1.2,1.6-1.5,2.7
					c-0.2,0.6-0.2,1.1-0.3,1.7c0,0.1,0,0.2-0.1,0.4c-0.4-1.4-0.8-2.9-1-4.4c-0.1-0.3-0.1-0.6-0.1-0.9c0.3-1.1,0.3-2.2,0.8-3.2
					c0.5-1,1-1.9,1.6-2.8c0,0,0-0.1-0.1,0c-0.9,1-1.6,2-2.1,3.3c-0.1,0.3-0.3,0.7-0.4,1.1c0-2.9,0.9-5.7,2.1-8.5c0,0,0-0.1-0.1,0
					c-1.4,2.6-2.6,5.6-2.5,8.7c-0.2-0.5-0.5-1.1-0.7-1.6c-0.5-1.2-0.6-2.5-0.6-3.8c0,0-0.1,0-0.1,0c-0.1,1.1-0.2,2.3,0.2,3.4
					c0.4,1,0.7,2.3,1.3,3.2c0.2,1.7,0.6,3.5,1,5.2c-0.1-0.2-0.2-0.3-0.3-0.4c-0.6-0.6-1.2-1.3-1.8-1.9c-0.1-0.1-0.1,0-0.1,0.1
					c0.3,0.7,0.8,1.1,1.3,1.7s0.8,1.2,1.2,1.7"/>
				<path class="st2" d="M82.6,89.9C82.6,89.9,82.6,89.9,82.6,89.9c-0.7,0.5-1.1,1.2-1.4,2"/>
				<path class="st3" d="M71.2,80.8c-0.9-2.6-1.2-9.1-1.3-11.2c-0.1-2.2,1-2.8,1.6-4.3c0-0.1,0.1-0.2,0.1-0.2
					c0.2,0.2,0.4,0.3,0.6,0.5c1.9,1.6-0.6,3.5-0.9,4.8s0.4,2.5,0.8,4.1c0.4,1.6,0,2.9,0.6,4.3c0.6,1.4,1.4,0.4,1.8,1.7
					s-0.4,2.5,0.5,2.3s0.5,2.3,0.8,3.6c0.3,1.3,2.2-0.7,2.8,0.6c0.6,1.3-1.2,3.8-1.3,4.3C74.5,89.2,72.4,85.9,71.2,80.8L71.2,80.8z"
					/>
				<path class="st2" d="M73.5,83.2c-0.2,0.1-0.6,0.2-1.2,0.8c-0.2,0.5,0.2,0.4,0.3,0.2s0.3-0.5,0.8-0.7S73.8,83.2,73.5,83.2z"/>
				<path class="st2" d="M73.7,81.3c-0.4,0.1-1,0.4-1.7,1.6c-0.3,0.9,0.2,0.6,0.5,0.3s0.5-0.9,1.1-1.3S74.1,81.2,73.7,81.3
					L73.7,81.3z"/>
				<path class="st2" d="M72.5,80.5c-0.2,0.1-0.4,0.2-0.6,0.8c0,0.3,0.2,0.2,0.3,0s0.1-0.4,0.4-0.6S72.7,80.4,72.5,80.5L72.5,80.5z"
					/>
				<path class="st2" d="M73,80.9c-0.2,0.1-0.6,0.3-1,1.1c-0.1,0.6,0.2,0.3,0.3,0.1s0.2-0.6,0.6-0.9S73.3,80.8,73,80.9z"/>
			</g>
			<g>
				
					<linearGradient id="SVGID_00000072974451037434034590000000505637321379718806_" gradientUnits="userSpaceOnUse" x1="5293.3403" y1="-339.4651" x2="5331.0703" y2="-339.4651" gradientTransform="matrix(0.9334 -0.3589 -0.3308 -0.912 -4915.0483 1654.729)">
					<stop  offset="0" style="stop-color:#FDFFC7"/>
					<stop  offset="0.13" style="stop-color:#E7F9A4"/>
					<stop  offset="0.33" style="stop-color:#CDF279"/>
					<stop  offset="0.52" style="stop-color:#B8ED57"/>
					<stop  offset="0.69" style="stop-color:#AAE93F"/>
					<stop  offset="0.86" style="stop-color:#A1E631"/>
					<stop  offset="0.99" style="stop-color:#9EE62C"/>
				</linearGradient>
				<path style="fill:url(#SVGID_00000072974451037434034590000000505637321379718806_);stroke:#328E57;" d="M139.9,74.7
					c2.9-1.2,8.7-6.1,10.7-7.7c2-1.6,1.7-3.2,2.6-4.9s0.6-2.9,0-3.6c-0.6-0.6-0.6-1.8,0.6-3.6c1.2-1.8,0.5-3.1-1.6-4.3
					c-2.1-1.2-1.6,0.9-2.6,1.6s-0.6-1.1-1.8-1.6c-1.2-0.5-1.8,1.8-2.5,2.5c-0.7,0.7-0.6-0.9-2.7-0.5s-1.8,3.6-2.3,4.5
					c-0.5,0.9-0.3-1-1.4-0.7c-1,0.3-1.2,2.6-2.4,2.7c-1.2,0-1.4,0.8-1.2,2c0.1,1.2-1.5,2.2-2.6,2.6s-1.7,2.2-3.3,3
					c-1.6,0.9,0.5-2.4,0.4-3.5c-0.1-1.1-2.6,2.5-3,3.7c-0.4,1.2-4.8,3.2-5.1,3.7s-0.2,1.8-0.2,1.8C124.7,74.3,130.9,75.1,139.9,74.7
					"/>
				<path class="st1" d="M122.4,72.3c1.6-0.3,4.2-3.1,5.1-3.7c0.9-0.6,3.6-0.2,4.1-1.7c0.5-1.4,2.3-3.3,3.9-3.2
					c1.5,0,1.3-1.6,1.8-2.8s1.7-2.4,2.2-1.7s2.2,1.1,2.5-0.2c0.2-1.3-0.4-4.5,1.6-3.7s2.9,0.3,4.5-0.1c1.6-0.4,2.6,1.7,2.1,3
					c-0.5,1.3,0.6,3.4,0.1,4.5c-0.4,1.2,0.1,3.1-1.1,3.9c-1.2,0.8-9.3,7.9-12.8,8.1"/>
				<path class="st2" d="M128.6,72.8c0.2-0.8,1.1-1.4,1.5-2c0.8-1.2,1.4-2.5,1.9-3.9c0-0.1,0.1,0,0.1,0c-0.2,1.3-0.5,2.4-1.2,3.6
					c-0.4,0.6-0.8,1.1-1.2,1.6c-0.1,0.1-0.2,0.2-0.3,0.4c1.6-0.8,3.1-1.6,4.6-2.5c0.3-0.2,0.6-0.4,0.9-0.6c0.7-1.1,1.7-2,2.2-3.3
					c0.5-1.2,0.9-2.5,1.3-3.8c0,0,0.1,0,0.1,0c-0.2,1.6-0.6,3.1-1.3,4.6c-0.2,0.4-0.4,0.8-0.6,1.2c2.6-2.3,4.3-5.3,5.9-8.7
					c0,0,0.1,0,0.1,0c-1.2,3.5-3,6.9-5.7,9.3c0.6-0.2,1.3-0.3,1.9-0.6c1.4-0.6,2.6-1.4,3.8-2.5c0,0,0.1,0,0,0c-0.9,1-1.9,2-3.2,2.5
					c-1.2,0.5-2.5,1.2-3.7,1.3c-1.7,1.2-3.4,2.2-5.3,3.1c0.2,0,0.4,0,0.6,0c1,0.1,2,0.1,3,0.2c0.1,0,0.1,0.1,0,0.2
					c-0.8,0.2-1.6,0.1-2.4,0.1c-0.8,0-1.6,0.2-2.4,0.2"/>
				<path class="st2" d="M123.5,71.2C123.5,71.2,123.6,71.2,123.5,71.2c0.1,1.1-0.2,2-0.7,2.9"/>
				<path class="st3" d="M139.9,74.7c2.9-1.2,8.7-6.1,10.7-7.7c2-1.6,1.7-3.2,2.6-4.9c0.1-0.1,0.1-0.2,0.1-0.3
					c-0.3,0-0.6-0.1-0.9-0.2c-2.8-0.5-2.6,3.3-3.5,4.7c-0.9,1.4-2.5,1.6-4.2,2.5s-2.5,2.4-4.2,2.9c-1.6,0.6-1.4-1-2.9-0.3
					c-1.5,0.7-1.9,2.3-2.4,1.4c-0.4-0.9-2.4,1.4-3.7,2.2c-1.4,0.8-1-2.6-2.6-2.2s-2.4,4.1-2.8,4.6C130.1,78.3,134.5,77.6,139.9,74.7
					L139.9,74.7z"/>
				<path class="st2" d="M136.1,74.4c0.1,0.3,0.3,0.8,0.1,1.8c-0.3,0.6-0.4,0.2-0.4-0.2s0.2-0.7,0.1-1.3S135.9,74.1,136.1,74.4z"/>
				<path class="st2" d="M137.6,72.7c0.2,0.5,0.4,1.2-0.2,2.9c-0.6,1-0.7,0.3-0.6-0.2s0.4-1.2,0.4-2.1S137.4,72.3,137.6,72.7z"/>
				<path class="st2" d="M139.2,73.2c0.1,0.2,0.1,0.6-0.2,1.2c-0.3,0.3-0.3,0-0.2-0.2s0.2-0.4,0.2-0.8S139.2,73,139.2,73.2z"/>
				<path class="st2" d="M138.4,73.1c0.1,0.3,0.2,0.8-0.2,1.8c-0.4,0.5-0.4,0.1-0.4-0.2s0.3-0.7,0.3-1.3S138.4,72.8,138.4,73.1z"/>
			</g>
			<g>
				
					<linearGradient id="SVGID_00000160165087558676460450000009507956870433954471_" gradientUnits="userSpaceOnUse" x1="4467.4243" y1="-2050.5005" x2="4505.144" y2="-2050.5005" gradientTransform="matrix(-0.1968 -0.9804 -0.9547 0.1728 -976.3384 4759.1426)">
					<stop  offset="0" style="stop-color:#FDFFC7"/>
					<stop  offset="0.13" style="stop-color:#E7F9A4"/>
					<stop  offset="0.33" style="stop-color:#CDF279"/>
					<stop  offset="0.52" style="stop-color:#B8ED57"/>
					<stop  offset="0.69" style="stop-color:#AAE93F"/>
					<stop  offset="0.86" style="stop-color:#A1E631"/>
					<stop  offset="0.99" style="stop-color:#9EE62C"/>
				</linearGradient>
				<path style="fill:url(#SVGID_00000160165087558676460450000009507956870433954471_);stroke:#328E57;" d="M112.3,25.7
					c-0.7-3.1-4.6-9.6-5.8-11.9s-2.8-2.2-4.4-3.4c-1.5-1.1-2.8-1.1-3.5-0.6c-0.7,0.5-1.8,0.3-3.5-1.2c-1.6-1.5-3-1.1-4.5,0.8
					s0.6,1.8,1.2,2.8c0.6,1.1-1.2,0.4-1.9,1.5s1.4,2.1,2,2.9c0.6,0.8-1,0.5-0.9,2.6s3.3,2.4,4.1,3c0.8,0.6-1,0.2-0.9,1.2
					c0.1,1,2.4,1.6,2.2,2.8c-0.2,1.2,0.5,1.5,1.7,1.6c1.2,0.1,1.9,1.8,2.2,3c0.3,1.2,1.8,2,2.4,3.8s-2.3-0.9-3.4-1s2,3,3.1,3.6
					s2.3,5.2,2.7,5.7c0.4,0.4,1.7,0.5,1.7,0.5C109.3,40.6,111.2,34.6,112.3,25.7"/>
				<path class="st1" d="M107.1,42.5c0-1.7-2.3-4.7-2.7-5.7s0.4-3.6-0.9-4.3c-1.3-0.8-2.9-2.8-2.6-4.3c0.3-1.5-1.4-1.5-2.4-2.2
					s-2.1-2.1-1.3-2.4s1.5-2,0.2-2.5c-1.3-0.5-4.6-0.3-3.3-2.2c1.2-1.9,0.8-2.9,0.6-4.5s2.1-2.3,3.3-1.6s3.4,0,4.5,0.6
					c1.1,0.6,3.1,0.4,3.7,1.7c0.6,1.4,6.2,10.5,5.8,14"/>
				<path class="st2" d="M108.6,36.5c-0.7-0.3-1.2-1.3-1.7-1.8c-1.1-1-2.3-1.8-3.6-2.5c0,0,0-0.1,0-0.1c1.3,0.4,2.3,0.9,3.3,1.8
					c0.5,0.5,0.9,0.9,1.4,1.5c0.1,0.1,0.2,0.2,0.3,0.3c-0.5-1.7-1-3.3-1.7-5c-0.1-0.3-0.3-0.7-0.4-1c-1-0.9-1.7-2-2.9-2.8
					c-1.1-0.7-2.3-1.3-3.5-1.9c-0.1,0,0-0.1,0-0.1c1.5,0.5,3,1.1,4.3,2c0.3,0.3,0.7,0.5,1.1,0.8c-1.9-2.9-4.5-5.1-7.6-7.2
					c0,0,0-0.1,0,0c3.2,1.8,6.3,4.1,8.2,7.2c-0.1-0.7-0.1-1.3-0.2-2c-0.3-1.5-0.9-2.8-1.8-4.1c0,0,0-0.1,0.1,0
					c0.9,1.1,1.7,2.2,2,3.5c0.3,1.2,0.8,2.6,0.7,3.9c0.9,1.9,1.6,3.8,2.2,5.7c0-0.2,0.1-0.4,0.1-0.6c0.2-1,0.4-2,0.7-2.9
					c0-0.1,0.1,0,0.1,0c0.1,0.8-0.2,1.6-0.3,2.4c-0.2,0.8-0.1,1.6-0.2,2.4"/>
				<path class="st2" d="M106.1,41.2C106.1,41.2,106.1,41.2,106.1,41.2c1.1,0,2,0.5,2.8,1.2"/>
				<path class="st3" d="M112.3,25.7c-0.7-3.1-4.6-9.6-5.8-11.9s-2.8-2.2-4.4-3.4c-0.1-0.1-0.2-0.1-0.3-0.2
					c-0.1,0.3-0.2,0.6-0.3,0.9c-1,2.7,2.8,3.1,4,4.2s1.1,2.7,1.8,4.6s1.9,2.9,2.2,4.6s-1.2,1.2-0.8,2.8c0.4,1.6,2,2.3,1,2.6
					s1,2.6,1.5,4c0.5,1.5-2.8,0.5-2.6,2.2s3.7,3.1,4.1,3.5C114.2,35.9,114.2,31.4,112.3,25.7L112.3,25.7z"/>
				<path class="st2" d="M111.4,29.4c0.3-0.1,0.8-0.2,1.8,0.2c0.5,0.4,0.1,0.5-0.2,0.4s-0.7-0.3-1.3-0.3S111.1,29.5,111.4,29.4z"/>
				<path class="st2" d="M109.9,27.6c0.5-0.1,1.3-0.1,2.8,0.6c0.8,0.8,0.1,0.8-0.3,0.5s-1.1-0.6-2-0.7S109.5,27.7,109.9,27.6
					L109.9,27.6z"/>
				<path class="st2" d="M110.7,26.1c0.2,0,0.6,0,1.2,0.4c0.2,0.3-0.1,0.3-0.3,0.2s-0.4-0.3-0.8-0.4S110.5,26.1,110.7,26.1z"/>
				<path class="st2" d="M110.4,26.8c0.3,0,0.8,0,1.7,0.5c0.4,0.5,0,0.5-0.3,0.3s-0.6-0.4-1.2-0.5S110.1,26.8,110.4,26.8L110.4,26.8
					z"/>
			</g>
			<g>
				
					<linearGradient id="SVGID_00000150790918635990452650000004497864320006189714_" gradientUnits="userSpaceOnUse" x1="115.2009" y1="-1480.7633" x2="155.8763" y2="-1480.7633" gradientTransform="matrix(0.3746 -0.9272 -0.9272 -0.3746 -1310.1036 -399.1016)">
					<stop  offset="0" style="stop-color:#FDFFC7"/>
					<stop  offset="0.99" style="stop-color:#9EE62C"/>
				</linearGradient>
				<path style="fill:url(#SVGID_00000150790918635990452650000004497864320006189714_);" d="M114.2,8.6
					c-0.4-0.1-15.9,33.7-1.1,43.1c0,0-7.3-12.8,6.3-39.6C119.2,12.6,119,9.2,114.2,8.6L114.2,8.6z"/>
				
					<ellipse transform="matrix(0.5781 -0.8159 0.8159 0.5781 40.8235 99.5844)" class="st5" cx="116.7" cy="10.3" rx="1.8" ry="3.2"/>
				
					<linearGradient id="SVGID_00000043458523963949596670000004761090863131778955_" gradientUnits="userSpaceOnUse" x1="240.4342" y1="-1255.8678" x2="243.7932" y2="-1255.8678" gradientTransform="matrix(0.5704 -0.8213 -0.8213 -0.5704 -1052.0123 -506.5253)">
					<stop  offset="0" style="stop-color:#000000"/>
					<stop  offset="0.99" style="stop-color:#000000"/>
				</linearGradient>
				<path style="opacity:0.2;fill:url(#SVGID_00000043458523963949596670000004761090863131778955_);" d="M115.1,11.1
					c-0.2,0.2,3.2,2.8,4.2,1c0.9-1.6-2.2-3.4-2.2-3.4C117.5,9.2,118.9,12.3,115.1,11.1z"/>
			</g>
			<g>
				
					<linearGradient id="SVGID_00000157296228226463167990000007965607359222716853_" gradientUnits="userSpaceOnUse" x1="-2202.7305" y1="383.3664" x2="-2162.0508" y2="383.3664" gradientTransform="matrix(-0.9787 -0.2052 0.2052 -0.9787 -2103.6638 18.0531)">
					<stop  offset="0" style="stop-color:#FDFFC7"/>
					<stop  offset="0.99" style="stop-color:#9EE62C"/>
				</linearGradient>
				<path style="fill:url(#SVGID_00000157296228226463167990000007965607359222716853_);" d="M92.9,79.2c0.2-0.4,36.8,5.5,36.4,23.1
					c0,0-6.6-13.2-36.4-16.8C93.4,85.7,90.7,83.5,92.9,79.2L92.9,79.2z"/>
				
					<ellipse transform="matrix(0.9997 -2.565353e-02 2.565353e-02 0.9997 -2.08 2.4095)" class="st5" cx="92.9" cy="82.3" rx="1.8" ry="3.2"/>
				
					<linearGradient id="SVGID_00000145744540170522539570000012755448383643578498_" gradientUnits="userSpaceOnUse" x1="-2432.4426" y1="49.3213" x2="-2429.0859" y2="49.3213" gradientTransform="matrix(-0.9999 1.640540e-02 -1.640540e-02 -0.9999 -2336.6189 172.5687)">
					<stop  offset="0" style="stop-color:#000000"/>
					<stop  offset="0.99" style="stop-color:#000000"/>
				</linearGradient>
				<path style="opacity:0.2;fill:url(#SVGID_00000145744540170522539570000012755448383643578498_);" d="M94.5,81.3
					c0.3,0,0.6,4.2-1.5,4.1c-1.8-0.2-1.7-3.7-1.7-3.7C91.5,82.2,93.3,85.2,94.5,81.3L94.5,81.3z"/>
			</g>
			<g>
				<path class="st46" d="M114.6,81.9l10.9,4.3l0.3-2.8l-8.5-3.7C117.4,79.8,114.9,81,114.6,81.9z"/>
				
					<linearGradient id="SVGID_00000097498065659829450910000013744810516035174575_" gradientUnits="userSpaceOnUse" x1="-154.2222" y1="406.4538" x2="-135.0465" y2="406.4538" gradientTransform="matrix(0.964 0.2659 0.2659 -0.964 157.1894 517.0723)">
					<stop  offset="0" style="stop-color:#FDFFC7"/>
					<stop  offset="0.99" style="stop-color:#9EE62C"/>
				</linearGradient>
				<path style="fill:url(#SVGID_00000097498065659829450910000013744810516035174575_);" d="M134,85.5c-0.1-0.1-12.1-4.2-15.7-5.4
					c-0.4-0.1-0.8,0.2-0.7,0.7l2,7.1l12.7,5.5c0.5,0.2,1,0,1.3-0.4C134.6,91.4,136.1,88.2,134,85.5L134,85.5z"/>
				
					<linearGradient id="SVGID_00000168087615361396451070000003953463901649722270_" gradientUnits="userSpaceOnUse" x1="-309.7363" y1="468.3778" x2="-291.2263" y2="468.3778" gradientTransform="matrix(0.8474 0.3581 0.3893 -0.9211 196.9069 627.3317)">
					<stop  offset="0" style="stop-color:#000000"/>
					<stop  offset="0.99" style="stop-color:#000000"/>
				</linearGradient>
				
					<path style="opacity:9.000000e-02;fill:url(#SVGID_00000168087615361396451070000003953463901649722270_);enable-background:new    ;" d="
					M118.9,85.1l14.3,6.1c0.4,0.2,0.7,0.3,0.8,0.5c0.3,0.3,0.6,0.9-0.4,0.9c-0.2,0-0.5-0.1-0.8-0.2l-13.9-5.8
					c-0.1,0-0.1-0.1-0.1-0.1C118.8,86.4,119.3,85.8,118.9,85.1L118.9,85.1z"/>
				<path class="st5" d="M114.6,81.9l-0.6-0.7c0,0,7-6.2,5.7,6.6l-1.3-0.4C118.4,87.4,119.6,78.1,114.6,81.9z"/>
				<path class="st16" d="M120.9,82.6c-0.3,1.2,12.5,4.5,12.5,4.5S121.1,81.4,120.9,82.6z"/>
			</g>
			<g>
				<path class="st46" d="M128.6,51.1l10.9,4.3l0.3-2.8l-8.5-3.7C131.3,49,128.8,50.1,128.6,51.1L128.6,51.1z"/>
				
					<linearGradient id="SVGID_00000093899748191768683950000014056564525096899984_" gradientUnits="userSpaceOnUse" x1="-148.9429" y1="439.8912" x2="-129.7673" y2="439.8912" gradientTransform="matrix(0.964 0.2659 0.2659 -0.964 157.1894 517.0723)">
					<stop  offset="0" style="stop-color:#FDFFC7"/>
					<stop  offset="0.99" style="stop-color:#9EE62C"/>
				</linearGradient>
				<path style="fill:url(#SVGID_00000093899748191768683950000014056564525096899984_);" d="M148,54.6c-0.1-0.1-12.1-4.2-15.7-5.4
					c-0.4-0.1-0.8,0.2-0.7,0.7l2,7.1l12.7,5.5c0.5,0.2,1,0,1.3-0.4C148.5,60.6,150.1,57.4,148,54.6L148,54.6z"/>
				
					<linearGradient id="SVGID_00000039849442572567413820000011992772609072439722_" gradientUnits="userSpaceOnUse" x1="-308.7863" y1="502.2234" x2="-290.2763" y2="502.2234" gradientTransform="matrix(0.8474 0.3581 0.3893 -0.9211 196.9069 627.3317)">
					<stop  offset="0" style="stop-color:#000000"/>
					<stop  offset="0.99" style="stop-color:#000000"/>
				</linearGradient>
				
					<path style="opacity:9.000000e-02;fill:url(#SVGID_00000039849442572567413820000011992772609072439722_);enable-background:new    ;" d="
					M132.9,54.3l14.3,6.1c0.4,0.2,0.7,0.3,0.8,0.5c0.3,0.3,0.6,0.9-0.4,0.9c-0.2,0-0.5-0.1-0.8-0.2l-13.9-5.8
					c-0.1,0-0.1-0.1-0.1-0.1C132.8,55.6,133.2,54.9,132.9,54.3L132.9,54.3z"/>
				<path class="st5" d="M128.6,51.1l-0.6-0.7c0,0,7-6.2,5.7,6.5l-1.3-0.4C132.4,56.6,133.6,47.2,128.6,51.1z"/>
				<path class="st16" d="M134.9,51.8c-0.3,1.2,12.5,4.5,12.5,4.5S135.1,50.5,134.9,51.8z"/>
			</g>
			<g>
				<path class="st46" d="M65.6,68.3l4.9-10.7l-2.8-0.4l-4.1,8.3C63.6,65.4,64.6,68,65.6,68.3L65.6,68.3z"/>
				
					<linearGradient id="SVGID_00000126286985072631019020000002977249213905701814_" gradientUnits="userSpaceOnUse" x1="33.6105" y1="-1605.0874" x2="52.7915" y2="-1605.0874" gradientTransform="matrix(0.3128 -0.9498 -0.9498 -0.3128 -1467.0219 -403.8701)">
					<stop  offset="0" style="stop-color:#FDFFC7"/>
					<stop  offset="0.99" style="stop-color:#9EE62C"/>
				</linearGradient>
				<path style="fill:url(#SVGID_00000126286985072631019020000002977249213905701814_);" d="M70.1,49c-0.1,0.1-4.8,11.9-6.2,15.4
					c-0.2,0.4,0.2,0.8,0.6,0.7l7.2-1.7L77.8,51c0.2-0.5,0.1-1-0.3-1.3C76.1,48.8,72.9,47.1,70.1,49z"/>
				
					<linearGradient id="SVGID_00000125560593274892950230000001578568621310005386_" gradientUnits="userSpaceOnUse" x1="184.5872" y1="-1501.4901" x2="203.0972" y2="-1501.4901" gradientTransform="matrix(0.3993 -0.8289 -0.9009 -0.434 -1354.9185 -438.1262)">
					<stop  offset="0" style="stop-color:#000000"/>
					<stop  offset="0.99" style="stop-color:#000000"/>
				</linearGradient>
				
					<path style="opacity:9.000000e-02;fill:url(#SVGID_00000125560593274892950230000001578568621310005386_);enable-background:new    ;" d="
					M69,64.1l6.8-14c0.2-0.3,0.4-0.7,0.5-0.8c0.3-0.3,0.9-0.5,0.9,0.4c0,0.2-0.1,0.5-0.3,0.8l-6.4,13.6c0,0.1-0.1,0.1-0.1,0.1
					C70.3,64.2,69.7,63.8,69,64.1L69,64.1z"/>
				<path class="st5" d="M65.6,68.3l-0.7,0.6c0,0-5.8-7.3,6.8-5.3l-0.4,1.3C71.3,64.8,62,63.1,65.6,68.3L65.6,68.3z"/>
				<path class="st16" d="M66.6,62c1.2,0.3,5.1-12.3,5.1-12.3S65.3,61.7,66.6,62z"/>
			</g>
			<g>
				
					<linearGradient id="SVGID_00000147205825093743422400000013467651150978384546_" gradientUnits="userSpaceOnUse" x1="-811.5848" y1="-2717.1526" x2="-790.6076" y2="-2717.1526" gradientTransform="matrix(-0.8177 -0.5756 -0.5756 0.8177 -2109.946 1820.2869)">
					<stop  offset="0" style="stop-color:#FDFFC7"/>
					<stop  offset="0.99" style="stop-color:#9EE62C"/>
				</linearGradient>
				<path style="fill:url(#SVGID_00000147205825093743422400000013467651150978384546_);" d="M115.4,68.3L100,56.9
					c-0.4-0.3-0.6-0.8-0.5-1.2c0.2-1.1,0.8-3.2,2.9-4.1c0.4-0.2,0.9-0.1,1.2,0.1L119.1,62c0.1,0,0.1,0.2,0,0.2
					C118.6,62.9,116.2,66,115.4,68.3z"/>
				
					<linearGradient id="SVGID_00000105393174140165264940000016456645758953726368_" gradientUnits="userSpaceOnUse" x1="-811.5548" y1="-2719.0857" x2="-791.528" y2="-2719.0857" gradientTransform="matrix(-0.8177 -0.5756 -0.5756 0.8177 -2109.946 1820.2869)">
					<stop  offset="0" style="stop-color:#000000"/>
					<stop  offset="0.99" style="stop-color:#000000"/>
				</linearGradient>
				<path style="opacity:0.2;fill:url(#SVGID_00000105393174140165264940000016456645758953726368_);" d="M118.2,64.4l-14.9-10.6
					c-0.4-0.3-0.7-0.6-0.8-0.8c-0.2-0.5-0.5-1.2,0.6-0.9c0.2,0,0.6,0.2,0.9,0.5l14.6,10.2c0.1,0,0.1,0.1,0.1,0.1
					C118.5,63,117.9,63.6,118.2,64.4L118.2,64.4z"/>
				
					<ellipse transform="matrix(0.5189 -0.8548 0.8548 0.5189 0.484 131.8116)" class="st5" cx="117.3" cy="65.5" rx="3.7" ry="1.4"/>
				
					<linearGradient id="SVGID_00000100348730962053492730000005316605232515856827_" gradientUnits="userSpaceOnUse" x1="-813.0148" y1="-2718.3372" x2="-810.1148" y2="-2718.3372" gradientTransform="matrix(-0.8177 -0.5756 -0.5756 0.8177 -2109.946 1820.2869)">
					<stop  offset="0" style="stop-color:#000000"/>
					<stop  offset="0.99" style="stop-color:#000000"/>
				</linearGradient>
				<path style="opacity:0.2;fill:url(#SVGID_00000100348730962053492730000005316605232515856827_);" d="M118.3,66.8
					c0,0,1.5-5.3-2.6-1.4c0,0,2.5-3.8,3.6-3s0,0,0,0S120.2,63.6,118.3,66.8z"/>
				<path class="st16" d="M113.7,65.3c0.7-1.2-11.1-9.2-11.1-9.2S112.9,66.4,113.7,65.3z"/>
			</g>
			<g>
				
					<linearGradient id="SVGID_00000130611639645812325870000005569382844236627391_" gradientUnits="userSpaceOnUse" x1="-825.6048" y1="-2683.7322" x2="-804.6276" y2="-2683.7322" gradientTransform="matrix(-0.8177 -0.5756 -0.5756 0.8177 -2109.946 1820.2869)">
					<stop  offset="0" style="stop-color:#FDFFC7"/>
					<stop  offset="0.99" style="stop-color:#9EE62C"/>
				</linearGradient>
				<path style="fill:url(#SVGID_00000130611639645812325870000005569382844236627391_);" d="M107.7,103.8L92.2,92.3
					c-0.4-0.3-0.6-0.8-0.5-1.2c0.2-1.1,0.8-3.2,2.9-4.1c0.4-0.2,0.9-0.1,1.2,0.1l15.5,10.3c0.1,0.1,0.1,0.2,0,0.2
					C110.8,98.3,108.4,101.4,107.7,103.8z"/>
				
					<linearGradient id="SVGID_00000110457788098911091030000016535960083193272456_" gradientUnits="userSpaceOnUse" x1="-825.5748" y1="-2685.657" x2="-805.548" y2="-2685.657" gradientTransform="matrix(-0.8177 -0.5756 -0.5756 0.8177 -2109.946 1820.2869)">
					<stop  offset="0" style="stop-color:#000000"/>
					<stop  offset="0.99" style="stop-color:#000000"/>
				</linearGradient>
				<path style="opacity:0.2;fill:url(#SVGID_00000110457788098911091030000016535960083193272456_);" d="M110.4,99.8L95.4,89.2
					c-0.4-0.3-0.7-0.6-0.8-0.8c-0.2-0.4-0.5-1.2,0.6-0.9c0.2,0.1,0.6,0.2,0.9,0.5l14.6,10.2c0.1,0.1,0.1,0.1,0.1,0.1
					C110.7,98.4,110.1,99,110.4,99.8L110.4,99.8z"/>
				
					<ellipse transform="matrix(0.5189 -0.8548 0.8548 0.5189 -33.5083 142.1946)" class="st5" cx="109.6" cy="100.9" rx="3.7" ry="1.4"/>
				
					<linearGradient id="SVGID_00000116221249623572640870000015565951808527325117_" gradientUnits="userSpaceOnUse" x1="-827.0348" y1="-2684.9165" x2="-824.1348" y2="-2684.9165" gradientTransform="matrix(-0.8177 -0.5756 -0.5756 0.8177 -2109.946 1820.2869)">
					<stop  offset="0" style="stop-color:#000000"/>
					<stop  offset="0.99" style="stop-color:#000000"/>
				</linearGradient>
				<path style="opacity:0.2;fill:url(#SVGID_00000116221249623572640870000015565951808527325117_);" d="M110.5,102.2
					c0,0,1.5-5.3-2.6-1.4c0,0,2.5-3.8,3.6-3s0,0,0,0S112.4,99,110.5,102.2z"/>
				<path class="st16" d="M105.9,100.7c0.7-1.2-11.1-9.2-11.1-9.2S105.1,101.9,105.9,100.7z"/>
			</g>
			<g>
				
					<linearGradient id="SVGID_00000014613652272850538130000012164003685718960036_" gradientUnits="userSpaceOnUse" x1="-875.1348" y1="-2718.2507" x2="-854.1577" y2="-2718.2507" gradientTransform="matrix(-0.8177 -0.5756 -0.5756 0.8177 -2109.946 1820.2869)">
					<stop  offset="0" style="stop-color:#FDFFC7"/>
					<stop  offset="0.99" style="stop-color:#9EE62C"/>
				</linearGradient>
				<path style="fill:url(#SVGID_00000014613652272850538130000012164003685718960036_);" d="M168,104l-15.4-11.4
					c-0.4-0.3-0.6-0.8-0.5-1.2c0.2-1.1,0.9-3.2,2.9-4.1c0.4-0.2,0.9-0.1,1.2,0.1l15.5,10.3c0.1,0.1,0.1,0.2,0,0.2
					C171.2,98.6,168.8,101.7,168,104z"/>
				
					<linearGradient id="SVGID_00000127748904864566389910000017962003002262457791_" gradientUnits="userSpaceOnUse" x1="-875.1048" y1="-2720.1755" x2="-855.078" y2="-2720.1755" gradientTransform="matrix(-0.8177 -0.5756 -0.5756 0.8177 -2109.946 1820.2869)">
					<stop  offset="0" style="stop-color:#000000"/>
					<stop  offset="0.99" style="stop-color:#000000"/>
				</linearGradient>
				<path style="opacity:0.2;fill:url(#SVGID_00000127748904864566389910000017962003002262457791_);" d="M170.8,100.1l-14.9-10.6
					c-0.4-0.3-0.7-0.6-0.8-0.8c-0.2-0.4-0.5-1.2,0.6-0.9c0.2,0.1,0.6,0.2,0.9,0.5l14.6,10.2c0.1,0.1,0.1,0.1,0.1,0.1
					C171.1,98.7,170.5,99.3,170.8,100.1L170.8,100.1z"/>
				
					<ellipse transform="matrix(0.5189 -0.8548 0.8548 0.5189 -4.7149 193.9368)" class="st5" cx="169.9" cy="101.2" rx="3.7" ry="1.4"/>
				
					<linearGradient id="SVGID_00000059274970196781581270000001941210880756394420_" gradientUnits="userSpaceOnUse" x1="-876.5748" y1="-2719.4351" x2="-873.6648" y2="-2719.4351" gradientTransform="matrix(-0.8177 -0.5756 -0.5756 0.8177 -2109.946 1820.2869)">
					<stop  offset="0" style="stop-color:#000000"/>
					<stop  offset="0.99" style="stop-color:#000000"/>
				</linearGradient>
				<path style="opacity:0.2;fill:url(#SVGID_00000059274970196781581270000001941210880756394420_);" d="M170.9,102.5
					c0,0,1.5-5.3-2.6-1.4c0,0,2.5-3.8,3.6-3s0,0,0,0S172.8,99.2,170.9,102.5z"/>
				<path class="st16" d="M166.2,101c0.7-1.2-11.1-9.2-11.1-9.2S165.5,102.1,166.2,101z"/>
			</g>
			<g>
				<path class="st7" d="M94.9,55c2.1-0.5,5.9-1.3,5.9-5.9c0-1.7-0.8-3.5-0.2-4.7c0.3-0.7,0.7,0.2,0.7-1.2c0-0.8-0.6-2.1-0.7-3
					c-0.4-2-0.3-4.3,1.3-2.8c-0.1-2.2,1-5.2,1.7-3.1c0.4-0.9,0.5-2.1,1.3-2.4c0.9-0.3,1.2,0.9,2,1.3c1.4,0.7,2.4-1,3,2.7
					c1.3-0.5,3.4,1.4,3.6,4.3c2.7,1.1,1.4,6,0.8,7.6c-1.4,3.8-4.2,4.7-6.8,5.6c-2.5,0.9-5,1.6-7.7,1.8c-1,0.1-2.3,1.7-3.3,1.6
					C96.4,56.9,94.9,55,94.9,55z"/>
				<path class="st8" d="M110.5,49.1c1.1-1.5,1.9-3,1.8-5.2c-0.1-1.7-1.5-0.9-2.2-1.4c-0.1-0.3,0.5-1.2,0.3-1.9
					c-0.4-0.7-1.3,0.4-1.8,0c0.1-0.3-0.3-0.7,0-1c0.4-0.6,1.8-1.3,1.2-2.1c-0.7-1-1.7-1.2-1.6-2.8c-0.6,0.9-1.2,2.1-1.7,2.6
					c-0.2,0.2-0.4,0.5-0.6,0.7c-0.6-0.4-1.4-1.3-2.2-2c0.5,1.4-0.4,2-0.7,3.1c-0.4,0.9,1.1,1.2,1.7,1.6c0.3,0.2,0.1,0.7,0.2,1
					c-0.3,0.5-1.5-0.3-1.7,0.5c-0.1,0.8,0.8,1.4,0.8,1.8c-0.5,0.6-1.9,0.3-1.6,1.9c0.6,2.2,1.7,3.4,3.1,4.5c-0.3,0.2-0.7,0-0.8,0.4
					c0.2,1.4,1.2,1.7,2,2l0.6-0.7c0.1-1,0.6-1.6,1-2.1c0.3,0.3,0.7,0.7,0.9,1.2l0.8,0.5c0.8-0.5,1.7-1.1,1.5-2.5
					C111.3,48.9,110.9,49.1,110.5,49.1L110.5,49.1z"/>
			</g>
		</g>
	</g>
</g>
</svg>
