<?xml version="1.0" encoding="utf-8"?>
<!-- Generator: Adobe Illustrator 26.2.1, SVG Export Plug-In . SVG Version: 6.00 Build 0)  -->
<svg version="1.1" id="Layer_1" xmlns="http://www.w3.org/2000/svg" xmlns:xlink="http://www.w3.org/1999/xlink" x="0px" y="0px"
	 viewBox="0 0 152 133" style="enable-background:new 0 0 152 133;" xml:space="preserve">
<style type="text/css">
	.st0{fill:url(#SVGID_1_);stroke:#328E57;stroke-width:0.75;stroke-miterlimit:10;}
	.st1{opacity:0.2;fill:#55C51E;}
	.st2{opacity:0.4;fill:#FFFFFF;}
	.st3{fill:#8CCF38;stroke:#328E57;stroke-width:0.5;stroke-miterlimit:10;}
	
		.st4{fill:url(#SVGID_00000015327890342697967880000016844563069673050797_);stroke:#37A53F;stroke-width:0.75;stroke-miterlimit:10;}
	.st5{fill:#AFDB71;stroke:#1E7248;stroke-width:0.75;stroke-miterlimit:10;}
	.st6{opacity:0.22;fill:url(#SVGID_00000145773655806427480110000014179094290295545740_);}
	.st7{fill:#74C03C;stroke:#1E7248;stroke-width:0.75;stroke-miterlimit:10;}
	.st8{opacity:0.49;fill:#40962D;}
	.st9{fill:#61931B;stroke:#1E7248;stroke-width:0.75;stroke-miterlimit:10;}
	
		.st10{fill:url(#SVGID_00000092449668967329890310000010821797701945995139_);stroke:#328E57;stroke-width:0.75;stroke-miterlimit:10;}
	
		.st11{fill:url(#SVGID_00000015323769116492249180000008584025428816415634_);stroke:#328E57;stroke-width:0.75;stroke-miterlimit:10;}
	
		.st12{fill:url(#SVGID_00000178169351482450853750000015702161644767374502_);stroke:#328E57;stroke-width:0.75;stroke-miterlimit:10;}
	
		.st13{fill:url(#SVGID_00000017503532552876567920000010404405157545474742_);stroke:#37A53F;stroke-width:0.75;stroke-miterlimit:10;}
	.st14{opacity:0.2;fill:url(#SVGID_00000000218714075303642790000013859901490249868951_);}
	.st15{opacity:0.22;fill:url(#SVGID_00000148663175607392039330000005719934198481308843_);}
	.st16{opacity:0.52;fill:#FFFFFF;}
	
		.st17{fill:url(#SVGID_00000150818986610570106730000015825900866685553324_);stroke:#37A53F;stroke-width:0.75;stroke-miterlimit:10;}
	.st18{opacity:0.2;fill:url(#SVGID_00000132806828785172406420000016873075913286753205_);}
	.st19{opacity:0.22;fill:url(#SVGID_00000026853876963520613450000012402763469883093145_);}
	
		.st20{fill:url(#SVGID_00000112613709252398904530000017779199494796575662_);stroke:#37A53F;stroke-width:0.75;stroke-miterlimit:10;}
	.st21{opacity:0.2;fill:url(#SVGID_00000129181136377809037460000009556886154241916039_);}
	.st22{opacity:0.22;fill:url(#SVGID_00000163786712441535133360000011344551210831715457_);}
	
		.st23{fill:url(#SVGID_00000116934846422982652850000003199791887264421528_);stroke:#37A53F;stroke-width:0.75;stroke-miterlimit:10;}
	.st24{opacity:0.2;fill:url(#SVGID_00000135667160451976058470000011441406966777313202_);}
	.st25{opacity:0.22;fill:url(#SVGID_00000116948169715602927780000016916816907991083662_);}
	
		.st26{fill:url(#SVGID_00000146484024556215522640000009997883157156390332_);stroke:#37A53F;stroke-width:0.75;stroke-miterlimit:10;}
	.st27{opacity:0.2;fill:url(#SVGID_00000149345492796276318240000012181002061400136125_);}
	.st28{opacity:0.22;fill:url(#SVGID_00000118374939920985437710000001473976638333664153_);}
	
		.st29{fill:url(#SVGID_00000011716975135259822220000004069401415815551105_);stroke:#37A53F;stroke-width:0.75;stroke-miterlimit:10;}
	.st30{opacity:0.2;fill:url(#SVGID_00000124879440042989845140000018166578404734801568_);}
	.st31{opacity:0.22;fill:url(#SVGID_00000131339711706737100520000005297405991359143583_);}
	
		.st32{fill:url(#SVGID_00000127021902876248453160000016634162193184436616_);stroke:#328E57;stroke-width:0.75;stroke-miterlimit:10;}
	
		.st33{fill:url(#SVGID_00000104684221057692238250000008586552068237039039_);stroke:#37A53F;stroke-width:0.75;stroke-miterlimit:10;}
	.st34{opacity:0.2;fill:url(#SVGID_00000162323323935959314060000005923132535623130757_);}
	.st35{opacity:0.22;fill:url(#SVGID_00000016765654574794629450000010208843714718229416_);}
	
		.st36{fill:url(#SVGID_00000097461652961430277280000007568737596042821039_);stroke:#37A53F;stroke-width:0.75;stroke-miterlimit:10;}
	.st37{opacity:0.2;fill:url(#SVGID_00000008857782702717290460000003847839809457951902_);}
	.st38{opacity:0.22;fill:url(#SVGID_00000122702317716478216790000008987319149087660692_);}
	
		.st39{fill:url(#SVGID_00000029048167121278332060000001233118028693418415_);stroke:#37A53F;stroke-width:0.75;stroke-miterlimit:10;}
	.st40{opacity:0.2;fill:url(#SVGID_00000050656922595223238520000017522644107965743276_);}
	.st41{opacity:0.22;fill:url(#SVGID_00000165924655069271565390000005416050087957944712_);}
	
		.st42{fill:url(#SVGID_00000063617363376846780070000016923965988503206842_);stroke:#37A53F;stroke-width:0.75;stroke-miterlimit:10;}
	.st43{opacity:0.2;fill:url(#SVGID_00000114766666676553314930000000008696753875808936_);}
	.st44{opacity:0.22;fill:url(#SVGID_00000159438277499788938500000002281335775860340926_);}
	
		.st45{fill:url(#SVGID_00000000915274105434208740000006523159999394360755_);stroke:#328E57;stroke-width:0.75;stroke-miterlimit:10;}
	
		.st46{fill:url(#SVGID_00000143595332586533619340000015105993808543732414_);stroke:#328E57;stroke-width:0.75;stroke-miterlimit:10;}
	.st47{fill:#89CA3C;stroke:#1E7248;stroke-width:0.75;stroke-miterlimit:10;}
	
		.st48{fill:url(#SVGID_00000000926503381118422260000011197478461235966630_);stroke:#328E57;stroke-width:0.75;stroke-miterlimit:10;}
	
		.st49{fill:url(#SVGID_00000129183759707990459550000011823259667855726227_);stroke:#328E57;stroke-width:0.75;stroke-miterlimit:10;}
	
		.st50{fill:url(#SVGID_00000181055494235545889480000002854884469354233023_);stroke:#328E57;stroke-width:0.75;stroke-miterlimit:10;}
	
		.st51{fill:url(#SVGID_00000043438944360807533000000012101250776419640473_);stroke:#328E57;stroke-width:0.75;stroke-miterlimit:10;}
	
		.st52{fill:url(#SVGID_00000031898713243562279840000005915103030193170348_);stroke:#328E57;stroke-width:0.75;stroke-miterlimit:10;}
	
		.st53{fill:url(#SVGID_00000042017794284910538850000011266462024315766698_);stroke:#328E57;stroke-width:0.75;stroke-miterlimit:10;}
	
		.st54{fill:url(#SVGID_00000072270464997508140100000000462052728399254944_);stroke:#37A53F;stroke-width:0.75;stroke-miterlimit:10;}
	.st55{opacity:0.22;fill:url(#SVGID_00000013904314488379421320000010242854333317475480_);}
	
		.st56{fill:url(#SVGID_00000054956242298070554980000001190614211757079434_);stroke:#37A53F;stroke-width:0.75;stroke-miterlimit:10;}
	.st57{opacity:0.22;fill:url(#SVGID_00000029729712659390194620000013378364000088415660_);}
	
		.st58{fill:url(#SVGID_00000171700726222545141450000009210512310441163670_);stroke:#37A53F;stroke-width:0.75;stroke-miterlimit:10;}
	.st59{opacity:9.000000e-02;fill:url(#SVGID_00000002371853407903131290000004412338111632798396_);}
	
		.st60{fill:url(#SVGID_00000111184964801351911880000004514449496621697203_);stroke:#37A53F;stroke-width:0.75;stroke-miterlimit:10;}
	.st61{opacity:9.000000e-02;fill:url(#SVGID_00000156577098828653708130000011709781789880225959_);}
	
		.st62{fill:url(#SVGID_00000096764140333238349670000007385072904288382883_);stroke:#37A53F;stroke-width:0.75;stroke-miterlimit:10;}
	.st63{opacity:9.000000e-02;fill:url(#SVGID_00000053537770302982662550000008188070093889847487_);}
	
		.st64{fill:url(#SVGID_00000149348667309226664170000001911852790840233109_);stroke:#37A53F;stroke-width:0.75;stroke-miterlimit:10;}
	.st65{opacity:0.2;fill:url(#SVGID_00000034075161612719086090000015756139990049394595_);}
	.st66{opacity:0.22;fill:url(#SVGID_00000080885651414775779450000001840989953814035864_);}
	
		.st67{fill:url(#SVGID_00000065053066293452098110000000630787318898937991_);stroke:#37A53F;stroke-width:0.75;stroke-miterlimit:10;}
	.st68{opacity:0.2;fill:url(#SVGID_00000043433616643709366630000014396138412716790178_);}
	.st69{opacity:0.22;fill:url(#SVGID_00000013166867254616370210000002626464321211162558_);}
	
		.st70{fill:url(#SVGID_00000155107190940651151370000005807138377888438676_);stroke:#37A53F;stroke-width:0.75;stroke-miterlimit:10;}
	.st71{opacity:0.2;fill:url(#SVGID_00000158731822856048271740000005503480992054747837_);}
	.st72{opacity:0.22;fill:url(#SVGID_00000027595599219101389390000014804133541066761628_);}
</style>
<g>
	<g>
		
			<linearGradient id="SVGID_1_" gradientUnits="userSpaceOnUse" x1="3950.7102" y1="-494.4568" x2="3996.8728" y2="-494.4568" gradientTransform="matrix(-0.596 -0.7988 -0.7694 0.5972 2108.9617 3553.2927)">
			<stop  offset="0" style="stop-color:#FDFFC7"/>
			<stop  offset="0.1345" style="stop-color:#E8F9A5"/>
			<stop  offset="0.3282" style="stop-color:#CEF37A"/>
			<stop  offset="0.5161" style="stop-color:#B9ED58"/>
			<stop  offset="0.6941" style="stop-color:#AAE940"/>
			<stop  offset="0.8581" style="stop-color:#A1E731"/>
			<stop  offset="0.9949" style="stop-color:#9EE62C"/>
		</linearGradient>
		<path class="st0" d="M113.5,92.5c-2.4-3.1-5.4-11.7-6.5-14.6c-1.1-2.9,0.1-4.2,0.3-6.4c0.2-2.2,1.2-3.3,2.2-3.5
			c1.1-0.2,1.7-1.3,1.6-3.9c-0.1-2.6,1.4-3.4,4.3-3.1c2.9,0.3,1.2,1.9,1.7,3.3c0.6,1.3,1.3-0.7,2.9-0.4c1.6,0.3,0.8,2.9,1.1,4.1
			c0.3,1.1,1.2-0.5,3.1,1.3c2,1.8-0.4,4.7-0.4,5.9c0,1.2,1-0.7,1.8,0.2c0.9,1-0.3,3.4,0.9,4.2c1.2,0.8,0.9,1.6,0.1,2.7
			c-0.8,1.1,0.2,3.1,1.1,4.3c0.9,1.2,0.5,3.2,1.6,5.1c1.2,1.9,1-2.7,1.7-3.7c0.7-1,1.2,4.1,0.9,5.6c-0.3,1.4,3.1,6.3,3.1,6.9
			c0.1,0.7-0.9,1.9-0.9,1.9C129.6,102.2,122.7,98.9,113.5,92.5"/>
		<path class="st1" d="M133.2,101.8c-1.5-1.4-2.6-5.8-3.1-7c-0.6-1.2-3.6-2.6-3.3-4.3c0.3-1.7-0.4-4.7-2.1-5.7
			c-1.6-1-0.3-2.4-0.2-3.9c0.1-1.4-0.3-3.4-1.3-3c-0.9,0.4-3-0.4-2.5-1.8c0.6-1.5,3.3-4.1,0.6-4.6c-2.7-0.5-3.2-1.7-4.7-3.1
			c-1.4-1.4-3.7-0.1-4,1.5c-0.3,1.6-2.6,2.9-2.9,4.3c-0.3,1.4-2,2.9-1.3,4.5c0.8,1.6,4.9,13.8,8.5,16.3"/>
		<path class="st2" d="M126.5,98.2c0.3-0.9-0.3-2.1-0.4-3c-0.1-1.8,0.1-3.4,0.4-5.1c0-0.1-0.1-0.1-0.1,0c-0.6,1.4-1,2.7-0.9,4.2
			c0,0.8,0.1,1.6,0.3,2.4c0,0.2,0,0.4,0.1,0.5c-1.2-1.8-2.3-3.6-3.3-5.5c-0.2-0.4-0.4-0.8-0.6-1.2c-0.1-1.6-0.5-3-0.3-4.7
			c0.2-1.5,0.5-3,1-4.5c0-0.1-0.1-0.1-0.1,0c-0.7,1.7-1.3,3.4-1.4,5.3c0,0.5-0.1,1,0,1.6c-1.2-4-1.3-8-0.8-12.4c0,0-0.1-0.1-0.1,0
			c-0.8,4.2-1.1,8.7,0.3,12.8c-0.5-0.6-1.2-1.2-1.6-1.8c-1.2-1.5-1.9-3.1-2.4-4.9c0,0-0.1,0-0.1,0c0.3,1.6,0.8,3.2,1.8,4.5
			c0.9,1.2,1.8,2.8,3.1,3.8c1,2.3,2.3,4.4,3.6,6.5c-0.2-0.2-0.4-0.3-0.6-0.4c-1.1-0.6-2.1-1.3-3.3-1.8c-0.1,0-0.1,0.1-0.1,0.1
			c0.7,0.7,1.6,1.1,2.5,1.7c0.9,0.5,1.5,1.3,2.4,1.8"/>
		<path class="st3" d="M113.5,92.5c-2.4-3.1-5.4-11.7-6.5-14.6c-1.1-2.9,0.1-4.2,0.3-6.4c0-0.1,0-0.3,0-0.4c0.3,0.1,0.7,0.3,1.1,0.4
			c3.3,1.3,0.7,4.9,0.8,6.8c0.1,1.9,1.7,3.2,2.9,5.2c1.2,2,1.2,4,2.6,5.6c1.4,1.6,2.1-0.1,3.2,1.6c1.1,1.7,0.6,3.6,1.6,2.9
			c1-0.6,1.6,2.9,2.6,4.6c0.9,1.6,2.7-1.9,4.1-0.4c1.4,1.5,0,5.6,0.1,6.3C121.6,102.5,117.3,98.9,113.5,92.5z"/>
		<path class="st2" d="M117.7,94.8c-0.3,0.2-0.8,0.5-1.2,1.6c0,0.8,0.4,0.4,0.5,0.1c0.1-0.3,0.3-0.8,0.7-1.3
			C118.1,94.7,118,94.6,117.7,94.8z"/>
		<path class="st2" d="M117.1,92.1c-0.5,0.3-1.1,1-1.6,2.9c0,1.3,0.6,0.7,0.8,0.2c0.2-0.6,0.3-1.4,0.9-2.3
			C117.8,92,117.6,91.8,117.1,92.1z"/>
		<path class="st2" d="M115.1,91.5c-0.2,0.2-0.5,0.5-0.5,1.3c0.1,0.5,0.4,0.2,0.4-0.1s0-0.6,0.3-1C115.4,91.4,115.3,91.4,115.1,91.5
			z"/>
		<path class="st2" d="M116,91.9c-0.3,0.2-0.7,0.7-0.9,1.9c0.1,0.8,0.4,0.4,0.5,0c0.1-0.3,0.1-0.8,0.5-1.4
			C116.5,91.7,116.3,91.6,116,91.9z"/>
	</g>
	<g>
		
			<linearGradient id="SVGID_00000149359771513263032900000003960675462385987463_" gradientUnits="userSpaceOnUse" x1="-57.1709" y1="383.0656" x2="-16.4944" y2="383.0656" gradientTransform="matrix(0.8988 -0.4384 0.4384 0.8988 -13.8905 -257.5244)">
			<stop  offset="0" style="stop-color:#FDFFC7"/>
			<stop  offset="0.9949" style="stop-color:#9EE62C"/>
		</linearGradient>
		
			<path style="fill:url(#SVGID_00000149359771513263032900000003960675462385987463_);stroke:#37A53F;stroke-width:0.75;stroke-miterlimit:10;" d="
			M135.7,87.4c-0.3-0.3-34.3,14.4-29.6,31.3c0,0,3.2-14.4,31.2-25.2C136.8,93.8,138.9,91.1,135.7,87.4z"/>
		
			<ellipse transform="matrix(0.9756 -0.2197 0.2197 0.9756 -16.5211 32.1828)" class="st5" cx="136.4" cy="90.4" rx="1.7" ry="3.2"/>
		
			<linearGradient id="SVGID_00000092455466767993728540000006434859536326292404_" gradientUnits="userSpaceOnUse" x1="-5.7311" y1="328.4654" x2="-2.3727" y2="328.4654" gradientTransform="matrix(0.9735 -0.2288 0.2288 0.9735 65.3901 -229.1846)">
			<stop  offset="0" style="stop-color:#000000"/>
			<stop  offset="0.9949" style="stop-color:#000000"/>
		</linearGradient>
		<path style="opacity:0.22;fill:url(#SVGID_00000092455466767993728540000006434859536326292404_);" d="M134.7,89.9
			c-0.3,0,0.5,4.3,2.5,3.6c1.7-0.6,0.7-4,0.7-4C137.8,90,136.8,93.3,134.7,89.9z"/>
	</g>
	<g>
		<path class="st7" d="M80,51.1c2.1-0.5,5.9-1.3,6-5.9c0-1.7-0.8-3.5-0.2-4.7c0.3-0.7,0.7,0.2,0.7-1.3c0-0.8-0.6-2.1-0.7-3
			c-0.4-2-0.3-4.3,1.3-2.8c-0.1-2.2,1-5.2,1.7-3.1c0.4-0.9,0.5-2.1,1.3-2.4c0.9-0.3,1.2,0.9,2,1.3c1.4,0.7,2.4-1,3,2.7
			c1.3-0.5,3.4,1.4,3.6,4.3c2.7,1.1,1.4,6,0.7,7.6c-1.4,3.8-4.2,4.6-6.8,5.6c-2.5,0.9-5,1.6-7.7,1.8c-1,0.1-2.3,1.7-3.3,1.6L80,51.1
			z"/>
		<path class="st8" d="M95.6,45.2c1.1-1.4,1.9-3,1.8-5.3c-0.1-1.7-1.5-0.9-2.2-1.4c-0.1-0.3,0.5-1.2,0.3-1.9c-0.4-0.7-1.3,0.4-1.8,0
			c0-0.3-0.3-0.7,0-1c0.4-0.6,1.8-1.3,1.2-2.1c-0.7-1-1.7-1.3-1.6-2.8c-0.6,0.9-1.2,2.1-1.7,2.6c-0.2,0.2-0.4,0.5-0.6,0.7
			c-0.6-0.4-1.5-1.3-2.2-2c0.5,1.4-0.4,2-0.7,3.1c-0.4,0.9,1.1,1.2,1.7,1.6c0.3,0.2,0.1,0.7,0.2,1c-0.3,0.5-1.5-0.3-1.7,0.5
			c-0.1,0.7,0.8,1.4,0.8,1.8c-0.5,0.6-2,0.3-1.6,1.9c0.6,2.2,1.7,3.4,3.1,4.5c-0.3,0.2-0.7,0-0.8,0.4c0.2,1.4,1.2,1.7,2,2l0.6-0.7
			c0.1-1,0.6-1.6,1-2.1c0.3,0.3,0.7,0.7,0.9,1.2l0.8,0.4c0.8-0.5,1.7-1.1,1.5-2.5C96.4,45,96,45.2,95.6,45.2z"/>
	</g>
	<path class="st9" d="M32.1,98c1.3-2,0.1-3.4,0.8-5.3c1.1-2.9,2.4-0.1,3.7-0.3c0.8-0.2,0.5-0.9,1.4-0.8c0.9,0.1,0.4,1.4,1.5,0.1
		c1.1-1.4,1.2-4,3.5-3.8c1.1,0.1,1.1,1.7,1.8,2.3c1,1,1.6-1.1,2.7-0.4c0.9,0.6,0.1,2.1,0.9,2.5c0.9,0.4,2.6-1.2,3.6-1.2
		c1.8-0.1,1.4,2,1.6,3.5c0.3,2.5,2.3,0.9,3.7,2.2c1.6,1.5,1.2,6.5-0.9,7.6c-1.9,1-4.2,0.6-6.1,0.5c-6-0.3-10.9-2.1-16-5L32.1,98z"/>
	<g>
		
			<linearGradient id="SVGID_00000103266827316005472100000008560216497501331901_" gradientUnits="userSpaceOnUse" x1="3836.5637" y1="-357.3987" x2="3869.1797" y2="-357.3987" gradientTransform="matrix(-0.7398 -0.6678 -0.6388 0.7353 2652.3647 2923.3293)">
			<stop  offset="0" style="stop-color:#FDFFC7"/>
			<stop  offset="0.1345" style="stop-color:#E8F9A5"/>
			<stop  offset="0.3282" style="stop-color:#CEF37A"/>
			<stop  offset="0.5161" style="stop-color:#B9ED58"/>
			<stop  offset="0.6941" style="stop-color:#AAE940"/>
			<stop  offset="0.8581" style="stop-color:#A1E731"/>
			<stop  offset="0.9949" style="stop-color:#9EE62C"/>
		</linearGradient>
		
			<path style="fill:url(#SVGID_00000103266827316005472100000008560216497501331901_);stroke:#328E57;stroke-width:0.75;stroke-miterlimit:10;" d="
			M26.2,94.6c-2.1-1.8-5.4-7.4-6.5-9.2c-1.2-1.8-0.5-3-0.7-4.5c-0.2-1.5,0.4-2.4,1.1-2.7c0.7-0.3,1-1.2,0.6-2.9
			c-0.4-1.8,0.5-2.5,2.5-2.8c2.1-0.2,1.1,1.2,1.6,2c0.6,0.9,0.8-0.7,1.9-0.7c1.1,0,1,1.9,1.3,2.7c0.3,0.8,0.8-0.5,2.3,0.5
			c1.6,1,0.4,3.3,0.6,4.1c0.2,0.8,0.6-0.6,1.3-0.1c0.7,0.5,0.2,2.4,1.2,2.8c1,0.4,0.9,1,0.4,1.9c-0.4,0.9,0.6,2.1,1.4,2.8
			c0.8,0.7,0.8,2.2,1.8,3.3c1.1,1.2,0.3-2,0.7-2.8c0.4-0.8,1.4,2.7,1.4,3.7c0,1,3,3.9,3.1,4.4c0.1,0.5-0.3,1.4-0.3,1.4
			C38.8,99.1,33.5,97.8,26.2,94.6"/>
		<path class="st1" d="M41.2,98.3c-1.2-0.7-2.6-3.7-3.1-4.4c-0.6-0.7-2.9-1.3-2.9-2.5c0-1.3-0.9-3.2-2.2-3.7
			c-1.3-0.4-0.6-1.6-0.7-2.6c-0.1-1-0.7-2.3-1.3-1.9c-0.6,0.4-2.1,0.2-2-0.9c0.2-1.1,1.7-3.3-0.2-3.3c-1.9,0-2.5-0.7-3.7-1.5
			c-1.2-0.8-2.6,0.4-2.6,1.6c0,1.1-1.4,2.4-1.4,3.4c0,1-1,2.3-0.3,3.3c0.8,1,5.3,8.9,8.1,10.1"/>
		<path class="st2" d="M36.1,96.8c0.1-0.6-0.5-1.4-0.7-2c-0.3-1.2-0.4-2.3-0.4-3.6c0,0-0.1,0-0.1,0c-0.2,1.1-0.3,2-0.1,3.1
			c0.1,0.6,0.3,1.1,0.5,1.6c0,0.1,0.1,0.2,0.1,0.4c-1.1-1.1-2.1-2.2-3-3.4c-0.2-0.2-0.4-0.5-0.6-0.7c-0.3-1.1-0.8-2-0.9-3.2
			c-0.1-1.1,0-2.2,0.1-3.3c0,0-0.1-0.1-0.1,0c-0.3,1.3-0.5,2.6-0.3,3.9c0,0.3,0.1,0.7,0.2,1.1c-1.4-2.6-2-5.4-2.3-8.4
			c0,0-0.1,0-0.1,0c0,3,0.4,6.2,2,8.8c-0.5-0.4-1-0.7-1.4-1c-1-0.9-1.7-1.9-2.4-3.1c0,0-0.1,0,0,0c0.4,1.1,1,2.1,1.8,2.9
			c0.8,0.7,1.7,1.7,2.6,2.2c1,1.4,2.2,2.8,3.4,4c-0.2-0.1-0.3-0.2-0.5-0.2c-0.8-0.3-1.7-0.6-2.5-0.8c-0.1,0-0.1,0.1,0,0.1
			c0.6,0.4,1.3,0.6,2,0.8c0.7,0.2,1.2,0.7,1.9,0.9"/>
		<path class="st2" d="M40.6,97.1C40.6,97.1,40.6,97.1,40.6,97.1c-0.4,0.8-0.4,1.6-0.3,2.4"/>
		<path class="st3" d="M26.2,94.6c-2.1-1.8-5.4-7.4-6.5-9.2c-1.2-1.8-0.5-3-0.7-4.5c0-0.1,0-0.2,0-0.3c0.2,0,0.5,0.1,0.8,0.2
			c2.5,0.5,1.2,3.3,1.5,4.6c0.3,1.3,1.6,2,2.7,3.2c1.1,1.2,1.4,2.6,2.6,3.5c1.2,0.9,1.4-0.3,2.4,0.7c1,1,0.9,2.4,1.5,1.8
			c0.6-0.6,1.5,1.8,2.4,2.8c0.9,1,1.6-1.7,2.8-0.9c1.2,0.8,0.8,3.9,0.9,4.4C33.2,100.4,29.8,98.5,26.2,94.6z"/>
		<path class="st2" d="M29.5,95.6c-0.2,0.2-0.5,0.5-0.6,1.3c0.1,0.5,0.3,0.2,0.4,0c0.1-0.2,0.1-0.6,0.3-1
			C29.8,95.5,29.6,95.4,29.5,95.6z"/>
		<path class="st2" d="M28.7,93.8c-0.3,0.3-0.6,0.8-0.7,2.2c0.2,0.9,0.5,0.4,0.6,0c0-0.4,0-1,0.3-1.7S29,93.5,28.7,93.8z"/>
		<path class="st2" d="M27.2,93.7c-0.1,0.2-0.2,0.4-0.2,1c0.2,0.3,0.3,0.1,0.3-0.1c0-0.2-0.1-0.4,0-0.7
			C27.4,93.6,27.3,93.6,27.2,93.7z"/>
		<path class="st2" d="M27.9,93.8c-0.2,0.2-0.4,0.6-0.3,1.4c0.2,0.5,0.4,0.2,0.4-0.1c0-0.3,0-0.6,0.1-1.1
			C28.2,93.7,28.1,93.6,27.9,93.8z"/>
	</g>
	<g>
		<path class="st7" d="M48.2,42c0.1-2.2,0.4-6-4-7.4c-1.7-0.5-3.5-0.3-4.6-1.1c-0.6-0.5,0.4-0.6-1-1c-0.8-0.2-2.2-0.1-3.1-0.1
			c-2-0.2-4.3-1-2.3-2c-2.2-0.6-4.7-2.4-2.5-2.5c-0.8-0.7-1.9-1.1-1.9-1.9c0-0.9,1.2-0.9,1.8-1.6c1.1-1.1-0.2-2.6,3.5-2.1
			c-0.1-1.4,2.3-2.9,5.2-2.2c1.8-2.3,6.1,0.4,7.5,1.4c3.2,2.4,3.3,5.4,3.5,8.1c0.2,2.7,0.1,5.3-0.5,7.9c-0.2,1,0.9,2.7,0.6,3.6
			L48.2,42z"/>
		<path class="st8" d="M36.1,24.1c1.1-0.2,1,1.6,1.3,2.3c0.1,0.4,0.7,0.3,0.9,0.5c0.7-0.3,0.1-1.8,1-1.9c0.8,0.1,1.2,1.2,1.6,1.3
			c0.8-0.5,0.9-2.3,2.5-1.5c2.2,1.2,3.1,2.7,3.8,4.6c0.3-0.3,0.3-0.9,0.7-0.8c1.4,0.6,1.5,1.8,1.5,2.8L48.6,32
			c-1.9-0.1-2.6,1.1-4.3,1.2c-1.6,0.1-4.3-0.9-6.2-1.5c-2.5-0.8-3.6-2.2-4.1-4.3c-0.2-0.8-1-2-1.5-3.1C34,25.1,34.8,24.2,36.1,24.1z
			"/>
	</g>
	<g>
		<path class="st7" d="M33.1,52.5c0.1-2.2,0.4-6-4-7.4c-1.7-0.5-3.5-0.3-4.6-1.1c-0.6-0.5,0.4-0.6-1-1c-0.8-0.2-2.2-0.1-3.1-0.1
			c-2-0.2-4.3-1-2.3-2c-2.2-0.6-4.7-2.4-2.5-2.5c-0.8-0.7-1.9-1.1-1.9-1.9c0-0.9,1.2-0.9,1.8-1.6c1.1-1.1-0.2-2.6,3.5-2.1
			c-0.1-1.4,2.3-2.9,5.2-2.2c1.8-2.3,6.1,0.4,7.5,1.4c3.2,2.4,3.3,5.4,3.5,8.1c0.2,2.7,0.1,5.3-0.5,7.9c-0.2,1,0.9,2.7,0.6,3.6
			L33.1,52.5z"/>
		<path class="st8" d="M21,34.6c1.1-0.2,1,1.6,1.3,2.3c0.1,0.4,0.7,0.3,0.9,0.5c0.7-0.3,0.1-1.8,1-1.9c0.8,0.1,1.2,1.2,1.6,1.3
			c0.8-0.5,0.9-2.3,2.5-1.5c2.2,1.2,3.1,2.7,3.8,4.6c0.3-0.3,0.3-0.9,0.7-0.8c1.4,0.6,1.5,1.8,1.5,2.8l-0.9,0.6
			c-1.9-0.1-2.6,1.1-4.3,1.2c-1.6,0.1-4.3-0.9-6.2-1.5c-2.5-0.8-3.6-2.2-4.1-4.3c-0.2-0.8-1-2-1.5-3.1C18.9,35.6,19.7,34.7,21,34.6z
			"/>
	</g>
	<g>
		
			<linearGradient id="SVGID_00000064323547253522397910000017760130533458101919_" gradientUnits="userSpaceOnUse" x1="4169.0371" y1="537.804" x2="4206.7622" y2="537.804" gradientTransform="matrix(-0.2714 -0.959 0.9421 -0.2473 668.7355 4212.1973)">
			<stop  offset="0" style="stop-color:#FDFFC7"/>
			<stop  offset="0.1345" style="stop-color:#E8F9A5"/>
			<stop  offset="0.3282" style="stop-color:#CEF37A"/>
			<stop  offset="0.5161" style="stop-color:#B9ED58"/>
			<stop  offset="0.6941" style="stop-color:#AAE940"/>
			<stop  offset="0.8581" style="stop-color:#A1E731"/>
			<stop  offset="0.9949" style="stop-color:#9EE62C"/>
		</linearGradient>
		
			<path style="fill:url(#SVGID_00000064323547253522397910000017760130533458101919_);stroke:#328E57;stroke-width:0.75;stroke-miterlimit:10;" d="
			M49,62.6c-0.9-3-5.3-9.3-6.7-11.4c-1.4-2.1-3-2-4.6-3c-1.6-1-2.9-0.9-3.6-0.3c-0.7,0.6-1.8,0.4-3.5-0.9c-1.7-1.4-3.1-0.8-4.4,1.2
			c-1.4,2,0.7,1.7,1.4,2.7c0.6,1-1.2,0.5-1.8,1.6c-0.6,1.1,1.6,2,2.2,2.7c0.7,0.7-0.9,0.5-0.7,2.6c0.2,2.1,3.5,2.1,4.3,2.7
			c0.8,0.6-1,0.2-0.8,1.3c0.2,1,2.5,1.5,2.4,2.7c-0.1,1.2,0.6,1.4,1.8,1.4c1.2,0,2,1.7,2.4,2.9c0.4,1.2,2,1.9,2.7,3.6
			c0.7,1.7-2.4-0.7-3.5-0.7c-1.1,0,2.3,2.8,3.4,3.3c1.1,0.5,2.7,5.1,3.2,5.4c0.4,0.4,1.7,0.4,1.7,0.4C47.3,77.7,48.6,71.6,49,62.6"
			/>
		<path class="st1" d="M45.1,79.7c-0.2-1.6-2.7-4.5-3.2-5.4c-0.5-1,0.1-3.6-1.3-4.2c-1.4-0.6-3.1-2.6-2.9-4.1c0.2-1.5-1.5-1.4-2.6-2
			c-1.1-0.6-2.2-1.9-1.5-2.3c0.8-0.4,1.3-2.1,0-2.5c-1.3-0.4-4.6,0-3.5-1.9c1-1.9,0.5-2.9,0.3-4.5c-0.3-1.6,1.9-2.4,3.1-1.9
			c1.3,0.6,3.4-0.2,4.5,0.3c1.1,0.5,3.1,0.1,3.8,1.4c0.7,1.3,7,10,6.9,13.5"/>
		<path class="st2" d="M46.1,73.7c-0.8-0.3-1.3-1.2-1.9-1.7c-1.2-0.9-2.4-1.6-3.7-2.2c0,0,0-0.1,0-0.1c1.3,0.3,2.4,0.7,3.4,1.5
			c0.5,0.4,1,0.9,1.5,1.4c0.1,0.1,0.2,0.2,0.3,0.3c-0.6-1.6-1.3-3.2-2.1-4.8c-0.2-0.3-0.3-0.6-0.5-0.9c-1.1-0.8-1.8-1.8-3.1-2.5
			C39,64,37.7,63.5,36.5,63c-0.1,0,0-0.1,0-0.1c1.6,0.4,3.1,0.8,4.4,1.7c0.4,0.2,0.8,0.5,1.1,0.8c-2.1-2.8-4.9-4.8-8.2-6.6
			c0,0,0-0.1,0-0.1c3.3,1.5,6.6,3.6,8.7,6.5c-0.1-0.7-0.2-1.3-0.4-1.9c-0.4-1.5-1.2-2.8-2.1-4c0,0,0-0.1,0,0c0.9,1,1.8,2.1,2.2,3.4
			c0.4,1.2,1,2.6,1,3.8c1,1.8,1.9,3.6,2.6,5.5c0-0.2,0-0.4,0-0.6c0.1-1,0.2-2,0.5-3c0-0.1,0.1-0.1,0.1,0c0.1,0.8-0.1,1.6-0.2,2.4
			c-0.1,0.8,0.1,1.6,0,2.4"/>
		<path class="st2" d="M44.1,78.6C44,78.5,44,78.5,44.1,78.6c1.1,0,2,0.4,2.9,1"/>
		<path class="st3" d="M49,62.6c-0.9-3-5.3-9.3-6.7-11.4c-1.4-2.1-3-2-4.6-3c-0.1-0.1-0.2-0.1-0.3-0.2c-0.1,0.3-0.2,0.6-0.3,0.9
			c-0.8,2.8,3.1,2.9,4.3,3.9c1.3,1,1.3,2.6,2.1,4.4c0.8,1.8,2.1,2.7,2.5,4.4c0.4,1.7-1.1,1.3-0.6,2.8c0.6,1.5,2.2,2.1,1.2,2.5
			c-1,0.3,1.2,2.5,1.8,3.9c0.6,1.4-2.7,0.8-2.4,2.4c0.3,1.6,3.9,2.8,4.3,3.2C51.7,72.7,51.4,68.2,49,62.6z"/>
		<path class="st2" d="M48.4,66.4c0.3-0.1,0.8-0.2,1.8,0c0.6,0.4,0.1,0.4-0.2,0.4s-0.7-0.2-1.3-0.2C48.1,66.7,48.1,66.5,48.4,66.4z"
			/>
		<path class="st2" d="M46.8,64.7c0.5-0.1,1.3-0.2,2.9,0.4c0.9,0.7,0.2,0.7-0.3,0.6c-0.5-0.2-1.1-0.5-2.1-0.5S46.4,64.8,46.8,64.7z"
			/>
		<path class="st2" d="M47.5,63.1c0.2,0,0.6,0,1.2,0.3c0.3,0.3-0.1,0.3-0.2,0.2s-0.4-0.3-0.8-0.3C47.2,63.3,47.3,63.2,47.5,63.1z"/>
		<path class="st2" d="M47.3,63.9c0.3-0.1,0.8-0.1,1.7,0.4c0.5,0.5,0,0.5-0.3,0.3c-0.3-0.1-0.6-0.3-1.2-0.4S47,63.9,47.3,63.9z"/>
	</g>
	<path class="st9" d="M38.4,74.2c1.3-2,0.1-3.4,0.8-5.3c1.1-2.9,2.4-0.1,3.7-0.3c0.8-0.2,0.5-0.9,1.4-0.8c0.9,0.1,0.4,1.4,1.5,0.1
		c1.1-1.4,1.2-4,3.5-3.8c1.1,0.1,1.1,1.7,1.8,2.3c1,1,1.6-1.1,2.7-0.4c0.9,0.6,0.1,2.1,0.9,2.5c0.9,0.4,2.6-1.2,3.6-1.2
		c1.8-0.1,1.4,2,1.6,3.5c0.3,2.5,2.3,0.9,3.7,2.2c1.6,1.5,1.2,6.5-0.9,7.6c-1.9,1-4.2,0.6-6.1,0.5c-6-0.3-10.9-2.1-16-5L38.4,74.2z"
		/>
	<g>
		
			<linearGradient id="SVGID_00000103970758797544577820000018241278738739759282_" gradientUnits="userSpaceOnUse" x1="4933.3931" y1="291.2517" x2="4971.1182" y2="291.2517" gradientTransform="matrix(0.9303 -0.3577 0.3322 0.9156 -4651.5786 1595.0809)">
			<stop  offset="0" style="stop-color:#FDFFC7"/>
			<stop  offset="0.1345" style="stop-color:#E8F9A5"/>
			<stop  offset="0.3282" style="stop-color:#CEF37A"/>
			<stop  offset="0.5161" style="stop-color:#B9ED58"/>
			<stop  offset="0.6941" style="stop-color:#AAE940"/>
			<stop  offset="0.8581" style="stop-color:#A1E731"/>
			<stop  offset="0.9949" style="stop-color:#9EE62C"/>
		</linearGradient>
		
			<path style="fill:url(#SVGID_00000103970758797544577820000018241278738739759282_);stroke:#328E57;stroke-width:0.75;stroke-miterlimit:10;" d="
			M53.4,100.6c2.9-1.2,8.7-6.1,10.7-7.7c2-1.6,1.7-3.2,2.6-4.9c0.8-1.7,0.6-2.9,0-3.6c-0.6-0.6-0.6-1.8,0.6-3.6
			c1.2-1.8,0.5-3.1-1.6-4.3c-2.1-1.2-1.6,0.9-2.6,1.6c-1,0.7-0.6-1.1-1.8-1.6c-1.2-0.5-1.8,1.8-2.5,2.5c-0.7,0.7-0.6-0.9-2.7-0.5
			c-2.1,0.4-1.8,3.6-2.3,4.5c-0.5,0.9-0.3-1-1.4-0.7c-1,0.3-1.2,2.6-2.4,2.7c-1.2,0-1.4,0.8-1.2,2c0.1,1.2-1.5,2.2-2.6,2.6
			c-1.2,0.5-1.7,2.1-3.3,3c-1.6,0.9,0.5-2.4,0.4-3.5c-0.1-1.1-2.6,2.5-3,3.7c-0.4,1.2-4.8,3.2-5.1,3.7c-0.3,0.5-0.2,1.8-0.2,1.8
			C38.2,100.1,44.4,101,53.4,100.6"/>
		<path class="st1" d="M36,98.2c1.6-0.3,4.2-3.1,5.1-3.7c0.9-0.6,3.6-0.2,4.1-1.7c0.5-1.4,2.3-3.3,3.9-3.2c1.5,0.1,1.3-1.6,1.8-2.7
			c0.5-1.1,1.7-2.4,2.2-1.7c0.4,0.7,2.2,1.1,2.5-0.2c0.2-1.3-0.4-4.5,1.6-3.7c2,0.9,2.9,0.3,4.5-0.1c1.6-0.4,2.6,1.6,2.1,3
			c-0.5,1.3,0.6,3.4,0.1,4.5c-0.4,1.2,0.2,3.1-1.1,3.9c-1.2,0.8-9.3,7.9-12.8,8.1"/>
		<path class="st2" d="M42.1,98.7c0.2-0.8,1.1-1.4,1.5-2c0.8-1.3,1.4-2.5,1.9-3.9c0,0,0.1,0,0.1,0c-0.2,1.3-0.5,2.4-1.2,3.6
			c-0.4,0.6-0.8,1.1-1.2,1.6c-0.1,0.1-0.2,0.2-0.3,0.4c1.6-0.8,3.1-1.6,4.6-2.5c0.3-0.2,0.6-0.4,0.9-0.6c0.7-1.1,1.7-2,2.2-3.3
			c0.5-1.2,0.9-2.5,1.3-3.8c0-0.1,0.1,0,0.1,0c-0.2,1.6-0.6,3.1-1.3,4.6c-0.2,0.4-0.4,0.8-0.7,1.2c2.6-2.4,4.3-5.3,5.9-8.7
			c0,0,0.1,0,0.1,0c-1.2,3.4-3,6.9-5.7,9.3c0.6-0.2,1.3-0.3,1.9-0.6c1.4-0.5,2.6-1.4,3.8-2.5c0,0,0.1,0,0,0c-0.9,1-1.9,2-3.2,2.5
			c-1.2,0.5-2.5,1.2-3.7,1.4c-1.7,1.2-3.5,2.2-5.3,3.1c0.2,0,0.4,0,0.6,0c1,0.1,2,0.1,3,0.2c0.1,0,0.1,0.1,0,0.1
			c-0.8,0.2-1.6,0.1-2.4,0.1c-0.8,0-1.6,0.2-2.4,0.2"/>
		<path class="st2" d="M37.1,97.1C37.1,97,37.1,97,37.1,97.1c0.1,1.1-0.2,2-0.7,2.9"/>
		<path class="st3" d="M53.4,100.6c2.9-1.2,8.7-6.1,10.7-7.7c2-1.6,1.7-3.2,2.6-4.9c0.1-0.1,0.1-0.2,0.1-0.3
			c-0.3-0.1-0.6-0.1-0.9-0.2c-2.8-0.5-2.6,3.3-3.5,4.7c-0.9,1.4-2.5,1.6-4.2,2.5c-1.7,0.9-2.5,2.4-4.2,2.9c-1.6,0.6-1.4-1-2.8-0.3
			c-1.5,0.7-1.9,2.4-2.4,1.4c-0.4-0.9-2.4,1.4-3.7,2.2c-1.4,0.8-1-2.6-2.6-2.2c-1.6,0.4-2.4,4.1-2.8,4.6
			C43.6,104.1,48,103.4,53.4,100.6z"/>
		<path class="st2" d="M49.6,100.3c0.1,0.3,0.3,0.8,0.1,1.8c-0.3,0.6-0.4,0.1-0.4-0.2c0-0.3,0.2-0.7,0.1-1.3
			C49.3,100,49.5,100,49.6,100.3z"/>
		<path class="st2" d="M51.1,98.6c0.2,0.5,0.3,1.2-0.2,2.9c-0.6,1-0.7,0.3-0.6-0.2s0.4-1.2,0.3-2.1S51,98.1,51.1,98.6z"/>
		<path class="st2" d="M52.7,99.1c0.1,0.2,0.1,0.6-0.2,1.2c-0.3,0.3-0.3,0-0.2-0.2c0.1-0.2,0.2-0.4,0.2-0.8
			C52.6,98.8,52.7,98.9,52.7,99.1z"/>
		<path class="st2" d="M52,98.9c0.1,0.3,0.2,0.8-0.2,1.8c-0.4,0.5-0.5,0.1-0.4-0.2s0.3-0.7,0.3-1.3C51.7,98.6,51.9,98.6,52,98.9z"/>
	</g>
	<path class="st9" d="M68.8,58.9c1.3-2,0.1-3.4,0.8-5.3c1.1-2.9,2.4-0.1,3.7-0.3c0.8-0.2,0.5-0.9,1.4-0.8c0.9,0.1,0.4,1.4,1.5,0.1
		c1.1-1.4,1.2-4,3.5-3.8c1.1,0.1,1.1,1.7,1.8,2.3c1,1,1.6-1.1,2.7-0.4c0.9,0.6,0.1,2.1,0.9,2.5c0.9,0.4,2.6-1.2,3.6-1.2
		c1.8-0.1,1.4,2,1.6,3.5c0.3,2.5,2.3,0.9,3.7,2.2c1.6,1.5,1.2,6.5-0.9,7.6c-1.9,1-4.2,0.6-6.1,0.5c-6-0.3-10.9-2.1-16-5L68.8,58.9z"
		/>
	<g>
		
			<linearGradient id="SVGID_00000124134846863439374310000016558016719192854463_" gradientUnits="userSpaceOnUse" x1="856.2599" y1="672.9343" x2="884.8262" y2="672.9343" gradientTransform="matrix(0.9976 -6.915393e-02 6.915393e-02 0.9976 -867.9512 -573.4894)">
			<stop  offset="0" style="stop-color:#FDFFC7"/>
			<stop  offset="0.9949" style="stop-color:#9EE62C"/>
		</linearGradient>
		
			<path style="fill:url(#SVGID_00000124134846863439374310000016558016719192854463_);stroke:#37A53F;stroke-width:0.75;stroke-miterlimit:10;" d="
			M32.5,33.7l26.2-1.2c0.7,0,1.3,0.3,1.6,0.9c0.8,1.4,1.8,4.1,0.5,6.8c-0.3,0.5-0.8,0.9-1.4,0.9L34,43.5c-0.1,0-0.2-0.1-0.2-0.2
			C33.8,42.1,33.6,36.8,32.5,33.7z"/>
		
			<linearGradient id="SVGID_00000174571800716647158040000010847259358843819952_" gradientUnits="userSpaceOnUse" x1="856.3066" y1="675.5756" x2="883.5723" y2="675.5756" gradientTransform="matrix(0.9976 -6.915393e-02 6.915393e-02 0.9976 -867.9512 -573.4894)">
			<stop  offset="0" style="stop-color:#000000"/>
			<stop  offset="0.9949" style="stop-color:#000000"/>
		</linearGradient>
		<path style="opacity:0.2;fill:url(#SVGID_00000174571800716647158040000010847259358843819952_);" d="M33,40.2l24.9-1.6
			c0.6,0,1.2,0,1.5,0.1c0.6,0.3,1.5,0.8,0.1,1.4c-0.3,0.1-0.8,0.2-1.4,0.3L34,42.2c-0.1,0-0.2,0-0.2,0C33.8,42,33.9,40.8,33,40.2z"
			/>
		<ellipse transform="matrix(0.9907 -0.1364 0.1364 0.9907 -4.9259 4.8444)" class="st5" cx="32.9" cy="38.4" rx="1.9" ry="5"/>
		
			<linearGradient id="SVGID_00000047039098611286581750000017154806921014938267_" gradientUnits="userSpaceOnUse" x1="854.3092" y1="674.5508" x2="858.2705" y2="674.5508" gradientTransform="matrix(0.9976 -6.915393e-02 6.915393e-02 0.9976 -867.9512 -573.4894)">
			<stop  offset="0" style="stop-color:#000000"/>
			<stop  offset="0.9949" style="stop-color:#000000"/>
		</linearGradient>
		<path style="opacity:0.22;fill:url(#SVGID_00000047039098611286581750000017154806921014938267_);" d="M30.8,37.8
			c0,0,2.9,6.9,3.9-0.8c0,0,0.7,6.2-1.2,6.3c-1.9,0.1,0,0,0,0S31.6,42.8,30.8,37.8z"/>
		<path class="st16" d="M37,35.4c0.2,1.9,19.6,0.1,19.6,0.1S36.8,33.5,37,35.4z"/>
	</g>
	<g>
		
			<linearGradient id="SVGID_00000127044628847523359890000003079856770825684659_" gradientUnits="userSpaceOnUse" x1="858.8729" y1="682.4872" x2="887.4393" y2="682.4872" gradientTransform="matrix(0.9976 -6.915393e-02 6.915393e-02 0.9976 -867.9512 -573.4894)">
			<stop  offset="0" style="stop-color:#FDFFC7"/>
			<stop  offset="0.9949" style="stop-color:#9EE62C"/>
		</linearGradient>
		
			<path style="fill:url(#SVGID_00000127044628847523359890000003079856770825684659_);stroke:#37A53F;stroke-width:0.75;stroke-miterlimit:10;" d="
			M35.7,43l26.2-1.2c0.7,0,1.3,0.3,1.6,0.9c0.8,1.4,1.8,4.1,0.5,6.8c-0.3,0.5-0.8,0.9-1.4,0.9l-25.3,2.4c-0.1,0-0.2-0.1-0.2-0.2
			C37,51.4,36.9,46.2,35.7,43z"/>
		
			<linearGradient id="SVGID_00000089569222433627914320000008861479933756311481_" gradientUnits="userSpaceOnUse" x1="858.9197" y1="685.1285" x2="886.1853" y2="685.1285" gradientTransform="matrix(0.9976 -6.915393e-02 6.915393e-02 0.9976 -867.9512 -573.4894)">
			<stop  offset="0" style="stop-color:#000000"/>
			<stop  offset="0.9949" style="stop-color:#000000"/>
		</linearGradient>
		<path style="opacity:0.2;fill:url(#SVGID_00000089569222433627914320000008861479933756311481_);" d="M36.2,49.5L61.2,48
			c0.6,0,1.2,0,1.5,0.1c0.6,0.3,1.5,0.8,0.1,1.4c-0.3,0.1-0.8,0.2-1.4,0.3l-24.2,1.8c-0.1,0-0.2,0-0.2,0
			C37.1,51.3,37.2,50.2,36.2,49.5z"/>
		<ellipse transform="matrix(0.9907 -0.1364 0.1364 0.9907 -6.1706 5.3775)" class="st5" cx="36.2" cy="47.7" rx="1.9" ry="5"/>
		
			<linearGradient id="SVGID_00000031889695114796268970000017474721621161917060_" gradientUnits="userSpaceOnUse" x1="856.9222" y1="684.1038" x2="860.8835" y2="684.1038" gradientTransform="matrix(0.9976 -6.915393e-02 6.915393e-02 0.9976 -867.9512 -573.4894)">
			<stop  offset="0" style="stop-color:#000000"/>
			<stop  offset="0.9949" style="stop-color:#000000"/>
		</linearGradient>
		<path style="opacity:0.22;fill:url(#SVGID_00000031889695114796268970000017474721621161917060_);" d="M34,47.1
			c0,0,2.9,6.9,3.9-0.8c0,0,0.7,6.2-1.2,6.3c-1.9,0.1,0,0,0,0S34.8,52.2,34,47.1z"/>
		<path class="st16" d="M40.2,44.8c0.2,1.9,19.6,0.1,19.6,0.1S40,42.9,40.2,44.8z"/>
	</g>
	<g>
		
			<linearGradient id="SVGID_00000143618953913981562930000005540985013288835495_" gradientUnits="userSpaceOnUse" x1="866.71" y1="688.0082" x2="895.2764" y2="688.0082" gradientTransform="matrix(0.9976 -6.915393e-02 6.915393e-02 0.9976 -867.9512 -573.4894)">
			<stop  offset="0" style="stop-color:#FDFFC7"/>
			<stop  offset="0.9949" style="stop-color:#9EE62C"/>
		</linearGradient>
		
			<path style="fill:url(#SVGID_00000143618953913981562930000005540985013288835495_);stroke:#37A53F;stroke-width:0.75;stroke-miterlimit:10;" d="
			M43.9,48l26.2-1.2c0.7,0,1.3,0.3,1.6,0.9c0.8,1.4,1.8,4.1,0.5,6.8c-0.3,0.5-0.8,0.9-1.4,0.9l-25.3,2.4c-0.1,0-0.2-0.1-0.2-0.2
			C45.2,56.4,45.1,51.1,43.9,48z"/>
		
			<linearGradient id="SVGID_00000032615782299566663840000008394265557457426075_" gradientUnits="userSpaceOnUse" x1="866.7568" y1="690.6495" x2="894.0223" y2="690.6495" gradientTransform="matrix(0.9976 -6.915393e-02 6.915393e-02 0.9976 -867.9512 -573.4894)">
			<stop  offset="0" style="stop-color:#000000"/>
			<stop  offset="0.9949" style="stop-color:#000000"/>
		</linearGradient>
		<path style="opacity:0.2;fill:url(#SVGID_00000032615782299566663840000008394265557457426075_);" d="M44.4,54.5l24.9-1.6
			c0.6,0,1.2,0,1.5,0.1c0.6,0.3,1.5,0.8,0.1,1.4c-0.3,0.1-0.8,0.2-1.4,0.3l-24.2,1.8c-0.1,0-0.2,0-0.2,0
			C45.3,56.3,45.4,55.1,44.4,54.5z"/>
		<ellipse transform="matrix(0.9907 -0.1364 0.1364 0.9907 -6.7713 6.5423)" class="st5" cx="44.4" cy="52.7" rx="1.9" ry="5"/>
		
			<linearGradient id="SVGID_00000075124781597351465310000009276699831188113076_" gradientUnits="userSpaceOnUse" x1="864.7593" y1="689.6248" x2="868.7206" y2="689.6248" gradientTransform="matrix(0.9976 -6.915393e-02 6.915393e-02 0.9976 -867.9512 -573.4894)">
			<stop  offset="0" style="stop-color:#000000"/>
			<stop  offset="0.9949" style="stop-color:#000000"/>
		</linearGradient>
		<path style="opacity:0.22;fill:url(#SVGID_00000075124781597351465310000009276699831188113076_);" d="M42.2,52.1
			c0,0,2.9,6.9,3.9-0.8c0,0,0.7,6.2-1.2,6.3c-1.9,0.1,0,0,0,0S43,57.1,42.2,52.1z"/>
		<path class="st16" d="M48.4,49.7c0.2,1.9,19.6,0.1,19.6,0.1S48.2,47.8,48.4,49.7z"/>
	</g>
	<g>
		
			<linearGradient id="SVGID_00000078042978762803707820000008612865144009451679_" gradientUnits="userSpaceOnUse" x1="869.2618" y1="695.3011" x2="897.8281" y2="695.3011" gradientTransform="matrix(0.9976 -6.915393e-02 6.915393e-02 0.9976 -867.9512 -573.4894)">
			<stop  offset="0" style="stop-color:#FDFFC7"/>
			<stop  offset="0.9949" style="stop-color:#9EE62C"/>
		</linearGradient>
		
			<path style="fill:url(#SVGID_00000078042978762803707820000008612865144009451679_);stroke:#37A53F;stroke-width:0.75;stroke-miterlimit:10;" d="
			M47,55.1l26.2-1.2c0.7,0,1.3,0.3,1.6,0.9c0.8,1.4,1.8,4.1,0.5,6.8c-0.3,0.5-0.8,0.9-1.4,0.9l-25.3,2.4c-0.1,0-0.2-0.1-0.2-0.2
			C48.3,63.5,48.2,58.2,47,55.1z"/>
		
			<linearGradient id="SVGID_00000180355598753481616170000012601413063914107038_" gradientUnits="userSpaceOnUse" x1="869.3085" y1="697.9425" x2="896.5742" y2="697.9425" gradientTransform="matrix(0.9976 -6.915393e-02 6.915393e-02 0.9976 -867.9512 -573.4894)">
			<stop  offset="0" style="stop-color:#000000"/>
			<stop  offset="0.9949" style="stop-color:#000000"/>
		</linearGradient>
		<path style="opacity:0.2;fill:url(#SVGID_00000180355598753481616170000012601413063914107038_);" d="M47.5,61.6L72.4,60
			c0.6,0,1.2,0,1.5,0.1c0.6,0.3,1.5,0.8,0.1,1.4c-0.3,0.1-0.8,0.2-1.4,0.3l-24.2,1.8c-0.1,0-0.2,0-0.2,0
			C48.3,63.4,48.4,62.2,47.5,61.6z"/>
		<ellipse transform="matrix(0.9907 -0.1364 0.1364 0.9907 -7.7111 7.0247)" class="st5" cx="47.4" cy="59.8" rx="1.9" ry="5"/>
		
			<linearGradient id="SVGID_00000091697040541059420760000018214512263745104312_" gradientUnits="userSpaceOnUse" x1="867.311" y1="696.9178" x2="871.2724" y2="696.9178" gradientTransform="matrix(0.9976 -6.915393e-02 6.915393e-02 0.9976 -867.9512 -573.4894)">
			<stop  offset="0" style="stop-color:#000000"/>
			<stop  offset="0.9949" style="stop-color:#000000"/>
		</linearGradient>
		<path style="opacity:0.22;fill:url(#SVGID_00000091697040541059420760000018214512263745104312_);" d="M45.3,59.2
			c0,0,2.9,6.9,3.9-0.8c0,0,0.7,6.2-1.2,6.3s0,0,0,0S46.1,64.2,45.3,59.2z"/>
		<path class="st16" d="M51.5,56.8c0.2,1.9,19.6,0.1,19.6,0.1S51.3,54.9,51.5,56.8z"/>
	</g>
	<g>
		
			<linearGradient id="SVGID_00000028284961638454953070000011525668120140207515_" gradientUnits="userSpaceOnUse" x1="870.5278" y1="702.9717" x2="899.0941" y2="702.9717" gradientTransform="matrix(0.9976 -6.915393e-02 6.915393e-02 0.9976 -867.9512 -573.4894)">
			<stop  offset="0" style="stop-color:#FDFFC7"/>
			<stop  offset="0.9949" style="stop-color:#9EE62C"/>
		</linearGradient>
		
			<path style="fill:url(#SVGID_00000028284961638454953070000011525668120140207515_);stroke:#37A53F;stroke-width:0.75;stroke-miterlimit:10;" d="
			M48.8,62.7l26.2-1.2c0.7,0,1.3,0.3,1.6,0.9c0.8,1.4,1.8,4.1,0.5,6.8c-0.3,0.5-0.8,0.9-1.4,0.9l-25.3,2.4c-0.1,0-0.2-0.1-0.2-0.2
			C50.1,71.1,50,65.8,48.8,62.7z"/>
		
			<linearGradient id="SVGID_00000048492984409116240270000008613216999288925327_" gradientUnits="userSpaceOnUse" x1="870.5745" y1="705.613" x2="897.8401" y2="705.613" gradientTransform="matrix(0.9976 -6.915393e-02 6.915393e-02 0.9976 -867.9512 -573.4894)">
			<stop  offset="0" style="stop-color:#000000"/>
			<stop  offset="0.9949" style="stop-color:#000000"/>
		</linearGradient>
		<path style="opacity:0.2;fill:url(#SVGID_00000048492984409116240270000008613216999288925327_);" d="M49.3,69.2l24.9-1.6
			c0.6,0,1.2,0,1.5,0.1c0.6,0.3,1.5,0.8,0.1,1.4c-0.3,0.1-0.8,0.2-1.4,0.3l-24.2,1.8c-0.1,0-0.2,0-0.2,0
			C50.1,70.9,50.2,69.8,49.3,69.2z"/>
		<ellipse transform="matrix(0.9907 -0.1364 0.1364 0.9907 -8.7261 7.34)" class="st5" cx="49.2" cy="67.3" rx="1.9" ry="5"/>
		
			<linearGradient id="SVGID_00000013185635761898697660000016925580995984773513_" gradientUnits="userSpaceOnUse" x1="868.577" y1="704.5883" x2="872.5384" y2="704.5883" gradientTransform="matrix(0.9976 -6.915393e-02 6.915393e-02 0.9976 -867.9512 -573.4894)">
			<stop  offset="0" style="stop-color:#000000"/>
			<stop  offset="0.9949" style="stop-color:#000000"/>
		</linearGradient>
		<path style="opacity:0.22;fill:url(#SVGID_00000013185635761898697660000016925580995984773513_);" d="M47.1,66.7
			c0,0,2.9,6.9,3.9-0.8c0,0,0.7,6.2-1.2,6.3c-1.9,0.1,0,0,0,0S47.9,71.8,47.1,66.7z"/>
		<path class="st16" d="M53.3,64.4c0.2,1.9,19.6,0.1,19.6,0.1S53.1,62.5,53.3,64.4z"/>
	</g>
	<g>
		
			<linearGradient id="SVGID_00000082337302263760140190000010073365921419613374_" gradientUnits="userSpaceOnUse" x1="876.9798" y1="707.4919" x2="905.5461" y2="707.4919" gradientTransform="matrix(0.9976 -6.915393e-02 6.915393e-02 0.9976 -867.9512 -573.4894)">
			<stop  offset="0" style="stop-color:#FDFFC7"/>
			<stop  offset="0.9949" style="stop-color:#9EE62C"/>
		</linearGradient>
		
			<path style="fill:url(#SVGID_00000082337302263760140190000010073365921419613374_);stroke:#37A53F;stroke-width:0.75;stroke-miterlimit:10;" d="
			M55.5,66.7l26.2-1.2c0.7,0,1.3,0.3,1.6,0.9c0.8,1.4,1.8,4.1,0.5,6.8c-0.3,0.5-0.8,0.9-1.4,0.9l-25.3,2.4c-0.1,0-0.2-0.1-0.2-0.2
			C56.8,75.1,56.7,69.9,55.5,66.7z"/>
		
			<linearGradient id="SVGID_00000138531467460117905300000002805691602914880179_" gradientUnits="userSpaceOnUse" x1="877.0266" y1="710.1332" x2="904.2922" y2="710.1332" gradientTransform="matrix(0.9976 -6.915393e-02 6.915393e-02 0.9976 -867.9512 -573.4894)">
			<stop  offset="0" style="stop-color:#000000"/>
			<stop  offset="0.9949" style="stop-color:#000000"/>
		</linearGradient>
		<path style="opacity:0.2;fill:url(#SVGID_00000138531467460117905300000002805691602914880179_);" d="M56,73.2L81,71.6
			c0.6,0,1.2,0,1.5,0.1c0.6,0.3,1.5,0.8,0.1,1.4c-0.3,0.1-0.8,0.2-1.4,0.3L57,75.3c-0.1,0-0.2,0-0.2,0C56.8,75,57,73.9,56,73.2z"/>
		<ellipse transform="matrix(0.9907 -0.1364 0.1364 0.9907 -9.2172 8.2986)" class="st5" cx="55.9" cy="71.4" rx="1.9" ry="5"/>
		
			<linearGradient id="SVGID_00000018958693950555424380000014322070863076935597_" gradientUnits="userSpaceOnUse" x1="875.0291" y1="709.1085" x2="878.9904" y2="709.1085" gradientTransform="matrix(0.9976 -6.915393e-02 6.915393e-02 0.9976 -867.9512 -573.4894)">
			<stop  offset="0" style="stop-color:#000000"/>
			<stop  offset="0.9949" style="stop-color:#000000"/>
		</linearGradient>
		<path style="opacity:0.22;fill:url(#SVGID_00000018958693950555424380000014322070863076935597_);" d="M53.8,70.8
			c0,0,2.9,6.9,3.9-0.8c0,0,0.7,6.2-1.2,6.3s0,0,0,0S54.6,75.9,53.8,70.8z"/>
		<path class="st16" d="M60,68.4c0.2,1.9,19.6,0.1,19.6,0.1S59.8,66.6,60,68.4z"/>
	</g>
	<g>
		
			<linearGradient id="SVGID_00000134942702930849508770000017611840039856055206_" gradientUnits="userSpaceOnUse" x1="4940.623" y1="278.3077" x2="4978.3481" y2="278.3077" gradientTransform="matrix(0.9303 -0.3577 0.3322 0.9156 -4651.5786 1595.0809)">
			<stop  offset="0" style="stop-color:#FDFFC7"/>
			<stop  offset="0.1345" style="stop-color:#E8F9A5"/>
			<stop  offset="0.3282" style="stop-color:#CEF37A"/>
			<stop  offset="0.5161" style="stop-color:#B9ED58"/>
			<stop  offset="0.6941" style="stop-color:#AAE940"/>
			<stop  offset="0.8581" style="stop-color:#A1E731"/>
			<stop  offset="0.9949" style="stop-color:#9EE62C"/>
		</linearGradient>
		
			<path style="fill:url(#SVGID_00000134942702930849508770000017611840039856055206_);stroke:#328E57;stroke-width:0.75;stroke-miterlimit:10;" d="
			M55.9,86.1c2.9-1.2,8.7-6.1,10.7-7.7c2-1.6,1.7-3.2,2.6-4.9c0.8-1.7,0.6-2.9,0-3.6c-0.6-0.6-0.6-1.8,0.6-3.6
			c1.2-1.8,0.5-3.1-1.6-4.3c-2.1-1.2-1.6,0.9-2.6,1.6c-1,0.7-0.6-1.1-1.8-1.6c-1.2-0.5-1.8,1.8-2.5,2.5c-0.7,0.7-0.6-0.9-2.7-0.5
			c-2.1,0.4-1.8,3.6-2.3,4.5c-0.5,0.9-0.3-1-1.4-0.7c-1,0.3-1.2,2.6-2.4,2.7c-1.2,0-1.4,0.8-1.2,2c0.1,1.2-1.5,2.2-2.6,2.6
			c-1.2,0.5-1.7,2.1-3.3,3c-1.6,0.9,0.5-2.4,0.4-3.5c-0.1-1.1-2.6,2.5-3,3.7c-0.4,1.2-4.8,3.2-5.1,3.7c-0.3,0.5-0.2,1.8-0.2,1.8
			C40.7,85.7,46.8,86.5,55.9,86.1"/>
		<path class="st1" d="M38.4,83.8c1.6-0.3,4.2-3.1,5.1-3.7c0.9-0.6,3.6-0.2,4.1-1.7c0.5-1.4,2.3-3.3,3.9-3.2
			c1.5,0.1,1.3-1.6,1.8-2.7c0.5-1.1,1.7-2.4,2.2-1.7c0.4,0.7,2.2,1.1,2.5-0.2c0.2-1.3-0.4-4.5,1.6-3.7c2,0.9,2.9,0.3,4.5-0.1
			c1.6-0.4,2.6,1.6,2.1,3c-0.5,1.3,0.6,3.4,0.1,4.5c-0.4,1.2,0.2,3.1-1.1,3.9c-1.2,0.8-9.3,7.9-12.8,8.1"/>
		<path class="st2" d="M44.5,84.3c0.2-0.8,1.1-1.4,1.5-2c0.8-1.3,1.4-2.5,1.9-3.9c0,0,0.1,0,0.1,0c-0.2,1.3-0.5,2.4-1.2,3.6
			c-0.4,0.6-0.8,1.1-1.2,1.6c-0.1,0.1-0.2,0.2-0.3,0.4c1.6-0.8,3.1-1.6,4.6-2.5c0.3-0.2,0.6-0.4,0.9-0.6c0.7-1.1,1.7-2,2.2-3.3
			c0.5-1.2,0.9-2.5,1.3-3.8c0-0.1,0.1,0,0.1,0c-0.2,1.6-0.6,3.1-1.3,4.6c-0.2,0.4-0.4,0.8-0.7,1.2c2.6-2.4,4.3-5.3,5.9-8.7
			c0,0,0.1,0,0.1,0c-1.2,3.4-3,6.9-5.7,9.3c0.6-0.2,1.3-0.3,1.9-0.6c1.4-0.5,2.6-1.4,3.8-2.5c0,0,0.1,0,0,0c-0.9,1-1.9,2-3.2,2.5
			c-1.2,0.5-2.5,1.2-3.7,1.4c-1.7,1.2-3.5,2.2-5.3,3.1c0.2,0,0.4,0,0.6,0c1,0.1,2,0.1,3,0.2c0.1,0,0.1,0.1,0,0.1
			c-0.8,0.2-1.6,0.1-2.4,0.1c-0.8,0-1.6,0.2-2.4,0.2"/>
		<path class="st2" d="M39.5,82.6C39.5,82.6,39.5,82.6,39.5,82.6c0.1,1.1-0.2,2-0.7,2.9"/>
		<path class="st3" d="M55.9,86.1c2.9-1.2,8.7-6.1,10.7-7.7c2-1.6,1.7-3.2,2.6-4.9c0.1-0.1,0.1-0.2,0.1-0.3
			c-0.3-0.1-0.6-0.1-0.9-0.2c-2.8-0.5-2.6,3.3-3.5,4.7c-0.9,1.4-2.5,1.6-4.2,2.5c-1.7,0.9-2.5,2.4-4.2,2.9c-1.6,0.6-1.4-1-2.8-0.3
			c-1.5,0.7-1.9,2.4-2.4,1.4c-0.4-0.9-2.4,1.4-3.7,2.2c-1.4,0.8-1-2.6-2.6-2.2c-1.6,0.4-2.4,4.1-2.8,4.6C46,89.7,50.5,89,55.9,86.1z
			"/>
		<path class="st2" d="M52,85.8c0.1,0.3,0.3,0.8,0.1,1.8c-0.3,0.6-0.4,0.1-0.4-0.2c0-0.3,0.2-0.7,0.1-1.3
			C51.7,85.6,51.9,85.6,52,85.8z"/>
		<path class="st2" d="M53.5,84.1c0.2,0.5,0.3,1.2-0.2,2.9c-0.6,1-0.7,0.3-0.6-0.2c0.1-0.5,0.4-1.2,0.3-2.1
			C53.1,83.7,53.4,83.7,53.5,84.1z"/>
		<path class="st2" d="M55.2,84.6c0.1,0.2,0.1,0.6-0.2,1.2c-0.3,0.3-0.3,0-0.2-0.2c0.1-0.2,0.2-0.4,0.2-0.8S55.1,84.4,55.2,84.6z"/>
		<path class="st2" d="M54.4,84.5c0.1,0.3,0.2,0.8-0.2,1.8c-0.4,0.5-0.5,0.1-0.4-0.2c0.1-0.3,0.3-0.7,0.3-1.3
			C54.1,84.1,54.3,84.2,54.4,84.5z"/>
	</g>
	<g>
		
			<linearGradient id="SVGID_00000101081223943940709160000008690385388932449192_" gradientUnits="userSpaceOnUse" x1="892.7215" y1="716.6323" x2="921.2878" y2="716.6323" gradientTransform="matrix(0.9976 -6.915393e-02 6.915393e-02 0.9976 -867.9512 -573.4894)">
			<stop  offset="0" style="stop-color:#FDFFC7"/>
			<stop  offset="0.9949" style="stop-color:#9EE62C"/>
		</linearGradient>
		
			<path style="fill:url(#SVGID_00000101081223943940709160000008690385388932449192_);stroke:#37A53F;stroke-width:0.75;stroke-miterlimit:10;" d="
			M71.8,74.8L98,73.6c0.7,0,1.3,0.3,1.6,0.9c0.8,1.4,1.8,4.1,0.5,6.8c-0.3,0.5-0.8,0.9-1.4,0.9l-25.3,2.4c-0.1,0-0.2-0.1-0.2-0.2
			C73.2,83.2,73,77.9,71.8,74.8z"/>
		
			<linearGradient id="SVGID_00000001624806250138135000000006182851499775896760_" gradientUnits="userSpaceOnUse" x1="892.7682" y1="719.2736" x2="920.0339" y2="719.2736" gradientTransform="matrix(0.9976 -6.915393e-02 6.915393e-02 0.9976 -867.9512 -573.4894)">
			<stop  offset="0" style="stop-color:#000000"/>
			<stop  offset="0.9949" style="stop-color:#000000"/>
		</linearGradient>
		<path style="opacity:0.2;fill:url(#SVGID_00000001624806250138135000000006182851499775896760_);" d="M72.3,81.3l24.9-1.6
			c0.6,0,1.2,0,1.5,0.1c0.6,0.3,1.5,0.8,0.1,1.4c-0.3,0.1-0.8,0.2-1.4,0.3l-24.2,1.8c-0.1,0-0.2,0-0.2,0
			C73.2,83,73.3,81.9,72.3,81.3z"/>
		<ellipse transform="matrix(0.9907 -0.1364 0.1364 0.9907 -10.1598 10.6018)" class="st5" cx="72.3" cy="79.4" rx="1.9" ry="5"/>
		
			<linearGradient id="SVGID_00000070106371774157047600000001505164000959206793_" gradientUnits="userSpaceOnUse" x1="890.7708" y1="718.2488" x2="894.7321" y2="718.2488" gradientTransform="matrix(0.9976 -6.915393e-02 6.915393e-02 0.9976 -867.9512 -573.4894)">
			<stop  offset="0" style="stop-color:#000000"/>
			<stop  offset="0.9949" style="stop-color:#000000"/>
		</linearGradient>
		<path style="opacity:0.22;fill:url(#SVGID_00000070106371774157047600000001505164000959206793_);" d="M70.2,78.8
			c0,0,2.9,6.9,3.9-0.8c0,0,0.7,6.2-1.2,6.3c-1.9,0.1,0,0,0,0S71,83.9,70.2,78.8z"/>
		<path class="st16" d="M76.4,76.5c0.2,1.9,19.6,0.1,19.6,0.1S76.1,74.6,76.4,76.5z"/>
	</g>
	<g>
		
			<linearGradient id="SVGID_00000141431979125299254510000014216798341326494625_" gradientUnits="userSpaceOnUse" x1="873.8976" y1="716.8739" x2="902.4639" y2="716.8739" gradientTransform="matrix(0.9976 -6.915393e-02 6.915393e-02 0.9976 -867.9512 -573.4894)">
			<stop  offset="0" style="stop-color:#FDFFC7"/>
			<stop  offset="0.9949" style="stop-color:#9EE62C"/>
		</linearGradient>
		
			<path style="fill:url(#SVGID_00000141431979125299254510000014216798341326494625_);stroke:#37A53F;stroke-width:0.75;stroke-miterlimit:10;" d="
			M53.1,76.3l26.2-1.2c0.7,0,1.3,0.3,1.6,0.9c0.8,1.4,1.8,4.1,0.5,6.8c-0.3,0.5-0.8,0.9-1.4,0.9l-25.3,2.4c-0.1,0-0.2-0.1-0.2-0.2
			C54.4,84.7,54.3,79.4,53.1,76.3z"/>
		
			<linearGradient id="SVGID_00000101820937083071594010000009043179813173509289_" gradientUnits="userSpaceOnUse" x1="873.9443" y1="719.5153" x2="901.21" y2="719.5153" gradientTransform="matrix(0.9976 -6.915393e-02 6.915393e-02 0.9976 -867.9512 -573.4894)">
			<stop  offset="0" style="stop-color:#000000"/>
			<stop  offset="0.9949" style="stop-color:#000000"/>
		</linearGradient>
		<path style="opacity:0.2;fill:url(#SVGID_00000101820937083071594010000009043179813173509289_);" d="M53.6,82.8l24.9-1.6
			c0.6,0,1.2,0,1.5,0.1c0.6,0.3,1.5,0.8,0.1,1.4c-0.3,0.1-0.8,0.2-1.4,0.3l-24.2,1.8c-0.1,0-0.2,0-0.2,0
			C54.4,84.6,54.6,83.4,53.6,82.8z"/>
		<ellipse transform="matrix(0.9907 -0.1364 0.1364 0.9907 -10.5456 8.0571)" class="st5" cx="53.5" cy="81" rx="1.9" ry="5"/>
		
			<linearGradient id="SVGID_00000111162914127704887730000015996996840026850998_" gradientUnits="userSpaceOnUse" x1="871.9468" y1="718.4905" x2="875.9082" y2="718.4905" gradientTransform="matrix(0.9976 -6.915393e-02 6.915393e-02 0.9976 -867.9512 -573.4894)">
			<stop  offset="0" style="stop-color:#000000"/>
			<stop  offset="0.9949" style="stop-color:#000000"/>
		</linearGradient>
		<path style="opacity:0.22;fill:url(#SVGID_00000111162914127704887730000015996996840026850998_);" d="M51.4,80.4
			c0,0,2.9,6.9,3.9-0.8c0,0,0.7,6.2-1.2,6.3c-1.9,0.1,0,0,0,0S52.2,85.4,51.4,80.4z"/>
		<path class="st16" d="M57.6,78c0.2,1.9,19.6,0.1,19.6,0.1S57.4,76.1,57.6,78z"/>
	</g>
	<g>
		
			<linearGradient id="SVGID_00000173851001814422159360000003312782415802658199_" gradientUnits="userSpaceOnUse" x1="879.6491" y1="724.3835" x2="908.2155" y2="724.3835" gradientTransform="matrix(0.9976 -6.915393e-02 6.915393e-02 0.9976 -867.9512 -573.4894)">
			<stop  offset="0" style="stop-color:#FDFFC7"/>
			<stop  offset="0.9949" style="stop-color:#9EE62C"/>
		</linearGradient>
		
			<path style="fill:url(#SVGID_00000173851001814422159360000003312782415802658199_);stroke:#37A53F;stroke-width:0.75;stroke-miterlimit:10;" d="
			M59.3,83.4l26.2-1.2c0.7,0,1.3,0.3,1.6,0.9c0.8,1.4,1.8,4.1,0.5,6.8c-0.3,0.5-0.8,0.9-1.4,0.9l-25.3,2.4c-0.1,0-0.2-0.1-0.2-0.2
			C60.7,91.8,60.5,86.5,59.3,83.4z"/>
		
			<linearGradient id="SVGID_00000039821587514911134190000003686412827989897607_" gradientUnits="userSpaceOnUse" x1="879.6959" y1="727.0248" x2="906.9614" y2="727.0248" gradientTransform="matrix(0.9976 -6.915393e-02 6.915393e-02 0.9976 -867.9512 -573.4894)">
			<stop  offset="0" style="stop-color:#000000"/>
			<stop  offset="0.9949" style="stop-color:#000000"/>
		</linearGradient>
		<path style="opacity:0.2;fill:url(#SVGID_00000039821587514911134190000003686412827989897607_);" d="M59.8,89.9l24.9-1.6
			c0.6,0,1.2,0,1.5,0.1c0.6,0.3,1.5,0.8,0.1,1.4c-0.3,0.1-0.8,0.2-1.4,0.3L60.9,92c-0.1,0-0.2,0-0.2,0
			C60.7,91.7,60.8,90.5,59.8,89.9z"/>
		<ellipse transform="matrix(0.9907 -0.1364 0.1364 0.9907 -11.4547 8.9769)" class="st5" cx="59.8" cy="88.1" rx="1.9" ry="5"/>
		
			<linearGradient id="SVGID_00000100349093114209088790000016701986869129299130_" gradientUnits="userSpaceOnUse" x1="877.6984" y1="726.0001" x2="881.6597" y2="726.0001" gradientTransform="matrix(0.9976 -6.915393e-02 6.915393e-02 0.9976 -867.9512 -573.4894)">
			<stop  offset="0" style="stop-color:#000000"/>
			<stop  offset="0.9949" style="stop-color:#000000"/>
		</linearGradient>
		<path style="opacity:0.22;fill:url(#SVGID_00000100349093114209088790000016701986869129299130_);" d="M57.7,87.5
			c0,0,2.9,6.9,3.9-0.8c0,0,0.7,6.2-1.2,6.3c-1.9,0.1,0,0,0,0S58.5,92.5,57.7,87.5z"/>
		<path class="st16" d="M63.9,85.1c0.2,1.9,19.6,0.1,19.6,0.1S63.6,83.2,63.9,85.1z"/>
	</g>
	<g>
		
			<linearGradient id="SVGID_00000097488760634162114790000014756046592063859624_" gradientUnits="userSpaceOnUse" x1="885.9377" y1="731.3267" x2="914.5041" y2="731.3267" gradientTransform="matrix(0.9976 -6.915393e-02 6.915393e-02 0.9976 -867.9512 -573.4894)">
			<stop  offset="0" style="stop-color:#FDFFC7"/>
			<stop  offset="0.9949" style="stop-color:#9EE62C"/>
		</linearGradient>
		
			<path style="fill:url(#SVGID_00000097488760634162114790000014756046592063859624_);stroke:#37A53F;stroke-width:0.75;stroke-miterlimit:10;" d="
			M66.1,89.9l26.2-1.2c0.7,0,1.3,0.3,1.6,0.9c0.8,1.4,1.8,4.1,0.5,6.8c-0.3,0.5-0.8,0.9-1.4,0.9l-25.3,2.4c-0.1,0-0.2-0.1-0.2-0.2
			C67.4,98.3,67.3,93,66.1,89.9z"/>
		
			<linearGradient id="SVGID_00000155831151197781495380000006091137213966117310_" gradientUnits="userSpaceOnUse" x1="885.9845" y1="733.968" x2="913.2501" y2="733.968" gradientTransform="matrix(0.9976 -6.915393e-02 6.915393e-02 0.9976 -867.9512 -573.4894)">
			<stop  offset="0" style="stop-color:#000000"/>
			<stop  offset="0.9949" style="stop-color:#000000"/>
		</linearGradient>
		<path style="opacity:0.2;fill:url(#SVGID_00000155831151197781495380000006091137213966117310_);" d="M66.6,96.4l24.9-1.6
			c0.6,0,1.2,0,1.5,0.1c0.6,0.3,1.5,0.8,0.1,1.4c-0.3,0.1-0.8,0.2-1.4,0.3l-24.2,1.8c-0.1,0-0.2,0-0.2,0
			C67.4,98.2,67.6,97,66.6,96.4z"/>
		<ellipse transform="matrix(0.9907 -0.1364 0.1364 0.9907 -12.277 9.9587)" class="st5" cx="66.5" cy="94.6" rx="1.9" ry="5"/>
		
			<linearGradient id="SVGID_00000165925217945483990460000000547942693195443364_" gradientUnits="userSpaceOnUse" x1="883.9871" y1="732.9432" x2="887.9484" y2="732.9432" gradientTransform="matrix(0.9976 -6.915393e-02 6.915393e-02 0.9976 -867.9512 -573.4894)">
			<stop  offset="0" style="stop-color:#000000"/>
			<stop  offset="0.9949" style="stop-color:#000000"/>
		</linearGradient>
		<path style="opacity:0.22;fill:url(#SVGID_00000165925217945483990460000000547942693195443364_);" d="M64.4,94
			c0,0,2.9,6.9,3.9-0.8c0,0,0.7,6.2-1.2,6.3c-1.9,0.1,0,0,0,0S65.2,99,64.4,94z"/>
		<path class="st16" d="M70.6,91.6c0.2,1.9,19.6,0.1,19.6,0.1S70.4,89.7,70.6,91.6z"/>
	</g>
	<g>
		
			<linearGradient id="SVGID_00000013186004795578062970000008353894870702208446_" gradientUnits="userSpaceOnUse" x1="3897.7427" y1="-369.9202" x2="3954.5278" y2="-369.9202" gradientTransform="matrix(-0.7242 -0.6847 -0.6556 0.7203 2675.813 3051.4346)">
			<stop  offset="0" style="stop-color:#FDFFC7"/>
			<stop  offset="0.1345" style="stop-color:#E8F9A5"/>
			<stop  offset="0.3282" style="stop-color:#CEF37A"/>
			<stop  offset="0.5161" style="stop-color:#B9ED58"/>
			<stop  offset="0.6941" style="stop-color:#AAE940"/>
			<stop  offset="0.8581" style="stop-color:#A1E731"/>
			<stop  offset="0.9949" style="stop-color:#9EE62C"/>
		</linearGradient>
		
			<path style="fill:url(#SVGID_00000013186004795578062970000008353894870702208446_);stroke:#328E57;stroke-width:0.75;stroke-miterlimit:10;" d="
			M67.7,108.9c-3.5-3.3-9-13.1-11-16.3c-1.9-3.2-0.8-5.2-1-7.9c-0.3-2.7,0.7-4.2,2-4.7c1.2-0.5,1.8-2,1.1-5.1
			c-0.7-3.1,0.9-4.4,4.5-4.7c3.6-0.3,1.8,2.1,2.8,3.6c1,1.5,1.4-1.1,3.4-1.1c2,0,1.6,3.4,2.2,4.7c0.6,1.3,1.3-0.8,4.1,0.9
			c2.7,1.7,0.6,5.8,0.8,7.2c0.2,1.4,1-1.1,2.3-0.1c1.3,1,0.3,4.1,2,4.9c1.7,0.7,1.5,1.8,0.7,3.3c-0.8,1.5,0.9,3.7,2.3,5
			c1.4,1.3,1.2,3.8,3.1,5.9c1.8,2.1,0.6-3.5,1.3-4.9c0.7-1.4,2.3,4.8,2.2,6.5c-0.1,1.8,5,6.9,5.3,7.7c0.2,0.8-0.7,2.4-0.7,2.4
			c-5.7,0.7-14.8-1.8-27.5-7.6"/>
		<path class="st1" d="M93.6,116c-2.1-1.4-4.3-6.5-5.3-7.8c-1-1.3-4.9-2.4-4.9-4.5c0-2.2-1.5-5.6-3.7-6.5c-2.2-0.8-0.9-2.9-1.1-4.6
			c-0.1-1.8-1.1-4.1-2.2-3.4c-1,0.7-3.7,0.2-3.4-1.7c0.4-1.9,3.1-5.7-0.2-5.7c-3.3,0-4.3-1.3-6.3-2.8c-2-1.5-4.5,0.6-4.6,2.6
			c-0.1,2-2.6,4.1-2.7,5.9c-0.1,1.8-1.9,3.9-0.6,5.8c1.3,1.8,8.9,15.7,13.7,18"/>
		<path class="st2" d="M84.8,113.1c0.1-1.1-0.8-2.5-1.1-3.5c-0.5-2.1-0.6-4.1-0.5-6.2c0-0.1-0.1-0.1-0.1,0c-0.5,1.9-0.6,3.4-0.2,5.3
			c0.2,1,0.5,1.9,0.8,2.8c0.1,0.2,0.1,0.4,0.2,0.6c-1.8-1.9-3.5-3.9-5.1-6c-0.3-0.4-0.6-0.9-0.9-1.3c-0.4-1.9-1.3-3.6-1.4-5.6
			c-0.1-1.9,0-3.8,0.2-5.7c0-0.1-0.1-0.1-0.1,0c-0.5,2.2-0.9,4.4-0.6,6.7c0.1,0.6,0.2,1.3,0.3,1.9c-2.3-4.6-3.2-9.5-3.6-14.8
			c0-0.1-0.1-0.1-0.1,0c-0.1,5.2,0.5,10.8,3,15.4c-0.8-0.6-1.7-1.2-2.4-1.8c-1.7-1.5-3-3.4-4-5.4c0,0-0.1,0-0.1,0
			c0.7,1.9,1.6,3.7,3.1,5.1c1.4,1.3,2.8,3,4.5,3.9c1.7,2.5,3.7,4.9,5.7,7.2c-0.3-0.2-0.6-0.3-0.9-0.4c-1.4-0.5-2.9-1.1-4.3-1.4
			c-0.1,0-0.2,0.1-0.1,0.2c1,0.7,2.2,1,3.4,1.5c1.2,0.4,2.1,1.2,3.3,1.6"/>
		<path class="st3" d="M67.7,108.9c-3.5-3.3-9-13.1-11-16.3c-1.9-3.2-0.8-5.2-1-7.9c0-0.2,0-0.3,0-0.5c0.4,0.1,0.9,0.2,1.4,0.3
			c4.3,0.9,1.9,5.8,2.4,8.1c0.5,2.3,2.7,3.5,4.6,5.7c1.9,2.2,2.3,4.6,4.3,6.2c2,1.7,2.5-0.5,4.2,1.2c1.7,1.8,1.5,4.2,2.6,3.2
			c1.1-1,2.6,3.2,4.1,5c1.5,1.8,2.8-2.8,4.8-1.4c2,1.5,1.2,6.8,1.4,7.6C79.7,119.3,73.8,115.8,67.7,108.9z"/>
		<path class="st2" d="M73.3,110.8c-0.3,0.3-0.8,0.8-1.1,2.2c0.1,0.9,0.5,0.4,0.6,0c0.1-0.4,0.2-1,0.6-1.7
			C73.9,110.6,73.7,110.5,73.3,110.8z"/>
		<path class="st2" d="M72.1,107.6c-0.5,0.5-1.2,1.4-1.3,3.9c0.3,1.6,0.9,0.8,1,0c0.1-0.7,0.1-1.8,0.7-3
			C72.9,107.4,72.6,107.1,72.1,107.6z"/>
		<path class="st2" d="M69.5,107.4c-0.2,0.3-0.5,0.7-0.4,1.7c0.3,0.6,0.5,0.1,0.5-0.2s-0.1-0.7,0.1-1.2
			C69.9,107.1,69.7,107.1,69.5,107.4z"/>
		<path class="st2" d="M70.7,107.6c-0.3,0.4-0.7,1-0.6,2.5c0.3,0.9,0.6,0.3,0.6-0.1c0-0.4,0-1,0.3-1.8
			C71.2,107.3,71,107.2,70.7,107.6z"/>
	</g>
	<g>
		
			<linearGradient id="SVGID_00000145023940031407183430000002557296951304594350_" gradientUnits="userSpaceOnUse" x1="3981.8853" y1="-494.8042" x2="4028.0479" y2="-494.8042" gradientTransform="matrix(-0.596 -0.7988 -0.7694 0.5972 2108.9617 3553.2927)">
			<stop  offset="0" style="stop-color:#FDFFC7"/>
			<stop  offset="0.1345" style="stop-color:#E8F9A5"/>
			<stop  offset="0.3282" style="stop-color:#CEF37A"/>
			<stop  offset="0.5161" style="stop-color:#B9ED58"/>
			<stop  offset="0.6941" style="stop-color:#AAE940"/>
			<stop  offset="0.8581" style="stop-color:#A1E731"/>
			<stop  offset="0.9949" style="stop-color:#9EE62C"/>
		</linearGradient>
		
			<path style="fill:url(#SVGID_00000145023940031407183430000002557296951304594350_);stroke:#328E57;stroke-width:0.75;stroke-miterlimit:10;" d="
			M95.1,67.4c-2.4-3.1-5.4-11.7-6.5-14.6c-1.1-2.9,0.1-4.2,0.3-6.4c0.2-2.2,1.2-3.3,2.2-3.5c1.1-0.2,1.7-1.3,1.6-3.9
			c-0.1-2.6,1.4-3.4,4.3-3.1c2.9,0.3,1.2,1.9,1.7,3.3c0.6,1.3,1.3-0.7,2.9-0.4c1.6,0.3,0.8,2.9,1.1,4.1c0.3,1.1,1.2-0.5,3.1,1.3
			c2,1.8-0.4,4.7-0.4,5.9c0,1.2,1-0.7,1.8,0.2c0.9,1-0.3,3.4,0.9,4.2c1.2,0.8,0.9,1.6,0.1,2.7c-0.8,1.1,0.2,3.1,1.1,4.3
			c0.9,1.2,0.5,3.2,1.6,5.1c1.2,1.9,1-2.7,1.7-3.7c0.7-1,1.2,4.1,0.9,5.6c-0.3,1.4,3.1,6.3,3.1,6.9c0.1,0.7-0.9,1.9-0.9,1.9
			C111.3,77.1,104.4,73.8,95.1,67.4"/>
		<path class="st1" d="M114.9,76.7c-1.5-1.4-2.6-5.8-3.1-7c-0.6-1.2-3.6-2.6-3.3-4.3c0.3-1.7-0.4-4.7-2.1-5.7
			c-1.6-1-0.3-2.4-0.2-3.9c0.1-1.4-0.3-3.4-1.3-3c-0.9,0.4-3-0.4-2.5-1.8c0.6-1.5,3.3-4.1,0.6-4.6c-2.7-0.5-3.2-1.7-4.7-3.1
			c-1.4-1.4-3.7-0.1-4,1.5c-0.3,1.6-2.6,2.9-2.9,4.3c-0.3,1.4-2,2.9-1.3,4.5c0.8,1.6,4.9,13.8,8.5,16.3"/>
		<path class="st2" d="M108.2,73.1c0.3-0.9-0.3-2.1-0.4-3c-0.1-1.8,0.1-3.4,0.4-5.1c0-0.1-0.1-0.1-0.1,0c-0.6,1.4-1,2.7-0.9,4.2
			c0,0.8,0.1,1.6,0.3,2.4c0,0.2,0,0.4,0.1,0.5c-1.2-1.8-2.3-3.6-3.3-5.5c-0.2-0.4-0.4-0.8-0.6-1.2c-0.1-1.6-0.5-3-0.3-4.7
			c0.2-1.5,0.5-3,1-4.5c0-0.1-0.1-0.1-0.1,0c-0.7,1.7-1.3,3.4-1.4,5.3c0,0.5-0.1,1,0,1.6c-1.2-4-1.3-8-0.8-12.4c0,0-0.1-0.1-0.1,0
			c-0.8,4.2-1.1,8.7,0.3,12.8c-0.5-0.6-1.2-1.2-1.6-1.8c-1.2-1.5-1.9-3.1-2.4-4.9c0,0-0.1,0-0.1,0c0.3,1.6,0.8,3.2,1.8,4.5
			c0.9,1.2,1.8,2.8,3.1,3.8c1,2.3,2.3,4.4,3.6,6.5c-0.2-0.2-0.4-0.3-0.6-0.4c-1.1-0.6-2.1-1.3-3.3-1.8c-0.1,0-0.1,0.1-0.1,0.1
			c0.7,0.7,1.6,1.1,2.5,1.7c0.9,0.5,1.5,1.3,2.4,1.8"/>
		<path class="st3" d="M95.1,67.4c-2.4-3.1-5.4-11.7-6.5-14.6c-1.1-2.9,0.1-4.2,0.3-6.4c0-0.1,0-0.3,0-0.4c0.3,0.1,0.7,0.3,1.1,0.4
			c3.3,1.3,0.7,4.9,0.8,6.8c0.1,1.9,1.7,3.2,2.9,5.2c1.2,2,1.2,4,2.6,5.6c1.4,1.6,2.1-0.1,3.2,1.6c1.1,1.7,0.6,3.6,1.6,2.9
			c1-0.6,1.6,2.9,2.6,4.6c0.9,1.6,2.7-1.9,4.1-0.4c1.4,1.5,0,5.6,0.1,6.3C103.3,77.4,99,73.8,95.1,67.4z"/>
		<path class="st2" d="M99.3,69.7c-0.3,0.2-0.8,0.5-1.2,1.6c0,0.8,0.4,0.4,0.5,0.1c0.1-0.3,0.3-0.8,0.7-1.3
			C99.8,69.6,99.7,69.5,99.3,69.7z"/>
		<path class="st2" d="M98.8,67c-0.5,0.3-1.1,1-1.6,2.9c0,1.3,0.6,0.7,0.8,0.2c0.2-0.6,0.3-1.4,0.9-2.3C99.5,66.9,99.2,66.7,98.8,67
			z"/>
		<path class="st2" d="M96.8,66.4c-0.2,0.2-0.5,0.5-0.5,1.3c0.1,0.5,0.4,0.2,0.4-0.1c0-0.2,0-0.6,0.3-1C97.1,66.3,97,66.2,96.8,66.4
			z"/>
		<path class="st2" d="M97.7,66.8c-0.3,0.2-0.7,0.7-0.9,1.9c0.1,0.8,0.4,0.4,0.5,0c0.1-0.3,0.1-0.8,0.5-1.4
			C98.2,66.6,98,66.5,97.7,66.8z"/>
	</g>
	<path class="st47" d="M71.8,66c1.3-2,0.1-3.4,0.8-5.3c1.1-2.9,2.4-0.1,3.7-0.3c0.8-0.2,0.5-0.9,1.4-0.8c0.9,0.1,0.4,1.4,1.5,0.1
		c1.1-1.4,1.2-4,3.5-3.8c1.1,0.1,1.1,1.7,1.8,2.3c1,1,1.6-1.1,2.7-0.4c0.9,0.6,0.1,2.1,0.9,2.5c0.9,0.4,2.6-1.2,3.6-1.2
		c1.8-0.1,1.4,2,1.6,3.5c0.3,2.5,2.3,0.9,3.7,2.2c1.6,1.5,1.2,6.5-0.9,7.6c-1.9,1-4.2,0.6-6.1,0.5c-6-0.3-10.9-2.1-16-5L71.8,66z"/>
	<path class="st47" d="M58.4,38c1.3-2,0.1-3.4,0.8-5.3c1.1-2.9,2.4-0.1,3.7-0.3c0.8-0.2,0.5-0.9,1.4-0.8c0.9,0.1,0.4,1.4,1.5,0.1
		c1.1-1.4,1.2-4,3.5-3.8c1.1,0.1,1.1,1.7,1.8,2.3c1,1,1.6-1.1,2.7-0.4c0.9,0.6,0.1,2.1,0.9,2.5c0.9,0.4,2.6-1.2,3.6-1.2
		c1.8-0.1,1.4,2,1.6,3.5c0.3,2.5,2.3,0.9,3.7,2.2c1.6,1.5,1.2,6.5-0.9,7.6c-1.9,1-4.2,0.6-6.1,0.5c-6-0.3-10.9-2.1-16-5L58.4,38z"/>
	<path class="st9" d="M60.4,48.8c1.3-2,0.1-3.4,0.8-5.3c1.1-2.9,2.4-0.1,3.7-0.3c0.8-0.2,0.5-0.9,1.4-0.8c0.9,0.1,0.4,1.4,1.5,0.1
		c1.1-1.4,1.2-4,3.5-3.8c1.1,0.1,1.1,1.7,1.8,2.3c1,1,1.6-1.1,2.7-0.4c0.9,0.6,0.1,2.1,0.9,2.5c0.9,0.4,2.6-1.2,3.6-1.2
		c1.8-0.1,1.4,2,1.6,3.5c0.3,2.5,2.3,0.9,3.7,2.2c1.6,1.5,1.2,6.5-0.9,7.6c-1.9,1-4.2,0.6-6.1,0.5c-6-0.3-10.9-2.1-16-5L60.4,48.8z"
		/>
	<g>
		
			<linearGradient id="SVGID_00000170258319659621244650000010563464440879431063_" gradientUnits="userSpaceOnUse" x1="5040.3784" y1="15.0327" x2="5087.5381" y2="15.0327" gradientTransform="matrix(0.9913 0.1031 -0.1192 0.9667 -4914.0791 -442.7161)">
			<stop  offset="0" style="stop-color:#FDFFC7"/>
			<stop  offset="0.1345" style="stop-color:#E8F9A5"/>
			<stop  offset="0.3282" style="stop-color:#CEF37A"/>
			<stop  offset="0.5161" style="stop-color:#B9ED58"/>
			<stop  offset="0.6941" style="stop-color:#AAE940"/>
			<stop  offset="0.8581" style="stop-color:#A1E731"/>
			<stop  offset="0.9949" style="stop-color:#9EE62C"/>
		</linearGradient>
		
			<path style="fill:url(#SVGID_00000170258319659621244650000010563464440879431063_);stroke:#328E57;stroke-width:0.75;stroke-miterlimit:10;" d="
			M100.3,105.1c3.9,0.4,13.1-1.4,16.2-1.9c3.1-0.5,3.7-2.3,5.5-3.6c1.8-1.3,2.3-2.7,1.9-3.8c-0.4-1,0.3-2.2,2.6-3.4
			c2.3-1.2,2.3-3,0.5-5.4c-1.8-2.4-2.3,0-3.8,0.2c-1.5,0.2-0.1-1.5-1.1-2.7c-1.1-1.2-3,0.8-4.1,1.2c-1.1,0.4-0.2-1.3-2.8-2.1
			c-2.6-0.8-4,2.8-5,3.4c-1,0.6,0.1-1.2-1.2-1.5c-1.3-0.3-2.8,2-4.2,1.4c-1.4-0.7-1.9,0-2.5,1.3c-0.5,1.3-2.8,1.4-4.4,1.2
			c-1.6-0.2-3.1,1.3-5.4,1.3c-2.3,0,1.8-2.3,2.3-3.5c0.5-1.2-4.3,1.1-5.3,2.1c-1.1,1-7.1,0.6-7.7,0.9c-0.6,0.3-1.2,1.7-1.2,1.7
			C83.4,95.9,89.9,100.3,100.3,105.1"/>
		<path class="st1" d="M81.8,92.6c2,0.6,6.4-0.8,7.7-0.9c1.3-0.1,4.2,1.8,5.5,0.6c1.4-1.2,4.4-2.1,6.1-1.2c1.7,0.9,2.3-1,3.5-1.8
			c1.2-0.9,3.2-1.5,3.3-0.5c0.1,1,1.9,2.4,2.9,1.2c1-1.3,1.9-5,3.7-2.9c1.8,2.1,3.2,2,5.2,2.4c2,0.5,2.1,3.2,0.8,4.3
			c-1.2,1.1-1.2,3.8-2.3,4.8c-1.1,1-1.5,3.3-3.3,3.5c-1.8,0.2-14.7,2.9-18.7,1.1"/>
		<path class="st2" d="M88.5,96.6c0.6-0.7,2-0.8,2.8-1.2c1.6-0.8,2.9-1.9,4.2-3c0,0,0.1,0,0.1,0.1c-0.9,1.3-1.8,2.3-3.2,3.1
			c-0.7,0.4-1.4,0.7-2.2,1c-0.2,0.1-0.3,0.1-0.5,0.2c2.2,0.1,4.4,0.1,6.5,0c0.5,0,0.9-0.1,1.3-0.1c1.4-0.8,2.9-1.1,4.3-2.2
			c1.2-1,2.4-2.1,3.4-3.2c0,0,0.1,0,0.1,0.1c-1.1,1.5-2.3,3-3.9,4c-0.4,0.3-0.9,0.6-1.4,0.9c4.1-1,7.7-3.1,11.3-5.8c0,0,0.1,0,0,0.1
			c-3.2,2.9-7,5.5-11.4,6.4c0.8,0.2,1.7,0.4,2.4,0.5c1.9,0.2,3.7,0,5.6-0.4c0,0,0.1,0.1,0,0.1c-1.6,0.6-3.2,1-4.9,0.8
			c-1.6-0.2-3.4-0.2-4.9-0.7c-2.5,0.3-5.1,0.3-7.6,0.3c0.3,0.1,0.5,0.2,0.7,0.3c1.1,0.6,2.2,1.2,3.3,1.9c0.1,0.1,0,0.2-0.1,0.1
			c-1-0.3-1.9-0.8-2.8-1.3c-0.9-0.5-1.9-0.7-2.8-1.2"/>
		<path class="st2" d="M83.7,92C83.7,92,83.7,92,83.7,92c-0.4,1.2-1.3,2-2.4,2.7"/>
		<path class="st3" d="M100.3,105.1c3.9,0.4,13.1-1.4,16.2-1.9c3.1-0.5,3.7-2.3,5.5-3.6c0.1-0.1,0.2-0.2,0.3-0.2
			c-0.3-0.2-0.6-0.5-0.9-0.7c-2.9-2.2-4.7,2-6.4,2.9c-1.7,0.9-3.7,0.2-6.1,0.2c-2.4,0-4.1,1-6.3,0.7c-2.1-0.4-1-1.9-3-2
			c-2-0.1-3.4,1.4-3.4,0.1c0-1.2-3.4,0.1-5.4,0.1c-1.9,0,0.3-3.3-1.7-3.8c-2-0.5-4.9,2.9-5.6,3.2C87.3,103.2,92.7,105,100.3,105.1z"
			/>
		<path class="st2" d="M96.1,102.6c0,0.4,0,1-0.8,1.9c-0.7,0.4-0.6-0.1-0.4-0.4c0.2-0.3,0.6-0.6,0.8-1.3
			C95.9,102.2,96.1,102.2,96.1,102.6z"/>
		<path class="st2" d="M98.8,101.7c-0.1,0.6-0.3,1.5-1.7,2.9c-1.2,0.7-1-0.1-0.5-0.6c0.4-0.4,1.1-1,1.5-2
			C98.5,101,98.8,101.1,98.8,101.7z"/>
		<path class="st2" d="M100.3,103.2c-0.1,0.3-0.2,0.7-0.9,1.1c-0.5,0.1-0.3-0.2-0.2-0.4s0.5-0.3,0.7-0.7S100.4,102.9,100.3,103.2z"
			/>
		<path class="st2" d="M99.5,102.5c-0.1,0.4-0.3,0.9-1.2,1.7c-0.7,0.3-0.5-0.2-0.3-0.4c0.3-0.2,0.7-0.5,1-1.2
			C99.4,102,99.6,102.2,99.5,102.5z"/>
	</g>
	<g>
		
			<linearGradient id="SVGID_00000181800448290636584610000000542774885890299277_" gradientUnits="userSpaceOnUse" x1="5031.6636" y1="5.1315" x2="5078.8228" y2="5.1315" gradientTransform="matrix(0.9913 0.1031 -0.1192 0.9667 -4914.0791 -442.7161)">
			<stop  offset="0" style="stop-color:#FDFFC7"/>
			<stop  offset="0.1345" style="stop-color:#E8F9A5"/>
			<stop  offset="0.3282" style="stop-color:#CEF37A"/>
			<stop  offset="0.5161" style="stop-color:#B9ED58"/>
			<stop  offset="0.6941" style="stop-color:#AAE940"/>
			<stop  offset="0.8581" style="stop-color:#A1E731"/>
			<stop  offset="0.9949" style="stop-color:#9EE62C"/>
		</linearGradient>
		
			<path style="fill:url(#SVGID_00000181800448290636584610000000542774885890299277_);stroke:#328E57;stroke-width:0.75;stroke-miterlimit:10;" d="
			M92.8,94.6c3.9,0.4,13.1-1.4,16.2-1.9c3.1-0.5,3.7-2.3,5.5-3.6c1.8-1.3,2.3-2.7,1.9-3.8c-0.4-1,0.3-2.2,2.6-3.4
			c2.3-1.2,2.3-3,0.5-5.4c-1.8-2.4-2.3,0-3.8,0.2c-1.5,0.2-0.1-1.5-1.1-2.7c-1.1-1.2-3,0.8-4.1,1.2c-1.1,0.4-0.2-1.3-2.8-2.1
			c-2.6-0.8-4,2.8-5,3.4c-1,0.6,0.1-1.2-1.2-1.5c-1.3-0.3-2.8,2-4.2,1.4c-1.4-0.7-1.9,0-2.5,1.3c-0.5,1.3-2.8,1.4-4.4,1.2
			c-1.6-0.2-3.1,1.3-5.4,1.3c-2.3,0,1.8-2.3,2.3-3.5c0.5-1.2-4.3,1.1-5.3,2.1c-1.1,1-7.1,0.6-7.7,0.9c-0.6,0.3-1.2,1.7-1.2,1.7
			C75.9,85.5,82.4,89.9,92.8,94.6"/>
		<path class="st1" d="M74.4,82.1c2,0.6,6.4-0.8,7.7-0.9c1.3-0.1,4.2,1.8,5.5,0.6c1.4-1.2,4.4-2.1,6.1-1.2c1.7,0.9,2.3-1,3.5-1.8
			c1.2-0.9,3.2-1.5,3.3-0.5c0.1,1,1.9,2.4,2.9,1.2c1-1.3,1.9-5,3.7-2.9c1.8,2.1,3.2,2,5.2,2.4c2,0.5,2.1,3.2,0.8,4.3
			c-1.2,1.1-1.2,3.8-2.3,4.8c-1.1,1-1.5,3.3-3.3,3.5c-1.8,0.2-14.7,2.9-18.7,1.1"/>
		<path class="st2" d="M81,86.2c0.6-0.7,2-0.8,2.8-1.2c1.6-0.8,2.9-1.9,4.2-3c0,0,0.1,0,0.1,0.1c-0.9,1.3-1.8,2.3-3.2,3.1
			c-0.7,0.4-1.4,0.7-2.2,1c-0.2,0.1-0.3,0.1-0.5,0.2c2.2,0.1,4.4,0.1,6.5,0c0.5,0,0.9-0.1,1.3-0.1c1.4-0.8,2.9-1.1,4.3-2.2
			c1.2-1,2.4-2.1,3.4-3.2c0,0,0.1,0,0.1,0.1c-1.1,1.5-2.3,3-3.9,4c-0.4,0.3-0.9,0.6-1.4,0.9c4.1-1,7.7-3.1,11.3-5.8c0,0,0.1,0,0,0.1
			c-3.2,2.9-7,5.5-11.4,6.4c0.8,0.2,1.7,0.4,2.4,0.5c1.9,0.2,3.7,0,5.6-0.4c0,0,0.1,0.1,0,0.1c-1.6,0.6-3.2,1-4.9,0.8
			c-1.6-0.2-3.4-0.2-4.9-0.7c-2.5,0.3-5.1,0.3-7.6,0.3c0.3,0.1,0.5,0.2,0.7,0.3c1.1,0.6,2.2,1.2,3.3,1.9c0.1,0.1,0,0.2-0.1,0.1
			c-1-0.3-1.9-0.8-2.8-1.3c-0.9-0.5-1.9-0.7-2.8-1.2"/>
		<path class="st2" d="M76.2,81.6C76.2,81.5,76.3,81.6,76.2,81.6c-0.4,1.2-1.3,2-2.4,2.7"/>
		<path class="st3" d="M92.8,94.6c3.9,0.4,13.1-1.4,16.2-1.9c3.1-0.5,3.7-2.3,5.5-3.6c0.1-0.1,0.2-0.2,0.3-0.2
			c-0.3-0.2-0.6-0.5-0.9-0.7c-2.9-2.2-4.7,2-6.4,2.9c-1.7,0.9-3.7,0.2-6.1,0.2c-2.4,0-4.1,1-6.3,0.7c-2.1-0.4-1-1.9-3-2
			c-2-0.1-3.4,1.4-3.4,0.1c0-1.2-3.4,0.1-5.4,0.1c-1.9,0,0.3-3.3-1.7-3.8c-2-0.5-4.9,2.9-5.6,3.2C79.9,92.7,85.2,94.6,92.8,94.6z"/>
		<path class="st2" d="M88.7,92.1c0,0.4,0,1-0.8,1.9c-0.7,0.4-0.6-0.1-0.4-0.4c0.2-0.3,0.6-0.6,0.8-1.3
			C88.4,91.7,88.6,91.8,88.7,92.1z"/>
		<path class="st2" d="M91.3,91.2c-0.1,0.6-0.3,1.5-1.7,2.9c-1.2,0.7-1-0.1-0.5-0.6c0.4-0.4,1.1-1,1.5-2S91.3,90.6,91.3,91.2z"/>
		<path class="st2" d="M92.8,92.7c-0.1,0.3-0.2,0.7-0.9,1.1c-0.5,0.1-0.3-0.2-0.2-0.4c0.2-0.2,0.5-0.3,0.7-0.7S92.9,92.4,92.8,92.7z
			"/>
		<path class="st2" d="M92.1,92.1c-0.1,0.4-0.3,0.9-1.2,1.7c-0.7,0.3-0.5-0.2-0.3-0.4c0.3-0.2,0.7-0.5,1-1.2
			C91.9,91.6,92.1,91.7,92.1,92.1z"/>
	</g>
	<g>
		
			<linearGradient id="SVGID_00000092443264183874614090000017817645673397460898_" gradientUnits="userSpaceOnUse" x1="4624.8838" y1="598.4318" x2="4657.5" y2="598.4318" gradientTransform="matrix(0.4739 -0.8768 0.8479 0.4793 -2679.7573 3841.9143)">
			<stop  offset="0" style="stop-color:#FDFFC7"/>
			<stop  offset="0.1345" style="stop-color:#E8F9A5"/>
			<stop  offset="0.3282" style="stop-color:#CEF37A"/>
			<stop  offset="0.5161" style="stop-color:#B9ED58"/>
			<stop  offset="0.6941" style="stop-color:#AAE940"/>
			<stop  offset="0.8581" style="stop-color:#A1E731"/>
			<stop  offset="0.9949" style="stop-color:#9EE62C"/>
		</linearGradient>
		
			<path style="fill:url(#SVGID_00000092443264183874614090000017817645673397460898_);stroke:#328E57;stroke-width:0.75;stroke-miterlimit:10;" d="
			M33.3,64.9c1.3-2.4,2.6-8.8,3.1-10.9c0.5-2.1-0.5-3-0.8-4.5c-0.3-1.5-1.1-2.2-1.9-2.2c-0.8,0-1.3-0.7-1.5-2.6
			C32,43,30.8,42.5,28.8,43c-2,0.5-0.6,1.5-0.9,2.5c-0.3,1-1-0.4-2.1,0c-1.1,0.4-0.3,2.1-0.4,2.9c-0.1,0.8-0.9-0.2-2.1,1.2
			c-1.2,1.4,0.7,3.3,0.9,4.1c0.1,0.8-0.7-0.4-1.3,0.3c-0.5,0.8,0.6,2.3-0.2,3c-0.8,0.7-0.5,1.2,0.2,1.9c0.7,0.7,0.2,2.2-0.4,3.1
			c-0.5,0.9,0,2.3-0.6,3.8c-0.6,1.5-1-1.8-1.6-2.4c-0.6-0.6-0.4,3,0,4c0.4,1-1.5,4.7-1.5,5.2c0,0.5,0.8,1.2,0.8,1.2
			C23,73.3,27.5,70.3,33.3,64.9"/>
		<path class="st1" d="M20.5,73.4c0.9-1.1,1.2-4.3,1.5-5.2c0.3-0.9,2.3-2.2,1.8-3.4c-0.4-1.2-0.2-3.4,0.9-4.2c1.1-0.8,0-1.7-0.3-2.7
			c-0.2-1-0.1-2.4,0.6-2.3c0.7,0.2,2.1-0.6,1.5-1.5c-0.5-1-2.7-2.5-0.9-3.2c1.8-0.6,2.1-1.5,2.9-2.7c0.8-1.2,2.6-0.5,3,0.6
			c0.4,1.1,2.1,1.8,2.5,2.7c0.4,1,1.7,1.8,1.3,3c-0.4,1.2-2,10.2-4.3,12.3"/>
		<path class="st2" d="M24.8,70.2c-0.3-0.6,0-1.5-0.1-2.1c-0.1-1.2-0.4-2.3-0.8-3.5c0,0,0-0.1,0.1,0c0.6,0.9,1,1.8,1.1,2.9
			c0.1,0.6,0.1,1.1,0,1.7c0,0.1,0,0.3,0,0.4c0.6-1.4,1.2-2.8,1.7-4.2c0.1-0.3,0.2-0.6,0.3-0.9c-0.1-1.1,0-2.2-0.3-3.3
			c-0.3-1-0.7-2.1-1.1-3c0,0,0-0.1,0.1,0c0.7,1.1,1.3,2.3,1.5,3.6c0.1,0.3,0.1,0.7,0.2,1.1c0.5-2.9,0.1-5.7-0.7-8.7c0,0,0,0,0,0
			c1,2.8,1.7,6,1.1,9c0.3-0.5,0.7-1,1-1.4c0.7-1.1,1-2.4,1.2-3.7c0,0,0.1,0,0,0c-0.1,1.1-0.2,2.3-0.8,3.4c-0.5,1-1,2.1-1.8,2.9
			c-0.5,1.7-1.1,3.3-1.9,4.9c0.1-0.1,0.3-0.3,0.4-0.4c0.7-0.5,1.4-1.1,2.1-1.6c0.1,0,0.1,0,0.1,0.1c-0.4,0.6-1,1-1.6,1.4
			c-0.6,0.4-1,1-1.5,1.5"/>
		<path class="st2" d="M20.6,72C20.6,72,20.6,72,20.6,72c0.6,0.6,0.9,1.3,1.1,2.2"/>
		<path class="st3" d="M33.3,64.9c1.3-2.4,2.6-8.8,3.1-10.9c0.5-2.1-0.5-3-0.8-4.5c0-0.1,0-0.2-0.1-0.3c-0.2,0.1-0.4,0.3-0.7,0.4
			c-2.2,1.3,0,3.5,0.2,4.8c0.1,1.3-0.8,2.4-1.5,3.9c-0.7,1.5-0.4,2.9-1.2,4.2c-0.8,1.3-1.4,0.2-2.1,1.4c-0.6,1.3,0,2.5-0.8,2.2
			c-0.8-0.3-0.8,2.2-1.3,3.5c-0.5,1.2-2.1-1-2.9,0.1c-0.8,1.2,0.6,3.9,0.6,4.4C28.7,72.7,31.3,69.7,33.3,64.9z"/>
		<path class="st2" d="M30.6,66.9c0.2,0.1,0.6,0.3,1,1c0.1,0.5-0.2,0.3-0.3,0.1c-0.1-0.2-0.3-0.5-0.6-0.8
			C30.3,66.9,30.4,66.8,30.6,66.9z"/>
		<path class="st2" d="M30.7,64.9c0.4,0.2,0.9,0.6,1.4,1.9c0.1,0.9-0.3,0.6-0.5,0.2s-0.4-0.9-0.9-1.5C30.2,64.9,30.4,64.8,30.7,64.9
			z"/>
		<path class="st2" d="M32.1,64.3c0.2,0.1,0.4,0.3,0.5,0.9c0,0.3-0.2,0.2-0.3,0c0-0.2-0.1-0.4-0.3-0.7
			C31.8,64.3,31.9,64.2,32.1,64.3z"/>
		<path class="st2" d="M31.5,64.7c0.2,0.1,0.5,0.4,0.8,1.2c0,0.6-0.3,0.3-0.4,0.1s-0.2-0.6-0.5-1C31.1,64.6,31.3,64.5,31.5,64.7z"/>
	</g>
	<g>
		
			<linearGradient id="SVGID_00000161590692428052045950000002963937707410477474_" gradientUnits="userSpaceOnUse" x1="4083.1143" y1="-555.2023" x2="4115.7305" y2="-555.2023" gradientTransform="matrix(-0.3279 -0.9412 -0.9135 0.3379 873.3121 4127.2529)">
			<stop  offset="0" style="stop-color:#FDFFC7"/>
			<stop  offset="0.1345" style="stop-color:#E8F9A5"/>
			<stop  offset="0.3282" style="stop-color:#CEF37A"/>
			<stop  offset="0.5161" style="stop-color:#B9ED58"/>
			<stop  offset="0.6941" style="stop-color:#AAE940"/>
			<stop  offset="0.8581" style="stop-color:#A1E731"/>
			<stop  offset="0.9949" style="stop-color:#9EE62C"/>
		</linearGradient>
		
			<path style="fill:url(#SVGID_00000161590692428052045950000002963937707410477474_);stroke:#328E57;stroke-width:0.75;stroke-miterlimit:10;" d="
			M29.3,85.7c-0.9-2.6-1.2-9.1-1.3-11.2c-0.1-2.2,1-2.8,1.6-4.3c0.6-1.4,1.5-1.9,2.2-1.9c0.8,0.1,1.4-0.5,1.9-2.3
			c0.5-1.8,1.6-2,3.6-1.2c1.9,0.8,0.4,1.5,0.5,2.6c0.1,1,1-0.2,2,0.3c1,0.5,0,2.1-0.1,3c-0.1,0.8,0.9-0.1,1.8,1.6
			c0.9,1.6-1.2,3.1-1.5,3.9c-0.3,0.8,0.8-0.3,1.2,0.5c0.4,0.8-0.9,2.2-0.3,3c0.7,0.8,0.3,1.3-0.5,1.9c-0.8,0.6-0.5,2.1-0.1,3.2
			c0.4,1-0.4,2.3,0,3.8c0.4,1.5,1.2-1.6,2-2.1c0.7-0.5-0.1,3-0.6,3.9c-0.5,0.9,0.7,4.9,0.6,5.3c-0.1,0.5-1,1.1-1,1.1
			C38.1,95.7,34.1,92,29.3,85.7"/>
		<path class="st1" d="M40.6,96.2c-0.7-1.2-0.5-4.4-0.6-5.4c-0.1-0.9-1.9-2.5-1.3-3.6c0.6-1.1,0.7-3.3-0.2-4.3
			c-0.9-1,0.3-1.7,0.7-2.6c0.4-0.9,0.5-2.4-0.2-2.3c-0.7,0.1-2-0.9-1.3-1.8c0.7-0.9,3.1-2.1,1.4-3c-1.7-0.9-1.8-1.8-2.5-3.1
			c-0.6-1.3-2.5-0.9-3,0.1c-0.6,1-2.4,1.4-2.9,2.3c-0.5,0.9-2,1.5-1.8,2.8c0.2,1.3,0.4,10.3,2.2,12.8"/>
		<path class="st2" d="M36.8,92.4c0.4-0.5,0.2-1.5,0.4-2.1c0.3-1.2,0.8-2.2,1.4-3.3c0,0,0-0.1-0.1,0c-0.7,0.8-1.2,1.6-1.5,2.7
			c-0.2,0.6-0.2,1.1-0.3,1.7c0,0.1,0,0.3-0.1,0.4c-0.4-1.5-0.8-2.9-1-4.4c-0.1-0.3-0.1-0.6-0.1-0.9c0.3-1.1,0.3-2.2,0.8-3.2
			c0.5-1,1-1.9,1.6-2.8c0,0,0-0.1-0.1,0c-0.9,1-1.6,2-2.1,3.3c-0.1,0.3-0.3,0.7-0.4,1.1c0-2.9,0.9-5.7,2.1-8.5c0,0,0-0.1,0,0
			c-1.4,2.6-2.6,5.6-2.5,8.7c-0.2-0.5-0.5-1-0.7-1.6c-0.5-1.2-0.6-2.5-0.6-3.8c0,0,0,0,0,0c-0.1,1.1-0.2,2.3,0.2,3.4
			c0.4,1,0.6,2.3,1.3,3.2c0.2,1.7,0.6,3.5,1,5.2c-0.1-0.2-0.2-0.3-0.3-0.4c-0.6-0.6-1.2-1.3-1.8-1.9c-0.1,0-0.1,0-0.1,0.1
			c0.3,0.6,0.8,1.1,1.3,1.6c0.5,0.5,0.8,1.2,1.2,1.7"/>
		<path class="st2" d="M40.7,94.8C40.7,94.8,40.7,94.8,40.7,94.8c-0.7,0.5-1.2,1.2-1.4,2"/>
		<path class="st3" d="M29.3,85.7c-0.9-2.6-1.2-9.1-1.3-11.2c-0.1-2.2,1-2.8,1.6-4.3c0-0.1,0.1-0.2,0.1-0.3c0.2,0.2,0.4,0.3,0.6,0.5
			c1.9,1.6-0.6,3.5-0.9,4.8c-0.4,1.3,0.4,2.5,0.8,4.1c0.4,1.6,0,2.9,0.5,4.3c0.6,1.4,1.4,0.4,1.8,1.7c0.4,1.4-0.4,2.5,0.5,2.3
			c0.8-0.2,0.5,2.3,0.8,3.6c0.3,1.3,2.2-0.7,2.8,0.6c0.6,1.3-1.2,3.8-1.3,4.3C32.6,94.2,30.5,90.9,29.3,85.7z"/>
		<path class="st2" d="M31.6,88.2c-0.3,0.1-0.6,0.2-1.2,0.8c-0.2,0.5,0.2,0.4,0.3,0.2s0.3-0.5,0.8-0.7
			C31.9,88.2,31.9,88.1,31.6,88.2z"/>
		<path class="st2" d="M31.8,86.2c-0.4,0.1-1,0.4-1.7,1.6c-0.3,0.9,0.2,0.6,0.5,0.3c0.2-0.3,0.5-0.9,1.1-1.3
			C32.3,86.3,32.2,86.1,31.8,86.2z"/>
		<path class="st2" d="M30.6,85.4c-0.2,0.1-0.4,0.3-0.6,0.8c0,0.4,0.2,0.2,0.3,0c0.1-0.1,0.1-0.4,0.4-0.6S30.7,85.3,30.6,85.4z"/>
		<path class="st2" d="M31.1,85.8c-0.2,0.1-0.6,0.3-1,1.1c-0.1,0.5,0.2,0.3,0.3,0.1s0.3-0.5,0.6-0.9C31.5,85.9,31.3,85.7,31.1,85.8z
			"/>
	</g>
	<g>
		
			<linearGradient id="SVGID_00000004536364536456231570000005574838954018581633_" gradientUnits="userSpaceOnUse" x1="4982.5879" y1="287.6172" x2="5020.313" y2="287.6172" gradientTransform="matrix(0.9303 -0.3577 0.3322 0.9156 -4651.5786 1595.0809)">
			<stop  offset="0" style="stop-color:#FDFFC7"/>
			<stop  offset="0.1345" style="stop-color:#E8F9A5"/>
			<stop  offset="0.3282" style="stop-color:#CEF37A"/>
			<stop  offset="0.5161" style="stop-color:#B9ED58"/>
			<stop  offset="0.6941" style="stop-color:#AAE940"/>
			<stop  offset="0.8581" style="stop-color:#A1E731"/>
			<stop  offset="0.9949" style="stop-color:#9EE62C"/>
		</linearGradient>
		
			<path style="fill:url(#SVGID_00000004536364536456231570000005574838954018581633_);stroke:#328E57;stroke-width:0.75;stroke-miterlimit:10;" d="
			M98,79.6c2.9-1.2,8.7-6.1,10.7-7.7c2-1.6,1.7-3.2,2.6-4.9c0.8-1.7,0.6-2.9,0-3.6c-0.6-0.6-0.6-1.8,0.6-3.6
			c1.2-1.8,0.5-3.1-1.6-4.3c-2.1-1.2-1.6,0.9-2.6,1.6c-1,0.7-0.6-1.1-1.8-1.6c-1.2-0.5-1.8,1.8-2.5,2.5c-0.7,0.7-0.6-0.9-2.7-0.5
			c-2.1,0.4-1.8,3.6-2.3,4.5c-0.5,0.9-0.3-1-1.4-0.7c-1,0.3-1.2,2.6-2.4,2.7c-1.2,0-1.4,0.8-1.2,2c0.1,1.2-1.5,2.2-2.6,2.6
			c-1.2,0.5-1.7,2.1-3.3,3c-1.6,0.9,0.5-2.4,0.4-3.5c-0.1-1.1-2.6,2.5-3,3.7c-0.4,1.2-4.8,3.2-5.1,3.7c-0.3,0.5-0.2,1.8-0.2,1.8
			C82.8,79.2,88.9,80,98,79.6"/>
		<path class="st1" d="M80.5,77.3c1.6-0.3,4.2-3.1,5.1-3.7c0.9-0.6,3.6-0.2,4.1-1.7c0.5-1.4,2.3-3.3,3.9-3.2
			c1.5,0.1,1.3-1.6,1.8-2.7c0.5-1.1,1.7-2.4,2.2-1.7c0.4,0.7,2.2,1.1,2.5-0.2c0.2-1.3-0.4-4.5,1.6-3.7c2,0.9,2.9,0.3,4.5-0.1
			c1.6-0.4,2.6,1.6,2.1,3c-0.5,1.3,0.6,3.4,0.1,4.5c-0.4,1.2,0.2,3.1-1.1,3.9c-1.2,0.8-9.3,7.9-12.8,8.1"/>
		<path class="st2" d="M86.6,77.8c0.2-0.8,1.1-1.4,1.5-2c0.8-1.3,1.4-2.5,1.9-3.9c0,0,0.1,0,0.1,0c-0.2,1.3-0.5,2.4-1.2,3.6
			c-0.4,0.6-0.8,1.1-1.2,1.6c-0.1,0.1-0.2,0.2-0.3,0.4c1.6-0.8,3.1-1.6,4.6-2.5c0.3-0.2,0.6-0.4,0.9-0.6c0.7-1.1,1.7-2,2.2-3.3
			c0.5-1.2,0.9-2.5,1.3-3.8c0-0.1,0.1,0,0.1,0c-0.2,1.6-0.6,3.1-1.3,4.6c-0.2,0.4-0.4,0.8-0.7,1.2c2.6-2.4,4.3-5.3,5.9-8.7
			c0,0,0.1,0,0.1,0c-1.2,3.4-3,6.9-5.7,9.3c0.6-0.2,1.3-0.3,1.9-0.6c1.4-0.5,2.6-1.4,3.8-2.5c0,0,0.1,0,0,0c-0.9,1-1.9,2-3.2,2.5
			c-1.2,0.5-2.5,1.2-3.7,1.4c-1.7,1.2-3.5,2.2-5.3,3.1c0.2,0,0.4,0,0.6,0c1,0.1,2,0.1,3,0.2c0.1,0,0.1,0.1,0,0.1
			c-0.8,0.2-1.6,0.1-2.4,0.1c-0.8,0-1.6,0.2-2.4,0.2"/>
		<path class="st2" d="M81.6,76.1C81.6,76.1,81.7,76.1,81.6,76.1c0.1,1.1-0.2,2-0.7,2.9"/>
		<path class="st3" d="M98,79.6c2.9-1.2,8.7-6.1,10.7-7.7c2-1.6,1.7-3.2,2.6-4.9c0.1-0.1,0.1-0.2,0.1-0.3c-0.3-0.1-0.6-0.1-0.9-0.2
			c-2.8-0.5-2.6,3.3-3.5,4.7c-0.9,1.4-2.5,1.6-4.2,2.5c-1.7,0.9-2.5,2.4-4.2,2.9c-1.6,0.6-1.4-1-2.8-0.3c-1.5,0.7-1.9,2.4-2.4,1.4
			c-0.4-0.9-2.4,1.4-3.7,2.2c-1.4,0.8-1-2.6-2.6-2.2c-1.6,0.4-2.4,4.1-2.8,4.6C88.2,83.2,92.6,82.5,98,79.6z"/>
		<path class="st2" d="M94.2,79.3c0.1,0.3,0.3,0.8,0.1,1.8c-0.3,0.6-0.4,0.1-0.4-0.2c0-0.3,0.2-0.7,0.1-1.3
			C93.8,79.1,94,79.1,94.2,79.3z"/>
		<path class="st2" d="M95.7,77.6c0.2,0.5,0.3,1.2-0.2,2.9c-0.6,1-0.7,0.3-0.6-0.2c0.1-0.5,0.4-1.2,0.3-2.1
			C95.2,77.2,95.5,77.2,95.7,77.6z"/>
		<path class="st2" d="M97.3,78.2c0.1,0.2,0.1,0.6-0.2,1.2c-0.3,0.3-0.3,0-0.2-0.2c0.1-0.2,0.2-0.4,0.2-0.8
			C97.1,77.9,97.3,77.9,97.3,78.2z"/>
		<path class="st2" d="M96.5,78c0.1,0.3,0.2,0.8-0.2,1.8c-0.4,0.5-0.5,0.1-0.4-0.2c0.1-0.3,0.3-0.7,0.3-1.3
			C96.3,77.7,96.4,77.7,96.5,78z"/>
	</g>
	<g>
		
			<linearGradient id="SVGID_00000045600129615362220400000011081719255559046820_" gradientUnits="userSpaceOnUse" x1="4243.9399" y1="580.5072" x2="4281.665" y2="580.5072" gradientTransform="matrix(-0.1961 -0.9772 0.9584 -0.1735 339.9282 4296.3911)">
			<stop  offset="0" style="stop-color:#FDFFC7"/>
			<stop  offset="0.1345" style="stop-color:#E8F9A5"/>
			<stop  offset="0.3282" style="stop-color:#CEF37A"/>
			<stop  offset="0.5161" style="stop-color:#B9ED58"/>
			<stop  offset="0.6941" style="stop-color:#AAE940"/>
			<stop  offset="0.8581" style="stop-color:#A1E731"/>
			<stop  offset="0.9949" style="stop-color:#9EE62C"/>
		</linearGradient>
		
			<path style="fill:url(#SVGID_00000045600129615362220400000011081719255559046820_);stroke:#328E57;stroke-width:0.75;stroke-miterlimit:10;" d="
			M70.4,30.6c-0.7-3.1-4.6-9.6-5.8-11.9c-1.2-2.2-2.8-2.3-4.4-3.4c-1.5-1.1-2.8-1.1-3.5-0.6c-0.7,0.5-1.9,0.3-3.5-1.2
			c-1.6-1.5-3-1.1-4.5,0.8c-1.5,1.9,0.6,1.7,1.2,2.8c0.6,1.1-1.2,0.4-1.9,1.5c-0.7,1.1,1.4,2.1,2,2.9c0.6,0.8-1,0.5-0.9,2.6
			c0,2.1,3.3,2.4,4.1,3c0.8,0.6-1,0.2-0.9,1.2c0.1,1,2.4,1.6,2.2,2.8c-0.2,1.2,0.5,1.5,1.7,1.6c1.2,0.1,1.9,1.8,2.2,3
			c0.3,1.2,1.8,2,2.4,3.8c0.6,1.7-2.3-0.9-3.4-1c-1.1-0.1,2,3,3.1,3.6c1.1,0.6,2.3,5.3,2.7,5.7c0.4,0.4,1.7,0.5,1.7,0.5
			C67.4,45.5,69.3,39.6,70.4,30.6"/>
		<path class="st1" d="M65.1,47.4c0-1.6-2.3-4.7-2.7-5.7c-0.4-1,0.4-3.6-0.9-4.3c-1.3-0.8-2.9-2.8-2.6-4.3c0.3-1.5-1.4-1.5-2.4-2.2
			c-1-0.7-2.1-2.1-1.3-2.4c0.8-0.3,1.5-2,0.2-2.5c-1.3-0.5-4.5-0.3-3.4-2.2c1.2-1.8,0.8-2.8,0.6-4.5c-0.1-1.6,2.1-2.3,3.3-1.6
			c1.2,0.7,3.4,0,4.5,0.6c1.1,0.6,3.1,0.4,3.7,1.7c0.6,1.4,6.2,10.5,5.8,14"/>
		<path class="st2" d="M66.6,41.5c-0.7-0.3-1.2-1.3-1.7-1.8c-1.1-1-2.3-1.8-3.6-2.5c0,0,0-0.1,0-0.1c1.3,0.4,2.3,0.9,3.3,1.8
			c0.5,0.5,1,0.9,1.4,1.5c0.1,0.1,0.2,0.2,0.3,0.3c-0.5-1.7-1-3.3-1.7-4.9c-0.1-0.3-0.3-0.7-0.4-1c-1-0.9-1.7-2-2.9-2.7
			c-1.1-0.7-2.3-1.3-3.5-1.9c0,0,0-0.1,0-0.1c1.5,0.5,3,1.1,4.3,2.1c0.3,0.3,0.7,0.5,1.1,0.8c-1.9-2.9-4.5-5.1-7.6-7.2
			c0,0,0-0.1,0,0c3.2,1.8,6.3,4.1,8.2,7.2c-0.1-0.7-0.1-1.3-0.2-2c-0.3-1.5-0.9-2.8-1.8-4.1c0,0,0-0.1,0.1,0c0.9,1.1,1.7,2.2,2,3.5
			c0.3,1.2,0.8,2.6,0.7,3.9c0.9,1.9,1.6,3.8,2.2,5.7c0-0.2,0-0.4,0.1-0.6c0.2-1,0.4-2,0.7-2.9c0-0.1,0.1,0,0.1,0
			c0.1,0.8-0.2,1.6-0.3,2.4c-0.2,0.8-0.1,1.6-0.2,2.4"/>
		<path class="st2" d="M64.2,46.1C64.2,46.1,64.2,46.1,64.2,46.1c1.1,0,2,0.5,2.8,1.2"/>
		<path class="st3" d="M70.4,30.6c-0.7-3.1-4.6-9.6-5.8-11.9c-1.2-2.2-2.8-2.3-4.4-3.4c-0.1-0.1-0.2-0.1-0.3-0.2
			c-0.1,0.3-0.2,0.6-0.3,0.9c-1,2.7,2.8,3.1,4,4.2c1.2,1.1,1.1,2.7,1.7,4.6c0.6,1.8,1.9,2.9,2.2,4.6c0.3,1.7-1.2,1.2-0.8,2.8
			c0.5,1.6,2,2.3,1,2.6c-1,0.3,1,2.6,1.5,4c0.5,1.5-2.8,0.6-2.6,2.2c0.1,1.6,3.7,3.1,4.1,3.5C72.3,40.9,72.3,36.4,70.4,30.6z"/>
		<path class="st2" d="M69.5,34.3c0.3-0.1,0.8-0.2,1.8,0.2c0.5,0.4,0.1,0.5-0.2,0.4c-0.3-0.1-0.7-0.3-1.3-0.3
			C69.2,34.6,69.2,34.4,69.5,34.3z"/>
		<path class="st2" d="M68,32.5c0.5-0.1,1.3-0.1,2.8,0.7c0.9,0.8,0.1,0.8-0.3,0.5s-1.1-0.6-2-0.7C67.5,32.9,67.6,32.6,68,32.5z"/>
		<path class="st2" d="M68.8,31c0.2,0,0.6,0,1.2,0.4c0.2,0.3-0.1,0.3-0.3,0.2s-0.4-0.3-0.8-0.4C68.5,31.1,68.6,31,68.8,31z"/>
		<path class="st2" d="M68.5,31.8c0.3,0,0.8,0,1.7,0.5c0.4,0.5,0,0.5-0.3,0.3c-0.3-0.1-0.6-0.4-1.2-0.5C68.2,32,68.2,31.8,68.5,31.8
			z"/>
	</g>
	<g>
		
			<linearGradient id="SVGID_00000132799761978971451510000013129903168931296414_" gradientUnits="userSpaceOnUse" x1="-381.0004" y1="581.3976" x2="-340.3239" y2="581.3976" gradientTransform="matrix(0.3747 -0.9272 0.9272 0.3747 -332.2572 -517.3067)">
			<stop  offset="0" style="stop-color:#FDFFC7"/>
			<stop  offset="0.9949" style="stop-color:#9EE62C"/>
		</linearGradient>
		
			<path style="fill:url(#SVGID_00000132799761978971451510000013129903168931296414_);stroke:#37A53F;stroke-width:0.75;stroke-miterlimit:10;" d="
			M72.3,13.5c-0.4-0.1-15.9,33.7-1.1,43.1c0,0-7.3-12.8,6.3-39.6C77.3,17.6,77.1,14.1,72.3,13.5z"/>
		<ellipse transform="matrix(0.5781 -0.816 0.816 0.5781 19.1261 67.4612)" class="st5" cx="74.8" cy="15.2" rx="1.7" ry="3.2"/>
		
			<linearGradient id="SVGID_00000078044359728251328090000017763522566736617866_" gradientUnits="userSpaceOnUse" x1="-277.6612" y1="593.5223" x2="-274.3028" y2="593.5223" gradientTransform="matrix(0.5705 -0.8213 0.8213 0.5705 -254.3728 -549.2845)">
			<stop  offset="0" style="stop-color:#000000"/>
			<stop  offset="0.9949" style="stop-color:#000000"/>
		</linearGradient>
		<path style="opacity:0.22;fill:url(#SVGID_00000078044359728251328090000017763522566736617866_);" d="M73.1,16.1
			c-0.2,0.2,3.2,2.8,4.2,1c0.9-1.6-2.2-3.5-2.2-3.5C75.5,14.1,77,17.2,73.1,16.1z"/>
	</g>
	<g>
		
			<linearGradient id="SVGID_00000006703143309772072270000001152756249355237049_" gradientUnits="userSpaceOnUse" x1="-1254.049" y1="-73.7348" x2="-1213.3726" y2="-73.7348" gradientTransform="matrix(-0.9787 -0.2052 -0.2052 0.9787 -1153.5492 -85.4372)">
			<stop  offset="0" style="stop-color:#FDFFC7"/>
			<stop  offset="0.9949" style="stop-color:#9EE62C"/>
		</linearGradient>
		
			<path style="fill:url(#SVGID_00000006703143309772072270000001152756249355237049_);stroke:#37A53F;stroke-width:0.75;stroke-miterlimit:10;" d="
			M51,84.1c0.2-0.4,36.8,5.5,36.4,23.1c0,0-6.6-13.2-36.4-16.8C51.5,90.6,48.8,88.5,51,84.1z"/>
		
			<ellipse transform="matrix(0.9997 -2.571791e-02 2.571791e-02 0.9997 -2.2255 1.3393)" class="st5" cx="51" cy="87.2" rx="1.7" ry="3.2"/>
		
			<linearGradient id="SVGID_00000023258589093355876480000012055446227016509577_" gradientUnits="userSpaceOnUse" x1="-1274.0093" y1="147.7614" x2="-1270.6509" y2="147.7614" gradientTransform="matrix(-0.9999 1.640412e-02 1.640412e-02 0.9999 -1223.485 -38.5591)">
			<stop  offset="0" style="stop-color:#000000"/>
			<stop  offset="0.9949" style="stop-color:#000000"/>
		</linearGradient>
		<path style="opacity:0.22;fill:url(#SVGID_00000023258589093355876480000012055446227016509577_);" d="M52.6,86.3
			c0.3,0,0.6,4.3-1.5,4.1c-1.8-0.2-1.7-3.7-1.7-3.7C49.6,87.2,51.4,90.1,52.6,86.3z"/>
	</g>
	<g>
		<path class="st47" d="M72.7,86.9l10.9,4.3l0.3-2.8l-8.5-3.7C75.5,84.8,73,85.9,72.7,86.9z"/>
		
			<linearGradient id="SVGID_00000138544424318069350800000004440338179528658073_" gradientUnits="userSpaceOnUse" x1="61.7953" y1="-73.8894" x2="80.9744" y2="-73.8894" gradientTransform="matrix(0.964 0.2659 -0.2659 0.964 -4.5323 143.9782)">
			<stop  offset="0" style="stop-color:#FDFFC7"/>
			<stop  offset="0.9949" style="stop-color:#9EE62C"/>
		</linearGradient>
		
			<path style="fill:url(#SVGID_00000138544424318069350800000004440338179528658073_);stroke:#37A53F;stroke-width:0.75;stroke-miterlimit:10;" d="
			M92.1,90.4C92,90.3,80,86.2,76.5,85c-0.4-0.1-0.8,0.2-0.7,0.7l2,7.1l12.7,5.5c0.5,0.2,1,0,1.3-0.4C92.7,96.4,94.2,93.1,92.1,90.4z
			"/>
		
			<linearGradient id="SVGID_00000063628633942003268370000002292688535727170239_" gradientUnits="userSpaceOnUse" x1="27.8833" y1="-100.8511" x2="46.3955" y2="-100.8511" gradientTransform="matrix(0.8433 0.3564 -0.3893 0.9211 13.943 173.6396)">
			<stop  offset="0" style="stop-color:#000000"/>
			<stop  offset="0.9949" style="stop-color:#000000"/>
		</linearGradient>
		<path style="opacity:9.000000e-02;fill:url(#SVGID_00000063628633942003268370000002292688535727170239_);" d="M77,90l14.3,6.1
			c0.4,0.2,0.7,0.3,0.8,0.5c0.3,0.3,0.6,0.9-0.4,0.9c-0.2,0-0.5-0.1-0.8-0.2l-13.9-5.8c-0.1,0-0.1-0.1-0.1-0.1
			C76.9,91.3,77.4,90.7,77,90z"/>
		<path class="st5" d="M72.7,86.9l-0.6-0.7c0,0,7-6.2,5.7,6.5l-1.3-0.4C76.5,92.4,77.7,83,72.7,86.9z"/>
		<path class="st16" d="M79,87.5C78.7,88.8,91.5,92,91.5,92S79.2,86.3,79,87.5z"/>
	</g>
	<g>
		<path class="st47" d="M86.7,56l10.9,4.3l0.3-2.8l-8.5-3.7C89.4,53.9,86.9,55.1,86.7,56z"/>
		
			<linearGradient id="SVGID_00000182511544843793927780000013343677985482376884_" gradientUnits="userSpaceOnUse" x1="67.0674" y1="-107.3276" x2="86.2465" y2="-107.3276" gradientTransform="matrix(0.964 0.2659 -0.2659 0.964 -4.5323 143.9782)">
			<stop  offset="0" style="stop-color:#FDFFC7"/>
			<stop  offset="0.9949" style="stop-color:#9EE62C"/>
		</linearGradient>
		
			<path style="fill:url(#SVGID_00000182511544843793927780000013343677985482376884_);stroke:#37A53F;stroke-width:0.75;stroke-miterlimit:10;" d="
			M106.1,59.6c-0.1-0.1-12.1-4.2-15.7-5.4c-0.4-0.1-0.8,0.2-0.7,0.7l2,7.1l12.7,5.5c0.5,0.2,1,0,1.3-0.4
			C106.6,65.5,108.1,62.3,106.1,59.6z"/>
		
			<linearGradient id="SVGID_00000016062180251190500300000013036160734536250556_" gradientUnits="userSpaceOnUse" x1="28.8302" y1="-134.6913" x2="47.3423" y2="-134.6913" gradientTransform="matrix(0.8433 0.3564 -0.3893 0.9211 13.943 173.6396)">
			<stop  offset="0" style="stop-color:#000000"/>
			<stop  offset="0.9949" style="stop-color:#000000"/>
		</linearGradient>
		<path style="opacity:9.000000e-02;fill:url(#SVGID_00000016062180251190500300000013036160734536250556_);" d="M91,59.2l14.3,6.1
			c0.4,0.2,0.7,0.3,0.8,0.5c0.3,0.3,0.6,0.9-0.4,0.9c-0.2,0-0.5-0.1-0.8-0.2l-13.9-5.8c-0.1,0-0.1-0.1-0.1-0.1
			C90.9,60.5,91.3,59.8,91,59.2z"/>
		<path class="st5" d="M86.7,56l-0.6-0.7c0,0,7-6.2,5.7,6.5l-1.3-0.4C90.4,61.5,91.6,52.2,86.7,56z"/>
		<path class="st16" d="M92.9,56.7c-0.3,1.2,12.5,4.5,12.5,4.5S93.2,55.5,92.9,56.7z"/>
	</g>
	<g>
		<path class="st47" d="M23.7,73.2l4.9-10.7L25.8,62l-4.1,8.3C21.7,70.3,22.7,72.9,23.7,73.2z"/>
		
			<linearGradient id="SVGID_00000182495004752717694550000000993108644215808914_" gradientUnits="userSpaceOnUse" x1="-446.1058" y1="637.3369" x2="-426.9266" y2="637.3369" gradientTransform="matrix(0.3129 -0.9498 0.9498 0.3129 -439.6773 -551.8032)">
			<stop  offset="0" style="stop-color:#FDFFC7"/>
			<stop  offset="0.9949" style="stop-color:#9EE62C"/>
		</linearGradient>
		
			<path style="fill:url(#SVGID_00000182495004752717694550000000993108644215808914_);stroke:#37A53F;stroke-width:0.75;stroke-miterlimit:10;" d="
			M28.2,54C28,54,23.4,65.8,22,69.3c-0.2,0.4,0.2,0.8,0.6,0.7l7.2-1.7L35.9,56c0.2-0.5,0.1-1-0.3-1.3C34.2,53.7,31,52,28.2,54z"/>
		
			<linearGradient id="SVGID_00000158737793379212090310000010773150611617628055_" gradientUnits="userSpaceOnUse" x1="-420.8241" y1="670.5304" x2="-402.312" y2="670.5304" gradientTransform="matrix(0.3974 -0.8248 0.9009 0.4341 -409.1444 -568.7997)">
			<stop  offset="0" style="stop-color:#000000"/>
			<stop  offset="0.9949" style="stop-color:#000000"/>
		</linearGradient>
		<path style="opacity:9.000000e-02;fill:url(#SVGID_00000158737793379212090310000010773150611617628055_);" d="M27,69l6.8-14
			c0.2-0.4,0.4-0.6,0.5-0.8c0.4-0.3,0.9-0.6,0.9,0.4c0,0.2-0.1,0.5-0.3,0.8l-6.5,13.6c0,0.1-0.1,0.1-0.1,0.1
			C28.3,69.2,27.7,68.7,27,69z"/>
		<path class="st5" d="M23.7,73.2L23,73.7c0,0-5.8-7.3,6.8-5.3l-0.4,1.3C29.4,69.7,20.1,68,23.7,73.2z"/>
		<path class="st16" d="M24.7,67c1.2,0.3,5.1-12.3,5.1-12.3S23.4,66.6,24.7,67z"/>
	</g>
	<g>
		
			<linearGradient id="SVGID_00000069372296369511082330000004547648147079816321_" gradientUnits="userSpaceOnUse" x1="-287.9076" y1="965.1484" x2="-266.9301" y2="965.1484" gradientTransform="matrix(-0.8178 -0.5755 0.5755 -0.8178 -715.3131 693.8792)">
			<stop  offset="0" style="stop-color:#FDFFC7"/>
			<stop  offset="0.9949" style="stop-color:#9EE62C"/>
		</linearGradient>
		
			<path style="fill:url(#SVGID_00000069372296369511082330000004547648147079816321_);stroke:#37A53F;stroke-width:0.75;stroke-miterlimit:10;" d="
			M73.5,73.3L58.1,61.8c-0.4-0.3-0.6-0.8-0.5-1.2c0.2-1.1,0.9-3.2,2.9-4.1c0.4-0.2,0.9-0.1,1.2,0.1l15.5,10.3c0.1,0.1,0.1,0.2,0,0.2
			C76.7,67.9,74.3,70.9,73.5,73.3z"/>
		
			<linearGradient id="SVGID_00000016794868670661558780000003306588864471392169_" gradientUnits="userSpaceOnUse" x1="-287.8733" y1="967.088" x2="-267.8509" y2="967.088" gradientTransform="matrix(-0.8178 -0.5755 0.5755 -0.8178 -715.3131 693.8792)">
			<stop  offset="0" style="stop-color:#000000"/>
			<stop  offset="0.9949" style="stop-color:#000000"/>
		</linearGradient>
		<path style="opacity:0.2;fill:url(#SVGID_00000016794868670661558780000003306588864471392169_);" d="M76.2,69.3L61.3,58.7
			c-0.4-0.3-0.7-0.6-0.8-0.7c-0.2-0.4-0.5-1.1,0.6-0.9c0.2,0.1,0.6,0.2,0.9,0.5l14.6,10.2c0.1,0.1,0.1,0.1,0.1,0.1
			C76.6,67.9,76,68.5,76.2,69.3z"/>
		<ellipse transform="matrix(0.519 -0.8548 0.8548 0.519 -23.8929 98.3497)" class="st5" cx="75.4" cy="70.4" rx="3.7" ry="1.4"/>
		
			<linearGradient id="SVGID_00000053528267246855659370000000432295170343059123_" gradientUnits="userSpaceOnUse" x1="-289.3401" y1="966.3355" x2="-286.4311" y2="966.3355" gradientTransform="matrix(-0.8178 -0.5755 0.5755 -0.8178 -715.3131 693.8792)">
			<stop  offset="0" style="stop-color:#000000"/>
			<stop  offset="0.9949" style="stop-color:#000000"/>
		</linearGradient>
		<path style="opacity:0.22;fill:url(#SVGID_00000053528267246855659370000000432295170343059123_);" d="M76.4,71.7
			c0,0,1.5-5.3-2.6-1.4c0,0,2.5-3.8,3.6-3c1.1,0.8,0,0,0,0S78.3,68.5,76.4,71.7z"/>
		<path class="st16" d="M71.7,70.2C72.5,69,60.6,61,60.6,61S71,71.4,71.7,70.2z"/>
	</g>
	<g>
		
			<linearGradient id="SVGID_00000152236733484429097950000006810773219355382166_" gradientUnits="userSpaceOnUse" x1="-301.9275" y1="931.7198" x2="-280.95" y2="931.7198" gradientTransform="matrix(-0.8178 -0.5755 0.5755 -0.8178 -715.3131 693.8792)">
			<stop  offset="0" style="stop-color:#FDFFC7"/>
			<stop  offset="0.9949" style="stop-color:#9EE62C"/>
		</linearGradient>
		
			<path style="fill:url(#SVGID_00000152236733484429097950000006810773219355382166_);stroke:#37A53F;stroke-width:0.75;stroke-miterlimit:10;" d="
			M65.7,108.7L50.3,97.2c-0.4-0.3-0.6-0.8-0.5-1.2c0.2-1.1,0.9-3.2,2.9-4.1c0.4-0.2,0.9-0.1,1.2,0.1l15.5,10.3
			c0.1,0.1,0.1,0.2,0,0.2C68.9,103.3,66.5,106.3,65.7,108.7z"/>
		
			<linearGradient id="SVGID_00000181771904914320046000000004755599676840989848_" gradientUnits="userSpaceOnUse" x1="-301.8931" y1="933.6595" x2="-281.8708" y2="933.6595" gradientTransform="matrix(-0.8178 -0.5755 0.5755 -0.8178 -715.3131 693.8792)">
			<stop  offset="0" style="stop-color:#000000"/>
			<stop  offset="0.9949" style="stop-color:#000000"/>
		</linearGradient>
		<path style="opacity:0.2;fill:url(#SVGID_00000181771904914320046000000004755599676840989848_);" d="M68.5,104.7L53.5,94.1
			c-0.4-0.3-0.7-0.6-0.8-0.7c-0.2-0.4-0.5-1.1,0.6-0.9c0.2,0.1,0.6,0.2,0.9,0.5l14.6,10.2c0.1,0.1,0.1,0.1,0.1,0.1
			C68.8,103.4,68.2,103.9,68.5,104.7z"/>
		<ellipse transform="matrix(0.519 -0.8548 0.8548 0.519 -57.8974 108.7359)" class="st5" cx="67.7" cy="105.8" rx="3.7" ry="1.4"/>
		
			<linearGradient id="SVGID_00000091709921500600585060000008870520523160494772_" gradientUnits="userSpaceOnUse" x1="-303.36" y1="932.9069" x2="-300.451" y2="932.9069" gradientTransform="matrix(-0.8178 -0.5755 0.5755 -0.8178 -715.3131 693.8792)">
			<stop  offset="0" style="stop-color:#000000"/>
			<stop  offset="0.9949" style="stop-color:#000000"/>
		</linearGradient>
		<path style="opacity:0.22;fill:url(#SVGID_00000091709921500600585060000008870520523160494772_);" d="M68.6,107.1
			c0,0,1.5-5.3-2.6-1.4c0,0,2.5-3.8,3.6-3c1.1,0.8,0,0,0,0S70.5,103.9,68.6,107.1z"/>
		<path class="st16" d="M64,105.6c0.7-1.2-11.1-9.2-11.1-9.2S63.2,106.8,64,105.6z"/>
	</g>
	<g>
		
			<linearGradient id="SVGID_00000164488692880761200100000007621094754623247031_" gradientUnits="userSpaceOnUse" x1="-351.4601" y1="966.2376" x2="-330.4826" y2="966.2376" gradientTransform="matrix(-0.8178 -0.5755 0.5755 -0.8178 -715.3131 693.8792)">
			<stop  offset="0" style="stop-color:#FDFFC7"/>
			<stop  offset="0.9949" style="stop-color:#9EE62C"/>
		</linearGradient>
		
			<path style="fill:url(#SVGID_00000164488692880761200100000007621094754623247031_);stroke:#37A53F;stroke-width:0.75;stroke-miterlimit:10;" d="
			M126.1,109l-15.5-11.4c-0.4-0.3-0.6-0.8-0.5-1.2c0.2-1.1,0.9-3.2,2.9-4.1c0.4-0.2,0.9-0.1,1.2,0.1l15.5,10.3
			c0.1,0.1,0.1,0.2,0,0.2C129.2,103.6,126.9,106.6,126.1,109z"/>
		
			<linearGradient id="SVGID_00000028300290587395886750000011965460079972067766_" gradientUnits="userSpaceOnUse" x1="-351.4258" y1="968.1772" x2="-331.4034" y2="968.1772" gradientTransform="matrix(-0.8178 -0.5755 0.5755 -0.8178 -715.3131 693.8792)">
			<stop  offset="0" style="stop-color:#000000"/>
			<stop  offset="0.9949" style="stop-color:#000000"/>
		</linearGradient>
		<path style="opacity:0.2;fill:url(#SVGID_00000028300290587395886750000011965460079972067766_);" d="M128.8,105l-14.9-10.6
			c-0.4-0.3-0.7-0.6-0.8-0.7c-0.2-0.4-0.5-1.1,0.6-0.9c0.2,0.1,0.6,0.2,0.9,0.5l14.6,10.2c0.1,0.1,0.1,0.1,0.1,0.1
			C129.2,103.6,128.6,104.2,128.8,105z"/>
		<ellipse transform="matrix(0.519 -0.8548 0.8548 0.519 -29.0953 160.4769)" class="st5" cx="128" cy="106.1" rx="3.7" ry="1.4"/>
		
			<linearGradient id="SVGID_00000183229191254412801810000005565398510839327922_" gradientUnits="userSpaceOnUse" x1="-352.8926" y1="967.4247" x2="-349.9836" y2="967.4247" gradientTransform="matrix(-0.8178 -0.5755 0.5755 -0.8178 -715.3131 693.8792)">
			<stop  offset="0" style="stop-color:#000000"/>
			<stop  offset="0.9949" style="stop-color:#000000"/>
		</linearGradient>
		<path style="opacity:0.22;fill:url(#SVGID_00000183229191254412801810000005565398510839327922_);" d="M129,107.4
			c0,0,1.5-5.3-2.6-1.4c0,0,2.5-3.8,3.6-3s0,0,0,0S130.8,104.2,129,107.4z"/>
		<path class="st16" d="M124.3,105.9c0.7-1.2-11.1-9.2-11.1-9.2S123.6,107.1,124.3,105.9z"/>
	</g>
	<g>
		<path class="st7" d="M53,59.9c2.1-0.5,5.9-1.3,6-5.9c0-1.7-0.8-3.5-0.2-4.7c0.3-0.7,0.7,0.2,0.7-1.3c0-0.8-0.6-2.1-0.7-3
			c-0.4-2-0.3-4.3,1.3-2.8c-0.1-2.2,1-5.2,1.7-3.1c0.4-0.9,0.5-2.1,1.3-2.4c0.9-0.3,1.2,0.9,2,1.3c1.4,0.7,2.4-1,3,2.7
			c1.3-0.5,3.4,1.4,3.6,4.3c2.7,1.1,1.4,6,0.7,7.6c-1.4,3.8-4.2,4.6-6.8,5.6c-2.5,0.9-5,1.6-7.7,1.8c-1,0.1-2.3,1.7-3.3,1.6L53,59.9
			z"/>
		<path class="st8" d="M68.6,54c1.1-1.4,1.9-3,1.8-5.3c-0.1-1.7-1.5-0.9-2.2-1.4c-0.1-0.3,0.5-1.2,0.3-1.9c-0.4-0.7-1.3,0.4-1.8,0
			c0-0.3-0.3-0.7,0-1c0.4-0.6,1.8-1.3,1.2-2.1c-0.7-1-1.7-1.3-1.6-2.8c-0.6,0.9-1.2,2.1-1.7,2.6c-0.2,0.2-0.4,0.5-0.6,0.7
			c-0.6-0.4-1.5-1.3-2.2-2c0.5,1.4-0.4,2-0.7,3.1c-0.4,0.9,1.1,1.2,1.7,1.6c0.3,0.2,0.1,0.7,0.2,1c-0.3,0.5-1.5-0.3-1.7,0.5
			C61.2,48,62,48.6,62,49c-0.5,0.6-2,0.3-1.6,1.9c0.6,2.2,1.7,3.4,3.1,4.5c-0.3,0.2-0.7,0-0.8,0.4c0.2,1.4,1.2,1.7,2,2l0.6-0.7
			c0.1-1,0.6-1.6,1-2.1c0.3,0.3,0.7,0.7,0.9,1.2l0.8,0.4c0.8-0.5,1.7-1.1,1.5-2.5C69.4,53.8,69,54.1,68.6,54z"/>
	</g>
</g>
</svg>
