<?xml version="1.0" encoding="UTF-8"?><svg id="a" xmlns="http://www.w3.org/2000/svg" viewBox="0 0 256 200"><defs><style>.b{fill:#ffd073;}.c{fill:#ffa276;}.d{opacity:.7;}.e{fill:#ff7954;}.f{fill:#de401d;}.g{fill:#ce2017;}.h{fill:#e52315;}.i{fill:#ffccad;}</style></defs><g><path class="h" d="M195.93,67.76l-1.97,.18c-1.06-.54-2.26-1.06-3.6-1.55-13.41-4.9-35.74-5.1-49.87-.44-6.51,2.15-10.15,4.95-10.86,7.83l-1.98,.18,3.04,4.05h0c1.47,1.91,4.3,3.72,8.49,5.25,13.41,4.9,35.74,5.1,49.87,.44,9.58-3.16,12.94-7.74,9.92-11.89h0l-3.04-4.05Z"/><path class="g" d="M197.19,79.64c3.06-2.48,3.66-5.24,1.78-7.83h0l-3.04-4.05-1.97,.18c-1.06-.54-2.26-1.06-3.6-1.55-1.23-.45-2.53-.86-3.89-1.23h-.14l10.87,14.48Z"/><g><ellipse class="e" cx="161.95" cy="71.09" rx="35.28" ry="12.24"/><path class="f" d="M157.06,62.8c-1.31-.99-2.53-1.11-3.01-1.1-.61,0-1.17,.11-1.71,.21-6.6,1.26-12.4,3.02-16.89,5.11-.55,.26-1.12,.57-.85,.88,.19,.23,.71,.38,1.06,.46,3.89,.91,13.18,1.5,13.18,1.5,7.36,.47,7.65,.67,7.67,.75,0,.07-.12,.26-6.19,.88-3.84,.39-7.63,.85-11.48,1.23-1.54,.15-3.25,.31-3.94,.82-.48,.35-.27,.76,.01,1.14,1.24,1.67,3.7,3.24,7.08,4.51,1.33,.5,3.07,.99,5.01,.91,.4-.02,1.87-.12,4.23-1.33,1.12-.58,2.2-1.28,3.52-2.6,1.86-1.87,2.42-3.21,3.56-3.2,.24,0,.42,.06,.5,.09,2.76,.98-4.77,7.57-.77,8.47,.27,.06,.79,.12,1.81,.08,5.13-.2,10.15-.74,14.73-1.58,1.02-.19,2.05-.4,2.7-.73,1.26-.64,.72-1.53-.39-2.2-1.2-.72-2.07-1.28-3.69-1.93-6.06-2.44-9.7-3.47-8.81-4.12,.08-.06,.18-.13,.4-.17,2.15-.43,8.42,3.1,17.3,4.15,3.33,.4,4.95,.21,5.71,0,.64-.19,1.05-.45,1.4-.71,1.94-1.44,2.5-3.09,1.57-4.65-.25-.42-.71-.87-1.82-1.06-1.03-.17-2.12-.09-2.5-.05-2.53,.22-10.03,.7-20.32,1.36-1.09-.18-1.31-.33-1.31-.43-.01-.85,14.98-2.36,19.97-3.22,.45-.08,1.41-.26,1.88-.62,.39-.3,.18-.66-.16-.97-1.42-1.29-4.88-2.16-8.21-2.92-3.76-.85-8.12-1.45-10.7-.86-4.16,.95-2.4,4.92-5.28,8.72,0,0-.41,.54-.81,.52-1.11-.04-1.3-4.95-4.45-7.32Z"/><path class="c" d="M152.22,65.74c-.15-.24-.34-.53-1.02-.6-.51-.05-1.02,.07-1.44,.18-1.77,.47-3.42,.99-4.95,1.55-.36,.13-.74,.3-.62,.47,.08,.13,.41,.22,.72,.3,3.37,.83,7.91,1.36,9.27,2.72,.85,.85,.09,1.83-1.52,2.53-1.62,.7-3.98,1.16-6.44,1.45-1.19,.14-2.68,.38-2.55,.81,.05,.16,.32,.29,.59,.42l3,1.44c2.1-.92,4.33-1.8,6.68-2.64,.82-.29,1.78-.6,2.96-.6,1.22,0,2.21,.34,2.93,.69,2.68,1.27,3.8,2.92,3.03,4.47,2.27-.06,4.5-.3,6.45-.71,.51-.1,1.02-.23,1.22-.43,.33-.33-.44-.67-1.08-.94-3.22-1.39-4.22-3.36-2.56-5.04,.2-.2,.47-.41,1-.52,.75-.15,1.69-.03,2.48,.1,3.98,.62,7.96,1.25,11.94,1.87,.65-.59,1.05-1.22,1.19-1.85,.04-.18,.05-.37-.22-.53-.41-.24-1.29-.31-2.08-.35l-7.73-.44c-1.69-.1-3.53-.22-4.62-.68-1.51-.64-.77-1.65,.86-2.26,1.63-.61,3.9-.95,5.94-1.38,.39-.08,.82-.2,.79-.36-.02-.09-.19-.16-.35-.23-1.91-.79-4.33-1.44-7.03-1.87-1.41,1.26-2.82,2.52-4.23,3.78-1.33,1.19-2.98,1.87-6.6,1.27-2.98-.5-5.32-1.48-6.01-2.62Z"/><g class="d"><path class="b" d="M137.97,73.32c-.37,0-.75,.07-.93,.18-.52,.33,.3,.58,1.22,.57,.35,0,.71,0,1.07,0,.42,0,.7-.04,1.08,.05,.1,.02,.21-.02,.16-.05-.28-.17-.38-.36-.8-.5-.46-.15-1.17-.25-1.8-.25Z"/><path class="b" d="M138.04,75.09c-1.19,.31-.25,.89,1.12,.69,.43-.06,.83-.15,1.25-.22,.39-.06,.76-.13,1.02-.25,.09-.05,.09-.12,0-.17-.67-.36-2.53-.28-3.4-.06Z"/><path class="b" d="M142.52,76.45c-.47,.05-.86,.16-1.27,.24-.4,.09-.83,.15-1.23,.23-1.13,.23-.16,.83,.99,.61,.42-.08,.84-.19,1.23-.29,.43-.11,.92-.21,1.2-.37,.37-.21-.22-.49-.92-.43Z"/><path class="b" d="M146.7,77.95c-.79,.18-1.12,.57-1.66,.83-.88,.43,1.19,.87,2.02,.42,.57-.31,1.28-.79,.71-1.15-.2-.12-.72-.19-1.08-.1Z"/><path class="b" d="M159.23,79.52c-.59,.32-.69,.73-.62,1.1,.04,.21,.48,.39,1.13,.39,.56,0,1.21-.18,1.14-.39-.1-.32,.04-.62,.04-.94,0-.31-1.2-.43-1.69-.16Z"/><path class="b" d="M164.6,79.42c-.8,.26-.71,.73-.49,1.06,.16,.25,.97,.37,1.62,.28,.71-.1,.89-.36,.61-.59-.31-.25-.43-.53-.93-.75-.19-.09-.6-.07-.81,0Z"/><path class="b" d="M169.5,78.9c-.59,.13-.76,.37-.68,.6,.08,.23,.33,.4,.74,.58,.39,.17,1.27,.16,1.68,0,.49-.18,.43-.4,.03-.58,.14,.07,.01,0-.02-.02-.04-.02-.09-.05-.13-.07-.04-.02-.07-.05-.11-.07l-.1-.08s-.03-.04,0,0c-.02-.03-.04-.06-.07-.08-.08-.09-.19-.16-.38-.23-.23-.08-.67-.11-.96-.05Z"/><path class="b" d="M172.09,78.31c.1,.52,1.23,1.18,2.62,1.17,.76,0,1.18-.35,.92-.6-.25-.24-.93-.37-1.44-.5-.49-.13-.97-.22-1.54-.29-.33-.04-.58,.1-.56,.22Z"/><path class="b" d="M183.61,73.83c-.6,0-1.14,.26-.76,.45,.39,.19,.92,.3,1.48,.42,.6,.13,1.17,.25,1.88,.28,.98,.04,1.33-.42,.78-.63-.42-.16-1.05-.24-1.61-.32-.58-.09-1.13-.19-1.78-.19Z"/><path class="b" d="M187.75,72.54c-.9-.04-2.01-.08-2.87,.02-.67,.08-.79,.36-.21,.51,.75,.19,1.86,.25,2.75,.3,.52,.03,1.08-.01,1.37-.19,.18-.11,.22-.21,.14-.32-.14-.2-.63-.29-1.17-.31Z"/><path class="b" d="M189.67,70.7c-1.36,.01-2.88,.16-3.81,.53-.33,.13-.15,.37,.42,.36,1.13-.01,2.25-.09,3.38-.12,1.4-.03,1.45-.78,.01-.76Z"/><path class="b" d="M187.73,68.97c-.46,.09-.86,.21-1.26,.32-.39,.11-.66,.24-.97,.37-.39,.17-.08,.46,.64,.4,.52-.05,1-.09,1.49-.18,.51-.09,.98-.18,1.43-.3,.44-.12,.42-.37,.11-.51-.34-.15-.94-.2-1.44-.11Z"/><path class="b" d="M182.93,64.9c-1.28,.23-2.69,.57-3.19,1.06-.19,.19,.39,.38,.93,.33,1.24-.13,2.32-.45,3.43-.67,1.32-.27,.19-.96-1.16-.72Z"/><path class="b" d="M179.15,63.44c-1.44,.27-1.73,.97-1.6,1.48,.07,.26,1.17,.35,1.38,.07,.33-.43,1.33-.72,1.8-1.12,.38-.32-.82-.58-1.58-.43Z"/><path class="b" d="M174.72,62.35c-.53,.15-.97,.36-1.21,.58-.23,.21-.24,.54,.61,.56,.49,.01,.92-.13,1.23-.24,.31-.11,.65-.22,.96-.33,.42-.16,.47-.4,.03-.56-.46-.16-1.13-.14-1.61,0Z"/><path class="b" d="M168.74,61.51c.01,.31-.04,.78,.48,1.04,.21,.11,.56,.12,.85,.04,.83-.23,.97-.74,.92-1.08-.07-.5-2.28-.51-2.25,0Z"/><path class="b" d="M153.02,62.97c-.13,.46,.12,.92,.22,1.38,.07,.32,1.37,.33,1.44,0,.09-.46,.34-.92,.21-1.38-.12-.41-1.75-.42-1.87,0Z"/><path class="b" d="M148.15,64.1c.25,.14,.51,.28,.79,.41,.11,.05,.21,.1,.32,.15,.1,.04,.31,.1,.37,.13,.23,.14,.78,.07,.81-.07,0-.04,.12-.14,.14-.2,.02-.08,0-.16-.03-.24-.06-.18-.28-.39-.54-.55-.69-.42-2.61-.04-1.88,.37Z"/><path class="b" d="M142.65,65.26c.84,.29,1.94,.47,3.04,.59,.45,.05,.85-.14,.62-.27-.59-.35-1.34-.68-2.32-.9-1.02-.23-2.21,.29-1.34,.58Z"/><path class="b" d="M139.6,66.45c-1.16-.01-1.46,.63-.29,.71,.93,.07,2.25,.15,3.16,.03,.65-.08,.81-.37,.21-.51-.81-.19-2.13-.23-3.09-.24Z"/></g><path class="i" d="M154.54,68.78c-.28,.1-.28,.27-.17,.4,.53,.68,2.93,1.13,2.78,1.83-.08,.37-.89,.67-1.39,1.01-.5,.33-.53,.84,.47,.99,.83,.12,1.76-.09,2.66-.07,.79,.02,1.46,.21,1.9,.44s.72,.49,1.12,.72c.14,.09,.31,.17,.58,.21,.53,.07,1.09-.09,1.35-.27,.75-.49,.43-1.08,.34-1.63-.09-.55,.27-1.21,1.71-1.44,1.14-.19,2.81-.09,3.36-.49,.29-.21,.04-.48-.45-.64s-1.18-.23-1.85-.25c-.32-.01-.66-.02-.94-.08-.66-.14-.6-.48-.25-.72,.35-.24,.9-.45,1-.72,.05-.12-.12-.28-.47-.28-.15,0-.29,.03-.41,.06-1.72,.44-3.43,1.76-5.82,1.68-1.34-.05-4.47-1.13-5.5-.76Z"/></g></g><g><path class="h" d="M245.67,36.23l-1.54,1.25c-1.18,.14-2.47,.38-3.85,.73-13.86,3.43-32.49,15.74-41.61,27.49-4.2,5.42-5.65,9.78-4.64,12.56l-1.54,1.25,4.79,1.66h0c2.29,.76,5.64,.68,9.97-.39,13.86-3.43,32.49-15.74,41.61-27.49,6.18-7.97,6.41-13.64,1.59-15.4h0l-4.79-1.66Z"/><path class="g" d="M253.35,45.38c1.15-3.76,.11-6.39-2.9-7.49h0l-4.79-1.66-1.54,1.25c-1.18,.14-2.47,.38-3.85,.73-1.27,.31-2.57,.7-3.91,1.16l-.11,.09,17.1,5.93Z"/><g><ellipse class="e" cx="219.35" cy="57.96" rx="35.28" ry="12.24" transform="translate(5.06 132.48) rotate(-33.98)"/><path class="f" d="M210.65,53.82c-1.64-.09-2.72,.5-3.12,.77-.5,.34-.91,.74-1.3,1.13-4.77,4.73-8.6,9.43-11.15,13.68-.31,.52-.6,1.1-.21,1.21,.29,.08,.8-.09,1.14-.21,3.74-1.42,11.77-6.12,11.77-6.12,6.37-3.72,6.72-3.72,6.78-3.66,.04,.05,.05,.28-4.65,4.19-2.97,2.47-5.85,4.97-8.84,7.43-1.19,.99-2.52,2.07-2.81,2.88-.2,.56,.2,.78,.64,.94,1.97,.69,4.88,.62,8.39-.21,1.38-.33,3.09-.89,4.67-2.05,.33-.24,1.48-1.14,2.77-3.47,.61-1.11,1.11-2.29,1.46-4.12,.49-2.59,.22-4.01,1.16-4.65,.2-.13,.38-.18,.47-.2,2.84-.73,.27,8.95,4.1,7.46,.26-.1,.72-.35,1.54-.95,4.14-3.04,8.01-6.29,11.33-9.53,.74-.72,1.48-1.48,1.84-2.11,.69-1.24-.26-1.67-1.55-1.6-1.4,.07-2.43,.09-4.14,.46-6.39,1.36-9.99,2.54-9.61,1.5,.04-.1,.07-.21,.23-.37,1.54-1.56,8.71-2.13,16.67-6.22,2.99-1.53,4.23-2.59,4.73-3.2,.43-.51,.62-.96,.77-1.37,.8-2.27,.34-3.96-1.29-4.73-.44-.21-1.08-.33-2.1,.14-.95,.43-1.81,1.11-2.1,1.35-1.98,1.59-7.93,6.19-16.09,12.48-1.01,.46-1.27,.46-1.33,.37-.49-.7,11.11-10.33,14.77-13.83,.33-.31,1.03-1.01,1.21-1.56,.15-.47-.22-.65-.67-.72-1.9-.28-5.25,.93-8.44,2.17-3.59,1.39-7.54,3.34-9.35,5.26-2.92,3.11,.75,5.42,.5,10.18,0,0-.04,.67-.38,.89-.94,.59-3.84-3.38-7.79-3.59Z"/><path class="c" d="M208.29,58.96c-.25-.12-.58-.25-1.18,.08-.45,.25-.81,.62-1.09,.95-1.2,1.38-2.29,2.73-3.24,4.05-.22,.31-.44,.66-.25,.74,.14,.06,.46-.05,.76-.16,3.26-1.2,7.32-3.29,9.21-2.92,1.18,.23,1.1,1.46,.15,2.95-.95,1.49-2.65,3.19-4.53,4.8-.91,.78-2.01,1.81-1.66,2.1,.13,.1,.43,.06,.72,.02l3.3-.48c1.23-1.93,2.58-3.91,4.07-5.92,.52-.7,1.15-1.49,2.12-2.15,1.02-.68,2.02-.95,2.82-1.07,2.93-.44,4.78,.3,5.01,2.01,1.85-1.32,3.56-2.76,4.96-4.19,.36-.37,.72-.77,.77-1.03,.09-.46-.74-.31-1.42-.18-3.45,.65-5.38-.42-4.94-2.75,.05-.28,.16-.6,.54-.99,.54-.54,1.39-.97,2.11-1.31,3.65-1.71,7.3-3.41,10.95-5.12,.2-.85,.19-1.6-.05-2.2-.07-.17-.17-.34-.48-.32-.47,.03-1.24,.47-1.92,.87l-6.66,3.95c-1.46,.86-3.06,1.79-4.21,2.01-1.61,.31-1.56-.94-.55-2.35,1.01-1.41,2.71-2.96,4.16-4.46,.28-.29,.57-.62,.45-.74-.07-.06-.25-.03-.42,0-2.03,.41-4.39,1.22-6.88,2.37-.47,1.83-.93,3.67-1.4,5.5-.44,1.72-1.42,3.22-4.77,4.74-2.75,1.25-5.24,1.74-6.44,1.19Z"/><g class="d"><path class="b" d="M200.7,73.21c-.3,.21-.58,.47-.67,.67-.25,.56,.57,.31,1.33-.21,.29-.2,.6-.4,.89-.6,.35-.24,.56-.42,.92-.57,.09-.04,.17-.14,.1-.13-.33,.02-.52-.09-.94,.03-.47,.13-1.11,.45-1.63,.8Z"/><path class="b" d="M201.74,74.64c-.82,.92,.29,.88,1.32-.05,.32-.29,.6-.59,.92-.88,.29-.27,.56-.53,.7-.78,.05-.09,0-.15-.09-.14-.75,.07-2.26,1.18-2.85,1.85Z"/><path class="b" d="M206.22,73.27c-.37,.3-.62,.61-.92,.91-.28,.29-.6,.59-.89,.88-.81,.82,.33,.77,1.16-.05,.31-.3,.59-.63,.86-.93,.3-.33,.65-.69,.79-.98,.18-.38-.45-.29-1,.16Z"/><path class="b" d="M210.53,72.18c-.56,.59-.61,1.09-.91,1.61-.49,.85,1.48,.06,1.92-.78,.3-.58,.63-1.37-.05-1.34-.23,0-.7,.25-.95,.51Z"/><path class="b" d="M221.8,66.47c-.31,.6-.16,.99,.1,1.26,.15,.15,.62,.06,1.16-.3,.46-.31,.9-.82,.73-.96-.26-.21-.31-.54-.5-.8-.18-.26-1.24,.32-1.49,.81Z"/><path class="b" d="M226.2,63.4c-.52,.66-.18,1,.19,1.16,.27,.12,1.02-.24,1.5-.67,.54-.48,.54-.8,.17-.83-.4-.03-.66-.2-1.19-.1-.21,.04-.54,.27-.67,.45Z"/><path class="b" d="M229.97,60.23c-.41,.44-.43,.73-.23,.88,.19,.14,.5,.15,.93,.07,.42-.08,1.14-.57,1.4-.93,.31-.42,.14-.57-.3-.5,.16-.03,0,0-.02,0-.05,0-.1,0-.15,.01-.05,0-.09,0-.14,0h-.12s-.05-.03,0-.02c-.03-.01-.07-.02-.1-.03-.12-.03-.25-.02-.44,.02-.24,.06-.62,.28-.83,.5Z"/><path class="b" d="M231.79,58.29c.37,.38,1.68,.29,2.83-.5,.63-.43,.78-.95,.43-1.01-.34-.06-.97,.21-1.47,.39-.48,.17-.93,.36-1.44,.62-.3,.15-.43,.41-.34,.5Z"/><path class="b" d="M238.84,48.14c-.5,.33-.8,.85-.38,.79,.43-.06,.93-.26,1.47-.48,.57-.23,1.11-.45,1.72-.82,.84-.51,.87-1.09,.29-.96-.44,.1-1,.39-1.52,.63-.53,.25-1.04,.48-1.58,.84Z"/><path class="b" d="M241.56,44.76c-.76,.47-1.71,1.05-2.37,1.62-.51,.44-.45,.74,.11,.54,.73-.27,1.68-.83,2.45-1.29,.45-.27,.89-.62,1.03-.92,.09-.19,.07-.29-.07-.34-.22-.09-.69,.11-1.14,.39Z"/><path class="b" d="M242.12,42.16c-1.13,.77-2.3,1.74-2.87,2.56-.2,.29,.08,.39,.55,.07,.93-.64,1.81-1.33,2.74-1.99,1.14-.81,.76-1.45-.42-.64Z"/><path class="b" d="M239.54,41.81c-.33,.33-.6,.65-.86,.97-.26,.31-.41,.56-.6,.85-.23,.36,.19,.43,.75-.03,.41-.33,.78-.63,1.14-.98,.37-.35,.71-.69,1.02-1.04,.3-.34,.14-.54-.19-.49-.37,.06-.89,.36-1.26,.72Z"/><path class="b" d="M233.29,41.11c-.93,.91-1.91,1.98-2.06,2.67-.05,.26,.54,.1,.95-.25,.96-.8,1.67-1.66,2.46-2.47,.94-.96-.38-.9-1.36,.05Z"/><path class="b" d="M229.34,42.01c-1.04,1.03-.89,1.77-.5,2.12,.2,.18,1.17-.36,1.19-.72,.03-.54,.7-1.34,.87-1.93,.13-.47-1-.02-1.55,.53Z"/><path class="b" d="M225.06,43.59c-.35,.42-.6,.84-.68,1.16-.08,.3,.1,.58,.82,.13,.41-.26,.69-.62,.88-.89,.2-.27,.42-.54,.61-.81,.26-.36,.17-.59-.29-.48-.47,.12-1.02,.51-1.34,.89Z"/><path class="b" d="M219.63,46.22c.19,.25,.4,.66,.98,.6,.23-.03,.53-.21,.73-.44,.56-.65,.39-1.16,.16-1.42-.33-.38-2.17,.85-1.87,1.26Z"/><path class="b" d="M207.4,56.22c.15,.45,.62,.7,.95,1.02,.23,.23,1.32-.5,1.19-.8-.18-.43-.23-.96-.6-1.26-.33-.27-1.69,.63-1.55,1.04Z"/><path class="b" d="M203.99,59.88c.28-.02,.58-.05,.89-.1,.12-.02,.23-.03,.35-.06,.11-.02,.31-.09,.38-.1,.26-.01,.69-.38,.63-.52-.02-.04,.03-.18,0-.24-.03-.08-.09-.13-.16-.18-.15-.12-.45-.17-.75-.15-.81,.04-2.19,1.42-1.35,1.35Z"/><path class="b" d="M200.07,63.91c.86-.23,1.87-.69,2.85-1.21,.4-.21,.63-.59,.36-.57-.68,.04-1.49,.19-2.43,.55-.98,.38-1.68,1.47-.78,1.23Z"/><path class="b" d="M198.21,66.6c-.97,.64-.86,1.33,.16,.75,.81-.46,1.95-1.13,2.64-1.74,.49-.43,.47-.76-.11-.54-.77,.29-1.9,1-2.69,1.53Z"/></g><path class="i" d="M211.91,60.19c-.18,.24-.08,.38,.08,.43,.82,.27,3.06-.7,3.33-.03,.14,.36-.37,1.06-.59,1.61s.03,.99,.94,.56c.76-.36,1.41-1.06,2.16-1.55,.66-.43,1.33-.64,1.82-.7s.87,0,1.33-.02c.16,0,.36-.03,.59-.15,.48-.23,.85-.68,.97-.98,.35-.82-.24-1.13-.62-1.54-.38-.41-.45-1.15,.61-2.15,.84-.79,2.28-1.65,2.52-2.28,.13-.34-.23-.42-.73-.27s-1.11,.47-1.68,.83c-.27,.17-.56,.35-.82,.46-.62,.25-.77-.07-.61-.46,.15-.39,.49-.88,.43-1.15-.03-.13-.25-.17-.55,.03-.13,.09-.22,.19-.3,.28-1.18,1.33-1.86,3.38-3.89,4.65-1.14,.71-4.34,1.56-4.99,2.44Z"/></g></g><g><path class="h" d="M236.8,69.78l-1.97,.18c-1.06-.54-2.26-1.06-3.6-1.55-13.41-4.9-35.74-5.1-49.87-.44-6.51,2.15-10.15,4.95-10.86,7.83l-1.98,.18,3.04,4.05h0c1.47,1.91,4.3,3.72,8.49,5.25,13.41,4.9,35.74,5.1,49.87,.44,9.58-3.16,12.94-7.74,9.92-11.89h0l-3.04-4.05Z"/><path class="g" d="M238.06,81.67c3.06-2.48,3.66-5.24,1.78-7.83h0l-3.04-4.05-1.97,.18c-1.06-.54-2.26-1.06-3.6-1.55-1.23-.45-2.53-.86-3.89-1.23h-.14l10.87,14.48Z"/><g><ellipse class="e" cx="202.83" cy="73.11" rx="35.28" ry="12.24"/><path class="f" d="M197.93,64.82c-1.31-.99-2.53-1.11-3.01-1.1-.61,0-1.17,.11-1.71,.21-6.6,1.26-12.4,3.02-16.89,5.11-.55,.26-1.12,.57-.85,.88,.19,.23,.71,.38,1.06,.46,3.89,.91,13.18,1.5,13.18,1.5,7.36,.47,7.65,.67,7.67,.75,0,.07-.12,.26-6.19,.88-3.84,.39-7.63,.85-11.48,1.23-1.54,.15-3.25,.31-3.94,.82-.48,.35-.27,.76,.01,1.14,1.24,1.67,3.7,3.24,7.08,4.51,1.33,.5,3.07,.99,5.01,.91,.4-.02,1.87-.12,4.23-1.33,1.12-.58,2.2-1.28,3.52-2.6,1.86-1.87,2.42-3.21,3.56-3.2,.24,0,.42,.06,.5,.09,2.76,.98-4.77,7.57-.77,8.47,.27,.06,.79,.12,1.81,.08,5.13-.2,10.15-.74,14.73-1.58,1.02-.19,2.05-.4,2.7-.73,1.26-.64,.72-1.53-.39-2.2-1.2-.72-2.07-1.28-3.69-1.93-6.06-2.44-9.7-3.47-8.81-4.12,.08-.06,.18-.13,.4-.17,2.15-.43,8.42,3.1,17.3,4.15,3.33,.4,4.95,.21,5.71,0,.64-.19,1.05-.45,1.4-.71,1.94-1.44,2.5-3.09,1.57-4.65-.25-.42-.71-.87-1.82-1.06-1.03-.17-2.12-.09-2.5-.05-2.53,.22-10.03,.7-20.32,1.36-1.09-.18-1.31-.33-1.31-.43-.01-.85,14.98-2.36,19.97-3.22,.45-.08,1.41-.26,1.88-.62,.39-.3,.18-.66-.16-.97-1.42-1.29-4.88-2.16-8.21-2.92-3.76-.85-8.12-1.45-10.7-.86-4.16,.95-2.4,4.92-5.28,8.72,0,0-.41,.54-.81,.52-1.11-.04-1.3-4.95-4.45-7.32Z"/><path class="c" d="M193.1,67.77c-.15-.24-.34-.53-1.02-.6-.51-.05-1.02,.07-1.44,.18-1.77,.47-3.42,.99-4.95,1.55-.36,.13-.74,.3-.62,.47,.08,.13,.41,.22,.72,.3,3.37,.83,7.91,1.36,9.27,2.72,.85,.85,.09,1.83-1.52,2.53-1.62,.7-3.98,1.16-6.44,1.45-1.19,.14-2.68,.38-2.55,.81,.05,.16,.32,.29,.59,.42l3,1.44c2.1-.92,4.33-1.8,6.68-2.64,.82-.29,1.78-.6,2.96-.6,1.22,0,2.21,.34,2.93,.69,2.68,1.27,3.8,2.92,3.03,4.47,2.27-.06,4.5-.3,6.45-.71,.51-.1,1.02-.23,1.22-.43,.33-.33-.44-.67-1.08-.94-3.22-1.39-4.22-3.36-2.56-5.04,.2-.2,.47-.41,1-.52,.75-.15,1.69-.03,2.48,.1,3.98,.62,7.96,1.25,11.94,1.87,.65-.59,1.05-1.22,1.19-1.85,.04-.18,.05-.37-.22-.53-.41-.24-1.29-.31-2.08-.35l-7.73-.44c-1.69-.1-3.53-.22-4.62-.68-1.51-.64-.77-1.65,.86-2.26,1.63-.61,3.9-.95,5.94-1.38,.39-.08,.82-.2,.79-.36-.02-.09-.19-.16-.35-.23-1.91-.79-4.33-1.44-7.03-1.87-1.41,1.26-2.82,2.52-4.23,3.78-1.33,1.19-2.98,1.87-6.6,1.27-2.98-.5-5.32-1.48-6.01-2.62Z"/><g class="d"><path class="b" d="M178.85,75.35c-.37,0-.75,.07-.93,.18-.52,.33,.3,.58,1.22,.57,.35,0,.71,0,1.07,0,.42,0,.7-.04,1.08,.05,.1,.02,.21-.02,.16-.05-.28-.17-.38-.36-.8-.5-.46-.15-1.17-.25-1.8-.25Z"/><path class="b" d="M178.91,77.11c-1.19,.31-.25,.89,1.12,.69,.43-.06,.83-.15,1.25-.22,.39-.06,.76-.13,1.02-.25,.09-.05,.09-.12,0-.17-.67-.36-2.53-.28-3.4-.06Z"/><path class="b" d="M183.39,78.48c-.47,.05-.86,.16-1.27,.24-.4,.09-.83,.15-1.23,.23-1.13,.23-.16,.83,.99,.61,.42-.08,.84-.19,1.23-.29,.43-.11,.92-.21,1.2-.37,.37-.21-.22-.49-.92-.43Z"/><path class="b" d="M187.58,79.98c-.79,.18-1.12,.57-1.66,.83-.88,.43,1.19,.87,2.02,.42,.57-.31,1.28-.79,.71-1.15-.2-.12-.72-.19-1.08-.1Z"/><path class="b" d="M200.11,81.54c-.59,.32-.69,.73-.62,1.1,.04,.21,.48,.39,1.13,.39,.56,0,1.21-.18,1.14-.39-.1-.32,.04-.62,.04-.94,0-.31-1.2-.43-1.69-.16Z"/><path class="b" d="M205.48,81.45c-.8,.26-.71,.73-.49,1.06,.16,.25,.97,.37,1.62,.28,.71-.1,.89-.36,.61-.59-.31-.25-.43-.53-.93-.75-.19-.09-.6-.07-.81,0Z"/><path class="b" d="M210.37,80.93c-.59,.13-.76,.37-.68,.6,.08,.23,.33,.4,.74,.58,.39,.17,1.27,.16,1.68,0,.49-.18,.43-.4,.03-.58,.14,.07,.01,0-.02-.02-.04-.02-.09-.05-.13-.07-.04-.02-.07-.05-.11-.07l-.1-.08s-.03-.04,0,0c-.02-.03-.04-.06-.07-.08-.08-.09-.19-.16-.38-.23-.23-.08-.67-.11-.96-.05Z"/><path class="b" d="M212.96,80.33c.1,.52,1.23,1.18,2.62,1.17,.76,0,1.18-.35,.92-.6-.25-.24-.93-.37-1.44-.5-.49-.13-.97-.22-1.54-.29-.33-.04-.58,.1-.56,.22Z"/><path class="b" d="M224.48,75.86c-.6,0-1.14,.26-.76,.45,.39,.19,.92,.3,1.48,.42,.6,.13,1.17,.25,1.88,.28,.98,.04,1.33-.42,.78-.63-.42-.16-1.05-.24-1.61-.32-.58-.09-1.13-.19-1.78-.19Z"/><path class="b" d="M228.63,74.57c-.9-.04-2.01-.08-2.87,.02-.67,.08-.79,.36-.21,.51,.75,.19,1.86,.25,2.75,.3,.52,.03,1.08-.01,1.37-.19,.18-.11,.22-.21,.14-.32-.14-.2-.63-.29-1.17-.31Z"/><path class="b" d="M230.55,72.73c-1.36,.01-2.88,.16-3.81,.53-.33,.13-.15,.37,.42,.36,1.13-.01,2.25-.09,3.38-.12,1.4-.03,1.45-.78,.01-.76Z"/><path class="b" d="M228.6,71c-.46,.09-.86,.21-1.26,.32-.39,.11-.66,.24-.97,.37-.39,.17-.08,.46,.64,.4,.52-.05,1-.09,1.49-.18,.51-.09,.98-.18,1.43-.3,.44-.12,.42-.37,.11-.51-.34-.15-.94-.2-1.44-.11Z"/><path class="b" d="M223.8,66.92c-1.28,.23-2.69,.57-3.19,1.06-.19,.19,.39,.38,.93,.33,1.24-.13,2.32-.45,3.43-.67,1.32-.27,.19-.96-1.16-.72Z"/><path class="b" d="M220.03,65.47c-1.44,.27-1.73,.97-1.6,1.48,.07,.26,1.17,.35,1.38,.07,.33-.43,1.33-.72,1.8-1.12,.38-.32-.82-.58-1.58-.43Z"/><path class="b" d="M215.6,64.38c-.53,.15-.97,.36-1.21,.58-.23,.21-.24,.54,.61,.56,.49,.01,.92-.13,1.23-.24,.31-.11,.65-.22,.96-.33,.42-.16,.47-.4,.03-.56-.46-.16-1.13-.14-1.61,0Z"/><path class="b" d="M209.62,63.53c.01,.31-.04,.78,.48,1.04,.21,.11,.56,.12,.85,.04,.83-.23,.97-.74,.92-1.08-.07-.5-2.28-.51-2.25,0Z"/><path class="b" d="M193.89,65c-.13,.46,.12,.92,.22,1.38,.07,.32,1.37,.33,1.44,0,.09-.46,.34-.92,.21-1.38-.12-.41-1.75-.42-1.87,0Z"/><path class="b" d="M189.03,66.13c.25,.14,.51,.28,.79,.41,.11,.05,.21,.1,.32,.15,.1,.04,.31,.1,.37,.13,.23,.14,.78,.07,.81-.07,0-.04,.12-.14,.14-.2,.02-.08,0-.16-.03-.24-.06-.18-.28-.39-.54-.55-.69-.42-2.61-.04-1.88,.37Z"/><path class="b" d="M183.52,67.28c.84,.29,1.94,.47,3.04,.59,.45,.05,.85-.14,.62-.27-.59-.35-1.34-.68-2.32-.9-1.02-.23-2.21,.29-1.34,.58Z"/><path class="b" d="M180.48,68.47c-1.16-.01-1.46,.63-.29,.71,.93,.07,2.25,.15,3.16,.03,.65-.08,.81-.37,.21-.51-.81-.19-2.13-.23-3.09-.24Z"/></g><path class="i" d="M195.41,70.8c-.28,.1-.28,.27-.17,.4,.53,.68,2.93,1.13,2.78,1.83-.08,.37-.89,.67-1.39,1.01-.5,.33-.53,.84,.47,.99,.83,.12,1.76-.09,2.66-.07,.79,.02,1.46,.21,1.9,.44s.72,.49,1.12,.72c.14,.09,.31,.17,.58,.21,.53,.07,1.09-.09,1.35-.27,.75-.49,.43-1.08,.34-1.63-.09-.55,.27-1.21,1.71-1.44,1.14-.19,2.81-.09,3.36-.49,.29-.21,.04-.48-.45-.64s-1.18-.23-1.85-.25c-.32-.01-.66-.02-.94-.08-.66-.14-.6-.48-.25-.72,.35-.24,.9-.45,1-.72,.05-.12-.12-.28-.47-.28-.15,0-.29,.03-.41,.06-1.72,.44-3.43,1.76-5.82,1.68-1.34-.05-4.47-1.13-5.5-.76Z"/></g></g><g><path class="h" d="M213.53,65.59l-1.97,.18c-1.06-.54-2.26-1.06-3.6-1.55-13.41-4.9-35.74-5.1-49.87-.44-6.51,2.15-10.15,4.95-10.86,7.83l-1.98,.18,3.04,4.05h0c1.47,1.91,4.3,3.72,8.49,5.25,13.41,4.9,35.74,5.1,49.87,.44,9.58-3.16,12.94-7.74,9.92-11.89h0l-3.04-4.05Z"/><path class="g" d="M214.79,77.48c3.06-2.48,3.66-5.24,1.78-7.83h0l-3.04-4.05-1.97,.18c-1.06-.54-2.26-1.06-3.6-1.55-1.23-.45-2.53-.86-3.89-1.23h-.14l10.87,14.48Z"/><g><ellipse class="e" cx="179.56" cy="68.92" rx="35.28" ry="12.24"/><path class="f" d="M174.66,60.63c-1.31-.99-2.53-1.11-3.01-1.1-.61,0-1.17,.11-1.71,.21-6.6,1.26-12.4,3.02-16.89,5.11-.55,.26-1.12,.57-.85,.88,.19,.23,.71,.38,1.06,.46,3.89,.91,13.18,1.5,13.18,1.5,7.36,.47,7.65,.67,7.67,.75,0,.07-.12,.26-6.19,.88-3.84,.39-7.63,.85-11.48,1.23-1.54,.15-3.25,.31-3.94,.82-.48,.35-.27,.76,.01,1.14,1.24,1.67,3.7,3.24,7.08,4.51,1.33,.5,3.07,.99,5.01,.91,.4-.02,1.87-.12,4.23-1.33,1.12-.58,2.2-1.28,3.52-2.6,1.86-1.87,2.42-3.21,3.56-3.2,.24,0,.42,.06,.5,.09,2.76,.98-4.77,7.57-.77,8.47,.27,.06,.79,.12,1.81,.08,5.13-.2,10.15-.74,14.73-1.58,1.02-.19,2.05-.4,2.7-.73,1.26-.64,.72-1.53-.39-2.2-1.2-.72-2.07-1.28-3.69-1.93-6.06-2.44-9.7-3.47-8.81-4.12,.08-.06,.18-.13,.4-.17,2.15-.43,8.42,3.1,17.3,4.15,3.33,.4,4.95,.21,5.71,0,.64-.19,1.05-.45,1.4-.71,1.94-1.44,2.5-3.09,1.57-4.65-.25-.42-.71-.87-1.82-1.06-1.03-.17-2.12-.09-2.5-.05-2.53,.22-10.03,.7-20.32,1.36-1.09-.18-1.31-.33-1.31-.43-.01-.85,14.98-2.36,19.97-3.22,.45-.08,1.41-.26,1.88-.62,.39-.3,.18-.66-.16-.97-1.42-1.29-4.88-2.16-8.21-2.92-3.76-.85-8.12-1.45-10.7-.86-4.16,.95-2.4,4.92-5.28,8.72,0,0-.41,.54-.81,.52-1.11-.04-1.3-4.95-4.45-7.32Z"/><path class="c" d="M169.82,63.57c-.15-.24-.34-.53-1.02-.6-.51-.05-1.02,.07-1.44,.18-1.77,.47-3.42,.99-4.95,1.55-.36,.13-.74,.3-.62,.47,.08,.13,.41,.22,.72,.3,3.37,.83,7.91,1.36,9.27,2.72,.85,.85,.09,1.83-1.52,2.53-1.62,.7-3.98,1.16-6.44,1.45-1.19,.14-2.68,.38-2.55,.81,.05,.16,.32,.29,.59,.42l3,1.44c2.1-.92,4.33-1.8,6.68-2.64,.82-.29,1.78-.6,2.96-.6,1.22,0,2.21,.34,2.93,.69,2.68,1.27,3.8,2.92,3.03,4.47,2.27-.06,4.5-.3,6.45-.71,.51-.1,1.02-.23,1.22-.43,.33-.33-.44-.67-1.08-.94-3.22-1.39-4.22-3.36-2.56-5.04,.2-.2,.47-.41,1-.52,.75-.15,1.69-.03,2.48,.1,3.98,.62,7.96,1.25,11.94,1.87,.65-.59,1.05-1.22,1.19-1.85,.04-.18,.05-.37-.22-.53-.41-.24-1.29-.31-2.08-.35l-7.73-.44c-1.69-.1-3.53-.22-4.62-.68-1.51-.64-.77-1.65,.86-2.26,1.63-.61,3.9-.95,5.94-1.38,.39-.08,.82-.2,.79-.36-.02-.09-.19-.16-.35-.23-1.91-.79-4.33-1.44-7.03-1.87-1.41,1.26-2.82,2.52-4.23,3.78-1.33,1.19-2.98,1.87-6.6,1.27-2.98-.5-5.32-1.48-6.01-2.62Z"/><g class="d"><path class="b" d="M155.58,71.16c-.37,0-.75,.07-.93,.18-.52,.33,.3,.58,1.22,.57,.35,0,.71,0,1.07,0,.42,0,.7-.04,1.08,.05,.1,.02,.21-.02,.16-.05-.28-.17-.38-.36-.8-.5-.46-.15-1.17-.25-1.8-.25Z"/><path class="b" d="M155.64,72.92c-1.19,.31-.25,.89,1.12,.69,.43-.06,.83-.15,1.25-.22,.39-.06,.76-.13,1.02-.25,.09-.05,.09-.12,0-.17-.67-.36-2.53-.28-3.4-.06Z"/><path class="b" d="M160.12,74.29c-.47,.05-.86,.16-1.27,.24-.4,.09-.83,.15-1.23,.23-1.13,.23-.16,.83,.99,.61,.42-.08,.84-.19,1.23-.29,.43-.11,.92-.21,1.2-.37,.37-.21-.22-.49-.92-.43Z"/><path class="b" d="M164.3,75.79c-.79,.18-1.12,.57-1.66,.83-.88,.43,1.19,.87,2.02,.42,.57-.31,1.28-.79,.71-1.15-.2-.12-.72-.19-1.08-.1Z"/><path class="b" d="M176.84,77.35c-.59,.32-.69,.73-.62,1.1,.04,.21,.48,.39,1.13,.39,.56,0,1.21-.18,1.14-.39-.1-.32,.04-.62,.04-.94,0-.31-1.2-.43-1.69-.16Z"/><path class="b" d="M182.21,77.26c-.8,.26-.71,.73-.49,1.06,.16,.25,.97,.37,1.62,.28,.71-.1,.89-.36,.61-.59-.31-.25-.43-.53-.93-.75-.19-.09-.6-.07-.81,0Z"/><path class="b" d="M187.1,76.74c-.59,.13-.76,.37-.68,.6,.08,.23,.33,.4,.74,.58,.39,.17,1.27,.16,1.68,0,.49-.18,.43-.4,.03-.58,.14,.07,.01,0-.02-.02-.04-.02-.09-.05-.13-.07-.04-.02-.07-.05-.11-.07l-.1-.08s-.03-.04,0,0c-.02-.03-.04-.06-.07-.08-.08-.09-.19-.16-.38-.23-.23-.08-.67-.11-.96-.05Z"/><path class="b" d="M189.69,76.14c.1,.52,1.23,1.18,2.62,1.17,.76,0,1.18-.35,.92-.6-.25-.24-.93-.37-1.44-.5-.49-.13-.97-.22-1.54-.29-.33-.04-.58,.1-.56,.22Z"/><path class="b" d="M201.21,71.67c-.6,0-1.14,.26-.76,.45,.39,.19,.92,.3,1.48,.42,.6,.13,1.17,.25,1.88,.28,.98,.04,1.33-.42,.78-.63-.42-.16-1.05-.24-1.61-.32-.58-.09-1.13-.19-1.78-.19Z"/><path class="b" d="M205.35,70.38c-.9-.04-2.01-.08-2.87,.02-.67,.08-.79,.36-.21,.51,.75,.19,1.86,.25,2.75,.3,.52,.03,1.08-.01,1.37-.19,.18-.11,.22-.21,.14-.32-.14-.2-.63-.29-1.17-.31Z"/><path class="b" d="M207.27,68.54c-1.36,.01-2.88,.16-3.81,.53-.33,.13-.15,.37,.42,.36,1.13-.01,2.25-.09,3.38-.12,1.4-.03,1.45-.78,.01-.76Z"/><path class="b" d="M205.33,66.81c-.46,.09-.86,.21-1.26,.32-.39,.11-.66,.24-.97,.37-.39,.17-.08,.46,.64,.4,.52-.05,1-.09,1.49-.18,.51-.09,.98-.18,1.43-.3,.44-.12,.42-.37,.11-.51-.34-.15-.94-.2-1.44-.11Z"/><path class="b" d="M200.53,62.73c-1.28,.23-2.69,.57-3.19,1.06-.19,.19,.39,.38,.93,.33,1.24-.13,2.32-.45,3.43-.67,1.32-.27,.19-.96-1.16-.72Z"/><path class="b" d="M196.75,61.28c-1.44,.27-1.73,.97-1.6,1.48,.07,.26,1.17,.35,1.38,.07,.33-.43,1.33-.72,1.8-1.12,.38-.32-.82-.58-1.58-.43Z"/><path class="b" d="M192.32,60.19c-.53,.15-.97,.36-1.21,.58-.23,.21-.24,.54,.61,.56,.49,.01,.92-.13,1.23-.24,.31-.11,.65-.22,.96-.33,.42-.16,.47-.4,.03-.56-.46-.16-1.13-.14-1.61,0Z"/><path class="b" d="M186.34,59.34c.01,.31-.04,.78,.48,1.04,.21,.11,.56,.12,.85,.04,.83-.23,.97-.74,.92-1.08-.07-.5-2.28-.51-2.25,0Z"/><path class="b" d="M170.62,60.81c-.13,.46,.12,.92,.22,1.38,.07,.32,1.37,.33,1.44,0,.09-.46,.34-.92,.21-1.38-.12-.41-1.75-.42-1.87,0Z"/><path class="b" d="M165.75,61.93c.25,.14,.51,.28,.79,.41,.11,.05,.21,.1,.32,.15,.1,.04,.31,.1,.37,.13,.23,.14,.78,.07,.81-.07,0-.04,.12-.14,.14-.2,.02-.08,0-.16-.03-.24-.06-.18-.28-.39-.54-.55-.69-.42-2.61-.04-1.88,.37Z"/><path class="b" d="M160.25,63.09c.84,.29,1.94,.47,3.04,.59,.45,.05,.85-.14,.62-.27-.59-.35-1.34-.68-2.32-.9-1.02-.23-2.21,.29-1.34,.58Z"/><path class="b" d="M157.2,64.28c-1.16-.01-1.46,.63-.29,.71,.93,.07,2.25,.15,3.16,.03,.65-.08,.81-.37,.21-.51-.81-.19-2.13-.23-3.09-.24Z"/></g><path class="i" d="M172.14,66.61c-.28,.1-.28,.27-.17,.4,.53,.68,2.93,1.13,2.78,1.83-.08,.37-.89,.67-1.39,1.01s-.53,.84,.47,.99c.83,.12,1.76-.09,2.66-.07,.79,.02,1.46,.21,1.9,.44s.72,.49,1.12,.72c.14,.09,.31,.17,.58,.21,.53,.07,1.09-.09,1.35-.27,.75-.49,.43-1.08,.34-1.63-.09-.55,.27-1.21,1.71-1.44,1.14-.19,2.81-.09,3.36-.49,.29-.21,.04-.48-.45-.64s-1.18-.23-1.85-.25c-.32-.01-.66-.02-.94-.08-.66-.14-.6-.48-.25-.72,.35-.24,.9-.45,1-.72,.05-.12-.12-.28-.47-.28-.15,0-.29,.03-.41,.06-1.72,.44-3.43,1.76-5.82,1.68-1.34-.05-4.47-1.13-5.5-.76Z"/></g></g><g><path class="h" d="M188.52,38.69l-1.97,.18c-1.06-.54-2.26-1.06-3.6-1.55-13.41-4.9-35.74-5.1-49.87-.44-6.51,2.15-10.15,4.95-10.86,7.83l-1.98,.18,3.04,4.05h0c1.47,1.91,4.3,3.72,8.49,5.25,13.41,4.9,35.74,5.1,49.87,.44,9.58-3.16,12.94-7.74,9.92-11.89h0l-3.04-4.05Z"/><path class="g" d="M189.78,50.57c3.06-2.48,3.66-5.24,1.78-7.83h0l-3.04-4.05-1.97,.18c-1.06-.54-2.26-1.06-3.6-1.55-1.23-.45-2.53-.86-3.89-1.23h-.14l10.87,14.48Z"/><g><ellipse class="e" cx="154.55" cy="42.02" rx="35.28" ry="12.24"/><path class="f" d="M149.65,33.73c-1.31-.99-2.53-1.11-3.01-1.1-.61,0-1.17,.11-1.71,.21-6.6,1.26-12.4,3.02-16.89,5.11-.55,.26-1.12,.57-.85,.88,.19,.23,.71,.38,1.06,.46,3.89,.91,13.18,1.5,13.18,1.5,7.36,.47,7.65,.67,7.67,.75,0,.07-.12,.26-6.19,.88-3.84,.39-7.63,.85-11.48,1.23-1.54,.15-3.25,.31-3.94,.82-.48,.35-.27,.76,.01,1.14,1.24,1.67,3.7,3.24,7.08,4.51,1.33,.5,3.07,.99,5.01,.91,.4-.02,1.87-.12,4.23-1.33,1.12-.58,2.2-1.28,3.52-2.6,1.86-1.87,2.42-3.21,3.56-3.2,.24,0,.42,.06,.5,.09,2.76,.98-4.77,7.57-.77,8.47,.27,.06,.79,.12,1.81,.08,5.13-.2,10.15-.74,14.73-1.58,1.02-.19,2.05-.4,2.7-.73,1.26-.64,.72-1.53-.39-2.2-1.2-.72-2.07-1.28-3.69-1.93-6.06-2.44-9.7-3.47-8.81-4.12,.08-.06,.18-.13,.4-.17,2.15-.43,8.42,3.1,17.3,4.15,3.33,.4,4.95,.21,5.71,0,.64-.19,1.05-.45,1.4-.71,1.94-1.44,2.5-3.09,1.57-4.65-.25-.42-.71-.87-1.82-1.06-1.03-.17-2.12-.09-2.5-.05-2.53,.22-10.03,.7-20.32,1.36-1.09-.18-1.31-.33-1.31-.43-.01-.85,14.98-2.36,19.97-3.22,.45-.08,1.41-.26,1.88-.62,.39-.3,.18-.66-.16-.97-1.42-1.29-4.88-2.16-8.21-2.92-3.76-.85-8.12-1.45-10.7-.86-4.16,.95-2.4,4.92-5.28,8.72,0,0-.41,.54-.81,.52-1.11-.04-1.3-4.95-4.45-7.32Z"/><path class="c" d="M144.82,36.67c-.15-.24-.34-.53-1.02-.6-.51-.05-1.02,.07-1.44,.18-1.77,.47-3.42,.99-4.95,1.55-.36,.13-.74,.3-.62,.47,.08,.13,.41,.22,.72,.3,3.37,.83,7.91,1.36,9.27,2.72,.85,.85,.09,1.83-1.52,2.53-1.62,.7-3.98,1.16-6.44,1.45-1.19,.14-2.68,.38-2.55,.81,.05,.16,.32,.29,.59,.42l3,1.44c2.1-.92,4.33-1.8,6.68-2.64,.82-.29,1.78-.6,2.96-.6,1.22,0,2.21,.34,2.93,.69,2.68,1.27,3.8,2.92,3.03,4.47,2.27-.06,4.5-.3,6.45-.71,.51-.1,1.02-.23,1.22-.43,.33-.33-.44-.67-1.08-.94-3.22-1.39-4.22-3.36-2.56-5.04,.2-.2,.47-.41,1-.52,.75-.15,1.69-.03,2.48,.1,3.98,.62,7.96,1.25,11.94,1.87,.65-.59,1.05-1.22,1.19-1.85,.04-.18,.05-.37-.22-.53-.41-.24-1.29-.31-2.08-.35l-7.73-.44c-1.69-.1-3.53-.22-4.62-.68-1.51-.64-.77-1.65,.86-2.26,1.63-.61,3.9-.95,5.94-1.38,.39-.08,.82-.2,.79-.36-.02-.09-.19-.16-.35-.23-1.91-.79-4.33-1.44-7.03-1.87-1.41,1.26-2.82,2.52-4.23,3.78-1.33,1.19-2.98,1.87-6.6,1.27-2.98-.5-5.32-1.48-6.01-2.62Z"/><g class="d"><path class="b" d="M130.57,44.25c-.37,0-.75,.07-.93,.18-.52,.33,.3,.58,1.22,.57,.35,0,.71,0,1.07,0,.42,0,.7-.04,1.08,.05,.1,.02,.21-.02,.16-.05-.28-.17-.38-.36-.8-.5-.46-.15-1.17-.25-1.8-.25Z"/><path class="b" d="M130.63,46.01c-1.19,.31-.25,.89,1.12,.69,.43-.06,.83-.15,1.25-.22,.39-.06,.76-.13,1.02-.25,.09-.05,.09-.12,0-.17-.67-.36-2.53-.28-3.4-.06Z"/><path class="b" d="M135.11,47.38c-.47,.05-.86,.16-1.27,.24-.4,.09-.83,.15-1.23,.23-1.13,.23-.16,.83,.99,.61,.42-.08,.84-.19,1.23-.29,.43-.11,.92-.21,1.2-.37,.37-.21-.22-.49-.92-.43Z"/><path class="b" d="M139.29,48.88c-.79,.18-1.12,.57-1.66,.83-.88,.43,1.19,.87,2.02,.42,.57-.31,1.28-.79,.71-1.15-.2-.12-.72-.19-1.08-.1Z"/><path class="b" d="M151.83,50.45c-.59,.32-.69,.73-.62,1.1,.04,.21,.48,.39,1.13,.39,.56,0,1.21-.18,1.14-.39-.1-.32,.04-.62,.04-.94,0-.31-1.2-.43-1.69-.16Z"/><path class="b" d="M157.2,50.35c-.8,.26-.71,.73-.49,1.06,.16,.25,.97,.37,1.62,.28,.71-.1,.89-.36,.61-.59-.31-.25-.43-.53-.93-.75-.19-.09-.6-.07-.81,0Z"/><path class="b" d="M162.09,49.83c-.59,.13-.76,.37-.68,.6,.08,.23,.33,.4,.74,.58,.39,.17,1.27,.16,1.68,0,.49-.18,.43-.4,.03-.58,.14,.07,.01,0-.02-.02-.04-.02-.09-.05-.13-.07-.04-.02-.07-.05-.11-.07l-.1-.08s-.03-.04,0,0c-.02-.03-.04-.06-.07-.08-.08-.09-.19-.16-.38-.23-.23-.08-.67-.11-.96-.05Z"/><path class="b" d="M164.68,49.24c.1,.52,1.23,1.18,2.62,1.17,.76,0,1.18-.35,.92-.6-.25-.24-.93-.37-1.44-.5-.49-.13-.97-.22-1.54-.29-.33-.04-.58,.1-.56,.22Z"/><path class="b" d="M176.2,44.76c-.6,0-1.14,.26-.76,.45,.39,.19,.92,.3,1.48,.42,.6,.13,1.17,.25,1.88,.28,.98,.04,1.33-.42,.78-.63-.42-.16-1.05-.24-1.61-.32-.58-.09-1.13-.19-1.78-.19Z"/><path class="b" d="M180.35,43.47c-.9-.04-2.01-.08-2.87,.02-.67,.08-.79,.36-.21,.51,.75,.19,1.86,.25,2.75,.3,.52,.03,1.08-.01,1.37-.19,.18-.11,.22-.21,.14-.32-.14-.2-.63-.29-1.17-.31Z"/><path class="b" d="M182.27,41.63c-1.36,.01-2.88,.16-3.81,.53-.33,.13-.15,.37,.42,.36,1.13-.01,2.25-.09,3.38-.12,1.4-.03,1.45-.78,.01-.76Z"/><path class="b" d="M180.32,39.9c-.46,.09-.86,.21-1.26,.32-.39,.11-.66,.24-.97,.37-.39,.17-.08,.46,.64,.4,.52-.05,1-.09,1.49-.18,.51-.09,.98-.18,1.43-.3,.44-.12,.42-.37,.11-.51-.34-.15-.94-.2-1.44-.11Z"/><path class="b" d="M175.52,35.82c-1.28,.23-2.69,.57-3.19,1.06-.19,.19,.39,.38,.93,.33,1.24-.13,2.32-.45,3.43-.67,1.32-.27,.19-.96-1.16-.72Z"/><path class="b" d="M171.74,34.37c-1.44,.27-1.73,.97-1.6,1.48,.07,.26,1.17,.35,1.38,.07,.33-.43,1.33-.72,1.8-1.12,.38-.32-.82-.58-1.58-.43Z"/><path class="b" d="M167.31,33.28c-.53,.15-.97,.36-1.21,.58-.23,.21-.24,.54,.61,.56,.49,.01,.92-.13,1.23-.24,.31-.11,.65-.22,.96-.33,.42-.16,.47-.4,.03-.56-.46-.16-1.13-.14-1.61,0Z"/><path class="b" d="M161.34,32.43c.01,.31-.04,.78,.48,1.04,.21,.11,.56,.12,.85,.04,.83-.23,.97-.74,.92-1.08-.07-.5-2.28-.51-2.25,0Z"/><path class="b" d="M145.61,33.9c-.13,.46,.12,.92,.22,1.38,.07,.32,1.37,.33,1.44,0,.09-.46,.34-.92,.21-1.38-.12-.41-1.75-.42-1.87,0Z"/><path class="b" d="M140.74,35.03c.25,.14,.51,.28,.79,.41,.11,.05,.21,.1,.32,.15,.1,.04,.31,.1,.37,.13,.23,.14,.78,.07,.81-.07,0-.04,.12-.14,.14-.2,.02-.08,0-.16-.03-.24-.06-.18-.28-.39-.54-.55-.69-.42-2.61-.04-1.88,.37Z"/><path class="b" d="M135.24,36.19c.84,.29,1.94,.47,3.04,.59,.45,.05,.85-.14,.62-.27-.59-.35-1.34-.68-2.32-.9-1.02-.23-2.21,.29-1.34,.58Z"/><path class="b" d="M132.19,37.38c-1.16-.01-1.46,.63-.29,.71,.93,.07,2.25,.15,3.16,.03,.65-.08,.81-.37,.21-.51-.81-.19-2.13-.23-3.09-.24Z"/></g><path class="i" d="M147.13,39.71c-.28,.1-.28,.27-.17,.4,.53,.68,2.93,1.13,2.78,1.83-.08,.37-.89,.67-1.39,1.01s-.53,.84,.47,.99c.83,.12,1.76-.09,2.66-.07,.79,.02,1.46,.21,1.9,.44s.72,.49,1.12,.72c.14,.09,.31,.17,.58,.21,.53,.07,1.09-.09,1.35-.27,.75-.49,.43-1.08,.34-1.63-.09-.55,.27-1.21,1.71-1.44,1.14-.19,2.81-.09,3.36-.49,.29-.21,.04-.48-.45-.64s-1.18-.23-1.85-.25c-.32-.01-.66-.02-.94-.08-.66-.14-.6-.48-.25-.72,.35-.24,.9-.45,1-.72,.05-.12-.12-.28-.47-.28-.15,0-.29,.03-.41,.06-1.72,.44-3.43,1.76-5.82,1.68-1.34-.05-4.47-1.13-5.5-.76Z"/></g></g><g><path class="h" d="M222.74,48.72l-1.97,.18c-1.06-.54-2.26-1.06-3.6-1.55-13.41-4.9-35.74-5.1-49.87-.44-6.51,2.15-10.15,4.95-10.86,7.83l-1.98,.18,3.04,4.05h0c1.47,1.91,4.3,3.72,8.49,5.25,13.41,4.9,35.74,5.1,49.87,.44,9.58-3.16,12.94-7.74,9.92-11.89h0l-3.04-4.05Z"/><path class="g" d="M224,60.6c3.06-2.48,3.66-5.24,1.78-7.83h0l-3.04-4.05-1.97,.18c-1.06-.54-2.26-1.06-3.6-1.55-1.23-.45-2.53-.86-3.89-1.23h-.14l10.87,14.48Z"/><g><ellipse class="e" cx="188.77" cy="52.05" rx="35.28" ry="12.24"/><path class="f" d="M183.87,43.76c-1.31-.99-2.53-1.11-3.01-1.1-.61,0-1.17,.11-1.71,.21-6.6,1.26-12.4,3.02-16.89,5.11-.55,.26-1.12,.57-.85,.88,.19,.23,.71,.38,1.06,.46,3.89,.91,13.18,1.5,13.18,1.5,7.36,.47,7.65,.67,7.67,.75,0,.07-.12,.26-6.19,.88-3.84,.39-7.63,.85-11.48,1.23-1.54,.15-3.25,.31-3.94,.82-.48,.35-.27,.76,.01,1.14,1.24,1.67,3.7,3.24,7.08,4.51,1.33,.5,3.07,.99,5.01,.91,.4-.02,1.87-.12,4.23-1.33,1.12-.58,2.2-1.28,3.52-2.6,1.86-1.87,2.42-3.21,3.56-3.2,.24,0,.42,.06,.5,.09,2.76,.98-4.77,7.57-.77,8.47,.27,.06,.79,.12,1.81,.08,5.13-.2,10.15-.74,14.73-1.58,1.02-.19,2.05-.4,2.7-.73,1.26-.64,.72-1.53-.39-2.2-1.2-.72-2.07-1.28-3.69-1.93-6.06-2.44-9.7-3.47-8.81-4.12,.08-.06,.18-.13,.4-.17,2.15-.43,8.42,3.1,17.3,4.15,3.33,.4,4.95,.21,5.71,0,.64-.19,1.05-.45,1.4-.71,1.94-1.44,2.5-3.09,1.57-4.65-.25-.42-.71-.87-1.82-1.06-1.03-.17-2.12-.09-2.5-.05-2.53,.22-10.03,.7-20.32,1.36-1.09-.18-1.31-.33-1.31-.43-.01-.85,14.98-2.36,19.97-3.22,.45-.08,1.41-.26,1.88-.62,.39-.3,.18-.66-.16-.97-1.42-1.29-4.88-2.16-8.21-2.92-3.76-.85-8.12-1.45-10.7-.86-4.16,.95-2.4,4.92-5.28,8.72,0,0-.41,.54-.81,.52-1.11-.04-1.3-4.95-4.45-7.32Z"/><path class="c" d="M179.04,46.7c-.15-.24-.34-.53-1.02-.6-.51-.05-1.02,.07-1.44,.18-1.77,.47-3.42,.99-4.95,1.55-.36,.13-.74,.3-.62,.47,.08,.13,.41,.22,.72,.3,3.37,.83,7.91,1.36,9.27,2.72,.85,.85,.09,1.83-1.52,2.53-1.62,.7-3.98,1.16-6.44,1.45-1.19,.14-2.68,.38-2.55,.81,.05,.16,.32,.29,.59,.42l3,1.44c2.1-.92,4.33-1.8,6.68-2.64,.82-.29,1.78-.6,2.96-.6,1.22,0,2.21,.34,2.93,.69,2.68,1.27,3.8,2.92,3.03,4.47,2.27-.06,4.5-.3,6.45-.71,.51-.1,1.02-.23,1.22-.43,.33-.33-.44-.67-1.08-.94-3.22-1.39-4.22-3.36-2.56-5.04,.2-.2,.47-.41,1-.52,.75-.15,1.69-.03,2.48,.1,3.98,.62,7.96,1.25,11.94,1.87,.65-.59,1.05-1.22,1.19-1.85,.04-.18,.05-.37-.22-.53-.41-.24-1.29-.31-2.08-.35l-7.73-.44c-1.69-.1-3.53-.22-4.62-.68-1.51-.64-.77-1.65,.86-2.26,1.63-.61,3.9-.95,5.94-1.38,.39-.08,.82-.2,.79-.36-.02-.09-.19-.16-.35-.23-1.91-.79-4.33-1.44-7.03-1.87-1.41,1.26-2.82,2.52-4.23,3.78-1.33,1.19-2.98,1.87-6.6,1.27-2.98-.5-5.32-1.48-6.01-2.62Z"/><g class="d"><path class="b" d="M164.79,54.28c-.37,0-.75,.07-.93,.18-.52,.33,.3,.58,1.22,.57,.35,0,.71,0,1.07,0,.42,0,.7-.04,1.08,.05,.1,.02,.21-.02,.16-.05-.28-.17-.38-.36-.8-.5-.46-.15-1.17-.25-1.8-.25Z"/><path class="b" d="M164.85,56.04c-1.19,.31-.25,.89,1.12,.69,.43-.06,.83-.15,1.25-.22,.39-.06,.76-.13,1.02-.25,.09-.05,.09-.12,0-.17-.67-.36-2.53-.28-3.4-.06Z"/><path class="b" d="M169.33,57.41c-.47,.05-.86,.16-1.27,.24-.4,.09-.83,.15-1.23,.23-1.13,.23-.16,.83,.99,.61,.42-.08,.84-.19,1.23-.29,.43-.11,.92-.21,1.2-.37,.37-.21-.22-.49-.92-.43Z"/><path class="b" d="M173.51,58.91c-.79,.18-1.12,.57-1.66,.83-.88,.43,1.19,.87,2.02,.42,.57-.31,1.28-.79,.71-1.15-.2-.12-.72-.19-1.08-.1Z"/><path class="b" d="M186.05,60.48c-.59,.32-.69,.73-.62,1.1,.04,.21,.48,.39,1.13,.39,.56,0,1.21-.18,1.14-.39-.1-.32,.04-.62,.04-.94,0-.31-1.2-.43-1.69-.16Z"/><path class="b" d="M191.42,60.38c-.8,.26-.71,.73-.49,1.06,.16,.25,.97,.37,1.62,.28,.71-.1,.89-.36,.61-.59-.31-.25-.43-.53-.93-.75-.19-.09-.6-.07-.81,0Z"/><path class="b" d="M196.31,59.86c-.59,.13-.76,.37-.68,.6,.08,.23,.33,.4,.74,.58,.39,.17,1.27,.16,1.68,0,.49-.18,.43-.4,.03-.58,.14,.07,.01,0-.02-.02-.04-.02-.09-.05-.13-.07-.04-.02-.07-.05-.11-.07l-.1-.08s-.03-.04,0,0c-.02-.03-.04-.06-.07-.08-.08-.09-.19-.16-.38-.23-.23-.08-.67-.11-.96-.05Z"/><path class="b" d="M198.9,59.27c.1,.52,1.23,1.18,2.62,1.17,.76,0,1.18-.35,.92-.6-.25-.24-.93-.37-1.44-.5-.49-.13-.97-.22-1.54-.29-.33-.04-.58,.1-.56,.22Z"/><path class="b" d="M210.42,54.79c-.6,0-1.14,.26-.76,.45,.39,.19,.92,.3,1.48,.42,.6,.13,1.17,.25,1.88,.28,.98,.04,1.33-.42,.78-.63-.42-.16-1.05-.24-1.61-.32-.58-.09-1.13-.19-1.78-.19Z"/><path class="b" d="M214.57,53.5c-.9-.04-2.01-.08-2.87,.02-.67,.08-.79,.36-.21,.51,.75,.19,1.86,.25,2.75,.3,.52,.03,1.08-.01,1.37-.19,.18-.11,.22-.21,.14-.32-.14-.2-.63-.29-1.17-.31Z"/><path class="b" d="M216.49,51.66c-1.36,.01-2.88,.16-3.81,.53-.33,.13-.15,.37,.42,.36,1.13-.01,2.25-.09,3.38-.12,1.4-.03,1.45-.78,.01-.76Z"/><path class="b" d="M214.54,49.93c-.46,.09-.86,.21-1.26,.32-.39,.11-.66,.24-.97,.37-.39,.17-.08,.46,.64,.4,.52-.05,1-.09,1.49-.18,.51-.09,.98-.18,1.43-.3,.44-.12,.42-.37,.11-.51-.34-.15-.94-.2-1.44-.11Z"/><path class="b" d="M209.74,45.85c-1.28,.23-2.69,.57-3.19,1.06-.19,.19,.39,.38,.93,.33,1.24-.13,2.32-.45,3.43-.67,1.32-.27,.19-.96-1.16-.72Z"/><path class="b" d="M205.96,44.4c-1.44,.27-1.73,.97-1.6,1.48,.07,.26,1.17,.35,1.38,.07,.33-.43,1.33-.72,1.8-1.12,.38-.32-.82-.58-1.58-.43Z"/><path class="b" d="M201.53,43.31c-.53,.15-.97,.36-1.21,.58-.23,.21-.24,.54,.61,.56,.49,.01,.92-.13,1.23-.24,.31-.11,.65-.22,.96-.33,.42-.16,.47-.4,.03-.56-.46-.16-1.13-.14-1.61,0Z"/><path class="b" d="M195.56,42.47c.01,.31-.04,.78,.48,1.04,.21,.11,.56,.12,.85,.04,.83-.23,.97-.74,.92-1.08-.07-.5-2.28-.51-2.25,0Z"/><path class="b" d="M179.83,43.93c-.13,.46,.12,.92,.22,1.38,.07,.32,1.37,.33,1.44,0,.09-.46,.34-.92,.21-1.38-.12-.41-1.75-.42-1.87,0Z"/><path class="b" d="M174.96,45.06c.25,.14,.51,.28,.79,.41,.11,.05,.21,.1,.32,.15,.1,.04,.31,.1,.37,.13,.23,.14,.78,.07,.81-.07,0-.04,.12-.14,.14-.2,.02-.08,0-.16-.03-.24-.06-.18-.28-.39-.54-.55-.69-.42-2.61-.04-1.88,.37Z"/><path class="b" d="M169.46,46.22c.84,.29,1.94,.47,3.04,.59,.45,.05,.85-.14,.62-.27-.59-.35-1.34-.68-2.32-.9-1.02-.23-2.21,.29-1.34,.58Z"/><path class="b" d="M166.41,47.41c-1.16-.01-1.46,.63-.29,.71,.93,.07,2.25,.15,3.16,.03,.65-.08,.81-.37,.21-.51-.81-.19-2.13-.23-3.09-.24Z"/></g><path class="i" d="M181.35,49.74c-.28,.1-.28,.27-.17,.4,.53,.68,2.93,1.13,2.78,1.83-.08,.37-.89,.67-1.39,1.01-.5,.33-.53,.84,.47,.99,.83,.12,1.76-.09,2.66-.07,.79,.02,1.46,.21,1.9,.44s.72,.49,1.12,.72c.14,.09,.31,.17,.58,.21,.53,.07,1.09-.09,1.35-.27,.75-.49,.43-1.08,.34-1.63-.09-.55,.27-1.21,1.71-1.44,1.14-.19,2.81-.09,3.36-.49,.29-.21,.04-.48-.45-.64s-1.18-.23-1.85-.25c-.32-.01-.66-.02-.94-.08-.66-.14-.6-.48-.25-.72,.35-.24,.9-.45,1-.72,.05-.12-.12-.28-.47-.28-.15,0-.29,.03-.41,.06-1.72,.44-3.43,1.76-5.82,1.68-1.34-.05-4.47-1.13-5.5-.76Z"/></g></g><g><path class="h" d="M202.04,33.13l-1.97,.18c-1.06-.54-2.26-1.06-3.6-1.55-13.41-4.9-35.74-5.1-49.87-.44-6.51,2.15-10.15,4.95-10.86,7.83l-1.98,.18,3.04,4.05h0c1.47,1.91,4.3,3.72,8.49,5.25,13.41,4.9,35.74,5.1,49.87,.44,9.58-3.16,12.94-7.74,9.92-11.89h0l-3.04-4.05Z"/><path class="g" d="M203.3,45.01c3.06-2.48,3.66-5.24,1.78-7.83h0l-3.04-4.05-1.97,.18c-1.06-.54-2.26-1.06-3.6-1.55-1.23-.45-2.53-.86-3.89-1.23h-.14l10.87,14.48Z"/><g><ellipse class="e" cx="168.07" cy="36.46" rx="35.28" ry="12.24"/><path class="f" d="M163.17,28.17c-1.31-.99-2.53-1.11-3.01-1.1-.61,0-1.17,.11-1.71,.21-6.6,1.26-12.4,3.02-16.89,5.11-.55,.26-1.12,.57-.85,.88,.19,.23,.71,.38,1.06,.46,3.89,.91,13.18,1.5,13.18,1.5,7.36,.47,7.65,.67,7.67,.75,0,.07-.12,.26-6.19,.88-3.84,.39-7.63,.85-11.48,1.23-1.54,.15-3.25,.31-3.94,.82-.48,.35-.27,.76,.01,1.14,1.24,1.67,3.7,3.24,7.08,4.51,1.33,.5,3.07,.99,5.01,.91,.4-.02,1.87-.12,4.23-1.33,1.12-.58,2.2-1.28,3.52-2.6,1.86-1.87,2.42-3.21,3.56-3.2,.24,0,.42,.06,.5,.09,2.76,.98-4.77,7.57-.77,8.47,.27,.06,.79,.12,1.81,.08,5.13-.2,10.15-.74,14.73-1.58,1.02-.19,2.05-.4,2.7-.73,1.26-.64,.72-1.53-.39-2.2-1.2-.72-2.07-1.28-3.69-1.93-6.06-2.44-9.7-3.47-8.81-4.12,.08-.06,.18-.13,.4-.17,2.15-.43,8.42,3.1,17.3,4.15,3.33,.4,4.95,.21,5.71,0,.64-.19,1.05-.45,1.4-.71,1.94-1.44,2.5-3.09,1.57-4.65-.25-.42-.71-.87-1.82-1.06-1.03-.17-2.12-.09-2.5-.05-2.53,.22-10.03,.7-20.32,1.36-1.09-.18-1.31-.33-1.31-.43-.01-.85,14.98-2.36,19.97-3.22,.45-.08,1.41-.26,1.88-.62,.39-.3,.18-.66-.16-.97-1.42-1.29-4.88-2.16-8.21-2.92-3.76-.85-8.12-1.45-10.7-.86-4.16,.95-2.4,4.92-5.28,8.72,0,0-.41,.54-.81,.52-1.11-.04-1.3-4.95-4.45-7.32Z"/><path class="c" d="M158.34,31.11c-.15-.24-.34-.53-1.02-.6-.51-.05-1.02,.07-1.44,.18-1.77,.47-3.42,.99-4.95,1.55-.36,.13-.74,.3-.62,.47,.08,.13,.41,.22,.72,.3,3.37,.83,7.91,1.36,9.27,2.72,.85,.85,.09,1.83-1.52,2.53-1.62,.7-3.98,1.16-6.44,1.45-1.19,.14-2.68,.38-2.55,.81,.05,.16,.32,.29,.59,.42l3,1.44c2.1-.92,4.33-1.8,6.68-2.64,.82-.29,1.78-.6,2.96-.6,1.22,0,2.21,.34,2.93,.69,2.68,1.27,3.8,2.92,3.03,4.47,2.27-.06,4.5-.3,6.45-.71,.51-.1,1.02-.23,1.22-.43,.33-.33-.44-.67-1.08-.94-3.22-1.39-4.22-3.36-2.56-5.04,.2-.2,.47-.41,1-.52,.75-.15,1.69-.03,2.48,.1,3.98,.62,7.96,1.25,11.94,1.87,.65-.59,1.05-1.22,1.19-1.85,.04-.18,.05-.37-.22-.53-.41-.24-1.29-.31-2.08-.35l-7.73-.44c-1.69-.1-3.53-.22-4.62-.68-1.51-.64-.77-1.65,.86-2.26,1.63-.61,3.9-.95,5.94-1.38,.39-.08,.82-.2,.79-.36-.02-.09-.19-.16-.35-.23-1.91-.79-4.33-1.44-7.03-1.87-1.41,1.26-2.82,2.52-4.23,3.78-1.33,1.19-2.98,1.87-6.6,1.27-2.98-.5-5.32-1.48-6.01-2.62Z"/><g class="d"><path class="b" d="M144.09,38.69c-.37,0-.75,.07-.93,.18-.52,.33,.3,.58,1.22,.57,.35,0,.71,0,1.07,0,.42,0,.7-.04,1.08,.05,.1,.02,.21-.02,.16-.05-.28-.17-.38-.36-.8-.5-.46-.15-1.17-.25-1.8-.25Z"/><path class="b" d="M144.15,40.45c-1.19,.31-.25,.89,1.12,.69,.43-.06,.83-.15,1.25-.22,.39-.06,.76-.13,1.02-.25,.09-.05,.09-.12,0-.17-.67-.36-2.53-.28-3.4-.06Z"/><path class="b" d="M148.63,41.82c-.47,.05-.86,.16-1.27,.24-.4,.09-.83,.15-1.23,.23-1.13,.23-.16,.83,.99,.61,.42-.08,.84-.19,1.23-.29,.43-.11,.92-.21,1.2-.37,.37-.21-.22-.49-.92-.43Z"/><path class="b" d="M152.81,43.32c-.79,.18-1.12,.57-1.66,.83-.88,.43,1.19,.87,2.02,.42,.57-.31,1.28-.79,.71-1.15-.2-.12-.72-.19-1.08-.1Z"/><path class="b" d="M165.35,44.89c-.59,.32-.69,.73-.62,1.1,.04,.21,.48,.39,1.13,.39,.56,0,1.21-.18,1.14-.39-.1-.32,.04-.62,.04-.94,0-.31-1.2-.43-1.69-.16Z"/><path class="b" d="M170.72,44.79c-.8,.26-.71,.73-.49,1.06,.16,.25,.97,.37,1.62,.28,.71-.1,.89-.36,.61-.59-.31-.25-.43-.53-.93-.75-.19-.09-.6-.07-.81,0Z"/><path class="b" d="M175.61,44.27c-.59,.13-.76,.37-.68,.6,.08,.23,.33,.4,.74,.58,.39,.17,1.27,.16,1.68,0,.49-.18,.43-.4,.03-.58,.14,.07,.01,0-.02-.02-.04-.02-.09-.05-.13-.07-.04-.02-.07-.05-.11-.07l-.1-.08s-.03-.04,0,0c-.02-.03-.04-.06-.07-.08-.08-.09-.19-.16-.38-.23-.23-.08-.67-.11-.96-.05Z"/><path class="b" d="M178.2,43.68c.1,.52,1.23,1.18,2.62,1.17,.76,0,1.18-.35,.92-.6-.25-.24-.93-.37-1.44-.5-.49-.13-.97-.22-1.54-.29-.33-.04-.58,.1-.56,.22Z"/><path class="b" d="M189.72,39.2c-.6,0-1.14,.26-.76,.45,.39,.19,.92,.3,1.48,.42,.6,.13,1.17,.25,1.88,.28,.98,.04,1.33-.42,.78-.63-.42-.16-1.05-.24-1.61-.32-.58-.09-1.13-.19-1.78-.19Z"/><path class="b" d="M193.86,37.91c-.9-.04-2.01-.08-2.87,.02-.67,.08-.79,.36-.21,.51,.75,.19,1.86,.25,2.75,.3,.52,.03,1.08-.01,1.37-.19,.18-.11,.22-.21,.14-.32-.14-.2-.63-.29-1.17-.31Z"/><path class="b" d="M195.79,36.07c-1.36,.01-2.88,.16-3.81,.53-.33,.13-.15,.37,.42,.36,1.13-.01,2.25-.09,3.38-.12,1.4-.03,1.45-.78,.01-.76Z"/><path class="b" d="M193.84,34.34c-.46,.09-.86,.21-1.26,.32-.39,.11-.66,.24-.97,.37-.39,.17-.08,.46,.64,.4,.52-.05,1-.09,1.49-.18,.51-.09,.98-.18,1.43-.3,.44-.12,.42-.37,.11-.51-.34-.15-.94-.2-1.44-.11Z"/><path class="b" d="M189.04,30.26c-1.28,.23-2.69,.57-3.19,1.06-.19,.19,.39,.38,.93,.33,1.24-.13,2.32-.45,3.43-.67,1.32-.27,.19-.96-1.16-.72Z"/><path class="b" d="M185.26,28.81c-1.44,.27-1.73,.97-1.6,1.48,.07,.26,1.17,.35,1.38,.07,.33-.43,1.33-.72,1.8-1.12,.38-.32-.82-.58-1.58-.43Z"/><path class="b" d="M180.83,27.72c-.53,.15-.97,.36-1.21,.58-.23,.21-.24,.54,.61,.56,.49,.01,.92-.13,1.23-.24,.31-.11,.65-.22,.96-.33,.42-.16,.47-.4,.03-.56-.46-.16-1.13-.14-1.61,0Z"/><path class="b" d="M174.86,26.88c.01,.31-.04,.78,.48,1.04,.21,.11,.56,.12,.85,.04,.83-.23,.97-.74,.92-1.08-.07-.5-2.28-.51-2.25,0Z"/><path class="b" d="M159.13,28.34c-.13,.46,.12,.92,.22,1.38,.07,.32,1.37,.33,1.44,0,.09-.46,.34-.92,.21-1.38-.12-.41-1.75-.42-1.87,0Z"/><path class="b" d="M154.26,29.47c.25,.14,.51,.28,.79,.41,.11,.05,.21,.1,.32,.15,.1,.04,.31,.1,.37,.13,.23,.14,.78,.07,.81-.07,0-.04,.12-.14,.14-.2,.02-.08,0-.16-.03-.24-.06-.18-.28-.39-.54-.55-.69-.42-2.61-.04-1.88,.37Z"/><path class="b" d="M148.76,30.63c.84,.29,1.94,.47,3.04,.59,.45,.05,.85-.14,.62-.27-.59-.35-1.34-.68-2.32-.9-1.02-.23-2.21,.29-1.34,.58Z"/><path class="b" d="M145.71,31.82c-1.16-.01-1.46,.63-.29,.71,.93,.07,2.25,.15,3.16,.03,.65-.08,.81-.37,.21-.51-.81-.19-2.13-.23-3.09-.24Z"/></g><path class="i" d="M160.65,34.15c-.28,.1-.28,.27-.17,.4,.53,.68,2.93,1.13,2.78,1.83-.08,.37-.89,.67-1.39,1.01s-.53,.84,.47,.99c.83,.12,1.76-.09,2.66-.07,.79,.02,1.46,.21,1.9,.44s.72,.49,1.12,.72c.14,.09,.31,.17,.58,.21,.53,.07,1.09-.09,1.35-.27,.75-.49,.43-1.08,.34-1.63-.09-.55,.27-1.21,1.71-1.44,1.14-.19,2.81-.09,3.36-.49,.29-.21,.04-.48-.45-.64s-1.18-.23-1.85-.25c-.32-.01-.66-.02-.94-.08-.66-.14-.6-.48-.25-.72,.35-.24,.9-.45,1-.72,.05-.12-.12-.28-.47-.28-.15,0-.29,.03-.41,.06-1.72,.44-3.43,1.76-5.82,1.68-1.34-.05-4.47-1.13-5.5-.76Z"/></g></g><g><path class="h" d="M205.75,23.3l-1.97,.18c-1.06-.54-2.26-1.06-3.6-1.55-13.41-4.9-35.74-5.1-49.87-.44-6.51,2.15-10.15,4.95-10.86,7.83l-1.98,.18,3.04,4.05h0c1.47,1.91,4.3,3.72,8.49,5.25,13.41,4.9,35.74,5.1,49.87,.44,9.58-3.16,12.94-7.74,9.92-11.89h0l-3.04-4.05Z"/><path class="g" d="M207.01,35.19c3.06-2.48,3.66-5.24,1.78-7.83h0l-3.04-4.05-1.97,.18c-1.06-.54-2.26-1.06-3.6-1.55-1.23-.45-2.53-.86-3.89-1.23h-.14l10.87,14.48Z"/><g><ellipse class="e" cx="171.78" cy="26.64" rx="35.28" ry="12.24"/><path class="f" d="M166.88,18.34c-1.31-.99-2.53-1.11-3.01-1.1-.61,0-1.17,.11-1.71,.21-6.6,1.26-12.4,3.02-16.89,5.11-.55,.26-1.12,.57-.85,.88,.19,.23,.71,.38,1.06,.46,3.89,.91,13.18,1.5,13.18,1.5,7.36,.47,7.65,.67,7.67,.75,0,.07-.12,.26-6.19,.88-3.84,.39-7.63,.85-11.48,1.23-1.54,.15-3.25,.31-3.94,.82-.48,.35-.27,.76,.01,1.14,1.24,1.67,3.7,3.24,7.08,4.51,1.33,.5,3.07,.99,5.01,.91,.4-.02,1.87-.12,4.23-1.33,1.12-.58,2.2-1.28,3.52-2.6,1.86-1.87,2.42-3.21,3.56-3.2,.24,0,.42,.06,.5,.09,2.76,.98-4.77,7.57-.77,8.47,.27,.06,.79,.12,1.81,.08,5.13-.2,10.15-.74,14.73-1.58,1.02-.19,2.05-.4,2.7-.73,1.26-.64,.72-1.53-.39-2.2-1.2-.72-2.07-1.28-3.69-1.93-6.06-2.44-9.7-3.47-8.81-4.12,.08-.06,.18-.13,.4-.17,2.15-.43,8.42,3.1,17.3,4.15,3.33,.4,4.95,.21,5.71,0,.64-.19,1.05-.45,1.4-.71,1.94-1.44,2.5-3.09,1.57-4.65-.25-.42-.71-.87-1.82-1.06-1.03-.17-2.12-.09-2.5-.05-2.53,.22-10.03,.7-20.32,1.36-1.09-.18-1.31-.33-1.31-.43-.01-.85,14.98-2.36,19.97-3.22,.45-.08,1.41-.26,1.88-.62,.39-.3,.18-.66-.16-.97-1.42-1.29-4.88-2.16-8.21-2.92-3.76-.85-8.12-1.45-10.7-.86-4.16,.95-2.4,4.92-5.28,8.72,0,0-.41,.54-.81,.52-1.11-.04-1.3-4.95-4.45-7.32Z"/><path class="c" d="M162.05,21.29c-.15-.24-.34-.53-1.02-.6-.51-.05-1.02,.07-1.44,.18-1.77,.47-3.42,.99-4.95,1.55-.36,.13-.74,.3-.62,.47,.08,.13,.41,.22,.72,.3,3.37,.83,7.91,1.36,9.27,2.72,.85,.85,.09,1.83-1.52,2.53-1.62,.7-3.98,1.16-6.44,1.45-1.19,.14-2.68,.38-2.55,.81,.05,.16,.32,.29,.59,.42l3,1.44c2.1-.92,4.33-1.8,6.68-2.64,.82-.29,1.78-.6,2.96-.6,1.22,0,2.21,.34,2.93,.69,2.68,1.27,3.8,2.92,3.03,4.47,2.27-.06,4.5-.3,6.45-.71,.51-.1,1.02-.23,1.22-.43,.33-.33-.44-.67-1.08-.94-3.22-1.39-4.22-3.36-2.56-5.04,.2-.2,.47-.41,1-.52,.75-.15,1.69-.03,2.48,.1,3.98,.62,7.96,1.25,11.94,1.87,.65-.59,1.05-1.22,1.19-1.85,.04-.18,.05-.37-.22-.53-.41-.24-1.29-.31-2.08-.35l-7.73-.44c-1.69-.1-3.53-.22-4.62-.68-1.51-.64-.77-1.65,.86-2.26,1.63-.61,3.9-.95,5.94-1.38,.39-.08,.82-.2,.79-.36-.02-.09-.19-.16-.35-.23-1.91-.79-4.33-1.44-7.03-1.87-1.41,1.26-2.82,2.52-4.23,3.78-1.33,1.19-2.98,1.87-6.6,1.27-2.98-.5-5.32-1.48-6.01-2.62Z"/><g class="d"><path class="b" d="M147.8,28.87c-.37,0-.75,.07-.93,.18-.52,.33,.3,.58,1.22,.57,.35,0,.71,0,1.07,0,.42,0,.7-.04,1.08,.05,.1,.02,.21-.02,.16-.05-.28-.17-.38-.36-.8-.5-.46-.15-1.17-.25-1.8-.25Z"/><path class="b" d="M147.86,30.63c-1.19,.31-.25,.89,1.12,.69,.43-.06,.83-.15,1.25-.22,.39-.06,.76-.13,1.02-.25,.09-.05,.09-.12,0-.17-.67-.36-2.53-.28-3.4-.06Z"/><path class="b" d="M152.34,32c-.47,.05-.86,.16-1.27,.24-.4,.09-.83,.15-1.23,.23-1.13,.23-.16,.83,.99,.61,.42-.08,.84-.19,1.23-.29,.43-.11,.92-.21,1.2-.37,.37-.21-.22-.49-.92-.43Z"/><path class="b" d="M156.52,33.5c-.79,.18-1.12,.57-1.66,.83-.88,.43,1.19,.87,2.02,.42,.57-.31,1.28-.79,.71-1.15-.2-.12-.72-.19-1.08-.1Z"/><path class="b" d="M169.06,35.07c-.59,.32-.69,.73-.62,1.1,.04,.21,.48,.39,1.13,.39,.56,0,1.21-.18,1.14-.39-.1-.32,.04-.62,.04-.94,0-.31-1.2-.43-1.69-.16Z"/><path class="b" d="M174.43,34.97c-.8,.26-.71,.73-.49,1.06,.16,.25,.97,.37,1.62,.28,.71-.1,.89-.36,.61-.59-.31-.25-.43-.53-.93-.75-.19-.09-.6-.07-.81,0Z"/><path class="b" d="M179.32,34.45c-.59,.13-.76,.37-.68,.6,.08,.23,.33,.4,.74,.58,.39,.17,1.27,.16,1.68,0,.49-.18,.43-.4,.03-.58,.14,.07,.01,0-.02-.02-.04-.02-.09-.05-.13-.07-.04-.02-.07-.05-.11-.07l-.1-.08s-.03-.04,0,0c-.02-.03-.04-.06-.07-.08-.08-.09-.19-.16-.38-.23-.23-.08-.67-.11-.96-.05Z"/><path class="b" d="M181.91,33.86c.1,.52,1.23,1.18,2.62,1.17,.76,0,1.18-.35,.92-.6-.25-.24-.93-.37-1.44-.5-.49-.13-.97-.22-1.54-.29-.33-.04-.58,.1-.56,.22Z"/><path class="b" d="M193.43,29.38c-.6,0-1.14,.26-.76,.45,.39,.19,.92,.3,1.48,.42,.6,.13,1.17,.25,1.88,.28,.98,.04,1.33-.42,.78-.63-.42-.16-1.05-.24-1.61-.32-.58-.09-1.13-.19-1.78-.19Z"/><path class="b" d="M197.58,28.09c-.9-.04-2.01-.08-2.87,.02-.67,.08-.79,.36-.21,.51,.75,.19,1.86,.25,2.75,.3,.52,.03,1.08-.01,1.37-.19,.18-.11,.22-.21,.14-.32-.14-.2-.63-.29-1.17-.31Z"/><path class="b" d="M199.5,26.25c-1.36,.01-2.88,.16-3.81,.53-.33,.13-.15,.37,.42,.36,1.13-.01,2.25-.09,3.38-.12,1.4-.03,1.45-.78,.01-.76Z"/><path class="b" d="M197.55,24.52c-.46,.09-.86,.21-1.26,.32-.39,.11-.66,.24-.97,.37-.39,.17-.08,.46,.64,.4,.52-.05,1-.09,1.49-.18,.51-.09,.98-.18,1.43-.3,.44-.12,.42-.37,.11-.51-.34-.15-.94-.2-1.44-.11Z"/><path class="b" d="M192.75,20.44c-1.28,.23-2.69,.57-3.19,1.06-.19,.19,.39,.38,.93,.33,1.24-.13,2.32-.45,3.43-.67,1.32-.27,.19-.96-1.16-.72Z"/><path class="b" d="M188.97,18.99c-1.44,.27-1.73,.97-1.6,1.48,.07,.26,1.17,.35,1.38,.07,.33-.43,1.33-.72,1.8-1.12,.38-.32-.82-.58-1.58-.43Z"/><path class="b" d="M184.54,17.9c-.53,.15-.97,.36-1.21,.58-.23,.21-.24,.54,.61,.56,.49,.01,.92-.13,1.23-.24,.31-.11,.65-.22,.96-.33,.42-.16,.47-.4,.03-.56-.46-.16-1.13-.14-1.61,0Z"/><path class="b" d="M178.57,17.05c.01,.31-.04,.78,.48,1.04,.21,.11,.56,.12,.85,.04,.83-.23,.97-.74,.92-1.08-.07-.5-2.28-.51-2.25,0Z"/><path class="b" d="M162.84,18.52c-.13,.46,.12,.92,.22,1.38,.07,.32,1.37,.33,1.44,0,.09-.46,.34-.92,.21-1.38-.12-.41-1.75-.42-1.87,0Z"/><path class="b" d="M157.97,19.65c.25,.14,.51,.28,.79,.41,.11,.05,.21,.1,.32,.15,.1,.04,.31,.1,.37,.13,.23,.14,.78,.07,.81-.07,0-.04,.12-.14,.14-.2,.02-.08,0-.16-.03-.24-.06-.18-.28-.39-.54-.55-.69-.42-2.61-.04-1.88,.37Z"/><path class="b" d="M152.47,20.8c.84,.29,1.94,.47,3.04,.59,.45,.05,.85-.14,.62-.27-.59-.35-1.34-.68-2.32-.9-1.02-.23-2.21,.29-1.34,.58Z"/><path class="b" d="M149.42,22c-1.16-.01-1.46,.63-.29,.71,.93,.07,2.25,.15,3.16,.03,.65-.08,.81-.37,.21-.51-.81-.19-2.13-.23-3.09-.24Z"/></g><path class="i" d="M164.36,24.33c-.28,.1-.28,.27-.17,.4,.53,.68,2.93,1.13,2.78,1.83-.08,.37-.89,.67-1.39,1.01s-.53,.84,.47,.99c.83,.12,1.76-.09,2.66-.07,.79,.02,1.46,.21,1.9,.44s.72,.49,1.12,.72c.14,.09,.31,.17,.58,.21,.53,.07,1.09-.09,1.35-.27,.75-.49,.43-1.08,.34-1.63-.09-.55,.27-1.21,1.71-1.44,1.14-.19,2.81-.09,3.36-.49,.29-.21,.04-.48-.45-.64s-1.18-.23-1.85-.25c-.32-.01-.66-.02-.94-.08-.66-.14-.6-.48-.25-.72,.35-.24,.9-.45,1-.72,.05-.12-.12-.28-.47-.28-.15,0-.29,.03-.41,.06-1.72,.44-3.43,1.76-5.82,1.68-1.34-.05-4.47-1.13-5.5-.76Z"/></g></g><g><path class="h" d="M174.36,5.45l-1.48,.87c-.93-.12-1.96-.18-3.1-.15-11.35,.23-28.56,7.99-38.45,17.33-4.56,4.3-6.76,8.19-6.7,11.11l-1.48,.87,3.19,2.67h0c1.53,1.24,4.09,1.91,7.63,1.84,11.35-.23,28.56-7.99,38.45-17.33,6.7-6.33,8.32-11.76,5.12-14.53h0l-3.19-2.67Z"/><path class="g" d="M177.84,16c1.83-3.38,1.71-6.15-.28-7.88h0l-3.19-2.67-1.48,.87c-.93-.12-1.96-.18-3.1-.15-1.04,.02-2.12,.11-3.25,.25l-.11,.06,11.41,9.53Z"/><g><ellipse class="e" cx="148.94" cy="20.61" rx="30.01" ry="11.33" transform="translate(6.77 69.55) rotate(-26.87)"/><path class="f" d="M143.43,14.68c-1.21-.45-2.18-.12-2.55,.05-.47,.22-.88,.52-1.27,.8-4.81,3.51-8.9,7.2-11.91,10.74-.37,.44-.74,.93-.47,1.12,.2,.14,.63,.09,.91,.04,3.19-.55,10.45-3.3,10.45-3.3,5.76-2.18,6.03-2.1,6.05-2.03,.02,.06-.04,.28-4.58,3.01-2.87,1.73-5.69,3.5-8.57,5.22-1.15,.69-2.43,1.44-2.86,2.16-.29,.49-.05,.8,.25,1.05,1.31,1.11,3.53,1.68,6.4,1.66,1.13-.01,2.57-.18,4.05-.94,.31-.16,1.41-.77,2.97-2.74,.74-.93,1.42-1.97,2.16-3.66,1.03-2.39,1.19-3.83,2.06-4.23,.18-.08,.33-.09,.41-.09,2.33-.08-2.08,8.71,1.2,8.12,.22-.04,.63-.17,1.41-.57,3.9-2.01,7.65-4.3,10.99-6.69,.75-.54,1.49-1.1,1.93-1.64,.84-1.04,.23-1.67-.77-1.89-1.07-.24-1.86-.45-3.25-.48-5.17-.1-8.19,.23-7.65-.68,.05-.09,.11-.18,.27-.3,1.56-1.16,7.13-.13,14.18-2.31,2.65-.82,3.85-1.56,4.39-2.04,.45-.4,.71-.79,.93-1.16,1.19-2.02,1.27-3.75,.23-4.86-.28-.3-.73-.56-1.62-.33-.83,.21-1.65,.67-1.94,.84-1.9,1.1-7.57,4.22-15.34,8.48-.88,.22-1.07,.16-1.1,.06-.19-.79,11.02-7.51,14.68-10.08,.33-.23,1.03-.75,1.31-1.24,.23-.42,0-.68-.33-.84-1.36-.69-4.21-.26-6.93,.22-3.07,.55-6.55,1.55-8.41,3.01-3,2.36-.81,5.41-2.22,9.95,0,0-.2,.64-.51,.77-.86,.36-2.05-4.12-4.97-5.2Z"/><path class="c" d="M140.33,19.12c-.16-.17-.38-.37-.91-.19-.4,.14-.77,.42-1.07,.68-1.26,1.06-2.43,2.13-3.48,3.19-.25,.25-.5,.54-.38,.66,.09,.09,.36,.06,.62,.02,2.77-.43,6.37-1.55,7.7-.78,.84,.48,.46,1.66-.64,2.89-1.09,1.23-2.82,2.49-4.64,3.63-.88,.55-1.98,1.3-1.79,1.66,.07,.13,.31,.16,.54,.18l2.61,.27c1.42-1.59,2.95-3.2,4.58-4.82,.57-.56,1.25-1.19,2.15-1.6,.94-.43,1.77-.47,2.4-.41,2.33,.22,3.53,1.35,3.27,3.06,1.73-.86,3.39-1.88,4.81-2.95,.37-.28,.74-.58,.84-.83,.18-.43-.48-.46-1.03-.49-2.77-.14-3.96-1.61-3.03-3.76,.11-.26,.27-.55,.66-.84,.55-.41,1.3-.63,1.93-.79,3.19-.84,6.39-1.68,9.58-2.52,.37-.78,.55-1.5,.52-2.14,0-.18-.04-.36-.28-.41-.36-.08-1.06,.18-1.68,.41l-6.04,2.34c-1.32,.51-2.76,1.05-3.7,1.01-1.3-.06-.94-1.26,.18-2.4,1.12-1.14,2.8-2.26,4.28-3.39,.28-.21,.59-.48,.53-.61-.03-.08-.18-.09-.32-.09-1.64-.06-3.63,.21-5.8,.76l-2.46,5.01c-.77,1.57-1.89,2.79-4.81,3.52-2.4,.6-4.41,.52-5.17-.28Z"/><g class="d"><path class="b" d="M130.97,31.21c-.28,.13-.56,.33-.68,.5-.33,.49,.35,.43,1.06,.1,.27-.13,.55-.25,.82-.38,.33-.16,.53-.28,.84-.34,.08-.02,.16-.09,.11-.11-.25-.06-.37-.2-.72-.18-.39,.02-.95,.19-1.44,.41Z"/><path class="b" d="M131.39,32.82c-.85,.71,0,.92,1.01,.24,.32-.21,.6-.43,.92-.65,.29-.19,.56-.39,.73-.59,.06-.08,.05-.15-.03-.16-.59-.1-2.01,.64-2.62,1.16Z"/><path class="b" d="M135.12,32.49c-.35,.21-.63,.45-.92,.68-.29,.22-.6,.43-.9,.65-.82,.61,.05,.82,.89,.21,.31-.22,.6-.47,.88-.7,.31-.25,.66-.52,.84-.77,.24-.33-.27-.38-.8-.07Z"/><path class="b" d="M138.66,32.39c-.57,.45-.74,.92-1.1,1.35-.59,.71,1.1,.38,1.65-.33,.38-.49,.82-1.18,.3-1.31-.18-.04-.59,.08-.85,.29Z"/><path class="b" d="M148.63,29.38c-.39,.51-.37,.92-.24,1.24,.08,.18,.46,.19,.95-.04,.43-.2,.89-.59,.79-.77-.14-.26-.1-.59-.17-.88-.07-.29-1.02,.03-1.33,.45Z"/><path class="b" d="M152.74,27.39c-.56,.52-.39,.92-.15,1.16,.17,.17,.83,0,1.3-.32,.53-.35,.61-.65,.34-.76-.29-.12-.44-.34-.87-.36-.17-.01-.47,.15-.62,.28Z"/><path class="b" d="M156.39,25.17c-.42,.33-.51,.61-.39,.8,.11,.18,.34,.26,.69,.28,.34,.02,1.01-.3,1.3-.59,.34-.34,.25-.52-.1-.55,.12,0,0,0-.02,0-.04,0-.08-.01-.12-.02-.04,0-.07-.02-.1-.03l-.09-.04s-.03-.03,0,0c-.02-.02-.05-.04-.07-.05-.08-.06-.18-.08-.34-.07-.19,0-.54,.13-.75,.3Z"/><path class="b" d="M158.26,23.69c.19,.45,1.2,.65,2.26,.15,.58-.28,.83-.74,.58-.88-.24-.13-.79-.01-1.21,.05-.4,.06-.8,.14-1.25,.28-.27,.08-.43,.3-.38,.41Z"/><path class="b" d="M166.17,15.45c-.46,.21-.83,.64-.49,.68,.34,.04,.77-.05,1.23-.14,.49-.09,.95-.19,1.51-.41,.76-.31,.94-.86,.47-.86-.35,0-.86,.15-1.31,.27-.46,.13-.91,.23-1.41,.46Z"/><path class="b" d="M169.09,12.79c-.7,.28-1.56,.64-2.21,1.04-.49,.31-.53,.62-.06,.54,.62-.1,1.48-.43,2.18-.7,.41-.16,.83-.4,1.01-.66,.11-.16,.12-.27,.04-.35-.15-.13-.55-.04-.96,.12Z"/><path class="b" d="M170.18,10.4c-1.05,.5-2.18,1.17-2.82,1.84-.22,.24-.04,.39,.4,.19,.87-.41,1.71-.89,2.57-1.31,1.07-.53,.95-1.23-.15-.71Z"/><path class="b" d="M168.32,9.49c-.33,.24-.62,.5-.9,.75-.27,.24-.46,.45-.67,.69-.27,.3,.04,.46,.58,.14,.39-.23,.75-.44,1.11-.69,.37-.26,.72-.51,1.03-.78,.31-.26,.25-.49-.02-.51-.29-.02-.77,.15-1.13,.41Z"/><path class="b" d="M163.77,7.42c-.94,.67-1.95,1.49-2.23,2.12-.11,.24,.38,.21,.78-.03,.93-.56,1.69-1.24,2.49-1.84,.96-.72-.06-.96-1.04-.25Z"/><path class="b" d="M160.55,7.42c-1.05,.77-1.13,1.52-.92,1.94,.11,.22,.97-.09,1.08-.43,.16-.52,.87-1.14,1.15-1.67,.22-.43-.75-.24-1.31,.16Z"/><path class="b" d="M156.92,7.99c-.37,.32-.67,.68-.81,.97-.14,.27-.07,.59,.59,.31,.38-.16,.68-.45,.89-.66,.22-.22,.45-.43,.67-.65,.29-.29,.28-.54-.1-.53-.39,.01-.9,.27-1.24,.56Z"/><path class="b" d="M152.14,9.33c.08,.29,.13,.73,.59,.8,.18,.03,.46-.09,.66-.26,.59-.51,.59-1.03,.48-1.33-.16-.44-1.86,.34-1.73,.8Z"/><path class="b" d="M140.36,16.28c0,.47,.29,.81,.46,1.2,.12,.27,1.12-.19,1.11-.51-.02-.46,.07-.98-.13-1.35-.18-.34-1.43,.23-1.44,.66Z"/><path class="b" d="M136.85,19.05c.22,.04,.45,.08,.7,.1,.09,0,.18,.02,.28,.02,.08,0,.26-.02,.31,0,.2,.04,.62-.21,.61-.36,0-.04,.07-.17,.06-.23,0-.08-.04-.15-.07-.21-.08-.15-.29-.26-.53-.32-.62-.14-2.01,.89-1.37,1.01Z"/><path class="b" d="M132.86,22.08c.71-.03,1.59-.26,2.46-.53,.35-.11,.63-.43,.42-.47-.52-.11-1.17-.15-1.98-.01-.84,.15-1.64,1.05-.91,1.01Z"/><path class="b" d="M130.77,24.26c-.89,.4-.99,1.1-.07,.76,.73-.26,1.76-.66,2.44-1.09,.48-.31,.55-.63,.06-.55-.66,.11-1.69,.55-2.42,.88Z"/></g><path class="i" d="M142.75,21.11c-.2,.2-.16,.34-.05,.43,.55,.44,2.49,0,2.52,.71,.02,.38-.55,.94-.86,1.43s-.23,.96,.57,.75c.66-.18,1.33-.71,2.03-1.01,.61-.27,1.17-.32,1.56-.27s.66,.19,1.01,.27c.13,.03,.28,.05,.49-.01,.42-.12,.82-.47,.99-.73,.47-.72,.1-1.15-.08-1.63-.18-.48-.05-1.21,1.01-1.94,.83-.58,2.14-1.09,2.48-1.64,.18-.3-.07-.46-.48-.43s-.96,.21-1.48,.43c-.25,.1-.51,.22-.74,.26-.53,.11-.56-.23-.35-.58,.22-.34,.6-.74,.62-1.02,.01-.13-.15-.22-.42-.09-.12,.05-.21,.13-.3,.2-1.23,1.02-2.26,2.85-4.12,3.62-1.04,.43-3.67,.54-4.39,1.25Z"/></g></g><g><path class="h" d="M172.33,25.6l-1.26,1.16c-.94,.07-1.96,.24-3.06,.5-11.05,2.61-26.24,13.81-33.95,25.02-3.55,5.17-4.89,9.43-4.22,12.27l-1.27,1.16,3.68,1.94h0c1.76,.89,4.4,1.01,7.85,.2,11.05-2.61,26.24-13.81,33.95-25.02,5.22-7.6,5.66-13.25,1.96-15.28h0l-3.68-1.94Z"/><path class="g" d="M177.94,35.18c1.08-3.69,.38-6.37-1.93-7.65h0l-3.68-1.94-1.26,1.16c-.94,.07-1.96,.24-3.06,.5-1.01,.24-2.05,.55-3.12,.93l-.09,.08,13.16,6.92Z"/><g><ellipse class="e" cx="150.66" cy="45.76" rx="30.01" ry="11.33" transform="translate(4.78 105.01) rotate(-39)"/><path class="f" d="M144.02,41.12c-1.28-.18-2.16,.34-2.48,.59-.41,.31-.75,.69-1.07,1.05-3.97,4.44-7.19,8.91-9.39,13-.27,.51-.53,1.06-.22,1.19,.22,.1,.63-.04,.9-.15,3-1.2,9.52-5.42,9.52-5.42,5.17-3.34,5.45-3.32,5.49-3.25,.03,.05,.02,.28-3.84,3.91-2.45,2.29-4.83,4.62-7.28,6.91-.98,.92-2.08,1.92-2.34,2.71-.18,.54,.12,.79,.46,.97,1.51,.81,3.8,.9,6.6,.28,1.1-.25,2.47-.71,3.76-1.77,.27-.22,1.22-1.05,2.33-3.3,.53-1.07,.98-2.22,1.34-4.03,.51-2.55,.35-3.99,1.13-4.57,.16-.12,.31-.16,.38-.18,2.26-.56-.2,8.95,2.88,7.68,.21-.09,.58-.3,1.26-.86,3.39-2.79,6.58-5.81,9.34-8.85,.62-.68,1.23-1.39,1.54-2,.6-1.19-.12-1.68-1.15-1.69-1.1-.01-1.91-.05-3.28,.21-5.08,.99-7.96,1.95-7.62,.94,.03-.1,.07-.2,.2-.35,1.28-1.46,6.94-1.62,13.38-5.24,2.42-1.36,3.44-2.34,3.87-2.92,.36-.49,.53-.92,.67-1.33,.74-2.22,.45-3.93-.8-4.8-.34-.23-.83-.39-1.66,.02-.76,.38-1.47,1-1.72,1.23-1.63,1.47-6.51,5.71-13.21,11.52-.81,.4-1.02,.38-1.06,.29-.35-.73,9.2-9.66,12.23-12.94,.27-.29,.85-.95,1.02-1.49,.14-.46-.14-.66-.5-.75-1.48-.39-4.17,.63-6.73,1.67-2.89,1.18-6.08,2.89-7.59,4.71-2.44,2.94,.34,5.46-.08,10.2,0,0-.06,.67-.34,.86-.77,.53-2.86-3.6-5.95-4.04Z"/><path class="c" d="M141.92,46.11c-.19-.13-.44-.28-.93,0-.36,.22-.66,.58-.9,.89-1.01,1.3-1.92,2.59-2.73,3.85-.19,.3-.38,.63-.23,.73,.11,.07,.36-.02,.61-.11,2.61-1,5.9-2.85,7.36-2.38,.92,.3,.8,1.53-.02,2.96-.81,1.43-2.23,3.03-3.78,4.53-.75,.72-1.67,1.69-1.4,2,.1,.11,.33,.09,.56,.06l2.61-.28c1.05-1.86,2.21-3.75,3.47-5.67,.44-.67,.97-1.42,1.76-2.02,.83-.62,1.63-.83,2.26-.9,2.32-.27,3.74,.58,3.84,2.3,1.51-1.21,2.92-2.55,4.08-3.89,.3-.35,.6-.72,.65-.99,.09-.46-.56-.35-1.11-.26-2.74,.45-4.21-.74-3.75-3.04,.05-.27,.15-.59,.47-.96,.45-.51,1.14-.88,1.72-1.18,2.95-1.49,5.89-2.98,8.84-4.47,.2-.84,.22-1.58,.06-2.2-.05-.18-.12-.35-.36-.35-.37,0-1,.4-1.55,.76l-5.41,3.55c-1.18,.78-2.48,1.61-3.4,1.76-1.28,.22-1.18-1.03-.33-2.38,.86-1.35,2.26-2.8,3.47-4.21,.23-.27,.48-.59,.39-.71-.05-.07-.19-.05-.33-.02-1.61,.29-3.51,.97-5.51,1.96l-1.35,5.41c-.42,1.7-1.26,3.13-3.96,4.45-2.22,1.09-4.2,1.43-5.12,.81Z"/><g class="d"><path class="b" d="M135.31,59.89c-.25,.19-.48,.44-.56,.63-.22,.55,.43,.34,1.06-.13,.24-.18,.49-.36,.72-.54,.29-.22,.46-.39,.75-.51,.07-.03,.14-.13,.09-.13-.26,0-.4-.12-.74-.02-.37,.11-.89,.38-1.32,.7Z"/><path class="b" d="M136.06,61.38c-.68,.87,.19,.9,1.04,.03,.27-.27,.5-.55,.76-.82,.24-.25,.46-.5,.59-.73,.05-.09,.01-.15-.06-.15-.6,.03-1.83,1.05-2.32,1.68Z"/><path class="b" d="M139.64,60.27c-.3,.28-.52,.57-.76,.86-.24,.28-.5,.55-.74,.83-.67,.77,.23,.79,.92,.02,.26-.28,.49-.59,.72-.88,.25-.31,.54-.65,.66-.93,.16-.37-.34-.32-.79,.1Z"/><path class="b" d="M143.08,59.44c-.46,.56-.53,1.06-.79,1.55-.43,.82,1.16,.14,1.54-.67,.27-.56,.55-1.33,.02-1.35-.18,0-.56,.21-.77,.46Z"/><path class="b" d="M152.19,54.4c-.27,.58-.17,.98,.02,1.26,.11,.16,.49,.09,.92-.23,.38-.28,.74-.77,.61-.92-.2-.22-.22-.56-.35-.83-.13-.27-.99,.25-1.21,.72Z"/><path class="b" d="M155.79,51.59c-.44,.63-.19,.98,.09,1.17,.2,.13,.81-.18,1.21-.58,.44-.45,.46-.77,.17-.82-.31-.05-.51-.24-.93-.17-.17,.03-.43,.24-.55,.41Z"/><path class="b" d="M158.89,48.65c-.34,.41-.37,.71-.22,.86,.15,.15,.38,.18,.73,.12,.33-.06,.92-.51,1.14-.85,.26-.4,.13-.56-.21-.52,.12-.02,0,0-.02,0-.04,0-.08,0-.12,0-.04,0-.07,0-.11,0l-.1-.02s-.04-.02,0,0c-.03-.01-.05-.02-.08-.04-.09-.04-.19-.04-.35,0-.19,.04-.5,.24-.67,.45Z"/><path class="b" d="M160.41,46.81c.27,.4,1.31,.39,2.24-.33,.51-.39,.66-.9,.38-.98-.26-.08-.77,.16-1.18,.3-.38,.14-.75,.31-1.16,.53-.24,.13-.35,.39-.29,.48Z"/><path class="b" d="M166.42,37.1c-.4,.3-.67,.8-.33,.77,.34-.04,.74-.21,1.17-.39,.46-.2,.89-.38,1.39-.72,.68-.46,.74-1.04,.27-.94-.35,.07-.81,.33-1.22,.54-.43,.22-.84,.42-1.28,.74Z"/><path class="b" d="M168.71,33.88c-.62,.42-1.39,.95-1.94,1.48-.42,.41-.39,.71,.06,.54,.58-.22,1.36-.73,1.98-1.14,.37-.24,.73-.56,.85-.86,.08-.18,.06-.29-.04-.35-.17-.1-.55,.07-.92,.32Z"/><path class="b" d="M169.27,31.32c-.92,.71-1.89,1.6-2.37,2.39-.17,.28,.05,.39,.43,.1,.76-.59,1.49-1.23,2.24-1.83,.93-.74,.67-1.41-.3-.66Z"/><path class="b" d="M167.26,30.82c-.28,.31-.5,.62-.72,.92-.22,.3-.35,.54-.51,.81-.2,.35,.13,.44,.59,.01,.34-.31,.64-.59,.94-.91,.31-.33,.59-.65,.85-.98,.25-.32,.14-.53-.13-.5-.29,.04-.72,.3-1.02,.64Z"/><path class="b" d="M162.38,29.75c-.78,.86-1.59,1.86-1.74,2.54-.05,.26,.42,.13,.76-.19,.79-.74,1.39-1.56,2.05-2.32,.78-.9-.26-.93-1.07-.03Z"/><path class="b" d="M159.24,30.42c-.87,.97-.78,1.72-.49,2.09,.15,.19,.93-.29,.96-.65,.05-.54,.61-1.29,.77-1.88,.13-.46-.79-.08-1.24,.43Z"/><path class="b" d="M155.8,31.74c-.3,.4-.51,.8-.59,1.12-.08,.3,.06,.59,.64,.18,.33-.24,.57-.58,.73-.83,.17-.26,.35-.52,.52-.78,.22-.35,.16-.58-.2-.49-.37,.09-.82,.45-1.09,.81Z"/><path class="b" d="M151.41,34.06c.14,.26,.29,.69,.75,.65,.18-.01,.43-.18,.59-.39,.47-.62,.36-1.13,.19-1.4-.24-.4-1.75,.72-1.53,1.15Z"/><path class="b" d="M141.35,43.33c.09,.46,.45,.73,.7,1.08,.17,.24,1.06-.42,.98-.73-.12-.44-.14-.97-.41-1.29-.25-.29-1.35,.53-1.27,.95Z"/><path class="b" d="M138.51,46.77c.22,0,.46-.02,.7-.05,.09-.01,.18-.02,.28-.03,.08-.01,.25-.07,.3-.07,.21,0,.56-.33,.52-.48-.01-.04,.03-.18,.01-.24-.02-.08-.07-.14-.11-.19-.11-.13-.34-.19-.58-.2-.64,0-1.78,1.29-1.12,1.27Z"/><path class="b" d="M135.24,50.57c.68-.18,1.5-.58,2.3-1.04,.32-.18,.52-.55,.31-.55-.54,0-1.18,.1-1.93,.41-.79,.32-1.38,1.37-.67,1.18Z"/><path class="b" d="M133.66,53.15c-.79,.58-.74,1.28,.09,.76,.65-.41,1.59-1.02,2.15-1.58,.41-.4,.4-.73-.06-.55-.62,.25-1.54,.89-2.18,1.37Z"/></g><path class="i" d="M144.71,47.55c-.15,.23-.08,.37,.05,.43,.63,.32,2.44-.52,2.61,.16,.09,.36-.34,1.03-.54,1.57s-.02,.99,.71,.61c.61-.31,1.15-.97,1.77-1.42,.54-.39,1.07-.56,1.46-.59s.68,.05,1.04,.05c.13,0,.28-.01,.47-.11,.39-.2,.7-.63,.81-.92,.31-.8-.14-1.15-.42-1.58-.28-.43-.3-1.18,.58-2.11,.69-.74,1.87-1.51,2.08-2.13,.11-.33-.16-.43-.56-.32s-.89,.41-1.36,.73c-.22,.15-.45,.32-.67,.41-.5,.22-.6-.11-.46-.49,.14-.38,.43-.85,.39-1.13-.02-.13-.19-.19-.43,0-.1,.08-.18,.17-.25,.26-.99,1.25-1.61,3.26-3.27,4.41-.92,.64-3.48,1.3-4.03,2.15Z"/></g></g><g><path class="h" d="M181.76,53.6l-1.26,1.16c-.94,.07-1.96,.24-3.06,.5-11.05,2.61-26.24,13.81-33.95,25.02-3.55,5.17-4.89,9.43-4.22,12.27l-1.27,1.16,3.68,1.94h0c1.76,.89,4.4,1.01,7.85,.2,11.05-2.61,26.24-13.81,33.95-25.02,5.22-7.6,5.66-13.25,1.96-15.28h0l-3.68-1.94Z"/><path class="g" d="M187.37,63.19c1.08-3.69,.38-6.37-1.93-7.65h0l-3.68-1.94-1.26,1.16c-.94,.07-1.96,.24-3.06,.5-1.01,.24-2.05,.55-3.12,.93l-.09,.08,13.16,6.92Z"/><g><ellipse class="e" cx="160.09" cy="73.76" rx="30.01" ry="11.33" transform="translate(-10.75 117.18) rotate(-39)"/><path class="f" d="M153.45,69.12c-1.28-.18-2.16,.34-2.48,.59-.41,.31-.75,.69-1.07,1.05-3.97,4.44-7.19,8.91-9.39,13-.27,.51-.53,1.06-.22,1.19,.22,.1,.63-.04,.9-.15,3-1.2,9.52-5.42,9.52-5.42,5.17-3.34,5.45-3.32,5.49-3.25,.03,.05,.02,.28-3.84,3.91-2.45,2.29-4.83,4.62-7.28,6.91-.98,.92-2.08,1.92-2.34,2.71-.18,.54,.12,.79,.46,.97,1.51,.81,3.8,.9,6.6,.28,1.1-.25,2.47-.71,3.76-1.77,.27-.22,1.22-1.05,2.33-3.3,.53-1.07,.98-2.22,1.34-4.03,.51-2.55,.35-3.99,1.13-4.57,.16-.12,.31-.16,.38-.18,2.26-.56-.2,8.95,2.88,7.68,.21-.09,.58-.3,1.26-.86,3.39-2.79,6.58-5.81,9.34-8.85,.62-.68,1.23-1.39,1.54-2,.6-1.19-.12-1.68-1.15-1.69-1.1-.01-1.91-.05-3.28,.21-5.08,.99-7.96,1.95-7.62,.94,.03-.1,.07-.2,.2-.35,1.28-1.46,6.94-1.62,13.38-5.24,2.42-1.36,3.44-2.34,3.87-2.92,.36-.49,.53-.92,.67-1.33,.74-2.22,.45-3.93-.8-4.8-.34-.23-.83-.39-1.66,.02-.76,.38-1.47,1-1.72,1.23-1.63,1.47-6.51,5.71-13.21,11.52-.81,.4-1.02,.38-1.06,.29-.35-.73,9.2-9.66,12.23-12.94,.27-.29,.85-.95,1.02-1.49,.14-.46-.14-.66-.5-.75-1.48-.39-4.17,.63-6.73,1.67-2.89,1.18-6.08,2.89-7.59,4.71-2.44,2.94,.34,5.46-.08,10.2,0,0-.06,.67-.34,.86-.77,.53-2.86-3.6-5.95-4.04Z"/><path class="c" d="M151.35,74.11c-.19-.13-.44-.28-.93,0-.36,.22-.66,.58-.9,.89-1.01,1.3-1.92,2.59-2.73,3.85-.19,.3-.38,.63-.23,.73,.11,.07,.36-.02,.61-.11,2.61-1,5.9-2.85,7.36-2.38,.92,.3,.8,1.53-.02,2.96-.81,1.43-2.23,3.03-3.78,4.53-.75,.72-1.67,1.69-1.4,2,.1,.11,.33,.09,.56,.06l2.61-.28c1.05-1.86,2.21-3.75,3.47-5.67,.44-.67,.97-1.42,1.76-2.02,.83-.62,1.63-.83,2.26-.9,2.32-.27,3.74,.58,3.84,2.3,1.51-1.21,2.92-2.55,4.08-3.89,.3-.35,.6-.72,.65-.99,.09-.46-.56-.35-1.11-.26-2.74,.45-4.21-.74-3.75-3.04,.05-.27,.15-.59,.47-.96,.45-.51,1.14-.88,1.72-1.18,2.95-1.49,5.89-2.98,8.84-4.47,.2-.84,.22-1.58,.06-2.2-.05-.18-.12-.35-.36-.35-.37,0-1,.4-1.55,.76l-5.41,3.55c-1.18,.78-2.48,1.61-3.4,1.76-1.28,.22-1.18-1.03-.33-2.38,.86-1.35,2.26-2.8,3.47-4.21,.23-.27,.48-.59,.39-.71-.05-.07-.19-.05-.33-.02-1.61,.29-3.51,.97-5.51,1.96l-1.35,5.41c-.42,1.7-1.26,3.13-3.96,4.45-2.22,1.09-4.2,1.43-5.12,.81Z"/><g class="d"><path class="b" d="M144.74,87.9c-.25,.19-.48,.44-.56,.63-.22,.55,.43,.34,1.06-.13,.24-.18,.49-.36,.72-.54,.29-.22,.46-.39,.75-.51,.07-.03,.14-.13,.09-.13-.26,0-.4-.12-.74-.02-.37,.11-.89,.38-1.32,.7Z"/><path class="b" d="M145.49,89.38c-.68,.87,.19,.9,1.04,.03,.27-.27,.5-.55,.76-.82,.24-.25,.46-.5,.59-.73,.05-.09,.01-.15-.06-.15-.6,.03-1.83,1.05-2.32,1.68Z"/><path class="b" d="M149.07,88.28c-.3,.28-.52,.57-.76,.86-.24,.28-.5,.55-.74,.83-.67,.77,.23,.79,.92,.02,.26-.28,.49-.59,.72-.88,.25-.31,.54-.65,.66-.93,.16-.37-.34-.32-.79,.1Z"/><path class="b" d="M152.51,87.44c-.46,.56-.53,1.06-.79,1.55-.43,.82,1.16,.14,1.54-.67,.27-.56,.55-1.33,.02-1.35-.18,0-.56,.21-.77,.46Z"/><path class="b" d="M161.62,82.4c-.27,.58-.17,.98,.02,1.26,.11,.16,.49,.09,.92-.23,.38-.28,.74-.77,.61-.92-.2-.22-.22-.56-.35-.83-.13-.27-.99,.25-1.21,.72Z"/><path class="b" d="M165.22,79.59c-.44,.63-.19,.98,.09,1.17,.2,.13,.81-.18,1.21-.58,.44-.45,.46-.77,.17-.82-.31-.05-.51-.24-.93-.17-.17,.03-.43,.24-.55,.41Z"/><path class="b" d="M168.32,76.65c-.34,.41-.37,.71-.22,.86,.15,.15,.38,.18,.73,.12,.33-.06,.92-.51,1.14-.85,.26-.4,.13-.56-.21-.52,.12-.02,0,0-.02,0-.04,0-.08,0-.12,0-.04,0-.07,0-.11,0l-.1-.02s-.04-.02,0,0c-.03-.01-.05-.02-.08-.04-.09-.04-.19-.04-.35,0-.19,.04-.5,.24-.67,.45Z"/><path class="b" d="M169.84,74.82c.27,.4,1.31,.39,2.24-.33,.51-.39,.66-.9,.38-.98-.26-.08-.77,.16-1.18,.3-.38,.14-.75,.31-1.16,.53-.24,.13-.35,.39-.29,.48Z"/><path class="b" d="M175.85,65.1c-.4,.3-.67,.8-.33,.77,.34-.04,.74-.21,1.17-.39,.46-.2,.89-.38,1.39-.72,.68-.46,.74-1.04,.27-.94-.35,.07-.81,.33-1.22,.54-.43,.22-.84,.42-1.28,.74Z"/><path class="b" d="M178.14,61.88c-.62,.42-1.39,.95-1.94,1.48-.42,.41-.39,.71,.06,.54,.58-.22,1.36-.73,1.98-1.14,.37-.24,.73-.56,.85-.86,.08-.18,.06-.29-.04-.35-.17-.1-.55,.07-.92,.32Z"/><path class="b" d="M178.7,59.32c-.92,.71-1.89,1.6-2.37,2.39-.17,.28,.05,.39,.43,.1,.76-.59,1.49-1.23,2.24-1.83,.93-.74,.67-1.41-.3-.66Z"/><path class="b" d="M176.69,58.82c-.28,.31-.5,.62-.72,.92-.22,.3-.35,.54-.51,.81-.2,.35,.13,.44,.59,.01,.34-.31,.64-.59,.94-.91,.31-.33,.59-.65,.85-.98,.25-.32,.14-.53-.13-.5-.29,.04-.72,.3-1.02,.64Z"/><path class="b" d="M171.81,57.75c-.78,.86-1.59,1.86-1.74,2.54-.05,.26,.42,.13,.76-.19,.79-.74,1.39-1.56,2.05-2.32,.78-.9-.26-.93-1.07-.03Z"/><path class="b" d="M168.67,58.43c-.87,.97-.78,1.72-.49,2.09,.15,.19,.93-.29,.96-.65,.05-.54,.61-1.29,.77-1.88,.13-.46-.79-.08-1.24,.43Z"/><path class="b" d="M165.23,59.75c-.3,.4-.51,.8-.59,1.12-.08,.3,.06,.59,.64,.18,.33-.24,.57-.58,.73-.83,.17-.26,.35-.52,.52-.78,.22-.35,.16-.58-.2-.49-.37,.09-.82,.45-1.09,.81Z"/><path class="b" d="M160.84,62.06c.14,.26,.29,.69,.75,.65,.18-.01,.43-.18,.59-.39,.47-.62,.36-1.13,.19-1.4-.24-.4-1.75,.72-1.53,1.15Z"/><path class="b" d="M150.78,71.33c.09,.46,.45,.73,.7,1.08,.17,.24,1.06-.42,.98-.73-.12-.44-.14-.97-.41-1.29-.25-.29-1.35,.53-1.27,.95Z"/><path class="b" d="M147.94,74.78c.22,0,.46-.02,.7-.05,.09-.01,.18-.02,.28-.03,.08-.01,.25-.07,.3-.07,.21,0,.56-.33,.52-.48-.01-.04,.03-.18,.01-.24-.02-.08-.07-.14-.11-.19-.11-.13-.34-.19-.58-.2-.64,0-1.78,1.29-1.12,1.27Z"/><path class="b" d="M144.67,78.58c.68-.18,1.5-.58,2.3-1.04,.32-.18,.52-.55,.31-.55-.54,0-1.18,.1-1.93,.41-.79,.32-1.38,1.37-.67,1.18Z"/><path class="b" d="M143.09,81.15c-.79,.58-.74,1.28,.09,.76,.65-.41,1.59-1.02,2.15-1.58,.41-.4,.4-.73-.06-.55-.62,.25-1.54,.89-2.18,1.37Z"/></g><path class="i" d="M154.14,75.55c-.15,.23-.08,.37,.05,.43,.63,.32,2.44-.52,2.61,.16,.09,.36-.34,1.03-.54,1.57s-.02,.99,.71,.61c.61-.31,1.15-.97,1.77-1.42,.54-.39,1.07-.56,1.46-.59s.68,.05,1.04,.05c.13,0,.28-.01,.47-.11,.39-.2,.7-.63,.81-.92,.31-.8-.14-1.15-.42-1.58-.28-.43-.3-1.18,.58-2.11,.69-.74,1.87-1.51,2.08-2.13,.11-.33-.16-.43-.56-.32s-.89,.41-1.36,.73c-.22,.15-.45,.32-.67,.41-.5,.22-.6-.11-.46-.49,.14-.38,.43-.85,.39-1.13-.02-.13-.19-.19-.43,0-.1,.08-.18,.17-.25,.26-.99,1.25-1.61,3.26-3.27,4.41-.92,.64-3.48,1.3-4.03,2.15Z"/></g></g><g><path class="h" d="M192.81,47.57l-1.92-.5c-.82-.87-1.77-1.76-2.87-2.67-10.98-9.13-31.94-16.84-46.81-17.21-6.86-.17-11.22,1.24-12.87,3.72l-1.92-.5,1.5,4.84h0c.74,2.29,2.79,4.95,6.22,7.8,10.98,9.13,31.94,16.84,46.81,17.21,10.09,.25,14.79-2.93,13.35-7.85h0l-1.5-4.84Z"/><path class="g" d="M189.99,59.19c3.71-1.3,5.21-3.7,4.31-6.78h0l-1.5-4.84-1.92-.5c-.82-.87-1.77-1.76-2.87-2.67-1-.83-2.09-1.66-3.25-2.46l-.14-.04,5.36,17.28Z"/><g><ellipse class="e" cx="159.7" cy="39.27" rx="12.24" ry="35.28" transform="translate(68.99 176.44) rotate(-70.34)"/><path class="f" d="M157.88,29.81c-.9-1.37-2.01-1.89-2.47-2.05-.58-.2-1.14-.3-1.68-.38-6.64-1.04-12.69-1.34-17.62-.87-.61,.06-1.24,.16-1.1,.54,.11,.28,.54,.59,.85,.79,3.36,2.16,11.9,5.85,11.9,5.85,6.77,2.92,6.98,3.2,6.96,3.29-.01,.06-.2,.2-6.13-1.26-3.75-.93-7.47-1.77-11.23-2.71-1.5-.38-3.17-.8-3.99-.56-.57,.17-.51,.63-.37,1.07,.61,2,2.39,4.3,5.15,6.63,1.08,.92,2.56,1.96,4.42,2.54,.39,.12,1.8,.52,4.43,.17,1.25-.16,2.5-.46,4.19-1.27,2.38-1.14,3.36-2.21,4.43-1.82,.23,.08,.37,.2,.44,.26,2.27,1.85-7.05,5.52-3.58,7.72,.23,.15,.71,.38,1.68,.68,4.9,1.54,9.81,2.72,14.4,3.48,1.02,.17,2.07,.32,2.79,.23,1.4-.18,1.19-1.19,.37-2.2-.88-1.08-1.52-1.9-2.83-3.07-4.88-4.34-7.96-6.54-6.91-6.85,.1-.03,.21-.06,.43-.03,2.17,.32,6.88,5.75,14.89,9.74,3,1.5,4.59,1.87,5.38,1.92,.66,.04,1.14-.07,1.56-.19,2.31-.7,3.39-2.07,3.04-3.85-.09-.48-.38-1.06-1.36-1.61-.91-.51-1.97-.79-2.34-.89-2.45-.65-9.68-2.72-19.59-5.56-.97-.54-1.12-.75-1.09-.85,.28-.81,14.9,2.82,19.89,3.69,.45,.08,1.42,.23,1.98,.04,.47-.16,.39-.56,.18-.97-.9-1.69-3.87-3.67-6.75-5.51-3.25-2.07-7.16-4.1-9.78-4.41-4.24-.51-3.92,3.82-7.91,6.44,0,0-.56,.37-.94,.22-1.03-.41,.44-5.1-1.73-8.4Z"/><path class="c" d="M152.34,30.95c-.06-.27-.14-.62-.76-.91-.46-.22-.98-.28-1.42-.32-1.82-.15-3.56-.22-5.18-.21-.38,0-.79,.03-.75,.24,.04,.15,.31,.34,.58,.52,2.89,1.92,6.99,3.95,7.81,5.68,.52,1.09-.53,1.75-2.29,1.87-1.76,.12-4.14-.25-6.55-.8-1.16-.27-2.65-.55-2.67-.1,0,.16,.2,.38,.41,.59l2.34,2.37c2.28-.16,4.68-.24,7.18-.23,.87,0,1.88,.04,2.98,.43,1.15,.41,1.96,1.07,2.53,1.63,2.09,2.09,2.59,4.03,1.35,5.23,2.16,.71,4.34,1.23,6.31,1.51,.51,.07,1.04,.13,1.29,0,.43-.2-.19-.77-.7-1.25-2.57-2.39-2.85-4.58-.71-5.61,.26-.12,.58-.23,1.12-.15,.76,.11,1.6,.55,2.31,.93,3.54,1.93,7.08,3.85,10.62,5.78,.81-.34,1.4-.8,1.74-1.35,.1-.16,.17-.34-.02-.57-.3-.36-1.12-.72-1.84-1.03l-7.13-3.02c-1.56-.66-3.25-1.4-4.12-2.2-1.21-1.11-.17-1.81,1.57-1.84,1.74-.03,3.99,.42,6.06,.71,.4,.05,.84,.09,.86-.07,.01-.09-.12-.22-.25-.34-1.53-1.39-3.59-2.81-5.98-4.13-1.75,.71-3.51,1.43-5.26,2.14-1.65,.67-3.43,.76-6.64-1.03-2.64-1.48-4.51-3.19-4.78-4.49Z"/><g class="d"><path class="b" d="M136.37,33.29c-.35-.12-.73-.19-.94-.14-.6,.13,.09,.64,.96,.95,.33,.12,.67,.24,1.01,.36,.4,.14,.67,.2,1,.41,.08,.05,.21,.05,.17,0-.21-.25-.23-.47-.59-.74-.38-.3-1.02-.63-1.61-.84Z"/><path class="b" d="M135.83,34.97c-1.22-.11-.54,.75,.82,1.03,.43,.09,.83,.14,1.25,.22,.39,.07,.76,.14,1.04,.11,.1-.01,.13-.08,.06-.16-.51-.56-2.29-1.11-3.18-1.2Z"/><path class="b" d="M139.59,37.77c-.46-.12-.86-.14-1.28-.2-.41-.05-.83-.14-1.24-.2-1.14-.16-.43,.73,.73,.91,.43,.07,.85,.1,1.26,.14,.44,.04,.94,.11,1.25,.05,.42-.08-.04-.54-.72-.71Z"/><path class="b" d="M143.02,40.59c-.8-.1-1.24,.16-1.84,.22-.97,.1,.83,1.22,1.76,1.08,.65-.1,1.47-.31,1.05-.84-.14-.18-.61-.42-.98-.46Z"/><path class="b" d="M154.3,46.29c-.67,.1-.89,.45-.95,.83-.03,.21,.32,.53,.93,.75,.52,.19,1.2,.24,1.2,.01,.01-.33,.25-.57,.35-.87,.1-.3-.99-.81-1.53-.72Z"/><path class="b" d="M159.39,48.01c-.84-.03-.91,.45-.82,.84,.06,.28,.79,.68,1.43,.81,.71,.15,.96-.04,.77-.35-.21-.34-.23-.65-.62-1.02-.15-.15-.54-.27-.76-.28Z"/><path class="b" d="M164.17,49.16c-.6-.07-.84,.09-.84,.34,0,.24,.17,.49,.5,.79,.31,.29,1.14,.58,1.58,.58,.52,0,.54-.23,.22-.54,.11,.11,.01,0,0-.02-.03-.04-.07-.08-.1-.11-.03-.04-.05-.07-.08-.11l-.06-.11s-.02-.05,0,0c-.01-.03-.02-.07-.04-.1-.05-.11-.13-.21-.28-.34-.19-.16-.6-.34-.89-.37Z"/><path class="b" d="M166.81,49.48c-.08,.52,.76,1.53,2.08,1.98,.72,.25,1.23,.07,1.06-.26-.15-.31-.75-.66-1.19-.95-.42-.28-.84-.54-1.35-.79-.3-.15-.58-.1-.6,.02Z"/><path class="b" d="M179.16,49.14c-.56-.2-1.16-.14-.86,.17,.3,.31,.76,.59,1.26,.9,.52,.32,1.02,.63,1.68,.9,.91,.37,1.4,.06,.95-.33-.34-.29-.91-.58-1.41-.85-.52-.28-1-.56-1.61-.78Z"/><path class="b" d="M183.5,49.33c-.83-.34-1.86-.75-2.71-.95-.65-.15-.86,.08-.37,.4,.64,.43,1.67,.86,2.49,1.21,.48,.2,1.03,.35,1.35,.28,.2-.04,.27-.12,.24-.26-.06-.23-.5-.49-.99-.69Z"/><path class="b" d="M185.93,48.24c-1.29-.45-2.76-.82-3.76-.79-.35,.01-.26,.3,.27,.48,1.07,.37,2.15,.67,3.22,1.02,1.33,.44,1.62-.25,.27-.72Z"/><path class="b" d="M184.68,45.95c-.46-.07-.88-.09-1.3-.12-.4-.02-.7,0-1.04,.02-.43,.03-.23,.41,.47,.59,.51,.13,.97,.25,1.46,.34,.51,.09,.98,.16,1.44,.2,.45,.04,.52-.21,.28-.44-.27-.26-.82-.51-1.32-.59Z"/><path class="b" d="M181.53,40.5c-1.29-.21-2.73-.37-3.36-.07-.24,.11,.24,.49,.76,.62,1.21,.3,2.33,.36,3.45,.52,1.33,.19,.5-.84-.85-1.06Z"/><path class="b" d="M178.47,37.86c-1.45-.23-1.96,.33-2,.86-.02,.27,.98,.73,1.28,.53,.45-.3,1.49-.23,2.07-.45,.46-.17-.58-.82-1.34-.94Z"/><path class="b" d="M174.66,35.34c-.54-.04-1.03,.01-1.34,.14-.29,.12-.41,.43,.38,.74,.45,.18,.91,.19,1.24,.18,.33,0,.69,.01,1.02,0,.45,0,.58-.22,.21-.52-.37-.31-1.02-.52-1.51-.55Z"/><path class="b" d="M169.32,32.53c-.09,.3-.3,.72,.1,1.15,.16,.17,.49,.3,.78,.33,.86,.06,1.16-.37,1.24-.71,.11-.49-1.97-1.25-2.12-.76Z"/><path class="b" d="M154.02,28.62c-.28,.39-.19,.91-.26,1.37-.04,.32,1.18,.77,1.35,.49,.24-.4,.63-.75,.66-1.23,.02-.43-1.5-.99-1.76-.63Z"/><path class="b" d="M149.06,28.04c.19,.21,.39,.44,.61,.65,.09,.08,.16,.17,.25,.25,.08,.07,.26,.19,.3,.25,.17,.2,.71,.33,.79,.2,.02-.04,.16-.09,.2-.14,.05-.07,.05-.15,.06-.24,0-.19-.13-.46-.32-.7-.51-.63-2.44-.92-1.89-.29Z"/><path class="b" d="M143.48,27.27c.69,.55,1.67,1.09,2.66,1.58,.4,.2,.85,.16,.67-.05-.43-.52-1.03-1.09-1.88-1.63-.88-.56-2.18-.48-1.45,.1Z"/><path class="b" d="M140.21,27.37c-1.09-.4-1.58,.1-.51,.57,.85,.38,2.07,.9,2.97,1.09,.64,.14,.89-.07,.37-.41-.69-.45-1.93-.93-2.83-1.26Z"/></g><path class="i" d="M153.5,34.59c-.3,0-.35,.16-.3,.32,.27,.82,2.38,2.05,2,2.66-.2,.32-1.07,.33-1.65,.48s-.78,.61,.11,1.09c.74,.4,1.69,.51,2.53,.83,.74,.28,1.3,.69,1.65,1.05s.52,.7,.81,1.06c.1,.13,.24,.27,.47,.39,.47,.25,1.05,.28,1.36,.21,.87-.21,.77-.87,.87-1.42,.1-.55,.66-1.05,2.1-.78,1.13,.21,2.68,.86,3.33,.67,.35-.1,.2-.44-.21-.75s-1.04-.61-1.66-.86c-.3-.12-.62-.24-.86-.39-.57-.35-.4-.66,0-.76,.41-.11,1-.12,1.18-.34,.09-.1-.01-.31-.35-.42-.14-.05-.28-.07-.4-.08-1.77-.16-3.82,.51-6.05-.38-1.24-.5-3.82-2.57-4.93-2.57Z"/></g></g><g><path class="h" d="M211.89,64.93l-1.97-.24c-.92-.75-1.99-1.51-3.2-2.27-12.08-7.61-33.87-12.5-48.67-10.92-6.82,.73-10.96,2.71-12.27,5.37l-1.97-.24,2.12,4.6h0c1.04,2.17,3.42,4.54,7.19,6.92,12.08,7.61,33.87,12.5,48.67,10.92,10.03-1.07,14.27-4.84,12.2-9.53h0l-2.12-4.6Z"/><path class="g" d="M210.62,76.81c3.51-1.78,4.68-4.35,3.39-7.28h0l-2.12-4.6-1.97-.24c-.92-.75-1.99-1.51-3.2-2.27-1.1-.7-2.29-1.37-3.54-2.02l-.14-.02,7.58,16.43Z"/><g><ellipse class="e" cx="177.98" cy="61.04" rx="12.24" ry="35.28" transform="translate(80.92 222.22) rotate(-77.87)"/><path class="f" d="M174.94,51.9c-1.07-1.24-2.24-1.61-2.71-1.71-.6-.12-1.17-.14-1.71-.16-6.72-.16-12.76,.34-17.59,1.45-.6,.14-1.21,.33-1.02,.68,.14,.27,.62,.52,.94,.67,3.62,1.71,12.56,4.24,12.56,4.24,7.1,2.01,7.34,2.26,7.33,2.35,0,.07-.17,.23-6.24-.45-3.84-.43-7.64-.78-11.48-1.21-1.54-.18-3.24-.38-4.02-.03-.54,.24-.42,.69-.23,1.11,.86,1.9,2.94,3.95,5.97,5.9,1.19,.77,2.79,1.61,4.71,1.94,.4,.07,1.85,.28,4.42-.41,1.22-.33,2.42-.79,3.99-1.8,2.21-1.44,3.04-2.63,4.15-2.38,.23,.05,.39,.15,.47,.2,2.5,1.54-6.26,6.4-2.53,8.12,.25,.12,.75,.28,1.75,.46,5.06,.88,10.08,1.41,14.73,1.56,1.04,.03,2.09,.04,2.8-.14,1.37-.36,1.02-1.34,.08-2.23-1.02-.96-1.75-1.69-3.2-2.67-5.41-3.66-8.75-5.44-7.75-5.89,.1-.04,.2-.09,.42-.09,2.19,.03,7.58,4.8,16.04,7.7,3.17,1.09,4.8,1.25,5.59,1.19,.66-.05,1.12-.22,1.52-.4,2.2-1,3.09-2.5,2.51-4.21-.16-.46-.51-1.01-1.56-1.42-.97-.38-2.05-.53-2.43-.58-2.52-.32-9.96-1.43-20.15-2.95-1.03-.41-1.21-.6-1.19-.7,.17-.84,15.14,.84,20.2,1.05,.45,.02,1.44,.04,1.96-.21,.44-.22,.32-.61,.05-.98-1.12-1.56-4.31-3.14-7.41-4.58-3.49-1.63-7.64-3.12-10.28-3.09-4.27,.05-3.39,4.3-7,7.42,0,0-.51,.44-.9,.34-1.08-.27-.23-5.11-2.81-8.1Z"/><path class="c" d="M169.59,53.76c-.09-.26-.22-.59-.87-.8-.49-.15-1.01-.15-1.44-.13-1.83,.09-3.56,.24-5.17,.47-.38,.05-.78,.14-.71,.33,.05,.14,.35,.3,.64,.44,3.12,1.52,7.44,3,8.49,4.61,.66,1.01-.29,1.81-2.02,2.16-1.73,.35-4.14,.3-6.6,.07-1.19-.11-2.7-.19-2.66,.26,.01,.16,.25,.35,.48,.53l2.63,2.04c2.24-.46,4.61-.85,7.09-1.17,.86-.11,1.87-.21,3.02,.04,1.2,.26,2.09,.8,2.72,1.29,2.35,1.8,3.1,3.65,2.03,5,2.23,.42,4.46,.65,6.46,.67,.52,0,1.05-.01,1.28-.16,.4-.26-.29-.74-.86-1.15-2.86-2.03-3.42-4.17-1.44-5.47,.24-.15,.54-.3,1.09-.3,.77,.01,1.66,.33,2.41,.62,3.76,1.45,7.52,2.89,11.28,4.34,.76-.44,1.28-.97,1.55-1.56,.08-.17,.13-.36-.1-.56-.35-.32-1.2-.57-1.96-.78l-7.47-2.06c-1.63-.45-3.41-.96-4.37-1.64-1.34-.95-.4-1.78,1.31-2.03,1.72-.25,4.01-.1,6.1-.09,.4,0,.85-.02,.85-.18,0-.09-.15-.2-.29-.3-1.7-1.18-3.93-2.32-6.47-3.31-1.64,.94-3.29,1.87-4.93,2.81-1.55,.88-3.3,1.21-6.72-.15-2.81-1.12-4.89-2.57-5.32-3.82Z"/><g class="d"><path class="b" d="M154.07,58.17c-.36-.08-.75-.09-.95-.02-.58,.21,.17,.62,1.07,.82,.35,.07,.7,.15,1.05,.23,.42,.08,.69,.11,1.05,.27,.09,.04,.21,.03,.17-.02-.24-.22-.29-.43-.68-.66-.42-.25-1.09-.49-1.71-.62Z"/><path class="b" d="M153.76,59.91c-1.23,.05-.44,.82,.95,.91,.43,.03,.84,.03,1.27,.05,.39,.02,.77,.03,1.05-.03,.1-.02,.12-.1,.04-.16-.57-.49-2.42-.8-3.31-.77Z"/><path class="b" d="M157.85,62.19c-.47-.06-.87-.03-1.29-.03-.41,0-.84-.03-1.25-.03-1.15-.01-.33,.78,.84,.81,.43,.01,.86-.01,1.26-.02,.45-.01,.95-.01,1.25-.11,.4-.13-.11-.53-.81-.61Z"/><path class="b" d="M161.62,64.54c-.81,0-1.21,.32-1.79,.46-.95,.23,.98,1.1,1.89,.84,.63-.18,1.42-.5,.93-.97-.17-.16-.66-.33-1.03-.33Z"/><path class="b" d="M173.55,68.7c-.65,.19-.83,.57-.83,.95,0,.22,.39,.49,1.02,.62,.55,.12,1.22,.08,1.2-.14-.03-.33,.18-.6,.23-.91,.06-.31-1.09-.67-1.61-.52Z"/><path class="b" d="M178.82,69.74c-.83,.08-.84,.56-.7,.94,.1,.27,.88,.57,1.52,.61,.72,.05,.95-.16,.72-.45-.25-.31-.31-.61-.75-.93-.17-.12-.57-.2-.79-.17Z"/><path class="b" d="M183.71,70.26c-.6,0-.82,.2-.79,.45,.03,.24,.23,.46,.6,.72,.35,.25,1.2,.42,1.64,.36,.52-.07,.51-.3,.15-.56,.13,.09,.01,0-.01-.02-.04-.03-.08-.07-.11-.1-.03-.03-.06-.06-.1-.1l-.08-.1s-.02-.05,0,0c-.02-.03-.03-.06-.05-.09-.06-.11-.15-.19-.32-.3-.2-.13-.64-.25-.93-.25Z"/><path class="b" d="M186.37,70.23c-.01,.53,.96,1.41,2.32,1.69,.74,.15,1.23-.09,1.02-.39-.19-.28-.83-.55-1.3-.79-.45-.23-.91-.42-1.44-.61-.32-.11-.59-.02-.59,.1Z"/><path class="b" d="M198.57,68.28c-.58-.13-1.17,.01-.83,.28,.34,.27,.83,.49,1.36,.73,.56,.25,1.09,.49,1.78,.67,.95,.25,1.39-.13,.9-.45-.37-.25-.97-.45-1.51-.66-.55-.21-1.07-.42-1.7-.56Z"/><path class="b" d="M202.89,67.89c-.87-.23-1.95-.5-2.82-.58-.67-.06-.85,.19-.31,.45,.69,.34,1.76,.63,2.63,.87,.51,.14,1.06,.21,1.38,.1,.19-.07,.26-.15,.2-.29-.09-.22-.56-.42-1.08-.55Z"/><path class="b" d="M205.16,66.49c-1.34-.27-2.85-.45-3.83-.29-.35,.06-.22,.33,.33,.44,1.11,.22,2.22,.38,3.33,.59,1.37,.26,1.58-.46,.17-.75Z"/><path class="b" d="M203.62,64.39c-.47-.01-.89,.02-1.3,.05-.4,.03-.69,.09-1.03,.16-.42,.08-.17,.44,.54,.52,.52,.06,.99,.12,1.49,.14,.51,.02,.99,.03,1.46,.01,.45-.02,.49-.27,.22-.48-.3-.22-.88-.4-1.39-.41Z"/><path class="b" d="M199.79,59.4c-1.3-.04-2.75,0-3.35,.37-.23,.14,.3,.46,.84,.51,1.24,.14,2.36,.05,3.49,.06,1.34,.01,.39-.9-.98-.94Z"/><path class="b" d="M196.4,57.18c-1.47-.04-1.9,.59-1.87,1.11,.01,.27,1.07,.59,1.34,.36,.41-.36,1.45-.42,1.99-.71,.43-.23-.68-.74-1.46-.75Z"/><path class="b" d="M192.3,55.18c-.54,.04-1.02,.15-1.31,.31-.27,.15-.35,.48,.47,.68,.47,.11,.92,.07,1.25,.02,.33-.05,.68-.08,1.01-.12,.44-.06,.54-.29,.15-.54-.41-.26-1.08-.38-1.57-.35Z"/><path class="b" d="M186.63,53.1c-.05,.31-.2,.75,.25,1.12,.18,.15,.52,.24,.82,.22,.86-.05,1.1-.52,1.13-.87,.04-.5-2.12-.98-2.2-.48Z"/><path class="b" d="M170.95,51.22c-.22,.42-.07,.93-.07,1.4,0,.33,1.27,.61,1.41,.3,.19-.43,.53-.83,.49-1.31-.03-.43-1.62-.78-1.83-.4Z"/><path class="b" d="M165.96,51.3c.21,.19,.44,.38,.69,.57,.1,.07,.19,.14,.29,.22,.09,.06,.28,.16,.33,.21,.19,.18,.75,.24,.81,.1,.02-.04,.15-.11,.18-.16,.04-.07,.03-.16,.02-.24-.02-.19-.19-.44-.41-.65-.59-.55-2.54-.59-1.91-.04Z"/><path class="b" d="M160.33,51.27c.76,.46,1.8,.87,2.85,1.22,.43,.14,.86,.05,.66-.14-.5-.46-1.17-.95-2.08-1.37-.95-.44-2.22-.19-1.43,.29Z"/><path class="b" d="M157.1,51.8c-1.13-.25-1.56,.3-.43,.64,.89,.26,2.17,.62,3.08,.7,.65,.05,.87-.19,.32-.45-.75-.36-2.04-.67-2.97-.88Z"/></g><path class="i" d="M171.22,57.22c-.3,.04-.33,.2-.25,.36,.37,.78,2.63,1.72,2.33,2.37-.16,.35-1.02,.47-1.57,.69s-.69,.71,.25,1.06c.78,.3,1.74,.28,2.61,.49,.77,.18,1.38,.51,1.77,.83s.61,.63,.94,.94c.12,.11,.27,.23,.52,.33,.5,.18,1.08,.14,1.38,.03,.84-.32,.65-.96,.68-1.52,.03-.56,.52-1.12,1.97-1.05,1.15,.06,2.77,.5,3.39,.23,.33-.14,.14-.46-.31-.72s-1.11-.47-1.76-.64c-.31-.08-.64-.16-.9-.27-.61-.27-.48-.6-.1-.76,.39-.16,.97-.25,1.13-.49,.07-.11-.05-.3-.4-.38-.15-.03-.29-.03-.41-.02-1.77,.07-3.72,1-6.05,.42-1.3-.33-4.13-2.05-5.22-1.9Z"/></g></g><g><path class="h" d="M209.36,89.51l-1.97,.18c-1.06-.54-2.26-1.06-3.6-1.55-13.41-4.9-35.74-5.1-49.87-.44-6.51,2.15-10.15,4.95-10.86,7.83l-1.98,.18,3.04,4.05h0c1.47,1.91,4.3,3.72,8.49,5.25,13.41,4.9,35.74,5.1,49.87,.44,9.58-3.16,12.94-7.74,9.92-11.89h0l-3.04-4.05Z"/><path class="g" d="M210.63,101.4c3.06-2.48,3.66-5.24,1.78-7.83h0l-3.04-4.05-1.97,.18c-1.06-.54-2.26-1.06-3.6-1.55-1.23-.45-2.53-.86-3.89-1.23h-.14l10.87,14.48Z"/><g><ellipse class="e" cx="175.39" cy="92.85" rx="35.28" ry="12.24"/><path class="f" d="M170.5,84.55c-1.31-.99-2.53-1.11-3.01-1.1-.61,0-1.17,.11-1.71,.21-6.6,1.26-12.4,3.02-16.89,5.11-.55,.26-1.12,.57-.85,.88,.19,.23,.71,.38,1.06,.46,3.89,.91,13.18,1.5,13.18,1.5,7.36,.47,7.65,.67,7.67,.75,0,.07-.12,.26-6.19,.88-3.84,.39-7.63,.85-11.48,1.23-1.54,.15-3.25,.31-3.94,.82-.48,.35-.27,.76,.01,1.14,1.24,1.67,3.7,3.24,7.08,4.51,1.33,.5,3.07,.99,5.01,.91,.4-.02,1.87-.12,4.23-1.33,1.12-.58,2.2-1.28,3.52-2.6,1.86-1.87,2.42-3.21,3.56-3.2,.24,0,.42,.06,.5,.09,2.76,.98-4.77,7.57-.77,8.47,.27,.06,.79,.12,1.81,.08,5.13-.2,10.15-.74,14.73-1.58,1.02-.19,2.05-.4,2.7-.73,1.26-.64,.72-1.53-.39-2.2-1.2-.72-2.07-1.28-3.69-1.93-6.06-2.44-9.7-3.47-8.81-4.12,.08-.06,.18-.13,.4-.17,2.15-.43,8.42,3.1,17.3,4.15,3.33,.4,4.95,.21,5.71,0,.64-.19,1.05-.45,1.4-.71,1.94-1.44,2.5-3.09,1.57-4.65-.25-.42-.71-.87-1.82-1.06-1.03-.17-2.12-.09-2.5-.05-2.53,.22-10.03,.7-20.32,1.36-1.09-.18-1.31-.33-1.31-.43-.01-.85,14.98-2.36,19.97-3.22,.45-.08,1.41-.26,1.88-.62,.39-.3,.18-.66-.16-.97-1.42-1.29-4.88-2.16-8.21-2.92-3.76-.85-8.12-1.45-10.7-.86-4.16,.95-2.4,4.92-5.28,8.72,0,0-.41,.54-.81,.52-1.11-.04-1.3-4.95-4.45-7.32Z"/><path class="c" d="M165.66,87.5c-.15-.24-.34-.53-1.02-.6-.51-.05-1.02,.07-1.44,.18-1.77,.47-3.42,.99-4.95,1.55-.36,.13-.74,.3-.62,.47,.08,.13,.41,.22,.72,.3,3.37,.83,7.91,1.36,9.27,2.72,.85,.85,.09,1.83-1.52,2.53-1.62,.7-3.98,1.16-6.44,1.45-1.19,.14-2.68,.38-2.55,.81,.05,.16,.32,.29,.59,.42l3,1.44c2.1-.92,4.33-1.8,6.68-2.64,.82-.29,1.78-.6,2.96-.6,1.22,0,2.21,.34,2.93,.69,2.68,1.27,3.8,2.92,3.03,4.47,2.27-.06,4.5-.3,6.45-.71,.51-.1,1.02-.23,1.22-.43,.33-.33-.44-.67-1.08-.94-3.22-1.39-4.22-3.36-2.56-5.04,.2-.2,.47-.41,1-.52,.75-.15,1.69-.03,2.48,.1,3.98,.62,7.96,1.25,11.94,1.87,.65-.59,1.05-1.22,1.19-1.85,.04-.18,.05-.37-.22-.53-.41-.24-1.29-.31-2.08-.35l-7.73-.44c-1.69-.1-3.53-.22-4.62-.68-1.51-.64-.77-1.65,.86-2.26,1.63-.61,3.9-.95,5.94-1.38,.39-.08,.82-.2,.79-.36-.02-.09-.19-.16-.35-.23-1.91-.79-4.33-1.44-7.03-1.87-1.41,1.26-2.82,2.52-4.23,3.78-1.33,1.19-2.98,1.87-6.6,1.27-2.98-.5-5.32-1.48-6.01-2.62Z"/><g class="d"><path class="b" d="M151.41,95.08c-.37,0-.75,.07-.93,.18-.52,.33,.3,.58,1.22,.57,.35,0,.71,0,1.07,0,.42,0,.7-.04,1.08,.05,.1,.02,.21-.02,.16-.05-.28-.17-.38-.36-.8-.5-.46-.15-1.17-.25-1.8-.25Z"/><path class="b" d="M151.47,96.84c-1.19,.31-.25,.89,1.12,.69,.43-.06,.83-.15,1.25-.22,.39-.06,.76-.13,1.02-.25,.09-.05,.09-.12,0-.17-.67-.36-2.53-.28-3.4-.06Z"/><path class="b" d="M155.95,98.21c-.47,.05-.86,.16-1.27,.24-.4,.09-.83,.15-1.23,.23-1.13,.23-.16,.83,.99,.61,.42-.08,.84-.19,1.23-.29,.43-.11,.92-.21,1.2-.37,.37-.21-.22-.49-.92-.43Z"/><path class="b" d="M160.14,99.71c-.79,.18-1.12,.57-1.66,.83-.88,.43,1.19,.87,2.02,.42,.57-.31,1.28-.79,.71-1.15-.2-.12-.72-.19-1.08-.1Z"/><path class="b" d="M172.67,101.28c-.59,.32-.69,.73-.62,1.1,.04,.21,.48,.39,1.13,.39,.56,0,1.21-.18,1.14-.39-.1-.32,.04-.62,.04-.94,0-.31-1.2-.43-1.69-.16Z"/><path class="b" d="M178.04,101.18c-.8,.26-.71,.73-.49,1.06,.16,.25,.97,.37,1.62,.28,.71-.1,.89-.36,.61-.59-.31-.25-.43-.53-.93-.75-.19-.09-.6-.07-.81,0Z"/><path class="b" d="M182.93,100.66c-.59,.13-.76,.37-.68,.6,.08,.23,.33,.4,.74,.58,.39,.17,1.27,.16,1.68,0,.49-.18,.43-.4,.03-.58,.14,.07,.01,0-.02-.02-.04-.02-.09-.05-.13-.07-.04-.02-.07-.05-.11-.07l-.1-.08s-.03-.04,0,0c-.02-.03-.04-.06-.07-.08-.08-.09-.19-.16-.38-.23-.23-.08-.67-.11-.96-.05Z"/><path class="b" d="M185.53,100.06c.1,.52,1.23,1.18,2.62,1.17,.76,0,1.18-.35,.92-.6-.25-.24-.93-.37-1.44-.5-.49-.13-.97-.22-1.54-.29-.33-.04-.58,.1-.56,.22Z"/><path class="b" d="M197.05,95.59c-.6,0-1.14,.26-.76,.45,.39,.19,.92,.3,1.48,.42,.6,.13,1.17,.25,1.88,.28,.98,.04,1.33-.42,.78-.63-.42-.16-1.05-.24-1.61-.32-.58-.09-1.13-.19-1.78-.19Z"/><path class="b" d="M201.19,94.3c-.9-.04-2.01-.08-2.87,.02-.67,.08-.79,.36-.21,.51,.75,.19,1.86,.25,2.75,.3,.52,.03,1.08-.01,1.37-.19,.18-.11,.22-.21,.14-.32-.14-.2-.63-.29-1.17-.31Z"/><path class="b" d="M203.11,92.46c-1.36,.01-2.88,.16-3.81,.53-.33,.13-.15,.37,.42,.36,1.13-.01,2.25-.09,3.38-.12,1.4-.03,1.45-.78,.01-.76Z"/><path class="b" d="M201.17,90.73c-.46,.09-.86,.21-1.26,.32-.39,.11-.66,.24-.97,.37-.39,.17-.08,.46,.64,.4,.52-.05,1-.09,1.49-.18,.51-.09,.98-.18,1.43-.3,.44-.12,.42-.37,.11-.51-.34-.15-.94-.2-1.44-.11Z"/><path class="b" d="M196.37,86.65c-1.28,.23-2.69,.57-3.19,1.06-.19,.19,.39,.38,.93,.33,1.24-.13,2.32-.45,3.43-.67,1.32-.27,.19-.96-1.16-.72Z"/><path class="b" d="M192.59,85.2c-1.44,.27-1.73,.97-1.6,1.48,.07,.26,1.17,.35,1.38,.07,.33-.43,1.33-.72,1.8-1.12,.38-.32-.82-.58-1.58-.43Z"/><path class="b" d="M188.16,84.11c-.53,.15-.97,.36-1.21,.58-.23,.21-.24,.54,.61,.56,.49,.01,.92-.13,1.23-.24,.31-.11,.65-.22,.96-.33,.42-.16,.47-.4,.03-.56-.46-.16-1.13-.14-1.61,0Z"/><path class="b" d="M182.18,83.26c.01,.31-.04,.78,.48,1.04,.21,.11,.56,.12,.85,.04,.83-.23,.97-.74,.92-1.08-.07-.5-2.28-.51-2.25,0Z"/><path class="b" d="M166.46,84.73c-.13,.46,.12,.92,.22,1.38,.07,.32,1.37,.33,1.44,0,.09-.46,.34-.92,.21-1.38-.12-.41-1.75-.42-1.87,0Z"/><path class="b" d="M161.59,85.86c.25,.14,.51,.28,.79,.41,.11,.05,.21,.1,.32,.15,.1,.04,.31,.1,.37,.13,.23,.14,.78,.07,.81-.07,0-.04,.12-.14,.14-.2,.02-.08,0-.16-.03-.24-.06-.18-.28-.39-.54-.55-.69-.42-2.61-.04-1.88,.37Z"/><path class="b" d="M156.08,87.01c.84,.29,1.94,.47,3.04,.59,.45,.05,.85-.14,.62-.27-.59-.35-1.34-.68-2.32-.9-1.02-.23-2.21,.29-1.34,.58Z"/><path class="b" d="M153.04,88.21c-1.16-.01-1.46,.63-.29,.71,.93,.07,2.25,.15,3.16,.03,.65-.08,.81-.37,.21-.51-.81-.19-2.13-.23-3.09-.24Z"/></g><path class="i" d="M167.98,90.53c-.28,.1-.28,.27-.17,.4,.53,.68,2.93,1.13,2.78,1.83-.08,.37-.89,.67-1.39,1.01s-.53,.84,.47,.99c.83,.12,1.76-.09,2.66-.07,.79,.02,1.46,.21,1.9,.44s.72,.49,1.12,.72c.14,.09,.31,.17,.58,.21,.53,.07,1.09-.09,1.35-.27,.75-.49,.43-1.08,.34-1.63-.09-.55,.27-1.21,1.71-1.44,1.14-.19,2.81-.09,3.36-.49,.29-.21,.04-.48-.45-.64s-1.18-.23-1.85-.25c-.32-.01-.66-.02-.94-.08-.66-.14-.6-.48-.25-.72,.35-.24,.9-.45,1-.72,.05-.12-.12-.28-.47-.28-.15,0-.29,.03-.41,.06-1.72,.44-3.43,1.76-5.82,1.68-1.34-.05-4.47-1.13-5.5-.76Z"/></g></g><g><path class="h" d="M230.63,31.27l-1.92,.49c-1.13-.37-2.4-.69-3.8-.96-14.02-2.73-36.1,.6-49.32,7.43-6.1,3.15-9.24,6.49-9.49,9.45l-1.92,.49,3.64,3.52h0c1.75,1.65,4.83,2.99,9.21,3.85,14.02,2.73,36.1-.6,49.32-7.43,8.97-4.63,11.55-9.68,7.93-13.3h0l-3.64-3.52Z"/><path class="g" d="M233.75,42.8c2.63-2.93,2.79-5.75,.52-8.02h0l-3.64-3.52-1.92,.49c-1.13-.37-2.4-.69-3.8-.96-1.28-.25-2.63-.45-4.03-.6l-.14,.04,13.01,12.58Z"/><g><ellipse class="e" cx="197.61" cy="39.91" rx="35.28" ry="12.24" transform="translate(-3.82 31.71) rotate(-9.09)"/><path class="f" d="M191.47,32.49c-1.45-.77-2.67-.69-3.15-.61-.6,.1-1.14,.29-1.65,.47-6.32,2.28-11.77,4.93-15.87,7.71-.51,.34-1.01,.74-.7,1.01,.23,.2,.76,.26,1.12,.28,3.99,.28,13.25-.6,13.25-.6,7.34-.7,7.66-.55,7.69-.46,.02,.06-.08,.27-5.98,1.84-3.73,.99-7.4,2.04-11.15,3.02-1.5,.39-3.16,.82-3.76,1.43-.42,.42-.14,.79,.19,1.12,1.49,1.46,4.16,2.62,7.7,3.34,1.39,.28,3.18,.49,5.09,.11,.4-.08,1.83-.41,3.97-1.98,1.02-.75,1.97-1.61,3.06-3.12,1.54-2.14,1.89-3.55,3.01-3.72,.24-.04,.42,0,.51,.01,2.88,.53-3.52,8.23,.58,8.49,.28,.02,.8-.01,1.8-.21,5.04-1.01,9.91-2.33,14.29-3.88,.98-.34,1.96-.72,2.56-1.15,1.15-.83,.47-1.62-.73-2.11-1.3-.52-2.24-.94-3.95-1.33-6.37-1.45-10.13-1.9-9.35-2.68,.07-.07,.15-.16,.36-.23,2.05-.76,8.8,1.73,17.74,1.38,3.35-.13,4.92-.57,5.64-.91,.6-.28,.97-.61,1.28-.92,1.69-1.72,1.98-3.45,.82-4.84-.31-.37-.84-.75-1.97-.76-1.04,0-2.11,.25-2.48,.34-2.46,.61-9.8,2.27-19.85,4.54-1.11,0-1.34-.12-1.36-.22-.15-.84,14.42-4.69,19.21-6.33,.43-.15,1.36-.48,1.75-.91,.34-.36,.08-.68-.31-.93-1.61-1.05-5.16-1.36-8.57-1.59-3.85-.25-8.25-.15-10.7,.84-3.96,1.59-1.6,5.24-3.84,9.45,0,0-.32,.6-.71,.64-1.1,.14-2.07-4.68-5.55-6.53Z"/><path class="c" d="M187.16,36.16c-.18-.21-.42-.47-1.1-.43-.51,.03-1,.23-1.39,.4-1.67,.74-3.23,1.51-4.65,2.31-.33,.19-.68,.41-.54,.57,.1,.11,.44,.15,.76,.18,3.46,.29,8.02,.1,9.58,1.22,.98,.7,.38,1.79-1.1,2.74-1.48,.95-3.75,1.78-6.13,2.45-1.15,.33-2.59,.8-2.39,1.2,.07,.15,.36,.24,.64,.32l3.19,.95c1.93-1.24,3.99-2.46,6.18-3.66,.76-.42,1.67-.87,2.83-1.05,1.21-.19,2.23,0,3,.22,2.84,.83,4.21,2.28,3.7,3.93,2.23-.42,4.39-1.01,6.26-1.72,.48-.18,.97-.39,1.13-.61,.28-.38-.54-.59-1.21-.76-3.4-.86-4.7-2.65-3.32-4.58,.16-.23,.4-.48,.91-.67,.72-.27,1.67-.29,2.47-.3,4.03-.01,8.06-.02,12.09-.04,.55-.69,.84-1.37,.88-2.02,.01-.18,0-.38-.3-.49-.44-.17-1.33-.1-2.11-.02l-7.71,.78c-1.68,.17-3.52,.34-4.67,.05-1.6-.4-1.02-1.51,.49-2.37,1.51-.86,3.7-1.55,5.65-2.3,.37-.14,.78-.33,.72-.48-.03-.08-.21-.13-.38-.17-2.01-.48-4.5-.74-7.23-.74-1.19,1.47-2.39,2.94-3.58,4.4-1.12,1.38-2.64,2.32-6.32,2.29-3.02-.03-5.49-.63-6.34-1.64Z"/><g class="d"><path class="b" d="M174.28,45.89c-.36,.06-.73,.18-.89,.33-.46,.41,.38,.52,1.3,.37,.35-.06,.71-.11,1.06-.17,.42-.07,.68-.15,1.08-.13,.1,0,.21-.05,.15-.08-.3-.12-.43-.3-.87-.37-.48-.08-1.19-.06-1.82,.04Z"/><path class="b" d="M174.62,47.62c-1.13,.49-.11,.92,1.22,.51,.41-.13,.79-.28,1.2-.41,.37-.12,.73-.25,.96-.41,.09-.06,.07-.14-.02-.17-.71-.25-2.54,.12-3.36,.48Z"/><path class="b" d="M179.26,48.27c-.46,.12-.82,.29-1.21,.44-.38,.15-.79,.28-1.18,.42-1.08,.4-.02,.84,1.07,.45,.41-.15,.8-.32,1.17-.48,.41-.17,.88-.35,1.13-.56,.33-.27-.29-.45-.97-.28Z"/><path class="b" d="M183.63,49.09c-.75,.3-1.01,.73-1.5,1.08-.8,.56,1.32,.67,2.07,.1,.52-.4,1.14-.98,.52-1.24-.21-.09-.74-.07-1.08,.07Z"/><path class="b" d="M196.25,48.66c-.54,.41-.56,.83-.43,1.19,.07,.2,.54,.31,1.17,.21,.55-.09,1.16-.37,1.06-.57-.15-.3-.05-.62-.11-.94-.06-.31-1.26-.23-1.69,.1Z"/><path class="b" d="M201.54,47.72c-.75,.38-.58,.83-.32,1.13,.19,.22,1.02,.21,1.64,.02,.69-.21,.83-.5,.51-.68-.35-.2-.51-.46-1.03-.59-.2-.05-.6,.02-.8,.12Z"/><path class="b" d="M206.29,46.44c-.56,.22-.69,.48-.57,.7,.12,.21,.39,.35,.82,.46,.41,.1,1.28-.04,1.66-.26,.45-.25,.36-.46-.06-.58,.15,.04,.01,0-.02-.01-.05-.02-.1-.03-.14-.05-.04-.02-.08-.04-.12-.06l-.11-.07s-.04-.03,0,0c-.03-.02-.05-.05-.08-.07-.09-.08-.21-.12-.41-.16-.24-.05-.68,0-.96,.1Z"/><path class="b" d="M208.76,45.44c.18,.5,1.4,.97,2.78,.74,.75-.13,1.11-.53,.81-.74-.28-.19-.97-.22-1.5-.27-.5-.05-1-.07-1.57-.05-.34,.01-.56,.19-.52,.31Z"/><path class="b" d="M219.43,39.21c-.59,.09-1.09,.43-.68,.56,.42,.13,.95,.15,1.53,.18,.61,.03,1.2,.06,1.9-.02,.98-.11,1.25-.62,.67-.75-.44-.09-1.07-.07-1.64-.07-.59,0-1.15,0-1.78,.09Z"/><path class="b" d="M223.32,37.28c-.89,.1-2,.23-2.84,.48-.64,.19-.72,.48-.13,.53,.77,.06,1.87-.05,2.76-.14,.52-.05,1.07-.19,1.32-.4,.16-.13,.18-.24,.08-.34-.17-.17-.67-.19-1.2-.13Z"/><path class="b" d="M224.92,35.16c-1.35,.23-2.82,.61-3.68,1.12-.3,.18-.09,.39,.47,.29,1.11-.19,2.21-.45,3.32-.65,1.37-.25,1.31-1-.11-.76Z"/><path class="b" d="M222.73,33.76c-.44,.16-.82,.34-1.19,.52-.36,.17-.61,.34-.9,.52-.36,.23,0,.47,.69,.29,.51-.13,.97-.25,1.44-.41,.49-.17,.94-.33,1.36-.52,.41-.18,.36-.43,.03-.52-.36-.1-.96-.05-1.44,.12Z"/><path class="b" d="M217.35,30.49c-1.23,.43-2.57,.99-2.99,1.55-.16,.22,.45,.32,.97,.18,1.2-.32,2.22-.81,3.28-1.21,1.26-.47,.04-.98-1.26-.52Z"/><path class="b" d="M213.39,29.65c-1.38,.5-1.56,1.23-1.34,1.71,.11,.24,1.21,.16,1.38-.15,.25-.48,1.2-.92,1.6-1.39,.32-.37-.9-.44-1.63-.18Z"/><path class="b" d="M208.84,29.27c-.49,.23-.9,.51-1.11,.76-.2,.24-.15,.57,.69,.46,.48-.06,.88-.27,1.17-.43,.29-.16,.61-.32,.9-.48,.39-.22,.4-.47-.06-.56-.48-.09-1.14,.04-1.59,.24Z"/><path class="b" d="M202.81,29.38c.06,.31,.09,.77,.64,.96,.22,.07,.57,.03,.84-.09,.78-.36,.84-.89,.74-1.22-.14-.48-2.33-.15-2.23,.35Z"/><path class="b" d="M187.51,33.3c-.06,.47,.27,.89,.44,1.33,.12,.3,1.41,.1,1.42-.22,.02-.47,.19-.96-.01-1.4-.19-.39-1.79-.14-1.85,.29Z"/><path class="b" d="M182.88,35.18c.26,.1,.55,.2,.85,.28,.12,.03,.23,.07,.34,.1,.1,.03,.32,.05,.39,.07,.25,.1,.78-.05,.79-.2,0-.04,.1-.15,.11-.22,0-.08-.03-.16-.06-.23-.08-.17-.33-.34-.62-.46-.75-.3-2.58,.37-1.79,.66Z"/><path class="b" d="M177.62,37.19c.87,.15,1.99,.16,3.1,.11,.45-.02,.82-.27,.57-.37-.63-.25-1.43-.46-2.44-.53-1.05-.07-2.14,.63-1.23,.79Z"/><path class="b" d="M174.81,38.85c-1.15,.17-1.34,.85-.17,.75,.92-.08,2.25-.21,3.13-.47,.63-.19,.75-.49,.13-.54-.83-.06-2.14,.11-3.08,.25Z"/></g><path class="i" d="M189.92,38.79c-.27,.15-.23,.31-.1,.42,.63,.59,3.07,.65,3.03,1.37-.02,.38-.78,.8-1.22,1.21s-.39,.91,.62,.9c.84,0,1.72-.37,2.61-.49,.78-.11,1.47-.02,1.95,.13s.79,.36,1.22,.54c.15,.06,.34,.12,.6,.12,.53,0,1.06-.26,1.3-.48,.66-.6,.26-1.13,.08-1.66-.17-.53,.08-1.23,1.46-1.69,1.09-.36,2.76-.54,3.24-1.01,.26-.25-.03-.48-.55-.56s-1.2-.04-1.87,.04c-.32,.04-.65,.09-.94,.07-.67-.03-.67-.38-.36-.67,.3-.29,.82-.59,.88-.86,.03-.13-.16-.26-.51-.2-.15,.02-.28,.08-.39,.13-1.63,.71-3.11,2.28-5.49,2.58-1.33,.16-4.59-.41-5.55,.12Z"/></g></g></svg>