<svg id="a1d6bf2a-3115-4740-96fe-7a65a992ebb9" data-name="Layer 1" xmlns="http://www.w3.org/2000/svg" width="50" height="90" viewBox="0 0 50 90">
  <defs>
    <style>
      .bf54b341-3295-4cf9-8c6f-8958e609d3df {
        fill: #207a08;
        stroke: #145b00;
        stroke-miterlimit: 10;
      }

      .f81fc89c-8f90-4eb7-aae5-ebc93c38e3a9 {
        fill: #506d00;
      }

      .feb48b65-37e4-46bc-8348-4fc7a575e85c {
        fill: #ace543;
      }

      .e32c9a67-0bd0-4291-87e4-db065a05f24e, .e3c16361-ff18-4677-8046-1cdf9c16178b {
        fill: #fff;
      }

      .e3c16361-ff18-4677-8046-1cdf9c16178b {
        opacity: 0.3;
      }

      .f7ebb67c-3a96-4f71-aab2-97c56a76d3a4 {
        opacity: 0.05;
      }
    </style>
  </defs>
  <g>
    <path class="bf54b341-3295-4cf9-8c6f-8958e609d3df" d="M25.54,28.39h0a1.13,1.13,0,0,1-1.19-1.06,53.6,53.6,0,0,1,3-20.67A1.11,1.11,0,0,1,28.74,6h0a1.13,1.13,0,0,1,.63,1.45,51.4,51.4,0,0,0-2.83,19.75A1.13,1.13,0,0,1,25.54,28.39Z"/>
    <path class="f81fc89c-8f90-4eb7-aae5-ebc93c38e3a9" d="M27.28,84.1a7.58,7.58,0,0,1-.84,0l-.19,0a6.19,6.19,0,0,1-.64-.12l-.27-.07a4.68,4.68,0,0,1-.53-.17l-.25-.09a5.46,5.46,0,0,1-.6-.27l-.13-.06a6.12,6.12,0,0,1-.69-.43l-.08,0a6.84,6.84,0,0,1-.56-.44l-.12-.11c-.18-.17-.33-.31-.46-.46l-.15-.16a6.25,6.25,0,0,1-.4-.5L21.3,81h0A7.24,7.24,0,0,1,20,76.79a6.75,6.75,0,0,1,.1-1.19l-.22,0-.18,0L19,75.43l-.27-.07-.54-.17L18,75.1c-.21-.08-.41-.18-.61-.28l-.12,0a8,8,0,0,1-.69-.43l-.08-.06a5.15,5.15,0,0,1-.56-.43l-.12-.12a5,5,0,0,1-.46-.45l-.15-.16a5,5,0,0,1-.4-.51l-.08-.09h0a7.24,7.24,0,0,1-1.34-4.21,7.13,7.13,0,0,1,.24-1.83h0c-.21-.08-.41-.18-.61-.28l-.12-.06a7.2,7.2,0,0,1-.7-.42l-.08-.06a6.17,6.17,0,0,1-.55-.43l-.12-.11c-.19-.17-.33-.31-.47-.46l-.15-.16c-.14-.16-.27-.33-.4-.51a.71.71,0,0,1-.07-.09h0a7.31,7.31,0,0,1,.42-9l-.34-.07-.28-.07-.53-.17-.24-.09a6.65,6.65,0,0,1-.61-.27l-.12-.07a5.64,5.64,0,0,1-.7-.42l-.07-.05a6.84,6.84,0,0,1-.56-.44l-.12-.11c-.19-.17-.33-.31-.47-.46l-.14-.16c-.14-.16-.28-.33-.41-.5L6.08,52h0a7.29,7.29,0,0,1,2-10.32,7.31,7.31,0,0,1,2.75-10,7.19,7.19,0,0,1-1.2-4,7.32,7.32,0,0,1,7.32-7.32,7.24,7.24,0,0,1,3.71,1h0l.1.06q.29.18.57.39l.15.11a8.07,8.07,0,0,1,1.2,1.21l.06.09a7.3,7.3,0,0,1,10.62-3.9h0l.11.08a6.27,6.27,0,0,1,.57.38l.15.12a7.17,7.17,0,0,1,1.2,1.2l.11.15a5.36,5.36,0,0,1,.39.58L36,22a6.83,6.83,0,0,1,.38.77,5.15,5.15,0,0,1,.2.52A7,7,0,0,1,38,23.18a7.36,7.36,0,0,1,3.71,1h0l.11.07c.19.12.38.25.56.39l.15.11A6.93,6.93,0,0,1,43.69,26l.11.14c.15.21.28.39.39.58l.12.19c.15.28.28.53.38.77s.19.51.28.81a1.46,1.46,0,0,1,.05.2,5.16,5.16,0,0,1,.14.68,2.1,2.1,0,0,1,0,.26,7.25,7.25,0,0,1,.06.89,7.33,7.33,0,0,1-2.4,5.42,7,7,0,0,1,.83.89l.11.15a5.81,5.81,0,0,1,.39.57c.05.09.09.14.12.19.15.28.28.53.38.77a8.41,8.41,0,0,1,.28.81,1.46,1.46,0,0,1,.05.2,4.85,4.85,0,0,1,.14.68l0,.26a7.12,7.12,0,0,1,.06.89A7.35,7.35,0,0,1,40.85,48l.38.28a7.29,7.29,0,0,1,1.21,1.21l.1.13a6.61,6.61,0,0,1,.39.59l.12.19a7.18,7.18,0,0,1,.37.73l0,0h0a8.17,8.17,0,0,1,.28.8l0,.19c.07.27.11.48.15.69l0,.26a7.3,7.3,0,0,1-5.78,8.06,7.36,7.36,0,0,1-1.48.15,5.93,5.93,0,0,1-.84-.06h0a5.91,5.91,0,0,1-.19.69l.07,0h0l.1.07a5.72,5.72,0,0,1,.57.39l.15.11a7.29,7.29,0,0,1,1.21,1.21l.1.14c.16.21.28.39.4.58l.11.19a7,7,0,0,1,.39.77c.1.25.19.51.28.81,0,.06,0,.13.05.19.06.27.11.48.14.69l0,.26a7.38,7.38,0,0,1,.06.89,7.19,7.19,0,0,1-.15,1.47,7.3,7.3,0,0,1-2,3.7c-.17.17-.34.33-.52.48a8.21,8.21,0,0,1-1.17.78,7.25,7.25,0,0,1-1.06.47c0,.15.06.29.08.43s0,.18,0,.25a7.41,7.41,0,0,1,.06.9A7.32,7.32,0,0,1,27.28,84.1Z"/>
    <g>
      <circle class="feb48b65-37e4-46bc-8348-4fc7a575e85c" cx="29.63" cy="25.63" r="6.59"/>
      <ellipse class="e3c16361-ff18-4677-8046-1cdf9c16178b" cx="27.75" cy="23.66" rx="4" ry="3.3" transform="translate(-8.18 29.9) rotate(-50.3)"/>
      <path class="e32c9a67-0bd0-4291-87e4-db065a05f24e" d="M27,21c-.13-.17-.51-.1-.86.17s-.51.62-.38.79.52.09.86-.17S27.09,21.16,27,21Z"/>
      <path class="e32c9a67-0bd0-4291-87e4-db065a05f24e" d="M25.39,22.17c-.07,0-.19,0-.27.16s-.1.27,0,.32.19,0,.27-.16S25.46,22.21,25.39,22.17Z"/>
      <path class="f7ebb67c-3a96-4f71-aab2-97c56a76d3a4" d="M33,20a6.59,6.59,0,0,1-8.74,9.47A6.59,6.59,0,1,0,33,20Z"/>
    </g>
    <g>
      <circle class="feb48b65-37e4-46bc-8348-4fc7a575e85c" cx="16.92" cy="27.67" r="6.59"/>
      <ellipse class="e3c16361-ff18-4677-8046-1cdf9c16178b" cx="15.03" cy="25.7" rx="4" ry="3.3" transform="translate(-14.35 20.85) rotate(-50.3)"/>
      <path class="e32c9a67-0bd0-4291-87e4-db065a05f24e" d="M14.24,23c-.13-.17-.51-.1-.86.17s-.51.62-.38.79.52.09.86-.17S14.38,23.2,14.24,23Z"/>
      <path class="e32c9a67-0bd0-4291-87e4-db065a05f24e" d="M12.68,24.21c-.07,0-.19,0-.27.16s-.11.27,0,.32.19,0,.27-.16S12.74,24.25,12.68,24.21Z"/>
      <path class="f7ebb67c-3a96-4f71-aab2-97c56a76d3a4" d="M20.27,22a6.59,6.59,0,0,1-8.74,9.47A6.59,6.59,0,1,0,20.27,22Z"/>
    </g>
    <g>
      <circle class="feb48b65-37e4-46bc-8348-4fc7a575e85c" cx="21.78" cy="30.96" r="6.59"/>
      <ellipse class="e3c16361-ff18-4677-8046-1cdf9c16178b" cx="19.9" cy="29" rx="4" ry="3.3" transform="translate(-15.12 25.79) rotate(-50.3)"/>
      <path class="e32c9a67-0bd0-4291-87e4-db065a05f24e" d="M19.11,26.32c-.13-.17-.52-.09-.86.17s-.52.62-.38.79.51.1.86-.17S19.24,26.49,19.11,26.32Z"/>
      <path class="e32c9a67-0bd0-4291-87e4-db065a05f24e" d="M17.54,27.51c-.06-.05-.18,0-.27.16s-.1.27,0,.31.19,0,.28-.16S17.61,27.55,17.54,27.51Z"/>
      <path class="f7ebb67c-3a96-4f71-aab2-97c56a76d3a4" d="M25.13,25.28a6.6,6.6,0,0,1-8.74,9.48,6.59,6.59,0,1,0,8.74-9.48Z"/>
    </g>
    <g>
      <circle class="feb48b65-37e4-46bc-8348-4fc7a575e85c" cx="14.41" cy="38.02" r="6.59"/>
      <ellipse class="e3c16361-ff18-4677-8046-1cdf9c16178b" cx="12.52" cy="36.06" rx="4" ry="3.3" transform="translate(-23.22 22.66) rotate(-50.3)"/>
      <path class="e32c9a67-0bd0-4291-87e4-db065a05f24e" d="M11.73,33.39c-.13-.18-.52-.1-.86.16s-.51.62-.38.79.52.1.86-.16S11.87,33.56,11.73,33.39Z"/>
      <path class="e32c9a67-0bd0-4291-87e4-db065a05f24e" d="M10.17,34.57c-.07,0-.19,0-.28.16s-.1.27,0,.31.19,0,.27-.16S10.23,34.61,10.17,34.57Z"/>
      <path class="f7ebb67c-3a96-4f71-aab2-97c56a76d3a4" d="M17.76,32.35A6.59,6.59,0,0,1,9,41.82a6.59,6.59,0,1,0,8.74-9.47Z"/>
    </g>
    <g>
      <circle class="feb48b65-37e4-46bc-8348-4fc7a575e85c" cx="37.95" cy="41.32" r="6.59"/>
      <ellipse class="e3c16361-ff18-4677-8046-1cdf9c16178b" cx="36.06" cy="39.36" rx="4" ry="3.3" transform="translate(-17.25 41.97) rotate(-50.3)"/>
      <path class="e32c9a67-0bd0-4291-87e4-db065a05f24e" d="M35.27,36.68c-.13-.17-.52-.1-.86.17s-.51.62-.38.79.52.1.86-.17S35.4,36.85,35.27,36.68Z"/>
      <path class="e32c9a67-0bd0-4291-87e4-db065a05f24e" d="M33.71,37.87c-.07,0-.19,0-.28.15s-.1.28,0,.32.19,0,.27-.16S33.77,37.91,33.71,37.87Z"/>
      <path class="f7ebb67c-3a96-4f71-aab2-97c56a76d3a4" d="M41.29,35.64a6.58,6.58,0,0,1-8.73,9.47,6.59,6.59,0,1,0,8.73-9.47Z"/>
    </g>
    <g>
      <circle class="feb48b65-37e4-46bc-8348-4fc7a575e85c" cx="28.69" cy="37.08" r="6.59"/>
      <ellipse class="e3c16361-ff18-4677-8046-1cdf9c16178b" cx="26.8" cy="35.12" rx="4" ry="3.3" transform="translate(-17.34 33.31) rotate(-50.3)"/>
      <path class="e32c9a67-0bd0-4291-87e4-db065a05f24e" d="M26,32.44c-.13-.17-.51-.09-.86.17s-.51.62-.38.79.52.1.86-.17S26.15,32.61,26,32.44Z"/>
      <path class="e32c9a67-0bd0-4291-87e4-db065a05f24e" d="M24.45,33.63c-.07,0-.19,0-.27.16s-.11.27,0,.31.19,0,.27-.16S24.51,33.67,24.45,33.63Z"/>
      <path class="f7ebb67c-3a96-4f71-aab2-97c56a76d3a4" d="M32,31.4a6.6,6.6,0,0,1-5.39,10.39,6.57,6.57,0,0,1-3.35-.91A6.59,6.59,0,1,0,32,31.4Z"/>
    </g>
    <g>
      <circle class="feb48b65-37e4-46bc-8348-4fc7a575e85c" cx="37.95" cy="30.49" r="6.59"/>
      <ellipse class="e3c16361-ff18-4677-8046-1cdf9c16178b" cx="36.06" cy="28.53" rx="4" ry="3.3" transform="translate(-8.92 38.05) rotate(-50.3)"/>
      <path class="e32c9a67-0bd0-4291-87e4-db065a05f24e" d="M35.27,25.85c-.13-.17-.52-.09-.86.17s-.51.62-.38.79.52.1.86-.17S35.4,26,35.27,25.85Z"/>
      <path class="e32c9a67-0bd0-4291-87e4-db065a05f24e" d="M33.71,27c-.07-.05-.19,0-.28.16s-.1.27,0,.31.19,0,.27-.16S33.77,27.08,33.71,27Z"/>
      <path class="f7ebb67c-3a96-4f71-aab2-97c56a76d3a4" d="M41.29,24.81a6.58,6.58,0,0,1-8.73,9.47,6.59,6.59,0,1,0,8.73-9.47Z"/>
    </g>
    <g>
      <circle class="feb48b65-37e4-46bc-8348-4fc7a575e85c" cx="12.05" cy="47.75" r="6.59"/>
      <ellipse class="e3c16361-ff18-4677-8046-1cdf9c16178b" cx="10.17" cy="45.79" rx="4" ry="3.3" transform="translate(-31.56 24.37) rotate(-50.3)"/>
      <ellipse class="e32c9a67-0bd0-4291-87e4-db065a05f24e" cx="8.76" cy="43.59" rx="0.78" ry="0.39" transform="translate(-24.82 14.44) rotate(-37.67)"/>
      <path class="e32c9a67-0bd0-4291-87e4-db065a05f24e" d="M7.81,44.3c-.06,0-.18,0-.27.16s-.1.27,0,.31.19,0,.28-.16S7.88,44.34,7.81,44.3Z"/>
      <path class="f7ebb67c-3a96-4f71-aab2-97c56a76d3a4" d="M15.4,42.08a6.52,6.52,0,0,1,1.2,3.79,6.6,6.6,0,0,1-9.94,5.68,6.59,6.59,0,1,0,8.74-9.47Z"/>
    </g>
    <g>
      <circle class="feb48b65-37e4-46bc-8348-4fc7a575e85c" cx="16.29" cy="59.68" r="6.59"/>
      <ellipse class="e3c16361-ff18-4677-8046-1cdf9c16178b" cx="14.41" cy="57.72" rx="4" ry="3.3" transform="translate(-39.21 31.94) rotate(-50.3)"/>
      <path class="e32c9a67-0bd0-4291-87e4-db065a05f24e" d="M13.62,55c-.14-.17-.52-.09-.87.17s-.51.62-.38.79.52.1.86-.17S13.75,55.21,13.62,55Z"/>
      <path class="e32c9a67-0bd0-4291-87e4-db065a05f24e" d="M12.05,56.23c-.06,0-.19,0-.27.16s-.1.27,0,.31.19,0,.27-.16S12.12,56.27,12.05,56.23Z"/>
      <path class="f7ebb67c-3a96-4f71-aab2-97c56a76d3a4" d="M19.64,54a6.59,6.59,0,0,1-8.74,9.47A6.59,6.59,0,1,0,19.64,54Z"/>
    </g>
    <g>
      <circle class="feb48b65-37e4-46bc-8348-4fc7a575e85c" cx="36.69" cy="54.03" r="6.59"/>
      <ellipse class="e3c16361-ff18-4677-8046-1cdf9c16178b" cx="34.81" cy="52.07" rx="4" ry="3.3" transform="matrix(0.64, -0.77, 0.77, 0.64, -27.49, 45.59)"/>
      <path class="e32c9a67-0bd0-4291-87e4-db065a05f24e" d="M34,49.39c-.14-.17-.52-.09-.86.17s-.52.62-.39.79.52.1.87-.17S34.15,49.56,34,49.39Z"/>
      <path class="e32c9a67-0bd0-4291-87e4-db065a05f24e" d="M32.45,50.58c-.06,0-.19,0-.27.16s-.1.27,0,.31.19,0,.28-.16S32.52,50.62,32.45,50.58Z"/>
      <path class="f7ebb67c-3a96-4f71-aab2-97c56a76d3a4" d="M40,48.35a6.59,6.59,0,0,1-8.74,9.47A6.59,6.59,0,1,0,40,48.35Z"/>
    </g>
    <g>
      <circle class="feb48b65-37e4-46bc-8348-4fc7a575e85c" cx="27.28" cy="76.79" r="6.59"/>
      <ellipse class="e3c16361-ff18-4677-8046-1cdf9c16178b" cx="25.39" cy="74.82" rx="4" ry="3.3" transform="translate(-48.4 46.57) rotate(-50.3)"/>
      <path class="e32c9a67-0bd0-4291-87e4-db065a05f24e" d="M24.6,72.15c-.13-.17-.52-.1-.86.17s-.51.61-.38.79.52.09.86-.17S24.73,72.32,24.6,72.15Z"/>
      <path class="e32c9a67-0bd0-4291-87e4-db065a05f24e" d="M23,73.33c-.07,0-.19,0-.28.16s-.1.27,0,.31.18,0,.27-.15S23.1,73.37,23,73.33Z"/>
      <path class="f7ebb67c-3a96-4f71-aab2-97c56a76d3a4" d="M30.62,71.11a6.59,6.59,0,0,1-8.73,9.47,6.59,6.59,0,1,0,8.73-9.47Z"/>
    </g>
    <g>
      <circle class="feb48b65-37e4-46bc-8348-4fc7a575e85c" cx="31.98" cy="68.31" r="6.59"/>
      <ellipse class="e3c16361-ff18-4677-8046-1cdf9c16178b" cx="30.1" cy="66.35" rx="4" ry="3.3" transform="translate(-40.18 47.13) rotate(-50.3)"/>
      <ellipse class="e32c9a67-0bd0-4291-87e4-db065a05f24e" cx="28.69" cy="64.15" rx="0.78" ry="0.39" transform="translate(-33.23 30.91) rotate(-37.67)"/>
      <path class="e32c9a67-0bd0-4291-87e4-db065a05f24e" d="M27.74,64.86c-.06,0-.18,0-.27.16s-.1.27,0,.31.19,0,.28-.16S27.81,64.9,27.74,64.86Z"/>
      <path class="f7ebb67c-3a96-4f71-aab2-97c56a76d3a4" d="M35.33,62.63A6.58,6.58,0,0,1,26.6,72.1a6.59,6.59,0,1,0,8.73-9.47Z"/>
    </g>
    <g>
      <circle class="feb48b65-37e4-46bc-8348-4fc7a575e85c" cx="20.68" cy="68.31" r="6.59"/>
      <ellipse class="e3c16361-ff18-4677-8046-1cdf9c16178b" cx="18.8" cy="66.35" rx="4" ry="3.3" transform="translate(-44.26 38.44) rotate(-50.3)"/>
      <ellipse class="e32c9a67-0bd0-4291-87e4-db065a05f24e" cx="17.39" cy="64.15" rx="0.78" ry="0.39" transform="translate(-35.58 24) rotate(-37.67)"/>
      <path class="e32c9a67-0bd0-4291-87e4-db065a05f24e" d="M16.45,64.86c-.07,0-.19,0-.28.16s-.1.27,0,.31.18,0,.27-.16S16.51,64.9,16.45,64.86Z"/>
      <path class="f7ebb67c-3a96-4f71-aab2-97c56a76d3a4" d="M24,62.63A6.58,6.58,0,0,1,15.3,72.1,6.59,6.59,0,1,0,24,62.63Z"/>
    </g>
    <g>
      <circle class="feb48b65-37e4-46bc-8348-4fc7a575e85c" cx="28.69" cy="59.68" r="6.59"/>
      <ellipse class="e3c16361-ff18-4677-8046-1cdf9c16178b" cx="26.8" cy="57.72" rx="4" ry="3.3" transform="translate(-34.73 41.48) rotate(-50.3)"/>
      <path class="e32c9a67-0bd0-4291-87e4-db065a05f24e" d="M26,55c-.13-.17-.51-.09-.86.17s-.51.62-.38.79.52.1.86-.17S26.15,55.21,26,55Z"/>
      <path class="e32c9a67-0bd0-4291-87e4-db065a05f24e" d="M24.45,56.23c-.07,0-.19,0-.27.16s-.11.27,0,.31.19,0,.27-.16S24.51,56.27,24.45,56.23Z"/>
      <path class="f7ebb67c-3a96-4f71-aab2-97c56a76d3a4" d="M32,54a6.59,6.59,0,0,1-8.74,9.47A6.59,6.59,0,1,0,32,54Z"/>
    </g>
    <g>
      <circle class="feb48b65-37e4-46bc-8348-4fc7a575e85c" cx="22.1" cy="51.21" r="6.59"/>
      <ellipse class="e3c16361-ff18-4677-8046-1cdf9c16178b" cx="20.21" cy="49.24" rx="4" ry="3.3" transform="translate(-30.59 33.34) rotate(-50.3)"/>
      <ellipse class="e32c9a67-0bd0-4291-87e4-db065a05f24e" cx="18.8" cy="47.05" rx="0.78" ry="0.39" transform="translate(-24.83 21.3) rotate(-37.67)"/>
      <path class="e32c9a67-0bd0-4291-87e4-db065a05f24e" d="M17.86,47.75c-.07,0-.19,0-.28.16s-.1.27,0,.32.19,0,.27-.16S17.92,47.79,17.86,47.75Z"/>
      <path class="f7ebb67c-3a96-4f71-aab2-97c56a76d3a4" d="M25.44,45.53A6.59,6.59,0,0,1,16.71,55a6.59,6.59,0,1,0,8.73-9.47Z"/>
    </g>
    <g>
      <circle class="feb48b65-37e4-46bc-8348-4fc7a575e85c" cx="31.36" cy="48.38" r="6.59"/>
      <ellipse class="e3c16361-ff18-4677-8046-1cdf9c16178b" cx="29.47" cy="46.42" rx="4" ry="3.3" transform="translate(-25.07 39.45) rotate(-50.3)"/>
      <ellipse class="e32c9a67-0bd0-4291-87e4-db065a05f24e" cx="28.06" cy="44.22" rx="0.78" ry="0.39" transform="translate(-21.18 26.37) rotate(-37.67)"/>
      <path class="e32c9a67-0bd0-4291-87e4-db065a05f24e" d="M27.12,44.93c-.07,0-.19,0-.28.16s-.1.27,0,.31.18,0,.27-.16S27.18,45,27.12,44.93Z"/>
      <path class="f7ebb67c-3a96-4f71-aab2-97c56a76d3a4" d="M34.7,42.7A6.58,6.58,0,0,1,26,52.17,6.59,6.59,0,1,0,34.7,42.7Z"/>
    </g>
    <g>
      <circle class="feb48b65-37e4-46bc-8348-4fc7a575e85c" cx="21.94" cy="40.85" r="6.59"/>
      <ellipse class="e3c16361-ff18-4677-8046-1cdf9c16178b" cx="20.06" cy="38.89" rx="4" ry="3.3" transform="translate(-22.67 29.48) rotate(-50.3)"/>
      <path class="e32c9a67-0bd0-4291-87e4-db065a05f24e" d="M19.27,36.21c-.14-.17-.52-.1-.87.17s-.51.62-.38.79.52.09.86-.17S19.4,36.38,19.27,36.21Z"/>
      <path class="e32c9a67-0bd0-4291-87e4-db065a05f24e" d="M17.7,37.39c-.06,0-.19,0-.27.16s-.1.27,0,.32.19,0,.27-.16S17.77,37.44,17.7,37.39Z"/>
      <path class="f7ebb67c-3a96-4f71-aab2-97c56a76d3a4" d="M25.29,35.17a6.59,6.59,0,0,1-8.74,9.47,6.59,6.59,0,1,0,8.74-9.47Z"/>
    </g>
  </g>
</svg>
