<svg id="e2524968-9dfc-4c33-a4a7-87c765fffb7f" data-name="Layer 1" xmlns="http://www.w3.org/2000/svg" width="28" height="35" viewBox="0 0 28 35">
  <defs>
    <style>
      .a26c91ae-ad15-4cde-ad39-cb6b98d5c0d2 {
        fill: #983c25;
      }

      .bce13649-f7a9-4feb-a2f5-90e1c31ee187 {
        opacity: 0.1;
      }

      .a093d123-7ea7-4ff3-8f78-125f0af009b6 {
        fill: #ba5740;
      }

      .a4e5a357-bd7d-4fed-b7cd-5fd5ecb4f65b, .add0d373-c26e-4503-be2c-dc08b9d3d9bc {
        fill: #f72a3b;
      }

      .add0d373-c26e-4503-be2c-dc08b9d3d9bc {
        stroke: #8c3540;
        stroke-miterlimit: 10;
      }

      .a1b0c09c-85c6-4e2e-b098-44fa5b70cc6d {
        fill: #e82737;
      }

      .e4d40a31-ae1f-487f-a9f5-a38a49ffbe64 {
        fill: #db2534;
      }

      .ffb4dd12-e26e-48f1-a947-3631cb75a2e4 {
        fill: #ff3646;
      }

      .b16e5c67-bece-4311-ae38-eff6f891d395 {
        fill: #e32637;
      }

      .b5d95c53-2167-4573-8a64-eb72a48efc66 {
        fill: #c92230;
      }

      .a4d7a0d2-9858-4100-90ad-d5649470c33f {
        opacity: 0.6;
      }

      .ee4371ca-f657-48d8-b9a4-0c106b624c94 {
        fill: #fff;
      }

      .b9d1c019-af4a-4b31-b0e5-44bd6e12be33 {
        fill: #ff5966;
      }
    </style>
  </defs>
  <g>
    <path class="a26c91ae-ad15-4cde-ad39-cb6b98d5c0d2" d="M18,8.66c-.38-.1-1.77-.27-1.91-.63a.76.76,0,0,1,0-.42c.17-.64.34-1.28.5-1.93a5.88,5.88,0,0,0,0-1.51.63.63,0,0,1,.15-.5c.48-.41,1.38.08,1.82.33.78.43.46,1.09.14,1.73C18.57,6,18,8.67,18,8.66Z"/>
    <g class="bce13649-f7a9-4feb-a2f5-90e1c31ee187">
      <path d="M18.7,5.73c.32-.63.63-1.29-.12-1.72.2.39,0,.87-.27,1.34-.12.25-.69,2.94-.7,2.94-.28-.08-1.07-.19-1.55-.37a.36.36,0,0,0,0,.11c.14.36,1.53.53,1.91.63C18,8.67,18.57,6,18.7,5.73Z"/>
    </g>
    <path class="a093d123-7ea7-4ff3-8f78-125f0af009b6" d="M17.06,5a5.47,5.47,0,0,1-.2,1.13l-.24,1c0,.09-.1.25,0,.34a1.36,1.36,0,0,0,.28.08c.13-.5.2-1,.34-1.5a4.69,4.69,0,0,0,.14-1.54c0-.16,0-.61-.29-.57s-.14.16-.14.27C16.9,4.44,17.07,4.7,17.06,5Z"/>
    <path class="add0d373-c26e-4503-be2c-dc08b9d3d9bc" d="M24.05,21.69a1.33,1.33,0,0,0-.27-1.22v0a1.31,1.31,0,0,0,.55-.76,1.29,1.29,0,0,0-.28-1.23,1.21,1.21,0,0,0,0-.19,1.07,1.07,0,0,0,.13-.31,1.32,1.32,0,0,0-.1-1,1.71,1.71,0,0,0,.17-.39,1.32,1.32,0,0,0-.22-1.16,1.22,1.22,0,0,0,.22-.44,1.32,1.32,0,0,0-.68-1.55v0A1.34,1.34,0,0,0,23.1,12a.24.24,0,0,0,0-.08,1.32,1.32,0,0,0-.92-1.64,1.18,1.18,0,0,0-.45-.05,1.34,1.34,0,0,0-.95-1,1.47,1.47,0,0,0-.29,0,1.34,1.34,0,0,0-.87-.77h-.05a1.33,1.33,0,0,0-.83-.68,1.67,1.67,0,0,0-.31,0,1.33,1.33,0,0,0-.86-.72,1.3,1.3,0,0,0-1.09.18,1.34,1.34,0,0,0-2.29-.23l-.08,0a1.32,1.32,0,0,0-1.19.24,1.3,1.3,0,0,0-.43-.2,1.33,1.33,0,0,0-1.64.92,1.33,1.33,0,0,0-1.46.54,1.34,1.34,0,0,0-1.28,1,1.24,1.24,0,0,0,0,.16,1.33,1.33,0,0,0-1,.94v0a1.33,1.33,0,0,0-1.21,1.93,1.33,1.33,0,0,0-1,.94,1.35,1.35,0,0,0,.06.89,1.34,1.34,0,0,0-.58,2,1.31,1.31,0,0,0-.48.71,1.33,1.33,0,0,0,.23,1.18,1.29,1.29,0,0,0-.38.61A1.36,1.36,0,0,0,4,19.84a1.2,1.2,0,0,0-.3.54A1.33,1.33,0,0,0,4,21.7a1.75,1.75,0,0,0-.15.34,1.34,1.34,0,0,0,.82,1.61h0a1.23,1.23,0,0,0-.24.47,1.34,1.34,0,0,0,.93,1.64,1.33,1.33,0,0,0,.92,1.64,1.34,1.34,0,0,0,.93,1.64,1.38,1.38,0,0,0,.53,0,1.35,1.35,0,0,0,1,1.28,1.38,1.38,0,0,0,.83,0,1.32,1.32,0,0,0,.95,1,1.34,1.34,0,0,0,1.36-.4,1.29,1.29,0,0,0,.71.49,1.32,1.32,0,0,0,1.52-.64,1.34,1.34,0,0,0,2.22-.6A1.33,1.33,0,0,0,18,29.28v0l.28.11a1.33,1.33,0,0,0,1.64-.93,1.24,1.24,0,0,0,0-.66,1.32,1.32,0,0,0,1.06-1,1.26,1.26,0,0,0,0-.61,1.33,1.33,0,0,0,1.17-1.71,1.33,1.33,0,0,0,1.11-1,1.34,1.34,0,0,0-.08-.93A1.35,1.35,0,0,0,24.05,21.69Z"/>
    <path class="a1b0c09c-85c6-4e2e-b098-44fa5b70cc6d" d="M24,21.69a1.33,1.33,0,0,0-.26-1.21v0a1.31,1.31,0,0,0,.27-2,1.09,1.09,0,0,0,0-.18,1.2,1.2,0,0,0,.13-.31,1.3,1.3,0,0,0-.1-1,1.46,1.46,0,0,0,.17-.38A1.31,1.31,0,0,0,24,15.5a1.4,1.4,0,0,0,.22-.44,1.32,1.32,0,0,0-.67-1.53v0a1.33,1.33,0,0,0-.49-1.42l0-.08a1.33,1.33,0,0,0-.91-1.62,1.38,1.38,0,0,0-.45,0,1.22,1.22,0,0,0-.28-.57l-.06.12c0,.07,0,.13,0,.19a1.32,1.32,0,0,1,.28,1.22,1.3,1.3,0,0,1-.55.74v0a1.29,1.29,0,0,1,.27,1.2,1.32,1.32,0,0,1-.85.9,1.31,1.31,0,0,1-1,1.86,1.33,1.33,0,0,1-1.16,1.69,1.22,1.22,0,0,1,0,.6,1.31,1.31,0,0,1-1,.95,1.31,1.31,0,0,1-1.63,1.56,1,1,0,0,1-.28-.11v0a1.31,1.31,0,0,1-1.61.92,1.31,1.31,0,0,1-1.62.91,1.34,1.34,0,0,1-.57-.32,1.3,1.3,0,0,1-1.5.62,1.29,1.29,0,0,1-.7-.48,1.32,1.32,0,0,1-2.28-.61,1.42,1.42,0,0,1-.82,0,1.33,1.33,0,0,1-1-1.26,1.31,1.31,0,0,1-.52,0A1.29,1.29,0,0,1,4.05,20a1.37,1.37,0,0,0-.15.35,1.29,1.29,0,0,0,.35,1.3A1.14,1.14,0,0,0,4.1,22a1.31,1.31,0,0,0,.8,1.59h0a1.33,1.33,0,0,0-.23.46,1.3,1.3,0,0,0,.91,1.61,1.32,1.32,0,0,0,.92,1.62,1.31,1.31,0,0,0,.91,1.62,1.36,1.36,0,0,0,.53,0,1.31,1.31,0,0,0,1,1.26,1.24,1.24,0,0,0,.81,0,1.34,1.34,0,0,0,.94,1,1.31,1.31,0,0,0,1.34-.4,1.36,1.36,0,0,0,.7.49,1.33,1.33,0,0,0,1.51-.63,1.25,1.25,0,0,0,.56.32,1.31,1.31,0,0,0,1.62-.91A1.32,1.32,0,0,0,18,29.17v0a1.11,1.11,0,0,0,.27.12,1.32,1.32,0,0,0,1.62-.92,1.43,1.43,0,0,0,0-.65,1.31,1.31,0,0,0,1-.94,1.27,1.27,0,0,0,0-.61,1.31,1.31,0,0,0,1.16-1,1.26,1.26,0,0,0,0-.72,1.32,1.32,0,0,0,1-1.87A1.31,1.31,0,0,0,24,21.69Z"/>
    <path class="e4d40a31-ae1f-487f-a9f5-a38a49ffbe64" d="M23.74,21.57a1.33,1.33,0,0,0-.26-1.21v0a1.35,1.35,0,0,0,.54-.75,1.3,1.3,0,0,0-.27-1.22,1.28,1.28,0,0,1,0-.19,1.26,1.26,0,0,0,.13-.31,1.35,1.35,0,0,0-.11-1A1.21,1.21,0,0,0,24,16.5a1.31,1.31,0,0,0-.22-1.14,1.35,1.35,0,0,0,.22-.45,1.32,1.32,0,0,0-.67-1.53v0a1.32,1.32,0,0,0-.48-1.42s0,0,0-.08a1.32,1.32,0,0,0-.45-1.39,1.3,1.3,0,0,1,.31,1.26,1.18,1.18,0,0,1-.22.45,1.31,1.31,0,0,1,.22,1.14,1.46,1.46,0,0,1-.17.38,1.35,1.35,0,0,1,.1,1,1.26,1.26,0,0,1-.13.31c0,.07,0,.13,0,.19a1.31,1.31,0,0,1-.27,2v0a1.32,1.32,0,0,1-.58,2.1,1.32,1.32,0,0,1,.07.92,1.3,1.3,0,0,1-1.09,1,1.29,1.29,0,0,1,0,.73,1.32,1.32,0,0,1-1.16,1,1.27,1.27,0,0,1,0,.61,1.3,1.3,0,0,1-1,.94,1.48,1.48,0,0,1,0,.66,1.32,1.32,0,0,1-1.62.92,1.11,1.11,0,0,1-.27-.12v0a1.32,1.32,0,0,1-1.62.92,1.31,1.31,0,0,1-1.62.91,1.25,1.25,0,0,1-.56-.32,1.31,1.31,0,0,1-1.5.63,1.33,1.33,0,0,1-.71-.48A1.31,1.31,0,0,1,8.19,27a1.34,1.34,0,0,1-.82,0,1.31,1.31,0,0,1-1-1.26,1.19,1.19,0,0,1-.53,0A1.32,1.32,0,0,1,5,24.06a1.42,1.42,0,0,1-.49-.25L4.43,24a1.31,1.31,0,0,0,.91,1.62,1.31,1.31,0,0,0,.91,1.62,1.32,1.32,0,0,0,.91,1.63,1.15,1.15,0,0,0,.52,0,1.3,1.3,0,0,0,1,1.26,1.35,1.35,0,0,0,.82,0,1.31,1.31,0,0,0,2.27.61,1.34,1.34,0,0,0,.7.48,1.3,1.3,0,0,0,1.5-.63,1.34,1.34,0,0,0,.57.32A1.31,1.31,0,0,0,16.12,30a1.31,1.31,0,0,0,1.61-.92v0a1.39,1.39,0,0,0,.28.12,1.32,1.32,0,0,0,1.62-.92,1.34,1.34,0,0,0,0-.66,1.3,1.3,0,0,0,1.05-.94,1.27,1.27,0,0,0,0-.61,1.33,1.33,0,0,0,1.16-1.69,1.33,1.33,0,0,0,1-1.88A1.31,1.31,0,0,0,23.74,21.57Z"/>
    <path class="ffb4dd12-e26e-48f1-a947-3631cb75a2e4" d="M6.07,15.18A3.1,3.1,0,0,0,6,17.3a2.3,2.3,0,0,0,2,1.27A4.89,4.89,0,0,0,10.43,18a13.05,13.05,0,0,0,4.37-3.58,3.52,3.52,0,0,0,.57-3.74,3.92,3.92,0,0,0-1.2-1.45,2.47,2.47,0,0,0-1.55-.44,4.84,4.84,0,0,0-3.5,1.64A11.19,11.19,0,0,0,6.07,15.18Z"/>
    <path class="b16e5c67-bece-4311-ae38-eff6f891d395" d="M15.37,7.45a2.17,2.17,0,0,0,1,.72c.56.13,1.13-.21,1.69-.12.26,0,.5.18.76.22a.74.74,0,0,0,.39,0A1.44,1.44,0,0,0,18.76,8a1.1,1.1,0,0,0-.31,0,1.32,1.32,0,0,0-.86-.73,1.3,1.3,0,0,0-1.09.18,1.34,1.34,0,0,0-1.92-.57l.31.14A3.34,3.34,0,0,1,15.37,7.45Z"/>
    <path class="b5d95c53-2167-4573-8a64-eb72a48efc66" d="M21.4,25.44a.77.77,0,0,1-.32.15,1,1,0,0,1-.29,0c-.16,0-.24-.11-.23-.15s.11,0,.23-.06a1.05,1.05,0,0,0,.44-.17,1,1,0,0,0,.28-.38c.06-.11.08-.2.12-.2s.09.09.08.25a.86.86,0,0,1-.08.28A.81.81,0,0,1,21.4,25.44Z"/>
    <path class="b5d95c53-2167-4573-8a64-eb72a48efc66" d="M19.61,27.24a.87.87,0,0,1-.63,0c-.15-.06-.22-.14-.2-.17s.11,0,.24,0a1.25,1.25,0,0,0,.47-.09,1.17,1.17,0,0,0,.4-.28c.09-.09.15-.17.19-.15s0,.11,0,.26A.86.86,0,0,1,19.61,27.24Z"/>
    <path class="b5d95c53-2167-4573-8a64-eb72a48efc66" d="M16.79,29.41l.26,0,.21,0c.12,0,.2-.07.23,0s0,.12-.14.21a.68.68,0,0,1-.24.13,1.07,1.07,0,0,1-.32.05,1.61,1.61,0,0,1-.33-.06,1,1,0,0,1-.23-.14c-.12-.1-.15-.19-.13-.21s.11,0,.23,0l.21.05A1,1,0,0,0,16.79,29.41Z"/>
    <path class="b5d95c53-2167-4573-8a64-eb72a48efc66" d="M18.23,28.16l.16-.12a1.35,1.35,0,0,0,.12-.12c.07-.08.12-.13.16-.12s.06.09,0,.21a.62.62,0,0,1-.1.2.77.77,0,0,1-.21.19.68.68,0,0,1-.25.11.62.62,0,0,1-.23,0c-.13,0-.2-.07-.19-.1s.08-.07.18-.1l.16-.06Z"/>
    <path class="b5d95c53-2167-4573-8a64-eb72a48efc66" d="M16,28l.32-.05.27-.07c.15,0,.25-.07.28,0s-.05.13-.2.23a1,1,0,0,1-.28.13,1.34,1.34,0,0,1-.37.08,1.53,1.53,0,0,1-.38,0,1.07,1.07,0,0,1-.3-.09c-.16-.07-.24-.16-.22-.19s.12,0,.27,0l.28,0Z"/>
    <path class="b5d95c53-2167-4573-8a64-eb72a48efc66" d="M18.17,26.7a1.54,1.54,0,0,0,.41-.39c.09-.12.14-.21.18-.2s0,.12,0,.29a1.08,1.08,0,0,1-1.12.7c-.18,0-.27-.1-.26-.13s.11,0,.26-.08A1.27,1.27,0,0,0,18.17,26.7Z"/>
    <path class="b5d95c53-2167-4573-8a64-eb72a48efc66" d="M20.63,24.38a1.17,1.17,0,0,1-.3.29.65.65,0,0,1-.15.1l-.14.07c-.19.07-.31.06-.32,0s.08-.1.22-.21l.11-.08a1.14,1.14,0,0,0,.11-.11,3.08,3.08,0,0,0,.24-.26,2.16,2.16,0,0,0,.19-.31.91.91,0,0,0,.07-.14.69.69,0,0,0,.05-.13c.06-.15.1-.26.14-.26s.08.11.06.31a1.1,1.1,0,0,1,0,.16,1.54,1.54,0,0,1-.05.17A1.35,1.35,0,0,1,20.63,24.38Z"/>
    <path class="b5d95c53-2167-4573-8a64-eb72a48efc66" d="M22,22.51a1.3,1.3,0,0,1-.23.18,1,1,0,0,1-.22.08c-.13,0-.21,0-.22,0s.06-.09.15-.15l.15-.11.17-.16.14-.17.1-.16c.06-.09.1-.16.14-.16s.07.09.05.22a.71.71,0,0,1-.06.23A1.18,1.18,0,0,1,22,22.51Z"/>
    <path class="b5d95c53-2167-4573-8a64-eb72a48efc66" d="M22.72,23.64a1.5,1.5,0,0,1-.33.26l-.3.14c-.18.06-.3.07-.31,0s.07-.12.21-.22a3.55,3.55,0,0,0,.52-.42,1.06,1.06,0,0,0,.27-.54c0-.16,0-.27,0-.29s.05,0,.08.06a.44.44,0,0,1,.08.23A1,1,0,0,1,22.72,23.64Z"/>
    <path class="b5d95c53-2167-4573-8a64-eb72a48efc66" d="M23.33,21.35a.79.79,0,0,1-.2.17,1,1,0,0,1-.2.07c-.12,0-.19,0-.2-.05s.05-.08.12-.14a1.84,1.84,0,0,0,.26-.24,2,2,0,0,0,.21-.28c.05-.09.08-.15.12-.14s.08.07.07.19a.79.79,0,0,1,0,.2A1,1,0,0,1,23.33,21.35Z"/>
    <path class="b5d95c53-2167-4573-8a64-eb72a48efc66" d="M23.15,19.71a1.48,1.48,0,0,1-.3.26l-.15.08-.14.05c-.18,0-.29,0-.3,0s.09-.09.22-.18l.11-.07.11-.09a1.25,1.25,0,0,0,.23-.23,2.22,2.22,0,0,0,.19-.27l.06-.12a.61.61,0,0,0,.05-.12c.06-.14.09-.25.14-.25s.08.11.06.3a.78.78,0,0,1,0,.14.58.58,0,0,1-.06.17A1.21,1.21,0,0,1,23.15,19.71Z"/>
    <path class="b5d95c53-2167-4573-8a64-eb72a48efc66" d="M23.61,17a.89.89,0,0,1-.2.46c-.08.1-.16.14-.19.11s0-.1,0-.21.06-.25.09-.4a3.58,3.58,0,0,0,0-.42c0-.11,0-.19.05-.21s.1.05.15.17A1,1,0,0,1,23.61,17Z"/>
    <path class="b5d95c53-2167-4573-8a64-eb72a48efc66" d="M23.84,14.26a.51.51,0,0,1-.14.43c-.08.09-.16.1-.18.07s0-.09,0-.17a.89.89,0,0,0,0-.29,1,1,0,0,0-.1-.28c0-.07-.07-.12-.05-.16s.09,0,.19,0A.53.53,0,0,1,23.84,14.26Z"/>
    <path class="b5d95c53-2167-4573-8a64-eb72a48efc66" d="M23.21,12.62a1.13,1.13,0,0,1,0,.25.87.87,0,0,1,0,.19c-.05.1-.12.14-.15.13S23,13.1,23,13a.89.89,0,0,0,0-.15,1.24,1.24,0,0,0,0-.16l-.06-.16-.07-.12c0-.08-.08-.13-.06-.17s.09,0,.19,0a.38.38,0,0,1,.16.13A.61.61,0,0,1,23.21,12.62Z"/>
    <path class="b5d95c53-2167-4573-8a64-eb72a48efc66" d="M22.57,11a.48.48,0,0,1,.09.31c0,.08-.05.13-.08.13s-.08,0-.12-.09l-.13-.19L22.2,11c0-.06-.06-.11,0-.14s.07-.05.15,0A.44.44,0,0,1,22.57,11Z"/>
    <path class="b5d95c53-2167-4573-8a64-eb72a48efc66" d="M15,30.19a.9.9,0,0,0,.36-.23c.08-.09.13-.16.17-.15s.06.11,0,.25a.72.72,0,0,1-.15.22.65.65,0,0,1-.29.18.67.67,0,0,1-.34,0,.81.81,0,0,1-.25-.09c-.13-.09-.17-.18-.14-.21s.1,0,.22,0A.87.87,0,0,0,15,30.19Z"/>
    <path class="b5d95c53-2167-4573-8a64-eb72a48efc66" d="M13.84,28.72l.27-.07.12,0,.1,0c.12-.07.2-.12.23-.09s0,.12-.11.24a.43.43,0,0,1-.1.09l-.13.09a1.07,1.07,0,0,1-.33.11,1,1,0,0,1-.35,0l-.15,0a.33.33,0,0,1-.12-.05c-.15-.08-.21-.16-.19-.19s.12,0,.25,0h.23A1.32,1.32,0,0,0,13.84,28.72Z"/>
    <path class="b5d95c53-2167-4573-8a64-eb72a48efc66" d="M12.92,30.82l.23-.05.19-.07c.1-.05.18-.09.21-.06s0,.11-.09.22a.57.57,0,0,1-.21.15.7.7,0,0,1-.3.09,1,1,0,0,1-.31,0,.7.7,0,0,1-.23-.1c-.12-.08-.16-.17-.14-.2s.1,0,.22,0l.19,0Z"/>
    <path class="b5d95c53-2167-4573-8a64-eb72a48efc66" d="M12.76,29.74H13l.18,0c.11,0,.18,0,.2,0s0,.1-.13.17A.63.63,0,0,1,13,30a.86.86,0,0,1-.28,0,1.15,1.15,0,0,1-.28-.07.91.91,0,0,1-.19-.13c-.09-.09-.12-.17-.09-.2s.1,0,.2,0l.17.05Z"/>
    <path class="b5d95c53-2167-4573-8a64-eb72a48efc66" d="M10.7,30.44l.22,0h.19c.11,0,.19,0,.21,0s0,.11-.15.17a.69.69,0,0,1-.23.07,1.4,1.4,0,0,1-.29,0,1,1,0,0,1-.27-.1,1,1,0,0,1-.19-.15c-.09-.11-.11-.19-.08-.22s.11,0,.2.06l.18.07Z"/>
    <path class="b5d95c53-2167-4573-8a64-eb72a48efc66" d="M10.44,29.14c.41.09.76,0,.79.12s-.07.1-.23.14a1,1,0,0,1-.27.05,1.42,1.42,0,0,1-.35,0,1.34,1.34,0,0,1-.32-.1,1.25,1.25,0,0,1-.24-.15c-.13-.1-.18-.19-.16-.22S10,29.07,10.44,29.14Z"/>
    <path class="b5d95c53-2167-4573-8a64-eb72a48efc66" d="M8.86,29.45a3.21,3.21,0,0,0,.39.1c.11,0,.18,0,.19.08s0,.09-.18.12l-.22,0a1.28,1.28,0,0,1-.27-.05,1.36,1.36,0,0,1-.24-.13.86.86,0,0,1-.17-.15c-.08-.1-.09-.18-.07-.21s.11,0,.2.05Z"/>
    <path class="b5d95c53-2167-4573-8a64-eb72a48efc66" d="M7.49,28.37l.2.1.19.06c.1,0,.18,0,.19.09s-.07.09-.21.11a.67.67,0,0,1-.24,0,1.12,1.12,0,0,1-.27-.1,1.11,1.11,0,0,1-.23-.19.67.67,0,0,1-.13-.2c-.06-.13,0-.22,0-.23s.09,0,.17.12l.15.12Z"/>
    <path class="b5d95c53-2167-4573-8a64-eb72a48efc66" d="M6.39,26.64l.23.12.19.09c.11,0,.19.09.19.13s-.09.07-.23.07a1.18,1.18,0,0,1-.25,0,1.22,1.22,0,0,1-.28-.14,1.59,1.59,0,0,1-.24-.2,1,1,0,0,1-.13-.21c-.06-.13-.06-.23,0-.24s.1,0,.19.12l.16.14Z"/>
    <path class="b5d95c53-2167-4573-8a64-eb72a48efc66" d="M8.67,27.84l.34.09h.28c.17,0,.28,0,.3,0s-.09.11-.27.16a.76.76,0,0,1-.16,0H9a2.11,2.11,0,0,1-.4-.07,1.6,1.6,0,0,1-.37-.19l-.14-.11L8,27.7c-.11-.15-.14-.27-.11-.29s.12.05.25.14l.12.08.13.08A1.93,1.93,0,0,0,8.67,27.84Z"/>
    <path class="b5d95c53-2167-4573-8a64-eb72a48efc66" d="M5.35,25a2.85,2.85,0,0,0,.32.21c.09.06.15.1.15.14s-.08.06-.21.05a.76.76,0,0,1-.44-.18.88.88,0,0,1-.29-.38c0-.12,0-.2,0-.21s.09,0,.16.1Z"/>
    <path class="e4d40a31-ae1f-487f-a9f5-a38a49ffbe64" d="M14.58,25.48c.5-.08.88-.28.92-.22s0,.13-.2.24a1.77,1.77,0,0,1-.28.15,1.6,1.6,0,0,1-.39.11,1.84,1.84,0,0,1-.4,0l-.32-.05c-.18,0-.28-.12-.27-.16A9,9,0,0,1,14.58,25.48Z"/>
    <path class="e4d40a31-ae1f-487f-a9f5-a38a49ffbe64" d="M16.32,22.45a3,3,0,0,0,.32-.28l.14-.13.11-.13c.13-.15.22-.25.26-.23s0,.15-.09.35a1.84,1.84,0,0,1-.22.32,2.77,2.77,0,0,1-.35.33,2.62,2.62,0,0,1-.42.24,2.45,2.45,0,0,1-.37.11c-.22,0-.36,0-.37,0s.12-.09.31-.17l.15-.07.16-.09Z"/>
    <path class="e4d40a31-ae1f-487f-a9f5-a38a49ffbe64" d="M19.56,21.27a1.59,1.59,0,0,1-.5.31,1.24,1.24,0,0,1-.47.1c-.27,0-.42-.06-.42-.09s.16-.05.4-.11a1.7,1.7,0,0,0,1.26-1.19c.07-.23.09-.38.13-.39s.09.16.07.43a1.91,1.91,0,0,1-.13.46A1.84,1.84,0,0,1,19.56,21.27Z"/>
    <path class="e4d40a31-ae1f-487f-a9f5-a38a49ffbe64" d="M19,18.71a2.8,2.8,0,0,1-.4.38l-.2.13-.19.1c-.23.1-.39.12-.4.09s.11-.13.3-.27a.79.79,0,0,0,.15-.12l.17-.14a3.85,3.85,0,0,0,.35-.35,4.85,4.85,0,0,0,.31-.4l.11-.19.1-.17c.11-.21.17-.34.22-.33s0,.16,0,.41c0,.06,0,.13-.07.2a1,1,0,0,1-.1.21A2.13,2.13,0,0,1,19,18.71Z"/>
    <path class="e4d40a31-ae1f-487f-a9f5-a38a49ffbe64" d="M20.79,16.66a1.15,1.15,0,0,1-.27.27.55.55,0,0,1-.14.09.42.42,0,0,1-.14.06c-.17.07-.28.06-.29,0s.08-.1.2-.19l.1-.08.1-.1a1.64,1.64,0,0,0,.21-.24,1.4,1.4,0,0,0,.17-.28.31.31,0,0,0,.06-.13l.05-.11c.06-.15.09-.25.13-.25s.08.1.07.29a.78.78,0,0,1,0,.14c0,.05,0,.11,0,.17A1.16,1.16,0,0,1,20.79,16.66Z"/>
    <path class="e4d40a31-ae1f-487f-a9f5-a38a49ffbe64" d="M22.1,13.61a2.09,2.09,0,0,1-.14.3,1.2,1.2,0,0,1-.18.2c-.12.1-.22.12-.24.09s0-.11.08-.22l.11-.21c0-.07.07-.16.1-.25a2.68,2.68,0,0,0,.07-.27c0-.08,0-.16,0-.22s0-.23.06-.24.1.07.14.22a1.06,1.06,0,0,1,0,.27A1.45,1.45,0,0,1,22.1,13.61Z"/>
    <path class="e4d40a31-ae1f-487f-a9f5-a38a49ffbe64" d="M22.27,15.28a1.45,1.45,0,0,1-.25.5c-.09.11-.17.16-.2.14s.07-.34.18-.72.15-.7.24-.7.07.08.09.22A1.67,1.67,0,0,1,22.27,15.28Z"/>
    <path class="e4d40a31-ae1f-487f-a9f5-a38a49ffbe64" d="M20.46,18.69a2,2,0,0,1-.7.43c-.2.07-.33.09-.34.05s.08-.12.24-.23a4.2,4.2,0,0,0,.6-.46,1.5,1.5,0,0,0,.4-.59c.06-.17.07-.3.11-.3s.05,0,.07.08a.67.67,0,0,1,0,.26A1.24,1.24,0,0,1,20.46,18.69Z"/>
    <path class="e4d40a31-ae1f-487f-a9f5-a38a49ffbe64" d="M21.73,19.27a2,2,0,0,1-.29.34l-.16.12-.15.08c-.19.08-.33.08-.34.05s.09-.11.23-.22a.52.52,0,0,0,.11-.1l.12-.12a2.43,2.43,0,0,0,.24-.3,2.23,2.23,0,0,0,.17-.35.94.94,0,0,0,.06-.15,1.13,1.13,0,0,0,0-.15c0-.18.06-.3.1-.3s.1.11.1.32a1,1,0,0,1,0,.17.71.71,0,0,1,0,.2A1.6,1.6,0,0,1,21.73,19.27Z"/>
    <path class="e4d40a31-ae1f-487f-a9f5-a38a49ffbe64" d="M17,20.51a1.41,1.41,0,0,1-.27.18,1.53,1.53,0,0,1-.24.07c-.15,0-.24,0-.25,0s.07-.09.18-.15l.19-.12.21-.15.18-.18.15-.17c.08-.1.13-.16.17-.15s.05.1,0,.24a.86.86,0,0,1-.11.24A.9.9,0,0,1,17,20.51Z"/>
    <path class="e4d40a31-ae1f-487f-a9f5-a38a49ffbe64" d="M13.84,22.84a2.75,2.75,0,0,1-.51.21,2.86,2.86,0,0,1-.43.08c-.26,0-.41,0-.42,0s.59-.17,1.23-.5,1.06-.76,1.13-.71,0,.17-.21.36a2,2,0,0,1-.33.31A2.81,2.81,0,0,1,13.84,22.84Z"/>
    <path class="e4d40a31-ae1f-487f-a9f5-a38a49ffbe64" d="M10.78,25.89a.93.93,0,0,0,.58-.23c.14-.11.2-.21.24-.19s0,0,0,.1a.67.67,0,0,1-.11.23.77.77,0,0,1-.28.25.89.89,0,0,1-.91,0,.89.89,0,0,1-.28-.26.45.45,0,0,1-.09-.23c0-.06,0-.1,0-.1s.11.08.24.2A.94.94,0,0,0,10.78,25.89Z"/>
    <path class="e4d40a31-ae1f-487f-a9f5-a38a49ffbe64" d="M7.62,25.86a1.65,1.65,0,0,0,.66.17c.18,0,.3,0,.31,0s-.09.12-.29.16a1.21,1.21,0,0,1-.81-.11,1.29,1.29,0,0,1-.57-.6c-.08-.19-.07-.32,0-.33s.1.09.22.23A1.56,1.56,0,0,0,7.62,25.86Z"/>
    <path class="e4d40a31-ae1f-487f-a9f5-a38a49ffbe64" d="M8.47,24.77A.93.93,0,0,0,9,24.66c.14-.07.23-.14.26-.11s0,.14-.14.28A.91.91,0,0,1,8,24.89a.71.71,0,0,1-.24-.25c-.1-.17-.09-.3-.06-.31s.1.08.22.18A1,1,0,0,0,8.47,24.77Z"/>
    <path class="e4d40a31-ae1f-487f-a9f5-a38a49ffbe64" d="M11.86,23.84A3.25,3.25,0,0,0,13,23.38c.26-.16.43-.27.46-.24s-.1.19-.34.41a3.58,3.58,0,0,1-.48.33,2,2,0,0,1-.68.24,1.65,1.65,0,0,1-.74,0,1.42,1.42,0,0,1-.53-.3.84.84,0,0,1-.23-.32c0-.09,0-.15,0-.15s.13.15.38.32a1.36,1.36,0,0,0,.47.19A1.43,1.43,0,0,0,11.86,23.84Z"/>
    <path class="e4d40a31-ae1f-487f-a9f5-a38a49ffbe64" d="M6.84,23.27a2.63,2.63,0,0,0,.92.36c.25,0,.42,0,.43.08s-.16.11-.45.12a2,2,0,0,1-1-.32A2,2,0,0,1,6,22.65c-.1-.26-.1-.44-.06-.45s.1.15.24.36A2.49,2.49,0,0,0,6.84,23.27Z"/>
    <path class="e4d40a31-ae1f-487f-a9f5-a38a49ffbe64" d="M4.86,21.49a1.12,1.12,0,0,0,.48.27c.14,0,.24,0,.25.09s-.09.1-.28.11A.91.91,0,0,1,5,21.91a1.31,1.31,0,0,1-.34-.22.92.92,0,0,1-.21-.33A.81.81,0,0,1,4.39,21c0-.18.07-.28.1-.27s0,.11.1.25A1.21,1.21,0,0,0,4.86,21.49Z"/>
    <path class="e4d40a31-ae1f-487f-a9f5-a38a49ffbe64" d="M5.76,24.15l.26.19.13.06.11.06c.15.06.25.09.25.13s-.11.08-.29.06l-.15,0-.16-.06a1.57,1.57,0,0,1-.34-.21,1.37,1.37,0,0,1-.25-.3.51.51,0,0,1-.07-.15.44.44,0,0,1,0-.15c0-.18,0-.29,0-.29s.09.09.17.22l.07.11.08.11A2.4,2.4,0,0,0,5.76,24.15Z"/>
    <path class="e4d40a31-ae1f-487f-a9f5-a38a49ffbe64" d="M13.44,26.71a1.5,1.5,0,0,0,.69-.46c.14-.16.21-.29.25-.28s0,.17-.09.4a1.2,1.2,0,0,1-.28.34,1.22,1.22,0,0,1-.49.27,1.34,1.34,0,0,1-1-.09c-.23-.13-.32-.26-.29-.29s.15,0,.36.1A1.5,1.5,0,0,0,13.44,26.71Z"/>
    <path class="e4d40a31-ae1f-487f-a9f5-a38a49ffbe64" d="M17.15,25.48a1.68,1.68,0,0,0,.47-.37c.1-.13.16-.22.2-.21s0,.13,0,.31a1.12,1.12,0,0,1-1.25.62c-.19,0-.28-.13-.26-.16s.12,0,.28,0A1.46,1.46,0,0,0,17.15,25.48Z"/>
    <path class="e4d40a31-ae1f-487f-a9f5-a38a49ffbe64" d="M16.92,23.6a2.1,2.1,0,0,0,.25-.28l.1-.14a.83.83,0,0,0,.07-.13c.09-.15.14-.26.18-.26s.06.14,0,.34a1.42,1.42,0,0,1-.05.16l-.08.17a1.79,1.79,0,0,1-.28.35,1.38,1.38,0,0,1-.36.25l-.18.08-.16,0c-.2,0-.33,0-.33,0s.11-.08.27-.16l.13-.07.14-.09A1.54,1.54,0,0,0,16.92,23.6Z"/>
    <path class="e4d40a31-ae1f-487f-a9f5-a38a49ffbe64" d="M19,23.69a1.77,1.77,0,0,1-.92.57c-.27.06-.44,0-.45,0s.16-.09.39-.19a2.46,2.46,0,0,0,.77-.57,2.32,2.32,0,0,0,.45-.84c.07-.24.09-.4.14-.4s.09.16.06.44A1.75,1.75,0,0,1,19,23.69Z"/>
    <path class="e4d40a31-ae1f-487f-a9f5-a38a49ffbe64" d="M18.08,20.89a1.92,1.92,0,0,1-.39.22l-.18.06h-.17c-.21,0-.33,0-.33-.06s.12-.07.29-.13l.06,0,.07,0,.15-.07a2.49,2.49,0,0,0,.32-.21,1.6,1.6,0,0,0,.26-.26.91.91,0,0,0,.1-.13l0-.06,0-.06c.09-.15.14-.26.18-.26s.06.14,0,.34l0,.08a.41.41,0,0,1,0,.08,1.06,1.06,0,0,1-.1.17A1.71,1.71,0,0,1,18.08,20.89Z"/>
    <path class="e4d40a31-ae1f-487f-a9f5-a38a49ffbe64" d="M13.43,25a1.65,1.65,0,0,0,.59-.44c.13-.14.2-.25.24-.24s0,.16-.07.36a1.39,1.39,0,0,1-.65.58,1.35,1.35,0,0,1-.86.09c-.22-.05-.33-.15-.31-.18s.14,0,.33,0A1.76,1.76,0,0,0,13.43,25Z"/>
    <path class="e4d40a31-ae1f-487f-a9f5-a38a49ffbe64" d="M10.28,27.43a1.24,1.24,0,0,0,.53-.07c.13,0,.22-.08.25-.05s0,.13-.16.23a.92.92,0,0,1-.65.17.94.94,0,0,1-.6-.28c-.12-.13-.15-.24-.12-.26s.12,0,.24.1A1.61,1.61,0,0,0,10.28,27.43Z"/>
    <path class="ffb4dd12-e26e-48f1-a947-3631cb75a2e4" d="M12.24,7.62a1,1,0,0,1,.68.28c.14.13.18.25.15.27s-.12,0-.27-.11a1.43,1.43,0,0,0-.57-.16,1.38,1.38,0,0,0-.58.13c-.14.06-.23.12-.26.09s0-.14.15-.26A1,1,0,0,1,12.24,7.62Z"/>
    <path class="ffb4dd12-e26e-48f1-a947-3631cb75a2e4" d="M14.67,7.59a.94.94,0,0,1,.38.11.55.55,0,0,1,.24.24.32.32,0,0,1,.06.21c0,.06,0,.09,0,.09s-.07-.09-.18-.18a.48.48,0,0,0-.2-.12,1.12,1.12,0,0,0-.29-.07c-.45-.06-.83.07-.86,0s.06-.11.22-.18A1.24,1.24,0,0,1,14.67,7.59Z"/>
    <path class="ffb4dd12-e26e-48f1-a947-3631cb75a2e4" d="M9.49,8.89a4.64,4.64,0,0,0-.71.45c-.18.13-.3.2-.33.17s.05-.15.2-.32a2.22,2.22,0,0,1,.72-.56,1.57,1.57,0,0,1,.5-.14,1.45,1.45,0,0,1,.43,0,.94.94,0,0,1,.25.13c.06,0,.08.08.07.09s-.15,0-.36,0A1.61,1.61,0,0,0,9.49,8.89Z"/>
    <path class="ffb4dd12-e26e-48f1-a947-3631cb75a2e4" d="M7.11,10.9a.8.8,0,0,1,.6-.1c.15,0,.22.12.2.15s-.1,0-.22.06a1,1,0,0,0-.43.13,1,1,0,0,0-.32.32c-.07.1-.11.18-.15.18s-.08-.1,0-.26A.79.79,0,0,1,7.11,10.9Z"/>
    <path class="ffb4dd12-e26e-48f1-a947-3631cb75a2e4" d="M5.51,13.64a.71.71,0,0,0-.2.34c0,.1,0,.18-.08.19s-.1-.06-.12-.21a.63.63,0,0,1,0-.26.64.64,0,0,1,.18-.27.76.76,0,0,1,.29-.16.78.78,0,0,1,.26,0c.15,0,.21.11.2.14s-.1,0-.2.07A.74.74,0,0,0,5.51,13.64Z"/>
    <path class="ffb4dd12-e26e-48f1-a947-3631cb75a2e4" d="M4.91,14.9a.75.75,0,0,1,.49-.2c.14,0,.21.05.21.09s-.07.07-.17.11a1.16,1.16,0,0,0-.34.21,1.24,1.24,0,0,0-.24.31c-.06.09-.09.16-.14.16s-.07-.08-.06-.22A.79.79,0,0,1,4.91,14.9Z"/>
    <path class="ffb4dd12-e26e-48f1-a947-3631cb75a2e4" d="M4.71,16.73A.72.72,0,0,1,5,16.55a.75.75,0,0,1,.23-.07c.13,0,.22,0,.23,0s-.06.09-.17.15a1.51,1.51,0,0,0-.33.25.33.33,0,0,0-.09.16.3.3,0,0,0,0,.16c0,.09.06.15,0,.19s0,0-.08,0a.25.25,0,0,1-.14-.12.38.38,0,0,1-.07-.27A.52.52,0,0,1,4.71,16.73Z"/>
    <path class="ffb4dd12-e26e-48f1-a947-3631cb75a2e4" d="M15.93,8.81a.89.89,0,0,1,.62.13c.13.09.18.18.16.21s-.12,0-.25,0a1.25,1.25,0,0,0-.49,0,1.3,1.3,0,0,0-.46.17c-.12.06-.19.12-.22.1s0-.13.09-.25A.84.84,0,0,1,15.93,8.81Z"/>
    <path class="ffb4dd12-e26e-48f1-a947-3631cb75a2e4" d="M18.47,8.59a1.84,1.84,0,0,1,.81.69c.14.23.17.4.14.41s-.13-.11-.3-.29a2.32,2.32,0,0,0-.76-.54,2.1,2.1,0,0,0-.92-.18c-.25,0-.4,0-.42,0s.13-.13.4-.18A1.75,1.75,0,0,1,18.47,8.59Z"/>
    <path class="ffb4dd12-e26e-48f1-a947-3631cb75a2e4" d="M17,10a1.06,1.06,0,0,1,.63.33c.13.14.16.25.13.28s-.12,0-.26-.12a1.41,1.41,0,0,0-.55-.21,1.16,1.16,0,0,0-.57,0c-.14,0-.21.11-.24.09s0,0,0-.09a.4.4,0,0,1,.15-.18A.94.94,0,0,1,17,10Z"/>
    <path class="ffb4dd12-e26e-48f1-a947-3631cb75a2e4" d="M19.85,10.38a.76.76,0,0,1,.33.28.74.74,0,0,1,.12.34.67.67,0,0,1,0,.23s-.05.08-.07.07-.05-.12-.1-.26a.85.85,0,0,0-.13-.22.78.78,0,0,0-.24-.19,1.93,1.93,0,0,0-.61-.15c-.17,0-.28-.05-.28-.09s.1-.08.28-.11a1.16,1.16,0,0,1,.33,0A1,1,0,0,1,19.85,10.38Z"/>
    <path class="ffb4dd12-e26e-48f1-a947-3631cb75a2e4" d="M17.54,11.35a.8.8,0,0,1,.27.32.6.6,0,0,1,.07.33.52.52,0,0,1,0,.21s-.05.07-.07.07,0-.12-.09-.26a.76.76,0,0,0-.3-.43.86.86,0,0,0-.52-.12c-.14,0-.24,0-.26,0s0-.05,0-.09a.56.56,0,0,1,.18-.12.81.81,0,0,1,.33-.06A.9.9,0,0,1,17.54,11.35Z"/>
    <path class="ffb4dd12-e26e-48f1-a947-3631cb75a2e4" d="M20.21,12.35a.86.86,0,0,1,0,.44,1,1,0,0,1-.11.31c-.1.15-.18.23-.21.21s0-.13,0-.29a1.1,1.1,0,0,0,0-.27.55.55,0,0,0,0-.28.76.76,0,0,0-.43-.32c-.15-.05-.25-.1-.25-.14s.11-.06.3,0a.71.71,0,0,1,.32.08.47.47,0,0,1,.18.12A.94.94,0,0,1,20.21,12.35Z"/>
    <path class="ffb4dd12-e26e-48f1-a947-3631cb75a2e4" d="M18,13a1.16,1.16,0,0,1,.5.58c.06.19,0,.32,0,.33s-.1-.1-.19-.23a1.63,1.63,0,0,0-.46-.44,1.6,1.6,0,0,0-.61-.18c-.16,0-.28,0-.29-.05s.09-.11.28-.15A1.11,1.11,0,0,1,18,13Z"/>
    <path class="ffb4dd12-e26e-48f1-a947-3631cb75a2e4" d="M17.1,13.82a1,1,0,0,1,.35.34,1,1,0,0,1,.15.36.79.79,0,0,1,0,.26c0,.06,0,.09-.05.09s-.07-.13-.15-.29a1.19,1.19,0,0,0-.45-.51,1.15,1.15,0,0,0-.67-.13c-.19,0-.3.05-.33,0s0-.05.06-.09a.55.55,0,0,1,.22-.13,1,1,0,0,1,.39-.05A1.23,1.23,0,0,1,17.1,13.82Z"/>
    <path class="ffb4dd12-e26e-48f1-a947-3631cb75a2e4" d="M19.28,15.24a1.12,1.12,0,0,1-.08.38,1.48,1.48,0,0,1-.16.26c-.1.13-.18.2-.21.18s0-.13,0-.28a1.94,1.94,0,0,0,.13-.54.6.6,0,0,0-.06-.27.56.56,0,0,0-.12-.2c-.09-.09-.18-.12-.18-.16s0,0,.08,0a.34.34,0,0,1,.22,0A.7.7,0,0,1,19.28,15.24Z"/>
    <path class="ffb4dd12-e26e-48f1-a947-3631cb75a2e4" d="M17.05,17.55a1.15,1.15,0,0,1-.39.21l-.18,0h-.17c-.2,0-.32,0-.32-.09s.12-.06.29-.11l.07,0,.07,0,.15-.06a2.59,2.59,0,0,0,.31-.19,3.32,3.32,0,0,0,.27-.25.91.91,0,0,0,.1-.13l.05-.06,0-.06c.1-.14.15-.25.19-.24s0,.14,0,.33l0,.08,0,.08-.1.16A1.3,1.3,0,0,1,17.05,17.55Z"/>
    <path class="a1b0c09c-85c6-4e2e-b098-44fa5b70cc6d" d="M15.39,19.89a1.92,1.92,0,0,1-.48.13l-.22,0H14.5c-.24,0-.37-.09-.36-.13s.15,0,.36-.07l.17,0,.19,0a3.08,3.08,0,0,0,.42-.15,3.55,3.55,0,0,0,.39-.2l.16-.12.13-.1c.16-.14.26-.24.3-.21s0,.16-.15.35l-.13.14a1.17,1.17,0,0,1-.16.15A2.88,2.88,0,0,1,15.39,19.89Z"/>
    <path class="a1b0c09c-85c6-4e2e-b098-44fa5b70cc6d" d="M7.06,21.14c.17.06.33.1.45.13s.2.05.2.09-.07.09-.21.11H7.26A1.11,1.11,0,0,1,7,21.41a1.71,1.71,0,0,1-.27-.14.73.73,0,0,1-.18-.16c-.09-.11-.12-.2-.09-.22s.1,0,.21.06A3.42,3.42,0,0,0,7.06,21.14Z"/>
    <path class="a1b0c09c-85c6-4e2e-b098-44fa5b70cc6d" d="M9.92,21.43a2.77,2.77,0,0,0,1.17-.22c.29-.12.46-.24.48-.2s-.1.2-.39.38a2.49,2.49,0,0,1-.54.24,2.16,2.16,0,0,1-.73.08,2.11,2.11,0,0,1-.73-.15,2.29,2.29,0,0,1-.52-.28c-.27-.21-.38-.39-.35-.42s.18.1.46.25A2.81,2.81,0,0,0,9.92,21.43Z"/>
    <path class="a1b0c09c-85c6-4e2e-b098-44fa5b70cc6d" d="M12.84,21a2.46,2.46,0,0,0,.33-.3l.14-.15a1.13,1.13,0,0,0,.1-.13c.13-.17.21-.28.25-.27s0,.16-.07.37l-.09.17-.13.18a2,2,0,0,1-.35.36,2.39,2.39,0,0,1-.43.25l-.21.08-.18,0c-.23,0-.38,0-.38,0s.12-.09.32-.17l.16-.07.17-.09A2.68,2.68,0,0,0,12.84,21Z"/>
    <path class="a1b0c09c-85c6-4e2e-b098-44fa5b70cc6d" d="M11.55,18.8a1.27,1.27,0,0,1,.56-.18,1.18,1.18,0,0,1,.76.17c.06.05.08.08.07.1s-.16,0-.39,0a1.47,1.47,0,0,0-.85.18,1.44,1.44,0,0,0-.54.67c-.09.22-.1.37-.15.37s0,0,0-.11a.79.79,0,0,1,0-.31,1.32,1.32,0,0,1,.18-.44A1.17,1.17,0,0,1,11.55,18.8Z"/>
    <path class="a1b0c09c-85c6-4e2e-b098-44fa5b70cc6d" d="M6.85,19.62a2.3,2.3,0,0,0,.32.15l.14.06.13,0c.17,0,.28.06.28.1s-.1.09-.3.1H7.26l-.18,0a1.35,1.35,0,0,1-.38-.16,1.43,1.43,0,0,1-.32-.27,1.34,1.34,0,0,1-.11-.14.7.7,0,0,1-.08-.14c-.08-.18-.08-.3-.05-.31s.11.07.22.2l.09.1.12.11A2.27,2.27,0,0,0,6.85,19.62Z"/>
    <path class="a1b0c09c-85c6-4e2e-b098-44fa5b70cc6d" d="M4.87,19.53l.2.13.19.09c.11.05.19.08.19.12s-.08.08-.23.08A.62.62,0,0,1,5,19.9a.85.85,0,0,1-.28-.15,1,1,0,0,1-.21-.25.59.59,0,0,1-.09-.24c0-.14,0-.23,0-.24s.08.07.15.17l.12.16Z"/>
    <path class="a1b0c09c-85c6-4e2e-b098-44fa5b70cc6d" d="M5,17.91a.52.52,0,0,1,.19-.24.4.4,0,0,1,.23-.08.32.32,0,0,1,.16,0s.05,0,0,.06-.07.06-.15.1a.61.61,0,0,0-.2.22.44.44,0,0,0,0,.3c0,.08.07.13.06.17a.08.08,0,0,1-.07,0,.4.4,0,0,1-.15-.07A.54.54,0,0,1,5,18.22.46.46,0,0,1,5,17.91Z"/>
    <path class="a1b0c09c-85c6-4e2e-b098-44fa5b70cc6d" d="M9.11,19.18c.5.13.93.14.94.22s-.11.09-.29.11A1.69,1.69,0,0,1,9,19.45a1.64,1.64,0,0,1-.65-.31c-.15-.11-.22-.21-.2-.24S8.61,19.05,9.11,19.18Z"/>
    <path class="a1b0c09c-85c6-4e2e-b098-44fa5b70cc6d" d="M13.71,17.15a3.45,3.45,0,0,0,.43-.2l.17-.12.08,0,.07-.06c.17-.14.26-.26.3-.24s0,.05,0,.12a.14.14,0,0,1,0,.06l0,.06a.94.94,0,0,1-.1.14l-.06.08-.07.07a1.37,1.37,0,0,1-.18.16,2.81,2.81,0,0,1-.49.25,2.1,2.1,0,0,1-.54.09.86.86,0,0,1-.23,0h-.11l-.1,0a.76.76,0,0,1-.16-.06l-.06,0,0,0c-.06,0-.08-.07-.08-.09s.16,0,.39,0H13l.21,0A2.07,2.07,0,0,0,13.71,17.15Z"/>
    <path class="a1b0c09c-85c6-4e2e-b098-44fa5b70cc6d" d="M14.69,18.24a1.49,1.49,0,0,1-.44.11H14l-.08,0c-.21,0-.31-.12-.3-.16s.14,0,.32,0h.15l.16,0a1.92,1.92,0,0,0,.37-.11l.33-.19.14-.11.06-.05.05-.05c.13-.12.21-.22.24-.2s0,.15-.08.33l-.05.07,0,.07-.14.14A1.87,1.87,0,0,1,14.69,18.24Z"/>
    <path class="a1b0c09c-85c6-4e2e-b098-44fa5b70cc6d" d="M15.51,14.81a2.17,2.17,0,0,1,.44,0,1.68,1.68,0,0,1,.36.06c.2.06.31.13.3.16s-.5,0-1.07.07-1,.24-1.06.17.08-.13.26-.22a1.72,1.72,0,0,1,.33-.14A2.63,2.63,0,0,1,15.51,14.81Z"/>
    <path class="a1b0c09c-85c6-4e2e-b098-44fa5b70cc6d" d="M16.74,16.13a1.08,1.08,0,0,1,.32.32,1,1,0,0,1,.15.34c.05.2,0,.33,0,.33s-.07-.11-.16-.26a1.2,1.2,0,0,0-.43-.48,1.32,1.32,0,0,0-.63-.19c-.17,0-.29,0-.31,0s.08-.13.29-.18a1.11,1.11,0,0,1,.37,0A1.3,1.3,0,0,1,16.74,16.13Z"/>
    <path class="a1b0c09c-85c6-4e2e-b098-44fa5b70cc6d" d="M18,18.15a1.47,1.47,0,0,1-.23.26,1,1,0,0,1-.23.17c-.15.07-.25.08-.27,0s0-.1.15-.21l.16-.18a2.5,2.5,0,0,0,.18-.24c.05-.09.1-.17.14-.26s.07-.16.09-.22.08-.23.12-.23.08.1.08.26a1.1,1.1,0,0,1-.05.29A1.73,1.73,0,0,1,18,18.15Z"/>
    <g class="a4d7a0d2-9858-4100-90ad-d5649470c33f">
      <path class="ee4371ca-f657-48d8-b9a4-0c106b624c94" d="M12.62,10.29c-.65-1.35-3.29.83-2.08,1.45a1.18,1.18,0,0,0,.72.08,2,2,0,0,0,1.05-.54A.92.92,0,0,0,12.62,10.29Z"/>
    </g>
    <g class="a4d7a0d2-9858-4100-90ad-d5649470c33f">
      <path class="ee4371ca-f657-48d8-b9a4-0c106b624c94" d="M9.42,13.15c.6-.45.12-1.33-.56-.81-.33.25-.52.72,0,.91A.62.62,0,0,0,9.42,13.15Z"/>
    </g>
    <path class="a4e5a357-bd7d-4fed-b7cd-5fd5ecb4f65b" d="M7,14.64a1.2,1.2,0,0,1,.53.07c.13,0,.2.11.19.14s-.33,0-.7.07-.66.11-.69,0,0-.1.16-.17A1.28,1.28,0,0,1,7,14.64Z"/>
    <path class="a4e5a357-bd7d-4fed-b7cd-5fd5ecb4f65b" d="M7.66,13.45a1.72,1.72,0,0,1,.3.11.85.85,0,0,1,.2.17c.1.11.12.2.09.23s-.11,0-.22-.08l-.18-.08-.24-.07-.24,0H7.16c-.12,0-.2,0-.22,0s0-.11.16-.18a.82.82,0,0,1,.25-.07A.81.81,0,0,1,7.66,13.45Z"/>
    <path class="a4e5a357-bd7d-4fed-b7cd-5fd5ecb4f65b" d="M9.41,11.24a.7.7,0,0,1,.32.24.58.58,0,0,1,.09.32.37.37,0,0,1-.07.21s-.07.05-.08,0,0-.12-.05-.23a.54.54,0,0,0-.1-.18.58.58,0,0,0-.22-.13,1.39,1.39,0,0,0-.52-.07c-.15,0-.25,0-.26,0s.07-.09.23-.15A1,1,0,0,1,9,11.19.89.89,0,0,1,9.41,11.24Z"/>
    <path class="a4e5a357-bd7d-4fed-b7cd-5fd5ecb4f65b" d="M11.71,9.35a1.28,1.28,0,0,1,.36.07,1,1,0,0,1,.28.12c.14.09.21.17.19.21s-.4-.09-.85-.12-.81.07-.84,0,.06-.11.21-.18a1.1,1.1,0,0,1,.29-.09A2.1,2.1,0,0,1,11.71,9.35Z"/>
    <path class="a4e5a357-bd7d-4fed-b7cd-5fd5ecb4f65b" d="M14.51,10.16a1,1,0,0,1,.49.48c.07.16.07.27,0,.29s-.1-.07-.2-.18a1.3,1.3,0,0,0-.44-.33,1.47,1.47,0,0,0-.54-.12c-.15,0-.25,0-.27,0s.07-.11.24-.17A1,1,0,0,1,14.51,10.16Z"/>
    <path class="a4e5a357-bd7d-4fed-b7cd-5fd5ecb4f65b" d="M15.31,12.29a.7.7,0,0,1,.15.43.65.65,0,0,1-.12.34.42.42,0,0,1-.2.15.13.13,0,0,1-.1,0s.07-.11.12-.24a.47.47,0,0,0,0-.24.52.52,0,0,0-.11-.26.92.92,0,0,0-.47-.31c-.16-.05-.27-.08-.27-.12s.11-.09.3-.08A.85.85,0,0,1,15,12,.79.79,0,0,1,15.31,12.29Z"/>
    <path class="a4e5a357-bd7d-4fed-b7cd-5fd5ecb4f65b" d="M12.92,11.41a.93.93,0,0,1,.29,0,1.12,1.12,0,0,1,.22.1c.11.07.15.15.13.18s-.1,0-.21,0l-.19,0h-.22l-.22,0-.18,0c-.1,0-.18.06-.21,0s0-.11.1-.2a.77.77,0,0,1,.2-.13A1.23,1.23,0,0,1,12.92,11.41Z"/>
    <path class="a4e5a357-bd7d-4fed-b7cd-5fd5ecb4f65b" d="M11.69,12.68a.93.93,0,0,1,.66.56.55.55,0,0,1,0,.27c0,.07,0,.1-.06.09s-.05-.13-.15-.27a.84.84,0,0,0-.21-.21,1,1,0,0,0-.34-.16,2.28,2.28,0,0,0-.73,0c-.19,0-.32,0-.33,0s.1-.11.3-.17a1.13,1.13,0,0,1,.36-.08A1.26,1.26,0,0,1,11.69,12.68Z"/>
    <path class="a4e5a357-bd7d-4fed-b7cd-5fd5ecb4f65b" d="M13.93,13.66A.65.65,0,0,1,14,14a.71.71,0,0,1-.08.28.36.36,0,0,1-.13.14s-.07,0-.09,0,0-.1,0-.22a.54.54,0,0,0-.08-.4.53.53,0,0,0-.35-.21c-.11,0-.2,0-.22,0s0,0,0-.07a.25.25,0,0,1,.18-.08.59.59,0,0,1,.29,0A.69.69,0,0,1,13.93,13.66Z"/>
    <path class="a4e5a357-bd7d-4fed-b7cd-5fd5ecb4f65b" d="M12,14.77a.75.75,0,0,0-.39.18c-.09.08-.14.16-.18.15s0,0,0-.08a.41.41,0,0,1,.05-.19.69.69,0,0,1,.53-.34.65.65,0,0,1,.35.07.74.74,0,0,1,.23.18.67.67,0,0,1,.08.18.13.13,0,0,1,0,.08s-.1-.05-.21-.11A.66.66,0,0,0,12,14.77Z"/>
    <path class="a4e5a357-bd7d-4fed-b7cd-5fd5ecb4f65b" d="M12.58,16.48a.66.66,0,0,1-.09.3.7.7,0,0,1-.13.18c-.09.09-.17.13-.2.11s0-.11,0-.22a1.52,1.52,0,0,0,.11-.38.48.48,0,0,0,0-.18.47.47,0,0,0-.08-.14c0-.07-.12-.09-.13-.13s0,0,.06-.06a.3.3,0,0,1,.18,0A.52.52,0,0,1,12.58,16.48Z"/>
    <path class="a4e5a357-bd7d-4fed-b7cd-5fd5ecb4f65b" d="M10.45,16.67a.8.8,0,0,1-.2.81.5.5,0,0,1-.21.13c-.06,0-.1,0-.11,0s.08-.1.17-.25a.88.88,0,0,0,.1-.26.62.62,0,0,0,0-.33.56.56,0,0,0-.18-.27.79.79,0,0,0-.24-.15c-.15-.07-.27-.07-.28-.11s0,0,.08-.06a.45.45,0,0,1,.25,0,.82.82,0,0,1,.36.14A.76.76,0,0,1,10.45,16.67Z"/>
    <path class="a4e5a357-bd7d-4fed-b7cd-5fd5ecb4f65b" d="M10.16,14.48a.7.7,0,0,1,.31.37.55.55,0,0,1,0,.4.41.41,0,0,1-.16.21c-.06,0-.1,0-.11,0s.06-.12.08-.28a.59.59,0,0,0,0-.25.6.6,0,0,0-.22-.23,1.44,1.44,0,0,0-.64-.16c-.18,0-.31,0-.31-.07s.11-.09.3-.13a1.34,1.34,0,0,1,.36,0A1,1,0,0,1,10.16,14.48Z"/>
    <path class="a4e5a357-bd7d-4fed-b7cd-5fd5ecb4f65b" d="M8.24,15.69a.9.9,0,0,0-.11.28c0,.09,0,.15-.06.17s-.1,0-.14-.15A.57.57,0,0,1,8,15.53a.55.55,0,0,1,.4-.25c.13,0,.19,0,.19.07s-.06.08-.13.13A.62.62,0,0,0,8.24,15.69Z"/>
    <path class="a4e5a357-bd7d-4fed-b7cd-5fd5ecb4f65b" d="M6.06,17.21a.81.81,0,0,0,.34.44c.13.09.23.14.22.18s-.12.06-.31,0a.78.78,0,0,1-.53-.55.72.72,0,0,1,0-.45.59.59,0,0,1,.24-.27.33.33,0,0,1,.23-.07c.06,0,.09,0,.09,0s-.1.07-.2.18a.66.66,0,0,0-.12.22A.53.53,0,0,0,6.06,17.21Z"/>
    <path class="a4e5a357-bd7d-4fed-b7cd-5fd5ecb4f65b" d="M7.37,17.78a2,2,0,0,0,.41.29c.12.06.2.09.2.13s-.1.08-.26.06A.94.94,0,0,1,7.17,18a.72.72,0,0,1-.2-.32.41.41,0,0,1,0-.19A.35.35,0,0,1,7,17.32a.23.23,0,0,1,.21-.09c.06,0,.08,0,.07.05s0,0-.05,0a.33.33,0,0,0-.06.1.17.17,0,0,0,0,.07.31.31,0,0,0,0,.08A.8.8,0,0,0,7.37,17.78Z"/>
    <path class="a4e5a357-bd7d-4fed-b7cd-5fd5ecb4f65b" d="M8,16.94a1.59,1.59,0,0,0,.63.25c.17,0,.29,0,.3.09s-.11.1-.31.11a1.2,1.2,0,0,1-.78-.22,1.29,1.29,0,0,1-.49-.65c0-.2,0-.34,0-.34s.09.1.19.26A1.73,1.73,0,0,0,8,16.94Z"/>
    <path class="a4e5a357-bd7d-4fed-b7cd-5fd5ecb4f65b" d="M13.17,15.35a.76.76,0,0,1-.39.08c-.1,0-.16,0-.16-.09s.05-.08.13-.11l.3-.14.28-.15c.08,0,.14-.06.17,0s0,.09,0,.18A.72.72,0,0,1,13.17,15.35Z"/>
    <path class="a1b0c09c-85c6-4e2e-b098-44fa5b70cc6d" d="M19.91,25.82a1.14,1.14,0,0,1-.25.06.68.68,0,0,1-.21,0c-.12,0-.18-.09-.16-.13s.08-.05.17-.07l.16,0,.18-.06.17-.09.14-.09c.08-.06.14-.1.17-.08s0,.1,0,.21a.59.59,0,0,1-.13.17A.93.93,0,0,1,19.91,25.82Z"/>
    <path class="a1b0c09c-85c6-4e2e-b098-44fa5b70cc6d" d="M16.44,27l.26-.14c.08,0,.13-.06.17,0s0,.09,0,.18a.68.68,0,0,1-.29.26.7.7,0,0,1-.39.05c-.1,0-.15-.07-.15-.11s.06-.06.14-.09Z"/>
    <path class="a1b0c09c-85c6-4e2e-b098-44fa5b70cc6d" d="M15,29.19l.31-.08c.08,0,.14,0,.17,0s0,.09-.07.16a.8.8,0,0,1-.33.19.69.69,0,0,1-.38,0c-.1,0-.15-.07-.15-.11s.07-.06.15-.09Z"/>
    <path class="a1b0c09c-85c6-4e2e-b098-44fa5b70cc6d" d="M11.75,28.74a2.18,2.18,0,0,0,.34.09c.09,0,.15.05.16.08s0,.09-.15.13a.76.76,0,0,1-.44,0,.69.69,0,0,1-.36-.26c-.07-.09-.08-.17-.05-.19s.1,0,.18,0A3.37,3.37,0,0,0,11.75,28.74Z"/>
    <path class="a1b0c09c-85c6-4e2e-b098-44fa5b70cc6d" d="M9,28.88a2,2,0,0,0,.29.1l.24.05c.14,0,.24,0,.25.08s-.09.1-.25.13a1.4,1.4,0,0,1-.29,0,1.69,1.69,0,0,1-.35-.1A1.33,1.33,0,0,1,8.54,29a.93.93,0,0,1-.19-.22c-.1-.14-.12-.24-.08-.26s.11,0,.22.12l.21.14Z"/>
    <path class="a1b0c09c-85c6-4e2e-b098-44fa5b70cc6d" d="M11.89,30.31l.33.05c.09,0,.15,0,.16.07s0,.09-.13.13a.77.77,0,0,1-.41,0,.8.8,0,0,1-.37-.17c-.08-.07-.11-.14-.09-.17s.09,0,.18,0Z"/>
    <path class="a1b0c09c-85c6-4e2e-b098-44fa5b70cc6d" d="M19.24,28.93a.74.74,0,0,1-.53.06c-.13,0-.19-.11-.18-.14s.1-.05.2-.06a1.59,1.59,0,0,0,.38-.11,1.33,1.33,0,0,0,.31-.24c.07-.07.13-.13.16-.12s.06.1,0,.23A.7.7,0,0,1,19.24,28.93Z"/>
    <path class="a1b0c09c-85c6-4e2e-b098-44fa5b70cc6d" d="M20.48,27.08a.71.71,0,0,1-.21.11.44.44,0,0,1-.19,0c-.11,0-.17,0-.17-.08S20,27.06,20,27a1.53,1.53,0,0,0,.26-.16,2.27,2.27,0,0,0,.22-.22c.06-.06.1-.1.14-.1s.06.08,0,.19a.6.6,0,0,1-.22.35Z"/>
    <path class="a1b0c09c-85c6-4e2e-b098-44fa5b70cc6d" d="M22.47,22.78a1.23,1.23,0,0,1-.28.24,1.26,1.26,0,0,1-.26.13c-.16.05-.27,0-.28,0s.07-.09.19-.18l.2-.16.22-.22.19-.24c.05-.08.1-.15.13-.21s.13-.21.17-.21.06.12,0,.28a1,1,0,0,1-.1.28A1.37,1.37,0,0,1,22.47,22.78Z"/>
    <path class="a1b0c09c-85c6-4e2e-b098-44fa5b70cc6d" d="M22.37,21.48a1.21,1.21,0,0,1-.32.25l-.16.08-.15,0c-.18,0-.29,0-.3,0s.09-.09.23-.17l.11-.07.12-.09a1.86,1.86,0,0,0,.26-.23,1.32,1.32,0,0,0,.22-.26.94.94,0,0,0,.09-.12.75.75,0,0,0,.07-.12c.08-.14.13-.24.17-.23s.06.12,0,.31a1.21,1.21,0,0,1-.05.14,1.11,1.11,0,0,1-.07.16A1.41,1.41,0,0,1,22.37,21.48Z"/>
    <path class="a1b0c09c-85c6-4e2e-b098-44fa5b70cc6d" d="M23.85,19.78a.92.92,0,0,1-.48.35c-.15,0-.25,0-.26,0s.07-.08.17-.16a1.1,1.1,0,0,0,.33-.32,1.13,1.13,0,0,0,.17-.43c0-.12,0-.2.08-.21s.1.06.13.22A.91.91,0,0,1,23.85,19.78Z"/>
    <path class="a1b0c09c-85c6-4e2e-b098-44fa5b70cc6d" d="M23.63,16.09a.76.76,0,0,1-.15.23,1,1,0,0,1-.17.14c-.12.05-.2.05-.22,0s0-.1.09-.18l.1-.14.1-.19a1.46,1.46,0,0,0,.07-.19,1.54,1.54,0,0,0,.05-.17c0-.1,0-.17.08-.18s.09.06.12.18a.77.77,0,0,1,0,.22A.61.61,0,0,1,23.63,16.09Z"/>
    <path class="a4e5a357-bd7d-4fed-b7cd-5fd5ecb4f65b" d="M20.17,19.66a2.14,2.14,0,0,1-.38.13,1.32,1.32,0,0,1-.33,0c-.19,0-.3-.06-.29-.09s.11-.07.27-.11l.28-.08a1.73,1.73,0,0,0,.33-.13,2.25,2.25,0,0,0,.31-.16l.24-.16c.14-.1.23-.16.26-.14s0,.14-.12.29a1.24,1.24,0,0,1-.23.23A1.6,1.6,0,0,1,20.17,19.66Z"/>
    <path class="a4e5a357-bd7d-4fed-b7cd-5fd5ecb4f65b" d="M20.65,21.17a.83.83,0,0,1-.25.18.79.79,0,0,1-.23.08c-.14,0-.23,0-.24,0s.06-.09.16-.16a.88.88,0,0,0,.17-.12,1.3,1.3,0,0,0,.2-.15l.17-.19a.83.83,0,0,0,.12-.16c.08-.09.13-.16.17-.15s0,.1,0,.24a1.33,1.33,0,0,1-.1.23A1,1,0,0,1,20.65,21.17Z"/>
    <path class="a4e5a357-bd7d-4fed-b7cd-5fd5ecb4f65b" d="M14.29,23.94a1.67,1.67,0,0,1-.61,0c-.15,0-.24-.09-.23-.13s.37-.07.8-.12.78-.14.81-.07-.05.11-.19.18A1.47,1.47,0,0,1,14.29,23.94Z"/>
    <path class="a4e5a357-bd7d-4fed-b7cd-5fd5ecb4f65b" d="M15.41,26.64a1.15,1.15,0,0,1-.59-.06c-.14,0-.22-.11-.21-.15s.1-.05.24-.05a3.05,3.05,0,0,0,.51,0,.92.92,0,0,0,.41-.18c.1-.08.14-.15.19-.14s0,0,0,.08a.42.42,0,0,1-.06.18A.72.72,0,0,1,15.41,26.64Z"/>
    <path class="a4e5a357-bd7d-4fed-b7cd-5fd5ecb4f65b" d="M9.7,26.66l.3.06.25,0c.14,0,.24,0,.25.06s-.08.1-.24.14A1.2,1.2,0,0,1,10,27a1.51,1.51,0,0,1-.35-.06,1.62,1.62,0,0,1-.33-.13,1.06,1.06,0,0,1-.23-.17c-.12-.11-.16-.21-.13-.24s.11,0,.24.07l.24.1A1.83,1.83,0,0,0,9.7,26.66Z"/>
    <path class="a4e5a357-bd7d-4fed-b7cd-5fd5ecb4f65b" d="M8.66,23.14a2.07,2.07,0,0,0,.4,0c.1,0,.18,0,.19.06s0,.1-.16.14a.9.9,0,0,1-.92-.18c-.09-.09-.12-.16-.09-.19s.1,0,.2,0A3.72,3.72,0,0,0,8.66,23.14Z"/>
    <path class="a4e5a357-bd7d-4fed-b7cd-5fd5ecb4f65b" d="M4.47,22.72a1.19,1.19,0,0,0,.35.25c.11.06.18.12.17.15s-.1.06-.24,0a.93.93,0,0,1-.24-.06.64.64,0,0,1-.26-.21.56.56,0,0,1-.12-.33.54.54,0,0,1,0-.27.35.35,0,0,1,.12-.14s.07,0,.08,0,0,.11,0,.22A.59.59,0,0,0,4.47,22.72Z"/>
    <path class="a4e5a357-bd7d-4fed-b7cd-5fd5ecb4f65b" d="M4.14,21a.91.91,0,0,0,.16.24c0,.06.1.11.09.15s-.08.06-.19,0a.56.56,0,0,1-.32-.31.51.51,0,0,1,0-.44c.06-.1.13-.13.16-.11s0,.08,0,.16A1.51,1.51,0,0,0,4.14,21Z"/>
    <path class="a4e5a357-bd7d-4fed-b7cd-5fd5ecb4f65b" d="M7.78,26.69c.46.12.87,0,.89.11s-.08.11-.25.16a1.41,1.41,0,0,1-.71,0,1.24,1.24,0,0,1-.37-.14,1,1,0,0,1-.26-.22A.4.4,0,0,1,7,26.38c0-.05,0-.09,0-.09s0,0,.07.05a.79.79,0,0,0,.13.12l.24.12A2,2,0,0,0,7.78,26.69Z"/>
    <path class="a4e5a357-bd7d-4fed-b7cd-5fd5ecb4f65b" d="M22.09,16.83a1.24,1.24,0,0,1-.28.28,1.19,1.19,0,0,1-.15.09l-.14.06c-.17,0-.29,0-.3,0s.09-.1.22-.19l.1-.07.11-.1a2.57,2.57,0,0,0,.21-.24,3,3,0,0,0,.17-.28.78.78,0,0,0,0-.14.56.56,0,0,0,0-.12c.05-.15.07-.25.11-.25s.09.1.09.28a.76.76,0,0,1,0,.15.53.53,0,0,1,0,.17A1,1,0,0,1,22.09,16.83Z"/>
    <path class="a4e5a357-bd7d-4fed-b7cd-5fd5ecb4f65b" d="M10.55,24.83a1.61,1.61,0,0,0,.39,0l.17,0,.07,0,.07,0c.18-.06.29-.12.31-.09s0,.15-.22.27l-.07.05-.08,0-.19.07a1.65,1.65,0,0,1-.46.06,1.29,1.29,0,0,1-.45-.08L9.9,25l-.08-.05-.07,0c-.17-.13-.23-.26-.21-.28s.14,0,.31.1l.07,0,.08,0,.16.05Z"/>
    <path class="b9d1c019-af4a-4b31-b0e5-44bd6e12be33" d="M14.32,8.28a1.07,1.07,0,0,1,.34.23,1.1,1.1,0,0,1,.18.28c.07.17.05.29,0,.3s-.1-.08-.2-.2a1,1,0,0,0-.45-.34,1.15,1.15,0,0,0-.56-.07c-.15,0-.25,0-.28,0s.05-.13.22-.21a1,1,0,0,1,.32-.08A1.22,1.22,0,0,1,14.32,8.28Z"/>
    <path class="b9d1c019-af4a-4b31-b0e5-44bd6e12be33" d="M14.21,7.1a1.34,1.34,0,0,1,.32.1l.13.08a.76.76,0,0,1,.09.09c.11.12.14.22.11.24s-.11,0-.23-.08l-.09,0-.11,0-.26-.06h-.49c-.13,0-.22.05-.24,0s0-.11.17-.2l.11,0,.15,0A1,1,0,0,1,14.21,7.1Z"/>
    <path class="b9d1c019-af4a-4b31-b0e5-44bd6e12be33" d="M17.3,9.46a1.23,1.23,0,0,1,.61.51c.11.19.11.32.08.33s-.11-.08-.24-.2a1.61,1.61,0,0,0-.55-.38,1.65,1.65,0,0,0-.66-.09c-.18,0-.3,0-.31,0s.07-.13.27-.2A1.23,1.23,0,0,1,17.3,9.46Z"/>
    <path class="b9d1c019-af4a-4b31-b0e5-44bd6e12be33" d="M11.93,7.06a1,1,0,0,1,.66.17c.14.11.18.21.16.24s-.12,0-.26-.06A1.24,1.24,0,0,0,12,7.34a1.38,1.38,0,0,0-.52.17c-.12.07-.21.12-.24.1s0-.13.12-.26A.9.9,0,0,1,11.93,7.06Z"/>
    <path class="b9d1c019-af4a-4b31-b0e5-44bd6e12be33" d="M9.16,9.67a1,1,0,0,1,.31-.09h.14l.11,0c.15,0,.21.11.2.14s-.1,0-.21.06H9.62l-.1,0a1,1,0,0,0-.22.09,1,1,0,0,0-.2.13L9,10.12,9,10.19c-.08.08-.13.15-.17.14s0-.1,0-.24A.54.54,0,0,1,8.83,10a.44.44,0,0,1,.08-.11A1,1,0,0,1,9.16,9.67Z"/>
    <path class="b9d1c019-af4a-4b31-b0e5-44bd6e12be33" d="M6.48,10.87a.62.62,0,0,1,.46,0c.11.05.15.12.13.15s-.08,0-.17.05a.91.91,0,0,0-.29.08.85.85,0,0,0-.25.18c-.06.06-.1.11-.14.1s-.07-.08,0-.19A.56.56,0,0,1,6.48,10.87Z"/>
    <path class="b9d1c019-af4a-4b31-b0e5-44bd6e12be33" d="M10.54,8a.85.85,0,0,1,.52.13c.12.07.17.15.15.18s-.1,0-.22,0a1.85,1.85,0,0,0-.43,0,1.91,1.91,0,0,0-.42.07L10,8.4s0,0-.07,0,0,0,0-.08A.22.22,0,0,1,10,8.19a.6.6,0,0,1,.22-.14A1.24,1.24,0,0,1,10.54,8Z"/>
    <path class="b9d1c019-af4a-4b31-b0e5-44bd6e12be33" d="M7,11.84a.75.75,0,0,1,.55,0c.13,0,.19.13.17.16s-.1,0-.21,0a1,1,0,0,0-.39.08,1.08,1.08,0,0,0-.33.24c-.08.07-.13.14-.17.12s0-.1,0-.23A.75.75,0,0,1,7,11.84Z"/>
    <path class="b9d1c019-af4a-4b31-b0e5-44bd6e12be33" d="M7.78,9.92a.78.78,0,0,1,.26,0,.66.66,0,0,1,.21,0c.11.05.16.11.15.14s-.08,0-.18.06l-.36.08a3,3,0,0,0-.34.14c-.08.05-.15.08-.18.05s0-.1,0-.2A.71.71,0,0,1,7.54,10,.88.88,0,0,1,7.78,9.92Z"/>
    <path class="b9d1c019-af4a-4b31-b0e5-44bd6e12be33" d="M12.59,9.17a.74.74,0,0,1,.3.13.47.47,0,0,1,.17.22.28.28,0,0,1,0,.19s0,.06-.05.06-.07-.07-.15-.14a.61.61,0,0,0-.36-.18c-.34-.07-.65,0-.68-.08s.05-.1.18-.16A1,1,0,0,1,12.59,9.17Z"/>
  </g>
</svg>
