<svg id="bce0f610-4d35-4bd2-91af-cf6d4dd6fba8" data-name="Layer 1" xmlns="http://www.w3.org/2000/svg" width="72" height="68" viewBox="0 0 72 68">
  <defs>
    <style>
      .bb641944-3536-48bc-a14d-ee2a301165e7, .e9daa943-5b14-4ee0-9533-6250930de01a {
        fill: #fb7f43;
      }

      .bb641944-3536-48bc-a14d-ee2a301165e7 {
        stroke: #c63d12;
        stroke-miterlimit: 10;
      }

      .bd9b039e-877d-4127-af6f-a6518c9cd269 {
        fill: #f9673b;
      }

      .af207992-b36b-47c2-8fc6-d515ec34a5b5 {
        fill: #f98f51;
      }

      .b867587f-9db9-4c82-9eb2-73498eee7903 {
        fill: #8b5e3c;
      }

      .e3898975-89cc-4459-9829-4a5cdce517ff {
        fill: #855633;
      }

      .a3f05c1c-2fba-496c-b73a-07a2932a811a {
        fill: #a97c50;
      }

      .a0db7d00-671b-44dd-9de4-7b5aa22e3e14 {
        fill: #ffc97f;
      }
    </style>
  </defs>
  <g>
    <path class="bb641944-3536-48bc-a14d-ee2a301165e7" d="M11.64,16.07c9-10.59,24.12-12.7,33.66-10.95C57,7.26,63.86,14,66.48,27.84,68.82,40.2,65.65,54.55,49.17,61a41.74,41.74,0,0,1-20.93,1.9A28.86,28.86,0,0,1,17,58.05C1.09,51.07,2.39,26.93,11.64,16.07Z"/>
    <path class="e9daa943-5b14-4ee0-9533-6250930de01a" d="M15.43,53a38.57,38.57,0,0,1-1.83-3.77,31.67,31.67,0,0,1,.66-14.51,13.85,13.85,0,0,1,2.88-7.3A17.46,17.46,0,0,1,23.05,23a29.27,29.27,0,0,1,7-2.19c2.17-.44,4.46-.49,6.52-1.31,2.87-1.14,5.46-4.05,8.54-5.5a19.65,19.65,0,0,1,9.4-3.32c.55,0,1.8,0,2.35,0C54,8.91,50.29,6.67,46.5,6,37,4.22,20.81,5.71,11.79,16.3S2.31,52,20.23,59.46C19.71,58.51,16,54.29,15.43,53Z"/>
    <path class="bd9b039e-877d-4127-af6f-a6518c9cd269" d="M41.57,13.09c-1.23.49-2.39,1.13-3.58,1.72a17.67,17.67,0,0,1-3.57,1.34,70.37,70.37,0,0,1-7.53.93,18.9,18.9,0,0,0-3.86.86,18.5,18.5,0,0,0-3.15,1.49,20.21,20.21,0,0,0-4.94,4.18,23.39,23.39,0,0,0-3.52,5.48,21.21,21.21,0,0,0-1.17,3.08,20.45,20.45,0,0,0-.65,4.12c-.1,1.36-.13,2.73-.28,4.1A6.39,6.39,0,0,1,9,42.57c-.3.71-.13,2-.94,1.88-.26,0-.7-.81-.94-.94,1.85,6.25,5.25,12.06,12.27,15-.52-1-4.31-6.08-4.87-7.32a40.92,40.92,0,0,1-1.83-3.77,31.57,31.57,0,0,1,.67-14.52,13.69,13.69,0,0,1,2.87-7.29,17.36,17.36,0,0,1,5.91-4.49,29.41,29.41,0,0,1,7-2.19c2.17-.44,4.46-.49,6.52-1.31,2.59-1,4.95-3.49,7.65-5A13.11,13.11,0,0,0,41.57,13.09Z"/>
    <path class="af207992-b36b-47c2-8fc6-d515ec34a5b5" d="M7.7,35.17c-3.22-.28-.22-15.54,9.8-22.66C21.09,10,25.62,7.52,30,6.87c2.83-.43,11.8-1.77,11.42,4-.2,3.1-6.2,2.94-12,3.57-4.42.48-11,2.34-14.67,6.42C9.94,26.18,9.52,35.33,7.7,35.17Z"/>
    <g>
      <path class="b867587f-9db9-4c82-9eb2-73498eee7903" d="M39.33,13.23c-.14-.42-.71-.81-1-1.12-.86-.89-1.64-2.4-2.92-1.46-.46.33-1.07.59-1.33,1.18a7.54,7.54,0,0,1,.59,1.67,8.77,8.77,0,0,1,.24,1.76,5.06,5.06,0,0,0,1.81.66,3.31,3.31,0,0,0,2.45-.87A4,4,0,0,0,39.33,13.23Z"/>
      <path class="e3898975-89cc-4459-9829-4a5cdce517ff" d="M36.82,15.12a2.18,2.18,0,0,1-.45-.8A8,8,0,0,1,36.23,13a7.86,7.86,0,0,0-.74-2.46l-.1.08c-.46.33-1.07.59-1.33,1.18a7.54,7.54,0,0,1,.59,1.67,8.77,8.77,0,0,1,.24,1.76,5.06,5.06,0,0,0,1.81.66,3.92,3.92,0,0,0,1.09-.13A3,3,0,0,1,36.82,15.12Z"/>
      <path class="a3f05c1c-2fba-496c-b73a-07a2932a811a" d="M35.71,12c.52,0,1.3-.3,1.25-1a1.21,1.21,0,0,0-.13-.42,1.15,1.15,0,0,0-1.44.08c-.46.33-1.07.59-1.33,1.18h0A5.33,5.33,0,0,0,35.71,12Z"/>
    </g>
    <path class="af207992-b36b-47c2-8fc6-d515ec34a5b5" d="M16.23,34.33c1.51-14.61,15.23-10.62,24.06-16.67,4.09-2.8,8.93-4.51,15.38-.16,5.87,4,7.77,15.39,5.08,23.16C57.1,51.18,46,57.75,32.84,56.52,22.69,55.57,14.91,47.07,16.23,34.33Z"/>
    <path class="bd9b039e-877d-4127-af6f-a6518c9cd269" d="M30.46,61.47a20.59,20.59,0,0,1-13.17-7.74c-3.24-4.9-4.52-7.41-4.44-13.08.11-7.39,3.23-15.91,10.07-19,4.78-2.18,8.39-1.46,13.51-3.64,4-1.69,6.08-5.13,9.36-6.82-4.34,1.32-6.29,4.12-9.57,5.6-3.63,1.64-6.17,1.13-10.2,1.77-5.95.95-10.41,5.89-12.77,11-3.73,8-3.1,24.1,8,30.76,10.78,6.47,25.84,1,29.94-.77C42.9,61.31,35.16,62.26,30.46,61.47Z"/>
    <path class="a0db7d00-671b-44dd-9de4-7b5aa22e3e14" d="M38.52,38.31c4.64-3.21,8.19-11,3-14.13-4.57-2.76-9.48.92-15.34,2.11C18.54,27.84,18.84,37,23.54,39.73,27.19,41.86,32.85,42.24,38.52,38.31Z"/>
  </g>
</svg>
