<svg id="b343061e-9fa9-474f-8297-26d051ef302c" data-name="Layer 1" xmlns="http://www.w3.org/2000/svg" width="110" height="100" viewBox="0 0 110 100">
  <defs>
    <style>
      .bd9727c6-58df-48a8-8b77-7d78e282bbc7, .ee61e323-ae0e-4ef4-a2b9-3eb992018d7a {
        fill: #5c991d;
      }

      .a17e71b9-4f15-4583-a1ec-d5f461932cd0, .aff18871-3ab5-4485-99be-7c0e9d79bd91, .b5fcb784-825d-4fae-ae7d-1fb6e89b1846, .ee61e323-ae0e-4ef4-a2b9-3eb992018d7a {
        stroke: #4c6b00;
        stroke-miterlimit: 10;
        stroke-width: 0.5px;
      }

      .a8583b2f-bd3d-4600-83df-d5a675a86289 {
        fill: #6aab26;
      }

      .aba6e1c8-dc24-4054-a913-666b5c321e3a {
        opacity: 0.2;
      }

      .aff18871-3ab5-4485-99be-7c0e9d79bd91 {
        fill: #538a16;
      }

      .a8fb1a67-ba3c-4c7f-9b71-b2971e420778, .b5fcb784-825d-4fae-ae7d-1fb6e89b1846 {
        fill: #60a01e;
      }

      .a8ce6f59-7979-4ef1-aa21-b7decc477992 {
        opacity: 0.15;
      }

      .a17e71b9-4f15-4583-a1ec-d5f461932cd0, .ac0004ee-73da-4db6-83e0-877e77db8b37 {
        fill: #68ab24;
      }

      .e9d8bcf1-a6d2-4a5c-bcef-17707e5180f6 {
        fill: #77b828;
      }

      .e6310efc-606b-4a42-9382-2f85d52f08e0 {
        fill: #8acc39;
      }

      .b7658812-9ab4-4620-a4a5-59fc6943ea76 {
        fill: #84c732;
      }

      .f3fb3a3a-f9b2-44a0-b764-048e327788c8 {
        fill: #b5eb73;
      }

      .ac3d4206-a764-4791-9aa6-482e4a56fda3 {
        fill: #ccfc90;
      }

      .a790c751-b8a6-4e48-9da6-650e8a6703dd {
        fill: #c0f57f;
      }

      .ab9bbb1c-81b0-4014-a994-bcfd96cd20e1 {
        fill: #dfffb8;
      }

      .f7a3a4b9-08a7-4571-9086-dd05e1cfa289 {
        fill: #a7df62;
      }

      .ac85aa86-f9c0-42c6-93e7-2dfaaaae65e1 {
        fill: #b6ee70;
      }

      .b8689252-a013-43be-b7cc-80df66f5c908 {
        fill: #8fcf40;
      }

      .e6b3e91e-c191-4873-a2d7-7d1c33070a61 {
        fill: #a2de59;
      }

      .b32f86c2-3f16-4706-a049-d33b66b1c88d {
        opacity: 0.3;
      }

      .f8f627cd-5707-487e-bb5d-ad0b7bd87577 {
        fill: #7cbf2a;
      }

      .e311b633-b4be-4165-a0d3-e1c3cc1633d4 {
        fill: #8ccf3c;
      }
    </style>
  </defs>
  <g>
    <path class="ee61e323-ae0e-4ef4-a2b9-3eb992018d7a" d="M104.77,57.37a6.51,6.51,0,0,0-1.46-3.64A17,17,0,0,1,102,52.54c-.86-1.06-.81-2.88-2-3.47s-2.8.33-3.67-.6c-.37-.4-.43-1-.74-1.45-.69-1-2.24-.83-3.32-.27s-2.13,1.38-3.35,1.35l-27,21.83a75.4,75.4,0,0,0-1.51,11.88c-.08,1.6,0,3.46,1.3,4.42a4.93,4.93,0,0,0,2.45.72,84.41,84.41,0,0,0,22.45-.54A9.49,9.49,0,0,0,91,84.84a3.48,3.48,0,0,0,1.17-4.21,10.58,10.58,0,0,0,6.44-3.54,31.48,31.48,0,0,0,4.16-6.23,20.44,20.44,0,0,0,2.42-5.58C105.72,62.68,105.24,60,104.77,57.37Z"/>
    <g>
      <path class="a8583b2f-bd3d-4600-83df-d5a675a86289" d="M90.59,68.31a69.15,69.15,0,0,1-11.6,5c-3.16,1-6.56,1.43-9.57,2.87a5.3,5.3,0,0,0-.71.45c-.54.4,0,1.31.55.92,2.72-1.8,6.2-2.12,9.27-3.09A68.23,68.23,0,0,0,89.9,69.6L91,69a.26.26,0,0,0,.19,0,16.84,16.84,0,0,1,2.06-1,23.11,23.11,0,0,1,2.43-.57,22.08,22.08,0,0,0,4.55-1.19,19.7,19.7,0,0,0,4.53-2.78c0-.25,0-.5,0-.75a20.35,20.35,0,0,1-5.16,3.19A24.66,24.66,0,0,1,95,67l-.87.19a39.16,39.16,0,0,0,5.3-3.91,31.27,31.27,0,0,0,4.77-5.63q-.06-.39-.15-.78a34.08,34.08,0,0,1-3.93,4.89A42.73,42.73,0,0,1,90.59,68.31Z"/>
      <path class="a8583b2f-bd3d-4600-83df-d5a675a86289" d="M93.42,57c-4.22,2.7-8.8,5.28-12,9.23-.29.36.18.87.52.52a42.58,42.58,0,0,1,5.54-4.85c2.19-1.59,4.49-3,6.75-4.51a35.17,35.17,0,0,0,6.6-5.59l-.24-.64-.75.79A36.44,36.44,0,0,1,93.42,57Z"/>
      <path class="a8583b2f-bd3d-4600-83df-d5a675a86289" d="M81.17,79.91c-1,.31-2.08.6-3.15.82a6.4,6.4,0,0,0-1.52.47c-.75,0-1.49-.07-2.24-.14a33.08,33.08,0,0,1-3.71-.51,29,29,0,0,1-3.64-1.14c-.45-.16-.77.58-.33.78a22.1,22.1,0,0,0,6.48,1.46c.88.09,5.94.3,7.25.33,2.56.06,5.13.16,7.69.29,1.23.06,2.46.19,3.69.29l.35,0a4.19,4.19,0,0,0,.14-.47c-1-.15-2-.18-2.84-.27-2.6-.26-5.23-.39-7.84-.49l-2.89-.09a30.33,30.33,0,0,0,3.23-.9c2.41-.76,4.74-1.75,7.14-2.53,3.58-1.18,7.22-2.16,10.85-3.14.14-.2.27-.4.4-.6-3.92,1-7.81,2-11.65,3.25C86.09,78.16,83.67,79.17,81.17,79.91Z"/>
    </g>
    <path class="aba6e1c8-dc24-4054-a913-666b5c321e3a" d="M68.67,84.73a26.24,26.24,0,0,0,8.26-1.07,20.47,20.47,0,0,0,7.38-3.6A24.82,24.82,0,0,0,91,71.23c1.53-3.44,2-7.19,2.62-10.87a27.51,27.51,0,0,0,.71-5c0-.66-.08-1.72-.71-2.13a4.12,4.12,0,0,0-2-.49c-2.73-.16-5.55,0-8.3-.2L61.83,69.93a75.4,75.4,0,0,0-1.51,11.88c0,.42,0,.85,0,1.28A28,28,0,0,0,68.67,84.73Z"/>
    <path class="aff18871-3ab5-4485-99be-7c0e9d79bd91" d="M55.74,28.75a28.22,28.22,0,0,0-7.52-5.08c-4.75-2.45-9.72-4.62-15-5.25s-10.91.44-15,3.92c-1.91,1.63-3.44,3.72-5.45,5.22-1.81,1.36-4,2.22-5.57,3.85-2.35,2.43-3,6.22-2.42,9.61a29,29,0,0,0,3.93,9.43c1.34,2.32,2.8,4.9,2.32,7.57a13.16,13.16,0,0,0-.62,3.18c.2,2.8,3.84,3.88,4.91,6.46.62,1.48.29,3.27,1,4.71a6.8,6.8,0,0,0,2.86,2.52c5.07,3,5.26,7.76,20.47,7.17L64.45,50.48C62,43,61.19,34.32,55.74,28.75Z"/>
    <g>
      <path class="a8fb1a67-ba3c-4c7f-9b71-b2971e420778" d="M17.59,44.29a66.44,66.44,0,0,0,7.94,7.44,23.64,23.64,0,0,0,4.37,3c1.54.73,3.21,1.07,4.8,1.69.48.19.78-.6.34-.84-1.52-.86-3.19-1.27-4.76-2a23.63,23.63,0,0,1-4.42-3.13,75.3,75.3,0,0,1-8.17-7.71c-2.29-2.48-4.44-5.09-6.74-7.57a24.32,24.32,0,0,0-3.11-3c-.15.17-.29.35-.42.53a27.08,27.08,0,0,1,3.48,3.62c1.19,1.4,2.35,2.82,3.52,4.24a29.28,29.28,0,0,1-8.62-4c0,.21-.07.43-.1.65a26.92,26.92,0,0,0,9.35,4.05C15.88,42.35,16.72,43.33,17.59,44.29Z"/>
      <path class="a8fb1a67-ba3c-4c7f-9b71-b2971e420778" d="M22.85,32.13c1.26,4.22,3,8.44,6.64,11.07.28.21.62-.26.37-.5a20.9,20.9,0,0,1-4-5,32.2,32.2,0,0,1-2.41-6.18c-.8-2.66-1.37-5.37-1.9-8.09-.12-.62-.24-1.24-.37-1.86l-.6.34c.11.57.21,1.14.32,1.7A82.76,82.76,0,0,0,22.85,32.13Z"/>
      <path class="a8fb1a67-ba3c-4c7f-9b71-b2971e420778" d="M29.06,27.56a35.7,35.7,0,0,0,4.29,5c1.63,1.54,3.4,2.9,5.07,4.39a.35.35,0,0,0,.49-.51,57.23,57.23,0,0,0-4.61-4.2,39.54,39.54,0,0,1-4.58-4.92,31,31,0,0,1-3.88-5.66c-.27-.52-.51-1.06-.73-1.6l-.23,0q.24.64.51,1.26A31.55,31.55,0,0,0,29.06,27.56Z"/>
      <path class="a8fb1a67-ba3c-4c7f-9b71-b2971e420778" d="M17.68,58.61a46.29,46.29,0,0,1,5.85,1.07,9.56,9.56,0,0,1,3.54,1.18.37.37,0,0,0,.53-.42c-.38-1.17-2.27-1.33-3.26-1.51-1.8-.32-3.57-.78-5.4-1a31.2,31.2,0,0,0-6.48.1c-.36,0-.72.09-1.07.16,0,.16-.09.32-.13.49l.25,0A31,31,0,0,1,17.68,58.61Z"/>
    </g>
    <path class="a8ce6f59-7979-4ef1-aa21-b7decc477992" d="M36.74,25.46a97.33,97.33,0,0,0-9.25,3.9,23.36,23.36,0,0,0-8.27,6.18c-4.87,6.26-3.72,15.35-1,22.29a32.78,32.78,0,0,0,5.57,9.47,33.78,33.78,0,0,0,7.74,6.53,62.7,62.7,0,0,0,10.57,5.1L64.45,50.48C62,43,61.19,34.32,55.74,28.75a28.22,28.22,0,0,0-7.52-5.08c-1.54-.8-3.1-1.56-4.68-2.25A17.31,17.31,0,0,1,36.74,25.46Z"/>
    <path class="b5fcb784-825d-4fae-ae7d-1fb6e89b1846" d="M103.45,32.35c-.39-3.29-.79-6.64-2.3-9.65a31.07,31.07,0,0,0-3.47-5.08c-3-3.78-6-7.63-10.24-10.25S77.5,3.59,72.9,5.64a26.63,26.63,0,0,1-4.31,2c-2.58.64-5.36-.36-8,.06-2.24.37-4.12,1.71-6.25,2.43-2.65.88-5.74.81-8,2.32s-3.1,4.21-3.87,6.86a37.6,37.6,0,0,1-2,5.52L71,63.89c7.57-3.11,17-3.14,22.86-8.42a42.83,42.83,0,0,0,4.51-5.3,33.37,33.37,0,0,0,4.12-5.53C104.38,40.86,103.94,36.48,103.45,32.35Z"/>
    <g>
      <path class="ac0004ee-73da-4db6-83e0-877e77db8b37" d="M78.63,17.45a89.1,89.1,0,0,1-3.38,16.73c-.15.46.54.63.71.19A57.08,57.08,0,0,0,79.1,20.62a.24.24,0,0,0,.28-.15A32.92,32.92,0,0,1,81,16.1c.69-1.42,1.39-2.83,2-4.3a24.85,24.85,0,0,0,1.5-5.26l-.38-.16a28.62,28.62,0,0,1-1.76,5.67c-.61,1.43-1.34,2.81-2,4.2a20.56,20.56,0,0,0-1,2.46c0-.17,0-.35.05-.52.26-2.63.37-5.27.59-7.91a28.09,28.09,0,0,1,.59-4c.07-.29.15-.59.24-.88l-.57-.09a25.21,25.21,0,0,0-.85,4.27C79,12.2,78.91,14.84,78.63,17.45Z"/>
      <path class="ac0004ee-73da-4db6-83e0-877e77db8b37" d="M88.36,19.69v2.69a10.81,10.81,0,0,0,.07,2.48s0,0,0,0C86,29.14,83.75,33.6,84.38,38.67c0,.35.58.37.56,0a19,19,0,0,1,1.26-7.62,47.6,47.6,0,0,1,3.56-6.92c1.67-2.88,3.81-5.76,5.26-8.87-.17-.19-.33-.39-.49-.59C93,17.94,90.79,20.93,89,24c0-.46,0-.92,0-1.36V20a31.76,31.76,0,0,1,.34-5.07,41.23,41.23,0,0,1,1-4.67l-.32-.28A42.21,42.21,0,0,0,88.75,15,28.36,28.36,0,0,0,88.36,19.69Z"/>
      <path class="ac0004ee-73da-4db6-83e0-877e77db8b37" d="M97.74,31.77c-1.28,6-5.4,10.71-8.1,16.09a.36.36,0,0,0,0,.07l-.62.56c-.28.25.12.62.4.4a54.9,54.9,0,0,0,13.48-15.25l-.12-1.08a52.4,52.4,0,0,1-3.57,5.31,70.12,70.12,0,0,1-8.13,8.75c2.8-4.45,6-8.73,7.23-13.93.81-3.3.72-6.74,1.48-10l.18-.79c-.13-.22-.26-.43-.4-.64-.05.2-.11.4-.17.6C98.46,25.07,98.44,28.47,97.74,31.77Z"/>
      <path class="ac0004ee-73da-4db6-83e0-877e77db8b37" d="M59.49,16.07c.57.87,1.29,2.17,2.27,2.61l.07,0a27.11,27.11,0,0,0,2.75,7,.19.19,0,0,0,.24.09l-.15,2.28c0,.28.41.27.44,0A61.87,61.87,0,0,1,66,20.9a65,65,0,0,1,2.25-6.65,45.62,45.62,0,0,0,1.88-6.66l-.48.2a49.35,49.35,0,0,1-1.94,6.58A64.23,64.23,0,0,0,65.48,21a28.73,28.73,0,0,0-.63,4.34,30.67,30.67,0,0,1-3.13-10.21,58.91,58.91,0,0,1-.37-7L61,8.17a59.54,59.54,0,0,0,.28,7.2c.1.86.23,1.71.41,2.55-.21-.2-.42-.41-.61-.63A17.72,17.72,0,0,1,60,15.81c-.59-.89-1.14-1.8-1.64-2.73a21.2,21.2,0,0,1-1.5-3.36l-.35.16a24.34,24.34,0,0,0,1.33,3.25A27.7,27.7,0,0,0,59.49,16.07Z"/>
      <path class="ac0004ee-73da-4db6-83e0-877e77db8b37" d="M52.21,25.82c.24.26.61-.12.38-.38a51.7,51.7,0,0,1-5.27-7.22,40.1,40.1,0,0,1-1.94-3.88l-.33.48a37.14,37.14,0,0,0,1.66,3.49A39.27,39.27,0,0,0,52.21,25.82Z"/>
    </g>
    <path class="a8ce6f59-7979-4ef1-aa21-b7decc477992" d="M93.19,48.77C96,43.07,98,36.25,95.5,30.07a15.93,15.93,0,0,0-6.7-7.83,42.62,42.62,0,0,0-9.8-3.7,60.19,60.19,0,0,0-9.89-2.41A35.54,35.54,0,0,0,59,16.38a29.55,29.55,0,0,0-16.71,8.77L71,63.89c5-2,10.68-2.75,15.7-4.48A77.73,77.73,0,0,0,93.19,48.77Z"/>
    <path class="a8fb1a67-ba3c-4c7f-9b71-b2971e420778" d="M48.16,20.4l-.54.33a46.46,46.46,0,0,0,4,5.05c.24.27.62-.12.39-.39C50.68,23.79,49.36,22.13,48.16,20.4Z"/>
    <path class="bd9727c6-58df-48a8-8b77-7d78e282bbc7" d="M32.07,31.12c2-.74,4.26.27,5.74,1.79a30.22,30.22,0,0,1,3.52,5.29c1.29,2,2.89,3.92,3.79,6.16a18.6,18.6,0,0,1,1.11,5.69A58,58,0,0,1,41.29,77.9,30,30,0,0,1,24.31,67a14.84,14.84,0,0,1-2.72-5.09c-.71-2.63-.29-5.42-.47-8.14a68.86,68.86,0,0,0-1.49-8.14,15.43,15.43,0,0,1,.23-8.18c1-2.59,3.34-4.82,6.1-4.86a14.42,14.42,0,0,0,3.08,0C30.14,32.37,31,31.52,32.07,31.12Z"/>
    <g>
      <path class="a8583b2f-bd3d-4600-83df-d5a675a86289" d="M26.25,47.22A29.67,29.67,0,0,0,31.53,54a16.35,16.35,0,0,0,7.65,4.24l.19,0a.31.31,0,0,0,.16-.6,23.12,23.12,0,0,1-7.62-4.31,28.85,28.85,0,0,1-5.3-6.78c-1.51-2.52-2.78-5.17-4.08-7.8-.53-1.08-1.07-2.18-1.63-3.26-.12.17-.24.35-.35.53.54,1,1.07,2.1,1.58,3.16C23.44,41.92,24.73,44.63,26.25,47.22Z"/>
      <path class="a8583b2f-bd3d-4600-83df-d5a675a86289" d="M32.28,56.71A24.89,24.89,0,0,1,38.66,61a.32.32,0,0,0,.45-.45c-3.34-3.74-8.21-5.21-12.6-7.31a23.94,23.94,0,0,1-6.08-3.84l.21,1a24.18,24.18,0,0,0,4.86,3.14C27.72,54.7,30,55.62,32.28,56.71Z"/>
      <path class="a8583b2f-bd3d-4600-83df-d5a675a86289" d="M26.94,64a26,26,0,0,1,2.57-1.32.21.21,0,0,0,.15-.18l.79-.07a31.67,31.67,0,0,1,5.06-.16c.26,0,.3-.38.06-.45a12,12,0,0,0-4.63,0A23.74,23.74,0,0,1,26.1,62a22.86,22.86,0,0,1-4.7-.92l.09.47a23.16,23.16,0,0,0,3.88.86,20.93,20.93,0,0,0,3.05.16c-.32.15-.63.35-1,.54a9.43,9.43,0,0,1-2.9,1.09,12.93,12.93,0,0,1-2,.24l.27.48c.46,0,.91-.07,1.37-.14A9.79,9.79,0,0,0,26.94,64Z"/>
      <path class="a8583b2f-bd3d-4600-83df-d5a675a86289" d="M31.52,38.32c3.64,2.67,8.41,3.61,11.4,7.17.2.24.61-.08.43-.32-2.63-3.52-7-4.61-10.55-6.8a14.35,14.35,0,0,1-4.6-4.7c-.2-.31-.41-.63-.61-1l-.7-.05c.15.27.31.54.47.8A15.69,15.69,0,0,0,31.52,38.32Z"/>
    </g>
    <path class="a8ce6f59-7979-4ef1-aa21-b7decc477992" d="M37.55,32.66c-1,3.4-3.15,6.38-5.17,9.23-2.59,3.66-5,7.39-5.5,12A25.1,25.1,0,0,0,28.94,66a29,29,0,0,0,4.9,8.08A25.42,25.42,0,0,0,35.68,76a29.86,29.86,0,0,0,5.61,1.89,58,58,0,0,0,4.94-27.85,18.6,18.6,0,0,0-1.11-5.69c-.9-2.24-2.5-4.12-3.79-6.16a30.22,30.22,0,0,0-3.52-5.29Z"/>
    <g>
      <path class="a8fb1a67-ba3c-4c7f-9b71-b2971e420778" d="M28.15,49c-.1.24-.2.48-.29.72A26.26,26.26,0,0,0,31.53,54a16.35,16.35,0,0,0,7.65,4.24l.19,0a.31.31,0,0,0,.16-.6,23.12,23.12,0,0,1-7.62-4.31A25.23,25.23,0,0,1,28.15,49Z"/>
      <path class="a8fb1a67-ba3c-4c7f-9b71-b2971e420778" d="M26.88,53.86c0,.12,0,.24,0,.36,1.8.85,3.64,1.62,5.43,2.49A24.89,24.89,0,0,1,38.66,61a.32.32,0,0,0,.45-.45c-3.23-3.62-7.9-5.12-12.19-7.11C26.91,53.59,26.89,53.73,26.88,53.86Z"/>
      <path class="a8fb1a67-ba3c-4c7f-9b71-b2971e420778" d="M28.42,62.57l-.6.32c.06.19.12.37.17.56a8,8,0,0,1,1.52-.75.21.21,0,0,0,.15-.18l.79-.07a31.67,31.67,0,0,1,5.06-.16c.26,0,.3-.38.06-.45a12,12,0,0,0-4.63,0,29.13,29.13,0,0,1-3.35.22c.05.17.09.34.14.51Z"/>
      <path class="a8fb1a67-ba3c-4c7f-9b71-b2971e420778" d="M33.87,39.78c3.16,1.7,6.67,2.88,9.05,5.71.2.24.61-.08.43-.32-2.28-3.05-5.83-4.28-9.08-6Z"/>
    </g>
    <path class="ac0004ee-73da-4db6-83e0-877e77db8b37" d="M22.82,63.09a43.32,43.32,0,0,1-.14-6.24A40.84,40.84,0,0,0,22,50.23c-.56-3.26-1.35-6.59-.81-9.9.44-2.65,1.83-5.28,4.57-6.1,1.71-.51,3.52-.44,5-1.59A19.24,19.24,0,0,0,32.37,31l-.3.09c-1.06.4-1.93,1.25-3,1.51a14.42,14.42,0,0,1-3.08,0c-2.76,0-5.14,2.27-6.1,4.86a15.43,15.43,0,0,0-.23,8.18,68.86,68.86,0,0,1,1.49,8.14c.18,2.72-.24,5.51.47,8.14a13.41,13.41,0,0,0,2.08,4.22A13.16,13.16,0,0,1,22.82,63.09Z"/>
    <g>
      <path class="e9d8bcf1-a6d2-4a5c-bcef-17707e5180f6" d="M22,37.68c-.35-.72-.71-1.43-1.08-2.15-.12.17-.24.35-.35.53.39.76.78,1.52,1.15,2.29C21.79,38.12,21.88,37.9,22,37.68Z"/>
      <path class="e9d8bcf1-a6d2-4a5c-bcef-17707e5180f6" d="M22.08,50.75a16.26,16.26,0,0,1-1.65-1.33l.21,1a17,17,0,0,0,1.58,1.22C22.17,51.34,22.13,51,22.08,50.75Z"/>
      <path class="e9d8bcf1-a6d2-4a5c-bcef-17707e5180f6" d="M23.09,64.41c-.16,0-.32,0-.49,0l.27.48.35,0C23.17,64.73,23.13,64.57,23.09,64.41Z"/>
      <path class="e9d8bcf1-a6d2-4a5c-bcef-17707e5180f6" d="M22.66,61.43c-.42-.1-.84-.22-1.26-.35l.09.47c.4.13.8.24,1.2.34Z"/>
      <path class="e9d8bcf1-a6d2-4a5c-bcef-17707e5180f6" d="M27.58,33.83l.64-.13,0,0c-.2-.31-.41-.63-.61-1l-.7-.05c.15.27.31.54.47.8S27.51,33.71,27.58,33.83Z"/>
    </g>
    <path class="a17e71b9-4f15-4583-a1ec-d5f461932cd0" d="M68.06,75.7c-4.28-3.83-10.85-3.41-16-5.89L39.55,68.15c-4,.16-8.15.7-11.35,3.06s-5,7.08-2.9,10.48a12.27,12.27,0,0,0,2.44,2.65l7.89,7a14.92,14.92,0,0,0,3.73,2.7,15,15,0,0,0,5.09,1c6,.44,12.22.79,18-1.1a14.4,14.4,0,0,0,6.75-4.28A10.54,10.54,0,0,0,68.06,75.7Z"/>
    <path class="ac0004ee-73da-4db6-83e0-877e77db8b37" d="M64.7,18.08a8.65,8.65,0,0,1,3.77,1.45A27.79,27.79,0,0,1,80,52.84c-.86,2.34-2.15,4.69-4.33,5.91-3.43,1.94-7.67.48-11.47-.56A97.49,97.49,0,0,0,52.32,56L34.69,53.39q-.69-7.85-.83-15.71a23,23,0,0,1,.87-8.19c.93-2.6,3-5,5.65-5.58a13.05,13.05,0,0,0,2.72-.59,9.51,9.51,0,0,0,2.48-2.19,10.12,10.12,0,0,1,8.48-2.79,28.32,28.32,0,0,0,4.52.78C60.65,19.08,62.62,17.94,64.7,18.08Z"/>
    <g>
      <path class="e9d8bcf1-a6d2-4a5c-bcef-17707e5180f6" d="M47.63,26.64a16.41,16.41,0,0,0,3,1.75,20.22,20.22,0,0,1,3.42,2.07,22.13,22.13,0,0,1,.55,2.38,7.29,7.29,0,0,1-.4,4.68c-.19.34.3.76.57.43a5.51,5.51,0,0,0,.84-4.23,19.19,19.19,0,0,0-1.35-4.86,54.88,54.88,0,0,0-2.9-5.79c-.74-1.37-1.21-2.9-1.86-4.32-.15,0-.3.1-.44.15.48,1.26.91,2.55,1.48,3.78.92,2,2.07,3.8,2.86,5.84.14.36.27.74.4,1.11-1.47-1.38-3.58-1.94-5.28-3a12.18,12.18,0,0,1-4-4.38,3.51,3.51,0,0,1-.34.33A13.21,13.21,0,0,0,47.63,26.64Z"/>
      <path class="e9d8bcf1-a6d2-4a5c-bcef-17707e5180f6" d="M46.45,40.75a.34.34,0,0,0,.65-.18,10.69,10.69,0,0,0-2.28-4.26c-1.07-1.39-2.27-2.68-3.44-4a34.79,34.79,0,0,1-4.44-6.42l-.34.37a31,31,0,0,0,3.64,5.67C42.49,34.75,45.18,37.29,46.45,40.75Z"/>
      <path class="e9d8bcf1-a6d2-4a5c-bcef-17707e5180f6" d="M62.47,25.56a55,55,0,0,0-2.14,6.26,17.23,17.23,0,0,0-.67,6.3.35.35,0,0,0,.7,0,36.64,36.64,0,0,1,.81-6.6,47.7,47.7,0,0,1,2-6.28A31.1,31.1,0,0,0,65,19.12c0-.32.1-.65.14-1a3.62,3.62,0,0,0-.46-.06h0c-.06.47-.13.93-.22,1.39A33.39,33.39,0,0,1,62.47,25.56Z"/>
      <path class="e9d8bcf1-a6d2-4a5c-bcef-17707e5180f6" d="M42.56,42.14a.29.29,0,0,0,.55-.15,12.24,12.24,0,0,0-4.51-6.73c-1.38-1.06-3-1.79-4.4-2.81l-.14-.1c0,.19-.05.38-.07.58,1.07.86,2.3,1.52,3.44,2.28A13.6,13.6,0,0,1,42.56,42.14Z"/>
      <path class="e9d8bcf1-a6d2-4a5c-bcef-17707e5180f6" d="M61,38.26a.33.33,0,0,0,.66,0,25.32,25.32,0,0,1,1.2-5.77,30.28,30.28,0,0,1,3-5.48,50.43,50.43,0,0,0,3.4-7L69,19.86a52.73,52.73,0,0,1-3.87,7.32C63,30.44,60.73,34.19,61,38.26Z"/>
    </g>
    <path class="a8ce6f59-7979-4ef1-aa21-b7decc477992" d="M67.89,31.31a28.84,28.84,0,0,0-12.22-1,25.65,25.65,0,0,0-10.75,3.16c-5.21,3.11-8.27,8.37-10.69,13.77.13,2.07.28,4.13.46,6.2L52.32,56A97.49,97.49,0,0,1,64.2,58.19c3.8,1,8,2.5,11.47.56,2.18-1.22,3.47-3.57,4.33-5.91a27.44,27.44,0,0,0,1.68-8.5C78.34,38.83,74.1,33.5,67.89,31.31Z"/>
    <path class="e9d8bcf1-a6d2-4a5c-bcef-17707e5180f6" d="M84.55,26.88a6.65,6.65,0,0,0,2.27,0A4,4,0,0,1,90.05,29a34.82,34.82,0,0,1,4.31,24.73c-.21,1.08-1.07,1.91-1.61,2.88-1.46,2.62-1.32,5.89-2.71,8.55-1.68,3.22-8,10.92-17,12.4-3.59.58-5.77-4.51-5.89-5.81-.28-3.07,0-6.16,0-9.24a49.9,49.9,0,0,0-1.89-13.36,7.85,7.85,0,0,1-.46-2.83,7.28,7.28,0,0,1,.6-2l3.74-9.13a24.67,24.67,0,0,1,2.55-5,12.32,12.32,0,0,1,9.25-5,3.43,3.43,0,0,1,1.85.3C83.39,25.85,83.82,26.61,84.55,26.88Z"/>
    <g>
      <path class="e6310efc-606b-4a42-9382-2f85d52f08e0" d="M80.45,30.63c-.16,2.65.16,5.3-.11,7.94l-.18.75a53.4,53.4,0,0,1-2.92,9,79.57,79.57,0,0,1-4.12,7.53c-.36.63.5,1.33,1,.78a24.68,24.68,0,0,0,4.33-7.07,48.19,48.19,0,0,0,2.82-9.1c.66-3.18,1.14-6.36,2-9.51a26.57,26.57,0,0,1,1.4-4l-.15-.05a1.77,1.77,0,0,1-.31-.15A27.65,27.65,0,0,0,82.76,30a44.69,44.69,0,0,0-1.64,5.36c0-1.39-.13-2.79-.09-4.15a36.53,36.53,0,0,1,.6-5.11c.05-.29.11-.57.17-.86a5.44,5.44,0,0,0-.57,0l-.15.74A34.23,34.23,0,0,0,80.45,30.63Z"/>
      <path class="e6310efc-606b-4a42-9382-2f85d52f08e0" d="M74.62,36.27a36.54,36.54,0,0,1-3.55,14.18c-.21.46.42.86.69.41A29,29,0,0,0,75.48,37c.1-2.52-.1-5,0-7.56a18.21,18.21,0,0,1,.39-2.94l-.67.38A18.05,18.05,0,0,0,74.91,29C74.62,31.39,74.73,33.83,74.62,36.27Z"/>
      <path class="e6310efc-606b-4a42-9382-2f85d52f08e0" d="M81.38,49.65c-1.93,2.52-3.9,5-5.8,7.56-.27.37.34.83.63.48,2-2.4,3.92-4.86,5.83-7.35s3.8-5,5.52-7.56a36.69,36.69,0,0,0,4.46-10c-.12-.26-.23-.51-.35-.74a39.42,39.42,0,0,1-4.81,10.32C85.16,44.88,83.23,47.24,81.38,49.65Z"/>
      <path class="e6310efc-606b-4a42-9382-2f85d52f08e0" d="M76.65,65.32c-.31.28.1.8.45.58,3.06-2,6.77-2.47,9.89-4.34a35.8,35.8,0,0,0,5.43-4.25c.1-.23.21-.45.33-.67a10.55,10.55,0,0,1,.69-1A52.79,52.79,0,0,1,86.37,61C83.3,62.75,79.37,63,76.65,65.32Z"/>
    </g>
    <path class="a8ce6f59-7979-4ef1-aa21-b7decc477992" d="M73,77.59A22,22,0,0,0,81.75,74a32.72,32.72,0,0,0,2.48-4.82,25.5,25.5,0,0,0-1-21.44C80.38,42.6,72.9,37.32,67,40.34l-1.66,4a7.28,7.28,0,0,0-.6,2,7.85,7.85,0,0,0,.46,2.83,49.9,49.9,0,0,1,1.89,13.36c0,3.08-.25,6.17,0,9.24C67.23,73.08,69.41,78.17,73,77.59Z"/>
    <path class="b7658812-9ab4-4620-a4a5-59fc6943ea76" d="M90.05,29a92,92,0,0,1,1.11,17.51c.08,4.1-1.66,8.43-2.71,12.4a27.08,27.08,0,0,1-4.53,9.89A22.84,22.84,0,0,1,77,74.66a42.68,42.68,0,0,1-5.91,2.72,3.43,3.43,0,0,0,1.87.21c9.08-1.48,15.36-9.18,17-12.4,1.39-2.66,1.25-5.93,2.71-8.55.54-1,1.4-1.8,1.61-2.88A34.82,34.82,0,0,0,90.05,29Z"/>
    <g>
      <path class="e9d8bcf1-a6d2-4a5c-bcef-17707e5180f6" d="M47.68,91.24A10.32,10.32,0,0,0,47,87.81c-.24-.65-.51-1.28-.72-1.94s-.19-1.25-.39-1.85l0,0c.24-.83.48-1.66.75-2.48a18.6,18.6,0,0,1,1-2.43,12.52,12.52,0,0,0,1.31-2.26c.09-.32-.24-.73-.59-.59-1.48.59-2.17,2.86-2.63,4.25-.6,1.78-1,3.62-1.39,5.44-.72,3.09-1.78,6.2-4.23,8.15l.45.15c2.26-1.71,3.5-4.38,4.4-7.14.15-.46.29-.93.43-1.39.16.53.39,1,.56,1.47a13.17,13.17,0,0,1,1,3.56,17.25,17.25,0,0,1-.07,4.24l.57,0A19,19,0,0,0,47.68,91.24Z"/>
      <path class="e9d8bcf1-a6d2-4a5c-bcef-17707e5180f6" d="M53.93,87.38c-.58-1.67-1.29-3.29-1.85-5a18.62,18.62,0,0,1-.67-2.54A9.5,9.5,0,0,0,51,77.41a.59.59,0,0,0-1,0,3.41,3.41,0,0,0-.13,2.19,15.66,15.66,0,0,0,.56,2.51c.52,1.7,1.31,3.31,2,5a22.22,22.22,0,0,1,1.45,5,15.21,15.21,0,0,1,.17,3l.79,0A17.57,17.57,0,0,0,53.93,87.38Z"/>
      <path class="e9d8bcf1-a6d2-4a5c-bcef-17707e5180f6" d="M64.05,86.22c.94.44,1.9.82,2.79,1.34a7.36,7.36,0,0,1,2,1.7c.11-.14.21-.28.31-.43a7.75,7.75,0,0,0-1.64-1.44,24.79,24.79,0,0,0-4.36-2.21,37.5,37.5,0,0,1-2.48-2.87A28.39,28.39,0,0,0,57.45,78c-.36-.33-1,.11-.69.53,1,1.36,1.87,2.77,2.84,4.12a34.44,34.44,0,0,0,3.23,3.6A11.81,11.81,0,0,1,65.76,92c.22-.14.44-.28.65-.43a12,12,0,0,0-2.3-5.3Z"/>
      <path class="e9d8bcf1-a6d2-4a5c-bcef-17707e5180f6" d="M36.78,80.42c3.4-2.59,7.4-5.26,9.15-9.32a.41.41,0,0,0-.71-.41A23.74,23.74,0,0,1,41,75.8c-1.65,1.5-3.45,2.82-5.19,4.21A27,27,0,0,0,30,85.92l.56.49A28.62,28.62,0,0,1,36.78,80.42Z"/>
      <path class="e9d8bcf1-a6d2-4a5c-bcef-17707e5180f6" d="M41.33,72.24a.32.32,0,0,0-.18-.62c-2.64.62-5.28,1.27-7.92,1.91-1.53-.24-3.08-.36-4.63-.53l-1.46-.13c-.14.16-.27.32-.4.49l1.61.17c1.07.12,2.14.29,3.21.4l-.27.07c-1.95.46-3.9,1-5.79,1.58-.09.22-.16.44-.23.66,2-.6,4.12-1.09,6.21-1.53A57.49,57.49,0,0,0,41.33,72.24Z"/>
    </g>
    <path class="aba6e1c8-dc24-4054-a913-666b5c321e3a" d="M35.83,76.34a17.77,17.77,0,0,0,4.61,6.45c2.87,2.3,6.73,3.24,10.33,3.57s7.53.25,10.93-1.15a17.86,17.86,0,0,0,8.12-7.37,9.47,9.47,0,0,0-1.76-2.14c-4.28-3.83-10.85-3.41-16-5.89L39.55,68.15a29.21,29.21,0,0,0-7.22,1C33.68,71.48,34.69,73.94,35.83,76.34Z"/>
    <path class="f3fb3a3a-f9b2-44a0-b764-048e327788c8" d="M79.14,50.43C76,36.91,59.29,30.05,46.78,35,32.42,40.58,28.9,52.49,30.43,63.5c2,14.38,18.16,22.56,31.79,18.79C76.48,78.35,82.29,64,79.14,50.43Z"/>
    <path class="ac3d4206-a764-4791-9aa6-482e4a56fda3" d="M62,72.42a22.93,22.93,0,0,0,1.63-2.83,6.11,6.11,0,0,1,.38-.65,15.65,15.65,0,0,1,5.73-1.34,46.8,46.8,0,0,0,5.64-.85,27.28,27.28,0,0,0,3.52-1c.1-.35.19-.7.28-1A28.26,28.26,0,0,1,74.44,66c-1.93.37-3.87.63-5.82.85a13.93,13.93,0,0,0-3.64.78c.57-.65,1.19-1.25,1.82-1.84A40.59,40.59,0,0,0,73,58.94a15.32,15.32,0,0,0,2.69-8.78,80.25,80.25,0,0,0-.76-8c-.28-.34-.57-.67-.88-1,0,2.84.66,5.67.79,8.5a13.59,13.59,0,0,1-2.76,9,3.92,3.92,0,0,1-.25.32A13.07,13.07,0,0,0,72,55.76c-.09-2-.45-3.92-.73-5.85-.6-4.11-1.38-8.22-1.58-12.37l-.51-.32A99.35,99.35,0,0,0,70.41,49c.28,1.94.57,3.88.76,5.82a16.6,16.6,0,0,1,.06,2.73,16.83,16.83,0,0,1-.64,2.83v.07c-1.54,1.7-3.28,3.23-5,4.77a15.77,15.77,0,0,0-3,3.52c-.18.3-.36.61-.53.92,0-2.62-.11-5.25-.3-7.86,0-.49-.08-1-.13-1.47A38.11,38.11,0,0,1,64.4,54a16.92,16.92,0,0,0,2-7.58c0-4-1.49-7.69-2.25-11.54l-.68-.22c.58,3.86,2.09,7.6,2.18,11.54A16.07,16.07,0,0,1,63.48,54a31.79,31.79,0,0,0-2,4.41A39.94,39.94,0,0,0,59.84,51c-.25-.74-.51-1.48-.78-2.21.27-1.53.4-3.11.6-4.65a30.39,30.39,0,0,0,.2-5.48,9.59,9.59,0,0,0-1.27-4.3l-.52-.88-.73-.06a1.62,1.62,0,0,0,.1.18c.32.61.67,1.2,1,1.81a8.7,8.7,0,0,1,.69,2.74A25.56,25.56,0,0,1,59,43.64c-.12,1.17-.4,2.38-.56,3.59-1.89-4.61-4.28-9-6.1-13.67l-.63.09c.87,2.63,1.92,5.2,3,7.77a5.42,5.42,0,0,0-1.3-.64,23.25,23.25,0,0,1-2.87-1.21,19.63,19.63,0,0,1-5.06-4l-.8.37A21.32,21.32,0,0,0,49.46,40a14.66,14.66,0,0,0,2.74,1.31,6.41,6.41,0,0,1,2.6,1.28.32.32,0,0,0,.34.08,75.45,75.45,0,0,1,3.47,10,14.59,14.59,0,0,1-5.75-2.28,58.2,58.2,0,0,1-5.69-3.88c-2.92-2.23-5.72-4.61-8.75-6.65l-.35.3c3.17,2.24,6.07,4.85,9.14,7.22a59.43,59.43,0,0,0,5.87,4c.55.33,1.13.66,1.74,1a38.67,38.67,0,0,1-5.69-.49,19.1,19.1,0,0,1-5.63-2c-3.15-1.66-5.93-3.93-8.9-5.88l-.32.45c3.08,2.1,5.93,4.53,9.23,6.28,4,2.09,8.33,2.48,12.74,2.47a.4.4,0,0,0,.28-.11,7.92,7.92,0,0,0,2.28.43v0a55.92,55.92,0,0,1,1,10.34,62.9,62.9,0,0,1-.12,8.35,64.86,64.86,0,0,0-4.78-4.48c-2.74-2.65-5.63-5.15-8.2-8S42,54.06,39.3,51.55A56,56,0,0,0,33,46.6c-.09.18-.19.35-.27.53a68.63,68.63,0,0,1,6.08,4.94,68.16,68.16,0,0,1,7,8.26,103.1,103.1,0,0,0,7.44,8.33c1.86,1.92,4.34,3.59,5.74,5.91.15.14.27.27.38.39A19.42,19.42,0,0,1,55.8,83.2,29.05,29.05,0,0,0,58.74,83a18.69,18.69,0,0,0,1.41-2.7A25.83,25.83,0,0,0,62,72.42Z"/>
    <path class="a790c751-b8a6-4e48-9da6-650e8a6703dd" d="M48.7,39.35c-1,2.76-.13,5.69,1.46,8a22.63,22.63,0,0,0,6.65,6.24A21.75,21.75,0,0,0,65,57,12.08,12.08,0,0,0,74.37,55a7,7,0,0,0,2.87-6.92,16.6,16.6,0,0,0-2.35-6.06,25.88,25.88,0,0,0-20-8.68A11.29,11.29,0,0,0,48.7,39.35Z"/>
    <g>
      <path class="ab9bbb1c-81b0-4014-a994-bcfd96cd20e1" d="M57.34,33.45a1.62,1.62,0,0,0,.1.18c.32.61.67,1.2,1,1.81a8.7,8.7,0,0,1,.69,2.74A25.56,25.56,0,0,1,59,43.64c-.12,1.17-.4,2.38-.56,3.59-1.76-4.28-3.94-8.39-5.7-12.67-.19.13-.39.27-.57.41.76,2.17,1.63,4.31,2.5,6.45a5.42,5.42,0,0,0-1.3-.64,23.25,23.25,0,0,1-2.87-1.21A15.21,15.21,0,0,1,49,38.66c-.11.23-.2.45-.29.69,0,0,0,.07,0,.11.26.18.53.35.8.51a14.66,14.66,0,0,0,2.74,1.31,6.41,6.41,0,0,1,2.6,1.28.32.32,0,0,0,.34.08,75.45,75.45,0,0,1,3.47,10,14.59,14.59,0,0,1-5.75-2.28l-.51-.31a25.09,25.09,0,0,0,3.73,3.09h.17a.4.4,0,0,0,.28-.11,7.92,7.92,0,0,0,2.28.43v0c.11.48.21,1,.3,1.46.63.32,1.27.62,1.93.88A37.2,37.2,0,0,0,59.84,51c-.25-.74-.51-1.48-.78-2.21.27-1.53.4-3.11.6-4.65a30.39,30.39,0,0,0,.2-5.48,9.59,9.59,0,0,0-1.27-4.3l-.52-.88Z"/>
      <path class="ab9bbb1c-81b0-4014-a994-bcfd96cd20e1" d="M74.37,55a9.85,9.85,0,0,0,.78-.67,16.76,16.76,0,0,0,.56-4.21,79.16,79.16,0,0,0-.75-8l-.06-.11c-.27-.31-.54-.62-.83-.92,0,2.84.66,5.67.79,8.5a13.79,13.79,0,0,1-.9,5.68Z"/>
      <path class="ab9bbb1c-81b0-4014-a994-bcfd96cd20e1" d="M72,56.36c0-.21,0-.41,0-.6-.09-2-.45-3.92-.73-5.85-.6-4.11-1.38-8.22-1.58-12.37l-.51-.32A99.35,99.35,0,0,0,70.41,49c.28,1.94.57,3.88.76,5.82a17.88,17.88,0,0,1,.09,1.79C71.52,56.55,71.77,56.46,72,56.36Z"/>
      <path class="ab9bbb1c-81b0-4014-a994-bcfd96cd20e1" d="M63.48,54c-.41.79-.81,1.56-1.18,2.34l.84.25c.4-.86.83-1.72,1.26-2.57a16.92,16.92,0,0,0,2-7.58c0-4-1.49-7.69-2.25-11.54l-.68-.22c.58,3.86,2.09,7.6,2.18,11.54A16.07,16.07,0,0,1,63.48,54Z"/>
    </g>
    <path class="f7a3a4b9-08a7-4571-9086-dd05e1cfa289" d="M79.81,54.5c-.45.67-1,1.28-1.43,1.94-1.27,1.75-2.31,3.66-3.58,5.42-1.11,1.55-2,3.23-3.23,4.72A11.47,11.47,0,0,1,67.2,70l-1.3.6c-.89.62-1.84,1.13-2.78,1.68s-2.25,1.46-3.36,1.06c-2-.73-2.67-3.47-3.06-5.3-.43-2-.54-4.14-.91-6.2v0a10.5,10.5,0,0,0-2.62-3.9,18.22,18.22,0,0,0-4.1-2.79,31.79,31.79,0,0,1-4.27-2.29c-2.12-1.57-2.45-4-2.69-6.48-.26-2.63-2.53-4.27-3.61-6.53C31.07,46,29.25,55,30.43,63.5c2,14.38,18.16,22.56,31.79,18.79C75.06,78.74,81,66.73,79.81,54.5Z"/>
    <g>
      <path class="ac85aa86-f9c0-42c6-93e7-2dfaaaae65e1" d="M38.61,40l-.19-.13-.35.3c.38.27.76.54,1.13.82A8.33,8.33,0,0,1,38.61,40Z"/>
      <path class="ac85aa86-f9c0-42c6-93e7-2dfaaaae65e1" d="M71.7,66.42a1.83,1.83,0,0,0-.13.16,8.82,8.82,0,0,1-.8.91,43.74,43.74,0,0,0,4.56-.74,27.28,27.28,0,0,0,3.52-1c.1-.35.19-.7.28-1A28.26,28.26,0,0,1,74.44,66C73.53,66.14,72.61,66.29,71.7,66.42Z"/>
    </g>
    <path class="b8689252-a013-43be-b7cc-80df66f5c908" d="M64.17,78.92c-3.53-.53-6.42-3.33-8.08-6.35a11.17,11.17,0,0,1-1.39-5.3c-.05-2-.08-4.15-1.43-5.79-1.74-2.11-4.22-3.37-6.54-4.72-2.17-1.27-4.54-2.72-5.75-5a6.84,6.84,0,0,1-.88-3.87c.12-.81.62-1.74.3-2.55a15.68,15.68,0,0,0-1.17-1.75c-.58-1-1.62-2.4-1.61-3.62-7.2,6.26-8.35,15.19-7.19,23.55,2,14.38,18.16,22.56,31.79,18.79a23.2,23.2,0,0,0,12.84-8.77C72.34,76.93,68.82,79.63,64.17,78.92Z"/>
    <g>
      <path class="e6b3e91e-c191-4873-a2d7-7d1c33070a61" d="M35.5,71.64A19.28,19.28,0,0,1,38,61.17a14.69,14.69,0,0,1,3.22-4.05,20.91,20.91,0,0,1,2.82-2,6.41,6.41,0,0,1-.52-.39A18.57,18.57,0,0,0,41,56.55a15.6,15.6,0,0,0-3.5,4.3,25.71,25.71,0,0,0-2.13,5.32,18.68,18.68,0,0,0-.54,2.37,34.19,34.19,0,0,1-.16-7.5,22.7,22.7,0,0,1,2.15-8.2c1.13-2.41,2.49-4.7,3.69-7.07a2.33,2.33,0,0,0-.1-.44A84.68,84.68,0,0,0,36,52.64a23,23,0,0,0-2.25,8.16l-.06.66c-.13-1.07-.28-2.13-.5-3.17-.31-1.46-.79-2.9-1.13-4.36a25.68,25.68,0,0,1-.71-4.59c-.14.42-.27.84-.39,1.27.09.86.22,1.72.38,2.57.28,1.52.67,3,1.09,4.49.52,1.83.48,3.77,1,5.57a.19.19,0,0,0,.11.12A28.69,28.69,0,0,0,35,73.82a23.65,23.65,0,0,0,2.32,2.48,34.45,34.45,0,0,1-1.77-4.65Z"/>
      <path class="e6b3e91e-c191-4873-a2d7-7d1c33070a61" d="M44.45,73.39a5.84,5.84,0,0,1,.49-1.46,7,7,0,0,1,1.2-1.46c.81-.83,1.63-1.61,2.38-2.5A33.7,33.7,0,0,0,53,61.19l-.32-.35a49,49,0,0,1-5.11,7.27c-.76.88-1.67,1.63-2.43,2.52a7.17,7.17,0,0,0-.51.66c.07-.69.16-1.37.26-2.05a12.39,12.39,0,0,1,2.56-5.75,46.19,46.19,0,0,0,3.24-4.31L50.47,59c-2.15,3.15-5.19,5.72-5.93,9.63-.48,2.53-.75,5.1-1.15,7.65-.2,1.27-.45,2.53-.76,3.78l.78.39a47.07,47.07,0,0,0,1-7S44.45,73.4,44.45,73.39Z"/>
      <path class="e6b3e91e-c191-4873-a2d7-7d1c33070a61" d="M51.63,74.25c-1.5,2.28-3.14,4.66-3.51,7.43-.06.44.58.65.69.19a24.57,24.57,0,0,1,3.54-7.21c1-1.58,1.8-3.26,2.65-4.91-.08-.34-.14-.69-.19-1-.35.64-.69,1.28-1,1.94A39.76,39.76,0,0,1,51.63,74.25Z"/>
    </g>
    <path class="b32f86c2-3f16-4706-a049-d33b66b1c88d" d="M64.17,78.92a11,11,0,0,1-6.87-4.49,13.39,13.39,0,0,1-2.27.64,21.45,21.45,0,0,1-4.87.3,37.79,37.79,0,0,1-5.72-.64,16.58,16.58,0,0,1-5-1.7,14.55,14.55,0,0,1-3.35-2.65,23.08,23.08,0,0,1-4.57-7.55A37.13,37.13,0,0,1,30,58.23a40.37,40.37,0,0,0,.39,5.27c2,14.38,18.16,22.56,31.79,18.79a23.2,23.2,0,0,0,12.84-8.77C72.34,76.93,68.82,79.63,64.17,78.92Z"/>
    <path class="f8f627cd-5707-487e-bb5d-ad0b7bd87577" d="M66,71.92c7.85-2.55,11.16-10.25,14-18.73A23.79,23.79,0,0,1,70,80.46c-9.44,5.7-20.12,4.84-30-.23,2.58-3.72,8.77-2.87,12.4-2.36,7,1,8-4.11,13.61-6Z"/>
    <g>
      <path class="e311b633-b4be-4165-a0d3-e1c3cc1633d4" d="M71.58,74a12.82,12.82,0,0,0,.64-4A9,9,0,0,0,72,68.29c-.16.16-.33.31-.5.46,0,.25.07.49.09.74a10,10,0,0,1-.75,4.36,21.09,21.09,0,0,1-2,3.6c-.16.25-.32.49-.47.74l0-.61a19,19,0,0,0-.85-6.27l-.54.24a19,19,0,0,1-1,10.9c.64-.26,1.27-.54,1.89-.85.08-.26.14-.52.2-.78C69.18,78.5,70.78,76.48,71.58,74Z"/>
      <path class="e311b633-b4be-4165-a0d3-e1c3cc1633d4" d="M77.54,67.54a27,27,0,0,1-.62,4.81,23.18,23.18,0,0,1-.73,2.5,22.73,22.73,0,0,0,1.69-2.53,25.45,25.45,0,0,0-.7-11.72l-.3.64A23.77,23.77,0,0,1,77.54,67.54Z"/>
      <path class="e311b633-b4be-4165-a0d3-e1c3cc1633d4" d="M47.62,79c-.32-.48-.75-1-1.11-1.53l-.47,0c.25.44.54.86.79,1.27a27.5,27.5,0,0,0,2.44,3.7A10.86,10.86,0,0,0,50.9,84q1,.17,2,.27a11.82,11.82,0,0,1-2.78-2A18.35,18.35,0,0,1,47.62,79Z"/>
      <path class="e311b633-b4be-4165-a0d3-e1c3cc1633d4" d="M55.68,81.89a7.42,7.42,0,0,1-.58-2,16.22,16.22,0,0,1-.19-2l-.31,0A17.77,17.77,0,0,0,54.73,80a7.61,7.61,0,0,0,.35,1.53c-.46-.54-.9-1.09-1.31-1.65a12,12,0,0,1-1.24-2l-.11,0-.66-.09c.55,2,2.35,3.93,3.65,5.4a11.73,11.73,0,0,0,1.25,1.2q.65,0,1.29-.06A10.83,10.83,0,0,1,56.39,83C56.15,82.64,55.89,82.29,55.68,81.89Z"/>
    </g>
    <path class="b8689252-a013-43be-b7cc-80df66f5c908" d="M46.55,78.46c1.25,0,2.5.09,3.75.15a32.18,32.18,0,0,0,5.1.1,9,9,0,0,0,3-.79,17.75,17.75,0,0,0,2.37-1.43,39.46,39.46,0,0,1,4.5-3c1.47-.76,3-1.32,4.51-2.09a10.85,10.85,0,0,0,3.89-3.26,33.77,33.77,0,0,0,5.09-11.34c-2.61,7-6,12.93-12.71,15.11l-.34.11.34-.11c-5.64,1.84-6.59,6.94-13.61,6-3.63-.51-9.82-1.36-12.4,2.36l.43.22C41.92,78.78,44.41,78.47,46.55,78.46Zm19.63-6.59-.14,0Zm.16-.05h0Zm0,0-.06,0Z"/>
    <g>
      <path class="e6b3e91e-c191-4873-a2d7-7d1c33070a61" d="M67.89,72.29c-.09-.33-.18-.65-.29-1l-.54.24q.1.51.18,1Z"/>
      <path class="e6b3e91e-c191-4873-a2d7-7d1c33070a61" d="M71.65,70.21c.2-.15.38-.31.57-.47A10.08,10.08,0,0,0,72,68.29c-.16.16-.33.31-.5.46,0,.25.07.49.09.74A5.77,5.77,0,0,1,71.65,70.21Z"/>
      <path class="e6b3e91e-c191-4873-a2d7-7d1c33070a61" d="M77.34,61.18c0-.19-.1-.38-.16-.58l-.3.64c.06.23.11.47.16.71C77.14,61.7,77.25,61.44,77.34,61.18Z"/>
      <path class="e6b3e91e-c191-4873-a2d7-7d1c33070a61" d="M47.27,78.46c-.25-.33-.52-.68-.76-1l-.47,0c.2.35.42.68.63,1Z"/>
      <path class="e6b3e91e-c191-4873-a2d7-7d1c33070a61" d="M53,78.77c-.17-.29-.33-.58-.47-.88l-.11,0-.66-.09a5.58,5.58,0,0,0,.34.94Z"/>
      <path class="e6b3e91e-c191-4873-a2d7-7d1c33070a61" d="M55,78.74c0-.25,0-.51,0-.77l-.31,0c0,.26,0,.51,0,.77Z"/>
    </g>
  </g>
</svg>
