<svg id="bc826211-f2a7-4b52-aa07-85669891bea6" data-name="Layer 1" xmlns="http://www.w3.org/2000/svg" xmlns:xlink="http://www.w3.org/1999/xlink" width="64" height="110" viewBox="0 0 64 110">
  <defs>
    <style>
      .e87008da-9c8d-47e3-8205-90ce0175b129 {
        fill: #89bd27;
      }

      .add81756-ce94-4277-8e1f-94b4a72ce2f7, .e87008da-9c8d-47e3-8205-90ce0175b129 {
        stroke: #23771d;
      }

      .add81756-ce94-4277-8e1f-94b4a72ce2f7, .af1b4f3d-cc13-4f58-98a6-7939e0ae1a2e, .e87008da-9c8d-47e3-8205-90ce0175b129, .ef27c203-d19f-4479-a02d-c24806de9734, .f72d89d2-b58e-460c-80b8-3dd6a520dafb {
        stroke-miterlimit: 10;
        stroke-width: 0.25px;
      }

      .ad5d39c6-53f6-4ac2-bf85-60175a5252c7 {
        fill: #80b024;
      }

      .af1b4f3d-cc13-4f58-98a6-7939e0ae1a2e {
        fill: #c7dc3a;
        stroke: #778e19;
      }

      .eab41d18-83bf-4633-b5ad-d5c9cf9a104b {
        fill: #bbcf36;
      }

      .ef27c203-d19f-4479-a02d-c24806de9734 {
        fill: #3e7a2e;
        stroke: #11560b;
      }

      .eb8910b9-e722-41a2-a834-9e07ddd614fb {
        fill: #469025;
      }

      .a5e999a8-0725-4721-ab8f-f44d34d4dbe4 {
        fill: #306029;
      }

      .f72d89d2-b58e-460c-80b8-3dd6a520dafb {
        fill: #32622a;
        stroke: #0f5109;
      }

      .ff78ceea-53ee-407c-b649-f5408ad38fe6 {
        opacity: 0.2;
      }

      .fe2e71f9-90cf-499b-8d74-c61550a0a96b {
        fill: url(#f20a48e6-035a-431f-9c96-3c00ee07e313);
      }

      .f4872178-cb26-4c84-9d18-fe566f5aadc4 {
        fill: #ffaf18;
      }

      .ad2cf994-a721-4196-a3b5-c02d6c3f4ca1 {
        fill: #ffb71b;
      }

      .b75476f9-831c-446d-8741-7226f6226a2e, .f1e25a30-86eb-444b-897b-bf7260dafe16 {
        fill: #d99400;
      }

      .a1c8101a-1be6-4383-a608-35a42ff01938 {
        fill: #ef9113;
      }

      .a1f29545-d04d-4eb7-8cad-aab1db18367f {
        fill: #ffe7b8;
      }

      .b75476f9-831c-446d-8741-7226f6226a2e {
        opacity: 0.5;
      }

      .add81756-ce94-4277-8e1f-94b4a72ce2f7 {
        fill: #85bc1a;
      }

      .b0872414-a956-4cc1-81e6-e306e1648314 {
        fill: #68a71d;
      }

      .e487c77e-2121-464b-87f7-e51eafdfbca0 {
        fill: #7eb82f;
      }

      .b36de857-e3eb-45fd-9307-82353e655e8c {
        fill: #87bc1c;
      }

      .bc3caa34-3015-480f-9ebe-46b0dacc9eae {
        fill: #6fa137;
      }

      .ba718d4a-b946-4d23-b5fa-ff024bfd77f7 {
        fill: #86c242;
      }
    </style>
    <linearGradient id="f20a48e6-035a-431f-9c96-3c00ee07e313" data-name="Áåçûìÿííûé ãðàäèåíò 19" x1="787.82" y1="51.8" x2="787.82" y2="-23.41" gradientTransform="matrix(-0.9, 0.43, 0.43, 0.9, 740.16, -288.93)" gradientUnits="userSpaceOnUse">
      <stop offset="0" stop-color="#ffc328"/>
      <stop offset="0.52" stop-color="#ffce38"/>
      <stop offset="1" stop-color="#ffd442"/>
    </linearGradient>
  </defs>
  <g id="b00295c6-f3d2-4880-9a58-43a8b2c01820" data-name="Corn">
    <g id="efaa0ae9-850a-4a6c-acbf-e20e3dc932e1" data-name="Corn">
      <path class="e87008da-9c8d-47e3-8205-90ce0175b129" d="M14.34,40.93c-1.07-2.29-5.7-8-10.45-19.93C14.46,29.07,24.27,44.94,28,51.15l7.88,13.22a29.72,29.72,0,0,0,2.29,3.47c.8,1,1.72,1.91,2.53,2.9a35.12,35.12,0,0,1,3.91,6.44l4,7.73A10.76,10.76,0,0,1,50.1,89.7c0,2.53-1.83,4.66-3.85,6.11a9.27,9.27,0,0,1-6,2c-3.77-.29-6.5-3.79-8.44-7.11C24.38,78,20.77,63.37,17.75,48.91,17,45.14,16,44.42,14.34,40.93Z"/>
      <path class="ad5d39c6-53f6-4ac2-bf85-60175a5252c7" d="M9.4,27.62c.59.63,1.22,1.31,1.88,2s1.35,1.53,2,2.38,1.33,1.76,2,2.69,1.27,1.89,1.87,2.87c1.18,2,2.26,4,3.21,5.94s1.74,3.77,2.43,5.35,1.2,2.91,1.58,3.84.57,1.46.57,1.46L22.42,49c-.74-1.55-1.64-3.34-2.61-5.25s-2.06-3.91-3.25-5.85C16,37,15.37,36,14.74,35.07s-1.25-1.83-1.91-2.68S11.55,30.73,10.92,30s-1.23-1.46-1.79-2.1C8,26.57,7.08,25.47,6.44,24.7s-1-1.23-1-1.23l1.08,1.15Z"/>
      <path class="ad5d39c6-53f6-4ac2-bf85-60175a5252c7" d="M12.53,34.08c.78,1,1.69,2.1,2.63,3.33S17.07,40,18,41.33s1.89,2.72,2.74,4,1.62,2.53,2.27,3.58,1.16,2,1.53,2.59l.56,1-.67-.92c-.41-.6-1-1.44-1.73-2.45-1.42-2-3.33-4.73-5.23-7.43L12.24,34.3,10.5,31.86c-.42-.59-.65-.93-.65-.93l.75.85C11.06,32.34,11.75,33.11,12.53,34.08Z"/>
      <path class="af1b4f3d-cc13-4f58-98a6-7939e0ae1a2e" d="M48.05,95.14,40.49,74.56c-.73-2-1.47-4-2.16-6C36.48,63,35,57.42,33.56,51.82c-3.31-12.73-11-37.67,3.69-42.89-7.32,14.45,2,31.09,8,43.51,2.62,5.36,5.54,8.89,7.52,14.51a34.91,34.91,0,0,1,1.73,6c.8,5-.54,9.92-1.94,14.68-.88,3-2,6.25-4.57,7.93l1.08-2.83Z"/>
      <path class="eab41d18-83bf-4633-b5ad-d5c9cf9a104b" d="M31.06,31.57c-.19-.68-.43-1.65-.65-2.83s-.41-2.57-.54-4.06c-.07-.75-.1-1.53-.11-2.32A19.56,19.56,0,0,1,29.85,20c0-.4.1-.81.18-1.22a5.08,5.08,0,0,1,.15-.59l.08-.28c0-.13.07-.2.1-.3a16,16,0,0,1,2.13-4,16.54,16.54,0,0,1,1.25-1.5,12.3,12.3,0,0,1,1.19-1.14c.37-.32.71-.58,1-.79s.51-.35.67-.45l.24-.16s-.31.26-.82.73a11.71,11.71,0,0,0-.89.87c-.34.35-.7.75-1.08,1.21a19.24,19.24,0,0,0-2.18,3.37,16.15,16.15,0,0,0-.9,2.07,9.34,9.34,0,0,0-.31,1.1A10.42,10.42,0,0,0,30.48,20a31.15,31.15,0,0,0-.08,4.62c.06,1.49.19,2.87.34,4.05s.29,2.17.43,2.85.22,1.07.22,1.07l-.09-.27C31.24,32.16,31.15,31.9,31.06,31.57Z"/>
      <path class="eab41d18-83bf-4633-b5ad-d5c9cf9a104b" d="M37.34,40.17c-.54-1.43-1.19-3.08-1.85-4.87s-1.34-3.7-1.91-5.67a33,33,0,0,1-1.11-5.91,20.19,20.19,0,0,1,.2-5.24,15.31,15.31,0,0,1,.49-2c.18-.59.38-1.1.55-1.51s.34-.72.46-.93l.17-.32L34.2,14c-.1.22-.21.55-.37,1s-.3.93-.44,1.53-.26,1.28-.36,2a22.59,22.59,0,0,0,0,5.14,33.15,33.15,0,0,0,1.18,5.78c.54,1.95,1.19,3.87,1.82,5.66s1.17,3.49,1.66,4.94.85,2.66,1.12,3.5l.41,1.34-.53-1.3C38.37,42.77,37.88,41.59,37.34,40.17Z"/>
      <path class="ef27c203-d19f-4479-a02d-c24806de9734" d="M30.27,28.66c1.8,2.07,3.82,4,5.56,6.09,5.79,7.06,8.23,16.28,13,24.11,2.08,3.45,4.62,6.63,6.29,10.3a49.58,49.58,0,0,1,3.16,11.77,8.38,8.38,0,0,1,.15,3.15c-.38,1.71-1.8,2.93-3.14,4-2.57,2.09-5.42,4.28-8.74,4.24-3.73,0-6.88-2.93-9.07-6A53.71,53.71,0,0,1,32.77,78C22.18,55.63,14.69,23.89,22.18,4.24,26.46,17.8,28.8,27,30.27,28.66Z"/>
      <path class="eb8910b9-e722-41a2-a834-9e07ddd614fb" d="M25.79,27c-.31-.87-.62-1.75-.9-2.64-.54-1.78-1-3.59-1.37-5.29-.2-.85-.33-1.69-.47-2.48s-.24-1.53-.32-2.23a13,13,0,0,1,0-3.38,7.69,7.69,0,0,1,.18-.93l.1-.32-.06.33c0,.21-.07.53-.1.93a15.32,15.32,0,0,0,.25,3.32c.23,1.36.59,3,1,4.63s.88,3.47,1.44,5.23c.27.88.56,1.76.85,2.62s.61,1.7.93,2.51.62,1.58.93,2.31.61,1.43.89,2.06c.58,1.26,1.06,2.31,1.43,3s.56,1.14.56,1.14l-.68-1.08c-.41-.7-1-1.7-1.64-2.94s-1.36-2.71-2-4.32C26.43,28.74,26.11,27.9,25.79,27Z"/>
      <path class="eb8910b9-e722-41a2-a834-9e07ddd614fb" d="M23.48,27.3c-.24-.62-.44-1.27-.66-1.91s-.37-1.3-.53-1.95-.29-1.29-.42-1.91c-.23-1.25-.39-2.43-.48-3.43-.06-.51-.08-1-.1-1.38s0-.77,0-1.07v-.93s.05.34.13.92.2,1.42.37,2.41c.08.49.18,1,.29,1.59s.26,1.16.39,1.77c.29,1.22.63,2.51,1,3.79s.83,2.53,1.28,3.71c.24.57.44,1.15.67,1.67s.43,1,.65,1.49c.42.91.77,1.68,1,2.2l.41.83L27,34.33c-.17-.24-.36-.55-.57-.9s-.46-.75-.69-1.2c-.49-.88-1-1.94-1.53-3.11C24,28.53,23.69,27.93,23.48,27.3Z"/>
      <path class="a5e999a8-0725-4721-ab8f-f44d34d4dbe4" d="M30.38,63.73C28.65,58,26,52.6,24.8,46.7c-1.36-6.94-5.22-20.49-5.48-29.32.47,1,12.58,11.85,16.45,18.25l3.37,6.44Q44.23,51,49,60.08a48.79,48.79,0,0,0,4.28,7.2,37.12,37.12,0,0,1,2.31,3,16.18,16.18,0,0,1,2.1,7.39,22.37,22.37,0,0,1-3,13.85,8.87,8.87,0,0,1-2.5,2.72,7.4,7.4,0,0,1-7.51,0,14.62,14.62,0,0,1-4.79-5.22,55.26,55.26,0,0,1-5.17-9.76C32.73,74.3,31.94,68.89,30.38,63.73Z"/>
      <path class="f72d89d2-b58e-460c-80b8-3dd6a520dafb" d="M15.66,34.87a48.14,48.14,0,0,1-1.2-5.8c-.48-3.84-4.22-9.08-6-15.6C16,20.11,24.52,33.11,29.66,41.75c1.26,2.12,2.53,4.25,3.64,6.46,1.23,2.45,2.27,5,3.31,7.55l10,24.66c1.28,3.15,2.56,6.77,1.12,9.8-1.72,3.62-6.78,4.47-10.39,2.71s-6-5.39-7.78-9C26.25,77,24.37,69.57,22.52,62.17Z"/>
      <path class="ff78ceea-53ee-407c-b649-f5408ad38fe6" d="M17.86,45.65a24,24,0,0,1-1-7.21c.28-4.27,3.23-7.55,5.68-11-.63.83-2.54,6.66-2.51,8.34a68.33,68.33,0,0,0,5.53,25.72,6.39,6.39,0,0,1,.81,3.35C26.21,66,25.08,67.08,24,66.69s-1.3-1.44-1.54-2.4Z"/>
      <path class="fe2e71f9-90cf-499b-8d74-c61550a0a96b" d="M30,82.23c-.53-1-1.19-2.43-.24-3a2.53,2.53,0,0,1-1.12-4,2.89,2.89,0,0,1-1.6-3.72,2.73,2.73,0,0,1-1.23-4.27A2.84,2.84,0,0,1,24.62,63,2.19,2.19,0,0,1,23,60a2.48,2.48,0,0,1-.81-3.67A2.72,2.72,0,0,1,20.75,52a1.92,1.92,0,0,1-1.7-1.59,1.86,1.86,0,0,1,1.19-2,1.88,1.88,0,0,1-1.33-2.65c.74-1,.52-1.45-.15-1.82-1.09-.58.26-3.82.59-4-.73-.79-1.11-.84-1.37-1.9a3.09,3.09,0,0,1,1.81-3.08c-1.47-1.76-.3-4.1,1.71-4.8l-.06-.27A2.59,2.59,0,0,1,26,27.52c.93-.45,2.81-.09,2.8,1,0,2.24,2.55.06,2.41,3.74a2.33,2.33,0,0,1,2.11,2.93,2.72,2.72,0,0,1,2.28,3.92,2,2,0,0,1,2.14.75,2,2,0,0,1-.05,2.28,1.71,1.71,0,0,1,1.73,2.84,2.46,2.46,0,0,1,2,3.73,2.91,2.91,0,0,1,2.21,3.63,2.3,2.3,0,0,1,1.81,3.43,3.11,3.11,0,0,1,2.15,4.35,2.69,2.69,0,0,1,1.62,3.85,2.57,2.57,0,0,1,1.77,3.6,3,3,0,0,1,1.82,4.15c.87.25,1.33,1.18,1.7,2L57.19,80a16.66,16.66,0,0,1,1.63,5.2c.4,4.61-3.07,8.63-7,10.94-2.21,1.3-4.81,2.28-7.33,1.7a13.15,13.15,0,0,1-4-2c-3.4-2.15-7-4.54-8.57-8.27C31.17,85.87,30.93,83.91,30,82.23Z"/>
      <path class="f4872178-cb26-4c84-9d18-fe566f5aadc4" d="M30,82.23c-.53-1-1.19-2.43-.24-3a2.53,2.53,0,0,1-1.12-4,2.89,2.89,0,0,1-1.6-3.72,2.73,2.73,0,0,1-1.23-4.27A2.84,2.84,0,0,1,24.62,63,2.19,2.19,0,0,1,23,60a2.48,2.48,0,0,1-.81-3.67A2.72,2.72,0,0,1,20.75,52a1.92,1.92,0,0,1-1.7-1.59,1.86,1.86,0,0,1,1.19-2,1.92,1.92,0,0,1-1.33-2.65c.78-1.34.39-1.31-.44-2-.6-.52-.1-2.09.24-2.55,1.24,1.41,7.84,13.06,10,16.18C36.2,68,41.21,69.56,50.36,72.29a28.24,28.24,0,0,0,3.22.74l.85.67L57.19,80a16.66,16.66,0,0,1,1.63,5.2c.4,4.61-3.07,8.63-7,10.94-2.21,1.3-4.81,2.28-7.33,1.7a13.15,13.15,0,0,1-4-2c-3.4-2.15-7-4.54-8.57-8.27C31.17,85.87,30.93,83.91,30,82.23Z"/>
      <path class="f4872178-cb26-4c84-9d18-fe566f5aadc4" d="M18.71,41.18c-.14.15.12-.17,0,0Z"/>
      <path class="ad2cf994-a721-4196-a3b5-c02d6c3f4ca1" d="M22.16,29.85A10.15,10.15,0,0,0,23.7,29c.26-.18.52-.38.75-.56s.23-.18.33-.28l.29-.28c.36-.34.62-.55.62-.55s-.18.29-.47.69l-.24.32a3.28,3.28,0,0,1-.31.34,6,6,0,0,1-.77.62,4.68,4.68,0,0,1-1.68.74,3.09,3.09,0,0,1-.83.1l.22-.08Z"/>
      <path class="ad2cf994-a721-4196-a3b5-c02d6c3f4ca1" d="M25.31,29.43a2.87,2.87,0,0,0,.52.6,1.15,1.15,0,0,0,.35.22.64.64,0,0,0,.18.06.82.82,0,0,0,.21,0,2.16,2.16,0,0,0,.83-.23c.27-.12.52-.22.73-.33.42-.22.72-.36.72-.36a5,5,0,0,1-.6.55,5.13,5.13,0,0,1-.71.45,2,2,0,0,1-1,.28l-.26,0a1.08,1.08,0,0,1-.27-.1,1.63,1.63,0,0,1-.42-.31,2.48,2.48,0,0,1-.48-.73,4,4,0,0,1-.26-.79S25,29,25.31,29.43Z"/>
      <path class="ad2cf994-a721-4196-a3b5-c02d6c3f4ca1" d="M28.56,31.11c.25.31.58.74.87,1.18a.51.51,0,0,0,.2.21c.05,0,.12,0,.23,0l.63-.24a6.56,6.56,0,0,1,.63-.19,6.43,6.43,0,0,1-.54.38c-.17.1-.36.23-.58.35a.56.56,0,0,1-.5,0,1,1,0,0,1-.37-.33,12.33,12.33,0,0,1-.74-1.28,5.3,5.3,0,0,1-.28-.61S28.3,30.8,28.56,31.11Z"/>
      <path class="ad2cf994-a721-4196-a3b5-c02d6c3f4ca1" d="M31.65,35.39h.09a.35.35,0,0,1,.05.08Z"/>
      <path class="ad2cf994-a721-4196-a3b5-c02d6c3f4ca1" d="M31.09,34.4c.23.32.44.65.65,1h-.09l.14.08a.35.35,0,0,0-.05-.08,2.6,2.6,0,0,0,1.69-.51,2,2,0,0,1-1.79.87h-.09l-.06-.08c-.23-.35-.45-.72-.65-1.1a12.38,12.38,0,0,1-.56-1.16A11.06,11.06,0,0,1,31.09,34.4Z"/>
      <path class="ad2cf994-a721-4196-a3b5-c02d6c3f4ca1" d="M32.64,37.16c-.17-.46-.26-.78-.26-.78a7.13,7.13,0,0,1,.44.7c.12.21.27.46.41.73s.29.58.43.85a.58.58,0,0,0,.59.38c.28,0,.56,0,.8-.06.46-.06.78-.13.78-.13a3.21,3.21,0,0,1-.74.33,4,4,0,0,1-.82.18.89.89,0,0,1-.54-.1,1.13,1.13,0,0,1-.39-.43c-.16-.31-.28-.6-.4-.89S32.73,37.39,32.64,37.16Z"/>
      <path class="ad2cf994-a721-4196-a3b5-c02d6c3f4ca1" d="M34.48,40.06a1.16,1.16,0,0,1,.2,0,1,1,0,0,1,.41.35,13.77,13.77,0,0,0,.76,1.31,1.51,1.51,0,0,0,1.2.58,1.15,1.15,0,0,0,.61-.25l-.11.17a1,1,0,0,1-.45.29,1.24,1.24,0,0,1-.78,0,1.82,1.82,0,0,1-.74-.52,2.39,2.39,0,0,1-.42-.78,6.22,6.22,0,0,0-.24-.67,1,1,0,0,0-.28-.39A.67.67,0,0,0,34.48,40.06Z"/>
      <path class="ad2cf994-a721-4196-a3b5-c02d6c3f4ca1" d="M36.63,43.26l-.18-.08a.61.61,0,0,1,.2,0,1.12,1.12,0,0,1,.5.24,1.22,1.22,0,0,1,.25.29,1.12,1.12,0,0,1,.18.4c.06.31,0,.6.14.77a.73.73,0,0,0,.56.31,1.15,1.15,0,0,0,.64-.12l.45-.23.18-.1-.13.15a2.55,2.55,0,0,1-.4.36,1.4,1.4,0,0,1-.32.18,1.12,1.12,0,0,1-.42.09,1,1,0,0,1-.88-.45,1.08,1.08,0,0,1-.12-.5c0-.15,0-.3,0-.4a1.06,1.06,0,0,0-.09-.33.88.88,0,0,0-.17-.28A1.44,1.44,0,0,0,36.63,43.26Z"/>
      <path class="ad2cf994-a721-4196-a3b5-c02d6c3f4ca1" d="M39.32,49.32l.46-.18a4.21,4.21,0,0,1-.09.49Z"/>
      <path class="ad2cf994-a721-4196-a3b5-c02d6c3f4ca1" d="M39.26,48.69a4.57,4.57,0,0,0-.09-.82,4.92,4.92,0,0,0-.23-.81c-.06-.13-.11-.26-.17-.4l-.21-.39a3,3,0,0,1,1.07,1.49,3.56,3.56,0,0,1,.15,1.38l-.46.18.37.31a4.21,4.21,0,0,0,.09-.49,12.85,12.85,0,0,1,1.76-.55,12.8,12.8,0,0,1-2,1.22l-.49.24.12-.55A4.45,4.45,0,0,0,39.26,48.69Z"/>
      <path class="ad2cf994-a721-4196-a3b5-c02d6c3f4ca1" d="M41.15,52.94l.16,0a.13.13,0,0,0,0,.07Z"/>
      <path class="ad2cf994-a721-4196-a3b5-c02d6c3f4ca1" d="M40.68,52.11v-.37a5.87,5.87,0,0,0-.38-1.48,4,4,0,0,1,.5.65,2.23,2.23,0,0,1,.32.79,1.66,1.66,0,0,1,0,.22v.58a.57.57,0,0,0,.13.39l-.16,0,.21,0a.13.13,0,0,1,0-.07c.78-.21,1.55-.45,2.36-.66a6.58,6.58,0,0,1-2.36,1.23l-.1,0-.11-.05a.9.9,0,0,1-.37-.45,1.38,1.38,0,0,1-.07-.47A2.62,2.62,0,0,1,40.68,52.11Z"/>
      <path class="ad2cf994-a721-4196-a3b5-c02d6c3f4ca1" d="M42.66,56.8l.5-.24a2.64,2.64,0,0,1-.11.56Z"/>
      <path class="ad2cf994-a721-4196-a3b5-c02d6c3f4ca1" d="M42.17,54a2.77,2.77,0,0,1,.9,1.4,3.13,3.13,0,0,1,.09,1.14l-.5.24.39.32a2.64,2.64,0,0,0,.11-.56,6,6,0,0,1,1.84-.5c-.7.44-1.39.81-2.07,1.21l-.55.33.16-.64A4.37,4.37,0,0,0,42.17,54Z"/>
      <path class="ad2cf994-a721-4196-a3b5-c02d6c3f4ca1" d="M21.92,30.47v0l0,0Z"/>
      <path class="ad2cf994-a721-4196-a3b5-c02d6c3f4ca1" d="M21.84,30.45h0l.26-.14a1.8,1.8,0,0,1-.2.19v0l0,0,0,0a1.81,1.81,0,0,0,1.8,1.41,2.16,2.16,0,0,0,.62-.09,2.88,2.88,0,0,0,.59-.23A6.28,6.28,0,0,0,26,30.84a3.37,3.37,0,0,1-.94,1,2.34,2.34,0,0,1-.63.32,2.4,2.4,0,0,1-.7.13,2,2,0,0,1-1.35-.5,2.12,2.12,0,0,1-.44-.59,1.33,1.33,0,0,1-.11-.71Z"/>
      <path class="ad2cf994-a721-4196-a3b5-c02d6c3f4ca1" d="M25,34.77h0l0,0Z"/>
      <path class="ad2cf994-a721-4196-a3b5-c02d6c3f4ca1" d="M24.09,32.51a2,2,0,0,0-.08.68,2.29,2.29,0,0,0,.16.65,1.79,1.79,0,0,0,.84.93h0l0,0,0,0a4,4,0,0,0,.59.07,4.24,4.24,0,0,0,.62,0,4.15,4.15,0,0,0,1.19-.34,4,4,0,0,0,1.06-.66,4.78,4.78,0,0,0,.45-.45,5,5,0,0,0,.39-.52,3.23,3.23,0,0,1-.29.59,3.51,3.51,0,0,1-.4.53,3.79,3.79,0,0,1-1.06.81,3.88,3.88,0,0,1-1.29.4,3.84,3.84,0,0,1-.68,0,3.1,3.1,0,0,1-.67-.1h0A2,2,0,0,1,24.09,32.51Z"/>
      <path class="ad2cf994-a721-4196-a3b5-c02d6c3f4ca1" d="M26.09,37.74h0l0,0Z"/>
      <path class="ad2cf994-a721-4196-a3b5-c02d6c3f4ca1" d="M25.41,35.66a2,2,0,0,0,.06,1.2,1.89,1.89,0,0,0,.66.88h0l.08,0,0,0a7,7,0,0,0,2.65-.48A7.46,7.46,0,0,0,30,36.64l1.16-.8a6.89,6.89,0,0,1-2.26,1.73,5.84,5.84,0,0,1-2.83.49h0l0,0A2,2,0,0,1,25.41,35.66Z"/>
      <path class="ad2cf994-a721-4196-a3b5-c02d6c3f4ca1" d="M27.07,38.93a1.48,1.48,0,0,0,.05.4,2.8,2.8,0,0,0,.44.93,5.75,5.75,0,0,0,.9,1.12,1.47,1.47,0,0,0,.63.33,1.55,1.55,0,0,0,.74,0,7.16,7.16,0,0,0,1.51-.59c.48-.24.92-.48,1.29-.7a1.42,1.42,0,0,0,.68-.68.49.49,0,0,0,0-.38.5.5,0,0,1,.12.4,1.53,1.53,0,0,1-.6.93,9.5,9.5,0,0,1-1.24.86,5.83,5.83,0,0,1-1.62.7,2,2,0,0,1-1,0,1.93,1.93,0,0,1-.83-.49,4.74,4.74,0,0,1-.86-1.33A3,3,0,0,1,27,39.34,1.13,1.13,0,0,1,27.07,38.93Z"/>
      <path class="ad2cf994-a721-4196-a3b5-c02d6c3f4ca1" d="M28.69,43.11a.74.74,0,0,1,.33-.29l-.08.08a.84.84,0,0,0-.16.26,1.5,1.5,0,0,0,.13,1,2.19,2.19,0,0,0,1,1.08,1,1,0,0,0,.72.07,2.71,2.71,0,0,0,.77-.34c1.08-.62,2.18-1.2,3-1.61s1.43-.64,1.43-.64-.5.39-1.27.92-1.82,1.19-2.91,1.82a3.7,3.7,0,0,1-.93.38,1.56,1.56,0,0,1-1-.16,2,2,0,0,1-.69-.66,2.53,2.53,0,0,1-.35-.75A1.57,1.57,0,0,1,28.69,43.11Z"/>
      <path class="ad2cf994-a721-4196-a3b5-c02d6c3f4ca1" d="M30.22,47.13a.82.82,0,0,1,.29-.37l-.06.1a1,1,0,0,0-.09.32,2.21,2.21,0,0,0,.2,1.12,3.89,3.89,0,0,0,.33.68.45.45,0,0,0,.49.23A4,4,0,0,0,32.2,49c.29-.11.59-.24.88-.38a18.75,18.75,0,0,0,3.08-1.76c.8-.57,1.33-1,1.33-1a7.09,7.09,0,0,1-1.06,1.31,10.25,10.25,0,0,1-3,2.12c-.31.14-.63.26-.94.37a3.18,3.18,0,0,1-1,.24,1,1,0,0,1-1-.6,3.25,3.25,0,0,1-.26-.85A2,2,0,0,1,30.22,47.13Z"/>
      <path class="ad2cf994-a721-4196-a3b5-c02d6c3f4ca1" d="M32.53,50.65a1.35,1.35,0,0,0,.12.35,1.87,1.87,0,0,0,.59.68,2.25,2.25,0,0,0,.51.28,2.2,2.2,0,0,0,.61.12,3.55,3.55,0,0,0,1.38-.21,7.85,7.85,0,0,0,2.42-1.35c.31-.24.54-.47.72-.63a.46.46,0,0,1,.37-.13A.43.43,0,0,0,39,50a5.62,5.62,0,0,1-.53.83,5.08,5.08,0,0,1-1,1,5.28,5.28,0,0,1-.69.42,6,6,0,0,1-.77.34,3.6,3.6,0,0,1-1.69.16,2.28,2.28,0,0,1-.77-.27A2,2,0,0,1,33,52a1.75,1.75,0,0,1-.45-1A1.12,1.12,0,0,1,32.53,50.65Z"/>
      <path class="ad2cf994-a721-4196-a3b5-c02d6c3f4ca1" d="M33.82,53.4l0,.11a1.15,1.15,0,0,0,0,.3,1.91,1.91,0,0,0,.41,1c.13.18.29.37.45.57a2.1,2.1,0,0,0,.55.46,1.83,1.83,0,0,0,1.46-.06c.53-.19,1.06-.5,1.58-.74s1-.46,1.42-.65a1.79,1.79,0,0,0,.79-.64.87.87,0,0,0,.1-.28v-.12a.83.83,0,0,1,0,.45,1.69,1.69,0,0,1-.7,1,15.39,15.39,0,0,1-1.33.86,10.93,10.93,0,0,1-1.64.86,3.24,3.24,0,0,1-1,.21,1.85,1.85,0,0,1-1-.28,2.07,2.07,0,0,1-.66-.7A5.22,5.22,0,0,1,33.8,55a1.82,1.82,0,0,1-.19-1.19A.82.82,0,0,1,33.82,53.4Z"/>
      <path class="ad2cf994-a721-4196-a3b5-c02d6c3f4ca1" d="M35.46,58.05a1.4,1.4,0,0,1,.22-.39,1.26,1.26,0,0,0-.08.42,2.22,2.22,0,0,0,.31,1q.17.3.39.63a1.74,1.74,0,0,0,.47.55.84.84,0,0,0,.64.1,5.44,5.44,0,0,0,.86-.17,8,8,0,0,0,2.91-1.45A9.33,9.33,0,0,0,42,58l.31-.31s-.06.15-.19.4a5.31,5.31,0,0,1-.67.95,5.76,5.76,0,0,1-1.26,1.09,6.6,6.6,0,0,1-1.75.77c-.32.07-.64.13-1,.17a1.81,1.81,0,0,1-.56,0,1.25,1.25,0,0,1-.29-.1,1.11,1.11,0,0,1-.24-.16,2.09,2.09,0,0,1-.57-.8,4.11,4.11,0,0,1-.3-.74A2,2,0,0,1,35.46,58.05Z"/>
      <path class="f1e25a30-86eb-444b-897b-bf7260dafe16" d="M38.43,62.55l0,.13a.63.63,0,0,0,0,.36,2.21,2.21,0,0,0,.75,1,4.4,4.4,0,0,0,.69.51,1.56,1.56,0,0,0,.39.15l.17,0h.21a4.13,4.13,0,0,0,.88-.4,6.82,6.82,0,0,0,.91-.54,4.69,4.69,0,0,0,.79-.66,3.17,3.17,0,0,0,.32-.39,3.85,3.85,0,0,0,.24-.4,3.53,3.53,0,0,0,.33-1.73,3.62,3.62,0,0,0-.29-1.29,3.53,3.53,0,0,0-.24-.47l.1.1a1.73,1.73,0,0,1,.26.3,3.44,3.44,0,0,1,.59,1.3,3.73,3.73,0,0,1-.16,2.06,4.42,4.42,0,0,1-.27.53,3.75,3.75,0,0,1-.36.48,4.7,4.7,0,0,1-.89.78,10.17,10.17,0,0,1-1,.57,3.64,3.64,0,0,1-1.11.4,1.6,1.6,0,0,1-.31,0,1.07,1.07,0,0,1-.33-.07,1.78,1.78,0,0,1-.51-.27,3.5,3.5,0,0,1-.7-.68,2.29,2.29,0,0,1-.61-1.31A.79.79,0,0,1,38.43,62.55Z"/>
      <path class="f1e25a30-86eb-444b-897b-bf7260dafe16" d="M39.86,67.43a7.61,7.61,0,0,1-.14-1,7.31,7.31,0,0,1,.53.88c.14.27.29.59.44.94a8.37,8.37,0,0,0,.48,1,1.91,1.91,0,0,0,.63.73,1.22,1.22,0,0,0,.78.18,5.31,5.31,0,0,0,.68-.14l.27-.07s-.07.08-.2.2a2.19,2.19,0,0,1-.63.42,1.49,1.49,0,0,1-.55.12,1.32,1.32,0,0,1-.63-.13,2.26,2.26,0,0,1-1-.94,4.74,4.74,0,0,1-.46-1.16C40,68.07,39.91,67.73,39.86,67.43Z"/>
      <path class="f1e25a30-86eb-444b-897b-bf7260dafe16" d="M41.37,71.53a4.23,4.23,0,0,1,.43.5,6.44,6.44,0,0,1,.71,1.21c.1.22.21.47.28.68s.07.18.11.25a.7.7,0,0,0,.14.18.45.45,0,0,0,.34.13.26.26,0,0,0,.16,0,.31.31,0,0,1-.11.17.6.6,0,0,1-.55.09.73.73,0,0,1-.34-.2,1.53,1.53,0,0,1-.26-.31,6.19,6.19,0,0,1-.36-.67,7.48,7.48,0,0,1-.46-1.32A3.17,3.17,0,0,1,41.37,71.53Z"/>
      <path class="ad2cf994-a721-4196-a3b5-c02d6c3f4ca1" d="M20.28,34.49a2.7,2.7,0,0,0,.6-.21,4,4,0,0,0,.63-.35,3.69,3.69,0,0,0,.94-1,2.44,2.44,0,0,0,.24-.4l.08-.17s0,.07,0,.19a2.07,2.07,0,0,1-.12.48,3.16,3.16,0,0,1-.34.61,3,3,0,0,1-.58.55,2.85,2.85,0,0,1-.72.36,3.16,3.16,0,0,1-.69.11,2,2,0,0,1-.49-.05l-.18,0,.19,0A2.53,2.53,0,0,0,20.28,34.49Z"/>
      <path class="ad2cf994-a721-4196-a3b5-c02d6c3f4ca1" d="M20.63,36.49c-.2-.63-.31-1.07-.31-1.07s.22.39.5,1c.14.29.29.68.47,1a.48.48,0,0,0,.38.25,1.32,1.32,0,0,0,.52-.17,8.57,8.57,0,0,0,1.06-.65,8.93,8.93,0,0,0,.83-.69,8.4,8.4,0,0,0,.75-.79,4.6,4.6,0,0,1-.6.93,6.58,6.58,0,0,1-.79.81,5.49,5.49,0,0,1-1.08.72,1.43,1.43,0,0,1-.7.19.78.78,0,0,1-.64-.43,3.32,3.32,0,0,1-.23-.58Z"/>
      <path class="ad2cf994-a721-4196-a3b5-c02d6c3f4ca1" d="M21.53,38.82a1.21,1.21,0,0,0,.08.22,1.17,1.17,0,0,0,.38.45,1.58,1.58,0,0,0,.75.3,2,2,0,0,0,.9-.11,5.81,5.81,0,0,0,.89-.38,4.56,4.56,0,0,0,.74-.4,1.1,1.1,0,0,0,.37-.44.87.87,0,0,0,0-.23.72.72,0,0,1,0,.25.93.93,0,0,1-.3.58,3.73,3.73,0,0,1-.72.53,4.2,4.2,0,0,1-.93.44,2.05,2.05,0,0,1-1.07.08,1.77,1.77,0,0,1-.82-.46,1,1,0,0,1-.33-.83Z"/>
      <path class="ad2cf994-a721-4196-a3b5-c02d6c3f4ca1" d="M22.33,41.15l-.06-.33.13.31c.07.2.19.48.34.8a3.61,3.61,0,0,0,.68,1,1.83,1.83,0,0,0,1.13.56,3.69,3.69,0,0,0,1.3-.24A8.36,8.36,0,0,0,27,42.82a2.54,2.54,0,0,0,.68-.48,2,2,0,0,0,.21-.26,1.64,1.64,0,0,1-.15.3,2.23,2.23,0,0,1-.64.62,6.15,6.15,0,0,1-1.12.54,3.38,3.38,0,0,1-1.43.29,2,2,0,0,1-1.33-.7A3.31,3.31,0,0,1,22.55,42,7.8,7.8,0,0,1,22.33,41.15Z"/>
      <path class="ad2cf994-a721-4196-a3b5-c02d6c3f4ca1" d="M23.35,44.79a3.33,3.33,0,0,0-.13-.35,1.85,1.85,0,0,1,.23.31,3.33,3.33,0,0,1,.33,1A6.49,6.49,0,0,0,24.13,47a1,1,0,0,0,1.05.57,7.42,7.42,0,0,0,1.45-.28,5.37,5.37,0,0,0,1.22-.46,2.19,2.19,0,0,0,.71-.58,1.48,1.48,0,0,0,.19-.3,1.53,1.53,0,0,1-.1.36,2.15,2.15,0,0,1-.62.79,4.47,4.47,0,0,1-1.25.66,6.2,6.2,0,0,1-1.58.37,1.68,1.68,0,0,1-.91-.22,1.49,1.49,0,0,1-.59-.71,4.54,4.54,0,0,1-.23-1.43A4.17,4.17,0,0,0,23.35,44.79Z"/>
      <path class="ad2cf994-a721-4196-a3b5-c02d6c3f4ca1" d="M24.47,50.32c0-.42,0-.75-.06-1a2,2,0,0,0-.08-.37,1.45,1.45,0,0,1,.22.33,4.61,4.61,0,0,1,.33,1,4.18,4.18,0,0,0,.19.6,1.2,1.2,0,0,0,.34.48,1.88,1.88,0,0,0,1.27.27,4.52,4.52,0,0,0,.75-.1,5.71,5.71,0,0,0,.71-.19,6.94,6.94,0,0,0,1.19-.58,7.35,7.35,0,0,0,.77-.57l.28-.25a2.78,2.78,0,0,1-.17.34,3.89,3.89,0,0,1-.62.82,4.54,4.54,0,0,1-1.2.84,4.94,4.94,0,0,1-.79.29,5.11,5.11,0,0,1-.86.13A2.26,2.26,0,0,1,25,51.82a1.63,1.63,0,0,1-.43-.79A2.66,2.66,0,0,1,24.47,50.32Z"/>
      <path class="f1e25a30-86eb-444b-897b-bf7260dafe16" d="M26.81,54.7a14.09,14.09,0,0,1-.41-1.37,12.78,12.78,0,0,1,.78,1.2l.35.59c.12.21.23.32.34.33a1.94,1.94,0,0,0,.65-.09,3.83,3.83,0,0,0,.73-.22,6.28,6.28,0,0,0,1.37-.69,6.76,6.76,0,0,0,1.06-.84,7.63,7.63,0,0,0,.67-.73l.25-.3s0,.14-.12.38a4.74,4.74,0,0,1-.47.93A5.07,5.07,0,0,1,31,55a5.31,5.31,0,0,1-1.49.85,4.84,4.84,0,0,1-.85.23,2.08,2.08,0,0,1-.94,0,.9.9,0,0,1-.47-.33,1.94,1.94,0,0,1-.21-.4C27,55.12,26.88,54.91,26.81,54.7Z"/>
      <path class="f1e25a30-86eb-444b-897b-bf7260dafe16" d="M29.49,59.66l.12,0,.11.08Z"/>
      <polygon class="f1e25a30-86eb-444b-897b-bf7260dafe16" points="34.37 57.11 34.37 57.09 34.37 57.08 34.37 57.11"/>
      <path class="f1e25a30-86eb-444b-897b-bf7260dafe16" d="M28.55,58.55a3.36,3.36,0,0,0,.52.66,2.63,2.63,0,0,0,.54.42l-.12,0,.23.05-.11-.08c.43-.09.85-.19,1.27-.32s.91-.31,1.34-.49a4,4,0,0,0,2.15-1.73v0h0V56.8l.11.29h0v0a2.66,2.66,0,0,1-.71,1.38,4.7,4.7,0,0,1-1.25.92,9,9,0,0,1-2.89.93l-.14,0-.1-.07a3.21,3.21,0,0,1-1.25-1.55A2.87,2.87,0,0,1,28,56.86,3.72,3.72,0,0,0,28.55,58.55Z"/>
      <path class="f1e25a30-86eb-444b-897b-bf7260dafe16" d="M29.55,61.28s.33.48.75,1.23c.2.38.42.85.75.91a1.46,1.46,0,0,0,.62-.06l.81-.19A12.9,12.9,0,0,0,34,62.73a5.53,5.53,0,0,0,.65-.28,5.91,5.91,0,0,0,.56-.33,3.91,3.91,0,0,0,.74-.63,2.57,2.57,0,0,0,.25-.3,2.44,2.44,0,0,1-.13.38,3,3,0,0,1-.59.88,3.64,3.64,0,0,1-.54.47,3.84,3.84,0,0,1-.68.41,7.86,7.86,0,0,1-1.61.56l-.82.16a1.76,1.76,0,0,1-1,0,1.27,1.27,0,0,1-.68-.67,4.19,4.19,0,0,1-.25-.69C29.66,61.85,29.55,61.28,29.55,61.28Z"/>
      <path class="f1e25a30-86eb-444b-897b-bf7260dafe16" d="M31.07,65.23l.19.49a6.16,6.16,0,0,0,.59,1.19,2.48,2.48,0,0,0,.56.61,1.8,1.8,0,0,0,.78.32,2.79,2.79,0,0,0,.94-.07,5.69,5.69,0,0,0,1-.32,8.83,8.83,0,0,0,1.82-1,8,8,0,0,0,.74-.59,1.48,1.48,0,0,0,.42-.64A1.71,1.71,0,0,0,38,64a1.54,1.54,0,0,0-.27-.43,1.52,1.52,0,0,1,.39.35,1.9,1.9,0,0,1,.37,1.4,1.84,1.84,0,0,1-.43.93,5.19,5.19,0,0,1-.75.73,7.06,7.06,0,0,1-1.94,1.15,5.92,5.92,0,0,1-1.11.33,3,3,0,0,1-1.19,0,2.13,2.13,0,0,1-1-.54,2.77,2.77,0,0,1-.57-.82,5.35,5.35,0,0,1-.37-1.37C31.08,65.42,31.07,65.23,31.07,65.23Z"/>
      <path class="f1e25a30-86eb-444b-897b-bf7260dafe16" d="M33,69.65l.23.36c.15.22.36.55.64.9a3.94,3.94,0,0,0,1.07,1,2,2,0,0,0,1.46.29A4.35,4.35,0,0,0,37.2,72l.81-.26a4.64,4.64,0,0,0,1.3-.65,2.26,2.26,0,0,0,.66-.79,1.6,1.6,0,0,0,.15-.38,1.09,1.09,0,0,1,0,.43,2.14,2.14,0,0,1-.51,1.05,3.83,3.83,0,0,1-1.34.94,8.16,8.16,0,0,1-1.75.61,2.62,2.62,0,0,1-1,0,2.54,2.54,0,0,1-.89-.43,3.46,3.46,0,0,1-1.08-1.3,6.35,6.35,0,0,1-.42-1.07C33,69.8,33,69.65,33,69.65Z"/>
      <path class="f1e25a30-86eb-444b-897b-bf7260dafe16" d="M40.8,75.3A1.89,1.89,0,0,0,41,75a.53.53,0,0,0,.06-.14s0-.07,0-.1,0,0,0-.08a2.77,2.77,0,0,0-.17-1.39c-.14-.43-.22-.75-.22-.75a2.81,2.81,0,0,1,.58.54,2.43,2.43,0,0,1,.43.73,1.84,1.84,0,0,1,.09,1,.57.57,0,0,1,0,.14.49.49,0,0,1,0,.11,2.09,2.09,0,0,1-.13.26,1.59,1.59,0,0,1-.33.39,2.27,2.27,0,0,1-.72.42,2.55,2.55,0,0,1-.76.18s.22-.24.54-.54A4.79,4.79,0,0,0,40.8,75.3Z"/>
      <path class="ad2cf994-a721-4196-a3b5-c02d6c3f4ca1" d="M20.12,39.14c.2-.07.41-.14.57-.21l.28-.1a.85.85,0,0,1-.16.27,1.25,1.25,0,0,1-.56.39,1.4,1.4,0,0,1-.69.06,1,1,0,0,1-.29-.11l.28-.1Z"/>
      <path class="a1c8101a-1be6-4383-a608-35a42ff01938" d="M19.67,44.43a2.48,2.48,0,0,0,1.38-.23,2.08,2.08,0,0,0,.33-.21,2.16,2.16,0,0,0,.27-.25,2.39,2.39,0,0,0,.4-.55,3,3,0,0,0,.24-.65,1.6,1.6,0,0,1-.05.73,2.28,2.28,0,0,1-.34.68,2.24,2.24,0,0,1-.3.32,2.6,2.6,0,0,1-.36.25,2,2,0,0,1-1.61.11,1.61,1.61,0,0,1-.63-.37A2.6,2.6,0,0,0,19.67,44.43Z"/>
      <path class="a1c8101a-1be6-4383-a608-35a42ff01938" d="M20.75,48.16a8.74,8.74,0,0,1,1-.37,7.28,7.28,0,0,1,1.07-.2,3.14,3.14,0,0,1,.51,0,4.3,4.3,0,0,1-.45.23,7.33,7.33,0,0,1-1,.36,7.42,7.42,0,0,1-1.07.21c-.3,0-.51,0-.51,0A4.3,4.3,0,0,1,20.75,48.16Z"/>
      <path class="a1c8101a-1be6-4383-a608-35a42ff01938" d="M21.07,51.6c.45-.17,1.07-.28,1.59-.5a2,2,0,0,0,.35-.2,2.06,2.06,0,0,0,.72-.82,1.21,1.21,0,0,0,.1-.52,1.73,1.73,0,0,0,0-.22,1.23,1.23,0,0,1,.13.2,1.09,1.09,0,0,1,.1.62,1.63,1.63,0,0,1-.35.82,2.38,2.38,0,0,1-.35.36,3.57,3.57,0,0,1-.45.27,5.29,5.29,0,0,1-1.74.3c-.47,0-.79.06-.79.06A3,3,0,0,1,21.07,51.6Z"/>
      <path class="a1c8101a-1be6-4383-a608-35a42ff01938" d="M24.39,55.24a4.41,4.41,0,0,0,.75-.4,1.76,1.76,0,0,0,.48-.51,1.13,1.13,0,0,0,.18-.5.92.92,0,0,0,0-.22.6.6,0,0,1,.1.21,1.29,1.29,0,0,1,0,.63,1.58,1.58,0,0,1-.47.77,3.06,3.06,0,0,1-.84.53,5.83,5.83,0,0,1-1.71.44,4.26,4.26,0,0,1-.8,0l.73-.31C23.26,55.71,23.83,55.48,24.39,55.24Z"/>
      <path class="a1c8101a-1be6-4383-a608-35a42ff01938" d="M24.2,59.41c.26-.12.56-.24.89-.37a9.4,9.4,0,0,0,1-.39,3.33,3.33,0,0,0,.46-.24,1.9,1.9,0,0,0,.66-.64,1.79,1.79,0,0,0,.18-.37,1.29,1.29,0,0,0,.08-.64,1.75,1.75,0,0,0,0-.26s.07.07.15.23a1.29,1.29,0,0,1,.13.74,1.81,1.81,0,0,1-.42,1,1.89,1.89,0,0,1-.44.4,3.35,3.35,0,0,1-.52.3,6.43,6.43,0,0,1-1.08.35l-.95.2c-.56.1-.94.13-.94.13A8.21,8.21,0,0,1,24.2,59.41Z"/>
      <path class="a1c8101a-1be6-4383-a608-35a42ff01938" d="M25.28,63a12.6,12.6,0,0,0,1.8-.84l.94-.49a1.09,1.09,0,0,0,.52-.58.69.69,0,0,0-.06-.58.41.41,0,0,0-.18-.18.52.52,0,0,1,.26.1.84.84,0,0,1,.29.7,1,1,0,0,1-.16.52,1.73,1.73,0,0,1-.39.42,6.81,6.81,0,0,1-1,.58,5.35,5.35,0,0,1-2,.66,2.59,2.59,0,0,1-1-.08l.26-.05C24.8,63.16,25,63.09,25.28,63Z"/>
      <path class="a1c8101a-1be6-4383-a608-35a42ff01938" d="M28,66.65l.57-.35.29-.21.28-.25a2.22,2.22,0,0,0,.4-.55,2.11,2.11,0,0,0,.2-.58,1.51,1.51,0,0,0,0-.47c0-.11,0-.19,0-.19a1.77,1.77,0,0,1,.13.15,1.1,1.1,0,0,1,.21.51,1.66,1.66,0,0,1-.07.78,1.92,1.92,0,0,1-.47.76,2.24,2.24,0,0,1-.34.27,2.32,2.32,0,0,1-.37.21,3.13,3.13,0,0,1-.68.22,4.61,4.61,0,0,1-.7.07l.16-.11Z"/>
      <path class="a1c8101a-1be6-4383-a608-35a42ff01938" d="M30.87,69.13c.27-.26.56-.5.76-.68a2.65,2.65,0,0,0,.23-.22.24.24,0,0,0,0-.14s.06,0,.07.13a.79.79,0,0,1-.07.41,2.62,2.62,0,0,1-.64.91,3.43,3.43,0,0,1-.89.62c-.14.06-.27.09-.35.12h-.15s.13-.15.31-.39A7.76,7.76,0,0,1,30.87,69.13Z"/>
      <path class="a1f29545-d04d-4eb7-8cad-aab1db18367f" d="M28.19,31.33A1.71,1.71,0,0,1,28.93,33l-.13.27-.57-1a2.54,2.54,0,0,1-1.78-.87l-.07,0A1.63,1.63,0,0,1,28.19,31.33Z"/>
      <path class="a1f29545-d04d-4eb7-8cad-aab1db18367f" d="M32.78,33.59l-.4.18c-.3-.39-.69-.76-1-1.16l.42-.17A3,3,0,0,1,32.78,33.59Z"/>
      <path class="a1f29545-d04d-4eb7-8cad-aab1db18367f" d="M34.19,35.4l.84,1a2.07,2.07,0,0,1,.5.84.66.66,0,0,1-.41.78,4.2,4.2,0,0,0-1.7-2.26C33.68,35.64,33.77,35.29,34.19,35.4Z"/>
      <path class="a1f29545-d04d-4eb7-8cad-aab1db18367f" d="M37.3,39.79c.38.34.41,1.09,0,1.28a2.72,2.72,0,0,0-.32-1,.87.87,0,0,0-.84-.45l-.22-.2A1.88,1.88,0,0,1,37.3,39.79Z"/>
      <path class="a1f29545-d04d-4eb7-8cad-aab1db18367f" d="M39.56,44l-1.29-1.67.21-.06A1.85,1.85,0,0,1,39.56,44Z"/>
      <path class="a1f29545-d04d-4eb7-8cad-aab1db18367f" d="M38.18,42.37h0c.08.19.15.39.22.59Z"/>
      <path class="a1f29545-d04d-4eb7-8cad-aab1db18367f" d="M38.15,42.18l.12.16-.06,0Z"/>
      <path class="a1f29545-d04d-4eb7-8cad-aab1db18367f" d="M29.82,34.44a1.31,1.31,0,0,1,.47,1.64A1.91,1.91,0,0,0,28.23,35l0-.21A1.25,1.25,0,0,1,29.82,34.44Z"/>
      <path class="a1f29545-d04d-4eb7-8cad-aab1db18367f" d="M30.42,37.16a3,3,0,0,1,1.09-.27,1.17,1.17,0,0,1,1,.49,3,3,0,0,1,.25.83,3.56,3.56,0,0,1,.17.8.59.59,0,0,1-.44.6A3,3,0,0,0,31.89,38c-.37-.45-1.48-.31-2,0C29.68,37.66,30.08,37.3,30.42,37.16Z"/>
      <path class="a1f29545-d04d-4eb7-8cad-aab1db18367f" d="M33.39,40.67a.76.76,0,0,1,.87.22,2.37,2.37,0,0,1,.43,1.89l-.6-1.14a1,1,0,0,0-.33-.42c-.51-.32-1.14.27-1.73.36A4.17,4.17,0,0,1,33.39,40.67Z"/>
      <path class="a1f29545-d04d-4eb7-8cad-aab1db18367f" d="M35.26,43.94a1.43,1.43,0,0,1,1.39.41,1.59,1.59,0,0,1-.54,2.12,8.2,8.2,0,0,0-.46-1.23A1.56,1.56,0,0,0,34,44.53,3.88,3.88,0,0,1,35.26,43.94Z"/>
      <path class="a1f29545-d04d-4eb7-8cad-aab1db18367f" d="M34,44.54h0l-.12.08,0,0C33.88,44.58,34,44.55,34,44.54Z"/>
      <path class="a1f29545-d04d-4eb7-8cad-aab1db18367f" d="M38.41,47.23A1.47,1.47,0,0,1,39,48a2.28,2.28,0,0,1-.61,1.92,5.42,5.42,0,0,0-.26-1.11,1.48,1.48,0,0,0-1.81-.94,4.43,4.43,0,0,1-.64.17,4.27,4.27,0,0,1,1.24-.95A1.38,1.38,0,0,1,38.41,47.23Z"/>
      <path class="a1f29545-d04d-4eb7-8cad-aab1db18367f" d="M38.5,51.16c.36-.24.81-.48,1.19-.27a1,1,0,0,1,.43.54,2.42,2.42,0,0,1-.58,2.63l.09-1.47a1.25,1.25,0,0,0-.16-.83c-.33-.42-1.23,0-1.7.24C37.83,51.62,38.18,51.37,38.5,51.16Z"/>
      <path class="b75476f9-831c-446d-8741-7226f6226a2e" d="M29.94,49.33A3.61,3.61,0,0,1,29.66,47a1.15,1.15,0,0,0,0-.58c-.1-.27-.38-.4-.61-.55a2.35,2.35,0,0,1-.84-2.77,3.87,3.87,0,0,1-1.76-3.31,2.3,2.3,0,0,0,0-.87c-.17-.41-.61-.62-1-.89a2.46,2.46,0,0,1-.86-2.42,2,2,0,0,1-.83-2.92h.08a39,39,0,0,0,3.58,7.2,10.57,10.57,0,0,1,.73,1.26,11.25,11.25,0,0,1,.51,1.55,55.11,55.11,0,0,0,3.11,7.76l0,.09A2.19,2.19,0,0,1,29.94,49.33Z"/>
      <path class="b75476f9-831c-446d-8741-7226f6226a2e" d="M31.89,50.51a.43.43,0,0,1,0,.11l-.05-.11Z"/>
      <path class="b75476f9-831c-446d-8741-7226f6226a2e" d="M34.9,57.14a0,0,0,0,0,0,0l0,0Z"/>
      <path class="b75476f9-831c-446d-8741-7226f6226a2e" d="M33.16,53.32s0,0,0,.07l0-.07Z"/>
      <path class="b75476f9-831c-446d-8741-7226f6226a2e" d="M40.65,70.75c-.11-.29-.43-.43-.69-.59a3.45,3.45,0,0,1-1.5-2.49,10,10,0,0,1,.14-3,2.18,2.18,0,0,1-2.15-2.61,1.18,1.18,0,0,0,.09-.61c-.06-.26-.32-.42-.54-.58a3.26,3.26,0,0,1-1.11-3.71l.49,1.08a23.45,23.45,0,0,0,1.9,3.57,15.79,15.79,0,0,1,1.82,2.8c.4,1,.46,2.07.84,3.06.29.77.78,1.46,1.08,2.24.57,1.48.46,3.24,1.42,4.51.39.51,1,1,.94,1.62a4.14,4.14,0,0,1-2.77-4.63A1.28,1.28,0,0,0,40.65,70.75Z"/>
      <path class="b75476f9-831c-446d-8741-7226f6226a2e" d="M33.15,55.72a5.24,5.24,0,0,1,0-2.33l1.72,3.75A1.89,1.89,0,0,1,33.15,55.72Z"/>
      <path class="b75476f9-831c-446d-8741-7226f6226a2e" d="M31.81,52.33a3.54,3.54,0,0,1,.06-1.71l.8,1.74c.15.32.3.64.44,1A1.29,1.29,0,0,1,31.81,52.33Z"/>
      <path class="b75476f9-831c-446d-8741-7226f6226a2e" d="M30.65,66.22a2,2,0,0,1,.09-2.11,3,3,0,0,1-1.8-4,2.36,2.36,0,0,1-1.84-2.31,4.12,4.12,0,0,0,0-1.16c-.19-.85-1.29-1.31-1.37-2.17,0-.38.14-.76.07-1.14s-.51-.79-.85-1.13a4,4,0,0,1-1-3.73,3.12,3.12,0,0,1-1.39-4.44c-.92-.83-1.93-1.92-1.67-3.13a5.33,5.33,0,0,0,.29-1.16,3.27,3.27,0,0,0-.72-1.5,4.36,4.36,0,0,1-.25-3.63c1,2.54,1.83,5.16,2.59,7.78.72,2.44,1.39,4.9,2,7.36a6.69,6.69,0,0,0,.75,2c.28.41.65.76.89,1.19a5.19,5.19,0,0,1,.44,1.13C28.69,59.82,32,65,33.5,70.79c.08.3-.08.8-.34.63a11.89,11.89,0,0,0-1.27-3.33A17.81,17.81,0,0,1,30.65,66.22Z"/>
      <path class="add81756-ce94-4277-8e1f-94b4a72ce2f7" d="M35,72.68c3,2.7,5.78,6,9.59,7.26,2.45.83,5.17.74,7.51,1.88a8.19,8.19,0,0,1,4.35,5.64,8,8,0,0,1-1.82,6.83,14.26,14.26,0,0,1-4.42,3,18.18,18.18,0,0,1-3.37,1.37c-5.6,1.48-11.53-2.18-14.94-7S27,81,24.8,75.48,15.14,61.66,10,58.93C12.15,58.62,27.57,66.91,35,72.68Z"/>
      <path class="b0872414-a956-4cc1-81e6-e306e1648314" d="M40.47,84.1c1.79,2.32,3.59,4.89,3.72,7.82s-.25,7-3.11,6.6a15.78,15.78,0,0,1-5-2.62,22.18,22.18,0,0,1-4.67-6.7c-4.36-8.82-7.08-19.78-14.7-25.93C26,68.09,34,75.75,40.47,84.1Z"/>
      <path class="e487c77e-2121-464b-87f7-e51eafdfbca0" d="M54.4,94.69a7.59,7.59,0,0,1-4,4.53c-2.7,1.38-4.25.55-6-.56l4.61-2.29C50.59,95.55,52.53,94.53,54.4,94.69Z"/>
      <path class="b0872414-a956-4cc1-81e6-e306e1648314" d="M53,97.28l0,.15a23.65,23.65,0,0,0,1.1,5.89.39.39,0,0,1,0,.28.37.37,0,0,1-.13.15,7.55,7.55,0,0,1-4.67,2,39.4,39.4,0,0,1-2.58-6A18.14,18.14,0,0,1,53,97.28Z"/>
      <path class="b36de857-e3eb-45fd-9307-82353e655e8c" d="M52.1,100.32A17.11,17.11,0,0,1,54,103.8a13.73,13.73,0,0,1-3.2,1.76,7.65,7.65,0,0,1-.29-5.94C51,99.43,51.8,99.9,52.1,100.32Z"/>
      <path class="ff78ceea-53ee-407c-b649-f5408ad38fe6" d="M44.14,90.24a19.27,19.27,0,0,0,.5-4.63c0,.39.94.66,1.32.65,3.26-.07,6.7-.35,9.37-2.2a9.76,9.76,0,0,0,3.74-7A30.52,30.52,0,0,1,59.76,86c-.42,3.86-2.67,6.27-4.77,8-2.4,2-1.9,1.43-4.33,2.68-3,1.55-8.72,4.15-9.86,1.63.83-1.5,1.27-2.54,2-4.18A18.57,18.57,0,0,0,44.14,90.24Z"/>
      <path class="eb8910b9-e722-41a2-a834-9e07ddd614fb" d="M55,94c-2.63,3.42-5.92,3.89-8.88,5.12.45.39.19.29.64.68a4.69,4.69,0,0,1-3.41-1.4A53.77,53.77,0,0,0,55,94Z"/>
      <path class="bc3caa34-3015-480f-9ebe-46b0dacc9eae" d="M17,62.63a16.06,16.06,0,0,1,4,1.81c.78.46,1.62,1,2.5,1.55s1.79,1.17,2.72,1.82c1.87,1.31,3.82,2.76,5.72,4.27s3.71,3.14,5.42,4.63,3.29,2.89,4.74,4c.73.54,1.4,1,2,1.43s1.16.75,1.62,1,.82.46,1.08.59l.38.2-.4-.17c-.26-.11-.65-.27-1.12-.51s-1-.53-1.69-.91-1.35-.82-2.1-1.34c-1.5-1-3.18-2.36-4.9-3.84s-3.56-3.06-5.45-4.56-3.8-3-5.64-4.31-3.57-2.54-5.09-3.52c-.77-.49-1.48-.91-2.13-1.25a12.31,12.31,0,0,0-1.74-.75,9,9,0,0,0-1.18-.34l-.42-.08.43,0A10.11,10.11,0,0,1,17,62.63Z"/>
      <path class="bc3caa34-3015-480f-9ebe-46b0dacc9eae" d="M21.27,66c.3.18.61.38,1,.58l1.08.66c.38.25.75.54,1.15.82s.82.58,1.23.91L27,70c.88.7,1.75,1.51,2.66,2.34s1.8,1.72,2.7,2.63l2.74,2.76c.92.93,1.82,1.87,2.74,2.76s1.83,1.75,2.73,2.56c.45.42.93.78,1.37,1.17s.87.76,1.32,1.08a27.73,27.73,0,0,0,2.56,1.81l1.18.76,1.1.59L49,89c.31.16.61.26.87.37l1.65.7-1.7-.58c-.27-.1-.58-.19-.89-.33l-1-.47-1.16-.54-1.21-.71a29.4,29.4,0,0,1-2.65-1.75c-.47-.31-.92-.68-1.38-1.05s-.94-.74-1.4-1.15c-.92-.82-1.87-1.66-2.78-2.56s-1.86-1.81-2.78-2.73L31.89,75.4c-.89-.92-1.8-1.8-2.66-2.66s-1.73-1.66-2.57-2.38l-1.23-1.07c-.4-.35-.81-.64-1.19-.94l-1.1-.86-1-.71-.91-.63c-.29-.19-.57-.33-.82-.48l-1.55-.9,1.61.79C20.68,65.69,21,65.82,21.27,66Z"/>
      <path class="bc3caa34-3015-480f-9ebe-46b0dacc9eae" d="M25.39,72.78c1.27,1.34,2.77,2.89,4.33,4.58l4.92,5.3c1.65,1.82,3.29,3.66,4.89,5.3a47.73,47.73,0,0,0,4.6,4.25c.72.58,1.4,1.07,2,1.49s1.17.76,1.64,1l1.1.59.39.2-.4-.17c-.27-.11-.67-.27-1.15-.51s-1.06-.55-1.71-.93a23,23,0,0,1-2.11-1.39,41.51,41.51,0,0,1-4.78-4.16c-1.64-1.63-3.3-3.45-5-5.25l-4.85-5.36c-1.55-1.71-3-3.34-4.19-4.71s-2.22-2.56-2.92-3.37l-1.1-1.29,1.19,1.2C23,70.35,24.12,71.44,25.39,72.78Z"/>
      <path class="bc3caa34-3015-480f-9ebe-46b0dacc9eae" d="M28.47,79.48l2.43,3.86c.88,1.42,1.81,2.93,2.83,4.38.5.72,1,1.44,1.56,2.12s1.1,1.33,1.66,1.93a23.3,23.3,0,0,0,3.39,3c.54.38,1,.7,1.52,1s.89.47,1.24.64c.71.32,1.13.48,1.13.48l-.31-.09c-.2,0-.5-.14-.87-.27a15.82,15.82,0,0,1-2.92-1.43,21.05,21.05,0,0,1-3.59-2.89,23.3,23.3,0,0,1-1.74-1.93c-.56-.69-1.09-1.41-1.61-2.14-2-3-3.71-6.11-5-8.43-.66-1.16-1.17-2.15-1.55-2.83L26,75.75s.24.37.68,1S27.76,78.35,28.47,79.48Z"/>
      <path class="ff78ceea-53ee-407c-b649-f5408ad38fe6" d="M40.2,95.3c2.63-3.77,3-8.73,2.59-13.37S41.29,72.69,41.32,68A28.41,28.41,0,0,1,46,52.64l-.17.31c1.08,1.26.59,3.16.19,4.77-2.35,9.4.75,19.35.65,29.08,0,4.23-1,8.91-4.37,11.3-.85.6-2.35,0-3.53-.55C37.81,97.12,39.6,96.16,40.2,95.3Z"/>
      <path class="add81756-ce94-4277-8e1f-94b4a72ce2f7" d="M44.05,90.62c1.1-4.49.41-9.23,0-13.87-1-11.5-.09-23.61,5.7-33.44,1.39-2.36,3.2-4.67,5.77-5.57-2.39,2.89-6.13,13.45-5,18.23,1.86,8,3.52,8.15,7.16,15.64,1.54,3.16,1.78,6.81,2.12,10.31a15.48,15.48,0,0,1-.32,5.88,13,13,0,0,1-4,5.74c-2.83,2.56-5.63,3.78-10,5.41-1.41.53-4.17.78-4.74-.65A35.5,35.5,0,0,0,44.05,90.62Z"/>
      <path class="ba718d4a-b946-4d23-b5fa-ff024bfd77f7" d="M46.28,97.29a16.51,16.51,0,0,0,1.56-2.46A9.84,9.84,0,0,0,49,91.28c.08-1.37.13-2.88.09-4.47s-.16-3.26-.32-5C48.48,78.35,48,74.68,47.47,71a84.15,84.15,0,0,1-.75-10.93,44.52,44.52,0,0,1,.34-5,39.67,39.67,0,0,1,.84-4.45A26.36,26.36,0,0,1,49.12,47l.32-.77c.12-.23.23-.46.34-.68a11.05,11.05,0,0,1,.63-1.2c.2-.35.37-.67.55-.94l.45-.67.37-.55-.34.57-.42.69-.5,1c-.2.36-.38.76-.58,1.21-.09.23-.2.46-.3.7s-.19.5-.29.77a33.71,33.71,0,0,0-1.09,3.62,40.23,40.23,0,0,0-.72,4.41c-.15,1.58-.23,3.25-.25,5s.09,3.52.23,5.34.37,3.66.59,5.5c.45,3.68,1,7.37,1.24,10.86.13,1.74.19,3.43.2,5s-.09,3.11-.21,4.52A10.09,10.09,0,0,1,48,94.92a17.15,17.15,0,0,1-1.66,2.43,11.14,11.14,0,0,1-1.32,1.37c-.33.28-.52.41-.52.41a5.54,5.54,0,0,0,.5-.44A10.12,10.12,0,0,0,46.28,97.29Z"/>
      <path class="ba718d4a-b946-4d23-b5fa-ff024bfd77f7" d="M52.08,95.28a16,16,0,0,0,2.85-5.37,12.65,12.65,0,0,0,.61-4,25.78,25.78,0,0,0-.49-4.51c-.29-1.56-.71-3.15-1.15-4.76S53,73.4,52.54,71.76s-.89-3.28-1.33-4.89S50.33,63.66,50,62.1a28.37,28.37,0,0,1-.74-4.57,22.59,22.59,0,0,1,.09-4.15,22.14,22.14,0,0,1,1.55-6,17,17,0,0,1,.73-1.57l.28-.54-.25.56c-.16.36-.38.9-.64,1.6a23.47,23.47,0,0,0-1.3,6,21.44,21.44,0,0,0,0,4.08A33.15,33.15,0,0,0,50.52,62c.37,1.54.83,3.12,1.28,4.73s.91,3.25,1.36,4.89.89,3.29,1.32,4.9.84,3.23,1.12,4.82A23.09,23.09,0,0,1,56,85.92a13.17,13.17,0,0,1-.72,4.1,15.6,15.6,0,0,1-1.5,3.17,14.92,14.92,0,0,1-1.6,2.17,10.32,10.32,0,0,1-1.26,1.19l-.49.37.47-.39A12.71,12.71,0,0,0,52.08,95.28Z"/>
      <path class="ba718d4a-b946-4d23-b5fa-ff024bfd77f7" d="M55.86,93.1a8.85,8.85,0,0,0,2-3,13.57,13.57,0,0,0,.72-2.28A21.11,21.11,0,0,0,59,85.21a21.43,21.43,0,0,0-.24-5.79,29.9,29.9,0,0,0-1.46-5.64C56.64,72,56,70.41,55.33,69.05s-1.16-2.5-1.55-3.28l-.6-1.25.71,1.19c.44.76,1.09,1.84,1.77,3.18a42.31,42.31,0,0,1,2.14,4.7,31.91,31.91,0,0,1,1.57,5.73,23,23,0,0,1,.16,6A15.94,15.94,0,0,1,59,88a14.83,14.83,0,0,1-.85,2.31,8.3,8.3,0,0,1-2.21,2.91,5.15,5.15,0,0,1-.85.58l-.32.17.3-.2A6,6,0,0,0,55.86,93.1Z"/>
      <path class="ff78ceea-53ee-407c-b649-f5408ad38fe6" d="M53.19,90.1A22.81,22.81,0,0,0,55.6,67.94,19.92,19.92,0,0,1,59.07,76c.1.7.14,1.9.3,2.59a24.69,24.69,0,0,1,.68,3.61,13.7,13.7,0,0,1-3.92,10.87c-2.27,2.26-5.25,3.63-8.16,5-2.11,1-4.38,1.64-6.58.92C46,96.87,50.2,94.19,53.19,90.1Z"/>
    </g>
  </g>
</svg>
