<svg xmlns="http://www.w3.org/2000/svg" xmlns:xlink="http://www.w3.org/1999/xlink" width="70" height="95" viewBox="0 0 70 95">
  <defs>
    <style>
      .a4896751-0c40-48f6-8497-40dec6fc1f17 {
        isolation: isolate;
      }

      .b6a9ad6b-93af-40a8-bbc1-27616faacb5d, .ba6a7112-c42d-44f9-9f46-3571eb0ec456 {
        fill: #74c03c;
      }

      .a160554a-18c9-410f-b75b-f92558360c08, .a68e01a4-be6a-46dd-833c-2b25f433bc20, .aeefc4fe-b2c1-4f17-9d06-dc4cef22368d, .b1b48f15-e129-4ff0-9cca-b01913a5bf6b, .b6a9ad6b-93af-40a8-bbc1-27616faacb5d, .bf4b4b4e-a25d-48e3-947d-33fe9506caf0 {
        stroke: #1e7248;
      }

      .a1046075-656e-45a4-ba0f-3d379cdb257c, .a160554a-18c9-410f-b75b-f92558360c08, .a68e01a4-be6a-46dd-833c-2b25f433bc20, .aeefc4fe-b2c1-4f17-9d06-dc4cef22368d, .b1b48f15-e129-4ff0-9cca-b01913a5bf6b, .b6a9ad6b-93af-40a8-bbc1-27616faacb5d, .bf4b4b4e-a25d-48e3-947d-33fe9506caf0 {
        stroke-miterlimit: 10;
      }

      .b552d1af-229f-4648-a2c2-c8556d1f217e {
        fill: #59a32d;
      }

      .bf4b4b4e-a25d-48e3-947d-33fe9506caf0 {
        fill: #89ca3c;
      }

      .b895c958-2c57-4082-838f-03e84e2fd7b1 {
        fill: #5eb137;
      }

      .bd628f34-bfec-4c47-bfa8-ba7beca83307 {
        fill: #40962d;
      }

      .aeefc4fe-b2c1-4f17-9d06-dc4cef22368d {
        fill: url(#b326b7a6-98d8-47f9-89f8-c94abaa26601);
      }

      .e12fe8b1-ac1e-41fe-8472-e39d834e2a9e {
        fill: #9ae34f;
      }

      .a4dadcfc-d2bf-44b2-9114-ffc78722c159, .e12fe8b1-ac1e-41fe-8472-e39d834e2a9e {
        opacity: 0.3;
        mix-blend-mode: multiply;
      }

      .b1b48f15-e129-4ff0-9cca-b01913a5bf6b {
        fill: url(#a51ea52e-7fb3-4a1a-9079-75502eb14b25);
      }

      .a160554a-18c9-410f-b75b-f92558360c08 {
        fill: url(#e121abb6-e15b-435d-ac35-0c7609484909);
      }

      .a68e01a4-be6a-46dd-833c-2b25f433bc20 {
        fill: url(#b5fd789a-c4a5-44ce-8ca4-f67c3c27eed2);
      }

      .f1d9ab51-3a43-40a7-bd21-24e9ce11b00a {
        fill: #fff;
        opacity: 0.4;
      }

      .a4dadcfc-d2bf-44b2-9114-ffc78722c159 {
        fill: #9ac04f;
      }

      .be20d29c-0e41-4d0a-83f7-8f87a8741780 {
        fill: #ffff9f;
        opacity: 0.2;
        mix-blend-mode: color-dodge;
      }

      .a1046075-656e-45a4-ba0f-3d379cdb257c {
        stroke: #37a53f;
        fill: url(#ff466cdb-b35b-4693-8e14-c9c990518ab4);
      }
    </style>
    <linearGradient id="b326b7a6-98d8-47f9-89f8-c94abaa26601" x1="-85.38" y1="189.47" x2="-85.38" y2="141.85" gradientTransform="translate(144.68 -92.93) rotate(3.46)" gradientUnits="userSpaceOnUse">
      <stop offset="0" stop-color="#bef483"/>
      <stop offset="1" stop-color="#85d02c"/>
    </linearGradient>
    <linearGradient id="a51ea52e-7fb3-4a1a-9079-75502eb14b25" x1="-109.14" y1="189.04" x2="-109.14" y2="151.89" xlink:href="#b326b7a6-98d8-47f9-89f8-c94abaa26601"/>
    <linearGradient id="e121abb6-e15b-435d-ac35-0c7609484909" x1="-110.44" y1="189.54" x2="-110.44" y2="115.65" gradientTransform="translate(144.68 -92.93) rotate(3.46)" gradientUnits="userSpaceOnUse">
      <stop offset="0" stop-color="#d5ff9f"/>
      <stop offset="0.99" stop-color="#86da2c"/>
    </linearGradient>
    <linearGradient id="b5fd789a-c4a5-44ce-8ca4-f67c3c27eed2" x1="-85.46" y1="189.35" x2="-85.46" y2="117.06" xlink:href="#e121abb6-e15b-435d-ac35-0c7609484909"/>
    <linearGradient id="ff466cdb-b35b-4693-8e14-c9c990518ab4" x1="-101.72" y1="189.61" x2="-101.72" y2="113.47" gradientTransform="translate(144.68 -92.93) rotate(3.46)" gradientUnits="userSpaceOnUse">
      <stop offset="0" stop-color="#fdffc7"/>
      <stop offset="0.99" stop-color="#9ee62c"/>
    </linearGradient>
  </defs>
  <g class="a4896751-0c40-48f6-8497-40dec6fc1f17">
    <g id="b9143bc1-1525-4e8b-b475-e27792dacc45" data-name="Layer 1">
      <g>
        <path class="b6a9ad6b-93af-40a8-bbc1-27616faacb5d" d="M20.89,56c.33-4.18,1-11.48-3-14.25-1.55-1-3.39-.65-4.26-2.39-.53-1,.47-1.19-.87-2C12,37,10.66,37.18,9.81,37c-1.93-.42-4-2-2-4-2-1.15-4.22-4.84-2.16-4.92C5,26.84,3.9,25.94,4,24.41c.09-1.7,1.3-1.72,1.94-2.92,1.14-2.12.06-5,3.58-3.83.06-2.7,2.53-5.36,5.25-4,2-4.26,5.85,1,7.07,3.09,2.83,4.78,2.56,10.34,2.45,15.68a105.17,105.17,0,0,1-1.32,15c-.31,1.79.6,5.19.18,6.95Z"/>
        <path class="b552d1af-229f-4648-a2c2-c8556d1f217e" d="M24.28,32.41c.11-5.34.38-10.9-2.45-15.68-.16-.27-.37-.6-.61-1-.81.19-1.71.58-2.39.7-.2-3.26-5.13-2.34-6.06-.36C11,18.84,6.78,21,8.15,25.17c.72,1.67,1.81,3.76,4.21,4.31a2.78,2.78,0,0,0-1.43,3.57c.68,2.08,2.71,2.2,4.25,3.51,0,.41-.88,1.16-.5,1.6,4.32,1.73,6.5,5.68,8.17,9.82,0-.18.07-.35.11-.53A105.17,105.17,0,0,0,24.28,32.41Z"/>
        <path class="b6a9ad6b-93af-40a8-bbc1-27616faacb5d" d="M37.79,13.66c-.67-.64,3.64-2.38,4.15-2.42A8.75,8.75,0,0,0,44,11.19c1.08-.34,1.74-1.43,3-1.55,1.44-.13,1.36,1,2.34,1.43,1.64.66.93-1.13,1.68-2.17s2.43-1,3.56-.46C57.27,9.82,54.35,14,57,14.89c2,.67,5.73-2.08,5.43,1.95-.06.71-.59,2.46,0,3,.81.69,2-.53,2.91.07,1.38.87.27,2.6,0,3.73S65.28,26,65,27.1c-.46,1.59-1.79,1.81-2.89,2.85-3.32,3.14-7.64,1.94-10-2-1-1.73-1.35-3.71-2.91-5.1-1.95-1.73-4.5-2.69-6.5-4.39a33.08,33.08,0,0,1-2.95-3Z"/>
        <path class="bf4b4b4e-a25d-48e3-947d-33fe9506caf0" d="M15.13,19.5c1-2.71-1.29-3.93-1.1-6.32.29-3.64,3.3-.89,4.87-1.56,1-.44.32-1.22,1.53-1.4s1.23,1.5,2.1-.38-.07-5,3.2-5.51C27.27,4.11,28,5.9,29.2,6.41,31,7.18,30.92,4.6,32.81,5.1c1.42.37,1,2.4,2.35,2.58s3-2.2,4.34-2.58c2.45-.69,2.7,1.83,3.62,3.46,1.55,2.78,3.57.33,6,1.36,2.77,1.16,4.43,7,2,9-2.23,1.77-5.52,2-8.22,2.55a60,60,0,0,1-24-.5Z"/>
        <path class="b895c958-2c57-4082-838f-03e84e2fd7b1" d="M41,16.6c.33-1,1.12-2.46,2.27-2.67s1.56.77,2.57,1c1.18.23,1.76-.7,2.77-.7,1.58,0,1.09,1.09,2.16,1.72,1.34.78.93-.36,2.36-.41,1.63-.06.87,1,1.92,1.73s2.19-.32,3.05.32c1.17.88-.09,1.49.27,2.41s2,.8,2.5,1.77-.22,2.21-.6,3.15c1.65.57,3.86,2.17,3.09,4.16-.69,1.75-4.16,3-5.49,4.51-2.16,2.41-4.12,3.13-7,1.21-2.07-1.4-5.13-3.29-6.44-5.45s-.93-4.85-2.63-7.09Z"/>
        <path class="bd628f34-bfec-4c47-bfa8-ba7beca83307" d="M58.86,26.21c-.71-1.67-2.09,1.09-3,1.85-.43.38-.79-.45-1.19-.48-.33-1.24,1.38-2.76.65-4-.76-.86-2,.28-2.43-.15C52.63,21.77,54,19,52,18.08c-2.78-1-4.88.11-7,2,0-.81.5-1.6.12-2-1.67-1-2.69.77-3.6,2.26l.28,1.89c1.7,2.24,1.24,4.83,2.63,7.09s4.37,4.05,6.44,5.45c2.85,1.92,4.81,1.2,7-1.21a26.56,26.56,0,0,1,3.8-2.71C59.81,30.4,59.81,28,58.86,26.21Z"/>
        <path class="ba6a7112-c42d-44f9-9f46-3571eb0ec456" d="M21.14,14c1.84.22,1.18,1.1,2.37-.48.27-.36,0-1.22.6-1.45s.65.55,1.09.59c1.9.18,1.11.4,2-1.59.55.09,1.2,0,1.72,0,.35-1,.51-3.49,2.18-2.66,1.21.59.2,2.81,2.13,2.55,1.35-3.32,3.07.56,4.44.73,1,.13,1.2-1.23,2.57-.63s3.24,5.87,2.6,7.1c-.92,1.78-3.85.91-5.32,2.11-1.86,1.53-2.27,3-5.07,3.3-2.11.25-4.17-.95-6.22-1.2-1.84-.22-4.18.53-5.85-.48C18.15,20.55,17.4,13.51,21.14,14Z"/>
        <path class="bd628f34-bfec-4c47-bfa8-ba7beca83307" d="M40.41,15.75c-1.93-1.74-3.5-2.65-6-.77-.31-1.65-1-3.72-2.66-3,0,.41-1.27.74-.91,1.57-2-.93-2.86.23-3.36,1.83-.78-.45-1.14-1.29-2-.93s-.1,1.62-.53,2c-1.67.71-2.43-.15-3.34,1.42A6.75,6.75,0,0,0,22,22.39c1.39.15,2.94-.18,4.24,0,2.05.25,4.11,1.45,6.22,1.2,2.8-.34,3.21-1.77,5.07-3.3,1.47-1.2,4.4-.33,5.32-2.11a2.74,2.74,0,0,0,0-1.57,2,2,0,0,0-.41-.72C42,15.85,41.29,14.58,40.41,15.75Z"/>
        <path class="aeefc4fe-b2c1-4f17-9d06-dc4cef22368d" d="M39,90.5c4.84-3.13,4.58-10.32,5.2-15.44A53,53,0,0,1,46.65,64a15.32,15.32,0,0,1,2-3.89c.64-.89-.34-2.45.26-3.12,1.33-1.51,1.57-4.69,3.76-5.37-.73-2.91.53-3.24,1.87-5.35.6-1,.47-2.07,1.93-2.35.78-.15,2.16.18,1.61,1.22,2.92-.92,1.31,3.39.63,4.4,1.65,1.3.38,4.22-1.5,4.62.73,1.25-1.29,2.38-2,3.17a6.74,6.74,0,0,0-1.56,3.15c-.52,2.59-1.55,4.86-2.2,7.39-1.51,5.86-2.24,11.88-4.52,17.55-1.11,2.77-2.6,4.21-5.64,4.62Z"/>
        <path class="e12fe8b1-ac1e-41fe-8472-e39d834e2a9e" d="M53.83,51.62c.81-1.09,1.54-2.41.83-3.3a1.65,1.65,0,0,0-1.17-.67,5.74,5.74,0,0,0-.83,1.27,1.08,1.08,0,0,1,.18-.11l.87.65a5.71,5.71,0,0,1-.58,1c-.18.26-.37.52-.57.76,0,.12,0,.24.08.37a2.23,2.23,0,0,0-.62.3c-.16.18-.31.36-.46.55-.41.5.27,1.17.79.9,1.26-.64,1.53-.53.87.72a6.29,6.29,0,0,1-1.47,1.81A.64.64,0,0,0,52,57c1.75.74-2.33,4.13-3,4.91-1.65,1.89-2.48,5.53-2.86,7.94-.65,4-.79,8-1.13,12a16.71,16.71,0,0,1-2.73,8,5.92,5.92,0,0,0,2.5-1.17,18.13,18.13,0,0,0,1.74-5.1A41.22,41.22,0,0,0,47,76.84c.13-2.51.62-5,.9-7.52a16,16,0,0,1,2-6.54,23.2,23.2,0,0,1,2.4-2.57c1.07-1.22,2-2.86.89-3.93A5.66,5.66,0,0,0,55,52.78C55,51.87,54.47,51.6,53.83,51.62Z"/>
        <path class="b1b48f15-e129-4ff0-9cca-b01913a5bf6b" d="M35.44,89.37c-3.14,1.41-6.86-1.53-8.38-4-1.92-3.1-2.45-6.72-4-10a14.17,14.17,0,0,0-2.87-4.17c-1.21-1.11-2.09-1.75-2.54-3.44a2.8,2.8,0,0,1-.09-2c.21-.41,1-.51,1.15-.93.29-1.16-1.7-1.66-2.36-2.34a3.87,3.87,0,0,1-1.09-4.16c.32-.7,1.07-2.08,1.89-2.26-.47-1-1.67-4.2,0-4.6.75-.18,1.56.95,2.13,1.26a3.67,3.67,0,0,0,2.14.34c3.46.05,4.55,3.26,4.8,6.37.31,4-.12,7.2,1.66,10.9,1.2,2.5,2.31,5.07,3.58,7.53Z"/>
        <path class="e12fe8b1-ac1e-41fe-8472-e39d834e2a9e" d="M21.68,65.54a3.45,3.45,0,0,0-.62-1.24,7.09,7.09,0,0,1-1.4-3.9,5,5,0,0,1,2.47-4.92.14.14,0,0,0-.06-.26c-3.59-.12-4,5.14-3,7.69.62,1.59,1.08,2.49.63,4.22A11.13,11.13,0,0,0,19.19,70c0,.11,0,.21,0,.31.29.28.62.57,1,.89a11.45,11.45,0,0,1,2,2.56c-.28-1.24-1-2.32-1.12-3.64C21,68.56,22,67.19,21.68,65.54Z"/>
        <path class="a160554a-18c9-410f-b75b-f92558360c08" d="M40.35,90.48c-5.79.35-7.73-1.13-10.15-6a126.85,126.85,0,0,1-5.53-13.12C24,69.51,22.59,68,22.28,66.09c-.37-2.31.1-4-.64-6.31-1.38-4.38.92-7.94.17-12.5-.28-1.75-.57-5.31-1.54-6.66-1.59-2.22-3.69-1.51-.63-4.57-.88-.37-2.64.62-5.09-.75-1.82-1-3.08-2.82-2.09-4.08s3.55-.56,2.15-2a7.87,7.87,0,0,0-2-1.41C10.38,26.47,8.77,24.71,10,22c.67-1.5,1.93-1.53,2.82-2.62s.47-1.87,1-2.77c2.1-3.29,3,0,5.92.52,0-.49.39-1,.36-1.53,2.51-.13,1.72,2.62,3.89,3.17,5.29-4.17,6.34,2.2,9,5.35,1.79,2.08,4.14,3.14,4.19,6.24,0,2.88-2.26,5.21-1.81,8.18s2.85,5.08,3.52,7.9.07,6.1-.39,9c-1,6-2.68,10.89-1.68,17,.88,5.42,2.5,10.64,3.38,16Z"/>
        <path class="e12fe8b1-ac1e-41fe-8472-e39d834e2a9e" d="M22.65,20.76A2.34,2.34,0,0,0,23,22c-1.6-.5-3.24-.19-3.69.59C16.46,28.92,21.9,32.91,26.18,36c-.81,0-2.05.28-2.07.68-1.08,4.41,4.13,5.54,5.15,8.85,1.75,4.57-1.37,9.25,0,13.4a12.24,12.24,0,0,1,.57,4.1c-2.57,10,3.1,18.9,7.84,27.44a19.9,19.9,0,0,0,2.68,0l-.08-2c-.88-5.39-2.5-10.61-3.38-16-1-6.11.73-11,1.68-17,.46-2.9,1.09-6.09.39-9s-3.09-5-3.52-7.9,1.86-5.3,1.81-8.18c0-3.1-2.4-4.16-4.19-6.24-2.33-2.72-3.43-7.85-7.1-6.5C25.62,19.38,25.64,20.94,22.65,20.76Z"/>
        <path class="a68e01a4-be6a-46dd-833c-2b25f433bc20" d="M41.93,24.1c1.29-3.27,3.22-2.28,5.59-2.91.26-.85,2.14-4,4.47-1.73,1.08,1.06-.43,2.11,0,3.07s1.23.79,1.45,1.23c1.18,2.29,0,1.73-.31,4.35-.24,1.68,1.21,3.48,3.48,2,1.38-.88-.12-3.47,2.6-2.35.87.36.41,2.06,1.12,2.42s1.55-1,2-.76c4.36,2.63-2.13,6.83-4.22,8.22-1.41.93-3.63,2.71-3.9,4.54-.4,2.79-.15,1.13,2.13,2,1.73.65-2.17,3.73-4,8.63-1.13,3-2.36,9.35-3.52,12-3.3,7.48-1.39,14.06-5.11,21.42-4.66,9.26-4.79,1.48-6.31-5.41C35.44,72.21,38.4,65.34,40,57.08s-.29-16.69.38-25c.07-.89.16-1.78.26-2.66Z"/>
        <path class="e12fe8b1-ac1e-41fe-8472-e39d834e2a9e" d="M48.6,54.83c2.12-1.5.67-4.43,1.23-6.83,0-.41,1.31-1.55,1.33-2,.17-2.83-1.35-4.55.06-7.71-.81-.05-.73-1.27-1.52-1.72.89-1.17,2.55-1.88,1.84-3.55-.78-.45-2.4-.55-2.38-1-.64-2.88,4.32-4.21,3.3-7.52-.89-2.69-3.13-2.9-5-3.4-2.35.61-4.26-.35-5.54,2.9L40.6,29.37c-.1.88-.19,1.77-.26,2.66-.67,8.36,1.18,16.76-.38,25S35.44,72.21,37.34,80.8c1.42,6.42,1.62,13.61,5.42,7.07C37.53,76.8,38,63.57,48.6,54.83Z"/>
        <g>
          <path class="f1d9ab51-3a43-40a7-bd21-24e9ce11b00a" d="M34.33,87.93a35.39,35.39,0,0,1-3.82-6.33c-1.43-3-2-6.33-2.73-9.62a.2.2,0,0,0,.07-.18c-.27-2.76-.8-5.48-1-8.26a45.93,45.93,0,0,1,.44-8.37c0-.1-.14-.13-.17,0a33.71,33.71,0,0,0-1,10.8A22.53,22.53,0,0,1,25,60.11a48.2,48.2,0,0,1,.67-6.78c.57-5-1.47-9.79-2.91-14.49,0-.05-.09,0-.08,0,1.53,5.53,3.35,10.61,2.1,16.39A22.89,22.89,0,0,0,24,61.45a31.48,31.48,0,0,0,1.51,6.91c1.32,4.58,1.9,9.43,3.83,13.82a28,28,0,0,0,4.74,7.31,6.93,6.93,0,0,0,2.17.81C35.63,89.51,35,88.74,34.33,87.93Z"/>
          <path class="f1d9ab51-3a43-40a7-bd21-24e9ce11b00a" d="M40.35,90.48l-.08-2c-.39.68-.8,1.35-1.21,2C39.47,90.52,39.9,90.51,40.35,90.48Z"/>
        </g>
        <path class="f1d9ab51-3a43-40a7-bd21-24e9ce11b00a" d="M48.54,58a50.41,50.41,0,0,0-4.15,12.7c0-.84,0-1.68,0-2.49,0-2,0-4,0-6a.09.09,0,0,0-.18,0c-.19,1.72-.39,3.44-.57,5.17s-.51,3.76,0,5.42A.26.26,0,0,0,44,73c-.12.68-.23,1.36-.33,2-.24,1.66-.47,3.33-.74,5a34.57,34.57,0,0,1-.7-3.42,62.63,62.63,0,0,1-.27-7.38.09.09,0,0,0-.18,0,46.37,46.37,0,0,0-.35,7.45,13.44,13.44,0,0,0,1.08,5.6c-.18.88-.38,1.75-.62,2.62a19.25,19.25,0,0,1-2.39,4.94c.31.49.67.71,1.12.55,2.38-3.66,3.32-7.87,4-12.36,1-6.69,1.7-13.58,4.12-19.94A.08.08,0,0,0,48.54,58Z"/>
        <path class="a4dadcfc-d2bf-44b2-9114-ffc78722c159" d="M28.27,55.22A4.17,4.17,0,0,0,29,52.5a6.64,6.64,0,0,0-.89-2.68c-1-1.84-2.6-3.37-3.26-5.36a9,9,0,0,1,.35-4.91,24.53,24.53,0,0,0,1.16-5.21,6.34,6.34,0,0,0-1.9-5,21.36,21.36,0,0,0-4.71-2.93A12.07,12.07,0,0,1,15.34,23a7.33,7.33,0,0,1-1.15-6.26,16.88,16.88,0,0,1,2.69-5.21A3.36,3.36,0,0,0,15,11.33c-.8.29-.95,1.31-1,2-2.52-.62-4.47,2-4.52,4.29-.91-.3-2.12-.54-2.61.51s-.4,2-.79,2.94a3.53,3.53,0,0,1-1,1.35,2.85,2.85,0,0,0-1,1.37c-.45,1.7.82,2.91,1.55,4.28-1.19.05-.8,1.36-.45,2.06A7.19,7.19,0,0,0,7.78,33a1.92,1.92,0,0,0-.57,2.35,3.62,3.62,0,0,0,2.07,1.47,21.23,21.23,0,0,0,2.86.33c.62.12,1.42.53,1.32,1.25-.26,2,2.15,2.33,3.47,2.84a6.21,6.21,0,0,1,3.39,3.85,15.91,15.91,0,0,1,.82,5c0,.83,0,1.67,0,2.5,0,.18,0,.36,0,.55-.23,0-.46,0-.69,0a2.64,2.64,0,0,1-1.27-.43c-.55-.38-1.08-1.18-1.81-1.19a1.11,1.11,0,0,0-1,1.07,6.62,6.62,0,0,0,.83,3.55c-.78.17-1.31,1.14-1.66,1.79a3.34,3.34,0,0,0-.32,2.69,4.23,4.23,0,0,0,1.58,2.26,6.53,6.53,0,0,1,1.76,1.2.91.91,0,0,1,.2.82c-.09.34-.59.48-.86.65-.87.55-.29,2.12,0,2.87a6.06,6.06,0,0,0,1.68,2.21,13.77,13.77,0,0,1,2.23,2.47c1.78,2.66,2.56,5.73,3.65,8.7s2.58,5.52,5.34,7.05c-2.27-4.22-3.5-8.88-4.8-13.46a38.06,38.06,0,0,1-1.72-7,17.42,17.42,0,0,1,.84-6.91A23.93,23.93,0,0,1,28.27,55.22Z"/>
        <path class="be20d29c-0e41-4d0a-83f7-8f87a8741780" d="M65.36,19.88c-.93-.6-2.1.62-2.91-.07-.61-.51-.08-2.26,0-3,.3-4-3.39-1.28-5.43-1.95-2.65-.88.27-5.07-2.47-6.45-1.13-.57-2.75-.66-3.56.46-.44.6-.38,1.46-.58,1.95a3.68,3.68,0,0,0-1.27-.93,3.54,3.54,0,0,0-1.66-.26,2.09,2.09,0,0,0-.51,0,2.23,2.23,0,0,0-.65.18c-1.21.2-2.27.36-3.18-1.26S42,4.41,39.5,5.1c-1.34.38-3,2.78-4.34,2.58s-.93-2.21-2.35-2.58C30.92,4.6,31,7.18,29.2,6.41,28,5.9,27.27,4.11,25.73,4.33c-2.09.31-2.45,1.68-2.67,3.14,3.66.85,6.84,2.93,10.26,4.6,2.73,1.79,6.47.39,9.21,2.18,6.28,3.63,7,11.8,4.94,19-.45.79.69,2.08.61,3.29-.13,8.93-1.79,16.14-.33,25.57,1.15,5.73.09,11.77,1,17.56,1-3.9,1.66-7.88,2.67-11.79.65-2.53,1.68-4.8,2.2-7.39a6.74,6.74,0,0,1,1.56-3.15c.68-.79,2.7-1.92,2-3.17,1.88-.4,3.15-3.32,1.5-4.62.68-1,2.29-5.32-.63-4.4.55-1-.83-1.37-1.61-1.22a2.91,2.91,0,0,0-.52.16c-1.94-.57-2.14.77-1.77-1.87.27-1.83,2.49-3.61,3.9-4.54,2-1.33,8-5.18,4.77-7.82a2.78,2.78,0,0,0,.53-.8v0A3.26,3.26,0,0,0,65,27.1c.32-1.12.09-2.34.38-3.49S66.74,20.75,65.36,19.88Z"/>
        <path class="a1046075-656e-45a4-ba0f-3d379cdb257c" d="M34,80.89c-1.26-4.55-2.92-8.94-2.29-13.68.33-2.47-.39-4.23.5-6.49,1.22-3.08.14-3.83-.19-6.72-.29-2.52,1.26-4,.52-6.67A13.49,13.49,0,0,0,31.3,44.1c-1.25-2-.52-1-2-1.42-4.23-1.33-2.82-4.55-1.81-5.58s2.71.77,2.81-1.27-1.93-2.1-3.32-2.44c-3.59-.87-5.93-1.16-6.5-5.43A5.18,5.18,0,0,1,22,24.24c1.74-1.79,4,2,5.19,1.6.74-.25-2.35-3-.88-4,.49-.34,1.16.24,1.71.66-.79-3-2.34-6.24,1.3-8.14,2.3-1.19,2.9.18,5,.63,1.68.37,2.82-.76,4.31-.55,2.28.31,4.38,3.6,5.07,5.47.77,2.08-.79,1.67,1.48,2.72,1.65.76,3.8-.28,5,1.69,2.4,4-3.93,4.67-5.32,7.1,1.31.4,4.5,1.72,2,3.19,2.36,1.84,1,2.78-.2,4.43.77-1,2.29,2.39,1.78,3.45-.86,1.75-2.7.51-2.18,3.28.29,1.56,2.06,2.71,1.92,4.55-.23,3.11-2.91,6.47-4.92,8.71-4.53,5-5.34,15.2-4.16,21.63.58,3.2,4.72,9.63,1.21,10C37,91,35.28,85.44,34,80.89Z"/>
        <path class="f1d9ab51-3a43-40a7-bd21-24e9ce11b00a" d="M41.26,90.17c-.91-1.71-2.15-3.34-3-5a21.66,21.66,0,0,1-2.32-10.27c.06-4.79,1.33-9.48,2.57-14.13,1.34-1.65,2.07-3.9,2.86-5.84a32.94,32.94,0,0,0,1.91-7.18c0-.09-.12-.11-.14,0-.66,2.38-1.53,4.69-2.42,7-.43,1.1-1,2.18-1.48,3.29.21-.81.4-1.63.59-2.44a43.11,43.11,0,0,0,1.08-8.78c1.45-2.94,1.81-6.55,1.92-9.76a.06.06,0,0,0-.11,0,52.52,52.52,0,0,1-1.82,8.05,37.56,37.56,0,0,0-.49-5.26c1.3-1.44,1.31-4.32,1.33-6.12a41.67,41.67,0,0,0-1.16-8.6c0-.08-.13,0-.13,0a52.1,52.1,0,0,1,.44,7.8,35,35,0,0,1-.31,3.54,18.61,18.61,0,0,1-.44,1.89C39,32.76,36.41,27.5,33.82,22.49c0-.07-.14,0-.11.06A80.49,80.49,0,0,1,39,38c-1.6-4-5-7.08-8.58-9.46a.05.05,0,0,0-.05.09A26.53,26.53,0,0,1,36,33.69c1.59,2,2.41,4.39,3.51,6.66a32.43,32.43,0,0,1,.4,5.54c-1.22-2.37-4.22-4.71-5.38-6,0,0-.11,0-.07.07,1,1.3,2.09,2.48,3.09,3.76a13.52,13.52,0,0,1,1.64,2.7,14.46,14.46,0,0,1,.55,2.77c-.13,1.34-.32,2.68-.55,4a13.46,13.46,0,0,0-2.33-4.77s-.11,0-.08.05a12.77,12.77,0,0,1,1.64,4c.24,1.09.12,2.22.25,3.31-.25,1.18-.54,2.36-.84,3.54-1.53,6-3.3,12-2.88,18.23a22.27,22.27,0,0,0,2.36,8.09,29.09,29.09,0,0,0,2.89,5A1.51,1.51,0,0,0,41.26,90.17Z"/>
      </g>
    </g>
  </g>
</svg>
