<svg xmlns="http://www.w3.org/2000/svg" width="128" height="100" viewBox="0 0 128 100">
  <defs>
    <style>
      .a75aa6ce-0573-4145-bd8b-8c4e6629c26c {
        isolation: isolate;
      }

      .a8b06c45-bb74-4559-b160-6eb20705eed5 {
        fill: #3e7f00;
      }

      .b147373a-6011-43d5-a17b-84210e3f4714, .be393140-738b-48f6-89b8-323a7e6d522f {
        opacity: 0.2;
        mix-blend-mode: overlay;
      }

      .a165e2b4-5a40-4ff9-9ad5-01fd9470448b, .a9b8848f-44c0-4b26-b96e-0b4e3fb050b8, .b7c3a5cf-29b6-455e-933b-9886fccb2790, .be393140-738b-48f6-89b8-323a7e6d522f, .e51e9c2f-a3af-4193-acc4-b61d35d9460e, .f2d297b8-8422-4f70-9513-c3e4ea8911d2, .f6aaf6e0-09e4-4db5-a019-ef6bdb8777ea {
        stroke: #296037;
        stroke-width: 0.5px;
      }

      .a165e2b4-5a40-4ff9-9ad5-01fd9470448b, .a52501be-b192-462f-8f21-6f0955942361, .a9b8848f-44c0-4b26-b96e-0b4e3fb050b8, .b7c3a5cf-29b6-455e-933b-9886fccb2790, .be393140-738b-48f6-89b8-323a7e6d522f, .e51e9c2f-a3af-4193-acc4-b61d35d9460e, .f2d297b8-8422-4f70-9513-c3e4ea8911d2, .f6aaf6e0-09e4-4db5-a019-ef6bdb8777ea {
        stroke-miterlimit: 10;
      }

      .b4174e08-8a08-4b84-89b8-ac0f05973821, .e51e9c2f-a3af-4193-acc4-b61d35d9460e {
        fill: #89b71a;
      }

      .f6aaf6e0-09e4-4db5-a019-ef6bdb8777ea {
        fill: #448c04;
      }

      .a6d39df4-b90a-4ef9-8425-a17ad62986cd {
        opacity: 0.3;
      }

      .f2dff4ec-ab55-4d04-9759-fe7308b4c3e2 {
        fill: #b2ed40;
      }

      .b2167ce0-f566-4edd-803b-71a5e2304c70, .b7c3a5cf-29b6-455e-933b-9886fccb2790 {
        fill: #94cc27;
      }

      .f2d297b8-8422-4f70-9513-c3e4ea8911d2 {
        fill: #4d9e0e;
      }

      .a165e2b4-5a40-4ff9-9ad5-01fd9470448b {
        fill: #9bdb35;
      }

      .a9b8848f-44c0-4b26-b96e-0b4e3fb050b8, .b98529f5-abc7-435d-9ea4-9fea3a266cb9 {
        fill: #b9ed54;
      }

      .efb03173-0c48-435c-88ec-2161d2c1a697 {
        fill: #5aad12;
      }

      .a52501be-b192-462f-8f21-6f0955942361 {
        fill: #d9194d;
        stroke: #9e2b33;
        stroke-width: 2px;
      }

      .b2de6425-bea9-46d0-a8d8-b761cbabcb64 {
        fill: #f16a73;
      }

      .a6b833c0-58e0-4172-a66c-dd5397012758, .add207eb-07b5-4486-820c-4c0d0371ac28 {
        fill: #ebc9cd;
      }

      .a6b833c0-58e0-4172-a66c-dd5397012758 {
        opacity: 0.62;
      }

      .fe74c7b7-0e35-4614-b44a-9cd77cf0de8e {
        fill: #523119;
        opacity: 0.19;
        mix-blend-mode: multiply;
      }

      .a59018f9-fec3-41aa-b3f7-7ed77b55f36e {
        fill: #ecccb4;
        opacity: 0.24;
        mix-blend-mode: hard-light;
      }

      .e14b405d-2451-44c5-9fa2-7477471c018a {
        fill: #e9e9e9;
        opacity: 0.63;
      }
    </style>
  </defs>
  <g class="a75aa6ce-0573-4145-bd8b-8c4e6629c26c">
    <g id="b6cbe213-d859-40a8-aa77-c2ffaa777fb2" data-name="Layer 1">
      <g>
        <g>
          <path class="a8b06c45-bb74-4559-b160-6eb20705eed5" d="M89.49,35.15a11.66,11.66,0,0,0,2.23-8.06c-.12-1.24-.37-2.67.49-3.53a3.62,3.62,0,0,1,1.45-.73l9.33-3a22.49,22.49,0,0,1,5.76-1.31c.64,1.52.34,3.22.39,4.85A11.88,11.88,0,0,0,112.31,31l-1.2,2.83a5.34,5.34,0,0,1-2,2.77c-1.24.69-2.85.32-4.18.81-2.07.77-2.94,3.38-5,4.14a10.2,10.2,0,0,1-2.14.37c-3.44.44-6.37,2.49-9.08,4.57a10.68,10.68,0,0,0,2-7.79A13.81,13.81,0,0,1,86,40.46C87.72,38.55,89.65,34.45,89.49,35.15Z"/>
          <path class="b147373a-6011-43d5-a17b-84210e3f4714" d="M111.11,33.8l.31-.74a39.15,39.15,0,0,0-7.12-7.43,18.32,18.32,0,0,0-4.56-2.84,9.24,9.24,0,0,0-3.79-.7l-2.29.74a3.62,3.62,0,0,0-1.45.73c-.86.86-.61,2.29-.49,3.53,0,.14,0,.29,0,.43a51.48,51.48,0,0,0,5.07-1.38.63.63,0,0,1,.57,0,.69.69,0,0,1,.17.51l.1,3.62h2.25a64.47,64.47,0,0,1-.42,7.49,2,2,0,0,1,1.27-.73,29.56,29.56,0,0,1,6.18-.41,15.85,15.85,0,0,0,2.39-.22A5.63,5.63,0,0,0,111.11,33.8Z"/>
          <path class="b147373a-6011-43d5-a17b-84210e3f4714" d="M112.31,31a12,12,0,0,1-2.69-4.72,26.58,26.58,0,0,0-10-5.36l-6,1.94a3.62,3.62,0,0,0-1.45.73c-.86.86-.61,2.29-.49,3.53a10.89,10.89,0,0,1,0,1.51,11,11,0,0,0,2.45-.85,10.39,10.39,0,0,1,3-1.31,30.11,30.11,0,0,1-4.83,9.45,6.44,6.44,0,0,0-1.35,2.33,1.85,1.85,0,0,0,1.42-.5,24.79,24.79,0,0,0,3.09-3.38,6.73,6.73,0,0,1,3.78-2.46,76.59,76.59,0,0,1-1.47,8.25c1.81-.16,3.34-1.3,5.06-1.8.25-.07.49-.13.74-.18a4.4,4.4,0,0,1,1.26-.77c1.33-.49,2.94-.12,4.18-.81a5.34,5.34,0,0,0,2-2.77Z"/>
          <g>
            <path class="be393140-738b-48f6-89b8-323a7e6d522f" d="M111.05,34c-1.16.25-2.52,0-3.7.36-1.72.44-2.9,1.92-4.22,3.08a13.3,13.3,0,0,1-7.81,3.24c-.48,0-1.07,0-1.31-.44a1.19,1.19,0,0,1,.2-1.16A10.94,10.94,0,0,1,98,35.86l5.22-3.13c.31-.19.68-.48.57-.85s-.29-.37-.5-.49a5.23,5.23,0,0,0-1.95-.78c-1.32-.14-2.46.74-3.46,1.57L91.4,37.61a.6.6,0,0,1-.41-.67,1.55,1.55,0,0,1,.41-.74c2.55-3,5.81-5.5,7.94-8.86a1.24,1.24,0,0,0-1.13.43A111.54,111.54,0,0,0,89,36.62a8.74,8.74,0,0,1,.43-1.48A41.5,41.5,0,0,1,86,40.46a13.81,13.81,0,0,0,4.67-1.79,10.68,10.68,0,0,1-2,7.79c2.71-2.08,5.64-4.13,9.08-4.57a10.2,10.2,0,0,0,2.14-.37c2.07-.76,2.94-3.37,5-4.14,1.33-.49,2.94-.12,4.18-.81A5,5,0,0,0,111.05,34Z"/>
            <path class="be393140-738b-48f6-89b8-323a7e6d522f" d="M96.27,24.23c-.38-.12-.72.24-1,.57L92.4,29.06c-.26.38-.54.89-.84,1.41A13.26,13.26,0,0,1,91.15,32C92.91,29.45,95.19,27.14,96.27,24.23Z"/>
          </g>
          <path class="b4174e08-8a08-4b84-89b8-ac0f05973821" d="M87.45,44.84A29.09,29.09,0,0,0,92,37.7c0-.06-.07-.13-.11-.07C90.18,39.81,88.34,42,86.46,44c-.91,1-1.86,2-2.84,2.88a10.74,10.74,0,0,0-2.52,2.82c-.06.11.06.21.17.19C83.69,49.34,85.91,46.61,87.45,44.84Z"/>
          <path class="e51e9c2f-a3af-4193-acc4-b61d35d9460e" d="M80.43,49.94c.26-.54.3-1.14.53-1.7a6.43,6.43,0,0,1,1.31-1.88,20,20,0,0,0,2.59-3.08A79.28,79.28,0,0,1,90.8,34.9a83.51,83.51,0,0,0,5.58-7.14,26.61,26.61,0,0,0,3.35-8.13c0-.06-.09-.1-.11,0a34.08,34.08,0,0,1-5,8.47c-2,2.72-4.15,5.29-6.2,8-.92,1.19-1.77,2.41-2.57,3.68A33,33,0,0,1,83,44.09C81.84,45.35,78.45,47.87,80,50A.24.24,0,0,0,80.43,49.94Z"/>
          <path class="b4174e08-8a08-4b84-89b8-ac0f05973821" d="M95.45,38.65a53.89,53.89,0,0,1,5-5.5c1.71-1.62,3.66-3.24,4.75-5.37a.09.09,0,0,0-.15-.1c-3.39,3.57-7.55,6.13-10.6,10.06-1.46,1.9-2.66,4-4.14,5.87a35.53,35.53,0,0,1-2.44,2.77,12.5,12.5,0,0,0-2.08,2.34s0,0,0,0c2-.59,3.52-2.72,4.76-4.21C92.17,42.57,93.84,40.66,95.45,38.65Z"/>
          <path class="f6aaf6e0-09e4-4db5-a019-ef6bdb8777ea" d="M97,5.74a7.47,7.47,0,0,0-3.8,4.9c-.3,1.59,0,3.37-.78,4.77-.72,1.24-2.25,2-2.41,3.47-.12,1.11.67,2.25.41,3.33a10.71,10.71,0,0,0-.49,1.41c-.08.76.47,1.44.77,2.15a3.56,3.56,0,0,1-.14,3.09c1-.79,1.51-2.11,2.64-2.68s2.66-.26,3.66-1c.81-.62,1-1.73,1.44-2.67,1.13-2.53,3.92-3.86,5.57-6.08a9.18,9.18,0,0,0,1.65-6.13c-.1-1.43-.75-5.41-2.28-6.13S98.22,5,97,5.74Z"/>
          <path class="b147373a-6011-43d5-a17b-84210e3f4714" d="M96.83,25.15c.81-.62,1-1.73,1.44-2.67,1.13-2.53,3.92-3.86,5.57-6.08a9.18,9.18,0,0,0,1.65-6.13h0a8.35,8.35,0,0,0-2.36,1.33,4.54,4.54,0,0,0-1.82,2.61,5.15,5.15,0,0,1-.34,1.63c-.58,1.05-2.12.95-3.2,1.48-2.19,1.07-2,4.39-3.82,6-1,.9-2.41,1.17-3.53,1.9.09.17.18.34.25.51a3.56,3.56,0,0,1-.14,3.09c1-.79,1.51-2.11,2.64-2.68S95.83,25.92,96.83,25.15Z"/>
          <path class="b147373a-6011-43d5-a17b-84210e3f4714" d="M97.69,22.68c.19-.05.38-.09.56-.15l0-.05A7.27,7.27,0,0,1,99,21.22a.53.53,0,0,0-.33-.29c-.46-.12-.85.39-1.32.4s-.85-1-.32-1.24,1,0,1.22-.37-.51-.86-.62-1.37a1,1,0,0,1,.39-.89c1.22-1.19,3.25-1.34,4.37-2.63.51-.59.61-1.76-.16-2-.49-.15-1,.21-1.36.5s-1,.55-1.38.23c.15-.49.69-.71,1.1-1s.71-.94.32-1.29a3.27,3.27,0,0,1-.37-.28c-.2-.23-.07-.59.09-.84.69-1,2-1.81,2-3.08-.82-.56-1.93,0-2.49.81a10.52,10.52,0,0,1-1.63,2.34,2.93,2.93,0,0,1,.23-2.1c-.17-.31-.65-.16-.92.06a4.63,4.63,0,0,0-1.65,3.94c0,.58.14,1.27-.32,1.6-.17.11-.38.15-.57.25-.68.35-.67,1.32-.63,2.1s-.12,1.77-.89,1.92c-.27-.63-.8-1.41-1.46-1.23a1,1,0,0,0-.57.5c-.87,1.41.07,3.25.29,4.93,0,.35,0,.79-.35.86a1.48,1.48,0,0,1-.54-.08c-.68-.12-1.2.63-1.18,1.32.16.51.49,1,.7,1.49a3.63,3.63,0,0,1,.24,2A1.06,1.06,0,0,0,91,28a3.49,3.49,0,0,0,.53-.24,5.21,5.21,0,0,1,1.64-1.6,4,4,0,0,1,.8-.27,1.68,1.68,0,0,0,.69-.83c.12-.42,0-.92.21-1.27a1.17,1.17,0,0,1,.62-.42A15.25,15.25,0,0,1,97.69,22.68Z"/>
          <g class="a6d39df4-b90a-4ef9-8425-a17ad62986cd">
            <path class="f2dff4ec-ab55-4d04-9759-fe7308b4c3e2" d="M98.46,20.5a5.47,5.47,0,0,0,3.64-2s0-.09,0,0A6.18,6.18,0,0,1,99.69,20a16,16,0,0,1-2.75.46c-1,.15-3.15.57-3.23,1.92-.3-1.85-1.75-3.68-1.09-5.54a0,0,0,0,0-.06,0c-.57,1-.19,2.08.16,3.1a9.15,9.15,0,0,1,.75,4.21c0,.05.07.08.09,0a3.23,3.23,0,0,0,.16-1.68.24.24,0,0,0,.09.11l.1.06a.09.09,0,0,0,.13-.06c.22-.81,1.42-1.34,2.14-1.58A15.85,15.85,0,0,1,98.46,20.5Z"/>
            <path class="f2dff4ec-ab55-4d04-9759-fe7308b4c3e2" d="M95.55,17.93a0,0,0,0,0,.08,0,9.11,9.11,0,0,1,1.21-1.11,13.1,13.1,0,0,1,1.33-.72,24.6,24.6,0,0,0,2.57-1.41,7.63,7.63,0,0,0,3.32-4c0-.05-.07-.07-.09,0A10,10,0,0,1,99.56,15c-.81.45-1.69.8-2.5,1.26C96.41,16.66,95.68,17.14,95.55,17.93Z"/>
            <path class="f2dff4ec-ab55-4d04-9759-fe7308b4c3e2" d="M98.35,12.32s0,.07,0,.06A5.45,5.45,0,0,0,103,9a0,0,0,0,0-.07,0,7.07,7.07,0,0,1-2.1,2.18,10.94,10.94,0,0,1,1.86-5.28s0-.07,0,0a9.48,9.48,0,0,0-1.93,5.39A9.8,9.8,0,0,1,98.35,12.32Z"/>
            <path class="f2dff4ec-ab55-4d04-9759-fe7308b4c3e2" d="M96.38,16.43c0,.07.17,0,.16-.05-.19-1.24-.86-2.41-1.08-3.66a6.87,6.87,0,0,1,.45-3.86s0-.08-.07,0a6.51,6.51,0,0,0-.63,3.69,12.12,12.12,0,0,0,.47,1.84A13.74,13.74,0,0,0,96.38,16.43Z"/>
          </g>
          <path class="b7c3a5cf-29b6-455e-933b-9886fccb2790" d="M80.58,49.88a29.65,29.65,0,0,1,4-9c2-3.27,3.78-6.65,5.53-10.06S93.5,24.11,95,20.69s2.74-7.36,5-10.5c0,0,0,0,0,0-2.44,2.74-3.74,6.13-5.27,9.45C93,23.34,91.16,27,89.2,30.64s-4,7-6.12,10.37c-1.66,2.7-3.75,5.41-3.58,8.78A.55.55,0,0,0,80.58,49.88Z"/>
          <path class="b2167ce0-f566-4edd-803b-71a5e2304c70" d="M99.29,32.28c1.5-1.19,3-2.3,4.51-3.54a31.78,31.78,0,0,0,7.19-8s0,0,0,0a36.44,36.44,0,0,1-7.91,8.39c-2.73,2.11-6,3.64-8.49,6s-4,5.2-5.66,8A14.62,14.62,0,0,1,85,47.59c-1.33,1-3,1.41-4.22,2.5-.35.33,0,.89.45.89,1.66,0,3.08-1.17,4.28-2.17a17.64,17.64,0,0,0,3.28-3.67c2-3,3.48-6.49,6-9.18A39,39,0,0,1,99.29,32.28Z"/>
          <path class="f6aaf6e0-09e4-4db5-a019-ef6bdb8777ea" d="M119.14,29.36c1.11-1.55,2.71-2.79,3.44-4.57.94-2.33.21-5.08.66-7.54a1.5,1.5,0,0,0-1.13-1.7,17.71,17.71,0,0,0-8.44,0,9.3,9.3,0,0,0-2.86,1.16c-1.25.84-2.16,2.11-3.4,3s-2.68,1.28-3.9,2.12a6.83,6.83,0,0,0-2.88,5.74,31.44,31.44,0,0,0,.2,3.22c.44,3.44-2.42,5.72-2.32,6.42,1.62-.18,3.18-2.16,4.83-1.86,2.32.41,4.91.91,6.84-.34.64-.42,1.16-1,1.81-1.39,1.53-.9,3.59-.61,5-1.61A9.85,9.85,0,0,0,119.14,29.36Z"/>
          <path class="b147373a-6011-43d5-a17b-84210e3f4714" d="M113.39,23.78c2.57-1.29,3.29-4.63,5.36-6.6A6.48,6.48,0,0,1,122,15.53a18,18,0,0,0-6.94-.27,21.83,21.83,0,0,0-2.59,1.65,67.55,67.55,0,0,0-5.59,4.68c-1.24,1.12-2.47,2.25-3.64,3.44a30.87,30.87,0,0,0-2.64,2.78c0,.7,0,1.39.1,2.08a14.82,14.82,0,0,0,2.14-.18,7.1,7.1,0,0,0,4.1-1.47c1-.92,1.6-2.29,2.74-3.06S112.22,24.37,113.39,23.78Z"/>
          <path class="b147373a-6011-43d5-a17b-84210e3f4714" d="M113.22,25.8c2.58-.17,5.38.53,7.62-.67a1.54,1.54,0,0,0,.89-1,1.39,1.39,0,0,0-1.12-1.43,3.27,3.27,0,0,0-1.91.3,5.59,5.59,0,0,1-1.86.54.82.82,0,0,1-.41-.08c-.37-.22-.19-.83.18-1a6.2,6.2,0,0,1,1.24-.26c.41-.11.81-.52.64-.92s-.48-.4-.72-.62c-.64-.6-.14-1.65.48-2.23s1.4-1.27,1.2-2.12c-1.44-.48-2.83.74-3.54,2s-1.19,2.82-2.42,3.64a20.86,20.86,0,0,0-2.44,1.27c-1,.87-1.38,2.62-2.73,2.8-.39-.55.37-1.5-.2-1.86a.8.8,0,0,0-.57,0c-2,.44-3.14,2.59-3.53,4.63-.18,1-.45,2.21-1.44,2.41-.3-.62-1.24-.53-1.72-.05a6.31,6.31,0,0,1-.75,3.31l0,.13c-.15.7-.35,1.47.33,1.81,1-.58,1.93-1.23,2.93-1l.56.1a5.86,5.86,0,0,1,3-1.23,5.8,5.8,0,0,0,1.25,0,.91.91,0,0,0,.82-.79l-1.75-1.16A.54.54,0,0,1,107,32a.41.41,0,0,1,0-.36,1.36,1.36,0,0,1,1.55-.47,8.24,8.24,0,0,0,1.72.45c.59,0,1.24-.45,1.12-1-.05-.26-.25-.48-.29-.74-.07-.5.47-.87,1-.93a10.83,10.83,0,0,0,1.51-.07c.48-.13.91-.67.64-1.11-.43-.74-1.87,0-2.31-.73a.74.74,0,0,1,.25-.95A2,2,0,0,1,113.22,25.8Z"/>
          <g class="a6d39df4-b90a-4ef9-8425-a17ad62986cd">
            <path class="f2dff4ec-ab55-4d04-9759-fe7308b4c3e2" d="M111.65,28.18c-1.82.05-4.62.24-5.54,2.07a.08.08,0,0,0,.1.1,11.82,11.82,0,0,1,3.11-1.52,13.76,13.76,0,0,1,3.39-.36c2,0,4.28.1,6.05-.87a0,0,0,0,0,0-.05,11.66,11.66,0,0,1-3.51.66C114,28.23,112.84,28.15,111.65,28.18Z"/>
            <path class="f2dff4ec-ab55-4d04-9759-fe7308b4c3e2" d="M114.6,31.44c.05,0,0-.1,0-.09a13.42,13.42,0,0,1-3.34.56c-1,0-2.07,0-3.11,0a8.56,8.56,0,0,0-5.81,2.42c-.08.09,0,.2.14.16a27,27,0,0,1,3.36-1.79c.26-.08.51-.15.77-.21,1.63.27,3,1.28,4.75,1.09a0,0,0,0,0,0-.09,8.37,8.37,0,0,1-3.16-.83,5.48,5.48,0,0,0-.8-.3,14.54,14.54,0,0,1,1.62-.13C110.82,32.18,113,32.37,114.6,31.44Z"/>
            <path class="f2dff4ec-ab55-4d04-9759-fe7308b4c3e2" d="M111.05,24.59s0,.11.06.08c.67-.53,1.65-.22,2.44-.1a12,12,0,0,0,2.24.15,10.84,10.84,0,0,0,4.34-.81s0-.09,0-.08a16.73,16.73,0,0,1-5.46.65C113.51,24.38,112,23.74,111.05,24.59Z"/>
            <path class="f2dff4ec-ab55-4d04-9759-fe7308b4c3e2" d="M115.77,19.85s0,.08.07,0a2.5,2.5,0,0,1,.18-.24,8.59,8.59,0,0,1-1,1.71c-.51.64-1.17,1.16-1.66,1.82,0,.05,0,.13.08.09a7.58,7.58,0,0,0,2.7-3c.22-.43.41-.87.61-1.29a18,18,0,0,1,2.46-1.44c.06,0,0-.13,0-.11a7.14,7.14,0,0,0-2.18,1.07,6.32,6.32,0,0,1,1.65-2.22.05.05,0,0,0-.06-.09,5.35,5.35,0,0,0-2.27,2.95A4.06,4.06,0,0,0,115.77,19.85Z"/>
          </g>
          <path class="f2d297b8-8422-4f70-9513-c3e4ea8911d2" d="M113.72,8.83a4.35,4.35,0,0,0-4.31,1.41c-.48.59-.82,1.34-1.5,1.7-1,.55-2.44,0-3.46.56-1.54.86-1,3.44-2.22,4.66a6.36,6.36,0,0,1-2,1,4.16,4.16,0,0,0-2.72,3.68A10.74,10.74,0,0,0,98,24.13a9.45,9.45,0,0,1-1.18,7.35,7.63,7.63,0,0,1,3-2.34c1.8-.6,4.06.07,5.52-1.11,1-.8,1.3-2.24,2.33-3a10.49,10.49,0,0,1,2.76-1,9.35,9.35,0,0,0,3.43-2.67A11.71,11.71,0,0,0,115.76,19c.38-.71.62-1.5,1.06-2.18.28-.44.65-.83.91-1.28a4.87,4.87,0,0,0-.16-4.48c-.4-.81-.58-1.41-1.39-1.7S114.47,9,113.72,8.83Z"/>
          <path class="b147373a-6011-43d5-a17b-84210e3f4714" d="M103.6,27a3.78,3.78,0,0,1,.12-.83c.29-.71,1.24-.77,2-.85s1.71-.61,1.46-1.35a1.09,1.09,0,0,1-1-.62,2.75,2.75,0,0,1,2.06-.94,7.8,7.8,0,0,0,2.32-.34,1.61,1.61,0,0,0,1-1.84.65.65,0,0,0-.22-.34c-.26-.21-.63-.09-1-.05s-.78-.16-.71-.48A9.36,9.36,0,0,0,115,13.93c.23-.67.31-1.59-.31-2s-1.35.05-1.88.48c-1.1.88-2.15,1.8-3.16,2.77-.61-.33.21-1.52-.39-1.86a.68.68,0,0,0-.62,0c-1.5.67-2,2.5-2.41,4.08a3,3,0,0,1-.83,1.61,1.19,1.19,0,0,1-1.66-.08,2.92,2.92,0,0,1-.34-1c-.1-.33-.35-.69-.7-.69s-.59.43-.67.8c-.33,1.48,0,3.21-.94,4.39-.2.24-.54.46-.81.29a1,1,0,0,1-.3-.41,3.65,3.65,0,0,0-1.55-1.61A12.2,12.2,0,0,0,97.64,23c.1.38.22.76.31,1.14a9.5,9.5,0,0,1-.39,5.8c.5-.15,1-.31,1.48-.44a4.44,4.44,0,0,1,.77-.35,7.36,7.36,0,0,1,2-.3A2.51,2.51,0,0,0,103.6,27Z"/>
          <g class="a6d39df4-b90a-4ef9-8425-a17ad62986cd">
            <path class="f2dff4ec-ab55-4d04-9759-fe7308b4c3e2" d="M108.1,14.61a6.79,6.79,0,0,0-.45,2.65,5.15,5.15,0,0,0,.47,2.68c0,.07.16,0,.15,0a14,14,0,0,1-.13-2.66c0-.35,0-.71,0-1,2.25-1.82,4.52-3.53,6-6.12,0,0,0-.05-.05,0A24.08,24.08,0,0,1,111,13.52,20.29,20.29,0,0,1,109,15a4.76,4.76,0,0,0-.69.55,4.75,4.75,0,0,1,.41-1.31c.82-1.72,2.09-3.2,3-4.88,0-.06-.06-.12-.1-.07-.72.91-1.35,1.91-2,2.87A15,15,0,0,0,108.1,14.61Z"/>
            <path class="f2dff4ec-ab55-4d04-9759-fe7308b4c3e2" d="M111.79,22a5.35,5.35,0,0,1-1.88-.46c-.33-.18-.63-.42-1-.63.49-.09,1-.21,1.47-.35a12.76,12.76,0,0,0,3.77-1.57,0,0,0,0,0,0-.05,20.59,20.59,0,0,1-4.63,1.52c-.75.11-1.52.17-2.28.22-.51,0-.86.06-1.14.49-.05.09.08.17.15.1.25-.25.81-.16,1.14-.18s.73-.05,1.09-.1h0A4,4,0,0,0,111.79,22S111.83,22,111.79,22Z"/>
            <path class="f2dff4ec-ab55-4d04-9759-fe7308b4c3e2" d="M109.27,23.91s0-.08,0-.07c-.77.22-1.54.49-2.33.64a9.36,9.36,0,0,1-2.48.06c-1.18-.09-2.63,0-3.15,1.19a0,0,0,0,0,.08.05,2.87,2.87,0,0,1,2.24-.85l.76.3a6.08,6.08,0,0,0,.89.35c.07,0,.11-.08.06-.13a2.79,2.79,0,0,0-.78-.49,11,11,0,0,0,1.14,0A8.4,8.4,0,0,0,109.27,23.91Z"/>
            <path class="f2dff4ec-ab55-4d04-9759-fe7308b4c3e2" d="M102.85,24.18c1.1-.87,1.94-2.13,1.22-3.58a5.77,5.77,0,0,0-.47-.74,2.7,2.7,0,0,1,.46-2.44s0-.06,0,0a2,2,0,0,0-.79,1.85s0,0,0-.06a3.59,3.59,0,0,1-.25-1.68,9.26,9.26,0,0,1,1-3.12s0-.07-.07,0a5.73,5.73,0,0,0-1,4.72c.27.88,1,1.66,1.08,2.59a3.94,3.94,0,0,1-1.13,2.42C102.71,24.13,102.78,24.23,102.85,24.18Z"/>
          </g>
          <path class="a165e2b4-5a40-4ff9-9ad5-01fd9470448b" d="M88.84,41.68a92.55,92.55,0,0,0,7.82-9.19c1.18-1.57,2.35-3.17,3.67-4.63a48.55,48.55,0,0,1,4.07-3.78,32.23,32.23,0,0,0,7.14-8.63s0-.08-.06,0a72.3,72.3,0,0,1-8.7,8.71,46.3,46.3,0,0,0-7.68,8.44,88.16,88.16,0,0,1-7.9,9.15c-1.39,1.38-2.86,2.65-4.3,4a8.32,8.32,0,0,0-2.82,4.53.61.61,0,0,0,1.13.4C83.26,47.07,86,44.56,88.84,41.68Z"/>
          <path class="a165e2b4-5a40-4ff9-9ad5-01fd9470448b" d="M117.05,21.74s0,0,0,0a22,22,0,0,0-4.76,2,18.63,18.63,0,0,0-4.11,3.77,59.13,59.13,0,0,1-8.81,8.66c-1.46,1.12-2.9,2.25-4.26,3.49s-2.6,3-4,4.43a41.76,41.76,0,0,1-4.87,4c-.77.57-1.54,1.14-2.36,1.63a5.36,5.36,0,0,0-1.94,1.44.25.25,0,0,0,.14.41c1.47.4,2.91-.78,4-1.57,1.53-1.1,3-2.29,4.45-3.53a31.33,31.33,0,0,0,4-4.53,25.76,25.76,0,0,1,4.72-4.49A39.53,39.53,0,0,0,103.47,34c1.48-1.52,2.71-3.25,4-4.9a24,24,0,0,1,4.38-4.57A33.07,33.07,0,0,1,117.05,21.74Z"/>
          <path class="b4174e08-8a08-4b84-89b8-ac0f05973821" d="M94.42,34.84l-.31.36h0l.31-.35Z"/>
          <path class="a9b8848f-44c0-4b26-b96e-0b4e3fb050b8" d="M89.36,46.4c-.9.76-1.87,1.43-2.83,2.11a10,10,0,0,1-2.14,1.09,7,7,0,0,1-1.55.66c-2.37.35,0-2.64.42-3.17a27.4,27.4,0,0,1,2.63-3s0,0,0,0c-1.8,1.29-3.7,2.16-5,4-.69,1-1.12,2.44-.07,3.4,1.21,1.11,2.86.34,3.9-.49a36.74,36.74,0,0,0,4.76-4.57S89.41,46.36,89.36,46.4Z"/>
          <path class="b98529f5-abc7-435d-9ea4-9fea3a266cb9" d="M88.21,45.85a0,0,0,1,0-.06-.05,14.48,14.48,0,0,1-3,2.25,11.18,11.18,0,0,0-2.53,1.43s0,0,0,0C84.83,49.82,87,47.4,88.21,45.85Z"/>
          <path class="b98529f5-abc7-435d-9ea4-9fea3a266cb9" d="M83.18,42.45c.82-1.33,1.67-2.65,2.47-4A64.83,64.83,0,0,0,89.86,30s0,0,0,0a47.18,47.18,0,0,1-4.77,8.79,21,21,0,0,0-2.48,3.48c-.49,1-1.87,2.15-1.74,3.47a.15.15,0,0,0,.26.09A16,16,0,0,0,83.18,42.45Z"/>
          <path class="b98529f5-abc7-435d-9ea4-9fea3a266cb9" d="M94.44,35.32c2.11-2.87,4.31-5.66,6.52-8.45,0,0,0,0,0,0-2.73,2-4.48,4.78-6.46,7.47-2.17,2.94-4.19,5.89-7.13,8.11,0,0,0,0,0,0A31.51,31.51,0,0,0,94.44,35.32Z"/>
          <path class="b98529f5-abc7-435d-9ea4-9fea3a266cb9" d="M106.17,30.36s0,0,0,0a27.73,27.73,0,0,1-7,6.1c-.08,0,0,.2.09.16A16.86,16.86,0,0,0,106.17,30.36Z"/>
          <path class="b98529f5-abc7-435d-9ea4-9fea3a266cb9" d="M113.75,13.37s0-.14-.08-.09a23.59,23.59,0,0,0-4.34,5.26,0,0,0,1,0,0,0C110.72,16.77,112.36,15.16,113.75,13.37Z"/>
          <path class="efb03173-0c48-435c-88ec-2161d2c1a697" d="M117,15.24a4.08,4.08,0,0,0,.41-4,.59.59,0,0,0-1.07-.09c-.54.94-.66,2.07-1.17,3a19.88,19.88,0,0,1-2.2,3.39.08.08,0,0,0,.09.13C114.67,17.16,116,16.8,117,15.24Z"/>
          <path class="efb03173-0c48-435c-88ec-2161d2c1a697" d="M112.53,18.66a.53.53,0,0,0-.53-.61,1.47,1.47,0,0,0-.64.21,1,1,0,0,0-.37.41l-.06.09a.37.37,0,0,0,.09.44l.18.11v0A.92.92,0,0,0,112.53,18.66Z"/>
          <path class="efb03173-0c48-435c-88ec-2161d2c1a697" d="M107.35,15.06a44.33,44.33,0,0,1,2.86-4.41s0,0,0,0a10.89,10.89,0,0,0-4.11,3.28c-.77,1.08-1.89,2.54-1.24,3.94a.21.21,0,0,0,.27.13C106.35,17.51,106.72,16.12,107.35,15.06Z"/>
          <path class="efb03173-0c48-435c-88ec-2161d2c1a697" d="M105.05,19.73s0-.05,0-.07a.34.34,0,0,0,.09-.19s0-.07,0-.1v-.09h0a1.08,1.08,0,0,0,0-.36c0-.16-.11-.34-.29-.27l-.07,0a.55.55,0,0,0-.4.44c0,.22,0,.55.28.63a.47.47,0,0,0,.22.07A.13.13,0,0,0,105.05,19.73Z"/>
          <path class="efb03173-0c48-435c-88ec-2161d2c1a697" d="M122.41,23.5c.26-1.58-.27-3.17-.13-4.74,0,0,0,0,0,0-.26,1.07-.19,2.2-.46,3.25a6.16,6.16,0,0,1-2.46,3.22,3.94,3.94,0,0,0-1.53,2.16c-.45,1.45-.66,2.93-2.37,3.29-.06,0-.06.14,0,.14a2.65,2.65,0,0,0,2.17-1,14.2,14.2,0,0,0,1.18-1.39,20.08,20.08,0,0,1,1.9-1.78A5.5,5.5,0,0,0,122.41,23.5Z"/>
          <path class="efb03173-0c48-435c-88ec-2161d2c1a697" d="M94.18,13.57a15,15,0,0,1,1.18-3.25c.33-.69,1.62-2.86,2.58-2.68a.29.29,0,0,0,.27-.09c1-1.24,1.59-2.29,3.21-2.79,0,0,0,0,0,0a6.34,6.34,0,0,0-3,1.49c-.41.43-.4.62-.92.7a4.22,4.22,0,0,0-1.41.2A4.23,4.23,0,0,0,94,9.61c-.51,1.42-.16,2.51.11,4C94.08,13.62,94.17,13.64,94.18,13.57Z"/>
        </g>
        <path class="a52501be-b192-462f-8f21-6f0955942361" d="M84.1,49.51A9.54,9.54,0,0,0,76,45.37c-6.58.33-19,11.57-28.86,21.82-6.79,7-9.54,11.34-8.8,15h0a2.46,2.46,0,0,1-.31,1.8,9.27,9.27,0,0,1-.62.88c-1.6,2-5.35,5.4-13.83,8.15a25.23,25.23,0,0,1-18.8-1.53s9.92,6.07,19.4,4.09a65.8,65.8,0,0,0,17.47-6.89,3.62,3.62,0,0,1,2.49.27c6,2.78,13.39-2.81,27.57-15.09C88,59.77,87.64,54.9,84.1,49.51Z"/>
        <path class="b2de6425-bea9-46d0-a8d8-b761cbabcb64" d="M45.27,86.93a1.56,1.56,0,0,1-.66-2.66c1-1.31-3-1.25-1.87-2.73s-3.06-1.4-3.59-2.47c-.18-.37-.39-.31-.6-.07a6.77,6.77,0,0,0-.22,3.28h0A2.5,2.5,0,0,1,38,84.1a10.76,10.76,0,0,1-.62.88c-1.61,2-5.37,5.38-13.86,8.09a25.26,25.26,0,0,1-18.8-1.6s9.91,6.1,19.39,4.16a65.62,65.62,0,0,0,17.49-6.82,3.64,3.64,0,0,1,2.5.27,7,7,0,0,0,1.91.61C46,89.53,46.24,87.35,45.27,86.93Z"/>
        <path class="a6b833c0-58e0-4172-a66c-dd5397012758" d="M42.82,86.13c.18-.53-1-1-1.65-1.47s-1.17-.3-.9-1.1-.8-1.11-1.47-1.86-.49.54-.49.54h0a2.46,2.46,0,0,1-.31,1.8,9.27,9.27,0,0,1-.62.88c-1.6,2-5.35,5.4-13.83,8.15a25.24,25.24,0,0,1-18.8-1.53s9.92,6.07,19.4,4.09a65.8,65.8,0,0,0,17.47-6.89,3.18,3.18,0,0,1,2.07.1,1.59,1.59,0,0,0,0-1C43.3,86.7,42.32,87.62,42.82,86.13Z"/>
        <path class="add207eb-07b5-4486-820c-4c0d0371ac28" d="M40,87c-1.09.06-1-.57-1-2-.05-.88-.2-1.33-.79-1.36a2,2,0,0,1-.2.42,9.27,9.27,0,0,1-.62.88c-1.6,2-5.35,5.4-13.83,8.15a25.24,25.24,0,0,1-18.8-1.53s9.92,6.07,19.4,4.09A65.48,65.48,0,0,0,41.22,89a1.51,1.51,0,0,1,.11-1.46C41.76,86.71,41.14,86.91,40,87Z"/>
        <path class="fe74c7b7-0e35-4614-b44a-9cd77cf0de8e" d="M80.54,46.39l-.49-.23c2,1.21,4.81,8.11.9,15.09C77,68.38,53.59,87.77,47.1,86.88s-7,1.65-15.83,5.77A44.77,44.77,0,0,1,19.85,96c.25,0,.49,0,.74,0s.59,0,.89,0l.44,0c.3,0,.6,0,.89-.09.45-.06.89-.14,1.34-.23l.7-.15.23-.06.47-.11h0l.24-.06.43-.1,0,0,.24-.06.41-.11.29-.08.4-.12.07,0,.22-.06.38-.12a71,71,0,0,0,13.31-5.75,3.64,3.64,0,0,1,2.5.27,7,7,0,0,0,1.91.61.32.32,0,0,0,0-.08c5.68,1,13-4.66,25.67-15.68,13.08-11.32,15.44-16.7,14.06-21.16A10.66,10.66,0,0,0,80.54,46.39Z"/>
        <path class="a59018f9-fec3-41aa-b3f7-7ed77b55f36e" d="M48.06,75C46.42,72.15,71,48.09,74.62,50S50.54,79.26,48.06,75Z"/>
        <path class="e14b405d-2451-44c5-9fa2-7477471c018a" d="M62.84,60.33c1.6,1-11.83,12.45-12.3,11.83S61.11,59.24,62.84,60.33Z"/>
        <path class="e14b405d-2451-44c5-9fa2-7477471c018a" d="M67.22,56.42c-.68-.61,2.65-3.14,3.14-2.7S68.05,57.15,67.22,56.42Z"/>
      </g>
    </g>
  </g>
</svg>
