<svg xmlns="http://www.w3.org/2000/svg" width="76" height="84" viewBox="0 0 76 84">
  <defs>
    <style>
      .a232fdbb-cd75-4205-b506-43b5ab14dedd {
        isolation: isolate;
      }

      .f08ea3a5-e1cb-4f12-ab3b-ef2f44d3782a {
        fill: #61a01e;
      }

      .ad147f60-1443-47bf-b083-78d802994009, .f08ea3a5-e1cb-4f12-ab3b-ef2f44d3782a {
        stroke: #405e0d;
      }

      .a3de6f6c-4620-4178-852d-a69bd709e9eb, .ab99e3da-2bb3-4109-ac38-f521748cc70a, .ad147f60-1443-47bf-b083-78d802994009, .f08ea3a5-e1cb-4f12-ab3b-ef2f44d3782a {
        stroke-miterlimit: 10;
      }

      .b9db042f-9fe1-4b55-8a54-b67714b6b87b {
        fill: #b3d669;
      }

      .a500c7e6-b73d-4373-a28f-240571dc3ca9 {
        fill: #2f4717;
        opacity: 0.44;
      }

      .ee4475b5-68fd-4c96-bcc0-af93a57bdb5c {
        opacity: 0.11;
        mix-blend-mode: overlay;
      }

      .aa967cbb-e05a-4568-a123-035b7b00d208 {
        fill: #c4ea73;
      }

      .ad147f60-1443-47bf-b083-78d802994009 {
        fill: #6db421;
      }

      .a3de6f6c-4620-4178-852d-a69bd709e9eb {
        fill: #f9d59c;
      }

      .a3de6f6c-4620-4178-852d-a69bd709e9eb, .ab99e3da-2bb3-4109-ac38-f521748cc70a {
        stroke: #8b5e3c;
        stroke-width: 0.75px;
      }

      .ab99e3da-2bb3-4109-ac38-f521748cc70a {
        fill: #edc687;
      }
    </style>
  </defs>
  <g class="a232fdbb-cd75-4205-b506-43b5ab14dedd">
    <g id="ef699639-b047-4aca-a9ec-41a0334a61f0" data-name="Layer 1">
      <g>
        <g>
          <path class="f08ea3a5-e1cb-4f12-ab3b-ef2f44d3782a" d="M70.3,51.31c-3.24-3.56-10.66-4-10.66-4-2.33-.14-2.48.16-6.48,0a10.86,10.86,0,0,0-2.49.12A21.31,21.31,0,0,0,46.51,49c-1.28.52-2.63.91-3.84,1.55a14.24,14.24,0,0,0-4.83,4.47c-1.25,1.72-2.28,3.54-3.67,5.2a4.7,4.7,0,0,1-1,1,5,5,0,0,1-1.58.69c-3.36.84-6.38,2.69-9.58,4C19.27,67,14.75,70.1,7,78.77a.66.66,0,0,0,.93.64A46.94,46.94,0,0,1,22.6,66.78a31.68,31.68,0,0,1,11.6-4.25,25.67,25.67,0,0,1,9.54.45c.09,0,.74.24,1.65.49a8.7,8.7,0,0,0,1,.21,14.05,14.05,0,0,0,3.17,0l4.24-.39a8.4,8.4,0,0,0,4.09-1.11c.38-.27.69-.6,1.08-.86a10.14,10.14,0,0,1,3.21-1.08c4-1,7.43-4.08,8.39-7.45a1.85,1.85,0,0,0,0-.78A1.58,1.58,0,0,0,70.3,51.31Z"/>
          <path class="b9db042f-9fe1-4b55-8a54-b67714b6b87b" d="M62.37,52.58q-7.23,2.07-14.45,4.21c-2.38.7-4.76,1.38-7.12,2.12s-4.41,1.49-6.6,2.26c-3.19,1.14-6.37,2.36-9.49,3.72a37.71,37.71,0,0,0-9.3,6.24,87.83,87.83,0,0,0-7.6,7.47c-.15.17.09.41.24.25,2-2.25,4.18-4.41,6.44-6.45a43,43,0,0,1,9.34-6.72c1.19-.6,2.45-1.09,3.68-1.59,1.86-.75,3.73-1.48,5.62-2.16,4.35-1.58,8.74-3,13.18-4.31q8.07-2.37,16.15-4.71a.17.17,0,0,0-.09-.33Z"/>
          <path class="b9db042f-9fe1-4b55-8a54-b67714b6b87b" d="M64.52,56.09a14.46,14.46,0,0,1-6.94,1.07,12.69,12.69,0,0,1-3.42-.57A5.31,5.31,0,0,0,51.64,56c-.11,0-.11.18,0,.17a6.87,6.87,0,0,1,2.82.74,15.34,15.34,0,0,0,3.44.48,14.44,14.44,0,0,0,6.71-1.12c.1,0,0-.19-.09-.15Z"/>
          <path class="b9db042f-9fe1-4b55-8a54-b67714b6b87b" d="M57,50.54c-2.21,1-4.91,2.2-5.21,4.92,0,.11.16.11.17,0,.29-2.64,3-3.84,5.13-4.77.1,0,0-.2-.09-.15Z"/>
          <path class="b9db042f-9fe1-4b55-8a54-b67714b6b87b" d="M54.72,60.21a14.57,14.57,0,0,1-4.06-.36,5.57,5.57,0,0,1-3.21-2.68c-.06-.1-.21,0-.15.08a5.72,5.72,0,0,0,3.05,2.68,13.39,13.39,0,0,0,4.37.45.09.09,0,0,0,0-.17Z"/>
          <path class="b9db042f-9fe1-4b55-8a54-b67714b6b87b" d="M47.75,51.8a3.4,3.4,0,0,0-1.08,1.12c-.37.55-.73,1.11-1.09,1.67a5.76,5.76,0,0,0-1.06,3.17.09.09,0,1,0,.18,0,5.66,5.66,0,0,1,1-3.09l.87-1.33A4.22,4.22,0,0,1,47.83,52c.1-.06,0-.21-.08-.15Z"/>
          <path class="b9db042f-9fe1-4b55-8a54-b67714b6b87b" d="M46.79,61.91a6.37,6.37,0,0,1-2.95-.53c-1.12-.42-2.39-1-2.73-2.28a.09.09,0,0,0-.17,0,3.71,3.71,0,0,0,2.41,2.22,7,7,0,0,0,3.44.71c.1,0,.11-.19,0-.17Z"/>
          <path class="a500c7e6-b73d-4373-a28f-240571dc3ca9" d="M63.7,51.69A28.86,28.86,0,0,1,61.44,54c-1,1-1.43,1.87-1.84,2.28A39.6,39.6,0,0,1,53,61.84,13.28,13.28,0,0,1,44.77,64a12.93,12.93,0,0,1-8.92-5.4,1,1,0,0,1-.16-.29.5.5,0,0,1,.52-.58,2.18,2.18,0,0,1,.89.32c2,1,4.26.39,6.39.92a4.51,4.51,0,0,0,1.67.28,3.19,3.19,0,0,0,1-.41l8.68-5a20,20,0,0,0,2.65-1.72,19.4,19.4,0,0,0,2.59-2.76l6.4-7.77A28.39,28.39,0,0,0,64.78,48,7.32,7.32,0,0,1,63.7,51.69Z"/>
          <path class="ee4475b5-68fd-4c96-bcc0-af93a57bdb5c" d="M35.51,60.84s10.57,1.32,12,2.09c1.45,0,1.12-1-.47-2.36.37-.35,6.8,2,8.29.6s-1.73-2.58-1.53-3.12,11.88,1.44,12.68-1.43S62,56.31,62,55.22s6-1.09,4.58-2.21-6.83-1.29-6.83-1.29S41.2,53.31,35.51,60.84Z"/>
        </g>
        <path class="b9db042f-9fe1-4b55-8a54-b67714b6b87b" d="M41,55.18a20,20,0,0,0-2.18,2.42,5.11,5.11,0,0,0-1.36,2.45c0,.11.17.11.18,0a2.68,2.68,0,0,1,.6-1.34c.29-.44.59-.86.91-1.26a22.31,22.31,0,0,1,2-2.15c.08-.07,0-.19-.12-.12Z"/>
        <path class="aa967cbb-e05a-4568-a123-035b7b00d208" d="M40.89,46.22a7,7,0,0,0,0-1.12c0-.14-.24-.14-.23,0a7,7,0,0,1,0,1.12c0,.14.21.14.22,0Z"/>
        <path class="ad147f60-1443-47bf-b083-78d802994009" d="M44.6,4.52a3.65,3.65,0,0,0-1.87.53A20.22,20.22,0,0,1,39.39,6.2,31.6,31.6,0,0,0,25.92,18.14a30.84,30.84,0,0,0-4.2,9.94,18.86,18.86,0,0,0-.35,8.64c.67,3,1.72,3.44,2.32,6.08.8,3.53-.18,6.51-1,8.9C19.42,61.72,6,76.1,5.41,76.76c-.07.84.71,1.24,1.06,1.85,3.84-4.92,7.75-10.35,11.61-16.31q3.38-5.22,6.23-10.21A25.39,25.39,0,0,1,27,48.27a8.31,8.31,0,0,1,1.82-1.7,11.42,11.42,0,0,1,3.26-1.11,24.06,24.06,0,0,0,10.3-5.57A14.67,14.67,0,0,0,45,37a20.42,20.42,0,0,0,1.63-3.4,30.67,30.67,0,0,0,2.19-7.5c.57-3.76-.39-3.46-.36-9.58,0-.88.08-8.34-1.23-10.38a3.77,3.77,0,0,0-1.54-1.38A3.15,3.15,0,0,0,44.6,4.52Z"/>
        <path class="aa967cbb-e05a-4568-a123-035b7b00d208" d="M42.83,10.36a146,146,0,0,1-6.29,15.41c-1.73,3.63-3.72,7.14-5.61,10.69-2.46,4.62-4.8,9.31-7,14.08a81.52,81.52,0,0,1-6.78,11.83,158.91,158.91,0,0,1-10,13.25L6.07,77c-.19.21.13.53.31.31q5.25-6.13,9.88-12.76c1.84-2.63,3.58-5.34,5.19-8.13.89-1.55,1.75-3.11,2.5-4.72,2.09-4.52,4.23-9,6.54-13.42,1.91-3.65,4-7.22,5.79-10.91A141.44,141.44,0,0,0,42.37,13c.3-.83.6-1.66.89-2.5.09-.27-.34-.38-.43-.11Z"/>
        <path class="aa967cbb-e05a-4568-a123-035b7b00d208" d="M37.21,13.22a12.41,12.41,0,0,0,.36,10.39.11.11,0,0,0,.19-.11,12.21,12.21,0,0,1-.36-10.17c.05-.13-.14-.24-.19-.11Z"/>
        <path class="aa967cbb-e05a-4568-a123-035b7b00d208" d="M46.37,17.22a15.44,15.44,0,0,1-6.87,2.85c-.14,0-.14.24,0,.23a15.8,15.8,0,0,0,7-2.89c.12-.07,0-.27-.11-.19Z"/>
        <path class="aa967cbb-e05a-4568-a123-035b7b00d208" d="M28.71,20.28a12.92,12.92,0,0,0,1.91,5.31,13.83,13.83,0,0,0,3.6,4.79c.11.09.27-.07.15-.16a13.27,13.27,0,0,1-3.48-4.6C30,24,29,22.21,28.93,20.28c0-.14-.23-.14-.22,0Z"/>
        <path class="aa967cbb-e05a-4568-a123-035b7b00d208" d="M44.87,30.18a16.75,16.75,0,0,1-5.62,1.76c-1,.16-2,.26-3,.36-.82.08-1.86.28-2.51-.37-.1-.1-.26.06-.16.16a2.51,2.51,0,0,0,2.06.49c1.06-.09,2.12-.2,3.17-.35A17.68,17.68,0,0,0,45,30.37a.11.11,0,0,0-.11-.19Z"/>
        <path class="aa967cbb-e05a-4568-a123-035b7b00d208" d="M25,27.16a3.39,3.39,0,0,0,.43,2.17A24.93,24.93,0,0,0,27,32.24a25.31,25.31,0,0,0,1.72,2.51,6.15,6.15,0,0,0,2.09,2c.13.06.24-.13.11-.19a5.76,5.76,0,0,1-1.94-1.8,27.43,27.43,0,0,1-1.7-2.45,25.79,25.79,0,0,1-1.3-2.43,4.18,4.18,0,0,1-.68-2.64.11.11,0,0,0-.22-.05Z"/>
        <path class="aa967cbb-e05a-4568-a123-035b7b00d208" d="M38,39.88C35,42,31.56,44,27.84,43.16c-.14,0-.2.19-.06.22,3.79.81,7.3-1.2,10.29-3.3.12-.09,0-.28-.11-.2Z"/>
        <path class="a500c7e6-b73d-4373-a28f-240571dc3ca9" d="M26.4,25.21a19.37,19.37,0,0,1,2.19,3c.67,1.09,1.34,2.19,1.94,3.32,1.17,2.19,2.1,4.77,1.26,7.09-.24.66-.61,1.27-.79,2s-.14,1.23-.25,1.84a7.17,7.17,0,0,1-2.53,3.82,27.28,27.28,0,0,0-2.89,2.47c-.52.58-.92.13-1.46.68a22.13,22.13,0,0,1-4.79,3.11c-.22.11-.07,1.21-.3,1.15-.53-.14-.48-.9-.3-1.41.37-1.06.82-2.09,1.25-3.14.85-2,1.62-4.14,2.29-6.25a29.05,29.05,0,0,0,1.53-7,32.51,32.51,0,0,0-.23-5.49c-.24-2.28-.54-4.56-.93-6.83a.53.53,0,0,1,0-.25c.05-.14.28-.16.45-.19l.23,0C24.54,23.07,26.4,25.21,26.4,25.21Z"/>
        <path class="b9db042f-9fe1-4b55-8a54-b67714b6b87b" d="M23,46.8a17.1,17.1,0,0,1-1.85,1.86,5.24,5.24,0,0,1-2.31,1.45c-.11,0-.06.17,0,.16A4.81,4.81,0,0,0,21,49a16.42,16.42,0,0,0,2.1-2.07c.06-.08-.05-.19-.11-.11Z"/>
        <g>
          <path class="ad147f60-1443-47bf-b083-78d802994009" d="M69.12,43.11c-1.07,1.52-1.9,1.68-4,4.51-1.27,1.68-1.08,1.84-2.53,3.73-2.1,2.73-3.17,4.08-4.78,5.32A16.5,16.5,0,0,1,53.59,59a11.26,11.26,0,0,1-1.76.48c-.54.13-.9.24-1.07.29a41.94,41.94,0,0,1-6.19.65,12.07,12.07,0,0,1-3.13-.16s-.63-.11-.95-.13A18,18,0,0,1,34,57.24c-3.68,2.4-7.55,5.15-11.52,8.28A159.79,159.79,0,0,0,7.72,78.71a.74.74,0,0,1-1-.81A171.51,171.51,0,0,1,20.44,65.09c4.24-3.56,8.38-6.68,12.3-9.4a9,9,0,0,1-1.58-4A10.35,10.35,0,0,1,32.35,46c.92-2.15,2.64-6.14,6.29-7.68A47.61,47.61,0,0,0,44,35.7c1.25-.84,1.15-1,2.2-1.66.52-.35,1-.58,1.17-.7A24.22,24.22,0,0,1,53.05,31c1.63-.33,1.52,0,2.88-.37,1.67-.45,2-1,3.61-1.34a9.53,9.53,0,0,1,1-.15,9.91,9.91,0,0,1,1.91,0c5.74.69,7.67,3.49,7.67,3.49C72.25,35.8,70.94,40.54,69.12,43.11Z"/>
          <path class="aa967cbb-e05a-4568-a123-035b7b00d208" d="M66.84,33.72a78.27,78.27,0,0,1-11.65,9.85,67,67,0,0,1-9.4,5.32A86.74,86.74,0,0,0,33.6,55.65c-4.37,3-8.4,6.43-12.48,9.78s-8,6.57-12,9.89L7.82,76.43c-.22.18.1.49.32.31Q14,71.88,19.82,67.07c4.18-3.44,8.32-7,12.73-10.15A79.2,79.2,0,0,1,45,49.75a72.92,72.92,0,0,0,9.32-5.06,76.32,76.32,0,0,0,11.3-9.12c.53-.51,1-1,1.55-1.54.2-.2-.12-.51-.32-.31Z"/>
          <path class="aa967cbb-e05a-4568-a123-035b7b00d208" d="M56.81,43c3.63.24,7.53.29,10.67-1.83.12-.08,0-.27-.11-.19-3.11,2.09-7,2-10.56,1.8-.14,0-.14.21,0,.22Z"/>
          <path class="aa967cbb-e05a-4568-a123-035b7b00d208" d="M64.13,42.65a4.24,4.24,0,0,0,2.09-.13c.13-.05.08-.26-.06-.22a3.81,3.81,0,0,1-2,.13c-.14,0-.2.19-.05.22Z"/>
          <path class="aa967cbb-e05a-4568-a123-035b7b00d208" d="M47,48.79a8.47,8.47,0,0,0,7.17,2.45A11.77,11.77,0,0,0,58.12,50c1.48-.76,2.86-1.72,4.38-2.4.14,0,0-.25-.11-.19-1.37.61-2.61,1.44-3.93,2.15a11.8,11.8,0,0,1-4,1.4,8.28,8.28,0,0,1-7.28-2.35c-.1-.1-.26.06-.16.16Z"/>
          <path class="aa967cbb-e05a-4568-a123-035b7b00d208" d="M52.76,51.39c1.53.85,3.06,1.47,4.82,1a.11.11,0,1,0-.06-.21c-1.7.49-3.17-.12-4.65-.94-.12-.07-.23.13-.11.19Z"/>
          <path class="aa967cbb-e05a-4568-a123-035b7b00d208" d="M38.84,53.16a8.71,8.71,0,0,0,4.83,2.71c2.13.42,4.34.53,6.5.77.14,0,.14-.21,0-.22-2.09-.23-4.22-.36-6.29-.74A8.57,8.57,0,0,1,39,53c-.1-.1-.25.06-.16.16Z"/>
          <path class="aa967cbb-e05a-4568-a123-035b7b00d208" d="M44.29,55.89a2.79,2.79,0,0,0,2.7,2c.14,0,.15-.23,0-.22a2.56,2.56,0,0,1-2.48-1.8c0-.14-.26-.09-.22,0Z"/>
          <path class="aa967cbb-e05a-4568-a123-035b7b00d208" d="M60.53,32a8.09,8.09,0,0,0,.37,7.28c.07.12.27,0,.2-.11a7.88,7.88,0,0,1-.38-7.06c.06-.13-.14-.24-.19-.11Z"/>
          <path class="aa967cbb-e05a-4568-a123-035b7b00d208" d="M52.58,35a11.13,11.13,0,0,0-2.9,5.34c-.45,2-.53,4.55.9,6.2.09.11.25-.05.15-.16-1.41-1.64-1.27-4.26-.78-6.24a11,11,0,0,1,2.78-5,.11.11,0,0,0-.15-.15Z"/>
          <path class="aa967cbb-e05a-4568-a123-035b7b00d208" d="M49.63,41.33a2.84,2.84,0,0,1-.26-1.52V38.43c0-.15-.23-.15-.22,0,0,.56,0,1.13,0,1.7a2.59,2.59,0,0,0,.29,1.31.11.11,0,0,0,.19-.11Z"/>
          <path class="aa967cbb-e05a-4568-a123-035b7b00d208" d="M42.62,42.55a5.76,5.76,0,0,0-1.72,4,6.88,6.88,0,0,0,1.18,4.36c.08.11.27,0,.19-.11a6.66,6.66,0,0,1-1.16-4,6.81,6.81,0,0,1,.37-2,4.46,4.46,0,0,1,1.25-2c.12-.09,0-.28-.11-.2Z"/>
          <path class="aa967cbb-e05a-4568-a123-035b7b00d208" d="M37.15,53.37a15.24,15.24,0,0,1-1.38-2.25,4.16,4.16,0,0,1-.2-2.61c0-.14-.2-.2-.22-.06a4.57,4.57,0,0,0,.09,2.46A11.3,11.3,0,0,0,37,53.48c.08.11.28,0,.19-.11Z"/>
          <path class="a500c7e6-b73d-4373-a28f-240571dc3ca9" d="M64.33,28.94c.42.82-1,1.7-1.62,3.61-.59,1.74.13,2.25-.38,4.06A8.64,8.64,0,0,1,60.24,40c-2.46,2.64-5.72,4.35-8.77,6.26a7.09,7.09,0,0,0-1.56,1.21,8.07,8.07,0,0,0-1.22,2c-1.22,2.2-4.67.85-7,2.95-1.91,1.72-.82,3.74-2.44,4.58-2.44,1.27-7.51-2-7.25-3.89a1.23,1.23,0,0,1,.24-.56,41.05,41.05,0,0,1,5.6-7.29,42.16,42.16,0,0,1,5.25-4.05c5.17-3.55,10.87-6.43,15.5-10.67.72-.65,2.91-2.71,4.84-2.23A1.34,1.34,0,0,1,64.33,28.94Z"/>
        </g>
        <path class="ee4475b5-68fd-4c96-bcc0-af93a57bdb5c" d="M25.33,30.3s5.8,5.41,5.21,1.06-3.46-5.16-2-5.48-2.85-7.49-.15-7.23,2.58,4.59,3.81,5.53,2.48,1.88,3.46-.8-4.2-4.82-1.82-5.65S32,12.07,35.6,12.54c0,0,3.85-1.88,3.55,2.27s1.27-.14,1.27-.14,0-7.41,3.06-5.7-1.26,5.75-.94,7.2,1.79.78,1.79.78S47.09,15,47,16.85s-3.9,3.68-3.9,3.68-2.55.65-.63,3-10.58,9.63-9.35,10.93,2.32,6.93-2.08,9.33-6.84,5-6.86-.2A117.72,117.72,0,0,1,25.33,30.3Z"/>
        <path class="aa967cbb-e05a-4568-a123-035b7b00d208" d="M23.78,37.82c-.11,2.73,1.2,5.22,2.6,7.48.07.12.26,0,.19-.12C25.19,43,23.9,40.51,24,37.82c0-.14-.22-.14-.22,0Z"/>
        <g>
          <path class="f08ea3a5-e1cb-4f12-ab3b-ef2f44d3782a" d="M21.59,22.29c4.19,2.37,6,8.46,6,8.46.57,1.92.29,2.07,1.16,5.36a7.46,7.46,0,0,1,.34,2.07,13.9,13.9,0,0,1-.78,3.58,28.36,28.36,0,0,1-.86,3.32,10.83,10.83,0,0,1-3.61,4.4c-1.5,1.19-3.15,2.2-4.57,3.5a3.55,3.55,0,0,0-.77.91,3.29,3.29,0,0,0-.4,1.36c-.22,2.86-1.53,5.52-2.26,8.28-.62,2.38-2.89,6.4-10.2,13.56a.57.57,0,0,1-.82-.71,35.2,35.2,0,0,0,10-13.25,21.07,21.07,0,0,0,2.13-10,19.3,19.3,0,0,0-2.22-7.85c-.06-.07-.39-.59-.81-1.32a8.16,8.16,0,0,1-.41-.84A10.15,10.15,0,0,1,13,40.52c-.14-1.18-.27-2.36-.4-3.54A5.56,5.56,0,0,1,13,33.5c.2-.34.48-.63.67-1a6.7,6.7,0,0,0,.48-2.76,9.06,9.06,0,0,1,6-7.6,2.08,2.08,0,0,1,.77-.11A2,2,0,0,1,21.59,22.29Z"/>
          <path class="b9db042f-9fe1-4b55-8a54-b67714b6b87b" d="M21.44,28.94q-.77,6.35-1.6,12.69c-.28,2.11-.53,4.23-.87,6.33-.32,1.93-.71,3.84-1.1,5.75-.35,1.7-.76,3.39-1.19,5.08-.28,1.07-.54,2.17-.92,3.21A29.73,29.73,0,0,1,11,69.92a71.65,71.65,0,0,1-5.63,6.31.16.16,0,0,0,.23.22,70.53,70.53,0,0,0,5-5.52,34.64,34.64,0,0,0,5-7.78A22.82,22.82,0,0,0,16.69,60q.68-2.49,1.23-5,1.26-5.73,2-11.54c.63-4.83,1.26-9.66,1.84-14.5,0-.21-.29-.21-.32,0Z"/>
          <path class="b9db042f-9fe1-4b55-8a54-b67714b6b87b" d="M17.67,27.45a9.73,9.73,0,0,0,0,5.19,17.78,17.78,0,0,0,1,2.81c.44.92,1.43,1.64,1.52,2.7,0,.1.17.11.16,0a4.28,4.28,0,0,0-1.13-2.07,11,11,0,0,1-1.26-3,9.73,9.73,0,0,1-.13-5.58c0-.1-.13-.15-.16-.05Z"/>
          <path class="b9db042f-9fe1-4b55-8a54-b67714b6b87b" d="M24.67,33.15A10.12,10.12,0,0,1,23.53,36,4.14,4.14,0,0,1,20.8,37.8c-.1,0-.06.18,0,.16a4.27,4.27,0,0,0,2.67-1.66,9.86,9.86,0,0,0,1.32-3.11c0-.1-.13-.14-.16,0Z"/>
          <path class="b9db042f-9fe1-4b55-8a54-b67714b6b87b" d="M15.34,36a9.37,9.37,0,0,0,1.52,3.92,6.48,6.48,0,0,0,3,1.93c.1,0,.14-.12.05-.15a6.23,6.23,0,0,1-3.08-2.07A9.72,9.72,0,0,1,15.5,36a.08.08,0,0,0-.16,0Z"/>
          <path class="b9db042f-9fe1-4b55-8a54-b67714b6b87b" d="M25.14,40.92a2.74,2.74,0,0,1-1,1l-1.27.91a6.18,6.18,0,0,1-3,1.2c-.1,0-.1.17,0,.16A6.22,6.22,0,0,0,23,43c.5-.35,1-.69,1.49-1.06a2.39,2.39,0,0,0,.82-.91c.05-.09-.09-.17-.13-.08Z"/>
          <path class="b9db042f-9fe1-4b55-8a54-b67714b6b87b" d="M15.1,42.7a5.87,5.87,0,0,0,1.5,3,4,4,0,0,0,2.54,1.6c.11,0,.11-.15,0-.16a3.79,3.79,0,0,1-2.42-1.56,5.64,5.64,0,0,1-1.46-2.87c0-.1-.17-.1-.16,0Z"/>
          <path class="ee4475b5-68fd-4c96-bcc0-af93a57bdb5c" d="M22.34,45.93A7.66,7.66,0,0,1,22,44.84c-.21-.78,2.62-2.16,3.2-2.73s1-1.64.34-2.1c-.32.26-2.35,1.25-3.23.68a2.54,2.54,0,0,1,.62-2.43c.47-.67,1.28-1.08,1.67-1.81s1.17-3.55.49-4a.72.72,0,0,0-.4-.14c-.34,0-1.35,2.12-1.59,2.37s-.74.37-.88.06a10.32,10.32,0,0,0,.86-8.08c-.22-.72-.73-1.54-1.48-1.47s-1.08.93-1.25,1.64c-.34,1.46-.62,2.94-.84,4.42-.7.12-1.24-4.15-1.95-4a.73.73,0,0,0-.48.43c-.8,1.55.42,6.14,1.06,7.76a3.33,3.33,0,0,1,.32,1.9,1.24,1.24,0,0,1-1.4,1c-.35-.1-.33-.63-.62-.85S15.8,34.9,15.05,36a6.26,6.26,0,0,0,.07,2.72c.67,1.46,2,2.72,2,4.32,0,.34-.15.74-.48.78-.18,0-.38-.31-.54-.39-.69-.35-.64-1.26-1.41-1.12A14.21,14.21,0,0,0,15,44.82c.32.26.36,1.2.68,1.46,1.6,1.32,2.17,3.86,2.72,5.86.31-.46,1-1.15,1.31-1.59.11-.27,4.42-2.76,4.26-3.67-.21-1.25-2.86,1.54-2.33,1.07C22.14,47.08,22.8,46.8,22.34,45.93Z"/>
        </g>
        <path class="ee4475b5-68fd-4c96-bcc0-af93a57bdb5c" d="M34.53,55.32a13.78,13.78,0,0,1,9.79,3c4.29,3.71,3.71-1,3.71-1s5.66,1.5,5.32-1.07-7.21-2.41-8.28-2.81-.83-2.73,2.58-1.73,4.86.69,5,.51,3.88,3.37,6.14.18c0,0-1.24-.94-.32-1.45s5.5-2.73,5.55-4.54S58,49.69,55.32,48.7s-2.18.66-3.42-.28,2.4-1.91,2.4-1.91,3.1-.82,2.78-2.27,3,1.35,6.15-.18,2.9-.28,3.08-.45,1.26.21,1.87-2.12-1.59-1.31-1.59-1.31-4.76,2.39-5.09,1.3,7.57-5.74,7.1-8.11-3.6-.46-5.33,2.92-1.79-.41-1.79-.41,1-3.77-.79-3.82-.31,4.51-3.57,4.77-21,7.88-21,7.88S36.35,55,34.53,55.32Z"/>
        <g>
          <path class="f08ea3a5-e1cb-4f12-ab3b-ef2f44d3782a" d="M63,16.57c-6.82-2.29-15.4,1.79-15.4,1.79-2.69,1.28-2.58,1.73-7.1,4.07a10.9,10.9,0,0,0-2.65,1.68,21.37,21.37,0,0,0-3.19,4.46,46.11,46.11,0,0,0-2.83,4.25,16.5,16.5,0,0,0-1.27,8.41c.19,2.86.71,5.7.69,8.56A5.53,5.53,0,0,1,31,51.56a5.05,5.05,0,0,1-1.12,1.82c-1.07,1.14-10.74,10.9-24,24.22-.33.9.75,1.3,1,1.14,0,0,11.86-11.63,15.26-15.45A76,76,0,0,1,33.32,52.54s6.26-4.76,10.93-5.38c.13,0,1-.16,2.27-.43a10.25,10.25,0,0,0,1.34-.38,15.28,15.28,0,0,0,3.46-2l4.32-3.09c1.45-1,3-2.19,3.5-3.89.17-.56.23-1.15.41-1.7.46-1.34,1.62-2.27,2.58-3.3a13.53,13.53,0,0,0,2.48-14.22,3.21,3.21,0,0,0-.65-1A3.11,3.11,0,0,0,63,16.57Z"/>
          <g>
            <path class="b9db042f-9fe1-4b55-8a54-b67714b6b87b" d="M55.4,23q-4.77,5.47-9.5,11c-3.11,3.63-6.3,7.21-9.28,11s-5.35,7.57-8.47,11-6.66,6.83-10,10.2L6.58,77.77c-.22.21.12.55.34.33L17.21,67.79C20.59,64.4,24,61.06,27.33,57.58a59.71,59.71,0,0,0,4.43-5.23c1.38-1.84,2.68-3.75,4.08-5.59,2.89-3.83,6.12-7.41,9.25-11.06q5.29-6.18,10.65-12.33c.2-.23-.14-.57-.34-.34Z"/>
            <path class="b9db042f-9fe1-4b55-8a54-b67714b6b87b" d="M61,26a14.71,14.71,0,0,1-6.7,5.6A15.45,15.45,0,0,1,49.93,33c-1.15.12-2.37.07-3.33.82-.12.1,0,.26.17.17,1.11-.86,2.62-.59,3.92-.86a14,14,0,0,0,2.15-.73c.67-.26,1.34-.53,2-.83a14.7,14.7,0,0,0,6.33-5.48c.08-.13-.13-.25-.21-.12Z"/>
            <path class="b9db042f-9fe1-4b55-8a54-b67714b6b87b" d="M47.64,23.87a14.67,14.67,0,0,0-2.1,4.41,6.35,6.35,0,0,0,.79,4.79c.09.13.29,0,.21-.12a6.15,6.15,0,0,1-.7-4.88,15.63,15.63,0,0,1,2-4.08.12.12,0,0,0-.2-.12Z"/>
            <path class="b9db042f-9fe1-4b55-8a54-b67714b6b87b" d="M53.88,37a15.16,15.16,0,0,1-5.25,2.16,9.17,9.17,0,0,1-5.54-1.33c-.14-.08-.26.13-.12.2a9.44,9.44,0,0,0,5.54,1.38A15,15,0,0,0,54,37.21c.13-.08,0-.29-.12-.21Z"/>
            <path class="b9db042f-9fe1-4b55-8a54-b67714b6b87b" d="M38.53,31.15a3.91,3.91,0,0,0-.19,2c.09.89.21,1.78.31,2.66a11.11,11.11,0,0,0,.5,2.41,8.21,8.21,0,0,0,1.23,2.2c.09.12.29,0,.2-.12a8.51,8.51,0,0,1-1.2-2.14,11,11,0,0,1-.49-2.35c-.09-.79-.19-1.59-.28-2.38a4.08,4.08,0,0,1,.13-2.11c.06-.14-.15-.26-.21-.12Z"/>
            <path class="b9db042f-9fe1-4b55-8a54-b67714b6b87b" d="M46.64,44a8.54,8.54,0,0,1-4.73,1.25,5.56,5.56,0,0,1-4.06-1.15c-.12-.1-.29.07-.17.17a5.81,5.81,0,0,0,4.23,1.22,8.64,8.64,0,0,0,4.9-1.33c.12-.09-.05-.26-.17-.16Z"/>
            <path class="b9db042f-9fe1-4b55-8a54-b67714b6b87b" d="M34.12,39.48a23.77,23.77,0,0,0-.21,4.21c0,.67.07,1.34.15,2a3.86,3.86,0,0,0,.57,1.84c.08.13.29,0,.2-.12a4.26,4.26,0,0,1-.57-2c-.07-.66-.11-1.32-.13-2a25.31,25.31,0,0,1,.22-3.89c0-.16-.21-.16-.23,0Z"/>
          </g>
        </g>
        <path class="ee4475b5-68fd-4c96-bcc0-af93a57bdb5c" d="M32.49,51.11s1.92-3.92.37-6.31c-.73-1.13-.72-1.62-.51-1.83a2.11,2.11,0,0,0,.57-1.7c-.13-1.68-.12-4,1-3.49,1.79.78,1,2.92,1.71,3.3s2-1.2,1.51-2.12S35.32,34.75,36,34.77s.34-5.59,2.31-5,1.19,2.75,1.88,3.85,1.36,2.93,3,1.71-.58-5.07.35-6,2.43-9,5.44-6.88-2.29,4.26-1.61,5.73c.45,1,1.53,0,2.19-.82a8.22,8.22,0,0,0,.78-1.08c1-1.68,5.59-8.67,7.73-5.74C60.56,23.93,52.52,27.3,53,29s2-1.21,2.91-.64,3.76-4.95,5.33-3.28c1.39,1.47-1.89,4.78-2.7,5.55-.11.11-.22.21-.33.33-.75.76-3.95,3.83-6.64,3.59C48.52,34.23,49,37,49,37s2.2-1,2.89.08,1.32-1.95,2.91-.64S52,39.75,50,40.24a3.74,3.74,0,0,1-3.33-.81s-1.88-.25-1.56,1.21c.19.84-.4,1.11-.92,1.2a.24.24,0,0,0-.11.44c.4.3.8.68.6.87-.38.35,3.65-1.33,4.34-.23S44.56,46,44.56,46s-1.71,1-6.53.89C35.14,46.85,32.49,51.11,32.49,51.11Z"/>
        <g>
          <path class="a3de6f6c-4620-4178-852d-a69bd709e9eb" d="M12.09,68.23a3.26,3.26,0,0,1,2.5,1.17A1.93,1.93,0,0,1,15,72c-.15.23.15.41.31.18a2.23,2.23,0,0,0-.21-2.87,6,6,0,0,0-1.4-1.1,2.28,2.28,0,0,0-1.54-.36c-.26,0-.34.43-.08.39Z"/>
          <path class="a3de6f6c-4620-4178-852d-a69bd709e9eb" d="M11.89,68.44A3.21,3.21,0,0,1,14.13,70a2,2,0,0,1-.05,2.63c-.2.19.07.43.27.23A2.24,2.24,0,0,0,14.66,70a6.17,6.17,0,0,0-1.17-1.33A2.24,2.24,0,0,0,12,68.07c-.26,0-.41.36-.15.37Z"/>
          <path class="a3de6f6c-4620-4178-852d-a69bd709e9eb" d="M11.37,69a3.25,3.25,0,0,1,2.24,1.61,1.92,1.92,0,0,1,0,2.62c-.2.2.07.44.27.24a2.25,2.25,0,0,0,.32-2.87A6.19,6.19,0,0,0,13,69.26a2.32,2.32,0,0,0-1.45-.64c-.26,0-.41.36-.15.37Z"/>
          <path class="a3de6f6c-4620-4178-852d-a69bd709e9eb" d="M11,69.44A3.21,3.21,0,0,1,13.22,71a1.94,1.94,0,0,1-.06,2.63c-.19.19.08.43.27.23A2.23,2.23,0,0,0,13.75,71a6.47,6.47,0,0,0-1.17-1.34,2.28,2.28,0,0,0-1.45-.63c-.26,0-.42.35-.15.37Z"/>
          <path class="a3de6f6c-4620-4178-852d-a69bd709e9eb" d="M10.74,69.82A3.12,3.12,0,0,1,13,71.37,1.89,1.89,0,0,1,12.87,74c-.2.2.07.43.27.23a2.2,2.2,0,0,0,.34-2.82,6,6,0,0,0-1.16-1.3,2.24,2.24,0,0,0-1.43-.61c-.26,0-.42.36-.15.37Z"/>
          <path class="ab99e3da-2bb3-4109-ac38-f521748cc70a" d="M13.92,65.17A1.21,1.21,0,0,0,12.63,65a1.42,1.42,0,0,0-.75,1.12,1.46,1.46,0,0,0,0,.5l-.05-.06,0,0,0-.05s-.63-.74-1.27-.54a.76.76,0,0,0-.45.36.83.83,0,0,0,.14.75,3.23,3.23,0,0,0,1.53,1v.15a.24.24,0,0,0,.21.22.17.17,0,0,0,.12.1l0,0a1.12,1.12,0,0,1-.52.29c-.27.11-.55.22-.82.35a3.66,3.66,0,0,0-1.44,1.07,11.69,11.69,0,0,0-.7,1.68c-.14.25.25.47.38.22.24-.44.29-1,.53-1.41a2.58,2.58,0,0,1,1.08-1c.44-.25.93-.41,1.39-.62a1,1,0,0,0,.65-.81c0-.12,0-.25.05-.37a2.22,2.22,0,0,0,.08-1.15c0-.25-.12-.66.1-.85s.54.13.56.42a1.79,1.79,0,0,1-.18.84,2.83,2.83,0,0,1-.58.85s.07.2.19.23.2,0,.32-.16a3.28,3.28,0,0,0,.53-.58,2.88,2.88,0,0,0,.42-.78C14.17,66.5,14.43,65.65,13.92,65.17Zm-2.86,1.29a1.37,1.37,0,0,1,.66,1,2.3,2.3,0,0,1-.56-.19c-.18-.09-.64-.32-.63-.62a.42.42,0,0,1,.15-.26A1,1,0,0,1,11.06,66.46Z"/>
          <ellipse class="ab99e3da-2bb3-4109-ac38-f521748cc70a" cx="12.49" cy="68.25" rx="0.37" ry="0.77" transform="translate(-56.63 74.31) rotate(-84.64)"/>
        </g>
      </g>
    </g>
  </g>
</svg>
