<svg id="ab1bba48-d08a-4efa-98bf-8dd14132d6dd" data-name="Layer 1" xmlns="http://www.w3.org/2000/svg" width="49" height="50" viewBox="0 0 49 50">
  <defs>
    <style>
      .a02ac822-9123-4328-bf7b-b0238de8fd62, .f7f792a0-1fce-4860-a88b-9cf9d7734841 {
        fill: #e52315;
      }

      .a02ac822-9123-4328-bf7b-b0238de8fd62 {
        stroke: #610;
        stroke-miterlimit: 10;
        stroke-width: 0.5px;
      }

      .e94b01b1-08ba-4408-8b48-1aa70d4f844e {
        fill: #ce1915;
      }

      .a8958656-c58e-46b5-9982-a7468fe5faf6 {
        fill: #54a012;
      }

      .b127621b-548c-487c-b833-98d9e252cd03 {
        fill: #4c8e0d;
      }

      .ee651fdf-13fa-4b41-a58f-80b20b333dc2 {
        fill: #f8714a;
      }
    </style>
  </defs>
  <g id="eec1597f-8c85-4ffd-9a38-ca84cd8be23c" data-name="Tomato">
    <g id="ad9bec21-b2e6-434c-981c-a35b3f1891ba" data-name="Tomato">
      <path class="a02ac822-9123-4328-bf7b-b0238de8fd62" d="M11,14a19.93,19.93,0,0,1,5.16-1.66h0c.95-.19,2-.33,3.05-.45h.06a55.66,55.66,0,0,1,5.58-.26c1.2,0,2.34,0,3.4.1a32.82,32.82,0,0,1,6,.84A14.28,14.28,0,0,1,41,15.86l.33.33c2.47,2.58,3.39,6.25,3.39,11,0,8.12-5.53,15-13.26,17.66A21.26,21.26,0,0,1,24.5,46C13.36,46,4.33,37.56,4.33,27.18,4.33,20.84,6.05,16.42,11,14Z"/>
      <path class="e94b01b1-08ba-4408-8b48-1aa70d4f844e" d="M4.33,27.18c0,10.38,9,18.8,20.17,18.8a21.26,21.26,0,0,0,6.91-1.14,21.27,21.27,0,0,1-6.92.32C13.42,43.89,5.41,34.5,6.6,24.19c.52-4.53,1.81-8,4.43-10.24C6.05,16.42,4.33,20.84,4.33,27.18Z"/>
      <path class="f7f792a0-1fce-4860-a88b-9cf9d7734841" d="M24.49,45.16a21.27,21.27,0,0,0,6.92-.32c7.73-2.62,13.26-9.54,13.26-17.66,0-4.74-.92-8.41-3.39-11L41,15.86a14.28,14.28,0,0,0-6.64-3.34,32.82,32.82,0,0,0-6-.84c-1.06-.07-2.2-.1-3.4-.1a55.66,55.66,0,0,0-5.58.26h-.06c-1.09.12-2.1.26-3.05.45h0A19.93,19.93,0,0,0,11,14C8.41,16.22,7.12,19.66,6.6,24.19,5.41,34.5,13.42,43.89,24.49,45.16Z"/>
      <path class="e94b01b1-08ba-4408-8b48-1aa70d4f844e" d="M11.63,14.8a7,7,0,0,1,2.54-1.26,7.43,7.43,0,0,1,1.89-.1,34.55,34.55,0,0,1,3.53.33,8.89,8.89,0,0,0-2.34,4.41c-.1.83,0,1.67-.05,2.51a3.35,3.35,0,0,1-1,2.33,5.6,5.6,0,0,0,3.53-3.62A9,9,0,0,1,20.88,17a3.27,3.27,0,0,1,2.63-1.26,1.13,1.13,0,0,1,.74.24.9.9,0,0,1,.22.36,10,10,0,0,1,.17,7.28,10.11,10.11,0,0,0,3.56-7.86l5.24,1.47A13.25,13.25,0,0,0,35,17.6a8.79,8.79,0,0,0,3.88-.39,20.37,20.37,0,0,0,2.45-1L41,15.86a16.88,16.88,0,0,1-2.36.07,9.66,9.66,0,0,1-2.35-.34c-.59-.16-1.14-.4-1.71-.6-1.78-.63-2.85-1.26-4.78-1.06a14.15,14.15,0,0,1,4.3-1.37l.26,0a32.82,32.82,0,0,0-6-.84,10.39,10.39,0,0,0-1.74.85h0a3.54,3.54,0,0,1-2.42-.32,12,12,0,0,0-4.8-.36h-.06l-.5.05a21.49,21.49,0,0,0-2.55.4h0a12,12,0,0,0-1.45.41A6.58,6.58,0,0,0,11.63,14.8Z"/>
      <path class="a8958656-c58e-46b5-9982-a7468fe5faf6" d="M13.68,11.17a17.11,17.11,0,0,1,4-.81,13.06,13.06,0,0,1,5.37.3,3.42,3.42,0,0,0,2.42.32h0a11.88,11.88,0,0,1,6.57-1.62,11.21,11.21,0,0,1,6.42,2.31A8.82,8.82,0,0,0,33,11a13.88,13.88,0,0,0-4.3,1.37c1.93-.21,3,.43,4.78,1,.57.2,1.12.44,1.7.61a10.33,10.33,0,0,0,2.36.33,17.49,17.49,0,0,0,3.69-.24,22.38,22.38,0,0,1-3.46,1.52,8.73,8.73,0,0,1-3.87.4,12.31,12.31,0,0,1-1.51-.36l-5.24-1.47a10.14,10.14,0,0,1-3.57,7.86,10,10,0,0,0-.16-7.29,1,1,0,0,0-.22-.36,1.28,1.28,0,0,0-.74-.24,3.26,3.26,0,0,0-2.63,1.27,9.08,9.08,0,0,0-1.15,2.39,5.58,5.58,0,0,1-3.53,3.62,3.34,3.34,0,0,0,1-2.34c.05-.83-.06-1.67.05-2.51a8.9,8.9,0,0,1,2.34-4.4A34.75,34.75,0,0,0,15,11.91,7.45,7.45,0,0,0,13.1,12a7.26,7.26,0,0,0-2.53,1.27A6.58,6.58,0,0,1,13.68,11.17Z"/>
      <path class="b127621b-548c-487c-b833-98d9e252cd03" d="M22.29,4.09A1.76,1.76,0,0,1,22.68,4a.58.58,0,0,1,.34.06.78.78,0,0,1,.21.29,22.13,22.13,0,0,1,2.09,7.56.82.82,0,0,1-.1.48c-.16.29-.64.24-.86,0a1.77,1.77,0,0,1-.29-.94,14.14,14.14,0,0,0-1.73-5.35,3.59,3.59,0,0,0-.45-.65A.85.85,0,0,1,22.29,4.09Z"/>
      <path class="ee651fdf-13fa-4b41-a58f-80b20b333dc2" d="M36.42,22.24a3.41,3.41,0,0,1,1.78-2.19,2.38,2.38,0,0,1,1.09-.2,2.73,2.73,0,0,1,2.49,2,8.93,8.93,0,0,1-.51,6.68,2,2,0,0,1-1.8,1.22A2.82,2.82,0,0,1,38,29.6a2.89,2.89,0,0,1-1.37-1.88,11.44,11.44,0,0,1-.4-2.6A8.18,8.18,0,0,1,36.42,22.24Z"/>
    </g>
  </g>
</svg>
