<svg xmlns="http://www.w3.org/2000/svg" viewBox="0 0 42.85 54.51"><defs><style>.cls-1{fill:#6d503c;}</style></defs><g id="Layer_10" data-name="Layer 10"><path class="cls-1" d="M41,1.49A161.9,161.9,0,0,0,10.63,49.35h0c-6-4-11.9-14.3-8.85-22.87,1-3.15,8-12.28,8-12.21s.41.12,1.11.37a21,21,0,0,1,3.55-4.7s.62.14,1.68.46a19.64,19.64,0,0,1,3.34-3.27s.66.21,1.74.67A21.32,21.32,0,0,1,25.91,4s.52.23,1.39.69A21.93,21.93,0,0,1,32.8,2s.61.4,1.57,1.15A25.6,25.6,0,0,1,41,1.31h0A.84.84,0,0,0,41,1.49Z"/><path class="cls-1" d="M41,1.49A161.9,161.9,0,0,0,10.63,49.35l0,0v0c7.06,1.36,17.25-1.06,22.54-6.23,3-2.91,5.44-10.88,5.52-10.86s-.29-.29-.84-.8a19.56,19.56,0,0,0,2.5-4.31s-.38-.49-1.09-1.3A19.62,19.62,0,0,0,41,22.16s-.43-.52-1.23-1.35a22.17,22.17,0,0,0,2-5s-.36-.43-1-1.11a25.39,25.39,0,0,0,1.22-5.47S41.41,8.76,40.45,8a33.45,33.45,0,0,0,.78-6.47h0Z"/><path class="cls-1" d="M41,1.49A162.58,162.58,0,0,0,8.5,52.64l.62.44.73.12A161.7,161.7,0,0,1,41,1.49Z"/><path class="cls-1" d="M12.55,18.64A54.38,54.38,0,0,0,14,40.88l.34,0,.31-.16A54.2,54.2,0,0,1,12.55,18.64Z"/><path class="cls-1" d="M32,34.78a146.29,146.29,0,0,1-19,9.65l-.18-.3-.07-.34A143.66,143.66,0,0,0,32,34.78Z"/><path class="cls-1" d="M19.37,11.36A46.65,46.65,0,0,0,20,29.55l.29,0,.26-.12A46.2,46.2,0,0,1,19.37,11.36Z"/><path class="cls-1" d="M34.85,24.92a105.21,105.21,0,0,1-16,7.7l-.14-.25,0-.27A104.43,104.43,0,0,0,34.85,24.92Z"/><path class="cls-1" d="M28.52,6.61A28.59,28.59,0,0,0,26.75,19.1l.26,0,.25-.05A28.11,28.11,0,0,1,28.52,6.61Z"/><path class="cls-1" d="M38.77,15.86A83.73,83.73,0,0,1,25,22.18,1.33,1.33,0,0,0,24.9,22a1.42,1.42,0,0,0,0-.22A86,86,0,0,0,38.77,15.86Z"/></g></svg>