<svg xmlns="http://www.w3.org/2000/svg" viewBox="0 0 42.34 54.17"><defs><style>.cls-1{fill:#19820b;}.cls-2{fill:#8dc63f;}</style></defs><g id="Layer_11" data-name="Layer 11"><path class="cls-1" d="M40.77,1.32a162.14,162.14,0,0,0-30.4,47.86h0c-6-4-11.91-14.31-8.86-22.87,1-3.15,8-12.28,8-12.21s.4.12,1.11.37a21.2,21.2,0,0,1,3.54-4.7s.63.14,1.68.46A19.88,19.88,0,0,1,19.2,6.94s.65.21,1.74.67a21.07,21.07,0,0,1,4.72-3.8S26.18,4,27,4.5a22.11,22.11,0,0,1,5.5-2.66s.61.4,1.57,1.15A25.6,25.6,0,0,1,40.7,1.14h0Z"/><path class="cls-1" d="M40.77,1.32a162.14,162.14,0,0,0-30.4,47.86s0,0,0,0,0,0,0,0C17.46,50.53,27.66,48.12,33,43c3-2.91,5.43-10.89,5.51-10.86s-.29-.3-.83-.8A20.08,20.08,0,0,0,40.13,27s-.38-.49-1.09-1.3A19.11,19.11,0,0,0,40.69,22s-.43-.52-1.23-1.35a21.6,21.6,0,0,0,2-5s-.36-.43-1-1.11a24,24,0,0,0,1.22-5.47s-.52-.49-1.47-1.26A32.77,32.77,0,0,0,41,1.36h0Z"/><path class="cls-2" d="M40.77,1.32A162.22,162.22,0,0,0,8.25,52.47l.61.44.73.12A161.62,161.62,0,0,1,40.77,1.32Z"/><path class="cls-2" d="M12.29,18.47a54.38,54.38,0,0,0,1.47,22.24l.34,0,.3-.16A54.2,54.2,0,0,1,12.29,18.47Z"/><path class="cls-2" d="M31.79,34.61a147.06,147.06,0,0,1-19,9.65l-.18-.3-.07-.34A143.79,143.79,0,0,0,31.79,34.61Z"/><path class="cls-2" d="M19.12,11.19a46.46,46.46,0,0,0,.65,18.19l.28,0,.26-.12A46.2,46.2,0,0,1,19.12,11.19Z"/><path class="cls-2" d="M34.6,24.75a106.13,106.13,0,0,1-16,7.7,2,2,0,0,1-.14-.25l-.05-.27A104.54,104.54,0,0,0,34.6,24.75Z"/><path class="cls-2" d="M28.27,6.44A28.3,28.3,0,0,0,26.5,18.93l.25,0L27,18.9A28.26,28.26,0,0,1,28.27,6.44Z"/><path class="cls-2" d="M38.51,15.69A84,84,0,0,1,24.79,22l-.14-.19-.06-.22A85.62,85.62,0,0,0,38.51,15.69Z"/></g></svg>