<svg id="Layer_1" data-name="Layer 1" xmlns="http://www.w3.org/2000/svg" xmlns:xlink="http://www.w3.org/1999/xlink" viewBox="0 0 542 306.09"><defs><style>.cls-1{fill:#65230b;}.cls-2{fill:url(#linear-gradient);}.cls-3{fill:url(#linear-gradient-2);}.cls-4{fill:url(#linear-gradient-3);}</style><linearGradient id="linear-gradient" x1="119.36" y1="265.87" x2="81.27" y2="74.27" gradientUnits="userSpaceOnUse"><stop offset="0" stop-color="#206a53"/><stop offset="0.24" stop-color="#246e52"/><stop offset="0.48" stop-color="#307a4e"/><stop offset="0.72" stop-color="#458e47"/><stop offset="0.79" stop-color="#4b9445"/></linearGradient><linearGradient id="linear-gradient-2" x1="279.72" y1="74.6" x2="243.98" y2="-105.22" gradientTransform="matrix(1, -0.09, 0.09, 1, 3.38, 95.22)" gradientUnits="userSpaceOnUse"><stop offset="0" stop-color="#206a53"/><stop offset="0.21" stop-color="#246e52"/><stop offset="0.43" stop-color="#307a4e"/><stop offset="0.64" stop-color="#458e47"/><stop offset="0.7" stop-color="#4b9445"/></linearGradient><linearGradient id="linear-gradient-3" x1="378.5" y1="590.24" x2="338.25" y2="387.77" gradientTransform="matrix(0.72, 0.3, -0.3, 0.73, 359.23, -389.24)" gradientUnits="userSpaceOnUse"><stop offset="0" stop-color="#0b5a42"/><stop offset="0.16" stop-color="#0f5e41"/><stop offset="0.33" stop-color="#1b6b3e"/><stop offset="0.5" stop-color="#2f7f38"/><stop offset="0.67" stop-color="#4b9d30"/><stop offset="0.84" stop-color="#6fc227"/><stop offset="0.92" stop-color="#84d721"/></linearGradient></defs><path class="cls-1" d="M273.38,83.4s-4.59,13.28-4.08,24c0,0-24-29.1-25-35.74,0,0-8.17-1.54-6.13,6.64s22.47,29.1,22.47,29.1,8.17,59.75,7.66,66.9-8.17,15.82-24,26-32.68,28.08-31.66,47.49c0,0-18.9-20.43-33.19-22.47S160,214.12,159.51,210.55s-1.53-18.89-5.62-20.94l-10.72,7.15c-1.53,1,7.66,4.09,4.6,16.85,0,0-6.64,4.6-9.71,4.6s-14.8-14.81-14.8-14.81L112,207.49l11.75,12.76s-7.66,2.56-38.81-5.1c0,0,14.81-4.09,10.72-16.34l-6.64-1S95.68,207.49,85,210s-14.3,3.06-18.39,1-1,2-6.12,6.64-24.51,18.38-35.24,2c0,0-5.1,3.07,0,7.15s22.47,12.77,40.85-7.15a47.15,47.15,0,0,1,25,1.53c13.78,4.6,36.76,8.17,50,6.64s42.38,7.66,50.55,15.32,21.39,40,31.83,58c0,0-.1-16.64,14.75-15.32,3.05.28-8.79-14-8.79-27.31s-4.6-20.43,11.23-36.77,34.22-26,39.83-40.85S278,145.19,278,118.64s8.17-41.88,8.17-41.88S276.82,69.24,273.38,83.4Z"/><path class="cls-2" d="M58.22,204.27s17.33,15.31,68-2.32c0,0,36.56,5.82,45.45-14.06,0,0,27.35,5,29.32-17.29s-8-46.94-28.66-40.73c0,0-13.66-27.73-58.15-17.66s-36.29,36.05-36.29,36.05S45.2,143,32.18,174.38c0,0-21,.9-25.79,31.55S33.62,225.1,36.69,222,55.92,225.75,58.22,204.27Z"/><path class="cls-3" d="M182.92,67.15s22.09,24.1,69,8c0,0,9.82,15.9,40.66,4.57,0,0,17,9.6,39.56-5.92S339.71,43,339.71,43s-2-22.75-38.58-26.92c0,0-29.73-21.51-55.88-4.86C245.25,11.22,174.57,17.15,182.92,67.15Z"/><path class="cls-4" d="M413.09,51s-3,26.24,35.43,31.84c0,0,1.81,22.18,34.66,26,0,0,10,3.13,31.31.37s21-19.7,21-19.7,5.92-19.7-18.06-35.74c0,0-8.18-25.34-50.88-27.06C466.51,26.71,412.22,13.91,413.09,51Z"/></svg>