<svg xmlns="http://www.w3.org/2000/svg" viewBox="0 0 476.13 583.49"><defs><style>.cls-1{fill:#785442;}.cls-2{fill:#3f2101;}.cls-3{fill:#4f2900;}.cls-4{fill:#512a00;}.cls-5{fill:#985b12;}.cls-6{fill:#804805;}.cls-7{fill:#663600;}.cls-8{fill:#b16f21;}.cls-9{fill:#bb7f2d;}.cls-10{fill:#e9cf79;}.cls-11{fill:#e2bc5b;}.cls-12{fill:#82481d;}.cls-13{fill:#703a22;}.cls-14{fill:#935434;}.cls-15{fill:#8e5326;}.cls-16{fill:#995b31;}.cls-17{fill:#b8713a;}.cls-18{fill:#ffa645;}.cls-19{fill:#994d02;}.cls-20{fill:#d18205;}.cls-21{fill:#4f2519;}.cls-22{fill:#9d631a;}.cls-23{fill:#824502;}.cls-24{fill:#d8924c;}</style></defs><g id="Layer_2" data-name="Layer 2"><polygon class="cls-1" points="472.86 245.48 360.62 225 52.2 228.07 7.26 245.43 472.86 245.48"/><path class="cls-2" d="M180.13,2.8c-9.65,2.48-11.29,2-21.37,2.77-8.62.63-17.18,1.4-25.78,2q-2.89.2-5.79.36l-.27,0c-3,.17-6,.47-9,.8-5.59.6-11.22.88-16.83,1.34l-.74.05-1.59.08-.76,0-.46,0-.45,0c-.31,0-.62.08-.92.13l-.2,0-.21,0-.21,0-.21.05-.4.12-.19.07-.18.07-.18.08-.18.08-.16.08a13.68,13.68,0,0,0-6.35,8.67c-.07.24-.13.49-.19.73s-.16.72-.21,1.08q-.06.3-.09.6c0,.12,0,.23,0,.35-.06.42-.06.87-.08,1.28,0,.21,0,.41,0,.62s0,.37,0,.56v0a15.67,15.67,0,0,0,.43,2.43,12.55,12.55,0,0,0,5,7.37c2.31,1.71,5.94,1.4,9.23,1.54,7.9.34,16,0,23.84.66,10.63.93,21.45-.76,32.15,0l1.87.1c.47,0,.95,0,1.42.06l2.86.07,1.43,0c2.29,0,4.58,0,6.88,0l2,0,1.25,0,1.25,0,1.24,0c5.84.18,11.61.82,17.45,1,4.6.17,9.22-.36,13.82-.49,1.22,0,2.44,0,3.66,0l.73,0,.72,0,.73,0,1.08,0,.65,0,1.06.06H218l1.21.08,1.62.12H221l.74.05,1.78.1.66,0,.55,0h.62l.93,0h9.19l1.33,0h0l.78-.57c1.18-.87,1.62-1.44,2.68-3.54L241.6,31c3.18-8.51,2.5-15.42-1.22-23.7l-.49-.93a6.47,6.47,0,0,0-2.26-2.46l-.19-.12C225,4.17,210.5,3.44,198,3.35l-10.68-.24-7.14-.31"/><path class="cls-3" d="M191.54,3.21c.17-.1-11.12-.32-10.94-.41-9.65,2.48-11.76,2-21.84,2.77-8.62.63-17.18,1.4-25.78,2,9.09-.41,18.17-.14,27.28-.6C169.19,6.5,184.31,7.41,191.54,3.21Z"/><path class="cls-4" d="M87.53,21.71s0,0,0,.06v0A13.45,13.45,0,0,0,88,24.24a12.55,12.55,0,0,0,5,7.37c2.3,1.71,5.93,1.4,9.22,1.54,7.9.34,16,0,23.84.66,10.64.93,21.46-.75,32.15,0l1.87.11,1.43,0c.95,0,1.9.06,2.86.07l1.43,0c2.29,0,4.58,0,6.87,0l2,0,1.25,0c.41,0,.83,0,1.24,0l1.25,0c5.84.18,11.61.83,17.44,1,4.61.18,9.23-.36,13.82-.49,1.23,0,2.44,0,3.66,0l.73,0,.73,0,.73,0,1.07.06.66,0,1,.07h.18l1.21.08,1.63.11h.11l.74.05c.58,0,1.17.08,1.77.1l.66,0h.55l.63,0h6.57l1.85,0h2.69V33.9h0a39.69,39.69,0,0,1-4.6-.53l-.2,0-.63-.09-.63-.08c-3.19-.43-6.36-.91-9.58-1.29-11.83-1.36-24-1-36-.77-4,.09-9.51.6-13.39-.2-3.59-.76.85-2.52,2.65-3.07,1-.31,3.28-.55,3.55-1.5.5-1.74-3.76-1.84-5.22-2.08a128.86,128.86,0,0,0-24-1.65c-6.52.19-13,.54-19.56.45-3.64,0-7.3-.5-10.9-.82-3.43-.3-7.65-.15-10.78-1.29-1.65-.61-3.33-1.74-2.17-3.16,1.32-1.59,5.26-1.12,7.31-1.23,7.25-.39,14.76.87,21.91-.31,1.54-.26,4.17-.51,3.06-1.88-.69-.84-3.6-1.08-4.63-1.3A58.74,58.74,0,0,0,125.73,12c-3-.25-6-.68-8.94-.8-3.5-.15-.17-.88,3.19-1.22,12.25-1.25,17.41-1.69,21.44-1.82,29.1-1,40.87-5.46,39-5.41-1.28,0-40.59,1.6-40.68,1.6-8.73.54-18.34.8-21.37,1.12-5.59.61-11.22.88-16.84,1.34l-.73,0-1.6.09-.75,0L98,7l-.46.05c-.31,0-.62.08-.92.13l-.19,0-.22,0-.21,0-.2,0-.4.12-.19.07L95,7.64l-.18.08-.17.08-.17.09a13.66,13.66,0,0,0-6.35,8.66c-.06.24-.13.49-.18.74s-.16.71-.22,1.07c0,.2-.07.41-.09.61s0,.23,0,.34,0,.34,0,.51c0,.4,0,.81,0,1.21C87.51,21.25,87.52,21.48,87.53,21.71Z"/><path class="cls-3" d="M187.88,4.33c6.84.07,22.54,2,29.4,1.79,5-.16,10.27.56,15.27,0,1.34-.16,5,0,6.37-.21l-1.48-2.11c-10.44-.29-11.32.11-39.77-.41C196.35,3.72,188,4,187.88,4.33Z"/><path class="cls-2" d="M87.1,25v.11a15.67,15.67,0,0,0,.43,2.43,20.41,20.41,0,0,0,4.29,8.6c1.9,2.08,6,3.17,9.18,3.24,11.15.26,16.91-.42,24.66-.46,10.74-.06,15.2-.35,26.84,0,.63,0,5.6-.41,6.22-.38s3.22-.25,3.7-.23c1,0,1.43-.08,2.38-.07.48,0,1.81-.07,2.29-.06,2.29,0,3.17,0,5.47,0,.66,0,1.62-.08,2.28-.07.42,0,1-.05,1.45-.05s.91-.17,1.33-.16l2.24.1c5.84.18,9.68.36,15.52.59,4.6.17,9.22-.36,13.82-.49,1.22,0,2.44,0,3.66,0l.73,0,.72,0,.73,0,1.08,0,.65,0,1.06.06H218l1.21.08c.54,0,.78.07,1.38.15l.36.08a9.46,9.46,0,0,0,1.08.15,48.83,48.83,0,0,0,6.07.15l.33,0a8.72,8.72,0,0,0,1.1.08c2.76,0,4.22-.37,6.85-.3V36.5a42.83,42.83,0,0,1-4.63-.51,7.08,7.08,0,0,1-1.39.45h0a33.27,33.27,0,0,1-3.74.5c-4.74.32-9.41-.42-14.13-.35-5.34.08-11.22.15-17.95.14-6.11,0-12.11-.86-18.25-.76a82.58,82.58,0,0,1-8.61-.17c-3.48-.3-6.94,0-10.44-.13-5.93-.13-11.74-.45-17.62-.93-2.16-.18-4.34-.3-6.5-.48-1.79-.16-6.41.18-7.73-.83-1.07-.81.43-1,1.72-1.26,2.45-.41,5-.37,7.48-.57,5.06-.39,10-1.24,15.11-1.51,7.55-.39,15-1.09,22.5-1.26-10.6.23-12.21-.85-18.45-.89-5.33,0-10.63.31-16,.48-9.24.28-18.29,0-27.5-.34-3.7-.12-15,.52-14.08-4,.37-1.81,2.51-3,4.66-3.77,7.08-2.65,17.51-3.27,25.17-3.58-11-.62-11.83-.27-16.66-.45-4.39-.16-13,1.36-13.75-2.83a23.67,23.67,0,0,1,.21-3.89c-.36-3.68-4.18.51-4.23.54a14.87,14.87,0,0,0-4.15,9.56,9,9,0,0,1-.09.91c-.08.36,0,.68,0,1q-.06.3-.09.6c0,.12,0,.23,0,.35s0,.33,0,.5c0,.41,0,.81,0,1.22C87.08,24.53,87.09,24.76,87.1,25Z"/><path class="cls-3" d="M223.08,7.84c-.67.07-1.35.11-1.69.16-1.35.18-2.71.35-4.08.42-2.42.13-4.84.33-7.27.41-9.1.29-18.27.65-27.36.69-8.2,0-16.41-.33-24.61,0-6.16.21-12.72.25-18.6,1.85,1.3-.36,3.72-.05,5.12-.06,1.89,0,3.79,0,5.68.06,3.57.16,6.93.9,10.45,1.25-.89.71-2.93.74-4.15.92a47.19,47.19,0,0,1-10.95.13c-4.06-.37-8-1.18-12.11-1.22-3.47,0-8.56-.2-11.84.7,1-.26,3.08.19,4.08.3,1.34.15,2.68.34,4,.56,2.66.44,5.28,1,7.91,1.48A88.41,88.41,0,0,0,153.4,17.2a46.06,46.06,0,0,0,8.14-.85c4.39-.82,8.84-1.51,13.32-2,5-.58,10-.87,15-1s10.19,0,15.29,0c2.33,0,6,1,8.26,1.2,1.22.12,26.45-1.71,27.18-1-8.53-1.38-29.76-1.93-33.21-1.9a57.52,57.52,0,0,0,5.78-.54c3.88-.49,8.77-1.52,11.69-3.55A5,5,0,0,1,223.08,7.84Z"/><path class="cls-3" d="M112,23.13c7.54.27,15.19-.66,22.73-.92,9.71-.34,19.15-1.77,28.79-2.61,10.09-.88,20.07-2.71,30.22-3.12,7.67-.3,14.76.89,22.14,2-7.45.07-14.72.63-22.1,1.42-4.47.47-9,.49-13.45,1-3.89.43-7.73,1.08-11.63,1.49-7.89.82-15.73,1.34-23.64,1.87-6.28.42-12.68.77-19,.59A56.77,56.77,0,0,1,112,23.13Z"/><path class="cls-2" d="M170.82,26a104.69,104.69,0,0,0,11.42-1.31,110.34,110.34,0,0,1,17.25-.82c2.63.06,5.33.14,8,0a82.46,82.46,0,0,0,8.32-1.21,87.28,87.28,0,0,1,13.11-.79c.3.84-.56,1.74-.16,2.65a13.3,13.3,0,0,0,2.16,2.65c.84,1,2.11,1.63,2.36,2.72-2.5-.24-4.91-1.09-7.4-1.46a58.62,58.62,0,0,0-9.07-.63c-3.43,0-6.86.22-10.28.22a88,88,0,0,1-11-.92c-2.88-.36-5.66-.81-8.65-1-2.4-.13-4.83-.13-7.24-.22C176.61,25.74,173.78,26.1,170.82,26Z"/><path class="cls-2" d="M188.77,33.09c-14.12,2.62-16.52,2.19-31.26,3.09-12.62.76-25.14,1.66-37.71,2.38l-8.46.45L111,39c-4.46.22-8.74.56-13.17.94-8.18.69-16.41,1.05-24.62,1.59-.34,0-.71,0-1.08.06l-2.33.11-1.1.06-.68.05-.67,0L66,42l-.28,0-.32,0-.31.06-.3,0-.58.13-.28.07-.27.07-.27.08-.26.08-.23.09a15.83,15.83,0,0,0-9.41,8.77c-.1.24-.2.49-.28.74a10.22,10.22,0,0,0-.34,1.07c0,.2-.1.41-.13.61a2.21,2.21,0,0,0-.06.34,9.72,9.72,0,0,0-.13,1.29c0,.21,0,.41,0,.62s0,.37,0,.56v0a10,10,0,0,0,.59,2.42c1.11,2.93,3,5.21,7.19,7.3,3.34,1.68,8.65,1.31,13.46,1.4,11.53.22,23.39-.26,34.83.31,15.52.77,31.36-1.09,47-.52l2.73.08,2.09,0q2.09,0,4.17,0h2.09c3.35,0,6.7,0,10.05-.07h8.38c8.53.1,17,.65,25.48.79,6.73.11,13.49-.5,20.21-.7,1.79-.05,3.57-.07,5.35-.06h2.12l1.07,0,1.57,0,.95,0,1.55,0h.26l1.77.06,2.37.09h.16l1.08,0c.85,0,1.72.06,2.6.08h4l2.71,0h.22l2.21,0h.8l2.23,0h.08l2.7,0,2.49,0H271l1.15-.59a9.46,9.46,0,0,0,4-3.57l2.08-3.59c4.78-8.57,3.87-15.47-1.44-23.7l-.71-.92a8,8,0,0,0-3.27-2.43l-.27-.12c-18.25.6-39.37.09-57.71.19l-15.6-.08-10.44-.2"/><path class="cls-3" d="M205.44,33.32c.26-.1-16.24-.14-16-.24-14.13,2.62-17.21,2.2-32,3.1-12.62.76-25.14,1.66-37.71,2.38,13.29-.55,26.56-.41,39.88-1C172.74,37,194.82,37.63,205.44,33.32Z"/><path class="cls-4" d="M53.18,53.4s0,0,0,.06v0a10,10,0,0,0,.59,2.43c1.11,2.93,3,5.2,7.19,7.3,3.34,1.67,8.65,1.31,13.46,1.4,11.54.22,23.39-.27,34.83.3,15.53.77,31.36-1.08,47-.52.91,0,1.82.06,2.73.08l2.09,0c1.39,0,2.78,0,4.18,0,.69,0,1.39,0,2.09,0l10-.06h2.92c.61,0,1.22,0,1.82,0h1.82l1.82,0c8.53.09,17,.65,25.49.79,6.72.1,13.48-.5,20.2-.7,1.79,0,3.57-.07,5.35-.06h1.06l1.07,0H240l1.57,0c.32,0,.64,0,1,0l1.54,0h.27l1.76.06,2.37.09h.16l1.08,0c.85,0,1.72.06,2.6.07l1,0h6l2.21,0h.8l2.24,0h.07l2.71,0,2.48,0h1.45l0-1.46h0c-2.32,0-4.81-.28-6.72-.46l-.29,0-.92-.08-.92-.07c-4.66-.38-9.28-.82-14-1.15-17.28-1.18-35.12-.67-52.59-.23-5.88.15-13.91.75-19.57,0-5.24-.7,1.28-2.53,3.91-3.1,1.5-.33,4.8-.6,5.22-1.56.75-1.75-5.48-1.79-7.61-2a271.65,271.65,0,0,0-35.06-1.29c-9.54.29-19.05.74-28.59.74-5.32,0-10.66-.39-15.92-.65-5-.25-11.18,0-15.74-1.13-2.4-.58-4.84-1.69-3.12-3.13,2-1.61,7.7-1.2,10.7-1.34,10.59-.5,21.55.64,32-.64,2.25-.28,6.11-.57,4.49-1.93-1-.83-5.23-1-6.74-1.23-3.59-.48-6.92-.79-10.64-1-4.34-.21-8.71-.59-13-.67-5.11-.09-.23-.87,4.68-1.26,17.92-1.44,25.47-2,31.35-2.15,42.54-1.45,59.82-6.08,57.06-6-1.87,0-59.33,2.2-59.46,2.21-12.78.67-26.83,1.07-31.26,1.44-8.18.69-16.41,1-24.62,1.6l-1.08.06-2.33.11-1.1.06-.68,0-.66.06c-.45,0-.9.08-1.34.14l-.29,0-.32.05-.3,0-.31.06c-.19,0-.39.07-.58.12l-.28.07-.27.08L64,39.3l-.26.08-.23.09a15.82,15.82,0,0,0-9.41,8.76c-.1.25-.2.49-.28.74a8.9,8.9,0,0,0-.33,1.08,4.47,4.47,0,0,0-.14.61,2,2,0,0,0-.06.34,3,3,0,0,0-.07.51,9.85,9.85,0,0,0-.09,1.21C53.16,53,53.17,53.17,53.18,53.4Z"/><path class="cls-3" d="M200.09,34.51c10,0,32.91,1.67,42.93,1.34,7.31-.24,15,.4,22.32-.27,2-.18,7.36-.11,9.31-.31l-2.13-2.09c-15.26-.13-16.54.28-58.12.19C212.47,33.77,200.32,34.18,200.09,34.51Z"/><path class="cls-2" d="M52.5,56.68v.11a10,10,0,0,0,.59,2.42,18.32,18.32,0,0,0,6.14,8.54C62,69.81,68,70.83,72.62,70.86c16.28.09,24.71-.68,36-.84,15.71-.22,22.23-.57,39.24-.45.91,0,8.19-.5,9.09-.48.7,0,4.71-.29,5.4-.28,1.4,0,2.1-.1,3.49-.1.7,0,2.65-.1,3.34-.1,3.35,0,4.65-.09,8-.11,1,0,2.36-.09,3.34-.09.61,0,1.51-.08,2.11-.08s1.34-.18,1.94-.18l3.28.07c8.53.09,14.15.21,22.67.35,6.73.11,13.49-.5,20.21-.7,1.79-.05,3.57-.07,5.35-.06h2.12l1.07,0,1.57,0,.95,0,1.55,0h.26l1.77.06c.79,0,1.14,0,2,.12l.52.08c.54.08,1.22.11,1.58.13,3,.21,5.69.1,8.86.06l.49,0a15,15,0,0,0,1.6,0c4-.06,6.18-.43,10-.39l0-1.47V66c-2.33,0-4.83-.26-6.75-.43a15.76,15.76,0,0,1-2,.46h-.07c-1.78.25-3.64.46-5.46.56-6.94.39-13.74-.28-20.65-.14-7.81.16-16.4.33-26.23.41-8.93.09-17.69-.67-26.66-.48-4.37.09-8.19.18-12.58,0-5.1-.25-10.15.06-15.26,0-8.67,0-17.15-.27-25.74-.67-3.16-.15-6.34-.24-9.49-.38-2.62-.13-9.38.27-11.29-.71-1.55-.79.65-1,2.53-1.29,3.6-.45,7.31-.44,11-.68,7.4-.47,14.65-1.39,22.1-1.74,11-.51,22-1.32,32.9-1.6-15.5.39-17.83-.67-26.95-.62-7.8,0-15.55.48-23.34.72-13.51.43-26.73.24-40.18.08-5.4-.07-21.93.74-20.52-3.76.57-1.82,3.7-3,6.87-3.85,10.38-2.76,25.62-3.54,36.82-4-16-.45-17.27-.09-24.34-.2-6.41-.09-19,1.55-20-2.62a15.74,15.74,0,0,1,.36-3.9c-.48-3.67-6.12.58-6.2.61-4.87,3.54-5.69,6.78-6.2,9.62a5.85,5.85,0,0,1-.14.92c-.13.36,0,.67-.1,1,0,.2-.1.41-.13.61a2.21,2.21,0,0,0-.06.34,4.5,4.5,0,0,0-.08.51c-.05.41-.07.81-.08,1.22C52.48,56.23,52.48,56.46,52.5,56.68Z"/><path class="cls-3" d="M251.47,37.49c-1,.07-2,.12-2.46.17-2,.21-4,.4-6,.49-3.54.17-7.08.4-10.64.51-13.3.44-26.7.94-40,1.12-12,.16-24-.09-36,.31-9,.31-18.59.45-27.21,2.13,1.91-.37,5.45-.1,7.49-.14,2.77,0,5.53-.07,8.29,0,5.23.09,10.12.78,15.27,1.08-1.32.73-4.3.79-6.09,1a99.46,99.46,0,0,1-16,.3c-5.93-.31-11.63-1.06-17.68-1-5.07,0-12.51-.08-17.32.88,1.4-.28,4.5.14,6,.23q2.94.2,5.85.5c3.88.4,7.7.9,11.55,1.36a184.06,184.06,0,0,0,23,1.52,93.92,93.92,0,0,0,11.91-1c6.43-.89,12.94-1.64,19.49-2.23,7.27-.66,14.62-1,22-1.27s14.89-.14,22.34-.25c3.41-.05,8.7.87,12.07,1.07,1.78.1,38.67-2.11,39.73-1.4-12.45-1.26-43.47-1.48-48.51-1.4,2.53,0,5.87-.38,8.45-.63,5.69-.55,12.85-1.65,17.14-3.72A10.87,10.87,0,0,1,251.47,37.49Z"/><path class="cls-3" d="M89,54.45c11,.16,22.2-.89,33.23-1.26,14.2-.49,28-2.06,42.11-3,14.75-1,29.38-3,44.21-3.57,11.21-.42,21.57.66,32.33,1.69-10.89.19-21.52.86-32.32,1.76-6.55.54-13.14.63-19.67,1.18-5.69.49-11.32,1.2-17,1.67-11.53.94-23,1.58-34.57,2.23-9.18.51-18.54.95-27.73.87A119.39,119.39,0,0,1,89,54.45Z"/><path class="cls-2" d="M174.84,56.41c5.56-.11,11.31-.94,16.71-1.48a240.7,240.7,0,0,1,25.22-1.08c3.84,0,7.79.07,11.65-.14,4.26-.24,8.11-.84,12.17-1.34a185.78,185.78,0,0,1,19.17-1c.44.83-.83,1.75-.27,2.65s2.08,1.8,3.12,2.63c1.21,1,3.07,1.59,3.42,2.68-3.66-.21-7.16-1-10.8-1.35a124.79,124.79,0,0,0-13.25-.5c-5,.08-10,.33-15,.38-5.45.06-10.84-.36-16-.75-4.21-.32-8.26-.73-12.63-.85-3.5-.09-7.06-.05-10.58-.11C183.3,56.09,179.17,56.49,174.84,56.41Z"/><path class="cls-2" d="M189,62.32c-14.13,2.62-16.52,2.19-31.27,3.09-12.61.77-25.13,1.66-37.71,2.38q-4.22.24-8.46.45l-.39,0c-4.45.22-8.74.56-13.17.93-8.17.69-16.41,1-24.62,1.6l-1.07.06L70,71l-1.1.06-.67,0-.67.05c-.45,0-.9.09-1.34.15l-.29,0-.31,0-.31,0-.31,0-.58.13-.28.07-.27.07-.26.08-.26.09-.24.09a15.85,15.85,0,0,0-9.41,8.76c-.1.25-.2.49-.28.74a11.12,11.12,0,0,0-.33,1.08,6,6,0,0,0-.14.61,3.43,3.43,0,0,0-.06.34,9.56,9.56,0,0,0-.13,1.29c0,.2,0,.41,0,.61a5.15,5.15,0,0,0,0,.56v0a10.51,10.51,0,0,0,.59,2.43c1.12,2.93,3,5.2,7.19,7.29,3.34,1.68,8.65,1.31,13.46,1.41,11.54.22,23.39-.27,34.83.3,15.53.77,31.37-1.08,47-.52l2.73.08,2.08,0,4.18,0h2.09c3.35,0,6.69,0,10-.06h6.56l1.82,0c8.54.09,17,.65,25.49.79,6.72.1,13.48-.5,20.2-.7,1.79-.06,3.57-.07,5.35-.07h2.13l1.06,0,1.57,0,1,0,1.54,0h.27l1.76.06,2.37.09h.16l1.09,0c.85,0,1.71.06,2.59.07l1,0c.27,0,.53,0,.8,0h2.27l2.72,0h.21l2.21,0h.8l2.24,0h.07l2.71,0,2.48,0h1.93l1.15-.58a9.58,9.58,0,0,0,4-3.58l2.08-3.59C283.2,81,282.3,74.11,277,65.88l-.7-.92A8,8,0,0,0,273,62.53l-.27-.11c-18.24.59-39.36.08-57.71.19-.14,0-15.46-.09-15.59-.08L189,62.32"/><path class="cls-3" d="M205.66,62.56c.25-.11-16.25-.15-16-.25-14.12,2.63-17.2,2.2-31.95,3.1-12.61.77-25.13,1.66-37.71,2.38,13.3-.55,26.57-.41,39.88-1C173,66.19,195,66.87,205.66,62.56Z"/><path class="cls-4" d="M53.39,82.63s0,.05,0,.07v0A10.55,10.55,0,0,0,54,85.16c1.12,2.93,3,5.2,7.19,7.3,3.34,1.68,8.65,1.31,13.46,1.4,11.54.22,23.39-.26,34.83.31,15.53.77,31.37-1.09,47-.52l2.73.08,2.08,0,4.18,0h2.09c3.35,0,6.69-.05,10.05-.07H186c8.54.09,17,.65,25.49.79,6.73.11,13.48-.5,20.2-.7,1.79,0,3.57-.07,5.35-.06h2.13l1.06,0,1.57,0,1,0,1.54,0h.27l1.76.07,2.38.09h.15l1.09,0c.85,0,1.71.06,2.59.08h4l2.71,0h.21l2.21,0h.8l2.24,0h.07l2.71,0,2.48,0h1.45l0-1.47h0c-2.31,0-4.81-.28-6.71-.46l-.3,0-.91-.09-.92-.07c-4.66-.38-9.28-.82-14-1.14-17.28-1.19-35.11-.67-52.59-.23-5.88.14-13.91.74-19.56,0-5.24-.7,1.27-2.53,3.9-3.1,1.5-.32,4.8-.6,5.22-1.56.75-1.74-5.47-1.78-7.6-2a271.8,271.8,0,0,0-35.07-1.3c-9.54.29-19,.74-28.59.75-5.31,0-10.66-.39-15.92-.66-5-.25-11.17,0-15.73-1.13-2.41-.58-4.85-1.69-3.13-3.12,2-1.62,7.7-1.2,10.7-1.34,10.6-.5,21.55.64,32-.65,2.25-.28,6.1-.56,4.49-1.93-1-.83-5.24-1-6.74-1.22-3.6-.48-6.93-.79-10.65-1-4.33-.21-8.7-.6-13-.67-5.1-.09-.23-.87,4.69-1.27,17.92-1.44,25.46-2,31.35-2.15,42.54-1.44,59.81-6.07,57-6l-59.46,2.21c-12.77.68-26.82,1.07-31.26,1.45-8.17.69-16.41,1-24.62,1.59-.34,0-.7,0-1.07.06l-2.34.11-1.1.06-.67.05-.67,0L66.86,68l-.29,0-.31,0-.31.05-.3.06-.59.12-.28.07-.27.08-.26.08-.26.08-.24.09a15.88,15.88,0,0,0-9.41,8.76c-.1.25-.19.5-.28.75a10.16,10.16,0,0,0-.33,1.07c0,.2-.1.41-.14.61s-.05.23-.06.34-.05.34-.07.51A10,10,0,0,0,53.38,82C53.37,82.18,53.38,82.41,53.39,82.63Z"/><path class="cls-3" d="M200.3,63.74c10,0,32.91,1.67,42.93,1.34,7.31-.24,15,.4,22.32-.26,2-.18,7.36-.12,9.31-.32l-2.13-2.08c-15.25-.13-16.54.28-58.12.19C212.68,63,200.53,63.41,200.3,63.74Z"/><path class="cls-2" d="M52.71,85.92s0,0,0,.06v0a10.51,10.51,0,0,0,.59,2.43A18.52,18.52,0,0,0,59.45,97c2.76,2.06,8.72,3.08,13.38,3.1,16.28.09,24.71-.68,36-.83,15.71-.22,22.23-.58,39.24-.45.92,0,8.19-.5,9.1-.48.7,0,4.71-.3,5.4-.29,1.39,0,2.09-.1,3.49-.1.69,0,2.64-.09,3.34-.1,3.34,0,4.64-.08,8-.1,1,0,2.37-.1,3.34-.1.61,0,1.51-.07,2.12-.07s1.33-.19,1.94-.18,2.67,0,3.27.06c8.54.09,14.15.22,22.68.36,6.72.1,13.48-.5,20.2-.7,1.79-.06,3.57-.07,5.35-.07h2.13l1.06,0,1.57,0,1,0,1.54,0h.27l1.76.06c.79,0,1.14.06,2,.13l.52.08c.55.07,1.22.1,1.58.12,3.05.21,5.7.11,8.86.06l.5,0c.57.06,1.54.06,1.59.06,4-.06,6.19-.43,10-.4l0-1.46v-.68c-2.32,0-4.83-.27-6.74-.44a14.73,14.73,0,0,1-2.05.46h-.06c-1.79.26-3.64.46-5.47.56-6.94.4-13.74-.28-20.65-.13-7.8.16-16.4.32-26.23.41-8.93.08-17.69-.67-26.66-.49-4.37.09-8.19.18-12.58,0-5.09-.25-10.15.06-15.26,0-8.67,0-17.15-.28-25.74-.67-3.15-.15-6.33-.24-9.49-.39-2.61-.12-9.37.28-11.29-.71-1.54-.79.65-1,2.53-1.28,3.6-.46,7.32-.45,11-.68,7.4-.48,14.66-1.4,22.1-1.74,11-.51,22-1.33,32.91-1.6-15.5.39-17.84-.67-26.95-.62-7.8,0-15.55.47-23.35.72-13.5.43-26.73.24-40.18.07-5.4-.06-21.93.75-20.52-3.76.57-1.82,3.71-3,6.87-3.84,10.39-2.76,25.63-3.54,36.83-4-16-.45-17.28-.09-24.34-.2-6.42-.09-19,1.56-20.05-2.62a16.81,16.81,0,0,1,.36-3.9c-.48-3.67-6.12.58-6.2.61-4.86,3.54-5.69,6.78-6.2,9.63a7.38,7.38,0,0,1-.13.91c-.13.36,0,.68-.1,1a6,6,0,0,0-.14.61,3.43,3.43,0,0,0-.06.34,4.46,4.46,0,0,0-.07.51,9.83,9.83,0,0,0-.08,1.21C52.69,85.47,52.7,85.69,52.71,85.92Z"/><path class="cls-3" d="M251.69,66.72c-1,.08-2,.12-2.47.18-2,.21-4,.39-6,.49-3.54.16-7.08.39-10.63.51-13.3.43-26.71.93-40,1.11-12,.16-24-.09-36,.32-9,.3-18.58.44-27.2,2.12,1.9-.37,5.44-.1,7.48-.13,2.77,0,5.54-.07,8.29,0,5.23.1,10.12.79,15.27,1.09-1.31.72-4.3.79-6.09,1a100.5,100.5,0,0,1-16,.3c-5.94-.32-11.63-1.07-17.68-1-5.08,0-12.51-.08-17.33.88,1.41-.28,4.51.14,6,.23,2,.13,3.92.31,5.86.5,3.88.4,7.7.91,11.54,1.37a186.15,186.15,0,0,0,23,1.52,95.79,95.79,0,0,0,11.9-1c6.43-.89,13-1.65,19.49-2.24,7.27-.66,14.62-1,21.95-1.27s14.9-.14,22.35-.25c3.41-.05,8.69.88,12.06,1.07,1.78.11,38.68-2.11,39.73-1.4-12.44-1.25-43.47-1.48-48.51-1.4,2.53,0,5.88-.38,8.45-.63,5.69-.55,12.85-1.65,17.15-3.72A10.47,10.47,0,0,1,251.69,66.72Z"/><path class="cls-3" d="M89.16,83.69c11,.15,22.21-.89,33.24-1.27,14.2-.48,28-2.06,42.1-3,14.76-1,29.38-3,44.22-3.57,11.21-.43,21.56.66,32.32,1.69-10.88.19-21.52.85-32.32,1.75-6.54.54-13.14.63-19.66,1.19-5.7.48-11.32,1.2-17,1.66-11.53.94-23,1.58-34.56,2.23-9.19.51-18.55,1-27.74.88A119.39,119.39,0,0,1,89.16,83.69Z"/><path class="cls-2" d="M175.06,85.65c5.56-.12,11.31-1,16.7-1.48A238.09,238.09,0,0,1,217,83.08c3.83,0,7.78.07,11.64-.14,4.26-.23,8.11-.84,12.18-1.34a185.8,185.8,0,0,1,19.17-1c.43.83-.84,1.74-.27,2.64s2.07,1.8,3.11,2.63c1.22,1,3.07,1.59,3.42,2.68-3.65-.2-7.16-1-10.8-1.35a124.74,124.74,0,0,0-13.24-.49c-5,.07-10,.32-15,.37-5.45.06-10.85-.35-16.06-.75-4.21-.31-8.26-.73-12.63-.84-3.5-.09-7.06-.05-10.58-.11C183.51,85.32,179.38,85.72,175.06,85.65Z"/><path class="cls-2" d="M189.2,91.8c-14.13,2.63-16.52,2.2-31.27,3.09-12.61.77-25.13,1.66-37.7,2.38-2.82.16-5.64.32-8.47.46l-.39,0c-4.45.22-8.73.56-13.16.93-8.18.69-16.42,1-24.63,1.6l-1.07.06-2.33.11q-.56,0-1.11.06l-.67,0-.67.06c-.45,0-.9.08-1.34.14l-.29,0-.31,0-.31,0-.3.06c-.2,0-.39.07-.59.12l-.28.07-.27.08-.26.08-.26.08-.24.09a15.85,15.85,0,0,0-9.41,8.76c-.1.25-.19.49-.28.74a11.12,11.12,0,0,0-.33,1.08c0,.2-.1.41-.14.61s0,.23-.06.34c-.08.43-.09.87-.13,1.29,0,.2,0,.41,0,.61s0,.38,0,.56v0a10.51,10.51,0,0,0,.59,2.43c1.12,2.93,3,5.2,7.19,7.3,3.34,1.68,8.66,1.31,13.46,1.4,11.54.22,23.39-.27,34.83.3,15.53.77,31.37-1.08,47-.52.91,0,1.82.06,2.73.08l2.08,0c1.4,0,2.79,0,4.18,0,.7,0,1.39,0,2.09,0,3.35,0,6.7,0,10.05-.06H180c.6,0,1.21,0,1.82,0h1.82l1.82,0c8.53.09,17,.65,25.48.79,6.73.1,13.49-.5,20.2-.7,1.79,0,3.57-.07,5.35-.06h1.07l1.06,0h1.06l1.57,0,1,0,1.54,0h.27l1.77.06,2.37.09h.15l1.09,0c.85,0,1.72.06,2.59.07l1,0h6l2.21,0h.8l2.23,0h.07l2.71,0,2.48,0h1.94l1.14-.58a9.56,9.56,0,0,0,4-3.57l2.08-3.6c4.77-8.57,3.87-15.46-1.44-23.69l-.71-.93A8.08,8.08,0,0,0,273.22,92l-.28-.11c-18.24.59-39.36.08-57.71.19L199.64,92,189.2,91.8"/><path class="cls-3" d="M205.87,92c.25-.1-16.25-.15-16-.24-14.13,2.62-17.21,2.2-32,3.09-12.61.77-25.13,1.66-37.7,2.38,13.29-.55,26.56-.41,39.87-1C173.17,95.67,195.25,96.35,205.87,92Z"/><path class="cls-4" d="M53.61,112.11v.11a9.86,9.86,0,0,0,.6,2.42c1.11,2.94,3,5.21,7.18,7.3,3.34,1.68,8.66,1.31,13.47,1.4,11.53.22,23.39-.26,34.82.31,15.53.77,31.37-1.08,47-.52l2.73.08,2.09,0q2.08,0,4.17,0h2.09c3.35,0,6.7,0,10.05-.07h8.38c8.53.1,17,.66,25.48.79,6.73.11,13.49-.49,20.2-.7,1.79,0,3.57-.07,5.35-.06h2.13l1.07,0,1.56,0,1,0,1.55,0h.26l1.77.06,2.37.09H249l1.08,0,2.59.07h4l2.71,0h.22l2.21,0h.8l2.23,0H265l2.71,0,2.48,0h1.45l0-1.47h0c-2.32,0-4.81-.28-6.72-.45l-.29,0-.92-.09-.92-.07c-4.66-.38-9.28-.82-14-1.14-17.27-1.19-35.11-.67-52.58-.23-5.88.15-13.92.74-19.57,0-5.24-.7,1.27-2.53,3.91-3.11,1.49-.32,4.8-.59,5.21-1.56.75-1.74-5.47-1.78-7.6-2a271.64,271.64,0,0,0-35.06-1.3c-9.54.29-19.06.74-28.59.75-5.32,0-10.66-.39-15.92-.66-5-.24-11.18,0-15.74-1.13-2.4-.58-4.84-1.68-3.12-3.12,1.94-1.62,7.7-1.2,10.7-1.34,10.59-.5,21.55.64,32-.65,2.25-.28,6.1-.56,4.49-1.93-1-.83-5.24-1-6.74-1.22-3.6-.48-6.93-.79-10.64-1-4.34-.21-8.71-.59-13.06-.67-5.1-.09-.22-.87,4.69-1.27,17.92-1.44,25.46-1.95,31.35-2.15,42.54-1.44,59.82-6.07,57.06-6L130.15,94c-12.78.68-26.83,1.08-31.26,1.45-8.18.69-16.42,1-24.62,1.59q-.52,0-1.08.06l-2.33.11-1.11.06-.67,0-.67,0c-.45,0-.9.09-1.34.15l-.28,0-.32,0-.31.06-.3,0-.58.13-.29.07-.27.07-.26.08a1.34,1.34,0,0,0-.26.09l-.24.08a15.81,15.81,0,0,0-9.4,8.77c-.1.24-.2.49-.29.74a10.94,10.94,0,0,0-.33,1.07c0,.21-.1.41-.14.61l-.06.35c0,.16-.05.33-.07.5a10,10,0,0,0-.08,1.22C53.59,111.66,53.59,111.89,53.61,112.11Z"/><path class="cls-3" d="M200.51,93.22c10,0,32.91,1.67,42.94,1.35,7.3-.24,15,.4,22.32-.27,2-.18,7.35-.11,9.31-.32l-2.14-2.08c-15.25-.13-16.53.28-58.11.19C212.9,92.48,200.75,92.89,200.51,93.22Z"/><path class="cls-2" d="M52.92,115.4s0,0,0,.06v0a10.51,10.51,0,0,0,.59,2.43,18.47,18.47,0,0,0,6.15,8.54c2.75,2.06,8.71,3.08,13.37,3.1,16.29.09,24.71-.68,36-.83,15.7-.22,22.23-.58,39.24-.45.91,0,8.18-.5,9.09-.48.7,0,4.71-.3,5.4-.29,1.4,0,2.1-.1,3.49-.1.7,0,2.64-.09,3.34-.09,3.35,0,4.64-.09,8-.11,1,0,2.36-.1,3.34-.1.6,0,1.51-.07,2.11-.07s1.34-.19,1.94-.18,2.67.06,3.28.06c8.53.1,14.15.22,22.67.36,6.73.1,13.49-.5,20.2-.7,1.79,0,3.57-.07,5.35-.06h1.07l1.06,0h1.06l1.57,0,1,0,1.54,0h.27l1.77.06c.79,0,1.13.06,2,.13l.51.08c.55.08,1.23.1,1.58.13,3.05.21,5.7.1,8.87,0l.49,0c.58.06,1.54.06,1.6.06,4-.06,6.18-.43,10-.4l0-1.46,0-.68c-2.33,0-4.84-.27-6.75-.44a15.89,15.89,0,0,1-2,.47h-.06c-1.78.25-3.64.45-5.46.56-6.94.39-13.75-.28-20.66-.14-7.8.16-16.39.32-26.22.41-8.93.08-17.69-.67-26.67-.48-4.36.08-8.18.17-12.58,0-5.09-.25-10.14.06-15.26,0-8.66,0-17.15-.27-25.73-.67-3.16-.15-6.34-.24-9.5-.39-2.61-.12-9.37.28-11.28-.7-1.55-.8.65-1.05,2.53-1.29,3.59-.46,7.31-.45,11-.68,7.4-.48,14.65-1.4,22.1-1.74,11-.51,22-1.33,32.9-1.6-15.5.39-17.83-.67-26.95-.62-7.8,0-15.55.47-23.34.72-13.51.43-26.73.24-40.19.07-5.39-.06-21.93.75-20.52-3.76.57-1.82,3.71-3,6.88-3.84,10.38-2.76,25.62-3.54,36.82-4-16-.44-17.28-.09-24.34-.19-6.42-.1-19,1.55-20-2.63a16.29,16.29,0,0,1,.37-3.9c-.49-3.67-6.13.58-6.2.61-4.87,3.54-5.69,6.79-6.2,9.63,0,.25-.06.67-.14.92s0,.67-.1,1c0,.2-.1.41-.14.61s0,.23-.06.34-.05.34-.07.51a9.83,9.83,0,0,0-.08,1.21C52.9,115,52.91,115.17,52.92,115.4Z"/><path class="cls-3" d="M251.9,96.2c-1,.08-2,.13-2.47.18-2,.21-4,.39-6,.49-3.55.16-7.08.39-10.64.51-13.3.43-26.7.93-40,1.11-12,.16-24-.09-36,.32-9,.3-18.58.44-27.2,2.13,1.9-.38,5.44-.11,7.49-.14,2.76,0,5.53-.07,8.29,0,5.22.1,10.12.79,15.26,1.09-1.31.72-4.29.79-6.09,1a100.5,100.5,0,0,1-16,.3c-5.93-.31-11.63-1.06-17.68-1-5.08,0-12.51-.08-17.33.88,1.41-.28,4.51.14,6,.24,2,.12,3.92.3,5.86.5,3.88.39,7.7.9,11.55,1.36a185.86,185.86,0,0,0,23,1.52,95.64,95.64,0,0,0,11.9-1c6.43-.89,12.95-1.64,19.49-2.24,7.27-.66,14.63-1,21.95-1.27s14.9-.14,22.35-.25c3.41,0,8.69.88,12.07,1.08,1.77.1,38.67-2.11,39.73-1.41-12.45-1.25-43.47-1.48-48.52-1.4,2.53,0,5.88-.38,8.46-.63,5.68-.54,12.84-1.64,17.14-3.72A9.93,9.93,0,0,1,251.9,96.2Z"/><path class="cls-3" d="M89.38,113.17c11,.15,22.2-.89,33.23-1.27,14.2-.48,28-2.06,42.11-3,14.75-1,29.37-3,44.21-3.57,11.21-.42,21.56.66,32.32,1.69-10.88.19-21.51.86-32.32,1.75-6.54.54-13.14.63-19.66,1.19-5.69.49-11.32,1.2-17,1.66-11.54.94-23,1.59-34.57,2.23-9.18.51-18.54,1-27.74.88A119.28,119.28,0,0,1,89.38,113.17Z"/><path class="cls-2" d="M175.27,115.13c5.56-.12,11.31-.95,16.7-1.48a238.09,238.09,0,0,1,25.23-1.08c3.84,0,7.78.06,11.65-.15,4.25-.23,8.1-.83,12.17-1.34a185.8,185.8,0,0,1,19.17-1c.43.83-.84,1.75-.27,2.65s2.07,1.8,3.12,2.62c1.21,1,3.06,1.59,3.41,2.69-3.65-.21-7.15-1-10.79-1.35a122.39,122.39,0,0,0-13.25-.5c-5,.07-10,.32-15,.38-5.45,0-10.84-.36-16-.75-4.22-.32-8.26-.73-12.64-.85-3.5-.09-7.06,0-10.58-.11C183.73,114.81,179.6,115.21,175.27,115.13Z"/><path class="cls-2" d="M189.42,122.12c-14.12,2.62-16.52,2.19-31.26,3.09-12.62.76-25.14,1.66-37.71,2.38q-4.23.24-8.46.45l-.39,0c-4.46.22-8.74.57-13.17.94-8.18.69-16.41,1.05-24.62,1.59q-.53,0-1.08.06l-2.33.11-1.1.06-.68.05-.67,0c-.45,0-.9.09-1.34.15l-.28,0-.32,0-.31.06-.3,0-.58.13-.28.07-.27.07-.27.08-.26.09-.23.08a15.83,15.83,0,0,0-9.41,8.77c-.1.24-.2.49-.28.74a11,11,0,0,0-.34,1.07c0,.21-.1.41-.13.61a2.14,2.14,0,0,0-.06.35,9.41,9.41,0,0,0-.13,1.28c0,.21,0,.41,0,.62s0,.37,0,.56v0a9.83,9.83,0,0,0,.59,2.42c1.11,2.94,3,5.21,7.19,7.3,3.34,1.68,8.65,1.31,13.46,1.4,11.53.22,23.39-.26,34.83.31,15.52.77,31.36-1.08,47-.52l2.73.08,2.09,0q2.08,0,4.17,0h2.09c3.35,0,6.7-.05,10.05-.07h8.38c8.53.1,17,.66,25.48.79,6.73.11,13.49-.49,20.21-.7,1.79-.05,3.57-.07,5.35-.06h2.12l1.07,0,1.57,0,.95,0L244,157h.26l1.77.06,2.37.09h.16l1.08,0,2.6.07h4l2.71,0h.22l2.21,0h.8l2.23,0h.08l2.7,0,2.49,0h1.93l1.15-.59a9.46,9.46,0,0,0,4-3.57l2.08-3.59c4.78-8.57,3.87-15.47-1.44-23.7l-.71-.92a8,8,0,0,0-3.27-2.43l-.27-.12c-18.25.6-39.37.09-57.71.19l-15.6-.08-10.44-.2"/><path class="cls-3" d="M206.09,122.35c.26-.1-16.24-.14-16-.24-14.13,2.62-17.21,2.2-32,3.1-12.62.76-25.14,1.66-37.71,2.38,13.29-.55,26.56-.41,39.88-1C173.39,126,195.47,126.66,206.09,122.35Z"/><path class="cls-4" d="M53.83,142.43s0,0,0,.07v0a10,10,0,0,0,.59,2.43c1.11,2.93,3,5.2,7.19,7.3,3.34,1.68,8.65,1.31,13.46,1.4,11.54.22,23.39-.27,34.83.3,15.53.77,31.36-1.08,47-.52.91,0,1.82.06,2.73.08l2.09,0q2.08,0,4.17,0H168l10-.06h6.56l1.82,0c8.53.09,17,.65,25.49.79,6.72.1,13.48-.5,20.2-.7,1.79-.05,3.57-.07,5.35-.06h1.06l1.07,0h1.06l1.57,0,1,0,1.54,0H245l1.76.06,2.37.09h.16l1.08,0c.85,0,1.72.06,2.6.07l1,0h1.72c.44,0,.9,0,1.35,0h2.93l2.21,0h.8l2.24,0h.07l2.71,0,2.48,0h1.45l0-1.46h0c-2.32,0-4.81-.28-6.72-.46l-.29,0-.92-.08-.92-.07c-4.66-.38-9.28-.82-14-1.15-17.28-1.18-35.12-.67-52.59-.23-5.88.15-13.91.75-19.57,0-5.24-.7,1.28-2.53,3.91-3.1,1.5-.33,4.8-.6,5.22-1.56.75-1.75-5.48-1.79-7.61-2a271.65,271.65,0,0,0-35.06-1.29c-9.54.29-19.05.74-28.59.74-5.32,0-10.66-.39-15.92-.65-5-.25-11.18,0-15.74-1.13-2.4-.58-4.84-1.69-3.12-3.12,2-1.62,7.7-1.21,10.7-1.35,10.59-.49,21.55.65,32-.64,2.25-.28,6.11-.57,4.49-1.93-1-.83-5.23-1-6.74-1.23-3.59-.48-6.92-.79-10.64-1-4.34-.21-8.71-.59-13.05-.67-5.11-.09-.23-.87,4.68-1.26,17.92-1.44,25.47-1.95,31.35-2.15,42.54-1.45,59.82-6.08,57.06-6-1.87,0-59.33,2.2-59.46,2.21-12.78.67-26.83,1.07-31.26,1.44-8.18.69-16.41,1.05-24.62,1.6l-1.08.06-2.33.11-1.1.06-.68,0-.66.06c-.45,0-.91.08-1.34.14l-.29,0-.32.05-.3,0-.31.06c-.19,0-.39.07-.58.12l-.28.07-.27.08-.27.08-.26.08-.23.09a15.82,15.82,0,0,0-9.41,8.76c-.1.25-.2.49-.28.74a8.9,8.9,0,0,0-.33,1.08,4.47,4.47,0,0,0-.14.61A2,2,0,0,0,54,140a3,3,0,0,0-.07.51,9.85,9.85,0,0,0-.09,1.21C53.81,142,53.82,142.21,53.83,142.43Z"/><path class="cls-3" d="M200.74,123.54c10,0,32.91,1.67,42.93,1.34,7.31-.24,15,.4,22.32-.27,2-.18,7.36-.11,9.31-.31l-2.13-2.09c-15.26-.13-16.54.28-58.12.2C213.12,122.8,201,123.21,200.74,123.54Z"/><path class="cls-2" d="M53.15,145.71v.11a9.83,9.83,0,0,0,.59,2.42,18.35,18.35,0,0,0,6.14,8.55c2.75,2.05,8.71,3.07,13.38,3.1,16.28.09,24.71-.68,36-.84,15.71-.22,22.23-.57,39.24-.45.91,0,8.18-.5,9.09-.48.7,0,4.71-.29,5.4-.28,1.4,0,2.1-.1,3.49-.1.7,0,2.65-.1,3.34-.1,3.35,0,4.65-.09,8-.11,1,0,2.36-.09,3.34-.09.61,0,1.51-.08,2.11-.08s1.34-.18,1.94-.18l3.28.07c8.53.09,14.15.22,22.67.35,6.73.11,13.49-.49,20.21-.7,1.79-.05,3.57-.07,5.35-.06h2.12l1.07,0,1.57,0,.95,0L244,157h.26l1.77.06c.79,0,1.14.05,2,.12l.52.08c.54.08,1.22.11,1.57.13,3.05.21,5.7.1,8.87.06l.49,0c.58.06,1.54.06,1.6.06,4-.07,6.18-.44,10-.4l0-1.47V155c-2.33,0-4.83-.26-6.75-.43a14.26,14.26,0,0,1-2,.46h-.07c-1.78.25-3.64.46-5.46.56-6.94.39-13.74-.28-20.65-.14-7.81.16-16.4.33-26.23.42-8.93.08-17.69-.68-26.66-.49-4.37.09-8.19.18-12.58,0-5.1-.25-10.15.06-15.26,0-8.67-.05-17.15-.27-25.74-.67-3.16-.15-6.34-.24-9.49-.38-2.62-.13-9.38.27-11.29-.71-1.55-.79.65-1,2.53-1.29,3.6-.45,7.31-.44,11-.68,7.4-.47,14.65-1.39,22.1-1.74,11-.51,22-1.32,32.9-1.6-15.5.39-17.83-.67-26.95-.62-7.8.05-15.55.48-23.34.72-13.51.43-26.73.24-40.18.08-5.4-.06-21.93.75-20.52-3.76.57-1.82,3.7-3,6.87-3.85,10.38-2.76,25.62-3.54,36.82-4-16-.45-17.27-.09-24.34-.2-6.41-.09-19,1.55-20-2.62a15.74,15.74,0,0,1,.36-3.9c-.48-3.67-6.12.58-6.2.61-4.87,3.54-5.69,6.78-6.2,9.62a5.85,5.85,0,0,1-.14.92c-.13.36,0,.67-.1,1,0,.21-.1.41-.13.61a2.14,2.14,0,0,0-.06.35,4,4,0,0,0-.08.5c-.05.41-.07.81-.08,1.22C53.13,145.26,53.13,145.49,53.15,145.71Z"/><path class="cls-3" d="M252.12,126.52c-1,.07-2,.12-2.46.17-2,.21-4,.4-6,.49-3.54.17-7.08.4-10.64.52-13.3.43-26.7.93-40,1.11-12,.16-24-.09-36,.31-9,.31-18.59.45-27.21,2.13,1.91-.37,5.45-.1,7.49-.13,2.77-.05,5.53-.08,8.29,0,5.23.09,10.12.78,15.27,1.08-1.32.73-4.3.79-6.09,1a99.46,99.46,0,0,1-16,.3c-5.93-.31-11.63-1.06-17.68-1-5.07,0-12.51-.08-17.32.88,1.4-.28,4.5.14,6,.23q2.94.19,5.85.5c3.88.4,7.7.9,11.55,1.36a184.06,184.06,0,0,0,23,1.52,93.92,93.92,0,0,0,11.91-1c6.43-.89,12.94-1.64,19.49-2.23,7.27-.66,14.62-1,21.95-1.27s14.89-.14,22.34-.25c3.41,0,8.7.87,12.07,1.07,1.78.1,38.67-2.11,39.73-1.4-12.45-1.26-43.47-1.48-48.51-1.4,2.53,0,5.87-.38,8.45-.63,5.69-.55,12.85-1.65,17.14-3.72A10.87,10.87,0,0,1,252.12,126.52Z"/><path class="cls-3" d="M89.6,143.48c11,.16,22.2-.89,33.23-1.26,14.2-.49,28-2.06,42.11-3.05,14.75-1,29.38-3,44.21-3.57,11.21-.42,21.57.66,32.33,1.69-10.89.19-21.52.86-32.32,1.76-6.55.54-13.14.63-19.67,1.19-5.69.48-11.32,1.19-17,1.66-11.53.94-23,1.58-34.57,2.23-9.18.51-18.54,1-27.73.87A119.39,119.39,0,0,1,89.6,143.48Z"/><path class="cls-2" d="M175.49,145.44c5.56-.11,11.31-.94,16.71-1.48a240.7,240.7,0,0,1,25.22-1.08c3.84,0,7.79.07,11.65-.14,4.26-.24,8.11-.84,12.17-1.34a183,183,0,0,1,19.17-1c.44.82-.83,1.74-.27,2.64s2.08,1.8,3.12,2.63c1.21,1,3.07,1.59,3.42,2.68-3.66-.21-7.16-1-10.8-1.35a124.79,124.79,0,0,0-13.25-.5c-5,.08-10,.33-15,.38-5.45.06-10.84-.36-16-.75-4.21-.32-8.26-.73-12.63-.84-3.5-.1-7.06-.06-10.58-.12C184,145.12,179.82,145.52,175.49,145.44Z"/><path class="cls-2" d="M189.66,154c-14.13,2.62-16.53,2.2-31.27,3.09-12.61.77-25.13,1.66-37.71,2.38-2.81.16-5.63.32-8.46.46l-.39,0c-4.45.22-8.74.56-13.17.93-8.18.69-16.41,1-24.62,1.6L73,162.5l-2.33.11-1.1.06-.67,0c-.23,0-.45,0-.67.06-.45,0-.9.08-1.34.14l-.29,0-.31.05-.31.05-.31,0-.58.13-.28.07-.27.07-.27.08-.25.09-.24.09a15.82,15.82,0,0,0-9.41,8.76c-.1.25-.2.49-.28.74a8.9,8.9,0,0,0-.33,1.08,6,6,0,0,0-.14.61,2,2,0,0,0-.06.34,9.56,9.56,0,0,0-.13,1.29c0,.2,0,.41,0,.61a5.15,5.15,0,0,0,0,.56v0a10,10,0,0,0,.59,2.43c1.11,2.93,3,5.2,7.19,7.29,3.34,1.68,8.65,1.32,13.46,1.41,11.54.22,23.39-.27,34.83.3,15.53.77,31.36-1.08,47-.52.91,0,1.82.06,2.73.08l2.09,0,4.18,0h2.09l10-.06h6.56l1.82,0c8.54.09,17,.65,25.49.79,6.72.1,13.48-.5,20.2-.7,1.79-.05,3.57-.07,5.35-.07h2.13l1.06,0,1.57,0,1,0,1.54,0h.27l1.76.06,2.37.09h.16l1.09,0c.85,0,1.71.06,2.59.07l1,0h6l2.21,0h.8l2.24,0h.07l2.71,0,2.48,0h1.93l1.15-.58a9.51,9.51,0,0,0,4-3.58l2.08-3.59c4.78-8.57,3.88-15.47-1.44-23.69l-.71-.93a8,8,0,0,0-3.27-2.43l-.27-.11c-18.25.59-39.36.08-57.71.19-.14,0-15.46-.09-15.6-.08L189.66,154"/><path class="cls-3" d="M206.33,154.2c.25-.11-16.25-.15-16-.24-14.13,2.62-17.21,2.2-32,3.09-12.61.77-25.13,1.66-37.71,2.38,13.3-.55,26.57-.41,39.88-1C173.62,157.83,195.7,158.51,206.33,154.2Z"/><path class="cls-4" d="M54.06,174.27s0,0,0,.07v0a10.43,10.43,0,0,0,.59,2.42c1.12,2.93,3,5.21,7.19,7.3,3.34,1.68,8.65,1.31,13.46,1.4,11.54.22,23.39-.26,34.83.31,15.53.77,31.37-1.09,47-.52l2.73.08,2.08,0c1.4,0,2.78,0,4.18,0h2.09c3.35,0,6.69-.05,10-.07h8.37c8.54.1,17,.65,25.49.79,6.72.11,13.48-.5,20.2-.7,1.79-.05,3.57-.07,5.35-.06h2.13l1.06,0,1.57,0,1,0,1.54.05h.27l1.76.06,2.37.09h.16l1.09,0c.85,0,1.71.06,2.59.08h4l2.71,0h.21l2.21,0h.8l2.24,0h.07l2.71,0,2.48,0h1.45l0-1.47h0c-2.31,0-4.81-.28-6.71-.45l-.3,0-.92-.09-.91-.07c-4.66-.38-9.28-.82-14-1.14-17.28-1.19-35.12-.67-52.59-.23-5.88.15-13.91.74-19.56,0-5.25-.71,1.27-2.54,3.9-3.11,1.5-.32,4.8-.6,5.22-1.56.75-1.74-5.47-1.78-7.6-2a271.8,271.8,0,0,0-35.07-1.3c-9.54.29-19,.74-28.59.75-5.32,0-10.66-.39-15.92-.66-5-.25-11.18,0-15.73-1.13-2.41-.58-4.85-1.68-3.13-3.12,2-1.62,7.7-1.2,10.7-1.34,10.6-.5,21.55.64,32-.65,2.25-.28,6.11-.56,4.5-1.93-1-.83-5.24-1-6.74-1.22-3.6-.48-6.93-.79-10.65-1-4.33-.21-8.71-.6-13-.67-5.11-.09-.23-.87,4.69-1.27,17.92-1.44,25.46-1.95,31.34-2.15,42.55-1.44,59.82-6.07,57.06-6l-59.46,2.21c-12.78.68-26.83,1.07-31.26,1.45-8.17.69-16.41,1.05-24.62,1.59-.34,0-.7,0-1.07.06l-2.34.11-1.1.06-.67.05-.67,0-1.34.14-.29,0-.31,0-.31.06-.3,0-.59.13-.28.07-.27.07-.26.08-.26.08-.24.09A15.86,15.86,0,0,0,55,169.11c-.1.24-.19.49-.28.74a10.16,10.16,0,0,0-.33,1.07c0,.2-.1.41-.14.61s0,.23-.06.34a4.46,4.46,0,0,0-.07.51,10,10,0,0,0-.08,1.22C54,173.82,54.05,174.05,54.06,174.27Z"/><path class="cls-3" d="M201,155.38c10,0,32.91,1.67,42.93,1.34,7.31-.23,15,.4,22.32-.26,2-.18,7.36-.12,9.31-.32l-2.13-2.08c-15.25-.13-16.54.28-58.12.19C213.35,154.64,201.2,155.05,201,155.38Z"/><path class="cls-2" d="M53.38,177.56s0,0,0,.06v0a10,10,0,0,0,.59,2.43,18.44,18.44,0,0,0,6.14,8.54c2.76,2.06,8.72,3.08,13.38,3.1,16.28.09,24.71-.68,36-.83,15.71-.22,22.23-.58,39.24-.45.92,0,8.19-.5,9.1-.48.69,0,4.71-.3,5.4-.29,1.39,0,2.09-.1,3.49-.1.69,0,2.64-.09,3.34-.1,3.34,0,4.64-.08,8-.1,1,0,2.37-.1,3.34-.1.61,0,1.51-.07,2.12-.07s1.33-.19,1.94-.18,2.67.06,3.27.06c8.54.1,14.15.22,22.68.36,6.72.1,13.48-.5,20.2-.7,1.79-.05,3.57-.07,5.35-.07h2.13l1.06,0,1.57,0,1,0,1.54,0h.27l1.76.06c.79,0,1.14.06,2,.13l.52.08c.55.07,1.22.1,1.58.13,3,.2,5.7.1,8.86,0l.5,0c.57.06,1.54.06,1.59.06,4-.06,6.19-.43,10-.4l0-1.46v-.68c-2.32,0-4.83-.27-6.75-.44a15.72,15.72,0,0,1-2,.47h-.06c-1.79.25-3.64.45-5.47.55-6.94.4-13.74-.28-20.65-.13-7.8.16-16.4.32-26.23.41-8.93.08-17.69-.67-26.66-.48-4.37.08-8.19.17-12.58,0-5.09-.25-10.15.06-15.26,0-8.67-.05-17.15-.28-25.74-.67-3.15-.15-6.33-.24-9.49-.39-2.61-.12-9.37.28-11.29-.71-1.55-.79.65-1,2.53-1.28,3.6-.46,7.32-.45,11-.68,7.4-.48,14.66-1.4,22.1-1.74,11-.51,22-1.33,32.91-1.6-15.5.39-17.84-.67-27-.62-7.8,0-15.55.47-23.35.72-13.51.43-26.73.24-40.18.07-5.4-.06-21.93.75-20.52-3.76.57-1.82,3.71-3,6.87-3.84,10.38-2.76,25.63-3.54,36.83-4-16.06-.44-17.28-.09-24.34-.2-6.42-.09-19,1.56-20.05-2.62a16.81,16.81,0,0,1,.36-3.9c-.48-3.67-6.12.58-6.2.61-4.86,3.54-5.69,6.78-6.2,9.63a6.88,6.88,0,0,1-.13.91,7.32,7.32,0,0,0-.1,1,6,6,0,0,0-.14.61,2,2,0,0,0-.06.34,4.46,4.46,0,0,0-.07.51,9.85,9.85,0,0,0-.09,1.21C53.36,177.11,53.37,177.33,53.38,177.56Z"/><path class="cls-3" d="M252.35,158.36c-1,.08-2,.13-2.46.18-2,.21-4,.39-6,.49-3.54.16-7.08.39-10.63.51-13.3.43-26.71.93-40,1.11-12,.16-24-.09-36,.32-9,.3-18.58.44-27.2,2.12,1.9-.37,5.44-.1,7.48-.13,2.77,0,5.54-.07,8.29,0,5.23.1,10.12.79,15.27,1.09-1.31.72-4.3.79-6.09,1a100.5,100.5,0,0,1-16,.3c-5.94-.32-11.63-1.07-17.68-1-5.08,0-12.51-.08-17.33.88,1.41-.28,4.51.14,6,.23,2,.13,3.92.31,5.85.51,3.89.39,7.71.9,11.55,1.36a186.15,186.15,0,0,0,23,1.52,95.79,95.79,0,0,0,11.9-1c6.43-.89,12.94-1.64,19.49-2.24,7.27-.66,14.62-1,22-1.27s14.89-.14,22.34-.25c3.42,0,8.7.88,12.07,1.07,1.78.11,38.68-2.11,39.73-1.4-12.44-1.25-43.47-1.48-48.51-1.4,2.53,0,5.87-.38,8.45-.63,5.69-.54,12.85-1.64,17.15-3.72A10.11,10.11,0,0,1,252.35,158.36Z"/><path class="cls-3" d="M89.83,175.33c11,.15,22.21-.89,33.23-1.27,14.2-.48,28-2.06,42.11-3,14.76-1,29.38-3,44.22-3.57,11.2-.42,21.56.66,32.32,1.69-10.88.19-21.52.85-32.32,1.75-6.54.54-13.14.63-19.67,1.19-5.69.49-11.32,1.2-17,1.66-11.53.94-23,1.59-34.56,2.23-9.19.51-18.55,1-27.74.88A119.39,119.39,0,0,1,89.83,175.33Z"/><path class="cls-2" d="M175.72,177.29c5.57-.12,11.31-.95,16.71-1.48a235.38,235.38,0,0,1,25.22-1.08c3.84,0,7.79.06,11.65-.15,4.26-.23,8.11-.83,12.18-1.34a185.75,185.75,0,0,1,19.16-1c.44.83-.83,1.75-.26,2.65a15.53,15.53,0,0,0,3.11,2.62c1.22,1,3.07,1.59,3.42,2.69-3.65-.21-7.16-1-10.8-1.35a122.11,122.11,0,0,0-13.24-.5c-5,.07-10,.32-15,.38-5.45.05-10.85-.36-16.06-.76-4.21-.31-8.26-.73-12.63-.84-3.5-.09-7.06-.05-10.58-.11C184.18,177,180.05,177.36,175.72,177.29Z"/><path class="cls-2" d="M189.86,183.3c-14.12,2.62-16.52,2.19-31.26,3.09-12.61.76-25.13,1.66-37.71,2.38q-4.22.24-8.46.45l-.39,0c-4.45.22-8.74.56-13.17.94-8.18.69-16.41,1-24.62,1.59-.34,0-.71,0-1.08.06l-2.33.11-1.1.06-.68.05-.66,0-1.34.14-.29,0-.32,0-.3.06-.31.05-.58.12-.28.07-.27.08-.27.08-.26.08L64,193a15.83,15.83,0,0,0-9.41,8.77c-.1.24-.2.49-.28.74a8.25,8.25,0,0,0-.33,1.07,4.47,4.47,0,0,0-.14.61,2.21,2.21,0,0,0-.06.34,9.72,9.72,0,0,0-.13,1.29,4.28,4.28,0,0,0,0,.62,5.24,5.24,0,0,0,0,.56v0a10.06,10.06,0,0,0,.59,2.42c1.11,2.93,3,5.21,7.19,7.3,3.34,1.68,8.65,1.31,13.46,1.4,11.54.22,23.39-.26,34.83.31,15.53.77,31.36-1.09,47-.52l2.73.08,2.09,0c1.39,0,2.78,0,4.18,0h2.09c3.34,0,6.69-.05,10-.07h8.38c8.53.09,17,.65,25.49.79,6.72.11,13.48-.5,20.2-.7,1.79-.05,3.57-.07,5.35-.06h2.13l1.06,0,1.57,0,1,0,1.54,0h.27l1.76.07,2.37.09H249l1.08,0c.85,0,1.72.06,2.6.08h4l2.71,0h.22l2.21,0h.8l2.24,0H265l2.71,0,2.48,0h1.93l1.15-.59c1.74-.88,2.39-1.46,4-3.57l2.08-3.6c4.78-8.56,3.88-15.46-1.44-23.69l-.71-.92a8,8,0,0,0-3.27-2.43l-.27-.12c-18.25.6-39.36.09-57.71.19l-15.6-.08-10.44-.2"/><path class="cls-3" d="M206.54,183.53c.25-.1-16.25-.14-16-.24-14.13,2.62-17.21,2.2-32,3.1-12.61.76-25.13,1.66-37.71,2.38,13.29-.55,26.56-.41,39.88-1C173.83,187.17,195.91,187.84,206.54,183.53Z"/><path class="cls-4" d="M54.27,203.61s0,0,0,.06v0a10.51,10.51,0,0,0,.59,2.43c1.12,2.93,3,5.2,7.19,7.29,3.34,1.68,8.65,1.32,13.46,1.41,11.54.22,23.39-.27,34.83.3,15.53.77,31.37-1.08,47-.52.92,0,1.82.06,2.73.08l2.09,0,4.18,0c.69,0,1.39,0,2.09,0l10-.06H185l1.82,0c8.54.09,17,.65,25.49.79,6.72.1,13.48-.5,20.2-.7,1.79-.05,3.57-.07,5.35-.07H240l1.06,0,1.57,0q.48,0,1,0l1.54,0h.27l1.76.06,2.37.09h.16l1.09,0c.85,0,1.71.06,2.59.07l1,0h6l2.21,0h.8l2.24,0h.07l2.71,0,2.48,0h1.45l0-1.46h0c-2.31,0-4.81-.28-6.71-.46l-.3,0-.92-.08-.91-.07c-4.66-.38-9.28-.82-14-1.15-17.28-1.18-35.12-.67-52.59-.23-5.88.15-13.91.75-19.56,0-5.25-.7,1.27-2.53,3.9-3.1,1.5-.33,4.8-.6,5.22-1.56.75-1.75-5.47-1.79-7.6-2a270,270,0,0,0-35.07-1.29c-9.54.28-19.05.74-28.59.74-5.32,0-10.66-.39-15.92-.65-5-.25-11.18,0-15.73-1.13-2.41-.58-4.85-1.69-3.13-3.13,1.95-1.61,7.7-1.2,10.7-1.34,10.6-.5,21.55.64,32-.64,2.25-.28,6.11-.57,4.49-1.93-1-.83-5.23-1-6.73-1.23-3.6-.48-6.93-.79-10.65-1-4.33-.21-8.71-.59-13-.67-5.11-.09-.23-.87,4.69-1.26,17.92-1.44,25.46-1.95,31.34-2.15,42.55-1.45,59.82-6.08,57.06-6-1.87,0-59.33,2.2-59.46,2.21-12.78.67-26.83,1.07-31.26,1.44-8.17.69-16.41,1.05-24.62,1.6l-1.08.06-2.33.11-1.1.06-.67,0c-.23,0-.45,0-.67.06-.45,0-.9.08-1.34.14l-.29,0-.31.05-.31,0-.31.06c-.19,0-.39.07-.58.12l-.28.07-.27.07-.26.08-.26.09-.24.09a15.85,15.85,0,0,0-9.41,8.76c-.1.25-.2.49-.28.74a8.9,8.9,0,0,0-.33,1.08,6,6,0,0,0-.14.61c0,.11,0,.23-.06.34a4.46,4.46,0,0,0-.07.51,8.2,8.2,0,0,0-.08,1.21C54.25,203.16,54.26,203.38,54.27,203.61Z"/><path class="cls-3" d="M201.18,184.71c10,0,32.91,1.68,42.93,1.35,7.31-.24,15,.4,22.32-.27,2-.18,7.36-.11,9.31-.31l-2.13-2.09c-15.25-.13-16.54.28-58.12.19C213.56,184,201.41,184.38,201.18,184.71Z"/><path class="cls-2" d="M53.59,206.89s0,.05,0,.07v0a10.06,10.06,0,0,0,.59,2.42A18.4,18.4,0,0,0,60.33,218c2.75,2.06,8.72,3.08,13.38,3.11,16.28.08,24.71-.68,36-.84,15.71-.22,22.23-.57,39.24-.45.92,0,8.19-.5,9.1-.48.69,0,4.71-.29,5.4-.28,1.39,0,2.09-.11,3.49-.1.69,0,2.64-.1,3.34-.1,3.34,0,4.64-.09,8-.11,1,0,2.37-.09,3.34-.09.61,0,1.51-.08,2.12-.08s1.33-.18,1.94-.18l3.27.07c8.54.09,14.15.21,22.68.35,6.72.11,13.48-.5,20.2-.7,1.79-.05,3.57-.07,5.35-.06h2.13l1.06,0,1.57,0,1,0,1.54,0h.27l1.76.07c.79,0,1.14,0,2,.12l.52.08c.54.08,1.22.11,1.58.13,3,.21,5.7.1,8.86.06l.5,0a14.79,14.79,0,0,0,1.59,0c4-.06,6.18-.43,10-.39l0-1.47v-.68c-2.32,0-4.83-.27-6.75-.43a15.76,15.76,0,0,1-2,.46h-.06c-1.79.25-3.64.46-5.47.56-6.94.39-13.74-.28-20.65-.14-7.8.16-16.4.33-26.23.41-8.93.08-17.69-.67-26.66-.48-4.37.09-8.19.18-12.58,0-5.09-.25-10.15.06-15.26,0-8.67,0-17.15-.27-25.74-.67-3.15-.15-6.34-.24-9.49-.38-2.61-.13-9.37.27-11.29-.71-1.55-.8.65-1.05,2.53-1.29,3.6-.45,7.32-.44,10.95-.68,7.4-.47,14.66-1.39,22.1-1.74,11-.51,22-1.32,32.9-1.6-15.49.39-17.83-.67-26.94-.62-7.8.05-15.55.48-23.35.72-13.51.43-26.73.24-40.18.08-5.4-.07-21.93.74-20.52-3.76.57-1.82,3.71-3,6.87-3.85,10.38-2.76,25.62-3.54,36.83-4-16.06-.45-17.28-.09-24.34-.2-6.42-.09-19,1.55-20-2.62a15.7,15.7,0,0,1,.36-3.9c-.48-3.67-6.12.58-6.2.61-4.86,3.54-5.69,6.78-6.2,9.62a5.85,5.85,0,0,1-.14.92c-.13.36,0,.67-.09,1a4.47,4.47,0,0,0-.14.61,2.21,2.21,0,0,0-.06.34,3,3,0,0,0-.07.51,10,10,0,0,0-.09,1.22C53.57,206.44,53.58,206.67,53.59,206.89Z"/><path class="cls-3" d="M252.56,187.7c-1,.07-2,.12-2.46.17-2,.21-4,.4-6,.49-3.54.17-7.08.4-10.63.51-13.3.44-26.71.94-40,1.12-12,.16-24-.1-36,.31-9,.31-18.58.45-27.21,2.13,1.91-.37,5.45-.1,7.49-.14,2.77,0,5.54-.07,8.29,0,5.23.09,10.12.78,15.27,1.08-1.31.73-4.3.79-6.09,1a99.36,99.36,0,0,1-16,.3c-5.94-.31-11.64-1.06-17.68-1-5.08,0-12.52-.08-17.33.88,1.4-.28,4.5.13,6,.23q3,.19,5.85.5c3.89.4,7.71.9,11.55,1.36a184.22,184.22,0,0,0,23,1.52,93.91,93.91,0,0,0,11.9-1c6.43-.89,12.94-1.64,19.49-2.23,7.27-.66,14.62-1,21.95-1.27s14.89-.14,22.34-.25c3.42,0,8.7.87,12.07,1.07,1.78.1,38.68-2.11,39.73-1.4-12.44-1.26-43.47-1.48-48.51-1.4,2.53,0,5.87-.38,8.45-.63,5.69-.55,12.85-1.65,17.15-3.72A11.07,11.07,0,0,1,252.56,187.7Z"/><path class="cls-3" d="M90,204.66c11,.16,22.21-.89,33.23-1.26,14.2-.49,28-2.06,42.11-3.05,14.76-1,29.38-3,44.22-3.57,11.2-.42,21.56.66,32.32,1.69-10.88.19-21.52.86-32.32,1.76-6.54.54-13.14.63-19.67,1.18-5.69.49-11.32,1.2-17,1.67-11.53.94-23,1.58-34.57,2.22-9.18.52-18.54,1-27.73.88A119.39,119.39,0,0,1,90,204.66Z"/><path class="cls-2" d="M175.93,206.62c5.56-.11,11.31-1,16.71-1.48a240.7,240.7,0,0,1,25.22-1.08c3.84,0,7.79.07,11.65-.14,4.26-.24,8.11-.84,12.17-1.34a186.07,186.07,0,0,1,19.17-1c.44.83-.83,1.75-.26,2.65s2.07,1.8,3.11,2.63c1.21,1,3.07,1.59,3.42,2.68-3.66-.21-7.16-1-10.8-1.35a124.7,124.7,0,0,0-13.24-.5c-5,.08-10,.33-15,.38-5.45.06-10.85-.36-16.06-.75-4.21-.32-8.26-.73-12.63-.85-3.5-.09-7.06,0-10.58-.11C184.39,206.3,180.26,206.7,175.93,206.62Z"/><path class="cls-2" d="M190.08,213.1c-14.13,2.62-16.52,2.19-31.27,3.09-12.61.77-25.13,1.66-37.7,2.38l-8.46.45-.4,0c-4.45.21-8.73.56-13.16.93-8.18.69-16.42,1.05-24.62,1.6l-1.08.06-2.33.1L70,221.8l-.67,0-.67.05c-.45,0-.9.09-1.34.15l-.28,0-.32,0-.31.05-.3.05-.58.13-.29.07-.27.07-.26.08-.26.09a1.17,1.17,0,0,0-.24.09,15.8,15.8,0,0,0-9.4,8.76c-.1.25-.2.49-.29.74a11.12,11.12,0,0,0-.33,1.08c0,.2-.1.4-.14.61l-.06.34a11.46,11.46,0,0,0-.12,1.29c0,.2,0,.41,0,.61s0,.38,0,.56v0a10,10,0,0,0,.6,2.43c1.11,2.93,3,5.2,7.18,7.29,3.34,1.68,8.66,1.31,13.47,1.41,11.53.22,23.39-.27,34.82.3,15.53.77,31.37-1.08,47-.52l2.73.08,2.09,0,4.17,0H168c3.35,0,6.7,0,10.05-.06h6.56l1.82,0c8.53.09,17,.65,25.48.78,6.73.11,13.49-.49,20.2-.69,1.79-.06,3.57-.07,5.35-.07h2.13l1.07,0,1.56,0,1,0,1.55.05h.26l1.77.06,2.37.09h.16l1.08,0c.85,0,1.72.06,2.59.07l1,0H257l2.71,0h.22l2.21,0h.8l2.23,0h.07l2.71,0,2.49,0h1.93l1.14-.58a9.52,9.52,0,0,0,4-3.58l2.08-3.59c4.77-8.57,3.87-15.47-1.44-23.7l-.71-.92a8,8,0,0,0-3.27-2.43l-.27-.11c-18.25.59-39.37.08-57.71.19l-15.6-.09-10.44-.2"/><path class="cls-3" d="M206.75,213.34c.26-.11-16.25-.15-16-.25-14.13,2.63-17.21,2.2-32,3.1-12.61.77-25.13,1.66-37.7,2.38,13.29-.55,26.56-.41,39.87-1C174.05,217,196.13,217.65,206.75,213.34Z"/><path class="cls-4" d="M54.49,233.41v.1a10,10,0,0,0,.59,2.43c1.11,2.93,3,5.2,7.19,7.3,3.34,1.68,8.65,1.31,13.46,1.4,11.53.22,23.39-.26,34.83.3,15.52.78,31.36-1.08,47-.51l2.73.08,2.09,0q2.08,0,4.17,0h2.09c3.35,0,6.7,0,10.05-.07h8.38c8.53.09,17,.65,25.48.79,6.73.1,13.49-.5,20.21-.7,1.79,0,3.57-.07,5.35-.06h2.12l1.07,0,1.57,0,.95,0,1.55.05h.26l1.77.07,2.37.09h.16l1.08,0c.85,0,1.72.06,2.6.08h4l2.71,0h.22l2.21,0h.8l2.23,0a.22.22,0,0,1,.08,0l2.71,0,2.48,0h1.44l0-1.47h0c-2.32,0-4.81-.28-6.72-.46l-.29,0-.92-.09-.92-.07c-4.66-.38-9.28-.82-14-1.14-17.28-1.19-35.12-.67-52.59-.23-5.88.14-13.92.74-19.57,0-5.24-.7,1.27-2.53,3.91-3.1,1.5-.33,4.8-.6,5.21-1.56.76-1.74-5.47-1.78-7.6-2a271.64,271.64,0,0,0-35.06-1.3c-9.54.29-19.05.74-28.59.75-5.32,0-10.66-.39-15.92-.66-5-.25-11.18,0-15.74-1.13-2.4-.58-4.84-1.69-3.12-3.12,1.95-1.62,7.7-1.2,10.7-1.34,10.59-.5,21.55.64,32-.65,2.25-.28,6.11-.56,4.49-1.93-1-.83-5.23-1-6.74-1.22-3.59-.49-6.92-.79-10.64-1-4.34-.21-8.71-.6-13.06-.67-5.1-.09-.22-.87,4.69-1.27,17.92-1.44,25.47-2,31.35-2.15,42.54-1.44,59.82-6.07,57.06-6L131,215.25c-12.78.68-26.83,1.07-31.26,1.45-8.18.69-16.41,1-24.62,1.59l-1.08.06-2.33.11-1.1.06-.68,0-.67.05-1.34.14-.28,0-.32,0-.31.05-.3.06-.58.12-.28.07-.27.08-.27.08-.26.08-.23.09a15.85,15.85,0,0,0-9.41,8.76c-.1.25-.2.5-.28.75a10.22,10.22,0,0,0-.34,1.07c0,.2-.1.41-.13.61a2.21,2.21,0,0,0-.06.34,4.5,4.5,0,0,0-.08.51c0,.41-.07.81-.08,1.22C54.47,233,54.47,233.19,54.49,233.41Z"/><path class="cls-3" d="M201.39,214.52c10,0,32.91,1.67,42.94,1.34,7.31-.24,15,.4,22.32-.26,2-.18,7.35-.12,9.31-.32l-2.13-2.08c-15.26-.14-16.54.28-58.12.19C213.78,213.78,201.63,214.19,201.39,214.52Z"/><path class="cls-2" d="M53.81,236.7v.1a10,10,0,0,0,.6,2.43,18.37,18.37,0,0,0,6.14,8.54c2.75,2.06,8.71,3.07,13.38,3.1,16.28.09,24.71-.68,36-.84,15.71-.21,22.23-.57,39.24-.44.91,0,8.18-.5,9.09-.48.7,0,4.71-.3,5.4-.29,1.4,0,2.1-.1,3.49-.1.7,0,2.65-.1,3.34-.1,3.35,0,4.65-.08,8-.1,1,0,2.36-.1,3.34-.1.61,0,1.51-.07,2.11-.07s1.34-.19,1.94-.18,2.68.05,3.28.06c8.53.09,14.15.22,22.67.35,6.73.11,13.49-.49,20.2-.69,1.79-.06,3.57-.07,5.35-.07h2.13l1.07,0,1.56,0,1,0,1.55.05h.26l1.77.06c.79,0,1.14.05,2,.13l.52.08c.54.07,1.22.1,1.57.12,3.05.21,5.7.11,8.87.06l.49,0c.58.06,1.54.06,1.6.06,4-.06,6.18-.44,10-.4l0-1.46V246c-2.33,0-4.83-.27-6.75-.44a14.58,14.58,0,0,1-2,.46H263c-1.78.26-3.64.46-5.46.56-6.94.4-13.75-.28-20.66-.14-7.8.16-16.39.33-26.22.42-8.93.08-17.69-.67-26.66-.49-4.37.09-8.19.18-12.59,0-5.09-.25-10.14.06-15.25,0-8.67,0-17.15-.27-25.74-.67-3.16-.14-6.34-.23-9.5-.38-2.61-.12-9.37.28-11.28-.71-1.55-.79.65-1.05,2.53-1.28,3.59-.46,7.31-.45,10.95-.68,7.4-.48,14.65-1.4,22.1-1.74,11-.51,22-1.33,32.9-1.6-15.5.39-17.83-.68-26.95-.62-7.8,0-15.55.47-23.34.72-13.51.43-26.73.23-40.18.07-5.4-.06-21.94.75-20.52-3.76.57-1.82,3.7-3,6.87-3.84,10.38-2.76,25.62-3.54,36.82-4-16-.45-17.27-.09-24.34-.2-6.41-.09-19,1.56-20-2.62a15.79,15.79,0,0,1,.36-3.9c-.48-3.67-6.13.58-6.2.61-4.87,3.54-5.69,6.78-6.2,9.63a5.91,5.91,0,0,1-.14.91c-.13.36,0,.68-.1,1,0,.2-.1.4-.14.61l-.06.34c0,.17,0,.34-.07.51a9.83,9.83,0,0,0-.08,1.21C53.79,236.25,53.79,236.47,53.81,236.7Z"/><path class="cls-3" d="M252.78,217.5c-1,.07-2,.12-2.47.18-2,.2-4,.39-6,.48-3.54.17-7.08.4-10.64.52-13.3.43-26.7.93-40,1.11-12,.16-24-.09-36,.31-9,.31-18.59.45-27.21,2.13,1.9-.37,5.45-.1,7.49-.13,2.76,0,5.53-.07,8.29,0,5.23.1,10.12.79,15.27,1.09-1.32.72-4.3.79-6.09,1a101.84,101.84,0,0,1-16,.3c-5.93-.32-11.63-1.07-17.68-1-5.07,0-12.51-.08-17.32.88,1.4-.28,4.5.14,6,.23,2,.13,3.92.31,5.86.5,3.88.4,7.7.91,11.55,1.37a186,186,0,0,0,23,1.52,97.59,97.59,0,0,0,11.9-1c6.43-.89,12.95-1.65,19.5-2.24,7.27-.66,14.62-1,21.95-1.27s14.89-.14,22.34-.25c3.41-.05,8.69.88,12.07,1.07,1.78.11,38.67-2.11,39.73-1.4-12.45-1.25-43.47-1.48-48.52-1.4,2.54,0,5.88-.38,8.46-.63,5.69-.55,12.85-1.65,17.14-3.72A10.38,10.38,0,0,1,252.78,217.5Z"/><path class="cls-3" d="M90.26,234.47c11,.15,22.2-.89,33.23-1.27,14.2-.48,28-2.06,42.11-3,14.75-1,29.38-3,44.21-3.57,11.21-.43,21.56.66,32.33,1.69-10.89.18-21.52.85-32.33,1.75-6.54.54-13.13.63-19.66,1.19-5.69.48-11.32,1.19-17,1.66-11.53.94-23,1.58-34.57,2.23-9.18.51-18.54,1-27.73.87A119.41,119.41,0,0,1,90.26,234.47Z"/><path class="cls-2" d="M176.15,236.43c5.56-.12,11.31-1,16.71-1.48a237.9,237.9,0,0,1,25.22-1.09c3.84,0,7.79.07,11.65-.14,4.25-.23,8.11-.84,12.17-1.34a185.8,185.8,0,0,1,19.17-1c.43.83-.83,1.74-.27,2.64s2.08,1.8,3.12,2.63c1.21,1,3.06,1.59,3.41,2.68-3.65-.2-7.15-1-10.79-1.35a124.83,124.83,0,0,0-13.25-.49c-5,.07-10,.32-15,.37-5.45.06-10.84-.35-16-.75-4.21-.31-8.26-.73-12.63-.84-3.5-.09-7.06,0-10.59-.11C184.61,236.1,180.48,236.5,176.15,236.43Z"/><path class="cls-5" d="M162.64,255.53h1a18.14,18.14,0,0,0,3.19-.44,16.42,16.42,0,0,0,9.88-6.12c2.35-2.91,2.13-7.63,2.47-11.9.84-10.23.78-20.77,2.07-30.91,1.75-13.75.08-27.88,1.57-41.73.08-.8.16-1.61.23-2.42l.15-1.85c.09-1.23.16-2.47.23-3.7,0-.62.07-1.24.1-1.86.15-3,.26-5.94.4-8.92,0-.86.07-1.72.12-2.59,0-.54.05-1.08.09-1.62l.09-1.61c0-.54.07-1.08.11-1.62.53-7.57,1.66-15,2.25-22.59.46-6,0-12,0-18,0-1.59.08-3.17.17-4.75l.06-1c0-.31.05-.63.07-.94s0-.63.08-.94c0-.47.07-.93.12-1.39,0-.28.05-.57.08-.85,0-.46.09-.91.14-1.37a1.94,1.94,0,0,1,0-.24c0-.52.11-1,.16-1.56.08-.7.15-1.4.23-2.11,0,0,0-.09,0-.14,0-.31.07-.64.11-1,.08-.75.15-1.52.22-2.3l.06-.85c0-.23,0-.47.05-.71s0-.54.05-.81,0-.81.07-1.21c0-.79.07-1.6.1-2.4v0s0-.1,0-.15l.06-2,0-.71.06-2v-.06c0-.81.05-1.61.08-2.41s0-1.47.08-2.2c0-.43,0-.86.07-1.29,0-.14,0-.28,0-.43l-3.75-.08-43.24-.94-1.71,0c-.1,16.22,1.39,33.44.65,49.73,0,.12,0,.24,0,.36-1.31-2.21-1.42-5.82-2.84-7.8-1.13-1.58-2,.29-3.45,1.93-1.14,1.33-.75,3.17-.41,5,.63,3.49,1.7,6.8,2.52,10.23,0,.14.06.3.1.45.17.72.33,1.44.49,2.16a217.2,217.2,0,0,1,4.54,38.58c.39,11.23,1,22.37,1.3,33.56q.12,3.75.19,7.53V203c.07,4,.32,7.77.59,11.72.51,7.28.58,14.61.91,21.91,0,.31,0,.63,0,1,0,.66,0,1.36,0,2.07l0,1,0,.6c0,.2,0,.4,0,.6,0,.4.07.8.12,1.19,0,.09,0,.18,0,.26a2.74,2.74,0,0,0,.05.28c0,.09,0,.18,0,.28s0,.18.06.27.08.35.13.52,0,.16.08.25.05.17.08.24a1.73,1.73,0,0,0,.1.24.94.94,0,0,0,.1.23,1.47,1.47,0,0,0,.1.22c2.51,4.91,7,7.38,11,8.66l1,.28c.46.12.92.24,1.39.33l.79.14.44.07.66.08Q161.85,255.5,162.64,255.53Z"/><path class="cls-6" d="M137.56,123.71c-.12-.23-.23-.46-.34-.7a217.2,217.2,0,0,1,4.54,38.58c.39,11.23,1,22.37,1.3,33.56-.08-11.82.73-23.6.59-35.43C143.5,148.1,142.69,133.29,137.56,123.71Z"/><path class="cls-6" d="M159.26,254.82h.14a18.38,18.38,0,0,0,3.2-.44,16.4,16.4,0,0,0,9.87-6.12c2.36-2.91,2.13-7.64,2.48-11.9.83-10.24.77-20.77,2.06-30.91,1.75-13.76.09-27.88,1.57-41.73.09-.8.16-1.61.23-2.42l.15-1.85c.09-1.23.17-2.47.23-3.7,0-.62.07-1.24.1-1.86.15-3,.26-5.94.4-8.92l.12-2.59.09-1.62.09-1.61c0-.54.07-1.08.11-1.62.53-7.57,1.66-15,2.25-22.59.46-6,0-12,.05-18,0-1.59.08-3.17.18-4.75,0-.32,0-.63.06-1l.06-.94c0-.32.05-.63.08-.94l.12-1.4c0-.28,0-.57.08-.85,0-.45.09-.91.14-1.36a1.94,1.94,0,0,1,0-.24c.05-.52.11-1,.16-1.56l.24-2.11a.71.71,0,0,1,0-.14c0-.32.07-.64.11-1,.08-.75.15-1.52.22-2.3l.06-.85c0-.23,0-.47.05-.71s0-.54,0-.81.05-.81.07-1.21c0-.8.07-1.6.11-2.4v-.2c0-.65.05-1.3.07-2l0-.71.06-2v-.06c0-.81,0-1.61.08-2.41s.05-1.48.09-2.2l.06-1.29-1.91-.07a0,0,0,0,1,0,0,49.24,49.24,0,0,1-.92,5.94c0,.09,0,.18,0,.26-.06.29-.11.56-.16.82l-.14.81c-.71,4.12-1.51,8.21-2.16,12.36-2.37,15.3-2.55,31.15-2.81,46.68-.09,5.22.31,12.38-.94,17.37-1.17,4.63-3.25-1.22-3.87-3.58-.35-1.34-.55-4.28-1.79-4.69-2.24-.72-2.59,4.8-3,6.68a166.78,166.78,0,0,0-3.37,31.08c-.08,8.48.06,16.94-.39,25.41-.24,4.72-1,9.45-1.61,14.11-.57,4.43-.58,9.92-2.23,13.93-.88,2.11-2.44,4.24-4.23,2.66-2-1.79-1.21-6.88-1.25-9.55-.14-9.42,1.87-19.1.69-28.44-.25-2-.44-5.45-2.3-4.06-1.13.84-1.59,4.61-1.92,5.94a74,74,0,0,0-1.78,9.41c-.48,3.85-1.19,7.71-1.5,11.57-.36,4.53-1.15.17-1.43-4.21-1-16-1.33-22.67-1.31-27.9.15-37.82-5.07-53.32-5.1-50.87,0,1.67,0,52.75,0,52.87.27,11.36.12,23.85.39,27.8.51,7.28.59,14.6.91,21.91,0,.3,0,.63,0,1,0,.65,0,1.36,0,2.07,0,.33,0,.65,0,1l0,.6c0,.2,0,.4,0,.6,0,.4.07.8.12,1.19,0,.09,0,.18,0,.26a2.74,2.74,0,0,0,.05.28c0,.09,0,.18,0,.28s0,.17.06.27.08.34.13.52.05.16.08.25.06.17.09.24a1,1,0,0,0,.09.24,1.6,1.6,0,0,0,.1.23,1.47,1.47,0,0,0,.1.22c2.51,4.91,6.95,7.38,11,8.66.31.1.63.19.95.27s.93.25,1.39.34l.79.14.45.07.65.08q.79.09,1.59.12Z"/><path class="cls-6" d="M142,112.24c.43-8.88.31-17.94.36-26.85,0-6.49.53-12.69,0-19.21-.14-1.75-.31-3.49-.48-5.24l-1.71,0c-.1,16.22-.74,22.34-.12,48.35A5,5,0,0,0,142,112.24Z"/><path class="cls-7" d="M163.52,255.54h.14a18.14,18.14,0,0,0,3.19-.44,26.85,26.85,0,0,0,11.46-5.15c2.81-2.37,4.43-7.62,4.69-11.76.89-14.45.29-22,.63-32,.47-13.95.31-19.75,1.29-34.85.05-.81-.26-7.28-.19-8.09.05-.62-.16-4.19-.12-4.8.09-1.24,0-1.87,0-3.1,0-.62,0-2.35,0-3,.15-3,.11-4.13.24-7.1,0-.86,0-2.11,0-3,0-.54,0-1.35,0-1.88s-.17-1.19-.14-1.73.2-2.37.24-2.91c.53-7.57,1-12.55,1.55-20.11.46-6,0-12,0-18,0-1.59.08-3.17.17-4.75l.06-1c0-.31.05-.63.07-.94s0-.63.08-.94c0-.47.07-.93.12-1.39,0-.28.05-.57.08-.85,0-.46.09-.91.14-1.37a1.94,1.94,0,0,1,0-.24c0-.52.11-1,.16-1.56.08-.7.13-1,.26-1.79.08-.26.12-.41.13-.46a10.83,10.83,0,0,0,.24-1.4,61.42,61.42,0,0,0,.5-7.86l.05-.44a10.52,10.52,0,0,0,.15-1.41c.11-3.59-.27-5.51,0-8.91l-1.91-.08-.89,0a54.84,54.84,0,0,1-.89,6,9.26,9.26,0,0,1,.51,1.83v.06a41.39,41.39,0,0,1,.47,4.87c.18,6.17-1,12.19-1.17,18.33-.16,6.93-.36,14.56-.71,23.29-.32,7.93-1.73,15.68-1.91,23.65a104.58,104.58,0,0,1-.65,11.17c-.57,4.51-.41,9-.69,13.55-.48,7.69-1.18,15.21-2.11,22.82-.34,2.8-.61,5.62-1,8.42-.28,2.31-.08,8.32-1.46,10-1.11,1.35-1.34-.61-1.56-2.29-.42-3.21-.23-6.51-.36-9.74-.27-6.59-1.12-13.06-1.22-19.69-.14-9.81-.68-19.53-.52-29.26-.23,13.77-1.73,15.81-2.09,23.9-.32,6.93-.13,13.82-.18,20.75-.09,12-1,23.74-1.82,35.67-.34,4.79-.08,19.5-5.9,18.08-2.35-.57-3.74-3.39-4.69-6.23-3.11-9.32-3.4-22.87-3.42-32.83-1.35,14.23-.94,15.33-1.42,21.6-.43,5.69,1.12,16.89-4.39,17.7a29.87,29.87,0,0,1-5.07-.46c-4.82.3.46,5.46.5,5.53,4.39,4.44,8.58,5.29,12.27,5.84.33,0,.87.07,1.19.15.47.13.88,0,1.35.13l.79.14.44.07.66.08q.8.09,1.59.12Z"/><path class="cls-8" d="M148,78.22c0,.88.07,1.75.11,2.2.18,1.76.33,3.53.35,5.31.05,3.15.18,6.3.17,9.46-.07,11.83-.06,23.74-.46,35.55-.37,10.65-1.27,21.28-1.31,31.94,0,8-.31,16.51,1.48,24.23-.4-1.71.12-4.84.18-6.65.07-2.46.17-4.92.37-7.37.38-4.63,1.51-8.95,2.15-13.51.88,1.19.83,3.84,1,5.44a60.85,60.85,0,0,1-.37,14.21c-.7,5.26-2,10.29-2.2,15.66-.22,4.5-.7,11.1.32,15.41-.3-1.26.39-4,.59-5.28.26-1.75.58-3.47.93-5.18.71-3.43,1.55-6.81,2.33-10.21a114.27,114.27,0,0,0,3.09-20.33,58.6,58.6,0,0,0-.7-10.6c-.86-5.74-1.53-11.55-2-17.38-.51-6.48-.65-13-.61-19.53s.53-13.23.74-19.84a82,82,0,0,1,.76-8.88c.22-1.58.6-7.46,1.58-8.37-2.74,2.56-4.3,9.79-4.44,14.27a71.11,71.11,0,0,0-.42-7.53c-.44-5.07-1.54-11.46-4-15.35A6.48,6.48,0,0,1,148,78.22Z"/><path class="cls-8" d="M162.35,223.1c.73-9.77-.1-19.74-.06-29.55,0-12.62-1.35-24.93-2-37.48-.64-13.14-2.53-26.19-2.55-39.38,0-10,1.89-19.12,3.76-28.63-.28,9.66.09,19.13.74,28.75.4,5.83.2,11.69.61,17.5.37,5.07,1,10.09,1.36,15.17.68,10.27,1,20.47,1.26,30.76.23,8.17.37,16.5-.18,24.65C164.88,211.41,164.26,217.14,162.35,223.1Z"/><path class="cls-6" d="M169,146.92c.11-4.94-.7-10.07-1.14-14.88a146,146,0,0,1-.21-22.43c.22-3.41.47-6.91.38-10.35a109.1,109.1,0,0,0-1.17-10.85,112.4,112.4,0,0,1-.37-17c1.1-.36,2.24.8,3.44.33A17.9,17.9,0,0,0,173.53,69c1.32-1,2.23-2.67,3.67-2.94-.44,3.23-1.67,6.32-2.28,9.53a76.13,76.13,0,0,0-1.28,11.75c-.14,4.44-.06,8.91-.23,13.35a113.6,113.6,0,0,1-1.74,14.23c-.62,3.72-1.35,7.3-1.71,11.18-.29,3.1-.41,6.27-.65,9.39C169,139.4,169.32,143.08,169,146.92Z"/><path class="cls-6" d="M133.94,108.73a1,1,0,0,1-.27-.49,6.19,6.19,0,0,1,.87-4.42,3.09,3.09,0,0,1,2.47-1.49c2.36.24-.13,5.21-1.16,6C135.4,108.73,134.45,109.18,133.94,108.73Z"/><path class="cls-6" d="M134.48,105.33c.13-.35.27-.67.38-.9.44-.94,1.1-1.76,1.95-1.58,1.08.24-.22,3.25-.56,3.83s-1.38,2-1.94,1.09A3.25,3.25,0,0,1,134.48,105.33Z"/><path class="cls-7" d="M165.15,68.31c2.13.11,4.27.17,6.35.13A66,66,0,0,0,183,67c4.88-1,7.79-4,5.93-6.35a8,8,0,0,0-5.1-3.2c-1.13-.29-2.44-.34-3.5-.62a15,15,0,0,0-2.68-.67c-2.86-.31-5.89-.13-8.74-.49a54.57,54.57,0,0,0-9.06-.32,51.8,51.8,0,0,0-11,1.23,20.44,20.44,0,0,0-3.77,1.58c-1,.48-2.5.63-3.28,1.24-.48.37-1.19.55-1.55,1a1.92,1.92,0,0,0-.39,1.52c0,1.14,1.42,2.45,3.24,3.18a37.65,37.65,0,0,0,7.73,1.76c3.07.46,6.28.94,9.46,1.18C161.88,68.11,163.51,68.22,165.15,68.31Z"/><path class="cls-9" d="M174.87,67.37a33.29,33.29,0,0,0,3.57-.54c1.05-.24,2.24-.28,3.27-.53A14.2,14.2,0,0,0,187,63.86c1.93-1.38.53-3.52-1.51-4.73A16.66,16.66,0,0,0,180,57.4a28.39,28.39,0,0,0-3.8-.71c-1.13-.08-2.23-.15-3.34-.27-1.28-.12-2.55-.13-3.84-.18s-2.4-.26-3.62-.35a48.78,48.78,0,0,0-7.05.07c-2.23.17-4.64.33-6.77.67A15.81,15.81,0,0,0,147,58.21a11.64,11.64,0,0,1-3,1.08c-2,.49-2.72,1.65-2.13,2.8a4.91,4.91,0,0,0,1.35,1.85,9.72,9.72,0,0,0,3.66,1.25c.77.15,1.6.22,2.36.38s1.47.39,2.28.53c1.73.29,3.73.43,5.51.68a82.11,82.11,0,0,0,11,.63c1.49,0,3,.07,4.44.07A17.39,17.39,0,0,0,174.87,67.37Z"/><path class="cls-10" d="M149.58,58.52a20.13,20.13,0,0,1,5.8-1.21c2.08-.08,4.17-.36,6.27-.39,3.47,0,6.93.37,10.33.65a38,38,0,0,1,8.7,1.39,25.16,25.16,0,0,1,2.76,1.16,1.55,1.55,0,0,1,1,2.2,2.23,2.23,0,0,1-1.64,1.75,27.73,27.73,0,0,1-5.22,1.2,32.57,32.57,0,0,1-5.49.69c-2,0-3.93-.16-5.89-.1a78.69,78.69,0,0,1-9-.57c-1.5-.15-3.11-.11-4.56-.4s-2.72-.74-4-1.12c-2.65-.75-3.73-2-2.63-3.45a3.09,3.09,0,0,1,1.88-1.2Z"/><path class="cls-11" d="M151,60.31a18,18,0,0,1,4.87-1.44c4.51-.94,10.09-.58,14.81-.2,2.9.24,9.68,1.07,9.39,3.18s-7.21,2.43-10,2.51c-4.9.13-10.2.25-14.92-.69a10.68,10.68,0,0,1-4.31-1.74C150,61.28,150.29,60.74,151,60.31Z"/><path class="cls-10" d="M155,60.8c1.47-1.14,5.41-1.27,7.64-1.34a37.55,37.55,0,0,1,6.54.18c2.35.33,5.46,0,6.68,1.57.62.77-.27,1-1.43,1.31a16.53,16.53,0,0,1-4.26.43,89.12,89.12,0,0,1-10.6-.34C158.82,62.53,153.52,61.65,155,60.8Z"/><path class="cls-11" d="M160.19,60.76a15.48,15.48,0,0,1,3.76-.34c1.09-.05,2.14,0,3.24,0a23.7,23.7,0,0,1,2.41.23,4.33,4.33,0,0,1,1.45.3c.33.26-.28.57-.72.68a15.92,15.92,0,0,1-2.55.28,33.51,33.51,0,0,1-5.77-.3,5.6,5.6,0,0,1-1.86-.41C159.82,61,159.87,60.8,160.19,60.76Z"/><path class="cls-7" d="M143.36,59.76c.11.05,4,.55,6.37.84,0,0-5.52-.42-7.47-.48S143.36,59.76,143.36,59.76Z"/><path class="cls-7" d="M143.75,64.76l9.74-1.17s-7.68,1.09-9.12,1.53Z"/><path class="cls-7" d="M155.42,55.84l1.2-.18s2.3,1,2.59,1.54a10.77,10.77,0,0,0,2.07,1.73A33.26,33.26,0,0,1,155.42,55.84Z"/><path class="cls-5" d="M159.17,65.69a8,8,0,0,1,3.37-2S161.84,64.9,159.17,65.69Z"/><path class="cls-7" d="M188.26,64.25c-4.87-.42-14.15-1.66-14.15-1.66s3.58.6,5.63,1.07S186.85,65,186.85,65Z"/><path class="cls-7" d="M181.37,66.78c-.07,0-2.6-.6-2.6-.6L181,67Z"/><path class="cls-7" d="M184.91,65.54A19.44,19.44,0,0,1,183,65l2.74.41Z"/><path class="cls-7" d="M165.22,55.68l1.89,0A5,5,0,0,0,165.84,57C166.06,56.31,165.13,55.74,165.22,55.68Z"/><path class="cls-5" d="M177.9,58.57a70.32,70.32,0,0,0-9.75,2A48.34,48.34,0,0,0,177.9,58.57Z"/><path class="cls-5" d="M160.77,61.46c.24,0,3.35-.47,4.39-.49a15.67,15.67,0,0,0,1.45-.92c.13-.14-.18,1.25-.18,1.25l1.36,1.08-2.81-1Z"/><path class="cls-5" d="M152.33,60.09a41.82,41.82,0,0,1,5.94.69A37.7,37.7,0,0,1,152.33,60.09Z"/><polygon class="cls-7" points="170.2 67.64 169.76 65.89 171.5 67.73 170.2 67.64"/><path class="cls-7" d="M153.31,66.78a27.93,27.93,0,0,1,2.6-1.22l-1.5,1.49Z"/><polygon class="cls-7" points="140.25 61.88 145.84 61.92 140.25 62.26 140.25 61.88"/><path class="cls-7" d="M148.48,57.08l1.14-.14,1.49.58S148.48,57.08,148.48,57.08Z"/><path class="cls-7" d="M188,59.64l.29.38L183,60.1S187.59,59.7,188,59.64Z"/><path class="cls-7" d="M176.27,56.22l1.48.11-2.27,1A7.18,7.18,0,0,0,176.27,56.22Z"/><path class="cls-5" d="M177.88,61.68a57.13,57.13,0,0,1,7.05.13A52.87,52.87,0,0,1,177.88,61.68Z"/><path class="cls-5" d="M169.8,58.59s.06-.89,2.06-1.66A4.21,4.21,0,0,1,169.8,58.59Z"/><path class="cls-5" d="M56,117.28c0,.33,0,.67,0,1v0a18.48,18.48,0,0,0,.62,3.27,16.74,16.74,0,0,0,7.27,9.88c3.36,2.3,8.67,1.86,13.48,2,11.54.42,23.39-.09,34.84.8,15.54,1.21,31.37-1.1,47-.17.91.06,1.82.1,2.73.14l2.09.07c1.39,0,2.78.07,4.18.08l2.09,0c3.35,0,6.69,0,10,0l2.92,0,1.82,0,1.82,0,1.82,0c8.54.22,17,1.07,25.5,1.35,6.73.21,13.49-.52,20.2-.71,1.79-.06,3.57-.06,5.35,0l1.07,0,1.06,0,1.07,0,1.57.06,1,0,1.54.08h.27l1.76.11c.79,0,1.58.09,2.37.15h.16l1.09.06c.85.06,1.72.1,2.59.13l1,0,.81,0,.91,0,1.36,0h2.93l2.21,0h.8l2.24,0h.07l2.71,0h4.41l-.05-3.86-.61-44.48,0-1.76c-18.24.59-37.55,2.86-55.9,2.79h-.41c2.44-1.44,6.5-1.71,8.66-3.25,1.74-1.24-.39-2.07-2.3-3.47-1.54-1.11-3.59-.63-5.69-.2-3.91.8-7.58,2-11.41,3l-.5.13-2.42.59a266.89,266.89,0,0,1-43.22,6.31c-12.61.89-25.12,2-37.69,2.77q-4.23.28-8.46.52l-.4,0c-4.45.24-8.73.66-13.16,1.11-8.17.83-16.41,1.22-24.61,1.87l-1.08.07-2.33.11-1.1.07-.67.06c-.23,0-.45,0-.67.06-.45,0-.9.11-1.34.18l-.29,0-.31.06-.31.07-.3.07-.59.16-.28.09-.27.1-.26.1-.26.11-.23.12a18.66,18.66,0,0,0-9.32,11.67c-.1.33-.19.66-.28,1s-.23,1-.32,1.44c0,.27-.09.54-.13.82s0,.3-.05.46a5.05,5.05,0,0,0-.07.68C56,116.19,56,116.74,56,117.28Z"/><path class="cls-6" d="M203.31,85.88l.77-.38a266.89,266.89,0,0,1-43.22,6.31c-12.61.89-25.12,2-37.69,2.77,13.29-.59,26.56-.25,39.88-.9C176.11,93,192.73,91.56,203.31,85.88Z"/><path class="cls-6" d="M56.68,113.78s0,.06,0,.09v0a17.62,17.62,0,0,0,.62,3.27,16.75,16.75,0,0,0,7.27,9.89c3.35,2.29,8.66,1.86,13.48,2,11.54.43,23.39-.09,34.84.8,15.54,1.21,31.37-1.1,47-.17.91.06,1.82.11,2.73.14l2.09.07q2.09.06,4.17.09l2.09,0c3.35,0,6.7,0,10.05,0l2.92,0,1.83,0,1.82,0,1.82,0c8.53.22,17,1.07,25.5,1.35,6.73.22,13.48-.52,20.2-.71,1.79-.05,3.57-.06,5.35,0l1.07,0,1.06,0,1.06,0,1.57.07,1,0,1.55.08.26,0,1.77.1,2.37.15h.16l1.09.07c.85,0,1.71.09,2.59.12l1,0,.81,0,.91,0,1.36,0H266l2.23,0h.07l2.71,0h3.93v-2h0c-2.31-.07-4.81-.44-6.72-.69l-.3,0-.92-.13-.91-.1c-4.67-.57-9.29-1.21-14-1.7-17.29-1.79-35.13-1.29-52.61-.9-5.88.13-13.91.85-19.57-.22-5.25-1,1.25-3.39,3.88-4.13,1.49-.42,4.79-.75,5.2-2,.73-2.33-5.5-2.46-7.63-2.76a202.68,202.68,0,0,0-35.09-2.14c-9.54.28-19.05.78-28.59.68-5.32,0-10.67-.64-15.93-1.06-5-.39-11.19-.17-15.76-1.69-2.41-.81-4.86-2.33-3.15-4.24,1.93-2.15,7.68-1.53,10.68-1.68,10.6-.55,21.57,1.1,32-.51,2.25-.35,6.1-.69,4.47-2.54-1-1.13-5.25-1.44-6.75-1.72a93.58,93.58,0,0,0-10.66-1.43c-4.34-.33-8.72-.89-13.07-1-5.1-.17-.23-1.17,4.68-1.64,17.91-1.74,25.45-2.34,31.34-2.54,42.54-1.46,59.77-7.49,57-7.41-1.87.06-59.33,2.3-59.46,2.3-12.77.77-26.82,1.14-31.25,1.59-8.17.84-16.41,1.23-24.61,1.87l-1.08.07-2.33.12-1.1.07L72,94l-.67.06c-.45,0-.9.11-1.33.18l-.29.05-.32.06-.3.07-.31.07-.58.16-.28.09-.27.1-.26.11-.26.11-.24.11a18.67,18.67,0,0,0-9.31,11.67c-.1.34-.2.66-.28,1s-.24,1-.32,1.44c0,.27-.1.55-.13.82s-.05.31-.06.46,0,.45-.06.68c0,.54-.07,1.09-.07,1.63C56.66,113.17,56.66,113.48,56.68,113.78Z"/><path class="cls-6" d="M216.38,90c10,.06,20.19-.45,30.21-.78,7.31-.24,14.3,0,21.61-.82,2-.22,3.92-.47,5.88-.72l0-1.76c-18.24.59-25.15.19-54.38,1.94A5.63,5.63,0,0,0,216.38,90Z"/><path class="cls-7" d="M56,118.19s0,.06,0,.09v0a18.48,18.48,0,0,0,.62,3.27c1.15,4,2.93,8.22,6.23,11.55,2.78,2.79,8.75,4.23,13.42,4.32,16.29.3,24.71-.64,36-.72,15.71-.12,22.23-.52,39.24-.16.92,0,8.19-.58,9.1-.55.7,0,4.71-.34,5.4-.32,1.39,0,2.09-.11,3.49-.09.69,0,2.64-.1,3.34-.1,3.34,0,4.64-.06,8-.05,1,0,2.37-.1,3.34-.09.61,0,1.51-.08,2.12-.08s1.33-.23,1.94-.22,2.67.11,3.28.12c8.53.23,14.15.46,22.68.74,6.73.21,13.49-.52,20.2-.71,1.79-.06,3.57-.06,5.35,0l1.07,0,1.06,0,1.07,0,1.57.06,1,0,1.54.08h.27l1.76.11c.79,0,1.14.08,2,.19.3.06.47.11.52.11.55.11,1.23.15,1.58.19a74.52,74.52,0,0,0,8.87.18l.5,0a13.9,13.9,0,0,0,1.59.1c4,0,6.18-.52,10-.43V133.1a67.09,67.09,0,0,1-6.76-.66,11.05,11.05,0,0,1-2,.6h-.06a47.36,47.36,0,0,1-5.46.69c-6.94.45-13.75-.53-20.66-.42-7.8.13-16.4.26-26.23.26-8.94,0-17.71-1.1-26.68-1-4.37.07-8.19.15-12.59-.19-5.09-.39-10.14,0-15.26-.13-8.67-.16-17.16-.56-25.75-1.19-3.16-.24-6.35-.39-9.5-.63-2.62-.19-9.38.27-11.3-1.07-1.56-1.09.64-1.41,2.52-1.71,3.59-.56,7.31-.51,10.94-.79,7.4-.55,14.65-1.7,22.09-2.09,11-.56,21.95-1.53,32.9-1.77-15.5.35-17.85-1.11-27-1.14-7.8,0-15.55.46-23.34.7-13.51.43-26.74,0-40.2-.35-5.4-.14-21.93.76-20.56-5.28.55-2.44,3.67-4,6.83-5.09,10.36-3.6,25.59-4.47,36.79-4.92-16.06-.78-17.28-.32-24.35-.54-6.41-.2-19,1.87-20.08-3.75a29.17,29.17,0,0,1,.32-5.24c-.52-4.93-6.12.71-6.19.75-4.83,4.71-5.62,9-6.1,12.87,0,.33,0,.9-.13,1.23-.12.48,0,.91-.09,1.39,0,.27-.09.54-.13.82s0,.3-.05.46a5.05,5.05,0,0,0-.07.68c0,.54-.07,1.09-.07,1.63C56,117.58,56,117.89,56,118.19Z"/><path class="cls-8" d="M254.87,94.62c-1,.1-2,.15-2.46.22-2,.25-4,.48-6,.58-3.55.19-7.08.46-10.64.57-13.3.44-26.7,1-40,1.05-12,.08-24-.39-36,0-9,.3-18.58.39-27.19,2.55,1.9-.48,5.45-.08,7.49-.1,2.77,0,5.53,0,8.29.07,5.23.19,10.13,1.17,15.29,1.64-1.31,1-4.3,1-6.08,1.24a74.45,74.45,0,0,1-16,.23c-5.94-.49-11.65-1.56-17.7-1.59-5.08,0-12.51-.25-17.32,1,1.4-.36,4.51.24,6,.38,2,.2,3.93.45,5.86.74,3.89.58,7.72,1.3,11.57,2a138.65,138.65,0,0,0,23,2.3,70.46,70.46,0,0,0,11.9-1.16c6.42-1.13,12.93-2.07,19.47-2.79,7.26-.81,14.62-1.22,21.94-1.46s14.9,0,22.35-.08c3.42,0,6.64.09,10,.39,1.78.16,8.41.31,9.48,1.27-3-2.71-11.19-4-16.23-3.95,2.53,0,5.87-.45,8.45-.75,5.68-.68,12.84-2.07,17.11-4.81A7.87,7.87,0,0,1,254.87,94.62Z"/><path class="cls-8" d="M92.47,115.6c11,.33,22.21-.94,33.23-1.33,14.2-.49,28-2.45,42.09-3.62,14.75-1.22,29.36-3.71,44.2-4.3,11.2-.44,21.57,1.13,32.35,2.64-10.89.13-21.52.91-32.31,2-6.54.66-13.14.7-19.66,1.38-5.69.59-11.31,1.48-17,2-11.53,1.14-23,1.87-34.56,2.61-9.18.58-18.54,1.08-27.73.86C105.72,117.7,99.25,117.31,92.47,115.6Z"/><path class="cls-6" d="M178.42,119.2c5.56-.09,11.3-1.14,16.69-1.8a178.27,178.27,0,0,1,25.22-1.17c3.84.08,7.79.18,11.66-.06,4.25-.27,8.1-1,12.16-1.67a139.21,139.21,0,0,1,19.16-1.1c.45,1.12-.81,2.34-.24,3.55s2.1,2.45,3.15,3.57c1.22,1.3,3.08,2.17,3.44,3.64-3.65-.32-7.17-1.44-10.81-1.93a92.78,92.78,0,0,0-13.26-.82c-5,0-10,.32-15,.34a142.72,142.72,0,0,1-16.06-1.19c-4.22-.48-8.28-1.08-12.65-1.28-3.5-.16-7.06-.15-10.59-.27C186.87,118.86,182.75,119.35,178.42,119.2Z"/><path class="cls-6" d="M220,81.52a1.25,1.25,0,0,1,.54-.3,7.52,7.52,0,0,1,5,.71,3.1,3.1,0,0,1,1.77,2.47c-.18,2.44-5.86.09-6.83-.93C220.07,83,219.53,82.06,220,81.52Z"/><path class="cls-6" d="M223.86,81.93c.4.12.76.25,1,.35,1.07.41,2,1,1.85,1.94-.22,1.11-3.66-.09-4.33-.41s-2.35-1.33-1.3-2A4,4,0,0,1,223.86,81.93Z"/><path class="cls-7" d="M265.84,111.69c-.06,2.16-.06,4.33.08,6.43a54.21,54.21,0,0,0,2.35,11.53c1.46,4.9,5.48,7.69,8.47,5.69a8.24,8.24,0,0,0,3.94-5.32c.34-1.16.34-2.48.67-3.57a12.52,12.52,0,0,0,.76-2.76c.28-2.91-.06-6,.29-8.87a43.41,43.41,0,0,0,.05-9.19c-.32-3.68-.75-7.83-2-11a18.33,18.33,0,0,0-2.2-3.74c-.66-1-.91-2.5-1.73-3.26-.51-.47-.76-1.18-1.33-1.52a3.12,3.12,0,0,0-2-.33c-1.48.11-3.11,1.56-4,3.44a31.26,31.26,0,0,0-2,7.92c-.48,3.13-1,6.41-1.16,9.64C266,108.36,265.89,110,265.84,111.69Z"/><path class="cls-9" d="M267.44,121.48a27.63,27.63,0,0,0,.85,3.59c.34,1.05.45,2.25.81,3.28a13.41,13.41,0,0,0,3.37,5.22c1.85,1.88,4.57.36,6.06-1.76a14.41,14.41,0,0,0,2-5.6,24.13,24.13,0,0,0,.77-3.89c.06-1.14.11-2.26.21-3.39.12-1.3.08-2.58.08-3.9s.25-2.44.31-3.68a38.61,38.61,0,0,0-.36-7.13,68,68,0,0,0-1.14-6.83,13.7,13.7,0,0,0-2.23-4.6,10.67,10.67,0,0,1-1.52-3c-.7-2-2.24-2.67-3.7-2a6.56,6.56,0,0,0-2.35,1.45A8.43,8.43,0,0,0,269.16,93c-.17.78-.22,1.63-.4,2.4s-.45,1.52-.6,2.35c-.3,1.76-.4,3.79-.66,5.6a65.34,65.34,0,0,0-.38,11.21c0,1.51,0,3,.09,4.5A13.83,13.83,0,0,0,267.44,121.48Z"/><path class="cls-10" d="M277.9,95.44a16.65,16.65,0,0,1,1.8,5.8c.19,2.11.64,4.21.75,6.33a87.37,87.37,0,0,1-.43,10.5,30.91,30.91,0,0,1-1.46,8.87,21.66,21.66,0,0,1-1.39,2.86c-.73,1.34-1.7,1.31-2.82,1.1a2.78,2.78,0,0,1-2.32-1.58,23,23,0,0,1-1.76-5.22,25.82,25.82,0,0,1-1.11-5.53c-.06-2,0-4-.1-6a60.09,60.09,0,0,1,.38-9.1,37.39,37.39,0,0,1,.34-4.64c.31-1.43.85-2.8,1.28-4.15.87-2.72,2.45-3.87,4.38-2.83a3.14,3.14,0,0,1,1.61,1.84C277.33,94.29,277.62,94.86,277.9,95.44Z"/><path class="cls-11" d="M275.65,97c1,1.14,1.66,3.56,2.06,4.86,1.38,4.52,1.14,10.18.83,15-.19,2.94-1,9.85-3.74,9.66s-3.43-7.18-3.65-10c-.37-5-.72-10.32.3-15.14a9.65,9.65,0,0,1,2.09-4.45A1.25,1.25,0,0,1,275.65,97Z"/><path class="cls-10" d="M275.17,101c1.53,1.42,1.86,5.41,2,7.67a29.91,29.91,0,0,1,0,6.62c-.33,2.41.15,5.54-1.77,6.85-1,.66-1.3-.22-1.75-1.39a13.26,13.26,0,0,1-.73-4.28,70.27,70.27,0,0,1,0-10.76C273.07,105,274,99.58,275.17,101Z"/><path class="cls-11" d="M275.42,106.29c.48.85.48,2.71.59,3.79s.14,2.17.15,3.28a15.16,15.16,0,0,1-.2,2.44,3.52,3.52,0,0,1-.33,1.49c-.32.35-.74-.25-.9-.7a13,13,0,0,1-.47-2.56,26.65,26.65,0,0,1,.16-5.86,4.62,4.62,0,0,1,.46-1.9C275.11,105.93,275.36,106,275.42,106.29Z"/><path class="cls-7" d="M276.06,89.19c-.07.12-.56,4-.84,6.5,0,0,.32-5.62.32-7.59S276.06,89.19,276.06,89.19Z"/><path class="cls-7" d="M269.59,89.84l1.9,9.8s-1.71-7.72-2.34-9.15Z"/><path class="cls-7" d="M281.6,101.21l.28,1.21s-1.22,2.38-1.89,2.7a12.07,12.07,0,0,0-2.15,2.18A32.4,32.4,0,0,1,281.6,101.21Z"/><path class="cls-5" d="M269,105.5a8.34,8.34,0,0,1,2.76,3.31A5.89,5.89,0,0,1,269,105.5Z"/><path class="cls-7" d="M272,134.88c.34-4.94,1.59-14.4,1.59-14.4s-.64,3.65-1.17,5.75S271,133.5,271,133.5Z"/><path class="cls-7" d="M268.46,128c0-.07.68-2.66.68-2.66l-1,2.28Z"/><path class="cls-7" d="M270.21,131.56a15.7,15.7,0,0,1,.64-2l-.42,2.8Z"/><path class="cls-7" d="M282.21,111.12v1.93a5.94,5.94,0,0,0-1.74-1.22C281.42,112,282.13,111,282.21,111.12Z"/><path class="cls-5" d="M279,124.11a57.17,57.17,0,0,0-2.94-9.78A39.43,39.43,0,0,0,279,124.11Z"/><path class="cls-5" d="M274.54,106.91c0,.24.74,3.37.8,4.42a18.64,18.64,0,0,0,1.25,1.43,9.44,9.44,0,0,1-1.63-.13l-1.34,1.43,1.14-2.89Z"/><path class="cls-5" d="M276,98.3a33,33,0,0,1-.66,6A30.46,30.46,0,0,1,276,98.3Z"/><polygon class="cls-7" points="266.9 116.76 269.15 116.24 266.85 118.09 266.9 116.76"/><path class="cls-7" d="M267.35,99.62a25.47,25.47,0,0,1,1.68,2.57l-2-1.44Z"/><polygon class="cls-7" points="273.18 86.16 273.36 91.82 272.69 86.17 273.18 86.16"/><path class="cls-7" d="M279.73,94.25,280,95.4s-.69,1.55-.69,1.54S279.73,94.25,279.73,94.25Z"/><path class="cls-7" d="M278,134.38l-.48.31-.31-5.35S277.88,134,278,134.38Z"/><path class="cls-7" d="M281.94,122.35l-.08,1.49-1.35-2.24A10.56,10.56,0,0,0,281.94,122.35Z"/><path class="cls-5" d="M274.93,124.25a44.67,44.67,0,0,1,.11,7.14A41.65,41.65,0,0,1,274.93,124.25Z"/><path class="cls-5" d="M278.61,115.92s1.16,0,2.23,2A4.76,4.76,0,0,1,278.61,115.92Z"/><path class="cls-5" d="M49.41,254.87c.33,0,.65,0,1,0h0a18.23,18.23,0,0,0,3.2-.43,16.46,16.46,0,0,0,9.88-6c2.35-2.84,2.12-7.47,2.47-11.64.84-10,.77-20.33,2.06-30.24,1.75-13.46.08-27.29,1.56-40.83q.14-1.19.24-2.37c0-.61.1-1.21.14-1.81q.13-1.81.24-3.63l.09-1.82c.15-2.9.26-5.81.4-8.72l.12-2.54.09-1.58L71,141.7c0-.53.07-1.06.11-1.58.53-7.41,1.66-14.71,2.25-22.11.45-5.84,0-11.73,0-17.57,0-1.56.08-3.11.17-4.65l.06-.93c0-.31,0-.61.07-.92s0-.61.07-.92l.12-1.36.09-.84c0-.44.08-.88.13-1.33,0-.08,0-.15,0-.23.06-.52.11-1,.17-1.54.07-.68.15-1.37.23-2,0,0,0-.09,0-.14,0-.31.07-.63.11-.94.08-.74.16-1.49.22-2.25l.06-.83c0-.23,0-.47,0-.7l.06-.8.06-1.17c0-.78.08-1.57.11-2.36v-.19c0-.64,0-1.28.07-1.92l0-.69.06-2v-.06c0-.79.05-1.58.08-2.35s.05-1.45.09-2.16c0-.43,0-.84.06-1.26,0-.14,0-.28,0-.42l-3.75-.08-43.24-.92-1.71,0c-.09,15.87,1.4,32.71.66,48.65,0,.12,0,.24,0,.36-1.31-2.16-1.42-5.7-2.84-7.63-1.14-1.55-2,.27-3.45,1.88-1.14,1.3-.75,3.1-.41,4.94.63,3.42,1.7,6.65,2.52,10,0,.14.06.29.1.44.17.7.33,1.41.49,2.12A208.05,208.05,0,0,1,28.52,163c.4,11,1,21.89,1.31,32.84q.12,3.67.19,7.36v.34c.07,3.88.32,7.61.59,11.47.51,7.13.59,14.29.91,21.44,0,.3,0,.62,0,.94,0,.64,0,1.33,0,2,0,.32,0,.64,0,1l0,.59c0,.19,0,.38,0,.58q0,.59.12,1.17a2.17,2.17,0,0,1,0,.25c0,.09,0,.18.05.27a2.61,2.61,0,0,0,.06.27,2.56,2.56,0,0,0,.05.27c0,.17.09.34.14.51s0,.16.08.25a1.55,1.55,0,0,0,.08.23l.09.24a2.14,2.14,0,0,0,.1.22l.1.21c2.51,4.81,6.95,7.22,11,8.48l1,.27c.46.13.92.24,1.39.33l.79.14c.14,0,.29,0,.44.06s.44.06.66.08C48.36,254.82,48.89,254.86,49.41,254.87Z"/><path class="cls-6" d="M24.32,125.89c-.12-.22-.23-.45-.34-.68A208.05,208.05,0,0,1,28.52,163c.4,11,1,21.89,1.31,32.84-.08-11.57.73-23.09.59-34.68C30.26,149.76,29.45,135.27,24.32,125.89Z"/><path class="cls-6" d="M46,254.18h.13a18.11,18.11,0,0,0,3.2-.43,16.47,16.47,0,0,0,9.88-6c2.35-2.85,2.12-7.47,2.47-11.65.84-10,.77-20.32,2.06-30.24,1.75-13.46.08-27.28,1.56-40.83q.14-1.18.24-2.37c0-.6.1-1.21.14-1.81q.14-1.81.24-3.63l.09-1.81c.15-2.91.27-5.82.4-8.73l.12-2.54.09-1.58c0-.53.06-1,.1-1.58s.06-1.05.1-1.58c.53-7.41,1.66-14.71,2.25-22.11.46-5.84,0-11.73,0-17.57,0-1.56.08-3.1.17-4.65l.06-.92c0-.31,0-.62.07-.93s.05-.61.07-.92.08-.91.13-1.36c0-.28,0-.56.08-.83,0-.45.08-.9.13-1.34a1.79,1.79,0,0,0,0-.23c.06-.51.11-1,.17-1.53.08-.69.15-1.37.23-2.06,0,0,0-.09,0-.14,0-.31.07-.62.1-.94.09-.73.16-1.49.22-2.25,0-.28.05-.55.07-.83s0-.46,0-.7,0-.53.06-.79l.06-1.18c0-.78.08-1.57.11-2.36v-.18c0-.64,0-1.28.07-1.92l0-.7L71.12,71V71c0-.8,0-1.58.08-2.36s0-1.45.09-2.16l.06-1.25-1.91-.08v0A51.59,51.59,0,0,1,68.52,71a2.21,2.21,0,0,0,0,.25c-.06.28-.11.55-.15.8l-.14.79c-.72,4-1.51,8-2.16,12.1-2.38,15-2.55,30.48-2.81,45.67-.09,5.11.31,12.11-.94,17-1.16,4.53-3.24-1.2-3.87-3.5-.35-1.32-.55-4.19-1.79-4.59-2.24-.71-2.59,4.69-3,6.53a158.24,158.24,0,0,0-3.37,30.42c-.08,8.29.06,16.57-.39,24.86-.24,4.62-1,9.24-1.61,13.8-.57,4.34-.58,9.71-2.23,13.63-.87,2.07-2.44,4.15-4.23,2.61-2-1.75-1.2-6.73-1.24-9.34-.15-9.22,1.86-18.7.68-27.84-.25-2-.44-5.33-2.3-4C37.83,191,37.37,194.7,37,196a71,71,0,0,0-1.78,9.21c-.48,3.76-1.19,7.55-1.5,11.32-.36,4.43-1.14.16-1.43-4.12-1-15.61-1.33-22.18-1.31-27.3.14-37-5.08-52.17-5.1-49.77,0,1.62,0,51.61,0,51.72.27,11.13.12,23.34.39,27.2.51,7.13.59,14.3.91,21.45q0,.45,0,.93c0,.65,0,1.33,0,2,0,.32,0,.64,0,1s0,.4,0,.59,0,.39,0,.58c0,.4.07.79.13,1.17a1.87,1.87,0,0,0,0,.25c0,.09,0,.19,0,.28l.06.27c0,.08,0,.17,0,.26s.09.34.14.51.05.16.08.25A2.25,2.25,0,0,0,28,244l.09.23c0,.08.07.15.1.23l.1.21c2.51,4.81,7,7.22,11,8.47q.48.15,1,.27c.46.13.92.24,1.39.33l.79.14.44.07.66.07q.8.09,1.59.12Z"/><path class="cls-6" d="M28.77,114.67c.43-8.69.31-17.55.36-26.27,0-6.36.52-12.42,0-18.8-.15-1.71-.32-3.42-.49-5.12l-1.71,0c-.09,15.87-.74,21.86-.11,47.3A4.9,4.9,0,0,0,28.77,114.67Z"/><path class="cls-7" d="M50.3,254.89h.13a18.23,18.23,0,0,0,3.2-.43c3.88-.86,8.1-2.28,11.45-5,2.82-2.32,4.44-7.46,4.69-11.51.89-14.14.29-21.49.63-31.33.47-13.65.31-19.32,1.29-34.09,0-.8-.27-7.13-.2-7.92.05-.61-.16-4.1-.11-4.7.09-1.21,0-1.83,0-3,0-.6,0-2.3,0-2.9.15-2.91.11-4,.25-6.95,0-.84,0-2.06,0-2.9,0-.53,0-1.32,0-1.84s-.18-1.17-.15-1.7.2-2.31.24-2.84c.53-7.41,1-12.28,1.55-19.68.45-5.84,0-11.73,0-17.57,0-1.56.08-3.11.17-4.65l.06-.93c0-.31,0-.61.07-.92s0-.61.07-.92l.12-1.36.09-.84c0-.44.08-.88.13-1.33,0-.08,0-.15,0-.23.06-.52.11-1,.17-1.54.07-.68.12-1,.26-1.75.07-.25.12-.4.13-.44.12-.47.19-1.06.24-1.37a59,59,0,0,0,.5-7.7l0-.43a11.67,11.67,0,0,0,.15-1.38c.11-3.5-.27-5.39,0-8.71l-1.92-.08-.88,0a54.91,54.91,0,0,1-.89,5.85,9.57,9.57,0,0,1,.5,1.79v.06a35.86,35.86,0,0,1,.47,4.76c.19,6-1,11.93-1.16,17.94C71.57,103,71.38,110.47,71,119c-.32,7.76-1.72,15.35-1.91,23.14a100.31,100.31,0,0,1-.65,10.93c-.57,4.42-.4,8.82-.69,13.26-.47,7.52-1.17,14.88-2.1,22.33-.34,2.73-.61,5.5-1,8.23-.28,2.27-.08,8.15-1.46,9.78-1.11,1.32-1.34-.6-1.56-2.24-.42-3.14-.23-6.37-.37-9.54-.26-6.44-1.12-12.77-1.21-19.26-.14-9.59-.68-19.11-.52-28.63-.23,13.48-1.73,15.47-2.1,23.39-.31,6.77-.12,13.52-.17,20.3-.09,11.75-1,23.23-1.82,34.9-.34,4.69-.07,19.08-5.89,17.7-2.35-.56-3.75-3.33-4.7-6.11-3.11-9.11-3.4-22.37-3.42-32.12-1.35,13.93-.94,15-1.42,21.14-.43,5.57,1.13,16.53-4.38,17.32a32.31,32.31,0,0,1-5.08-.45c-4.81.29.47,5.34.5,5.4,4.39,4.35,8.59,5.18,12.28,5.72.32.05.87.07,1.19.15s.88,0,1.35.13l.79.14c.14,0,.29,0,.44.06s.44.06.66.08c.53.06,1.06.1,1.58.11C49.71,254.89,50,254.89,50.3,254.89Z"/><path class="cls-8" d="M34.71,81.39c0,.85.07,1.71.12,2.14.17,1.73.32,3.46.35,5.2,0,3.09.18,6.17.16,9.26-.06,11.57-.05,23.23-.45,34.78-.37,10.42-1.27,20.82-1.31,31.25,0,7.83-.3,16.16,1.48,23.71-.39-1.67.13-4.73.19-6.51.07-2.4.17-4.81.37-7.2.37-4.54,1.51-8.76,2.15-13.22.88,1.16.82,3.76,1,5.32a58.24,58.24,0,0,1-.38,13.9c-.69,5.15-1.94,10.07-2.19,15.32-.22,4.41-.7,10.87.32,15.08-.3-1.23.39-3.91.59-5.16.26-1.71.58-3.4.93-5.07.71-3.36,1.55-6.66,2.33-10a108.72,108.72,0,0,0,3.08-19.89,54.42,54.42,0,0,0-.7-10.37q-1.27-8.43-2-17c-.51-6.34-.64-12.74-.61-19.11s.53-12.94.74-19.42a78.59,78.59,0,0,1,.76-8.68c.22-1.54.6-7.3,1.58-8.2-2.74,2.51-4.31,9.59-4.44,14a68.15,68.15,0,0,0-.42-7.37c-.45-5-1.54-11.21-4-15A6.49,6.49,0,0,1,34.71,81.39Z"/><path class="cls-8" d="M49.12,223.14c.73-9.55-.1-19.31-.06-28.9,0-12.36-1.36-24.4-2-36.69-.65-12.85-2.54-25.62-2.56-38.52,0-9.76,1.89-18.71,3.75-28-.27,9.46.09,18.72.75,28.13.4,5.7.2,11.44.62,17.12.36,5,1,9.88,1.35,14.85.68,10,1,20,1.27,30.1.23,8,.37,16.14-.18,24.12C51.65,211.71,51,217.32,49.12,223.14Z"/><path class="cls-6" d="M55.78,148.61c.11-4.84-.7-9.86-1.14-14.57a139.69,139.69,0,0,1-.21-21.94c.22-3.34.46-6.76.37-10.13a99.11,99.11,0,0,0-1.17-10.62,107.55,107.55,0,0,1-.37-16.68c1.1-.35,2.24.79,3.45.32a17.09,17.09,0,0,0,3.57-2.61c1.32-1,2.23-2.61,3.67-2.88-.44,3.17-1.67,6.19-2.27,9.34A71.51,71.51,0,0,0,60.4,90.32c-.15,4.36-.06,8.72-.23,13.07a108.7,108.7,0,0,1-1.75,13.92c-.61,3.65-1.34,7.15-1.7,10.94-.29,3-.41,6.13-.65,9.19C55.76,141.25,56.09,144.85,55.78,148.61Z"/><path class="cls-6" d="M20.7,111.23a1,1,0,0,1-.27-.48,5.94,5.94,0,0,1,.87-4.32A3.11,3.11,0,0,1,23.76,105c2.37.24-.13,5.1-1.15,5.91C22.16,111.24,21.21,111.67,20.7,111.23Z"/><path class="cls-6" d="M21.24,107.91c.13-.34.27-.66.38-.89.43-.91,1.1-1.72,1.95-1.54,1.07.23-.22,3.18-.56,3.75s-1.38,2-1.94,1.07A3.08,3.08,0,0,1,21.24,107.91Z"/><path class="cls-7" d="M51.91,71.69c2.12.11,4.27.17,6.34.13a68,68,0,0,0,11.46-1.44c4.89-.95,7.79-3.9,5.93-6.22A8,8,0,0,0,70.54,61c-1.13-.29-2.43-.34-3.49-.62a16.31,16.31,0,0,0-2.69-.65c-2.86-.3-5.89-.13-8.74-.48A55.64,55.64,0,0,0,46.56,59a51.74,51.74,0,0,0-11,1.2,20.26,20.26,0,0,0-3.78,1.54c-1,.47-2.5.62-3.28,1.21-.48.37-1.19.54-1.55,1a1.91,1.91,0,0,0-.39,1.49c0,1.12,1.42,2.4,3.24,3.11a37.19,37.19,0,0,0,7.73,1.72c3.07.46,6.29.93,9.47,1.16C48.63,71.49,50.26,71.6,51.91,71.69Z"/><path class="cls-9" d="M61.62,70.77a35.6,35.6,0,0,0,3.57-.53c1-.23,2.24-.28,3.27-.52a14.34,14.34,0,0,0,5.27-2.39c1.93-1.34.54-3.43-1.51-4.62A16.68,16.68,0,0,0,66.78,61a31.24,31.24,0,0,0-3.8-.7c-1.13-.07-2.23-.14-3.34-.25-1.28-.13-2.55-.13-3.84-.18s-2.4-.26-3.62-.34a50.26,50.26,0,0,0-7,.06c-2.22.17-4.64.32-6.77.66a15.54,15.54,0,0,0-4.63,1.55,12.52,12.52,0,0,1-3,1c-2,.47-2.73,1.61-2.13,2.74a4.74,4.74,0,0,0,1.34,1.81,10,10,0,0,0,3.66,1.22c.77.15,1.61.22,2.36.37s1.47.39,2.29.52c1.72.28,3.72.42,5.5.67a83.8,83.8,0,0,0,11,.62c1.5,0,3,.06,4.45.06A19,19,0,0,0,61.62,70.77Z"/><path class="cls-10" d="M36.34,62.11a20.41,20.41,0,0,1,5.79-1.19c2.08-.08,4.17-.35,6.27-.38,3.47,0,6.93.36,10.33.64a39.09,39.09,0,0,1,8.7,1.36,26.19,26.19,0,0,1,2.77,1.13,1.52,1.52,0,0,1,1,2.16,2.22,2.22,0,0,1-1.65,1.71,27.58,27.58,0,0,1-5.22,1.17,32.57,32.57,0,0,1-5.49.68c-2,0-3.92-.16-5.89-.1a78.83,78.83,0,0,1-9-.56,45.7,45.7,0,0,1-4.56-.4c-1.4-.27-2.72-.72-4-1.08-2.65-.74-3.73-2-2.63-3.39a3.06,3.06,0,0,1,1.88-1.16Z"/><path class="cls-11" d="M37.76,63.85a19.28,19.28,0,0,1,4.87-1.41c4.51-.91,10.09-.56,14.82-.18,2.89.23,9.67,1,9.38,3.1s-7.21,2.38-10,2.46c-4.9.13-10.2.24-14.91-.67a10.8,10.8,0,0,1-4.32-1.71C36.8,64.81,37,64.28,37.76,63.85Z"/><path class="cls-10" d="M41.74,64.34c1.47-1.12,5.41-1.25,7.65-1.32a39.47,39.47,0,0,1,6.53.18c2.36.32,5.47,0,6.68,1.54.62.75-.26,1-1.43,1.28a17.37,17.37,0,0,1-4.25.43,93.8,93.8,0,0,1-10.61-.34C45.58,66,40.27,65.17,41.74,64.34Z"/><path class="cls-11" d="M46.94,64.3A15.49,15.49,0,0,1,50.7,64c1.09,0,2.15,0,3.24,0a20.93,20.93,0,0,1,2.41.23,4.1,4.1,0,0,1,1.45.29c.34.25-.28.55-.72.66a15.81,15.81,0,0,1-2.55.27,33.56,33.56,0,0,1-5.77-.29,5.49,5.49,0,0,1-1.85-.4C46.57,64.52,46.62,64.34,46.94,64.3Z"/><path class="cls-7" d="M30.11,63.31c.11.06,4,.54,6.37.83,0,0-5.52-.41-7.47-.47S30.11,63.31,30.11,63.31Z"/><path class="cls-7" d="M30.5,68.21l9.74-1.14s-7.68,1.06-9.12,1.49Z"/><path class="cls-7" d="M42.17,59.49l1.2-.18s2.31,1,2.59,1.51A10.63,10.63,0,0,0,48,62.51,34.08,34.08,0,0,1,42.17,59.49Z"/><path class="cls-5" d="M45.92,69.12a8,8,0,0,1,3.37-2S48.6,68.35,45.92,69.12Z"/><path class="cls-7" d="M75,67.72c-4.86-.41-14.14-1.63-14.14-1.63s3.58.59,5.62,1,7.12,1.32,7.12,1.32Z"/><path class="cls-7" d="M68.12,70.19c-.07,0-2.6-.59-2.6-.59l2.21.83Z"/><path class="cls-7" d="M71.66,69c-.38,0-2-.55-2-.55l2.74.4Z"/><path class="cls-7" d="M52,59.32l1.89.06a4.74,4.74,0,0,0-1.26,1.28C52.81,60,51.88,59.38,52,59.32Z"/><path class="cls-5" d="M64.65,62.16a71.2,71.2,0,0,0-9.75,1.92A49.26,49.26,0,0,0,64.65,62.16Z"/><path class="cls-5" d="M47.52,65c.24,0,3.35-.45,4.39-.47,0,0,1.33-.76,1.45-.9s-.18,1.22-.18,1.22l1.36,1.06-2.8-1Z"/><path class="cls-5" d="M39.08,63.64a42.65,42.65,0,0,1,5.94.68A38.48,38.48,0,0,1,39.08,63.64Z"/><polygon class="cls-7" points="56.95 71.04 56.52 69.32 58.26 71.12 56.95 71.04"/><path class="cls-7" d="M40.07,70.19A27,27,0,0,1,42.67,69l-1.5,1.45Z"/><polygon class="cls-7" points="27.01 65.4 32.6 65.43 27 65.76 27.01 65.4"/><path class="cls-7" d="M35.23,60.69l1.15-.13,1.49.57S35.23,60.69,35.23,60.69Z"/><path class="cls-7" d="M74.74,63.21l.29.37-5.29.08S74.34,63.26,74.74,63.21Z"/><path class="cls-7" d="M63,59.86,64.5,60l-2.27,1A8.38,8.38,0,0,0,63,59.86Z"/><path class="cls-5" d="M64.63,65.2a57.13,57.13,0,0,1,7.05.13A52.82,52.82,0,0,1,64.63,65.2Z"/><path class="cls-5" d="M56.56,62.18s0-.88,2-1.63A4.15,4.15,0,0,1,56.56,62.18Z"/><path class="cls-5" d="M20.82,237.35c0,.3,0,.6,0,.89v0a19.4,19.4,0,0,0,.43,2.92,15.44,15.44,0,0,0,5.2,8.91c2.42,2.1,6.26,1.79,9.74,2,8.34.56,16.92.28,25.19,1.26,11.23,1.32,22.69-.49,34,.58.66.06,1.32.12,2,.16l1.51.1c1,.06,2,.1,3,.14l1.52.05,7.26.18,2.11.06,1.32.05,1.32.05,1.31.07c6.18.33,12.27,1.21,18.44,1.59,4.86.3,9.75-.25,14.61-.32q1.93,0,3.87.06l.77,0,.77,0,.77.05,1.13.09.7.05,1.11.1h.2l1.27.12,1.72.17h.11l.79.08c.61.06,1.24.11,1.87.15l.7.05.58,0,.66,0,1,0,2,0h.16l1.6,0h2.24l2,0,1.8,0,1.05,0h.35l0-3.43-.2-39.61v-1.56c-13.19.24-27.17,1.95-40.44,1.61h-.29c1.76-1.24,4.7-1.42,6.28-2.76,1.26-1.07-.28-1.85-1.65-3.12-1.1-1-2.59-.62-4.11-.27-2.83.65-5.5,1.69-8.27,2.51l-.36.11-1.76.49a157.82,157.82,0,0,1-31.29,4.94c-9.12.6-18.17,1.34-27.27,1.88-2,.12-4.08.24-6.12.33h-.28c-3.22.15-6.32.46-9.53.79-5.91.61-11.87.83-17.81,1.28l-.78,0-1.68.07-.8,0-.49,0-.48.05c-.33,0-.65.08-1,.14l-.21,0-.22,0-.23.05-.22.06-.42.14-.2.07-.2.08-.19.09-.19.1-.17.1c-3.94,2.39-5.85,6.51-6.8,10.24-.07.29-.14.59-.2.88s-.18.85-.24,1.28c0,.24-.08.49-.1.73s0,.27-.05.41,0,.4-.05.6C20.84,236.39,20.83,236.87,20.82,237.35Z"/><path class="cls-6" d="M127.52,211.7a6.16,6.16,0,0,1,.55-.33,157.82,157.82,0,0,1-31.29,4.94c-9.12.6-18.17,1.34-27.27,1.88,9.62-.31,19.22.19,28.84-.18C107.8,217.63,119.83,216.59,127.52,211.7Z"/><path class="cls-6" d="M21.33,234.25v.12a19.22,19.22,0,0,0,.43,2.92,15.44,15.44,0,0,0,5.2,8.92c2.42,2.09,6.26,1.79,9.74,2,8.35.56,16.92.28,25.19,1.25,11.24,1.32,22.69-.49,34,.59l2,.16,1.5.1,3,.14,1.52.05,7.26.18c.71,0,1.41,0,2.11.06l1.32,0,1.32.06,1.31.06c6.18.33,12.27,1.22,18.44,1.6,4.87.3,9.75-.25,14.61-.32,1.3,0,2.58,0,3.87.06l.77,0,.77,0,.77,0,1.14.08.69.06,1.11.09.2,0,1.27.12,1.72.17h.11l.79.08c.61.06,1.24.11,1.87.15l.7,0c.19,0,.38,0,.58,0l.66,0,1,0,2,.05h.16l1.6,0h2.25l2,0,1.79,0c.36,0,.7,0,1,0l0-1.75h0a37.74,37.74,0,0,1-4.85-.72l-.22,0-.66-.12-.66-.11c-3.38-.57-6.72-1.22-10.12-1.72-12.49-1.87-25.4-1.71-38-1.63-4.26,0-10.07.54-14.16-.5-3.79-1,.92-3,2.83-3.61,1.08-.36,3.47-.6,3.77-1.74.54-2.07-4-2.27-5.5-2.58a120.17,120.17,0,0,0-25.36-2.45c-6.9.1-13.79.4-20.68.17-3.85-.13-7.72-.75-11.52-1.2-3.62-.42-8.09-.32-11.38-1.75-1.74-.76-3.51-2.14-2.26-3.82,1.4-1.88,5.56-1.24,7.74-1.33,7.66-.33,15.58,1.32,23.16,0,1.63-.28,4.42-.52,3.25-2.2-.72-1-3.79-1.36-4.88-1.64a56.77,56.77,0,0,0-7.7-1.43c-3.13-.36-6.3-.93-9.44-1.13-3.69-.24-.17-1,3.39-1.4,13-1.26,18.42-1.68,22.67-1.77,30.78-.64,43.27-5.74,41.28-5.71-1.36,0-42.92,1.12-43,1.13-9.24.48-19.4.59-22.61.92-5.91.62-11.87.84-17.81,1.28l-.77,0-1.69.07-.8,0-.49,0-.48.05c-.32,0-.65.08-1,.13l-.21.05-.22,0-.23.06-.22.06-.42.13-.2.08-.2.08-.19.09-.18.1-.18.09c-3.94,2.4-5.85,6.52-6.8,10.25-.07.29-.14.58-.2.88s-.18.85-.24,1.28c0,.24-.07.48-.1.72s0,.28,0,.41,0,.4-.05.61c0,.48-.05,1-.06,1.45C21.31,233.71,21.32,234,21.33,234.25Z"/><path class="cls-6" d="M137,215.53c7.23.21,14.6-.08,21.85-.22,5.29-.1,10.34.22,15.63-.39,1.42-.16,2.84-.35,4.25-.55v-1.56c-13.19.24-18.19-.23-39.33.88A4.11,4.11,0,0,0,137,215.53Z"/><path class="cls-7" d="M20.83,238.16s0,.06,0,.08v0a19.4,19.4,0,0,0,.43,2.92,26.19,26.19,0,0,0,4.44,10.37c2,2.54,6.31,3.91,9.68,4.06,11.78.52,17.88-.18,26.07-.08,11.36.14,16.07-.12,28.38.47.66,0,5.92-.39,6.58-.34.5,0,3.4-.24,3.9-.21,1,.06,1.52-.07,2.53,0,.5,0,1.91,0,2.41,0,2.43.08,3.36,0,5.79.08.7,0,1.71-.06,2.41,0,.44,0,1.1-.05,1.53,0s1-.19,1.41-.17l2.37.16c6.17.33,10.23.62,16.4,1,4.86.3,9.75-.25,14.61-.32q1.93,0,3.87.06l.77,0,.77,0,.77.05,1.13.09.7.05,1.11.1h.2l1.27.12c.57.06.83.1,1.46.2a2.64,2.64,0,0,0,.38.11,9.54,9.54,0,0,0,1.14.2,45.23,45.23,0,0,0,6.41.29l.36,0a7.82,7.82,0,0,0,1.15.11c2.92,0,4.48-.36,7.25-.22l0-1.75v-.82a40.37,40.37,0,0,1-4.88-.69,7.57,7.57,0,0,1-1.48.5h-.05a27.57,27.57,0,0,1-3.95.53c-5,.29-9.94-.69-14.94-.69-5.64,0-11.86,0-19-.18-6.46-.13-12.8-1.26-19.28-1.26a77.28,77.28,0,0,1-9.11-.37c-3.68-.43-7.33-.19-11-.35-6.27-.28-12.41-.77-18.62-1.46-2.28-.26-4.58-.45-6.87-.71-1.89-.21-6.78.09-8.16-1.13-1.12-1,.47-1.24,1.83-1.48,2.6-.45,5.29-.34,7.92-.53,5.35-.38,10.6-1.29,16-1.52,8-.32,15.88-1,23.8-1.07-11.21.07-12.9-1.26-19.49-1.43-5.64-.15-11.25.17-16.88.26-9.78.17-19.34-.4-29.07-.94-3.91-.21-15.87.34-14.85-5,.42-2.16,2.68-3.5,5-4.43,7.51-3,18.54-3.58,26.64-3.8-11.61-.94-12.5-.55-17.61-.86-4.64-.27-13.72,1.38-14.5-3.65a32.36,32.36,0,0,1,.26-4.66c-.35-4.4-4.43.54-4.48.58-3.52,4.11-4.12,8-4.48,11.35,0,.3,0,.8-.1,1.1s0,.8-.07,1.23c0,.24-.08.49-.1.73s0,.27-.05.41,0,.4-.05.6c0,.49-.05,1-.06,1.45C20.82,237.62,20.82,237.89,20.83,238.16Z"/><path class="cls-8" d="M164.76,220.28c-.71.07-1.43.1-1.79.15-1.43.2-2.87.37-4.31.43-2.57.11-5.12.3-7.7.34-9.62.18-19.31.44-28.93.31-8.67-.11-17.34-.72-26-.54-6.51.13-13.44.06-19.67,1.85,1.37-.4,3.93,0,5.41,0,2,0,4,.05,6,.19,3.78.25,7.32,1.2,11,1.69-1,.83-3.11.83-4.4,1a44.37,44.37,0,0,1-11.57-.05c-4.29-.53-8.42-1.57-12.79-1.7-3.67-.1-9.05-.41-12.53.61,1-.29,3.26.28,4.31.43,1.42.21,2.83.47,4.23.75,2.81.58,5.57,1.28,8.36,1.93A83,83,0,0,0,91,230.12a41.43,41.43,0,0,0,8.61-.85c4.65-.9,9.36-1.64,14.09-2.18,5.26-.6,10.58-.86,15.88-1s10.78.21,16.16.27a58.32,58.32,0,0,1,7.24.51c1.29.17,6.09.4,6.85,1.27-2.14-2.45-8.06-3.74-11.71-3.77a50.91,50.91,0,0,0,6.11-.53c4.12-.52,9.3-1.65,12.4-4A4.73,4.73,0,0,1,164.76,220.28Z"/><path class="cls-8" d="M47.2,236.43c8,.46,16.06-.5,24-.67,10.27-.21,20.25-1.75,30.46-2.57,10.67-.85,21.24-2.85,32-3.14,8.1-.21,15.59,1.35,23.38,2.85a214.66,214.66,0,0,0-23.38,1.28c-4.73.48-9.5.42-14.22.92-4.12.43-8.19,1.14-12.32,1.55-8.34.83-16.63,1.3-25,1.78a189.09,189.09,0,0,1-20.06.34C56.77,238.5,52.09,238.06,47.2,236.43Z"/><path class="cls-6" d="M109.33,241c4,0,8.18-.85,12.08-1.35a104,104,0,0,1,18.25-.64c2.78.12,5.63.28,8.43.12a76.41,76.41,0,0,0,8.8-1.29,81.78,81.78,0,0,1,13.87-.69c.31,1-.61,2.07-.2,3.16a16.18,16.18,0,0,0,2.26,3.23c.88,1.18,2.22,2,2.47,3.3-2.64-.35-5.18-1.4-7.81-1.9a55.75,55.75,0,0,0-9.58-.93c-3.62,0-7.25.13-10.87.07a83.45,83.45,0,0,1-11.62-1.31c-3-.49-6-1.09-9.13-1.34-2.54-.2-5.11-.24-7.66-.4C115.45,240.8,112.46,241.17,109.33,241Z"/><path class="cls-6" d="M142.4,208.5c.29.11.55.23.74.32.77.39,1.46,1,1.33,1.76-.17,1-2.65-.14-3.13-.43s-1.69-1.23-.93-1.75A2.31,2.31,0,0,1,142.4,208.5Z"/><path class="cls-7" d="M173.38,235.77c0,1.91,0,3.84,0,5.71a75.76,75.76,0,0,0,1.29,10.28c.8,4.37,3,6.93,4.67,5.22,1-1.07,1.68-2,2.17-4.65.19-1,.19-2.19.37-3.15a16.33,16.33,0,0,0,.42-2.43c.16-2.58,0-5.3.17-7.87a63.42,63.42,0,0,0,0-8.16,56.91,56.91,0,0,0-1.11-9.82,19.7,19.7,0,0,0-1.21-3.37,20.44,20.44,0,0,0-.95-2.92,9.83,9.83,0,0,0-.73-1.38,1.2,1.2,0,0,0-1.1-.33c-.81.06-1.71,1.32-2.2,3a41.65,41.65,0,0,0-1.09,7c-.26,2.77-.54,5.67-.64,8.53C173.46,232.82,173.41,234.29,173.38,235.77Z"/><path class="cls-9" d="M174.26,244.49c.13,1.15.25,2.12.46,3.2s.25,2,.45,2.93a14.46,14.46,0,0,0,1.85,4.7c1,1.71,2.52.41,3.34-1.45a17.51,17.51,0,0,0,1.13-4.92,30.62,30.62,0,0,0,.42-3.43c0-1,.06-2,.12-3,.07-1.16,0-2.29.05-3.46s.14-2.16.17-3.26a53.72,53.72,0,0,0-.2-6.34c-.17-2-.33-4.17-.62-6.08a16.43,16.43,0,0,0-1.23-4.13,12.72,12.72,0,0,1-.83-2.7c-.39-1.81-1.23-2.42-2-1.86a3.69,3.69,0,0,0-1.3,1.24,10.62,10.62,0,0,0-.81,3.31c-.09.7-.12,1.45-.22,2.13s-.25,1.33-.33,2.07c-.17,1.55-.23,3.35-.37,5a93.45,93.45,0,0,0-.22,9.93c0,1.35,0,2.65,0,4A19,19,0,0,0,174.26,244.49Z"/><path class="cls-10" d="M180,221.59a22.57,22.57,0,0,1,1,5.19c.1,1.87.35,3.75.41,5.63.1,3.12-.12,6.24-.24,9.3a43.06,43.06,0,0,1-.82,7.85,24.86,24.86,0,0,1-.76,2.51c-.41,1.18-.94,1.12-1.56.92s-.91-.36-1.27-1.45a29.35,29.35,0,0,1-1-4.67,35.19,35.19,0,0,1-.61-4.92c0-1.77,0-3.54-.05-5.3-.12-2.56.08-5.56.21-8.08.07-1.35,0-2.8.19-4.11s.47-2.46.71-3.65c.48-2.4,1.35-3.39,2.41-2.43a2.87,2.87,0,0,1,.89,1.67C179.73,220.56,179.89,221.07,180,221.59Z"/><path class="cls-11" d="M178.8,222.9a20.54,20.54,0,0,1,1.13,4.36c.76,4,.62,9.06.45,13.32-.11,2.6-.55,8.71-2.07,8.5s-1.89-6.44-2-9a78.06,78.06,0,0,1,.17-13.43,11.1,11.1,0,0,1,1.15-3.91C178.08,222.05,178.47,222.27,178.8,222.9Z"/><path class="cls-10" d="M178.53,226.49c.85,1.3,1,4.84,1.12,6.85a42.74,42.74,0,0,1,0,5.88c-.19,2.13.08,4.92-1,6-.54.57-.72-.22-1-1.26a18.87,18.87,0,0,1-.4-3.82c-.09-3.18-.18-6.4,0-9.55C177.37,230,177.89,225.19,178.53,226.49Z"/><path class="cls-11" d="M178.66,231.17a16.74,16.74,0,0,1,.33,3.37c.06,1,.08,1.93.08,2.92,0,.78,0,1.42-.11,2.16a4.6,4.6,0,0,1-.19,1.32c-.17.3-.41-.24-.49-.64A18,18,0,0,1,178,238a39,39,0,0,1,.09-5.19,6.24,6.24,0,0,1,.26-1.68C178.5,230.84,178.63,230.88,178.66,231.17Z"/><path class="cls-7" d="M179,216c0,.1-.31,3.58-.47,5.75,0,0,.18-5,.18-6.73S179,216,179,216Z"/><path class="cls-7" d="M175.46,216.46l1,8.73s-.94-6.88-1.28-8.17Z"/><path class="cls-7" d="M182.08,226.79l.15,1.07a9.7,9.7,0,0,1-1,2.37,9.22,9.22,0,0,0-1.18,1.88A32.85,32.85,0,0,1,182.08,226.79Z"/><path class="cls-5" d="M175.13,230.34a7.64,7.64,0,0,1,1.52,3S175.75,232.73,175.13,230.34Z"/><path class="cls-7" d="M176.77,256.47c.2-4.38.89-12.75.89-12.75s-.35,3.23-.65,5.08-.81,6.43-.81,6.43Z"/><path class="cls-7" d="M174.82,250.33c0-.07.37-2.35.37-2.35l-.55,2Z"/><path class="cls-7" d="M175.78,253.49c0-.35.35-1.77.35-1.77l-.23,2.47Z"/><path class="cls-7" d="M182.4,235.6v1.7a3.86,3.86,0,0,0-1-1.11C182,236.37,182.36,235.52,182.4,235.6Z"/><path class="cls-5" d="M180.61,247.05a76.73,76.73,0,0,0-1.62-8.73A53.47,53.47,0,0,0,180.61,247.05Z"/><path class="cls-5" d="M178.18,231.7c0,.22.41,3,.44,3.94,0,0,.58,1.18.69,1.29s-.9-.14-.9-.14l-.74,1.24.63-2.54Z"/><path class="cls-5" d="M179,224.09a45.71,45.71,0,0,1-.37,5.35A41.47,41.47,0,0,1,179,224.09Z"/><polygon class="cls-7" points="173.96 240.29 175.21 239.87 173.93 241.47 173.96 240.29"/><path class="cls-7" d="M174.22,225.09c0-.19.93,2.32.93,2.32l-1.09-1.32Z"/><polygon class="cls-7" points="177.44 213.26 177.54 218.29 177.18 213.26 177.44 213.26"/><path class="cls-7" d="M181.05,220.57l.12,1s-.38,1.36-.39,1.35Z"/><path class="cls-7" d="M180.05,256.15l-.26.27-.17-4.76S180,255.79,180.05,256.15Z"/><path class="cls-7" d="M182.25,245.55l-.05,1.33-.74-2A6.06,6.06,0,0,0,182.25,245.55Z"/><path class="cls-5" d="M178.38,247.1s.19,2.57.06,6.34A61.68,61.68,0,0,1,178.38,247.1Z"/><path class="cls-5" d="M180.42,239.78s.64,0,1.23,1.81A3.57,3.57,0,0,1,180.42,239.78Z"/><rect class="cls-12" x="315.2" y="172.44" width="10.3" height="56.48"/><rect class="cls-12" x="363.38" y="172.44" width="10.3" height="56.48"/><polygon class="cls-13" points="462.8 179.85 365.55 164.95 365.55 175.5 462.8 190.91 462.8 179.85"/><polygon class="cls-14" points="473.02 179.74 373.39 164.67 365.55 164.95 462.8 179.85 473.02 179.74"/><path class="cls-13" d="M365.55,165c-.94-.08-71.44-.28-71.44-.28V175.5h71.44Z"/><polyline class="cls-14" points="365.55 164.95 373.71 164.71 367.7 164.03 294.26 163.23 294.11 164.67"/><polygon class="cls-15" points="472.86 245.48 462.56 245.48 462.8 190.91 472.92 190.91 472.86 245.48"/><polygon class="cls-16" points="462.8 179.85 473.02 179.74 472.92 190.91 462.8 190.91 462.8 179.85"/><polygon class="cls-17" points="462.8 190.91 456.44 189.9 456.12 244.23 462.56 245.48 462.8 190.91"/><rect class="cls-18" x="377.54" y="259.88" width="8.28" height="319.8"/><rect class="cls-18" x="440.02" y="258.33" width="8.28" height="319.8"/><rect class="cls-19" x="374.9" y="330.35" width="75.85" height="6.19"/><rect class="cls-19" x="374.9" y="379.9" width="75.85" height="6.19"/><rect class="cls-19" x="374.9" y="429.46" width="75.85" height="6.19"/><rect class="cls-19" x="374.9" y="479.02" width="75.85" height="6.19"/><rect class="cls-19" x="374.9" y="528.58" width="75.85" height="6.19"/><rect class="cls-19" x="374.9" y="280.79" width="75.85" height="6.19"/><rect class="cls-20" x="374.9" y="328.41" width="75.85" height="6.19"/><rect class="cls-20" x="374.9" y="377.97" width="75.85" height="6.19"/><rect class="cls-20" x="374.9" y="427.53" width="75.85" height="6.19"/><rect class="cls-20" x="374.9" y="477.08" width="75.85" height="6.19"/><rect class="cls-20" x="374.9" y="526.64" width="75.85" height="6.19"/><rect class="cls-20" x="374.9" y="278.85" width="75.85" height="6.19"/><path class="cls-21" d="M382.67,282.12a1,1,0,1,1-1-1A1,1,0,0,1,382.67,282.12Z"/><path class="cls-21" d="M445.55,282.47a1,1,0,1,1-1-1A1,1,0,0,1,445.55,282.47Z"/><path class="cls-21" d="M382.31,331.77a1,1,0,1,1-1-1A1,1,0,0,1,382.31,331.77Z"/><path class="cls-21" d="M445.2,332.11a1,1,0,1,1-1-1A1,1,0,0,1,445.2,332.11Z"/><path class="cls-21" d="M382.94,381.71a1,1,0,1,1-1-1A1,1,0,0,1,382.94,381.71Z"/><path class="cls-21" d="M445.83,382.06a1,1,0,1,1-1-1A1,1,0,0,1,445.83,382.06Z"/><path class="cls-21" d="M383.56,431.27a1,1,0,1,1-1-1A1,1,0,0,1,383.56,431.27Z"/><path class="cls-21" d="M446.45,431.62a1,1,0,1,1-1-1A1,1,0,0,1,446.45,431.62Z"/><path class="cls-21" d="M382.81,480.18a1,1,0,1,1-1-1A1,1,0,0,1,382.81,480.18Z"/><path class="cls-21" d="M445.69,480.53a1,1,0,1,1-1-1A1,1,0,0,1,445.69,480.53Z"/><path class="cls-21" d="M382.56,530.12a1,1,0,1,1-1-1A1,1,0,0,1,382.56,530.12Z"/><path class="cls-21" d="M445.44,530.47a1,1,0,1,1-1-1A1,1,0,0,1,445.44,530.47Z"/><path class="cls-22" d="M307.28,282.57l2.45,182.88-2-.26a21.55,21.55,0,0,0-7.23,1.19l-2.54,1.1-3.28-141.83-.08-43.08Z"/><path class="cls-23" d="M307.47,263.94v58.52c-4.14,1-8.59,2.08-12.76,3.19l-.08-61.71Z"/><path class="cls-22" d="M43.56,292.53l2.77,282.6H43c-2.77.08-4.89.06-6.51,0l-2.89-.09L31,358.64l-.09-66.11Z"/><path class="cls-23" d="M43.75,263.94v89.8c-4.14,1.5-8.6,3.2-12.76,4.9l-.09-94.7Z"/><polygon class="cls-24" points="472.86 245.48 472.86 265.55 5.65 265.55 5.65 245.48 137.72 245.48 154.53 245.69 312.82 245.69 342.49 245.48 472.86 245.48"/></g></svg>