<svg xmlns="http://www.w3.org/2000/svg" viewBox="0 0 61.19 209.45"><defs><style>.cls-1{fill:#985b12;}.cls-2{fill:#804805;}.cls-3{fill:#663600;}.cls-4{fill:#b16f21;}.cls-5{fill:#bb7f2d;}.cls-6{fill:#e9cf79;}.cls-7{fill:#e2bc5b;}</style></defs><g id="Layer_3" data-name="Layer 3"><path class="cls-1" d="M31.73,204.85c.32,0,.65,0,1,0h0a18.38,18.38,0,0,0,3.2-.44,16.4,16.4,0,0,0,9.87-6.12c2.35-2.9,2.13-7.63,2.48-11.9.83-10.23.77-20.77,2.06-30.91,1.75-13.75.09-27.88,1.57-41.72.08-.81.16-1.62.23-2.42l.15-1.85c.09-1.24.16-2.47.23-3.71,0-.62.07-1.24.1-1.86.15-3,.26-5.94.4-8.92l.12-2.59.09-1.62.09-1.61c0-.54.07-1.08.11-1.62C54,80,55.11,72.53,55.7,65c.46-6,0-12,0-18,0-1.59.08-3.17.18-4.75,0-.31,0-.63.06-.95l.06-.94c0-.31.05-.63.08-.94L56.25,38c0-.28,0-.57.08-.85,0-.46.09-.91.14-1.37a1.94,1.94,0,0,1,0-.24c0-.52.11-1,.16-1.56l.24-2.1a.61.61,0,0,1,0-.14c0-.32.07-.65.11-1,.08-.75.15-1.52.22-2.3l.06-.85c0-.23,0-.47.05-.71s0-.54,0-.81,0-.8.07-1.21c0-.79.07-1.6.1-2.4v-.05a.71.71,0,0,0,0-.15c0-.65,0-1.3.07-2l0-.71.06-2v-.07c0-.81.05-1.61.08-2.4s.05-1.48.09-2.21c0-.43,0-.86.06-1.28,0-.15,0-.29,0-.43l-3.75-.08L11,10.27l-1.71,0c-.1,16.21,1.39,33.43.65,49.72,0,.12,0,.24,0,.36-1.32-2.21-1.43-5.82-2.85-7.79-1.13-1.59-2,.28-3.45,1.92-1.14,1.33-.75,3.17-.41,5.05.63,3.5,1.7,6.8,2.52,10.23,0,.14.07.3.1.45.17.72.33,1.44.49,2.17a217,217,0,0,1,4.54,38.58c.39,11.22,1,22.36,1.3,33.55q.12,3.76.19,7.53v.35c.07,4,.32,7.77.59,11.72.51,7.28.59,14.61.91,21.91l0,1c0,.66,0,1.36,0,2.07l0,1,0,.59c0,.2,0,.4,0,.6,0,.4.07.8.12,1.19,0,.09,0,.18,0,.26a2.74,2.74,0,0,0,.05.28,2.74,2.74,0,0,0,0,.28l.06.27c0,.17.08.35.13.52s.05.17.08.25l.09.25a.92.92,0,0,0,.09.23,1.22,1.22,0,0,0,.1.24,2,2,0,0,0,.1.21c2.51,4.92,7,7.38,11,8.66l.95.28c.46.13.92.24,1.39.33l.79.14.45.07c.21,0,.43.06.65.08Q30.94,204.82,31.73,204.85Z"/><path class="cls-2" d="M6.66,73c-.13-.23-.24-.46-.35-.69a217,217,0,0,1,4.54,38.58c.39,11.22,1,22.36,1.3,33.55-.08-11.82.73-23.59.59-35.43C12.59,97.42,11.78,82.61,6.66,73Z"/><path class="cls-2" d="M28.35,204.14h.14a18.38,18.38,0,0,0,3.2-.44,16.4,16.4,0,0,0,9.87-6.12c2.36-2.91,2.13-7.63,2.48-11.9.84-10.23.77-20.77,2.06-30.91,1.75-13.75.09-27.88,1.57-41.73.09-.8.16-1.61.23-2.42.06-.61.1-1.23.15-1.85.09-1.23.17-2.47.23-3.7,0-.62.07-1.24.1-1.86.15-3,.26-5.94.4-8.92l.12-2.59L49,90.07l.09-1.61c0-.54.07-1.08.11-1.62.53-7.57,1.66-15,2.25-22.59.46-6,0-12,.05-18,0-1.59.08-3.17.18-4.75l.06-.95c0-.31,0-.63.07-.94s0-.63.07-.94L52,37.32c0-.29,0-.57.08-.85,0-.46.09-.92.14-1.37a1.94,1.94,0,0,1,0-.24c.05-.52.11-1,.16-1.56l.24-2.11s0-.09,0-.14c0-.31.07-.64.11-1,.08-.75.16-1.52.22-2.3l.06-.85c0-.23,0-.47,0-.71s0-.54.05-.81,0-.81.07-1.21c0-.79.07-1.6.11-2.4v-.2c0-.65,0-1.3.07-2l0-.71.06-2v-.06c0-.81,0-1.61.08-2.41s.05-1.47.09-2.2L53.69,11l-1.91-.07a0,0,0,0,1,0,0,51.4,51.4,0,0,1-.91,5.94,2.56,2.56,0,0,0,0,.27c-.06.28-.11.56-.16.81l-.14.81C49.8,22.9,49,27,48.35,31.14,46,46.44,45.8,62.29,45.54,77.82c-.09,5.23.31,12.38-.94,17.37-1.17,4.63-3.25-1.22-3.87-3.58-.35-1.34-.55-4.28-1.79-4.68-2.24-.73-2.59,4.79-3,6.67a166.89,166.89,0,0,0-3.37,31.09c-.08,8.47.06,16.93-.39,25.4-.24,4.72-1,9.45-1.61,14.11-.57,4.44-.58,9.92-2.23,13.93-.88,2.11-2.44,4.24-4.23,2.66-2-1.79-1.21-6.88-1.25-9.54-.14-9.43,1.88-19.11.69-28.45-.25-2-.44-5.44-2.3-4.06-1.13.85-1.59,4.61-1.92,5.94a75.62,75.62,0,0,0-1.78,9.42c-.48,3.84-1.19,7.7-1.5,11.56-.36,4.53-1.15.17-1.43-4.21-1-16-1.33-22.67-1.31-27.9.15-37.82-5.07-53.32-5.09-50.86,0,1.66,0,52.74,0,52.86.27,11.37.12,23.85.39,27.8.51,7.28.59,14.61.91,21.91q0,.47,0,1c0,.66,0,1.36,0,2.07,0,.33,0,.66,0,1l0,.6c0,.2,0,.4,0,.6,0,.4.07.8.12,1.19,0,.09,0,.18,0,.26s0,.19,0,.28,0,.18.05.28l.06.27c0,.17.08.35.13.52a1.83,1.83,0,0,1,.08.25l.09.24a1.7,1.7,0,0,0,.09.24,1.6,1.6,0,0,0,.1.23,1.47,1.47,0,0,0,.1.22c2.51,4.91,7,7.38,11,8.66l1,.28c.46.12.93.24,1.39.33l.79.14.45.07.66.08c.52.06,1.05.1,1.58.12Z"/><path class="cls-2" d="M11.1,61.56c.43-8.88.31-17.94.36-26.85,0-6.49.53-12.69,0-19.21-.14-1.75-.31-3.49-.48-5.23l-1.71,0c-.1,16.21-.74,22.33-.12,48.34A5,5,0,0,0,11.1,61.56Z"/><path class="cls-3" d="M32.61,204.86h.14a18.38,18.38,0,0,0,3.2-.44c3.88-.88,8.09-2.32,11.45-5.15,2.82-2.37,4.43-7.62,4.69-11.76.89-14.45.29-22,.63-32,.47-13.95.31-19.75,1.29-34.85.05-.81-.26-7.28-.19-8.09,0-.62-.16-4.19-.12-4.8.09-1.24,0-1.87,0-3.1,0-.62,0-2.35,0-3,.15-3,.11-4.13.25-7.1,0-.86,0-2.11,0-3,0-.54,0-1.34,0-1.88s-.18-1.19-.15-1.73.2-2.37.24-2.91c.53-7.57,1-12.55,1.55-20.11.46-6,0-12,0-18,0-1.59.08-3.17.18-4.75,0-.31,0-.63.06-.95l.06-.94c0-.31.05-.63.08-.94L56.25,38c0-.28,0-.57.08-.85,0-.46.09-.91.14-1.37a1.94,1.94,0,0,1,0-.24c0-.52.11-1,.16-1.56.08-.7.13-1,.26-1.79.08-.26.12-.41.13-.46a13.55,13.55,0,0,0,.25-1.39,63.59,63.59,0,0,0,.49-7.87l0-.44A10.37,10.37,0,0,0,58,20.66c.12-3.58-.27-5.51,0-8.91L56,11.67l-.88,0a56.88,56.88,0,0,1-.9,6,9.26,9.26,0,0,1,.51,1.83v.06a39.55,39.55,0,0,1,.47,4.87c.18,6.17-1,12.19-1.17,18.33-.16,6.93-.35,14.57-.71,23.29-.32,7.94-1.72,15.69-1.91,23.66a104.54,104.54,0,0,1-.65,11.16c-.57,4.51-.41,9-.69,13.55-.48,7.69-1.18,15.21-2.11,22.82-.34,2.8-.61,5.62-1,8.42-.29,2.31-.09,8.33-1.47,10-1.11,1.35-1.34-.61-1.56-2.29-.42-3.21-.23-6.51-.36-9.74-.27-6.59-1.12-13.06-1.22-19.69-.14-9.81-.68-19.53-.51-29.26-.24,13.77-1.74,15.81-2.1,23.9-.32,6.93-.13,13.82-.18,20.75-.08,12-1,23.74-1.82,35.67-.34,4.79-.08,19.5-5.9,18.09-2.35-.58-3.74-3.4-4.69-6.24-3.11-9.32-3.4-22.87-3.42-32.83-1.35,14.23-.94,15.33-1.42,21.6-.43,5.69,1.12,16.89-4.39,17.7a29.87,29.87,0,0,1-5.07-.46c-4.82.3.46,5.46.5,5.53,4.39,4.44,8.59,5.29,12.27,5.84a11.93,11.93,0,0,1,1.2.16c.46.12.87,0,1.34.12l.79.14.45.07c.21,0,.43.06.65.08q.8.09,1.59.12Z"/><path class="cls-4" d="M17.05,27.55c.05.87.07,1.75.11,2.19.18,1.76.33,3.53.35,5.31,0,3.16.18,6.3.17,9.46-.07,11.83-.06,23.74-.46,35.55C16.85,90.71,16,101.34,15.91,112c0,8-.31,16.51,1.48,24.23-.4-1.71.12-4.84.18-6.65.07-2.46.17-4.92.37-7.36.38-4.64,1.51-9,2.15-13.52.88,1.19.83,3.85,1,5.44a60.85,60.85,0,0,1-.37,14.21c-.7,5.26-1.95,10.29-2.2,15.66-.21,4.51-.7,11.1.32,15.41-.3-1.26.4-4,.59-5.28.26-1.74.58-3.47.93-5.18.71-3.43,1.55-6.81,2.33-10.2a113.61,113.61,0,0,0,3.09-20.34,58.66,58.66,0,0,0-.7-10.6c-.86-5.74-1.53-11.55-2-17.38-.51-6.47-.64-13-.61-19.53s.53-13.23.74-19.84A82.23,82.23,0,0,1,24,42.19c.22-1.57.61-7.46,1.58-8.37-2.74,2.56-4.3,9.79-4.44,14.27a68.55,68.55,0,0,0-.42-7.53c-.44-5.06-1.53-11.46-4-15.35A6.5,6.5,0,0,1,17.05,27.55Z"/><path class="cls-4" d="M31.44,172.42c.73-9.77-.1-19.74-.06-29.55,0-12.62-1.35-24.93-2-37.48C28.77,92.25,26.88,79.2,26.86,66c0-10,1.9-19.12,3.76-28.63-.28,9.67.09,19.13.74,28.75.4,5.83.2,11.69.61,17.5.37,5.07,1,10.09,1.36,15.17.68,10.27,1,20.47,1.26,30.76.23,8.17.37,16.5-.18,24.65C34,160.73,33.36,166.46,31.44,172.42Z"/><path class="cls-2" d="M38.11,96.24c.11-4.94-.7-10.07-1.14-14.88a144.75,144.75,0,0,1-.2-22.43c.21-3.41.46-6.91.37-10.35A109.1,109.1,0,0,0,36,37.73a112.37,112.37,0,0,1-.37-17c1.1-.36,2.24.8,3.44.33s2.45-1.78,3.58-2.67c1.32-1.05,2.23-2.67,3.67-2.94-.44,3.24-1.67,6.32-2.28,9.54a75.87,75.87,0,0,0-1.28,11.74c-.14,4.45-.06,8.91-.23,13.35a113.6,113.6,0,0,1-1.74,14.23c-.62,3.73-1.35,7.3-1.71,11.18-.29,3.11-.41,6.27-.65,9.39C38.09,88.72,38.42,92.4,38.11,96.24Z"/><path class="cls-2" d="M3,58.05a1,1,0,0,1-.28-.49,6.15,6.15,0,0,1,.87-4.41,3.08,3.08,0,0,1,2.47-1.5c2.37.25-.13,5.22-1.16,6C4.49,58.05,3.54,58.5,3,58.05Z"/><path class="cls-2" d="M3.57,54.66c.13-.36.27-.67.38-.91.44-.93,1.1-1.76,2-1.58,1.08.24-.22,3.25-.56,3.83s-1.38,2-1.93,1.09A3.21,3.21,0,0,1,3.57,54.66Z"/><path class="cls-3" d="M34.24,17.63c2.13.11,4.27.18,6.35.14A68,68,0,0,0,52.05,16.3c4.88-1,7.79-4,5.93-6.36a8,8,0,0,0-5.1-3.2c-1.13-.29-2.43-.34-3.49-.62a15.33,15.33,0,0,0-2.69-.67C43.84,5.14,40.81,5.32,38,5a55.63,55.63,0,0,0-9.06-.32A51.71,51.71,0,0,0,18,5.87a20.26,20.26,0,0,0-3.78,1.58c-1,.48-2.5.63-3.28,1.24-.48.37-1.19.55-1.55,1A1.94,1.94,0,0,0,9,11.19c0,1.14,1.42,2.45,3.24,3.18a37.65,37.65,0,0,0,7.73,1.76c3.07.46,6.29.94,9.47,1.18C31,17.43,32.6,17.54,34.24,17.63Z"/><path class="cls-5" d="M44,16.69a32.91,32.91,0,0,0,3.57-.54c1-.23,2.24-.28,3.27-.53a14.2,14.2,0,0,0,5.27-2.44c1.93-1.37.54-3.51-1.51-4.72a16.42,16.42,0,0,0-5.44-1.74A28.09,28.09,0,0,0,45.32,6c-1.13-.08-2.23-.15-3.34-.26-1.28-.13-2.55-.14-3.84-.19s-2.4-.26-3.62-.34a48.78,48.78,0,0,0-7.05.06c-2.23.17-4.64.33-6.77.67a15.53,15.53,0,0,0-4.63,1.59,12,12,0,0,1-3,1.07c-2,.49-2.72,1.65-2.12,2.8a4.8,4.8,0,0,0,1.34,1.86,9.9,9.9,0,0,0,3.66,1.24c.77.15,1.6.22,2.36.38s1.47.39,2.28.53c1.73.29,3.73.43,5.51.68a82.11,82.11,0,0,0,11,.63c1.49,0,2.95.07,4.44.07A17.39,17.39,0,0,0,44,16.69Z"/><path class="cls-6" d="M18.68,7.85a19.66,19.66,0,0,1,5.79-1.22c2.08-.08,4.17-.36,6.27-.39,3.47,0,6.93.37,10.33.65a38,38,0,0,1,8.7,1.4,23.35,23.35,0,0,1,2.76,1.15,1.56,1.56,0,0,1,1,2.21,2.24,2.24,0,0,1-1.64,1.74,27.55,27.55,0,0,1-5.22,1.2,32.57,32.57,0,0,1-5.49.69c-2,0-3.92-.16-5.89-.1a76.6,76.6,0,0,1-9-.57,45.44,45.44,0,0,1-4.56-.4c-1.4-.28-2.72-.74-4-1.12-2.65-.75-3.73-2-2.63-3.45A3.09,3.09,0,0,1,17,8.44Z"/><path class="cls-7" d="M20.1,9.63A18.44,18.44,0,0,1,25,8.19c4.51-.94,10.09-.58,14.82-.2,2.89.24,9.67,1.07,9.38,3.18s-7.21,2.43-10,2.51c-4.9.14-10.2.25-14.91-.69a10.67,10.67,0,0,1-4.32-1.74C19.14,10.6,19.38,10.07,20.1,9.63Z"/><path class="cls-6" d="M24.08,10.12C25.55,9,29.49,8.85,31.73,8.78A37.41,37.41,0,0,1,38.26,9c2.36.33,5.47,0,6.68,1.57.62.77-.27,1-1.43,1.31a16.45,16.45,0,0,1-4.25.43,91.39,91.39,0,0,1-10.61-.33C27.91,11.85,22.61,11,24.08,10.12Z"/><path class="cls-7" d="M29.28,10.08A16,16,0,0,1,33,9.74c1.09-.05,2.14,0,3.24,0a23.43,23.43,0,0,1,2.41.23,4.33,4.33,0,0,1,1.45.3c.34.26-.28.57-.72.68a15.79,15.79,0,0,1-2.55.28,33.56,33.56,0,0,1-5.77-.3,5.49,5.49,0,0,1-1.85-.41C28.91,10.31,29,10.12,29.28,10.08Z"/><path class="cls-3" d="M12.45,9.08c.11.05,4,.55,6.37.84,0,0-5.52-.41-7.47-.48S12.45,9.08,12.45,9.08Z"/><path class="cls-3" d="M12.84,14.08l9.74-1.17S14.9,14,13.46,14.44Z"/><path class="cls-3" d="M24.51,5.16,25.71,5S28,6,28.3,6.53a11,11,0,0,0,2.07,1.72A33.26,33.26,0,0,1,24.51,5.16Z"/><path class="cls-1" d="M28.26,15a8,8,0,0,1,3.37-2S30.93,14.22,28.26,15Z"/><path class="cls-3" d="M57.35,13.57c-4.87-.42-14.15-1.66-14.15-1.66s3.58.6,5.63,1.07S56,14.33,56,14.33Z"/><path class="cls-3" d="M50.46,16.1c-.07,0-2.6-.6-2.6-.6l2.21.84Z"/><path class="cls-3" d="M54,14.86c-.38,0-2-.55-2-.55l2.74.4Z"/><path class="cls-3" d="M34.31,5l1.89,0a5,5,0,0,0-1.27,1.31C35.15,5.63,34.22,5.06,34.31,5Z"/><path class="cls-1" d="M47,7.89a70.32,70.32,0,0,0-9.75,2A48.34,48.34,0,0,0,47,7.89Z"/><path class="cls-1" d="M29.86,10.78c.24,0,3.35-.47,4.39-.49a15.67,15.67,0,0,0,1.45-.92c.13-.14-.18,1.26-.18,1.26l1.36,1.07-2.81-1Z"/><path class="cls-1" d="M21.42,9.41a41.82,41.82,0,0,1,5.94.69A37.7,37.7,0,0,1,21.42,9.41Z"/><polygon class="cls-3" points="39.29 16.96 38.86 15.21 40.59 17.05 39.29 16.96"/><path class="cls-3" d="M22.4,16.1A28,28,0,0,1,25,14.89l-1.5,1.48Z"/><polygon class="cls-3" points="9.35 11.21 14.94 11.24 9.34 11.58 9.35 11.21"/><path class="cls-3" d="M17.57,6.4l1.15-.14s1.5.58,1.48.59Z"/><path class="cls-3" d="M57.08,9l.29.38-5.29.08S56.68,9,57.08,9Z"/><path class="cls-3" d="M45.36,5.54l1.48.11-2.27,1A7.18,7.18,0,0,0,45.36,5.54Z"/><path class="cls-1" d="M47,11a57.13,57.13,0,0,1,7.05.13A52.87,52.87,0,0,1,47,11Z"/><path class="cls-1" d="M38.9,7.91S39,7,41,6.25A4.21,4.21,0,0,1,38.9,7.91Z"/></g></svg>