<?xml version="1.0" encoding="UTF-8"?><svg id="a" xmlns="http://www.w3.org/2000/svg" viewBox="0 0 152 133"><defs><style>.b,.c{fill:#d2cbce;}.d{fill:#ffdce9;}.e{fill:#ceb2c3;}.e,.f,.g{opacity:.53;}.f{fill:#e2e0e1;}.h{fill:#af0844;}.i{fill:#d9194d;}.j{fill:#a00d42;}.k{fill:#fff3f5;}.l{fill:#f4d7dd;}.c{opacity:.64;}.m{fill:#b21445;}.g{fill:#e5d6de;}.n{fill:#e9e9e9;opacity:.85;}.o{fill:#990240;}</style></defs><g><ellipse class="i" cx="89.45" cy="41.7" rx="9.49" ry="23.63" transform="translate(-7.3 61.19) rotate(-36.38)"/><ellipse class="d" cx="90.47" cy="40.94" rx="9.49" ry="23.63" transform="translate(-6.65 61.65) rotate(-36.38)"/><ellipse class="l" cx="90.47" cy="40.94" rx="9.19" ry="22.58" transform="translate(-6.65 61.65) rotate(-36.38)"/><path class="e" d="M84.12,43.36s-.14,.79-.26,1.58c-.04,.26,.23,.64,.48,.8,.08,.28,.37,.65,.63,.69,.79,.12,1.59,.22,1.59,.22,0,0-2.6,.1-2.12,.82,.48,.72,1.53,1.39,1.53,1.39,0,0,.32,1.11,1.96,2.64,1.63,1.52,1.94,1.47,1.94,1.47,0,0,2,2.36,2.47,2.51,.46,.15,.68,.3,.68,.3l.21-4.21s.57,4.65,.99,5.21,1.92,1.5,1.92,1.5l-.48-5.68s1.12,5.06,1.76,5.52c.64,.46,1.32,.76,1.32,.76,0,0,1.28,.44,1.71,.4,.42-.04,.1-.68,.1-.68,0,0,1.04,1.06,1.6,1,.56-.06,.61-1.31,.61-1.31,0,0,1.08,.14,1.43-.2s-.47-2.24-.47-2.24c0,0,1.43-.2,.86-1.5-.49-1.12-4.99-4.09-4.99-4.09,0,0,4.51,2.2,4.85,2.11,.34-.09,.25-.82,.25-.82l-1.17-1.37s1.25,.47,1.29-.03-.45-.88-.45-.88c0,0,.47-.45,0-1.3-.48-.85-.79-1.26-.79-1.26,0,0,.12-.59-.18-1.13-.3-.54-.79-1.14-.79-1.14,0,0,.1-.33-.19-1l-.29-.67-3.98-1.08s4.27,.93,3.6,.02c-.67-.9-1.21-1.22-1.21-1.22,0,0,.71,.28,.25-.47-.46-.75-1.13-1.18-1.13-1.18l-.32-.64-.56-1.01c-.38-.69-1.05-1.17-1.38-1l-.29,.15,.23-.23c.26-.27,0-1.05-.55-1.62l-.8-.83-.52-.5s-.21-.77-.79-1.42c-.58-.66-.53,.1-.53,.1,0,0-.15-.61-.81-1.51-.66-.91-1.03,3.45-1.03,3.45l.14-4.13-.55-.48c-.55-.48-.9-.47-.9-.47,0,0-.42-.65-.85-1.09-.43-.45-1.02-.5-1.02-.5,0,0-.31-.42-.98-1.12-.67-.71-1.24-.38-1.24-.38,0,0-.22-.57-.7-.69s-.41,1.22-.41,1.22l-.97-1.52s-.68-.31-.86,0c-.18,.3,.59,5.26,.59,5.26,0,0-1.51-5.18-2.44-5.98-1.08-.93-1.69,.38-1.69,.38,0,0-1.58-1.35-2-1.11-.43,.24-.61,1.31-.61,1.31,0,0-1.21-.33-1.43,.2-.22,.52,.48,1.83,.48,1.83,0,0-.52-.5-.68-.11-.17,.39-.12,1.75-.12,1.75,0,0,.09,.74,.34,1.49,.25,.75,4.75,3.3,4.75,3.3l-5.28-2.13s.46,1.72,.86,2.27,4.68,2.47,4.68,2.47l-4.08-1.04s.08,.25,.09,.74c0,.49,1.67,3.1,1.67,3.1,0,0-.15,.28,.83,2.29,.97,2.01,1.94,2.65,1.94,2.65,0,0,.33,1.2,.87,1.87,.55,.68,1.4-1.79,1.4-1.79Z"/><path class="n" d="M87.5,43.81c.08,.41,.44,2.13,1.2,2.64,.86,.58,.91-.46,.91-.46,0,0,1.2,1.95,1.4,1.94,.2,0,.31,.04,.31,.04l-.59-2.65s.95,2.75,1.2,3c.24,.25,.96,.5,.96,.5l-1.08-3.41s1.34,3.48,1.65,3.62c.32,.14,.62,.18,.62,.18,0,0,.56-.01,.71-.13,.15-.12-.07-.44-.07-.44,0,0,.72,.65,.93,.49,.2-.16,.12-.41,.12-.41,0,0,.75,.23,.83-.05,.08-.29,.09-.85,.09-.85,0,0,1.07,0,.67-1-.23-.57-3.56-2.29-3.56-2.29,0,0,3.67,1.48,3.79,1.35s-.04-.56-.04-.56l-.66-.59s.55,.01,.48-.31c-.07-.32-.31-.44-.31-.44,0,0,.11-.38-.21-.8-.32-.42-.5-.61-.5-.61,0,0-.05-.39-.25-.66-.2-.27-.48-.53-.48-.53,0,0-.01-.23-.23-.58l-.22-.35-1.68,.21s1.77-.37,1.37-.78c-.4-.41-.65-.49-.65-.49,0,0,.31,.01,.02-.35-.04-.05-.08-.1-.13-.14-.03-.05-.06-.11-.09-.16-.26-.39-.34-.08-.34-.08,0,0,0-.27-.27-.77-.27-.5-1.15,1.08-1.15,1.08l.7-1.55-.27-.31c-.27-.31-.48-.39-.48-.39,0,0-.17-.35-.36-.62-.2-.27-.55-.43-.55-.43,0,0-.13-.23-.43-.66-.31-.43-.7-.43-.7-.43,0,0-.05-.27-.33-.43-.28-.16-.43,.37-.43,.37l-.37-.81s-.37-.27-.53-.2c-.16,.07,.18,4.03,.18,4.03,0,0-.66-3.7-1.14-4.08-.83-.67-1.15,.35-1.15,.35,0,0-.54-.16-.84-.17-.3,0-.29,.78-.29,.78,0,0-.21-.16-.42,0-.21,.15,.2,1.03,.2,1.03,0,0-.24-.31-.4-.2-.16,.11-.34,.64-.34,.64,0,0-.05,.3-.01,.65s2.97,2.65,2.97,2.65l-2.93-2.04s.03,.76,.19,1.07c.17,.31,2.51,2.03,2.51,2.03l-2.35-1.34s.01,.11-.05,.3c-.07,.19,1.44,1.91,1.44,1.91,0,0-1.01-.26-.71,.73,.26,.88,1.79,1.73,2.16,1.92Z"/><path class="c" d="M88.74,42.9c.02,.2,.11,1.05,.49,1.27,.44,.24,.52-.29,.52-.29,0,0,.53,.92,.64,.9,.11-.02,.16,0,.16,0l-.16-1.31s.35,1.34,.47,1.45c.12,.11,.5,.19,.5,.19l-.38-1.66s.51,1.69,.68,1.74c.16,.05,.33,.05,.33,.05,0,0,.31-.04,.4-.11,.09-.07-.01-.22-.01-.22,0,0,.35,.29,.48,.19,.12-.09,.09-.21,.09-.21,0,0,.39,.07,.46-.08,.06-.15,.1-.44,.1-.44,0,0,.58-.07,.43-.55-.09-.28-1.8-.94-1.8-.94,0,0,1.92,.52,1.99,.45s.01-.28,.01-.28l-.33-.26s.3-.03,.28-.19c-.02-.16-.14-.21-.14-.21,0,0,.08-.2-.06-.39-.15-.19-.23-.28-.23-.28,0,0,0-.19-.09-.32-.09-.12-.23-.24-.23-.24,0,0,0-.12-.09-.28l-.1-.16-.93,.21s.99-.3,.8-.48c-.19-.18-.33-.21-.33-.21,0,0,.17-.01,.03-.18-.02-.02-.04-.04-.06-.06-.01-.02-.02-.05-.04-.08-.12-.18-.18-.02-.18-.02,0,0,.02-.14-.1-.37-.12-.24-.7,.62-.7,.62l.48-.83-.13-.14c-.13-.14-.24-.17-.24-.17,0,0-.07-.17-.16-.29-.09-.13-.28-.18-.28-.18,0,0-.05-.11-.2-.31-.14-.2-.36-.18-.36-.18,0,0,0-.13-.15-.2-.14-.06-.26,.22-.26,.22l-.15-.39s-.19-.12-.28-.07c-.09,.05-.15,2.04-.15,2.04,0,0-.13-1.84-.37-2-.41-.29-.65,.25-.65,.25,0,0-.29-.05-.45-.03-.16,.02-.21,.42-.21,.42,0,0-.1-.07-.23,.02-.13,.09,.04,.51,.04,.51,0,0-.11-.14-.21-.08-.09,.07-.22,.35-.22,.35,0,0-.05,.16-.05,.33s1.46,1.16,1.46,1.16l-1.48-.85s-.03,.39,.04,.53c.07,.15,1.25,.88,1.25,.88l-1.2-.53s0,.06-.05,.16c-.05,.1,.67,.88,.67,.88,0,0-.53-.07-.43,.42,.09,.43,.87,.77,1.06,.84Z"/><path class="b" d="M94.37,43.02s4.81,3.49,4.82,2.85-4.82-2.85-4.82-2.85Z"/><path class="b" d="M93.37,45.23s3.82,5.72,4.28,5.59-4.28-5.59-4.28-5.59Z"/><path class="b" d="M91.09,45.55s.63,4.97,1.32,5.46-1.32-5.46-1.32-5.46Z"/><path class="b" d="M91,38.45s-1.92-5.63-1.31-5.45,1.31,5.45,1.31,5.45Z"/><path class="b" d="M88.59,38.76s-4.33-5.33-4.08-5.74,4.08,5.74,4.08,5.74Z"/><path class="b" d="M87.62,40.84s-4.55-2.07-4.82-2.87,4.82,2.87,4.82,2.87Z"/><path class="b" d="M89.04,43.53s-2.03,2.51-2.68,1.78,2.68-1.78,2.68-1.78Z"/><path class="b" d="M93.09,40.54s2.99-1.21,2.49-2.04-2.49,2.04-2.49,2.04Z"/><path class="j" d="M75.97,22.34s-4.4,6.75,4.73,21.13c0,0-6.57-9.57-.11,2.13-1.33-1.55-12.02-18.71-4.62-23.26Z"/></g><g><ellipse class="o" cx="86.13" cy="77.08" rx="23.63" ry="9.49" transform="translate(-.17 .19) rotate(-.13)"/><ellipse class="d" cx="86.12" cy="75.81" rx="23.63" ry="9.49" transform="translate(-.17 .19) rotate(-.13)"/><ellipse class="l" cx="86.12" cy="75.81" rx="22.58" ry="9.19" transform="translate(-.17 .19) rotate(-.13)"/><path class="e" d="M84.32,82.36s.55,.58,1.12,1.15c.19,.18,.65,.19,.93,.09,.28,.1,.75,.09,.93-.1,.56-.56,1.11-1.15,1.11-1.15,0,0-1.46,2.15-.59,2.19,.87,.04,2.02-.42,2.02-.42,0,0,1.09,.4,3.28-.02,2.2-.42,2.33-.7,2.33-.7,0,0,3.09-.22,3.48-.5,.4-.29,.65-.37,.65-.37l-3.27-2.66s4.09,2.29,4.78,2.28,2.34-.66,2.34-.66l-4.87-2.97s4.74,2.09,5.49,1.85c.75-.25,1.39-.61,1.39-.61,0,0,1.11-.78,1.33-1.14,.21-.37-.49-.48-.49-.48,0,0,1.47-.21,1.76-.7,.29-.49-.7-1.27-.7-1.27,0,0,.75-.78,.69-1.27s-2.09-.95-2.09-.95c0,0,.69-1.27-.7-1.58-1.19-.27-6.25,1.6-6.25,1.6,0,0,4.44-2.33,4.57-2.66,.13-.32-.52-.69-.52-.69l-1.8,.13s1.12-.73,.73-1.06-.97-.16-.97-.16c0,0-.08-.65-1.05-.76-.97-.12-1.48-.11-1.48-.11,0,0-.4-.44-1.02-.52-.61-.08-1.39-.03-1.39-.03,0,0-.21-.28-.92-.44l-.71-.16-3.22,2.57s3.27-2.89,2.15-2.89c-1.12,0-1.7,.25-1.7,.25,0,0,.64-.41-.23-.48-.87-.08-1.62,.21-1.62,.21l-.71-.12-1.14-.15c-.78-.1-1.57,.15-1.63,.52l-.05,.33-.05-.32c-.06-.37-.85-.62-1.63-.52l-1.14,.15-.71,.12s-.74-.28-1.62-.2c-.87,.08-.23,.49-.23,.49,0,0-.58-.24-1.7-.24-1.12,0,2.17,2.88,2.17,2.88l-3.25-2.55-.71,.16c-.71,.16-.92,.45-.92,.45,0,0-.77-.04-1.39,.04-.61,.08-1.01,.53-1.01,.53,0,0-.52,0-1.48,.12-.96,.12-1.04,.77-1.04,.77,0,0-.59-.16-.97,.16s.74,1.05,.74,1.05l-1.8-.12s-.65,.36-.51,.69c.14,.32,4.59,2.63,4.59,2.63,0,0-5.07-1.84-6.26-1.57-1.39,.32-.69,1.59-.69,1.59,0,0-2.02,.47-2.08,.96-.06,.49,.7,1.27,.7,1.27,0,0-.98,.78-.69,1.27,.29,.49,1.76,.69,1.76,.69,0,0-.71,.12-.49,.49,.22,.36,1.34,1.13,1.34,1.13,0,0,.65,.36,1.4,.61,.75,.24,5.47-1.88,5.47-1.88l-4.84,3s1.65,.65,2.34,.65,4.76-2.31,4.76-2.31l-3.25,2.67s.25,.08,.65,.36c.4,.28,3.49,.49,3.49,.49,0,0,.14,.28,2.34,.69,2.2,.4,3.28,0,3.28,0,0,0,1.16,.45,2.03,.4,.87-.04-.61-2.19-.61-2.19Z"/><path class="n" d="M86.68,79.91c.38,.18,1.98,.9,2.84,.59,.98-.35,.17-1,.17-1,0,0,2.28,.19,2.39,.02,.11-.17,.21-.22,.21-.22l-2.48-1.09s2.78,.86,3.13,.81c.35-.05,.97-.48,.97-.48l-3.39-1.14s3.6,.98,3.9,.81c.3-.17,.51-.4,.51-.4,0,0,.32-.46,.31-.65,0-.19-.4-.21-.4-.21,0,0,.95-.2,.95-.46,0-.26-.26-.33-.26-.33,0,0,.63-.47,.45-.7-.18-.24-.63-.57-.63-.57,0,0,.63-.87-.41-1.13-.59-.15-3.95,1.52-3.95,1.52,0,0,3.37-2.09,3.33-2.26s-.48-.3-.48-.3l-.87,.18s.33-.44,.04-.57c-.3-.13-.54-.01-.54-.01,0,0-.24-.31-.77-.31-.52,0-.78,.04-.78,.04,0,0-.34-.19-.68-.19-.33,0-.71,.08-.71,.08,0,0-.19-.13-.6-.16l-.41-.03-.82,1.48s.74-1.65,.18-1.57c-.57,.08-.78,.24-.78,.24,0,0,.2-.24-.27-.22-.07,0-.13,.01-.19,.02-.06,0-.12-.02-.19-.02-.47-.02-.27,.23-.27,.23,0,0-.21-.16-.78-.23-.57-.08,.19,1.57,.19,1.57l-.84-1.48-.41,.03c-.41,.03-.6,.16-.6,.16,0,0-.38-.07-.71-.07-.33,0-.67,.19-.67,.19,0,0-.26-.03-.79-.04-.52,0-.76,.31-.76,.31,0,0-.24-.12-.54,.02-.29,.13,.04,.57,.04,.57l-.87-.18s-.44,.14-.47,.31c-.03,.17,3.35,2.24,3.35,2.24,0,0-3.37-1.65-3.97-1.49-1.03,.27-.4,1.14-.4,1.14,0,0-.45,.34-.63,.58-.18,.24,.45,.7,.45,.7,0,0-.25,.08-.26,.34,0,.26,.95,.45,.95,.45,0,0-.39,.01-.4,.21,0,.19,.32,.65,.32,.65,0,0,.21,.22,.51,.39s3.89-.83,3.89-.83l-3.38,1.16s.63,.43,.98,.48c.35,.05,3.12-.82,3.12-.82l-2.47,1.1s.1,.06,.21,.22c.11,.17,2.39-.03,2.39-.03,0,0-.81,.66,.17,1,.86,.3,2.45-.42,2.83-.61Z"/><path class="c" d="M86.68,78.36c.17,.11,.91,.53,1.31,.35,.45-.21,.08-.6,.08-.6,0,0,1.06,.11,1.11,.01,.05-.1,.1-.13,.1-.13l-1.15-.65s1.29,.51,1.45,.48c.16-.03,.45-.29,.45-.29l-1.57-.68s1.67,.58,1.8,.48c.14-.1,.24-.23,.24-.23,0,0,.15-.27,.14-.39,0-.12-.19-.12-.19-.12,0,0,.44-.12,.44-.27,0-.15-.12-.2-.12-.2,0,0,.29-.28,.21-.42-.08-.14-.29-.34-.29-.34,0,0,.29-.51-.19-.67-.28-.09-1.83,.9-1.83,.9,0,0,1.55-1.24,1.54-1.34s-.22-.18-.22-.18l-.4,.11s.15-.26,.02-.34c-.14-.08-.25,0-.25,0,0,0-.11-.19-.36-.18-.24,0-.36,.03-.36,.03,0,0-.16-.11-.31-.11-.15,0-.33,.04-.33,.04,0,0-.09-.07-.28-.09l-.19-.02-.38,.88s.34-.98,.08-.93c-.26,.05-.36,.14-.36,.14,0,0,.09-.14-.12-.13-.03,0-.06,0-.09,.01-.03,0-.06,0-.09-.01-.22-.01-.12,.13-.12,.13,0,0-.1-.09-.36-.14-.26-.04,.09,.93,.09,.93l-.39-.88-.19,.02c-.19,.02-.28,.09-.28,.09,0,0-.17-.04-.33-.04-.15,0-.31,.11-.31,.11,0,0-.12-.02-.36-.02-.24,0-.35,.18-.35,.18,0,0-.11-.07-.25,0-.14,.08,.02,.34,.02,.34l-.4-.11s-.2,.08-.22,.18c-.02,.1,1.55,1.33,1.55,1.33,0,0-1.56-.98-1.83-.89-.48,.16-.18,.67-.18,.67,0,0-.21,.2-.29,.34-.08,.14,.21,.41,.21,.41,0,0-.12,.04-.12,.2,0,.15,.44,.27,.44,.27,0,0-.18,0-.18,.12,0,.12,.15,.39,.15,.39,0,0,.1,.13,.24,.23s1.8-.49,1.8-.49l-1.56,.69s.29,.26,.45,.28c.16,.03,1.44-.49,1.44-.49l-1.14,.65s.05,.03,.1,.13c.05,.1,1.11-.02,1.11-.02,0,0-.37,.39,.08,.59,.4,.18,1.13-.25,1.31-.36Z"/><path class="b" d="M90.11,73.9s5.66-1.81,5.15-2.2-5.15,2.2-5.15,2.2Z"/><path class="b" d="M91.3,76.01s6.87,.3,7.04-.14-7.04,.14-7.04,.14Z"/><path class="b" d="M90.21,78.03s4.38,2.43,5.19,2.16-5.19-2.16-5.19-2.16Z"/><path class="b" d="M84.43,73.91s-5.68-1.78-5.17-2.17,5.17,2.17,5.17,2.17Z"/><path class="b" d="M83.26,76.03s-6.86,.34-7.04-.11,7.04,.11,7.04,.11Z"/><path class="b" d="M84.36,78.05s-4.36,2.45-5.17,2.19,5.17-2.19,5.17-2.19Z"/><path class="b" d="M87.37,78.49s.83,3.12-.15,3.21,.15-3.21,.15-3.21Z"/><path class="b" d="M87.35,73.46s.8-3.13-.17-3.21,.17,3.21,.17,3.21Z"/><path class="m" d="M62.55,76.51s2.85,7.54,19.83,8.68c0,0-11.6-.36,1.65,1.35-2.04,.16-22.2-1.37-21.49-10.03Z"/></g><g><ellipse class="o" cx="81.23" cy="65.8" rx="23.63" ry="9.49" transform="translate(-.15 .18) rotate(-.13)"/><ellipse class="d" cx="81.23" cy="64.53" rx="23.63" ry="9.49" transform="translate(-.14 .18) rotate(-.13)"/><ellipse class="k" cx="81.23" cy="64.53" rx="22.58" ry="9.19" transform="translate(-.14 .18) rotate(-.13)"/><path class="g" d="M79.42,71.08s.55,.58,1.12,1.15c.19,.18,.65,.19,.93,.09,.28,.1,.75,.09,.93-.1,.56-.56,1.11-1.15,1.11-1.15,0,0-1.46,2.15-.59,2.19,.87,.04,2.02-.42,2.02-.42,0,0,1.09,.4,3.28-.02,2.2-.42,2.33-.7,2.33-.7,0,0,3.09-.22,3.48-.5,.4-.29,.65-.37,.65-.37l-3.27-2.66s4.09,2.29,4.78,2.28,2.34-.66,2.34-.66l-4.87-2.97s4.74,2.09,5.49,1.85c.75-.25,1.39-.61,1.39-.61,0,0,1.11-.78,1.33-1.14,.21-.37-.49-.48-.49-.48,0,0,1.47-.21,1.76-.7,.29-.49-.7-1.27-.7-1.27,0,0,.75-.78,.69-1.27s-2.09-.95-2.09-.95c0,0,.69-1.27-.7-1.58-1.19-.27-6.25,1.6-6.25,1.6,0,0,4.44-2.33,4.57-2.66,.13-.32-.52-.69-.52-.69l-1.8,.13s1.12-.73,.73-1.06-.97-.16-.97-.16c0,0-.08-.65-1.05-.76-.97-.12-1.48-.11-1.48-.11,0,0-.4-.44-1.02-.52-.61-.08-1.39-.03-1.39-.03,0,0-.21-.28-.92-.44l-.71-.16-3.22,2.57s3.27-2.89,2.15-2.89c-1.12,0-1.7,.25-1.7,.25,0,0,.64-.41-.23-.48-.87-.08-1.62,.21-1.62,.21l-.71-.12-1.14-.15c-.78-.1-1.57,.15-1.63,.52l-.05,.33-.05-.32c-.06-.37-.85-.62-1.63-.52l-1.14,.15-.71,.12s-.74-.28-1.62-.2c-.87,.08-.23,.49-.23,.49,0,0-.58-.24-1.7-.24-1.12,0,2.17,2.88,2.17,2.88l-3.25-2.55-.71,.16c-.71,.16-.92,.45-.92,.45,0,0-.77-.04-1.39,.04-.61,.08-1.01,.53-1.01,.53,0,0-.52,0-1.48,.12-.96,.12-1.04,.77-1.04,.77,0,0-.59-.16-.97,.16s.74,1.05,.74,1.05l-1.8-.12s-.65,.36-.51,.69c.14,.32,4.59,2.63,4.59,2.63,0,0-5.07-1.84-6.26-1.57-1.39,.32-.69,1.59-.69,1.59,0,0-2.02,.47-2.08,.96-.06,.49,.7,1.27,.7,1.27,0,0-.98,.78-.69,1.27,.29,.49,1.76,.69,1.76,.69,0,0-.71,.12-.49,.49,.22,.36,1.34,1.13,1.34,1.13,0,0,.65,.36,1.4,.61,.75,.24,5.47-1.88,5.47-1.88l-4.84,3s1.65,.65,2.34,.65,4.76-2.31,4.76-2.31l-3.25,2.67s.25,.08,.65,.36c.4,.28,3.49,.49,3.49,.49,0,0,.14,.28,2.34,.69,2.2,.4,3.28,0,3.28,0,0,0,1.16,.45,2.03,.4,.87-.04-.61-2.19-.61-2.19Z"/><path class="n" d="M81.79,68.63c.38,.18,1.98,.9,2.84,.59,.98-.35,.17-1,.17-1,0,0,2.28,.19,2.39,.02,.11-.17,.21-.22,.21-.22l-2.48-1.09s2.78,.86,3.13,.81c.35-.05,.97-.48,.97-.48l-3.39-1.14s3.6,.98,3.9,.81c.3-.17,.51-.4,.51-.4,0,0,.32-.46,.31-.65,0-.19-.4-.21-.4-.21,0,0,.95-.2,.95-.46,0-.26-.26-.33-.26-.33,0,0,.63-.47,.45-.7-.18-.24-.63-.57-.63-.57,0,0,.63-.87-.41-1.13-.59-.15-3.95,1.52-3.95,1.52,0,0,3.37-2.09,3.33-2.26s-.48-.3-.48-.3l-.87,.18s.33-.44,.04-.57c-.3-.13-.54-.01-.54-.01,0,0-.24-.31-.77-.31-.52,0-.78,.04-.78,.04,0,0-.34-.19-.68-.19-.33,0-.71,.08-.71,.08,0,0-.19-.13-.6-.16l-.41-.03-.82,1.48s.74-1.65,.18-1.57c-.57,.08-.78,.24-.78,.24,0,0,.2-.24-.27-.22-.07,0-.13,.01-.19,.02-.06,0-.12-.02-.19-.02-.47-.02-.27,.23-.27,.23,0,0-.21-.16-.78-.23-.57-.08,.19,1.57,.19,1.57l-.84-1.48-.41,.03c-.41,.03-.6,.16-.6,.16,0,0-.38-.07-.71-.07-.33,0-.67,.19-.67,.19,0,0-.26-.03-.79-.04-.52,0-.76,.31-.76,.31,0,0-.24-.12-.54,.02-.29,.13,.04,.57,.04,.57l-.87-.18s-.44,.14-.47,.31c-.03,.17,3.35,2.24,3.35,2.24,0,0-3.37-1.65-3.97-1.49-1.03,.27-.4,1.14-.4,1.14,0,0-.45,.34-.63,.58-.18,.24,.45,.7,.45,.7,0,0-.25,.08-.26,.34,0,.26,.95,.45,.95,.45,0,0-.39,.01-.4,.21,0,.19,.32,.65,.32,.65,0,0,.21,.22,.51,.39s3.89-.83,3.89-.83l-3.38,1.16s.63,.43,.98,.48c.35,.05,3.12-.82,3.12-.82l-2.47,1.1s.1,.06,.21,.22c.11,.17,2.39-.03,2.39-.03,0,0-.81,.66,.17,1,.86,.3,2.45-.42,2.83-.61Z"/><path class="c" d="M81.78,67.08c.17,.11,.91,.53,1.31,.35,.45-.21,.08-.6,.08-.6,0,0,1.06,.11,1.11,.01,.05-.1,.1-.13,.1-.13l-1.15-.65s1.29,.51,1.45,.48c.16-.03,.45-.29,.45-.29l-1.57-.68s1.67,.58,1.8,.48c.14-.1,.24-.23,.24-.23,0,0,.15-.27,.14-.39,0-.12-.19-.12-.19-.12,0,0,.44-.12,.44-.27,0-.15-.12-.2-.12-.2,0,0,.29-.28,.21-.42-.08-.14-.29-.34-.29-.34,0,0,.29-.51-.19-.67-.28-.09-1.83,.9-1.83,.9,0,0,1.55-1.24,1.54-1.34s-.22-.18-.22-.18l-.4,.11s.15-.26,.02-.34c-.14-.08-.25,0-.25,0,0,0-.11-.19-.36-.18-.24,0-.36,.03-.36,.03,0,0-.16-.11-.31-.11-.15,0-.33,.04-.33,.04,0,0-.09-.07-.28-.09l-.19-.02-.38,.88s.34-.98,.08-.93c-.26,.05-.36,.14-.36,.14,0,0,.09-.14-.12-.13-.03,0-.06,0-.09,.01-.03,0-.06,0-.09-.01-.22-.01-.12,.13-.12,.13,0,0-.1-.09-.36-.14-.26-.04,.09,.93,.09,.93l-.39-.88-.19,.02c-.19,.02-.28,.09-.28,.09,0,0-.17-.04-.33-.04-.15,0-.31,.11-.31,.11,0,0-.12-.02-.36-.02-.24,0-.35,.18-.35,.18,0,0-.11-.07-.25,0-.14,.08,.02,.34,.02,.34l-.4-.11s-.2,.08-.22,.18c-.02,.1,1.55,1.33,1.55,1.33,0,0-1.56-.98-1.83-.89-.48,.16-.18,.67-.18,.67,0,0-.21,.2-.29,.34-.08,.14,.21,.41,.21,.41,0,0-.12,.04-.12,.2,0,.15,.44,.27,.44,.27,0,0-.18,0-.18,.12,0,.12,.15,.39,.15,.39,0,0,.1,.13,.24,.23s1.8-.49,1.8-.49l-1.56,.69s.29,.26,.45,.28c.16,.03,1.44-.49,1.44-.49l-1.14,.65s.05,.03,.1,.13c.05,.1,1.11-.02,1.11-.02,0,0-.37,.39,.08,.59,.4,.18,1.13-.25,1.31-.36Z"/><path class="b" d="M85.21,62.62s5.66-1.81,5.15-2.2-5.15,2.2-5.15,2.2Z"/><path class="b" d="M86.4,64.74s6.87,.3,7.04-.14-7.04,.14-7.04,.14Z"/><path class="b" d="M85.31,66.76s4.38,2.43,5.19,2.16-5.19-2.16-5.19-2.16Z"/><path class="b" d="M79.53,62.64s-5.68-1.78-5.17-2.17,5.17,2.17,5.17,2.17Z"/><path class="b" d="M78.36,64.76s-6.86,.34-7.04-.11,7.04,.11,7.04,.11Z"/><path class="b" d="M79.47,66.77s-4.36,2.45-5.17,2.19,5.17-2.19,5.17-2.19Z"/><path class="b" d="M82.47,67.22s.83,3.12-.15,3.21,.15-3.21,.15-3.21Z"/><path class="b" d="M82.45,62.19s.8-3.13-.17-3.21,.17,3.21,.17,3.21Z"/><path class="h" d="M57.66,65.23s2.85,7.54,19.83,8.68c0,0-11.6-.36,1.65,1.35-2.04,.16-22.2-1.37-21.49-10.03Z"/></g><g><ellipse class="o" cx="71.32" cy="53" rx="23.63" ry="9.49" transform="translate(-.12 .16) rotate(-.13)"/><ellipse class="d" cx="71.32" cy="51.73" rx="23.63" ry="9.49" transform="translate(-.12 .16) rotate(-.13)"/><ellipse class="l" cx="71.32" cy="51.73" rx="22.58" ry="9.19" transform="translate(-.11 .16) rotate(-.13)"/><path class="e" d="M69.51,58.28s.55,.58,1.12,1.15c.19,.18,.65,.19,.93,.09,.28,.1,.75,.09,.93-.1,.56-.56,1.11-1.15,1.11-1.15,0,0-1.46,2.15-.59,2.19,.87,.04,2.02-.42,2.02-.42,0,0,1.09,.4,3.28-.02,2.2-.42,2.33-.7,2.33-.7,0,0,3.09-.22,3.48-.5,.4-.29,.65-.37,.65-.37l-3.27-2.66s4.09,2.29,4.78,2.28,2.34-.66,2.34-.66l-4.87-2.97s4.74,2.09,5.49,1.85c.75-.25,1.39-.61,1.39-.61,0,0,1.11-.78,1.33-1.14,.21-.37-.49-.48-.49-.48,0,0,1.47-.21,1.76-.7,.29-.49-.7-1.27-.7-1.27,0,0,.75-.78,.69-1.27s-2.09-.95-2.09-.95c0,0,.69-1.27-.7-1.58-1.19-.27-6.25,1.6-6.25,1.6,0,0,4.44-2.33,4.57-2.66,.13-.32-.52-.69-.52-.69l-1.8,.13s1.12-.73,.73-1.06-.97-.16-.97-.16c0,0-.08-.65-1.05-.76-.97-.12-1.48-.11-1.48-.11,0,0-.4-.44-1.02-.52-.61-.08-1.39-.03-1.39-.03,0,0-.21-.28-.92-.44l-.71-.16-3.22,2.57s3.27-2.89,2.15-2.89c-1.12,0-1.7,.25-1.7,.25,0,0,.64-.41-.23-.48-.87-.08-1.62,.21-1.62,.21l-.71-.12-1.14-.15c-.78-.1-1.57,.15-1.63,.52l-.05,.33-.05-.32c-.06-.37-.85-.62-1.63-.52l-1.14,.15-.71,.12s-.74-.28-1.62-.2c-.87,.08-.23,.49-.23,.49,0,0-.58-.24-1.7-.24-1.12,0,2.17,2.88,2.17,2.88l-3.25-2.55-.71,.16c-.71,.16-.92,.45-.92,.45,0,0-.77-.04-1.39,.04-.61,.08-1.01,.53-1.01,.53,0,0-.52,0-1.48,.12-.96,.12-1.04,.77-1.04,.77,0,0-.59-.16-.97,.16s.74,1.05,.74,1.05l-1.8-.12s-.65,.36-.51,.69c.14,.32,4.59,2.63,4.59,2.63,0,0-5.07-1.84-6.26-1.57-1.39,.32-.69,1.59-.69,1.59,0,0-2.02,.47-2.08,.96-.06,.49,.7,1.27,.7,1.27,0,0-.98,.78-.69,1.27,.29,.49,1.76,.69,1.76,.69,0,0-.71,.12-.49,.49,.22,.36,1.34,1.13,1.34,1.13,0,0,.65,.36,1.4,.61,.75,.24,5.47-1.88,5.47-1.88l-4.84,3s1.65,.65,2.34,.65,4.76-2.31,4.76-2.31l-3.25,2.67s.25,.08,.65,.36c.4,.28,3.49,.49,3.49,.49,0,0,.14,.28,2.34,.69,2.2,.4,3.28,0,3.28,0,0,0,1.16,.45,2.03,.4,.87-.04-.61-2.19-.61-2.19Z"/><path class="n" d="M71.88,55.83c.38,.18,1.98,.9,2.84,.59,.98-.35,.17-1,.17-1,0,0,2.28,.19,2.39,.02,.11-.17,.21-.22,.21-.22l-2.48-1.09s2.78,.86,3.13,.81c.35-.05,.97-.48,.97-.48l-3.39-1.14s3.6,.98,3.9,.81c.3-.17,.51-.4,.51-.4,0,0,.32-.46,.31-.65,0-.19-.4-.21-.4-.21,0,0,.95-.2,.95-.46,0-.26-.26-.33-.26-.33,0,0,.63-.47,.45-.7-.18-.24-.63-.57-.63-.57,0,0,.63-.87-.41-1.13-.59-.15-3.95,1.52-3.95,1.52,0,0,3.37-2.09,3.33-2.26s-.48-.3-.48-.3l-.87,.18s.33-.44,.04-.57c-.3-.13-.54-.01-.54-.01,0,0-.24-.31-.77-.31-.52,0-.78,.04-.78,.04,0,0-.34-.19-.68-.19-.33,0-.71,.08-.71,.08,0,0-.19-.13-.6-.16l-.41-.03-.82,1.48s.74-1.65,.18-1.57c-.57,.08-.78,.24-.78,.24,0,0,.2-.24-.27-.22-.07,0-.13,.01-.19,.02-.06,0-.12-.02-.19-.02-.47-.02-.27,.23-.27,.23,0,0-.21-.16-.78-.23-.57-.08,.19,1.57,.19,1.57l-.84-1.48-.41,.03c-.41,.03-.6,.16-.6,.16,0,0-.38-.07-.71-.07-.33,0-.67,.19-.67,.19,0,0-.26-.03-.79-.04-.52,0-.76,.31-.76,.31,0,0-.24-.12-.54,.02-.29,.13,.04,.57,.04,.57l-.87-.18s-.44,.14-.47,.31c-.03,.17,3.35,2.24,3.35,2.24,0,0-3.37-1.65-3.97-1.49-1.03,.27-.4,1.14-.4,1.14,0,0-.45,.34-.63,.58-.18,.24,.45,.7,.45,.7,0,0-.25,.08-.26,.34,0,.26,.95,.45,.95,.45,0,0-.39,.01-.4,.21,0,.19,.32,.65,.32,.65,0,0,.21,.22,.51,.39s3.89-.83,3.89-.83l-3.38,1.16s.63,.43,.98,.48c.35,.05,3.12-.82,3.12-.82l-2.47,1.1s.1,.06,.21,.22c.11,.17,2.39-.03,2.39-.03,0,0-.81,.66,.17,1,.86,.3,2.45-.42,2.83-.61Z"/><path class="c" d="M71.87,54.28c.17,.11,.91,.53,1.31,.35,.45-.21,.08-.6,.08-.6,0,0,1.06,.11,1.11,.01,.05-.1,.1-.13,.1-.13l-1.15-.65s1.29,.51,1.45,.48c.16-.03,.45-.29,.45-.29l-1.57-.68s1.67,.58,1.8,.48c.14-.1,.24-.23,.24-.23,0,0,.15-.27,.14-.39,0-.12-.19-.12-.19-.12,0,0,.44-.12,.44-.27,0-.15-.12-.2-.12-.2,0,0,.29-.28,.21-.42-.08-.14-.29-.34-.29-.34,0,0,.29-.51-.19-.67-.28-.09-1.83,.9-1.83,.9,0,0,1.55-1.24,1.54-1.34s-.22-.18-.22-.18l-.4,.11s.15-.26,.02-.34c-.14-.08-.25,0-.25,0,0,0-.11-.19-.36-.18-.24,0-.36,.03-.36,.03,0,0-.16-.11-.31-.11-.15,0-.33,.04-.33,.04,0,0-.09-.07-.28-.09l-.19-.02-.38,.88s.34-.98,.08-.93c-.26,.05-.36,.14-.36,.14,0,0,.09-.14-.12-.13-.03,0-.06,0-.09,.01-.03,0-.06,0-.09-.01-.22-.01-.12,.13-.12,.13,0,0-.1-.09-.36-.14-.26-.04,.09,.93,.09,.93l-.39-.88-.19,.02c-.19,.02-.28,.09-.28,.09,0,0-.17-.04-.33-.04-.15,0-.31,.11-.31,.11,0,0-.12-.02-.36-.02-.24,0-.35,.18-.35,.18,0,0-.11-.07-.25,0-.14,.08,.02,.34,.02,.34l-.4-.11s-.2,.08-.22,.18c-.02,.1,1.55,1.33,1.55,1.33,0,0-1.56-.98-1.83-.89-.48,.16-.18,.67-.18,.67,0,0-.21,.2-.29,.34-.08,.14,.21,.41,.21,.41,0,0-.12,.04-.12,.2,0,.15,.44,.27,.44,.27,0,0-.18,0-.18,.12,0,.12,.15,.39,.15,.39,0,0,.1,.13,.24,.23s1.8-.49,1.8-.49l-1.56,.69s.29,.26,.45,.28c.16,.03,1.44-.49,1.44-.49l-1.14,.65s.05,.03,.1,.13c.05,.1,1.11-.02,1.11-.02,0,0-.37,.39,.08,.59,.4,.18,1.13-.25,1.31-.36Z"/><path class="b" d="M75.3,49.82s5.66-1.81,5.15-2.2-5.15,2.2-5.15,2.2Z"/><path class="b" d="M76.49,51.93s6.87,.3,7.04-.14-7.04,.14-7.04,.14Z"/><path class="b" d="M75.4,53.95s4.38,2.43,5.19,2.16-5.19-2.16-5.19-2.16Z"/><path class="b" d="M69.63,49.83s-5.68-1.78-5.17-2.17,5.17,2.17,5.17,2.17Z"/><path class="b" d="M68.45,51.96s-6.86,.34-7.04-.11,7.04,.11,7.04,.11Z"/><path class="b" d="M69.56,53.97s-4.36,2.45-5.17,2.19,5.17-2.19,5.17-2.19Z"/><path class="b" d="M72.56,54.41s.83,3.12-.15,3.21,.15-3.21,.15-3.21Z"/><path class="b" d="M72.54,49.38s.8-3.13-.17-3.21,.17,3.21,.17,3.21Z"/><path class="m" d="M47.75,52.43s2.85,7.54,19.83,8.68c0,0-11.6-.36,1.65,1.35-2.04,.16-22.2-1.37-21.49-10.03Z"/></g><g><ellipse class="i" cx="69.24" cy="39.13" rx="23.63" ry="9.49" transform="translate(-.09 .15) rotate(-.13)"/><ellipse class="d" cx="69.23" cy="37.87" rx="23.63" ry="9.49" transform="translate(-.08 .15) rotate(-.13)"/><ellipse class="k" cx="69.23" cy="37.87" rx="22.58" ry="9.19" transform="translate(-.08 .15) rotate(-.13)"/><path class="f" d="M67.43,44.41s.55,.58,1.12,1.15c.19,.18,.65,.19,.93,.09,.28,.1,.75,.09,.93-.1,.56-.56,1.11-1.15,1.11-1.15,0,0-1.46,2.15-.59,2.19,.87,.04,2.02-.42,2.02-.42,0,0,1.09,.4,3.28-.02,2.2-.42,2.33-.7,2.33-.7,0,0,3.09-.22,3.48-.5,.4-.29,.65-.37,.65-.37l-3.27-2.66s4.09,2.29,4.78,2.28,2.34-.66,2.34-.66l-4.87-2.97s4.74,2.09,5.49,1.85c.75-.25,1.39-.61,1.39-.61,0,0,1.11-.78,1.33-1.14,.21-.37-.49-.48-.49-.48,0,0,1.47-.21,1.76-.7,.29-.49-.7-1.27-.7-1.27,0,0,.75-.78,.69-1.27s-2.09-.95-2.09-.95c0,0,.69-1.27-.7-1.58-1.19-.27-6.25,1.6-6.25,1.6,0,0,4.44-2.33,4.57-2.66,.13-.32-.52-.69-.52-.69l-1.8,.13s1.12-.73,.73-1.06-.97-.16-.97-.16c0,0-.08-.65-1.05-.76-.97-.12-1.48-.11-1.48-.11,0,0-.4-.44-1.02-.52-.61-.08-1.39-.03-1.39-.03,0,0-.21-.28-.92-.44l-.71-.16-3.22,2.57s3.27-2.89,2.15-2.89c-1.12,0-1.7,.25-1.7,.25,0,0,.64-.41-.23-.48-.87-.08-1.62,.21-1.62,.21l-.71-.12-1.14-.15c-.78-.1-1.57,.15-1.63,.52l-.05,.33-.05-.32c-.06-.37-.85-.62-1.63-.52l-1.14,.15-.71,.12s-.74-.28-1.62-.2c-.87,.08-.23,.49-.23,.49,0,0-.58-.24-1.7-.24-1.12,0,2.17,2.88,2.17,2.88l-3.25-2.55-.71,.16c-.71,.16-.92,.45-.92,.45,0,0-.77-.04-1.39,.04-.61,.08-1.01,.53-1.01,.53,0,0-.52,0-1.48,.12-.96,.12-1.04,.77-1.04,.77,0,0-.59-.16-.97,.16s.74,1.05,.74,1.05l-1.8-.12s-.65,.36-.51,.69c.14,.32,4.59,2.63,4.59,2.63,0,0-5.07-1.84-6.26-1.57-1.39,.32-.69,1.59-.69,1.59,0,0-2.02,.47-2.08,.96-.06,.49,.7,1.27,.7,1.27,0,0-.98,.78-.69,1.27,.29,.49,1.76,.69,1.76,.69,0,0-.71,.12-.49,.49,.22,.36,1.34,1.13,1.34,1.13,0,0,.65,.36,1.4,.61,.75,.24,5.47-1.88,5.47-1.88l-4.84,3s1.65,.65,2.34,.65,4.76-2.31,4.76-2.31l-3.25,2.67s.25,.08,.65,.36c.4,.28,3.49,.49,3.49,.49,0,0,.14,.28,2.34,.69,2.2,.4,3.28,0,3.28,0,0,0,1.16,.45,2.03,.4,.87-.04-.61-2.19-.61-2.19Z"/><path class="n" d="M69.79,41.96c.38,.18,1.98,.9,2.84,.59,.98-.35,.17-1,.17-1,0,0,2.28,.19,2.39,.02,.11-.17,.21-.22,.21-.22l-2.48-1.09s2.78,.86,3.13,.81c.35-.05,.97-.48,.97-.48l-3.39-1.14s3.6,.98,3.9,.81c.3-.17,.51-.4,.51-.4,0,0,.32-.46,.31-.65,0-.19-.4-.21-.4-.21,0,0,.95-.2,.95-.46,0-.26-.26-.33-.26-.33,0,0,.63-.47,.45-.7-.18-.24-.63-.57-.63-.57,0,0,.63-.87-.41-1.13-.59-.15-3.95,1.52-3.95,1.52,0,0,3.37-2.09,3.33-2.26s-.48-.3-.48-.3l-.87,.18s.33-.44,.04-.57c-.3-.13-.54-.01-.54-.01,0,0-.24-.31-.77-.31-.52,0-.78,.04-.78,.04,0,0-.34-.19-.68-.19-.33,0-.71,.08-.71,.08,0,0-.19-.13-.6-.16l-.41-.03-.82,1.48s.74-1.65,.18-1.57c-.57,.08-.78,.24-.78,.24,0,0,.2-.24-.27-.22-.07,0-.13,.01-.19,.02-.06,0-.12-.02-.19-.02-.47-.02-.27,.23-.27,.23,0,0-.21-.16-.78-.23-.57-.08,.19,1.57,.19,1.57l-.84-1.48-.41,.03c-.41,.03-.6,.16-.6,.16,0,0-.38-.07-.71-.07-.33,0-.67,.19-.67,.19,0,0-.26-.03-.79-.04-.52,0-.76,.31-.76,.31,0,0-.24-.12-.54,.02-.29,.13,.04,.57,.04,.57l-.87-.18s-.44,.14-.47,.31c-.03,.17,3.35,2.24,3.35,2.24,0,0-3.37-1.65-3.97-1.49-1.03,.27-.4,1.14-.4,1.14,0,0-.45,.34-.63,.58-.18,.24,.45,.7,.45,.7,0,0-.25,.08-.26,.34,0,.26,.95,.45,.95,.45,0,0-.39,.01-.4,.21,0,.19,.32,.65,.32,.65,0,0,.21,.22,.51,.39s3.89-.83,3.89-.83l-3.38,1.16s.63,.43,.98,.48c.35,.05,3.12-.82,3.12-.82l-2.47,1.1s.1,.06,.21,.22c.11,.17,2.39-.03,2.39-.03,0,0-.81,.66,.17,1,.86,.3,2.45-.42,2.83-.61Z"/><path class="c" d="M69.79,40.42c.17,.11,.91,.53,1.31,.35,.45-.21,.08-.6,.08-.6,0,0,1.06,.11,1.11,.01,.05-.1,.1-.13,.1-.13l-1.15-.65s1.29,.51,1.45,.48c.16-.03,.45-.29,.45-.29l-1.57-.68s1.67,.58,1.8,.48c.14-.1,.24-.23,.24-.23,0,0,.15-.27,.14-.39,0-.12-.19-.12-.19-.12,0,0,.44-.12,.44-.27,0-.15-.12-.2-.12-.2,0,0,.29-.28,.21-.42-.08-.14-.29-.34-.29-.34,0,0,.29-.51-.19-.67-.28-.09-1.83,.9-1.83,.9,0,0,1.55-1.24,1.54-1.34s-.22-.18-.22-.18l-.4,.11s.15-.26,.02-.34c-.14-.08-.25,0-.25,0,0,0-.11-.19-.36-.18-.24,0-.36,.03-.36,.03,0,0-.16-.11-.31-.11-.15,0-.33,.04-.33,.04,0,0-.09-.07-.28-.09l-.19-.02-.38,.88s.34-.98,.08-.93c-.26,.05-.36,.14-.36,.14,0,0,.09-.14-.12-.13-.03,0-.06,0-.09,.01-.03,0-.06,0-.09-.01-.22-.01-.12,.13-.12,.13,0,0-.1-.09-.36-.14-.26-.04,.09,.93,.09,.93l-.39-.88-.19,.02c-.19,.02-.28,.09-.28,.09,0,0-.17-.04-.33-.04-.15,0-.31,.11-.31,.11,0,0-.12-.02-.36-.02-.24,0-.35,.18-.35,.18,0,0-.11-.07-.25,0-.14,.08,.02,.34,.02,.34l-.4-.11s-.2,.08-.22,.18c-.02,.1,1.55,1.33,1.55,1.33,0,0-1.56-.98-1.83-.89-.48,.16-.18,.67-.18,.67,0,0-.21,.2-.29,.34-.08,.14,.21,.41,.21,.41,0,0-.12,.04-.12,.2,0,.15,.44,.27,.44,.27,0,0-.18,0-.18,.12,0,.12,.15,.39,.15,.39,0,0,.1,.13,.24,.23s1.8-.49,1.8-.49l-1.56,.69s.29,.26,.45,.28c.16,.03,1.44-.49,1.44-.49l-1.14,.65s.05,.03,.1,.13c.05,.1,1.11-.02,1.11-.02,0,0-.37,.39,.08,.59,.4,.18,1.13-.25,1.31-.36Z"/><path class="b" d="M73.22,35.95s5.66-1.81,5.15-2.2-5.15,2.2-5.15,2.2Z"/><path class="b" d="M74.41,38.07s6.87,.3,7.04-.14-7.04,.14-7.04,.14Z"/><path class="b" d="M73.32,40.09s4.38,2.43,5.19,2.16-5.19-2.16-5.19-2.16Z"/><path class="b" d="M67.54,35.97s-5.68-1.78-5.17-2.17,5.17,2.17,5.17,2.17Z"/><path class="b" d="M66.37,38.09s-6.86,.34-7.04-.11,7.04,.11,7.04,.11Z"/><path class="b" d="M67.47,40.1s-4.36,2.45-5.17,2.19,5.17-2.19,5.17-2.19Z"/><path class="b" d="M70.48,40.55s.83,3.12-.15,3.21,.15-3.21,.15-3.21Z"/><path class="b" d="M70.46,35.52s.8-3.13-.17-3.21,.17,3.21,.17,3.21Z"/><path class="m" d="M45.66,38.56s2.85,7.54,19.83,8.68c0,0-11.6-.36,1.65,1.35-2.04,.16-22.2-1.37-21.49-10.03Z"/></g><g><ellipse class="i" cx="61.42" cy="49.33" rx="23.63" ry="9.49" transform="translate(-.11 .14) rotate(-.13)"/><ellipse class="d" cx="61.41" cy="48.06" rx="23.63" ry="9.49" transform="translate(-.11 .14) rotate(-.13)"/><ellipse class="k" cx="61.41" cy="48.06" rx="22.58" ry="9.19" transform="translate(-.11 .14) rotate(-.13)"/><path class="f" d="M59.6,54.61s.55,.58,1.12,1.15c.19,.18,.65,.19,.93,.09,.28,.1,.75,.09,.93-.1,.56-.56,1.11-1.15,1.11-1.15,0,0-1.46,2.15-.59,2.19,.87,.04,2.02-.42,2.02-.42,0,0,1.09,.4,3.28-.02,2.2-.42,2.33-.7,2.33-.7,0,0,3.09-.22,3.48-.5,.4-.29,.65-.37,.65-.37l-3.27-2.66s4.09,2.29,4.78,2.28,2.34-.66,2.34-.66l-4.87-2.97s4.74,2.09,5.49,1.85c.75-.25,1.39-.61,1.39-.61,0,0,1.11-.78,1.33-1.14,.21-.37-.49-.48-.49-.48,0,0,1.47-.21,1.76-.7,.29-.49-.7-1.27-.7-1.27,0,0,.75-.78,.69-1.27s-2.09-.95-2.09-.95c0,0,.69-1.27-.7-1.58-1.19-.27-6.25,1.6-6.25,1.6,0,0,4.44-2.33,4.57-2.66,.13-.32-.52-.69-.52-.69l-1.8,.13s1.12-.73,.73-1.06-.97-.16-.97-.16c0,0-.08-.65-1.05-.76-.97-.12-1.48-.11-1.48-.11,0,0-.4-.44-1.02-.52-.61-.08-1.39-.03-1.39-.03,0,0-.21-.28-.92-.44l-.71-.16-3.22,2.57s3.27-2.89,2.15-2.89c-1.12,0-1.7,.25-1.7,.25,0,0,.64-.41-.23-.48-.87-.08-1.62,.21-1.62,.21l-.71-.12-1.14-.15c-.78-.1-1.57,.15-1.63,.52l-.05,.33-.05-.32c-.06-.37-.85-.62-1.63-.52l-1.14,.15-.71,.12s-.74-.28-1.62-.2c-.87,.08-.23,.49-.23,.49,0,0-.58-.24-1.7-.24-1.12,0,2.17,2.88,2.17,2.88l-3.25-2.55-.71,.16c-.71,.16-.92,.45-.92,.45,0,0-.77-.04-1.39,.04-.61,.08-1.01,.53-1.01,.53,0,0-.52,0-1.48,.12-.96,.12-1.04,.77-1.04,.77,0,0-.59-.16-.97,.16s.74,1.05,.74,1.05l-1.8-.12s-.65,.36-.51,.69c.14,.32,4.59,2.63,4.59,2.63,0,0-5.07-1.84-6.26-1.57-1.39,.32-.69,1.59-.69,1.59,0,0-2.02,.47-2.08,.96-.06,.49,.7,1.27,.7,1.27,0,0-.98,.78-.69,1.27,.29,.49,1.76,.69,1.76,.69,0,0-.71,.12-.49,.49,.22,.36,1.34,1.13,1.34,1.13,0,0,.65,.36,1.4,.61,.75,.24,5.47-1.88,5.47-1.88l-4.84,3s1.65,.65,2.34,.65,4.76-2.31,4.76-2.31l-3.25,2.67s.25,.08,.65,.36c.4,.28,3.49,.49,3.49,.49,0,0,.14,.28,2.34,.69,2.2,.4,3.28,0,3.28,0,0,0,1.16,.45,2.03,.4,.87-.04-.61-2.19-.61-2.19Z"/><path class="n" d="M61.97,52.16c.38,.18,1.98,.9,2.84,.59,.98-.35,.17-1,.17-1,0,0,2.28,.19,2.39,.02,.11-.17,.21-.22,.21-.22l-2.48-1.09s2.78,.86,3.13,.81c.35-.05,.97-.48,.97-.48l-3.39-1.14s3.6,.98,3.9,.81c.3-.17,.51-.4,.51-.4,0,0,.32-.46,.31-.65,0-.19-.4-.21-.4-.21,0,0,.95-.2,.95-.46,0-.26-.26-.33-.26-.33,0,0,.63-.47,.45-.7-.18-.24-.63-.57-.63-.57,0,0,.63-.87-.41-1.13-.59-.15-3.95,1.52-3.95,1.52,0,0,3.37-2.09,3.33-2.26s-.48-.3-.48-.3l-.87,.18s.33-.44,.04-.57c-.3-.13-.54-.01-.54-.01,0,0-.24-.31-.77-.31-.52,0-.78,.04-.78,.04,0,0-.34-.19-.68-.19-.33,0-.71,.08-.71,.08,0,0-.19-.13-.6-.16l-.41-.03-.82,1.48s.74-1.65,.18-1.57c-.57,.08-.78,.24-.78,.24,0,0,.2-.24-.27-.22-.07,0-.13,.01-.19,.02-.06,0-.12-.02-.19-.02-.47-.02-.27,.23-.27,.23,0,0-.21-.16-.78-.23-.57-.08,.19,1.57,.19,1.57l-.84-1.48-.41,.03c-.41,.03-.6,.16-.6,.16,0,0-.38-.07-.71-.07-.33,0-.67,.19-.67,.19,0,0-.26-.03-.79-.04-.52,0-.76,.31-.76,.31,0,0-.24-.12-.54,.02-.29,.13,.04,.57,.04,.57l-.87-.18s-.44,.14-.47,.31c-.03,.17,3.35,2.24,3.35,2.24,0,0-3.37-1.65-3.97-1.49-1.03,.27-.4,1.14-.4,1.14,0,0-.45,.34-.63,.58-.18,.24,.45,.7,.45,.7,0,0-.25,.08-.26,.34,0,.26,.95,.45,.95,.45,0,0-.39,.01-.4,.21,0,.19,.32,.65,.32,.65,0,0,.21,.22,.51,.39s3.89-.83,3.89-.83l-3.38,1.16s.63,.43,.98,.48c.35,.05,3.12-.82,3.12-.82l-2.47,1.1s.1,.06,.21,.22c.11,.17,2.39-.03,2.39-.03,0,0-.81,.66,.17,1,.86,.3,2.45-.42,2.83-.61Z"/><path class="c" d="M61.96,50.61c.17,.11,.91,.53,1.31,.35,.45-.21,.08-.6,.08-.6,0,0,1.06,.11,1.11,.01,.05-.1,.1-.13,.1-.13l-1.15-.65s1.29,.51,1.45,.48c.16-.03,.45-.29,.45-.29l-1.57-.68s1.67,.58,1.8,.48c.14-.1,.24-.23,.24-.23,0,0,.15-.27,.14-.39,0-.12-.19-.12-.19-.12,0,0,.44-.12,.44-.27,0-.15-.12-.2-.12-.2,0,0,.29-.28,.21-.42-.08-.14-.29-.34-.29-.34,0,0,.29-.51-.19-.67-.28-.09-1.83,.9-1.83,.9,0,0,1.55-1.24,1.54-1.34s-.22-.18-.22-.18l-.4,.11s.15-.26,.02-.34c-.14-.08-.25,0-.25,0,0,0-.11-.19-.36-.18-.24,0-.36,.03-.36,.03,0,0-.16-.11-.31-.11-.15,0-.33,.04-.33,.04,0,0-.09-.07-.28-.09l-.19-.02-.38,.88s.34-.98,.08-.93c-.26,.05-.36,.14-.36,.14,0,0,.09-.14-.12-.13-.03,0-.06,0-.09,.01-.03,0-.06,0-.09-.01-.22-.01-.12,.13-.12,.13,0,0-.1-.09-.36-.14-.26-.04,.09,.93,.09,.93l-.39-.88-.19,.02c-.19,.02-.28,.09-.28,.09,0,0-.17-.04-.33-.04-.15,0-.31,.11-.31,.11,0,0-.12-.02-.36-.02-.24,0-.35,.18-.35,.18,0,0-.11-.07-.25,0-.14,.08,.02,.34,.02,.34l-.4-.11s-.2,.08-.22,.18c-.02,.1,1.55,1.33,1.55,1.33,0,0-1.56-.98-1.83-.89-.48,.16-.18,.67-.18,.67,0,0-.21,.2-.29,.34-.08,.14,.21,.41,.21,.41,0,0-.12,.04-.12,.2,0,.15,.44,.27,.44,.27,0,0-.18,0-.18,.12,0,.12,.15,.39,.15,.39,0,0,.1,.13,.24,.23s1.8-.49,1.8-.49l-1.56,.69s.29,.26,.45,.28c.16,.03,1.44-.49,1.44-.49l-1.14,.65s.05,.03,.1,.13c.05,.1,1.11-.02,1.11-.02,0,0-.37,.39,.08,.59,.4,.18,1.13-.25,1.31-.36Z"/><path class="b" d="M65.39,46.15s5.66-1.81,5.15-2.2-5.15,2.2-5.15,2.2Z"/><path class="b" d="M66.58,48.27s6.87,.3,7.04-.14-7.04,.14-7.04,.14Z"/><path class="b" d="M65.5,50.29s4.38,2.43,5.19,2.16-5.19-2.16-5.19-2.16Z"/><path class="b" d="M59.72,46.17s-5.68-1.78-5.17-2.17,5.17,2.17,5.17,2.17Z"/><path class="b" d="M58.54,48.29s-6.86,.34-7.04-.11,7.04,.11,7.04,.11Z"/><path class="b" d="M59.65,50.3s-4.36,2.45-5.17,2.19,5.17-2.19,5.17-2.19Z"/><path class="b" d="M62.65,50.74s.83,3.12-.15,3.21,.15-3.21,.15-3.21Z"/><path class="b" d="M62.63,45.72s.8-3.13-.17-3.21,.17,3.21,.17,3.21Z"/><path class="m" d="M37.84,48.76s2.85,7.54,19.83,8.68c0,0-11.6-.36,1.65,1.35-2.04,.16-22.2-1.37-21.49-10.03Z"/></g><g><ellipse class="i" cx="47.88" cy="71.36" rx="23.63" ry="9.49" transform="translate(-.16 .11) rotate(-.13)"/><ellipse class="d" cx="47.88" cy="70.09" rx="23.63" ry="9.49" transform="translate(-.16 .11) rotate(-.13)"/><ellipse class="k" cx="47.88" cy="70.09" rx="22.58" ry="9.19" transform="translate(-.16 .11) rotate(-.13)"/><path class="g" d="M46.07,76.64s.55,.58,1.12,1.15c.19,.18,.65,.19,.93,.09,.28,.1,.75,.09,.93-.1,.56-.56,1.11-1.15,1.11-1.15,0,0-1.46,2.15-.59,2.19,.87,.04,2.02-.42,2.02-.42,0,0,1.09,.4,3.28-.02,2.2-.42,2.33-.7,2.33-.7,0,0,3.09-.22,3.48-.5,.4-.29,.65-.37,.65-.37l-3.27-2.66s4.09,2.29,4.78,2.28,2.34-.66,2.34-.66l-4.87-2.97s4.74,2.09,5.49,1.85c.75-.25,1.39-.61,1.39-.61,0,0,1.11-.78,1.33-1.14,.21-.37-.49-.48-.49-.48,0,0,1.47-.21,1.76-.7,.29-.49-.7-1.27-.7-1.27,0,0,.75-.78,.69-1.27s-2.09-.95-2.09-.95c0,0,.69-1.27-.7-1.58-1.19-.27-6.25,1.6-6.25,1.6,0,0,4.44-2.33,4.57-2.66,.13-.32-.52-.69-.52-.69l-1.8,.13s1.12-.73,.73-1.06-.97-.16-.97-.16c0,0-.08-.65-1.05-.76-.97-.12-1.48-.11-1.48-.11,0,0-.4-.44-1.02-.52-.61-.08-1.39-.03-1.39-.03,0,0-.21-.28-.92-.44l-.71-.16-3.22,2.57s3.27-2.89,2.15-2.89c-1.12,0-1.7,.25-1.7,.25,0,0,.64-.41-.23-.48-.87-.08-1.62,.21-1.62,.21l-.71-.12-1.14-.15c-.78-.1-1.57,.15-1.63,.52l-.05,.33-.05-.32c-.06-.37-.85-.62-1.63-.52l-1.14,.15-.71,.12s-.74-.28-1.62-.2c-.87,.08-.23,.49-.23,.49,0,0-.58-.24-1.7-.24-1.12,0,2.17,2.88,2.17,2.88l-3.25-2.55-.71,.16c-.71,.16-.92,.45-.92,.45,0,0-.77-.04-1.39,.04-.61,.08-1.01,.53-1.01,.53,0,0-.52,0-1.48,.12-.96,.12-1.04,.77-1.04,.77,0,0-.59-.16-.97,.16s.74,1.05,.74,1.05l-1.8-.12s-.65,.36-.51,.69c.14,.32,4.59,2.63,4.59,2.63,0,0-5.07-1.84-6.26-1.57-1.39,.32-.69,1.59-.69,1.59,0,0-2.02,.47-2.08,.96-.06,.49,.7,1.27,.7,1.27,0,0-.98,.78-.69,1.27,.29,.49,1.76,.69,1.76,.69,0,0-.71,.12-.49,.49,.22,.36,1.34,1.13,1.34,1.13,0,0,.65,.36,1.4,.61,.75,.24,5.47-1.88,5.47-1.88l-4.84,3s1.65,.65,2.34,.65,4.76-2.31,4.76-2.31l-3.25,2.67s.25,.08,.65,.36c.4,.28,3.49,.49,3.49,.49,0,0,.14,.28,2.34,.69,2.2,.4,3.28,0,3.28,0,0,0,1.16,.45,2.03,.4,.87-.04-.61-2.19-.61-2.19Z"/><path class="n" d="M48.44,74.19c.38,.18,1.98,.9,2.84,.59,.98-.35,.17-1,.17-1,0,0,2.28,.19,2.39,.02,.11-.17,.21-.22,.21-.22l-2.48-1.09s2.78,.86,3.13,.81c.35-.05,.97-.48,.97-.48l-3.39-1.14s3.6,.98,3.9,.81c.3-.17,.51-.4,.51-.4,0,0,.32-.46,.31-.65,0-.19-.4-.21-.4-.21,0,0,.95-.2,.95-.46,0-.26-.26-.33-.26-.33,0,0,.63-.47,.45-.7-.18-.24-.63-.57-.63-.57,0,0,.63-.87-.41-1.13-.59-.15-3.95,1.52-3.95,1.52,0,0,3.37-2.09,3.33-2.26s-.48-.3-.48-.3l-.87,.18s.33-.44,.04-.57c-.3-.13-.54-.01-.54-.01,0,0-.24-.31-.77-.31-.52,0-.78,.04-.78,.04,0,0-.34-.19-.68-.19-.33,0-.71,.08-.71,.08,0,0-.19-.13-.6-.16l-.41-.03-.82,1.48s.74-1.65,.18-1.57c-.57,.08-.78,.24-.78,.24,0,0,.2-.24-.27-.22-.07,0-.13,.01-.19,.02-.06,0-.12-.02-.19-.02-.47-.02-.27,.23-.27,.23,0,0-.21-.16-.78-.23-.57-.08,.19,1.57,.19,1.57l-.84-1.48-.41,.03c-.41,.03-.6,.16-.6,.16,0,0-.38-.07-.71-.07-.33,0-.67,.19-.67,.19,0,0-.26-.03-.79-.04-.52,0-.76,.31-.76,.31,0,0-.24-.12-.54,.02-.29,.13,.04,.57,.04,.57l-.87-.18s-.44,.14-.47,.31c-.03,.17,3.35,2.24,3.35,2.24,0,0-3.37-1.65-3.97-1.49-1.03,.27-.4,1.14-.4,1.14,0,0-.45,.34-.63,.58-.18,.24,.45,.7,.45,.7,0,0-.25,.08-.26,.34,0,.26,.95,.45,.95,.45,0,0-.39,.01-.4,.21,0,.19,.32,.65,.32,.65,0,0,.21,.22,.51,.39s3.89-.83,3.89-.83l-3.38,1.16s.63,.43,.98,.48c.35,.05,3.12-.82,3.12-.82l-2.47,1.1s.1,.06,.21,.22c.11,.17,2.39-.03,2.39-.03,0,0-.81,.66,.17,1,.86,.3,2.45-.42,2.83-.61Z"/><path class="c" d="M48.43,72.64c.17,.11,.91,.53,1.31,.35,.45-.21,.08-.6,.08-.6,0,0,1.06,.11,1.11,.01,.05-.1,.1-.13,.1-.13l-1.15-.65s1.29,.51,1.45,.48c.16-.03,.45-.29,.45-.29l-1.57-.68s1.67,.58,1.8,.48c.14-.1,.24-.23,.24-.23,0,0,.15-.27,.14-.39,0-.12-.19-.12-.19-.12,0,0,.44-.12,.44-.27,0-.15-.12-.2-.12-.2,0,0,.29-.28,.21-.42-.08-.14-.29-.34-.29-.34,0,0,.29-.51-.19-.67-.28-.09-1.83,.9-1.83,.9,0,0,1.55-1.24,1.54-1.34s-.22-.18-.22-.18l-.4,.11s.15-.26,.02-.34c-.14-.08-.25,0-.25,0,0,0-.11-.19-.36-.18-.24,0-.36,.03-.36,.03,0,0-.16-.11-.31-.11-.15,0-.33,.04-.33,.04,0,0-.09-.07-.28-.09l-.19-.02-.38,.88s.34-.98,.08-.93c-.26,.05-.36,.14-.36,.14,0,0,.09-.14-.12-.13-.03,0-.06,0-.09,.01-.03,0-.06,0-.09-.01-.22-.01-.12,.13-.12,.13,0,0-.1-.09-.36-.14-.26-.04,.09,.93,.09,.93l-.39-.88-.19,.02c-.19,.02-.28,.09-.28,.09,0,0-.17-.04-.33-.04-.15,0-.31,.11-.31,.11,0,0-.12-.02-.36-.02-.24,0-.35,.18-.35,.18,0,0-.11-.07-.25,0-.14,.08,.02,.34,.02,.34l-.4-.11s-.2,.08-.22,.18c-.02,.1,1.55,1.33,1.55,1.33,0,0-1.56-.98-1.83-.89-.48,.16-.18,.67-.18,.67,0,0-.21,.2-.29,.34-.08,.14,.21,.41,.21,.41,0,0-.12,.04-.12,.2,0,.15,.44,.27,.44,.27,0,0-.18,0-.18,.12,0,.12,.15,.39,.15,.39,0,0,.1,.13,.24,.23s1.8-.49,1.8-.49l-1.56,.69s.29,.26,.45,.28c.16,.03,1.44-.49,1.44-.49l-1.14,.65s.05,.03,.1,.13c.05,.1,1.11-.02,1.11-.02,0,0-.37,.39,.08,.59,.4,.18,1.13-.25,1.31-.36Z"/><path class="b" d="M51.86,68.18s5.66-1.81,5.15-2.2-5.15,2.2-5.15,2.2Z"/><path class="b" d="M53.05,70.3s6.87,.3,7.04-.14-7.04,.14-7.04,.14Z"/><path class="b" d="M51.96,72.32s4.38,2.43,5.19,2.16-5.19-2.16-5.19-2.16Z"/><path class="b" d="M46.18,68.2s-5.68-1.78-5.17-2.17,5.17,2.17,5.17,2.17Z"/><path class="b" d="M45.01,70.32s-6.86,.34-7.04-.11,7.04,.11,7.04,.11Z"/><path class="b" d="M46.12,72.33s-4.36,2.45-5.17,2.19,5.17-2.19,5.17-2.19Z"/><path class="b" d="M49.12,72.78s.83,3.12-.15,3.21,.15-3.21,.15-3.21Z"/><path class="b" d="M49.1,67.75s.8-3.13-.17-3.21,.17,3.21,.17,3.21Z"/><path class="m" d="M24.31,70.79s2.85,7.54,19.83,8.68c0,0-11.6-.36,1.65,1.35-2.04,.16-22.2-1.37-21.49-10.03Z"/></g><g><ellipse class="h" cx="51.76" cy="83.71" rx="23.63" ry="9.49" transform="translate(-.19 .12) rotate(-.13)"/><ellipse class="d" cx="51.75" cy="82.45" rx="23.63" ry="9.49" transform="translate(-.18 .12) rotate(-.13)"/><ellipse class="k" cx="51.75" cy="82.45" rx="22.58" ry="9.19" transform="translate(-.18 .12) rotate(-.13)"/><path class="f" d="M49.95,88.99s.55,.58,1.12,1.15c.19,.18,.65,.19,.93,.09,.28,.1,.75,.09,.93-.1,.56-.56,1.11-1.15,1.11-1.15,0,0-1.46,2.15-.59,2.19,.87,.04,2.02-.42,2.02-.42,0,0,1.09,.4,3.28-.02,2.2-.42,2.33-.7,2.33-.7,0,0,3.09-.22,3.48-.5,.4-.29,.65-.37,.65-.37l-3.27-2.66s4.09,2.29,4.78,2.28,2.34-.66,2.34-.66l-4.87-2.97s4.74,2.09,5.49,1.85c.75-.25,1.39-.61,1.39-.61,0,0,1.11-.78,1.33-1.14,.21-.37-.49-.48-.49-.48,0,0,1.47-.21,1.76-.7,.29-.49-.7-1.27-.7-1.27,0,0,.75-.78,.69-1.27s-2.09-.95-2.09-.95c0,0,.69-1.27-.7-1.58-1.19-.27-6.25,1.6-6.25,1.6,0,0,4.44-2.33,4.57-2.66,.13-.32-.52-.69-.52-.69l-1.8,.13s1.12-.73,.73-1.06-.97-.16-.97-.16c0,0-.08-.65-1.05-.76-.97-.12-1.48-.11-1.48-.11,0,0-.4-.44-1.02-.52-.61-.08-1.39-.03-1.39-.03,0,0-.21-.28-.92-.44l-.71-.16-3.22,2.57s3.27-2.89,2.15-2.89c-1.12,0-1.7,.25-1.7,.25,0,0,.64-.41-.23-.48-.87-.08-1.62,.21-1.62,.21l-.71-.12-1.14-.15c-.78-.1-1.57,.15-1.63,.52l-.05,.33-.05-.32c-.06-.37-.85-.62-1.63-.52l-1.14,.15-.71,.12s-.74-.28-1.62-.2c-.87,.08-.23,.49-.23,.49,0,0-.58-.24-1.7-.24-1.12,0,2.17,2.88,2.17,2.88l-3.25-2.55-.71,.16c-.71,.16-.92,.45-.92,.45,0,0-.77-.04-1.39,.04-.61,.08-1.01,.53-1.01,.53,0,0-.52,0-1.48,.12-.96,.12-1.04,.77-1.04,.77,0,0-.59-.16-.97,.16s.74,1.05,.74,1.05l-1.8-.12s-.65,.36-.51,.69c.14,.32,4.59,2.63,4.59,2.63,0,0-5.07-1.84-6.26-1.57-1.39,.32-.69,1.59-.69,1.59,0,0-2.02,.47-2.08,.96-.06,.49,.7,1.27,.7,1.27,0,0-.98,.78-.69,1.27,.29,.49,1.76,.69,1.76,.69,0,0-.71,.12-.49,.49,.22,.36,1.34,1.13,1.34,1.13,0,0,.65,.36,1.4,.61,.75,.24,5.47-1.88,5.47-1.88l-4.84,3s1.65,.65,2.34,.65,4.76-2.31,4.76-2.31l-3.25,2.67s.25,.08,.65,.36c.4,.28,3.49,.49,3.49,.49,0,0,.14,.28,2.34,.69,2.2,.4,3.28,0,3.28,0,0,0,1.16,.45,2.03,.4,.87-.04-.61-2.19-.61-2.19Z"/><path class="n" d="M52.31,86.54c.38,.18,1.98,.9,2.84,.59,.98-.35,.17-1,.17-1,0,0,2.28,.19,2.39,.02,.11-.17,.21-.22,.21-.22l-2.48-1.09s2.78,.86,3.13,.81c.35-.05,.97-.48,.97-.48l-3.39-1.14s3.6,.98,3.9,.81c.3-.17,.51-.4,.51-.4,0,0,.32-.46,.31-.65,0-.19-.4-.21-.4-.21,0,0,.95-.2,.95-.46,0-.26-.26-.33-.26-.33,0,0,.63-.47,.45-.7-.18-.24-.63-.57-.63-.57,0,0,.63-.87-.41-1.13-.59-.15-3.95,1.52-3.95,1.52,0,0,3.37-2.09,3.33-2.26s-.48-.3-.48-.3l-.87,.18s.33-.44,.04-.57c-.3-.13-.54-.01-.54-.01,0,0-.24-.31-.77-.31-.52,0-.78,.04-.78,.04,0,0-.34-.19-.68-.19-.33,0-.71,.08-.71,.08,0,0-.19-.13-.6-.16l-.41-.03-.82,1.48s.74-1.65,.18-1.57c-.57,.08-.78,.24-.78,.24,0,0,.2-.24-.27-.22-.07,0-.13,.01-.19,.02-.06,0-.12-.02-.19-.02-.47-.02-.27,.23-.27,.23,0,0-.21-.16-.78-.23-.57-.08,.19,1.57,.19,1.57l-.84-1.48-.41,.03c-.41,.03-.6,.16-.6,.16,0,0-.38-.07-.71-.07-.33,0-.67,.19-.67,.19,0,0-.26-.03-.79-.04-.52,0-.76,.31-.76,.31,0,0-.24-.12-.54,.02-.29,.13,.04,.57,.04,.57l-.87-.18s-.44,.14-.47,.31c-.03,.17,3.35,2.24,3.35,2.24,0,0-3.37-1.65-3.97-1.49-1.03,.27-.4,1.14-.4,1.14,0,0-.45,.34-.63,.58-.18,.24,.45,.7,.45,.7,0,0-.25,.08-.26,.34,0,.26,.95,.45,.95,.45,0,0-.39,.01-.4,.21,0,.19,.32,.65,.32,.65,0,0,.21,.22,.51,.39s3.89-.83,3.89-.83l-3.38,1.16s.63,.43,.98,.48c.35,.05,3.12-.82,3.12-.82l-2.47,1.1s.1,.06,.21,.22c.11,.17,2.39-.03,2.39-.03,0,0-.81,.66,.17,1,.86,.3,2.45-.42,2.83-.61Z"/><path class="c" d="M52.31,85c.17,.11,.91,.53,1.31,.35,.45-.21,.08-.6,.08-.6,0,0,1.06,.11,1.11,.01,.05-.1,.1-.13,.1-.13l-1.15-.65s1.29,.51,1.45,.48c.16-.03,.45-.29,.45-.29l-1.57-.68s1.67,.58,1.8,.48c.14-.1,.24-.23,.24-.23,0,0,.15-.27,.14-.39,0-.12-.19-.12-.19-.12,0,0,.44-.12,.44-.27,0-.15-.12-.2-.12-.2,0,0,.29-.28,.21-.42-.08-.14-.29-.34-.29-.34,0,0,.29-.51-.19-.67-.28-.09-1.83,.9-1.83,.9,0,0,1.55-1.24,1.54-1.34s-.22-.18-.22-.18l-.4,.11s.15-.26,.02-.34c-.14-.08-.25,0-.25,0,0,0-.11-.19-.36-.18-.24,0-.36,.03-.36,.03,0,0-.16-.11-.31-.11-.15,0-.33,.04-.33,.04,0,0-.09-.07-.28-.09l-.19-.02-.38,.88s.34-.98,.08-.93c-.26,.05-.36,.14-.36,.14,0,0,.09-.14-.12-.13-.03,0-.06,0-.09,.01-.03,0-.06,0-.09-.01-.22-.01-.12,.13-.12,.13,0,0-.1-.09-.36-.14-.26-.04,.09,.93,.09,.93l-.39-.88-.19,.02c-.19,.02-.28,.09-.28,.09,0,0-.17-.04-.33-.04-.15,0-.31,.11-.31,.11,0,0-.12-.02-.36-.02-.24,0-.35,.18-.35,.18,0,0-.11-.07-.25,0-.14,.08,.02,.34,.02,.34l-.4-.11s-.2,.08-.22,.18c-.02,.1,1.55,1.33,1.55,1.33,0,0-1.56-.98-1.83-.89-.48,.16-.18,.67-.18,.67,0,0-.21,.2-.29,.34-.08,.14,.21,.41,.21,.41,0,0-.12,.04-.12,.2,0,.15,.44,.27,.44,.27,0,0-.18,0-.18,.12,0,.12,.15,.39,.15,.39,0,0,.1,.13,.24,.23s1.8-.49,1.8-.49l-1.56,.69s.29,.26,.45,.28c.16,.03,1.44-.49,1.44-.49l-1.14,.65s.05,.03,.1,.13c.05,.1,1.11-.02,1.11-.02,0,0-.37,.39,.08,.59,.4,.18,1.13-.25,1.31-.36Z"/><path class="b" d="M55.74,80.53s5.66-1.81,5.15-2.2-5.15,2.2-5.15,2.2Z"/><path class="b" d="M56.93,82.65s6.87,.3,7.04-.14-7.04,.14-7.04,.14Z"/><path class="b" d="M55.84,84.67s4.38,2.43,5.19,2.16-5.19-2.16-5.19-2.16Z"/><path class="b" d="M50.06,80.55s-5.68-1.78-5.17-2.17,5.17,2.17,5.17,2.17Z"/><path class="b" d="M48.89,82.67s-6.86,.34-7.04-.11,7.04,.11,7.04,.11Z"/><path class="b" d="M49.99,84.68s-4.36,2.45-5.17,2.19,5.17-2.19,5.17-2.19Z"/><path class="b" d="M53,85.13s.83,3.12-.15,3.21,.15-3.21,.15-3.21Z"/><path class="b" d="M52.97,80.1s.8-3.13-.17-3.21,.17,3.21,.17,3.21Z"/><path class="m" d="M28.18,83.14s2.85,7.54,19.83,8.68c0,0-11.6-.36,1.65,1.35-2.04,.16-22.2-1.37-21.49-10.03Z"/></g><g><ellipse class="i" cx="68.51" cy="94.66" rx="23.63" ry="9.49" transform="translate(-.21 .15) rotate(-.13)"/><ellipse class="d" cx="68.5" cy="93.39" rx="23.63" ry="9.49" transform="translate(-.21 .15) rotate(-.13)"/><ellipse class="k" cx="68.5" cy="93.39" rx="22.58" ry="9.19" transform="translate(-.21 .15) rotate(-.13)"/><path class="f" d="M66.7,99.94s.55,.58,1.12,1.15c.19,.18,.65,.19,.93,.09,.28,.1,.75,.09,.93-.1,.56-.56,1.11-1.15,1.11-1.15,0,0-1.46,2.15-.59,2.19,.87,.04,2.02-.42,2.02-.42,0,0,1.09,.4,3.28-.02,2.2-.42,2.33-.7,2.33-.7,0,0,3.09-.22,3.48-.5,.4-.29,.65-.37,.65-.37l-3.27-2.66s4.09,2.29,4.78,2.28,2.34-.66,2.34-.66l-4.87-2.97s4.74,2.09,5.49,1.85c.75-.25,1.39-.61,1.39-.61,0,0,1.11-.78,1.33-1.14,.21-.37-.49-.48-.49-.48,0,0,1.47-.21,1.76-.7,.29-.49-.7-1.27-.7-1.27,0,0,.75-.78,.69-1.27s-2.09-.95-2.09-.95c0,0,.69-1.27-.7-1.58-1.19-.27-6.25,1.6-6.25,1.6,0,0,4.44-2.33,4.57-2.66,.13-.32-.52-.69-.52-.69l-1.8,.13s1.12-.73,.73-1.06-.97-.16-.97-.16c0,0-.08-.65-1.05-.76-.97-.12-1.48-.11-1.48-.11,0,0-.4-.44-1.02-.52-.61-.08-1.39-.03-1.39-.03,0,0-.21-.28-.92-.44l-.71-.16-3.22,2.57s3.27-2.89,2.15-2.89c-1.12,0-1.7,.25-1.7,.25,0,0,.64-.41-.23-.48-.87-.08-1.62,.21-1.62,.21l-.71-.12-1.14-.15c-.78-.1-1.57,.15-1.63,.52l-.05,.33-.05-.32c-.06-.37-.85-.62-1.63-.52l-1.14,.15-.71,.12s-.74-.28-1.62-.2c-.87,.08-.23,.49-.23,.49,0,0-.58-.24-1.7-.24-1.12,0,2.17,2.88,2.17,2.88l-3.25-2.55-.71,.16c-.71,.16-.92,.45-.92,.45,0,0-.77-.04-1.39,.04-.61,.08-1.01,.53-1.01,.53,0,0-.52,0-1.48,.12-.96,.12-1.04,.77-1.04,.77,0,0-.59-.16-.97,.16s.74,1.05,.74,1.05l-1.8-.12s-.65,.36-.51,.69c.14,.32,4.59,2.63,4.59,2.63,0,0-5.07-1.84-6.26-1.57-1.39,.32-.69,1.59-.69,1.59,0,0-2.02,.47-2.08,.96-.06,.49,.7,1.27,.7,1.27,0,0-.98,.78-.69,1.27,.29,.49,1.76,.69,1.76,.69,0,0-.71,.12-.49,.49,.22,.36,1.34,1.13,1.34,1.13,0,0,.65,.36,1.4,.61,.75,.24,5.47-1.88,5.47-1.88l-4.84,3s1.65,.65,2.34,.65,4.76-2.31,4.76-2.31l-3.25,2.67s.25,.08,.65,.36c.4,.28,3.49,.49,3.49,.49,0,0,.14,.28,2.34,.69,2.2,.4,3.28,0,3.28,0,0,0,1.16,.45,2.03,.4,.87-.04-.61-2.19-.61-2.19Z"/><path class="n" d="M69.06,97.49c.38,.18,1.98,.9,2.84,.59,.98-.35,.17-1,.17-1,0,0,2.28,.19,2.39,.02,.11-.17,.21-.22,.21-.22l-2.48-1.09s2.78,.86,3.13,.81c.35-.05,.97-.48,.97-.48l-3.39-1.14s3.6,.98,3.9,.81c.3-.17,.51-.4,.51-.4,0,0,.32-.46,.31-.65,0-.19-.4-.21-.4-.21,0,0,.95-.2,.95-.46,0-.26-.26-.33-.26-.33,0,0,.63-.47,.45-.7-.18-.24-.63-.57-.63-.57,0,0,.63-.87-.41-1.13-.59-.15-3.95,1.52-3.95,1.52,0,0,3.37-2.09,3.33-2.26s-.48-.3-.48-.3l-.87,.18s.33-.44,.04-.57c-.3-.13-.54-.01-.54-.01,0,0-.24-.31-.77-.31-.52,0-.78,.04-.78,.04,0,0-.34-.19-.68-.19-.33,0-.71,.08-.71,.08,0,0-.19-.13-.6-.16l-.41-.03-.82,1.48s.74-1.65,.18-1.57c-.57,.08-.78,.24-.78,.24,0,0,.2-.24-.27-.22-.07,0-.13,.01-.19,.02-.06,0-.12-.02-.19-.02-.47-.02-.27,.23-.27,.23,0,0-.21-.16-.78-.23-.57-.08,.19,1.57,.19,1.57l-.84-1.48-.41,.03c-.41,.03-.6,.16-.6,.16,0,0-.38-.07-.71-.07-.33,0-.67,.19-.67,.19,0,0-.26-.03-.79-.04-.52,0-.76,.31-.76,.31,0,0-.24-.12-.54,.02-.29,.13,.04,.57,.04,.57l-.87-.18s-.44,.14-.47,.31c-.03,.17,3.35,2.24,3.35,2.24,0,0-3.37-1.65-3.97-1.49-1.03,.27-.4,1.14-.4,1.14,0,0-.45,.34-.63,.58-.18,.24,.45,.7,.45,.7,0,0-.25,.08-.26,.34,0,.26,.95,.45,.95,.45,0,0-.39,.01-.4,.21,0,.19,.32,.65,.32,.65,0,0,.21,.22,.51,.39s3.89-.83,3.89-.83l-3.38,1.16s.63,.43,.98,.48c.35,.05,3.12-.82,3.12-.82l-2.47,1.1s.1,.06,.21,.22c.11,.17,2.39-.03,2.39-.03,0,0-.81,.66,.17,1,.86,.3,2.45-.42,2.83-.61Z"/><path class="c" d="M69.06,95.94c.17,.11,.91,.53,1.31,.35,.45-.21,.08-.6,.08-.6,0,0,1.06,.11,1.11,.01,.05-.1,.1-.13,.1-.13l-1.15-.65s1.29,.51,1.45,.48c.16-.03,.45-.29,.45-.29l-1.57-.68s1.67,.58,1.8,.48c.14-.1,.24-.23,.24-.23,0,0,.15-.27,.14-.39,0-.12-.19-.12-.19-.12,0,0,.44-.12,.44-.27,0-.15-.12-.2-.12-.2,0,0,.29-.28,.21-.42-.08-.14-.29-.34-.29-.34,0,0,.29-.51-.19-.67-.28-.09-1.83,.9-1.83,.9,0,0,1.55-1.24,1.54-1.34s-.22-.18-.22-.18l-.4,.11s.15-.26,.02-.34c-.14-.08-.25,0-.25,0,0,0-.11-.19-.36-.18-.24,0-.36,.03-.36,.03,0,0-.16-.11-.31-.11-.15,0-.33,.04-.33,.04,0,0-.09-.07-.28-.09l-.19-.02-.38,.88s.34-.98,.08-.93c-.26,.05-.36,.14-.36,.14,0,0,.09-.14-.12-.13-.03,0-.06,0-.09,.01-.03,0-.06,0-.09-.01-.22-.01-.12,.13-.12,.13,0,0-.1-.09-.36-.14-.26-.04,.09,.93,.09,.93l-.39-.88-.19,.02c-.19,.02-.28,.09-.28,.09,0,0-.17-.04-.33-.04-.15,0-.31,.11-.31,.11,0,0-.12-.02-.36-.02-.24,0-.35,.18-.35,.18,0,0-.11-.07-.25,0-.14,.08,.02,.34,.02,.34l-.4-.11s-.2,.08-.22,.18c-.02,.1,1.55,1.33,1.55,1.33,0,0-1.56-.98-1.83-.89-.48,.16-.18,.67-.18,.67,0,0-.21,.2-.29,.34-.08,.14,.21,.41,.21,.41,0,0-.12,.04-.12,.2,0,.15,.44,.27,.44,.27,0,0-.18,0-.18,.12,0,.12,.15,.39,.15,.39,0,0,.1,.13,.24,.23s1.8-.49,1.8-.49l-1.56,.69s.29,.26,.45,.28c.16,.03,1.44-.49,1.44-.49l-1.14,.65s.05,.03,.1,.13c.05,.1,1.11-.02,1.11-.02,0,0-.37,.39,.08,.59,.4,.18,1.13-.25,1.31-.36Z"/><path class="b" d="M72.48,91.48s5.66-1.81,5.15-2.2-5.15,2.2-5.15,2.2Z"/><path class="b" d="M73.68,93.6s6.87,.3,7.04-.14-7.04,.14-7.04,.14Z"/><path class="b" d="M72.59,95.62s4.38,2.43,5.19,2.16-5.19-2.16-5.19-2.16Z"/><path class="b" d="M66.81,91.49s-5.68-1.78-5.17-2.17,5.17,2.17,5.17,2.17Z"/><path class="b" d="M65.64,93.62s-6.86,.34-7.04-.11,7.04,.11,7.04,.11Z"/><path class="b" d="M66.74,95.63s-4.36,2.45-5.17,2.19,5.17-2.19,5.17-2.19Z"/><path class="b" d="M69.75,96.07s.83,3.12-.15,3.21,.15-3.21,.15-3.21Z"/><path class="b" d="M69.72,91.05s.8-3.13-.17-3.21,.17,3.21,.17,3.21Z"/><path class="m" d="M44.93,94.09s2.85,7.54,19.83,8.68c0,0-11.6-.36,1.65,1.35-2.04,.16-22.2-1.37-21.49-10.03Z"/></g><g><ellipse class="i" cx="86.13" cy="102.41" rx="23.63" ry="9.49" transform="translate(-.23 .19) rotate(-.13)"/><ellipse class="d" cx="86.12" cy="101.14" rx="23.63" ry="9.49" transform="translate(-.23 .19) rotate(-.13)"/><ellipse class="l" cx="86.12" cy="101.14" rx="22.58" ry="9.19" transform="translate(-.22 .19) rotate(-.13)"/><path class="e" d="M84.32,107.69s.55,.58,1.12,1.15c.19,.18,.65,.19,.93,.09,.28,.1,.75,.09,.93-.1,.56-.56,1.11-1.15,1.11-1.15,0,0-1.46,2.15-.59,2.19,.87,.04,2.02-.42,2.02-.42,0,0,1.09,.4,3.28-.02,2.2-.42,2.33-.7,2.33-.7,0,0,3.09-.22,3.48-.5,.4-.29,.65-.37,.65-.37l-3.27-2.66s4.09,2.29,4.78,2.28,2.34-.66,2.34-.66l-4.87-2.97s4.74,2.09,5.49,1.85c.75-.25,1.39-.61,1.39-.61,0,0,1.11-.78,1.33-1.14,.21-.37-.49-.48-.49-.48,0,0,1.47-.21,1.76-.7,.29-.49-.7-1.27-.7-1.27,0,0,.75-.78,.69-1.27s-2.09-.95-2.09-.95c0,0,.69-1.27-.7-1.58-1.19-.27-6.25,1.6-6.25,1.6,0,0,4.44-2.33,4.57-2.66,.13-.32-.52-.69-.52-.69l-1.8,.13s1.12-.73,.73-1.06-.97-.16-.97-.16c0,0-.08-.65-1.05-.76-.97-.12-1.48-.11-1.48-.11,0,0-.4-.44-1.02-.52-.61-.08-1.39-.03-1.39-.03,0,0-.21-.28-.92-.44l-.71-.16-3.22,2.57s3.27-2.89,2.15-2.89c-1.12,0-1.7,.25-1.7,.25,0,0,.64-.41-.23-.48-.87-.08-1.62,.21-1.62,.21l-.71-.12-1.14-.15c-.78-.1-1.57,.15-1.63,.52l-.05,.33-.05-.32c-.06-.37-.85-.62-1.63-.52l-1.14,.15-.71,.12s-.74-.28-1.62-.2c-.87,.08-.23,.49-.23,.49,0,0-.58-.24-1.7-.24-1.12,0,2.17,2.88,2.17,2.88l-3.25-2.55-.71,.16c-.71,.16-.92,.45-.92,.45,0,0-.77-.04-1.39,.04-.61,.08-1.01,.53-1.01,.53,0,0-.52,0-1.48,.12-.96,.12-1.04,.77-1.04,.77,0,0-.59-.16-.97,.16s.74,1.05,.74,1.05l-1.8-.12s-.65,.36-.51,.69c.14,.32,4.59,2.63,4.59,2.63,0,0-5.07-1.84-6.26-1.57-1.39,.32-.69,1.59-.69,1.59,0,0-2.02,.47-2.08,.96-.06,.49,.7,1.27,.7,1.27,0,0-.98,.78-.69,1.27,.29,.49,1.76,.69,1.76,.69,0,0-.71,.12-.49,.49,.22,.36,1.34,1.13,1.34,1.13,0,0,.65,.36,1.4,.61,.75,.24,5.47-1.88,5.47-1.88l-4.84,3s1.65,.65,2.34,.65,4.76-2.31,4.76-2.31l-3.25,2.67s.25,.08,.65,.36c.4,.28,3.49,.49,3.49,.49,0,0,.14,.28,2.34,.69,2.2,.4,3.28,0,3.28,0,0,0,1.16,.45,2.03,.4,.87-.04-.61-2.19-.61-2.19Z"/><path class="n" d="M86.68,105.24c.38,.18,1.98,.9,2.84,.59,.98-.35,.17-1,.17-1,0,0,2.28,.19,2.39,.02,.11-.17,.21-.22,.21-.22l-2.48-1.09s2.78,.86,3.13,.81c.35-.05,.97-.48,.97-.48l-3.39-1.14s3.6,.98,3.9,.81c.3-.17,.51-.4,.51-.4,0,0,.32-.46,.31-.65,0-.19-.4-.21-.4-.21,0,0,.95-.2,.95-.46,0-.26-.26-.33-.26-.33,0,0,.63-.47,.45-.7-.18-.24-.63-.57-.63-.57,0,0,.63-.87-.41-1.13-.59-.15-3.95,1.52-3.95,1.52,0,0,3.37-2.09,3.33-2.26s-.48-.3-.48-.3l-.87,.18s.33-.44,.04-.57c-.3-.13-.54-.01-.54-.01,0,0-.24-.31-.77-.31-.52,0-.78,.04-.78,.04,0,0-.34-.19-.68-.19-.33,0-.71,.08-.71,.08,0,0-.19-.13-.6-.16l-.41-.03-.82,1.48s.74-1.65,.18-1.57c-.57,.08-.78,.24-.78,.24,0,0,.2-.24-.27-.22-.07,0-.13,.01-.19,.02-.06,0-.12-.02-.19-.02-.47-.02-.27,.23-.27,.23,0,0-.21-.16-.78-.23-.57-.08,.19,1.57,.19,1.57l-.84-1.48-.41,.03c-.41,.03-.6,.16-.6,.16,0,0-.38-.07-.71-.07-.33,0-.67,.19-.67,.19,0,0-.26-.03-.79-.04-.52,0-.76,.31-.76,.31,0,0-.24-.12-.54,.02-.29,.13,.04,.57,.04,.57l-.87-.18s-.44,.14-.47,.31c-.03,.17,3.35,2.24,3.35,2.24,0,0-3.37-1.65-3.97-1.49-1.03,.27-.4,1.14-.4,1.14,0,0-.45,.34-.63,.58-.18,.24,.45,.7,.45,.7,0,0-.25,.08-.26,.34,0,.26,.95,.45,.95,.45,0,0-.39,.01-.4,.21,0,.19,.32,.65,.32,.65,0,0,.21,.22,.51,.39s3.89-.83,3.89-.83l-3.38,1.16s.63,.43,.98,.48c.35,.05,3.12-.82,3.12-.82l-2.47,1.1s.1,.06,.21,.22c.11,.17,2.39-.03,2.39-.03,0,0-.81,.66,.17,1,.86,.3,2.45-.42,2.83-.61Z"/><path class="c" d="M86.68,103.69c.17,.11,.91,.53,1.31,.35,.45-.21,.08-.6,.08-.6,0,0,1.06,.11,1.11,.01,.05-.1,.1-.13,.1-.13l-1.15-.65s1.29,.51,1.45,.48c.16-.03,.45-.29,.45-.29l-1.57-.68s1.67,.58,1.8,.48c.14-.1,.24-.23,.24-.23,0,0,.15-.27,.14-.39,0-.12-.19-.12-.19-.12,0,0,.44-.12,.44-.27,0-.15-.12-.2-.12-.2,0,0,.29-.28,.21-.42-.08-.14-.29-.34-.29-.34,0,0,.29-.51-.19-.67-.28-.09-1.83,.9-1.83,.9,0,0,1.55-1.24,1.54-1.34s-.22-.18-.22-.18l-.4,.11s.15-.26,.02-.34c-.14-.08-.25,0-.25,0,0,0-.11-.19-.36-.18-.24,0-.36,.03-.36,.03,0,0-.16-.11-.31-.11-.15,0-.33,.04-.33,.04,0,0-.09-.07-.28-.09l-.19-.02-.38,.88s.34-.98,.08-.93c-.26,.05-.36,.14-.36,.14,0,0,.09-.14-.12-.13-.03,0-.06,0-.09,.01-.03,0-.06,0-.09-.01-.22-.01-.12,.13-.12,.13,0,0-.1-.09-.36-.14-.26-.04,.09,.93,.09,.93l-.39-.88-.19,.02c-.19,.02-.28,.09-.28,.09,0,0-.17-.04-.33-.04-.15,0-.31,.11-.31,.11,0,0-.12-.02-.36-.02-.24,0-.35,.18-.35,.18,0,0-.11-.07-.25,0-.14,.08,.02,.34,.02,.34l-.4-.11s-.2,.08-.22,.18c-.02,.1,1.55,1.33,1.55,1.33,0,0-1.56-.98-1.83-.89-.48,.16-.18,.67-.18,.67,0,0-.21,.2-.29,.34-.08,.14,.21,.41,.21,.41,0,0-.12,.04-.12,.2,0,.15,.44,.27,.44,.27,0,0-.18,0-.18,.12,0,.12,.15,.39,.15,.39,0,0,.1,.13,.24,.23s1.8-.49,1.8-.49l-1.56,.69s.29,.26,.45,.28c.16,.03,1.44-.49,1.44-.49l-1.14,.65s.05,.03,.1,.13c.05,.1,1.11-.02,1.11-.02,0,0-.37,.39,.08,.59,.4,.18,1.13-.25,1.31-.36Z"/><path class="b" d="M90.1,99.23s5.66-1.81,5.15-2.2-5.15,2.2-5.15,2.2Z"/><path class="b" d="M91.29,101.35s6.87,.3,7.04-.14-7.04,.14-7.04,.14Z"/><path class="b" d="M90.21,103.37s4.38,2.43,5.19,2.16-5.19-2.16-5.19-2.16Z"/><path class="b" d="M84.43,99.24s-5.68-1.78-5.17-2.17,5.17,2.17,5.17,2.17Z"/><path class="b" d="M83.26,101.37s-6.86,.34-7.04-.11,7.04,.11,7.04,.11Z"/><path class="b" d="M84.36,103.38s-4.36,2.45-5.17,2.19,5.17-2.19,5.17-2.19Z"/><path class="b" d="M87.37,103.82s.83,3.12-.15,3.21,.15-3.21,.15-3.21Z"/><path class="b" d="M87.34,98.8s.8-3.13-.17-3.21,.17,3.21,.17,3.21Z"/><path class="m" d="M62.55,101.84s2.85,7.54,19.83,8.68c0,0-11.6-.36,1.65,1.35-2.04,.16-22.2-1.37-21.49-10.03Z"/></g><g><ellipse class="i" cx="107.79" cy="100.77" rx="23.63" ry="9.49" transform="translate(-.22 .24) rotate(-.13)"/><ellipse class="d" cx="107.79" cy="99.51" rx="23.63" ry="9.49" transform="translate(-.22 .24) rotate(-.13)"/><ellipse class="l" cx="107.79" cy="99.51" rx="22.58" ry="9.19" transform="translate(-.22 .24) rotate(-.13)"/><path class="e" d="M105.98,106.05s.55,.58,1.12,1.15c.19,.18,.65,.19,.93,.09,.28,.1,.75,.09,.93-.1,.56-.56,1.11-1.15,1.11-1.15,0,0-1.46,2.15-.59,2.19,.87,.04,2.02-.42,2.02-.42,0,0,1.09,.4,3.28-.02,2.2-.42,2.33-.7,2.33-.7,0,0,3.09-.22,3.48-.5,.4-.29,.65-.37,.65-.37l-3.27-2.66s4.09,2.29,4.78,2.28,2.34-.66,2.34-.66l-4.87-2.97s4.74,2.09,5.49,1.85c.75-.25,1.39-.61,1.39-.61,0,0,1.11-.78,1.33-1.14,.21-.37-.49-.48-.49-.48,0,0,1.47-.21,1.76-.7,.29-.49-.7-1.27-.7-1.27,0,0,.75-.78,.69-1.27s-2.09-.95-2.09-.95c0,0,.69-1.27-.7-1.58-1.19-.27-6.25,1.6-6.25,1.6,0,0,4.44-2.33,4.57-2.66,.13-.32-.52-.69-.52-.69l-1.8,.13s1.12-.73,.73-1.06-.97-.16-.97-.16c0,0-.08-.65-1.05-.76-.97-.12-1.48-.11-1.48-.11,0,0-.4-.44-1.02-.52-.61-.08-1.39-.03-1.39-.03,0,0-.21-.28-.92-.44l-.71-.16-3.22,2.57s3.27-2.89,2.15-2.89c-1.12,0-1.7,.25-1.7,.25,0,0,.64-.41-.23-.48-.87-.08-1.62,.21-1.62,.21l-.71-.12-1.14-.15c-.78-.1-1.57,.15-1.63,.52l-.05,.33-.05-.32c-.06-.37-.85-.62-1.63-.52l-1.14,.15-.71,.12s-.74-.28-1.62-.2c-.87,.08-.23,.49-.23,.49,0,0-.58-.24-1.7-.24-1.12,0,2.17,2.88,2.17,2.88l-3.25-2.55-.71,.16c-.71,.16-.92,.45-.92,.45,0,0-.77-.04-1.39,.04-.61,.08-1.01,.53-1.01,.53,0,0-.52,0-1.48,.12-.96,.12-1.04,.77-1.04,.77,0,0-.59-.16-.97,.16s.74,1.05,.74,1.05l-1.8-.12s-.65,.36-.51,.69c.14,.32,4.59,2.63,4.59,2.63,0,0-5.07-1.84-6.26-1.57-1.39,.32-.69,1.59-.69,1.59,0,0-2.02,.47-2.08,.96-.06,.49,.7,1.27,.7,1.27,0,0-.98,.78-.69,1.27,.29,.49,1.76,.69,1.76,.69,0,0-.71,.12-.49,.49,.22,.36,1.34,1.13,1.34,1.13,0,0,.65,.36,1.4,.61,.75,.24,5.47-1.88,5.47-1.88l-4.84,3s1.65,.65,2.34,.65,4.76-2.31,4.76-2.31l-3.25,2.67s.25,.08,.65,.36c.4,.28,3.49,.49,3.49,.49,0,0,.14,.28,2.34,.69,2.2,.4,3.28,0,3.28,0,0,0,1.16,.45,2.03,.4,.87-.04-.61-2.19-.61-2.19Z"/><path class="n" d="M108.35,103.6c.38,.18,1.98,.9,2.84,.59,.98-.35,.17-1,.17-1,0,0,2.28,.19,2.39,.02,.11-.17,.21-.22,.21-.22l-2.48-1.09s2.78,.86,3.13,.81c.35-.05,.97-.48,.97-.48l-3.39-1.14s3.6,.98,3.9,.81c.3-.17,.51-.4,.51-.4,0,0,.32-.46,.31-.65,0-.19-.4-.21-.4-.21,0,0,.95-.2,.95-.46,0-.26-.26-.33-.26-.33,0,0,.63-.47,.45-.7-.18-.24-.63-.57-.63-.57,0,0,.63-.87-.41-1.13-.59-.15-3.95,1.52-3.95,1.52,0,0,3.37-2.09,3.33-2.26s-.48-.3-.48-.3l-.87,.18s.33-.44,.04-.57c-.3-.13-.54-.01-.54-.01,0,0-.24-.31-.77-.31-.52,0-.78,.04-.78,.04,0,0-.34-.19-.68-.19-.33,0-.71,.08-.71,.08,0,0-.19-.13-.6-.16l-.41-.03-.82,1.48s.74-1.65,.18-1.57c-.57,.08-.78,.24-.78,.24,0,0,.2-.24-.27-.22-.07,0-.13,.01-.19,.02-.06,0-.12-.02-.19-.02-.47-.02-.27,.23-.27,.23,0,0-.21-.16-.78-.23-.57-.08,.19,1.57,.19,1.57l-.84-1.48-.41,.03c-.41,.03-.6,.16-.6,.16,0,0-.38-.07-.71-.07-.33,0-.67,.19-.67,.19,0,0-.26-.03-.79-.04-.52,0-.76,.31-.76,.31,0,0-.24-.12-.54,.02-.29,.13,.04,.57,.04,.57l-.87-.18s-.44,.14-.47,.31c-.03,.17,3.35,2.24,3.35,2.24,0,0-3.37-1.65-3.97-1.49-1.03,.27-.4,1.14-.4,1.14,0,0-.45,.34-.63,.58-.18,.24,.45,.7,.45,.7,0,0-.25,.08-.26,.34,0,.26,.95,.45,.95,.45,0,0-.39,.01-.4,.21,0,.19,.32,.65,.32,.65,0,0,.21,.22,.51,.39s3.89-.83,3.89-.83l-3.38,1.16s.63,.43,.98,.48c.35,.05,3.12-.82,3.12-.82l-2.47,1.1s.1,.06,.21,.22c.11,.17,2.39-.03,2.39-.03,0,0-.81,.66,.17,1,.86,.3,2.45-.42,2.83-.61Z"/><path class="c" d="M108.34,102.06c.17,.11,.91,.53,1.31,.35,.45-.21,.08-.6,.08-.6,0,0,1.06,.11,1.11,.01,.05-.1,.1-.13,.1-.13l-1.15-.65s1.29,.51,1.45,.48c.16-.03,.45-.29,.45-.29l-1.57-.68s1.67,.58,1.8,.48c.14-.1,.24-.23,.24-.23,0,0,.15-.27,.14-.39,0-.12-.19-.12-.19-.12,0,0,.44-.12,.44-.27,0-.15-.12-.2-.12-.2,0,0,.29-.28,.21-.42-.08-.14-.29-.34-.29-.34,0,0,.29-.51-.19-.67-.28-.09-1.83,.9-1.83,.9,0,0,1.55-1.24,1.54-1.34s-.22-.18-.22-.18l-.4,.11s.15-.26,.02-.34c-.14-.08-.25,0-.25,0,0,0-.11-.19-.36-.18-.24,0-.36,.03-.36,.03,0,0-.16-.11-.31-.11-.15,0-.33,.04-.33,.04,0,0-.09-.07-.28-.09l-.19-.02-.38,.88s.34-.98,.08-.93c-.26,.05-.36,.14-.36,.14,0,0,.09-.14-.12-.13-.03,0-.06,0-.09,.01-.03,0-.06,0-.09-.01-.22-.01-.12,.13-.12,.13,0,0-.1-.09-.36-.14-.26-.04,.09,.93,.09,.93l-.39-.88-.19,.02c-.19,.02-.28,.09-.28,.09,0,0-.17-.04-.33-.04-.15,0-.31,.11-.31,.11,0,0-.12-.02-.36-.02-.24,0-.35,.18-.35,.18,0,0-.11-.07-.25,0-.14,.08,.02,.34,.02,.34l-.4-.11s-.2,.08-.22,.18c-.02,.1,1.55,1.33,1.55,1.33,0,0-1.56-.98-1.83-.89-.48,.16-.18,.67-.18,.67,0,0-.21,.2-.29,.34-.08,.14,.21,.41,.21,.41,0,0-.12,.04-.12,.2,0,.15,.44,.27,.44,.27,0,0-.18,0-.18,.12,0,.12,.15,.39,.15,.39,0,0,.1,.13,.24,.23s1.8-.49,1.8-.49l-1.56,.69s.29,.26,.45,.28c.16,.03,1.44-.49,1.44-.49l-1.14,.65s.05,.03,.1,.13c.05,.1,1.11-.02,1.11-.02,0,0-.37,.39,.08,.59,.4,.18,1.13-.25,1.31-.36Z"/><path class="b" d="M111.77,97.59s5.66-1.81,5.15-2.2-5.15,2.2-5.15,2.2Z"/><path class="b" d="M112.96,99.71s6.87,.3,7.04-.14-7.04,.14-7.04,.14Z"/><path class="b" d="M111.87,101.73s4.38,2.43,5.19,2.16-5.19-2.16-5.19-2.16Z"/><path class="b" d="M106.09,97.61s-5.68-1.78-5.17-2.17,5.17,2.17,5.17,2.17Z"/><path class="b" d="M104.92,99.73s-6.86,.34-7.04-.11,7.04,.11,7.04,.11Z"/><path class="b" d="M106.03,101.74s-4.36,2.45-5.17,2.19,5.17-2.19,5.17-2.19Z"/><path class="b" d="M109.03,102.19s.83,3.12-.15,3.21,.15-3.21,.15-3.21Z"/><path class="b" d="M109.01,97.16s.8-3.13-.17-3.21,.17,3.21,.17,3.21Z"/><path class="m" d="M84.22,100.2s2.85,7.54,19.83,8.68c0,0-11.6-.36,1.65,1.35-2.04,.16-22.2-1.37-21.49-10.03Z"/></g><g><ellipse class="i" cx="43.69" cy="60.96" rx="12.49" ry="23.63" transform="translate(-26.16 88.27) rotate(-75.73)"/><ellipse class="d" cx="44.1" cy="59.34" rx="12.49" ry="23.63" transform="translate(-24.28 87.45) rotate(-75.73)"/><ellipse class="k" cx="44.1" cy="59.34" rx="12.1" ry="22.58" transform="translate(-24.28 87.45) rotate(-75.73)"/><path class="f" d="M40.2,67.23s.35,.88,.71,1.74c.12,.28,.57,.41,.87,.35,.23,.2,.69,.3,.93,.11,.73-.58,1.46-1.19,1.46-1.19,0,0-2.12,2.38-1.29,2.64,.83,.26,2.1-.02,2.1-.02,0,0,.92,.78,3.19,.8,2.26,.02,2.49-.31,2.49-.31,0,0,3.06,.49,3.54,.23,.48-.26,.75-.31,.75-.31l-2.29-4.2s3.21,3.94,3.88,4.11,2.48-.26,2.48-.26l-3.74-5s3.9,3.85,4.71,3.73c.8-.13,1.55-.44,1.55-.44,0,0,1.33-.71,1.66-1.12,.33-.41-.32-.74-.32-.74,0,0,1.49,.1,1.93-.46,.44-.55-.26-1.79-.26-1.79,0,0,.98-.81,1.08-1.45s-1.71-1.73-1.71-1.73c0,0,1.08-1.45-.16-2.19-1.07-.64-6.58,.48-6.58,.48,0,0,5.06-1.87,5.3-2.25,.24-.38-.28-1-.28-1l-1.79-.28s1.32-.66,1.06-1.16-.89-.44-.89-.44c0,0,.13-.85-.76-1.24-.9-.39-1.4-.52-1.4-.52,0,0-.24-.67-.81-.92-.57-.25-1.33-.39-1.33-.39,0,0-.11-.41-.75-.79l-.64-.38-3.97,2.47s4.12-2.87,3.03-3.14c-1.09-.27-1.73-.1-1.73-.1,0,0,.75-.36-.07-.68-.82-.32-1.63-.14-1.63-.14l-.65-.33-1.06-.47c-.72-.32-1.57-.2-1.75,.26l-.15,.4,.06-.43c.06-.49-.62-1-1.41-1.06l-1.15-.09-.72-.02s-.63-.55-1.5-.66c-.87-.11-.38,.56-.38,.56,0,0-.48-.45-1.57-.73-1.09-.28,1.16,4.21,1.16,4.21l-2.31-4.06-.74,.03c-.74,.03-1.03,.34-1.03,.34,0,0-.74-.24-1.36-.29-.62-.05-1.15,.42-1.15,.42,0,0-.5-.13-1.48-.22-.97-.09-1.26,.72-1.26,.72,0,0-.51-.35-.99-.04s.37,1.53,.37,1.53l-1.7-.6s-.75,.3-.72,.75c.02,.45,3.58,4.5,3.58,4.5,0,0-4.3-3.62-5.55-3.56-1.45,.06-1.19,1.85-1.19,1.85,0,0-2.11,.09-2.33,.7-.21,.61,.26,1.79,.26,1.79,0,0-1.21,.75-1.08,1.45,.12,.69,1.48,1.32,1.48,1.32,0,0-.72-.02-.63,.5,.09,.52,.92,1.78,.92,1.78,0,0,.51,.63,1.15,1.12,.65,.5,5.92-1.02,5.92-1.02l-5.67,2.61s1.39,1.24,2.06,1.41,5.37-1.75,5.37-1.75l-4.02,2.6s.22,.17,.51,.63c.29,.46,3.22,1.49,3.22,1.49,0,0,.04,.4,2.04,1.46,2,1.07,3.18,.82,3.18,.82,0,0,.98,.86,1.83,1.02,.85,.17,.13-2.94,.13-2.94Z"/><path class="n" d="M43.29,64.7c.31,.32,1.62,1.64,2.55,1.46,1.06-.2,.49-1.24,.49-1.24,0,0,2.15,.81,2.31,.63,.16-.19,.28-.23,.28-.23l-2.05-2.01s2.41,1.79,2.76,1.81c.35,.03,1.1-.37,1.1-.37l-2.91-2.3s3.16,2.15,3.51,2.01c.35-.14,.62-.38,.62-.38,0,0,.46-.5,.52-.75,.06-.25-.32-.36-.32-.36,0,0,.99-.01,1.07-.35,.08-.33-.14-.49-.14-.49,0,0,.76-.44,.67-.78-.1-.35-.42-.89-.42-.89,0,0,.89-.95-.02-1.55-.53-.35-4.33,.94-4.33,.94,0,0,3.95-1.82,3.97-2.04s-.36-.51-.36-.51l-.9,.02s.47-.47,.23-.72c-.24-.24-.52-.15-.52-.15,0,0-.13-.46-.64-.58-.51-.12-.77-.14-.77-.14,0,0-.27-.33-.59-.41-.33-.08-.71-.08-.71-.08,0,0-.15-.21-.53-.35l-.39-.14-1.28,1.68s1.26-1.91,.69-1.95c-.57-.04-.83,.11-.83,.11,0,0,.27-.26-.19-.35-.07-.01-.13-.02-.19-.02-.05-.03-.11-.05-.17-.07-.44-.14-.33,.22-.33,.22,0,0-.16-.26-.68-.49-.52-.24-.33,2.05-.33,2.05l-.32-2.09-.41-.06c-.41-.06-.63,.05-.63,.05,0,0-.34-.19-.67-.27-.32-.08-.72,.08-.72,.08,0,0-.24-.11-.75-.25-.51-.14-.84,.21-.84,.21,0,0-.2-.21-.53-.12-.33,.1-.15,.74-.15,.74l-.78-.45s-.47,.06-.56,.27c-.09,.21,2.51,3.69,2.51,3.69,0,0-2.72-2.95-3.35-2.9-1.09,.09-.76,1.35-.76,1.35,0,0-.55,.32-.8,.58-.25,.26,.21,1.01,.21,1.01,0,0-.27,.03-.36,.36-.09,.33,.77,.81,.77,.81,0,0-.39-.08-.45,.17-.07,.25,.09,.91,.09,.91,0,0,.13,.34,.37,.63s4.04-.08,4.04-.08l-3.65,.63s.47,.71,.79,.85c.32,.15,3.29-.27,3.29-.27l-2.76,.79s.08,.1,.13,.34c.05,.24,2.33,.55,2.33,.55,0,0-1,.64-.16,1.32,.73,.6,2.52,.07,2.94-.07Z"/><path class="c" d="M43.79,62.73c.13,.18,.71,.91,1.15,.78,.51-.15,.27-.74,.27-.74,0,0,.98,.41,1.07,.29,.08-.11,.14-.15,.14-.15l-.9-1.11s1.08,.97,1.24,.97c.16,0,.53-.25,.53-.25l-1.29-1.25s1.42,1.16,1.59,1.06c.17-.09,.31-.24,.31-.24,0,0,.23-.31,.27-.46,.03-.15-.14-.2-.14-.2,0,0,.47-.04,.51-.24,.05-.2-.05-.28-.05-.28,0,0,.37-.28,.34-.48-.04-.2-.17-.51-.17-.51,0,0,.45-.58,.04-.9-.24-.19-2.06,.69-2.06,.69,0,0,1.91-1.19,1.93-1.32s-.15-.28-.15-.28l-.42,.04s.23-.29,.13-.43c-.11-.13-.24-.07-.24-.07,0,0-.05-.27-.28-.32-.24-.06-.36-.06-.36-.06,0,0-.12-.18-.27-.22-.15-.04-.33-.02-.33-.02,0,0-.06-.12-.24-.19l-.18-.07-.66,1.02s.65-1.16,.39-1.16c-.27,0-.39,.09-.39,.09,0,0,.13-.16-.08-.2-.03,0-.06,0-.09,0-.02-.01-.05-.03-.08-.04-.2-.07-.16,.14-.16,.14,0,0-.07-.14-.3-.27-.24-.12-.22,1.21-.22,1.21l-.09-1.21-.19-.02c-.19-.02-.3,.05-.3,.05,0,0-.15-.1-.3-.14-.15-.04-.34,.07-.34,.07,0,0-.11-.06-.34-.12-.23-.06-.4,.15-.4,.15,0,0-.09-.12-.24-.05-.16,.07-.09,.44-.09,.44l-.35-.24s-.22,.05-.27,.18c-.05,.12,1.06,2.08,1.06,2.08,0,0-1.19-1.64-1.48-1.59-.51,.09-.4,.81-.4,.81,0,0-.27,.21-.39,.36-.13,.16,.07,.58,.07,.58,0,0-.13,.03-.18,.22-.05,.2,.34,.45,.34,.45,0,0-.18-.04-.22,.11-.04,.15,.02,.53,.02,.53,0,0,.05,.19,.15,.36s1.9-.18,1.9-.18l-1.74,.48s.2,.4,.35,.47c.15,.08,1.56-.26,1.56-.26l-1.32,.55s.03,.05,.05,.19c.02,.14,1.08,.25,1.08,.25,0,0-.49,.4-.12,.78,.33,.33,1.18-.04,1.38-.13Z"/><path class="b" d="M48.58,57.89s6.08-.89,5.71-1.52-5.71,1.52-5.71,1.52Z"/><path class="b" d="M49.04,60.89s6.55,2.1,6.86,1.58-6.86-1.58-6.86-1.58Z"/><path class="b" d="M47.32,63.19s3.44,4.19,4.31,4.05-4.31-4.05-4.31-4.05Z"/><path class="b" d="M43.08,56.49s-4.91-3.69-4.29-4.06,4.29,4.06,4.29,4.06Z"/><path class="b" d="M41.25,58.91s-6.76-1.28-6.78-1.89,6.78,1.89,6.78,1.89Z"/><path class="b" d="M41.66,61.75s-5.02,2.03-5.73,1.5,5.73-1.5,5.73-1.5Z"/><path class="b" d="M44.42,63.07s-.23,4.19-1.2,4.06,1.2-4.06,1.2-4.06Z"/><path class="b" d="M46.05,56.65s1.8-3.79,.89-4.14-.89,4.14-.89,4.14Z"/><path class="m" d="M21.04,54.34s.28,10.32,16.35,16.02c0,0-11.12-3.36,1.16,2.13-2.03-.3-21.04-7.29-17.51-18.15Z"/></g><g><ellipse class="i" cx="102.3" cy="90.33" rx="9.49" ry="23.63" transform="translate(-29.76 124.73) rotate(-56.05)"/><ellipse class="d" cx="103.01" cy="89.27" rx="9.49" ry="23.63" transform="translate(-28.58 124.85) rotate(-56.05)"/><ellipse class="k" cx="103.01" cy="89.27" rx="9.19" ry="22.58" transform="translate(-28.58 124.85) rotate(-56.04)"/><path class="f" d="M97.84,93.69s.13,.79,.29,1.58c.05,.26,.43,.53,.72,.6,.17,.24,.57,.49,.82,.44,.78-.15,1.57-.33,1.57-.33,0,0-2.42,.97-1.72,1.48,.7,.52,1.91,.79,1.91,.79,0,0,.68,.94,2.73,1.83,2.05,.89,2.33,.73,2.33,.73,0,0,2.68,1.55,3.17,1.53,.49-.01,.74,.06,.74,.06l-1.22-4.03s2.11,4.19,2.68,4.57,2.31,.76,2.31,.76l-2.37-5.19s2.76,4.39,3.51,4.61c.76,.21,1.5,.27,1.5,.27,0,0,1.36-.02,1.74-.2,.38-.18-.14-.68-.14-.68,0,0,1.34,.65,1.85,.4,.51-.24,.13-1.44,.13-1.44,0,0,1.06-.23,1.28-.67s-1.2-1.95-1.2-1.95c0,0,1.28-.67,.31-1.7-.84-.89-6.07-2.17-6.07-2.17,0,0,4.98,.55,5.27,.36,.29-.19-.04-.86-.04-.86l-1.56-.9s1.34,.02,1.2-.46-.72-.67-.72-.67c0,0,.3-.58-.44-1.22-.73-.64-1.17-.93-1.17-.93,0,0-.08-.59-.55-1-.47-.41-1.13-.81-1.13-.81,0,0-.01-.35-.51-.88l-.5-.53-4.11,.32s4.33-.56,3.4-1.19c-.93-.62-1.55-.74-1.55-.74,0,0,.76,.02,.08-.53-.68-.55-1.46-.73-1.46-.73l-.52-.49-.86-.76c-.59-.52-1.39-.75-1.64-.48l-.22,.24,.14-.3c.16-.34-.36-.99-1.06-1.34l-1.03-.51-.65-.29s-.46-.65-1.23-1.07c-.77-.42-.46,.27-.46,.27,0,0-.34-.52-1.27-1.15-.93-.63,.19,3.6,.19,3.6l-1.26-3.93-.68-.26c-.68-.26-1.01-.14-1.01-.14,0,0-.62-.47-1.17-.74-.55-.28-1.13-.13-1.13-.13,0,0-.43-.29-1.3-.73-.87-.44-1.29,.05-1.29,.05,0,0-.39-.46-.89-.41s.02,1.29,.02,1.29l-1.42-1.11s-.74-.06-.81,.28c-.07,.34,2.33,4.76,2.33,4.76,0,0-3.17-4.37-4.31-4.81-1.33-.51-1.46,.93-1.46,.93,0,0-1.94-.74-2.26-.37-.32,.37-.13,1.44-.13,1.44,0,0-1.25,.1-1.28,.67-.03,.56,1.07,1.56,1.07,1.56,0,0-.65-.29-.68,.13-.02,.42,.47,1.69,.47,1.69,0,0,.33,.67,.82,1.29,.48,.62,5.59,1.51,5.59,1.51l-5.69-.23s1.01,1.46,1.58,1.85,5.24,.76,5.24,.76l-4.19,.39s.16,.21,.33,.67c.17,.46,2.62,2.36,2.62,2.36,0,0-.04,.31,1.55,1.88,1.6,1.57,2.72,1.84,2.72,1.84,0,0,.71,1.02,1.45,1.47,.74,.45,.72-2.15,.72-2.15Z"/><path class="n" d="M101.18,92.98c.21,.36,1.13,1.86,2.02,2.08,1.01,.26,.7-.74,.7-.74,0,0,1.78,1.44,1.97,1.36,.19-.08,.3-.07,.3-.07l-1.44-2.3s1.82,2.27,2.14,2.42c.31,.16,1.08,.15,1.08,.15l-2.17-2.84s2.43,2.83,2.78,2.86c.34,.03,.65-.04,.65-.04,0,0,.52-.2,.62-.36,.1-.17-.22-.39-.22-.39,0,0,.9,.37,1.04,.15,.14-.22-.03-.42-.03-.42,0,0,.78-.03,.76-.33-.02-.3-.2-.83-.2-.83,0,0,1-.37,.3-1.17-.41-.46-4.12-.96-4.12-.96,0,0,3.96,.16,4.02,0s-.22-.52-.22-.52l-.82-.33s.52-.17,.35-.45c-.17-.28-.44-.31-.44-.31,0,0-.03-.4-.46-.68-.44-.29-.67-.4-.67-.4,0,0-.18-.35-.45-.54-.28-.19-.63-.34-.63-.34,0,0-.09-.21-.41-.47l-.32-.25-1.51,.77s1.54-.95,1.03-1.2c-.51-.25-.78-.24-.78-.24,0,0,.3-.09-.1-.34-.06-.03-.11-.06-.16-.09-.04-.04-.09-.08-.14-.12-.38-.28-.35,.04-.35,.04,0,0-.09-.25-.52-.63-.43-.38-.72,1.41-.72,1.41l.14-1.69-.36-.2c-.36-.2-.59-.2-.59-.2,0,0-.27-.27-.55-.46-.28-.19-.67-.22-.67-.22,0,0-.2-.18-.63-.47-.43-.3-.81-.17-.81-.17,0,0-.14-.24-.46-.29-.32-.05-.28,.5-.28,.5l-.62-.64s-.44-.13-.56-.01c-.12,.12,1.52,3.73,1.52,3.73,0,0-1.87-3.26-2.45-3.46-1.01-.35-.96,.72-.96,.72,0,0-.56,.03-.84,.13-.28,.09-.02,.83-.02,.83,0,0-.25-.08-.4,.13-.15,.21,.53,.91,.53,.91,0,0-.33-.21-.45-.05-.11,.16-.1,.72-.1,.72,0,0,.05,.3,.21,.61s3.69,1.49,3.69,1.49l-3.45-.93s.28,.71,.54,.94c.26,.23,3.05,1.07,3.05,1.07l-2.67-.47s.05,.1,.05,.3c0,.2,2,1.31,2,1.31,0,0-1.04,.09-.42,.93,.54,.74,2.27,1.02,2.69,1.08Z"/><path class="c" d="M102.04,91.7c.08,.19,.46,.96,.89,1.03,.49,.08,.4-.45,.4-.45,0,0,.81,.68,.91,.63,.1-.05,.16-.06,.16-.06l-.59-1.18s.78,1.14,.93,1.21c.15,.07,.53,.02,.53,.02l-.92-1.44s1.05,1.42,1.22,1.41c.17,0,.33-.06,.33-.06,0,0,.27-.14,.34-.24,.06-.1-.08-.2-.08-.2,0,0,.43,.15,.51,.02,.08-.13,.01-.23,.01-.23,0,0,.4-.07,.4-.23,0-.16-.05-.45-.05-.45,0,0,.53-.26,.22-.66-.18-.23-2.02-.28-2.02-.28,0,0,1.98-.15,2.02-.24s-.08-.27-.08-.27l-.39-.13s.27-.13,.2-.27c-.07-.14-.2-.15-.2-.15,0,0,.01-.22-.19-.35-.2-.13-.31-.18-.31-.18,0,0-.07-.18-.2-.27-.13-.09-.3-.15-.3-.15,0,0-.03-.11-.18-.23l-.15-.12-.81,.51s.83-.62,.59-.72c-.24-.11-.38-.09-.38-.09,0,0,.16-.07-.03-.18-.03-.02-.05-.03-.08-.04-.02-.02-.04-.04-.06-.06-.17-.13-.18,.04-.18,.04,0,0-.03-.13-.22-.32-.19-.18-.45,.82-.45,.82l.17-.94-.17-.09c-.17-.09-.28-.08-.28-.08,0,0-.12-.13-.25-.22-.13-.09-.32-.08-.32-.08,0,0-.09-.08-.29-.22-.2-.14-.4-.05-.4-.05,0,0-.05-.12-.21-.13-.16-.01-.17,.29-.17,.29l-.27-.31s-.21-.05-.28,.03c-.07,.07,.54,1.97,.54,1.97,0,0-.74-1.69-1.02-1.76-.49-.13-.53,.46-.53,.46,0,0-.28,.05-.43,.12-.15,.07-.06,.46-.06,.46,0,0-.12-.03-.21,.1-.09,.13,.21,.47,.21,.47,0,0-.15-.1-.22,0-.07,.09-.09,.4-.09,.4,0,0,0,.16,.07,.33s1.77,.6,1.77,.6l-1.68-.31s.1,.37,.22,.49c.12,.11,1.47,.41,1.47,.41l-1.31-.1s.02,.05,0,.16c-.01,.11,.93,.6,.93,.6,0,0-.53,.11-.27,.54,.23,.37,1.08,.43,1.28,.44Z"/><path class="b" d="M107.38,89.92s5.7,1.67,5.5,1.07-5.5-1.07-5.5-1.07Z"/><path class="b" d="M107.18,92.34s5.52,4.1,5.91,3.82-5.91-3.82-5.91-3.82Z"/><path class="b" d="M105.14,93.4s2.27,4.46,3.09,4.7-3.09-4.7-3.09-4.7Z"/><path class="b" d="M102.67,86.75s-3.7-4.66-3.07-4.7,3.07,4.7,3.07,4.7Z"/><path class="b" d="M100.51,87.85s-5.87-3.57-5.77-4.03,5.77,4.03,5.77,4.03Z"/><path class="b" d="M100.29,90.14s-4.98-.41-5.51-1.08,5.51,1.08,5.51,1.08Z"/><path class="b" d="M102.53,92.19s-1.07,3.05-1.92,2.58,1.92-2.58,1.92-2.58Z"/><path class="b" d="M105.33,88.01s2.41-2.14,1.65-2.76c-.76-.61-1.65,2.76-1.65,2.76Z"/><path class="m" d="M83.09,76.64s-1.87,7.84,11.56,18.31c0,0-9.41-6.8,.62,2.04-1.78-1.01-17.62-13.58-12.18-20.35Z"/></g></svg>