<?xml version="1.0" encoding="UTF-8"?><svg xmlns="http://www.w3.org/2000/svg" viewBox="0 0 152 133"><defs><style>.b{fill:#c4ea73;}.c{opacity:.21;}.c,.d,.e,.f,.g,.h{mix-blend-mode:overlay;}.i{fill:#61a01e;}.i,.j,.k{stroke-width:.75px;}.i,.j,.k,.l{stroke:#405e0d;stroke-miterlimit:10;}.m{isolation:isolate;}.d{fill:#fff;opacity:.39;}.j,.e{fill:#398412;}.k{fill:#6db421;}.l{fill:#a9c95d;}.e,.f{opacity:.35;}.g{opacity:.24;}.h{opacity:.11;}</style></defs><g class="m"><g id="a"><g><g><path class="i" d="M38.27,89.21c-2.39,.83-2.81,.15-2.81,.15,0,0-1.6-11.01-3.02-14.81,0,0-3.7-2.48-5.06-7.08,0,0-1.03-1.05-2.23-2.83s-1.04-5.45-1.52-6.37-2.17-2.59-1.67-3.74,1.29-1.09,1.38-3.96c0,0,1.37-2.92,4.34-.26,0,0,1.59,.14,2.94-.7s.65,1.66,1.26,2.03,2.25,.76,2.65,3.51c.4,2.75,5.73,1.22,5.85,1.71s1.27,.99,1.88,1.36,3.23,.52-2.34,7.55c0,0-1.67,1.69-.04,4.15,1.62,2.46,2.01,6.25,2.01,6.25,0,0,4.17,9.88-.58,8.42-4.75-1.45-3.21-2.6-3.96-1.38s.92,6,.92,6Z"/><path class="g" d="M36.25,89.43s-1.45-7.16,.52-8.67c0,0-.63,1.7-.02,2.08,0,0,1.13-2.86,2.87,.09,1.74,2.95,1.47-4.67-1.13-4.74,0,0,1.15-2.78,2.29-1.24,0,0,.37-2.84-1.96-3.37s.75-2.81,.09-4.47c-.65-1.66-3.16,4.12-4.13,3.32s4.01-8.08,4.79-8.07,1.08-4.21-5.79,3.91c0,0-1.83-.08-.71-1.9,1.12-1.82,5.49-5.2,7.25-4.32,0,0,3.75-2.71-.97-4.04-4.72-1.33-7.36,6.03-8.69,4.8s4.08-4.39,3.12-5.82c-.97-1.43-4.69,4.64-5.05,3.17s5.5-6.24,3.49-7.05c-2.01-.81-3.58,3.45-4.55,2.64s1.87-4.07-.56-4.53c-2.44-.45-1.68,2.73-1.99,3.58s-1.46-.69-2.02,.22,2.17,2.59,2.04,3.14-.51,2.19-.22,3.42,2.13,1.96,2.48,3.1c.35,1.14,.59,3.74,1.64,4.62s2.86,3.04,2.79,3.83,2.37,2.34,2.69,3.66-.21,2.45,.13,3.81c.33,1.36,.69,8.27,1.6,8.83Z"/></g><g><path class="l" d="M26.4,72.64s23.22,5.67,26.99,7.68c.23,.12,.52,.03,.65-.2,.52-1,1.6-3.31,.69-3.72-1.9-.84-25.12-5.37-26.81-7.04,0,0-2.49,.73-1.51,3.28Z"/><path class="d" d="M40.15,74.66l-.04,.12c-.06,.18,.28-.14,.44-.08l12.91,5.24c.28,.1,.58-.1,.63-.43l.05-.29c.05-.3-.11-.59-.37-.68l-12.97-4.24c-.26-.09-.54,.07-.64,.36Z"/><path class="c" d="M40.42,74.16l-.03,.12c-.04,.18,.26-.17,.42-.13l13.46,3.62c.29,.07,.56-.17,.57-.51v-.29c.02-.31-.17-.57-.44-.63l-13.14-2.98c-.27-.05-.77,.5-.84,.79Z"/></g><g><path class="i" d="M56.1,89.45s.19-8.14-8.11-9.22c0,0-.63-4.93-5.99-5.85-5.36-.92-.3,.69-3.04,1.99-2.74,1.29,1.16,4.33-.66,6.02s-3.6,.1-3.44,2.91l1.85,4.63,6.65,9.42,4.14,5.06s3.31,2.51,4.23-.93c0,0,1.32,1.39,1.68-5.85,.36-7.24,2.67-8.17,2.67-8.17Z"/><path class="f" d="M41.17,82.12s-.76-7.29,.97-6.82,2.01,8.72,2.84,8.39-1.66-6.68-.79-6.45,6.59,4.72,3.78,8.54c0,0,1.64-.65,2.13,1.86,.48,2.51,.65-2.58,.65-2.58,0,0,.99-1.75,2.43,2.13,1.44,3.87-1.26,6.83-1.26,6.83,0,0,1.6-1.67,.78,1.95-.82,3.62-.45,3.58-.45,3.58,0,0-2.03-3.07-4.17-2.86-2.14,.21-5.87-5.02-5.2-7.28,.68-2.26-4.15-5.72-3.6-6.15s1.9-1.15,1.9-1.15Z"/><path class="b" d="M42.01,75.82c2.47,8.1,6.87,15.41,10.29,23.13l-.06,.04c-3.26-5.46-6.36-11.06-8.59-17.03-.64-1.95-1.61-4.2-1.63-6.13h0Z"/><path class="b" d="M50.61,88.9c1.15,1.51,2.33,5.88-.55,6.12,.56-.26,.85-.69,.96-1.18,.28-1.64-.26-3.24-.42-4.94h0Z"/><path class="b" d="M44.75,91.24c1.19,.64,2.04,1.36,3.38,.91-.81,1.58-3.13,.54-3.38-.91h0Z"/><path class="b" d="M42.47,86.5c1.66,2.64,4.37,.29,4.57-2.03,.1-.79,.13-1.62,.05-2.46,.36,.77,.54,1.63,.53,2.51,.24,2.89-4,5.68-5.15,1.98h0Z"/></g><g><path class="k" d="M52.03,90.1s-2.77-4.79,2.27-5.29c5.04-.5,2.08-2.23,6.87-1.47s7.23,.46,13.53,.46,8.06-.5,9.57,.5,15.66,26.67,15.66,26.67c0,0-2.31,.78-5.33-.73-3.02-1.51-1.26-1.76-2.77-.76-1.51,1.01-2.01-1.76-2.01-1.76,0,0-2.52-2.52-2.27,3.78,.25,6.3-4.03,5.29-5.04,6.3-1.01,1.01-2.52,3.78-6.8,2.01-4.28-1.76-19.9-28.21-23.67-29.72Z"/><path class="f" d="M83.61,85.24s-9.86-1.3-14.82,1.18c-4.95,2.48,6.44-.5,7.93,.5,1.49,.99-3.96,1.49-4.46,1.98s4.95-.5,4.95,.5,3.96-.99,4.46,0c.5,.99-4.95,.99-3.47,2.48,1.49,1.49,9.41-1.49,9.91,.99,.5,2.48-.99,1.49-.5,2.97,.5,1.49,1.98-.99,2.48,0s-2.97,4.95,1.98,7.43c4.95,2.48,1.98,1.49,1.98,1.98s.99,0,3.47,2.97c0,0-10-20.2-13.92-22.98Z"/></g><g><path class="j" d="M52.75,50.83s-2.77-4.79,2.27-5.29c5.04-.5,.5,1.01,5.29,1.76s8.81-2.77,15.11-2.77,8.06-.5,9.57,.5,15.66,26.67,15.66,26.67c0,0-2.31,.78-5.33-.73-3.02-1.51-1.26-1.76-2.77-.76-1.51,1.01-2.01-1.76-2.01-1.76,0,0-2.52-2.52-2.27,3.78,.25,6.3-4.03,5.29-5.04,6.3-1.01,1.01-2.52,3.78-6.8,2.01-4.28-1.76-19.9-28.21-23.67-29.72Z"/><path class="e" d="M84.33,45.97s-9.86-1.3-14.82,1.18c-4.95,2.48,6.44-.5,7.93,.5,1.49,.99-3.96,1.49-4.46,1.98s4.95-.5,4.95,.5,3.96-.99,4.46,0c.5,.99-4.95,.99-3.47,2.48,1.49,1.49,9.41-1.49,9.91,.99,.5,2.48-.99,1.49-.5,2.97,.5,1.49,1.98-.99,2.48,0s-2.97,4.95,1.98,7.43c4.95,2.48,1.98,1.49,1.98,1.98s.99,0,3.47,2.97c0,0-10-20.2-13.92-22.98Z"/></g><g><path class="j" d="M69.37,88.83s-2.77-4.79,2.27-5.29c5.04-.5,.5,1.01,5.29,1.76s8.81-2.77,15.11-2.77,8.06-.5,9.57,.5,15.66,26.67,15.66,26.67c0,0-2.31,.78-5.33-.73-3.02-1.51-1.26-1.76-2.77-.76-1.51,1.01-2.01-1.76-2.01-1.76,0,0-2.52-2.52-2.27,3.78,.25,6.3-4.03,5.29-5.04,6.3-1.01,1.01-2.52,3.78-6.8,2.01-4.28-1.76-19.9-28.21-23.67-29.72Z"/><path class="e" d="M100.95,83.97s-9.86-1.3-14.82,1.18c-4.95,2.48,6.44-.5,7.93,.5,1.49,.99-3.96,1.49-4.46,1.98s4.95-.5,4.95,.5,3.96-.99,4.46,0c.5,.99-4.95,.99-3.47,2.48,1.49,1.49,9.41-1.49,9.91,.99,.5,2.48-.99,1.49-.5,2.97,.5,1.49,1.98-.99,2.48,0s-2.97,4.95,1.98,7.43c4.95,2.48,1.98,1.49,1.98,1.98s.99,0,3.47,2.97c0,0-10-20.2-13.92-22.98Z"/></g><g><path class="j" d="M74.68,58.42s-2.77-4.79,2.27-5.29c5.04-.5,.5,1.01,5.29,1.76s8.81-2.77,15.11-2.77,8.06-.5,9.57,.5,15.66,26.67,15.66,26.67c0,0-2.31,.78-5.33-.73-3.02-1.51-1.26-1.76-2.77-.76-1.51,1.01,.51,2.1,.51,2.1,0,0-2.52-2.52-2.27,3.78,.25,6.3-6.56,1.43-7.56,2.43-1.01,1.01-2.52,3.78-6.8,2.01-4.28-1.76-19.9-28.21-23.67-29.72Z"/><path class="e" d="M106.26,53.56s-9.86-1.3-14.82,1.18c-4.95,2.48,6.44-.5,7.93,.5,1.49,.99-3.96,1.49-4.46,1.98s4.95-.5,4.95,.5,3.96-.99,4.46,0c.5,.99-4.95,.99-3.47,2.48,1.49,1.49,9.41-1.49,9.91,.99,.5,2.48-.99,1.49-.5,2.97,.5,1.49,1.98-.99,2.48,0s-2.97,4.95,1.98,7.43c4.95,2.48,1.98,1.49,1.98,1.98s.99,0,3.47,2.97c0,0-10-20.2-13.92-22.98Z"/></g><g><path class="j" d="M34.28,67.05s-2.77-4.79,2.27-5.29c5.04-.5,.5,1.01,5.29,1.76s8.81-2.77,15.11-2.77,8.06-.5,9.57,.5,15.66,26.67,15.66,26.67c0,0-2.31,.78-5.33-.73-3.02-1.51-1.26-1.76-2.77-.76-1.51,1.01,.51,2.1,.51,2.1,0,0-2.52-2.52-2.27,3.78,.25,6.3-6.56,1.43-7.56,2.43-1.01,1.01-2.52,3.78-6.8,2.01-4.28-1.76-19.9-28.21-23.67-29.72Z"/><path class="e" d="M65.86,62.19s-9.86-1.3-14.82,1.18c-4.95,2.48,6.44-.5,7.93,.5,1.49,.99-3.96,1.49-4.46,1.98s4.95-.5,4.95,.5,3.96-.99,4.46,0c.5,.99-4.95,.99-3.47,2.48,1.49,1.49,9.41-1.49,9.91,.99,.5,2.48-.99,1.49-.5,2.97,.5,1.49,1.98-.99,2.48,0s-2.97,4.95,1.98,7.43c4.95,2.48,1.98,1.49,1.98,1.98s.99,0,3.47,2.97c0,0-10-20.2-13.92-22.98Z"/></g><g><g><path class="i" d="M81.95,32.81s5.65-2.26,3.96-8.29c0,0,3.2-1.88,2.26-5.84-.94-3.96-.57,0-2.26-1.51-1.7-1.51-2.64,2.07-4.33,1.32s-1.13-2.45-3.02-1.51l-2.64,2.64-4.52,7.35-2.26,4.33s-.75,3.02,1.88,2.64c0,0-.57,1.32,4.52-.57,5.09-1.88,6.41-.57,6.41-.57Z"/><path class="g" d="M87.08,17.94s-.74-.37-2.22,1.85c-1.48,2.22,0-.74-.37-.74s0-1.48-.37-1.11-1.85,1.11-1.85,1.85c0,0-1.01-.25-.69,1.91s-.05,1.79-.05,1.79c0,0-.37-1.11-.74,0s.74-3.34,0-2.97,0-1.48-.37-1.48-1.11,2.59-1.11,2.59c0,0-1.11,0-.37,2.22,.74,2.22-.37,1.11-.37,1.11,0,0-1.48-.74-1.11,.37s-2.97,6.67-2.97,6.67c0,0,9.29-.78,8.91-2.8,0,0,.36-1.28-1.49-1.28,0,0,2.97-.37,2.59-.74s-.74,0-.74,0c0,0,1.85-1.48,1.11-1.85s-1.11,0-1.11,0c0,0-1.11,.37-1.11,1.11,0,0-.74,.74-1.11,0s1.85-1.48,1.85-1.48c0,0,2.59-.37,2.22-.74s1.11-.74,1.11-1.48c0-.74,.74-1.48,0-1.48s-1.11,1.11-1.11,1.11c0,0-.74-.74-1.11,1.11,0,0-1.11,.74-.37-.74,.74-1.48,2.97-1.48,3.34-2.22s-.37-.74-.37-.74c0,0,.74-1.48,0-1.85Z"/></g><g><path class="b" d="M86.43,22.38c.31,1.61-1.24,3.11-2.81,2.97-.53-.02-1.03-.27-1.39-.68l.02-.1c1.7,.34,3.31-.77,4.09-2.23l.09,.04h0Z"/><path class="b" d="M86.81,18.42c-1.69,5.44-6.16,9.55-10.59,12.87-.69,.43-1.34,.9-2.05,1.28l-.07-.08c4.67-4.19,9.47-8.85,12.71-14.08h0Z"/><path class="b" d="M81.91,28.4c.57,1.95-1.98,3.27-3.47,2.14-.44-.31-.77-.72-.94-1.25l.06-.08,.56,.33c1.41,.83,3.1,.45,3.69-1.17l.09,.03h0Z"/><path class="b" d="M83.98,25.96c.31,2.67-3.63,3.74-5.02,1.66l.03-.09c1.79,.66,4.01,.2,4.9-1.61l.09,.04h0Z"/><path class="b" d="M80.49,21.18c.7,1.26,.68,2.66,.35,3.95-.06,.15-.06,.26,.19,.44l.02,.1c-.21,.03-.48,0-.61-.2-.74-1.29-.25-2.93-.05-4.31l.1,.02h0Z"/><path class="b" d="M83.78,18.99c.06,.83-.11,1.48-.27,2.16-.21,.67-.33,.71,.06,1.53l-.03,.09c-.82-.24-1.26-1.06-.99-1.87,.23-.75,.67-1.39,1.16-1.97l.08,.07h0Z"/></g><g><path class="h" d="M75.37,13.75c.66-.38,1.11,.73,1.5,1.34,1.57,2.48,6.85,3.41,5.38,5.46-1.9,2.64,.21,2.07,0,2.83s-3.17,2.07-3.59,3.39,.84,.94-2.11,2.83c0,0,2.53,1.32-.42,2.26,0,0,1.88,.94-1.71,1.7s-1.67-1.13-3.78-.57c0,0,0,1.51-1.69,1.51l-1.69-10.18,2.32-9.61,2.74-4.15s-.77,5.37,3.05,3.18Z"/><path class="k" d="M73.93,10.17c.59-.38,1.38-.19,1.72,.42,1.4,2.48,4.42,8.3,3.1,10.35-1.7,2.64,.19,2.07,0,2.83s-2.83,2.07-3.2,3.39,.75,.94-1.88,2.83c0,0,2.26,1.32-.38,2.26,0,0,1.88,1.32-1.32,2.07s-1.7-1.51-3.58-.94c0,0,0,1.51-1.51,1.51l-1.51-10.18,2.07-9.61,2.45-4.15s.63,1.41,4.04-.78Z"/><g><path class="b" d="M73.76,14.31c-3.3,6.18-4.49,13.44-7.05,19.76l.44-2.62c.82-4.31,1.92-8.69,3.79-12.68,.76-1.6,1.59-3.18,2.74-4.54l.07,.07h0Z"/><path class="b" d="M76.73,15.29c1.04,3.66-3.01,7.77-6.26,4.75l.04-.09c2.38,.99,4.55-.16,5.47-2.49,.31-.7,.53-1.43,.66-2.18h.1Z"/><path class="b" d="M74.65,24.36c-.19,2.91-4.65,5.23-6.38,2.29l.06-.08c2.27,1.58,4.89-.35,6.24-2.26l.08,.06h0Z"/><path class="b" d="M70.11,29.84c.11,1.33-1.42,2.17-2.5,1.49-.11-.08-.55-.41-.32-.6,.94,.24,2-.42,2.76-.97l.07,.08h0Z"/><path class="b" d="M72.76,22.46c.16,1.89-2.43,3.08-3.78,1.77v-.1c1.4-.03,2.79-.65,3.7-1.73l.08,.06h0Z"/><path class="b" d="M69,18.11c.92,.75,1.39,2.21,.77,3.2-.07,.05-.04,.16,.08,.18l.06,.08c-.95,.45-.98-2.85-1.01-3.46h.1Z"/><path class="b" d="M67.12,25.1c.96,1.17,.76,2.02,.75,3.42l-.05,.08c-.55-.36-.82-1.02-.91-1.64-.07-.64,0-1.27,.12-1.89l.1,.02h0Z"/><path class="b" d="M71.46,12.3c.57,1.62-.14,2.89,.63,4.35l-.03,.09c-.86-.27-1.36-1.16-1.32-2.04,.02-.86,.28-1.69,.64-2.45l.09,.04h0Z"/></g><path class="g" d="M74.47,12.38s-1.48,0-2.22,2.22c-.74,2.22,.37-2.22-.37-2.59s-2.34,1.71-2.47,3.08c-.13,1.37,.98,2.48,.61,2.85s-1.11-2.59-1.48-1.85-.74,5.93,0,6.3c0,0,.37,1.11-.74,.74-1.11-.37-.62-3.76-1.61-2.25-.99,1.51,1.61,2.99,1.24,3.36s-2.22,1.11-.74,4.82l.05,4.28s1.44-2.43,3.66-2.43,0-.74,0-.74c0,0,2.22-1.11,.74-1.11s-2.59,.37-2.59,.37c0,0,3.71-1.55,5.38-2.63,1.66-1.08,.09-1,.09-1,0,0,2.34-2.9,1.22-2.61s-2.51,1.69-2.51,1.69c0,0,.3-1.22-.27-.57s-2.05,.65-2.05,.65c0,0,3.34-1.85,3.34-2.59,0-.74-.74,0-.74,0,0,0,1.48-1.11,.74-1.11s-2.22,.74-2.22,.74c0,0,3.34-1.85,3.71-2.22s2.59-1.48,1.85-1.85,.74-3.34,0-3.34-1.48,1.85-1.48,1.85c0,0-.74-1.11-1.11,0s-.74,1.11-.74,1.11c0,0,1.11-3.34,.74-2.97s.74-2.59,0-2.22Z"/></g></g><g><g><path class="i" d="M66.63,113.59s5.65-2.26,3.96-8.29c0,0,3.2-1.88,2.26-5.84-.94-3.96-.57,0-2.26-1.51-1.7-1.51-2.64,2.07-4.33,1.32s-1.13-2.45-3.02-1.51l-2.64,2.64-4.52,7.35-2.26,4.33s-.75,3.02,1.88,2.64c0,0-.57,1.32,4.52-.57,5.09-1.88,6.41-.57,6.41-.57Z"/><path class="g" d="M71.75,98.72s-.74-.37-2.22,1.85c-1.48,2.22,0-.74-.37-.74s0-1.48-.37-1.11-1.85,1.11-1.85,1.85c0,0-1.01-.25-.69,1.91s-.05,1.79-.05,1.79c0,0-.37-1.11-.74,0s.74-3.34,0-2.97,0-1.48-.37-1.48-1.11,2.59-1.11,2.59c0,0-1.11,0-.37,2.22,.74,2.22-.37,1.11-.37,1.11,0,0-1.48-.74-1.11,.37s-2.97,6.67-2.97,6.67c0,0,9.29-.78,8.91-2.8,0,0,.36-1.28-1.49-1.28,0,0,2.97-.37,2.59-.74s-.74,0-.74,0c0,0,1.85-1.48,1.11-1.85s-1.11,0-1.11,0c0,0-1.11,.37-1.11,1.11,0,0-.74,.74-1.11,0s1.85-1.48,1.85-1.48c0,0,2.59-.37,2.22-.74s1.11-.74,1.11-1.48c0-.74,.74-1.48,0-1.48s-1.11,1.11-1.11,1.11c0,0-.74-.74-1.11,1.11,0,0-1.11,.74-.37-.74,.74-1.48,2.97-1.48,3.34-2.22s-.37-.74-.37-.74c0,0,.74-1.48,0-1.85Z"/></g><g><path class="b" d="M71.1,103.15c.31,1.61-1.24,3.11-2.81,2.97-.53-.02-1.03-.27-1.39-.68l.02-.1c1.7,.34,3.31-.77,4.09-2.23l.09,.04h0Z"/><path class="b" d="M71.48,99.19c-1.69,5.44-6.16,9.55-10.59,12.87-.69,.43-1.34,.9-2.05,1.28l-.07-.08c4.67-4.19,9.47-8.85,12.71-14.08h0Z"/><path class="b" d="M66.58,109.18c.57,1.95-1.98,3.27-3.47,2.14-.44-.31-.77-.72-.94-1.25l.06-.08,.56,.33c1.41,.83,3.1,.45,3.69-1.17l.09,.03h0Z"/><path class="b" d="M68.65,106.73c.31,2.67-3.63,3.74-5.02,1.66l.03-.09c1.79,.66,4.01,.2,4.9-1.61l.09,.04h0Z"/><path class="b" d="M65.16,101.96c.7,1.26,.68,2.66,.35,3.95-.06,.15-.06,.26,.19,.44l.02,.1c-.21,.03-.48,0-.61-.2-.74-1.29-.25-2.93-.05-4.31l.1,.02h0Z"/><path class="b" d="M68.45,99.77c.06,.83-.11,1.48-.27,2.16-.21,.67-.33,.71,.06,1.53l-.03,.09c-.82-.24-1.26-1.06-.99-1.87,.23-.75,.67-1.39,1.16-1.97l.08,.07h0Z"/></g><g><path class="h" d="M60.04,94.53c.66-.38,1.11,.73,1.5,1.34,1.57,2.48,6.85,3.41,5.38,5.46-1.9,2.64,.21,2.07,0,2.83s-3.17,2.07-3.59,3.39,.84,.94-2.11,2.83c0,0,2.53,1.32-.42,2.26,0,0,1.88,.94-1.71,1.7s-1.67-1.13-3.78-.57c0,0,0,1.51-1.69,1.51l-1.69-10.18,2.32-9.61,2.74-4.15s-.77,5.37,3.05,3.18Z"/><path class="k" d="M58.6,90.95c.59-.38,1.38-.19,1.72,.42,1.4,2.48,4.42,8.3,3.1,10.35-1.7,2.64,.19,2.07,0,2.83s-2.83,2.07-3.2,3.39,.75,.94-1.88,2.83c0,0,2.26,1.32-.38,2.26,0,0,1.88,1.32-1.32,2.07s-1.7-1.51-3.58-.94c0,0,0,1.51-1.51,1.51l-1.51-10.18,2.07-9.61,2.45-4.15s.63,1.41,4.04-.78Z"/><g><path class="b" d="M58.43,95.09c-3.3,6.18-4.49,13.44-7.05,19.76l.44-2.61c.82-4.31,1.92-8.69,3.79-12.68,.76-1.6,1.59-3.18,2.74-4.54l.07,.07h0Z"/><path class="b" d="M61.4,96.07c1.04,3.66-3.01,7.77-6.26,4.75l.04-.09c2.38,.99,4.55-.16,5.47-2.49,.31-.7,.53-1.43,.66-2.18h.1Z"/><path class="b" d="M59.32,105.14c-.19,2.91-4.65,5.23-6.38,2.29l.06-.08c2.27,1.58,4.89-.35,6.24-2.26l.08,.06h0Z"/><path class="b" d="M54.79,110.61c.11,1.33-1.42,2.17-2.5,1.49-.11-.08-.55-.41-.32-.6,.94,.24,2-.42,2.76-.97l.07,.08h0Z"/><path class="b" d="M57.43,103.24c.16,1.89-2.43,3.08-3.78,1.77v-.1c1.4-.03,2.79-.65,3.7-1.73l.08,.06h0Z"/><path class="b" d="M53.67,98.89c.92,.75,1.39,2.21,.77,3.2-.07,.05-.04,.16,.08,.18l.06,.08c-.95,.45-.98-2.85-1.01-3.46h.1Z"/><path class="b" d="M51.79,105.87c.96,1.17,.76,2.02,.75,3.42l-.05,.08c-.55-.36-.82-1.02-.91-1.64-.07-.64,0-1.27,.12-1.89l.1,.02h0Z"/><path class="b" d="M56.13,93.08c.57,1.62-.14,2.89,.63,4.35l-.03,.09c-.86-.27-1.35-1.16-1.32-2.04,.02-.86,.28-1.69,.64-2.45l.09,.04h0Z"/></g><path class="g" d="M59.15,93.16s-1.48,0-2.22,2.22c-.74,2.22,.37-2.22-.37-2.59s-2.34,1.71-2.47,3.08,.98,2.48,.61,2.85-1.11-2.59-1.48-1.85-.74,5.93,0,6.3c0,0,.37,1.11-.74,.74-1.11-.37-.62-3.76-1.61-2.25-.99,1.51,1.61,2.99,1.24,3.36s-2.22,1.11-.74,4.82l.05,4.28s1.44-2.43,3.66-2.43,0-.74,0-.74c0,0,2.22-1.11,.74-1.11s-2.59,.37-2.59,.37c0,0,3.71-1.55,5.38-2.63,1.66-1.08,.09-1,.09-1,0,0,2.34-2.9,1.22-2.61s-2.51,1.69-2.51,1.69c0,0,.3-1.22-.27-.57s-2.05,.65-2.05,.65c0,0,3.34-1.85,3.34-2.59s-.74,0-.74,0c0,0,1.48-1.11,.74-1.11s-2.22,.74-2.22,.74c0,0,3.34-1.85,3.71-2.22s2.59-1.48,1.85-1.85,.74-3.34,0-3.34-1.48,1.85-1.48,1.85c0,0-.74-1.11-1.11,0s-.74,1.11-.74,1.11c0,0,1.11-3.34,.74-2.97s.74-2.59,0-2.22Z"/></g></g><g><path class="k" d="M52.75,67.84s-2.77-4.79,2.27-5.29c5.04-.5,2.08-2.23,6.87-1.47s7.23,.46,13.53,.46,8.06-.5,9.57,.5,15.66,26.67,15.66,26.67c0,0-2.31,.78-5.33-.73-3.02-1.51-1.26-1.76-2.77-.76-1.51,1.01-2.01-1.76-2.01-1.76,0,0-2.52-2.52-2.27,3.78,.25,6.3-4.03,5.29-5.04,6.3-1.01,1.01-2.52,3.78-6.8,2.01-4.28-1.76-19.9-28.21-23.67-29.72Z"/><path class="f" d="M84.33,62.98s-9.86-1.3-14.82,1.18c-4.95,2.48,6.44-.5,7.93,.5,1.49,.99-3.96,1.49-4.46,1.98s4.95-.5,4.95,.5,3.96-.99,4.46,0c.5,.99-4.95,.99-3.47,2.48,1.49,1.49,9.41-1.49,9.91,.99,.5,2.48-.99,1.49-.5,2.97,.5,1.49,1.98-.99,2.48,0s-2.97,4.95,1.98,7.43c4.95,2.48,1.98,1.49,1.98,1.98s.99,0,3.47,2.97c0,0-10-20.2-13.92-22.98Z"/></g><g><path class="i" d="M62.66,17.74s.5,4.03,4.03,5.29c3.53,1.26,.48,7.62,3.26,8.97,2.78,1.35,5.55-1.92,8.07,.09,2.52,2.01,4.2,2.15,4.2,2.15,0,0,2.6,6.67,5.12,5.91,0,0-4.03,1.01-5.04,3.78-1.01,2.77-1.76,5.54-8.31,3.53-6.55-2.01-4.28-5.04-9.32-5.54-5.04-.5-4.53-2.77-6.8-2.52-2.27,.25-5.04,.76-6.04-2.27s3.78,0,5.79-7.3c2.01-7.3-1.76-9.07,5.04-12.09Z"/><path class="f" d="M61.01,22.25l13.61,24.4s4.46,2.97,6.44-3.96-.99,1.98-1.98,.99,1.98-5.45,3.96-4.95c1.98,.5,.5-1.98-.5-1.49s-3.47,3.47-4.95,1.98c-.99-.99,.92-2.52,2.11-3.03,.21-.09,.17-.4-.05-.44-1.73-.3-4.96,1.23-4.54,2.48-.79-.88,1.98-4.46,2.48-4.95,.78-.78-4.04,.04-4.46,2.48-.39,2.27-2.04-.81-2.12-2.04-.01-.19-.23-.29-.4-.19-.6,.35-.69,.77-.46,1.24-.75-1.02-1.49-1.98-.99-2.97-.65,0-.9,.21-.99,.5-.78-2.15-1.09-4.11-.56-5.75,.02-.07-.05-.12-.11-.08-.91,.59-1.48,1.4-1.81,2.37-.4-1.91-.39-3.72,0-5.45-.68,1.02-1.12,2.02-.99,2.97l-3.48-4.25c-.11-.13-.31,0-.23,.15Z"/></g><g><path class="k" d="M55.27,20.48c.79-.51,1.84-.25,2.3,.56,1.88,3.32,5.9,11.09,4.14,13.83-2.27,3.53,.25,2.77,0,3.78-.25,1.01-3.78,2.77-4.28,4.53-.5,1.76,1.01,1.26-2.52,3.78,0,0,3.02,1.76-.5,3.02,0,0,2.52,1.76-1.76,2.77s-2.27-2.01-4.79-1.26c0,0,0,2.01-2.01,2.01l-2.01-13.6,2.77-12.84,3.27-5.54s.84,1.89,5.4-1.04Z"/><g><path class="b" d="M53.95,25.71c-3.31,6.33-4.74,13.41-6.16,20.36-.46,1.86-.84,5.62-1.47,7.06l.28-3.59c.62-5.93,1.67-11.98,3.88-17.54,.91-2.22,1.91-4.44,3.39-6.35l.08,.07h0Z"/><path class="b" d="M58.55,26.54c1.2,5.16-3.6,10.17-8.66,7.33l.02-.1c.54,.07,1.08,.19,1.62,.21,2.92,.22,5.22-1.56,6.2-4.27,.39-1.02,.64-2.1,.72-3.18h.1Z"/><path class="b" d="M56.75,38.92c-.7,3.85-5.95,7.18-9.2,4.09l.04-.09c3.94,1.78,6.99-1.28,9.15-3.99h0Z"/><path class="b" d="M50.76,46.93c-.16,1.66-1.99,2.74-3.53,2.24-.14-.05-.78-.35-.57-.57,1.46,.2,2.94-.84,4.03-1.74l.07,.07h0Z"/><path class="b" d="M53.65,36.7c-.07,2.35-3.54,4.23-5.39,2.86,2.05-.25,4.06-1.25,5.31-2.91l.08,.05h0Z"/><path class="b" d="M47.37,31.56c1.16,1.06,1.55,2.54,1.61,4.01,.01,.13-.13,.32,.2,.35l.07,.08c-.18,.19-.49,.13-.65-.06-.92-1.25-1.05-2.88-1.32-4.36l.1-.02h0Z"/><path class="b" d="M45.57,41.14c1.13,1.67,.91,2.73,1.63,4.44l-.04,.09c-.81-.35-1.33-1.16-1.55-1.98-.21-.84-.22-1.71-.14-2.56h.1Z"/><path class="b" d="M50.22,23.43c.49,2.11-.23,4.15,1.6,5.7l-.02,.1c-1.2-.19-2.13-1.2-2.23-2.42-.12-1.18,.16-2.34,.56-3.42l.09,.04h0Z"/></g><path class="f" d="M52.27,27.15s3.65-5.12,4.64-3.14c.99,1.98-3.96,7.43-2.97,7.93,.99,.5,4.95-6.94,5.45-5.94s.99,9.91-4.95,10.4c0,0,1.98,.99,0,3.47-1.98,2.48,2.97-1.49,2.97-1.49,0,0,2.48-.5,0,3.96-2.48,4.46-5.95,3.43-5.95,3.43,0,0,3.75,1.65-.35,3.82-4.11,2.17-3.88,2.68-3.88,2.68,0,0,.74-5.32-1.22-7.13-1.97-1.81-1.92-9.31,.78-10.51s1.97-8.47,2.83-8.3,2.66,.83,2.66,.83Z"/></g><g><path class="i" d="M57.03,73.68c2.03-1.51,1.7-2.24,1.7-2.24,0,0-8.22-7.49-10.57-10.81,0,0,.02-4.46-3.03-8.16,0,0-.29-1.44-1.1-3.44-.8-2-3.93-3.92-4.42-4.83s-.93-3.25-2.16-3.48-1.62,.46-4.05-1.07c0,0-3.19-.5-2.65,3.45,0,0-.77,1.39-2.23,2.04s1,1.47,.97,2.18-.64,2.29,1.42,4.16c2.06,1.87-2.2,5.43-1.86,5.8s.11,1.61,.08,2.32-1.38,2.97,7.56,2.3c0,0,2.34-.43,3.46,2.29,1.13,2.72,4.05,5.17,4.05,5.17,0,0,5.84,8.99,7.3,4.24,1.46-4.75-.35-4.12,1.07-4.05,1.42,.06,4.45,4.12,4.45,4.12Z"/><path class="f" d="M57.69,71.71s-5.12-5.22-7.47-4.43c0,0,1.76,.43,1.73,1.15,0,0-3-.67-1.53,2.43s-4.69-1.4-3.29-3.59c0,0-2.94-.6-2.31,1.21,0,0-2.56-1.29-1.69-3.51,.87-2.23-2.75-.96-3.75-2.43s5.18-.31,5.06-1.56c-.12-1.25-8.93-1.21-9.37-.55s-4.09-1.47,6.48-2.6c0,0,.96-1.56-1.17-1.66-2.13-.09-7.38,1.63-7.65,3.58,0,0-4.35,1.59-2.81-3.07,1.54-4.66,9.12-2.72,8.85-4.51s-5.92,.92-6.57-.68,6.47-1.29,5.45-2.4-8.25,1.06-7.8-1.06c.45-2.12,4.86-1.03,4.74-2.29-.12-1.25-4.42-.73-3.43-3s3.2,.14,4.08,.36,.25-1.59,1.32-1.55,.93,3.25,1.45,3.45,2.1,.81,2.95,1.74,.43,2.86,1.18,3.79c.75,.93,2.77,2.59,2.91,3.95s.91,4.07,1.61,4.46,.61,3.28,1.52,4.28,2.14,1.2,3.08,2.24,6.46,5.2,6.41,6.27Z"/></g><g><path class="i" d="M46.4,58.04c2.27-.39,2.31-1.12,2.31-1.12,0,0-3.59-9.48-4.13-13.14,0,0,1.85-3.61,.91-7.87,0,0,.36-1.29,.53-3.24,.17-1.95-1.57-4.8-1.6-5.75s.59-3.02-.32-3.72-1.51-.29-2.85-2.54c0,0-2.38-1.72-3.57,1.71,0,0-1.2,.81-2.65,.74s.21,1.61-.11,2.17-1.46,1.6-.56,3.97c.9,2.37-4.03,3.5-3.9,3.94s-.58,1.35-.9,1.92-2.35,1.84,5.2,4.98c0,0,2.08,.61,1.87,3.29s1.16,5.87,1.16,5.87c0,0,1.03,9.71,4.18,6.46,3.14-3.26,1.41-3.49,2.54-2.85,1.13,.64,1.92,5.18,1.92,5.18Z"/><path class="f" d="M47.75,56.71s-2-6.35-4.24-6.68c0,0,1.25,1.08,.93,1.65,0,0-2.16-1.78-2.25,1.34s-3.24-3.07-1.19-4.27c0,0-2.14-1.7-2.37,.03,0,0-1.55-2.1,.08-3.55,1.63-1.45-1.84-1.91-2.05-3.52-.21-1.61,4.34,1.89,4.75,.82,.42-1.07-6.76-4.67-7.38-4.32s-2.71-2.88,6.34,.56c0,0,1.42-.87-.27-1.83s-6.67-1.72-7.69-.24c0,0-4.19-.5-1.01-3.65,3.17-3.14,8.53,1.56,9.04-.01s-5.19-1.69-5.05-3.26,5.79,1.63,5.42,.3-7.14-2.54-5.9-4.08c1.24-1.54,4.37,1.17,4.79,.1,.42-1.07-3.29-2.42-1.55-3.86s2.54,1.44,3.17,1.98,.86-1.19,1.71-.71-.59,3.02-.24,3.4,1.38,1.52,1.68,2.63-.83,2.5-.61,3.56c.23,1.07,1.18,3.24,.74,4.41s-.94,3.68-.53,4.28-.86,2.91-.53,4.1,1.24,1.86,1.58,3.09,3.1,6.89,2.62,7.74Z"/></g><g><path class="i" d="M91.31,78.33c-2.52,.25-2.77-.5-2.77-.5,0,0,1.01-11.08,.5-15.11,0,0-3.02-3.27-3.27-8.06,0,0-.76-1.26-1.51-3.27s.25-5.54,0-6.55-1.51-3.02-.76-4.03,1.51-.76,2.27-3.53c0,0,2.01-2.52,4.28,.76,0,0,1.51,.5,3.02,0s.25,1.76,.76,2.27,2.01,1.26,1.76,4.03c-.25,2.77,5.29,2.52,5.29,3.02s1.01,1.26,1.51,1.76,3.02,1.26-4.03,6.8c0,0-2.01,1.26-1.01,4.03,1.01,2.77,.5,6.55,.5,6.55,0,0,1.76,10.58-2.52,8.06-4.28-2.52-2.52-3.27-3.53-2.27-1.01,1.01-.5,6.04-.5,6.04Z"/><path class="g" d="M89.29,78.08s.25-7.3,2.52-8.31c0,0-1.01,1.51-.5,2.01,0,0,1.76-2.52,2.77,.76,1.01,3.27,2.52-4.2,0-4.87,0,0,1.76-2.43,2.52-.67,0,0,1.02-2.68-1.13-3.73s1.38-2.56,1.13-4.33c-.25-1.76-4.03,3.27-4.79,2.27s5.77-6.92,6.54-6.74,2.02-3.84-6.54,2.45c0,0-1.76-.5-.25-2.01,1.51-1.51,6.55-3.78,8.06-2.52,0,0,4.28-1.76,0-4.16-4.28-2.39-8.56,4.16-9.57,2.64s4.99-3.32,4.39-4.93c-.61-1.61-5.64,3.42-5.64,1.91s6.8-4.79,5.04-6.04c-1.76-1.26-4.28,2.52-5.04,1.51s2.77-3.53,.5-4.53-2.27,2.27-2.77,3.02-1.26-1.01-2.01-.25,1.51,3.02,1.26,3.53-1.01,2.01-1.01,3.27,1.61,2.4,1.69,3.59c.07,1.19-.3,3.78,.52,4.88s2.08,3.62,1.82,4.37,1.76,2.83,1.76,4.18-.77,2.33-.76,3.73c0,1.4-1.25,8.2-.5,8.96Z"/></g><g><path class="i" d="M78.26,122.05c-2.52,.25-2.77-.5-2.77-.5,0,0,1.01-11.08,.5-15.11,0,0-3.02-3.27-3.27-8.06,0,0-.76-1.26-1.51-3.27s.25-5.54,0-6.55-1.51-3.02-.76-4.03,1.51-.76,2.27-3.53c0,0,2.01-2.52,4.28,.76,0,0,1.51,.5,3.02,0s.25,1.76,.76,2.27,2.01,1.26,1.76,4.03c-.25,2.77,5.29,2.52,5.29,3.02s1.01,1.26,1.51,1.76,3.02,1.26-4.03,6.8c0,0-2.01,1.26-1.01,4.03,1.01,2.77,.5,6.55,.5,6.55,0,0,1.76,10.58-2.52,8.06-4.28-2.52-2.52-3.27-3.53-2.27-1.01,1.01-.5,6.04-.5,6.04Z"/><path class="g" d="M76.24,121.8s.25-7.3,2.52-8.31c0,0-1.01,1.51-.5,2.01,0,0,1.76-2.52,2.77,.76,1.01,3.27,2.52-4.2,0-4.87,0,0,1.76-2.43,2.52-.67,0,0,1.02-2.68-1.13-3.73s1.38-2.56,1.13-4.33c-.25-1.76-4.03,3.27-4.79,2.27s5.77-6.92,6.54-6.74,2.02-3.84-6.54,2.45c0,0-1.76-.5-.25-2.01,1.51-1.51,6.55-3.78,8.06-2.52,0,0,4.28-1.76,0-4.16-4.28-2.39-8.56,4.16-9.57,2.64s4.99-3.32,4.39-4.93c-.61-1.61-5.64,3.42-5.64,1.91s6.8-4.79,5.04-6.04c-1.76-1.26-4.28,2.52-5.04,1.51s2.77-3.53,.5-4.53-2.27,2.27-2.77,3.02-1.26-1.01-2.01-.25,1.51,3.02,1.26,3.53-1.01,2.01-1.01,3.27,1.61,2.4,1.69,3.59c.07,1.19-.3,3.78,.52,4.88s2.08,3.62,1.82,4.37,1.76,2.83,1.76,4.18-.77,2.33-.76,3.73c0,1.4-1.25,8.2-.5,8.96Z"/></g><g><g><path class="i" d="M106.79,102.5s-7.56-3.02-5.29-11.08c0,0-4.28-2.52-3.02-7.81,1.26-5.29,.76,0,3.02-2.01,2.27-2.01,3.53,2.77,5.79,1.76,2.27-1.01,1.51-3.27,4.03-2.01l3.53,3.53,6.04,9.82,3.02,5.79s1.01,4.03-2.52,3.53c0,0,.76,1.76-6.04-.76-6.8-2.52-8.56-.76-8.56-.76Z"/><path class="g" d="M99.94,82.62s.99-.5,2.97,2.48c1.98,2.97,0-.99,.5-.99s0-1.98,.5-1.49,2.48,1.49,2.48,2.48c0,0,1.35-.34,.92,2.56s.07,2.4,.07,2.4c0,0,.5-1.49,.99,0s-.99-4.46,0-3.96,0-1.98,.5-1.98,1.49,3.47,1.49,3.47c0,0,1.49,0,.5,2.97-.99,2.97,.5,1.49,.5,1.49,0,0,1.98-.99,1.49,.5s3.96,8.92,3.96,8.92c0,0-12.41-1.04-11.9-3.74,0,0-.48-1.71,2-1.71,0,0-3.96-.5-3.47-.99s.99,0,.99,0c0,0-2.48-1.98-1.49-2.48s1.49,0,1.49,0c0,0,1.49,.5,1.49,1.49,0,0,.99,.99,1.49,0s-2.48-1.98-2.48-1.98c0,0-3.47-.5-2.97-.99s-1.49-.99-1.49-1.98-.99-1.98,0-1.98,1.49,1.49,1.49,1.49c0,0,.99-.99,1.49,1.49,0,0,1.49,.99,.5-.99-.99-1.98-3.96-1.98-4.46-2.97s.5-.99,.5-.99c0,0-.99-1.98,0-2.48Z"/></g><g><path class="b" d="M100.92,88.5c2.1,1.33,3.23,2.25,5.49,2.99l.02,.1c-1.12,.23-2.34,.1-3.34-.51-.98-.61-1.75-1.52-2.26-2.54l.09-.04h0Z"/><path class="b" d="M100.41,83.21c5.06,6.79,11.45,12.37,16.86,18.87l-.07,.08c-4.78-4.2-9.45-8.57-13.39-13.59-1.3-1.68-2.58-3.39-3.49-5.32l.09-.04h0Z"/><path class="b" d="M106.96,96.56c.89,.67,1.59,1.23,2.58,1.36,.97,.13,2.09-.2,3.14-.23l.06,.08c-.97,.66-2.11,1.26-3.32,1.14-1.23-.17-2.14-1.2-2.54-2.32l.09-.03h0Z"/><path class="b" d="M104.19,93.28c2.04,1.58,4.07,1.89,6.57,2.16l.03,.09c-1.21,.43-2.55,.65-3.83,.29-1.27-.38-2.3-1.33-2.87-2.5l.09-.04h0Z"/><path class="b" d="M108.86,86.93c1.21,1.42,1.56,3.36,.91,5.11-.18,.63-1.16,1.54-1.77,.9l.02-.1c.6,.15,.9-.47,.98-.97,.24-1.63,0-3.3-.24-4.93l.1-.02h0Z"/><path class="b" d="M104.44,83.95c1.47,.45,2.47,1.88,2.39,3.42-.05,1.09-1.2,2-2.16,1.69l-.03-.09c2.36-.87,.81-3.62-.27-4.96l.08-.07h0Z"/></g><g><path class="h" d="M115.59,77.02c-.88-.51-1.49,.98-2,1.8-2.1,3.32-9.16,4.56-7.19,7.3,2.54,3.53-.28,2.77,0,3.78s4.23,2.77,4.8,4.53c.56,1.76-1.13,1.26,2.82,3.78,0,0-3.39,1.76,.56,3.02,0,0-2.52,1.26,2.28,2.27s2.24-1.51,5.06-.76c0,0,0,2.01,2.26,2.01l2.26-13.6-3.1-12.84-3.67-5.54s1.03,7.18-4.07,4.25Z"/><path class="k" d="M117.51,72.24c-.79-.51-1.84-.25-2.3,.56-1.88,3.32-5.9,11.09-4.14,13.83,2.27,3.53-.25,2.77,0,3.78s3.78,2.77,4.28,4.53-1.01,1.26,2.52,3.78c0,0-3.02,1.76,.5,3.02,0,0-2.52,1.76,1.76,2.77s2.27-2.01,4.79-1.26c0,0,0,2.01,2.01,2.01l2.01-13.6-2.77-12.84-3.27-5.54s-.84,1.89-5.4-1.04Z"/><g><path class="b" d="M117.83,77.69c6.39,6.27,9.02,17.78,9.32,26.49l-.1,.02-.61-3.49c-1.6-7.98-3.94-16.44-8.61-23.02h0Z"/><path class="b" d="M113.89,79.07c1.95,3.79,3.37,6.77,8.21,6.26l.04,.09c-3.28,1.4-6.29-.07-7.51-3.36-.4-.95-.68-1.95-.83-2.97h.1Z"/><path class="b" d="M116.65,91.14c2.65,1.69,5.01,3.93,8.37,3.03l.06,.08c-2.19,1.65-5.13,.71-6.87-1.14-.61-.58-1.16-1.22-1.64-1.92l.08-.06h0Z"/><path class="b" d="M122.69,98.43c1.56-.16,2.6,.49,3.78,1.36-1.36,.54-2.84-.43-3.85-1.28l.07-.08h0Z"/><path class="b" d="M119.17,88.59c1.89,.57,3.31,1.21,4.95,2.31v.1c-1.93,.08-3.88-.79-5.03-2.36l.08-.06h0Z"/><path class="b" d="M124.22,82.85c.99,1.42,.88,3.43-.37,4.65-.23,.23-.83,.41-.95-.04l.06-.08c.16,.14,.34,.03,.44-.16,.55-1.37,.57-2.92,.72-4.37h.1Z"/><path class="b" d="M126.74,92.16c1.15,1.01,1.27,2.8,.35,4-.33,.41-.84,.74-1.4,.69l-.06-.08c1.33-1.06,1.18-3.06,1-4.59l.1-.02h0Z"/><path class="b" d="M120.92,75.04c2.21,1.33,2.35,6.23-.91,5.98l-.03-.09c2.35-.95,1.6-4,.85-5.84l.09-.04h0Z"/></g><path class="g" d="M116.79,75.19s1.98,0,2.97,2.97c.99,2.97-.5-2.97,.5-3.47s3.12,2.28,3.3,4.11c.17,1.83-1.31,3.32-.82,3.81s1.49-3.47,1.98-2.48,.99,7.93,0,8.42c0,0-.5,1.49,.99,.99,1.49-.5,.83-5.02,2.15-3.01,1.32,2.02-2.15,4-1.65,4.49s2.97,1.49,.99,6.44l-.06,5.72s-1.92-3.25-4.89-3.25,0-.99,0-.99c0,0-2.97-1.49-.99-1.49s3.47,.5,3.47,.5c0,0-4.96-2.07-7.19-3.51-2.22-1.44-.12-1.33-.12-1.33,0,0-3.12-3.88-1.63-3.48s3.35,2.26,3.35,2.26c0,0-.4-1.63,.36-.76s2.74,.87,2.74,.87c0,0-4.46-2.48-4.46-3.47s.99,0,.99,0c0,0-1.98-1.49-.99-1.49s2.97,.99,2.97,.99c0,0-4.46-2.48-4.95-2.97s-3.47-1.98-2.48-2.48-.99-4.46,0-4.46,1.98,2.48,1.98,2.48c0,0,.99-1.49,1.49,0s.99,1.49,.99,1.49c0,0-1.49-4.46-.99-3.96s-.99-3.47,0-2.97Z"/></g></g><g><path class="l" d="M73.78,57.77s-18.8,14.77-22.71,16.49c-.24,.11-.35,.39-.24,.63,.46,1.03,1.62,3.31,2.5,2.84,1.83-.97,19.73-16.45,22.09-16.75,0,0,.96-2.41-1.65-3.21Z"/><path class="d" d="M63.7,67.34l-.07-.1c-.1-.16-.06,.3-.21,.39l-12.1,6.92c-.25,.16-.27,.52-.05,.76l.2,.21c.21,.22,.54,.28,.76,.13l11.34-7.58c.23-.15,.28-.47,.12-.72Z"/><path class="c" d="M63.92,67.86l-.08-.1c-.12-.15-.03,.31-.16,.41l-11.16,8.35c-.23,.19-.21,.55,.05,.76l.22,.19c.23,.2,.57,.21,.77,.03l10.46-8.5c.21-.18,.09-.92-.11-1.15Z"/></g><g><path class="l" d="M67.74,89.14s6.77,22.93,6.93,27.19c0,.26,.23,.47,.5,.46,1.13-.05,3.67-.28,3.56-1.28-.23-2.06-7.99-24.42-7.4-26.72,0,0-1.88-1.78-3.59,.34Z"/><path class="d" d="M72.91,102.04l-.12,.02c-.19,.03,.26,.17,.29,.34l1.96,13.8c.05,.29,.38,.45,.69,.33l.27-.11c.28-.11,.46-.39,.4-.66l-2.85-13.34c-.06-.27-.33-.43-.63-.38Z"/><path class="c" d="M73.48,102.03l-.12,.04c-.18,.06,.27,.14,.33,.3l3.64,13.45c.09,.28,.43,.4,.73,.24l.26-.14c.27-.14,.4-.45,.32-.71l-4.03-12.86c-.09-.26-.82-.42-1.11-.33Z"/></g><g><path class="l" d="M43.72,95.37s6.77,22.93,6.93,27.19c0,.26,.23,.47,.5,.46,1.13-.05,3.67-.28,3.56-1.28-.23-2.06-7.99-24.42-7.4-26.72,0,0-1.88-1.78-3.59,.34Z"/><path class="d" d="M48.89,108.27l-.12,.02c-.19,.03,.26,.17,.29,.34l1.96,13.8c.05,.29,.38,.45,.69,.33l.27-.11c.28-.11,.46-.39,.4-.66l-2.85-13.34c-.06-.27-.33-.43-.63-.38Z"/><path class="c" d="M49.46,108.26l-.12,.04c-.18,.06,.27,.14,.33,.3l3.64,13.45c.09,.28,.43,.4,.73,.24l.26-.14c.27-.14,.4-.45,.32-.71l-4.03-12.86c-.09-.26-.82-.42-1.11-.33Z"/></g><g><path class="l" d="M105.95,94.6s-18.8,14.77-22.71,16.49c-.24,.11-.35,.39-.24,.63,.46,1.03,1.62,3.31,2.5,2.84,1.83-.97,19.73-16.45,22.09-16.75,0,0,.96-2.41-1.65-3.21Z"/><path class="d" d="M96.23,103.7l-.07-.1c-.11-.16-.31-.21-.46-.11l-11.59,7.85c-.25,.17-.26,.53-.02,.76l.21,.21c.22,.22,.54,.26,.77,.1l11.07-7.98c.22-.16,.26-.48,.09-.73Z"/></g><g><path class="l" d="M96.98,90.87s-8.58,22.31-11.05,25.79c-.15,.22-.1,.52,.12,.67,.92,.64,3.08,2.01,3.6,1.15,1.08-1.78,8.52-24.24,10.39-25.7,0,0-.41-2.56-3.06-1.91Z"/><path class="d" d="M93.27,103.93l-.11-.05c-.17-.08,.11,.29,.04,.44l-6.45,12.36c-.13,.27,.05,.58,.37,.67l.28,.07c.3,.08,.6-.05,.71-.3l5.45-12.51c.11-.25-.02-.54-.29-.67Z"/></g><g><path class="l" d="M97.6,58.18s12.31,20.49,13.53,24.59c.08,.25,.34,.4,.6,.32,1.08-.33,3.48-1.19,3.13-2.13-.74-1.94-13.86-21.63-13.86-24.01,0,0-2.27-1.25-3.39,1.23Z"/><path class="c" d="M99.93,57.3h-.11c-.17,0-.18,.23-.03,.51l12.95,22.86c.28,.49,.74,.83,.98,.74l.21-.08c.22-.09,.19-.49-.07-.94l-12.98-22.29c-.26-.45-.67-.8-.95-.8Z"/><path class="d" d="M99.4,57.64l-.06-.04c-.1-.06-.05,.12,.1,.4l12.39,22.91c.26,.49,.6,.93,.72,.93h.1c.1,0,0-.32-.25-.77l-12.28-22.45c-.25-.45-.56-.87-.71-.97Z"/></g><g><path class="l" d="M78.83,32.79s18.17,15.54,20.62,19.03c.15,.22,.45,.27,.67,.11,.92-.66,2.92-2.23,2.29-3.01-1.31-1.61-20-16.12-20.76-18.38,0,0-2.55-.47-2.82,2.24Z"/><path class="c" d="M80.39,31.13l-.12,.05c-.18,.07-.13,.32,.12,.54l20.09,18.28c.43,.39,1.01,.55,1.23,.35l.2-.18c.2-.19,.06-.6-.34-.95l-19.96-17.66c-.4-.36-.93-.54-1.22-.42Z"/><path class="d" d="M79.32,32.11h-.08c-.13-.02-.03,.16,.22,.38l20.24,17.83c.43,.38,.93,.66,1.07,.6l.12-.05c.12-.06-.09-.36-.49-.71l-20-17.39c-.4-.35-.87-.63-1.08-.65Z"/></g><g><path class="l" d="M40.88,53.05s23.35,5.14,27.16,7.06c.24,.12,.52,.02,.64-.22,.5-1.01,1.53-3.35,.6-3.73-1.92-.8-25.24-4.79-26.97-6.42,0,0-2.47,.79-1.43,3.31Z"/><path class="c" d="M41.44,50.87l-.08,.12c-.12,.18,.05,.39,.36,.46l25.76,5.83c.55,.12,1.12-.06,1.2-.4l.08-.29c.08-.31-.24-.62-.75-.72l-25.35-5.31c-.51-.11-1.04,.03-1.23,.32Z"/><path class="d" d="M41.02,52.48l-.08,.03c-.12,.05,.05,.16,.37,.24l26.22,6.35c.56,.13,1.13,.15,1.22,.03l.08-.1c.08-.11-.25-.28-.76-.4l-25.79-6.08c-.52-.12-1.06-.15-1.25-.07Z"/></g><g><path class="l" d="M67.41,70.97s23.35,5.14,27.16,7.06c.24,.12,.52,.02,.64-.22,.5-1.01,1.53-3.35,.6-3.73-1.92-.8-25.24-4.79-26.97-6.42,0,0-2.47,.79-1.43,3.31Z"/><path class="c" d="M67.96,68.79l-.08,.12c-.12,.18,.05,.39,.36,.46l25.76,5.83c.55,.12,1.12-.06,1.2-.4l.08-.29c.08-.31-.24-.62-.75-.72l-25.35-5.31c-.51-.11-1.04,.03-1.23,.32Z"/><path class="d" d="M67.54,70.4l-.08,.03c-.12,.05,.05,.16,.37,.24l26.22,6.35c.56,.13,1.13,.15,1.22,.03l.08-.1c.08-.11-.25-.28-.76-.4l-25.79-6.08c-.52-.12-1.06-.15-1.25-.07Z"/></g><g><path class="l" d="M102.44,66.01s22.12,9.07,25.54,11.62c.21,.16,.51,.11,.67-.1,.66-.91,2.08-3.04,1.23-3.58-1.75-1.12-24.04-9.05-25.47-10.95,0,0-2.57,.35-1.98,3.01Z"/><path class="c" d="M103.99,64.34l-.1,.1c-.15,.15-.02,.39,.28,.52l24.3,10.36c.52,.22,1.11,.14,1.25-.17l.13-.27c.13-.29-.13-.65-.61-.84l-23.98-9.77c-.48-.2-1.03-.16-1.27,.09Z"/><path class="d" d="M102.84,65.48l-.08,.02c-.12,.03,.02,.17,.32,.3l24.71,10.81c.53,.23,1.09,.35,1.2,.25l.09-.09c.1-.09-.19-.32-.68-.53l-24.34-10.48c-.49-.21-1.02-.34-1.22-.29Z"/></g><g><path class="l" d="M49.38,39.3s22.12,9.07,25.54,11.62c.21,.16,.51,.11,.67-.1,.66-.91,2.08-3.04,1.23-3.58-1.75-1.12-24.04-9.05-25.47-10.95,0,0-2.57,.35-1.98,3.01Z"/><path class="c" d="M50.93,37.63l-.1,.1c-.15,.15-.02,.39,.28,.52l24.3,10.36c.52,.22,1.11,.14,1.25-.17l.13-.27c.13-.29-.13-.65-.61-.84l-23.98-9.77c-.48-.2-1.03-.16-1.27,.09Z"/><path class="d" d="M49.78,38.77l-.08,.02c-.12,.03,.02,.17,.32,.3l24.71,10.81c.53,.23,1.09,.35,1.2,.25l.09-.09c.1-.09-.19-.32-.68-.53l-24.34-10.48c-.49-.21-1.02-.34-1.22-.29Z"/></g><g><path class="i" d="M63.24,62.8s7.56-3.02,5.29-11.08c0,0,4.28-2.52,3.02-7.81s-.76,0-3.02-2.01c-2.27-2.01-3.53,2.77-5.79,1.76s-1.51-3.27-4.03-2.01l-3.53,3.53-6.04,9.82-3.02,5.79s-1.01,4.03,2.52,3.53c0,0-.76,1.76,6.04-.76,6.8-2.52,8.56-.76,8.56-.76Z"/><path class="f" d="M64.1,46.19s6.4-3.57,6.65-1.79-7.22,5.28-6.6,5.91,5.49-4.15,5.62-3.26-1.75,7.92-6.37,6.84c0,0,1.25,1.26-.87,2.69-2.12,1.43,2.62-.42,2.62-.42,0,0,2,.23-1,3.07-3,2.84-6.78,1.53-6.78,1.53,0,0,2.16,.82-1.49,1.49-3.65,.67-3.47,.99-3.47,.99,0,0,2.02-3.07,.99-4.95-1.03-1.89,2.31-7.38,4.65-7.64,2.34-.27,3.63-6.07,4.24-5.73s1.8,1.29,1.8,1.29Z"/><path class="b" d="M70.23,44.47c-6.48,5.45-11.46,12.37-17.22,18.55l-.06-.04c3.74-5.14,7.67-10.2,12.28-14.6,1.54-1.36,3.23-3.13,5-3.91h0Z"/><path class="b" d="M61.59,57.53c-.93,1.65-4.49,4.46-5.84,1.9,.46,.41,.97,.51,1.46,.42,1.62-.39,2.88-1.51,4.38-2.33h0Z"/><path class="b" d="M57.13,53.07c-.12,1.35-.45,2.41,.5,3.47-1.77-.12-1.73-2.66-.5-3.47h0Z"/><path class="b" d="M60.6,49.1c-1.77,2.57,1.45,4.13,3.66,3.4,.77-.22,1.54-.52,2.29-.92-.57,.63-1.29,1.14-2.1,1.48-2.56,1.35-6.8-1.44-3.85-3.95h0Z"/></g></g></g></g></svg>