<svg id="f58ab22b-ce58-415c-bacf-702a3ab38474" data-name="Layer 1" xmlns="http://www.w3.org/2000/svg" width="78.51" height="92.16" viewBox="0 0 78.51 92.16">
  <defs>
    <style>
      .b844487e-585b-487d-bb16-9fce76a0fa76, .e5982952-dee6-433c-8bf2-bc114f1bb5c5 {
        fill: #32a337;
      }

      .a2e8dac1-b17e-4010-b07c-0ac0eb772b02, .b9471340-1f9b-41e6-a8c8-3f0a0402fd9c, .badf82ac-9d2e-4680-8563-e1d91c154515, .e5982952-dee6-433c-8bf2-bc114f1bb5c5 {
        stroke: #1d6d0f;
        stroke-width: 0.25px;
      }

      .a2e8dac1-b17e-4010-b07c-0ac0eb772b02, .ae182909-ba34-4b45-a521-96383ea3f8d8, .b9471340-1f9b-41e6-a8c8-3f0a0402fd9c, .badf82ac-9d2e-4680-8563-e1d91c154515, .e5982952-dee6-433c-8bf2-bc114f1bb5c5 {
        stroke-miterlimit: 10;
      }

      .a2e8dac1-b17e-4010-b07c-0ac0eb772b02 {
        fill: #47ad49;
      }

      .abf2747b-fa91-435d-b50e-87d29fc9fb78, .b9471340-1f9b-41e6-a8c8-3f0a0402fd9c {
        fill: #1b8e38;
      }

      .badf82ac-9d2e-4680-8563-e1d91c154515 {
        fill: #299938;
      }

      .ae182909-ba34-4b45-a521-96383ea3f8d8 {
        fill: #ff7900;
        stroke: #915c1d;
        stroke-width: 0.5px;
      }

      .b744c9f7-eda3-4a8f-82f1-c5448cd188f7 {
        fill: #fdad30;
      }

      .efaa8254-d6f2-44f2-a48f-87b8543dbd74 {
        fill: #c13600;
        opacity: 0.3;
        isolation: isolate;
      }

      .b0e27d10-5c4f-494a-a6bb-77dec8f826ae {
        fill: #fff;
        opacity: 0.3;
      }
    </style>
  </defs>
  <g id="f69cce8a-4076-473d-8b89-d5cebbbdd3aa" data-name="Carrot">
    <g id="a1ee3a69-bcef-475c-b35a-7b331e94f6f4" data-name="Carrot">
      <g>
        <path class="e5982952-dee6-433c-8bf2-bc114f1bb5c5" d="M42.88,40.26a72.84,72.84,0,0,0-8.29-12.52c-3-3.69-6.38-7.13-9.33-10.91a45.28,45.28,0,0,1-4.38-6.66c-.11-.22.23-.06.29,0a1.47,1.47,0,0,1,.54.54,60.36,60.36,0,0,0,8.5,11.49,113.66,113.66,0,0,1,9.18,11.36,73.54,73.54,0,0,1,4.32,7.24c.11.22-.23.06-.29,0A1.47,1.47,0,0,1,42.88,40.26Z"/>
        <path class="a2e8dac1-b17e-4010-b07c-0ac0eb772b02" d="M10.58,16.1a2.87,2.87,0,0,1,.74-1.05A4.18,4.18,0,0,1,15,14.28c1.58.34,3,1.34,4.62,1.35,1.39.19-1.56-3.38-2.46-5.05a16.57,16.57,0,0,0-1.68-2.24,5,5,0,0,1-1.19-2.5c-.12-1.24.78-2.68,2.12-2.47a7.6,7.6,0,0,1,3.87,2.36C21.54,7,22.78,8.48,24.49,9.14c-.53-2.35.83-4.67,2.14-6.7a2.63,2.63,0,0,1,.74-.85,1.67,1.67,0,0,1,2.06.46,3.28,3.28,0,0,1,.65,2.16c0,.77-.14,1.54-.14,2.31,0,2.71,1.77,5.1,2.31,7.75.62,3.06-.37,6.42,1,9.22.82,1.7,1.85,3.32,2.73,5,.33.6,1.42,2.1,1,2.13a12.51,12.51,0,0,1-1.7-1.53,29.14,29.14,0,0,0-3.66-2.78,14.93,14.93,0,0,0-6.82-2.41c-2-.18-4,0-5.85-.68s-3.32-2.25-5.16-3c-1.06-.45-2.32-.7-3-1.64A2.51,2.51,0,0,1,10.58,16.1Z"/>
        <path class="b844487e-585b-487d-bb16-9fce76a0fa76" d="M17.47,3.75c-1.17-.15-2.42.21-2.66,1.5a5.33,5.33,0,0,0,.58,3,4.92,4.92,0,0,1-1.15-2.45c-.12-1.24.78-2.68,2.12-2.47a5.52,5.52,0,0,1,1.25.4Z"/>
        <path class="b844487e-585b-487d-bb16-9fce76a0fa76" d="M10.77,18.52a2.51,2.51,0,0,1-.19-2.42,2.87,2.87,0,0,1,.74-1.05A4.18,4.18,0,0,1,15,14.28c1.58.34,3,1.34,4.62,1.35,1.05.15-.39-1.87-1.54-3.58a21.46,21.46,0,0,1,3.24,3.58,2.49,2.49,0,0,1,.45,1h0v.08h0c0-.05,0,0,0,0h0l0,0c-.12.07,0,0-.15.06a4,4,0,0,1-2.07-.39,28.47,28.47,0,0,0-2.67-1.13c-1.6-.48-3.76-.86-5,.51a1.67,1.67,0,0,0-.37,2,3,3,0,0,0,1.67,1.28,20.25,20.25,0,0,1,5.19,3.31,4.33,4.33,0,0,0,2.61,1,22.88,22.88,0,0,0,3.61-.21,12.23,12.23,0,0,1,3.12-.38,2.27,2.27,0,0,1,.64.23c.31.15.6.32.9.49a16.76,16.76,0,0,0,1.92,1,1.59,1.59,0,0,0,1.55,0,.46.46,0,0,0,.11-.56c-.73-1.37-1.84-2.64-2.09-4.22a17.64,17.64,0,0,1,0-3.33,9.92,9.92,0,0,0-.09-1.72c-.09-.58-.31-1.13-.43-1.71A7.81,7.81,0,0,1,30,10a1.37,1.37,0,0,1,.4-.71l0-.07a43.42,43.42,0,0,1,1.78,5c.62,3.06-.37,6.42,1,9.22.82,1.7,1.85,3.32,2.73,5,.33.6,1.42,2.1,1,2.13a12.51,12.51,0,0,1-1.7-1.53,29.14,29.14,0,0,0-3.66-2.78,14.93,14.93,0,0,0-6.82-2.41c-2-.18-4,0-5.85-.68s-3.32-2.25-5.16-3C12.71,19.71,11.45,19.46,10.77,18.52Z"/>
        <path class="b844487e-585b-487d-bb16-9fce76a0fa76" d="M28.17,2c-1.39.38-2.82,2-2.52,3.49a28.06,28.06,0,0,1,1,3.63,1.37,1.37,0,0,1-.46,1.29c-.51.34-1.05,0-1.47-.33a10.54,10.54,0,0,1-1.43-1.48l-.31-.36a6.87,6.87,0,0,0,1.56.88c-.53-2.35.83-4.67,2.14-6.7a2.63,2.63,0,0,1,.74-.85,1.67,1.67,0,0,1,2.06.46,2.37,2.37,0,0,1,.44.77A1.46,1.46,0,0,0,28.17,2Z"/>
        <path class="b9471340-1f9b-41e6-a8c8-3f0a0402fd9c" d="M42.41,41.19a73.34,73.34,0,0,1-3.8-12.42c-.89-4.22-1.44-8.5-2.39-12.71a43.69,43.69,0,0,0-2.06-6.83c-.07-.15.15,0,.19,0a1,1,0,0,1,.32.4A60.67,60.67,0,0,1,37.8,22a113.8,113.8,0,0,0,2.73,12.8q1,3.48,2.4,6.84c.06.15-.16,0-.2,0A1,1,0,0,1,42.41,41.19Z"/>
        <path class="badf82ac-9d2e-4680-8563-e1d91c154515" d="M43.13,5.69a2.13,2.13,0,0,0-1-.07,3.28,3.28,0,0,0-2.26,1.83c-.57,1.13-.66,2.5-1.44,3.49-.57.93-1.3-2.61-1.87-4A12.69,12.69,0,0,1,36,4.83a3.8,3.8,0,0,0-.94-1.95A1.64,1.64,0,0,0,32.53,3a6,6,0,0,0-.46,3.52,10.41,10.41,0,0,1,0,4.27c-1.17-1.48-3.25-1.79-5.13-2a2,2,0,0,0-.88,0,1.29,1.29,0,0,0-.73,1.48,2.53,2.53,0,0,0,1,1.45c.47.38,1,.67,1.47,1,1.64,1.34,2.24,3.58,3.6,5.22,1.55,1.87,4.09,2.92,5.13,5.12.63,1.33,1.12,2.76,1.69,4.11.21.49.59,1.89.82,1.65a9.58,9.58,0,0,0-.1-1.78,22.8,22.8,0,0,1,.1-3.6,11.63,11.63,0,0,1,1.88-5.34,17.77,17.77,0,0,0,2.46-3.9c.49-1.48.25-3.13.68-4.64A5.23,5.23,0,0,0,44.51,7,2,2,0,0,0,43.13,5.69Z"/>
        <path class="abf2747b-fa91-435d-b50e-87d29fc9fb78" d="M44.51,7a2,2,0,0,0-1.38-1.3,2.13,2.13,0,0,0-1-.07,3.28,3.28,0,0,0-2.26,1.83c-.57,1.13-.66,2.5-1.44,3.49-.43.71-1-1.16-1.43-2.7A16.5,16.5,0,0,0,37.59,12a2,2,0,0,0,.39.76h0l0,0h0s0,0,0,0h0c.09,0,0,0,.1-.07A3.1,3.1,0,0,0,39,11.24c.22-.72.34-1.48.62-2.18.5-1.21,1.33-2.72,2.79-2.82A1.31,1.31,0,0,1,43.75,7a2.35,2.35,0,0,1,0,1.65,16.06,16.06,0,0,0-.53,4.79,3.37,3.37,0,0,1-.69,2.07,17.92,17.92,0,0,1-1.9,2.09,9.25,9.25,0,0,0-1.76,1.72,2,2,0,0,0-.18.5c0,.26-.09.52-.14.79a12,12,0,0,1-.32,1.67,1.26,1.26,0,0,1-.75,1,.37.37,0,0,1-.39-.21,11.25,11.25,0,0,0-1.55-3.35,13.3,13.3,0,0,0-2-1.63,8.56,8.56,0,0,1-1-.9c-.32-.34-.54-.75-.83-1.11a6.14,6.14,0,0,0-2.17-1.69.29.29,0,0,1-.28.1A32.36,32.36,0,0,0,31.38,18c1.55,1.87,4.09,2.92,5.13,5.12.63,1.33,1.12,2.76,1.69,4.11.21.49.59,1.89.82,1.65a9.58,9.58,0,0,0-.1-1.78,22.8,22.8,0,0,1,.1-3.6,11.63,11.63,0,0,1,1.88-5.34,17.77,17.77,0,0,0,2.46-3.9c.49-1.48.25-3.13.68-4.64A5.23,5.23,0,0,0,44.51,7Z"/>
        <path class="abf2747b-fa91-435d-b50e-87d29fc9fb78" d="M25.91,9.5a2.68,2.68,0,0,1,3.36.17A22.51,22.51,0,0,0,31,12a1.06,1.06,0,0,0,1,.35c.46-.14.52-.64.52-1.05a7.87,7.87,0,0,0-.2-1.6c0-.12,0-.24-.07-.36a4.64,4.64,0,0,1-.23,1.38c-1.17-1.48-3.25-1.79-5.13-2a2,2,0,0,0-.88,0,1.29,1.29,0,0,0-.73,1.48,1.86,1.86,0,0,0,.25.64A1.13,1.13,0,0,1,25.91,9.5Z"/>
        <path class="b9471340-1f9b-41e6-a8c8-3f0a0402fd9c" d="M47,38.51c-4.64-2.5-9.17-5.2-13.67-7.94-2-1.22-4-2.45-6-3.75-2.58-1.71-5-3.67-7.44-5.57a51,51,0,0,0-10.1-6.53c-.18-.08-.71-.35-.72-.58s.51,0,.58,0c6.56,3,11.71,8,17.58,12.07,1.8,1.24,3.48,2.26,5.37,3.41,2.43,1.5,4.89,3,7.36,4.4s4.78,2.78,7.21,4.09c.11.06.65.37.55.55S47.11,38.55,47,38.51Z"/>
        <path class="badf82ac-9d2e-4680-8563-e1d91c154515" d="M14.24,4.62a2.48,2.48,0,0,0-.89.71,3.74,3.74,0,0,0-.5,3.27c.39,1.39,1.36,2.61,1.46,4,.24,1.22-3.09-1.21-4.62-1.92A14.18,14.18,0,0,1,7.6,9.35a4.33,4.33,0,0,0-2.28-.91c-1.11,0-2.34.83-2.08,2a6.8,6.8,0,0,0,2.3,3.31,12,12,0,0,1,3.27,3.6C6.69,17,4.7,18.36,3,19.63a2.26,2.26,0,0,0-.71.7,1.48,1.48,0,0,0,.51,1.81,3,3,0,0,0,2,.46c.69-.05,1.36-.21,2-.25,2.41-.13,4.63,1.3,7,1.63,2.75.38,5.69-.68,8.25.37,1.55.64,3.05,1.46,4.57,2.16.55.25,1.94,1.14,1.95.77a11,11,0,0,0-1.45-1.43,24.65,24.65,0,0,1-2.67-3.1,13.21,13.21,0,0,1-2.51-5.93c-.27-1.74-.21-3.56-.92-5.16s-2.19-2.83-3-4.43c-.46-.92-.75-2-1.62-2.57A2.24,2.24,0,0,0,14.24,4.62Z"/>
        <path class="abf2747b-fa91-435d-b50e-87d29fc9fb78" d="M3.51,11.1c0-1,.5-2.1,1.67-2.14a4.7,4.7,0,0,1,2.6.91,4.34,4.34,0,0,0-2-1.33c-1.08-.27-2.47.33-2.45,1.54a4.12,4.12,0,0,0,.18,1.15Z"/>
        <path class="abf2747b-fa91-435d-b50e-87d29fc9fb78" d="M16.4,4.66a2.24,2.24,0,0,0-2.16,0,2.48,2.48,0,0,0-.89.71,3.74,3.74,0,0,0-.5,3.27c.39,1.39,1.36,2.61,1.46,4,.19.92-1.68-.25-3.27-1.18a19.07,19.07,0,0,0,3.36,2.69,2.33,2.33,0,0,0,.9.34h.08c-.05,0,0,0,0,0h0l0,0c.05-.11,0,0,0-.13A3.41,3.41,0,0,0,15,12.49c-.37-.78-.85-1.51-1.14-2.31-.52-1.4-1-3.3.18-4.51a1.49,1.49,0,0,1,1.73-.43A2.64,2.64,0,0,1,17,6.66a18.18,18.18,0,0,0,3.23,4.43,3.86,3.86,0,0,1,1,2.27,19.12,19.12,0,0,1,0,3.21,11,11,0,0,0-.17,2.8,2.14,2.14,0,0,0,.24.56c.15.26.32.51.49.77a16.16,16.16,0,0,1,1,1.65,1.45,1.45,0,0,1,.1,1.38.42.42,0,0,1-.49.13c-1.26-.58-2.45-1.5-3.87-1.64a16.36,16.36,0,0,0-3,.19,8.68,8.68,0,0,1-1.53,0c-.52-.05-1-.21-1.54-.29a7.18,7.18,0,0,0-3.13.23.37.37,0,0,1-.15.31A38.24,38.24,0,0,0,13.79,24c2.75.38,5.69-.68,8.25.37,1.55.64,3.05,1.46,4.57,2.16.55.25,1.94,1.14,1.95.77a11,11,0,0,0-1.45-1.43,24.65,24.65,0,0,1-2.67-3.1,13.21,13.21,0,0,1-2.51-5.93c-.27-1.74-.21-3.56-.92-5.16s-2.19-2.83-3-4.43C17.56,6.31,17.27,5.21,16.4,4.66Z"/>
      </g>
      <g>
        <g>
          <path class="ae182909-ba34-4b45-a521-96383ea3f8d8" d="M37.06,47.31c-1.26-2.44-3.13-5.57-2.69-8.47s2.81-4.73,5.11-6.17a7.69,7.69,0,0,1,7.22-.74c4.13,1.82,6.76,6.39,9.06,10,2.89,4.6,5.41,9.41,7.93,14.22,1.76,3.37,16.4,33.65,11.8,34.54-1.09.21-2.5-1-3.34-1.54-4.71-3-29.26-30.66-35.07-41.86C37.07,47.32,37.07,47.31,37.06,47.31Z"/>
          <path class="b744c9f7-eda3-4a8f-82f1-c5448cd188f7" d="M42.19,43.2a18.18,18.18,0,0,1,5.71-3.48c1.32-.55,3.27-1.43,4.73-1,0,0,0,.07,0,.07-3.71.32-7.08,2.69-10.1,4.65C42.36,43.58,42,43.39,42.19,43.2Z"/>
          <path class="b744c9f7-eda3-4a8f-82f1-c5448cd188f7" d="M40.28,50.25a18.17,18.17,0,0,1,5.89-4.19s.14,0,.08.09a31.65,31.65,0,0,0-2.92,2c-1,.74-1.72,1.67-2.74,2.33C40.48,50.51,40.13,50.39,40.28,50.25Z"/>
          <path class="b744c9f7-eda3-4a8f-82f1-c5448cd188f7" d="M42.42,51.43a6.61,6.61,0,0,1,1.15-.88,6.42,6.42,0,0,0,1.34-.84s.12,0,.09,0a3.08,3.08,0,0,1-.87.7c-.52.34-1,.78-1.45,1.13C42.58,51.66,42.31,51.55,42.42,51.43Z"/>
          <path class="b744c9f7-eda3-4a8f-82f1-c5448cd188f7" d="M50,52.47A21.88,21.88,0,0,1,57.39,49c.07,0,.2.07.09.12-2.46,1.1-4.82,2.37-7.24,3.6C50.12,52.77,49.85,52.6,50,52.47Z"/>
          <path class="b744c9f7-eda3-4a8f-82f1-c5448cd188f7" d="M55.87,51.84a17.39,17.39,0,0,1,2.63-.91s.09,0,0,0a7,7,0,0,1-2.42,1.13C56,52.14,55.67,52,55.87,51.84Z"/>
          <path class="b744c9f7-eda3-4a8f-82f1-c5448cd188f7" d="M53,67.17a12.5,12.5,0,0,1,1.47-1.44c.54-.49,1.19-.82,1.71-1.32,0,0,.15,0,.11.07A11.13,11.13,0,0,1,54.89,66a12.72,12.72,0,0,1-1.53,1.41C53.23,67.48,52.88,67.34,53,67.17Z"/>
          <path class="b744c9f7-eda3-4a8f-82f1-c5448cd188f7" d="M64.66,67.74a3.14,3.14,0,0,1,1.52-.68h.11c.06,0,.16.07.09.13a7.51,7.51,0,0,1-.68.39c-.24.15-.48.27-.73.41S64.46,67.89,64.66,67.74Z"/>
          <path class="b744c9f7-eda3-4a8f-82f1-c5448cd188f7" d="M65.48,72.6c.43-.33,3.54-2,3.73-1.54a0,0,0,0,1,0,0v0c.1-.1.32.06.21.13a22.58,22.58,0,0,1-3.71,1.69C65.6,72.88,65.31,72.73,65.48,72.6Z"/>
          <path class="b744c9f7-eda3-4a8f-82f1-c5448cd188f7" d="M64.34,80.12c.41-.65,1.3-.77,1.84-1.25,0,0,.1,0,.08,0a2.39,2.39,0,0,1-.66.72c-.32.25-.58.6-1,.7C64.51,80.37,64.24,80.29,64.34,80.12Z"/>
          <path class="b744c9f7-eda3-4a8f-82f1-c5448cd188f7" d="M66.06,81.89a3.93,3.93,0,0,1,1.19-1.14c.34-.27,1.09-.87,1.38-.82,0,0,0,0,0,0l.07,0s.18,0,.13.08a6.73,6.73,0,0,1-1.08,1.12,3.3,3.3,0,0,1-1.35,1C66.29,82.11,66,82.05,66.06,81.89Z"/>
        </g>
        <path class="efaa8254-d6f2-44f2-a48f-87b8543dbd74" d="M75.49,90.73c-1.09.21-2.5-1-3.34-1.54-4.71-3-29.26-30.66-35.07-41.86l0,0c-1.26-2.44-3.13-5.57-2.69-8.47a6.54,6.54,0,0,1,3.05-4.67S38,51.91,75.49,90.73Z"/>
      </g>
      <ellipse class="b0e27d10-5c4f-494a-a6bb-77dec8f826ae" cx="54.36" cy="47.22" rx="1.94" ry="13.78" transform="translate(-16.33 33.5) rotate(-30)"/>
    </g>
  </g>
</svg>
