<svg xmlns="http://www.w3.org/2000/svg" width="50" height="86" viewBox="0 0 50 86">
  <defs>
    <style>
      .b2aa9cf9-7321-40b3-9b66-d867f8f6e244 {
        isolation: isolate;
      }

      .a6b09db8-1d7c-4d0b-a98e-dee65e31edbf {
        fill: #5b821f;
      }

      .a525eab4-6cbb-4398-961d-5b1b9270c194 {
        fill: #74a628;
      }

      .ee964a6d-f925-4380-9f58-e665caa13969 {
        fill: #c6c6c6;
      }

      .ee964a6d-f925-4380-9f58-e665caa13969, .f042ce38-7354-410c-b991-7fad27e85d03, .fac6a8c5-3c8d-410f-99ef-1269b792b322 {
        mix-blend-mode: multiply;
      }

      .a792fc1e-15eb-4cfd-844a-004aaf012cb4, .ab37c72c-6e24-484b-a1c6-88e47d22116b, .af406949-6f9f-4246-8fbe-d0a0c7c02149, .e0cb00e7-f9ae-4ec5-8410-0376a119175a {
        fill: #fff;
      }

      .af406949-6f9f-4246-8fbe-d0a0c7c02149 {
        opacity: 0.2;
      }

      .b5a4706d-c4f9-47b2-bb81-0145961db503 {
        fill: #587727;
      }

      .b59c11c6-76f9-4e16-9cee-5d8ac1675b6b {
        fill: #739c33;
      }

      .e0132647-0694-4b11-9d21-28af39f7cdb1, .f042ce38-7354-410c-b991-7fad27e85d03 {
        fill: #dadada;
      }

      .b520457a-8b85-43b8-873e-30875b3597ab {
        fill: #73971d;
      }

      .edc99f9a-c966-46d8-a3f8-a08425cc4710 {
        fill: #84ad21;
      }

      .ab37c72c-6e24-484b-a1c6-88e47d22116b {
        opacity: 0.3;
      }

      .a1afab3c-57e7-4adf-a52e-f8261cdd43fb {
        fill: #638c21;
      }

      .bd65df4e-9215-4c93-8dc7-34bcced032dc {
        fill: #77a828;
      }

      .f1b8e412-577f-45a3-9091-bd0d33029b73 {
        fill: #71a126;
      }

      .a400a247-65a5-4a87-a671-066264d21671 {
        fill: #83ba2c;
      }

      .e596eac1-c490-4363-bb2e-e221d2cae45c {
        fill: #8e0936;
        stroke: #770058;
        stroke-miterlimit: 10;
        stroke-width: 0.5px;
      }

      .ad9d4429-5024-4d44-b0cb-9a624a47bbfa {
        fill: #66001c;
      }

      .a792fc1e-15eb-4cfd-844a-004aaf012cb4 {
        opacity: 0.08;
      }

      .e0cb00e7-f9ae-4ec5-8410-0376a119175a {
        opacity: 0.1;
      }
    </style>
  </defs>
  <g class="b2aa9cf9-7321-40b3-9b66-d867f8f6e244">
    <g id="ed644a8a-7af6-4437-96eb-52ee8a5c81ef" data-name="Layer 1">
      <g id="f5162ea0-4e64-4e99-8210-e76b5289af5e" data-name="Onion">
        <g id="a236b3aa-38e1-47eb-ab71-2a813df96217" data-name="Onion">
          <g>
            <g>
              <path class="a6b09db8-1d7c-4d0b-a98e-dee65e31edbf" d="M37.93,11.61C31.52,20,27.58,28.15,24.85,40.21l3.09.6c1.58-9.8,4.3-17.8,10.29-29A.18.18,0,0,0,37.93,11.61Z"/>
              <path class="a525eab4-6cbb-4398-961d-5b1b9270c194" d="M25.86,39.56A70,70,0,0,1,33.2,20.15a80,80,0,0,0-5.94,19.68Z"/>
              <path class="ee964a6d-f925-4380-9f58-e665caa13969" d="M27.47,40.72l.47.09c1.58-9.8,4.3-17.8,10.29-29a.18.18,0,0,0,0-.2C32,22.82,29.19,30.87,27.47,40.72Z"/>
              <path class="af406949-6f9f-4246-8fbe-d0a0c7c02149" d="M25.3,40.25C28,28.18,31.83,20,38.18,11.57a.17.17,0,0,0-.25,0C31.52,20,27.58,28.15,24.85,40.21l3.09.6v-.06Z"/>
            </g>
            <g>
              <path class="b5a4706d-c4f9-47b2-bb81-0145961db503" d="M29.52,4.15C24.68,15.59,23.22,25.88,23.14,41a.26.26,0,0,0,.26.26h3.5a.27.27,0,0,0,.26-.27A123.45,123.45,0,0,1,30,4.31.26.26,0,0,0,29.52,4.15Z"/>
              <path class="b59c11c6-76f9-4e16-9cee-5d8ac1675b6b" d="M24.09,40.35c.1-11.52,1.07-19.87,3.38-27.69a121.17,121.17,0,0,0-1.3,27.69Z"/>
              <path class="f042ce38-7354-410c-b991-7fad27e85d03" d="M29.52,4.15a.29.29,0,0,1,0,.16A123.47,123.47,0,0,0,26.68,41a.26.26,0,0,1-.25.27h.47a.27.27,0,0,0,.26-.27A123.45,123.45,0,0,1,30,4.31.26.26,0,0,0,29.52,4.15Z"/>
              <path class="af406949-6f9f-4246-8fbe-d0a0c7c02149" d="M23.5,41C23.58,25.88,25,15.59,29.88,4.15a.16.16,0,0,1,.06-.08.26.26,0,0,0-.42.08C24.68,15.59,23.22,25.88,23.14,41a.26.26,0,0,0,.26.26h.35A.26.26,0,0,1,23.5,41Z"/>
            </g>
            <g>
              <path class="b520457a-8b85-43b8-873e-30875b3597ab" d="M21.43,7.45c4.49,9.42,6.18,20.73,6.1,33.43l-3.32.42c.37-12.8-.31-22.63-3.2-33.69A.23.23,0,0,1,21.43,7.45Z"/>
              <path class="edc99f9a-c966-46d8-a3f8-a08425cc4710" d="M25.18,40.22A126.25,126.25,0,0,0,24,17.37a89.31,89.31,0,0,1,2.56,22.68Z"/>
              <path class="ee964a6d-f925-4380-9f58-e665caa13969" d="M21.43,7.45a.23.23,0,0,0-.42.16l.27,1c4.07,9.17,5.62,20.06,5.53,32.22l-2.6.33v.09l3.32-.42C27.61,28.18,25.92,16.87,21.43,7.45Z"/>
              <path class="ab37c72c-6e24-484b-a1c6-88e47d22116b" d="M24.8,41.22c.25-8.51-.29-25.5-3.37-33.77-.09-.26-.49-.11-.42.16,2.89,11.06,3.57,20.89,3.2,33.69Z"/>
            </g>
            <g>
              <path class="a1afab3c-57e7-4adf-a52e-f8261cdd43fb" d="M23.91,40.88A51.7,51.7,0,0,1,33.6,10.79.22.22,0,0,1,34,11C29.53,21.32,26.8,31.47,26.4,40.88Z"/>
              <path class="bd65df4e-9215-4c93-8dc7-34bcced032dc" d="M24.76,40.05A51.47,51.47,0,0,1,30.7,17a81.17,81.17,0,0,0-5.09,23Z"/>
              <path class="f042ce38-7354-410c-b991-7fad27e85d03" d="M33.6,10.79l-.06.09a.32.32,0,0,1,0,.13c-4.46,10.31-7.2,20.46-7.59,29.87h.47C26.8,31.47,29.53,21.32,34,11A.22.22,0,0,0,33.6,10.79Z"/>
              <path class="af406949-6f9f-4246-8fbe-d0a0c7c02149" d="M34,10.78a.23.23,0,0,0-.36,0,51.7,51.7,0,0,0-9.69,30.09h.36A51.63,51.63,0,0,1,34,10.79Z"/>
            </g>
            <g>
              <path class="f1b8e412-577f-45a3-9091-bd0d33029b73" d="M17.12,4.53A86.15,86.15,0,0,1,26,41.18a.11.11,0,0,1-.11.12H23.67a.12.12,0,0,1-.12-.11c0-12.64-2.41-24.09-6.64-36.57A.11.11,0,0,1,17.12,4.53Z"/>
              <path class="a400a247-65a5-4a87-a671-066264d21671" d="M24.26,40.59a103.62,103.62,0,0,0-3.44-25.44,89.23,89.23,0,0,1,4.49,25.44Z"/>
              <path class="f042ce38-7354-410c-b991-7fad27e85d03" d="M17.12,4.53a.11.11,0,0,0-.21.09c.07.2.14.39.2.59a86.68,86.68,0,0,1,8.58,36,.12.12,0,0,1-.12.12h.36a.11.11,0,0,0,.11-.12A86.15,86.15,0,0,0,17.12,4.53Z"/>
              <path class="ab37c72c-6e24-484b-a1c6-88e47d22116b" d="M23.91,41.19c0-12.44-2.34-23.73-6.44-36-.12-.23-.23-.46-.35-.68a.11.11,0,0,0-.21.09c4.23,12.48,6.61,23.93,6.64,36.57a.12.12,0,0,0,.12.11H24A.11.11,0,0,1,23.91,41.19Z"/>
            </g>
          </g>
          <path class="e596eac1-c490-4363-bb2e-e221d2cae45c" d="M4.09,61.13c0,9.17,6.5,15.41,12.5,18.55a19.06,19.06,0,0,0,7.58,2.37h.3a18.42,18.42,0,0,0,4-.5,26.49,26.49,0,0,0,4.13-1.32A26.07,26.07,0,0,0,35.18,79a21.14,21.14,0,0,0,7.74-7.07,19.77,19.77,0,0,0,3-10.81c0-7.76-5.56-11.74-10.09-14.07-.81-.41-1.59-.77-2.29-1.1s-1.47-.66-2-.93l-.62-.32h0a2.42,2.42,0,0,1-.7-.53l0-.06a23.28,23.28,0,0,1-1.83-5l-.42.47-.67-.41-.94.49L25,38.87l-.91.55-1-.69a12.91,12.91,0,0,1-2.73,5.12,4.3,4.3,0,0,1-1.22.76c-1.09.52-2.67,1.08-4.41,1.85C10,48.56,4.09,52.27,4.09,61.13Z"/>
          <g class="fac6a8c5-3c8d-410f-99ef-1269b792b322">
            <polygon class="e0132647-0694-4b11-9d21-28af39f7cdb1" points="27.14 39.6 27.61 39.35 27.21 39.11 26.72 39.36 27.14 39.6"/>
            <path class="e0132647-0694-4b11-9d21-28af39f7cdb1" d="M28.36,39.29c0-.15-.06-.24-.06-.24l-.11.13Z"/>
            <polygon class="e0132647-0694-4b11-9d21-28af39f7cdb1" points="24.96 39.42 25.45 39.13 25 38.87 24.55 39.15 24.96 39.42"/>
            <path class="e0132647-0694-4b11-9d21-28af39f7cdb1" d="M17.46,79.68C11.46,76.54,5,70.3,5,61.13c0-8.86,5.88-12.57,10.62-14.67,1.74-.77,3.33-1.33,4.42-1.85a4.37,4.37,0,0,0,1.21-.76,12.41,12.41,0,0,0,2.59-4.63l-.72-.49a12.91,12.91,0,0,1-2.73,5.12,4.3,4.3,0,0,1-1.22.76c-1.09.52-2.67,1.08-4.41,1.85C10,48.56,4.09,52.27,4.09,61.13c0,9.17,6.5,15.41,12.5,18.55a19.06,19.06,0,0,0,7.58,2.37h.74A19.19,19.19,0,0,1,17.46,79.68Z"/>
          </g>
          <g>
            <path class="ad9d4429-5024-4d44-b0cb-9a624a47bbfa" d="M26.5,44.36c1.75,17,1.5,24.4-1.22,37.45C28.28,70.38,29,60.47,26.5,44.36Z"/>
            <path class="ad9d4429-5024-4d44-b0cb-9a624a47bbfa" d="M25,44.36c-2.16,10.51-4.67,25.52-1.39,35.71.25.83.14.48.5,1.54-.26-.9-.35-1.22-.63-2.39C20.91,69.05,23.37,54.76,25,44.36Z"/>
            <path class="ad9d4429-5024-4d44-b0cb-9a624a47bbfa" d="M24,44.23C14.42,57.75,16.56,76.3,22.8,81.71,17.21,76.38,14.76,58.68,24,44.23Z"/>
            <path class="ad9d4429-5024-4d44-b0cb-9a624a47bbfa" d="M22.49,44c-12.7,9.26-11.93,31-.87,37.28C14.75,77,12.79,67.87,13.86,59.69,14.89,53.21,17.5,48,22.49,44Z"/>
            <path class="ad9d4429-5024-4d44-b0cb-9a624a47bbfa" d="M21.62,43.88C8.19,52.17,5.34,70.15,17.14,79.8,5.63,69.48,8.94,52.52,21.62,43.88Z"/>
            <path class="ad9d4429-5024-4d44-b0cb-9a624a47bbfa" d="M12.15,76.63C2.8,64.92,4.74,51.93,20.9,43.88,4.66,51,2.07,65.15,12.15,76.63Z"/>
            <path class="ad9d4429-5024-4d44-b0cb-9a624a47bbfa" d="M27.17,44.36c4.48,7.75,5.77,20.74,3.6,29.2A20.77,20.77,0,0,1,27,81.71a19.61,19.61,0,0,0,4.11-8.07C33.39,65.21,32.1,52,27.17,44.36Z"/>
            <path class="ad9d4429-5024-4d44-b0cb-9a624a47bbfa" d="M28.36,81.51a14.85,14.85,0,0,0,4.1-4.86c4.92-8.86,3.35-25.25-4.54-32.29,7.8,7.65,9.36,25.55,3,34.41A14.56,14.56,0,0,1,28.36,81.51Z"/>
            <path class="ad9d4429-5024-4d44-b0cb-9a624a47bbfa" d="M28.75,44.6c.64.45.45.31.85.62,9.9,7.38,11.64,29.08-.46,36.1a13.9,13.9,0,0,0,5-4.32C40.29,68.67,39.51,51.51,28.75,44.6Z"/>
            <path class="ad9d4429-5024-4d44-b0cb-9a624a47bbfa" d="M29,44.48c12,5.46,16,26,4.47,34.61a18.8,18.8,0,0,1-3,1.81,16.91,16.91,0,0,0,2.6-1.38c.19-.11.8-.54,1-.69C45.41,70.4,41.51,49.51,29,44.48Z"/>
            <path class="ad9d4429-5024-4d44-b0cb-9a624a47bbfa" d="M29.69,44.6c13.11,3.91,18,20,9.29,31.08-.74.92-.41.5-.75.91-.16.19-.25.29-.67.75C49.08,65.77,43.4,48,29.69,44.6Z"/>
          </g>
          <g>
            <path class="f042ce38-7354-410c-b991-7fad27e85d03" d="M16.59,79.68a19.06,19.06,0,0,0,7.58,2.37,22.15,22.15,0,0,0,8.39-1.82A2.75,2.75,0,0,0,32.3,80c-.88-.67-1.43-.35-2.36-.14-.71.17-1-1.25-1.47-1.47s-2,1.12-3,.63c-.45-.22-.92-.58-1.38-.41-.64.23-.94,1.35-1.6,1.33s-1-1.11-1.59-1.13-1,1-1.63,1-.79-.83-1.29-1-.77.18-1.06.5Z"/>
            <path class="f042ce38-7354-410c-b991-7fad27e85d03" d="M18,47a15.87,15.87,0,0,0,2.74-1.64.28.28,0,0,1,.43.2c0,.7-.17,2.07,0,2.13s.95-1.07,1.52-1.77a.13.13,0,0,1,.22.07,13.69,13.69,0,0,0,.21,2.63,31.89,31.89,0,0,0,1.49-3,.11.11,0,0,1,.2,0,11.76,11.76,0,0,0,.2,2.75,28.21,28.21,0,0,0,1.91-3.19c.14-.25.63-.44.75-.16a4.31,4.31,0,0,0,1.53,1.93c.19,0,.13-.38.24-1.33A.37.37,0,0,1,30,45.3a19.71,19.71,0,0,0,2.81,1c.3-.31-1.23-.87-1.89-1.59a2,2,0,0,1-.74-.59,23.28,23.28,0,0,1-1.83-5l-.42.47-.67-.41-.94.49L25,38.87l-.91.55-1-.69a12.91,12.91,0,0,1-2.73,5.12,4.3,4.3,0,0,1-1.22.76,2.59,2.59,0,0,0,.69.27A4.33,4.33,0,0,0,18,47Z"/>
            <path class="f042ce38-7354-410c-b991-7fad27e85d03" d="M14.72,46.46a1.43,1.43,0,0,1,.61.14c.81.39.93,1.63,1.75,2s1.72-.28,2.61-.22c1.17.07,2,1.34,3.17,1.41s2.05-1,3.17-1c.72,0,1.38.51,2.1.47,1.14-.06,1.87-1.35,3-1.59.93-.2,1.85.38,2.8.38A2.36,2.36,0,0,0,35.82,47c-2.08-1.06-3.94-1.78-4.95-2.36a2,2,0,0,1-.74-.59,23.28,23.28,0,0,1-1.83-5l-.42.47-.67-.41-.94.49L25,38.87l-.91.55-1-.69a12.91,12.91,0,0,1-2.73,5.12,4.3,4.3,0,0,1-1.22.76C18,45.13,16.46,45.69,14.72,46.46Z"/>
          </g>
          <g>
            <path class="a792fc1e-15eb-4cfd-844a-004aaf012cb4" d="M19.12,66.51a27.18,27.18,0,0,0,5.35,15.54,18.42,18.42,0,0,0,4-.5,26.49,26.49,0,0,0,4.13-1.32A26.07,26.07,0,0,0,35.18,79a21.14,21.14,0,0,0,7.74-7.07,19.77,19.77,0,0,0,3-10.81c0-7.76-5.56-11.74-10.09-14.07-.81-.41-1.59-.77-2.29-1.1s-1.47-.66-2-.93l-.62-.32h0a2.42,2.42,0,0,1-.7-.53C23.34,48.21,18.8,56.76,19.12,66.51Z"/>
            <path class="a792fc1e-15eb-4cfd-844a-004aaf012cb4" d="M21.89,65a25.56,25.56,0,0,0,6.54,16.52,26.49,26.49,0,0,0,4.13-1.32A26.07,26.07,0,0,0,35.18,79a21.14,21.14,0,0,0,7.74-7.07,19.77,19.77,0,0,0,3-10.81c0-7.76-5.56-11.74-10.09-14.07-.81-.41-1.59-.77-2.29-1.1s-1.47-.66-2-.93l-.62-.32C25.22,49,21.6,56.55,21.89,65Z"/>
            <path class="e0cb00e7-f9ae-4ec5-8410-0376a119175a" d="M24,63A20.35,20.35,0,0,0,35.18,79a21.14,21.14,0,0,0,7.74-7.07,19.77,19.77,0,0,0,3-10.81c0-7.76-5.56-11.74-10.09-14.07-.81-.41-1.59-.77-2.29-1.1s-1.47-.66-2-.93A19.93,19.93,0,0,0,24,63Z"/>
            <path class="af406949-6f9f-4246-8fbe-d0a0c7c02149" d="M27.4,59.25A14.22,14.22,0,0,0,42.86,71.9h.06a19.77,19.77,0,0,0,3-10.81c0-7.76-5.56-11.74-10.09-14.07-.81-.41-1.59-.77-2.29-1.1A14,14,0,0,0,27.4,59.25Z"/>
            <path class="ab37c72c-6e24-484b-a1c6-88e47d22116b" d="M36.56,59.12a2.73,2.73,0,0,0,3,2.42,2.66,2.66,0,0,0,2.35-3,2.72,2.72,0,0,0-3-2.42A2.66,2.66,0,0,0,36.56,59.12Z"/>
          </g>
        </g>
      </g>
    </g>
  </g>
</svg>
