<svg xmlns="http://www.w3.org/2000/svg" viewBox="0 0 256 256"><defs><style>.cls-1{isolation:isolate;}.cls-2{fill:#221f1f;}.cls-2,.cls-36{opacity:0.2;}.cls-3{fill:#f0fbfa;stroke:#7bc6bd;}.cls-14,.cls-3,.cls-34,.cls-4{stroke-miterlimit:10;}.cls-4{fill:#d4b6bd;stroke:#af697c;}.cls-5{fill:#ffb51c;}.cls-6{fill:#ffa418;}.cls-7{fill:#ffb747;}.cls-8{fill:#ffe706;}.cls-9{fill:#fffddd;}.cls-10{fill:#f7df00;}.cls-11{fill:#ffde05;}.cls-12{fill:#fff778;}.cls-13{fill:#fcd200;}.cls-14{fill:#de0600;stroke:#aa2121;stroke-width:0.75px;}.cls-15{fill:#fb0600;}.cls-16{fill:#fff;}.cls-17{fill:#034403;}.cls-18{fill:#5bae00;}.cls-19{fill:#559303;}.cls-20{fill:#045604;}.cls-21{fill:none;}.cls-22{fill:#df0000;}.cls-23{fill:#ff2d29;}.cls-24{fill:#ff9e00;}.cls-25{fill:#ffdc00;}.cls-26{fill:#cc64b9;}.cls-27{fill:#dd7bc7;}.cls-28{fill:#ffddf3;}.cls-29{fill:#ff6a66;}.cls-30{fill:#ff8d8d;}.cls-31{fill:#eaa953;}.cls-32{fill:#f7ac00;}.cls-33{fill:#fdca80;}.cls-34{fill:#00b0be;stroke:#0d9b97;}.cls-35,.cls-36{fill:#009fc2;}.cls-36{mix-blend-mode:multiply;}</style></defs><g class="cls-1"><g id="Layer_1" data-name="Layer 1"><ellipse class="cls-2" cx="128.2" cy="195.39" rx="97.42" ry="23.91"/><ellipse class="cls-3" cx="131.14" cy="83.75" rx="114.36" ry="43.21"/><path class="cls-4" d="M243.12,82.25v.37a1.62,1.62,0,0,0,0,.22c0,.49-.06,1-.11,1.47a15.64,15.64,0,0,1-.5,2.41,18.36,18.36,0,0,1-1.73,4.07,25.5,25.5,0,0,1-2.26,3.3,31.22,31.22,0,0,1-2.15,2.38l-.62.62a44.82,44.82,0,0,1-3.44,3,57.15,57.15,0,0,1-5.49,3.75l-.24.15-.25.15c-.58.35-1.16.69-1.77,1l-.91.51-1.47.78-1.26.63-.64.33-.64.3c-1.09.53-2.21,1-3.36,1.54l-.28.12-.82.36-.16.06-.37.16h0l-.41.17-.33.14-.64.26-.71.28-.15.06-.57.23-.36.14h0l-.84.32h0l-.47.18-.81.29h0l-.63.23c-.36.14-.73.26-1.09.39l-.11,0-1.12.38c-.44.16-.9.31-1.35.46l-.84.27-1,.32-.06,0-1.8.56-.68.2h0l-1,.28-2,.56a.88.88,0,0,1-.15,0l-.61.17-.41.11-.81.22-.23.06h0c-.11,0-.23.06-.34.09h0c-.45.13-.91.25-1.37.36l-.79.2h0l-2.59.63-1.13.27-.7.16c-.49.12-1,.22-1.48.33l-1.83.4c-.78.17-1.56.33-2.35.48l-.17,0-1.45.29-3.47.65h-.05l-3.95.67-.82.13-.31,0h-.06l-.14,0-.17,0-.29,0q-2.59.4-5.28.76l-1.48.2-.26,0-.37,0-1.29.15h0l-2.05.25h0l-1,.11-1,.11h-.12l-2.12.22-2.42.23-.28,0H154l-.26,0-.26,0h-.09l-.79.06-.62,0-.61.06H151l-.27,0h-.14l-.27,0a4.07,4.07,0,0,1-.5,0l-.3,0-.66.05-1.26.09h0l-.41,0-.8,0-.73,0c-.72,0-1.43.09-2.15.12l-.53,0-.52,0-.53,0-.66,0-1.45.06-2.07.07-1.34,0H136l-1,0h-1l-.7,0h-6.07c-1.3,0-2.6,0-3.88,0l-3.56-.07-2.09,0-1.63-.06-1.1,0-2.49-.11h0l-3.64-.2-1.15-.07h0l-3.15-.22-3.12-.26c-1.57-.14-3.12-.29-4.66-.45l-1.36-.14-1.62-.19h0l-1.46-.18-1.33-.16H90.8l-.55-.08-2.79-.37L87,121.8l-.89-.13-1.21-.18-.38-.06-1.86-.29q-1.77-.28-3.51-.6l-.87-.16-.88-.16-1-.19-1.42-.27-1.69-.35-1.56-.33c-1.33-.28-2.64-.58-3.93-.89l-.28-.06-1.35-.33-2.46-.62-.41-.11-.9-.24q-.77-.19-1.5-.42l-.25-.06h0a5.5,5.5,0,0,1-.58-.16,1.66,1.66,0,0,1-.21-.06L59.5,116l-.56-.16c-1.34-.4-2.66-.8-3.95-1.21l-1.19-.4c-3.35-1.11-6.51-2.31-9.45-3.57h0c-1.27-.54-2.5-1.1-3.69-1.67l-.41-.2q-3.21-1.56-6-3.24-1.73-1-3.27-2.13c-.67-.46-1.31-.94-1.93-1.42l-.14-.11c-.53-.42-1-.84-1.54-1.26-.81-.7-1.55-1.4-2.25-2.12-.15-.16-.31-.31-.45-.47l0,0-.75-.83a23.08,23.08,0,0,1-2.06-2.71l-.23-.35A17.57,17.57,0,0,1,19,87.41a15.74,15.74,0,0,1-.16-2.06,15.91,15.91,0,0,1,.67-4.73s0,0,0,0c.09-.29.18-.58.29-.86l0-.11c.1-.25.2-.51.31-.77a.14.14,0,0,0,0-.06.61.61,0,0,0,.07-.14q.14-.31.3-.63a3.13,3.13,0,0,1,.15-.32c.08-.15.15-.3.23-.44l.15-.31a.85.85,0,0,0,.09-.14c.18-.31.37-.63.57-.93.05-.09.11-.16.15-.24l.05-.07c.16-.26.35-.52.53-.78.06-.06.1-.15.16-.22.24-.33.49-.67.77-1a1.92,1.92,0,0,1,.13-.17q.34-.44.72-.84l0,0,.11-.12.1-.12.27-.28,0,0,.42-.44a.93.93,0,0,1,.14-.14l.08-.09c.18-.19.37-.36.54-.55l.11-.1q.55-.54,1.17-1.08c.17-.16.35-.3.52-.45l.15-.13.48-.41,0,0,.06,0L29,68.1l.51-.39.12-.09.18-.15L30,67.3l0,0,.14-.11,1.39-1,.22-.15c.51-.36,1-.71,1.58-1.07l.29-.18a3,3,0,0,1,.35-.22s0,0,0,0l0,0,.15-.09.08-.06.87-.53.25-.15a1.65,1.65,0,0,1,.25-.15l.47-.28c.29-.18.59-.35.88-.51s.34-.2.52-.29l1.62-.89.12-.06h0c.15-.09.3-.15.46-.24l.41-.22.36-.18.35-.17.53-.28.22-.1.31-.15,1.22-.58.33-.16.37-.17a1,1,0,0,1,.21-.09l.31-.15.33-.15.66-.29.23-.1h0l.17-.08h0l.24-.11.27-.11.23-.1,0,0,.5-.21h0l.28-.12.75-.32.06,0,.32-.13,1-.42.75-.29.75-.29.64-.24.72-.27,1.34-.49.6-.22.61-.22h0l1.25-.42.18-.06.46-.16.42-.13.07,0,.11,0,.51-.17.34-.11.67-.21.37-.11h0l.22-.08h0l.21-.06.15-.06L61,52.82l.44-.12c.56-.18,1.14-.34,1.72-.51l.68-.2,1.83-.5s0,0,.06,0l.21-.06h0l.08,0,.63-.18,1.5-.39.08,0,.4-.1.21-.05h0c.59-.16,1.18-.31,1.79-.45l.56-.14L73,49.62l.37-.08.12,0,.44-.1.06,0,.6-.13.45-.1.86-.19.06,0,.11,0,.46-.1.18,0,.92-.2h0l1.28-.27h0l.3-.07,2.17-.42.62-.12.75-.14,1-.17.38-.07.36-.07.11,0,1-.16,1.4-.24.19,0,.51-.08,2.13-.34.62-.1c.88-.14,1.75-.27,2.63-.39l.12,0,.63-.09.37-.05,1.52-.2.68-.1.5-.06,1.82-.22.39-.06,1.82-.2.89-.1.52-.06h.09l.46,0H103l1.21-.13.22,0,.17,0,.64-.06c.92-.09,1.84-.18,2.77-.25l.38,0,2.43-.2.74-.06c.85-.07,1.71-.12,2.56-.18l.26,0,2.83-.17h.18l.57,0,2.29-.12.44,0h.22L122,43.3l1.72-.07h.18l.41,0,1.22,0,1.14,0,.77,0h0l2.91-.06,2.53,0h3.46l1.56,0h1.38a1.92,1.92,0,0,0,.24,0h0l.66,0h.32l.86,0,1.05,0h.59l.82,0,.76,0H145l1,0h.28l.53,0h.19l1.72.08h.27l.4,0,.73,0,.19,0h0l.39,0,.43,0h.17l.37,0h.3l1.26.08.31,0h.43c.14,0,.3,0,.45,0h.35l1.2.09.55,0a1.36,1.36,0,0,1,.29,0l.46,0h0l1.16.08h.05c.24,0,.46.05.69.06l.59,0h0c.48,0,.95.08,1.43.12l.29,0,1.51.15.85.08.44,0,.25,0,.28,0h.24c.35,0,.71.06,1.07.11l.73.08,1.56.17.79.1.43.05c.36,0,.72.08,1.07.14l.76.09,1.55.2h0l.23,0,.42.06,1.88.26.31,0,1.74.26.51.08a1.08,1.08,0,0,1,.19,0l.38.06h0l.7.11.86.14.59.11.83.14h0l.31.05.4.07.69.13,1.44.26c.23,0,.45.08.68.13l1.46.28.62.12h.06l.08,0h.06l.24,0,.15,0,.95.19h0l.11,0,.38.07,2.49.55,1.54.35.5.11,1.46.35.25.07.17,0h.11l.08,0,0,0,1.28.32c.21,0,.42.1.63.16l1.12.29h0l.13,0,0,0,.56.14a1.17,1.17,0,0,0,.25.07l.29.09c.3.07.59.16.88.24.14,0,.28.07.42.12l.45.13.08,0c.41.1.81.23,1.21.35l.19,0,1.7.52.44.13,1.31.42.56.18,1,.34a.31.31,0,0,0,.12,0c.2.06.39.14.59.19l1.12.4.29.1.27.1c.4.15.8.28,1.18.43l.45.17c1.08.39,2.14.82,3.17,1.24l.37.15,1.15.48.5.22.1,0,.12,0h0c.25.12.49.21.73.32s.36.15.53.24l.34.16.6.27.5.23.23.11.75.37.42.2,1.19.61a.6.6,0,0,1,.16.08l1.34.71.25.14.63.35.39.21.38.23.17.1.68.4c.14.08.28.16.41.25l.8.49.39.25.82.53.32.22.38.26.58.4.12.09,1.09.79.05,0c.32.24.64.49.94.74l.23.18.74.61.26.22.68.6.23.21.4.38.29.27c.05.06.11.1.16.16.23.22.46.45.68.68l.21.22c.15.15.28.31.41.45s.25.27.36.41l.4.47c.14.16.27.31.39.47l.09.12c.09.11.17.23.26.33s.25.35.38.51.21.3.31.44.24.35.35.53l.28.43.32.55c.08.14.16.28.23.42s.21.39.31.58.13.27.2.4l.15.33a1.11,1.11,0,0,0,.07.16s0,0,0,0l0,.12c.05.12.11.24.15.35l.08.17v0c.1.27.2.53.29.8a15.53,15.53,0,0,1,.74,3.53q0,.41.06.81V82A2.62,2.62,0,0,0,243.12,82.25Z"/><path class="cls-5" d="M94.33,102c11.85-1.4,42.69-6.89,64.41-10.79,1.23.75,3.31,1.67,5,2.45,2,5.26-8.36,20.56-27.71,23.65C121,119.71,98.69,117.2,94.33,102Z"/><path class="cls-6" d="M163.7,93.66c-1.7-.92-3-1.61-5-2.45l-2,.36a60.8,60.8,0,0,1-3.82,6.83,36.94,36.94,0,0,1-3.53,4.72,29.86,29.86,0,0,1-4.1,3.77,44.24,44.24,0,0,1-9.74,5.47,46,46,0,0,1-12.32,3.31,41.62,41.62,0,0,1-6.41.27,28.89,28.89,0,0,1-6.36-.85,26.53,26.53,0,0,1-10.93-6,24.69,24.69,0,0,1-3.86-4.49c-.34-.51-.69-1-1-1.56,5.06,14.28,24,17.83,41.56,14.73C155.52,114.36,166.15,100.37,163.7,93.66Z"/><path class="cls-7" d="M156.62,95c1.64-.23,3.29-.44,4.91-.75a17.86,17.86,0,0,0,2.18-.56v0c-1.7-.92-3-1.61-5-2.45l-2,.36c-.58,1.22-1.2,2.41-1.86,3.58C155.46,95.11,156.05,95.07,156.62,95Z"/><path class="cls-8" d="M98.86,105c3.5-.83,58-9.57,64.29-11.15a50.32,50.32,0,0,1-4.78-2.56c-22.05,3.64-52.75,8.92-64,10.72C94.35,102.06,97.23,104,98.86,105Z"/><path class="cls-9" d="M158.9,92.32c.64.36,2.88,1.54,3.22,1.8.55-.11.71-.2,1-.28a50.32,50.32,0,0,1-4.78-2.56l-.94.15C157.91,91.75,158.41,92,158.9,92.32Z"/><path class="cls-8" d="M153.54,92.08c-17,2.83-37.64,6.35-50.7,8.52a17.94,17.94,0,0,0,2.15,2.62c.17.19.34.39.52.58,12.56-2.15,39-6.5,51.4-8.76A11.17,11.17,0,0,0,153.54,92.08Z"/><path class="cls-10" d="M145.87,93.36c-11.85,2-24.58,4.15-34.89,5.88a15.18,15.18,0,0,0,2.2,2.75l.46.43c10.71-1.8,24.69-4.25,35.25-6.08A21.89,21.89,0,0,0,145.87,93.36Z"/><path class="cls-9" d="M95.51,101.81l-1.18.19c0,.06,2.9,2,4.53,3a9.79,9.79,0,0,0,1.23-.12C99.42,104.28,96.12,102.39,95.51,101.81Z"/><path class="cls-11" d="M98.61,104.83c11.88-1.89,42.1-7.33,64.54-11,1.78,4.59-8.26,19.74-27.63,22.67C120.89,118.72,105,116.29,98.61,104.83Z"/><path class="cls-12" d="M163.15,93.84l-1,.16c.29,4.7-4.49,9.72-6.47,11.44a41.6,41.6,0,0,1-15,8.52A49,49,0,0,1,119,115.63c-7-1.1-15-4.3-19.32-11l-1.07.17c6.39,11.46,22.28,13.89,36.91,11.68C154.89,113.58,164.93,98.43,163.15,93.84Z"/><path class="cls-11" d="M109.78,107.39a28.08,28.08,0,0,0,9.11,2.64,49.55,49.55,0,0,0,11.09.16,47.88,47.88,0,0,0,11.58-2.55,43.46,43.46,0,0,0,5.46-2.4,35.55,35.55,0,0,0,5-3.11,15.73,15.73,0,0,0,5-7.29c-17.92,3-39,6.73-51.8,8.89A13,13,0,0,0,109.78,107.39Z"/><path class="cls-13" d="M124.51,104.45a39.86,39.86,0,0,0,6.37-.29,43.28,43.28,0,0,0,6.47-1.37,38.57,38.57,0,0,0,5.9-2.16,17.45,17.45,0,0,0,5.66-4.41c-12.26,2.08-25.16,4.33-35.42,6.1a21.9,21.9,0,0,0,5,1.54A38.83,38.83,0,0,0,124.51,104.45Z"/><path class="cls-14" d="M110.55,96.12c.79-3,3.45-3.56,5.4-4.08a15,15,0,0,0,3.53-2,14.68,14.68,0,0,0,2.78-2.82c.94-1.68,2-4,5.38-4.1s8.23,1.15,11.86,7c5.64,9.13.88,16.72-2.84,19.55s-12.67,5.63-21.13-1.37C110.09,103.86,109.76,99.15,110.55,96.12Z"/><path class="cls-15" d="M117.12,92.28c-1.06.26-2.12,1.19-1.65,2.15.55,1.12,1.66,2.53,3.62,1.93,3.1-.94,3.81-3.33,7-4.25s6.59.08,7-2.86-1.44-5-4.46-5c-2.23,0-3.55-.14-6.06,3.77A9.17,9.17,0,0,1,117.12,92.28Z"/><path class="cls-16" d="M126.76,89.52a2.09,2.09,0,0,0,2.76,0,1.78,1.78,0,0,0,.61-2.51,2.09,2.09,0,0,0-2.76.05A1.78,1.78,0,0,0,126.76,89.52Z"/><path class="cls-14" d="M82.4,90.06c4.6-.2,6.5,3.36,8.09,5.92a22.61,22.61,0,0,0,4.3,4.18c.34.23,3.43,2.34,5.17,2.73,2.77.61,6.49,1.14,8.12,5.88s2,12.26-4.64,20c-10.33,12.06-23.07,8.6-28.67,4.52s-13.45-15.62-7.35-30.77C71.34,92.8,77.79,90.25,82.4,90.06Z"/><path class="cls-15" d="M90.66,97.76c-.83-1.41-2.6-2.51-3.74-1.42-1.33,1.28-2.82,3.49-1.12,6,2.69,4,6.34,4,9,8.2s2.78,9.45,7.11,8.8,6.32-4.23,5-8.55c-.95-3.2-1.36-5.14-7.94-7C92.86,102.06,90.67,97.77,90.66,97.76Z"/><path class="cls-16" d="M98.76,110.31c-.69,1.15-.12,2.9,1.28,3.92s3.09.92,3.78-.22.12-2.9-1.28-3.92S99.45,109.17,98.76,110.31Z"/><path class="cls-17" d="M133.82,114.7c2.76,2.51,6.67,3.2,10.36,3.62s7.57.71,10.73,2.67c3.36,2.09,5.65,5.91,9.4,7.14,3,1,6.29.06,9.17-1.24s5.64-3,8.72-3.65c7.86-1.68,16.29,3.62,23.81.78,2.61-1,4.87-2.91,7.61-3.46s5.27.26,7.91.47a18.8,18.8,0,0,0,14.17-4.94c2.78-2.6,4.8-6.7,3.31-10.22-1.61-3.84-6.33-5-10.4-5.69L208,96.73c-6-1-12-2-18-.8-5.26,1-10.37,3.81-15.68,3.07-6.36-.88-11.84-6.68-18.17-5.6-6.18,1.06-10.25,8.4-16.52,8.41-1.69,0-3.41-.55-5-.12-2.26.59-3,4.12-3.29,6.13A7.91,7.91,0,0,0,133.82,114.7Z"/><path class="cls-18" d="M162.74,115.94a5.69,5.69,0,0,1-2,6.15,18.52,18.52,0,0,1-5.48,2.64,13.14,13.14,0,0,0-5.28,3c-2.08,2.2-2.7,4.77-5.74,6a8.37,8.37,0,0,1-7.45-.57c-1.7-1.08-3.18-2.84-5.19-2.9-3.18-.09-4.35,3.44-6.73,4.87a8.56,8.56,0,0,1-7.64.66c-1.75-.74-3.3-2.1-5.19-2.27-3-.26-5.35,2.41-8.25,3A6.19,6.19,0,0,1,97.63,134a6.31,6.31,0,0,1-.27-6.64c1.74-3,3.52-3.69,6.21-4.6a14.16,14.16,0,0,0,7.26-4.94c1.39-1.9,3.17-3.74,5.48-4.12,3-.49,6,1.58,8.91.83,4.53-1.18,5.66-8.2,10.24-9.18,2.69-.58,5.25,1.26,7.35,3.05,1.61,1.38,3.44,3,5.59,3.41,1.53.29,2.95-.54,4.42-.81a10.81,10.81,0,0,1,4.9.14A7.24,7.24,0,0,1,162.74,115.94Z"/><path class="cls-19" d="M101.1,129.53c9.87-3.28,19.76-5,30-6.89,4.9-.92,9.81-1.72,14.72-2.54,4.39-.74,9.19-1.13,13.35-2.75.12,0,.07-.23-.05-.24-5-.48-10.4.64-15.34,1.36S133.91,120,129,121a161.7,161.7,0,0,0-28.4,8C99.77,129.28,100.21,129.82,101.1,129.53Z"/><path class="cls-19" d="M143,127.64c3.05-2.32,6.42-5,8.11-8.58a.78.78,0,0,0-1.38-.71c-2.11,3.3-3.8,6.55-6.88,9.12C142.72,127.56,142.87,127.72,143,127.64Z"/><path class="cls-19" d="M141.07,114.23c1.28.61,3,1.29,4.23,2a24.63,24.63,0,0,0,4.34,2.28c1.09.35,1.68-.73.5-1.46a25.09,25.09,0,0,0-4.49-1.81c-1.45-.54-3.11-.61-4.51-1.23C141,114,140.93,114.17,141.07,114.23Z"/><path class="cls-19" d="M130.18,115.11c1.6.91,3.21,1.79,4.81,2.69s3.07,2.15,4.73,2.9a1,1,0,0,0,1.05-1.69,18.65,18.65,0,0,0-5.33-2.77,22.56,22.56,0,0,0-5.17-1.38A.14.14,0,0,0,130.18,115.11Z"/><path class="cls-19" d="M131,127.25c3.62-1.08,7.81-3.33,9.9-6.58.46-.72-.58-1.57-1.23-1.09a53.58,53.58,0,0,0-4.06,3.79c-1.48,1.33-3.1,2.5-4.69,3.7C130.88,127.13,131,127.28,131,127.25Z"/><path class="cls-19" d="M118.5,132.13c1.64-1.54,3.57-2.73,5.27-4.21s3.76-2.87,4.82-4.8a.6.6,0,0,0-.83-.8c-1.72.85-3,2.59-4.37,4-1.76,1.82-3.22,3.92-5,5.69C118.27,132.06,118.4,132.22,118.5,132.13Z"/><path class="cls-19" d="M118.27,118.15c1.64.68,3,1.79,4.54,2.57a23.18,23.18,0,0,1,3.72,2.2,1,1,0,0,0,1.45-1.34c-.78-1.25-2.31-1.56-3.62-2-2-.65-4.08-.89-6-1.69C118.2,117.85,118.12,118.09,118.27,118.15Z"/><path class="cls-19" d="M108.1,131.91a57.56,57.56,0,0,0,6-3.54,17.28,17.28,0,0,0,4-3.47.5.5,0,0,0-.55-.74c-1,.36-3,2.21-4.5,3.45a65,65,0,0,0-5.07,4.11C107.89,131.81,108,132,108.1,131.91Z"/><path class="cls-19" d="M111.46,120.62c1,.88,1.87,1.83,2.79,2.75a6.26,6.26,0,0,0,2.72,2,.81.81,0,0,0,.83-1.22,6.39,6.39,0,0,0-2.74-2c-1.14-.6-2.28-1.19-3.39-1.85C111.52,120.28,111.31,120.49,111.46,120.62Z"/><path class="cls-20" d="M150.08,106.43a5.65,5.65,0,0,0,3.13,5.66,18.21,18.21,0,0,0,5.88,1.56,13.23,13.23,0,0,1,5.74,1.93c2.44,1.77,3.53,4.18,6.73,4.79a8.44,8.44,0,0,0,7.22-2c1.47-1.38,2.6-3.39,4.56-3.83,3.11-.68,4.91,2.57,7.51,3.52a8.58,8.58,0,0,0,7.63-.78c1.58-1.07,2.85-2.69,4.68-3.21,2.85-.82,5.71,1.35,8.66,1.37a6.21,6.21,0,0,0,5.55-3.58,6.33,6.33,0,0,0-1-6.58c-2.25-2.58-4.64-1.49-7.45-1.87-3.12-.42-5.37-2.92-7.55-5-1.71-1.6-3.8-3.08-6.14-3-3,.07-5.6,2.68-8.6,2.48-4.67-.3-7.08-7-11.76-7.09-2.75-.06-4.92,2.23-6.65,4.39-1.34,1.66-2.83,3.61-4.87,4.4-1.44.56-3,0-4.49,0a10.72,10.72,0,0,0-4.79,1.07A7.21,7.21,0,0,0,150.08,106.43Z"/><path class="cls-17" d="M213.15,108.18c-10.31-1.36-20.33-1.15-30.73-1.12-5,0-10,.15-14.94.27-4.44.1-9.23.62-13.62-.19-.13,0-.11-.21,0-.24,4.82-1.42,10.34-1.33,15.33-1.56s10-.35,14.94-.33a159.85,159.85,0,0,1,29.38,2.51C214.41,107.69,214.08,108.3,213.15,108.18Z"/><path class="cls-17" d="M171.65,114.2c-3.42-1.7-7.23-3.73-9.55-6.89a.78.78,0,0,1,1.22-1c2.69,2.84,4.94,5.72,8.44,7.66A.11.11,0,1,1,171.65,114.2Z"/><path class="cls-17" d="M171.05,100.68c-1.15.83-2,2.16-3.06,3.09a25.4,25.4,0,0,1-3.84,3.06c-1,.55-2.52-.74-1.49-1.68a24.77,24.77,0,0,1,4.07-2.62c1.33-.8,2.94-1.18,4.21-2.06C171.06,100.38,171.17,100.59,171.05,100.68Z"/><path class="cls-17" d="M181.91,99.49c-1.4,1.19-2.82,2.36-4.23,3.54s-2.62,2.7-4.11,3.74a1,1,0,0,1-1.35-1.45,18.88,18.88,0,0,1,4.73-3.73,22.88,22.88,0,0,1,4.83-2.33C181.9,99.22,182,99.41,181.91,99.49Z"/><path class="cls-17" d="M183.31,111.58c-3.76-.38-8.29-1.8-10.94-4.61-.59-.62.27-1.64,1-1.3,1.66.79,3.11,2,4.69,3s3.51,1.88,5.3,2.75C183.45,111.43,183.41,111.59,183.31,111.58Z"/><path class="cls-21" d="M196.53,114c-1.9-1.2-4-2-5.95-3.14s-4.23-2.11-5.62-3.81a.6.6,0,0,1,.66-.94c1.85.51,3.45,2,5,3.07,2.07,1.45,3.89,3.24,6,4.64C196.74,113.9,196.64,114.08,196.53,114Z"/><path class="cls-17" d="M194.18,100.24c-1.49,1-2.59,2.31-4,3.37a22.78,22.78,0,0,0-3.25,2.87,1,1,0,0,1-1.67-1c.53-1.37,2-2,3.19-2.63,1.84-1,3.84-1.64,5.59-2.78C194.19,99.93,194.31,100.15,194.18,100.24Z"/><path class="cls-17" d="M206.71,111.83a56,56,0,0,1-6.5-2.35,17.29,17.29,0,0,1-4.63-2.65A.49.49,0,0,1,196,106c1.08.15,3.33,1.6,5.06,2.54s4.07,1.93,5.74,3.08C206.89,111.7,206.83,111.87,206.71,111.83Z"/><path class="cls-17" d="M201.32,101.38c-.79,1.05-1.5,2.14-2.24,3.23a6.28,6.28,0,0,1-2.29,2.52.8.8,0,0,1-1-1,6.46,6.46,0,0,1,2.33-2.46c1-.81,2-1.6,3-2.46C201.2,101.05,201.44,101.22,201.32,101.38Z"/><path class="cls-20" d="M68.81,114.1c2.09-2.36,2.71-4.93,1.73-7.31a14.44,14.44,0,0,0-3.87-4.72,10.6,10.6,0,0,1-3.45-5c-.73-3.08.23-6.05-2.07-8.39a8.21,8.21,0,0,0-7.79-2c-2.36.57-4.92,2-7,1.31-3.22-1-2.23-5.2-3.74-7.55a7.63,7.63,0,0,0-7.22-3.37c-2.2.19-4.58,1.11-6.57.64-3.1-.74-3.87-4.45-6.42-6.07-2-1.27-5.11-1-7.62.54a9.21,9.21,0,0,0-4.33,7c-.08,3.77,2.85,4,5,5.89,2.37,2.11,2.35,5.81,2.64,9,.22,2.51.88,5.11,2.95,6.32,2.66,1.55,7,.38,9.4,2.21,3.8,2.83.64,10.75,4.61,13.39,2.33,1.56,6,.47,9.2-.72,2.46-.92,5.28-2,7.67-1.72,1.7.23,2.61,1.61,3.92,2.41a10.19,10.19,0,0,0,5,1.55A10.71,10.71,0,0,0,68.81,114.1Z"/><path class="cls-17" d="M15.58,78.13c7.85,6.94,16.7,12.17,25.72,17.79,4.32,2.7,8.74,5.26,13.14,7.84,3.93,2.31,8.48,4.4,11.65,7.58.09.1-.07.27-.2.24-5.28-1.21-10-4.29-14.49-6.78s-8.9-5-13.19-7.78A129.81,129.81,0,0,1,14.74,78.59C14.1,77.93,14.87,77.5,15.58,78.13Z"/><path class="cls-17" d="M56.23,94.7c1.63,3.54,3.34,7.61,2.86,12-.13,1.14-1.8,1.36-1.82.28-.09-4.27.22-8.34-1.29-12.16C55.93,94.69,56.17,94.57,56.23,94.7Z"/><path class="cls-17" d="M46.13,108.41c1.65-.21,3.4-1.07,5.08-1.4a31.54,31.54,0,0,1,5.73-.94c1.3,0,1.59,2.09,0,2.46a29.44,29.44,0,0,1-5.59.39c-1.78.07-3.47-.43-5.26-.24C45.89,108.69,46,108.43,46.13,108.41Z"/><path class="cls-17" d="M35.8,103.69c2.14-.42,4.29-.81,6.44-1.22s4.38-1.24,6.49-1.47c1.32-.14,1.34,1.67,0,2.18a23.86,23.86,0,0,1-7,1.12,24.37,24.37,0,0,1-6-.32C35.59,104,35.64,103.72,35.8,103.69Z"/><path class="cls-17" d="M44.08,91c3,2.41,5.75,6.28,5.85,10.49,0,.94-1.53,1.48-1.89.75a48.57,48.57,0,0,1-1.73-5.48,57,57,0,0,0-2.43-5.6C43.84,91,44,90.9,44.08,91Z"/><path class="cls-21" d="M34.54,81.38c.7,2.22,1.9,4.17,2.69,6.34s2,4.39,1.87,6.82c0,.7-1,1-1.31.57-1.2-1.51-1.44-3.82-1.94-5.76C35.2,86.79,35,84,34.31,81.5,34.27,81.37,34.5,81.25,34.54,81.38Z"/><path class="cls-17" d="M25.76,96.29c2-.15,4-.89,6.11-1.18a31.44,31.44,0,0,0,5.06-1.06c1.3-.41,1.82,1.1.63,1.93-1.55,1.07-3.27.87-4.84.88-2.38,0-4.61-.46-7-.29C25.51,96.59,25.57,96.3,25.76,96.29Z"/><path class="cls-17" d="M24,78a44.73,44.73,0,0,1,3.78,5.86A14.85,14.85,0,0,1,29.73,89c.05.47-.69.88-1,.59-.81-.73-1.62-3.39-2.38-5.26a53,53,0,0,1-2.55-6.17C23.75,78,23.94,77.9,24,78Z"/><path class="cls-17" d="M20.48,91.28c1.5-.61,3-1.31,4.47-2,1.29-.59,2.67-1.36,4-1.25.79.07.78,1.08.09,1.59a8.89,8.89,0,0,1-3.95,1.17c-1.51.26-3,.49-4.52.81C20.33,91.67,20.25,91.37,20.48,91.28Z"/><path class="cls-22" d="M182.2,122.07l-.27,1.15s6.75,3.19,6.4,6C189.63,127.55,189.29,123.89,182.2,122.07Z"/><path class="cls-22" d="M161.92,116.87l-.31,1s-5.56,1-6,3.42C156.94,117.74,157.93,117,161.92,116.87Z"/><path class="cls-22" d="M190.78,115.83s1.72,2.1,1,3.87-4.23,3.51-5.76,3.73l-2.54-1.18s4.57-.57,6.15-2.66A4.59,4.59,0,0,0,190.78,115.83Z"/><path class="cls-22" d="M156.21,108a3.5,3.5,0,0,0-1.91,2.81c-.44,2.28,1.92,5.36,3.6,6.14l2-.68S154.84,112,156.21,108Z"/><path class="cls-22" d="M155,118.9s-3.21,3.86,1.82,7.48,12.33,3.87,15.32,1.75a15.85,15.85,0,0,0,9.39,5.27c3.82.8,10.19-1.47,9-6.18a8.94,8.94,0,0,1-10.17,3.59,11.66,11.66,0,0,1-7-5.9,10.17,10.17,0,0,1-8.1,2.12C160.11,126.37,154.28,124.31,155,118.9Z"/><path class="cls-22" d="M157.37,112.32c0,.12-.36-4.2,6.13-3a12.68,12.68,0,0,1,8.9,5.69,17.45,17.45,0,0,1,10.29-1.61c5.36,1,7.61,3.73,7.61,3.73s-2.21-4.34-8.53-5.68-8.91,1-8.91,1-4.73-4.75-9.23-4.85S156,108.27,157.37,112.32Z"/><path class="cls-23" d="M185.59,122.45s10.58-2.81,3.54-8.29c-6.42-5-15.78-2.85-15.78-2.85-.27-.58-6.34-5.21-13.2-4.59-7.45.69-5.65,5.46-1.51,9.3-7.06,3-4.52,8.3,1.73,10.67,5.26,2,9.49,1.25,12.51-.69,3.68,5.08,9.25,7.7,15.49,4.72C195.22,127.45,185.59,122.45,185.59,122.45ZM181.37,130c-3.87-.12-6.14-4.48-7.47-6.61a16.76,16.76,0,0,1-9.51,2.35c-3.22-.22-7.21-1.94-7.75-4.78s5.28-4.13,5.28-4.13-3.42-3.3-4.13-5.43,1.93-3.29,4.07-3.19c6.11.31,9,3.09,10.58,5.07,2.37-1.35,7.31-1.39,10.64-.82s7.24,4.33,6.15,6.22-7,3.35-7,3.35,6.52,3.28,6.28,5S185.23,130.15,181.37,130Z"/><path class="cls-22" d="M116.27,113l-.27,1.14s6.75,3.19,6.4,6C123.7,118.45,123.36,114.78,116.27,113Z"/><path class="cls-22" d="M96,107.77l-.31,1s-5.56,1-6,3.43C91,108.64,92,107.87,96,107.77Z"/><path class="cls-22" d="M124.85,106.72s1.72,2.1,1,3.88-4.23,3.5-5.76,3.73l-2.54-1.19s4.57-.57,6.15-2.66A4.59,4.59,0,0,0,124.85,106.72Z"/><path class="cls-22" d="M90.28,98.87a3.5,3.5,0,0,0-1.91,2.8c-.44,2.29,1.92,5.36,3.6,6.15,1.77-.6,2-.68,2-.68S88.91,102.86,90.28,98.87Z"/><path class="cls-22" d="M89.08,109.8s-3.21,3.86,1.82,7.47,12.33,3.88,15.32,1.76a15.78,15.78,0,0,0,9.39,5.26c3.83.8,10.19-1.46,9-6.18a9,9,0,0,1-10.17,3.6,11.7,11.7,0,0,1-7-5.91,10.17,10.17,0,0,1-8.1,2.12C94.18,117.27,88.35,115.2,89.08,109.8Z"/><path class="cls-22" d="M91.44,103.21c0,.12-.35-4.19,6.13-3a12.68,12.68,0,0,1,8.9,5.69,17.36,17.36,0,0,1,10.29-1.61c5.36,1,7.61,3.72,7.61,3.72s-2.21-4.33-8.53-5.67-8.91,1-8.91,1-4.73-4.75-9.23-4.84S90.07,99.17,91.44,103.21Z"/><path class="cls-23" d="M119.66,113.34s10.58-2.8,3.54-8.29c-6.42-5-15.78-2.85-15.78-2.85-.27-.57-6.34-5.21-13.2-4.58-7.45.68-5.65,5.46-1.51,9.3-7.06,3-4.52,8.3,1.73,10.66,5.26,2,9.49,1.26,12.51-.68,3.68,5.08,9.25,7.69,15.49,4.71C129.29,118.35,119.66,113.34,119.66,113.34Zm-4.22,7.59c-3.87-.12-6.14-4.48-7.47-6.6a16.74,16.74,0,0,1-9.51,2.35c-3.22-.23-7.21-1.94-7.74-4.78S96,107.77,96,107.77s-3.42-3.31-4.13-5.43,1.93-3.3,4.07-3.19c6.11.3,9,3.08,10.58,5.06,2.37-1.34,7.31-1.39,10.64-.81s7.24,4.32,6.15,6.21-7,3.36-7,3.36,6.52,3.28,6.28,5S119.3,121,115.44,120.93Z"/><path class="cls-24" d="M83.12,117.11l-.27,1.15s6.75,3.19,6.4,6C90.55,122.59,90.21,118.93,83.12,117.11Z"/><path class="cls-24" d="M62.84,111.91l-.31,1s-5.56,1-6,3.42C57.86,112.78,58.85,112,62.84,111.91Z"/><path class="cls-24" d="M91.7,110.87s1.72,2.1,1,3.87-4.23,3.51-5.76,3.74l-2.54-1.19s4.57-.57,6.15-2.66A4.59,4.59,0,0,0,91.7,110.87Z"/><path class="cls-24" d="M57.13,103a3.5,3.5,0,0,0-1.91,2.81c-.44,2.28,1.92,5.36,3.6,6.14l2-.68S55.76,107,57.13,103Z"/><path class="cls-24" d="M55.93,113.94s-3.21,3.86,1.82,7.48,12.33,3.88,15.32,1.75a15.85,15.85,0,0,0,9.39,5.27c3.83.8,10.19-1.47,9-6.18a8.93,8.93,0,0,1-10.17,3.59,11.66,11.66,0,0,1-7-5.9,10.17,10.17,0,0,1-8.1,2.12C61,121.41,55.2,119.35,55.93,113.94Z"/><path class="cls-24" d="M58.29,107.36c0,.12-.35-4.2,6.13-3a12.68,12.68,0,0,1,8.9,5.7,17.41,17.41,0,0,1,10.29-1.62c5.36,1,7.61,3.73,7.61,3.73s-2.21-4.33-8.53-5.68-8.91,1-8.91,1-4.73-4.75-9.23-4.85S56.92,103.32,58.29,107.36Z"/><path class="cls-25" d="M86.51,117.49s10.58-2.81,3.54-8.29c-6.42-5-15.78-2.85-15.78-2.85-.27-.58-6.34-5.21-13.2-4.59-7.45.69-5.65,5.46-1.51,9.3-7.06,3-4.52,8.3,1.73,10.67,5.27,2,9.49,1.25,12.51-.68,3.68,5.07,9.25,7.69,15.49,4.71C96.14,122.49,86.51,117.49,86.51,117.49Zm-4.22,7.59c-3.87-.12-6.14-4.48-7.47-6.61a16.74,16.74,0,0,1-9.51,2.35c-3.22-.22-7.21-1.94-7.74-4.78s5.27-4.13,5.27-4.13-3.42-3.3-4.13-5.43,1.93-3.29,4.07-3.19c6.11.31,9,3.09,10.58,5.07C75.73,107,80.67,107,84,107.54s7.24,4.33,6.15,6.22-7,3.35-7,3.35,6.52,3.28,6.28,5S86.15,125.19,82.29,125.08Z"/><path class="cls-26" d="M242.21,68.4s8.29,19.94-12.93,33.35C210.55,113.59,197,99,197,99l12.85-4.11a51.73,51.73,0,0,0,24.35-16.63Z"/><path class="cls-27" d="M197,99s15,11.94,31.86-.09A31.92,31.92,0,0,0,242.21,68.4l-3.58,2.41-3,2L234,74l-5.77,3.9-.91.62-5.46,3.69-1.34.9-6.62,4.48-2.06,1.39-2.5,1.7-1.91,1.29-3.85,2.6-1.84,1.25-1.49,1Z"/><path class="cls-28" d="M201.73,95.77l1.84-1.25,3.85-2.6,1.91-1.29,2.5-1.7,2.06-1.39,6.62-4.48,1.34-.9,5.46-3.69.91-.62L234,74l1.64-1.1,3-2c.73,5.12,1,17.94-12.2,26.3-11.7,7.4-21.37,3-26.19-.34Z"/><path class="cls-27" d="M201.73,95.77c5.91,3.81,14.31,5.59,22.92-.71a27.25,27.25,0,0,0,8.92-11.5,25.77,25.77,0,0,0,1.81-6.75,22.84,22.84,0,0,0,.25-4L234,74c-.08.84-.15,1.68-.29,2.51a31.59,31.59,0,0,1-1.51,5.88,25.47,25.47,0,0,1-7.63,10.81c-4.11,3.36-8.91,4.89-13.24,4.33a20.81,20.81,0,0,1-7.75-3Z"/><path class="cls-27" d="M207.42,91.92a12.41,12.41,0,0,0,4.75,1.54,14.37,14.37,0,0,0,16.05-15.61l-.91.62c-.42,3.94-1.87,8.37-6,11.18a12.39,12.39,0,0,1-8.68,2.08,10.61,10.61,0,0,1-3.3-1.1Z"/><path class="cls-27" d="M211.83,88.93c2,.76,5.18-.09,7.33-1.88a6.77,6.77,0,0,0,2.69-4.89l-1.34.9a7.51,7.51,0,0,1-2.1,2.91,6.43,6.43,0,0,1-4.52,1.57Z"/><path class="cls-17" d="M65.86,86.1c3.62,3.28,8.73,4.19,13.56,4.73s9.91.93,14,3.5c4.4,2.74,7.39,7.74,12.3,9.35,3.93,1.28,8.23.07,12-1.63s7.37-3.92,11.41-4.78c10.28-2.2,21.31,4.74,31.15,1,3.42-1.29,6.37-3.8,10-4.52,3.4-.69,6.89.33,10.35.62a24.62,24.62,0,0,0,18.54-6.47c3.64-3.4,6.28-8.78,4.34-13.38-2.12-5-8.29-6.55-13.62-7.44l-27-4.52c-7.78-1.3-15.76-2.6-23.49-1-6.88,1.38-13.57,5-20.52,4-8.32-1.16-15.49-8.75-23.78-7.33-8.08,1.39-13.41,11-21.61,11-2.21,0-4.46-.73-6.61-.17-2.95.77-3.89,5.39-4.3,8A10.39,10.39,0,0,0,65.86,86.1Z"/><path class="cls-22" d="M109.37,96.44a19.29,19.29,0,0,1-3,7c-4.77,2.29-15.77,1.29-23.07-.47S65,95.8,63.11,92.66a30.23,30.23,0,0,1,1.64-7.84Z"/><path class="cls-23" d="M89,83.27c6,1.41,22.44,7.23,20.39,13.17-3,8.68-39.36.62-44.07-7.56C61.09,81.56,73.13,79.53,89,83.27Z"/><path class="cls-29" d="M88.69,84.37c5.09,1.2,19.18,6.18,17.43,11.25-2.56,7.42-33.64.53-37.67-6.46C64.86,82.9,75.15,81.17,88.69,84.37Z"/><path class="cls-30" d="M92.59,92.12c1.27-.37,4.51,1.13,3.63,1.77S91.63,92.4,92.59,92.12Z"/><path class="cls-30" d="M89.81,92.66c1.28.32,3.34,3.26,2.26,3.37S88.84,92.41,89.81,92.66Z"/><path class="cls-30" d="M80.6,87.7c-.74-1.1-4.18-2-3.91-1S81.16,88.54,80.6,87.7Z"/><path class="cls-30" d="M83.55,91.39c-1,.11-2.74,2-2,2.22S84.28,91.31,83.55,91.39Z"/><path class="cls-30" d="M86.31,92.3c.82.75,1.21,3.76.37,3.41S85.68,91.73,86.31,92.3Z"/><path class="cls-30" d="M81.48,90.07c-.76.82-3.75,1.15-3.39.3S82.06,89.45,81.48,90.07Z"/><path class="cls-30" d="M91.59,90.39c1.19.57,4.63-.39,3.86-1.16S90.68,90,91.59,90.39Z"/><path class="cls-30" d="M86,87.38c-.68-.7-.84-3.33-.13-3S86.46,87.91,86,87.38Z"/><path class="cls-30" d="M88.65,88.43c1.11-.05,3.3-2.13,2.43-2.4S87.81,88.47,88.65,88.43Z"/><path class="cls-30" d="M83.52,87.07c-.08-1.12-2.19-3.28-2.44-2.39S83.57,87.92,83.52,87.07Z"/><path class="cls-30" d="M85.65,89c1.13.07,4.41,1.06,3.48,1.77s-5.69-.62-5.47-1.29S85.65,89,85.65,89Z"/><path class="cls-22" d="M232.66,70a23.62,23.62,0,0,1,1.88,9.17c-3.18,5.67-14.88,12.45-23.42,15.85s-23.28,5.72-27.39,3.94a37,37,0,0,1-3.8-9Z"/><path class="cls-23" d="M203.1,71.29c6.93-2.81,27.48-8.65,29.56-1.26,3,10.8-39,28.48-49.36,23.62C174,89.31,184.64,78.76,203.1,71.29Z"/><path class="cls-29" d="M203.57,72.59c5.92-2.4,23.49-7.39,25.26-1.08,2.6,9.24-33.29,24.34-42.18,20.19C178.7,88,187.79,79,203.57,72.59Z"/><path class="cls-30" d="M212.86,77.58c1-1.26,5.29-2.06,4.86-.8S212.09,78.54,212.86,77.58Z"/><path class="cls-30" d="M210.45,80.09c1.51-.58,5.61.9,4.61,1.77S209.31,80.53,210.45,80.09Z"/><path class="cls-30" d="M197.79,81.64c-1.5-.57-5.6.92-4.6,1.79S198.94,82.08,197.79,81.64Z"/><path class="cls-30" d="M203.31,83.25c-.89.78-1.32,4-.42,3.62S204,82.65,203.31,83.25Z"/><path class="cls-30" d="M206.7,82.21c1.34.16,3.83,2.9,2.74,3.15S205.67,82.09,206.7,82.21Z"/><path class="cls-30" d="M200.32,83.4c-.19,1.35-3,3.8-3.18,2.69S200.46,82.37,200.32,83.4Z"/><path class="cls-30" d="M210.66,76.56c1.58-.27,4.36-3.67,3.05-3.9S209.45,76.78,210.66,76.56Z"/><path class="cls-30" d="M202.92,77.54c-1.16-.22-3.16-2.74-2.2-2.89S203.8,77.71,202.92,77.54Z"/><path class="cls-30" d="M206.35,76.68c1.08-.83,1.83-4.47.76-4.12S205.53,77.32,206.35,76.68Z"/><path class="cls-30" d="M200.27,79c-.85-1.06-4.47-1.74-4.1-.67S200.92,79.76,200.27,79Z"/><path class="cls-30" d="M203.74,79.36c1.17-.73,5.14-2.07,4.7-.7s-6.12,3.41-6.37,2.58S203.74,79.36,203.74,79.36Z"/><path class="cls-31" d="M162.61,96.07c1.43,1.54,8,2.17,10.12,1.63a1.72,1.72,0,0,0,.37-.14c2.27-1.07,7-6.61,7-9.1s-2.49-8.67-4.31-9c-2.57-.49-7.44-.32-8.77.34l-.38.22c-2,1.2-8.1,5.83-8.51,6.85S161.18,94.53,162.61,96.07Z"/><path class="cls-32" d="M162.61,96.07c1.43,1.54,8,2.17,10.12,1.63a1.72,1.72,0,0,0,.37-.14c-1.14-1.89-2.61-4-4.4-7.06A15.45,15.45,0,0,1,166.61,80c-2,1.2-8.1,5.83-8.51,6.85S161.18,94.53,162.61,96.07Z"/><path class="cls-33" d="M158.1,86.85c1.28,1.82,7.51,3.19,10.68,1.16,2.07-1.32,8.77-7.69,7-8.57-2.57-.49-7.44-.32-8.77.34S158.54,85.75,158.1,86.85Z"/><path class="cls-26" d="M76,101.79S58.86,121.31,33.31,105C10.76,90.65,19.47,68.14,19.47,68.14l11.14,12a62.21,62.21,0,0,0,30.65,18Z"/><path class="cls-27" d="M19.47,68.14s-5,22.73,16.74,34.92A37.7,37.7,0,0,0,76,101.79l-4.47-2.66-3.76-2.24-2-1.22-7.23-4.3-1.14-.68-6.83-4.06-1.67-1L40.59,80.7,38,79.17l-3.14-1.86-2.39-1.42L27.68,73l-2.31-1.37-1.86-1.11Z"/><path class="cls-28" d="M25.37,71.65,27.68,73l4.81,2.87,2.39,1.42L38,79.17l2.57,1.53,8.29,4.93,1.67,1,6.83,4.06,1.14.68,7.23,4.3,2,1.22,3.76,2.24c-5.14,3.47-18.8,10.48-34.73.33-14.08-9-14.42-21.87-13.31-28.92Z"/><path class="cls-27" d="M25.37,71.65c-1,8.49,1.45,18.63,12.74,24.8a32.48,32.48,0,0,0,17.06,3.78,30.73,30.73,0,0,0,8.22-1.54,27.64,27.64,0,0,0,4.4-1.8l-2-1.22c-1,.35-1.9.71-2.86,1a36.9,36.9,0,0,1-7.13,1.41,30,30,0,0,1-15.64-2.73c-5.76-2.75-9.92-7.22-11.58-12.26-1.18-3.57-1-6.8-.86-10.06Z"/><path class="cls-27" d="M32.49,75.89a15.45,15.45,0,0,0,.83,6,18,18,0,0,0,7,9,16.62,16.62,0,0,0,18.21.51l-1.14-.68C52.92,92.3,47.38,93,42.2,90a15.17,15.17,0,0,1-6.78-8.44,13.15,13.15,0,0,1-.54-4.2Z"/><path class="cls-27" d="M38,79.17c.24,2.63,2.8,5.63,5.86,7.06a8,8,0,0,0,6.67.4l-1.67-1a8.81,8.81,0,0,1-4.23-.79,7.88,7.88,0,0,1-4.06-4.14Z"/><path class="cls-22" d="M139.57,87.41,140,88.8s9.2-1.1,10.65,2.08C151,88.28,148.22,84.64,139.57,87.41Z"/><path class="cls-22" d="M114.8,95.33l.35,1.31s-5.2,4.73-4.08,7.56C110.11,99.54,110.66,98.08,114.8,95.33Z"/><path class="cls-22" d="M144.57,75.15s3.17,1.08,3.61,3.4-2.19,6.5-3.66,7.75l-3.44.42s4.44-3.62,4.76-6.87S144.57,75.15,144.57,75.15Z"/><path class="cls-22" d="M103,89.72s-1.21,1.51-.19,4.22,5.5,4.38,7.78,4.1L112.31,96S104.15,94.83,103,89.72Z"/><path class="cls-22" d="M108.83,102s-.88,6.19,6.77,6.68,15.53-4.06,17.3-8.27a19.58,19.58,0,0,0,13.33-.66c4.55-1.68,9.79-8.28,5.52-12.5-.26,3.52-2,8.79-8.39,10.52a14.37,14.37,0,0,1-11.2-1.61s-1.23,4.83-7.17,7.59S111.57,108.22,108.83,102Z"/><path class="cls-22" d="M107.05,93.53c.12.1-3.1-4.19,4.49-7.25s13.08.12,13.08.12,3.49-6,9.81-8.5,10.45-1.1,10.45-1.1-5.15-3.11-12.68-.35-8.78,6.89-8.78,6.89-8.08-1.88-12.88,1S103,90.17,107.05,93.53Z"/><path class="cls-23" d="M143.39,85.56s9.34-10-1.65-11.08c-10-1-18.49,7.42-18.49,7.42-.66-.43-10.07-1.31-16.9,3.89-7.42,5.65-2.42,9.5,4.44,10.81-5.47,7.88.62,11.75,8.75,10.11,6.85-1.38,10.82-4.95,12.76-9,7.17,2.93,14.75,2,19.39-5.26C156.8,84.48,143.39,85.56,143.39,85.56Zm.47,10.8c-4.15,2.43-9.38-.67-12.16-2a21.07,21.07,0,0,1-8.51,8.77c-3.54,1.89-8.87,2.72-11.27.07s2.88-7.84,2.88-7.84-5.75-1.22-7.88-3-.1-4.75,2.22-6c6.65-3.72,11.45-2.67,14.46-1.65,1.62-3,6.81-6.3,10.69-7.9s10.44-.22,10.52,2.49-5.24,8.19-5.24,8.19,9-.85,9.84,1.07S148,93.92,143.86,96.36Z"/><path class="cls-22" d="M64.23,88.8a13.72,13.72,0,0,1,.63,5.44c-2.14,3.14-9.31,6.49-14.46,8s-13.87,2.13-16.17.88a22,22,0,0,1-1.76-5.45Z"/><path class="cls-23" d="M46.93,88c4.18-1.27,16.46-3.62,17.3.8,1.22,6.46-24.16,14.59-30,11.21C29.05,97,35.79,91.4,46.93,88Z"/><path class="cls-29" d="M47.14,88.78c3.58-1.09,14.07-3.09,14.78.69C63,95,41.27,101.93,36.3,99.05,31.86,96.47,37.62,91.69,47.14,88.78Z"/><path class="cls-30" d="M52.3,92.18c.65-.69,3.19-.93,2.88-.22S51.8,92.7,52.3,92.18Z"/><path class="cls-30" d="M50.77,93.51c.91-.26,3.23.82,2.59,1.28S50.08,93.71,50.77,93.51Z"/><path class="cls-30" d="M43.31,93.76c-.85-.41-3.31.25-2.77.81S44,94.08,43.31,93.76Z"/><path class="cls-30" d="M46.44,95c-.55.41-1,2.25-.42,2.08S46.87,94.67,46.44,95Z"/><path class="cls-30" d="M48.47,94.56c.78.16,2.09,1.88,1.44,2S47.88,94.43,48.47,94.56Z"/><path class="cls-30" d="M44.69,94.92c-.18.78-1.91,2.06-2,1.4S44.83,94.32,44.69,94.92Z"/><path class="cls-30" d="M51.07,91.47c.94-.08,2.73-1.91,2-2.12S50.36,91.53,51.07,91.47Z"/><path class="cls-30" d="M46.51,91.64c-.67-.19-1.7-1.76-1.14-1.8S47,91.78,46.51,91.64Z"/><path class="cls-30" d="M48.55,91.31c.67-.43,1.29-2.51.66-2.36S48,91.64,48.55,91.31Z"/><path class="cls-30" d="M44.89,92.32c-.44-.66-2.51-1.24-2.35-.6S45.23,92.83,44.89,92.32Z"/><path class="cls-30" d="M46.89,92.74c.73-.37,3.1-.94,2.78-.16s-3.74,1.67-3.84,1.17S46.89,92.74,46.89,92.74Z"/><path class="cls-31" d="M32.91,86.71c-.47,1.55-4.79,4.24-6.39,4.57a1.42,1.42,0,0,1-.31,0c-1.91,0-7-2.14-7.81-3.86s-1.21-6.79-.08-7.65c1.6-1.21,5-2.75,6.13-2.75h.33c1.75.16,7.51,1.24,8.13,1.8S33.38,85.17,32.91,86.71Z"/><path class="cls-32" d="M32.91,86.71c-.47,1.55-4.79,4.24-6.39,4.57a1.42,1.42,0,0,1-.31,0c.15-1.68.46-3.61.66-6.34a11.74,11.74,0,0,0-2.09-7.91c1.75.16,7.51,1.24,8.13,1.8S33.38,85.17,32.91,86.71Z"/><path class="cls-33" d="M32.91,78.86c-.27,1.68-4.08,4.74-6.93,4.44-1.86-.21-8.59-2.29-7.66-3.5,1.6-1.21,5-2.75,6.13-2.75S32.24,78.26,32.91,78.86Z"/><path class="cls-18" d="M107.35,57.08a7.42,7.42,0,0,1-2.66,8c-2.07,1.68-4.67,2.54-7.18,3.44s-5.06,2-6.9,3.9c-2.72,2.87-3.53,6.24-7.51,7.81a11,11,0,0,1-9.75-.75c-2.23-1.41-4.16-3.72-6.79-3.79-4.16-.12-5.69,4.5-8.8,6.37a11.22,11.22,0,0,1-10,.87c-2.29-1-4.32-2.75-6.8-3-3.85-.34-7,3.16-10.8,3.9a8.09,8.09,0,0,1-8-3.23A8.28,8.28,0,0,1,21.81,72c2.27-3.88,4.6-4.83,8.13-6a18.55,18.55,0,0,0,9.49-6.47c1.82-2.48,4.15-4.89,7.17-5.39,3.89-.64,7.85,2.07,11.66,1.08,5.93-1.55,7.41-10.73,13.4-12,3.52-.76,6.88,1.65,9.62,4,2.11,1.8,4.5,3.94,7.32,4.46,2,.37,3.86-.72,5.78-1.07a14.06,14.06,0,0,1,6.42.19A9.44,9.44,0,0,1,107.35,57.08Z"/><path class="cls-19" d="M26.7,74.86c12.92-4.29,25.86-6.48,39.23-9,6.41-1.22,12.84-2.26,19.26-3.33,5.75-1,12-1.48,17.47-3.6.16-.06.09-.3-.06-.31C96.07,58,89,59.44,82.52,60.38s-12.88,2-19.28,3.26A210,210,0,0,0,26.07,74.09C25,74.54,25.53,75.24,26.7,74.86Z"/><path class="cls-19" d="M81.5,72.38c4-3,8.4-6.57,10.62-11.22a1,1,0,0,0-1.81-.93c-2.77,4.32-5,8.57-9,11.93C81.16,72.28,81.35,72.49,81.5,72.38Z"/><path class="cls-19" d="M79,54.85c1.68.78,3.91,1.68,5.54,2.6a32.13,32.13,0,0,0,5.68,3c1.43.46,2.2-1,.65-1.91A32.19,32.19,0,0,0,85,56.16c-1.9-.7-4.07-.79-5.9-1.61C78.91,54.47,78.82,54.76,79,54.85Z"/><path class="cls-19" d="M64.76,56C66.84,57.18,69,58.33,71,59.51s4,2.82,6.19,3.79a1.32,1.32,0,0,0,1.38-2.2c-1.89-1.66-4.66-2.7-7-3.63a29.56,29.56,0,0,0-6.77-1.8A.17.17,0,0,0,64.76,56Z"/><path class="cls-19" d="M65.88,71.88c4.73-1.41,10.21-4.36,13-8.62.61-.94-.76-2-1.6-1.43-1.94,1.43-3.52,3.35-5.32,5s-4.06,3.27-6.14,4.84A.14.14,0,0,0,65.88,71.88Z"/><path class="cls-19" d="M49.47,78.26c2.15-2,4.67-3.57,6.89-5.5s4.93-3.76,6.31-6.28a.79.79,0,0,0-1.08-1c-2.26,1.11-4,3.38-5.72,5.18-2.31,2.38-4.21,5.13-6.58,7.44C49.17,78.17,49.34,78.38,49.47,78.26Z"/><path class="cls-19" d="M49.16,60c2.15.89,3.88,2.34,6,3.36A30.13,30.13,0,0,1,60,66.21a1.31,1.31,0,0,0,1.89-1.75c-1-1.64-3-2-4.74-2.6-2.6-.84-5.33-1.16-7.86-2.2C49.07,59.58,49,59.89,49.16,60Z"/><path class="cls-19" d="M35.86,78a73.48,73.48,0,0,0,7.78-4.63A22.49,22.49,0,0,0,49,68.8a.65.65,0,0,0-.73-1c-1.35.46-3.88,2.88-5.88,4.51a84.27,84.27,0,0,0-6.64,5.38C35.59,77.84,35.71,78.05,35.86,78Z"/><path class="cls-19" d="M40.26,63.2c1.26,1.16,2.45,2.39,3.65,3.6,1.05,1,2.08,2.33,3.56,2.68a1.06,1.06,0,0,0,1.09-1.59c-.74-1.28-2.33-1.92-3.59-2.6-1.49-.79-3-1.55-4.43-2.42C40.34,62.75,40.07,63,40.26,63.2Z"/><path class="cls-22" d="M73.66,59.37a18,18,0,0,1,.83,7.12C71.69,70.61,62.31,75,55.57,77s-18.15,2.78-21.16,1.14A28.36,28.36,0,0,1,32.11,71Z"/><path class="cls-23" d="M51,58.33c5.47-1.67,21.54-4.73,22.63,1,1.6,8.45-31.61,19.09-39.22,14.68C27.63,70.1,36.45,62.78,51,58.33Z"/><path class="cls-29" d="M51.3,59.35c4.68-1.42,18.41-4,19.35.9,1.37,7.22-27,16.31-33.53,12.54C31.3,69.42,38.84,63.16,51.3,59.35Z"/><path class="cls-30" d="M58.06,63.79c.85-.89,4.17-1.21,3.76-.28S57.41,64.48,58.06,63.79Z"/><path class="cls-30" d="M56.06,65.54c1.18-.34,4.21,1.07,3.39,1.67S55.15,65.8,56.06,65.54Z"/><path class="cls-30" d="M46.29,65.87c-1.11-.54-4.34.32-3.63,1S47.14,66.28,46.29,65.87Z"/><path class="cls-30" d="M50.39,67.47c-.72.54-1.27,3-.56,2.73S51,67.06,50.39,67.47Z"/><path class="cls-30" d="M53.05,66.91c1,.21,2.73,2.47,1.88,2.58S52.27,66.74,53.05,66.91Z"/><path class="cls-30" d="M48.1,67.38c-.23,1-2.51,2.7-2.6,1.84S48.28,66.6,48.1,67.38Z"/><path class="cls-30" d="M56.45,62.87C57.67,62.76,60,60.36,59,60.1S55.51,63,56.45,62.87Z"/><path class="cls-30" d="M50.47,63.09c-.86-.25-2.22-2.31-1.48-2.36S51.14,63.27,50.47,63.09Z"/><path class="cls-30" d="M53.15,62.66c.88-.56,1.69-3.28.86-3.09S52.49,63.09,53.15,62.66Z"/><path class="cls-30" d="M48.36,64c-.58-.87-3.29-1.62-3.08-.79S48.8,64.65,48.36,64Z"/><path class="cls-30" d="M51,64.53c.94-.48,4.06-1.23,3.63-.21s-4.89,2.18-5,1.53S51,64.53,51,64.53Z"/><path class="cls-18" d="M159.05,55.26a6.65,6.65,0,0,0,1.89,7.34,21.64,21.64,0,0,0,6.19,3.52A15.39,15.39,0,0,1,173,70c2.25,2.73,2.77,5.78,6.22,7.42a9.79,9.79,0,0,0,8.73-.06c2.08-1.12,3.94-3.06,6.29-3,3.71.15,4.79,4.36,7.46,6.22A10,10,0,0,0,210.59,82c2.1-.72,4-2.18,6.24-2.23,3.45-.06,6,3.25,9.39,4.15a7.21,7.21,0,0,0,7.32-2.39,7.39,7.39,0,0,0,.85-7.73c-1.79-3.59-4.81-3.07-7.88-4.34-3.4-1.41-5.21-4.91-7.07-7.86C218,59.3,216,57,213.38,56.38c-3.43-.81-7.12,1.36-10.46.24-5.19-1.75-5.95-10-11.21-11.54-3.09-.89-6.23,1.05-8.82,3-2,1.48-4.25,3.24-6.79,3.53-1.8.2-3.4-.88-5.09-1.31a12.48,12.48,0,0,0-5.73-.23A8.44,8.44,0,0,0,159.05,55.26Z"/><path class="cls-19" d="M229.86,76.1c-11.26-4.62-22.66-7.38-34.42-10.46-5.64-1.48-11.3-2.81-17-4.16-5.05-1.21-10.62-2.06-15.35-4.28-.14-.07-.06-.28.08-.28,5.86-.16,12.08,1.59,17.79,2.83s11.36,2.57,17,4.09a187.3,187.3,0,0,1,32.48,11.62C231.43,75.92,230.87,76.52,229.86,76.1Z"/><path class="cls-19" d="M181.17,70.5c-3.37-3-7.09-6.38-8.78-10.66a.91.91,0,0,1,1.67-.71c2.2,4,3.9,7.94,7.29,11.19C181.47,70.43,181.29,70.61,181.17,70.5Z"/><path class="cls-19" d="M184.46,55c-1.54.6-3.59,1.25-5.09,2a29.09,29.09,0,0,1-5.25,2.31c-1.3.32-1.9-1-.46-1.74A29.35,29.35,0,0,1,179,55.82c1.74-.5,3.68-.45,5.36-1.06C184.56,54.7,184.63,55,184.46,55Z"/><path class="cls-19" d="M197.08,56.93c-1.93.93-3.88,1.83-5.81,2.75s-3.76,2.26-5.75,3a1.18,1.18,0,0,1-1.09-2.06c1.78-1.36,4.31-2.11,6.43-2.8A26.23,26.23,0,0,1,197,56.64.16.16,0,0,1,197.08,56.93Z"/><path class="cls-19" d="M195.12,71c-4.13-1.55-8.84-4.52-11-8.48-.48-.88.8-1.78,1.52-1.17a64.45,64.45,0,0,1,4.43,4.75c1.62,1.68,3.42,3.17,5.18,4.69C195.32,70.89,195.23,71.06,195.12,71Z"/><path class="cls-19" d="M209.35,77.72c-1.79-1.92-3.94-3.47-5.8-5.33s-4.16-3.65-5.24-6a.7.7,0,0,1,1-.87c1.94,1.13,3.33,3.26,4.78,5,1.92,2.26,3.45,4.83,5.42,7C209.63,77.66,209.46,77.83,209.35,77.72Z"/><path class="cls-19" d="M210.74,61.45c-2,.65-3.6,1.84-5.5,2.62a27.64,27.64,0,0,0-4.52,2.26,1.17,1.17,0,0,1-1.58-1.67c1-1.4,2.82-1.64,4.38-2,2.38-.59,4.82-.7,7.14-1.47C210.85,61.1,210.92,61.39,210.74,61.45Z"/><path class="cls-19" d="M221.5,78.31a64.57,64.57,0,0,1-6.65-4.61,20.33,20.33,0,0,1-4.46-4.37c-.29-.44.25-1,.71-.82,1.17.5,3.29,2.81,5,4.39s4,3.39,5.59,5.2C221.75,78.21,221.63,78.39,221.5,78.31Z"/><path class="cls-19" d="M218.48,64.88c-1.2.94-2.33,2-3.48,3-1,.87-2,2-3.33,2.16a.94.94,0,0,1-.87-1.48c.74-1.09,2.19-1.57,3.36-2.09,1.37-.62,2.75-1.21,4.09-1.89C218.44,64.47,218.66,64.73,218.48,64.88Z"/><path class="cls-20" d="M79.68,57.07a7.41,7.41,0,0,0,4.1,7.41c2.35,1.26,5.06,1.61,7.69,2s5.34,1,7.5,2.53c3.21,2.31,4.62,5.47,8.82,6.26a11,11,0,0,0,9.44-2.57c1.93-1.8,3.41-4.44,6-5,4.06-.89,6.41,3.36,9.82,4.61a11.24,11.24,0,0,0,10-1c2.07-1.39,3.74-3.52,6.13-4.2,3.72-1.07,7.46,1.77,11.33,1.79a8.1,8.1,0,0,0,7.26-4.68,8.26,8.26,0,0,0-1.26-8.61c-2.94-3.38-6.07-2-9.75-2.45-4.07-.55-7-3.82-9.87-6.48-2.24-2.1-5-4-8-4-3.93.1-7.32,3.51-11.25,3.25-6.11-.4-9.27-9.14-15.39-9.28-3.59-.08-6.44,2.92-8.71,5.74-1.74,2.17-3.69,4.72-6.36,5.77-1.89.73-3.93,0-5.88,0A14.15,14.15,0,0,0,85,49.63,9.47,9.47,0,0,0,79.68,57.07Z"/><path class="cls-17" d="M162.2,59.36c-13.48-1.78-26.6-1.51-40.21-1.47-6.51,0-13,.2-19.54.35-5.81.14-12.08.81-17.82-.24-.17,0-.15-.28,0-.32,6.3-1.85,13.53-1.74,20.06-2s13-.46,19.54-.43a209.08,209.08,0,0,1,38.45,3.28C163.86,58.71,163.42,59.52,162.2,59.36Z"/><path class="cls-17" d="M107.91,67.24c-4.48-2.23-9.47-4.88-12.51-9A1,1,0,0,1,97,57c3.51,3.72,6.46,7.48,11,10C108.22,67.08,108.07,67.32,107.91,67.24Z"/><path class="cls-17" d="M107.12,49.54c-1.5,1.09-2.58,2.83-4,4a32,32,0,0,1-5,4c-1.33.72-3.29-1-2-2.2A32.52,32.52,0,0,1,101.47,52c1.73-1.05,3.85-1.55,5.5-2.69C107.14,49.15,107.28,49.42,107.12,49.54Z"/><path class="cls-17" d="M121.33,48c-1.83,1.55-3.69,3.08-5.53,4.63s-3.43,3.53-5.38,4.9a1.32,1.32,0,0,1-1.76-1.91c1.55-2,4.07-3.53,6.18-4.88a29,29,0,0,1,6.32-3C121.32,47.63,121.46,47.87,121.33,48Z"/><path class="cls-17" d="M123.16,63.8c-4.91-.49-10.84-2.36-14.32-6-.77-.82.37-2.16,1.31-1.71A71.9,71.9,0,0,1,116.29,60c2.23,1.35,4.6,2.45,6.94,3.6A.14.14,0,0,1,123.16,63.8Z"/><path class="cls-21" d="M140.46,67c-2.48-1.57-5.25-2.62-7.79-4.1s-5.53-2.77-7.35-5a.78.78,0,0,1,.86-1.23c2.42.67,4.52,2.58,6.57,4,2.71,1.89,5.1,4.24,7.85,6.07C140.74,66.84,140.61,67.07,140.46,67Z"/><path class="cls-17" d="M137.38,49c-1.95,1.27-3.38,3-5.22,4.42a30.27,30.27,0,0,0-4.25,3.74,1.31,1.31,0,0,1-2.19-1.36c.7-1.8,2.6-2.58,4.18-3.44,2.41-1.32,5-2.15,7.32-3.65C137.4,48.55,137.56,48.85,137.38,49Z"/><path class="cls-17" d="M153.78,64.14a73,73,0,0,1-8.5-3.08,23,23,0,0,1-6.06-3.46.66.66,0,0,1,.54-1.09c1.41.2,4.35,2.1,6.62,3.33s5.32,2.52,7.51,4C154,64,153.94,64.19,153.78,64.14Z"/><path class="cls-17" d="M146.73,50.46c-1,1.37-2,2.8-2.93,4.22-.83,1.23-1.61,2.68-3,3.3a1,1,0,0,1-1.36-1.35c.49-1.4,1.93-2.33,3.05-3.23,1.31-1.06,2.64-2.09,3.9-3.21C146.57,50,146.88,50.25,146.73,50.46Z"/><path class="cls-31" d="M151.16,61.91c-.12,1.78,3.29,6.27,4.81,7.25a1.39,1.39,0,0,0,.3.16c2,.8,8.07.57,9.58-.88s3.89-6.53,3.06-7.86c-1.18-1.89-4.08-4.83-5.25-5.28a3.38,3.38,0,0,0-.35-.12c-1.85-.53-8.23-1.71-9.08-1.38S151.28,60.13,151.16,61.91Z"/><path class="cls-32" d="M151.16,61.91c-.12,1.78,3.29,6.27,4.81,7.25a1.39,1.39,0,0,0,.3.16c.51-1.8.94-3.92,1.8-6.81a13,13,0,0,1,5.24-7.33c-1.85-.53-8.23-1.71-9.08-1.38S151.28,60.13,151.16,61.91Z"/><path class="cls-33" d="M154.23,53.8c-.38,1.84,2.35,6.52,5.41,7.34,2,.53,9.76,1.06,9.27-.56-1.18-1.89-4.08-4.83-5.25-5.28S155.15,53.44,154.23,53.8Z"/><path class="cls-24" d="M69.89,75.38v1.46S79,78.62,79.41,82.1C80.48,79.71,79,75.4,69.89,75.38Z"/><path class="cls-24" d="M43.9,75.32l0,1.35s-6.39,2.91-6.18,6C38.17,77.88,39.13,76.66,43.9,75.32Z"/><path class="cls-24" d="M78.35,65.24s2.7,2,2.41,4.35-4,5.51-5.82,6.25l-3.41-.65s5.33-2.09,6.61-5.08S78.35,65.24,78.35,65.24Z"/><path class="cls-24" d="M34.36,66.34s-1.61,1.08-1.46,4,3.92,5.87,6.18,6.3c2-1.26,2.26-1.44,2.26-1.44S33.91,71.56,34.36,66.34Z"/><path class="cls-24" d="M36.19,79.87s-2.71,5.63,4.44,8.44,16,.91,19-2.56a19.59,19.59,0,0,0,12.89,3.47c4.85-.2,11.83-4.88,9-10.21-1.31,3.27-4.59,7.74-11.16,7.44a14.46,14.46,0,0,1-10.19-5s-2.62,4.22-9.11,5S36.93,86.6,36.19,79.87Z"/><path class="cls-24" d="M37.06,71.22c.09.13-1.69-5,6.47-5.53S56,69.83,56,69.83s5.15-4.68,11.91-5.09S78.15,66.9,78.15,66.9s-4-4.54-12-4.22-10.44,3.86-10.44,3.86-7.13-4.27-12.57-3S34.2,66.77,37.06,71.22Z"/><path class="cls-25" d="M74.08,74.8S86,68.19,75.86,63.73C66.62,59.68,56,65.12,56,65.12c-.49-.61-9.19-4.34-17.27-1.49-8.76,3.1-5.16,8.3,1,11.66-7.59,5.83-3,11.38,5.28,12.32,6.94.79,11.81-1.39,14.87-4.65,5.95,5,13.44,6.44,20.06,1C87.18,77.88,74.08,74.8,74.08,74.8ZM71.27,85.22c-4.68,1-8.73-3.52-11-5.67a20.88,20.88,0,0,1-10.75,5.74c-3.94.71-9.27-.13-10.76-3.39s5.11-6.58,5.11-6.58S38.79,72.38,37.3,70s1.34-4.56,3.94-5.09c7.46-1.5,11.72,1,14.27,2.87,2.45-2.34,8.39-3.91,12.57-4.23s10,3,9.26,5.6-7.45,6.19-7.45,6.19,8.84,2,9,4S76,84.18,71.27,85.22Z"/><path class="cls-22" d="M131.89,59.92l-.36,1.5s8.83,4.17,8.38,7.84C141.61,67.09,141.16,62.29,131.89,59.92Z"/><path class="cls-22" d="M105.34,53.12l-.4,1.36S97.67,55.8,97.11,59C98.83,54.25,100.13,53.25,105.34,53.12Z"/><path class="cls-22" d="M143.12,51.75s2.24,2.74,1.36,5.07-5.54,4.59-7.55,4.88l-3.31-1.55s6-.75,8-3.48S143.12,51.75,143.12,51.75Z"/><path class="cls-22" d="M97.87,41.47s-1.91.68-2.49,3.67,2.5,7,4.7,8l2.68-.89S96.08,46.69,97.87,41.47Z"/><path class="cls-22" d="M96.31,55.77s-4.21,5,2.38,9.78,16.13,5.08,20,2.3A20.73,20.73,0,0,0,131,74.74c5,1.05,13.33-1.92,11.83-8.09-2.17,3-6.67,6.72-13.31,4.71a15.33,15.33,0,0,1-9.14-7.73s-3.76,3.63-10.59,2.77S95.35,62.84,96.31,55.77Z"/><path class="cls-22" d="M99.4,47.16c0,.16-.47-5.5,8-4s11.64,7.45,11.64,7.45,6.45-3.45,13.46-2.11,10,4.88,10,4.88-2.9-5.67-11.17-7.43-11.65,1.25-11.65,1.25-6.2-6.22-12.08-6.34S97.6,41.86,99.4,47.16Z"/><path class="cls-23" d="M136.32,60.41s13.85-3.67,4.63-10.85c-8.4-6.54-20.64-3.73-20.64-3.73-.36-.75-8.3-6.82-17.28-6-9.75.89-7.39,7.14-2,12.16-9.23,4-5.91,10.86,2.27,14,6.89,2.61,12.41,1.64,16.37-.9,4.82,6.65,12.11,10.07,20.27,6.17C148.92,67,136.32,60.41,136.32,60.41Zm-5.52,9.93c-5.06-.15-8-5.86-9.77-8.64a22,22,0,0,1-12.46,3.07c-4.2-.29-9.43-2.53-10.13-6.25s6.9-5.4,6.9-5.4-4.47-4.33-5.4-7.11,2.53-4.31,5.32-4.17c8,.4,11.73,4,13.86,6.63,3.1-1.77,9.56-1.82,13.92-1.08s9.47,5.67,8,8.14-9.19,4.39-9.19,4.39,8.53,4.29,8.22,6.48S135.85,70.49,130.8,70.34Z"/><path class="cls-31" d="M84.41,66.17c1.43,1.54,8,2.17,10.12,1.63a3.06,3.06,0,0,0,.38-.14c2.27-1.07,7-6.61,7-9.1,0-2.64-2.48-8.68-4.3-9-2.57-.49-7.45-.32-8.77.34a3.48,3.48,0,0,0-.38.22c-2,1.2-8.11,5.83-8.51,6.85S83,64.62,84.41,66.17Z"/><path class="cls-32" d="M84.41,66.17c1.43,1.54,8,2.17,10.12,1.63a3.06,3.06,0,0,0,.38-.14c-1.15-1.9-2.61-4-4.41-7.07A15.35,15.35,0,0,1,88.42,50.1c-2,1.2-8.11,5.83-8.51,6.85S83,64.62,84.41,66.17Z"/><path class="cls-33" d="M79.91,57c1.27,1.81,7.5,3.18,10.67,1.16,2.07-1.32,8.78-7.7,7-8.57-2.57-.49-7.45-.32-8.77.34S80.34,55.85,79.91,57Z"/><path class="cls-22" d="M118.85,68.73a19.31,19.31,0,0,0,.71,7.63c3.84,3.66,14.61,6.13,22.1,6.72S161.24,81.9,164,79.51a30.34,30.34,0,0,0,.83-8Z"/><path class="cls-23" d="M142.27,62.54c-6.09-.51-23.55-.09-23.42,6.19.2,9.19,37.26,12.83,44.24,6.5C169.33,69.58,158.49,63.91,142.27,62.54Z"/><path class="cls-29" d="M142.21,63.67c-5.2-.43-20.13-.08-20,5.29.17,7.85,31.85,11,37.81,5.56C165.34,69.69,156.08,64.84,142.21,63.67Z"/><path class="cls-30" d="M136.14,69.83c-1.09-.74-4.64-.33-4,.56S137,70.4,136.14,69.83Z"/><path class="cls-30" d="M138.61,71.21c-1.31-.09-4.17,2.07-3.17,2.51S139.62,71.28,138.61,71.21Z"/><path class="cls-30" d="M148.89,69.36c1-.82,4.6-.65,4,.28S148.1,70,148.89,69.36Z"/><path class="cls-30" d="M145,72c.88.4,2,2.79,1.19,2.73S144.29,71.64,145,72Z"/><path class="cls-30" d="M142.06,72c-1,.45-2.31,3.2-1.39,3.13S142.83,71.61,142.06,72Z"/><path class="cls-30" d="M147.33,71.34c.47,1,3.22,2.26,3.13,1.34S147,70.57,147.33,71.34Z"/><path class="cls-30" d="M137.61,68.5c-1.3.17-4.28-1.81-3.31-2.31S138.61,68.38,137.61,68.5Z"/><path class="cls-30" d="M143.9,67.39c.86-.46,1.82-2.91,1-2.8S143.25,67.73,143.9,67.39Z"/><path class="cls-30" d="M141,67.55c-1-.39-2.49-3-1.57-3S141.8,67.85,141,67.55Z"/><path class="cls-30" d="M146.31,67.85c.41-1,3.08-2.44,3.05-1.52S146,68.64,146.31,67.85Z"/><path class="cls-30" d="M143.7,69c-1.1-.29-4.52-.37-3.85.6s5.6,1.18,5.59.47S143.7,69,143.7,69Z"/><path class="cls-24" d="M199.88,77.34l-.36,1.49s8.83,4.18,8.38,7.84C209.6,84.51,209.15,79.71,199.88,77.34Z"/><path class="cls-24" d="M173.34,70.53l-.41,1.37s-7.27,1.32-7.83,4.48C166.82,71.67,168.12,70.67,173.34,70.53Z"/><path class="cls-24" d="M211.11,69.17s2.24,2.74,1.36,5.06-5.54,4.59-7.55,4.89l-3.31-1.55s6-.75,8-3.49S211.11,69.17,211.11,69.17Z"/><path class="cls-24" d="M165.86,58.88s-1.91.69-2.49,3.68,2.5,7,4.7,8l2.68-.89S164.07,64.1,165.86,58.88Z"/><path class="cls-24" d="M164.3,73.19s-4.21,5,2.38,9.78,16.13,5.07,20,2.29A20.68,20.68,0,0,0,199,92.15c5,1,13.33-1.91,11.83-8.08-2.17,3-6.67,6.72-13.3,4.7a15.33,15.33,0,0,1-9.15-7.72s-3.76,3.63-10.59,2.77S163.34,80.26,164.3,73.19Z"/><path class="cls-24" d="M167.39,64.57c.05.16-.47-5.49,8-4s11.64,7.45,11.64,7.45,6.45-3.45,13.46-2.11,10,4.87,10,4.87-2.9-5.67-11.17-7.42-11.65,1.24-11.65,1.24-6.2-6.21-12.08-6.33S165.59,59.28,167.39,64.57Z"/><path class="cls-25" d="M204.31,77.83s13.85-3.67,4.63-10.85c-8.4-6.54-20.64-3.73-20.64-3.73-.35-.75-8.3-6.82-17.28-6-9.75.89-7.39,7.14-2,12.17-9.23,4-5.91,10.86,2.27,14,6.89,2.61,12.41,1.65,16.38-.89,4.81,6.65,12.1,10.07,20.26,6.17C216.91,84.38,204.31,77.83,204.31,77.83Zm-5.52,9.93c-5.06-.16-8-5.87-9.77-8.65a21.91,21.91,0,0,1-12.46,3.08c-4.2-.29-9.43-2.54-10.13-6.25s6.91-5.41,6.91-5.41-4.48-4.32-5.41-7.1,2.53-4.32,5.32-4.18c8,.4,11.73,4,13.86,6.63,3.1-1.76,9.56-1.82,13.92-1.07s9.47,5.66,8,8.13-9.19,4.4-9.19,4.4,8.53,4.29,8.22,6.47S203.84,87.9,198.79,87.76Z"/><path class="cls-22" d="M242.43,70.93A19,19,0,0,1,237.86,77c-5.17,1.09-15.62-2.51-22.3-6s-16.05-11.37-17.18-14.88A30.51,30.51,0,0,1,201.82,49Z"/><path class="cls-23" d="M225.72,53.25c5.45,2.79,20.1,12.4,16.71,17.68-4.94,7.71-38.38-8.82-41-17.9C199,44.91,211.2,45.82,225.72,53.25Z"/><path class="cls-29" d="M225.18,54.25c4.66,2.38,17.18,10.59,14.29,15.1-4.23,6.6-32.81-7.53-35.07-15.29C202.37,47.12,212.77,47.9,225.18,54.25Z"/><path class="cls-30" d="M227.15,62.71c1.31-.06,4.11,2.17,3.11,2.59S226.14,62.75,227.15,62.71Z"/><path class="cls-30" d="M224.32,62.57c1.17.62,2.48,4,1.4,3.81S223.43,62.1,224.32,62.57Z"/><path class="cls-30" d="M216.54,55.55c-.46-1.25-3.58-3-3.57-1.9S216.89,56.5,216.54,55.55Z"/><path class="cls-30" d="M218.54,59.84c-1-.13-3.14,1.32-2.43,1.69S219.27,59.93,218.54,59.84Z"/><path class="cls-30" d="M221,61.38c.63.92.3,3.94-.44,3.4S220.52,60.68,221,61.38Z"/><path class="cls-30" d="M216.83,58.06c-.93.62-3.91.22-3.36-.52S217.54,57.6,216.83,58.06Z"/><path class="cls-30" d="M226.58,60.79c1,.84,4.59.73,4-.2S225.8,60.16,226.58,60.79Z"/><path class="cls-30" d="M221.81,56.51c-.49-.83,0-3.43.58-2.92S222.18,57.15,221.81,56.51Z"/><path class="cls-30" d="M224.19,58.18c1.08.22,3.7-1.28,2.92-1.75S223.36,58,224.19,58.18Z"/><path class="cls-30" d="M219.52,55.63c.19-1.1-1.35-3.71-1.8-2.9S219.37,56.48,219.52,55.63Z"/><path class="cls-30" d="M221.14,58c1.08.34,4,2.08,3,2.55s-5.38-2-5-2.56S221.14,58,221.14,58Z"/><path class="cls-26" d="M56.39,74s12.16,20.17,37.5,9.83C116.26,74.65,112.1,53.2,112.1,53.2L100.28,62A56.15,56.15,0,0,1,70.12,73.11Z"/><path class="cls-27" d="M112.1,53.2s.84,21-20.47,28.36A34.17,34.17,0,0,1,56.39,74l4.41-1.64,3.7-1.38,2-.75,7.12-2.65,1.12-.42,6.72-2.51L83.13,64l8.17-3L93.83,60l3.09-1.15L99.27,58,104,56.21l2.28-.84,1.83-.69Z"/><path class="cls-28" d="M106.29,55.37l-2.28.84L99.27,58l-2.35.88L93.83,60,91.3,61l-8.17,3-1.65.61-6.72,2.51-1.12.42-7.12,2.65-2,.75-3.7,1.38c4,3.93,15.06,12.39,30.85,6,14-5.7,16.33-17.13,16.47-23.58Z"/><path class="cls-27" d="M106.29,55.37c-.45,7.72-4.27,16.35-15.3,20A29.44,29.44,0,0,1,75.2,76a27.91,27.91,0,0,1-7.07-2.71,25.65,25.65,0,0,1-3.63-2.32l2-.75c.79.46,1.57.94,2.38,1.35A33.75,33.75,0,0,0,75,73.94a27.11,27.11,0,0,0,14.35.11c5.58-1.51,10-4.81,12.27-9A23.07,23.07,0,0,0,104,56.21Z"/><path class="cls-27" d="M99.27,58a13.92,13.92,0,0,1-1.69,5.23A16.28,16.28,0,0,1,89.93,70a15,15,0,0,1-16.29-2.5l1.12-.42c3.71,2.15,8.52,3.7,13.63,1.81a13.63,13.63,0,0,0,7.38-6.41,12,12,0,0,0,1.15-3.65Z"/><path class="cls-27" d="M93.83,60c-.64,2.29-3.39,4.55-6.34,5.33a7.23,7.23,0,0,1-6-.74L83.13,64A8,8,0,0,0,87,64a7.07,7.07,0,0,0,4.28-3Z"/><path class="cls-34" d="M174.31,197.13c-4.73,5.27-21.32,9.55-39.75,10l-1.24,0a113.55,113.55,0,0,1-18.46-1.24c-10.42-1.57-18.83-3.28-23.3-6.37A13.93,13.93,0,0,1,90,198.29C85.37,194,91.16,187.07,94.84,187l74.27-1c2.26,0,5.28,2.42,6.3,5.39A5.53,5.53,0,0,1,174.31,197.13Z"/><path class="cls-3" d="M245.16,84.33c.09-.72-11.93,35.65-105.11,38.5C26,126.31,16.75,86.77,16.85,87.48c-.06,1.84-.09,3.69-.07,5.55,0,1.46.08,2.92.16,4.38.17,3.26.5,6.49,1,9.67A105.06,105.06,0,0,0,25.22,133a1.08,1.08,0,0,0,.08.19A105.05,105.05,0,0,0,30.12,143a110,110,0,0,0,18.22,24.14c.83.83,1.67,1.65,2.52,2.45q1.88,1.76,3.82,3.44l.12.09q2.54,2.19,5.2,4.21a115.53,115.53,0,0,0,15.35,9.85q3,1.58,6,3c.9.42,1.81.82,2.73,1.22q3.6,1.55,7.32,2.87A116.82,116.82,0,0,0,104,197.9a118.71,118.71,0,0,0,24.11,3c.73,0,1.47,0,2.21,0h1l1.09,0,1.27,0,1,0h.05c.75,0,1.48-.05,2.22-.09a117.92,117.92,0,0,0,35.86-7.42q4.11-1.53,8.06-3.38c26.17-12.16,46.75-33.6,57.14-59.78A105,105,0,0,0,244.64,104c.38-3.2.62-6.45.7-9.73,0-1.44.06-2.9,0-4.35C245.36,88,245.28,86.17,245.16,84.33Z"/><path class="cls-35" d="M244.39,104.42c-3.94,7.34-14.4,15.2-29.24,21.65s-32.51,11.06-51.7,13.64a267.07,267.07,0,0,1-31.69,2.3c-31.1.43-60.86-4.41-83.78-13.63-15.32-6.16-26.12-13.92-30.07-21.3a105.22,105.22,0,0,0,7.39,26.08,102,102,0,0,0,9.81,5.27c2.41,1.15,4.94,2.25,7.59,3.32q3.12,1.26,6.39,2.41c23.61,8.33,52.72,12.65,82.87,12.24,8.81-.12,17.53-.65,26-1.56,23.27-2.47,45-7.8,62.79-15.55a117.63,117.63,0,0,0,16.91-8.91l.25-.15A105,105,0,0,0,244.63,104,5.06,5.06,0,0,1,244.39,104.42Z"/><path class="cls-35" d="M235.4,136.17c-.27.3-.55.6-.84.89a48.18,48.18,0,0,1-9.1,7.09l-.11.06-.37.23-1.7,1-.89.49c-.46.26-.93.51-1.42.77s-.79.41-1.21.62l0,0-.59.29-.61.31c-1,.51-2.14,1-3.26,1.51l-1,.43-.22.1c-.35.16-.71.31-1.08.46l-.59.24-.05,0-.65.27-.17.07-.64.25h-.39l-.21.23-.47.18-.5.19-.53.2h-.11l-.24.13-.57.21-1.05.38-.1,0-1.09.38-1.25.42-.09,0-.53.18-.58.19-.63.21-.09,0-1.27.41-.47.15-3.53,1-.74.21-1.46.4-.32.08,0,0-1.09.29-.22.06c-1.47.38-3,.75-4.42,1.09l-2.14.5c-1.32.29-2.66.58-4.08.87l-1.59.32c-2.66.52-5.39,1-8.13,1.45l-.93.15c-1.84.29-3.53.53-5.16.76l-1.71.22-3.64.44-.29,0h0l-1.79.2-4.45.44a1.55,1.55,0,0,0-.31,0h-.42l-.17,0h-.28l-1.34.11-.55.05h-.12l-.27,0h-.29l-.14,0h-.24l-.45,0H150l-.54,0h-.08c-1.89.14-3.83.26-5.74.36l-.57,0-.46,0h0l-.62,0c-1.12.06-2.26.09-3.39.13l-.4,0-1,0h-.5q-.47,0-.93,0h-.08l-.62,0h-1.47l-.89,0h-.35l-2.7,0h-1.5c-1.35,0-2.6,0-3.8,0-3.58-.05-7.18-.16-10.69-.33h-.06c-7.17-.36-14.24-1-21-1.86h-.15c-2.2-.29-4.21-.57-6.16-.88-5.78-.9-11.39-2-16.67-3.28-1.34-.32-2.56-.63-3.74-.94l-.38-.11-1-.25-1.38-.39-.07,0-.09,0-.14,0-.48-.13,0,0-1-.28-.07,0a117.05,117.05,0,0,1-17.77-6.76l-.4-.2c-2-1-3.95-2.06-5.76-3.16a50.36,50.36,0,0,1-6.56-4.76c-.76-.67-1.47-1.35-2.12-2l-.12-.13-.27-.29,0,0-.71-.81c-.11-.11-.2-.23-.3-.35.9,1.87,1.85,3.7,2.86,5.51.57,1,1.16,2,1.76,3.05,1.2.88,2.49,1.74,3.85,2.58,1.89,1.16,3.92,2.27,6,3.29l.43.22a119.78,119.78,0,0,0,18.25,6.95h.07l1,.29,0,0,.55.15.28.08,1.38.39,1,.25.44.12c1.19.32,2.43.63,3.79,1,5.36,1.3,11.06,2.42,16.92,3.33,2,.31,4,.6,6.23.89h.15c6.86.89,14,1.52,21.31,1.88h.06c3.55.17,7.16.28,10.75.33l3.82,0h1.58l2.7,0h.36l.91,0h1.47l.62,0h0c.34,0,.67,0,1,0h.43c.34,0,.68,0,1,0h.41l3.41-.13.68,0,.5,0,.52,0c2-.1,3.93-.22,5.83-.36h.08l.57-.05.32,0,.48,0,.31,0h.25l.18,0h.07l.19,0,.64,0,1.36-.12h.37l.24,0h0l.27,0h.21c1.52-.14,3-.3,4.53-.46l2-.22h.32l.07,0q1.69-.19,3.39-.42l1.72-.23c1.67-.22,3.38-.47,5.22-.76l.58-.09h0l.38-.07c2.76-.43,5.52-.93,8.22-1.46l1.61-.33c1.44-.29,2.8-.58,4.14-.88l2.17-.5c1.49-.35,3-.73,4.49-1.12l.22-.06c.38-.09.76-.19,1.13-.3l.37-.1,1.49-.41L198,159c1.19-.33,2.4-.7,3.61-1.07l.48-.15,1.26-.4.13,0,.62-.21.6-.19.56-.19.08,0c.43-.14.86-.28,1.26-.43l1.13-.39.1,0,1.08-.39.55-.2.12,0,.81-.3.47-.18.13,0,.41-.16.45,0,.22-.24c.2-.08.4-.15.59-.24l.16-.06.71-.29.63-.26,1.09-.46.21-.09,0,0,1-.44c1.15-.52,2.29-1,3.36-1.56l.63-.32.62-.3,0,0,1.27-.66c.5-.26,1-.53,1.46-.79l.93-.52c.59-.33,1.19-.68,1.76-1l.42-.26.09-.06c1.49-.91,2.88-1.85,4.17-2.8l0,0q2.24-3.87,4.14-7.93Z"/><path class="cls-36" d="M84.05,191.35a118.23,118.23,0,0,0,48.56,9.6c48.32-.67,89.25-29.95,105.45-70.76a104.72,104.72,0,0,0,6.68-26.3q.58-4.8.72-9.7c0-1.45,0-2.92,0-4.38,0-1.86-.1-3.71-.22-5.55a20.84,20.84,0,0,1-4.73,10.51,34.76,34.76,0,0,1-3.44,3.73c-12.46,11.75-38,21.15-69.78,25.52-2.24,12.54-7.72,34.51-20.12,48.76C134.25,187.67,112.22,193.06,84.05,191.35Z"/></g></g></svg>