<svg id="Layer_1" data-name="Layer 1" xmlns="http://www.w3.org/2000/svg" viewBox="0 0 160 42"><defs><style>.cls-1,.cls-2,.cls-3,.cls-4,.cls-5,.cls-6,.cls-7{fill-rule:evenodd;}.cls-1{opacity:0.3;}.cls-2,.cls-9{fill:#ffec7b;}.cls-10,.cls-3{fill:#c9080d;}.cls-4{fill:#d6d987;}.cls-5{fill:#603319;}.cls-6{fill:#fff;opacity:0.5;}.cls-7{fill:#b5070b;}.cls-8{fill:#ffe54d;}.cls-11{fill:#b50224;}</style></defs><path class="cls-1" d="M118.81,17.51c-1.87-3-9.38-1.76-17.76,2.59a3.44,3.44,0,0,0-.32-2.59c-1.86-3-9.37-1.76-17.75,2.59a3.44,3.44,0,0,0-.32-2.59c-1.87-3-9.38-1.76-17.76,2.59a3.39,3.39,0,0,0-.31-2.59c-1.87-3-9.38-1.76-17.76,2.59a3.44,3.44,0,0,0-.32-2.59c-2.17-3.48-12-1.24-21.94,5S8.33,36.59,10.51,40.07c1.87,3,9.38,1.75,17.76-2.6a3.43,3.43,0,0,0,.31,2.6c1.87,3,9.38,1.75,17.76-2.6a3.47,3.47,0,0,0,.31,2.6c1.87,3,9.38,1.75,17.76-2.6a3.47,3.47,0,0,0,.32,2.6c1.87,3,9.38,1.75,17.76-2.6a3.43,3.43,0,0,0,.31,2.6c2.18,3.47,12,1.24,21.94-5S121,21,118.81,17.51Z"/><path class="cls-2" d="M7.17,10.76a5,5,0,0,1,2.62-2c2-.76,15.5-4.83,20.12-7.61,0,0,3.2-.37,4.5.25s5.27,2.06,6.67,4.09,2.75,3.68,2.39,8.36-3.53,12.46-9.66,16.46-14.39,6.13-22.59.47S3,15.44,7.17,10.76Z"/><path class="cls-3" d="M8,9.75s.22-.05.18.06c-1.42,4.12-4.44,8.7-1.61,14,3.65,6.85,10,9.46,16.58,9.7s18.09-5.81,20-19.17a11.29,11.29,0,0,0-1.61-8c-2.23-3.15-6.07-4.26-8.93-4.57-2.21-.24-2.62-.63-2.71-.67A20.59,20.59,0,0,1,33.68.3C35.39.23,39.57,2.63,42,6.15c4.29,6.35.17,14.53-.66,16S37,29.77,30.38,32.78,17.5,36.94,7.84,32,.68,19.68,1.56,17.76,3.65,12,8,9.75Z"/><path class="cls-4" d="M22.55,4.36c-.73.27-1.65.68-2.05.79s-3.85,1.3-3.89,1.34l2.58,3A9.88,9.88,0,0,0,21,11.37c1,.74,3.58.06,4.3-.27a4.38,4.38,0,0,0,1.84-2.42c.05-.1,1.14-2.41,1.18-2.51.44-.82-.09-1.35-.42-1.75a6.34,6.34,0,0,0-1.6-1c-.49-.28-1-.08-1.68.15Z"/><path class="cls-5" d="M19.27,6.19s4-2.31,5,.08S20.51,9.31,19.27,6.19Z"/><path class="cls-6" d="M19.27,6.19s4-2.3,5,.08a1.23,1.23,0,0,1,.13.57c0,.16-.86-.81-1.9-1S21.28,5.7,19.27,6.19Z"/><path class="cls-2" d="M25.24,10.76a5.08,5.08,0,0,1,2.62-2C29.81,8,43.37,3.91,48,1.13c0,0,3.19-.37,4.5.25s5.26,2.06,6.66,4.09,2.76,3.68,2.39,8.36S58,26.29,51.88,30.29s-14.38,6.13-22.59.47S21.09,15.44,25.24,10.76Z"/><path class="cls-3" d="M26.06,9.75s.23-.05.19.06c-1.42,4.12-4.44,8.7-1.61,14,3.64,6.85,10,9.46,16.57,9.7s18.1-5.81,20-19.17a11.29,11.29,0,0,0-1.61-8C57.4,3.22,53.55,2.11,50.69,1.8c-2.2-.24-2.62-.63-2.7-.67A20.24,20.24,0,0,1,51.75.3C53.47.23,57.65,2.63,60,6.15c4.29,6.35.17,14.53-.66,16s-4.31,7.58-10.9,10.59S35.58,36.94,25.92,32s-7.17-12.32-6.29-14.24S21.72,12,26.06,9.75Z"/><path class="cls-4" d="M40.63,4.36c-.74.27-1.65.68-2.06.79s-3.85,1.3-3.89,1.34l2.58,3a10.52,10.52,0,0,0,1.85,1.88c1,.74,3.58.06,4.3-.27a4.38,4.38,0,0,0,1.84-2.42c0-.1,1.14-2.41,1.18-2.51.45-.82-.08-1.35-.42-1.75a6.34,6.34,0,0,0-1.6-1c-.49-.28-1-.08-1.68.15Z"/><path class="cls-5" d="M37.34,6.19s4-2.31,5,.08S38.59,9.31,37.34,6.19Z"/><path class="cls-6" d="M37.34,6.19s4-2.3,5,.08a1.23,1.23,0,0,1,.13.57c0,.16-.86-.81-1.89-1S39.35,5.7,37.34,6.19Z"/><path class="cls-2" d="M43.31,10.76a5.08,5.08,0,0,1,2.63-2C47.88,8,61.44,3.91,66.06,1.13c0,0,3.19-.37,4.5.25s5.26,2.06,6.67,4.09S80,9.15,79.62,13.83,76.08,26.29,70,30.29s-14.39,6.13-22.6.47S39.16,15.44,43.31,10.76Z"/><path class="cls-3" d="M44.14,9.75s.22-.05.18.06c-1.42,4.12-4.44,8.7-1.61,14,3.64,6.85,9.95,9.46,16.57,9.7s18.1-5.81,20-19.17a11.29,11.29,0,0,0-1.61-8c-2.22-3.15-6.07-4.26-8.93-4.57-2.2-.24-2.62-.63-2.7-.67A20.19,20.19,0,0,1,69.83.3c1.71-.07,5.89,2.33,8.27,5.85,4.28,6.35.17,14.53-.67,16s-4.31,7.58-10.9,10.59S53.65,36.94,44,32,36.82,19.68,37.7,17.76,39.8,12,44.14,9.75Z"/><path class="cls-4" d="M58.7,4.36c-.74.27-1.65.68-2.05.79s-3.85,1.3-3.9,1.34c1,1.17,1.92,2.23,2.59,3a9.88,9.88,0,0,0,1.85,1.88c1,.74,3.57.06,4.29-.27,1.11-.51,1.43-1.62,1.85-2.42.05-.1,1.14-2.41,1.17-2.51.45-.82-.08-1.35-.42-1.75a6.26,6.26,0,0,0-1.59-1c-.5-.28-1-.08-1.69.15Z"/><path class="cls-5" d="M55.41,6.19s4-2.31,5,.08S56.66,9.31,55.41,6.19Z"/><path class="cls-6" d="M55.41,6.19s4-2.3,5,.08a1.23,1.23,0,0,1,.13.57c0,.16-.86-.81-1.89-1S57.43,5.7,55.41,6.19Z"/><path class="cls-2" d="M61.39,10.76a5,5,0,0,1,2.62-2C66,8,79.51,3.91,84.13,1.13c0,0,3.2-.37,4.5.25S93.9,3.44,95.3,5.47s2.75,3.68,2.39,8.36S94.16,26.29,88,30.29s-14.39,6.13-22.59.47S57.23,15.44,61.39,10.76Z"/><path class="cls-3" d="M62.21,9.75s.22-.05.18.06c-1.42,4.12-4.44,8.7-1.61,14,3.65,6.85,10,9.46,16.58,9.7s18.09-5.81,20-19.17a11.35,11.35,0,0,0-1.61-8C93.54,3.22,89.7,2.11,86.83,1.8c-2.2-.24-2.61-.63-2.7-.67A20.59,20.59,0,0,1,87.9.3c1.71-.07,5.89,2.33,8.27,5.85,4.28,6.35.17,14.53-.66,16S91.2,29.77,84.6,32.78,71.72,36.94,62.06,32,54.9,19.68,55.78,17.76,57.87,12,62.21,9.75Z"/><path class="cls-4" d="M76.77,4.36c-.73.27-1.65.68-2,.79s-3.85,1.3-3.89,1.34l2.58,3a9.88,9.88,0,0,0,1.85,1.88c1,.74,3.58.06,4.29-.27A4.35,4.35,0,0,0,81.4,8.68c0-.1,1.14-2.41,1.18-2.51.44-.82-.09-1.35-.43-1.75a6.08,6.08,0,0,0-1.59-1c-.49-.28-1-.08-1.68.15Z"/><path class="cls-5" d="M73.49,6.19s4-2.31,5,.08S74.73,9.31,73.49,6.19Z"/><path class="cls-6" d="M73.49,6.19s4-2.3,5,.08a1.23,1.23,0,0,1,.13.57c0,.16-.87-.81-1.9-1S75.5,5.7,73.49,6.19Z"/><path class="cls-2" d="M79.46,10.76a5.08,5.08,0,0,1,2.62-2C84,8,97.59,3.91,102.21,1.13c0,0,3.19-.37,4.5.25s5.26,2.06,6.66,4.09,2.76,3.68,2.39,8.36-3.53,12.46-9.66,16.46-14.38,6.13-22.59.47S75.31,15.44,79.46,10.76Z"/><path class="cls-3" d="M80.28,9.75s.22-.05.19.06c-1.43,4.12-4.44,8.7-1.61,14,3.64,6.85,10,9.46,16.57,9.7s18.1-5.81,20-19.17a11.29,11.29,0,0,0-1.61-8c-2.22-3.15-6.07-4.26-8.93-4.57-2.2-.24-2.62-.63-2.7-.67A20.24,20.24,0,0,1,106,.3c1.72-.07,5.9,2.33,8.27,5.85,4.29,6.35.17,14.53-.66,16s-4.31,7.58-10.91,10.59S89.8,36.94,80.14,32,73,19.68,73.85,17.76,75.94,12,80.28,9.75Z"/><path class="cls-4" d="M94.85,4.36c-.74.27-1.65.68-2.06.79s-3.85,1.3-3.89,1.34l2.58,3a10.52,10.52,0,0,0,1.85,1.88c1,.74,3.58.06,4.3-.27a4.38,4.38,0,0,0,1.84-2.42c0-.1,1.14-2.41,1.18-2.51.45-.82-.08-1.35-.42-1.75a6.34,6.34,0,0,0-1.6-1c-.49-.28-1-.08-1.68.15Z"/><path class="cls-5" d="M91.56,6.19s4-2.31,5,.08S92.81,9.31,91.56,6.19Z"/><path class="cls-6" d="M91.56,6.19s4-2.3,5,.08a1.23,1.23,0,0,1,.13.57c0,.16-.86-.81-1.9-1S93.57,5.7,91.56,6.19Z"/><path class="cls-7" d="M4.81,12.35a1.18,1.18,0,0,0,.48,1.26,1.48,1.48,0,0,0,1.54-.41c.19-.36.62-1.53.8-1.95s.65-1.4.51-1.49S6.17,10.9,6,11C5.57,11.39,5,11.79,4.81,12.35Z"/><polygon class="cls-8" points="133.65 6.78 134.52 5.08 127.54 4.74 122.54 5.7 129.93 7.22 133.65 6.78"/><polygon class="cls-9" points="134.52 5.08 134.91 11.25 131.76 15.31 127.74 11.35 130.7 6.64 134.52 5.08"/><path class="cls-10" d="M131.23,6.45c.34,2.53.35,8.85.53,8.86l-8.39-.67s-.81-8.82-.83-8.94C122.55,5.8,130.8,6.27,131.23,6.45Z"/><path class="cls-11" d="M127.62,14.28a4.71,4.71,0,0,1,1.15-.68c.46-.74-.86-1-1-.76a3.41,3.41,0,0,0,.66-1.51l-3.06.29a.74.74,0,0,1-.21,0c-.31-.08-.28-.57,0-.78s.58-.28.83-.48a.55.55,0,0,0,.17-.64c-.86-.19-2.54-.25-2.7-1.32s.69-1.87-.83-2.63c0,.75.64,8.86.81,8.88l3.92.31C126.84,15,127.16,14.62,127.62,14.28Z"/><polygon class="cls-8" points="139.77 2.81 138.12 2.28 138.83 8.56 140.4 12.88 140.7 6.07 139.77 2.81"/><polygon class="cls-9" points="138.12 2.28 143.57 1.04 147.66 3.26 144.69 7.42 140.07 5.46 138.12 2.28"/><path class="cls-10" d="M139.82,5c2.21-.67,7.85-1.6,7.84-1.76l.6,7.59-7.86,2C140.5,12.86,139.72,5.43,139.82,5Z"/><path class="cls-11" d="M147.09,7.43a1.4,1.4,0,0,0-1.6,1c-.14.36-.45,1.37-1,1.39-.38,0-.54-.52-.68-.78a1.87,1.87,0,0,0-.8-1c-.83-.36-1.65.44-1.92,1.16-.33.9.53,3-.7,3.34a1.11,1.11,0,0,1,0,.26l7.86-2s-.13-1.74-.28-3.55A2.31,2.31,0,0,1,147.09,7.43Z"/><path class="cls-10" d="M124.73,22.34l-1-1.88L127.62,18s6,2.5,8.1,7c.29.61.57,1.23.86,1.85a5.57,5.57,0,0,1,.47,1.23.28.28,0,0,1,0,.09.39.39,0,0,1-.08.1c-1.17,1.08-2.48,2-3.74,3Z"/><path class="cls-11" d="M135.72,25c-2.09-4.51-8.1-7-8.1-7l-1.69,1.05c1.51.47,3.24.37,4.62,1.18a1.4,1.4,0,0,1,.8,1.17c0,.53-.56.94-.85,1.39,1,.15,1.72.31,2.06,1.38a4.67,4.67,0,0,1,.05,1.71c0,.34-.07.84.19,1.11s.79.14,1.15.21A2.91,2.91,0,0,1,136,29.14s.4-.31.43-.34c.28-.21.61-.49.58-.88a2.32,2.32,0,0,0-.32-.8C136.37,26.42,136,25.72,135.72,25Z"/><path class="cls-9" d="M123.68,20.46V29.4l9.56,1.88S129,22.46,123.68,20.46Z"/><polygon class="cls-9" points="148.46 22.92 147.92 13.54 152.63 12.84 156.55 16.91 153.15 23.2 148.46 22.92"/><path class="cls-10" d="M152.86,23.18c-.18-2.53-.09-10.32-.23-10.34l6.44.75s.32,8.81.32,8.93C159.39,22.41,153.19,23.36,152.86,23.18Z"/><polygon class="cls-9" points="151.26 36.48 141.89 36.66 141.28 30.74 145.43 25.73 151.62 30.53 151.26 36.48"/><path class="cls-10" d="M151.62,30.53c-2.53.17-10.32.07-10.34.21l1.85-5.65,7.2-.46C150.32,25.14,151.8,30.21,151.62,30.53Z"/></svg>