<svg id="Layer_1" data-name="Layer 1" xmlns="http://www.w3.org/2000/svg" viewBox="0 0 160 45"><defs><style>.cls-1,.cls-11{opacity:0.3;}.cls-2{fill:#ffb51c;}.cls-3{fill:#ffa418;}.cls-4{fill:#ffb747;}.cls-5{fill:#ffe706;}.cls-6{fill:#fffddd;}.cls-7{fill:#f7df00;}.cls-8{fill:#ffde05;}.cls-9{fill:#fff778;}.cls-10{fill:#fcd200;}.cls-12{fill:#fff212;}.cls-13{fill:#fff98f;}.cls-14{fill:#f5bc00;}.cls-15{fill:#fed30d;}.cls-16{fill:#f9c900;}.cls-17{fill:#ffe436;}</style></defs><path class="cls-1" d="M110.69,23.64c-1.12-3.84-11-4.47-23.73-1.94-3.54-2-11.89-2-22,0-4.56-2.6-17.06-1.85-31,2.2C17.27,28.76,4.83,36.51,6.2,41.22c1.11,3.83,11.05,4.46,23.72,1.94,3.55,2,11.9,2,22,0,4.55,2.59,17,1.84,31-2.21C99.62,36.09,112.06,28.34,110.69,23.64Z"/><path class="cls-2" d="M0,18.1C13.29,15.49,47.69,6.62,71.91.33c1.46.73,3.9,1.58,5.84,2.31,2.68,5.72-7.58,23.8-29.2,29C31.76,35.62,6.33,34.77,0,18.1Z"/><path class="cls-3" d="M77.75,2.64c-2-.89-3.59-1.54-5.84-2.31L69.68.91A68.91,68.91,0,0,1,66,8.9a41.57,41.57,0,0,1-3.57,5.61,34.66,34.66,0,0,1-4.3,4.6,50.2,50.2,0,0,1-10.53,7A52.38,52.38,0,0,1,34,30.89a47.72,47.72,0,0,1-7.23.87,33.44,33.44,0,0,1-7.28-.39A30.39,30.39,0,0,1,6.53,25.58a27.86,27.86,0,0,1-4.77-4.69C1.32,20.34.88,19.8.47,19.23c7,15.58,28.75,17.89,48.38,12.86C70.38,26.58,81.14,10,77.75,2.64Z"/><path class="cls-4" d="M69.86,4.76C71.7,4.37,73.54,4,75.35,3.5a20.3,20.3,0,0,0,2.42-.83l0,0c-2-.89-3.59-1.54-5.84-2.31L69.68.91c-.55,1.42-1.14,2.81-1.78,4.18C68.56,5,69.22,4.9,69.86,4.76Z"/><path class="cls-5" d="M5.41,21.06C9.28,19.82,70.14,5.22,77.14,2.89A59.94,59.94,0,0,1,71.49.44C46.88,6.46,12.61,15.09,0,18.1,0,18.17,3.47,20.08,5.41,21.06Z"/><path class="cls-6" d="M72.2,1.56C73,1.91,75.6,3,76,3.29c.61-.17.78-.28,1.14-.4A59.94,59.94,0,0,1,71.49.44l-1,.25C71,1,71.61,1.28,72.2,1.56Z"/><path class="cls-5" d="M66.11,1.76c-19,4.67-42,10.44-56.6,14a20.34,20.34,0,0,0,2.66,2.75l.65.6c14-3.51,43.53-10.72,57.37-14.35A13,13,0,0,0,66.11,1.76Z"/><path class="cls-7" d="M57.54,3.87c-13.23,3.27-27.43,6.82-38.95,9.67a17.46,17.46,0,0,0,2.75,2.89l.55.44c12-3,27.56-6.94,39.35-9.92A25.59,25.59,0,0,0,57.54,3.87Z"/><path class="cls-6" d="M1.32,17.78,0,18.1c0,.07,3.47,2,5.41,3,.3-.1.45,0,1.38-.24C6,20.21,2.07,18.38,1.32,17.78Z"/><path class="cls-8" d="M5.11,20.9c13.26-3.17,47-11.93,72-18,2.43,5-7.55,22.87-29.21,27.86C31.59,34.52,13.38,33.19,5.11,20.9Z"/><path class="cls-9" d="M77.15,2.89,76,3.16c.77,5.25-4.19,11.29-6.28,13.4A47.1,47.1,0,0,1,53.6,27.43a56,56,0,0,1-24.44,3.79c-8-.63-17.34-3.51-22.86-10.61l-1.19.29c8.27,12.29,26.48,13.62,42.83,9.85C69.6,25.76,79.58,7.88,77.15,2.89Z"/><path class="cls-8" d="M18,22.78A32,32,0,0,0,28.53,25a56.33,56.33,0,0,0,12.57-.81A54,54,0,0,0,54,20.27a47.88,47.88,0,0,0,6-3.17,39.32,39.32,0,0,0,5.39-3.93,17.47,17.47,0,0,0,5-8.62c-20,4.93-43.51,11-57.81,14.53A14.88,14.88,0,0,0,18,22.78Z"/><path class="cls-10" d="M34.38,18.19a45.71,45.71,0,0,0,7.19-.88,49.79,49.79,0,0,0,7.19-2.11,45.11,45.11,0,0,0,6.49-2.94,19.71,19.71,0,0,0,6-5.45c-13.68,3.41-28.07,7.08-39.52,10a24.86,24.86,0,0,0,5.85,1.28A44.23,44.23,0,0,0,34.38,18.19Z"/><path class="cls-2" d="M19.37,20C32.66,17.43,67.06,8.56,91.28,2.27c1.46.73,3.9,1.58,5.84,2.31,2.68,5.72-7.58,23.79-29.2,29C51.13,37.56,25.7,36.71,19.37,20Z"/><path class="cls-3" d="M97.12,4.58c-2-.89-3.59-1.54-5.84-2.31l-2.23.58a68.09,68.09,0,0,1-3.7,8,41.51,41.51,0,0,1-3.56,5.61A34,34,0,0,1,77.49,21,50.5,50.5,0,0,1,67,28a52.69,52.69,0,0,1-13.64,4.79,48.74,48.74,0,0,1-7.22.87,33.44,33.44,0,0,1-7.28-.4A30.26,30.26,0,0,1,25.9,27.52a27.21,27.21,0,0,1-4.77-4.7c-.44-.54-.88-1.09-1.29-1.65,7,15.57,28.75,17.89,48.38,12.86C89.75,28.51,100.51,11.88,97.12,4.58Z"/><path class="cls-4" d="M89.23,6.7c1.83-.39,3.68-.78,5.49-1.27a19.52,19.52,0,0,0,2.41-.82v0c-2-.89-3.59-1.54-5.84-2.31l-2.23.58C88.5,4.26,87.91,5.66,87.27,7,87.93,6.93,88.58,6.84,89.23,6.7Z"/><path class="cls-5" d="M24.78,23C28.65,21.75,89.5,7.15,96.5,4.82a56.15,56.15,0,0,1-5.64-2.45C66.25,8.4,32,17,19.37,20,19.4,20.11,22.84,22,24.78,23Z"/><path class="cls-6" d="M91.57,3.5c.75.35,3.39,1.47,3.8,1.73.61-.18.78-.29,1.13-.41a56.15,56.15,0,0,1-5.64-2.45l-1,.26C90.39,2.94,91,3.22,91.57,3.5Z"/><path class="cls-5" d="M85.47,3.69c-19,4.68-42,10.45-56.59,14a20.32,20.32,0,0,0,2.66,2.75l.65.6c14-3.52,43.53-10.72,57.37-14.35A12.94,12.94,0,0,0,85.47,3.69Z"/><path class="cls-7" d="M76.91,5.81C63.68,9.08,49.47,12.62,38,15.48a17.36,17.36,0,0,0,2.74,2.88l.56.45c12-3,27.56-6.94,39.34-9.93A24.82,24.82,0,0,0,76.91,5.81Z"/><path class="cls-6" d="M20.69,19.72,19.37,20c0,.07,3.47,2,5.41,3,.3-.1.45,0,1.38-.25C25.34,22.15,21.44,20.32,20.69,19.72Z"/><path class="cls-8" d="M24.48,22.83c13.26-3.16,47-11.92,72-18C99,9.81,89,27.7,67.31,32.69,51,36.46,32.75,35.12,24.48,22.83Z"/><path class="cls-9" d="M96.51,4.82,95.4,5.1c.77,5.24-4.19,11.29-6.28,13.39A47,47,0,0,1,73,29.37a56,56,0,0,1-24.44,3.79c-8-.63-17.34-3.51-22.87-10.61l-1.18.28C32.75,35.12,51,36.46,67.31,32.69,89,27.7,99,9.81,96.51,4.82Z"/><path class="cls-8" d="M37.35,24.72A32,32,0,0,0,47.9,26.88a56.32,56.32,0,0,0,12.57-.8,54.12,54.12,0,0,0,12.87-3.87,51.5,51.5,0,0,0,6-3.17,40.82,40.82,0,0,0,5.39-3.93,17.64,17.64,0,0,0,5-8.62c-20,4.92-43.51,11-57.81,14.53A14.88,14.88,0,0,0,37.35,24.72Z"/><path class="cls-10" d="M53.75,20.13a45.72,45.72,0,0,0,7.19-.89,48.88,48.88,0,0,0,7.19-2.1,45,45,0,0,0,6.48-2.94,19.76,19.76,0,0,0,6-5.45c-13.69,3.41-28.07,7.08-39.52,10A24.9,24.9,0,0,0,46.93,20,44.39,44.39,0,0,0,53.75,20.13Z"/><path class="cls-2" d="M38.74,22C52,19.36,86.42,10.49,110.65,4.21c1.46.73,3.89,1.58,5.84,2.31,2.68,5.72-7.59,23.79-29.2,29C70.49,39.49,45.06,38.64,38.74,22Z"/><path class="cls-3" d="M116.49,6.52c-2-.89-3.59-1.54-5.84-2.31l-2.24.58a68.78,68.78,0,0,1-3.69,8,40.85,40.85,0,0,1-3.57,5.6A32.8,32.8,0,0,1,96.86,23a50.07,50.07,0,0,1-10.53,7,52.08,52.08,0,0,1-13.64,4.79,47.42,47.42,0,0,1-7.23.87,33.38,33.38,0,0,1-7.27-.39,30.38,30.38,0,0,1-12.92-5.78,28,28,0,0,1-4.78-4.7c-.43-.54-.87-1.09-1.28-1.65C46.24,38.68,68,41,87.59,36,109.12,30.45,119.88,13.82,116.49,6.52Z"/><path class="cls-4" d="M108.6,8.63c1.83-.39,3.68-.77,5.49-1.26a20.78,20.78,0,0,0,2.41-.83v0c-2-.89-3.59-1.54-5.84-2.31l-2.24.58c-.54,1.41-1.14,2.8-1.77,4.18C107.3,8.87,108,8.77,108.6,8.63Z"/><path class="cls-5" d="M44.15,24.93C48,23.69,108.87,9.09,115.87,6.76a56.15,56.15,0,0,1-5.64-2.45C85.62,10.33,51.35,19,38.74,22,38.76,22.05,42.21,24,44.15,24.93Z"/><path class="cls-6" d="M110.93,5.43c.76.35,3.4,1.48,3.81,1.74.61-.18.78-.29,1.13-.41a56.15,56.15,0,0,1-5.64-2.45l-1,.25C109.76,4.88,110.35,5.16,110.93,5.43Z"/><path class="cls-5" d="M104.84,5.63c-19,4.67-42,10.44-56.6,14a21.67,21.67,0,0,0,2.67,2.75l.64.6c14-3.52,43.54-10.73,57.37-14.35A12.76,12.76,0,0,0,104.84,5.63Z"/><path class="cls-7" d="M96.28,7.74,57.33,17.41a17.82,17.82,0,0,0,2.74,2.89l.56.45c11.95-3,27.56-6.94,39.34-9.93A25.48,25.48,0,0,0,96.28,7.74Z"/><path class="cls-6" d="M40.05,21.66,38.74,22c0,.08,3.47,2,5.41,3a12,12,0,0,0,1.37-.24C44.71,24.08,40.81,22.26,40.05,21.66Z"/><path class="cls-8" d="M43.85,24.77c13.26-3.16,47-11.92,72-18,2.44,5-7.54,22.88-29.2,27.87C70.33,38.39,52.12,37.06,43.85,24.77Z"/><path class="cls-9" d="M115.88,6.76,114.77,7c.77,5.25-4.19,11.3-6.28,13.4A47,47,0,0,1,92.33,31.3,55.78,55.78,0,0,1,67.9,35.1c-8-.63-17.35-3.51-22.87-10.61l-1.18.28c8.27,12.29,26.48,13.62,42.83,9.86C108.34,29.64,118.32,11.75,115.88,6.76Z"/><path class="cls-8" d="M56.72,26.66a32,32,0,0,0,10.54,2.16A57,57,0,0,0,79.84,28a54.6,54.6,0,0,0,12.87-3.88,48.6,48.6,0,0,0,6-3.17A39.71,39.71,0,0,0,104.06,17a17.55,17.55,0,0,0,5-8.62c-20,4.93-43.51,11-57.81,14.53A14.78,14.78,0,0,0,56.72,26.66Z"/><path class="cls-10" d="M73.12,22.07a46.65,46.65,0,0,0,7.18-.89,49.88,49.88,0,0,0,7.2-2.1A44,44,0,0,0,94,16.13a19.51,19.51,0,0,0,6-5.45c-13.69,3.42-28.07,7.08-39.52,10a24.89,24.89,0,0,0,5.84,1.28A44.39,44.39,0,0,0,73.12,22.07Z"/><g class="cls-11"><polygon points="103.99 34.18 103.99 34.18 107.99 41.18 121.16 37.01 103.99 34.18"/><polygon points="127.98 35.18 132.98 40.18 143.98 35.18 127.98 35.18"/><polygon points="145.98 39.18 155.97 41.18 159.97 38.18 145.98 39.18"/><polygon points="115.99 31.18 122.98 35.18 130.75 31.82 115.99 31.18"/></g><path class="cls-12" d="M116.68,21.27c2.65-.74,9.43-2,11-1.87a48.78,48.78,0,0,1,6.68,3c.27,1.63.45,7,0,8.42-.84.29-10.1,2.46-11.11,2.41-.85-.69-6-2.9-6.78-3.79C116.5,28.36,116.63,22.25,116.68,21.27Z"/><path class="cls-13" d="M134.34,22.4a48.78,48.78,0,0,0-6.68-3c1.55,1.07,4.32,2.26,4.21,2.61-.06.16-5.78,1.42-7.74,2.64,0,.05-.41.6-.37.65a12,12,0,0,1,.93,1.64,17.4,17.4,0,0,1,1.18,3.41c.18.78.33,1.57.45,2.36,3.11-.64,7.5-1.69,8.07-1.89C134.79,29.39,134.61,24,134.34,22.4Z"/><path class="cls-14" d="M116.68,21.27a38.31,38.31,0,0,1,6.95,3.44c0,1.28.66,8.57-.35,8.52a25,25,0,0,1-6.78-3.79C116.5,28.36,116.63,22.25,116.68,21.27Z"/><path class="cls-15" d="M123.36,24.52c3-.69,10.45-2.61,11-2.12.27,1.63.45,7,0,8.42-.84.29-10.1,2.46-11.11,2.41C123.36,31.16,123.45,25.8,123.36,24.52Z"/><path class="cls-12" d="M128.56,25.22A40.81,40.81,0,0,1,137,22.36a24.82,24.82,0,0,1,6.2,3.18c.41,1.51.65,8.08.71,9.91-2.57,1.38-8.27,2.23-10.72,2.66a49.09,49.09,0,0,1-5.22-3.35A52.17,52.17,0,0,1,128.56,25.22Z"/><path class="cls-13" d="M137,23.15c.31,0,4.7,2,6.22,2.39a24.82,24.82,0,0,0-6.2-3.18,40.81,40.81,0,0,0-8.41,2.86C129,25.14,136.6,23.1,137,23.15Z"/><path class="cls-8" d="M128.56,25.22a18.55,18.55,0,0,1,4.69,2.23c.42,1.37.53,7.28-.09,10.66a49.09,49.09,0,0,1-5.22-3.35A52.17,52.17,0,0,1,128.56,25.22Z"/><path class="cls-15" d="M132.9,27.18c2.6-.78,7.85-1.83,10.27-1.64.41,1.51.65,8.08.71,9.91-2.57,1.38-8.27,2.23-10.72,2.66C133,36,132.9,29.61,132.9,27.18Z"/><path class="cls-16" d="M136.35,36.51a1.79,1.79,0,0,1-1.81-.74c-.61-1.25-.67-6.44-1.64-8.42,0,2.54.06,8.74.26,10.76,2.45-.43,8.15-1.28,10.72-2.66C143.88,35.41,136.92,36.49,136.35,36.51Z"/><path class="cls-12" d="M159.87,29c-1.4-.82-8.22-1.45-9-1.45a20.9,20.9,0,0,0-4.74,2.78c-.38,1.4-.34,6.89-.4,8.59,2.39,1.28,7.6.74,9.88,1.14,1.23-.74,3.52-1.49,4.07-2.07C159.81,35.93,160.2,30.32,159.87,29Z"/><path class="cls-13" d="M151.23,28.24a83.32,83.32,0,0,1,8.64.71c-1.4-.82-8.22-1.45-9-1.45A20.86,20.86,0,0,0,146.42,30,32.43,32.43,0,0,1,151.23,28.24Z"/><path class="cls-15" d="M159.87,29a17.16,17.16,0,0,0-4.39,2.25,26.71,26.71,0,0,0,.09,8.81,15.18,15.18,0,0,0,4.07-2.07C159.81,35.93,160.2,30.32,159.87,29Z"/><path class="cls-16" d="M156.66,38.05c-.6-.86-.7-6-.93-7-.33.2-.74,5.87-.16,9a15.18,15.18,0,0,0,4.07-2.07v0C158.84,38,157.19,38.82,156.66,38.05Z"/><path class="cls-8" d="M155.72,31a34.49,34.49,0,0,0-9.63-.72c-.38,1.4-.34,7.13-.4,8.84,2.35.89,8.33,1,9.88.89A87.38,87.38,0,0,1,155.72,31Z"/><path class="cls-17" d="M104.65,26.47A71.27,71.27,0,0,1,116.6,24.8a15.54,15.54,0,0,1,4.92,3.69c.26,1.62.44,7,0,8.42-.84.29-11.11,2-12.13,1.92-.84-.69-4.2-3.3-5-4.19C104.47,33.56,104.61,27.45,104.65,26.47Z"/><path class="cls-8" d="M104.65,26.47c2.13.79,4.6,3.5,5.53,4.28,0,1.28.27,8.12-.75,8.08-.84-.69-4.2-3.3-5-4.19C104.47,33.56,104.61,27.45,104.65,26.47Z"/><path class="cls-15" d="M109.52,30.11c3-.69,11.47-2.11,12-1.62.26,1.62.44,7,0,8.42-.84.29-11.11,2-12.13,1.92C109.52,36.76,109.61,31.39,109.52,30.11Z"/><path class="cls-16" d="M113.82,37.35a3.85,3.85,0,0,1-2.18-.65A4,4,0,0,1,110.57,35,19.09,19.09,0,0,1,110,32.6a17.52,17.52,0,0,1-.43-2.49h0c.09,1.28,0,6.65-.09,8.72.78,0,6.93-.93,10.19-1.52A24,24,0,0,1,113.82,37.35Z"/><path class="cls-12" d="M116.69,11.9a45.58,45.58,0,0,1,9.12,2.95c.09,2.86-.17,9-.22,9.5a46.28,46.28,0,0,1-7.17,3.94c-2.57-.49-7.48-1.62-9.56-2.26-.36-2.32.31-9.65.39-10.24A39.19,39.19,0,0,1,116.69,11.9Z"/><path class="cls-13" d="M116.78,12.86c.58,0,6.84,1.72,8.85,1.89a48.33,48.33,0,0,0-8.94-2.85,39.19,39.19,0,0,0-7.44,3.89h0C111,15.4,116.14,12.86,116.78,12.86Z"/><path class="cls-8" d="M118.49,18.2c.09,2.86.42,7.75-.07,10.09-2.57-.49-7.48-1.62-9.56-2.26-.36-2.32.31-9.65.39-10.24A46.34,46.34,0,0,1,118.49,18.2Z"/><path class="cls-15" d="M125.81,14.85c.09,2.86-.17,9-.22,9.5a46.28,46.28,0,0,1-7.17,3.94c-.4-1.82-.46-9.5-.46-10.35A24.58,24.58,0,0,1,125.81,14.85Z"/><path class="cls-16" d="M124.86,24.4a6.25,6.25,0,0,1-3.92,1.15c-1.17-.2-1.57-1.39-1.93-2.5a19.11,19.11,0,0,1-1-5.14l-.05,0c0,.85.06,8.53.46,10.35a46.28,46.28,0,0,0,7.17-3.94c0-.06,0-.2,0-.41C125.37,24.1,125.11,24.26,124.86,24.4Z"/></svg>