<svg id="Layer_1" data-name="Layer 1" xmlns="http://www.w3.org/2000/svg" viewBox="0 0 182 44"><defs><style>.cls-1{opacity:0.3;}.cls-2{fill:#fec01e;}.cls-3{fill:#fdb211;}.cls-4{fill:#fff8d6;}.cls-5{fill:#fffcf2;}.cls-6{fill:#ff9100;}.cls-7{fill:#ff9c0d;}.cls-8{fill:#feb800;}.cls-9{fill:#ffcd61;}.cls-10{fill:#f98800;}.cls-11{fill:#ffa729;}</style></defs><path class="cls-1" d="M26.27,34.7c4.54,0,8.8.2,12.5.54,3.69-.34,7.95-.54,12.49-.54s8.8.2,12.5.54c3.69-.34,7.95-.54,12.49-.54s8.8.2,12.5.54c3.69-.34,8-.54,12.49-.54,14.12,0,25.57,1.91,25.57,4.26s-11.45,4.26-25.57,4.26c-4.54,0-8.8-.19-12.49-.54-3.7.35-8,.54-12.5.54s-8.8-.19-12.49-.54c-3.7.35-8,.54-12.5.54s-8.8-.19-12.49-.54c-3.7.35-8,.54-12.5.54C12.15,43.22.7,41.31.7,39S12.15,34.7,26.27,34.7Z"/><path class="cls-2" d="M119.43,19.94c-5.28,1.25-10.44.18-13,0-4-.28-6,0-6.61-.09-.87-.1-1.22-.56-2.5-1-1.53-.48-12.75-3.45-13.9-4-2.5,2.3-3.65,8-2.59,12.85.89,4.15,6.23,11.61,15.15,12.95,11.13,1.68,19.47-1.53,22.54-5.47S124,23.88,119.43,19.94Z"/><path class="cls-3" d="M80.88,27.71c.89,4.15,6.23,11.61,15.15,12.95,11.13,1.68,19.47-1.53,22.54-5.47s5.46-11.31.86-15.25a20.8,20.8,0,0,1-3.15.5c1.62.53.06,3.55-.49,4.39a31.85,31.85,0,0,1-1.67,2.91c-.69.83-2.09,2.53-3.29,2.47-.66,0-1.59-1.26-2-1.7-.79-.77-1.5-2-2-2.62a35.73,35.73,0,0,1-2.34-3.43c-.7-1,.32-2.11,1.19-2.49l.18-.07c-3.57-.21-5.37,0-5.93,0-.87-.1-1.22-.56-2.5-1l-.49-.14a1.12,1.12,0,0,1,0,.44,1.77,1.77,0,0,1-1.3,1c-2,.59-4.1.92-6.07,1.68-.88.34-1.74.74-2.65,1a3.7,3.7,0,0,1-2.18.18c-.41-.15-.4-.63-.39-1a11.43,11.43,0,0,1,.25-2.55,5.14,5.14,0,0,1,2-3.15,3.23,3.23,0,0,1,.75-.36c-1.91-.55-3.43-1-3.81-1.21C81,17.16,79.82,22.82,80.88,27.71Zm16.88,5.36c.08-1,.4-2,.56-3a27.38,27.38,0,0,1,.64-3,16,16,0,0,1,1-3,2,2,0,0,1,2.14-.45,38.06,38.06,0,0,1,3.26,3.65,7.66,7.66,0,0,1,1.88,4.65,2.19,2.19,0,0,1-.86,1.76,6.9,6.9,0,0,1-1.93.77,11.81,11.81,0,0,1-4.85.75,2,2,0,0,1-1.53-.6A2.22,2.22,0,0,1,97.76,33.07ZM85.41,27.32a1.81,1.81,0,0,1,.9-1,44.09,44.09,0,0,1,5-2.2c.94-.32,2.15-.83,3.07-1.21s2.43-.93,3-.44A2.12,2.12,0,0,1,98,24.57,13.54,13.54,0,0,1,96.8,27.9c-.39.87-.86,1.69-1.29,2.54a16.25,16.25,0,0,1-1.1,1.95A2.94,2.94,0,0,1,93,33.63c-1.5.45-3.07-.6-4.25-1.4A8.63,8.63,0,0,1,85.64,29,2.54,2.54,0,0,1,85.41,27.32Z"/><path class="cls-4" d="M80.88,27.71c.89,4.15,6.23,11.61,15.15,12.95,11.13,1.68,19.47-1.53,22.54-5.47s5.46-11.31.86-15.25a16.21,16.21,0,0,1-1.77.34c1.24,0-.73,5.11-1.2,5.9-.8,1.35-4.11,6.35-6.76,5.29-.33-.46-.72-.87-1.06-1.32-.7-.95-1.38-1.93-2.14-2.83a30.42,30.42,0,0,1-2.34-3c-.42-.65-.87-1.24-1.26-1.89a2.43,2.43,0,0,1,.44-1.76,2.53,2.53,0,0,1,1.22-.87c-2.75-.1-4.2.06-4.69,0a7.43,7.43,0,0,1-1.94-.76,1.86,1.86,0,0,1,.1.31c.2.87-.58,1.52-1.35,1.82a26.32,26.32,0,0,0-2.92.68A19.29,19.29,0,0,0,90,23.22c-.7.34-1.4.71-2.13,1a17.93,17.93,0,0,1-2,.62c-.67.18-1.35.37-2,.51l-.22,0c-2.48-1.08-.1-10,1.9-9.78,0,0,.06,0,.09,0a19.61,19.61,0,0,1-2.13-.71C81,17.16,79.82,22.82,80.88,27.71Zm14.94,8c.05-.21.1-.41.16-.59.2-.63.43-1.26.58-1.92a12,12,0,0,1,.51-1.84c.2-.54.42-1.07.58-1.63.37-1.29.73-2.59,1-3.9.14-.62.25-1.25.43-1.85l.1-.34a5.15,5.15,0,0,1,1.87-1.14,1.94,1.94,0,0,1,1.62.35c.3.55.77,1.06,1.08,1.53a21.75,21.75,0,0,0,2.12,2.76c.87,1,1.64,2.08,2.42,3.15.31.43.74.85,1,1.3.48,3-5.29,4.36-6.94,4.7C101.49,36.53,97,37.52,95.82,35.76Zm-12-9.93.81-.18c.64-.16,1.28-.32,1.9-.51A24.14,24.14,0,0,0,90,23.6a21.79,21.79,0,0,1,3.82-1.38c.94-.25,1.91-.6,2.89-.82a2.29,2.29,0,0,1,1.32.48,3.22,3.22,0,0,1,.84,1.77c-.1.31-.22.62-.3.94-.13.57-.27,1.14-.42,1.7-.31,1.18-.6,2.38-1,3.55-.2.6-.45,1.19-.66,1.79s-.3,1.12-.45,1.69-.36,1.15-.55,1.73c-.09.26-.16.52-.25.78-1.72,1.5-7.2-1-8.62-2.51C84.38,30.94,82.38,27.28,83.78,25.83Z"/><path class="cls-5" d="M102.35,20.21a1.9,1.9,0,0,0-.25.89c0,.1,0,.13-.06.13h-.2l-.34,0c-.86-.05-1.83-.07-2.18.77a1.71,1.71,0,0,0-1-1,2.47,2.47,0,0,0,1-1.26,2.68,2.68,0,0,0,.62.15c.36,0,1.25,0,2.79,0A1.53,1.53,0,0,0,102.35,20.21Z"/><path class="cls-6" d="M119.43,19.94c.1,8.25-6.52,14.39-13,16.79-6.08,2.23-15.89,2.06-20.91-2.5C80.3,29.54,79.34,20,84,15.06a3.57,3.57,0,0,1-.51-.2c-2.5,2.3-3.65,8-2.59,12.85.89,4.15,6.23,11.61,15.15,12.95,11.13,1.68,19.47-1.53,22.54-5.47S124,23.88,119.43,19.94Z"/><path class="cls-7" d="M119.87,20.35a5.66,5.66,0,0,1-.06,3.26,18.5,18.5,0,0,1-1.34,3.76,18.88,18.88,0,0,1-6,7.18,22.4,22.4,0,0,1-9.83,4.09c-7,.87-11.13.36-15.65-2-3.47-2.82-5.56-6.44-6.09-8.9-1.06-4.89.09-10.55,2.59-12.85a3.57,3.57,0,0,0,.51.2c-4.64,5-3.68,14.48,1.5,19.17,5,4.56,14.83,4.73,20.91,2.5,6.52-2.4,13.14-8.54,13-16.79Z"/><path class="cls-7" d="M119.06,31.72a.62.62,0,0,1,.75-.09.24.24,0,0,1,0,.36.48.48,0,0,1-.08.38.69.69,0,0,1-.74.29.26.26,0,0,1-.19-.19A.86.86,0,0,1,119.06,31.72Z"/><path class="cls-7" d="M118.44,29.46A.74.74,0,0,1,119,29a.19.19,0,0,1,.23.13.59.59,0,0,1,0,.27v0a.76.76,0,0,1-.25.59.25.25,0,0,1-.27,0A.48.48,0,0,1,118.44,29.46Z"/><path class="cls-7" d="M114.82,36.84a.13.13,0,0,1,.07.14.23.23,0,0,1,.08.17c0,.55-.53.69-1,.59a.23.23,0,0,1-.17-.22A.69.69,0,0,1,114.82,36.84Z"/><path class="cls-7" d="M109.62,37.47a.41.41,0,0,1,.31,0h0a.47.47,0,0,1,.39.29.2.2,0,0,1-.07.28,1.2,1.2,0,0,1-.85.12.17.17,0,0,1-.13-.18A.51.51,0,0,1,109.62,37.47Z"/><path class="cls-7" d="M106.2,39.6a.61.61,0,0,1,.65.24l0,0,.06,0a.21.21,0,0,1,0,.29,1.35,1.35,0,0,1-1,.18.21.21,0,0,1-.2-.21A.58.58,0,0,1,106.2,39.6Z"/><path class="cls-7" d="M102.72,39.44s0,0,0,0l.08-.07a.31.31,0,0,1,.13-.06.37.37,0,0,1,.37.12.22.22,0,0,1,0,.34l-.22.09a1.09,1.09,0,0,1-.25,0,.19.19,0,0,1-.19-.2A.22.22,0,0,1,102.72,39.44Z"/><path class="cls-7" d="M101.51,40.38a.16.16,0,0,1,.11-.05v0h0a.24.24,0,0,1,.27,0,.25.25,0,0,1,0,.38.3.3,0,0,1-.35.06.18.18,0,0,1-.14-.19A.22.22,0,0,1,101.51,40.38Z"/><path class="cls-7" d="M120.53,26a.22.22,0,0,1,.23.09.54.54,0,0,1,0,.11h0a.19.19,0,0,1,.19.14.76.76,0,0,1-.15.78.51.51,0,0,1-.58-.11.7.7,0,0,1-.28-.53A.56.56,0,0,1,120.53,26Z"/><path class="cls-7" d="M117.52,33a.58.58,0,0,1,.1-.21.76.76,0,0,1,.4-.28.22.22,0,0,1,.27.21.24.24,0,0,1,0,.12.17.17,0,0,1-.08.16.39.39,0,0,1-.09.28.47.47,0,0,1-.41.13.2.2,0,0,1-.19-.2A.5.5,0,0,1,117.52,33Z"/><path class="cls-7" d="M97.19,39.65a1,1,0,0,1,.38,0,.45.45,0,0,1,.35.29.2.2,0,0,1-.12.29c-.34.09-.8,0-.8-.43A.19.19,0,0,1,97.19,39.65Z"/><path class="cls-8" d="M105,21.67c.19.77,1.44,2.43,2.14,1.41S105.65,21.67,105,21.67Z"/><path class="cls-9" d="M105.52,20.71c.57-.31,2.69-.51,2.64.35S106,21.19,105.52,20.71Z"/><path class="cls-3" d="M108.05,22.5c.41.93,2.33,1.95,2.72,1.06C111.3,22.32,108.85,22.34,108.05,22.5Z"/><path class="cls-9" d="M106.8,24.1c.13.8,1.57,2.79,2.46,1.82S107.79,24.13,106.8,24.1Z"/><path class="cls-8" d="M109.07,21.35c1.12-.57,3.13-.29,2.85.54S109.84,22,109.07,21.35Z"/><path class="cls-8" d="M112.56,21.32c.89-.58,2.84-.43,2.84.19C115.4,22.5,113.29,21.89,112.56,21.32Z"/><path class="cls-9" d="M113,22.83c.65.6,2.46,1.74,2.85.63S113.77,22.55,113,22.83Z"/><path class="cls-8" d="M109.84,24.76c.26.93,1.56,2.43,2.24,1.54S111,24.79,109.84,24.76Z"/><path class="cls-3" d="M109.07,27c.07.9,1.48,2.3,2,1.68C111.92,27.74,110,27,109.07,27Z"/><path class="cls-3" d="M111.84,23.92c.36.79,1.78,1.84,2.32,1.24C114.92,24.3,112.45,23.91,111.84,23.92Z"/><path class="cls-9" d="M100.36,24.29c-.42.67-.77,2.72.46,2.52C101.89,26.64,100.8,24.75,100.36,24.29Z"/><path class="cls-8" d="M101.5,24c.62.2,2.22,1.59,1.57,2.15S101.52,24.7,101.5,24Z"/><path class="cls-3" d="M101.64,27.36c-.43.92,0,3,1,2.75C103.89,29.71,102.28,27.86,101.64,27.36Z"/><path class="cls-8" d="M100,27.38c-.56.59-1.28,2.93,0,3.06S100.53,28.19,100,27.38Z"/><path class="cls-9" d="M103.58,26.94c1.19.42,2.37,2.07,1.57,2.44S103.62,28,103.58,26.94Z"/><path class="cls-3" d="M104.84,30.2c0,.89.43,3,1.5,2.5S105.58,30.57,104.84,30.2Z"/><path class="cls-9" d="M101.22,30.27c-.49.83-.68,2.8.43,2.68S102,31.13,101.22,30.27Z"/><path class="cls-3" d="M99,30.86c-.66.62-.87,2.6-.06,2.63C100.23,33.53,99.64,31.56,99,30.86Z"/><path class="cls-8" d="M103.45,31.06c-.34.8-.19,2.56.63,2.55C105.22,33.61,103.86,31.51,103.45,31.06Z"/><path class="cls-8" d="M96.19,22.75c-.79,0-2.66,1-1.79,1.84S96.07,23.38,96.19,22.75Z"/><path class="cls-9" d="M97.12,23.35c.19.62,0,2.74-.84,2.53S96.56,23.78,97.12,23.35Z"/><path class="cls-3" d="M94.37,26c-1,.18-2.45,1.79-1.68,2.38C93.77,29.22,94.33,26.84,94.37,26Z"/><path class="cls-3" d="M89.34,28c-1-.17-2.64.83-2.1,1.64C88,30.76,89.22,28.93,89.34,28Z"/><path class="cls-9" d="M93.63,24.22c-.8-.11-3.13.67-2.48,1.81S93.3,25.16,93.63,24.22Z"/><path class="cls-8" d="M95.74,26.66c.35,1.21-.31,3.13-1.07,2.69S94.93,27.29,95.74,26.66Z"/><path class="cls-3" d="M93.88,29.8c-.71.53-2.18,2.09-1.16,2.67S94,30.61,93.88,29.8Z"/><path class="cls-8" d="M91.92,27.15c-1,.08-2.68,1.08-1.94,1.91S91.67,28.29,91.92,27.15Z"/><path class="cls-3" d="M90.15,25.47c-.88-.18-2.62.8-2.17,1.48C88.68,28,90,26.39,90.15,25.47Z"/><path class="cls-9" d="M92.11,29.72c-.85.18-2.54,1.29-1.71,2S92.32,30.59,92.11,29.72Z"/><path class="cls-9" d="M95.9,19.17c-.41.51-2.36,1-2.65.17S95.23,18.94,95.9,19.17Z"/><path class="cls-3" d="M92.58,18.58c-.57-.84-2.64-1.51-2.86-.56C89.42,19.33,91.82,18.87,92.58,18.58Z"/><path class="cls-8" d="M92.09,19.82c-.81,1-2.85,1.23-2.9.35S91.12,19.49,92.09,19.82Z"/><path class="cls-3" d="M88.26,21.16c-.83-.3-3.29-.7-3,.57C85.55,22.79,87.66,21.72,88.26,21.16Z"/><path class="cls-8" d="M89.12,18.22c-.59-.76-2.24-1.92-2.66-.89C86.12,18.19,88,18.64,89.12,18.22Z"/><path class="cls-9" d="M88,19.4c-.62-.61-2.69-1.21-2.82-.12S87.42,20.06,88,19.4Z"/><path class="cls-2" d="M94.44,19.94c-5.28,1.25-10.44.18-13,0-4-.28-6,0-6.62-.09-.86-.1-1.21-.56-2.49-1-1.53-.48-12.75-3.45-13.91-4-2.49,2.3-3.64,8-2.58,12.85.89,4.15,6.23,11.61,15.15,12.95,11.13,1.68,19.47-1.53,22.54-5.47S99,23.88,94.44,19.94Z"/><path class="cls-3" d="M55.89,27.71c.89,4.15,6.23,11.61,15.15,12.95,11.13,1.68,19.47-1.53,22.54-5.47s5.46-11.31.86-15.25a20.8,20.8,0,0,1-3.15.5c1.61.53,0,3.55-.49,4.39a31.85,31.85,0,0,1-1.67,2.91c-.69.83-2.09,2.53-3.29,2.47-.66,0-1.59-1.26-2-1.7a31.61,31.61,0,0,1-2-2.62,33.92,33.92,0,0,1-2.34-3.43c-.7-1,.32-2.11,1.19-2.49l.18-.07c-3.57-.21-5.37,0-5.94,0-.86-.1-1.21-.56-2.49-1l-.49-.14a1.12,1.12,0,0,1,0,.44,1.77,1.77,0,0,1-1.3,1c-2,.59-4.1.92-6.07,1.68-.88.34-1.74.74-2.65,1a3.71,3.71,0,0,1-2.18.18c-.41-.15-.4-.63-.39-1a11.43,11.43,0,0,1,.25-2.55,5.14,5.14,0,0,1,2-3.15,3,3,0,0,1,.75-.36c-1.91-.55-3.43-1-3.82-1.21C56,17.16,54.83,22.82,55.89,27.71Zm16.88,5.36c.08-1,.4-2,.56-3a27.38,27.38,0,0,1,.64-3,15.28,15.28,0,0,1,1-3,2,2,0,0,1,2.14-.45,38.06,38.06,0,0,1,3.26,3.65,7.66,7.66,0,0,1,1.88,4.65,2.19,2.19,0,0,1-.86,1.76,6.9,6.9,0,0,1-1.93.77,11.81,11.81,0,0,1-4.85.75,2,2,0,0,1-1.53-.6A2.22,2.22,0,0,1,72.77,33.07ZM60.42,27.32a1.81,1.81,0,0,1,.9-1,44.09,44.09,0,0,1,5-2.2c.94-.32,2.15-.83,3.07-1.21s2.43-.93,3-.44A2.12,2.12,0,0,1,73,24.57a14,14,0,0,1-1.15,3.33c-.39.87-.86,1.69-1.29,2.54a16.25,16.25,0,0,1-1.1,1.95,2.94,2.94,0,0,1-1.37,1.24c-1.5.45-3.07-.6-4.25-1.4A8.63,8.63,0,0,1,60.65,29,2.54,2.54,0,0,1,60.42,27.32Z"/><path class="cls-4" d="M55.89,27.71c.89,4.15,6.23,11.61,15.15,12.95,11.13,1.68,19.47-1.53,22.54-5.47s5.46-11.31.86-15.25a15.93,15.93,0,0,1-1.78.34c1.25,0-.72,5.11-1.19,5.9-.81,1.35-4.11,6.35-6.76,5.29-.33-.46-.72-.87-1.06-1.32-.7-.95-1.38-1.93-2.14-2.83a30.42,30.42,0,0,1-2.34-3c-.42-.65-.87-1.24-1.26-1.89a2.43,2.43,0,0,1,.44-1.76,2.53,2.53,0,0,1,1.22-.87c-2.75-.1-4.2.06-4.7,0a7.37,7.37,0,0,1-1.93-.76,1.86,1.86,0,0,1,.1.31c.2.87-.58,1.52-1.35,1.82a26.32,26.32,0,0,0-2.92.68A19.29,19.29,0,0,0,65,23.22c-.71.34-1.4.71-2.13,1a17.93,17.93,0,0,1-2,.62c-.67.18-1.35.37-2,.51l-.22,0c-2.48-1.08-.1-10,1.9-9.78,0,0,.06,0,.09,0a21,21,0,0,1-2.14-.71C56,17.16,54.83,22.82,55.89,27.71Zm14.94,8c0-.21.1-.41.16-.59.2-.63.43-1.26.58-1.92a12,12,0,0,1,.51-1.84c.2-.54.42-1.07.58-1.63.37-1.29.73-2.59,1-3.9.14-.62.25-1.25.43-1.85l.1-.34a5.15,5.15,0,0,1,1.87-1.14,1.94,1.94,0,0,1,1.62.35c.3.55.77,1.06,1.07,1.53a22.79,22.79,0,0,0,2.13,2.76c.87,1,1.64,2.08,2.42,3.15.31.43.74.85,1,1.3.48,3-5.29,4.36-6.94,4.7C76.5,36.53,72,37.52,70.83,35.76Zm-12-9.93.81-.18c.64-.16,1.28-.32,1.9-.51A24.14,24.14,0,0,0,65,23.6a21.22,21.22,0,0,1,3.82-1.38c.94-.25,1.91-.6,2.89-.82a2.24,2.24,0,0,1,1.31.48,3.24,3.24,0,0,1,.85,1.77c-.1.31-.22.62-.3.94-.13.57-.27,1.14-.42,1.7-.32,1.18-.6,2.38-1,3.55-.2.6-.45,1.19-.66,1.79s-.3,1.12-.45,1.69-.36,1.15-.55,1.73c-.09.26-.16.52-.25.78-1.72,1.5-7.2-1-8.62-2.51C59.39,30.94,57.39,27.28,58.79,25.83Z"/><path class="cls-5" d="M77.36,20.21a1.9,1.9,0,0,0-.25.89c0,.1,0,.13-.06.13h-.2l-.34,0c-.86-.05-1.83-.07-2.18.77a1.74,1.74,0,0,0-1-1,2.47,2.47,0,0,0,1-1.26,2.72,2.72,0,0,0,.61.15c.37,0,1.26,0,2.8,0A1.53,1.53,0,0,0,77.36,20.21Z"/><path class="cls-6" d="M94.44,19.94c.1,8.25-6.52,14.39-13,16.79-6.08,2.23-15.89,2.06-20.91-2.5C55.31,29.54,54.35,20,59,15.06a5,5,0,0,1-.51-.2c-2.49,2.3-3.64,8-2.58,12.85.89,4.15,6.23,11.61,15.15,12.95,11.13,1.68,19.47-1.53,22.54-5.47S99,23.88,94.44,19.94Z"/><path class="cls-7" d="M94.88,20.35a5.66,5.66,0,0,1-.06,3.26,18.5,18.5,0,0,1-1.34,3.76,18.88,18.88,0,0,1-6,7.18,22.4,22.4,0,0,1-9.83,4.09c-7,.87-11.13.36-15.65-2-3.47-2.82-5.56-6.44-6.09-8.9-1.06-4.89.09-10.55,2.58-12.85a5,5,0,0,0,.51.2c-4.63,5-3.67,14.48,1.51,19.17,5,4.56,14.83,4.73,20.91,2.5,6.52-2.4,13.14-8.54,13-16.79Z"/><path class="cls-7" d="M94.07,31.72a.62.62,0,0,1,.75-.09.24.24,0,0,1,.05.36.48.48,0,0,1-.08.38.69.69,0,0,1-.74.29.26.26,0,0,1-.19-.19A.86.86,0,0,1,94.07,31.72Z"/><path class="cls-7" d="M93.45,29.46A.73.73,0,0,1,94,29a.19.19,0,0,1,.23.13.59.59,0,0,1,0,.27v0a.76.76,0,0,1-.25.59.25.25,0,0,1-.27,0A.48.48,0,0,1,93.45,29.46Z"/><path class="cls-7" d="M89.83,36.84a.13.13,0,0,1,.07.14.23.23,0,0,1,.08.17c0,.55-.54.69-1,.59a.23.23,0,0,1-.17-.22A.69.69,0,0,1,89.83,36.84Z"/><path class="cls-7" d="M84.63,37.47a.41.41,0,0,1,.31,0h0a.47.47,0,0,1,.39.29.2.2,0,0,1-.07.28,1.2,1.2,0,0,1-.85.12c-.08,0-.13-.1-.14-.18A.53.53,0,0,1,84.63,37.47Z"/><path class="cls-7" d="M81.21,39.6a.61.61,0,0,1,.65.24s0,0,0,0l.07,0a.21.21,0,0,1,0,.29,1.35,1.35,0,0,1-1,.18.21.21,0,0,1-.2-.21A.58.58,0,0,1,81.21,39.6Z"/><path class="cls-7" d="M77.73,39.44s0,0,0,0l.08-.07A.31.31,0,0,1,78,39.3a.37.37,0,0,1,.37.12.22.22,0,0,1,0,.34l-.22.09a1.09,1.09,0,0,1-.25,0,.19.19,0,0,1-.19-.2A.22.22,0,0,1,77.73,39.44Z"/><path class="cls-7" d="M76.52,40.38a.16.16,0,0,1,.11-.05v0h0a.23.23,0,1,1,.3.35.29.29,0,0,1-.34.06.21.21,0,0,1-.08-.34Z"/><path class="cls-7" d="M95.54,26a.22.22,0,0,1,.23.09.54.54,0,0,1,0,.11h0a.17.17,0,0,1,.18.14.74.74,0,0,1-.14.78A.51.51,0,0,1,95.3,27,.7.7,0,0,1,95,26.5.56.56,0,0,1,95.54,26Z"/><path class="cls-7" d="M92.53,33a.78.78,0,0,1,.09-.21.82.82,0,0,1,.41-.28.22.22,0,0,1,.27.21.24.24,0,0,1,0,.12.17.17,0,0,1-.08.16.39.39,0,0,1-.09.28.47.47,0,0,1-.41.13.2.2,0,0,1-.19-.2A.5.5,0,0,1,92.53,33Z"/><path class="cls-7" d="M72.2,39.65a1,1,0,0,1,.38,0,.45.45,0,0,1,.35.29.2.2,0,0,1-.12.29c-.34.09-.8,0-.8-.43A.19.19,0,0,1,72.2,39.65Z"/><path class="cls-8" d="M80,21.67c.19.77,1.44,2.43,2.14,1.41S80.66,21.67,80,21.67Z"/><path class="cls-9" d="M80.53,20.71c.57-.31,2.69-.51,2.64.35S81.05,21.19,80.53,20.71Z"/><path class="cls-3" d="M83.06,22.5c.41.93,2.33,1.95,2.72,1.06C86.31,22.32,83.86,22.34,83.06,22.5Z"/><path class="cls-9" d="M81.81,24.1c.13.8,1.57,2.79,2.46,1.82S82.8,24.13,81.81,24.1Z"/><path class="cls-8" d="M84.08,21.35c1.12-.57,3.13-.29,2.85.54S84.85,22,84.08,21.35Z"/><path class="cls-8" d="M87.57,21.32c.89-.58,2.84-.43,2.84.19C90.41,22.5,88.3,21.89,87.57,21.32Z"/><path class="cls-9" d="M88,22.83c.65.6,2.46,1.74,2.84.63S88.78,22.55,88,22.83Z"/><path class="cls-8" d="M84.85,24.76c.26.93,1.56,2.43,2.24,1.54S86,24.79,84.85,24.76Z"/><path class="cls-3" d="M84.08,27c.07.9,1.48,2.3,2,1.68C86.93,27.74,85,27,84.08,27Z"/><path class="cls-3" d="M86.85,23.92c.36.79,1.78,1.84,2.32,1.24C89.93,24.3,87.46,23.91,86.85,23.92Z"/><path class="cls-9" d="M75.37,24.29c-.43.67-.77,2.72.46,2.52C76.9,26.64,75.81,24.75,75.37,24.29Z"/><path class="cls-8" d="M76.51,24c.62.2,2.22,1.59,1.57,2.15S76.53,24.7,76.51,24Z"/><path class="cls-3" d="M76.65,27.36c-.43.92,0,3,1,2.75C78.9,29.71,77.29,27.86,76.65,27.36Z"/><path class="cls-8" d="M75,27.38c-.56.59-1.28,2.93,0,3.06S75.54,28.19,75,27.38Z"/><path class="cls-9" d="M78.59,26.94c1.19.42,2.37,2.07,1.57,2.44S78.63,28,78.59,26.94Z"/><path class="cls-3" d="M79.85,30.2c0,.89.43,3,1.5,2.5S80.59,30.57,79.85,30.2Z"/><path class="cls-9" d="M76.23,30.27c-.49.83-.68,2.8.43,2.68S77,31.13,76.23,30.27Z"/><path class="cls-3" d="M74,30.86c-.66.62-.87,2.6-.06,2.63C75.24,33.53,74.65,31.56,74,30.86Z"/><path class="cls-8" d="M78.46,31.06c-.35.8-.19,2.56.63,2.55C80.23,33.61,78.87,31.51,78.46,31.06Z"/><path class="cls-8" d="M71.2,22.75c-.79,0-2.66,1-1.79,1.84S71.07,23.38,71.2,22.75Z"/><path class="cls-9" d="M72.13,23.35c.19.62,0,2.74-.84,2.53S71.56,23.78,72.13,23.35Z"/><path class="cls-3" d="M69.38,26c-1,.18-2.46,1.79-1.68,2.38C68.78,29.22,69.34,26.84,69.38,26Z"/><path class="cls-3" d="M64.35,28c-1-.17-2.64.83-2.1,1.64C63,30.76,64.23,28.93,64.35,28Z"/><path class="cls-9" d="M68.64,24.22c-.8-.11-3.13.67-2.48,1.81S68.31,25.16,68.64,24.22Z"/><path class="cls-8" d="M70.75,26.66c.35,1.21-.31,3.13-1.07,2.69S69.94,27.29,70.75,26.66Z"/><path class="cls-3" d="M68.89,29.8c-.71.53-2.18,2.09-1.16,2.67S69,30.61,68.89,29.8Z"/><path class="cls-8" d="M66.93,27.15c-1,.08-2.68,1.08-1.94,1.91S66.68,28.29,66.93,27.15Z"/><path class="cls-3" d="M65.16,25.47c-.89-.18-2.62.8-2.17,1.48C63.69,28,65,26.39,65.16,25.47Z"/><path class="cls-9" d="M67.12,29.72c-.85.18-2.54,1.29-1.71,2S67.33,30.59,67.12,29.72Z"/><path class="cls-9" d="M70.91,19.17c-.41.51-2.36,1-2.65.17S70.24,18.94,70.91,19.17Z"/><path class="cls-3" d="M67.59,18.58C67,17.74,65,17.07,64.73,18,64.43,19.33,66.83,18.87,67.59,18.58Z"/><path class="cls-8" d="M67.1,19.82c-.82,1-2.85,1.23-2.9.35S66.13,19.49,67.1,19.82Z"/><path class="cls-3" d="M63.27,21.16c-.83-.3-3.29-.7-3,.57C60.56,22.79,62.67,21.72,63.27,21.16Z"/><path class="cls-8" d="M64.13,18.22c-.59-.76-2.24-1.92-2.66-.89C61.13,18.19,63,18.64,64.13,18.22Z"/><path class="cls-9" d="M63.05,19.4c-.63-.61-2.69-1.21-2.82-.12S62.43,20.06,63.05,19.4Z"/><path class="cls-2" d="M69.45,19.94c-5.28,1.25-10.44.18-13,0-4-.28-6,0-6.62-.09-.86-.1-1.21-.56-2.49-1-1.53-.48-12.75-3.45-13.91-4-2.49,2.3-3.64,8-2.59,12.85.9,4.15,6.24,11.61,15.16,12.95,11.13,1.68,19.47-1.53,22.54-5.47S74.05,23.88,69.45,19.94Z"/><path class="cls-3" d="M30.89,27.71c.9,4.15,6.24,11.61,15.16,12.95,11.13,1.68,19.47-1.53,22.54-5.47s5.46-11.31.86-15.25a20.8,20.8,0,0,1-3.15.5c1.61.53,0,3.55-.49,4.39a31.85,31.85,0,0,1-1.67,2.91c-.69.83-2.1,2.53-3.29,2.47-.66,0-1.59-1.26-2.05-1.7a31.61,31.61,0,0,1-2-2.62,33.92,33.92,0,0,1-2.34-3.43c-.7-1,.32-2.11,1.19-2.49l.18-.07c-3.57-.21-5.37,0-5.94,0-.86-.1-1.21-.56-2.49-1l-.49-.14a1,1,0,0,1,0,.44,1.73,1.73,0,0,1-1.29,1c-2,.59-4.11.92-6.07,1.68-.88.34-1.74.74-2.65,1a3.71,3.71,0,0,1-2.18.18c-.41-.15-.4-.63-.39-1a10.37,10.37,0,0,1,.25-2.55,5.14,5.14,0,0,1,2-3.15,3,3,0,0,1,.75-.36c-1.91-.55-3.43-1-3.82-1.21C31,17.16,29.84,22.82,30.89,27.71Zm16.89,5.36c.08-1,.4-2,.56-3a27.38,27.38,0,0,1,.64-3,15.28,15.28,0,0,1,1-3,2,2,0,0,1,2.14-.45,38.06,38.06,0,0,1,3.26,3.65,7.66,7.66,0,0,1,1.88,4.65,2.19,2.19,0,0,1-.86,1.76,6.9,6.9,0,0,1-1.93.77,11.84,11.84,0,0,1-4.85.75,2,2,0,0,1-1.53-.6A2.22,2.22,0,0,1,47.78,33.07ZM35.43,27.32a1.81,1.81,0,0,1,.9-1,44.09,44.09,0,0,1,5-2.2c.94-.32,2.15-.83,3.07-1.21s2.43-.93,3-.44A2.14,2.14,0,0,1,48,24.57a14,14,0,0,1-1.15,3.33c-.39.87-.86,1.69-1.29,2.54a16.25,16.25,0,0,1-1.1,1.95,2.94,2.94,0,0,1-1.37,1.24c-1.5.45-3.07-.6-4.26-1.4A8.68,8.68,0,0,1,35.66,29,2.48,2.48,0,0,1,35.43,27.32Z"/><path class="cls-4" d="M30.89,27.71c.9,4.15,6.24,11.61,15.16,12.95,11.13,1.68,19.47-1.53,22.54-5.47s5.46-11.31.86-15.25a16.38,16.38,0,0,1-1.78.34c1.25,0-.73,5.11-1.19,5.9-.81,1.35-4.12,6.35-6.76,5.29-.33-.46-.72-.87-1.06-1.32-.7-.95-1.38-1.93-2.14-2.83a29,29,0,0,1-2.34-3c-.42-.65-.87-1.24-1.26-1.89a2.43,2.43,0,0,1,.44-1.76,2.53,2.53,0,0,1,1.22-.87c-2.75-.1-4.2.06-4.7,0A7.37,7.37,0,0,1,48,19.09a1.86,1.86,0,0,1,.1.31c.2.87-.59,1.52-1.35,1.82a26.32,26.32,0,0,0-2.92.68A19.29,19.29,0,0,0,40,23.22c-.71.34-1.4.71-2.13,1a17.93,17.93,0,0,1-2,.62c-.67.18-1.35.37-2,.51l-.22,0c-2.48-1.08-.1-10,1.9-9.78,0,0,.06,0,.09,0a21,21,0,0,1-2.14-.71C31,17.16,29.84,22.82,30.89,27.71Zm15,8c0-.21.1-.41.16-.59.2-.63.43-1.26.57-1.92a13.26,13.26,0,0,1,.52-1.84c.2-.54.42-1.07.58-1.63.37-1.29.73-2.59,1-3.9.14-.62.25-1.25.43-1.85l.1-.34a5.15,5.15,0,0,1,1.87-1.14,1.94,1.94,0,0,1,1.62.35c.29.55.77,1.06,1.07,1.53a22.79,22.79,0,0,0,2.13,2.76c.87,1,1.64,2.08,2.42,3.15.31.43.74.85,1,1.3.48,3-5.29,4.36-6.94,4.7C51.51,36.53,47,37.52,45.84,35.76Zm-12-9.93.81-.18c.64-.16,1.28-.32,1.9-.51a24.14,24.14,0,0,0,3.54-1.54,21.22,21.22,0,0,1,3.82-1.38c.94-.25,1.91-.6,2.89-.82a2.24,2.24,0,0,1,1.31.48,3.24,3.24,0,0,1,.85,1.77c-.1.31-.22.62-.3.94-.13.57-.27,1.14-.42,1.7-.32,1.18-.6,2.38-1,3.55-.2.6-.45,1.19-.66,1.79s-.3,1.12-.45,1.69-.36,1.15-.55,1.73c-.09.26-.16.52-.25.78-1.72,1.5-7.2-1-8.62-2.51C34.4,30.94,32.39,27.28,33.8,25.83Z"/><path class="cls-5" d="M52.37,20.21a1.9,1.9,0,0,0-.25.89c0,.1,0,.13-.06.13h-.2l-.34,0c-.86-.05-1.83-.07-2.18.77a1.74,1.74,0,0,0-1.05-1,2.47,2.47,0,0,0,1-1.26,2.72,2.72,0,0,0,.61.15c.37,0,1.25,0,2.8,0A1.53,1.53,0,0,0,52.37,20.21Z"/><path class="cls-6" d="M69.45,19.94c.09,8.25-6.52,14.39-13,16.79C50.33,39,40.52,38.79,35.5,34.23,30.32,29.54,29.36,20,34,15.06a5,5,0,0,1-.51-.2c-2.49,2.3-3.64,8-2.59,12.85.9,4.15,6.24,11.61,15.16,12.95,11.13,1.68,19.47-1.53,22.54-5.47S74.05,23.88,69.45,19.94Z"/><path class="cls-7" d="M69.89,20.35a5.66,5.66,0,0,1-.06,3.26,18,18,0,0,1-1.35,3.76,18.76,18.76,0,0,1-6,7.18,22.4,22.4,0,0,1-9.83,4.09c-7,.87-11.13.36-15.65-2a17.64,17.64,0,0,1-6.1-8.9c-1.05-4.89.1-10.55,2.59-12.85a5,5,0,0,0,.51.2c-4.63,5-3.67,14.48,1.51,19.17,5,4.56,14.83,4.73,20.91,2.5,6.52-2.4,13.13-8.54,13-16.79Z"/><path class="cls-7" d="M69.08,31.72a.61.61,0,0,1,.74-.09.24.24,0,0,1,.06.36.48.48,0,0,1-.08.38.69.69,0,0,1-.74.29.26.26,0,0,1-.19-.19A.86.86,0,0,1,69.08,31.72Z"/><path class="cls-7" d="M68.45,29.46A.76.76,0,0,1,69,29a.19.19,0,0,1,.23.13.59.59,0,0,1,0,.27v0a.74.74,0,0,1-.26.59.23.23,0,0,1-.26,0A.49.49,0,0,1,68.45,29.46Z"/><path class="cls-7" d="M64.84,36.84a.13.13,0,0,1,.07.14.23.23,0,0,1,.08.17c0,.55-.54.69-1,.59a.21.21,0,0,1-.17-.22A.69.69,0,0,1,64.84,36.84Z"/><path class="cls-7" d="M59.64,37.47a.41.41,0,0,1,.31,0h0a.5.5,0,0,1,.39.29.21.21,0,0,1-.07.28,1.2,1.2,0,0,1-.85.12c-.08,0-.13-.1-.14-.18A.53.53,0,0,1,59.64,37.47Z"/><path class="cls-7" d="M56.22,39.6a.61.61,0,0,1,.65.24.11.11,0,0,1,0,0l.07,0a.21.21,0,0,1,0,.29,1.35,1.35,0,0,1-1,.18.21.21,0,0,1-.2-.21A.58.58,0,0,1,56.22,39.6Z"/><path class="cls-7" d="M52.74,39.44s0,0,0,0l.08-.07A.31.31,0,0,1,53,39.3a.37.37,0,0,1,.37.12.22.22,0,0,1,0,.34l-.22.09a1.09,1.09,0,0,1-.25,0,.19.19,0,0,1-.19-.2A.22.22,0,0,1,52.74,39.44Z"/><path class="cls-7" d="M51.53,40.38a.16.16,0,0,1,.11-.05v0h0a.23.23,0,1,1,.3.35.29.29,0,0,1-.34.06.21.21,0,0,1-.08-.34Z"/><path class="cls-7" d="M70.55,26a.22.22,0,0,1,.23.09.54.54,0,0,1,0,.11h0a.17.17,0,0,1,.18.14.72.72,0,0,1-.15.78c-.18.13-.42,0-.57-.11A.7.7,0,0,1,70,26.5.56.56,0,0,1,70.55,26Z"/><path class="cls-7" d="M67.54,33a.56.56,0,0,1,.09-.21.82.82,0,0,1,.41-.28c.14-.05.25.08.27.21a.48.48,0,0,1,0,.12.17.17,0,0,1-.08.16.39.39,0,0,1-.09.28.47.47,0,0,1-.41.13.2.2,0,0,1-.19-.2A.5.5,0,0,1,67.54,33Z"/><path class="cls-7" d="M47.21,39.65a1,1,0,0,1,.38,0,.45.45,0,0,1,.35.29.2.2,0,0,1-.12.29c-.34.09-.8,0-.8-.43A.19.19,0,0,1,47.21,39.65Z"/><path class="cls-8" d="M55,21.67c.19.77,1.44,2.43,2.14,1.41S55.67,21.67,55,21.67Z"/><path class="cls-9" d="M55.54,20.71c.57-.31,2.69-.51,2.64.35S56.06,21.19,55.54,20.71Z"/><path class="cls-3" d="M58.07,22.5c.41.93,2.33,1.95,2.72,1.06C61.32,22.32,58.87,22.34,58.07,22.5Z"/><path class="cls-9" d="M56.82,24.1c.13.8,1.57,2.79,2.46,1.82S57.81,24.13,56.82,24.1Z"/><path class="cls-8" d="M59.09,21.35c1.12-.57,3.13-.29,2.85.54S59.86,22,59.09,21.35Z"/><path class="cls-8" d="M62.58,21.32c.89-.58,2.84-.43,2.84.19C65.42,22.5,63.31,21.89,62.58,21.32Z"/><path class="cls-9" d="M63,22.83c.65.6,2.46,1.74,2.84.63S63.79,22.55,63,22.83Z"/><path class="cls-8" d="M59.85,24.76c.26.93,1.57,2.43,2.25,1.54S61,24.79,59.85,24.76Z"/><path class="cls-3" d="M59.08,27c.07.9,1.49,2.3,2,1.68C61.94,27.74,60,27,59.08,27Z"/><path class="cls-3" d="M61.86,23.92c.36.79,1.78,1.84,2.32,1.24C64.94,24.3,62.47,23.91,61.86,23.92Z"/><path class="cls-9" d="M50.38,24.29c-.43.67-.77,2.72.46,2.52C51.91,26.64,50.82,24.75,50.38,24.29Z"/><path class="cls-8" d="M51.52,24c.62.2,2.22,1.59,1.57,2.15S51.54,24.7,51.52,24Z"/><path class="cls-3" d="M51.66,27.36c-.43.92,0,3,1,2.75C53.91,29.71,52.3,27.86,51.66,27.36Z"/><path class="cls-8" d="M50,27.38c-.56.59-1.28,2.93,0,3.06S50.55,28.19,50,27.38Z"/><path class="cls-9" d="M53.6,26.94c1.19.42,2.37,2.07,1.57,2.44S53.64,28,53.6,26.94Z"/><path class="cls-3" d="M54.86,30.2c0,.89.43,3,1.5,2.5S55.6,30.57,54.86,30.2Z"/><path class="cls-9" d="M51.24,30.27c-.49.83-.68,2.8.43,2.68S52,31.13,51.24,30.27Z"/><path class="cls-3" d="M49,30.86c-.66.62-.87,2.6-.06,2.63C50.25,33.53,49.66,31.56,49,30.86Z"/><path class="cls-8" d="M53.47,31.06c-.35.8-.19,2.56.63,2.55C55.24,33.61,53.88,31.51,53.47,31.06Z"/><path class="cls-8" d="M46.21,22.75c-.79,0-2.66,1-1.79,1.84S46.08,23.38,46.21,22.75Z"/><path class="cls-9" d="M47.14,23.35c.19.62,0,2.74-.84,2.53S46.57,23.78,47.14,23.35Z"/><path class="cls-3" d="M44.39,26c-1,.18-2.46,1.79-1.68,2.38C43.79,29.22,44.35,26.84,44.39,26Z"/><path class="cls-3" d="M39.36,28c-1-.17-2.64.83-2.1,1.64C38,30.76,39.24,28.93,39.36,28Z"/><path class="cls-9" d="M43.65,24.22c-.8-.11-3.13.67-2.48,1.81S43.32,25.16,43.65,24.22Z"/><path class="cls-8" d="M45.76,26.66c.35,1.21-.31,3.13-1.08,2.69S45,27.29,45.76,26.66Z"/><path class="cls-3" d="M43.9,29.8c-.71.53-2.18,2.09-1.16,2.67S44,30.61,43.9,29.8Z"/><path class="cls-8" d="M41.94,27.15c-1,.08-2.68,1.08-1.94,1.91S41.69,28.29,41.94,27.15Z"/><path class="cls-3" d="M40.17,25.47c-.89-.18-2.62.8-2.17,1.48C38.7,28,40,26.39,40.17,25.47Z"/><path class="cls-9" d="M42.13,29.72c-.85.18-2.54,1.29-1.71,2S42.34,30.59,42.13,29.72Z"/><path class="cls-9" d="M45.91,19.17c-.4.51-2.35,1-2.64.17S45.25,18.94,45.91,19.17Z"/><path class="cls-3" d="M42.6,18.58C42,17.74,40,17.07,39.74,18,39.44,19.33,41.84,18.87,42.6,18.58Z"/><path class="cls-8" d="M42.11,19.82c-.82,1-2.85,1.23-2.9.35S41.14,19.49,42.11,19.82Z"/><path class="cls-3" d="M38.28,21.16c-.83-.3-3.29-.7-3,.57C35.57,22.79,37.68,21.72,38.28,21.16Z"/><path class="cls-8" d="M39.14,18.22c-.6-.76-2.24-1.92-2.66-.89C36.14,18.19,38.05,18.64,39.14,18.22Z"/><path class="cls-9" d="M38.06,19.4c-.63-.61-2.69-1.21-2.82-.12S37.44,20.06,38.06,19.4Z"/><path class="cls-2" d="M44.46,19.94c-5.28,1.25-10.45.18-12.95,0-4-.28-6,0-6.62-.09-.86-.1-1.22-.56-2.49-1-1.53-.48-12.76-3.45-13.91-4-2.49,2.3-3.64,8-2.59,12.85.9,4.15,6.24,11.61,15.16,12.95,11.13,1.68,19.47-1.53,22.54-5.47S49.06,23.88,44.46,19.94Z"/><path class="cls-3" d="M5.9,27.71c.9,4.15,6.24,11.61,15.16,12.95,11.13,1.68,19.47-1.53,22.54-5.47s5.46-11.31.86-15.25a20.73,20.73,0,0,1-3.16.5c1.62.53.06,3.55-.49,4.39a29.6,29.6,0,0,1-1.66,2.91c-.69.83-2.1,2.53-3.29,2.47-.66,0-1.59-1.26-2-1.7a31.61,31.61,0,0,1-2-2.62,33.92,33.92,0,0,1-2.34-3.43c-.7-1,.32-2.11,1.19-2.49l.18-.07c-3.57-.21-5.37,0-5.94,0-.86-.1-1.22-.56-2.49-1l-.49-.14a1,1,0,0,1-.05.44,1.73,1.73,0,0,1-1.29,1c-2,.59-4.11.92-6.07,1.68-.88.34-1.74.74-2.65,1a3.71,3.71,0,0,1-2.18.18c-.41-.15-.4-.63-.39-1a10.37,10.37,0,0,1,.25-2.55,5.14,5.14,0,0,1,2-3.15,3,3,0,0,1,.75-.36c-1.91-.55-3.43-1-3.82-1.21C6,17.16,4.85,22.82,5.9,27.71Zm16.89,5.36c.08-1,.4-2,.56-3a27.38,27.38,0,0,1,.64-3,15.28,15.28,0,0,1,1-3,2,2,0,0,1,2.14-.45,38.06,38.06,0,0,1,3.26,3.65,7.66,7.66,0,0,1,1.88,4.65,2.19,2.19,0,0,1-.86,1.76,6.9,6.9,0,0,1-1.93.77,11.84,11.84,0,0,1-4.85.75,2,2,0,0,1-1.53-.6A2.22,2.22,0,0,1,22.79,33.07ZM10.44,27.32a1.81,1.81,0,0,1,.9-1,44.09,44.09,0,0,1,5-2.2c.94-.32,2.15-.83,3.06-1.21s2.43-.93,3-.44A2.14,2.14,0,0,1,23,24.57a14,14,0,0,1-1.15,3.33c-.39.87-.86,1.69-1.29,2.54a16.25,16.25,0,0,1-1.1,1.95,2.94,2.94,0,0,1-1.37,1.24c-1.5.45-3.07-.6-4.26-1.4A8.68,8.68,0,0,1,10.67,29,2.48,2.48,0,0,1,10.44,27.32Z"/><path class="cls-4" d="M5.9,27.71c.9,4.15,6.24,11.61,15.16,12.95,11.13,1.68,19.47-1.53,22.54-5.47s5.46-11.31.86-15.25a16.38,16.38,0,0,1-1.78.34c1.25,0-.73,5.11-1.19,5.9-.81,1.35-4.12,6.35-6.76,5.29-.33-.46-.72-.87-1.06-1.32-.7-.95-1.38-1.93-2.14-2.83a29,29,0,0,1-2.34-3c-.42-.65-.87-1.24-1.26-1.89a2.43,2.43,0,0,1,.44-1.76,2.49,2.49,0,0,1,1.22-.87c-2.76-.1-4.2.06-4.7,0A7.24,7.24,0,0,1,23,19.09a1.86,1.86,0,0,1,.1.31c.2.87-.59,1.52-1.35,1.82a26.32,26.32,0,0,0-2.92.68A19.29,19.29,0,0,0,15,23.22c-.71.34-1.4.71-2.13,1a17.93,17.93,0,0,1-2,.62c-.67.18-1.35.37-2,.51l-.22,0c-2.48-1.08-.1-10,1.9-9.78,0,0,.06,0,.09,0a21,21,0,0,1-2.14-.71C6,17.16,4.85,22.82,5.9,27.71Zm15,8c0-.21.1-.41.16-.59.2-.63.43-1.26.57-1.92a13.26,13.26,0,0,1,.52-1.84c.2-.54.42-1.07.58-1.63.37-1.29.73-2.59,1-3.9.14-.62.24-1.25.43-1.85l.1-.34a5.07,5.07,0,0,1,1.87-1.14,1.94,1.94,0,0,1,1.62.35c.29.55.77,1.06,1.07,1.53a22.79,22.79,0,0,0,2.13,2.76c.86,1,1.64,2.08,2.41,3.15.32.43.75.85,1,1.3.49,3-5.28,4.36-6.94,4.7C26.52,36.53,22,37.52,20.85,35.76Zm-12-9.93.81-.18c.64-.16,1.28-.32,1.9-.51a24.14,24.14,0,0,0,3.54-1.54,21.22,21.22,0,0,1,3.82-1.38c.94-.25,1.91-.6,2.89-.82a2.24,2.24,0,0,1,1.31.48,3.24,3.24,0,0,1,.85,1.77c-.1.31-.22.62-.3.94-.14.57-.27,1.14-.42,1.7-.32,1.18-.6,2.38-1,3.55-.2.6-.45,1.19-.67,1.79s-.29,1.12-.44,1.69-.36,1.15-.55,1.73c-.09.26-.16.52-.25.78-1.72,1.5-7.2-1-8.62-2.51C9.41,30.94,7.4,27.28,8.81,25.83Z"/><path class="cls-5" d="M27.38,20.21a1.9,1.9,0,0,0-.25.89c0,.1,0,.13-.06.13h-.2l-.34,0c-.86-.05-1.83-.07-2.18.77a1.74,1.74,0,0,0-1.05-1,2.47,2.47,0,0,0,1-1.26,2.72,2.72,0,0,0,.61.15c.37,0,1.25,0,2.8,0A1.53,1.53,0,0,0,27.38,20.21Z"/><path class="cls-6" d="M44.46,19.94c.09,8.25-6.52,14.39-13,16.79-6.08,2.23-15.9,2.06-20.91-2.5C5.33,29.54,4.37,20,9,15.06a5,5,0,0,1-.51-.2c-2.49,2.3-3.64,8-2.59,12.85.9,4.15,6.24,11.61,15.16,12.95,11.13,1.68,19.47-1.53,22.54-5.47S49.06,23.88,44.46,19.94Z"/><path class="cls-7" d="M44.9,20.35a5.66,5.66,0,0,1-.06,3.26,18,18,0,0,1-1.35,3.76,18.76,18.76,0,0,1-6,7.18,22.4,22.4,0,0,1-9.83,4.09c-7,.87-11.13.36-15.65-2-3.47-2.82-5.57-6.44-6.1-8.9C4.85,22.82,6,17.16,8.49,14.86a5,5,0,0,0,.51.2c-4.63,5-3.67,14.48,1.51,19.17,5,4.56,14.83,4.73,20.91,2.5,6.52-2.4,13.13-8.54,13-16.79Z"/><path class="cls-7" d="M44.09,31.72a.61.61,0,0,1,.74-.09.24.24,0,0,1,.06.36.48.48,0,0,1-.08.38.69.69,0,0,1-.74.29.26.26,0,0,1-.19-.19A.86.86,0,0,1,44.09,31.72Z"/><path class="cls-7" d="M43.46,29.46A.76.76,0,0,1,44,29a.19.19,0,0,1,.23.13.59.59,0,0,1,0,.27v0a.77.77,0,0,1-.26.59.23.23,0,0,1-.26,0A.49.49,0,0,1,43.46,29.46Z"/><path class="cls-7" d="M39.85,36.84a.13.13,0,0,1,.07.14.23.23,0,0,1,.08.17c0,.55-.54.69-1,.59a.22.22,0,0,1-.16-.22A.69.69,0,0,1,39.85,36.84Z"/><path class="cls-7" d="M34.65,37.47a.41.41,0,0,1,.31,0h0a.5.5,0,0,1,.4.29.21.21,0,0,1-.07.28,1.2,1.2,0,0,1-.85.12c-.08,0-.13-.1-.14-.18A.53.53,0,0,1,34.65,37.47Z"/><path class="cls-7" d="M31.23,39.6a.61.61,0,0,1,.65.24.11.11,0,0,1,0,0l.07,0a.21.21,0,0,1,0,.29,1.35,1.35,0,0,1-1,.18.21.21,0,0,1-.2-.21A.58.58,0,0,1,31.23,39.6Z"/><path class="cls-7" d="M27.75,39.44h0l.09-.07A.31.31,0,0,1,28,39.3a.38.38,0,0,1,.37.12.22.22,0,0,1,0,.34l-.22.09a1.09,1.09,0,0,1-.25,0,.19.19,0,0,1-.19-.2A.22.22,0,0,1,27.75,39.44Z"/><path class="cls-7" d="M26.54,40.38a.16.16,0,0,1,.11-.05v0h0a.23.23,0,1,1,.3.35.29.29,0,0,1-.34.06.21.21,0,0,1-.08-.34Z"/><path class="cls-7" d="M45.56,26a.22.22,0,0,1,.23.09.54.54,0,0,1,.05.11h0a.17.17,0,0,1,.18.14.72.72,0,0,1-.15.78c-.18.13-.42,0-.58-.11A.73.73,0,0,1,45,26.5.55.55,0,0,1,45.56,26Z"/><path class="cls-7" d="M42.55,33a.56.56,0,0,1,.09-.21.82.82,0,0,1,.41-.28c.14-.05.25.08.27.21v.12a.17.17,0,0,1-.08.16.39.39,0,0,1-.09.28.48.48,0,0,1-.41.13.2.2,0,0,1-.19-.2A.5.5,0,0,1,42.55,33Z"/><path class="cls-7" d="M22.22,39.65a1,1,0,0,1,.38,0A.45.45,0,0,1,23,40a.2.2,0,0,1-.12.29c-.34.09-.81,0-.8-.43A.18.18,0,0,1,22.22,39.65Z"/><path class="cls-8" d="M30,21.67c.19.77,1.44,2.43,2.14,1.41S30.68,21.67,30,21.67Z"/><path class="cls-3" d="M33.08,22.5c.41.93,2.33,1.95,2.71,1.06C36.33,22.32,33.88,22.34,33.08,22.5Z"/><path class="cls-8" d="M34.1,21.35c1.12-.57,3.13-.29,2.85.54S34.87,22,34.1,21.35Z"/><path class="cls-8" d="M37.58,21.32c.9-.58,2.85-.43,2.85.19C40.43,22.5,38.32,21.89,37.58,21.32Z"/><path class="cls-8" d="M34.86,24.76c.26.93,1.57,2.43,2.25,1.54S36,24.79,34.86,24.76Z"/><path class="cls-3" d="M34.09,27c.07.9,1.49,2.3,2,1.68C37,27.74,35,27,34.09,27Z"/><path class="cls-3" d="M36.87,23.92c.36.79,1.78,1.84,2.32,1.24C40,24.3,37.48,23.91,36.87,23.92Z"/><path class="cls-8" d="M26.53,24c.62.2,2.22,1.59,1.57,2.15S26.55,24.7,26.53,24Z"/><path class="cls-3" d="M26.67,27.36c-.43.92,0,3,1,2.75C28.92,29.71,27.31,27.86,26.67,27.36Z"/><path class="cls-8" d="M25,27.38c-.56.59-1.28,2.93,0,3.06S25.56,28.19,25,27.38Z"/><path class="cls-3" d="M29.87,30.2c0,.89.43,3,1.5,2.5S30.6,30.57,29.87,30.2Z"/><path class="cls-3" d="M24,30.86c-.66.62-.87,2.6-.06,2.63C25.26,33.53,24.67,31.56,24,30.86Z"/><path class="cls-8" d="M28.48,31.06c-.35.8-.19,2.56.63,2.55C30.25,33.61,28.89,31.51,28.48,31.06Z"/><path class="cls-8" d="M21.21,22.75c-.79,0-2.65,1-1.78,1.84S21.09,23.38,21.21,22.75Z"/><path class="cls-3" d="M19.4,26c-1,.18-2.46,1.79-1.68,2.38C18.8,29.22,19.36,26.84,19.4,26Z"/><path class="cls-3" d="M14.37,28c-1-.17-2.64.83-2.1,1.64C13,30.76,14.25,28.93,14.37,28Z"/><path class="cls-8" d="M20.77,26.66c.35,1.21-.31,3.13-1.08,2.69S20,27.29,20.77,26.66Z"/><path class="cls-3" d="M18.91,29.8c-.72.53-2.18,2.09-1.16,2.67S19,30.61,18.91,29.8Z"/><path class="cls-8" d="M17,27.15c-1,.08-2.68,1.08-1.94,1.91S16.7,28.29,17,27.15Z"/><path class="cls-3" d="M15.18,25.47c-.89-.18-2.62.8-2.18,1.48C13.71,28,15,26.39,15.18,25.47Z"/><path class="cls-3" d="M17.61,18.58C17,17.74,15,17.07,14.75,18,14.44,19.33,16.85,18.87,17.61,18.58Z"/><path class="cls-8" d="M17.11,19.82c-.81,1-2.84,1.23-2.89.35S16.15,19.49,17.11,19.82Z"/><path class="cls-3" d="M13.29,21.16c-.83-.3-3.29-.7-3,.57C10.58,22.79,12.69,21.72,13.29,21.16Z"/><path class="cls-8" d="M14.15,18.22c-.6-.76-2.24-1.92-2.66-.89C11.15,18.19,13.06,18.64,14.15,18.22Z"/><ellipse class="cls-1" cx="155.73" cy="38.96" rx="25.57" ry="4.26"/><path class="cls-2" d="M159.17,1.74C149.65-.38,139.42.69,135.6,8c-4.84,8.92-1.34,17.07,15.26,22.51,13.24,4.31,26.91,2,27.83-9.92C179.4,11.45,169.16,4,159.17,1.74Z"/><path class="cls-3" d="M136.43,21.29c5.33,6.87,16.78,10.6,26.08,10.72s17.06-5,15.64-14.17C177,8.78,166.92,3.93,159.6,2.17s-19.29-2.76-23.32,6C133.43,14.2,133.4,17.14,136.43,21.29ZM156,9.77c-.12,1.56-.57,2-1.7.62-1-1.18-1.83-2.42-2.79-3.58-.52-.63-4-3.71-1.53-4.11a13.69,13.69,0,0,1,3.56.16,17.61,17.61,0,0,1,2,.46c1.3,1.35.6,4.83.48,6.45C156,10.19,156.08,9.29,156,9.77Zm16.64.61c2.5,3.24-4.19,2.52-5.88,2.73-2,.23-8.18.83-7.6-.1s3.05-2.43,3.9-3.06a27.2,27.2,0,0,1,3.43-2.23C168.73,6.52,171.82,9.24,172.68,10.38Zm2.92,9.27c-1.17,2.38-6.89-.93-8.8-1.61a46.38,46.38,0,0,1-4.91-1.94c-1.64-.82-.44-1.06.54-1.07,3.52,0,6.91-.43,10.39-.23,1,0,2.59.1,3.05,1.37a4.58,4.58,0,0,1-.27,3.48C175.12,20.63,176.05,18.7,175.6,19.65ZM165,24.05c-1.08-1.44-2.15-2.67-3.32-4-.56-.64-2.31-2.49-1.95-3.45s7.48,3.09,8.34,3.47c1.67.73,3.88,1.32,5.35,2.49,1.26,1,0,2.22-.75,2.83a7,7,0,0,1-4.2,1.62c-1.88,0-2.64-1.71-3.47-3C164.51,23.31,165.41,24.62,165,24.05Zm-11-.08c.15-.64,2.5-7.71,3.35-7.06,1.7,1.28,2.14,3.92,3.22,5.65.65,1,2.43,2.63,2.54,3.79s-2,1.2-3,1.14c-2.85-.17-6.89-.15-6.14-3.52C154.21,22.73,153.81,24.54,153.93,24ZM159.47,3.3c.95.09,5.82,1.29,4.82,2.69a8.37,8.37,0,0,1-2.23,2.09,8.76,8.76,0,0,0-2.27,2.43c-.42.59-1.91,2-2.28.81a13.41,13.41,0,0,1-.08-4C157.51,6.72,156.9,3.07,159.47,3.3ZM142.66,21.77c-2.89-2.53,1.16-4.1,3.58-4.59,1.63-.33,3.29-.47,4.91-.75.92-.17,2.46-.95,3.37-.7,0,0-.28-.3,0-.19,1.49.72-2.91,6.39-3.52,7.17-1,1.26-2,2.42-4,1.73a14.5,14.5,0,0,1-4.29-2.67C141.83,21,143.22,22.25,142.66,21.77Zm-4.62-10c.83-3.6,5.92-1.05,8.2-.32,1.83.59,3.63,1.29,5.48,1.86-.16,0,2,.52,1.69.76-.62.53-2.62.53-3.52.59a52.18,52.18,0,0,0-5.81.66c-1.28.22-4.22,1.33-5.33.37s-1-2.73-.71-3.92C138.16,11.2,137.87,12.46,138,11.75ZM140,7.86c-1.67-.77,1.42-2.43,2.06-2.7,1.27-.56,3-1.19,4.37-.81s2.52,2.21,3.53,3.17,2.44,2.47,3.49,3.62,1.64,2.17-.6,1.31c-1.43-.54-2.8-1.24-4.2-1.84A40.31,40.31,0,0,0,144.2,9,32.1,32.1,0,0,1,140,7.86Z"/><path class="cls-4" d="M150.86,30.49c13.24,4.31,26.91,2,27.83-9.92.71-9.12-9.53-16.61-19.52-18.83C149.65-.38,139.42.69,135.6,8,130.76,16.9,134.26,25.05,150.86,30.49ZM142.06,4c1.73-.69,3.7-1.58,5-.91.18.24.39.47.57.7.38.46.78.91,1.19,1.35.8.85,1.67,1.65,2.48,2.51a30.92,30.92,0,0,1,2.32,2.77c.58.76,1.11,1.57,1.69,2.34,0,.45-.77.54-1.32.48-1.16-.49-2.37-.88-3.55-1.29l-4.26-1.51c-1.46-.51-2.9-1.06-4.38-1.52l-2.17-.66c-.45-.14-.92-.34-1.39-.46C137.37,7.22,140.7,4.54,142.06,4Zm14.53-.63a13.31,13.31,0,0,1,.06,1.9c-.05.81-.11,1.6-.13,2.41a21.7,21.7,0,0,0,.31,5,.68.68,0,0,1-.41.3,1.07,1.07,0,0,1-.74-.13c-.58-1-1.28-1.86-1.93-2.74a24.77,24.77,0,0,0-2.21-2.68c-.81-.86-1.68-1.65-2.46-2.52-.4-.45-.79-.9-1.16-1.37-.15-.2-.29-.41-.43-.61-.48-.87,2.83-.86,4.47-.8C153,2.19,155.79,2,156.59,3.38Zm9.47,2.4c-.64.6-1.23,1.26-1.93,1.82s-1.57,1.09-2.31,1.7a25.17,25.17,0,0,0-2.1,1.9A24,24,0,0,0,158,13a1.23,1.23,0,0,1-1-.46,38.54,38.54,0,0,1-.16-5.15c0-.84.12-1.68.14-2.52,0-.42,0-.79,0-1.3-.05-1.18,2.34-.85,4.14-.5C162,3.2,166.87,4.65,166.06,5.78ZM174.72,13a11.5,11.5,0,0,0-2.17.47,19.42,19.42,0,0,1-4.21.57c-1.6.08-3.21.19-4.83.22-1.46,0-2.93,0-4.39,0-.52-.13-1.34-.38-.93-1.24.71-.57,1.31-1.27,2-1.89a20.81,20.81,0,0,1,2.15-1.85c.78-.58,1.6-1.08,2.35-1.67a12,12,0,0,0,1.62-1.49c1.07-.91,3.16.63,5,2.17C172.05,9,175.91,12.45,174.72,13Zm.5,9.27a26.58,26.58,0,0,0-2.67-1.21q-2.4-.94-4.75-2c-1.49-.67-3-1.28-4.49-1.92a28.07,28.07,0,0,0-3.89-1.63,1.61,1.61,0,0,1-.58-.61c-.1-.21.13-.36.35-.45,1.51.11,3,.08,4.52.07s3.11-.1,4.65-.17a19,19,0,0,0,4-.48c.89-.23,2-.41,2.72-.54S177,15.7,177,17.7C177.07,19.28,176.44,23,175.22,22.27Zm-3.31,5.16c-1.15.54-4.58,2.32-5.45.83-.39-.58-.75-1.17-1.11-1.76a38.6,38.6,0,0,0-2.51-3.36c-.88-1.19-1.72-2.38-2.54-3.58s-1.41-2.19-2.14-3.25a.43.43,0,0,1,.2-.53,1.7,1.7,0,0,1,.86-.16c1.38.49,2.67,1.2,4,1.79,1.6.68,3.21,1.32,4.79,2.07s2.95,1.35,4.45,2a29.11,29.11,0,0,1,2.69,1.45C176.39,23.44,173,26.91,171.91,27.43Zm-20.62-.57c.13-.29.25-.59.4-.87.22-.44.44-.88.62-1.33a31.51,31.51,0,0,1,1.31-3.25,38.41,38.41,0,0,0,2.4-5.12,2.31,2.31,0,0,1,2,.23,52.7,52.7,0,0,0,4.44,6.79c.84,1.12,1.8,2.16,2.53,3.36.32.52.66,1,1,1.56.67,1.2-5.65.91-6.79.83C158.24,29,150.74,28.08,151.29,26.86Zm-12.34-9c.72-.26,1.55-.39,2.24-.57,1.47-.4,3-.7,4.46-1,2.74-.56,5.5-.88,8.2-1.35a2,2,0,0,1,2,1.24C155,18,154,19.72,153.09,21.52c-.49,1-.8,2-1.21,3-.24.58-1,2-1.07,2.22-.59,1-6.52-2.45-8.25-3.75S137.11,18.75,139,17.84Zm-.82-9.52c.49.16,1.05.24,1.54.37.74.19,1.47.39,2.2.62,1.41.44,2.8,1,4.2,1.45l4.29,1.46c1.21.41,2.41.88,3.64,1.25a1,1,0,0,1,0,1.27c-3,.4-6,.84-9,1.34-1.49.24-2.94.55-4.41.89a12.23,12.23,0,0,0-1.88.51c-1.28.22-2.31-3.78-2.37-4.76S136.9,8,138.13,8.32Z"/><path class="cls-6" d="M153.6,29.13c-11.35-2.42-22.27-11.47-18-21.15-4.84,8.92-5.3,25.17,12.7,31,16,5.21,28.78-5,30.39-18.45C175.29,30.15,165.52,31.68,153.6,29.13Z"/><path class="cls-7" d="M153.6,29.13c-11.35-2.42-22.27-11.47-18-21.15-4.84,8.92,1.61,20.46,15.49,24.56,11.87,3.51,26.26,0,27.6-12C175.29,30.15,165.52,31.68,153.6,29.13Z"/><path class="cls-10" d="M149.38,35.87c9.9,3.56,20.24.18,25.48-5-5.22,7.65-15.05,11.89-26.56,8.15-13.09-4.27-16.42-14-15.4-22.46C134.28,25.17,138.14,31.82,149.38,35.87Z"/><path class="cls-5" d="M158.56,14.61a1,1,0,0,1-.78-.39.79.79,0,0,1-.05-.81,1.36,1.36,0,0,1-.45,0,.49.49,0,0,1-.34-.27.81.81,0,0,1-1.17.13.55.55,0,0,1-.5.34,1.8,1.8,0,0,1-.65-.1.58.58,0,0,1,0,1,1.42,1.42,0,0,1,1.44,1.3,1,1,0,0,1,.85-.14,3,3,0,0,1,.84.36.42.42,0,0,1,.15-.61,1.1,1.1,0,0,1,.74-.06.52.52,0,0,1-.29-.36A.35.35,0,0,1,158.56,14.61Z"/><path class="cls-3" d="M166.42,15.57c.69.64,3,1.26,3,.33S166.85,15.36,166.42,15.57Z"/><path class="cls-9" d="M160.25,17.09c.27.86,1.68,2.77,2.38,2.16S160.75,17.2,160.25,17.09Z"/><path class="cls-3" d="M165.62,23.32c.25,1.16,1.41,3,2.3,2.38S166.49,23.61,165.62,23.32Z"/><path class="cls-8" d="M166.1,19.88c.41,1.1,2,2.81,2.71,1.89C169.33,21,167.16,20,166.1,19.88Z"/><path class="cls-3" d="M163.45,18.42c.28.87,1.25,2.37,1.94,1.76S164,18.53,163.45,18.42Z"/><path class="cls-3" d="M169.13,23.11c.34,1.17,1.81,2.7,2.49,2.08S169.64,23.23,169.13,23.11Z"/><path class="cls-8" d="M169.61,21.67c.79,1.33,2.52,2.42,3,1.66S170.75,21.59,169.61,21.67Z"/><path class="cls-8" d="M169.15,16.91c.77.57,2.45,1.28,2.51.35S169.57,16.71,169.15,16.91Z"/><path class="cls-9" d="M166.06,21.56c.35,1,1.51,2.74,2.3,2S166.64,21.7,166.06,21.56Z"/><path class="cls-9" d="M165.9,16.73c.4,1,2.73,2,3,1.1S166.38,16.64,165.9,16.73Z"/><path class="cls-8" d="M163.18,20.14c0,.8,1.1,2.95,1.95,2.29S163.68,20.28,163.18,20.14Z"/><path class="cls-3" d="M157.13,17.4c-.54.68-.92,2.54.11,2.57S157.43,17.79,157.13,17.4Z"/><path class="cls-9" d="M156.21,19.47c-.59.67-1.66,2.31-.64,2.52S156.44,19.91,156.21,19.47Z"/><path class="cls-3" d="M162.45,15.61c1,.79,3,1.57,3.12.51S163.23,15.31,162.45,15.61Z"/><path class="cls-8" d="M160.05,22.83c-.41,1,0,3.27,1.26,3C162.3,25.63,160.91,23.51,160.05,22.83Z"/><path class="cls-3" d="M157.15,21c-.6.66-1.08,2.28-.05,2.49S157.71,21.61,157.15,21Z"/><path class="cls-3" d="M156.87,24.16c-.6.66-1,2.46.11,2.53S157.11,24.6,156.87,24.16Z"/><path class="cls-8" d="M169.72,18.43c.6.74,2.06,1.89,2.41,1.06S170.2,18.37,169.72,18.43Z"/><path class="cls-9" d="M158.66,23.81c-.37.92-.55,2.83.65,2.75S159.09,24.22,158.66,23.81Z"/><path class="cls-9" d="M158.48,20c-.81.6-.64,2.72.4,2.78S159.13,20.53,158.48,20Z"/><path class="cls-8" d="M155.56,22.8c-.75.4-1.84,2.37-.65,2.67C156,25.73,155.77,23.25,155.56,22.8Z"/><path class="cls-3" d="M155.39,10.59c.25-.83,0-2.72-.94-2.41S155,10.32,155.39,10.59Z"/><path class="cls-9" d="M155.71,8.27c.3-.82.69-2.73-.24-2.6S155.37,7.92,155.71,8.27Z"/><path class="cls-8" d="M151.47,5.93c.24-1.09-.22-3.15-1.29-2.64C149.31,3.7,150.6,5.44,151.47,5.93Z"/><path class="cls-3" d="M154.36,6.72c.42-.77.81-2.39-.13-2.38S154.08,6.34,154.36,6.72Z"/><path class="cls-9" d="M153,5.45c.2-1,.19-2.72-.83-2.39S152.61,5.13,153,5.45Z"/><path class="cls-9" d="M153.58,8.6c.48-.86-.31-3-1.21-2.72S153.17,8.33,153.58,8.6Z"/><path class="cls-3" d="M158.11,11.24c.76-.44,1.81-2,.92-2.37S158,10.78,158.11,11.24Z"/><path class="cls-9" d="M159.73,9.48c.78-.41,2.33-1.56,1.53-2.08S159.7,9,159.73,9.48Z"/><path class="cls-8" d="M158,6.37c.78-.78,1.83-2.54.68-2.53C158,3.84,157.8,5.5,158,6.37Z"/><path class="cls-3" d="M159.82,7.49c.78-.4,2.11-1.89,1.32-2.41S159.8,7,159.82,7.49Z"/><path class="cls-9" d="M159.41,6c.64-.65,1.39-2.15.83-2.36C159.24,3.31,159.22,5.52,159.41,6Z"/><path class="cls-9" d="M158,8.54c.63-.37,1.64-1.85.74-2.16S157.85,8.09,158,8.54Z"/><path class="cls-8" d="M161.56,7c.79-.12,2.54-1.48,1.66-2.12S161.55,6.57,161.56,7Z"/><path class="cls-3" d="M160,13c.87.33,2.85.24,2.54-.67S160.34,12.64,160,13Z"/><path class="cls-9" d="M162.16,11.33c.9,0,2.86-.26,2.36-1.09S162.35,10.91,162.16,11.33Z"/><path class="cls-9" d="M166.44,9.15c.88,0,2.57-.42,1.93-1.15S166.66,8.61,166.44,9.15Z"/><path class="cls-3" d="M148.5,17.53c-1.26.18-3.19,1.13-2.43,2S148.25,18.31,148.5,17.53Z"/><path class="cls-8" d="M152.21,18.81c-1.16.33-2.88,1.76-1.79,2.43C151.3,21.78,152.23,19.79,152.21,18.81Z"/><path class="cls-3" d="M151.61,16.77c-.92.25-2.48,1.1-1.74,1.76S151.53,17.23,151.61,16.77Z"/><path class="cls-3" d="M148.2,21.79c-1,.24-2.65,1.19-1.88,1.85S148.12,22.25,148.2,21.79Z"/><path class="cls-8" d="M150,22c-.91.34-2.38,1.34-1.53,1.93S150,22.47,150,22Z"/><path class="cls-9" d="M144.77,18.75c-1,.13-2.72.78-2.08,1.52S144.61,19.19,144.77,18.75Z"/><path class="cls-9" d="M149.67,19c-1.07.28-2.89,1.25-2,2S149.58,19.55,149.67,19Z"/><path class="cls-9" d="M154.24,16c-1,0-2.72,1.32-1.93,1.94S154.21,16.45,154.24,16Z"/><path class="cls-8" d="M146.54,20.45c-.91,0-3.28,1.21-2.39,2S146.46,20.91,146.54,20.45Z"/><path class="cls-8" d="M141.52,14.4c-.78-.48-2.66-1.28-2.79,0C138.62,15.55,140.82,14.88,141.52,14.4Z"/><path class="cls-9" d="M153.79,12.17c-.54-.72-1.94-2.16-2.4-1.34S153.29,12.24,153.79,12.17Z"/><path class="cls-9" d="M148,8.09c-.34-.7-1.32-2.11-1.85-1.45S147.57,8.08,148,8.09Z"/><path class="cls-3" d="M147.17,12.54c-1-.7-3-1.31-3.2-.26S146.37,12.9,147.17,12.54Z"/><path class="cls-8" d="M151.78,13.77c-.82-.45-2.55-.91-2.59,0S151.36,14,151.78,13.77Z"/><path class="cls-3" d="M145,14.45c-.82-.45-2.4-.86-2.48.06S144.54,14.71,145,14.45Z"/><path class="cls-3" d="M151,10c-.42-.73-1.69-1.93-2.21-1.18S150.54,10.05,151,10Z"/><path class="cls-9" d="M143.25,11.37c-.73-.53-2.3-1.34-2.51-.43S142.78,11.57,143.25,11.37Z"/><path class="cls-9" d="M148.62,13.88c-.94-.51-2.94-1-3,0S148.13,14.18,148.62,13.88Z"/><path class="cls-9" d="M141.16,12.06c-.92-.51-2.61-1.14-2.72-.09S140.65,12.35,141.16,12.06Z"/><path class="cls-8" d="M148.69,10c-.53-.87-1.62-2.17-2.23-1.26S148.12,10,148.69,10Z"/><path class="cls-8" d="M145.89,7.8c-.5-.86-1.42-2.31-2-1.41S145.06,7.92,145.89,7.8Z"/><path class="cls-3" d="M144,13.3c-.6-.57-3.11-1.27-3.18-.21S143.61,13.56,144,13.3Z"/><path class="cls-9" d="M168.15,10.55c.89.11,2.63-.38,2.2-1.26S168.2,9.69,168.15,10.55Z"/><path class="cls-8" d="M163.48,12.6c1.16.38,2.94.51,2.65-.56C165.88,11.12,164,12,163.48,12.6Z"/><path class="cls-3" d="M172.83,16.75c.78.57,2.45,1.28,2.5.35S173.25,16.55,172.83,16.75Z"/><path class="cls-3" d="M165.25,10.9c.89.09,2.55-.15,2.12-1S165.47,10.5,165.25,10.9Z"/><path class="cls-3" d="M169.92,11.51c.89.09,2.74.18,2.28-.7S170.14,11.1,169.92,11.51Z"/><path class="cls-9" d="M170,15.51c.87.66,2.77,1.49,2.84.43S170.51,15.29,170,15.51Z"/><path class="cls-8" d="M172,18c.56.64,2.76,1.87,2.95.83S172.42,17.82,172,18Z"/><path class="cls-8" d="M166.8,12.32c.73.38,3,.38,2.49-.63S167.13,12,166.8,12.32Z"/><path class="cls-11" d="M169.13,30.43a1,1,0,0,1,.24,0,.76.76,0,0,1,.26,0,.3.3,0,0,1,.21.28.63.63,0,0,1-1.2.25C168.53,30.68,168.86,30.45,169.13,30.43Z"/><path class="cls-11" d="M166.43,30.91a.36.36,0,0,1,.25-.27.33.33,0,0,1,.24.05.38.38,0,0,1,.13.09.25.25,0,0,1,.06.14.21.21,0,0,1-.1.18.79.79,0,0,1-.4,0A.18.18,0,0,1,166.43,30.91Z"/><path class="cls-11" d="M161.21,32.43a.58.58,0,0,1,.31-.22.61.61,0,0,1,.72.2.25.25,0,0,1,0,.35.66.66,0,0,1-1-.11A.22.22,0,0,1,161.21,32.43Z"/><path class="cls-11" d="M160,31.09a.35.35,0,0,1,.29-.25.27.27,0,0,1,.25.15.47.47,0,0,1,.14.14.22.22,0,0,1-.07.3.46.46,0,0,1-.48.05A.35.35,0,0,1,160,31.09Z"/><path class="cls-11" d="M158.25,31.67a.39.39,0,0,1,.4-.24.33.33,0,0,1,.29.2s0,0,0,0a.22.22,0,0,1-.09.37.78.78,0,0,1-.56-.09A.19.19,0,0,1,158.25,31.67Z"/><path class="cls-11" d="M150.89,31.48a.58.58,0,0,1,.64-.46.76.76,0,0,1,.28.09l.11,0c.26.06.52.28.45.57-.15.63-1.08.35-1.41,0A.27.27,0,0,1,150.89,31.48Z"/><path class="cls-11" d="M155,30.4a.15.15,0,0,1,.17-.07h0c.19,0,.44.06.4.3a.34.34,0,0,1-.61.14A.33.33,0,0,1,155,30.4Z"/><path class="cls-11" d="M149.38,29.61a.21.21,0,0,1,.25,0l.09.08h0a.22.22,0,0,1,.09.19.25.25,0,0,1-.13.22.23.23,0,0,1-.25,0,.26.26,0,0,1-.12-.18A.3.3,0,0,1,149.38,29.61Z"/><path class="cls-11" d="M174.37,27.62a.58.58,0,0,1,.34-.24.51.51,0,0,1,.3,0,.11.11,0,0,1,.08,0,.25.25,0,0,1,.09.34.54.54,0,0,1-.73.16A.24.24,0,0,1,174.37,27.62Z"/><path class="cls-11" d="M144.31,27.68a.41.41,0,0,1,.46.13l.06,0a.35.35,0,0,1,.15.38.36.36,0,0,1-.26.25.5.5,0,0,1-.42-.13.55.55,0,0,1-.22-.37A.33.33,0,0,1,144.31,27.68Z"/><path class="cls-11" d="M146.25,27.79a.16.16,0,0,1,.17-.07.48.48,0,0,1,.16.08.06.06,0,0,1,.06,0h0l.12,0a.22.22,0,0,1,.09.07.3.3,0,0,1,0,.37.21.21,0,0,1-.22.09.6.6,0,0,1-.34-.16A.33.33,0,0,1,146.25,27.79Z"/><path class="cls-11" d="M141.12,24.79a.34.34,0,0,1,.14,0h0a.5.5,0,0,1,.13,0,.29.29,0,0,1,.11.11.29.29,0,0,1,0,.27.21.21,0,0,1-.31,0v0l0,0-.05,0-.1-.1A.17.17,0,0,1,141.12,24.79Z"/><path class="cls-11" d="M141.43,26a.14.14,0,0,1,.21-.08l0,0a.11.11,0,0,1,.09.05h0l0,0a.23.23,0,0,1,.07.07.3.3,0,0,1,0,.1.19.19,0,0,1-.1.17.2.2,0,0,1-.2,0l0,0h0a.18.18,0,0,1-.06-.09A.33.33,0,0,1,141.43,26Z"/><path class="cls-11" d="M137.7,22.37a.38.38,0,0,1,.41,0,.24.24,0,0,1,.08.06l0,0a.39.39,0,0,1,.17.23.41.41,0,0,1-.16.48c-.23.14-.46-.06-.59-.24a.46.46,0,0,1-.09-.27A.36.36,0,0,1,137.7,22.37Z"/><path class="cls-11" d="M137.2,21.25a.24.24,0,0,1-.09-.13.08.08,0,0,0,0-.05.17.17,0,0,1,.11-.2h.05a.26.26,0,0,1,.28,0,.25.25,0,0,1,.11.25v0a.27.27,0,0,1-.08.19.21.21,0,0,1-.33,0s0-.06,0,0h0Z"/><path class="cls-11" d="M135.49,19.14l0-.06s0,0,0,0l0,0a.17.17,0,0,1,.23,0,.15.15,0,0,1,0,.11.17.17,0,0,1,0,.07.18.18,0,0,1-.18.18A.19.19,0,0,1,135.49,19.14Z"/><path class="cls-7" d="M147.55,32.06a.62.62,0,0,1,.37.16.45.45,0,0,1,.2.12.33.33,0,0,1-.14.56.6.6,0,0,1-.49-.07.57.57,0,0,1-.25-.46A.32.32,0,0,1,147.55,32.06Z"/><path class="cls-7" d="M145.06,31.46a.19.19,0,0,1,.19-.15h0l0,0h.16q-.08,0,0,0a.3.3,0,0,1,.23.19.2.2,0,0,1-.05.19.19.19,0,0,1-.1.05.1.1,0,0,1,0,0,.28.28,0,0,1-.28,0,.39.39,0,0,1-.1-.08l0,0A.2.2,0,0,1,145.06,31.46Z"/><path class="cls-7" d="M140.74,30a.59.59,0,0,1,.8-.06.49.49,0,0,1,.11.28s0,0,0,.05a.49.49,0,0,1,0,.24.37.37,0,0,1-.09.16.41.41,0,0,1-.26.11.79.79,0,0,1-.58-.16.44.44,0,0,1-.13-.31A.46.46,0,0,1,140.74,30Z"/><path class="cls-7" d="M139.2,27.59v0l0,.06a.26.26,0,0,0,.15.12.23.23,0,0,0,.25-.11.16.16,0,0,0,0-.08s0-.05,0-.07a.3.3,0,0,0-.15-.26.26.26,0,0,0-.29,0A.24.24,0,0,0,139.2,27.59Z"/><polygon class="cls-7" points="139.6 27.4 139.6 27.39 139.6 27.39 139.6 27.4 139.6 27.4"/><path class="cls-7" d="M139.77,29a.26.26,0,0,1,.35-.1,1.06,1.06,0,0,1,.21.16l0,0,.1.07a.31.31,0,0,1,0,.46.37.37,0,0,1-.38.07.4.4,0,0,1-.22-.14A.5.5,0,0,1,139.77,29Z"/><path class="cls-7" d="M137.1,24.6a.6.6,0,0,1,.14.26.34.34,0,0,1,0,.17.29.29,0,0,1-.14.26.36.36,0,0,1-.45-.05.59.59,0,0,1-.13-.42A.31.31,0,0,1,137.1,24.6Z"/><path class="cls-7" d="M153.42,34a.77.77,0,0,1,.45,0,.48.48,0,0,1,.29.17.42.42,0,0,1,.19.16.46.46,0,0,1-.29.64.66.66,0,0,1-.48,0,.55.55,0,0,1-.42-.49A.47.47,0,0,1,153.42,34Z"/><path class="cls-7" d="M151.86,34.65a.38.38,0,0,1,.39-.09l.11,0a.29.29,0,0,1,.21.28.34.34,0,0,1-.38.33.48.48,0,0,1-.38-.21A.3.3,0,0,1,151.86,34.65Z"/><path class="cls-7" d="M160.2,34.89l.11,0a.44.44,0,0,1,.23,0,.32.32,0,0,1,.21.21.29.29,0,0,1-.08.29c-.25.25-1,.18-.94-.27A.34.34,0,0,1,160.2,34.89Z"/><path class="cls-7" d="M158.88,35.72a.29.29,0,0,1,.22-.13l.13,0h.09a.26.26,0,0,1,.18.26.29.29,0,0,1-.13.23.31.31,0,0,1-.23,0h0a.41.41,0,0,1-.22-.17A.25.25,0,0,1,158.88,35.72Z"/><path class="cls-7" d="M155.36,36.23a.25.25,0,0,1,.19-.19.42.42,0,0,1,.31,0h0a.24.24,0,0,1,.12.07h0l0,0a.25.25,0,0,1,0,.07.18.18,0,0,1,0,.16.29.29,0,0,1-.21.23.4.4,0,0,1-.42-.13A.25.25,0,0,1,155.36,36.23Z"/><path class="cls-7" d="M165.87,34a.43.43,0,0,1,.4-.22l.11,0a.33.33,0,0,1,.14,0h0a.31.31,0,0,1,.29.38.49.49,0,0,1-.39.34.63.63,0,0,1-.53-.13A.29.29,0,0,1,165.87,34Z"/><path class="cls-7" d="M165.06,34.81a.19.19,0,0,1,.18-.1h0a.15.15,0,0,1,.13,0,.22.22,0,0,1,.13.1.23.23,0,0,1,0,.18.3.3,0,0,1-.25.18.25.25,0,0,1-.22-.14A.22.22,0,0,1,165.06,34.81Z"/><path class="cls-7" d="M173.33,30.38a.33.33,0,0,1,.23-.2.25.25,0,0,1,.17,0,.23.23,0,0,1,.23.18.3.3,0,0,1-.16.33.4.4,0,0,1-.32,0,.27.27,0,0,1-.15-.11A.29.29,0,0,1,173.33,30.38Z"/><path class="cls-7" d="M172,32.21a.21.21,0,0,1,.2.26.15.15,0,0,1-.06.09l0,0a.17.17,0,0,1-.22,0h0a.13.13,0,0,1-.06-.07A.21.21,0,0,1,172,32.21Z"/></svg>