<svg id="Layer_1" data-name="Layer 1" xmlns="http://www.w3.org/2000/svg" viewBox="0 0 164 30"><defs><style>.cls-1{opacity:0.3;}.cls-2{fill:#f98f51;}.cls-3{fill:#fb7f43;}.cls-4{fill:#f9673b;}.cls-5{fill:#ffd426;}.cls-6{fill:#ffda47;}.cls-7{fill:#fc0;}.cls-8{fill:#ffbc00;}.cls-9{fill:#fdb400;}.cls-10{fill:#d28128;}.cls-11{fill:#c16f1e;}.cls-12{fill:#b25e18;}.cls-13{fill:#a54e13;}.cls-14{fill:#f7ab03;}.cls-15{fill:#faa61a;}.cls-16{fill:#fdc12b;}.cls-17{fill:#ff6700;}</style></defs><g class="cls-1"><ellipse cx="147" cy="27.07" rx="15" ry="2.5"/><ellipse cx="109" cy="27.07" rx="15" ry="2.5"/><path d="M70,24.57a71.49,71.49,0,0,0-10,.64,71.49,71.49,0,0,0-10-.64,73.17,73.17,0,0,0-9,.51,73.17,73.17,0,0,0-9-.51c-2.74,0-5.29.13-7.5.34-2.21-.21-4.76-.34-7.5-.34-8.28,0-15,1.12-15,2.5s6.72,2.5,15,2.5c2.74,0,5.29-.12,7.5-.33,2.21.21,4.76.33,7.5.33a73.34,73.34,0,0,0,9-.5,73.34,73.34,0,0,0,9,.5,70,70,0,0,0,10-.64,70,70,0,0,0,10,.64c8.28,0,15-1.12,15-2.5S78.28,24.57,70,24.57Z"/></g><path class="cls-2" d="M106.94,2c3.31,4.18,19.84,12,20.11,12.21.13,5.81-6,14.63-16.46,14.51-11.41-.13-19-7.56-17.82-17.54a8.34,8.34,0,0,1,5.54-3.11C103.7,7,104.45,3,106.94,2Z"/><path class="cls-3" d="M125.93,13.65c-.57.63-1.15,1.25-1.77,1.84a15.37,15.37,0,0,1-2.7,2,17.14,17.14,0,0,1-3,1.38,20.48,20.48,0,0,1-3.26.91,23.31,23.31,0,0,1-3.54.34,27.07,27.07,0,0,1-6.88-.79A25.86,25.86,0,0,1,99,17.2a31.87,31.87,0,0,1-4.12-2.57,9.4,9.4,0,0,0,1,4,16.94,16.94,0,0,0,3.75,5.15c2.13,1.92,4.8,3.78,11.61,4.92,10.06-.25,15.93-8.83,15.8-14.51C127,14.18,126.6,14,125.93,13.65Z"/><path class="cls-4" d="M101,20.51a19.51,19.51,0,0,0,9.39,4.06,13.82,13.82,0,0,0,5-.54c.83-.27,4.26-2.61,5.81-2.71a6.81,6.81,0,0,0,2.25-.36c.36-.18.36-1.26.72-1.62.53-.53,1.53-.67,2.46-2.43a10,10,0,0,0,.34-2.7s-.45-.23-1.12-.56c-.57.63-1.15,1.25-1.77,1.84a15.37,15.37,0,0,1-2.7,2,17.14,17.14,0,0,1-3,1.38,20.48,20.48,0,0,1-3.26.91,23.31,23.31,0,0,1-3.54.34,27.07,27.07,0,0,1-6.88-.79A25.86,25.86,0,0,1,99,17.2l-.86-.46A15.87,15.87,0,0,0,101,20.51Z"/><path class="cls-3" d="M107.71,6.77a6.36,6.36,0,0,1-.55-1.8c-.1-.68-.12-1.37-.23-2a5.93,5.93,0,0,0-.53.47c-.87.86-1.51,1.94-2.42,2.76a5.37,5.37,0,0,1-.7.56,7.15,7.15,0,0,1-.77.42l-.92.41h0a6.17,6.17,0,0,1,2.43,2,1,1,0,0,0,.86.44,3.33,3.33,0,0,0,.75-.2l1-.38,1-.44.51-.22.23-.1s.1,0,.09-.06a1,1,0,0,1,0-.1C108.27,7.89,108,7.34,107.71,6.77Z"/><path class="cls-4" d="M107.71,6.77a6.36,6.36,0,0,1-.55-1.8c0-.34-.08-.69-.11-1A15.25,15.25,0,0,1,106,5.47a7.89,7.89,0,0,1-2,1.79,5.37,5.37,0,0,1-1.62.64,9.15,9.15,0,0,1,1.71,1.64,1,1,0,0,0,.86.44,3.33,3.33,0,0,0,.75-.2l1-.38,1-.44.51-.22.23-.1s.1,0,.09-.06a1,1,0,0,1,0-.1C108.27,7.89,108,7.34,107.71,6.77Z"/><path class="cls-5" d="M104.65,7.74c.81-.07.88-.21,1.08-.68-.34-1.89-.33-4.19,1.28-5.26C109.24.31,113.69-1,120.17,3.69c6.81,4.92,7.62,9.44,6.61,11.67s-3,2.83-3.44,3.24-.41.88-.61,1.08-1.28.13-2.16.34c-1.43.33-3.44,2.43-7.82,3A22.81,22.81,0,0,1,98.1,19.07c-4.65-3.37-6.54-6.88-4.79-9.24S101.34,6.45,104.65,7.74Z"/><path class="cls-6" d="M98.93,11.16a6.93,6.93,0,0,0,1.62,2.57,14.05,14.05,0,0,0,2.41,2,14.27,14.27,0,0,0,6.84,2.44,13.88,13.88,0,0,0,4.11-.36,22.85,22.85,0,0,1,4.78-.77,45.64,45.64,0,0,0,0-5.6c-.26-2-1.69-6-5.26-7.78-1.06-.53-3.48-1.65-5.82-.9a3.92,3.92,0,0,0-2,1.79,9.48,9.48,0,0,0,.15,2.5c-.2.47-.27.61-1.08.68a9.6,9.6,0,0,0-3.27-.56A3.21,3.21,0,0,0,98.93,11.16Z"/><path class="cls-7" d="M124.48,7.58c.11.23.23.47.33.71a10.83,10.83,0,0,1,1,4.59,4.51,4.51,0,0,1-.44,2,3.73,3.73,0,0,1-1.42,1.5,14.6,14.6,0,0,0-1.52.79,1.25,1.25,0,0,0-.5.61,1.75,1.75,0,0,0,0,1,0,0,0,0,1,0,0,5.65,5.65,0,0,0-2.8.08,11.31,11.31,0,0,0-2.15,1,11.59,11.59,0,0,1-2.39,1,14.88,14.88,0,0,1-5.1.51,20.72,20.72,0,0,1-5.11-1,21.59,21.59,0,0,1-4.41-2,20.39,20.39,0,0,1-3.49-2.64,7,7,0,0,1-2.22-3.4,3.4,3.4,0,0,1,.12-1.87,3.9,3.9,0,0,1,1-1.44,11.59,11.59,0,0,1,1.77-1.26,7.08,7.08,0,0,0-3.77,2.12c-1.75,2.36.14,5.87,4.79,9.24A22.81,22.81,0,0,0,112.75,23c4.38-.54,6.39-2.64,7.82-3,.88-.21,1.88-.06,2.16-.34s.2-.68.61-1.08,2.38-.9,3.44-3.24C127.52,13.74,127.29,10.9,124.48,7.58Z"/><path class="cls-7" d="M122.22,19a2.24,2.24,0,0,0-.8-.51c-.27-.1-.55-.19-.82-.31a20.83,20.83,0,0,1-2-1.28c-.49-.38-.89-.86-1.36-1.27-.21-.19-.43-.36-.65-.54l-.39-.23c-.62-.37-1.21-.78-1.81-1.18l-1.85-1.22-1.85-1.24c-.31-.21-.6-.42-.91-.61-1-.66-2.09-1.31-3.1-2a16.16,16.16,0,0,1-1.31-1,2.36,2.36,0,0,1-.67.13c-3.31-1.29-9.58-.27-11.34,2.09s.14,5.87,4.79,9.24A22.81,22.81,0,0,0,112.75,23c4.38-.54,6.39-2.64,7.82-3,.87-.2,1.87-.06,2.16-.34A4,4,0,0,0,122.22,19Z"/><path class="cls-5" d="M118.55,16.92c-.49-.38-.89-.86-1.36-1.27-.21-.19-.43-.36-.65-.54l-.39-.23c-.62-.37-1.21-.78-1.81-1.18l-1.85-1.22-1.85-1.24c-.31-.21-.6-.42-.91-.61-1-.66-2.09-1.31-3.1-2a16.16,16.16,0,0,1-1.31-1,2.36,2.36,0,0,1-.67.13,9.6,9.6,0,0,0-3.27-.56,3.21,3.21,0,0,0-2.45,4,6.93,6.93,0,0,0,1.62,2.57,14.05,14.05,0,0,0,2.41,2,14.27,14.27,0,0,0,6.84,2.44,13.88,13.88,0,0,0,4.11-.36,22.85,22.85,0,0,1,4.78-.77v0Z"/><path class="cls-8" d="M122.22,19a2.16,2.16,0,0,0-.33-.27h0a0,0,0,0,1,0,0,5.65,5.65,0,0,0-2.8.08,11.31,11.31,0,0,0-2.15,1,11.59,11.59,0,0,1-2.39,1,14.88,14.88,0,0,1-5.1.51,20.72,20.72,0,0,1-5.11-1,21.59,21.59,0,0,1-4.41-2,20.39,20.39,0,0,1-3.49-2.64,7,7,0,0,1-2.22-3.4,3.4,3.4,0,0,1,.12-1.87,3.9,3.9,0,0,1,1-1.44,11.59,11.59,0,0,1,1.77-1.26,7.08,7.08,0,0,0-3.77,2.12c-1.75,2.36.14,5.87,4.79,9.24A22.81,22.81,0,0,0,112.75,23c4.38-.54,6.39-2.64,7.82-3,.87-.2,1.87-.06,2.16-.34A4,4,0,0,0,122.22,19Z"/><path class="cls-9" d="M107.38,15c4.23,1.6,8,.27,9.33.24,0-2.16.54-3.87-.66-6.15a7.22,7.22,0,0,0-4.74-3.72c-1.16-.22-4.32-.27-5.67,1.11a5.4,5.4,0,0,0,.09.6c-.2.47-.27.61-1.08.68l-.21-.08C101.26,10.39,104.44,13.87,107.38,15Z"/><path class="cls-10" d="M104.82,7.51A6.84,6.84,0,0,1,113.54,7c3.65,2.66,2.57,6.8,2.79,7.79-1.75-.09-5.57,1.39-10.12-1.35C103.06,11.5,103.41,9,104.82,7.51Z"/><path class="cls-11" d="M116.2,14.6a2.81,2.81,0,0,0-1.3-.35c-.6-.05-1.21-.16-1.81-.26s-1.19-.23-1.77-.39a10.58,10.58,0,0,1-3.3-1.49A11.24,11.24,0,0,1,106.66,11a4.57,4.57,0,0,1-1-1.33,4.44,4.44,0,0,1,0-2.83,5.06,5.06,0,0,0-.84.68c-1.41,1.46-1.76,4,1.39,5.9,4.55,2.74,8.37,1.26,10.12,1.35,0,0,0,0,0-.08Z"/><path class="cls-12" d="M105.24,7.13l0,.11a6.11,6.11,0,0,0-.22.94,3.44,3.44,0,0,0,0,1,3.84,3.84,0,0,0,.68,1.58A7.08,7.08,0,0,0,108.42,13a14.28,14.28,0,0,0,3.34,1.18,13.86,13.86,0,0,0,2.16.27,18.19,18.19,0,0,1,2.4.28l-.12-.08a2.81,2.81,0,0,0-1.3-.35c-.6-.05-1.21-.16-1.81-.26s-1.19-.23-1.77-.39a10.58,10.58,0,0,1-3.3-1.49A11.24,11.24,0,0,1,106.66,11a4.57,4.57,0,0,1-1-1.33,4.44,4.44,0,0,1,0-2.83Z"/><path class="cls-13" d="M112.87,14.62a11.79,11.79,0,0,1-5.4-1.21c-1.53-.68-4.53-3.07-2.16-6a5.44,5.44,0,0,1,.82-.84,5.71,5.71,0,0,0-1.31,1c-1.41,1.46-1.76,4,1.39,5.9,4.55,2.74,8.37,1.26,10.12,1.35C115.3,14.26,114.35,14.54,112.87,14.62Z"/><path class="cls-11" d="M106.61,9.72c.86.85,1.1.07.62-.73-.17-.28-.54-.7-.5-1s.68.15.56-.34-1-.79-1.34-.26A2.29,2.29,0,0,0,106.61,9.72Z"/><path class="cls-11" d="M107.35,6.76c-.28-.46,2.42-1,2.17.12-.06.22-1-.33-1.52-.22.06.1.4.17.23.34S107.45,6.92,107.35,6.76Z"/><path class="cls-11" d="M111.3,12.84c-.43-.53-1.49-.7-2.09-1s-1.37-1.18-2-1.29c-.27.25,1.72,1.66,1.94,1.79a5.65,5.65,0,0,0,1.41.6C110.58,12.93,111.55,13.16,111.3,12.84Z"/><path class="cls-11" d="M107.9,8.8c.57.78-.09,1.32.7,2,.3.25.86.71,1.29.62s-.39-.62-.44-.65c-.9-.61-.41-1.37-1-2.15-.15-.2-.4-.75-.72-.72S107.8,8.66,107.9,8.8Z"/><path class="cls-11" d="M110.77,7.9c.09,1-.25,1.3-.72.41a.89.89,0,0,0-.82-.54c-.21,0-.81,0-.77-.36.45-.18,1,.1,1.43-.11s-.19-.77.07-.89S110.71,7.24,110.77,7.9Z"/><path class="cls-11" d="M110.15,10.23c.23.19,1.31.47.95-.2-.22-.42-.93-.46-1.24-.86-.1-.14-.2-.49-.42-.49-.06,0-.15.08-.15.12A2.06,2.06,0,0,0,110.15,10.23Z"/><path class="cls-11" d="M112.38,11.8c-1,.18-2.17-.52-2-.82s.65.07,1,0a2.38,2.38,0,0,1,.88-.06C112.59,11.05,112.92,11.7,112.38,11.8Z"/><path class="cls-11" d="M111.59,12.55c-.15-.09-.41-.37-.32-.46s.76.26,1.17.28a11.78,11.78,0,0,0,1.31-.18c.83-.07-.49.47-.18.66s1.74.58.57.57A5.09,5.09,0,0,1,111.59,12.55Z"/><path class="cls-11" d="M112.87,9.93c-.38-.33-.31.27-.6.45-.71.44-.37-.54-.33-.79a1.67,1.67,0,0,0-.63-1.52c-.09-.09-.38-.46-.08-.52s.37.3.47.39c.86.78,2,1.52,2.21,2.76,0,.17-.24,1.15-.43.7S113.36,10.37,112.87,9.93Z"/><path class="cls-11" d="M112.58,8c-.28,0-.54-.64-.69-.81s-1-.33-1.14-.61c-.2-.47,1.26.19,1.38.27S113.24,8,112.58,8Z"/><path class="cls-11" d="M114.43,9.27c-.27.22-1-.76-1.08-1-.31-.5.56-.11.69,0S114.72,9,114.43,9.27Z"/><path class="cls-11" d="M114.94,11c-.12-.51-1.2-1.14-.65-1.21.16,0,.6.39.61,0s.23-.48.43,0c.33.76.55,2.43.1,2.88S115.06,11.54,114.94,11Z"/><path class="cls-11" d="M115.6,13.41c.13-.83.4-.18.39.27,0,.8-.79.21-.72,0S115.55,13.69,115.6,13.41Z"/><path class="cls-12" d="M107.42,9.4l0,.08c-.1.15-.26.11-.39,0a1.86,1.86,0,0,1-.52-.36A2,2,0,0,1,106,7.94a3.38,3.38,0,0,1,0-.55v0a2.27,2.27,0,0,0,.66,2.37C107.32,10.42,107.61,10,107.42,9.4Z"/><path class="cls-12" d="M108.67,6.6a1.91,1.91,0,0,0-.63-.13c-.1,0-.26,0-.24.15a.25.25,0,0,1,0,.19c-.07.1-.22,0-.28,0a.57.57,0,0,1-.15-.16.12.12,0,0,0,0,.14c.1.16.72.41.88.24s-.17-.24-.23-.34c.49-.11,1.46.44,1.52.22a.41.41,0,0,0,0-.22C109.35,6.87,108.85,6.67,108.67,6.6Z"/><path class="cls-12" d="M110.88,12.88a4.16,4.16,0,0,1-.62-.23,5.91,5.91,0,0,1-1.5-.77c-.35-.27-.67-.58-1-.87-.06-.06-.3-.26-.31-.4a.92.92,0,0,0-.27-.08c-.27.25,1.72,1.66,1.94,1.79a5.65,5.65,0,0,0,1.41.6s1,.22.8,0A.61.61,0,0,1,110.88,12.88Z"/><path class="cls-12" d="M109.87,11.1c-.09.1-.27.07-.38,0a1.61,1.61,0,0,1-.66-.43,1.14,1.14,0,0,1-.31-.63c0-.25,0-.52-.11-.78a2.16,2.16,0,0,0-.3-.72c-.08-.11-.38-.48-.3-.66h0c-.46,0,0,.75.13.89.57.78-.09,1.32.7,2,.3.25.86.71,1.29.62C110.09,11.39,110,11.25,109.87,11.1Z"/><path class="cls-12" d="M110.77,7.9a2.65,2.65,0,0,0-.23-.83c0,.14.08.28.11.41a2,2,0,0,1,.08.48.38.38,0,0,1-.1.29.2.2,0,0,1-.29-.05,1.91,1.91,0,0,0-.24-.32.77.77,0,0,0-.43-.19,2.24,2.24,0,0,1-.81-.15c-.08,0-.15-.12-.14-.19a.76.76,0,0,0-.26.06c0,.35.56.35.77.36a.89.89,0,0,1,.82.54C110.52,9.2,110.86,8.89,110.77,7.9Z"/><path class="cls-12" d="M111.1,10a.49.49,0,0,0-.16-.19.28.28,0,0,1,0,.09c0,.43-.69.09-.87,0a2.37,2.37,0,0,1-.52-.7c0-.11-.18-.35-.13-.5-.06,0-.14.08-.14.12a2.06,2.06,0,0,0,.86,1.43C110.38,10.42,111.46,10.7,111.1,10Z"/><path class="cls-12" d="M112.32,11a.8.8,0,0,1,.15.17.25.25,0,0,1,0,.26.39.39,0,0,1-.35.15,2.78,2.78,0,0,1-.63-.16c-.22-.07-.45-.12-.66-.2a.75.75,0,0,1-.42-.27s0,0,0,0a.18.18,0,0,0-.05.07c-.17.3,1,1,2,.82C112.87,11.71,112.65,11.18,112.32,11Z"/><path class="cls-12" d="M113.57,12.85c-.28-.17.73-.62.38-.66l-.07.06c-.11.09-.24.16-.35.24s-.12.07-.14.12a1.06,1.06,0,0,0,0,.25c0,.16-.2.2-.33.19a1.67,1.67,0,0,1-.61-.19,3.73,3.73,0,0,1-1.18-.74c0,.11.21.35.34.43a5.09,5.09,0,0,0,2.55.87C115.31,13.43,113.86,13,113.57,12.85Z"/><path class="cls-12" d="M113.89,10.8c-.2.23-.35-.1-.43-.26a2.83,2.83,0,0,0-.54-.92.25.25,0,0,0-.42,0c0,.08-.16.31-.29.22s-.1-.34-.11-.51a1.68,1.68,0,0,0-.19-.76,2.7,2.7,0,0,0-.56-.56.81.81,0,0,1-.25-.33.91.91,0,0,0,.21.35,1.67,1.67,0,0,1,.63,1.52c0,.25-.38,1.23.33.79.29-.18.22-.78.6-.45s.39.93.61,1.47.4-.34.42-.62A0,0,0,0,0,113.89,10.8Z"/><path class="cls-12" d="M112.69,7.5a.22.22,0,0,1-.2.18c-.12,0-.25-.19-.31-.27a1.51,1.51,0,0,0-.46-.48,2,2,0,0,0-.52-.23.89.89,0,0,1-.47-.19s0,0,0,0c.11.28.88.32,1.14.61s.41.81.69.81S112.84,7.75,112.69,7.5Z"/><path class="cls-12" d="M114.46,8.87a.1.1,0,0,1,0,.05c-.07.06-.18,0-.26,0a1,1,0,0,1-.32-.28c-.06-.07-.46-.39-.51-.57-.06,0-.07.09,0,.24s.81,1.18,1.08,1C114.55,9.17,114.53,9,114.46,8.87Z"/><path class="cls-12" d="M115.54,12.23c-.11-.07-.15-.27-.19-.38-.14-.46-.18-1-.57-1.35-.16-.12-.32-.22-.47-.35a.88.88,0,0,1-.18-.21c0,.21.72.7.81,1.1s.12,2,.49,1.66a.86.86,0,0,0,.21-.44A.17.17,0,0,1,115.54,12.23Z"/><path class="cls-12" d="M115.94,13.27a.66.66,0,0,1-.06.37.33.33,0,0,1-.35.17.38.38,0,0,1-.24-.15l0,0c-.07.2.71.79.72,0A1.44,1.44,0,0,0,115.94,13.27Z"/><path class="cls-2" d="M149.12,2C145.81,6.18,129.28,14,129,14.21c-.13,5.81,6,14.63,16.47,14.51,11.4-.13,19-7.56,17.81-17.54a8.34,8.34,0,0,0-5.53-3.11C152.36,7,151.62,3,149.12,2Z"/><path class="cls-3" d="M130.13,13.65c.57.63,1.15,1.25,1.77,1.84a15.37,15.37,0,0,0,2.7,2,17.14,17.14,0,0,0,3,1.38,20.48,20.48,0,0,0,3.26.91,23.31,23.31,0,0,0,3.54.34,27.07,27.07,0,0,0,6.88-.79,25.68,25.68,0,0,0,5.82-2.18,31.87,31.87,0,0,0,4.12-2.57,9.53,9.53,0,0,1-1,4,17.14,17.14,0,0,1-3.76,5.15c-2.13,1.92-4.8,3.78-11.6,4.92-10.07-.25-15.94-8.83-15.81-14.51Z"/><path class="cls-4" d="M155,20.51a19.51,19.51,0,0,1-9.39,4.06,13.82,13.82,0,0,1-5-.54c-.83-.27-4.26-2.61-5.81-2.71a6.81,6.81,0,0,1-2.25-.36c-.36-.18-.36-1.26-.72-1.62-.53-.53-1.53-.67-2.46-2.43a10,10,0,0,1-.34-2.7l1.12-.56c.57.63,1.15,1.25,1.77,1.84a15.37,15.37,0,0,0,2.7,2,17.14,17.14,0,0,0,3,1.38,20.48,20.48,0,0,0,3.26.91,23.31,23.31,0,0,0,3.54.34,27.07,27.07,0,0,0,6.88-.79,25.68,25.68,0,0,0,5.82-2.18l.86-.46A15.61,15.61,0,0,1,155,20.51Z"/><path class="cls-3" d="M148.36,6.77A6.68,6.68,0,0,0,148.9,5c.1-.68.12-1.37.23-2a5.93,5.93,0,0,1,.53.47c.87.86,1.51,1.94,2.42,2.76a5.37,5.37,0,0,0,.7.56,8.24,8.24,0,0,0,.77.42l.92.41h0a6.07,6.07,0,0,0-2.42,2,1,1,0,0,1-.87.44,3.33,3.33,0,0,1-.75-.2l-1-.38-1-.44-.51-.22-.23-.1s-.1,0-.09-.06a.3.3,0,0,0,0-.1C147.8,7.89,148.1,7.34,148.36,6.77Z"/><path class="cls-4" d="M148.36,6.77A6.68,6.68,0,0,0,148.9,5c0-.34.08-.69.11-1a17,17,0,0,0,1.09,1.54,7.77,7.77,0,0,0,2,1.79,5.22,5.22,0,0,0,1.61.64A8.8,8.8,0,0,0,152,9.54a1,1,0,0,1-.87.44,3.33,3.33,0,0,1-.75-.2l-1-.38-1-.44-.51-.22-.23-.1s-.1,0-.09-.06a.3.3,0,0,0,0-.1C147.8,7.89,148.1,7.34,148.36,6.77Z"/><path class="cls-5" d="M151.41,7.74c-.81-.07-.87-.21-1.08-.68.34-1.89.33-4.19-1.28-5.26C146.82.31,142.37-1,135.89,3.69c-6.81,4.92-7.62,9.44-6.61,11.67s3,2.83,3.44,3.24.41.88.61,1.08,1.28.13,2.16.34c1.43.33,3.44,2.43,7.83,3A22.8,22.8,0,0,0,158,19.07c4.65-3.37,6.54-6.88,4.79-9.24S154.72,6.45,151.41,7.74Z"/><path class="cls-6" d="M157.13,11.16a6.93,6.93,0,0,1-1.62,2.57,14.05,14.05,0,0,1-2.41,2,14.23,14.23,0,0,1-6.83,2.44,13.92,13.92,0,0,1-4.12-.36,22.85,22.85,0,0,0-4.78-.77,47.73,47.73,0,0,1,0-5.6c.26-2,1.69-6,5.26-7.78,1.06-.53,3.48-1.65,5.82-.9a3.92,3.92,0,0,1,2,1.79,9.08,9.08,0,0,1-.15,2.5c.21.47.27.61,1.08.68a9.6,9.6,0,0,1,3.27-.56A3.21,3.21,0,0,1,157.13,11.16Z"/><path class="cls-7" d="M131.58,7.58c-.11.23-.23.47-.33.71a10.83,10.83,0,0,0-.95,4.59,4.38,4.38,0,0,0,.45,2,3.64,3.64,0,0,0,1.41,1.5,14.6,14.6,0,0,1,1.52.79,1.25,1.25,0,0,1,.5.61,1.75,1.75,0,0,1,0,1,0,0,0,0,0,0,0,5.65,5.65,0,0,1,2.8.08,11.31,11.31,0,0,1,2.15,1,11.59,11.59,0,0,0,2.39,1,14.88,14.88,0,0,0,5.1.51,20.89,20.89,0,0,0,5.12-1,21.76,21.76,0,0,0,4.4-2,20.39,20.39,0,0,0,3.49-2.64,7,7,0,0,0,2.22-3.4,3.4,3.4,0,0,0-.12-1.87,3.9,3.9,0,0,0-1-1.44A11.12,11.12,0,0,0,159,7.71a7,7,0,0,1,3.77,2.12c1.75,2.36-.14,5.87-4.79,9.24A22.8,22.8,0,0,1,143.32,23c-4.39-.54-6.4-2.64-7.83-3-.88-.21-1.88-.06-2.16-.34s-.2-.68-.61-1.08-2.38-.9-3.44-3.24C128.54,13.74,128.77,10.9,131.58,7.58Z"/><path class="cls-7" d="M133.84,19a2.24,2.24,0,0,1,.8-.51c.27-.1.55-.19.82-.31a20.83,20.83,0,0,0,2-1.28c.49-.38.9-.86,1.36-1.27.21-.19.43-.36.65-.54l.39-.23c.62-.37,1.21-.78,1.81-1.18l1.85-1.22,1.85-1.24c.31-.21.6-.42.91-.61,1-.66,2.09-1.31,3.1-2a16.16,16.16,0,0,0,1.31-1,2.44,2.44,0,0,0,.67.13c3.31-1.29,9.58-.27,11.34,2.09s-.14,5.87-4.79,9.24A22.8,22.8,0,0,1,143.32,23c-4.39-.54-6.4-2.64-7.83-3-.87-.2-1.87-.06-2.15-.34A4,4,0,0,1,133.84,19Z"/><path class="cls-5" d="M137.51,16.92c.49-.38.9-.86,1.36-1.27.21-.19.43-.36.65-.54l.39-.23c.62-.37,1.21-.78,1.81-1.18l1.85-1.22,1.85-1.24c.31-.21.6-.42.91-.61,1-.66,2.09-1.31,3.1-2a16.16,16.16,0,0,0,1.31-1,2.44,2.44,0,0,0,.67.13,9.6,9.6,0,0,1,3.27-.56,3.21,3.21,0,0,1,2.45,4,6.93,6.93,0,0,1-1.62,2.57,14.05,14.05,0,0,1-2.41,2,14.23,14.23,0,0,1-6.83,2.44,13.92,13.92,0,0,1-4.12-.36,22.85,22.85,0,0,0-4.78-.77v0Z"/><path class="cls-8" d="M133.84,19a2.16,2.16,0,0,1,.33-.27h0a0,0,0,0,0,0,0,5.65,5.65,0,0,1,2.8.08,11.31,11.31,0,0,1,2.15,1,11.59,11.59,0,0,0,2.39,1,14.88,14.88,0,0,0,5.1.51,20.89,20.89,0,0,0,5.12-1,21.76,21.76,0,0,0,4.4-2,20.39,20.39,0,0,0,3.49-2.64,7,7,0,0,0,2.22-3.4,3.4,3.4,0,0,0-.12-1.87,3.9,3.9,0,0,0-1-1.44A11.12,11.12,0,0,0,159,7.71a7,7,0,0,1,3.77,2.12c1.75,2.36-.14,5.87-4.79,9.24A22.8,22.8,0,0,1,143.32,23c-4.39-.54-6.4-2.64-7.83-3-.87-.2-1.87-.06-2.15-.34A4,4,0,0,1,133.84,19Z"/><path class="cls-14" d="M148.68,15c-4.23,1.6-8,.27-9.33.24,0-2.16-.54-3.87.66-6.15a7.25,7.25,0,0,1,4.74-3.72c1.16-.22,4.32-.27,5.67,1.11a5.4,5.4,0,0,1-.09.6c.21.47.27.61,1.08.68l.22-.08C154.8,10.39,151.62,13.87,148.68,15Z"/><path class="cls-5" d="M54.72,1.27A59,59,0,0,0,62,4.77c.51.19,1,.19,1.57.42.8.29.57,1.34,1.46,1.93s.91.25,1.8.84.39,1.17.71,1.47,1.06.28,1.46.42.4.37,1.14.44a6.28,6.28,0,0,1,1.36,0c.6.15.7.54,1.47.57s1.16-.32,1.83-.32,1.18.52,3,1,5.07,1.32,6.09,1.61c1,.94,1.15,5.88-4.3,10.59-4.82,4.15-11.5,5.74-20.67,1.11C51.08,20.9,48.55,8.63,54.72,1.27Z"/><path class="cls-7" d="M83.86,13.14c-1-.29-4.3-1.16-6.09-1.61a6.42,6.42,0,0,0-2.38-.37c1.27,4.91-4.92,6.67-5.74,6.84a11.12,11.12,0,0,1-5.4-.38,11.21,11.21,0,0,1-4.51-2.53,9.06,9.06,0,0,1-1.84-2.73,10.92,10.92,0,0,1-1-3.84,7.29,7.29,0,0,1,.49-3.37A2.78,2.78,0,0,1,59,3.47a37.91,37.91,0,0,1-4.29-2.2c-6.17,7.36-3.64,19.63,4.17,23.57,9.17,4.63,15.85,3,20.67-1.11C85,19,84.87,14.08,83.86,13.14Z"/><path class="cls-8" d="M83.86,13.14c-1-.29-4.3-1.16-6.09-1.61s-2.29-1-3-1c5,3.19,1.56,7.92.58,8.92a10.85,10.85,0,0,1-4.31,2.3,15.52,15.52,0,0,1-4.86.1,16.09,16.09,0,0,1-4.65-1,11.89,11.89,0,0,1-2-1,10.66,10.66,0,0,1-2-1.63,12.57,12.57,0,0,1-3.39-6.48c-.11-.61-.19-1.23-.24-1.85a14.93,14.93,0,0,1,0-1.77,14,14,0,0,1,.37-2.32,11.61,11.61,0,0,1,.91-2.7A3.93,3.93,0,0,1,55.94,2a13.48,13.48,0,0,1-1.22-.71c-6.17,7.36-3.64,19.63,4.17,23.57,9.17,4.63,15.85,3,20.67-1.11C85,19,84.87,14.08,83.86,13.14Z"/><path class="cls-9" d="M62.45,5.4c.08.68-.64,1.59-.48,1.95s.74.33.88.71-.35.85-.19,1.06,1.4-.07,1.51.68a7.74,7.74,0,0,0,.31,1.85c.75.66,1.38.1,1.91.46.26.18.57.84,1.22,1.09s1.28-.14,1.56-.13.76.4,1.29.4.93-.49,1.21-.45.58.09.87.13a2,2,0,0,0,.84,0A1.49,1.49,0,0,0,74,12.7a4.78,4.78,0,0,0,.29-.44,1.51,1.51,0,0,1,1.17-.55,11.06,11.06,0,0,1,1.15-.05H77s0-.19,0-.22v-.13a10.48,10.48,0,0,0-2.19-.74c-.67,0-1.08.34-1.83.32s-.87-.42-1.47-.57a6.28,6.28,0,0,0-1.36,0c-.74-.07-.64-.27-1.14-.44s-1,0-1.46-.42.18-.87-.71-1.47-.9-.25-1.8-.84-.66-1.64-1.46-1.93a12.29,12.29,0,0,0-1.29-.33A1.55,1.55,0,0,1,62.45,5.4Z"/><path class="cls-15" d="M76.48,11.13a7.09,7.09,0,0,0-1.13.11,2.74,2.74,0,0,0-.88.28c-.22.14-.39.33-.6.48a1.09,1.09,0,0,1-.72.23c-.31,0-.62-.07-.93-.09a1.62,1.62,0,0,0-.49,0,3.68,3.68,0,0,0-.5.18,1.85,1.85,0,0,1-.87.13c-.26,0-.52-.12-.78-.17a2.25,2.25,0,0,0-.52-.07,2.56,2.56,0,0,1-.39,0,.56.56,0,0,1-.39-.26c-.18-.32-.13-.73-.5-.92a2.18,2.18,0,0,0-1.29,0,1.63,1.63,0,0,1-1.09-.06C65,10.68,65,10.16,65,9.74a.74.74,0,0,0-.5-.75,6.34,6.34,0,0,1-.74-.23.62.62,0,0,1-.3-.6.83.83,0,0,0-.09-.53,1.24,1.24,0,0,0-.28-.28,1.08,1.08,0,0,1-.4-.42,1.59,1.59,0,0,1,0-.78,2.89,2.89,0,0,0,0-.72,1.23,1.23,0,0,0-.3-.55l-.08,0a1.55,1.55,0,0,1,.16.54c.08.68-.64,1.59-.48,1.95s.74.33.88.71-.35.85-.19,1.06,1.4-.07,1.51.68a7.74,7.74,0,0,0,.31,1.85c.75.66,1.38.1,1.91.46.26.18.57.84,1.22,1.09s1.28-.14,1.56-.13.76.4,1.29.4.93-.49,1.21-.45.58.09.87.13a2,2,0,0,0,.84,0A1.49,1.49,0,0,0,74,12.7a4.78,4.78,0,0,0,.29-.44,1.51,1.51,0,0,1,1.17-.55,11.06,11.06,0,0,1,1.15-.05H77s0-.19,0-.22v-.13Z"/><path class="cls-16" d="M62.65,5a4.8,4.8,0,0,1,.6.3A1.93,1.93,0,0,1,64,6.5a1.34,1.34,0,0,0,.4.76,1.56,1.56,0,0,0,.66.25,2,2,0,0,1,1.26.54,1.66,1.66,0,0,1,.25.56,3,3,0,0,0,.25.77,1.67,1.67,0,0,0,1.35.6,4.52,4.52,0,0,1,.75.14,4.52,4.52,0,0,1,.66.33,2,2,0,0,0,.73.28,8.86,8.86,0,0,0,.9-.07,1.3,1.3,0,0,1,.75.27,2.09,2.09,0,0,0,.89.39A1.83,1.83,0,0,0,74,11.13a3.82,3.82,0,0,1,.92-.36,2.5,2.5,0,0,1,.82,0,2.26,2.26,0,0,0-.88-.23c-.67,0-1.08.34-1.83.32s-.87-.42-1.47-.57a6.28,6.28,0,0,0-1.36,0c-.74-.07-.64-.27-1.14-.44s-1,0-1.46-.42.18-.87-.71-1.47-.9-.25-1.8-.84-.66-1.64-1.46-1.93a6.75,6.75,0,0,0-1-.26Z"/><path class="cls-2" d="M83.86,13.14c-1.54-1.16-4.38-1.56-7.35-2a1.89,1.89,0,0,1-.24.54c2.68.66,4.55,2.6,4.77,3.79.6,6.47-8.55,10-13.07,10a18.41,18.41,0,0,1-8.28-1.68,13.32,13.32,0,0,1-5.93-6.21,19.09,19.09,0,0,1-1.57-8A13.21,13.21,0,0,1,55,1.44l-.27-.17c-6.17,7.36-3.62,19.61,4,23.87,7.88,4.38,16.83,3.14,21.65-1C85.84,19.41,84.87,14.08,83.86,13.14Z"/><path class="cls-3" d="M72.42,26.18c1.4-.35,4.61-1.34,6-2.44A14.82,14.82,0,0,0,82.82,18c.64-1.71.34-4.48,1.17-4.65,0-.06-.09-.11-.13-.16-1.54-1.16-4.38-1.56-7.35-2a1.89,1.89,0,0,1-.24.54c2.68.66,4.55,2.6,4.77,3.79.6,6.47-8.55,10-13.07,10a18.41,18.41,0,0,1-8.28-1.68,13.32,13.32,0,0,1-5.93-6.21,19.09,19.09,0,0,1-1.57-8A13.21,13.21,0,0,1,55,1.44l-.27-.17c-6.17,7.36-3.62,19.61,4,23.87A22.5,22.5,0,0,0,72.42,26.18Z"/><path class="cls-4" d="M53.36,19.11A8.38,8.38,0,0,0,56,21.39a8.68,8.68,0,0,0,.92.45,12.9,12.9,0,0,1-3.16-4.29,19.09,19.09,0,0,1-1.57-8A13.21,13.21,0,0,1,55,1.44l-.27-.17c-3.9,4.66-4.32,11.28-2.16,16.59A11,11,0,0,0,53.36,19.11Z"/><path class="cls-17" d="M80.3,13a4.78,4.78,0,0,0,.2-1.2c-1.22-.27-2.59-.47-4-.68a1.89,1.89,0,0,1-.24.54,7.93,7.93,0,0,1,3.64,2A1.88,1.88,0,0,0,80.3,13Z"/><path class="cls-5" d="M37.83,1.27a57.63,57.63,0,0,0,7.29,3.5c.5.19,1,.19,1.57.42.79.29.57,1.34,1.46,1.93s.91.25,1.8.84.38,1.17.7,1.47,1.06.28,1.47.42.4.37,1.14.44a6.28,6.28,0,0,1,1.36,0c.6.15.69.54,1.46.57s1.17-.32,1.84-.32,1.17.52,3,1S66,12.85,67,13.14c1,.94,1.16,5.88-4.3,10.59C57.85,27.88,51.17,29.47,42,24.84,34.19,20.9,31.66,8.63,37.83,1.27Z"/><path class="cls-7" d="M67,13.14c-1-.29-4.3-1.16-6.08-1.61a6.44,6.44,0,0,0-2.38-.37c1.26,4.91-4.92,6.67-5.74,6.84a11.12,11.12,0,0,1-5.4-.38,11.21,11.21,0,0,1-4.51-2.53A8.91,8.91,0,0,1,41,12.36a10.91,10.91,0,0,1-1-3.84,7.17,7.17,0,0,1,.49-3.37,2.78,2.78,0,0,1,1.59-1.68,37.05,37.05,0,0,1-4.29-2.2C31.66,8.63,34.19,20.9,42,24.84c9.18,4.63,15.86,3,20.67-1.11C68.12,19,68,14.08,67,13.14Z"/><path class="cls-8" d="M67,13.14c-1-.29-4.3-1.16-6.08-1.61s-2.29-1-3-1c5,3.19,1.55,7.92.58,8.92a10.91,10.91,0,0,1-4.31,2.3,15.58,15.58,0,0,1-4.87.1,16.24,16.24,0,0,1-4.65-1,11.44,11.44,0,0,1-2-1,10.73,10.73,0,0,1-2-1.63,12.48,12.48,0,0,1-3.38-6.48A14.4,14.4,0,0,1,37,9.92a13.07,13.07,0,0,1,0-1.77,15.17,15.17,0,0,1,.38-2.32,12.07,12.07,0,0,1,.9-2.7A4,4,0,0,1,39.05,2a12.21,12.21,0,0,1-1.22-.71C31.66,8.63,34.19,20.9,42,24.84c9.18,4.63,15.86,3,20.67-1.11C68.12,19,68,14.08,67,13.14Z"/><path class="cls-9" d="M45.56,5.4c.07.68-.64,1.59-.48,1.95s.74.33.88.71-.35.85-.19,1.06,1.4-.07,1.51.68a7.74,7.74,0,0,0,.31,1.85c.75.66,1.38.1,1.91.46.26.18.57.84,1.22,1.09s1.28-.14,1.55-.13.76.4,1.29.4S54.5,13,54.78,13s.57.09.86.13a2,2,0,0,0,.84,0,1.43,1.43,0,0,0,.65-.43,3.41,3.41,0,0,0,.3-.44,1.51,1.51,0,0,1,1.17-.55,11.06,11.06,0,0,1,1.15-.05h.34s0-.19,0-.22,0-.09,0-.13a10.48,10.48,0,0,0-2.19-.74c-.67,0-1.08.34-1.84.32s-.86-.42-1.46-.57a6.28,6.28,0,0,0-1.36,0c-.74-.07-.65-.27-1.14-.44s-1,0-1.47-.42S50.84,8.56,50,8s-.91-.25-1.8-.84-.67-1.64-1.46-1.93a13,13,0,0,0-1.29-.33A1.79,1.79,0,0,1,45.56,5.4Z"/><path class="cls-15" d="M59.58,11.13a7.08,7.08,0,0,0-1.12.11,2.74,2.74,0,0,0-.88.28c-.22.14-.39.33-.6.48a1.11,1.11,0,0,1-.72.23c-.31,0-.62-.07-.93-.09a1.68,1.68,0,0,0-.5,0,5,5,0,0,0-.5.18,1.79,1.79,0,0,1-.86.13c-.26,0-.52-.12-.78-.17a2.25,2.25,0,0,0-.52-.07,2.56,2.56,0,0,1-.39,0,.54.54,0,0,1-.39-.26c-.18-.32-.13-.73-.5-.92a2.21,2.21,0,0,0-1.3,0,1.6,1.6,0,0,1-1.08-.06c-.41-.25-.36-.77-.36-1.19a.74.74,0,0,0-.5-.75,6.34,6.34,0,0,1-.74-.23.59.59,0,0,1-.3-.6.83.83,0,0,0-.09-.53,1.48,1.48,0,0,0-.28-.28,1.18,1.18,0,0,1-.41-.42,1.86,1.86,0,0,1,0-.78,2.48,2.48,0,0,0,0-.72,1.23,1.23,0,0,0-.3-.55l-.08,0a1.79,1.79,0,0,1,.16.54c.07.68-.64,1.59-.48,1.95s.74.33.88.71-.35.85-.19,1.06,1.4-.07,1.51.68a7.74,7.74,0,0,0,.31,1.85c.75.66,1.38.1,1.91.46.26.18.57.84,1.22,1.09s1.28-.14,1.55-.13.76.4,1.29.4S54.5,13,54.78,13s.57.09.86.13a2,2,0,0,0,.84,0,1.43,1.43,0,0,0,.65-.43,3.41,3.41,0,0,0,.3-.44,1.51,1.51,0,0,1,1.17-.55,11.06,11.06,0,0,1,1.15-.05h.34s0-.19,0-.22,0-.09,0-.13Z"/><path class="cls-16" d="M45.75,5a4.2,4.2,0,0,1,.6.3,1.85,1.85,0,0,1,.77,1.24,1.42,1.42,0,0,0,.41.76,1.51,1.51,0,0,0,.66.25,2,2,0,0,1,1.25.54,1.68,1.68,0,0,1,.26.56,3,3,0,0,0,.25.77,1.67,1.67,0,0,0,1.35.6,4.72,4.72,0,0,1,.75.14,5.08,5.08,0,0,1,.66.33,2,2,0,0,0,.73.28c.31,0,.59-.07.9-.07a1.24,1.24,0,0,1,.74.27,2.19,2.19,0,0,0,.9.39,1.85,1.85,0,0,0,1.08-.19,3.82,3.82,0,0,1,.92-.36,2.51,2.51,0,0,1,.82,0,2.3,2.3,0,0,0-.88-.23c-.67,0-1.08.34-1.84.32s-.86-.42-1.46-.57a6.28,6.28,0,0,0-1.36,0c-.74-.07-.65-.27-1.14-.44s-1,0-1.47-.42S50.84,8.56,50,8s-.91-.25-1.8-.84-.67-1.64-1.46-1.93a6.75,6.75,0,0,0-1-.26Z"/><path class="cls-2" d="M67,13.14c-1.53-1.16-4.38-1.56-7.34-2a1.89,1.89,0,0,1-.24.54c2.68.66,4.55,2.6,4.77,3.79.6,6.47-8.55,10-13.07,10a18.41,18.41,0,0,1-8.28-1.68,13.34,13.34,0,0,1-5.94-6.21,19.24,19.24,0,0,1-1.56-8,13.21,13.21,0,0,1,2.8-8.08l-.27-.17c-6.17,7.36-3.63,19.61,4,23.87,7.89,4.38,16.84,3.14,21.65-1C69,19.41,68,14.08,67,13.14Z"/><path class="cls-3" d="M55.52,26.18c1.41-.35,4.62-1.34,6-2.44A14.82,14.82,0,0,0,65.93,18c.64-1.71.34-4.48,1.17-4.65L67,13.14c-1.53-1.16-4.38-1.56-7.34-2a1.89,1.89,0,0,1-.24.54c2.68.66,4.55,2.6,4.77,3.79.6,6.47-8.55,10-13.07,10a18.41,18.41,0,0,1-8.28-1.68,13.34,13.34,0,0,1-5.94-6.21,19.24,19.24,0,0,1-1.56-8,13.21,13.21,0,0,1,2.8-8.08l-.27-.17c-6.17,7.36-3.63,19.61,4,23.87A22.5,22.5,0,0,0,55.52,26.18Z"/><path class="cls-4" d="M36.46,19.11a8.49,8.49,0,0,0,2.64,2.28,8.82,8.82,0,0,0,.93.45,13.08,13.08,0,0,1-3.17-4.29,19.24,19.24,0,0,1-1.56-8,13.21,13.21,0,0,1,2.8-8.08l-.27-.17c-3.91,4.66-4.32,11.28-2.16,16.59A10.93,10.93,0,0,0,36.46,19.11Z"/><path class="cls-4" d="M63.4,13a4.37,4.37,0,0,0,.2-1.2c-1.21-.27-2.59-.47-4-.68a1.89,1.89,0,0,1-.24.54,8,8,0,0,1,3.64,2A1.72,1.72,0,0,0,63.4,13Z"/><path class="cls-5" d="M20.94,1.27a58.18,58.18,0,0,0,7.28,3.5c.51.19,1,.19,1.58.42.79.29.57,1.34,1.46,1.93s.9.25,1.8.84.38,1.17.7,1.47,1.06.28,1.46.42.4.37,1.14.44a6.38,6.38,0,0,1,1.37,0c.59.15.69.54,1.46.57s1.16-.32,1.83-.32,1.18.52,3,1,5.06,1.32,6.08,1.61c1,.94,1.15,5.88-4.3,10.59C41,27.88,34.28,29.47,25.1,24.84,17.29,20.9,14.77,8.63,20.94,1.27Z"/><path class="cls-7" d="M50.07,13.14c-1-.29-4.3-1.16-6.08-1.61a6.44,6.44,0,0,0-2.38-.37c1.26,4.91-4.92,6.67-5.75,6.84a11.08,11.08,0,0,1-5.39-.38A11.08,11.08,0,0,1,26,15.09a8.91,8.91,0,0,1-1.85-2.73,10.91,10.91,0,0,1-1-3.84,7.29,7.29,0,0,1,.48-3.37,2.8,2.8,0,0,1,1.6-1.68,37.05,37.05,0,0,1-4.29-2.2C14.77,8.63,17.29,20.9,25.1,24.84c9.18,4.63,15.86,3,20.67-1.11C51.22,19,51.09,14.08,50.07,13.14Z"/><path class="cls-8" d="M50.07,13.14c-1-.29-4.3-1.16-6.08-1.61s-2.3-1-3-1c5,3.19,1.56,7.92.59,8.92a10.89,10.89,0,0,1-4.32,2.3,15.52,15.52,0,0,1-4.86.1,16.09,16.09,0,0,1-4.65-1,11.44,11.44,0,0,1-2-1,10.73,10.73,0,0,1-2.05-1.63,12.48,12.48,0,0,1-3.38-6.48,14.4,14.4,0,0,1-.24-1.85,13.07,13.07,0,0,1,0-1.77,15.17,15.17,0,0,1,.38-2.32,12.07,12.07,0,0,1,.9-2.7A4,4,0,0,1,22.16,2a12.21,12.21,0,0,1-1.22-.71C14.77,8.63,17.29,20.9,25.1,24.84c9.18,4.63,15.86,3,20.67-1.11C51.22,19,51.09,14.08,50.07,13.14Z"/><path class="cls-9" d="M28.66,5.4c.08.68-.63,1.59-.47,1.95s.74.33.88.71-.36.85-.2,1.06,1.4-.07,1.52.68a7.74,7.74,0,0,0,.31,1.85c.75.66,1.38.1,1.91.46.26.18.57.84,1.22,1.09s1.28-.14,1.55-.13.76.4,1.29.4.94-.49,1.21-.45.58.09.87.13a2,2,0,0,0,.84,0,1.43,1.43,0,0,0,.65-.43,2.57,2.57,0,0,0,.29-.44,1.52,1.52,0,0,1,1.17-.55,11.25,11.25,0,0,1,1.16-.05h.33s0-.19,0-.22a.53.53,0,0,1,0-.13,10.51,10.51,0,0,0-2.2-.74c-.67,0-1.07.34-1.83.32s-.87-.42-1.46-.57a6.38,6.38,0,0,0-1.37,0c-.74-.07-.64-.27-1.14-.44s-1,0-1.46-.42S34,8.56,33.06,8s-.91-.25-1.8-.84-.67-1.64-1.46-1.93a12.42,12.42,0,0,0-1.3-.33A1.55,1.55,0,0,1,28.66,5.4Z"/><path class="cls-15" d="M42.69,11.13a7,7,0,0,0-1.12.11,2.59,2.59,0,0,0-.88.28c-.22.14-.4.33-.61.48a1.06,1.06,0,0,1-.71.23c-.32,0-.62-.07-.93-.09a1.67,1.67,0,0,0-.5,0,4.24,4.24,0,0,0-.5.18,1.83,1.83,0,0,1-.86.13c-.27,0-.52-.12-.78-.17a2.32,2.32,0,0,0-.52-.07,2.69,2.69,0,0,1-.4,0,.56.56,0,0,1-.39-.26c-.17-.32-.12-.73-.49-.92a2.21,2.21,0,0,0-1.3,0,1.63,1.63,0,0,1-1.09-.06c-.41-.25-.35-.77-.36-1.19a.73.73,0,0,0-.5-.75A5.65,5.65,0,0,1,30,8.76a.59.59,0,0,1-.3-.6.9.9,0,0,0-.1-.53,1.07,1.07,0,0,0-.28-.28,1.08,1.08,0,0,1-.4-.42,1.71,1.71,0,0,1-.05-.78,2.48,2.48,0,0,0,0-.72,1.16,1.16,0,0,0-.31-.55l-.08,0a1.55,1.55,0,0,1,.16.54c.08.68-.63,1.59-.47,1.95s.74.33.88.71-.36.85-.2,1.06,1.4-.07,1.52.68a7.74,7.74,0,0,0,.31,1.85c.75.66,1.38.1,1.91.46.26.18.57.84,1.22,1.09s1.28-.14,1.55-.13.76.4,1.29.4.94-.49,1.21-.45.58.09.87.13a2,2,0,0,0,.84,0,1.43,1.43,0,0,0,.65-.43,2.57,2.57,0,0,0,.29-.44,1.52,1.52,0,0,1,1.17-.55,11.25,11.25,0,0,1,1.16-.05h.33s0-.19,0-.22a.53.53,0,0,1,0-.13Z"/><path class="cls-16" d="M28.86,5a4.2,4.2,0,0,1,.6.3,1.89,1.89,0,0,1,.77,1.24,1.34,1.34,0,0,0,.4.76,1.56,1.56,0,0,0,.66.25,2,2,0,0,1,1.26.54,1.68,1.68,0,0,1,.26.56,3,3,0,0,0,.24.77,1.69,1.69,0,0,0,1.36.6,4.72,4.72,0,0,1,.75.14,5.8,5.8,0,0,1,.66.33,1.85,1.85,0,0,0,.73.28,8.89,8.89,0,0,0,.89-.07,1.27,1.27,0,0,1,.75.27,2.13,2.13,0,0,0,.9.39,1.86,1.86,0,0,0,1.08-.19,3.75,3.75,0,0,1,.91-.36,2.56,2.56,0,0,1,.83,0,2.3,2.3,0,0,0-.89-.23c-.67,0-1.07.34-1.83.32s-.87-.42-1.46-.57a6.38,6.38,0,0,0-1.37,0c-.74-.07-.64-.27-1.14-.44s-1,0-1.46-.42S34,8.56,33.06,8s-.91-.25-1.8-.84-.67-1.64-1.46-1.93a6.75,6.75,0,0,0-1-.26Z"/><path class="cls-2" d="M50.07,13.14c-1.54-1.16-4.38-1.56-7.35-2a1.63,1.63,0,0,1-.23.54c2.67.66,4.54,2.6,4.77,3.79.59,6.47-8.55,10-13.07,10a18.38,18.38,0,0,1-8.28-1.68A13.29,13.29,0,0,1,20,17.55a19.08,19.08,0,0,1-1.56-8,13.14,13.14,0,0,1,2.8-8.08l-.27-.17c-6.17,7.36-3.63,19.61,4,23.87,7.88,4.38,16.84,3.14,21.65-1C52.05,19.41,51.09,14.08,50.07,13.14Z"/><path class="cls-3" d="M38.63,26.18c1.4-.35,4.61-1.34,6-2.44A14.75,14.75,0,0,0,49,18c.64-1.71.35-4.48,1.18-4.65l-.14-.16c-1.54-1.16-4.38-1.56-7.35-2a1.63,1.63,0,0,1-.23.54c2.67.66,4.54,2.6,4.77,3.79.59,6.47-8.55,10-13.07,10a18.38,18.38,0,0,1-8.28-1.68A13.29,13.29,0,0,1,20,17.55a19.08,19.08,0,0,1-1.56-8,13.14,13.14,0,0,1,2.8-8.08l-.27-.17c-6.17,7.36-3.63,19.61,4,23.87A22.5,22.5,0,0,0,38.63,26.18Z"/><path class="cls-4" d="M19.57,19.11a8.49,8.49,0,0,0,2.64,2.28,8,8,0,0,0,.93.45A13.08,13.08,0,0,1,20,17.55a19.08,19.08,0,0,1-1.56-8,13.14,13.14,0,0,1,2.8-8.08l-.27-.17C17,5.93,16.62,12.55,18.78,17.86A9.71,9.71,0,0,0,19.57,19.11Z"/><path class="cls-4" d="M46.51,13a4.37,4.37,0,0,0,.2-1.2c-1.22-.27-2.59-.47-4-.68a1.63,1.63,0,0,1-.23.54,8,8,0,0,1,3.64,2A1.85,1.85,0,0,0,46.51,13Z"/><path class="cls-5" d="M4,1.27a59,59,0,0,0,7.29,3.5c.51.19,1,.19,1.57.42.8.29.57,1.34,1.47,1.93s.9.25,1.79.84.39,1.17.71,1.47,1.06.28,1.46.42.4.37,1.14.44a6.28,6.28,0,0,1,1.36,0c.6.15.7.54,1.47.57s1.16-.32,1.83-.32,1.18.52,3,1,5.07,1.32,6.09,1.61c1,.94,1.15,5.88-4.3,10.59-4.82,4.15-11.5,5.74-20.67,1.11C.4,20.9-2.13,8.63,4,1.27Z"/><path class="cls-7" d="M33.18,13.14c-1-.29-4.3-1.16-6.09-1.61a6.42,6.42,0,0,0-2.38-.37C26,16.07,19.8,17.83,19,18a11.13,11.13,0,0,1-5.4-.38,11.21,11.21,0,0,1-4.51-2.53,9.06,9.06,0,0,1-1.84-2.73,10.7,10.7,0,0,1-1-3.84,7.29,7.29,0,0,1,.48-3.37A2.81,2.81,0,0,1,8.33,3.47,37.91,37.91,0,0,1,4,1.27C-2.13,8.63.4,20.9,8.21,24.84c9.17,4.63,15.85,3,20.67-1.11C34.33,19,34.19,14.08,33.18,13.14Z"/><path class="cls-8" d="M33.18,13.14c-1-.29-4.3-1.16-6.09-1.61s-2.29-1-3-1c5,3.19,1.56,7.92.58,8.92a10.78,10.78,0,0,1-4.31,2.3,15.52,15.52,0,0,1-4.86.1,16.09,16.09,0,0,1-4.65-1,11.44,11.44,0,0,1-2-1,10.73,10.73,0,0,1-2.05-1.63,12.48,12.48,0,0,1-3.38-6.48,14.4,14.4,0,0,1-.24-1.85,13.07,13.07,0,0,1,0-1.77,15.15,15.15,0,0,1,.37-2.32,12.09,12.09,0,0,1,.91-2.7A4,4,0,0,1,5.27,2,12.53,12.53,0,0,1,4,1.27C-2.13,8.63.4,20.9,8.21,24.84c9.17,4.63,15.85,3,20.67-1.11C34.33,19,34.19,14.08,33.18,13.14Z"/><path class="cls-9" d="M11.77,5.4c.08.68-.63,1.59-.48,1.95s.74.33.88.71-.35.85-.19,1.06,1.4-.07,1.51.68a8.27,8.27,0,0,0,.31,1.85c.76.66,1.38.1,1.91.46.27.18.57.84,1.23,1.09s1.28-.14,1.55-.13.76.4,1.29.4S20.71,13,21,13s.58.09.87.13a2,2,0,0,0,.84,0,1.49,1.49,0,0,0,.65-.43,3.35,3.35,0,0,0,.29-.44,1.52,1.52,0,0,1,1.17-.55A11.06,11.06,0,0,1,26,11.66h.34s0-.19,0-.22v-.13a10.48,10.48,0,0,0-2.19-.74c-.67,0-1.08.34-1.83.32s-.87-.42-1.47-.57a6.28,6.28,0,0,0-1.36,0c-.74-.07-.64-.27-1.14-.44s-1,0-1.46-.42.19-.87-.71-1.47-.9-.25-1.79-.84S13.7,5.48,12.9,5.19a11.69,11.69,0,0,0-1.29-.33A1.55,1.55,0,0,1,11.77,5.4Z"/><path class="cls-15" d="M25.8,11.13a7.09,7.09,0,0,0-1.13.11,2.74,2.74,0,0,0-.88.28c-.22.14-.39.33-.6.48a1.08,1.08,0,0,1-.71.23c-.32,0-.62-.07-.94-.09a1.62,1.62,0,0,0-.49,0,3.68,3.68,0,0,0-.5.18,1.85,1.85,0,0,1-.87.13c-.26,0-.51-.12-.77-.17a2.41,2.41,0,0,0-.53-.07,2.56,2.56,0,0,1-.39,0A.56.56,0,0,1,17.6,12c-.17-.32-.13-.73-.5-.92a2.18,2.18,0,0,0-1.29,0,1.63,1.63,0,0,1-1.09-.06c-.41-.25-.36-.77-.36-1.19a.74.74,0,0,0-.5-.75,5.65,5.65,0,0,1-.73-.23.59.59,0,0,1-.3-.6.9.9,0,0,0-.1-.53,1.24,1.24,0,0,0-.28-.28,1.08,1.08,0,0,1-.4-.42A1.71,1.71,0,0,1,12,6.15a2.48,2.48,0,0,0,0-.72,1.14,1.14,0,0,0-.3-.55l-.08,0a1.55,1.55,0,0,1,.16.54c.08.68-.63,1.59-.48,1.95s.74.33.88.71-.35.85-.19,1.06,1.4-.07,1.51.68a8.27,8.27,0,0,0,.31,1.85c.76.66,1.38.1,1.91.46.27.18.57.84,1.23,1.09s1.28-.14,1.55-.13.76.4,1.29.4S20.71,13,21,13s.58.09.87.13a2,2,0,0,0,.84,0,1.49,1.49,0,0,0,.65-.43,3.35,3.35,0,0,0,.29-.44,1.52,1.52,0,0,1,1.17-.55A11.06,11.06,0,0,1,26,11.66h.34s0-.19,0-.22v-.13Z"/><path class="cls-16" d="M12,5a4.8,4.8,0,0,1,.6.3,1.93,1.93,0,0,1,.77,1.24,1.34,1.34,0,0,0,.4.76,1.56,1.56,0,0,0,.66.25,2,2,0,0,1,1.26.54,1.49,1.49,0,0,1,.25.56,3,3,0,0,0,.25.77,1.67,1.67,0,0,0,1.35.6,4.52,4.52,0,0,1,.75.14,4.52,4.52,0,0,1,.66.33,2,2,0,0,0,.73.28,8.86,8.86,0,0,0,.9-.07,1.3,1.3,0,0,1,.75.27,2.09,2.09,0,0,0,.89.39,1.83,1.83,0,0,0,1.08-.19,4,4,0,0,1,.92-.36,2.5,2.5,0,0,1,.82,0,2.26,2.26,0,0,0-.88-.23c-.67,0-1.08.34-1.83.32s-.87-.42-1.47-.57a6.28,6.28,0,0,0-1.36,0c-.74-.07-.64-.27-1.14-.44s-1,0-1.46-.42.19-.87-.71-1.47-.9-.25-1.79-.84S13.7,5.48,12.9,5.19a6.17,6.17,0,0,0-1-.26Z"/><path class="cls-2" d="M33.18,13.14c-1.54-1.16-4.38-1.56-7.35-2a1.65,1.65,0,0,1-.24.54c2.68.66,4.55,2.6,4.77,3.79.6,6.47-8.55,10-13.07,10A18.34,18.34,0,0,1,9,23.76a13.29,13.29,0,0,1-5.94-6.21,19.08,19.08,0,0,1-1.56-8A13.2,13.2,0,0,1,4.31,1.44L4,1.27c-6.17,7.36-3.62,19.61,4,23.87,7.88,4.38,16.83,3.14,21.65-1C35.16,19.41,34.19,14.08,33.18,13.14Z"/><path class="cls-3" d="M21.74,26.18c1.4-.35,4.61-1.34,6-2.44A14.82,14.82,0,0,0,32.14,18c.64-1.71.34-4.48,1.17-4.65,0-.06-.09-.11-.13-.16-1.54-1.16-4.38-1.56-7.35-2a1.65,1.65,0,0,1-.24.54c2.68.66,4.55,2.6,4.77,3.79.6,6.47-8.55,10-13.07,10A18.34,18.34,0,0,1,9,23.76a13.29,13.29,0,0,1-5.94-6.21,19.08,19.08,0,0,1-1.56-8A13.2,13.2,0,0,1,4.31,1.44L4,1.27c-6.17,7.36-3.62,19.61,4,23.87A22.5,22.5,0,0,0,21.74,26.18Z"/><path class="cls-4" d="M2.68,19.11a8.38,8.38,0,0,0,2.64,2.28,8.68,8.68,0,0,0,.92.45,12.9,12.9,0,0,1-3.16-4.29,19.08,19.08,0,0,1-1.56-8A13.2,13.2,0,0,1,4.31,1.44L4,1.27C.14,5.93-.28,12.55,1.88,17.86A11,11,0,0,0,2.68,19.11Z"/><path class="cls-4" d="M29.62,13a4.78,4.78,0,0,0,.2-1.2c-1.22-.27-2.59-.47-4-.68a1.65,1.65,0,0,1-.24.54,7.93,7.93,0,0,1,3.64,2A1.74,1.74,0,0,0,29.62,13Z"/></svg>