<svg id="Layer_1" data-name="Layer 1" xmlns="http://www.w3.org/2000/svg" viewBox="0 0 174 86"><defs><style>.cls-1{opacity:0.3;}.cls-2{fill:#893d30;}.cls-3{fill:#afc806;}.cls-4{fill:#f8f2c3;}.cls-5,.cls-6{fill:#eddd9a;}.cls-6{opacity:0.9;}</style></defs><g class="cls-1"><ellipse cx="146.76" cy="78.18" rx="26.5" ry="4"/><path d="M80.68,71.68A130,130,0,0,0,61.54,75.2c-2.27.13-4.68.34-7.17.63-1.25.14-2.48.3-3.67.47a92,92,0,0,0-19.33.53C18.36,78.32,8,81.31,8.28,83.52s11,2.77,24,1.28c1.25-.14,2.48-.3,3.67-.47a92,92,0,0,0,19.33-.53q1.11-.12,2.19-.27c5.68.75,14.59.64,24.51-.5,16.7-1.91,30-6,29.59-9.15S97.38,69.76,80.68,71.68Z"/></g><path class="cls-2" d="M151.57,12.65c.78-4.78,4.86-14.61,8-11.78.94.84.27,1.53-.59,2.25s-4.08,1.92-5.39,9.44C152,22,151.57,12.65,151.57,12.65Z"/><path class="cls-3" d="M172.69,58.7c1-11.48-6.48-22.19-8.26-33.16-1.52-9.39-6.52-12.11-8.92-12.88a4.46,4.46,0,0,0-1.31-.3c-6.9-1.2-11.39-1.57-17.69,12.53-3.58,8-8.26,12.29-11.89,19.12-2.68,5-5.93,15.92-.23,24.77a20.37,20.37,0,0,0,8.83,7.07l.17.07a35.88,35.88,0,0,0,10.76,2.87c5.44.58,11.63.35,16.28-1.69C163.25,75.87,171.48,72.09,172.69,58.7Z"/><path class="cls-4" d="M146.4,75.82a27.13,27.13,0,0,0,12.82-2c2.39-1.05,10.1-3.87,11.19-16,.57-6.35-2.1-13-4.54-19.53a66.7,66.7,0,0,1-3.69-13,19.81,19.81,0,0,0-1.87-5.93c-1.95-3.77-5.68-5.4-9.72-5.67-2.8-.2-7.15-.12-11.91,10.69A63,63,0,0,1,132.22,36,82.18,82.18,0,0,0,127,44.49c-2.46,4.64-5,13.35-.13,21.73a17.18,17.18,0,0,0,7.58,6.71l.14.06a33.85,33.85,0,0,0,10,2.68C145.2,75.73,145.81,75.78,146.4,75.82Z"/><path class="cls-2" d="M140.91,79.72a2.06,2.06,0,0,0,1.26-.37,3.55,3.55,0,0,0,.51,1,1.3,1.3,0,0,0,1,.46c1,0,1.35-.92,1.58-1.32a1.6,1.6,0,0,0,2.3.66c1.41-1,.51-2.17-.7-2.28a28.66,28.66,0,0,1-2.94-.14c-.49-.1-1.39-.36-1.88-.5a1.38,1.38,0,0,0-1.88.93A1.28,1.28,0,0,0,140.91,79.72Z"/><path class="cls-5" d="M153.5,14.09c-1.11,1.87-1.85,4.64-3.71,13.59-1.78,8.61-2.2,12.12,0,16.8s5.73,9.91,2.76,16a8.63,8.63,0,0,1-4.15,3.92,3.79,3.79,0,0,0-2.09,2.82,51.61,51.61,0,0,0-.65,5.61,5.61,5.61,0,0,0,.79,3,7.21,7.21,0,0,1-4.4-.53s1.1-2.38,1.81-8.11a3.86,3.86,0,0,0-1.53-3.51,8.6,8.6,0,0,1-3.37-8c.6-7.28,5.94-9.59,6.83-14,1.31-6.48.81-7.37,4.17-21.78,1.1-4.74,1.28-6.23,1.28-6.23A7.41,7.41,0,0,1,153.5,14.09Z"/><path class="cls-2" d="M148.68,52.25c1.12,1.77,2.9,4.18,2.41,6.14s-4,2.46-4.06-.9S148.17,51.44,148.68,52.25Z"/><path class="cls-2" d="M144.49,50.84c-1.13,0-3.84,3.52-3.71,5.53.14,2.23,3.6,2.84,3.87-.51S145.45,50.83,144.49,50.84Z"/><path class="cls-3" d="M68.26,46.44c-19.63,3.24-41.65,8.86-66.35,9.3h0a2.38,2.38,0,0,0-.84,1.45C0,61.24.94,71.42,10.42,78,20.78,85.1,31.5,81.5,37.75,77,46.3,70.84,49.58,66.53,58,62.53,68.12,57.69,71.84,51.66,68.26,46.44Z"/><path class="cls-4" d="M67.37,46.54c-19,1.34-62,7.85-65.46,9.2A36,36,0,0,0,5.17,66.27l.07.15a18.18,18.18,0,0,0,7.44,7.76c9.09,4.84,18.23,1.76,23-1.05a89.29,89.29,0,0,0,8.83-5.91A66,66,0,0,1,56.6,59.88c11.27-5.5,11-9.09,10.88-12.07C67.46,47.38,67.42,47,67.37,46.54Z"/><path class="cls-6" d="M11.61,53.8a4.11,4.11,0,0,1,2.13,1.38c1.37,1.67,4.94,5.51,9.49,5.07,8.17-.78,11.24-8.35,15.18-10.46C28.48,51.13,18.61,52.62,11.61,53.8Z"/><path class="cls-2" d="M23.24,53.69c-3.52.56-3.23,3.9-.86,4.06s5.27-2.72,5.71-4.17C28.39,52.61,26.06,53.24,23.24,53.69Z"/><path class="cls-3" d="M91.76,48.56c-19.8,2-42.13,6.22-66.8,5.1h0A2.35,2.35,0,0,0,24,55.05c-1.28,4-1,14.19,8,21.31,9.89,7.79,20.81,4.87,27.34.77,8.92-5.6,12.46-9.69,21.1-13.16C90.91,59.78,95,54,91.76,48.56Z"/><path class="cls-4" d="M90.87,48.61c-19,.13-62.42,3.91-65.91,5a36.12,36.12,0,0,0,2.59,10.72l.06.15a18.24,18.24,0,0,0,6.93,8.21c8.77,5.4,18.08,2.91,23.07.4a87.68,87.68,0,0,0,9.18-5.33,66.1,66.1,0,0,1,12.49-6.57c11.6-4.78,11.57-8.38,11.62-11.36C90.91,49.45,90.89,49,90.87,48.61Z"/><path class="cls-6" d="M34.76,52.34a4.16,4.16,0,0,1,2,1.5c1.27,1.76,4.58,5.82,9.15,5.67,8.21-.27,11.75-7.63,15.81-9.49C51.77,50.73,41.82,51.6,34.76,52.34Z"/><path class="cls-2" d="M46.38,53c-3.55.34-3.47,3.69-1.12,4s5.44-2.38,6-3.8C51.58,52.2,49.22,52.69,46.38,53Z"/><path class="cls-3" d="M116.08,59c-19.64-3.24-42.29-5-65.82-12.51h0A2.37,2.37,0,0,0,49,47.56C46.72,51.07,44.3,61,51.18,70.23,58.7,80.32,70,80.36,77.37,78.1,87.44,75,91.93,72,101.18,70.9,112.33,69.58,117.79,65.06,116.08,59Z"/><path class="cls-4" d="M115.2,58.78c-18.41-4.84-61.27-12.5-64.94-12.32a36.2,36.2,0,0,0-.3,11l0,.17a18.15,18.15,0,0,0,4.55,9.73c7,7.5,16.7,7.52,22.16,6.41A88.26,88.26,0,0,0,87,71,65.69,65.69,0,0,1,100.72,68c12.44-1.59,13.35-5.07,14.18-7.93C115,59.61,115.12,59.19,115.2,58.78Z"/><path class="cls-6" d="M60.06,47.74a4.11,4.11,0,0,1,1.58,2c.76,2,2.91,6.81,7.36,7.85,8,1.89,13.33-4.3,17.74-5C76.9,50.63,67.08,48.87,60.06,47.74Z"/><path class="cls-2" d="M71.12,51.38C67.6,50.77,66.81,54,69,54.94s5.86-.88,6.75-2.11C76.34,52,73.93,51.86,71.12,51.38Z"/></svg>