<svg xmlns="http://www.w3.org/2000/svg" viewBox="0 0 150 42"><defs><style>.cls-1{isolation:isolate;}.cls-2{opacity:0.3;}.cls-3{fill:#cc0a00;}.cls-4{fill:#b70000;}.cls-5{fill:#bc0000;}.cls-14,.cls-6{fill:#f85b29;}.cls-7{fill:#c9241c;}.cls-8{fill:#a30707;}.cls-9{fill:#f2b12f;}.cls-10{fill:#ffde55;}.cls-11{fill:#fff2bb;}.cls-12{fill:#dc1b00;}.cls-13{fill:#ef1600;}.cls-14,.cls-15,.cls-16,.cls-17,.cls-19{opacity:0.5;}.cls-15{fill:#ff6131;}.cls-16{fill:#fe955d;}.cls-17{mix-blend-mode:soft-light;}.cls-18{fill:#ba0000;}.cls-19{fill:#ffd5c2;mix-blend-mode:color-dodge;}</style></defs><g class="cls-1"><g id="Layer_1" data-name="Layer 1"><path class="cls-2" d="M72.5,28.89A97.24,97.24,0,0,0,56.91,30c-1.73-.07-3.54-.12-5.41-.12s-3.75.05-5.52.13c-.43-5.63-10.33-10.13-22.48-10.13C11.07,19.89,1,24.6,1,30.39s10.07,10.5,22.5,10.5c9.5,0,17.38-1.83,21.5-4,3.29.34,5.93,1,10,1a55.84,55.84,0,0,0,12.09-1.11c1.73.07,3.54.11,5.41.11,12.43,0,22.5-1.79,22.5-4S84.93,28.89,72.5,28.89Z"/><ellipse class="cls-2" cx="124.5" cy="32.89" rx="22.5" ry="4"/><path class="cls-3" d="M46.7,28.48a12.09,12.09,0,0,1-.2,4.7,3.89,3.89,0,0,1-1.24,2.25c-4.44,2.66-16.8,3.37-20.89,3-9-.69-15.48-1.89-20.63-4.81C1.68,32.5.89,31.16.69,30.14.27,28,1.21,24,1.21,24Z"/><path class="cls-4" d="M24.36,38.61A83.51,83.51,0,0,1,12.59,37a31.79,31.79,0,0,1-8.92-3.26C1.32,32.45.71,31,.56,30.17c-.43-2.11.48-6,.52-6.17a.15.15,0,0,1,.14-.1l45.49,4.45a.14.14,0,0,1,.12.11,12.64,12.64,0,0,1-.2,4.75,4.14,4.14,0,0,1-1.3,2.34c-3.82,2.28-13.5,3.13-18.71,3.13C25.74,38.68,25,38.66,24.36,38.61Zm-23-14.43c-.14.66-.86,4.08-.49,5.94.14.73.73,2.15,3,3.43,4.65,2.64,10.61,4,20.58,4.8.59,0,1.37.07,2.24.07,5.18,0,14.8-.84,18.57-3.1a3.79,3.79,0,0,0,1.18-2.17,12.3,12.3,0,0,0,.21-4.55Z"/><path class="cls-5" d="M33.6,33.05c.94-1.55,2-3.18,2-5q0-.36,0-.72L46.7,28.48a12.09,12.09,0,0,1-.2,4.7,3.89,3.89,0,0,1-1.24,2.25c-4.08,2.45-14.84,3.24-19.73,3.11A14.69,14.69,0,0,0,33.6,33.05Z"/><path class="cls-6" d="M34.74,36.42a.87.87,0,0,0-.51-.55,1.67,1.67,0,0,0-.71-.19c-.88,0-1.09.39-1.17.54a.84.84,0,0,0,.24.93,1.42,1.42,0,0,0,1,.22,2.63,2.63,0,0,0,.86-.27A.56.56,0,0,0,34.74,36.42Z"/><path class="cls-7" d="M34.63,36.43a1.29,1.29,0,0,0-.62-.31,2.09,2.09,0,0,0-.86,0,.69.69,0,0,0-.42.31.63.63,0,0,0,.15.7,1.19,1.19,0,0,0,.78.17,2.29,2.29,0,0,0,.78-.27A.42.42,0,0,0,34.63,36.43Z"/><path class="cls-8" d="M34.35,36.6s0-.06-.05-.12a2,2,0,0,0-.47-.16,1,1,0,0,0-.47,0,.4.4,0,0,0-.27.2.38.38,0,0,0,.09.44.46.46,0,0,0,.37.1,3.17,3.17,0,0,0,.77-.26.2.2,0,0,0,.06-.11A.15.15,0,0,0,34.35,36.6Z"/><path class="cls-9" d="M34.28,36.6s0-.05-.05-.09a1.63,1.63,0,0,0-.41-.14.86.86,0,0,0-.42,0,.37.37,0,0,0-.24.16.33.33,0,0,0,.08.38.45.45,0,0,0,.33.07,2.22,2.22,0,0,0,.68-.22s.06-.07,0-.09A.2.2,0,0,0,34.28,36.6Z"/><path class="cls-10" d="M34.15,36.62s0,0,0-.07a1.87,1.87,0,0,0-.33-.1.73.73,0,0,0-.33,0,.31.31,0,0,0-.19.12.22.22,0,0,0,.06.27.33.33,0,0,0,.26,0,2,2,0,0,0,.54-.16s0-.06,0-.07A.07.07,0,0,0,34.15,36.62Z"/><path class="cls-11" d="M33.56,36.52c.06,0-.12,0-.16,0a.12.12,0,0,0-.09.09.18.18,0,0,0,0,.19s.14.09.13,0S33.4,36.61,33.56,36.52Z"/><path class="cls-6" d="M24.69,34.71a1,1,0,0,0-.46-.68,2.19,2.19,0,0,0-.74-.32c-.94-.17-1.24.24-1.34.39a.91.91,0,0,0,.12,1,1.59,1.59,0,0,0,1.07.39,2.72,2.72,0,0,0,1-.14A.6.6,0,0,0,24.69,34.71Z"/><path class="cls-7" d="M24.58,34.7a1.59,1.59,0,0,0-.63-.44,2.36,2.36,0,0,0-.92-.15.71.71,0,0,0-.5.26.67.67,0,0,0,.06.77,1.46,1.46,0,0,0,.82.31,2.52,2.52,0,0,0,.87-.17A.45.45,0,0,0,24.58,34.7Z"/><path class="cls-8" d="M24.25,34.83s.06-.06,0-.13a3.46,3.46,0,0,0-.48-.26,1.2,1.2,0,0,0-.51-.09.41.41,0,0,0-.32.17.42.42,0,0,0,0,.49.52.52,0,0,0,.39.16,2.88,2.88,0,0,0,.87-.16.16.16,0,0,0,.08-.1A.29.29,0,0,0,24.25,34.83Z"/><path class="cls-9" d="M24.17,34.82s0,0,0-.1a2.68,2.68,0,0,0-.42-.22.94.94,0,0,0-.45-.08.37.37,0,0,0-.28.14A.35.35,0,0,0,23,35a.48.48,0,0,0,.34.13,3,3,0,0,0,.76-.12s.08-.07.08-.09Z"/><path class="cls-10" d="M24,34.82s0,0,0-.08a1.83,1.83,0,0,0-.34-.16.89.89,0,0,0-.35-.06.32.32,0,0,0-.22.1.24.24,0,0,0,0,.31.41.41,0,0,0,.28.09,2.08,2.08,0,0,0,.6-.09.11.11,0,0,0,.06-.06A.12.12,0,0,0,24,34.82Z"/><path class="cls-11" d="M23.41,34.62c.06,0-.12,0-.18,0a.15.15,0,0,0-.11.08.2.2,0,0,0,0,.21s.14.12.13.06S23.22,34.69,23.41,34.62Z"/><path class="cls-6" d="M21.18,36.83a.78.78,0,0,0-.32-.55,1.59,1.59,0,0,0-.55-.31c-.71-.2-1,.09-1.06.2a.69.69,0,0,0,0,.8,1.25,1.25,0,0,0,.8.39,2.29,2.29,0,0,0,.75,0A.47.47,0,0,0,21.18,36.83Z"/><path class="cls-7" d="M21.09,36.81a1.21,1.21,0,0,0-.46-.38,1.88,1.88,0,0,0-.7-.19.56.56,0,0,0-.4.16.51.51,0,0,0,0,.6,1.1,1.1,0,0,0,.61.3,1.86,1.86,0,0,0,.69-.06A.35.35,0,0,0,21.09,36.81Z"/><path class="cls-8" d="M20.82,36.89s.05,0,0-.1a2.12,2.12,0,0,0-.35-.24,1,1,0,0,0-.39-.11.31.31,0,0,0-.27.49.43.43,0,0,0,.29.15,2.39,2.39,0,0,0,.68,0,.13.13,0,0,0,.07-.08S20.82,36.89,20.82,36.89Z"/><path class="cls-9" d="M20.76,36.88s0,0,0-.09a1.68,1.68,0,0,0-.31-.19.77.77,0,0,0-.34-.1.31.31,0,0,0-.23.08.26.26,0,0,0,0,.32.36.36,0,0,0,.25.13,2.18,2.18,0,0,0,.6,0s.06,0,.06-.06A.2.2,0,0,0,20.76,36.88Z"/><path class="cls-10" d="M20.66,36.86s0,0,0-.06l-.25-.15a.72.72,0,0,0-.27-.07.24.24,0,0,0-.18.06.19.19,0,0,0,0,.24.31.31,0,0,0,.2.09,1.61,1.61,0,0,0,.48,0s.05,0,.05-.05Z"/><path class="cls-11" d="M20.19,36.66s-.09,0-.13,0a.12.12,0,0,0-.1.05.2.2,0,0,0,0,.17s.1.1.1.06S20,36.71,20.19,36.66Z"/><path class="cls-6" d="M15.83,35.82a.94.94,0,0,0-.36-.69,1.85,1.85,0,0,0-.65-.4c-.87-.29-1.2.05-1.31.18a.83.83,0,0,0,0,1,1.54,1.54,0,0,0,.95.51,2.54,2.54,0,0,0,.93,0A.57.57,0,0,0,15.83,35.82Z"/><path class="cls-7" d="M15.72,35.8a1.66,1.66,0,0,0-.54-.5,2.14,2.14,0,0,0-.85-.26.62.62,0,0,0-.5.17.63.63,0,0,0,0,.72,1.35,1.35,0,0,0,.73.41,2.62,2.62,0,0,0,.85,0A.41.41,0,0,0,15.72,35.8Z"/><path class="cls-8" d="M15.39,35.87s.06,0,0-.12a2.69,2.69,0,0,0-.42-.31,1.12,1.12,0,0,0-.47-.15.37.37,0,0,0-.32.11.39.39,0,0,0,0,.46.49.49,0,0,0,.34.2,2.68,2.68,0,0,0,.84,0s.09-.06.09-.09S15.39,35.87,15.39,35.87Z"/><path class="cls-9" d="M15.31,35.86s.06,0,0-.11l-.38-.26a.94.94,0,0,0-.41-.13.35.35,0,0,0-.28.08.31.31,0,0,0,0,.39.43.43,0,0,0,.3.17,2.25,2.25,0,0,0,.73,0,.1.1,0,0,0,.08-.07S15.31,35.86,15.31,35.86Z"/><path class="cls-10" d="M15.19,35.83s0,0,0-.07a2.21,2.21,0,0,0-.3-.2.84.84,0,0,0-.33-.1.33.33,0,0,0-.22.06.24.24,0,0,0,0,.29.47.47,0,0,0,.24.13,2.89,2.89,0,0,0,.59,0s.06,0,.06-.06A.43.43,0,0,0,15.19,35.83Z"/><path class="cls-11" d="M14.63,35.56c.06,0-.11-.06-.16-.06a.2.2,0,0,0-.12.06.21.21,0,0,0,0,.2s.12.13.12.08S14.44,35.61,14.63,35.56Z"/><path class="cls-6" d="M12.59,32.92a.71.71,0,0,0-.23-.51,1.35,1.35,0,0,0-.45-.31c-.61-.24-.85,0-.94.07a.62.62,0,0,0-.05.7,1.09,1.09,0,0,0,.66.4,1.73,1.73,0,0,0,.66,0A.4.4,0,0,0,12.59,32.92Z"/><path class="cls-7" d="M12.51,32.9a1,1,0,0,0-.37-.37,1.41,1.41,0,0,0-.58-.23.49.49,0,0,0-.37.1.44.44,0,0,0-.06.51,1,1,0,0,0,.51.32,1.82,1.82,0,0,0,.6,0A.3.3,0,0,0,12.51,32.9Z"/><path class="cls-8" d="M12.27,32.94s.05,0,0-.09a1.83,1.83,0,0,0-.29-.23.78.78,0,0,0-.33-.14.3.3,0,0,0-.23.07.28.28,0,0,0,0,.32.35.35,0,0,0,.23.16,1.93,1.93,0,0,0,.6,0s.06,0,.07-.06A.2.2,0,0,0,12.27,32.94Z"/><path class="cls-9" d="M12.22,32.92s0,0,0-.07a3.11,3.11,0,0,0-.25-.2.72.72,0,0,0-.29-.12.27.27,0,0,0-.2.06.22.22,0,0,0,0,.27.38.38,0,0,0,.21.13,1.76,1.76,0,0,0,.53,0l.05-.05A.08.08,0,0,0,12.22,32.92Z"/><path class="cls-10" d="M12.13,32.9s0,0,0,0a1.15,1.15,0,0,0-.2-.15.55.55,0,0,0-.23-.09.2.2,0,0,0-.16,0,.17.17,0,0,0,0,.21.35.35,0,0,0,.17.1,1.73,1.73,0,0,0,.41,0,.09.09,0,0,0,.05,0A.1.1,0,0,0,12.13,32.9Z"/><path class="cls-11" d="M11.75,32.69s-.08,0-.12,0a.08.08,0,0,0-.08,0,.13.13,0,0,0,0,.14s.08.1.08.06S11.61,32.71,11.75,32.69Z"/><path class="cls-6" d="M3.64,30.83a.77.77,0,0,0-.09-.61,1.49,1.49,0,0,0-.4-.49c-.58-.47-.92-.31-1-.24a.63.63,0,0,0-.27.72,1.31,1.31,0,0,0,.6.66,2.34,2.34,0,0,0,.7.26A.42.42,0,0,0,3.64,30.83Z"/><path class="cls-7" d="M3.56,30.78a1.16,1.16,0,0,0-.28-.52,1.94,1.94,0,0,0-.57-.44.54.54,0,0,0-.43,0,.49.49,0,0,0-.22.53,1.15,1.15,0,0,0,.45.51,1.92,1.92,0,0,0,.66.21A.31.31,0,0,0,3.56,30.78Z"/><path class="cls-8" d="M3.29,30.74s.06,0,0-.09a1.69,1.69,0,0,0-.24-.35.83.83,0,0,0-.32-.25.29.29,0,0,0-.27,0,.28.28,0,0,0-.14.33.42.42,0,0,0,.21.25,2.17,2.17,0,0,0,.64.22.1.1,0,0,0,.09,0S3.29,30.74,3.29,30.74Z"/><path class="cls-9" d="M3.24,30.71s0,0,0-.08a1.51,1.51,0,0,0-.21-.3.94.94,0,0,0-.28-.22.33.33,0,0,0-.24,0,.25.25,0,0,0-.12.28.37.37,0,0,0,.19.22,2.13,2.13,0,0,0,.56.2s.07,0,.08,0S3.24,30.71,3.24,30.71Z"/><path class="cls-10" d="M3.15,30.66s0,0,0-.06A1.62,1.62,0,0,0,3,30.37a.87.87,0,0,0-.22-.18.25.25,0,0,0-.19,0,.16.16,0,0,0-.08.21.33.33,0,0,0,.15.16,2.39,2.39,0,0,0,.44.17l.07,0Z"/><path class="cls-11" d="M2.8,30.3s-.08-.08-.11-.09a.14.14,0,0,0-.11,0,.18.18,0,0,0-.06.15s0,.13.07.09S2.64,30.27,2.8,30.3Z"/><path class="cls-6" d="M27.9,37.28a.87.87,0,0,0-.37-.65,1.68,1.68,0,0,0-.64-.35c-.84-.25-1.13.1-1.24.22a.8.8,0,0,0,0,.94,1.37,1.37,0,0,0,.92.45,2.29,2.29,0,0,0,.88,0A.55.55,0,0,0,27.9,37.28Z"/><path class="cls-7" d="M27.79,37.26a1.35,1.35,0,0,0-.53-.45,1.94,1.94,0,0,0-.82-.22.63.63,0,0,0-.47.19.59.59,0,0,0,0,.69,1.33,1.33,0,0,0,.72.36,2.4,2.4,0,0,0,.8-.08A.39.39,0,0,0,27.79,37.26Z"/><path class="cls-8" d="M27.48,37.34s.06,0,0-.11a2.42,2.42,0,0,0-.41-.28,1.14,1.14,0,0,0-.46-.13.47.47,0,0,0-.3.12.39.39,0,0,0,0,.45.49.49,0,0,0,.34.17,2.48,2.48,0,0,0,.79-.05s.09-.07.09-.09A.29.29,0,0,0,27.48,37.34Z"/><path class="cls-9" d="M27.41,37.33s.05,0,0-.1A2.71,2.71,0,0,0,27,37a1,1,0,0,0-.4-.11.35.35,0,0,0-.26.1.3.3,0,0,0,0,.37.39.39,0,0,0,.29.15,2.5,2.5,0,0,0,.7,0,.13.13,0,0,0,.07-.08S27.41,37.33,27.41,37.33Z"/><path class="cls-10" d="M27.29,37.32s0,0,0-.08L27,37.07a.79.79,0,0,0-.32-.08c-.07,0-.17,0-.21.07a.22.22,0,0,0,0,.27.38.38,0,0,0,.24.11,2.11,2.11,0,0,0,.55,0s.06,0,.06-.06Z"/><path class="cls-11" d="M26.75,37.08c.05,0-.11,0-.16,0s-.09,0-.11.06a.2.2,0,0,0,0,.19s.12.12.12.07S26.57,37.13,26.75,37.08Z"/><path class="cls-6" d="M37.9,34.09c0-.23-.23-.37-.44-.49a2,2,0,0,0-.67-.22c-.87-.1-1.13.21-1.22.32a.56.56,0,0,0,.11.76,1.69,1.69,0,0,0,1,.27,3.37,3.37,0,0,0,.88-.13A.46.46,0,0,0,37.9,34.09Z"/><path class="cls-7" d="M37.79,34.08a1.48,1.48,0,0,0-.58-.3,2.49,2.49,0,0,0-.84-.09.67.67,0,0,0-.45.2.42.42,0,0,0,0,.57,1.57,1.57,0,0,0,.75.21,3.13,3.13,0,0,0,.8-.15C37.79,34.44,37.88,34.2,37.79,34.08Z"/><path class="cls-8" d="M37.49,34.19s0,0,0-.1a2.13,2.13,0,0,0-.44-.17,1.11,1.11,0,0,0-.47-.06.43.43,0,0,0-.29.13.27.27,0,0,0,0,.36.54.54,0,0,0,.35.11,3.16,3.16,0,0,0,.79-.13s.08-.06.08-.08A.13.13,0,0,0,37.49,34.19Z"/><path class="cls-9" d="M37.41,34.19s.05,0,0-.08A2.68,2.68,0,0,0,37,34a1,1,0,0,0-.41-.05.34.34,0,0,0-.25.11.2.2,0,0,0,0,.3.48.48,0,0,0,.31.09,2.93,2.93,0,0,0,.7-.11.1.1,0,0,0,.06-.07Z"/><path class="cls-10" d="M37.29,34.19s0,0,0-.06L37,34a.71.71,0,0,0-.32,0,.33.33,0,0,0-.21.07.18.18,0,0,0,0,.23.49.49,0,0,0,.25.06,2.59,2.59,0,0,0,.56-.08l.05-.05Z"/><path class="cls-11" d="M36.72,34.05c.06,0-.11,0-.16,0a.13.13,0,0,0-.1.06.12.12,0,0,0,0,.16s.13.08.12,0S36.55,34.11,36.72,34.05Z"/><path class="cls-6" d="M18.73,34.31a.72.72,0,0,0-.32-.57,2.32,2.32,0,0,0-.62-.37c-.83-.3-1.15-.07-1.27,0a.56.56,0,0,0,0,.77,1.7,1.7,0,0,0,.9.48,3.17,3.17,0,0,0,.89.08A.44.44,0,0,0,18.73,34.31Z"/><path class="cls-7" d="M18.63,34.28a1.43,1.43,0,0,0-.51-.43,2.55,2.55,0,0,0-.8-.28.66.66,0,0,0-.49.09.4.4,0,0,0-.07.56,1.68,1.68,0,0,0,.7.38,3.4,3.4,0,0,0,.82,0C18.55,34.63,18.69,34.42,18.63,34.28Z"/><path class="cls-8" d="M18.31,34.31s.06,0,0-.1a3.05,3.05,0,0,0-.4-.27,1.38,1.38,0,0,0-.45-.17.46.46,0,0,0-.31.06.27.27,0,0,0-.05.36.57.57,0,0,0,.33.19,3.31,3.31,0,0,0,.81,0,.15.15,0,0,0,.09-.06A.35.35,0,0,0,18.31,34.31Z"/><path class="cls-9" d="M18.24,34.29s.05,0,0-.08a2.32,2.32,0,0,0-.35-.24,1.22,1.22,0,0,0-.39-.14.43.43,0,0,0-.28.05.21.21,0,0,0,0,.3.47.47,0,0,0,.29.15,2.51,2.51,0,0,0,.71.06s.07,0,.07,0A.08.08,0,0,0,18.24,34.29Z"/><path class="cls-10" d="M18.12,34.26s0,0,0-.06L17.82,34a1.35,1.35,0,0,0-.32-.11.47.47,0,0,0-.21,0,.15.15,0,0,0,0,.23.46.46,0,0,0,.23.12,4.15,4.15,0,0,0,.56.05s.06,0,.06,0S18.12,34.26,18.12,34.26Z"/><path class="cls-11" d="M17.59,34c.05,0-.11,0-.16-.06a.18.18,0,0,0-.11,0,.16.16,0,0,0,0,.16s.11.11.12.07S17.4,34,17.59,34Z"/><path class="cls-6" d="M10,35a.85.85,0,0,0-.32-.68A2.51,2.51,0,0,0,9,33.85c-.92-.42-1.32-.18-1.46-.09a.62.62,0,0,0-.12.86,2,2,0,0,0,1,.64,3.38,3.38,0,0,0,1,.18A.51.51,0,0,0,10,35Z"/><path class="cls-7" d="M9.84,35a1.73,1.73,0,0,0-.54-.55,3.23,3.23,0,0,0-.9-.4.83.83,0,0,0-.57.06.47.47,0,0,0-.13.63,1.87,1.87,0,0,0,.77.5,3.19,3.19,0,0,0,.93.13C9.72,35.36,9.9,35.14,9.84,35Z"/><path class="cls-8" d="M9.47,35s.08,0,0-.11A3.52,3.52,0,0,0,9,34.51a1.5,1.5,0,0,0-.5-.23.49.49,0,0,0-.36,0,.29.29,0,0,0-.08.4.62.62,0,0,0,.36.25,4.16,4.16,0,0,0,.92.14.17.17,0,0,0,.11-.06A.56.56,0,0,0,9.47,35Z"/><path class="cls-9" d="M9.39,35s.07,0,0-.1a3.61,3.61,0,0,0-.38-.3,1.43,1.43,0,0,0-.44-.2.48.48,0,0,0-.32,0,.24.24,0,0,0-.06.34.55.55,0,0,0,.31.21,3.48,3.48,0,0,0,.81.14A.14.14,0,0,0,9.4,35,.35.35,0,0,0,9.39,35Z"/><path class="cls-10" d="M9.26,34.91s.05,0,0-.08l-.31-.23a1.38,1.38,0,0,0-.36-.15.35.35,0,0,0-.25,0,.17.17,0,0,0,0,.25.48.48,0,0,0,.26.16,2.65,2.65,0,0,0,.64.11s.07,0,.07,0Z"/><path class="cls-11" d="M8.67,34.56c.07,0-.12-.08-.17-.09a.21.21,0,0,0-.14,0,.15.15,0,0,0,0,.17s.12.14.12.09S8.46,34.56,8.67,34.56Z"/><path class="cls-6" d="M8.25,31.79A.74.74,0,0,0,8,31.18a2.11,2.11,0,0,0-.58-.45c-.79-.42-1.15-.22-1.27-.15a.53.53,0,0,0-.14.75,1.71,1.71,0,0,0,.84.61,3.19,3.19,0,0,0,.89.2A.43.43,0,0,0,8.25,31.79Z"/><path class="cls-7" d="M8.15,31.75a1.42,1.42,0,0,0-.45-.5,2.59,2.59,0,0,0-.78-.39.71.71,0,0,0-.5,0,.42.42,0,0,0-.14.55,1.69,1.69,0,0,0,.66.48,2.89,2.89,0,0,0,.81.15C8,32.09,8.2,31.9,8.15,31.75Z"/><path class="cls-8" d="M7.83,31.74s.06,0,0-.1a3.26,3.26,0,0,0-.37-.33A1.39,1.39,0,0,0,7,31.08a.49.49,0,0,0-.32,0,.26.26,0,0,0-.09.35.54.54,0,0,0,.31.23,3.58,3.58,0,0,0,.8.17.14.14,0,0,0,.1-.05A.11.11,0,0,0,7.83,31.74Z"/><path class="cls-9" d="M7.76,31.71s.06,0,0-.08l-.33-.29a1.35,1.35,0,0,0-.38-.19.39.39,0,0,0-.28,0,.22.22,0,0,0-.07.3.53.53,0,0,0,.27.2,3.69,3.69,0,0,0,.7.15s.09,0,.09,0A.08.08,0,0,0,7.76,31.71Z"/><path class="cls-10" d="M7.64,31.66s.05,0,0-.06a2.33,2.33,0,0,0-.27-.21,1.1,1.1,0,0,0-.3-.16.33.33,0,0,0-.22,0,.15.15,0,0,0,0,.22A.45.45,0,0,0,7,31.6a2.44,2.44,0,0,0,.56.13s.06,0,.06,0S7.64,31.66,7.64,31.66Z"/><path class="cls-11" d="M7.14,31.33c.06,0-.1-.07-.15-.08a.13.13,0,0,0-.12,0,.13.13,0,0,0,0,.15s.1.13.1.08S7,31.32,7.14,31.33Z"/><path class="cls-6" d="M41.93,34.58a.78.78,0,0,0-.54-.4,1.6,1.6,0,0,0-.65,0c-.78.14-.9.55-.93.7a.74.74,0,0,0,.36.78,1.19,1.19,0,0,0,.92,0,2,2,0,0,0,.71-.39A.54.54,0,0,0,41.93,34.58Z"/><path class="cls-7" d="M41.83,34.61a1.1,1.1,0,0,0-.6-.17,2,2,0,0,0-.74.15.58.58,0,0,0-.32.35.56.56,0,0,0,.24.59,1.11,1.11,0,0,0,.72,0,2.12,2.12,0,0,0,.63-.39A.37.37,0,0,0,41.83,34.61Z"/><path class="cls-8" d="M41.61,34.8s0-.06-.06-.09a2.34,2.34,0,0,0-.44-.06.83.83,0,0,0-.42.07.41.41,0,0,0-.2.23.37.37,0,0,0,.16.38.44.44,0,0,0,.34,0,2.87,2.87,0,0,0,.62-.37.14.14,0,0,0,0-.11Z"/><path class="cls-9" d="M41.55,34.82s0,0,0-.07a1.48,1.48,0,0,0-.39,0,.87.87,0,0,0-.37.07.31.31,0,0,0-.18.19.29.29,0,0,0,.14.31.32.32,0,0,0,.29,0,2.37,2.37,0,0,0,.56-.32s0-.07,0-.09Z"/><path class="cls-10" d="M41.44,34.86s0,0,0-.06l-.3,0a.65.65,0,0,0-.29.06.26.26,0,0,0-.15.14.2.2,0,0,0,.1.23.33.33,0,0,0,.24,0,2.28,2.28,0,0,0,.44-.25.13.13,0,0,0,0-.07Z"/><path class="cls-11" d="M40.91,34.88s-.11,0-.14,0-.07.05-.07.09a.21.21,0,0,0,.06.17s.14.06.12,0S40.79,35,40.91,34.88Z"/><path class="cls-6" d="M45.45,32.12a.73.73,0,0,0-.47-.37,1.39,1.39,0,0,0-.57-.06c-.7.09-.82.45-.86.58a.67.67,0,0,0,.3.71,1.12,1.12,0,0,0,.82,0,2.16,2.16,0,0,0,.64-.32A.48.48,0,0,0,45.45,32.12Z"/><path class="cls-7" d="M45.36,32.15a1,1,0,0,0-.53-.17,1.41,1.41,0,0,0-.66.1.53.53,0,0,0-.3.29.52.52,0,0,0,.2.54,1,1,0,0,0,.63,0,1.84,1.84,0,0,0,.58-.31A.34.34,0,0,0,45.36,32.15Z"/><path class="cls-8" d="M45.16,32.31s0-.05,0-.08a1.83,1.83,0,0,0-.39-.07.88.88,0,0,0-.37,0,.35.35,0,0,0-.19.19.33.33,0,0,0,.12.35.35.35,0,0,0,.3,0,2.26,2.26,0,0,0,.57-.3.11.11,0,0,0,0-.1Z"/><path class="cls-9" d="M45.1,32.33s0,0,0-.07a1.49,1.49,0,0,0-.34-.06.7.7,0,0,0-.33,0c-.07,0-.15.09-.17.16a.26.26,0,0,0,.11.29.33.33,0,0,0,.26,0,2.46,2.46,0,0,0,.51-.26.26.26,0,0,0,0-.08Z"/><path class="cls-10" d="M45,32.35s0,0,0-.05l-.27,0a.71.71,0,0,0-.26,0s-.12.07-.13.12a.17.17,0,0,0,.08.21.26.26,0,0,0,.21,0,1.65,1.65,0,0,0,.4-.2.07.07,0,0,0,0-.06Z"/><path class="cls-11" d="M44.54,32.35s-.1,0-.14,0a.14.14,0,0,0-.06.07s0,.11,0,.15.12.06.11,0S44.42,32.45,44.54,32.35Z"/><path class="cls-6" d="M31.43,34.85a.78.78,0,0,0-.35-.53,1.49,1.49,0,0,0-.57-.27c-.72-.16-1,.15-1,.27a.68.68,0,0,0,.06.8,1.25,1.25,0,0,0,.82.34,2.15,2.15,0,0,0,.75-.09A.47.47,0,0,0,31.43,34.85Z"/><path class="cls-7" d="M31.33,34.84a1.22,1.22,0,0,0-.47-.35,1.69,1.69,0,0,0-.71-.14.47.47,0,0,0-.37.78,1.1,1.1,0,0,0,.63.27,2.21,2.21,0,0,0,.68-.11A.35.35,0,0,0,31.33,34.84Z"/><path class="cls-8" d="M31.08,34.94s0,0,0-.1a1.57,1.57,0,0,0-.37-.21.82.82,0,0,0-.39-.09.33.33,0,0,0-.25.12.33.33,0,0,0,0,.38.38.38,0,0,0,.3.13,1.93,1.93,0,0,0,.67-.09.13.13,0,0,0,.07-.08A.35.35,0,0,0,31.08,34.94Z"/><path class="cls-9" d="M31,34.93s0,0,0-.08a1.63,1.63,0,0,0-.33-.18.88.88,0,0,0-.34-.08.32.32,0,0,0-.22.1.25.25,0,0,0,0,.32.35.35,0,0,0,.26.11,1.94,1.94,0,0,0,.6-.07S31,35,31,35A.12.12,0,0,0,31,34.93Z"/><path class="cls-10" d="M30.91,34.92s0,0,0-.06l-.26-.13a.72.72,0,0,0-.28,0,.21.21,0,0,0-.17.07.18.18,0,0,0,0,.23.37.37,0,0,0,.21.09,1.68,1.68,0,0,0,.47-.06s.05,0,.05,0Z"/><path class="cls-11" d="M30.43,34.75c.05,0-.09,0-.14,0a.09.09,0,0,0-.08.05.17.17,0,0,0,0,.17s.1.1.1.05S30.28,34.81,30.43,34.75Z"/><path class="cls-12" d="M10.32,17.65a22.22,22.22,0,0,1,6.94-1.31A35.83,35.83,0,0,1,29,17.76a51.72,51.72,0,0,1,12.48,5.58c2.58,1.64,7.36,4.29,4.13,6.59-2.2,1.56-8.79,3.21-14.71,3.36a77.84,77.84,0,0,1-19.25-1.72c-4.67-1.07-9-2.92-10.2-5.29s.68-3.86,2.05-4.88c.47-.35,1.55-1.09,2-1.42A17.56,17.56,0,0,1,10.32,17.65Z"/><path class="cls-13" d="M9.94,18.24a23.91,23.91,0,0,1,7-1.41,34.53,34.53,0,0,1,11.14,1.26A56.11,56.11,0,0,1,39.35,23c1.39.77,7.66,4,5.72,6-2.33,2.44-9.56,3.23-16.57,3.33A63,63,0,0,1,12.44,30.6c-4.4-1-8.5-2.5-9.75-4.68-1.35-2.45,1.51-4.36,2.75-5.15A25.75,25.75,0,0,1,9.94,18.24Z"/><path class="cls-14" d="M14.11,19.42c1.64-.75,2.39-2.25,2-2.85.39.17,1.23,1.66-.91,3.27C14.91,19.75,14.61,19.58,14.11,19.42Z"/><path class="cls-14" d="M7.07,22.84A12.77,12.77,0,0,1,1.6,24.32a13.73,13.73,0,0,0,6.47-1.13C7.84,23.09,7.47,23,7.07,22.84Z"/><path class="cls-14" d="M8.32,23.86C7.51,25,4.43,26.3,3.2,26.49a12.26,12.26,0,0,0,6.28-2.4C9.2,24,8.79,24,8.32,23.86Z"/><path class="cls-14" d="M9.59,24.7C9.47,25.93,6.13,28.59,5,28.93c1.3-.12,4.76-1.86,5.82-4C10.55,24.92,10.11,24.77,9.59,24.7Z"/><path class="cls-14" d="M16.9,20c2.13-.5,4.81-2.72,4.77-3.31.31.2-.5,2.44-4.16,3.76C17.26,20.36,17.31,20.24,16.9,20Z"/><path class="cls-14" d="M19.47,21a19.67,19.67,0,0,0,7.74-3.18c-1.09,1.59-4.35,2.92-7.22,3.54C19.73,21.29,19.89,21.25,19.47,21Z"/><path class="cls-14" d="M22.58,26.81c.77.4,5.83,4.48,5.92,5.54.73-1.36-3.24-4.78-4.69-5.43C23.52,26.9,23.07,26.84,22.58,26.81Z"/><path class="cls-14" d="M20.12,26.4c.72.41,3.79,2.49,4.28,3.68.51-1.43-2.43-3.08-2.93-3.36C21.18,26.69,20.61,26.44,20.12,26.4Z"/><path class="cls-14" d="M13.45,26c.77.73,1.18,3.87.19,5,2-1.25,1.75-4.2,1-4.86C14.37,26.14,13.87,26.12,13.45,26Z"/><path class="cls-14" d="M18.08,26.47c1.09.51,5.54,4.74,5.38,6.1,1.13-2.18-3.31-5.76-4.12-6.1C19.05,26.44,18.56,26.51,18.08,26.47Z"/><path class="cls-14" d="M15.14,26.16c1.32.68,4.52,4.47,4.58,6,.63-2.2-1.94-5.13-3.34-6C16.1,26.13,15.61,26.2,15.14,26.16Z"/><path class="cls-14" d="M11.26,25c.76.82-1.23,4.15-2.41,5.63,2.32-2,4.25-4.42,3.59-5.45C12.19,25.06,11.67,25.06,11.26,25Z"/><path class="cls-14" d="M13.11,26.06c1.17.24,4,.46,6.22.68s5.67.43,7.81.62,7.18,1.28,9.64,1.78a17.32,17.32,0,0,0,5.28.51c1.24-.17.86-.89,0-1.2-.6-.22-3.49-1.07-5.12-1.4a69,69,0,0,1-11.33-3.78c-2.15-1-4.31-1.92-6.05-2.67a30.35,30.35,0,0,0-6.21-2,12.76,12.76,0,0,0-5,.06,7.46,7.46,0,0,0-3.45,2c-.26.24-.38,1.24.82,2.19A17.58,17.58,0,0,0,13.11,26.06ZM11,24a14.34,14.34,0,0,1-4.19-2.39c-.44-.55-.21-1.5-.26-1.68.47,0,.48-.35.48-.35a32.13,32.13,0,0,1,5.22-.23,20,20,0,0,1,5.84,1.52,51.2,51.2,0,0,1,4.81,2c1.45.66,4.09,1.75,6.18,2.48A66.15,66.15,0,0,0,37.86,28c3,.56,4.21.5,3.74,1.16-.15.22-1.78.16-3.91-.27-1.53-.32-3.15-.58-5.12-1-1.33-.3-5.48-1-8.51-1.42-1.93-.26-4.73-.5-6.84-.88A47.75,47.75,0,0,1,11,24Z"/><path class="cls-15" d="M10.27,19.79,16,22c.88.34,12.68,3.56,11.31,3.82-.81.18-12.5-2.37-12.9-2.46a73.5,73.5,0,0,1-7.53-1.73c-1.23-.46-1.35-1.13-1.35-1.13a17.41,17.41,0,0,1,2.12-1.2A4.83,4.83,0,0,1,10.27,19.79Z"/><path class="cls-16" d="M15.09,22.26c1.3.52,8.07,2.29,7.84,2.46S16,23.31,13.75,22.79c-1.83-.43-7.11-1.42-7.92-2.5a6.11,6.11,0,0,1,1-.72C9.35,19.69,12.43,21.15,15.09,22.26Z"/><path class="cls-16" d="M13.65,25.67c1.17.24,3.57.62,5.76.84s5.61.54,7.75.73,7.2,1.28,9.66,1.78a21.27,21.27,0,0,0,4.51.55c1.28-.13,1.05-.91.34-1.11a34.09,34.09,0,0,0-3.59-.94,84.31,84.31,0,0,1-12.67-4.06c-2.14-1-4.35-1.89-6.16-2.61a28.71,28.71,0,0,0-5.69-1.77A16.86,16.86,0,0,0,7.91,19a6.47,6.47,0,0,0-2.24,1.11c-1.25.93-.09,2,.73,2.72C7.05,23.33,9.25,24.75,13.65,25.67Zm-3.11-1.4a11.29,11.29,0,0,1-4.1-2.33c-1.13-1.51.63-2.57,1.78-2.66A23.06,23.06,0,0,1,18.93,21a56,56,0,0,1,5.58,2.32c1.47.66,3.32,1.41,5.42,2.14A64.82,64.82,0,0,0,38,27.65c3,.55,4.36,1,4,1.43s-1.13.5-4.31-.09c-1.55-.3-3.37-.6-5.36-1s-5-.95-8.56-1.33c-1.94-.22-4.67-.54-6.83-.87A39.39,39.39,0,0,1,10.54,24.27Z"/><path class="cls-17" d="M8.4,30.66a38.06,38.06,0,0,0,4.77.3,31.15,31.15,0,0,0,6.33.24c2-.11,4.05-.23,6.07-.41a30.66,30.66,0,0,0,5.3-.86,11.41,11.41,0,0,0,4.94-2.58A6.58,6.58,0,0,0,37.74,22a2.64,2.64,0,0,0,0-.28l.24-.35c1.37.7,2.59,1.4,3.56,2,2.58,1.64,7.36,4.29,4.13,6.59-2.2,1.56-8.79,3.21-14.71,3.36a77.84,77.84,0,0,1-19.25-1.72c-1.13-.26-2.25-.56-3.3-.91Z"/><path class="cls-18" d="M11.66,31.7c-5.42-1.25-9.17-3.2-10.29-5.36-1.26-2.55.92-4.17,2.09-5.05l1.16-.82.84-.59a17.75,17.75,0,0,1,4.82-2.36,22.69,22.69,0,0,1,7-1.32l1.52,0a34.35,34.35,0,0,1,10.31,1.45,51.73,51.73,0,0,1,12.52,5.6l.58.37c2,1.22,4.63,2.9,4.68,4.6A2.2,2.2,0,0,1,45.73,30c-2.13,1.51-8.57,3.23-14.79,3.39-.9,0-1.79,0-2.65,0h0A77.09,77.09,0,0,1,11.66,31.7Zm5.6-15.23a22.31,22.31,0,0,0-6.89,1.3,17.67,17.67,0,0,0-4.75,2.32l-.85.6c-.44.3-.89.62-1.15.82-1.54,1.14-3.09,2.55-2,4.71s4.76,4,10.11,5.22a76.47,76.47,0,0,0,16.57,1.75l2.65,0A44.79,44.79,0,0,0,39.66,32a19,19,0,0,0,5.91-2.19,2,2,0,0,0,1-1.61C46.55,26.65,44,25,42,23.82l-.59-.37A51.93,51.93,0,0,0,29,17.88a34.46,34.46,0,0,0-10.23-1.44Z"/><path class="cls-19" d="M1.3,27c-.25.44-.37,3.2,0,3.64,2.43,3,13.61,7.19,23.18,4.9C17.85,35.78,4.46,31.11,1.3,27Z"/><path class="cls-3" d="M70,27.14a11.94,11.94,0,0,1-.86,4.72A4.09,4.09,0,0,1,67.49,34c-5.07,2.19-18.26,1.51-22.55.73C35.53,33,28.81,31.08,23.75,27.54c-2-1.41-2.67-2.85-2.74-3.9-.16-2.17,1.67-6.49,1.67-6.49Z"/><path class="cls-4" d="M44.92,34.86a92.64,92.64,0,0,1-12.25-2.92,33.65,33.65,0,0,1-9-4.29c-2.3-1.61-2.74-3.2-2.8-4-.15-2.18,1.61-6.37,1.68-6.55l.05-.1L70,27l.09,0v.1a12,12,0,0,1-.87,4.78,4.25,4.25,0,0,1-1.69,2.21c-2.85,1.23-8,1.49-11.74,1.49h0A71,71,0,0,1,44.92,34.86ZM22.76,17.31c-.27.66-1.76,4.39-1.62,6.32.05.76.47,2.26,2.69,3.8C28.39,30.62,34.51,32.7,45,34.6a70.54,70.54,0,0,0,10.84.74h0c5.31,0,9.44-.52,11.63-1.47A3.93,3.93,0,0,0,69,31.81a11.84,11.84,0,0,0,.85-4.56Z"/><path class="cls-5" d="M55.47,30.28c1.21-1.47,2.54-3,2.8-4.87,0-.24,0-.49.06-.73L70,27.14a11.94,11.94,0,0,1-.86,4.72A4.09,4.09,0,0,1,67.49,34c-4.65,2-16.17,1.6-21.33.91C51.05,34.07,54.33,31.67,55.47,30.28Z"/><path class="cls-6" d="M54.85,33.67a.89.89,0,0,0-.46-.62,1.85,1.85,0,0,0-.73-.27c-.93-.13-1.21.27-1.31.42a.81.81,0,0,0,.12,1,1.55,1.55,0,0,0,1.05.33,3.08,3.08,0,0,0,.94-.17A.6.6,0,0,0,54.85,33.67Z"/><path class="cls-7" d="M54.73,33.67a1.41,1.41,0,0,0-.62-.39,2.19,2.19,0,0,0-.9-.11.76.76,0,0,0-.49.26.62.62,0,0,0,.06.73,1.4,1.4,0,0,0,.81.26,2.76,2.76,0,0,0,.86-.2A.41.41,0,0,0,54.73,33.67Z"/><path class="cls-8" d="M54.41,33.8s.06,0,0-.12a3,3,0,0,0-.47-.22,1,1,0,0,0-.5-.07.44.44,0,0,0-.31.17.38.38,0,0,0,0,.46.48.48,0,0,0,.38.13,2.77,2.77,0,0,0,.85-.17.17.17,0,0,0,.08-.11A.31.31,0,0,0,54.41,33.8Z"/><path class="cls-9" d="M54.33,33.8s.05,0,0-.1a3.42,3.42,0,0,0-.42-.19,1.14,1.14,0,0,0-.44-.06.44.44,0,0,0-.28.14.31.31,0,0,0,0,.39.44.44,0,0,0,.33.11,3,3,0,0,0,.75-.14.18.18,0,0,0,.07-.09A.2.2,0,0,0,54.33,33.8Z"/><path class="cls-10" d="M54.2,33.8s0,0,0-.07a2.73,2.73,0,0,0-.33-.14.91.91,0,0,0-.36,0,.32.32,0,0,0-.21.1.22.22,0,0,0,0,.29.41.41,0,0,0,.27.08,3.28,3.28,0,0,0,.59-.11s.06,0,.06-.07Z"/><path class="cls-11" d="M53.59,33.64c.06,0-.13,0-.18,0a.16.16,0,0,0-.11.07.24.24,0,0,0,0,.2s.14.11.14.06S53.4,33.71,53.59,33.64Z"/><path class="cls-6" d="M44.52,31a1,1,0,0,0-.4-.73,2.08,2.08,0,0,0-.74-.41c-1-.28-1.34.1-1.47.25a.86.86,0,0,0,0,1.05,1.72,1.72,0,0,0,1.08.52,3.05,3.05,0,0,0,1,0A.65.65,0,0,0,44.52,31Z"/><path class="cls-7" d="M44.39,30.93a1.49,1.49,0,0,0-.6-.51,2.46,2.46,0,0,0-.95-.26.75.75,0,0,0-.56.21.65.65,0,0,0-.06.78,1.63,1.63,0,0,0,.83.41,3,3,0,0,0,1-.08A.45.45,0,0,0,44.39,30.93Z"/><path class="cls-8" d="M44,31s.07-.05,0-.13a2.86,2.86,0,0,0-.48-.31,1.16,1.16,0,0,0-.52-.16.53.53,0,0,0-.37.14.43.43,0,0,0,0,.5.55.55,0,0,0,.39.2,3.19,3.19,0,0,0,.94-.06s.1-.07.1-.09A.78.78,0,0,0,44,31Z"/><path class="cls-9" d="M43.94,31s.06,0,0-.11a2.19,2.19,0,0,0-.42-.27A1.14,1.14,0,0,0,43,30.5a.45.45,0,0,0-.32.11.34.34,0,0,0,0,.42.51.51,0,0,0,.34.17,3.52,3.52,0,0,0,.83,0s.08-.06.08-.08A.11.11,0,0,0,43.94,31Z"/><path class="cls-10" d="M43.8,31s.05,0,0-.08a1.33,1.33,0,0,0-.34-.2.82.82,0,0,0-.37-.1.33.33,0,0,0-.24.08.22.22,0,0,0,0,.3.43.43,0,0,0,.28.13,2.44,2.44,0,0,0,.65,0s.07,0,.07-.06A.2.2,0,0,0,43.8,31Z"/><path class="cls-11" d="M43.17,30.72c.07,0-.12-.06-.18-.06a.16.16,0,0,0-.13.06.23.23,0,0,0,0,.22s.13.14.13.08S43,30.77,43.17,30.72Z"/><path class="cls-6" d="M40.84,32.57a1,1,0,0,0-.34-.77,2,2,0,0,0-.69-.47c-1-.37-1.35,0-1.49.1a.87.87,0,0,0-.11,1,1.61,1.61,0,0,0,1,.62,2.91,2.91,0,0,0,1,.06A.63.63,0,0,0,40.84,32.57Z"/><path class="cls-7" d="M40.71,32.54a1.46,1.46,0,0,0-.55-.57,2.3,2.3,0,0,0-.92-.34.74.74,0,0,0-.58.15.65.65,0,0,0-.13.77,1.6,1.6,0,0,0,.79.49,2.79,2.79,0,0,0,1,0C40.6,33,40.78,32.72,40.71,32.54Z"/><path class="cls-8" d="M40.34,32.6s.08-.05,0-.14a2.93,2.93,0,0,0-.44-.35,1.38,1.38,0,0,0-.51-.21A.52.52,0,0,0,39,32a.41.41,0,0,0-.08.5.6.6,0,0,0,.36.24,3.5,3.5,0,0,0,.94,0s.11-.06.11-.09A.2.2,0,0,0,40.34,32.6Z"/><path class="cls-9" d="M40.26,32.57s.06,0,0-.11a2.31,2.31,0,0,0-.4-.3A1,1,0,0,0,39.4,32a.44.44,0,0,0-.32.08.32.32,0,0,0-.06.41.47.47,0,0,0,.32.21,3.54,3.54,0,0,0,.83,0s.09,0,.09-.08A.16.16,0,0,0,40.26,32.57Z"/><path class="cls-10" d="M40.12,32.54s.05,0,0-.08a1.77,1.77,0,0,0-.32-.23.87.87,0,0,0-.36-.13.37.37,0,0,0-.26,0,.23.23,0,0,0,0,.3.41.41,0,0,0,.27.16,2.57,2.57,0,0,0,.65,0s.07,0,.07-.06S40.12,32.54,40.12,32.54Z"/><path class="cls-11" d="M39.52,32.21c.06,0-.12-.07-.18-.07a.2.2,0,0,0-.14,0,.26.26,0,0,0,0,.21c0,.05.12.15.13.09S39.3,32.25,39.52,32.21Z"/><path class="cls-6" d="M35.12,29.77a1,1,0,0,0-.29-.78,1.94,1.94,0,0,0-.68-.5c-.92-.42-1.34-.09-1.49,0a.87.87,0,0,0-.16,1,1.68,1.68,0,0,0,1,.67,3.09,3.09,0,0,0,1,.11A.63.63,0,0,0,35.12,29.77Z"/><path class="cls-7" d="M35,29.73a1.49,1.49,0,0,0-.53-.59,2.37,2.37,0,0,0-.9-.39.8.8,0,0,0-.59.13.66.66,0,0,0-.16.77,1.6,1.6,0,0,0,.77.52,2.91,2.91,0,0,0,.95.06C34.86,30.21,35.06,29.92,35,29.73Z"/><path class="cls-8" d="M34.63,29.78s.07,0,0-.14a2.73,2.73,0,0,0-.42-.38,1.3,1.3,0,0,0-.5-.22.46.46,0,0,0-.38.08.42.42,0,0,0-.1.49.49.49,0,0,0,.35.25,3,3,0,0,0,.94.08s.11-.05.12-.08Z"/><path class="cls-9" d="M34.54,29.75s.07,0,0-.11a2.65,2.65,0,0,0-.38-.33,1.13,1.13,0,0,0-.44-.19.42.42,0,0,0-.33.06.34.34,0,0,0-.08.41.52.52,0,0,0,.31.22,3.33,3.33,0,0,0,.83.08.26.26,0,0,0,.1-.07A.56.56,0,0,0,34.54,29.75Z"/><path class="cls-10" d="M34.41,29.71s.05,0,0-.08a2.23,2.23,0,0,0-.31-.25,1.06,1.06,0,0,0-.35-.15.38.38,0,0,0-.26,0,.24.24,0,0,0,0,.31.45.45,0,0,0,.25.16,2.93,2.93,0,0,0,.65.07s.08,0,.08,0Z"/><path class="cls-11" d="M33.82,29.35c.07,0-.12-.08-.17-.08a.21.21,0,0,0-.14,0,.24.24,0,0,0,0,.22s.11.15.12.09S33.6,29.38,33.82,29.35Z"/><path class="cls-6" d="M24.14,25.11a.93.93,0,0,0,0-.83,2,2,0,0,0-.47-.71c-.73-.71-1.23-.54-1.41-.48a.89.89,0,0,0-.51.93,1.73,1.73,0,0,0,.71,1,3,3,0,0,0,.93.46A.64.64,0,0,0,24.14,25.11Z"/><path class="cls-7" d="M24,25a1.48,1.48,0,0,0-.3-.74,2.44,2.44,0,0,0-.72-.68.82.82,0,0,0-.59-.08.66.66,0,0,0-.41.67,1.6,1.6,0,0,0,.54.75,3.06,3.06,0,0,0,.88.38A.46.46,0,0,0,24,25Z"/><path class="cls-8" d="M23.67,25s.09,0,0-.13a2.35,2.35,0,0,0-.28-.5,1.17,1.17,0,0,0-.39-.38.47.47,0,0,0-.38-.06.44.44,0,0,0-.27.43.59.59,0,0,0,.25.36,3.48,3.48,0,0,0,.86.39.17.17,0,0,0,.14,0A.41.41,0,0,0,23.67,25Z"/><path class="cls-9" d="M23.61,24.89s.07,0,0-.1a3.58,3.58,0,0,0-.25-.44A1,1,0,0,0,23,24a.48.48,0,0,0-.33-.06.34.34,0,0,0-.21.36.45.45,0,0,0,.22.31,2.91,2.91,0,0,0,.75.36.13.13,0,0,0,.11,0A.17.17,0,0,0,23.61,24.89Z"/><path class="cls-10" d="M23.49,24.81s.06,0,0-.08a2,2,0,0,0-.21-.34.86.86,0,0,0-.28-.26.38.38,0,0,0-.25-.05.24.24,0,0,0-.16.27.43.43,0,0,0,.19.24,2.7,2.7,0,0,0,.59.29s.08,0,.08,0Z"/><path class="cls-11" d="M23.06,24.27c.07,0-.09-.11-.14-.13a.17.17,0,0,0-.14,0,.21.21,0,0,0-.12.18c0,.05.05.19.08.14S22.85,24.22,23.06,24.27Z"/><path class="cls-6" d="M48.85,33.91a.92.92,0,0,0-.3-.7,2,2,0,0,0-.63-.43c-.86-.34-1.22,0-1.35.09a.77.77,0,0,0-.1,1,1.46,1.46,0,0,0,.92.56,2.66,2.66,0,0,0,.94.06A.59.59,0,0,0,48.85,33.91Z"/><path class="cls-7" d="M48.74,33.88a1.46,1.46,0,0,0-.51-.52,2.28,2.28,0,0,0-.83-.31.68.68,0,0,0-.52.14.59.59,0,0,0-.12.7,1.46,1.46,0,0,0,.71.44,2.91,2.91,0,0,0,.87,0A.42.42,0,0,0,48.74,33.88Z"/><path class="cls-8" d="M48.4,33.93s.07,0,0-.12a2,2,0,0,0-.4-.32,1,1,0,0,0-.46-.19.45.45,0,0,0-.34.09.39.39,0,0,0-.07.45.46.46,0,0,0,.33.21,2.57,2.57,0,0,0,.85,0s.1,0,.1-.08A.16.16,0,0,0,48.4,33.93Z"/><path class="cls-9" d="M48.32,33.91s.06,0,0-.1a2.24,2.24,0,0,0-.35-.28,1,1,0,0,0-.41-.16.4.4,0,0,0-.29.07.3.3,0,0,0-.06.38.46.46,0,0,0,.29.18,2.9,2.9,0,0,0,.75,0,.22.22,0,0,0,.09-.07A.35.35,0,0,0,48.32,33.91Z"/><path class="cls-10" d="M48.2,33.88s0,0,0-.08l-.29-.2a.91.91,0,0,0-.33-.13.37.37,0,0,0-.23.05.21.21,0,0,0,0,.28.41.41,0,0,0,.23.14,2.7,2.7,0,0,0,.59,0,.09.09,0,0,0,.07,0A.08.08,0,0,0,48.2,33.88Z"/><path class="cls-11" d="M47.65,33.58c.06,0-.11-.07-.16-.07a.15.15,0,0,0-.12.05.21.21,0,0,0,0,.19s.11.14.12.09S47.46,33.61,47.65,33.58Z"/><path class="cls-6" d="M68.16,31.75a.5.5,0,0,0-.37-.26,1.15,1.15,0,0,0-.45,0c-.54.1-.62.38-.65.48a.46.46,0,0,0,.25.51.86.86,0,0,0,.64,0,1.78,1.78,0,0,0,.49-.27A.35.35,0,0,0,68.16,31.75Z"/><path class="cls-7" d="M68.09,31.77a.77.77,0,0,0-.41-.1,1.24,1.24,0,0,0-.52.1.43.43,0,0,0-.22.24.35.35,0,0,0,.16.39.85.85,0,0,0,.5,0,1.48,1.48,0,0,0,.44-.26A.24.24,0,0,0,68.09,31.77Z"/><path class="cls-8" d="M67.94,31.9s0,0,0-.06a1.42,1.42,0,0,0-.31,0,.52.52,0,0,0-.28.05.31.31,0,0,0-.15.15.24.24,0,0,0,.11.25.26.26,0,0,0,.23,0,1.56,1.56,0,0,0,.44-.25.13.13,0,0,0,0-.07Z"/><path class="cls-9" d="M67.9,31.91s0,0,0-.05l-.27,0a.53.53,0,0,0-.25.05.24.24,0,0,0-.13.13.18.18,0,0,0,.09.2.26.26,0,0,0,.21,0,1.27,1.27,0,0,0,.38-.22.07.07,0,0,0,0-.06Z"/><path class="cls-10" d="M67.82,31.94s0,0,0,0h-.21a.71.71,0,0,0-.21,0,.19.19,0,0,0-.1.1.13.13,0,0,0,.07.15.22.22,0,0,0,.16,0,1.63,1.63,0,0,0,.31-.17.11.11,0,0,0,0,0S67.82,31.94,67.82,31.94Z"/><path class="cls-11" d="M67.46,32s-.08,0-.11,0a.07.07,0,0,0,0,.06.09.09,0,0,0,0,.11s.1,0,.08,0S67.37,32,67.46,32Z"/><path class="cls-6" d="M58.51,31.67c0-.24-.18-.4-.39-.54a1.89,1.89,0,0,0-.68-.3c-.9-.21-1.23.08-1.34.18a.54.54,0,0,0,0,.78,1.77,1.77,0,0,0,1,.38,3.09,3.09,0,0,0,.94,0A.48.48,0,0,0,58.51,31.67Z"/><path class="cls-7" d="M58.4,31.65a1.4,1.4,0,0,0-.57-.38,2.82,2.82,0,0,0-.88-.18.75.75,0,0,0-.5.15.41.41,0,0,0,0,.58,1.62,1.62,0,0,0,.77.3,3.34,3.34,0,0,0,.87-.06C58.35,32,58.48,31.78,58.4,31.65Z"/><path class="cls-8" d="M58.07,31.72s.06,0,0-.1a3.46,3.46,0,0,0-.44-.23,1.45,1.45,0,0,0-.49-.11.49.49,0,0,0-.32.1.26.26,0,0,0,0,.37.57.57,0,0,0,.36.15,3.33,3.33,0,0,0,.86,0,.11.11,0,0,0,.09-.07A.35.35,0,0,0,58.07,31.72Z"/><path class="cls-9" d="M58,31.71s.06,0,0-.08l-.39-.2a1.44,1.44,0,0,0-.43-.09.45.45,0,0,0-.29.08.21.21,0,0,0,0,.31.55.55,0,0,0,.32.12,3.3,3.3,0,0,0,.75,0s.08,0,.08-.06A.2.2,0,0,0,58,31.71Z"/><path class="cls-10" d="M57.86,31.7s0,0,0-.06a2,2,0,0,0-.32-.15,1,1,0,0,0-.34-.07c-.07,0-.18,0-.22.06a.14.14,0,0,0,0,.22.44.44,0,0,0,.25.1,4.27,4.27,0,0,0,.6,0s.06,0,.06-.05A.1.1,0,0,0,57.86,31.7Z"/><path class="cls-11" d="M57.28,31.5c.06,0-.12-.05-.17,0a.16.16,0,0,0-.12,0,.13.13,0,0,0,0,.16s.13.11.12.06S57.08,31.54,57.28,31.5Z"/><path class="cls-6" d="M30.15,29.61a.84.84,0,0,0-.24-.73,2.48,2.48,0,0,0-.65-.56c-.92-.54-1.37-.34-1.53-.26a.62.62,0,0,0-.25.86,2,2,0,0,0,1,.76,4.27,4.27,0,0,0,1,.29A.55.55,0,0,0,30.15,29.61Z"/><path class="cls-7" d="M30,29.55a1.69,1.69,0,0,0-.5-.61,2.93,2.93,0,0,0-.89-.5.86.86,0,0,0-.61,0,.46.46,0,0,0-.23.62,1.92,1.92,0,0,0,.75.6,3.89,3.89,0,0,0,1,.23C29.85,29.93,30.07,29.72,30,29.55Z"/><path class="cls-8" d="M29.64,29.51s.09,0,0-.11a2.63,2.63,0,0,0-.41-.41,1.55,1.55,0,0,0-.49-.29.58.58,0,0,0-.39,0,.3.3,0,0,0-.15.4.69.69,0,0,0,.35.29,4.51,4.51,0,0,0,1,.24.16.16,0,0,0,.13,0A.2.2,0,0,0,29.64,29.51Z"/><path class="cls-9" d="M29.56,29.47s.07,0,0-.09A2.54,2.54,0,0,0,29.2,29a1.31,1.31,0,0,0-.44-.25.5.5,0,0,0-.34,0,.25.25,0,0,0-.11.34.64.64,0,0,0,.3.25,4.4,4.4,0,0,0,.84.22.16.16,0,0,0,.11,0A.16.16,0,0,0,29.56,29.47Z"/><path class="cls-10" d="M29.42,29.42s.06,0,0-.08-.19-.18-.29-.27a1.14,1.14,0,0,0-.36-.19.4.4,0,0,0-.26,0,.17.17,0,0,0-.08.25.5.5,0,0,0,.25.19,3.54,3.54,0,0,0,.66.19s.08,0,.08,0S29.42,29.42,29.42,29.42Z"/><path class="cls-11" d="M28.85,29c.07,0-.11-.09-.17-.11a.25.25,0,0,0-.15,0,.15.15,0,0,0-.06.17c0,.05.1.16.11.11S28.62,29,28.85,29Z"/><path class="cls-6" d="M28.79,26.16a.74.74,0,0,0-.18-.65,2.27,2.27,0,0,0-.55-.52c-.78-.51-1.19-.36-1.33-.29a.53.53,0,0,0-.25.74,1.78,1.78,0,0,0,.81.71,3.49,3.49,0,0,0,.91.3A.47.47,0,0,0,28.79,26.16Z"/><path class="cls-7" d="M28.69,26.11a1.51,1.51,0,0,0-.41-.56,2.53,2.53,0,0,0-.77-.48A.82.82,0,0,0,27,25a.42.42,0,0,0-.22.54,1.53,1.53,0,0,0,.62.55,3.29,3.29,0,0,0,.85.25C28.52,26.43,28.72,26.26,28.69,26.11Z"/><path class="cls-8" d="M28.35,26.06s.07,0,0-.11a3.5,3.5,0,0,0-.34-.37,1.2,1.2,0,0,0-.42-.27.52.52,0,0,0-.34,0,.27.27,0,0,0-.15.35.64.64,0,0,0,.29.27,3.89,3.89,0,0,0,.83.26.16.16,0,0,0,.11,0A.18.18,0,0,0,28.35,26.06Z"/><path class="cls-9" d="M28.28,26s.06,0,0-.09a4.36,4.36,0,0,0-.31-.32,1.17,1.17,0,0,0-.37-.24.53.53,0,0,0-.3,0,.21.21,0,0,0-.11.29.47.47,0,0,0,.25.23,3.28,3.28,0,0,0,.73.24s.09,0,.09,0A.13.13,0,0,0,28.28,26Z"/><path class="cls-10" d="M28.16,26s.05,0,0-.06l-.25-.25a1,1,0,0,0-.3-.19.42.42,0,0,0-.24,0,.16.16,0,0,0-.08.22.55.55,0,0,0,.21.18,3.59,3.59,0,0,0,.58.19l.07,0S28.16,26,28.16,26Z"/><path class="cls-11" d="M27.68,25.57c.06,0-.1-.09-.15-.1a.19.19,0,0,0-.13,0,.15.15,0,0,0-.06.15s.08.14.1.1S27.48,25.54,27.68,25.57Z"/><path class="cls-6" d="M61.17,33.77a.78.78,0,0,0-.51-.46A1.67,1.67,0,0,0,60,33.2c-.84,0-1,.45-1.08.59a.74.74,0,0,0,.28.84,1.36,1.36,0,0,0,1,.1,2.73,2.73,0,0,0,.8-.31A.54.54,0,0,0,61.17,33.77Z"/><path class="cls-7" d="M61.07,33.79a1.19,1.19,0,0,0-.62-.23,2,2,0,0,0-.81.06.67.67,0,0,0-.38.32.54.54,0,0,0,.18.62,1.24,1.24,0,0,0,.75.09,2.54,2.54,0,0,0,.73-.32A.38.38,0,0,0,61.07,33.79Z"/><path class="cls-8" d="M60.81,34s0-.06-.05-.1a3.48,3.48,0,0,0-.46-.11,1,1,0,0,0-.45,0,.42.42,0,0,0-.25.2.34.34,0,0,0,.11.4.41.41,0,0,0,.36,0,2.58,2.58,0,0,0,.72-.3s.06-.08.05-.11A.16.16,0,0,0,60.81,34Z"/><path class="cls-9" d="M60.74,34s0,0-.05-.08a2.69,2.69,0,0,0-.4-.09,1.05,1.05,0,0,0-.4,0,.36.36,0,0,0-.21.17.26.26,0,0,0,.09.33.38.38,0,0,0,.32,0,2.22,2.22,0,0,0,.63-.26.14.14,0,0,0,.05-.08Z"/><path class="cls-10" d="M60.62,34s0,0,0-.06l-.32-.06a.84.84,0,0,0-.32,0c-.06,0-.15.07-.17.13a.2.2,0,0,0,.07.25.35.35,0,0,0,.25,0,2,2,0,0,0,.51-.2s0-.05,0-.06A.07.07,0,0,0,60.62,34Z"/><path class="cls-11" d="M60.06,34s-.12,0-.16,0a.14.14,0,0,0-.09.08.2.2,0,0,0,0,.18s.14.07.12,0S59.91,34.06,60.06,34Z"/><path class="cls-6" d="M65.16,31.54a.69.69,0,0,0-.43-.42,1.46,1.46,0,0,0-.61-.13c-.74,0-.92.36-1,.49a.63.63,0,0,0,.21.74,1.28,1.28,0,0,0,.87.14,2.33,2.33,0,0,0,.72-.25A.48.48,0,0,0,65.16,31.54Z"/><path class="cls-7" d="M65.07,31.56a1.13,1.13,0,0,0-.53-.23,1.73,1.73,0,0,0-.72,0,.55.55,0,0,0-.36.27.49.49,0,0,0,.13.56,1.22,1.22,0,0,0,.67.11,2,2,0,0,0,.65-.26A.34.34,0,0,0,65.07,31.56Z"/><path class="cls-8" d="M64.83,31.7s0-.05,0-.09a2.42,2.42,0,0,0-.4-.12.89.89,0,0,0-.4,0,.4.4,0,0,0-.23.17.32.32,0,0,0,.09.36.4.4,0,0,0,.31.06,2.5,2.5,0,0,0,.65-.24.2.2,0,0,0,0-.09A.16.16,0,0,0,64.83,31.7Z"/><path class="cls-9" d="M64.77,31.71s0,0,0-.08a2,2,0,0,0-.35-.09.69.69,0,0,0-.35,0,.3.3,0,0,0-.2.14.24.24,0,0,0,.07.3.37.37,0,0,0,.28.05,2.72,2.72,0,0,0,.57-.21s0-.06,0-.07A.12.12,0,0,0,64.77,31.71Z"/><path class="cls-10" d="M64.67,31.73s0,0,0-.06l-.28-.06a.52.52,0,0,0-.28,0,.23.23,0,0,0-.16.1.17.17,0,0,0,0,.22.28.28,0,0,0,.22,0,1.74,1.74,0,0,0,.46-.15.11.11,0,0,0,0-.06Z"/><path class="cls-11" d="M64.17,31.67s-.1,0-.14,0a.14.14,0,0,0-.08.07.17.17,0,0,0,0,.16s.12.07.11,0S64,31.75,64.17,31.67Z"/><path class="cls-6" d="M51.55,31.71a.73.73,0,0,0-.29-.58,1.69,1.69,0,0,0-.56-.33c-.75-.24-1.05,0-1.15.15a.69.69,0,0,0,0,.82,1.34,1.34,0,0,0,.82.43,2.34,2.34,0,0,0,.81,0A.49.49,0,0,0,51.55,31.71Z"/><path class="cls-7" d="M51.46,31.69a1.25,1.25,0,0,0-.46-.41,1.91,1.91,0,0,0-.73-.22.61.61,0,0,0-.44.14.51.51,0,0,0-.06.61,1.24,1.24,0,0,0,.63.34,2.24,2.24,0,0,0,.74,0A.36.36,0,0,0,51.46,31.69Z"/><path class="cls-8" d="M51.17,31.76s.06,0,0-.11a3.14,3.14,0,0,0-.36-.25.94.94,0,0,0-.41-.13.35.35,0,0,0-.28.09.32.32,0,0,0,0,.39.4.4,0,0,0,.3.16,2.29,2.29,0,0,0,.73,0s.07-.05.08-.07A.35.35,0,0,0,51.17,31.76Z"/><path class="cls-9" d="M51.11,31.74s0,0,0-.08a1.77,1.77,0,0,0-.32-.22.83.83,0,0,0-.35-.11.3.3,0,0,0-.25.07.24.24,0,0,0,0,.32.38.38,0,0,0,.26.15,2.79,2.79,0,0,0,.64,0s.07,0,.07-.06A.11.11,0,0,0,51.11,31.74Z"/><path class="cls-10" d="M51,31.72s0,0,0-.06a1.81,1.81,0,0,0-.25-.16.65.65,0,0,0-.29-.09.3.3,0,0,0-.19.05.17.17,0,0,0,0,.24.29.29,0,0,0,.21.11,2.16,2.16,0,0,0,.51,0s0,0,0,0Z"/><path class="cls-11" d="M50.51,31.5c.06,0-.09-.05-.14-.05a.13.13,0,0,0-.1,0,.19.19,0,0,0,0,.17s.1.11.1.07S50.35,31.53,50.51,31.5Z"/><path class="cls-12" d="M32.94,12.1a25.21,25.21,0,0,1,7.53-.54,39.8,39.8,0,0,1,12.29,2.76,54.06,54.06,0,0,1,12.45,7c2.5,1.95,7.2,5.17,3.46,7.12-2.54,1.33-9.75,2.25-16.05,1.74a86.14,86.14,0,0,1-20.16-3.9c-4.79-1.61-9.09-3.95-10.07-6.49s1.26-3.82,2.85-4.7c.55-.3,1.8-.93,2.31-1.21A20.25,20.25,0,0,1,32.94,12.1Z"/><path class="cls-13" d="M32.46,12.66A27.15,27.15,0,0,1,40.1,12a38.16,38.16,0,0,1,11.63,2.53A58.34,58.34,0,0,1,63,20.79c1.37.92,7.57,4.88,5.24,6.71-2.81,2.21-10.58,2.18-18,1.49a68.81,68.81,0,0,1-16.77-3.57c-4.51-1.53-8.65-3.48-9.68-5.82-1.09-2.63,2.21-4.24,3.63-4.89A27.5,27.5,0,0,1,32.46,12.66Z"/><path class="cls-14" d="M36.71,14.31c1.84-.57,2.85-2,2.54-2.65.39.22,1.07,1.82-1.43,3.21C37.51,14.74,37.22,14.54,36.71,14.31Z"/><path class="cls-14" d="M28.78,17c-1.28.73-4.76,1-6,.88a15.58,15.58,0,0,0,7-.41C29.56,17.32,29.18,17.2,28.78,17Z"/><path class="cls-14" d="M30,18.15c-1,1.06-4.46,2-5.79,2.08a13.73,13.73,0,0,0,7-1.71C30.88,18.41,30.45,18.33,30,18.15Z"/><path class="cls-14" d="M31.19,19.14c-.3,1.23-4.2,3.54-5.4,3.76,1.39,0,5.3-1.34,6.71-3.35C32.18,19.47,31.73,19.27,31.19,19.14Z"/><path class="cls-14" d="M39.58,15.25c2.33-.27,5.48-2.21,5.51-2.81.31.24-.86,2.41-4.92,3.34C39.91,15.63,40,15.5,39.58,15.25Z"/><path class="cls-14" d="M42.16,16.56a22.14,22.14,0,0,0,8.65-2.35c-1.38,1.49-5,2.47-8.14,2.77C42.41,16.83,42.59,16.82,42.16,16.56Z"/><path class="cls-14" d="M44.31,17.94A43.83,43.83,0,0,0,56,16.05c-2.58,1.73-8.52,2.24-11.16,2.31C44.56,18.21,44.74,18.2,44.31,17.94Z"/><path class="cls-14" d="M45.76,18.79A67.92,67.92,0,0,0,56,18,40.43,40.43,0,0,1,46.3,19.2C46,19.05,46.21,19,45.76,18.79Z"/><path class="cls-14" d="M65,27.1A.29.29,0,0,0,65,27a21.9,21.9,0,0,0,4.47.46A12,12,0,0,1,65,27.25l0,0A.36.36,0,0,0,65,27.1Z"/><path class="cls-14" d="M61.72,27.31c.89.47,2.14,1.1,2.29,1.73.36-.65-.33-1.22-1.34-1.61Z"/><path class="cls-14" d="M55.66,25.39c.85.48,4.82,3.3,4.85,4.37.89-1.28-2.5-3.59-3.47-4C56.71,25.73,56.21,25.47,55.66,25.39Z"/><path class="cls-14" d="M44.66,22.74c.77.49,5.56,5.17,5.5,6.25,1-1.29-2.77-5.19-4.21-6C45.64,22.94,45.18,22.82,44.66,22.74Z"/><path class="cls-14" d="M50.33,23.86c.81.48,4.32,2.86,5,4.11.46-1.42-2.87-3.34-3.44-3.67C51.52,24.25,50.87,23.94,50.33,23.86Z"/><path class="cls-14" d="M42.12,22c.69.5,3.66,2.95,4,4.21.74-1.39-2.15-3.39-2.64-3.73C43.2,22.46,42.62,22.14,42.12,22Z"/><path class="cls-14" d="M35.09,20.91c.72.82.73,4-.49,5.12,2.3-1,2.44-4.05,1.72-4.8C36.06,21.13,35.53,21.06,35.09,20.91Z"/><path class="cls-14" d="M47,23.2c1.22.61,5,3.72,5.43,5.15.63-1.51-3-4.51-3.94-4.91C48.13,23.38,47.47,23.28,47,23.2Z"/><path class="cls-14" d="M39.94,21.89c1.08.63,5.22,5.41,4.86,6.76,1.5-2.07-2.71-6.19-3.53-6.62C41,22,40.44,22,39.94,21.89Z"/><path class="cls-14" d="M36.87,21.24c1.31.84,4.17,5,4,6.62,1-2.15-1.34-5.4-2.7-6.47C37.89,21.32,37.36,21.34,36.87,21.24Z"/><path class="cls-14" d="M32.92,19.59c.7.9-1.87,4.05-3.33,5.41,2.73-1.74,5.12-4,4.56-5.1C33.9,19.8,33.35,19.74,32.92,19.59Z"/><path class="cls-14" d="M34.73,20.92c1.21.37,4.2.92,6.49,1.38s6,1.07,8.2,1.51,7.43,2.09,10,2.87a18.47,18.47,0,0,0,5.53,1.11c1.34,0,1-.8.17-1.21-.61-.29-3.54-1.47-5.23-2a74.27,74.27,0,0,1-11.48-5.1c-2.13-1.29-4.3-2.42-6-3.37A31.91,31.91,0,0,0,36,13.46,14.29,14.29,0,0,0,30.7,13a8.38,8.38,0,0,0-3.93,1.61c-.31.21-.58,1.22.56,2.31A18.56,18.56,0,0,0,34.73,20.92Zm-1.92-2.29a14.69,14.69,0,0,1-4.11-2.89c-.39-.6,0-1.53,0-1.72.49.05.55-.3.55-.3a37.09,37.09,0,0,1,5.57.35,21.46,21.46,0,0,1,6,2.19,53.94,53.94,0,0,1,4.82,2.61c1.45.83,4.09,2.22,6.2,3.2a70.62,70.62,0,0,0,8.92,3.54c3.07.9,4.39,1,3.8,1.59-.19.2-1.91,0-4.1-.71-1.58-.49-3.26-.95-5.28-1.6-1.38-.46-5.67-1.65-8.83-2.39-2-.48-4.93-1-7.12-1.66A52.54,52.54,0,0,1,32.81,18.63Z"/><path class="cls-15" d="M32.59,14.26l5.73,2.88c.88.45,12.94,5,11.45,5.13-.89.09-12.92-3.8-13.33-3.93a79.2,79.2,0,0,1-7.74-2.6c-1.24-.6-1.27-1.29-1.27-1.29a19.73,19.73,0,0,1,2.41-1A5.21,5.21,0,0,1,32.59,14.26Z"/><path class="cls-16" d="M37.36,17.29c1.3.68,8.23,3.23,8,3.37s-7.17-2.2-9.46-3c-1.89-.65-7.34-2.24-8-3.42A6.23,6.23,0,0,1,29,13.66C31.63,14.06,34.69,15.87,37.36,17.29Z"/><path class="cls-16" d="M35.35,20.58c1.22.37,3.7,1,6,1.5s5.87,1.18,8.11,1.61,7.46,2.1,10,2.88a22.4,22.4,0,0,0,4.71,1.06c1.37,0,1.23-.8.51-1.08A39,39,0,0,0,61,25.19a87.44,87.44,0,0,1-12.86-5.52C46,18.38,43.77,17.27,42,16.34a31,31,0,0,0-5.78-2.43,18.78,18.78,0,0,0-6-.74,7.22,7.22,0,0,0-2.53.86c-1.46.81-.38,2,.4,2.83C28.69,17.48,30.82,19.16,35.35,20.58Zm-3.1-1.76c-1.49-.72-3.49-1.95-4-2.82-1-1.65,1-2.52,2.25-2.49a25.13,25.13,0,0,1,11.11,3,59,59,0,0,1,5.59,3c1.47.83,3.32,1.79,5.44,2.77a70.75,70.75,0,0,0,8.24,3.11c3.06.9,4.47,1.53,4,1.9s-1.26.38-4.55-.57c-1.61-.48-3.49-1-5.55-1.63s-5.15-1.52-8.87-2.3c-2-.45-4.88-1.07-7.12-1.65A44.39,44.39,0,0,1,32.25,18.82Z"/><path class="cls-17" d="M29.11,25a42.41,42.41,0,0,0,5,.84,34.15,34.15,0,0,0,6.68.95c2.16.12,4.33.23,6.49.27A33.24,33.24,0,0,0,53,26.82a12.87,12.87,0,0,0,5.59-2.05,6.7,6.7,0,0,0,2.79-5.24,1.37,1.37,0,0,0,0-.29l.3-.32c1.36.87,2.56,1.7,3.5,2.44,2.5,1.95,7.2,5.17,3.46,7.12-2.54,1.33-9.75,2.25-16.05,1.74a86.14,86.14,0,0,1-20.16-3.9c-1.16-.39-2.3-.82-3.36-1.29Z"/><path class="cls-18" d="M52.61,30.35a86.87,86.87,0,0,1-20.19-3.9c-5.57-1.88-9.27-4.27-10.15-6.57-1-2.72,1.54-4.12,2.9-4.87l1.35-.7,1-.5A20.12,20.12,0,0,1,32.92,12a25.77,25.77,0,0,1,5.6-.62c.65,0,1.32,0,2,.07a39.91,39.91,0,0,1,12.33,2.77,54.79,54.79,0,0,1,12.48,7.07l.58.44c1.88,1.44,4.47,3.42,4.32,5.14a2.33,2.33,0,0,1-1.46,1.76c-2.1,1.1-7.33,1.9-12.42,1.9h0C55,30.5,53.79,30.45,52.61,30.35ZM33,12.23A19.87,19.87,0,0,0,27.62,14l-1,.51-1.34.7c-1.79,1-3.62,2.23-2.78,4.54s4.49,4.56,10,6.41a86.88,86.88,0,0,0,20.13,3.89c1.17.09,2.41.14,3.68.14h0c5,0,10.23-.78,12.3-1.87.82-.43,1.26-.95,1.31-1.54.14-1.58-2.38-3.5-4.22-4.91l-.57-.44a54.49,54.49,0,0,0-12.42-7,39.32,39.32,0,0,0-12.25-2.75c-.64,0-1.29-.08-1.94-.08A25.38,25.38,0,0,0,33,12.23Z"/><path class="cls-19" d="M22.08,20.56c-.32.42-.83,3.2-.49,3.68C23.75,27.54,35,33,45.47,31.8,38.41,31.26,24.87,25,22.08,20.56Z"/><path class="cls-3" d="M96.26,27.6a12.29,12.29,0,0,1-1.52,4.7,4.21,4.21,0,0,1-2,2c-5.49,1.56-18.94-.89-23.23-2.25-9.42-3-16.06-5.87-20.77-10.14-1.88-1.7-2.35-3.26-2.29-4.33.14-2.24,2.59-6.39,2.59-6.39Z"/><path class="cls-4" d="M69.51,32.12a97.88,97.88,0,0,1-12.17-4.59A35,35,0,0,1,48.69,22c-2.14-1.94-2.38-3.62-2.33-4.44.13-2.24,2.51-6.28,2.61-6.45L49,11,96.3,27.48l.1,0v.1a12.3,12.3,0,0,1-1.54,4.75,4.34,4.34,0,0,1-2,2,18.18,18.18,0,0,1-4.81.51h0A77.06,77.06,0,0,1,69.51,32.12ZM49.14,11.3c-.36.63-2.4,4.24-2.52,6.23,0,.78.19,2.36,2.25,4.23,4.25,3.86,10.25,6.78,20.72,10.11A77.12,77.12,0,0,0,88,34.62a18.59,18.59,0,0,0,4.74-.49,4.09,4.09,0,0,0,1.87-1.9,12.45,12.45,0,0,0,1.5-4.54Z"/><path class="cls-5" d="M81,28.87c1.44-1.33,3-2.71,3.53-4.58a6.52,6.52,0,0,0,.16-.74L96.26,27.6a12.29,12.29,0,0,1-1.52,4.7,4.21,4.21,0,0,1-2,2c-5,1.43-16.8-.52-22-1.9C75.9,32.14,79.59,30.13,81,28.87Z"/><path class="cls-6" d="M79.86,32.24a.92.92,0,0,0-.4-.69,2,2,0,0,0-.7-.38c-.94-.25-1.29.12-1.41.25a.83.83,0,0,0,0,1,1.59,1.59,0,0,0,1,.47,2.89,2.89,0,0,0,1,0A.63.63,0,0,0,79.86,32.24Z"/><path class="cls-7" d="M79.74,32.22a1.57,1.57,0,0,0-.59-.48,2.35,2.35,0,0,0-.91-.23.76.76,0,0,0-.53.2.63.63,0,0,0,0,.75,1.46,1.46,0,0,0,.79.37,2.77,2.77,0,0,0,.91-.08A.45.45,0,0,0,79.74,32.22Z"/><path class="cls-8" d="M79.39,32.31s.06-.05,0-.12a2.63,2.63,0,0,0-.46-.29,1.09,1.09,0,0,0-.51-.14.47.47,0,0,0-.34.13.39.39,0,0,0,0,.48.49.49,0,0,0,.37.18,3.2,3.2,0,0,0,.89-.06s.1-.07.1-.1A.54.54,0,0,0,79.39,32.31Z"/><path class="cls-9" d="M79.31,32.3s.06,0,0-.11a3.45,3.45,0,0,0-.41-.24,1.08,1.08,0,0,0-.44-.12.4.4,0,0,0-.3.11.3.3,0,0,0,0,.39.44.44,0,0,0,.33.16,2.74,2.74,0,0,0,.78-.05s.09,0,.09-.07A.35.35,0,0,0,79.31,32.3Z"/><path class="cls-10" d="M79.17,32.28s0,0,0-.07a1.8,1.8,0,0,0-.32-.19,1,1,0,0,0-.36-.09c-.08,0-.19,0-.23.08a.22.22,0,0,0,0,.29.38.38,0,0,0,.26.12,2.34,2.34,0,0,0,.63,0s.06,0,.06-.06Z"/><path class="cls-11" d="M78.57,32c.06,0-.12-.06-.18-.06s-.1,0-.12.07a.19.19,0,0,0,0,.2s.13.13.13.07S78.36,32.09,78.57,32Z"/><path class="cls-6" d="M69.66,28.27a1,1,0,0,0-.31-.8,2.07,2.07,0,0,0-.71-.51c-1-.42-1.39-.08-1.54.05a.88.88,0,0,0-.16,1.07,1.75,1.75,0,0,0,1,.67,3.17,3.17,0,0,0,1.07.1A.65.65,0,0,0,69.66,28.27Z"/><path class="cls-7" d="M69.53,28.23a1.51,1.51,0,0,0-.55-.6,2.54,2.54,0,0,0-.94-.39.83.83,0,0,0-.6.13.66.66,0,0,0-.16.79,1.56,1.56,0,0,0,.79.53,3,3,0,0,0,1,0C69.39,28.72,69.59,28.42,69.53,28.23Z"/><path class="cls-8" d="M69.15,28.27s.07,0,0-.13a2.46,2.46,0,0,0-.44-.38,1.32,1.32,0,0,0-.52-.23.52.52,0,0,0-.39.09.42.42,0,0,0-.1.5.58.58,0,0,0,.37.26,3.52,3.52,0,0,0,1,.07.23.23,0,0,0,.12-.09Z"/><path class="cls-9" d="M69.06,28.25s.07,0,0-.12a2.94,2.94,0,0,0-.4-.32,1.1,1.1,0,0,0-.46-.2.49.49,0,0,0-.34.07.33.33,0,0,0-.08.42.53.53,0,0,0,.33.22,3.07,3.07,0,0,0,.85.07s.1-.05.1-.07A.16.16,0,0,0,69.06,28.25Z"/><path class="cls-10" d="M68.92,28.21s0,0,0-.09a2.41,2.41,0,0,0-.32-.24.91.91,0,0,0-.37-.15.38.38,0,0,0-.26,0,.23.23,0,0,0-.06.31.42.42,0,0,0,.27.17,2.6,2.6,0,0,0,.67.06s.08,0,.08,0S68.92,28.21,68.92,28.21Z"/><path class="cls-11" d="M68.31,27.85c.07,0-.12-.08-.18-.08a.17.17,0,0,0-.14.05.2.2,0,0,0,0,.21s.12.16.12.1S68.08,27.88,68.31,27.85Z"/><path class="cls-6" d="M63.87,28.42a1,1,0,0,0-.2-.84,2.09,2.09,0,0,0-.62-.6c-.89-.55-1.37-.27-1.53-.17a.89.89,0,0,0-.31,1.05,1.71,1.71,0,0,0,.93.8,3,3,0,0,0,1,.25A.65.65,0,0,0,63.87,28.42Z"/><path class="cls-7" d="M63.75,28.36a1.52,1.52,0,0,0-.46-.67,2.66,2.66,0,0,0-.88-.52.85.85,0,0,0-.61,0,.67.67,0,0,0-.27.76,1.52,1.52,0,0,0,.71.63,2.87,2.87,0,0,0,1,.19A.46.46,0,0,0,63.75,28.36Z"/><path class="cls-8" d="M63.36,28.35s.09,0,0-.13a2.94,2.94,0,0,0-.39-.44,1.24,1.24,0,0,0-.48-.3.55.55,0,0,0-.4,0,.44.44,0,0,0-.17.49.56.56,0,0,0,.33.31,3.66,3.66,0,0,0,.95.2.17.17,0,0,0,.13-.07A.39.39,0,0,0,63.36,28.35Z"/><path class="cls-9" d="M63.28,28.32s.07,0,0-.12a3.48,3.48,0,0,0-.34-.38,1.3,1.3,0,0,0-.43-.26.49.49,0,0,0-.34,0A.35.35,0,0,0,62,28a.55.55,0,0,0,.29.27,3.22,3.22,0,0,0,.83.18s.11,0,.11-.05A.23.23,0,0,0,63.28,28.32Z"/><path class="cls-10" d="M63.15,28.26s.05,0,0-.09a2.44,2.44,0,0,0-.28-.29,1.08,1.08,0,0,0-.34-.2.41.41,0,0,0-.27,0,.23.23,0,0,0-.1.3.46.46,0,0,0,.24.21,3.09,3.09,0,0,0,.66.15s.08,0,.08,0S63.15,28.26,63.15,28.26Z"/><path class="cls-11" d="M62.59,27.82c.07,0-.11-.1-.16-.11a.16.16,0,0,0-.15,0,.22.22,0,0,0-.08.21c0,.05.1.17.11.11S62.37,27.81,62.59,27.82Z"/><path class="cls-6" d="M60.09,25.22a1,1,0,0,0-.15-.84,2.27,2.27,0,0,0-.59-.64c-.86-.6-1.35-.35-1.52-.25a.88.88,0,0,0-.37,1,1.74,1.74,0,0,0,.88.86,3.43,3.43,0,0,0,1,.31A.66.66,0,0,0,60.09,25.22Z"/><path class="cls-7" d="M60,25.16a1.48,1.48,0,0,0-.42-.7,2.67,2.67,0,0,0-.85-.56.8.8,0,0,0-.61,0,.67.67,0,0,0-.31.75,1.6,1.6,0,0,0,.67.67,3,3,0,0,0,1,.24A.47.47,0,0,0,60,25.16Z"/><path class="cls-8" d="M59.59,25.13s.08,0,0-.14a3.09,3.09,0,0,0-.36-.46,1.41,1.41,0,0,0-.47-.32.5.5,0,0,0-.4,0,.43.43,0,0,0-.19.48.54.54,0,0,0,.31.32,3.23,3.23,0,0,0,.94.26.19.19,0,0,0,.13-.07A.45.45,0,0,0,59.59,25.13Z"/><path class="cls-9" d="M59.51,25.09s.07,0,0-.12a2.4,2.4,0,0,0-.32-.39,1.24,1.24,0,0,0-.41-.29.53.53,0,0,0-.35,0,.36.36,0,0,0-.16.4.51.51,0,0,0,.28.28,3.36,3.36,0,0,0,.82.24.22.22,0,0,0,.12-.05A.23.23,0,0,0,59.51,25.09Z"/><path class="cls-10" d="M59.37,25s.06,0,0-.08a1.71,1.71,0,0,0-.26-.31,1.12,1.12,0,0,0-.33-.22.42.42,0,0,0-.27,0,.22.22,0,0,0-.11.29.39.39,0,0,0,.22.22,2.82,2.82,0,0,0,.65.19.19.19,0,0,0,.09,0A.11.11,0,0,0,59.37,25Z"/><path class="cls-11" d="M58.85,24.55c.07,0-.11-.1-.16-.11a.16.16,0,0,0-.15,0,.21.21,0,0,0-.09.21c0,.05.08.18.1.12S58.62,24.53,58.85,24.55Z"/><path class="cls-6" d="M49.68,19.42a1,1,0,0,0,.1-.85,2,2,0,0,0-.38-.78c-.65-.82-1.19-.72-1.38-.68a.87.87,0,0,0-.65.87,1.75,1.75,0,0,0,.6,1.08,3.24,3.24,0,0,0,.89.59A.66.66,0,0,0,49.68,19.42Z"/><path class="cls-7" d="M49.59,19.33a1.51,1.51,0,0,0-.21-.8,2.6,2.6,0,0,0-.64-.78.82.82,0,0,0-.6-.16.66.66,0,0,0-.51.62,1.54,1.54,0,0,0,.46.84,3,3,0,0,0,.84.51A.48.48,0,0,0,49.59,19.33Z"/><path class="cls-8" d="M49.23,19.19s.09,0,.06-.13a3.07,3.07,0,0,0-.22-.54,1.22,1.22,0,0,0-.35-.45.48.48,0,0,0-.38-.1.42.42,0,0,0-.33.4.57.57,0,0,0,.21.4,3.22,3.22,0,0,0,.82.51.19.19,0,0,0,.15,0A.27.27,0,0,0,49.23,19.19Z"/><path class="cls-9" d="M49.16,19.12s.08,0,.05-.1a2.78,2.78,0,0,0-.19-.48,1.2,1.2,0,0,0-.32-.38.41.41,0,0,0-.33-.1.34.34,0,0,0-.27.33.52.52,0,0,0,.19.35,3.09,3.09,0,0,0,.72.46s.11,0,.12,0A.17.17,0,0,0,49.16,19.12Z"/><path class="cls-10" d="M49.06,19s0,0,0-.08a1.91,1.91,0,0,0-.17-.37,1.05,1.05,0,0,0-.25-.3.37.37,0,0,0-.26-.08.23.23,0,0,0-.19.25.46.46,0,0,0,.15.27,3.13,3.13,0,0,0,.57.37.13.13,0,0,0,.09,0S49.06,19,49.06,19Z"/><path class="cls-11" d="M48.69,18.42c.06,0-.07-.13-.12-.16a.19.19,0,0,0-.15,0,.22.22,0,0,0-.15.17c0,.05,0,.19.07.14S48.47,18.34,48.69,18.42Z"/><path class="cls-6" d="M73.67,31.68a.89.89,0,0,0-.22-.75,2,2,0,0,0-.59-.52c-.83-.46-1.24-.19-1.39-.08a.79.79,0,0,0-.23,1,1.51,1.51,0,0,0,.87.69,2.61,2.61,0,0,0,1,.19A.61.61,0,0,0,73.67,31.68Z"/><path class="cls-7" d="M73.56,31.63a1.41,1.41,0,0,0-.45-.58,2.13,2.13,0,0,0-.81-.43.72.72,0,0,0-.56.07.6.6,0,0,0-.21.69,1.4,1.4,0,0,0,.67.54,2.52,2.52,0,0,0,.89.14A.44.44,0,0,0,73.56,31.63Z"/><path class="cls-8" d="M73.2,31.64s.08,0,0-.12a1.86,1.86,0,0,0-.37-.38,1.12,1.12,0,0,0-.45-.25.47.47,0,0,0-.35,0,.41.41,0,0,0-.14.45.51.51,0,0,0,.31.26,3.25,3.25,0,0,0,.87.15.16.16,0,0,0,.12-.07A.21.21,0,0,0,73.2,31.64Z"/><path class="cls-9" d="M73.13,31.61s.06,0,0-.1a3.19,3.19,0,0,0-.32-.33,1.06,1.06,0,0,0-.4-.22.41.41,0,0,0-.31,0,.3.3,0,0,0-.11.37.47.47,0,0,0,.28.23,2.91,2.91,0,0,0,.76.13.16.16,0,0,0,.1-.05Z"/><path class="cls-10" d="M73,31.57s0,0,0-.08a1.57,1.57,0,0,0-.26-.25,1,1,0,0,0-.32-.17.33.33,0,0,0-.24,0,.21.21,0,0,0-.08.28.41.41,0,0,0,.23.17,2.22,2.22,0,0,0,.6.11s.07,0,.07,0S73,31.57,73,31.57Z"/><path class="cls-11" d="M72.49,31.19c.06,0-.11-.08-.16-.09a.15.15,0,0,0-.13,0,.19.19,0,0,0-.06.19c0,.05.09.15.1.1S72.28,31.19,72.49,31.19Z"/><path class="cls-6" d="M92.27,33.19a.5.5,0,0,0-.34-.31,1.06,1.06,0,0,0-.46-.07c-.57,0-.69.29-.73.39a.48.48,0,0,0,.18.56,1,1,0,0,0,.66.07,1.66,1.66,0,0,0,.54-.21A.35.35,0,0,0,92.27,33.19Z"/><path class="cls-7" d="M92.2,33.2a.78.78,0,0,0-.41-.15,1.21,1.21,0,0,0-.54,0,.4.4,0,0,0-.26.21.36.36,0,0,0,.11.42,1,1,0,0,0,.51.06,1.63,1.63,0,0,0,.49-.22A.25.25,0,0,0,92.2,33.2Z"/><path class="cls-8" d="M92,33.32s0,0,0-.07a1.67,1.67,0,0,0-.3-.07.64.64,0,0,0-.31,0c-.06,0-.14.07-.16.14a.22.22,0,0,0,.07.27.32.32,0,0,0,.24,0,1.54,1.54,0,0,0,.48-.2.1.1,0,0,0,0-.07A.07.07,0,0,0,92,33.32Z"/><path class="cls-9" d="M92,33.33s0,0,0-.06l-.27-.06a.61.61,0,0,0-.27,0,.26.26,0,0,0-.14.11.18.18,0,0,0,.06.22.25.25,0,0,0,.21,0,1.73,1.73,0,0,0,.43-.17.17.17,0,0,0,0-.06Z"/><path class="cls-10" d="M91.9,33.34s0,0,0,0l-.22,0a.71.71,0,0,0-.21,0,.2.2,0,0,0-.12.08.14.14,0,0,0,0,.17.24.24,0,0,0,.17,0,1.22,1.22,0,0,0,.34-.13s0,0,0,0Z"/><path class="cls-11" d="M91.52,33.32s-.08,0-.1,0a.09.09,0,0,0-.06.06.11.11,0,0,0,0,.11s.09,0,.08,0S91.42,33.38,91.52,33.32Z"/><path class="cls-6" d="M83.89,30.69a.76.76,0,0,0-.33-.61,2.26,2.26,0,0,0-.67-.39c-.89-.33-1.26-.08-1.39,0a.56.56,0,0,0-.09.8,1.9,1.9,0,0,0,1,.52,3.64,3.64,0,0,0,1,.09A.5.5,0,0,0,83.89,30.69Z"/><path class="cls-7" d="M83.77,30.65a1.46,1.46,0,0,0-.53-.45,3.09,3.09,0,0,0-.88-.31.81.81,0,0,0-.54.09.41.41,0,0,0-.1.58,1.59,1.59,0,0,0,.75.41,3.29,3.29,0,0,0,.9.06C83.67,31,83.83,30.8,83.77,30.65Z"/><path class="cls-8" d="M83.42,30.68s.07,0,0-.1a2.89,2.89,0,0,0-.43-.29,1.28,1.28,0,0,0-.48-.18.52.52,0,0,0-.35.06.27.27,0,0,0-.06.37.57.57,0,0,0,.35.2,3.77,3.77,0,0,0,.88.07.23.23,0,0,0,.11-.06A.35.35,0,0,0,83.42,30.68Z"/><path class="cls-9" d="M83.34,30.66s.06,0,0-.09a2.83,2.83,0,0,0-.38-.24,1.21,1.21,0,0,0-.42-.16.52.52,0,0,0-.31,0,.22.22,0,0,0,0,.32.61.61,0,0,0,.31.17,4.16,4.16,0,0,0,.78.07.2.2,0,0,0,.09-.06A.43.43,0,0,0,83.34,30.66Z"/><path class="cls-10" d="M83.21,30.63s.05,0,0-.06a1.68,1.68,0,0,0-.31-.19.87.87,0,0,0-.34-.12.38.38,0,0,0-.24,0,.15.15,0,0,0,0,.23.65.65,0,0,0,.25.13,4.83,4.83,0,0,0,.62.06l.07,0A.23.23,0,0,0,83.21,30.63Z"/><path class="cls-11" d="M82.64,30.35c.06,0-.12-.06-.17-.06a.15.15,0,0,0-.13,0,.13.13,0,0,0,0,.16s.12.12.12.08S82.43,30.37,82.64,30.35Z"/><path class="cls-6" d="M55.07,24.82a.85.85,0,0,0-.15-.77,2.37,2.37,0,0,0-.6-.66c-.86-.67-1.35-.53-1.53-.47a.64.64,0,0,0-.37.84,2.07,2.07,0,0,0,.89.9,4.1,4.1,0,0,0,1,.44A.59.59,0,0,0,55.07,24.82Z"/><path class="cls-7" d="M55,24.74a1.67,1.67,0,0,0-.43-.68,3,3,0,0,0-.85-.64,1,1,0,0,0-.62-.09.48.48,0,0,0-.31.61,1.81,1.81,0,0,0,.68.7,3.86,3.86,0,0,0,1,.37C54.72,25.1,55,24.92,55,24.74Z"/><path class="cls-8" d="M54.56,24.65s.09,0,0-.11a3.11,3.11,0,0,0-.36-.47,1.74,1.74,0,0,0-.47-.36.64.64,0,0,0-.4-.06.31.31,0,0,0-.2.39.66.66,0,0,0,.31.34,4.92,4.92,0,0,0,.95.38.17.17,0,0,0,.13,0A.17.17,0,0,0,54.56,24.65Z"/><path class="cls-9" d="M54.48,24.6s.08,0,0-.1a3.28,3.28,0,0,0-.33-.4,1.75,1.75,0,0,0-.41-.32.56.56,0,0,0-.35-.05.24.24,0,0,0-.16.32.61.61,0,0,0,.28.3,4.73,4.73,0,0,0,.82.34.14.14,0,0,0,.12,0S54.48,24.6,54.48,24.6Z"/><path class="cls-10" d="M54.35,24.52s.06,0,0-.07a2.28,2.28,0,0,0-.27-.31,1.25,1.25,0,0,0-.33-.25.48.48,0,0,0-.28-.05.17.17,0,0,0-.11.24.51.51,0,0,0,.23.23,3.71,3.71,0,0,0,.65.28l.09,0S54.35,24.52,54.35,24.52Z"/><path class="cls-11" d="M53.82,24c.07,0-.11-.11-.17-.13a.17.17,0,0,0-.14,0,.17.17,0,0,0-.1.17c0,.05.09.17.11.12S53.59,24,53.82,24Z"/><path class="cls-6" d="M54.14,21.13a.76.76,0,0,0-.1-.69,2.19,2.19,0,0,0-.49-.6c-.74-.63-1.17-.52-1.33-.48a.56.56,0,0,0-.36.72,1.81,1.81,0,0,0,.74.83,3.59,3.59,0,0,0,.89.44A.52.52,0,0,0,54.14,21.13Z"/><path class="cls-7" d="M54,21.06a1.43,1.43,0,0,0-.34-.62,2.92,2.92,0,0,0-.73-.6.82.82,0,0,0-.54-.1.42.42,0,0,0-.3.52,1.7,1.7,0,0,0,.57.64,3.39,3.39,0,0,0,.83.37C53.82,21.36,54.05,21.21,54,21.06Z"/><path class="cls-8" d="M53.7,21s.08,0,0-.1a3.45,3.45,0,0,0-.3-.43,1.35,1.35,0,0,0-.4-.33.5.5,0,0,0-.35-.07.27.27,0,0,0-.19.33.54.54,0,0,0,.26.31,4.25,4.25,0,0,0,.82.38s.1,0,.11,0A.1.1,0,0,0,53.7,21Z"/><path class="cls-9" d="M53.63,20.91s.07,0,0-.08a1.9,1.9,0,0,0-.27-.37,1.22,1.22,0,0,0-.35-.3.48.48,0,0,0-.3-.06.21.21,0,0,0-.16.28.55.55,0,0,0,.24.27,3.67,3.67,0,0,0,.71.33.16.16,0,0,0,.1,0A.18.18,0,0,0,53.63,20.91Z"/><path class="cls-10" d="M53.52,20.84s0,0,0-.07a3.24,3.24,0,0,0-.22-.28,1.23,1.23,0,0,0-.28-.24.42.42,0,0,0-.24-.05.16.16,0,0,0-.11.21.46.46,0,0,0,.19.21,4.22,4.22,0,0,0,.56.27s.08,0,.08,0S53.52,20.84,53.52,20.84Z"/><path class="cls-11" d="M53.08,20.37c.06,0-.09-.09-.14-.12a.2.2,0,0,0-.13,0,.14.14,0,0,0-.09.14s.07.16.09.12S52.88,20.32,53.08,20.37Z"/><path class="cls-6" d="M86.33,33.18a.82.82,0,0,0-.47-.54,1.71,1.71,0,0,0-.69-.2c-.86-.06-1.1.32-1.19.46a.74.74,0,0,0,.18.89,1.46,1.46,0,0,0,1,.24,2.78,2.78,0,0,0,.86-.22A.55.55,0,0,0,86.33,33.18Z"/><path class="cls-7" d="M86.22,33.19a1.18,1.18,0,0,0-.6-.32,2.2,2.2,0,0,0-.84,0,.65.65,0,0,0-.43.28.55.55,0,0,0,.09.66,1.34,1.34,0,0,0,.77.19,2.57,2.57,0,0,0,.78-.23A.39.39,0,0,0,86.22,33.19Z"/><path class="cls-8" d="M85.93,33.33s0,0,0-.11a2.51,2.51,0,0,0-.45-.17A1.11,1.11,0,0,0,85,33a.45.45,0,0,0-.28.18.35.35,0,0,0,.06.42.43.43,0,0,0,.36.1,3,3,0,0,0,.78-.21s.07-.08.06-.1A.2.2,0,0,0,85.93,33.33Z"/><path class="cls-9" d="M85.86,33.33s0,0,0-.09a2.3,2.3,0,0,0-.4-.14.83.83,0,0,0-.41,0,.41.41,0,0,0-.25.15.28.28,0,0,0,.06.35.44.44,0,0,0,.31.08,2.43,2.43,0,0,0,.69-.18.16.16,0,0,0,.06-.08A.2.2,0,0,0,85.86,33.33Z"/><path class="cls-10" d="M85.73,33.34s0,0,0-.06l-.31-.11a.93.93,0,0,0-.33,0,.35.35,0,0,0-.2.1.2.2,0,0,0,0,.26.34.34,0,0,0,.25.06,2.27,2.27,0,0,0,.54-.14.07.07,0,0,0,0-.06A.15.15,0,0,0,85.73,33.34Z"/><path class="cls-11" d="M85.16,33.23s-.12,0-.17,0-.08,0-.09.08a.15.15,0,0,0,0,.18s.13.1.12.05S85,33.31,85.16,33.23Z"/><path class="cls-6" d="M89.4,31.28a.73.73,0,0,0-.39-.5,1.49,1.49,0,0,0-.6-.21c-.77-.09-1,.24-1.08.37a.66.66,0,0,0,.12.79,1.33,1.33,0,0,0,.87.25,2.25,2.25,0,0,0,.77-.16A.49.49,0,0,0,89.4,31.28Z"/><path class="cls-7" d="M89.3,31.28a1.09,1.09,0,0,0-.51-.31A1.78,1.78,0,0,0,88,30.9a.57.57,0,0,0-.39.22.49.49,0,0,0,0,.59,1.24,1.24,0,0,0,.68.2,2.44,2.44,0,0,0,.7-.17C89.31,31.65,89.39,31.4,89.3,31.28Z"/><path class="cls-8" d="M89,31.39s0,0,0-.1a2.66,2.66,0,0,0-.4-.17,1,1,0,0,0-.41-.05.38.38,0,0,0-.25.15.32.32,0,0,0,0,.38.43.43,0,0,0,.32.1,2.84,2.84,0,0,0,.7-.16.24.24,0,0,0,.06-.09A.2.2,0,0,0,89,31.39Z"/><path class="cls-9" d="M89,31.39s0,0,0-.08a1.69,1.69,0,0,0-.35-.14.8.8,0,0,0-.37,0,.3.3,0,0,0-.22.12.25.25,0,0,0,0,.31.37.37,0,0,0,.28.08,2.08,2.08,0,0,0,.62-.13.12.12,0,0,0,0-.07A.2.2,0,0,0,89,31.39Z"/><path class="cls-10" d="M88.87,31.39s0,0,0-.05a1.16,1.16,0,0,0-.27-.11,1,1,0,0,0-.29,0,.26.26,0,0,0-.18.09.16.16,0,0,0,0,.23.28.28,0,0,0,.22.06,1.7,1.7,0,0,0,.49-.1.09.09,0,0,0,0-.05Z"/><path class="cls-11" d="M88.36,31.27s-.1,0-.14,0-.08,0-.09.07a.14.14,0,0,0,0,.16s.12.09.11,0S88.21,31.34,88.36,31.27Z"/><path class="cls-6" d="M76.74,29.81a.77.77,0,0,0-.22-.63,1.52,1.52,0,0,0-.54-.41c-.73-.35-1.07-.1-1.19,0a.68.68,0,0,0-.15.83,1.32,1.32,0,0,0,.78.54,2.72,2.72,0,0,0,.83.11A.51.51,0,0,0,76.74,29.81Z"/><path class="cls-7" d="M76.64,29.77a1.24,1.24,0,0,0-.41-.48,2.18,2.18,0,0,0-.72-.32.63.63,0,0,0-.47.09.53.53,0,0,0-.15.61,1.24,1.24,0,0,0,.61.42,2,2,0,0,0,.76.07C76.52,30.15,76.68,29.92,76.64,29.77Z"/><path class="cls-8" d="M76.34,29.8s.06,0,0-.11a2.52,2.52,0,0,0-.33-.3,1,1,0,0,0-.4-.19.38.38,0,0,0-.3.05.36.36,0,0,0-.1.4.46.46,0,0,0,.28.2,2.77,2.77,0,0,0,.76.08.15.15,0,0,0,.09-.06A.15.15,0,0,0,76.34,29.8Z"/><path class="cls-9" d="M76.28,29.78s0,0,0-.09a1.33,1.33,0,0,0-.3-.26.82.82,0,0,0-.35-.17.38.38,0,0,0-.26,0,.27.27,0,0,0-.07.33.4.4,0,0,0,.25.18,2.88,2.88,0,0,0,.65.08.2.2,0,0,0,.09-.06Z"/><path class="cls-10" d="M76.17,29.74s0,0,0-.06a1.8,1.8,0,0,0-.24-.2.88.88,0,0,0-.28-.13.3.3,0,0,0-.21,0,.19.19,0,0,0-.05.24.43.43,0,0,0,.2.14,2,2,0,0,0,.52.06.11.11,0,0,0,.07,0Z"/><path class="cls-11" d="M75.7,29.45c.06,0-.09-.06-.14-.07a.23.23,0,0,0-.11,0,.18.18,0,0,0,0,.17s.09.13.09.08S75.53,29.47,75.7,29.45Z"/><path class="cls-6" d="M94.4,30.69a.56.56,0,0,0-.3-.4,1.35,1.35,0,0,0-.47-.18c-.61-.08-.8.18-.87.28a.53.53,0,0,0,.08.63,1,1,0,0,0,.69.21,1.61,1.61,0,0,0,.62-.11A.37.37,0,0,0,94.4,30.69Z"/><path class="cls-7" d="M94.33,30.69a.93.93,0,0,0-.41-.25,1.35,1.35,0,0,0-.59-.07.48.48,0,0,0-.32.17A.39.39,0,0,0,93,31a1,1,0,0,0,.53.17,1.67,1.67,0,0,0,.57-.12A.28.28,0,0,0,94.33,30.69Z"/><path class="cls-8" d="M94.12,30.78s0,0,0-.08a1.29,1.29,0,0,0-.31-.14.76.76,0,0,0-.33,0,.31.31,0,0,0-.2.11.24.24,0,0,0,0,.3.33.33,0,0,0,.25.09,1.89,1.89,0,0,0,.56-.11s0,0,0-.07A.2.2,0,0,0,94.12,30.78Z"/><path class="cls-9" d="M94.06,30.78s0,0,0-.07l-.27-.12a.75.75,0,0,0-.29,0,.26.26,0,0,0-.18.09.21.21,0,0,0,0,.26.34.34,0,0,0,.22.07,2.05,2.05,0,0,0,.49-.09.13.13,0,0,0,0-.06A.07.07,0,0,0,94.06,30.78Z"/><path class="cls-10" d="M94,30.78s0,0,0-.05l-.22-.09a.6.6,0,0,0-.23,0,.17.17,0,0,0-.14.06.14.14,0,0,0,0,.19.26.26,0,0,0,.17.05,1.61,1.61,0,0,0,.39-.07s0,0,0,0Z"/><path class="cls-11" d="M93.58,30.67s-.08,0-.12,0-.06,0-.07.05a.12.12,0,0,0,0,.13s.09.07.08,0S93.45,30.72,93.58,30.67Z"/><path class="cls-12" d="M60.3,7.36a26.32,26.32,0,0,1,7.79.45,41.06,41.06,0,0,1,12.23,4.45,56.5,56.5,0,0,1,11.83,8.82c2.3,2.32,6.68,6.22,2.58,7.71-2.78,1-10.3,1-16.7-.36a89.4,89.4,0,0,1-20.15-6.65c-4.7-2.28-8.79-5.24-9.45-8S50.23,10.1,52,9.42c.61-.23,2-.7,2.54-.92A21.56,21.56,0,0,1,60.3,7.36Z"/><path class="cls-13" d="M59.72,7.87a28.11,28.11,0,0,1,7.93.36,39.73,39.73,0,0,1,11.59,4.13A61.14,61.14,0,0,1,89.91,20.2c1.28,1.13,7.1,6,4.46,7.53-3.18,1.87-11.14.82-18.69-.88A71.33,71.33,0,0,1,59,21c-4.43-2.15-8.41-4.69-9.14-7.21-.77-2.82,2.83-4,4.37-4.5A29.48,29.48,0,0,1,59.72,7.87Z"/><path class="cls-14" d="M63.86,10.12c2-.34,3.19-1.66,3-2.36.37.27.85,2-1.89,3.07C64.62,10.66,64.35,10.41,63.86,10.12Z"/><path class="cls-14" d="M55.36,11.78c-1.41.57-5,.42-6.27.1a16.15,16.15,0,0,0,7.25.51C56.12,12.23,55.75,12.05,55.36,11.78Z"/><path class="cls-14" d="M56.42,13.13c-1.19.94-4.85,1.47-6.22,1.34a14.33,14.33,0,0,0,7.4-.81C57.32,13.51,56.89,13.37,56.42,13.13Z"/><path class="cls-14" d="M57.54,14.3c-.46,1.21-4.78,3-6,3.11,1.42.21,5.61-.66,7.34-2.52C58.52,14.77,58.08,14.5,57.54,14.3Z"/><path class="cls-14" d="M66.68,11.45c2.43,0,5.91-1.52,6-2.12.28.28-1.21,2.33-5.5,2.74C67,11.88,67.06,11.77,66.68,11.45Z"/><path class="cls-14" d="M69.15,13.13c3.4.48,8-.79,9.18-1.24-1.61,1.33-5.48,1.84-8.71,1.74C69.36,13.44,69.55,13.45,69.15,13.13Z"/><path class="cls-14" d="M71.16,14.82a45.87,45.87,0,0,0,12.24-.37c-2.88,1.42-9,1.14-11.75.87C71.39,15.13,71.58,15.14,71.16,14.82Z"/><path class="cls-14" d="M72.54,15.88a70.84,70.84,0,0,0,10.59.57A41.43,41.43,0,0,1,73,16.37C72.77,16.18,73,16.19,72.54,15.88Z"/><path class="cls-14" d="M77,19.11a69.37,69.37,0,0,0,10.25,1,37.89,37.89,0,0,1-9.42-.51A9.6,9.6,0,0,1,77,19.11Z"/><path class="cls-14" d="M87.92,24.9a3.8,3.8,0,0,1-.59-.23,47.58,47.58,0,0,0,8.19,1.08,29.35,29.35,0,0,1-7.26-.49A.48.48,0,0,0,87.92,24.9Z"/><path class="cls-14" d="M80.35,21.25a72.16,72.16,0,0,0,11.93.94,47.1,47.1,0,0,1-11.15-.46C80.86,21.54,80.78,21.57,80.35,21.25Z"/><path class="cls-14" d="M75.69,18.17a95.76,95.76,0,0,0,13.63.93c-5.06.61-10.3-.16-13.12-.43C75.93,18.48,76.13,18.49,75.69,18.17Z"/><path class="cls-14" d="M75.06,17.1a17.64,17.64,0,0,0,5.09.55,16.51,16.51,0,0,1-4.59,0C75.3,17.41,75.49,17.42,75.06,17.1Z"/><path class="cls-14" d="M78.52,20.11a37.12,37.12,0,0,0,6.73.89,22.53,22.53,0,0,1-5.94-.35C79,20.47,79,20.43,78.52,20.11Z"/><path class="cls-14" d="M81.92,22.12a60.19,60.19,0,0,0,7,1,28.5,28.5,0,0,1-6.28-.54C82.32,22.4,82.36,22.44,81.92,22.12Z"/><path class="cls-14" d="M84,23.38A60.41,60.41,0,0,0,91,24.2a23.74,23.74,0,0,1-5.82-.35A9.61,9.61,0,0,1,84,23.38Z"/><path class="cls-14" d="M90.77,26.3a2,2,0,0,0-.65-.27h0L90,26a34.32,34.32,0,0,0,5.91.77,17.13,17.13,0,0,1-5-.32A.52.52,0,0,0,90.77,26.3Z"/><path class="cls-14" d="M91.14,26.9a.36.36,0,0,0,0-.09,22.66,22.66,0,0,0,4.52,1.06,12.63,12.63,0,0,1-4.61-.82l0,0Z"/><path class="cls-14" d="M87.76,26.68c.85.59,2,1.4,2.12,2.07.45-.62-.18-1.29-1.16-1.82C88.38,26.83,88.33,26.83,87.76,26.68Z"/><path class="cls-14" d="M81.8,23.92c.81.59,4.51,4,4.39,5.09,1.09-1.18-2.08-4-3-4.51C82.84,24.4,82.36,24.07,81.8,23.92Z"/><path class="cls-14" d="M70.88,19.75c.72.61,5,6,4.8,7.1,1.16-1.18-2.14-5.65-3.51-6.67C71.86,20.09,71.4,19.91,70.88,19.75Z"/><path class="cls-14" d="M76.55,21.65c.76.6,4,3.48,4.51,4.84.67-1.38-2.49-3.78-3-4.19C77.71,22.21,77.08,21.8,76.55,21.65Z"/><path class="cls-14" d="M68.36,18.71c.65.6,3.36,3.48,3.56,4.81,1-1.32-1.74-3.73-2.2-4.14C69.42,19.28,68.87,18.87,68.36,18.71Z"/><path class="cls-14" d="M61.31,16.62c.63.93.2,4.21-1.2,5.14,2.5-.75,3-3.79,2.42-4.66C62.27,17,61.74,16.83,61.31,16.62Z"/><path class="cls-14" d="M73.17,20.53c1.16.78,4.59,4.45,4.87,6,.85-1.45-2.5-5-3.38-5.52Z"/><path class="cls-14" d="M66.15,18.26c1,.79,4.62,6.2,4.07,7.53,1.82-1.91-1.94-6.66-2.72-7.21C67.2,18.48,66.65,18.42,66.15,18.26Z"/><path class="cls-14" d="M63.09,17.19c1.23,1,3.6,5.67,3.22,7.27,1.3-2.06-.64-5.67-1.89-6.95C64.13,17.41,63.58,17.35,63.09,17.19Z"/><path class="cls-14" d="M59.27,15c.58,1-2.47,3.88-4.16,5.07,3-1.41,5.79-3.38,5.37-4.59C60.24,15.33,59.68,15.19,59.27,15Z"/><path class="cls-14" d="M89.31,26.94c.86.6,2.07,1.41,2.15,2.07.45-.62-.19-1.29-1.18-1.82Z"/><path class="cls-14" d="M60.94,16.58c1.19.54,4.19,1.49,6.47,2.27s6,1.88,8.21,2.62S83,24.6,85.45,25.73A19.47,19.47,0,0,0,91,27.59c1.37.15,1.17-.67.34-1.2-.59-.38-3.44-2-5.1-2.72A76.43,76.43,0,0,1,75.13,17c-2-1.6-4.09-3-5.74-4.24a34.61,34.61,0,0,0-6.12-3.56,15,15,0,0,0-5.39-1.22,8.81,8.81,0,0,0-4.25,1.12c-.35.17-.76,1.16.26,2.43A19.32,19.32,0,0,0,60.94,16.58ZM59.28,14a15.1,15.1,0,0,1-3.83-3.48c-.32-.67.19-1.57.19-1.76.5.12.61-.24.61-.24a37.33,37.33,0,0,1,5.67,1.11,22.11,22.11,0,0,1,5.82,3C69.89,14,71,14.89,72.33,15.93s3.9,2.81,5.93,4.09a74.42,74.42,0,0,0,8.67,4.79c3,1.32,4.38,1.58,3.69,2.13-.22.18-2-.3-4.11-1.28C85,25,83.3,24.27,81.31,23.33c-1.35-.64-5.59-2.43-8.74-3.6-2-.76-4.92-1.72-7.08-2.64A53.49,53.49,0,0,1,59.28,14Z"/><path class="cls-15" d="M59.64,9.51c.34.23,3.35,2.25,5.48,3.7.85.57,12.6,6.84,11.06,6.75-.92,0-12.74-5.59-13.14-5.78a83.84,83.84,0,0,1-7.59-3.67C54.26,9.73,54.33,9,54.33,9a21,21,0,0,1,2.6-.67A5.4,5.4,0,0,1,59.64,9.51Z"/><path class="cls-16" d="M64.12,13.24c1.25.86,8,4.38,7.72,4.49s-7-3.2-9.3-4.29c-1.85-.91-7.23-3.25-7.79-4.55a6.69,6.69,0,0,1,1.3-.46C58.68,9.18,61.58,11.44,64.12,13.24Z"/><path class="cls-16" d="M61.62,16.32c1.2.54,3.66,1.54,5.94,2.32s5.86,2,8.11,2.72,7.36,3.13,9.85,4.26a23.33,23.33,0,0,0,4.69,1.71c1.41.19,1.37-.65.67-1S89,25.17,87.3,24.42a90.6,90.6,0,0,1-12.45-7.33c-2-1.6-4.14-3-5.87-4.21a32.42,32.42,0,0,0-5.61-3.24,19.76,19.76,0,0,0-6-1.56,7.52,7.52,0,0,0-2.71.55c-1.61.63-.67,2,0,2.93C55.2,12.27,57.17,14.26,61.62,16.32Zm-2.94-2.21c-1.44-.93-3.32-2.44-3.74-3.4-.79-1.81,1.4-2.43,2.65-2.23a26.09,26.09,0,0,1,11,4.47,57.35,57.35,0,0,1,5.34,3.77c1.39,1,3.16,2.27,5.21,3.55a73.09,73.09,0,0,0,8,4.26c3,1.32,4.38,2.15,3.89,2.47s-1.35.22-4.59-1.19c-1.59-.7-3.45-1.46-5.47-2.39s-5.08-2.23-8.79-3.53c-2-.72-4.87-1.74-7.08-2.63A44.1,44.1,0,0,1,58.68,14.11Z"/><path class="cls-17" d="M54.62,20a43.4,43.4,0,0,0,5,1.53,35.18,35.18,0,0,0,6.72,1.85c2.2.41,4.41.81,6.62,1.14a35.44,35.44,0,0,0,5.91.49,13.32,13.32,0,0,0,6-1.35,6.9,6.9,0,0,0,3.57-5c0-.1,0-.8,0-.89s.24.4.36.31c1.27,1.06,2.39,2.07,3.26,2.94,2.3,2.32,6.68,6.22,2.58,7.71-2.78,1-10.3,1-16.7-.36a89.4,89.4,0,0,1-20.15-6.65c-1.14-.55-2.24-1.15-3.27-1.77Z"/><path class="cls-18" d="M78,28.56A90.08,90.08,0,0,1,57.82,21.9c-5.45-2.65-8.92-5.58-9.52-8-.65-2.9,2.14-4,3.63-4.56.35-.14.92-.34,1.48-.54l1.06-.38a21,21,0,0,1,5.81-1.15c.8-.07,1.62-.11,2.43-.11a26.2,26.2,0,0,1,5.41.56,41.33,41.33,0,0,1,12.27,4.46A56.67,56.67,0,0,1,92.24,21l.53.53c1.74,1.72,4.12,4.07,3.74,5.8a2.38,2.38,0,0,1-1.73,1.6,21,21,0,0,1-6.32.72h0A52.17,52.17,0,0,1,78,28.56ZM60.31,7.5a20.36,20.36,0,0,0-5.74,1.13L53.49,9c-.55.2-1.12.4-1.46.54-2,.76-4,1.79-3.47,4.25s4,5.25,9.38,7.86A89.8,89.8,0,0,0,78.06,28.3a52.49,52.49,0,0,0,10.4,1.08,20.83,20.83,0,0,0,6.23-.71c.9-.33,1.43-.8,1.56-1.4.35-1.59-2-3.89-3.67-5.57l-.53-.52a56.09,56.09,0,0,0-11.79-8.81A41.25,41.25,0,0,0,68.07,7.94a25.79,25.79,0,0,0-5.36-.55A24,24,0,0,0,60.31,7.5Z"/><path class="cls-19" d="M48,14.53c-.38.39-1.28,3.15-1,3.68C48.78,21.86,59.59,29,70.49,29.09,63.32,27.6,50.27,19.46,48,14.53Z"/><path class="cls-3" d="M145.87,5c4.56,5.07,5.49,17.61-1.77,22.66-8.13,5.65-16,6.09-30.16,6.09-2.78,0-11.92-1.41-14.68-9.85C100.69,23.43,141.55,6.29,145.87,5Z"/><path class="cls-5" d="M106.54,32.14a14.88,14.88,0,0,1-4.31-3A13.16,13.16,0,0,1,99.13,24l0-.13.12,0c.42-.15,4.2-1.71,9.44-3.88,12.76-5.29,34.12-14.13,37.18-15l.08,0,.05.06c2.65,2.94,4,8.23,3.47,13.18-.49,4.22-2.36,7.66-5.26,9.68A30.62,30.62,0,0,1,131.3,33c-4.55.78-9.61.92-17.36.92A18.77,18.77,0,0,1,106.54,32.14Zm2.21-12c-4.91,2-8.53,3.54-9.33,3.84a13.26,13.26,0,0,0,7.23,7.89,18.51,18.51,0,0,0,7.29,1.75c14.85,0,22.18-.57,30.08-6.07,2.84-2,4.67-5.35,5.14-9.49.56-4.84-.78-10-3.34-12.9C142.5,6.19,121.4,14.93,108.75,20.17Z"/><path class="cls-5" d="M143.85,12c-.18-1.14.62-5.31-.14-6.18,1-.38,1.75-.64,2.16-.76,4.56,5.07,5.69,17.69-1.77,22.66s-15.75,6.62-30.16,6.09A19.31,19.31,0,0,1,105,31.15C121.2,33.56,145.69,23.69,143.85,12Z"/><path class="cls-6" d="M115.36,29.17a.85.85,0,0,1,.35-.65,1.7,1.7,0,0,1,.64-.36c.86-.26,1.19.07,1.3.19a.74.74,0,0,1,0,.93,1.48,1.48,0,0,1-.94.47,2.82,2.82,0,0,1-.91,0A.56.56,0,0,1,115.36,29.17Z"/><path class="cls-7" d="M115.47,29.15a1.37,1.37,0,0,1,.53-.46,2.16,2.16,0,0,1,.83-.23.68.68,0,0,1,.5.17.56.56,0,0,1,.06.69,1.33,1.33,0,0,1-.72.36,2.43,2.43,0,0,1-.85-.05A.4.4,0,0,1,115.47,29.15Z"/><path class="cls-8" d="M115.8,29.23s-.07,0,0-.12a2.76,2.76,0,0,1,.42-.28,1,1,0,0,1,.46-.14.45.45,0,0,1,.32.11.37.37,0,0,1,0,.44.44.44,0,0,1-.34.18,3,3,0,0,1-.83,0s-.09-.06-.09-.09S115.8,29.23,115.8,29.23Z"/><path class="cls-9" d="M115.87,29.21s-.05,0,0-.09a1.58,1.58,0,0,1,.37-.24.88.88,0,0,1,.4-.12.38.38,0,0,1,.28.09.28.28,0,0,1,0,.36.44.44,0,0,1-.3.16,3.07,3.07,0,0,1-.73,0s-.08-.05-.08-.07A.35.35,0,0,1,115.87,29.21Z"/><path class="cls-10" d="M116,29.2s0,0,0-.08a2.46,2.46,0,0,1,.3-.17,1,1,0,0,1,.32-.1.31.31,0,0,1,.22.07.2.2,0,0,1,0,.27.38.38,0,0,1-.24.11,2.29,2.29,0,0,1-.58,0,.06.06,0,0,1-.06-.05Z"/><path class="cls-11" d="M116.55,29c-.06,0,.11-.05.16-.05a.12.12,0,0,1,.11.05.17.17,0,0,1,0,.19s-.12.12-.12.07S116.74,29,116.55,29Z"/><path class="cls-6" d="M126.67,23.79a.91.91,0,0,1,.27-.77,2.22,2.22,0,0,1,.65-.5c.9-.42,1.32-.11,1.46,0a.84.84,0,0,1,.18,1,1.59,1.59,0,0,1-1,.66,2.83,2.83,0,0,1-1,.13A.61.61,0,0,1,126.67,23.79Z"/><path class="cls-7" d="M126.78,23.75a1.41,1.41,0,0,1,.51-.58,2.56,2.56,0,0,1,.88-.4.76.76,0,0,1,.57.12.62.62,0,0,1,.18.74,1.56,1.56,0,0,1-.74.52,3,3,0,0,1-.93.07C126.93,24.21,126.73,23.93,126.78,23.75Z"/><path class="cls-8" d="M127.15,23.78s-.07,0,0-.13a4,4,0,0,1,.41-.37,1.15,1.15,0,0,1,.49-.23.52.52,0,0,1,.37.07.43.43,0,0,1,.11.48.5.5,0,0,1-.34.25,3.11,3.11,0,0,1-.92.09.17.17,0,0,1-.12-.08Z"/><path class="cls-9" d="M127.23,23.76s-.06,0,0-.11a2.51,2.51,0,0,1,.37-.32,1.12,1.12,0,0,1,.43-.2.44.44,0,0,1,.32.05.33.33,0,0,1,.09.4.49.49,0,0,1-.31.22,3,3,0,0,1-.8.09.15.15,0,0,1-.1-.07Z"/><path class="cls-10" d="M127.37,23.72s-.06,0,0-.09a2.09,2.09,0,0,1,.3-.24.93.93,0,0,1,.34-.15.35.35,0,0,1,.25,0,.21.21,0,0,1,.06.29.44.44,0,0,1-.24.17,2.84,2.84,0,0,1-.64.07.15.15,0,0,1-.08,0A.2.2,0,0,1,127.37,23.72Z"/><path class="cls-11" d="M127.93,23.36c-.06,0,.12-.08.17-.08a.16.16,0,0,1,.14,0,.23.23,0,0,1,0,.2c0,.05-.11.16-.12.1S128.15,23.38,127.93,23.36Z"/><path class="cls-6" d="M131.66,25.42a.91.91,0,0,1,.28-.76,2,2,0,0,1,.65-.51c.9-.42,1.31-.1,1.46,0a.85.85,0,0,1,.18,1,1.72,1.72,0,0,1-1,.67,3.2,3.2,0,0,1-1,.12A.62.62,0,0,1,131.66,25.42Z"/><path class="cls-7" d="M131.78,25.38a1.34,1.34,0,0,1,.51-.58,2.25,2.25,0,0,1,.87-.39.73.73,0,0,1,.58.11.63.63,0,0,1,.17.74,1.47,1.47,0,0,1-.74.52,2.7,2.7,0,0,1-.93.07C131.92,25.84,131.73,25.56,131.78,25.38Z"/><path class="cls-8" d="M132.15,25.42s-.08,0,0-.14a2.61,2.61,0,0,1,.41-.37,1.25,1.25,0,0,1,.48-.23.52.52,0,0,1,.37.08.39.39,0,0,1,.11.47.51.51,0,0,1-.34.26,3.49,3.49,0,0,1-.92.09s-.11-.06-.11-.08A.2.2,0,0,1,132.15,25.42Z"/><path class="cls-9" d="M132.23,25.39s-.07,0,0-.11a2.51,2.51,0,0,1,.37-.32,1.08,1.08,0,0,1,.42-.2.46.46,0,0,1,.33.06.31.31,0,0,1,.08.39.46.46,0,0,1-.3.22,3,3,0,0,1-.8.09s-.1,0-.1-.06A.15.15,0,0,1,132.23,25.39Z"/><path class="cls-10" d="M132.36,25.35s-.05,0,0-.08a1.94,1.94,0,0,1,.29-.24,1.09,1.09,0,0,1,.35-.16.35.35,0,0,1,.25,0,.23.23,0,0,1,.06.29.39.39,0,0,1-.25.17,3.47,3.47,0,0,1-.64.08s-.07,0-.07-.05A.08.08,0,0,1,132.36,25.35Z"/><path class="cls-11" d="M132.93,25c-.07,0,.11-.08.17-.08a.16.16,0,0,1,.13,0,.18.18,0,0,1,.05.2c0,.05-.1.16-.11.1S133.14,25,132.93,25Z"/><path class="cls-6" d="M135.18,29.85a.94.94,0,0,1,.27-.76,1.87,1.87,0,0,1,.66-.5c.89-.42,1.31-.11,1.46,0a.85.85,0,0,1,.17,1,1.6,1.6,0,0,1-1,.66,2.93,2.93,0,0,1-1,.12A.62.62,0,0,1,135.18,29.85Z"/><path class="cls-7" d="M135.3,29.81a1.51,1.51,0,0,1,.5-.58,2.36,2.36,0,0,1,.88-.39.77.77,0,0,1,.58.11.64.64,0,0,1,.17.74,1.51,1.51,0,0,1-.74.52,2.93,2.93,0,0,1-.93.08C135.44,30.27,135.25,30,135.3,29.81Z"/><path class="cls-8" d="M135.66,29.85s-.07,0,0-.13a2.7,2.7,0,0,1,.42-.38,1.22,1.22,0,0,1,.48-.22.47.47,0,0,1,.37.07.39.39,0,0,1,.11.47.51.51,0,0,1-.34.26,3.49,3.49,0,0,1-.92.09s-.11-.05-.11-.08A.32.32,0,0,1,135.66,29.85Z"/><path class="cls-9" d="M135.74,29.82s-.06,0,0-.11a2,2,0,0,1,.36-.32,1.19,1.19,0,0,1,.43-.2.43.43,0,0,1,.32.06.32.32,0,0,1,.09.4.49.49,0,0,1-.3.21,3.07,3.07,0,0,1-.81.09.17.17,0,0,1-.1-.06Z"/><path class="cls-10" d="M135.88,29.78s0,0,0-.08a2.85,2.85,0,0,1,.3-.24.85.85,0,0,1,.34-.15.33.33,0,0,1,.26,0,.23.23,0,0,1,.05.3.43.43,0,0,1-.24.16,2.78,2.78,0,0,1-.64.08s-.07,0-.07-.05A.08.08,0,0,1,135.88,29.78Z"/><path class="cls-11" d="M136.45,29.42c-.07,0,.11-.07.16-.08a.21.21,0,0,1,.14,0,.22.22,0,0,1,.05.21s-.11.15-.12.09S136.66,29.44,136.45,29.42Z"/><path class="cls-6" d="M142.87,19.69a.88.88,0,0,1,.16-.75,2,2,0,0,1,.54-.55c.78-.51,1.21-.28,1.36-.19a.8.8,0,0,1,.3.92,1.54,1.54,0,0,1-.8.75,3.24,3.24,0,0,1-.93.25A.61.61,0,0,1,142.87,19.69Z"/><path class="cls-7" d="M143,19.64a1.42,1.42,0,0,1,.39-.61,2.2,2.2,0,0,1,.77-.48.7.7,0,0,1,.55,0,.58.58,0,0,1,.26.67,1.4,1.4,0,0,1-.62.58,3.08,3.08,0,0,1-.86.19A.42.42,0,0,1,143,19.64Z"/><path class="cls-8" d="M143.33,19.62s-.08,0,0-.12a2.66,2.66,0,0,1,.33-.4,1.07,1.07,0,0,1,.43-.28.47.47,0,0,1,.35,0,.39.39,0,0,1,.16.43.48.48,0,0,1-.28.28,3.29,3.29,0,0,1-.85.21.2.2,0,0,1-.11-.06A.32.32,0,0,1,143.33,19.62Z"/><path class="cls-9" d="M143.4,19.59s-.07,0,0-.11a4.07,4.07,0,0,1,.3-.34,1,1,0,0,1,.38-.24.39.39,0,0,1,.3,0,.3.3,0,0,1,.14.36.48.48,0,0,1-.26.24,3,3,0,0,1-.73.19s-.1,0-.1-.05A.18.18,0,0,1,143.4,19.59Z"/><path class="cls-10" d="M143.52,19.53s-.05,0,0-.08a2.62,2.62,0,0,1,.24-.26,1,1,0,0,1,.3-.19.39.39,0,0,1,.24,0,.22.22,0,0,1,.1.27.44.44,0,0,1-.21.19,2.43,2.43,0,0,1-.58.15.15.15,0,0,1-.08,0A.08.08,0,0,1,143.52,19.53Z"/><path class="cls-11" d="M144,19.12c-.07,0,.09-.08.14-.09a.18.18,0,0,1,.14,0,.2.2,0,0,1,.07.18c0,.05-.08.16-.1.11S144.2,19.11,144,19.12Z"/><path class="cls-6" d="M139.15,25.48a1,1,0,0,1,.17-.83,2.05,2.05,0,0,1,.6-.61c.87-.57,1.35-.31,1.52-.21a.88.88,0,0,1,.33,1,1.68,1.68,0,0,1-.9.83,3.22,3.22,0,0,1-1,.27A.65.65,0,0,1,139.15,25.48Z"/><path class="cls-7" d="M139.27,25.42a1.46,1.46,0,0,1,.44-.67,2.45,2.45,0,0,1,.85-.54.8.8,0,0,1,.61,0,.69.69,0,0,1,.29.75,1.6,1.6,0,0,1-.69.64,2.91,2.91,0,0,1-1,.21C139.48,25.88,139.24,25.62,139.27,25.42Z"/><path class="cls-8" d="M139.65,25.4s-.08,0,0-.13a3.37,3.37,0,0,1,.38-.45,1.18,1.18,0,0,1,.46-.3.51.51,0,0,1,.4,0,.41.41,0,0,1,.18.47.59.59,0,0,1-.32.32,3.35,3.35,0,0,1-.93.22c-.05,0-.12,0-.13-.06A.2.2,0,0,1,139.65,25.4Z"/><path class="cls-9" d="M139.73,25.36s-.07,0,0-.11a2.61,2.61,0,0,1,.33-.38,1.08,1.08,0,0,1,.42-.27.44.44,0,0,1,.34,0,.33.33,0,0,1,.14.4.5.5,0,0,1-.28.27,3.47,3.47,0,0,1-.82.21.19.19,0,0,1-.11,0A.32.32,0,0,1,139.73,25.36Z"/><path class="cls-10" d="M139.86,25.3s-.05,0,0-.08a1.75,1.75,0,0,1,.27-.29.92.92,0,0,1,.33-.21.36.36,0,0,1,.27,0,.23.23,0,0,1,.1.29.37.37,0,0,1-.23.21,2.47,2.47,0,0,1-.64.17.19.19,0,0,1-.09,0A.18.18,0,0,1,139.86,25.3Z"/><path class="cls-11" d="M140.4,24.85c-.07,0,.11-.09.16-.11a.19.19,0,0,1,.15,0,.23.23,0,0,1,.08.21c0,.05-.09.17-.11.12S140.62,24.84,140.4,24.85Z"/><path class="cls-6" d="M137.5,20.31a.88.88,0,0,1,.12-.77,2,2,0,0,1,.51-.59c.77-.56,1.21-.35,1.37-.26a.79.79,0,0,1,.36.91,1.61,1.61,0,0,1-.77.8,3.11,3.11,0,0,1-.93.3A.59.59,0,0,1,137.5,20.31Z"/><path class="cls-7" d="M137.61,20.25a1.36,1.36,0,0,1,.36-.64,2.2,2.2,0,0,1,.75-.53.68.68,0,0,1,.56,0,.6.6,0,0,1,.3.66,1.46,1.46,0,0,1-.59.62,2.63,2.63,0,0,1-.86.25C137.83,20.65,137.59,20.43,137.61,20.25Z"/><path class="cls-8" d="M138,20.21s-.08,0,0-.12a3.15,3.15,0,0,1,.32-.43,1.17,1.17,0,0,1,.41-.3.45.45,0,0,1,.36,0,.39.39,0,0,1,.19.43.55.55,0,0,1-.27.3,3.38,3.38,0,0,1-.84.25.25.25,0,0,1-.13-.05A.28.28,0,0,1,138,20.21Z"/><path class="cls-9" d="M138,20.17s-.07,0,0-.1a2.57,2.57,0,0,1,.28-.37,1,1,0,0,1,.37-.26.37.37,0,0,1,.31,0,.3.3,0,0,1,.15.36.43.43,0,0,1-.24.26,3.25,3.25,0,0,1-.74.23.15.15,0,0,1-.1,0A.23.23,0,0,1,138,20.17Z"/><path class="cls-10" d="M138.14,20.11s0,0,0-.08a2.43,2.43,0,0,1,.24-.28,1,1,0,0,1,.29-.21.4.4,0,0,1,.24,0,.22.22,0,0,1,.11.27.39.39,0,0,1-.2.2,2.46,2.46,0,0,1-.58.19.15.15,0,0,1-.08,0A.13.13,0,0,1,138.14,20.11Z"/><path class="cls-11" d="M138.61,19.67c-.06,0,.09-.09.14-.11a.23.23,0,0,1,.14,0,.2.2,0,0,1,.08.19s-.07.16-.09.11S138.81,19.65,138.61,19.67Z"/><path class="cls-6" d="M144.87,25.22a.88.88,0,0,1-.11-.77,2,2,0,0,1,.33-.72c.57-.75,1.06-.67,1.23-.64a.81.81,0,0,1,.61.77,1.57,1.57,0,0,1-.52,1,2.87,2.87,0,0,1-.79.56A.61.61,0,0,1,144.87,25.22Z"/><path class="cls-7" d="M145,25.13a1.44,1.44,0,0,1,.17-.72,2.42,2.42,0,0,1,.57-.72.7.7,0,0,1,.53-.16.6.6,0,0,1,.48.55,1.39,1.39,0,0,1-.39.76,2.61,2.61,0,0,1-.76.48A.42.42,0,0,1,145,25.13Z"/><path class="cls-8" d="M145.28,25s-.08,0-.06-.11a2.73,2.73,0,0,1,.18-.49,1.11,1.11,0,0,1,.31-.41.48.48,0,0,1,.34-.11.41.41,0,0,1,.31.36.48.48,0,0,1-.18.36,3,3,0,0,1-.73.49.21.21,0,0,1-.14,0Z"/><path class="cls-9" d="M145.33,24.94s-.07,0,0-.1a3.47,3.47,0,0,1,.16-.43,1,1,0,0,1,.28-.36A.41.41,0,0,1,146,24a.3.3,0,0,1,.25.3.42.42,0,0,1-.16.32,2.75,2.75,0,0,1-.63.43.12.12,0,0,1-.12,0Z"/><path class="cls-10" d="M145.43,24.84s-.05,0,0-.07a1.7,1.7,0,0,1,.14-.33,1.11,1.11,0,0,1,.22-.29.43.43,0,0,1,.23-.08.21.21,0,0,1,.18.22.41.41,0,0,1-.13.25,2.49,2.49,0,0,1-.51.35h-.08Z"/><path class="cls-11" d="M145.75,24.29c-.06,0,.06-.12.1-.15a.17.17,0,0,1,.14,0,.18.18,0,0,1,.13.15s0,.17-.05.13S145.94,24.21,145.75,24.29Z"/><path class="cls-6" d="M147.59,20.24a.88.88,0,0,1-.43-.64,1.92,1.92,0,0,1,0-.79c.19-.93.67-1.07.84-1.11a.8.8,0,0,1,.88.44,1.55,1.55,0,0,1,0,1.11,2.72,2.72,0,0,1-.48.84A.59.59,0,0,1,147.59,20.24Z"/><path class="cls-7" d="M147.62,20.13a1.43,1.43,0,0,1-.15-.72,2.2,2.2,0,0,1,.2-.9.68.68,0,0,1,.41-.37.6.6,0,0,1,.67.29,1.42,1.42,0,0,1,0,.86,2.65,2.65,0,0,1-.47.76A.44.44,0,0,1,147.62,20.13Z"/><path class="cls-8" d="M147.86,19.87s-.07,0-.1-.08a2.54,2.54,0,0,1,0-.52,1.16,1.16,0,0,1,.1-.51.46.46,0,0,1,.27-.24.37.37,0,0,1,.42.19.49.49,0,0,1,0,.41,3.15,3.15,0,0,1-.45.75.17.17,0,0,1-.13,0Z"/><path class="cls-9" d="M147.88,19.79s-.06,0-.08-.06a2.18,2.18,0,0,1,0-.47,1,1,0,0,1,.09-.44.41.41,0,0,1,.22-.21.31.31,0,0,1,.36.16.43.43,0,0,1,0,.35,2.67,2.67,0,0,1-.39.67.11.11,0,0,1-.1,0Z"/><path class="cls-10" d="M147.93,19.67s-.05,0-.06-.05a2.16,2.16,0,0,1,0-.37.78.78,0,0,1,.07-.35.33.33,0,0,1,.18-.17.19.19,0,0,1,.25.12.34.34,0,0,1,0,.28,2.47,2.47,0,0,1-.3.53l-.08,0Z"/><path class="cls-11" d="M148,19s0-.13,0-.18a.19.19,0,0,1,.11-.08.22.22,0,0,1,.19.08s.05.17,0,.14S148.12,18.87,148,19Z"/><path class="cls-6" d="M146.29,14.27a.91.91,0,0,1-.17-.73,1.88,1.88,0,0,1,.25-.71c.48-.78,1-.74,1.13-.73a.77.77,0,0,1,.64.69,1.45,1.45,0,0,1-.4,1,2.61,2.61,0,0,1-.71.6A.58.58,0,0,1,146.29,14.27Z"/><path class="cls-7" d="M146.37,14.18a1.31,1.31,0,0,1,.09-.7,2.2,2.2,0,0,1,.48-.75.69.69,0,0,1,.5-.2A.58.58,0,0,1,148,13a1.39,1.39,0,0,1-.31.76,2.66,2.66,0,0,1-.68.53A.4.4,0,0,1,146.37,14.18Z"/><path class="cls-8" d="M146.67,14s-.08,0-.07-.1a2.24,2.24,0,0,1,.13-.49A1,1,0,0,1,147,13a.44.44,0,0,1,.32-.13.36.36,0,0,1,.32.31.51.51,0,0,1-.13.37,3.61,3.61,0,0,1-.66.53.18.18,0,0,1-.13,0S146.67,14,146.67,14Z"/><path class="cls-9" d="M146.71,14s-.06,0-.05-.09a2.3,2.3,0,0,1,.12-.42,1,1,0,0,1,.23-.37.38.38,0,0,1,.28-.12.29.29,0,0,1,.26.26.42.42,0,0,1-.12.32,2.59,2.59,0,0,1-.57.47s-.1,0-.11,0A.14.14,0,0,1,146.71,14Z"/><path class="cls-10" d="M146.8,13.86s-.05,0,0-.06a1.47,1.47,0,0,1,.11-.34,1,1,0,0,1,.18-.29.4.4,0,0,1,.22-.1.21.21,0,0,1,.19.2.38.38,0,0,1-.11.25,2.28,2.28,0,0,1-.45.38h-.08A.14.14,0,0,1,146.8,13.86Z"/><path class="cls-11" d="M147.05,13.3c-.05,0,0-.11.09-.15a.18.18,0,0,1,.13,0,.19.19,0,0,1,.14.13s0,.17,0,.13S147.23,13.21,147.05,13.3Z"/><path class="cls-6" d="M122.73,29.86a.86.86,0,0,1,.18-.72,1.75,1.75,0,0,1,.55-.5c.77-.46,1.17-.22,1.32-.12a.78.78,0,0,1,.25.9,1.56,1.56,0,0,1-.81.68,3.19,3.19,0,0,1-.9.2A.58.58,0,0,1,122.73,29.86Z"/><path class="cls-7" d="M122.83,29.81a1.39,1.39,0,0,1,.41-.57,2.15,2.15,0,0,1,.76-.43.7.7,0,0,1,.53.05.58.58,0,0,1,.22.66,1.36,1.36,0,0,1-.62.53,2.46,2.46,0,0,1-.84.15A.41.41,0,0,1,122.83,29.81Z"/><path class="cls-8" d="M123.17,29.81s-.08,0,0-.12a2.88,2.88,0,0,1,.35-.37,1.19,1.19,0,0,1,.41-.25.44.44,0,0,1,.34,0,.36.36,0,0,1,.14.42.45.45,0,0,1-.28.26,3.3,3.3,0,0,1-.83.16.2.2,0,0,1-.11-.06Z"/><path class="cls-9" d="M123.24,29.78s-.07,0,0-.1a2.12,2.12,0,0,1,.3-.32,1.07,1.07,0,0,1,.37-.21.35.35,0,0,1,.3,0,.29.29,0,0,1,.11.35.42.42,0,0,1-.25.22,2.59,2.59,0,0,1-.72.15.14.14,0,0,1-.1-.05A.11.11,0,0,1,123.24,29.78Z"/><path class="cls-10" d="M123.35,29.73s0,0,0-.07a2,2,0,0,1,.25-.24.7.7,0,0,1,.3-.17.3.3,0,0,1,.23,0,.21.21,0,0,1,.08.26.4.4,0,0,1-.21.17,2.41,2.41,0,0,1-.57.13l-.07,0A.13.13,0,0,1,123.35,29.73Z"/><path class="cls-11" d="M123.84,29.36c-.07,0,.09-.08.14-.09a.21.21,0,0,1,.13,0,.2.2,0,0,1,.06.18s-.08.15-.1.1S124,29.36,123.84,29.36Z"/><path class="cls-6" d="M128.44,31.11a.85.85,0,0,1,.33-.66,1.83,1.83,0,0,1,.65-.37c.85-.28,1.19.05,1.31.17a.77.77,0,0,1,.05.93,1.48,1.48,0,0,1-.94.49,3.08,3.08,0,0,1-.93,0A.57.57,0,0,1,128.44,31.11Z"/><path class="cls-7" d="M128.55,31.09a1.35,1.35,0,0,1,.52-.47,2.25,2.25,0,0,1,.84-.25.72.72,0,0,1,.5.16.58.58,0,0,1,.07.69,1.3,1.3,0,0,1-.72.39,3,3,0,0,1-.85,0C128.62,31.52,128.48,31.25,128.55,31.09Z"/><path class="cls-8" d="M128.88,31.16s-.07,0,0-.12a3.19,3.19,0,0,1,.41-.28,1.08,1.08,0,0,1,.47-.15.4.4,0,0,1,.32.1.37.37,0,0,1,0,.44.45.45,0,0,1-.34.19,2.68,2.68,0,0,1-.84,0s-.09-.06-.09-.08A.15.15,0,0,1,128.88,31.16Z"/><path class="cls-9" d="M129,31.15s-.06,0,0-.1a2,2,0,0,1,.37-.25,1.15,1.15,0,0,1,.41-.13.38.38,0,0,1,.28.09.29.29,0,0,1,0,.37.49.49,0,0,1-.3.16,3.09,3.09,0,0,1-.74,0,.19.19,0,0,1-.08-.07A.35.35,0,0,1,129,31.15Z"/><path class="cls-10" d="M129.08,31.13s-.05,0,0-.08a3.06,3.06,0,0,1,.29-.18.89.89,0,0,1,.33-.1.3.3,0,0,1,.22.06.2.2,0,0,1,0,.27.35.35,0,0,1-.24.13,2.29,2.29,0,0,1-.58,0s-.06,0-.06,0A.23.23,0,0,1,129.08,31.13Z"/><path class="cls-11" d="M129.63,30.87c-.06,0,.11-.06.16-.06a.2.2,0,0,1,.12.06.19.19,0,0,1,0,.19s-.11.12-.12.07S129.82,30.91,129.63,30.87Z"/><path class="cls-6" d="M112.46,26.6a.7.7,0,0,1,.3-.58,2,2,0,0,1,.63-.4c.85-.34,1.21-.11,1.34,0a.53.53,0,0,1,.1.77,1.71,1.71,0,0,1-.92.52A3.79,3.79,0,0,1,113,27,.5.5,0,0,1,112.46,26.6Z"/><path class="cls-7" d="M112.57,26.57a1.32,1.32,0,0,1,.5-.45,2.59,2.59,0,0,1,.83-.32.78.78,0,0,1,.53.07.41.41,0,0,1,.11.56,1.59,1.59,0,0,1-.71.41,3.65,3.65,0,0,1-.86.08C112.68,26.91,112.52,26.71,112.57,26.57Z"/><path class="cls-8" d="M112.91,26.59s-.07,0,0-.1a2,2,0,0,1,.4-.29,1.22,1.22,0,0,1,.46-.19.52.52,0,0,1,.33,0,.25.25,0,0,1,.07.36.62.62,0,0,1-.33.2,4.59,4.59,0,0,1-.84.09.23.23,0,0,1-.11-.06A.35.35,0,0,1,112.91,26.59Z"/><path class="cls-9" d="M113,26.56s0,0,0-.08a2.45,2.45,0,0,1,.36-.25,1.34,1.34,0,0,1,.4-.16.58.58,0,0,1,.3,0,.21.21,0,0,1,0,.3.5.5,0,0,1-.29.18,3.72,3.72,0,0,1-.74.08.12.12,0,0,1-.09,0A.11.11,0,0,1,113,26.56Z"/><path class="cls-10" d="M113.11,26.53s0,0,0-.06a1.46,1.46,0,0,1,.29-.19.84.84,0,0,1,.32-.12.29.29,0,0,1,.23,0,.14.14,0,0,1,0,.22.54.54,0,0,1-.24.13,3,3,0,0,1-.59.07l-.07,0A.23.23,0,0,1,113.11,26.53Z"/><path class="cls-11" d="M113.65,26.25c-.06,0,.11-.06.16-.07a.17.17,0,0,1,.12,0,.11.11,0,0,1,0,.15s-.11.12-.11.08S113.85,26.26,113.65,26.25Z"/><path class="cls-6" d="M107.35,28.9a.71.71,0,0,1,.4-.48,1.47,1.47,0,0,1,.6-.2c.75-.07,1,.26,1.05.38a.65.65,0,0,1-.13.78,1.22,1.22,0,0,1-.86.23,2.05,2.05,0,0,1-.76-.17A.48.48,0,0,1,107.35,28.9Z"/><path class="cls-7" d="M107.45,28.9a1.07,1.07,0,0,1,.51-.29,1.89,1.89,0,0,1,.74-.06.58.58,0,0,1,.39.23.5.5,0,0,1-.07.58,1.19,1.19,0,0,1-.66.19,2.54,2.54,0,0,1-.7-.19A.35.35,0,0,1,107.45,28.9Z"/><path class="cls-8" d="M107.71,29s0,0,0-.09a2.06,2.06,0,0,1,.39-.17,1,1,0,0,1,.41,0,.41.41,0,0,1,.25.15.33.33,0,0,1,0,.37.43.43,0,0,1-.32.1,2.79,2.79,0,0,1-.68-.17s-.07-.07-.06-.09A.2.2,0,0,1,107.71,29Z"/><path class="cls-9" d="M107.77,29s0,0,0-.08a1.73,1.73,0,0,1,.35-.13.74.74,0,0,1,.36,0,.4.4,0,0,1,.22.12.25.25,0,0,1,0,.31.36.36,0,0,1-.28.08,2,2,0,0,1-.6-.14.1.1,0,0,1-.06-.07A.12.12,0,0,1,107.77,29Z"/><path class="cls-10" d="M107.88,29s0,0,0-.06l.28-.1a.71.71,0,0,1,.29,0,.26.26,0,0,1,.17.09.19.19,0,0,1,0,.23.32.32,0,0,1-.22,0,2,2,0,0,1-.48-.1s0,0,0-.06Z"/><path class="cls-11" d="M108.38,28.91s.1,0,.14,0a.18.18,0,0,1,.09.06.16.16,0,0,1,0,.16s-.11.09-.1,0S108.53,29,108.38,28.91Z"/><path class="cls-6" d="M111.3,32.22a.61.61,0,0,1,.38-.4,1.38,1.38,0,0,1,.55-.13c.68,0,.85.3.91.42a.58.58,0,0,1-.17.68,1.11,1.11,0,0,1-.79.14,1.87,1.87,0,0,1-.66-.21A.42.42,0,0,1,111.3,32.22Z"/><path class="cls-7" d="M111.38,32.23a.94.94,0,0,1,.48-.23,1.62,1.62,0,0,1,.66,0,.49.49,0,0,1,.33.23.44.44,0,0,1-.1.51,1,1,0,0,1-.61.12,1.94,1.94,0,0,1-.6-.22A.3.3,0,0,1,111.38,32.23Z"/><path class="cls-8" d="M111.6,32.35s0,0,0-.08a1.89,1.89,0,0,1,.36-.12.92.92,0,0,1,.37,0,.3.3,0,0,1,.21.15.28.28,0,0,1-.07.33.42.42,0,0,1-.28.06,2.28,2.28,0,0,1-.6-.21.1.1,0,0,1,0-.08A.12.12,0,0,1,111.6,32.35Z"/><path class="cls-9" d="M111.66,32.36s0,0,0-.07a1.74,1.74,0,0,1,.32-.1.69.69,0,0,1,.32,0,.29.29,0,0,1,.19.13.22.22,0,0,1-.06.27.35.35,0,0,1-.25,0,2,2,0,0,1-.53-.17.17.17,0,0,1,0-.07A.07.07,0,0,1,111.66,32.36Z"/><path class="cls-10" d="M111.75,32.37s0,0,0,0l.25-.07a.75.75,0,0,1,.26,0c.06,0,.13,0,.15.1a.16.16,0,0,1,0,.2.3.3,0,0,1-.2,0,1.79,1.79,0,0,1-.42-.13l0-.05Z"/><path class="cls-11" d="M112.21,32.31s.09,0,.13,0a.1.1,0,0,1,.07.07.15.15,0,0,1,0,.14s-.11.06-.1,0S112.34,32.38,112.21,32.31Z"/><path class="cls-6" d="M118.87,32.57a.74.74,0,0,1,.25-.57,1.6,1.6,0,0,1,.53-.34c.71-.28,1,0,1.12.08a.67.67,0,0,1,.08.79,1.26,1.26,0,0,1-.77.45,2.41,2.41,0,0,1-.78,0A.49.49,0,0,1,118.87,32.57Z"/><path class="cls-7" d="M119,32.55a1.15,1.15,0,0,1,.43-.42,1.86,1.86,0,0,1,.69-.25.59.59,0,0,1,.43.12.48.48,0,0,1,.09.58,1.13,1.13,0,0,1-.59.35,2.26,2.26,0,0,1-.72,0A.35.35,0,0,1,119,32.55Z"/><path class="cls-8" d="M119.24,32.6s0,0,0-.1a2.12,2.12,0,0,1,.34-.27.93.93,0,0,1,.38-.14.4.4,0,0,1,.28.07.32.32,0,0,1,.06.37.4.4,0,0,1-.28.18,2.68,2.68,0,0,1-.71,0s-.08,0-.08-.07Z"/><path class="cls-9" d="M119.31,32.58s0,0,0-.08a2.89,2.89,0,0,1,.3-.23.82.82,0,0,1,.34-.12.32.32,0,0,1,.24.05.25.25,0,0,1,0,.31.34.34,0,0,1-.25.15,2.35,2.35,0,0,1-.62,0,.07.07,0,0,1-.06-.11Z"/><path class="cls-10" d="M119.41,32.56s0,0,0-.07a1.66,1.66,0,0,1,.24-.16.74.74,0,0,1,.27-.1.25.25,0,0,1,.19,0,.17.17,0,0,1,0,.23.33.33,0,0,1-.2.11,2.38,2.38,0,0,1-.49,0l0,0A0,0,0,0,1,119.41,32.56Z"/><path class="cls-11" d="M119.86,32.32s.1-.06.14-.06a.14.14,0,0,1,.1,0,.16.16,0,0,1,0,.16s-.09.11-.1.07S120,32.34,119.86,32.32Z"/><path class="cls-6" d="M120.77,25.57a.73.73,0,0,1,.21-.63,1.54,1.54,0,0,1,.52-.43c.72-.37,1.07-.12,1.19,0a.68.68,0,0,1,.17.82,1.33,1.33,0,0,1-.76.57,2.57,2.57,0,0,1-.83.13A.51.51,0,0,1,120.77,25.57Z"/><path class="cls-7" d="M120.87,25.54a1.16,1.16,0,0,1,.4-.5,1.93,1.93,0,0,1,.71-.34.64.64,0,0,1,.47.08.51.51,0,0,1,.16.6,1.25,1.25,0,0,1-.59.45,2.48,2.48,0,0,1-.76.08C121,25.91,120.83,25.69,120.87,25.54Z"/><path class="cls-8" d="M121.17,25.55s-.07,0,0-.1a2.54,2.54,0,0,1,.33-.32,1,1,0,0,1,.39-.2.47.47,0,0,1,.31.05.33.33,0,0,1,.1.39.47.47,0,0,1-.27.22,2.7,2.7,0,0,1-.75.09.14.14,0,0,1-.1-.06A.16.16,0,0,1,121.17,25.55Z"/><path class="cls-9" d="M121.23,25.53s0,0,0-.09a2.62,2.62,0,0,1,.29-.27.94.94,0,0,1,.35-.17.33.33,0,0,1,.26,0,.27.27,0,0,1,.09.33.4.4,0,0,1-.25.18,2.28,2.28,0,0,1-.65.1l-.09-.05Z"/><path class="cls-10" d="M121.34,25.49s0,0,0-.06l.24-.21a.65.65,0,0,1,.28-.13.26.26,0,0,1,.21,0,.2.2,0,0,1,.05.24.31.31,0,0,1-.2.14,2.28,2.28,0,0,1-.52.08.11.11,0,0,1-.06,0Z"/><path class="cls-11" d="M121.8,25.19c-.06,0,.09-.07.13-.07a.13.13,0,0,1,.11,0,.16.16,0,0,1,0,.17s-.08.13-.09.08S122,25.2,121.8,25.19Z"/><path class="cls-6" d="M102.1,26.75a.45.45,0,0,1,.33-.25,1,1,0,0,1,.42,0c.51.07.59.32.62.41a.44.44,0,0,1-.21.49.85.85,0,0,1-.59,0,1.38,1.38,0,0,1-.47-.23A.32.32,0,0,1,102.1,26.75Z"/><path class="cls-7" d="M102.16,26.76a.66.66,0,0,1,.38-.1,1.15,1.15,0,0,1,.49.08c.08,0,.19.11.21.21a.32.32,0,0,1-.14.37.79.79,0,0,1-.46,0,1.51,1.51,0,0,1-.42-.23A.23.23,0,0,1,102.16,26.76Z"/><path class="cls-8" d="M102.3,26.88s0,0,0-.05l.28,0a.82.82,0,0,1,.28,0s.12.08.13.14a.19.19,0,0,1-.08.23.24.24,0,0,1-.22,0,1.42,1.42,0,0,1-.42-.22s0-.05,0-.06Z"/><path class="cls-9" d="M102.35,26.89s0,0,0,0a1.31,1.31,0,0,1,.25,0,.64.64,0,0,1,.24,0A.25.25,0,0,1,103,27a.18.18,0,0,1-.08.2.24.24,0,0,1-.19,0,2.18,2.18,0,0,1-.37-.19s0-.05,0-.06S102.35,26.89,102.35,26.89Z"/><path class="cls-10" d="M102.42,26.91s0,0,0,0l.2,0a.58.58,0,0,1,.19,0,.16.16,0,0,1,.09.09.11.11,0,0,1,0,.14.22.22,0,0,1-.16,0,1.49,1.49,0,0,1-.29-.14.11.11,0,0,1,0-.05Z"/><path class="cls-11" d="M102.76,26.92s.07,0,.1,0,0,0,0,.06a.09.09,0,0,1,0,.1s-.09,0-.08,0S102.85,27,102.76,26.92Z"/><path class="cls-12" d="M134.65,1.24a22.4,22.4,0,0,0-7.4,1.23,44.89,44.89,0,0,0-11.73,5.71,69.9,69.9,0,0,0-11.89,9.24c-2.39,2.4-6.36,6.65-3.26,7.81,3.63,1.35,8.49.83,16.93-1,8.1-1.95,14.16-3.55,20.51-7,4.54-2.77,8.33-6.38,8.72-9.57s-2.08-4.2-3.82-4.84c-.6-.22-1.93-.63-2.49-.83A16.65,16.65,0,0,0,134.65,1.24Z"/><path class="cls-13" d="M135.22,1.74A25,25,0,0,0,127.69,3a43,43,0,0,0-11,5.42,65.44,65.44,0,0,0-11,8.87c-2.26,2.26-7.11,5.94-3.41,7.17,3.31,1.1,7.72.68,15.49-1.1,7.46-1.9,13.06-3.45,19-6.74,4.27-2.61,7.92-6,8.42-9,.48-3.33-3.08-4.42-4.59-4.83A23.51,23.51,0,0,0,135.22,1.74Z"/><path class="cls-14" d="M131.37,4.61c-1.9-.21-3.11-1.54-2.91-2.32-.34.33-.76,2.23,1.91,3.19C130.66,5.26,130.91,5,131.37,4.61Z"/><path class="cls-18" d="M100.32,25.35a1.67,1.67,0,0,1-1.18-1.2c-.39-1.75,2.15-4.57,4.39-6.82a70.35,70.35,0,0,1,11.92-9.26,45.32,45.32,0,0,1,11.76-5.73,22.69,22.69,0,0,1,7.32-1.23h.12a16.44,16.44,0,0,1,5.61.75l1,.33c.54.17,1.15.37,1.5.5a7.68,7.68,0,0,1,2.73,1.5,4,4,0,0,1,1.17,3.47,9.32,9.32,0,0,1-2.84,5,29.71,29.71,0,0,1-5.94,4.65c-6.35,3.47-12.52,5.1-20.55,7-5.71,1.23-9.33,1.75-12.11,1.75A13.85,13.85,0,0,1,100.32,25.35Zm27-22.76a44.88,44.88,0,0,0-11.71,5.7,70.17,70.17,0,0,0-11.87,9.22c-1.29,1.3-4.72,4.75-4.32,6.58a1.42,1.42,0,0,0,1,1,13.6,13.6,0,0,0,4.81.76,59.92,59.92,0,0,0,12-1.75c8-1.92,14.16-3.55,20.47-7,5.08-3.1,8.32-6.64,8.66-9.48.33-3.2-2.31-4.17-3.73-4.69-.35-.13-.95-.32-1.49-.5l-1-.33a16.63,16.63,0,0,0-5.52-.74h-.12A22.35,22.35,0,0,0,127.3,2.59Z"/><path class="cls-14" d="M139.64,5.78c1.4.55,4.89.1,6.07-.36a13.27,13.27,0,0,1-7,1.13C138.94,6.35,139.29,6.12,139.64,5.78Z"/><path class="cls-14" d="M138.71,7.39c1.22,1,4.83,1.35,6.15,1.12a12.11,12.11,0,0,1-7.26-.44C137.86,7.88,138.27,7.7,138.71,7.39Z"/><path class="cls-14" d="M137.69,8.79c.53,1.33,4.91,3.17,6.16,3.18-1.39.32-5.59-.45-7.38-2.43C136.77,9.38,137.18,9.05,137.69,8.79Z"/><path class="cls-14" d="M128.7,6.29c-2.34.23-5.71-1.16-5.83-1.78-.27.32,1.18,2.38,5.33,2.49C128.43,6.78,128.34,6.66,128.7,6.29Z"/><path class="cls-14" d="M126.35,8.29c-3.29.74-7.77-.26-8.9-.64,1.55,1.26,5.31,1.54,8.46,1.21C126.15,8.64,126,8.66,126.35,8.29Z"/><path class="cls-14" d="M124.42,10.24a42.74,42.74,0,0,1-12,.4c2.78,1.27,8.82.61,11.48.15C124.2,10.58,124,10.6,124.42,10.24Z"/><path class="cls-14" d="M123.08,11.44a64.14,64.14,0,0,1-10.4,1.21A39.5,39.5,0,0,0,122.6,12C122.85,11.78,122.67,11.8,123.08,11.44Z"/><path class="cls-14" d="M118.64,15.08a66.86,66.86,0,0,1-10.22,1.48,37,37,0,0,0,9.39-.92C118.07,15.44,118.22,15.42,118.64,15.08Z"/><path class="cls-14" d="M107.56,21.33a6.44,6.44,0,0,0,.61-.24,48.89,48.89,0,0,1-8.38,1.21,31.67,31.67,0,0,0,7.41-.61A.49.49,0,0,1,107.56,21.33Z"/><path class="cls-14" d="M115.3,17.43a72.27,72.27,0,0,1-12,1.34,47.05,47.05,0,0,0,11.2-.83A9.29,9.29,0,0,0,115.3,17.43Z"/><path class="cls-14" d="M120,14a92.59,92.59,0,0,1-13.53,1.58c5,.39,10.22-.63,13-1C119.74,14.37,119.55,14.39,120,14Z"/><path class="cls-14" d="M120.6,12.88a16.6,16.6,0,0,1-5,.83,15.16,15.16,0,0,0,4.53-.29C120.37,13.21,120.18,13.23,120.6,12.88Z"/><path class="cls-14" d="M117.15,16.18a36.4,36.4,0,0,1-6.74,1.17,23.12,23.12,0,0,0,6-.58C116.65,16.57,116.7,16.52,117.15,16.18Z"/><path class="cls-14" d="M113.72,18.37a58.83,58.83,0,0,1-7,1.22,28.51,28.51,0,0,0,6.33-.72C113.3,18.67,113.26,18.71,113.72,18.37Z"/><path class="cls-14" d="M111.55,19.71a59.48,59.48,0,0,1-7,1,24.5,24.5,0,0,0,5.89-.48A10.17,10.17,0,0,0,111.55,19.71Z"/><path class="cls-14" d="M104.59,22.76a2,2,0,0,1,.67-.28h0a.41.41,0,0,1,.11-.07,36.45,36.45,0,0,1-6.08.83,18.48,18.48,0,0,0,5.15-.38A.4.4,0,0,1,104.59,22.76Z"/><path class="cls-14" d="M104.17,23.36l0-.09a26.19,26.19,0,0,1-4.69,1.08,13.88,13.88,0,0,0,4.77-.85l0,0Z"/><path class="cls-14" d="M107.64,23.1c-.9.6-2.17,1.41-2.28,2.07-.43-.61.25-1.28,1.28-1.82C107,23.26,107,23.26,107.64,23.1Z"/><path class="cls-14" d="M113.78,20.2c-.83.63-4.72,4.12-4.65,5.21-1.06-1.17,2.29-4,3.26-4.59C112.72,20.72,113.22,20.37,113.78,20.2Z"/><path class="cls-14" d="M124.76,15.49c-.71.67-5,6.5-4.8,7.64-1.18-1.22,2.16-6,3.52-7.13C123.79,15.88,124.25,15.68,124.76,15.49Z"/><path class="cls-14" d="M119.11,17.71c-.77.65-4.13,3.71-4.64,5.11-.65-1.4,2.6-3.94,3.15-4.39C117.94,18.33,118.57,17.89,119.11,17.71Z"/><path class="cls-14" d="M127.24,14.25c-.63.68-3.29,3.87-3.48,5.3-1-1.38,1.7-4.05,2.15-4.51C126.21,14.91,126.74,14.45,127.24,14.25Z"/><path class="cls-14" d="M134.13,11.61c-.57,1.07,0,4.68,1.45,5.67-2.54-.75-3.21-4.09-2.62-5.07C133.2,12.06,133.71,11.86,134.13,11.61Z"/><path class="cls-14" d="M122.49,16.4c-1.16.87-4.64,4.81-4.94,6.38-.84-1.48,2.57-5.26,3.44-5.85Z"/><path class="cls-14" d="M129.42,13.67c-1,.9-4.49,6.85-3.91,8.26-1.86-2,1.82-7.23,2.58-7.85C128.38,14,128.93,13.87,129.42,13.67Z"/><path class="cls-14" d="M132.4,12.34c-1.17,1.19-3.38,6.35-3,8.08-1.36-2.2.48-6.2,1.67-7.66C131.39,12.63,131.93,12.54,132.4,12.34Z"/><path class="cls-14" d="M136.05,9.66c-.52,1.18,2.66,4.22,4.42,5.51-3.11-1.47-5.94-3.52-5.58-4.9C135.12,10.11,135.65,9.92,136.05,9.66Z"/><path class="cls-14" d="M106,23.38c-.91.59-2.19,1.4-2.32,2.05-.42-.6.28-1.27,1.32-1.8Z"/><path class="cls-14" d="M105.28,23.53c-1.33.53-2.76,1.09-4.15,1.74a10.38,10.38,0,0,1,3.21-1.64Z"/><path class="cls-14" d="M141,5.32c.88-1.53.41-2.62.07-2.79A7.17,7.17,0,0,0,137,1.65a13.11,13.11,0,0,0-5.08,1.84,38.24,38.24,0,0,0-5.79,4.37c-1.58,1.4-3.59,3.06-5.57,4.86a68.83,68.83,0,0,1-11.19,7.34c-1.72.79-4.7,2.42-5.32,2.79-.88.53-1.14,1.34.28,1.19A20.92,20.92,0,0,0,110,22.11c2.57-1.19,7.72-3.77,10-4.62s5.86-2.19,8.14-3.13,5.16-2.16,6.31-2.82A18.64,18.64,0,0,0,141,5.32Zm-11,7c-2.11,1.12-5,2.29-7,3.18-3.13,1.36-7.4,3.36-8.77,4.06-2,1-3.74,1.73-5.34,2.48-2.25,1-4,1.49-4.26,1.32-.67-.54.72-.81,3.86-2.17a67.35,67.35,0,0,0,8.85-5.15c2-1.42,4.53-3.4,5.88-4.58s2.35-2.19,4.41-3.83a23.89,23.89,0,0,1,5.51-3.77,34.08,34.08,0,0,1,5.36-1.74s.12.39.6.22c0,.22.56,1.19.3,2A15.82,15.82,0,0,1,136,8.56,46.69,46.69,0,0,1,130,12.35Z"/><path class="cls-15" d="M135.39,3.58c-.31.28-3.12,2.77-5.13,4.52-.81.67-12.31,8-10.77,7.82.92-.06,12.45-6.67,12.84-6.91a62.82,62.82,0,0,0,7.14-4.67c1.08-1,1-1.78,1-1.78A16.42,16.42,0,0,0,137.91,2,5,5,0,0,0,135.39,3.58Z"/><path class="cls-16" d="M131.24,8.05c-1.18,1-7.74,5.22-7.46,5.32s6.85-3.85,9-5.2C134.53,7,139.58,4,140,2.44a5.7,5.7,0,0,0-1.28-.4C136.29,3.12,133.62,5.88,131.24,8.05Z"/><path class="cls-16" d="M140.31,5.48c.59-1.09,1.39-2.77-.2-3.34a6.06,6.06,0,0,0-2.61-.37A18,18,0,0,0,131.82,4a37.07,37.07,0,0,0-5.31,4c-1.66,1.39-3.72,3-5.7,4.85a79.33,79.33,0,0,1-12.6,8c-1.72.78-3,1.54-3.73,1.91s-.83,1.22.62,1A25.14,25.14,0,0,0,110,22c2.57-1.19,7.75-3.78,10-4.63s5.76-2.29,8-3.23a64.33,64.33,0,0,0,5.78-2.84C138.06,8.72,139.83,6.33,140.31,5.48Zm-9.9,7c-2.16,1.08-5,2.31-7,3.17-3.7,1.51-6.86,3-8.83,4s-4,1.81-5.62,2.55c-3.38,1.44-4.37,1.47-4.74,1.23s.95-1.14,4.09-2.5a65.52,65.52,0,0,0,8.2-4.59c2-1.41,3.81-2.78,5.18-3.94s2.64-2.42,5.17-4.36a26.66,26.66,0,0,1,10.39-5.83c1.18-.34,3.31.17,2.69,2.31-.35,1.11-2.07,3-3.41,4.11A38.22,38.22,0,0,1,130.41,12.52Z"/></g></g></svg>