<svg id="Layer_1" data-name="Layer 1" xmlns="http://www.w3.org/2000/svg" xmlns:xlink="http://www.w3.org/1999/xlink" width="1920" height="900" viewBox="0 0 1920 900">
  <defs>
    <style>
      .cls-1, .cls-11, .cls-111, .cls-112, .cls-113, .cls-116, .cls-117, .cls-119, .cls-12, .cls-121, .cls-13, .cls-14, .cls-15, .cls-21, .cls-23, .cls-24, .cls-25, .cls-26, .cls-27 {
        fill: none;
      }

      .cls-2 {
        clip-path: url(#clip-path);
      }

      .cls-11, .cls-116, .cls-117, .cls-119, .cls-12, .cls-120, .cls-13, .cls-14, .cls-15, .cls-17, .cls-21, .cls-23, .cls-24, .cls-25, .cls-26, .cls-27, .cls-28, .cls-29, .cls-3, .cls-30, .cls-31, .cls-32, .cls-5, .cls-8 {
        stroke: #1a2021;
      }

      .cls-109, .cls-11, .cls-110, .cls-111, .cls-112, .cls-113, .cls-114, .cls-115, .cls-116, .cls-117, .cls-119, .cls-12, .cls-120, .cls-121, .cls-13, .cls-14, .cls-15, .cls-17, .cls-21, .cls-23, .cls-24, .cls-25, .cls-26, .cls-27, .cls-28, .cls-29, .cls-3, .cls-30, .cls-31, .cls-32, .cls-49, .cls-5, .cls-54, .cls-8 {
        stroke-miterlimit: 10;
      }

      .cls-3 {
        stroke-width: 1.59px;
        fill: url(#linear-gradient);
      }

      .cls-19, .cls-4, .cls-58 {
        fill: #353534;
      }

      .cls-4 {
        opacity: 0.44;
      }

      .cls-108, .cls-117, .cls-119, .cls-12, .cls-13, .cls-14, .cls-19, .cls-27, .cls-37, .cls-38, .cls-39, .cls-4, .cls-44, .cls-49, .cls-56, .cls-62, .cls-74, .cls-90, .cls-91, .cls-95, .cls-98 {
        isolation: isolate;
      }

      .cls-5 {
        stroke-width: 0.7px;
        fill: url(#linear-gradient-2);
      }

      .cls-6 {
        fill: url(#linear-gradient-3);
      }

      .cls-7 {
        fill: #95a0a3;
      }

      .cls-8 {
        stroke-width: 0.53px;
        fill: url(#linear-gradient-4);
      }

      .cls-9 {
        fill: url(#linear-gradient-5);
      }

      .cls-10 {
        opacity: 0.22;
      }

      .cls-11, .cls-12, .cls-27 {
        stroke-width: 1.07px;
      }

      .cls-12, .cls-13, .cls-14, .cls-95 {
        opacity: 0.4;
      }

      .cls-13 {
        stroke-width: 1.06px;
      }

      .cls-14, .cls-15, .cls-28, .cls-29, .cls-30, .cls-31, .cls-32 {
        stroke-width: 1.04px;
      }

      .cls-16 {
        fill: #414141;
      }

      .cls-17 {
        fill: #686766;
        stroke-width: 0.98px;
      }

      .cls-18 {
        fill: url(#linear-gradient-6);
      }

      .cls-19 {
        opacity: 0.19;
      }

      .cls-119, .cls-20, .cls-27 {
        opacity: 0.53;
      }

      .cls-21, .cls-49 {
        stroke-width: 0.96px;
      }

      .cls-22 {
        fill: #4e565b;
      }

      .cls-23 {
        stroke-width: 1.43px;
      }

      .cls-24 {
        stroke-width: 1.32px;
      }

      .cls-25 {
        stroke-width: 1.41px;
      }

      .cls-26 {
        stroke-width: 1.3px;
      }

      .cls-28 {
        fill: url(#linear-gradient-7);
      }

      .cls-29 {
        fill: url(#linear-gradient-8);
      }

      .cls-30 {
        fill: url(#linear-gradient-9);
      }

      .cls-31 {
        fill: url(#linear-gradient-10);
      }

      .cls-32 {
        fill: url(#linear-gradient-11);
      }

      .cls-33 {
        fill: #3a3a49;
      }

      .cls-34 {
        fill: #561913;
      }

      .cls-35 {
        fill: #b05930;
      }

      .cls-36 {
        fill: #458768;
      }

      .cls-37, .cls-38, .cls-62, .cls-67 {
        opacity: 0.3;
      }

      .cls-38, .cls-88 {
        fill: #202328;
      }

      .cls-39, .cls-44, .cls-45, .cls-62, .cls-90, .cls-91, .cls-95, .cls-98 {
        fill: #fff;
      }

      .cls-39 {
        opacity: 0.1;
      }

      .cls-40 {
        fill: #76b793;
      }

      .cls-41 {
        fill: #adadad;
      }

      .cls-42 {
        fill: #d5d4d4;
      }

      .cls-43 {
        clip-path: url(#clip-path-2);
      }

      .cls-44 {
        opacity: 0.2;
      }

      .cls-46 {
        fill: #42434b;
      }

      .cls-47 {
        fill: url(#linear-gradient-12);
      }

      .cls-48 {
        clip-path: url(#clip-path-3);
      }

      .cls-49, .cls-92 {
        fill: #c36a28;
      }

      .cls-49 {
        stroke: #eeaf75;
      }

      .cls-49, .cls-99 {
        opacity: 0.71;
      }

      .cls-50 {
        fill: #b44a26;
      }

      .cls-51 {
        clip-path: url(#clip-path-5);
      }

      .cls-52 {
        fill: #7e8082;
      }

      .cls-53 {
        fill: url(#linear-gradient-13);
      }

      .cls-54 {
        fill: #fab216;
        stroke: #9a6427;
        stroke-width: 0.74px;
      }

      .cls-55 {
        clip-path: url(#clip-path-6);
      }

      .cls-56, .cls-74 {
        fill: #353533;
      }

      .cls-56 {
        opacity: 0.21;
      }

      .cls-57 {
        fill: #e8a85d;
      }

      .cls-59 {
        fill: #fbc072;
      }

      .cls-60 {
        fill: #5f5f66;
      }

      .cls-61 {
        fill: #faac3c;
      }

      .cls-63 {
        fill: #7f7f82;
      }

      .cls-64 {
        fill: #383a3a;
      }

      .cls-65 {
        fill: #282827;
      }

      .cls-66 {
        fill: url(#linear-gradient-14);
      }

      .cls-68 {
        fill: #6d6361;
      }

      .cls-69 {
        fill: #dfdfdd;
      }

      .cls-70 {
        fill: #2b2625;
      }

      .cls-71 {
        fill: #1f2023;
      }

      .cls-72 {
        fill: #bababa;
      }

      .cls-73 {
        fill: #747478;
      }

      .cls-74 {
        opacity: 0.17;
      }

      .cls-75 {
        fill: #71757c;
      }

      .cls-75, .cls-76, .cls-77, .cls-78, .cls-80, .cls-81, .cls-82, .cls-83, .cls-84, .cls-85, .cls-86 {
        fill-rule: evenodd;
      }

      .cls-76 {
        fill: #9fb4ba;
      }

      .cls-77 {
        fill: #808287;
      }

      .cls-78 {
        fill: #663533;
      }

      .cls-79 {
        fill: #5a5f64;
      }

      .cls-80 {
        fill: #5f646f;
      }

      .cls-81 {
        fill: #2e3135;
      }

      .cls-82 {
        fill: #3f4248;
      }

      .cls-84 {
        fill: #4f535b;
      }

      .cls-85 {
        fill: #1a1a1a;
      }

      .cls-86 {
        fill: #333;
      }

      .cls-87 {
        fill: #3d3230;
      }

      .cls-89 {
        clip-path: url(#clip-path-7);
      }

      .cls-90 {
        opacity: 0.05;
      }

      .cls-91 {
        opacity: 0.15;
      }

      .cls-93 {
        clip-path: url(#clip-path-8);
      }

      .cls-94 {
        fill: #8f9396;
      }

      .cls-96 {
        fill: #55585e;
      }

      .cls-97 {
        clip-path: url(#clip-path-9);
      }

      .cls-98 {
        opacity: 0.25;
      }

      .cls-100 {
        fill: #eeaf75;
      }

      .cls-101 {
        fill: #eb7b23;
      }

      .cls-102 {
        fill: #eb6624;
      }

      .cls-103 {
        fill: #211e1f;
      }

      .cls-104 {
        fill: #6d6e71;
      }

      .cls-105 {
        fill: #404141;
      }

      .cls-106 {
        fill: #a7a7aa;
      }

      .cls-107 {
        fill: #434243;
      }

      .cls-108 {
        fill: #d1d2d2;
        opacity: 0.69;
      }

      .cls-109, .cls-110, .cls-111, .cls-112, .cls-113, .cls-114, .cls-115 {
        stroke: #393a39;
      }

      .cls-109 {
        stroke-width: 0.88px;
        fill: url(#linear-gradient-15);
      }

      .cls-110 {
        stroke-width: 1.31px;
        fill: url(#linear-gradient-16);
      }

      .cls-111 {
        stroke-width: 5.26px;
      }

      .cls-112 {
        stroke-width: 4.95px;
      }

      .cls-113 {
        stroke-width: 5.2px;
      }

      .cls-114 {
        stroke-width: 1.99px;
        fill: url(#linear-gradient-17);
      }

      .cls-115 {
        stroke-width: 1.93px;
        fill: url(#linear-gradient-18);
      }

      .cls-117 {
        stroke-width: 0.5px;
        opacity: 0.5;
      }

      .cls-118 {
        fill: #2b2121;
      }

      .cls-119, .cls-121 {
        stroke-width: 4.16px;
      }

      .cls-120 {
        fill: #28191d;
        stroke-width: 0.52px;
      }

      .cls-121 {
        stroke: #080909;
      }
    </style>
    <clipPath id="clip-path">
      <rect class="cls-1" width="1920" height="900"/>
    </clipPath>
    <linearGradient id="linear-gradient" x1="-150.61" y1="-68.36" x2="2047.75" y2="657.34" gradientTransform="matrix(1, 0, 0, -1, 0, 900)" gradientUnits="userSpaceOnUse">
      <stop offset="0" stop-color="#579093"/>
      <stop offset="0.23" stop-color="#5a8f91"/>
      <stop offset="0.99" stop-color="#5e8d8e"/>
    </linearGradient>
    <linearGradient id="linear-gradient-2" x1="-27.68" y1="400.04" x2="1926.96" y2="400.04" gradientTransform="matrix(1, 0, 0, -1, 0, 900)" gradientUnits="userSpaceOnUse">
      <stop offset="0.14" stop-color="#98b6c7"/>
      <stop offset="0.17" stop-color="#9ab5c4"/>
      <stop offset="0.4" stop-color="#a2b0b6"/>
      <stop offset="0.6" stop-color="#a5aeb1"/>
    </linearGradient>
    <linearGradient id="linear-gradient-3" x1="52.75" y1="-201.98" x2="1859.89" y2="394.57" gradientTransform="matrix(1, 0, 0, -1, 0, 900)" gradientUnits="userSpaceOnUse">
      <stop offset="0" stop-color="#a5b5bf"/>
      <stop offset="0.39" stop-color="#acb8c0"/>
      <stop offset="1" stop-color="#b0bac1"/>
    </linearGradient>
    <linearGradient id="linear-gradient-4" x1="2143.69" y1="818.11" x2="-558.57" y2="411.93" gradientTransform="matrix(1, 0, 0, -1, 0, 900)" gradientUnits="userSpaceOnUse">
      <stop offset="0" stop-color="#a9bfcd"/>
      <stop offset="0.09" stop-color="#a0b8c7"/>
      <stop offset="0.25" stop-color="#99b3c2"/>
      <stop offset="0.68" stop-color="#97b2c1"/>
    </linearGradient>
    <linearGradient id="linear-gradient-5" x1="67.57" y1="184.53" x2="1853.84" y2="774.2" gradientTransform="matrix(1, 0, 0, -1, 0, 900)" gradientUnits="userSpaceOnUse">
      <stop offset="0" stop-color="#888d8b"/>
      <stop offset="0.13" stop-color="#8c9190"/>
      <stop offset="0.57" stop-color="#949c9d"/>
      <stop offset="0.99" stop-color="#979fa1"/>
    </linearGradient>
    <linearGradient id="linear-gradient-6" x1="1938.85" y1="919.49" x2="-255.59" y2="794.08" gradientTransform="matrix(1, 0, 0, -1, 0, 900)" gradientUnits="userSpaceOnUse">
      <stop offset="0" stop-color="#7f7873"/>
      <stop offset="0.58" stop-color="#7e7771"/>
      <stop offset="0.79" stop-color="#79716a"/>
      <stop offset="0.92" stop-color="#726a61"/>
    </linearGradient>
    <linearGradient id="linear-gradient-7" x1="1124.04" y1="327.35" x2="1380.87" y2="327.35" gradientTransform="matrix(1, 0, 0, -1, 0, 900)" gradientUnits="userSpaceOnUse">
      <stop offset="0" stop-color="#37686e"/>
      <stop offset="0.31" stop-color="#436c6d"/>
      <stop offset="0.62" stop-color="#476d6d"/>
    </linearGradient>
    <linearGradient id="linear-gradient-8" x1="799.11" y1="329.53" x2="1405.06" y2="329.53" xlink:href="#linear-gradient-7"/>
    <linearGradient id="linear-gradient-9" x1="799.11" y1="281.84" x2="1405.06" y2="281.84" xlink:href="#linear-gradient-7"/>
    <linearGradient id="linear-gradient-10" x1="499.71" y1="280.64" x2="1105.66" y2="280.64" xlink:href="#linear-gradient-7"/>
    <linearGradient id="linear-gradient-11" x1="499.07" y1="329.53" x2="1105.02" y2="329.53" xlink:href="#linear-gradient-7"/>
    <clipPath id="clip-path-2">
      <path class="cls-1" d="M933.55,419.34l-1.39-32.93s-.3-4.65,3.83-4.64,3.58,4.56,3.58,4.56l-1.28,33.14s-.46,1.1-2.43,1C933.73,420.46,933.55,419.34,933.55,419.34Z"/>
    </clipPath>
    <linearGradient id="linear-gradient-12" x1="955.02" y1="481.2" x2="955.02" y2="458.92" gradientTransform="matrix(1, 0, 0, -1, 0, 900)" gradientUnits="userSpaceOnUse">
      <stop offset="0" stop-color="#983333"/>
      <stop offset="1" stop-color="#b74f28"/>
    </linearGradient>
    <clipPath id="clip-path-3">
      <path class="cls-1" d="M952.52,419.34l-1.38-32.93s-.3-4.65,3.82-4.64,3.58,4.56,3.58,4.56l-1.28,33.14s-.45,1.1-2.42,1C952.7,420.46,952.52,419.34,952.52,419.34Z"/>
    </clipPath>
    <clipPath id="clip-path-5">
      <path class="cls-1" d="M924.88,430.59c0,4.34-1.28,7.38-3,9.31s-9.35,1.84-11-.07-2.91-4.95-2.91-9.24c0-6.63,2.71-12,8.46-12C922,418.59,924.88,424,924.88,430.59Z"/>
    </clipPath>
    <linearGradient id="linear-gradient-13" x1="916.43" y1="458.72" x2="916.43" y2="481.41" xlink:href="#linear-gradient-12"/>
    <clipPath id="clip-path-6">
      <path class="cls-1" d="M913.94,419.34l-1.39-32.93s-.3-4.65,3.83-4.64,3.58,4.56,3.58,4.56l-1.28,33.14s-.46,1.1-2.43,1C914.12,420.46,913.94,419.34,913.94,419.34Z"/>
    </clipPath>
    <linearGradient id="linear-gradient-14" x1="629.34" y1="437.38" x2="635.48" y2="448.01" gradientTransform="matrix(1, 0, 0, -1, 0, 900)" gradientUnits="userSpaceOnUse">
      <stop offset="0" stop-color="#191818"/>
      <stop offset="0.38" stop-color="#2e2926"/>
      <stop offset="1" stop-color="#5e5f5e"/>
    </linearGradient>
    <clipPath id="clip-path-7">
      <path class="cls-1" d="M1009.65,486.65h0V484l44-.3v2.92c0,2.31-8.4,3.17-19.05,3.17h-8.31C1016.14,489.82,1009.65,488.76,1009.65,486.65Z"/>
    </clipPath>
    <clipPath id="clip-path-8">
      <path class="cls-1" d="M1005.24,463.37l3.35,20.39a2.39,2.39,0,0,0,.5,1.11h0c1.22,1.56,5.06,2.67,19.18,2.67h6.45c10.56,0,16.4-.9,18.79-2.24a2.3,2.3,0,0,0,1.21-1.66l3.53-21.14Z"/>
    </clipPath>
    <clipPath id="clip-path-9">
      <path class="cls-1" d="M1058.25,459.68l-2.2-1.52a23.27,23.27,0,0,0-10.61-4h0c-1.73-.34-3.77-.62-11.87-.67h-6.47c-10.66.33-14.33,1.89-20.37,5.51l-1.49.9Z"/>
    </clipPath>
    <linearGradient id="linear-gradient-15" x1="1529.9" y1="745.13" x2="1681.7" y2="114.18" gradientTransform="matrix(1, 0, 0, -1, 0, 900)" gradientUnits="userSpaceOnUse">
      <stop offset="0.04" stop-color="#97a1a9"/>
      <stop offset="0.43" stop-color="#767b80"/>
      <stop offset="0.86" stop-color="#4d4c4d"/>
    </linearGradient>
    <linearGradient id="linear-gradient-16" x1="1418.02" y1="761.33" x2="1817.55" y2="244.49" xlink:href="#linear-gradient-15"/>
    <linearGradient id="linear-gradient-17" x1="1610" y1="598.39" x2="1652.61" y2="543.28" gradientTransform="matrix(1, 0, 0, -1, 0, 900)" gradientUnits="userSpaceOnUse">
      <stop offset="0.04" stop-color="#97d9f2"/>
      <stop offset="0.37" stop-color="#6ec0e6"/>
      <stop offset="0.86" stop-color="#2a96d3"/>
    </linearGradient>
    <linearGradient id="linear-gradient-18" x1="1548.5" y1="590.49" x2="1584.51" y2="543.9" xlink:href="#linear-gradient-17"/>
  </defs>
  <g id="Layer_4" data-name="Layer 4">
    <g class="cls-2">
      <g>
        <rect class="cls-3" x="-61.03" y="517.48" width="1984.15" height="187.62"/>
        <rect class="cls-4" x="-60.55" y="516.42" width="1982.14" height="11.73"/>
        <polygon class="cls-5" points="-27.68 516.3 1926.96 516.3 1926.7 486.43 -13.04 483.62 -27.68 516.3"/>
        <polygon class="cls-6" points="-13.04 705.91 1925.68 704.72 1924.66 901.83 -12.7 903.7 -13.04 705.91"/>
        <rect class="cls-7" x="-2.11" width="1924.21" height="165.72"/>
        <path class="cls-8" d="M1923.06,163.93H-3.35V361.8l1930.05-6.6q-1.65-45.69-2.58-92.52Q1923.13,212.67,1923.06,163.93Z"/>
        <path class="cls-9" d="M1927.47,488.54H-7.34V353.15c644.94,1.39,1292,.74,1936.94,2.13Z"/>
        <g class="cls-10">
          <line class="cls-11" x1="98.73" y1="353.74" x2="98.73" y2="482.96"/>
          <line class="cls-11" x1="39.74" y1="355.8" x2="39.74" y2="485.01"/>
          <line class="cls-11" x1="157.71" y1="353.74" x2="157.71" y2="482.96"/>
          <line class="cls-11" x1="218.8" y1="355.8" x2="218.8" y2="485.01"/>
          <line class="cls-11" x1="290.42" y1="355.8" x2="290.42" y2="485.01"/>
          <line class="cls-11" x1="357.83" y1="355.8" x2="357.83" y2="485.01"/>
          <line class="cls-11" x1="456.84" y1="355.8" x2="456.84" y2="485.01"/>
          <line class="cls-11" x1="539" y1="355.8" x2="539" y2="485.01"/>
          <line class="cls-11" x1="614.83" y1="351.69" x2="614.83" y2="480.91"/>
          <line class="cls-11" x1="699.09" y1="355.8" x2="699.09" y2="485.01"/>
          <line class="cls-11" x1="774.93" y1="355.8" x2="774.93" y2="485.01"/>
          <line class="cls-11" x1="848.66" y1="355.8" x2="848.66" y2="485.01"/>
          <line class="cls-11" x1="913.96" y1="355.8" x2="913.96" y2="485.01"/>
          <line class="cls-11" x1="998.22" y1="355.8" x2="998.22" y2="485.01"/>
          <line class="cls-11" x1="1071.95" y1="355.8" x2="1071.95" y2="485.01"/>
          <line class="cls-11" x1="1147.79" y1="353.74" x2="1147.79" y2="482.96"/>
          <line class="cls-11" x1="1223.62" y1="353.74" x2="1223.62" y2="482.96"/>
          <line class="cls-11" x1="1288.93" y1="353.74" x2="1288.93" y2="482.96"/>
          <line class="cls-11" x1="1356.34" y1="355.8" x2="1356.34" y2="485.01"/>
          <line class="cls-11" x1="1425.85" y1="355.8" x2="1425.85" y2="485.01"/>
          <line class="cls-11" x1="1491.15" y1="353.74" x2="1491.15" y2="482.96"/>
          <line class="cls-11" x1="1558.56" y1="355.8" x2="1558.56" y2="485.01"/>
          <line class="cls-11" x1="1630.19" y1="357.85" x2="1630.19" y2="487.06"/>
          <line class="cls-11" x1="1706.02" y1="357.85" x2="1706.02" y2="487.06"/>
          <line class="cls-12" y1="417.08" x2="1920" y2="417.31"/>
          <line class="cls-13" y1="388.36" x2="1920" y2="388.6"/>
          <line class="cls-12" x1="1920" y1="448.08" y2="447.85"/>
          <line class="cls-14" y1="482.72" x2="1920" y2="482.96"/>
        </g>
        <polygon class="cls-15" points="334.35 528.42 486.83 528.42 487.53 702.35 334.35 702.35 334.35 528.42"/>
        <line class="cls-15" x1="405.64" y1="528.14" x2="405.64" y2="702.34"/>
        <line class="cls-15" x1="428.29" y1="592.76" x2="428.29" y2="646.28"/>
        <line class="cls-15" x1="377.87" y1="592.76" x2="377.87" y2="646.28"/>
        <ellipse class="cls-16" cx="429.55" cy="593.78" rx="6.3" ry="7.98"/>
        <ellipse class="cls-16" cx="429.55" cy="644.87" rx="6.3" ry="7.98"/>
        <ellipse class="cls-16" cx="379.13" cy="590.59" rx="6.3" ry="7.98"/>
        <ellipse class="cls-16" cx="376.61" cy="644.87" rx="6.3" ry="7.98"/>
        <polygon class="cls-15" points="142.21 528.42 294.69 528.42 295.39 702.35 142.21 702.35 142.21 528.42"/>
        <line class="cls-15" x1="213.5" y1="528.14" x2="213.5" y2="702.34"/>
        <line class="cls-15" x1="236.15" y1="592.76" x2="236.15" y2="646.28"/>
        <line class="cls-15" x1="185.73" y1="592.76" x2="185.73" y2="646.28"/>
        <ellipse class="cls-16" cx="237.41" cy="593.78" rx="6.3" ry="7.98"/>
        <ellipse class="cls-16" cx="237.41" cy="644.87" rx="6.3" ry="7.98"/>
        <ellipse class="cls-16" cx="186.99" cy="590.59" rx="6.3" ry="7.98"/>
        <ellipse class="cls-16" cx="184.47" cy="644.87" rx="6.3" ry="7.98"/>
        <polygon class="cls-15" points="1436.95 528.68 1585.73 528.68 1586.42 697.99 1436.95 697.99 1436.95 528.68"/>
        <line class="cls-15" x1="1506.51" y1="528.42" x2="1506.51" y2="697.99"/>
        <line class="cls-15" x1="1528.61" y1="591.32" x2="1528.61" y2="643.41"/>
        <line class="cls-15" x1="1479.41" y1="591.32" x2="1479.41" y2="643.41"/>
        <ellipse class="cls-16" cx="1529.84" cy="592.31" rx="6.15" ry="7.77"/>
        <ellipse class="cls-16" cx="1529.84" cy="642.04" rx="6.15" ry="7.77"/>
        <ellipse class="cls-16" cx="1480.64" cy="589.2" rx="6.15" ry="7.77"/>
        <ellipse class="cls-16" cx="1478.18" cy="642.04" rx="6.15" ry="7.77"/>
        <polygon class="cls-15" points="1631.29 528.68 1780.07 528.68 1780.75 697.99 1631.29 697.99 1631.29 528.68"/>
        <line class="cls-15" x1="1700.85" y1="528.42" x2="1700.85" y2="697.99"/>
        <line class="cls-15" x1="1722.95" y1="591.32" x2="1722.95" y2="643.41"/>
        <line class="cls-15" x1="1673.75" y1="591.32" x2="1673.75" y2="643.41"/>
        <ellipse class="cls-16" cx="1724.18" cy="592.31" rx="6.15" ry="7.77"/>
        <ellipse class="cls-16" cx="1724.18" cy="642.04" rx="6.15" ry="7.77"/>
        <ellipse class="cls-16" cx="1674.98" cy="589.2" rx="6.15" ry="7.77"/>
        <ellipse class="cls-16" cx="1672.52" cy="642.04" rx="6.15" ry="7.77"/>
        <rect class="cls-17" x="-2.62" y="514.18" width="1925.23" height="9.23"/>
        <polygon class="cls-18" points="-47.43 -7.11 -47.43 70.51 2017.6 77.15 2016.06 -7.11 -47.43 -7.11"/>
        <path class="cls-19" d="M-55.35,353.36v41.57l2030.7-10V353.36Z"/>
        <g class="cls-20">
          <polygon class="cls-15" points="725.19 176.89 877.39 176.89 878 334.84 725.19 334.84 725.19 176.89"/>
          <polygon class="cls-21" points="731.51 183.04 871.12 183.04 871.68 328.69 731.51 328.69 731.51 183.04"/>
          <ellipse class="cls-22" cx="787.42" cy="232.27" rx="2.11" ry="2.05"/>
          <ellipse class="cls-22" cx="787.42" cy="265.09" rx="2.11" ry="2.05"/>
          <ellipse class="cls-22" cx="814.8" cy="265.09" rx="2.11" ry="2.05"/>
          <ellipse class="cls-22" cx="814.8" cy="232.27" rx="2.11" ry="2.05"/>
          <line class="cls-21" x1="801.6" y1="183.04" x2="801.6" y2="328.69"/>
          <line class="cls-21" x1="815.2" y1="232.5" x2="814.8" y2="265.09"/>
          <line class="cls-21" x1="787.82" y1="232.5" x2="787.42" y2="265.09"/>
        </g>
        <g class="cls-20">
          <polygon class="cls-15" points="549.22 179.25 701.42 179.25 702.02 337.21 549.22 337.21 549.22 179.25"/>
          <polygon class="cls-21" points="555.54 185.41 695.15 185.41 695.7 331.05 555.54 331.05 555.54 185.41"/>
          <ellipse class="cls-22" cx="611.44" cy="234.64" rx="2.11" ry="2.05"/>
          <ellipse class="cls-22" cx="611.44" cy="267.46" rx="2.11" ry="2.05"/>
          <ellipse class="cls-22" cx="638.83" cy="267.46" rx="2.11" ry="2.05"/>
          <ellipse class="cls-22" cx="638.83" cy="234.64" rx="2.11" ry="2.05"/>
          <line class="cls-21" x1="625.62" y1="185.41" x2="625.62" y2="331.05"/>
          <line class="cls-21" x1="639.23" y1="234.86" x2="638.83" y2="267.46"/>
          <line class="cls-21" x1="611.84" y1="234.86" x2="611.44" y2="267.46"/>
        </g>
        <g class="cls-20">
          <polygon class="cls-15" points="367.94 179.25 520.14 179.25 520.75 337.21 367.94 337.21 367.94 179.25"/>
          <polygon class="cls-21" points="374.26 185.41 513.87 185.41 514.43 331.05 374.26 331.05 374.26 185.41"/>
          <ellipse class="cls-22" cx="430.17" cy="234.64" rx="2.11" ry="2.05"/>
          <ellipse class="cls-22" cx="430.17" cy="267.46" rx="2.11" ry="2.05"/>
          <ellipse class="cls-22" cx="457.55" cy="267.46" rx="2.11" ry="2.05"/>
          <ellipse class="cls-22" cx="457.55" cy="234.64" rx="2.11" ry="2.05"/>
          <line class="cls-21" x1="444.34" y1="185.41" x2="444.34" y2="331.05"/>
          <line class="cls-21" x1="457.95" y1="234.86" x2="457.55" y2="267.46"/>
          <line class="cls-21" x1="430.56" y1="234.86" x2="430.17" y2="267.46"/>
        </g>
        <g class="cls-20">
          <polygon class="cls-15" points="181.55 179.25 333.75 179.25 334.35 337.21 181.55 337.21 181.55 179.25"/>
          <polygon class="cls-21" points="187.87 185.41 327.48 185.41 328.04 331.05 187.87 331.05 187.87 185.41"/>
          <ellipse class="cls-22" cx="243.77" cy="234.64" rx="2.11" ry="2.05"/>
          <ellipse class="cls-22" cx="243.77" cy="267.46" rx="2.11" ry="2.05"/>
          <ellipse class="cls-22" cx="271.16" cy="267.46" rx="2.11" ry="2.05"/>
          <ellipse class="cls-22" cx="271.16" cy="234.64" rx="2.11" ry="2.05"/>
          <line class="cls-21" x1="257.95" y1="185.41" x2="257.95" y2="331.05"/>
          <line class="cls-21" x1="271.56" y1="234.86" x2="271.16" y2="267.46"/>
          <line class="cls-21" x1="244.17" y1="234.86" x2="243.77" y2="267.46"/>
        </g>
        <g class="cls-20">
          <polygon class="cls-23" points="904.92 179.25 1112.07 179.25 1112.89 337.21 904.92 337.21 904.92 179.25"/>
          <polygon class="cls-24" points="913.53 185.41 1103.53 185.41 1104.29 331.05 913.53 331.05 913.53 185.41"/>
          <ellipse class="cls-22" cx="989.61" cy="234.64" rx="2.87" ry="2.05"/>
          <ellipse class="cls-22" cx="989.61" cy="267.46" rx="2.87" ry="2.05"/>
          <ellipse class="cls-22" cx="1026.88" cy="267.46" rx="2.87" ry="2.05"/>
          <ellipse class="cls-22" cx="1026.88" cy="234.64" rx="2.87" ry="2.05"/>
          <line class="cls-24" x1="1008.91" y1="185.41" x2="1008.91" y2="331.05"/>
          <line class="cls-24" x1="1027.42" y1="234.86" x2="1026.88" y2="267.46"/>
          <line class="cls-24" x1="990.15" y1="234.86" x2="989.61" y2="267.46"/>
        </g>
        <g class="cls-20">
          <polygon class="cls-25" points="1153.07 176.89 1401.47 176.89 1402.46 334.84 1153.07 334.84 1153.07 176.89"/>
          <polygon class="cls-26" points="1163.38 183.04 1391.24 183.04 1392.15 328.69 1163.38 328.69 1163.38 183.04"/>
          <ellipse class="cls-22" cx="1254.62" cy="232.27" rx="3.44" ry="2.05"/>
          <ellipse class="cls-22" cx="1254.62" cy="265.09" rx="3.44" ry="2.05"/>
          <ellipse class="cls-22" cx="1299.32" cy="265.09" rx="3.44" ry="2.05"/>
          <ellipse class="cls-22" cx="1299.32" cy="232.27" rx="3.44" ry="2.05"/>
          <line class="cls-26" x1="1277.77" y1="183.04" x2="1277.77" y2="328.69"/>
          <line class="cls-26" x1="1299.97" y1="232.5" x2="1299.32" y2="265.09"/>
          <line class="cls-26" x1="1255.28" y1="232.5" x2="1254.62" y2="265.09"/>
        </g>
        <g class="cls-20">
          <polygon class="cls-15" points="1421.32 176.89 1573.52 176.89 1574.12 334.84 1421.32 334.84 1421.32 176.89"/>
          <polygon class="cls-21" points="1427.64 183.04 1567.25 183.04 1567.8 328.69 1427.64 328.69 1427.64 183.04"/>
          <ellipse class="cls-22" cx="1483.54" cy="232.27" rx="2.11" ry="2.05"/>
          <ellipse class="cls-22" cx="1483.54" cy="265.09" rx="2.11" ry="2.05"/>
          <ellipse class="cls-22" cx="1510.93" cy="265.09" rx="2.11" ry="2.05"/>
          <ellipse class="cls-22" cx="1510.93" cy="232.27" rx="2.11" ry="2.05"/>
          <line class="cls-21" x1="1497.72" y1="183.04" x2="1497.72" y2="328.69"/>
          <line class="cls-21" x1="1511.33" y1="232.5" x2="1510.93" y2="265.09"/>
          <line class="cls-21" x1="1483.54" y1="265.09" x2="1483.94" y2="232.5"/>
        </g>
        <g class="cls-20">
          <polygon class="cls-15" points="1586.42 176.82 1738.62 176.82 1739.22 334.77 1586.42 334.77 1586.42 176.82"/>
          <polygon class="cls-21" points="1592.73 182.97 1732.35 182.97 1732.9 328.62 1592.73 328.62 1592.73 182.97"/>
          <ellipse class="cls-22" cx="1648.64" cy="232.21" rx="2.11" ry="2.05"/>
          <ellipse class="cls-22" cx="1648.64" cy="265.03" rx="2.11" ry="2.05"/>
          <ellipse class="cls-22" cx="1676.02" cy="265.03" rx="2.11" ry="2.05"/>
          <ellipse class="cls-22" cx="1676.02" cy="232.21" rx="2.11" ry="2.05"/>
          <line class="cls-21" x1="1662.82" y1="182.97" x2="1662.82" y2="328.62"/>
          <line class="cls-21" x1="1676.42" y1="232.43" x2="1676.02" y2="265.03"/>
          <line class="cls-21" x1="1648.64" y1="265.03" x2="1649.04" y2="232.43"/>
        </g>
        <polygon class="cls-27" points="98.73 166.47 98.73 342.89 1838 342.89 1837.36 166.47 98.73 166.47"/>
        <polygon class="cls-28" points="1124.04 556.69 1124.04 591.48 1380.87 591.48 1380.87 553.82 1124.04 556.69"/>
        <polygon class="cls-29" points="825.32 554.51 825.32 589.3 1082.15 589.3 1082.15 551.64 825.32 554.51"/>
        <polygon class="cls-30" points="825.32 602.2 825.32 636.99 1082.15 636.99 1082.15 599.33 825.32 602.2"/>
        <polygon class="cls-31" points="525.92 603.4 525.92 638.19 782.75 638.19 782.75 600.53 525.92 603.4"/>
        <polygon class="cls-32" points="525.28 554.51 525.28 589.3 782.12 589.3 782.12 551.64 525.28 554.51"/>
        <ellipse class="cls-33" cx="640.97" cy="571.09" rx="8.6" ry="5.54"/>
        <ellipse class="cls-33" cx="941.29" cy="568.68" rx="9.79" ry="6.34"/>
        <ellipse class="cls-33" cx="942.39" cy="619.36" rx="10.16" ry="7.27"/>
        <ellipse class="cls-33" cx="642.58" cy="619.47" rx="8.98" ry="6.98"/>
        <path class="cls-34" d="M945.69,436.51l-3.93-14a4.34,4.34,0,0,0-4.2-3.25h-2.22a4.36,4.36,0,0,0-4.11,2.93l-4.91,13.47a3.08,3.08,0,0,0,1.31,3.64,16.61,16.61,0,0,0,8,2.13,19.24,19.24,0,0,0,8.22-1.31A3.08,3.08,0,0,0,945.69,436.51Zm-14.22,1.17-2.15-.52a.69.69,0,0,1-.53-.82v0l4.2-12.86a.72.72,0,0,1,.77-.48.68.68,0,0,1,.65.72v.05l-2,13.38a.73.73,0,0,1-.86.59l-.09,0Zm5.34,2.09-1.95-.07a.74.74,0,0,1-.74-.76v0l1.4-13.43a.76.76,0,0,1,.81-.65.74.74,0,0,1,.74.7l.55,13.5a.75.75,0,0,1-.75.75Zm5.16-2.23-1.7.22a.74.74,0,0,1-.86-.62.06.06,0,0,1,0,0l-1.13-13.23a.73.73,0,0,1,.68-.77.74.74,0,0,1,.84.57l2.82,13a.73.73,0,0,1-.57.86H942Z"/>
        <path class="cls-35" d="M945.42,436.51l-3.93-14a4.34,4.34,0,0,0-4.21-3.25h-2.21a4.36,4.36,0,0,0-4.11,2.93l-4.91,13.47a3.08,3.08,0,0,0,1.31,3.64,16.61,16.61,0,0,0,8,2.13,19.24,19.24,0,0,0,8.22-1.31A3.08,3.08,0,0,0,945.42,436.51Zm-14.22,1.17-2.15-.52a.69.69,0,0,1-.53-.82v0l4.15-12.86a.73.73,0,0,1,.76-.48.7.7,0,0,1,.66.74v0l-2,13.38a.72.72,0,0,1-.85.58Zm5.34,2.09-1.95-.07a.74.74,0,0,1-.74-.76v0l1.4-13.43a.76.76,0,0,1,.81-.65.74.74,0,0,1,.74.7l.55,13.5a.75.75,0,0,1-.75.75Zm5.15-2.23-1.7.22a.77.77,0,0,1-.87-.64v0L938,423.87a.73.73,0,0,1,.68-.77.76.76,0,0,1,.84.57l2.82,13a.73.73,0,0,1-.57.86Z"/>
        <path class="cls-36" d="M900.46,376.6c.4.42,69.72-1.33,69.72-1.33l-1.57,18.07-67.13-.79Z"/>
        <path class="cls-37" d="M921.5,392.79v-6.94c0-2.66-3.52-3.76-3.52-3.76l.2,10.66Z"/>
        <path class="cls-37" d="M941,393v-7.28c0-2.78-4-3.82-4-3.82l.39,11.06Z"/>
        <path class="cls-38" d="M962.83,385c.4.43,7.35-9.71,7.35-9.71l-1.57,18.07-67.13-.79Z"/>
        <path class="cls-39" d="M900.46,376.6c.4.42,69.72-1.33,69.72-1.33l-65.5,4.6-3.2,12.68Z"/>
        <path class="cls-40" d="M900.46,376.6c.4.42,69.72-1.33,69.72-1.33l-2.7-.81-64.17,1.1Z"/>
        <path class="cls-41" d="M933.55,419.34l-1.39-32.93s-.3-4.65,3.83-4.64,3.58,4.56,3.58,4.56l-1.28,33.14s-.46,1.1-2.43,1C933.73,420.46,933.55,419.34,933.55,419.34Z"/>
        <path class="cls-42" d="M935.87,388.36h0a1.34,1.34,0,0,1-1.34-1.34h0v-1.45a1.34,1.34,0,0,1,1.34-1.34h0a1.34,1.34,0,0,1,1.34,1.34h0V387a1.34,1.34,0,0,1-1.32,1.36Z"/>
        <g class="cls-43">
          <g>
            <path class="cls-38" d="M938,379.11l-.81,45.9s4.12-1.51,4.17-2.72-.82-42.09-.82-42.09Z"/>
            <polygon class="cls-44" points="933.75 379.11 934.57 424.81 930.96 418.04 930.76 382.84 933.75 379.11"/>
          </g>
        </g>
        <circle class="cls-45" cx="935.63" cy="385.36" r="1.98" transform="translate(345.65 1207.44) rotate(-76.72)"/>
        <circle class="cls-37" cx="936.63" cy="385.82" r="1.98" transform="translate(345.98 1208.78) rotate(-76.72)"/>
        <circle class="cls-46" cx="935.81" cy="385.55" r="1.98" transform="translate(345.6 1207.78) rotate(-76.72)"/>
        <path class="cls-47" d="M962.83,435.13l-.21-7.81c0-1.52-.6-4.52-1.58-5.6h0a8.72,8.72,0,0,0-6.44-2.92h0a7.48,7.48,0,0,0-6,3.14l-.2.27a6.34,6.34,0,0,0-1.2,3.71v9.54c0,1.93,1.58,3.63,2.9,4.69a.32.32,0,0,0,.46-.06.29.29,0,0,0,.07-.16l.65-11.16a.78.78,0,0,1,.59-.68.76.76,0,0,1,.91.57.59.59,0,0,1,0,.13l.79,11.82a.49.49,0,0,0,.51.47h0l2-.08a.5.5,0,0,0,.48-.5V428.89a.76.76,0,0,1,1.51-.15l1.38,11a.34.34,0,0,0,.39.26.31.31,0,0,0,.13-.06C961.32,438.84,962.88,437.08,962.83,435.13Z"/>
        <path class="cls-41" d="M952.52,419.34l-1.38-32.93s-.3-4.65,3.82-4.64,3.58,4.56,3.58,4.56l-1.28,33.14s-.45,1.1-2.42,1C952.7,420.46,952.52,419.34,952.52,419.34Z"/>
        <path class="cls-42" d="M954.85,388.36h0a1.34,1.34,0,0,1-1.34-1.34h0v-1.45a1.34,1.34,0,0,1,1.34-1.34h0a1.34,1.34,0,0,1,1.34,1.34h0V387a1.34,1.34,0,0,1-1.32,1.36Z"/>
        <g class="cls-48">
          <g>
            <path class="cls-38" d="M957,379.11l-.8,45.9s4.12-1.51,4.16-2.72-.81-42.09-.81-42.09Z"/>
            <polygon class="cls-44" points="952.73 379.11 953.55 424.81 949.94 418.04 949.73 382.84 952.73 379.11"/>
          </g>
        </g>
        <circle class="cls-45" cx="954.59" cy="385.35" r="1.98" transform="translate(360.26 1225.9) rotate(-76.72)"/>
        <circle class="cls-46" cx="954.83" cy="385.57" r="1.98"/>
        <path class="cls-34" d="M963.11,435.13l-.22-7.81c0-1.52-.6-4.52-1.58-5.6h0a8.72,8.72,0,0,0-6.44-2.92h0a7.49,7.49,0,0,0-6,3.14l-.2.27a6.26,6.26,0,0,0-1.19,3.71v9.54c0,1.93,1.57,3.63,2.89,4.69a.32.32,0,0,0,.46-.06.29.29,0,0,0,.07-.16l.65-11.16a.78.78,0,0,1,.59-.68.76.76,0,0,1,.91.57.59.59,0,0,1,0,.13l.79,11.82a.49.49,0,0,0,.51.47h0l2-.08a.5.5,0,0,0,.48-.5V428.89a.76.76,0,0,1,1.51-.15l1.38,11a.33.33,0,0,0,.38.27.35.35,0,0,0,.15-.07C961.59,438.84,963.15,437.08,963.11,435.13Z"/>
        <path class="cls-49" d="M962.83,435.13l-.21-7.81c0-1.52-.6-4.52-1.58-5.6h0a8.72,8.72,0,0,0-6.44-2.92h0a7.48,7.48,0,0,0-6,3.14l-.2.27a6.34,6.34,0,0,0-1.2,3.71v9.54c0,1.93,1.58,3.63,2.9,4.69a.32.32,0,0,0,.46-.06.29.29,0,0,0,.07-.16l.65-11.16a.78.78,0,0,1,.59-.68.76.76,0,0,1,.91.57.59.59,0,0,1,0,.13l.79,11.82a.49.49,0,0,0,.51.47h0l2-.08a.5.5,0,0,0,.48-.5V428.89a.76.76,0,0,1,1.51-.15l1.38,11a.34.34,0,0,0,.39.26.31.31,0,0,0,.13-.06C961.32,438.84,962.88,437.08,962.83,435.13Z"/>
        <path class="cls-41" d="M952.52,419.34l-1.38-32.93s-.3-4.65,3.82-4.64,3.58,4.56,3.58,4.56l-1.28,33.14s-.45,1.1-2.42,1C952.7,420.46,952.52,419.34,952.52,419.34Z"/>
        <path class="cls-42" d="M954.85,388.36h0a1.34,1.34,0,0,1-1.34-1.34h0v-1.45a1.34,1.34,0,0,1,1.34-1.34h0a1.34,1.34,0,0,1,1.34,1.34h0V387a1.34,1.34,0,0,1-1.32,1.36Z"/>
        <g class="cls-48">
          <g>
            <path class="cls-38" d="M957,379.11l-.8,45.9s4.12-1.51,4.16-2.72-.81-42.09-.81-42.09Z"/>
            <polygon class="cls-44" points="952.73 379.11 953.55 424.81 949.94 418.04 949.73 382.84 952.73 379.11"/>
          </g>
        </g>
        <circle class="cls-45" cx="954.59" cy="385.35" r="1.98" transform="translate(360.26 1225.9) rotate(-76.72)"/>
        <circle class="cls-37" cx="955.65" cy="385.85" r="1.98"/>
        <circle class="cls-46" cx="954.83" cy="385.57" r="1.98"/>
        <path class="cls-50" d="M924.88,430.59c0,4.34-1.28,7.38-3,9.31s-9.35,1.84-11-.07-2.91-4.95-2.91-9.24c0-6.63,2.71-12,8.46-12C922,418.59,924.88,424,924.88,430.59Z"/>
        <g class="cls-51">
          <ellipse class="cls-52" cx="916.42" cy="441.57" rx="8.28" ry="2.47"/>
        </g>
        <path class="cls-34" d="M925.16,430.59c0,4.34-1.29,7.38-3,9.31s-9.35,1.84-11-.07-2.91-4.95-2.91-9.24c0-6.63,2.71-12,8.47-12C922.25,418.59,925.16,424,925.16,430.59Z"/>
        <path class="cls-53" d="M924.88,430.59c0,4.34-1.28,7.38-3,9.31s-9.35,1.84-11-.07-2.91-4.95-2.91-9.24c0-6.63,2.71-12,8.46-12C922,418.59,924.88,424,924.88,430.59Z"/>
        <path class="cls-34" d="M923.51,431.62a12.85,12.85,0,0,1-2,7.21c-1.4,2.1-9.43,2.17-10.83,0a13.17,13.17,0,0,1-1.92-7.21c0-5.54,2.54-9.6,7.35-9.6S923.51,426.08,923.51,431.62Z"/>
        <path class="cls-54" d="M924.05,432.17a12.85,12.85,0,0,1-2,7.21c-1.39,2.09-9.43,2.16-10.83,0a13.26,13.26,0,0,1-1.92-7.21c0-5.54,2.55-9.6,7.36-9.6S924.05,426.63,924.05,432.17Z"/>
        <path class="cls-41" d="M913.94,419.34l-1.39-32.93s-.3-4.65,3.83-4.64,3.58,4.56,3.58,4.56l-1.28,33.14s-.46,1.1-2.43,1C914.12,420.46,913.94,419.34,913.94,419.34Z"/>
        <path class="cls-42" d="M916.26,388.36h0a1.34,1.34,0,0,1-1.34-1.34h0v-1.45a1.34,1.34,0,0,1,1.34-1.34h0a1.34,1.34,0,0,1,1.34,1.34h0V387a1.34,1.34,0,0,1-1.32,1.36Z"/>
        <g class="cls-55">
          <g>
            <path class="cls-38" d="M918.41,379.11,917.6,425s4.12-1.51,4.17-2.72S921,380.2,921,380.2Z"/>
            <polygon class="cls-44" points="914.14 379.11 914.96 424.81 911.35 418.04 911.15 382.84 914.14 379.11"/>
          </g>
        </g>
        <circle class="cls-45" cx="916.09" cy="385.4" r="1.98" transform="translate(388.88 1227.9) rotate(-80.78)"/>
        <circle class="cls-37" cx="917.03" cy="385.82" r="1.98" transform="translate(330.88 1189.7) rotate(-76.72)"/>
        <circle class="cls-46" cx="916.21" cy="385.55" r="1.98" transform="translate(330.51 1188.69) rotate(-76.72)"/>
        <path class="cls-56" d="M513.85,510.52a1.1,1.1,0,0,0-.35,1.53,1.12,1.12,0,0,0,1,.52c20.08-1,98.65-.17,122.8.11a23.18,23.18,0,0,0,13-3.85l27.41-15.42a.39.39,0,0,0-.2-.73l-140.79,3.19Z"/>
        <path class="cls-57" d="M662.35,429.72l.53,63.53L645.13,503l-.73-67,17.82-6.36a.1.1,0,0,1,.13.06Z"/>
        <rect class="cls-58" x="623.13" y="503.5" width="11.79" height="3.28"/>
        <rect class="cls-58" x="533.86" y="503.89" width="11.79" height="3.28"/>
        <path class="cls-59" d="M524.78,437.65l31.72-7.15a48.13,48.13,0,0,1,10.7-1.18l95.15.26-16.06,7.34-121.47,1.14a.21.21,0,0,1-.19-.23A.22.22,0,0,1,524.78,437.65Z"/>
        <path class="cls-60" d="M643.41,437l-117.64,1.1a2.86,2.86,0,0,0-2.83,2.89v0l1.49,60.9a2.85,2.85,0,0,0,2.88,2.78l116.15-1.07a2.86,2.86,0,0,0,2.83-2.86v-61A2.86,2.86,0,0,0,643.41,437Z"/>
        <polygon class="cls-61" points="526.05 440.8 641.95 440.51 641.95 501.14 527.02 502.74 526.05 440.8"/>
        <path class="cls-62" d="M522.93,440.73a2.62,2.62,0,0,1,2.56-2.68h0l120.77-1.13L530,444l-5.48,60.68Z"/>
        <polygon class="cls-37" points="637.52 460.97 623.95 460.97 623.74 452.01 638.1 452.01 637.52 460.97"/>
        <polygon class="cls-63" points="637.28 460.73 623.72 460.73 623.5 451.77 637.86 451.77 637.28 460.73"/>
        <path class="cls-64" d="M636.15,460.05H624.88a.41.41,0,0,1-.42-.4h0l-.18-6.75a.42.42,0,0,1,.41-.43h11.95a.41.41,0,0,1,.42.4v0l-.48,6.76A.43.43,0,0,1,636.15,460.05Z"/>
        <path class="cls-65" d="M624.88,460.05a.41.41,0,0,1-.42-.4h0l-.18-6.75a.42.42,0,0,1,.41-.43h0l11.93.44h0l-5.11.22C631.52,453.34,624.88,460.05,624.88,460.05Z"/>
        <path class="cls-66" d="M636.15,460.05h-10.9l9.07-1.07,2.74-6.08h0l-.48,6.76A.43.43,0,0,1,636.15,460.05Z"/>
        <g class="cls-67">
          <path d="M626.31,467.07h-.18a1.32,1.32,0,0,1-1.31-1.28v-.67a1.31,1.31,0,0,1,1.28-1.34h.22a1.31,1.31,0,0,1,1.31,1.31v.67a1.31,1.31,0,0,1-1.31,1.31Z"/>
          <path d="M631.05,467.07h-.18a1.3,1.3,0,0,1-1.3-1.28v-.67a1.31,1.31,0,0,1,1.28-1.34h.22a1.31,1.31,0,0,1,1.31,1.31v.67a1.31,1.31,0,0,1-1.31,1.31Z"/>
          <path d="M635.59,467.07h0a1.3,1.3,0,0,1-1.3-1.28v-.67a1.31,1.31,0,0,1,1.28-1.34h.1a1.31,1.31,0,0,1,1.31,1.33v.1l-.06.66A1.31,1.31,0,0,1,635.59,467.07Z"/>
          <path d="M626.31,471.89h-.18a1.29,1.29,0,0,1-1.31-1.24V470a1.28,1.28,0,0,1,1.26-1.3h.24a1.29,1.29,0,0,1,1.31,1.27h0v.65a1.29,1.29,0,0,1-1.31,1.27Z"/>
          <path d="M631,471.88h-.18a1.26,1.26,0,0,1-1.26-1.24V470a1.27,1.27,0,0,1,1.24-1.3h.2a1.27,1.27,0,0,1,1.27,1.27h0v.64a1.27,1.27,0,0,1-1.27,1.27Z"/>
          <path d="M635.57,471.88h0a1.26,1.26,0,0,1-1.28-1.22V470a1.25,1.25,0,0,1,1.24-1.28h.11a1.25,1.25,0,0,1,1.28,1.24v.12l-.06.64A1.26,1.26,0,0,1,635.57,471.88Z"/>
          <path d="M626.3,476.36h-.17a1.25,1.25,0,0,1-1.24-1.21v-.63a1.23,1.23,0,0,1,1.19-1.27h.23a1.23,1.23,0,0,1,1.24,1.22v.65a1.23,1.23,0,0,1-1.22,1.24Z"/>
          <path d="M631,476.36h-.17a1.22,1.22,0,0,1-1.22-1.21v-.63a1.23,1.23,0,0,1,1.19-1.27h.2a1.23,1.23,0,0,1,1.23,1.23h0v.63a1.23,1.23,0,0,1-1.22,1.24Z"/>
          <path d="M635.52,476.36h0a1.22,1.22,0,0,1-1.23-1.18v-.62a1.21,1.21,0,0,1,1.19-1.23h.12a1.22,1.22,0,0,1,1.24,1.2v.11l-.06.62A1.23,1.23,0,0,1,635.52,476.36Z"/>
        </g>
        <path class="cls-68" d="M626.07,466.83h-.18a1.32,1.32,0,0,1-1.31-1.28v-.67a1.31,1.31,0,0,1,1.28-1.34h.22a1.31,1.31,0,0,1,1.31,1.31v.67a1.31,1.31,0,0,1-1.31,1.31Z"/>
        <path class="cls-68" d="M630.81,466.83h-.18a1.3,1.3,0,0,1-1.3-1.28v-.67a1.31,1.31,0,0,1,1.28-1.34h.22a1.31,1.31,0,0,1,1.31,1.31v.67a1.31,1.31,0,0,1-1.31,1.31Z"/>
        <path class="cls-68" d="M635.35,466.83h0a1.31,1.31,0,0,1-1.3-1.28v-.67a1.32,1.32,0,0,1,1.3-1.34h.08a1.32,1.32,0,0,1,1.32,1.3c0,.05,0,.09,0,.13l-.06.66A1.31,1.31,0,0,1,635.35,466.83Z"/>
        <path class="cls-68" d="M626.07,471.65h-.18a1.29,1.29,0,0,1-1.31-1.24v-.65a1.28,1.28,0,0,1,1.26-1.3h.24a1.29,1.29,0,0,1,1.31,1.27h0v.65a1.29,1.29,0,0,1-1.31,1.27Z"/>
        <path class="cls-68" d="M630.77,471.64h-.18a1.26,1.26,0,0,1-1.26-1.24v-.64a1.27,1.27,0,0,1,1.24-1.3h.22a1.27,1.27,0,0,1,1.27,1.27h0v.64a1.27,1.27,0,0,1-1.27,1.27Z"/>
        <path class="cls-68" d="M635.33,471.64h0a1.26,1.26,0,0,1-1.28-1.22v-.64a1.27,1.27,0,0,1,1.26-1.28h.1a1.25,1.25,0,0,1,1.27,1.25v.11l-.06.64A1.26,1.26,0,0,1,635.33,471.64Z"/>
        <path class="cls-68" d="M626.06,476.12h-.17a1.25,1.25,0,0,1-1.24-1.21v-.63a1.23,1.23,0,0,1,1.19-1.27h.23a1.25,1.25,0,0,1,1.24,1.24v.63a1.23,1.23,0,0,1-1.22,1.24Z"/>
        <path class="cls-68" d="M630.72,476.12h-.17a1.23,1.23,0,0,1-1.22-1.21v-.63a1.24,1.24,0,0,1,1.21-1.27h.2a1.24,1.24,0,0,1,1.23,1.24v.63a1.23,1.23,0,0,1-1.22,1.24Z"/>
        <path class="cls-68" d="M635.29,476.12h0a1.21,1.21,0,0,1-1.24-1.18v-.62a1.23,1.23,0,0,1,1.23-1.23h.08a1.22,1.22,0,0,1,1.24,1.22v.09l-.06.62A1.22,1.22,0,0,1,635.29,476.12Z"/>
        <circle class="cls-37" cx="631.44" cy="489.08" r="5.82"/>
        <circle class="cls-69" cx="630.01" cy="487.65" r="5.82"/>
        <circle class="cls-46" cx="630.25" cy="488.02" r="5.61"/>
        <polygon class="cls-46" points="617.24 494.99 611.09 494.99 610.45 449.11 617.56 449.11 617.24 494.99"/>
        <polygon class="cls-70" points="610.45 494.37 611.09 494.99 610.45 449.11 609.28 448.65 610.45 494.37"/>
        <polygon class="cls-70" points="610.45 494.37 611.09 494.99 611.8 502.11 610.96 502.11 610.45 494.37"/>
        <polygon class="cls-71" points="617.24 494.99 611.09 494.99 610.96 502.11 617.44 502.06 617.24 494.99"/>
        <polygon class="cls-72" points="618.06 440.57 611.09 440.59 610.45 449.11 617.56 449.11 618.06 440.57"/>
        <polygon class="cls-70" points="610 440.59 611.09 440.59 610.45 449.11 609.28 448.65 610 440.59"/>
        <polygon class="cls-37" points="619.75 440.57 641.95 440.51 641.95 501.14 641.41 441.3 619.87 441.22 619.75 440.57"/>
        <polygon class="cls-46" points="619.75 440.57 619.75 437.17 615.55 437.21 620.58 437.16 620.58 440.56 619.75 440.57"/>
        <rect class="cls-73" x="536.63" y="452.65" width="68.27" height="37.96" rx="2.25"/>
        <polygon class="cls-64" points="598.79 485.96 540.64 486.37 540.99 456.38 599.45 455.77 598.79 485.96"/>
        <polygon class="cls-65" points="571.65 460.73 540.64 486.37 540.99 456.38 599.45 455.77 571.65 460.73"/>
        <polygon class="cls-65" points="599.45 485.96 543.88 486.35 594.27 482.41 599.42 457.06 599.45 485.96"/>
        <path class="cls-74" d="M1102.51,517.94l-183.94.32a3.22,3.22,0,0,1-2.79-1.64l-9.46-17.08a3.18,3.18,0,0,1,2.75-4.72l171.47-1.46a3.23,3.23,0,0,1,2.06.74l21.94,18.21a3.18,3.18,0,0,1-2,5.63Z"/>
        <polyline class="cls-75" points="914.38 481.26 1070.58 481.38 1098.36 501.71 923.8 501.61"/>
        <polygon class="cls-76" points="1097.94 501.19 1098.79 501.61 923.8 501.61 924.65 501.19 1097.94 501.19"/>
        <polygon class="cls-77" points="923.8 501.61 1098.79 501.61 1097.27 513.95 923.14 513.95 923.8 501.61"/>
        <path class="cls-78" d="M1023.78,505.15c.26,0,.47-.13.47-.29s-.21-.3-.47-.3-.48.13-.48.3S1023.52,505.15,1023.78,505.15Z"/>
        <path class="cls-78" d="M1022.29,505.15c.26,0,.47-.13.47-.29s-.21-.3-.47-.3-.48.13-.48.3S1022,505.15,1022.29,505.15Z"/>
        <path class="cls-78" d="M1032.56,503.33c.26,0,.47-.13.47-.3s-.21-.3-.47-.3-.48.14-.48.3S1032.29,503.33,1032.56,503.33Z"/>
        <path class="cls-78" d="M1031.06,503.33c.26,0,.48-.13.48-.3s-.22-.3-.48-.3-.47.14-.47.3S1030.8,503.33,1031.06,503.33Z"/>
        <path class="cls-78" d="M1034.05,503.33c.26,0,.47-.13.47-.3s-.21-.3-.47-.3-.48.14-.48.3S1033.79,503.33,1034.05,503.33Z"/>
        <path class="cls-76" d="M1075.85,497.56H939.76a1.32,1.32,0,0,1-1.11-.49l-7-11.91c-.29-.48.28-1,1.1-1h127a1.53,1.53,0,0,1,.9.26l16.15,11.91C1077.4,496.81,1076.86,497.56,1075.85,497.56Z"/>
        <path class="cls-78" d="M983.22,505.15c.26,0,.47-.13.47-.29s-.21-.3-.47-.3-.45.13-.45.3S983,505.15,983.22,505.15Z"/>
        <path class="cls-78" d="M981.75,505.15c.24,0,.45-.13.45-.29s-.21-.3-.45-.3-.47.13-.47.3S981.49,505.15,981.75,505.15Z"/>
        <path class="cls-78" d="M992,503.33c.26,0,.47-.13.47-.3s-.21-.3-.47-.3-.48.14-.48.3S991.74,503.33,992,503.33Z"/>
        <path class="cls-78" d="M990.51,503.33c.26,0,.47-.13.47-.3s-.21-.3-.47-.3-.48.14-.48.3S990.25,503.33,990.51,503.33Z"/>
        <path class="cls-78" d="M993.51,503.33c.26,0,.45-.13.45-.3s-.19-.3-.45-.3-.47.14-.47.3S993.25,503.33,993.51,503.33Z"/>
        <rect class="cls-79" x="923.8" y="501.61" width="174.56" height="5.1"/>
        <path class="cls-80" d="M992.84,503a5,5,0,0,1,5.24,4.75v.06c0,2.57-3.77,4.73-6.86,4.73s-5.58-2.08-5.58-4.64,4.11-4.9,7.2-4.9Z"/>
        <path class="cls-81" d="M993.43,512c-3.09,0-5.58-2.07-5.58-4.64s2.49-4.64,5.58-4.64,5.61,2.08,5.61,4.64S996.52,512,993.43,512Z"/>
        <path class="cls-82" d="M993.43,511.26c-2.57,0-4.66-1.75-4.66-3.89s2.09-3.89,4.66-3.89,4.69,1.75,4.69,3.89S996,511.26,993.43,511.26Z"/>
        <path class="cls-76" d="M993.43,510.64c-2.17,0-3.92-1.47-3.92-3.27s1.75-3.26,3.92-3.26,3.93,1.46,3.93,3.26S995.6,510.64,993.43,510.64Z"/>
        <path class="cls-83" d="M990.75,504.74c2.36.34,4.61,3.7,5.77,4.79a.17.17,0,0,1,0,.24l0,0-1.14.75a.23.23,0,0,1-.31,0c-1.21-1.18-4.07-3.69-4.28-5.78Z"/>
        <path class="cls-78" d="M1033.23,503.46c.26,0,.47-.13.47-.29s-.21-.3-.47-.3-.47.13-.47.3S1033,503.46,1033.23,503.46Z"/>
        <path class="cls-78" d="M1031.74,503.46c.26,0,.47-.13.47-.29s-.21-.3-.47-.3-.47.13-.47.3S1031.48,503.46,1031.74,503.46Z"/>
        <path class="cls-78" d="M1034.75,503.46c.26,0,.44-.13.44-.29s-.18-.3-.44-.3-.48.13-.48.3S1034.49,503.46,1034.75,503.46Z"/>
        <path class="cls-80" d="M1034.07,503.16a5,5,0,0,1,5.24,4.75V508c0,2.56-3.76,4.72-6.85,4.72s-5.59-2.07-5.59-4.64,4.11-4.89,7.2-4.89Z"/>
        <path class="cls-81" d="M1034.67,512.15c-3.09,0-5.59-2.08-5.59-4.64s2.5-4.64,5.59-4.64,5.6,2.07,5.6,4.64S1037.76,512.15,1034.67,512.15Z"/>
        <path class="cls-82" d="M1034.67,511.4c-2.58,0-4.67-1.75-4.67-3.89s2.09-3.9,4.67-3.9,4.68,1.76,4.68,3.9S1037.26,511.4,1034.67,511.4Z"/>
        <path class="cls-76" d="M1034.67,510.77c-2.17,0-3.93-1.46-3.93-3.26s1.76-3.27,3.93-3.27,3.92,1.47,3.92,3.27S1036.84,510.77,1034.67,510.77Z"/>
        <path class="cls-83" d="M1032,504.87c2.35.34,4.6,3.71,5.77,4.8a.17.17,0,0,1,0,.24l0,0-1.15.75a.26.26,0,0,1-.31,0c-1.2-1.17-4.07-3.69-4.27-5.78Z"/>
        <polygon class="cls-84" points="923.8 501.61 923.14 513.95 914.01 497.01 914.38 481.26 923.8 501.61"/>
        <path class="cls-83" d="M997,497.61l-47.85-.05a.92.92,0,0,1-.81-.36l-7.22-12.3c-.21-.36.21-.74.82-.74h40.27a4.71,4.71,0,0,1,3.16,1.06l12.35,11.53C998.13,497.12,997.71,497.61,997,497.61Z"/>
        <path class="cls-76" d="M989.54,495.51l-36.86.07a1.13,1.13,0,0,1-1-.41l-5-8.58c-.25-.41.24-.86,1-.86H979a3.87,3.87,0,0,1,2.61.87l8.69,7.91C990.83,494.93,990.35,495.51,989.54,495.51Z"/>
        <path class="cls-83" d="M1063.37,497.61h-47.24a3,3,0,0,1-2.06-.71l-12-11.74c-.54-.53.06-1.23,1.06-1.23h44.15a7.13,7.13,0,0,1,4.6,1.49l12.49,10.93C1065,496.87,1064.4,497.61,1063.37,497.61Z"/>
        <path class="cls-76" d="M1056.1,495.29l-36.32.06a4.3,4.3,0,0,1-2.89-1l-8.53-8c-.31-.29,0-.68.57-.69l35.43-.2a5.55,5.55,0,0,1,3.65,1.19l8.66,7.89C1057,494.89,1056.66,495.28,1056.1,495.29Z"/>
        <path class="cls-84" d="M1032.47,493.42c8.42,0,15.3-1.12,15.3-2.49s-6.88-2.49-15.3-2.49-15.31,1.12-15.31,2.49S1024,493.42,1032.47,493.42Z"/>
        <path class="cls-75" d="M1032.47,488.44a63.6,63.6,0,0,0-12.24,1c-3.52,1.13,4.12,3.91,13.62,3.44,10.82-.53,13.67-2,10.71-3.47a64.49,64.49,0,0,0-12.09-1Z"/>
        <path class="cls-85" d="M1032.71,490c-3.67,0-6.64.54-6.64,1.21s2.75,1.05,6.41,1.05,6.85-.38,6.85-1.05S1036.33,490,1032.71,490Z"/>
        <path class="cls-86" d="M1032.58,489.21c-3.13,0-5.81.27-6.75.76a.63.63,0,0,0-.35.48c0,.69,3.18,1.25,7.1,1.25s7.1-.56,7.1-1.25c0-.15-.13-.36-.44-.51A21.4,21.4,0,0,0,1032.58,489.21Z"/>
        <path class="cls-84" d="M968.59,493.35c8.43,0,15.3-1.12,15.3-2.49s-6.87-2.49-15.3-2.49-15.3,1.12-15.3,2.49S960.16,493.35,968.59,493.35Z"/>
        <path class="cls-75" d="M968.59,488.37a64.31,64.31,0,0,0-12.23,1c-3.53,1.14,4.11,3.92,13.61,3.45,10.82-.53,13.67-2,10.71-3.47a63.66,63.66,0,0,0-12.09-1Z"/>
        <path class="cls-85" d="M968.83,489.92c-3.66,0-6.64.55-6.64,1.22s2.75,1.05,6.41,1.05,6.85-.39,6.85-1.05-3-1.22-6.62-1.22Z"/>
        <path class="cls-86" d="M968.7,489.14c-3.13,0-5.8.27-6.75.76a.64.64,0,0,0-.35.48c0,.68,3.18,1.25,7.1,1.25s7.11-.57,7.11-1.25a.64.64,0,0,0-.44-.51A21.43,21.43,0,0,0,968.7,489.14Z"/>
        <path class="cls-87" d="M1048.51,489.56c0,.63-1.33,1.21-3.54,1.67-.89.18-1.93.34-3.08.48a84.61,84.61,0,0,1-18,0c-1.14-.14-2.18-.3-3.07-.48-2.21-.46-3.54-1-3.54-1.67,0-1.45,7-2.63,15.62-2.63S1048.51,488.11,1048.51,489.56Z"/>
        <path class="cls-88" d="M1009.65,486.65h0V484l44-.3v2.92c0,2.31-8.4,3.17-19.05,3.17h-8.31C1016.14,489.82,1009.65,488.76,1009.65,486.65Z"/>
        <g class="cls-89">
          <g>
            <rect class="cls-90" x="1011.34" y="482.02" width="28.14" height="11.11"/>
            <rect class="cls-91" x="1014.5" y="482.02" width="10.81" height="11.11"/>
            <rect class="cls-37" x="1045.6" y="482.02" width="10.81" height="11.11"/>
          </g>
        </g>
        <path class="cls-92" d="M1005.24,463.37l3.35,20.39a2.39,2.39,0,0,0,.5,1.11h0c1.22,1.56,5.06,2.67,19.18,2.67h6.45c10.56,0,16.4-.9,18.79-2.24a2.3,2.3,0,0,0,1.21-1.66l3.53-21.14Z"/>
        <g class="cls-93">
          <path class="cls-38" d="M1051.52,463.33l-5.76,27.48c10.56,0,5.36-4.17,7.75-5.51a2.3,2.3,0,0,0,1.21-1.66l4.36-21.24S1053.38,462.08,1051.52,463.33Z"/>
        </g>
        <path class="cls-94" d="M1038.18,449.58c0-1.37-2.34-2.94-6.44-2.94s-6.43,1.57-6.43,2.94Z"/>
        <path class="cls-95" d="M1038.18,449.58a63.81,63.81,0,0,0-6.63-.29,52,52,0,0,0-6.24.29Z"/>
        <path class="cls-96" d="M1025.31,449.58a5.61,5.61,0,0,1,2.11,4.36c0,2.16,8.71,1.81,8.71,0a6.53,6.53,0,0,1,2-4.36Z"/>
        <path class="cls-42" d="M1058.25,459.68l-2.2-1.52a23.27,23.27,0,0,0-10.61-4h0c-1.73-.34-3.77-.62-11.87-.67h-6.47c-10.66.33-14.33,1.89-20.37,5.51l-1.49.9Z"/>
        <g class="cls-97">
          <g>
            <path class="cls-90" d="M1007.46,459.91c17.68-1,40.56-1.2,46.18-6.41,7.27-6.75-41.34-5.84-41.34-5.84s-16.6,10-16.64,10.86S1007.46,459.91,1007.46,459.91Z"/>
            <path class="cls-90" d="M1012.71,471.81c-1.85-2.92-10.7-14.13,24.94-18.25,10.31-1.19-25.35-5.9-25.35-5.9s-16.6,10-16.64,10.86S1012.71,471.81,1012.71,471.81Z"/>
            <ellipse class="cls-91" cx="1023.62" cy="460.41" rx="15.54" ry="5.94"/>
            <path class="cls-38" d="M1023.26,453.5c15.45.06,26.72.5,30.38,9.08s14-9.73,14-10.08-32.09-4.28-32.09-4.28Z"/>
          </g>
        </g>
        <path class="cls-88" d="M1067.66,463.33h-9.55l-1,5.63h.63a6.39,6.39,0,0,1,3.17-2.81c1.92-.55,6.72-.42,6.72-.42Z"/>
        <path class="cls-88" d="M995.66,463.33h9.56l1,5.63h-.62a6.39,6.39,0,0,0-3.17-2.81c-1.92-.55-6.73-.42-6.73-.42Z"/>
        <rect class="cls-98" x="995.66" y="463.33" width="10.64" height="0.45"/>
        <rect class="cls-98" x="1057.02" y="463.33" width="10.64" height="0.45"/>
        <rect class="cls-92" x="1004.92" y="461.22" width="53.72" height="2.56"/>
        <rect class="cls-90" x="1007.87" y="461.22" width="32.43" height="2.56"/>
        <polygon class="cls-38" points="1058.63 463.78 1051.06 463.78 1051.01 461.22 1058.63 461.22 1058.63 463.78"/>
        <polygon class="cls-38" points="1057.69 465.75 1005.41 464.47 1005.29 463.78 1058.03 463.78 1057.69 465.75"/>
        <polygon class="cls-94" points="1059.08 459.59 1004.66 459.59 1004.73 461.22 1059.02 461.22 1059.08 459.59"/>
        <polygon class="cls-38" points="1059.08 459.59 1052.24 459.59 1052.25 461.22 1059.02 461.22 1059.08 459.59"/>
        <polygon class="cls-91" points="1035.36 459.59 1008.87 459.59 1008.9 461.22 1035.33 461.22 1035.36 459.59"/>
        <polygon class="cls-95" points="1058.25 459.68 1008.41 458.03 1005.77 459.59 1058.25 459.68 1058.25 459.68"/>
        <polygon class="cls-91" points="1024.09 459.59 1014.98 459.59 1014.99 461.22 1024.08 461.22 1024.09 459.59"/>
        <polygon class="cls-88" points="1004.73 461.22 1058.63 461.22 1058.63 461.64 1004.73 461.22"/>
        <g class="cls-99">
          <path class="cls-92" d="M1007,465.31s3.1,17.73,4.39,18.71,15.59,2.22,20.53,1.84"/>
          <path class="cls-100" d="M1007,465.3c.65,3.27,1.33,6.53,2.07,9.77.36,1.63.74,3.25,1.17,4.85.21.8.44,1.6.69,2.38a10.67,10.67,0,0,0,.44,1.11c0,.09.09.15.13.23s0,.07.12.1a2.22,2.22,0,0,0,.49.18,36.28,36.28,0,0,0,4.86.72l5,.47c3.3.31,6.61.61,9.94.7v.1a55.67,55.67,0,0,1-10,.16c-1.67-.11-3.33-.26-5-.49a35.22,35.22,0,0,1-5-.93,3.14,3.14,0,0,1-.68-.28c-.1,0-.25-.22-.32-.32a1.66,1.66,0,0,1-.17-.32,10.43,10.43,0,0,1-.44-1.22c-.24-.81-.45-1.62-.64-2.44-.38-1.63-.71-3.26-1-4.9-.62-3.28-1.18-6.56-1.7-9.85Z"/>
        </g>
        <path class="cls-87" d="M981.26,489.63c0,.63-1.33,1.21-3.54,1.67-.89.18-1.93.34-3.07.48a84.62,84.62,0,0,1-18,0c-1.15-.14-2.19-.3-3.08-.48-2.21-.46-3.54-1-3.54-1.67,0-1.46,7-2.63,15.63-2.63S981.26,488.17,981.26,489.63Z"/>
        <path class="cls-101" d="M976.51,487.49a3.91,3.91,0,0,1-1.3,1.35c-1.19.51-1.54,1.54-5.75,1.56h-3.91c-3.17,0-6.06-.26-6.79-1.8a24.71,24.71,0,0,0-1.11-2.85c-.49-.61,1.85.17,1.67,1.2-.12.67.74,1.75,1.62,1.36s-2-2.27-.7-3.5,3.47-.77,2.6-.46.11,2.21,1.53,2.25c1.26,0,2.51-.85,2-3.73,0-.08.1-.1.13-.1a3.82,3.82,0,0,1,2.66,3.08v.39a.81.81,0,0,0,0,.22c.27,2.06,4.43-.5,5.5-.65.51-.07.37.21.16.55h0c-.17.26-.38.55-.36.74s.06.15.2.18a6.47,6.47,0,0,0,2-.35h0C976.82,486.9,976.71,487.16,976.51,487.49Z"/>
        <path class="cls-102" d="M971,488.84c.23-.79.36.74.27.79a3.91,3.91,0,0,1-2,.77,23.84,23.84,0,0,1-6.47-.53,1.33,1.33,0,0,1-.6-.28.59.59,0,0,1-.1-.71c.33-.56.75,0,1.08-.24a2.93,2.93,0,0,0,0-1.18c.09.35,1.62.94,2,1a.55.55,0,0,0,.07-.31,2.57,2.57,0,0,1,.4-1c.23-.31,1-.51.9-.24a1.75,1.75,0,0,0,1,2.28h0c.4.21,1.09-.18,1.37-.58s1.36-.58,1.57-.68c.7-.33-1.13.75-.74,1.26a.72.72,0,0,0,1,.06A.76.76,0,0,0,971,488.84Z"/>
        <path class="cls-102" d="M976.51,487.49l-.08-.13a11.38,11.38,0,0,1-1.31.1,5,5,0,0,1-1.87-.27c-.18-.1-.19-.2-.16-.3a7.73,7.73,0,0,1-1.71.4,9.64,9.64,0,0,1-2.4,0,2.64,2.64,0,0,1-1.27-.46.79.79,0,0,1-.29-.6,4.57,4.57,0,0,1,0-.74,2.48,2.48,0,0,0-1-2.64c.05-.07.1-.1.13-.1a3.82,3.82,0,0,1,2.66,3.08,1.18,1.18,0,0,0,0,.59h0c.27,2.06,4.43-.5,5.5-.65.51-.07.37.21.16.55h0a1,1,0,0,0-.46.64s0,.07.1.1.06.15.2.18a6.47,6.47,0,0,0,2-.35h0C976.82,486.9,976.71,487.16,976.51,487.49Z"/>
        <path class="cls-103" d="M952.5,489.63h0a.5.5,0,0,1-.52-.48h0v-1.87a.5.5,0,0,1,.52-.48h0a.51.51,0,0,1,.53.48v1.87A.51.51,0,0,1,952.5,489.63Z"/>
        <path class="cls-103" d="M978.77,489.63h0a.51.51,0,0,1-.53-.48v-1.87a.51.51,0,0,1,.53-.48h0a.5.5,0,0,1,.52.48h0v1.87a.5.5,0,0,1-.52.48Z"/>
        <path class="cls-103" d="M965.81,491.52h0a.51.51,0,0,1-.53-.48v-2.35a.51.51,0,0,1,.53-.48h0a.5.5,0,0,1,.52.48h0V491a.5.5,0,0,1-.48.52Z"/>
        <path class="cls-103" d="M988.26,469.83l3.1-.8.57-.12c.29,0,.44.66.16.93a5.81,5.81,0,0,1-2.57,1.27H985.7a1.46,1.46,0,0,1-1.15-.53v-.31C985.4,470.3,987.53,470.53,988.26,469.83Z"/>
        <path class="cls-87" d="M988.92,468.84h2.81c.43,0,.64.42.36.69a5.56,5.56,0,0,1-2.57,1.27H985.7a1.46,1.46,0,0,1-1.15-.53C986.24,470.11,987.82,469.89,988.92,468.84Z"/>
        <path class="cls-104" d="M989.23,462.36v18.8c0,3.28-2.53,4.88-5.71,5.38l-.39.06q-4.44.69-8.92,1c-.91.07-1.82.13-2.73.17a114.72,114.72,0,0,1-14-.14c-1.36-.09-2.72-.21-4.07-.36-1-.1-2-.19-3.13-.32-3.88-.47-7.9-1.49-7.9-5.81v-18.8Z"/>
        <path class="cls-105" d="M989.23,462.36v18.8c0,3.28-2.53,4.88-5.71,5.38l-.39.06q-4.44.69-8.92,1l.06-.08a26.75,26.75,0,0,0,5-15.52v-9.66Z"/>
        <path class="cls-106" d="M989.32,462.36c0,.69-2,1.32-5.32,1.81-1.34.2-2.89.37-4.62.52-3.82.33-8.49.53-13.53.53s-9.71-.2-13.53-.53c-1.73-.15-3.28-.32-4.62-.52-3.32-.49-5.31-1.12-5.31-1.81,0-1.58,10.5-2.86,23.46-2.86S989.32,460.78,989.32,462.36Z"/>
        <path class="cls-107" d="M965.85,464.64c-4.86,0-9.52-.18-13.47-.52-1.72-.14-3.26-.32-4.58-.52-3.64-.54-4.54-1.07-4.74-1.25.36-.32,2.14-1,6.87-1.52a167.67,167.67,0,0,1,31.84,0c4.73.54,6.51,1.2,6.87,1.52-.2.18-1.1.71-4.74,1.25-1.32.2-2.86.38-4.57.52C975.37,464.46,970.71,464.64,965.85,464.64Z"/>
        <path class="cls-103" d="M943.21,469.83l-4-.8a4.45,4.45,0,0,0-.73-.12.53.53,0,0,0-.2.93,8.57,8.57,0,0,0,3.31,1.27h4.92a2.13,2.13,0,0,0,1.49-.53v-.31C946.9,470.3,944.15,470.53,943.21,469.83Z"/>
        <path class="cls-87" d="M942.36,468.84h-3.62c-.55,0-.83.42-.46.69a8.27,8.27,0,0,0,3.31,1.27h4.92a2.13,2.13,0,0,0,1.49-.53C945.82,470.11,943.78,469.89,942.36,468.84Z"/>
        <path class="cls-108" d="M952.32,464.69l-2-.19V487c1.09.13,2.16.22,3.13.32,1.35.15,2.71.27,4.07.36V465C955.64,464.94,953.91,464.83,952.32,464.69Z"/>
        <polygon class="cls-109" points="1546.61 299.69 1675.77 279.57 1675.77 773.6 1545.61 701.77 1546.61 299.69"/>
        <polygon class="cls-110" points="1675.77 279.57 1760 279.57 1760 771.87 1675.77 773.6 1675.77 279.57"/>
        <polyline class="cls-111" points="1643.37 570.82 1628.02 571.59 1628.02 426.13 1643.37 427.3"/>
        <polyline class="cls-112" points="1578.62 558.76 1563.27 559.44 1563.27 430.46 1578.62 431.5"/>
        <line class="cls-113" x1="1608.51" y1="288.21" x2="1604.12" y2="732.6"/>
        <polygon class="cls-114" points="1618.69 331.16 1662.82 326.28 1662.82 356.49 1618.69 356.49 1618.69 331.16"/>
        <polygon class="cls-115" points="1554.37 335.63 1594.84 331.97 1594.84 354.6 1554.37 354.6 1554.37 335.63"/>
        <line class="cls-116" x1="801.38" y1="523.41" x2="801.38" y2="650.37"/>
        <line class="cls-117" x1="1550.04" y1="747.56" x2="1700.85" y2="903.06"/>
        <rect class="cls-118" x="364.02" y="99.28" width="1154.98" height="66.78"/>
        <line class="cls-119" y1="198.45" x2="1920" y2="198.45"/>
        <ellipse class="cls-120" cx="381.93" cy="185.21" rx="12.64" ry="12.31"/>
        <line class="cls-121" x1="381.93" y1="164.7" x2="381.93" y2="181.11"/>
        <ellipse class="cls-120" cx="1487.87" cy="185.21" rx="12.64" ry="12.31"/>
        <line class="cls-121" x1="1487.87" y1="164.7" x2="1487.87" y2="181.11"/>
      </g>
    </g>
  </g>
</svg>
