<svg xmlns="http://www.w3.org/2000/svg" viewBox="0 0 188 46"><defs><style>.cls-1{isolation:isolate;}.cls-17,.cls-2,.cls-28{opacity:0.3;}.cls-3{fill:#fff0ca;}.cls-28,.cls-4{fill:#f9e39b;}.cls-14,.cls-19,.cls-4{opacity:0.6;}.cls-5{fill:#fcd486;}.cls-6{fill:#ffe8bb;}.cls-7{fill:#e0ba5c;}.cls-8{fill:#fff2d3;}.cls-9{fill:#fff8e3;}.cls-10{opacity:0.35;}.cls-11{fill:#fcf2cb;}.cls-12{fill:#f9e8bd;}.cls-13{fill:#e6d19a;}.cls-15{fill:#ad945c;}.cls-16{fill:#ead6a1;}.cls-18{fill:#d4bb78;}.cls-19,.cls-26{fill:#e4ce96;}.cls-20{fill:#f7dc9f;}.cls-21{fill:#ffe39c;}.cls-22{fill:#f4db95;}.cls-23{fill:#f4e39a;}.cls-24{fill:#f5e79f;}.cls-24,.cls-25,.cls-27{mix-blend-mode:soft-light;}.cls-25{fill:#fff1b8;fill-rule:evenodd;}.cls-27{fill:#fff9e1;}.cls-28{mix-blend-mode:multiply;}.cls-29{fill:#f4da92;}.cls-30{fill:#f8e9bc;}.cls-31{fill:#f8e6b3;}.cls-32{fill:#fce6b1;}.cls-33{fill:#fef1cf;}.cls-34{opacity:0.9;}.cls-35{fill:#f9e7bb;}.cls-36{fill:#e1ca90;}</style></defs><g class="cls-1"><g id="Layer_1" data-name="Layer 1"><ellipse class="cls-2" cx="145.51" cy="42.82" rx="41" ry="2.5"/><path class="cls-2" d="M73,37.32a62.2,62.2,0,0,0-13.5,1.27A62.13,62.13,0,0,0,46,37.32a71,71,0,0,0-11,.79c-1.9-2.18-8.76-3.79-17-3.79-9.66,0-17.5,2.24-17.5,5s7.84,5,17.5,5a45.13,45.13,0,0,0,13.07-1.68c3.07,1,8.6,1.68,14.93,1.68a61.51,61.51,0,0,0,13.5-1.27A61.57,61.57,0,0,0,73,44.32c9.67,0,17.5-1.57,17.5-3.5S82.68,37.32,73,37.32Z"/><path class="cls-3" d="M38.2,34.62c-.08,2.34.07,4.59-.28,5C33.93,43.82,9.61,47,2.36,36.8c-.19-.27-.38-3-.65-5,2-.05,10.38-1.71,10.38-1.71l21.47,2.18S37.13,34,38.2,34.62Z"/><path class="cls-4" d="M24.74,38.61c.76-2.46,8.82-6.34,8.82-6.34S37.13,34,38.2,34.62c-.08,2.34.07,4.59-.28,5-2.37,2.51-10.11,4.39-18.6,4A7.56,7.56,0,0,0,24.74,38.61Z"/><path class="cls-5" d="M10.25,42.2a15.25,15.25,0,0,1-8-5.32,10.91,10.91,0,0,1-.4-2.7c-.09-.8-.17-1.62-.27-2.36a.11.11,0,0,1,0-.11.12.12,0,0,1,.1,0C3.67,31.61,12,30,12.06,30h0l21.47,2.17h0c.14.07,3.59,1.71,4.65,2.37a.14.14,0,0,1,.07.12c0,.73,0,1.47,0,2.13,0,1.72,0,2.63-.29,2.91-2.14,2.27-9.58,4-16.93,4h0A35.69,35.69,0,0,1,10.25,42.2Zm23.27-9.8L12.09,30.23c-.54.11-8,1.58-10.22,1.7.09.71.17,1.48.25,2.22a18.64,18.64,0,0,0,.35,2.57c3.06,4.28,9.84,6.73,18.62,6.73h0a45.61,45.61,0,0,0,10.47-1.2c3-.73,5.3-1.74,6.26-2.77A8.13,8.13,0,0,0,38,36.75c0-.63,0-1.34,0-2C37,34.05,33.81,32.54,33.52,32.4Z"/><path class="cls-6" d="M37.66,33.12c-.49-.83.13-1.15-.88-2a16.61,16.61,0,0,0-5.24-3.6,39.47,39.47,0,0,1-4.72-1.92c-.52-.25-2.21-.21-3.65-.63-.92-.26-2.16.33-3.53.08a24.85,24.85,0,0,0-9.83.75c-1.5.37-2,1-3.23,1.48-1.66.68-3.63,1.16-4.2,2s.7,1.2-.1,1.75a1,1,0,0,0-.36,1.57c.46.6,1.79,1.63,2.16,2,2.83,3,10.24,5.53,19.65,5,5.16-.4,8.5-.54,11.81-2.61.76-.46,1.25-.29,2.12-.77C38.78,35.57,38.28,34.15,37.66,33.12Z"/><path class="cls-7" d="M10.52,38.16A15.61,15.61,0,0,1,4,34.59c-.13-.14-.4-.38-.72-.65a12.12,12.12,0,0,1-1.44-1.37,1,1,0,0,1-.23-.8,1.35,1.35,0,0,1,.6-.84c.37-.25.27-.42.11-.68a.84.84,0,0,1,0-1.05c.42-.62,1.6-1.05,2.84-1.5.46-.16.92-.33,1.37-.51a9.71,9.71,0,0,0,1.21-.62,7.18,7.18,0,0,1,2-.87,31.18,31.18,0,0,1,7.14-1,13.8,13.8,0,0,1,2.7.23,4.23,4.23,0,0,0,.73.06,8.27,8.27,0,0,0,1.24-.12,7.27,7.27,0,0,1,1-.09,1.93,1.93,0,0,1,.57.07,14.64,14.64,0,0,0,2.29.39,5.42,5.42,0,0,1,1.37.24A26.52,26.52,0,0,0,30.37,27c.34.12.69.24,1.19.44a16,16,0,0,1,5.05,3.43l.2.18a1.51,1.51,0,0,1,.66,1.25,1.54,1.54,0,0,0,.23.8,3.52,3.52,0,0,1,.62,2.35,1.19,1.19,0,0,1-.64.77,3.57,3.57,0,0,1-1.1.39,3.26,3.26,0,0,0-1,.38c-3.13,2-6.25,2.19-11,2.55l-.87.07c-.84,0-1.68.07-2.51.07h0A36.2,36.2,0,0,1,10.52,38.16ZM21.63,25a8.54,8.54,0,0,1-1.26.12,4.27,4.27,0,0,1-.74-.06,13.77,13.77,0,0,0-2.69-.23,31,31,0,0,0-7.12,1,7.47,7.47,0,0,0-2,.86,8.64,8.64,0,0,1-1.22.62c-.44.18-.91.36-1.37.52a6.33,6.33,0,0,0-2.8,1.46.77.77,0,0,0,0,.95c.16.26.3.51-.13.8a1.29,1.29,0,0,0-.57.79.9.9,0,0,0,.22.72,11.81,11.81,0,0,0,1.42,1.36c.32.27.59.51.73.66a15.35,15.35,0,0,0,6.44,3.54,36,36,0,0,0,10.67,1.51h0c.82,0,1.67,0,2.5-.07l.88-.07c4.7-.36,7.81-.6,10.92-2.54a3.2,3.2,0,0,1,1-.39,3.8,3.8,0,0,0,1.08-.38,1.09,1.09,0,0,0,.59-.71,3.34,3.34,0,0,0-.61-2.28,1.64,1.64,0,0,1-.24-.84,1.44,1.44,0,0,0-.63-1.19l-.2-.18a15.83,15.83,0,0,0-5-3.41c-.5-.2-.85-.32-1.19-.44a29.35,29.35,0,0,1-3.54-1.49,5.41,5.41,0,0,0-1.34-.23,14.75,14.75,0,0,1-2.3-.39,1.84,1.84,0,0,0-.55-.07A8.71,8.71,0,0,0,21.63,25Z"/><path class="cls-8" d="M36.37,33.08c-.46-.77.12-1.07-.82-1.9a15.28,15.28,0,0,0-4.84-3.35,39.84,39.84,0,0,1-4.35-1.78c-.48-.23-2-.19-3.36-.57-.85-.24-2,.31-3.25.08a22.84,22.84,0,0,0-9,.73,17.49,17.49,0,0,0-3,1.38c-1.53.63-3.33,1.08-3.86,1.84s.64,1.09-.09,1.59a1,1,0,0,0-.34,1.44c.42.55,1.65,1.48,2,1.84C8,37.1,14.86,39.42,23.52,39c4.76-.35,7.84-.46,10.9-2.35.7-.43,1.15-.27,1.95-.7C37.4,35.36,36.94,34,36.37,33.08Z"/><path class="cls-9" d="M20.79,30.28a21.09,21.09,0,0,0-.9-3,3,3,0,0,0-1.8-1.25,4.85,4.85,0,0,0-3.68,1A16,16,0,0,1,7.48,29.8,2.57,2.57,0,0,0,5.77,31c-.17.69.6,1.15,1.56,1.36a39.28,39.28,0,0,0,6.48.13c1.15-.07,4.93-.6,4.93-.6s-2.77.64-4.18,1-3.53,1-4.41,1.21-1.27,1-.52,1.54,1.69,1.16,4.14,1.19c1.4,0,4.48-.63,7-.47s4.83.92,6.26,1.1c3.16.41,3.19-.42,2.93-1.11s-4.34-3.18-6.39-3.8c1.81.42,8.38,2,9.46,1.93,1.66-.14,1.89-1.07,1.53-1.94s-1.36-1.09-4.91-2.22a15,15,0,0,1-3.3-1.69c-1-.67-.83-2.17-2.82-2.45-.87-.12-1.87-.19-2.27.49A33.65,33.65,0,0,0,20.79,30.28Z"/><g class="cls-10"><path class="cls-11" d="M26,34.69c.32-.59-.84-1.2-.65-1.74s3.45-.66,2.8-1.42c-.28-.34-3.83-.5-6-2.91-.46-.51-.37,1.45-1.4,1.14s-1.45-1.42-2.34-1.36-1.22,1.2-1.56,1.46a15.47,15.47,0,0,0-1.64.87c-.38.35-2.51.24-1.49.57s3.22.28,3.54.78c.19.29-1.41,1.36.18,1.6s5.76.76,6.6.76S25.91,34.88,26,34.69Z"/></g><path class="cls-12" d="M21,30.94c-.34.24-.78-.37-1.36-1.17s-.45-2.56-1.3-2.62-.8,1.89-2.21,2.45a14.22,14.22,0,0,1-3.18.87c-.72.13-2.92.44-2.25.6a17.76,17.76,0,0,0,4.54.4,20.8,20.8,0,0,1,4.41.07c.34.13,1.73.24-.37.8s-2.09.51-3.94,1.06c-2.07.61-2.32.94-2.4,1.33s.24.76,1.26.32A19.08,19.08,0,0,1,20,34.41a13.49,13.49,0,0,1,4.2,1c1.53.53,2.57,1.36,3.76,1,.93-.26-.82-1.52-2.22-2.16s-3.11-1.67-3.18-2,1.1-.15,1.79-.08c3.18.34,5.27.59,6.24.34s1.5-.8.12-.82a26.07,26.07,0,0,1-5.28-1.18,3.8,3.8,0,0,1-2.63-2.4c0-.24-.43-.89-.85-.59a1.2,1.2,0,0,0-.38,1.33A2.27,2.27,0,0,1,21,30.94Z"/><path class="cls-13" d="M23,34.11c-.26,0-.61-.13-1.12-.15a14.72,14.72,0,0,1-1.73-.24c-.37-.08-.88-.37-.57-.6a7,7,0,0,1,.82-.56c.33-.18.23-.6.77-.54a1,1,0,0,1,.77.65,3.8,3.8,0,0,0,.95.61c.27.11.62.25.68.42S23.5,34.09,23,34.11Z"/><g class="cls-14"><path class="cls-15" d="M20.35,33c-.18.14,0,.28.16.27.47,0,.43-.06.47-.17s-.18-.21-.33-.23S20.47,32.88,20.35,33Z"/></g><g class="cls-14"><path class="cls-15" d="M21.72,33.28c-.19.14,0,.28.16.27.48,0,.43-.06.47-.17s-.18-.21-.33-.23S21.84,33.19,21.72,33.28Z"/></g><path class="cls-13" d="M20.27,31.1a1.78,1.78,0,0,1-.7-.72.83.83,0,0,0-.78-.59,1.4,1.4,0,0,0-1,.29,3.05,3.05,0,0,1-1.07.29c-.4.07-1,.28-.82.44a6.55,6.55,0,0,0,2.06.38c1,0,2,.34,2.46.26S20.37,31.17,20.27,31.1Z"/><g class="cls-14"><path class="cls-15" d="M18.38,30.19c-.18.14,0,.28.15.27.47,0,.42-.07.46-.18s-.17-.21-.32-.23S18.5,30.09,18.38,30.19Z"/></g><g class="cls-14"><path class="cls-15" d="M17,30.66c-.24.12,0,.35.16.33.52-.07.45-.17.42-.29S17.14,30.58,17,30.66Z"/></g><path class="cls-16" d="M24.42,31.72c.48-.08,1-.17.79-.44s-.74-.07-1.15-.39-.24-.56-.65-.64-.82,0-.9.29a.89.89,0,0,1-.45.53c-.2.1-.53.32-.32.47s.49.19,1.14.15S23.93,31.79,24.42,31.72Z"/><g class="cls-14"><path class="cls-15" d="M22.76,31c-.18.14,0,.28.16.28.48,0,.43-.07.47-.18s-.18-.21-.33-.23S22.88,30.92,22.76,31Z"/></g><g class="cls-17"><path class="cls-18" d="M24.13,32.13c0,.09-.79.33-.8.7,0,.19-.72-.54-1.38-.78a2.41,2.41,0,0,0-1.52,0c-.43.14-1.32.49-1.18.25s-1.05-.82-.74-.85,1.7.27,2.06.07-.1-.68-.4-1c0,0,.39.09.7.1s.57-.12.56,0-.21.69.11,1C22.24,32.09,24.16,32,24.13,32.13Z"/></g><path class="cls-19" d="M21.47,31.64c.46.24,2.41,1,2.41,1s-2-.71-2.45-.8a21.16,21.16,0,0,0-3.1.13,11.45,11.45,0,0,0,2.51-.44c.17-.23-.09-1.45-.09-1.45S21,31.41,21.47,31.64Z"/><polygon class="cls-20" points="29.7 38.93 30.08 42.73 28.52 43.09 28.19 39.12 29.7 38.93"/><polygon class="cls-21" points="10.02 37.98 10.3 41.95 8.65 41.37 8.4 37.34 10.02 37.98"/><path class="cls-22" d="M31.47,40.76h.32l.37,0c.14,0,.3,0,.47,0l.56-.09.61-.13c.22,0,.43-.11.65-.18l.33-.11.33-.12.33-.13.31-.14.16-.07.15-.08.3-.16a5.34,5.34,0,0,0,.53-.33l.25-.16.21-.17.2-.16.16-.16.15-.13.11-.13c.14-.15.21-.24.21-.24l-.25.2-.13.11-.16.11-.17.13-.21.14-.23.14-.24.15-.27.14-.28.15-.29.14-.31.14-.31.13-.32.12a1.75,1.75,0,0,1-.32.12l-.32.12c-.21.06-.42.14-.63.19s-.41.12-.6.17l-.28.07-.26.06-.46.1-.36.07Z"/><path class="cls-22" d="M29.4,39.72l.07,0,.19,0a5.06,5.06,0,0,0,.72,0l.47,0,.53-.07.56-.1.57-.14.57-.16.53-.19a3.14,3.14,0,0,0,.49-.21l.43-.21.18-.11.16-.11a3.11,3.11,0,0,0,.25-.2l.14-.14,0-.06-.06,0-.16.12-.26.15-.36.16L34,38.7l-.5.17L33,39l-.56.15-.56.14-.54.12-.52.11-.46.08L30,39.7l-.3,0H29.4Z"/><path class="cls-23" d="M2,33.82l0,.06a.68.68,0,0,0,.07.17c0,.06.07.15.13.25s.12.2.2.31l.12.17.14.18c.09.12.2.24.31.37l.18.18.09.1.1.09.19.18.2.18c.14.12.29.22.43.33a1.37,1.37,0,0,0,.21.15l.22.14.43.24.2.1.2.07.18.07.17.05.15,0,.13,0,.25,0-.24-.09-.12,0-.13-.06L5.7,37,5.54,37l-.19-.1-.18-.11c-.13-.07-.26-.17-.4-.26l-.4-.3c-.14-.11-.28-.21-.41-.33l-.2-.17-.19-.17-.37-.35-.34-.34-.29-.31-.23-.27L2.16,34l-.1-.15Z"/><path class="cls-23" d="M3.65,36.85l.14.22a2.22,2.22,0,0,0,.17.24l.25.3.33.33.18.17.2.17.21.17.23.16c.15.11.3.22.46.32s.33.2.49.29l.25.13.24.12a3.67,3.67,0,0,0,.47.2l.23.09.21.06.2.06.18,0a1.18,1.18,0,0,0,.29,0l.26,0-.25-.09-.27-.1L8,39.75l-.19-.08-.19-.08-.21-.11c-.15-.06-.3-.15-.45-.22L6.44,39,6,38.7c-.16-.09-.31-.2-.46-.3l-.44-.31-.4-.31-.35-.28L4,37.24,3.83,37Z"/><path class="cls-22" d="M12.31,39.85l.15.08.17.1.25.11.31.13a3.35,3.35,0,0,0,.38.14c.26.1.57.2.91.3l.53.14c.18,0,.37.09.57.12.39.09.81.16,1.25.22s.88.11,1.34.15.93.06,1.4.07.93,0,1.39,0,.92,0,1.35-.07.86-.08,1.26-.14.77-.12,1.12-.19.65-.14.93-.21l.71-.2.45-.16.15,0-.16,0-.46.12-.71.15-.94.16-.54.07-.57.07-1.25.1-1.34,0H19.57c-.92,0-1.85-.09-2.71-.19-.43-.06-.85-.11-1.24-.18s-.76-.14-1.1-.21L14,40.44l-.43-.12-.38-.12-.32-.11L12.65,40l-.19-.08Z"/><path class="cls-22" d="M10,40.39l.14.09.16.11.23.14.28.15L11,41l.18.09.19.09.2.09.45.18.5.17.54.17c.37.11.77.21,1.18.29s.85.17,1.29.23.89.12,1.33.15.9.06,1.35.08.88,0,1.3,0,.83,0,1.21,0l1.09-.11.48-.07.43-.07.7-.13.44-.11.16,0-.16,0-.45.07-.7.08-.92.08q-.49,0-1.08.06c-.38,0-.79,0-1.2,0-.84,0-1.73,0-2.62-.11a25.93,25.93,0,0,1-2.6-.34c-.41-.08-.8-.16-1.18-.26l-.54-.14-.49-.15-.46-.15L11.39,41,11.2,41,11,40.89l-.16-.07-.3-.14-.23-.12-.17-.09Z"/><path class="cls-24" d="M13.84,40.65c-3.78-1.16-9.66-3.84-11.19-6.39,0,.62.1,1.31.18,2.33C4,38.22,8.42,41,13.84,40.65Z"/><path class="cls-25" d="M20.91,26.66c-.84-.48-4.49-.79-7.57-.06-2.93.69-7.75,1.74-8.12,4.21s2,4,4.46,5.17A24,24,0,0,0,20,37.83c.2,0-6.89-1.41-8.11-4.59C10.7,30.22,13,26.5,20.91,26.66Z"/><path class="cls-5" d="M2.18,30.87c.28-.19.24-.31.17-.46l-.08-.13-.09-.17a.86.86,0,0,1,.07-.95c.44-.64,1.63-1.07,2.88-1.52.46-.17.93-.34,1.38-.52a9.39,9.39,0,0,0,1.19-.61,7.3,7.3,0,0,1,2.06-.88c2.25-.56,6.52-1.39,9.9-.74a5.85,5.85,0,0,0,1.92-.06,4.08,4.08,0,0,1,1.63,0,13.92,13.92,0,0,0,2.26.39,5.46,5.46,0,0,1,1.42.25,26.89,26.89,0,0,0,3.49,1.47c.35.12.71.25,1.22.45a16.46,16.46,0,0,1,5.14,3.49l.15.14a2.64,2.64,0,0,1,.49.56,1.49,1.49,0,0,1,.2.73,1.53,1.53,0,0,0,.21.78h0c.43.72,1.29,2.46,0,3.19a4.42,4.42,0,0,1-1.13.4,2.87,2.87,0,0,0-1,.36c-3.15,2-6.28,2.21-11,2.57l-.88.07a39.1,39.1,0,0,1-12.36-1.15A16.57,16.57,0,0,1,4,34.64c-.13-.15-.41-.38-.72-.66A10.77,10.77,0,0,1,1.8,32.6a1.43,1.43,0,0,1-.15-.22A1.2,1.2,0,0,1,2.18,30.87Zm35.34,2.29a1.66,1.66,0,0,1-.24-.87,1.31,1.31,0,0,0-.17-.64,2.15,2.15,0,0,0-.44-.51L36.52,31a15.86,15.86,0,0,0-5-3.43c-.5-.21-.86-.33-1.2-.44a30.23,30.23,0,0,1-3.53-1.49,5.51,5.51,0,0,0-1.3-.22A15,15,0,0,1,23.13,25a3.55,3.55,0,0,0-1.48,0,6.54,6.54,0,0,1-2,.05,24.59,24.59,0,0,0-9.75.74,7.39,7.39,0,0,0-2,.85,9.36,9.36,0,0,1-1.23.63c-.45.19-.93.36-1.39.52a6.48,6.48,0,0,0-2.75,1.43.69.69,0,0,0,0,.89c0,.05,0,.1.08.14.11.21.16.47-.24.74a1,1,0,0,0-.46,1.23l.12.19a12.27,12.27,0,0,0,1.4,1.33,8.59,8.59,0,0,1,.75.68,16.25,16.25,0,0,0,7.28,3.8,38.92,38.92,0,0,0,12.24,1.15l.87-.07c4.69-.36,7.78-.59,10.87-2.52a3,3,0,0,1,1.07-.4,3.69,3.69,0,0,0,1-.37c1.17-.63.36-2.25,0-2.91Z"/><path class="cls-3" d="M62.68,34.13c-.3,2.53-.35,5-.74,5.34-4.49,4.25-29.74,5.57-36.24-6-.17-.31-.12-3.29-.21-5.46,2.05.11,10.8-1,10.8-1l21.84,4.19S61.64,33.32,62.68,34.13Z"/><path class="cls-4" d="M48.5,37.3c1-2.6,9.63-6.11,9.63-6.11s3.51,2.13,4.55,2.94c-.3,2.53-.35,5-.74,5.34-2.66,2.52-10.78,3.89-19.45,2.7A8,8,0,0,0,48.5,37.3Z"/><path class="cls-5" d="M35,40.63c-4.53-1.6-7.71-4-9.46-7.13a13.66,13.66,0,0,1-.17-2.95c0-.87,0-1.77-.06-2.57a.15.15,0,0,1,0-.11.14.14,0,0,1,.1,0h.34c2.51,0,10.37-1,10.45-1h0l21.83,4.18.05,0c.14.09,3.53,2.15,4.56,3a.13.13,0,0,1,.05.13c-.09.79-.16,1.59-.22,2.29-.17,1.87-.27,2.85-.56,3.13-1.93,1.82-7.64,3.1-13.89,3.1h0A40.33,40.33,0,0,1,35,40.63Zm23-9.31L36.29,27.14c-.46.06-8,1-10.46,1h-.2c0,.77,0,1.62.06,2.43a18.94,18.94,0,0,0,.13,2.82c4.69,8.38,18.27,9,22.32,9h0c6.18,0,11.81-1.25,13.69-3a9.33,9.33,0,0,0,.47-2.95c.06-.68.13-1.46.22-2.23C61.49,33.4,58.37,31.49,58.08,31.32Z"/><path class="cls-6" d="M62.26,32.45c-.43-.93.24-1.22-.71-2.28a16.82,16.82,0,0,0-5-4.34,42.24,42.24,0,0,1-4.67-2.48c-.51-.32-2.24-.43-3.69-1-.92-.37-2.25.17-3.63-.22-2.79-.8-6.66-.64-10.15,0-1.58.28-2.17.9-3.46,1.32-1.77.6-3.83,1-4.49,1.8s.61,1.35-.26,1.88a1.17,1.17,0,0,0-.52,1.67c.42.69,1.69,1.92,2,2.38,2.63,3.48,10,6.85,19.71,7.07,5.34,0,8.78.14,12.37-1.82.82-.44,1.3-.21,2.24-.65C63.18,35.21,62.8,33.62,62.26,32.45Z"/><path class="cls-7" d="M48.27,38.28h-.9A37.84,37.84,0,0,1,34.85,36c-3.29-1.27-5.86-3-7.22-4.78-.13-.16-.39-.44-.69-.77a13.21,13.21,0,0,1-1.35-1.6,1.23,1.23,0,0,1,.53-1.74c.4-.24.31-.44.18-.73a1,1,0,0,1,.08-1.13c.49-.64,1.74-1,3.06-1.38.48-.14,1-.28,1.45-.44a10.59,10.59,0,0,0,1.29-.56,7.18,7.18,0,0,1,2.17-.77,33,33,0,0,1,5.59-.52,16.89,16.89,0,0,1,4.58.55,4.35,4.35,0,0,0,1.19.15c.29,0,.57,0,.84,0l.71,0a2.54,2.54,0,0,1,.9.14,13.92,13.92,0,0,0,2.31.61,5,5,0,0,1,1.39.39,28.65,28.65,0,0,0,3.48,1.9c.34.16.69.32,1.18.58a16.4,16.4,0,0,1,4.87,4.13l.19.22a1.68,1.68,0,0,1,.56,1.4,1.88,1.88,0,0,0,.16.9,3.85,3.85,0,0,1,.42,2.6,1.31,1.31,0,0,1-.72.76,3.77,3.77,0,0,1-1.16.33,2.91,2.91,0,0,0-1.08.32c-3.12,1.7-6.13,1.83-10.37,1.83H48.27Zm-1.72-16c-.27,0-.55,0-.84,0a4.45,4.45,0,0,1-1.21-.15,16.79,16.79,0,0,0-4.56-.55,32.84,32.84,0,0,0-5.58.52,7.37,7.37,0,0,0-2.14.76,9,9,0,0,1-1.31.57c-.47.16-1,.3-1.45.44-1.3.38-2.54.73-3,1.34a.88.88,0,0,0-.07,1c.14.29.26.57-.21.85a1.13,1.13,0,0,0-.5,1.61A13,13,0,0,0,27,30.35c.3.33.56.61.69.78a16.5,16.5,0,0,0,7.18,4.74,37.75,37.75,0,0,0,12.49,2.32h2c4.22,0,7.22-.13,10.33-1.82a3.09,3.09,0,0,1,1.1-.33A3.83,3.83,0,0,0,62,35.72a1.23,1.23,0,0,0,.67-.71,3.75,3.75,0,0,0-.41-2.54,1.9,1.9,0,0,1-.17-.93,1.59,1.59,0,0,0-.54-1.34L61.32,30a16.21,16.21,0,0,0-4.84-4.11c-.49-.26-.84-.42-1.18-.58a28.41,28.41,0,0,1-3.49-1.91A5.38,5.38,0,0,0,50.45,23a14.28,14.28,0,0,1-2.32-.61,2.36,2.36,0,0,0-.87-.14Z"/><path class="cls-8" d="M60.94,32.3c-.4-.87.22-1.14-.67-2.13a15.69,15.69,0,0,0-4.65-4,38.77,38.77,0,0,1-4.31-2.29c-.47-.3-2.07-.39-3.39-.91-.85-.34-2.07.17-3.35-.19a22.36,22.36,0,0,0-9.33,0A17.91,17.91,0,0,0,32.07,24c-1.62.56-3.51.89-4.12,1.67s.55,1.23-.25,1.71a1.06,1.06,0,0,0-.47,1.53c.38.63,1.55,1.74,1.86,2.16,2.41,3.17,9.19,6.26,18.12,6.49,4.92,0,8.09.17,11.41-1.62.75-.4,1.2-.18,2.07-.58C61.79,34.86,61.44,33.38,60.94,32.3Z"/><path class="cls-9" d="M45.2,28a23.26,23.26,0,0,0-.64-3.31c-.17-.32-.9-1.37-1.74-1.51a4.84,4.84,0,0,0-3.87.8,15.83,15.83,0,0,1-7.36,2.36,2.64,2.64,0,0,0-1.86,1.14c-.24.72.51,1.29,1.48,1.6a37.8,37.8,0,0,0,6.63.69c1.19,0,5.11-.23,5.11-.23s-2.89.45-4.37.73-3.72.78-4.64.93-1.4.94-.67,1.62,1.62,1.41,4.13,1.65c1.44.15,4.65-.3,7.22.08A64.12,64.12,0,0,1,51,36.23c3.2.71,3.31-.18,3.11-1s-4.17-3.81-6.22-4.66c1.82.62,8.42,2.91,9.54,2.9,1.71,0,2-1,1.74-2s-1.3-1.29-4.83-2.81a16.37,16.37,0,0,1-3.23-2.11c-1-.82-.65-2.42-2.68-2.9-.87-.21-1.9-.37-2.37.34A39,39,0,0,0,45.2,28Z"/><path class="cls-11" d="M50.17,33.17c.39-.62-.75-1.38-.51-1.94s3.6-.42,3-1.31c-.25-.38-3.88-.86-5.9-3.65-.42-.59-.5,1.53-1.54,1.11S43.87,25.72,43,25.71s-1.37,1.2-1.74,1.45a14.91,14.91,0,0,0-1.76.8c-.42.34-2.6.05-1.58.49s3.28.58,3.56,1.14c.17.33-1.57,1.36,0,1.76s5.84,1.31,6.71,1.38S50,33.37,50.17,33.17Z"/><path class="cls-12" d="M45.4,28.68c-.37.23-.76-.47-1.29-1.37s-.22-2.82-1.09-2.95-1,2-2.49,2.46a13.83,13.83,0,0,1-3.35.67c-.75.08-3,.22-2.36.46a17,17,0,0,0,4.62.81,21.78,21.78,0,0,1,4.53.45c.33.17,1.75.42-.46.84s-2.19.38-4.15.81c-2.17.48-2.46.82-2.57,1.24s.17.84,1.26.45a18.48,18.48,0,0,1,6-.19,12.76,12.76,0,0,1,4.22,1.38c1.53.7,2.51,1.69,3.77,1.42,1-.2-.7-1.71-2.08-2.52s-3-2.08-3.08-2.42,1.14-.07,1.84.06c3.23.64,5.35,1.1,6.37.91s1.62-.75.21-.88A25,25,0,0,1,50,28.58a4,4,0,0,1-2.47-2.82c0-.27-.36-1-.83-.71a1.36,1.36,0,0,0-.51,1.41A2.55,2.55,0,0,1,45.4,28.68Z"/><path class="cls-16" d="M47.13,32.28c-.27,0-.62-.19-1.15-.26a14.26,14.26,0,0,1-1.75-.4c-.37-.12-.86-.48-.53-.7a6.25,6.25,0,0,1,.9-.53c.36-.18.29-.64.84-.53a1,1,0,0,1,.73.78,4,4,0,0,0,.92.73c.26.15.61.32.66.52S47.64,32.3,47.13,32.28Z"/><g class="cls-14"><path class="cls-15" d="M44.51,30.83c-.2.14,0,.3.14.31.49,0,.44,0,.49-.15s-.16-.24-.31-.28S44.64,30.74,44.51,30.83Z"/></g><g class="cls-14"><path class="cls-15" d="M45.89,31.27c-.21.14,0,.3.13.31.5,0,.45,0,.5-.15s-.16-.24-.31-.28S46,31.18,45.89,31.27Z"/></g><path class="cls-16" d="M44.6,28.79a1.93,1.93,0,0,1-.66-.84.84.84,0,0,0-.74-.7,1.39,1.39,0,0,0-1,.22,3.07,3.07,0,0,1-1.13.24c-.41,0-1.08.21-.88.39a6,6,0,0,0,2.08.59c1,.1,2.06.55,2.5.49S44.69,28.87,44.6,28.79Z"/><g class="cls-14"><path class="cls-15" d="M42.74,27.64c-.2.14,0,.3.13.31.49,0,.44,0,.49-.16s-.15-.24-.31-.27S42.87,27.55,42.74,27.64Z"/></g><g class="cls-14"><path class="cls-15" d="M41.26,28c-.26.11,0,.38.13.37.54,0,.49-.14.46-.27S41.44,28,41.26,28Z"/></g><path class="cls-16" d="M48.8,29.81c.5,0,1.09-.09.85-.4-.11-.14-.75-.14-1.15-.53s-.18-.62-.6-.74-.85,0-1,.24a.9.9,0,0,1-.5.53c-.22.09-.58.3-.37.48s.48.24,1.16.27S48.29,29.85,48.8,29.81Z"/><g class="cls-14"><path class="cls-15" d="M47.17,28.91c-.2.14,0,.3.14.31.49,0,.44,0,.49-.15s-.16-.25-.32-.28S47.3,28.81,47.17,28.91Z"/></g><g class="cls-17"><path class="cls-18" d="M48.47,30.23c0,.1-.85.29-.89.7,0,.2-.69-.65-1.34-1a2.5,2.5,0,0,0-1.55-.18c-.46.12-1.41.43-1.25.18s-1-1-.67-1,1.72.43,2.1.25,0-.75-.32-1.13c0,0,.39.13.71.17s.6-.08.58,0c-.06.25-.28.73,0,1.06C46.53,30,48.51,30.13,48.47,30.23Z"/></g><path class="cls-26" d="M45.78,29.48c.45.29,2.39,1.25,2.39,1.25s-2-.93-2.45-1.07a19,19,0,0,0-3.19-.12,11,11,0,0,0,2.62-.27c.19-.24,0-1.58,0-1.58S45.32,29.19,45.78,29.48Z"/><polygon class="cls-20" points="53.56 38.06 53.6 42.21 51.97 42.47 51.99 38.14 53.56 38.06"/><polygon class="cls-21" points="33.45 35.36 33.37 39.68 31.71 38.93 31.84 34.53 33.45 35.36"/><path class="cls-22" d="M55.21,40.2l.33,0h.38a4.33,4.33,0,0,0,.5,0c.18,0,.37,0,.58,0l.65-.09.69-.14.34-.1.18,0,.17-.06.35-.11.34-.13.33-.13.31-.15a5.21,5.21,0,0,0,.58-.31l.26-.16.24-.16.21-.15.18-.15.16-.14.12-.12.24-.24-.27.2-.14.1-.17.11-.2.13-.22.13-.24.14-.27.13c-.18.1-.38.18-.58.27l-.31.13-.33.13-.33.11-.34.11-.17.06-.17,0-.34.1c-.23,0-.45.12-.67.16L57,40l-.29.05-.28,0-.49.07-.37,0Z"/><path class="cls-22" d="M53.18,38.9l.06,0,.09,0,.12,0,.31.05.42,0h.5l.55,0,.58-.06.6-.1.6-.13.57-.16c.18,0,.35-.12.52-.18a4.68,4.68,0,0,0,.45-.2,4.13,4.13,0,0,0,.37-.2,2.21,2.21,0,0,0,.26-.19l.16-.14,0-.06-.06,0-.18.11-.28.14-.38.15L58,38.2l-.52.14-.56.13-.59.12-.59.1-.57.09-1,.12-.41,0h-.59Z"/><path class="cls-23" d="M25.62,30.18l0,.06a1.37,1.37,0,0,0,.05.19c0,.07.07.17.12.27a3.7,3.7,0,0,0,.17.35l.11.19.12.2a4.65,4.65,0,0,0,.29.43l.16.21a1.84,1.84,0,0,0,.17.22l.18.21.2.21a5,5,0,0,0,.4.4,1.81,1.81,0,0,0,.21.18l.21.18a3.93,3.93,0,0,0,.42.29l.2.13.2.1.18.09.17.07.15.06.14,0,.25.06-.24-.11-.25-.14L29.09,34l-.16-.12-.18-.12-.19-.14-.38-.31-.39-.36-.39-.4-.19-.2-.18-.2-.34-.41c-.11-.14-.22-.26-.31-.39l-.14-.19L26.11,31l-.21-.32-.16-.25Z"/><path class="cls-23" d="M27,33.6l.12.24a2.09,2.09,0,0,0,.16.27l.22.34.3.38L28,35l.18.2.2.2.21.21c.15.12.3.26.46.38s.31.24.47.36l.24.16.24.15a3.67,3.67,0,0,0,.47.26l.22.11.22.1.19.08.19.06.3.09.26.06-.24-.11c-.08,0-.18-.08-.28-.14l-.17-.08L31,37l-.2-.11-.21-.13-.44-.28-.46-.33-.45-.35c-.16-.12-.3-.25-.45-.37s-.29-.25-.42-.38l-.19-.18L28,34.69l-.32-.34-.27-.3-.19-.24Z"/><path class="cls-22" d="M35.62,37.59l.15.09.17.12.24.14.31.17.37.18c.26.13.57.26.9.39l.53.2c.19.06.38.13.58.18.4.13.82.24,1.26.34s.9.2,1.37.28,1,.14,1.43.2l1.43.12.71,0h.69c.45,0,.89,0,1.3,0s.81-.06,1.17-.1.68-.1,1-.15l.75-.16c.2,0,.36-.09.47-.12l.17-.05-.17,0-.48.09-.75.11-1,.09-.56,0H45.76l-1.38-.06c-.47,0-1-.07-1.42-.12s-1-.12-1.42-.19l-1.36-.25c-.43-.1-.86-.19-1.25-.3l-.58-.17-.53-.16-.49-.17-.43-.17L36.52,38l-.31-.15L36,37.77l-.19-.1Z"/><path class="cls-22" d="M33.21,38l.13.11.15.13.22.16a3.15,3.15,0,0,0,.27.19l.16.11.18.11.19.11.2.12.44.23.5.23.54.23c.37.14.76.28,1.18.41s.85.26,1.3.36.9.2,1.36.28.92.14,1.37.2l1.34.12c.44,0,.86,0,1.26,0l1.12,0,.5,0,.45,0,.73-.09.47-.07.16,0-.17,0-.47,0-.72,0h-1L44,40.9c-.39,0-.81,0-1.24-.08-.86-.07-1.78-.18-2.68-.34a23.17,23.17,0,0,1-2.64-.6c-.41-.12-.81-.24-1.18-.38-.19-.06-.37-.13-.54-.2l-.5-.2-.45-.21-.21-.1-.19-.1-.18-.1L34,38.5l-.28-.17-.23-.15-.16-.11Z"/><path class="cls-24" d="M37.12,38.58c-3.78-1.58-9.55-5-10.9-7.87,0,.67,0,1.43,0,2.54C27.2,35.1,31.53,38.45,37.12,38.58Z"/><path class="cls-25" d="M45.66,24c-.82-.59-4.53-1.23-7.76-.71-3.07.5-8.11,1.22-8.72,3.87s1.69,4.53,4.1,6a23.63,23.63,0,0,0,10.4,2.88c.2,0-7-2.12-7.91-5.66C34.85,27,37.6,23.19,45.66,24Z"/><path class="cls-5" d="M26.06,27c.29-.18.27-.32.21-.48a1,1,0,0,0-.07-.15,1.54,1.54,0,0,0-.08-.19,1,1,0,0,1,.17-1c.51-.65,1.76-1,3.09-1.4.48-.14,1-.28,1.46-.44a10.41,10.41,0,0,0,1.28-.56A7.3,7.3,0,0,1,34.31,22c2.36-.42,6.82-1,10.23,0a5.8,5.8,0,0,0,2,.11,3.85,3.85,0,0,1,1.68.12,14.18,14.18,0,0,0,2.27.6,5.42,5.42,0,0,1,1.44.4,28.6,28.6,0,0,0,3.45,1.89c.34.16.7.33,1.21.59a16.47,16.47,0,0,1,5,4.22l.14.16a2.45,2.45,0,0,1,.46.65,1.64,1.64,0,0,1,.13.81,1.81,1.81,0,0,0,.15.86h0c.38.81,1.1,2.77-.34,3.44a4,4,0,0,1-1.2.34,2.89,2.89,0,0,0-1,.31c-3.42,1.86-6.65,1.85-11.55,1.84h-.9a38.36,38.36,0,0,1-12.59-2.29,16.8,16.8,0,0,1-7.25-4.84c-.13-.17-.39-.45-.69-.77a12.12,12.12,0,0,1-1.35-1.62,1.26,1.26,0,0,1-.13-.26A1.33,1.33,0,0,1,26.06,27Zm36.06,5.49a1.84,1.84,0,0,1-.17-1,1.41,1.41,0,0,0-.12-.71,2.46,2.46,0,0,0-.4-.59l-.15-.16a16.34,16.34,0,0,0-4.85-4.14c-.5-.26-.85-.42-1.2-.58a28,28,0,0,1-3.48-1.9,4.93,4.93,0,0,0-1.32-.36,13.83,13.83,0,0,1-2.34-.62,3.68,3.68,0,0,0-1.52-.09,6.1,6.1,0,0,1-2.1-.12,23.89,23.89,0,0,0-10.07,0,7.06,7.06,0,0,0-2.12.75,9.84,9.84,0,0,1-1.32.57c-.48.16-1,.31-1.47.45-1.28.37-2.49.72-2.95,1.31a.8.8,0,0,0-.06,1,1.22,1.22,0,0,1,.07.17c.09.23.13.51-.31.78a1.07,1.07,0,0,0-.58,1.28l.1.22a12.48,12.48,0,0,0,1.32,1.56c.31.33.57.62.71.8a16.33,16.33,0,0,0,7.12,4.73A37.56,37.56,0,0,0,47.36,38.1h.91c4.84,0,8,0,11.38-1.81A3.51,3.51,0,0,1,60.79,36a3.62,3.62,0,0,0,1.11-.31c1.26-.58.57-2.4.22-3.15Z"/><path class="cls-3" d="M90.1,34c-.35,2.56-.45,5-.85,5.41-4.51,4.24-29.37,5.1-35.5-6.82-.16-.32,0-3.35-.08-5.56,2,.16,10.65-.77,10.65-.77L85.7,30.89S89.11,33.13,90.1,34Z"/><path class="cls-4" d="M76.09,36.92c1-2.62,9.61-6,9.61-6s3.41,2.24,4.4,3.08c-.35,2.56-.45,5-.85,5.41-2.67,2.51-10.69,3.75-19.19,2.38A7.93,7.93,0,0,0,76.09,36.92Z"/><path class="cls-5" d="M63.18,40.2c-4.64-1.71-7.85-4.26-9.55-7.58a14.87,14.87,0,0,1-.1-3c0-.89,0-1.8,0-2.62a.16.16,0,0,1,0-.11.12.12,0,0,1,.1,0h.55c2.67,0,10-.78,10.08-.79h0l21.38,4.67,0,0c.13.09,3.42,2.25,4.41,3.09a.11.11,0,0,1,0,.12c-.11.81-.2,1.62-.28,2.33-.2,1.89-.32,2.89-.61,3.16-1.85,1.74-7,2.9-12.87,2.9h0A39.21,39.21,0,0,1,63.18,40.2ZM85.65,31,64.31,26.37c-.45,0-7.47.79-10.08.79h-.42c0,.78,0,1.64,0,2.48a22.23,22.23,0,0,0,.06,2.86c1.67,3.26,4.84,5.77,9.4,7.45a39,39,0,0,0,13.21,2.17c5.78,0,10.88-1.14,12.68-2.83a9.77,9.77,0,0,0,.53-3c.08-.69.16-1.48.27-2.26C89,33.2,85.93,31.21,85.65,31Z"/><path class="cls-6" d="M89.74,32.26c-.41-1,.26-1.25-.66-2.34a16.64,16.64,0,0,0-4.86-4.51,40,40,0,0,1-4.53-2.61c-.5-.33-2.2-.47-3.6-1.07-.9-.4-2.22.12-3.58-.3-2.72-.87-6.53-.78-10-.22-1.55.26-2.15.88-3.43,1.29-1.75.57-3.78.89-4.45,1.74s.56,1.39-.31,1.91a1.18,1.18,0,0,0-.54,1.68c.39.71,1.61,2,1.94,2.46,2.5,3.58,9.68,7.15,19.22,7.56,5.25.11,8.63.3,12.2-1.62.82-.43,1.29-.19,2.22-.61C90.58,35.07,90.24,33.45,89.74,32.26Z"/><path class="cls-3" d="M75.84,37.91H75a36,36,0,0,1-12.26-2.6,16.14,16.14,0,0,1-7-5c-.12-.17-.37-.46-.66-.79a14,14,0,0,1-1.29-1.66,1.27,1.27,0,0,1,.56-1.75c.41-.24.32-.45.2-.75a1,1,0,0,1,.1-1.15c.5-.63,1.73-1,3-1.34.48-.13,1-.26,1.44-.42a9.13,9.13,0,0,0,1.28-.54,6.91,6.91,0,0,1,2.15-.74,32.16,32.16,0,0,1,5-.43,16.6,16.6,0,0,1,5,.65,4.23,4.23,0,0,0,1.3.17l.69,0,.6,0a2.38,2.38,0,0,1,1,.16,13.21,13.21,0,0,0,2.26.67,4.66,4.66,0,0,1,1.36.42,29.1,29.1,0,0,0,3.37,2c.34.16.68.33,1.16.6a16.24,16.24,0,0,1,4.69,4.3l.18.22a1.73,1.73,0,0,1,.52,1.44,1.89,1.89,0,0,0,.14.91c.34.82,1,2.79-.38,3.42a3.82,3.82,0,0,1-1.15.31,2.76,2.76,0,0,0-1.06.3C84.57,37.68,82,38,78.77,38h0C77.85,38,76.88,37.94,75.84,37.91ZM74.52,21.63l-.69,0a4.43,4.43,0,0,1-1.33-.17,16.39,16.39,0,0,0-4.94-.65,31.92,31.92,0,0,0-5,.43,6.79,6.79,0,0,0-2.13.73,8.92,8.92,0,0,1-1.3.55c-.47.15-1,.29-1.43.42-1.3.36-2.52.7-3,1.31a.92.92,0,0,0-.09,1.06c.13.3.24.58-.23.86a1.15,1.15,0,0,0-.53,1.62,13.84,13.84,0,0,0,1.28,1.65,9.79,9.79,0,0,1,.66.8,16.28,16.28,0,0,0,7,5A35.82,35.82,0,0,0,75,37.8l.88,0c1,0,2,0,2.92,0h0c3.24,0,5.78-.28,8.37-1.68a3,3,0,0,1,1.1-.31,3.67,3.67,0,0,0,1.12-.31c1.31-.59.67-2.5.33-3.29a2.06,2.06,0,0,1-.14-1,1.68,1.68,0,0,0-.5-1.38l-.19-.22a15.92,15.92,0,0,0-4.66-4.28c-.48-.27-.82-.44-1.15-.6a27.25,27.25,0,0,1-3.38-2,5.08,5.08,0,0,0-1.33-.4,14,14,0,0,1-2.27-.67,2.29,2.29,0,0,0-.95-.16Z"/><path class="cls-8" d="M88.44,32.08c-.38-.89.24-1.16-.61-2.18a15.57,15.57,0,0,0-4.48-4.19,34.29,34.29,0,0,1-4.18-2.41c-.46-.3-2-.43-3.32-1-.83-.36-2,.13-3.29-.26-2.5-.79-6-.68-9.17-.15a17,17,0,0,0-3.15,1.19c-1.61.54-3.48.84-4.1,1.62s.52,1.26-.28,1.74a1.09,1.09,0,0,0-.5,1.54c.36.65,1.48,1.8,1.78,2.23,2.3,3.27,8.89,6.54,17.67,7,4.84.12,8,.32,11.26-1.43.75-.39,1.19-.17,2.05-.56C89.22,34.69,88.91,33.19,88.44,32.08Z"/><path class="cls-9" d="M73.06,27.36A24.19,24.19,0,0,0,72.51,24c-.16-.34-.85-1.42-1.68-1.57a4.6,4.6,0,0,0-3.82.74,15.6,15.6,0,0,1-7.3,2.26,2.65,2.65,0,0,0-1.86,1.11c-.25.74.47,1.33,1.42,1.66a34.62,34.62,0,0,0,6.51.82c1.17,0,5-.13,5-.13s-2.86.41-4.31.66-3.68.72-4.59.86-1.39.93-.7,1.63,1.57,1.46,4,1.76c1.41.17,4.58-.22,7.1.22a59.39,59.39,0,0,1,6.18,1.87c3.13.79,3.26-.12,3.08-.91s-4-3.95-6-4.86c1.78.66,8.22,3.12,9.32,3.13,1.68,0,2-1,1.76-2-.23-.85-1.25-1.33-4.69-2.95a15.25,15.25,0,0,1-3.13-2.21c-.92-.84-.58-2.47-2.56-3-.86-.23-1.86-.41-2.34.3C73.75,23.72,73.06,27.36,73.06,27.36Z"/><path class="cls-11" d="M77.82,32.76c.4-.62-.7-1.42-.45-2s3.55-.35,3-1.26c-.25-.4-3.8-1-5.72-3.83-.41-.61-.54,1.55-1.55,1.1S71.8,25.07,70.9,25s-1.37,1.19-1.74,1.43-1.34.44-1.76.78-2.56,0-1.56.48,3.21.65,3.48,1.22c.15.34-1.58,1.36,0,1.79s5.71,1.44,6.57,1.53S77.69,33,77.82,32.76Z"/><path class="cls-12" d="M73.24,28.1c-.37.23-.74-.49-1.24-1.42s-.15-2.87-1-3-1,2-2.51,2.46a13.46,13.46,0,0,1-3.3.62c-.74.07-3,.17-2.34.42a16.87,16.87,0,0,0,4.53.92,20,20,0,0,1,4.44.54c.32.18,1.71.45-.47.84s-2.17.34-4.1.74c-2.15.46-2.44.8-2.56,1.22s.15.85,1.23.48a17.7,17.7,0,0,1,5.89-.09,12.43,12.43,0,0,1,4.13,1.49c1.48.74,2.43,1.76,3.67,1.52,1-.19-.65-1.76-2-2.61s-2.94-2.17-3-2.51,1.12-.06,1.81.1c3.16.71,5.23,1.21,6.24,1s1.61-.73.22-.89a24.85,24.85,0,0,1-5.18-1.86,4,4,0,0,1-2.37-2.92c0-.26-.33-1-.8-.73A1.41,1.41,0,0,0,74,25.86,2.62,2.62,0,0,1,73.24,28.1Z"/><path class="cls-13" d="M74.85,31.8c-.26,0-.6-.21-1.11-.29A12.52,12.52,0,0,1,72,31.06c-.36-.12-.84-.5-.5-.71a6.14,6.14,0,0,1,.89-.53c.36-.17.3-.64.84-.51s.62.63.7.8a4.13,4.13,0,0,0,.89.76c.25.15.6.34.63.54S75.36,31.83,74.85,31.8Z"/><g class="cls-14"><path class="cls-15" d="M72.32,30.27c-.21.14,0,.31.12.32.48,0,.44,0,.49-.14s-.15-.25-.3-.29S72.45,30.18,72.32,30.27Z"/></g><g class="cls-14"><path class="cls-15" d="M73.66,30.75c-.21.13,0,.3.12.31.49,0,.44,0,.5-.14s-.15-.24-.31-.29S73.79,30.66,73.66,30.75Z"/></g><path class="cls-13" d="M72.45,28.2a2,2,0,0,1-.63-.86.83.83,0,0,0-.71-.73,1.33,1.33,0,0,0-1,.21A2.82,2.82,0,0,1,69,27c-.41,0-1.08.2-.88.39a5.71,5.71,0,0,0,2,.63c1,.12,2,.6,2.45.55S72.54,28.28,72.45,28.2Z"/><g class="cls-14"><path class="cls-15" d="M70.65,27c-.2.14,0,.3.12.31.48,0,.43,0,.49-.15s-.15-.24-.3-.28S70.78,26.9,70.65,27Z"/></g><g class="cls-14"><path class="cls-15" d="M69.19,27.37c-.26.1,0,.38.12.38.53,0,.47-.14.45-.27S69.36,27.3,69.19,27.37Z"/></g><path class="cls-13" d="M76.56,29.31c.5,0,1.07-.06.84-.39-.1-.14-.73-.15-1.11-.55s-.17-.64-.58-.77-.83,0-.94.23a1,1,0,0,1-.51.52c-.22.09-.58.3-.38.49s.47.25,1.13.29A13.47,13.47,0,0,0,76.56,29.31Z"/><path class="cls-15" d="M75,28.37c-.2.14,0,.3.13.32.48,0,.44,0,.49-.15s-.15-.25-.3-.29S75.1,28.28,75,28.37Z"/><g class="cls-17"><path class="cls-18" d="M76.22,29.74c0,.09-.84.28-.89.69,0,.21-.66-.67-1.3-1a2.29,2.29,0,0,0-1.52-.22c-.45.11-1.39.4-1.22.15s-1-1-.65-1,1.69.47,2.06.29,0-.76-.28-1.16a5,5,0,0,0,.69.19c.33,0,.59-.07.57,0-.07.26-.29.74,0,1.08C74.32,29.5,76.26,29.64,76.22,29.74Z"/></g><path class="cls-19" d="M73.59,28.93c.44.3,2.33,1.31,2.33,1.31s-1.93-1-2.39-1.13a17.77,17.77,0,0,0-3.13-.19A10.49,10.49,0,0,0,73,28.7c.2-.24.08-1.6.08-1.6S73.15,28.62,73.59,28.93Z"/><polygon class="cls-20" points="81.05 37.8 80.99 42.01 79.38 42.24 79.5 37.84 81.05 37.8"/><polygon class="cls-21" points="61.33 34.67 61.15 39.06 59.55 38.23 59.77 33.8 61.33 34.67"/><path class="cls-22" d="M82.62,40l.32,0h.87l.58,0,.32,0,.32,0,.68-.14c.23-.06.47-.11.7-.18l.34-.11.34-.12.32-.14a1.83,1.83,0,0,0,.32-.14,6.06,6.06,0,0,0,.57-.3,2.26,2.26,0,0,0,.26-.16l.23-.16a1.59,1.59,0,0,0,.21-.15l.18-.15.16-.13a.68.68,0,0,0,.12-.12l.23-.23-.26.19-.14.1-.17.11-.19.12-.22.13-.24.14-.27.13c-.17.09-.37.17-.57.26l-.31.13-.32.12-.33.11-.34.11-.68.19-.66.15-.63.12-.29,0-.27,0-.48.06-.38,0Z"/><path class="cls-22" d="M80.65,38.64l.07,0,.08,0,.11,0,.32.06a2.54,2.54,0,0,0,.41,0,3.88,3.88,0,0,0,.49,0l.54,0,.58-.06c.2,0,.39-.05.59-.09a5.6,5.6,0,0,0,.59-.12,4.58,4.58,0,0,0,.56-.15,5.3,5.3,0,0,0,.52-.17l.24-.09L86,38l.37-.2.26-.19a1.08,1.08,0,0,0,.15-.14l.05-.05-.06,0-.17.11a2.51,2.51,0,0,1-.28.13l-.38.15-.45.14-.52.14-.56.12-.57.11-.59.1-.56.08-1,.1h-.72l-.2,0Z"/><path class="cls-23" d="M53.75,29.25a.31.31,0,0,1,0,.07,1.32,1.32,0,0,0,0,.18,1.37,1.37,0,0,0,.1.28,2.14,2.14,0,0,0,.16.35,1.86,1.86,0,0,0,.1.2,2.12,2.12,0,0,0,.11.21c.08.14.18.28.27.43s.1.15.16.22a1.77,1.77,0,0,0,.16.22,9.14,9.14,0,0,0,.74.85l.2.2.21.18c.13.11.27.22.4.31l.2.13.19.11.18.1.17.07a1.06,1.06,0,0,0,.28.1l.25.07-.23-.12-.25-.14-.15-.1-.16-.11a1.09,1.09,0,0,1-.17-.13l-.18-.15-.19-.15-.18-.18c-.13-.11-.25-.24-.38-.37l-.37-.41c-.12-.13-.24-.28-.35-.42s-.23-.28-.33-.42-.21-.27-.29-.4l-.14-.19-.12-.18-.2-.32c-.06-.1-.1-.19-.14-.26S53.75,29.25,53.75,29.25Z"/><path class="cls-23" d="M55,32.75l.11.25a2.41,2.41,0,0,0,.14.28l.22.34a4.14,4.14,0,0,0,.28.39l.16.2.18.21.19.2.21.21.43.4.23.19.23.18.23.17.23.16c.16.1.31.2.46.28l.22.12.21.1.19.09.18.06a1.75,1.75,0,0,0,.3.1l.26.07-.24-.12c-.08,0-.17-.09-.27-.14L59,36.4l-.18-.11L58.45,36l-.21-.15L58,35.74l-.44-.35-.22-.18L57.14,35c-.15-.12-.29-.25-.43-.38s-.28-.26-.4-.39l-.19-.19L56,33.87l-.17-.18-.15-.17-.25-.3L55.2,33Z"/><path class="cls-22" d="M63.42,37l.13.1.17.12.23.15.3.17.36.2c.25.13.55.27.88.41l.51.21c.18.07.37.14.57.2.38.13.8.25,1.23.37s.88.22,1.34.3.93.17,1.4.24.95.11,1.41.14l.7.05.68,0c.44,0,.87,0,1.28,0s.8,0,1.15-.08l1-.13.74-.15c.2,0,.36-.09.47-.12l.16,0-.17,0-.47.08-.74.09-1,.08-.55,0h-.59l-1.28,0L72,39.32c-.46,0-.93-.09-1.39-.16s-.94-.13-1.39-.22-.9-.18-1.33-.28-.84-.21-1.23-.33c-.2,0-.38-.12-.56-.17L65.54,38l-.47-.19-.42-.17-.36-.17L64,37.29l-.24-.13-.18-.1Z"/><path class="cls-22" d="M61,37.32l.12.11.15.13.21.17.26.2.16.11.17.11.18.12.19.12.43.24c.15.09.32.16.48.25l.52.24c.37.15.75.31,1.16.45s.83.27,1.27.38.88.22,1.33.31.91.17,1.35.23.89.11,1.32.15.84.06,1.24.07h1.11l.49,0,.44,0,.72-.07.46-.07.16,0h-.16l-.46,0-.72,0h-.93c-.34,0-.71,0-1.1,0s-.8-.06-1.23-.1-.86-.1-1.3-.17-.89-.14-1.33-.24-.89-.18-1.32-.29-.86-.24-1.26-.36-.8-.27-1.16-.41-.7-.29-1-.44a4.32,4.32,0,0,1-.43-.22l-.2-.1-.19-.11A1,1,0,0,1,62,38l-.16-.09-.28-.18-.22-.15-.16-.12Z"/><path class="cls-24" d="M64.86,38c-3.67-1.68-9.28-5.25-10.53-8.21,0,.68,0,1.46-.09,2.58C55.19,34.29,59.37,37.77,64.86,38Z"/><path class="cls-25" d="M73.6,23.39c-.78-.61-4.43-1.34-7.61-.87-3,.45-8,1.09-8.67,3.77s1.55,4.64,3.89,6.15a22.51,22.51,0,0,0,10.16,3.12c.2,0-6.78-2.28-7.65-5.9C62.9,26.22,65.69,22.38,73.6,23.39Z"/><path class="cls-5" d="M54.25,26c.3-.18.28-.32.22-.49a.94.94,0,0,0-.06-.15c0-.06,0-.13-.07-.2a1,1,0,0,1,.18-1c.52-.66,1.76-1,3.08-1.37.48-.13,1-.27,1.44-.42a10.5,10.5,0,0,0,1.28-.54,7.28,7.28,0,0,1,2.17-.75c2.33-.38,6.73-.84,10.06.23a5.4,5.4,0,0,0,1.94.15,3.69,3.69,0,0,1,1.65.15,14.23,14.23,0,0,0,2.23.66,5,5,0,0,1,1.4.43,28.85,28.85,0,0,0,3.35,2c.33.16.68.34,1.18.62a16.41,16.41,0,0,1,4.77,4.38l.13.16a2.27,2.27,0,0,1,.43.67,1.71,1.71,0,0,1,.12.83,1.75,1.75,0,0,0,.13.88h0c.35.84,1,2.85-.42,3.5a4,4,0,0,1-1.18.32,2.78,2.78,0,0,0-1,.29c-3.41,1.83-6.59,1.76-11.4,1.66L75,38a36.39,36.39,0,0,1-12.32-2.57,16.36,16.36,0,0,1-7-5,9.79,9.79,0,0,0-.66-.8,12.87,12.87,0,0,1-1.29-1.67,2,2,0,0,1-.12-.26A1.39,1.39,0,0,1,54.25,26Zm35.34,6.26a2.06,2.06,0,0,1-.14-1,1.43,1.43,0,0,0-.1-.72A2.18,2.18,0,0,0,89,30l-.14-.17a16.19,16.19,0,0,0-4.68-4.3c-.48-.28-.83-.45-1.16-.61a28.89,28.89,0,0,1-3.38-2,5.1,5.1,0,0,0-1.29-.38A13.57,13.57,0,0,1,76,21.84a3.5,3.5,0,0,0-1.49-.12,5.91,5.91,0,0,1-2.06-.16,22.86,22.86,0,0,0-9.91-.21,6.78,6.78,0,0,0-2.1.72,10.3,10.3,0,0,1-1.31.56c-.48.15-1,.29-1.46.42-1.27.36-2.47.69-2.93,1.28a.81.81,0,0,0-.08,1l.07.18a.59.59,0,0,1-.33.78,1.12,1.12,0,0,0-.6,1.3,1.38,1.38,0,0,0,.1.22,13,13,0,0,0,1.25,1.62,10.51,10.51,0,0,1,.68.82,16.14,16.14,0,0,0,6.89,5A36.22,36.22,0,0,0,75,37.72l.89,0c4.76.1,7.9.17,11.24-1.62a2.91,2.91,0,0,1,1.13-.32,3.47,3.47,0,0,0,1.09-.3c1.25-.56.63-2.42.3-3.2Z"/><path class="cls-3" d="M186.3,16.58a37.24,37.24,0,0,1-7.54,12.27c-1.85,1.87-20,18.22-49.53,14.4-9.34-1.21-19.28-3.67-23.37-6s5.45-19.17,5.45-19.17L111,9.77l11.59-5.32A29.71,29.71,0,0,0,135,9.27c10.67,1.34,13.62.44,18.1-.25S163,5.31,165.23,4.5c3.25-1.16,8.5-3.78,13.6-3.68,1.88,0,4.52-.3,6.43,2.21C186.53,4.68,188.65,9.76,186.3,16.58Z"/><path class="cls-27" d="M181.06,4.63c-2.12-3.15-7-1.16-14.44,3.22-10.83,6.37-32.08,6.12-43.28-.26-.46,1.6-1.94,5.58-1.94,5.58s-1.24,4.85.63,5.75C156,35.22,184.82,10.21,181.06,4.63Z"/><path class="cls-28" d="M112,22.24a21.74,21.74,0,0,0,5.45,3.12c47.33,16.48,70.16-14,68.36-21.43,1.2,2.22,2.48,6.79.46,12.65a37.24,37.24,0,0,1-7.54,12.27c-1.85,1.87-20,18.22-49.53,14.4-9.34-1.21-19.28-3.67-23.37-6-3.09-1.78,1.58-11.78,4.06-16.58C110.61,21.19,111.32,21.73,112,22.24Z"/><path class="cls-29" d="M186.57,10.84c-1.13,2.8-6.14,14-14.47,19.59-5.8,3.88-11.47,6.75-22.44,8.2-10,1.33-18.17-.74-23.83-2.2a48.35,48.35,0,0,1-15.26-7.08,2,2,0,0,0-.14,3.14c24.35,11.49,47.27,10,63.69-2.35,6.87-5.16,11.07-14.09,13-19.55C187.18,10.45,187.53,8.45,186.57,10.84Z"/><path class="cls-30" d="M178.21,9.66c-4,3.48-14.53,9.3-27.4,9.66a64.06,64.06,0,0,1-28.06-6.26c-2.87-1.4-2.56-3.54,1.82-1.34,11.15,5.6,24.11,7.83,34.26,5.53,15.83-3.57,20.69-9,25.34-14.6.68-.82,1-.29.42.58C183.48,5,180.22,7.92,178.21,9.66Z"/><path class="cls-22" d="M112.43,39.43l.06,0,.17-.06.26-.12.31-.19.18-.12a1.41,1.41,0,0,1,.18-.14c.12-.09.24-.2.37-.31s.25-.23.37-.36.25-.26.37-.39.23-.28.33-.42.21-.29.3-.43l.13-.21.12-.21c.08-.13.14-.27.2-.39s.1-.24.14-.34a1.21,1.21,0,0,0,0-.14.93.93,0,0,0,0-.13c0-.15.07-.23.07-.23l-.12.21-.06.12-.08.13c0,.09-.11.2-.18.31s-.15.23-.24.35a1.27,1.27,0,0,1-.13.19l-.14.2a3.9,3.9,0,0,1-.31.4c-.1.14-.22.27-.33.41l-.35.39c-.11.13-.23.25-.35.37l-.17.17-.17.16c-.11.1-.21.2-.31.28l-.28.23-.23.16Z"/><path class="cls-22" d="M128.69,43.06l0,0,.12-.09c.05,0,.12-.1.18-.17a2.51,2.51,0,0,0,.21-.23l.11-.14.11-.15.21-.35c.07-.13.14-.26.2-.39s.12-.28.18-.42.1-.29.14-.43a3.25,3.25,0,0,0,.11-.42c0-.07,0-.14,0-.21l0-.2c0-.13,0-.25,0-.37s0-.21,0-.31V39s0-.08,0-.11a1.4,1.4,0,0,0,0-.21s0,.08,0,.21a.31.31,0,0,0,0,.1l0,.13c0,.09,0,.19-.06.3s0,.22-.07.34,0,.13,0,.19l-.05.2c0,.13-.09.26-.13.4s-.09.28-.15.41-.1.28-.16.41-.11.26-.17.39-.12.24-.18.35l-.09.16-.08.15-.16.26-.13.19A1.59,1.59,0,0,0,128.69,43.06Z"/><path class="cls-22" d="M134.91,38.8l.06,0,.14-.11a2.06,2.06,0,0,0,.21-.21l.23-.29c.09-.11.17-.23.26-.36s.17-.27.25-.42.17-.3.25-.46l.24-.49.21-.5c.06-.17.12-.33.17-.49s.1-.33.14-.48l.06-.22c0-.07,0-.14,0-.21s0-.26.05-.37V34a.53.53,0,0,0,0-.13.37.37,0,0,0,0-.11l0-.08,0-.06v.14a.45.45,0,0,1,0,.11.69.69,0,0,1,0,.13l0,.14c0,.11-.06.23-.09.35s-.19.55-.31.86c-.06.16-.13.32-.2.48l-.21.49-.23.48c-.07.16-.14.32-.22.47l-.22.43-.21.38-.18.31-.16.23-.12.14Z"/><path class="cls-22" d="M147.34,24.39l0-.06.07-.17c0-.08,0-.18.06-.29a3.33,3.33,0,0,0,.05-.37,6.82,6.82,0,0,0,0-.93,4.84,4.84,0,0,0,0-.53c0-.17,0-.35-.05-.54s-.05-.36-.08-.53-.07-.35-.11-.52-.08-.32-.12-.48-.05-.14-.07-.21-.05-.14-.07-.2a2.29,2.29,0,0,0-.16-.35c0-.05,0-.09-.07-.14l-.08-.11a.27.27,0,0,0-.07-.08l0-.06-.05,0,0,0,0,.07,0,.09a.61.61,0,0,1,.05.12l.06.14c0,.11.06.22.09.35s.13.57.19.9c0,.16,0,.34.08.51s.05.35.07.53l.06.53c0,.17,0,.35.05.51s0,.33,0,.49,0,.29,0,.43v.36c0,.11,0,.21,0,.28a.66.66,0,0,1,0,.18Z"/><path class="cls-22" d="M140.78,23.82l0-.06a.68.68,0,0,0,.08-.17,1.36,1.36,0,0,0,.08-.28,2.78,2.78,0,0,0,.08-.36c0-.27.07-.59.09-.93,0-.17,0-.35,0-.53s0-.36,0-.54,0-.36-.05-.54,0-.35-.07-.52-.06-.33-.1-.49a1.74,1.74,0,0,0-.05-.22l-.06-.2c0-.14-.09-.25-.13-.36s0-.1-.07-.14l-.07-.11-.06-.09-.05-.06,0,0,0,.06a.16.16,0,0,1,0,.07.39.39,0,0,1,0,.09l.05.12a.83.83,0,0,0,0,.15,2.7,2.7,0,0,1,.07.35c.05.27.09.58.13.91,0,.17,0,.34.05.51s0,.36,0,.54l0,.53c0,.18,0,.35,0,.52s0,.33,0,.48,0,.3,0,.43,0,.26,0,.37,0,.2,0,.28,0,.13,0,.18Z"/><path class="cls-22" d="M120.07,34.39l.06,0a1.65,1.65,0,0,0,.16-.09,2.5,2.5,0,0,0,.23-.18c.08-.07.18-.15.28-.25s.19-.21.3-.33l.31-.39c.09-.14.2-.28.29-.43s.19-.31.28-.47l.25-.49c.07-.17.14-.33.2-.5l.09-.23.06-.24c0-.15.08-.3.11-.43a2.71,2.71,0,0,0,0-.37,1,1,0,0,0,0-.16.57.57,0,0,1,0-.13v-.25s0,.09-.06.24l0,.13a.83.83,0,0,1,0,.15l-.1.35c-.05.13-.09.27-.15.41l-.09.22a2.14,2.14,0,0,1-.1.22c-.06.16-.14.31-.21.47s-.16.32-.25.47-.17.32-.26.47l-.27.44a2.43,2.43,0,0,0-.14.2l-.13.2-.26.35-.23.28-.2.21-.13.12Z"/><path class="cls-22" d="M171,31.13l0-.06.07-.19.08-.29a3.8,3.8,0,0,0,.06-.4c0-.14,0-.3,0-.46s0-.35,0-.53,0-.37-.05-.55a5.81,5.81,0,0,0-.09-.58c0-.19-.08-.37-.12-.56a5.52,5.52,0,0,0-.16-.54c0-.17-.11-.33-.17-.49s-.13-.3-.19-.43a3.45,3.45,0,0,0-.19-.34l-.18-.25a.69.69,0,0,0-.14-.15l0,0,0,.05a.63.63,0,0,1,.1.17,3.67,3.67,0,0,1,.27.63c0,.13.1.28.15.43s.09.32.13.49.09.35.13.53.08.37.11.55.07.38.1.56,0,.36.06.54a4.75,4.75,0,0,1,0,.51c0,.16,0,.31,0,.45s0,.28,0,.39a2.16,2.16,0,0,1,0,.3c0,.08,0,.15,0,.19Z"/><path class="cls-22" d="M178.27,24.39a.15.15,0,0,0,0-.06.85.85,0,0,0,0-.2q0-.12,0-.3c0-.12,0-.25,0-.4a4.16,4.16,0,0,0-.06-.46c0-.17-.06-.34-.1-.52s-.09-.36-.15-.54l-.19-.54c-.08-.18-.15-.36-.23-.53s-.17-.34-.26-.5-.18-.31-.26-.45a4.17,4.17,0,0,0-.27-.38c-.09-.12-.18-.22-.26-.31l-.22-.21-.16-.11-.06,0,0,.05a.92.92,0,0,1,.13.14,4.5,4.5,0,0,1,.39.57l.22.4.23.45c.08.16.15.33.23.5l.21.52c.07.17.14.35.2.53s.12.35.17.52.09.33.13.49.07.3.1.44.05.27.06.38,0,.22,0,.3a1.56,1.56,0,0,1,0,.2Z"/><path class="cls-22" d="M177.38,17.3v-.07a1.64,1.64,0,0,0,0-.2c0-.08,0-.18,0-.3s-.05-.25-.09-.39a4.59,4.59,0,0,0-.15-.44,3.26,3.26,0,0,0-.2-.48c-.08-.17-.16-.34-.25-.5l-.3-.5L176,14c-.11-.15-.23-.3-.35-.44a4.4,4.4,0,0,0-.35-.39L175,12.8a3.09,3.09,0,0,0-.31-.25,1.53,1.53,0,0,0-.26-.16l-.18-.08-.06,0,.06,0,.15.11a5.25,5.25,0,0,1,.49.48l.3.35c.1.13.21.26.31.4s.22.29.32.44.22.31.32.47l.3.48.27.47c.08.16.16.31.23.46s.13.28.18.42l.14.36.08.28a1.37,1.37,0,0,1,.05.19Z"/><path class="cls-22" d="M116.91,40.55l0,0,.12-.06s.11-.07.17-.12l.21-.18.23-.22.24-.27c.08-.1.17-.2.24-.3l.23-.33.2-.34a3.79,3.79,0,0,0,.18-.34l.08-.17.06-.16a2.33,2.33,0,0,0,.11-.31c0-.09,0-.18.08-.26s0-.15,0-.21l0-.18a.87.87,0,0,0-.08.17,1.5,1.5,0,0,0-.09.18l-.12.24-.15.28c-.06.1-.11.2-.18.3a2.69,2.69,0,0,1-.19.32c-.06.11-.13.22-.2.33a3.62,3.62,0,0,1-.22.32l-.21.31-.2.28-.19.25-.17.21-.14.15Z"/><path class="cls-22" d="M121.66,40.71l0,0a.24.24,0,0,0,.09-.07.79.79,0,0,0,.14-.13l.17-.17.18-.23a3.16,3.16,0,0,0,.18-.27,2.75,2.75,0,0,0,.17-.29l.16-.32c0-.11.1-.22.14-.33s.08-.22.11-.32.06-.22.08-.32a1.37,1.37,0,0,0,0-.28,1.12,1.12,0,0,0,0-.24,1.34,1.34,0,0,0,0-.19v-.16l0,.15-.06.18c0,.07,0,.14-.08.22l-.1.27c0,.09-.07.18-.11.28l-.13.31c-.05.1-.09.21-.14.31s-.1.21-.14.31l-.15.3-.14.28a2.55,2.55,0,0,1-.14.24,2,2,0,0,1-.12.21l-.09.15Z"/><path class="cls-22" d="M132.21,42.58l0,0,.07-.08.11-.13a1.4,1.4,0,0,0,.13-.18,2.32,2.32,0,0,0,.14-.23c0-.08.09-.16.13-.26s.09-.18.13-.28.07-.21.11-.31a4.63,4.63,0,0,0,.17-.61c0-.1,0-.2,0-.29a1.22,1.22,0,0,0,0-.26,1.77,1.77,0,0,0,0-.22v-.17c0-.1,0-.15,0-.15l0,.14a.55.55,0,0,1,0,.17,1.91,1.91,0,0,1,0,.21l-.06.25c0,.09,0,.18-.07.28l-.09.29-.09.3c-.07.21-.14.4-.22.59a2,2,0,0,1-.11.26c0,.09-.07.17-.1.24l-.17.34Z"/><path class="cls-22" d="M124.25,42.53l0,0,.08-.08a.81.81,0,0,0,.11-.13l.13-.18a2.36,2.36,0,0,0,.13-.23c0-.08.09-.16.14-.26l.12-.28a2.83,2.83,0,0,0,.11-.31,4.63,4.63,0,0,0,.17-.61c0-.1,0-.2,0-.29a2.6,2.6,0,0,0,0-.26,1.77,1.77,0,0,0,0-.22.81.81,0,0,0,0-.17.85.85,0,0,0,0-.15s0,.05,0,.14l0,.17c0,.06,0,.14-.05.21a2.21,2.21,0,0,1,0,.25c0,.09,0,.19-.08.28s0,.19-.08.29l-.1.31-.21.58c0,.09-.07.18-.11.26s-.07.17-.11.24a2.66,2.66,0,0,1-.17.34Z"/><path class="cls-22" d="M135.77,43.86l0,0a.35.35,0,0,0,.07-.09.85.85,0,0,0,.1-.14l.11-.2.11-.23c0-.09.07-.18.1-.28a2.11,2.11,0,0,0,.1-.3c0-.1.05-.21.08-.31s.08-.43.1-.63,0-.2,0-.29V41.1a1.52,1.52,0,0,0,0-.23.88.88,0,0,0,0-.17l0-.14s0,0,0,.15a1,1,0,0,1,0,.16c0,.07,0,.14,0,.22l0,.26c0,.09,0,.18,0,.28l-.06.3-.06.31q-.08.32-.15.6c0,.1,0,.19-.08.28s-.05.17-.08.24a3,3,0,0,1-.14.36Z"/><path class="cls-22" d="M139.23,42.67l0,0,.06-.07a1.48,1.48,0,0,0,.08-.13l.09-.16.09-.21a2.25,2.25,0,0,0,.08-.24c0-.08,0-.17.07-.26s0-.18.05-.27a5.09,5.09,0,0,0,0-.54,2.08,2.08,0,0,0,0-.25c0-.08,0-.16,0-.22s0-.14,0-.19,0-.1,0-.14a.64.64,0,0,0,0-.12v.45a1.7,1.7,0,0,1,0,.22,1.94,1.94,0,0,1,0,.24c0,.08,0,.17,0,.26s0,.17,0,.26-.06.36-.1.52a2,2,0,0,1-.05.24l-.06.21a2.28,2.28,0,0,1-.1.31Z"/><path class="cls-22" d="M141.18,42.91l0,0a.23.23,0,0,0,.06-.07s.06-.07.09-.12a1.14,1.14,0,0,0,.09-.16,1.24,1.24,0,0,0,.1-.2c0-.08.06-.15.09-.24a1.83,1.83,0,0,0,.08-.25l.06-.27a5.33,5.33,0,0,0,.07-.54,2.08,2.08,0,0,0,0-.25,1.69,1.69,0,0,0,0-.23c0-.06,0-.13,0-.18s0-.11,0-.15,0-.12,0-.12v.27c0,.06,0,.12,0,.19a1.55,1.55,0,0,1,0,.21l0,.24c0,.09,0,.17,0,.26a2,2,0,0,1-.05.26c0,.18-.07.35-.11.52s-.05.16-.07.23l-.06.21-.12.3Z"/><path class="cls-22" d="M144.77,42.5l0,0,.05-.08.07-.13a1.71,1.71,0,0,0,.07-.18c0-.06.05-.13.07-.21l.06-.24c0-.09,0-.18,0-.27a2.45,2.45,0,0,0,0-.27,5,5,0,0,0,0-.55c0-.08,0-.17,0-.24a1.55,1.55,0,0,0,0-.23,1.21,1.21,0,0,0-.05-.18.58.58,0,0,0,0-.14.7.7,0,0,0,0-.11,1.09,1.09,0,0,0,0,.12.66.66,0,0,1,0,.15.9.9,0,0,1,0,.18c0,.07,0,.14,0,.22v.24a2.26,2.26,0,0,1,0,.26,2.44,2.44,0,0,1,0,.27c0,.18,0,.35,0,.52s0,.17,0,.24a2.07,2.07,0,0,0,0,.22c0,.13,0,.24-.07.32Z"/><path class="cls-22" d="M147.26,43.22l0,0,.05-.08.08-.12.08-.18.08-.21q0-.11.06-.24l.06-.26a2.51,2.51,0,0,1,0-.27,5.09,5.09,0,0,0,0-.55c0-.08,0-.17,0-.25s0-.15,0-.22,0-.13,0-.18a1.27,1.27,0,0,0,0-.14l0-.12v.12a.66.66,0,0,1,0,.15c0,.05,0,.12,0,.18v.22a1.93,1.93,0,0,1,0,.24c0,.09,0,.17,0,.26l0,.27c0,.18,0,.35-.06.52s0,.16,0,.24,0,.15,0,.21-.07.24-.09.32Z"/><path class="cls-22" d="M150.88,41.91l0,0,0-.08.06-.13a1.71,1.71,0,0,0,.07-.18l.06-.22c0-.07,0-.16,0-.24a2.51,2.51,0,0,0,0-.27c0-.09,0-.18,0-.27a3.32,3.32,0,0,0,0-.55,1.72,1.72,0,0,0,0-.24,1.42,1.42,0,0,0,0-.22.76.76,0,0,0-.06-.18.46.46,0,0,0-.05-.14l-.05-.11a.56.56,0,0,0,0,.12.78.78,0,0,0,0,.14,1.37,1.37,0,0,0,0,.19,1.49,1.49,0,0,0,0,.21c0,.08,0,.16,0,.25s0,.17,0,.26v.26a2.44,2.44,0,0,1,0,.27,2.11,2.11,0,0,1,0,.26,1.94,1.94,0,0,1,0,.24l0,.22a1.84,1.84,0,0,1-.06.32Z"/><path class="cls-22" d="M152.75,41.58v0l.05-.07s.05-.09.07-.14a1.89,1.89,0,0,0,.06-.18c0-.06,0-.14.06-.21a1.84,1.84,0,0,0,.05-.25,2.06,2.06,0,0,0,0-.26c0-.1,0-.19,0-.28a4.63,4.63,0,0,0,0-.54c0-.09,0-.17,0-.25s0-.15-.05-.22a1.89,1.89,0,0,0-.06-.18,1.21,1.21,0,0,1,0-.14l-.06-.11,0,.12a.61.61,0,0,1,0,.15.9.9,0,0,1,0,.18,1.5,1.5,0,0,1,0,.22c0,.07,0,.16,0,.24v.26a1.22,1.22,0,0,1,0,.27v.26c0,.09,0,.18,0,.26s0,.17,0,.24l0,.22c0,.13,0,.24-.06.32Z"/><path class="cls-22" d="M155.28,41.65l.06-.08.08-.09.07-.14a.8.8,0,0,0,.08-.16c0-.06.05-.12.07-.19l.06-.21a1.55,1.55,0,0,0,0-.21,1.92,1.92,0,0,0,0-.22,1.7,1.7,0,0,0,0-.22s0-.07,0-.1a.38.38,0,0,1,0-.1,1.1,1.1,0,0,0,0-.18.66.66,0,0,0,0-.15l0-.11a.65.65,0,0,0,0-.1.45.45,0,0,0,0,.1s0,.07,0,.12a.65.65,0,0,1,0,.14c0,.06,0,.12,0,.18a1.37,1.37,0,0,1,0,.19,1.36,1.36,0,0,0,0,.2c0,.07,0,.14,0,.21s0,.15,0,.21,0,.14-.05.21,0,.12,0,.18a1.36,1.36,0,0,0,0,.17c0,.05,0,.1-.05.14s0,.08,0,.11Z"/><path class="cls-22" d="M158.31,39.77l.05-.09.06-.1a1.31,1.31,0,0,0,.05-.15.84.84,0,0,0,.05-.17c0-.06,0-.13,0-.2l0-.21V38.4l0-.21a.34.34,0,0,0,0-.1.36.36,0,0,1,0-.1c0-.06,0-.12-.05-.17a.46.46,0,0,0,0-.14.58.58,0,0,0-.05-.11l0-.09a.67.67,0,0,0,0,.1s0,.07,0,.11a.77.77,0,0,1,0,.15s0,.11,0,.17a1.34,1.34,0,0,1,0,.2,1.27,1.27,0,0,1,0,.2,1.61,1.61,0,0,1,0,.22,1.47,1.47,0,0,1,0,.21,1.48,1.48,0,0,0,0,.21c0,.06,0,.13,0,.19s0,.12,0,.17,0,.1,0,.14a.37.37,0,0,1,0,.12Z"/><path class="cls-22" d="M160,39.58l.06-.09.06-.1a1,1,0,0,1,.07-.15l.06-.18a1.66,1.66,0,0,0,.06-.21c0-.07,0-.15,0-.22a2,2,0,0,0,0-.24,1.79,1.79,0,0,0,0-.23c0-.08,0-.16,0-.23v-.11s0-.07,0-.1l0-.19a.42.42,0,0,0,0-.16l0-.11a.82.82,0,0,1,0-.11v.23a.81.81,0,0,1,0,.16v.19a1.41,1.41,0,0,1,0,.2c0,.07,0,.15,0,.22a1.79,1.79,0,0,1,0,.23c0,.07,0,.15,0,.22l0,.22,0,.2,0,.18,0,.16s0,.08,0,.11S160,39.58,160,39.58Z"/><path class="cls-22" d="M163.65,38.54a.34.34,0,0,0,.06-.1s0-.07.06-.12l0-.16,0-.1,0-.1a1.42,1.42,0,0,0,0-.22c0-.08,0-.16,0-.24a2.18,2.18,0,0,0,0-.25,2.08,2.08,0,0,0,0-.25,2,2,0,0,0,0-.25.45.45,0,0,0,0-.11s0-.07,0-.11,0-.14,0-.2,0-.11-.05-.16a1.12,1.12,0,0,1-.05-.13l0-.1v.11s0,.08,0,.13,0,.11,0,.17a1.27,1.27,0,0,1,0,.2v.22a1.85,1.85,0,0,0,0,.23c0,.08,0,.16,0,.24v.25a1.77,1.77,0,0,0,0,.23,1.8,1.8,0,0,0,0,.22c0,.07,0,.14,0,.2a.88.88,0,0,0,0,.16l0,.13C163.66,38.5,163.65,38.54,163.65,38.54Z"/><path class="cls-22" d="M166.28,36.78a.49.49,0,0,1,.05-.11.73.73,0,0,0,0-.12,1.56,1.56,0,0,0,.05-.16l0-.1a.36.36,0,0,1,0-.1c0-.07,0-.15,0-.23a2.32,2.32,0,0,1,0-.24v-.25a2.09,2.09,0,0,0,0-.25c0-.08,0-.16,0-.24s0-.08,0-.11a.52.52,0,0,1,0-.11,1.94,1.94,0,0,1-.05-.2.59.59,0,0,0-.06-.16s0-.09-.05-.13a.55.55,0,0,1,0-.1.87.87,0,0,0,0,.11s0,.08,0,.13a.88.88,0,0,1,0,.17c0,.06,0,.13,0,.2s0,.07,0,.1a.49.49,0,0,0,0,.12,1.85,1.85,0,0,0,0,.23V36c0,.08,0,.15,0,.22a1.27,1.27,0,0,1,0,.2c0,.06,0,.11,0,.16a.44.44,0,0,1,0,.13A.94.94,0,0,0,166.28,36.78Z"/><path class="cls-22" d="M169.32,35.68l.06-.1s0-.07.06-.12a1.38,1.38,0,0,0,.06-.16l0-.09a.36.36,0,0,1,0-.1l.06-.22a2,2,0,0,1,0-.24c0-.08,0-.17,0-.25s0-.17,0-.25,0-.17,0-.24a.49.49,0,0,0,0-.12s0-.07,0-.11l0-.2a.84.84,0,0,0,0-.17.83.83,0,0,0,0-.12.7.7,0,0,0,0-.11.87.87,0,0,0,0,.11v.13a.91.91,0,0,1,0,.17v.42c0,.08,0,.15,0,.23s0,.17,0,.25,0,.16,0,.24,0,.16,0,.23l0,.22c0,.07,0,.14,0,.19l0,.17,0,.13A.45.45,0,0,0,169.32,35.68Z"/><path class="cls-22" d="M171.8,33.6l0-.1a1.12,1.12,0,0,1,.05-.13s0-.1,0-.16a.44.44,0,0,0,0-.1s0-.07,0-.11a1.5,1.5,0,0,0,0-.22,1.93,1.93,0,0,0,0-.24,2.08,2.08,0,0,0,0-.25c0-.09,0-.17,0-.25s0-.17,0-.24,0-.08,0-.12l0-.1-.06-.2a.76.76,0,0,0-.06-.16l-.05-.12a.66.66,0,0,1,0-.1.87.87,0,0,0,0,.11s0,.08,0,.13a.76.76,0,0,1,0,.16l0,.2v.22c0,.08,0,.15,0,.23s0,.16,0,.25,0,.16,0,.24v.65a1,1,0,0,0,0,.17.51.51,0,0,1,0,.13A.87.87,0,0,0,171.8,33.6Z"/><path class="cls-22" d="M173.67,32.52l.06-.1a1,1,0,0,1,.05-.12,1.54,1.54,0,0,1,.05-.17l0-.09a.43.43,0,0,1,0-.11,1.46,1.46,0,0,0,0-.22,1.94,1.94,0,0,0,0-.24,2.18,2.18,0,0,0,0-.25,2,2,0,0,0,0-.25l0-.24a.49.49,0,0,0,0-.12l0-.11c0-.07,0-.13,0-.2l-.06-.16a.73.73,0,0,0,0-.12.82.82,0,0,1,0-.11.94.94,0,0,0,0,.12s0,.08,0,.13a.78.78,0,0,1,0,.16c0,.07,0,.13,0,.2s0,.07,0,.11v.11c0,.08,0,.16,0,.24v.48c0,.08,0,.16,0,.24a1.62,1.62,0,0,1,0,.22,1.15,1.15,0,0,1,0,.19c0,.06,0,.12,0,.17a.51.51,0,0,1,0,.13C173.68,32.48,173.67,32.52,173.67,32.52Z"/><path class="cls-22" d="M175.82,31.68l.05-.12a1.55,1.55,0,0,0,0-.15,1,1,0,0,0,0-.2.36.36,0,0,0,0-.11l0-.12a2.45,2.45,0,0,0,0-.27c0-.09,0-.19,0-.28s0-.2,0-.3,0-.19,0-.29,0-.19,0-.28l0-.13,0-.13-.06-.23a.85.85,0,0,0-.06-.19l-.06-.15-.05-.12a.59.59,0,0,0,0,.13,1,1,0,0,0,0,.16c0,.05,0,.12,0,.19l0,.23s0,.09,0,.13,0,.09,0,.13,0,.18,0,.28,0,.19,0,.28,0,.2,0,.29,0,.19,0,.28v.49c0,.07,0,.14,0,.2s0,.11,0,.15S175.82,31.68,175.82,31.68Z"/><path class="cls-22" d="M182.62,24.1s0-.05,0-.14a1.1,1.1,0,0,0,0-.16c0-.06,0-.13,0-.21s0-.15-.08-.23-.06-.17-.1-.26-.08-.17-.13-.26l-.15-.27a2.2,2.2,0,0,0-.17-.25l-.18-.24-.18-.2c-.06-.07-.12-.12-.18-.18l-.16-.13-.13-.09L181,21.4l.09.11.11.11c0,.05.09.1.13.16l.15.19a1.66,1.66,0,0,1,.16.21c.06.08.11.16.16.24a2.13,2.13,0,0,1,.16.25,1.65,1.65,0,0,1,.15.25l.14.25c0,.09.09.16.12.24l.11.22c0,.07.05.13.08.19a1.21,1.21,0,0,1,0,.14Z"/><path class="cls-22" d="M185.77,17.88a.31.31,0,0,0,0-.11s0-.07,0-.12a.75.75,0,0,1,0-.16,2.68,2.68,0,0,0-.16-.36,2,2,0,0,0-.11-.2l-.14-.18a1.3,1.3,0,0,0-.15-.18,1.21,1.21,0,0,0-.16-.16l-.16-.13-.16-.1-.15-.07-.11,0-.1,0,.08.06.1.07.12.1.13.12a1.85,1.85,0,0,1,.14.14l.14.16a1.15,1.15,0,0,1,.14.17l.13.17a1.88,1.88,0,0,1,.12.18,1.63,1.63,0,0,1,.11.17l.09.15s0,.1.07.14l.05.11Z"/><path class="cls-22" d="M186.66,15.07l0-.08a.51.51,0,0,0,0-.09s0-.07-.05-.1l0-.07,0-.06-.08-.13-.1-.13a.69.69,0,0,0-.11-.13l-.12-.13-.12-.1-.13-.1-.12-.07a.24.24,0,0,0-.1-.05l-.08,0-.08,0,.06.06.14.14.09.1.11.1.1.12.11.12.11.12.11.12.1.11.08.1.07.08.06.08Z"/><path class="cls-22" d="M181.34,25.79a1,1,0,0,0,0-.15,1,1,0,0,0,0-.16,2.11,2.11,0,0,0,0-.21c0-.08,0-.16-.05-.25s0-.17-.08-.27-.06-.18-.1-.28a1.69,1.69,0,0,0-.12-.28,2.44,2.44,0,0,0-.14-.28l-.15-.26c0-.08-.11-.15-.16-.22a1.75,1.75,0,0,0-.16-.2,1.06,1.06,0,0,0-.15-.15.68.68,0,0,0-.12-.12l-.11-.08.09.11.09.13.11.17a2.39,2.39,0,0,1,.13.21c.05.07.09.16.14.24l.14.25c0,.09.09.18.13.28l.12.27c0,.09.08.18.11.27l.1.25c0,.08.06.16.08.23s0,.14.06.2l0,.16C181.33,25.73,181.34,25.79,181.34,25.79Z"/><path class="cls-22" d="M178.13,28.89l0-.14c0-.05,0-.1,0-.17s0-.13,0-.21,0-.16,0-.25,0-.18,0-.28,0-.19,0-.29-.05-.2-.08-.3l-.09-.3-.12-.27a2.06,2.06,0,0,0-.12-.26,2,2,0,0,0-.12-.21l-.12-.18-.1-.13-.1-.1.06.12a1,1,0,0,1,.08.15l.08.19c0,.07.07.14.1.22l.09.26c0,.08.06.18.1.27l.09.29c0,.1,0,.19.08.29l.06.28c0,.1.05.18.06.27s0,.17,0,.24a1.77,1.77,0,0,1,0,.21c0,.06,0,.11,0,.16Z"/><path class="cls-22" d="M184.05,20.46a.67.67,0,0,0,0-.1.45.45,0,0,0,0-.11l0-.14,0-.08,0-.09c0-.05,0-.12-.07-.18l-.09-.18,0-.09-.05-.09-.12-.18c0-.06-.09-.11-.13-.16l-.13-.14-.13-.12-.12-.08-.09-.06-.09-.05.06.08.08.08a.52.52,0,0,1,.08.11,1.47,1.47,0,0,1,.1.13.83.83,0,0,1,.11.15l.11.16a1.63,1.63,0,0,1,.11.17l.06.09a.41.41,0,0,0,0,.09l.1.16.09.17c0,.05,0,.1.07.14s0,.09.07.13a1,1,0,0,0,0,.1A.41.41,0,0,0,184.05,20.46Z"/><path class="cls-22" d="M134.17,9.77l.18.25a3.22,3.22,0,0,1,.17.29c.06.12.14.25.2.4s.07.15.1.23l.11.25c0,.09.06.18.1.27l.09.29c.06.19.13.39.18.6s.11.42.16.63l.06.32.06.31c0,.11,0,.21,0,.32l0,.31c0,.1,0,.2,0,.29s0,.2,0,.29a.66.66,0,0,1,0,.14v.13a2.35,2.35,0,0,1,0,.26v.23a1.34,1.34,0,0,1,0,.21V16c0,.06,0,.11,0,.16s0,.3,0,.3l.08-.29a1.24,1.24,0,0,1,0-.16l0-.18,0-.22s0-.07,0-.11v-.12c0-.17,0-.35,0-.54v-.3c0-.1,0-.2,0-.3s0-.43-.06-.65,0-.21-.05-.32,0-.22-.07-.33-.1-.43-.16-.64-.14-.42-.21-.61-.08-.2-.11-.29-.08-.18-.13-.27l-.12-.25c0-.08-.09-.15-.13-.22a4.41,4.41,0,0,0-.25-.39c-.08-.11-.16-.19-.22-.27l-.16-.16Z"/><path class="cls-22" d="M137.8,10.31l.18.25.17.29c.06.12.14.25.2.4s.07.15.11.23a2.6,2.6,0,0,0,.1.25c0,.09.07.18.1.27s.07.19.1.29.12.39.17.6a6.45,6.45,0,0,1,.16.63,3,3,0,0,1,.06.32,1.7,1.7,0,0,1,.06.31c0,.11,0,.21,0,.32s0,.2,0,.31l0,.29a2.64,2.64,0,0,0,0,.29v.27a2.17,2.17,0,0,0,0,.26V16a.37.37,0,0,1,0,.11v.21a1.15,1.15,0,0,1,0,.19c0,.06,0,.11,0,.16s0,.3,0,.3,0-.1.07-.29,0-.1,0-.16a1,1,0,0,0,0-.18l0-.22s0-.07,0-.11V15.9a4.63,4.63,0,0,0,0-.54v-.3c0-.1,0-.2,0-.31s0-.42-.07-.64,0-.21-.05-.32l-.06-.33c-.06-.22-.1-.43-.17-.64s-.14-.42-.21-.61a2.49,2.49,0,0,0-.11-.29l-.12-.27c-.05-.08-.09-.17-.13-.25s-.09-.15-.13-.22a4.41,4.41,0,0,0-.25-.39c-.08-.11-.16-.19-.22-.27l-.16-.16Z"/><path class="cls-22" d="M147.15,11.88l.19.23.19.29.23.38.12.23.11.24a2.21,2.21,0,0,1,.12.27l.12.27c.07.19.15.39.22.59s.13.41.19.62l.09.31c0,.11.05.21.07.32a2.82,2.82,0,0,1,.07.31c0,.1,0,.2.06.3s0,.2,0,.3,0,.19,0,.28a.68.68,0,0,0,0,.14.57.57,0,0,0,0,.13c0,.09,0,.17,0,.26s0,.08,0,.11v.12a1.48,1.48,0,0,1,0,.21c0,.07,0,.13,0,.19s0,.11,0,.16v.3l.06-.3,0-.16c0-.05,0-.12,0-.18a1.8,1.8,0,0,1,0-.22.49.49,0,0,1,0-.12v-.12a5,5,0,0,0,0-.54c0-.09,0-.19,0-.29s0-.2,0-.31-.06-.42-.11-.63-.05-.22-.07-.32-.05-.22-.09-.33-.13-.42-.2-.63-.17-.4-.25-.59-.09-.19-.13-.28-.09-.18-.14-.26-.1-.16-.14-.24l-.15-.22a4.2,4.2,0,0,0-.27-.36c-.09-.11-.18-.19-.24-.26l-.17-.15Z"/><path class="cls-22" d="M159.67,8.48l.09,0,.11.06.14.09a4.37,4.37,0,0,1,.38.26,4.56,4.56,0,0,1,.45.38c.16.14.33.31.5.49l.5.59c.16.22.32.45.47.69a7.5,7.5,0,0,1,.42.74c.13.26.25.52.35.78a6.07,6.07,0,0,1,.26.79,7.29,7.29,0,0,1,.17.75c0,.25.06.48.07.69s0,.22,0,.31a2.44,2.44,0,0,1,0,.28,1.93,1.93,0,0,1,0,.25c0,.08,0,.15,0,.21a2.89,2.89,0,0,1,0,.29.87.87,0,0,0,0,.11l0-.1,0-.12a.85.85,0,0,0,0-.17c0-.06,0-.13.05-.21a1.64,1.64,0,0,0,0-.25,2.19,2.19,0,0,0,0-.28c0-.1,0-.21,0-.32a5.86,5.86,0,0,0,0-.71c0-.13,0-.26-.05-.39s0-.27-.08-.4a8.54,8.54,0,0,0-.25-.82,8.41,8.41,0,0,0-.35-.82c-.14-.26-.29-.52-.45-.76s-.33-.47-.51-.69a6.06,6.06,0,0,0-.54-.58,4.53,4.53,0,0,0-.54-.47,5.77,5.77,0,0,0-.49-.35L160,8.63l-.16-.07-.11-.05Z"/><path class="cls-22" d="M162.05,7.54l.09,0,.11.06.15.08.39.25c.14.1.3.22.46.36a5.61,5.61,0,0,1,.51.48,7.19,7.19,0,0,1,.52.57,8.16,8.16,0,0,1,.5.66c.17.24.31.48.46.73s.26.51.37.77a8.21,8.21,0,0,1,.29.78,6.87,6.87,0,0,1,.19.75,4.47,4.47,0,0,1,.1.68c0,.11,0,.22,0,.31s0,.2,0,.28a2,2,0,0,1,0,.25,1.34,1.34,0,0,1,0,.21,1.87,1.87,0,0,1,0,.3v.1l0-.1,0-.12c0-.05,0-.11,0-.17l0-.21a1.9,1.9,0,0,0,0-.25,2.58,2.58,0,0,0,0-.29v-.31a6.09,6.09,0,0,0,0-.72c0-.12,0-.25-.07-.38s-.06-.27-.1-.4a6.41,6.41,0,0,0-.27-.81,6.55,6.55,0,0,0-.39-.8A7.25,7.25,0,0,0,165,9.9c-.17-.24-.35-.46-.53-.67s-.38-.39-.57-.56a4.35,4.35,0,0,0-.55-.45,5.41,5.41,0,0,0-.51-.33l-.41-.21-.16-.06-.12,0Z"/><path class="cls-22" d="M169.22,4.29l.1,0,.12,0,.17.05.42.16c.17.07.35.16.54.26a6.57,6.57,0,0,1,.6.35c.21.13.42.29.63.45l.63.54c.21.2.4.4.59.62s.37.44.54.67a7.42,7.42,0,0,1,.44.7,5.6,5.6,0,0,1,.35.69,4.7,4.7,0,0,1,.24.65,1.71,1.71,0,0,1,.09.3c0,.09,0,.18.07.27s0,.17,0,.24,0,.15,0,.21,0,.23,0,.29v-.29c0-.07,0-.14,0-.22a2.5,2.5,0,0,0,0-.25c0-.09,0-.18,0-.28s0-.2-.06-.31a5.35,5.35,0,0,0-.21-.69,2.75,2.75,0,0,0-.15-.36c0-.12-.11-.25-.17-.37a6.24,6.24,0,0,0-.45-.73,7.25,7.25,0,0,0-.54-.7,7.38,7.38,0,0,0-.62-.63,7.83,7.83,0,0,0-.66-.54,6.39,6.39,0,0,0-.68-.43,5.48,5.48,0,0,0-.63-.33l-.57-.21-.45-.11-.17,0h-.12Z"/><path class="cls-22" d="M148.88,10.48l.18.21.19.25c.06.1.14.21.21.34l.12.2.12.22a2.56,2.56,0,0,1,.11.24l.12.25c.08.17.15.34.22.53s.14.37.2.55.06.19.09.29l.09.28c0,.09.05.19.07.28a2.29,2.29,0,0,1,.07.28l.06.26c0,.09,0,.18,0,.26l0,.13s0,.08,0,.12l0,.23s0,.07,0,.11a.34.34,0,0,0,0,.1c0,.07,0,.13,0,.19s0,.12,0,.18v.14c0,.18,0,.28,0,.28s0-.1.05-.28a.78.78,0,0,1,0-.14,1.15,1.15,0,0,1,0-.18c0-.12,0-.26,0-.41s0-.32,0-.49l0-.27a2.33,2.33,0,0,0,0-.28c0-.19-.07-.38-.12-.58s-.05-.19-.08-.29a2.46,2.46,0,0,0-.09-.29c-.07-.2-.13-.39-.21-.57s-.17-.37-.25-.54-.09-.16-.14-.24-.09-.16-.14-.24l-.13-.21-.15-.19a3.17,3.17,0,0,0-.26-.33l-.23-.22-.17-.13Z"/><path class="cls-22" d="M154.78,12.72l.2.19.21.24c.07.09.16.2.24.32s.09.12.13.19l.14.21a1.71,1.71,0,0,1,.13.23c0,.08.1.15.14.23s.18.34.26.51.17.36.25.54.07.19.11.28.08.18.11.27.06.19.1.28,0,.18.08.26a2.76,2.76,0,0,1,.08.27A2.33,2.33,0,0,1,157,17l0,.12,0,.12c0,.08,0,.16,0,.23a.43.43,0,0,1,0,.11s0,.07,0,.1l0,.19,0,.17s0,.1,0,.15,0,.27,0,.27,0-.1,0-.28,0-.09,0-.14v-.18c0-.12,0-.26,0-.41a4.81,4.81,0,0,0-.07-.49c0-.09,0-.18,0-.27a2.61,2.61,0,0,0-.06-.27c-.05-.19-.11-.38-.17-.57s-.07-.19-.11-.28-.07-.19-.11-.29-.17-.37-.26-.55-.2-.34-.29-.51L156,14l-.15-.22-.16-.21-.16-.18a2.78,2.78,0,0,0-.29-.3l-.25-.2a2,2,0,0,0-.17-.12Z"/><path class="cls-22" d="M164.11,6.42l.25.13.26.18c.09.07.21.15.32.25l.17.15.19.17.19.18.19.2a5.14,5.14,0,0,1,.38.42,5.45,5.45,0,0,1,.38.46l.18.24a2,2,0,0,1,.17.23,2.49,2.49,0,0,0,.17.24l.15.24.15.23.13.23.06.11.06.11.1.21,0,.1.05.09.08.18.07.15c0,.05,0,.1,0,.14l.1.26a2.67,2.67,0,0,0,0-.28l0-.14c0-.05,0-.11,0-.17s-.07-.25-.13-.39-.11-.3-.19-.46l-.12-.24a2,2,0,0,0-.13-.25,4.63,4.63,0,0,0-.31-.51l-.17-.24-.18-.25a6,6,0,0,0-.4-.46,4.09,4.09,0,0,0-.41-.42l-.21-.19-.21-.18-.2-.15-.2-.14-.36-.21-.29-.14-.2-.06Z"/><path class="cls-22" d="M169.09,7.24l.24.13.26.18a3.14,3.14,0,0,1,.32.25l.18.15.18.17a1.62,1.62,0,0,1,.19.18l.2.2.38.42c.13.14.25.3.38.46l.18.23.17.24.16.24c.06.08.11.16.16.24l.14.23.13.23.07.11,0,.11.11.21,0,.09a1,1,0,0,0,0,.1l.08.18a1,1,0,0,1,.07.15,1.21,1.21,0,0,1,0,.14l.11.26s0-.1-.05-.28l0-.14a1.09,1.09,0,0,0,0-.17c0-.12-.07-.26-.13-.4a3.24,3.24,0,0,0-.18-.45l-.12-.25-.13-.24c-.1-.17-.2-.34-.31-.51s-.12-.16-.17-.25l-.19-.24c-.13-.16-.25-.32-.39-.47s-.28-.28-.41-.42l-.21-.18L170.41,8l-.2-.15-.2-.14a3.65,3.65,0,0,0-.36-.21l-.29-.14-.2-.06Z"/><path class="cls-22" d="M176.59,1.67l.24.14.26.17.32.25.18.15.18.17.19.19.19.19.39.43c.13.14.25.3.37.45s.12.16.18.24l.18.24.16.24c.06.07.1.16.15.23l.15.24.13.23.06.1.06.11.11.21,0,.1,0,.09a1.59,1.59,0,0,0,.08.18c0,.06.05.11.07.16l0,.13.11.26-.06-.27a.77.77,0,0,0,0-.15.75.75,0,0,1,0-.16c0-.12-.07-.26-.13-.4s-.11-.3-.19-.46a2.56,2.56,0,0,0-.11-.24c0-.09-.09-.16-.14-.25a5.09,5.09,0,0,0-.3-.5l-.18-.25-.18-.25-.39-.46q-.21-.23-.42-.42l-.21-.19a1.73,1.73,0,0,0-.21-.17,1.56,1.56,0,0,0-.2-.16,1.37,1.37,0,0,0-.2-.13,3.85,3.85,0,0,0-.35-.22,2.27,2.27,0,0,0-.3-.13l-.19-.07Z"/><path class="cls-22" d="M129.5,10.85a1.1,1.1,0,0,0,.07.17c0,.06,0,.13.06.2s0,.16.06.26l.06.31c0,.11,0,.23.05.35s0,.24,0,.37,0,.26,0,.39v.57c0,.07,0,.13,0,.19l0,.35a.88.88,0,0,1,0,.16c0,.05,0,.1,0,.15l0,.14a.59.59,0,0,1,0,.13,1,1,0,0,1,0,.2l0,.18.09-.16a1.82,1.82,0,0,0,.08-.19c0-.08.07-.17.1-.26A3,3,0,0,0,130,14a1.91,1.91,0,0,0,.07-.36c0-.13,0-.26,0-.39v-.4c0-.14,0-.27,0-.41s0-.26-.06-.38l-.09-.36,0-.16-.06-.15a1.92,1.92,0,0,0-.12-.25,1.42,1.42,0,0,0-.11-.18l-.08-.11Z"/><path class="cls-22" d="M131.2,8.74a1.06,1.06,0,0,0,.1.17l.1.2c0,.09.07.17.11.27s.07.21.11.32.08.24.11.37.07.26.11.39.06.28.08.41a3.07,3.07,0,0,1,.07.42l0,.2a1.62,1.62,0,0,1,0,.2l0,.38a1.09,1.09,0,0,1,0,.18c0,.06,0,.11,0,.16v.3a1.48,1.48,0,0,1,0,.22v.2l.06-.19a1.19,1.19,0,0,0,0-.22,1.34,1.34,0,0,0,.05-.3,1.87,1.87,0,0,0,0-.35c0-.13,0-.26,0-.39a3.22,3.22,0,0,0,0-.43,3.49,3.49,0,0,0-.07-.43c0-.14-.06-.28-.1-.42A2.8,2.8,0,0,0,132,10a2.28,2.28,0,0,0-.15-.36,1.3,1.3,0,0,0-.08-.17,1.09,1.09,0,0,0-.08-.15c-.05-.09-.11-.17-.16-.25l-.15-.18a.91.91,0,0,0-.1-.1Z"/><path class="cls-22" d="M126.57,6.74l.08.17s0,.12.07.19.06.16.08.26,0,.19.08.3.05.23.07.34l.06.37c0,.13,0,.26,0,.39a2.53,2.53,0,0,1,0,.38,1.28,1.28,0,0,1,0,.19c0,.07,0,.13,0,.19s0,.24,0,.35a.81.81,0,0,1,0,.16v.16s0,.09,0,.14,0,.08,0,.12,0,.15,0,.21,0,.18,0,.18l.08-.17a2,2,0,0,0,.07-.19,1.73,1.73,0,0,0,.08-.27c0-.1,0-.2.07-.32s0-.24,0-.36,0-.26,0-.39,0-.27,0-.41,0-.27-.06-.4,0-.26-.08-.38-.07-.24-.11-.35a.77.77,0,0,1-.07-.16L127,7.3a2.6,2.6,0,0,0-.13-.24,1.72,1.72,0,0,0-.13-.18.47.47,0,0,0-.09-.1Z"/><path class="cls-22" d="M142.79,14l.09.16.1.18.11.24c0,.09.07.19.11.3s.07.21.11.33.07.24.1.36.06.25.09.38.05.25.07.38l0,.18,0,.19,0,.35a.86.86,0,0,1,0,.16.76.76,0,0,1,0,.15.71.71,0,0,1,0,.14v.13a1.34,1.34,0,0,1,0,.21V18l.06-.17a1.08,1.08,0,0,0,0-.21,1.86,1.86,0,0,0,.05-.27,3.11,3.11,0,0,0,0-.33c0-.11,0-.24,0-.36l0-.39c0-.14-.05-.27-.07-.4s-.06-.26-.1-.39-.09-.25-.13-.37l-.15-.34-.08-.15-.08-.13a2.29,2.29,0,0,0-.16-.23l-.14-.16-.11-.09Z"/><path class="cls-22" d="M158.29,13.63l.12.14.12.17.14.22.15.28.16.31.15.34.14.36c0,.13.09.25.12.37l.06.18a1.21,1.21,0,0,1,.05.18l.09.34,0,.16,0,.15a.68.68,0,0,1,0,.14.5.5,0,0,1,0,.12.88.88,0,0,1,0,.21c0,.12,0,.18,0,.18a1.32,1.32,0,0,0,0-.18,1.25,1.25,0,0,0,0-.21c0-.08,0-.18,0-.28s0-.21,0-.32a2.23,2.23,0,0,0,0-.36,2.74,2.74,0,0,0-.09-.39c0-.13-.08-.25-.12-.38s-.1-.25-.16-.37a2.86,2.86,0,0,0-.18-.35c-.06-.11-.13-.21-.19-.31l-.1-.14-.11-.12a1.84,1.84,0,0,0-.19-.2,1,1,0,0,0-.16-.14l-.11-.08Z"/><path class="cls-22" d="M158.3,10.59l.14.11a2.11,2.11,0,0,0,.15.15l.18.2.19.24.21.28.21.32c.07.1.13.21.2.33s.13.22.19.34a1.19,1.19,0,0,0,.08.16l.08.17.14.32a1,1,0,0,1,.07.15.88.88,0,0,0,.05.15s0,.09.05.13,0,.08,0,.12l.06.2,0,.17a.81.81,0,0,0,0-.18,1.62,1.62,0,0,0,0-.21,1.57,1.57,0,0,0,0-.28c0-.09,0-.2-.07-.31s-.07-.23-.11-.35-.1-.24-.16-.36-.12-.24-.18-.36a4,4,0,0,0-.22-.34,3.65,3.65,0,0,0-.24-.31l-.24-.27L159,11a1.31,1.31,0,0,1-.12-.11l-.23-.16a1.25,1.25,0,0,0-.18-.11l-.13-.06Z"/><path class="cls-22" d="M143.62,10.93l.12.14.12.17.14.22c.05.08.1.18.15.28s.1.2.16.31l.15.34c0,.12.1.24.14.36s.09.25.13.37l.06.18c0,.06,0,.12.05.18s.06.23.08.34a.94.94,0,0,1,0,.16l0,.15s0,.09,0,.14,0,.08,0,.12,0,.15,0,.21,0,.18,0,.18l0-.18a1.25,1.25,0,0,0,0-.21,1.26,1.26,0,0,0,0-.28,1.77,1.77,0,0,0,0-.32,2.52,2.52,0,0,0-.05-.37A3,3,0,0,0,145,13c0-.13-.08-.25-.12-.38s-.1-.25-.16-.37a2.86,2.86,0,0,0-.18-.35,2.32,2.32,0,0,0-.19-.31l-.1-.14-.1-.12-.19-.2a1.77,1.77,0,0,0-.17-.14.59.59,0,0,0-.11-.08Z"/><path class="cls-22" d="M151.89,10.21l.12.14.13.16c0,.07.1.14.15.22l.16.27.17.31c0,.11.11.22.16.34a3.68,3.68,0,0,1,.15.35c0,.12.1.24.14.36l.06.18.06.18c0,.12.07.23.09.34a.75.75,0,0,1,0,.16,1,1,0,0,1,0,.14l0,.14a.51.51,0,0,0,0,.13.88.88,0,0,1,0,.2l0,.19,0-.19a1.34,1.34,0,0,0,0-.21,2.6,2.6,0,0,0,0-.28,1.77,1.77,0,0,0,0-.32c0-.12,0-.24-.07-.36a2.66,2.66,0,0,0-.1-.38c0-.13-.09-.25-.13-.38s-.11-.25-.17-.37-.13-.23-.19-.34l-.21-.3-.1-.14-.11-.11a1.84,1.84,0,0,0-.19-.2c-.06-.06-.13-.1-.17-.14l-.12-.07Z"/><path class="cls-22" d="M169.2,9.41l.14.12.15.14c0,.06.12.12.18.2a2.54,2.54,0,0,1,.2.24l.21.28.21.31c.07.1.14.22.21.33s.13.22.19.34l.08.16a1.4,1.4,0,0,1,.09.17L171,12a.47.47,0,0,1,.06.15l.06.14s0,.09,0,.13l0,.12a1.36,1.36,0,0,1,.06.2l.06.18v-.19a.82.82,0,0,0,0-.21,1.47,1.47,0,0,0,0-.27c0-.1,0-.21-.07-.32s-.07-.23-.12-.35-.1-.24-.16-.36a3,3,0,0,0-.19-.35,4,4,0,0,0-.22-.34,3.65,3.65,0,0,0-.24-.31A2.16,2.16,0,0,0,170,10l-.12-.11-.12-.11-.22-.16-.19-.11-.13-.05Z"/><path class="cls-22" d="M172.06,3l.18.06.18.09c.07,0,.15.07.24.13l.27.16.29.19.3.23.3.24.29.26.14.12.13.13.24.26.11.12.1.11.09.11.08.1.13.17.11.15a1.44,1.44,0,0,0-.07-.18,1.32,1.32,0,0,0-.08-.19c0-.07-.07-.16-.13-.25a1.81,1.81,0,0,0-.18-.27,1.48,1.48,0,0,0-.22-.29,3.58,3.58,0,0,0-.27-.29L174,3.93l-.32-.25-.33-.21L173,3.3l-.16-.07-.15-.06a1.53,1.53,0,0,0-.26-.08l-.21,0h-.19Z"/><path class="cls-22" d="M176.83,4.65l.14.12a1,1,0,0,1,.15.14,1.69,1.69,0,0,1,.19.19l.2.24.22.27.21.31a2.3,2.3,0,0,1,.21.33c.07.11.14.22.2.33l.09.17.09.16.15.32.06.15.06.14a.69.69,0,0,1,0,.13l.05.12A.89.89,0,0,1,179,8l.06.17V8a2,2,0,0,0,0-.22,1.57,1.57,0,0,0-.05-.27,2.14,2.14,0,0,0-.08-.32c0-.11-.07-.22-.12-.34s-.1-.24-.16-.36-.13-.23-.2-.35-.15-.23-.23-.33a3.65,3.65,0,0,0-.24-.31c-.09-.09-.17-.18-.26-.26l-.12-.12-.13-.1-.22-.16-.19-.1a.55.55,0,0,0-.13,0Z"/><path class="cls-22" d="M178.62,1l.16.1.17.11.21.16.24.21.25.24.26.27c.09.09.17.2.26.29l.24.3a1,1,0,0,0,.11.15l.11.15c.07.1.14.2.2.3l.08.13.08.13.07.13a.6.6,0,0,1,.06.11,1.8,1.8,0,0,1,.1.18l.08.17,0-.18a1,1,0,0,0-.05-.21,1.53,1.53,0,0,0-.08-.26c0-.1-.08-.2-.13-.3a2.68,2.68,0,0,0-.18-.33,3,3,0,0,0-.21-.33,3.4,3.4,0,0,0-.25-.31,3.85,3.85,0,0,0-.27-.3,3.71,3.71,0,0,0-.29-.27,3.15,3.15,0,0,0-.29-.22l-.14-.09-.13-.08c-.09-.06-.18-.09-.25-.13l-.2-.08-.14,0Z"/><path class="cls-22" d="M183.4,4.15l0-.18a.51.51,0,0,0,0-.2c0-.08,0-.18-.07-.27s-.07-.2-.12-.31S183,3,183,2.86a2.9,2.9,0,0,0-.2-.33,3.88,3.88,0,0,0-.23-.33l-.26-.31L182,1.61l-.28-.23-.14-.1-.13-.09a1.15,1.15,0,0,0-.24-.13L181,1l-.13,0,0,0L181,1l.17.13.21.17.22.21a.74.74,0,0,1,.12.13l.13.12.25.29.24.3a3.55,3.55,0,0,1,.23.31l.11.15a1.4,1.4,0,0,1,.1.16l.19.29c.06.1.1.19.15.28a.75.75,0,0,1,.07.12l0,.12a1.07,1.07,0,0,1,.09.19Z"/><path class="cls-22" d="M122.62,35.48l.39-.33.2-.19.22-.22.13-.13.12-.14.27-.3c.1-.11.18-.23.28-.34l.29-.38c.18-.26.39-.53.57-.83.1-.15.2-.3.29-.46l.28-.47c.09-.16.17-.33.26-.5s.18-.33.26-.5.16-.34.23-.51.15-.35.22-.52.07-.17.11-.25l.09-.26c.07-.17.13-.34.19-.5s.11-.34.15-.5a4.34,4.34,0,0,0,.14-.48c0-.15.08-.31.12-.45s.06-.3.09-.43,0-.27.08-.4,0-.25.05-.36a5.11,5.11,0,0,0,.06-.59c0-.33,0-.51,0-.51l-.08.5c0,.17-.07.36-.12.58s0,.23-.07.35-.07.26-.1.39-.16.56-.25.87c-.05.15-.1.3-.16.46s-.11.32-.17.49-.25.66-.4,1c-.07.17-.14.34-.22.51l-.24.5c-.08.17-.17.33-.25.5s-.16.33-.26.49-.17.32-.26.47-.18.31-.27.46-.37.58-.54.85-.18.25-.27.38-.16.24-.25.35l-.25.32a1.34,1.34,0,0,1-.11.14,1.34,1.34,0,0,0-.11.14,2.25,2.25,0,0,0-.21.24l-.18.2Z"/><path class="cls-22" d="M140.92,35.15l.28-.43.14-.24c0-.08.09-.18.15-.28l.08-.15.08-.17c.06-.12.11-.24.17-.37s.11-.27.17-.41a4.49,4.49,0,0,0,.17-.44c.11-.3.23-.62.32-1,0-.17.1-.34.14-.52s.09-.36.13-.54.07-.36.11-.54a5.48,5.48,0,0,0,.1-.56l.09-.56.06-.55,0-.28c0-.09,0-.18,0-.27l0-.54c0-.17,0-.35,0-.52s0-.33,0-.49,0-.32,0-.47,0-.3,0-.44,0-.28,0-.4,0-.25,0-.37-.07-.42-.11-.58c-.08-.32-.12-.5-.12-.5s0,.19.06.51c0,.16,0,.36.06.59s0,.23,0,.36,0,.26,0,.4,0,.58,0,.9c0,.16,0,.32,0,.49s0,.34,0,.51c0,.35-.06.71-.1,1.07,0,.18,0,.36-.07.55l-.09.55c0,.18-.06.36-.09.55s-.07.36-.11.54l-.12.53a4.77,4.77,0,0,1-.13.51c-.08.34-.18.66-.27,1l-.15.44c0,.14-.09.28-.14.41l-.15.37-.06.18a.77.77,0,0,0-.07.16c-.05.1-.09.2-.13.29l-.12.24Z"/><path class="cls-22" d="M135.59,29.53l.28-.44.13-.23c.05-.09.1-.18.15-.29l.09-.15a1.3,1.3,0,0,1,.08-.17l.16-.37c.06-.13.11-.27.17-.41s.12-.29.17-.44c.1-.31.21-.63.3-1,0-.17.1-.34.14-.52s.09-.35.13-.53.07-.37.11-.55.07-.37.1-.56.05-.37.07-.55,0-.38.06-.56l0-.28c0-.09,0-.18,0-.27l0-.54v-.52c0-.17,0-.33,0-.49s0-.32,0-.47a3.13,3.13,0,0,0,0-.44c0-.14,0-.28,0-.4s0-.25-.06-.36a3.68,3.68,0,0,0-.11-.59c-.08-.31-.12-.5-.12-.5s0,.19.07.51c0,.16,0,.36.06.59s0,.23,0,.36,0,.26,0,.4,0,.58,0,.9c0,.16,0,.32,0,.49s0,.34,0,.51c0,.35,0,.71-.09,1.07l-.06.55-.09.55c0,.19-.06.37-.09.55s-.06.36-.1.54-.08.36-.11.53-.09.35-.13.52c-.08.34-.18.66-.27,1,0,.15-.1.3-.14.44s-.09.28-.14.41-.1.26-.15.37l-.06.18a1.11,1.11,0,0,0-.07.16c-.05.1-.09.2-.13.29s-.07.17-.11.25C135.67,29.36,135.59,29.53,135.59,29.53Z"/><path class="cls-22" d="M124.54,26l.31-.41a2.1,2.1,0,0,0,.15-.22l.17-.27c0-.05.07-.1.1-.16l.09-.16.19-.36c.07-.12.12-.26.19-.4s.13-.28.19-.43.25-.61.36-.95.22-.68.32-1c0-.18.09-.36.13-.54s.1-.37.13-.55.07-.37.11-.56.06-.37.08-.55,0-.18,0-.27l0-.28c0-.18,0-.35,0-.53s0-.35,0-.52,0-.33,0-.5,0-.31,0-.47,0-.3,0-.44,0-.27,0-.4l0-.36c0-.23,0-.43-.07-.59-.06-.33-.09-.51-.09-.51s0,.19,0,.51a5.25,5.25,0,0,1,0,.59c0,.12,0,.24,0,.36s0,.26,0,.4,0,.59,0,.9a4,4,0,0,1,0,.49c0,.17,0,.34,0,.52s0,.34-.07.52l0,.27c0,.09,0,.18,0,.27l-.09.55c0,.18-.07.36-.11.54s-.08.36-.12.54-.08.37-.13.54-.09.35-.14.53-.1.34-.15.51c-.1.33-.22.65-.32.95s-.12.29-.17.43-.1.28-.16.4l-.17.37-.08.17a1.09,1.09,0,0,1-.08.15l-.14.29-.13.23Z"/><path class="cls-22" d="M143.93,39.48l.07-.11a3.21,3.21,0,0,0,.18-.34c.08-.15.16-.33.25-.54s.19-.45.29-.71.19-.56.29-.87.2-.63.29-1,.19-.69.28-1,.16-.73.23-1.1.14-.74.19-1.1.1-.73.14-1.08.06-.7.08-1,0-.63,0-.91,0-.28,0-.41l0-.36a2.79,2.79,0,0,0,0-.32c0-.1,0-.19,0-.27s0-.15,0-.22,0-.11,0-.15l0-.13,0,.13,0,.16a2,2,0,0,0,0,.22c0,.08,0,.17,0,.27s0,.2,0,.32v.36c0,.12,0,.26,0,.4s0,.58-.06.9-.06.65-.11,1-.1.7-.16,1.06-.12.73-.2,1.1-.14.73-.22,1.09-.16.71-.25,1.05-.17.67-.25,1l-.25.87c-.08.26-.16.51-.24.72s-.14.41-.2.56-.1.27-.14.35Z"/><path class="cls-22" d="M150.6,35.89a.67.67,0,0,1,.05-.12l.12-.35c0-.16.1-.35.16-.56s.1-.47.15-.74.1-.57.14-.89.08-.65.1-1,.06-.7.07-1.07,0-.73,0-1.1,0-.73,0-1.1,0-.72-.07-1.06-.07-.68-.11-1-.1-.61-.15-.88l-.09-.39-.09-.34a2.11,2.11,0,0,0-.1-.3c0-.1,0-.18-.08-.26l-.08-.2-.07-.14-.06-.12.05.12s0,.09,0,.15,0,.13.05.21a1.63,1.63,0,0,1,.07.26q0,.14.06.3c0,.11.05.23.07.35s0,.25.06.39.07.57.11.88,0,.64.07,1,0,.7,0,1.06,0,.73,0,1.09,0,.73,0,1.1,0,.71,0,1,0,.68-.07,1,0,.61-.08.88-.07.52-.11.74-.07.42-.1.57-.06.28-.09.37Z"/><path class="cls-22" d="M158.7,34.6l0-.13c0-.09.08-.21.13-.38s.1-.36.16-.6.12-.49.17-.78.12-.6.16-.94.1-.69.13-1.05.06-.75.07-1.14,0-.78,0-1.17,0-.79-.07-1.18-.08-.76-.14-1.13-.14-.71-.22-1c0-.17-.08-.33-.13-.48s-.09-.3-.15-.44a6,6,0,0,0-.3-.74c-.05-.11-.09-.21-.14-.31l-.13-.25c-.08-.15-.16-.26-.21-.34a.86.86,0,0,0-.07-.12l.06.12.17.36.11.26c0,.1.08.2.12.32s.16.47.24.75.16.59.23.91.13.68.18,1,.08.73.12,1.11,0,.77.06,1.16,0,.78,0,1.16,0,.76-.05,1.13-.06.71-.09,1.05-.07.64-.11.93-.08.56-.12.79-.08.44-.12.61-.06.3-.08.39Z"/><path class="cls-22" d="M161.79,36.13l.06-.13a2.06,2.06,0,0,0,.17-.36c0-.08.07-.16.11-.26s.08-.2.11-.32a7.39,7.39,0,0,0,.22-.77,1.6,1.6,0,0,0,0-.21,1.89,1.89,0,0,0,.05-.23c0-.16.06-.32.09-.48s0-.34.08-.52l.06-.53c0-.19,0-.37,0-.56s0-.38,0-.57q0-.59,0-1.17c0-.39,0-.78-.07-1.17s-.09-.76-.14-1.12-.12-.71-.2-1-.16-.64-.24-.92-.09-.27-.14-.4a3.62,3.62,0,0,0-.13-.35c-.09-.22-.18-.41-.26-.56l-.11-.2a1,1,0,0,0-.09-.15.64.64,0,0,1-.07-.12l.06.13.07.15a2.2,2.2,0,0,1,.09.21c.06.16.14.35.21.57s.14.48.21.77.14.58.2.91.11.67.16,1,.08.74.11,1.12,0,.76.06,1.15,0,.77,0,1.15,0,.76,0,1.12c0,.18,0,.35-.05.53s0,.34-.05.51,0,.32-.07.48l0,.22a2.07,2.07,0,0,0,0,.22c0,.14-.06.28-.08.41l-.09.37c0,.11-.06.22-.09.31a1.73,1.73,0,0,1-.08.27c0,.08-.05.16-.07.22l-.06.16Z"/><path class="cls-22" d="M164.89,28.15a1.13,1.13,0,0,0,0-.12,1.9,1.9,0,0,0,.07-.36c0-.16,0-.35.05-.57s0-.23,0-.36,0-.25,0-.39,0-.56,0-.88-.07-.63-.12-1-.11-.68-.19-1-.16-.7-.26-1-.21-.7-.32-1-.25-.66-.38-1-.27-.61-.42-.89a7.62,7.62,0,0,0-.44-.76l-.1-.17-.11-.16-.21-.28-.2-.24a1.66,1.66,0,0,0-.18-.19l-.15-.15-.12-.11-.1-.08.09.09.11.12a1.53,1.53,0,0,0,.13.16l.16.21a.83.83,0,0,0,.08.12l.09.13.19.29.09.17.1.17c.13.23.26.49.39.77s.25.58.38.89.23.64.35,1,.21.67.31,1,.18.69.26,1,.15.68.21,1,.12.65.16,1,.07.59.1.86,0,.26,0,.39,0,.23,0,.34v.57c0,.16,0,.28,0,.37A1.09,1.09,0,0,0,164.89,28.15Z"/><path class="cls-22" d="M175.74,27.47a1.06,1.06,0,0,1,0-.17,4.61,4.61,0,0,0,0-.47v-.34c0-.12,0-.25,0-.39s-.05-.6-.1-1-.13-.71-.21-1.1-.19-.8-.32-1.22-.25-.84-.4-1.28-.32-.86-.5-1.29-.38-.85-.58-1.26c-.1-.2-.2-.41-.31-.6s-.21-.39-.32-.58l-.33-.55c-.12-.18-.23-.35-.35-.51a4.37,4.37,0,0,0-.34-.47l-.17-.22-.17-.21a4.1,4.1,0,0,0-.33-.37l-.32-.33c-.1-.1-.2-.18-.29-.26l-.13-.12-.13-.1-.22-.16-.17-.11-.14-.09.13.11.16.12.2.18.12.1.13.12c.08.09.18.18.27.29l.29.33.15.19a1.56,1.56,0,0,1,.16.2l.16.21.15.22c.11.15.22.32.32.48s.21.34.32.52.22.36.32.55c.21.37.41.77.61,1.18.09.2.19.41.28.62s.19.41.27.63c.19.42.35.85.51,1.27s.3.85.42,1.26.25.81.35,1.2c.05.19.1.37.14.56s.08.35.11.52c.07.34.12.65.16.93s0,.27.05.39a3.25,3.25,0,0,0,0,.33c0,.2,0,.36,0,.47Z"/><path class="cls-22" d="M171.55,24.33v-.11a2.33,2.33,0,0,0,0-.32,1.76,1.76,0,0,0,0-.23c0-.09,0-.18,0-.27l0-.31c0-.11,0-.22,0-.34s-.09-.49-.15-.76-.14-.54-.24-.83-.19-.58-.3-.87-.24-.58-.37-.87-.28-.58-.42-.86l-.23-.4q-.12-.21-.24-.39c-.07-.13-.16-.25-.24-.37l-.24-.34c-.17-.22-.33-.43-.49-.61l-.23-.25-.22-.21-.21-.19-.18-.14-.14-.11-.12-.08-.1-.06.09.08.1.08.14.13.16.16.18.2c.07.07.13.15.2.23l.21.26.22.3.22.32q.23.34.45.72c.15.26.29.53.43.8s.28.55.41.84.26.57.37.86.23.57.33.85l.26.8c0,.13.07.26.11.38l.09.36c0,.11,0,.22.07.33l.06.3c0,.19.05.35.06.49s0,.25,0,.32Z"/><path class="cls-22" d="M168.09,31.17l0-.11c0-.07,0-.18.08-.31s0-.14.05-.23,0-.17,0-.26.05-.41.06-.64,0-.5,0-.77,0-.55,0-.85,0-.6-.06-.91-.07-.62-.11-.93-.1-.63-.15-.93-.13-.6-.2-.89-.15-.56-.24-.82l-.12-.38c-.05-.12-.09-.23-.14-.34s-.18-.42-.27-.59S167,22.05,167,22l-.12-.19-.1-.15-.09-.11-.07-.09.06.1.07.12.08.16a1.24,1.24,0,0,1,.1.2c0,.08.07.16.11.25s.07.18.1.28a2.83,2.83,0,0,1,.11.31c.08.22.15.47.22.73s.13.53.19.81.12.59.18.89.1.61.14.91.08.62.11.93.07.6.09.89,0,.58.05.85,0,.52,0,.75,0,.45,0,.64,0,.18,0,.26a2.15,2.15,0,0,0,0,.23c0,.13,0,.24,0,.31A.56.56,0,0,0,168.09,31.17Z"/><path class="cls-22" d="M181.91,15.32a.66.66,0,0,0,0-.09,1.94,1.94,0,0,0,0-.24c0-.11,0-.24,0-.39a1.85,1.85,0,0,0,0-.23,2.48,2.48,0,0,0,0-.27,4.51,4.51,0,0,0-.11-.58,5.74,5.74,0,0,0-.19-.64c-.08-.21-.17-.44-.27-.66s-.21-.43-.33-.65-.25-.42-.39-.62-.28-.38-.43-.56-.3-.34-.45-.49l-.23-.21-.22-.18-.21-.16-.2-.13a2.3,2.3,0,0,0-.34-.18.84.84,0,0,0-.23-.1l-.08,0,.08,0,.2.13.31.23.18.15.19.17.4.41.2.24.21.26.2.27c.07.1.14.19.2.29s.25.4.37.61.23.42.33.63.2.42.28.63.16.41.22.6.12.39.16.56.07.34.09.48,0,.27,0,.38a1.56,1.56,0,0,1,0,.24Z"/><path class="cls-22" d="M180.57,19.09l0-.12a2.67,2.67,0,0,0,.06-.32,3.49,3.49,0,0,0,0-.5v-.32c0-.11,0-.22,0-.34s0-.5-.1-.78,0-.27-.08-.41-.07-.29-.11-.44-.17-.59-.28-.89-.22-.59-.36-.89l-.21-.43c-.08-.14-.15-.29-.23-.42a8.85,8.85,0,0,0-.5-.79,6.5,6.5,0,0,0-.55-.68,5.86,5.86,0,0,0-.55-.56l-.27-.22-.25-.19a3.12,3.12,0,0,0-.44-.26,2.37,2.37,0,0,0-.29-.14l-.11,0,.1.05.28.18c.11.07.24.18.4.3l.23.2c.07.08.16.15.24.24s.34.36.51.57.33.44.5.69.32.5.47.78.14.27.22.41.14.28.2.43a9.37,9.37,0,0,1,.36.87c.11.29.22.57.3.86s.16.56.22.82c0,.07,0,.14,0,.2a1.62,1.62,0,0,1,0,.19c0,.13,0,.25.06.37s0,.23.05.33l0,.31c0,.19,0,.36,0,.5a1.21,1.21,0,0,0,0,.18c0,.06,0,.11,0,.14Z"/><path class="cls-22" d="M183.74,8.14l.16.14.16.16.21.21.24.26.26.3.26.33.12.18a1.13,1.13,0,0,1,.12.18c.09.11.15.24.23.36a1.74,1.74,0,0,0,.1.19l.09.18a1.42,1.42,0,0,0,.08.18l.06.18a3,3,0,0,1,.1.33,1.25,1.25,0,0,1,.06.29.69.69,0,0,1,0,.13.38.38,0,0,1,0,.1c0,.13,0,.21,0,.21s0-.08,0-.21v-.1a.57.57,0,0,0,0-.13,1.66,1.66,0,0,0,0-.31c0-.06,0-.12,0-.18s0-.12,0-.19,0-.13-.05-.19,0-.13-.07-.2a1.19,1.19,0,0,0-.08-.2,1.24,1.24,0,0,0-.1-.2,3.07,3.07,0,0,0-.23-.39,1.27,1.27,0,0,0-.13-.19l-.13-.18-.15-.17L185,9.05l-.29-.28-.28-.23-.25-.18-.2-.13Z"/><path class="cls-22" d="M183.39,5.21l.17.1.2.13.25.17.28.21.31.24.32.27.16.15.15.15c.11.1.2.21.3.32l.13.16a1,1,0,0,1,.12.16l.12.16a.86.86,0,0,0,.1.16l.16.31c.05.1.08.19.12.27s0,.08,0,.12l0,.1a1.3,1.3,0,0,0,.06.2s0-.08,0-.21V8.27a.5.5,0,0,0,0-.12,2.22,2.22,0,0,0-.07-.31l-.06-.17a1.22,1.22,0,0,0-.07-.17l-.09-.18a1.74,1.74,0,0,0-.11-.18.76.76,0,0,0-.12-.19,1.92,1.92,0,0,0-.13-.17,3.31,3.31,0,0,0-.3-.34l-.17-.16-.17-.15a1.09,1.09,0,0,0-.17-.13l-.17-.13c-.12-.08-.23-.16-.34-.22l-.32-.18-.28-.12-.23-.08Z"/><path class="cls-22" d="M180.26,7.6l.16.12.18.15.23.19.26.24a3.57,3.57,0,0,1,.28.27c.1.1.2.2.29.31a1.07,1.07,0,0,1,.14.16c0,.05.09.11.14.17l.26.34a1.74,1.74,0,0,1,.11.18,1,1,0,0,1,.11.17,1,1,0,0,0,.1.17c0,.06,0,.12.08.17s.09.22.13.33.06.19.09.28l0,.12s0,.07,0,.1l0,.21s0-.08,0-.21V11s0-.08,0-.13a1.77,1.77,0,0,0,0-.3l0-.18-.06-.18a1.46,1.46,0,0,0-.07-.19l-.09-.19a.93.93,0,0,0-.1-.2l-.11-.19a4.33,4.33,0,0,0-.27-.37L182,8.86l-.15-.16-.16-.16-.16-.14a3.65,3.65,0,0,0-.32-.26,2.61,2.61,0,0,0-.3-.2,1.53,1.53,0,0,0-.26-.16l-.21-.11Z"/><path class="cls-22" d="M132.12,16.21l0,.22c0,.15,0,.36,0,.64s0,.61,0,1,0,.82-.08,1.29-.1,1-.17,1.52-.16,1.1-.26,1.68-.22,1.17-.36,1.78-.29,1.21-.46,1.82c-.09.3-.17.6-.27.9-.05.15-.1.3-.14.44l-.15.44c-.05.15-.1.3-.16.44l-.16.43-.33.83c-.24.54-.47,1.06-.72,1.54l-.18.35c-.06.12-.13.23-.19.34l-.18.33-.19.3-.18.3-.19.27c-.11.18-.23.35-.34.5s-.22.3-.33.43l-.29.36-.12.15-.12.13-.18.2-.15.17.17-.16.2-.18.12-.12.14-.14.31-.34c.12-.12.23-.26.36-.41l.38-.48.2-.27c.06-.1.13-.19.2-.29l.2-.3.2-.33.21-.33.19-.35c.27-.48.53-1,.77-1.54l.36-.84c.11-.28.23-.57.33-.87s.1-.29.16-.44.09-.3.14-.45c.1-.3.19-.61.28-.91.17-.62.32-1.23.45-1.85s.24-1.21.34-1.8.16-1.16.21-1.7c0-.27,0-.54.07-.8s0-.5,0-.74c0-.47,0-.91,0-1.3s0-.72-.07-1-.07-.49-.09-.63A2.16,2.16,0,0,1,132.12,16.21Z"/><path class="cls-22" d="M134.32,19.34s0,.08,0,.23,0,.36,0,.64,0,.61-.08,1-.1.81-.18,1.28-.18,1-.29,1.49-.24,1.09-.39,1.66-.32,1.16-.5,1.75-.39,1.18-.61,1.77c-.11.3-.22.59-.34.88s-.11.29-.17.43-.13.29-.19.43-.12.28-.19.42l-.19.42c-.13.27-.26.54-.4.8-.27.52-.55,1-.83,1.48l-.21.33-.22.33-.21.31-.21.29-.2.28-.21.26c-.13.17-.26.33-.39.47l-.35.4-.32.33-.13.14-.13.12-.2.19-.16.15.18-.14.21-.17.14-.1.14-.14.34-.3c.13-.12.25-.25.39-.39s.27-.29.42-.45l.22-.25.22-.27.23-.29.22-.3c.08-.11.16-.21.23-.32l.23-.34c.3-.45.6-.95.89-1.47l.42-.8c.13-.28.27-.56.39-.85s.13-.28.2-.43l.18-.43.35-.89c.21-.6.42-1.2.6-1.8s.33-1.19.47-1.77S134,24.56,134,24c.05-.27.09-.53.13-.79s.07-.5.1-.73c.06-.48.09-.91.11-1.3s0-.72,0-1,0-.5,0-.64Z"/><path class="cls-22" d="M153.64,19.09l.11.19a1.33,1.33,0,0,1,.12.24,3.17,3.17,0,0,1,.16.32c.05.13.12.26.17.42s.07.15.1.23l.09.26c.13.35.26.75.4,1.2.06.22.13.45.19.69s.12.49.18.75c.12.52.23,1.07.33,1.64.06.28.1.57.14.86s0,.3.06.45l.06.45q.1.9.15,1.83c0,.61.06,1.23,0,1.84,0,.3,0,.6,0,.89s0,.59-.06.88c-.06.57-.12,1.13-.21,1.65l-.06.39c0,.12-.05.25-.08.37s0,.24-.07.36l-.09.34c0,.11,0,.22-.08.33l-.09.31c0,.1-.06.2-.08.3l-.1.27c-.06.18-.11.35-.17.5l-.16.42-.14.33-.11.24-.09.21.11-.2.13-.23.08-.15c0-.05,0-.11.08-.17l.2-.41c.07-.15.13-.31.21-.49s.07-.18.11-.27l.1-.3.11-.3c0-.11.06-.22.1-.33s.07-.23.1-.35.06-.23.09-.36l.09-.37c0-.13.06-.26.08-.39.11-.53.19-1.09.26-1.67s.11-1.18.12-1.8,0-1.24,0-1.86-.09-1.25-.17-1.85-.18-1.21-.29-1.78-.24-1.13-.38-1.64-.29-1-.44-1.45l-.23-.63c-.09-.19-.16-.38-.24-.56s-.07-.17-.11-.25l-.11-.23c-.07-.15-.14-.28-.21-.4a2.84,2.84,0,0,0-.18-.31l-.14-.23Z"/><path class="cls-31" d="M178.78.82a98.19,98.19,0,0,0-12.32,4.62c-5,2.45-9,4.22-13.85,5s-12.18.86-16.89-.24c-3.74-.87-4.32-1.52-4.32-1.52a16.66,16.66,0,0,0,5.15,1.42,87.71,87.71,0,0,0,10.79.34A34.65,34.65,0,0,0,157,8.73,63.55,63.55,0,0,0,165.92,5,59.35,59.35,0,0,1,178.78.82Z"/><path class="cls-5" d="M129.22,43.38c-9.84-1.27-19.47-3.76-23.43-6C101.68,35,110.57,19.09,111.17,18l-.31-8.25a.14.14,0,0,1,.08-.13l11.58-5.31a.14.14,0,0,1,.14,0A29.77,29.77,0,0,0,135,9.13a76.93,76.93,0,0,0,9.26.69,39.31,39.31,0,0,0,7.27-.69l1.54-.25c3.17-.48,6.81-2.15,9.46-3.36,1.07-.49,2-.91,2.64-1.15s1.38-.52,2.15-.83c3-1.21,7.19-2.86,11.22-2.86h1.22c2,0,4,.18,5.6,2.27,1.38,1.8,3.37,7,1.06,13.68A37.14,37.14,0,0,1,178.85,29,49,49,0,0,1,167,37.09a62.74,62.74,0,0,1-12.48,4.76A64.25,64.25,0,0,1,138.08,44h0A68.05,68.05,0,0,1,129.22,43.38ZM179.24,1h-.41c-4.07-.08-8.31,1.61-11.4,2.84-.77.31-1.51.6-2.15.83s-1.56.65-2.63,1.14C160,7,156.33,8.66,153.12,9.16l-1.53.24a39.72,39.72,0,0,1-7.32.7A75.48,75.48,0,0,1,135,9.4a29.93,29.93,0,0,1-12.41-4.79L111.13,9.85l.32,8.2a.19.19,0,0,1,0,.07,90.49,90.49,0,0,0-4.25,8.69c-2.42,5.81-2.86,9.37-1.25,10.29,3.93,2.27,13.52,4.74,23.32,6a69.38,69.38,0,0,0,8.83.58h0a62.61,62.61,0,0,0,28.76-6.85,49.08,49.08,0,0,0,11.82-8.08,36.85,36.85,0,0,0,7.51-12.22c2.27-6.6.33-11.67-1-13.43-1.52-2-3.5-2.15-5.39-2.15Z"/><path class="cls-32" d="M120.57,4.21c-1.15,0-1.3-.77-2.73-.32-2.18.68-4.25,1.29-6.09,3a36.16,36.16,0,0,1-3.89,3.45c-.47.37-1,2-2,3.17-.63.74-.38,2.25-1.14,3.44-1.56,2.38-2.34,6.2-2.57,9.82-.1,1.63.39,2.44.51,3.84.17,1.93,0,4,.72,5s1.55-.09,1.86.94a1.39,1.39,0,0,0,1.59,1.09c.82-.14,2.42-.91,3-1.06,4.31-1.21,9.9-6.87,12.89-15.86,1.53-5,2.65-8.16,1.52-12.36-.25-1,.14-1.31-.08-2.38C123.87,4.55,122,4.21,120.57,4.21Z"/><path class="cls-5" d="M105.11,36.54c-.11-.35-.25-.38-.44-.38h-.39a1.18,1.18,0,0,1-1-.53c-.54-.73-.6-2.07-.65-3.49,0-.52-.05-1.06-.09-1.57a10.53,10.53,0,0,0-.26-1.45,7.83,7.83,0,0,1-.26-2.42c.15-2.44.69-7,2.59-9.9a5,5,0,0,0,.61-1.87,3.27,3.27,0,0,1,.55-1.58,11.26,11.26,0,0,0,1.22-2,4.12,4.12,0,0,1,.79-1.23,24,24,0,0,0,2.93-2.53c.26-.26.53-.54,1-.92a14.71,14.71,0,0,1,5.93-2.92l.22-.06a2.77,2.77,0,0,1,.84-.15,2.27,2.27,0,0,1,.93.23,2.42,2.42,0,0,0,1,.23h0c1,0,3.37.18,3.71,1.83a4.06,4.06,0,0,1,0,1.28,2.61,2.61,0,0,0,0,1.1c1.08,4,.15,7-1.26,11.6-.09.27-.17.56-.26.85a32.64,32.64,0,0,1-6,10.89,15.41,15.41,0,0,1-7,5.06c-.21.06-.56.2-1,.37a11.66,11.66,0,0,1-2,.7l-.3,0A1.6,1.6,0,0,1,105.11,36.54ZM120.56,4.36a2.59,2.59,0,0,1-1.1-.25,2,2,0,0,0-.82-.21,2.46,2.46,0,0,0-.75.13l-.22.07A14.29,14.29,0,0,0,111.85,7c-.42.37-.68.64-.94.9a24.41,24.41,0,0,1-3,2.56,4.35,4.35,0,0,0-.71,1.13,12.13,12.13,0,0,1-1.26,2A3.13,3.13,0,0,0,105.5,15a5.6,5.6,0,0,1-.65,2c-1.36,2.08-2.29,5.64-2.55,9.75a7.71,7.71,0,0,0,.26,2.33,11.17,11.17,0,0,1,.26,1.49c.05.52.07,1.06.09,1.59.06,1.37.11,2.67.6,3.32a.93.93,0,0,0,1,.4h.19c.27,0,.56.07.72.59a1.3,1.3,0,0,0,1.17,1l.25,0a12.29,12.29,0,0,0,2-.69c.43-.17.79-.32,1-.38a15.26,15.26,0,0,0,6.87-5,32.36,32.36,0,0,0,5.92-10.8c.09-.28.17-.57.26-.84,1.39-4.52,2.31-7.51,1.26-11.43A3.27,3.27,0,0,1,124,7.13,3.13,3.13,0,0,0,124,6c-.29-1.44-2.49-1.6-3.42-1.6Z"/><path class="cls-33" d="M120,5.4c-1.07,0-1.2-.71-2.53-.29a13.85,13.85,0,0,0-5.65,2.72A32.46,32.46,0,0,1,108.27,11c-.43.33-.93,1.84-1.83,2.91-.57.68-.34,2.07-1,3.16-1.42,2.19-2.13,5.7-2.32,9-.09,1.49.37,2.24.49,3.53.16,1.77,0,3.71.67,4.59s1.41-.09,1.71.86a1.26,1.26,0,0,0,1.44,1c.75-.13,2.22-.84,2.73-1,3.94-1.1,9.06-6.31,11.83-14.59,1.43-4.59,2.48-7.51,1.46-11.38-.22-.88.14-1.21-.06-2.2C123.1,5.71,121.37,5.4,120,5.4Z"/><path class="cls-9" d="M111.11,18.57a28.86,28.86,0,0,0-3.69-.71c-.4,0-1.7.32-2,1.08a4.64,4.64,0,0,0-.13,4,16.07,16.07,0,0,1,.58,8,2.94,2.94,0,0,0,.69,2.2c.69.5,1.48,0,2-.82A31.94,31.94,0,0,0,111,26.3c.35-1.13,1.12-5,1.12-5s-.29,2.93-.39,4.45-.18,3.84-.27,4.77.6,1.68,1.51,1.25,1.91-1,2.86-3.28c.55-1.3,1-4.51,2.08-6.78s2.86-4,3.61-5.25c1.68-2.72.73-3.19-.16-3.33s-5.27,2.36-6.74,4c1.15-1.48,5.44-6.77,5.74-7.84a1.8,1.8,0,0,0-1.7-2.49c-1-.13-1.76.67-4.36,3.4a14,14,0,0,1-3.14,2.21c-1.12.59-2.78-.37-3.8,1.39-.44.76-.88,1.68-.24,2.42C107.43,16.54,111.11,18.57,111.11,18.57Z"/><path class="cls-11" d="M118,16c-.55-.63-1.68.14-2.23-.32s.52-3.6-.6-3.4c-.49.09-2,3.35-5.49,4.15-.74.16,1.51,1.1.79,1.92s-2.12.64-2.37,1.52.92,1.78,1.08,2.24a18.94,18.94,0,0,0,.39,2c.26.53-.63,2.51.11,1.7s1.48-2.91,2.14-3c.4,0,1,2,1.87.66s3-5,3.3-5.81S118.22,16.17,118,16Z"/><g class="cls-34"><path class="cls-35" d="M111.94,18.67c.15.45-.7.54-1.8.69s-3.06-.91-3.42-.13,1.84,1.75,2,3.37a13,13,0,0,1-.17,3.47c-.11.74-.56,3-.13,2.43a14.93,14.93,0,0,0,2.07-4.1,18.08,18.08,0,0,1,1.67-4.14c.27-.25.91-1.51.77.77s-.18,2.24-.25,4.26c-.07,2.26.21,2.66.61,2.93s.93.15.82-1a16.25,16.25,0,0,1,1.42-5.74A10.64,10.64,0,0,1,118.13,18c1.18-1.15,2.52-1.67,2.58-3,.05-1-2,0-3.3.92s-3,2-3.43,1.95.23-1.12.56-1.74c1.56-2.8,2.62-4.63,2.69-5.67s-.38-1.86-.9-.57-2.3,3.2-3.28,4.34a4,4,0,0,1-3.69,1.22c-.28-.11-1.16-.06-1,.51a1.83,1.83,0,0,0,1.38,1.06A3.41,3.41,0,0,1,111.94,18.67Z"/></g><path class="cls-13" d="M116.26,18.49c-.08.25-.38.51-.59,1a10.8,10.8,0,0,1-.91,1.5c-.22.3-.73.62-.88.22a8.11,8.11,0,0,1-.33-1.06c-.09-.42-.6-.54-.33-1s.83-.38,1-.39a3.5,3.5,0,0,0,1-.58c.23-.19.51-.45.74-.41S116.42,18,116.26,18.49Z"/><g class="cls-14"><path class="cls-15" d="M114,20.39c.1.24.32.13.37,0,.16-.46.08-.43,0-.53s-.3,0-.38.18S113.94,20.22,114,20.39Z"/></g><path class="cls-15" d="M114.84,19.26c.1.24.32.13.37,0,.16-.46.09-.44,0-.53s-.3.05-.39.18S114.78,19.09,114.84,19.26Z"/><path class="cls-13" d="M111.85,19.49a1.92,1.92,0,0,1-1.07.29.8.8,0,0,0-.94.43,1.35,1.35,0,0,0,0,1.06,2.92,2.92,0,0,1,0,1.17c-.08.4-.06,1.12.19,1a5.19,5.19,0,0,0,1.17-1.76c.37-.91,1.12-1.75,1.18-2.19S112,19.43,111.85,19.49Z"/><path class="cls-15" d="M110.14,20.8c.1.25.31.14.36,0,.15-.46.08-.44,0-.53s-.29.05-.37.18S110.07,20.64,110.14,20.8Z"/><path class="cls-15" d="M110.17,22.37c0,.29.4.17.42,0,.11-.52,0-.51-.17-.54S110.14,22.18,110.17,22.37Z"/><path class="cls-13" d="M114.05,15.89c.09-.5.2-1.08-.2-1-.18.05-.35.66-.87.88s-.72-.07-1,.28a.77.77,0,0,0,0,1,1.16,1.16,0,0,1,.43.69c0,.25.17.68.42.55s.39-.36.59-1A11,11,0,0,0,114.05,15.89Z"/><path class="cls-15" d="M112.65,17.08c.1.25.32.14.37,0,.16-.45.09-.43,0-.53s-.3.06-.38.19S112.59,16.92,112.65,17.08Z"/><g class="cls-17"><path class="cls-18" d="M114.42,16.38c.09.07.09.92.51,1.12.21.11-.88.4-1.39.89a2.08,2.08,0,0,0-.61,1.41c0,.48.08,1.51-.14,1.25s-1.31.57-1.22.26.91-1.47.82-1.91-.81-.26-1.29-.15a4.61,4.61,0,0,0,.36-.61c.13-.3.08-.6.16-.55.25.16.71.56,1.14.4C113.69,18.14,114.33,16.3,114.42,16.38Z"/></g><path class="cls-36" d="M112.9,18.64c.43-.32,2-1.78,2-1.78s-1.52,1.51-1.79,1.9a16.75,16.75,0,0,0-1,3,10.06,10.06,0,0,0,.41-2.61,5.77,5.77,0,0,0-1.67-.67S112.47,19,112.9,18.64Z"/></g></g></svg>