<svg id="Layer_1" data-name="Layer 1" xmlns="http://www.w3.org/2000/svg" viewBox="0 0 190 51"><defs><style>.cls-1{opacity:0.5;}.cls-2{fill:#ace543;}.cls-3{opacity:0.05;}.cls-4{fill:#9bc91f;}.cls-5{fill:#bad83d;}.cls-6,.cls-8{fill:#fff;}.cls-6{opacity:0.3;}.cls-7{fill:#207a08;stroke:#145b00;stroke-miterlimit:10;}</style></defs><path class="cls-1" d="M70.58,46.2c-.08,1.74-4.13,3-9.06,2.78s-8.87-1.8-8.79-3.55,4.13-3,9.06-2.78S70.65,44.45,70.58,46.2Z"/><path class="cls-1" d="M21.69,42.35c-.09,2-4.74,3.42-10.39,3.18S1.13,43.47,1.22,41.47,6,38,11.61,38.28,21.77,40.34,21.69,42.35Z"/><path class="cls-1" d="M44,35.09c-1.26-1.52-5.08-2.75-9.64-2.94-5.65-.25-10.3,1.18-10.39,3.18-.08,1.8,3.57,3.45,8.42,3.94C33.62,40.79,37.44,42,42,42.21,47.65,42.46,52.3,41,52.39,39,52.47,37.23,48.82,35.58,44,35.09Z"/><path class="cls-1" d="M88.34,44.31h-.15c1.63-.57,2.65-1.37,2.69-2.29C91,40,86.45,38.2,80.8,38s-10.3,1.18-10.39,3.18S74.83,45,80.49,45.2c.26,0,.52,0,.79,0-1.22.49-2,1.14-2,1.87-.07,1.75,3.86,3.33,8.79,3.55s9-1,9.06-2.78S93.27,44.53,88.34,44.31Z"/><path class="cls-2" d="M29.65,37c-3.17-1.86-3.71-6.82-1.21-11.09s7.1-6.23,10.27-4.38,3.7,6.83,1.2,11.1S32.81,38.81,29.65,37Z"/><path class="cls-3" d="M35.65,30.24c-1.47,1.45-3.27,2.21-5.2,1.08a5.24,5.24,0,0,1-2.26-5C26,30.5,26.6,35.17,29.65,37s7.76-.1,10.26-4.37a11.1,11.1,0,0,0,1.56-5.19A8.54,8.54,0,0,0,35.65,30.24Z"/><path class="cls-4" d="M38.26,21.65c.62.25,1,.69.92,1s-.72.31-1.34.05-1-.69-.92-1S37.63,21.39,38.26,21.65Z"/><path class="cls-5" d="M37,21.84c.12-.28.72-.3,1.35-.05a2,2,0,0,1,.84.6,1.68,1.68,0,0,0-.92-.74c-.63-.26-1.23-.24-1.34,0a.4.4,0,0,0,.08.38A.37.37,0,0,1,37,21.84Z"/><path class="cls-6" d="M39.63,24.88c-.11.77-1.23,1.26-2.5,1.09S34.9,25,35,24.25s1.22-1.27,2.5-1.09S39.73,24.1,39.63,24.88Z"/><ellipse class="cls-2" cx="44.03" cy="34.43" rx="9.22" ry="6.52"/><path class="cls-3" d="M47,40C41.92,40,37.8,37,37.8,33.43c0-2.18,1.51-4.1,3.83-5.29-3.93.75-6.82,3.28-6.82,6.29C34.81,38,38.94,41,44,41a11.92,11.92,0,0,0,5.38-1.24A13.29,13.29,0,0,1,47,40Z"/><path class="cls-4" d="M52.53,34.43c0,.75-.25,1.36-.56,1.36s-.55-.61-.55-1.36.25-1.35.55-1.35S52.53,33.69,52.53,34.43Z"/><path class="cls-5" d="M52,33.08c-.12,0-.23.1-.32.27l.06,0c.31,0,.56.6.56,1.35A2.33,2.33,0,0,1,52,35.77c.28-.08.49-.65.49-1.34S52.28,33.08,52,33.08Z"/><path class="cls-6" d="M45.57,28.8l-.62,0c-.45.05-1.65.49-1.36,1.15a.66.66,0,0,0,.42.3,54.51,54.51,0,0,1,5.65,2.19,1.26,1.26,0,0,0,1,.18.81.81,0,0,0,.44-.77A1.66,1.66,0,0,0,50.7,31a5.67,5.67,0,0,0-3.61-2.09A7.1,7.1,0,0,0,45.57,28.8Z"/><ellipse class="cls-2" cx="63.67" cy="42.56" rx="7.8" ry="5.64" transform="translate(-0.91 1.4) rotate(-1.25)"/><path class="cls-3" d="M66.32,47.51C62,47.6,58.46,45.15,58.39,42c0-2.12,1.54-4,3.9-5-3.69.52-6.48,2.9-6.42,5.7.07,3.11,3.62,5.56,7.93,5.47a10.15,10.15,0,0,0,3.78-.8A10.35,10.35,0,0,1,66.32,47.51Z"/><path class="cls-6" d="M69.29,40.74c-.28.92-1.63,1.34-3,.92s-2.31-1.5-2-2.42,1.63-1.34,3-.93S69.56,39.81,69.29,40.74Z"/><path class="cls-2" d="M78.6,43.6c-3.16-1.86-3.7-6.83-1.2-11.1s7.1-6.22,10.27-4.37,3.7,6.82,1.2,11.09S81.77,45.45,78.6,43.6Z"/><path class="cls-3" d="M84.61,36.88c-1.47,1.45-3.27,2.21-5.2,1.08a5.23,5.23,0,0,1-2.26-5c-2.2,4.16-1.6,8.83,1.45,10.62s7.77-.11,10.27-4.38A11,11,0,0,0,90.43,34,8.54,8.54,0,0,0,84.61,36.88Z"/><path class="cls-4" d="M87.22,28.28c.62.26,1,.7.92,1s-.72.31-1.34,0-1-.69-.93-1S86.59,28,87.22,28.28Z"/><path class="cls-5" d="M86,28.48c.12-.28.72-.3,1.35-.05a2.11,2.11,0,0,1,.84.6,1.73,1.73,0,0,0-.92-.75c-.63-.25-1.23-.23-1.35,0a.44.44,0,0,0,.09.38A.37.37,0,0,1,86,28.48Z"/><path class="cls-6" d="M88.58,31.51c-.1.78-1.22,1.27-2.49,1.1s-2.23-.94-2.12-1.72,1.22-1.27,2.5-1.1S88.69,30.74,88.58,31.51Z"/><ellipse class="cls-2" cx="13.32" cy="37.75" rx="9.22" ry="6.52"/><path class="cls-3" d="M16.31,43.27c-5.09,0-9.22-2.92-9.22-6.52,0-2.18,1.52-4.1,3.83-5.29-3.92.75-6.81,3.28-6.81,6.29,0,3.6,4.12,6.52,9.21,6.52A12,12,0,0,0,18.71,43,13.38,13.38,0,0,1,16.31,43.27Z"/><path class="cls-4" d="M21.83,37.75c0,.75-.25,1.36-.56,1.36s-.55-.61-.55-1.36.24-1.35.55-1.35S21.83,37,21.83,37.75Z"/><path class="cls-5" d="M21.27,36.4c-.12,0-.23.1-.33.26H21c.31,0,.56.6.56,1.35a2.33,2.33,0,0,1-.23,1.09c.27-.08.49-.65.49-1.34S21.58,36.4,21.27,36.4Z"/><path class="cls-6" d="M14.86,32.12l-.61,0c-.45.05-1.66.48-1.37,1.15a.68.68,0,0,0,.43.3A55.4,55.4,0,0,1,19,35.8a1.27,1.27,0,0,0,.94.18.8.8,0,0,0,.45-.77,1.75,1.75,0,0,0-.35-.87,5.73,5.73,0,0,0-3.62-2.1A7.73,7.73,0,0,0,14.86,32.12Z"/><ellipse class="cls-2" cx="90.23" cy="44.22" rx="7.8" ry="5.64" transform="translate(-0.94 1.97) rotate(-1.25)"/><path class="cls-3" d="M92.87,49.17C88.56,49.26,85,46.81,85,43.7c0-2.12,1.53-4,3.9-5-3.7.52-6.48,2.9-6.42,5.7C82.5,47.5,86,50,90.35,49.86a10.11,10.11,0,0,0,3.78-.8A10.35,10.35,0,0,1,92.87,49.17Z"/><path class="cls-6" d="M95.84,42.4c-.27.92-1.63,1.34-3,.92s-2.31-1.5-2-2.42,1.63-1.34,3-.93S96.12,41.47,95.84,42.4Z"/><ellipse class="cls-1" cx="141.38" cy="38.63" rx="34.85" ry="9.54"/><g id="Grapes"><path class="cls-7" d="M165,20.77h0a1.27,1.27,0,0,0,1.51,1,61,61,0,0,0,21.75-9.43,1.26,1.26,0,0,0,.31-1.78h0a1.28,1.28,0,0,0-1.76-.25,58.31,58.31,0,0,1-20.78,9A1.28,1.28,0,0,0,165,20.77Z"/><circle class="cls-2" cx="166.77" cy="15.47" r="7.48"/><ellipse class="cls-6" cx="169.48" cy="16.94" rx="4.54" ry="3.74" transform="translate(58.39 146.06) rotate(-55)"/><path class="cls-8" d="M172.64,17c.23.09.26.54.08,1s-.53.75-.75.66-.26-.54-.08-1S172.42,16.91,172.64,17Z"/><path class="cls-8" d="M171.82,19.08c.06.05,0,.21-.1.34s-.26.2-.33.14,0-.22.09-.35S171.75,19,171.82,19.08Z"/><path class="cls-3" d="M172,10.1a7.48,7.48,0,0,0-9.76,9,7.46,7.46,0,0,0,2,3.39A7.48,7.48,0,1,1,172,10.1Z"/><circle class="cls-2" cx="168.34" cy="30" r="7.48"/><ellipse class="cls-6" cx="171.05" cy="31.47" rx="4.54" ry="3.74" transform="translate(47.17 153.54) rotate(-55)"/><path class="cls-8" d="M174.22,31.53c.23.1.26.54.07,1s-.52.74-.75.65-.26-.54-.07-1S174,31.44,174.22,31.53Z"/><path class="cls-8" d="M173.39,33.6c.07.06,0,.22-.09.35s-.27.19-.33.13,0-.21.09-.34S173.32,33.54,173.39,33.6Z"/><path class="cls-3" d="M173.55,24.63a7.48,7.48,0,0,0-9.75,9,7.36,7.36,0,0,0,2,3.39,7.48,7.48,0,1,1,7.75-12.4Z"/><circle class="cls-2" cx="163.28" cy="25.66" r="7.48"/><ellipse class="cls-6" cx="165.99" cy="27.13" rx="4.54" ry="3.74" transform="translate(48.56 147.54) rotate(-55)"/><path class="cls-8" d="M169.15,27.2c.23.09.26.53.08,1s-.53.75-.75.65-.26-.54-.08-1S168.93,27.1,169.15,27.2Z"/><path class="cls-8" d="M168.33,29.26c.06.06,0,.22-.1.35s-.26.19-.33.13,0-.21.09-.34S168.26,29.2,168.33,29.26Z"/><path class="cls-3" d="M168.49,20.29a7.48,7.48,0,0,0-7.75,12.4,7.48,7.48,0,1,1,7.75-12.4Z"/><circle class="cls-2" cx="157.75" cy="35.85" r="7.48"/><ellipse class="cls-6" cx="160.47" cy="37.32" rx="4.54" ry="3.74" transform="translate(37.86 147.36) rotate(-55)"/><path class="cls-8" d="M163.63,37.39c.23.09.26.53.08,1s-.53.75-.76.65-.26-.54-.07-1S163.41,37.29,163.63,37.39Z"/><path class="cls-8" d="M162.8,39.45c.07.06,0,.22-.09.35s-.26.19-.33.13,0-.21.09-.34S162.74,39.39,162.8,39.45Z"/><path class="cls-3" d="M163,30.48a7.48,7.48,0,0,0-7.75,12.4A7.48,7.48,0,1,1,163,30.48Z"/><circle class="cls-2" cx="147.1" cy="11.07" r="7.48"/><ellipse class="cls-6" cx="149.81" cy="12.54" rx="4.54" ry="3.74" transform="translate(53.61 128.06) rotate(-55)"/><path class="cls-8" d="M153,12.6c.23.1.26.54.08,1s-.53.74-.75.65-.26-.54-.08-1S152.75,12.51,153,12.6Z"/><path class="cls-8" d="M152.15,14.67c.06.06,0,.22-.1.35s-.26.19-.33.13,0-.21.09-.34S152.08,14.61,152.15,14.67Z"/><path class="cls-3" d="M152.31,5.7a7.48,7.48,0,0,0-7.75,12.4,7.48,7.48,0,1,1,7.75-12.4Z"/><circle class="cls-2" cx="154.51" cy="19.93" r="7.48"/><ellipse class="cls-6" cx="157.22" cy="21.41" rx="4.54" ry="3.74" transform="translate(49.51 137.92) rotate(-55)"/><ellipse class="cls-8" cx="160.05" cy="22.29" rx="0.89" ry="0.45" transform="translate(78.52 161.81) rotate(-67.63)"/><path class="cls-8" d="M159.56,23.54c.06.06,0,.21-.09.34s-.27.2-.34.14,0-.22.09-.35S159.49,23.48,159.56,23.54Z"/><path class="cls-3" d="M159.72,14.57a7.36,7.36,0,0,0-4.51-.18A7.47,7.47,0,0,0,152,27a7.48,7.48,0,1,1,7.75-12.4Z"/><circle class="cls-2" cx="158.95" cy="7.82" r="7.48"/><ellipse class="cls-6" cx="161.66" cy="9.3" rx="4.54" ry="3.74" transform="translate(61.32 136.39) rotate(-55)"/><path class="cls-8" d="M164.83,9.36c.22.09.26.54.07,1s-.52.75-.75.66-.26-.54-.07-1S164.6,9.27,164.83,9.36Z"/><path class="cls-8" d="M164,11.43c.07.06,0,.21-.09.35s-.27.19-.34.13,0-.21.1-.35S163.93,11.37,164,11.43Z"/><path class="cls-3" d="M164.16,2.46a7.36,7.36,0,0,0-4.51-.18,7.48,7.48,0,0,0-3.24,12.58,7.48,7.48,0,1,1,7.75-12.4Z"/><circle class="cls-2" cx="146.15" cy="40.19" r="6.33"/><ellipse class="cls-6" cx="148.44" cy="41.43" rx="3.84" ry="3.16" transform="translate(29.36 139.27) rotate(-55)"/><path class="cls-8" d="M151.12,41.49c.2.08.22.45.06.84s-.44.63-.63.55-.22-.45-.06-.84S150.93,41.41,151.12,41.49Z"/><path class="cls-8" d="M150.42,43.24c.06,0,0,.18-.08.29s-.22.16-.28.11,0-.18.08-.29S150.37,43.19,150.42,43.24Z"/><path class="cls-3" d="M150.56,35.65a6.32,6.32,0,0,0-8.25,7.62A6.26,6.26,0,0,0,144,46.14a6.33,6.33,0,1,1,6.56-10.49Z"/><circle class="cls-2" cx="133.48" cy="40.27" r="7.48"/><ellipse class="cls-6" cx="136.19" cy="41.75" rx="4.54" ry="3.74" transform="translate(23.88 129.37) rotate(-55)"/><path class="cls-8" d="M139.36,41.81c.23.09.26.54.07,1s-.52.75-.75.66-.26-.54-.07-1S139.13,41.72,139.36,41.81Z"/><path class="cls-8" d="M138.53,43.88c.07.06,0,.21-.09.35s-.26.19-.33.13,0-.21.09-.35S138.47,43.82,138.53,43.88Z"/><path class="cls-3" d="M138.69,34.91a7.36,7.36,0,0,0-4.51-.18,7.48,7.48,0,0,0-5.24,9.19,7.59,7.59,0,0,0,2,3.39,7.48,7.48,0,1,1,7.75-12.4Z"/><circle class="cls-2" cx="133.56" cy="16.25" r="7.48"/><ellipse class="cls-6" cx="136.27" cy="17.72" rx="4.54" ry="3.74" transform="translate(43.59 119.18) rotate(-55)"/><path class="cls-8" d="M139.44,17.79c.22.09.26.53.07,1s-.53.75-.75.65-.26-.54-.08-1S139.21,17.69,139.44,17.79Z"/><path class="cls-8" d="M138.61,19.85c.06.06,0,.22-.1.35s-.26.19-.33.13,0-.21.09-.34S138.54,19.79,138.61,19.85Z"/><path class="cls-3" d="M138.77,10.88A7.48,7.48,0,0,0,131,23.28a7.48,7.48,0,1,1,7.75-12.4Z"/><circle class="cls-2" cx="111.47" cy="33.37" r="7.48"/><ellipse class="cls-6" cx="114.18" cy="34.85" rx="4.54" ry="3.74" transform="translate(20.15 108.39) rotate(-55)"/><path class="cls-8" d="M117.35,34.91c.22.09.26.54.07,1s-.52.75-.75.66-.26-.54-.07-1S117.12,34.82,117.35,34.91Z"/><path class="cls-8" d="M116.52,37c.07.06,0,.21-.09.34s-.27.2-.34.14,0-.22.1-.35S116.45,36.92,116.52,37Z"/><path class="cls-3" d="M116.68,28a7.36,7.36,0,0,0-4.51-.18A7.47,7.47,0,0,0,106.93,37a7.39,7.39,0,0,0,2,3.4A7.48,7.48,0,1,1,116.68,28Z"/><circle class="cls-2" cx="119.33" cy="25.68" r="7.48"/><ellipse class="cls-6" cx="122.05" cy="27.15" rx="4.54" ry="3.74" transform="translate(29.8 111.56) rotate(-55)"/><ellipse class="cls-8" cx="124.87" cy="28.04" rx="0.89" ry="0.45" transform="translate(51.42 132.84) rotate(-67.63)"/><path class="cls-8" d="M124.39,29.28c.06.06,0,.22-.1.35s-.26.19-.33.14,0-.22.09-.35S124.32,29.23,124.39,29.28Z"/><path class="cls-3" d="M124.55,20.31a7.48,7.48,0,0,0-9.76,9,7.46,7.46,0,0,0,2,3.39,7.48,7.48,0,1,1,7.75-12.4Z"/><circle class="cls-2" cx="122.72" cy="38.05" r="7.48"/><ellipse class="cls-6" cx="125.43" cy="39.52" rx="4.54" ry="3.74" transform="matrix(0.57, -0.82, 0.82, 0.57, 21.11, 119.6)"/><ellipse class="cls-8" cx="128.26" cy="40.41" rx="0.89" ry="0.45" transform="translate(42.08 143.64) rotate(-67.63)"/><path class="cls-8" d="M127.77,41.65c.07.06,0,.22-.09.35s-.27.19-.34.13,0-.21.1-.34S127.7,41.59,127.77,41.65Z"/><path class="cls-3" d="M127.93,32.68a7.48,7.48,0,0,0-9.75,9,7.36,7.36,0,0,0,2,3.39,7.48,7.48,0,1,1,7.75-12.4Z"/><circle class="cls-2" cx="129.77" cy="26.7" r="7.48"/><ellipse class="cls-6" cx="132.48" cy="28.18" rx="4.54" ry="3.74" transform="translate(33.42 120.54) rotate(-55)"/><path class="cls-8" d="M135.65,28.24c.23.09.26.54.07,1s-.52.75-.75.66-.26-.54-.07-1S135.42,28.15,135.65,28.24Z"/><path class="cls-8" d="M134.82,30.31c.07.06,0,.21-.09.34s-.27.2-.33.14,0-.22.09-.35S134.75,30.25,134.82,30.31Z"/><path class="cls-3" d="M135,21.34a7.36,7.36,0,0,0-4.51-.18,7.47,7.47,0,0,0-5.24,9.18,7.39,7.39,0,0,0,2,3.4A7.48,7.48,0,1,1,135,21.34Z"/><circle class="cls-2" cx="141.02" cy="31.38" r="7.48"/><ellipse class="cls-6" cx="143.73" cy="32.85" rx="4.54" ry="3.74" transform="translate(34.38 131.75) rotate(-55)"/><path class="cls-8" d="M146.9,32.92c.23.09.26.53.07,1s-.52.75-.75.65-.26-.53-.07-1S146.67,32.82,146.9,32.92Z"/><path class="cls-8" d="M146.07,35c.07.06,0,.22-.09.35s-.27.19-.33.13,0-.21.09-.34S146,34.92,146.07,35Z"/><path class="cls-3" d="M146.23,26a7.48,7.48,0,0,0-9.75,9,7.36,7.36,0,0,0,2,3.39A7.48,7.48,0,1,1,146.23,26Z"/><circle class="cls-2" cx="141.34" cy="20.4" r="7.48"/><ellipse class="cls-6" cx="144.05" cy="21.87" rx="4.54" ry="3.74" transform="translate(43.51 127.33) rotate(-55)"/><path class="cls-8" d="M147.22,21.93c.23.1.26.54.07,1s-.52.75-.75.65-.26-.54-.07-1S147,21.84,147.22,21.93Z"/><path class="cls-8" d="M146.39,24c.07.06,0,.22-.09.35s-.27.19-.34.13,0-.21.1-.34S146.32,23.94,146.39,24Z"/><path class="cls-3" d="M146.55,15a7.48,7.48,0,0,0-9.75,9,7.36,7.36,0,0,0,2,3.39A7.48,7.48,0,1,1,146.55,15Z"/><circle class="cls-2" cx="152.41" cy="28.45" r="7.48"/><ellipse class="cls-6" cx="155.12" cy="29.92" rx="4.54" ry="3.74" transform="translate(41.64 139.83) rotate(-55)"/><ellipse class="cls-8" cx="157.95" cy="30.81" rx="0.89" ry="0.45" transform="translate(69.34 165.14) rotate(-67.63)"/><path class="cls-8" d="M157.46,32.05c.06.06,0,.22-.1.35s-.26.19-.33.13,0-.21.09-.34S157.39,32,157.46,32.05Z"/><path class="cls-3" d="M157.62,23.08a7.48,7.48,0,0,0-7.75,12.4,7.48,7.48,0,1,1,7.75-12.4Z"/></g></svg>