<svg id="Layer_1" data-name="Layer 1" xmlns="http://www.w3.org/2000/svg" xmlns:xlink="http://www.w3.org/1999/xlink" viewBox="0 0 250 48"><defs><style>.cls-1{opacity:0.3;}.cls-2{fill:url(#linear-gradient);}.cls-3{fill:#e86b0f;}.cls-4{fill:#f07518;}.cls-5{fill:#d85700;}.cls-6{fill:#ff9045;}.cls-7{fill:#f08635;}.cls-8{fill:url(#linear-gradient-2);}.cls-9{fill:url(#linear-gradient-3);}.cls-10{fill:url(#linear-gradient-4);}.cls-11{fill:url(#linear-gradient-5);}.cls-12{fill:#f48f16;}.cls-13{fill:#ffb052;}.cls-14{fill:#f07c24;}.cls-15{fill:#f7932e;}.cls-16{fill:#ffa242;}.cls-17{fill:#c24500;}.cls-18{fill:#3d2415;}.cls-19{fill:#2b120c;}</style><linearGradient id="linear-gradient" x1="0.87" y1="27.6" x2="67.98" y2="27.6" gradientUnits="userSpaceOnUse"><stop offset="0.04" stop-color="#a7aa11"/><stop offset="0.12" stop-color="#b0aa11"/><stop offset="0.26" stop-color="#c7aa11"/><stop offset="0.43" stop-color="#eea910"/><stop offset="0.5" stop-color="#ffa910"/></linearGradient><linearGradient id="linear-gradient-2" x1="25.12" y1="27.6" x2="92.23" y2="27.6" xlink:href="#linear-gradient"/><linearGradient id="linear-gradient-3" x1="48.05" y1="27.6" x2="115.16" y2="27.6" xlink:href="#linear-gradient"/><linearGradient id="linear-gradient-4" x1="74.7" y1="27.6" x2="141.81" y2="27.6" xlink:href="#linear-gradient"/><linearGradient id="linear-gradient-5" x1="154.02" y1="14.85" x2="248.01" y2="34.04" xlink:href="#linear-gradient"/></defs><path class="cls-1" d="M110.49,39.77c-4.38,0-8.53.13-12.26.36-3.73-.23-7.88-.36-12.26-.36s-8.54.13-12.27.36c-3.73-.23-7.88-.36-12.26-.36s-8.53.13-12.26.36c-3.73-.23-7.88-.36-12.26-.36-16.15,0-29.24,1.73-29.24,3.87S20.77,47.5,36.92,47.5c4.38,0,8.53-.13,12.26-.36,3.73.23,7.88.36,12.26.36s8.53-.13,12.26-.36c3.73.23,7.89.36,12.27.36s8.53-.13,12.26-.36c3.73.23,7.88.36,12.26.36,16.15,0,29.24-1.73,29.24-3.86S126.64,39.77,110.49,39.77Z"/><path class="cls-2" d="M.87,34.34c2.46,1.59,41.19,2.7,46.91,0S66.26,10.85,66.41,10.84c5.24,9.21-3.15,27.11-17.84,31.3C26.43,48.44,21.27,39.47,7,38.93,5.34,38.86.83,37,.87,34.34Z"/><path class="cls-3" d="M3.65,27.76c3-.19,14.9-2.41,15.69-2.61,12.19,4.29,33.22-3.3,38.76-11.67,4.24-1.35,7.63-2.57,8.31-2.64,2.44,6.58-2,24.5-18.62,29.69-19,5.93-28.94-3.73-41.32-2.47-2.09-.13-4.77-1.58-5.6-3.72C.72,32.89,2.47,28.57,3.65,27.76Z"/><path class="cls-4" d="M66.41,10.84a29.19,29.19,0,0,0-3.33,1l.11.12a7.33,7.33,0,0,1,1.22,4.9c-.2,5.48-1.91,9.8-5.27,13.27-2.94,3-7.06,7.46-14.16,9.21-10.56,2.62-20.62-.26-22.85-.86S17.79,37,15.59,36.31a17.13,17.13,0,0,0-3.31-.71c-.9-.1-1.8-.16-2.69-.25-2.94-.29-6.1-.79-8.52-2.54a4.73,4.73,0,0,0-.2,1.53c.83,2.14,3.51,3.59,5.6,3.72,12.38-1.26,22.27,8.4,41.32,2.47C64.44,35.34,68.85,17.42,66.41,10.84Z"/><path class="cls-5" d="M47.34,28.6C58.57,24.3,58.73,16.84,58.1,13.48c-5.54,8.37-26.57,16-38.76,11.67C23.91,29.22,32.49,34.27,47.34,28.6Z"/><path class="cls-6" d="M3.83,27.74l-.18,0C2.47,28.57.72,32.89.87,34.34c.83,2.14,3.51,3.59,5.6,3.72C7,35.24,4.9,28.88,3.83,27.74Z"/><path class="cls-7" d="M1.36,31.86a6.91,6.91,0,0,0-.49,2.48c.83,2.14,3.51,3.59,5.6,3.72a9.72,9.72,0,0,0-.11-3.18A6.75,6.75,0,0,1,1.36,31.86Z"/><path class="cls-8" d="M25.12,34.34c2.47,1.59,41.2,2.7,46.91,0S90.51,10.85,90.67,10.84C95.9,20.05,87.52,38,72.82,42.14c-22.13,6.3-27.29-2.67-41.55-3.21C29.59,38.86,25.09,37,25.12,34.34Z"/><path class="cls-3" d="M27.91,27.76c3-.19,14.9-2.41,15.68-2.61,12.2,4.29,33.23-3.3,38.77-11.67,4.24-1.35,7.62-2.57,8.31-2.64,2.43,6.58-2,24.5-18.62,29.69-19,5.93-28.94-3.73-41.33-2.47-2.08-.13-4.77-1.58-5.6-3.72C25,32.89,26.72,28.57,27.91,27.76Z"/><path class="cls-4" d="M90.67,10.84a29.19,29.19,0,0,0-3.33,1l.1.12a7.27,7.27,0,0,1,1.23,4.9c-.21,5.48-1.92,9.8-5.27,13.27-2.94,3-7.06,7.46-14.16,9.21-10.56,2.62-20.62-.26-22.85-.86S42.05,37,39.85,36.31a17.23,17.23,0,0,0-3.32-.71c-.89-.1-1.79-.16-2.68-.25-2.94-.29-6.1-.79-8.52-2.54a5.09,5.09,0,0,0-.21,1.53c.83,2.14,3.52,3.59,5.6,3.72C43.11,36.8,53,46.46,72.05,40.53,88.69,35.34,93.1,17.42,90.67,10.84Z"/><path class="cls-5" d="M71.6,28.6C82.83,24.3,83,16.84,82.36,13.48c-5.54,8.37-26.57,16-38.77,11.67C48.17,29.22,56.75,34.27,71.6,28.6Z"/><path class="cls-6" d="M28.08,27.74l-.17,0c-1.19.81-2.94,5.13-2.79,6.58.83,2.14,3.52,3.59,5.6,3.72C31.28,35.24,29.16,28.88,28.08,27.74Z"/><path class="cls-7" d="M25.62,31.86a7,7,0,0,0-.5,2.48c.83,2.14,3.52,3.59,5.6,3.72a9.2,9.2,0,0,0-.11-3.18A6.72,6.72,0,0,1,25.62,31.86Z"/><path class="cls-9" d="M48.05,34.34c2.46,1.59,41.19,2.7,46.91,0s18.48-23.54,18.63-23.55c5.24,9.21-3.15,27.11-17.84,31.3-22.14,6.3-27.3-2.67-41.55-3.21C52.52,38.86,48,37,48.05,34.34Z"/><path class="cls-3" d="M50.83,27.76c3-.19,14.9-2.41,15.69-2.61,12.19,4.29,33.22-3.3,38.76-11.67,4.24-1.35,7.62-2.57,8.31-2.64,2.44,6.58-2,24.5-18.62,29.69-19,5.93-28.94-3.73-41.32-2.47-2.09-.13-4.77-1.58-5.6-3.72C47.9,32.89,49.65,28.57,50.83,27.76Z"/><path class="cls-4" d="M113.59,10.84a29.19,29.19,0,0,0-3.33,1l.11.12a7.33,7.33,0,0,1,1.22,4.9c-.2,5.48-1.91,9.8-5.27,13.27-2.94,3-7.06,7.46-14.16,9.21C81.6,42,71.54,39.09,69.31,38.49S65,37,62.77,36.31a17.13,17.13,0,0,0-3.31-.71c-.9-.1-1.8-.16-2.69-.25-2.94-.29-6.1-.79-8.52-2.54a4.73,4.73,0,0,0-.2,1.53c.83,2.14,3.51,3.59,5.6,3.72C66,36.8,75.92,46.46,95,40.53,111.62,35.34,116,17.42,113.59,10.84Z"/><path class="cls-5" d="M94.52,28.6c11.23-4.3,11.39-11.76,10.76-15.12-5.54,8.37-26.57,16-38.76,11.67C71.09,29.22,79.67,34.27,94.52,28.6Z"/><path class="cls-6" d="M51,27.74l-.18,0c-1.18.81-2.93,5.13-2.78,6.58.83,2.14,3.51,3.59,5.6,3.72C54.2,35.24,52.08,28.88,51,27.74Z"/><path class="cls-7" d="M48.54,31.86a6.91,6.91,0,0,0-.49,2.48c.83,2.14,3.51,3.59,5.6,3.72a9.72,9.72,0,0,0-.11-3.18A6.73,6.73,0,0,1,48.54,31.86Z"/><path class="cls-10" d="M74.7,34.34c2.47,1.59,41.19,2.7,46.91,0s18.48-23.54,18.63-23.55c5.24,9.21-3.14,27.11-17.84,31.3-22.13,6.3-27.29-2.67-41.55-3.21C79.17,38.86,74.67,37,74.7,34.34Z"/><path class="cls-3" d="M77.48,27.76c3-.19,14.91-2.41,15.69-2.61,12.2,4.29,33.23-3.3,38.77-11.67,4.23-1.35,7.62-2.57,8.3-2.64,2.44,6.58-2,24.5-18.62,29.69-19,5.93-28.93-3.73-41.32-2.47-2.08-.13-4.77-1.58-5.6-3.72C74.55,32.89,76.3,28.57,77.48,27.76Z"/><path class="cls-4" d="M140.24,10.84a29.3,29.3,0,0,0-3.32,1l.1.12a7.27,7.27,0,0,1,1.23,4.9c-.21,5.48-1.92,9.8-5.27,13.27-2.94,3-7.06,7.46-14.16,9.21C108.26,42,98.19,39.09,96,38.49S91.63,37,89.42,36.31a17,17,0,0,0-3.31-.71c-.89-.1-1.79-.16-2.69-.25-2.93-.29-6.09-.79-8.51-2.54a4.79,4.79,0,0,0-.21,1.53c.83,2.14,3.52,3.59,5.6,3.72,12.39-1.26,22.28,8.4,41.32,2.47C138.27,35.34,142.68,17.42,140.24,10.84Z"/><path class="cls-5" d="M121.17,28.6c11.24-4.3,11.4-11.76,10.77-15.12-5.54,8.37-26.57,16-38.77,11.67C97.75,29.22,106.33,34.27,121.17,28.6Z"/><path class="cls-6" d="M77.66,27.74l-.18,0c-1.18.81-2.93,5.13-2.78,6.58.83,2.14,3.52,3.59,5.6,3.72C80.86,35.24,78.74,28.88,77.66,27.74Z"/><path class="cls-7" d="M75.2,31.86a7,7,0,0,0-.5,2.48c.83,2.14,3.52,3.59,5.6,3.72a9.2,9.2,0,0,0-.11-3.18A6.72,6.72,0,0,1,75.2,31.86Z"/><ellipse class="cls-1" cx="200.92" cy="41.5" rx="45.38" ry="6"/><path class="cls-11" d="M153.22,21.37c13.59.24,93.05-6.1,95-6,4.36,11.37-6.1,26.81-34.16,28.13-13.15.61-28-2.71-38.14-8.63C163.85,27.84,153.91,24.72,153.22,21.37Z"/><path class="cls-12" d="M237.11,35.49a41.64,41.64,0,0,1-15,5.2,99.31,99.31,0,0,1-18.18.72,109.56,109.56,0,0,1-17.34-1.94l-1.32-.29A77.63,77.63,0,0,0,214,43.52c24.83-1.17,35.87-13.39,35.07-24.07C248,25.58,244,31.42,237.11,35.49Z"/><path class="cls-13" d="M156.33,12c-2.56,1.89-3,3.78-2.39,5.36-5.84,6.9,10.3,6.68,17,10.35,6.28,3.44,12.59,9,34.09,9.88,23.2.94,43.24-7.68,41.28-17.05,7.25-6.89-2.78-16.66-28.91-19.39-23.81-2.45-30.54,2.7-41.17,4.42C167.74,6.94,157.08,4.64,156.33,12Z"/><path class="cls-3" d="M156.43,12.13c-2.45,1.81-3,3.58-2.33,5.09-3.91,6,11.94,5.83,18.34,9.34,6,3.3,12.4,8.57,33,9.36,22.23.9,40.26-8.32,39.76-15.46,5.64-7.11-4-15.8-29-18.41C193.37-.29,186,5,175.82,6.69,167.69,8,157.58,6.17,156.43,12.13Z"/><path class="cls-14" d="M154,17.31c-3.9,6.05,12.08,5.74,18.48,9.25,6,3.3,12.4,8.57,33,9.36,22.23.9,40.26-8.32,39.76-15.46,5.64-7.11-4-15.8-29-18.41C193.37-.29,186,5,175.82,6.69,167.69,8,157.45,6.08,156.3,12,153.78,13.7,153.34,15.81,154,17.31Zm3.06-.88a6,6,0,0,1,2.84-1.69,2.42,2.42,0,0,1-1.36-2.2c0-1.3.94-2.73,3.16-3.37a21.72,21.72,0,0,1,6.21-.47,41.33,41.33,0,0,0,8.83-.88c2.91-.61,5.71-1.48,8.53-2.26A75.75,75.75,0,0,1,195,3.45c7-1,12.1-.45,18.75.17A71.15,71.15,0,0,1,230.89,7.3c1.3.46,2.56,1,3.79,1.49A25.65,25.65,0,0,1,237.26,10a11.52,11.52,0,0,1,2.45,2c2,2,5.17,5.71.83,8.22,1.31,2.44-1.58,5.5-4.54,7.38a34.55,34.55,0,0,1-6.26,3.14,38.3,38.3,0,0,1-3.75,1c-1.62.38-3.25.7-4.9,1a87.15,87.15,0,0,1-20.05.63c-3.41-.25-6.75-.66-10-1.2a39.84,39.84,0,0,1-7.84-2.39,46.54,46.54,0,0,1-6.37-3.12,57.51,57.51,0,0,0-6.53-3.23,56.94,56.94,0,0,0-7.39-2c-2.25-.55-4.75-1.23-6.05-2.49A1.72,1.72,0,0,1,157,16.43Z"/><path class="cls-15" d="M171,15.69c-3.63-.32-7.42-.47-11.14-.6-2-.06-4,0-6.1.08a2.19,2.19,0,0,1,1-1.78c.06,0,3.17.68,4.85.85,2.82.29,10.71.66,11.72.65A7,7,0,0,0,171,15.69Z"/><path class="cls-15" d="M246.39,21.42c-1.21-.1-10.11-1-12.8-1.35a2.55,2.55,0,0,1,.12-.81c2.35.11,11.48.72,13.21.7a3.65,3.65,0,0,1-.57.68A4,4,0,0,1,246.39,21.42Z"/><path class="cls-16" d="M169.22,15.18c6.84-2.94,24.82-7.8,43.54-5.38,20,2.57,22.4,8.21,21.87,9.93-.7,2.29-10.15,8.56-31.79,7.64C182.69,26.44,171.21,18.05,169.22,15.18Z"/><path class="cls-17" d="M212.69,24.25a5.26,5.26,0,0,1-2.9,1c-.82,0-1.89-.29-2-.94s-1-.83-1.67-.52a2.81,2.81,0,0,1-2.42.35,1.5,1.5,0,0,0-1.31,0c-.38.17-.67.4-1,.59a2.84,2.84,0,0,1-1.39,0,4,4,0,0,1-1.11-.22,2.28,2.28,0,0,1-.92-.9,1.28,1.28,0,0,0-1.54-.32,10.83,10.83,0,0,1-2.18.89c-.66.14-1.36-.11-1.16-.61s-.48-.81-1.06-.79h-.27a.54.54,0,0,1,.14-.41c.49-.66-.68-1.16-1.48-.84a5.11,5.11,0,0,1-2.67.25c-.47-.11-.4-.39-.45-.83-.06-.66-1.16-.75-1.75-.37a3.73,3.73,0,0,1-2.12.5c-.58-.05-1.1-.33-.8-.72s-.29-1-1-1a7.33,7.33,0,0,1-1.55-.08c.06,0-.07,0-.14-.05a.65.65,0,0,1,.09-.39c.19-.51-.69-1-1.37-.78a3.1,3.1,0,0,1-2.36-.24c-.49-.26.06-.94.21-1.27s-.44-.8-1-.73-.8,0-.77-.47-.86-.71-1.11-.24a1.08,1.08,0,0,0,0,1.26,1.49,1.49,0,0,0,.75.51,1.37,1.37,0,0,0,.54,1.89,5.37,5.37,0,0,0,3,.8,1.85,1.85,0,0,0,1.06.93,4.39,4.39,0,0,0,1.49.27,2.4,2.4,0,0,0,2,1.57,6,6,0,0,0,3.14-.2,2,2,0,0,0,1.27.87,7.2,7.2,0,0,0,2.93.1,1.16,1.16,0,0,0,.31.53,1.56,1.56,0,0,0,1,.44,2.64,2.64,0,0,0,2.31,1.46,5.85,5.85,0,0,0,3.22-.68,4,4,0,0,0,.68.6,5,5,0,0,0,2,.65,7.16,7.16,0,0,0,2.69,0,3.67,3.67,0,0,0,1.18-.55,5.24,5.24,0,0,0,3.06-.15A4.89,4.89,0,0,0,209,26.6a7.5,7.5,0,0,0,4.93-1.17C215,24.84,213.75,23.66,212.69,24.25Z"/><path class="cls-17" d="M230.86,19.29c-.41-.16-1,.12-.93.45a3.52,3.52,0,0,1,.06.66,1.11,1.11,0,0,1-.08.65c-.24.44-1.45.34-2,.19a1.26,1.26,0,0,0-1.35.33,2,2,0,0,1-1.42,1.24,3.5,3.5,0,0,1-2.29-.12c-.74-.42-1.82.11-1.5.73,0,.07-.36.38-.46.45-.34.26-.78.14-1.21.06a1.09,1.09,0,0,0-1,.37,3.38,3.38,0,0,1-2.68.9,10.51,10.51,0,0,1-1.33-.11,2.75,2.75,0,0,1-1.11-.49c-.32-.19-.82-.05-.9.23-.29,1,2.08,1.47,3.16,1.55a5.91,5.91,0,0,0,4.17-1.09,3.35,3.35,0,0,0,2.29-.52,3,3,0,0,0,.68-.64,8.07,8.07,0,0,0,2.64,0A3.59,3.59,0,0,0,228,22.68c1.37.17,2.92,0,3.64-.89a1.73,1.73,0,0,0,.36-1.33C231.92,19.91,231.54,19.55,230.86,19.29Z"/><path class="cls-17" d="M174.43,15.38c.09-.21.2-.32.57-.34a8.25,8.25,0,0,1,1.22,0c.75.06,1.24-.54.79-.82-.17-.1-.28-.17.08-.25a2.23,2.23,0,0,1,.89,0c.14,0,.16,0,.26.19a.77.77,0,0,0,.21.17c.08.35.38.66,1.07.74.5.06,1.1-.17,1-.49a1.1,1.1,0,0,1,.08-.88,2.12,2.12,0,0,1,.76-.8,3.16,3.16,0,0,1,1.35-.17,2.08,2.08,0,0,1,1.26.34c.34.39,1.52.26,1.63-.22s.36-.75,1.17-.82c.59,0,1,.42,1.27.63a1.28,1.28,0,0,0,1.61-.33,1,1,0,0,1,1.6-.31A1.25,1.25,0,0,0,193,11.8a1.36,1.36,0,0,1,1.86-.42c.52.28,1.43.13,1.6-.32a1.76,1.76,0,0,1,.39-.68,1.54,1.54,0,0,1,.87-.22,4.56,4.56,0,0,1,1.61.09c-.4.32-.46.68.11.92a1.37,1.37,0,0,0,.91-.05l.24-.1a1.91,1.91,0,0,0,.32-.23,1.43,1.43,0,0,1,.35-.18,4,4,0,0,1,1.15-.2,3.79,3.79,0,0,1,1.44.22c.33.14.35.24.54.49a1.08,1.08,0,0,0,.83.53,3.93,3.93,0,0,0,1.52-.22,2.16,2.16,0,0,1,.85,0c.17,0,.55,0,.53.17-.08.37.69.64,1.3.34s2.18-.53,2.33,0c.1.3.86.53,1.4.23a3.45,3.45,0,0,1,2-.5,2,2,0,0,1,.73.23c.12.08-.13.39-.17.5-.14.45.73.62,1.4.36a2.42,2.42,0,0,1,1.4-.24c.34.11.41.26.32.49s.56.62,1.19.43a3.12,3.12,0,0,1,2-.21.41.41,0,0,1,.29.35c-.38.2-.61.45-.49.75.19.46,1.4.42,1.64-.11,0,0,0,0,.06-.06h0a3.69,3.69,0,0,1,.64-.11,9,9,0,0,1,1.47,0,5,5,0,0,1,.58.09c.17,0,.47.09.41.22a2.05,2.05,0,0,1-.76.76c-.8.26-.63,1,.33.8a4.93,4.93,0,0,1,2.16-.17c.08,0,.14.14.13.17l-.39.07c-.78.17-.66.83.11.8a3.88,3.88,0,0,0,.85-.11c.48,0,1.09,0,1.13.24a.4.4,0,0,1-.19.38.88.88,0,0,1-.19.12l-.17,0h-.1c-1,0-1.29.85-.3.85h.14c.63,0,1.72-.12,2,.15s0,.57-.42.58c-.88,0-1.36.72-.52.86s1.21.4.47.86a3.38,3.38,0,0,1-2.65.38,1,1,0,0,0-.86.19.22.22,0,0,0-.12.15,1.19,1.19,0,0,1-.72,1.25,6.43,6.43,0,0,1-3.57-.05c-.5-.13-1.2.08-1.16.44s.22.7-.2,1a1.3,1.3,0,0,1-1,0,1.13,1.13,0,0,0-1.09.24c-.22.23-.33.58-.78.72a5,5,0,0,1-1.71.19,8,8,0,0,1-2.6-.84,1,1,0,0,0-1.12.34,2.3,2.3,0,0,1-1.56,1.07,3.91,3.91,0,0,1-2.13-.07c-1.29-.39-1.94-1.1-2-2-.05-.46-1.35-.26-1.3.2l.06.34a4.25,4.25,0,0,1-1.28.35c-.39,0-.55-.32-.78-.45a1,1,0,0,0-1.21.27,2.29,2.29,0,0,1-2.35,1.12c-1.46-.26-1.89-1.16-2.64-1.82a1.1,1.1,0,0,0-1.13.09,2.53,2.53,0,0,1-.95.59,4.31,4.31,0,0,1-1.24.1c-.88,0-1.53-.3-1.53-.83,0-.21-.2-.46-.65-.43-.65,0-.9,0-.75-.36a9.44,9.44,0,0,1,.77-1.09c.25-.41-.62-.63-1.1-.28a4.65,4.65,0,0,0-.53.45,5.07,5.07,0,0,1-2.65.31c-.93-.16-1.35-.56-1.09-1.13s-1.14-.57-1.47-.12a2.69,2.69,0,0,1-3.12.43.81.81,0,0,1-.21-1,2.83,2.83,0,0,1,.26-.48,3.49,3.49,0,0,0,.23-.48c.11-.24-.23-.49-.7-.34a2.33,2.33,0,0,0-1.17.75c-.47,0-1,0-1.13-.19s-.16-.31,0-.44l.31-.16c.6-.35.05-1-.79-.69l-.17.06h0l-.13.06a3.61,3.61,0,0,1-2.4-.2c-.66-.28-.95-1-.23-1.4.54-.3.34-.79-.41-.81S174.18,16,174.43,15.38Z"/><path class="cls-18" d="M205.38,11.14c-.06-.65-.87-1.2-2-1.37a6,6,0,0,0-3.47.54,3.74,3.74,0,0,0-2.48-.37,2.8,2.8,0,0,0-2,1.11,3.9,3.9,0,0,0-3.49.54c-.93-.65-3.33-.34-3.93.51a2.21,2.21,0,0,0-2.14-.55c-.9.17-1.53.75-1.36,1.23a8.58,8.58,0,0,0-3-.52c-1.1.05-2.3.59-2.2,1.19-.88-.56-3.75,0-3.14,1-1-.3-2.44.24-2.52.88s1.1,1.14,2.23,1a1.26,1.26,0,0,0,.19,2.22,4.63,4.63,0,0,0,3.66,0,.79.79,0,0,0-.08,1.31,2.31,2.31,0,0,0,2,.23c-.38.69.27,1.44,1.4,1.64a4,4,0,0,0,3.2-.83c-.31.65.54,1.27,1.64,1.42A8.74,8.74,0,0,0,191.3,22c-.58.55-.22,1.29.73,1.5,0,.7.95,1.29,2.16,1.33a4,4,0,0,0,3.05-1.13,3.86,3.86,0,0,0,1.32,1.46,4.18,4.18,0,0,0,2.67.51c1-.13,2-.73,1.92-1.3.65.69,2.92.54,3.67-.25a3,3,0,0,0,2.69,1.95c1.54.21,3.67-.5,3.88-1.43a4.51,4.51,0,0,0,3.08,1c1.33,0,2.82-.58,3.21-1.33a3,3,0,0,0,2.33-.26,1.08,1.08,0,0,0,.57-1.25,6.09,6.09,0,0,0,3.29.34c1.2-.23,2.27-1,2-1.59a4.45,4.45,0,0,0,3.49-.63c.65-.57.16-1.39-.65-1.32.66-.38.86-.95.48-1.34A2.76,2.76,0,0,0,229,17.9c1-.11,1.89-.74,1.76-1.25s-1.23-.81-2.22-.59c.66-.23.5-.78-.11-.94a5.72,5.72,0,0,0-2.13.06c.68-.45.79-1.19-.12-1.65s-1.94-.29-3.45.19c.13-.43-.26-.84-.94-1a3.86,3.86,0,0,0-2.27.23c.24-.79-1.64-1.31-2.92-.82,0-.56-.74-1-1.75-1.11a4,4,0,0,0-2.78.78c-.41-.74-2.34-1-3.65-.49A3.83,3.83,0,0,0,205.38,11.14Z"/><path class="cls-19" d="M231.09,20.49c.2-.82-2.29-.72-2.48.15S230.92,21.16,231.09,20.49Z"/><path class="cls-19" d="M226.85,22c.27-1-2.7-1-2.91.05S226.61,22.93,226.85,22Z"/><path class="cls-19" d="M227.94,19.92c.27-1-2.71-1-2.93,0S227.68,20.86,227.94,19.92Z"/><path class="cls-19" d="M229.79,18.24c.62,0,1,.28.91.62a1.51,1.51,0,0,1-1.35.62c-.61,0-1-.28-.91-.62S229.18,18.24,229.79,18.24Z"/><path class="cls-19" d="M227.27,17.41c.66,0,1.1.31,1,.67a1.57,1.57,0,0,1-1.44.66c-.66,0-1.1-.3-1-.67S226.61,17.41,227.27,17.41Z"/><path class="cls-19" d="M229.09,16.48c.39,0,.66.19.58.4s-.47.39-.86.39-.66-.18-.58-.4S228.7,16.48,229.09,16.48Z"/><path class="cls-19" d="M225.59,15.68a2.87,2.87,0,0,1,1.14-.23,1.75,1.75,0,0,1,1,.25.48.48,0,0,1,.23.58,1.15,1.15,0,0,1-.65.58,2.83,2.83,0,0,1-1.14.23,1.8,1.8,0,0,1-1-.24.5.5,0,0,1-.24-.59A1.15,1.15,0,0,1,225.59,15.68Z"/><path class="cls-19" d="M222.16,20.3a2.74,2.74,0,0,1,1.12-.24,1.68,1.68,0,0,1,1,.25.49.49,0,0,1,.24.58,1.21,1.21,0,0,1-.63.58,2.74,2.74,0,0,1-1.12.24,1.79,1.79,0,0,1-1-.24.51.51,0,0,1-.24-.58A1.15,1.15,0,0,1,222.16,20.3Z"/><path class="cls-19" d="M220,23.24l.11-.1a1.35,1.35,0,0,1,.92-.2.58.58,0,0,1,.39.2.25.25,0,0,1,0,.21.49.49,0,0,1-.17.22h0a1.31,1.31,0,0,1-1.07.16.53.53,0,0,1-.22-.15h0A.26.26,0,0,1,220,23.24Z"/><path class="cls-19" d="M219.48,21.77a1.93,1.93,0,0,1,1.07-.31h0a1.06,1.06,0,0,1,.86.31c.18.24,0,.56-.42.75h0a2,2,0,0,1-.85.18,1.05,1.05,0,0,1-.86-.3C219.14,22.21,219.22,22,219.48,21.77Z"/><path class="cls-19" d="M217.21,23.27c.75,0,1.26.34,1.13.76s-.86.78-1.6.78-1.26-.35-1.13-.77S216.47,23.27,217.21,23.27Z"/><path class="cls-19" d="M217.49,21.73h0c.47,0,.79.22.71.48a1.1,1.1,0,0,1-1,.48h0c-.46,0-.79-.22-.7-.48S217,21.73,217.49,21.73Z"/><path class="cls-19" d="M213.54,22.86a1.83,1.83,0,0,1,1-.3,1,1,0,0,1,.83.3.33.33,0,0,1,.06.3.67.67,0,0,1-.24.3h0a1.77,1.77,0,0,1-1,.3,1,1,0,0,1-.82-.29h0a.35.35,0,0,1-.05-.31A.62.62,0,0,1,213.54,22.86Z"/><path class="cls-19" d="M217.7,19.82a3,3,0,0,1,1.21-.26,2,2,0,0,1,1,.26.54.54,0,0,1,.26.63,1.21,1.21,0,0,1-.67.62,2.81,2.81,0,0,1-1.2.26,1.88,1.88,0,0,1-1-.26.53.53,0,0,1-.26-.62A1.14,1.14,0,0,1,217.7,19.82Z"/><path class="cls-19" d="M225,13.69c.49,0,.82.28.72.59a1.11,1.11,0,0,1-1.06.58c-.49,0-.82-.28-.73-.6A1.1,1.1,0,0,1,225,13.69Z"/><path class="cls-19" d="M223.19,15c.76,0,1.26.35,1.12.76a1.82,1.82,0,0,1-1.64.75c-.75,0-1.25-.35-1.11-.76S222.44,15,223.19,15Z"/><path class="cls-19" d="M210,23.77a2.87,2.87,0,0,1,1.22-.27,2,2,0,0,1,1.06.26.58.58,0,0,1,.28.65,1.19,1.19,0,0,1-.66.65,2.86,2.86,0,0,1-1.21.27,1.93,1.93,0,0,1-1.06-.26.57.57,0,0,1-.29-.65A1.16,1.16,0,0,1,210,23.77Z"/><path class="cls-19" d="M210.79,22h0a2,2,0,0,1,1.76,0h0a.44.44,0,0,1,.12.69,1.85,1.85,0,0,1-1.36.52,1.27,1.27,0,0,1-1-.35.39.39,0,0,1-.06-.36A.92.92,0,0,1,210.79,22Z"/><path class="cls-19" d="M207,23.31a.08.08,0,0,1,0,0,.37.37,0,0,1,.05-.43,1.38,1.38,0,0,1,.87-.42,1.7,1.7,0,0,1,.82.06.63.63,0,0,1,.32.22.33.33,0,0,1,.06.3,1.51,1.51,0,0,1-.09.18.93.93,0,0,1-.36.26,1.77,1.77,0,0,1-.8.18,1.06,1.06,0,0,1-.85-.31Z"/><path class="cls-19" d="M205.21,23.06c.64,0,1.08.3,1,.66s-.71.65-1.34.66-1.07-.3-1-.66S204.58,23.06,205.21,23.06Z"/><path class="cls-19" d="M205,21.27A2.68,2.68,0,0,1,206.2,21a1.9,1.9,0,0,1,1,.26.53.53,0,0,1,.27.61,1.1,1.1,0,0,1-.62.62,2.81,2.81,0,0,1-1.16.25,1.9,1.9,0,0,1-1-.25.57.57,0,0,1-.28-.62A1.08,1.08,0,0,1,205,21.27Z"/><path class="cls-19" d="M199.56,23.62a3.06,3.06,0,0,1,1.3-.29,2.17,2.17,0,0,1,1.15.29.64.64,0,0,1,.32.7,1.26,1.26,0,0,1-.69.7,3.05,3.05,0,0,1-1.29.29A2.06,2.06,0,0,1,199.2,25a.62.62,0,0,1-.33-.69A1.18,1.18,0,0,1,199.56,23.62Z"/><path class="cls-19" d="M202.56,22.13c1,0,.75.86-.23.86S201.58,22.13,202.56,22.13Z"/><path class="cls-19" d="M198.32,21.88a2.55,2.55,0,0,1,1.08-.24,1.78,1.78,0,0,1,.95.24.53.53,0,0,1,.27.57,1,1,0,0,1-.57.58,2.55,2.55,0,0,1-1.08.24A1.78,1.78,0,0,1,198,23a.53.53,0,0,1-.27-.58A1,1,0,0,1,198.32,21.88Z"/><path class="cls-19" d="M194.73,23a1.72,1.72,0,0,1,1-.32,1.13,1.13,0,0,1,.89.32.37.37,0,0,1,.07.32.76.76,0,0,1-.44.45h0l-.25.1a1.85,1.85,0,0,1-.58.09,1.8,1.8,0,0,1-.54-.08.88.88,0,0,1-.34-.23h0a.38.38,0,0,1-.08-.32A.63.63,0,0,1,194.73,23Z"/><path class="cls-19" d="M192.33,21.47a2.6,2.6,0,0,1,1.13-.25,1.91,1.91,0,0,1,1,.25.57.57,0,0,1,.29.61,1,1,0,0,1-.6.61,2.56,2.56,0,0,1-1.12.25,1.89,1.89,0,0,1-1-.25.58.58,0,0,1-.3-.61A1,1,0,0,1,192.33,21.47Z"/><path class="cls-19" d="M195.17,20.93a1.77,1.77,0,0,1,1.35-.52c.56,0,1,.22,1.08.52a.46.46,0,0,1-.1.38,1.41,1.41,0,0,1-.69.43h0a2.08,2.08,0,0,1-1.26,0h0a.83.83,0,0,1-.39-.26A.44.44,0,0,1,195.17,20.93Z"/><path class="cls-19" d="M213.2,19.91a3.46,3.46,0,0,1,1.41-.3,2.18,2.18,0,0,1,1.22.31.64.64,0,0,1,.32.73,1.42,1.42,0,0,1-.78.74,3.38,3.38,0,0,1-1.4.3,2.27,2.27,0,0,1-1.22-.3.64.64,0,0,1-.32-.74A1.36,1.36,0,0,1,213.2,19.91Z"/><path class="cls-19" d="M208.65,20.15a3.18,3.18,0,0,1,1.32-.28,2,2,0,0,1,1.15.29.62.62,0,0,1,.31.69,1.28,1.28,0,0,1-.72.69,3.14,3.14,0,0,1-1.31.29,2.15,2.15,0,0,1-1.15-.29.61.61,0,0,1-.31-.69A1.24,1.24,0,0,1,208.65,20.15Z"/><path class="cls-19" d="M211.4,18.24a2.59,2.59,0,0,1,1.09-.23,1.78,1.78,0,0,1,.95.24.49.49,0,0,1,.24.57,1.07,1.07,0,0,1-.6.56,2.55,2.55,0,0,1-1.08.23,1.76,1.76,0,0,1-.95-.23.52.52,0,0,1-.25-.57A1.05,1.05,0,0,1,211.4,18.24Z"/><path class="cls-19" d="M215.47,18v0a1.67,1.67,0,0,1,.62-.44,3.36,3.36,0,0,1,1.39-.3,2.66,2.66,0,0,1,.88.15c.35.13.62.36.64.61v0l0,.27a1.08,1.08,0,0,1-.42.51,3.13,3.13,0,0,1-1.74.5,2.25,2.25,0,0,1-1.21-.3.77.77,0,0,1-.33-.46A.66.66,0,0,1,215.47,18Z"/><path class="cls-19" d="M221.12,17.53a4,4,0,0,1,1.63-.34,2.64,2.64,0,0,1,1.39.36.71.71,0,0,1,.34.83,1.64,1.64,0,0,1-.91.83,4,4,0,0,1-1.62.35,2.55,2.55,0,0,1-1.39-.35.72.72,0,0,1-.35-.84A1.61,1.61,0,0,1,221.12,17.53Z"/><path class="cls-19" d="M218.53,15.67a2.82,2.82,0,0,1,1.13-.23,1.72,1.72,0,0,1,1,.25.48.48,0,0,1,.24.58,1.1,1.1,0,0,1-.63.58,2.82,2.82,0,0,1-1.13.23,1.74,1.74,0,0,1-1-.25.48.48,0,0,1-.24-.58A1.13,1.13,0,0,1,218.53,15.67Z"/><path class="cls-19" d="M220.8,13.36c1.82,0,1.28,1.55-.52,1.54S219,13.34,220.8,13.36Z"/><path class="cls-19" d="M218,12.58c.49,0,.82.23.73.5s-.57.48-1.06.47-.81-.23-.73-.49S217.48,12.57,218,12.58Z"/><path class="cls-19" d="M215.36,14.22A3.15,3.15,0,0,1,216.7,14a2.16,2.16,0,0,1,1.16.29.58.58,0,0,1,.28.69,1.28,1.28,0,0,1-.74.68,3.28,3.28,0,0,1-1.34.28,2.15,2.15,0,0,1-1.15-.3.58.58,0,0,1-.29-.69A1.28,1.28,0,0,1,215.36,14.22Z"/><path class="cls-19" d="M214.36,16.11c.72,0,1.21.34,1.09.74s-.84.73-1.55.72-1.22-.34-1.09-.73S213.64,16.11,214.36,16.11Z"/><path class="cls-19" d="M210.43,14.39a3.29,3.29,0,0,1,1.41-.28,2.2,2.2,0,0,1,1.22.31.62.62,0,0,1,.31.72,1.37,1.37,0,0,1-.77.72,3.3,3.3,0,0,1-1.41.29,2.2,2.2,0,0,1-1.22-.31.65.65,0,0,1-.32-.73A1.39,1.39,0,0,1,210.43,14.39Z"/><path class="cls-19" d="M213.24,11.59a3.1,3.1,0,0,1,1.23-.24,2.11,2.11,0,0,1,1.05.27.54.54,0,0,1,.26.63,1.19,1.19,0,0,1-.68.61,3,3,0,0,1-1.22.25,2.11,2.11,0,0,1-1-.27.56.56,0,0,1-.27-.63A1.23,1.23,0,0,1,213.24,11.59Z"/><path class="cls-19" d="M214.51,13.34c1.23,0,.88,1.05-.34,1S213.29,13.33,214.51,13.34Z"/><path class="cls-19" d="M209.1,12.59l.09-.05,0,0,.06,0a3,3,0,0,1,1.8-.29c.66.11,1,.47.91.87a1.78,1.78,0,0,1-1.46.84,3.09,3.09,0,0,1-.86,0,1.34,1.34,0,0,1-.83-.42c-.13-.17-.1-.27-.08-.46A.86.86,0,0,1,209.1,12.59Z"/><path class="cls-19" d="M205.8,11.65a2.54,2.54,0,0,1,1-.2,1.68,1.68,0,0,1,.9.23.46.46,0,0,1,.23.53,1,1,0,0,1-.56.53,2.72,2.72,0,0,1-1,.21,1.65,1.65,0,0,1-.89-.24.45.45,0,0,1-.24-.53A1,1,0,0,1,205.8,11.65Z"/><path class="cls-19" d="M206.38,13.24c1.79,0,1.32,1.54-.46,1.53S204.6,13.22,206.38,13.24Z"/><path class="cls-19" d="M207.79,15.12c.68,0,1.14.33,1,.7s-.77.68-1.45.68-1.15-.32-1-.7S207.11,15.12,207.79,15.12Z"/><path class="cls-19" d="M208.65,16.73a2.84,2.84,0,0,1,1.14-.24,1.91,1.91,0,0,1,1,.26.51.51,0,0,1,.26.59,1.11,1.11,0,0,1-.63.59,2.68,2.68,0,0,1-1.14.25,1.88,1.88,0,0,1-1-.26.52.52,0,0,1-.27-.6A1.11,1.11,0,0,1,208.65,16.73Z"/><path class="cls-19" d="M208.46,18.39c1.62,0,1.2,1.4-.41,1.4S206.85,18.38,208.46,18.39Z"/><path class="cls-19" d="M204.92,20l0,0a.69.69,0,0,1,.31-.15,1.21,1.21,0,0,1,.38-.06,1,1,0,0,1,.36.06.47.47,0,0,1,.22.15l0,0a.25.25,0,0,1,0,.22.43.43,0,0,1-.17.22,1.26,1.26,0,0,1-.73.21.77.77,0,0,1-.6-.21.26.26,0,0,1-.05-.22A.44.44,0,0,1,204.92,20Z"/><path class="cls-19" d="M202.55,19.87c.86,0,1.47.41,1.34.89s-1,.9-1.84.9-1.47-.41-1.34-.9S201.68,19.86,202.55,19.87Z"/><path class="cls-19" d="M205.74,17.41c.76,0,1.3.37,1.17.79s-.87.78-1.63.78-1.3-.36-1.18-.79S205,17.41,205.74,17.41Z"/><path class="cls-19" d="M203.4,16.54h0a.71.71,0,0,1,.26-.34,2,2,0,0,1,1.12-.31,1.42,1.42,0,0,1,.82.2.47.47,0,0,1,.23.33v.18a.61.61,0,0,1-.26.33,2,2,0,0,1-1.72.23l-.22-.1a.51.51,0,0,1-.22-.3s0,0,0,0h0v0h0a.43.43,0,0,1,0-.16Z"/><path class="cls-19" d="M200.94,17.93a2.68,2.68,0,0,1,.34-.13,2.52,2.52,0,0,1,.77-.11,1.8,1.8,0,0,1,1,.25c.39.26.37.68-.06,1a2.48,2.48,0,0,1-1.76.38,1.58,1.58,0,0,1-.59-.22l-.18-.17a.42.42,0,0,1-.1-.2C200.28,18.43,200.52,18.13,200.94,17.93Z"/><path class="cls-19" d="M201.27,10.57a3.17,3.17,0,0,1,1.39-.28,2.21,2.21,0,0,1,1.2.32.62.62,0,0,1,.32.71,1.3,1.3,0,0,1-.75.7,3.16,3.16,0,0,1-1.38.28,2.35,2.35,0,0,1-1.21-.31.63.63,0,0,1-.32-.72A1.27,1.27,0,0,1,201.27,10.57Z"/><path class="cls-19" d="M201.46,13h0A2.64,2.64,0,0,1,203,13h0c.55.21.72.61.43,1a2.31,2.31,0,0,1-1.68.61c-.68,0-1.23-.28-1.31-.65S200.8,13.17,201.46,13Z"/><path class="cls-19" d="M203.84,14.58c.56,0,.94.27.85.57s-.63.56-1.19.56-.94-.27-.85-.57S203.28,14.57,203.84,14.58Z"/><path class="cls-19" d="M199.45,15.74a3.15,3.15,0,0,1,1.39-.29,2.2,2.2,0,0,1,1.22.31.64.64,0,0,1,.33.73,1.32,1.32,0,0,1-.75.72,3.31,3.31,0,0,1-1.38.29,2.2,2.2,0,0,1-1.22-.31.67.67,0,0,1-.34-.73A1.29,1.29,0,0,1,199.45,15.74Z"/><path class="cls-19" d="M198.57,14c.59,0,1,.29.92.62v0c-.09.33-.67.6-1.26.6s-1-.29-.93-.62v0C197.39,14.29,198,14,198.57,14Z"/><path class="cls-19" d="M198.07,10.42c.92,0,1.56.44,1.41.95s-1,.91-1.94.89-1.56-.44-1.41-.94S197.16,10.41,198.07,10.42Z"/><path class="cls-19" d="M199.25,12.44c.62,0,1.05.3.95.64s-.69.62-1.31.61-1-.3-.95-.64S198.64,12.43,199.25,12.44Z"/><path class="cls-19" d="M194.62,13c.9,0,1.54.43,1.4.93s-1,.92-1.91.91-1.54-.44-1.41-.94S193.71,13,194.62,13Z"/><path class="cls-19" d="M193.83,11.42c.58,0,1,.29.9.61s-.65.58-1.23.57-1-.28-.91-.6S193.24,11.41,193.83,11.42Z"/><path class="cls-19" d="M194.47,15.38a3,3,0,0,1,1.34-.28,2.17,2.17,0,0,1,1.18.3.62.62,0,0,1,.33.71,1.27,1.27,0,0,1-.71.7,3.24,3.24,0,0,1-1.34.28,2.17,2.17,0,0,1-1.18-.3.66.66,0,0,1-.34-.71A1.23,1.23,0,0,1,194.47,15.38Z"/><path class="cls-19" d="M197.64,17.33c1.51,0,1.15,1.31-.35,1.31S196.14,17.32,197.64,17.33Z"/><path class="cls-19" d="M199,18.9c1.61,0,1.23,1.41-.38,1.41S197.42,18.9,199,18.9Z"/><path class="cls-19" d="M195.75,19c.5,0,.86.24.79.52s-.56.52-1.06.52-.87-.24-.79-.52S195.24,19,195.75,19Z"/><path class="cls-19" d="M193.74,17.39c.76,0,1.3.37,1.19.79s-.84.78-1.59.77-1.3-.36-1.19-.79S193,17.39,193.74,17.39Z"/><path class="cls-19" d="M193.1,19.33c1.65,0,1.28,1.44-.36,1.44S191.45,19.32,193.1,19.33Z"/><path class="cls-19" d="M187.13,20.8a.67.67,0,0,0,.36.72,1.85,1.85,0,0,0,.73.27,3.09,3.09,0,0,0,1.81-.26c.52-.26.79-.64.7-1a1,1,0,0,0-.67-.61h0a1.76,1.76,0,0,0-.41-.11,3.35,3.35,0,0,0-.95,0,3.13,3.13,0,0,0-.85.26l-.33.2C187.29,20.48,187.18,20.56,187.13,20.8Z"/><path class="cls-19" d="M190.05,17.87c.7,0,1.21.34,1.11.74s-.77.72-1.47.72-1.21-.34-1.11-.74S189.34,17.87,190.05,17.87Z"/><path class="cls-19" d="M186.62,18.38c.65,0,1.12.31,1,.68s-.7.67-1.35.67-1.12-.31-1-.68S186,18.38,186.62,18.38Z"/><path class="cls-19" d="M189.72,15.58a3.33,3.33,0,0,1,1.35-.28,2.33,2.33,0,0,1,1.2.31.64.64,0,0,1,.34.71,1.23,1.23,0,0,1-.71.71,3.11,3.11,0,0,1-1.35.29,2.32,2.32,0,0,1-1.19-.31.66.66,0,0,1-.35-.72A1.28,1.28,0,0,1,189.72,15.58Z"/><path class="cls-19" d="M190.38,13.55c.63,0,1.08.31,1,.66s-.7.64-1.33.63-1.08-.3-1-.65S189.75,13.55,190.38,13.55Z"/><path class="cls-19" d="M190.07,11.82c.66,0,1.13.32,1,.68s-.73.67-1.39.66-1.13-.32-1-.69S189.41,11.81,190.07,11.82Z"/><path class="cls-19" d="M186.64,12.17c.72,0,1.24.35,1.13.75s-.79.73-1.51.72-1.24-.35-1.14-.75S185.91,12.16,186.64,12.17Z"/><path class="cls-19" d="M185.57,14.59a2.33,2.33,0,0,1,.35-.22,3,3,0,0,1,.83-.24,3.08,3.08,0,0,1,.91,0c.71.13,1.13.52,1,.94a1.43,1.43,0,0,1-1.06.82,2.9,2.9,0,0,1-.89.12,2,2,0,0,1-1.14-.29l0,0h0a.68.68,0,0,1-.32-.41v-.25A.84.84,0,0,1,185.57,14.59Z"/><path class="cls-19" d="M186.5,17a1.55,1.55,0,0,1,.73-.28h0l.3,0a1.44,1.44,0,0,1,.53.09c.31.11.47.32.42.54a.75.75,0,0,1-.43.43,1.73,1.73,0,0,1-.53.16,1.88,1.88,0,0,1-.58,0h0a1.14,1.14,0,0,1-.45-.16.42.42,0,0,1-.21-.44A.62.62,0,0,1,186.5,17Z"/><path class="cls-19" d="M183,19.76a2.66,2.66,0,0,1,1.18-.26,2,2,0,0,1,1.07.27.6.6,0,0,1,.31.64,1,1,0,0,1-.61.64,2.79,2.79,0,0,1-1.17.26,2,2,0,0,1-1.07-.27.61.61,0,0,1-.32-.64A1,1,0,0,1,183,19.76Z"/><path class="cls-19" d="M181.75,18.28c1.66,0,1.32,1.47-.33,1.46S180.08,18.27,181.75,18.28Z"/><path class="cls-19" d="M183,16.51a3.14,3.14,0,0,1,1.35-.28,2.18,2.18,0,0,1,1.2.31.65.65,0,0,1,.35.71,1.22,1.22,0,0,1-.69.72,3.09,3.09,0,0,1-1.34.28,2.27,2.27,0,0,1-1.2-.3.68.68,0,0,1-.36-.72A1.2,1.2,0,0,1,183,16.51Z"/><path class="cls-19" d="M181.56,15.07c1.65,0,1.3,1.45-.34,1.43S179.92,15.05,181.56,15.07Z"/><path class="cls-19" d="M180.91,13.06a2.84,2.84,0,0,1,1.29-.27,2.31,2.31,0,0,1,1.16.3.63.63,0,0,1,.33.69,1.19,1.19,0,0,1-.67.68,3,3,0,0,1-1.29.26,2.17,2.17,0,0,1-1.15-.29.66.66,0,0,1-.35-.69A1.13,1.13,0,0,1,180.91,13.06Z"/><path class="cls-19" d="M178.4,13.71c.76,0,1.31.38,1.21.8s-.82.78-1.58.77-1.31-.37-1.21-.8S177.64,13.7,178.4,13.71Z"/><path class="cls-19" d="M176.48,16.86a1.45,1.45,0,0,1,.53-.42l0,0a2.84,2.84,0,0,1,.81-.23,3.08,3.08,0,0,1,1,0,2,2,0,0,1,.72.26.68.68,0,0,1,.35.71c-.1.44-.73.84-1.52.95a2.19,2.19,0,0,1-1.89-.48.58.58,0,0,1-.13-.5Z"/><path class="cls-19" d="M176.31,14.65c1.49,0,1.14,1.4-.35,1.4S174.82,14.65,176.31,14.65Z"/><path class="cls-19" d="M178,17.32c.55,0,.94.27.86.6a1.19,1.19,0,0,1-1.15.62c-.55,0-.94-.28-.86-.61S177.48,17.32,178,17.32Z"/></svg>