<svg xmlns="http://www.w3.org/2000/svg" xmlns:xlink="http://www.w3.org/1999/xlink" viewBox="0 0 937.78 143.66"><defs><style>.cls-1{fill:#b96e2c;}.cls-2{isolation:isolate;}.cls-3{clip-path:url(#clip-path);}.cls-4{opacity:0.38;}.cls-5{fill:#7f4b25;}.cls-6{opacity:0.22;mix-blend-mode:screen;}.cls-11,.cls-7{stroke:#60301d;}.cls-11,.cls-7,.cls-8{stroke-miterlimit:10;}.cls-7{fill:url(#linear-gradient);}.cls-8{fill:none;stroke:#9b5719;}.cls-9{fill:#ba7936;}.cls-10{fill:#ad6738;}.cls-11{fill:url(#linear-gradient-2);}.cls-12{fill:#bf9668;}</style><clipPath id="clip-path"><polygon class="cls-1" points="405.75 -55.95 -175.84 -55.95 -189.37 -79.19 -175.84 -102.43 405.75 -102.43 418.04 -79.19 405.75 -55.95"/></clipPath><linearGradient id="linear-gradient" x1="459.85" y1="180.92" x2="476.47" y2="-21.76" gradientUnits="userSpaceOnUse"><stop offset="0.05" stop-color="#cf9350"/><stop offset="0.73" stop-color="#d19651"/></linearGradient><linearGradient id="linear-gradient-2" x1="-101.82" y1="28.37" x2="1200.4" y2="28.37" gradientTransform="translate(-6.84 0.81)" gradientUnits="userSpaceOnUse"><stop offset="0.03" stop-color="#915824"/><stop offset="0.1" stop-color="#a1662e"/><stop offset="0.2" stop-color="#ac7136"/><stop offset="0.34" stop-color="#b3773b"/><stop offset="0.73" stop-color="#b5793c"/></linearGradient></defs><g class="cls-2"><g id="Layer_1" data-name="Layer 1"><g class="cls-3"><g class="cls-4"><path class="cls-5" d="M136.74-.58c13.46,4.57,12,3.5,0,0Z"/><g class="cls-6"><path class="cls-5" d="M136.74.05c13.51,4.57,12,3.5,0,0Z"/><path class="cls-5" d="M-150.84-24.3C-347.14-15-30.89-33,73-14.55A638.63,638.63,0,0,1,136.74.05c-5-1.67-12-4.13-21.35-7.54C57.34-28.68-150.84-24.3-150.84-24.3Z"/></g></g></g></g><g id="Layer_6" data-name="Layer 6"><polygon class="cls-7" points="2.93 22.06 2.93 143.45 932.88 143.45 932.88 15.67 2.93 22.06"/><path class="cls-8" d="M5.76,42.48s556.49.23,623.66,3.36S926.69,40.3,926.69,40.3"/><path class="cls-8" d="M5.76,50.85S357,44.63,457,53.2c110.51-.74,404-2.35,404-2.35l64.27-4.33"/><path class="cls-8" d="M5.76,65.19s239.88-11.67,317.1,0S693,63.77,725.6,61.6,926.69,52.54,926.69,56"/><path class="cls-8" d="M5.76,124.54s169-50.09,425.25-17.81c260.92,22.47,494.24-6.34,494.24-6.34"/><path class="cls-8" d="M4.8,134.45s139.46-59.91,506.9-9.91C753.56,139,923.36,106.73,923.36,106.73"/><path class="cls-8" d="M46.14,133.46s257.42-32.94,433,0c174.42,19,448.8-13.92,448.8-13.92"/><path class="cls-9" d="M5.76,70.56s112.8-7.62,150.4-4.3c41.9,19.84-54.95,30.62-147.52,44.58,0,0,146-13.49,158.15-22.71s56.55-26.71-72.58-26.27C12.61,70.12,5.76,70.56,5.76,70.56Z"/><path class="cls-9" d="M46.14,75.49s63.44-6.69,36.69,5S2.09,95.75,5.76,95.89s86.67-2.22,93.39-11.15S96.08,62.72,46.14,75.49Z"/><path class="cls-9" d="M684.21,85.47c-83.52-.18-83.52,9.74,0,9.56C767.74,95.21,767.74,85.29,684.21,85.47Zm0,7.45c-73,.11-73-5.45,0-5.34C757.16,87.47,757.16,93,684.21,92.92Z"/><path class="cls-9" d="M684.52,74.72c-153.13-.56-153.13,30,0,29.4C837.65,104.67,837.65,74.16,684.52,74.72Zm0,22.91c-133.74.33-133.74-16.76,0-16.43C818.26,80.87,818.26,98,684.52,97.63Z"/><path class="cls-10" d="M925.25,80.23q-57.36-2.92-114.76-4.79C772.22,74.17,734,73.26,695.67,73q-28.71-.2-57.41,0c-19.14.2-38.27.57-57.38,1.29s-38.22,1.83-57.24,3.61l-7.13.68c-2.38.21-4.74.55-7.11.82l-7.11.86c-2.37.28-4.72.69-7.08,1l-7.07,1.09-7,1.35-3.5.67c-1.16.24-2.31.56-3.46.83l-6.91,1.71.67-.39a.91.91,0,0,0-.33.59,1.26,1.26,0,0,0,.35.72,8.82,8.82,0,0,0,2.42,1.89,39.73,39.73,0,0,0,6.43,2.83,132.5,132.5,0,0,0,13.92,3.88c9.45,2.14,19.06,3.7,28.68,5,19.28,2.65,38.7,4.31,58.14,5.52,38.9,2.38,77.91,2.71,116.89,2.24s78-2.22,116.88-4.7S889.12,98.83,927.94,95q-58.12,6.72-116.53,11c-38.92,2.77-77.91,4.71-116.94,5.54q-14.64.31-29.28.39t-29.28-.16c-19.52-.28-39-.91-58.53-2.06s-39-2.78-58.37-5.4c-9.68-1.33-19.36-2.88-28.94-5a134.1,134.1,0,0,1-14.26-3.94,42.81,42.81,0,0,1-6.95-3,11.51,11.51,0,0,1-3.27-2.63,4.24,4.24,0,0,1-1-2.6,3.89,3.89,0,0,1,1.19-2.64l.31-.31.35-.09,7-1.73c1.17-.27,2.34-.6,3.52-.83l3.55-.68,7.09-1.35,7.13-1.07c2.38-.34,4.75-.75,7.13-1l7.15-.85c2.38-.26,4.76-.6,7.15-.8l7.17-.67c19.1-1.74,38.25-2.76,57.4-3.49,38.3-1.31,76.62-1.46,114.92-.87S772.28,72.41,810.54,74q28.69,1.23,57.38,2.77T925.25,80.23Z"/><path class="cls-9" d="M437.75,81.2S310.31,77.06,408,97.63l27.9,2.19h0s-67.18-11.73-47.54-13.47S437.75,81.2,437.75,81.2Z"/><path class="cls-9" d="M230.74,72.22s104.87,1,52.84,8.64-65.51,3.34-58.77,5.49,41.93-9.31,48-7.07S230.74,72.22,230.74,72.22Z"/><rect class="cls-11" x="2.82" y="16.72" width="931.18" height="24.93" transform="translate(-0.09 1.53) rotate(-0.19)"/><polygon class="cls-12" points="15.37 0.21 2.8 17.67 935 15.54 926.25 0.87 15.37 0.21"/></g></g></svg>