<svg id="ad4de4b9-8620-4148-89f4-5de544dd7627" data-name="Layer 1" xmlns="http://www.w3.org/2000/svg" width="80" height="92" viewBox="0 0 80 92">
  <defs>
    <style>
      .ad811bb1-fdc8-49f3-804a-1e9938e78fae {
        fill: #249238;
        stroke: #025b09;
        stroke-miterlimit: 10;
        stroke-width: 0.5px;
      }

      .b8cad8e3-e3ba-4083-ad4c-b09d991a1716 {
        fill: #1e8937;
      }

      .f7763cdd-a549-40ee-9db8-77904686cb0b {
        fill: #138036;
      }

      .a89bfcdd-8a72-4c3d-ae52-22e347b7a9e0 {
        fill: #60b463;
      }
    </style>
  </defs>
  <g>
    <g id="afedc9f3-d11d-42b2-a32f-22ecb61aabc9" data-name="Cucumber">
      <g id="b914d1ff-e47b-421e-96a7-48bf2341af4d" data-name="Cucumber">
        <path class="ad811bb1-fdc8-49f3-804a-1e9938e78fae" d="M75.4,75.83a11.39,11.39,0,0,1-1.08,5,11.1,11.1,0,0,1-1.9,2.81l-.18.18c-5.36,5.45-15.75,4.38-22.55,2.46a49,49,0,0,1-5.94-2.1q-.81-.34-1.62-.72L41.34,83c-.52-.26-1-.52-1.56-.8s-1-.56-1.52-.85-1-.59-1.49-.9-1-.62-1.45-1c-.71-.49-1.42-1-2.11-1.51s-1.36-1-2-1.6c-.44-.37-.87-.74-1.31-1.13A64.35,64.35,0,0,1,18.66,62.1c-.31-.48-.63-1-.94-1.48l-.45-.75A84.72,84.72,0,0,1,11.39,48l-.39-1,0,0-.39-1c-.12-.3-.23-.6-.34-.91,0,0,0-.08-.05-.13-.13-.34-.25-.69-.37-1l-.36-1c-.12-.35-.24-.69-.35-1s-.21-.66-.32-1a.56.56,0,0,0,0-.12l-.3-1v0C7.69,37.18,7,34.59,6.43,32A64,64,0,0,1,4.61,17.47c0-.19,0-.37,0-.56l0-.63v0c0-.21,0-.42,0-.62s0-.46.07-.69,0-.43.08-.65.06-.41.1-.62v0c0-.07,0-.14,0-.22l.06-.31s0,0,0-.08l.06-.31,0-.12s0-.06,0-.09a.29.29,0,0,0,0-.09c0-.1,0-.19.07-.27l.09-.34h0l0-.11v0a.24.24,0,0,0,0-.08l0-.06c0-.06,0-.11,0-.16h0a.83.83,0,0,1,0-.15q.19-.58.42-1.14l.11-.24a11.23,11.23,0,0,1,.67-1.29,1,1,0,0,1,.11-.17,5.65,5.65,0,0,1,.38-.57h0l0,0,.23-.3,0,0a3.11,3.11,0,0,1,.23-.28l0-.06L8,6.9A8.52,8.52,0,0,1,9.77,5.44a8.42,8.42,0,0,1,2.86-1.11,7.86,7.86,0,0,1,1.67-.11l.28,0h0l.22,0h.12l.6.1.3.07.31.08c.2.05.41.12.61.19l.18.06.09,0c.22.08.43.17.65.27l.23.11h0l.05,0,.26.13.61.34h0a16,16,0,0,1,2,1.48l0,0a22.82,22.82,0,0,1,5.31,6.86c3.5,7,5.42,15.09,9.58,21.72A61.49,61.49,0,0,0,52,53.21c3.46,2.45,7.38,4.15,11.13,6.13l.76.41,1,.55.64.38.17.1.45.27.51.32c.34.21.67.43,1,.66l.48.34.49.36A16.58,16.58,0,0,1,72,66.24c.19.25.37.51.54.77l0,0,.16.25.27.43c0,.08.09.16.13.24a1,1,0,0,1,.1.17c.11.19.21.38.31.57s.1.2.14.3a2.59,2.59,0,0,1,.14.29c0,.09.09.19.13.28s.18.41.26.61,0,.13.08.19.08.21.11.31l.12.32,0,.1a2,2,0,0,1,.07.23c.12.36.23.72.32,1.09a2,2,0,0,0,0,.24c0,.14.07.29.1.44s0,.17.05.27l0,.23v0c0,.25.07.5.1.75v0l0,.45a4.58,4.58,0,0,1,0,.53C75.4,75.56,75.4,75.69,75.4,75.83Z"/>
        <path class="b8cad8e3-e3ba-4083-ad4c-b09d991a1716" d="M74.88,75.82a11.37,11.37,0,0,1-1.06,4.91,10.93,10.93,0,0,1-1.88,2.79l-.17.18c-5.3,5.41-15.56,4.35-22.28,2.44a50.26,50.26,0,0,1-5.87-2.08c-.53-.23-1.07-.47-1.59-.72L41.25,83c-.52-.25-1-.52-1.55-.79s-1-.56-1.5-.85-1-.58-1.47-.89-1-.62-1.43-.94c-.71-.48-1.4-1-2.08-1.5s-1.35-1-2-1.59c-.44-.37-.87-.74-1.29-1.12a63.23,63.23,0,0,1-11.08-13.1c-.31-.49-.62-1-.92-1.47q-.24-.37-.45-.75A84,84,0,0,1,11.66,48.2c-.13-.32-.26-.65-.38-1s-.26-.65-.38-1l-.36-1c-.13-.33-.24-.66-.36-1l-.33-.94,0-.07c-.08-.24-.17-.48-.24-.72s-.12-.34-.17-.51c-.11-.33-.21-.66-.32-1a.5.5,0,0,0,0-.13c-.1-.32-.2-.65-.29-1v0q-1.17-3.84-2-7.69A63.76,63.76,0,0,1,5,17.85c0-.19,0-.37,0-.55l0-.63v0c0-.21,0-.41,0-.62s0-.46.07-.68,0-.43.08-.64.06-.41.1-.62v0a1.55,1.55,0,0,1,0-.21,3,3,0,0,1,.06-.32s0,0,0-.08,0-.2.07-.3v0l0-.09s0-.06,0-.09l0-.1.06-.27.09-.33h0c0-.05,0-.1,0-.15l0-.08v-.06l0-.14v0s0-.08,0-.11v-.05a10.73,10.73,0,0,1,.42-1.12,1.73,1.73,0,0,1,.1-.24A11.23,11.23,0,0,1,7.08,9l.1-.17c.12-.19.24-.38.38-.56h0v0l.24-.3v0a3,3,0,0,1,.23-.27l0-.07.19-.19A8.4,8.4,0,0,1,10.06,5.9a8.1,8.1,0,0,1,2.83-1.1,7.64,7.64,0,0,1,1.65-.11l.27,0h0l.22,0,.11,0a4.17,4.17,0,0,1,.6.1l.3.06.3.08.61.19.16.06.1,0c.21.08.43.17.64.27l.23.11h0l0,0,.26.14c.2.1.4.22.59.34l-.48,0a11.17,11.17,0,0,0-5.87,2.22,8.81,8.81,0,0,0-2.38,3c-.17.35-.33.71-.47,1.09h0a16.77,16.77,0,0,0-.9,5.85,47.47,47.47,0,0,0,.54,7.9,34.44,34.44,0,0,0,2.38,7.67,49.82,49.82,0,0,0,3.74,7.17,37,37,0,0,0,5,6.33c1.92,1.91,4,3.71,5.85,5.64a36.83,36.83,0,0,1,2.7,3c.85,1.09,1.61,2.26,2.37,3.41,3.09,4.61,6,9.43,9.89,13.41,3,3.1,6.68,6,10.82,7.46a12.25,12.25,0,0,0,4.94.73,11.12,11.12,0,0,0,1.27-.19,8.46,8.46,0,0,0,1-.29A9.38,9.38,0,0,0,62,79.15c.15-.11.3-.24.44-.36A9.34,9.34,0,0,0,64,77a6,6,0,0,0,1.08-3.36,8.55,8.55,0,0,0-.76-3.27,30.28,30.28,0,0,0-1.71-3.3,10.23,10.23,0,0,1-1.12-2.45,8.82,8.82,0,0,1-.13-4.39A3.5,3.5,0,0,1,61.93,59l.82.43.74.4,1,.55.63.37.17.1.45.28.5.31q.49.31,1,.66c.16.11.32.22.47.34s.33.23.49.35a17,17,0,0,1,3.39,3.48c.18.26.36.51.53.77l0,0,.16.25.26.43c0,.08.09.16.14.23l.09.17c.11.19.21.38.31.57s.09.2.14.29l.14.3.13.28c.09.2.17.4.25.61l.08.18c0,.1.07.21.11.31s.08.21.11.31,0,.07,0,.11l.07.22c.12.36.22.72.31,1.08a2,2,0,0,0,0,.24c0,.15.07.29.09.44a2.16,2.16,0,0,1,0,.27,1.57,1.57,0,0,1,0,.23h0c0,.25.07.5.1.75v.06c0,.15,0,.29,0,.44l0,.52Z"/>
        <path class="f7763cdd-a549-40ee-9db8-77904686cb0b" d="M71.49,66.09A26.82,26.82,0,0,1,72.21,69a16.67,16.67,0,0,1,0,6.6,10.87,10.87,0,0,1-6.33,7.42,20.47,20.47,0,0,1-11.31,1.42,27.79,27.79,0,0,1-11.48-4.72c-1.8-1.21-3.44-2.6-5.14-3.94a43.14,43.14,0,0,0-5.19-3.38,61,61,0,0,1-5.27-3.29,18.63,18.63,0,0,1-4.27-4.23c-2.71-3.75-4.41-8.09-6.55-12.17s-5-7.68-7.27-11.7l-.7-1.31c.84,2.78,1.81,5.54,2.9,8.26,7,17.36,19.26,32.7,37.8,38,7.75,2.21,20.21,3.29,24.32-5.41C75.93,75.9,74.51,70.24,71.49,66.09Z"/>
        <path class="b8cad8e3-e3ba-4083-ad4c-b09d991a1716" d="M49.82,71.17c.51.26,1,.32,1.16-.34a1.83,1.83,0,0,0-.56-1.44c-.43-.53-.84-1.08-1.3-1.58a2.86,2.86,0,0,0-1.58-1.15c-1-.12-.64,1.21-.35,1.77a7.24,7.24,0,0,0,1.45,1.85A5.71,5.71,0,0,0,49.82,71.17Z"/>
        <path class="b8cad8e3-e3ba-4083-ad4c-b09d991a1716" d="M58.15,79.42c.49.19,1,.18,1.13-.42a1.36,1.36,0,0,0-.51-1.23c-.41-.44-.8-.89-1.23-1.3A2.4,2.4,0,0,0,56,75.59c-1,0-.65,1.15-.37,1.62A5.37,5.37,0,0,0,57,78.74,5.65,5.65,0,0,0,58.15,79.42Z"/>
        <path class="b8cad8e3-e3ba-4083-ad4c-b09d991a1716" d="M60.19,72.52l.24.11a.86.86,0,0,0,.5.05.72.72,0,0,0,.47-.75,1.92,1.92,0,0,0-.35-.88,20,20,0,0,0-1.36-1.82,3.2,3.2,0,0,0-1-.89,1.1,1.1,0,0,0-.54-.12c-.82.08-.56,1.13-.34,1.63A6.29,6.29,0,0,0,59.42,72,3.89,3.89,0,0,0,60.19,72.52Z"/>
        <path class="b8cad8e3-e3ba-4083-ad4c-b09d991a1716" d="M51.91,76.89c.35.12.65.11.63-.32a1.32,1.32,0,0,0-.57-.84c-.34-.3-.68-.6-1-.88a2.08,2.08,0,0,0-1.12-.57c-.63,0-.19.82.08,1.14a5.22,5.22,0,0,0,1.17,1A4.39,4.39,0,0,0,51.91,76.89Z"/>
        <path class="b8cad8e3-e3ba-4083-ad4c-b09d991a1716" d="M43,67.43c.25.27.53.4.71,0a1.32,1.32,0,0,0-.1-1c-.16-.43-.31-.85-.5-1.27a1.9,1.9,0,0,0-.72-1c-.55-.29-.54.63-.46,1a5,5,0,0,0,.54,1.46A3.87,3.87,0,0,0,43,67.43Z"/>
        <path class="b8cad8e3-e3ba-4083-ad4c-b09d991a1716" d="M53.42,67.52c.27.17.56.23.69-.14a1,1,0,0,0-.23-.84c-.22-.32-.42-.65-.66-1a1.57,1.57,0,0,0-.83-.72c-.58-.12-.45.65-.32,1A3.9,3.9,0,0,0,52.79,67,3.33,3.33,0,0,0,53.42,67.52Z"/>
        <path class="b8cad8e3-e3ba-4083-ad4c-b09d991a1716" d="M55.94,72.63c.16.09.32.1.37-.11a.59.59,0,0,0-.2-.46c-.14-.17-.28-.34-.43-.5a.87.87,0,0,0-.51-.36c-.33,0-.2.39-.1.57a2.26,2.26,0,0,0,.48.59A2,2,0,0,0,55.94,72.63Z"/>
        <path class="b8cad8e3-e3ba-4083-ad4c-b09d991a1716" d="M48.26,64.11c.16.12.32.16.38-.07a.69.69,0,0,0-.16-.52c-.13-.2-.26-.41-.4-.6s-.28-.41-.49-.47-.23.39-.15.6a2.76,2.76,0,0,0,.45.71A2.12,2.12,0,0,0,48.26,64.11Z"/>
        <path class="b8cad8e3-e3ba-4083-ad4c-b09d991a1716" d="M61.79,76.57c.15.07.3.07.36-.11s0-.28-.13-.39-.23-.28-.35-.41a.74.74,0,0,0-.46-.29c-.31,0-.23.34-.16.49a1.72,1.72,0,0,0,.4.49A1.54,1.54,0,0,0,61.79,76.57Z"/>
        <path class="b8cad8e3-e3ba-4083-ad4c-b09d991a1716" d="M46.4,72.18c.16.09.32.11.37-.1a.59.59,0,0,0-.17-.47c-.14-.17-.27-.35-.42-.51s-.29-.35-.5-.38-.21.39-.12.57a2.46,2.46,0,0,0,.46.6A2.19,2.19,0,0,0,46.4,72.18Z"/>
        <path class="b8cad8e3-e3ba-4083-ad4c-b09d991a1716" d="M23.64,18.6c-.26-.32-.58-.5-.88-.1a1.35,1.35,0,0,0,0,1.13c.13.48.25,1,.42,1.44a2,2,0,0,0,.73,1.22c.64.38.78-.63.74-1.08a4.8,4.8,0,0,0-.44-1.67A4.14,4.14,0,0,0,23.64,18.6Z"/>
        <path class="b8cad8e3-e3ba-4083-ad4c-b09d991a1716" d="M20.4,10.66c-.28-.27-.6-.41-.88-.05a1,1,0,0,0,0,1c.15.41.28.83.46,1.23a1.71,1.71,0,0,0,.76,1c.65.29.76-.59.72-1A4,4,0,0,0,21,11.44,3.21,3.21,0,0,0,20.4,10.66Z"/>
        <path class="b8cad8e3-e3ba-4083-ad4c-b09d991a1716" d="M17.05,14.72l-.13-.14a.65.65,0,0,0-.33-.19.53.53,0,0,0-.53.37,1.38,1.38,0,0,0,0,.7,14.53,14.53,0,0,0,.39,1.61,2.21,2.21,0,0,0,.4.88.71.71,0,0,0,.33.24c.57.18.7-.6.7-1a4.68,4.68,0,0,0-.46-1.87A2.81,2.81,0,0,0,17.05,14.72Z"/>
        <path class="b8cad8e3-e3ba-4083-ad4c-b09d991a1716" d="M23.88,14.15c-.2-.18-.41-.26-.52,0a1,1,0,0,0,.14.73c.15.29.29.6.45.88s.32.6.6.71.35-.5.27-.79a3.93,3.93,0,0,0-.5-1A3.49,3.49,0,0,0,23.88,14.15Z"/>
        <path class="b8cad8e3-e3ba-4083-ad4c-b09d991a1716" d="M27.13,23.07c-.09-.26-.24-.42-.47-.22a.94.94,0,0,0-.22.71c0,.33,0,.67,0,1a1.43,1.43,0,0,0,.18.9c.3.35.56-.27.62-.56a3.66,3.66,0,0,0,.05-1.14A3,3,0,0,0,27.13,23.07Z"/>
        <path class="b8cad8e3-e3ba-4083-ad4c-b09d991a1716" d="M20.17,20c-.14-.2-.31-.32-.5-.11a.71.71,0,0,0-.09.63c.05.28.1.56.16.84a1.24,1.24,0,0,0,.36.73c.35.24.49-.31.49-.57a2.58,2.58,0,0,0-.16-1A2.09,2.09,0,0,0,20.17,20Z"/>
        <path class="b8cad8e3-e3ba-4083-ad4c-b09d991a1716" d="M19.94,15.86c-.09-.1-.19-.16-.28,0a.44.44,0,0,0,0,.37c.05.15.09.31.15.46a.64.64,0,0,0,.24.39c.21.11.24-.21.23-.36a1.63,1.63,0,0,0-.16-.53A1.47,1.47,0,0,0,19.94,15.86Z"/>
        <path class="b8cad8e3-e3ba-4083-ad4c-b09d991a1716" d="M22.67,23.81c-.08-.13-.18-.2-.28-.07a.55.55,0,0,0,0,.4c0,.17,0,.35.09.52a.81.81,0,0,0,.2.46c.2.15.27-.2.27-.37a2,2,0,0,0-.1-.6A1.44,1.44,0,0,0,22.67,23.81Z"/>
        <path class="b8cad8e3-e3ba-4083-ad4c-b09d991a1716" d="M17.14,11.53c-.09-.09-.19-.14-.28,0s-.05.2,0,.29l.12.39c.05.12.09.26.23.32s.25-.16.25-.28a1.17,1.17,0,0,0-.13-.45A1.64,1.64,0,0,0,17.14,11.53Z"/>
        <path class="b8cad8e3-e3ba-4083-ad4c-b09d991a1716" d="M26.24,18.9c-.09-.1-.19-.16-.29,0a.45.45,0,0,0,0,.36c0,.16.08.32.13.47a.73.73,0,0,0,.23.4c.21.12.25-.2.24-.35a1.64,1.64,0,0,0-.13-.54A2,2,0,0,0,26.24,18.9Z"/>
        <path class="a89bfcdd-8a72-4c3d-ae52-22e347b7a9e0" d="M51.87,57.36a44.46,44.46,0,0,0,6.29,3.55A29.91,29.91,0,0,1,66.45,67a16.34,16.34,0,0,1,4.42,9.13,5.37,5.37,0,0,0,.32,1.65,1.41,1.41,0,0,0,1.3.89c.71-.07,1.12-.82,1.32-1.5a9.05,9.05,0,0,0-.24-5.3,15.63,15.63,0,0,0-2.67-4.65,28.86,28.86,0,0,0-10.58-8c-2.56-1.18-5.3-2.07-7.54-3.79-.6-.46-1.6-1.35-2.44-1.13-1.09.29-.18,1.56.34,2A12.59,12.59,0,0,0,51.87,57.36Z"/>
      </g>
    </g>
    <path class="a89bfcdd-8a72-4c3d-ae52-22e347b7a9e0" d="M18.21,12.48s2.23,17,11.74,28.13,6.7,2.24,2.79-4.47S22.53,13.86,21.93,12.29C20.63,8.89,17,4.46,18.21,12.48Z"/>
  </g>
</svg>
